<svg width="28" height="28" viewBox="0 0 28 28" fill="none" xmlns="http://www.w3.org/2000/svg">
<path d="M13.9531 25.9062C20.4922 25.9062 25.9062 20.4805 25.9062 13.9531C25.9062 7.41406 20.4805 2 13.9414 2C7.41406 2 2 7.41406 2 13.9531C2 20.4805 7.42578 25.9062 13.9531 25.9062Z" fill="black" fill-opacity="0.85"/>
<path d="M6.76935 16.6484C6.62873 16.2617 6.76935 15.9922 7.20294 15.9922C9.61701 15.9922 11.5272 17.0938 12.6873 18.6641V20.9492C12.6873 21.0781 12.7107 21.2188 12.7693 21.3242C10.0037 20.9492 7.6131 19.1211 6.76935 16.6484ZM9.80451 10.4609C9.80451 9.76953 9.96857 9.07812 10.285 8.36328C10.3904 8.05859 10.7654 8.01172 11.0115 8.26953L12.3943 9.6875L13.5896 8.14062C13.7889 7.87109 14.1287 7.87109 14.3162 8.14062L15.4998 9.6875L16.8709 8.26953C17.117 8.01172 17.492 8.05859 17.6326 8.36328C17.9373 9.07812 18.0779 9.76953 18.0779 10.4609C18.0779 12.582 16.6834 14.3398 14.4686 14.5859V19.7773C15.4998 17.6328 17.7146 15.9922 20.6795 15.9922C21.1014 15.9922 21.2537 16.2617 21.1131 16.6484C20.1287 19.4609 17.1521 21.4414 13.9412 21.4414C13.66 21.4414 13.4256 21.2422 13.4256 20.9492V14.5859C11.2108 14.3516 9.80451 12.582 9.80451 10.4609Z" fill="white"/>
</svg>
