<svg width="28" height="28" viewBox="0 0 28 28" fill="none" xmlns="http://www.w3.org/2000/svg">
<path d="M13.9531 25.9062C20.4922 25.9062 25.9062 20.4805 25.9062 13.9531C25.9062 7.41406 20.4805 2 13.9414 2C7.41406 2 2 7.41406 2 13.9531C2 20.4805 7.42578 25.9062 13.9531 25.9062Z" fill="black" fill-opacity="0.85"/>
<path d="M8.89062 19.8008C8.89062 19.3086 9.21875 18.9688 9.69922 18.9688C10.0859 18.9688 10.3086 19.0625 11.0352 19.0625C11.9727 19.0625 12.4531 18.5469 12.6172 17.293L13.0391 14.2812H10.543C10.0391 14.2812 9.65234 13.918 9.65234 13.4375C9.65234 12.9219 10.0391 12.5586 10.5313 12.5586H13.2852L13.6016 10.2969C13.8711 8.22266 15.0781 7.08594 17 7.08594C18.3125 7.08594 19.0391 7.42578 19.0391 8.09375C19.0391 8.57422 18.7109 8.90234 18.2305 8.90234C17.8789 8.90234 17.6445 8.82031 16.8945 8.82031C15.9688 8.82031 15.4883 9.33594 15.3242 10.6016L15.0547 12.5586H17.9844C18.5117 12.5586 18.8984 12.9219 18.8984 13.4375C18.8984 13.918 18.5234 14.2812 17.9961 14.2812H14.7969L14.3398 17.5859C14.0586 19.6836 12.8516 20.8086 10.9297 20.8086C9.59376 20.8086 8.89062 20.4688 8.89062 19.8008Z" fill="white"/>
</svg>
