<svg width="28" height="28" viewBox="0 0 28 28" fill="none" xmlns="http://www.w3.org/2000/svg">
<path d="M13.9531 25.9062C20.4922 25.9062 25.9062 20.4805 25.9062 13.9531C25.9062 7.41406 20.4805 2 13.9414 2C7.41406 2 2 7.41406 2 13.9531C2 20.4805 7.42578 25.9062 13.9531 25.9062ZM13.9531 23.9141C8.42188 23.9141 4.00391 19.4844 4.00391 13.9531C4.00391 8.42188 8.41016 3.99219 13.9414 3.99219C19.4727 3.99219 23.9141 8.42188 23.9141 13.9531C23.9141 19.4844 19.4844 23.9141 13.9531 23.9141Z" fill="black" fill-opacity="0.85"/>
<path d="M8.80859 14.7617C8.80859 15.0547 9.04297 15.2656 9.34766 15.2656H13.3203L11.1992 20.9609C10.918 21.7109 11.7148 22.1211 12.207 21.5117L18.6289 13.4492C18.7578 13.3086 18.8281 13.1445 18.8281 12.9922C18.8281 12.6992 18.5938 12.4883 18.2891 12.4883H14.3164L16.4375 6.79293C16.7188 6.04293 15.9219 5.63277 15.4297 6.23043L9.00781 14.293C8.87891 14.4453 8.80859 14.6094 8.80859 14.7617Z" fill="black" fill-opacity="0.85"/>
</svg>
