<svg width="28" height="28" viewBox="0 0 28 28" fill="none" xmlns="http://www.w3.org/2000/svg">
<path d="M20.293 7.61328V9.19531H21.8867V7.61328H20.293ZM18.7109 9.19531V10.7773H20.293V9.19531H18.7109ZM17.1172 10.7773V12.3711H18.7109V10.7773H17.1172ZM15.5352 12.3711V13.9531H17.1172V12.3711H15.5352ZM13.9531 13.9531V15.5469H15.5352V13.9531H13.9531ZM12.3594 15.5469V17.1289H13.9531V15.5469H12.3594ZM10.7773 17.1289V18.7227H12.3594V17.1289H10.7773ZM9.18359 18.7227V20.3047H10.7773V18.7227H9.18359ZM7.60156 20.3047V21.8984H9.18359V20.3047H7.60156ZM9.18359 23.2344L9.48828 23.4805H10.7773V21.8984H9.18359V23.2344ZM10.7773 20.3047V21.8984H12.3594V20.3047H10.7773ZM12.3594 18.7227V20.3047H13.9531V18.7227H12.3594ZM13.9531 17.1289V18.7227H15.5352V17.1289H13.9531ZM15.5352 15.5469V17.1289H17.1172V15.5469H15.5352ZM17.1172 13.9531V15.5469H18.7109V13.9531H17.1172ZM18.7109 12.3711V13.9531H20.293V12.3711H18.7109ZM20.293 10.7773V12.3711H21.8867V10.7773H20.293ZM23.4688 10.7539V12.3711H24.8281V10.7539H23.4688ZM21.8867 12.3711V13.9531H23.4688V12.3711H21.8867ZM20.293 13.9531V15.5469H21.8867V13.9531H20.293ZM18.7109 15.5469V17.1289H20.293V15.5469H18.7109ZM17.1172 17.1289V18.7227H18.7109V17.1289H17.1172ZM15.5352 18.7227V20.3047H17.1172V18.7227H15.5352ZM13.9531 20.3047V21.8984H15.5352V20.3047H13.9531ZM12.3594 21.8984V23.4805H13.9531V21.8984H12.3594ZM10.7422 23.4805V24.8281H12.3594V23.4805H10.7422ZM13.9531 23.4805V24.8984H15.5352V23.4805H13.9531ZM15.5352 21.8984V23.4805H17.1172V21.8984H15.5352ZM17.1172 20.3047V21.8984H18.7109V20.3047H17.1172ZM18.7109 18.7227V20.3047H20.293V18.7227H18.7109ZM20.293 17.1289V18.7227H21.8867V17.1289H20.293ZM21.8867 15.5469V17.1289H23.4688V15.5469H21.8867ZM23.4688 13.9531V15.5469H24.8867V13.9531H23.4688ZM21.8867 18.7227V20.3047H23.1758L23.4219 18.7227H21.8867ZM20.293 20.3047V21.8984H21.6406L21.8867 21.6641V20.3047H20.293ZM18.7109 21.8984V23.4336L20.293 23.1992V21.8984H18.7109ZM23.4688 9.61719L23.082 9.19531H21.8867V10.7773H23.4688V9.61719ZM13.9531 25.9062C20.4922 25.9062 25.9062 20.4805 25.9062 13.9531C25.9062 7.41406 20.4805 2 13.9414 2C7.41406 2 2 7.41406 2 13.9531C2 20.4805 7.42578 25.9062 13.9531 25.9062ZM13.9531 23.9141C8.42188 23.9141 4.00391 19.4844 4.00391 13.9531C4.00391 8.42188 8.41016 3.99219 13.9414 3.99219C19.4727 3.99219 23.9141 8.42188 23.9141 13.9531C23.9141 19.4844 19.4844 23.9141 13.9531 23.9141Z" fill="black" fill-opacity="0.85"/>
</svg>
