<svg width="28" height="28" viewBox="0 0 28 28" fill="none" xmlns="http://www.w3.org/2000/svg">
<path d="M3.67969 24.5742H23.9531C26.4141 24.5742 27.6328 23.3672 27.6328 20.9531V6.63281C27.6328 4.21875 26.4141 3 23.9531 3H3.67969C1.23047 3 0 4.21875 0 6.63281V20.9531C0 23.3672 1.23047 24.5742 3.67969 24.5742ZM3.70312 22.6875C2.53125 22.6875 1.88672 22.0664 1.88672 20.8477V6.73828C1.88672 5.51953 2.53125 4.88672 3.70312 4.88672H23.9297C25.0898 4.88672 25.7461 5.51953 25.7461 6.73828V20.8477C25.7461 22.0664 25.0898 22.6875 23.9297 22.6875H3.70312Z" fill="black" fill-opacity="0.85"/>
<path d="M13.7695 20.3203C17.3672 20.3203 20.2852 17.4023 20.2852 13.793C20.2852 10.1953 17.3672 7.27734 13.7695 7.27734C10.1602 7.27734 7.24219 10.1953 7.24219 13.793C7.24219 17.4023 10.1602 20.3203 13.7695 20.3203ZM13.7695 18.8086C10.9805 18.8086 8.75391 16.582 8.75391 13.793C8.75391 11.0039 10.9805 8.78906 13.7695 8.78906C16.5586 8.78906 18.7734 11.0039 18.7734 13.793C18.7734 16.582 16.5586 18.8086 13.7695 18.8086ZM9.12891 16.7109L16.4883 9.35156L15.1523 8.20312L8.63672 14.7188L9.12891 16.7109ZM12.457 19.4531L18.9492 12.9609L18.4453 10.9922L11.1328 18.293L12.457 19.4531Z" fill="black" fill-opacity="0.85"/>
</svg>
