<svg width="31" height="28" viewBox="0 0 31 28" fill="none" xmlns="http://www.w3.org/2000/svg">
<path d="M3.67969 21.1484H20.7773C23.2266 21.1484 24.4453 19.9297 24.4453 17.5156V5.65625C24.4453 3.24219 23.2266 2.02344 20.7773 2.02344H3.67969C1.21875 2.02344 0 3.24219 0 5.65625V17.5156C0 19.9297 1.21875 21.1484 3.67969 21.1484ZM1.88672 17.4102V5.76172C1.88672 4.54297 2.55469 3.91016 3.70312 3.91016H20.7422C21.9023 3.91016 22.5586 4.54297 22.5586 5.76172V17.4102C22.5586 18.6289 21.9141 19.2617 20.7422 19.2617H3.70312C2.53125 19.2617 1.88672 18.6289 1.88672 17.4102Z" fill="black" fill-opacity="0.85"/>
<path d="M9.59766 26.5742H26.6953C29.1445 26.5742 30.3633 25.3555 30.3633 22.9414V12.1836C30.3633 9.76953 29.1445 8.5625 26.6953 8.5625H25.1836C24.3047 8.5625 24.0352 8.45703 23.5312 7.90625L22.6875 6.99219C22.0898 6.33594 21.5156 6.03125 20.6016 6.03125H15.6914C14.7656 6.03125 14.2031 6.33594 13.5938 6.99219L12.7617 7.90625C12.2461 8.45703 11.9766 8.5625 11.0977 8.5625H9.59766C7.13672 8.5625 5.91797 9.76953 5.91797 12.1836V22.9414C5.91797 25.3555 7.13672 26.5742 9.59766 26.5742Z" fill="white"/>
<path d="M9.59766 26.5742H26.6953C29.1445 26.5742 30.3633 25.3555 30.3633 22.9414V12.1836C30.3633 9.76953 29.1445 8.5625 26.6953 8.5625H25.1836C24.3047 8.5625 24.0352 8.45703 23.5312 7.90625L22.6875 6.99219C22.0898 6.33594 21.5156 6.03125 20.6016 6.03125H15.6914C14.7656 6.03125 14.2031 6.33594 13.5938 6.99219L12.7617 7.90625C12.2461 8.45703 11.9766 8.5625 11.0977 8.5625H9.59766C7.13672 8.5625 5.91797 9.76953 5.91797 12.1836V22.9414C5.91797 25.3555 7.13672 26.5742 9.59766 26.5742ZM9.62109 24.6875C8.44922 24.6875 7.80469 24.0547 7.80469 22.8359V12.2891C7.80469 11.0703 8.44922 10.4492 9.62109 10.4492H11.5547C12.5625 10.4492 13.1836 10.2383 13.7812 9.59375L14.7891 8.48047C15.1641 8.09375 15.5156 7.91797 16.1484 7.91797H20.1328C20.7773 7.91797 21.1172 8.09375 21.4922 8.48047L22.5117 9.59375C23.1094 10.2383 23.7188 10.4492 24.7266 10.4492H26.6602C27.832 10.4492 28.4766 11.0703 28.4766 12.2891V22.8359C28.4766 24.0547 27.832 24.6875 26.6602 24.6875H9.62109ZM18.1523 23.1055C21.2812 23.1055 23.8242 20.5742 23.8242 17.4219C23.8242 14.293 21.2812 11.75 18.1523 11.75C15.0117 11.75 12.4805 14.293 12.4805 17.4219C12.4805 20.5742 15.0117 23.1055 18.1523 23.1055ZM18.1523 21.3125C16.0195 21.3125 14.2734 19.5664 14.2734 17.4219C14.2734 15.2891 16.0195 13.5547 18.1523 13.5547C20.2852 13.5547 22.0195 15.2891 22.0195 17.4219C22.0195 19.5664 20.2852 21.3125 18.1523 21.3125ZM25.3477 14.7266C26.0742 14.7266 26.6719 14.1406 26.6719 13.4141C26.6719 12.6875 26.0742 12.0898 25.3477 12.0898C24.6211 12.0898 24.0352 12.6875 24.0352 13.4141C24.0352 14.1406 24.6211 14.7266 25.3477 14.7266Z" fill="black" fill-opacity="0.85"/>
</svg>
