<svg width="28" height="28" viewBox="0 0 28 28" fill="none" xmlns="http://www.w3.org/2000/svg">
<path d="M3.67969 24.5742H13.0312V22.6875H3.70312C2.53125 22.6875 1.88672 22.0664 1.88672 20.8477V14.5898H0V20.9531C0 23.3672 1.23047 24.5742 3.67969 24.5742ZM14.6367 24.5742H23.9531C26.4141 24.5742 27.6328 23.3672 27.6328 20.9531V14.5898H25.7461V20.8477C25.7461 22.0664 25.0898 22.6875 23.9297 22.6875H14.6367V24.5742ZM25.7461 12.9961H27.6328V6.63281C27.6328 4.21875 26.4141 3 23.9531 3H14.6367V4.88672H23.9297C25.0898 4.88672 25.7461 5.51953 25.7461 6.73828V12.9961ZM0 12.9961H1.88672V6.73828C1.88672 5.51953 2.53125 4.88672 3.70312 4.88672H13.0312V3H3.67969C1.23047 3 0 4.21875 0 6.63281V12.9961Z" fill="black" fill-opacity="0.85"/>
<path d="M4.51172 6.49219C3.78516 6.49219 3.49219 6.79688 3.49219 7.54688V12.9961H8.85938C9.19922 10.8867 10.8984 9.19922 13.0312 8.85938V6.49219H4.51172ZM23.1211 6.49219H14.6367V8.85938C16.7344 9.19922 18.4336 10.8867 18.7734 12.9961H24.1523V7.54688C24.1523 6.79688 23.8594 6.49219 23.1211 6.49219ZM4.51172 21.0938H13.0312V18.7266C10.8984 18.3867 9.19922 16.6875 8.85938 14.5898H3.49219V20.0391C3.49219 20.7891 3.78516 21.0938 4.51172 21.0938ZM23.1211 21.0938C23.8594 21.0938 24.1523 20.7891 24.1523 20.0391V14.5898H18.7734C18.4336 16.6875 16.7344 18.3867 14.6367 18.7266V21.0938H23.1211Z" fill="black" fill-opacity="0.85"/>
<path d="M13.8281 17.1328C15.6445 17.1328 17.1562 15.6211 17.1562 13.7812C17.1562 11.9648 15.6445 10.4648 13.8281 10.4648C11.9883 10.4648 10.4883 11.9648 10.4883 13.7812C10.4883 15.6211 11.9883 17.1328 13.8281 17.1328Z" fill="black" fill-opacity="0.85"/>
</svg>
