<svg width="28" height="28" viewBox="0 0 28 28" fill="none" xmlns="http://www.w3.org/2000/svg">
<path d="M1.76953 26.5742H11.0859C12.4805 26.5742 13.1133 25.9531 13.1133 24.5586V10.5547C13.1133 9.52344 12.3398 8.97266 11.5078 8.97266C10.9453 8.97266 10.4062 9.23047 10.0195 9.76953L0.363281 23.7852C0.105469 24.1602 0 24.5938 0 24.9922C0 25.8477 0.5625 26.5742 1.76953 26.5742ZM2.50781 24.6641C2.4375 24.6641 2.36719 24.6289 2.36719 24.5469C2.36719 24.5117 2.37891 24.4766 2.40234 24.418L10.9922 11.5391C11.0273 11.4922 11.0625 11.4687 11.0977 11.4687C11.1562 11.4687 11.1914 11.5273 11.1914 11.5859V24.3242C11.1914 24.5938 11.1094 24.6641 10.8398 24.6641H2.50781ZM16.5 26.5742H25.8047C27.0234 26.5742 27.5859 25.8477 27.5859 24.9922C27.5859 24.5938 27.4688 24.1602 27.2109 23.7852L17.5547 9.76953C17.1797 9.23047 16.6289 8.97266 16.0664 8.97266C15.2344 8.97266 14.4727 9.52344 14.4727 10.5547V24.5586C14.4727 25.9531 15.1055 26.5742 16.5 26.5742ZM16.7461 24.6641C16.4648 24.6641 16.3945 24.5938 16.3945 24.3242V11.5977C16.3945 11.5273 16.4297 11.4687 16.4766 11.4687C16.5117 11.4687 16.5586 11.4922 16.5938 11.5508L25.1719 24.418C25.207 24.4766 25.2188 24.5117 25.2188 24.5469C25.2188 24.6289 25.1484 24.6641 25.0664 24.6641H16.7461Z" fill="black" fill-opacity="0.85"/>
<path d="M1.81643 6.043L4.95705 8.37503C5.60158 8.86722 6.37502 8.57425 6.37502 7.76566V6.08987H21.1992V7.76566C21.1992 8.57425 21.9844 8.86722 22.6289 8.37503L25.7695 6.043C26.2031 5.71487 26.1914 5.11722 25.7695 4.80081L22.6289 2.45707C22.0078 1.98832 21.1992 2.23441 21.1992 3.07815V4.7305H6.37502V3.07815C6.37502 2.25785 5.60158 1.96488 4.95705 2.45707L1.81643 4.80081C1.38283 5.11722 1.39455 5.72659 1.81643 6.043Z" fill="black" fill-opacity="0.85"/>
</svg>
