<svg width="28" height="28" viewBox="0 0 28 28" fill="none" xmlns="http://www.w3.org/2000/svg">
<path d="M3.67969 24.5742H23.9531C26.4141 24.5742 27.6328 23.3672 27.6328 20.9531V6.63281C27.6328 4.21875 26.4141 3 23.9531 3H3.67969C1.23047 3 0 4.21875 0 6.63281V20.9531C0 23.3672 1.23047 24.5742 3.67969 24.5742ZM3.70312 22.6875C2.53125 22.6875 1.88672 22.0664 1.88672 20.8477V6.73828C1.88672 5.51953 2.53125 4.88672 3.70312 4.88672H23.9297C25.0898 4.88672 25.7461 5.51953 25.7461 6.73828V20.8477C25.7461 22.0664 25.0898 22.6875 23.9297 22.6875H3.70312Z" fill="black" fill-opacity="0.85"/>
<path d="M7.33594 12.9961H8.85938C8.98828 12.1992 9.30469 11.4609 9.77344 10.8398L8.70703 9.76172C7.96875 10.6758 7.47656 11.7891 7.33594 12.9961ZM9.83203 8.63672L10.9219 9.72656C11.543 9.28125 12.2461 8.97656 13.0312 8.84766V7.32422C11.8359 7.46484 10.7461 7.94531 9.83203 8.63672ZM14.625 7.32422V8.84766C15.3984 8.97656 16.1133 9.28125 16.7227 9.71484L17.8008 8.64844C16.9102 7.94531 15.8086 7.47656 14.625 7.32422ZM18.9492 9.77344L17.8711 10.8516C18.3281 11.4727 18.6562 12.1992 18.7734 12.9961H20.2969C20.1445 11.7891 19.6641 10.6875 18.9492 9.77344ZM20.2969 14.6016H18.7617C18.6328 15.3633 18.3281 16.0781 17.8945 16.6875L18.9727 17.7656C19.6758 16.875 20.1445 15.7734 20.2969 14.6016ZM17.8359 18.9023L16.7578 17.8242C16.1484 18.293 15.4219 18.6211 14.625 18.7266V20.2734C15.832 20.1211 16.9453 19.6289 17.8359 18.9023ZM13.0312 20.2734V18.7266C12.2344 18.6211 11.5078 18.293 10.8867 17.8359L9.79688 18.9141C10.7109 19.6406 11.8242 20.1211 13.0312 20.2734ZM8.67188 17.7891L9.75 16.6992C9.30469 16.0898 9 15.375 8.87109 14.6016H7.33594C7.48828 15.7852 7.95703 16.8867 8.67188 17.7891Z" fill="black" fill-opacity="0.85"/>
</svg>
