<svg width="28" height="28" viewBox="0 0 28 28" fill="none" xmlns="http://www.w3.org/2000/svg">
<path d="M24.6758 13.9531C24.6758 7.92969 19.9766 3.23047 13.9648 3.23047V24.6641C19.9766 24.6641 24.6758 19.9766 24.6758 13.9531ZM14.5625 4.42578V2.89062H10.3906V4.42578H14.5625ZM14.5625 6.94531V5.64453H6.07812V6.94531H14.5625ZM14.5625 9.45312V8.15234H4.40234V9.45312H14.5625ZM14.5625 11.9727V10.6719H3.14844V11.9727H14.5625ZM14.5625 14.4805V13.1797H3.14844V14.4805H14.5625ZM14.5625 17V15.6992H3.14844V17H14.5625ZM14.5625 19.5195V18.2188H4.40234V19.5195H14.5625ZM14.5625 22.2617V20.7266H6.07812V22.2617H14.5625ZM14.5625 25.0156V23.4805H10.3906V25.0156H14.5625ZM13.9531 25.9062C20.4922 25.9062 25.9062 20.4805 25.9062 13.9531C25.9062 7.41406 20.4805 2 13.9414 2C7.41406 2 2 7.41406 2 13.9531C2 20.4805 7.42578 25.9062 13.9531 25.9062ZM13.9531 23.9141C8.42188 23.9141 4.00391 19.4844 4.00391 13.9531C4.00391 8.42188 8.41016 3.99219 13.9414 3.99219C19.4727 3.99219 23.9141 8.42188 23.9141 13.9531C23.9141 19.4844 19.4844 23.9141 13.9531 23.9141Z" fill="black" fill-opacity="0.85"/>
</svg>
