<svg width="29" height="28" viewBox="0 0 29 28" fill="none" xmlns="http://www.w3.org/2000/svg">
<path d="M7.78125 22.3322L20.5664 24.5705C22.8047 24.9689 24.1406 23.5627 24.1406 21.0549V7.60175C24.1406 4.96503 22.8984 3.66425 20.5664 4.0744L7.78125 6.3244C5.44922 6.73456 4.20703 7.87128 4.20703 9.84003V18.8049C4.20703 20.7619 5.44922 21.9221 7.78125 22.3322ZM7.6875 20.5627C6.57422 20.3752 5.97656 19.8127 5.97656 18.8283V9.81659C5.97656 8.83222 6.57422 8.26972 7.6875 8.08222L20.6602 5.84393C21.7734 5.65643 22.3711 6.27753 22.3711 7.57831V21.0783C22.3711 22.3205 21.7383 22.9885 20.6602 22.8127L7.6875 20.5627ZM0.9375 15.2072H27.4102C27.9961 15.2072 28.3477 14.8674 28.3477 14.3283C28.3477 13.7658 27.9961 13.4377 27.4102 13.4377H0.9375C0.351562 13.4377 0 13.7658 0 14.3283C0 14.8674 0.351562 15.2072 0.9375 15.2072Z" fill="black" fill-opacity="0.85"/>
</svg>
