<svg width="28" height="28" viewBox="0 0 28 28" fill="none" xmlns="http://www.w3.org/2000/svg">
<path d="M6.67969 24.5977H20.8945C23.3555 24.5977 24.5742 23.3789 24.5742 20.9648V6.65625C24.5742 4.24219 23.3555 3.02344 20.8945 3.02344H6.67969C4.23047 3.02344 3 4.23047 3 6.65625V20.9648C3 23.3906 4.23047 24.5977 6.67969 24.5977Z" fill="black" fill-opacity="0.85"/>
<path d="M8.50781 14.625C8.50781 14.4727 8.57812 14.2969 8.70703 14.1445L15.3281 5.83592C15.832 5.21482 16.6758 5.6367 16.3711 6.41014L14.1914 12.2812H18.2812C18.5977 12.2812 18.832 12.5039 18.832 12.8086C18.832 12.9609 18.7617 13.1367 18.6445 13.2773L12.0117 21.5859C11.5078 22.2188 10.6758 21.7969 10.9688 21.0234L13.1602 15.1523H9.05859C8.75391 15.1523 8.50781 14.9297 8.50781 14.625Z" fill="white"/>
</svg>
