<svg width="28" height="28" viewBox="0 0 28 28" fill="none" xmlns="http://www.w3.org/2000/svg">
<path d="M13.9531 25.9062C20.4922 25.9062 25.9062 20.4805 25.9062 13.9531C25.9062 7.41406 20.4805 2 13.9414 2C7.41406 2 2 7.41406 2 13.9531C2 20.4805 7.42578 25.9062 13.9531 25.9062Z" fill="black" fill-opacity="0.85"/>
<path d="M13.9531 9.40625C13.4609 9.40625 13.0977 9.04297 13.0977 8.55078C13.0977 8.05859 13.4609 7.69531 13.9531 7.69531C14.4453 7.69531 14.8086 8.05859 14.8086 8.55078C14.8086 9.04297 14.4453 9.40625 13.9531 9.40625ZM16.6602 10.1328C16.168 10.1328 15.8047 9.76953 15.8047 9.27734C15.8047 8.77344 16.168 8.41016 16.6602 8.41016C17.1641 8.41016 17.5156 8.77344 17.5156 9.27734C17.5156 9.76953 17.1641 10.1328 16.6602 10.1328ZM18.6406 12.1133C18.1484 12.1133 17.7852 11.75 17.7852 11.2578C17.7852 10.7656 18.1484 10.4023 18.6406 10.4023C19.1445 10.4023 19.5078 10.7656 19.5078 11.2578C19.5078 11.75 19.1445 12.1133 18.6406 12.1133ZM19.3672 14.8203C18.875 14.8203 18.5117 14.457 18.5117 13.9648C18.5117 13.4727 18.875 13.1094 19.3672 13.1094C19.8594 13.1094 20.2227 13.4727 20.2227 13.9648C20.2227 14.457 19.8594 14.8203 19.3672 14.8203ZM18.6406 17.5391C18.1484 17.5391 17.7852 17.1758 17.7852 16.6836C17.7852 16.1797 18.1484 15.8164 18.6406 15.8164C19.1445 15.8164 19.5078 16.1797 19.5078 16.6836C19.5078 17.1758 19.1445 17.5391 18.6406 17.5391ZM16.6602 19.5195C16.168 19.5195 15.8047 19.1562 15.8047 18.6523C15.8047 18.1602 16.168 17.7969 16.6602 17.7969C17.1641 17.7969 17.5156 18.1602 17.5156 18.6523C17.5156 19.1562 17.1641 19.5195 16.6602 19.5195ZM13.9531 20.2344C13.4609 20.2344 13.0977 19.8711 13.0977 19.3789C13.0977 18.8867 13.4609 18.5234 13.9531 18.5234C14.4453 18.5234 14.8086 18.8867 14.8086 19.3789C14.8086 19.8711 14.4453 20.2344 13.9531 20.2344ZM11.2461 19.5195C10.7539 19.5195 10.3906 19.1562 10.3906 18.6523C10.3906 18.1602 10.7539 17.7969 11.2461 17.7969C11.7383 17.7969 12.1016 18.1602 12.1016 18.6523C12.1016 19.1562 11.7383 19.5195 11.2461 19.5195ZM9.26562 17.5391C8.76172 17.5391 8.39844 17.1758 8.39844 16.6836C8.39844 16.1797 8.76172 15.8164 9.26562 15.8164C9.75781 15.8164 10.1211 16.1797 10.1211 16.6836C10.1211 17.1758 9.75781 17.5391 9.26562 17.5391ZM8.53906 14.8203C8.04688 14.8203 7.68359 14.457 7.68359 13.9648C7.68359 13.4727 8.04688 13.1094 8.53906 13.1094C9.03125 13.1094 9.39453 13.4727 9.39453 13.9648C9.39453 14.457 9.03125 14.8203 8.53906 14.8203ZM9.26562 12.1133C8.76172 12.1133 8.39844 11.75 8.39844 11.2578C8.39844 10.7656 8.76172 10.4023 9.26562 10.4023C9.75781 10.4023 10.1211 10.7656 10.1211 11.2578C10.1211 11.75 9.75781 12.1133 9.26562 12.1133ZM11.2461 10.1328C10.7539 10.1328 10.3906 9.76953 10.3906 9.27734C10.3906 8.77344 10.7539 8.41016 11.2461 8.41016C11.7383 8.41016 12.1016 8.77344 12.1016 9.27734C12.1016 9.76953 11.7383 10.1328 11.2461 10.1328Z" fill="white"/>
</svg>
