<svg width="28" height="28" viewBox="0 0 28 28" fill="none" xmlns="http://www.w3.org/2000/svg">
<path d="M13.9531 25.9062C20.4922 25.9062 25.9062 20.4805 25.9062 13.9531C25.9062 7.41406 20.4805 2 13.9414 2C7.41406 2 2 7.41406 2 13.9531C2 20.4805 7.42578 25.9062 13.9531 25.9062ZM13.9531 23.9141C8.42188 23.9141 4.00391 19.4844 4.00391 13.9531C4.00391 8.42188 8.41016 3.99219 13.9414 3.99219C19.4727 3.99219 23.9141 8.42188 23.9141 13.9531C23.9141 19.4844 19.4844 23.9141 13.9531 23.9141Z" fill="black" fill-opacity="0.85"/>
<path d="M15.1131 17.7265L19.7068 12.8515C20.0584 12.4765 20.0701 11.9374 19.742 11.6093C19.3787 11.246 18.8162 11.2343 18.4881 11.5859L13.9529 16.3905L9.41779 11.5859C9.07794 11.2343 8.50373 11.2343 8.15216 11.6093C7.83576 11.9492 7.84748 12.4765 8.18732 12.8515L12.7928 17.7265C13.5193 18.5116 14.3748 18.5116 15.1131 17.7265Z" fill="black" fill-opacity="0.85"/>
</svg>
