<svg width="28" height="28" viewBox="0 0 28 28" fill="none" xmlns="http://www.w3.org/2000/svg">
<path d="M3.23047 13.9531C3.23047 19.9766 7.92969 24.6641 13.9414 24.6641V3.23047C7.92969 3.23047 3.23047 7.92969 3.23047 13.9531ZM13.3438 4.42578H17.5156V2.89062H13.3438V4.42578ZM13.3438 6.94531H21.8281V5.64453H13.3438V6.94531ZM13.3438 9.45312H23.5039V8.15234H13.3438V9.45312ZM13.3438 11.9727H24.7578V10.6719H13.3438V11.9727ZM13.3438 14.4805H24.7578V13.1797H13.3438V14.4805ZM13.3438 17H24.7578V15.6992H13.3438V17ZM13.3438 19.5195H23.5039V18.2188H13.3438V19.5195ZM13.3438 22.2617H21.8281V20.7266H13.3438V22.2617ZM13.3438 25.0156H17.5156V23.4805H13.3438V25.0156ZM13.9531 25.9062C20.4922 25.9062 25.9062 20.4805 25.9062 13.9531C25.9062 7.41406 20.4805 2 13.9414 2C7.41406 2 2 7.41406 2 13.9531C2 20.4805 7.42578 25.9062 13.9531 25.9062ZM13.9531 23.9141C8.42188 23.9141 4.00391 19.4844 4.00391 13.9531C4.00391 8.42188 8.41016 3.99219 13.9414 3.99219C19.4727 3.99219 23.9141 8.42188 23.9141 13.9531C23.9141 19.4844 19.4844 23.9141 13.9531 23.9141Z" fill="black" fill-opacity="0.85"/>
</svg>
