<svg width="28" height="28" viewBox="0 0 28 28" fill="none" xmlns="http://www.w3.org/2000/svg">
<path d="M13.9531 25.9062C20.4922 25.9062 25.9062 20.4805 25.9062 13.9531C25.9062 7.41406 20.4805 2 13.9414 2C7.41406 2 2 7.41406 2 13.9531C2 20.4805 7.42578 25.9062 13.9531 25.9062Z" fill="black" fill-opacity="0.85"/>
<path d="M11.1758 19.9415C10.8126 19.5665 10.8126 18.9806 11.1758 18.6407L16.1446 13.9649L11.1758 9.30084C10.8008 8.94928 10.8126 8.35162 11.1876 8.00006C11.5391 7.66022 12.1017 7.69537 12.4767 8.04694L17.504 12.7696C18.1954 13.4142 18.1837 14.5274 17.504 15.1603L12.4767 19.8946C12.1368 20.2228 11.504 20.2462 11.1758 19.9415Z" fill="white"/>
</svg>
