<svg width="31" height="28" viewBox="0 0 31 28" fill="none" xmlns="http://www.w3.org/2000/svg">
<path d="M3.67969 20.9102H19.6875C22.1367 20.9102 23.3672 19.6914 23.3672 17.2773V6.22656C23.3672 3.8125 22.1367 2.59375 19.6875 2.59375H3.67969C1.23047 2.59375 0 3.8125 0 6.22656V17.2773C0 19.7031 1.23047 20.9102 3.67969 20.9102Z" fill="black" fill-opacity="0.85"/>
<path d="M9.46875 27.9414H25.4766C28.8047 27.9414 30.7617 26.0078 30.7617 22.7031V11.6523C30.7617 8.34766 28.8047 6.42578 25.4766 6.42578H9.46875C6.12891 6.42578 4.19531 8.34766 4.19531 11.6523V22.7031C4.19531 26.0195 6.12891 27.9414 9.46875 27.9414Z" fill="white"/>
<path d="M9.46875 26.3359H25.4766C27.9258 26.3359 29.1562 25.1172 29.1562 22.7031V11.6523C29.1562 9.23828 27.9258 8.01953 25.4766 8.01953H9.46875C7.01953 8.01953 5.78906 9.23828 5.78906 11.6523V22.7031C5.78906 25.1289 7.01953 26.3359 9.46875 26.3359ZM9.50391 24.4492C8.33203 24.4492 7.67578 23.8281 7.67578 22.6094V21.543L10.3242 19.2109C10.7812 18.8242 11.2148 18.6367 11.6719 18.6367C12.1758 18.6367 12.6562 18.8242 13.1133 19.2344L14.9883 20.9336L19.7227 16.7383C20.2148 16.3047 20.7188 16.1172 21.3047 16.1172C21.8789 16.1172 22.4297 16.3281 22.8867 16.75L27.2695 20.8867V22.6094C27.2695 23.8281 26.6016 24.4492 25.4531 24.4492H9.50391Z" fill="black" fill-opacity="0.85"/>
<path d="M14.1445 17.0078C12.7734 17.0078 11.6602 15.8711 11.6602 14.5C11.6602 13.1523 12.7734 12.0156 14.1445 12.0156C15.5156 12.0156 16.6289 13.1523 16.6289 14.5C16.6289 15.8711 15.5156 17.0078 14.1445 17.0078Z" fill="white"/>
</svg>
