<svg width="28" height="28" viewBox="0 0 28 28" fill="none" xmlns="http://www.w3.org/2000/svg">
<path d="M13.9531 25.9062C20.4922 25.9062 25.9062 20.4805 25.9062 13.9531C25.9062 7.41406 20.4805 2 13.9414 2C7.41406 2 2 7.41406 2 13.9531C2 20.4805 7.42578 25.9062 13.9531 25.9062ZM13.9531 23.9141C8.42188 23.9141 4.00391 19.4844 4.00391 13.9531C4.00391 8.42188 8.41016 3.99219 13.9414 3.99219C19.4727 3.99219 23.9141 8.42188 23.9141 13.9531C23.9141 19.4844 19.4844 23.9141 13.9531 23.9141Z" fill="black" fill-opacity="0.85"/>
<path d="M16.2617 19.7538C16.625 19.3905 16.6133 18.828 16.2734 18.4999L11.457 13.953L16.2734 9.42964C16.625 9.10151 16.6133 8.51557 16.25 8.17573C15.9219 7.85933 15.3828 7.87104 15.0195 8.21089L10.1445 12.8163C9.47656 13.4257 9.47656 14.5038 10.1445 15.1132L15.0195 19.7187C15.3477 20.0233 15.957 20.0468 16.2617 19.7538Z" fill="black" fill-opacity="0.85"/>
</svg>
