<svg width="30" height="28" viewBox="0 0 30 28" fill="none" xmlns="http://www.w3.org/2000/svg">
<path d="M6.26992 21.9192L22.0316 19.1418C24.434 18.7082 25.4418 17.2903 25.0199 14.9231L23.098 4.03637C22.6879 1.65746 21.2582 0.673086 18.8559 1.09496L3.08242 3.87231C0.668356 4.3059 -0.327738 5.71215 0.0941375 8.09106L2.01601 18.9778C2.42617 21.3567 3.84414 22.3411 6.26992 21.9192ZM5.96523 20.0559C4.81679 20.2551 4.06679 19.7512 3.85586 18.5559L1.96914 7.8684C1.7582 6.66137 2.28554 5.93481 3.4457 5.72387L19.1488 2.95824C20.2855 2.77074 21.0473 3.26293 21.2582 4.45824L23.1449 15.1457C23.3676 16.3528 22.8168 17.0793 21.6801 17.2903L5.96523 20.0559Z" fill="black" fill-opacity="0.85"/>
<path d="M10.1841 25.6106H26.2036C28.6411 25.6106 29.8716 24.3918 29.8716 21.9778V10.927C29.8716 8.51294 28.6411 7.29419 26.2036 7.29419H10.1841C7.73486 7.29419 6.51611 8.51294 6.51611 10.927V21.9778C6.51611 24.4036 7.73486 25.6106 10.1841 25.6106Z" fill="white"/>
<path d="M10.1841 25.6106H26.2036C28.6411 25.6106 29.8716 24.3918 29.8716 21.9778V10.927C29.8716 8.51294 28.6411 7.29419 26.2036 7.29419H10.1841C7.73486 7.29419 6.51611 8.51294 6.51611 10.927V21.9778C6.51611 24.4036 7.73486 25.6106 10.1841 25.6106ZM10.2192 23.7239C9.04736 23.7239 8.40283 23.1028 8.40283 21.884V11.0325C8.40283 9.81372 9.04736 9.18091 10.2192 9.18091H26.1685C27.3286 9.18091 27.9849 9.81372 27.9849 11.0325V21.884C27.9849 23.1028 27.3286 23.7239 26.1685 23.7239H10.2192ZM10.231 24.9895H25.9106C27.9614 24.9895 29.0395 23.9582 29.0395 21.9075V21.1575L23.6138 16.0246C23.1567 15.6028 22.5942 15.3918 22.02 15.3918C21.4458 15.3918 20.9302 15.5793 20.438 16.0129L15.7036 20.2082L13.8286 18.509C13.3716 18.0989 12.9028 17.9114 12.3989 17.9114C11.9419 17.9114 11.4966 18.0989 11.0513 18.4856L7.10205 21.9192C7.10205 23.9582 8.19189 24.9895 10.231 24.9895Z" fill="black" fill-opacity="0.85"/>
<path d="M14.8599 16.2825C16.231 16.2825 17.3442 15.1457 17.3442 13.7746C17.3442 12.427 16.231 11.2903 14.8599 11.2903C13.4888 11.2903 12.3872 12.427 12.3872 13.7746C12.3872 15.1457 13.4888 16.2825 14.8599 16.2825Z" fill="black" fill-opacity="0.85"/>
</svg>
