<svg width="28" height="28" viewBox="0 0 28 28" fill="none" xmlns="http://www.w3.org/2000/svg">
<path d="M14.0928 2.28467C14.4209 2.28467 14.6904 2.02685 14.6904 1.68701C14.6904 1.34717 14.4209 1.08936 14.0928 1.08936C13.7529 1.08936 13.4834 1.34717 13.4834 1.68701C13.4834 2.02685 13.7529 2.28467 14.0928 2.28467ZM16.249 2.48388C16.5771 2.48388 16.8467 2.21435 16.8467 1.88623C16.8467 1.54639 16.5771 1.27686 16.249 1.27686C15.9092 1.27686 15.6514 1.54639 15.6514 1.88623C15.6514 2.21435 15.9092 2.48388 16.249 2.48388ZM18.335 3.03467C18.6631 3.03467 18.9326 2.77685 18.9326 2.43701C18.9326 2.09717 18.6631 1.83936 18.335 1.83936C17.9951 1.83936 17.7256 2.09717 17.7256 2.43701C17.7256 2.77685 17.9951 3.03467 18.335 3.03467ZM20.292 3.97217C20.6318 3.97217 20.9014 3.70263 20.9014 3.37451C20.9014 3.03467 20.6318 2.76513 20.292 2.76513C19.9639 2.76513 19.6943 3.03467 19.6943 3.37451C19.6943 3.70263 19.9639 3.97217 20.292 3.97217ZM22.0615 5.20263C22.4014 5.20263 22.6709 4.94482 22.6709 4.60498C22.6709 4.26513 22.4014 4.00732 22.0615 4.00732C21.7334 4.00732 21.4639 4.26513 21.4639 4.60498C21.4639 4.94482 21.7334 5.20263 22.0615 5.20263ZM23.5967 6.73779C23.9365 6.73779 24.2061 6.46826 24.2061 6.14013C24.2061 5.80029 23.9365 5.53076 23.5967 5.53076C23.2686 5.53076 22.999 5.80029 22.999 6.14013C22.999 6.46826 23.2686 6.73779 23.5967 6.73779ZM24.8389 8.51904C25.1787 8.51904 25.4482 8.24951 25.4482 7.92138C25.4482 7.58154 25.1787 7.31201 24.8389 7.31201C24.5107 7.31201 24.2412 7.58154 24.2412 7.92138C24.2412 8.24951 24.5107 8.51904 24.8389 8.51904ZM25.7529 10.4761C26.0928 10.4761 26.3506 10.2065 26.3506 9.8667C26.3506 9.53857 26.0928 9.26904 25.7529 9.26904C25.4131 9.26904 25.1553 9.53857 25.1553 9.8667C25.1553 10.2065 25.4131 10.4761 25.7529 10.4761ZM26.3037 12.5503C26.6436 12.5503 26.9014 12.2925 26.9014 11.9526C26.9014 11.6128 26.6436 11.355 26.3037 11.355C25.9756 11.355 25.7061 11.6128 25.7061 11.9526C25.7061 12.2925 25.9756 12.5503 26.3037 12.5503ZM26.4912 14.6831C26.8311 14.6831 27.1006 14.4253 27.1006 14.0855C27.1006 13.7456 26.8311 13.4878 26.4912 13.4878C26.1631 13.4878 25.8936 13.7456 25.8936 14.0855C25.8936 14.4253 26.1631 14.6831 26.4912 14.6831ZM26.3037 16.8159C26.6436 16.8159 26.9014 16.5581 26.9014 16.2183C26.9014 15.8784 26.6436 15.6206 26.3037 15.6206C25.9756 15.6206 25.7061 15.8784 25.7061 16.2183C25.7061 16.5581 25.9756 16.8159 26.3037 16.8159ZM25.7529 18.9019C26.0928 18.9019 26.3506 18.6323 26.3506 18.2925C26.3506 17.9644 26.0928 17.6948 25.7529 17.6948C25.4131 17.6948 25.1553 17.9644 25.1553 18.2925C25.1553 18.6323 25.4131 18.9019 25.7529 18.9019ZM24.8389 20.8472C25.1787 20.8472 25.4482 20.5894 25.4482 20.2495C25.4482 19.9097 25.1787 19.6519 24.8389 19.6519C24.5107 19.6519 24.2412 19.9097 24.2412 20.2495C24.2412 20.5894 24.5107 20.8472 24.8389 20.8472ZM23.5967 22.6284C23.9365 22.6284 24.2061 22.3706 24.2061 22.0308C24.2061 21.6909 23.9365 21.4331 23.5967 21.4331C23.2686 21.4331 22.999 21.6909 22.999 22.0308C22.999 22.3706 23.2686 22.6284 23.5967 22.6284ZM22.0615 24.1636C22.4014 24.1636 22.6709 23.8941 22.6709 23.5659C22.6709 23.2261 22.4014 22.9566 22.0615 22.9566C21.7334 22.9566 21.4639 23.2261 21.4639 23.5659C21.4639 23.8941 21.7334 24.1636 22.0615 24.1636ZM20.292 25.3941C20.6318 25.3941 20.9014 25.1362 20.9014 24.7964C20.9014 24.4566 20.6318 24.1987 20.292 24.1987C19.9639 24.1987 19.6943 24.4566 19.6943 24.7964C19.6943 25.1362 19.9639 25.3941 20.292 25.3941ZM18.335 26.3316C18.6631 26.3316 18.9326 26.062 18.9326 25.7339C18.9326 25.3941 18.6631 25.1245 18.335 25.1245C17.9951 25.1245 17.7256 25.3941 17.7256 25.7339C17.7256 26.062 17.9951 26.3316 18.335 26.3316ZM16.249 26.8823C16.5771 26.8823 16.8467 26.6245 16.8467 26.2847C16.8467 25.9448 16.5771 25.687 16.249 25.687C15.9092 25.687 15.6514 25.9448 15.6514 26.2847C15.6514 26.6245 15.9092 26.8823 16.249 26.8823ZM14.0928 27.0816C14.4209 27.0816 14.6904 26.812 14.6904 26.4839C14.6904 26.1441 14.4209 25.8745 14.0928 25.8745C13.7529 25.8745 13.4834 26.1441 13.4834 26.4839C13.4834 26.812 13.7529 27.0816 14.0928 27.0816ZM11.9248 26.8823C12.2646 26.8823 12.5342 26.6245 12.5342 26.2847C12.5342 25.9448 12.2646 25.687 11.9248 25.687C11.5967 25.687 11.3271 25.9448 11.3271 26.2847C11.3271 26.6245 11.5967 26.8823 11.9248 26.8823ZM9.83887 26.3316C10.1787 26.3316 10.4482 26.062 10.4482 25.7339C10.4482 25.3941 10.1787 25.1245 9.83887 25.1245C9.51074 25.1245 9.24121 25.3941 9.24121 25.7339C9.24121 26.062 9.51074 26.3316 9.83887 26.3316ZM7.88184 25.3941C8.20996 25.3941 8.47949 25.1362 8.47949 24.7964C8.47949 24.4566 8.20996 24.1987 7.88184 24.1987C7.54199 24.1987 7.28418 24.4566 7.28418 24.7964C7.28418 25.1362 7.54199 25.3941 7.88184 25.3941ZM6.1123 24.1636C6.44043 24.1636 6.70996 23.8941 6.70996 23.5659C6.70996 23.2261 6.44043 22.9566 6.1123 22.9566C5.77246 22.9566 5.50293 23.2261 5.50293 23.5659C5.50293 23.8941 5.77246 24.1636 6.1123 24.1636ZM4.57715 22.6284C4.91699 22.6284 5.1748 22.3706 5.1748 22.0308C5.1748 21.6909 4.91699 21.4331 4.57715 21.4331C4.2373 21.4331 3.97949 21.6909 3.97949 22.0308C3.97949 22.3706 4.2373 22.6284 4.57715 22.6284ZM3.33496 20.8472C3.66309 20.8472 3.93262 20.5894 3.93262 20.2495C3.93262 19.9097 3.66309 19.6519 3.33496 19.6519C2.99512 19.6519 2.72559 19.9097 2.72559 20.2495C2.72559 20.5894 2.99512 20.8472 3.33496 20.8472ZM2.4209 18.9019C2.76074 18.9019 3.01855 18.6323 3.01855 18.2925C3.01855 17.9644 2.76074 17.6948 2.4209 17.6948C2.08105 17.6948 1.82324 17.9644 1.82324 18.2925C1.82324 18.6323 2.08105 18.9019 2.4209 18.9019ZM1.87012 16.8159C2.20996 16.8159 2.46777 16.5581 2.46777 16.2183C2.46777 15.8784 2.20996 15.6206 1.87012 15.6206C1.53027 15.6206 1.27246 15.8784 1.27246 16.2183C1.27246 16.5581 1.53027 16.8159 1.87012 16.8159ZM1.68262 14.6831C2.02246 14.6831 2.28027 14.4253 2.28027 14.0855C2.28027 13.7456 2.02246 13.4878 1.68262 13.4878C1.34277 13.4878 1.08496 13.7456 1.08496 14.0855C1.08496 14.4253 1.34277 14.6831 1.68262 14.6831ZM1.87012 12.5503C2.20996 12.5503 2.46777 12.2925 2.46777 11.9526C2.46777 11.6128 2.20996 11.355 1.87012 11.355C1.53027 11.355 1.27246 11.6128 1.27246 11.9526C1.27246 12.2925 1.53027 12.5503 1.87012 12.5503ZM2.4209 10.4761C2.76074 10.4761 3.01855 10.2065 3.01855 9.8667C3.01855 9.53857 2.76074 9.26904 2.4209 9.26904C2.08105 9.26904 1.82324 9.53857 1.82324 9.8667C1.82324 10.2065 2.08105 10.4761 2.4209 10.4761ZM3.33496 8.51904C3.66309 8.51904 3.93262 8.24951 3.93262 7.92138C3.93262 7.58154 3.66309 7.31201 3.33496 7.31201C2.99512 7.31201 2.72559 7.58154 2.72559 7.92138C2.72559 8.24951 2.99512 8.51904 3.33496 8.51904ZM4.57715 6.73779C4.91699 6.73779 5.1748 6.46826 5.1748 6.14013C5.1748 5.80029 4.91699 5.53076 4.57715 5.53076C4.2373 5.53076 3.97949 5.80029 3.97949 6.14013C3.97949 6.46826 4.2373 6.73779 4.57715 6.73779ZM6.1123 5.20263C6.44043 5.20263 6.70996 4.94482 6.70996 4.60498C6.70996 4.26513 6.44043 4.00732 6.1123 4.00732C5.77246 4.00732 5.50293 4.26513 5.50293 4.60498C5.50293 4.94482 5.77246 5.20263 6.1123 5.20263ZM7.88184 3.97217C8.20996 3.97217 8.47949 3.70263 8.47949 3.37451C8.47949 3.03467 8.20996 2.76513 7.88184 2.76513C7.54199 2.76513 7.28418 3.03467 7.28418 3.37451C7.28418 3.70263 7.54199 3.97217 7.88184 3.97217ZM9.83887 3.03467C10.1787 3.03467 10.4482 2.77685 10.4482 2.43701C10.4482 2.09717 10.1787 1.83936 9.83887 1.83936C9.51074 1.83936 9.24121 2.09717 9.24121 2.43701C9.24121 2.77685 9.51074 3.03467 9.83887 3.03467ZM11.9248 2.48388C12.2646 2.48388 12.5342 2.21435 12.5342 1.88623C12.5342 1.54639 12.2646 1.27686 11.9248 1.27686C11.5967 1.27686 11.3271 1.54639 11.3271 1.88623C11.3271 2.21435 11.5967 2.48388 11.9248 2.48388Z" fill="black" fill-opacity="0.85"/>
<path d="M14.0928 23.5425C19.3193 23.5425 23.5498 19.3237 23.5498 14.0855C23.5498 8.88232 19.2959 4.6167 14.0928 4.6167C8.83105 4.6167 4.62402 8.84717 4.62402 14.0855C4.62402 19.3472 8.81934 23.5425 14.0928 23.5425ZM14.0928 22.4058C9.45215 22.4058 5.77246 18.7261 5.77246 14.0855C5.77246 9.47998 9.47559 5.76513 14.0928 5.76513C18.6748 5.76513 22.4014 9.4917 22.4014 14.0855C22.4014 18.6909 18.6982 22.4058 14.0928 22.4058Z" fill="black" fill-opacity="0.85"/>
<path d="M14.0928 18.9253C16.7529 18.9253 18.8975 16.7691 18.8975 14.1089C18.8975 11.4487 16.7529 9.29248 14.0928 9.29248C11.4209 9.29248 9.27637 11.437 9.27637 14.1089C9.27637 16.7808 11.4092 18.9253 14.0928 18.9253Z" fill="black" fill-opacity="0.85"/>
<path d="M23.3154 26.5073C24.1943 27.3862 25.6592 27.398 26.5381 26.4839C27.4053 25.5933 27.417 24.1753 26.5264 23.2964L4.88184 1.66358C4.00293 0.784675 2.5498 0.772956 1.65918 1.66358C0.780273 2.54249 0.780273 3.99561 1.65918 4.87452L23.3154 26.5073Z" fill="white"/>
<path d="M24.2764 25.5347C24.6162 25.8745 25.2139 25.8862 25.5537 25.5347C25.9053 25.1831 25.9053 24.6089 25.5537 24.2573L3.9209 2.63625C3.56934 2.28469 2.9834 2.27297 2.63184 2.63625C2.29199 2.97609 2.29199 3.57375 2.63184 3.91359L24.2764 25.5347Z" fill="black" fill-opacity="0.85"/>
</svg>
