<svg width="29" height="31" viewBox="0 0 29 31" fill="none" xmlns="http://www.w3.org/2000/svg">
<path d="M3.67969 26.0865H25.1016C27.5391 26.0865 28.7812 24.8678 28.7812 22.4537V10.1842C28.7812 7.77014 27.5391 6.56311 25.1016 6.56311H21.75C20.8242 6.56311 20.543 6.37561 20.0156 5.78967L19.0781 4.73499C18.4922 4.09046 17.8945 3.73889 16.6875 3.73889H12.0117C10.8047 3.73889 10.207 4.09046 9.62109 4.73499L8.68359 5.78967C8.15625 6.36389 7.86328 6.56311 6.94922 6.56311H3.67969C1.23047 6.56311 0 7.77014 0 10.1842V22.4537C0 24.8678 1.23047 26.0865 3.67969 26.0865ZM3.70312 24.1998C2.55469 24.1998 1.88672 23.5787 1.88672 22.3599V10.2896C1.88672 9.07092 2.55469 8.44983 3.70312 8.44983H7.41797C8.47266 8.44983 9.04688 8.25061 9.63281 7.59436L10.5469 6.56311C11.2148 5.81311 11.5664 5.62561 12.5977 5.62561H16.1016C17.1328 5.62561 17.4844 5.81311 18.1523 6.56311L19.0664 7.59436C19.6523 8.25061 20.2266 8.44983 21.2812 8.44983H25.0664C26.2266 8.44983 26.8945 9.07092 26.8945 10.2896V22.3599C26.8945 23.5787 26.2266 24.1998 25.0664 24.1998H3.70312ZM14.3906 22.5123C17.9297 22.5123 20.7773 19.6764 20.7773 16.1021C20.7773 12.5396 17.9414 9.70374 14.3906 9.70374C10.8398 9.70374 7.99219 12.5396 7.99219 16.1021C7.99219 19.6764 10.8398 22.5123 14.3906 22.5123ZM14.3906 20.731C11.8477 20.731 9.76172 18.6803 9.76172 16.1021C9.76172 13.5357 11.8359 11.4732 14.3906 11.4732C16.9453 11.4732 19.0078 13.5357 19.0078 16.1021C19.0078 18.6803 16.9453 20.731 14.3906 20.731ZM21.2578 11.7896C21.2578 12.6099 21.9258 13.2545 22.7344 13.2545C23.5078 13.2545 24.1875 12.5982 24.1875 11.7896C24.1875 11.0162 23.5078 10.3365 22.7344 10.3365C21.9258 10.3365 21.2578 11.0162 21.2578 11.7896Z" fill="black" fill-opacity="0.85"/>
<path d="M1.57018 1.66473L4.86315 4.48895C5.07409 4.66473 5.29675 4.80536 5.54284 4.80536C5.80065 4.80536 6.02331 4.66473 6.23425 4.48895L9.52721 1.66473C10.4999 0.844422 9.35143 -0.655578 8.27331 0.317079L5.54284 2.81317L2.82409 0.317079C1.73425 -0.655578 0.59753 0.844422 1.57018 1.66473Z" fill="black" fill-opacity="0.85"/>
</svg>
