<svg width="28" height="28" viewBox="0 0 28 28" fill="none" xmlns="http://www.w3.org/2000/svg">
<path d="M13.9531 25.9062C20.4922 25.9062 25.9062 20.4805 25.9062 13.9531C25.9062 7.41406 20.4805 2 13.9414 2C7.41406 2 2 7.41406 2 13.9531C2 20.4805 7.42578 25.9062 13.9531 25.9062ZM13.9531 23.9141C8.42188 23.9141 4.00391 19.4844 4.00391 13.9531C4.00391 8.42188 8.41016 3.99219 13.9414 3.99219C19.4727 3.99219 23.9141 8.42188 23.9141 13.9531C23.9141 19.4844 19.4844 23.9141 13.9531 23.9141Z" fill="black" fill-opacity="0.85"/>
<path d="M9.05469 19.168H18.8281C20 19.168 20.5859 18.5703 20.5859 17.4219V10.5312C20.5859 9.37109 20 8.79688 18.8281 8.79688H9.05469C7.89453 8.79688 7.29688 9.37109 7.29688 10.5312V17.4219C7.29688 18.582 7.89453 19.168 9.05469 19.168ZM9.10156 18.1016C8.63281 18.1016 8.36328 17.8203 8.36328 17.3633V16.8477L9.93359 15.5234C10.1797 15.3125 10.4492 15.1953 10.707 15.1953C10.9766 15.1953 11.2578 15.3125 11.5156 15.5352L12.5938 16.5078L15.2891 14.1172C15.5586 13.8828 15.8633 13.7539 16.1914 13.7539C16.4961 13.7539 16.8242 13.8828 17.082 14.1289L19.5195 16.3438V17.3633C19.5195 17.8203 19.25 18.1016 18.7812 18.1016H9.10156ZM11.5273 14.1172C10.7539 14.1172 10.1211 13.4961 10.1211 12.7227C10.1211 11.9727 10.7539 11.3398 11.5273 11.3398C12.2773 11.3398 12.8984 11.9727 12.8984 12.7227C12.8984 13.4961 12.2773 14.1172 11.5273 14.1172Z" fill="black" fill-opacity="0.85"/>
</svg>
