<svg width="28" height="28" viewBox="0 0 28 28" fill="none" xmlns="http://www.w3.org/2000/svg">
<path d="M13.9648 2.58594C12.9688 2.85547 11.9844 3.19531 11.0352 3.59375H13.9648V2.58594ZM13.9648 4.42578H8.43359C8.24609 4.80078 8.07031 5.21094 7.91797 5.64453H13.9648V4.42578ZM13.9648 6.94531H5.57422C5.46875 7.33203 5.375 7.74219 5.29297 8.15234H13.9648V6.94531ZM13.9648 9.45312H3.59375C3.53516 9.85156 3.48828 10.2617 3.45312 10.6719H13.9648V9.45312ZM13.9648 11.9727H3.41797C3.39453 12.3711 3.38281 12.7812 3.37109 13.1797H13.9648V11.9727ZM13.9648 14.4805H3.37109C3.38281 14.8906 3.39453 15.3008 3.41797 15.6992H13.9648V14.4805ZM13.9648 17H3.45312C3.48828 17.4102 3.53516 17.8086 3.59375 18.2188H13.9648V17ZM13.9648 19.5195H5.29297C5.375 19.9297 5.46875 20.3398 5.57422 20.7266H13.9648V19.5195ZM13.9648 22.2617H7.91797C8.07031 22.6953 8.24609 23.0938 8.43359 23.4805H13.9648V22.2617ZM13.9648 24.3125H11.0352C11.9844 24.7109 12.9688 25.0391 13.9648 25.3086V24.3125ZM13.9531 25.9062C20.4922 25.9062 25.9062 20.4805 25.9062 13.9531C25.9062 7.41406 20.4805 2 13.9414 2C7.41406 2 2 7.41406 2 13.9531C2 20.4805 7.42578 25.9062 13.9531 25.9062ZM13.9531 23.9141C8.42188 23.9141 4.00391 19.4844 4.00391 13.9531C4.00391 8.42188 8.41016 3.99219 13.9414 3.99219C19.4727 3.99219 23.9141 8.42188 23.9141 13.9531C23.9141 19.4844 19.4844 23.9141 13.9531 23.9141Z" fill="black" fill-opacity="0.85"/>
</svg>
