<svg width="28" height="28" viewBox="0 0 28 28" fill="none" xmlns="http://www.w3.org/2000/svg">
<path d="M7 10.8555C7 11.4297 7.46875 11.8984 8.04297 11.8984H13.0469V16.7266C13.0469 17.2891 13.5156 17.7461 14.0898 17.7461C14.6641 17.7461 15.1445 17.2891 15.1445 16.7266V11.8984H20.1484C20.7227 11.8984 21.1914 11.4297 21.1914 10.8555C21.1914 10.2812 20.7227 9.80078 20.1484 9.80078H15.1445V5.03125C15.1445 4.45703 14.6641 4 14.0898 4C13.5156 4 13.0469 4.45703 13.0469 5.03125V9.80078H8.04297C7.46875 9.80078 7 10.2812 7 10.8555ZM7 22.5273C7 23.1133 7.48047 23.582 8.04297 23.582H20.1484C20.7109 23.582 21.1914 23.1133 21.1914 22.5273C21.1914 21.9531 20.7109 21.4844 20.1484 21.4844H8.04297C7.48047 21.4844 7 21.9531 7 22.5273Z" fill="black" fill-opacity="0.85"/>
</svg>
