<svg width="29" height="28" viewBox="0 0 29 28" fill="none" xmlns="http://www.w3.org/2000/svg">
<path d="M3.67969 24.3477H25.1016C27.5391 24.3477 28.7812 23.1289 28.7812 20.7148V8.44531C28.7812 6.03125 27.5391 4.82422 25.1016 4.82422H21.75C20.8242 4.82422 20.543 4.63672 20.0156 4.05078L19.0781 2.99609C18.4922 2.35156 17.8945 2 16.6875 2H12.0117C10.8047 2 10.207 2.35156 9.62109 2.99609L8.68359 4.05078C8.15625 4.625 7.86328 4.82422 6.94922 4.82422H3.67969C1.23047 4.82422 0 6.03125 0 8.44531V20.7148C0 23.1289 1.23047 24.3477 3.67969 24.3477ZM3.70312 22.4609C2.55469 22.4609 1.88672 21.8398 1.88672 20.6211V8.55078C1.88672 7.33203 2.55469 6.71094 3.70312 6.71094H7.41797C8.47266 6.71094 9.04688 6.51172 9.63281 5.85547L10.5469 4.82422C11.2148 4.07422 11.5664 3.88672 12.5977 3.88672H16.1016C17.1328 3.88672 17.4844 4.07422 18.1523 4.82422L19.0664 5.85547C19.6523 6.51172 20.2266 6.71094 21.2812 6.71094H25.0664C26.2266 6.71094 26.8945 7.33203 26.8945 8.55078V20.6211C26.8945 21.8398 26.2266 22.4609 25.0664 22.4609H3.70312Z" fill="black" fill-opacity="0.85"/>
<path d="M6.50381 14.0117C6.22256 14.4219 6.32802 14.9141 6.85537 14.9141H8.05068C8.61318 18.0664 11.1679 20.2461 14.414 20.2461C15.8319 20.2461 17.2499 19.7539 18.246 18.9336C18.7851 18.5117 18.9257 17.9141 18.5155 17.4922C18.1171 17.0703 17.6132 17.1406 17.1561 17.4688C16.3358 18.1133 15.5155 18.4648 14.414 18.4648C12.1522 18.4648 10.2655 16.9414 9.7499 14.9141H10.9569C11.4843 14.9141 11.6132 14.4219 11.3202 14.0117L9.46865 11.457C9.17568 11.0352 8.64834 11 8.32021 11.457L6.50381 14.0117ZM10.289 10.2734C10.6757 10.6953 11.1913 10.6367 11.6366 10.2969C12.4569 9.64062 13.289 9.3125 14.3905 9.3125C16.6522 9.3125 18.5272 10.8359 19.0429 12.8516H17.7655C17.2499 12.8516 17.121 13.3555 17.414 13.7539L19.2538 16.3203C19.5585 16.7422 20.0858 16.7773 20.414 16.3203L22.2304 13.7539C22.5116 13.3438 22.4061 12.8516 21.8788 12.8516H20.7421C20.1796 9.69922 17.6249 7.51953 14.3905 7.51953C12.9726 7.51953 11.5429 8.02344 10.5585 8.84375C10.0194 9.26562 9.87881 9.85156 10.289 10.2734Z" fill="black" fill-opacity="0.85"/>
</svg>
