<svg width="29" height="29" viewBox="0 0 29 29" fill="none" xmlns="http://www.w3.org/2000/svg">
<path d="M14.1797 28.0195C14.7188 28.0195 15.0586 27.668 15.0586 27.0938V0.9375C15.0586 0.351562 14.7188 0 14.1797 0C13.6172 0 13.2891 0.351562 13.2891 0.9375V27.0938C13.2891 27.668 13.6172 28.0195 14.1797 28.0195ZM0.9375 14.8945H27.4102C27.9961 14.8945 28.3477 14.5547 28.3477 14.0156C28.3477 13.4531 27.9961 13.125 27.4102 13.125H0.9375C0.351562 13.125 0 13.4531 0 14.0156C0 14.5547 0.351562 14.8945 0.9375 14.8945Z" fill="black" fill-opacity="0.85"/>
<path d="M7.78125 22.0195L20.5664 24.2578C22.8047 24.6562 24.1406 23.25 24.1406 20.7422V7.28906C24.1406 4.65234 22.8984 3.35156 20.5664 3.76172L7.78125 6.01172C5.44922 6.42188 4.20703 7.55859 4.20703 9.52734V18.4922C4.20703 20.4492 5.44922 21.6094 7.78125 22.0195ZM7.6875 20.25C6.57422 20.0625 5.97656 19.5 5.97656 18.5156V9.50391C5.97656 8.51953 6.57422 7.95703 7.6875 7.76953L20.6602 5.53125C21.7734 5.34375 22.3711 5.96484 22.3711 7.26562V20.7656C22.3711 22.0078 21.7383 22.6758 20.6602 22.5L7.6875 20.25Z" fill="black" fill-opacity="0.85"/>
</svg>
