<svg width="28" height="28" viewBox="0 0 28 28" fill="none" xmlns="http://www.w3.org/2000/svg">
<path d="M3.67969 24.5742H13.0312V22.6875H3.70312C2.53125 22.6875 1.88672 22.0664 1.88672 20.8477V14.5898H0V20.9531C0 23.3672 1.23047 24.5742 3.67969 24.5742ZM14.6367 24.5742H23.9531C26.4141 24.5742 27.6328 23.3672 27.6328 20.9531V14.5898H25.7461V20.8477C25.7461 22.0664 25.0898 22.6875 23.9297 22.6875H14.6367V24.5742ZM25.7461 12.9961H27.6328V6.63281C27.6328 4.21875 26.4141 3 23.9531 3H14.6367V4.88672H23.9297C25.0898 4.88672 25.7461 5.51953 25.7461 6.73828V12.9961ZM0 12.9961H1.88672V6.73828C1.88672 5.51953 2.53125 4.88672 3.70312 4.88672H13.0312V3H3.67969C1.23047 3 0 4.21875 0 6.63281V12.9961Z" fill="black" fill-opacity="0.85"/>
<path d="M13.8398 10.582C14.7656 10.582 15.5039 9.84375 15.5039 8.90625C15.5039 7.98047 14.7656 7.24219 13.8398 7.24219C12.9023 7.24219 12.1641 7.98047 12.1641 8.90625C12.1641 9.84375 12.9023 10.582 13.8398 10.582ZM8.96484 15.4453C9.90234 15.4453 10.6406 14.707 10.6406 13.7812C10.6406 12.8437 9.90234 12.1055 8.96484 12.1055C8.03906 12.1055 7.28906 12.8437 7.28906 13.7812C7.28906 14.707 8.03906 15.4453 8.96484 15.4453ZM18.7031 15.4453C19.6406 15.4453 20.3789 14.707 20.3789 13.7812C20.3789 12.8437 19.6406 12.1055 18.7031 12.1055C17.7773 12.1055 17.0391 12.8437 17.0391 13.7812C17.0391 14.707 17.7773 15.4453 18.7031 15.4453ZM13.8398 20.3203C14.7656 20.3203 15.5039 19.582 15.5039 18.6562C15.5039 17.7188 14.7656 16.9805 13.8398 16.9805C12.9023 16.9805 12.1641 17.7188 12.1641 18.6562C12.1641 19.582 12.9023 20.3203 13.8398 20.3203Z" fill="black" fill-opacity="0.85"/>
<path d="M13.8398 15.4453C14.7656 15.4453 15.5039 14.707 15.5039 13.7812C15.5039 12.8437 14.7656 12.1055 13.8398 12.1055C12.9023 12.1055 12.1641 12.8437 12.1641 13.7812C12.1641 14.707 12.9023 15.4453 13.8398 15.4453Z" fill="black" fill-opacity="0.85"/>
</svg>
