<svg width="28" height="28" viewBox="0 0 28 28" fill="none" xmlns="http://www.w3.org/2000/svg">
<path d="M3.67969 24.5742H13.0312V22.6875H3.70312C2.53125 22.6875 1.88672 22.0664 1.88672 20.8477V14.5898H0V20.9531C0 23.3672 1.23047 24.5742 3.67969 24.5742ZM14.6367 24.5742H23.9531C26.4141 24.5742 27.6328 23.3672 27.6328 20.9531V14.5898H25.7461V20.8477C25.7461 22.0664 25.0898 22.6875 23.9297 22.6875H14.6367V24.5742ZM25.7461 12.9961H27.6328V6.63281C27.6328 4.21875 26.4141 3 23.9531 3H14.6367V4.88672H23.9297C25.0898 4.88672 25.7461 5.51953 25.7461 6.73828V12.9961ZM0 12.9961H1.88672V6.73828C1.88672 5.51953 2.53125 4.88672 3.70312 4.88672H13.0312V3H3.67969C1.23047 3 0 4.21875 0 6.63281V12.9961Z" fill="black" fill-opacity="0.85"/>
<path d="M13.6055 16.207C14.1914 16.207 14.5547 15.832 14.5547 15.375C14.5547 15.3281 14.5547 15.2695 14.5547 15.2344C14.5547 14.5781 14.9297 14.1562 15.75 13.6172C16.8867 12.8672 17.6952 12.1875 17.6952 10.7812C17.6952 8.83594 15.9608 7.78125 13.9688 7.78125C11.953 7.78125 10.6289 8.74219 10.3125 9.82031C10.2539 10.0078 10.2188 10.1953 10.2188 10.3945C10.2188 10.9219 10.6289 11.2031 11.0156 11.2031C11.4141 11.2031 11.6719 11.0156 11.8828 10.7344L12.0938 10.4531C12.5038 9.77344 13.1133 9.375 13.8984 9.375C14.9648 9.375 15.6562 9.98438 15.6562 10.875C15.6562 11.6719 15.1641 12.0586 14.1328 12.7734C13.3008 13.3594 12.668 13.9805 12.668 15.1289C12.668 15.1758 12.668 15.2344 12.668 15.2812C12.668 15.8906 13.0078 16.207 13.6055 16.207ZM13.582 19.6992C14.2617 19.6992 14.8477 19.1602 14.8477 18.4805C14.8477 17.8008 14.2734 17.2617 13.582 17.2617C12.8906 17.2617 12.3163 17.8125 12.3163 18.4805C12.3163 19.1484 12.9023 19.6992 13.582 19.6992Z" fill="black" fill-opacity="0.85"/>
</svg>
