<svg width="28" height="28" viewBox="0 0 28 28" fill="none" xmlns="http://www.w3.org/2000/svg">
<path d="M13.9531 25.9062C20.4922 25.9062 25.9062 20.4922 25.9062 13.9531C25.9062 7.42578 20.4805 2 13.9414 2C7.41406 2 2 7.42578 2 13.9531C2 20.4922 7.42578 25.9062 13.9531 25.9062Z" fill="black" fill-opacity="0.85"/>
<path d="M14.0116 20.7031C10.5663 20.7031 7.83581 18.3945 7.24987 15.0312H5.97253C5.39831 15.0312 5.29284 14.4922 5.59753 14.0586L7.53112 11.3281C7.88268 10.8594 8.44518 10.8828 8.76159 11.3281L10.7303 14.0586C11.035 14.4922 10.9178 15.0312 10.3436 15.0312H9.07799C9.61706 17.1641 11.6093 18.7812 14.0116 18.7812C15.1835 18.7812 16.0507 18.418 16.9179 17.75C17.3983 17.3867 17.9491 17.3164 18.371 17.7734C18.8046 18.2188 18.664 18.8516 18.078 19.3086C17.0351 20.1758 15.5233 20.7031 14.0116 20.7031ZM13.9882 7.15625C17.4335 7.15625 20.1522 9.46484 20.7499 12.8281H21.9569C22.5311 12.8281 22.6366 13.3672 22.3319 13.8008L20.3983 16.5195C20.0468 17 19.4843 16.9648 19.1561 16.5195L17.1991 13.8008C16.8944 13.3672 17.0116 12.8281 17.5741 12.8281H18.9218C18.3827 10.6836 16.3905 9.06641 13.9882 9.06641C12.8163 9.06641 11.9491 9.44141 11.0819 10.1094C10.6014 10.4609 10.0389 10.543 9.62878 10.0859C9.2069 9.64062 9.33581 9.00781 9.92175 8.53906C10.9647 7.68359 12.4765 7.15625 13.9882 7.15625Z" fill="white"/>
</svg>
