<svg width="28" height="28" viewBox="0 0 28 28" fill="none" xmlns="http://www.w3.org/2000/svg">
<path d="M6 23.7617C6 25.5898 7.27734 26.8086 9.1875 26.8086H17.8711C19.7812 26.8086 21.0586 25.5898 21.0586 23.7617V5.04688C21.0586 3.21875 19.7812 2 17.8711 2H9.1875C7.27734 2 6 3.21875 6 5.04688V23.7617ZM7.88672 23.457V5.35156C7.88672 4.41406 8.4375 3.88672 9.43359 3.88672H17.6367C18.6211 3.88672 19.1719 4.41406 19.1719 5.35156V23.457C19.1719 24.3945 18.6211 24.9219 17.6367 24.9219H9.43359C8.4375 24.9219 7.88672 24.3945 7.88672 23.457Z" fill="black" fill-opacity="0.85"/>
<path d="M10.8984 8.36328C11.6836 8.36328 12.3633 7.68359 12.3633 6.85156C12.3633 6.05469 11.6836 5.375 10.8984 5.375C10.0547 5.375 9.38672 6.05469 9.38672 6.85156C9.38672 7.68359 10.0547 8.36328 10.8984 8.36328Z" fill="black" fill-opacity="0.85"/>
</svg>
