<svg width="28" height="28" viewBox="0 0 28 28" fill="none" xmlns="http://www.w3.org/2000/svg">
<path d="M0 9.19922H1.88672V6.75C1.88672 5.53125 2.53125 4.91016 3.70312 4.91016H6.12891V3.02344H3.67969C1.23047 3.02344 0 4.23047 0 6.65625V9.19922ZM0 16.8164H1.88672V10.8047H0V16.8164ZM3.67969 24.5977H6.12891V22.7109H3.70312C2.53125 22.7109 1.88672 22.0898 1.88672 20.8711V18.4219H0V20.9648C0 23.3906 1.23047 24.5977 3.67969 24.5977ZM7.73438 24.5977H13.0195V22.7109H7.73438V24.5977ZM14.6133 24.5977H19.8984V22.7109H14.6133V24.5977ZM23.9531 24.5977C26.4023 24.5977 27.6328 23.3906 27.6328 20.9648V18.4219H25.7461V20.8711C25.7461 22.0898 25.1016 22.7109 23.9297 22.7109H21.5039V24.5977H23.9531ZM27.6328 9.19922V6.65625C27.6328 4.23047 26.4023 3.02344 23.9531 3.02344H21.5039V4.91016H23.9297C25.1016 4.91016 25.7461 5.53125 25.7461 6.75V9.19922H27.6328ZM27.6328 16.8164V10.8047H25.7461V16.8164H27.6328ZM7.73438 4.91016H13.0195V3.02344H7.73438V4.91016ZM14.6133 4.91016H19.8984V3.02344H14.6133V4.91016Z" fill="black" fill-opacity="0.85"/>
<path d="M13.7695 20.332C17.3672 20.332 20.2852 17.4141 20.2852 13.8047C20.2852 10.207 17.3672 7.28906 13.7695 7.28906C10.1602 7.28906 7.24219 10.207 7.24219 13.8047C7.24219 17.4141 10.1602 20.332 13.7695 20.332ZM13.7695 18.8203C10.9805 18.8203 8.75391 16.5938 8.75391 13.8047C8.75391 11.0156 10.9805 8.80078 13.7695 8.80078C16.5586 8.80078 18.7734 11.0156 18.7734 13.8047C18.7734 16.5938 16.5586 18.8203 13.7695 18.8203Z" fill="black" fill-opacity="0.85"/>
</svg>
