<svg width="28" height="28" viewBox="0 0 28 28" fill="none" xmlns="http://www.w3.org/2000/svg">
<path d="M5.84277 12.4219H7.60059V3.87891C7.60059 2.92969 8.15137 2.35547 9.19434 2.35547H18.3701C19.4131 2.35547 19.9639 2.92969 19.9639 3.87891V4.79297H21.7334V3.63281C21.7334 1.875 20.5146 0.644531 18.6045 0.644531H8.95996C7.0498 0.644531 5.83105 1.875 5.83105 3.63281L5.84277 12.4219ZM8.97168 25.9336H18.6162C20.5264 25.9336 21.7451 24.6914 21.7451 22.9336V14.1445H19.9756V22.6875C19.9756 23.6484 19.4248 24.2227 18.3818 24.2227H9.20605C8.16309 24.2227 7.60059 23.6484 7.60059 22.6875V21.7734H5.84277V22.9336C5.84277 24.6914 7.06152 25.9336 8.97168 25.9336ZM17.1045 6.23438C16.624 6.23438 16.3662 6.60938 16.3662 6.98438C16.3662 7.35938 16.6357 7.74609 17.1396 7.74609H18.9678L20.3623 7.66406L19.0146 8.92969L17.1865 10.7461C17.0107 10.9336 16.9287 11.1328 16.9287 11.3203C16.9287 11.7891 17.3623 12.2109 17.8311 12.2109C18.0186 12.2109 18.2178 12.1406 18.3936 11.9648L20.21 10.1367L21.4639 8.78906L21.3936 10.1719V12.0469C21.3936 12.5625 21.7803 12.8203 22.1553 12.8203C22.5303 12.8203 22.9053 12.5742 22.9053 12.082V7.20703C22.9053 6.57422 22.5537 6.23438 21.9326 6.23438H17.1045ZM5.64355 20.3438H10.4717C10.9639 20.3438 11.1982 19.957 11.1982 19.582C11.1982 19.1953 10.9521 18.8203 10.4365 18.8203H8.6084L7.21387 18.9023L8.56152 17.6367L10.3896 15.8203C10.5654 15.6445 10.6475 15.4453 10.6475 15.2461C10.6475 14.7773 10.2139 14.3672 9.74512 14.3672C9.55762 14.3672 9.3584 14.4258 9.18262 14.6016L7.36621 16.4414L6.1123 17.7773L6.18262 16.3945V14.5195C6.18262 14.0039 5.7959 13.7461 5.40918 13.7461C5.0459 13.7461 4.6709 13.9922 4.6709 14.4844V19.3594C4.6709 19.9922 5.02246 20.3438 5.64355 20.3438Z" fill="black" fill-opacity="0.85"/>
<path d="M22.6826 24.9023C23.5732 25.7812 25.0381 25.793 25.9053 24.8789C26.7725 24 26.7725 22.582 25.8936 21.6914L4.88184 0.667969C4.00293 -0.222656 2.5498 -0.222656 1.65918 0.667969C0.780273 1.53516 0.780273 3 1.65918 3.87891L22.6826 24.9023Z" fill="white"/>
<path d="M23.6553 23.9414C23.9951 24.2812 24.5811 24.293 24.9326 23.9414C25.2725 23.5781 25.2842 23.0156 24.9326 22.6641L3.9209 1.62891C3.56934 1.27734 2.9834 1.27734 2.63184 1.62891C2.29199 1.98047 2.29199 2.56641 2.63184 2.90625L23.6553 23.9414Z" fill="black" fill-opacity="0.85"/>
</svg>
