<svg width="28" height="28" viewBox="0 0 28 28" fill="none" xmlns="http://www.w3.org/2000/svg">
<path d="M13.9531 25.9062C20.4922 25.9062 25.9062 20.4805 25.9062 13.9531C25.9062 7.41406 20.4805 2 13.9414 2C7.41406 2 2 7.41406 2 13.9531C2 20.4805 7.42578 25.9062 13.9531 25.9062ZM13.9531 23.9141C8.42188 23.9141 4.00391 19.4844 4.00391 13.9531C4.00391 8.42188 8.41016 3.99219 13.9414 3.99219C19.4727 3.99219 23.9141 8.42188 23.9141 13.9531C23.9141 19.4844 19.4844 23.9141 13.9531 23.9141Z" fill="black" fill-opacity="0.85"/>
<path d="M11.2814 19.7538C11.5861 20.0468 12.1955 20.0233 12.5236 19.7187L17.3986 15.1132C18.0666 14.5038 18.0666 13.4257 17.3986 12.8163L12.5236 8.21089C12.1604 7.87104 11.6212 7.85933 11.2931 8.17573C10.9181 8.51557 10.9064 9.10151 11.2697 9.42964L16.0861 13.953L11.2697 18.4999C10.9181 18.828 10.9181 19.3905 11.2814 19.7538Z" fill="black" fill-opacity="0.85"/>
</svg>
