<svg width="28" height="28" viewBox="0 0 28 28" fill="none" xmlns="http://www.w3.org/2000/svg">
<path d="M13.9531 23.9727C16.5898 23.9727 18.957 21.8281 18.957 18.9688C18.957 16.7305 17.0234 14.8086 13.9531 13.9531C10.8711 13.0742 8.9375 11.1406 8.9375 8.9375C8.9375 6.18359 11.1641 3.93359 13.9531 3.93359C8.41016 3.93359 3.93359 8.41016 3.93359 13.9531C3.93359 19.4844 8.41016 23.9727 13.9531 23.9727ZM13.9531 25.9062C20.4922 25.9062 25.9062 20.4805 25.9062 13.9531C25.9062 7.41406 20.4805 2 13.9414 2C7.41406 2 2 7.41406 2 13.9531C2 20.4805 7.42578 25.9062 13.9531 25.9062ZM13.9531 23.9141C8.42188 23.9141 4.00391 19.4844 4.00391 13.9531C4.00391 8.42188 8.41016 3.99219 13.9414 3.99219C19.4727 3.99219 23.9141 8.42188 23.9141 13.9531C23.9141 19.4844 19.4844 23.9141 13.9531 23.9141Z" fill="black" fill-opacity="0.85"/>
</svg>
