<svg width="28" height="28" viewBox="0 0 28 28" fill="none" xmlns="http://www.w3.org/2000/svg">
<path d="M13.9531 25.9062C20.4922 25.9062 25.9062 20.4805 25.9062 13.9531C25.9062 7.41406 20.4805 2 13.9414 2C7.41406 2 2 7.41406 2 13.9531C2 20.4805 7.42578 25.9062 13.9531 25.9062ZM13.9531 23.9141C8.42188 23.9141 4.00391 19.4844 4.00391 13.9531C4.00391 8.42188 8.41016 3.99219 13.9414 3.99219C19.4727 3.99219 23.9141 8.42188 23.9141 13.9531C23.9141 19.4844 19.4844 23.9141 13.9531 23.9141Z" fill="black" fill-opacity="0.85"/>
<path d="M8.16387 16.6719C8.51543 17.0469 9.08965 17.0469 9.41778 16.6953L13.9529 11.8906L18.4881 16.6953C18.8279 17.0469 19.4021 17.0469 19.742 16.6719C20.0701 16.3555 20.0584 15.8047 19.7068 15.4414L15.1131 10.5547C14.3748 9.78125 13.531 9.78125 12.8045 10.5547L8.19903 15.4414C7.84747 15.8047 7.83575 16.3555 8.16387 16.6719Z" fill="black" fill-opacity="0.85"/>
</svg>
