<svg width="28" height="28" viewBox="0 0 28 28" fill="none" xmlns="http://www.w3.org/2000/svg">
<path d="M14.0078 2.19531C14.3477 2.19531 14.6055 1.9375 14.6055 1.59766C14.6055 1.25781 14.3477 1 14.0078 1C13.668 1 13.4102 1.25781 13.4102 1.59766C13.4102 1.9375 13.668 2.19531 14.0078 2.19531ZM16.1641 2.39453C16.5039 2.39453 16.7734 2.125 16.7734 1.79688C16.7734 1.45703 16.5039 1.1875 16.1641 1.1875C15.8359 1.1875 15.5664 1.45703 15.5664 1.79688C15.5664 2.125 15.8359 2.39453 16.1641 2.39453ZM18.25 2.94531C18.5898 2.94531 18.8477 2.6875 18.8477 2.34766C18.8477 2.00781 18.5898 1.75 18.25 1.75C17.9102 1.75 17.6523 2.00781 17.6523 2.34766C17.6523 2.6875 17.9102 2.94531 18.25 2.94531ZM20.2188 3.88281C20.5469 3.88281 20.8164 3.61328 20.8164 3.28516C20.8164 2.94531 20.5469 2.67578 20.2188 2.67578C19.8789 2.67578 19.6094 2.94531 19.6094 3.28516C19.6094 3.61328 19.8789 3.88281 20.2188 3.88281ZM21.9883 5.11328C22.3281 5.11328 22.5859 4.85547 22.5859 4.51562C22.5859 4.17578 22.3281 3.91797 21.9883 3.91797C21.6484 3.91797 21.3906 4.17578 21.3906 4.51562C21.3906 4.85547 21.6484 5.11328 21.9883 5.11328ZM23.5234 6.64844C23.8516 6.64844 24.1211 6.37891 24.1211 6.05078C24.1211 5.71094 23.8516 5.44141 23.5234 5.44141C23.1836 5.44141 22.9141 5.71094 22.9141 6.05078C22.9141 6.37891 23.1836 6.64844 23.5234 6.64844ZM24.7656 8.42969C25.1055 8.42969 25.3633 8.16016 25.3633 7.83203C25.3633 7.49219 25.1055 7.22266 24.7656 7.22266C24.4258 7.22266 24.168 7.49219 24.168 7.83203C24.168 8.16016 24.4258 8.42969 24.7656 8.42969ZM25.668 10.3867C26.0078 10.3867 26.2773 10.1172 26.2773 9.77734C26.2773 9.44922 26.0078 9.17969 25.668 9.17969C25.3398 9.17969 25.0703 9.44922 25.0703 9.77734C25.0703 10.1172 25.3398 10.3867 25.668 10.3867ZM26.2305 12.4609C26.5586 12.4609 26.8281 12.2031 26.8281 11.8633C26.8281 11.5234 26.5586 11.2656 26.2305 11.2656C25.8906 11.2656 25.6211 11.5234 25.6211 11.8633C25.6211 12.2031 25.8906 12.4609 26.2305 12.4609ZM26.418 14.5938C26.7461 14.5938 27.0156 14.3359 27.0156 13.9961C27.0156 13.6562 26.7461 13.3984 26.418 13.3984C26.0781 13.3984 25.8086 13.6562 25.8086 13.9961C25.8086 14.3359 26.0781 14.5938 26.418 14.5938ZM26.2305 16.7266C26.5586 16.7266 26.8281 16.4688 26.8281 16.1289C26.8281 15.7891 26.5586 15.5312 26.2305 15.5312C25.8906 15.5312 25.6211 15.7891 25.6211 16.1289C25.6211 16.4688 25.8906 16.7266 26.2305 16.7266ZM25.668 18.8125C26.0078 18.8125 26.2773 18.543 26.2773 18.2031C26.2773 17.875 26.0078 17.6055 25.668 17.6055C25.3398 17.6055 25.0703 17.875 25.0703 18.2031C25.0703 18.543 25.3398 18.8125 25.668 18.8125ZM24.7656 20.7578C25.1055 20.7578 25.3633 20.5 25.3633 20.1602C25.3633 19.8203 25.1055 19.5625 24.7656 19.5625C24.4258 19.5625 24.168 19.8203 24.168 20.1602C24.168 20.5 24.4258 20.7578 24.7656 20.7578ZM23.5234 22.5391C23.8516 22.5391 24.1211 22.2812 24.1211 21.9414C24.1211 21.6016 23.8516 21.3438 23.5234 21.3438C23.1836 21.3438 22.9141 21.6016 22.9141 21.9414C22.9141 22.2812 23.1836 22.5391 23.5234 22.5391ZM21.9883 24.0742C22.3281 24.0742 22.5859 23.8047 22.5859 23.4766C22.5859 23.1367 22.3281 22.8672 21.9883 22.8672C21.6484 22.8672 21.3906 23.1367 21.3906 23.4766C21.3906 23.8047 21.6484 24.0742 21.9883 24.0742ZM20.2188 25.3047C20.5469 25.3047 20.8164 25.0469 20.8164 24.707C20.8164 24.3672 20.5469 24.1094 20.2188 24.1094C19.8789 24.1094 19.6094 24.3672 19.6094 24.707C19.6094 25.0469 19.8789 25.3047 20.2188 25.3047ZM18.25 26.2422C18.5898 26.2422 18.8477 25.9727 18.8477 25.6445C18.8477 25.3047 18.5898 25.0352 18.25 25.0352C17.9102 25.0352 17.6523 25.3047 17.6523 25.6445C17.6523 25.9727 17.9102 26.2422 18.25 26.2422ZM16.1641 26.793C16.5039 26.793 16.7734 26.5352 16.7734 26.1953C16.7734 25.8555 16.5039 25.5977 16.1641 25.5977C15.8359 25.5977 15.5664 25.8555 15.5664 26.1953C15.5664 26.5352 15.8359 26.793 16.1641 26.793ZM14.0078 26.9922C14.3477 26.9922 14.6055 26.7227 14.6055 26.3945C14.6055 26.0547 14.3477 25.7852 14.0078 25.7852C13.668 25.7852 13.4102 26.0547 13.4102 26.3945C13.4102 26.7227 13.668 26.9922 14.0078 26.9922ZM11.8516 26.793C12.1797 26.793 12.4492 26.5352 12.4492 26.1953C12.4492 25.8555 12.1797 25.5977 11.8516 25.5977C11.5117 25.5977 11.2422 25.8555 11.2422 26.1953C11.2422 26.5352 11.5117 26.793 11.8516 26.793ZM9.76562 26.2422C10.1055 26.2422 10.3633 25.9727 10.3633 25.6445C10.3633 25.3047 10.1055 25.0352 9.76562 25.0352C9.42578 25.0352 9.16797 25.3047 9.16797 25.6445C9.16797 25.9727 9.42578 26.2422 9.76562 26.2422ZM7.79688 25.3047C8.13672 25.3047 8.40625 25.0469 8.40625 24.707C8.40625 24.3672 8.13672 24.1094 7.79688 24.1094C7.46875 24.1094 7.19922 24.3672 7.19922 24.707C7.19922 25.0469 7.46875 25.3047 7.79688 25.3047ZM6.02734 24.0742C6.36719 24.0742 6.625 23.8047 6.625 23.4766C6.625 23.1367 6.36719 22.8672 6.02734 22.8672C5.6875 22.8672 5.42969 23.1367 5.42969 23.4766C5.42969 23.8047 5.6875 24.0742 6.02734 24.0742ZM4.49219 22.5391C4.83203 22.5391 5.10156 22.2812 5.10156 21.9414C5.10156 21.6016 4.83203 21.3438 4.49219 21.3438C4.16406 21.3438 3.89453 21.6016 3.89453 21.9414C3.89453 22.2812 4.16406 22.5391 4.49219 22.5391ZM3.25 20.7578C3.58984 20.7578 3.84766 20.5 3.84766 20.1602C3.84766 19.8203 3.58984 19.5625 3.25 19.5625C2.91016 19.5625 2.65234 19.8203 2.65234 20.1602C2.65234 20.5 2.91016 20.7578 3.25 20.7578ZM2.34766 18.8125C2.67578 18.8125 2.94531 18.543 2.94531 18.2031C2.94531 17.875 2.67578 17.6055 2.34766 17.6055C2.00781 17.6055 1.73828 17.875 1.73828 18.2031C1.73828 18.543 2.00781 18.8125 2.34766 18.8125ZM1.78516 16.7266C2.125 16.7266 2.39453 16.4688 2.39453 16.1289C2.39453 15.7891 2.125 15.5312 1.78516 15.5312C1.45703 15.5312 1.1875 15.7891 1.1875 16.1289C1.1875 16.4688 1.45703 16.7266 1.78516 16.7266ZM1.59766 14.5938C1.9375 14.5938 2.20703 14.3359 2.20703 13.9961C2.20703 13.6562 1.9375 13.3984 1.59766 13.3984C1.26953 13.3984 1 13.6562 1 13.9961C1 14.3359 1.26953 14.5938 1.59766 14.5938ZM1.78516 12.4609C2.125 12.4609 2.39453 12.2031 2.39453 11.8633C2.39453 11.5234 2.125 11.2656 1.78516 11.2656C1.45703 11.2656 1.1875 11.5234 1.1875 11.8633C1.1875 12.2031 1.45703 12.4609 1.78516 12.4609ZM2.34766 10.3867C2.67578 10.3867 2.94531 10.1172 2.94531 9.77734C2.94531 9.44922 2.67578 9.17969 2.34766 9.17969C2.00781 9.17969 1.73828 9.44922 1.73828 9.77734C1.73828 10.1172 2.00781 10.3867 2.34766 10.3867ZM3.25 8.42969C3.58984 8.42969 3.84766 8.16016 3.84766 7.83203C3.84766 7.49219 3.58984 7.22266 3.25 7.22266C2.91016 7.22266 2.65234 7.49219 2.65234 7.83203C2.65234 8.16016 2.91016 8.42969 3.25 8.42969ZM4.49219 6.64844C4.83203 6.64844 5.10156 6.37891 5.10156 6.05078C5.10156 5.71094 4.83203 5.44141 4.49219 5.44141C4.16406 5.44141 3.89453 5.71094 3.89453 6.05078C3.89453 6.37891 4.16406 6.64844 4.49219 6.64844ZM6.02734 5.11328C6.36719 5.11328 6.625 4.85547 6.625 4.51562C6.625 4.17578 6.36719 3.91797 6.02734 3.91797C5.6875 3.91797 5.42969 4.17578 5.42969 4.51562C5.42969 4.85547 5.6875 5.11328 6.02734 5.11328ZM7.79688 3.88281C8.13672 3.88281 8.40625 3.61328 8.40625 3.28516C8.40625 2.94531 8.13672 2.67578 7.79688 2.67578C7.46875 2.67578 7.19922 2.94531 7.19922 3.28516C7.19922 3.61328 7.46875 3.88281 7.79688 3.88281ZM9.76562 2.94531C10.1055 2.94531 10.3633 2.6875 10.3633 2.34766C10.3633 2.00781 10.1055 1.75 9.76562 1.75C9.42578 1.75 9.16797 2.00781 9.16797 2.34766C9.16797 2.6875 9.42578 2.94531 9.76562 2.94531ZM11.8516 2.39453C12.1797 2.39453 12.4492 2.125 12.4492 1.79688C12.4492 1.45703 12.1797 1.1875 11.8516 1.1875C11.5117 1.1875 11.2422 1.45703 11.2422 1.79688C11.2422 2.125 11.5117 2.39453 11.8516 2.39453Z" fill="black" fill-opacity="0.85"/>
<path d="M14.0078 23.4531C19.2344 23.4531 23.4766 19.2344 23.4766 13.9961C23.4766 8.79297 19.2109 4.52734 14.0078 4.52734C8.75781 4.52734 4.53906 8.75781 4.53906 13.9961C4.53906 19.2578 8.74609 23.4531 14.0078 23.4531ZM14.0078 22.3164C9.36719 22.3164 5.6875 18.6367 5.6875 13.9961C5.6875 9.39062 9.40234 5.67578 14.0078 5.67578C18.6016 5.67578 22.3281 9.40234 22.3281 13.9961C22.3281 18.6016 18.6133 22.3164 14.0078 22.3164Z" fill="black" fill-opacity="0.85"/>
<path d="M14.0078 18.8359C16.6797 18.8359 18.8242 16.6797 18.8242 14.0195C18.8242 11.3594 16.668 9.20312 14.0078 9.20312C11.3359 9.20312 9.19141 11.3477 9.19141 14.0195C9.19141 16.6914 11.3242 18.8359 14.0078 18.8359ZM14.0078 16.6211C12.5664 16.6211 11.4062 15.4609 11.4062 14.0195C11.4062 12.5781 12.5664 11.418 14.0078 11.418C15.4375 11.418 16.6094 12.5898 16.6094 14.0195C16.6094 15.4609 15.4492 16.6211 14.0078 16.6211Z" fill="black" fill-opacity="0.85"/>
</svg>
