<svg width="30" height="28" viewBox="0 0 30 28" fill="none" xmlns="http://www.w3.org/2000/svg">
<path d="M3.67969 20.3164H19.5586C22.0078 20.3164 23.2383 19.1094 23.2383 16.6836V5.63281C23.2383 3.21875 22.0078 2 19.5586 2H3.67969C1.21875 2 0 3.21875 0 5.63281V16.6836C0 19.1094 1.21875 20.3164 3.67969 20.3164ZM1.88672 16.5898V5.73828C1.88672 4.51953 2.55469 3.88672 3.70312 3.88672H19.5234C20.6836 3.88672 21.3516 4.51953 21.3516 5.73828V16.5898C21.3516 17.8086 20.6953 18.4297 19.5234 18.4297H3.70312C2.53125 18.4297 1.88672 17.8086 1.88672 16.5898Z" fill="black" fill-opacity="0.85"/>
<path d="M9.46875 25.7422H25.4766C27.9141 25.7422 29.1562 24.5234 29.1562 22.1094V11.0586C29.1562 8.64453 27.9141 7.42578 25.4766 7.42578H9.46875C7.00781 7.42578 5.78906 8.64453 5.78906 11.0586V22.1094C5.78906 24.5352 7.00781 25.7422 9.46875 25.7422Z" fill="white"/>
<path d="M9.46875 25.7422H25.4766C27.9141 25.7422 29.1562 24.5234 29.1562 22.1094V11.0586C29.1562 8.64453 27.9141 7.42578 25.4766 7.42578H9.46875C7.00781 7.42578 5.78906 8.64453 5.78906 11.0586V22.1094C5.78906 24.5352 7.00781 25.7422 9.46875 25.7422ZM9.49219 23.8555C8.32031 23.8555 7.67578 23.2344 7.67578 22.0156V11.1641C7.67578 9.94531 8.32031 9.3125 9.49219 9.3125H25.4414C26.6016 9.3125 27.2695 9.94531 27.2695 11.1641V22.0156C27.2695 23.2344 26.6016 23.8555 25.4414 23.8555H9.49219ZM9.50391 25.1211H25.1953C27.2344 25.1211 28.3242 24.0898 28.3242 22.0391V21.2891L22.8867 16.1562C22.4297 15.7344 21.8672 15.5234 21.3047 15.5234C20.7188 15.5234 20.2031 15.7109 19.7227 16.1445L14.9883 20.3398L13.1016 18.6406C12.6562 18.2305 12.1758 18.043 11.6719 18.043C11.2148 18.043 10.7812 18.2305 10.3242 18.6172L6.375 22.0508C6.375 24.0898 7.46484 25.1211 9.50391 25.1211Z" fill="black" fill-opacity="0.85"/>
<path d="M14.1445 16.4141C15.5039 16.4141 16.6172 15.2773 16.6172 13.9062C16.6172 12.5586 15.5039 11.4219 14.1445 11.4219C12.7734 11.4219 11.6602 12.5586 11.6602 13.9062C11.6602 15.2773 12.7734 16.4141 14.1445 16.4141Z" fill="black" fill-opacity="0.85"/>
</svg>
