<svg width="28" height="28" viewBox="0 0 28 28" fill="none" xmlns="http://www.w3.org/2000/svg">
<path d="M13.9531 25.9062C20.4922 25.9062 25.9062 20.4805 25.9062 13.9531C25.9062 7.41406 20.4805 2 13.9414 2C7.41406 2 2 7.41406 2 13.9531C2 20.4805 7.42578 25.9062 13.9531 25.9062Z" fill="black" fill-opacity="0.85"/>
<path d="M8.90234 19.332C7.70703 19.332 7.08594 18.7227 7.08594 17.5273V10.4258C7.08594 9.23047 7.70703 8.63281 8.90234 8.63281H18.9805C20.1875 8.63281 20.7969 9.23047 20.7969 10.4258V17.5273C20.7969 18.7109 20.1875 19.332 18.9805 19.332H8.90234ZM8.94922 18.2305H18.9336C19.4141 18.2305 19.6953 17.9375 19.6953 17.4688V16.4141L17.1875 14.1289C16.918 13.8828 16.5781 13.7422 16.2617 13.7539C15.9219 13.7422 15.6055 13.8828 15.3242 14.1289L12.5586 16.5898L11.4336 15.582C11.1758 15.3594 10.8828 15.2422 10.6016 15.2422C10.3437 15.2422 10.0625 15.3594 9.80469 15.5703L8.1875 16.9414V17.4688C8.1875 17.9375 8.46875 18.2305 8.94922 18.2305ZM11.4453 14.1289C12.2305 14.1289 12.875 13.4844 12.875 12.6875C12.875 11.9023 12.2305 11.2578 11.4453 11.2578C10.6484 11.2578 10.0039 11.9023 10.0039 12.6875C10.0039 13.4844 10.6484 14.1289 11.4453 14.1289Z" fill="white"/>
</svg>
