<svg width="28" height="28" viewBox="0 0 28 28" fill="none" xmlns="http://www.w3.org/2000/svg">
<path d="M13.9414 2.58594V3.59375H16.8711C15.9219 3.19531 14.9375 2.85547 13.9414 2.58594ZM13.9414 4.42578V5.64453H19.9883C19.8359 5.21094 19.6602 4.80078 19.4727 4.42578H13.9414ZM13.9414 6.94531V8.15234H22.6133C22.5312 7.74219 22.4375 7.33203 22.332 6.94531H13.9414ZM13.9414 9.45312V10.6719H24.4531C24.418 10.2617 24.3711 9.85156 24.3125 9.45312H13.9414ZM13.9414 11.9727V13.1797H24.5352C24.5234 12.7812 24.5117 12.3711 24.4883 11.9727H13.9414ZM13.9414 14.4805V15.6992H24.4883C24.5117 15.3008 24.5234 14.8906 24.5352 14.4805H13.9414ZM13.9414 17V18.2188H24.3125C24.3711 17.8086 24.418 17.4102 24.4531 17H13.9414ZM13.9414 19.5195V20.7266H22.332C22.4375 20.3398 22.5312 19.9297 22.6133 19.5195H13.9414ZM13.9414 22.2617V23.4805H19.4727C19.6602 23.0938 19.8359 22.6953 19.9883 22.2617H13.9414ZM13.9414 24.3125V25.3086C14.9375 25.0391 15.9219 24.7109 16.8711 24.3125H13.9414ZM13.9531 25.9062C20.4922 25.9062 25.9062 20.4805 25.9062 13.9531C25.9062 7.41406 20.4805 2 13.9414 2C7.41406 2 2 7.41406 2 13.9531C2 20.4805 7.42578 25.9062 13.9531 25.9062ZM13.9531 23.9141C8.42188 23.9141 4.00391 19.4844 4.00391 13.9531C4.00391 8.42188 8.41016 3.99219 13.9414 3.99219C19.4727 3.99219 23.9141 8.42188 23.9141 13.9531C23.9141 19.4844 19.4844 23.9141 13.9531 23.9141Z" fill="black" fill-opacity="0.85"/>
</svg>
