<svg width="28" height="29" viewBox="0 0 28 29" fill="none" xmlns="http://www.w3.org/2000/svg">
<path d="M2.11925 20.4609C1.6505 22.3359 2.57628 23.5078 4.67394 23.5078H23.2482C25.3575 23.5078 26.2716 22.3359 25.8146 20.4609L22.5568 7.23047C22.1232 5.46094 21.1388 4.52344 19.2403 4.52344H8.69347C6.78331 4.52344 5.81066 5.46094 5.36534 7.23047L2.11925 20.4609ZM3.9005 20.4609L7.05284 7.47656C7.25206 6.66797 7.73253 6.29297 8.61144 6.29297H19.3224C20.2013 6.29297 20.6818 6.66797 20.881 7.47656L24.0216 20.4609C24.2208 21.2344 23.8341 21.7383 23.0724 21.7383H4.84972C4.09972 21.7383 3.713 21.2344 3.9005 20.4609ZM13.9786 28.0312C14.5177 28.0312 14.8575 27.668 14.8575 27.0938V0.9375C14.8575 0.351562 14.5177 0 13.9786 0C13.4278 0 13.088 0.351562 13.088 0.9375V27.0938C13.088 27.668 13.4278 28.0312 13.9786 28.0312Z" fill="black" fill-opacity="0.85"/>
</svg>
