<svg width="28" height="28" viewBox="0 0 28 28" fill="none" xmlns="http://www.w3.org/2000/svg">
<path d="M13.9531 25.9062C20.4922 25.9062 25.9062 20.4805 25.9062 13.9531C25.9062 7.41406 20.4805 2 13.9414 2C7.41406 2 2 7.41406 2 13.9531C2 20.4805 7.42578 25.9062 13.9531 25.9062ZM13.9531 23.9141C8.42188 23.9141 4.00391 19.4844 4.00391 13.9531C4.00391 8.42188 8.41016 3.99219 13.9414 3.99219C19.4727 3.99219 23.9141 8.42188 23.9141 13.9531C23.9141 19.4844 19.4844 23.9141 13.9531 23.9141Z" fill="black" fill-opacity="0.85"/>
<path d="M9.875 11.7031C9.875 12.1484 10.2383 12.5117 10.6953 12.5117H13.1562V14.9727C13.1562 15.4062 13.5195 15.7812 13.9648 15.7812C14.4102 15.7812 14.7852 15.4062 14.7852 14.9727V12.5117H17.2227C17.668 12.5117 18.043 12.1484 18.043 11.7031C18.043 11.2578 17.668 10.8828 17.2227 10.8828H14.7852V8.42188C14.7852 7.97656 14.4102 7.61328 13.9648 7.61328C13.5195 7.61328 13.1562 7.97656 13.1562 8.42188V10.8828H10.6953C10.2383 10.8828 9.875 11.2578 9.875 11.7031ZM9.875 18.6992C9.875 19.1094 10.2383 19.5195 10.707 19.5195H17.2109C17.668 19.5195 18.043 19.1094 18.043 18.6992C18.043 18.2656 17.668 17.8906 17.2109 17.8906H10.707C10.2383 17.8906 9.875 18.2656 9.875 18.6992Z" fill="black" fill-opacity="0.85"/>
</svg>
