<svg width="28" height="28" viewBox="0 0 28 28" fill="none" xmlns="http://www.w3.org/2000/svg">
<path d="M13.9766 26.9961C14.4453 26.9961 14.9023 26.8438 15.4648 26.5156L24.6289 21.1836C25.5781 20.6328 25.9531 20.2109 25.9531 19.5664C25.9531 18.9219 25.5781 18.5 24.6289 17.9375L15.4648 12.6172C14.9023 12.2891 14.4453 12.1367 13.9766 12.1367C13.4961 12.1367 13.0508 12.2891 12.4883 12.6172L3.3125 17.9375C2.36328 18.5 2 18.9219 2 19.5664C2 20.2109 2.36328 20.6328 3.3125 21.1836L12.4883 26.5156C13.0508 26.8438 13.4961 26.9961 13.9766 26.9961ZM13.9766 24.9453C13.8125 24.9453 13.6484 24.8867 13.4492 24.7812L4.53125 19.6836C4.48438 19.6484 4.44922 19.625 4.44922 19.5664C4.44922 19.5078 4.48438 19.4727 4.53125 19.4492L13.4492 14.3516C13.6484 14.2344 13.8125 14.1875 13.9766 14.1875C14.1406 14.1875 14.3047 14.2344 14.4922 14.3516L23.4102 19.4492C23.4688 19.4727 23.5039 19.5078 23.5039 19.5664C23.5039 19.625 23.4688 19.6484 23.4102 19.6836L14.4922 24.7812C14.3047 24.8867 14.1406 24.9453 13.9766 24.9453Z" fill="black" fill-opacity="0.85"/>
<path d="M13.9766 17.3867C14.4453 17.3867 14.9023 17.2344 15.4648 16.9062L24.6289 11.5859C25.5781 11.0234 25.9531 10.6016 25.9531 9.95703C25.9531 9.3125 25.5781 8.89062 24.6289 8.33984L15.4648 3.00781C14.9023 2.67969 14.4453 2.52734 13.9766 2.52734C13.4961 2.52734 13.0508 2.67969 12.4883 3.00781L3.3125 8.33984C2.36328 8.89062 2 9.3125 2 9.95703C2 10.6016 2.36328 11.0234 3.3125 11.5859L12.4883 16.9062C13.0508 17.2344 13.4961 17.3867 13.9766 17.3867Z" fill="white"/>
<path d="M13.9766 17.3867C14.4453 17.3867 14.9023 17.2344 15.4648 16.9062L24.6289 11.5859C25.5781 11.0234 25.9531 10.6016 25.9531 9.95703C25.9531 9.3125 25.5781 8.89062 24.6289 8.33984L15.4648 3.00781C14.9023 2.67969 14.4453 2.52734 13.9766 2.52734C13.4961 2.52734 13.0508 2.67969 12.4883 3.00781L3.3125 8.33984C2.36328 8.89062 2 9.3125 2 9.95703C2 10.6016 2.36328 11.0234 3.3125 11.5859L12.4883 16.9062C13.0508 17.2344 13.4961 17.3867 13.9766 17.3867Z" fill="black" fill-opacity="0.85"/>
</svg>
