<svg width="28" height="28" viewBox="0 0 28 28" fill="none" xmlns="http://www.w3.org/2000/svg">
<path d="M14.2734 24.1016C19.9688 24.1016 21.1055 18.7344 20.8594 16.0859C19.8164 16.8125 18.6914 18.0664 16.5703 18.0664C13.4062 18.0664 12.4336 15.6406 9.11719 15.6406C8.64844 15.6406 8.16797 15.6992 7.60547 15.8516C6.90234 19.4375 8.56641 24.1016 14.2734 24.1016ZM14.1211 25.7305C18.9961 25.7305 22.2422 22.5547 22.2422 17.7969C22.2422 15.4531 21.3281 13.1211 20.6367 11.5625C19.3828 8.73828 17.4141 5.63281 15.7031 2.98438C15.293 2.36328 14.8125 2 14.1211 2C13.4297 2 12.9492 2.36328 12.5391 2.98438C10.8281 5.63281 8.85938 8.73828 7.60547 11.5625C6.92578 13.1211 6 15.4531 6 17.7969C6 22.5547 9.24609 25.7305 14.1211 25.7305ZM14.1211 23.8086C10.3945 23.8086 7.92188 21.4062 7.92188 17.7969C7.92188 15.875 8.66016 14.0117 9.31641 12.4883C10.6289 9.40625 12.3633 6.875 14.0039 4.40234C14.0859 4.28516 14.1797 4.28516 14.25 4.40234C15.8789 6.875 17.625 9.40625 18.9141 12.4766C19.582 14.0117 20.332 15.875 20.332 17.7969C20.332 21.4062 17.8477 23.8086 14.1211 23.8086Z" fill="black" fill-opacity="0.85"/>
</svg>
