<svg width="28" height="28" viewBox="0 0 28 28" fill="none" xmlns="http://www.w3.org/2000/svg">
<path d="M25.1211 9.24043C25.1211 8.02168 24.7227 7.33028 23.6797 6.7209L14.293 1.29512C13.1328 0.638871 11.6562 1.06075 11.6562 2.72481V13.6467C11.6562 14.8889 11.9727 15.5568 13.1211 16.2131L22.2969 21.51C23.9492 22.4592 25.1211 21.8264 25.1211 19.8576V9.24043ZM22.6953 8.42012C23.0703 8.64278 23.2109 8.80684 23.2109 9.31075V19.5764C23.2109 19.6936 23.1406 19.7287 23.0352 19.6701L14.0703 14.5022C13.6719 14.2678 13.5664 14.0686 13.5664 13.6115V3.36934C13.5664 3.25215 13.6484 3.19356 13.7656 3.26387L22.6953 8.42012Z" fill="black" fill-opacity="0.85"/>
<path d="M20.4453 11.9357C20.4453 10.7287 20.0586 10.0373 19.0039 9.41619L9.61719 4.00213C8.45703 3.33416 6.98047 3.76776 6.98047 5.4201V16.342C6.98047 17.5842 7.30859 18.2522 8.45703 18.9084L17.6211 24.217C19.2734 25.1545 20.4453 24.5217 20.4453 22.5647V11.9357Z" fill="white"/>
<path d="M20.4453 11.9357C20.4453 10.7287 20.0586 10.0373 19.0039 9.41619L9.61719 4.00213C8.45703 3.33416 6.98047 3.76776 6.98047 5.4201V16.342C6.98047 17.5842 7.30859 18.2522 8.45703 18.9084L17.6211 24.217C19.2734 25.1545 20.4453 24.5217 20.4453 22.5647V11.9357ZM18.0195 11.1154C18.3945 11.3381 18.5352 11.5022 18.5352 12.0061V22.2717C18.5352 22.3889 18.4648 22.424 18.3594 22.3654L9.39453 17.1975C8.99609 16.9631 8.89062 16.7639 8.89062 16.3068V6.06463C8.89062 5.95916 8.98438 5.88885 9.08984 5.95916L18.0195 11.1154Z" fill="black" fill-opacity="0.85"/>
<path d="M15.4648 14.8654C15.4648 13.6584 15.0664 12.967 14.0234 12.3576L4.63672 6.93184C3.47656 6.27559 2 6.69747 2 8.34982V19.2717C2 20.5139 2.31641 21.1818 3.46484 21.8381L12.6406 27.1467C14.293 28.0959 15.4648 27.4514 15.4648 25.4943V14.8654Z" fill="white"/>
<path d="M15.4648 14.8654C15.4648 13.6584 15.0664 12.967 14.0234 12.3576L4.63672 6.93184C3.47656 6.27559 2 6.69747 2 8.34982V19.2717C2 20.5139 2.31641 21.1818 3.46484 21.8381L12.6406 27.1467C14.293 28.0959 15.4648 27.4514 15.4648 25.4943V14.8654ZM13.0391 14.0451C13.4141 14.2678 13.5547 14.4318 13.5547 14.9357V25.2014C13.5547 25.3186 13.4844 25.3654 13.3789 25.3068L4.41406 20.1272C4.01562 19.8928 3.91016 19.7053 3.91016 19.2365V8.99434C3.91016 8.88888 3.99219 8.83028 4.10938 8.88887L13.0391 14.0451Z" fill="black" fill-opacity="0.85"/>
</svg>
