<svg width="28" height="28" viewBox="0 0 28 28" fill="none" xmlns="http://www.w3.org/2000/svg">
<path d="M26.3076 25.8164V16.5117C26.3076 15.1172 25.6748 14.4844 24.2802 14.4844H10.2764C9.24512 14.4844 8.69434 15.2578 8.69434 16.0898C8.69434 16.6523 8.95215 17.1914 9.50293 17.5664L23.5068 27.2227C23.8818 27.4922 24.3154 27.5977 24.7255 27.5977C25.5693 27.5977 26.3076 27.0352 26.3076 25.8164ZM24.2802 13.125C25.6748 13.125 26.3076 12.4922 26.3076 11.0977V1.79297C26.3076 0.574219 25.5693 0.0117188 24.7255 0.0117188C24.3154 0.0117188 23.8818 0.117188 23.5068 0.375L9.50293 10.043C8.95215 10.418 8.69434 10.957 8.69434 11.5195C8.69434 12.3516 9.24512 13.125 10.2764 13.125H24.2802Z" fill="black" fill-opacity="0.85"/>
<path d="M5.8234 25.7812L8.15543 22.6406C8.64761 21.9961 8.35465 21.2109 7.55777 21.2109H5.87027V6.39844H7.55777C8.35465 6.39844 8.64761 5.61328 8.15543 4.96875L5.8234 1.82812C5.50699 1.39453 4.90933 1.39453 4.59293 1.82812L2.23746 4.96875C1.76871 5.58984 2.02652 6.39844 2.85855 6.39844H4.5109V21.2109H2.85855C2.04996 21.2109 1.74527 21.9961 2.23746 22.6406L4.59293 25.7812C4.90933 26.2031 5.51871 26.2031 5.8234 25.7812Z" fill="black" fill-opacity="0.85"/>
</svg>
