<svg width="28" height="28" viewBox="0 0 28 28" fill="none" xmlns="http://www.w3.org/2000/svg">
<path d="M13.9531 25.918C20.4922 25.918 25.9062 20.5039 25.9062 13.9648C25.9062 7.4375 20.4805 2.01172 13.9414 2.01172C7.41406 2.01172 2 7.4375 2 13.9648C2 20.5039 7.42578 25.918 13.9531 25.918Z" fill="black" fill-opacity="0.85"/>
<path d="M8.66797 14.7969C8.66797 14.6445 8.73828 14.4688 8.86719 14.3281L15.4883 6.00779C15.9922 5.3867 16.8242 5.80857 16.5312 6.58201L14.3398 12.4531H18.4414C18.7578 12.4531 18.9922 12.6758 18.9922 12.9805C18.9922 13.1328 18.9219 13.3086 18.793 13.4609L12.1719 21.7695C11.668 22.3906 10.8359 21.9688 11.1289 21.1953L13.3203 15.3242H9.21875C8.90234 15.3242 8.66797 15.1016 8.66797 14.7969Z" fill="white"/>
</svg>
