<svg width="28" height="28" viewBox="0 0 28 28" fill="none" xmlns="http://www.w3.org/2000/svg">
<path d="M13.9531 25.9062C20.4922 25.9062 25.9062 20.4805 25.9062 13.9531C25.9062 7.41406 20.4805 2 13.9414 2C7.41406 2 2 7.41406 2 13.9531C2 20.4805 7.42578 25.9062 13.9531 25.9062ZM13.9531 23.9141C8.42188 23.9141 4.00391 19.4844 4.00391 13.9531C4.00391 8.42188 8.41016 3.99219 13.9414 3.99219C19.4727 3.99219 23.9141 8.42188 23.9141 13.9531C23.9141 19.4844 19.4844 23.9141 13.9531 23.9141Z" fill="black" fill-opacity="0.85"/>
<path d="M8.71484 19.25H19.168C20.3984 19.25 21.0312 18.6406 21.0312 17.4219V11.2227C21.0312 9.99219 20.3984 9.38281 19.168 9.38281H17.6562C17.1992 9.38281 17.0469 9.28906 16.7773 8.99609L16.3086 8.45703C16.0156 8.14062 15.7109 7.96484 15.1016 7.96484H12.7344C12.1367 7.96484 11.832 8.14062 11.5273 8.45703L11.0469 8.99609C10.7773 9.27734 10.6484 9.38281 10.1797 9.38281H8.71484C7.47266 9.38281 6.85156 9.99219 6.85156 11.2227V17.4219C6.85156 18.6406 7.47266 19.25 8.71484 19.25ZM13.9531 17.7734C12.0078 17.7734 10.4375 16.2148 10.4375 14.2578C10.4375 12.3125 12.0078 10.7539 13.9531 10.7539C15.8984 10.7539 17.457 12.3125 17.457 14.2578C17.457 16.25 15.8984 17.7734 13.9531 17.7734ZM13.9414 16.7656C15.3242 16.7656 16.4492 15.6523 16.4492 14.2578C16.4492 12.875 15.3242 11.7617 13.9414 11.7617C12.5586 11.7617 11.4336 12.875 11.4336 14.2578C11.4336 15.6523 12.5586 16.7656 13.9414 16.7656ZM18.6289 12.5703C18.1953 12.5703 17.832 12.2305 17.832 11.7734C17.832 11.3398 18.1953 10.9883 18.6289 10.9883C19.0625 10.9883 19.4141 11.3398 19.4141 11.7734C19.4258 12.2305 19.0625 12.5703 18.6289 12.5703Z" fill="black" fill-opacity="0.85"/>
</svg>
