<svg width="28" height="28" viewBox="0 0 28 28" fill="none" xmlns="http://www.w3.org/2000/svg">
<path d="M2 9.24043V19.8576C2 21.8264 3.18359 22.4592 4.82422 21.51L14 16.2131C15.1484 15.5568 15.4648 14.8889 15.4648 13.6467V2.72481C15.4648 1.06075 13.9883 0.638871 12.8281 1.29512L3.44141 6.7209C2.39844 7.33028 2 8.02168 2 9.24043ZM4.42578 8.42012L13.3555 3.26387C13.4727 3.19356 13.5547 3.25215 13.5547 3.36934V13.6115C13.5547 14.0686 13.4492 14.2678 13.0508 14.5022L4.08594 19.6701C3.98047 19.7287 3.91016 19.6936 3.91016 19.5764V9.31075C3.91016 8.80684 4.05078 8.64278 4.42578 8.42012Z" fill="black" fill-opacity="0.85"/>
<path d="M6.67578 11.9357V22.5647C6.67578 24.5217 7.84766 25.1545 9.5 24.217L18.6758 18.9084C19.8242 18.2522 20.1406 17.5842 20.1406 16.342V5.4201C20.1406 3.76776 18.6641 3.33416 17.5039 4.00213L8.11719 9.41619C7.0625 10.0373 6.67578 10.7287 6.67578 11.9357Z" fill="white"/>
<path d="M6.67578 11.9357V22.5647C6.67578 24.5217 7.84766 25.1545 9.5 24.217L18.6758 18.9084C19.8242 18.2522 20.1406 17.5842 20.1406 16.342V5.4201C20.1406 3.76776 18.6641 3.33416 17.5039 4.00213L8.11719 9.41619C7.0625 10.0373 6.67578 10.7287 6.67578 11.9357ZM9.10156 11.1154L18.0312 5.95916C18.1484 5.88885 18.2305 5.95916 18.2305 6.06463V16.3068C18.2305 16.7639 18.125 16.9631 17.7266 17.1975L8.76172 22.3654C8.65625 22.424 8.58594 22.3889 8.58594 22.2717V12.0061C8.58594 11.5022 8.72656 11.3381 9.10156 11.1154Z" fill="black" fill-opacity="0.85"/>
<path d="M11.6562 14.8654V25.4943C11.6562 27.4514 12.8398 28.0959 14.4805 27.1467L23.6562 21.8381C24.8047 21.1818 25.1211 20.5139 25.1211 19.2717V8.34982C25.1211 6.69747 23.6445 6.27559 22.4844 6.93184L13.0977 12.3576C12.0547 12.967 11.6562 13.6584 11.6562 14.8654Z" fill="white"/>
<path d="M11.6562 14.8654V25.4943C11.6562 27.4514 12.8398 28.0959 14.4805 27.1467L23.6562 21.8381C24.8047 21.1818 25.1211 20.5139 25.1211 19.2717V8.34982C25.1211 6.69747 23.6445 6.27559 22.4844 6.93184L13.0977 12.3576C12.0547 12.967 11.6562 13.6584 11.6562 14.8654ZM14.082 14.0451L23.0117 8.88887C23.1289 8.83028 23.2109 8.88888 23.2109 8.99434V19.2365C23.2109 19.7053 23.1172 19.8928 22.7188 20.1272L13.7422 25.3068C13.6367 25.3654 13.5664 25.3186 13.5664 25.2014V14.9357C13.5664 14.4318 13.707 14.2678 14.082 14.0451Z" fill="black" fill-opacity="0.85"/>
</svg>
