<svg width="28" height="28" viewBox="0 0 28 28" fill="none" xmlns="http://www.w3.org/2000/svg">
<path d="M13.9531 25.9062C20.4922 25.9062 25.9062 20.4805 25.9062 13.9531C25.9062 7.41406 20.4805 2 13.9414 2C7.41406 2 2 7.41406 2 13.9531C2 20.4805 7.42578 25.9062 13.9531 25.9062Z" fill="black" fill-opacity="0.85"/>
<path d="M15.1717 17.8202C14.41 18.6288 13.531 18.6288 12.7693 17.8202L8.03496 12.7929C7.65996 12.4061 7.65996 11.8554 7.98808 11.5039C8.36308 11.1171 8.94902 11.1171 9.28886 11.4804L13.9646 16.4374L18.6404 11.4804C18.992 11.1171 19.5662 11.1289 19.9529 11.5039C20.2928 11.8437 20.2693 12.4061 19.906 12.7929L15.1717 17.8202Z" fill="white"/>
</svg>
