<svg width="28" height="28" viewBox="0 0 28 28" fill="none" xmlns="http://www.w3.org/2000/svg">
<path d="M13.9531 25.9062C20.4922 25.9062 25.9062 20.4805 25.9062 13.9531C25.9062 7.41406 20.4805 2 13.9414 2C7.41406 2 2 7.41406 2 13.9531C2 20.4805 7.42578 25.9062 13.9531 25.9062Z" fill="black" fill-opacity="0.85"/>
<path d="M16.2734 19.7538C15.9688 20.0468 15.3594 20.0233 15.0312 19.7187L10.1563 15.1132C9.48828 14.5038 9.48828 13.4257 10.1563 12.8163L15.0312 8.21089C15.3945 7.87104 15.9336 7.85933 16.2617 8.17573C16.625 8.51557 16.6367 9.10151 16.2852 9.42964L11.4688 13.953L16.2852 18.4999C16.625 18.828 16.6367 19.3905 16.2734 19.7538Z" fill="white"/>
</svg>
