<svg width="28" height="30" viewBox="0 0 28 30" fill="none" xmlns="http://www.w3.org/2000/svg">
<path d="M2.87891 24.375H25.2148C25.707 24.375 26.1055 23.9883 26.1055 23.4844C26.1055 22.9922 25.707 22.6055 25.2148 22.6055H2.87891C2.38672 22.6055 2 22.9922 2 23.4844C2 23.9883 2.38672 24.375 2.87891 24.375ZM2.87891 29.8711H17.3281C17.8203 29.8711 18.2188 29.4844 18.2188 28.9922C18.2188 28.5 17.8203 28.1016 17.3281 28.1016H2.87891C2.38672 28.1016 2 28.5 2 28.9922C2 29.4844 2.38672 29.8711 2.87891 29.8711Z" fill="black" fill-opacity="0.85"/>
<path d="M5.25781 18.8672H22.8477C25.0273 18.8672 26.1055 17.8008 26.1055 15.668V3.23438C26.1055 1.10156 25.0273 0.0117188 22.8477 0.0117188H5.25781C3.10156 0.0117188 2 1.11328 2 3.23438V15.668C2 17.7891 3.08984 18.8672 5.25781 18.8672ZM5.28125 17.0859C4.29688 17.0859 3.76953 16.5703 3.76953 15.5625V3.32812C3.76953 2.33203 4.29688 1.78125 5.28125 1.78125H22.8359C23.8086 1.78125 24.3359 2.32031 24.3359 3.32812V15.5625C24.3359 16.5586 23.8086 17.0859 22.8359 17.0859H5.28125ZM24.9922 15.1055L18.957 9.42188C18.5 9.01172 17.9609 8.80078 17.4102 8.80078C16.8594 8.80078 16.3672 9 15.8867 9.41016L11.293 13.5234L9.41797 11.8125C8.99609 11.4258 8.52734 11.2266 8.02344 11.2266C7.57812 11.2266 7.15625 11.4258 6.72266 11.8125L2.86719 15.3047C2.92578 17.1328 3.67578 18.0703 5.19922 18.0703H22.2383C24.0781 18.0703 24.9922 17.0508 24.9922 15.1055Z" fill="black" fill-opacity="0.85"/>
<path d="M9.62891 9.53905C10.9414 9.53905 12.0312 8.44922 12.0312 7.125C12.0312 5.8125 10.9414 4.73438 9.62891 4.73438C8.30469 4.73438 7.23828 5.8125 7.23828 7.125C7.23828 8.44922 8.30469 9.53905 9.62891 9.53905Z" fill="black" fill-opacity="0.85"/>
</svg>
