<svg width="28" height="30" viewBox="0 0 28 30" fill="none" xmlns="http://www.w3.org/2000/svg">
<path d="M2.87891 24.3984H25.2148C25.707 24.3984 26.1055 24.0117 26.1055 23.5078C26.1055 23.0156 25.707 22.6289 25.2148 22.6289H2.87891C2.38672 22.6289 2 23.0156 2 23.5078C2 24.0117 2.38672 24.3984 2.87891 24.3984ZM2.87891 29.8945H17.3281C17.8203 29.8945 18.2188 29.5078 18.2188 29.0156C18.2188 28.5234 17.8203 28.125 17.3281 28.125H2.87891C2.38672 28.125 2 28.5234 2 29.0156C2 29.5078 2.38672 29.8945 2.87891 29.8945Z" fill="black" fill-opacity="0.85"/>
<path d="M5.25781 18.8789H22.8477C25.0273 18.8789 26.1055 17.8125 26.1055 15.6797V3.24609C26.1055 1.11328 25.0273 0.0234375 22.8477 0.0234375H5.25781C3.10156 0.0234375 2 1.125 2 3.24609V15.6797C2 17.8008 3.08984 18.8789 5.25781 18.8789ZM5.36328 17.1094C4.36719 17.1094 3.78125 16.5234 3.78125 15.5156V15.0234L6.79297 12.2578C7.23828 11.8594 7.73047 11.6602 8.1875 11.6602C8.69141 11.6602 9.20703 11.8711 9.66406 12.2812L11.6094 14.0508L16.5195 9.69141C17.0234 9.25781 17.5742 9.04688 18.1719 9.04688C18.7227 9.04688 19.332 9.25781 19.7891 9.71484L24.3828 14.0859V15.5391C24.3828 16.5234 23.7734 17.1094 22.8008 17.1094H5.36328Z" fill="black" fill-opacity="0.85"/>
<path d="M9.67578 9.70312C8.28125 9.70312 7.14453 8.56641 7.14453 7.17188C7.14453 5.78906 8.28125 4.65234 9.67578 4.65234C11.0586 4.65234 12.1953 5.78906 12.1953 7.17188C12.1953 8.56641 11.0586 9.70312 9.67578 9.70312Z" fill="white"/>
</svg>
