<svg width="28" height="28" viewBox="0 0 28 28" fill="none" xmlns="http://www.w3.org/2000/svg">
<path d="M13.9531 25.9062C20.4922 25.9062 25.9062 20.4805 25.9062 13.9531C25.9062 7.41406 20.4805 2 13.9414 2C7.41406 2 2 7.41406 2 13.9531C2 20.4805 7.42578 25.9062 13.9531 25.9062ZM13.9531 23.9141C8.42188 23.9141 4.00391 19.4844 4.00391 13.9531C4.00391 8.42188 8.41016 3.99219 13.9414 3.99219C19.4727 3.99219 23.9141 8.42188 23.9141 13.9531C23.9141 19.4844 19.4844 23.9141 13.9531 23.9141Z" fill="black" fill-opacity="0.85"/>
<path d="M8.7618 13.8008H12.8282C13.4376 13.8008 13.7892 13.5312 13.7892 12.8281V8.75002C13.7892 8.29299 13.4259 7.92971 12.9689 7.92971C12.5118 7.92971 12.1368 8.29299 12.1368 8.75002V9.32424L12.2657 11.1758L9.20711 8.00002C8.86727 7.63674 8.30477 7.63674 7.96492 7.9883C7.62508 8.32814 7.6368 8.89064 7.97664 9.23049L11.1407 12.2656L9.34774 12.1484H8.7618C8.30477 12.1484 7.94149 12.5117 7.94149 12.9688C7.94149 13.4258 8.30477 13.8008 8.7618 13.8008ZM14.9142 19.9648C15.3712 19.9648 15.7345 19.6016 15.7345 19.1445V18.5703L15.6173 16.7188L18.6759 19.8945C19.0157 20.2578 19.5782 20.2578 19.9181 19.9062C20.2579 19.5664 20.2462 18.9922 19.9063 18.6641L16.7423 15.6289L18.5353 15.7461H19.1095C19.5665 15.7461 19.9415 15.3828 19.9415 14.9258C19.9415 14.457 19.5665 14.0938 19.1095 14.0938H15.0548C14.4454 14.0938 14.0821 14.3633 14.0821 15.0547V19.1445C14.0821 19.6016 14.4571 19.9648 14.9142 19.9648Z" fill="black" fill-opacity="0.85"/>
</svg>
