<svg width="28" height="28" viewBox="0 0 28 28" fill="none" xmlns="http://www.w3.org/2000/svg">
<path d="M13.9531 25.9062C20.4922 25.9062 25.9062 20.4805 25.9062 13.9531C25.9062 7.41406 20.4805 2 13.9414 2C7.41406 2 2 7.41406 2 13.9531C2 20.4805 7.42578 25.9062 13.9531 25.9062ZM13.9531 23.9141C8.42188 23.9141 4.00391 19.4844 4.00391 13.9531C4.00391 8.42188 8.41016 3.99219 13.9414 3.99219C19.4727 3.99219 23.9141 8.42188 23.9141 13.9531C23.9141 19.4844 19.4844 23.9141 13.9531 23.9141Z" fill="black" fill-opacity="0.85"/>
<path d="M10.3791 8.55078C10.0744 9.24219 9.92207 9.92188 9.92207 10.5898C9.92207 12.8047 11.5041 14.6211 13.9299 14.6211C16.3791 14.6211 17.9377 12.8047 17.9377 10.5898C17.9377 9.92188 17.8088 9.24219 17.5041 8.55078C17.3752 8.25781 17.0119 8.21094 16.7775 8.45703L15.4416 9.83984L14.2932 8.33984C14.1057 8.08203 13.7775 8.08203 13.59 8.33984L12.4299 9.83984L11.0822 8.45703C10.8478 8.21094 10.4963 8.25781 10.3791 8.55078ZM13.426 20.7617C13.426 21.043 13.6604 21.2422 13.9299 21.2422C17.0471 21.2422 19.9299 19.3203 20.8791 16.5898C21.0197 16.2148 20.8674 15.957 20.469 15.957C17.3752 15.957 15.1252 17.7852 14.2346 20.1055L14.4338 20.3164V13.9766H13.426V20.7617ZM12.7229 18.5586C11.5978 17.0234 9.73457 15.957 7.39081 15.957C6.98066 15.957 6.84003 16.2148 6.98066 16.5898C7.80097 18.9922 10.1096 20.7617 12.7932 21.125C12.7463 21.0195 12.7229 20.8906 12.7229 20.7617V18.5586Z" fill="black" fill-opacity="0.85"/>
</svg>
