<svg width="29" height="31" viewBox="0 0 29 31" fill="none" xmlns="http://www.w3.org/2000/svg">
<path d="M3.67969 26.0865H25.1016C27.5391 26.0865 28.7812 24.8678 28.7812 22.4537V10.1842C28.7812 7.77014 27.5391 6.56311 25.1016 6.56311H21.75C20.8242 6.56311 20.543 6.37561 20.0156 5.78967L19.0781 4.73499C18.4922 4.09046 17.8945 3.73889 16.6875 3.73889H12.0117C10.8047 3.73889 10.207 4.09046 9.62109 4.73499L8.68359 5.78967C8.15625 6.36389 7.86328 6.56311 6.94922 6.56311H3.67969C1.23047 6.56311 0 7.77014 0 10.1842V22.4537C0 24.8678 1.23047 26.0865 3.67969 26.0865ZM14.3906 22.6295C10.8398 22.6295 7.99219 19.7935 7.99219 16.2193C7.99219 12.6568 10.8398 9.82092 14.3906 9.82092C17.9414 9.82092 20.7773 12.6568 20.7773 16.2193C20.7773 19.7935 17.9297 22.6295 14.3906 22.6295ZM14.3906 20.8482C16.9453 20.8482 19.0078 18.7974 19.0078 16.2193C19.0078 13.6529 16.9453 11.5904 14.3906 11.5904C11.8359 11.5904 9.76172 13.6529 9.76172 16.2193C9.76172 18.7974 11.8477 20.8482 14.3906 20.8482ZM21.5625 11.9068C21.5625 11.1099 22.2539 10.4068 23.0859 10.4068C23.8828 10.4068 24.5859 11.1099 24.5859 11.9068C24.5859 12.7389 23.8828 13.4068 23.0859 13.4185C22.2539 13.4185 21.5625 12.7506 21.5625 11.9068Z" fill="black" fill-opacity="0.85"/>
<path d="M1.57018 1.66473L4.86315 4.48895C5.07409 4.66473 5.29675 4.80536 5.54284 4.80536C5.80065 4.80536 6.02331 4.66473 6.23425 4.48895L9.52721 1.66473C10.4999 0.844422 9.35143 -0.655578 8.27331 0.317079L5.54284 2.81317L2.82409 0.317079C1.73425 -0.655578 0.59753 0.844422 1.57018 1.66473Z" fill="black" fill-opacity="0.85"/>
</svg>
