<svg width="28" height="28" viewBox="0 0 28 28" fill="none" xmlns="http://www.w3.org/2000/svg">
<path d="M26.3662 25.8164V16.5117C26.3662 15.1172 25.7334 14.4844 24.3389 14.4844H10.335C9.30371 14.4844 8.75293 15.2578 8.75293 16.0898C8.75293 16.6523 9.01075 17.1914 9.56153 17.5664L23.5654 27.2227C23.9404 27.4922 24.374 27.5977 24.7841 27.5977C25.6279 27.5977 26.3662 27.0352 26.3662 25.8164ZM24.456 25.0781C24.456 25.1602 24.4092 25.2305 24.3389 25.2305C24.3038 25.2305 24.2568 25.2188 24.2099 25.1836L11.3193 16.6055C11.2725 16.5703 11.2607 16.5234 11.2607 16.5C11.2607 16.4414 11.3076 16.4062 11.3662 16.4062H24.1045C24.3857 16.4062 24.456 16.4766 24.456 16.7578V25.0781ZM26.3662 11.0977V1.79297C26.3662 0.574219 25.6279 0.0117188 24.7841 0.0117188C24.374 0.0117188 23.9404 0.117188 23.5654 0.375L9.56153 10.043C9.01075 10.418 8.75293 10.957 8.75293 11.5195C8.75293 12.3516 9.30371 13.125 10.335 13.125H24.3389C25.7334 13.125 26.3662 12.4922 26.3662 11.0977ZM24.456 10.8516C24.456 11.1211 24.3857 11.2031 24.1045 11.2031H11.3779C11.3193 11.2031 11.2607 11.168 11.2607 11.1094C11.2607 11.0742 11.2725 11.0391 11.3428 11.0039L24.2099 2.42578C24.2568 2.39062 24.3038 2.37891 24.3389 2.37891C24.4092 2.37891 24.456 2.44922 24.456 2.53125V10.8516Z" fill="black" fill-opacity="0.85"/>
<path d="M5.8234 25.7812L8.15543 22.6406C8.64761 21.9961 8.35465 21.2109 7.55777 21.2109H5.87027V6.39844H7.55777C8.35465 6.39844 8.64761 5.61328 8.15543 4.96875L5.8234 1.82812C5.50699 1.39453 4.90933 1.39453 4.59293 1.82812L2.23746 4.96875C1.76871 5.58984 2.02652 6.39844 2.85855 6.39844H4.5109V21.2109H2.85855C2.04996 21.2109 1.74527 21.9961 2.23746 22.6406L4.59293 25.7812C4.90933 26.2031 5.51871 26.2031 5.8234 25.7812Z" fill="black" fill-opacity="0.85"/>
</svg>
