<svg width="28" height="28" viewBox="0 0 28 28" fill="none" xmlns="http://www.w3.org/2000/svg">
<path d="M5.85791 15.5402C5.85791 15.9972 6.20947 16.3371 6.70166 16.3371H13.3345L9.83056 25.8293C9.37353 27.0363 10.6274 27.6808 11.4243 26.6965L22.0649 13.384C22.2642 13.1379 22.3696 12.9035 22.3696 12.634C22.3696 12.1887 22.0298 11.8371 21.5376 11.8371H14.9048L18.4087 2.34491C18.854 1.13787 17.6118 0.493343 16.8149 1.48944L6.17431 14.7902C5.9751 15.048 5.85791 15.2824 5.85791 15.5402Z" fill="black" fill-opacity="0.85"/>
<path d="M21.3501 24.5401C22.2407 25.4307 23.6939 25.4307 24.561 24.5401C25.4517 23.6729 25.4517 22.2082 24.561 21.3293L6.87745 3.64564C5.98682 2.75501 4.5337 2.75501 3.65479 3.65736C2.77589 4.52454 2.78761 5.97767 3.65479 6.85657L21.3501 24.5401Z" fill="white"/>
<path d="M22.3228 23.5675C22.6743 23.919 23.2603 23.919 23.6001 23.5675C23.9517 23.2276 23.9517 22.6534 23.6001 22.2901L5.9165 4.60657C5.56494 4.25501 4.96728 4.25501 4.62744 4.60657C4.2876 4.94642 4.2876 5.54407 4.62744 5.88392L22.3228 23.5675Z" fill="black" fill-opacity="0.85"/>
</svg>
