<svg width="28" height="28" viewBox="0 0 28 28" fill="none" xmlns="http://www.w3.org/2000/svg">
<path d="M7.24609 27.4023H20.3359C22.2812 27.4023 23.582 26.1602 23.582 24.3086V4.10547C23.582 2.25391 22.2812 1 20.3359 1H7.24609C5.30078 1 4 2.25391 4 4.10547V24.3086C4 26.1602 5.30078 27.4023 7.24609 27.4023ZM7.48047 25.5156C6.47266 25.5156 5.88672 24.9531 5.88672 23.9922V4.42188C5.88672 3.46094 6.47266 2.88672 7.48047 2.88672H20.1016C21.0977 2.88672 21.6953 3.46094 21.6953 4.42188V23.9922C21.6953 24.9531 21.0977 25.5156 20.1016 25.5156H7.48047Z" fill="black" fill-opacity="0.85"/>
<path d="M8.89844 7.375C9.68359 7.375 10.375 6.69531 10.375 5.86328C10.375 5.06641 9.68359 4.38672 8.89844 4.38672C8.06641 4.38672 7.38672 5.06641 7.38672 5.86328C7.38672 6.69531 8.06641 7.375 8.89844 7.375Z" fill="black" fill-opacity="0.85"/>
</svg>
