<svg width="28" height="28" viewBox="0 0 28 28" fill="none" xmlns="http://www.w3.org/2000/svg">
<path d="M9.73047 24.707C12.3906 24.707 14.1484 23.1836 14.5703 20.125L16.0469 9.42578C16.3398 7.26953 17.2539 6.36719 18.8594 6.36719C20.043 6.36719 20.4062 6.51953 20.8867 6.51953C21.3906 6.51953 21.7422 6.20312 21.7422 5.65234C21.7422 4.75 20.3711 4.50391 19.0117 4.50391C16.3516 4.50391 14.5938 6.02734 14.1719 9.08594L12.707 19.7969C12.4141 21.9531 11.4883 22.8438 9.88281 22.8438C8.71094 22.8438 8.35938 22.6914 7.86719 22.6914C7.35156 22.6914 7 23.0078 7 23.5586C7 24.4727 8.37109 24.707 9.73047 24.707ZM9.13281 14.7344H20.5469C21.1094 14.7344 21.5078 14.3477 21.5078 13.8086C21.5078 13.2695 21.0977 12.8711 20.5352 12.8711H9.12109C8.55859 12.8711 8.16016 13.2578 8.16016 13.8086C8.16016 14.3477 8.57031 14.7344 9.13281 14.7344Z" fill="black" fill-opacity="0.85"/>
</svg>
