<svg width="28" height="28" viewBox="0 0 28 28" fill="none" xmlns="http://www.w3.org/2000/svg">
<path d="M9.25 26.6211C13.8086 26.6211 17.5 22.918 17.5 18.3594C17.5 13.8242 13.7969 10.1211 9.25 10.1211C4.70312 10.1211 1 13.8242 1 18.3594C1 22.918 4.70312 26.6211 9.25 26.6211ZM9.25 24.7461C5.72266 24.7461 2.875 21.8984 2.875 18.3594C2.875 14.8555 5.72266 11.9961 9.25 11.9961C12.7656 11.9961 15.625 14.8438 15.625 18.3594C15.625 21.8867 12.7656 24.7461 9.25 24.7461Z" fill="black" fill-opacity="0.85"/>
<path d="M18.6016 26.6211C23.1367 26.6211 26.8398 22.918 26.8398 18.3594C26.8398 13.8242 23.1367 10.1211 18.6016 10.1211C14.043 10.1211 10.3398 13.8242 10.3398 18.3594C10.3398 22.918 14.043 26.6211 18.6016 26.6211ZM18.6016 24.7461C15.0742 24.7461 12.2148 21.8984 12.2148 18.3594C12.2148 14.8555 15.0742 11.9961 18.6016 11.9961C22.1055 11.9961 24.9648 14.8438 24.9648 18.3594C24.9648 21.8867 22.1289 24.7461 18.6016 24.7461Z" fill="black" fill-opacity="0.85"/>
<path d="M13.9258 18.5703C18.4727 18.5703 22.1641 14.8789 22.1641 10.3203C22.1641 5.77344 18.4727 2.07031 13.9258 2.07031C9.36719 2.07031 5.66406 5.77344 5.66406 10.3203C5.66406 14.8789 9.36719 18.5703 13.9258 18.5703ZM13.9258 16.6953C10.3984 16.6953 7.53906 13.8477 7.53906 10.3203C7.53906 6.80469 10.3984 3.94531 13.9258 3.94531C17.4297 3.94531 20.2891 6.80469 20.2891 10.3203C20.2891 13.8477 17.4414 16.6953 13.9258 16.6953Z" fill="black" fill-opacity="0.85"/>
</svg>
