<svg width="28" height="28" viewBox="0 0 28 28" fill="none" xmlns="http://www.w3.org/2000/svg">
<path d="M25.9062 13.9297C25.9062 12.0195 25.4375 10.2266 24.6055 8.63281V19.2383C25.4375 17.6445 25.9062 15.8281 25.9062 13.9297Z" fill="black" fill-opacity="0.85"/>
<path d="M22.0977 22.625C22.5664 22.1914 23 21.7109 23.3984 21.207V6.66406C23 6.16016 22.5664 5.66796 22.0977 5.23438V22.625Z" fill="black" fill-opacity="0.85"/>
<path d="M19.5781 24.4414C20.0352 24.207 20.4688 23.9258 20.8789 23.6328V4.22656C20.4688 3.93359 20.0352 3.65234 19.5781 3.41797V24.4414Z" fill="black" fill-opacity="0.85"/>
<path d="M17.0703 25.4609C17.5039 25.332 17.9492 25.1914 18.3711 25.0156V2.84375C17.9492 2.66797 17.5039 2.52734 17.0703 2.41016V25.4609Z" fill="black" fill-opacity="0.85"/>
<path d="M14.5508 25.8594C14.9961 25.8477 15.4297 25.8008 15.8516 25.7305V2.14062C15.4297 2.05859 14.9961 2.01172 14.5508 2V25.8594Z" fill="black" fill-opacity="0.85"/>
<path d="M12.0547 25.7305C12.4766 25.8008 12.9102 25.8477 13.3555 25.8594V2C12.9102 2.01172 12.4766 2.05859 12.0547 2.12891V25.7305Z" fill="black" fill-opacity="0.85"/>
<path d="M9.53516 25.0156C9.95703 25.1914 10.4023 25.332 10.8359 25.4609V2.39844C10.4023 2.51562 9.95703 2.66797 9.53516 2.83203V25.0156Z" fill="black" fill-opacity="0.85"/>
<path d="M7.02734 23.6328C7.44922 23.9258 7.87109 24.207 8.32812 24.4414V3.40625C7.87109 3.64062 7.44922 3.92188 7.02734 4.21484V23.6328Z" fill="black" fill-opacity="0.85"/>
<path d="M4.50781 21.207C4.90625 21.7109 5.33984 22.1914 5.80859 22.625V5.22266C5.33984 5.65625 4.90625 6.14844 4.50781 6.65234V21.207Z" fill="black" fill-opacity="0.85"/>
<path d="M2 13.9297C2 15.8281 2.46875 17.6445 3.30078 19.2383V8.62109C2.46875 10.2148 2 12.0195 2 13.9297Z" fill="black" fill-opacity="0.85"/>
</svg>
