<svg width="28" height="28" viewBox="0 0 28 28" fill="none" xmlns="http://www.w3.org/2000/svg">
<path d="M13.9531 25.9062C20.4922 25.9062 25.9062 20.4805 25.9062 13.9531C25.9062 7.41406 20.4805 2 13.9414 2C7.41406 2 2 7.41406 2 13.9531C2 20.4805 7.42578 25.9062 13.9531 25.9062ZM13.9531 23.9141C8.42188 23.9141 4.00391 19.4844 4.00391 13.9531C4.00391 8.42188 8.41016 3.99219 13.9414 3.99219C19.4727 3.99219 23.9141 8.42188 23.9141 13.9531C23.9141 19.4844 19.4844 23.9141 13.9531 23.9141Z" fill="black" fill-opacity="0.85"/>
<path d="M13.9883 20.4922C15.4531 20.4922 16.918 19.9766 17.9375 19.1328C18.5 18.6875 18.6289 18.0781 18.2305 17.6445C17.8203 17.2109 17.2812 17.2812 16.8125 17.6211C15.9688 18.2891 15.125 18.6406 13.9883 18.6406C11.6563 18.6406 9.72266 17.0703 9.20703 14.9961H10.4375C10.9766 14.9961 11.1055 14.4688 10.8008 14.0586L8.90234 11.4102C8.58594 10.9766 8.04688 10.9414 7.71875 11.4102L5.84375 14.0586C5.53906 14.4805 5.65625 14.9961 6.19531 14.9961H7.4375C8.01172 18.2422 10.6484 20.4922 13.9883 20.4922ZM13.9648 7.36719C12.5117 7.36719 11.0352 7.87109 10.0273 8.71484C9.46484 9.16016 9.33594 9.76953 9.73438 10.2031C10.1445 10.6367 10.6836 10.5664 11.1406 10.2266C11.9844 9.57031 12.8281 9.20703 13.9648 9.20703C16.2969 9.20703 18.2305 10.7773 18.7578 12.8516H17.457C16.9062 12.8516 16.7891 13.3789 17.082 13.7891L18.9922 16.4375C19.3086 16.8711 19.8477 16.9062 20.1758 16.4375L22.0508 13.7891C22.3555 13.3789 22.2383 12.8516 21.6875 12.8516H20.5156C19.9531 9.60547 17.3164 7.36719 13.9648 7.36719Z" fill="black" fill-opacity="0.85"/>
</svg>
