<svg width="28" height="28" viewBox="0 0 28 28" fill="none" xmlns="http://www.w3.org/2000/svg">
<path d="M13.9531 25.918C20.4922 25.918 25.9062 20.5039 25.9062 13.9648C25.9062 7.4375 20.4805 2.01172 13.9414 2.01172C7.41406 2.01172 2 7.4375 2 13.9648C2 20.5039 7.42578 25.918 13.9531 25.918Z" fill="black" fill-opacity="0.85"/>
<path d="M10.6016 12.5C10.1328 12.5 9.75781 12.1133 9.75781 11.6562C9.75781 11.1992 10.1328 10.8125 10.6016 10.8125H13.1328V8.26953C13.1328 7.82422 13.5195 7.4375 13.9766 7.4375C14.4336 7.4375 14.832 7.8125 14.832 8.26953V10.8125H17.3398C17.7969 10.8125 18.1836 11.1992 18.1836 11.6562C18.1836 12.1133 17.7969 12.5 17.3398 12.5H14.832V15.0312C14.832 15.4883 14.4336 15.875 13.9766 15.875C13.5195 15.875 13.1328 15.4766 13.1328 15.0312V12.5H10.6016ZM10.6133 19.7188C10.1328 19.7188 9.75781 19.3086 9.75781 18.8867C9.75781 18.4297 10.1328 18.0312 10.6133 18.0312H17.3281C17.7969 18.0312 18.1836 18.4297 18.1836 18.8867C18.1836 19.3086 17.7969 19.7188 17.3281 19.7188H10.6133Z" fill="white"/>
</svg>
