<svg width="28" height="28" viewBox="0 0 28 28" fill="none" xmlns="http://www.w3.org/2000/svg">
<path d="M13.9531 19.8711C17.2227 19.8711 19.8711 17.2227 19.8711 13.9531C19.8711 10.6836 17.2227 8.03516 13.9531 8.03516C10.6836 8.03516 8.03516 10.6836 8.03516 13.9531C8.03516 17.2227 10.6836 19.8711 13.9531 19.8711ZM13.9531 18.2773C11.5508 18.2773 9.62891 16.3438 9.62891 13.9531C9.62891 11.5508 11.5508 9.62891 13.9531 9.62891C16.3555 9.62891 18.2773 11.5508 18.2773 13.9531C18.2773 16.3438 16.3555 18.2773 13.9531 18.2773ZM12.8164 20.1406L13.6133 18.7461L3.05469 12.6641L2.25781 14.0469L12.8164 20.1406ZM18.8047 17.9961L18.0195 16.6133L7.44922 22.707L8.24609 24.1016L18.8047 17.9961ZM19.8711 11.832L18.2773 11.8203L18.2891 24.0195H19.8711V11.832ZM15.0898 7.75391L14.293 9.14844L24.8633 15.2422L25.6484 13.8477L15.0898 7.75391ZM9.10156 9.89844L9.89844 11.293L20.4688 5.19922L19.6602 3.80469L9.10156 9.89844ZM8.03516 16.0625H9.62891V3.88672H8.03516V16.0625ZM13.9531 25.9062C20.4922 25.9062 25.9062 20.4805 25.9062 13.9531C25.9062 7.41406 20.4805 2 13.9414 2C7.41406 2 2 7.41406 2 13.9531C2 20.4805 7.42578 25.9062 13.9531 25.9062ZM13.9531 23.9141C8.42188 23.9141 4.00391 19.4844 4.00391 13.9531C4.00391 8.42188 8.41016 3.99219 13.9414 3.99219C19.4727 3.99219 23.9141 8.42188 23.9141 13.9531C23.9141 19.4844 19.4844 23.9141 13.9531 23.9141Z" fill="black" fill-opacity="0.85"/>
</svg>
