<svg width="28" height="28" viewBox="0 0 28 28" fill="none" xmlns="http://www.w3.org/2000/svg">
<path d="M11.436 26.7017L22.0767 13.0025C22.2759 12.7564 22.3814 12.522 22.3814 12.2525C22.3814 11.8071 22.0415 11.4673 21.5493 11.4673H14.9165L18.4204 2.35011C18.8774 1.14308 17.6001 0.48683 16.8267 1.49464L6.18603 15.1821C5.9751 15.44 5.86963 15.6743 5.86963 15.9321C5.86963 16.3892 6.22119 16.729 6.71338 16.729H13.3462L9.84228 25.8345C9.37353 27.0415 10.6626 27.6978 11.436 26.7017ZM12.1274 23.5493L16.0415 14.9829H8.79931L16.4517 4.82277L16.1235 4.64699L12.2095 13.2134H19.4517L11.7993 23.3735L12.1274 23.5493Z" fill="black" fill-opacity="0.85"/>
<path d="M21.3501 24.5454C22.2407 25.436 23.6939 25.436 24.561 24.5454C25.4517 23.6782 25.4517 22.2134 24.561 21.3345L6.87745 3.65088C5.98682 2.76026 4.5337 2.76026 3.65479 3.6626C2.77589 4.52979 2.78761 5.98291 3.65479 6.86182L21.3501 24.5454Z" fill="white"/>
<path d="M22.3228 23.5728C22.6743 23.9243 23.2603 23.9243 23.6001 23.5728C23.9517 23.2329 23.9517 22.6587 23.6001 22.2954L5.9165 4.61181C5.56494 4.26025 4.96728 4.26025 4.62744 4.61181C4.2876 4.95165 4.2876 5.54931 4.62744 5.88915L22.3228 23.5728Z" fill="black" fill-opacity="0.85"/>
</svg>
