<svg width="28" height="28" viewBox="0 0 28 28" fill="none" xmlns="http://www.w3.org/2000/svg">
<path d="M13.9531 25.9062C20.4922 25.9062 25.9062 20.4805 25.9062 13.9531C25.9062 7.41406 20.4805 2 13.9414 2C7.41406 2 2 7.41406 2 13.9531C2 20.4805 7.42578 25.9062 13.9531 25.9062ZM13.9531 23.9141C8.42188 23.9141 4.00391 19.4844 4.00391 13.9531C4.00391 8.42188 8.41016 3.99219 13.9414 3.99219C19.4727 3.99219 23.9141 8.42188 23.9141 13.9531C23.9141 19.4844 19.4844 23.9141 13.9531 23.9141Z" fill="black" fill-opacity="0.85"/>
<path d="M13.9414 9.54688C14.4219 9.54688 14.7734 9.19531 14.7734 8.71484C14.7734 8.23438 14.4219 7.88281 13.9414 7.88281C13.4609 7.88281 13.1094 8.23438 13.1094 8.71484C13.1094 9.19531 13.4609 9.54688 13.9414 9.54688ZM16.5664 10.25C17.0586 10.25 17.4102 9.89844 17.4102 9.41797C17.4102 8.9375 17.0586 8.58594 16.5664 8.58594C16.0859 8.58594 15.7344 8.9375 15.7344 9.41797C15.7344 9.89844 16.0859 10.25 16.5664 10.25ZM18.4883 12.1719C18.9688 12.1719 19.3203 11.8203 19.3203 11.3398C19.3203 10.8594 18.9688 10.5078 18.4883 10.5078C18.0078 10.5078 17.6562 10.8594 17.6562 11.3398C17.6562 11.8203 18.0078 12.1719 18.4883 12.1719ZM19.1914 14.7969C19.6719 14.7969 20.0234 14.4453 20.0234 13.9648C20.0234 13.4844 19.6719 13.1328 19.1914 13.1328C18.7109 13.1328 18.3594 13.4844 18.3594 13.9648C18.3594 14.4453 18.7109 14.7969 19.1914 14.7969ZM18.4883 17.4336C18.9688 17.4336 19.3203 17.082 19.3203 16.6016C19.3203 16.1094 18.9688 15.7578 18.4883 15.7578C18.0078 15.7578 17.6562 16.1094 17.6562 16.6016C17.6562 17.082 18.0078 17.4336 18.4883 17.4336ZM16.5664 19.3438C17.0586 19.3438 17.4102 18.9922 17.4102 18.5117C17.4102 18.0312 17.0586 17.6797 16.5664 17.6797C16.0859 17.6797 15.7344 18.0312 15.7344 18.5117C15.7344 18.9922 16.0859 19.3438 16.5664 19.3438ZM13.9414 20.0469C14.4219 20.0469 14.7734 19.6953 14.7734 19.2148C14.7734 18.7344 14.4219 18.3828 13.9414 18.3828C13.4609 18.3828 13.1094 18.7344 13.1094 19.2148C13.1094 19.6953 13.4609 20.0469 13.9414 20.0469ZM11.3164 19.3438C11.7969 19.3438 12.1484 18.9922 12.1484 18.5117C12.1484 18.0312 11.7969 17.6797 11.3164 17.6797C10.8359 17.6797 10.4844 18.0312 10.4844 18.5117C10.4844 18.9922 10.8359 19.3438 11.3164 19.3438ZM9.39453 17.4336C9.87499 17.4336 10.2266 17.082 10.2266 16.6016C10.2266 16.1094 9.87499 15.7578 9.39453 15.7578C8.91406 15.7578 8.5625 16.1094 8.5625 16.6016C8.5625 17.082 8.91406 17.4336 9.39453 17.4336ZM8.69141 14.7969C9.17188 14.7969 9.52344 14.4453 9.52344 13.9648C9.52344 13.4844 9.17188 13.1328 8.69141 13.1328C8.21094 13.1328 7.85938 13.4844 7.85938 13.9648C7.85938 14.4453 8.21094 14.7969 8.69141 14.7969ZM9.39453 12.1719C9.87499 12.1719 10.2266 11.8203 10.2266 11.3398C10.2266 10.8594 9.87499 10.5078 9.39453 10.5078C8.91406 10.5078 8.5625 10.8594 8.5625 11.3398C8.5625 11.8203 8.91406 12.1719 9.39453 12.1719ZM11.3164 10.25C11.7969 10.25 12.1484 9.89844 12.1484 9.41797C12.1484 8.9375 11.7969 8.58594 11.3164 8.58594C10.8359 8.58594 10.4844 8.9375 10.4844 9.41797C10.4844 9.89844 10.8359 10.25 11.3164 10.25Z" fill="black" fill-opacity="0.85"/>
</svg>
