<svg width="28" height="28" viewBox="0 0 28 28" fill="none" xmlns="http://www.w3.org/2000/svg">
<path d="M13.9531 25.9062C20.4922 25.9062 25.9062 20.4805 25.9062 13.9531C25.9062 7.41406 20.4805 2 13.9414 2C7.41406 2 2 7.41406 2 13.9531C2 20.4805 7.42578 25.9062 13.9531 25.9062Z" fill="black" fill-opacity="0.85"/>
<path d="M8.62125 13.8008C8.14078 13.8008 7.75407 13.4141 7.75407 12.9336C7.75407 12.4648 8.14078 12.0898 8.62125 12.0898H9.20719L11.0588 12.207L7.80094 9.08986C7.44938 8.72658 7.42594 8.15236 7.78922 7.8008C8.14078 7.43752 8.715 7.43752 9.06657 7.81252L12.219 11.082L12.1018 9.1719V8.58596C12.1018 8.10549 12.4768 7.73049 12.9455 7.73049C13.426 7.73049 13.8127 8.10549 13.8127 8.58596V12.793C13.8127 13.5195 13.4377 13.8008 12.8049 13.8008H8.62125ZM14.9611 20.1641C14.4807 20.1641 14.094 19.7891 14.094 19.3086V15.0898C14.094 14.375 14.469 14.0938 15.1018 14.0938H19.2854C19.7658 14.0938 20.1525 14.4688 20.1525 14.9609C20.1525 15.4297 19.7658 15.8047 19.2854 15.8047H18.6994L16.8479 15.6875L20.1057 18.8047C20.4572 19.1562 20.4807 19.7422 20.1174 20.0938C19.7658 20.457 19.1916 20.457 18.84 20.082L15.6877 16.8125L15.8049 18.7227V19.3086C15.8049 19.7891 15.4299 20.1641 14.9611 20.1641Z" fill="white"/>
</svg>
