<svg width="29" height="28" viewBox="0 0 29 28" fill="none" xmlns="http://www.w3.org/2000/svg">
<path d="M7.65234 22.2657L20.332 24.4805C22.6172 24.879 24.1406 23.6602 24.1406 21.4219V7.13678C24.1406 4.8985 22.6172 3.66803 20.332 4.07819L7.65234 6.30475C5.40234 6.69147 4.20703 7.8985 4.20703 9.79694V18.7618C4.20703 20.6485 5.40234 21.8672 7.65234 22.2657ZM0.9375 15.1641C0.351562 15.1641 0 14.8243 0 14.2852C0 13.7227 0.351562 13.3946 0.9375 13.3946H27.4102C27.9961 13.3946 28.3477 13.7227 28.3477 14.2852C28.3477 14.8243 27.9961 15.1641 27.4102 15.1641H0.9375Z" fill="black" fill-opacity="0.85"/>
</svg>
