<svg width="28" height="29" viewBox="0 0 28 29" fill="none" xmlns="http://www.w3.org/2000/svg">
<path d="M4.6029 23.5078H23.3412C25.2748 23.5078 26.2826 22.3477 25.8607 20.5898L22.5443 7.13672C22.1224 5.41406 21.0326 4.52344 19.3451 4.52344H8.61072C6.9115 4.52344 5.82165 5.41406 5.39978 7.13672L2.09509 20.5898C1.67322 22.3477 2.68103 23.5078 4.6029 23.5078ZM13.9896 28.0312C13.4388 28.0312 13.099 27.668 13.099 27.0938V0.9375C13.099 0.351562 13.4388 0 13.9896 0C14.5287 0 14.8685 0.351562 14.8685 0.9375V27.0938C14.8685 27.668 14.5287 28.0312 13.9896 28.0312Z" fill="black" fill-opacity="0.85"/>
</svg>
