<svg width="28" height="28" viewBox="0 0 28 28" fill="none" xmlns="http://www.w3.org/2000/svg">
<path d="M23.1094 23.4453L24.4219 22.1445L14.2617 11.9961L12.9492 13.3086L23.1094 23.4453ZM4.66406 24.043H23.0273C24.4219 24.043 25.0547 23.4102 25.0547 22.0156V3.65234C25.0547 2.63281 24.3984 2 23.4141 2C22.793 2 22.3477 2.28125 21.8906 2.73828L3.73828 20.8906C3.29297 21.3477 3 21.7812 3 22.4141C3 23.3984 3.63281 24.043 4.66406 24.043ZM5.67188 22.1328C5.57812 22.1328 5.50781 22.0859 5.50781 22.0039C5.50781 21.9688 5.51953 21.9219 5.58984 21.8633L22.8633 4.57812C22.9219 4.51953 22.9688 4.49609 23.0156 4.49609C23.0977 4.49609 23.1328 4.56641 23.1328 4.66016V21.7812C23.1328 22.0508 23.0625 22.1328 22.7812 22.1328H5.67188Z" fill="black" fill-opacity="0.85"/>
</svg>
