<svg width="28" height="28" viewBox="0 0 28 28" fill="none" xmlns="http://www.w3.org/2000/svg">
<path d="M3.67969 24.5742H13.0312V22.6875H3.70312C2.53125 22.6875 1.88672 22.0664 1.88672 20.8477V14.5898H0V20.9531C0 23.3672 1.23047 24.5742 3.67969 24.5742ZM14.6367 24.5742H23.9531C26.4141 24.5742 27.6328 23.3672 27.6328 20.9531V14.5898H25.7461V20.8477C25.7461 22.0664 25.0898 22.6875 23.9297 22.6875H14.6367V24.5742ZM25.7461 12.9961H27.6328V6.63281C27.6328 4.21875 26.4141 3 23.9531 3H14.6367V4.88672H23.9297C25.0898 4.88672 25.7461 5.51953 25.7461 6.73828V12.9961ZM0 12.9961H1.88672V6.73828C1.88672 5.51953 2.53125 4.88672 3.70312 4.88672H13.0312V3H3.67969C1.23047 3 0 4.21875 0 6.63281V12.9961Z" fill="black" fill-opacity="0.85"/>
<path d="M20.3086 14.6016H18.7734C18.375 16.9805 16.3125 18.8086 13.8398 18.8086C11.3555 18.8086 9.26953 16.9805 8.88281 14.6016H7.34766C7.74609 17.8242 10.5234 20.3203 13.8398 20.3203C17.1328 20.3203 19.8867 17.8125 20.3086 14.6016ZM18.7852 12.9961H20.3086C19.9219 9.79688 17.1328 7.27734 13.8398 7.27734C10.5234 7.27734 7.73438 9.79688 7.34766 12.9961H8.87109C9.25781 10.6289 11.3555 8.78906 13.8398 8.78906C16.3125 8.78906 18.4102 10.6289 18.7852 12.9961Z" fill="black" fill-opacity="0.85"/>
</svg>
