<svg width="28" height="28" viewBox="0 0 28 28" fill="none" xmlns="http://www.w3.org/2000/svg">
<path d="M6.17188 12.7773H7.94141V4.23438C7.94141 3.28516 8.48047 2.71094 9.52344 2.71094H18.6992C19.7422 2.71094 20.293 3.28516 20.293 4.23438V5.14844H22.0625V3.98828C22.0625 2.23047 20.8438 1 18.9336 1H9.28906C7.37891 1 6.16016 2.23047 6.16016 3.98828L6.17188 12.7773ZM9.30078 26.2891H18.9453C20.8555 26.2891 22.0742 25.0469 22.0742 23.2891V14.5H20.3047V23.043C20.3047 24.0039 19.7539 24.5781 18.7109 24.5781H9.53516C8.49219 24.5781 7.94141 24.0039 7.94141 23.043V22.1289H6.17188V23.2891C6.17188 25.0469 7.39062 26.2891 9.30078 26.2891Z" fill="black" fill-opacity="0.85"/>
<path d="M17.4336 6.58984C16.9531 6.58984 16.6953 6.96484 16.6953 7.33984C16.6953 7.71484 16.9648 8.10156 17.4688 8.10156H19.2969L20.6914 8.01953L19.3438 9.28516L17.5156 11.1016C17.3398 11.2891 17.2578 11.4883 17.2578 11.6758C17.2578 12.1445 17.6914 12.5664 18.1602 12.5664C18.3477 12.5664 18.5469 12.4961 18.7227 12.3203L20.5391 10.4922L21.793 9.14453L21.7227 10.5273V12.4023C21.7227 12.918 22.1094 13.1758 22.4844 13.1758C22.8594 13.1758 23.2344 12.9297 23.2344 12.4375V7.5625C23.2344 6.92969 22.8828 6.58984 22.2617 6.58984H17.4336ZM5.97266 20.6992H10.8008C11.293 20.6992 11.5391 20.3125 11.5391 19.9375C11.5391 19.5508 11.2812 19.1758 10.7656 19.1758H8.9375L7.54297 19.2578L8.89062 17.9922L10.7188 16.1758C10.8945 16 10.9766 15.8008 10.9766 15.6016C10.9766 15.1328 10.543 14.7227 10.0742 14.7227C9.88672 14.7227 9.6875 14.7812 9.51172 14.957L7.69531 16.7969L6.44141 18.1328L6.51172 16.75V14.875C6.51172 14.3594 6.125 14.1016 5.75 14.1016C5.375 14.1016 5 14.3477 5 14.8398V19.7148C5 20.3477 5.35156 20.6992 5.97266 20.6992Z" fill="black" fill-opacity="0.85"/>
</svg>
