<svg width="28" height="28" viewBox="0 0 28 28" fill="none" xmlns="http://www.w3.org/2000/svg">
<path d="M13.9531 25.9062C20.4922 25.9062 25.9062 20.4805 25.9062 13.9531C25.9062 7.41406 20.4805 2 13.9414 2C7.41406 2 2 7.41406 2 13.9531C2 20.4805 7.42578 25.9062 13.9531 25.9062ZM13.9531 23.9141C8.42188 23.9141 4.00391 19.4844 4.00391 13.9531C4.00391 8.42188 8.41016 3.99219 13.9414 3.99219C19.4727 3.99219 23.9141 8.42188 23.9141 13.9531C23.9141 19.4844 19.4844 23.9141 13.9531 23.9141Z" fill="black" fill-opacity="0.85"/>
<path d="M9.03125 19.625C9.03125 20.2695 9.71094 20.5977 11.0117 20.5977C12.875 20.5977 14.0352 19.5078 14.3164 17.4805L14.7617 14.2695H17.8672C18.3711 14.2695 18.7344 13.918 18.7344 13.4492C18.7344 12.957 18.3594 12.6055 17.8555 12.6055H15.0078L15.2656 10.6953C15.4297 9.46483 15.8984 8.96094 16.8008 8.96094C17.5273 8.96094 17.75 9.04297 18.0898 9.04297C18.5586 9.04297 18.875 8.72656 18.875 8.26953C18.875 7.625 18.1719 7.29688 16.8945 7.29688C15.0312 7.29688 13.8711 8.39844 13.6016 10.4023L13.2969 12.6055H10.625C10.1445 12.6055 9.76953 12.957 9.76953 13.4492C9.76953 13.918 10.1445 14.2695 10.6367 14.2695H13.0625L12.6523 17.1992C12.4883 18.418 12.0195 18.9219 11.1055 18.9219C10.4023 18.9219 10.1914 18.8281 9.81641 18.8281C9.34766 18.8281 9.03125 19.1562 9.03125 19.625Z" fill="black" fill-opacity="0.85"/>
</svg>
