<svg width="28" height="28" viewBox="0 0 28 28" fill="none" xmlns="http://www.w3.org/2000/svg">
<path d="M26.4258 20.3203L19.4648 13.7812C18.9492 13.3008 18.3281 13.0547 17.6953 13.0547C17.0508 13.0547 16.4766 13.2773 15.9375 13.7578L10.6406 18.4922L8.47266 16.5352C7.98047 16.0898 7.44141 15.8672 6.89062 15.8672C6.36328 15.8672 5.85938 16.0781 5.37891 16.5234L0.914062 20.5547C0.984375 22.6758 1.85156 23.7539 3.59766 23.7539H23.2383C25.3594 23.7539 26.4258 22.5703 26.4258 20.3203ZM3.67969 24.5742H23.9531C26.4141 24.5742 27.6328 23.3672 27.6328 20.9531V6.63281C27.6328 4.21875 26.4141 3 23.9531 3H3.67969C1.23047 3 0 4.21875 0 6.63281V20.9531C0 23.3672 1.23047 24.5742 3.67969 24.5742ZM3.70312 22.6875C2.53125 22.6875 1.88672 22.0664 1.88672 20.8477V6.73828C1.88672 5.51953 2.53125 4.88672 3.70312 4.88672H23.9297C25.0898 4.88672 25.7461 5.51953 25.7461 6.73828V20.8477C25.7461 22.0664 25.0898 22.6875 23.9297 22.6875H3.70312Z" fill="black" fill-opacity="0.85"/>
<path d="M8.73047 13.8984C10.2422 13.8984 11.4844 12.6562 11.4844 11.1328C11.4844 9.62109 10.2422 8.36719 8.73047 8.36719C7.20703 8.36719 5.96484 9.62109 5.96484 11.1328C5.96484 12.6562 7.20703 13.8984 8.73047 13.8984Z" fill="black" fill-opacity="0.85"/>
</svg>
