<svg width="36" height="28" viewBox="0 0 36 28" fill="none" xmlns="http://www.w3.org/2000/svg">
<path d="M4.69772 13.1094C6.11569 13.1094 7.25241 11.9727 7.25241 10.5547C7.25241 9.14844 6.11569 8 4.69772 8C3.29147 8 2.15475 9.14844 2.15475 10.5547C2.15475 11.9727 3.29147 13.1094 4.69772 13.1094ZM12.3618 20.1758H15.7133C18.4907 20.1758 19.2758 18.5938 19.0415 16.7773L18.268 10.625H24.2798C24.9594 10.625 25.4868 10.0859 25.4868 9.40625C25.4868 8.73828 24.9594 8.21094 24.2798 8.21094H16.7798C16.0883 8.21094 15.561 8.69141 15.561 9.51172V15.7227H13.5571C12.4907 15.7227 11.5883 15.3359 11.0727 14.5156C10.9555 14.3281 10.9555 14.0469 11.1782 13.7891L14.1899 10.2148C14.893 9.39453 14.3305 8.21094 13.311 8.21094H9.08053C8.41257 8.21094 7.8735 8.73828 7.8735 9.40625C7.8735 10.0977 8.38913 10.625 9.08053 10.625H10.7915L9.03366 12.6992C7.77975 14.1875 6.66647 15.2188 4.79147 16.0508L2.96335 16.8711L3.53757 14.8438C3.72507 14.1758 3.29147 13.5195 2.67038 13.3789C2.01413 13.2148 1.35788 13.6133 1.19382 14.2344L0.0570973 18.6758C-0.259309 19.8711 0.795379 20.4805 1.83835 20.0234L5.6235 18.3477C6.01022 18.1953 6.23288 18.207 6.52585 18.4414C7.7446 19.4727 9.68991 20.1758 12.3618 20.1758ZM25.2993 17.457H34.0063C34.6743 17.457 35.2133 16.918 35.2133 16.2383C35.2133 15.5703 34.6743 15.0312 34.0063 15.0312H25.1821C25.0883 15.0312 24.9712 15.0312 24.8423 15.043L20.0141 15.4414L20.1782 16.6133C20.2602 17.3047 20.2485 17.9375 20.1079 18.5L25.2993 17.457Z" fill="black" fill-opacity="0.85"/>
</svg>
