<svg width="28" height="28" viewBox="0 0 28 28" fill="none" xmlns="http://www.w3.org/2000/svg">
<g clip-path="url(#clip0_2124_24875)">
<path d="M13.9531 25.918C20.4922 25.918 25.9062 20.5039 25.9062 13.9648C25.9062 7.4375 20.4805 2.01172 13.9414 2.01172C7.41406 2.01172 2 7.4375 2 13.9648C2 20.5039 7.42578 25.918 13.9531 25.918Z" fill="black" fill-opacity="0.85"/>
<path d="M7.32031 17.9727V14.7617C7.32031 13.8242 7.51953 13.2852 8.03516 12.6289L8.51562 12.0078C8.72656 10.9883 9.07812 9.93359 9.27734 9.52344C9.58203 8.89062 10.1563 8.51562 10.8945 8.42188C11.2813 8.375 12.5 8.35156 13.9531 8.35156C15.3945 8.35156 16.625 8.375 17 8.42188C17.75 8.52734 18.3242 8.89062 18.6172 9.52344C18.8164 9.93359 19.168 10.9883 19.3906 12.0078L19.8594 12.6289C20.3867 13.2852 20.5742 13.8242 20.5742 14.7617V17.9727C20.5742 18.3945 20.2461 18.7227 19.8359 18.7227H19.168C18.7461 18.7227 18.418 18.3945 18.418 17.9727V17.0469C17.1758 17.1289 15.3945 17.1758 13.9531 17.1758C12.5117 17.1758 10.7188 17.1289 9.47656 17.0469V17.9727C9.47656 18.3945 9.14844 18.7227 8.73828 18.7227H8.07031C7.64844 18.7227 7.32031 18.3945 7.32031 17.9727ZM11.9609 13.2031C11.9609 13.332 12.0664 13.4375 12.207 13.4375H13.7188L12.9805 15.4531C12.8398 15.8164 13.2266 16.0156 13.4609 15.7227L15.8633 12.6172C15.8984 12.5469 15.9453 12.4648 15.9453 12.3945C15.9453 12.2539 15.8398 12.1484 15.6992 12.1484L14.1875 12.1602L14.9375 10.1328C15.0664 9.76953 14.7031 9.59375 14.4688 9.88672L12.043 12.9922C11.9844 13.0625 11.9609 13.1328 11.9609 13.2031Z" fill="white"/>
</g>
<defs>
<clipPath id="clip0_2124_24875">
<rect width="23.9062" height="23.918" fill="white" transform="translate(2 2)"/>
</clipPath>
</defs>
</svg>
