<svg width="28" height="28" viewBox="0 0 28 28" fill="none" xmlns="http://www.w3.org/2000/svg">
<path d="M6.67969 24.5977H20.8945C23.3555 24.5977 24.5742 23.3789 24.5742 20.9648V6.65625C24.5742 4.24219 23.3555 3.02344 20.8945 3.02344H6.67969C4.23047 3.02344 3 4.23047 3 6.65625V20.9648C3 23.3906 4.23047 24.5977 6.67969 24.5977ZM6.70312 22.7109C5.53125 22.7109 4.88672 22.0898 4.88672 20.8711V6.75C4.88672 5.53125 5.53125 4.91016 6.70312 4.91016H20.8711C22.0312 4.91016 22.6875 5.53125 22.6875 6.75V20.8711C22.6875 22.0898 22.0312 22.7109 20.8711 22.7109H6.70312Z" fill="black" fill-opacity="0.85"/>
<path d="M13.5117 19.3711C16.3359 19.3711 17.8828 17.3438 17.8828 13.418C17.8828 10.043 16.3477 8.21484 13.7109 8.21484C11.2969 8.21484 9.72656 9.67969 9.72656 11.9531C9.72656 14.1562 11.4023 15.4102 13.2305 15.4102C14.7891 15.4102 15.7148 14.6367 16.0898 13.7695H16.1836C16.207 16.3477 15.1055 17.8828 13.4883 17.8828C12.6797 17.8828 12.1406 17.543 11.6484 16.8867C11.4492 16.6172 11.2266 16.418 10.8516 16.418C10.3945 16.418 10.0781 16.7227 10.0781 17.1797C10.0781 17.3086 10.1016 17.4375 10.1484 17.5781C10.4297 18.3867 11.5313 19.3711 13.5117 19.3711ZM13.7812 14.0859C12.457 14.0859 11.543 13.1602 11.543 11.8711C11.543 10.5117 12.4336 9.60938 13.793 9.60938C15.0703 9.60938 16.0312 10.5703 16.0312 11.8945C16.0312 13.1602 15.0938 14.0859 13.7812 14.0859Z" fill="black" fill-opacity="0.85"/>
</svg>
