<svg width="28" height="28" viewBox="0 0 28 28" fill="none" xmlns="http://www.w3.org/2000/svg">
<g clip-path="url(#clip0_2124_88501)">
<path d="M6.89746 26.1953C7.47168 26.1953 7.81152 25.8672 8.86621 24.8477L13.4482 20.3359C13.5068 20.2773 13.6123 20.2773 13.6709 20.3359L18.2412 24.8477C19.3076 25.8672 19.6357 26.1953 20.21 26.1953C20.9951 26.1953 21.4521 25.6797 21.4521 24.7656V4.42188C21.4521 2.19531 20.3389 1.05859 18.1357 1.05859H8.97168C6.78027 1.05859 5.65527 2.19531 5.65527 4.42188V24.7656C5.65527 25.6797 6.1123 26.1953 6.89746 26.1953Z" fill="black" fill-opacity="0.85"/>
<path d="M22.3779 25.6094C23.2803 26.5117 24.7334 26.5 25.6123 25.5859C26.4678 24.707 26.4678 23.2773 25.6006 22.3984L4.88184 1.66797C3.99121 0.777344 2.53809 0.777344 1.65918 1.66797C0.780273 2.54688 0.780273 4.01172 1.65918 4.87891L22.3779 25.6094Z" fill="white"/>
<path d="M23.3506 24.6484C23.7021 25 24.2881 25 24.6279 24.6484C24.9795 24.2852 24.9795 23.7227 24.6279 23.3711L3.90918 2.64064C3.55762 2.28908 2.9834 2.27736 2.62012 2.64064C2.28027 2.98049 2.28027 3.57814 2.62012 3.91799L23.3506 24.6484Z" fill="black" fill-opacity="0.85"/>
</g>
<defs>
<clipPath id="clip0_2124_88501">
<rect width="25.2524" height="25.3008" fill="white" transform="translate(1 1)"/>
</clipPath>
</defs>
</svg>
