<svg width="28" height="28" viewBox="0 0 28 28" fill="none" xmlns="http://www.w3.org/2000/svg">
<g clip-path="url(#clip0_2124_88789)">
<path d="M5.53759 25.2656H23.7134C25.6939 25.2656 26.9009 23.8828 26.9009 22.0898C26.9009 21.5391 26.7485 20.9648 26.4439 20.4492L17.3501 4.60547C16.7524 3.53906 15.6978 3 14.6196 3C13.5532 3 12.4985 3.53906 11.8892 4.60547L2.79541 20.4492C2.49072 20.9766 2.33838 21.5391 2.33838 22.0898C2.33838 23.8828 3.54541 25.2656 5.53759 25.2656ZM5.54931 23.4258C4.74072 23.4258 4.23681 22.793 4.23681 22.0781C4.23681 21.8555 4.28369 21.5742 4.41259 21.3281L13.4946 5.49609C13.7407 5.0625 14.186 4.875 14.6196 4.875C15.0532 4.875 15.4868 5.0625 15.7329 5.49609L24.8149 21.3398C24.9439 21.5859 25.0142 21.8555 25.0142 22.0781C25.0142 22.793 24.4985 23.4258 23.6782 23.4258H5.54931Z" fill="black" fill-opacity="0.85"/>
<path d="M15.557 18.7969V8.87109C15.557 8.28516 15.2055 7.91016 14.6195 7.91016C14.0453 7.91016 13.6938 8.28516 13.6938 8.87109V18.7969H15.557Z" fill="black" fill-opacity="0.85"/>
<path d="M14.022 21.6798L17.5962 18.0704L6.35792 6.84385C5.3501 5.83604 3.83839 5.8126 2.7837 6.82041C1.72901 7.86338 1.75245 9.42198 2.77198 10.4415L14.022 21.6798Z" fill="white"/>
<path d="M4.40088 19.793L24.8618 19.7695L23.7485 17.9766H5.51416L4.40088 19.793Z" fill="black" fill-opacity="0.85"/>
<path d="M14.0221 19.4062L15.3463 18.0703L5.23298 7.96877C4.83454 7.58205 4.31891 7.57033 3.90876 7.96877C3.48688 8.37893 3.51032 8.91799 3.90876 9.31643L14.0221 19.4062Z" fill="black" fill-opacity="0.85"/>
</g>
<defs>
<clipPath id="clip0_2124_88789">
<rect width="24.9009" height="22.3945" fill="white" transform="translate(2 3)"/>
</clipPath>
</defs>
</svg>
