<svg width="28" height="29" viewBox="0 0 28 29" fill="none" xmlns="http://www.w3.org/2000/svg">
<g clip-path="url(#clip0_2124_45770)">
<path d="M13.9531 25.9328C20.4922 25.9328 25.9062 20.5071 25.9062 13.9797C25.9062 7.44067 20.4805 2.02661 13.9414 2.02661C7.41406 2.02661 2 7.44067 2 13.9797C2 20.5071 7.42578 25.9328 13.9531 25.9328ZM13.9531 23.9407C8.42188 23.9407 4.00391 19.511 4.00391 13.9797C4.00391 8.44849 8.41016 4.0188 13.9414 4.0188C19.4727 4.0188 23.9141 8.44849 23.9141 13.9797C23.9141 19.511 19.4844 23.9407 13.9531 23.9407Z" fill="black" fill-opacity="0.85"/>
<path d="M7.25 18.6438H13.625C14.3398 18.6438 14.6211 18.3625 14.6211 17.8469C14.6211 15.9016 12.5938 14.3782 10.4375 14.3782C8.28125 14.3782 6.25391 15.9016 6.25391 17.8469C6.25391 18.3625 6.53516 18.6438 7.25 18.6438ZM10.4375 13.4993C11.5039 13.4993 12.418 12.5383 12.418 11.2961C12.418 10.0774 11.5039 9.16333 10.4375 9.16333C9.38281 9.16333 8.44531 10.1008 8.44531 11.3079C8.44531 12.5383 9.37109 13.4993 10.4375 13.4993Z" fill="black" fill-opacity="0.85"/>
<path d="M13.4258 19.4758H20.5859C22.1211 19.4758 22.6367 18.7141 22.6367 17.8821C22.6367 15.9602 20.4336 13.5578 17.0117 13.5578C13.5898 13.5578 11.3633 15.9485 11.3633 17.8821C11.3633 18.5266 11.6914 19.4758 13.4258 19.4758Z" fill="white"/>
<path d="M13.4258 18.6438H20.5859C21.4883 18.6438 21.8047 18.386 21.8047 17.8821C21.8047 16.4172 19.9648 14.3899 17.0117 14.3899C14.0469 14.3899 12.1953 16.4172 12.1953 17.8821C12.1953 18.386 12.5234 18.6438 13.4258 18.6438ZM17.0117 13.3821C18.2422 13.3821 19.2852 12.2688 19.2852 10.8391C19.2852 9.43286 18.2305 8.40161 17.0117 8.40161C15.7812 8.40161 14.7266 9.46802 14.7266 10.8508C14.7266 12.2688 15.7812 13.3821 17.0117 13.3821Z" fill="black" fill-opacity="0.85"/>
</g>
<defs>
<clipPath id="clip0_2124_45770">
<rect width="23.9062" height="23.918" fill="white" transform="translate(2 2.02661)"/>
</clipPath>
</defs>
</svg>
