<svg width="28" height="29" viewBox="0 0 28 29" fill="none" xmlns="http://www.w3.org/2000/svg">
<path d="M11.8828 5.12109C13.2891 5.12109 14.4492 3.96094 14.4492 2.55469C14.4492 1.16016 13.2891 0 11.8828 0C10.4766 0 9.32812 1.16016 9.32812 2.55469C9.32812 3.96094 10.4766 5.12109 11.8828 5.12109ZM17.9766 23.7188C18.4688 23.4844 18.7852 22.9102 18.4688 22.1133L16.4062 16.9453C16.3477 16.7812 16.2305 16.6523 15.9727 16.4648L12.1992 13.6758L12.4805 9.51562C12.4922 9.28125 12.668 9.21094 12.8906 9.28125L15.3398 10.1133C15.5742 10.1836 15.8672 10.2188 16.125 10.1836L20.6719 9.67969C22.2891 9.49219 21.9961 7.13672 20.4023 7.3125L15.9961 7.81641L11.5078 6.32812C9.86719 5.77734 8.44922 6.70312 8.30859 8.34375L7.98047 12.4453C7.875 13.6758 8.51953 14.8711 9.57422 15.4805L14.3672 18.2578L16.2656 22.9922C16.5938 23.8242 17.4141 24 17.9766 23.7188ZM7.00781 25.8281C7.48828 26.0508 8.09766 25.9805 8.51953 25.3594L11.625 20.7305C11.7188 20.5781 11.8008 20.3672 11.8125 20.1094L11.9414 18.0234L9.28125 16.4766L9.43359 19.7461L6.57422 24.0352C6.07031 24.8086 6.43359 25.5586 7.00781 25.8281ZM16.0898 27.4219L20.6836 25.8984C21.0234 25.7812 21.1992 25.5469 21.1992 25.1484V10.7227C21.0586 10.7578 20.9062 10.793 20.7422 10.8164L19.8984 10.9102V24.7852L15.7031 26.1797C15.2461 26.3438 15.1289 26.7422 15.2578 27.0586C15.3516 27.3398 15.668 27.5625 16.0898 27.4219ZM6.64453 28.4883H11.4492C11.8125 28.4883 12.1172 28.1836 12.1172 27.832C12.1172 27.4688 11.8125 27.1875 11.4492 27.1875H6.64453C6.28125 27.1875 6 27.4688 6 27.832C6 28.1836 6.28125 28.4883 6.64453 28.4883Z" fill="black" fill-opacity="0.85"/>
</svg>
