<svg width="28" height="28" viewBox="0 0 28 28" fill="none" xmlns="http://www.w3.org/2000/svg">
<g clip-path="url(#clip0_2124_62618)">
<path d="M7 23.2891C7 23.8984 7.46875 24.3672 8.07812 24.3672C8.37109 24.3672 8.62891 24.2617 8.83984 24.0391L18.1211 14.9688C18.3438 14.7461 18.4609 14.4883 18.4609 14.1836C18.4609 13.8789 18.3438 13.6094 18.1328 13.3984L8.83984 4.31641C8.61719 4.11719 8.37109 4 8.06641 4C7.46875 4 7 4.45703 7 5.07812C7 5.37109 7.10547 5.64062 7.31641 5.83984L16.5859 14.8984V13.457L7.31641 22.5273C7.10547 22.7383 7 22.9961 7 23.2891ZM18.4375 23.3477C18.4375 23.9453 18.8711 24.3672 19.4805 24.3672C20.0898 24.3672 20.5352 23.9453 20.5352 23.3477V5.04297C20.5352 4.43359 20.0898 4 19.4805 4C18.8711 4 18.4375 4.43359 18.4375 5.04297V23.3477Z" fill="black" fill-opacity="0.85"/>
</g>
<defs>
<clipPath id="clip0_2124_62618">
<rect width="13.5352" height="20.3789" fill="white" transform="translate(7 4)"/>
</clipPath>
</defs>
</svg>
