<svg width="28" height="28" viewBox="0 0 28 28" fill="none" xmlns="http://www.w3.org/2000/svg">
<path d="M6.67969 24.5977H20.8945C23.3555 24.5977 24.5742 23.3789 24.5742 20.9648V6.65625C24.5742 4.24219 23.3555 3.02344 20.8945 3.02344H6.67969C4.23047 3.02344 3 4.23047 3 6.65625V20.9648C3 23.3906 4.23047 24.5977 6.67969 24.5977Z" fill="black" fill-opacity="0.85"/>
<path d="M17.5781 10.793C18.1055 10.793 18.4688 11.1914 18.4688 11.7656V17.4609C18.4688 18.1758 18.0703 18.457 17.4492 18.457H11.7305C11.1562 18.457 10.793 18.1055 10.793 17.5664C10.793 17.0391 11.168 16.6875 11.7539 16.6875H13.9336L15.7266 16.875L13.8398 15.1055L9.39844 10.6875C9.22266 10.5117 9.11719 10.2656 9.11719 10.0312C9.11719 9.48047 9.46875 9.12891 9.99609 9.12891C10.2891 9.12891 10.5234 9.23438 10.6992 9.41016L15.1172 13.8398L16.8633 15.7031L16.6875 13.8164V11.7422C16.6875 11.1562 17.0391 10.793 17.5781 10.793Z" fill="white"/>
</svg>
