<svg width="28" height="28" viewBox="0 0 28 28" fill="none" xmlns="http://www.w3.org/2000/svg">
<g clip-path="url(#clip0_2124_88849)">
<path d="M13.9531 25.9062C20.4922 25.9062 25.9062 20.4805 25.9062 13.9531C25.9062 7.41406 20.4805 2 13.9414 2C7.41406 2 2 7.41406 2 13.9531C2 20.4805 7.42578 25.9062 13.9531 25.9062ZM13.9531 23.9141C8.42188 23.9141 4.00391 19.4844 4.00391 13.9531C4.00391 8.42188 8.41016 3.99219 13.9414 3.99219C19.4727 3.99219 23.9141 8.42188 23.9141 13.9531C23.9141 19.4844 19.4844 23.9141 13.9531 23.9141Z" fill="black" fill-opacity="0.85"/>
<path d="M9.125 19.1562H18.7812C20.0117 19.1562 20.6328 18.5586 20.6328 17.3398V11.4922C20.6328 10.2617 20.0117 9.66406 18.7812 9.66406H9.125C7.89453 9.66406 7.28516 10.2617 7.28516 11.4922V17.3398C7.28516 18.5586 7.89453 19.1562 9.125 19.1562ZM13.0156 15.207C12.6055 15.207 12.3594 14.9727 12.3594 14.5391V14.0586C10.6836 13.9414 9.03125 13.6367 7.28516 13.0039V11.9609C9.48828 12.875 11.6211 13.1797 13.9531 13.1797C16.2852 13.1797 18.418 12.875 20.6328 11.9609V13.0039C18.875 13.6367 17.2227 13.9414 15.5469 14.0586V14.5391C15.5469 14.9727 15.3008 15.207 14.8906 15.207H13.0156ZM10.3789 10.1914H11.5039V9.125C11.5039 8.82031 11.7031 8.63281 12.0312 8.63281H15.8984C16.2148 8.63281 16.4141 8.82031 16.4141 9.125V10.1914H17.5273V9.06641C17.5273 8.14062 16.918 7.57812 15.957 7.57812H11.9492C10.9883 7.57812 10.3789 8.14062 10.3789 9.06641V10.1914Z" fill="black" fill-opacity="0.85"/>
</g>
<defs>
<clipPath id="clip0_2124_88849">
<rect width="23.9062" height="23.918" fill="white" transform="translate(2 2)"/>
</clipPath>
</defs>
</svg>
