<svg width="28" height="28" viewBox="0 0 28 28" fill="none" xmlns="http://www.w3.org/2000/svg">
<path d="M6.67969 24.5977H20.8945C23.3555 24.5977 24.5742 23.3789 24.5742 20.9648V6.65625C24.5742 4.24219 23.3555 3.02344 20.8945 3.02344H6.67969C4.23047 3.02344 3 4.23047 3 6.65625V20.9648C3 23.3906 4.23047 24.5977 6.67969 24.5977ZM6.70312 22.7109C5.53125 22.7109 4.88672 22.0898 4.88672 20.8711V6.75C4.88672 5.53125 5.53125 4.91016 6.70312 4.91016H20.8711C22.0312 4.91016 22.6875 5.53125 22.6875 6.75V20.8711C22.6875 22.0898 22.0312 22.7109 20.8711 22.7109H6.70312Z" fill="black" fill-opacity="0.85"/>
<path d="M13.9688 20.8008C14.2969 20.8008 14.543 20.5664 14.543 20.2148V19.4297C16.9688 19.2305 18.293 17.5195 18.293 14.8594V14.2734C18.293 13.7695 17.9883 13.4766 17.5195 13.4766H14.543V9.65625C15.5742 9.82031 16.3945 10.5234 16.6523 11.4492C16.8047 11.9062 17.0039 12.0703 17.4141 12.0703C17.8477 12.0703 18.1289 11.7773 18.1289 11.3555C18.1289 11.1445 18.082 10.9687 18.0234 10.7812C17.5195 9.375 16.1953 8.39062 14.543 8.21484V7.45312C14.543 7.10156 14.2969 6.87891 13.9688 6.87891C13.6406 6.87891 13.3828 7.10156 13.3828 7.45312V8.23828C10.8984 8.54297 9.29297 10.6523 9.29297 13.8047C9.29297 17.0273 10.875 19.1133 13.3828 19.418V20.2148C13.3828 20.5664 13.6406 20.8008 13.9688 20.8008ZM13.3828 17.9648C11.8242 17.6367 10.8633 16.0898 10.8633 13.8047C10.8633 11.5547 11.8359 10.0078 13.3828 9.67969V17.9648ZM14.543 18.0117V14.8594H16.7812V15.1172C16.7812 16.6992 15.9492 17.8008 14.543 18.0117Z" fill="black" fill-opacity="0.85"/>
</svg>
