<svg width="28" height="28" viewBox="0 0 28 28" fill="none" xmlns="http://www.w3.org/2000/svg">
<path d="M6.67969 24.5977H20.8945C23.3555 24.5977 24.5742 23.3789 24.5742 20.9648V6.65625C24.5742 4.24219 23.3555 3.02344 20.8945 3.02344H6.67969C4.23047 3.02344 3 4.23047 3 6.65625V20.9648C3 23.3906 4.23047 24.5977 6.67969 24.5977ZM6.70312 22.7109C5.53125 22.7109 4.88672 22.0898 4.88672 20.8711V6.75C4.88672 5.53125 5.53125 4.91016 6.70312 4.91016H20.8711C22.0312 4.91016 22.6875 5.53125 22.6875 6.75V20.8711C22.6875 22.0898 22.0312 22.7109 20.8711 22.7109H6.70312Z" fill="black" fill-opacity="0.85"/>
<path d="M10.9102 18.7734C13.2422 18.7734 13.9453 16.1484 13.9453 13.793C13.9453 11.4375 13.2422 8.8125 10.9102 8.8125C8.57812 8.8125 7.875 11.4375 7.875 13.793C7.875 16.1484 8.57812 18.7734 10.9102 18.7734ZM10.9102 17.3789C9.94922 17.3789 9.58594 15.8203 9.58594 13.793C9.58594 11.7539 9.94922 10.1953 10.9102 10.1953C11.8711 10.1953 12.2344 11.7539 12.2344 13.793C12.2344 15.8203 11.8711 17.3789 10.9102 17.3789ZM17.9531 18.6562C18.4102 18.6562 18.7969 18.2695 18.7969 17.8008V9.85547C18.7969 9.25781 18.4219 8.90625 17.8125 8.90625C17.3203 8.90625 16.9219 9.17578 16.6523 9.38672L15.3633 10.3828C15.1523 10.5469 14.9883 10.7695 14.9883 11.0742C14.9883 11.4375 15.2344 11.6953 15.5977 11.6953C15.7734 11.6953 15.8906 11.6367 16.0078 11.5547L17.0859 10.6875V17.8008C17.0859 18.2695 17.4727 18.6562 17.9531 18.6562Z" fill="black" fill-opacity="0.85"/>
</svg>
