<svg width="28" height="28" viewBox="0 0 28 28" fill="none" xmlns="http://www.w3.org/2000/svg">
<path d="M6.67969 24.5977H20.8945C23.3555 24.5977 24.5742 23.3789 24.5742 20.9648V6.65625C24.5742 4.24219 23.3555 3.02344 20.8945 3.02344H6.67969C4.23047 3.02344 3 4.23047 3 6.65625V20.9648C3 23.3906 4.23047 24.5977 6.67969 24.5977Z" fill="black" fill-opacity="0.85"/>
<path d="M10.5352 18.8906C9.24609 18.8906 8.00391 18.2695 7.66406 17.1445C7.59375 16.9453 7.57031 16.7344 7.57031 16.5117C7.57031 16.043 7.88672 15.75 8.35547 15.75C8.75391 15.75 9.01172 15.9492 9.12891 16.3477C9.26953 16.8984 9.66797 17.4844 10.5469 17.4844C11.4375 17.4844 11.8828 16.7695 11.8828 15.9375C11.8828 14.8945 11.3203 14.332 10.2891 14.332H9.99609C9.59766 14.332 9.31641 14.0977 9.31641 13.6992C9.31641 13.3008 9.58594 13.043 9.99609 13.043H10.2773C11.1797 13.043 11.6719 12.3984 11.6719 11.5195C11.6719 10.7227 11.2969 10.1133 10.5 10.1133C9.80859 10.1133 9.44531 10.5586 9.24609 11.2734C9.12891 11.6953 8.88281 11.8477 8.47266 11.8477C7.99219 11.8477 7.72266 11.5313 7.72266 11.1328C7.72266 10.9219 7.75781 10.7109 7.81641 10.4766C8.16797 9.41016 9.24609 8.70703 10.5 8.70703C12.0703 8.70703 13.3242 9.65625 13.3242 11.332C13.3242 12.3398 12.7852 13.3242 11.6953 13.6172V13.6523C12.7148 13.7578 13.6055 14.4961 13.6055 15.9961C13.6055 17.8008 12.2813 18.8906 10.5352 18.8906ZM16.4531 18.8438C15.8672 18.8438 15.6562 18.4453 15.6562 18.0938C15.6562 17.8008 15.7031 17.6484 15.7969 17.3789L18.4805 10.4531V10.3477H15.375C14.9648 10.3477 14.6719 10.043 14.6719 9.62109C14.6719 9.21094 14.9648 8.90625 15.375 8.90625H19.2773C19.8164 8.90625 20.25 9.28125 20.25 9.84375C20.25 10.1953 20.1562 10.4883 20.0156 10.8633L17.2617 18.2227C17.0977 18.668 16.8984 18.8438 16.4531 18.8438Z" fill="white"/>
</svg>
