<svg width="28" height="28" viewBox="0 0 28 28" fill="none" xmlns="http://www.w3.org/2000/svg">
<path d="M13.9531 25.9062C20.4922 25.9062 25.9062 20.4805 25.9062 13.9531C25.9062 7.41406 20.4805 2 13.9414 2C7.41406 2 2 7.41406 2 13.9531C2 20.4805 7.42578 25.9062 13.9531 25.9062ZM13.9531 23.9141C8.42188 23.9141 4.00391 19.4844 4.00391 13.9531C4.00391 8.42188 8.41016 3.99219 13.9414 3.99219C19.4727 3.99219 23.9141 8.42188 23.9141 13.9531C23.9141 19.4844 19.4844 23.9141 13.9531 23.9141Z" fill="black" fill-opacity="0.85"/>
<path d="M13.9297 19.3203C14.5391 19.3203 14.8789 18.9102 14.8789 18.2656V9.41797C14.8789 8.77344 14.5391 8.36328 13.9297 8.36328C13.3203 8.36328 13.0039 8.79688 13.0039 9.41797V18.2656C13.0039 18.8867 13.3203 19.3203 13.9297 19.3203Z" fill="black" fill-opacity="0.85"/>
</svg>
