<svg width="28" height="28" viewBox="0 0 28 28" fill="none" xmlns="http://www.w3.org/2000/svg">
<path d="M22.8718 5.272L20.7976 3.19778C20.5281 2.92825 20.1296 2.93997 19.8718 3.19778C19.614 3.45559 19.6023 3.85403 19.8718 4.11184L21.946 6.19778C22.2156 6.45559 22.614 6.44387 22.8718 6.19778C23.1296 5.92825 23.1413 5.52981 22.8718 5.272ZM8.19993 16.9322L9.12571 17.8579L21.9226 5.07278L20.9968 4.147L8.19993 16.9322ZM2.90306 23.1665C3.87571 24.1275 5.00071 24.3501 5.65696 23.6704L10.0984 19.2056C10.8366 18.4907 11.1882 17.8111 11.3054 17.0845L11.657 14.9751L11.0827 14.4126L8.97337 14.7642C8.25852 14.8697 7.57884 15.2329 6.85227 15.9595L2.38743 20.4126C1.71946 21.0689 1.9304 22.1939 2.90306 23.1665ZM4.70774 5.272C4.44993 5.52981 4.46165 5.92825 4.70774 6.19778C4.97727 6.44387 5.37571 6.45559 5.63352 6.19778L7.70774 4.11184C7.97727 3.85403 7.96556 3.45559 7.70774 3.19778C7.44993 2.93997 7.05149 2.92825 6.78196 3.19778L4.70774 5.272ZM19.3796 16.9322L6.58274 4.147L5.65696 5.07278L18.4538 17.8579L19.3796 16.9322ZM24.6765 23.1665C25.6491 22.1939 25.8601 21.0689 25.1921 20.4126L20.7273 15.9595C20.0007 15.2329 19.3327 14.8697 18.6062 14.7642L16.4968 14.4126L15.9343 14.9751L16.2741 17.0845C16.3913 17.8111 16.7429 18.4907 17.4812 19.2056L21.9226 23.6704C22.5788 24.3501 23.7156 24.1275 24.6765 23.1665Z" fill="black" fill-opacity="0.85"/>
</svg>
