<svg width="28" height="28" viewBox="0 0 28 28" fill="none" xmlns="http://www.w3.org/2000/svg">
<path d="M6.67969 24.5977H20.8945C23.3555 24.5977 24.5742 23.3789 24.5742 20.9648V6.65625C24.5742 4.24219 23.3555 3.02344 20.8945 3.02344H6.67969C4.23047 3.02344 3 4.23047 3 6.65625V20.9648C3 23.3906 4.23047 24.5977 6.67969 24.5977ZM6.70312 22.7109C5.53125 22.7109 4.88672 22.0898 4.88672 20.8711V6.75C4.88672 5.53125 5.53125 4.91016 6.70312 4.91016H20.8711C22.0312 4.91016 22.6875 5.53125 22.6875 6.75V20.8711C22.6875 22.0898 22.0312 22.7109 20.8711 22.7109H6.70312Z" fill="black" fill-opacity="0.85"/>
<path d="M8.63672 19.0898C9.08203 19.0898 9.39844 18.7734 9.39844 18.3164V14.543H10.3242C10.4063 14.543 10.4766 14.543 10.5703 14.543L12.1289 18.5977C12.2578 18.9492 12.5391 19.0898 12.8438 19.0898C13.3359 19.0898 13.8398 18.7031 13.5703 18.0352L12.0469 14.25C13.043 13.8633 13.5586 12.6211 13.5586 11.3906C13.5586 9.51562 12.6328 8.4375 10.6523 8.4375H8.75391C8.17969 8.4375 7.86328 8.87109 7.86328 9.50391V18.3164C7.86328 18.7734 8.17969 19.0898 8.63672 19.0898ZM9.39844 13.3477V9.67969H10.4883C11.5195 9.67969 12 10.3477 12 11.4492C12 12.5625 11.543 13.3477 10.5 13.3477H9.39844ZM17.4141 18.6094C19.1016 18.6094 20.2617 17.6367 20.2617 16.0312C20.2617 14.8945 19.6523 14.0859 18.2695 13.3594L17.2266 12.8086C16.6172 12.4922 15.9844 12.0938 15.9844 11.3203C15.9844 10.5938 16.5234 10.125 17.332 10.125C18.2227 10.125 18.668 10.6875 18.7266 11.4844C18.7617 11.8594 19.0547 12.082 19.3711 12.082C19.7812 12.082 20.168 11.7773 20.0742 11.1328C19.9102 9.85547 18.9375 8.88281 17.332 8.88281C15.7266 8.88281 14.543 9.86719 14.543 11.3789C14.543 12.6563 15.2695 13.4766 16.5117 14.0859L17.5195 14.5898C18.1875 14.918 18.832 15.4336 18.832 16.1367C18.832 16.875 18.3164 17.3672 17.4141 17.3672C16.3945 17.3672 15.9492 16.8516 15.8672 15.9961C15.8203 15.5977 15.5508 15.3984 15.2344 15.3984C14.8359 15.3984 14.4492 15.7383 14.543 16.3477C14.7305 17.6953 15.7617 18.6094 17.4141 18.6094ZM17.4023 19.8633C17.6602 19.8633 17.8828 19.6406 17.8828 19.3828V8.14453C17.8828 7.875 17.6602 7.65234 17.4023 7.65234C17.1445 7.65234 16.9102 7.875 16.9102 8.14453V19.3828C16.9102 19.6406 17.1445 19.8633 17.4023 19.8633Z" fill="black" fill-opacity="0.85"/>
</svg>
