<svg width="29" height="28" viewBox="0 0 29 28" fill="none" xmlns="http://www.w3.org/2000/svg">
<path d="M28.9211 14.4883C28.9211 10.3281 25.593 7 21.4563 7C18.3157 7 15.5618 8.875 14.4485 11.8047H2.88208C2.5774 11.8047 2.36646 11.8984 2.13208 12.1211L0.163333 14.0781C-0.0241666 14.2656 -0.0827603 14.6641 0.163333 14.9102L3.87818 18.625C4.13599 18.8711 4.47583 18.8594 4.72193 18.625L6.99536 16.3281L10.1477 19.4805C10.3821 19.7148 10.7219 19.7148 10.9797 19.457L14.1321 16.3281C15.5735 19.9492 18.2454 21.9648 21.4563 21.9648C25.5813 21.9648 28.9211 18.6367 28.9211 14.4883ZM22.0422 14.4883C22.0422 13.3984 22.9211 12.5312 24.011 12.5312C25.1008 12.5312 25.968 13.3867 25.968 14.4883C25.968 15.5781 25.1008 16.457 24.011 16.457C22.9211 16.457 22.0422 15.5781 22.0422 14.4883Z" fill="black" fill-opacity="0.85"/>
</svg>
