<svg width="32" height="28" viewBox="0 0 32 28" fill="none" xmlns="http://www.w3.org/2000/svg">
<g clip-path="url(#clip0_2124_24689)">
<path d="M3.67969 25.2031H23.9648C26.4141 25.2031 27.6445 23.9844 27.6445 21.5703V7.26172C27.6445 4.84766 26.4141 3.62891 23.9648 3.62891H3.67969C1.24219 3.62891 0 4.83594 0 7.26172V21.5703C0 23.9961 1.24219 25.2031 3.67969 25.2031ZM3.71484 23.3164C2.54297 23.3164 1.88672 22.6953 1.88672 21.4766V7.35547C1.88672 6.13672 2.54297 5.51562 3.71484 5.51562H23.9297C25.0898 5.51562 25.7578 6.13672 25.7578 7.35547V21.4766C25.7578 22.6953 25.0898 23.3164 23.9297 23.3164H3.71484ZM9.29297 22.4141H18.3516C18.668 22.4141 18.8906 22.2031 18.8906 21.875C18.8906 21.5469 18.668 21.3242 18.3516 21.3242H9.29297C8.97656 21.3242 8.74219 21.5469 8.74219 21.875C8.74219 22.2031 8.97656 22.4141 9.29297 22.4141Z" fill="black" fill-opacity="0.85"/>
<path d="M22.2422 26.8086H27.5742C29.9062 26.8086 31.4648 25.2852 31.4648 23.0117V11.3398C31.4648 9.06641 29.9062 7.54297 27.5742 7.54297H22.2422C19.8984 7.54297 18.3516 9.06641 18.3516 11.3398V23.0117C18.3516 25.2852 19.8984 26.8086 22.2422 26.8086Z" fill="white"/>
<path d="M22.2422 25.2031H27.5742C29.0273 25.2031 29.8594 24.4062 29.8594 23.0117V11.3398C29.8594 9.94531 29.0273 9.13672 27.5742 9.13672H22.2422C20.7891 9.13672 19.9453 9.94531 19.9453 11.3398V23.0117C19.9453 24.4062 20.7891 25.2031 22.2422 25.2031ZM22.2656 23.668C21.75 23.668 21.4805 23.3984 21.4805 22.8594V11.4922C21.4805 10.9531 21.75 10.6719 22.2656 10.6719H27.5508C28.0664 10.6719 28.3242 10.9531 28.3242 11.4922V22.8594C28.3242 23.3984 28.0664 23.668 27.5508 23.668H22.2656ZM23.3086 23.0703H26.4844C26.7188 23.0703 26.9062 22.9062 26.9062 22.6602C26.9062 22.4375 26.7188 22.2617 26.4844 22.2617H23.3086C23.0742 22.2617 22.9102 22.4375 22.9102 22.6602C22.9102 22.918 23.0508 23.0703 23.3086 23.0703ZM23.9648 12.3477H25.8047C26.1094 12.3477 26.3555 12.1133 26.3555 11.7969C26.3555 11.5039 26.1094 11.2695 25.8047 11.2695H23.9648C23.6602 11.2695 23.4258 11.5039 23.4258 11.7969C23.4258 12.1133 23.6602 12.3477 23.9648 12.3477Z" fill="black" fill-opacity="0.85"/>
</g>
<defs>
<clipPath id="clip0_2124_24689">
<rect width="31.4648" height="24.8086" fill="white" transform="translate(0 2)"/>
</clipPath>
</defs>
</svg>
