<svg width="34" height="28" viewBox="0 0 34 28" fill="none" xmlns="http://www.w3.org/2000/svg">
<g clip-path="url(#clip0_2124_24883)">
<path d="M4.86 24.082H28.3327C31.778 24.082 33.5709 21.8672 33.1256 18.1875L31.86 7.62891C31.5084 4.64062 29.7858 3 27.0553 3H6.13735C3.40688 3 1.68422 4.64062 1.33266 7.62891L0.0670356 18.1875C-0.378277 21.8672 1.41469 24.082 4.86 24.082ZM8.64516 16.957C8.18813 16.957 7.82485 16.7461 7.82485 16.4414V13.0664C6.5475 12.6914 5.59829 11.5195 5.59829 10.125C5.59829 8.46094 6.95766 7.08984 8.64516 7.08984C10.3092 7.08984 11.6803 8.44922 11.6803 10.125C11.6803 11.5078 10.7311 12.6914 9.46547 13.0312V16.4414C9.46547 16.7461 9.09047 16.957 8.64516 16.957ZM8.64516 19.5234C6.18422 19.5234 4.44985 18.2109 4.44985 16.3477C4.44985 15.0352 5.2936 14.0039 6.65297 13.5V15.082C6.19594 15.3867 5.92641 15.8203 5.92641 16.3477C5.92641 17.4492 7.03969 18.2227 8.64516 18.2227C10.2389 18.2227 11.3405 17.4492 11.3405 16.3477C11.3405 15.832 11.0827 15.3984 10.6373 15.0938V13.5C11.9733 14.0156 12.817 15.0352 12.817 16.3477C12.817 18.2109 11.0944 19.5234 8.64516 19.5234ZM15.6998 12.7852C14.7272 12.7852 13.942 12 13.942 11.0273C13.942 10.043 14.7272 9.25781 15.6998 9.25781C16.6842 9.25781 17.4694 10.043 17.4694 11.0273C17.4694 12 16.6842 12.7852 15.6998 12.7852ZM20.8092 12.7852C19.8366 12.7852 19.0514 12 19.0514 11.0273C19.0514 10.043 19.8366 9.25781 20.8092 9.25781C21.7819 9.25781 22.5788 10.043 22.5788 11.0273C22.5788 12 21.7819 12.7852 20.8092 12.7852ZM25.9069 12.7852C24.9342 12.7852 24.1373 12 24.1373 11.0273C24.1373 10.043 24.9342 9.25781 25.9069 9.25781C26.8678 9.25781 27.6647 10.043 27.6647 11.0273C27.6647 12 26.8678 12.7852 25.9069 12.7852ZM17.4108 17.8711C16.4264 17.8711 15.6413 17.0859 15.6413 16.1133C15.6413 15.1406 16.4264 14.3438 17.4108 14.3438C18.3717 14.3438 19.1569 15.1406 19.1569 16.1133C19.1569 17.0859 18.3717 17.8711 17.4108 17.8711ZM22.5084 17.8711C21.5358 17.8711 20.7506 17.0859 20.7506 16.1133C20.7506 15.1406 21.5358 14.3438 22.5084 14.3438C23.4811 14.3438 24.278 15.1406 24.278 16.1133C24.278 17.0859 23.4811 17.8711 22.5084 17.8711ZM27.6061 17.8711C26.6334 17.8711 25.8483 17.0859 25.8483 16.1133C25.8483 15.1406 26.6334 14.3438 27.6061 14.3438C28.5905 14.3438 29.3756 15.1406 29.3756 16.1133C29.3756 17.0859 28.5905 17.8711 27.6061 17.8711Z" fill="black" fill-opacity="0.85"/>
</g>
<defs>
<clipPath id="clip0_2124_24883">
<rect width="33.1927" height="21.082" fill="white" transform="translate(0 3)"/>
</clipPath>
</defs>
</svg>
