<svg width="31" height="29" viewBox="0 0 31 29" fill="none" xmlns="http://www.w3.org/2000/svg">
<g clip-path="url(#clip0_2124_45994)">
<path d="M0.825311 14.0212C5.02063 19.072 9.14563 22.0134 15.0284 22.0134C20.923 22.0134 25.048 19.072 29.2433 14.0212C30.6378 12.3337 30.2628 10.3533 28.0714 10.0955C24.6847 9.70874 23.5714 7.04858 19.9972 7.04858C17.1847 7.04858 15.5206 9.14624 15.0284 9.14624C14.548 9.14624 12.8839 7.04858 10.0714 7.04858C6.49719 7.04858 5.38391 9.70874 1.99719 10.0955C-0.194219 10.3533 -0.56922 12.3337 0.825311 14.0212ZM1.79797 12.8259C1.3761 12.3455 1.49328 11.8064 2.11438 11.7009L3.005 11.5251C6.55578 10.8572 7.91516 8.85327 10.1886 8.85327C11.3839 8.85327 12.2394 9.43921 13.048 10.0251C13.8214 10.5876 14.3605 10.9509 15.0284 10.9509C15.7081 10.9509 16.2355 10.5876 17.0206 10.0251C17.8292 9.43921 18.6847 8.85327 19.88 8.85327C22.1534 8.85327 23.5128 10.8572 27.0636 11.5251L27.9542 11.7009C28.5753 11.8064 28.6925 12.3455 28.2706 12.8259C24.9776 16.2712 20.9112 20.2087 15.0284 20.2087C9.15735 20.2087 5.09094 16.2712 1.79797 12.8259ZM15.0284 15.6267C16.6339 15.6267 16.9269 14.3025 19.3526 14.3025C21.8019 14.3142 24.8136 15.4041 28.6339 12.5681C29.2667 12.0994 28.8566 11.5251 28.3058 11.783C25.8917 13.0369 23.2901 13.0134 21.0167 12.7791C20.4073 12.697 19.8097 12.615 19.2355 12.615C17.4191 12.615 16.4464 13.2595 15.7901 13.6345C15.3566 13.8923 15.2159 13.9392 15.0284 13.9392C14.8526 13.9392 14.7003 13.8923 14.2667 13.6345C13.6222 13.2595 12.6495 12.615 10.8331 12.615C10.2589 12.615 9.67297 12.7087 9.08703 12.7673C6.80188 13.0134 4.1886 13.0251 1.76282 11.783C1.21203 11.5251 0.801875 12.0994 1.43469 12.5681C5.255 15.3923 8.26672 14.3142 10.7159 14.3025C13.1417 14.3025 13.4347 15.6267 15.0284 15.6267Z" fill="black" fill-opacity="0.85"/>
</g>
<defs>
<clipPath id="clip0_2124_45994">
<rect width="30.0608" height="14.9883" fill="white" transform="translate(0.00390625 7.02515)"/>
</clipPath>
</defs>
</svg>
