<svg width="28" height="28" viewBox="0 0 28 28" fill="none" xmlns="http://www.w3.org/2000/svg">
<g clip-path="url(#clip0_2124_67800)">
<path d="M15.4766 27.9141C19.8008 27.9141 22.4609 26.3789 22.4609 23.7305V18.0117C24.3008 16.4062 25.3672 13.8281 25.3672 11.0039C25.3672 4.40625 21.0547 0 14.6445 0C8.25781 0 3.98047 4.30078 3.98047 10.7578C3.98047 11.1211 3.99219 11.4258 4.02734 11.7305L2.59766 14.3086C2.1875 15.0117 2 15.7031 2 16.3359C2 17.543 2.73828 18.5391 3.99219 18.8672V21.1172C3.99219 23.2266 5.49219 24.2812 7.40234 24.0703L9.93359 23.8125L8.59766 22.3711V23.7305C8.59766 26.3672 11.2109 27.9141 15.4766 27.9141ZM15.4766 26.0273C12.3125 26.0273 10.3906 25.0195 10.3906 23.4023V22.0664C10.3906 21.9023 10.3086 21.8438 10.168 21.8555L7.15625 22.1953C6.33594 22.2773 5.87891 21.9141 5.87891 20.9766V17.4727C5.87891 17.3672 5.80859 17.2969 5.65625 17.2969H5.11719C4.35547 17.2969 3.91016 16.9102 3.91016 16.3125C3.91016 15.9961 4.01562 15.6211 4.22656 15.2461L5.97266 12.1055C5.90234 11.6484 5.86719 11.1914 5.86719 10.7227C5.86719 5.42578 9.37109 1.88672 14.6445 1.88672C19.9414 1.88672 23.4805 5.51953 23.4805 11.0039C23.4805 13.6289 22.3789 15.9258 20.5625 17.0859L20.5742 23.4023C20.5742 25.0195 18.6523 26.0273 15.4766 26.0273Z" fill="black" fill-opacity="0.85"/>
<path d="M10.7422 12.3516C12.125 12.3516 13.0977 11.4492 13.0977 10.1719C13.0977 9.72655 12.957 9.36328 12.7227 9.11719C12.5234 8.92969 12.4531 8.74219 12.4531 8.58984C12.4531 8.30859 12.6992 8.08594 13.0039 8.08594C13.1211 8.08594 13.2969 8.10938 13.4141 8.23828C13.4844 8.29688 13.5547 8.42578 13.5781 8.49609C14.4922 8.36719 14.9492 7.82811 14.9492 6.94922C14.9492 6.64453 15.1953 6.39843 15.4883 6.39843C15.7812 6.39843 16.0391 6.65625 16.0391 6.94922C16.0508 8.29688 15.3711 9.14061 14.0938 9.43359C14.1641 9.67969 14.1875 9.9375 14.1875 10.1953C14.1875 11.3438 13.6133 12.2578 12.6758 12.7734C13.2031 13.0664 13.8359 13.207 14.5156 13.207C14.8203 13.207 15.1367 13.1719 15.4531 13.1133C15.3945 12.9492 15.3711 12.7734 15.3711 12.5977C15.3711 9.62109 19.7773 9.09375 19.7773 6.41016C19.7773 5.08594 18.7461 4.05468 17.457 4.05468C16.9883 4.05468 16.8594 4.06641 16.7305 4.10156C16.25 3.55078 15.5469 3.23438 14.9023 3.23438C13.7656 3.23438 12.957 3.9375 12.9453 5.01562C12.9453 5.34375 12.7109 5.56641 12.3945 5.56641C12.0664 5.56641 11.832 5.30859 11.8555 4.98047C11.8555 4.5 11.9961 4.17187 12.125 3.86718C11.9258 3.83202 11.7383 3.80858 11.5508 3.80858C10.1445 3.80858 9.06641 4.68749 9.06641 5.81249C9.06641 6.53905 9.57031 7.08983 10.2383 7.08983C10.5547 7.08983 10.8125 7.33594 10.8125 7.62891C10.8125 7.93359 10.543 8.19141 10.2383 8.19141C9.28906 8.19141 8.53906 7.73438 8.19922 7.01952C7.8125 7.59374 7.60156 8.27344 7.60156 8.95312C7.60156 10.875 8.84375 12.3516 10.7422 12.3516ZM19.5078 15.5156C20.75 15.5156 21.6406 14.0859 21.6406 12.1055C21.6406 11.9531 21.6406 11.7773 21.6289 11.6016C21.1719 11.8125 20.6211 11.9062 20 11.8711C19.6953 11.8359 19.4727 11.6016 19.4727 11.3086C19.4727 11.0039 19.7305 10.7461 20.0234 10.7695C21.3008 10.8516 22.1328 10.1484 22.1328 9.01171C22.1328 7.96875 21.6172 7.08983 20.7734 6.60937C20.457 9.84374 16.332 10.2773 16.332 12.5742C16.332 13.2422 16.7891 13.7109 17.5625 13.7109H17.75C17.9492 14.7773 18.6406 15.5156 19.5078 15.5156Z" fill="black" fill-opacity="0.85"/>
</g>
<defs>
<clipPath id="clip0_2124_67800">
<rect width="23.3672" height="27.9961" fill="white" transform="translate(2)"/>
</clipPath>
</defs>
</svg>
