<svg width="28" height="28" viewBox="0 0 28 28" fill="none" xmlns="http://www.w3.org/2000/svg">
<path d="M13.9531 25.9062C20.4922 25.9062 25.9062 20.4805 25.9062 13.9531C25.9062 7.41406 20.4805 2 13.9414 2C7.41406 2 2 7.41406 2 13.9531C2 20.4805 7.42578 25.9062 13.9531 25.9062Z" fill="black" fill-opacity="0.85"/>
<path d="M13.9766 19.625C10.8242 19.625 8.83203 17.375 8.83203 13.8477C8.83203 10.3203 10.8359 8.05859 13.9766 8.05859C16.1094 8.05859 17.8086 9.07812 18.4062 10.6953C18.4883 10.918 18.5117 11.0586 18.5117 11.2578C18.5117 11.7734 18.1836 12.0898 17.668 12.0898C17.3047 12.0898 17.0703 11.9141 16.8711 11.5039C16.3672 10.3086 15.3594 9.66406 14 9.66406C12.0781 9.66406 10.7891 11.3516 10.7891 13.8477C10.7891 16.3438 12.0781 18.0195 14 18.0195C15.3594 18.0195 16.3672 17.375 16.8711 16.1914C17.0703 15.7812 17.3047 15.5938 17.668 15.5938C18.1836 15.5938 18.5117 15.9102 18.5117 16.4258C18.5117 16.6016 18.4883 16.7656 18.4062 16.9883C17.8203 18.6172 16.1094 19.625 13.9766 19.625Z" fill="white"/>
</svg>
