<svg width="28" height="28" viewBox="0 0 28 28" fill="none" xmlns="http://www.w3.org/2000/svg">
<path d="M6.67969 24.5977H20.8945C23.3555 24.5977 24.5742 23.3789 24.5742 20.9648V6.65625C24.5742 4.24219 23.3555 3.02344 20.8945 3.02344H6.67969C4.23047 3.02344 3 4.23047 3 6.65625V20.9648C3 23.3906 4.23047 24.5977 6.67969 24.5977Z" fill="black" fill-opacity="0.85"/>
<path d="M9.96094 18.9258C7.54688 18.9258 6.82031 16.2305 6.82031 13.793C6.82031 11.3555 7.54688 8.66016 9.96094 8.66016C12.3633 8.66016 13.0898 11.3555 13.0898 13.793C13.0898 16.2305 12.3633 18.9258 9.96094 18.9258ZM9.96094 17.4844C10.9453 17.4844 11.3203 15.8906 11.3203 13.793C11.3203 11.6836 10.9453 10.1016 9.96094 10.1016C8.97656 10.1016 8.60156 11.6836 8.60156 13.793C8.60156 15.8906 8.97656 17.4844 9.96094 17.4844ZM17.6133 18.8906C15.8438 18.8906 14.4844 17.8359 14.4844 16.043C14.4844 14.7305 15.2695 13.7812 16.3125 13.5469V13.5117C15.5391 13.2773 14.7539 12.5508 14.7539 11.3203C14.7539 9.62109 16.1133 8.70703 17.6133 8.70703C19.3242 8.70703 20.4844 9.76172 20.4844 11.332C20.4844 12.4805 19.7578 13.2656 18.9492 13.5117V13.5469C19.9102 13.7695 20.7539 14.7188 20.7539 16.043C20.7539 17.6953 19.5234 18.8906 17.6133 18.8906ZM17.6133 12.9609C18.375 12.9609 18.7734 12.293 18.7734 11.4961C18.7734 10.7227 18.3984 10.0078 17.6133 10.0078C16.8633 10.0078 16.4531 10.7227 16.4531 11.4961C16.4531 12.2109 16.8398 12.9609 17.6133 12.9609ZM17.6133 17.5781C18.4922 17.5781 18.9258 16.8047 18.9258 15.9023C18.9258 14.9883 18.4688 14.2734 17.6133 14.2734C16.7461 14.2734 16.3008 15.0352 16.3008 15.9023C16.3008 16.8047 16.7344 17.5781 17.6133 17.5781Z" fill="white"/>
</svg>
