<svg width="28" height="28" viewBox="0 0 28 28" fill="none" xmlns="http://www.w3.org/2000/svg">
<path d="M9.52734 20.9961H23.2031C23.6602 20.9961 24.0586 20.6211 24.0586 20.1172C24.0586 19.6133 23.6602 19.2383 23.2031 19.2383H9.72656C9.05859 19.2383 8.64844 18.7695 8.54297 18.0547L6.62109 5.01172C6.50391 4.10938 6.17578 3.65234 4.98047 3.65234H0.867188C0.398438 3.65234 0 4.0625 0 4.53125C0 5.01172 0.398438 5.42188 0.867188 5.42188H4.82812L6.70312 18.2891C6.94922 19.9531 7.82812 20.9961 9.52734 20.9961ZM7.37109 16.8242H23.2266C24.9375 16.8242 25.8164 15.7695 26.0625 14.0938L27 7.89453C27.0234 7.74219 27.0469 7.55469 27.0469 7.44922C27.0469 6.88672 26.625 6.5 25.9805 6.5H6.35156L6.36328 8.26953H25.0547L24.2227 13.8828C24.1289 14.6094 23.7422 15.0664 23.0508 15.0664H7.34766L7.37109 16.8242ZM10.4531 26.6914C11.5078 26.6914 12.3516 25.8594 12.3516 24.793C12.3516 23.7383 11.5078 22.8945 10.4531 22.8945C9.38672 22.8945 8.54297 23.7383 8.54297 24.793C8.54297 25.8594 9.38672 26.6914 10.4531 26.6914ZM21.4102 26.6914C22.4766 26.6914 23.3203 25.8594 23.3203 24.793C23.3203 23.7383 22.4766 22.8945 21.4102 22.8945C20.3555 22.8945 19.5 23.7383 19.5 24.793C19.5 25.8594 20.3555 26.6914 21.4102 26.6914Z" fill="black" fill-opacity="0.85"/>
</svg>
