<svg width="28" height="28" viewBox="0 0 28 28" fill="none" xmlns="http://www.w3.org/2000/svg">
<g clip-path="url(#clip0_2124_88461)">
<path d="M13.9531 25.9062C20.4922 25.9062 25.9062 20.4805 25.9062 13.9531C25.9062 7.41406 20.4805 2 13.9414 2C7.41406 2 2 7.41406 2 13.9531C2 20.4805 7.42578 25.9062 13.9531 25.9062ZM13.9531 23.9141C8.42188 23.9141 4.00391 19.4844 4.00391 13.9531C4.00391 8.42188 8.41016 3.99219 13.9414 3.99219C19.4727 3.99219 23.9141 8.42188 23.9141 13.9531C23.9141 19.4844 19.4844 23.9141 13.9531 23.9141Z" fill="black" fill-opacity="0.85"/>
<path d="M9.65234 19.7422H18.2305C19.543 19.7422 20.1992 19.0859 20.1992 17.7969V10.1094C20.1992 8.82031 19.543 8.16406 18.2305 8.16406H9.65234C8.33984 8.16406 7.68359 8.80859 7.68359 10.1094V17.7969C7.68359 19.0859 8.33984 19.7422 9.65234 19.7422ZM9.57031 18.6641C9.04297 18.6641 8.76172 18.4062 8.76172 17.8438V11.9141C8.76172 11.3398 9.06641 11.0469 9.62891 11.0469H18.2539C18.8047 11.0469 19.1211 11.3398 19.1211 11.9141V17.8438C19.1211 18.4062 18.8516 18.6641 18.3008 18.6641H9.57031ZM12.6758 13.3906H13.1094C13.3789 13.3906 13.4727 13.3203 13.4727 13.0508V12.6172C13.4727 12.3477 13.3789 12.2539 13.1094 12.2539H12.6758C12.4062 12.2539 12.3242 12.3477 12.3242 12.6172V13.0508C12.3242 13.3203 12.4062 13.3906 12.6758 13.3906ZM14.7734 13.3906H15.207C15.4766 13.3906 15.5586 13.3203 15.5586 13.0508V12.6172C15.5586 12.3477 15.4766 12.2539 15.207 12.2539H14.7734C14.5039 12.2539 14.4219 12.3477 14.4219 12.6172V13.0508C14.4219 13.3203 14.5039 13.3906 14.7734 13.3906ZM16.8594 13.3906H17.2812C17.5508 13.3906 17.6445 13.3203 17.6445 13.0508V12.6172C17.6445 12.3477 17.5508 12.2539 17.2812 12.2539H16.8594C16.5781 12.2539 16.4961 12.3477 16.4961 12.6172V13.0508C16.4961 13.3203 16.5781 13.3906 16.8594 13.3906ZM10.6016 15.4414H11.0352C11.3047 15.4414 11.3867 15.3711 11.3867 15.1016V14.668C11.3867 14.3984 11.3047 14.3047 11.0352 14.3047H10.6016C10.332 14.3047 10.2383 14.3984 10.2383 14.668V15.1016C10.2383 15.3711 10.332 15.4414 10.6016 15.4414ZM12.6758 15.4414H13.1094C13.3789 15.4414 13.4727 15.3711 13.4727 15.1016V14.668C13.4727 14.3984 13.3789 14.3047 13.1094 14.3047H12.6758C12.4062 14.3047 12.3242 14.3984 12.3242 14.668V15.1016C12.3242 15.3711 12.4062 15.4414 12.6758 15.4414ZM14.7734 15.4414H15.207C15.4766 15.4414 15.5586 15.3711 15.5586 15.1016V14.668C15.5586 14.3984 15.4766 14.3047 15.207 14.3047H14.7734C14.5039 14.3047 14.4219 14.3984 14.4219 14.668V15.1016C14.4219 15.3711 14.5039 15.4414 14.7734 15.4414ZM16.8594 15.4414H17.2812C17.5508 15.4414 17.6445 15.3711 17.6445 15.1016V14.668C17.6445 14.3984 17.5508 14.3047 17.2812 14.3047H16.8594C16.5781 14.3047 16.4961 14.3984 16.4961 14.668V15.1016C16.4961 15.3711 16.5781 15.4414 16.8594 15.4414ZM10.6016 17.5039H11.0352C11.3047 17.5039 11.3867 17.4219 11.3867 17.1523V16.707C11.3867 16.4492 11.3047 16.3672 11.0352 16.3672H10.6016C10.332 16.3672 10.2383 16.4492 10.2383 16.707V17.1523C10.2383 17.4219 10.332 17.5039 10.6016 17.5039ZM12.6758 17.5039H13.1094C13.3789 17.5039 13.4727 17.4219 13.4727 17.1523V16.707C13.4727 16.4492 13.3789 16.3672 13.1094 16.3672H12.6758C12.4062 16.3672 12.3242 16.4492 12.3242 16.707V17.1523C12.3242 17.4219 12.4062 17.5039 12.6758 17.5039ZM14.7734 17.5039H15.207C15.4766 17.5039 15.5586 17.4219 15.5586 17.1523V16.707C15.5586 16.4492 15.4766 16.3672 15.207 16.3672H14.7734C14.5039 16.3672 14.4219 16.4492 14.4219 16.707V17.1523C14.4219 17.4219 14.5039 17.5039 14.7734 17.5039Z" fill="black" fill-opacity="0.85"/>
</g>
<defs>
<clipPath id="clip0_2124_88461">
<rect width="23.9062" height="23.918" fill="white" transform="translate(2 2)"/>
</clipPath>
</defs>
</svg>
