<svg width="28" height="29" viewBox="0 0 28 29" fill="none" xmlns="http://www.w3.org/2000/svg">
<g clip-path="url(#clip0_2124_49990)">
<path d="M14.0586 28.7695C20.9258 28.7695 26.1289 27.3047 26.1289 24.7969C26.1289 23.2148 24.043 22.043 20.7148 21.3984L19.707 22.9805C22.6133 23.3906 24.3594 24.0938 24.3594 24.7969C24.3594 25.875 20.1992 27 14.0586 27C7.92969 27 3.76953 25.875 3.76953 24.7969C3.76953 24.0938 5.51562 23.3906 8.42188 22.9805L7.40234 21.3984C4.08594 22.043 2 23.2148 2 24.7969C2 27.3047 7.20312 28.7695 14.0586 28.7695ZM6.5 20.918L7.67188 23.6719C7.84766 24.0703 8.32812 24.1523 8.65625 23.6836L10.1094 21.5625C10.4023 21.1523 10.2852 20.6719 9.74609 20.5664L7.16797 20.1211C6.59375 20.0156 6.32422 20.4961 6.5 20.918ZM21.6289 20.918C21.8047 20.4961 21.5234 20.0156 20.9609 20.1211L18.3828 20.5664C17.8438 20.6719 17.7266 21.1523 18.0078 21.5625L19.4727 23.6836C19.8008 24.1523 20.2695 24.0703 20.4453 23.6719L21.6289 20.918Z" fill="black" fill-opacity="0.85"/>
<path d="M4.63672 12.5508C4.63672 15.4102 7.19141 18.375 9.67578 18.375C11.832 18.375 13.0742 16.5117 14.2461 13.2891C14.3984 13.2891 14.4922 13.2773 14.6094 13.2539V16.2539C14.6094 17.9883 15.4883 18.8906 17.1641 18.8906C20.0117 18.8906 22.9883 16.3359 22.9883 13.8633C22.9883 11.8125 21.3008 10.4531 17.9023 9.29297C17.9023 9.15234 17.8906 9.04688 17.8555 8.92969H20.8438C22.5664 8.92969 23.5039 8.03906 23.5039 6.375C23.5039 3.52734 20.9258 0.550781 18.4531 0.550781C16.3438 0.550781 15.0898 2.53125 13.8945 5.625C13.7422 5.625 13.6484 5.63672 13.543 5.66016V2.68359C13.543 0.949219 12.6523 0.0234375 10.9648 0.0234375C8.12891 0.046875 5.15234 2.58984 5.15234 5.0625C5.15234 7.21875 7.02734 8.46094 10.2031 9.63281C10.2031 9.77344 10.2148 9.87891 10.2383 9.98438H7.28516C5.55078 9.98438 4.63672 10.8867 4.63672 12.5508ZM14.0586 11.2969C13.0508 11.2969 12.2188 10.4883 12.2188 9.46875C12.2188 8.4375 13.0508 7.61719 14.0586 7.61719C15.0781 7.61719 15.9219 8.4375 15.9219 9.46875C15.9219 10.4883 15.0781 11.2969 14.0586 11.2969Z" fill="black" fill-opacity="0.85"/>
</g>
<defs>
<clipPath id="clip0_2124_49990">
<rect width="24.1289" height="28.7695" fill="white" transform="translate(2)"/>
</clipPath>
</defs>
</svg>
