<svg width="28" height="28" viewBox="0 0 28 28" fill="none" xmlns="http://www.w3.org/2000/svg">
<path d="M13.9531 25.9062C20.4922 25.9062 25.9062 20.4805 25.9062 13.9531C25.9062 7.41406 20.4805 2 13.9414 2C7.41406 2 2 7.41406 2 13.9531C2 20.4805 7.42578 25.9062 13.9531 25.9062Z" fill="black" fill-opacity="0.85"/>
<path d="M11.4336 18.9922C11.0586 18.9922 10.5898 18.7695 10.5898 18.125V16.9297H7.89453C7.30859 16.9297 6.89844 16.5312 6.89844 15.9453C6.89844 15.5703 6.96875 15.2539 7.17969 14.7852L9.33594 10.0977C9.67578 9.34766 10.0742 8.91406 10.918 8.91406C11.7148 8.91406 12.2656 9.38281 12.2656 10.2266V15.5234H12.6875C13.1797 15.5234 13.3789 15.8281 13.3789 16.2148C13.3789 16.625 13.168 16.9297 12.6875 16.9297H12.2656V18.125C12.2656 18.7109 11.8906 18.9922 11.4336 18.9922ZM10.625 15.5586V10.4375H10.5781L8.38672 15.4766V15.5586H10.625ZM17.5859 19.0859C16.5078 19.0859 15.4297 18.4531 14.9961 17.4688C14.9023 17.2344 14.832 16.9648 14.832 16.6836C14.832 16.2383 15.1133 15.957 15.5586 15.957C15.875 15.957 16.1562 16.1328 16.2852 16.5195C16.5078 17.1875 16.8945 17.668 17.5625 17.668C18.4531 17.668 18.8164 16.6484 18.8164 15.6406C18.8164 14.75 18.4766 13.6836 17.5859 13.6836C17.1055 13.6836 16.8008 13.9648 16.5312 14.3633C16.2734 14.6914 16.0859 14.8203 15.7578 14.8203C15.1953 14.8203 14.9492 14.4102 14.9492 13.9531C14.9492 13.7891 14.9609 13.6016 14.9727 13.4141L15.1719 10.1094C15.2188 9.47656 15.5 9.06641 16.1328 9.06641H19.4492C19.8594 9.06641 20.1289 9.38281 20.1289 9.78125C20.1289 10.2148 19.8711 10.4961 19.4492 10.4961H16.6133L16.4258 13.4258H16.4844C16.7891 12.7344 17.4453 12.4062 18.1484 12.4062C19.707 12.4062 20.5039 13.9297 20.5039 15.5938C20.5039 17.5039 19.4727 19.0859 17.5859 19.0859Z" fill="white"/>
</svg>
