<svg width="28" height="28" viewBox="0 0 28 28" fill="none" xmlns="http://www.w3.org/2000/svg">
<g clip-path="url(#clip0_2124_24828)">
<path d="M8 24.3555C8 25.9023 9.03125 26.8867 10.6719 26.8867H16.9531C18.5938 26.8867 19.625 25.9023 19.625 24.3555V3.53125C19.625 1.99609 18.5938 1 16.9531 1H10.6719C9.03125 1 8 1.99609 8 3.53125V24.3555ZM13.8242 17.125C12.9805 17.125 12.3125 16.457 12.3125 15.6367C12.3125 14.793 12.9805 14.1367 13.8242 14.1367C14.6445 14.1367 15.3125 14.793 15.3125 15.6367C15.3125 16.457 14.6445 17.125 13.8242 17.125ZM13.8242 12.5078C11.6328 12.5078 9.83984 10.7148 9.83984 8.52344C9.83984 6.33203 11.6328 4.53906 13.8242 4.53906C16.0156 4.53906 17.7969 6.33203 17.7969 8.52344C17.7969 10.7148 16.0156 12.5078 13.8242 12.5078ZM13.8242 10.1289C14.7148 10.1289 15.4297 9.41406 15.4297 8.52344C15.4297 7.63281 14.7148 6.90625 13.8242 6.90625C12.9336 6.90625 12.207 7.63281 12.207 8.52344C12.207 9.41406 12.9336 10.1289 13.8242 10.1289Z" fill="black" fill-opacity="0.85"/>
</g>
<defs>
<clipPath id="clip0_2124_24828">
<rect width="11.625" height="25.957" fill="white" transform="translate(8 1)"/>
</clipPath>
</defs>
</svg>
