<svg width="28" height="28" viewBox="0 0 28 28" fill="none" xmlns="http://www.w3.org/2000/svg">
<g clip-path="url(#clip0_2124_88653)">
<path d="M4.89062 25.0039C5.38281 25.0039 5.78125 24.6172 5.78125 24.125V17.6094C6.07422 17.4805 7.17578 17.0586 8.89844 17.0586C13.2344 17.0586 15.9531 19.1797 20.0781 19.1797C21.9062 19.1797 22.5859 18.9805 23.4766 18.582C24.2852 18.2188 24.8125 17.6094 24.8125 16.5312V4.63672C24.8125 4.00391 24.2734 3.64062 23.5938 3.64062C23.0195 3.64062 21.9414 4.13281 19.9258 4.13281C15.8008 4.13281 13.0938 2.01172 8.74609 2.01172C6.91797 2.01172 6.22656 2.21094 5.33594 2.60937C4.52734 2.97266 4 3.58203 4 4.64844V24.125C4 24.6055 4.41016 25.0039 4.89062 25.0039ZM20.0781 17.4102C16.1758 17.4102 13.4102 15.2891 8.89844 15.2891C7.60938 15.2891 6.4375 15.4414 5.78125 15.7109V4.70703C5.94531 4.32031 6.91797 3.78125 8.74609 3.78125C12.8711 3.78125 15.625 5.90234 19.9258 5.90234C21.2031 5.90234 22.2578 5.75 23.043 5.52734V16.4844C22.8789 16.8711 21.9062 17.4102 20.0781 17.4102Z" fill="black" fill-opacity="0.85"/>
</g>
<defs>
<clipPath id="clip0_2124_88653">
<rect width="20.8125" height="23.0039" fill="white" transform="translate(4 2)"/>
</clipPath>
</defs>
</svg>
