<svg width="28" height="28" viewBox="0 0 28 28" fill="none" xmlns="http://www.w3.org/2000/svg">
<g clip-path="url(#clip0_2124_88846)">
<path d="M13.9531 25.918C20.4922 25.918 25.9062 20.5039 25.9062 13.9648C25.9062 7.4375 20.4805 2.01172 13.9414 2.01172C7.41406 2.01172 2 7.4375 2 13.9648C2 20.5039 7.42578 25.918 13.9531 25.918Z" fill="black" fill-opacity="0.85"/>
<path d="M13.9062 14.2344C11.8906 14.2344 10.0976 13.4375 9.07807 11.3633C9.32417 11.2227 9.64057 11.1523 9.99214 11.1523H10.0859V10.5195C10.0859 8.42189 11.75 6.82812 13.9062 6.82812C16.0625 6.82812 17.7266 8.42189 17.7266 10.5195V11.1523H17.8203C18.1836 11.1523 18.4883 11.2227 18.7227 11.3633C17.7148 13.4375 15.9219 14.2344 13.9062 14.2344ZM11.1171 11.1523H16.6953V10.5195C16.6953 8.9961 15.4883 7.84766 13.9062 7.84766C12.3242 7.84766 11.1171 8.9961 11.1171 10.5195V11.1523ZM7.66011 17.3164L8.17573 12.8164C8.21089 12.5352 8.29292 12.3008 8.41011 12.1016C9.41792 13.9414 10.9882 14.8789 12.6758 15.1719V15.5703C12.6758 16.0039 12.9219 16.25 13.3555 16.25H14.4569C14.8905 16.25 15.1366 16.0039 15.1366 15.5703V15.1719C16.8242 14.8789 18.3828 13.9414 19.4023 12.1016C19.5195 12.3008 19.6016 12.5352 19.6367 12.8164L20.1523 17.3164C20.3281 18.8984 19.6367 19.7539 18.1602 19.7539H9.65229C8.17573 19.7539 7.48433 18.8984 7.66011 17.3164Z" fill="white"/>
</g>
<defs>
<clipPath id="clip0_2124_88846">
<rect width="23.9062" height="23.918" fill="white" transform="translate(2 2)"/>
</clipPath>
</defs>
</svg>
