<svg width="33" height="28" viewBox="0 0 33 28" fill="none" xmlns="http://www.w3.org/2000/svg">
<path d="M0.0334047 21.0153C0.0685609 21.5192 0.396686 21.777 0.900592 21.7653C3.71309 21.7184 6.08028 20.3942 8.1545 17.9918C10.3342 20.1598 12.8537 21.4723 15.5022 22.0699L15.092 25.4332C14.9865 26.3121 15.467 26.816 16.4865 26.6403C19.3928 26.1949 22.674 24.0504 24.385 21.5778C28.6506 20.2418 32.5764 17.5817 32.5764 14.3473C32.5764 11.2418 28.9436 8.66366 24.8537 7.26913C23.4006 2.27694 16.7912 -0.0316474 12.1272 2.55819C11.6232 2.816 11.5647 3.22616 11.9748 3.77694C13.0529 5.19491 13.4045 6.03866 13.6154 7.1871C11.6467 7.91366 9.81856 9.0621 8.1545 10.7262C6.08028 8.3121 3.71309 6.98788 0.900592 6.941C0.396686 6.92929 0.0685609 7.1871 0.0334047 7.691C-0.212689 10.1519 0.92403 12.7887 2.68184 14.3473C0.92403 15.9176 -0.212689 18.566 0.0334047 21.0153ZM26.3186 15.0621C25.6506 15.0621 25.0881 14.4996 25.0881 13.8317C25.0881 13.1637 25.6506 12.6012 26.3186 12.6012C26.9982 12.6012 27.5607 13.1637 27.5607 13.8317C27.5607 14.4996 26.9982 15.0621 26.3186 15.0621Z" fill="black" fill-opacity="0.85"/>
</svg>
