<svg width="28" height="28" viewBox="0 0 28 28" fill="none" xmlns="http://www.w3.org/2000/svg">
<path d="M13.9531 25.9062C20.4922 25.9062 25.9062 20.4805 25.9062 13.9531C25.9062 7.41406 20.4805 2 13.9414 2C7.41406 2 2 7.41406 2 13.9531C2 20.4805 7.42578 25.9062 13.9531 25.9062ZM13.9531 23.9141C8.42188 23.9141 4.00391 19.4844 4.00391 13.9531C4.00391 8.42188 8.41016 3.99219 13.9414 3.99219C19.4727 3.99219 23.9141 8.42188 23.9141 13.9531C23.9141 19.4844 19.4844 23.9141 13.9531 23.9141Z" fill="black" fill-opacity="0.85"/>
<path d="M8.97266 18.6875H13.0391C13.4609 18.6875 13.707 18.418 13.707 18.0078C13.707 17.5625 13.4492 17.3164 13.0391 17.3164H10.2617V17.2227L11.9727 15.0547C13.1445 13.6016 13.5312 12.7344 13.5312 11.7031C13.5312 10.1211 12.4531 8.97266 10.8359 8.97266C9.33594 8.97266 8.19922 10.2148 8.19922 11.4336C8.19922 11.8672 8.45703 12.1719 8.90234 12.1719C9.28906 12.1719 9.52344 11.9961 9.65234 11.6094C9.86328 10.8242 10.1562 10.332 10.8242 10.332C11.5391 10.332 11.9375 10.9531 11.9375 11.7852C11.9375 12.7227 11.2812 13.6719 10.6602 14.4688L8.62109 17.0703C8.41016 17.3516 8.1875 17.6445 8.1875 18.0078C8.1875 18.4062 8.44531 18.6875 8.97266 18.6875ZM16.4375 18.8516C16.8711 18.8516 17.0586 18.6758 17.2227 18.2539L19.8945 11.1055C20.0234 10.7422 20.1172 10.4609 20.1172 10.1211C20.1172 9.58203 19.707 9.21875 19.1797 9.21875H15.3945C14.9961 9.21875 14.7148 9.51172 14.7148 9.91016C14.7148 10.3086 14.9961 10.6016 15.3945 10.6016H18.4062V10.707L15.8164 17.4336C15.7109 17.6914 15.6641 17.8438 15.6641 18.125C15.6641 18.4648 15.8867 18.8516 16.4375 18.8516Z" fill="black" fill-opacity="0.85"/>
</svg>
