<svg width="28" height="28" viewBox="0 0 28 28" fill="none" xmlns="http://www.w3.org/2000/svg">
<path d="M2 13.9531C2 19.4844 5.87891 24.2188 11.0352 25.5312C11.3984 24.5469 11.6328 23.4805 11.7031 22.4141L11.2109 22.3906C10.9062 22.3789 10.6602 22.1328 10.6602 21.8281C10.6719 21.5234 10.918 21.2773 11.2344 21.2891L11.7266 21.3125C11.7148 20.6797 11.6445 20.0586 11.5273 19.4258L11.0352 19.5547C10.7305 19.625 10.4375 19.4375 10.3555 19.1445C10.2852 18.8516 10.4609 18.5469 10.7539 18.4766L11.2461 18.3477C11.0586 17.7383 10.8242 17.1289 10.5195 16.543L10.1328 16.7539C9.85156 16.8945 9.54688 16.8008 9.39453 16.5312C9.21875 16.2734 9.3125 15.9219 9.58203 15.7695L9.95703 15.5703C9.58203 14.9961 9.16016 14.457 8.69141 13.9766L8.42188 14.2695C8.1875 14.4922 7.87109 14.4805 7.63672 14.2578C7.42578 14.0586 7.40234 13.707 7.625 13.4844L7.89453 13.2031C7.44922 12.8047 6.96875 12.4766 6.46484 12.1602L6.20703 12.6641C6.05469 12.9453 5.73828 13.0273 5.46875 12.875C5.1875 12.7344 5.09375 12.3945 5.24609 12.1133L5.50391 11.6211C4.55469 11.1523 3.51172 10.8242 2.48047 10.6484C2.16406 11.7031 2 12.8047 2 13.9531ZM13.9531 25.9062C18.9219 25.9062 23.2578 22.7656 25.0273 18.3945C23.9023 18.1953 22.8008 17.8203 21.7695 17.3281L21.5 17.8203C21.3711 18.1016 21.0078 18.1836 20.75 18.043C20.4922 17.8906 20.3867 17.5508 20.5508 17.2812L20.8086 16.8125C20.1641 16.4258 19.5547 16.0039 18.9805 15.5117L18.6055 15.8867C18.3945 16.1094 18.0547 16.0977 17.8438 15.8867C17.6094 15.6758 17.5977 15.3242 17.8203 15.125L18.1953 14.7383C17.668 14.1992 17.1992 13.5898 16.7656 12.9219L16.2266 13.2266C15.957 13.4023 15.6172 13.2734 15.5 13.0273C15.3477 12.7578 15.418 12.418 15.6875 12.2773L16.2148 11.9727C15.8398 11.2578 15.5469 10.5195 15.3359 9.76953L14.6914 9.92188C14.3867 10.0039 14.0938 9.83984 14.0469 9.53516C13.9531 9.24219 14.0938 8.9375 14.4102 8.85547L15.0781 8.69141C14.9375 8 14.8672 7.28516 14.8555 6.58203L14.3281 6.55859C14.0117 6.55859 13.7773 6.32422 13.8008 6.01953C13.8008 5.70312 14.0352 5.45703 14.3516 5.44531L14.8789 5.46875C14.9844 4.32031 15.1953 3.18359 15.6055 2.11719C15.0547 2.04688 14.5039 2 13.9414 2C8.97266 2 4.67188 5.12891 2.87891 9.48828C3.99219 9.69922 5.08203 10.0273 6.10156 10.543L6.35938 10.0859C6.5 9.80469 6.83984 9.73438 7.12109 9.89844C7.39062 10.0273 7.47266 10.3555 7.32031 10.625L7.07422 11.0703C7.67188 11.4336 8.24609 11.832 8.78516 12.3008L9.25391 11.8203C9.47656 11.5977 9.81641 11.6211 10.0391 11.8555C10.2383 12.0664 10.2734 12.3828 10.0391 12.6172L9.58203 13.0742C10.1328 13.6484 10.6367 14.2578 11.0703 14.9375L11.6094 14.6445C11.8789 14.4805 12.207 14.5977 12.3594 14.8555C12.5117 15.1133 12.4414 15.4531 12.1484 15.6055L11.6211 15.8984C11.9844 16.5898 12.2656 17.3047 12.4883 18.0195L12.9922 17.8906C13.3086 17.8086 13.5898 17.9844 13.6719 18.2891C13.7539 18.582 13.5781 18.8867 13.2852 18.9688L12.7578 19.1094C12.8984 19.8477 12.9688 20.5859 12.9805 21.3242L13.543 21.3477C13.8477 21.3594 14.0938 21.6055 14.082 21.8984C14.082 22.2031 13.8359 22.4609 13.5195 22.4492L12.9453 22.4258C12.8633 23.5742 12.6289 24.6992 12.2305 25.7773C12.7812 25.8594 13.3672 25.9062 13.9531 25.9062ZM25.9062 13.9531C25.9062 8.39844 21.9805 3.65234 16.7891 2.35156C16.4375 3.34766 16.1914 4.42578 16.1211 5.49219L16.6602 5.51562C16.9648 5.52734 17.2109 5.78516 17.1992 6.08984C17.1992 6.40625 16.9648 6.62891 16.6484 6.61719L16.1094 6.59375C16.1211 7.17969 16.1797 7.77734 16.2969 8.36328L16.6602 8.28125C16.9648 8.19922 17.2344 8.375 17.3164 8.67969C17.3867 8.97266 17.2461 9.26562 16.9414 9.34766L16.5664 9.42969C16.7656 10.0742 17.0117 10.707 17.3281 11.3281L17.7148 11.1172C17.9844 10.9531 18.3125 11.0703 18.4531 11.3281C18.6055 11.6211 18.5234 11.9258 18.2539 12.0781L17.8672 12.2891C18.2422 12.8516 18.6406 13.3672 19.0742 13.8359L19.4492 13.4609C19.6719 13.2383 20.0234 13.25 20.2344 13.4492C20.457 13.6602 20.4688 14.0117 20.2461 14.2578L19.8828 14.6211C20.3633 15.043 20.8672 15.418 21.418 15.7344L21.6641 15.2539C21.793 14.9844 22.1328 14.8906 22.4023 15.0312C22.6719 15.1953 22.7773 15.5234 22.625 15.8047L22.3789 16.2734C23.3398 16.7422 24.3711 17.0586 25.4375 17.2227C25.7422 16.1797 25.9062 15.0898 25.9062 13.9531Z" fill="black" fill-opacity="0.85"/>
</svg>
