<svg width="28" height="28" viewBox="0 0 28 28" fill="none" xmlns="http://www.w3.org/2000/svg">
<g clip-path="url(#clip0_2124_88788)">
<path d="M13.9531 25.9062C20.4922 25.9062 25.9062 20.4805 25.9062 13.9531C25.9062 7.41406 20.4805 2 13.9414 2C7.41406 2 2 7.41406 2 13.9531C2 20.4805 7.42578 25.9062 13.9531 25.9062ZM13.9531 23.9141C8.42188 23.9141 4.00391 19.4844 4.00391 13.9531C4.00391 8.42188 8.41016 3.99219 13.9414 3.99219C19.4727 3.99219 23.9141 8.42188 23.9141 13.9531C23.9141 19.4844 19.4844 23.9141 13.9531 23.9141Z" fill="black" fill-opacity="0.85"/>
<path d="M13.918 16.5547C15.3477 16.5547 16.5195 15.3828 16.5195 13.9531C16.5195 12.5117 15.3477 11.3516 13.918 11.3516C12.4883 11.3516 11.3164 12.5117 11.3164 13.9531C11.3164 15.3828 12.4883 16.5547 13.918 16.5547ZM13.918 15.0781C13.2969 15.0781 12.793 14.5742 12.793 13.9531C12.793 13.3203 13.2969 12.8281 13.918 12.8281C14.5391 12.8281 15.043 13.3203 15.043 13.9531C15.043 14.5742 14.5391 15.0781 13.918 15.0781ZM13.3906 15.8516L12.0547 14.5156L10.332 16.2383C9.96875 16.6016 9.96875 17.2109 10.332 17.5742C10.6953 17.9375 11.293 17.9375 11.668 17.5742L13.3906 15.8516ZM14.5039 12.0781L15.8398 13.3906L19.9883 9.24219C20.3633 8.87891 20.3633 8.28125 19.9883 7.90625C19.625 7.54297 19.0273 7.54297 18.6641 7.90625L14.5039 12.0781Z" fill="black" fill-opacity="0.85"/>
</g>
<defs>
<clipPath id="clip0_2124_88788">
<rect width="23.9062" height="23.918" fill="white" transform="translate(2 2)"/>
</clipPath>
</defs>
</svg>
