<svg width="28" height="30" viewBox="0 0 28 30" fill="none" xmlns="http://www.w3.org/2000/svg">
<path d="M17.6173 29.168C17.8282 29.168 17.9806 28.957 17.9689 28.7461L17.8868 27.6328L18.8243 28.2656C18.9884 28.3711 19.2579 28.3242 19.3751 28.1484C19.4806 27.9727 19.422 27.7031 19.1876 27.5977L18.1798 27.1172L19.1993 26.6133C19.422 26.5078 19.4689 26.25 19.3868 26.0742C19.2813 25.8867 18.9884 25.8516 18.8243 25.957L17.8868 26.6133L17.9806 25.4766C18.004 25.2539 17.8282 25.0664 17.6173 25.0664C17.3712 25.0664 17.2306 25.2539 17.2423 25.4766L17.3126 26.6133L16.3634 25.957C16.1993 25.8516 15.9532 25.875 15.836 26.0742C15.7306 26.25 15.7774 26.4961 16.0001 26.6133L17.0079 27.1172L16.0001 27.6094C15.7774 27.7148 15.7189 27.9609 15.8243 28.1484C15.9298 28.3477 16.1993 28.3828 16.3634 28.2656L17.3126 27.6328L17.254 28.7461C17.2423 28.957 17.3712 29.168 17.6173 29.168Z" fill="black" fill-opacity="0.85"/>
<path d="M11.1251 29.168C11.336 29.168 11.4884 28.957 11.4767 28.7461L11.4063 27.6328L12.3321 28.2656C12.4962 28.3711 12.7657 28.3242 12.8829 28.1484C12.9884 27.9727 12.9298 27.7031 12.6954 27.5977L11.6876 27.1172L12.7071 26.6133C12.9298 26.5078 12.9767 26.25 12.8946 26.0742C12.7892 25.8867 12.4962 25.8516 12.3321 25.957L11.4063 26.6133L11.4884 25.4766C11.5118 25.2539 11.336 25.0664 11.1251 25.0664C10.879 25.0664 10.7384 25.2539 10.7501 25.4766L10.8204 26.6133L9.87116 25.957C9.7071 25.8516 9.46101 25.875 9.34382 26.0742C9.23835 26.25 9.28523 26.4961 9.50788 26.6133L10.5157 27.1172L9.50788 27.6094C9.28523 27.7148 9.22663 27.9609 9.3321 28.1484C9.43757 28.3477 9.7071 28.3828 9.87116 28.2656L10.8204 27.6328L10.7618 28.7461C10.7501 28.957 10.879 29.168 11.1251 29.168Z" fill="black" fill-opacity="0.85"/>
<path d="M4.63288 29.168C4.84382 29.168 4.99616 28.957 4.98445 28.7461L4.91413 27.6328L5.83991 28.2656C6.01569 28.3711 6.27351 28.3242 6.39069 28.1484C6.49616 27.9727 6.43757 27.7031 6.20319 27.5977L5.2071 27.1172L6.21491 26.6133C6.43757 26.5078 6.48445 26.25 6.40241 26.0742C6.29695 25.8867 6.01569 25.8516 5.83991 25.957L4.91413 26.6133L4.99616 25.4766C5.0196 25.2539 4.84382 25.0664 4.63288 25.0664C4.38679 25.0664 4.24616 25.2539 4.25788 25.4766L4.32819 26.6133L3.39069 25.957C3.21491 25.8516 2.96882 25.875 2.85163 26.0742C2.74616 26.25 2.79304 26.4961 3.01569 26.6133L4.02351 27.1172L3.01569 27.6094C2.79304 27.7148 2.73445 27.9609 2.83991 28.1484C2.94538 28.3477 3.21491 28.3828 3.39069 28.2656L4.32819 27.6328L4.2696 28.7461C4.25788 28.957 4.38679 29.168 4.63288 29.168Z" fill="black" fill-opacity="0.85"/>
<path d="M20.1603 24.7617C20.3712 24.7617 20.5235 24.5625 20.5118 24.3516L20.4298 23.2266L21.3673 23.8594C21.5313 23.9766 21.8009 23.9297 21.9181 23.7539C22.0235 23.5781 21.9649 23.3086 21.7306 23.2031L20.7228 22.7109L21.7423 22.207C21.9649 22.1016 22.0118 21.8555 21.9298 21.668C21.8243 21.4805 21.5313 21.4453 21.3673 21.5625L20.4298 22.207L20.5235 21.082C20.547 20.8594 20.3712 20.6719 20.1603 20.6719C19.9142 20.6719 19.7735 20.8594 19.7853 21.082L19.8556 22.207L18.9063 21.5625C18.7423 21.4453 18.4962 21.4688 18.379 21.668C18.2735 21.8555 18.3204 22.1016 18.5431 22.207L19.5509 22.7109L18.5431 23.2031C18.3204 23.3086 18.2618 23.5664 18.3673 23.7539C18.4728 23.9414 18.7423 23.9766 18.9063 23.8711L19.8556 23.2383L19.797 24.3516C19.7853 24.5625 19.9142 24.7617 20.1603 24.7617Z" fill="black" fill-opacity="0.85"/>
<path d="M13.6681 24.7617C13.879 24.7617 14.0313 24.5625 14.0196 24.3516L13.9493 23.2266L14.8751 23.8594C15.0392 23.9766 15.3087 23.9297 15.4259 23.7539C15.5313 23.5781 15.4728 23.3086 15.2384 23.2031L14.2306 22.7109L15.2501 22.207C15.4728 22.1016 15.5196 21.8555 15.4376 21.668C15.3321 21.4805 15.0392 21.4453 14.8751 21.5625L13.9493 22.207L14.0313 21.082C14.0548 20.8594 13.879 20.6719 13.6681 20.6719C13.422 20.6719 13.2813 20.8594 13.2931 21.082L13.3634 22.207L12.4142 21.5625C12.2501 21.4453 12.004 21.4688 11.8868 21.668C11.7813 21.8555 11.8282 22.1016 12.0509 22.207L13.0587 22.7109L12.0509 23.2031C11.8282 23.3086 11.7696 23.5664 11.8751 23.7539C11.9806 23.9414 12.2501 23.9766 12.4142 23.8711L13.3634 23.2383L13.3048 24.3516C13.2931 24.5625 13.422 24.7617 13.6681 24.7617Z" fill="black" fill-opacity="0.85"/>
<path d="M7.17585 24.7617C7.38679 24.7617 7.53913 24.5625 7.52741 24.3516L7.4571 23.2266L8.38288 23.8594C8.54695 23.9766 8.81648 23.9297 8.93366 23.7539C9.03913 23.5781 8.98054 23.3086 8.74616 23.2031L7.75007 22.7109L8.75788 22.207C8.98054 22.1016 9.02741 21.8555 8.94538 21.668C8.83991 21.4805 8.54695 21.4453 8.38288 21.5625L7.4571 22.207L7.53913 21.082C7.56257 20.8594 7.38679 20.6719 7.17585 20.6719C6.92976 20.6719 6.78913 20.8594 6.80085 21.082L6.87116 22.207L5.93366 21.5625C5.75788 21.4453 5.51179 21.4688 5.3946 21.668C5.28913 21.8555 5.33601 22.1016 5.55866 22.207L6.56648 22.7109L5.55866 23.2031C5.33601 23.3086 5.27741 23.5664 5.38288 23.7539C5.48835 23.9414 5.75788 23.9766 5.93366 23.8711L6.87116 23.2383L6.81257 24.3516C6.80085 24.5625 6.92976 24.7617 7.17585 24.7617Z" fill="black" fill-opacity="0.85"/>
<path d="M6.50781 18.9141H21.0508C24.8945 18.9141 27.7539 15.9961 27.7539 12.3867C27.7539 8.64844 24.707 5.91797 20.7344 5.91797C19.2695 3.02344 16.5508 1.16016 13.1641 1.16016C8.75781 1.16016 5.125 4.61719 4.73828 8.96484C2.61719 9.58594 1 11.4258 1 13.8984C1 16.6758 3.01562 18.9141 6.50781 18.9141Z" fill="black" fill-opacity="0.85"/>
</svg>
