<svg width="28" height="28" viewBox="0 0 28 28" fill="none" xmlns="http://www.w3.org/2000/svg">
<path d="M6.67969 24.5977H20.8945C23.3555 24.5977 24.5742 23.3789 24.5742 20.9648V6.65625C24.5742 4.24219 23.3555 3.02344 20.8945 3.02344H6.67969C4.23047 3.02344 3 4.23047 3 6.65625V20.9648C3 23.3906 4.23047 24.5977 6.67969 24.5977Z" fill="black" fill-opacity="0.85"/>
<path d="M11.2031 19.3359C10.582 19.3359 10.2422 18.8789 10.2422 18.2344V9.26953C10.2422 8.61328 10.5703 8.16797 11.2031 8.16797H14.5664C16.9102 8.16797 18.5039 9.66797 18.5039 11.8945C18.5039 14.1211 16.9336 15.5977 14.5547 15.5977H12.1875V18.2344C12.1875 18.9023 11.8477 19.3359 11.2031 19.3359ZM12.1875 14.1211H14.2969C15.7148 14.1211 16.582 13.2656 16.582 11.8945C16.582 10.5117 15.7031 9.65625 14.2969 9.65625H12.1875V14.1211Z" fill="white"/>
</svg>
