<svg width="30" height="28" viewBox="0 0 30 28" fill="none" xmlns="http://www.w3.org/2000/svg">
<path d="M23.8359 25.0664H27C28.8281 25.0664 29.7773 24.1875 29.7773 22.4531V5.625C29.7773 3.89062 28.8281 3 27 3H23.8359C22.0195 3 21.082 3.89062 21.082 5.625V22.4531C21.082 24.1875 22.0195 25.0664 23.8359 25.0664ZM24.1523 23.2969C23.2617 23.2969 22.9453 22.9922 22.9453 22.1133V5.96484C22.9453 5.08594 23.2617 4.76953 24.1523 4.76953H26.6953C27.5977 4.76953 27.9141 5.08594 27.9141 5.96484V22.1133C27.9141 22.9922 27.5977 23.2969 26.6953 23.2969H24.1523Z" fill="black" fill-opacity="0.85"/>
<path d="M13.3008 25.0664H16.4648C18.293 25.0664 19.2305 24.1875 19.2305 22.4531V9.04687C19.2305 7.31249 18.293 6.42188 16.4648 6.42188H13.3008C11.4727 6.42188 10.5352 7.31249 10.5352 9.04687V22.4531C10.5352 24.1875 11.4727 25.0664 13.3008 25.0664ZM13.6172 23.2969C12.7148 23.2969 12.3984 22.9922 12.3984 22.1133V9.38672C12.3984 8.50781 12.7148 8.19141 13.6172 8.19141H16.1602C17.0625 8.19141 17.3672 8.50781 17.3672 9.38672V22.1133C17.3672 22.9922 17.0625 23.2969 16.1602 23.2969H13.6172Z" fill="black" fill-opacity="0.85"/>
<path d="M2.76562 25.0664H5.91797C7.74609 25.0664 8.69531 24.1875 8.69531 22.4531V12.457C8.69531 10.7227 7.74609 9.83203 5.91797 9.83203H2.76562C0.9375 9.83203 0 10.7227 0 12.457V22.4531C0 24.1875 0.9375 25.0664 2.76562 25.0664ZM3.07031 23.2969C2.17969 23.2969 1.86328 22.9922 1.86328 22.1133V12.7969C1.86328 11.9063 2.17969 11.6016 3.07031 11.6016H5.61328C6.51562 11.6016 6.83203 11.9063 6.83203 12.7969V22.1133C6.83203 22.9922 6.51562 23.2969 5.61328 23.2969H3.07031Z" fill="black" fill-opacity="0.85"/>
</svg>
