<svg width="28" height="28" viewBox="0 0 28 28" fill="none" xmlns="http://www.w3.org/2000/svg">
<path d="M4.10156 4C3.48047 4 3.19922 4.39844 3.10547 4.86719C3.02344 5.23047 3 5.80469 3 6.49609C3 12.168 5.27344 14.6055 10.8281 14.6055H19.0195L21.8906 14.4414L17.9414 18.0391L15.3398 20.6875C15.1523 20.8867 15.0586 21.1562 15.0586 21.4375C15.0586 22.0234 15.5039 22.4453 16.0898 22.4453C16.3594 22.4453 16.6172 22.3398 16.875 22.0938L24.6328 14.3477C24.8789 14.1133 24.9961 13.8438 24.9961 13.5508C24.9961 13.2695 24.8789 12.9883 24.6328 12.7656L16.8516 4.98438C16.6172 4.76172 16.3594 4.66797 16.0898 4.66797C15.5039 4.66797 15.0586 5.08984 15.0586 5.67578C15.0586 5.95703 15.1641 6.22656 15.3398 6.41406L17.9414 9.0625L21.9023 12.6836L19.0195 12.5078H10.9336C6.63281 12.5078 5.12109 10.7383 5.12109 6.39062C5.12109 5.82812 5.15625 5.45312 5.15625 5.03125C5.15625 4.42188 4.71094 4 4.10156 4Z" fill="black" fill-opacity="0.85"/>
</svg>
