<svg width="28" height="28" viewBox="0 0 28 28" fill="none" xmlns="http://www.w3.org/2000/svg">
<path d="M13.9531 25.9062C20.4922 25.9062 25.9062 20.4805 25.9062 13.9531C25.9062 7.41406 20.4805 2 13.9414 2C7.41406 2 2 7.41406 2 13.9531C2 20.4805 7.42578 25.9062 13.9531 25.9062ZM13.9531 23.9141C8.42188 23.9141 4.00391 19.4844 4.00391 13.9531C4.00391 8.42188 8.41016 3.99219 13.9414 3.99219C19.4727 3.99219 23.9141 8.42188 23.9141 13.9531C23.9141 19.4844 19.4844 23.9141 13.9531 23.9141Z" fill="black" fill-opacity="0.85"/>
<path d="M10.1797 15.6406H17.1641C18.9805 15.6406 20.375 14.2344 20.375 12.5117C20.375 10.7188 18.9102 9.40625 17.0117 9.40625C16.2969 8.02344 14.9961 7.12109 13.3789 7.12109C11.2695 7.12109 9.52344 8.78516 9.32422 10.8828C8.31641 11.1758 7.54297 12.0547 7.54297 13.2383C7.54297 14.5625 8.50391 15.6406 10.1797 15.6406ZM9.80469 20.1289C9.99219 20.1289 10.1211 19.9531 10.1094 19.7656L10.0742 19.0625L10.6484 19.4609C10.8008 19.5664 11.0234 19.5078 11.1172 19.3672C11.2344 19.2266 11.1758 18.9805 10.9648 18.8867L10.3437 18.582L10.9648 18.2539C11.1641 18.1484 11.2109 17.9609 11.1289 17.7969C11.0469 17.6328 10.8008 17.5977 10.6484 17.6914L10.0742 18.1016L10.1094 17.3984C10.1211 17.1875 9.99219 17.0352 9.80469 17.0352C9.59375 17.0352 9.45312 17.1875 9.46484 17.3867L9.51172 18.1016L8.91406 17.6914C8.77344 17.5977 8.55078 17.6211 8.46875 17.7969C8.375 17.9375 8.41016 18.1484 8.60938 18.2656L9.23047 18.582L8.60938 18.8867C8.39844 18.9805 8.375 19.2031 8.44531 19.3555C8.52734 19.5312 8.76172 19.5664 8.91406 19.4609L9.51172 19.0625L9.47656 19.7656C9.46484 19.9531 9.59375 20.1289 9.80469 20.1289ZM13.6719 20.1289C13.8594 20.1289 13.9883 19.9531 13.9766 19.7656L13.9414 19.0625L14.5156 19.4609C14.6562 19.5664 14.8906 19.5078 14.9844 19.3672C15.1016 19.2266 15.043 18.9805 14.832 18.8867L14.2109 18.582L14.832 18.2539C15.0312 18.1484 15.0781 17.9609 14.9961 17.7969C14.9141 17.6328 14.668 17.5977 14.5156 17.6914L13.9414 18.1016L13.9766 17.3984C13.9883 17.1875 13.8594 17.0352 13.6719 17.0352C13.4609 17.0352 13.3203 17.1875 13.332 17.3867L13.3789 18.1016L12.7812 17.6914C12.6406 17.5977 12.418 17.6211 12.3359 17.7969C12.2422 17.9375 12.2773 18.1484 12.4766 18.2656L13.0977 18.582L12.4766 18.8867C12.2656 18.9805 12.2422 19.2031 12.3125 19.3555C12.3945 19.5312 12.6289 19.5664 12.7812 19.4609L13.3789 19.0625L13.3438 19.7656C13.332 19.9531 13.4609 20.1289 13.6719 20.1289ZM17.5273 20.1289C17.7266 20.1289 17.8555 19.9531 17.8438 19.7656L17.8086 19.0625L18.3828 19.4609C18.5234 19.5664 18.7578 19.5078 18.8516 19.3672C18.957 19.2266 18.9102 18.9805 18.6992 18.8867L18.0781 18.582L18.6992 18.2539C18.8984 18.1484 18.9453 17.9609 18.8633 17.7969C18.7695 17.6328 18.5352 17.5977 18.3828 17.6914L17.8086 18.1016L17.8438 17.3984C17.8555 17.1875 17.7266 17.0352 17.5273 17.0352C17.3281 17.0352 17.1875 17.1875 17.1992 17.3867L17.2461 18.1016L16.6484 17.6914C16.5078 17.5977 16.2852 17.6211 16.1914 17.7969C16.1094 17.9375 16.1328 18.1484 16.3438 18.2656L16.9648 18.582L16.3438 18.8867C16.1328 18.9805 16.1094 19.2031 16.1797 19.3555C16.2617 19.5312 16.4961 19.5664 16.6484 19.4609L17.2461 19.0625L17.2109 19.7656C17.1992 19.9531 17.3281 20.1289 17.5273 20.1289Z" fill="black" fill-opacity="0.85"/>
</svg>
