<svg width="28" height="28" viewBox="0 0 28 28" fill="none" xmlns="http://www.w3.org/2000/svg">
<path d="M13.9531 25.9062C20.4922 25.9062 25.9062 20.4805 25.9062 13.9531C25.9062 7.41406 20.4805 2 13.9414 2C7.41406 2 2 7.41406 2 13.9531C2 20.4805 7.42578 25.9062 13.9531 25.9062ZM13.9531 23.9141C8.42188 23.9141 4.00391 19.4844 4.00391 13.9531C4.00391 8.42188 8.41016 3.99219 13.9414 3.99219C19.4727 3.99219 23.9141 8.42188 23.9141 13.9531C23.9141 19.4844 19.4844 23.9141 13.9531 23.9141Z" fill="black" fill-opacity="0.85"/>
<path d="M11.4219 18.8398C11.8555 18.8398 12.2188 18.5703 12.2188 18.0078V16.8359H12.6406C13.0859 16.8359 13.2969 16.543 13.2969 16.1445C13.2969 15.7695 13.1094 15.4766 12.6406 15.4766H12.2188V10.332C12.2188 9.52344 11.6914 9.06641 10.918 9.06641C10.0977 9.06641 9.71094 9.48828 9.38281 10.2148L7.28516 14.7617C7.09766 15.2188 7.02734 15.5234 7.02734 15.8867C7.02734 16.4492 7.41406 16.8359 7.98828 16.8359H10.6133V18.0078C10.6133 18.6289 11.0469 18.8398 11.4219 18.8398ZM10.6484 15.5117H8.46875V15.4297L10.6016 10.543H10.6484V15.5117ZM17.375 18.8984C19.0625 18.8984 20.3516 17.8438 20.3516 16.0859C20.3516 14.6328 19.4844 13.918 18.4883 13.8125V13.7773C19.5547 13.4961 20.0703 12.5469 20.0703 11.5625C20.0703 9.94531 18.8633 9.01953 17.3398 9.01953C16.1211 9.01953 15.0781 9.69922 14.7383 10.7422C14.6797 10.9648 14.6562 11.1758 14.6562 11.375C14.6562 11.7617 14.9023 12.0664 15.3711 12.0664C15.7695 12.0664 16.0039 11.9141 16.1211 11.5039C16.3086 10.8125 16.6719 10.3789 17.3398 10.3789C18.1133 10.3789 18.4766 10.9766 18.4766 11.75C18.4766 12.6055 17.9961 13.2266 17.1172 13.2266H16.8477C16.4492 13.2266 16.1914 13.4727 16.1914 13.8594C16.1914 14.2461 16.4492 14.4688 16.8477 14.4688H17.1406C18.1367 14.4688 18.6875 15.0195 18.6875 16.0391C18.6875 16.8477 18.2539 17.5391 17.3867 17.5391C16.5312 17.5391 16.1445 16.9648 16.0039 16.4258C15.8984 16.0508 15.6406 15.8516 15.2656 15.8516C14.8086 15.8516 14.4922 16.1328 14.4922 16.5898C14.4922 16.8008 14.5273 17.0117 14.5859 17.1992C14.9258 18.2891 16.1211 18.8984 17.375 18.8984Z" fill="black" fill-opacity="0.85"/>
</svg>
