<svg width="33" height="28" viewBox="0 0 33 28" fill="none" xmlns="http://www.w3.org/2000/svg">
<path d="M8.44922 10.3672H10.3945V6.93359C10.3945 5.08203 11.8359 3.94531 14.0977 3.94531H18.4453C20.7188 3.94531 22.1602 5.08203 22.1602 6.93359V10.3672H24.1055V6.93359C24.1055 3.88672 21.9023 2 18.4453 2H14.0977C10.6523 2 8.44922 3.88672 8.44922 6.93359V10.3672ZM3.91406 25.4258H28.6289C31.0312 25.4258 32.543 23.9375 32.543 21.5703V14.9023C32.543 11.4102 30.1055 9.00781 26.5781 9.00781H5.96484C2.4375 9.00781 0 11.4102 0 14.9023V21.5703C0 23.9375 1.51172 25.4258 3.91406 25.4258ZM6.91406 25.4258V9.00781H8.44922V25.4258H6.91406ZM10.3945 25.4258V9.00781H11.9297V25.4258H10.3945ZM11.9297 16.9414V15.4062H20.625V16.9414H11.9297ZM20.625 25.4258V9.00781H22.1602V25.4258H20.625ZM24.1055 25.4258V9.00781H25.6406V25.4258H24.1055Z" fill="black" fill-opacity="0.85"/>
</svg>
