<svg width="29" height="34" viewBox="0 0 29 34" fill="none" xmlns="http://www.w3.org/2000/svg">
<g clip-path="url(#clip0_2124_46056)">
<path d="M18.5976 8.37915C18.7851 8.37915 18.9375 8.25024 18.9492 8.0393C19.289 5.2854 19.418 5.21509 22.2187 4.74634C22.4531 4.7229 22.582 4.60571 22.582 4.40649C22.582 4.21899 22.4531 4.1018 22.2656 4.06665C19.4414 3.52759 19.289 3.5393 18.9492 0.785401C18.9375 0.574463 18.7851 0.445557 18.5976 0.445557C18.4219 0.445557 18.2812 0.574463 18.2695 0.773682C17.8945 3.57446 17.8125 3.65649 14.9414 4.06665C14.7539 4.09009 14.625 4.21899 14.625 4.40649C14.625 4.59399 14.7539 4.7229 14.9414 4.74634C17.8125 5.30884 17.8828 5.29712 18.2695 8.06274C18.2812 8.25024 18.4219 8.37915 18.5976 8.37915ZM10.7578 5.21509C10.8867 5.21509 10.9922 5.14477 11.0273 4.99243C11.3437 3.23462 11.3437 3.2229 13.1133 2.89477C13.2656 2.85962 13.3594 2.76587 13.3594 2.62524C13.3594 2.4729 13.2656 2.37915 13.1133 2.34399C11.3437 1.99243 11.3906 1.98071 11.0273 0.258057C10.9922 0.105713 10.8984 0.0236816 10.7578 0.0236816C10.6172 0.0236816 10.5117 0.117432 10.4883 0.258057C10.1133 1.98071 10.1719 1.99243 8.39062 2.34399C8.23828 2.37915 8.14453 2.48462 8.14453 2.62524C8.14453 2.75415 8.23828 2.85962 8.39062 2.89477C10.1719 3.24634 10.1484 3.23462 10.4883 4.99243C10.5117 5.13306 10.6172 5.21509 10.7578 5.21509ZM4.37109 31.2893C4.54687 31.2893 4.64062 31.1839 4.66406 31.0198C5.08593 28.7229 5.07422 28.676 7.47656 28.219C7.65234 28.1721 7.74609 28.0901 7.74609 27.9143C7.74609 27.7385 7.65234 27.6565 7.47656 27.6214C5.08593 27.1409 5.14453 27.094 4.66406 24.8089C4.64062 24.6448 4.54687 24.5393 4.37109 24.5393C4.20703 24.5393 4.125 24.6448 4.07812 24.8089C3.59765 27.094 3.6914 27.1409 1.27734 27.6214C1.11328 27.6565 1.00781 27.7385 1.00781 27.9143C1.00781 28.0901 1.11328 28.1721 1.27734 28.219C3.6914 28.6878 3.64453 28.7229 4.07812 31.0198C4.125 31.1839 4.20703 31.2893 4.37109 31.2893Z" fill="black" fill-opacity="0.85"/>
<path d="M25.406 26.8831C28.3123 23.9651 28.7928 20.344 26.7888 16.1253L24.1404 10.5706C23.9529 10.1839 23.742 9.86744 23.4959 9.62135C22.6053 8.74244 21.3279 8.78931 20.4842 9.63307C19.9099 10.2073 19.7342 11.0628 20.1209 11.9885L20.8943 13.8635C20.9178 13.9104 20.9178 13.9573 20.8826 13.9925C20.8474 14.0276 20.7888 14.0159 20.7537 13.9807L14.0974 7.32447C13.1365 6.36353 11.9178 6.36353 10.9919 7.28931C10.6521 7.61744 10.4646 8.05103 10.4529 8.49635C9.49194 7.75807 8.42553 7.7815 7.60522 8.60181C6.79662 9.41041 6.77318 10.512 7.47631 11.4495C7.05444 11.4495 6.64428 11.637 6.33959 11.9417C5.48412 12.7971 5.50756 13.969 6.43334 14.8831L7.3474 15.8089C6.89037 15.7971 6.43334 16.0081 6.08178 16.3596C5.22631 17.2268 5.26147 18.4573 6.19897 19.3831L13.3123 26.5081C17.1912 30.387 21.8904 30.387 25.406 26.8831ZM24.2107 25.7815C21.281 28.7112 17.6131 28.6175 14.2732 25.2776L7.406 18.4104C7.05444 18.0589 7.031 17.5784 7.37084 17.2385C7.71068 16.8987 8.20287 16.8987 8.56615 17.2503L12.7967 21.4807C13.1014 21.7854 13.5584 21.7503 13.8279 21.4807C14.1092 21.1995 14.156 20.7425 13.8514 20.4378L7.51147 14.0979C7.1599 13.7464 7.13647 13.2776 7.48803 12.9378C7.82787 12.5862 8.32006 12.5862 8.67162 12.9378L14.5779 18.8557C14.8826 19.1604 15.3396 19.1135 15.6092 18.844C15.8904 18.5628 15.9373 18.1057 15.6326 17.801L8.69506 10.8635C8.3435 10.512 8.33178 10.0198 8.67162 9.67994C9.01147 9.3401 9.50365 9.35181 9.85522 9.70338L16.7928 16.6409C17.0857 16.9339 17.5428 16.9221 17.824 16.6409C18.1053 16.3479 18.1404 15.8792 17.8474 15.5979L11.9295 9.67994C11.5779 9.32838 11.5779 8.83619 11.9178 8.49635C12.2576 8.1565 12.7381 8.16822 13.0896 8.51978L21.2459 16.676C21.656 17.0979 22.1482 17.0862 22.4881 16.7464C22.7928 16.4534 22.9099 16.0667 22.6756 15.4573L21.2107 11.6135C21.0115 11.0862 21.199 10.6643 21.5974 10.4768C22.0428 10.2776 22.4412 10.4768 22.699 11.0393L25.4178 16.7815C27.2342 20.6253 26.531 23.4612 24.2107 25.7815Z" fill="black" fill-opacity="0.85"/>
<path d="M22.3949 27.9378C25.3129 25.0315 25.7816 21.3987 23.7777 17.1917L21.141 11.6253C20.9535 11.2385 20.7426 10.9221 20.4848 10.676C19.6059 9.79712 18.3285 9.84399 17.4848 10.6995C16.9105 11.262 16.7348 12.1175 17.1215 13.0549L17.8949 14.9182C17.9184 14.9651 17.9184 15.012 17.8832 15.0471C17.848 15.094 17.7894 15.0823 17.7426 15.0354L11.098 8.39087C10.1371 7.41821 8.91839 7.41821 7.99261 8.34399C7.65276 8.68384 7.46526 9.10571 7.45354 9.55102C6.49261 8.81274 5.4262 8.83618 4.60589 9.66821C3.79729 10.4651 3.77385 11.5667 4.47698 12.5042C4.04339 12.5042 3.64495 12.6917 3.34026 12.9964C2.48479 13.8518 2.50823 15.0237 3.43401 15.9495L4.34807 16.8635C3.89104 16.8518 3.43401 17.0628 3.08245 17.426C2.21526 18.2815 2.26214 19.512 3.19964 20.4378L10.3129 27.5628C14.1918 31.4417 18.891 31.4417 22.3949 27.9378Z" fill="white"/>
<path d="M22.3949 27.9378C25.3129 25.0315 25.7816 21.3987 23.7777 17.1917L21.141 11.6253C20.9535 11.2385 20.7426 10.9221 20.4848 10.676C19.6059 9.79712 18.3285 9.84399 17.4848 10.6995C16.9105 11.262 16.7348 12.1175 17.1215 13.0549L17.8949 14.9182C17.9184 14.9651 17.9184 15.012 17.8832 15.0471C17.848 15.094 17.7894 15.0823 17.7426 15.0354L11.098 8.39087C10.1371 7.41821 8.91839 7.41821 7.99261 8.34399C7.65276 8.68384 7.46526 9.10571 7.45354 9.55102C6.49261 8.81274 5.4262 8.83618 4.60589 9.66821C3.79729 10.4651 3.77385 11.5667 4.47698 12.5042C4.04339 12.5042 3.64495 12.6917 3.34026 12.9964C2.48479 13.8518 2.50823 15.0237 3.43401 15.9495L4.34807 16.8635C3.89104 16.8518 3.43401 17.0628 3.08245 17.426C2.21526 18.2815 2.26214 19.512 3.19964 20.4378L10.3129 27.5628C14.1918 31.4417 18.891 31.4417 22.3949 27.9378ZM21.2113 26.8362C18.2816 29.7659 14.6137 29.6721 11.2738 26.3323L4.40667 19.4651C4.05511 19.1135 4.03167 18.6448 4.37151 18.2932C4.71135 17.9534 5.20354 17.9534 5.55511 18.3049L9.79729 22.5471C10.102 22.8518 10.5473 22.8049 10.8285 22.5354C11.1098 22.2542 11.1566 21.7971 10.852 21.4925L4.51214 15.1526C4.16057 14.801 4.13714 14.3323 4.47698 13.9925C4.82854 13.6526 5.32073 13.6526 5.67229 14.0042L11.5785 19.9104C11.8832 20.2151 12.3402 20.1799 12.6098 19.8987C12.891 19.6175 12.9379 19.1604 12.6332 18.8557L5.69573 11.9182C5.34417 11.5667 5.33245 11.0745 5.67229 10.7346C6.00042 10.3948 6.50432 10.4182 6.85589 10.7698L13.7934 17.7073C14.0863 17.9885 14.5316 17.9768 14.8246 17.6956C15.1059 17.4026 15.1293 16.9456 14.848 16.6526L8.93011 10.7346C8.57854 10.3831 8.56682 9.90259 8.91839 9.56274C9.25823 9.21118 9.7387 9.2229 10.0903 9.58618L18.2465 17.7425C18.6566 18.1526 19.1488 18.1526 19.4887 17.801C19.7816 17.5081 19.9105 17.1214 19.6762 16.5237L18.2113 12.6682C18.0121 12.1526 18.1996 11.719 18.598 11.5315C19.0434 11.3323 19.4418 11.5432 19.6996 12.094L22.4184 17.8479C24.2348 21.6799 23.5199 24.5159 21.2113 26.8362Z" fill="black" fill-opacity="0.85"/>
</g>
<defs>
<clipPath id="clip0_2124_46056">
<rect width="26.9974" height="33.3164" fill="white" transform="translate(1.00781 0.0236816)"/>
</clipPath>
</defs>
</svg>
