<svg width="28" height="28" viewBox="0 0 28 28" fill="none" xmlns="http://www.w3.org/2000/svg">
<path d="M6.67969 24.5977H20.8945C23.3555 24.5977 24.5742 23.3789 24.5742 20.9648V6.65625C24.5742 4.24219 23.3555 3.02344 20.8945 3.02344H6.67969C4.23047 3.02344 3 4.23047 3 6.65625V20.9648C3 23.3906 4.23047 24.5977 6.67969 24.5977Z" fill="black" fill-opacity="0.85"/>
<path d="M10.6289 19.1836C10.0078 19.1836 9.67969 18.75 9.67969 18.0938V9.26953C9.67969 8.61328 10.0078 8.17969 10.6289 8.17969H13.7109C17.1797 8.17969 19.0898 10.125 19.0898 13.6523C19.0898 17.2266 17.1445 19.1836 13.7109 19.1836H10.6289ZM11.5547 17.6836H13.5C15.8672 17.6836 17.1445 16.3477 17.1445 13.6875C17.1445 11.0859 15.8555 9.67969 13.5 9.67969H11.5547V17.6836Z" fill="white"/>
</svg>
