<svg width="28" height="28" viewBox="0 0 28 28" fill="none" xmlns="http://www.w3.org/2000/svg">
<path d="M13.9531 25.9062C20.4922 25.9062 25.9062 20.4805 25.9062 13.9531C25.9062 7.41406 20.4805 2 13.9414 2C7.41406 2 2 7.41406 2 13.9531C2 20.4805 7.42578 25.9062 13.9531 25.9062ZM13.9531 23.9141C8.42188 23.9141 4.00391 19.4844 4.00391 13.9531C4.00391 8.42188 8.41016 3.99219 13.9414 3.99219C19.4727 3.99219 23.9141 8.42188 23.9141 13.9531C23.9141 19.4844 19.4844 23.9141 13.9531 23.9141Z" fill="black" fill-opacity="0.85"/>
<path d="M13.8711 19.5312C16.25 19.5312 17.8789 18.043 17.8789 15.7812C17.8789 13.707 16.3906 12.2656 14.2461 12.2656C13.2969 12.2656 12.3125 12.6875 11.8906 13.2734H11.8086L12.0898 10.0859H16.7656C17.1641 10.0859 17.457 9.78125 17.457 9.35938C17.457 8.9375 17.1758 8.64453 16.7656 8.64453H11.9141C11.1523 8.64453 10.6484 9.06641 10.6016 9.74609L10.2734 13.6484C10.2266 14.3164 10.625 14.7617 11.2695 14.7617C11.7031 14.7617 11.9609 14.668 12.4297 14.3164C12.9922 13.8359 13.4375 13.6602 14.0352 13.6602C15.2773 13.6602 16.1094 14.5273 16.1094 15.8164C16.1094 17.1055 15.1367 18.0664 13.8359 18.0664C12.875 18.0664 12.0547 17.5859 11.668 16.8125C11.457 16.4375 11.1758 16.25 10.8359 16.25C10.3672 16.25 10.0508 16.5781 10.0508 17.0234C10.0508 17.2227 10.0977 17.4102 10.168 17.5859C10.6367 18.7812 11.9961 19.5312 13.8711 19.5312Z" fill="black" fill-opacity="0.85"/>
</svg>
