<svg width="28" height="28" viewBox="0 0 28 28" fill="none" xmlns="http://www.w3.org/2000/svg">
<path d="M9.23438 24.0352H18.3984C25.1953 24.0352 27.6328 21.5156 27.6328 15.2461V11.8008C27.6328 5.53125 25.1953 3 18.3984 3H9.23438C2.4375 3 0 5.53125 0 11.8008V15.2461C0 21.5156 2.4375 24.0352 9.23438 24.0352ZM9.23438 22.1484C3.70312 22.1484 1.88672 20.3555 1.88672 15.2461V11.8008C1.88672 6.69141 3.70312 4.88672 9.23438 4.88672H18.3984C23.9297 4.88672 25.7461 6.69141 25.7461 11.8008V15.2461C25.7461 20.3555 23.9297 22.1484 18.3984 22.1484H9.23438Z" fill="black" fill-opacity="0.85"/>
<path d="M6.94922 18.4336C7.41797 18.4336 7.71094 18.1172 7.71094 17.6133V11.2852H7.78125L9.375 17.4844C9.49219 17.9297 9.77344 18.2578 10.2422 18.2578C10.7227 18.2578 10.9805 17.9414 11.0977 17.4727L12.6914 11.2852H12.75V17.6133C12.75 18.1172 13.0312 18.4336 13.5117 18.4336C14.0039 18.4336 14.2734 18.1172 14.2734 17.6133V9.84375C14.2734 9.08203 13.8164 8.64844 13.0664 8.64844C12.3984 8.64844 12.0117 8.97656 11.8594 9.63281L10.2656 16.0195H10.2188L8.58984 9.63281C8.42578 8.97656 8.03906 8.64844 7.39453 8.64844C6.65625 8.64844 6.1875 9.10547 6.1875 9.84375V17.6133C6.1875 18.1172 6.49219 18.4336 6.94922 18.4336ZM18.7148 18.4688C20.4023 18.4688 21.6914 17.4141 21.6914 15.6562C21.6914 14.2031 20.8242 13.4883 19.8398 13.3828V13.3477C20.8945 13.0664 21.4102 12.1172 21.4102 11.1328C21.4102 9.51562 20.2031 8.58984 18.6797 8.58984C17.4609 8.58984 16.418 9.26953 16.0781 10.3125C16.0195 10.5352 15.9961 10.7461 15.9961 10.9453C15.9961 11.332 16.2422 11.6367 16.7109 11.6367C17.1094 11.6367 17.3438 11.4844 17.4609 11.0742C17.6484 10.3828 18.0117 9.94922 18.6797 9.94922C19.4531 9.94922 19.8164 10.5469 19.8164 11.3203C19.8164 12.1758 19.3359 12.7969 18.457 12.7969H18.1875C17.7891 12.7969 17.5312 13.043 17.5312 13.4297C17.5312 13.8164 17.8008 14.0391 18.1875 14.0391H18.4805C19.4766 14.0391 20.0273 14.5898 20.0273 15.6094C20.0273 16.418 19.5938 17.1094 18.7266 17.1094C17.8711 17.1094 17.4844 16.5352 17.3438 15.9961C17.2383 15.6211 16.9805 15.4219 16.6055 15.4219C16.1484 15.4219 15.8438 15.7031 15.8438 16.1602C15.8438 16.3711 15.8672 16.582 15.9258 16.7695C16.2656 17.8594 17.4609 18.4688 18.7148 18.4688Z" fill="black" fill-opacity="0.85"/>
</svg>
