<svg width="31" height="28" viewBox="0 0 31 28" fill="none" xmlns="http://www.w3.org/2000/svg">
<g clip-path="url(#clip0_2124_24785)">
<path d="M9.46875 2C4.27734 2 0 7.96484 0 15.2891C0 18.7344 0.914062 22.543 2.03906 22.543C2.90625 22.543 3.60938 21.3945 3.70312 20.2344C1.99219 19.7305 0.726562 18.1484 0.726562 16.2969C0.726562 15.1719 1.16016 14.1758 1.94531 13.3789C2.33203 8.33984 5.60156 3.89844 9.36328 3.89844C11.6133 3.89844 12.6445 5.58594 12.6445 8.70312L3.66797 13.3906C2.35547 14.0703 1.75781 15.1484 1.75781 16.2969C1.75781 17.9727 3.14062 19.3555 4.81641 19.3555C5.63672 19.3555 6.1875 19.1445 7.34766 18.5234L11.8828 16.0391C13.8516 14.9492 14.5547 13.625 14.5547 10.8477V8.375C14.5547 4.47266 12.832 2 9.46875 2ZM4.74609 18.2188C3.66797 18.2188 2.80078 17.3398 2.80078 16.2852C2.80078 15.2188 3.66797 14.3516 4.74609 14.3516C5.80078 14.3516 6.66797 15.2188 6.66797 16.2852C6.66797 17.3398 5.80078 18.2188 4.74609 18.2188ZM4.74609 17.4688C5.37891 17.4688 5.91797 16.9297 5.91797 16.2852C5.91797 15.6406 5.37891 15.1016 4.74609 15.1016C4.08984 15.1016 3.5625 15.6406 3.5625 16.2852C3.5625 16.9297 4.08984 17.4688 4.74609 17.4688ZM1.55859 26.3984H2.63672V22.0977H1.55859V26.3984ZM21.0586 2C17.6953 2 15.9727 4.47266 15.9727 8.375V10.8477C15.9727 13.625 16.6758 14.9492 18.6445 16.0391L23.1797 18.5234C24.3398 19.1445 24.8906 19.3555 25.7109 19.3555C27.3867 19.3555 28.7695 17.9727 28.7695 16.2969C28.7695 15.1484 28.1719 14.0703 26.8594 13.3906L17.8828 8.70312C17.8828 5.58594 18.9141 3.89844 21.1641 3.89844C24.9141 3.89844 28.1953 8.33984 28.582 13.3789C29.3672 14.1758 29.8008 15.1719 29.8008 16.2969C29.8008 18.1484 28.5352 19.7305 26.8242 20.2344C26.9062 21.3945 27.6211 22.543 28.4883 22.543C29.6016 22.543 30.5273 18.7344 30.5273 15.2891C30.5273 7.96484 26.25 2 21.0586 2ZM25.7812 18.2188C24.7266 18.2188 23.8477 17.3398 23.8477 16.2852C23.8477 15.2188 24.7266 14.3516 25.7812 14.3516C26.8594 14.3516 27.7266 15.2188 27.7266 16.2852C27.7266 17.3398 26.8594 18.2188 25.7812 18.2188ZM25.7812 17.4688C26.4375 17.4688 26.9648 16.9297 26.9648 16.2852C26.9648 15.6406 26.4375 15.1016 25.7812 15.1016C25.1367 15.1016 24.5977 15.6406 24.5977 16.2852C24.5977 16.9297 25.1367 17.4688 25.7812 17.4688ZM28.9688 26.3984V22.0977H27.8906V26.3984H28.9688Z" fill="black" fill-opacity="0.85"/>
</g>
<defs>
<clipPath id="clip0_2124_24785">
<rect width="30.5273" height="24.4102" fill="white" transform="translate(0 2)"/>
</clipPath>
</defs>
</svg>
