<svg width="29" height="29" viewBox="0 0 29 29" fill="none" xmlns="http://www.w3.org/2000/svg">
<g clip-path="url(#clip0_2124_45774)">
<path d="M2.00977 14.252C2.00977 20.7911 7.43555 26.2051 13.9629 26.2051C20.502 26.2051 25.916 20.7911 25.916 14.252C25.916 8.4864 21.709 3.59968 16.2246 2.52156V0.857497C16.2246 0.0254661 15.6504 -0.19719 15.0176 0.259841L11.2793 2.87312C10.7402 3.24812 10.7285 3.81062 11.2793 4.19734L15.0059 6.82234C15.6504 7.29109 16.2246 7.06843 16.2246 6.22468V4.56062C20.6543 5.56843 23.9121 9.50593 23.9121 14.252C23.9121 19.7833 19.4942 24.213 13.9629 24.213C8.43165 24.213 3.99024 19.7833 4.00196 14.252C4.01368 10.9239 5.63086 7.9825 8.12696 6.20125C8.60743 5.83796 8.75977 5.28718 8.4668 4.795C8.17383 4.31453 7.5293 4.18562 7.01368 4.58406C4.00196 6.77546 2.00977 10.3145 2.00977 14.252Z" fill="black" fill-opacity="0.85"/>
<path d="M7.33007 18.9161H13.7051C14.42 18.9161 14.7012 18.6348 14.7012 18.1192C14.7012 16.1739 12.6739 14.6505 10.5176 14.6505C8.36132 14.6505 6.33398 16.1739 6.33398 18.1192C6.33398 18.6348 6.61523 18.9161 7.33007 18.9161ZM10.5176 13.7715C11.584 13.7715 12.4981 12.8106 12.4981 11.5684C12.4981 10.3497 11.584 9.43562 10.5176 9.43562C9.46288 9.43562 8.52538 10.3731 8.52538 11.5801C8.52538 12.8106 9.45117 13.7715 10.5176 13.7715Z" fill="black" fill-opacity="0.85"/>
<path d="M13.5059 19.7481H20.666C22.2012 19.7481 22.7168 18.9864 22.7168 18.1544C22.7168 16.2325 20.5137 13.8301 17.0918 13.8301C13.67 13.8301 11.4434 16.2208 11.4434 18.1544C11.4434 18.7989 11.7715 19.7481 13.5059 19.7481Z" fill="white"/>
<path d="M13.5059 18.9161H20.666C21.5684 18.9161 21.8848 18.6583 21.8848 18.1544C21.8848 16.6895 20.045 14.6622 17.0918 14.6622C14.127 14.6622 12.2754 16.6895 12.2754 18.1544C12.2754 18.6583 12.6036 18.9161 13.5059 18.9161ZM17.0918 13.6544C18.3223 13.6544 19.3653 12.5411 19.3653 11.1114C19.3653 9.70515 18.3106 8.6739 17.0918 8.6739C15.8614 8.6739 14.8067 9.74031 14.8067 11.1231C14.8067 12.5411 15.8614 13.6544 17.0918 13.6544Z" fill="black" fill-opacity="0.85"/>
</g>
<defs>
<clipPath id="clip0_2124_45774">
<rect width="23.9062" height="28.4626" fill="white" transform="translate(2.00977 0.0266113)"/>
</clipPath>
</defs>
</svg>
