<svg width="28" height="28" viewBox="0 0 28 28" fill="none" xmlns="http://www.w3.org/2000/svg">
<g clip-path="url(#clip0_2124_88475)">
<path d="M13.9531 25.918C20.4922 25.918 25.9062 20.5039 25.9062 13.9648C25.9062 7.4375 20.4805 2.01172 13.9414 2.01172C7.41406 2.01172 2 7.4375 2 13.9648C2 20.5039 7.42578 25.918 13.9531 25.918Z" fill="black" fill-opacity="0.85"/>
<path d="M7.0625 19.2031V9.75781C7.0625 9.32422 7.32031 9.08984 7.77734 9.08984H8.82031C9.26562 9.08984 9.51172 9.32422 9.51172 9.75781V19.2031C9.51172 19.6367 9.26562 19.8828 8.82031 19.8828H7.77734C7.32031 19.8828 7.0625 19.6367 7.0625 19.2031ZM10.3203 19.2031V11.668C10.3203 11.2461 10.5781 10.9766 11.0117 10.9766H13.2734C13.7305 10.9766 13.9531 11.2461 13.9531 11.668V19.2031C13.9531 19.6367 13.7305 19.8828 13.2734 19.8828H11.0117C10.5781 19.8828 10.3203 19.6367 10.3203 19.2031ZM11.1875 18.2422C11.1875 18.4531 11.3398 18.6172 11.5391 18.6172H12.7578C12.9688 18.6172 13.1211 18.4531 13.1211 18.2422C13.1211 18.043 12.9688 17.8789 12.7578 17.8789H11.5391C11.3281 17.8789 11.1875 18.0312 11.1875 18.2422ZM11.1875 12.6406C11.1875 12.8281 11.3281 13.0039 11.5391 13.0039H12.7578C12.9688 13.0039 13.1211 12.8164 13.1211 12.6406C13.1211 12.4297 12.9688 12.2773 12.7578 12.2773H11.5391C11.3398 12.2773 11.1875 12.4297 11.1875 12.6406ZM14.7852 19.2031V8.22266C14.7852 7.77734 15.0078 7.53125 15.4648 7.53125H16.8359C17.2812 7.53125 17.5273 7.77734 17.5273 8.22266V9.41797L18.4531 9.18359C18.8867 9.07812 19.168 9.30078 19.25 9.73438L21.1484 18.8516C21.2188 19.2852 21.0312 19.5781 20.5977 19.6719L19.7188 19.8828C19.2969 19.9883 19.0039 19.7773 18.9219 19.3555L17.5273 12.6055V19.2031C17.5273 19.6367 17.2812 19.8828 16.8359 19.8828H15.4648C15.0078 19.8828 14.7852 19.6367 14.7852 19.2031Z" fill="white"/>
</g>
<defs>
<clipPath id="clip0_2124_88475">
<rect width="23.9062" height="23.918" fill="white" transform="translate(2 2)"/>
</clipPath>
</defs>
</svg>
