<svg width="28" height="28" viewBox="0 0 28 28" fill="none" xmlns="http://www.w3.org/2000/svg">
<path d="M13.8867 24.4062C18.5742 24.4062 22.4062 20.5977 22.4062 15.8867C22.4062 11.4805 19.043 7.84766 14.7539 7.41406L14.7422 16.0625C14.7422 16.5312 14.332 16.9297 13.8867 16.918C13.3594 16.8945 13.0078 16.543 13.0078 16.0391V7.41406C8.71875 7.84766 5.35547 11.4805 5.35547 15.8867C5.35547 20.6094 9.1875 24.4062 13.8867 24.4062Z" fill="black" fill-opacity="0.85"/>
<path d="M4.89844 26.0352C5.57812 26.0352 6.11719 25.4961 6.11719 24.8164C6.11719 24.1367 5.57812 23.5977 4.89844 23.5977C4.21875 23.5977 3.67969 24.1367 3.67969 24.8164C3.67969 25.4961 4.21875 26.0352 4.89844 26.0352ZM1.21875 17.0938C1.89844 17.0938 2.4375 16.5547 2.4375 15.875C2.4375 15.207 1.89844 14.668 1.21875 14.668C0.539062 14.668 0 15.207 0 15.875C0 16.5547 0.539062 17.0938 1.21875 17.0938ZM4.89844 8.1875C5.57812 8.1875 6.11719 7.64844 6.11719 6.96875C6.11719 6.28906 5.57812 5.75 4.89844 5.75C4.21875 5.75 3.67969 6.28906 3.67969 6.96875C3.67969 7.64844 4.21875 8.1875 4.89844 8.1875ZM13.8867 4.4375C14.5547 4.4375 15.0938 3.89844 15.0938 3.21875C15.0938 2.53906 14.5547 2 13.8867 2C13.207 2 12.668 2.53906 12.668 3.21875C12.668 3.89844 13.207 4.4375 13.8867 4.4375ZM22.8633 8.1875C23.543 8.1875 24.082 7.64844 24.082 6.96875C24.082 6.28906 23.543 5.75 22.8633 5.75C22.1836 5.75 21.6445 6.28906 21.6445 6.96875C21.6445 7.64844 22.1836 8.1875 22.8633 8.1875ZM26.543 17.0938C27.2227 17.0938 27.7617 16.5547 27.7617 15.875C27.7617 15.207 27.2227 14.668 26.543 14.668C25.8633 14.668 25.3242 15.207 25.3242 15.875C25.3242 16.5547 25.8633 17.0938 26.543 17.0938ZM22.8633 26.0352C23.543 26.0352 24.082 25.4961 24.082 24.8164C24.082 24.1367 23.543 23.5977 22.8633 23.5977C22.1836 23.5977 21.6445 24.1367 21.6445 24.8164C21.6445 25.4961 22.1836 26.0352 22.8633 26.0352Z" fill="black" fill-opacity="0.85"/>
</svg>
