<svg width="28" height="28" viewBox="0 0 28 28" fill="none" xmlns="http://www.w3.org/2000/svg">
<path d="M8.87012 25.6299H19.6045C21.3154 25.6299 22.2295 24.6924 22.2295 22.8408V14.7666C22.2295 12.9151 21.3154 11.9893 19.6045 11.9893H8.87012C7.14746 11.9893 6.2334 12.9151 6.2334 14.7666V22.8408C6.2334 24.6924 7.14746 25.6299 8.87012 25.6299ZM8.2959 12.8916H10.1475V8.93067C10.1475 5.97755 12.0459 4.40724 14.2373 4.40724C16.4287 4.40724 18.3271 5.97755 18.3271 8.93067V12.8916H20.1904V9.18849C20.1904 4.78224 17.3076 2.6377 14.2373 2.6377C11.167 2.6377 8.2959 4.78224 8.2959 9.18849V12.8916Z" fill="black" fill-opacity="0.85"/>
<path d="M22.7686 27.2237C23.6709 28.1143 25.124 28.1143 25.9912 27.2002C26.8584 26.3096 26.8584 24.8916 25.9795 24.0127L5.88184 3.92676C5.00293 3.03613 3.5498 3.03613 2.65918 3.92676C1.78027 4.79394 1.78027 6.25879 2.65918 7.13769L22.7686 27.2237Z" fill="white"/>
<path d="M23.7412 26.251C24.0928 26.6026 24.667 26.6026 25.0186 26.251C25.3584 25.8994 25.3701 25.3252 25.0186 24.9737L4.9209 4.88769C4.56934 4.53613 3.9834 4.53613 3.63184 4.88769C3.29199 5.23926 3.29199 5.82519 3.63184 6.16504L23.7412 26.251Z" fill="black" fill-opacity="0.85"/>
</svg>
