<svg width="32" height="28" viewBox="0 0 32 28" fill="none" xmlns="http://www.w3.org/2000/svg">
<path d="M11.4687 25.3048H21.6406C22.1562 25.3048 22.5898 24.8829 22.5898 24.3673C22.5898 23.8517 22.1562 23.4181 21.6406 23.4181H11.4687C10.9531 23.4181 10.5195 23.8517 10.5195 24.3673C10.5195 24.8829 10.9531 25.3048 11.4687 25.3048Z" fill="black" fill-opacity="0.85"/>
<path d="M25.1445 25.3048H30.9687C31.4844 25.3048 31.9062 24.8829 31.9062 24.3673C31.9062 23.8517 31.4844 23.4181 30.9687 23.4181H25.1445C24.6289 23.4181 24.1953 23.8517 24.1953 24.3673C24.1953 24.8829 24.6289 25.3048 25.1445 25.3048Z" fill="black" fill-opacity="0.85"/>
<path d="M1.8242 21.215L6.37107 25.7501C8.78513 28.1642 11.7734 28.1759 14.0469 25.9025L25.3437 14.6056C27.0078 12.9415 27.0078 10.4455 25.3086 8.74623L18.8281 2.2892C17.1289 0.589981 14.6445 0.566544 12.9687 2.24232L1.68357 13.5392C-0.589867 15.8126 -0.578148 18.8009 1.8242 21.215Z" fill="white"/>
<path d="M2.96181 20.09L7.50869 24.6134C9.2665 26.3712 11.247 26.4415 12.9228 24.7775L24.2079 13.4689C25.2509 12.4376 25.2392 10.9493 24.1728 9.88291L17.704 3.41416C16.6376 2.34775 15.1493 2.32432 14.1063 3.36728L2.80947 14.6642C1.14541 16.34 1.21572 18.3204 2.96181 20.09ZM4.29775 18.754C3.39541 17.84 3.36025 16.797 4.204 15.9298L15.372 4.77353C15.6649 4.46885 16.0868 4.46885 16.3798 4.76182L22.8251 11.2072C23.1181 11.5001 23.1063 11.9103 22.8134 12.2033L11.6454 23.3712C10.7899 24.2384 9.74697 24.1915 8.84463 23.2775L4.29775 18.754ZM4.67275 14.09L13.4853 22.9142L14.6571 21.7423L5.86806 12.9533L4.67275 14.09Z" fill="black" fill-opacity="0.85"/>
</svg>
