<svg width="28" height="28" viewBox="0 0 28 28" fill="none" xmlns="http://www.w3.org/2000/svg">
<path d="M13.9531 25.9062C20.4922 25.9062 25.9062 20.4805 25.9062 13.9531C25.9062 7.41406 20.4805 2 13.9414 2C7.41406 2 2 7.41406 2 13.9531C2 20.4805 7.42578 25.9062 13.9531 25.9062ZM13.9531 23.9141C8.42188 23.9141 4.00391 19.4844 4.00391 13.9531C4.00391 8.42188 8.41016 3.99219 13.9414 3.99219C19.4727 3.99219 23.9141 8.42188 23.9141 13.9531C23.9141 19.4844 19.4844 23.9141 13.9531 23.9141Z" fill="black" fill-opacity="0.85"/>
<path d="M11.4219 19.3203C12.043 19.3203 12.3711 18.9102 12.3711 18.2656V15.6992H14.6797C16.9648 15.6992 18.5 14.2695 18.5 12.1133C18.5 9.95703 16.9531 8.50391 14.6914 8.50391H11.4102C10.8125 8.50391 10.4961 8.92578 10.4961 9.55859V18.2656C10.4961 18.8867 10.8242 19.3203 11.4219 19.3203ZM12.3711 14.2695V9.93359H14.4219C15.793 9.93359 16.6484 10.7656 16.6484 12.1133C16.6484 13.4375 15.8047 14.2695 14.4219 14.2695H12.3711Z" fill="black" fill-opacity="0.85"/>
</svg>
