<svg width="28" height="28" viewBox="0 0 28 28" fill="none" xmlns="http://www.w3.org/2000/svg">
<path d="M6.67969 24.5977H20.8945C23.3555 24.5977 24.5742 23.3789 24.5742 20.9648V6.65625C24.5742 4.24219 23.3555 3.02344 20.8945 3.02344H6.67969C4.23047 3.02344 3 4.23047 3 6.65625V20.9648C3 23.3906 4.23047 24.5977 6.67969 24.5977ZM6.70312 22.7109C5.53125 22.7109 4.88672 22.0898 4.88672 20.8711V6.75C4.88672 5.53125 5.53125 4.91016 6.70312 4.91016H20.8711C22.0312 4.91016 22.6875 5.53125 22.6875 6.75V20.8711C22.6875 22.0898 22.0312 22.7109 20.8711 22.7109H6.70312Z" fill="black" fill-opacity="0.85"/>
<path d="M19.8516 15.2227C19.8516 12.4102 17.8125 10.6992 15.082 10.6992H11.5781L10.1953 10.7344L11.1211 10.0078L12.3281 8.83594C12.4922 8.69531 12.5977 8.47266 12.5977 8.22656C12.5977 7.74609 12.2344 7.38281 11.7539 7.38281C11.5078 7.38281 11.3203 7.45312 11.1562 7.62891L8.03906 10.793C7.85156 10.9922 7.73438 11.2383 7.73438 11.5078C7.73438 11.7891 7.85156 12.0234 8.03906 12.2227L11.168 15.4102C11.332 15.5742 11.5195 15.6562 11.7656 15.6562C12.2344 15.6562 12.5977 15.293 12.5977 14.8008C12.5977 14.5898 12.5156 14.3555 12.3398 14.2031L10.875 12.7969L10.1953 12.2813L11.5781 12.3398H15.082C16.8047 12.3398 18.1289 13.3242 18.1289 15.1289C18.1289 16.9805 16.8398 18.1172 15.0703 18.1172C14.9297 18.1172 13.4883 18.1172 13.4414 18.1172C12.9375 18.1172 12.5508 18.4102 12.5508 18.9609C12.5508 19.5 12.9375 19.793 13.4648 19.793C13.5234 19.793 14.9297 19.793 15.0703 19.793C17.8008 19.793 19.8516 18.0352 19.8516 15.2227Z" fill="black" fill-opacity="0.85"/>
</svg>
