<svg width="35" height="32" viewBox="0 0 35 32" fill="none" xmlns="http://www.w3.org/2000/svg">
<g clip-path="url(#clip0_2124_45772)">
<path d="M8.91797 15.7883C11.332 15.7883 13.3125 13.6204 13.3125 10.9602C13.3125 8.35867 11.3555 6.26101 8.91797 6.26101C6.50391 6.26101 4.52344 8.39383 4.52344 10.9837C4.52344 13.6321 6.50391 15.7883 8.91797 15.7883ZM8.91797 14.0423C7.48828 14.0423 6.26953 12.6712 6.26953 10.9837C6.26953 9.33133 7.47656 8.00711 8.91797 8.00711C10.3945 8.00711 11.5781 9.30789 11.5781 10.9602C11.5781 12.6712 10.3594 14.0423 8.91797 14.0423ZM2.40234 26.5344H15.4219C17.0156 26.5344 17.8008 25.8899 17.8008 24.5774C17.8008 20.6868 13.8281 17.1243 8.90625 17.1243C3.9961 17.1243 0.0117188 20.6868 0.0117188 24.5774C0.0117188 25.8899 0.808594 26.5344 2.40234 26.5344ZM2.10938 24.8001C1.875 24.8001 1.75781 24.7063 1.75781 24.4719C1.75781 21.5657 5.07422 18.8587 8.90625 18.8587C12.75 18.8587 16.0547 21.5657 16.0547 24.4719C16.0547 24.7063 15.9492 24.8001 15.7148 24.8001H2.10938Z" fill="black" fill-opacity="0.85"/>
<path d="M15.0586 28.1282H29.7773C32.8945 28.1282 34.2539 26.6516 34.2539 24.6594C34.2539 20.6751 29.6367 15.5423 22.4179 15.5423C15.1875 15.5423 10.582 20.6751 10.582 24.6594C10.582 26.6516 11.9297 28.1282 15.0586 28.1282Z" fill="white"/>
<path d="M22.4179 15.6829C25.207 15.6829 27.4805 13.2102 27.4805 10.1868C27.4805 7.1868 25.2187 4.83133 22.4179 4.83133C19.6406 4.83133 17.3555 7.23367 17.3555 10.2102C17.3555 13.2219 19.6406 15.6829 22.4179 15.6829ZM22.4179 13.9133C20.707 13.9133 19.2422 12.2844 19.2422 10.2102C19.2422 8.17117 20.6836 6.60086 22.4179 6.60086C24.164 6.60086 25.5937 8.13601 25.5937 10.1868C25.5937 12.261 24.1523 13.9133 22.4179 13.9133ZM15.0586 26.5344H29.7773C31.7226 26.5344 32.6484 25.9485 32.6484 24.6594C32.6484 21.5891 28.7695 17.1477 22.4179 17.1477C16.0547 17.1477 12.1758 21.5891 12.1758 24.6594C12.1758 25.9485 13.1015 26.5344 15.0586 26.5344ZM14.4961 24.7649C14.1914 24.7649 14.0625 24.6829 14.0625 24.4368C14.0625 22.5032 17.039 18.9173 22.4179 18.9173C27.7851 18.9173 30.7617 22.5032 30.7617 24.4368C30.7617 24.6829 30.6445 24.7649 30.3398 24.7649H14.4961Z" fill="black" fill-opacity="0.85"/>
<path d="M29.0508 30.6946C29.9531 31.5735 31.4062 31.5735 32.2851 30.6712C33.1523 29.7805 33.164 28.3743 32.2734 27.4719L7.53516 2.73367C6.63281 1.84305 5.19141 1.84305 4.30078 2.73367C3.4336 3.61258 3.4336 5.07742 4.30078 5.95633L29.0508 30.6946Z" fill="white"/>
<path d="M30.0244 29.7219C30.376 30.0735 30.9619 30.0735 31.3018 29.7219C31.6416 29.3587 31.665 28.8079 31.3018 28.4446L6.56347 3.70633C6.20019 3.34305 5.63769 3.35476 5.27441 3.70633C4.93457 4.04617 4.93457 4.64383 5.27441 4.98367L30.0244 29.7219Z" fill="black" fill-opacity="0.85"/>
</g>
<defs>
<clipPath id="clip0_2124_45772">
<rect width="34.2422" height="31.3243" fill="white" transform="translate(0.0117188 0.0266113)"/>
</clipPath>
</defs>
</svg>
