<svg width="28" height="31" viewBox="0 0 28 31" fill="none" xmlns="http://www.w3.org/2000/svg">
<g clip-path="url(#clip0_2124_88510)">
<path d="M10.0591 29.3906H17.2192C21.2973 29.3906 23.313 27.3281 23.2778 23.2031C23.2309 18.4922 23.2075 15.0703 23.0903 12.5039C22.7505 4.95703 20.6294 2.74219 13.645 2.74219C6.66061 2.74219 4.5278 4.95703 4.18795 12.5039C4.07076 15.0703 4.04733 18.4922 4.00045 23.2031C3.9653 27.3281 5.98092 29.3906 10.0591 29.3906ZM10.0591 27.668C6.95358 27.668 5.69967 26.3906 5.72311 23.2266C5.76998 18.5156 5.80514 15.1172 5.92233 12.5859C6.2153 5.95312 7.62155 4.47656 13.645 4.47656C19.6567 4.47656 21.063 5.95312 21.3676 12.5859C21.4731 15.1172 21.5083 18.5156 21.5551 23.2266C21.5786 26.3906 20.3247 27.668 17.2192 27.668H10.0591ZM13.645 0C11.395 0 9.81295 1.52344 9.81295 3.59766H11.4653C11.4653 2.46094 12.3559 1.65234 13.645 1.65234C14.9223 1.65234 15.8247 2.46094 15.8247 3.59766H17.477C17.477 1.52344 15.8833 0 13.645 0ZM9.78951 24.7734H17.5005C18.5551 24.7734 19.2465 24.082 19.2465 23.0391V17.0977C19.2465 16.043 18.5551 15.3516 17.5005 15.3516H9.78951C8.73483 15.3516 8.0317 16.0547 8.0317 17.0977V23.0391C8.0317 24.0703 8.73483 24.7734 9.78951 24.7734ZM10.0708 23.1328C9.83639 23.1328 9.68405 22.9805 9.68405 22.7578V17.3789C9.68405 17.1445 9.83639 16.9922 10.0708 16.9922H17.2075C17.4419 16.9922 17.5942 17.1445 17.5942 17.3789V22.7578C17.5942 22.9805 17.4419 23.1328 17.2075 23.1328H10.0708ZM8.9692 19.9688H18.309V18.4922H8.9692V19.9688Z" fill="black" fill-opacity="0.85"/>
</g>
<defs>
<clipPath id="clip0_2124_88510">
<rect width="19.2782" height="30.5977" fill="white" transform="translate(4)"/>
</clipPath>
</defs>
</svg>
