<svg width="28" height="28" viewBox="0 0 28 28" fill="none" xmlns="http://www.w3.org/2000/svg">
<path d="M13.9531 25.9062C20.4922 25.9062 25.9062 20.4805 25.9062 13.9531C25.9062 7.41406 20.4805 2 13.9414 2C7.41406 2 2 7.41406 2 13.9531C2 20.4805 7.42578 25.9062 13.9531 25.9062Z" fill="black" fill-opacity="0.85"/>
<path d="M9.92188 13.9531C9.92188 11.4687 11.2578 9.81641 13.3438 9.53516V8.63281C13.3438 8.28125 13.6016 8.02344 13.9414 8.02344C14.293 8.02344 14.5391 8.28125 14.5391 8.63281V9.52344C16.0508 9.71094 17.1523 10.5898 17.5039 11.668C17.5391 11.7852 17.5742 11.9141 17.5742 12.0664C17.5742 12.5 17.293 12.793 16.8711 12.793C16.5312 12.793 16.2852 12.6172 16.1445 12.2656C15.8633 11.5977 15.3242 11.1055 14.5391 10.9414V16.9648C15.3359 16.8008 15.875 16.3203 16.1562 15.6289C16.2852 15.3242 16.5195 15.125 16.8594 15.125C17.2812 15.125 17.5859 15.418 17.5859 15.8398C17.5859 15.9922 17.5508 16.1328 17.5156 16.2617C17.1641 17.3398 16.0742 18.207 14.5391 18.3945V19.2852C14.5391 19.6367 14.293 19.8828 13.9414 19.8828C13.6016 19.8828 13.3438 19.6367 13.3438 19.2852V18.3828C11.2578 18.1016 9.92188 16.4609 9.92188 13.9531ZM11.457 13.9531C11.457 15.6055 12.1836 16.6602 13.3438 16.9297V10.9766C12.1836 11.2578 11.457 12.3242 11.457 13.9531Z" fill="white"/>
</svg>
