<svg width="28" height="28" viewBox="0 0 28 28" fill="none" xmlns="http://www.w3.org/2000/svg">
<path d="M13.9531 25.9062C20.4922 25.9062 25.9062 20.4805 25.9062 13.9531C25.9062 7.41406 20.4805 2 13.9414 2C7.41406 2 2 7.41406 2 13.9531C2 20.4805 7.42578 25.9062 13.9531 25.9062ZM13.9531 23.9141C8.42188 23.9141 4.00391 19.4844 4.00391 13.9531C4.00391 8.42188 8.41016 3.99219 13.9414 3.99219C19.4727 3.99219 23.9141 8.42188 23.9141 13.9531C23.9141 19.4844 19.4844 23.9141 13.9531 23.9141Z" fill="black" fill-opacity="0.85"/>
<path d="M16.2607 19.7539C16.624 19.3906 16.6123 18.8281 16.2724 18.5L11.4561 13.9531L16.2724 9.4297C16.624 9.10157 16.6123 8.51563 16.249 8.17579C15.9209 7.85939 15.3818 7.8711 15.0185 8.21095L10.1436 12.8164C9.47559 13.4258 9.47559 14.5039 10.1436 15.1133L15.0185 19.7188C15.3467 20.0234 15.956 20.0469 16.2607 19.7539Z" fill="black" fill-opacity="0.85"/>
</svg>
