<svg width="28" height="33" viewBox="0 0 28 33" fill="none" xmlns="http://www.w3.org/2000/svg">
<path d="M14.0504 1.75781C16.1246 1.75781 17.9996 2.51953 19.441 3.80859C19.9449 4.24219 20.4723 4.27734 20.8238 3.9375C21.2105 3.55078 21.1871 2.98828 20.7769 2.55469C19.0308 0.808594 16.6051 0 14.0504 0C11.5074 0 9.08162 0.808594 7.33553 2.55469C6.91365 2.98828 6.89021 3.55078 7.28865 3.9375C7.6285 4.27734 8.15584 4.24219 8.65975 3.80859C10.1011 2.51953 11.9879 1.75781 14.0504 1.75781Z" fill="black" fill-opacity="0.85"/>
<path d="M14.0507 5.87109C15.082 5.87109 15.9843 6.1875 16.6757 6.76172C17.2733 7.18359 17.7655 7.16016 18.0937 6.82031C18.4569 6.46875 18.4335 5.95312 18.0585 5.56641C17.3437 4.85156 15.7617 4.11328 14.0507 4.11328C12.3515 4.11328 10.7695 4.85156 10.0429 5.56641C9.66792 5.95312 9.64448 6.46875 10.0078 6.82031C10.3359 7.16016 10.8281 7.18359 11.4257 6.76172C12.1289 6.1875 13.0312 5.87109 14.0507 5.87109Z" fill="black" fill-opacity="0.85"/>
<path d="M14.0508 32.0859C18.5508 32.0859 20.5781 31.0664 20.5781 28.4766V13.2656C20.5781 10.5938 18.1055 9.01172 14.0508 9.01172C9.99609 9.01172 7.53516 10.5938 7.53516 13.2656V28.4766C7.53516 31.0664 9.55078 32.0859 14.0508 32.0859ZM14.0508 30.2578C10.6992 30.2578 9.38672 29.7422 9.38672 28.418V13.2656C9.38672 11.7305 11.0156 10.8633 14.0508 10.8633C17.0977 10.8633 18.7266 11.7305 18.7266 13.2656V28.418C18.7266 29.7422 17.4141 30.2578 14.0508 30.2578ZM8.53125 18.2461V15.8086H7.03125C6.45703 15.8086 6 16.2422 6 16.8047V17.25C6 17.8008 6.45703 18.2461 7.03125 18.2461H8.53125ZM19.5703 18.2461H21.0703C21.6562 18.2461 22.1016 17.8008 22.1016 17.25V16.8047C22.1016 16.2422 21.6562 15.8086 21.0703 15.8086H19.5703V18.2461ZM14.0508 18.7266C14.9062 18.7266 16.1836 18.7969 16.6172 18.7969C17.332 18.7969 17.6484 18.5039 17.7188 17.7656L17.8594 16.125C17.9766 14.7773 17.0742 14.2617 14.0508 14.2617C11.0273 14.2617 10.1367 14.7773 10.2539 16.125L10.3945 17.7656C10.4648 18.5039 10.7812 18.7969 11.4844 18.7969C11.9297 18.7969 13.2539 18.7266 14.0508 18.7266ZM14.0508 28.1367C17.0742 28.1367 18.0352 27.6914 17.8242 26.2969L17.6953 25.5C17.5195 24.3867 16.6641 24.0352 14.0508 24.0352C11.4492 24.0352 10.582 24.3867 10.4062 25.5L10.2891 26.2969C10.0781 27.6914 11.0273 28.1367 14.0508 28.1367Z" fill="black" fill-opacity="0.85"/>
</svg>
