<svg width="28" height="28" viewBox="0 0 28 28" fill="none" xmlns="http://www.w3.org/2000/svg">
<g clip-path="url(#clip0_2124_89097)">
<path d="M13.9531 25.9062C20.4922 25.9062 25.9062 20.4805 25.9062 13.9531C25.9062 7.41406 20.4805 2 13.9414 2C7.41406 2 2 7.41406 2 13.9531C2 20.4805 7.42578 25.9062 13.9531 25.9062ZM13.9531 23.9141C8.42188 23.9141 4.00391 19.4844 4.00391 13.9531C4.00391 8.42188 8.41016 3.99219 13.9414 3.99219C19.4727 3.99219 23.9141 8.42188 23.9141 13.9531C23.9141 19.4844 19.4844 23.9141 13.9531 23.9141ZM13.9531 24.9102C14.9727 24.9102 15.957 24.7695 16.8828 24.4766V9.94531C16.8828 9.14844 16.4258 8.62109 15.6523 8.62109H7.78906C7.02734 8.62109 6.55859 9.14844 6.55859 9.94531V21.6406C8.375 23.6562 11 24.9102 13.9531 24.9102ZM9.3125 21.7812C9.14844 21.7812 9.04297 21.6641 9.04297 21.5V20.2578C9.04297 20.0938 9.14844 19.9766 9.3125 19.9766H10.5898C10.7422 19.9766 10.8711 20.0938 10.8711 20.2578V21.5C10.8711 21.6641 10.7422 21.7812 10.5898 21.7812H9.3125ZM12.8281 21.7812C12.6641 21.7812 12.5586 21.6641 12.5586 21.5V20.2578C12.5586 20.0938 12.6641 19.9766 12.8281 19.9766H14.1055C14.2695 19.9766 14.3867 20.0938 14.3867 20.2578V21.5C14.3867 21.6641 14.2695 21.7812 14.1055 21.7812H12.8281ZM9.3125 18.6875C9.14844 18.6875 9.04297 18.5703 9.04297 18.4062V17.1641C9.04297 17.0117 9.14844 16.8828 9.3125 16.8828H10.5898C10.7422 16.8828 10.8711 17.0117 10.8711 17.1641V18.4062C10.8711 18.5703 10.7422 18.6875 10.5898 18.6875H9.3125ZM12.8281 18.6875C12.6641 18.6875 12.5586 18.5703 12.5586 18.4062V17.1641C12.5586 17.0117 12.6641 16.8828 12.8281 16.8828H14.1055C14.2695 16.8828 14.3867 17.0117 14.3867 17.1641V18.4062C14.3867 18.5703 14.2695 18.6875 14.1055 18.6875H12.8281ZM9.3125 15.5938C9.14844 15.5938 9.04297 15.4766 9.04297 15.3125V14.082C9.04297 13.918 9.14844 13.7891 9.3125 13.7891H10.5898C10.7422 13.7891 10.8711 13.918 10.8711 14.082V15.3125C10.8711 15.4766 10.7422 15.5938 10.5898 15.5938H9.3125ZM12.8281 15.5938C12.6641 15.5938 12.5586 15.4766 12.5586 15.3125V14.082C12.5586 13.918 12.6641 13.7891 12.8281 13.7891H14.1055C14.2695 13.7891 14.3867 13.918 14.3867 14.082V15.3125C14.3867 15.4766 14.2695 15.5938 14.1055 15.5938H12.8281ZM9.3125 12.5352C9.14844 12.5352 9.04297 12.4062 9.04297 12.2539V11.0117C9.04297 10.8359 9.14844 10.7305 9.3125 10.7305H10.5898C10.7422 10.7305 10.8711 10.8359 10.8711 11.0117V12.2539C10.8711 12.4062 10.7422 12.5352 10.5898 12.5352H9.3125ZM12.8281 12.5352C12.6641 12.5352 12.5586 12.4062 12.5586 12.2539V11.0117C12.5586 10.8359 12.6641 10.7305 12.8281 10.7305H14.1055C14.2695 10.7305 14.3867 10.8359 14.3867 11.0117V12.2539C14.3867 12.4062 14.2695 12.5352 14.1055 12.5352H12.8281ZM17.7969 24.1602C19.7305 23.3516 21.3477 21.957 22.4258 20.1875V12.9336C22.4258 12.125 21.957 11.6094 21.1953 11.6094H17.7969V24.1602ZM19.5547 20.4219C19.4141 20.4219 19.3203 20.3281 19.3203 20.2109V19.1445C19.3203 19.0273 19.4141 18.9102 19.5547 18.9102H20.6562C20.7734 18.9102 20.8672 19.0273 20.8672 19.1445V20.2109C20.8672 20.3281 20.7734 20.4219 20.6562 20.4219H19.5547ZM19.5547 17.75C19.4141 17.75 19.3203 17.6562 19.3203 17.5156V16.4727C19.3203 16.332 19.4141 16.25 19.5547 16.25H20.6562C20.7734 16.25 20.8672 16.332 20.8672 16.4727V17.5156C20.8672 17.6562 20.7734 17.75 20.6562 17.75H19.5547ZM19.5547 15.0781C19.4141 15.0781 19.3203 14.9844 19.3203 14.8438V13.7891C19.3203 13.6602 19.4141 13.5664 19.5547 13.5664H20.6562C20.7734 13.5664 20.8672 13.6602 20.8672 13.7891V14.8438C20.8672 14.9844 20.7734 15.0781 20.6562 15.0781H19.5547Z" fill="black" fill-opacity="0.85"/>
</g>
<defs>
<clipPath id="clip0_2124_89097">
<rect width="23.9062" height="23.918" fill="white" transform="translate(2 2)"/>
</clipPath>
</defs>
</svg>
