<svg width="28" height="28" viewBox="0 0 28 28" fill="none" xmlns="http://www.w3.org/2000/svg">
<path d="M6.67969 24.5977H20.8945C23.3555 24.5977 24.5742 23.3789 24.5742 20.9648V6.65625C24.5742 4.24219 23.3555 3.02344 20.8945 3.02344H6.67969C4.23047 3.02344 3 4.23047 3 6.65625V20.9648C3 23.3906 4.23047 24.5977 6.67969 24.5977ZM6.70312 22.7109C5.53125 22.7109 4.88672 22.0898 4.88672 20.8711V6.75C4.88672 5.53125 5.53125 4.91016 6.70312 4.91016H20.8711C22.0312 4.91016 22.6875 5.53125 22.6875 6.75V20.8711C22.6875 22.0898 22.0312 22.7109 20.8711 22.7109H6.70312Z" fill="black" fill-opacity="0.85"/>
<path d="M9.71513 17.4023H17.8831C18.4456 17.4023 18.7034 16.7812 18.3636 16.2305L14.4378 9.55077C14.1448 9.04687 13.4534 9.0703 13.1722 9.55077L9.22295 16.2305C8.92998 16.7344 9.15263 17.4023 9.71513 17.4023Z" fill="black" fill-opacity="0.85"/>
</svg>
