<svg width="38" height="28" viewBox="0 0 38 28" fill="none" xmlns="http://www.w3.org/2000/svg">
<g clip-path="url(#clip0_2124_24799)">
<path d="M0 13.9375C0 20.2773 4.52344 23.8633 12.5273 23.8633H24.5156C32.5195 23.8633 37.043 20.2773 37.043 13.9375C37.043 7.58594 32.5195 4 24.5156 4H12.5273C4.52344 4 0 7.58594 0 13.9375ZM1.88672 13.9375C1.88672 8.76953 5.70703 5.88672 12.5273 5.88672H24.5156C31.3242 5.88672 35.1562 8.76953 35.1562 13.9375C35.1562 19.0938 31.3242 21.9766 24.5156 21.9766H12.5273C5.70703 21.9766 1.88672 19.0938 1.88672 13.9375ZM0.960938 13.9258H36.082V12.7422H0.960938V13.9258ZM10.1836 14.7344H26.8477C27.668 14.7344 28.2656 14.1602 28.2656 13.3398C28.2656 12.5078 27.668 11.9336 26.8477 11.9336H10.1836C9.38672 11.9336 8.77734 12.5078 8.77734 13.3398C8.77734 14.1602 9.38672 14.7344 10.1836 14.7344ZM18.5156 18.2383C19.1719 18.2266 19.7109 17.6758 19.7109 17.0664C19.7109 16.3984 19.1719 15.8711 18.5156 15.8711C17.8594 15.8711 17.3203 16.3984 17.3203 17.0664C17.3203 17.7109 17.8594 18.2617 18.5156 18.2383Z" fill="black" fill-opacity="0.85"/>
</g>
<defs>
<clipPath id="clip0_2124_24799">
<rect width="37.043" height="19.8867" fill="white" transform="translate(0 4)"/>
</clipPath>
</defs>
</svg>
