<svg width="28" height="28" viewBox="0 0 28 28" fill="none" xmlns="http://www.w3.org/2000/svg">
<g clip-path="url(#clip0_2124_67775)">
<path d="M2 16.5078C2 17.8555 2.92578 18.7578 4.28516 18.7578H9.58203V24.0664C9.58203 25.4258 10.4844 26.3398 11.832 26.3398H16.5195C17.8672 26.3398 18.7695 25.4258 18.7695 24.0664V18.7578H24.0781C25.4375 18.7578 26.3516 17.8555 26.3516 16.5078V11.8203C26.3516 10.4727 25.4375 9.57031 24.0781 9.57031H18.7695V4.27344C18.7695 2.91406 17.8672 2 16.5195 2H11.832C10.4844 2 9.58203 2.91406 9.58203 4.27344V9.57031H4.27344C2.91406 9.57031 2 10.4727 2 11.8203V16.5078Z" fill="black" fill-opacity="0.85"/>
</g>
<defs>
<clipPath id="clip0_2124_67775">
<rect width="24.3516" height="24.3633" fill="white" transform="translate(2 2)"/>
</clipPath>
</defs>
</svg>
