<svg width="30" height="28" viewBox="0 0 30 28" fill="none" xmlns="http://www.w3.org/2000/svg">
<path d="M3.67969 23.3477H26.0508C28.5117 23.3477 29.7305 22.1289 29.7305 19.7148V7.64453C29.7305 5.23047 28.5117 4.01172 26.0508 4.01172H3.67969C1.23047 4.01172 0 5.21875 0 7.64453V19.7148C0 22.1289 1.23047 23.3477 3.67969 23.3477ZM3.70312 21.4609C2.53125 21.4609 1.88672 20.8281 1.88672 19.6094V7.73828C1.88672 6.51953 2.53125 5.89844 3.70312 5.89844H26.0273C27.1758 5.89844 27.8438 6.51953 27.8438 7.73828V19.6094C27.8438 20.8281 27.1758 21.4609 26.0273 21.4609H3.70312Z" fill="black" fill-opacity="0.85"/>
<path d="M3.94922 17.5703C4.33594 17.5703 4.58203 17.3125 4.64062 16.9492L4.91016 15.6953H6.48047L6.73828 16.9609C6.80859 17.3477 7.04297 17.5703 7.44141 17.5703C7.82812 17.5703 8.09766 17.2773 8.09766 16.8906C8.09766 16.7852 8.08594 16.6094 8.0625 16.5156L6.67969 10.6094C6.57422 10.1055 6.23438 9.78906 5.66016 9.78906C5.16797 9.78906 4.82812 10.0703 4.69922 10.6211L3.32812 16.5039C3.30469 16.6094 3.26953 16.7734 3.26953 16.8906C3.26953 17.2773 3.50391 17.5703 3.94922 17.5703ZM5.0625 14.6055L5.68359 11.6055L6.31641 14.6055H5.0625ZM9.48047 17.5703C9.90234 17.5703 10.1602 17.3125 10.1602 16.8672V15.0039H10.9453C12.2695 15.0039 13.0781 13.9023 13.0781 12.4609C13.0781 11.1719 12.3984 9.89453 11.0391 9.89453H9.48047C9.03516 9.89453 8.8125 10.2109 8.8125 10.5977V16.8672C8.8125 17.3125 9.05859 17.5703 9.48047 17.5703ZM10.1602 13.9258V10.9844H10.6875C11.4492 10.9844 11.707 11.6875 11.707 12.4609C11.707 13.2461 11.4258 13.9258 10.6875 13.9258H10.1602ZM15.832 17.5469C16.2539 17.5469 16.5469 17.2305 16.5469 16.8086V10.5625C16.5469 10.1289 16.2188 9.80078 15.7734 9.80078C15.457 9.80078 15.1992 9.92969 14.8594 10.1992L14.0039 10.9492C13.8164 11.1133 13.6875 11.3125 13.6875 11.5C13.6875 11.8164 13.9336 12.0508 14.2383 12.0508C14.3555 12.0508 14.5078 11.9922 14.6016 11.9219L15.1523 11.4648V16.8086C15.1523 17.2305 15.4336 17.5469 15.832 17.5469ZM18.0703 17.4648H20.8594C21.1641 17.4648 21.4336 17.1836 21.4336 16.8555C21.4336 16.5156 21.1641 16.2578 20.8594 16.2578H19.1016L20.2148 14.6172C20.8008 13.7969 21.3281 12.9062 21.3281 11.9219C21.3281 10.6328 20.6016 9.73047 19.3594 9.73047C18.1758 9.73047 17.4141 10.9375 17.4141 11.7812C17.4141 12.1328 17.6484 12.4141 18.0234 12.4141C18.375 12.4141 18.5742 12.2148 18.668 11.8047C18.7734 11.3008 18.9375 10.9258 19.3477 10.9258C19.8047 10.9258 19.9922 11.3711 19.9922 11.9453C19.9922 12.6133 19.6289 13.3164 19.0898 14.1016L17.6953 16.1758C17.4727 16.4922 17.4258 16.668 17.4258 16.8438C17.4258 17.2305 17.707 17.4648 18.0703 17.4648ZM24.1289 17.6055C25.4297 17.6055 26.2734 16.6094 26.2734 15.3203C26.2734 14.5 25.9336 13.7617 25.2891 13.5039C25.7695 13.1758 26.0859 12.5078 26.0859 11.8281C26.0859 10.7734 25.4414 9.75391 24.082 9.75391C22.957 9.75391 22.1133 10.6094 22.1133 11.6875C22.1133 12.0391 22.3594 12.2969 22.7109 12.2969C23.0391 12.2969 23.2617 12.1328 23.3672 11.793C23.4961 11.2656 23.707 10.9375 24.082 10.9375C24.5156 10.9375 24.7617 11.3242 24.7617 11.9336C24.7617 12.4844 24.5273 13.0234 23.9297 13.0234H23.7188C23.3906 13.0234 23.1562 13.2578 23.1562 13.5742C23.1562 13.9023 23.3906 14.1484 23.7188 14.1484H23.9297C24.6328 14.1484 24.9023 14.5352 24.9023 15.2852C24.9023 15.9531 24.668 16.3984 24.1289 16.3984C23.7188 16.3984 23.4258 16.1289 23.2734 15.5312C23.1914 15.3086 23.0273 15.0391 22.6523 15.0391C22.207 15.0391 22.0078 15.3789 22.0078 15.6719C22.0078 16.4102 22.6406 17.6055 24.1289 17.6055Z" fill="black" fill-opacity="0.85"/>
</svg>
