<svg width="28" height="28" viewBox="0 0 28 28" fill="none" xmlns="http://www.w3.org/2000/svg">
<path d="M2 14.207C2 16.9727 4.14453 19.0117 7.0625 19.0117H21.7812C24.6992 19.0117 26.8438 16.9727 26.8438 14.207C26.8438 13.4102 26.6328 12.6836 26.3516 12.0273L22.8242 3.57812C22.1328 1.90234 20.7148 1 18.7578 1H10.0859C8.14062 1 6.69922 1.90234 6.00781 3.57812L2.49219 12.0273C2.19922 12.707 2 13.4219 2 14.207ZM5.63281 9.61328L7.82422 4.09375C8.19922 3.13281 9.00781 2.64062 10.1797 2.64062H18.6758C19.8477 2.64062 20.6562 3.13281 21.0312 4.09375L23.2227 9.61328C22.7656 9.47266 22.2852 9.39062 21.7812 9.39062H7.0625C6.55859 9.39062 6.07812 9.47266 5.63281 9.61328ZM3.86328 14.207C3.86328 12.4844 5.17578 11.2656 7.0625 11.2656H21.7812C23.668 11.2656 24.9805 12.4844 24.9805 14.207C24.9805 16.0469 23.7852 17.1484 21.7812 17.1484H7.0625C5.17578 17.1484 3.86328 15.9297 3.86328 14.207ZM20.375 14.207C20.375 14.9688 20.9961 15.6016 21.7695 15.5898C22.5195 15.5781 23.1523 14.957 23.1523 14.207C23.1523 13.457 22.5078 12.8242 21.7695 12.8242C21.0195 12.8242 20.375 13.457 20.375 14.207ZM13.2734 24.1797H15.1602V17.8281H13.2734V24.1797ZM4.47266 25.1172H23.9609C24.4766 25.1172 24.9102 24.6953 24.9102 24.1797C24.9102 23.6641 24.4766 23.2305 23.9609 23.2305H4.47266C3.95703 23.2305 3.53516 23.6641 3.53516 24.1797C3.53516 24.6953 3.95703 25.1172 4.47266 25.1172ZM14.2227 26.9219C15.7109 26.9219 16.9414 25.6914 16.9414 24.1914C16.9414 22.7031 15.7109 21.4727 14.2227 21.4727C12.7227 21.4727 11.4922 22.7031 11.4922 24.1914C11.4922 25.6914 12.7227 26.9219 14.2227 26.9219Z" fill="black" fill-opacity="0.85"/>
</svg>
