<svg width="28" height="28" viewBox="0 0 28 28" fill="none" xmlns="http://www.w3.org/2000/svg">
<path d="M14.4453 23.3281C16.1328 23.3281 20.375 17.7266 20.375 15.5703C20.375 14.2695 17.6797 11.9375 16.2266 11.9375C15.5586 11.9375 14.6094 12.7578 14.0234 12.7578C13.4844 12.7578 11.9375 11.5273 11.9375 11.082C11.9375 10.9062 12.2188 10.6836 12.4414 10.6836C12.7812 10.6836 13.9883 11.7734 14.668 11.7734C15.6523 11.7734 16.2969 11.1289 16.2969 10.1094C16.2969 9.75781 16.1562 9.41797 15.8516 8.98438C17.1523 8.32812 19.4961 7.03906 20.2227 5.43359L19.168 4.88281C18.5469 6.35938 15.9336 7.58984 14.5859 8.29297C14.3281 8.42188 14.1875 8.71484 14.4219 9.04297C14.9023 9.71094 15.1133 10.0039 15.1133 10.2617C15.1133 10.4492 14.9727 10.5898 14.7734 10.5898C14.3867 10.5898 13.1094 9.5 12.4414 9.5C11.6562 9.5 10.7539 10.332 10.7539 11.082C10.7539 12.1602 12.9219 13.9414 14.0234 13.9414C14.6797 13.9414 15.8516 13.1094 16.2266 13.1094C17 13.1094 19.1914 14.9492 19.1914 15.5703C19.1914 16.9531 15.4297 22.1445 14.4102 22.1445C14.1406 22.1445 13.8008 21.8867 13.8008 21.6641C13.8008 21.5352 13.8359 21.4414 13.9648 21.0312C14.082 20.6562 14.2578 20.1406 14.2461 19.5781C14.2344 18.8164 13.6133 18.2773 12.2422 17.3047C11.9961 17.1289 11.7383 16.9531 11.4805 16.7539C11.1055 16.4727 10.9531 16.2266 10.9531 15.9453C10.9531 15.793 10.9883 15.6289 11.1055 15.2656C11.2109 14.8906 11.2812 14.5977 11.2812 14.3867C11.2812 13.8594 11.0117 13.5078 10.4492 13.0273C10.3672 12.9688 10.3086 12.9102 10.2383 12.8516L8.36328 11.1758C6.01953 9.07812 6.03125 7.87109 6.98047 6.3125L5.83203 6.07812C4.85938 7.66016 4.73047 9.55859 7.57812 12.0664L9.44141 13.707C9.875 14.0938 10.0977 14.2461 10.0977 14.4219C10.0977 14.6797 9.76953 15.2305 9.76953 15.9453C9.76953 16.6133 10.0977 17.2109 10.7656 17.7031C12.1367 18.7344 13.0625 19.2969 13.0625 19.6016C13.0742 20.3164 12.6172 20.9023 12.6172 21.7109C12.6172 22.5195 13.5898 23.3281 14.4453 23.3281ZM13.9531 25.9062C20.4922 25.9062 25.9062 20.4805 25.9062 13.9531C25.9062 7.41406 20.4805 2 13.9414 2C7.41406 2 2 7.41406 2 13.9531C2 20.4805 7.42578 25.9062 13.9531 25.9062ZM13.9531 24.3125C8.29297 24.3125 3.59375 19.6133 3.59375 13.9531C3.59375 8.29297 8.28125 3.59375 13.9414 3.59375C19.6016 3.59375 24.3125 8.29297 24.3125 13.9531C24.3125 19.6133 19.6133 24.3125 13.9531 24.3125Z" fill="black" fill-opacity="0.85"/>
</svg>
