<svg width="28" height="28" viewBox="0 0 28 28" fill="none" xmlns="http://www.w3.org/2000/svg">
<path d="M6.67969 24.5977H20.8945C23.3555 24.5977 24.5742 23.3789 24.5742 20.9648V6.65625C24.5742 4.24219 23.3555 3.02344 20.8945 3.02344H6.67969C4.23047 3.02344 3 4.23047 3 6.65625V20.9648C3 23.3906 4.23047 24.5977 6.67969 24.5977Z" fill="black" fill-opacity="0.85"/>
<path d="M8.47266 18.668C7.91016 18.668 7.64062 18.2812 7.64062 17.7773V9.79688C7.64062 9.26953 7.92188 8.90625 8.47266 8.90625H12.1055C12.5508 8.90625 12.8672 9.17578 12.8672 9.60938C12.8672 10.1133 12.5039 10.3359 12.1055 10.3359H9.36328V13.043H12C12.3984 13.043 12.668 13.2539 12.668 13.7227C12.668 14.168 12.3867 14.3906 12 14.3906H9.36328V17.25H12.1055C12.5039 17.25 12.8672 17.4727 12.8672 17.9648C12.8672 18.4102 12.5625 18.668 12.1055 18.668H8.47266ZM15.0234 18.668C14.5312 18.668 14.168 18.3633 14.168 17.8594C14.168 17.6016 14.2617 17.3203 14.3438 17.1562L18.1289 10.3945V10.3359H14.9297C14.4961 10.3359 14.1797 10.0547 14.1797 9.62109C14.1797 9.19922 14.4961 8.90625 14.9297 8.90625H19.1367C19.5938 8.90625 20.0039 9.17578 20.0039 9.76172C20.0039 10.0664 19.9219 10.2539 19.8047 10.4414L16.0898 17.1211V17.25H19.4648C19.8984 17.25 20.168 17.5312 20.168 17.9531C20.168 18.3633 19.8984 18.668 19.4648 18.668H15.0234Z" fill="white"/>
</svg>
