<svg width="28" height="31" viewBox="0 0 28 31" fill="none" xmlns="http://www.w3.org/2000/svg">
<path d="M10.4141 13.5352H17.9141C18.957 13.5352 19.5664 12.9492 19.5664 11.918V3.52734C19.5664 2.49609 18.957 1.91016 17.9141 1.91016H10.4141C9.37109 1.91016 8.76172 2.49609 8.76172 3.52734V11.918C8.76172 12.9492 9.37109 13.5352 10.4141 13.5352Z" fill="black" fill-opacity="0.85"/>
<path d="M8.63281 22.0312H19.707C22.0391 22.0312 23.5742 20.5078 23.5742 18.1875V7.24219C23.5742 4.92188 22.0391 3.41016 19.707 3.41016H8.63281C6.30078 3.41016 4.75391 4.92188 4.75391 7.24219V18.1875C4.75391 20.5078 6.30078 22.0312 8.63281 22.0312Z" fill="white"/>
<path d="M8.50391 20.4375H19.8359C21.207 20.4375 21.9805 19.6641 21.9805 18.3164V7.11328C21.9805 5.76562 21.207 5.00391 19.8359 5.00391H8.50391C7.13281 5.00391 6.34766 5.76562 6.34766 7.11328V18.3164C6.34766 19.6641 7.13281 20.4375 8.50391 20.4375Z" fill="black" fill-opacity="0.85"/>
<path d="M7.56641 30.9961H20.7617C24.2539 30.9961 26.3281 28.9453 26.3281 25.4766V12.1875C26.3281 8.71875 24.2539 6.66797 20.7617 6.66797H7.56641C4.07422 6.66797 2 8.70703 2 12.1875V25.4766C2 28.9453 4.07422 30.9961 7.56641 30.9961Z" fill="white"/>
<path d="M7.56641 29.1094H20.7617C23.2109 29.1094 24.4414 27.8906 24.4414 25.4766V12.1875C24.4414 9.77344 23.2109 8.55469 20.7617 8.55469H7.56641C5.11719 8.55469 3.88672 9.76172 3.88672 12.1875V25.4766C3.88672 27.8906 5.11719 29.1094 7.56641 29.1094Z" fill="black" fill-opacity="0.85"/>
<path d="M9.80469 23.6719V18.8672C9.80469 18.0117 10.1562 17.5898 10.8594 17.543V16.125C10.8594 13.8984 12.207 12.4102 14.1641 12.4102C16.1328 12.4102 17.4688 13.8984 17.4688 16.125V17.543C18.1836 17.5898 18.5352 18.0117 18.5352 18.8672V23.6719C18.5352 24.5742 18.1367 24.9961 17.293 24.9961H11.0352C10.2031 24.9961 9.80469 24.5742 9.80469 23.6719ZM12.125 17.5312H16.2031V15.9844C16.2031 14.5781 15.3945 13.6289 14.1641 13.6289C12.9453 13.6289 12.125 14.5781 12.125 15.9844V17.5312Z" fill="white"/>
</svg>
