<svg width="28" height="28" viewBox="0 0 28 28" fill="none" xmlns="http://www.w3.org/2000/svg">
<path d="M2 14.207C2 19.5859 6.61719 22.6094 12.3828 22.6094C12.9219 22.6094 13.4727 22.5859 14.0117 22.5391L13.6016 20.8164C13.2266 20.8398 12.8633 20.8516 12.5 20.8516C7.73047 20.8516 3.76953 18.6484 3.76953 14.2188C3.76953 9.10938 9.62891 5.52344 15.2422 5.52344C20.1523 5.52344 24.3828 8.57031 24.3828 13.1992C24.3828 17.4648 19.7891 21.1211 15.4414 21.1211C14.6094 21.1211 14 20.793 14 20.2305C14 19.2461 15.3594 18.5898 17.0586 18.5898C19.0742 18.5898 20.6094 20.0664 20.6094 22.0938C20.6094 23.5 19.8125 24.8711 18.5117 25.7031C18.1719 25.9492 17.9141 26.1953 17.9141 26.6172C17.9141 27.0508 18.2656 27.4258 18.8281 27.4258C19.0742 27.4258 19.2266 27.3555 19.4609 27.2148C21.2539 26.043 22.3789 24.0859 22.3789 22.0586C22.3789 19.0586 19.9766 16.8086 16.9297 16.8086C14.2344 16.8086 12.2188 18.2148 12.2188 20.2891C12.2188 21.8594 13.5195 22.8789 15.4414 22.8789C20.7383 22.8789 26.1523 18.4844 26.1523 13.2109C26.1523 7.63281 21.1719 3.75391 15.2305 3.75391C8.72656 3.75391 2 8.01953 2 14.207Z" fill="black" fill-opacity="0.85"/>
</svg>
