<svg width="29" height="29" viewBox="0 0 29 29" fill="none" xmlns="http://www.w3.org/2000/svg">
<g clip-path="url(#clip0_2124_46043)">
<path d="M26.0645 15.2109C26.0645 11.2852 24.0137 7.98047 19.0098 6.28125L13.0567 4.30078C12.8575 4.21875 12.6348 4.16016 12.3536 4.16016C11.6504 4.16016 11.0762 4.71094 11.0762 5.55469C11.0762 6.10547 11.3457 6.51562 11.9786 6.78515L16.2442 8.60156C16.5957 8.74219 16.7129 8.91797 16.7129 9.11719C16.7129 9.33984 16.5254 9.55078 16.1973 9.55078H2.52149C1.60742 9.55078 1.00977 10.125 1.00977 10.9453C1.00977 11.7188 1.60742 12.3164 2.52149 12.3164H11.8614C12.3536 12.3164 12.5996 12.5625 12.5996 12.8906C12.5996 13.1836 12.3536 13.4414 11.8614 13.4414H9.07227C8.66211 13.4414 8.43946 13.6758 8.43946 14.1562C8.43946 15.2109 9.11915 16.0547 10.5371 16.0547H11.8614C12.3536 16.0547 12.5996 16.3007 12.5996 16.6289C12.5996 16.9218 12.3536 17.1797 11.8614 17.1797H10.4316C10.0098 17.1797 9.81055 17.4023 9.81055 17.8945C9.81055 18.9961 10.6426 19.8047 11.92 19.8047H12.5996C13.1036 19.8047 13.3379 20.0625 13.3379 20.3789C13.3379 20.6718 13.1036 20.9297 12.5996 20.9297H11.5567C11.2989 20.9297 11.1582 21.082 11.1582 21.3398C11.1582 22.5117 12.4825 23.5547 14.6504 23.5547H16.9942C22.7246 23.5547 26.0645 20.5547 26.0645 15.2109Z" fill="black" fill-opacity="0.85"/>
</g>
<defs>
<clipPath id="clip0_2124_46043">
<rect width="25.0547" height="19.5352" fill="white" transform="translate(1.00977 4.01953)"/>
</clipPath>
</defs>
</svg>
