<svg width="28" height="28" viewBox="0 0 28 28" fill="none" xmlns="http://www.w3.org/2000/svg">
<path d="M5.01562 16.3516C5.01562 21.543 8.83594 27.0977 16.4414 27.0977C19.7227 27.0977 22.2305 25.5508 22.2305 23.6055C22.2305 22.6914 21.5859 22 20.3555 21.8594C20.0391 21.8125 19.7227 21.9414 19.6641 22.3281C19.4648 23.9453 18.3516 25.0938 16.8516 25.0938C15.7852 25.0938 15.1289 24.4609 15.1289 23.6406C15.1289 20.8867 23.2969 20.2891 23.2969 15.0977C23.2969 12.543 21.4922 10.7734 19.0898 10.7734C16.8516 10.7734 15.0938 12.0273 14.2969 13.9492C14.4609 11.0664 12.6797 9.48438 10.4883 9.48438C6.92578 9.48438 5.01562 12.6367 5.01562 16.3516ZM6.78516 16.3516C6.78516 13.1523 8.14453 11.2539 10.3594 11.2539C12.2578 11.2539 13.3594 12.9531 13.4297 15.1094C13.4531 15.9297 14.4609 15.9531 14.7422 15.3906C15.7148 13.4922 17.3906 12.543 19.0547 12.543C20.5078 12.543 21.5273 13.5625 21.5273 15.2148C21.5273 19.0703 13.3945 19.5742 13.3945 23.6406C13.3945 24.1914 13.6055 24.707 13.9688 25.1055C9.14062 24.168 6.78516 20.418 6.78516 16.3516ZM7.85156 3.44922C11.6016 3.44922 15.1758 8.98047 20.8242 8.98047C23.7656 8.98047 25.4531 7.14062 25.4531 4.77344C25.4531 3.98828 25.2539 3.12109 24.832 2.3125C24.3164 1.31641 22.7812 1.97266 23.3555 3.07422C23.6836 3.70703 23.8594 4.35156 23.8594 4.92578C23.8594 6.37891 22.8164 7.32812 20.8242 7.32812C16.0664 7.32812 12.4922 1.79688 7.85156 1.79688C4.81641 1.79688 3 3.80078 3 6.14453C3 6.90625 3.17578 7.67969 3.57422 8.44141C4.08984 9.42578 5.60156 8.74609 5.05078 7.67969C4.74609 7.09375 4.60547 6.51953 4.60547 6.00391C4.60547 4.53906 5.75391 3.44922 7.85156 3.44922ZM13.5586 14.0195L14.2969 14.2422L15.1992 13.6562C15.7148 10.2695 18.082 8.20703 18.082 5.04297C18.082 2.99219 16.6641 1.32812 14.7891 1.32812C13.1367 1.32812 11.8008 2.57031 11.7539 4.25781L13.2891 4.70312C13.3125 3.67188 13.8984 2.98047 14.7891 2.98047C15.75 2.98047 16.4297 3.8125 16.4297 5.04297C16.4297 7.57422 13.875 9.76562 13.5586 14.0195Z" fill="black" fill-opacity="0.85"/>
</svg>
