<svg width="34" height="28" viewBox="0 0 34 28" fill="none" xmlns="http://www.w3.org/2000/svg">
<path d="M0.961085 22.5664H2.48452C3.18765 22.5664 3.53921 22.2266 3.73843 21.7227L10.2072 5.75C10.3712 5.36328 10.1837 5.02344 9.77358 5.02344H9.01187C8.60171 5.02344 8.3439 5.22266 8.16812 5.57422L0.140772 21.2656C-0.187353 21.8633 0.047022 22.5664 0.961085 22.5664ZM31.2892 22.5664H32.8244C33.7267 22.5664 33.9611 21.8633 33.633 21.2656L25.6173 5.57422C25.4298 5.22266 25.172 5.02344 24.7619 5.02344H24.0001C23.59 5.02344 23.4142 5.36328 23.5666 5.75L30.0353 21.7227C30.2345 22.2266 30.5861 22.5664 31.2892 22.5664Z" fill="black" fill-opacity="0.85"/>
<path d="M9.44531 18.6875C9.44531 19.1445 9.80859 19.5078 10.2657 19.5078H11.004C11.4727 19.5078 11.8243 19.1445 11.8243 18.6875V17.7852H21.7852V18.6875C21.7852 19.1445 22.1485 19.5078 22.6172 19.5078H23.3438C23.8125 19.5078 24.1758 19.1445 24.1758 18.6875V14.5273C24.1758 13.4844 24.0235 12.8516 23.379 12.1484L22.7579 11.4688L22.1016 9.59375C21.75 8.57422 21.0586 8.15234 20.1915 8.04688C19.7813 8 18.4219 7.96484 16.8047 7.96484C15.1993 7.96484 13.8399 8 13.418 8.04688C12.5508 8.15234 11.8711 8.57422 11.5079 9.59375L10.8633 11.4688L10.2305 12.1484C9.58593 12.8516 9.44531 13.4844 9.44531 14.5273V18.6875ZM12.5625 11.5039C12.2696 11.5039 12.1641 11.2813 12.2579 11.0117L12.6446 9.85156C12.7852 9.41797 13.0196 9.27734 13.3946 9.23047C13.8282 9.17188 15.0352 9.125 16.8047 9.125C18.586 9.125 19.7813 9.17188 20.2149 9.23047C20.5899 9.27734 20.8243 9.41797 20.9649 9.85156L21.3633 11.0117C21.4571 11.2813 21.3399 11.5039 21.0469 11.5039H12.5625ZM11.6954 15.3945C11.3086 15.3945 11.0274 15.1133 11.0274 14.7266V13.7539C11.0274 13.3789 11.3086 13.0977 11.6954 13.0977C12.0821 13.0977 12.3633 13.3672 12.3633 13.7539V14.7266C12.3633 15.1133 12.0821 15.3945 11.6954 15.3945ZM15.3868 15.0898C15.0821 15.0898 14.8829 14.8906 14.8829 14.5625V13.9297C14.8829 13.6016 15.0821 13.4023 15.3868 13.4023H18.1993C18.5157 13.4023 18.7149 13.6016 18.7149 13.9297V14.5625C18.7149 14.8906 18.5157 15.0898 18.1993 15.0898H15.3868ZM21.9727 15.3945C21.6094 15.3945 21.3165 15.1016 21.3165 14.7266V13.7539C21.3165 13.3789 21.6094 13.0977 21.9727 13.0977C22.3594 13.0977 22.6407 13.3672 22.6407 13.7539V14.7266C22.6407 15.1133 22.3594 15.3945 21.9727 15.3945Z" fill="black" fill-opacity="0.85"/>
</svg>
