<svg width="28" height="28" viewBox="0 0 28 28" fill="none" xmlns="http://www.w3.org/2000/svg">
<path d="M13.9531 25.9062C20.4922 25.9062 25.9062 20.4805 25.9062 13.9531C25.9062 7.41406 20.4805 2 13.9414 2C7.41406 2 2 7.41406 2 13.9531C2 20.4805 7.42578 25.9062 13.9531 25.9062Z" fill="black" fill-opacity="0.85"/>
<path d="M9.33594 19.0039C8.90234 19.0039 8.53906 18.6523 8.53906 18.2188V9.64062C8.53906 9.20703 8.90234 8.84375 9.33594 8.84375C9.76953 8.84375 10.1328 9.20703 10.1328 9.64062V14.7852H10.168L12.793 11.8555C13.1562 11.4336 13.6367 11.5273 13.9062 11.7969C14.1523 12.0195 14.2344 12.418 13.8945 12.7695L11.9141 14.832L13.8945 17.668C14.2344 18.1719 14.0938 18.6055 13.7891 18.8281C13.4609 19.0508 12.9453 19.0273 12.6172 18.5469L10.7656 15.8164L10.1328 16.4258V18.2188C10.1328 18.6523 9.76953 19.0039 9.33594 19.0039ZM16.1562 19.0156C15.7461 19.0156 15.4062 18.6758 15.4062 18.2656V12.3125C15.4062 11.9141 15.7344 11.5977 16.1328 11.5977C16.5312 11.5977 16.8594 11.9141 16.8594 12.3125V13.0508H16.9062C17.0586 12.2773 17.5625 11.6094 18.3242 11.6094C18.5703 11.6094 18.7695 11.6797 18.9336 11.832C19.0508 11.9609 19.1328 12.1367 19.1328 12.3828C19.1328 12.6172 19.0391 12.793 18.8984 12.9102C18.6992 13.0625 18.3945 13.1211 18.1016 13.1211C17.2109 13.1211 16.9062 13.8594 16.9062 14.7383V18.2656C16.9062 18.6758 16.5781 19.0156 16.1562 19.0156ZM19.7188 18.9453C19.1797 18.9453 18.7695 18.5352 18.7695 17.9961C18.7695 17.4922 19.1797 17.0703 19.7188 17.0703C20.2227 17.0703 20.6445 17.4922 20.6445 17.9961C20.6445 18.5352 20.2227 18.9453 19.7188 18.9453Z" fill="white"/>
</svg>
