<svg width="28" height="28" viewBox="0 0 28 28" fill="none" xmlns="http://www.w3.org/2000/svg">
<g clip-path="url(#clip0_2124_32130)">
<path d="M1.2959 24.9648H26.5849C27.1005 24.9648 27.5341 24.5312 27.5341 24.0156C27.5341 23.5 27.1005 23.0781 26.5849 23.0781H1.2959C0.780278 23.0781 0.358398 23.5 0.358398 24.0156C0.358398 24.5312 0.780278 24.9648 1.2959 24.9648Z" fill="black" fill-opacity="0.85"/>
<path d="M5.58522 17.1133L25.6829 11.7578C27.9329 11.1484 29.6204 9.49605 29.011 7.82027C28.4485 6.29683 26.1868 5.92184 24.1712 6.60152L17.1282 9.01558C16.636 9.17965 16.2844 9.16792 15.7219 8.8984L5.90162 4.25777C5.58522 4.11714 5.23365 4.08199 4.91725 4.17574L4.10865 4.42183C3.8274 4.51558 3.73365 4.84371 3.99147 5.11324L10.7063 12.2382L10.929 11.125L4.99928 13.164L7.29615 13.2343L0.42897 10.7968C0.11256 10.6914 -0.168691 10.7382 -0.473378 11.0195L-0.813222 11.3359C-1.0476 11.5468 -1.05932 11.8281 -0.860097 12.039L3.25318 16.6562C3.79225 17.2656 4.58912 17.3828 5.58522 17.1133Z" fill="black" fill-opacity="0.85"/>
</g>
<defs>
<clipPath id="clip0_2124_32130">
<rect width="28" height="28" fill="white"/>
</clipPath>
</defs>
</svg>
