<svg width="32" height="28" viewBox="0 0 32 28" fill="none" xmlns="http://www.w3.org/2000/svg">
<path d="M18.3984 26.5508H30.6562C31.0312 26.5508 31.3477 26.2578 31.3477 25.8594C31.3477 25.4609 31.0312 25.1562 30.6562 25.1562H18.3984C18.0234 25.1562 17.707 25.4609 17.707 25.8594C17.707 26.2578 18.0234 26.5508 18.3984 26.5508Z" fill="black" fill-opacity="0.85"/>
<path d="M24.5273 22.9531C28.7461 22.9531 31.3477 20.4219 31.3477 16.7422V6.69922C31.3477 6.04297 30.9141 5.62109 30.2578 5.62109C29.6016 5.62109 29.1797 6.04297 29.1797 6.69922V16.5664C29.1797 19.1797 27.457 20.9492 24.5273 20.9492C21.5977 20.9492 19.875 19.1797 19.875 16.5664V6.69922C19.875 6.04297 19.4297 5.62109 18.7734 5.62109C18.1172 5.62109 17.707 6.04297 17.707 6.69922V16.7422C17.707 20.4219 20.3086 22.9531 24.5273 22.9531Z" fill="black" fill-opacity="0.85"/>
<path d="M1.98047 22.6484H8.08594C11.6719 22.6484 13.9336 20.7617 13.9336 17.8672C13.9336 15.582 12.2812 13.9297 9.90234 13.8008V13.707C11.8477 13.4375 13.1719 11.9727 13.1719 10.1094C13.1719 7.49609 11.168 5.89062 7.92188 5.89062H1.98047C0.726562 5.89062 0 6.62892 0 7.91798V20.6328C0 21.9102 0.726562 22.6484 1.98047 22.6484ZM3.86719 19.9414V15.2891H6.80859C8.85938 15.2891 10.0078 16.0859 10.0078 17.5859C10.0078 19.1211 8.90625 19.9414 6.89062 19.9414H3.86719ZM3.86719 12.8516V8.64453H6.75C8.39062 8.64453 9.36328 9.39453 9.36328 10.6836C9.36328 12.043 8.28516 12.8516 6.45703 12.8516H3.86719Z" fill="black" fill-opacity="0.85"/>
</svg>
