<svg width="28" height="30" viewBox="0 0 28 30" fill="none" xmlns="http://www.w3.org/2000/svg">
<path d="M13.0195 28.875C13.5117 29.2852 14.1797 29.3438 14.6484 28.8867L18.2695 25.2656C18.7266 24.7969 18.7031 24.0938 18.2578 23.6367L16.4414 21.832L19.0898 19.1953C19.5469 18.75 19.5234 18.0352 19.0781 17.5664L16.6289 15.1055C19.8516 13.5586 21.668 10.9336 21.668 7.81641C21.668 3.49219 18.1641 0 13.8398 0C9.48047 0 6 3.46875 6 7.81641C6 10.957 7.80469 13.7461 10.6523 15V26.0625C10.6523 26.4492 10.7695 26.8945 11.1094 27.1992L13.0195 28.875ZM13.8398 27.0234L12.5391 25.7344V13.6406C9.78516 13.0195 7.875 10.6406 7.875 7.81641C7.875 4.53516 10.5352 1.88672 13.8398 1.88672C17.1328 1.88672 19.7812 4.53516 19.7812 7.81641C19.7812 10.6172 17.8594 13.0195 14.918 13.7227V16.0898L17.2148 18.3984L14.7305 20.8477V22.793L16.3945 24.4336L13.8398 27.0234ZM13.8398 7.46484C14.8828 7.46484 15.7383 6.60938 15.7383 5.55469C15.7383 4.51172 14.8828 3.66797 13.8398 3.66797C12.7734 3.66797 11.9414 4.51172 11.9414 5.55469C11.9414 6.60938 12.7852 7.46484 13.8398 7.46484Z" fill="black" fill-opacity="0.85"/>
</svg>
