<svg width="28" height="28" viewBox="0 0 28 28" fill="none" xmlns="http://www.w3.org/2000/svg">
<path d="M9.23438 24.0352H18.3984C25.1953 24.0352 27.6328 21.5156 27.6328 15.2461V11.8008C27.6328 5.53125 25.1953 3 18.3984 3H9.23438C2.4375 3 0 5.53125 0 11.8008V15.2461C0 21.5156 2.4375 24.0352 9.23438 24.0352Z" fill="black" fill-opacity="0.85"/>
<path d="M8.29688 18.5273C7.73438 18.5273 7.41797 18.1875 7.41797 17.6133V9.55078C7.41797 8.95312 7.78125 8.61328 8.28516 8.61328H10.5586C12.3281 8.61328 13.3711 10.0664 13.3711 11.9063C13.3711 13.7695 12.3047 15.1758 10.4531 15.1758H9.17578V17.6133C9.17578 18.1758 8.88281 18.5273 8.29688 18.5273ZM9.17578 13.7812H10.1016C11.1797 13.7812 11.6133 12.9844 11.6133 11.9063C11.6133 10.7695 11.1211 10.0547 10.1133 10.0547H9.17578V13.7812ZM15.3867 18.4102C14.8359 18.4102 14.5781 18.1172 14.5781 17.707C14.5781 17.332 14.8008 17.0273 15.0234 16.7344L17.1211 14.0625C17.7656 13.2422 18.4336 12.2578 18.4336 11.2852C18.4336 10.4297 18.0352 9.79688 17.2969 9.79688C16.6172 9.79688 16.3125 10.3008 16.0781 11.1094C15.9609 11.5078 15.7148 11.6953 15.3164 11.6953C14.8594 11.6953 14.5898 11.3789 14.5898 10.9219C14.5898 9.66797 15.7617 8.39062 17.3086 8.39062C18.9844 8.39062 20.0977 9.57422 20.0977 11.2031C20.0977 12.2695 19.6992 13.1602 18.4805 14.6602L16.7227 16.8867V16.9922H19.582C19.9922 16.9922 20.2734 17.2383 20.2734 17.707C20.2734 18.1289 20.0156 18.4102 19.582 18.4102H15.3867Z" fill="white"/>
</svg>
