<svg width="29" height="28" viewBox="0 0 29 28" fill="none" xmlns="http://www.w3.org/2000/svg">
<g clip-path="url(#clip0_2124_88813)">
<path d="M4.76953 19.3672H5.89453V9.35938H4.76953V19.3672ZM22.7695 19.3672H23.8945V9.35938H22.7695V19.3672ZM14.332 14.9023C17.8594 14.9023 20.4727 12.6992 20.7305 9.35938H19.4766C19.2773 12.0547 17.168 13.8359 14.332 13.8359C11.4844 13.8359 9.375 12.0547 9.17578 9.35938H7.92188C8.19141 12.6992 10.8047 14.9023 14.332 14.9023Z" fill="black" fill-opacity="0.85"/>
<path d="M3.17578 20.7148H25.4883C27.5859 20.7148 28.6641 19.6367 28.6641 17.5625V11.1641C28.6641 9.08984 27.5742 8.01172 25.4766 8.01172H3.16406C1.06641 8.01172 0 9.08984 0 11.1641V17.5625C0 19.6367 1.07812 20.7148 3.17578 20.7148ZM3.45703 18.8281C2.46094 18.8281 1.88672 18.2773 1.88672 17.2227V11.5039C1.88672 10.4492 2.46094 9.89844 3.46875 9.89844H25.1953C26.2031 9.89844 26.7656 10.4492 26.7656 11.5039V17.2227C26.7656 18.2773 26.2031 18.8281 25.1836 18.8281H3.45703ZM14.332 12.1016C15.9258 12.1016 17.0977 11.1055 17.2266 9.59375H11.4375C11.5547 11.1055 12.7266 12.1016 14.332 12.1016Z" fill="black" fill-opacity="0.85"/>
</g>
<defs>
<clipPath id="clip0_2124_88813">
<rect width="28.6641" height="12.7148" fill="white" transform="translate(0 8)"/>
</clipPath>
</defs>
</svg>
