<svg width="28" height="28" viewBox="0 0 28 28" fill="none" xmlns="http://www.w3.org/2000/svg">
<path d="M8.63672 24.9922H19.3594C21.082 24.9922 21.9961 24.0547 21.9961 22.2031V14.1289C21.9961 12.2773 21.082 11.3516 19.3594 11.3516H8.63672C6.91406 11.3516 6 12.2773 6 14.1289V22.2031C6 24.0547 6.91406 24.9922 8.63672 24.9922ZM8.05078 12.2539H9.91406V8.29297C9.91406 5.33984 11.8008 3.76953 13.9922 3.76953C16.1836 3.76953 18.0938 5.33984 18.0938 8.29297V12.2539H19.9453V8.55078C19.9453 4.14453 17.0625 2 13.9922 2C10.9336 2 8.05078 4.14453 8.05078 8.55078V12.2539Z" fill="black" fill-opacity="0.85"/>
<path d="M13.9922 19.4258C13.5469 19.4258 13.2891 19.1562 13.2773 18.6992L13.1602 14.7266C13.1484 14.2695 13.5 13.9297 13.9922 13.9297C14.4727 13.9297 14.8359 14.2812 14.8242 14.7383L14.707 18.6992C14.6953 19.1562 14.4375 19.4258 13.9922 19.4258ZM13.9805 22.1914C13.4648 22.1914 13.0078 21.7578 13.0078 21.2305C13.0078 20.6914 13.4531 20.2578 13.9805 20.2578C14.5313 20.2578 14.9883 20.6797 14.9883 21.2305C14.9883 21.7578 14.5313 22.1914 13.9805 22.1914Z" fill="white"/>
</svg>
