<svg width="28" height="29" viewBox="0 0 28 29" fill="none" xmlns="http://www.w3.org/2000/svg">
<g clip-path="url(#clip0_2124_88343)">
<path d="M9.19922 5.35547H11.0625V2.84766C11.0625 2.17969 11.5312 1.74609 12.2344 1.74609H16.4297C17.1328 1.74609 17.6016 2.17969 17.6016 2.84766V5.35547H19.4648V2.73047C19.4648 1.03125 18.3633 0 16.5586 0H12.1055C10.3008 0 9.19922 1.03125 9.19922 2.73047V5.35547ZM3.87891 6.29297H24.8203C25.3008 6.29297 25.6875 5.88281 25.6875 5.40234C25.6875 4.92188 25.3008 4.52344 24.8203 4.52344H3.87891C3.41016 4.52344 3 4.92188 3 5.40234C3 5.89453 3.41016 6.29297 3.87891 6.29297ZM8.97656 26.0977H19.7227C21.3984 26.0977 22.5234 25.0078 22.6055 23.332L23.4258 6.07031H21.5391L20.7539 23.1328C20.7305 23.8359 20.2266 24.3281 19.5352 24.3281H9.14062C8.47266 24.3281 7.96875 23.8242 7.93359 23.1328L7.10156 6.07031H5.26172L6.09375 23.3438C6.17578 25.0195 7.27734 26.0977 8.97656 26.0977Z" fill="black" fill-opacity="0.85"/>
<path d="M14.3203 20.3906C14.7539 20.3906 15.0586 20.0742 15.0586 19.6523V14.5781L14.9883 12.4688L16.0195 13.6992L17.1562 14.8477C17.2852 14.9883 17.4609 15.0703 17.6719 15.0703C18.082 15.0703 18.3984 14.7656 18.3984 14.3555C18.3984 14.1562 18.3164 13.9805 18.1875 13.8516L14.8945 10.5703C14.7188 10.3828 14.543 10.2773 14.3203 10.2773C14.1094 10.2773 13.957 10.3711 13.7578 10.5703L10.4531 13.8516C10.3242 13.9805 10.2539 14.1562 10.2539 14.3555C10.2539 14.7656 10.5586 15.0703 10.9687 15.0703C11.1797 15.0703 11.3555 14.9766 11.4844 14.8477L12.6328 13.6992L13.6641 12.4805L13.582 14.5781V19.6523C13.582 20.0742 13.8867 20.3906 14.3203 20.3906Z" fill="black" fill-opacity="0.85"/>
</g>
<defs>
<clipPath id="clip0_2124_88343">
<rect width="22.6875" height="28.1836" fill="white" transform="translate(3)"/>
</clipPath>
</defs>
</svg>
