<svg width="28" height="28" viewBox="0 0 28 28" fill="none" xmlns="http://www.w3.org/2000/svg">
<path d="M13.9531 25.9062C20.4922 25.9062 25.9062 20.4805 25.9062 13.9531C25.9062 7.41406 20.4805 2 13.9414 2C7.41406 2 2 7.41406 2 13.9531C2 20.4805 7.42578 25.9062 13.9531 25.9062ZM13.9531 23.9141C8.42188 23.9141 4.00391 19.4844 4.00391 13.9531C4.00391 8.42188 8.41016 3.99219 13.9414 3.99219C19.4727 3.99219 23.9141 8.42188 23.9141 13.9531C23.9141 19.4844 19.4844 23.9141 13.9531 23.9141Z" fill="black" fill-opacity="0.85"/>
<path d="M8.23438 9.5C8.12891 10.0391 8.05859 10.7422 8.05859 11.2109C8.05859 15.1719 10.4141 17.8086 14.0117 17.8086C16.332 17.8086 17.4219 16.4492 17.6797 15.9805H17.0117C17.7031 16.6953 18.0078 17.457 18.3594 18.5703C18.4297 18.8164 18.6172 18.9102 18.793 18.9102C19.1797 18.9102 19.5078 18.5703 19.5078 18.1016C19.5078 17.375 18.4648 16.0977 17.9023 15.5938C15.5703 13.4609 12.0547 14.7148 11.1406 12.3477C11.0703 12.1719 11.2578 12.0195 11.457 12.1836C13.3438 13.8359 15.6055 12.5 17.9023 14.5742C18.0898 14.75 18.2891 14.6562 18.3359 14.4805C18.3594 14.3164 18.3711 14.0703 18.3711 13.8359C18.3711 11.2578 16.5664 10.0156 14.0352 10.0156C13.1797 10.0156 12.207 10.2266 11.4219 10.2266C10.5664 10.2266 9.61719 10.1211 8.84375 9.33594C8.62109 9.11328 8.30469 9.13672 8.23438 9.5Z" fill="black" fill-opacity="0.85"/>
</svg>
