<svg width="28" height="28" viewBox="0 0 28 28" fill="none" xmlns="http://www.w3.org/2000/svg">
<g clip-path="url(#clip0_2124_88656)">
<path d="M13.9531 25.918C20.4922 25.918 25.9062 20.5039 25.9062 13.9648C25.9062 7.4375 20.4805 2.01172 13.9414 2.01172C7.41406 2.01172 2 7.4375 2 13.9648C2 20.5039 7.42578 25.918 13.9531 25.918Z" fill="black" fill-opacity="0.85"/>
<path d="M9.35938 20.457C9.05469 20.457 8.78516 20.1992 8.78516 19.8945V9.75781C8.78516 9.24219 9.04297 8.86719 9.53516 8.64453C9.96875 8.43359 10.3437 8.32812 11.293 8.32812C13.4609 8.32812 14.832 9.40625 16.8828 9.40625C17.8789 9.40625 18.4062 9.14844 18.7578 9.14844C19.25 9.14844 19.4375 9.40625 19.4375 9.76953V15.7109C19.4375 16.2617 19.2031 16.6133 18.6992 16.8594C18.2422 17.0586 17.8672 17.1523 16.9414 17.1523C14.8555 17.1523 13.4961 16.0977 11.3516 16.0977C10.6016 16.0977 10.1328 16.2383 9.89844 16.332V19.8945C9.89844 20.2109 9.6875 20.457 9.35938 20.457Z" fill="white"/>
</g>
<defs>
<clipPath id="clip0_2124_88656">
<rect width="23.9062" height="23.918" fill="white" transform="translate(2 2)"/>
</clipPath>
</defs>
</svg>
