<svg width="29" height="28" viewBox="0 0 29 28" fill="none" xmlns="http://www.w3.org/2000/svg">
<path d="M21.3281 13.5234C22.7461 13.5234 23.8828 12.3867 23.8828 10.9688C23.8828 9.55079 22.7461 8.40235 21.3281 8.40235C19.8984 8.40235 18.7617 9.55079 18.7617 10.9688C18.7617 12.3867 19.8984 13.5234 21.3281 13.5234ZM13.1836 22.7109H17.8008L22.5938 17.918C22.8281 17.6836 23.2148 17.6836 23.4375 17.918L25.4062 19.875L23.3672 21.9258C22.3242 22.9805 23.9062 24.5742 24.9609 23.5195L27.8086 20.6836C28.2773 20.2148 28.2656 19.5234 27.8086 19.0664L24.4922 15.7617C23.8477 15.1172 23.0039 14.7539 22.1016 14.7539H13.4766V17.0391H16.3477C16.5586 17.0391 16.6523 17.25 16.5117 17.4023L13.1836 20.7188V22.7109ZM1.62891 22.7109H13.875V1.21876C13.875 0.35157 12.6094 -0.0234298 12.0586 0.972664L0.832031 21.1758C0.386719 21.9961 0.832031 22.7109 1.62891 22.7109ZM2.47266 21.4102C2.33203 21.4102 2.28516 21.2812 2.33203 21.1992L12.293 3.2461C12.375 3.10548 12.5742 3.14063 12.5742 3.29298V21.4102H2.47266ZM0.65625 27.5039H1.83984C4.98047 27.5039 5.68359 25.5703 7.86328 25.5703C10.0312 25.5703 10.7344 27.5039 13.875 27.5039C17.0039 27.5039 17.7188 25.5703 19.8867 25.5703C22.0547 25.5703 22.7695 27.5039 25.8984 27.5039H27.0938C27.457 27.5039 27.7383 27.2227 27.7383 26.8594C27.7383 26.4961 27.457 26.2031 27.0938 26.2031H25.8984C23.6484 26.2031 22.8867 24.2695 19.8867 24.2695C16.8867 24.2695 16.125 26.2031 13.875 26.2031C11.625 26.2031 10.8633 24.2695 7.86328 24.2695C4.85156 24.2695 4.10156 26.2031 1.83984 26.2031H0.65625C0.292969 26.2031 0 26.4961 0 26.8594C0 27.2227 0.292969 27.5039 0.65625 27.5039Z" fill="black" fill-opacity="0.85"/>
</svg>
