<svg width="28" height="28" viewBox="0 0 28 28" fill="none" xmlns="http://www.w3.org/2000/svg">
<path d="M8.91016 24.5508H18.8242C20.0078 24.5508 20.7344 23.8828 20.7344 22.6289V22.3945C20.7344 19.5703 17.7461 16.5703 16.1055 14.9414C15.3672 14.2031 15.3086 13.3828 16.1055 12.5859C17.7461 10.9688 20.7344 7.98047 20.7344 5.13281V4.93359C20.7344 3.67969 20.0078 3 18.8242 3H8.91016C7.72656 3 7 3.67969 7 4.93359V5.13281C7 7.98047 10 10.9688 11.6289 12.5859C12.4375 13.3828 12.3789 14.2031 11.6289 14.9414C10 16.5703 7 19.5703 7 22.3945V22.6289C7 23.8828 7.72656 24.5508 8.91016 24.5508Z" fill="black" fill-opacity="0.85"/>
<path d="M14.6756 11.9531C14.0896 12.4336 13.6443 12.4336 13.0584 11.9531C12.1795 11.2031 9.68338 8.63672 8.92167 7.28906C8.72245 6.91406 8.82791 6.62109 9.1912 6.62109H18.5428C18.906 6.62109 19.0232 6.91406 18.8123 7.28906C18.0506 8.63672 15.5662 11.2031 14.6756 11.9531Z" fill="black" fill-opacity="0.85"/>
</svg>
