<svg width="28" height="28" viewBox="0 0 28 28" fill="none" xmlns="http://www.w3.org/2000/svg">
<path d="M17.8633 26.1719C22.1055 26.1719 24.8477 23.4414 24.8477 19.1992V13.4219C24.8477 11.8164 24.3438 10.5273 23.3477 9.61328L15.9531 2.80469C14.5 1.48047 12.9648 1 11.1367 1H7.51562C5.40625 1 4 2.42969 4 4.55078V22.6562C4 24.8594 5.33594 26.1719 7.55078 26.1719H17.8633Z" fill="black" fill-opacity="0.85"/>
<path d="M9.41406 14.4648C8.96875 14.4648 8.65234 14.1836 8.65234 13.75C8.65234 13.3281 8.96875 13.0469 9.41406 13.0469H19.2109C19.6562 13.0469 19.9609 13.3281 19.9609 13.75C19.9609 14.1836 19.6562 14.4648 19.2109 14.4648H9.41406ZM9.41406 17.8633C8.96875 17.8633 8.65234 17.582 8.65234 17.1602C8.65234 16.7266 8.96875 16.4453 9.41406 16.4453H19.2109C19.6562 16.4453 19.9609 16.7266 19.9609 17.1602C19.9609 17.582 19.6562 17.8633 19.2109 17.8633H9.41406ZM9.41406 21.2734C8.96875 21.2734 8.65234 20.9922 8.65234 20.5586C8.65234 20.1367 8.96875 19.8555 9.41406 19.8555H19.2109C19.6562 19.8555 19.9609 20.1367 19.9609 20.5586C19.9609 20.9922 19.6562 21.2734 19.2109 21.2734H9.41406Z" fill="white"/>
</svg>
