<svg width="28" height="28" viewBox="0 0 28 28" fill="none" xmlns="http://www.w3.org/2000/svg">
<g clip-path="url(#clip0_2124_49993)">
<path d="M8.11719 25.7882C11.3399 25.7882 13.0508 22.589 14.7031 17.0226H14.8672V23.2921C14.8672 25.4484 16.0156 26.632 18.1016 26.632C21.8633 26.632 25.7774 23.2335 25.7774 19.9171C25.7774 16.7062 22.5781 14.9835 17.0235 13.3429V13.1671H23.2813C25.4375 13.1671 26.6211 12.0187 26.6211 9.93274C26.6211 6.18274 23.2344 2.25696 19.918 2.25696C16.7071 2.25696 14.9844 5.43274 13.3438 10.9874H13.168V4.76477C13.168 2.60852 12.0078 1.41321 9.9336 1.41321C6.17188 1.42493 2.25782 4.81165 2.25782 8.12805C2.25782 11.3273 5.42188 13.0499 10.9766 14.7023V14.8663H4.75391C2.59766 14.8663 1.41406 16.0265 1.41406 18.1124C1.41406 21.8741 4.80078 25.7882 8.11719 25.7882ZM3.20703 18.1124C3.20703 17.0226 3.59375 16.6593 4.75391 16.6593H12.875C11.4453 21.4054 10.3086 23.9835 8.11719 23.9835C5.77344 23.9835 3.20703 20.8898 3.20703 18.1124ZM4.05078 8.12805C4.05078 5.7843 7.15625 3.20618 9.9336 3.20618C11.0117 3.20618 11.375 3.60462 11.375 4.76477V12.8859C6.62891 11.4562 4.05078 10.3195 4.05078 8.12805ZM24.8281 9.93274C24.8281 11.0226 24.4414 11.3741 23.2813 11.3741H15.1602C16.5899 6.62805 17.7266 4.04993 19.918 4.04993C22.25 4.04993 24.8281 7.16712 24.8281 9.93274ZM23.9844 19.9171C23.9844 22.2609 20.8789 24.839 18.1016 24.8273C17.0235 24.8273 16.6719 24.4523 16.6719 23.2921V15.171C21.418 16.6007 23.9844 17.7374 23.9844 19.9171Z" fill="black" fill-opacity="0.85"/>
<path d="M23.1631 26.3976C24.0654 27.2882 25.5068 27.2765 26.3857 26.3624C27.2646 25.4718 27.2529 24.0538 26.374 23.1749L4.88184 1.67103C4.00293 0.792121 2.5498 0.780403 1.65918 1.67103C0.780273 2.53822 0.780273 4.00305 1.65918 4.88196L23.1631 26.3976Z" fill="white"/>
<path d="M24.1357 25.4249C24.4873 25.7765 25.0615 25.7648 25.4131 25.4132C25.7529 25.0616 25.7646 24.4874 25.4131 24.1359L3.90918 2.64369C3.55762 2.29213 2.9834 2.28041 2.62012 2.64369C2.28027 2.98353 2.28027 3.56947 2.62012 3.92103L24.1357 25.4249Z" fill="black" fill-opacity="0.85"/>
</g>
<defs>
<clipPath id="clip0_2124_49993">
<rect width="26.0391" height="26.0569" fill="white" transform="translate(1 1)"/>
</clipPath>
</defs>
</svg>
