<svg width="28" height="28" viewBox="0 0 28 28" fill="none" xmlns="http://www.w3.org/2000/svg">
<path d="M6.67969 24.5977H20.8945C23.3555 24.5977 24.5742 23.3789 24.5742 20.9648V6.65625C24.5742 4.24219 23.3555 3.02344 20.8945 3.02344H6.67969C4.23047 3.02344 3 4.23047 3 6.65625V20.9648C3 23.3906 4.23047 24.5977 6.67969 24.5977ZM6.70312 22.7109C5.53125 22.7109 4.88672 22.0898 4.88672 20.8711V6.75C4.88672 5.53125 5.53125 4.91016 6.70312 4.91016H20.8711C22.0312 4.91016 22.6875 5.53125 22.6875 6.75V20.8711C22.6875 22.0898 22.0312 22.7109 20.8711 22.7109H6.70312Z" fill="black" fill-opacity="0.85"/>
<path d="M10.125 18.7734C12.457 18.7734 13.1602 16.1484 13.1602 13.793C13.1602 11.4375 12.457 8.8125 10.125 8.8125C7.79297 8.8125 7.08984 11.4375 7.08984 13.793C7.08984 16.1484 7.79297 18.7734 10.125 18.7734ZM10.125 17.3789C9.16406 17.3789 8.80078 15.8203 8.80078 13.793C8.80078 11.7539 9.16406 10.1953 10.125 10.1953C11.0859 10.1953 11.4492 11.7539 11.4492 13.793C11.4492 15.8203 11.0859 17.3789 10.125 17.3789ZM17.3672 18.7734C19.1953 18.7734 20.1914 17.2383 20.1914 15.3867C20.1914 13.7695 19.418 12.293 17.9062 12.293C17.2266 12.293 16.582 12.6094 16.2773 13.2891H16.2305L16.418 10.4414H19.1719C19.582 10.4414 19.8281 10.1602 19.8281 9.75C19.8281 9.36328 19.5586 9.05859 19.1719 9.05859H15.9492C15.3398 9.05859 15.0586 9.45703 15.0234 10.0664L14.8359 13.2773C14.8125 13.4531 14.8125 13.6406 14.8125 13.793C14.8125 14.2383 15.0352 14.6367 15.5859 14.6367C15.9023 14.6367 16.0781 14.5078 16.3242 14.1914C16.5938 13.8047 16.8867 13.5234 17.3672 13.5234C18.2227 13.5234 18.5625 14.5664 18.5625 15.4336C18.5625 16.4062 18.2109 17.4023 17.3438 17.4023C16.6875 17.4023 16.3125 16.9336 16.1016 16.2891C15.9609 15.9141 15.7031 15.7383 15.3867 15.7383C14.9648 15.7383 14.6836 16.0078 14.6836 16.4414C14.6836 16.7109 14.7539 16.9688 14.8594 17.2031C15.2695 18.1523 16.3008 18.7734 17.3672 18.7734Z" fill="black" fill-opacity="0.85"/>
</svg>
