<svg width="28" height="28" viewBox="0 0 28 28" fill="none" xmlns="http://www.w3.org/2000/svg">
<path d="M13.9531 25.918C20.4922 25.918 25.9062 20.5039 25.9062 13.9648C25.9062 7.4375 20.4805 2.01172 13.9414 2.01172C7.41406 2.01172 2 7.4375 2 13.9648C2 20.5039 7.42578 25.918 13.9531 25.918Z" fill="black" fill-opacity="0.85"/>
<path d="M21.8047 13.9766C21.8047 14.7852 20.7383 15.3945 19.4258 15.3945H16.8359C16.5195 15.3945 16.4258 15.4414 16.2266 15.6523L11.9141 20.3516C11.7617 20.5156 11.5625 20.6211 11.3516 20.6211H10.6016C10.3438 20.6211 10.2031 20.375 10.3086 20.1172L12.4648 15.3711L9.45312 15.0312L8.32812 17.082C8.22266 17.2812 8.04688 17.375 7.78906 17.375H7.50781C7.27344 17.375 7.12109 17.2109 7.12109 16.9766V10.9648C7.12109 10.7305 7.27344 10.5781 7.50781 10.5781H7.78906C8.04688 10.5781 8.22266 10.6719 8.32812 10.8711L9.45312 12.9219L12.4648 12.582L10.3086 7.83594C10.2031 7.57812 10.3438 7.33203 10.6016 7.33203H11.3516C11.5625 7.33203 11.7617 7.42578 11.9141 7.60156L16.2266 12.3008C16.4258 12.5117 16.5195 12.5586 16.8359 12.5586H19.4258C20.7383 12.5586 21.8047 13.168 21.8047 13.9766Z" fill="white"/>
</svg>
