<svg width="28" height="28" viewBox="0 0 28 28" fill="none" xmlns="http://www.w3.org/2000/svg">
<path d="M13.9531 25.9062C20.4922 25.9062 25.9062 20.4805 25.9062 13.9531C25.9062 7.41406 20.4805 2 13.9414 2C7.41406 2 2 7.41406 2 13.9531C2 20.4805 7.42578 25.9062 13.9531 25.9062Z" fill="black" fill-opacity="0.85"/>
<path d="M10.8008 19.4961C10.2031 19.4961 9.83984 19.0859 9.83984 18.3945V9.28906C9.83984 8.59766 10.2031 8.1875 10.8008 8.1875C11.4336 8.1875 11.7852 8.59766 11.7852 9.28906V13.4258H11.8555L16.6133 8.57422C16.8945 8.30469 17.1055 8.1875 17.3984 8.1875C17.9023 8.1875 18.2891 8.5625 18.2891 9.01953C18.2891 9.28906 18.207 9.48828 17.9844 9.72266L14.6797 13.1211L18.2773 17.8438C18.4531 18.0781 18.5586 18.3359 18.5586 18.582C18.5586 19.1094 18.1719 19.4961 17.6211 19.4961C17.2812 19.4961 17.0234 19.3438 16.7773 19.0156L13.2617 14.375L11.7852 15.8984V18.3945C11.7852 19.0859 11.4336 19.4961 10.8008 19.4961Z" fill="white"/>
</svg>
