<svg width="37" height="28" viewBox="0 0 37 28" fill="none" xmlns="http://www.w3.org/2000/svg">
<g clip-path="url(#clip0_2124_24596)">
<path d="M0 22.0273C0 22.7656 0.597656 23.3633 1.32422 23.3633H32.4844C33.2109 23.3633 33.7969 22.7656 33.7969 22.0273C33.7969 21.2891 33.2109 20.6914 32.4844 20.6914H29.918V6.78124C29.918 5.14061 29.0391 4.29688 27.4102 4.29688H6.39844C4.85156 4.29688 3.89062 5.14061 3.89062 6.78124V20.6914H1.32422C0.597656 20.6914 0 21.2891 0 22.0273ZM5.77734 20.6914V7.30858C5.77734 6.55858 6.15234 6.18358 6.91406 6.18358H26.8945C27.6445 6.18358 28.0312 6.55858 28.0312 7.30858V20.6914H5.77734Z" fill="black" fill-opacity="0.85"/>
<path d="M19.043 25.6367H32.6953C35.3438 25.6367 36.9492 24.0312 36.9492 21.418V11.75C36.9492 9.125 35.3438 7.50781 32.6953 7.50781H19.043C16.4062 7.50781 14.8008 9.11328 14.8008 11.75V21.418C14.8008 24.043 16.4062 25.6367 19.043 25.6367Z" fill="white"/>
<path d="M19.043 24.043H32.6953C34.4531 24.043 35.3555 23.1406 35.3555 21.418V11.75C35.3555 10.0156 34.4531 9.11328 32.6953 9.11328H19.043C17.2969 9.11328 16.3945 10.0039 16.3945 11.75V21.418C16.3945 23.1406 17.2969 24.043 19.043 24.043ZM19.0547 22.3906C18.375 22.3906 18.0469 22.1094 18.0469 21.3711V11.7734C18.0469 11.0586 18.375 10.7539 19.0547 10.7539H32.6836C33.3516 10.7539 33.7031 11.0586 33.7031 11.7734V21.3711C33.7031 22.1094 33.3516 22.3906 32.6836 22.3906H19.0547ZM22.8516 21.3594H28.8984C29.2148 21.3594 29.4492 21.1484 29.4492 20.8203C29.4492 20.4922 29.2148 20.2695 28.8984 20.2695H22.8516C22.5352 20.2695 22.3008 20.4922 22.3008 20.8203C22.3008 21.1484 22.5352 21.3594 22.8516 21.3594Z" fill="black" fill-opacity="0.85"/>
</g>
<defs>
<clipPath id="clip0_2124_24596">
<rect width="36.9492" height="23.6367" fill="white" transform="translate(0 2)"/>
</clipPath>
</defs>
</svg>
