<svg width="28" height="33" viewBox="0 0 28 33" fill="none" xmlns="http://www.w3.org/2000/svg">
<g clip-path="url(#clip0_2124_24744)">
<path d="M13.8477 22.6641C20.7734 22.6641 25.3906 20.4727 25.3906 17.2617C25.3906 14.0508 20.7734 11.8594 13.8477 11.8594C6.92188 11.8594 2.30469 14.0508 2.30469 17.2617C2.30469 20.4727 6.92188 22.6641 13.8477 22.6641ZM13.8477 28.8984C21.2188 28.8984 25.6953 26.8359 25.6953 21.9375V20.6016C24.8281 21.5977 23.5625 22.4062 21.957 23.0039V24.5977C21.957 25.0195 21.6055 25.3594 21.1836 25.3594C20.7617 25.3594 20.4219 25.0195 20.4219 24.5977V23.5078C19.7422 23.6836 19.0156 23.8242 18.3594 23.9297V25.3945C18.3594 25.8164 18.0195 26.1562 17.5977 26.1562C17.1758 26.1562 16.8242 25.8164 16.8242 25.3945V24.1289C16.0625 24.1992 15.1953 24.2578 14.4688 24.2695V25.6875C14.4688 26.1094 14.1289 26.4609 13.707 26.4609C13.2852 26.4609 12.9336 26.1094 12.9336 25.6875V24.2578C12.1602 24.2461 11.3516 24.1875 10.5898 24.1055V25.3945C10.5898 25.8164 10.2383 26.1562 9.81641 26.1562C9.39453 26.1562 9.05469 25.8164 9.05469 25.3945V23.8828C8.32812 23.7656 7.64844 23.6133 6.99219 23.4258V24.5977C6.99219 25.0195 6.65234 25.3594 6.23047 25.3594C5.80859 25.3594 5.45703 25.0195 5.45703 24.5977V22.8984C3.98047 22.3125 2.80859 21.5391 2 20.6016V21.9375C2 26.8359 6.46484 28.8984 13.8477 28.8984Z" fill="black" fill-opacity="0.85"/>
<path d="M15.7577 15.2344L18.8983 11.6953C20.4452 9.98438 19.3554 7.33594 16.9765 7.33594H16.4491V2.60156C16.4491 1.16016 15.289 0 13.8593 0C12.4061 0 11.2577 1.16016 11.2577 2.60156V7.33594H10.7069C8.37486 7.33594 7.23814 9.9375 8.7733 11.6836L11.9256 15.2344C12.9687 16.4297 14.703 16.4414 15.7577 15.2344Z" fill="white"/>
<path d="M14.5627 14.168L17.7033 10.6289C18.3244 9.9375 17.9729 8.94141 16.9768 8.94141H14.8557V2.60156C14.8557 2.03906 14.4104 1.60547 13.8596 1.60547C13.2854 1.60547 12.8518 2.03906 12.8518 2.60156V8.94141H10.7072C9.7463 8.94141 9.33615 9.90234 9.96896 10.6289L13.1213 14.168C13.5432 14.6602 14.1291 14.6602 14.5627 14.168Z" fill="black" fill-opacity="0.85"/>
</g>
<defs>
<clipPath id="clip0_2124_24744">
<rect width="23.6953" height="32.3086" fill="white" transform="translate(2)"/>
</clipPath>
</defs>
</svg>
