<svg width="28" height="28" viewBox="0 0 28 28" fill="none" xmlns="http://www.w3.org/2000/svg">
<path d="M5.67969 21.1484H17.4453C19.8828 21.1484 21.1133 19.9297 21.1133 17.5156V5.65625C21.1133 3.24219 19.8828 2.02344 17.4453 2.02344H5.67969C3.21875 2.02344 2 3.24219 2 5.65625V17.5156C2 19.9297 3.21875 21.1484 5.67969 21.1484ZM5.70312 19.2617C4.53125 19.2617 3.88672 18.6289 3.88672 17.4102V5.76172C3.88672 4.54297 4.53125 3.91016 5.70312 3.91016H17.4102C18.5703 3.91016 19.2266 4.54297 19.2266 5.76172V17.4102C19.2266 18.6289 18.5703 19.2617 17.4102 19.2617H5.70312Z" fill="black" fill-opacity="0.85"/>
<path d="M11.3633 26.5742H23.1289C25.5664 26.5742 26.7969 25.3555 26.7969 22.9414V11.082C26.7969 8.66797 25.5664 7.44922 23.1289 7.44922H11.3633C8.90234 7.44922 7.68359 8.65625 7.68359 11.082V22.9414C7.68359 25.3555 8.90234 26.5742 11.3633 26.5742Z" fill="white"/>
<path d="M11.3633 26.5742H23.1289C25.5664 26.5742 26.7969 25.3555 26.7969 22.9414V11.082C26.7969 8.66797 25.5664 7.44922 23.1289 7.44922H11.3633C8.90234 7.44922 7.68359 8.65625 7.68359 11.082V22.9414C7.68359 25.3555 8.90234 26.5742 11.3633 26.5742ZM11.3867 24.6875C10.2266 24.6875 9.57031 24.0547 9.57031 22.8359V11.1875C9.57031 9.96875 10.2266 9.33594 11.3867 9.33594H23.0938C24.2539 9.33594 24.9102 9.96875 24.9102 11.1875V22.8359C24.9102 24.0547 24.2539 24.6875 23.0938 24.6875H11.3867Z" fill="black" fill-opacity="0.85"/>
<path d="M12.8516 18.9453C12.8516 21.582 14.5625 23.2109 17.0234 23.2109C18.8516 23.2109 20.0938 22.4609 20.9375 20.7383C21.3945 19.8477 21.7461 18.7812 22.1211 17.5391C22.2734 17.0352 22.4961 16.4023 22.4961 16.1328C22.4961 15.793 22.25 15.5586 21.8984 15.5586C21.5117 15.5586 21.2773 15.8047 20.9961 16.3672L20.1641 18.1367C20.082 18.3359 20 18.3945 19.8945 18.3945C19.7773 18.3945 19.707 18.3125 19.707 18.125V11.8086C19.707 11.457 19.4023 11.1523 19.0508 11.1523C18.6758 11.1523 18.3828 11.457 18.3828 11.8086V16.2969C18.2305 16.25 18.0664 16.2031 17.8789 16.1562V10.9414C17.8789 10.5781 17.5859 10.2852 17.2227 10.2852C16.8594 10.2852 16.5664 10.5781 16.5664 10.9414V16.0977C16.3906 16.1094 16.2031 16.1328 16.0273 16.168V11.457C16.0273 11.082 15.7344 10.8008 15.3477 10.8008C14.9961 10.8008 14.6914 11.082 14.6914 11.457V16.5898C14.4922 16.6719 14.3398 16.7773 14.1992 16.8594V13.332C14.1992 12.9688 13.8828 12.6641 13.5312 12.6641C13.168 12.6641 12.8516 12.9688 12.8516 13.332V18.9453Z" fill="black" fill-opacity="0.85"/>
</svg>
