<svg width="28" height="28" viewBox="0 0 28 28" fill="none" xmlns="http://www.w3.org/2000/svg">
<g clip-path="url(#clip0_2124_78022)">
<path d="M1 22.7852C1 23.3008 1.43359 23.7227 1.9375 23.7227H26.2422C26.7578 23.7227 27.1914 23.3008 27.1914 22.7852C27.1914 22.2695 26.7578 21.8359 26.2422 21.8359H4.22266L20.3711 5.6875C20.7344 5.32422 20.7344 4.71484 20.3711 4.35156C20.0078 3.98828 19.4102 3.98828 19.0352 4.35156L1.26953 22.1172C1.11719 22.2812 1 22.5273 1 22.7852ZM14.6641 22.75H16.5508C16.5508 18.7422 14.9219 15.1094 12.2969 12.4727L10.9492 13.7969C13.2461 16.0938 14.6641 19.2578 14.6641 22.75Z" fill="black" fill-opacity="0.85"/>
</g>
<defs>
<clipPath id="clip0_2124_78022">
<rect width="26.1914" height="19.7227" fill="white" transform="translate(1 4)"/>
</clipPath>
</defs>
</svg>
