<svg width="28" height="28" viewBox="0 0 28 28" fill="none" xmlns="http://www.w3.org/2000/svg">
<path d="M13.9531 25.918C20.4922 25.918 25.9062 20.5039 25.9062 13.9648C25.9062 7.4375 20.4805 2.01172 13.9414 2.01172C7.41406 2.01172 2 7.4375 2 13.9648C2 20.5039 7.42578 25.918 13.9531 25.918Z" fill="black" fill-opacity="0.85"/>
<path d="M8.5625 14.5156C8.5625 11.5508 11 9.23047 13.7188 9.23047C13.8242 9.23047 13.9531 9.24219 14.0469 9.25391L13.2031 8.38672C13.0742 8.24609 12.9805 8.03516 12.9805 7.82422C12.9805 7.39062 13.3086 7.05078 13.7539 7.05078C13.9648 7.05078 14.1758 7.14453 14.3047 7.29688L16.625 9.65234C16.9062 9.95703 16.9297 10.4844 16.625 10.7773L14.2812 13.1211C14.1523 13.25 13.9531 13.3555 13.7539 13.3555C13.3203 13.3555 12.9805 13.0156 12.9805 12.582C12.9805 12.3711 13.0742 12.1719 13.2148 12.0312L14.3867 10.8711C14.2695 10.8477 14.1055 10.8359 13.9531 10.8359C11.8906 10.8359 10.2383 12.5 10.2383 14.5625C10.2383 16.6367 11.8906 18.3008 13.9531 18.3008C16.0156 18.3008 17.668 16.6367 17.668 14.5625C17.668 14.1055 18.0547 13.7305 18.5117 13.7305C18.957 13.7305 19.3438 14.1055 19.3438 14.5625C19.3438 17.5391 16.9414 19.9648 13.9531 19.9648C10.9648 19.9648 8.5625 17.5391 8.5625 14.5156Z" fill="white"/>
</svg>
