<svg width="28" height="28" viewBox="0 0 28 28" fill="none" xmlns="http://www.w3.org/2000/svg">
<path d="M13.9531 25.9062C20.4922 25.9062 25.9062 20.4805 25.9062 13.9531C25.9062 7.41406 20.4805 2 13.9414 2C7.41406 2 2 7.41406 2 13.9531C2 20.4805 7.42578 25.9062 13.9531 25.9062Z" fill="black" fill-opacity="0.85"/>
<path d="M9.16016 18.6172C8.63281 18.6172 8.33984 18.2773 8.33984 17.7383V10.0156C8.33984 9.55859 8.72656 9.18359 9.17188 9.18359C9.62891 9.18359 10.0156 9.55859 10.0156 10.0156V17.1992H12.4648C12.8398 17.1992 13.168 17.5156 13.168 17.9141C13.168 18.2891 12.8398 18.6172 12.4648 18.6172H9.16016ZM15.1836 18.6172C14.6445 18.6172 14.3516 18.2656 14.3516 17.7383V10.2031C14.3516 9.69922 14.6328 9.32422 15.1836 9.32422H17.5508C18.8984 9.32422 19.8945 10.168 19.8945 11.6445C19.8945 12.5469 19.2852 13.5195 18.418 13.6719V13.7422C19.5078 13.8477 20.1875 14.8789 20.1875 15.9922C20.1875 17.5391 19.2383 18.6172 17.6211 18.6172H15.1836ZM15.9922 13.2617H16.9297C17.7852 13.2617 18.2773 12.7461 18.2773 11.9023C18.2773 11.1641 17.9375 10.6133 17.0703 10.6133H15.9922V13.2617ZM15.9922 17.3398H17.1055C18.0312 17.3398 18.4883 16.7891 18.4883 15.8516C18.4883 14.8555 17.9023 14.3984 17.0703 14.3984H15.9922V17.3398Z" fill="white"/>
</svg>
