<svg width="28" height="28" viewBox="0 0 28 28" fill="none" xmlns="http://www.w3.org/2000/svg">
<g clip-path="url(#clip0_2124_88487)">
<path d="M7.21484 24.747L20.0352 27.0087C22.332 27.4189 23.7266 26.1298 23.7266 23.622V9.47745C23.7266 7.18058 22.5547 6.34855 20.2695 5.93839L7.82422 3.74698C6.11328 3.45402 5 4.3798 5 6.05558V22.1923C5 23.6337 5.73828 24.4892 7.21484 24.747ZM8.02344 10.7314V8.2587C8.02344 7.40323 8.5625 7.01652 9.45312 7.16886L11.9727 7.61417C12.8633 7.77823 12.6523 9.27823 11.6562 9.10245L10.1094 8.8212C9.74609 8.76261 9.55859 8.90323 9.55859 9.21964V10.7899C9.55859 11.7157 8.02344 11.7157 8.02344 10.7314ZM19.0742 12.6415V11.1532C19.0742 10.8017 18.9688 10.3798 18.2773 10.2626L17.3047 10.0868C16.2383 9.89933 16.4961 8.41105 17.5625 8.59855L18.7812 8.80948C20.082 9.04386 20.6094 9.59464 20.6094 10.6845V12.6415C20.6094 13.7197 19.0742 13.6259 19.0742 12.6415ZM9.55859 18.1962V19.6845C9.55859 20.0361 9.66406 20.4579 10.3555 20.5751L11.3281 20.7509C12.3945 20.9267 12.1367 22.4267 11.0703 22.2392L9.85156 22.0282C8.55078 21.7939 8.02344 21.2431 8.02344 20.1532V18.1962C8.02344 17.1181 9.55859 17.2118 9.55859 18.1962ZM20.6094 20.1064V22.579C20.6094 23.4345 20.0703 23.8212 19.1797 23.6689L16.6719 23.2236C15.7812 23.0595 15.9805 21.5595 16.9766 21.7353L18.5234 22.0165C18.8867 22.0751 19.0742 21.9345 19.0742 21.6181V20.0478C19.0742 19.122 20.6094 19.122 20.6094 20.1064ZM10.4141 2.58683L20.5508 4.36808C21.5469 4.54386 22.3789 4.82511 23.0586 5.18839V4.28605C23.0586 1.81339 21.4062 0.641515 18.6289 1.1337L10.4141 2.58683Z" fill="black" fill-opacity="0.85"/>
</g>
<defs>
<clipPath id="clip0_2124_88487">
<rect width="18.7266" height="26.0838" fill="white" transform="translate(5 1)"/>
</clipPath>
</defs>
</svg>
