<svg width="28" height="28" viewBox="0 0 28 28" fill="none" xmlns="http://www.w3.org/2000/svg">
<g clip-path="url(#clip0_2124_67758)">
<path d="M3.23832 22.4658L5.46488 24.6924L6.7891 23.3564C9.77738 20.333 13.4219 21.3643 16.586 18.2002L25.1993 9.58691C27.1328 7.6416 27.1328 4.65332 25.1993 2.73145C23.2774 0.79785 20.2774 0.79785 18.3438 2.73145L9.73051 11.3447C6.40238 14.6729 7.59769 18.1416 4.58597 21.1299L3.23832 22.4658ZM8.18363 18.0127C8.81644 16.208 9.25004 14.333 10.9844 12.5986L19.5977 3.98535C20.8282 2.74316 22.7266 2.75488 23.9571 3.97363C25.1758 5.2041 25.1875 7.09082 23.9453 8.33301L15.3321 16.9463C13.586 18.6924 11.7813 19.1729 10.0235 19.8525L8.18363 18.0127ZM1.52738 24.1768C0.812537 24.8916 0.835974 25.7354 1.52738 26.415C2.19535 27.0947 3.06254 27.1064 3.76566 26.4033L4.37504 25.8057L2.12504 23.5791L1.52738 24.1768ZM13.7969 14.1689C14.5 14.8838 15.6602 14.8721 16.375 14.1572L19.8203 10.6885C20.5586 9.9502 20.5469 8.80176 19.8203 8.11035C19.1055 7.37207 17.9571 7.40723 17.2422 8.11035L13.7969 11.5674C13.0821 12.2705 13.0703 13.4424 13.7969 14.1689ZM14.5469 13.4072C14.2422 13.1025 14.2422 12.6338 14.5469 12.3174L17.9922 8.86035C18.2618 8.59082 18.6719 8.56738 18.9649 8.80176C19.3633 9.07129 19.4102 9.59863 19.0703 9.93848L15.6368 13.3955C15.3203 13.7002 14.8399 13.7002 14.5469 13.4072ZM11.3243 15.2822L12.6485 16.5947C12.9532 16.8994 13.375 16.8525 13.6211 16.6064C13.8907 16.3369 13.9258 15.9268 13.6211 15.6221L12.2969 14.3096C12.0039 14.0283 11.5821 14.04 11.3243 14.3096C11.0782 14.5674 11.0313 15.001 11.3243 15.2822ZM17.7344 3.8916L24.0391 10.1963L24.9414 9.28223L18.6368 2.96582L17.7344 3.8916Z" fill="black" fill-opacity="0.85"/>
</g>
<defs>
<clipPath id="clip0_2124_67758">
<rect width="25.6495" height="25.9277" fill="white" transform="translate(1 1)"/>
</clipPath>
</defs>
</svg>
