<svg width="28" height="28" viewBox="0 0 28 28" fill="none" xmlns="http://www.w3.org/2000/svg">
<g clip-path="url(#clip0_2124_89406)">
<path d="M13.9531 25.9062C20.4922 25.9062 25.9062 20.4805 25.9062 13.9531C25.9062 7.41406 20.4805 2 13.9414 2C7.41406 2 2 7.41406 2 13.9531C2 20.4805 7.42578 25.9062 13.9531 25.9062Z" fill="black" fill-opacity="0.85"/>
<path d="M9.52344 17.7148C8.60938 17.7148 7.77734 17.6328 7.16797 17.0469C6.59375 16.4492 6.5 15.6172 6.5 14.7266V13.1797C6.5 12.2891 6.59375 11.457 7.16797 10.8594C7.77734 10.2734 8.62109 10.1797 9.52344 10.1797H17.6445C18.5352 10.1797 19.3789 10.2734 19.9648 10.8594C20.5508 11.457 20.6562 12.2891 20.6562 13.1797V14.7266C20.6562 15.6172 20.5508 16.4492 19.9648 17.0469C19.3789 17.6328 18.5469 17.7148 17.6445 17.7148H9.52344ZM9.35938 16.3672H17.7969C18.3711 16.3672 18.7812 16.2617 18.9922 16.0508C19.1797 15.8633 19.3086 15.4531 19.3086 14.8672V13.0273C19.3086 12.4531 19.1797 12.043 18.9922 11.8555C18.7812 11.6328 18.3594 11.5273 17.7969 11.5273H9.35938C8.78516 11.5273 8.375 11.6328 8.16406 11.8437C7.96484 12.0312 7.88281 12.4297 7.88281 13.0273V14.8672C7.88281 15.4648 7.96484 15.8633 8.16406 16.0508C8.375 16.2617 8.77344 16.3672 9.35938 16.3672ZM9.41797 15.6523C9.10156 15.6523 8.89062 15.6172 8.76172 15.4883C8.64453 15.3594 8.58594 15.1602 8.58594 14.832V13.0508C8.58594 12.7227 8.64453 12.5352 8.76172 12.3945C8.89062 12.2773 9.10156 12.2305 9.41797 12.2305H17.75C18.0781 12.2305 18.2656 12.2773 18.3945 12.3945C18.5352 12.5352 18.5938 12.7344 18.5938 13.0508V14.832C18.5938 15.1484 18.5352 15.3477 18.3945 15.4883C18.2656 15.6172 18.0781 15.6523 17.75 15.6523H9.41797ZM21.1836 15.3828V12.5234C21.6055 12.5586 22.2031 13.1211 22.2031 13.9531C22.2031 14.7852 21.6055 15.3477 21.1836 15.3828Z" fill="white"/>
</g>
<defs>
<clipPath id="clip0_2124_89406">
<rect width="23.9062" height="23.918" fill="white" transform="translate(2 2)"/>
</clipPath>
</defs>
</svg>
