<svg width="30" height="28" viewBox="0 0 30 28" fill="none" xmlns="http://www.w3.org/2000/svg">
<path d="M23.1562 23.3672C26.6953 23.3672 29.4609 20.7773 29.4609 17.5547C29.4609 15.0938 28.043 12.9609 25.7578 12C25.7812 6.77344 22.0195 3 17.2266 3C14.0508 3 11.7891 4.69922 10.3828 6.75C7.5 5.90625 4.35938 8.09766 4.30078 11.3789C1.65234 11.8008 0 14.168 0 17.0273C0 20.4727 3.01172 23.3672 7.01953 23.3672H23.1562ZM23.1562 21.4805H7.01953C4.06641 21.4805 1.88672 19.418 1.88672 17.0273C1.88672 14.6836 3.30469 12.8203 5.78906 12.8203C5.95312 12.8203 6.01172 12.7383 6.01172 12.5859C6.01172 8.97656 8.61328 7.91016 11.0156 8.69531C11.1562 8.74219 11.2383 8.70703 11.3086 8.57812C12.4453 6.55078 14.1914 4.88672 17.2266 4.88672C21.0703 4.88672 23.7305 7.93359 23.9297 11.4141C23.9648 11.9531 23.9297 12.5859 23.8828 13.1367C23.8711 13.2891 23.9297 13.3711 24.0703 13.4062C26.2031 13.875 27.5742 15.4336 27.5742 17.5547C27.5742 19.7344 25.6523 21.4805 23.1562 21.4805Z" fill="black" fill-opacity="0.85"/>
<path d="M21.1637 14.543C21.1637 12.5977 19.6051 11.0508 17.6832 11.0508C16.2184 11.0508 14.9293 11.918 14.4019 13.2891H9.01129C8.88238 13.2891 8.77691 13.3242 8.65973 13.4414L7.75738 14.3555C7.65191 14.4492 7.64019 14.625 7.75738 14.7305L9.46832 16.4648C9.58551 16.582 9.76129 16.582 9.86676 16.4648L10.9332 15.3867L12.4098 16.875C12.5035 16.9805 12.6676 16.9688 12.7848 16.8516L14.2613 15.3984C14.941 17.0859 16.1832 18.0234 17.6832 18.0234C19.6051 18.0234 21.1637 16.4766 21.1637 14.543ZM19.4879 14.5312C19.4879 15.1172 19.0074 15.5977 18.4215 15.5977C17.8121 15.5977 17.3316 15.1172 17.3316 14.5312C17.3316 13.9453 17.8121 13.4648 18.4215 13.4648C19.0074 13.4648 19.4879 13.9336 19.4879 14.5312Z" fill="black" fill-opacity="0.85"/>
</svg>
