<svg width="29" height="28" viewBox="0 0 29 28" fill="none" xmlns="http://www.w3.org/2000/svg">
<g clip-path="url(#clip0_2124_24600)">
<path d="M3.67969 21.5625H25.0195C27.4688 21.5625 28.6992 20.3438 28.6992 17.9297V9.63281C28.6992 7.21875 27.4688 6 25.0195 6H3.67969C1.21875 6 0 7.20703 0 9.63281V17.9297C0 20.3555 1.21875 21.5625 3.67969 21.5625ZM4.20703 17.9883C3.75 17.9766 3.41016 17.6367 3.41016 17.1797V15.2578C3.41016 14.8008 3.76172 14.4492 4.20703 14.4609C4.64062 14.4492 5.00391 14.8008 5.00391 15.2578V17.1914C5.00391 17.625 4.65234 17.9766 4.20703 17.9883ZM7.13672 17.9883C6.67969 17.9766 6.32812 17.6367 6.32812 17.1797V15.2578C6.32812 14.8008 6.69141 14.4492 7.13672 14.4609C7.57031 14.4492 7.92188 14.8008 7.92188 15.2578V17.1914C7.92188 17.625 7.58203 17.9766 7.13672 17.9883ZM10.2539 17.0156C9.82031 17.0156 9.45703 16.6523 9.45703 16.2188C9.45703 15.7852 9.82031 15.4336 10.2539 15.4336H15.1523C15.5859 15.4336 15.9492 15.7852 15.9492 16.2188C15.9492 16.6523 15.5859 17.0156 15.1523 17.0156H10.2539ZM24.0234 17.6484C23.25 17.6602 22.5938 16.9922 22.5938 16.2305C22.5938 15.457 23.25 14.8008 24.0234 14.8008C24.7734 14.8008 25.418 15.457 25.418 16.2305C25.418 16.9922 24.7734 17.6367 24.0234 17.6484Z" fill="black" fill-opacity="0.85"/>
</g>
<defs>
<clipPath id="clip0_2124_24600">
<rect width="28.6992" height="15.6914" fill="white" transform="translate(0 6)"/>
</clipPath>
</defs>
</svg>
