<svg width="28" height="28" viewBox="0 0 28 28" fill="none" xmlns="http://www.w3.org/2000/svg">
<path d="M13.9531 25.9062C20.4922 25.9062 25.9062 20.4805 25.9062 13.9531C25.9062 7.41406 20.4805 2 13.9414 2C7.41406 2 2 7.41406 2 13.9531C2 20.4805 7.42578 25.9062 13.9531 25.9062Z" fill="black" fill-opacity="0.85"/>
<path d="M6.98047 14.9844L7.03906 10.7539C7.03906 10.543 7.13281 10.3086 7.27344 10.168C7.58984 9.83984 8.04688 9.83984 8.375 10.168C8.52734 10.3203 8.60938 10.5195 8.59766 10.7305L8.57422 12.5234L8.55078 13.168L8.92578 12.7578L14.457 7.22656C14.7852 6.91016 15.2539 6.91016 15.5703 7.22656C15.8984 7.55469 15.8867 8.02344 15.5703 8.33984L10.0508 13.8711L9.61719 14.2578L10.2969 14.2344L12.0781 14.2109C12.2891 14.2109 12.4766 14.2812 12.6406 14.4453C12.957 14.7617 12.957 15.207 12.6289 15.5234C12.4883 15.6641 12.2891 15.7578 12.0664 15.7695L7.8125 15.8164C7.37891 15.8281 6.98047 15.4414 6.98047 14.9844ZM20.9258 12.9336L20.8789 17.1875C20.8672 17.4102 20.7969 17.6328 20.6562 17.7617C20.3281 18.0781 19.8711 18.0781 19.5547 17.7617C19.4023 17.5977 19.332 17.4102 19.332 17.1992L19.3555 15.4062L19.4023 14.7383L19.0039 15.1719L13.4609 20.6914C13.1445 21.0195 12.6758 21.0078 12.3594 20.6914C12.0312 20.3633 12.0312 19.9062 12.3477 19.5898L17.8906 14.0469L18.3125 13.6719L17.6445 13.6953L15.8398 13.7305C15.6289 13.7305 15.4531 13.6484 15.2891 13.4961C14.9609 13.1797 14.9609 12.7344 15.3008 12.3945C15.4414 12.2656 15.6758 12.1602 15.8633 12.1602L20.1172 12.125C20.5625 12.125 20.9258 12.4648 20.9258 12.9336Z" fill="white"/>
</svg>
