<svg width="28" height="28" viewBox="0 0 28 28" fill="none" xmlns="http://www.w3.org/2000/svg">
<path d="M18.4102 26.2656V3.97656C18.4102 2.05469 17.3555 1 15.4336 1H4.80469C2.87109 1 1.85156 2.05469 1.85156 3.97656V26.2656H3.72656L3.73828 4C3.73828 3.27344 4.08984 2.88672 4.83984 2.88672H15.3984C16.125 2.88672 16.5117 3.26172 16.5117 4V26.2656H18.4102ZM0 26.1836C0 26.7109 0.410156 27.1445 0.925781 27.1445H19.3125C19.8281 27.1445 20.25 26.7109 20.25 26.1836C20.25 25.6797 19.8281 25.2578 19.3125 25.2578H0.925781C0.421875 25.2578 0 25.668 0 26.1836ZM6.375 13.9023H13.8633C14.6484 13.9023 15.1875 13.4336 15.1875 12.7188V5.61719C15.1875 4.90234 14.6367 4.41016 13.8633 4.41016H6.375C5.60156 4.41016 5.07422 4.90234 5.07422 5.61719V12.7188C5.07422 13.4336 5.60156 13.9023 6.375 13.9023ZM21.7734 8.71094H23.0977L23.1094 6.09766C23.1094 5.73438 22.8047 5.42969 22.4414 5.42969C22.0664 5.42969 21.7734 5.73438 21.7734 6.09766V8.71094ZM26.1914 8.71094V6.09766C26.1914 5.73438 25.8984 5.42969 25.5117 5.42969C25.1602 5.42969 24.8555 5.73438 24.8555 6.09766V8.71094H26.1914ZM17.8711 16.4336H18.5273C19.0664 16.4336 19.3945 16.7383 19.3945 17.3242V21.2031C19.3945 22.8672 20.4023 23.875 22.0664 23.875C23.7305 23.875 24.7266 22.8672 24.7266 21.2031V15.1445C24.7266 13.9844 25.5938 13.6562 26.1445 13.2344C26.9883 12.6016 27.4336 11.7227 27.4336 10.6797V8.92188C27.4336 8.64062 27.2812 8.47656 27.0234 8.47656H20.7773C20.5195 8.47656 20.3555 8.64062 20.3555 8.92188V10.6797C20.3555 11.7227 20.8125 12.6016 21.6562 13.2344C22.207 13.6562 23.0742 13.9844 23.0742 15.1445V21.2031C23.0742 21.8359 22.6875 22.2227 22.0664 22.2227C21.4336 22.2227 21.0586 21.8359 21.0586 21.2031V17.3242C21.0586 15.707 20.0977 14.7812 18.5273 14.7812H17.8711V16.4336Z" fill="black" fill-opacity="0.85"/>
</svg>
