<svg width="28" height="28" viewBox="0 0 28 28" fill="none" xmlns="http://www.w3.org/2000/svg">
<g clip-path="url(#clip0_2124_24613)">
<path d="M10.1875 25.3789H17.9336C19.8438 25.3789 21.1211 24.1602 21.1211 22.332V5.04688C21.1211 3.21875 19.8438 2 17.9336 2H10.1875C8.27734 2 7 3.21875 7 5.04688V22.332C7 24.1602 8.27734 25.3789 10.1875 25.3789ZM10.4336 23.4922C9.4375 23.4922 8.88672 22.9648 8.88672 22.0273V5.35156C8.88672 4.41406 9.4375 3.88672 10.4336 3.88672H17.6875C18.6719 3.88672 19.2344 4.41406 19.2344 5.35156V22.0273C19.2344 22.9648 18.6719 23.4922 17.6875 23.4922H10.4336ZM11.0078 12.6523H17.1133C17.7227 12.6523 18.0859 12.3242 18.0859 11.7617V5.98438C18.0859 5.42188 17.7227 5.09375 17.1133 5.09375H11.0078C10.3984 5.09375 10.0352 5.42188 10.0352 5.98438V11.7617C10.0352 12.3242 10.3984 12.6523 11.0078 12.6523ZM10.7969 16.0859H11.875C12.1328 16.0859 12.332 15.9102 12.332 15.6641V14.5508C12.332 14.3164 12.1328 14.1406 11.875 14.1406H10.7969C10.5508 14.1406 10.375 14.3164 10.375 14.5508V15.6641C10.375 15.9102 10.5508 16.0859 10.7969 16.0859ZM13.4805 16.0859H14.5586C14.8164 16.0859 15.0039 15.9102 15.0039 15.6641V14.5508C15.0039 14.3164 14.8164 14.1406 14.5586 14.1406H13.4805C13.2344 14.1406 13.0586 14.3164 13.0586 14.5508V15.6641C13.0586 15.9102 13.2344 16.0859 13.4805 16.0859ZM16.1641 16.0859H17.2422C17.5117 16.0859 17.6992 15.9102 17.6992 15.6641V14.5508C17.6992 14.3164 17.5117 14.1406 17.2422 14.1406H16.1641C15.918 14.1406 15.7422 14.3164 15.7422 14.5508V15.6641C15.7422 15.9102 15.918 16.0859 16.1641 16.0859ZM10.7969 18.9688H11.875C12.1328 18.9688 12.332 18.793 12.332 18.5586V17.4453C12.332 17.1992 12.1328 17.0234 11.875 17.0234H10.7969C10.5508 17.0234 10.375 17.1992 10.375 17.4453V18.5586C10.375 18.793 10.5508 18.9688 10.7969 18.9688ZM13.4805 18.9688H14.5586C14.8164 18.9688 15.0039 18.793 15.0039 18.5586V17.4453C15.0039 17.1992 14.8164 17.0234 14.5586 17.0234H13.4805C13.2344 17.0234 13.0586 17.1992 13.0586 17.4453V18.5586C13.0586 18.793 13.2344 18.9688 13.4805 18.9688ZM16.1641 18.9688H17.2422C17.5117 18.9688 17.6992 18.793 17.6992 18.5586V17.4453C17.6992 17.1992 17.5117 17.0234 17.2422 17.0234H16.1641C15.918 17.0234 15.7422 17.1992 15.7422 17.4453V18.5586C15.7422 18.793 15.918 18.9688 16.1641 18.9688ZM10.7969 21.8633H11.875C12.1328 21.8633 12.332 21.6875 12.332 21.4414V20.3281C12.332 20.082 12.1328 19.9062 11.875 19.9062H10.7969C10.5508 19.9062 10.375 20.082 10.375 20.3281V21.4414C10.375 21.6875 10.5508 21.8633 10.7969 21.8633ZM13.4805 21.8633H14.5586C14.8164 21.8633 15.0039 21.6875 15.0039 21.4414V20.3281C15.0039 20.082 14.8164 19.9062 14.5586 19.9062H13.4805C13.2344 19.9062 13.0586 20.082 13.0586 20.3281V21.4414C13.0586 21.6875 13.2344 21.8633 13.4805 21.8633ZM16.1641 21.8633H17.2422C17.5117 21.8633 17.6992 21.6875 17.6992 21.4414V20.3281C17.6992 20.082 17.5117 19.9062 17.2422 19.9062H16.1641C15.918 19.9062 15.7422 20.082 15.7422 20.3281V21.4414C15.7422 21.6875 15.918 21.8633 16.1641 21.8633Z" fill="black" fill-opacity="0.85"/>
</g>
<defs>
<clipPath id="clip0_2124_24613">
<rect width="14.1211" height="23.3789" fill="white" transform="translate(7 2)"/>
</clipPath>
</defs>
</svg>
