<svg width="29" height="29" viewBox="0 0 29 29" fill="none" xmlns="http://www.w3.org/2000/svg">
<g clip-path="url(#clip0_2124_46033)">
<path d="M1.75195 16.6039C2.17383 16.6039 2.45507 16.2758 2.46679 15.8539C2.56054 11.9516 4.03711 8.33048 8.32617 5.79923C8.68945 5.57657 8.80664 5.1547 8.63086 4.79142C8.43164 4.43985 7.92773 4.28751 7.56445 4.52188C2.93554 7.13517 1.00195 11.3539 1.00195 15.8305C1.00195 16.2523 1.3418 16.6039 1.75195 16.6039Z" fill="black" fill-opacity="0.85"/>
<path d="M21.6034 25.393C27.2284 23.3422 29.2088 18.4555 27.0643 12.5258L26.3026 10.4047C25.2245 7.40473 22.8924 6.3969 21.1229 7.06487C20.9471 7.13519 20.783 7.21722 20.6307 7.32269C19.2713 6.3969 17.6424 6.76019 16.9159 7.34612C15.8612 6.5844 14.6307 6.63128 13.6815 7.018L12.287 3.23284C11.6893 1.5805 10.0486 0.818784 8.5252 1.36957C6.94317 1.93207 6.20488 3.57269 6.80254 5.21331L9.48614 12.5961L9.15801 12.2797C8.4666 11.9047 7.69317 11.8578 6.95488 12.1273C5.40801 12.6898 4.65801 14.2836 5.18535 15.7601C5.32598 16.1469 5.53692 16.5101 5.78301 16.8148L9.50957 21.4789C13.119 26.0023 17.5018 26.8812 21.6034 25.393Z" fill="white"/>
<path d="M21.052 23.893C25.8332 22.1586 27.427 18.1859 25.5637 13.0648L24.7903 10.9555C24.0871 9.02188 22.7278 8.17813 21.6731 8.55313C21.4387 8.64688 21.3567 8.82267 21.4387 9.04532L21.7785 9.98282C21.9426 10.4281 21.7903 10.7211 21.5324 10.8266C21.2395 10.9203 20.9348 10.7914 20.7824 10.3461L20.5598 9.73673C20.1379 8.58829 19.1418 8.10782 18.1574 8.4711C17.7004 8.63517 17.5715 8.89298 17.7121 9.26798L18.1809 10.5453C18.3332 10.9906 18.1926 11.2836 17.9231 11.3891C17.6418 11.4945 17.3371 11.3539 17.1731 10.9086L16.7395 9.73673C16.2824 8.44767 15.3098 8.11954 14.3606 8.4711C13.9387 8.62345 13.7864 8.9047 13.9153 9.26798L14.8293 11.7641C14.9934 12.2094 14.841 12.5023 14.5715 12.6078C14.2903 12.7133 13.9856 12.5726 13.8215 12.1273L10.7864 3.77188C10.4817 2.95157 9.75516 2.62345 9.07547 2.86954C8.32547 3.13907 8.00906 3.85392 8.31375 4.67423L12.7668 16.9086C12.8723 17.2133 12.7434 17.4359 12.5442 17.5062C12.3684 17.5766 12.1692 17.518 11.9348 17.2601L8.91141 14.0258C8.46609 13.557 8.00906 13.4398 7.51687 13.6273C6.76687 13.8969 6.46219 14.5883 6.69656 15.2211C6.79031 15.4672 6.91922 15.6547 7.03641 15.807L10.7512 20.4828C13.9035 24.4203 17.5364 25.1703 21.052 23.893Z" fill="black" fill-opacity="0.85"/>
</g>
<defs>
<clipPath id="clip0_2124_46033">
<rect width="26.9073" height="25.0399" fill="white" transform="translate(1.00195 1.01953)"/>
</clipPath>
</defs>
</svg>
