<svg width="28" height="28" viewBox="0 0 28 28" fill="none" xmlns="http://www.w3.org/2000/svg">
<path d="M13.9531 25.9062C20.4922 25.9062 25.9062 20.4805 25.9062 13.9531C25.9062 7.41406 20.4805 2 13.9414 2C7.41406 2 2 7.41406 2 13.9531C2 20.4805 7.42578 25.9062 13.9531 25.9062ZM13.9531 23.9141C8.42188 23.9141 4.00391 19.4844 4.00391 13.9531C4.00391 8.42188 8.41016 3.99219 13.9414 3.99219C19.4727 3.99219 23.9141 8.42188 23.9141 13.9531C23.9141 19.4844 19.4844 23.9141 13.9531 23.9141Z" fill="black" fill-opacity="0.85"/>
<path d="M7.29688 17.7852C7.73047 17.7852 7.98828 17.5156 7.98828 17.082V15.4531L8.48047 14.5625L9.91016 17.3516C10.0273 17.5977 10.2734 17.7617 10.5781 17.7617C10.8711 17.7617 11.1758 17.5391 11.1758 17.1406C11.1758 16.9766 11.1289 16.8008 11.0586 16.6719L9.46484 13.625L10.8594 11.2461C10.9648 11.0703 11 10.9531 11 10.7539C11 10.4609 10.7891 10.1445 10.4023 10.1445C10.0508 10.1445 9.92188 10.3086 9.78125 10.5547L8.04688 13.6719H7.97656V10.8359C7.97656 10.3906 7.74219 10.1328 7.29688 10.1328C6.875 10.1328 6.64062 10.4023 6.64062 10.8359V17.082C6.64062 17.5859 6.96875 17.7852 7.29688 17.7852ZM12.4531 17.7617C12.875 17.7617 13.1328 17.4805 13.1328 17.0586V15.2188H13.918C15.3125 15.2188 15.9805 14.0117 15.9805 12.7344C15.9805 11.375 15.2891 10.25 14 10.25H12.4531C12.0312 10.25 11.7852 10.5195 11.7852 10.9531V17.0586C11.7852 17.4805 12.043 17.7617 12.4531 17.7617ZM13.1328 14.1523V11.3281H13.6484C14.3984 11.3281 14.6562 11.9727 14.6562 12.7344C14.6562 13.4961 14.3867 14.1523 13.6367 14.1523H13.1328ZM17.3633 17.7852C17.7969 17.7852 18.0195 17.5039 18.0195 17.0469V14.457H19.8359V17.0469C19.8359 17.5039 20.0703 17.7852 20.5039 17.7852C20.9609 17.7852 21.1836 17.5039 21.1836 17.0469V10.8477C21.1836 10.3906 20.9609 10.1328 20.5039 10.1328C20.082 10.1328 19.8359 10.3906 19.8359 10.8477V13.332H18.0195V10.8477C18.0195 10.3906 17.7852 10.1328 17.3633 10.1328C16.9062 10.1328 16.6836 10.3906 16.6836 10.8477V17.0469C16.6836 17.5039 16.9062 17.7852 17.3633 17.7852Z" fill="black" fill-opacity="0.85"/>
</svg>
