<svg width="28" height="28" viewBox="0 0 28 28" fill="none" xmlns="http://www.w3.org/2000/svg">
<path d="M13.9531 25.9062C20.4922 25.9062 25.9062 20.4805 25.9062 13.9531C25.9062 7.41406 20.4805 2 13.9414 2C7.41406 2 2 7.41406 2 13.9531C2 20.4805 7.42578 25.9062 13.9531 25.9062ZM13.9531 23.9141C8.42188 23.9141 4.00391 19.4844 4.00391 13.9531C4.00391 8.42188 8.41016 3.99219 13.9414 3.99219C19.4727 3.99219 23.9141 8.42188 23.9141 13.9531C23.9141 19.4844 19.4844 23.9141 13.9531 23.9141Z" fill="black" fill-opacity="0.85"/>
<path d="M10.4023 19.3203C10.9648 19.3203 11.293 18.9805 11.293 18.3828V11.5625H11.3633L16.4727 18.7578C16.7891 19.1914 17.0234 19.3203 17.4102 19.3203C17.9844 19.3203 18.3359 18.9688 18.3359 18.3477V9.30078C18.3359 8.71484 18.0078 8.36328 17.4453 8.36328C16.8945 8.36328 16.5781 8.73828 16.5781 9.30078V16.25H16.4961L11.3984 8.92578C11.0937 8.50391 10.8359 8.36328 10.4492 8.36328C9.87499 8.36328 9.54688 8.75 9.54688 9.34766V18.3828C9.54688 18.957 9.86328 19.3203 10.4023 19.3203Z" fill="black" fill-opacity="0.85"/>
</svg>
