<svg width="28" height="28" viewBox="0 0 28 28" fill="none" xmlns="http://www.w3.org/2000/svg">
<path d="M13.9531 25.9062C20.4922 25.9062 25.9062 20.4805 25.9062 13.9531C25.9062 7.41406 20.4805 2 13.9414 2C7.41406 2 2 7.41406 2 13.9531C2 20.4805 7.42578 25.9062 13.9531 25.9062Z" fill="black" fill-opacity="0.85"/>
<path d="M10.707 21.0078C9.9336 21.0078 9.45312 20.5625 9.45312 19.7539V19.5898C9.45312 17.75 11.4102 15.7812 12.4883 14.7031C13.0156 14.1875 12.9805 13.6484 12.4883 13.1797C11.4102 12.1133 9.45312 10.1445 9.45312 8.28125V8.15234C9.45312 7.33203 9.9336 6.88672 10.707 6.88672H17.1992C17.9727 6.88672 18.4531 7.33203 18.4531 8.15234V8.28125C18.4531 10.1445 16.4961 12.1133 15.418 13.1797C14.9258 13.6484 14.8906 14.1875 15.418 14.7031C16.4961 15.7812 18.4531 17.75 18.4531 19.5898V19.7539C18.4531 20.5625 17.9727 21.0078 17.1992 21.0078H10.707ZM11.293 19.9648H16.6133C16.9531 19.9648 17.0117 19.5781 16.7891 19.3789L14.4922 17.0352C14.4102 16.9531 14.375 16.918 14.375 16.7891V13.3906C14.375 13.0508 14.4453 12.8867 14.6914 12.6523C15.2188 12.125 15.7812 11.5859 16.2617 11.082C16.4609 10.8711 16.3555 10.6367 16.1094 10.6367H11.8086C11.5625 10.6367 11.4453 10.8711 11.6563 11.082C12.125 11.5859 12.6875 12.125 13.2148 12.6523C13.4609 12.8867 13.5312 13.0508 13.5312 13.3906V16.7891C13.5312 16.918 13.4961 16.9531 13.4141 17.0352L11.1172 19.3789C10.8945 19.5781 10.9531 19.9648 11.293 19.9648Z" fill="black" fill-opacity="0.85"/>
</svg>
