<svg width="34" height="28" viewBox="0 0 34 28" fill="none" xmlns="http://www.w3.org/2000/svg">
<path d="M0 14.4258C0 18.1406 1.20703 21.5508 3.24609 24.3281C3.60938 24.832 4.23047 24.8789 4.69922 24.5039C5.12109 24.1406 5.17969 23.5781 4.83984 23.1094C3.05859 20.6836 2.00391 17.6719 2.00391 14.4258C2.00391 11.1679 3.05859 8.16793 4.83984 5.71871C5.17969 5.2734 5.13281 4.69918 4.69922 4.3359C4.23047 3.96089 3.60938 4.01949 3.24609 4.51168C1.20703 7.28902 0 10.7109 0 14.4258ZM33.4453 14.4258C33.4453 10.7109 32.25 7.28902 30.1992 4.51168C29.8359 4.01949 29.2148 3.96089 28.7461 4.3359C28.3125 4.69918 28.2773 5.2734 28.6055 5.71871C30.3984 8.16793 31.4414 11.1679 31.4414 14.4258C31.4414 17.6719 30.3984 20.6836 28.6055 23.1094C28.2773 23.5781 28.3242 24.1406 28.7461 24.5039C29.2148 24.8789 29.8359 24.832 30.1992 24.3281C32.25 21.5508 33.4453 18.1406 33.4453 14.4258Z" fill="black" fill-opacity="0.85"/>
<path d="M16.7227 25.8516C22.9688 25.8516 28.1602 20.6719 28.1602 14.4258C28.1602 8.17969 22.9688 3 16.7109 3C10.4648 3 5.29688 8.16797 5.29688 14.4258C5.29688 20.6719 10.4766 25.8516 16.7227 25.8516ZM16.7227 23.8594C11.4961 23.8594 7.30078 19.6641 7.30078 14.4258C7.30078 9.17578 11.4844 4.98047 16.7109 4.98047C21.9492 4.98047 26.1562 9.17578 26.168 14.4258C26.1797 19.6523 21.9727 23.8594 16.7227 23.8594Z" fill="black" fill-opacity="0.85"/>
<path d="M17.3203 20.0039C17.918 20.0039 18.2695 19.6055 18.2695 18.9492V9.90234C18.2695 9.22266 17.9062 8.84766 17.2734 8.84766C16.8398 8.84766 16.5352 8.96484 16.0312 9.30469L13.9219 10.7344C13.6641 10.9102 13.5586 11.0977 13.5586 11.3906C13.5586 11.7539 13.8516 12.0937 14.2266 12.0937C14.4023 12.0937 14.5312 12.0586 14.8008 11.8828L16.3125 10.8867H16.3945V18.9492C16.3945 19.6055 16.7344 20.0039 17.3203 20.0039Z" fill="black" fill-opacity="0.85"/>
</svg>
