<svg width="28" height="28" viewBox="0 0 28 28" fill="none" xmlns="http://www.w3.org/2000/svg">
<g clip-path="url(#clip0_2124_50180)">
<path d="M4.67969 23.0195H23.0898C25.5391 23.0195 26.7578 21.8008 26.7578 19.3867V7.65625C26.7578 5.24219 25.5391 4.02344 23.0898 4.02344H4.67969C2.23047 4.02344 1 5.24219 1 7.65625V19.3867C1 21.8008 2.23047 23.0195 4.67969 23.0195ZM4.70312 21.1328C3.53125 21.1328 2.88672 20.5 2.88672 19.2812V7.76172C2.88672 6.54297 3.53125 5.91016 4.70312 5.91016H23.0547C24.2148 5.91016 24.8711 6.54297 24.8711 7.76172V19.2812C24.8711 20.5 24.2148 21.1328 23.0547 21.1328H4.70312Z" fill="black" fill-opacity="0.85"/>
<path d="M9.49609 18.6836C11.6289 18.6836 13.0469 17.3008 13.0469 15.25C13.0469 14.207 12.625 13.3164 12.3086 12.6133C11.7461 11.4062 10.832 9.89453 10.0352 8.66406C9.87109 8.41797 9.70703 8.32422 9.49609 8.32422C9.28516 8.32422 9.12109 8.41797 8.95703 8.66406C8.17188 9.89453 7.25781 11.4062 6.68359 12.6133C6.36719 13.3164 5.93359 14.207 5.93359 15.25C5.93359 17.3008 7.375 18.6836 9.49609 18.6836ZM16.8086 11.2539C17.5586 11.2539 18.1797 10.6328 18.1797 9.88281C18.1797 9.13281 17.5586 8.51172 16.8086 8.51172C16.0469 8.51172 15.4375 9.13281 15.4375 9.88281C15.4375 10.6328 16.0469 11.2539 16.8086 11.2539ZM20.8398 11.2539C21.5898 11.2539 22.2109 10.6328 22.2109 9.88281C22.2109 9.13281 21.5898 8.51172 20.8398 8.51172C20.0898 8.51172 19.4688 9.13281 19.4688 9.88281C19.4688 10.6328 20.0898 11.2539 20.8398 11.2539ZM16.8086 14.875C17.5586 14.875 18.1797 14.2539 18.1797 13.5039C18.1797 12.7539 17.5586 12.1328 16.8086 12.1328C16.0469 12.1328 15.4375 12.7539 15.4375 13.5039C15.4375 14.2539 16.0469 14.875 16.8086 14.875ZM20.8398 14.875C21.5898 14.875 22.2109 14.2539 22.2109 13.5039C22.2109 12.7539 21.5898 12.1328 20.8398 12.1328C20.0898 12.1328 19.4688 12.7539 19.4688 13.5039C19.4688 14.2539 20.0898 14.875 20.8398 14.875ZM16.8086 18.4961C17.5586 18.4961 18.1797 17.875 18.1797 17.125C18.1797 16.375 17.5586 15.7539 16.8086 15.7539C16.0469 15.7539 15.4375 16.375 15.4375 17.125C15.4375 17.875 16.0469 18.4961 16.8086 18.4961ZM20.8398 18.4961C21.5898 18.4961 22.2109 17.875 22.2109 17.125C22.2109 16.375 21.5898 15.7539 20.8398 15.7539C20.0898 15.7539 19.4688 16.375 19.4688 17.125C19.4688 17.875 20.0898 18.4961 20.8398 18.4961Z" fill="black" fill-opacity="0.85"/>
</g>
<defs>
<clipPath id="clip0_2124_50180">
<rect width="25.7578" height="19.0195" fill="white" transform="translate(1 4)"/>
</clipPath>
</defs>
</svg>
