<svg width="28" height="28" viewBox="0 0 28 28" fill="none" xmlns="http://www.w3.org/2000/svg">
<path d="M13.9531 25.9062C20.4922 25.9062 25.9062 20.4805 25.9062 13.9531C25.9062 7.41406 20.4805 2 13.9414 2C7.41406 2 2 7.41406 2 13.9531C2 20.4805 7.42578 25.9062 13.9531 25.9062ZM13.9531 23.9141C8.42188 23.9141 4.00391 19.4844 4.00391 13.9531C4.00391 8.42188 8.41016 3.99219 13.9414 3.99219C19.4727 3.99219 23.9141 8.42188 23.9141 13.9531C23.9141 19.4844 19.4844 23.9141 13.9531 23.9141Z" fill="black" fill-opacity="0.85"/>
<path d="M8.90234 16.7773H14.7148C16.2969 16.7773 17.5039 15.5703 17.5039 14.0234C17.5039 12.5117 16.2852 11.3632 14.668 11.3281C14.0352 10.1445 12.9102 9.41793 11.5625 9.41793C9.78125 9.41793 8.28125 10.8007 8.09375 12.5703C7.20312 12.875 6.58203 13.6484 6.58203 14.6445C6.58203 15.875 7.51953 16.7773 8.90234 16.7773ZM21.3594 11.0351C21.3594 10.8242 21.2656 10.6835 21.0898 10.6835C20.832 10.6835 20.3984 11.0117 19.6484 11.0117C18.2773 11.0117 17.4102 10.2148 17.4102 8.94918C17.4102 8.22262 17.8203 7.69527 17.8203 7.39058C17.8203 7.22652 17.6797 7.10934 17.4688 7.12105C16.3555 7.16793 14.9727 8.48043 14.7852 10.0976C14.9141 10.2382 15.0195 10.3906 15.1367 10.5429C16.8711 10.7539 18.1484 12.043 18.3125 13.707C20.1992 13.5078 21.3594 12.0195 21.3594 11.0351ZM10.4023 19.3789C10.332 19.5195 10.4023 19.6367 10.5547 19.6367H11.5625L10.7773 21.5352C10.7188 21.6875 10.8945 21.7812 11.0234 21.6523L13.6133 19.0156C13.7305 18.8867 13.6719 18.7109 13.4961 18.7109H12.3125L12.875 17.6445C12.9453 17.5156 12.8984 17.3984 12.7461 17.3984H11.4805C11.3164 17.3984 11.2344 17.457 11.1758 17.5859L10.4023 19.3789Z" fill="black" fill-opacity="0.85"/>
</svg>
