<svg width="31" height="28" viewBox="0 0 31 28" fill="none" xmlns="http://www.w3.org/2000/svg">
<g clip-path="url(#clip0_2124_67802)">
<path d="M6.53906 20.0312C9.38672 20.0312 11.1328 18.1328 11.1328 15.6719C11.1328 14.8984 10.8047 14.0195 10.3477 13.5742C9.82031 13.0703 9.48047 12.9297 9.48047 12.3438C9.48047 11.8633 9.84375 11.5352 10.3945 11.5352C10.793 11.5352 11.0508 11.6523 11.4727 12.0156C11.8359 12.332 12.1523 12.7305 12.375 13.1992C14.1797 12.7773 14.8594 11.6758 14.8594 9.90625C14.8594 9.39062 15.293 8.95703 15.8086 8.95703C16.3242 8.95703 16.7461 9.39062 16.7461 9.90625C16.7578 12.4961 15.5625 14.3008 12.9375 14.9688C12.9609 15.2031 12.9844 15.4492 12.9844 15.707C12.9844 17.8984 12.0352 19.668 10.3828 20.7812C11.5547 21.5078 13.0547 21.918 14.5898 21.918C14.8828 21.918 15.2109 21.8945 15.832 21.8711C15.7031 21.2852 15.6328 20.7344 15.6328 20.207C15.6328 13.2461 25.5 14.0078 25.5 7.38672C25.5 4.63281 22.8281 2.74609 20.2266 2.74609C19.9922 2.74609 19.6641 2.79297 19.3359 2.86328C18.3984 1.70312 16.8984 1 15.4922 1C13.0078 1 11.3555 2.61719 11.2734 4.85547C11.25 5.45312 10.8516 5.79297 10.3359 5.79297C9.79688 5.79297 9.38672 5.38281 9.41016 4.77344C9.44531 3.92969 9.62109 3.15625 9.92578 2.47656C9.375 2.32422 8.82422 2.25391 8.27344 2.25391C5.4375 2.25391 3.31641 4.04688 3.31641 6.23828C3.31641 7.70312 4.40625 8.91016 5.98828 8.91016C6.50391 8.91016 6.92578 9.34375 6.92578 9.84766C6.92578 10.3633 6.50391 10.7969 5.98828 10.7969C3.9375 10.7969 2.4375 9.84766 1.74609 8.35938C0.644531 9.63672 0 11.3242 0 13.0703C0 17.0898 2.58984 20.0312 6.53906 20.0312ZM25.4297 26.9219C28.3594 26.9219 29.7891 23.3594 29.7891 19.8906C29.7891 19.3633 29.7656 18.8711 29.7539 18.4141C28.7227 18.9414 27.4688 19.1758 26.0273 19.082C25.5 19.0469 25.0781 18.6719 25.0781 18.1445C25.0781 17.6289 25.5 17.1602 26.0273 17.207C28.9102 17.4297 30.8438 15.8125 30.8438 13.1758C30.8438 10.832 29.5781 8.91016 27.5391 7.9375C26.0508 15.6484 17.625 14.6172 17.3672 19.8672C17.2852 21.6367 18.6328 23.0312 20.5547 23.0312C21.2344 23.0312 21.5742 23.0078 21.8789 22.9961C22.1484 24.9883 23.4023 26.9219 25.4297 26.9219Z" fill="black" fill-opacity="0.85"/>
</g>
<defs>
<clipPath id="clip0_2124_67802">
<rect width="30.8438" height="25.9336" fill="white" transform="translate(0 1)"/>
</clipPath>
</defs>
</svg>
