<svg width="28" height="28" viewBox="0 0 28 28" fill="none" xmlns="http://www.w3.org/2000/svg">
<path d="M13.9531 25.9062C20.4922 25.9062 25.9062 20.4805 25.9062 13.9531C25.9062 7.41406 20.4805 2 13.9414 2C7.41406 2 2 7.41406 2 13.9531C2 20.4805 7.42578 25.9062 13.9531 25.9062Z" fill="black" fill-opacity="0.85"/>
<path d="M8.63281 18.8281C8.07031 18.8281 7.80078 18.4414 7.80078 17.9375V9.95703C7.80078 9.42969 8.08203 9.06641 8.63281 9.06641H12.2656C12.7109 9.06641 13.0273 9.33594 13.0273 9.76953C13.0273 10.2734 12.6523 10.4961 12.2656 10.4961H9.52344V13.2031H12.1602C12.5586 13.2031 12.8281 13.4141 12.8281 13.8828C12.8281 14.3281 12.5469 14.5508 12.1602 14.5508H9.52344V17.4102H12.2656C12.6523 17.4102 13.0273 17.6328 13.0273 18.125C13.0273 18.5703 12.7227 18.8281 12.2656 18.8281H8.63281ZM15.1836 18.8281C14.6914 18.8281 14.3281 18.5234 14.3281 18.0195C14.3281 17.7617 14.4219 17.4805 14.5039 17.3164L18.2891 10.5547V10.4961H15.0898C14.6562 10.4961 14.3398 10.2148 14.3398 9.78125C14.3398 9.35938 14.6562 9.06641 15.0898 9.06641H19.2969C19.7539 9.06641 20.1641 9.33594 20.1641 9.92188C20.1641 10.2266 20.082 10.4141 19.9648 10.6016L16.25 17.2812V17.4102H19.625C20.0469 17.4102 20.3281 17.6914 20.3281 18.1133C20.3281 18.5234 20.0469 18.8281 19.625 18.8281H15.1836Z" fill="white"/>
</svg>
