<svg width="29" height="29" viewBox="0 0 29 29" fill="none" xmlns="http://www.w3.org/2000/svg">
<g clip-path="url(#clip0_2124_46015)">
<path d="M6.68555 24.6202H20.9004C23.3614 24.6202 24.5801 23.4014 24.5801 20.9873V6.67871C24.5801 4.26465 23.3614 3.0459 20.9004 3.0459H6.68555C4.23633 3.0459 3.00586 4.25293 3.00586 6.67871V20.9873C3.00586 23.4131 4.23633 24.6202 6.68555 24.6202Z" fill="black" fill-opacity="0.85"/>
<path d="M8.83008 16.1006V9.57324C8.83008 9.15137 9.18164 8.78808 9.62695 8.78808C10.0371 8.78808 10.4004 9.15137 10.4004 9.57324V13.6748C10.5762 13.5694 10.7519 13.4522 10.9746 13.3584V7.37012C10.9746 6.94824 11.3262 6.6084 11.748 6.6084C12.1699 6.6084 12.5332 6.94824 12.5332 7.37012V12.8545C12.7324 12.8193 12.9316 12.7959 13.1426 12.7725V6.77246C13.1426 6.3623 13.4825 5.99902 13.9161 5.99902C14.3497 5.99902 14.6895 6.3623 14.6895 6.77246V12.8428C14.8887 12.9014 15.0879 12.9717 15.2754 13.0186V7.79199C15.2754 7.37012 15.6153 7.01855 16.0489 7.01855C16.459 7.01855 16.8106 7.37012 16.8106 7.79199V15.1514C16.8106 15.3623 16.8926 15.4561 17.045 15.4561C17.1504 15.4561 17.2559 15.3858 17.3379 15.1631L18.3223 13.1006C18.6504 12.4326 18.9082 12.1514 19.377 12.1514C19.7871 12.1514 20.0801 12.4209 20.0801 12.8076C20.0801 13.1358 19.8106 13.8741 19.6231 14.4717C19.1895 15.9131 18.7793 17.1553 18.2403 18.1983C17.2676 20.1905 15.8028 21.0459 13.67 21.0459C10.8223 21.0459 8.83008 19.1592 8.83008 16.1006Z" fill="white"/>
</g>
<defs>
<clipPath id="clip0_2124_46015">
<rect width="21.5742" height="21.5977" fill="white" transform="translate(3.00586 3.02246)"/>
</clipPath>
</defs>
</svg>
