<svg width="34" height="32" viewBox="0 0 34 32" fill="none" xmlns="http://www.w3.org/2000/svg">
<g clip-path="url(#clip0_2124_45773)">
<path d="M8.61718 15.6917C10.7968 15.6917 12.6953 13.7229 12.6953 11.1799C12.6953 8.64871 10.7851 6.79715 8.61718 6.79715C6.4375 6.79715 4.52735 8.69558 4.52735 11.2034C4.52735 13.7229 6.42578 15.6917 8.61718 15.6917ZM2.07812 26.2737H15.1328C16.6211 26.2737 17.1953 25.6878 17.1953 24.6214C17.1953 21.387 13.8906 17.4846 8.60546 17.4846C3.32031 17.4846 0.015625 21.387 0.015625 24.6214C0.015625 25.6878 0.601563 26.2737 2.07812 26.2737Z" fill="black" fill-opacity="0.85"/>
<path d="M14.7344 27.8674H29.4648C32.5468 27.8674 33.5547 26.3792 33.5547 24.7151C33.5547 20.7776 29.0429 15.926 22.0937 15.926C15.1562 15.926 10.6445 20.7776 10.6445 24.7151C10.6445 26.3792 11.6523 27.8674 14.7344 27.8674Z" fill="white"/>
<path d="M22.1054 15.4221C24.625 15.4221 26.7929 13.1721 26.7929 10.2424C26.7929 7.34793 24.6133 5.2034 22.1054 5.2034C19.5976 5.2034 17.4179 7.3948 17.4179 10.2659C17.4179 13.1721 19.5859 15.4221 22.1054 15.4221ZM14.7344 26.2737H29.4648C31.3047 26.2737 31.9609 25.7464 31.9609 24.7151C31.9609 21.6917 28.1758 17.5198 22.0937 17.5198C16.0234 17.5198 12.2383 21.6917 12.2383 24.7151C12.2383 25.7464 12.8945 26.2737 14.7344 26.2737Z" fill="black" fill-opacity="0.85"/>
<path d="M29.0547 30.7971C29.957 31.6878 31.4101 31.6878 32.289 30.7737C33.1562 29.8831 33.1679 28.4768 32.2773 27.5862L7.53906 2.84793C6.63671 1.94558 5.19531 1.9573 4.30468 2.84793C3.4375 3.71512 3.4375 5.17996 4.30468 6.05887L29.0547 30.7971Z" fill="white"/>
<path d="M30.0283 29.8245C30.3799 30.176 30.9658 30.176 31.3057 29.8245C31.6455 29.4729 31.6689 28.9104 31.3057 28.5471L6.56738 3.80887C6.2041 3.44558 5.6416 3.4573 5.27832 3.80887C4.93848 4.14871 4.93848 4.74637 5.27832 5.08621L30.0283 29.8245Z" fill="black" fill-opacity="0.85"/>
</g>
<defs>
<clipPath id="clip0_2124_45773">
<rect width="33.5391" height="31.4356" fill="white" transform="translate(0.015625 0.0266113)"/>
</clipPath>
</defs>
</svg>
