<svg width="28" height="28" viewBox="0 0 28 28" fill="none" xmlns="http://www.w3.org/2000/svg">
<g clip-path="url(#clip0_2124_88678)">
<path d="M13.9531 25.918C20.4922 25.918 25.9062 20.5039 25.9062 13.9648C25.9062 7.4375 20.4805 2.01172 13.9414 2.01172C7.41406 2.01172 2 7.4375 2 13.9648C2 20.5039 7.42578 25.918 13.9531 25.918Z" fill="black" fill-opacity="0.85"/>
<path d="M8.65625 18.3242C8.02344 18.3242 7.66016 17.9961 7.66016 17.5273C7.66016 16.8477 8.33984 16.2617 8.91406 15.6641C9.35938 15.1836 9.45312 14.2344 9.51172 13.4844C9.55859 10.8945 10.25 9.13672 12.0195 8.48047C12.3008 7.61328 12.9805 6.92188 13.9648 6.92188C14.9492 6.92188 15.6406 7.61328 15.9102 8.48047C17.6797 9.13672 18.3711 10.8945 18.4297 13.4844C18.4766 14.2344 18.5586 15.1836 19.0156 15.6641C19.6133 16.25 20.2695 16.8477 20.2695 17.5273C20.2695 17.9961 19.9062 18.3242 19.2852 18.3242H8.65625ZM13.9648 21.125C12.8281 21.125 12.0078 20.3047 11.9258 19.3438H16.0039C15.9336 20.3047 15.1016 21.125 13.9648 21.125Z" fill="white"/>
</g>
<defs>
<clipPath id="clip0_2124_88678">
<rect width="23.9062" height="23.918" fill="white" transform="translate(2 2)"/>
</clipPath>
</defs>
</svg>
