<svg width="28" height="28" viewBox="0 0 28 28" fill="none" xmlns="http://www.w3.org/2000/svg">
<g clip-path="url(#clip0_2124_24809)">
<path d="M14.4219 26.082C20.8789 26.082 23.8555 23.7852 23.8555 18.5586V9.64061C23.8555 7.43749 23.3281 5.94921 22.4961 4.89452C22.2148 4.54296 21.7578 4.51952 21.418 4.80077C20.293 5.78515 17.3516 6.6289 14.4219 6.6289C11.4922 6.6289 8.55078 5.78515 7.4375 4.80077C7.08594 4.51952 6.64062 4.54296 6.35938 4.89452C5.52734 5.94921 5 7.43749 5 9.64061V18.5586C5 23.7852 7.96484 26.082 14.4219 26.082ZM14.4219 24.1953C9.00781 24.1953 6.88672 22.3789 6.88672 18.3711V9.74608C6.88672 8.71483 7.0625 7.7539 7.49609 6.92187C8.89062 8.01171 11.5273 8.51561 14.4219 8.51561C17.3281 8.51561 19.9648 8.01171 21.3477 6.92187C21.793 7.7539 21.9688 8.71483 21.9688 9.74608V18.3711C21.9688 22.3789 19.8477 24.1953 14.4219 24.1953Z" fill="black" fill-opacity="0.85"/>
<path d="M14.4219 5.02344C17.5273 5.02344 19.8477 4.36719 19.8477 3.52344C19.8477 2.65625 17.5273 2.01172 14.4219 2.01172C11.3164 2.01172 9.00781 2.65625 9.00781 3.52344C9.00781 4.36719 11.3164 5.02344 14.4219 5.02344Z" fill="black" fill-opacity="0.85"/>
</g>
<defs>
<clipPath id="clip0_2124_24809">
<rect width="18.8555" height="24.082" fill="white" transform="translate(5 2)"/>
</clipPath>
</defs>
</svg>
