<svg width="28" height="28" viewBox="0 0 28 28" fill="none" xmlns="http://www.w3.org/2000/svg">
<path d="M20.8086 25.1367C21.4883 25.1367 22.0508 25.125 22.4141 25.0547C22.8711 24.9492 23.293 24.6562 23.293 24.0586C23.293 23.4492 22.8477 23.0625 22.25 23.0625C21.8398 23.0625 21.4648 23.0859 20.9141 23.0859C16.7539 23.0859 14.9023 21.668 14.9141 17.4258L14.9258 9.41016L14.832 6.22266L17.1758 8.80078L21.0195 12.6445C21.207 12.832 21.4766 12.9258 21.7578 12.9258C22.3438 12.9258 22.7656 12.4805 22.7656 11.9062C22.7656 11.625 22.6719 11.3789 22.4492 11.1445L14.668 3.35156C14.4453 3.11719 14.1758 3 13.8828 3C13.5898 3 13.3203 3.11719 13.0977 3.35156L5.32812 11.1445C5.10547 11.3789 5 11.625 5 11.9062C5 12.4805 5.42188 12.9258 6.00781 12.9258C6.28906 12.9258 6.57031 12.832 6.74609 12.6445L10.5898 8.80078L12.9219 6.23438L12.8398 9.41016V17.5312C12.8398 22.9805 15.3945 25.1367 20.8086 25.1367Z" fill="black" fill-opacity="0.85"/>
</svg>
