<svg width="32" height="28" viewBox="0 0 32 28" fill="none" xmlns="http://www.w3.org/2000/svg">
<path d="M15.9141 26.5273C16.3711 26.5273 16.7812 26.1641 16.7812 25.707V2.83203C16.7812 2.375 16.3711 2.02344 15.9141 2.02344C15.457 2.02344 15.0586 2.375 15.0586 2.83203V25.707C15.0586 26.1641 15.457 26.5273 15.9141 26.5273ZM1.67578 20.9961L11.5898 15.2539C12.2695 14.8438 12.2578 13.7656 11.5898 13.3789L1.67578 7.56641C0.9375 7.13281 0 7.60156 0 8.42188V20.1875C0 20.9961 0.925781 21.4297 1.67578 20.9961ZM30.1641 20.9961C30.9141 21.4297 31.8281 20.9961 31.8281 20.1875V8.42188C31.8281 7.60156 30.9023 7.13281 30.1641 7.56641L20.25 13.3789C19.582 13.7656 19.5586 14.8438 20.25 15.2539L30.1641 20.9961Z" fill="black" fill-opacity="0.85"/>
</svg>
