<svg width="28" height="28" viewBox="0 0 28 28" fill="none" xmlns="http://www.w3.org/2000/svg">
<path d="M13.9531 25.9062C20.4922 25.9062 25.9062 20.4805 25.9062 13.9531C25.9062 7.41406 20.4805 2 13.9414 2C7.41406 2 2 7.41406 2 13.9531C2 20.4805 7.42578 25.9062 13.9531 25.9062Z" fill="black" fill-opacity="0.85"/>
<path d="M11.1739 19.9414C10.8106 19.5664 10.8106 18.9805 11.1739 18.6406L16.1426 13.9648L11.1739 9.30077C10.7989 8.94921 10.8106 8.35155 11.1856 7.99999C11.5372 7.66015 12.0997 7.6953 12.4747 8.04687L17.502 12.7695C18.1934 13.4141 18.1817 14.5273 17.502 15.1602L12.4747 19.8945C12.1348 20.2227 11.502 20.2461 11.1739 19.9414Z" fill="white"/>
</svg>
