<svg width="28" height="28" viewBox="0 0 28 28" fill="none" xmlns="http://www.w3.org/2000/svg">
<path d="M5 9.41797L5.01172 21.207C5.01172 21.875 5.44531 22.332 6.14844 22.332H17.9375C18.5938 22.332 19.0391 21.8398 19.0391 21.2773C19.0391 20.7148 18.5352 20.2344 17.9844 20.2344H13.9062L8.1875 20.4219L10.3672 18.5L21.9805 6.875C22.1914 6.66406 22.3086 6.38281 22.3086 6.13672C22.3086 5.57422 21.793 5.03516 21.207 5.03516C20.9492 5.03516 20.6914 5.14063 20.4688 5.35156L8.84375 16.9883L6.91016 19.168L7.12109 13.6953V9.37109C7.12109 8.80859 6.64062 8.30469 6.06641 8.30469C5.49219 8.30469 5 8.77344 5 9.41797Z" fill="black" fill-opacity="0.85"/>
</svg>
