<svg width="28" height="28" viewBox="0 0 28 28" fill="none" xmlns="http://www.w3.org/2000/svg">
<g clip-path="url(#clip0_2124_89146)">
<path d="M6.67969 24.5977H20.8945C23.3555 24.5977 24.5742 23.3789 24.5742 20.9648V6.65625C24.5742 4.24219 23.3555 3.02344 20.8945 3.02344H6.67969C4.23047 3.02344 3 4.23047 3 6.65625V20.9648C3 23.3906 4.23047 24.5977 6.67969 24.5977Z" fill="black" fill-opacity="0.85"/>
<path d="M11.0273 9.26953C11.0273 7.74609 12.2813 6.51562 13.793 6.51562C15.3164 6.51562 16.5586 7.74609 16.5586 9.26953C16.5586 10.5117 15.75 11.543 14.625 11.8828V17.9414C14.625 19.7344 14.3555 21.293 13.793 21.293C13.2422 21.293 12.9492 19.7109 12.9492 17.9414V11.8828C11.8477 11.5313 11.0273 10.5 11.0273 9.26953ZM12.2109 8.55469C12.2109 9.03516 12.6211 9.44532 13.0781 9.44532C13.5586 9.44532 13.957 9.03516 13.957 8.55469C13.9688 8.08594 13.5586 7.67578 13.0781 7.67578C12.6211 7.67578 12.1992 8.08594 12.2109 8.55469Z" fill="white"/>
</g>
<defs>
<clipPath id="clip0_2124_89146">
<rect width="21.5742" height="21.5977" fill="white" transform="translate(3 3)"/>
</clipPath>
</defs>
</svg>
