<svg width="28" height="28" viewBox="0 0 28 28" fill="none" xmlns="http://www.w3.org/2000/svg">
<path d="M13.9531 25.9062C20.4922 25.9062 25.9062 20.4805 25.9062 13.9531C25.9062 7.41406 20.4805 2 13.9414 2C7.41406 2 2 7.41406 2 13.9531C2 20.4805 7.42578 25.9062 13.9531 25.9062ZM13.9531 23.9141C8.42188 23.9141 4.00391 19.4844 4.00391 13.9531C4.00391 8.42188 8.41016 3.99219 13.9414 3.99219C19.4727 3.99219 23.9141 8.42188 23.9141 13.9531C23.9141 19.4844 19.4844 23.9141 13.9531 23.9141Z" fill="black" fill-opacity="0.85"/>
<path d="M8.04688 10.8945H19.8828C20.3984 10.8945 20.7734 10.5664 20.7734 10.0625C20.7734 9.57031 20.3984 9.24219 19.8828 9.24219H8.04688C7.51953 9.24219 7.15625 9.57031 7.15625 10.0625C7.15625 10.5664 7.51953 10.8945 8.04688 10.8945ZM8.04688 14.7734H19.8828C20.3984 14.7734 20.7734 14.4453 20.7734 13.9414C20.7734 13.4492 20.3984 13.1211 19.8828 13.1211H8.04688C7.51953 13.1211 7.15625 13.4492 7.15625 13.9414C7.15625 14.4453 7.51953 14.7734 8.04688 14.7734ZM8.04688 18.6641H19.8828C20.3984 18.6641 20.7734 18.3242 20.7734 17.832C20.7734 17.3398 20.3984 17.0117 19.8828 17.0117H8.04688C7.51953 17.0117 7.15625 17.3398 7.15625 17.832C7.15625 18.3242 7.51953 18.6641 8.04688 18.6641Z" fill="black" fill-opacity="0.85"/>
</svg>
