<svg width="28" height="28" viewBox="0 0 28 28" fill="none" xmlns="http://www.w3.org/2000/svg">
<path d="M6.67969 24.5977H20.8945C23.3555 24.5977 24.5742 23.3789 24.5742 20.9648V6.65625C24.5742 4.24219 23.3555 3.02344 20.8945 3.02344H6.67969C4.23047 3.02344 3 4.23047 3 6.65625V20.9648C3 23.3906 4.23047 24.5977 6.67969 24.5977ZM6.70312 22.7109C5.53125 22.7109 4.88672 22.0898 4.88672 20.8711V6.75C4.88672 5.53125 5.53125 4.91016 6.70312 4.91016H20.8711C22.0312 4.91016 22.6875 5.53125 22.6875 6.75V20.8711C22.6875 22.0898 22.0312 22.7109 20.8711 22.7109H6.70312Z" fill="black" fill-opacity="0.85"/>
<path d="M9.16406 18.5273H13.2305C13.6523 18.5273 13.8984 18.2578 13.8984 17.8477C13.8984 17.4023 13.6406 17.1562 13.2305 17.1562H10.4531V17.0625L12.1641 14.8945C13.3359 13.4414 13.7227 12.5742 13.7227 11.543C13.7227 9.96094 12.6445 8.8125 11.0273 8.8125C9.52734 8.8125 8.39062 10.0547 8.39062 11.2734C8.39062 11.707 8.64844 12.0117 9.09375 12.0117C9.48047 12.0117 9.71484 11.8359 9.83203 11.4492C10.0547 10.6641 10.3477 10.1719 11.0156 10.1719C11.7305 10.1719 12.1172 10.793 12.1172 11.625C12.1172 12.5625 11.4727 13.5117 10.8516 14.3086L8.8125 16.9102C8.58984 17.1914 8.37891 17.4844 8.37891 17.8477C8.37891 18.2461 8.63672 18.5273 9.16406 18.5273ZM17.8125 18.6562C18.2812 18.6562 18.668 18.2695 18.668 17.8008V9.85547C18.668 9.25781 18.293 8.90625 17.6836 8.90625C17.1914 8.90625 16.793 9.17578 16.5234 9.38672L15.2344 10.3828C15.0234 10.5469 14.8594 10.7695 14.8594 11.0742C14.8594 11.4375 15.1055 11.6953 15.457 11.6953C15.6445 11.6953 15.7617 11.6367 15.8789 11.5547L16.957 10.6875V17.8008C16.957 18.2695 17.3438 18.6562 17.8125 18.6562Z" fill="black" fill-opacity="0.85"/>
</svg>
