<svg width="28" height="28" viewBox="0 0 28 28" fill="none" xmlns="http://www.w3.org/2000/svg">
<path d="M13.9531 25.9062C20.4922 25.9062 25.9062 20.4805 25.9062 13.9531C25.9062 7.41406 20.4805 2 13.9414 2C7.41406 2 2 7.41406 2 13.9531C2 20.4805 7.42578 25.9062 13.9531 25.9062Z" fill="black" fill-opacity="0.85"/>
<path d="M17.7383 16.9531C17.1992 16.9531 16.8477 16.5781 16.8477 16.0039V13.9297L17.0234 12.043L15.2773 13.9062L10.8594 18.3359C10.6719 18.5117 10.4492 18.6172 10.1563 18.6172C9.62891 18.6172 9.26562 18.2656 9.26562 17.7148C9.26562 17.4805 9.38281 17.2344 9.55859 17.0586L14 12.6289L15.8867 10.8711L14.0938 11.0586H11.9141C11.3281 11.0586 10.9531 10.707 10.9531 10.1797C10.9531 9.64062 11.3164 9.28906 11.8906 9.28906H17.6094C18.2305 9.28906 18.6289 9.57031 18.6289 10.2852V15.9805C18.6289 16.543 18.2656 16.9531 17.7383 16.9531Z" fill="white"/>
</svg>
