<svg width="28" height="29" viewBox="0 0 28 29" fill="none" xmlns="http://www.w3.org/2000/svg">
<path d="M2 14.2216C2 20.7607 7.42578 26.1748 13.9531 26.1748C20.4922 26.1748 25.9062 20.7607 25.9062 14.2216C25.9062 10.2841 23.9141 6.74507 20.9023 4.55366C20.3867 4.15522 19.7422 4.28413 19.4492 4.7646C19.1562 5.25678 19.3086 5.80757 19.7891 6.17085C22.2852 7.9521 23.9023 10.8935 23.9141 14.2216C23.9258 19.7529 19.4844 24.1826 13.9531 24.1826C8.42188 24.1826 4.00391 19.7529 4.00391 14.2216C4.00391 9.47553 7.26172 5.53803 11.6914 4.53022V6.206C11.6914 7.03803 12.2656 7.26069 12.9102 6.80366L16.6484 4.17866C17.1758 3.81538 17.1875 3.25288 16.6484 2.86616L12.9219 0.24116C12.2656 -0.22759 11.6914 -0.00493437 11.6914 0.838816V2.49116C6.20703 3.56928 2 8.456 2 14.2216Z" fill="black" fill-opacity="0.85"/>
<path d="M8.24609 10.3193C8.14062 10.8583 8.07031 11.5615 8.07031 12.0302C8.07031 15.9912 10.4258 18.6162 14.0234 18.6162C16.3438 18.6162 17.4336 17.2568 17.6914 16.7998H17.0234C17.7148 17.5029 18.0195 18.2763 18.3711 19.3896C18.4414 19.624 18.6289 19.7294 18.8047 19.7294C19.1914 19.7294 19.5195 19.3896 19.5195 18.9208C19.5195 18.1826 18.4766 16.9169 17.9141 16.4013C15.582 14.2802 12.0664 15.5224 11.1523 13.1669C11.082 12.9794 11.2695 12.8271 11.4688 12.9912C13.3555 14.6552 15.6172 13.3076 17.9141 15.3935C18.1016 15.5576 18.3008 15.4755 18.3477 15.288C18.3711 15.1357 18.3828 14.8896 18.3828 14.6552C18.3828 12.0654 16.5781 10.8232 14.0469 10.8232C13.1914 10.8232 12.2188 11.0341 11.4336 11.0341C10.5781 11.0341 9.62891 10.9404 8.85547 10.1552C8.63281 9.92086 8.31641 9.94429 8.24609 10.3193Z" fill="black" fill-opacity="0.85"/>
</svg>
