<svg width="28" height="28" viewBox="0 0 28 28" fill="none" xmlns="http://www.w3.org/2000/svg">
<path d="M13.8633 18.5547C15.9375 18.5547 16.5234 17.2773 18.3633 16.8086L10.2422 8.35938C9.71484 7.82031 8.94141 7.73828 8.30859 8.19531L3.71484 11.4648C2.91797 12.0156 3 12.8594 3.45703 13.3516C3.83203 13.7734 4.52344 13.9492 5.17969 13.4805L8.90625 10.8438L11.0156 13.0117C11.25 13.2578 11.3203 13.6328 10.957 13.8789L6.62109 16.7266C7.125 16.6797 7.66406 16.6562 8.28516 16.6797C10.9453 16.7969 11.4375 18.5547 13.8633 18.5547ZM0.65625 21.6484H1.83984C4.96875 21.6484 5.68359 19.7266 7.85156 19.7266C10.0195 19.7266 10.7344 21.6484 13.8633 21.6484C17.0039 21.6484 17.707 19.7266 19.8867 19.7266C22.0547 19.7266 22.7578 21.6484 25.8984 21.6484H27.082C27.4453 21.6484 27.7383 21.3672 27.7383 21.0039C27.7383 20.6406 27.4453 20.3477 27.082 20.3477H25.8984C23.6484 20.3477 22.8867 18.4258 19.8867 18.4258C16.875 18.4258 16.1133 20.3477 13.8633 20.3477C11.6133 20.3477 10.8633 18.4258 7.85156 18.4258C4.85156 18.4258 4.08984 20.3477 1.83984 20.3477H0.65625C0.28125 20.3477 0 20.6406 0 21.0039C0 21.3672 0.28125 21.6484 0.65625 21.6484ZM0.65625 24.8828H1.83984C4.96875 24.8828 5.68359 22.9492 7.85156 22.9492C10.0195 22.9492 10.7344 24.8828 13.8633 24.8828C17.0039 24.8828 17.707 22.9492 19.8867 22.9492C22.0547 22.9492 22.7578 24.8828 25.8984 24.8828H27.082C27.4453 24.8828 27.7383 24.5898 27.7383 24.2266C27.7383 23.8633 27.4453 23.5703 27.082 23.5703H25.8984C23.6484 23.5703 22.8867 21.6484 19.8867 21.6484C16.875 21.6484 16.1133 23.5703 13.8633 23.5703C11.6133 23.5703 10.8633 21.6484 7.85156 21.6484C4.85156 21.6484 4.08984 23.5703 1.83984 23.5703H0.65625C0.28125 23.5703 0 23.8633 0 24.2266C0 24.5898 0.28125 24.8828 0.65625 24.8828ZM10.0664 4.65625C10.0664 5.01953 10.3594 5.3125 10.7227 5.3125C11.7773 5.3125 12.4219 5.5 13.0898 6.23828C13.3477 6.51953 13.6055 6.63672 13.8633 6.63672C14.1328 6.63672 14.3906 6.51953 14.6484 6.23828C15.3164 5.5 15.9609 5.3125 17.0156 5.3125C17.3789 5.3125 17.6719 5.01953 17.6719 4.65625C17.6719 4.29297 17.3789 4 17.0039 4C15.7031 4 14.8359 4.31641 13.8633 5.19531C12.9023 4.31641 12.0352 4 10.7227 4C10.3594 4 10.0664 4.29297 10.0664 4.65625ZM18.5391 13.8086C19.957 13.8086 21.1055 12.6602 21.1055 11.2422C21.1055 9.83594 19.957 8.6875 18.5391 8.6875C17.1211 8.6875 15.9844 9.83594 15.9844 11.2422C15.9844 12.6602 17.1211 13.8086 18.5391 13.8086Z" fill="black" fill-opacity="0.85"/>
</svg>
