<svg width="28" height="32" viewBox="0 0 28 32" fill="none" xmlns="http://www.w3.org/2000/svg">
<g clip-path="url(#clip0_2124_67779)">
<path d="M8.23438 25.7461H19.1328C21.1836 25.7461 22.3672 24.5273 22.3672 22.4531V5.71875C22.3672 3.63281 21.1836 2.42578 19.1328 2.42578H16.0391V2.34375C16.0391 0.949219 15.0781 0 13.6836 0C12.2891 0 11.3281 0.949219 11.3281 2.34375V2.42578H8.23438C6.18359 2.42578 5 3.63281 5 5.71875V22.4531C5 24.5273 6.18359 25.7461 8.23438 25.7461ZM13.6836 3.22266C13.2031 3.22266 12.8281 2.83594 12.8281 2.35547C12.8281 1.88672 13.2031 1.5 13.6836 1.5C14.1641 1.5 14.5391 1.88672 14.5391 2.35547C14.5391 2.83594 14.1641 3.22266 13.6836 3.22266ZM16.4141 30.9023H21.5234C21.9922 30.9023 22.3672 30.5273 22.3672 30.0586C22.3672 29.5781 21.9922 29.1914 21.5234 29.1914H16.4141C15.0664 29.1914 14.375 28.6289 14.375 27.2812V24.457H12.6641V27.2812C12.6641 29.5781 14.1172 30.9023 16.4141 30.9023Z" fill="black" fill-opacity="0.85"/>
<path d="M9.66406 22.3711C8.92578 22.3711 8.44531 21.9141 8.44531 21.1875V8.15625C8.44531 7.44141 8.92578 6.96094 9.66406 6.96094H17.7266C18.4648 6.96094 18.9453 7.44141 18.9453 8.15625V21.1875C18.9453 21.9141 18.4648 22.3711 17.7266 22.3711H9.66406Z" fill="white"/>
<path d="M12.207 20.0156H15.1836C15.5352 20.0156 15.793 19.7695 15.793 19.4414C15.793 19.1016 15.5352 18.8203 15.1836 18.8203H12.207C11.8437 18.8203 11.5977 19.1016 11.5977 19.4414C11.5977 19.7695 11.8437 20.0156 12.207 20.0156ZM11.2812 17.4961H16.1445C16.4844 17.4961 16.7422 17.2266 16.7422 16.8867C16.7422 16.5586 16.4844 16.3008 16.1445 16.3008H11.2812C10.918 16.3008 10.6719 16.5586 10.6719 16.8867C10.6719 17.2266 10.918 17.4961 11.2812 17.4961ZM13.6836 14.6133C14.7266 14.6133 15.5938 13.8047 15.5938 12.75C15.5938 12.1641 15.2891 11.5898 15.0078 11.0625L14.0234 9.25783C13.8125 8.8594 13.543 8.87111 13.3437 9.25783L12.3594 11.0625C12.0781 11.5898 11.7734 12.1641 11.7734 12.75C11.7734 13.8047 12.6523 14.6133 13.6836 14.6133Z" fill="black" fill-opacity="0.85"/>
</g>
<defs>
<clipPath id="clip0_2124_67779">
<rect width="17.3672" height="31.0898" fill="white" transform="translate(5)"/>
</clipPath>
</defs>
</svg>
