<svg width="28" height="28" viewBox="0 0 28 28" fill="none" xmlns="http://www.w3.org/2000/svg">
<path d="M6.67969 24.5742H20.8945C23.3555 24.5742 24.5742 23.3555 24.5742 20.9414V6.63281C24.5742 4.21875 23.3555 3 20.8945 3H6.67969C4.23047 3 3 4.20703 3 6.63281V20.9414C3 23.3672 4.23047 24.5742 6.67969 24.5742Z" fill="black" fill-opacity="0.85"/>
<path d="M12.5625 19.6172C9.77344 19.6172 7.93359 17.7188 7.93359 14.8828V13.3125C7.93359 12.75 8.28516 12.375 8.8125 12.375C9.32812 12.375 9.67969 12.7383 9.67969 13.2891V14.8828C9.67969 16.6641 10.8398 17.8711 12.5625 17.8711C14.168 17.8711 15.2344 16.6875 15.2344 14.8945V11.4727L15.293 10.2773L14.8945 10.8281L13.5234 12.2461C13.3594 12.4219 13.1367 12.5156 12.8789 12.5156C12.375 12.5156 11.9883 12.1406 11.9883 11.6602C11.9883 11.3906 12.0703 11.1797 12.2461 11.0156L15.375 7.94531C15.5977 7.72266 15.8555 7.62891 16.125 7.62891C16.3828 7.62891 16.6406 7.73438 16.8633 7.94531L19.9688 11.0039C20.1445 11.1797 20.2383 11.3789 20.2383 11.6484C20.2383 12.1406 19.8398 12.5156 19.3359 12.5156C19.0898 12.5156 18.8672 12.4219 18.7031 12.2461L17.5547 11.0625L16.9336 10.2656L16.9805 11.4727V14.8945C16.9805 17.7305 15.2227 19.6172 12.5625 19.6172Z" fill="white"/>
</svg>
