<svg width="28" height="28" viewBox="0 0 28 28" fill="none" xmlns="http://www.w3.org/2000/svg">
<path d="M10.3164 22.3086C10.8906 22.3086 11.3125 21.8633 11.3125 21.2539V18.4648H12.8594C13.4102 18.4648 13.7852 18.1367 13.7852 17.5859C13.7852 17.0703 13.3984 16.707 12.8594 16.707H11.3125V6.64062C11.3125 5.69141 10.6094 5.01172 9.625 5.01172C8.57031 5.01172 7.96094 5.78516 7.41016 6.65234L1.43359 15.8164C1.15234 16.2617 1 16.7305 1 17.1523C1 17.9023 1.49219 18.4648 2.42969 18.4648H9.32031V21.2539C9.32031 21.9805 9.83594 22.3086 10.3164 22.3086ZM9.33203 16.7305H2.95703V16.625L9.22656 7.09766H9.33203V16.7305ZM18.332 22.0625H26.7812C27.3555 22.0625 27.7656 21.6758 27.7656 21.1367C27.7656 20.6094 27.3555 20.2461 26.7812 20.2461H19.3867V6.04297C19.3867 5.45703 18.918 5 18.3438 5C17.7695 5 17.3008 5.45703 17.3008 6.04297V20.9727C17.3008 21.7578 17.8047 22.0625 18.332 22.0625Z" fill="black" fill-opacity="0.85"/>
</svg>
