<svg width="28" height="28" viewBox="0 0 28 28" fill="none" xmlns="http://www.w3.org/2000/svg">
<path d="M6.67969 24.5977H20.8945C23.3555 24.5977 24.5742 23.3789 24.5742 20.9648V6.65625C24.5742 4.24219 23.3555 3.02344 20.8945 3.02344H6.67969C4.23047 3.02344 3 4.23047 3 6.65625V20.9648C3 23.3906 4.23047 24.5977 6.67969 24.5977Z" fill="black" fill-opacity="0.85"/>
<path d="M9.94922 18.1641C9.50391 18.1641 9.1875 17.8594 9.1875 17.4258V10.5703C9.1875 10.1133 9.49219 9.80859 9.91406 9.80859C10.3242 9.80859 10.6289 10.0781 10.6289 10.6055V10.7461C10.9922 10.0781 11.5547 9.77344 12.2461 9.77344C13.0078 9.77344 13.6172 10.1016 13.9453 10.793L15.4219 7.19531C15.5391 6.92578 15.7148 6.76172 15.9961 6.76172C16.3242 6.76172 16.582 6.99609 16.582 7.3125C16.582 7.42969 16.5469 7.54688 16.5117 7.64062L15.5859 9.86719C15.75 9.80859 15.9258 9.77344 16.1133 9.77344C17.5195 9.77344 18.4219 10.7578 18.4219 12.375V17.3906C18.4219 17.8594 18.1055 18.1641 17.6719 18.1641C17.2383 18.1641 16.9336 17.8594 16.9336 17.3906V12.4922C16.9336 11.6602 16.5 11.1328 15.7617 11.1328C15.0117 11.1328 14.5547 11.6836 14.5547 12.5391V17.3906C14.5547 17.8594 14.25 18.1641 13.8164 18.1641C13.3828 18.1641 13.0664 17.8594 13.0664 17.3906V16.3359L11.6016 20.3906C11.4961 20.6719 11.2969 20.8359 11.0273 20.8359C10.6992 20.8359 10.4531 20.5898 10.4531 20.2734C10.4531 20.1562 10.4766 20.0391 10.5234 19.9336L13.0664 12.9023V12.4102C13.0664 11.6602 12.5977 11.1211 11.9297 11.1211C11.1563 11.1211 10.6992 11.7187 10.6992 12.5977V17.3906C10.6992 17.8594 10.3828 18.1641 9.94922 18.1641Z" fill="white"/>
</svg>
