<svg width="28" height="28" viewBox="0 0 28 28" fill="none" xmlns="http://www.w3.org/2000/svg">
<g clip-path="url(#clip0_2124_50151)">
<path d="M5.16406 5.97266V8.67969C5.16406 9.17188 5.51562 9.5 6.01953 9.5H25.0859C25.6133 9.5 25.9297 9.16016 25.9297 8.66797V5.96094C25.9297 5.46875 25.6016 5.12891 25.0859 5.12891H6.01953C5.50391 5.12891 5.16406 5.48047 5.16406 5.97266ZM5.16406 11.4336V14.1641C5.16406 14.6445 5.50391 14.9727 6.01953 14.9727H25.0977C25.6016 14.9727 25.9297 14.6328 25.9297 14.1641V11.4219C25.9297 10.9414 25.6016 10.6133 25.0977 10.6133H6.03125C5.51562 10.6133 5.16406 10.9414 5.16406 11.4336ZM5.16406 16.9062V19.625C5.16406 20.1172 5.50391 20.457 6.01953 20.457H25.0859C25.6133 20.457 25.9297 20.1172 25.9297 19.625V16.8945C25.9297 16.4258 25.6133 16.0977 25.0859 16.0977H6.01953C5.51562 16.0977 5.16406 16.4258 5.16406 16.9062ZM5.16406 22.3789V25.0977C5.16406 25.5898 5.49219 25.918 6.00781 25.918H25.0742C25.5898 25.918 25.9297 25.5898 25.9297 25.0977V22.3789C25.9297 21.875 25.6016 21.5586 25.0859 21.5586H6.01953C5.49219 21.5586 5.16406 21.8867 5.16406 22.3789Z" fill="black" fill-opacity="0.85"/>
<path d="M2 2.9375C2 3.45312 2.43359 3.88672 2.94922 3.88672H25.9297C26.4453 3.88672 26.8789 3.45312 26.8789 2.9375C26.8789 2.42188 26.4453 2 25.9297 2H2.94922C2.43359 2 2 2.42188 2 2.9375ZM2.94922 6.60547C3.38281 6.60547 3.74609 6.24219 3.74609 5.80859C3.74609 5.36328 3.38281 5.01172 2.94922 5.01172C2.50391 5.01172 2.14062 5.36328 2.14062 5.80859C2.14062 6.24219 2.50391 6.60547 2.94922 6.60547ZM2.94922 9.32422C3.38281 9.32422 3.74609 8.94922 3.74609 8.51562C3.74609 8.08203 3.38281 7.71875 2.94922 7.71875C2.50391 7.71875 2.14062 8.08203 2.14062 8.51562C2.14062 8.94922 2.50391 9.32422 2.94922 9.32422ZM2.94922 12.0312C3.38281 12.0312 3.74609 11.668 3.74609 11.2344C3.74609 10.7891 3.38281 10.4375 2.94922 10.4375C2.50391 10.4375 2.14062 10.7891 2.14062 11.2344C2.14062 11.668 2.50391 12.0312 2.94922 12.0312ZM2.94922 14.75C3.38281 14.75 3.74609 14.375 3.74609 13.9414C3.74609 13.5078 3.38281 13.1445 2.94922 13.1445C2.50391 13.1445 2.14062 13.5078 2.14062 13.9414C2.14062 14.375 2.50391 14.75 2.94922 14.75ZM2.94922 17.457C3.38281 17.457 3.74609 17.0938 3.74609 16.6602C3.74609 16.2148 3.38281 15.8633 2.94922 15.8633C2.50391 15.8633 2.14062 16.2148 2.14062 16.6602C2.14062 17.0938 2.50391 17.457 2.94922 17.457ZM2.94922 20.1758C3.38281 20.1758 3.74609 19.8008 3.74609 19.3672C3.74609 18.9336 3.38281 18.5703 2.94922 18.5703C2.50391 18.5703 2.14062 18.9336 2.14062 19.3672C2.14062 19.8008 2.50391 20.1758 2.94922 20.1758ZM2.94922 25.9297C3.45312 25.9297 3.88672 25.5078 3.88672 24.9922V22.2266C3.88672 21.7109 3.46484 21.2891 2.94922 21.2891C2.43359 21.2891 2 21.7109 2 22.2266V24.9922C2 25.5078 2.43359 25.9297 2.94922 25.9297Z" fill="black" fill-opacity="0.85"/>
</g>
<defs>
<clipPath id="clip0_2124_50151">
<rect width="24.8789" height="23.9414" fill="white" transform="translate(2 2)"/>
</clipPath>
</defs>
</svg>
