<svg width="29" height="29" viewBox="0 0 29 29" fill="none" xmlns="http://www.w3.org/2000/svg">
<g clip-path="url(#clip0_2124_45835)">
<path d="M13.8813 6.05493C15.2876 6.05493 16.4126 4.94165 16.4126 3.5354C16.4126 2.12915 15.2876 1.00415 13.8813 1.00415C12.4751 1.00415 11.3501 2.12915 11.3501 3.5354C11.3501 4.94165 12.4751 6.05493 13.8813 6.05493ZM13.8813 17.3987C14.3618 17.3987 14.5493 17.7269 14.8188 18.5706C15.2172 19.7542 16.4009 24.6644 16.7993 26.1058C16.9985 26.8323 17.3735 27.1369 17.9243 27.1369C18.6743 27.1369 19.1313 26.4573 18.9204 25.719C18.8384 25.4025 17.1392 18.3011 16.8931 16.8362C16.6938 15.5471 16.647 12.9456 16.647 11.7151C16.647 11.5276 16.8579 11.4573 16.9751 11.6214C17.854 12.8519 19.4595 15.1487 19.7759 15.5237C20.1274 15.9222 20.6899 15.9925 21.147 15.7347C21.7446 15.4183 21.8853 14.7737 21.6392 14.3284C21.5454 14.1525 21.4165 13.9769 21.2993 13.8011L18.2642 9.33618C17.3032 7.91821 16.1079 7.2854 13.8813 7.2854C11.6547 7.2854 10.4594 7.91821 9.49849 9.33618L6.46334 13.8011C6.34615 13.9769 6.21724 14.1525 6.12349 14.3284C5.8774 14.7737 6.00631 15.4183 6.61568 15.7347C7.07271 15.9925 7.63521 15.9222 7.97506 15.5237C8.29146 15.1487 9.90865 12.8636 10.7876 11.6214C10.893 11.469 11.1157 11.5276 11.1157 11.7269C11.1157 12.9573 11.0571 15.5471 10.8579 16.8362C10.6235 18.3011 8.92428 25.4025 8.84224 25.719C8.63131 26.4573 9.08834 27.1369 9.83834 27.1369C10.3891 27.1369 10.7641 26.8323 10.9633 26.1058C11.3618 24.6644 12.5454 19.7542 12.9438 18.5706C13.2133 17.7269 13.4008 17.3987 13.8813 17.3987Z" fill="black" fill-opacity="0.85"/>
</g>
<defs>
<clipPath id="clip0_2124_45835">
<rect width="15.7485" height="26.4727" fill="white" transform="translate(6.00586 1.00415)"/>
</clipPath>
</defs>
</svg>
