<svg width="28" height="28" viewBox="0 0 28 28" fill="none" xmlns="http://www.w3.org/2000/svg">
<path d="M26.2656 13.7461C26.2656 13.3477 26.125 12.9141 25.668 12.4805L16.4219 3.83203C15.8008 3.24609 15.4141 3 14.8398 3C14.0195 3 13.4336 3.64453 13.4336 4.42969V9.12891H3.69531C1.99609 9.12891 1 10.0898 1 11.7656V15.7383C1 17.4141 1.99609 18.375 3.69531 18.375H13.4336V23.1211C13.4336 23.9062 14.0195 24.4922 14.8164 24.4922C15.3906 24.4922 15.8594 24.2578 16.4219 23.7305L25.668 15C26.1133 14.5781 26.2656 14.1328 26.2656 13.7461Z" fill="black" fill-opacity="0.85"/>
</svg>
