<svg width="29" height="28" viewBox="0 0 29 28" fill="none" xmlns="http://www.w3.org/2000/svg">
<g clip-path="url(#clip0_2124_50122)">
<path d="M0.9375 26.8672C1.46484 26.8672 1.88672 26.4453 1.88672 25.9297V4.50781C1.88672 4.13281 2.13281 3.88672 2.48438 3.88672H26.168C26.5195 3.88672 26.7656 4.13281 26.7656 4.50781V25.9297C26.7656 26.4453 27.1875 26.8672 27.7031 26.8672C28.2305 26.8672 28.6523 26.4453 28.6523 25.9297V4.39062C28.6523 2.96094 27.668 2 26.1914 2H2.44922C0.984375 2 0 2.96094 0 4.39062V25.9297C0 26.4453 0.421875 26.8672 0.9375 26.8672Z" fill="black" fill-opacity="0.85"/>
<path d="M14.8242 26.457H24.9961C25.2188 26.457 25.3945 26.2695 25.3945 26.0586V5.64453C25.3945 5.42188 25.2188 5.24609 24.9961 5.24609H14.8242C14.6016 5.24609 14.4258 5.42188 14.4258 5.64453V26.0586C14.4258 26.2695 14.6016 26.457 14.8242 26.457ZM17.0742 17.6914C16.7461 17.6914 16.5117 17.457 16.5117 17.1172V15.0664C16.5117 14.7266 16.7461 14.5039 17.0742 14.5039C17.4141 14.5039 17.6367 14.7266 17.6367 15.0664V17.1172C17.6367 17.457 17.4141 17.6914 17.0742 17.6914Z" fill="black" fill-opacity="0.85"/>
</g>
<defs>
<clipPath id="clip0_2124_50122">
<rect width="28.6523" height="24.8789" fill="white" transform="translate(0 2)"/>
</clipPath>
</defs>
</svg>
