<svg width="28" height="28" viewBox="0 0 28 28" fill="none" xmlns="http://www.w3.org/2000/svg">
<g clip-path="url(#clip0_2124_89293)">
<path d="M13.9531 25.9062C20.4922 25.9062 25.9062 20.4805 25.9062 13.9531C25.9062 7.41406 20.4805 2 13.9414 2C7.41406 2 2 7.41406 2 13.9531C2 20.4805 7.42578 25.9062 13.9531 25.9062Z" fill="black" fill-opacity="0.85"/>
<path d="M8.28125 19.3438C7.55469 19.3438 7.08594 18.8867 7.08594 18.1836V9.75781C7.08594 9.04297 7.55469 8.59766 8.28125 8.59766H19.6602C20.375 8.59766 20.8555 9.04297 20.8555 9.75781V18.1836C20.8555 18.8867 20.375 19.3438 19.6602 19.3438H8.28125ZM8.41016 18.3477H9.3125C9.52344 18.3477 9.65234 18.1953 9.65234 17.9844V17.1641C9.65234 16.9531 9.52344 16.8125 9.3125 16.8125H8.39844C8.16406 16.8125 8.03516 16.9531 8.03516 17.1641V17.9609C8.03516 18.1953 8.16406 18.3477 8.41016 18.3477ZM8.39844 15.8867H9.3125C9.52344 15.8867 9.65234 15.7227 9.65234 15.5469V14.7383C9.65234 14.5039 9.52344 14.375 9.3125 14.375H8.39844C8.16406 14.375 8.03516 14.5039 8.03516 14.7383V15.5469C8.03516 15.7227 8.16406 15.8867 8.39844 15.8867ZM8.39844 13.4844H9.3125C9.52344 13.4844 9.65234 13.3203 9.65234 13.1445V12.3242C9.65234 12.1016 9.52344 11.9609 9.3125 11.9609H8.39844C8.16406 11.9609 8.03516 12.1016 8.03516 12.3242V13.1445C8.03516 13.3203 8.16406 13.4844 8.39844 13.4844ZM8.39844 11.0937H9.3125C9.52344 11.0937 9.65234 10.9297 9.65234 10.7539V9.94531C9.65234 9.73438 9.52344 9.58203 9.3125 9.58203H8.39844C8.16406 9.58203 8.03516 9.73438 8.03516 9.94531V10.7539C8.03516 10.9297 8.16406 11.0937 8.39844 11.0937ZM18.6172 18.3477H19.5312C19.7773 18.3477 19.9062 18.1953 19.9062 17.9609V17.1641C19.9062 16.9531 19.7773 16.8125 19.543 16.8125H18.6172C18.418 16.8125 18.2891 16.9531 18.2891 17.1641V17.9844C18.2891 18.1953 18.418 18.3477 18.6172 18.3477ZM18.6172 15.8867H19.543C19.7773 15.8867 19.9062 15.7227 19.9062 15.5469V14.7383C19.9062 14.5039 19.7773 14.375 19.543 14.375H18.6172C18.418 14.375 18.2891 14.5039 18.2891 14.7383V15.5469C18.2891 15.7227 18.418 15.8867 18.6172 15.8867ZM18.6172 13.4844H19.543C19.7773 13.4844 19.9062 13.3203 19.9062 13.1445V12.3242C19.9062 12.1016 19.7773 11.9609 19.543 11.9609H18.6172C18.418 11.9609 18.2891 12.1016 18.2891 12.3242V13.1445C18.2891 13.3203 18.418 13.4844 18.6172 13.4844ZM18.6172 11.0937H19.543C19.7773 11.0937 19.9062 10.9297 19.9062 10.7539V9.94531C19.9062 9.73438 19.7773 9.58203 19.543 9.58203H18.6172C18.418 9.58203 18.2891 9.73438 18.2891 9.94531V10.7539C18.2891 10.9297 18.418 11.0937 18.6172 11.0937ZM11.1406 13.4727H16.8125C17.0117 13.4727 17.1406 13.3086 17.1406 13.1328V9.94531C17.1406 9.73438 17.0117 9.58203 16.8125 9.58203H11.1406C10.9062 9.58203 10.7891 9.73438 10.7891 9.94531V13.1328C10.7891 13.3086 10.9062 13.4727 11.1406 13.4727ZM11.1406 18.3477H16.8125C17.0117 18.3477 17.1406 18.1953 17.1406 18.0078V14.8086C17.1406 14.6211 17.0117 14.4453 16.8125 14.4453H11.1406C10.9062 14.4453 10.7891 14.6211 10.7891 14.8086V18.0078C10.7891 18.1953 10.9062 18.3477 11.1406 18.3477Z" fill="white"/>
</g>
<defs>
<clipPath id="clip0_2124_89293">
<rect width="23.9062" height="23.918" fill="white" transform="translate(2 2)"/>
</clipPath>
</defs>
</svg>
