<svg width="28" height="28" viewBox="0 0 28 28" fill="none" xmlns="http://www.w3.org/2000/svg">
<path d="M13.9531 25.9062C20.4922 25.9062 25.9062 20.4805 25.9062 13.9531C25.9062 7.41406 20.4805 2 13.9414 2C7.41406 2 2 7.41406 2 13.9531C2 20.4805 7.42578 25.9062 13.9531 25.9062Z" fill="black" fill-opacity="0.85"/>
<path d="M11.0703 19.7773C10.5547 19.7773 10.1562 19.7422 9.86328 19.6133C9.45312 19.4727 9.25391 19.2148 9.25391 18.8633C9.25391 18.5 9.51172 18.2188 9.94531 18.2188C10.0977 18.2188 10.1914 18.2305 10.2969 18.2539C10.4961 18.2891 10.6367 18.3359 11 18.3359C12.0664 18.3359 12.5586 17.832 12.7695 16.6133L13.1445 14.3047H10.9062C10.4961 14.3047 10.25 14.0586 10.25 13.6836C10.25 13.2734 10.5078 13.0156 10.9062 13.0156H13.332L13.6484 11.0352C13.9766 9.03125 14.9961 8.05859 16.8359 8.05859C17.3398 8.05859 17.7383 8.10547 18.0312 8.22266C18.4414 8.36328 18.6406 8.63281 18.6406 8.97266C18.6406 9.33594 18.3828 9.61719 17.9492 9.61719C17.8086 9.61719 17.7031 9.60547 17.6094 9.58203C17.4102 9.54688 17.2578 9.51172 16.9062 9.51172C15.8398 9.51172 15.3477 10.0039 15.1484 11.1758L14.8672 13.0156H17.1875C17.5977 13.0156 17.8555 13.2734 17.8555 13.6836C17.8555 14.0586 17.5977 14.3047 17.1875 14.3047H14.6562L14.2578 16.8125C13.9297 18.8164 12.9102 19.7773 11.0703 19.7773Z" fill="white"/>
</svg>
