<svg width="30" height="28" viewBox="0 0 30 28" fill="none" xmlns="http://www.w3.org/2000/svg">
<g clip-path="url(#clip0_2124_45825)">
<path d="M10.2227 22.457C10.2227 24.9062 11.4414 26.125 13.8555 26.125H26.3008C28.7266 26.125 29.9336 24.9062 29.9336 22.457V4.67969C29.9336 2.24219 28.7266 1 26.3008 1H13.8555C11.4414 1 10.2227 2.24219 10.2227 4.67969V22.457ZM12.1094 22.4219V4.71484C12.1094 3.54297 12.7422 2.88672 13.9609 2.88672H26.207C27.4258 2.88672 28.0469 3.54297 28.0469 4.71484V22.4219C28.0469 23.5938 27.4258 24.2383 26.207 24.2383H13.9609C12.7422 24.2383 12.1094 23.5938 12.1094 22.4219Z" fill="black" fill-opacity="0.85"/>
<path d="M25.75 19.1523C26.1719 19.1523 26.4883 18.918 26.4883 18.4609V7.75C26.4883 7.28125 26.1719 7.05859 25.75 7.05859C24.4609 7.05859 21.1328 8.99219 21.1328 13.1055C21.1328 17.2188 24.4609 19.1523 25.75 19.1523ZM16.8906 16.1055C18.7656 16.1055 20.1953 14.7695 20.1836 13.1055C20.1719 11.4297 18.7656 10.0938 16.8906 10.0938C15.1328 10.0938 13.6797 11.4297 13.6797 13.1055C13.6797 14.7695 15.1328 16.1055 16.8906 16.1055Z" fill="black" fill-opacity="0.85"/>
<path d="M0.284519 11.582C-0.301418 12.2383 0.0735818 13.1289 0.952488 13.1289H2.94467V18.2617C2.94467 18.7773 3.34311 19.1758 3.87045 19.1758C4.37436 19.1758 4.7728 18.7773 4.7728 18.2617V13.1289H6.74155C7.66733 13.1289 7.98373 12.2031 7.42123 11.582L4.51498 8.30078C4.12827 7.85547 3.57748 7.85547 3.17905 8.30078L0.284519 11.582Z" fill="black" fill-opacity="0.85"/>
</g>
<defs>
<clipPath id="clip0_2124_45825">
<rect width="29.931" height="25.1367" fill="white" transform="translate(0.00195312 1)"/>
</clipPath>
</defs>
</svg>
