<svg width="28" height="28" viewBox="0 0 28 28" fill="none" xmlns="http://www.w3.org/2000/svg">
<path d="M7.04297 21.4219C7.69922 21.4219 8.10938 20.9766 8.10938 20.3438V11.8008C8.10938 9.72656 9.15234 8.05078 10.9102 8.05078C12.5742 8.05078 13.3477 9.33984 13.3477 11.0625V20.3438C13.3477 20.9766 13.7461 21.4219 14.3906 21.4219C15.0469 21.4219 15.457 20.9766 15.457 20.3438V11.5664C15.457 9.57422 16.4766 8.05078 18.2344 8.05078C19.9805 8.05078 20.707 9.32812 20.707 11.25V20.3438C20.707 20.9766 21.1055 21.4219 21.75 21.4219C22.4062 21.4219 22.8164 20.9766 22.8164 20.3438V10.7812C22.8164 8.0625 21.3398 6.1875 18.7617 6.1875C16.8281 6.1875 15.375 7.33594 14.9648 9.09375H14.918C14.543 7.27734 13.3594 6.1875 11.4258 6.1875C9.65625 6.1875 8.44922 7.3125 8.03906 9H7.99219V7.30078C7.99219 6.67969 7.55859 6.24609 6.99609 6.24609C6.39844 6.24609 6 6.67969 6 7.30078V20.3438C6 20.9766 6.39844 21.4219 7.04297 21.4219ZM7.76953 27.4102C8.19141 27.4102 8.39062 27.1641 8.54297 26.8008L19.1836 1.61719C19.2539 1.47656 19.2891 1.30078 19.2891 1.16016C19.2891 0.738281 18.9844 0.46875 18.5625 0.46875C18.1758 0.46875 17.9531 0.714844 17.8008 1.07812L7.16016 26.2734C7.08984 26.4023 7.05469 26.5781 7.05469 26.7305C7.05469 27.1523 7.35938 27.4102 7.76953 27.4102Z" fill="black" fill-opacity="0.85"/>
</svg>
