<svg width="29" height="28" viewBox="0 0 29 28" fill="none" xmlns="http://www.w3.org/2000/svg">
<g clip-path="url(#clip0_2124_50136)">
<path d="M0.949219 26.8672C1.46484 26.8672 1.88672 26.4453 1.88672 25.9297V2.9375C1.88672 2.42188 1.46484 2 0.949219 2C0.421875 2 0 2.42188 0 2.9375V25.9297C0 26.4453 0.421875 26.8672 0.949219 26.8672ZM27.1992 26.8672C27.7148 26.8672 28.1367 26.4453 28.1367 25.9297V2.9375C28.1367 2.42188 27.7148 2 27.1992 2C26.6719 2 26.25 2.42188 26.25 2.9375V25.9297C26.25 26.4453 26.6719 26.8672 27.1992 26.8672ZM24.0703 6.89844H27.1992V5.36328H24.0703V6.89844ZM24.0703 12.4531H27.1992V10.918H24.0703V12.4531ZM24.0703 17.9961H27.1992V16.4609H24.0703V17.9961ZM24.0703 23.5391H27.1992V22.0039H24.0703V23.5391Z" fill="black" fill-opacity="0.85"/>
<path d="M4.10156 8.39844H24.0352C24.5508 8.39844 24.8789 8.07031 24.8789 7.57812V4.69531C24.8789 4.20312 24.5508 3.86328 24.0352 3.86328H4.10156C3.58594 3.86328 3.25781 4.20312 3.25781 4.69531V7.57812C3.25781 8.07031 3.58594 8.39844 4.10156 8.39844ZM4.10156 13.9531H24.0352C24.5508 13.9531 24.8789 13.6133 24.8789 13.1211V10.2383C24.8789 9.74609 24.5508 9.41797 24.0352 9.41797H4.10156C3.58594 9.41797 3.25781 9.74609 3.25781 10.2383V13.1211C3.25781 13.6133 3.58594 13.9531 4.10156 13.9531ZM4.10156 19.4961H24.0352C24.5508 19.4961 24.8789 19.168 24.8789 18.6641V15.7812C24.8789 15.2891 24.5508 14.9609 24.0352 14.9609H4.10156C3.58594 14.9609 3.25781 15.2891 3.25781 15.7812V18.6641C3.25781 19.168 3.58594 19.4961 4.10156 19.4961ZM4.10156 25.0391H24.0352C24.5508 25.0391 24.8789 24.7109 24.8789 24.2188V21.3359C24.8789 20.8438 24.5508 20.5039 24.0352 20.5039H4.10156C3.58594 20.5039 3.25781 20.8438 3.25781 21.3359V24.2188C3.25781 24.7109 3.58594 25.0391 4.10156 25.0391Z" fill="black" fill-opacity="0.85"/>
</g>
<defs>
<clipPath id="clip0_2124_50136">
<rect width="28.1367" height="24.8789" fill="white" transform="translate(0 2)"/>
</clipPath>
</defs>
</svg>
