<svg width="28" height="28" viewBox="0 0 28 28" fill="none" xmlns="http://www.w3.org/2000/svg">
<path d="M8.45312 24.9297H14.0898C18.4727 24.9297 21.1094 22.7852 21.1094 19.1992C21.1094 16.375 19.1758 14.418 16.3164 14.0664V13.9727C18.4492 13.5859 20.043 11.5938 20.043 9.35547C20.043 6.27344 17.6406 4.22266 14.0664 4.22266H8.45312C7.57422 4.22266 7 4.79688 7 5.67578V23.4766C7 24.3555 7.57422 24.9297 8.45312 24.9297ZM9.23828 13.2695V6.19141H13.5508C16.2109 6.19141 17.8047 7.41016 17.8047 9.58984C17.8047 11.9688 16.0117 13.2695 12.9062 13.2695H9.23828ZM9.23828 22.9609V15.25H13.4688C16.9375 15.25 18.8359 16.5742 18.8359 19.1055C18.8359 21.625 16.9961 22.9609 13.7383 22.9609H9.23828ZM11.3242 5.55859V2.13672C11.3242 1.71484 10.9844 1.36328 10.5625 1.36328C10.1289 1.36328 9.78906 1.71484 9.78906 2.13672V5.55859H11.3242ZM15.0156 5.55859V2.13672C15.0156 1.71484 14.6758 1.36328 14.2422 1.36328C13.8203 1.36328 13.4805 1.71484 13.4805 2.13672V5.55859H15.0156ZM11.3242 23.6055H9.78906V27.1094C9.78906 27.5312 10.1289 27.8711 10.5625 27.8711C10.9844 27.8711 11.3242 27.5312 11.3242 27.1094V23.6055ZM15.0156 23.6055H13.4805V27.1094C13.4805 27.5312 13.8203 27.8711 14.2422 27.8711C14.6758 27.8711 15.0156 27.5312 15.0156 27.1094V23.6055Z" fill="black" fill-opacity="0.85"/>
</svg>
