<svg width="31" height="29" viewBox="0 0 31 29" fill="none" xmlns="http://www.w3.org/2000/svg">
<g clip-path="url(#clip0_2124_45942)">
<path d="M19.3204 8.5752C21.0783 8.5752 22.4845 7.11036 22.4845 5.41114C22.4845 3.64161 21.0783 2.2002 19.3204 2.2002C17.5509 2.2002 16.1329 3.64161 16.1329 5.41114C16.1329 7.1455 17.5509 8.5752 19.3204 8.5752ZM17.2814 20.7158C17.797 20.3057 18.2892 19.6143 18.7579 18.7471L20.9142 14.833C21.9103 13.0283 21.5822 11.1885 19.8829 10.2744C18.2306 9.36035 16.5197 10.0635 15.5119 11.8916L13.2853 15.9111L17.2814 20.7158ZM0.441569 25.3213C1.05094 25.9658 2.09391 25.9072 2.84391 25.1455L7.88297 19.9424C8.05876 19.7666 8.16422 19.7197 8.42204 19.8252L12.6759 21.4307C13.6017 21.7822 14.6095 21.7119 15.3478 21.5713L12.4181 17.9502L9.42985 16.8604C8.04704 16.3565 6.8986 16.5205 5.78532 17.6689L0.547038 23.083C-0.167806 23.833 -0.109212 24.7705 0.441569 25.3213ZM19.8126 25.4619C20.2931 25.0869 20.3283 24.501 19.8712 23.9502L17.2814 20.7158C16.6837 21.1377 16.0275 21.4307 15.3478 21.5713L18.3361 25.2393C18.7697 25.7666 19.3204 25.8721 19.8126 25.4619Z" fill="black" fill-opacity="0.85"/>
<path d="M24.3593 25.7432H29.9843C30.4179 25.7432 30.7226 25.4385 30.7226 25.0166C30.7226 24.583 30.4179 24.2783 29.9843 24.2783H26.0117V24.2432L28.5546 21.501C29.457 20.54 30.1249 19.6963 30.1249 18.4893C30.1249 16.8135 28.8242 15.7236 26.7968 15.7236C25.2851 15.7236 23.9257 16.6377 23.5742 17.8799C23.539 18.0439 23.5156 18.1729 23.5156 18.3252C23.5156 18.7588 23.7968 19.0518 24.2421 19.0518C24.6406 19.0518 24.8398 18.8057 25.039 18.4775C25.3202 17.833 25.8827 17.165 26.8671 17.165C27.8632 17.165 28.5312 17.751 28.5312 18.6065C28.5312 19.3682 27.8867 20.0127 27.2656 20.6807L23.8554 24.3486C23.6679 24.5479 23.5624 24.7588 23.5624 25.0166C23.5624 25.4619 23.8671 25.7432 24.3593 25.7432Z" fill="black" fill-opacity="0.85"/>
<path d="M5.98438 13.9072C9.30078 13.9072 11.8789 11.1768 11.8789 8.00098C11.8789 4.68458 9.30078 2.0127 5.98438 2.0127C2.67969 2.0127 0.0195312 4.68458 0.0195312 8.00098C0.0195312 11.1768 2.67969 13.9072 5.98438 13.9072ZM5.98438 12.3721C3.58203 12.3721 1.55469 10.3799 1.55469 8.00098C1.55469 5.52832 3.52344 3.54786 5.98438 3.54786C8.4336 3.54786 10.3438 5.50489 10.3438 8.00098C10.3438 10.415 8.38672 12.3721 5.98438 12.3721ZM1.66016 2.58691C1.36719 2.29395 0.875 2.29395 0.582031 2.58691C0.277343 2.87988 0.277343 3.36036 0.582031 3.67676L10.2618 13.3447C10.5547 13.6377 11.0352 13.6377 11.3399 13.3447C11.6446 13.0518 11.6446 12.5596 11.3399 12.2549L1.66016 2.58691ZM0.582031 12.2549C0.277343 12.5596 0.277343 13.0518 0.582031 13.3447C0.875 13.6377 1.36719 13.6377 1.66016 13.3447L11.3399 3.67676C11.6446 3.36036 11.6446 2.87988 11.3399 2.58691C11.0352 2.29395 10.5547 2.29395 10.2618 2.58691L0.582031 12.2549Z" fill="black" fill-opacity="0.85"/>
</g>
<defs>
<clipPath id="clip0_2124_45942">
<rect width="30.7033" height="23.9414" fill="white" transform="translate(0.0195312 2.0127)"/>
</clipPath>
</defs>
</svg>
