<svg width="28" height="28" viewBox="0 0 28 28" fill="none" xmlns="http://www.w3.org/2000/svg">
<path d="M6.67969 24.5977H20.8945C23.3555 24.5977 24.5742 23.3789 24.5742 20.9648V6.65625C24.5742 4.24219 23.3555 3.02344 20.8945 3.02344H6.67969C4.23047 3.02344 3 4.23047 3 6.65625V20.9648C3 23.3906 4.23047 24.5977 6.67969 24.5977Z" fill="black" fill-opacity="0.85"/>
<path d="M11.0508 18.832C10.6641 18.832 10.2188 18.6094 10.2188 17.9648V16.7695H7.51173C6.92579 16.7695 6.51562 16.3711 6.51562 15.7852C6.51562 15.4102 6.59767 15.0938 6.78517 14.625L8.94142 9.9375C9.28126 9.1875 9.67969 8.75391 10.5352 8.75391C11.332 8.75391 11.8828 9.22266 11.8828 10.0664V15.3633H12.3164C12.7969 15.3633 12.9961 15.668 12.9961 16.0547C12.9961 16.4648 12.7734 16.7695 12.3164 16.7695H11.8828V17.9648C11.8828 18.5508 11.5078 18.832 11.0508 18.832ZM10.2539 15.3984V10.2773H10.207L8.01563 15.3164V15.3984H10.2539ZM17.3438 18.8906C15.5742 18.8906 14.2148 17.8359 14.2148 16.043C14.2148 14.7305 15.0117 13.7812 16.043 13.5469V13.5117C15.2695 13.2773 14.4844 12.5508 14.4844 11.3203C14.4844 9.62109 15.8438 8.70703 17.3438 8.70703C19.0547 8.70703 20.2148 9.76172 20.2148 11.332C20.2148 12.4805 19.4883 13.2656 18.6797 13.5117V13.5469C19.6406 13.7695 20.4844 14.7188 20.4844 16.043C20.4844 17.6953 19.2539 18.8906 17.3438 18.8906ZM17.3438 12.9609C18.1055 12.9609 18.5039 12.293 18.5039 11.4961C18.5039 10.7227 18.1289 10.0078 17.3438 10.0078C16.5938 10.0078 16.1953 10.7227 16.1953 11.4961C16.1953 12.2109 16.5703 12.9609 17.3438 12.9609ZM17.3438 17.5781C18.2344 17.5781 18.668 16.793 18.668 15.9023C18.668 14.9883 18.1992 14.2617 17.3438 14.2617C16.4766 14.2617 16.0312 15.0352 16.0312 15.9023C16.0312 16.793 16.4648 17.5781 17.3438 17.5781Z" fill="white"/>
</svg>
