<svg width="28" height="28" viewBox="0 0 28 28" fill="none" xmlns="http://www.w3.org/2000/svg">
<g clip-path="url(#clip0_2124_78069)">
<path d="M6.67969 24.5977H20.8945C23.3555 24.5977 24.5742 23.3789 24.5742 20.9648V6.65625C24.5742 4.24219 23.3555 3.02344 20.8945 3.02344H6.67969C4.23047 3.02344 3 4.23047 3 6.65625V20.9648C3 23.3906 4.23047 24.5977 6.67969 24.5977ZM6.70312 22.7109C5.53125 22.7109 4.88672 22.0898 4.88672 20.8711V6.75C4.88672 5.53125 5.53125 4.91016 6.70312 4.91016H20.8711C22.0312 4.91016 22.6875 5.53125 22.6875 6.75V20.8711C22.6875 22.0898 22.0312 22.7109 20.8711 22.7109H6.70312Z" fill="black" fill-opacity="0.85"/>
<path d="M10.7578 18.5859C10.9922 18.5859 11.1562 18.5391 11.332 18.457L18.3164 14.8242C18.7969 14.5664 19.0078 14.2734 19.0078 13.793C19.0078 13.3477 18.7734 13.0195 18.3164 12.7617L11.332 9C11.1445 8.90625 10.9922 8.85938 10.7344 8.85938C10.1953 8.85938 9.78516 9.25781 9.78516 9.78516C9.78516 10.2187 9.99609 10.5 10.4766 10.7344L16.418 13.7227V13.793L10.4766 16.7109C9.98438 16.9453 9.78516 17.2031 9.78516 17.6484C9.78516 18.1875 10.207 18.5859 10.7578 18.5859Z" fill="black" fill-opacity="0.85"/>
</g>
<defs>
<clipPath id="clip0_2124_78069">
<rect width="21.5742" height="21.5977" fill="white" transform="translate(3 3)"/>
</clipPath>
</defs>
</svg>
