<svg width="28" height="28" viewBox="0 0 28 28" fill="none" xmlns="http://www.w3.org/2000/svg">
<path d="M7.47266 21.9258C10.1445 21.9258 12.2422 20.5781 13.3789 18.3398H13.4961C14.4922 20.5898 16.5547 21.9258 19.3086 21.9258C22.1797 21.9258 24.3711 20.6953 25.2969 18.4922C25.3906 18.2578 25.4609 18.0117 25.4609 17.8242C25.4609 17.25 25.0742 16.875 24.4883 16.875C24.1367 16.875 23.8789 17.0273 23.668 17.3438C22.6016 19.207 21.2656 20.0273 19.2266 20.0273C16.2969 20.0273 14.4219 17.8594 14.4219 14.6367V14.4844H24.2891C25.0742 14.4844 25.543 14.0039 25.543 13.1836C25.543 8.96484 22.9648 6.01172 19.2031 6.01172C16.6602 6.01172 14.7734 7.25391 13.7773 9.33984H13.6836C13.0859 7.25391 11.0586 6.01172 8.39844 6.01172C5.86719 6.01172 3.67578 7.19531 2.86719 9C2.67969 9.35156 2.58594 9.71484 2.58594 10.0195C2.58594 10.6055 2.98438 10.9922 3.54688 10.9922C3.98047 10.9922 4.27344 10.8164 4.46094 10.4297C5.25781 8.68359 6.54688 7.93359 8.43359 7.93359C10.7188 7.93359 12.2539 9.38672 12.2539 11.4844V12.7734L7.67188 13.0195C4.00391 13.207 2 14.7773 2 17.3906C2 20.1328 4.14453 21.9258 7.47266 21.9258ZM7.54297 20.0508C5.52734 20.0508 4.21484 18.9258 4.21484 17.3555C4.21484 15.7852 5.51562 14.8711 7.90625 14.7305L12.2539 14.4844V15.8438C12.2539 18.1641 10.1914 20.0508 7.54297 20.0508ZM14.4219 12.7734C14.5977 9.90234 16.4258 7.91016 19.0391 7.91016C21.6172 7.91016 23.2578 9.85547 23.3047 12.7734H14.4219Z" fill="black" fill-opacity="0.85"/>
</svg>
