<svg width="28" height="28" viewBox="0 0 28 28" fill="none" xmlns="http://www.w3.org/2000/svg">
<path d="M22.1172 25.4453H6.87109C6.46094 25.4453 6.13281 25.7617 6.13281 26.1836C6.13281 26.6055 6.46094 26.9336 6.87109 26.9336H22.1172C22.5273 26.9336 22.8555 26.6055 22.8555 26.1836C22.8555 25.7617 22.5273 25.4453 22.1172 25.4453Z" fill="black" fill-opacity="0.85"/>
<path d="M22.1172 21.4727H6.87109C6.46094 21.4727 6.13281 21.7891 6.13281 22.2109C6.13281 22.6328 6.46094 22.9492 6.87109 22.9492H22.1172C22.5273 22.9492 22.8555 22.6328 22.8555 22.2109C22.8555 21.7891 22.5273 21.4727 22.1172 21.4727Z" fill="black" fill-opacity="0.85"/>
<path d="M6.50781 18.7539H21.0508C24.8945 18.7539 27.7539 15.8359 27.7539 12.2266C27.7539 8.48828 24.707 5.75781 20.7344 5.75781C19.2695 2.86328 16.5508 1 13.1641 1C8.75781 1 5.125 4.45703 4.73828 8.80469C2.61719 9.42578 1 11.2656 1 13.7383C1 16.5156 3.01562 18.7539 6.50781 18.7539ZM6.48438 16.8789C4.08203 16.8789 2.875 15.5312 2.875 13.7969C2.875 12.3906 3.69531 11.125 5.6875 10.5977C6.33203 10.4219 6.56641 10.1172 6.625 9.46094C6.89453 5.62891 9.76562 2.875 13.1641 2.875C15.8008 2.875 17.875 4.32812 19.1406 6.91797C19.4102 7.49219 19.7617 7.69141 20.4531 7.69141C23.9219 7.69141 25.8789 9.77734 25.8789 12.2734C25.8789 14.8281 23.8398 16.8789 21.168 16.8789H6.48438Z" fill="black" fill-opacity="0.85"/>
</svg>
