<svg width="28" height="33" viewBox="0 0 28 33" fill="none" xmlns="http://www.w3.org/2000/svg">
<path d="M27.1084 19.8281C28.0694 16.3242 25.5264 14.8008 19.2452 14.8008C16.21 14.8008 13.0577 15.0937 10.6436 15.6094L11.0655 16.1953C11.71 10.957 10.1045 6.65625 6.57719 4.81641L6.91704 6.24609C8.28813 2.39062 5.85063 0 3.61235 0C1.92485 0 0.471726 1.3125 1.18657 4.21875L5.59282 22.1016C6.02641 23.8711 7.18657 24.8086 8.92094 24.8086H22.5967C25.0108 24.8086 26.0772 23.6484 27.1084 19.8281Z" fill="black" fill-opacity="0.85"/>
<path d="M21.0498 26.6016H15.8349C15.2138 26.6016 14.9208 27.1172 15.2607 27.668L17.8154 31.8281C18.1318 32.3438 18.7412 32.3672 19.081 31.8281L21.6123 27.668C21.9404 27.1172 21.6826 26.6016 21.0498 26.6016Z" fill="black" fill-opacity="0.85"/>
<path d="M21.0498 13.0195C21.6826 13.0195 21.9521 12.5156 21.6123 11.9648L19.081 7.80469C18.7529 7.26562 18.1318 7.27734 17.8154 7.80469L15.2607 11.9648C14.9208 12.5156 15.2138 13.0195 15.8349 13.0195H21.0498Z" fill="black" fill-opacity="0.85"/>
</svg>
