<svg width="29" height="29" viewBox="0 0 29 29" fill="none" xmlns="http://www.w3.org/2000/svg">
<g clip-path="url(#clip0_2124_46013)">
<path d="M13.9707 25.9272C20.5098 25.9272 25.9238 20.5015 25.9238 13.9741C25.9238 7.43506 20.4981 2.021 13.959 2.021C7.43164 2.021 2.01758 7.43506 2.01758 13.9741C2.01758 20.5015 7.44336 25.9272 13.9707 25.9272Z" fill="black" fill-opacity="0.85"/>
<path d="M9.11914 16.1421V9.61475C9.11914 9.19288 9.4707 8.82959 9.91602 8.82959C10.3262 8.82959 10.6895 9.19288 10.6895 9.61475V13.7163C10.8652 13.6108 11.041 13.4937 11.2637 13.3999V7.41162C11.2637 6.98975 11.6152 6.64991 12.0371 6.64991C12.459 6.64991 12.8223 6.98975 12.8223 7.41162V12.896C13.0215 12.8608 13.2207 12.8374 13.4317 12.814V6.81397C13.4317 6.40381 13.7715 6.04053 14.2051 6.04053C14.6387 6.04053 14.9785 6.40381 14.9785 6.81397V12.8843C15.1778 12.9429 15.377 13.0132 15.5645 13.0601V7.8335C15.5645 7.41162 15.9043 7.06006 16.3379 7.06006C16.7481 7.06006 17.0996 7.41162 17.0996 7.8335V15.1929C17.0996 15.4038 17.1817 15.4976 17.334 15.4976C17.4395 15.4976 17.5332 15.4272 17.627 15.2046L18.6114 13.1421C18.9395 12.4741 19.1973 12.1929 19.666 12.1929C20.0645 12.1929 20.3574 12.4624 20.3574 12.8491C20.3574 13.1772 20.0996 13.9155 19.9121 14.5132C19.4785 15.9546 19.0684 17.1968 18.5293 18.2398C17.5567 20.2319 16.0918 21.0874 13.959 21.0874C11.1113 21.0874 9.11914 19.2007 9.11914 16.1421Z" fill="white"/>
</g>
<defs>
<clipPath id="clip0_2124_46013">
<rect width="23.9062" height="23.918" fill="white" transform="translate(2.01758 2.021)"/>
</clipPath>
</defs>
</svg>
