<svg width="28" height="28" viewBox="0 0 28 28" fill="none" xmlns="http://www.w3.org/2000/svg">
<g clip-path="url(#clip0_2124_78072)">
<path d="M13.9531 25.9062C20.4922 25.9062 25.9062 20.4805 25.9062 13.9531C25.9062 7.41406 20.4805 2 13.9414 2C7.41406 2 2 7.41406 2 13.9531C2 20.4805 7.42578 25.9062 13.9531 25.9062ZM13.9531 23.9141C8.42188 23.9141 4.00391 19.4844 4.00391 13.9531C4.00391 8.42188 8.41016 3.99219 13.9414 3.99219C19.4727 3.99219 23.9141 8.42188 23.9141 13.9531C23.9141 19.4844 19.4844 23.9141 13.9531 23.9141Z" fill="black" fill-opacity="0.85"/>
<path d="M10.918 19.6719C11.3867 19.6719 11.668 19.4375 11.75 19.0039L12.2891 16.4844H14.4688L13.9883 18.7812C13.8828 19.2617 14.2227 19.6719 14.7031 19.6719C15.1719 19.6719 15.4766 19.4375 15.5703 19.0039L16.0977 16.4727H17.3164C17.7734 16.4727 18.1016 16.1328 18.1016 15.6875C18.1016 15.2891 17.8203 14.9961 17.4336 14.9961H16.4141L16.918 12.6172H18.1484C18.6055 12.6172 18.9336 12.2773 18.9336 11.832C18.9336 11.4336 18.6523 11.1406 18.2656 11.1406H17.2227L17.6797 8.94922C17.7617 8.46875 17.4219 8.05859 16.9414 8.05859C16.4844 8.05859 16.1914 8.29297 16.0977 8.73828L15.5938 11.1406H13.4141L13.8594 8.94922C13.9648 8.48047 13.625 8.05859 13.1445 8.05859C12.6758 8.05859 12.3828 8.29297 12.2891 8.73828L11.7852 11.1406H10.5547C10.0977 11.1406 9.76953 11.4805 9.76953 11.9258C9.76953 12.3242 10.0508 12.6172 10.4492 12.6172H11.4688L10.9766 14.9961H9.72266C9.26562 14.9961 8.9375 15.3359 8.9375 15.7812C8.9375 16.1797 9.21875 16.4727 9.60547 16.4727H10.6602L10.1914 18.7812C10.0977 19.2617 10.4492 19.6719 10.918 19.6719ZM12.5 15.1367L13.0391 12.5H15.4062L14.8438 15.1367H12.5Z" fill="black" fill-opacity="0.85"/>
</g>
<defs>
<clipPath id="clip0_2124_78072">
<rect width="23.9062" height="23.918" fill="white" transform="translate(2 2)"/>
</clipPath>
</defs>
</svg>
