<svg width="28" height="28" viewBox="0 0 28 28" fill="none" xmlns="http://www.w3.org/2000/svg">
<g clip-path="url(#clip0_2124_24864)">
<path d="M13.9531 25.9062C20.4922 25.9062 25.9062 20.4805 25.9062 13.9531C25.9062 7.41406 20.4805 2 13.9414 2C7.41406 2 2 7.41406 2 13.9531C2 20.4805 7.42578 25.9062 13.9531 25.9062ZM13.9531 23.9141C8.42188 23.9141 4.00391 19.4844 4.00391 13.9531C4.00391 8.42188 8.41016 3.99219 13.9414 3.99219C19.4727 3.99219 23.9141 8.42188 23.9141 13.9531C23.9141 19.4844 19.4844 23.9141 13.9531 23.9141Z" fill="black" fill-opacity="0.85"/>
<path d="M7.51953 17.832C7.51953 18.2422 7.83594 18.5469 8.24609 18.5469H8.89062C9.28906 18.5469 9.60547 18.2422 9.60547 17.832V16.9297C10.8125 17 12.5586 17.0586 13.9531 17.0586C15.3477 17.0586 17.082 17 18.2891 16.9297V17.832C18.2891 18.2422 18.6055 18.5469 19.0156 18.5469H19.6602C20.0586 18.5469 20.375 18.2422 20.375 17.832V14.7031C20.375 13.8008 20.1875 13.2852 19.6836 12.6289L19.2266 12.043C19.0156 11.0586 18.6641 10.0273 18.4883 9.62891C18.1953 9.01953 17.6328 8.66797 16.9062 8.5625C16.543 8.51562 15.3477 8.49219 13.9531 8.49219C12.5469 8.49219 11.3633 8.51562 10.9883 8.5625C10.2734 8.65625 9.71094 9.01953 9.41797 9.62891C9.23047 10.0273 8.87891 11.0586 8.67969 12.043L8.21094 12.6289C7.70703 13.2852 7.51953 13.8008 7.51953 14.7031V17.832ZM10.0625 11.5273C10.1914 10.9648 10.4258 10.25 10.5898 9.95703C10.7305 9.71094 10.8828 9.60547 11.1641 9.57031C11.5391 9.51172 12.4062 9.48828 13.9531 9.48828C15.4883 9.48828 16.3555 9.5 16.7422 9.57031C17.0234 9.60547 17.1641 9.71094 17.3164 9.95703C17.4805 10.2383 17.7148 10.9648 17.832 11.5273C17.8906 11.7031 17.8086 11.7852 17.6094 11.7734C16.7773 11.7031 15.7695 11.668 13.9531 11.668C12.125 11.668 11.1289 11.7031 10.2852 11.7734C10.0859 11.7852 10.0156 11.7031 10.0625 11.5273ZM9.16016 14.7266C9.16016 14.2227 9.54688 13.8477 10.0273 13.8477C10.5195 13.8477 10.9063 14.2227 10.9063 14.7266C10.9063 15.2188 10.5195 15.582 10.0273 15.582C9.54688 15.582 9.16016 15.2188 9.16016 14.7266ZM11.8906 14.7617C11.8906 14.3867 12.1484 14.1289 12.5234 14.1289H15.3828C15.7461 14.1289 16.0039 14.3867 16.0039 14.7617C16.0039 15.125 15.7461 15.3828 15.3828 15.3828H12.5234C12.1484 15.3828 11.8906 15.125 11.8906 14.7617ZM17 14.7266C17 14.2227 17.375 13.8477 17.8672 13.8477C18.3594 13.8477 18.7461 14.2227 18.7461 14.7266C18.7461 15.2188 18.3594 15.582 17.8672 15.582C17.375 15.582 17 15.2188 17 14.7266Z" fill="black" fill-opacity="0.85"/>
</g>
<defs>
<clipPath id="clip0_2124_24864">
<rect width="23.9062" height="23.918" fill="white" transform="translate(2 2)"/>
</clipPath>
</defs>
</svg>
