<svg width="34" height="28" viewBox="0 0 34 28" fill="none" xmlns="http://www.w3.org/2000/svg">
<path d="M0 14.4258C0 18.1406 1.20703 21.5508 3.24609 24.3281C3.60938 24.832 4.23047 24.8789 4.69922 24.5039C5.12109 24.1406 5.17969 23.5781 4.83984 23.1094C3.05859 20.6836 2.00391 17.6719 2.00391 14.4258C2.00391 11.1679 3.05859 8.16793 4.83984 5.71871C5.17969 5.2734 5.13281 4.69918 4.69922 4.3359C4.23047 3.96089 3.60938 4.01949 3.24609 4.51168C1.20703 7.28902 0 10.7109 0 14.4258ZM33.4453 14.4258C33.4453 10.7109 32.25 7.28902 30.1992 4.51168C29.8359 4.01949 29.2148 3.96089 28.7461 4.3359C28.3125 4.69918 28.2773 5.2734 28.6055 5.71871C30.3984 8.16793 31.4414 11.1679 31.4414 14.4258C31.4414 17.6719 30.3984 20.6836 28.6055 23.1094C28.2773 23.5781 28.3242 24.1406 28.7461 24.5039C29.2148 24.8789 29.8359 24.832 30.1992 24.3281C32.25 21.5508 33.4453 18.1406 33.4453 14.4258Z" fill="black" fill-opacity="0.85"/>
<path d="M16.7227 25.8516C22.9688 25.8516 28.1602 20.6719 28.1602 14.4258C28.1602 8.17969 22.9688 3 16.7109 3C10.4648 3 5.29688 8.16797 5.29688 14.4258C5.29688 20.6719 10.4766 25.8516 16.7227 25.8516ZM16.7227 23.8594C11.4961 23.8594 7.30078 19.6641 7.30078 14.4258C7.30078 9.17578 11.4844 4.98047 16.7109 4.98047C21.9492 4.98047 26.1562 9.17578 26.168 14.4258C26.1797 19.6523 21.9727 23.8594 16.7227 23.8594Z" fill="black" fill-opacity="0.85"/>
<path d="M9.76172 18.2461C10.1484 18.2461 10.3594 18.0117 10.418 17.6367L10.6641 16.4531H12.4102L12.6562 17.6484C12.75 18.082 12.9844 18.2461 13.3359 18.2461C13.6875 18.2461 13.957 17.9648 13.957 17.6133C13.957 17.543 13.9219 17.2852 13.8984 17.1797L12.5625 11.4492C12.4336 10.875 12.0938 10.5937 11.5195 10.5937C10.9805 10.5937 10.6523 10.8633 10.5117 11.4492L9.19922 17.1797C9.16406 17.332 9.12891 17.4727 9.12891 17.6133C9.12891 18.0469 9.42188 18.2461 9.76172 18.2461ZM10.8516 15.4336L11.4961 12.1758H11.543L12.2109 15.4336H10.8516ZM15.5977 18.1289H17.3555C18.6094 18.1289 19.2305 17.1797 19.2305 16.0312C19.2305 15.1875 18.7266 14.2852 17.9297 14.2266V14.1797C18.6797 14.0039 19.0195 13.2188 19.0195 12.5508C19.0195 11.4492 18.4102 10.7109 17.3086 10.7109H15.5977C15.2109 10.7109 14.9414 10.9219 14.9414 11.4141V17.4258C14.9414 17.8711 15.1641 18.1289 15.5977 18.1289ZM16.2656 17.1094V14.7656H16.8984C17.5781 14.7656 17.8945 15.2461 17.8945 15.9258C17.8945 16.6055 17.625 17.1094 16.9219 17.1094H16.2656ZM16.2656 13.8516V11.7305H16.9102C17.5312 11.7305 17.7539 12.1406 17.7539 12.75C17.7539 13.4062 17.4727 13.8516 16.8281 13.8516H16.2656ZM22.1367 18.293C23.5078 18.293 24.2461 17.4141 24.2461 16.1133C24.2461 14.918 23.6133 14.3789 22.7578 13.957L22.3359 13.7578C21.7852 13.4766 21.4102 13.1719 21.4102 12.5391C21.4102 12.0469 21.6445 11.6367 22.1133 11.6367C22.6055 11.6367 22.8047 12.0352 22.9219 12.5156C22.9922 12.7852 23.2383 12.9492 23.543 12.9492C23.8828 12.9492 24.0938 12.7148 24.0938 12.3984C24.0938 12.2461 24.0586 12.082 24 11.918C23.7305 11.0977 23.0625 10.5234 22.1133 10.5234C21.0117 10.5234 20.1094 11.2734 20.1094 12.6562C20.1094 13.8281 20.7891 14.3906 21.5742 14.8008L21.9844 15C22.5703 15.3047 22.9336 15.5859 22.9336 16.2422C22.9336 16.793 22.6523 17.2031 22.1484 17.2031C21.6445 17.2031 21.4102 16.8281 21.293 16.3242C21.1992 16.0078 21 15.8438 20.6719 15.8438C20.3086 15.8438 20.0977 16.1016 20.0977 16.4531C20.0977 16.5703 20.1211 16.6992 20.1445 16.8164C20.3906 17.7305 21.0938 18.293 22.1367 18.293Z" fill="black" fill-opacity="0.85"/>
</svg>
