<svg width="28" height="28" viewBox="0 0 28 28" fill="none" xmlns="http://www.w3.org/2000/svg">
<g clip-path="url(#clip0_2124_24879)">
<path d="M5 19.6875C5 22.9219 7.01562 24.9844 10.168 24.9844C12.5234 24.9844 14.2812 23.9531 15.3828 21.9609L16.4375 20.0742C18.9102 15.5508 23 14.9648 23 9.15234C23 3.66797 19.4492 0 14.1289 0C8.66797 0 5 3.69141 5 9.19922V19.6875Z" fill="black" fill-opacity="0.85"/>
<path d="M8.42188 16.4414C8.42188 14.1797 10.918 14.4609 10.918 13.1602C10.918 11.9883 8.42188 11.1328 8.42188 8.51953C8.42188 5.53125 10.707 3.38672 14.1055 3.38672C17.5156 3.38672 19.8008 5.67188 19.8008 9.07031C19.8008 9.57422 19.3789 9.99609 18.875 9.99609C18.3828 9.99609 17.9609 9.57422 17.9609 9.07031C17.9609 6.75 16.4492 5.22656 14.1055 5.22656C11.7969 5.22656 10.2617 6.62109 10.2617 8.51953C10.2617 10.9688 13.8594 11.5312 13.8594 15.0234C13.8594 16.9688 12.6289 18.5273 10.8008 18.5391C9.3828 18.5391 8.42188 17.6953 8.42188 16.4414Z" fill="white"/>
</g>
<defs>
<clipPath id="clip0_2124_24879">
<rect width="18" height="27.2461" fill="white" transform="translate(5)"/>
</clipPath>
</defs>
</svg>
