<svg width="28" height="28" viewBox="0 0 28 28" fill="none" xmlns="http://www.w3.org/2000/svg">
<path d="M13.9531 25.9062C20.4922 25.9062 25.9062 20.4805 25.9062 13.9531C25.9062 7.41406 20.4805 2 13.9414 2C7.41406 2 2 7.41406 2 13.9531C2 20.4805 7.42578 25.9062 13.9531 25.9062ZM13.9531 23.9141C8.42188 23.9141 4.00391 19.4844 4.00391 13.9531C4.00391 8.42188 8.41016 3.99219 13.9414 3.99219C19.4727 3.99219 23.9141 8.42188 23.9141 13.9531C23.9141 19.4844 19.4844 23.9141 13.9531 23.9141Z" fill="black" fill-opacity="0.85"/>
<path d="M9.32422 15.1602H18.1484C18.3828 14.8672 18.5469 14.5508 18.7109 14.1992C18.8281 13.918 18.8047 13.6836 18.6523 13.5195C18.5352 13.4141 18.3359 13.3906 18.0781 13.4727C17.6211 13.6719 17.0352 13.7539 16.3672 13.7539C13.6133 13.7539 11.8906 12.0664 11.8906 9.39452C11.8906 8.67968 11.9961 7.92968 12.207 7.53124C12.3359 7.27343 12.3125 7.05077 12.207 6.88671C12.0781 6.72265 11.7969 6.68749 11.5156 6.8164C9.59375 7.60155 8.29297 9.59374 8.29297 11.9141C8.29297 13.1562 8.65625 14.2578 9.32422 15.1602ZM7.36719 17.293H20.5039C20.8672 17.293 21.1953 17.0117 21.1953 16.6484C21.1953 16.2734 20.8789 16.0039 20.5039 16.0039H7.36719C7.00391 16.0039 6.6875 16.2852 6.6875 16.6484C6.6875 17.0117 7.01562 17.293 7.36719 17.293ZM8.19922 19.3672C8.50391 19.3672 8.76172 19.1211 8.76172 18.8164C8.76172 18.5 8.50391 18.2539 8.19922 18.2539C7.89453 18.2539 7.63672 18.5 7.63672 18.8164C7.63672 19.1211 7.89453 19.3672 8.19922 19.3672ZM11.082 19.3672C11.3867 19.3672 11.6328 19.1211 11.6328 18.8164C11.6328 18.5 11.3867 18.2539 11.082 18.2539C10.7773 18.2539 10.5195 18.5 10.5195 18.8164C10.5195 19.1211 10.7773 19.3672 11.082 19.3672ZM13.9531 19.3672C14.2578 19.3672 14.5156 19.1211 14.5156 18.8164C14.5156 18.5 14.2578 18.2539 13.9531 18.2539C13.6484 18.2539 13.3906 18.5 13.3906 18.8164C13.3906 19.1211 13.6484 19.3672 13.9531 19.3672ZM16.8242 19.3672C17.1289 19.3672 17.3867 19.1211 17.3867 18.8164C17.3867 18.5 17.1289 18.2539 16.8242 18.2539C16.5195 18.2539 16.2734 18.5 16.2734 18.8164C16.2734 19.1211 16.5195 19.3672 16.8242 19.3672ZM19.707 19.3672C20.0117 19.3672 20.2578 19.1211 20.2578 18.8164C20.2578 18.5 20.0117 18.2539 19.707 18.2539C19.4023 18.2539 19.1445 18.5 19.1445 18.8164C19.1445 19.1211 19.4023 19.3672 19.707 19.3672ZM9.62891 20.9492C9.93359 20.9492 10.1914 20.7031 10.1914 20.3867C10.1914 20.082 9.93359 19.8359 9.62891 19.8359C9.32422 19.8359 9.06641 20.082 9.06641 20.3867C9.06641 20.7031 9.32422 20.9492 9.62891 20.9492ZM12.5117 20.9492C12.8164 20.9492 13.0625 20.7031 13.0625 20.3867C13.0625 20.082 12.8164 19.8359 12.5117 19.8359C12.207 19.8359 11.9492 20.082 11.9492 20.3867C11.9492 20.7031 12.207 20.9492 12.5117 20.9492ZM15.3828 20.9492C15.6875 20.9492 15.9453 20.7031 15.9453 20.3867C15.9453 20.082 15.6875 19.8359 15.3828 19.8359C15.0781 19.8359 14.8203 20.082 14.8203 20.3867C14.8203 20.7031 15.0781 20.9492 15.3828 20.9492ZM18.2539 20.9492C18.5586 20.9492 18.8164 20.7031 18.8164 20.3867C18.8164 20.082 18.5586 19.8359 18.2539 19.8359C17.9492 19.8359 17.6914 20.082 17.6914 20.3867C17.6914 20.7031 17.9492 20.9492 18.2539 20.9492Z" fill="black" fill-opacity="0.85"/>
</svg>
