<svg width="38" height="28" viewBox="0 0 38 28" fill="none" xmlns="http://www.w3.org/2000/svg">
<g clip-path="url(#clip0_2124_24567)">
<path d="M2.69531 22.2734H25.2305C26.918 22.2734 27.9375 21.2539 27.9375 19.5664V5.51562C27.9375 3.82812 26.918 2.82031 25.2305 2.82031H2.69531C1.01953 2.82031 0 3.82812 0 5.51562V19.5664C0 21.2539 1.01953 22.2734 2.69531 22.2734ZM2.73047 20.3867C2.21484 20.3867 1.88672 20.0586 1.88672 19.543V5.55078C1.88672 5.02344 2.21484 4.70703 2.73047 4.70703H25.207C25.7227 4.70703 26.0508 5.02344 26.0508 5.55078V19.543C26.0508 20.0586 25.7227 20.3867 25.207 20.3867H2.73047ZM10.2656 25.0625H17.6719V22.1211H10.2656V25.0625ZM10.1953 26.4336H17.7422C18.2578 26.4336 18.6797 26.0117 18.6797 25.4844C18.6797 24.957 18.2578 24.5352 17.7422 24.5352H10.1953C9.67969 24.5352 9.24609 24.957 9.24609 25.4844C9.24609 26.0117 9.67969 26.4336 10.1953 26.4336Z" fill="black" fill-opacity="0.85"/>
<path d="M15.9375 20.3633C15.9375 22.4141 16.9453 23.3633 18.9492 23.3633H34.7227C36.7266 23.3633 37.7227 22.4141 37.7227 20.3633V11.4102C37.7227 9.35938 36.7266 8.39844 34.7227 8.39844H18.9492C16.9453 8.39844 15.9375 9.35938 15.9375 11.4102V20.3633Z" fill="white"/>
<path d="M15.9375 20.3633C15.9375 22.4141 16.9453 23.3633 18.9492 23.3633H34.7227C36.7266 23.3633 37.7227 22.4141 37.7227 20.3633V11.4102C37.7227 9.35938 36.7266 8.39844 34.7227 8.39844H18.9492C16.9453 8.39844 15.9375 9.35938 15.9375 11.4102V20.3633ZM17.8242 20.3281V11.4453C17.8242 10.6133 18.1758 10.2852 18.9844 10.2852H34.6875C35.4844 10.2852 35.8359 10.6133 35.8359 11.4453V20.3281C35.8359 21.1484 35.4844 21.4766 34.6875 21.4766H18.9844C18.1758 21.4766 17.8242 21.1484 17.8242 20.3281ZM23.7305 25.0625H29.9414V22.25H23.7305V25.0625ZM23.6602 26.4336H30C30.5273 26.4336 30.9492 26.0117 30.9492 25.4844C30.9492 24.957 30.5273 24.5352 30 24.5352H23.6602C23.1445 24.5352 22.7109 24.957 22.7109 25.4844C22.7109 26.0117 23.1445 26.4336 23.6602 26.4336Z" fill="black" fill-opacity="0.85"/>
</g>
<defs>
<clipPath id="clip0_2124_24567">
<rect width="37.7227" height="24.4336" fill="white" transform="translate(0 2)"/>
</clipPath>
</defs>
</svg>
