<svg width="29" height="29" viewBox="0 0 29 29" fill="none" xmlns="http://www.w3.org/2000/svg">
<g clip-path="url(#clip0_2124_45965)">
<path d="M11.7813 24.8136H22.5156C24.2266 24.8136 25.1406 23.8761 25.1406 22.0245V13.9503C25.1406 12.0988 24.2266 11.173 22.5156 11.173H11.7813C10.0586 11.173 9.14453 12.0988 9.14453 13.9503V22.0245C9.14453 23.8761 10.0586 24.8136 11.7813 24.8136ZM11.207 12.0753H13.0586V8.11438C13.0586 5.16125 14.957 3.59094 17.1484 3.59094C19.3399 3.59094 21.2383 5.16125 21.2383 8.11438V12.0753H23.1016V8.37219C23.1016 3.96594 20.2188 1.82141 17.1484 1.82141C14.0781 1.82141 11.207 3.96594 11.207 8.37219V12.0753Z" fill="black" fill-opacity="0.85"/>
<path d="M3.10894 16.2941C3.48394 17.6066 4.87846 18.3566 6.39018 17.7823L6.88237 17.5831C6.88237 18.0519 6.88237 18.4152 6.81206 18.7081L5.54643 23.9933C4.72612 27.3917 9.42534 28.5753 10.2691 25.3761H10.8902C11.7222 28.5753 16.4449 27.38 15.6129 23.9933L14.3238 18.7081C14.2652 18.4152 14.277 18.0519 14.277 17.5831L14.7691 17.7823C16.2691 18.3566 17.6754 17.6066 18.0504 16.2941C18.4137 15.1105 17.8395 13.8214 16.5152 13.2823L13.7613 12.1456C13.984 11.6886 14.1129 11.1847 14.1129 10.6456C14.1129 8.70032 12.5543 7.10657 10.5855 7.10657C8.6519 7.10657 7.05815 8.68861 7.05815 10.6456C7.05815 11.1847 7.18706 11.6886 7.40971 12.1339L4.64409 13.2823C3.31987 13.8331 2.74566 15.1105 3.10894 16.2941Z" fill="white"/>
<path d="M10.5852 12.5675C11.675 12.5675 12.5188 11.712 12.5188 10.6456C12.5188 9.57923 11.675 8.71204 10.5852 8.71204C9.5305 8.71204 8.65159 9.57923 8.65159 10.6456C8.65159 11.712 9.5305 12.5675 10.5852 12.5675ZM10.5735 19.4581C10.8313 19.4581 11.0422 19.6105 11.1125 19.9034L12.4367 24.9777C12.7297 26.1027 14.2766 25.7042 14.1242 24.6378C14.0422 24.2159 12.9172 19.9269 12.7531 18.9659C12.636 18.2628 12.6946 16.4698 12.6946 15.6613C12.6946 15.4386 12.8938 15.2863 13.1281 15.3917L15.3664 16.2941C15.9758 16.5402 16.3976 16.2472 16.5148 15.8488C16.6437 15.4503 16.468 14.9816 15.9055 14.7589L13.5031 13.7628C12.9289 13.5284 12.4367 13.4113 11.8742 13.3292C11.4758 13.5167 11.0422 13.6339 10.5735 13.6339C10.1047 13.6339 9.68284 13.5167 9.2844 13.3292C8.7219 13.4113 8.218 13.5284 7.6555 13.7628L5.24144 14.7589C4.69065 14.9816 4.51487 15.4503 4.64378 15.8488C4.74925 16.2472 5.18284 16.5402 5.79222 16.2941L8.0305 15.3917C8.26487 15.2863 8.46409 15.4386 8.46409 15.6613C8.46409 16.4698 8.52269 18.2628 8.4055 18.9659C8.24144 19.9269 7.11644 24.2159 7.0344 24.6378C6.87034 25.7042 8.42894 26.1027 8.7219 24.9777L10.0344 19.9034C10.1164 19.6105 10.3156 19.4581 10.5735 19.4581Z" fill="black" fill-opacity="0.85"/>
</g>
<defs>
<clipPath id="clip0_2124_45965">
<rect width="22.1382" height="27.2449" fill="white" transform="translate(3.00195 0.00561523)"/>
</clipPath>
</defs>
</svg>
