<svg width="28" height="28" viewBox="0 0 28 28" fill="none" xmlns="http://www.w3.org/2000/svg">
<path d="M13.9531 25.9062C20.4922 25.9062 25.9062 20.4805 25.9062 13.9531C25.9062 7.41406 20.4805 2 13.9414 2C7.41406 2 2 7.41406 2 13.9531C2 20.4805 7.42578 25.9062 13.9531 25.9062ZM13.9531 23.9141C8.42188 23.9141 4.00391 19.4844 4.00391 13.9531C4.00391 8.42188 8.41016 3.99219 13.9414 3.99219C19.4727 3.99219 23.9141 8.42188 23.9141 13.9531C23.9141 19.4844 19.4844 23.9141 13.9531 23.9141Z" fill="black" fill-opacity="0.85"/>
<path d="M9.48828 20.2578C9.80469 20.2578 10.0156 20.0117 10.0156 19.7188V16.2617C10.2383 16.168 10.6953 16.0273 11.4219 16.0273C13.5078 16.0273 14.8203 17.0586 16.8477 17.0586C17.7383 17.0586 18.1016 16.9648 18.5469 16.7539C19.0391 16.5312 19.2617 16.1914 19.2617 15.6641V9.88672C19.2617 9.54688 19.0859 9.30078 18.6055 9.30078C18.2656 9.30078 17.75 9.54688 16.7891 9.54688C14.7969 9.54688 13.4727 8.50391 11.3633 8.50391C10.4492 8.50391 10.0859 8.60938 9.66406 8.79688C9.18359 9.00781 8.9375 9.38281 8.9375 9.88672V19.7188C8.9375 20 9.19531 20.2578 9.48828 20.2578ZM9.83984 13.5898V11.6328C9.93359 11.4453 10.4141 11.1758 11.3164 11.1758C11.5039 11.1758 11.75 11.1875 11.9492 11.2109V9.45312C12.7344 9.52344 13.4258 9.74609 14.1289 9.96875V11.7266C14.8438 11.9492 15.5234 12.125 16.3086 12.1953V10.4375C16.4727 10.4492 16.6484 10.4492 16.8359 10.4492C17.457 10.4492 17.9844 10.3906 18.3828 10.2734V12.0312C18.0781 12.1133 17.5156 12.2188 16.8359 12.2188C16.6367 12.2188 16.4609 12.207 16.3086 12.1953V14.1641C16.4609 14.1758 16.625 14.1875 16.8359 14.1875C17.457 14.1875 17.9844 14.1172 18.3828 14V15.6758C18.2891 15.875 17.8086 16.1445 16.9062 16.1445C16.6836 16.1445 16.4844 16.1328 16.3086 16.0977V14.1641C15.5234 14.082 14.8672 13.9297 14.1289 13.6836V15.582C13.4609 15.3711 12.7578 15.1719 11.9492 15.1133V13.1797C11.75 13.1562 11.5977 13.1328 11.3164 13.1328C10.4141 13.1328 9.93359 13.4023 9.83984 13.5898ZM11.9492 13.1797C12.7578 13.2617 13.3555 13.4609 14.1289 13.6836V11.7266C13.4023 11.5039 12.7578 11.293 11.9492 11.2109V13.1797Z" fill="black" fill-opacity="0.85"/>
</svg>
