<svg width="28" height="28" viewBox="0 0 28 28" fill="none" xmlns="http://www.w3.org/2000/svg">
<g clip-path="url(#clip0_2124_24666)">
<path d="M5.04688 21.082H23.7617C25.5898 21.082 26.8203 19.793 26.8203 17.8828V9.1875C26.8203 7.27734 25.6016 6 23.7734 6H5.05859C3.23047 6 2 7.27734 2 9.1875V17.8828C2 19.793 3.21875 21.082 5.04688 21.082ZM5.35156 19.1953C4.41406 19.1953 3.88672 18.6328 3.88672 17.6484V9.43359C3.88672 8.44922 4.41406 7.88672 5.35156 7.88672H23.4688C24.4062 7.88672 24.9336 8.44922 24.9336 9.43359V17.6484C24.9336 18.6328 24.4062 19.1953 23.457 19.1953H5.35156Z" fill="black" fill-opacity="0.85"/>
<path d="M5.98438 11.5664H7.12109C7.36719 11.5664 7.54297 11.3906 7.54297 11.1328V10.0312C7.54297 9.76172 7.36719 9.57422 7.12109 9.57422H5.98438C5.73828 9.57422 5.5625 9.76172 5.5625 10.0312V11.1328C5.5625 11.3906 5.73828 11.5664 5.98438 11.5664ZM9.17188 11.5664H10.2969C10.543 11.5664 10.7305 11.3906 10.7305 11.1328V10.0312C10.7305 9.76172 10.5547 9.57422 10.2969 9.57422H9.17188C8.91406 9.57422 8.73828 9.76172 8.73828 10.0312V11.1328C8.73828 11.3906 8.91406 11.5664 9.17188 11.5664ZM12.3477 11.5664H13.4727C13.7305 11.5664 13.9062 11.3906 13.9062 11.1328V10.0312C13.9062 9.76172 13.7305 9.57422 13.4727 9.57422H12.3477C12.0898 9.57422 11.9141 9.76172 11.9141 10.0312V11.1328C11.9141 11.3906 12.0898 11.5664 12.3477 11.5664ZM15.5234 11.5664H16.6602C16.9062 11.5664 17.082 11.3906 17.082 11.1328V10.0312C17.082 9.76172 16.9062 9.57422 16.6602 9.57422H15.5234C15.2773 9.57422 15.1016 9.76172 15.1016 10.0312V11.1328C15.1016 11.3906 15.2773 11.5664 15.5234 11.5664ZM5.98438 14.543H7.12109C7.36719 14.543 7.54297 14.3672 7.54297 14.1094V13.0078C7.54297 12.7383 7.36719 12.5508 7.12109 12.5508H5.98438C5.73828 12.5508 5.5625 12.7383 5.5625 13.0078V14.1094C5.5625 14.3672 5.73828 14.543 5.98438 14.543ZM9.17188 14.543H10.2969C10.543 14.543 10.7305 14.3672 10.7305 14.1094V13.0078C10.7305 12.7383 10.5547 12.5508 10.2969 12.5508H9.17188C8.91406 12.5508 8.73828 12.7383 8.73828 13.0078V14.1094C8.73828 14.3672 8.91406 14.543 9.17188 14.543ZM12.3594 14.543H13.4727C13.7422 14.543 13.918 14.3672 13.918 14.1094V13.0078C13.918 12.7383 13.7422 12.5508 13.4727 12.5508H12.3594C12.0898 12.5508 11.9141 12.7383 11.9141 13.0078V14.1094C11.9141 14.3672 12.0898 14.543 12.3594 14.543ZM21.7812 11.5664H22.9062C23.1641 11.5664 23.3398 11.3906 23.3398 11.1328V10.0312C23.3398 9.76172 23.1641 9.57422 22.918 9.57422H21.7812C21.5352 9.57422 21.3594 9.76172 21.3594 10.0312V11.1328C21.3594 11.3906 21.5234 11.5664 21.7812 11.5664ZM21.7812 14.543H22.918C23.1641 14.543 23.3398 14.3672 23.3398 14.1094V13.0078C23.3398 12.7383 23.1641 12.5508 22.918 12.5508H21.7812C21.5352 12.5508 21.3594 12.7383 21.3594 13.0078V14.1094C21.3594 14.3672 21.5352 14.543 21.7812 14.543ZM21.7812 17.5078H22.9062C23.1641 17.5078 23.3398 17.332 23.3398 17.0859V15.9844C23.3398 15.7148 23.1641 15.5273 22.918 15.5273H21.7812C21.5352 15.5273 21.3594 15.7148 21.3594 15.9844V17.0859C21.3594 17.332 21.5352 17.5078 21.7812 17.5078Z" fill="black" fill-opacity="0.85"/>
</g>
<defs>
<clipPath id="clip0_2124_24666">
<rect width="24.8203" height="15.1055" fill="white" transform="translate(2 6)"/>
</clipPath>
</defs>
</svg>
