<svg width="28" height="28" viewBox="0 0 28 28" fill="none" xmlns="http://www.w3.org/2000/svg">
<path d="M6.20974 14.1602C6.20974 14.7344 6.65505 15.168 7.24099 15.168H8.13161C8.70583 15.168 9.13943 14.7344 9.13943 14.1602V13.0586H21.3738V14.1602C21.3738 14.7344 21.8074 15.168 22.3816 15.168H23.2722C23.8582 15.168 24.2918 14.7344 24.2918 14.1602V9.05078C24.2918 7.77344 24.1394 6.98828 23.3308 6.13281L22.5574 5.30078L21.7605 3.00391C21.3269 1.75 20.4715 1.23438 19.4168 1.10547C18.9011 1.03516 17.2371 1 15.2566 1C13.2761 1 11.6004 1.03516 11.0965 1.10547C10.0418 1.23438 9.17458 1.75 8.75271 3.00391L7.95583 5.30078L7.1824 6.13281C6.3738 6.98828 6.20974 7.77344 6.20974 9.05078V14.1602ZM10.0535 5.35938C9.69021 5.35938 9.5613 5.07812 9.67849 4.73828L10.1472 3.30859C10.323 2.79297 10.6043 2.61719 11.0613 2.54688C11.5887 2.48828 13.0652 2.42969 15.2566 2.42969C17.448 2.42969 18.9129 2.48828 19.4402 2.54688C19.8972 2.61719 20.1785 2.79297 20.3543 3.30859L20.8347 4.73828C20.9519 5.07812 20.823 5.35938 20.4597 5.35938H10.0535ZM8.98708 10.1172C8.50661 10.1172 8.15505 9.77734 8.15505 9.29688V8.10156C8.15505 7.64453 8.50661 7.30469 8.98708 7.30469C9.45583 7.30469 9.79568 7.63281 9.79568 8.10156V9.29688C9.79568 9.77734 9.45583 10.1172 8.98708 10.1172ZM13.5105 9.75391C13.1355 9.75391 12.9011 9.49609 12.9011 9.08594V8.32422C12.9011 7.92578 13.1355 7.67969 13.5105 7.67969H16.9676C17.3426 7.67969 17.6004 7.92578 17.6004 8.32422V9.08594C17.6004 9.49609 17.3426 9.75391 16.9676 9.75391H13.5105ZM21.5965 10.1172C21.1394 10.1172 20.7879 9.77734 20.7879 9.29688V8.10156C20.7879 7.65625 21.1394 7.30469 21.5965 7.30469C22.0769 7.30469 22.4168 7.63281 22.4168 8.10156V9.29688C22.4168 9.77734 22.0769 10.1172 21.5965 10.1172ZM12.2097 17.1953L11.3191 16.5273C10.991 16.293 10.616 16.1758 10.2176 16.1758H8.31911C7.85036 16.1758 7.67458 16.7383 8.04958 17.0078L9.84255 18.3203C10.4051 18.7305 10.3347 19.2695 9.67849 19.5625L3.85427 22.082C1.60427 23.043 1.39333 24.5195 3.26833 25.9023L4.15896 26.5586C4.48708 26.8047 4.86208 26.9219 5.27224 26.9219H7.15896C7.63943 26.9219 7.80349 26.3594 7.44021 26.0898L5.64724 24.7656C5.08474 24.3672 5.15505 23.8164 5.79958 23.5352L11.6355 21.0039C13.8738 20.043 14.0847 18.5781 12.2097 17.1953ZM24.4793 17.2188L23.5886 16.5508C23.2605 16.3047 22.8855 16.1992 22.4871 16.1992H20.5886C20.1199 16.1992 19.9441 16.75 20.3191 17.0312L22.1121 18.3438C22.6629 18.7422 22.5926 19.293 21.948 19.5742L16.1121 22.1055C13.8738 23.0664 13.6629 24.5312 15.5379 25.9141L16.4285 26.5703C16.7566 26.8164 17.1316 26.9336 17.5301 26.9336H19.4285C19.8972 26.9336 20.073 26.3711 19.698 26.1016L17.9051 24.7891C17.3543 24.3789 17.4246 23.8398 18.0691 23.5469L23.9051 21.0273C26.1433 20.0664 26.3543 18.5898 24.4793 17.2188Z" fill="black" fill-opacity="0.85"/>
</svg>
