<svg width="29" height="28" viewBox="0 0 29 28" fill="none" xmlns="http://www.w3.org/2000/svg">
<g clip-path="url(#clip0_2124_50127)">
<path d="M0.9375 26.8672C1.46484 26.8672 1.88672 26.4453 1.88672 25.9297V4.50781C1.88672 4.13281 2.13281 3.88672 2.48438 3.88672H26.168C26.5195 3.88672 26.7656 4.13281 26.7656 4.50781V25.9297C26.7656 26.4453 27.1875 26.8672 27.7031 26.8672C28.2305 26.8672 28.6523 26.4453 28.6523 25.9297V4.39062C28.6523 2.96094 27.668 2 26.1914 2H2.44922C0.984375 2 0 2.96094 0 4.39062V25.9297C0 26.4453 0.421875 26.8672 0.9375 26.8672Z" fill="black" fill-opacity="0.85"/>
<path d="M3.65625 26.457H24.9961C25.2188 26.457 25.3945 26.2695 25.3945 26.0586V5.64453C25.3945 5.42188 25.2188 5.24609 24.9961 5.24609H3.65625C3.43359 5.24609 3.25781 5.42188 3.25781 5.64453V26.0586C3.25781 26.2695 3.43359 26.457 3.65625 26.457ZM12.0352 24.4766C11.6953 24.4766 11.4727 24.2422 11.4727 23.9141C11.4727 23.5742 11.6953 23.3398 12.0352 23.3398H16.6172C16.957 23.3398 17.1797 23.5742 17.1797 23.9141C17.1797 24.2422 16.957 24.4766 16.6172 24.4766H12.0352ZM5.26172 11.7031C5.02734 11.7031 4.85156 11.5273 4.85156 11.293V7.14453C4.85156 6.91016 5.02734 6.72266 5.26172 6.72266H9.79688C10.0312 6.72266 10.207 6.91016 10.207 7.14453V11.293C10.207 11.5273 10.0312 11.7031 9.79688 11.7031H5.26172ZM12.082 11.7031C11.8477 11.7031 11.6719 11.5273 11.6719 11.293V7.14453C11.6719 6.91016 11.8477 6.72266 12.082 6.72266H16.6055C16.8398 6.72266 17.0273 6.91016 17.0273 7.14453V11.293C17.0273 11.5273 16.8398 11.7031 16.6055 11.7031H12.082ZM18.8906 11.7031C18.6562 11.7031 18.4688 11.5273 18.4688 11.293V7.14453C18.4688 6.91016 18.6562 6.72266 18.8906 6.72266H23.3906C23.625 6.72266 23.8008 6.91016 23.8008 7.14453V11.293C23.8008 11.5273 23.625 11.7031 23.4844 11.7031H18.8906Z" fill="black" fill-opacity="0.85"/>
</g>
<defs>
<clipPath id="clip0_2124_50127">
<rect width="28.6523" height="24.8789" fill="white" transform="translate(0 2)"/>
</clipPath>
</defs>
</svg>
