<svg width="28" height="28" viewBox="0 0 28 28" fill="none" xmlns="http://www.w3.org/2000/svg">
<path d="M6.67969 24.5977H20.8945C23.3555 24.5977 24.5742 23.3789 24.5742 20.9648V6.65625C24.5742 4.24219 23.3555 3.02344 20.8945 3.02344H6.67969C4.23047 3.02344 3 4.23047 3 6.65625V20.9648C3 23.3906 4.23047 24.5977 6.67969 24.5977Z" fill="black" fill-opacity="0.85"/>
<path d="M11.4023 18.8086C10.9102 18.8086 10.5117 18.4102 10.5117 17.918V10.5937L9.39844 11.4844C9.28125 11.5781 9.15234 11.6367 8.97656 11.6367C8.60156 11.6367 8.35547 11.3672 8.35547 10.9922C8.35547 10.6758 8.50781 10.4414 8.73047 10.2773L10.0547 9.24609C10.3359 9.03516 10.7578 8.75391 11.2617 8.75391C11.8945 8.75391 12.2812 9.11719 12.2812 9.73828V17.918C12.2812 18.4102 11.8828 18.8086 11.4023 18.8086ZM16.9805 18.8086C16.4883 18.8086 16.0898 18.4102 16.0898 17.918V10.5937L14.9766 11.4844C14.8594 11.5781 14.7305 11.6367 14.5547 11.6367C14.1797 11.6367 13.9219 11.3672 13.9219 10.9922C13.9219 10.6758 14.0977 10.4414 14.3086 10.2773L15.6328 9.24609C15.9141 9.03516 16.3242 8.75391 16.8398 8.75391C17.4727 8.75391 17.8594 9.11719 17.8594 9.73828V17.918C17.8594 18.4102 17.4609 18.8086 16.9805 18.8086Z" fill="white"/>
</svg>
