<svg width="28" height="28" viewBox="0 0 28 28" fill="none" xmlns="http://www.w3.org/2000/svg">
<g clip-path="url(#clip0_2124_24679)">
<path d="M3.67969 24.5977H23.9531C26.4141 24.5977 27.6328 23.3789 27.6328 20.9648V6.65625C27.6328 4.24219 26.4141 3.02344 23.9531 3.02344H3.67969C1.23047 3.02344 0 4.23047 0 6.65625V20.9648C0 23.3906 1.23047 24.5977 3.67969 24.5977ZM2.14453 14.4492C1.79297 14.4609 1.5 14.1562 1.48828 13.793C1.47656 13.4531 1.78125 13.1602 2.13281 13.1602C2.49609 13.1602 2.77734 13.4531 2.77734 13.793C2.77734 14.1562 2.48438 14.4375 2.14453 14.4492ZM3.97266 22.7109V4.91016H23.6602V22.7109H3.97266ZM25.4414 14.8125C24.8789 14.8125 24.4453 14.3555 24.4453 13.793C24.4453 13.2422 24.8906 12.7852 25.4531 12.7852C26.0156 12.7852 26.4609 13.2422 26.4609 13.793C26.4609 14.3555 26.0156 14.8125 25.4414 14.8125Z" fill="black" fill-opacity="0.85"/>
</g>
<defs>
<clipPath id="clip0_2124_24679">
<rect width="27.6328" height="21.5977" fill="white" transform="translate(0 3)"/>
</clipPath>
</defs>
</svg>
