<svg width="29" height="29" viewBox="0 0 29 29" fill="none" xmlns="http://www.w3.org/2000/svg">
<g clip-path="url(#clip0_2124_45830)">
<path d="M0.966797 4.28588C1.31836 4.28588 1.62305 3.98119 1.62305 3.62963C1.62305 3.26635 1.31836 2.97338 0.966797 2.97338C0.603515 2.97338 0.310547 3.26635 0.310547 3.62963C0.310547 3.98119 0.603515 4.28588 0.966797 4.28588ZM4.6582 4.28588C5.02148 4.28588 5.31445 3.98119 5.31445 3.62963C5.31445 3.26635 5.02148 2.97338 4.6582 2.97338C4.29492 2.97338 4.00195 3.26635 4.00195 3.62963C4.00195 3.98119 4.29492 4.28588 4.6582 4.28588ZM8.34961 4.28588C8.71289 4.28588 9.00586 3.98119 9.00586 3.62963C9.00586 3.26635 8.71289 2.97338 8.34961 2.97338C7.99805 2.97338 7.69336 3.26635 7.69336 3.62963C7.69336 3.98119 7.99805 4.28588 8.34961 4.28588ZM12.0645 4.57885C12.5801 4.57885 13.0137 4.14526 13.0137 3.62963C13.0137 3.10229 12.5801 2.66869 12.0645 2.66869C11.5371 2.66869 11.1036 3.10229 11.1036 3.62963C11.1036 4.14526 11.5371 4.57885 12.0645 4.57885ZM15.7559 4.57885C16.2832 4.57885 16.7168 4.14526 16.7168 3.62963C16.7168 3.10229 16.2832 2.66869 15.7559 2.66869C15.2286 2.66869 14.795 3.10229 14.795 3.62963C14.795 4.14526 15.2286 4.57885 15.7559 4.57885ZM19.4707 4.28588C19.8223 4.28588 20.127 3.98119 20.127 3.62963C20.127 3.26635 19.8223 2.97338 19.4707 2.97338C19.1075 2.97338 18.8028 3.26635 18.8028 3.62963C18.8028 3.98119 19.1075 4.28588 19.4707 4.28588ZM23.1621 4.28588C23.5254 4.28588 23.8184 3.98119 23.8184 3.62963C23.8184 3.26635 23.5254 2.97338 23.1621 2.97338C22.7989 2.97338 22.5059 3.26635 22.5059 3.62963C22.5059 3.98119 22.7989 4.28588 23.1621 4.28588ZM26.8536 4.28588C27.2168 4.28588 27.5098 3.98119 27.5098 3.62963C27.5098 3.26635 27.2168 2.97338 26.8536 2.97338C26.502 2.97338 26.1973 3.26635 26.1973 3.62963C26.1973 3.98119 26.502 4.28588 26.8536 4.28588ZM0.966797 8.32885C1.31836 8.32885 1.62305 8.02416 1.62305 7.66088C1.62305 7.30932 1.31836 7.00463 0.966797 7.00463C0.603515 7.00463 0.310547 7.30932 0.310547 7.66088C0.310547 8.02416 0.603515 8.32885 0.966797 8.32885ZM4.6582 8.62182C5.18555 8.62182 5.61914 8.18823 5.61914 7.66088C5.61914 7.14526 5.18555 6.71166 4.6582 6.71166C4.13086 6.71166 3.69727 7.14526 3.69727 7.66088C3.69727 8.18823 4.13086 8.62182 4.6582 8.62182ZM8.34961 8.62182C8.87695 8.62182 9.31055 8.18823 9.31055 7.66088C9.31055 7.14526 8.87695 6.71166 8.34961 6.71166C7.83398 6.71166 7.40039 7.14526 7.40039 7.66088C7.40039 8.18823 7.83398 8.62182 8.34961 8.62182ZM12.0645 8.62182C12.5801 8.62182 13.0137 8.18823 13.0137 7.66088C13.0137 7.14526 12.5801 6.71166 12.0645 6.71166C11.5371 6.71166 11.1036 7.14526 11.1036 7.66088C11.1036 8.18823 11.5371 8.62182 12.0645 8.62182ZM15.7559 8.62182C16.2832 8.62182 16.7168 8.18823 16.7168 7.66088C16.7168 7.14526 16.2832 6.71166 15.7559 6.71166C15.2286 6.71166 14.795 7.14526 14.795 7.66088C14.795 8.18823 15.2286 8.62182 15.7559 8.62182ZM19.4707 8.62182C19.9864 8.62182 20.42 8.18823 20.42 7.66088C20.42 7.14526 19.9864 6.71166 19.4707 6.71166C18.9434 6.71166 18.5098 7.14526 18.5098 7.66088C18.5098 8.18823 18.9434 8.62182 19.4707 8.62182ZM23.1621 8.62182C23.6895 8.62182 24.1231 8.18823 24.1231 7.66088C24.1231 7.14526 23.6895 6.71166 23.1621 6.71166C22.6348 6.71166 22.2012 7.14526 22.2012 7.66088C22.2012 8.18823 22.6348 8.62182 23.1621 8.62182ZM26.8536 8.32885C27.2168 8.32885 27.5098 8.02416 27.5098 7.66088C27.5098 7.30932 27.2168 7.00463 26.8536 7.00463C26.502 7.00463 26.1973 7.30932 26.1973 7.66088C26.1973 8.02416 26.502 8.32885 26.8536 8.32885ZM0.966797 12.6648C1.48242 12.6648 1.91602 12.2312 1.91602 11.7039C1.91602 11.1765 1.48242 10.7429 0.966797 10.7429C0.439453 10.7429 0.00585938 11.1765 0.00585938 11.7039C0.00585938 12.2312 0.439453 12.6648 0.966797 12.6648ZM4.6582 12.9578C5.34961 12.9578 5.91211 12.3953 5.91211 11.7039C5.91211 11.0125 5.34961 10.45 4.6582 10.45C3.9668 10.45 3.4043 11.0125 3.4043 11.7039C3.4043 12.3953 3.9668 12.9578 4.6582 12.9578ZM8.34961 12.9578C9.04102 12.9578 9.60352 12.3953 9.60352 11.7039C9.60352 11.0125 9.04102 10.45 8.34961 10.45C7.66992 10.45 7.0957 11.0125 7.0957 11.7039C7.0957 12.3953 7.66992 12.9578 8.34961 12.9578ZM12.0645 12.9578C12.7442 12.9578 13.3184 12.3953 13.3184 11.7039C13.3184 11.0125 12.7442 10.45 12.0645 10.45C11.3731 10.45 10.8106 11.0125 10.8106 11.7039C10.8106 12.3953 11.3731 12.9578 12.0645 12.9578ZM15.7559 12.9578C16.4473 12.9578 17.0098 12.3953 17.0098 11.7039C17.0098 11.0125 16.4473 10.45 15.7559 10.45C15.0645 10.45 14.502 11.0125 14.502 11.7039C14.502 12.3953 15.0645 12.9578 15.7559 12.9578ZM19.4707 12.9578C20.1504 12.9578 20.7247 12.3953 20.7247 11.7039C20.7247 11.0125 20.1504 10.45 19.4707 10.45C18.7793 10.45 18.2051 11.0125 18.2051 11.7039C18.2051 12.3953 18.7793 12.9578 19.4707 12.9578ZM23.1621 12.9578C23.8536 12.9578 24.4161 12.3953 24.4161 11.7039C24.4161 11.0125 23.8536 10.45 23.1621 10.45C22.4707 10.45 21.9082 11.0125 21.9082 11.7039C21.9082 12.3953 22.4707 12.9578 23.1621 12.9578ZM26.8536 12.6648C27.3809 12.6648 27.8145 12.2312 27.8145 11.7039C27.8145 11.1765 27.3809 10.7429 26.8536 10.7429C26.3262 10.7429 25.8926 11.1765 25.8926 11.7039C25.8926 12.2312 26.3262 12.6648 26.8536 12.6648ZM0.966797 16.6961C1.48242 16.6961 1.91602 16.2625 1.91602 15.7469C1.91602 15.2195 1.48242 14.7859 0.966797 14.7859C0.439453 14.7859 0.00585938 15.2195 0.00585938 15.7469C0.00585938 16.2625 0.439453 16.6961 0.966797 16.6961ZM4.6582 17.0008C5.34961 17.0008 5.91211 16.4265 5.91211 15.7469C5.91211 15.0554 5.34961 14.4812 4.6582 14.4812C3.9668 14.4812 3.4043 15.0554 3.4043 15.7469C3.4043 16.4265 3.9668 17.0008 4.6582 17.0008ZM8.34961 17.0008C9.04102 17.0008 9.60352 16.4265 9.60352 15.7469C9.60352 15.0554 9.04102 14.4812 8.34961 14.4812C7.66992 14.4812 7.0957 15.0554 7.0957 15.7469C7.0957 16.4265 7.66992 17.0008 8.34961 17.0008ZM12.0645 17.0125C12.7442 17.0125 13.3184 16.4383 13.3184 15.7586C13.3184 15.0672 12.7442 14.4929 12.0645 14.4929C11.3731 14.4929 10.8106 15.0672 10.8106 15.7586C10.8106 16.4383 11.3731 17.0125 12.0645 17.0125ZM15.7559 17.0125C16.4473 17.0125 17.0098 16.4383 17.0098 15.7586C17.0098 15.0672 16.4473 14.4929 15.7559 14.4929C15.0645 14.4929 14.502 15.0672 14.502 15.7586C14.502 16.4383 15.0645 17.0125 15.7559 17.0125ZM19.4707 17.0008C20.1504 17.0008 20.7247 16.4265 20.7247 15.7469C20.7247 15.0554 20.1504 14.4812 19.4707 14.4812C18.7793 14.4812 18.2051 15.0554 18.2051 15.7469C18.2051 16.4265 18.7793 17.0008 19.4707 17.0008ZM23.1621 17.0008C23.8536 17.0008 24.4161 16.4265 24.4161 15.7469C24.4161 15.0554 23.8536 14.4812 23.1621 14.4812C22.4707 14.4812 21.9082 15.0554 21.9082 15.7469C21.9082 16.4265 22.4707 17.0008 23.1621 17.0008ZM26.8536 16.6961C27.3809 16.6961 27.8145 16.2625 27.8145 15.7469C27.8145 15.2195 27.3809 14.7859 26.8536 14.7859C26.3262 14.7859 25.8926 15.2195 25.8926 15.7469C25.8926 16.2625 26.3262 16.6961 26.8536 16.6961ZM0.966797 20.4343C1.31836 20.4343 1.62305 20.1414 1.62305 19.7781C1.62305 19.4265 1.31836 19.1219 0.966797 19.1219C0.603515 19.1219 0.310547 19.4265 0.310547 19.7781C0.310547 20.1414 0.603515 20.4343 0.966797 20.4343ZM4.6582 20.739C5.18555 20.739 5.61914 20.3054 5.61914 19.7781C5.61914 19.2625 5.18555 18.8289 4.6582 18.8289C4.13086 18.8289 3.69727 19.2625 3.69727 19.7781C3.69727 20.3054 4.13086 20.739 4.6582 20.739ZM8.34961 20.739C8.87695 20.739 9.31055 20.3054 9.31055 19.7781C9.31055 19.2625 8.87695 18.8289 8.34961 18.8289C7.83398 18.8289 7.40039 19.2625 7.40039 19.7781C7.40039 20.3054 7.83398 20.739 8.34961 20.739ZM12.0645 20.739C12.5801 20.739 13.0137 20.3054 13.0137 19.7781C13.0137 19.2625 12.5801 18.8289 12.0645 18.8289C11.5371 18.8289 11.1036 19.2625 11.1036 19.7781C11.1036 20.3054 11.5371 20.739 12.0645 20.739ZM15.7559 20.739C16.2832 20.739 16.7168 20.3054 16.7168 19.7781C16.7168 19.2625 16.2832 18.8289 15.7559 18.8289C15.2286 18.8289 14.795 19.2625 14.795 19.7781C14.795 20.3054 15.2286 20.739 15.7559 20.739ZM19.4707 20.739C19.9864 20.739 20.42 20.3054 20.42 19.7781C20.42 19.2625 19.9864 18.8289 19.4707 18.8289C18.9434 18.8289 18.5098 19.2625 18.5098 19.7781C18.5098 20.3054 18.9434 20.739 19.4707 20.739ZM23.1621 20.739C23.6895 20.739 24.1231 20.3054 24.1231 19.7781C24.1231 19.2625 23.6895 18.8289 23.1621 18.8289C22.6348 18.8289 22.2012 19.2625 22.2012 19.7781C22.2012 20.3054 22.6348 20.739 23.1621 20.739ZM26.8536 20.4343C27.2168 20.4343 27.5098 20.1414 27.5098 19.7781C27.5098 19.4265 27.2168 19.1219 26.8536 19.1219C26.502 19.1219 26.1973 19.4265 26.1973 19.7781C26.1973 20.1414 26.502 20.4343 26.8536 20.4343ZM0.966797 24.4773C1.31836 24.4773 1.62305 24.1843 1.62305 23.8211C1.62305 23.4578 1.31836 23.1648 0.966797 23.1648C0.603515 23.1648 0.310547 23.4578 0.310547 23.8211C0.310547 24.1843 0.603515 24.4773 0.966797 24.4773ZM4.6582 24.4773C5.02148 24.4773 5.31445 24.1843 5.31445 23.8211C5.31445 23.4578 5.02148 23.1648 4.6582 23.1648C4.29492 23.1648 4.00195 23.4578 4.00195 23.8211C4.00195 24.1843 4.29492 24.4773 4.6582 24.4773ZM8.34961 24.4773C8.71289 24.4773 9.00586 24.1843 9.00586 23.8211C9.00586 23.4578 8.71289 23.1648 8.34961 23.1648C7.99805 23.1648 7.69336 23.4578 7.69336 23.8211C7.69336 24.1843 7.99805 24.4773 8.34961 24.4773ZM12.0645 24.782C12.5801 24.782 13.0137 24.3484 13.0137 23.8211C13.0137 23.2937 12.5801 22.8601 12.0645 22.8601C11.5371 22.8601 11.1036 23.2937 11.1036 23.8211C11.1036 24.3484 11.5371 24.782 12.0645 24.782ZM15.7559 24.782C16.2832 24.782 16.7168 24.3484 16.7168 23.8211C16.7168 23.2937 16.2832 22.8601 15.7559 22.8601C15.2286 22.8601 14.795 23.2937 14.795 23.8211C14.795 24.3484 15.2286 24.782 15.7559 24.782ZM19.4707 24.4773C19.8223 24.4773 20.127 24.1843 20.127 23.8211C20.127 23.4578 19.8223 23.1648 19.4707 23.1648C19.1075 23.1648 18.8028 23.4578 18.8028 23.8211C18.8028 24.1843 19.1075 24.4773 19.4707 24.4773ZM23.1621 24.4773C23.5254 24.4773 23.8184 24.1843 23.8184 23.8211C23.8184 23.4578 23.5254 23.1648 23.1621 23.1648C22.7989 23.1648 22.5059 23.4578 22.5059 23.8211C22.5059 24.1843 22.7989 24.4773 23.1621 24.4773ZM26.8536 24.4773C27.2168 24.4773 27.5098 24.1843 27.5098 23.8211C27.5098 23.4578 27.2168 23.1648 26.8536 23.1648C26.502 23.1648 26.1973 23.4578 26.1973 23.8211C26.1973 24.1843 26.502 24.4773 26.8536 24.4773Z" fill="black" fill-opacity="0.85"/>
<path d="M13.9161 17.6219C17.0567 17.6219 19.752 14.8445 19.752 11.3758C19.752 7.8601 17.0215 5.27026 13.9161 5.27026C10.8106 5.27026 8.0918 7.91869 8.0918 11.3992C8.0918 14.8445 10.7754 17.6219 13.9161 17.6219ZM7.91602 26.4929H19.9161C23.0332 26.4929 23.9707 24.9226 23.9707 23.3406C23.9707 19.7781 19.9981 15.5125 13.9161 15.5125C7.8457 15.5125 3.87305 19.7781 3.87305 23.3406C3.87305 24.9226 4.81055 26.4929 7.91602 26.4929Z" fill="white"/>
<path d="M13.9161 15.8289C16.0606 15.8289 17.959 13.8719 17.959 11.3758C17.959 8.87963 16.0606 7.06323 13.9161 7.06323C11.7832 7.06323 9.88477 8.92651 9.88477 11.3992C9.88477 13.8719 11.7832 15.8289 13.9161 15.8289ZM7.91602 24.7H19.9161C21.6504 24.7 22.1778 24.2078 22.1778 23.3406C22.1778 20.8093 19.0254 17.3172 13.9161 17.3172C8.81836 17.3172 5.66602 20.8093 5.66602 23.3406C5.66602 24.2078 6.18164 24.7 7.91602 24.7Z" fill="black" fill-opacity="0.85"/>
</g>
<defs>
<clipPath id="clip0_2124_45830">
<rect width="27.8086" height="25.4648" fill="white" transform="translate(0.00585938 1.02808)"/>
</clipPath>
</defs>
</svg>
