<svg width="28" height="30" viewBox="0 0 28 30" fill="none" xmlns="http://www.w3.org/2000/svg">
<path d="M14.6636 5.12109C16.0698 5.12109 17.2066 3.97266 17.2066 2.54297C17.2066 1.13672 16.0698 0 14.6636 0C13.2339 0 12.0855 1.13672 12.0855 2.54297C12.0855 3.97266 13.2339 5.12109 14.6636 5.12109ZM19.0347 29.2617C19.6675 29.0742 19.9956 28.3711 19.7847 27.7383L17.9214 22.125C17.8628 21.9492 17.8042 21.8789 17.6987 21.7266L14.5698 18.1406L15.2261 11.0039C15.2378 10.7695 15.5191 10.6992 15.648 10.8984L17.1597 13.2305C17.3823 13.5586 17.7105 13.8516 18.0386 14.0391L21.8237 16.0781C22.4097 16.3828 23.1245 16.1719 23.4527 15.5977C23.7456 15.0117 23.5464 14.2852 22.9722 13.9688L19.1753 11.9414L16.6558 8.05078C15.9644 6.98438 14.9566 6.35156 13.562 6.35156H11.0659L10.0933 15.5977C9.96437 16.793 10.187 17.5664 11.1597 18.5625L15.73 23.1562L17.523 28.4883C17.7808 29.2617 18.4722 29.4141 19.0347 29.2617ZM8.61671 15.5977H10.5386C11.5698 15.5977 12.3667 14.8359 12.3667 13.8516V6.85547C12.3667 5.87109 11.5698 5.09766 10.5386 5.09766H9.22609C7.73781 5.09766 6.87062 5.97656 6.87062 7.48828V13.8516C6.87062 14.8828 7.58546 15.5977 8.61671 15.5977ZM5.34718 28.9453C5.82765 29.4375 6.55421 29.4141 7.02296 28.9453L11.4058 24.5859C11.4878 24.4922 11.5816 24.4102 11.6284 24.3047L12.8355 21.8555L10.7378 19.7578L9.51906 23.0977L5.34718 27.293C4.89015 27.7617 4.87843 28.4883 5.34718 28.9453ZM22.3159 9.5625C21.9527 9.5625 21.6714 9.84375 21.6714 10.207V11.9883L22.9722 12.6914V10.207C22.9722 9.84375 22.6792 9.5625 22.3159 9.5625ZM22.3159 29.2969C22.6792 29.2969 22.9722 29.0039 22.9722 28.6406V17.2734C22.5503 17.3906 22.105 17.3789 21.6714 17.2383V28.6406C21.6714 29.0039 21.9527 29.2969 22.3159 29.2969Z" fill="black" fill-opacity="0.85"/>
</svg>
