<svg width="28" height="28" viewBox="0 0 28 28" fill="none" xmlns="http://www.w3.org/2000/svg">
<g clip-path="url(#clip0_2124_67734)">
<path d="M13.9531 25.9062C20.4922 25.9062 25.9062 20.4805 25.9062 13.9531C25.9062 7.41406 20.4805 2 13.9414 2C7.41406 2 2 7.41406 2 13.9531C2 20.4805 7.42578 25.9062 13.9531 25.9062Z" fill="black" fill-opacity="0.85"/>
<path d="M11.0469 8.60938C12.3477 8.60938 13.3438 9.34765 13.9531 10.4492C14.5508 9.34765 15.5703 8.60938 16.8594 8.60938C18.8984 8.60938 20.3867 10.1562 20.3867 12.3008C20.3867 15.4648 17.0117 18.3594 14.5508 19.9648C14.3633 20.1055 14.1289 20.2578 13.9766 20.2578C13.8242 20.2578 13.5547 20.0938 13.3438 19.9648C10.8711 18.3945 7.51953 15.4648 7.51953 12.3008C7.51953 10.1562 8.99609 8.60938 11.0469 8.60938Z" fill="white"/>
</g>
<defs>
<clipPath id="clip0_2124_67734">
<rect width="23.9062" height="23.918" fill="white" transform="translate(2 2)"/>
</clipPath>
</defs>
</svg>
