<svg width="28" height="28" viewBox="0 0 28 28" fill="none" xmlns="http://www.w3.org/2000/svg">
<path d="M13.9531 25.9062C20.4922 25.9062 25.9062 20.4805 25.9062 13.9531C25.9062 7.41406 20.4805 2 13.9414 2C7.41406 2 2 7.41406 2 13.9531C2 20.4805 7.42578 25.9062 13.9531 25.9062Z" fill="black" fill-opacity="0.85"/>
<path d="M10.3086 19.4961C9.74609 19.4961 9.41797 19.1211 9.41797 18.5234V9.20703C9.41797 8.58594 9.75781 8.1875 10.3555 8.1875C10.7539 8.1875 11.0234 8.33984 11.3281 8.77344L16.5781 16.3086H16.6719V9.16016C16.6719 8.57422 17 8.1875 17.5625 8.1875C18.1484 8.1875 18.4883 8.55078 18.4883 9.16016V18.4883C18.4883 19.1328 18.125 19.4961 17.5273 19.4961C17.1289 19.4961 16.8828 19.3555 16.5664 18.9102L11.3047 11.5039H11.2227V18.5234C11.2227 19.1445 10.8828 19.4961 10.3086 19.4961Z" fill="white"/>
</svg>
