<svg width="28" height="28" viewBox="0 0 28 28" fill="none" xmlns="http://www.w3.org/2000/svg">
<path d="M9.83203 4C3.03516 4 0 7.12891 0 13.5273V20.875C0 23.2422 1.21875 24.4375 3.59766 24.4375H23.4375C25.8164 24.4375 27.0352 23.2305 27.0352 20.875V13.5273C27.0352 7.12891 24 4 17.2031 4H9.83203ZM9.83203 5.88672H17.1914C22.7344 5.88672 25.1484 8.28906 25.1484 13.3984V20.7812C25.1484 21.9531 24.5156 22.5508 23.3906 22.5508H3.64453C2.49609 22.5508 1.88672 21.9531 1.88672 20.7812V13.3984C1.88672 8.28906 4.30078 5.88672 9.83203 5.88672Z" fill="black" fill-opacity="0.85"/>
<path d="M8.95312 18.9766H12.3281C12.7148 18.9766 13.0312 18.6484 13.0312 18.2617C13.0312 17.875 12.7148 17.5469 12.3281 17.5469H9.82031V10.1992C9.82031 9.73047 9.43359 9.34375 8.96484 9.34375C8.50781 9.34375 8.12109 9.73047 8.12109 10.1992V18.0859C8.12109 18.6367 8.41406 18.9766 8.95312 18.9766ZM14.7656 18.9648H18.832C19.2422 18.9648 19.5 18.6836 19.5 18.2734C19.5 17.8398 19.2305 17.582 18.832 17.582H16.0547V17.4883L17.7539 15.3203C18.9375 13.8672 19.3125 13.0117 19.3125 11.9805C19.3125 10.3867 18.2461 9.23828 16.6289 9.23828C15.1289 9.23828 13.9922 10.4805 13.9922 11.7109C13.9922 12.1328 14.2383 12.4375 14.6953 12.4375C15.082 12.4375 15.3164 12.2617 15.4336 11.8867C15.6562 11.1016 15.9492 10.5977 16.6172 10.5977C17.3203 10.5977 17.7188 11.2305 17.7188 12.0508C17.7188 12.9883 17.0625 13.9375 16.4414 14.7344L14.4141 17.3477C14.1914 17.6172 13.9688 17.9102 13.9688 18.2734C13.9688 18.6719 14.2266 18.9648 14.7656 18.9648Z" fill="black" fill-opacity="0.85"/>
</svg>
