<svg width="29" height="28" viewBox="0 0 29 28" fill="none" xmlns="http://www.w3.org/2000/svg">
<g clip-path="url(#clip0_2124_50195)">
<path d="M5.90625 25.1367H21.1641C25.1133 25.1367 28.1719 22.1484 28.1719 18.3281C28.1719 14.4727 25.0547 11.5664 20.7891 11.5664C19.2305 8.47266 16.3711 6.58594 12.9023 6.58594C8.35547 6.58594 4.5 10.1133 4.08984 14.7891C1.74609 15.457 0.164062 17.4258 0.164062 19.9102C0.164062 22.8047 2.26172 25.1367 5.90625 25.1367ZM1.64062 13.6641C2.54297 13.6641 3.26953 12.9375 3.26953 12.0234C3.26953 11.1211 2.54297 10.3945 1.64062 10.3945C0.726562 10.3945 0 11.1211 0 12.0234C0 12.9375 0.726562 13.6641 1.64062 13.6641ZM18.8203 6.08203C19.6641 6.08203 20.3555 5.39062 20.3555 4.54688C20.3555 3.70312 19.6641 3 18.8203 3C17.9766 3 17.2852 3.70312 17.2852 4.54688C17.2852 5.39062 17.9766 6.08203 18.8203 6.08203ZM23.7539 10.1367C25.0195 10.1367 26.0391 9.11719 26.0391 7.82812C26.0391 6.55078 25.0195 5.53125 23.7539 5.53125C22.4648 5.53125 21.4336 6.55078 21.4336 7.82812C21.4336 9.11719 22.4648 10.1367 23.7539 10.1367Z" fill="black" fill-opacity="0.85"/>
<path d="M10.9805 21.2109C8.89453 21.2109 8.07422 19.4062 8.07422 17.3438C8.07422 15.2461 8.96484 13.5234 10.9453 13.5234C12.5273 13.5234 13.4883 14.6484 13.5352 15.8789C13.5469 16.3125 13.2891 16.5938 12.9023 16.5938C12.5391 16.5938 12.3516 16.3945 12.2461 15.9727C12.1172 15.3633 11.7891 14.7305 10.9688 14.7305C9.80859 14.7305 9.41016 16.043 9.41016 17.3438C9.41016 18.7266 9.79688 20.0039 10.9805 20.0039C11.8008 20.0039 12.1523 19.3594 12.2812 18.75C12.3867 18.3281 12.5742 18.1289 12.9375 18.1289C13.3242 18.1289 13.582 18.4219 13.5703 18.8438C13.5234 20.0742 12.5625 21.2109 10.9805 21.2109ZM16.9453 21.2109C15.1875 21.2109 14.0625 19.7109 14.0625 17.3672C14.0625 15.0117 15.1875 13.5234 16.9453 13.5234C18.7031 13.5234 19.8164 15.0117 19.8164 17.3672C19.8164 19.7109 18.7031 21.2109 16.9453 21.2109ZM16.9453 20.0039C17.8945 20.0039 18.4805 19.0312 18.4805 17.3672C18.4805 15.7031 17.8945 14.7305 16.9453 14.7305C15.9961 14.7305 15.3984 15.7031 15.3984 17.3672C15.3984 19.0312 15.9961 20.0039 16.9453 20.0039Z" fill="white"/>
</g>
<defs>
<clipPath id="clip0_2124_50195">
<rect width="28.1719" height="22.1602" fill="white" transform="translate(0 3)"/>
</clipPath>
</defs>
</svg>
