<svg width="28" height="28" viewBox="0 0 28 28" fill="none" xmlns="http://www.w3.org/2000/svg">
<g clip-path="url(#clip0_2124_67755)">
<path d="M13.9531 25.9062C20.4922 25.9062 25.9062 20.4805 25.9062 13.9531C25.9062 7.41406 20.4805 2 13.9414 2C7.41406 2 2 7.41406 2 13.9531C2 20.4805 7.42578 25.9062 13.9531 25.9062Z" fill="black" fill-opacity="0.85"/>
<path d="M13.9648 18.125C11.668 18.125 9.79297 16.25 9.79297 13.9531C9.79297 11.6563 11.668 9.78125 13.9648 9.78125C16.2617 9.78125 18.1367 11.6563 18.1367 13.9531C18.1367 16.25 16.2617 18.125 13.9648 18.125ZM13.9766 8.69141C13.4844 8.69141 13.1211 8.32812 13.1211 7.8125C13.1211 7.32031 13.4844 6.95703 13.9766 6.95703C14.4688 6.95703 14.832 7.32031 14.832 7.8125C14.832 8.32812 14.4688 8.69141 13.9766 8.69141ZM17.0586 9.5C16.5547 9.5 16.1914 9.13672 16.1914 8.63281C16.1914 8.14062 16.5547 7.77734 17.0586 7.77734C17.5508 7.77734 17.9141 8.14062 17.9141 8.63281C17.9141 9.13672 17.5508 9.5 17.0586 9.5ZM19.2969 11.75C18.793 11.75 18.4297 11.3867 18.4297 10.8828C18.4297 10.3906 18.793 10.0273 19.2969 10.0273C19.7891 10.0273 20.1523 10.3906 20.1523 10.8828C20.1523 11.3867 19.7891 11.75 19.2969 11.75ZM20.1172 14.8086C19.6133 14.8086 19.25 14.4453 19.25 13.9531C19.25 13.4609 19.6133 13.0977 20.1172 13.0977C20.6094 13.0977 20.9727 13.4609 20.9727 13.9531C20.9727 14.4453 20.6094 14.8086 20.1172 14.8086ZM19.2969 17.8789C18.793 17.8789 18.4297 17.5156 18.4297 17.0234C18.4297 16.5195 18.793 16.1562 19.2969 16.1562C19.7891 16.1562 20.1523 16.5195 20.1523 17.0234C20.1523 17.5156 19.7891 17.8789 19.2969 17.8789ZM17.0586 20.1289C16.5547 20.1289 16.1914 19.7656 16.1914 19.2617C16.1914 18.7578 16.5547 18.3945 17.0586 18.3945C17.5508 18.3945 17.9141 18.7578 17.9141 19.2617C17.9141 19.7656 17.5508 20.1289 17.0586 20.1289ZM13.9766 20.9375C13.4844 20.9375 13.1211 20.5742 13.1211 20.082C13.1211 19.5781 13.4844 19.2148 13.9766 19.2148C14.4688 19.2148 14.832 19.5781 14.832 20.082C14.832 20.5742 14.4688 20.9375 13.9766 20.9375ZM10.9062 20.1289C10.4141 20.1289 10.0508 19.7656 10.0508 19.2617C10.0508 18.7578 10.4141 18.3945 10.9062 18.3945C11.4102 18.3945 11.7734 18.7578 11.7734 19.2617C11.7734 19.7656 11.4102 20.1289 10.9062 20.1289ZM8.65625 17.8789C8.16406 17.8789 7.80078 17.5156 7.80078 17.0234C7.80078 16.5195 8.16406 16.1562 8.65625 16.1562C9.17188 16.1562 9.53516 16.5195 9.53516 17.0234C9.53516 17.5156 9.17188 17.8789 8.65625 17.8789ZM7.84766 14.8086C7.35547 14.8086 6.99219 14.4453 6.99219 13.9531C6.99219 13.4609 7.35547 13.0977 7.84766 13.0977C8.35156 13.0977 8.71484 13.4609 8.71484 13.9531C8.71484 14.4453 8.35156 14.8086 7.84766 14.8086ZM8.65625 11.75C8.16406 11.75 7.80078 11.3867 7.80078 10.8828C7.80078 10.3906 8.16406 10.0273 8.65625 10.0273C9.17188 10.0273 9.53516 10.3906 9.53516 10.8828C9.53516 11.3867 9.17188 11.75 8.65625 11.75ZM10.9062 9.5C10.4141 9.5 10.0508 9.13672 10.0508 8.63281C10.0508 8.14062 10.4141 7.77734 10.9062 7.77734C11.4102 7.77734 11.7734 8.14062 11.7734 8.63281C11.7734 9.13672 11.4102 9.5 10.9062 9.5Z" fill="white"/>
</g>
<defs>
<clipPath id="clip0_2124_67755">
<rect width="23.9062" height="23.918" fill="white" transform="translate(2 2)"/>
</clipPath>
</defs>
</svg>
