<svg width="28" height="28" viewBox="0 0 28 28" fill="none" xmlns="http://www.w3.org/2000/svg">
<path d="M13.9531 25.9062C20.4922 25.9062 25.9062 20.4805 25.9062 13.9531C25.9062 7.41406 20.4805 2 13.9414 2C7.41406 2 2 7.41406 2 13.9531C2 20.4805 7.42578 25.9062 13.9531 25.9062Z" fill="black" fill-opacity="0.85"/>
<path d="M9.98047 19.0859C7.56641 19.0859 6.85156 16.3906 6.85156 13.9531C6.85156 11.5156 7.56641 8.82031 9.98047 8.82031C12.3828 8.82031 13.1094 11.5156 13.1094 13.9531C13.1094 16.3906 12.3828 19.0859 9.98047 19.0859ZM9.98047 17.6445C10.9648 17.6445 11.3398 16.0508 11.3398 13.9531C11.3398 11.8438 10.9648 10.2617 9.98047 10.2617C8.99609 10.2617 8.62109 11.8438 8.62109 13.9531C8.62109 16.0508 8.99609 17.6445 9.98047 17.6445ZM17.7031 19.0859C15.2539 19.0859 14.5156 16.3555 14.5156 14.0703C14.5156 11.6211 15.2422 8.84375 17.7266 8.84375C18.9336 8.84375 19.9883 9.48828 20.2344 10.5313C20.2812 10.6836 20.3047 10.8359 20.3047 10.9648C20.3047 11.3633 20.082 11.6914 19.5898 11.6914C19.2031 11.6914 18.9805 11.5273 18.8047 11.1523C18.5938 10.6484 18.2305 10.2617 17.6914 10.2617C16.332 10.2617 16.1797 12.6875 16.1797 14.0234C16.1797 14.0586 16.1797 14.1055 16.1797 14.1523H16.2266C16.4961 13.1211 17.2461 12.4648 18.2188 12.4648C19.8125 12.4648 20.6094 14.0117 20.6094 15.6406C20.6094 17.5391 19.5547 19.0859 17.7031 19.0859ZM17.6797 17.668C18.5117 17.668 18.9102 16.6016 18.9102 15.7227C18.9336 14.832 18.5703 13.7891 17.6797 13.7891C16.8125 13.7891 16.4141 14.7852 16.4141 15.6758C16.4141 16.5312 16.7656 17.668 17.6797 17.668Z" fill="white"/>
</svg>
