<svg width="28" height="28" viewBox="0 0 28 28" fill="none" xmlns="http://www.w3.org/2000/svg">
<path d="M3 21.7344C3 22.25 3.42188 22.6836 3.9375 22.6836C4.46484 22.6836 4.88672 22.25 4.88672 21.7344V5.96094C4.88672 5.44531 4.46484 5.02344 3.9375 5.02344C3.42188 5.02344 3 5.44531 3 5.96094V21.7344ZM22.6875 21.7344C22.6875 22.25 23.1211 22.6836 23.6367 22.6836C24.1523 22.6836 24.5742 22.25 24.5742 21.7344V5.96094C24.5742 5.44531 24.1523 5.02344 23.6367 5.02344C23.1211 5.02344 22.6875 5.44531 22.6875 5.96094V21.7344Z" fill="black" fill-opacity="0.85"/>
<path d="M13.7812 18.7109C15.457 18.7109 16.9336 17.8086 16.9336 16.1094C16.9336 14.9375 16.1719 14.0586 15.1055 13.8359V13.8125C16.0078 13.543 16.6523 12.7812 16.6523 11.8203C16.6523 10.332 15.3867 9.41797 13.7812 9.41797C12.2109 9.41797 10.9102 10.332 10.9102 11.8203C10.9102 12.793 11.5664 13.543 12.4805 13.8125V13.8359C11.4375 14.0469 10.6406 14.9375 10.6406 16.1094C10.6406 17.7617 12.0703 18.7109 13.7812 18.7109ZM13.7812 13.2969C13.0195 13.2969 12.5273 12.7344 12.5273 11.9727C12.5273 11.1992 13.0195 10.625 13.793 10.625C14.6133 10.625 15.0586 11.2344 15.0586 11.9727C15.0586 12.7344 14.5547 13.2969 13.7812 13.2969ZM13.7812 17.5039C12.9023 17.5039 12.3398 16.8477 12.3398 15.9922C12.3398 15.1484 12.9023 14.5156 13.7812 14.5156C14.6719 14.5156 15.2344 15.125 15.2344 15.9922C15.2344 16.8594 14.6719 17.5039 13.7812 17.5039Z" fill="black" fill-opacity="0.85"/>
</svg>
