<svg width="42" height="28" viewBox="0 0 42 28" fill="none" xmlns="http://www.w3.org/2000/svg">
<path d="M15.7148 14.0234C14.0742 14.0234 12.9492 13.4492 11.9414 12.125L8.78906 7.96484C8.13281 7.10938 7.64062 6.88672 6.33984 6.88672H3.45703C2.94141 6.88672 2.51953 6.45312 2.51953 5.9375C2.51953 5.42188 2.94141 5 3.45703 5H6.33984C8.12109 5 9.28125 5.51562 10.2656 6.81641L13.4414 10.9531C14.168 11.8906 14.6133 12.1367 15.7148 12.1367H18.2812V11.1406C18.2812 10.3086 19.0078 10.0625 19.6289 10.4727L22.5586 12.3594C23.1445 12.7344 23.1328 13.4375 22.5703 13.8008L19.6172 15.6992C19.0078 16.0977 18.2812 15.8516 18.2812 15.0312V14.0234H15.7148ZM3.05859 21.5352H4.88672C4.81641 21.1836 4.75781 20.8203 4.75781 20.4336C4.75781 17.9141 6.75 15.9336 9.25781 15.9336C11.7773 15.9336 13.7578 17.9141 13.7578 20.4336C13.7578 20.8203 13.7109 21.1836 13.6289 21.5352H28.5586C28.4883 21.1836 28.4297 20.8203 28.4297 20.4336C28.4297 17.9141 30.4219 15.9336 32.9297 15.9336C35.4492 15.9336 37.4297 17.9141 37.4297 20.4336C37.4297 20.8203 37.3828 21.1836 37.3008 21.5352H38.8477C40.5352 21.5352 41.5664 20.4688 41.5664 18.7344V14.0234C41.5664 12.3828 41.0742 10.9883 38.8945 10.3086L36.4805 9.57031C34.957 7.75391 32.2969 5.16406 27.457 5.16406H24.7031C19.875 5.16406 17.9531 5.63281 15.0703 7.4375L10.3477 10.4023L5.14453 11.0352C1.91016 11.4336 0 13.2969 0 16.0859V18.4062C0 20.3984 1.11328 21.5352 3.05859 21.5352ZM9.25781 23.5625C11.0156 23.5625 12.3984 22.1797 12.3984 20.4336C12.3984 18.6875 11.0039 17.293 9.25781 17.293C7.52344 17.293 6.12891 18.6875 6.12891 20.4336C6.12891 22.168 7.52344 23.5625 9.25781 23.5625ZM32.9297 23.5625C34.6758 23.5625 36.0703 22.168 36.0703 20.4336C36.0703 18.6875 34.6758 17.293 32.9297 17.293C31.207 17.293 29.8008 18.6992 29.8008 20.4336C29.8008 22.168 31.1953 23.5625 32.9297 23.5625Z" fill="black" fill-opacity="0.85"/>
</svg>
