<svg width="28" height="28" viewBox="0 0 28 28" fill="none" xmlns="http://www.w3.org/2000/svg">
<g clip-path="url(#clip0_2124_62619)">
<path d="M13.9414 25.8956C20.4805 25.8956 25.8945 20.4698 25.8945 13.9424C25.8945 7.40338 20.5508 2.15338 14.2344 2.00104C13.5547 1.9776 13.0391 2.3526 13.0391 2.95026C13.0391 3.48932 13.4141 3.94635 14.0938 3.96979C19.5898 4.14557 23.8906 8.41119 23.9023 13.9424C23.9141 19.4737 19.4727 23.9034 13.9414 23.9034C8.17578 23.9034 3.99219 19.2393 3.99219 13.9073C3.99219 13.2276 3.51172 12.8526 2.97266 12.8526C2.375 12.8526 2 13.3565 2 14.0479C2.01172 20.4464 7.41406 25.8956 13.9414 25.8956Z" fill="black" fill-opacity="0.85"/>
<path d="M13.0859 14.3879C13.6836 14.3879 14.1172 13.9425 14.1172 13.3566C14.1172 13.0871 14 12.8058 13.7891 12.5949L7.67188 6.48938L5.42188 4.48547C6.72266 4.64954 8.36328 4.63782 8.9375 4.63782C9.46484 4.63782 9.88672 4.20422 9.88672 3.67688C9.88672 3.14954 9.46484 2.72766 8.9375 2.72766H3.67578C2.90234 2.72766 2.48047 3.13782 2.48047 3.91125V9.17297C2.48047 9.70032 2.91406 10.1222 3.42969 10.1222C3.94531 10.1222 4.36719 9.70032 4.36719 9.17297C4.36719 8.62219 4.36719 6.86438 4.25 5.65735L6.23047 7.91907L12.3477 14.048C12.5703 14.2707 12.8164 14.3879 13.0859 14.3879Z" fill="black" fill-opacity="0.85"/>
</g>
<defs>
<clipPath id="clip0_2124_62619">
<rect width="23.8945" height="23.8966" fill="white" transform="translate(2 2)"/>
</clipPath>
</defs>
</svg>
