<svg width="28" height="28" viewBox="0 0 28 28" fill="none" xmlns="http://www.w3.org/2000/svg">
<path d="M0 12.5786C0 13.6802 0.679688 14.3716 1.79297 14.3716H25.6406C26.7539 14.3716 27.4453 13.6802 27.4453 12.5786V10.8794C27.4453 9.77783 26.7539 9.07471 25.6406 9.07471H1.79297C0.679688 9.07471 0 9.77783 0 10.8794V12.5786ZM2.25 10.938H25.1836C25.4414 10.938 25.5938 11.0903 25.5938 11.3481V12.0981C25.5938 12.356 25.4414 12.52 25.1836 12.52H2.25C1.99219 12.52 1.85156 12.356 1.85156 12.0981V11.3481C1.85156 11.0903 1.99219 10.938 2.25 10.938ZM7.45312 26.1138H19.9922C22.6992 26.1138 23.5312 24.5317 23.8828 22.8325L25.7461 13.9028L23.9062 13.5864L22.1602 22.1177C21.8438 23.6177 21.375 24.2388 19.6641 24.2388H7.78125C6.07031 24.2388 5.60156 23.6177 5.28516 22.1177L3.53906 13.5864L1.69922 13.9028L3.5625 22.8325C3.91406 24.5317 4.74609 26.1138 7.45312 26.1138ZM8.73047 22.9614C9.16406 22.8911 9.39844 22.5747 9.33984 22.1997L8.36719 16.0708C8.29688 15.6841 7.96875 15.4731 7.54688 15.5317C7.11328 15.6138 6.86719 15.9185 6.9375 16.2935L7.91016 22.4224C7.98047 22.8091 8.29688 23.0317 8.73047 22.9614ZM12.0938 22.8911C12.5156 22.8677 12.7969 22.5864 12.7734 22.1997L12.3984 16.1294C12.3633 15.731 12.0703 15.4614 11.6367 15.4966C11.2148 15.5317 10.9336 15.813 10.957 16.2114L11.332 22.27C11.3555 22.6685 11.6719 22.9263 12.0938 22.8911ZM15.3633 22.8911C15.7852 22.9263 16.1016 22.6685 16.125 22.27L16.5 16.2114C16.5234 15.813 16.2422 15.5317 15.8203 15.4966C15.3867 15.4614 15.0938 15.731 15.0586 16.1294L14.6836 22.1997C14.6602 22.5864 14.9414 22.8677 15.3633 22.8911ZM18.7148 22.9614C19.1367 23.0317 19.4648 22.8091 19.5352 22.4224L20.5195 16.2935C20.5781 15.9185 20.332 15.6138 19.8984 15.5317C19.4766 15.4731 19.1484 15.6841 19.0781 16.0708L18.1055 22.1997C18.0469 22.5747 18.2812 22.8911 18.7148 22.9614ZM3.78516 9.55517H6.14062L10.2422 2.41846C10.5586 1.85596 10.3008 1.36377 9.86719 1.12939C9.44531 0.906737 8.88281 0.941893 8.56641 1.46924L3.78516 9.55517ZM21.3047 9.55517H23.6602L18.8789 1.46924C18.5742 0.953612 18.0117 0.918456 17.5781 1.12939C17.1562 1.36377 16.8867 1.85596 17.2031 2.41846L21.3047 9.55517Z" fill="black" fill-opacity="0.85"/>
</svg>
