<svg width="28" height="28" viewBox="0 0 28 28" fill="none" xmlns="http://www.w3.org/2000/svg">
<path d="M6.67969 24.5977H20.8945C23.3555 24.5977 24.5742 23.3789 24.5742 20.9648V6.65625C24.5742 4.24219 23.3555 3.02344 20.8945 3.02344H6.67969C4.23047 3.02344 3 4.23047 3 6.65625V20.9648C3 23.3906 4.23047 24.5977 6.67969 24.5977ZM6.70312 22.7109C5.53125 22.7109 4.88672 22.0898 4.88672 20.8711V6.75C4.88672 5.53125 5.53125 4.91016 6.70312 4.91016H20.8711C22.0312 4.91016 22.6875 5.53125 22.6875 6.75V20.8711C22.6875 22.0898 22.0312 22.7109 20.8711 22.7109H6.70312Z" fill="black" fill-opacity="0.85"/>
<path d="M13.7227 19.3711C16.1016 19.3711 17.7422 17.8828 17.7422 15.6211C17.7422 13.5469 16.2422 12.1055 14.1094 12.1055C13.1484 12.1055 12.1641 12.5273 11.7422 13.1133H11.6602L11.9414 9.92578H16.6172C17.0156 9.92578 17.3086 9.62109 17.3086 9.19922C17.3086 8.77734 17.0273 8.48438 16.6172 8.48438H11.7656C11.0039 8.48438 10.5 8.90625 10.4531 9.58594L10.1367 13.4883C10.0781 14.1562 10.4766 14.6016 11.1211 14.6016C11.5547 14.6016 11.8242 14.5078 12.2813 14.1562C12.8438 13.6758 13.2891 13.5 13.8867 13.5C15.1289 13.5 15.9609 14.3672 15.9609 15.6562C15.9609 16.9453 14.9883 17.9062 13.6875 17.9062C12.7266 17.9062 11.9063 17.4258 11.5195 16.6523C11.3086 16.2773 11.0273 16.0898 10.6875 16.0898C10.2188 16.0898 9.90234 16.418 9.90234 16.8633C9.90234 17.0625 9.94922 17.25 10.0313 17.4258C10.4883 18.6211 11.8477 19.3711 13.7227 19.3711Z" fill="black" fill-opacity="0.85"/>
</svg>
