<svg width="35" height="29" viewBox="0 0 35 29" fill="none" xmlns="http://www.w3.org/2000/svg">
<g clip-path="url(#clip0_2124_45958)">
<path d="M31.356 8.68189C33.1139 8.68189 34.5201 7.21704 34.5201 5.51783C34.5201 3.7483 33.1139 2.3186 31.356 2.3186C29.5865 2.3186 28.1685 3.7483 28.1685 5.51783C28.1685 7.26392 29.5865 8.68189 31.356 8.68189ZM12.4771 25.4514C13.0865 26.0842 14.1295 26.0373 14.8678 25.2639L19.9185 20.0608C20.0826 19.885 20.1998 19.8381 20.4576 19.9436L24.3951 21.4319C26.9264 22.4045 29.3053 21.5725 30.4185 19.5569L32.9498 14.9514C33.9342 13.1584 33.6178 11.3069 31.9185 10.3928C30.2545 9.49048 28.5435 10.1702 27.5475 12.01L24.2545 17.9983L21.4654 16.9787C20.0709 16.4748 18.9225 16.6389 17.8209 17.7873L12.5826 23.2014C11.856 23.9514 11.9264 24.8889 12.4771 25.4514Z" fill="black" fill-opacity="0.85"/>
<path d="M0.206718 6.09204L3.39422 10.1584C3.53485 10.3459 3.7575 10.3811 3.95672 10.2639C4.71844 9.86548 5.80828 9.59595 6.66375 9.59595C7.53094 9.59595 8.62078 9.86548 9.35907 10.2639C9.58172 10.3811 9.80438 10.3459 9.93328 10.1584L13.1325 6.09204C13.4489 5.68189 13.3903 5.27173 13.0153 4.96704C11.7145 3.97095 9.2536 3.20923 6.66375 3.20923C4.08563 3.20923 1.62469 3.97095 0.335625 4.96704C-0.0628128 5.27173 -0.0979688 5.68189 0.206718 6.09204ZM3.51141 12.5373C3.14813 12.0569 2.99578 11.6116 2.99578 11.1311C2.99578 10.0295 3.88641 9.7483 3.88641 9.10376C3.88641 8.44751 2.99578 8.17798 2.99578 7.04126C2.99578 6.57251 3.14813 6.1272 3.51141 5.65845C3.92157 5.16626 4.65985 5.69361 4.26141 6.20923C4.0036 6.57251 3.93328 6.77173 3.93328 7.04126C3.93328 7.83814 4.81219 8.0608 4.81219 9.10376C4.81219 10.135 3.93328 10.3694 3.93328 11.1311C3.93328 11.4358 4.0036 11.6116 4.26141 11.9866C4.64813 12.4905 3.92157 13.0295 3.51141 12.5373ZM6.26532 12.5373C5.92547 12.0569 5.76141 11.6116 5.76141 11.1311C5.76141 10.0295 6.65203 9.7483 6.65203 9.10376C6.65203 8.44751 5.76141 8.17798 5.76141 7.04126C5.76141 6.57251 5.91375 6.1272 6.26532 5.65845C6.67547 5.16626 7.42547 5.69361 7.03875 6.20923C6.76922 6.57251 6.69891 6.77173 6.69891 7.04126C6.69891 7.83814 7.58953 8.0608 7.58953 9.10376C7.58953 10.135 6.69891 10.3694 6.69891 11.1311C6.69891 11.4358 6.76922 11.6116 7.02703 11.9866C7.41375 12.4905 6.67547 13.0295 6.26532 12.5373ZM9.05438 12.5373C8.6911 12.0569 8.52703 11.6116 8.52703 11.1311C8.52703 10.0295 9.42938 9.7483 9.42938 9.10376C9.42938 8.44751 8.52703 8.17798 8.52703 7.04126C8.52703 6.57251 8.67938 6.1272 9.0661 5.65845C9.46453 5.16626 10.1911 5.69361 9.80438 6.20923C9.54657 6.57251 9.46453 6.77173 9.46453 7.04126C9.46453 7.83814 10.3551 8.0608 10.3551 9.10376C10.3551 10.135 9.46453 10.3694 9.46453 11.1311C9.46453 11.4358 9.54657 11.6116 9.79266 11.9866C10.1911 12.4905 9.45282 13.0295 9.05438 12.5373ZM19.2497 2.01392C18.7809 2.01392 18.3942 2.38892 18.3942 2.8811V7.4397H16.4958C15.6169 7.4397 15.3122 8.31861 15.8512 8.91626L18.6286 12.0569C19.0036 12.4787 19.5075 12.4787 19.8942 12.0569L22.6716 8.91626C23.2341 8.29517 22.8591 7.4397 22.027 7.4397H20.1169V2.8811C20.1169 2.38892 19.7419 2.01392 19.2497 2.01392Z" fill="black" fill-opacity="0.85"/>
</g>
<defs>
<clipPath id="clip0_2124_45958">
<rect width="34.5153" height="24.3867" fill="white" transform="translate(0.00390625 2.01392)"/>
</clipPath>
</defs>
</svg>
