<svg width="28" height="28" viewBox="0 0 28 28" fill="none" xmlns="http://www.w3.org/2000/svg">
<path d="M6.67969 24.5977H20.8945C23.3555 24.5977 24.5742 23.3789 24.5742 20.9648V6.65625C24.5742 4.24219 23.3555 3.02344 20.8945 3.02344H6.67969C4.23047 3.02344 3 4.23047 3 6.65625V20.9648C3 23.3906 4.23047 24.5977 6.67969 24.5977ZM6.70312 22.7109C5.53125 22.7109 4.88672 22.0898 4.88672 20.8711V6.75C4.88672 5.53125 5.53125 4.91016 6.70312 4.91016H20.8711C22.0312 4.91016 22.6875 5.53125 22.6875 6.75V20.8711C22.6875 22.0898 22.0312 22.7109 20.8711 22.7109H6.70312Z" fill="black" fill-opacity="0.85"/>
<path d="M14.4023 19.3711C15 19.3711 15.3516 18.9727 15.3516 18.3164V9.26953C15.3516 8.58984 14.9883 8.21484 14.3555 8.21484C13.9219 8.21484 13.6172 8.33203 13.1133 8.67188L11.0039 10.1016C10.7461 10.2773 10.6406 10.4648 10.6406 10.7578C10.6406 11.1211 10.9336 11.4609 11.3086 11.4609C11.4844 11.4609 11.6133 11.4258 11.8828 11.25L13.3945 10.2539H13.4766V18.3164C13.4766 18.9727 13.8164 19.3711 14.4023 19.3711Z" fill="black" fill-opacity="0.85"/>
</svg>
