<svg width="28" height="28" viewBox="0 0 28 28" fill="none" xmlns="http://www.w3.org/2000/svg">
<path d="M13.9531 25.9414C20.4922 25.9414 25.9062 20.5273 25.9062 13.9883C25.9062 7.46094 20.4805 2.03516 13.9414 2.03516C7.41406 2.03516 2 7.46094 2 13.9883C2 20.5273 7.42578 25.9414 13.9531 25.9414Z" fill="black" fill-opacity="0.85"/>
<path d="M8.66797 20.6445C8.38672 20.6445 8.12891 20.3867 8.12891 20.1055C8.12891 19.8242 8.38672 19.6133 8.66797 19.6133H8.89062V8.42188C8.89062 7.42578 9.44141 6.88672 10.4258 6.88672H15.7812C16.7773 6.88672 17.3164 7.42578 17.3164 8.42188V17.0703H19.0508C19.4492 17.0703 19.6719 16.8711 19.6719 16.4609V13.2148L18.6758 12.0547C18.3242 11.6445 18.3008 11.3047 18.6172 10.8711L19.5195 9.60547L18.6406 8.21094C18.3242 7.67188 19.1094 7.17969 19.4492 7.71875L20.293 9.08984C20.4805 9.41797 20.6094 9.74609 20.6094 10.1562V16.4727C20.6094 17.4805 20.082 18.0078 19.0508 18.0078H17.3164V19.6133H17.5273C17.8438 19.6133 18.0781 19.8242 18.0781 20.1055C18.0781 20.3867 17.8438 20.6445 17.5273 20.6445H8.66797ZM10.4492 12.9688C10.4492 13.3438 10.707 13.5898 11.1172 13.5898H15.1016C15.5117 13.5898 15.7695 13.3438 15.7695 12.9688V9.07812C15.7695 8.70312 15.5117 8.46875 15.1016 8.46875H11.1172C10.707 8.46875 10.4492 8.70312 10.4492 9.07812V12.9688Z" fill="white"/>
</svg>
