<svg width="28" height="32" viewBox="0 0 28 32" fill="none" xmlns="http://www.w3.org/2000/svg">
<path d="M22.7891 18.1002C22.7891 13.2135 20.8672 6.44006 16.0508 1.38928C15.0195 0.311151 13.4844 -0.42713 11.6914 0.275995L10.5547 0.721307C8.43359 1.55334 7.82422 3.00646 8.69141 5.01037C10.543 9.19396 11 12.2291 11 14.8424C11 15.9088 10.4609 16.5533 9.34766 16.5533H6.46484C5.62109 16.5533 5 17.1979 5 18.0885V20.901C5 21.6979 5.53906 22.3072 6.27734 22.3072H8.45703C9.20703 22.3072 9.64062 22.694 9.64062 23.3268C9.64062 23.8658 9.34766 24.4987 9.34766 25.319C9.34766 27.1471 10.3438 28.483 12.4297 29.4908L14.7617 30.6158C16.7656 31.5885 18.7109 31.0377 19.8477 29.1862C21.9102 25.7994 22.7891 22.4127 22.7891 18.1002ZM20.9023 18.1002C20.9023 22.1783 20.1523 25.0494 18.2422 28.2018C17.6094 29.2096 16.5547 29.4908 15.418 28.9283L13.3203 27.8619C11.6094 27.0065 11.1289 26.3385 11.1289 24.9908C11.1289 23.444 12.9102 19.4596 12.9102 14.1744C12.9102 12.2526 12.5 8.86584 10.4375 4.26037C10.0625 3.44006 10.2734 2.83068 11.0938 2.52599L12.2539 2.08068C13.4492 1.63537 13.9414 1.91662 14.6328 2.60803C19.25 7.44787 20.9023 13.6237 20.9023 18.1002Z" fill="black" fill-opacity="0.85"/>
</svg>
