<svg width="28" height="28" viewBox="0 0 28 28" fill="none" xmlns="http://www.w3.org/2000/svg">
<path d="M14.2422 25.0742C14.5234 25.0742 14.793 24.9688 15.0273 24.7344L21.1562 18.4766C21.3555 18.2773 21.4727 17.9609 21.4727 17.7148C21.4727 17.082 21.0508 16.6719 20.4414 16.6719C20.1484 16.6719 19.9141 16.7773 19.7266 16.9648L17.0664 19.707L15.168 21.8984L15.2852 19.1797V7.89453L15.168 5.17578L17.0664 7.36719L19.7266 10.1094C19.9141 10.2969 20.1484 10.4023 20.4414 10.4023C21.0508 10.4023 21.4727 9.99219 21.4727 9.35938C21.4727 9.11328 21.3555 8.79688 21.1562 8.59766L15.0273 2.33984C14.793 2.10547 14.5234 2 14.2422 2C13.9492 2 13.6797 2.10547 13.457 2.33984L7.32812 8.59766C7.12891 8.79688 7 9.11328 7 9.35938C7 9.99219 7.42188 10.4023 8.03125 10.4023C8.33594 10.4023 8.57031 10.2969 8.74609 10.1094L11.418 7.36719L13.3047 5.17578L13.1992 7.89453V19.1797L13.3047 21.8984L11.418 19.707L8.74609 16.9648C8.57031 16.7773 8.33594 16.6719 8.03125 16.6719C7.42188 16.6719 7 17.082 7 17.7148C7 17.9609 7.12891 18.2773 7.32812 18.4766L13.457 24.7344C13.6797 24.9688 13.9492 25.0742 14.2422 25.0742Z" fill="black" fill-opacity="0.85"/>
</svg>
