<svg width="28" height="28" viewBox="0 0 28 28" fill="none" xmlns="http://www.w3.org/2000/svg">
<path d="M13.9531 25.9062C20.4922 25.9062 25.9062 20.4805 25.9062 13.9531C25.9062 7.41406 20.4805 2 13.9414 2C7.41406 2 2 7.41406 2 13.9531C2 20.4805 7.42578 25.9062 13.9531 25.9062ZM13.9531 23.9141C8.42188 23.9141 4.00391 19.4844 4.00391 13.9531C4.00391 8.42188 8.41016 3.99219 13.9414 3.99219C19.4727 3.99219 23.9141 8.42188 23.9141 13.9531C23.9141 19.4844 19.4844 23.9141 13.9531 23.9141Z" fill="black" fill-opacity="0.85"/>
<path d="M10.0859 18.9336C12.418 18.9336 13.1211 16.3086 13.1211 13.9531C13.1211 11.5977 12.418 8.97266 10.0859 8.97266C7.74219 8.97266 7.05078 11.5977 7.05078 13.9531C7.05078 16.3086 7.74219 18.9336 10.0859 18.9336ZM10.0859 17.5391C9.125 17.5391 8.76172 15.9805 8.76172 13.9531C8.76172 11.9141 9.125 10.3555 10.0859 10.3555C11.0469 10.3555 11.4102 11.9141 11.4102 13.9531C11.4102 15.9805 11.0469 17.5391 10.0859 17.5391ZM17.5625 18.9336C19.3555 18.9336 20.3867 17.4336 20.3867 15.5938C20.3867 14.0117 19.6133 12.5117 18.0664 12.5117C17.1172 12.5117 16.3906 13.1445 16.1328 14.1523H16.0859C16.0859 14.1055 16.0859 14.0586 16.0859 14.0234C16.0859 12.7227 16.2383 10.3672 17.5508 10.3672C18.0781 10.3672 18.4297 10.7422 18.6406 11.2344C18.8047 11.5977 19.0273 11.7617 19.4023 11.7617C19.8711 11.7617 20.082 11.4453 20.082 11.0586C20.082 10.9297 20.0586 10.7891 20.0234 10.6367C19.7773 9.62891 18.7578 8.99609 17.5859 8.99609C15.1836 8.99609 14.4805 11.6914 14.4805 14.0703C14.4805 16.2852 15.1953 18.9336 17.5625 18.9336ZM17.5391 17.5625C16.6602 17.5625 16.3086 16.4609 16.3086 15.6172C16.3086 14.7617 16.6953 13.7891 17.5391 13.7891C18.4062 13.7891 18.7695 14.7969 18.7461 15.6641C18.7461 16.5195 18.3594 17.5625 17.5391 17.5625Z" fill="black" fill-opacity="0.85"/>
</svg>
