<svg width="28" height="28" viewBox="0 0 28 28" fill="none" xmlns="http://www.w3.org/2000/svg">
<g clip-path="url(#clip0_2124_24603)">
<path d="M6 22.332C6 24.1602 7.27734 25.3789 9.1875 25.3789H18.6094C20.5195 25.3789 21.8086 24.1602 21.8086 22.332V5.04688C21.8086 3.21875 20.5195 2 18.6094 2H9.1875C7.27734 2 6 3.21875 6 5.04688V22.332ZM7.88672 10.9297V5.35156C7.88672 4.41406 8.4375 3.88672 9.43359 3.88672H18.375C19.3594 3.88672 19.9219 4.41406 19.9219 5.35156V10.9297C19.9219 11.8789 19.3594 12.4062 18.375 12.4062H9.43359C8.4375 12.4062 7.88672 11.8789 7.88672 10.9297ZM13.9102 23.0234C11.4727 23.0234 9.48047 21.0547 9.48047 18.6172C9.48047 16.168 11.4727 14.1992 13.9102 14.1992C16.3359 14.1992 18.3281 16.168 18.3281 18.6172C18.3281 21.0547 16.3359 23.0234 13.9102 23.0234ZM13.9102 21.3711C12.375 21.3711 11.1328 20.1289 11.1328 18.6172C11.1328 17.0938 12.375 15.8516 13.9102 15.8516C15.4336 15.8516 16.6641 17.0938 16.6641 18.6172C16.6641 20.1289 15.4336 21.3711 13.9102 21.3711Z" fill="black" fill-opacity="0.85"/>
</g>
<defs>
<clipPath id="clip0_2124_24603">
<rect width="15.8086" height="23.3789" fill="white" transform="translate(6 2)"/>
</clipPath>
</defs>
</svg>
