<svg width="28" height="28" viewBox="0 0 28 28" fill="none" xmlns="http://www.w3.org/2000/svg">
<g clip-path="url(#clip0_2124_24880)">
<path d="M8.99219 20.6875C8.99219 23.9336 11.0078 25.9961 14.1719 25.9961C16.5156 25.9961 18.2734 24.9531 19.3867 22.9609L20.4414 21.0742C22.9141 16.5625 26.9922 15.9648 26.9922 10.1641C26.9922 4.66797 23.4414 1 18.1211 1C12.6719 1 8.99219 4.69141 8.99219 10.1992V20.6875ZM10.7617 20.5703V10.1992C10.7617 5.73438 13.7148 2.76953 18.1211 2.76953C22.3867 2.76953 25.2227 5.73438 25.2227 10.1641C25.2227 15.0156 21.4141 15.8594 18.8594 20.2891L17.8398 22.0234C17.0078 23.4766 15.8477 24.1797 14.2539 24.1797C12.0742 24.1797 10.7617 22.8086 10.7617 20.5703ZM12.6016 17.2891C12.6016 18.5078 13.5156 19.3047 14.8867 19.3047C16.6562 19.293 17.8633 17.793 17.8633 15.918C17.8633 12.543 14.3711 11.9688 14.3711 9.58984C14.3711 7.75 15.8711 6.40234 18.1094 6.40234C20.3828 6.40234 21.8477 7.86719 21.8477 10.1406C21.8477 10.6211 22.2578 11.0195 22.7383 11.0195C23.2188 11.0195 23.6172 10.6211 23.6172 10.1406C23.6172 6.83594 21.4141 4.63281 18.1094 4.63281C14.8164 4.63281 12.6016 6.69531 12.6016 9.58984C12.6016 12.1328 15.0039 12.9648 15.0039 14.1133C15.0039 15.3672 12.6016 15.0977 12.6016 17.2891Z" fill="black" fill-opacity="0.85"/>
<path d="M2.96875 6.30859C4.04688 6.30859 4.92578 5.42969 4.92578 4.35156C4.92578 3.26172 4.04688 2.38281 2.96875 2.38281C1.87891 2.38281 1 3.26172 1 4.35156C1 5.42969 1.87891 6.30859 2.96875 6.30859Z" fill="black" fill-opacity="0.85"/>
<path d="M2.96875 12.4023C4.04688 12.4023 4.92578 11.5234 4.92578 10.4453C4.92578 9.35547 4.04688 8.47656 2.96875 8.47656C1.87891 8.47656 1 9.35547 1 10.4453C1 11.5234 1.87891 12.4023 2.96875 12.4023Z" fill="black" fill-opacity="0.85"/>
<path d="M2.96875 18.5195C4.04688 18.5195 4.92578 17.6406 4.92578 16.5625C4.92578 15.4727 4.04688 14.5938 2.96875 14.5938C1.87891 14.5938 1 15.4727 1 16.5625C1 17.6406 1.87891 18.5195 2.96875 18.5195Z" fill="black" fill-opacity="0.85"/>
<path d="M2.96875 24.6133C4.04688 24.6133 4.92578 23.7344 4.92578 22.6562C4.92578 21.5664 4.04688 20.6875 2.96875 20.6875C1.87891 20.6875 1 21.5664 1 22.6562C1 23.7344 1.87891 24.6133 2.96875 24.6133Z" fill="black" fill-opacity="0.85"/>
</g>
<defs>
<clipPath id="clip0_2124_24880">
<rect width="25.9922" height="25.0195" fill="white" transform="translate(1 1)"/>
</clipPath>
</defs>
</svg>
