<svg width="28" height="28" viewBox="0 0 28 28" fill="none" xmlns="http://www.w3.org/2000/svg">
<path d="M13.9531 25.9062C20.4922 25.9062 25.9062 20.4805 25.9062 13.9531C25.9062 7.41406 20.4805 2 13.9414 2C7.41406 2 2 7.41406 2 13.9531C2 20.4805 7.42578 25.9062 13.9531 25.9062Z" fill="black" fill-opacity="0.85"/>
<path d="M7.75391 13.9414C7.75391 13.6719 7.84766 13.4844 8.09375 13.2383L12.1719 9.13672C12.3359 8.97266 12.5469 8.89062 12.8047 8.89062C13.3086 8.89062 13.6836 9.26562 13.6836 9.76953C13.6836 10.0273 13.5664 10.25 13.4141 10.4258L11.9141 11.9141L10.4609 13.1328L13.0156 13.0273H19.2852C19.8125 13.0273 20.1992 13.4023 20.1992 13.9414C20.1992 14.4688 19.8242 14.8438 19.2852 14.8438H13.0156L10.4492 14.75L11.9141 15.9688L13.4141 17.457C13.5781 17.6211 13.6836 17.8438 13.6836 18.1016C13.6836 18.6055 13.3086 18.9922 12.8047 18.9922C12.5469 18.9922 12.3359 18.8984 12.1719 18.7344L8.09375 14.6445C7.87109 14.4219 7.75391 14.2109 7.75391 13.9414Z" fill="white"/>
</svg>
