<svg width="28" height="28" viewBox="0 0 28 28" fill="none" xmlns="http://www.w3.org/2000/svg">
<g clip-path="url(#clip0_2124_89370)">
<path d="M13.9531 25.9062C20.4922 25.9062 25.9062 20.4805 25.9062 13.9531C25.9062 7.41406 20.4805 2 13.9414 2C7.41406 2 2 7.41406 2 13.9531C2 20.4805 7.42578 25.9062 13.9531 25.9062ZM13.9531 23.9141C8.42188 23.9141 4.00391 19.4844 4.00391 13.9531C4.00391 8.42188 8.41016 3.99219 13.9414 3.99219C19.4727 3.99219 23.9141 8.42188 23.9141 13.9531C23.9141 19.4844 19.4844 23.9141 13.9531 23.9141Z" fill="black" fill-opacity="0.85"/>
<path d="M11.4687 21.6289C12.0195 21.6289 12.3711 21.3242 12.3594 20.7852L12.2305 13.3555C12.2305 13.1211 12.3242 12.9453 12.5352 12.8516C13.4023 12.4766 13.8008 12.0781 13.7305 10.9063L13.543 6.85156C13.5312 6.55859 13.3672 6.38281 13.0977 6.38281C12.8398 6.38281 12.6758 6.57031 12.6758 6.86328L12.7344 10.8242C12.7344 11.0469 12.5703 11.1992 12.3594 11.1992C12.125 11.1992 11.9609 11.0469 11.9609 10.8359L11.914 6.75781C11.914 6.46484 11.7265 6.30078 11.4687 6.30078C11.1992 6.30078 11.0234 6.46484 11.0234 6.75781L10.9531 10.8359C10.9531 11.0469 10.8008 11.1992 10.5781 11.1992C10.3672 11.1992 10.2031 11.0469 10.2031 10.8242L10.2617 6.86328C10.2617 6.57031 10.0976 6.38281 9.83983 6.38281C9.5703 6.38281 9.39452 6.55859 9.3828 6.85156L9.20702 10.9063C9.16015 12.0781 9.53515 12.4766 10.414 12.8516C10.6133 12.9453 10.707 13.1211 10.707 13.3555L10.5781 20.7852C10.5664 21.3242 10.918 21.6289 11.4687 21.6289ZM16.0625 16.0039L15.9102 20.75C15.8867 21.3242 16.25 21.6289 16.7891 21.6289C17.3633 21.6289 17.7031 21.3477 17.7031 20.8203V6.79297C17.7031 6.45312 17.457 6.30078 17.2344 6.30078C16.9766 6.30078 16.8125 6.44141 16.6016 6.74609C15.5352 8.23438 14.832 11.0352 14.832 13.6719V14.1172C14.832 14.5859 15.0078 14.9023 15.3359 15.1367L15.7227 15.4062C15.957 15.5703 16.0625 15.7461 16.0625 16.0039Z" fill="black" fill-opacity="0.85"/>
</g>
<defs>
<clipPath id="clip0_2124_89370">
<rect width="23.9062" height="23.918" fill="white" transform="translate(2 2)"/>
</clipPath>
</defs>
</svg>
