<svg width="28" height="28" viewBox="0 0 28 28" fill="none" xmlns="http://www.w3.org/2000/svg">
<path d="M13.9531 25.9062C20.4922 25.9062 25.9062 20.4805 25.9062 13.9531C25.9062 7.41406 20.4805 2 13.9414 2C7.41406 2 2 7.41406 2 13.9531C2 20.4805 7.42578 25.9062 13.9531 25.9062ZM13.9531 23.9141C8.42188 23.9141 4.00391 19.4844 4.00391 13.9531C4.00391 8.42188 8.41016 3.99219 13.9414 3.99219C19.4727 3.99219 23.9141 8.42188 23.9141 13.9531C23.9141 19.4844 19.4844 23.9141 13.9531 23.9141Z" fill="black" fill-opacity="0.85"/>
<path d="M10.4492 15.0781H17.4219C19.25 15.0781 20.6328 13.6719 20.6328 11.9492C20.6328 10.1445 19.168 8.84375 17.2695 8.84375C16.5664 7.46094 15.2656 6.55859 13.6484 6.55859C11.5273 6.55859 9.79297 8.22266 9.59375 10.3086C8.58594 10.6133 7.8125 11.4805 7.8125 12.6758C7.8125 14 8.77344 15.0781 10.4492 15.0781ZM11.1523 18.0898L11.8086 16.9648C11.9375 16.7188 11.8672 16.3789 11.5977 16.2266C11.3516 16.0859 11.0234 16.1914 10.8828 16.4375L10.2266 17.5625C10.0977 17.7969 10.168 18.1484 10.4258 18.2891C10.6836 18.4414 11.0117 18.3359 11.1523 18.0898ZM14.3633 18.0898L15.0195 16.9648C15.1602 16.7188 15.0898 16.3789 14.8203 16.2266C14.5742 16.0859 14.2344 16.1914 14.1055 16.4375L13.4492 17.5625C13.3086 17.7969 13.3789 18.1484 13.6484 18.2891C13.8945 18.4414 14.2344 18.3359 14.3633 18.0898ZM17.5742 18.0898L18.2305 16.9648C18.3594 16.7188 18.2891 16.3789 18.0312 16.2266C17.7734 16.0859 17.4453 16.1914 17.3047 16.4375L16.6484 17.5625C16.5195 17.7969 16.5898 18.1484 16.8477 18.2891C17.1055 18.4414 17.4336 18.3359 17.5742 18.0898ZM9.74609 20.9023C9.89844 20.9023 10.0273 20.7734 10.0156 20.5977L9.98047 20.1406L10.3555 20.3984C10.4844 20.4805 10.6719 20.4219 10.7539 20.3164C10.8359 20.1875 10.8242 19.9766 10.6367 19.8828L10.2266 19.707L10.6367 19.4961C10.8008 19.4141 10.8359 19.2383 10.7773 19.1094C10.6953 18.957 10.4844 18.9336 10.3555 19.0156L9.98047 19.2617L10.0156 18.8164C10.0273 18.6289 9.89844 18.5 9.74609 18.5C9.55859 18.5 9.44141 18.6406 9.45312 18.8164L9.47656 19.2617L9.10156 19.0156C8.98438 18.9336 8.78516 18.9453 8.70312 19.0977C8.64453 19.2031 8.64453 19.4258 8.83203 19.5078L9.21875 19.707L8.83203 19.8828C8.64453 19.9766 8.60938 20.1641 8.69141 20.293C8.77344 20.457 8.97266 20.4805 9.10156 20.3984L9.47656 20.1406L9.46484 20.5977C9.46484 20.7617 9.55859 20.9023 9.74609 20.9023ZM12.957 20.9023C13.1094 20.9023 13.2383 20.7734 13.2266 20.5977L13.2031 20.1406L13.5664 20.3984C13.6953 20.4805 13.8945 20.4219 13.9648 20.3164C14.0586 20.1875 14.0352 19.9766 13.8477 19.8828L13.4492 19.707L13.8477 19.4961C14.0234 19.4141 14.0469 19.2383 13.9883 19.1094C13.918 18.957 13.6953 18.9336 13.5664 19.0156L13.2031 19.2617L13.2266 18.8164C13.2383 18.6289 13.1094 18.5 12.957 18.5C12.7812 18.5 12.6523 18.6406 12.6641 18.8164L12.6992 19.2617L12.3125 19.0156C12.1953 18.9336 12.0078 18.9453 11.9258 19.0977C11.8555 19.2031 11.8672 19.4258 12.043 19.5078L12.4414 19.707L12.043 19.8828C11.8672 19.9766 11.832 20.1641 11.9023 20.293C11.9844 20.457 12.1836 20.4805 12.3125 20.3984L12.6992 20.1406L12.6758 20.5977C12.6758 20.7617 12.7812 20.9023 12.957 20.9023ZM16.168 20.9023C16.3203 20.9023 16.4492 20.7734 16.4375 20.5977L16.4141 20.1406L16.7773 20.3984C16.9062 20.4805 17.0938 20.4219 17.1758 20.3164C17.2695 20.1875 17.2461 19.9766 17.0586 19.8828L16.6484 19.707L17.0586 19.4961C17.2227 19.4141 17.2578 19.2383 17.1992 19.1094C17.1172 18.957 16.9062 18.9336 16.7773 19.0156L16.4141 19.2617L16.4375 18.8164C16.4492 18.6289 16.3203 18.5 16.168 18.5C15.9805 18.5 15.8633 18.6406 15.875 18.8164L15.8984 19.2617L15.5234 19.0156C15.4062 18.9336 15.207 18.9453 15.125 19.0977C15.0664 19.2031 15.0664 19.4258 15.2539 19.5078L15.6406 19.707L15.2539 19.8828C15.0664 19.9766 15.0312 20.1641 15.1133 20.293C15.1953 20.457 15.3945 20.4805 15.5234 20.3984L15.8984 20.1406L15.8867 20.5977C15.8867 20.7617 15.9805 20.9023 16.168 20.9023Z" fill="black" fill-opacity="0.85"/>
</svg>
