<svg width="28" height="28" viewBox="0 0 28 28" fill="none" xmlns="http://www.w3.org/2000/svg">
<g clip-path="url(#clip0_2124_24710)">
<path d="M10.2148 20.5508H18.2773C19.0977 20.5508 19.8711 20.8086 20.4922 21.2656V5.04688C20.4922 3.18359 19.2617 2 17.3047 2H11.1875C9.23047 2 8 3.18359 8 5.04688V21.2656C8.62109 20.8086 9.39453 20.5508 10.2148 20.5508ZM14.2578 7.40234C13.4727 7.40234 12.8398 6.76953 12.8398 5.99609C12.8398 5.21094 13.4727 4.57812 14.2578 4.57812C15.0312 4.57812 15.6758 5.21094 15.6758 5.99609C15.6758 6.76953 15.0312 7.40234 14.2578 7.40234ZM10.2148 26.5742H18.2773C19.4961 26.5742 20.4922 25.5781 20.4922 24.3594C20.4922 23.1406 19.4961 22.1445 18.2773 22.1445H10.2148C8.99609 22.1445 8 23.1406 8 24.3594C8 25.5781 8.99609 26.5742 10.2148 26.5742Z" fill="black" fill-opacity="0.85"/>
</g>
<defs>
<clipPath id="clip0_2124_24710">
<rect width="12.4922" height="24.6445" fill="white" transform="translate(8 2)"/>
</clipPath>
</defs>
</svg>
