<svg width="28" height="28" viewBox="0 0 28 28" fill="none" xmlns="http://www.w3.org/2000/svg">
<path d="M27.1084 21.8281C28.0694 18.3242 25.5264 16.8008 19.2452 16.8008C16.21 16.8008 13.0577 17.1055 10.6436 17.6094L11.0655 18.1953C11.71 12.957 10.1045 8.66797 6.57719 6.81641L6.91704 8.25781C8.28813 4.39062 5.85063 2 3.61235 2C1.92485 2 0.471726 3.3125 1.18657 6.23047L5.59282 24.1133C6.02641 25.8711 7.18657 26.8086 8.92094 26.8086H22.5967C25.0108 26.8086 26.0772 25.6484 27.1084 21.8281Z" fill="black" fill-opacity="0.85"/>
<path d="M21.7178 12.7109C23.8506 12.7109 25.292 11.5859 25.292 9.89844C25.292 8.69141 24.3897 7.73047 23.1475 7.57812C24.1553 7.41406 24.9639 6.47656 24.9639 5.38672C24.9639 3.94531 23.6397 2.89062 21.7999 2.89062C20.1241 2.89062 18.8584 3.67578 18.5538 4.92969C18.5303 5.07031 18.5186 5.16406 18.5186 5.33984C18.5186 5.73828 18.8116 6.03125 19.2452 6.03125C19.6202 6.03125 19.8545 5.85547 19.9834 5.48047C20.2061 4.69531 20.8741 4.25 21.7764 4.25C22.7608 4.25 23.3936 4.74219 23.3936 5.55078C23.3936 6.38281 22.6788 6.99219 21.7295 6.99219H21.085C20.71 6.99219 20.417 7.26172 20.417 7.64844C20.417 8.03516 20.6983 8.31641 21.085 8.31641H21.7999C22.9366 8.31641 23.7217 8.92578 23.7217 9.83984C23.7217 10.7305 22.9249 11.3398 21.7413 11.3398C20.7686 11.3398 20.0655 10.9062 19.7959 10.1094C19.6436 9.74609 19.4209 9.58203 19.0577 9.58203C18.6358 9.58203 18.3311 9.875 18.3311 10.2969C18.3311 10.4492 18.3428 10.5195 18.3663 10.6602C18.6475 11.8672 20.0303 12.7109 21.7178 12.7109Z" fill="black" fill-opacity="0.85"/>
</svg>
