<svg width="29" height="29" viewBox="0 0 29 29" fill="none" xmlns="http://www.w3.org/2000/svg">
<g clip-path="url(#clip0_2124_46019)">
<path d="M6.44336 17.7808C6.44336 22.9488 9.83008 26.0074 14.4824 26.0074C18.209 26.0074 20.5175 24.4488 22.0527 21.3199C22.955 19.5855 23.6465 17.4996 24.3847 15.0855C24.6894 14.1011 25.123 12.8472 25.123 12.2847C25.123 11.6519 24.666 11.23 23.998 11.23C23.2597 11.23 22.8144 11.6988 22.2754 12.8121L20.6465 16.2339C20.4824 16.6089 20.2949 16.7496 20.1074 16.7496C19.8613 16.7496 19.6972 16.6089 19.6972 16.1988V3.90576C19.6972 3.21435 19.1347 2.65185 18.4433 2.65185C17.7519 2.65185 17.1894 3.21435 17.1894 3.90576V12.6949C16.873 12.5777 16.5215 12.4839 16.1465 12.4136V2.21826C16.1465 1.52685 15.584 0.952637 14.8925 0.952637C14.2011 0.952637 13.6269 1.52685 13.6269 2.21826V12.2847C13.2636 12.3082 12.8886 12.3667 12.5254 12.4253V3.21435C12.5254 2.52295 11.9629 1.96045 11.2715 1.96045C10.5801 1.96045 10.0176 2.52295 10.0176 3.21435V13.2222C9.63086 13.4097 9.2793 13.6089 8.96289 13.8199V6.85888C8.96289 6.16748 8.40039 5.60498 7.70898 5.60498C7.01758 5.60498 6.44336 6.16748 6.44336 6.85888V17.7808Z" fill="black" fill-opacity="0.85"/>
<path d="M22.4854 27.1089C23.3643 27.9878 24.8409 27.9996 25.7081 27.0855C26.5752 26.1949 26.5752 24.7886 25.6963 23.898L4.88379 3.09716C3.99316 2.20654 2.54004 2.20654 1.66113 3.09716C0.782226 3.96435 0.782226 5.4292 1.66113 6.3081L22.4854 27.1089Z" fill="white"/>
<path d="M23.4463 26.148C23.7979 26.4878 24.3838 26.4996 24.7237 26.148C25.0752 25.7847 25.087 25.2222 24.7237 24.8707L3.91113 4.0581C3.55957 3.70654 2.98536 3.70654 2.62208 4.0581C2.28223 4.40966 2.28223 4.9956 2.62208 5.33545L23.4463 26.148Z" fill="black" fill-opacity="0.85"/>
</g>
<defs>
<clipPath id="clip0_2124_46019">
<rect width="25.355" height="27.7471" fill="white" transform="translate(1.00195 0.0224609)"/>
</clipPath>
</defs>
</svg>
