<svg width="34" height="28" viewBox="0 0 34 28" fill="none" xmlns="http://www.w3.org/2000/svg">
<path d="M7.73404 8.14062H8.57779C9.10513 8.14062 9.32779 7.94141 9.50357 7.49609L10.195 5.75C10.359 5.36328 10.1833 5.02344 9.7731 5.02344H8.99966C8.60123 5.02344 8.35513 5.22266 8.16763 5.57422L7.24185 7.35547C7.05435 7.70703 7.24185 8.14062 7.73404 8.14062ZM4.5231 14.6562H5.82388C6.36295 14.6562 6.67935 14.4688 6.87857 13.9648L7.8981 11.457C8.06216 11.0469 7.80435 10.6484 7.34732 10.6484H6.18716C5.78873 10.6484 5.4606 10.8477 5.2731 11.2109L3.97232 13.7422C3.73795 14.1875 4.0192 14.6562 4.5231 14.6562ZM0.948883 22.5664H2.48404C3.18716 22.5664 3.53873 22.2266 3.72623 21.7227L5.15591 18.2188C5.36685 17.7031 5.03873 17.1992 4.47623 17.1992H3.15201C2.41373 17.1992 2.05045 17.4805 1.79263 17.9727L0.128571 21.2656C-0.176117 21.8633 0.0465394 22.5664 0.948883 22.5664ZM25.1833 8.14062H26.027C26.5192 8.14062 26.7067 7.70703 26.5192 7.35547L25.5934 5.57422C25.4176 5.22266 25.1598 5.02344 24.7614 5.02344H23.9879C23.5778 5.02344 23.402 5.36328 23.5661 5.75L24.2575 7.49609C24.4333 7.94141 24.6559 8.14062 25.1833 8.14062ZM27.9489 14.6562H29.2379C29.7419 14.6562 30.0231 14.1875 29.8004 13.7422L28.4997 11.2109C28.3004 10.8477 27.9723 10.6484 27.5739 10.6484H26.4137C25.9567 10.6484 25.6989 11.0469 25.8629 11.457L26.8825 13.9648C27.0934 14.4688 27.3981 14.6562 27.9489 14.6562ZM31.277 22.5664H32.8122C33.7262 22.5664 33.9372 21.8633 33.6325 21.2656L31.9684 17.9727C31.7106 17.4805 31.3473 17.1992 30.609 17.1992H29.2965C28.7223 17.1992 28.3942 17.7031 28.6051 18.2188L30.0348 21.7227C30.234 22.2266 30.5739 22.5664 31.277 22.5664Z" fill="black" fill-opacity="0.85"/>
<path d="M9.45703 18.6875C9.45703 19.1445 9.80859 19.5078 10.2773 19.5078H11.0039C11.4726 19.5078 11.8359 19.1445 11.8359 18.6875V17.7852H21.7968V18.6875C21.7968 19.1445 22.1484 19.5078 22.6172 19.5078H23.3554C23.8125 19.5078 24.1757 19.1445 24.1757 18.6875V14.5273C24.1757 13.4844 24.0351 12.8516 23.3906 12.1484L22.7695 11.4688L22.1132 9.59375C21.75 8.57422 21.0703 8.15234 20.2031 8.04688C19.7812 8 18.4218 7.96484 16.8164 7.96484C15.2109 7.96484 13.8398 8 13.4297 8.04688C12.5625 8.15234 11.8711 8.57422 11.5195 9.59375L10.8632 11.4688L10.2422 12.1484C9.59765 12.8516 9.45703 13.4844 9.45703 14.5273V18.6875ZM12.5742 11.5039C12.2695 11.5039 12.1757 11.2813 12.2695 11.0117L12.6562 9.85156C12.7968 9.41797 13.0195 9.27734 13.3945 9.23047C13.8281 9.17188 15.0351 9.125 16.8164 9.125C18.5976 9.125 19.7929 9.17188 20.2265 9.23047C20.6015 9.27734 20.8242 9.41797 20.9765 9.85156L21.3632 11.0117C21.457 11.2813 21.3515 11.5039 21.0468 11.5039H12.5742ZM11.707 15.3945C11.3203 15.3945 11.039 15.1133 11.039 14.7266V13.7539C11.039 13.3789 11.3203 13.0977 11.707 13.0977C12.082 13.0977 12.3632 13.3672 12.3632 13.7539V14.7266C12.3632 15.1133 12.082 15.3945 11.707 15.3945ZM15.3984 15.0898C15.0937 15.0898 14.8945 14.8906 14.8945 14.5625V13.9297C14.8945 13.6016 15.0937 13.4023 15.3984 13.4023H18.2109C18.5156 13.4023 18.7148 13.6016 18.7148 13.9297V14.5625C18.7148 14.8906 18.5156 15.0898 18.2109 15.0898H15.3984ZM21.9843 15.3945C21.6093 15.3945 21.3281 15.1016 21.3281 14.7266V13.7539C21.3281 13.3789 21.6093 13.0977 21.9843 13.0977C22.3711 13.0977 22.6523 13.3672 22.6523 13.7539V14.7266C22.6523 15.1133 22.3711 15.3945 21.9843 15.3945Z" fill="black" fill-opacity="0.85"/>
</svg>
