<svg width="28" height="28" viewBox="0 0 28 28" fill="none" xmlns="http://www.w3.org/2000/svg">
<path d="M13.9531 25.9062C20.4922 25.9062 25.9062 20.4805 25.9062 13.9531C25.9062 7.41406 20.4805 2 13.9414 2C7.41406 2 2 7.41406 2 13.9531C2 20.4805 7.42578 25.9062 13.9531 25.9062ZM13.9531 23.9141C8.42188 23.9141 4.00391 19.4844 4.00391 13.9531C4.00391 8.42188 8.41016 3.99219 13.9414 3.99219C19.4727 3.99219 23.9141 8.42188 23.9141 13.9531C23.9141 19.4844 19.4844 23.9141 13.9531 23.9141Z" fill="black" fill-opacity="0.85"/>
<path d="M8.46875 18.6875H12.5352C12.957 18.6875 13.2031 18.418 13.2031 18.0078C13.2031 17.5625 12.9453 17.3164 12.5352 17.3164H9.75781V17.2227L11.4688 15.0547C12.6406 13.6016 13.0273 12.7344 13.0273 11.7031C13.0273 10.1211 11.9492 8.97266 10.332 8.97266C8.83203 8.97266 7.69531 10.2148 7.69531 11.4336C7.69531 11.8672 7.95312 12.1719 8.39844 12.1719C8.78516 12.1719 9.01953 11.9961 9.14844 11.6094C9.35938 10.8242 9.65234 10.332 10.3203 10.332C11.0352 10.332 11.4336 10.9531 11.4336 11.7852C11.4336 12.7227 10.7773 13.6719 10.1563 14.4688L8.11719 17.0703C7.90625 17.3516 7.68359 17.6445 7.68359 18.0078C7.68359 18.4062 7.94141 18.6875 8.46875 18.6875ZM17.3164 18.8984C19.0039 18.8984 20.293 17.8438 20.293 16.0859C20.293 14.6328 19.4258 13.918 18.4297 13.8125V13.7773C19.4961 13.4961 20.0117 12.5469 20.0117 11.5625C20.0117 9.94531 18.8047 9.01953 17.2812 9.01953C16.0625 9.01953 15.0195 9.69922 14.6797 10.7422C14.6211 10.9648 14.5977 11.1758 14.5977 11.375C14.5977 11.7617 14.8438 12.0664 15.3125 12.0664C15.7109 12.0664 15.9453 11.9141 16.0625 11.5039C16.25 10.8125 16.6133 10.3789 17.2812 10.3789C18.0547 10.3789 18.418 10.9766 18.418 11.75C18.418 12.6055 17.9375 13.2266 17.0586 13.2266H16.7891C16.3906 13.2266 16.1328 13.4727 16.1328 13.8594C16.1328 14.2461 16.3906 14.4688 16.7891 14.4688H17.082C18.0781 14.4688 18.6289 15.0195 18.6289 16.0391C18.6289 16.8477 18.1953 17.5391 17.3281 17.5391C16.4727 17.5391 16.0859 16.9648 15.9453 16.4258C15.8281 16.0508 15.582 15.8516 15.207 15.8516C14.75 15.8516 14.4336 16.1328 14.4336 16.5898C14.4336 16.8008 14.4688 17.0117 14.5273 17.1992C14.8672 18.2891 16.0625 18.8984 17.3164 18.8984Z" fill="black" fill-opacity="0.85"/>
</svg>
