<svg width="28" height="28" viewBox="0 0 28 28" fill="none" xmlns="http://www.w3.org/2000/svg">
<path d="M13.9531 25.9062C20.4922 25.9062 25.9062 20.4805 25.9062 13.9531C25.9062 7.41406 20.4805 2 13.9414 2C7.41406 2 2 7.41406 2 13.9531C2 20.4805 7.42578 25.9062 13.9531 25.9062Z" fill="black" fill-opacity="0.85"/>
<path d="M8.28125 18.8398C7.73047 18.8398 7.46094 18.5469 7.46094 18.1367C7.46094 17.7617 7.69531 17.457 7.91797 17.1641L10.0156 14.4922C10.6484 13.6719 11.3281 12.6875 11.3281 11.7148C11.3281 10.8594 10.918 10.2266 10.2031 10.2266C9.5 10.2266 9.19531 10.7305 8.98438 11.5391C8.84375 11.9375 8.60938 12.125 8.19922 12.125C7.74219 12.125 7.47266 11.8086 7.47266 11.3516C7.47266 10.0977 8.65625 8.82031 10.2031 8.82031C11.8672 8.82031 12.9805 10.0039 12.9805 11.6328C12.9805 12.6992 12.582 13.5898 11.375 15.0898L9.61719 17.3164V17.4219H12.4766C12.8984 17.4219 13.168 17.668 13.168 18.1367C13.168 18.5586 12.9102 18.8398 12.4766 18.8398H8.28125ZM18.7461 18.9922C18.3594 18.9922 17.9023 18.7812 17.9023 18.1367V16.9297H15.1953C14.6211 16.9297 14.1992 16.5312 14.1992 15.9453C14.1992 15.5703 14.2812 15.2539 14.4805 14.7852L16.6367 10.1094C16.9766 9.34766 17.375 8.91406 18.2305 8.91406C19.0156 8.91406 19.5781 9.39453 19.5781 10.2266V15.5234H20C20.4805 15.5234 20.6914 15.8281 20.6914 16.2148C20.6914 16.625 20.4688 16.9297 20 16.9297H19.5781V18.1367C19.5781 18.7109 19.2031 18.9922 18.7461 18.9922ZM17.9375 15.5586V10.4375H17.8906L15.6992 15.4766V15.5586H17.9375Z" fill="white"/>
</svg>
