<svg width="28" height="28" viewBox="0 0 28 28" fill="none" xmlns="http://www.w3.org/2000/svg">
<path d="M13.9531 25.918C20.4922 25.918 25.9062 20.5039 25.9062 13.9648C25.9062 7.4375 20.4805 2.01172 13.9414 2.01172C7.41406 2.01172 2 7.4375 2 13.9648C2 20.5039 7.42578 25.918 13.9531 25.918Z" fill="black" fill-opacity="0.85"/>
<path d="M10.0742 15.582C8.35156 15.582 7.35547 14.4688 7.35547 13.1094C7.35547 11.8906 8.15234 10.9766 9.19531 10.6719C9.39453 8.51562 11.1992 6.80469 13.3672 6.80469C15.043 6.80469 16.3789 7.74219 17.1172 9.17188C19.0742 9.17188 20.5859 10.5078 20.5859 12.3594C20.5859 14.1523 19.1445 15.582 17.2695 15.582H10.0742ZM10.4375 19.0273C10.2969 19.2969 9.95703 19.3906 9.69922 19.2383C9.41797 19.0859 9.33594 18.7344 9.48828 18.4766L10.3437 17C10.4961 16.7305 10.8359 16.6484 11.0937 16.7891C11.3633 16.9531 11.457 17.293 11.293 17.5508L10.4375 19.0273ZM12.4531 20.832C12.3008 21.0781 11.9727 21.1836 11.7148 21.0312C11.4336 20.8789 11.3516 20.5391 11.5039 20.2695L12.3711 18.793C12.5117 18.5352 12.8516 18.4297 13.1094 18.582C13.3906 18.7344 13.4727 19.0742 13.3086 19.3438L12.4531 20.832ZM15.5469 19.0156C15.4062 19.2852 15.0664 19.3789 14.8086 19.2266C14.5273 19.0742 14.4453 18.7227 14.6094 18.4648L15.4648 16.9883C15.6055 16.7188 15.9453 16.6367 16.2031 16.7773C16.4844 16.9414 16.5664 17.2812 16.4023 17.5391L15.5469 19.0156ZM17.5625 20.832C17.4219 21.0781 17.082 21.1836 16.8242 21.0312C16.5547 20.8789 16.4609 20.5391 16.625 20.2695L17.4805 18.793C17.6211 18.5352 17.9609 18.4297 18.2188 18.582C18.5 18.7344 18.582 19.0742 18.4414 19.3438L17.5625 20.832Z" fill="white"/>
</svg>
