<svg width="28" height="28" viewBox="0 0 28 28" fill="none" xmlns="http://www.w3.org/2000/svg">
<path d="M13.9531 25.918C20.4922 25.918 25.9062 20.5039 25.9062 13.9648C25.9062 7.4375 20.4805 2.01172 13.9414 2.01172C7.41406 2.01172 2 7.4375 2 13.9648C2 20.5039 7.42578 25.918 13.9531 25.918Z" fill="black" fill-opacity="0.85"/>
<path d="M8.49255 17.1992C8.36364 16.4258 8.68005 15.9922 9.53552 15.7812L12.3949 15.125C12.1723 15.0078 11.9261 14.75 11.8207 14.375L9.93395 14.1055C9.10192 13.9883 8.72692 13.5312 8.72692 12.7109V10.4375C8.72692 10.0977 8.92614 9.89844 9.26598 9.89844C9.58239 9.89844 9.78161 10.0977 9.78161 10.4375V12.5C9.78161 12.9453 10.0277 13.0859 10.4379 13.1445L11.8441 13.3438C11.9027 13.1211 12.0434 12.9336 12.1723 12.8164C11.0941 12.6055 10.5433 11.9375 10.5433 10.9297C10.5433 10.1211 10.8363 9.34766 11.3402 8.75L11.3051 8.71484C10.6605 8.25781 10.5551 7.56641 10.9652 6.81641L11.3285 6.19531C11.4574 5.94922 11.6215 5.85547 11.8441 5.85547C12.1371 5.85547 12.3363 6.06641 12.3363 6.33594C12.3363 6.45312 12.3246 6.54688 12.2426 6.66406L11.9261 7.17969C11.7386 7.48438 11.6683 7.75391 11.891 7.94141L12.0551 8.07031C12.6176 7.70703 13.3324 7.49609 13.9652 7.49609C14.5863 7.49609 15.3012 7.70703 15.8637 8.07031L16.0277 7.94141C16.2621 7.75391 16.1918 7.48438 16.0043 7.17969L15.6762 6.66406C15.6059 6.54688 15.5824 6.45312 15.5824 6.33594C15.5824 6.05469 15.7934 5.85547 16.0746 5.85547C16.309 5.85547 16.4496 5.96094 16.5902 6.19531L16.9535 6.81641C17.3871 7.55469 17.2582 8.25781 16.6137 8.71484L16.5785 8.75C17.0824 9.34766 17.3754 10.1211 17.3754 10.9297C17.3754 11.9375 16.8363 12.6172 15.7582 12.8164C15.8871 12.9336 16.016 13.1328 16.0746 13.3438L17.4809 13.1445C17.891 13.0742 18.1371 12.9453 18.1371 12.5V10.4375C18.1371 10.0977 18.3363 9.89844 18.6527 9.89844C19.0043 9.89844 19.2035 10.0977 19.2035 10.4375V12.7109C19.2035 13.5312 18.8168 13.9883 17.9965 14.1055L16.1098 14.375C15.9926 14.75 15.7465 15.0195 15.5356 15.125L18.3949 15.7812C19.2387 16.0039 19.5668 16.4258 19.4379 17.1992L18.8988 20.6094C18.852 20.9492 18.6879 21.1719 18.3598 21.1719C18.0199 21.1719 17.7738 20.9141 17.8324 20.5273L18.3129 17.3984C18.3715 17.0234 18.2543 16.8477 17.8207 16.7305C17.6566 16.6836 17.4926 16.6484 17.3402 16.6016C17.4223 16.8242 17.4574 17.0938 17.4574 17.3984C17.4574 19.543 15.8402 21.5469 13.9652 21.5469C12.0785 21.5469 10.473 19.543 10.473 17.3984C10.473 17.0938 10.5082 16.8242 10.5902 16.6016C10.4261 16.6484 10.2621 16.6836 10.1097 16.7305C9.67614 16.8477 9.54724 17.0234 9.61755 17.3984L10.0863 20.5273C10.1449 20.9141 9.8988 21.1719 9.57067 21.1719C9.24255 21.1719 9.07848 20.9492 9.01989 20.6094L8.49255 17.1992Z" fill="white"/>
</svg>
