<svg width="28" height="28" viewBox="0 0 28 28" fill="none" xmlns="http://www.w3.org/2000/svg">
<path d="M13.9531 25.9062C20.4922 25.9062 25.9062 20.4805 25.9062 13.9531C25.9062 7.41406 20.4805 2 13.9414 2C7.41406 2 2 7.41406 2 13.9531C2 20.4805 7.42578 25.9062 13.9531 25.9062ZM13.9531 23.9141C8.42188 23.9141 4.00391 19.4844 4.00391 13.9531C4.00391 8.42188 8.41016 3.99219 13.9414 3.99219C19.4727 3.99219 23.9141 8.42188 23.9141 13.9531C23.9141 19.4844 19.4844 23.9141 13.9531 23.9141Z" fill="black" fill-opacity="0.85"/>
<path d="M7.92969 13.9414C7.92969 14.1992 8.04688 14.4102 8.25781 14.6211L12.2188 18.5938C12.3711 18.7461 12.582 18.8398 12.8281 18.8398C13.3086 18.8398 13.6719 18.4648 13.6719 17.9844C13.6719 17.7266 13.5781 17.5156 13.4141 17.3633L11.9492 15.9102L10.5312 14.7266L13.0156 14.8086H19.1211C19.6367 14.8086 20 14.4453 20 13.9414C20 13.4258 19.625 13.0625 19.1211 13.0625H13.0156L10.543 13.1562L11.9492 11.9727L13.4141 10.5195C13.5664 10.3555 13.6719 10.1445 13.6719 9.88672C13.6719 9.40625 13.3086 9.04297 12.8281 9.04297C12.582 9.04297 12.3711 9.125 12.2188 9.27734L8.25781 13.2617C8.02344 13.4961 7.92969 13.6836 7.92969 13.9414Z" fill="black" fill-opacity="0.85"/>
</svg>
