<svg width="28" height="28" viewBox="0 0 28 28" fill="none" xmlns="http://www.w3.org/2000/svg">
<path d="M13.9531 25.9062C20.4922 25.9062 25.9062 20.4805 25.9062 13.9531C25.9062 7.41406 20.4805 2 13.9414 2C7.41406 2 2 7.41406 2 13.9531C2 20.4805 7.42578 25.9062 13.9531 25.9062Z" fill="black" fill-opacity="0.85"/>
<path d="M11.5625 18.9688C11.0703 18.9688 10.6719 18.5703 10.6719 18.0781V10.7539L9.55859 11.6445C9.44141 11.7383 9.3125 11.7969 9.13672 11.7969C8.76172 11.7969 8.50391 11.5273 8.50391 11.1523C8.50391 10.8359 8.66797 10.6016 8.89062 10.4375L10.2148 9.40625C10.4961 9.19531 10.9062 8.91406 11.4219 8.91406C12.0547 8.91406 12.4414 9.27734 12.4414 9.89844V18.0781C12.4414 18.5703 12.043 18.9688 11.5625 18.9688ZM17.1406 18.9688C16.6484 18.9688 16.25 18.5703 16.25 18.0781V10.7539L15.1367 11.6445C15.0195 11.7383 14.8906 11.7969 14.7031 11.7969C14.3398 11.7969 14.082 11.5273 14.082 11.1523C14.082 10.8359 14.2578 10.6016 14.4688 10.4375L15.793 9.40625C16.0742 9.19531 16.4844 8.91406 17 8.91406C17.6328 8.91406 18.0195 9.27734 18.0195 9.89844V18.0781C18.0195 18.5703 17.6211 18.9688 17.1406 18.9688Z" fill="white"/>
</svg>
