<svg width="28" height="28" viewBox="0 0 28 28" fill="none" xmlns="http://www.w3.org/2000/svg">
<g clip-path="url(#clip0_2124_50011)">
<path d="M14.3088 6.69141C17.1682 6.69141 19.5588 5.03906 20.0158 2.63672C20.1916 1.66406 19.7111 0.9375 18.7502 0.667969C15.9846 -0.0585938 12.633 -0.0585938 9.87911 0.667969C8.91817 0.9375 8.4377 1.66406 8.61348 2.63672C9.07052 5.03906 11.4494 6.69141 14.3088 6.69141ZM13.3713 11.4492H15.258V5.75391H13.3713V11.4492ZM14.2971 27.7383C21.1057 27.7383 25.6291 25.6875 25.594 22.6406V22.4883C25.5119 19.4414 22.7346 15.7383 19.2775 14.0391C18.633 11.8242 16.594 10.2891 14.2971 10.2891C12.0002 10.2891 9.96114 11.8242 9.31661 14.0391C5.88302 15.7266 3.12911 19.4062 3.0002 22.4297V22.6406C2.96505 25.6875 7.48848 27.7383 14.2971 27.7383ZM4.64083 22.6406C4.65255 20.5312 8.50802 19.1719 14.2971 19.1719C20.0979 19.1719 23.9416 20.5312 23.9533 22.6406C23.9416 24.7383 20.0979 26.0977 14.2971 26.0977C8.50802 26.0977 4.65255 24.7383 4.64083 22.6406ZM14.2971 23.5195C16.4182 23.5195 18.469 22.207 18.469 20.6133C17.2619 20.4258 15.844 20.3086 14.2971 20.3086C12.7502 20.3086 11.3322 20.4258 10.1252 20.6133C10.1252 22.207 12.176 23.5195 14.2971 23.5195Z" fill="black" fill-opacity="0.85"/>
</g>
<defs>
<clipPath id="clip0_2124_50011">
<rect width="22.5942" height="27.7383" fill="white" transform="translate(3)"/>
</clipPath>
</defs>
</svg>
