<svg width="28" height="28" viewBox="0 0 28 28" fill="none" xmlns="http://www.w3.org/2000/svg">
<path d="M4.62574 25.1511C6.77028 25.7839 9.17262 25.8542 11.5867 25.3738L2.31715 16.1042C1.83668 18.5183 1.89528 20.9207 2.53981 23.0652C2.92653 24.3542 3.33668 24.7644 4.62574 25.1511ZM20.5164 20.5105C22.45 18.6003 23.8445 16.3386 24.6882 13.9949L13.6961 3.00269C11.3523 3.84644 9.10231 5.24097 7.16871 7.17456C5.23512 9.08472 3.85231 11.3464 2.99684 13.6902L13.989 24.6824C16.3445 23.8386 18.5945 22.4441 20.5164 20.5105ZM12.2078 18.6355C11.9968 18.8347 11.6687 18.8347 11.4578 18.6238L9.05543 16.2214C8.85621 16.0222 8.85621 15.6941 9.05543 15.4832C9.26637 15.2605 9.60621 15.2605 9.80543 15.4714L10.6375 16.3035L11.5047 15.4246L10.6726 14.6042C10.4734 14.405 10.4734 14.0652 10.6726 13.8542C10.8836 13.6433 11.2234 13.6433 11.4343 13.8425L12.2547 14.6863L13.1218 13.8074L12.2898 12.9871C12.0906 12.7878 12.0789 12.448 12.2898 12.2371C12.5007 12.0261 12.8523 12.0261 13.0398 12.2253L13.8718 13.0574L14.7507 12.1902L13.907 11.3699C13.7078 11.1707 13.6961 10.8308 13.907 10.6199C14.1179 10.4089 14.4578 10.4089 14.657 10.6081L15.489 11.4402L16.3679 10.573L15.5359 9.74097C15.325 9.54175 15.3132 9.21362 15.5359 9.00269C15.7351 8.80347 16.075 8.80347 16.2742 8.99097L18.6882 11.405C18.8875 11.616 18.8875 11.9441 18.6882 12.155C18.4773 12.366 18.1375 12.3542 17.9265 12.1433L17.1062 11.323L16.239 12.1902L17.0711 13.0222C17.282 13.2332 17.282 13.5613 17.0711 13.7839C16.8484 13.9832 16.5203 13.9714 16.3211 13.7722L15.489 12.9519L14.6218 13.8074L15.4539 14.6394C15.6648 14.8386 15.6648 15.1785 15.4539 15.4011C15.2312 15.6121 14.9031 15.6003 14.7039 15.3894L13.8718 14.5691L13.0047 15.4246L13.825 16.2566C14.0359 16.4558 14.0359 16.8074 13.825 17.0183C13.614 17.2175 13.2859 17.2175 13.0867 17.0066L12.2547 16.1863L11.3875 17.0535L12.2078 17.8738C12.4187 18.0847 12.4187 18.4246 12.2078 18.6355ZM25.157 4.61987C24.7586 3.33081 24.3601 2.93237 23.0711 2.53394C20.9265 1.90112 18.5242 1.83081 16.1101 2.323L25.3679 11.5808C25.8601 9.16675 25.7898 6.7644 25.157 4.61987Z" fill="black" fill-opacity="0.85"/>
</svg>
