<svg width="28" height="28" viewBox="0 0 28 28" fill="none" xmlns="http://www.w3.org/2000/svg">
<g clip-path="url(#clip0_2124_78064)">
<path d="M6.67969 24.5977H20.8945C23.3555 24.5977 24.5742 23.3789 24.5742 20.9648V6.65625C24.5742 4.24219 23.3555 3.02344 20.8945 3.02344H6.67969C4.23047 3.02344 3 4.23047 3 6.65625V20.9648C3 23.3906 4.23047 24.5977 6.67969 24.5977ZM6.70312 22.7109C5.53125 22.7109 4.88672 22.0898 4.88672 20.8711V6.75C4.88672 5.53125 5.53125 4.91016 6.70312 4.91016H20.8711C22.0312 4.91016 22.6875 5.53125 22.6875 6.75V20.8711C22.6875 22.0898 22.0312 22.7109 20.8711 22.7109H6.70312Z" fill="black" fill-opacity="0.85"/>
<path d="M16.8164 18.5859C17.3789 18.5859 17.7891 18.1875 17.7891 17.6484C17.7891 17.2031 17.6016 16.9453 17.1094 16.7109L11.168 13.793V13.7227L17.1094 10.7344C17.5898 10.5 17.7891 10.2187 17.7891 9.78516C17.7891 9.25781 17.3906 8.85938 16.8398 8.85938C16.5938 8.85938 16.4414 8.90625 16.2539 9L9.26953 12.7617C8.80078 13.0195 8.57812 13.3477 8.57812 13.793C8.57812 14.2734 8.77734 14.5664 9.26953 14.8242L16.2539 18.457C16.4297 18.5391 16.5938 18.5859 16.8164 18.5859Z" fill="black" fill-opacity="0.85"/>
</g>
<defs>
<clipPath id="clip0_2124_78064">
<rect width="21.5742" height="21.5977" fill="white" transform="translate(3 3)"/>
</clipPath>
</defs>
</svg>
