<svg width="28" height="28" viewBox="0 0 28 28" fill="none" xmlns="http://www.w3.org/2000/svg">
<path d="M6.67969 24.5977H20.8945C23.3555 24.5977 24.5742 23.3789 24.5742 20.9648V6.65625C24.5742 4.24219 23.3555 3.02344 20.8945 3.02344H6.67969C4.23047 3.02344 3 4.23047 3 6.65625V20.9648C3 23.3906 4.23047 24.5977 6.67969 24.5977ZM6.70312 22.7109C5.53125 22.7109 4.88672 22.0898 4.88672 20.8711V6.75C4.88672 5.53125 5.53125 4.91016 6.70312 4.91016H20.8711C22.0312 4.91016 22.6875 5.53125 22.6875 6.75V20.8711C22.6875 22.0898 22.0312 22.7109 20.8711 22.7109H6.70312Z" fill="black" fill-opacity="0.85"/>
<path d="M11.1328 18.6797C11.5664 18.6797 11.9297 18.4102 11.9297 17.8477V16.6758H12.3516C12.7969 16.6758 13.0078 16.3828 13.0078 15.9844C13.0078 15.6094 12.8203 15.3164 12.3516 15.3164H11.9297V10.1719C11.9297 9.36328 11.4023 8.90625 10.6289 8.90625C9.80859 8.90625 9.42188 9.32812 9.09375 10.0547L6.99609 14.6016C6.80859 15.0586 6.73828 15.3633 6.73828 15.7266C6.73828 16.2891 7.125 16.6758 7.69922 16.6758H10.3242V17.8477C10.3242 18.4688 10.7578 18.6797 11.1328 18.6797ZM10.3594 15.3516H8.17969V15.2695L10.3125 10.3828H10.3594V15.3516ZM17.2266 18.7383C19.0781 18.7383 20.2734 17.5781 20.2734 15.9727C20.2734 14.6953 19.4531 13.7695 18.5156 13.5586V13.5234C19.3008 13.2773 20.0039 12.5156 20.0039 11.4023C20.0039 9.89062 18.8789 8.85938 17.2266 8.85938C15.7734 8.85938 14.4609 9.75 14.4609 11.3906C14.4609 12.5859 15.2109 13.2891 15.9609 13.5234V13.5586C14.9648 13.7812 14.1914 14.707 14.1914 15.9727C14.1914 17.707 15.5039 18.7383 17.2266 18.7383ZM17.2266 12.9844C16.4766 12.9844 16.1016 12.2578 16.1016 11.5664C16.1016 10.8164 16.5 10.1133 17.2266 10.1133C17.9883 10.1133 18.3516 10.8164 18.3516 11.5664C18.3516 12.3398 17.9648 12.9844 17.2266 12.9844ZM17.2266 17.4727C16.3711 17.4727 15.9492 16.7109 15.9492 15.8438C15.9492 15 16.3828 14.25 17.2266 14.25C18.0586 14.25 18.5156 14.9531 18.5156 15.8438C18.5156 16.7109 18.0938 17.4727 17.2266 17.4727Z" fill="black" fill-opacity="0.85"/>
</svg>
