<svg width="28" height="28" viewBox="0 0 28 28" fill="none" xmlns="http://www.w3.org/2000/svg">
<path d="M13.9531 25.9062C20.4922 25.9062 25.9062 20.4805 25.9062 13.9531C25.9062 7.41406 20.4805 2 13.9414 2C7.41406 2 2 7.41406 2 13.9531C2 20.4805 7.42578 25.9062 13.9531 25.9062Z" fill="black" fill-opacity="0.85"/>
<path d="M11.3633 18.9922C10.9766 18.9922 10.5195 18.7695 10.5195 18.125V16.9297H7.82422C7.22656 16.9297 6.82812 16.5312 6.82812 15.9453C6.82812 15.5703 6.89844 15.2539 7.08594 14.7852L9.24219 10.0977C9.58203 9.34766 9.9922 8.91406 10.8359 8.91406C11.6445 8.91406 12.1836 9.38281 12.1836 10.2266V15.5234H12.6172C13.0977 15.5234 13.2969 15.8281 13.2969 16.2148C13.2969 16.625 13.0742 16.9297 12.6172 16.9297H12.1836V18.125C12.1836 18.7109 11.8086 18.9922 11.3633 18.9922ZM10.5547 15.5586V10.4375H10.5078L8.31641 15.4766V15.5586H10.5547ZM17.5039 19.0508C16.2148 19.0508 14.9727 18.4297 14.6211 17.3047C14.5625 17.1055 14.5273 16.8945 14.5273 16.6719C14.5273 16.2031 14.8555 15.9102 15.3242 15.9102C15.7227 15.9102 15.9688 16.1094 16.0977 16.5078C16.2383 17.0586 16.6367 17.6445 17.5156 17.6445C18.4062 17.6445 18.8516 16.9297 18.8516 16.0977C18.8516 15.0547 18.2891 14.4922 17.2578 14.4922H16.9648C16.5547 14.4922 16.2852 14.2578 16.2852 13.8594C16.2852 13.4609 16.5547 13.2031 16.9648 13.2031H17.2344C18.1484 13.2031 18.6406 12.5586 18.6406 11.6797C18.6406 10.8828 18.2656 10.2734 17.4688 10.2734C16.7773 10.2734 16.4141 10.7187 16.2148 11.4336C16.0977 11.8555 15.8516 12.0078 15.4414 12.0078C14.9492 12.0078 14.6914 11.6914 14.6914 11.293C14.6914 11.082 14.7266 10.8711 14.7852 10.6367C15.1367 9.57031 16.2148 8.86719 17.4688 8.86719C19.0391 8.86719 20.293 9.81641 20.293 11.4922C20.293 12.5 19.7539 13.4844 18.6523 13.7773V13.8125C19.6836 13.918 20.5742 14.6562 20.5742 16.1562C20.5742 17.9609 19.25 19.0508 17.5039 19.0508Z" fill="white"/>
</svg>
