<svg width="31" height="29" viewBox="0 0 31 29" fill="none" xmlns="http://www.w3.org/2000/svg">
<g clip-path="url(#clip0_2124_45995)">
<path d="M0.662264 13.3181C5.12711 18.8845 9.3107 21.8962 15.0412 21.8962C20.76 21.8962 24.9553 18.8845 29.4084 13.3181C30.6154 11.8064 30.0646 10.4353 28.6701 10.2712C24.4396 9.76734 23.3146 7.04858 19.8459 7.04858C17.1037 7.04858 15.4748 9.20484 15.0412 9.20484C14.5959 9.20484 12.967 7.04858 10.2248 7.04858C6.75601 7.04858 5.64273 9.76734 1.40055 10.2712C0.0177331 10.4353 -0.533049 11.8064 0.662264 13.3181ZM3.34586 13.0369C2.7482 12.6736 3.11148 12.0056 3.66226 12.2634C5.31461 13.0486 7.02555 12.9666 9.1818 12.7322C9.75601 12.6619 10.3303 12.5798 10.9045 12.5798C12.6857 12.5798 13.6467 13.2009 14.2912 13.5876C14.7131 13.8337 14.8537 13.8806 15.0412 13.8806C15.2287 13.8806 15.3693 13.8337 15.7912 13.5876C16.4357 13.2126 17.385 12.5798 19.1662 12.5798C19.7404 12.5798 20.3146 12.6619 20.9006 12.7322C23.0451 13.0251 24.7678 13.0486 26.4201 12.2634C26.9709 12.0056 27.3342 12.6736 26.7248 13.0369C24.0178 14.6892 20.9357 14.1384 19.635 14.1267C16.9045 14.1267 16.6115 15.5447 15.0412 15.5447C13.4709 15.5447 13.1779 14.1267 10.4357 14.1267C9.14664 14.1384 6.05289 14.7126 3.34586 13.0369Z" fill="black" fill-opacity="0.85"/>
</g>
<defs>
<clipPath id="clip0_2124_45995">
<rect width="30.0672" height="14.8711" fill="white" transform="translate(0.00585938 7.02515)"/>
</clipPath>
</defs>
</svg>
