<svg width="28" height="28" viewBox="0 0 28 28" fill="none" xmlns="http://www.w3.org/2000/svg">
<path d="M12.4492 24.4922C13.2461 24.4922 13.8203 23.9062 13.8203 23.1211V18.6445H14.1602C18.707 18.6445 21.5664 19.793 23.6172 23.625C24.0273 24.375 24.5664 24.4922 25.0586 24.4922C25.6797 24.4922 26.2656 23.9297 26.2656 22.9219C26.2656 14.2617 22.5977 8.85938 14.1602 8.85938H13.8203V4.42969C13.8203 3.64453 13.2461 3 12.4258 3C11.8516 3 11.4648 3.24609 10.8438 3.83203L1.59766 12.4805C1.14062 12.9141 1 13.3477 1 13.7461C1 14.1328 1.15234 14.5781 1.59766 15L10.8438 23.7305C11.4062 24.2578 11.875 24.4922 12.4492 24.4922Z" fill="black" fill-opacity="0.85"/>
</svg>
