<svg width="28" height="28" viewBox="0 0 28 28" fill="none" xmlns="http://www.w3.org/2000/svg">
<path d="M23.2383 4.38281C22.043 3.1875 20.3555 3 18.3516 3H9.22266C7.25391 3 5.56641 3.1875 4.37109 4.38281C3.17578 5.57812 3 7.25391 3 9.22266V18.3516C3 20.3555 3.17578 22.0312 4.37109 23.2266C5.56641 24.4219 7.25391 24.6094 9.24609 24.6094H18.3516C20.3555 24.6094 22.043 24.4219 23.2383 23.2266C24.4336 22.0312 24.6094 20.3555 24.6094 18.3516V9.24609C24.6094 7.24219 24.4336 5.57812 23.2383 4.38281ZM22.7227 8.92969V18.6797C22.7227 19.8867 22.5703 21.1406 21.8555 21.8438C21.1523 22.5586 19.8867 22.7227 18.6797 22.7227H8.92969C7.72266 22.7227 6.45703 22.5586 5.74219 21.8438C5.03906 21.1406 4.88672 19.8867 4.88672 18.6797V8.96484C4.88672 7.72266 5.03906 6.46875 5.74219 5.75391C6.45703 5.05078 7.73438 4.88672 8.96484 4.88672H18.6797C19.8867 4.88672 21.1523 5.05078 21.8555 5.76562C22.5703 6.46875 22.7227 7.72266 22.7227 8.92969Z" fill="black" fill-opacity="0.85"/>
</svg>
