<svg width="28" height="28" viewBox="0 0 28 28" fill="none" xmlns="http://www.w3.org/2000/svg">
<g clip-path="url(#clip0_2124_88636)">
<path d="M3 11.3516C3 16.5078 7.19531 20.7031 12.3516 20.7031C14.3906 20.7031 16.2539 20.0469 17.7891 18.9453L23.5547 24.7227C23.8242 24.9922 24.1758 25.1211 24.5508 25.1211C25.3477 25.1211 25.8984 24.5234 25.8984 23.7383C25.8984 23.3633 25.7578 23.0234 25.5117 22.7773L19.7812 17.0117C20.9883 15.4414 21.7031 13.4844 21.7031 11.3516C21.7031 6.19531 17.5078 2 12.3516 2C7.19531 2 3 6.19531 3 11.3516ZM5.00391 11.3516C5.00391 7.29688 8.29688 4.00391 12.3516 4.00391C16.4062 4.00391 19.6992 7.29688 19.6992 11.3516C19.6992 15.4062 16.4062 18.6992 12.3516 18.6992C8.29688 18.6992 5.00391 15.4062 5.00391 11.3516ZM12.8555 15.7109C13.3359 15.7109 13.6758 15.5 13.6758 14.9844V7.78906C13.6758 7.23828 13.3125 6.86328 12.7383 6.86328C12.3281 6.86328 12.0938 6.95703 11.6367 7.27344L10.0664 8.375C9.75 8.58594 9.65625 8.77344 9.65625 9.06641C9.65625 9.41797 9.96094 9.69922 10.2773 9.69922C10.5 9.69922 10.6055 9.62891 10.8047 9.48828L11.9648 8.66797H12.0469V14.8672C12.0469 15.3945 12.375 15.7109 12.8555 15.7109Z" fill="black" fill-opacity="0.85"/>
</g>
<defs>
<clipPath id="clip0_2124_88636">
<rect width="22.8984" height="23.1211" fill="white" transform="translate(3 2)"/>
</clipPath>
</defs>
</svg>
