<svg width="28" height="28" viewBox="0 0 28 28" fill="none" xmlns="http://www.w3.org/2000/svg">
<path d="M13.9531 25.9062C20.4922 25.9062 25.9062 20.4805 25.9062 13.9531C25.9062 7.41406 20.4805 2 13.9414 2C7.41406 2 2 7.41406 2 13.9531C2 20.4805 7.42578 25.9062 13.9531 25.9062ZM13.9531 23.9141C8.42188 23.9141 4.00391 19.4844 4.00391 13.9531C4.00391 8.42188 8.41016 3.99219 13.9414 3.99219C19.4727 3.99219 23.9141 8.42188 23.9141 13.9531C23.9141 19.4844 19.4844 23.9141 13.9531 23.9141Z" fill="black" fill-opacity="0.85"/>
<path d="M10.2734 18.9336C12.6055 18.9336 13.3086 16.3086 13.3086 13.9531C13.3086 11.5977 12.6055 8.97266 10.2734 8.97266C7.94141 8.97266 7.23828 11.5977 7.23828 13.9531C7.23828 16.3086 7.94141 18.9336 10.2734 18.9336ZM10.2734 17.5391C9.3125 17.5391 8.94922 15.9805 8.94922 13.9531C8.94922 11.9141 9.3125 10.3555 10.2734 10.3555C11.2344 10.3555 11.5977 11.9141 11.5977 13.9531C11.5977 15.9805 11.2344 17.5391 10.2734 17.5391ZM17.5156 18.9336C19.3438 18.9336 20.3398 17.3984 20.3398 15.5469C20.3398 13.9297 19.5664 12.4531 18.0547 12.4531C17.3633 12.4531 16.7305 12.7695 16.4258 13.4492H16.3789L16.5664 10.6016H19.3203C19.7188 10.6016 19.9766 10.3203 19.9766 9.91016C19.9766 9.52344 19.707 9.21875 19.3203 9.21875H16.0977C15.4883 9.21875 15.207 9.61719 15.1719 10.2266L14.9727 13.4375C14.9609 13.6133 14.9609 13.8008 14.9609 13.9531C14.9609 14.3984 15.1836 14.7969 15.7227 14.7969C16.0508 14.7969 16.2266 14.668 16.4727 14.3516C16.7422 13.9648 17.0352 13.6836 17.5156 13.6836C18.3711 13.6836 18.6992 14.7266 18.6992 15.5938C18.6992 16.5664 18.3594 17.5625 17.4922 17.5625C16.8359 17.5625 16.4609 17.0938 16.25 16.4492C16.1094 16.0742 15.8516 15.8984 15.5352 15.8984C15.1133 15.8984 14.832 16.168 14.832 16.6016C14.832 16.8711 14.9023 17.1289 15.0078 17.3633C15.418 18.3125 16.4492 18.9336 17.5156 18.9336Z" fill="black" fill-opacity="0.85"/>
</svg>
