<svg width="32" height="33" viewBox="0 0 32 33" fill="none" xmlns="http://www.w3.org/2000/svg">
<path d="M31.9922 15.0908V13.1455C31.4766 13.3916 30.9492 13.6846 30.3984 14.0362L26.1445 16.708L21.4688 17.2823C18.5391 17.6338 16.8164 19.3213 16.8164 21.8291V23.9268C16.8164 25.708 17.8359 26.7393 19.582 26.7393H22.8047V25.0283H19.6758C18.9258 25.0283 18.5273 24.5596 18.5273 23.7158V21.8291C18.5273 20.2588 19.6523 19.2276 21.6797 18.9698L26.7188 18.3487L31.3008 15.5127C31.5352 15.3604 31.7695 15.2198 31.9922 15.0908ZM31.9922 26.7393V25.0283H27.7383V26.7393H31.9922ZM25.2188 29.1533C27.2461 29.1533 28.8281 27.5596 28.8281 25.544C28.8281 23.5049 27.2461 21.9229 25.2188 21.9229C23.1914 21.9229 21.6094 23.5049 21.6094 25.544C21.6094 27.5596 23.1914 29.1533 25.2188 29.1533ZM25.2188 27.4424C24.1406 27.4424 23.3203 26.6104 23.3203 25.544C23.3203 24.4658 24.1406 23.6338 25.2188 23.6338C26.2852 23.6338 27.1172 24.4658 27.1172 25.544C27.1172 26.6104 26.2852 27.4424 25.2188 27.4424ZM6.5625 29.1533C8.58984 29.1533 10.1719 27.5596 10.1719 25.544C10.1719 23.5049 8.58984 21.9229 6.5625 21.9229C4.53516 21.9229 2.95312 23.5049 2.95312 25.544C2.95312 27.5596 4.53516 29.1533 6.5625 29.1533ZM6.5625 27.4424C5.48438 27.4424 4.66406 26.6104 4.66406 25.544C4.66406 24.4658 5.48438 23.6338 6.5625 23.6338C7.64062 23.6338 8.46094 24.4658 8.46094 25.544C8.46094 26.6104 7.64062 27.4424 6.5625 27.4424ZM0 11.9971V13.708H1.57031C4.44141 13.708 6.76172 14.8916 8.76562 17.669L11.3555 18.3487C12.3164 18.5948 12.5742 19.169 12.5742 19.9658V23.7979C12.5742 24.5713 12.1875 25.0283 11.5195 25.0283H8.90625V26.7393H11.8242C13.3477 26.7393 14.2852 25.7901 14.2852 24.2198V19.9658C14.2852 18.501 13.8398 17.2471 11.8711 16.626L9.70312 15.958C8.33203 14.3291 5.94141 11.9971 1.57031 11.9971H0ZM0 25.0283V26.7393H4.06641V25.0283H0ZM17.2383 3.33693L16.7227 5.48146L14.0625 2.751C13.8398 2.51662 13.5469 2.68068 13.6523 3.00881L14.6016 5.80959L13.3594 5.25881C13.0781 5.11818 12.8672 5.34084 13.0781 5.62209L13.7578 6.51271L10.5703 6.0674C10.1953 6.00881 10.1016 6.38381 10.4062 6.57131L13.4062 8.38771L11.6133 9.04396C11.2969 9.16115 11.3438 9.52443 11.6836 9.54787L13.6875 9.70021L10.957 11.5401C10.6875 11.7158 10.8047 12.126 11.1797 12.0323L14.6367 11.2471L14.6719 14.1768C14.6719 14.4815 14.9766 14.5166 15.1055 14.3057L17.3203 10.6377L21.0586 14.001C21.3398 14.2471 21.6914 13.9893 21.5039 13.6494L19.2891 9.51271L21.5508 8.83303C21.7383 8.77443 21.7383 8.51662 21.5508 8.44631L19.5586 7.626L20.9883 3.55959C21.082 3.30178 20.8125 3.0674 20.5898 3.29006L18.2695 5.49318L17.6953 3.33693C17.625 3.03225 17.3203 3.03225 17.2383 3.33693Z" fill="black" fill-opacity="0.85"/>
<path d="M27.082 32.1299C27.9727 33.0205 29.4258 33.0205 30.3047 32.1065C31.1719 31.2158 31.1719 29.8096 30.293 28.919L5.56641 4.18067C4.67578 3.27833 3.23438 3.27833 2.34375 4.16895C1.46484 5.05958 1.45312 6.48927 2.35547 7.39161L27.082 32.1299Z" fill="white"/>
<path d="M28.0548 31.1573C28.4063 31.5205 28.9806 31.5205 29.3321 31.1573C29.672 30.8057 29.6837 30.2432 29.3321 29.8799L4.59382 5.14162C4.23054 4.77834 3.66804 4.79006 3.30476 5.14162C2.96491 5.48146 2.94148 6.05568 3.30476 6.41896L28.0548 31.1573Z" fill="black" fill-opacity="0.85"/>
</svg>
