<svg width="28" height="28" viewBox="0 0 28 28" fill="none" xmlns="http://www.w3.org/2000/svg">
<path d="M12.3468 5.09766C13.7531 5.09766 14.9015 3.94922 14.9015 2.55469C14.9015 1.14844 13.7531 0 12.3468 0C10.9406 0 9.79213 1.14844 9.79213 2.55469C9.79213 3.94922 10.9406 5.09766 12.3468 5.09766ZM5.57338 11.1094C4.19057 13.0312 5.40931 15.6328 8.1515 15.2227L12.4523 14.5781L10.7882 19.5234C10.2257 21.1641 12.5226 21.8438 13.0382 20.2969L15.2531 13.582C15.5226 12.7734 15.0187 11.9766 14.0695 11.9766H9.82728L12.0539 9.01172C12.2765 8.70703 12.4171 8.67188 12.7101 8.67188H21.4757C22.1203 8.67188 22.6476 8.15625 22.6476 7.5C22.6476 6.85547 22.132 6.32812 21.4757 6.32812H10.3312C9.51088 6.32812 8.714 6.75 8.19838 7.45312L5.57338 11.1094ZM6.60463 26.6016C6.60463 27.1406 6.97963 27.4922 7.53041 27.4922H16.3195C16.8703 27.4922 17.2335 27.1406 17.2335 26.6016V23.0742C17.2335 22.5469 16.8703 22.1953 16.3195 22.1953H7.53041C6.97963 22.1953 6.60463 22.5469 6.60463 23.0742V26.6016Z" fill="black" fill-opacity="0.85"/>
</svg>
