<svg width="28" height="28" viewBox="0 0 28 28" fill="none" xmlns="http://www.w3.org/2000/svg">
<path d="M13.9531 25.9062C20.4922 25.9062 25.9062 20.4805 25.9062 13.9531C25.9062 7.41406 20.4805 2 13.9414 2C7.41406 2 2 7.41406 2 13.9531C2 20.4805 7.42578 25.9062 13.9531 25.9062Z" fill="black" fill-opacity="0.85"/>
<path d="M9.75781 12.043C9.75781 9.78125 11.4805 8.19922 13.9883 8.19922C16.4961 8.19922 18.2188 9.79297 18.2188 12.1367C18.2188 13.4492 17.6914 14.6797 16.5781 16.168C15.9219 17.0234 15.0195 18.1953 14.3867 18.9805C14.0469 19.4141 13.8594 19.6953 13.3906 19.6953C12.8984 19.6953 12.582 19.3438 12.582 18.9805C12.582 18.7461 12.6758 18.5234 12.875 18.2891C13.5898 17.4102 14.3867 16.4492 15.0547 15.5938C15.3242 15.2773 15.5117 15.0195 15.6055 14.8438H15.4531C15.043 15.2656 14.1875 15.5469 13.3906 15.5469C11.293 15.5469 9.75781 14.0703 9.75781 12.043ZM11.4688 11.9727C11.4688 13.25 12.5586 14.1875 14 14.1875C15.418 14.1875 16.4961 13.2617 16.4961 11.9727C16.4961 10.707 15.4062 9.74609 13.9883 9.74609C12.5586 9.74609 11.4688 10.6953 11.4688 11.9727Z" fill="white"/>
</svg>
