<svg width="28" height="28" viewBox="0 0 28 28" fill="none" xmlns="http://www.w3.org/2000/svg">
<path d="M6.67969 24.5977H20.8945C23.3555 24.5977 24.5742 23.3789 24.5742 20.9648V6.65625C24.5742 4.24219 23.3555 3.02344 20.8945 3.02344H6.67969C4.23047 3.02344 3 4.23047 3 6.65625V20.9648C3 23.3906 4.23047 24.5977 6.67969 24.5977Z" fill="black" fill-opacity="0.85"/>
<path d="M19.7695 15.1055C19.7695 17.9062 17.8711 19.7344 15.0469 19.7344H13.4648C12.9023 19.7344 12.5273 19.3828 12.5273 18.8555C12.5273 18.3398 12.8906 17.9883 13.4414 17.9883H15.0469C16.8164 17.9883 18.0234 16.8398 18.0234 15.1055C18.0234 13.5 16.8398 12.4336 15.0586 12.4336H11.6367L10.4297 12.3867L10.9805 12.7734L12.3984 14.1445C12.5742 14.3203 12.6797 14.5312 12.6797 14.7891C12.6797 15.293 12.293 15.6914 11.8125 15.6914C11.543 15.6914 11.332 15.5977 11.168 15.4336L8.09766 12.293C7.875 12.0703 7.78125 11.8125 7.78125 11.5547C7.78125 11.2852 7.88672 11.0273 8.09766 10.8047L11.1562 7.69922C11.332 7.52344 11.5313 7.44141 11.8008 7.44141C12.3047 7.44141 12.6797 7.82812 12.6797 8.34375C12.6797 8.57812 12.5742 8.8125 12.3984 8.96484L11.2148 10.1133L10.418 10.7461L11.6367 10.6875H15.0586C17.8828 10.6875 19.7695 12.4453 19.7695 15.1055Z" fill="white"/>
</svg>
