<svg width="28" height="28" viewBox="0 0 28 28" fill="none" xmlns="http://www.w3.org/2000/svg">
<path d="M13.9531 25.9062C20.4922 25.9062 25.9062 20.4805 25.9062 13.9531C25.9062 7.41406 20.4805 2 13.9414 2C7.41406 2 2 7.41406 2 13.9531C2 20.4805 7.42578 25.9062 13.9531 25.9062ZM13.9531 23.9141C8.42188 23.9141 4.00391 19.4844 4.00391 13.9531C4.00391 8.42188 8.41016 3.99219 13.9414 3.99219C19.4727 3.99219 23.9141 8.42188 23.9141 13.9531C23.9141 19.4844 19.4844 23.9141 13.9531 23.9141Z" fill="black" fill-opacity="0.85"/>
<path d="M14.2578 20.7852C17.082 20.7852 19.5078 19.0508 20.3398 16.918C20.4102 16.7773 20.4219 16.625 20.4219 16.5664C20.4219 16.3203 20.2227 16.1562 20.0352 16.1562C19.9531 16.1562 19.8711 16.168 19.7539 16.2148C19.2617 16.3789 18.4297 16.5547 17.6211 16.5547C14.0703 16.5547 11.7969 14.3281 11.7969 10.7656C11.7969 10.0273 11.9961 8.98438 12.207 8.43359C12.2773 8.28125 12.2773 8.1875 12.2773 8.12891C12.2773 7.95312 12.1484 7.75391 11.9023 7.75391C11.8203 7.75391 11.668 7.76562 11.5156 7.83594C9.08984 8.79688 7.46094 11.4219 7.46094 14.1641C7.46094 18.0195 10.4141 20.7852 14.2578 20.7852Z" fill="black" fill-opacity="0.85"/>
</svg>
