<svg width="28" height="28" viewBox="0 0 28 28" fill="none" xmlns="http://www.w3.org/2000/svg">
<path d="M5.85742 15.5402C5.85742 15.9972 6.20898 16.3371 6.70117 16.3371H13.334L9.83007 25.8293C9.37304 27.0363 10.627 27.6808 11.4238 26.6965L22.0644 13.384C22.2637 13.1379 22.3691 12.9035 22.3691 12.634C22.3691 12.1887 22.0293 11.8371 21.5371 11.8371H14.9043L18.4082 2.34491C18.8535 1.13787 17.6113 0.493343 16.8144 1.48944L6.17382 14.7902C5.97461 15.048 5.85742 15.2824 5.85742 15.5402Z" fill="black" fill-opacity="0.85"/>
<path d="M21.3501 24.5401C22.2407 25.4307 23.6939 25.4307 24.561 24.5401C25.4517 23.6729 25.4517 22.2082 24.561 21.3293L6.87745 3.64564C5.98682 2.75501 4.5337 2.75501 3.65479 3.65736C2.77589 4.52454 2.78761 5.97767 3.65479 6.85657L21.3501 24.5401Z" fill="white"/>
<path d="M22.3233 23.5675C22.6748 23.919 23.2608 23.919 23.6006 23.5675C23.9522 23.2276 23.9522 22.6534 23.6006 22.2901L5.91699 4.60657C5.56543 4.25501 4.96777 4.25501 4.62793 4.60657C4.28809 4.94642 4.28809 5.54407 4.62793 5.88392L22.3233 23.5675Z" fill="black" fill-opacity="0.85"/>
</svg>
