<svg width="28" height="28" viewBox="0 0 28 28" fill="none" xmlns="http://www.w3.org/2000/svg">
<path d="M14.207 24.1417C18.8828 24.1417 22.8789 20.8371 23.8633 16.6183C23.1602 17.4738 22.0703 17.9542 20.875 17.9542C19.7266 17.9542 18.6719 17.5089 17.957 16.7121C17.6875 16.4308 17.4062 16.4191 17.1367 16.7121C16.4688 17.4738 15.3906 17.9542 14.1953 17.9542C13 17.9542 11.9219 17.4738 11.2539 16.7121C10.9844 16.4191 10.7031 16.4308 10.4336 16.7121C9.71875 17.5089 8.67578 17.9542 7.52734 17.9542C6.32031 17.9542 5.23047 17.4738 4.52734 16.6183C5.55859 20.8605 9.54297 24.1417 14.207 24.1417ZM14.1953 25.5246C14.5 25.5246 14.793 25.4894 15.1094 25.466L15.7773 26.755C15.918 27.0128 16.1641 27.1535 16.4922 27.1066C16.7852 27.048 16.9844 26.8371 17.0312 26.5207L17.2305 25.1027C17.8164 24.9503 18.3906 24.7277 18.9414 24.4816L19.9961 25.4308C20.2188 25.6417 20.5 25.6886 20.793 25.5246C21.0508 25.3839 21.1562 25.1027 21.0977 24.798L20.8047 23.3917C21.2969 23.0519 21.7773 22.6652 22.2109 22.2316L23.5117 22.7824C23.8047 22.9113 24.0859 22.841 24.3086 22.5714C24.5078 22.3605 24.5195 22.0558 24.3555 21.798L23.5938 20.5792C23.9453 20.0871 24.2266 19.5597 24.4961 18.9972L25.9375 19.0675C26.2422 19.0792 26.4883 18.9152 26.5938 18.6222C26.6875 18.3292 26.6055 18.048 26.3594 17.8605L25.2344 16.9699C25.3867 16.4074 25.5039 15.798 25.5625 15.1652L26.9102 14.7433C27.2148 14.6378 27.3906 14.4152 27.3906 14.0988C27.3906 13.7941 27.2148 13.5597 26.9102 13.466L25.5625 13.0324C25.5039 12.3996 25.3867 11.8136 25.2344 11.2394L26.3594 10.3371C26.5938 10.1613 26.6875 9.89175 26.5938 9.59879C26.4883 9.30582 26.2422 9.14175 25.9375 9.15347L24.4961 9.21207C24.2266 8.64957 23.9453 8.12222 23.5938 7.63004L24.3555 6.41129C24.5195 6.16519 24.4961 5.8605 24.3086 5.64957C24.0859 5.38004 23.8047 5.32144 23.5117 5.43863L22.2109 5.96597C21.7773 5.55582 21.2969 5.15738 20.8047 4.81754L21.0977 3.423C21.168 3.1066 21.0508 2.82535 20.793 2.68472C20.5 2.53238 20.2188 2.55582 19.9961 2.79019L18.9414 3.71597C18.3906 3.46988 17.8164 3.27066 17.2305 3.1066L17.0312 1.68863C16.9844 1.38394 16.7734 1.16128 16.4805 1.11441C16.1641 1.06753 15.9062 1.19644 15.7773 1.45425L15.1094 2.74332C14.793 2.71988 14.5 2.69644 14.1953 2.69644C13.8789 2.69644 13.5977 2.71988 13.2812 2.74332L12.6016 1.45425C12.4727 1.19644 12.2148 1.06753 11.8984 1.11441C11.6055 1.16128 11.3945 1.38394 11.3594 1.68863L11.1484 3.09488C10.5625 3.27066 10 3.46988 9.4375 3.71597L8.38281 2.79019C8.16016 2.55582 7.87891 2.53238 7.58594 2.68472C7.32812 2.82535 7.21094 3.1066 7.28125 3.423L7.57422 4.81754C7.09375 5.15738 6.60156 5.55582 6.16797 5.96597L4.86719 5.43863C4.57422 5.32144 4.30469 5.38004 4.08203 5.64957C3.88281 5.8605 3.87109 6.16519 4.02344 6.39957L4.78516 7.63004C4.44531 8.12222 4.15234 8.64957 3.88281 9.21207L2.45312 9.15347C2.14844 9.14175 1.89062 9.30582 1.78516 9.59879C1.69141 9.89175 1.78516 10.1496 2.01953 10.3371L3.14453 11.2394C2.99219 11.8136 2.875 12.3996 2.83984 13.0324L1.46875 13.466C1.16406 13.5597 1 13.7824 1 14.0988C1 14.4152 1.16406 14.6378 1.46875 14.7433L2.83984 15.1769C2.875 15.798 2.99219 16.4074 3.14453 16.9699L2.01953 17.8605C1.78516 18.048 1.70312 18.3292 1.78516 18.6222C1.89062 18.9152 2.14844 19.0792 2.45312 19.0675L3.88281 18.9972C4.15234 19.5597 4.44531 20.0871 4.78516 20.5792L4.02344 21.798C3.85938 22.0558 3.88281 22.3605 4.08203 22.5714C4.30469 22.841 4.57422 22.9113 4.86719 22.7824L6.16797 22.2316C6.60156 22.6652 7.09375 23.0519 7.57422 23.3917L7.28125 24.798C7.22266 25.1027 7.32812 25.3839 7.58594 25.5246C7.87891 25.6886 8.16016 25.6417 8.38281 25.4308L9.4375 24.4816C10 24.7277 10.5625 24.9503 11.1484 25.1027L11.3594 26.5207C11.3945 26.8371 11.6055 27.048 11.8984 27.1066C12.2148 27.1535 12.4609 27.0128 12.6016 26.755L13.2812 25.466C13.5859 25.4894 13.8789 25.5246 14.1953 25.5246ZM14.1953 23.7433C8.82812 23.7433 4.67969 19.466 4.67969 14.1105C4.67969 8.75504 8.82812 4.47769 14.1953 4.47769C19.5625 4.47769 23.7109 8.75504 23.7109 14.1105C23.7109 19.466 19.5625 23.7433 14.1953 23.7433Z" fill="black" fill-opacity="0.85"/>
</svg>
