<svg width="28" height="28" viewBox="0 0 28 28" fill="none" xmlns="http://www.w3.org/2000/svg">
<path d="M7.63281 26.125H20.0781C22.5039 26.125 23.7109 24.8945 23.7109 22.457V11.8164H15.2266C13.7266 11.8164 13.0117 11.1016 13.0117 9.60156V1H7.63281C5.21875 1 4 2.24219 4 4.67969V22.457C4 24.9062 5.20703 26.125 7.63281 26.125ZM15.2617 10.2109H23.5703C23.5 9.73047 23.1602 9.26172 22.5977 8.6875L16.1406 2.11328C15.5898 1.55078 15.1094 1.21094 14.6172 1.12891V9.57812C14.6172 10 14.8281 10.2109 15.2617 10.2109Z" fill="black" fill-opacity="0.85"/>
<path d="M10.2812 22.5508V18.6016C10.2812 17.8984 10.5625 17.5586 11.1484 17.5234V16.3398C11.1484 14.5234 12.25 13.3047 13.8672 13.3047C15.4844 13.3047 16.5859 14.5234 16.5859 16.3398V17.5234C17.1719 17.5586 17.4648 17.8984 17.4648 18.6016V22.5508C17.4648 23.3008 17.1367 23.6523 16.4336 23.6523H11.3008C10.6094 23.6523 10.2812 23.3008 10.2812 22.5508ZM12.1914 17.5117H15.543V16.2344C15.543 15.0742 14.875 14.3008 13.8672 14.3008C12.8594 14.3008 12.1914 15.0742 12.1914 16.2344V17.5117Z" fill="white"/>
</svg>
