<svg width="30" height="28" viewBox="0 0 30 28" fill="none" xmlns="http://www.w3.org/2000/svg">
<path d="M14.8828 27.1914C23.2383 27.1914 29.7656 20.6758 29.7656 12.8008C29.7656 8.64062 27.9609 4.90234 25.3711 2.45312C24.293 1.44531 23.1562 1 21.5391 1H8.22656C6.60938 1 5.47266 1.44531 4.39453 2.45312C1.80469 4.90234 0 8.64062 0 12.8008C0 20.6758 6.52734 27.1914 14.8828 27.1914ZM14.8828 25.1875C7.34766 25.1875 2.00391 19.8438 2.00391 12.8008C2.00391 9.09766 3.43359 6.10938 5.78906 3.90625C6.45703 3.28516 7.19531 3.00391 8.22656 3.00391H21.5391C22.5586 3.00391 23.3086 3.28516 23.9766 3.90625C26.332 6.10938 27.7617 9.09766 27.7617 12.8008C27.7617 19.8438 22.418 25.1875 14.8828 25.1875Z" fill="black" fill-opacity="0.85"/>
<path d="M11.0391 9.36719C12.2461 9.36719 13.2305 8.37109 13.2305 7.17578C13.2305 5.95703 12.2461 4.97266 11.0391 4.97266C9.82031 4.97266 8.83594 5.95703 8.83594 7.17578C8.83594 8.37109 9.82031 9.36719 11.0391 9.36719ZM18.7266 9.36719C19.957 9.36719 20.9297 8.37109 20.9297 7.17578C20.9297 5.95703 19.957 4.97266 18.7266 4.97266C17.5195 4.97266 16.5352 5.95703 16.5352 7.17578C16.5352 8.37109 17.5195 9.36719 18.7266 9.36719ZM7.17188 15.8477C8.84766 15.8477 10.2188 14.4766 10.2188 12.8008C10.2188 11.1133 8.84766 9.75391 7.17188 9.75391C5.50781 9.75391 4.125 11.1133 4.125 12.8008C4.125 14.4766 5.50781 15.8477 7.17188 15.8477ZM14.8828 15.8477C16.5586 15.8477 17.9297 14.4766 17.9297 12.8008C17.9297 11.1133 16.5586 9.75391 14.8828 9.75391C13.207 9.75391 11.8359 11.1133 11.8359 12.8008C11.8359 14.4766 13.207 15.8477 14.8828 15.8477ZM22.5938 15.8477C24.2695 15.8477 25.6406 14.4766 25.6406 12.8008C25.6406 11.1133 24.2695 9.75391 22.5938 9.75391C20.918 9.75391 19.5469 11.1133 19.5469 12.8008C19.5469 14.4766 20.918 15.8477 22.5938 15.8477ZM11.0391 22.3867C12.7148 22.3867 14.0859 21.0273 14.0859 19.3398C14.0859 17.6641 12.7148 16.293 11.0391 16.293C9.35156 16.293 7.99219 17.6641 7.99219 19.3398C7.99219 21.0273 9.35156 22.3867 11.0391 22.3867ZM18.7266 22.3867C20.4141 22.3867 21.7734 21.0273 21.7734 19.3398C21.7734 17.6641 20.4141 16.293 18.7266 16.293C17.0508 16.293 15.6914 17.6641 15.6914 19.3398C15.6914 21.0273 17.0508 22.3867 18.7266 22.3867Z" fill="black" fill-opacity="0.85"/>
</svg>
