<svg width="28" height="28" viewBox="0 0 28 28" fill="none" xmlns="http://www.w3.org/2000/svg">
<g clip-path="url(#clip0_2124_24865)">
<path d="M13.9531 25.918C20.4922 25.918 25.9062 20.5039 25.9062 13.9648C25.9062 7.4375 20.4805 2.01172 13.9414 2.01172C7.41406 2.01172 2 7.4375 2 13.9648C2 20.5039 7.42578 25.918 13.9531 25.918Z" fill="black" fill-opacity="0.85"/>
<path d="M7.33203 17.9844V14.7617C7.33203 13.8359 7.51953 13.2969 8.04688 12.6289L8.52734 12.0195C8.73828 11 9.08984 9.94531 9.28906 9.53516C9.59375 8.90234 10.168 8.52734 10.9063 8.43359C11.293 8.38672 12.5117 8.35156 13.9648 8.35156C15.4062 8.35156 16.6367 8.38672 17.0117 8.43359C17.7617 8.53906 18.3359 8.90234 18.6289 9.53516C18.8281 9.94531 19.1797 11 19.4023 12.0195L19.8711 12.6289C20.3984 13.2969 20.5859 13.8359 20.5859 14.7617V17.9844C20.5859 18.3945 20.2578 18.7227 19.8477 18.7227H19.1797C18.7578 18.7227 18.4297 18.3945 18.4297 17.9844V17.0586C17.1875 17.1289 15.4062 17.1758 13.9648 17.1758C12.5234 17.1758 10.7305 17.1289 9.48828 17.0586V17.9844C9.48828 18.3945 9.16016 18.7227 8.75 18.7227H8.08203C7.66016 18.7227 7.33203 18.3945 7.33203 17.9844ZM9.95703 11.4922C9.91016 11.668 9.98047 11.75 10.1914 11.7383C11.0586 11.668 12.0781 11.6211 13.9648 11.6211C15.8398 11.6211 16.8711 11.668 17.7266 11.7383C17.9375 11.75 18.0195 11.668 17.9609 11.4922C17.8438 10.9063 17.5977 10.1563 17.4336 9.875C17.2695 9.61719 17.1289 9.51172 16.8359 9.47656C16.4375 9.40625 15.5469 9.39453 13.9648 9.39453C12.3711 9.39453 11.4805 9.41797 11.0938 9.47656C10.8008 9.51172 10.6484 9.61719 10.4961 9.875C10.332 10.168 10.0859 10.9063 9.95703 11.4922ZM9.01953 14.7734C9.01953 15.2773 9.41797 15.6758 9.92188 15.6758C10.4258 15.6758 10.8242 15.2773 10.8242 14.7734C10.8242 14.2695 10.4258 13.8828 9.92188 13.8828C9.41797 13.8828 9.01953 14.2695 9.01953 14.7734ZM11.832 14.8086C11.832 15.1953 12.1016 15.4648 12.4883 15.4648H15.4414C15.8164 15.4648 16.0859 15.1953 16.0859 14.8086C16.0859 14.4336 15.8164 14.1641 15.4414 14.1641H12.4883C12.1016 14.1641 11.832 14.4336 11.832 14.8086ZM17.1055 14.7734C17.1055 15.2773 17.4922 15.6758 17.9961 15.6758C18.5117 15.6758 18.9102 15.2773 18.9102 14.7734C18.9102 14.2695 18.5117 13.8828 17.9961 13.8828C17.4922 13.8828 17.1055 14.2695 17.1055 14.7734Z" fill="white"/>
</g>
<defs>
<clipPath id="clip0_2124_24865">
<rect width="23.9062" height="23.918" fill="white" transform="translate(2 2)"/>
</clipPath>
</defs>
</svg>
