<svg width="31" height="28" viewBox="0 0 31 28" fill="none" xmlns="http://www.w3.org/2000/svg">
<path d="M0 13.5264C0 17.4522 1.47656 21.0499 4.03125 23.7217C4.45312 24.1671 5.02734 24.1202 5.35547 23.7452C5.69531 23.3819 5.625 22.8428 5.22656 22.4327C2.97656 20.0889 1.75781 16.9483 1.75781 13.5264C1.75781 10.1045 2.97656 6.96388 5.22656 4.62013C5.625 4.19825 5.69531 3.67091 5.35547 3.29591C5.02734 2.93263 4.45312 2.88576 4.03125 3.33107C1.47656 6.00294 0 9.6006 0 13.5264ZM30.5273 13.5264C30.5273 9.6006 29.0508 6.00294 26.4961 3.33107C26.0742 2.88576 25.5 2.93263 25.1719 3.29591C24.832 3.67091 24.9023 4.19825 25.3008 4.62013C27.5391 6.96388 28.7695 10.1045 28.7695 13.5264C28.7695 16.9483 27.5391 20.0889 25.3008 22.4327C24.9023 22.8428 24.832 23.3819 25.1719 23.7452C25.5 24.1202 26.0742 24.1671 26.4961 23.7217C29.0508 21.0499 30.5273 17.4522 30.5273 13.5264Z" fill="black" fill-opacity="0.85"/>
<path d="M4.19531 13.5263C4.19531 16.3037 5.19141 18.8935 6.98438 20.8271C7.39453 21.2841 7.99219 21.2959 8.34375 20.8857C8.68359 20.499 8.58984 19.9951 8.19141 19.5615C6.73828 17.9326 5.94141 15.8232 5.94141 13.5263C5.94141 11.2295 6.73828 9.12013 8.19141 7.49122C8.58984 7.05763 8.68359 6.55372 8.34375 6.15529C7.99219 5.75685 7.39453 5.75685 6.98438 6.21388C5.19141 8.15919 4.19531 10.7373 4.19531 13.5263ZM26.332 13.5263C26.332 10.7373 25.3359 8.15919 23.543 6.21388C23.1328 5.75685 22.5352 5.75685 22.1836 6.15529C21.832 6.55372 21.9375 7.05763 22.3242 7.49122C23.7891 9.12013 24.5859 11.2295 24.5859 13.5263C24.5859 15.8232 23.7891 17.9326 22.3242 19.5615C21.9375 19.9951 21.832 20.499 22.1836 20.8857C22.5352 21.2959 23.1328 21.2841 23.543 20.8271C25.3359 18.8935 26.332 16.3037 26.332 13.5263Z" fill="black" fill-opacity="0.85"/>
<path d="M8.37891 13.5264C8.37891 15.0967 8.91797 16.5733 9.85547 17.7335C10.2422 18.2256 10.8867 18.2256 11.2383 17.8272C11.5898 17.4288 11.4375 16.96 11.0977 16.4796C10.4648 15.6827 10.1367 14.6514 10.1367 13.5264C10.1367 12.4015 10.4648 11.3702 11.0977 10.5616C11.4375 10.0929 11.5898 9.62414 11.2383 9.2257C10.8867 8.82726 10.2422 8.82726 9.85547 9.30773C8.91797 10.4679 8.37891 11.9444 8.37891 13.5264ZM22.1484 13.5264C22.1484 11.9444 21.6094 10.4679 20.6719 9.30773C20.2852 8.82726 19.6406 8.82726 19.2891 9.2257C18.9375 9.62414 19.0781 10.0929 19.4297 10.5616C20.0625 11.3702 20.3906 12.4015 20.3906 13.5264C20.3906 14.6514 20.0625 15.6827 19.4297 16.4796C19.0781 16.96 18.9375 17.4288 19.2891 17.8272C19.6406 18.2256 20.2852 18.2256 20.6719 17.7335C21.6094 16.5733 22.1484 15.0967 22.1484 13.5264Z" fill="black" fill-opacity="0.85"/>
<path d="M13.125 13.55C13.125 14.6867 14.1211 15.6476 15.2812 15.6476C16.4414 15.6476 17.3906 14.6867 17.3906 13.5265C17.3906 12.3546 16.4531 11.3937 15.2812 11.3937C14.0977 11.3937 13.125 12.378 13.125 13.55Z" fill="black" fill-opacity="0.85"/>
</svg>
