<svg width="30" height="28" viewBox="0 0 30 28" fill="none" xmlns="http://www.w3.org/2000/svg">
<path d="M23.1562 23.3672C26.6953 23.3672 29.4609 20.7773 29.4609 17.5547C29.4609 15.0938 28.043 12.9609 25.7578 12C25.7812 6.77344 22.0195 3 17.2266 3C14.0508 3 11.7891 4.69922 10.3828 6.75C7.5 5.90625 4.35938 8.09766 4.30078 11.3789C1.65234 11.8008 0 14.168 0 17.0273C0 20.4727 3.01172 23.3672 7.01953 23.3672H23.1562ZM23.1562 21.4805H7.01953C4.06641 21.4805 1.88672 19.418 1.88672 17.0273C1.88672 14.6836 3.30469 12.8203 5.78906 12.8203C5.95312 12.8203 6.01172 12.7383 6.01172 12.5859C6.01172 8.97656 8.61328 7.91016 11.0156 8.69531C11.1562 8.74219 11.2383 8.70703 11.3086 8.57812C12.4453 6.55078 14.1914 4.88672 17.2266 4.88672C21.0703 4.88672 23.7305 7.93359 23.9297 11.4141C23.9648 11.9531 23.9297 12.5859 23.8828 13.1367C23.8711 13.2891 23.9297 13.3711 24.0703 13.4062C26.2031 13.875 27.5742 15.4336 27.5742 17.5547C27.5742 19.7344 25.6523 21.4805 23.1562 21.4805Z" fill="black" fill-opacity="0.85"/>
<path d="M15.2812 19.3945C17.9062 19.3945 20.0039 17.2852 20.0039 14.6602C20.0039 14.2734 19.6641 13.9453 19.2773 13.9453C18.8789 13.9453 18.5508 14.2734 18.5508 14.6602C18.5508 16.4766 17.0977 17.9414 15.2812 17.9414C13.4766 17.9414 12.0234 16.4766 12.0234 14.6602C12.0234 13.1484 13.0547 11.8945 14.4375 11.5195V12.9023C14.4375 13.4062 14.9883 13.6055 15.375 13.2656L17.5547 11.3906C17.918 11.0742 17.8945 10.6055 17.5547 10.3125L15.375 8.46093C14.9883 8.14452 14.4375 8.33202 14.4375 8.83593V10.043C12.3398 10.3828 10.5703 12.2695 10.5703 14.625C10.5703 17.2852 12.668 19.3945 15.2812 19.3945Z" fill="black" fill-opacity="0.85"/>
</svg>
