<svg width="28" height="28" viewBox="0 0 28 28" fill="none" xmlns="http://www.w3.org/2000/svg">
<g clip-path="url(#clip0_2124_24872)">
<path d="M13.8633 21.5156C17.8008 21.5156 23.0391 21.3164 25.2539 21.0586C26.8477 20.8828 27.7266 20.0039 27.7266 18.5039V16.4414C27.7266 14.4609 27.3281 13.3594 26.25 11.9531L25.2539 10.6758C24.832 8.56641 24.0469 6.35156 23.6484 5.48438C23.0156 4.16016 21.8086 3.375 20.25 3.16406C19.4648 3.05859 16.8984 3 13.8633 3C10.8398 3 8.27344 3.07031 7.48828 3.16406C5.92969 3.35156 4.71094 4.16016 4.08984 5.48438C3.67969 6.35156 2.90625 8.56641 2.47266 10.6758L1.48828 11.9531C0.398438 13.3594 0 14.4609 0 16.4414V18.5039C0 20.0039 0.890625 20.8828 2.47266 21.0586C4.69922 21.3164 9.92578 21.5156 13.8633 21.5156ZM13.8633 19.9805C9.87891 19.9805 4.76953 19.793 2.88281 19.5586C1.88672 19.4414 1.53516 18.9258 1.53516 18.0352V16.4414C1.53516 14.8359 1.79297 14.0859 2.70703 12.8906L3.90234 11.3203C4.21875 9.62109 4.98047 7.25391 5.48438 6.17578C5.85938 5.36719 6.59766 4.86328 7.66406 4.73438C8.41406 4.64062 10.793 4.53516 13.8633 4.53516C16.9453 4.53516 19.3594 4.64062 20.0391 4.73438C21.1406 4.875 21.8672 5.37891 22.2539 6.17578C22.7578 7.25391 23.5195 9.62109 23.8242 11.3203L25.0312 12.8906C25.9336 14.0859 26.1914 14.8359 26.1914 16.4414V18.0352C26.1914 18.9258 25.8398 19.4414 24.8438 19.5586C22.9688 19.793 17.8477 19.9805 13.8633 19.9805ZM2.15625 24.7383H3.52734C4.40625 24.7383 5.08594 24.0586 5.08594 23.1914V20.4023L0.597656 19.7578V23.1914C0.597656 24.0586 1.27734 24.7383 2.15625 24.7383ZM24.1992 24.7383H25.582C26.4609 24.7383 27.1289 24.0586 27.1289 23.1914V19.7578L22.6523 20.4023V23.1914C22.6523 24.0586 23.3203 24.7383 24.1992 24.7383Z" fill="black" fill-opacity="0.85"/>
<path d="M10.1602 12.9609C10.1602 13.1719 10.3359 13.3242 10.5586 13.3242H13.4648L11.9062 17.4844C11.6953 18.0352 12.293 18.3398 12.6562 17.8945L17.332 12C17.4375 11.8945 17.4961 11.7656 17.4961 11.6602C17.4961 11.4492 17.3086 11.2852 17.0859 11.2852H14.1914L15.7383 7.13672C15.9375 6.57422 15.3516 6.28125 15 6.72656L10.3008 12.6211C10.2188 12.7383 10.1602 12.8438 10.1602 12.9609Z" fill="black" fill-opacity="0.85"/>
</g>
<defs>
<clipPath id="clip0_2124_24872">
<rect width="27.7266" height="21.7852" fill="white" transform="translate(0 3)"/>
</clipPath>
</defs>
</svg>
