<svg width="33" height="28" viewBox="0 0 33 28" fill="none" xmlns="http://www.w3.org/2000/svg">
<path d="M25.7724 26.2656V3.97656C25.7724 2.05469 24.7177 1 22.8076 1H13.3623C11.4287 1 10.4091 2.05469 10.4091 3.97656V26.2656H25.7724ZM13.749 13.2344C12.8935 13.2344 12.3896 12.7656 12.3896 11.9805V4.24609C12.3896 3.46094 12.8935 2.98047 13.749 2.98047H22.4209C23.2763 2.98047 23.8037 3.46094 23.8037 4.24609V11.9805C23.8037 12.7656 23.2763 13.2344 22.4209 13.2344H13.749ZM8.55762 26.1836C8.55762 26.7109 8.9795 27.1445 9.4834 27.1445H26.6865C27.1904 27.1445 27.624 26.7109 27.624 26.1836C27.624 25.6797 27.1904 25.2578 26.6865 25.2578H9.4834C8.99122 25.2578 8.55762 25.668 8.55762 26.1836ZM24.8818 16.4336H25.8896C26.4287 16.4336 26.7685 16.7383 26.7685 17.3242V21.2031C26.7685 22.8672 27.7763 23.875 29.4404 23.875C31.0927 23.875 32.0888 22.8672 32.0888 21.2031V6.84766C32.0888 6.14453 31.9013 5.60547 31.5615 5.06641L29.956 2.46484C29.3584 1.51563 27.9638 2.37109 28.5615 3.33203L29.9326 5.55859C30.0615 5.76953 30.0498 6.01562 29.9091 6.22656L28.374 8.37109C27.8818 9.0625 27.9404 9.71875 28.4677 10.3398L30.4365 12.625V21.2031C30.4365 21.8359 30.0615 22.2227 29.4404 22.2227C28.7959 22.2227 28.4209 21.8359 28.4209 21.2031V17.3242C28.4209 15.707 27.4599 14.7812 25.8896 14.7812H24.8818V16.4336Z" fill="black" fill-opacity="0.85"/>
<path d="M0.34283 13.5039C-0.102483 13.7617 -0.12592 14.3828 0.34283 14.6523L6.36627 18.2031C6.85845 18.4961 7.43267 18.2617 7.43267 17.7578V10.375C7.43267 9.88278 6.8233 9.66013 6.36627 9.92966L0.34283 13.5039Z" fill="black" fill-opacity="0.85"/>
</svg>
