<svg width="35" height="28" viewBox="0 0 35 28" fill="none" xmlns="http://www.w3.org/2000/svg">
<path d="M32.8828 21.6562C33.7148 21.6562 34.418 20.9766 34.418 20.1797C34.418 19.3711 33.7266 18.7031 32.8828 18.7031C32.0391 18.7031 31.3477 19.3711 31.3477 20.1797C31.3477 20.9766 32.0508 21.6562 32.8828 21.6562ZM32.8828 16.4531C33.457 16.4531 33.8672 16.0547 33.8906 15.457L34.125 7.16016C34.1484 6.41016 33.6562 5.90625 32.8828 5.90625C32.1094 5.90625 31.6172 6.41016 31.6406 7.16016L31.8867 15.457C31.9102 16.0547 32.3086 16.4531 32.8828 16.4531Z" fill="black" fill-opacity="0.85"/>
<path d="M5.74219 16.1836C5.23828 16.1836 4.83984 15.7969 4.83984 15.293C4.83984 14.7773 5.23828 14.3906 5.74219 14.3906H10.7695C11.2734 14.3906 11.6602 14.7773 11.6602 15.293C11.6602 15.7969 11.2734 16.1836 10.7695 16.1836H5.74219ZM19.3477 18.9375C18.8555 18.9375 18.4453 18.5508 18.4453 18.0469V16.1836H16.582C16.0781 16.1836 15.6914 15.7969 15.6914 15.293C15.6914 14.7773 16.0781 14.3906 16.582 14.3906H18.4453V12.5273C18.4453 12.0234 18.8555 11.625 19.3477 11.625C19.8516 11.625 20.2383 12.0234 20.2383 12.5273V14.3906H22.1016C22.6055 14.3906 23.0039 14.7773 23.0039 15.293C23.0039 15.7969 22.6055 16.1836 22.1016 16.1836H20.2383V18.0469C20.2383 18.5508 19.8516 18.9375 19.3477 18.9375ZM3.67969 24.5742H23.9531C26.4141 24.5742 27.6328 23.3672 27.6328 20.9531V9.62109C27.6328 7.20703 26.4141 6 23.9531 6H22.3359V4.42969C22.3359 3.53906 21.8203 3 20.918 3H17.4609C16.5703 3 16.0547 3.53906 16.0547 4.42969V6H11.5898V4.42969C11.5898 3.53906 11.0742 3 10.1719 3H6.71484C5.8125 3 5.30859 3.53906 5.30859 4.42969V6H3.67969C1.23047 6 0 7.20703 0 9.62109V20.9531C0 23.3672 1.23047 24.5742 3.67969 24.5742Z" fill="black" fill-opacity="0.85"/>
</svg>
