<svg width="28" height="29" viewBox="0 0 28 29" fill="none" xmlns="http://www.w3.org/2000/svg">
<path d="M11.3086 10.2422C12.7266 10.2422 13.875 9.09375 13.875 7.67578C13.875 6.25781 12.7266 5.12109 11.3086 5.12109C9.89062 5.12109 8.75391 6.25781 8.75391 7.67578C8.75391 9.09375 9.89062 10.2422 11.3086 10.2422ZM5.07422 25.6406L12.1172 27.4102C13.1133 27.6562 13.7812 26.9297 13.6523 26.0039L12.9961 21.5156H18.5742L22.9336 25.9336C23.3906 26.3906 24.1523 26.3906 24.6094 25.9336C25.1016 25.4766 25.0781 24.7031 24.6094 24.2344L20.0039 19.6055C19.6875 19.2891 19.5586 19.1953 19.0312 19.1367L13.9805 18.6328L12.7031 14.7773C12.6094 14.5078 12.8203 14.2383 13.1133 14.2969L22.3477 16.1367C22.9453 16.2539 23.6133 15.9375 23.7305 15.2227C23.8359 14.5781 23.4609 13.957 22.8164 13.8281L10.0547 11.2852C8.92969 11.0625 8.33203 10.8984 7.82812 10.4062L5.36719 7.96875V2.51953C5.36719 1.86328 4.83984 1.33594 4.19531 1.33594C3.51562 1.33594 3 1.86328 3 2.51953V8.26172C3 8.75391 3.05859 9.03516 3.41016 9.38672L6.15234 12.1172C6.71484 12.6914 6.78516 12.8906 6.98438 13.4648L10.6875 24.5977L5.64844 23.332C5.01562 23.168 4.37109 23.5664 4.23047 24.2109C4.08984 24.832 4.45312 25.4766 5.07422 25.6406ZM7.59375 2.92969C8.39062 2.92969 9.05859 2.28516 9.05859 1.46484C9.05859 0.65625 8.39062 0 7.59375 0C6.76172 0 6.14062 0.65625 6.14062 1.46484C6.14062 2.28516 6.76172 2.92969 7.59375 2.92969Z" fill="black" fill-opacity="0.85"/>
</svg>
