<svg width="28" height="28" viewBox="0 0 28 28" fill="none" xmlns="http://www.w3.org/2000/svg">
<path d="M13.9531 25.9062C20.4922 25.9062 25.9062 20.4805 25.9062 13.9531C25.9062 7.41406 20.4805 2 13.9414 2C7.41406 2 2 7.41406 2 13.9531C2 20.4805 7.42578 25.9062 13.9531 25.9062ZM13.9531 23.9141C8.42188 23.9141 4.00391 19.4844 4.00391 13.9531C4.00391 8.42188 8.41016 3.99219 13.9414 3.99219C19.4727 3.99219 23.9141 8.42188 23.9141 13.9531C23.9141 19.4844 19.4844 23.9141 13.9531 23.9141Z" fill="black" fill-opacity="0.85"/>
<path d="M8.65625 18.7578H14.8086C16.4727 18.7578 17.75 17.5039 17.75 15.8633C17.75 14.2578 16.4727 13.0508 14.7383 13.0039C14.082 11.7617 12.8984 11 11.4805 11C9.59375 11 8.01172 12.4648 7.80078 14.3164C6.86328 14.6328 6.20703 15.4648 6.20703 16.5078C6.20703 17.8086 7.20312 18.7578 8.65625 18.7578ZM21.7695 12.7461C21.7695 12.5117 21.6758 12.3594 21.4883 12.3594C21.207 12.3594 20.7734 12.7227 19.9766 12.7227C18.5352 12.7227 17.6211 11.8672 17.6211 10.543C17.6211 9.76952 18.043 9.20703 18.043 8.90234C18.043 8.72656 17.9023 8.60938 17.6797 8.60938C16.5195 8.66796 15.0547 10.0391 14.8672 11.75C14.9961 11.8906 15.1133 12.0547 15.2305 12.2188C17.0469 12.4414 18.4062 13.7891 18.5586 15.5352C20.5625 15.3477 21.7695 13.7539 21.7695 12.7461Z" fill="black" fill-opacity="0.85"/>
</svg>
