<svg width="29" height="29" viewBox="0 0 29 29" fill="none" xmlns="http://www.w3.org/2000/svg">
<g clip-path="url(#clip0_2124_45810)">
<path d="M4.01562 25.2285C4.01562 25.791 4.39062 26.1543 4.95312 26.1543H22.789C23.3515 26.1543 23.7265 25.791 23.7265 25.2285V1.9668C23.7265 1.4043 23.3515 1.0293 22.789 1.0293H4.95312C4.39062 1.0293 4.01562 1.4043 4.01562 1.9668V25.2285ZM5.90234 23.9277V3.26758C5.90234 3.00977 5.9961 2.91602 6.24219 2.91602H21.5C21.7461 2.91602 21.8398 3.00977 21.8398 3.26758V23.9277C21.8398 24.1855 21.7461 24.2676 21.5 24.2676H6.24219C5.9961 24.2676 5.90234 24.1855 5.90234 23.9277Z" fill="black" fill-opacity="0.85"/>
<path d="M7.16797 22.3223C7.16797 22.7559 7.41407 23.0137 7.84766 23.0137H19.8945C20.3281 23.0137 20.5742 22.7559 20.5742 22.3223V4.87305C20.5742 4.43946 20.3281 4.18164 19.8945 4.18164H7.84766C7.41407 4.18164 7.16797 4.43946 7.16797 4.87305V22.3223ZM8.35157 21.5605V5.63477C8.35157 5.45899 8.4336 5.36524 8.60938 5.36524H19.1328C19.3086 5.36524 19.3906 5.45899 19.3906 5.63477V21.5605C19.3906 21.7363 19.3086 21.8301 19.1328 21.8301H8.60938C8.4336 21.8301 8.35157 21.7363 8.35157 21.5605ZM8.30469 22.3574H19.414C19.8945 22.3574 20.1172 22.0527 20.1172 21.6074C20.1172 20.2832 18.125 16.8262 13.8594 16.8262C9.60547 16.8262 7.60157 20.2832 7.60157 21.6074C7.60157 22.0527 7.82422 22.3574 8.30469 22.3574ZM13.8594 15.8301C15.5937 15.8418 16.9765 14.377 16.9765 12.4316C16.9765 10.6035 15.5937 9.0918 13.8594 9.0918C12.1367 9.0918 10.7422 10.6035 10.7422 12.4316C10.7422 14.377 12.1367 15.8184 13.8594 15.8301Z" fill="black" fill-opacity="0.85"/>
</g>
<defs>
<clipPath id="clip0_2124_45810">
<rect width="19.7109" height="25.1367" fill="white" transform="translate(4.01562 1.0293)"/>
</clipPath>
</defs>
</svg>
