<svg width="28" height="28" viewBox="0 0 28 28" fill="none" xmlns="http://www.w3.org/2000/svg">
<path d="M6.67969 24.5977H20.8945C23.3555 24.5977 24.5742 23.3789 24.5742 20.9648V6.65625C24.5742 4.24219 23.3555 3.02344 20.8945 3.02344H6.67969C4.23047 3.02344 3 4.23047 3 6.65625V20.9648C3 23.3906 4.23047 24.5977 6.67969 24.5977Z" fill="black" fill-opacity="0.85"/>
<path d="M9.96094 18.9258C7.54688 18.9258 6.82031 16.2305 6.82031 13.793C6.82031 11.3555 7.54688 8.66016 9.96094 8.66016C12.3633 8.66016 13.0898 11.3555 13.0898 13.793C13.0898 16.2305 12.3633 18.9258 9.96094 18.9258ZM9.96094 17.4844C10.9453 17.4844 11.3203 15.8906 11.3203 13.793C11.3203 11.6836 10.9453 10.1016 9.96094 10.1016C8.97656 10.1016 8.60156 11.6836 8.60156 13.793C8.60156 15.8906 8.97656 17.4844 9.96094 17.4844ZM17.625 18.9258C15.2227 18.9258 14.4961 16.2305 14.4961 13.793C14.4961 11.3555 15.2227 8.66016 17.625 8.66016C20.0508 8.66016 20.7656 11.3555 20.7656 13.793C20.7656 16.2305 20.0508 18.9258 17.625 18.9258ZM17.625 17.4844C18.6094 17.4844 18.9844 15.8906 18.9844 13.793C18.9844 11.6836 18.6094 10.1016 17.625 10.1016C16.6406 10.1016 16.2656 11.6836 16.2656 13.793C16.2656 15.8906 16.6406 17.4844 17.625 17.4844Z" fill="white"/>
</svg>
