<svg width="28" height="28" viewBox="0 0 28 28" fill="none" xmlns="http://www.w3.org/2000/svg">
<g clip-path="url(#clip0_2124_67743)">
<path d="M13.9531 25.918C20.4922 25.918 25.9062 20.5039 25.9062 13.9648C25.9062 7.4375 20.4805 2.01172 13.9414 2.01172C7.41406 2.01172 2 7.4375 2 13.9648C2 20.5039 7.42578 25.918 13.9531 25.918Z" fill="black" fill-opacity="0.85"/>
<path d="M8.97266 19.3555C7.70703 19.3555 7.07422 18.7461 7.07422 17.4688V11.457C7.07422 10.1914 7.70703 9.57031 8.97266 9.57031H10.2617V8.94922C10.2617 7.98828 10.8945 7.41406 11.8906 7.41406H16.0156C17.0117 7.41406 17.6445 7.98828 17.6445 8.94922V9.57031H18.9336C20.1992 9.57031 20.8438 10.1914 20.8438 11.457V17.4688C20.8438 18.7461 20.1992 19.3555 18.9336 19.3555H8.97266ZM11.4336 9.57031H16.4844V9.00781C16.4844 8.69141 16.2852 8.50391 15.957 8.50391H11.9727C11.6328 8.50391 11.4336 8.69141 11.4336 9.00781V9.57031ZM11.0937 14.9961C11.0937 15.3242 11.3047 15.5352 11.6328 15.5352H12.875V16.7773C12.875 17.0938 13.0977 17.3047 13.4141 17.3047H14.4922C14.8203 17.3047 15.0312 17.0938 15.0312 16.7773V15.5352H16.2734C16.6016 15.5352 16.8125 15.3242 16.8125 14.9961V13.8945C16.8125 13.5781 16.6016 13.3672 16.2734 13.3672H15.0312V12.125C15.0312 11.8086 14.8203 11.5977 14.4922 11.5977H13.4141C13.0977 11.5977 12.875 11.8086 12.875 12.125V13.3672H11.6328C11.3047 13.3672 11.0937 13.5781 11.0937 13.8945V14.9961Z" fill="white"/>
</g>
<defs>
<clipPath id="clip0_2124_67743">
<rect width="23.9062" height="23.918" fill="white" transform="translate(2 2)"/>
</clipPath>
</defs>
</svg>
