<svg width="28" height="28" viewBox="0 0 28 28" fill="none" xmlns="http://www.w3.org/2000/svg">
<path d="M14.9531 24.3617C18.8086 24.3617 21.5859 22.4516 22.6172 19.5805C22.7461 19.2289 22.8047 18.8773 22.8164 18.5141C22.8281 17.9047 22.418 17.4828 21.7852 17.4828C21.1758 17.4828 20.8711 17.8227 20.6719 18.432C20.0156 20.7523 17.8008 22.3109 14.9648 22.3109C10.957 22.3109 8.35547 18.9711 8.35547 13.6391C8.35547 8.38904 10.9688 5.09607 14.9531 5.09607C17.6367 5.09607 19.8633 6.74842 20.5195 9.05701C20.7305 9.7367 21.0234 10.0062 21.6328 10.0062C22.2656 10.0062 22.6758 9.58435 22.6641 8.96326C22.6523 8.6117 22.5938 8.28357 22.4766 7.95545C21.4102 4.9906 18.4688 3.04529 14.9531 3.04529C9.55078 3.04529 6 7.15857 6 13.6391C6 20.2016 9.52734 24.3617 14.9531 24.3617ZM13.125 26.3539C12.832 27.4906 14.3906 27.7367 14.6484 26.7172L21.0586 1.54529C21.3281 0.478883 19.793 0.139039 19.5234 1.18201L13.125 26.3539ZM8.60156 26.2602C8.30859 27.3969 9.86719 27.643 10.125 26.6234L16.5352 1.45154C16.8047 0.385133 15.2578 0.0452888 15 1.08826L8.60156 26.2602Z" fill="black" fill-opacity="0.85"/>
</svg>
