<svg width="29" height="29" viewBox="0 0 29 29" fill="none" xmlns="http://www.w3.org/2000/svg">
<g clip-path="url(#clip0_2124_45944)">
<path d="M22.3239 8.42872C24.0817 8.42872 25.4762 6.96387 25.4762 5.26465C25.4762 3.49512 24.0817 2.06543 22.3239 2.06543C20.5543 2.06543 19.1364 3.49512 19.1364 5.26465C19.1364 7.01075 20.5543 8.42872 22.3239 8.42872ZM3.44491 25.1982C4.04257 25.8311 5.08554 25.7842 5.83554 25.0107L10.8746 19.8076C11.0387 19.6318 11.1676 19.585 11.4254 19.6904L15.3629 21.1787C17.8942 22.1514 20.2731 21.3193 21.3864 19.3037L23.9176 14.6982C24.902 12.9053 24.5856 11.0537 22.8746 10.1396C21.2223 9.23731 19.5114 9.917 18.5035 11.7568L15.2223 17.7451L12.4215 16.7256C11.0387 16.2217 9.89022 16.3857 8.78866 17.5342L3.55038 22.9482C2.8121 23.6982 2.88241 24.6357 3.44491 25.1982Z" fill="black" fill-opacity="0.85"/>
<path d="M7.20708 14.0068C7.75786 14.0068 8.19146 13.5732 8.19146 13.0107V7.6084H10.3243C11.3204 7.6084 11.6602 6.61231 11.0508 5.93262L7.91021 2.38184C7.46489 1.88965 6.89067 1.88965 6.4688 2.38184L3.31646 5.93262C2.67193 6.64747 3.0938 7.6084 4.05474 7.6084H6.19927V13.0107C6.19927 13.5732 6.64458 14.0068 7.20708 14.0068Z" fill="black" fill-opacity="0.85"/>
</g>
<defs>
<clipPath id="clip0_2124_45944">
<rect width="22.4688" height="23.8828" fill="white" transform="translate(3.00781 2.0127)"/>
</clipPath>
</defs>
</svg>
