<svg width="42" height="28" viewBox="0 0 42 28" fill="none" xmlns="http://www.w3.org/2000/svg">
<path d="M3.05859 21.3711H4.88672C4.81641 21.0195 4.75781 20.6562 4.75781 20.2695C4.75781 17.75 6.75 15.7695 9.25781 15.7695C11.7773 15.7695 13.7578 17.75 13.7578 20.2695C13.7578 20.6562 13.7109 21.0195 13.6289 21.3711H28.5586C28.4883 21.0195 28.4297 20.6562 28.4297 20.2695C28.4297 17.75 30.4219 15.7695 32.9297 15.7695C35.4492 15.7695 37.4297 17.75 37.4297 20.2695C37.4297 20.6562 37.3828 21.0195 37.3008 21.3711H38.8477C40.5352 21.3711 41.5664 20.3047 41.5664 18.5703V13.8594C41.5664 12.2188 41.0742 10.8242 38.8945 10.1445L36.4805 9.40625C34.957 7.58984 32.2969 5 27.457 5H24.7031C19.875 5 17.9531 5.46875 15.0703 7.27344L10.3477 10.2383L5.14453 10.8711C1.91016 11.2695 0 13.1328 0 15.9219V18.2422C0 20.2344 1.11328 21.3711 3.05859 21.3711ZM9.25781 23.3984C11.0156 23.3984 12.3984 22.0156 12.3984 20.2695C12.3984 18.5234 11.0039 17.1289 9.25781 17.1289C7.52344 17.1289 6.12891 18.5234 6.12891 20.2695C6.12891 22.0039 7.52344 23.3984 9.25781 23.3984ZM32.9297 23.3984C34.6758 23.3984 36.0703 22.0039 36.0703 20.2695C36.0703 18.5234 34.6758 17.1289 32.9297 17.1289C31.207 17.1289 29.8008 18.5352 29.8008 20.2695C29.8008 22.0039 31.1953 23.3984 32.9297 23.3984Z" fill="black" fill-opacity="0.85"/>
</svg>
