<svg width="28" height="28" viewBox="0 0 28 28" fill="none" xmlns="http://www.w3.org/2000/svg">
<path d="M13.8984 26.4805C21.6914 26.4805 27.7969 20.375 27.7969 13.0391C27.7969 9.16016 26.1094 5.65625 23.6836 3.37109C22.6758 2.42188 21.5859 2 20.0859 2H7.71094C6.21094 2 5.12109 2.42188 4.11328 3.37109C1.6875 5.65625 0 9.16016 0 13.0391C0 20.375 6.11719 26.4805 13.8984 26.4805Z" fill="black" fill-opacity="0.85"/>
<path d="M10.2188 9.73438C9.04688 9.73438 8.09766 8.77344 8.09766 7.625C8.09766 6.46484 9.04688 5.51562 10.2188 5.51562C11.3789 5.51562 12.3164 6.46484 12.3164 7.625C12.3164 8.77344 11.3789 9.73438 10.2188 9.73438ZM17.5898 9.73438C16.418 9.73438 15.4805 8.77344 15.4805 7.625C15.4805 6.46484 16.418 5.51562 17.5898 5.51562C18.75 5.51562 19.6992 6.46484 19.6992 7.625C19.6992 8.77344 18.75 9.73438 17.5898 9.73438ZM6.51562 15.9336C4.91016 15.9336 3.59766 14.6211 3.59766 13.0156C3.59766 11.3984 4.91016 10.0977 6.51562 10.0977C8.13281 10.0977 9.44531 11.3984 9.44531 13.0156C9.44531 14.6211 8.13281 15.9336 6.51562 15.9336ZM13.8984 15.9336C12.293 15.9336 10.9805 14.6211 10.9805 13.0156C10.9805 11.3984 12.293 10.0977 13.8984 10.0977C15.5039 10.0977 16.8164 11.3984 16.8164 13.0156C16.8164 14.6211 15.5039 15.9336 13.8984 15.9336ZM21.2812 15.9336C19.6758 15.9336 18.3516 14.6211 18.3516 13.0156C18.3516 11.3984 19.6758 10.0977 21.2812 10.0977C22.8867 10.0977 24.1992 11.3984 24.1992 13.0156C24.1992 14.6211 22.8867 15.9336 21.2812 15.9336ZM10.2188 22.2031C8.60156 22.2031 7.28906 20.9023 7.28906 19.2852C7.28906 17.6797 8.60156 16.3555 10.2188 16.3555C11.8242 16.3555 13.1367 17.6797 13.1367 19.2852C13.1367 20.9023 11.8242 22.2031 10.2188 22.2031ZM17.5898 22.2031C15.9844 22.2031 14.6719 20.9023 14.6719 19.2852C14.6719 17.6797 15.9844 16.3555 17.5898 16.3555C19.1953 16.3555 20.5078 17.6797 20.5078 19.2852C20.5078 20.9023 19.1953 22.2031 17.5898 22.2031Z" fill="white"/>
</svg>
