<svg width="28" height="28" viewBox="0 0 28 28" fill="none" xmlns="http://www.w3.org/2000/svg">
<path d="M13.9531 25.9062C20.4922 25.9062 25.9062 20.4805 25.9062 13.9531C25.9062 7.41406 20.4805 2 13.9414 2C7.41406 2 2 7.41406 2 13.9531C2 20.4805 7.42578 25.9062 13.9531 25.9062Z" fill="black" fill-opacity="0.85"/>
<path d="M10.4375 19.543C9.96875 19.543 9.62891 19.2383 9.62891 18.7344V14.7852C9.62891 11.6094 11.0703 9.80469 13.2852 9.52344V8.26953C13.2852 7.84766 13.5664 7.61328 13.9531 7.61328C14.293 7.61328 14.6094 7.84766 14.6094 8.26953V9.51172C16.8242 9.79297 18.2891 11.5977 18.2891 14.7852V18.7344C18.2891 19.2383 17.9609 19.543 17.4922 19.543C17.0352 19.543 16.7188 19.2383 16.7188 18.7344V14.8906C16.7188 12.6055 15.9102 11.3164 14.6094 11.0234V18.875C14.6094 19.2734 14.293 19.543 13.9531 19.543C13.5664 19.543 13.2852 19.2734 13.2852 18.875V11.0352C11.9961 11.3633 11.2227 12.6406 11.2227 14.8906V18.7344C11.2227 19.2383 10.9062 19.543 10.4375 19.543Z" fill="white"/>
</svg>
