<svg width="28" height="28" viewBox="0 0 28 28" fill="none" xmlns="http://www.w3.org/2000/svg">
<path d="M6.67969 24.5977H20.8945C23.3555 24.5977 24.5742 23.3789 24.5742 20.9648V6.65625C24.5742 4.24219 23.3555 3.02344 20.8945 3.02344H6.67969C4.23047 3.02344 3 4.23047 3 6.65625V20.9648C3 23.3906 4.23047 24.5977 6.67969 24.5977Z" fill="black" fill-opacity="0.85"/>
<path d="M10.4297 18.9258C8.02734 18.9258 7.30078 16.2305 7.30078 13.793C7.30078 11.3555 8.02734 8.66016 10.4297 8.66016C12.8438 8.66016 13.5703 11.3555 13.5703 13.793C13.5703 16.2305 12.8438 18.9258 10.4297 18.9258ZM10.4297 17.4844C11.4141 17.4844 11.7891 15.8906 11.7891 13.793C11.7891 11.6836 11.4141 10.1016 10.4297 10.1016C9.44531 10.1016 9.07031 11.6836 9.07031 13.793C9.07031 15.8906 9.44531 17.4844 10.4297 17.4844ZM16.3242 18.8438C15.7383 18.8438 15.5273 18.4453 15.5273 18.0938C15.5273 17.8008 15.5625 17.6484 15.668 17.3789L18.3516 10.4531V10.3477H15.2461C14.8242 10.3477 14.543 10.043 14.543 9.62109C14.543 9.21094 14.8242 8.90625 15.2461 8.90625H19.1484C19.6875 8.90625 20.1094 9.28125 20.1094 9.84375C20.1094 10.1953 20.0273 10.4883 19.8867 10.8633L17.1328 18.2227C16.9688 18.668 16.7695 18.8438 16.3242 18.8438Z" fill="white"/>
</svg>
