<svg width="28" height="28" viewBox="0 0 28 28" fill="none" xmlns="http://www.w3.org/2000/svg">
<path d="M23.8945 23.5273C24.5156 23.5273 24.7969 23.1289 24.9023 22.6484C24.9727 22.2969 24.9961 21.7109 24.9961 21.0312C24.9961 15.3594 22.7344 12.9219 17.168 12.9219H8.97656L6.10547 13.0859L10.0547 9.47656L12.6562 6.82812C12.8438 6.64062 12.9375 6.37109 12.9375 6.08984C12.9375 5.50391 12.4922 5.08203 11.918 5.08203C11.6367 5.08203 11.3789 5.17578 11.1211 5.43359L3.36328 13.1797C3.12891 13.4023 3 13.6836 3 13.9648C3 14.2578 3.12891 14.5273 3.36328 14.7617L11.1445 22.5312C11.3906 22.7539 11.6367 22.8594 11.918 22.8594C12.4922 22.8594 12.9375 22.4375 12.9375 21.8516C12.9375 21.5703 12.8438 21.2891 12.6562 21.1016L10.0547 18.4531L6.09375 14.8438L8.97656 15.0195H17.0625C21.3633 15.0195 22.875 16.7891 22.875 21.1367C22.875 21.6875 22.8516 22.0742 22.8516 22.4844C22.8516 23.1055 23.2852 23.5273 23.8945 23.5273Z" fill="black" fill-opacity="0.85"/>
</svg>
