<svg width="29" height="29" viewBox="0 0 29 29" fill="none" xmlns="http://www.w3.org/2000/svg">
<g clip-path="url(#clip0_2124_45939)">
<path d="M22.3224 8.5752C24.0803 8.5752 25.4865 7.11036 25.4865 5.41114C25.4865 3.64161 24.0803 2.2002 22.3224 2.2002C20.5529 2.2002 19.1349 3.64161 19.1349 5.41114C19.1349 7.1455 20.5529 8.5752 22.3224 8.5752ZM20.2834 20.7158C20.799 20.3057 21.2912 19.6143 21.7599 18.7471L23.9162 14.833C24.9123 13.0283 24.5842 11.1885 22.8849 10.2744C21.2326 9.36035 19.5217 10.0635 18.5139 11.8916L16.2873 15.9111L20.2834 20.7158ZM3.44352 25.3213C4.05289 25.9658 5.09586 25.9072 5.84586 25.1455L10.8849 19.9424C11.0607 19.7666 11.1662 19.7197 11.424 19.8252L15.6779 21.4307C16.6037 21.7822 17.6115 21.7119 18.3498 21.5713L15.4201 17.9502L12.4318 16.8604C11.049 16.3565 9.90055 16.5205 8.78727 17.6689L3.54899 23.083C2.83415 23.833 2.89274 24.7705 3.44352 25.3213ZM22.8146 25.4619C23.2951 25.0869 23.3303 24.501 22.8732 23.9502L20.2834 20.7158C19.6857 21.1377 19.0295 21.4307 18.3498 21.5713L21.3381 25.2393C21.7717 25.7666 22.3224 25.8721 22.8146 25.4619Z" fill="black" fill-opacity="0.85"/>
<path d="M8.98633 13.9072C12.3027 13.9072 14.8808 11.1768 14.8808 8.00098C14.8808 4.68458 12.3027 2.0127 8.98633 2.0127C5.68164 2.0127 3.02148 4.68458 3.02148 8.00098C3.02148 11.1768 5.68164 13.9072 8.98633 13.9072Z" fill="black" fill-opacity="0.85"/>
</g>
<defs>
<clipPath id="clip0_2124_45939">
<rect width="22.465" height="23.9414" fill="white" transform="translate(3.02148 2.0127)"/>
</clipPath>
</defs>
</svg>
