<svg width="28" height="28" viewBox="0 0 28 28" fill="none" xmlns="http://www.w3.org/2000/svg">
<path d="M15.2422 22.7656C15.5234 22.7656 15.7695 22.6719 16.0039 22.4492L23.7969 14.668C24.0312 14.4453 24.1484 14.1758 24.1484 13.8828C24.1484 13.6016 24.0312 13.332 23.7969 13.0977L16.0039 5.32812C15.7695 5.10547 15.5234 5 15.2422 5C14.668 5 14.2227 5.43359 14.2227 6.00781C14.2227 6.28906 14.3164 6.57031 14.5039 6.75781L17.1289 9.41797L21.7344 13.625L21.9688 12.9688L18.4766 12.8398H3.03125C2.42188 12.8398 2 13.2734 2 13.8828C2 14.4922 2.42188 14.9375 3.03125 14.9375H18.4766L21.9688 14.8086L21.7344 14.1641L17.1289 18.3477L14.5039 21.0195C14.3164 21.207 14.2227 21.4883 14.2227 21.7578C14.2227 22.3438 14.668 22.7656 15.2422 22.7656ZM25.1914 22.7656C25.8008 22.7656 26.2461 22.3555 26.2461 21.7578V6.04297C26.2461 5.43359 25.8008 5 25.1914 5C24.582 5 24.1484 5.43359 24.1484 6.04297V21.7578C24.1484 22.3555 24.582 22.7656 25.1914 22.7656Z" fill="black" fill-opacity="0.85"/>
</svg>
