<svg width="28" height="28" viewBox="0 0 28 28" fill="none" xmlns="http://www.w3.org/2000/svg">
<path d="M13.9531 25.9062C20.4922 25.9062 25.9062 20.4805 25.9062 13.9531C25.9062 7.41406 20.4805 2 13.9414 2C7.41406 2 2 7.41406 2 13.9531C2 20.4805 7.42578 25.9062 13.9531 25.9062ZM13.9531 23.9141C8.42188 23.9141 4.00391 19.4844 4.00391 13.9531C4.00391 8.42188 8.41016 3.99219 13.9414 3.99219C19.4727 3.99219 23.9141 8.42188 23.9141 13.9531C23.9141 19.4844 19.4844 23.9141 13.9531 23.9141Z" fill="black" fill-opacity="0.85"/>
<path d="M8.16338 16.6719C8.51494 17.0469 9.08916 17.0469 9.41729 16.6953L13.9524 11.8906L18.4876 16.6953C18.8274 17.0469 19.4016 17.0469 19.7415 16.6719C20.0696 16.3555 20.0579 15.8047 19.7063 15.4414L15.1126 10.5547C14.3743 9.78125 13.5305 9.78125 12.804 10.5547L8.19854 15.4414C7.84698 15.8047 7.83526 16.3555 8.16338 16.6719Z" fill="black" fill-opacity="0.85"/>
</svg>
