<svg width="31" height="29" viewBox="0 0 31 29" fill="none" xmlns="http://www.w3.org/2000/svg">
<g clip-path="url(#clip0_2124_45766)">
<path d="M8.04297 24.7312H22.7617C24.707 24.7312 25.6328 24.1453 25.6328 22.8562C25.6328 19.7859 21.7539 15.3445 15.4023 15.3445C9.03907 15.3445 5.16016 19.7859 5.16016 22.8562C5.16016 24.1453 6.08594 24.7312 8.04297 24.7312ZM7.48047 22.9617C7.17579 22.9617 7.04688 22.8797 7.04688 22.6336C7.04688 20.7 10.0234 17.114 15.4023 17.114C20.7695 17.114 23.7461 20.7 23.7461 22.6336C23.7461 22.8797 23.6289 22.9617 23.3242 22.9617H7.48047ZM15.4023 13.8797C18.1914 13.8797 20.4648 11.407 20.4648 8.38355C20.4648 5.38355 18.2031 3.02808 15.4023 3.02808C12.625 3.02808 10.3398 5.43042 10.3398 8.40699C10.3398 11.4187 12.625 13.8797 15.4023 13.8797ZM15.4023 12.1101C13.6914 12.1101 12.2266 10.4812 12.2266 8.40699C12.2266 6.36792 13.668 4.79761 15.4023 4.79761C17.1484 4.79761 18.5781 6.33277 18.5781 8.38355C18.5781 10.4578 17.1367 12.1101 15.4023 12.1101Z" fill="black" fill-opacity="0.85"/>
<path d="M0.320312 9.01636L3.46094 11.3484C4.11719 11.8406 4.89063 11.5476 4.89063 10.739V9.29761H7.91407C8.42969 9.29761 8.83985 8.89917 8.83985 8.38355C8.83985 7.87964 8.42969 7.46949 7.91407 7.46949H4.89063V6.05152C4.89063 5.20777 4.09375 4.96167 3.46094 5.43042L0.320312 7.77417C-0.101562 8.1023 -0.101562 8.69996 0.320312 9.01636ZM21.9531 8.38355C21.9531 8.89917 22.3516 9.29761 22.8672 9.29761H25.8906V10.739C25.8906 11.5476 26.6758 11.8406 27.3203 11.3484L30.4609 9.01636C30.8945 8.69996 30.8945 8.1023 30.4609 7.77417L27.3203 5.43042C26.6992 4.96167 25.8906 5.20777 25.8906 6.05152V7.46949H22.8672C22.3516 7.46949 21.9531 7.87964 21.9531 8.38355Z" fill="black" fill-opacity="0.85"/>
</g>
<defs>
<clipPath id="clip0_2124_45766">
<rect width="30.7822" height="21.7148" fill="white" transform="translate(0.00390625 3.02808)"/>
</clipPath>
</defs>
</svg>
