<svg width="29" height="28" viewBox="0 0 29 28" fill="none" xmlns="http://www.w3.org/2000/svg">
<path d="M2.89453 24.4336H9.96094C11.9883 24.4336 12.8555 23.5898 12.8555 21.5977V18.9258H15.8672V23.1328C15.8672 23.918 16.4414 24.5039 17.2383 24.5039C17.8125 24.5039 18.2812 24.2695 18.8438 23.7422L28.0898 15.0117C28.5469 14.5898 28.6875 14.1445 28.6875 13.7578C28.6875 13.3594 28.5469 12.9141 28.0898 12.4922L18.8438 3.84375C18.2227 3.25781 17.8359 3 17.2617 3C16.4414 3 15.8672 3.65625 15.8672 4.44141V8.98828H8.26172C6.23438 8.98828 5.36719 9.83203 5.36719 11.8242V14.2734H2.89453C0.867188 14.2734 0 15.1055 0 17.0977V21.5977C0 23.5898 0.867188 24.4336 2.89453 24.4336ZM3.03516 22.5938C2.26172 22.5938 1.88672 22.1719 1.88672 21.3164V17.3789C1.88672 16.5234 2.26172 16.1133 3.03516 16.1133H5.39062V16.6758C5.39062 17.3906 5.61328 17.9062 6.26953 18.3164L10.9688 21.1875V21.3164C10.9688 22.1719 10.5938 22.5938 9.82031 22.5938H3.03516ZM17.918 21.9844C17.8125 21.9844 17.7539 21.9141 17.7539 21.8086V17.2734C17.7539 17.0039 17.625 16.8867 17.3555 16.8867H8.40234C7.62891 16.8867 7.25391 16.4648 7.25391 15.6094V11.918C7.25391 11.0508 7.62891 10.6406 8.40234 10.6406H17.3555C17.625 10.6406 17.7539 10.5234 17.7539 10.2539V5.60156C17.7539 5.50781 17.8125 5.4375 17.918 5.4375C17.9883 5.4375 18.0586 5.48438 18.1172 5.53125L26.4609 13.5352C26.5547 13.6172 26.5898 13.6875 26.5898 13.7578C26.5898 13.8281 26.5547 13.8867 26.4609 13.9805L18.1172 21.8789C18.0469 21.9492 17.9766 21.9844 17.918 21.9844Z" fill="black" fill-opacity="0.85"/>
</svg>
