<svg width="28" height="28" viewBox="0 0 28 28" fill="none" xmlns="http://www.w3.org/2000/svg">
<path d="M14.9531 24.8477C20.1211 24.8477 22.957 21.543 22.957 16.1875V15.0391C22.957 14.3008 22.5117 13.8438 21.7969 13.8438H15.3398V15.8125H20.7188V16.6797C20.7188 20.3711 18.5508 22.7969 14.9648 22.7969C10.957 22.7969 8.35547 19.4336 8.35547 14.1133C8.35547 8.86328 10.957 5.57031 14.9531 5.57031C17.6133 5.57031 19.8281 7.17578 20.4609 9.46094C20.6719 10.1406 20.9648 10.4102 21.5742 10.4102C22.207 10.4102 22.6172 9.98828 22.6055 9.36719C22.6055 9.02734 22.5469 8.6875 22.4297 8.35938C21.3984 5.47656 18.4805 3.51953 14.9531 3.51953C9.55078 3.51953 6 7.63281 6 14.1133C6 20.6758 9.52734 24.8477 14.9531 24.8477ZM14.8477 27.3086C15.2812 27.3086 15.6094 26.9922 15.6094 26.5352V1.85547C15.6094 1.41016 15.2812 1.09375 14.8477 1.09375C14.4141 1.09375 14.0859 1.41016 14.0859 1.85547V26.5352C14.0859 26.9922 14.4141 27.3086 14.8477 27.3086Z" fill="black" fill-opacity="0.85"/>
</svg>
