<svg width="29" height="29" viewBox="0 0 29 29" fill="none" xmlns="http://www.w3.org/2000/svg">
<g clip-path="url(#clip0_2124_45973)">
<path d="M4.01563 13.9558C4.01563 12.8894 4.17969 11.8582 4.48438 10.9089L2.64453 10.1355C2.24609 11.3425 2.01172 12.6199 2.01172 13.9558C2.01172 15.28 2.24609 16.5691 2.65625 17.7761L4.48438 17.0027C4.17969 16.0535 4.01563 15.0222 4.01563 13.9558ZM9.40625 5.073L8.65625 3.26831C6.33594 4.42847 4.42578 6.33863 3.26563 8.65894L5.09375 9.42066C6.03125 7.55738 7.55469 6.03394 9.40625 5.073ZM13.9531 3.99488C15.0195 3.99488 16.0508 4.15894 17.0234 4.47535L17.7734 2.64722C16.5664 2.23706 15.2773 2.00269 13.9531 2.00269C12.6289 2.00269 11.3281 2.23706 10.1211 2.64722L10.8945 4.47535C11.8555 4.15894 12.8867 3.99488 13.9531 3.99488ZM22.8359 9.40894L24.6523 8.65894C23.4805 6.33863 21.5703 4.42847 19.25 3.2566L18.5 5.073C20.3515 6.02222 21.8867 7.54566 22.8359 9.40894ZM23.9258 13.9558C23.9258 15.0222 23.7617 16.0535 23.457 17.0144L25.2734 17.7879C25.6836 16.5808 25.9179 15.28 25.9179 13.9558C25.9179 12.6199 25.6836 11.3308 25.2734 10.1238L23.4453 10.8972C23.7617 11.8582 23.9258 12.8894 23.9258 13.9558ZM18.5 22.8269L19.25 24.655C21.582 23.4832 23.4922 21.573 24.6406 19.2527L22.8476 18.5027C21.8984 20.366 20.3633 21.8777 18.5 22.8269ZM13.9648 23.9168C12.8867 23.9168 11.8555 23.7527 10.8945 23.4363L10.1328 25.2644C11.3398 25.6746 12.6406 25.9089 13.9648 25.9089C15.289 25.9089 16.5781 25.6746 17.7734 25.2761L17.0117 23.448C16.0508 23.7527 15.0312 23.9168 13.9648 23.9168ZM5.09375 18.5027L3.27734 19.2527C4.44922 21.573 6.33594 23.4832 8.65625 24.6433L9.40625 22.8152C7.55469 21.866 6.03125 20.3543 5.09375 18.5027Z" fill="black" fill-opacity="0.85"/>
<path d="M13.9531 19.8269C16.4023 19.8269 18.0429 18.198 18.0429 17.4246C18.0429 17.155 17.7734 17.0261 17.5273 17.1433C16.6719 17.6004 15.6523 18.1277 13.9531 18.1277C12.2539 18.1277 11.2344 17.6004 10.3906 17.1433C10.1328 17.0261 9.86328 17.155 9.86328 17.4246C9.86328 18.198 11.5039 19.8269 13.9531 19.8269ZM10.4844 12.9246C11.2227 12.9246 11.8789 12.2566 11.8789 11.3191C11.8789 10.3699 11.2344 9.7019 10.4844 9.7019C9.7461 9.7019 9.10156 10.3699 9.10156 11.3191C9.10156 12.2566 9.7461 12.9246 10.4844 12.9246ZM17.4336 12.9246C18.1719 12.9246 18.8281 12.2566 18.8281 11.3191C18.8281 10.3699 18.1836 9.7019 17.4336 9.7019C16.6953 9.7019 16.0508 10.3699 16.0508 11.3191C16.0508 12.2566 16.6953 12.9246 17.4336 12.9246Z" fill="black" fill-opacity="0.85"/>
</g>
<defs>
<clipPath id="clip0_2124_45973">
<rect width="23.9062" height="23.918" fill="white" transform="translate(2.01172 2.00269)"/>
</clipPath>
</defs>
</svg>
