<svg width="31" height="28" viewBox="0 0 31 28" fill="none" xmlns="http://www.w3.org/2000/svg">
<path d="M3.80689 24.6255L6.15064 21.4849C6.61939 20.8521 6.37329 20.0552 5.54126 20.0552H3.8772V7.87941H5.54126C6.34986 7.87941 6.64282 7.10597 6.15064 6.44972L3.80689 3.32082C3.49048 2.88722 2.88111 2.89894 2.57642 3.32082L0.232669 6.44972C-0.2478 7.10597 0.0451684 7.87941 0.842044 7.87941H2.51782V20.0552H0.842044C0.0451684 20.0552 -0.2478 20.8286 0.232669 21.4849L2.57642 24.6255C2.89282 25.0474 3.49048 25.0474 3.80689 24.6255Z" fill="black" fill-opacity="0.85"/>
<path d="M11.1308 5.65283H29.9628C30.455 5.65283 30.8535 5.26611 30.8535 4.7622C30.8535 4.27001 30.455 3.8833 29.9628 3.8833H11.1308C10.6269 3.8833 10.2402 4.27001 10.2402 4.7622C10.2402 5.26611 10.6269 5.65283 11.1308 5.65283ZM11.1308 11.7935H29.9628C30.455 11.7935 30.8535 11.4067 30.8535 10.9028C30.8535 10.4106 30.455 10.0239 29.9628 10.0239H11.1308C10.6269 10.0239 10.2402 10.4106 10.2402 10.9028C10.2402 11.4067 10.6269 11.7935 11.1308 11.7935ZM11.1308 17.9341H29.9628C30.455 17.9341 30.8535 17.5357 30.8535 17.0435C30.8535 16.5513 30.455 16.1646 29.9628 16.1646H11.1308C10.6269 16.1646 10.2402 16.5513 10.2402 17.0435C10.2402 17.5357 10.6269 17.9341 11.1308 17.9341ZM11.1308 24.063H22.4511C22.9433 24.063 23.3417 23.6763 23.3417 23.1841C23.3417 22.6919 22.9433 22.2935 22.4511 22.2935H11.1308C10.6269 22.2935 10.2402 22.6919 10.2402 23.1841C10.2402 23.6763 10.6269 24.063 11.1308 24.063Z" fill="black" fill-opacity="0.85"/>
</svg>
