<svg width="28" height="28" viewBox="0 0 28 28" fill="none" xmlns="http://www.w3.org/2000/svg">
<g clip-path="url(#clip0_2124_24571)">
<path d="M2.69531 22.2734H25.2305C26.918 22.2734 27.9375 21.2539 27.9375 19.5664V5.51562C27.9375 3.82812 26.918 2.82031 25.2305 2.82031H2.69531C1.01953 2.82031 0 3.82812 0 5.51562V19.5664C0 21.2539 1.01953 22.2734 2.69531 22.2734ZM2.39062 17.1055C2.03906 17.1055 1.88672 16.9766 1.88672 16.6016V5.55078C1.88672 5.02344 2.21484 4.70703 2.73047 4.70703H25.207C25.7227 4.70703 26.0508 5.02344 26.0508 5.55078V16.6016C26.0508 16.9766 25.8867 17.1055 25.5352 17.1055H2.39062ZM10.2656 25.0625H17.6719V22.1211H10.2656V25.0625ZM10.1953 26.4336H17.7422C18.2578 26.4336 18.6797 26.0117 18.6797 25.4844C18.6797 24.957 18.2578 24.5352 17.7422 24.5352H10.1953C9.67969 24.5352 9.24609 24.957 9.24609 25.4844C9.24609 26.0117 9.67969 26.4336 10.1953 26.4336Z" fill="black" fill-opacity="0.85"/>
<path d="M9.76172 14C9.76172 14.668 10.0898 14.9961 10.7227 14.9961H14.6953C15.3281 14.9961 15.6445 14.668 15.6445 14V10.9531C15.6445 10.2852 15.3281 9.94531 14.6953 9.94531H10.7227C10.0898 9.94531 9.76172 10.2852 9.76172 10.9531V14ZM13.793 10.6367H14.9531V8.96094C14.9531 8.09375 15.4102 7.54297 16.207 7.54297C17.0039 7.54297 17.4727 8.09375 17.4727 8.96094V9.79297C17.4727 10.1094 17.7305 10.3789 18.0586 10.3789C18.3633 10.3789 18.6328 10.1094 18.6328 9.79297V8.96094C18.6328 7.48438 17.6836 6.40625 16.207 6.40625C14.7422 6.40625 13.793 7.48438 13.793 9.06641V10.6367Z" fill="black" fill-opacity="0.85"/>
</g>
<defs>
<clipPath id="clip0_2124_24571">
<rect width="27.9375" height="24.4336" fill="white" transform="translate(0 2)"/>
</clipPath>
</defs>
</svg>
