<svg width="28" height="28" viewBox="0 0 28 28" fill="none" xmlns="http://www.w3.org/2000/svg">
<path d="M9.41345 26.1602H20.3822C22.597 26.1602 23.933 24.8477 23.933 22.6445L23.9447 6.3203C23.9447 4.17577 22.7025 2.74608 20.3705 2.17187C17.5814 1.48046 14.7455 1.09374 11.7338 1.02343C7.64391 0.917957 5.0072 2.49999 4.50329 6.16796C3.85876 10.9375 3.83532 17.5586 4.42126 21.8711C4.7611 24.5195 6.65954 26.1602 9.41345 26.1602Z" fill="black" fill-opacity="0.85"/>
<path d="M8.99121 11.207C8.5459 11.207 8.18262 10.8555 8.18262 10.4219C8.18262 9.97656 8.5459 9.61328 8.99121 9.61328H19.2334C19.6787 9.61328 20.042 9.97656 20.042 10.4219C20.042 10.8555 19.6787 11.207 19.2334 11.207H8.99121ZM8.99121 15.2148C8.5459 15.2148 8.18262 14.8633 8.18262 14.4297C8.18262 13.9961 8.5459 13.6328 8.99121 13.6328H19.2334C19.6787 13.6328 20.042 13.9961 20.042 14.4297C20.042 14.8633 19.6787 15.2148 19.2334 15.2148H8.99121ZM8.99121 19.2344C8.5459 19.2344 8.18262 18.8828 8.18262 18.4258C8.18262 17.9922 8.5459 17.6406 8.99121 17.6406H19.2334C19.6787 17.6406 20.042 17.9922 20.042 18.4258C20.042 18.8828 19.6787 19.2344 19.2334 19.2344H8.99121Z" fill="white"/>
</svg>
