<svg width="28" height="28" viewBox="0 0 28 28" fill="none" xmlns="http://www.w3.org/2000/svg">
<path d="M6.67969 24.5977H20.8945C23.3555 24.5977 24.5742 23.3789 24.5742 20.9648V6.65625C24.5742 4.24219 23.3555 3.02344 20.8945 3.02344H6.67969C4.23047 3.02344 3 4.23047 3 6.65625V20.9648C3 23.3906 4.23047 24.5977 6.67969 24.5977ZM6.70312 22.7109C5.53125 22.7109 4.88672 22.0898 4.88672 20.8711V6.75C4.88672 5.53125 5.53125 4.91016 6.70312 4.91016H20.8711C22.0312 4.91016 22.6875 5.53125 22.6875 6.75V20.8711C22.6875 22.0898 22.0312 22.7109 20.8711 22.7109H6.70312Z" fill="black" fill-opacity="0.85"/>
<path d="M8.83594 18.5273H12.9023C13.3125 18.5273 13.5586 18.2578 13.5586 17.8477C13.5586 17.4023 13.3008 17.1562 12.9023 17.1562H10.1133V17.0625L11.8242 14.8945C12.9961 13.4414 13.3828 12.5742 13.3828 11.543C13.3828 9.96094 12.3047 8.8125 10.6875 8.8125C9.1875 8.8125 8.05078 10.0547 8.05078 11.2734C8.05078 11.707 8.30859 12.0117 8.75391 12.0117C9.14062 12.0117 9.375 11.8359 9.50391 11.4492C9.72656 10.6641 10.0078 10.1719 10.6875 10.1719C11.3906 10.1719 11.7891 10.793 11.7891 11.625C11.7891 12.5625 11.1328 13.5117 10.5117 14.3086L8.47266 16.9102C8.26172 17.1914 8.03906 17.4844 8.03906 17.8477C8.03906 18.2461 8.29688 18.5273 8.83594 18.5273ZM16.2891 18.6914C16.7227 18.6914 16.9219 18.5156 17.0742 18.0938L19.7461 10.9453C19.875 10.582 19.9688 10.3008 19.9688 9.96094C19.9688 9.42188 19.5586 9.05859 19.0312 9.05859H15.2461C14.8477 9.05859 14.5664 9.35156 14.5664 9.75C14.5664 10.1484 14.8477 10.4414 15.2461 10.4414H18.2578V10.5469L15.668 17.2734C15.5625 17.5312 15.5156 17.6836 15.5156 17.9648C15.5156 18.3047 15.7383 18.6914 16.2891 18.6914Z" fill="black" fill-opacity="0.85"/>
</svg>
