<svg width="28" height="28" viewBox="0 0 28 28" fill="none" xmlns="http://www.w3.org/2000/svg">
<g clip-path="url(#clip0_2124_67798)">
<path d="M15.4766 27.9141C19.8008 27.9141 22.4609 26.3789 22.4609 23.7305V18.0117C24.3008 16.4062 25.3672 13.8281 25.3672 11.0039C25.3672 4.40625 21.0547 0 14.6445 0C8.25781 0 3.98047 4.30078 3.98047 10.7578C3.98047 11.1211 3.99219 11.4258 4.02734 11.7305L2.59766 14.3086C2.1875 15.0117 2 15.7031 2 16.3359C2 17.543 2.73828 18.5391 3.99219 18.8672V21.1172C3.99219 23.2266 5.49219 24.2812 7.40234 24.0703L9.93359 23.8125L8.59766 22.3711V23.7305C8.59766 26.3672 11.2109 27.9141 15.4766 27.9141ZM15.4766 26.0273C12.3125 26.0273 10.3906 25.0195 10.3906 23.4023V22.0664C10.3906 21.9023 10.3086 21.8438 10.168 21.8555L7.15625 22.1953C6.33594 22.2773 5.87891 21.9141 5.87891 20.9766V17.4727C5.87891 17.3672 5.80859 17.2969 5.65625 17.2969H5.11719C4.35547 17.2969 3.91016 16.9102 3.91016 16.3125C3.91016 15.9961 4.01562 15.6211 4.22656 15.2461L5.97266 12.1055C5.90234 11.6484 5.86719 11.1914 5.86719 10.7227C5.86719 5.42578 9.37109 1.88672 14.6445 1.88672C19.9414 1.88672 23.4805 5.51953 23.4805 11.0039C23.4805 13.6289 22.3789 15.9258 20.5625 17.0859L20.5742 23.4023C20.5742 25.0195 18.6523 26.0273 15.4766 26.0273Z" fill="black" fill-opacity="0.85"/>
<path d="M7.58984 8.96484C7.58984 11.0039 9.00781 12.375 11.1172 12.375C13.1914 12.3867 14.5859 11.1445 14.5859 9.31641C14.5859 8.55469 14.3164 7.89844 13.8359 7.5C13.625 7.32422 13.4727 7.24219 13.2734 7.24219C12.957 7.24219 12.7344 7.46484 12.7344 7.74609C12.7344 8.07422 12.9336 8.19141 13.1445 8.40234C13.3672 8.61328 13.4844 8.91797 13.4844 9.29297C13.4844 10.4883 12.5586 11.2617 11.1289 11.2617C9.67578 11.2617 8.70312 10.3594 8.70312 8.95312C8.70312 8.10938 9.16016 7.33594 9.88672 6.91406L9.33594 5.92969C8.28125 6.53906 7.58984 7.72266 7.58984 8.96484ZM9.06641 6.12891C9.06641 7.44141 9.99219 8.33203 11.3516 8.33203C11.6563 8.33203 11.9141 8.07422 11.9141 7.76953C11.9141 7.46484 11.6563 7.21875 11.3516 7.21875C10.6484 7.21875 10.1797 6.78516 10.1797 6.12891C10.1797 5.42578 10.7539 4.92188 11.5508 4.92188C11.9727 4.92188 12.418 5.07422 12.793 5.36719L13.4375 4.45312C12.8984 4.04297 12.2422 3.80859 11.5508 3.80859C10.1328 3.80859 9.06641 4.79297 9.06641 6.12891ZM11.9609 5.97656C11.9492 6.31641 12.1719 6.57422 12.5 6.57422C12.8281 6.57422 13.0508 6.33984 13.0625 6.01172C13.1094 5.03906 13.8125 4.33594 14.7969 4.33594C15.3711 4.33594 15.8867 4.64062 16.0977 5.12109C16.1797 5.28516 16.3438 5.28516 16.6016 5.21484C16.7188 5.17969 16.8594 5.17969 17.0234 5.17969C18.0078 5.17969 18.7695 5.94141 18.7695 6.96094C18.7695 9.44531 15.1484 9.01172 15.1484 11.6719C15.1484 12.8672 16.0977 13.7109 17.4688 13.7109C17.5625 13.7109 17.6562 13.7109 17.7734 13.7109C17.9492 14.8008 18.6523 15.5273 19.5195 15.5273C20.7852 15.5273 21.6641 14.1094 21.6641 12.1172C21.6641 11.3555 21.6172 10.8398 21.5703 10.3477L20.4453 10.6758C20.4805 11.1445 20.5508 11.5547 20.5508 12.1055C20.5508 13.3945 20.082 14.4141 19.5195 14.4141C19.0391 14.4141 18.6992 13.8047 18.6992 12.9258C18.6992 12.7734 18.5938 12.7031 18.4531 12.7031C18.2891 12.7031 18.0898 12.7148 17.9492 12.7148C16.8359 12.7148 16.2617 12.3516 16.2617 11.6602C16.2617 9.73828 19.8945 10.2773 19.8945 6.96094C19.8945 5.30859 18.6875 4.05469 17.1289 4.05469C17 4.05469 16.8711 4.06641 16.7422 4.08984C16.2617 3.55078 15.5586 3.22266 14.7969 3.22266C13.1914 3.22266 12.0195 4.35938 11.9609 5.97656ZM18.3828 11.3086C18.3828 11.6133 18.6055 11.8359 18.9219 11.8711C20.8438 11.9883 22.168 10.8398 22.168 9.01172C22.168 7.45312 21.0195 6.26953 19.3438 6.11719L19.1797 7.25391C20.293 7.18359 21.0547 7.89844 21.0547 9.01172C21.0547 10.1484 20.2227 10.8516 18.9453 10.7578C18.6406 10.7344 18.3828 11.0039 18.3828 11.3086ZM15.7461 11.9062C15.418 12.0352 14.9961 12.1055 14.6094 12.1055C13.625 12.1055 12.6875 11.6953 12.4414 11.1211L11.5156 11.8828C12.125 12.7031 13.2617 13.2188 14.5273 13.2188C15.043 13.2188 15.6055 13.125 16.1094 12.9609L15.7461 11.9062ZM13.7656 8.09766L14.1289 9.16406C15.5586 8.92969 16.332 8.05078 16.332 6.62109C16.332 6.32812 16.0742 6.07031 15.7695 6.07031C15.4648 6.07031 15.2188 6.31641 15.2188 6.62109C15.2188 7.55859 14.7852 7.99219 13.7656 8.09766Z" fill="black" fill-opacity="0.85"/>
</g>
<defs>
<clipPath id="clip0_2124_67798">
<rect width="23.3672" height="27.9961" fill="white" transform="translate(2)"/>
</clipPath>
</defs>
</svg>
