<svg width="28" height="30" viewBox="0 0 28 30" fill="none" xmlns="http://www.w3.org/2000/svg">
<path d="M18.7966 5.12109C20.2145 5.12109 21.363 3.97266 21.363 2.55469C21.363 1.13672 20.2145 0 18.7966 0C17.3786 0 16.2419 1.13672 16.2419 2.55469C16.2419 3.97266 17.3786 5.12109 18.7966 5.12109ZM10.6755 14.3906L15.0466 18.7852V25.6641H17.4489V18.4336C17.4489 18.082 17.3669 17.7539 17.1325 17.4492L14.1911 13.7109L16.6989 9.86719C16.863 9.62109 17.2145 9.62109 17.3434 9.90234L18.1755 11.5781C18.3864 11.9766 18.7966 12.2461 19.2536 12.2461H24.0817C24.738 12.2461 25.277 11.707 25.277 11.0391C25.277 10.3828 24.738 9.84375 24.0817 9.84375H19.9919L18.7263 7.27734C18.2224 6.26953 17.1911 5.625 16.0427 5.625H9.62079C9.22235 5.625 8.83563 5.82422 8.61298 6.16406L6.21063 9.78516C5.84735 10.3242 5.99969 11.0742 6.55048 11.4375C7.08954 11.8125 7.83954 11.6602 8.21454 11.0977L10.2653 8.02734H12.2458C12.3981 8.02734 12.4919 8.16797 12.3981 8.32031L10.3708 11.3672C9.73798 12.3047 9.86688 13.582 10.6755 14.3906ZM3.42157 16.1602L8.14423 20.2969C8.89423 20.9648 9.72626 20.6133 10.0895 20.0391L11.9059 17.2383L9.91376 15.2461C9.89032 15.2109 9.86688 15.1875 9.83173 15.1523L8.64813 17.5312L4.99188 14.3438C4.49969 13.9219 3.73798 13.957 3.30438 14.4609C2.85907 14.9648 2.90594 15.7266 3.42157 16.1602ZM9.38641 26.5664H17.5661C18.8669 26.5664 19.9333 26.2969 20.7653 25.582C21.1052 25.3008 21.0934 24.9375 20.9294 24.6914C20.7419 24.4102 20.32 24.2695 19.9333 24.5625C19.3122 25.0547 18.6559 25.2656 17.5661 25.2656H9.38641C8.28485 25.2656 7.64032 25.0547 7.00751 24.5625C6.65594 24.293 6.28094 24.3867 6.08173 24.6211C5.84735 24.8672 5.81219 25.2656 6.17548 25.582C7.00751 26.2969 8.07391 26.5664 9.38641 26.5664ZM9.38641 29.2617C9.93719 29.2617 10.4059 28.8047 10.4059 28.2539C10.4059 27.7031 9.93719 27.2344 9.38641 27.2344C8.83563 27.2344 8.36688 27.7031 8.36688 28.2539C8.36688 28.8047 8.83563 29.2617 9.38641 29.2617ZM17.5661 29.2617C18.1169 29.2617 18.5739 28.8047 18.5739 28.2539C18.5739 27.7031 18.1169 27.2344 17.5661 27.2344C17.0153 27.2344 16.5466 27.7031 16.5466 28.2539C16.5466 28.8047 17.0153 29.2617 17.5661 29.2617Z" fill="black" fill-opacity="0.85"/>
</svg>
