<svg width="28" height="28" viewBox="0 0 28 28" fill="none" xmlns="http://www.w3.org/2000/svg">
<path d="M13.9531 25.9062C20.4922 25.9062 25.9062 20.4805 25.9062 13.9531C25.9062 7.41406 20.4805 2 13.9414 2C7.41406 2 2 7.41406 2 13.9531C2 20.4805 7.42578 25.9062 13.9531 25.9062ZM13.9531 23.9141C8.42188 23.9141 4.00391 19.4844 4.00391 13.9531C4.00391 8.42188 8.41016 3.99219 13.9414 3.99219C19.4727 3.99219 23.9141 8.42188 23.9141 13.9531C23.9141 19.4844 19.4844 23.9141 13.9531 23.9141Z" fill="black" fill-opacity="0.85"/>
<path d="M9.76953 18.6992H13.1445C13.5312 18.6992 13.8477 18.3828 13.8477 17.9844C13.8477 17.5977 13.5312 17.2812 13.1445 17.2812H10.6367V9.92188C10.6367 9.46484 10.25 9.07812 9.78125 9.07812C9.32422 9.07812 8.9375 9.46484 8.9375 9.92188V17.8203C8.9375 18.3711 9.23047 18.6992 9.76953 18.6992ZM16.625 18.8398C17.0938 18.8398 17.4688 18.4648 17.4688 17.9844V10.6367H18.8984C19.2852 10.6367 19.5898 10.3203 19.5898 9.92188C19.5898 9.53516 19.2852 9.21875 18.8984 9.21875H14.3047C13.9062 9.21875 13.5898 9.53516 13.5898 9.92188C13.5898 10.3203 13.9062 10.6367 14.3047 10.6367H15.7695V17.9844C15.7695 18.4648 16.1445 18.8398 16.625 18.8398Z" fill="black" fill-opacity="0.85"/>
</svg>
