<svg width="28" height="28" viewBox="0 0 28 28" fill="none" xmlns="http://www.w3.org/2000/svg">
<path d="M13.9531 25.9062C20.4922 25.9062 25.9062 20.4805 25.9062 13.9531C25.9062 7.41406 20.4805 2 13.9414 2C7.41406 2 2 7.41406 2 13.9531C2 20.4805 7.42578 25.9062 13.9531 25.9062Z" fill="black" fill-opacity="0.85"/>
<path d="M10.7188 18.9922C10.332 18.9922 9.875 18.7695 9.875 18.1367V16.9297H7.17969C6.58203 16.9297 6.18359 16.5312 6.18359 15.9453C6.18359 15.5703 6.25391 15.2539 6.45312 14.7852L8.59766 10.0977C8.9375 9.34766 9.34766 8.91406 10.2031 8.91406C11 8.91406 11.5391 9.38281 11.5391 10.2266V15.5234H11.9727C12.4648 15.5234 12.6641 15.8281 12.6641 16.2148C12.6641 16.625 12.4414 16.9297 11.9727 16.9297H11.5391V18.1367C11.5391 18.7109 11.1758 18.9922 10.7188 18.9922ZM9.91016 15.5586V10.4375H9.86328L7.67188 15.4766V15.5586H9.91016ZM15.0312 18.9922C14.5508 18.9922 14.1523 18.5938 14.1523 18.0898V9.79297C14.1523 9.30078 14.5508 8.90234 15.0312 8.90234C15.5234 8.90234 15.9219 9.30078 15.9219 9.79297V13.1328H18.8984V9.79297C18.8984 9.30078 19.2969 8.90234 19.7891 8.90234C20.2578 8.90234 20.668 9.30078 20.668 9.79297V18.0898C20.668 18.5938 20.2578 18.9922 19.7891 18.9922C19.2969 18.9922 18.8984 18.5938 18.8984 18.0898V14.6094H15.9219V18.0898C15.9219 18.5938 15.5234 18.9922 15.0312 18.9922Z" fill="white"/>
</svg>
