<svg width="29" height="28" viewBox="0 0 29 28" fill="none" xmlns="http://www.w3.org/2000/svg">
<g clip-path="url(#clip0_2124_89351)">
<path d="M15.1641 25.4727C20.0977 25.4727 23.3906 23.7266 23.3906 21.1484C23.3906 18.8398 21.4219 18.3242 21.4219 16.9648C21.4219 15.0898 28.2305 14.7148 28.2305 9.89844C28.2305 5.14062 23.3203 2 16.0312 2C6.45703 2 0 6.78125 0 13.9414C0 20.832 6.12891 25.4727 15.1641 25.4727ZM15.1641 23.4688C7.23047 23.4688 2.00391 19.6484 2.00391 13.9414C2.00391 7.96484 7.55859 4.00391 16.0312 4.00391C22.1836 4.00391 26.2266 6.39453 26.2266 9.89844C26.2266 13.9883 19.3711 13.4375 19.3711 16.9766C19.3711 18.9805 21.3867 19.6133 21.3867 20.9961C21.3867 22.4844 18.9375 23.4688 15.1641 23.4688ZM14.2031 20.7031C15.9844 20.7031 17.4492 19.2383 17.4492 17.4453C17.4492 15.6758 15.9844 14.2109 14.2031 14.2109C12.4219 14.2109 10.957 15.6758 10.957 17.4453C10.957 19.2383 12.4219 20.7031 14.2031 20.7031ZM14.2031 19.3438C13.1602 19.3438 12.3164 18.5 12.3164 17.4453C12.3164 16.2852 13.207 15.5938 14.1797 15.582C15.1758 15.5703 16.0898 16.25 16.0898 17.4453C16.0898 18.5 15.2578 19.3438 14.2031 19.3438Z" fill="black" fill-opacity="0.85"/>
<path d="M5.91797 15.5469C6.99609 15.5469 7.86328 14.6562 7.86328 13.5781C7.86328 12.5 6.99609 11.6328 5.91797 11.6328C4.85156 11.6328 3.97266 12.5 3.97266 13.5781C3.97266 14.6562 4.85156 15.5469 5.91797 15.5469Z" fill="black" fill-opacity="0.85"/>
<path d="M10.1953 11.7969C11.5547 11.7969 12.6562 10.707 12.6562 9.32422C12.6562 7.97656 11.543 6.89844 10.1953 6.89844C8.82422 6.89844 7.72266 7.97656 7.72266 9.32422C7.72266 10.707 8.82422 11.7969 10.1953 11.7969Z" fill="black" fill-opacity="0.85"/>
<path d="M16.1367 9.89844C17.2383 9.89844 18.1055 9.01953 18.1055 7.91797C18.1055 6.82812 17.2383 5.94922 16.1367 5.94922C15.0586 5.94922 14.1562 6.82812 14.1562 7.91797C14.1562 9.01953 15.0586 9.89844 16.1367 9.89844Z" fill="black" fill-opacity="0.85"/>
<path d="M21.4922 10.6484C22.3711 10.6484 23.0742 9.93359 23.0742 9.04297C23.0742 8.16406 22.3711 7.44922 21.4922 7.44922C20.6016 7.44922 19.875 8.16406 19.875 9.04297C19.875 9.93359 20.6016 10.6484 21.4922 10.6484Z" fill="black" fill-opacity="0.85"/>
</g>
<defs>
<clipPath id="clip0_2124_89351">
<rect width="28.2305" height="23.707" fill="white" transform="translate(0 2)"/>
</clipPath>
</defs>
</svg>
