<svg width="28" height="28" viewBox="0 0 28 28" fill="none" xmlns="http://www.w3.org/2000/svg">
<g clip-path="url(#clip0_2124_24759)">
<path d="M7.15625 12.5039C9.89844 12.5273 12.2539 10.3711 12.2539 7.73438C12.2539 5.13281 9.89844 3 7.15625 3C4.63672 3 3.08984 4.55859 2.35156 5.64844C2.10547 6.02344 2 6.43359 2 6.89062V8.61328C2 9.07031 2.11719 9.48047 2.35156 9.85547C3.06641 10.9453 4.63672 12.4688 7.15625 12.5039ZM4.13281 9.60938C3.83984 9.60938 3.60547 9.375 3.60547 9.07031V6.42188C3.60547 6.11719 3.83984 5.88281 4.13281 5.88281C4.44922 5.88281 4.67188 6.11719 4.67188 6.42188V9.07031C4.67188 9.375 4.44922 9.60938 4.13281 9.60938ZM8.90234 21.3984H9.89844C10.6133 21.3984 11.0586 21.0469 11.0586 20.3438V12.3281C10.1328 13.043 8.98438 13.5117 7.75391 13.6055V20.3438C7.75391 21.0469 8.21094 21.3984 8.90234 21.3984ZM8.80859 25.8281H9.99219V20.2383H8.80859V25.8281ZM20.1406 12.5039C22.6602 12.4688 24.2305 10.9453 24.9453 9.85547C25.1797 9.48047 25.2969 9.07031 25.2969 8.61328V6.89062C25.2969 6.43359 25.1914 6.02344 24.9453 5.64844C24.207 4.55859 22.6602 3 20.1406 3C17.3984 3 15.043 5.13281 15.043 7.73438C15.043 10.3711 17.3984 12.5273 20.1406 12.5039ZM23.1523 9.60938C22.8477 9.60938 22.625 9.375 22.625 9.07031V6.42188C22.625 6.11719 22.8477 5.88281 23.1523 5.88281C23.457 5.88281 23.6914 6.11719 23.6914 6.42188V9.07031C23.6914 9.375 23.457 9.60938 23.1523 9.60938ZM17.3984 21.3984H18.3945C19.0859 21.3984 19.543 21.0469 19.543 20.3438V13.6055C18.3125 13.5117 17.1641 13.043 16.2383 12.3281V20.3438C16.2383 21.0469 16.6836 21.3984 17.3984 21.3984ZM18.4883 25.8281V20.2383H17.3047V25.8281H18.4883Z" fill="black" fill-opacity="0.85"/>
</g>
<defs>
<clipPath id="clip0_2124_24759">
<rect width="23.2969" height="22.8633" fill="white" transform="translate(2 3)"/>
</clipPath>
</defs>
</svg>
