<svg width="28" height="28" viewBox="0 0 28 28" fill="none" xmlns="http://www.w3.org/2000/svg">
<path d="M6.67969 24.5977H20.8945C23.3555 24.5977 24.5742 23.3789 24.5742 20.9648V6.65625C24.5742 4.24219 23.3555 3.02344 20.8945 3.02344H6.67969C4.23047 3.02344 3 4.23047 3 6.65625V20.9648C3 23.3906 4.23047 24.5977 6.67969 24.5977ZM6.70312 22.7109C5.53125 22.7109 4.88672 22.0898 4.88672 20.8711V6.75C4.88672 5.53125 5.53125 4.91016 6.70312 4.91016H20.8711C22.0312 4.91016 22.6875 5.53125 22.6875 6.75V20.8711C22.6875 22.0898 22.0312 22.7109 20.8711 22.7109H6.70312Z" fill="black" fill-opacity="0.85"/>
<path d="M15.3281 19.3711C15.8789 19.3711 16.207 19.0078 16.207 18.3867V16.9453H17.0977C17.5547 16.9453 17.8711 16.6406 17.8711 16.1836C17.8711 15.7266 17.5664 15.4102 17.0977 15.4102H16.207V9.44531C16.207 8.70703 15.6328 8.21484 14.8008 8.21484C13.9805 8.21484 13.4648 8.50781 13.0078 9.21094C11.7891 11.0391 10.3359 13.1953 9.36328 14.7773C9.12891 15.1641 9.04688 15.4453 9.04688 15.7969C9.04688 16.4883 9.52734 16.9453 10.2656 16.9453H14.4727V18.3867C14.4727 18.9961 14.8008 19.3711 15.3281 19.3711ZM14.4727 15.4102H10.7695V15.3398C11.6602 13.8047 13.1602 11.5781 14.3906 9.72656H14.4727V15.4102Z" fill="black" fill-opacity="0.85"/>
</svg>
