<svg width="28" height="28" viewBox="0 0 28 28" fill="none" xmlns="http://www.w3.org/2000/svg">
<g clip-path="url(#clip0_2124_78070)">
<path d="M6.67969 24.5977H20.8945C23.3555 24.5977 24.5742 23.3789 24.5742 20.9648V6.65625C24.5742 4.24219 23.3555 3.02344 20.8945 3.02344H6.67969C4.23047 3.02344 3 4.23047 3 6.65625V20.9648C3 23.3906 4.23047 24.5977 6.67969 24.5977Z" fill="black" fill-opacity="0.85"/>
<path d="M10.6641 18.75C10.0898 18.75 9.65625 18.3281 9.65625 17.7773C9.65625 17.3086 9.86719 17.0391 10.3711 16.8047L16.5 13.793V13.7227L10.3711 10.6406C9.87891 10.4063 9.65625 10.1133 9.65625 9.65625C9.65625 9.11719 10.0781 8.69531 10.6406 8.69531C10.9102 8.69531 11.0625 8.75391 11.2617 8.84766L18.4688 12.7266C18.9375 12.9961 19.1836 13.3359 19.1836 13.793C19.1836 14.2969 18.9609 14.6016 18.4688 14.8594L11.2617 18.6094C11.0742 18.6914 10.9102 18.75 10.6641 18.75Z" fill="white"/>
</g>
<defs>
<clipPath id="clip0_2124_78070">
<rect width="21.5742" height="21.5977" fill="white" transform="translate(3 3)"/>
</clipPath>
</defs>
</svg>
