<svg width="28" height="28" viewBox="0 0 28 28" fill="none" xmlns="http://www.w3.org/2000/svg">
<path d="M13.9531 25.9062C20.4922 25.9062 25.9062 20.4805 25.9062 13.9531C25.9062 7.41406 20.4805 2 13.9414 2C7.41406 2 2 7.41406 2 13.9531C2 20.4805 7.42578 25.9062 13.9531 25.9062ZM13.9531 23.9141C8.42188 23.9141 4.00391 19.4844 4.00391 13.9531C4.00391 8.42188 8.41016 3.99219 13.9414 3.99219C19.4727 3.99219 23.9141 8.42188 23.9141 13.9531C23.9141 19.4844 19.4844 23.9141 13.9531 23.9141Z" fill="black" fill-opacity="0.85"/>
<path d="M10.2148 18.1836C10.6367 18.1836 10.9297 17.8906 10.9297 17.4453V12.8047C10.9297 11.9375 11.3867 11.3633 12.1367 11.3633C12.7812 11.3633 13.2383 11.8789 13.2383 12.6172V13.0859L10.7773 19.9062C10.7305 20.0117 10.707 20.1172 10.707 20.2344C10.707 20.5391 10.9414 20.7734 11.2578 20.7734C11.5273 20.7734 11.7148 20.6211 11.8203 20.3516L13.2383 16.4023V17.4453C13.2383 17.8906 13.5312 18.1836 13.9531 18.1836C14.3867 18.1836 14.6797 17.8906 14.6797 17.4453V12.7461C14.6797 11.9023 15.125 11.375 15.8516 11.375C16.5664 11.375 16.9883 11.8789 16.9883 12.6992V17.4453C16.9883 17.8906 17.2812 18.1836 17.7031 18.1836C18.125 18.1836 18.4297 17.8906 18.4297 17.4453V12.582C18.4297 11.0117 17.5508 10.0625 16.1914 10.0625C15.9922 10.0625 15.8281 10.0977 15.6758 10.1563L16.5664 7.98828C16.6016 7.89453 16.6367 7.78906 16.6367 7.67188C16.6367 7.36719 16.3789 7.14453 16.0625 7.14453C15.8047 7.14453 15.6289 7.29688 15.5234 7.55469L14.0938 11.0469C13.7539 10.3789 13.1797 10.0625 12.4297 10.0625C11.7734 10.0625 11.2227 10.3555 10.8711 11V10.8594C10.8711 10.3555 10.5781 10.0977 10.1797 10.0977C9.76953 10.0977 9.47656 10.3906 9.47656 10.8242V17.4688C9.47656 17.8906 9.78125 18.1836 10.2148 18.1836Z" fill="black" fill-opacity="0.85"/>
</svg>
