<svg width="28" height="28" viewBox="0 0 28 28" fill="none" xmlns="http://www.w3.org/2000/svg">
<path d="M20.1723 7.49931C22.0238 6.31572 23.9223 0.983686 21.8363 0.468061C19.6918 -0.0241264 19.0238 5.6126 20.1723 7.49931ZM20.4535 7.95635C23.1723 7.96806 28.727 3.52666 26.8051 1.59306C24.8832 -0.328814 20.4418 5.22588 20.4535 7.95635ZM20.9105 8.22588C22.7855 9.39775 28.434 8.70635 27.9418 6.59697C27.4379 4.47588 22.0941 6.38603 20.9105 8.22588ZM20.6293 6.69072C17.641 3.65556 13.6918 4.41728 11.1605 8.43681L1.37539 23.9876C0.71914 25.0423 0.988671 25.9798 1.68008 26.6712C2.27773 27.2806 3.1918 27.6673 4.32851 26.9525L19.9145 17.1673C23.9105 14.6595 24.6254 10.7454 21.6371 7.71025L20.6293 6.69072ZM19.3871 7.94463L20.3832 8.96416C22.598 11.2142 22.1996 13.6283 19.0004 15.6439L3.43789 25.4173C3.05117 25.6634 2.65273 25.2767 2.89883 24.9017L12.684 9.33916C14.7113 6.12822 17.1605 5.70635 19.3871 7.94463ZM15.7191 11.6009C16.0121 11.2962 16.0121 10.8392 15.6957 10.5228L12.9652 7.82744L11.8988 8.94072L14.6293 11.6126C14.9457 11.929 15.4145 11.9173 15.7191 11.6009ZM13.059 13.2533C13.3637 12.9486 13.3637 12.4798 13.0473 12.1634L10.8793 10.0423L9.81289 11.1439L11.9691 13.2533C12.2855 13.5697 12.7426 13.5579 13.059 13.2533ZM10.434 18.1634C10.141 18.4681 10.1293 18.9369 10.4457 19.2533L12.3559 21.1048L13.6918 20.2728L11.5238 18.1517C11.2191 17.847 10.7504 17.8587 10.434 18.1634ZM8.34805 20.3431C8.04336 20.6478 8.04336 21.1283 8.35976 21.4329L9.68398 22.7572L11.0434 21.9251L9.43789 20.3431C9.12148 20.0267 8.65273 20.0384 8.34805 20.3431Z" fill="black" fill-opacity="0.85"/>
</svg>
