<svg width="28" height="28" viewBox="0 0 28 28" fill="none" xmlns="http://www.w3.org/2000/svg">
<g clip-path="url(#clip0_2124_78061)">
<path d="M21.1641 21.5742C21.7383 21.5742 22.1484 21.1641 22.1484 20.5195C22.1484 19.9805 21.8789 19.6758 21.3867 19.4414L8.76562 13.8281V13.6992L21.3867 8.13281C21.8789 7.89844 22.1484 7.59375 22.1484 7.05469C22.1484 6.43359 21.7266 6.01172 21.1172 6.01172C20.8008 6.01172 20.6016 6.09375 20.3672 6.21094L7.19531 12.2695C6.51562 12.5742 6 13.1133 6 13.8516C6 14.6016 6.51562 15.1172 7.19531 15.4336L20.3672 21.3516C20.6133 21.4688 20.8242 21.5742 21.1641 21.5742Z" fill="black" fill-opacity="0.85"/>
</g>
<defs>
<clipPath id="clip0_2124_78061">
<rect width="16.1484" height="15.5742" fill="white" transform="translate(6 6)"/>
</clipPath>
</defs>
</svg>
