<svg width="29" height="28" viewBox="0 0 29 28" fill="none" xmlns="http://www.w3.org/2000/svg">
<path d="M0.235956 13.9883C-0.221075 14.6328 -0.0101376 15.207 0.833612 15.207H2.4508C3.08361 21.1719 8.22814 25.9062 14.3336 25.9062C17.9078 25.9062 21.1422 24.2773 23.3453 21.7461C23.7789 21.2422 23.7203 20.6094 23.2633 20.2812C22.8063 19.9531 22.2438 20.0703 21.8688 20.5039C20.0524 22.6016 17.357 23.9141 14.3336 23.9141C9.22424 23.9141 5.06408 20.1289 4.46642 15.207H6.21252C7.04455 15.207 7.25549 14.6328 6.81017 14L4.18517 10.2617C3.81017 9.72266 3.24767 9.71094 2.86096 10.2617L0.235956 13.9883ZM5.33361 6.16016C4.8883 6.66406 4.94689 7.28516 5.41564 7.61328C5.87267 7.94141 6.42346 7.83594 6.81017 7.40234C8.6383 5.31641 11.3336 3.99219 14.3336 3.99219C19.4313 3.99219 23.5914 7.77734 24.2008 12.7109H22.4547C21.6227 12.7109 21.4117 13.2734 21.857 13.918L24.482 17.6562C24.857 18.1953 25.4195 18.207 25.8063 17.6562L28.4195 13.9297C28.8883 13.2734 28.6656 12.7109 27.8219 12.7109H26.2164C25.5719 6.74609 20.4391 2 14.3336 2C10.7594 2 7.53674 3.61719 5.33361 6.16016Z" fill="black" fill-opacity="0.85"/>
<path d="M13.8398 19.7891H14.8125C15.1523 19.7891 15.4336 19.5781 15.5039 19.2148L15.7734 18.1133C15.9375 18.0664 16.1133 17.9844 16.2773 17.9023L17.2383 18.5C17.5429 18.6875 17.8594 18.6875 18.1289 18.4062L18.7969 17.7383C19.0312 17.4922 19.0664 17.1641 18.8672 16.8359L18.2929 15.8633C18.3867 15.7109 18.4219 15.5586 18.4804 15.418L19.5937 15.1484C19.9453 15.0547 20.1679 14.7969 20.1679 14.4336V13.4727C20.1679 13.1328 19.9336 12.8867 19.5937 12.8047L18.5039 12.5352C18.4219 12.3359 18.3633 12.207 18.3047 12.0664L18.914 11.0586C19.0898 10.7773 19.0547 10.4141 18.8203 10.1914L18.1289 9.52344C17.8828 9.26562 17.5429 9.21875 17.2617 9.39453L16.2773 10.0156C16.0898 9.91016 15.9375 9.875 15.7734 9.81641L15.5039 8.69141C15.4336 8.35156 15.1523 8.12891 14.8125 8.12891H13.8398C13.4883 8.12891 13.207 8.36328 13.1367 8.69141L12.8789 9.80469C12.6914 9.875 12.5273 9.91016 12.3633 10.0156L11.3789 9.39453C11.1211 9.23047 10.7578 9.26562 10.5117 9.52344L9.85546 10.1914C9.60938 10.4258 9.55077 10.7773 9.72655 11.0586L10.3476 12.0664C10.289 12.207 10.2187 12.3594 10.1601 12.5352L9.04688 12.8047C8.70702 12.8867 8.48438 13.1445 8.48438 13.4727V14.4336C8.48438 14.7969 8.70702 15.0547 9.04688 15.1484L10.1601 15.418C10.2304 15.5586 10.289 15.7109 10.3594 15.8633L9.78516 16.8477C9.59766 17.1641 9.62108 17.5039 9.85546 17.7383L10.5117 18.4062C10.7578 18.6875 11.0976 18.6875 11.4023 18.5L12.3867 17.9023C12.5742 18.0078 12.7383 18.0664 12.8789 18.1133L13.1367 19.2148C13.207 19.5547 13.4883 19.7891 13.8398 19.7891ZM14.332 15.8281C13.2773 15.8281 12.457 14.9961 12.457 13.9648C12.457 12.9336 13.2773 12.0781 14.332 12.0664C15.3515 12.0547 16.207 12.9336 16.207 13.9648C16.207 14.9961 15.3515 15.8281 14.332 15.8281Z" fill="black" fill-opacity="0.85"/>
</svg>
