<svg width="28" height="28" viewBox="0 0 28 28" fill="none" xmlns="http://www.w3.org/2000/svg">
<path d="M6.67969 24.5977H20.8945C23.3555 24.5977 24.5742 23.3789 24.5742 20.9648V6.65625C24.5742 4.24219 23.3555 3.02344 20.8945 3.02344H6.67969C4.23047 3.02344 3 4.23047 3 6.65625V20.9648C3 23.3906 4.23047 24.5977 6.67969 24.5977Z" fill="black" fill-opacity="0.85"/>
<path d="M9.99609 18.8906C8.69531 18.8906 7.46484 18.2695 7.11328 17.1445C7.05469 16.9453 7.03125 16.7344 7.03125 16.5117C7.03125 16.043 7.34766 15.75 7.81641 15.75C8.20312 15.75 8.47266 15.9492 8.57812 16.3477C8.73047 16.8984 9.12891 17.4844 10.0078 17.4844C10.8984 17.4844 11.3438 16.7695 11.3438 15.9375C11.3438 14.8945 10.7812 14.332 9.75 14.332H9.45703C9.04688 14.332 8.77734 14.0977 8.77734 13.6992C8.77734 13.3008 9.03516 13.043 9.45703 13.043H9.73828C10.6289 13.043 11.1211 12.3984 11.1211 11.5195C11.1211 10.7227 10.7578 10.1133 9.96094 10.1133C9.26953 10.1133 8.89453 10.5586 8.70703 11.2734C8.57812 11.6953 8.34375 11.8477 7.92188 11.8477C7.45312 11.8477 7.18359 11.5313 7.18359 11.1328C7.18359 10.9219 7.20703 10.7109 7.26562 10.4766C7.61719 9.41016 8.69531 8.70703 9.96094 8.70703C11.5312 8.70703 12.7734 9.65625 12.7734 11.332C12.7734 12.3398 12.2461 13.3242 11.1562 13.6172V13.6523C12.1758 13.7578 13.0664 14.4961 13.0664 15.9961C13.0664 17.8008 11.7305 18.8906 9.99609 18.8906ZM17.4727 18.8906C15.7031 18.8906 14.3438 17.8359 14.3438 16.043C14.3438 14.7305 15.1289 13.7812 16.1602 13.5469V13.5117C15.3867 13.2773 14.625 12.5508 14.625 11.3203C14.625 9.62109 15.9844 8.70703 17.4727 8.70703C19.1719 8.70703 20.332 9.76172 20.332 11.332C20.332 12.4805 19.6172 13.2656 18.8086 13.5117V13.5469C19.7812 13.7695 20.6133 14.7188 20.6133 16.043C20.6133 17.6953 19.3945 18.8906 17.4727 18.8906ZM17.4844 12.9609C18.2461 12.9609 18.6328 12.293 18.6328 11.4961C18.6328 10.7227 18.2578 10.0078 17.4844 10.0078C16.7344 10.0078 16.3125 10.7227 16.3125 11.4961C16.3125 12.2109 16.7109 12.9609 17.4844 12.9609ZM17.4844 17.5781C18.3633 17.5781 18.7969 16.793 18.7969 15.9023C18.7969 14.9883 18.3398 14.2617 17.4844 14.2617C16.6055 14.2617 16.1719 15.0352 16.1719 15.9023C16.1719 16.793 16.6055 17.5781 17.4844 17.5781Z" fill="white"/>
</svg>
