<svg width="28" height="28" viewBox="0 0 28 28" fill="none" xmlns="http://www.w3.org/2000/svg">
<path d="M13.9531 25.9062C20.4922 25.9062 25.9062 20.4805 25.9062 13.9531C25.9062 7.41406 20.4805 2 13.9414 2C7.41406 2 2 7.41406 2 13.9531C2 20.4805 7.42578 25.9062 13.9531 25.9062ZM13.9531 23.9141C8.42188 23.9141 4.00391 19.4844 4.00391 13.9531C4.00391 8.42188 8.41016 3.99219 13.9414 3.99219C19.4727 3.99219 23.9141 8.42188 23.9141 13.9531C23.9141 19.4844 19.4844 23.9141 13.9531 23.9141Z" fill="black" fill-opacity="0.85"/>
<path d="M14.9022 20.3633C18.6991 20.3633 20.5741 16.9414 20.5741 15.0781C20.5741 14.4219 19.7772 14.3984 19.6952 15.0078C19.414 17.2578 17.6444 18.8516 15.664 18.8516C14.4687 18.8516 13.4022 18.3359 12.7343 17.5273L13.3788 16.4961L14.1405 16.7656L14.1991 17.8203C14.246 18.2656 14.9491 18.207 14.8437 17.668C14.7851 17.4102 15.0663 17.2578 15.289 17.4219C15.664 17.7148 16.0155 17.0352 15.6171 16.8594C15.371 16.7539 15.4179 16.4375 15.6874 16.3438C16.121 16.2031 15.8866 15.5469 15.4647 15.7578L14.6093 16.1445L13.5311 15.4531C13.2382 15.2539 12.8515 15.3125 12.6405 15.5938L12.078 16.3555C11.996 16.0508 11.9374 15.7227 11.9374 15.3945C11.9374 14.3867 12.3007 13.3672 12.9101 12.6172L12.9218 13.2969C12.9218 13.6719 13.203 13.918 13.5546 13.9414L14.8202 14L15.2772 14.8438C15.5116 15.2656 16.0858 14.8672 15.828 14.4922C15.6522 14.2578 15.8163 13.9883 16.0741 14.0469C16.496 14.1289 16.6015 13.3789 16.121 13.3906C15.8515 13.3906 15.7226 13.1094 15.9218 12.9102C16.3319 12.5469 15.7811 12.0898 15.5116 12.4297L14.8085 13.2383L14.0351 13.0156L14.1405 11.6797C14.4569 11.5625 14.7851 11.4922 15.1483 11.4922C15.7343 11.4922 15.7226 11.8438 16.3788 11.8438C17.3046 11.8438 19.3202 10.4375 19.3202 9.39453C19.3202 8.72656 18.2772 8.30469 16.6015 8.30469C15.3944 8.30469 14.9608 8.62109 14.8788 9.17188C14.8319 9.59375 14.5976 9.81642 14.1874 9.81642C13.8944 9.81642 13.6015 9.83984 13.3202 9.87501L12.0077 9.24219L12.1718 8.45703L13.2382 8.26953C13.6718 8.19922 13.5429 7.48439 13.0272 7.66017C12.7577 7.7422 12.5819 7.4961 12.7108 7.26173C12.9569 6.85157 12.2538 6.55859 12.1249 6.96875C12.0429 7.22656 11.7264 7.21484 11.6093 6.95703C11.4218 6.54688 10.7889 6.83985 11.0468 7.26173L11.5272 8.07032L10.9647 9.19532C10.8007 9.50001 10.871 9.88672 11.1991 10.0625L11.7382 10.3906C10.0741 11.2461 8.93738 12.9336 8.93738 14.9492C8.93738 15.2891 8.97254 15.5938 9.03113 15.9102L8.74988 15.7461C8.43347 15.5703 8.07019 15.6758 7.87097 15.9922L7.19129 17.0352L6.24207 17.0234C5.73816 17.0117 5.80847 17.7148 6.2655 17.668C6.54676 17.6328 6.71082 17.9141 6.52332 18.1016C6.21863 18.4414 6.83972 18.9219 7.08582 18.4766C7.203 18.2422 7.51941 18.2656 7.578 18.5234C7.69519 19.0977 8.3866 18.8516 8.22254 18.418L7.85926 17.4219L8.44519 16.8594L9.66394 17.6914C10.6249 19.3438 12.5233 20.3633 14.9022 20.3633Z" fill="black" fill-opacity="0.85"/>
</svg>
