<svg width="34" height="28" viewBox="0 0 34 28" fill="none" xmlns="http://www.w3.org/2000/svg">
<path d="M17.2148 26.2656V3.97656C17.2148 2.05469 16.1602 1 14.25 1H4.80469C2.87109 1 1.85156 2.05469 1.85156 3.97656V26.2656H17.2148ZM5.19141 13.2344C4.33594 13.2344 3.82031 12.7656 3.82031 11.9805V4.24609C3.82031 3.46094 4.33594 2.98047 5.19141 2.98047H13.8633C14.7188 2.98047 15.2461 3.46094 15.2461 4.24609V11.9805C15.2461 12.7656 14.7188 13.2344 13.8633 13.2344H5.19141ZM0 26.1836C0 26.7109 0.410156 27.1445 0.925781 27.1445H18.1172C18.6328 27.1445 19.0664 26.7109 19.0664 26.1836C19.0664 25.6797 18.6328 25.2578 18.1172 25.2578H0.925781C0.421875 25.2578 0 25.668 0 26.1836ZM16.3125 16.4336H17.332C17.8711 16.4336 18.2109 16.7383 18.2109 17.3242V21.2031C18.2109 22.8672 19.2188 23.875 20.8828 23.875C22.5352 23.875 23.5312 22.8672 23.5312 21.2031V6.84766C23.5312 6.14453 23.3438 5.60547 23.0039 5.06641L21.3984 2.46484C20.8008 1.51563 19.4062 2.37109 20.0039 3.33203L21.375 5.55859C21.5039 5.76953 21.4922 6.01562 21.3516 6.22656L19.8164 8.37109C19.3125 9.0625 19.3828 9.71875 19.9102 10.3398L21.8789 12.625V21.2031C21.8789 21.8359 21.5039 22.2227 20.8828 22.2227C20.2383 22.2227 19.8633 21.8359 19.8633 21.2031V17.3242C19.8633 15.707 18.9023 14.7812 17.332 14.7812H16.3125V16.4336Z" fill="black" fill-opacity="0.85"/>
<path d="M33.5977 13.5039L27.5742 9.92966C27.1172 9.66013 26.5078 9.88278 26.5078 10.375V17.7578C26.5078 18.2617 27.082 18.4961 27.5742 18.2031L33.5977 14.6523C34.0664 14.3828 34.043 13.7617 33.5977 13.5039Z" fill="black" fill-opacity="0.85"/>
</svg>
