<svg width="29" height="29" viewBox="0 0 29 29" fill="none" xmlns="http://www.w3.org/2000/svg">
<g clip-path="url(#clip0_2124_45811)">
<path d="M14.3028 9.52539C16.5293 9.52539 18.2754 7.62696 18.2754 5.21289C18.2754 2.88086 16.5176 1.0293 14.3028 1.0293C12.0879 1.0293 10.3301 2.89258 10.3418 5.23633C10.3418 7.63868 12.0762 9.52539 14.3028 9.52539ZM14.3028 7.87305C13.0254 7.87305 12.0879 6.77149 12.0879 5.23633C12.0879 3.75977 13.0371 2.68164 14.3028 2.68164C15.5684 2.68164 16.5293 3.75977 16.5293 5.21289C16.5293 6.75977 15.5801 7.87305 14.3028 7.87305ZM7.83398 18.0215H20.7715C21.7442 18.0215 22.3067 17.459 22.3067 16.5566C22.3067 14.1543 19.2598 10.6621 14.3028 10.6621C9.33398 10.6621 6.29883 14.1543 6.29883 16.5566C6.29883 17.459 6.84961 18.0215 7.83398 18.0215ZM8.39648 16.3691C8.15039 16.3691 8.04492 16.2871 8.06836 16.1113C8.29101 14.7285 10.459 12.3145 14.3028 12.3145C18.1348 12.3145 20.3145 14.7285 20.5372 16.1113C20.5606 16.2871 20.4434 16.3691 20.209 16.3691H8.39648ZM4.93945 26.1426H23.6778C24.1934 26.1426 24.6153 25.7207 24.6153 25.2051C24.6153 24.6895 24.1934 24.2559 23.6778 24.2559H22.9512V21.5254C22.9512 20.2949 22.377 19.627 21.0528 19.627H7.56445C6.25195 19.627 5.66601 20.2949 5.66601 21.5254V24.2559H4.93945C4.42383 24.2559 4.00195 24.6895 4.00195 25.2051C4.00195 25.7207 4.42383 26.1426 4.93945 26.1426ZM12.0059 23.5996C11.6074 23.5996 11.3262 23.2949 11.3262 22.8965C11.3262 22.5098 11.6074 22.2168 12.0059 22.2168H16.6348C17.0215 22.2168 17.3145 22.5098 17.3145 22.8965C17.3145 23.2949 17.0215 23.5996 16.6348 23.5996H12.0059Z" fill="black" fill-opacity="0.85"/>
</g>
<defs>
<clipPath id="clip0_2124_45811">
<rect width="20.6133" height="25.1133" fill="white" transform="translate(4.00195 1.0293)"/>
</clipPath>
</defs>
</svg>
