<svg width="28" height="28" viewBox="0 0 28 28" fill="none" xmlns="http://www.w3.org/2000/svg">
<g clip-path="url(#clip0_2124_49966)">
<path d="M3.375 23.0225C3.375 24.6631 4.34766 25.6123 6.02344 25.6123H21.9727C23.6367 25.6123 24.6094 24.6631 24.6094 23.0225V9.93262L22.9453 9.81543V22.7764C22.9453 23.5381 22.5352 23.96 21.7969 23.96H6.19922C5.44922 23.96 5.03906 23.5381 5.03906 22.7764V9.82715L3.375 9.93262V23.0225ZM0 12.5342C0 13.0029 0.339844 13.3193 0.855469 13.3193C1.06641 13.3193 1.23047 13.249 1.38281 13.1318L13.582 2.90137C13.8281 2.67871 14.1445 2.66699 14.4023 2.90137L26.6016 13.1318C26.7422 13.249 26.9062 13.3193 27.1289 13.3193C27.6328 13.3193 27.9727 13.0029 27.9727 12.5342C27.9727 12.2295 27.8555 12.0186 27.5977 11.8076L15.3984 1.55371C14.5312 0.81543 13.4648 0.81543 12.5859 1.55371L0.375 11.8076C0.117188 12.0186 0 12.2295 0 12.5342ZM21.668 7.28418L24.6094 9.76855V4.35449C24.6094 3.83887 24.2812 3.51074 23.7656 3.51074H22.5117C22.0078 3.51074 21.668 3.83887 21.668 4.35449V7.28418Z" fill="black" fill-opacity="0.85"/>
<path d="M7.23047 20.292C7.23047 21.2295 7.82812 21.792 8.85938 21.792H19.1367C20.1562 21.792 20.7656 21.2295 20.7656 20.292V11.1748L14.7539 6.13574C14.2852 5.76074 13.6992 5.76074 13.2422 6.13574L7.23047 11.1748V20.292ZM8.89453 19.5771V11.9834L13.6172 8.01074C13.8281 7.83496 14.1562 7.82324 14.3672 8.01074L19.1016 11.9834V19.5771C19.1016 19.9404 18.9023 20.1396 18.5391 20.1396H9.44531C9.09375 20.1396 8.89453 19.9404 8.89453 19.5771Z" fill="black" fill-opacity="0.85"/>
<path d="M11.0742 16.8584C11.0742 17.5381 11.5195 17.96 12.2344 17.96H15.75C16.4766 17.96 16.9102 17.5381 16.9102 16.8584V13.0498L14.6602 11.1631C14.25 10.8232 13.7344 10.8232 13.3359 11.1631L11.0742 13.0498V16.8584ZM12.7031 16.085V13.8115L13.7109 12.9561C13.8867 12.8154 14.1094 12.8154 14.2734 12.9561L15.2812 13.8115V16.085C15.2812 16.2607 15.1992 16.3545 15.0117 16.3545H12.9727C12.7969 16.3545 12.7031 16.2607 12.7031 16.085Z" fill="black" fill-opacity="0.85"/>
</g>
<defs>
<clipPath id="clip0_2124_49966">
<rect width="27.9727" height="26.5957" fill="white" transform="translate(0 1)"/>
</clipPath>
</defs>
</svg>
