<svg width="28" height="28" viewBox="0 0 28 28" fill="none" xmlns="http://www.w3.org/2000/svg">
<path d="M5 9.12891C5 12.6562 7.48438 14.9883 11.2578 14.9883H13.1562V24.0586C13.1562 24.7148 13.5664 25.1367 14.2344 25.1367C14.8906 25.1367 15.3242 24.7148 15.3242 24.0586V5.44922H17.8672V24.0586C17.8672 24.7148 18.2773 25.1367 18.9336 25.1367C19.6016 25.1367 20.0352 24.7148 20.0352 24.0586V5.44922H22.0156C22.6836 5.44922 23.1055 5.00391 23.1055 4.34766C23.1055 3.69141 22.6836 3.28125 22.0156 3.28125H11.1992C7.46094 3.28125 5 5.60156 5 9.12891Z" fill="black" fill-opacity="0.85"/>
</svg>
