<svg width="28" height="28" viewBox="0 0 28 28" fill="none" xmlns="http://www.w3.org/2000/svg">
<g clip-path="url(#clip0_2124_49987)">
<path d="M4 5.6875C4 9.76562 10.2812 13.1289 10.2812 20.0312V21.0391C10.2812 21.4492 10.5039 21.6719 10.9258 21.6719H16.1641C16.5859 21.6719 16.8086 21.4492 16.8086 21.0391V20.0312C16.8086 13.0938 23.0898 9.85938 23.0898 5.6875C23.0898 2.67578 19.5859 1 13.5508 1C7.50391 1 4 2.67578 4 5.6875ZM5.76953 5.6875C5.76953 4.05859 8.41797 2.76953 13.5508 2.76953C18.6719 2.76953 21.3203 4.05859 21.3203 5.6875C21.3203 8.46484 15.0508 12.7891 15.0508 19.4805V20.6641L16.0234 19.9023H11.0664L12.0391 20.6641V19.4805C12.0391 12.8008 5.76953 8.44141 5.76953 5.6875ZM5.16016 8.01953H21.9414V6.48438H5.16016V8.01953ZM10.668 24.2031H16.4336C16.8086 24.2031 17.1133 23.9102 17.1133 23.5234C17.1133 23.1367 16.8086 22.8438 16.4336 22.8438H10.668C10.2812 22.8438 9.97656 23.1367 9.97656 23.5234C9.97656 23.9102 10.2812 24.2031 10.668 24.2031ZM13.5508 27.543C15.1328 27.543 16.2578 26.6992 16.5039 25.3633H10.5859C10.8086 26.6992 11.9336 27.543 13.5508 27.543Z" fill="black" fill-opacity="0.85"/>
</g>
<defs>
<clipPath id="clip0_2124_49987">
<rect width="19.0898" height="26.543" fill="white" transform="translate(4 1)"/>
</clipPath>
</defs>
</svg>
