<svg width="28" height="28" viewBox="0 0 28 28" fill="none" xmlns="http://www.w3.org/2000/svg">
<path d="M6.67969 24.5977H20.8945C23.3555 24.5977 24.5742 23.3789 24.5742 20.9648V6.65625C24.5742 4.24219 23.3555 3.02344 20.8945 3.02344H6.67969C4.23047 3.02344 3 4.23047 3 6.65625V20.9648C3 23.3906 4.23047 24.5977 6.67969 24.5977Z" fill="black" fill-opacity="0.85"/>
<path d="M10.2773 18.8086C9.77344 18.8086 9.375 18.4102 9.375 17.918V10.5937L8.27344 11.4844C8.14453 11.5781 8.02734 11.6367 7.82812 11.6367C7.46484 11.6367 7.20703 11.3672 7.20703 10.9922C7.20703 10.6758 7.38281 10.4414 7.60547 10.2773L8.92969 9.24609C9.21094 9.03516 9.62109 8.75391 10.125 8.75391C10.7578 8.75391 11.1445 9.11719 11.1445 9.73828V17.918C11.1445 18.4102 10.7461 18.8086 10.2773 18.8086ZM17.4961 18.832C17.1094 18.832 16.6523 18.6094 16.6523 17.9766V16.7695H13.9453C13.3594 16.7695 12.9492 16.3711 12.9492 15.7852C12.9492 15.4102 13.0195 15.0938 13.2305 14.625L15.3867 9.9375C15.7266 9.1875 16.125 8.75391 16.9805 8.75391C17.7656 8.75391 18.3281 9.22266 18.3281 10.0664V15.3633H18.75C19.2305 15.3633 19.4414 15.668 19.4414 16.0547C19.4414 16.4648 19.2188 16.7695 18.75 16.7695H18.3281V17.9766C18.3281 18.5508 17.9531 18.832 17.4961 18.832ZM16.6875 15.3984V10.2773H16.6406L14.4492 15.3164V15.3984H16.6875Z" fill="white"/>
</svg>
