<svg width="40" height="28" viewBox="0 0 40 28" fill="none" xmlns="http://www.w3.org/2000/svg">
<g clip-path="url(#clip0_2124_24791)">
<path d="M8.19163 16.5078C9.76194 17.1758 11.5666 16.4141 12.2463 14.8672L14.508 9.73438C15.1877 8.1875 14.4377 6.34766 12.8674 5.66797C11.2971 5.01172 9.50413 5.73828 8.801 7.32031L6.551 12.4531C5.87131 14.0234 6.62131 15.8281 8.19163 16.5078ZM9.32834 15.5938C8.26194 15.5938 7.41819 14.75 7.41819 13.6719C7.41819 12.6055 8.27366 11.75 9.32834 11.75C10.4064 11.75 11.2502 12.6055 11.2502 13.6719C11.2502 14.75 10.4064 15.5938 9.32834 15.5938ZM9.32834 14.7969C9.9846 14.7969 10.4533 14.3047 10.4533 13.6719C10.4533 13.0625 9.9846 12.5469 9.32834 12.5469C8.69553 12.5469 8.21506 13.0625 8.21506 13.6719C8.21506 14.3047 8.69553 14.7969 9.32834 14.7969ZM18.9729 13.2266C18.3986 11.3047 16.969 10.3906 15.7502 9.35938C15.6916 9.64062 15.6096 9.89844 15.4924 10.168L13.2307 15.3008C12.3049 17.3984 9.86741 18.3828 7.75803 17.5039C5.70725 16.5898 4.71116 14.2695 5.49631 12.2188C4.47678 13.4492 4.24241 15.3242 5.00413 17.4453C6.41038 21.3594 9.97288 22.0977 13.4768 20.7266L15.5861 19.8945C18.4455 18.7578 19.8166 16.0977 18.9729 13.2266ZM31.7111 16.5078C33.2697 15.8281 34.0314 14.0234 33.3518 12.4531L31.1018 7.32031C30.3986 5.73828 28.6057 5.01172 27.0354 5.66797C25.465 6.34766 24.715 8.1875 25.3947 9.73438L27.6564 14.8672C28.3361 16.4141 30.1408 17.1758 31.7111 16.5078ZM30.5744 15.5938C29.4963 15.5938 28.6525 14.75 28.6525 13.6719C28.6525 12.6055 29.4963 11.75 30.5744 11.75C31.6291 11.75 32.4846 12.6055 32.4846 13.6719C32.4846 14.75 31.6408 15.5938 30.5744 15.5938ZM30.5744 14.7969C31.2072 14.7969 31.6877 14.3047 31.6877 13.6719C31.6877 13.0625 31.2072 12.5469 30.5744 12.5469C29.9182 12.5469 29.4377 13.0625 29.4377 13.6719C29.4377 14.3047 29.9182 14.7969 30.5744 14.7969ZM20.9182 13.2266C20.0861 16.0977 21.4455 18.7578 24.3166 19.8945L26.426 20.7266C29.9299 22.0977 33.4924 21.3594 34.8869 17.4453C35.6604 15.3242 35.426 13.4492 34.4064 12.2188C35.1916 14.2695 34.1955 16.5898 32.133 17.5039C30.0354 18.3828 27.5979 17.3984 26.6721 15.3008L24.4104 10.168C24.2932 9.89844 24.2111 9.64062 24.1525 9.35938C22.9221 10.3906 21.5041 11.3047 20.9182 13.2266Z" fill="black" fill-opacity="0.85"/>
<path d="M3.99609 17.8086C3.46875 16.3789 3.35156 14.9727 3.64453 13.5898C1.55859 14.1641 0 16.0859 0 18.3594C0 21.1016 2.20312 23.3164 4.92188 23.3164C6.16406 23.3164 7.28906 22.8594 8.15625 22.0977C6.26953 21.4766 4.78125 20.0117 3.99609 17.8086ZM35.9062 17.8086C35.1094 20.0117 33.6328 21.4766 31.7461 22.0977C32.6133 22.8594 33.7383 23.3164 34.9805 23.3164C37.6992 23.3164 39.9023 21.1016 39.9023 18.3594C39.9023 16.0859 38.3438 14.1641 36.2578 13.5898C36.5508 14.9727 36.4219 16.3789 35.9062 17.8086Z" fill="black" fill-opacity="0.85"/>
<path d="M9.32812 15.5938C8.26172 15.5938 7.41797 14.75 7.41797 13.6719C7.41797 12.6055 8.27344 11.75 9.32812 11.75C10.4062 11.75 11.25 12.6055 11.25 13.6719C11.25 14.75 10.4062 15.5938 9.32812 15.5938ZM9.32812 14.7969C9.98438 14.7969 10.4531 14.3047 10.4531 13.6719C10.4531 13.0625 9.98438 12.5469 9.32812 12.5469C8.69531 12.5469 8.21484 13.0625 8.21484 13.6719C8.21484 14.3047 8.69531 14.7969 9.32812 14.7969ZM30.5742 15.5938C29.4961 15.5938 28.6523 14.75 28.6523 13.6719C28.6523 12.6055 29.4961 11.75 30.5742 11.75C31.6289 11.75 32.4844 12.6055 32.4844 13.6719C32.4844 14.75 31.6406 15.5938 30.5742 15.5938ZM30.5742 14.7969C31.207 14.7969 31.6875 14.3047 31.6875 13.6719C31.6875 13.0625 31.207 12.5469 30.5742 12.5469C29.918 12.5469 29.4375 13.0625 29.4375 13.6719C29.4375 14.3047 29.918 14.7969 30.5742 14.7969Z" fill="white"/>
</g>
<defs>
<clipPath id="clip0_2124_24791">
<rect width="39.9023" height="18.3164" fill="white" transform="translate(0 5)"/>
</clipPath>
</defs>
</svg>
