<svg width="28" height="29" viewBox="0 0 28 29" fill="none" xmlns="http://www.w3.org/2000/svg">
<path d="M18.4402 5.09766C19.8581 5.09766 20.9949 3.96094 20.9949 2.55469C20.9949 1.13672 19.8581 0 18.4402 0C17.0222 0 15.8855 1.13672 15.8855 2.55469C15.8855 3.96094 17.0222 5.09766 18.4402 5.09766ZM5.73704 17.25H12.487L18.7214 18.1289C21.0534 18.457 22.7409 17.4375 22.7409 15.2109V10.9922C22.7409 10.7812 22.9636 10.6992 23.1042 10.8398L24.2644 12.0117V16.0195C24.2644 16.6992 24.8386 17.25 25.4831 17.25C26.1511 17.25 26.6902 16.6992 26.6902 16.0195V11.4961C26.6902 11.1797 26.573 10.8633 26.3269 10.6289L23.3738 7.6875C22.4949 6.83203 21.3699 6.32812 20.1159 6.32812H8.54954C7.89329 6.32812 7.33079 6.89062 7.33079 7.54688C7.33079 8.22656 7.86985 8.76562 8.54954 8.76562H17.4441C17.7956 8.76562 18.0534 9.03516 18.0534 9.375V14.8125H5.73704C5.04563 14.8125 4.50657 15.3516 4.50657 16.0195C4.50657 16.6992 5.06907 17.25 5.73704 17.25ZM20.6902 27.6211C21.1589 28.0898 21.9206 28.0898 22.3894 27.6211C22.8699 27.1523 22.8581 26.3906 22.3894 25.9102L18.5105 21.9844L19.8933 19.3008C19.4831 19.3359 19.0261 19.3008 18.5574 19.2422L16.8816 19.0078L15.862 21.8203C15.698 22.2539 15.8034 22.7344 16.155 23.0859L20.6902 27.6211ZM2.19798 12.0703C3.72142 13.582 5.43235 13.418 6.07688 12.7852C6.69798 12.1289 6.74485 10.5469 5.24485 9.02344C3.69798 7.48828 2.10423 7.53516 1.4597 8.19141C0.815165 8.83594 0.67454 10.5234 2.19798 12.0703Z" fill="black" fill-opacity="0.85"/>
</svg>
