<svg width="35" height="28" viewBox="0 0 35 28" fill="none" xmlns="http://www.w3.org/2000/svg">
<path d="M25.7724 26.2656V3.97656C25.7724 2.05469 24.7177 1 22.8076 1H13.3623C11.4287 1 10.4091 2.05469 10.4091 3.97656V26.2656H25.7724ZM13.749 13.2344C12.8935 13.2344 12.3896 12.7656 12.3896 11.9805V4.24609C12.3896 3.46094 12.8935 2.98047 13.749 2.98047H22.4209C23.2763 2.98047 23.8037 3.46094 23.8037 4.24609V11.9805C23.8037 12.7656 23.2763 13.2344 22.4209 13.2344H13.749ZM8.55762 26.1836C8.55762 26.7109 8.9795 27.1445 9.4834 27.1445H26.6865C27.1904 27.1445 27.624 26.7109 27.624 26.1836C27.624 25.6797 27.1904 25.2578 26.6865 25.2578H9.4834C8.99122 25.2578 8.55762 25.668 8.55762 26.1836ZM29.1357 8.71094H30.4716V6.09766C30.4716 5.73438 30.1669 5.42969 29.8154 5.42969C29.4287 5.42969 29.1357 5.73438 29.1357 6.09766V8.71094ZM33.5537 8.71094V6.09766C33.5537 5.73438 33.2607 5.42969 32.8857 5.42969C32.5224 5.42969 32.2177 5.73438 32.2177 6.09766L32.2294 8.71094H33.5537ZM25.2451 16.4336H25.8896C26.4287 16.4336 26.7685 16.7383 26.7685 17.3242V21.2031C26.7685 22.8672 27.7763 23.875 29.4404 23.875C31.0927 23.875 32.0888 22.8672 32.0888 21.2031V15.1445C32.0888 13.9844 32.956 13.6562 33.5068 13.2344C34.3505 12.6016 34.8076 11.7227 34.8076 10.6797V8.92188C34.8076 8.64062 34.6435 8.47656 34.3857 8.47656H28.1396C27.8818 8.47656 27.7177 8.64062 27.7177 8.92188V10.6797C27.7177 11.7227 28.1748 12.6016 29.0185 13.2344C29.5693 13.6562 30.4365 13.9844 30.4365 15.1445V21.2031C30.4365 21.8359 30.0615 22.2227 29.4404 22.2227C28.7959 22.2227 28.4209 21.8359 28.4209 21.2031V17.3242C28.4209 15.707 27.4599 14.7812 25.8896 14.7812H25.2451V16.4336Z" fill="black" fill-opacity="0.85"/>
<path d="M0.34283 13.5039C-0.102483 13.7617 -0.12592 14.3828 0.34283 14.6523L6.36627 18.2031C6.85845 18.4961 7.43267 18.2617 7.43267 17.7578V10.375C7.43267 9.88281 6.8233 9.66016 6.36627 9.92969L0.34283 13.5039Z" fill="black" fill-opacity="0.85"/>
</svg>
