<svg width="28" height="28" viewBox="0 0 28 28" fill="none" xmlns="http://www.w3.org/2000/svg">
<g clip-path="url(#clip0_2124_89143)">
<path d="M13.9531 25.9062C20.4922 25.9062 25.9062 20.4805 25.9062 13.9531C25.9062 7.41406 20.4805 2 13.9414 2C7.41406 2 2 7.41406 2 13.9531C2 20.4805 7.42578 25.9062 13.9531 25.9062ZM13.9531 23.9141C8.42188 23.9141 4.00391 19.4844 4.00391 13.9531C4.00391 8.42188 8.41016 3.99219 13.9414 3.99219C19.4727 3.99219 23.9141 8.42188 23.9141 13.9531C23.9141 19.4844 19.4844 23.9141 13.9531 23.9141Z" fill="black" fill-opacity="0.85"/>
<path d="M11.2695 9.57031C11.2695 10.7539 12.0547 11.7617 13.1328 12.1016V17.9961C13.1328 19.707 13.4141 21.2305 13.9414 21.2305C14.4805 21.2305 14.7383 19.7305 14.7383 17.9961V12.1016C15.8281 11.7734 16.6133 10.7656 16.6133 9.57031C16.6133 8.09375 15.418 6.89844 13.9414 6.89844C12.4766 6.89844 11.2695 8.09375 11.2695 9.57031ZM12.4062 8.87891C12.3945 8.42188 12.8047 8.02344 13.25 8.02344C13.7188 8.02344 14.1055 8.42188 14.1055 8.87891C14.1055 9.33594 13.7188 9.73438 13.25 9.73438C12.8047 9.73438 12.4062 9.33594 12.4062 8.87891Z" fill="black" fill-opacity="0.85"/>
</g>
<defs>
<clipPath id="clip0_2124_89143">
<rect width="23.9062" height="23.918" fill="white" transform="translate(2 2)"/>
</clipPath>
</defs>
</svg>
