<svg width="28" height="28" viewBox="0 0 28 28" fill="none" xmlns="http://www.w3.org/2000/svg">
<path d="M6.67969 24.5977H20.8945C23.3555 24.5977 24.5742 23.3789 24.5742 20.9648V6.65625C24.5742 4.24219 23.3555 3.02344 20.8945 3.02344H6.67969C4.23047 3.02344 3 4.23047 3 6.65625V20.9648C3 23.3906 4.23047 24.5977 6.67969 24.5977ZM6.70312 22.7109C5.53125 22.7109 4.88672 22.0898 4.88672 20.8711V6.75C4.88672 5.53125 5.53125 4.91016 6.70312 4.91016H20.8711C22.0312 4.91016 22.6875 5.53125 22.6875 6.75V20.8711C22.6875 22.0898 22.0312 22.7109 20.8711 22.7109H6.70312Z" fill="black" fill-opacity="0.85"/>
<path d="M8.30859 9.72656C7.99219 10.0313 8.00391 10.5703 8.30859 10.8633L11.25 13.7461C11.4023 13.875 11.625 13.9688 11.8008 13.9688C12.2461 13.9688 12.5508 13.6641 12.5508 13.2305C12.5508 13.0195 12.4687 12.832 12.3281 12.6914L11.0859 11.4844L10.5937 11.0273L11.1445 11.0625H18.7617C19.1953 11.0625 19.5117 10.7227 19.5117 10.2891C19.5117 9.85547 19.1953 9.53906 18.7617 9.53906H11.1562L10.6055 9.55078L11.0859 9.11719L12.3281 7.91016C12.4687 7.76953 12.5508 7.57031 12.5508 7.37109C12.5508 6.92578 12.2461 6.62109 11.8008 6.62109C11.6133 6.62109 11.3906 6.71484 11.25 6.86719L8.30859 9.72656ZM19.2773 17.8711C19.5938 17.5547 19.582 17.0742 19.2773 16.7695L16.3242 13.8867C16.1953 13.7461 15.9727 13.6523 15.7734 13.6523C15.3281 13.6523 15.0234 13.957 15.0234 14.3906C15.0234 14.6016 15.1055 14.7891 15.2461 14.9297L16.5117 16.1367L16.9922 16.5938L16.4297 16.5586H8.82422C8.40234 16.5586 8.07422 16.875 8.07422 17.3203C8.07422 17.7539 8.39062 18.082 8.82422 18.082H16.418L16.9922 18.0703L16.5117 18.5039L15.2578 19.7109C15.1172 19.8633 15.0234 20.0391 15.0234 20.25C15.0234 20.6836 15.3516 21 15.7734 21C15.9492 21 16.1719 20.9062 16.3242 20.7656L19.2773 17.8711Z" fill="black" fill-opacity="0.85"/>
</svg>
