<svg width="28" height="28" viewBox="0 0 28 28" fill="none" xmlns="http://www.w3.org/2000/svg">
<path d="M13.9531 25.9062C20.4922 25.9062 25.9062 20.4805 25.9062 13.9531C25.9062 7.41406 20.4805 2 13.9414 2C7.41406 2 2 7.41406 2 13.9531C2 20.4805 7.42578 25.9062 13.9531 25.9062Z" fill="black" fill-opacity="0.85"/>
<path d="M16.2744 19.7539C15.9698 20.0469 15.3604 20.0234 15.0322 19.7188L10.1572 15.1133C9.48926 14.5039 9.48926 13.4258 10.1572 12.8164L15.0322 8.21095C15.3955 7.8711 15.9346 7.85939 16.2627 8.17579C16.626 8.51563 16.6377 9.10157 16.2862 9.4297L11.4697 13.9531L16.2862 18.5C16.626 18.8281 16.6377 19.3906 16.2744 19.7539Z" fill="white"/>
</svg>
