<svg width="28" height="28" viewBox="0 0 28 28" fill="none" xmlns="http://www.w3.org/2000/svg">
<path d="M6.67969 24.5977H20.8945C23.3555 24.5977 24.5742 23.3789 24.5742 20.9648V6.65625C24.5742 4.24219 23.3555 3.02344 20.8945 3.02344H6.67969C4.23047 3.02344 3 4.23047 3 6.65625V20.9648C3 23.3906 4.23047 24.5977 6.67969 24.5977ZM6.70312 22.7109C5.53125 22.7109 4.88672 22.0898 4.88672 20.8711V6.75C4.88672 5.53125 5.53125 4.91016 6.70312 4.91016H20.8711C22.0312 4.91016 22.6875 5.53125 22.6875 6.75V20.8711C22.6875 22.0898 22.0312 22.7109 20.8711 22.7109H6.70312Z" fill="black" fill-opacity="0.85"/>
<path d="M9.99609 18.7383C11.6836 18.7383 12.9727 17.6836 12.9727 15.9258C12.9727 14.4727 12.1055 13.7578 11.1094 13.6523V13.6172C12.1758 13.3359 12.6914 12.3867 12.6914 11.4023C12.6914 9.78516 11.4844 8.85938 9.94922 8.85938C8.74219 8.85938 7.69922 9.53906 7.35938 10.582C7.30078 10.8047 7.26562 11.0156 7.26562 11.2148C7.26562 11.6016 7.52344 11.9062 7.99219 11.9062C8.39062 11.9062 8.625 11.7539 8.74219 11.3437C8.91797 10.6523 9.29297 10.2187 9.94922 10.2187C10.7227 10.2187 11.0977 10.8164 11.0977 11.5898C11.0977 12.4453 10.6172 13.0664 9.73828 13.0664H9.45703C9.07031 13.0664 8.8125 13.3125 8.8125 13.6992C8.8125 14.0859 9.07031 14.3086 9.45703 14.3086H9.76172C10.7578 14.3086 11.2969 14.8594 11.2969 15.8789C11.2969 16.6875 10.875 17.3789 10.0078 17.3789C9.15234 17.3789 8.76562 16.8047 8.625 16.2656C8.50781 15.8906 8.26172 15.6914 7.88672 15.6914C7.42969 15.6914 7.11328 15.9727 7.11328 16.4297C7.11328 16.6406 7.14844 16.8516 7.20703 17.0391C7.54688 18.1289 8.74219 18.7383 9.99609 18.7383ZM18.5508 18.6797C18.9844 18.6797 19.3477 18.4102 19.3477 17.8477V16.6758H19.7695C20.2148 16.6758 20.4375 16.3828 20.4375 15.9844C20.4375 15.6094 20.2383 15.3164 19.7695 15.3164H19.3477V10.1719C19.3477 9.36327 18.8203 8.90625 18.0469 8.90625C17.2266 8.90625 16.8398 9.32812 16.5117 10.0547L14.4141 14.6016C14.2266 15.0586 14.1562 15.3633 14.1562 15.7266C14.1562 16.2891 14.543 16.6758 15.1172 16.6758H17.7422V17.8477C17.7422 18.4688 18.1758 18.6797 18.5508 18.6797ZM17.7773 15.3516H15.5977V15.2695L17.7305 10.3828H17.7773V15.3516Z" fill="black" fill-opacity="0.85"/>
</svg>
