<svg width="28" height="28" viewBox="0 0 28 28" fill="none" xmlns="http://www.w3.org/2000/svg">
<path d="M13.9531 25.9062C20.4922 25.9062 25.9062 20.4805 25.9062 13.9531C25.9062 7.41406 20.4805 2 13.9414 2C7.41406 2 2 7.41406 2 13.9531C2 20.4805 7.42578 25.9062 13.9531 25.9062Z" fill="black" fill-opacity="0.85"/>
<path d="M9.28906 14.0703C9.28906 13.7188 9.54688 13.4727 9.86328 13.4727H10.6367V9.06641C10.6367 8.5625 10.9531 8.26953 11.4336 8.26953C11.9023 8.26953 12.207 8.5625 12.207 9.06641V13.4727H12.7578L16.6719 8.63281C16.8828 8.35156 17.0938 8.24609 17.3164 8.24609C17.75 8.24609 18.0664 8.5625 18.0664 8.97266C18.0664 9.125 17.9844 9.32422 17.8555 9.48828L14.6094 13.4727H17.7383C18.0898 13.4727 18.3242 13.7188 18.3242 14.0703C18.3242 14.3984 18.0898 14.6797 17.7383 14.6797H14.6211L17.8672 18.6992C17.9961 18.875 18.0664 19.0742 18.0664 19.2266C18.0664 19.6367 17.7383 19.9531 17.3164 19.9531C17.0938 19.9531 16.8828 19.8477 16.6719 19.5781L12.7812 14.6797H12.207V19.1562C12.207 19.6484 11.8906 19.9531 11.4336 19.9531C10.9648 19.9531 10.6367 19.6484 10.6367 19.1562V14.6797H9.86328C9.54688 14.6797 9.28906 14.3984 9.28906 14.0703Z" fill="white"/>
</svg>
