<svg width="28" height="28" viewBox="0 0 28 28" fill="none" xmlns="http://www.w3.org/2000/svg">
<path d="M2 13.6953C2 16.3789 3.01953 18.5117 4.09766 20.1875C4.68359 21.1016 5.02344 21.9922 5.02344 22.6719V24.3945C5.02344 24.875 5.43359 25.2969 5.92578 25.2969C6.41797 25.2969 6.83984 24.875 6.83984 24.3945V23.7383H8.30469V24.3945C8.30469 24.875 8.72656 25.2969 9.21875 25.2969C9.71094 25.2969 10.1211 24.875 10.1211 24.3945V23.7383H11.4453V24.3945C11.4453 24.875 11.8789 25.2969 12.3711 25.2969C12.8633 25.2969 13.2734 24.875 13.2734 24.3945V23.7383H14.5508V24.3945C14.5508 24.875 14.9727 25.2969 15.4531 25.2969C15.9453 25.2969 16.3789 24.875 16.3789 24.3945V23.7383H17.7031V24.3945C17.7031 24.875 18.1133 25.2969 18.6055 25.2969C19.0977 25.2969 19.5195 24.875 19.5195 24.3945V23.7383H20.9844V24.3945C20.9844 24.875 21.4062 25.2969 21.8984 25.2969C22.3906 25.2969 22.8125 24.875 22.8125 24.3945V22.6836C22.8125 22.0508 23.1875 21.1133 23.8438 20.0234C24.8516 18.3828 25.8359 16.2969 25.8359 13.6953C25.8359 10.7188 24.6875 8.21094 23.1055 6.20703C22.4609 5.36328 22.4258 5.14062 22.4258 4.58984V2.91406C22.4258 2.42188 21.9922 2 21.5 2C21.0078 2 20.5977 2.42188 20.5977 2.91406V4.71875C20.5977 6.04297 20.7969 6.24219 21.5586 7.22656C22.8828 8.9375 23.9492 11.0469 23.9492 13.6953C23.9492 16.9297 22.2969 19.25 19.8711 20.6445H7.95312C5.53906 19.25 3.88672 16.9297 3.88672 13.6953C3.88672 11.0469 4.95312 8.9375 6.26562 7.22656C7.03906 6.24219 7.23828 6.04297 7.23828 4.71875V2.91406C7.23828 2.42188 6.81641 2 6.33594 2C5.84375 2 5.41016 2.42188 5.41016 2.91406V4.58984C5.41016 5.14062 5.375 5.36328 4.71875 6.20703C3.14844 8.21094 2 10.7188 2 13.6953Z" fill="black" fill-opacity="0.85"/>
<path d="M13.9297 13.6953C14.4922 13.6953 14.8086 13.3672 14.832 12.7578L14.9961 8.45703C15.0195 7.8125 14.5391 7.36719 13.918 7.36719C13.2852 7.36719 12.8281 7.80078 12.8516 8.44531L13.0039 12.7578C13.0273 13.3555 13.3438 13.6953 13.9297 13.6953ZM13.918 17.4336C14.5977 17.4336 15.1836 16.8945 15.1836 16.2148C15.1836 15.5352 14.6094 14.9961 13.918 14.9961C13.2266 14.9961 12.6523 15.5469 12.6523 16.2148C12.6523 16.8828 13.2383 17.4336 13.918 17.4336Z" fill="black" fill-opacity="0.85"/>
</svg>
