<svg width="28" height="28" viewBox="0 0 28 28" fill="none" xmlns="http://www.w3.org/2000/svg">
<path d="M6.67969 24.5977H20.8945C23.3555 24.5977 24.5742 23.3789 24.5742 20.9648V6.65625C24.5742 4.24219 23.3555 3.02344 20.8945 3.02344H6.67969C4.23047 3.02344 3 4.23047 3 6.65625V20.9648C3 23.3906 4.23047 24.5977 6.67969 24.5977ZM6.70312 22.7109C5.53125 22.7109 4.88672 22.0898 4.88672 20.8711V6.75C4.88672 5.53125 5.53125 4.91016 6.70312 4.91016H20.8711C22.0312 4.91016 22.6875 5.53125 22.6875 6.75V20.8711C22.6875 22.0898 22.0312 22.7109 20.8711 22.7109H6.70312Z" fill="black" fill-opacity="0.85"/>
<path d="M10.0547 18.7734C12.3867 18.7734 13.0781 16.1484 13.0781 13.793C13.0781 11.4375 12.3867 8.8125 10.0547 8.8125C7.71094 8.8125 7.01953 11.4375 7.01953 13.793C7.01953 16.1484 7.71094 18.7734 10.0547 18.7734ZM10.0547 17.3789C9.09375 17.3789 8.73047 15.8203 8.73047 13.793C8.73047 11.7539 9.09375 10.1953 10.0547 10.1953C11.0156 10.1953 11.3789 11.7539 11.3789 13.793C11.3789 15.8203 11.0156 17.3789 10.0547 17.3789ZM18.75 18.6797C19.1953 18.6797 19.5469 18.4102 19.5469 17.8477V16.6758H19.9688C20.4258 16.6758 20.6367 16.3828 20.6367 15.9844C20.6367 15.6094 20.4375 15.3164 19.9688 15.3164H19.5469V10.1719C19.5469 9.36328 19.0195 8.90625 18.2578 8.90625C17.4258 8.90625 17.0391 9.32812 16.7109 10.0547L14.6133 14.6016C14.4258 15.0586 14.3555 15.3633 14.3555 15.7266C14.3555 16.2891 14.7422 16.6758 15.3164 16.6758H17.9414V17.8477C17.9414 18.4688 18.375 18.6797 18.75 18.6797ZM17.9766 15.3516H15.7969V15.2695L17.9297 10.3828H17.9766V15.3516Z" fill="black" fill-opacity="0.85"/>
</svg>
