<svg width="38" height="28" viewBox="0 0 38 28" fill="none" xmlns="http://www.w3.org/2000/svg">
<g clip-path="url(#clip0_2124_24800)">
<path d="M0.0585938 12.8945H8.90625C9.11719 12.4023 9.59766 12.0859 10.1836 12.0859H26.8477C27.4336 12.0859 27.9258 12.4023 28.1367 12.8945H36.9844C36.3984 7.04688 32.1211 4 24.5156 4H12.5273C4.93359 4 0.65625 7.04688 0.0585938 12.8945ZM24.5156 23.8633C32.5664 23.8633 36.9492 20.4531 37.043 14.0781H28.1367C27.9258 14.5703 27.4336 14.8867 26.8477 14.8867H10.1836C9.59766 14.8867 9.11719 14.5703 8.90625 14.0781H0C0.0820312 20.2305 4.74609 23.8633 12.5273 23.8633H24.5156ZM18.5156 18.8125C17.8594 18.8242 17.3203 18.2734 17.3203 17.6289C17.3203 16.9727 17.8594 16.4336 18.5156 16.4336C19.1719 16.4336 19.7109 16.9727 19.7109 17.6289C19.7109 18.2383 19.1719 18.7891 18.5156 18.8125Z" fill="black" fill-opacity="0.85"/>
</g>
<defs>
<clipPath id="clip0_2124_24800">
<rect width="37.043" height="19.8867" fill="white" transform="translate(0 4)"/>
</clipPath>
</defs>
</svg>
