<svg width="28" height="28" viewBox="0 0 28 28" fill="none" xmlns="http://www.w3.org/2000/svg">
<path d="M6.67969 24.5977H20.8945C23.3555 24.5977 24.5742 23.3789 24.5742 20.9648V6.65625C24.5742 4.24219 23.3555 3.02344 20.8945 3.02344H6.67969C4.23047 3.02344 3 4.23047 3 6.65625V20.9648C3 23.3906 4.23047 24.5977 6.67969 24.5977Z" fill="black" fill-opacity="0.85"/>
<path d="M7.06825 18.2695L9.412 8.96484C9.55262 8.41406 9.96278 8.07422 10.5136 8.07422C11.0409 8.07422 11.4393 8.40234 11.58 8.96484L13.8416 18.2695C14.0057 18.9844 13.5838 19.3242 13.1151 19.3242C12.7401 19.3242 12.412 19.125 12.3183 18.6797L11.8143 16.3945H9.11903L8.62684 18.6797C8.53309 19.125 8.19325 19.3242 7.82996 19.3242C7.37293 19.3242 6.88075 18.9844 7.06825 18.2695ZM9.37684 15.1641H11.5565L10.4901 10.3828H10.3964L9.37684 15.1641ZM17.3104 20.0625C17.0291 20.0625 16.7948 19.8281 16.7948 19.5586V18.7266C15.3885 18.5625 14.5213 17.6719 14.3573 16.4297C14.2518 15.7969 14.662 15.4453 15.0721 15.4453C15.4002 15.4453 15.6815 15.6562 15.7284 16.0664C15.787 16.793 16.1268 17.2734 16.7948 17.4141V14.3086L16.3729 14.0977C15.1073 13.4531 14.3573 12.6211 14.3573 11.3086C14.3573 9.90234 15.3651 8.91797 16.7948 8.75391V7.96875C16.7948 7.6875 17.0291 7.45312 17.3104 7.45312C17.5682 7.45312 17.8026 7.6875 17.8026 7.96875V8.76562C19.1268 8.97657 19.912 9.87892 20.0643 11.0508C20.158 11.7188 19.7479 12.0352 19.3377 12.0352C19.0096 12.0352 18.7049 11.8008 18.6698 11.4141C18.6229 10.7813 18.3416 10.3008 17.8026 10.1133V13.1367L18.201 13.3477C19.619 14.1211 20.2518 14.9297 20.2518 16.1016C20.2518 17.6016 19.2791 18.5625 17.8026 18.7383V19.5586C17.8026 19.8281 17.5682 20.0625 17.3104 20.0625ZM15.8456 11.25C15.8456 11.8828 16.2323 12.2344 16.701 12.5273L16.7948 12.5859V10.0781C16.2088 10.207 15.8456 10.6406 15.8456 11.25ZM18.7752 16.207C18.7752 15.6445 18.412 15.2109 17.8846 14.8945L17.8026 14.8477V17.4141C18.4237 17.2734 18.7752 16.8281 18.7752 16.207Z" fill="white"/>
</svg>
