<svg width="28" height="28" viewBox="0 0 28 28" fill="none" xmlns="http://www.w3.org/2000/svg">
<path d="M3.67969 24.5742H23.9531C26.4141 24.5742 27.6328 23.3672 27.6328 20.9531V6.63281C27.6328 4.21875 26.4141 3 23.9531 3H3.67969C1.23047 3 0 4.21875 0 6.63281V20.9531C0 23.3672 1.23047 24.5742 3.67969 24.5742Z" fill="black" fill-opacity="0.85"/>
<path d="M6.69141 18.7266C6.1875 18.7266 5.88281 18.375 5.88281 17.8125V10.5352H5.77734L4.40625 11.4375C4.14844 11.6133 4.03125 11.6367 3.86719 11.6367C3.57422 11.6367 3.30469 11.3555 3.30469 11.0273C3.30469 10.793 3.38672 10.6172 3.62109 10.4648L5.54297 9.15234C6 8.84766 6.24609 8.74219 6.65625 8.74219C7.20703 8.74219 7.52344 9.07031 7.52344 9.66797V17.8125C7.52344 18.3867 7.21875 18.7266 6.69141 18.7266ZM10.1367 18.5742C9.66797 18.5742 9.36328 18.3047 9.36328 17.8711C9.36328 17.625 9.46875 17.4258 9.64453 17.2383L13.0312 13.6172C13.6406 12.9609 14.2734 12.3164 14.2734 11.5664C14.2734 10.6992 13.6055 10.1133 12.6211 10.1133C11.6133 10.1133 11.0508 10.793 10.793 11.4375C10.6055 11.7422 10.4062 11.9766 10.0195 11.9766C9.58594 11.9766 9.31641 11.6953 9.31641 11.2852C9.31641 11.1328 9.33984 11.0273 9.38672 10.8633C9.72656 9.64453 11.0625 8.73047 12.5508 8.73047C14.5078 8.73047 15.7969 9.80859 15.7969 11.4375C15.7969 12.5977 15.1289 13.4414 14.1914 14.4492L11.6953 17.1211V17.168H15.5508C15.9727 17.168 16.2656 17.4492 16.2656 17.8594C16.2656 18.2695 15.9727 18.5742 15.5508 18.5742H10.1367ZM20.6016 18.7383C18.8906 18.7383 17.4609 17.8828 17.2031 16.6523C17.1797 16.5117 17.168 16.4414 17.168 16.2891C17.168 15.8672 17.4375 15.5625 17.8945 15.5625C18.2578 15.5625 18.4805 15.7383 18.6328 16.1016C18.9141 16.9219 19.6172 17.3789 20.625 17.3789C21.8438 17.3789 22.6523 16.7461 22.6523 15.8203C22.6523 14.8711 21.8555 14.25 20.6836 14.25H19.9453C19.5703 14.25 19.2891 13.9688 19.2891 13.582C19.2891 13.1836 19.5703 12.9258 19.9453 12.9258H20.6133C21.5977 12.9258 22.3359 12.293 22.3359 11.4375C22.3359 10.6055 21.6797 10.0898 20.6602 10.0898C19.7344 10.0898 19.043 10.5469 18.8086 11.3555C18.6914 11.7305 18.457 11.9062 18.082 11.9062C17.6484 11.9062 17.3555 11.6133 17.3555 11.2148C17.3555 11.0391 17.3672 10.9453 17.3906 10.793C17.6836 9.53906 18.9727 8.71875 20.6836 8.71875C22.5586 8.71875 23.8945 9.78516 23.8945 11.2617C23.8945 12.375 23.0859 13.3359 22.043 13.5V13.5234C23.3086 13.6641 24.2344 14.6367 24.2344 15.8789C24.2344 17.6016 22.7695 18.7383 20.6016 18.7383Z" fill="white"/>
</svg>
