<svg width="34" height="28" viewBox="0 0 34 28" fill="none" xmlns="http://www.w3.org/2000/svg">
<g clip-path="url(#clip0_2124_50013)">
<path d="M16.6055 24.0508C26.4844 24.0508 33.2227 19.5156 33.2227 14.0312C33.2227 8.54688 26.4844 4 16.6055 4C6.72656 4 0 8.54688 0 14.0312C0 19.5156 6.72656 24.0508 16.6055 24.0508ZM16.6055 20.7578C10.1602 20.7578 5.37891 18.0391 5.37891 14.3477C5.37891 10.6797 10.1719 7.96094 16.6055 7.96094C23.0508 7.96094 27.8555 10.6797 27.8555 14.3477C27.8555 18.0273 23.0391 20.7578 16.6055 20.7578ZM16.6055 19.2227C22.0898 19.2227 26.3203 17.0312 26.3203 14.3477C26.3203 13.2461 25.6055 12.2266 24.375 11.418C23.0742 13.5625 20.0391 15.0625 16.5586 15.0625C13.0898 15.0625 10.0898 13.5859 8.77734 11.4648C7.59375 12.2734 6.91406 13.2578 6.91406 14.3477C6.91406 17.0312 11.0977 19.2227 16.6055 19.2227Z" fill="black" fill-opacity="0.85"/>
</g>
<defs>
<clipPath id="clip0_2124_50013">
<rect width="33.2227" height="20.0742" fill="white" transform="translate(0 4)"/>
</clipPath>
</defs>
</svg>
