<svg width="28" height="28" viewBox="0 0 28 28" fill="none" xmlns="http://www.w3.org/2000/svg">
<path d="M6.67969 24.5977H20.8945C23.3555 24.5977 24.5742 23.3789 24.5742 20.9648V6.65625C24.5742 4.24219 23.3555 3.02344 20.8945 3.02344H6.67969C4.23047 3.02344 3 4.23047 3 6.65625V20.9648C3 23.3906 4.23047 24.5977 6.67969 24.5977Z" fill="black" fill-opacity="0.85"/>
<path d="M9.14062 14.9648C9.14062 14.6367 9.38672 14.3789 9.73828 14.3789H17.8359C18.1758 14.3789 18.4102 14.6367 18.4102 14.9648C18.4102 15.3164 18.1758 15.5742 17.8359 15.5742H12.2461C11.8828 15.832 11.7188 16.2422 11.7188 16.6172C11.7188 17.6602 12.668 18.1758 13.8047 18.1758C14.6953 18.1758 15.5156 17.7891 15.832 16.9922C16.0078 16.5938 16.2422 16.4648 16.5469 16.4648C17.0039 16.4648 17.2734 16.7812 17.2617 17.2031C17.25 17.5078 17.1562 17.8008 16.9688 18.0703C16.3359 19.1133 15.1406 19.6172 13.8281 19.6172C11.8477 19.6172 10.1836 18.5391 10.1836 16.6758C10.1836 16.3242 10.3125 15.9141 10.5352 15.5742H9.73828C9.38672 15.5742 9.14062 15.3164 9.14062 14.9648ZM9.17578 12.5508C9.17578 12.1992 9.41016 11.9531 9.76172 11.9531H15.3398C15.7031 11.6836 15.8789 11.2734 15.8789 10.8984C15.8789 9.86719 14.918 9.33984 13.793 9.33984C12.8906 9.33984 12.082 9.72656 11.7539 10.5234C11.5898 10.9219 11.3438 11.0508 11.0508 11.0508C10.582 11.0508 10.3242 10.7344 10.3242 10.3242C10.3359 10.0078 10.4414 9.72656 10.6172 9.45703C11.2617 8.40234 12.4453 7.89844 13.7578 7.89844C15.7383 7.89844 17.4023 8.97656 17.4023 10.8398C17.4023 11.1914 17.2852 11.6016 17.0508 11.9531H17.8594C18.1992 11.9531 18.4453 12.1992 18.4453 12.5508C18.4453 12.8789 18.1992 13.1367 17.8594 13.1367H9.76172C9.41016 13.1367 9.17578 12.8789 9.17578 12.5508Z" fill="white"/>
</svg>
