<svg width="28" height="28" viewBox="0 0 28 28" fill="none" xmlns="http://www.w3.org/2000/svg">
<path d="M13.9531 25.9062C20.4922 25.9062 25.9062 20.4805 25.9062 13.9531C25.9062 7.41406 20.4805 2 13.9414 2C7.41406 2 2 7.41406 2 13.9531C2 20.4805 7.42578 25.9062 13.9531 25.9062ZM13.9531 23.9141C8.42188 23.9141 4.00391 19.4844 4.00391 13.9531C4.00391 8.42188 8.41016 3.99219 13.9414 3.99219C19.4727 3.99219 23.9141 8.42188 23.9141 13.9531C23.9141 19.4844 19.4844 23.9141 13.9531 23.9141Z" fill="black" fill-opacity="0.85"/>
<path d="M9.3125 18.6875H13.3789C13.7891 18.6875 14.0469 18.418 14.0469 18.0078C14.0469 17.5625 13.7773 17.3164 13.3789 17.3164H10.6016V17.2227L12.3125 15.0547C13.4844 13.6016 13.8711 12.7344 13.8711 11.7031C13.8711 10.1211 12.793 8.97266 11.1758 8.97266C9.67578 8.97266 8.53906 10.2148 8.53906 11.4336C8.53906 11.8672 8.79688 12.1719 9.24219 12.1719C9.62891 12.1719 9.86328 11.9961 9.98047 11.6094C10.2031 10.8242 10.4961 10.332 11.1641 10.332C11.8789 10.332 12.2656 10.9531 12.2656 11.7852C12.2656 12.7227 11.6211 13.6719 11 14.4688L8.96094 17.0703C8.73828 17.3516 8.52734 17.6445 8.52734 18.0078C8.52734 18.4062 8.78516 18.6875 9.3125 18.6875ZM17.9609 18.8164C18.4297 18.8164 18.8164 18.4297 18.8164 17.9609V10.0156C18.8164 9.41797 18.4414 9.06641 17.832 9.06641C17.3398 9.06641 16.9414 9.33594 16.6602 9.54688L15.3711 10.543C15.1719 10.707 15.0078 10.9297 15.0078 11.2344C15.0078 11.5977 15.2539 11.8555 15.6055 11.8555C15.793 11.8555 15.9102 11.7969 16.0273 11.7148L17.1055 10.8477V17.9609C17.1055 18.4297 17.4922 18.8164 17.9609 18.8164Z" fill="black" fill-opacity="0.85"/>
</svg>
