<svg width="31" height="28" viewBox="0 0 31 28" fill="none" xmlns="http://www.w3.org/2000/svg">
<path d="M19.8164 8.12109C21.2344 8.12109 22.3828 6.97266 22.3828 5.55469C22.3828 4.13672 21.2344 3 19.8164 3C18.3984 3 17.2617 4.13672 17.2617 5.55469C17.2617 6.97266 18.3984 8.12109 19.8164 8.12109ZM11.2031 24.9375C11.6602 25.1953 12.4336 25.0898 12.7734 24.4102L15.7148 18.5625C15.9375 18.1055 15.8672 17.5664 15.4922 17.2031L11.9531 13.6523L16.418 11.4141C16.6406 11.2969 16.8867 11.3555 17.0508 11.5195L19.3477 13.8281V18.6211C19.3477 19.2656 19.8867 19.793 20.5312 19.793C21.1758 19.793 21.7031 19.2656 21.7031 18.6211V13.3477C21.7031 13.0312 21.6328 12.75 21.3633 12.5039L16.0664 7.23047C15.4688 6.63281 14.6836 6.31641 13.8398 6.31641H9.33984C8.16797 6.31641 7.82812 7.59375 8.54297 8.29688L9.94922 9.69141L9.375 9.92578C7.24219 10.8047 6.62109 13.6055 8.63672 15.0703L13.1719 18.3984L10.6875 23.3672C10.3945 23.9414 10.6289 24.6328 11.2031 24.9375ZM1.17188 20.3906H7.04297C7.51172 20.3906 7.88672 20.0977 8.07422 19.7344L9.41016 17.0508L7.96875 15.9844C7.64062 15.75 7.35938 15.4805 7.13672 15.1992L6.1875 18.0352H1.17188C0.527344 18.0352 0 18.5625 0 19.2188C0 19.8633 0.527344 20.3906 1.17188 20.3906ZM25.875 24.5508H29.4023C29.7422 24.5508 30.0352 24.2578 30.0352 23.9062V23.3203C30.0352 22.957 29.7422 22.6641 29.4023 22.6641H25.5L14.1211 11.2969L12.9609 11.9648L25.3008 24.3047C25.5117 24.5156 25.6523 24.5508 25.875 24.5508Z" fill="black" fill-opacity="0.85"/>
</svg>
