<svg width="28" height="28" viewBox="0 0 28 28" fill="none" xmlns="http://www.w3.org/2000/svg">
<path d="M13.9531 25.9062C20.4922 25.9062 25.9062 20.4805 25.9062 13.9531C25.9062 7.41406 20.4805 2 13.9414 2C7.41406 2 2 7.41406 2 13.9531C2 20.4805 7.42578 25.9062 13.9531 25.9062ZM13.9531 23.9141C8.42188 23.9141 4.00391 19.4844 4.00391 13.9531C4.00391 8.42188 8.41016 3.99219 13.9414 3.99219C19.4727 3.99219 23.9141 8.42188 23.9141 13.9531C23.9141 19.4844 19.4844 23.9141 13.9531 23.9141Z" fill="black" fill-opacity="0.85"/>
<path d="M9.67578 18.7812C9.67578 19.1914 9.94531 19.4727 10.3672 19.4727H17.4453C17.8672 19.4727 18.1602 19.1914 18.1602 18.7812C18.1602 18.3711 17.8672 18.1016 17.4453 18.1016H12.3828C12.8867 17.6914 13.2383 16.9766 13.3438 16.2148C13.3672 16.0273 13.3789 15.8516 13.3789 15.6758H16.1797C16.5664 15.6758 16.8359 15.418 16.8359 15.043C16.8359 14.668 16.5664 14.4219 16.1797 14.4219H13.25C13.168 14.0703 13.0742 13.7305 12.9922 13.4023H16.1797C16.5664 13.4023 16.8359 13.1445 16.8359 12.7695C16.8359 12.3945 16.5664 12.1484 16.1797 12.1484H12.7812C12.7695 12.0312 12.7578 11.9141 12.7578 11.7969C12.7578 10.5312 13.6602 9.66406 15.207 9.66406C16.0742 9.66406 16.5898 9.875 16.9531 9.92188C17.3867 9.94531 17.6211 9.6875 17.6211 9.30078C17.6211 8.99609 17.4688 8.75 17.0586 8.58594C16.5078 8.36328 15.8398 8.28125 15.125 8.28125C12.6992 8.28125 11.2227 9.6875 11.2227 11.8906C11.2227 11.9844 11.2344 12.0547 11.2461 12.1484H10.3555C9.98047 12.1484 9.69922 12.3945 9.69922 12.7695C9.69922 13.1445 9.98047 13.4023 10.3555 13.4023H11.4453C11.5156 13.7422 11.6211 14.082 11.7031 14.4219H10.3555C9.98047 14.4219 9.69922 14.668 9.69922 15.043C9.69922 15.418 9.98047 15.6758 10.3555 15.6758H11.8906C11.9023 15.8047 11.8906 15.9219 11.8789 16.0625C11.7617 17.0938 11.082 17.7969 10.2852 18.0195C9.85156 18.1602 9.67578 18.3945 9.67578 18.7812Z" fill="black" fill-opacity="0.85"/>
</svg>
