<svg width="52" height="28" viewBox="0 0 52 28" fill="none" xmlns="http://www.w3.org/2000/svg">
<g clip-path="url(#clip0_2124_89070)">
<path d="M6.41163 24.0078H20.7671C22.3843 24.0078 23.3335 23.1055 23.3335 21.5V15.2656H3.84521V21.5C3.84521 23.1055 4.78272 24.0078 6.41163 24.0078Z" fill="black" fill-opacity="0.85"/>
<path d="M2.56791 17.7383H24.6109C27.1656 17.7383 28.0679 14.5977 26.146 13.2383L18.6109 7.97656C17.9663 7.51953 17.1929 7.29688 16.3726 7.29688H10.8062C9.98588 7.29688 9.21244 7.51953 8.56791 7.97656L1.03275 13.2383C-0.889123 14.5977 0.0132208 17.7383 2.56791 17.7383Z" fill="white"/>
<path d="M2.56779 16.1328H24.6108C25.6069 16.1328 25.8764 15.0078 25.2202 14.5391L17.6733 9.27734C17.31 9.01953 16.8647 8.89062 16.3725 8.89062H10.8061C10.3022 8.89062 9.86857 9.01953 9.49357 9.27734L1.95841 14.5391C1.30216 15.0078 1.57169 16.1328 2.56779 16.1328Z" fill="black" fill-opacity="0.85"/>
<path d="M44.7202 24.0078C46.3373 24.0078 47.2866 23.1055 47.2866 21.5V15.2656H27.7866V21.5C27.7866 23.1055 28.7358 24.0078 30.3647 24.0078H44.7202Z" fill="black" fill-opacity="0.85"/>
<path d="M48.564 17.7383C51.107 17.7383 52.021 14.5977 50.0992 13.2383L42.564 7.97656C41.9195 7.51953 41.146 7.29688 40.3257 7.29688H34.7476C33.9273 7.29688 33.1656 7.51953 32.521 7.97656L24.9859 13.2383C23.064 14.5977 23.9663 17.7383 26.521 17.7383H48.564Z" fill="white"/>
<path d="M48.5639 16.1328C49.56 16.1328 49.8295 15.0078 49.1733 14.5391L41.6264 9.27734C41.2514 9.01953 40.8178 8.89062 40.3256 8.89062H34.7475C34.2553 8.89062 33.8217 9.01953 33.4467 9.27734L25.8998 14.5391C25.2553 15.0078 25.5248 16.1328 26.5209 16.1328H48.5639Z" fill="black" fill-opacity="0.85"/>
<path d="M15.3766 25.6133H35.7438C38.2516 25.6133 39.9039 23.9844 39.9039 21.5V14.2109L25.5602 2.97266L11.2282 14.2109V21.5C11.2282 23.9844 12.8922 25.6133 15.3766 25.6133ZM13.2438 17.1172L25.5836 7.47266L37.8883 17.1172C40.6657 19.3086 43.7711 15.3125 41.193 13.2852L28.0329 2.9375C26.4625 1.70703 24.6579 1.70703 23.0875 2.9375L9.93907 13.2734C7.36095 15.3125 10.4547 19.2969 13.2438 17.1172Z" fill="white"/>
<path d="M15.3765 24.0078H35.7437C37.3726 24.0078 38.3101 23.1055 38.3101 21.5V14.9844L25.5601 5.01172L12.8218 14.9844V21.5C12.8218 23.1055 13.771 24.0078 15.3765 24.0078ZM22.5132 22.1797V16.9648C22.5132 16.4844 22.8531 16.1562 23.3218 16.1562H27.8101C28.3023 16.1562 28.6187 16.4844 28.6187 16.9648V22.1797H22.5132Z" fill="black" fill-opacity="0.85"/>
<path d="M13.2438 17.1172L25.5836 7.47266L37.8883 17.1172C40.6657 19.3086 43.7711 15.3125 41.193 13.2852L28.0329 2.9375C26.4625 1.70703 24.6579 1.70703 23.0875 2.9375L9.93907 13.2734C7.36095 15.3125 10.4547 19.2969 13.2438 17.1172Z" fill="white"/>
<path d="M12.2593 15.8633L25.0445 5.84375C25.3843 5.57422 25.7593 5.57422 26.0992 5.84375L38.8726 15.8633C39.9976 16.7539 41.146 15.2656 40.2085 14.5391L27.0367 4.19141C26.0523 3.40625 25.0679 3.40625 24.0835 4.19141L10.9234 14.5391C9.98593 15.2656 11.1343 16.7539 12.2593 15.8633Z" fill="black" fill-opacity="0.85"/>
</g>
<defs>
<clipPath id="clip0_2124_89070">
<rect width="51.1289" height="23.6133" fill="white" transform="translate(0 2)"/>
</clipPath>
</defs>
</svg>
