<svg width="28" height="30" viewBox="0 0 28 30" fill="none" xmlns="http://www.w3.org/2000/svg">
<path d="M13.1101 8.07422C14.5164 8.07422 15.6648 6.9375 15.6648 5.51953C15.6648 4.11328 14.5164 2.96484 13.1101 2.96484C11.6922 2.96484 10.5555 4.11328 10.5555 5.51953C10.5555 6.9375 11.6922 8.07422 13.1101 8.07422ZM6.92265 25.875H12.3953C12.8523 25.875 13.3094 25.6641 13.5437 25.2188L16.0398 20.625C16.1219 20.4492 16.3562 20.4609 16.4148 20.6367L17.7273 24.1523L12.993 27.3047C12.4422 27.6797 12.3016 28.4297 12.6648 29.0039C13.0281 29.5664 13.7898 29.7188 14.3523 29.332L19.7312 25.7695C20.2703 25.4062 20.5281 24.832 20.3758 24.1992L17.0945 11.1562C16.9773 10.7227 17.0945 10.4883 17.4226 10.3242L25.907 6.08203C26.5164 5.77734 26.7508 5.02734 26.4578 4.42969C26.1531 3.82031 25.4266 3.5625 24.8055 3.87891L7.18046 12.7031L4.36796 9.89062C4.22733 9.75 4.07499 9.63281 3.92265 9.52734L6.65312 4.73438L5.5164 4.08984L2.15312 9.97266C1.88358 10.4531 1.97733 10.9688 2.37577 11.3672L6.05546 15.0586C6.38358 15.375 6.96952 15.5508 7.5789 15.2461L11.7508 13.1484C12.0437 13.0078 12.3133 13.1367 12.3719 13.3828L13.6258 18.4219L11.6219 23.4141H6.92265C6.23124 23.4141 5.69218 23.9531 5.69218 24.6445C5.69218 25.3125 6.23124 25.875 6.92265 25.875ZM7.00468 5.10938C8.42265 5.10938 9.55937 3.97266 9.55937 2.55469C9.55937 1.13672 8.42265 0 7.00468 0C5.58671 0 4.44999 1.13672 4.44999 2.55469C4.44999 3.97266 5.58671 5.10938 7.00468 5.10938ZM7.00468 3.80859C6.27812 3.80859 5.75077 3.26953 5.75077 2.55469C5.75077 1.83984 6.27812 1.30078 7.00468 1.30078C7.71952 1.30078 8.25858 1.83984 8.25858 2.55469C8.25858 3.26953 7.71952 3.80859 7.00468 3.80859Z" fill="black" fill-opacity="0.85"/>
</svg>
