<svg width="35" height="29" viewBox="0 0 35 29" fill="none" xmlns="http://www.w3.org/2000/svg">
<g clip-path="url(#clip0_2124_45959)">
<path d="M31.358 8.3772C33.1159 8.3772 34.5221 6.91236 34.5221 5.21314C34.5221 3.44361 33.1159 2.01392 31.358 2.01392C29.5885 2.01392 28.1705 3.44361 28.1705 5.21314C28.1705 6.95923 29.5885 8.3772 31.358 8.3772ZM12.4791 25.1467C13.0885 25.7795 14.1315 25.7327 14.8698 24.9592L19.9205 19.7561C20.0846 19.5803 20.2018 19.5334 20.4596 19.6389L24.3971 21.1272C26.9284 22.0998 29.3073 21.2678 30.4205 19.2522L32.9518 14.6467C33.9362 12.8537 33.6198 11.0022 31.9205 10.0881C30.2565 9.1858 28.5455 9.86548 27.5495 11.7053L24.2565 17.6936L21.4674 16.6741C20.0729 16.1701 18.9245 16.3342 17.8229 17.4827L12.5846 22.8967C11.858 23.6467 11.9284 24.5842 12.4791 25.1467Z" fill="black" fill-opacity="0.85"/>
<path d="M0.208671 5.78736L3.39617 9.85376C3.5368 10.0413 3.75945 10.0764 3.95867 9.95923C4.72039 9.5608 5.81023 9.29126 6.6657 9.29126C7.53289 9.29126 8.62273 9.5608 9.36102 9.95923C9.58367 10.0764 9.80633 10.0413 9.93523 9.85376L13.1345 5.78736C13.4509 5.3772 13.3923 4.96704 13.0173 4.66236C11.7165 3.66626 9.25555 2.90454 6.6657 2.90454C4.08758 2.90454 1.62664 3.66626 0.337578 4.66236C-0.0608597 4.96704 -0.0960157 5.3772 0.208671 5.78736ZM3.51336 12.2327C3.15008 11.7522 2.99773 11.3069 2.99773 10.8264C2.99773 9.72486 3.88836 9.44361 3.88836 8.79908C3.88836 8.14283 2.99773 7.8733 2.99773 6.73658C2.99773 6.26783 3.15008 5.82251 3.51336 5.35376C3.92352 4.86158 4.6618 5.38892 4.26336 5.90454C4.00555 6.26783 3.93523 6.46704 3.93523 6.73658C3.93523 7.53345 4.81414 7.75611 4.81414 8.79908C4.81414 9.83033 3.93523 10.0647 3.93523 10.8264C3.93523 11.1311 4.00555 11.3069 4.26336 11.6819C4.65008 12.1858 3.92352 12.7248 3.51336 12.2327ZM6.26727 12.2327C5.92742 11.7522 5.76336 11.3069 5.76336 10.8264C5.76336 9.72486 6.65398 9.44361 6.65398 8.79908C6.65398 8.14283 5.76336 7.8733 5.76336 6.73658C5.76336 6.26783 5.9157 5.82251 6.26727 5.35376C6.67742 4.86158 7.42742 5.38892 7.0407 5.90454C6.77117 6.26783 6.70086 6.46704 6.70086 6.73658C6.70086 7.53345 7.59148 7.75611 7.59148 8.79908C7.59148 9.83033 6.70086 10.0647 6.70086 10.8264C6.70086 11.1311 6.77117 11.3069 7.02898 11.6819C7.4157 12.1858 6.67742 12.7248 6.26727 12.2327ZM9.05633 12.2327C8.69305 11.7522 8.52898 11.3069 8.52898 10.8264C8.52898 9.72486 9.43133 9.44361 9.43133 8.79908C9.43133 8.14283 8.52898 7.8733 8.52898 6.73658C8.52898 6.26783 8.68133 5.82251 9.06805 5.35376C9.46648 4.86158 10.1931 5.38892 9.80633 5.90454C9.54852 6.26783 9.46648 6.46704 9.46648 6.73658C9.46648 7.53345 10.3571 7.75611 10.3571 8.79908C10.3571 9.83033 9.46648 10.0647 9.46648 10.8264C9.46648 11.1311 9.54852 11.3069 9.79461 11.6819C10.1931 12.1858 9.45477 12.7248 9.05633 12.2327ZM14.1306 6.88892C14.1306 7.38111 14.5173 7.76783 15.0095 7.76783H19.5681V9.67798C19.5681 10.51 20.4236 10.885 21.0446 10.3225L24.1853 7.54517C24.6071 7.15845 24.6071 6.65454 24.1853 6.27954L21.0446 3.5022C20.447 2.96314 19.5681 3.26783 19.5681 4.13501V6.04517H15.0095C14.5173 6.04517 14.1306 6.42017 14.1306 6.88892Z" fill="black" fill-opacity="0.85"/>
</g>
<defs>
<clipPath id="clip0_2124_45959">
<rect width="34.5153" height="23.7773" fill="white" transform="translate(0.00585938 2.01392)"/>
</clipPath>
</defs>
</svg>
