<svg width="28" height="28" viewBox="0 0 28 28" fill="none" xmlns="http://www.w3.org/2000/svg">
<path d="M8.51465 23.796L10.2021 24.1827C9.40527 22.296 8.9834 20.3038 8.94824 18.253C8.62012 12.4288 11.1279 6.87415 15.6045 3.20618L14.1162 2.62024C9.6748 6.55774 7.22559 12.2882 7.54199 18.2765C7.56543 20.1515 7.89355 22.003 8.51465 23.796ZM16.249 24.9562L17.5615 24.3702C15.3701 21.2765 14.1748 17.6085 14.1748 13.7765C14.1748 10.1437 15.2295 6.67493 17.21 3.7218L15.8271 3.22962C13.835 6.37024 12.7568 10.0148 12.7568 13.7765C12.7568 17.8195 13.9756 21.6749 16.249 24.9562ZM22.5889 20.9015L23.5264 19.7999C19.7295 17.7843 17.6904 13.3312 17.6318 8.52649C17.6201 6.88587 17.9014 5.25696 18.4873 3.75696L17.1162 3.37024C16.4951 5.01087 16.2021 6.74524 16.2139 8.53821C16.2725 13.7296 18.4873 18.5929 22.5889 20.9015ZM13.3311 12.3585L13.8115 13.8351C14.3037 13.8937 14.7842 13.9054 15.2764 13.9054C18.6865 13.8937 21.9443 12.757 24.5811 10.671L23.9248 9.35852C21.499 11.3741 18.4639 12.4757 15.2764 12.4874C14.6201 12.4874 13.9756 12.4405 13.3311 12.3585ZM2.70215 15.5109C8.7959 20.714 17.5264 21.6866 24.5459 18.007L24.5225 16.4015C17.6787 20.3507 8.94824 19.3663 3.05371 13.9171L2.70215 15.5109ZM14.0225 25.9757C20.5615 25.9757 25.9756 20.5499 25.9756 14.0226C25.9756 7.48352 20.5498 2.06946 14.0107 2.06946C7.4834 2.06946 2.06934 7.48352 2.06934 14.0226C2.06934 20.5499 7.49512 25.9757 14.0225 25.9757ZM14.0225 24.382C8.37402 24.382 3.66309 19.6827 3.66309 14.0226C3.66309 8.36243 8.3623 3.66321 14.0107 3.66321C19.6709 3.66321 24.3818 8.36243 24.3818 14.0226C24.3818 19.6827 19.6826 24.382 14.0225 24.382Z" fill="black" fill-opacity="0.85"/>
<path d="M23.1631 26.3976C24.0654 27.2882 25.5186 27.2765 26.3857 26.3624C27.2646 25.4718 27.2646 24.0538 26.374 23.1749L4.88184 1.67103C4.00293 0.792121 2.56152 0.780403 1.65918 1.67103C0.780273 2.53822 0.780273 4.00305 1.65918 4.88196L23.1631 26.3976Z" fill="white"/>
<path d="M24.1357 25.4249C24.4873 25.7765 25.0732 25.7648 25.4131 25.4132C25.7646 25.0616 25.7646 24.4874 25.4131 24.1359L3.9209 2.64369C3.56934 2.29213 2.9834 2.28041 2.63184 2.64369C2.28027 2.98353 2.28027 3.56947 2.63184 3.92103L24.1357 25.4249Z" fill="black" fill-opacity="0.85"/>
</svg>
