<svg width="28" height="28" viewBox="0 0 28 28" fill="none" xmlns="http://www.w3.org/2000/svg">
<path d="M15.2281 25.9062C21.7555 25.9062 27.1813 20.4805 27.1813 13.9531C27.1813 7.41406 21.7555 2 15.2281 2C8.68908 2 3.27502 7.40234 3.27502 13.9414H5.26721C5.26721 8.41016 9.69689 4.00391 15.2281 4.00391C20.7594 4.00391 25.1891 8.42188 25.1891 13.9531C25.1891 19.4844 20.7594 23.9375 15.2281 23.9141C11.8883 23.9023 8.95861 22.2852 7.16564 19.7891C6.80236 19.3086 6.25158 19.1562 5.75939 19.4492C5.29064 19.7422 5.16174 20.3867 5.56017 20.9023C7.78674 23.8906 11.2789 25.9062 15.2281 25.9062ZM1.83361 11.6914C0.989862 11.6914 0.778925 12.2656 1.23596 12.9219L3.86096 16.6484C4.24767 17.1875 4.81017 17.1758 5.18517 16.6484L7.81017 12.9102C8.25549 12.2656 8.04455 11.6914 7.21252 11.6914H1.83361Z" fill="black" fill-opacity="0.85"/>
<path d="M15.2043 19.7656C17.7121 19.7656 19.5285 18.3711 19.5285 16.4258C19.5285 14.7852 18.6262 13.9062 16.3879 13.3672L14.7121 12.957C13.4113 12.6289 12.8371 12.1719 12.8371 11.3867C12.8371 10.4023 13.7629 9.72266 15.1223 9.72266C16.3527 9.72266 17.091 10.25 17.5129 11.375C17.7004 11.7852 18.0168 11.9727 18.3449 11.9727C18.9543 11.9727 19.3059 11.4336 19.0949 10.7305C18.7668 9.48828 17.3488 8.17578 15.1223 8.17578C12.7434 8.17578 11.0441 9.54688 11.0441 11.457C11.0441 13.0625 12.0637 14.0469 14.2199 14.5508L15.8957 14.9492C17.1965 15.2539 17.7004 15.6992 17.7004 16.5547C17.7004 17.5625 16.7277 18.2188 15.2043 18.2188C13.8449 18.2188 13.0129 17.7031 12.591 16.5898C12.4152 16.1914 12.0988 16.0039 11.7707 16.0039C11.1731 16.0039 10.8566 16.4844 10.9855 17.1875C11.2668 18.6289 12.9543 19.7656 15.2043 19.7656ZM14.5246 20.9141C14.5246 21.3008 14.841 21.6289 15.2277 21.6289C15.6145 21.6289 15.9426 21.3008 15.9426 20.9141V7.00391C15.9426 6.61719 15.6145 6.28906 15.2277 6.28906C14.841 6.28906 14.5246 6.61719 14.5246 7.00391V20.9141Z" fill="black" fill-opacity="0.85"/>
</svg>
