<svg width="28" height="28" viewBox="0 0 28 28" fill="none" xmlns="http://www.w3.org/2000/svg">
<path d="M6.67969 24.5977H20.8945C23.3555 24.5977 24.5742 23.3789 24.5742 20.9648V6.65625C24.5742 4.24219 23.3555 3.02344 20.8945 3.02344H6.67969C4.23047 3.02344 3 4.23047 3 6.65625V20.9648C3 23.3906 4.23047 24.5977 6.67969 24.5977Z" fill="black" fill-opacity="0.85"/>
<path d="M20.0156 13.7812C20.0156 14.0508 19.8984 14.2617 19.6641 14.4844L15.5859 18.5742C15.4219 18.7383 15.2109 18.832 14.9531 18.832C14.4492 18.832 14.0742 18.4453 14.0742 17.9414C14.0742 17.6836 14.1797 17.4609 14.3438 17.2969L15.8555 15.8086L17.3086 14.5898L14.7539 14.6836H8.47266C7.94531 14.6836 7.57031 14.3086 7.57031 13.7812C7.57031 13.2422 7.94531 12.8672 8.47266 12.8672H14.7539L17.3086 12.9727L15.8555 11.7539L14.3438 10.2656C14.1914 10.0898 14.0742 9.86719 14.0742 9.60938C14.0742 9.10547 14.4492 8.73047 14.9531 8.73047C15.2109 8.73047 15.4219 8.8125 15.5859 8.97656L19.6641 13.0781C19.9102 13.3242 20.0156 13.5117 20.0156 13.7812Z" fill="white"/>
</svg>
