<svg width="28" height="28" viewBox="0 0 28 28" fill="none" xmlns="http://www.w3.org/2000/svg">
<g clip-path="url(#clip0_2124_78062)">
<path d="M13.9531 25.9062C20.4922 25.9062 25.9062 20.4805 25.9062 13.9531C25.9062 7.41406 20.4805 2 13.9414 2C7.41406 2 2 7.41406 2 13.9531C2 20.4805 7.42578 25.9062 13.9531 25.9062ZM13.9531 23.9141C8.42188 23.9141 4.00391 19.4844 4.00391 13.9531C4.00391 8.42188 8.41016 3.99219 13.9414 3.99219C19.4727 3.99219 23.9141 8.42188 23.9141 13.9531C23.9141 19.4844 19.4844 23.9141 13.9531 23.9141Z" fill="black" fill-opacity="0.85"/>
<path d="M16.9648 18.7461C17.5273 18.7461 17.9375 18.3477 17.9375 17.8086C17.9375 17.3633 17.75 17.1055 17.2578 16.8711L11.3164 13.9531V13.8828L17.2578 10.8945C17.7383 10.6602 17.9375 10.3789 17.9375 9.94531C17.9375 9.41797 17.5391 9.01953 16.9883 9.01953C16.7305 9.01953 16.5898 9.06641 16.4023 9.16016L9.41797 12.9219C8.94922 13.1797 8.72656 13.5078 8.72656 13.9531C8.72656 14.4336 8.92578 14.7266 9.41797 14.9844L16.4023 18.6172C16.5781 18.6992 16.7305 18.7461 16.9648 18.7461Z" fill="black" fill-opacity="0.85"/>
</g>
<defs>
<clipPath id="clip0_2124_78062">
<rect width="23.9062" height="23.918" fill="white" transform="translate(2 2)"/>
</clipPath>
</defs>
</svg>
