<svg width="28" height="29" viewBox="0 0 28 29" fill="none" xmlns="http://www.w3.org/2000/svg">
<g clip-path="url(#clip0_2124_45964)">
<path d="M11.7793 24.8136H22.5136C24.2246 24.8136 25.1386 23.8761 25.1386 22.0245V13.9503C25.1386 12.1105 24.2246 11.173 22.5136 11.173H11.7793C10.0566 11.173 9.14258 12.1105 9.14258 13.9503V22.0245C9.14258 23.8761 10.0566 24.8136 11.7793 24.8136ZM11.8496 23.0441C11.3457 23.0441 11.041 22.7277 11.041 22.1534V13.8214C11.041 13.2472 11.3457 12.9425 11.8496 12.9425H22.455C22.9589 12.9425 23.2519 13.2472 23.2519 13.8214V22.1534C23.2519 22.7277 22.9589 23.0441 22.455 23.0441H11.8496ZM11.2051 12.0753H13.0566V8.1261C13.0566 5.16125 14.955 3.60266 17.1464 3.60266C19.3379 3.60266 21.2363 5.16125 21.2363 8.1261V12.0753H23.0996V8.37219C23.0996 3.96594 20.2168 1.83313 17.1464 1.83313C14.0761 1.83313 11.2051 3.96594 11.2051 8.37219V12.0753Z" fill="black" fill-opacity="0.85"/>
<path d="M3.10698 16.2941C3.48198 17.6066 4.87651 18.3566 6.38823 17.7823L6.88042 17.5831C6.88042 18.0519 6.88042 18.4152 6.81011 18.7081L5.54448 23.9933C4.72417 27.3917 9.42339 28.5753 10.2671 25.3761H10.8882C11.7203 28.5753 16.4429 27.38 15.6109 23.9933L14.3218 18.7081C14.2632 18.4152 14.275 18.0519 14.275 17.5831L14.7671 17.7823C16.2671 18.3566 17.6734 17.6066 18.0484 16.2941C18.4117 15.1105 17.8375 13.8214 16.5132 13.2823L13.7593 12.1456C13.982 11.6886 14.1109 11.1847 14.1109 10.6456C14.1109 8.70032 12.5523 7.10657 10.5835 7.10657C8.64995 7.10657 7.0562 8.68861 7.0562 10.6456C7.0562 11.1847 7.18511 11.6886 7.40776 12.1339L4.64214 13.2823C3.31792 13.8331 2.7437 15.1105 3.10698 16.2941Z" fill="white"/>
<path d="M10.5832 12.5675C11.6731 12.5675 12.5168 11.712 12.5168 10.6456C12.5168 9.57923 11.6731 8.71204 10.5832 8.71204C9.52854 8.71204 8.64963 9.57923 8.64963 10.6456C8.64963 11.712 9.52854 12.5675 10.5832 12.5675ZM10.5715 19.4581C10.8293 19.4581 11.0403 19.6105 11.1106 19.9034L12.4348 24.9777C12.7278 26.1027 14.2747 25.7042 14.1223 24.6378C14.0403 24.2159 12.9153 19.9269 12.7512 18.9659C12.634 18.2628 12.6926 16.4698 12.6926 15.6613C12.6926 15.4386 12.8918 15.2863 13.1262 15.3917L15.3645 16.2941C15.9739 16.5402 16.3957 16.2472 16.5129 15.8488C16.6418 15.4503 16.4661 14.9816 15.9036 14.7589L13.5012 13.7628C12.927 13.5284 12.4348 13.4113 11.8723 13.3292C11.4739 13.5167 11.0403 13.6339 10.5715 13.6339C10.1028 13.6339 9.68088 13.5167 9.28244 13.3292C8.71994 13.4113 8.21605 13.5284 7.65355 13.7628L5.23949 14.7589C4.6887 14.9816 4.51292 15.4503 4.64183 15.8488C4.7473 16.2472 5.18089 16.5402 5.79027 16.2941L8.02855 15.3917C8.26292 15.2863 8.46214 15.4386 8.46214 15.6613C8.46214 16.4698 8.52074 18.2628 8.40355 18.9659C8.23949 19.9269 7.11449 24.2159 7.03245 24.6378C6.86839 25.7042 8.42699 26.1027 8.71994 24.9777L10.0324 19.9034C10.1145 19.6105 10.3137 19.4581 10.5715 19.4581Z" fill="black" fill-opacity="0.85"/>
</g>
<defs>
<clipPath id="clip0_2124_45964">
<rect width="22.1382" height="27.2449" fill="white" transform="translate(3 0.00561523)"/>
</clipPath>
</defs>
</svg>
