<svg width="28" height="28" viewBox="0 0 28 28" fill="none" xmlns="http://www.w3.org/2000/svg">
<path d="M6.67969 24.5977H20.8945C23.3555 24.5977 24.5742 23.3789 24.5742 20.9648V6.65625C24.5742 4.24219 23.3555 3.02344 20.8945 3.02344H6.67969C4.23047 3.02344 3 4.23047 3 6.65625V20.9648C3 23.3906 4.23047 24.5977 6.67969 24.5977ZM6.70312 22.7109C5.53125 22.7109 4.88672 22.0898 4.88672 20.8711V6.75C4.88672 5.53125 5.53125 4.91016 6.70312 4.91016H20.8711C22.0312 4.91016 22.6875 5.53125 22.6875 6.75V20.8711C22.6875 22.0898 22.0312 22.7109 20.8711 22.7109H6.70312Z" fill="black" fill-opacity="0.85"/>
<path d="M8.30859 18.5273H12.375C12.7852 18.5273 13.0312 18.2578 13.0312 17.8477C13.0312 17.4023 12.7734 17.1562 12.375 17.1562H9.58594V17.0625L11.2969 14.8945C12.4687 13.4414 12.8555 12.5742 12.8555 11.543C12.8555 9.96094 11.7773 8.8125 10.1602 8.8125C8.67188 8.8125 7.52344 10.0547 7.52344 11.2734C7.52344 11.707 7.78125 12.0117 8.22656 12.0117C8.61328 12.0117 8.85938 11.8359 8.97656 11.4492C9.19922 10.6641 9.48047 10.1719 10.1602 10.1719C10.8633 10.1719 11.2617 10.793 11.2617 11.625C11.2617 12.5625 10.6055 13.5117 9.98438 14.3086L7.94531 16.9102C7.73438 17.1914 7.51172 17.4844 7.51172 17.8477C7.51172 18.2461 7.76953 18.5273 8.30859 18.5273ZM18.4453 18.6797C18.8789 18.6797 19.2422 18.4102 19.2422 17.8477V16.6758H19.6523C20.1094 16.6758 20.3203 16.3828 20.3203 15.9844C20.3203 15.6094 20.1211 15.3164 19.6523 15.3164H19.2422V10.1719C19.2422 9.36328 18.7148 8.90625 17.9414 8.90625C17.1211 8.90625 16.7344 9.32812 16.4062 10.0547L14.3086 14.6016C14.1094 15.0586 14.0391 15.3633 14.0391 15.7266C14.0391 16.2891 14.4375 16.6758 15.0117 16.6758H17.625V17.8477C17.625 18.4688 18.0703 18.6797 18.4453 18.6797ZM17.6602 15.3516H15.4922V15.2695L17.625 10.3828H17.6602V15.3516Z" fill="black" fill-opacity="0.85"/>
</svg>
