<svg width="28" height="31" viewBox="0 0 28 31" fill="none" xmlns="http://www.w3.org/2000/svg">
<path d="M1 12.5933C1 15.6284 2.08984 18.4409 4.03516 20.5503C4.49219 21.0425 5.14844 21.0425 5.52344 20.6089C5.89844 20.187 5.78125 19.6362 5.35938 19.1558C3.78906 17.4097 2.91016 15.1128 2.91016 12.5933C2.91016 10.0737 3.78906 7.77683 5.35938 6.03074C5.78125 5.55027 5.89844 4.99949 5.52344 4.57761C5.14844 4.14402 4.49219 4.14402 4.03516 4.63621C2.08984 6.74558 1 9.55808 1 12.5933ZM5.92188 12.5933C5.92188 14.3159 6.51953 15.9214 7.53906 17.187C7.94922 17.7261 8.65234 17.7144 9.03906 17.2691C9.41406 16.8472 9.25 16.3198 8.88672 15.8159C8.18359 14.9487 7.83203 13.812 7.83203 12.5933C7.83203 11.3745 8.20703 10.273 8.88672 9.37058C9.25 8.85497 9.41406 8.33933 9.03906 7.91746C8.65234 7.47216 7.94922 7.46043 7.53906 7.99949C6.51953 9.26511 5.92188 10.8706 5.92188 12.5933ZM13.4336 26.0347C13.9961 26.0347 14.3359 25.6362 14.3359 25.0269V14.0464C14.3359 13.5542 13.9258 13.1441 13.4336 13.1441C12.9414 13.1441 12.543 13.5542 12.543 14.0464V25.0269C12.543 25.6245 12.9062 26.0347 13.4336 26.0347ZM17.8281 17.2691C18.2266 17.7144 18.918 17.7261 19.3398 17.187C20.3594 15.9214 20.9453 14.3159 20.9453 12.5933C20.9453 10.8706 20.3594 9.26511 19.3398 7.99949C18.918 7.46043 18.2266 7.47216 17.8281 7.91746C17.4531 8.33933 17.6172 8.85497 17.9805 9.37058C18.6602 10.273 19.0352 11.3745 19.0352 12.5933C19.0352 13.812 18.6836 14.9487 17.9805 15.8159C17.6172 16.3198 17.4531 16.8472 17.8281 17.2691ZM21.3555 20.6089C21.7305 21.0425 22.3867 21.0425 22.832 20.5503C24.7773 18.4409 25.8789 15.6284 25.8789 12.5933C25.8789 9.55808 24.7773 6.74558 22.832 4.63621C22.3867 4.14402 21.7305 4.14402 21.3555 4.57761C20.9805 4.99949 21.0859 5.55027 21.5195 6.03074C23.0898 7.77683 23.9688 10.0737 23.9688 12.5933C23.9688 15.1128 23.0898 17.4097 21.5195 19.1558C21.0859 19.6362 20.9805 20.187 21.3555 20.6089Z" fill="black" fill-opacity="0.85"/>
<path d="M22.7031 24.898C23.6055 25.7886 25.0586 25.7886 25.9375 24.8745C26.8047 23.9839 26.8047 22.5776 25.9258 21.687L4.90234 0.663581C4.02344 -0.215325 2.57031 -0.227044 1.67969 0.663581C0.800781 1.54249 0.800781 3.00733 1.67969 3.88624L22.7031 24.898Z" fill="white"/>
<path d="M23.6758 23.937C24.0273 24.2886 24.6133 24.2886 24.9531 23.937C25.3047 23.5737 25.3047 23.0112 24.9531 22.6597L3.94141 1.63623C3.58984 1.28467 3.00391 1.28467 2.65234 1.63623C2.30078 1.97607 2.30078 2.57373 2.65234 2.91357L23.6758 23.937Z" fill="black" fill-opacity="0.85"/>
</svg>
