<svg width="28" height="28" viewBox="0 0 28 28" fill="none" xmlns="http://www.w3.org/2000/svg">
<path d="M6.67969 24.5977H20.8945C23.3555 24.5977 24.5742 23.3789 24.5742 20.9648V6.65625C24.5742 4.24219 23.3555 3.02344 20.8945 3.02344H6.67969C4.23047 3.02344 3 4.23047 3 6.65625V20.9648C3 23.3906 4.23047 24.5977 6.67969 24.5977Z" fill="black" fill-opacity="0.85"/>
<path d="M8.67188 18.6797C8.10938 18.6797 7.85156 18.3867 7.85156 17.9766C7.85156 17.6016 8.07422 17.2969 8.29688 17.0039L10.3945 14.332C11.0273 13.5117 11.707 12.5273 11.707 11.5547C11.707 10.6992 11.2969 10.0664 10.582 10.0664C9.87891 10.0664 9.59766 10.5703 9.36328 11.3789C9.23438 11.7773 8.98828 11.9648 8.58984 11.9648C8.12109 11.9648 7.86328 11.6484 7.86328 11.1914C7.86328 9.9375 9.03516 8.66016 10.582 8.66016C12.2461 8.66016 13.3594 9.84375 13.3594 11.4727C13.3594 12.5391 12.9609 13.4297 11.7539 14.9297L9.99609 17.1562V17.2617H12.8672C13.2773 17.2617 13.5469 17.5078 13.5469 17.9766C13.5469 18.3984 13.2891 18.6797 12.8672 18.6797H8.67188ZM16.3711 18.8438C15.7969 18.8438 15.5625 18.4453 15.5625 18.0938C15.5625 17.8008 15.6094 17.6484 15.7266 17.3789L18.3867 10.4531V10.3477H15.293C14.8711 10.3477 14.5898 10.043 14.5898 9.63281C14.5898 9.21094 14.8711 8.90625 15.293 8.90625H19.1953C19.7344 8.90625 20.1562 9.29297 20.1562 9.84375C20.1562 10.1953 20.0625 10.4883 19.9336 10.8633L17.1797 18.2227C17.0156 18.668 16.8164 18.8438 16.3711 18.8438Z" fill="white"/>
</svg>
