<svg width="28" height="28" viewBox="0 0 28 28" fill="none" xmlns="http://www.w3.org/2000/svg">
<g clip-path="url(#clip0_2124_24827)">
<path d="M8 24.3555C8 25.9023 9.03125 26.8867 10.6719 26.8867H17.9609C19.6016 26.8867 20.6328 25.9023 20.6328 24.3555V3.53125C20.6328 1.99609 19.6016 1 17.9609 1H10.6719C9.03125 1 8 1.99609 8 3.53125V24.3555ZM9.73438 24.1094V3.77734C9.73438 3.12109 10.168 2.71094 10.8711 2.71094H17.7617C18.4766 2.71094 18.8984 3.12109 18.8984 3.77734V24.1094C18.8984 24.7656 18.4766 25.1758 17.7617 25.1758H10.8711C10.168 25.1758 9.73438 24.7656 9.73438 24.1094ZM14.3281 12.2148C16.3672 12.2148 18.0195 10.5508 18.0195 8.52344C18.0195 6.48438 16.3672 4.82031 14.3281 4.82031C12.2891 4.82031 10.625 6.48438 10.625 8.52344C10.625 10.5508 12.2891 12.2148 14.3281 12.2148ZM14.3281 10.0117C13.4961 10.0117 12.8281 9.34375 12.8281 8.52344C12.8281 7.69141 13.4961 7.02344 14.3281 7.02344C15.1602 7.02344 15.8164 7.69141 15.8164 8.52344C15.8164 9.34375 15.1602 10.0117 14.3281 10.0117ZM14.3281 16.2109C15.0781 16.2109 15.6875 15.6016 15.6875 14.8516C15.6875 14.0898 15.0781 13.4805 14.3281 13.4805C13.5664 13.4805 12.9453 14.0898 12.9453 14.8516C12.9453 15.6016 13.5664 16.2109 14.3281 16.2109Z" fill="black" fill-opacity="0.85"/>
</g>
<defs>
<clipPath id="clip0_2124_24827">
<rect width="12.6328" height="25.957" fill="white" transform="translate(8 1)"/>
</clipPath>
</defs>
</svg>
