<svg width="33" height="28" viewBox="0 0 33 28" fill="none" xmlns="http://www.w3.org/2000/svg">
<path d="M1.00781 22.9531C1.59375 22.9531 1.94531 22.6367 2.07422 22.0508L2.91797 18.1953H7.41797L8.28516 22.0625C8.40234 22.6484 8.77734 22.9531 9.35156 22.9531C9.92578 22.9531 10.3828 22.543 10.3828 21.9688C10.3828 21.875 10.3594 21.7461 10.3359 21.6523L6.79688 6.55859C6.58594 5.71484 6.07031 5.12891 5.16797 5.12891C4.24219 5.12891 3.77344 5.67969 3.57422 6.57031L0.0820312 21.4414C0.046875 21.6055 0 21.8281 0 21.9688C0 22.6016 0.421875 22.9531 1.00781 22.9531ZM3.29297 16.3906L5.14453 7.85938L7.03125 16.3906H3.29297ZM13.7109 22.707H17.4023C20.2031 22.707 21.7383 20.7617 21.7383 17.8789C21.7383 15.9102 20.8125 13.8828 18.8789 13.5781V13.5898C20.3672 13.2148 21.1758 11.2578 21.1758 9.69922C21.1758 7.22656 19.7578 5.36328 17.332 5.36328H13.7109C13.043 5.36328 12.6797 5.84375 12.6797 6.48828V21.5938C12.6797 22.2031 12.9961 22.707 13.7109 22.707ZM14.7656 20.8555V14.668H16.793C18.7031 14.668 19.582 15.8633 19.582 17.7617C19.582 19.5898 18.7734 20.8555 16.9219 20.8555H14.7656ZM14.7656 12.8867V7.22656H16.8164C18.4102 7.22656 19.0781 8.33984 19.0781 9.94531C19.0781 11.6914 18.3047 12.8867 16.5703 12.8867H14.7656ZM28.2305 23.0352C31.1836 23.0352 32.6719 20.9375 32.6719 18.1484C32.6719 15.582 31.5117 14.3516 29.2148 13.1562L28.3477 12.6992C26.9883 11.9727 26.0742 11.1758 26.0742 9.57031C26.0742 8.12891 26.7539 6.93359 28.1367 6.93359C29.4844 6.93359 30.2227 8.02344 30.457 9.46484C30.5508 10.0508 30.9727 10.2969 31.4531 10.2969C32.0039 10.2969 32.3555 9.86328 32.3555 9.3125C32.3555 7.80078 31.0898 5.03516 28.1367 5.03516C25.582 5.03516 23.9883 7.07422 23.9883 9.71094C23.9883 12.1953 25.2773 13.5078 27.4219 14.6211L28.3008 15.0781C29.7539 15.8398 30.5977 16.6719 30.5977 18.3008C30.5977 19.8828 29.8242 21.1367 28.2656 21.1367C26.8008 21.1367 25.9922 19.9531 25.7695 18.4531C25.6523 17.8438 25.1953 17.6094 24.7734 17.6094C24.1992 17.6094 23.8594 18.0898 23.8594 18.6875C23.8594 20.3281 25.1484 23.0352 28.2305 23.0352Z" fill="black" fill-opacity="0.85"/>
</svg>
