<svg width="28" height="28" viewBox="0 0 28 28" fill="none" xmlns="http://www.w3.org/2000/svg">
<path d="M3 21.7344C3 22.25 3.42188 22.6836 3.9375 22.6836C4.46484 22.6836 4.88672 22.25 4.88672 21.7344V5.96094C4.88672 5.44531 4.46484 5.02344 3.9375 5.02344C3.42188 5.02344 3 5.44531 3 5.96094V21.7344ZM22.6875 21.7344C22.6875 22.25 23.1211 22.6836 23.6367 22.6836C24.1523 22.6836 24.5742 22.25 24.5742 21.7344V5.96094C24.5742 5.44531 24.1523 5.02344 23.6367 5.02344C23.1211 5.02344 22.6875 5.44531 22.6875 5.96094V21.7344Z" fill="black" fill-opacity="0.85"/>
<path d="M10.6758 18.6523C11.1797 18.6523 11.4844 18.2891 11.4844 17.7852V10.3789C11.4844 9.80469 11.1211 9.46484 10.5469 9.46484C10.0781 9.46484 9.73828 9.67578 9.375 9.95703L8.05078 10.9414C7.81641 11.1055 7.67578 11.3047 7.67578 11.5859C7.67578 11.9258 7.92188 12.1836 8.26172 12.1836C8.42578 12.1836 8.54297 12.1367 8.67188 12.0313L9.83203 11.1641H9.85547V17.7852C9.85547 18.2891 10.1602 18.6523 10.6758 18.6523ZM16.582 18.7227C18.8906 18.7227 19.6992 16.3555 19.6992 14.0469C19.6992 11.7383 18.8906 9.38281 16.582 9.38281C14.2734 9.38281 13.4648 11.75 13.4648 14.0469C13.4648 16.3672 14.2852 18.7227 16.582 18.7227ZM16.582 17.3984C15.6094 17.3984 15.1172 15.957 15.1172 14.0469C15.1172 12.1484 15.6094 10.7188 16.582 10.7188C17.5664 10.7188 18.0586 12.1602 18.0586 14.0469C18.0586 15.957 17.5664 17.3984 16.582 17.3984Z" fill="black" fill-opacity="0.85"/>
</svg>
