<svg width="28" height="28" viewBox="0 0 28 28" fill="none" xmlns="http://www.w3.org/2000/svg">
<path d="M6.67969 24.5742H20.8945C23.3555 24.5742 24.5742 23.3555 24.5742 20.9414V6.63281C24.5742 4.21875 23.3555 3 20.8945 3H6.67969C4.23047 3 3 4.20703 3 6.63281V20.9414C3 23.3672 4.23047 24.5742 6.67969 24.5742Z" fill="black" fill-opacity="0.85"/>
<path d="M15.0586 7.62891C17.8594 7.62891 19.6875 9.52734 19.6875 12.3516V13.9336C19.6875 14.4961 19.3359 14.8711 18.8203 14.8711C18.293 14.8711 17.9414 14.5078 17.9414 13.957V12.3516C17.9414 10.582 16.793 9.375 15.0586 9.375C13.4531 9.375 12.3867 10.5586 12.3867 12.3398V15.7734L12.3398 16.9688L12.7266 16.418L14.0977 15C14.2617 14.8242 14.4844 14.7188 14.7422 14.7188C15.2461 14.7188 15.6445 15.1055 15.6445 15.5859C15.6445 15.8555 15.5508 16.0664 15.3867 16.2305L12.2461 19.3008C12.0234 19.5234 11.7656 19.6172 11.5078 19.6172C11.2383 19.6172 10.9805 19.5117 10.7578 19.3008L7.65234 16.2422C7.47656 16.0664 7.39453 15.8672 7.39453 15.5977C7.39453 15.1055 7.79297 14.7188 8.29688 14.7188C8.53125 14.7188 8.76562 14.8242 8.91797 15L10.0664 16.1836L10.6992 16.9805L10.6406 15.7734V12.3398C10.6406 9.51562 12.4102 7.62891 15.0586 7.62891Z" fill="white"/>
</svg>
