<svg width="28" height="28" viewBox="0 0 28 28" fill="none" xmlns="http://www.w3.org/2000/svg">
<path d="M6.67969 24.5977H20.8945C23.3555 24.5977 24.5742 23.3789 24.5742 20.9648V6.65625C24.5742 4.24219 23.3555 3.02344 20.8945 3.02344H6.67969C4.23047 3.02344 3 4.23047 3 6.65625V20.9648C3 23.3906 4.23047 24.5977 6.67969 24.5977Z" fill="black" fill-opacity="0.85"/>
<path d="M10.1484 18.8906C8.84766 18.8906 7.61719 18.2695 7.26562 17.1445C7.20703 16.9453 7.17188 16.7344 7.17188 16.5117C7.17188 16.043 7.48828 15.75 7.96875 15.75C8.36719 15.75 8.61328 15.9492 8.74219 16.3477C8.88281 16.8984 9.26953 17.4844 10.1484 17.4844C11.0508 17.4844 11.4844 16.7695 11.4844 15.9375C11.4844 14.8945 10.9219 14.332 9.89062 14.332H9.59766C9.19922 14.332 8.92969 14.0977 8.92969 13.6992C8.92969 13.3008 9.1875 13.043 9.59766 13.043H9.87891C10.793 13.043 11.2852 12.3984 11.2852 11.5195C11.2852 10.7227 10.8984 10.1133 10.1016 10.1133C9.42188 10.1133 9.04688 10.5586 8.84766 11.2734C8.73047 11.6953 8.49609 11.8477 8.08594 11.8477C7.59375 11.8477 7.33594 11.5313 7.33594 11.1328C7.33594 10.9219 7.35938 10.7109 7.42969 10.4766C7.76953 9.41016 8.85938 8.70703 10.1016 8.70703C11.6719 8.70703 12.9375 9.65625 12.9375 11.332C12.9375 12.3398 12.3984 13.3242 11.2969 13.6172V13.6523C12.3164 13.7578 13.2188 14.4961 13.2188 15.9961C13.2188 17.8008 11.8828 18.8906 10.1484 18.8906ZM17.4727 18.8906C16.1719 18.8906 14.9414 18.2695 14.5898 17.1445C14.5312 16.9453 14.4961 16.7344 14.4961 16.5117C14.4961 16.043 14.8242 15.75 15.293 15.75C15.6797 15.75 15.9492 15.9492 16.0547 16.3477C16.207 16.8984 16.6055 17.4844 17.4844 17.4844C18.375 17.4844 18.8203 16.7695 18.8203 15.9375C18.8203 14.8945 18.2461 14.332 17.2266 14.332H16.9219C16.5117 14.332 16.2422 14.0977 16.2422 13.6992C16.2422 13.3008 16.5117 13.043 16.9219 13.043H17.2031C18.1055 13.043 18.5977 12.3984 18.5977 11.5195C18.5977 10.7227 18.2227 10.1133 17.4258 10.1133C16.7461 10.1133 16.3711 10.5586 16.1836 11.2734C16.0547 11.6953 15.8086 11.8477 15.3984 11.8477C14.918 11.8477 14.6602 11.5313 14.6602 11.1328C14.6602 10.9219 14.6836 10.7109 14.7422 10.4766C15.0938 9.41016 16.1719 8.70703 17.4258 8.70703C19.0078 8.70703 20.25 9.65625 20.25 11.332C20.25 12.3398 19.7227 13.3242 18.6211 13.6172V13.6523C19.6406 13.7578 20.543 14.4961 20.543 15.9961C20.543 17.8008 19.207 18.8906 17.4727 18.8906Z" fill="white"/>
</svg>
