<svg width="28" height="28" viewBox="0 0 28 28" fill="none" xmlns="http://www.w3.org/2000/svg">
<g clip-path="url(#clip0_2124_50160)">
<path d="M6.62109 25.4883H17.1914C19.582 25.4883 20.8008 24.2695 20.8008 21.9141V3.5625C20.8008 1.19531 19.5586 0 17.1914 0H6.62109C4.25391 0 3 1.19531 3 3.5625V21.9141C3 24.2695 4.23047 25.4883 6.62109 25.4883ZM4.88672 21.8203V3.66797C4.88672 2.50781 5.54297 1.88672 6.64453 1.88672H17.1562C18.2578 1.88672 18.9141 2.50781 18.9141 3.66797V21.8203C18.9141 22.9688 18.2578 23.6016 17.1562 23.6016H6.64453C5.54297 23.6016 4.88672 22.9688 4.88672 21.8203ZM7.99219 6.79688C8.89453 6.79688 9.64453 6.04688 9.64453 5.13281C9.64453 4.23047 8.89453 3.49219 7.99219 3.49219C7.07812 3.49219 6.33984 4.23047 6.33984 5.13281C6.33984 6.04688 7.07812 6.79688 7.99219 6.79688ZM7.00781 16.0781H10.418C10.8398 16.0781 11.168 15.7617 11.168 15.3398C11.168 14.9297 10.8398 14.6016 10.418 14.6016H7.00781C6.59766 14.6016 6.26953 14.9297 6.26953 15.3398C6.26953 15.7617 6.59766 16.0781 7.00781 16.0781ZM7.00781 19.0078H10.418C10.8398 19.0078 11.168 18.6914 11.168 18.2695C11.168 17.8477 10.8398 17.5312 10.418 17.5312H7.00781C6.59766 17.5312 6.26953 17.8477 6.26953 18.2695C6.26953 18.6914 6.59766 19.0078 7.00781 19.0078ZM7.00781 21.9375H10.418C10.8398 21.9375 11.168 21.6094 11.168 21.1992C11.168 20.7773 10.8398 20.4492 10.418 20.4492H7.00781C6.59766 20.4492 6.26953 20.7773 6.26953 21.1992C6.26953 21.6094 6.59766 21.9375 7.00781 21.9375ZM13.3828 16.0781H16.793C17.2031 16.0781 17.5312 15.7617 17.5312 15.3398C17.5312 14.9297 17.2031 14.6016 16.793 14.6016H13.3828C12.9609 14.6016 12.6328 14.9297 12.6328 15.3398C12.6328 15.7617 12.9609 16.0781 13.3828 16.0781ZM13.3828 19.0078H16.793C17.2031 19.0078 17.5312 18.6914 17.5312 18.2695C17.5312 17.8477 17.2031 17.5312 16.793 17.5312H13.3828C12.9609 17.5312 12.6328 17.8477 12.6328 18.2695C12.6328 18.6914 12.9609 19.0078 13.3828 19.0078ZM13.3828 21.9375H16.793C17.2031 21.9375 17.5312 21.6094 17.5312 21.1992C17.5312 20.7773 17.2031 20.4492 16.793 20.4492H13.3828C12.9609 20.4492 12.6328 20.7773 12.6328 21.1992C12.6328 21.6094 12.9609 21.9375 13.3828 21.9375ZM6.39844 27.5508C6.96094 27.5508 7.33594 27.1641 7.33594 26.6016V24.3047H5.44922V26.6016C5.44922 27.1641 5.83594 27.5508 6.39844 27.5508ZM17.4023 27.5508C17.9766 27.5508 18.3516 27.1641 18.3516 26.6016V24.3047H16.4648V26.6016C16.4648 27.1641 16.8398 27.5508 17.4023 27.5508Z" fill="black" fill-opacity="0.85"/>
<path d="M15.4796 6.14062C18.6085 6.14062 20.2374 3.59766 22.9679 3.59766C23.6007 3.59766 24.128 3.72656 24.8077 4.11328C25.2296 4.33594 25.6046 4.17188 25.7921 3.90234C26.0147 3.5625 26.003 3.04688 25.4874 2.75391C24.7022 2.29688 23.8585 2.07422 22.9679 2.07422C19.7921 2.07422 18.1632 4.62891 15.4796 4.62891C14.8468 4.62891 14.3194 4.48828 13.6397 4.11328C13.2413 3.87891 12.8429 4.03125 12.6554 4.33594C12.4444 4.66406 12.4679 5.19141 12.9601 5.46094C13.7335 5.94141 14.5889 6.14062 15.4796 6.14062ZM15.4913 9.38672C18.6085 9.38672 20.2491 6.83203 22.9679 6.83203C23.6124 6.83203 24.1397 6.96094 24.8194 7.34766C25.2296 7.58203 25.6163 7.41797 25.8038 7.13672C26.0147 6.80859 26.0147 6.28125 25.5108 5.98828C24.7139 5.53125 23.8585 5.30859 22.9679 5.30859C19.8038 5.30859 18.1749 7.875 15.4913 7.875C14.8468 7.875 14.3194 7.72266 13.6514 7.34766C13.253 7.11328 12.8429 7.27734 12.6554 7.58203C12.4444 7.91016 12.4679 8.42578 12.9718 8.70703C13.7452 9.17578 14.6007 9.38672 15.4913 9.38672ZM15.4796 12.6211C18.6085 12.6211 20.2374 10.0781 22.9679 10.0781C23.6007 10.0781 24.128 10.207 24.8077 10.582C25.2296 10.8164 25.6046 10.6523 25.7921 10.3828C26.0147 10.043 26.003 9.51562 25.4874 9.23438C24.7022 8.77734 23.8585 8.54297 22.9679 8.54297C19.7921 8.54297 18.1632 11.1094 15.4796 11.1094C14.8468 11.1094 14.3194 10.9688 13.6397 10.582C13.2413 10.3594 12.8429 10.5117 12.6554 10.8164C12.4444 11.1445 12.4679 11.6602 12.9601 11.9414C13.7335 12.4102 14.5889 12.6211 15.4796 12.6211Z" fill="black" fill-opacity="0.85"/>
</g>
<defs>
<clipPath id="clip0_2124_50160">
<rect width="22.9379" height="27.5742" fill="white" transform="translate(3)"/>
</clipPath>
</defs>
</svg>
