<svg width="28" height="28" viewBox="0 0 28 28" fill="none" xmlns="http://www.w3.org/2000/svg">
<g clip-path="url(#clip0_2124_67733)">
<path d="M13.9531 25.9062C20.4922 25.9062 25.9062 20.4805 25.9062 13.9531C25.9062 7.41406 20.4805 2 13.9414 2C7.41406 2 2 7.41406 2 13.9531C2 20.4805 7.42578 25.9062 13.9531 25.9062ZM13.9531 23.9141C8.42188 23.9141 4.00391 19.4844 4.00391 13.9531C4.00391 8.42188 8.41016 3.99219 13.9414 3.99219C19.4727 3.99219 23.9141 8.42188 23.9141 13.9531C23.9141 19.4844 19.4844 23.9141 13.9531 23.9141Z" fill="black" fill-opacity="0.85"/>
<path d="M11.1406 8.78516C9.14844 8.78516 7.71875 10.2852 7.71875 12.3594C7.71875 15.4414 10.9648 18.2773 13.3672 19.8008C13.5781 19.918 13.8242 20.082 13.9766 20.082C14.1289 20.082 14.3633 19.9297 14.5391 19.8008C16.918 18.2422 20.1875 15.4414 20.1875 12.3594C20.1875 10.2852 18.7578 8.78516 16.7656 8.78516C15.5234 8.78516 14.5391 9.5 13.9531 10.5664C13.3672 9.5 12.3945 8.78516 11.1406 8.78516Z" fill="black" fill-opacity="0.85"/>
</g>
<defs>
<clipPath id="clip0_2124_67733">
<rect width="23.9062" height="23.918" fill="white" transform="translate(2 2)"/>
</clipPath>
</defs>
</svg>
