<svg width="28" height="29" viewBox="0 0 28 29" fill="none" xmlns="http://www.w3.org/2000/svg">
<g clip-path="url(#clip0_2124_24868)">
<path d="M14.4141 25.8453C17.6836 25.8453 21.9023 25.6812 23.6836 25.4703C25.0547 25.3179 25.8398 24.5562 25.8398 23.2437V21.4859C25.8398 19.8687 25.5 18.9078 24.6094 17.7711L23.8359 16.7867C23.4844 15.0875 22.8633 13.3179 22.5352 12.6265C22.0078 11.5015 20.9648 10.8336 19.6641 10.6695C19.0312 10.5758 16.957 10.5289 14.4141 10.5289C11.8711 10.5289 9.80859 10.5875 9.17578 10.6695C7.875 10.8219 6.83203 11.5015 6.30469 12.6265C5.96484 13.3179 5.35547 15.0875 4.99219 16.7867L4.23047 17.7711C3.32812 18.9078 3 19.8687 3 21.4859V23.2437C3 24.5562 3.78516 25.3179 5.15625 25.4703C6.9375 25.6812 11.1562 25.8453 14.4141 25.8453ZM14.4141 24.2515C11.1211 24.2515 7.01953 24.1109 5.51953 23.9234C4.80469 23.8297 4.59375 23.5367 4.59375 22.8687V21.4859C4.59375 20.232 4.76953 19.6695 5.48438 18.7437L6.46875 17.4547C6.71484 16.107 7.34766 14.1969 7.73438 13.3414C8.02734 12.7203 8.54297 12.3687 9.35156 12.275C9.96094 12.2047 11.8477 12.1109 14.4141 12.1109C16.9922 12.1109 18.9258 12.2047 19.4531 12.275C20.2969 12.3804 20.8125 12.732 21.1055 13.3414C21.5039 14.1969 22.1133 16.107 22.3594 17.4547L23.3555 18.7437C24.0703 19.6695 24.2461 20.232 24.2461 21.4859V22.8687C24.2461 23.5367 24.0352 23.8414 23.3203 23.9234C21.8203 24.0992 17.7188 24.2515 14.4141 24.2515ZM7.59375 16.6226C7.52344 16.9508 7.65234 17.0914 8.01562 17.0562C9.51562 16.9508 11.3086 16.8687 14.4141 16.8687C17.5195 16.8687 19.3242 16.9508 20.8242 17.0562C21.1758 17.0914 21.3164 16.9508 21.2461 16.6226C21.0117 15.6148 20.5898 14.3375 20.2852 13.7984C20.0391 13.3765 19.7695 13.2008 19.2773 13.1304C18.5859 13.0367 17.0508 12.9664 14.4141 12.9664C11.7891 12.9664 10.2422 13.0367 9.55078 13.1304C9.07031 13.2008 8.78906 13.3765 8.55469 13.7984C8.26172 14.3375 7.82812 15.6148 7.59375 16.6226ZM7.52344 23.0328C8.39062 23.0328 9.03516 22.3648 9.03516 21.5094C9.03516 20.6422 8.39062 19.9976 7.52344 19.9976C6.66797 19.9976 6.01172 20.6422 6.01172 21.5094C6.01172 22.3648 6.66797 23.0328 7.52344 23.0328ZM11.8242 22.6578H17.0039C17.6602 22.6578 18.1055 22.2125 18.1055 21.5562C18.1055 20.9234 17.6602 20.4781 17.0039 20.4781H11.8242C11.1797 20.4781 10.7344 20.9234 10.7344 21.5562C10.7344 22.2125 11.1797 22.6578 11.8242 22.6578ZM21.3047 23.0328C22.1719 23.0328 22.8281 22.3648 22.8281 21.5094C22.8281 20.6422 22.1719 19.9976 21.3047 19.9976C20.4492 19.9976 19.8047 20.6422 19.8047 21.5094C19.8047 22.3648 20.4492 23.0328 21.3047 23.0328ZM4.91016 28.3648H6.04688C6.75 28.3648 7.30078 27.814 7.30078 27.1226V24.8609L3.67969 24.3336V27.1226C3.67969 27.814 4.21875 28.3648 4.91016 28.3648ZM22.7695 28.3648H23.9062C24.6094 28.3648 25.1367 27.814 25.1367 27.1226V24.3336L21.5156 24.8609V27.1226C21.5156 27.814 22.0664 28.3648 22.7695 28.3648Z" fill="black" fill-opacity="0.85"/>
<path d="M14.3671 6.11092C11.8475 6.11092 9.55064 5.23202 7.80455 3.6617C7.32408 3.23983 6.78502 3.12264 6.35142 3.49764C5.91783 3.87264 5.91783 4.5289 6.41002 4.97421C8.51939 6.93125 11.3319 8.02108 14.3671 8.02108C17.4022 8.02108 20.2147 6.93125 22.3241 4.97421C22.828 4.5289 22.828 3.87264 22.3827 3.49764C21.9608 3.12264 21.4101 3.23983 20.9296 3.6617C19.1835 5.23202 16.8983 6.11092 14.3671 6.11092Z" fill="black" fill-opacity="0.85"/>
<path d="M14.3906 1.41169C13.1719 1.41169 12.0703 1.03669 11.168 0.368725C10.6523 0.00544372 10.1367 -0.158618 9.71482 0.216382C9.26951 0.6031 9.25779 1.30623 9.79686 1.71638C11.0625 2.73591 12.668 3.32185 14.3906 3.32185C16.1133 3.32185 17.7188 2.73591 18.9844 1.71638C19.5117 1.30623 19.5 0.6031 19.0664 0.216382C18.6445 -0.158618 18.1172 -0.00627503 17.6133 0.368725C16.7344 1.07185 15.6094 1.41169 14.3906 1.41169Z" fill="black" fill-opacity="0.85"/>
</g>
<defs>
<clipPath id="clip0_2124_24868">
<rect width="22.8398" height="28.5929" fill="white" transform="translate(3)"/>
</clipPath>
</defs>
</svg>
