<svg width="28" height="34" viewBox="0 0 28 34" fill="none" xmlns="http://www.w3.org/2000/svg">
<path d="M1.19649 19.8398C2.22774 23.6602 3.29414 24.832 5.70821 24.832H19.6184C21.3527 24.832 22.5129 23.8828 22.9465 22.125L27.3527 4.24219C27.9973 1.65234 26.7785 0 24.4934 0C21.7395 0 19.5129 2.61328 20.5793 6.25781L20.802 5.12109C18.0715 7.06641 16.6301 11.2148 17.0051 16.1953L17.5441 15.5156C14.9895 15.0586 12.0129 14.8125 9.05977 14.8125C2.79024 14.8125 0.235549 16.3359 1.19649 19.8398ZM3.00117 19.3477C2.48555 17.4609 3.91524 16.6992 9.05977 16.6992C13.2316 16.6992 16.2316 17.2617 17.5676 17.3555C18.2824 17.3672 18.7277 16.9219 18.716 16.207C18.634 11.7891 19.7941 8.23828 21.8449 6.70312C22.2902 6.33984 22.384 6.10547 22.2551 5.30859C21.9387 3.10547 23.1574 1.88672 24.4934 1.88672C25.3605 1.88672 25.8293 2.60156 25.548 3.75L21.1066 21.668C20.9074 22.4883 20.4035 22.9453 19.6184 22.9453H5.70821C4.39571 22.9453 3.85664 22.5117 3.00117 19.3477Z" fill="black" fill-opacity="0.85"/>
<path d="M15.5635 32.9766C15.5635 33.6094 16.0791 33.8789 16.6299 33.5391L20.79 31.0078C21.3174 30.6797 21.3057 30.0586 20.79 29.7422L16.6182 27.1875C16.0674 26.8477 15.5635 27.1406 15.5635 27.7617V32.9766Z" fill="black" fill-opacity="0.85"/>
<path d="M9.48194 32.9766V27.7617C9.48194 27.1406 8.97804 26.8477 8.42726 27.1875L4.2671 29.7422C3.73976 30.0586 3.72804 30.6797 4.2671 31.0078L8.42726 33.5391C8.97804 33.8789 9.48194 33.6094 9.48194 32.9766Z" fill="black" fill-opacity="0.85"/>
</svg>
