<svg width="28" height="31" viewBox="0 0 28 31" fill="none" xmlns="http://www.w3.org/2000/svg">
<path d="M3.98438 24.668C4.59375 24.668 4.96875 24.293 4.96875 23.6719V13.5352C4.96875 12.9141 4.59375 12.5391 3.98438 12.5391C3.38672 12.5391 3 12.9141 3 13.5234V23.6836C3 24.293 3.38672 24.668 3.98438 24.668ZM3.98438 16.4766H8.12109V14.9414H3.98438V16.4766ZM15.7969 30.2578C21.7148 30.2578 24.2344 28.957 24.2344 25.7695V5.42578C24.2344 2.00391 21.1289 0 15.7969 0C10.4648 0 7.35938 2.00391 7.35938 5.42578V25.7695C7.35938 28.957 9.87891 30.2578 15.7969 30.2578ZM15.7969 28.3125C11.2734 28.3125 9.31641 27.5508 9.31641 25.6758V5.42578C9.31641 3.23438 11.707 1.95703 15.7969 1.95703C19.8984 1.95703 22.2773 3.23438 22.2773 5.42578V25.6758C22.2773 27.5508 20.332 28.3125 15.7969 28.3125ZM15.7969 12.5859C16.8516 12.5859 18.6211 12.668 19.2188 12.668C20.0977 12.668 20.4844 12.3281 20.5547 11.4141L20.7539 9.21094C20.9062 7.52344 19.7109 6.84375 15.7969 6.84375C11.8828 6.84375 10.6992 7.52344 10.8398 9.21094L11.0391 11.4141C11.1211 12.3281 11.4961 12.668 12.3867 12.668C12.9727 12.668 14.6836 12.5859 15.7969 12.5859ZM15.7969 25.0898C19.7461 25.0898 20.9414 24.5039 20.707 22.7812L20.5547 21.7148C20.3672 20.3086 19.1953 19.8398 15.7969 19.8398C12.4102 19.8398 11.2383 20.3086 11.0508 21.7148L10.8984 22.7812C10.6523 24.5039 11.8594 25.0898 15.7969 25.0898Z" fill="black" fill-opacity="0.85"/>
</svg>
