<svg width="28" height="28" viewBox="0 0 28 28" fill="none" xmlns="http://www.w3.org/2000/svg">
<path d="M18.4258 21.2031C18.4258 19.9375 18.2734 19.5273 17.4648 18.7188L15.1914 16.4336C14.3711 15.625 13.2461 15.625 12.4258 16.4336L10.1523 18.7188C9.34375 19.5273 9.20312 19.9375 9.20312 21.2031V24.1562C9.20312 25.6562 10.0703 26.6055 11.4062 26.6055H16.2227C17.5586 26.6055 18.4258 25.6562 18.4258 24.1562V21.2031ZM16.75 21.2031V24.1094C16.75 24.6367 16.4336 24.9414 15.8945 24.9414H11.7227C11.1836 24.9414 10.8789 24.6367 10.8789 24.1094V21.2031C10.8789 20.5938 10.9492 20.2891 11.3477 19.9023L13.5508 17.6992C13.7266 17.5117 13.9023 17.5234 14.0781 17.6992L16.2812 19.9023C16.668 20.2891 16.75 20.5938 16.75 21.2031Z" fill="black" fill-opacity="0.85"/>
<path d="M21.2148 9.20312C19.9375 9.20312 19.5273 9.34375 18.7188 10.1523L16.4453 12.4258C15.625 13.2461 15.625 14.3711 16.4453 15.1914L18.7188 17.4648C19.5273 18.2734 19.9375 18.4258 21.2148 18.4258H24.1562C25.6562 18.4258 26.6172 17.5586 26.6172 16.2227V11.3945C26.6172 10.0703 25.6562 9.20312 24.1562 9.20312H21.2148ZM21.2148 10.8789H24.1094C24.6484 10.8789 24.9531 11.1836 24.9531 11.7227V15.8945C24.9531 16.4336 24.6484 16.75 24.1094 16.75H21.2148C20.6055 16.75 20.3008 16.668 19.9023 16.2695L17.6992 14.0781C17.5234 13.8906 17.5352 13.7148 17.7109 13.5391L19.9023 11.3477C20.3008 10.9492 20.6055 10.8789 21.2148 10.8789Z" fill="black" fill-opacity="0.85"/>
<path d="M6.40234 18.4141C7.67969 18.4141 8.08984 18.2734 8.89844 17.4648L11.1719 15.1914C11.9922 14.3711 11.9922 13.2461 11.1719 12.4258L8.89844 10.1523C8.08984 9.34375 7.67969 9.19141 6.40234 9.19141H3.46094C1.96094 9.19141 1 10.0586 1 11.3945V16.2227C1 17.5469 1.96094 18.4141 3.46094 18.4141H6.40234Z" fill="black" fill-opacity="0.85"/>
<path d="M9.20312 6.41406C9.20312 7.67969 9.35547 8.08984 10.1641 8.89844L12.4375 11.1719C13.2578 11.9922 14.3828 11.9922 15.2031 11.1719L17.4766 8.89844C18.2852 8.08984 18.4258 7.67969 18.4258 6.41406V3.46094C18.4258 1.96094 17.5586 1 16.2227 1H11.4062C10.0703 1 9.20312 1.96094 9.20312 3.46094V6.41406ZM10.8789 6.41406V3.50781C10.8789 2.98047 11.1953 2.66406 11.7344 2.66406H15.9062C16.4453 2.66406 16.75 2.98047 16.75 3.50781V6.41406C16.75 7.01172 16.6797 7.31641 16.2812 7.71484L14.0781 9.91797C13.9023 10.0938 13.7266 10.0938 13.5508 9.91797L11.3594 7.71484C10.9609 7.31641 10.8789 7.01172 10.8789 6.41406Z" fill="black" fill-opacity="0.85"/>
</svg>
