<svg width="28" height="29" viewBox="0 0 28 29" fill="none" xmlns="http://www.w3.org/2000/svg">
<path d="M14.3437 1.92188C16.8632 1.92188 19.1601 2.80078 20.9061 4.37109C21.3866 4.80469 21.9374 4.91016 22.3593 4.54688C22.7929 4.16016 22.7929 3.51562 22.3007 3.05859C20.1913 1.11328 17.3788 0.0117188 14.3437 0.0117188C11.3085 0.0117188 8.49595 1.11328 6.38658 3.05859C5.89439 3.51562 5.89439 4.16016 6.32798 4.54688C6.74986 4.91016 7.30064 4.80469 7.78111 4.37109C9.5272 2.80078 11.8241 1.92188 14.3437 1.92188Z" fill="black" fill-opacity="0.85"/>
<path d="M14.3443 6.62109C15.563 6.62109 16.6997 6.97266 17.5669 7.67578C18.0708 8.03906 18.5982 8.20312 19.02 7.82812C19.4653 7.44141 19.4771 6.73828 18.938 6.31641C17.6724 5.29688 16.0669 4.71094 14.3443 4.71094C12.6216 4.71094 11.0161 5.29688 9.75047 6.31641C9.21141 6.73828 9.22313 7.44141 9.66844 7.82812C10.0903 8.20312 10.6059 8.03906 11.1216 7.67578C12.0239 6.99609 13.1255 6.62109 14.3443 6.62109Z" fill="black" fill-opacity="0.85"/>
<path d="M3 26.7305C3 27.4805 3.59766 28.0898 4.37109 28.0898H5.49609C6.25781 28.0898 6.85547 27.4805 6.85547 26.7305V25.4648H21.832V26.7305C21.832 27.4805 22.4297 28.0898 23.1914 28.0898H24.3281C25.0898 28.0898 25.6875 27.4805 25.6875 26.7305V20.4492C25.6875 18.832 25.4766 17.8359 24.457 16.7344L23.5312 15.7148L22.5234 12.8906C21.9609 11.2852 20.8711 10.5938 19.5234 10.4414C18.8906 10.3594 16.793 10.3125 14.3438 10.3125C11.8945 10.3125 9.79688 10.3594 9.16406 10.4414C7.81641 10.5938 6.72656 11.2852 6.16406 12.8906L5.15625 15.7148L4.23047 16.7344C3.21094 17.8359 3 18.832 3 20.4492V26.7305ZM7.875 15.7148C7.48828 15.7148 7.38281 15.4805 7.51172 15.1055L8.10938 13.3477C8.33203 12.7266 8.58984 12.5625 9.14062 12.4805C9.80859 12.3867 11.6367 12.3047 14.3438 12.3047C17.0508 12.3047 18.8789 12.3867 19.5352 12.4805C20.0859 12.5625 20.3555 12.7266 20.5781 13.3477L21.1758 15.1055C21.3047 15.4805 21.1875 15.7148 20.8008 15.7148H7.875ZM6.55078 21.6445C6.01172 21.6445 5.64844 21.2812 5.64844 20.7539V19.2656C5.64844 18.7383 6.01172 18.3867 6.55078 18.3867C7.08984 18.3867 7.44141 18.7266 7.44141 19.2656V20.7539C7.44141 21.293 7.08984 21.6445 6.55078 21.6445ZM12.1758 21.1875C11.7656 21.1875 11.5312 20.9531 11.5312 20.4844V19.5234C11.5312 19.0781 11.7656 18.8438 12.1758 18.8438H16.4766C16.8984 18.8438 17.1328 19.0781 17.1328 19.5234V20.4844C17.1328 20.9531 16.8984 21.1875 16.4766 21.1875H12.1758ZM22.2305 21.6445C21.7031 21.6445 21.3398 21.2812 21.3398 20.7539V19.2656C21.3398 18.7383 21.7031 18.3867 22.2305 18.3867C22.7695 18.3867 23.1328 18.7266 23.1328 19.2656V20.7539C23.1328 21.293 22.7695 21.6445 22.2305 21.6445Z" fill="black" fill-opacity="0.85"/>
</svg>
