<svg width="28" height="28" viewBox="0 0 28 28" fill="none" xmlns="http://www.w3.org/2000/svg">
<g clip-path="url(#clip0_2124_89264)">
<path d="M6.19922 26.5742H22.207C24.1992 26.5742 25.4062 25.1914 25.4062 23.3984C25.4062 22.8008 25.1133 22.0039 24.5625 21.207L18.2227 12.1133L16.7227 13.1562L23.2852 22.5664C23.4961 22.8828 23.5078 23.1641 23.5078 23.3867C23.5078 24.1016 23.0039 24.7344 22.1953 24.7344H6.21094C5.39062 24.7344 4.89844 24.1016 4.89844 23.3867C4.89844 23.1641 4.91016 22.8828 5.12109 22.5664L11.6719 13.1562L10.1836 12.1133L3.73828 21.3477C3.24609 22.0508 3 22.8008 3 23.3984C3 25.1914 4.20703 26.5742 6.19922 26.5742ZM9.79688 13.1562H11.6719V2.98438H9.79688V13.1562ZM18.6094 13.1562V2.98438H16.7227V13.1562H18.6094ZM9.71484 3.96875H18.6797C19.2656 3.96875 19.6758 3.51172 19.6758 2.97266C19.6758 2.43359 19.2656 2 18.6797 2H9.71484C9.12891 2 8.73047 2.43359 8.73047 2.97266C8.73047 3.51172 9.12891 3.96875 9.71484 3.96875ZM10.6875 7.00391H13.8047C14.1914 7.00391 14.4844 6.71094 14.4844 6.3125C14.4844 5.94922 14.168 5.63281 13.793 5.63281H10.6875V7.00391ZM10.6992 10.3555H13.8164C14.2031 10.3555 14.4961 10.0508 14.4961 9.65234C14.4961 9.28906 14.1797 8.98438 13.8047 8.98438H10.6992V10.3555ZM10.6992 13.6953H13.8164C14.2031 13.6953 14.4961 13.4023 14.4961 13.0039C14.4961 12.6406 14.1914 12.3242 13.8164 12.3242H10.6992V13.6953Z" fill="black" fill-opacity="0.85"/>
</g>
<defs>
<clipPath id="clip0_2124_89264">
<rect width="22.4062" height="24.5977" fill="white" transform="translate(3 2)"/>
</clipPath>
</defs>
</svg>
