<svg width="33" height="28" viewBox="0 0 33 28" fill="none" xmlns="http://www.w3.org/2000/svg">
<path d="M0.24901 23.0883C1.29198 26.5102 6.47167 27.0609 12.0732 24.4828L11.4639 23.1938C6.7412 25.3852 2.34667 25.1039 1.6201 22.6781C-0.231459 16.6195 12.7998 15.9399 11.2998 10.8422C10.5498 8.33439 4.76073 8.74455 0.62401 11.5336C-0.208021 12.0727 0.588854 13.268 1.40917 12.7055C4.40917 10.7133 9.53026 9.92814 9.9287 11.2406C10.2217 12.225 9.40135 12.9516 6.16698 14.7563C3.01463 16.5024 -1.05177 18.8109 0.24901 23.0883Z" fill="black" fill-opacity="0.85"/>
<path d="M16.8663 22.3149L29.335 9.85779L27.2843 7.79529L14.8155 20.2524L13.7022 22.8539C13.585 23.1352 13.878 23.4633 14.171 23.3461L16.8663 22.3149ZM30.3663 8.84998L31.5499 7.68982C32.1475 7.09217 32.1827 6.44763 31.6436 5.90857L31.2452 5.51013C30.7061 4.98279 30.0616 5.02967 29.4757 5.6156L28.2804 6.78748L30.3663 8.84998Z" fill="black" fill-opacity="0.85"/>
</svg>
