<svg width="28" height="28" viewBox="0 0 28 28" fill="none" xmlns="http://www.w3.org/2000/svg">
<g clip-path="url(#clip0_2124_24765)">
<path d="M13.5273 14.6094C14.1484 14.5977 14.6641 14.082 14.6641 13.4961C14.6641 12.8633 14.1484 12.3594 13.5273 12.3594C12.9062 12.3594 12.3906 12.8633 12.3906 13.4961C12.3906 14.1055 12.9062 14.6211 13.5273 14.6094ZM9.90625 25.2734H17.1484C21.1328 25.2734 23.0547 23.3516 23.0547 19.3672V7.90625C23.0547 3.92188 21.1328 2 17.1484 2H9.90625C5.92188 2 4 3.92188 4 7.90625V19.3672C4 23.3516 5.92188 25.2734 9.90625 25.2734ZM9.90625 23.3867C7.10547 23.3867 5.88672 22.168 5.88672 19.3672V7.90625C5.88672 5.10547 7.10547 3.88672 9.90625 3.88672H17.1484C19.9492 3.88672 21.168 5.10547 21.168 7.90625V19.3672C21.168 22.168 19.9492 23.3867 17.1484 23.3867H9.90625ZM4.94922 9.80469H22.1055V8.62109H4.94922V9.80469ZM10.2812 10.6016H16.7734C17.582 10.6016 18.1797 10.0273 18.1797 9.20703C18.1797 8.38672 17.582 7.8125 16.7734 7.8125H10.2812C9.50781 7.8125 8.875 8.38672 8.875 9.20703C8.875 10.0273 9.50781 10.6016 10.2812 10.6016Z" fill="black" fill-opacity="0.85"/>
</g>
<defs>
<clipPath id="clip0_2124_24765">
<rect width="19.0547" height="23.2852" fill="white" transform="translate(4 2)"/>
</clipPath>
</defs>
</svg>
