<svg width="28" height="28" viewBox="0 0 28 28" fill="none" xmlns="http://www.w3.org/2000/svg">
<path d="M13.9531 25.9062C20.4922 25.9062 25.9062 20.4805 25.9062 13.9531C25.9062 7.41406 20.4805 2 13.9414 2C7.41406 2 2 7.41406 2 13.9531C2 20.4805 7.42578 25.9062 13.9531 25.9062ZM13.9531 23.9141C8.42188 23.9141 4.00391 19.4844 4.00391 13.9531C4.00391 8.42188 8.41016 3.99219 13.9414 3.99219C19.4727 3.99219 23.9141 8.42188 23.9141 13.9531C23.9141 19.4844 19.4844 23.9141 13.9531 23.9141Z" fill="black" fill-opacity="0.85"/>
<path d="M8.5744 19.0039C8.26971 19.7656 9.10174 20.4219 9.8283 19.6953L13.6369 15.875C13.8244 15.6992 14.0471 15.6992 14.2346 15.875L18.0432 19.6953C18.7697 20.4219 19.6018 19.7656 19.2971 19.0039L14.7619 7.46095C14.4572 6.66407 13.4143 6.67579 13.0979 7.48439L8.5744 19.0039Z" fill="black" fill-opacity="0.85"/>
</svg>
