<svg width="28" height="28" viewBox="0 0 28 28" fill="none" xmlns="http://www.w3.org/2000/svg">
<path d="M15.2281 25.9062C21.7555 25.9062 27.1813 20.4805 27.1813 13.9531C27.1813 7.41406 21.7555 2 15.2281 2C8.68908 2 3.27502 7.40234 3.27502 13.9414H5.26721C5.26721 8.41016 9.69689 4.00391 15.2281 4.00391C20.7594 4.00391 25.1891 8.42188 25.1891 13.9531C25.1891 19.4844 20.7594 23.9375 15.2281 23.9141C11.8883 23.9023 8.95861 22.2852 7.16564 19.7891C6.80236 19.3086 6.25158 19.1562 5.75939 19.4492C5.29064 19.7422 5.16174 20.3867 5.56017 20.9023C7.78674 23.8906 11.2789 25.9062 15.2281 25.9062ZM1.83361 11.6914C0.989862 11.6914 0.778925 12.2656 1.23596 12.9219L3.86096 16.6484C4.24767 17.1875 4.81017 17.1758 5.18517 16.6484L7.81017 12.9102C8.25549 12.2656 8.04455 11.6914 7.21252 11.6914H1.83361Z" fill="black" fill-opacity="0.85"/>
<path d="M14.9706 6.95703C14.3613 6.95703 13.8691 7.44922 13.8691 8.05859V14.7031C13.8691 14.9844 13.9511 15.2539 14.1855 15.5469L17.0214 19.2969C17.4902 19.9062 18.123 20.0117 18.6972 19.625C19.2245 19.2617 19.2597 18.5938 18.8495 18.0195L14.7831 12.5L16.0839 16.5078V8.05859C16.0839 7.44922 15.58 6.95703 14.9706 6.95703Z" fill="black" fill-opacity="0.85"/>
</svg>
