<svg width="33" height="28" viewBox="0 0 33 28" fill="none" xmlns="http://www.w3.org/2000/svg">
<path d="M12.1055 4.59766C13.1016 4.59766 13.8984 3.8125 13.8984 2.80469C13.8984 1.80859 13.1016 1 12.1055 1C11.1094 1 10.3008 1.80859 10.3008 2.80469C10.3008 3.8125 11.1094 4.59766 12.1055 4.59766ZM1.18359 20.5703H7.59375C7.94531 20.5703 8.09766 20.5352 8.35547 20.4766L14.8477 18.9062C14.9531 18.8828 15.0469 18.9766 15.0352 19.082L14.6016 22.6211L12.0586 20.8047C11.5195 20.418 10.7695 20.5469 10.3945 21.0859C9.99609 21.625 10.1133 22.375 10.6523 22.7617L14.5781 25.5273C15.4453 26.1367 16.5 25.9375 16.7227 25.0469L19.957 12.0742C20.0039 11.9219 20.1562 11.8281 20.3086 11.8633L30.8789 13.9609C31.7812 14.1484 32.2969 13.4688 32.2969 12.8008C32.2969 12.2852 32.0039 11.7578 31.3477 11.6289L20.9297 9.53125C17.8359 8.92188 15.9141 8.62891 13.7109 8.62891H10.7695V5.62891C10.7695 4.94922 10.2305 4.43359 9.57422 4.43359C8.89453 4.43359 8.36719 4.94922 8.36719 5.62891V9.8125C8.36719 10.4688 8.89453 11.0078 9.57422 11.0078H14.5195C14.7422 11.0078 14.8945 11.207 14.8359 11.418L13.875 15.1211C13.7227 15.7188 13.3125 16.1758 12.7266 16.3867L7.57031 18.1797H1.18359C0.515625 18.1797 0 18.7188 0 19.3867C0 20.0547 0.515625 20.5703 1.18359 20.5703ZM18.7852 7.92578C20.1914 7.92578 21.3398 6.77734 21.3398 5.34766C21.3398 3.94141 20.1914 2.80469 18.7852 2.80469C17.3555 2.80469 16.2188 3.94141 16.2188 5.34766C16.2188 6.77734 17.3555 7.92578 18.7852 7.92578Z" fill="black" fill-opacity="0.85"/>
</svg>
