<svg width="28" height="28" viewBox="0 0 28 28" fill="none" xmlns="http://www.w3.org/2000/svg">
<g clip-path="url(#clip0_2124_50240)">
<path d="M4.75391 24.2266H23.6094C25.2617 24.2266 26.3633 23.1133 26.3633 21.4727V6.75391C26.3633 5.11328 25.2617 4 23.6094 4H4.75391C3.10156 4 2 5.11328 2 6.75391V21.4727C2 23.1133 3.10156 24.2266 4.75391 24.2266ZM4.77734 22.3398C4.23828 22.3398 3.88672 21.9531 3.88672 21.3789V6.84766C3.88672 6.27344 4.23828 5.88672 4.77734 5.88672H23.5977C24.125 5.88672 24.4766 6.27344 24.4766 6.84766V21.3789C24.4766 21.9531 24.125 22.3398 23.5977 22.3398H4.77734ZM7.15625 8.72266C7.71875 8.72266 8.17578 8.26562 8.17578 7.69141C8.17578 7.12891 7.71875 6.67188 7.15625 6.67188C6.58203 6.67188 6.125 7.12891 6.125 7.69141C6.125 8.26562 6.58203 8.72266 7.15625 8.72266ZM10.168 8.72266C10.7422 8.72266 11.1992 8.26562 11.1992 7.69141C11.1992 7.12891 10.7422 6.67188 10.168 6.67188C9.60547 6.67188 9.14844 7.12891 9.14844 7.69141C9.14844 8.26562 9.60547 8.72266 10.168 8.72266ZM13.1914 8.72266C13.7539 8.72266 14.2109 8.26562 14.2109 7.69141C14.2109 7.12891 13.7539 6.67188 13.1914 6.67188C12.6172 6.67188 12.1602 7.12891 12.1602 7.69141C12.1602 8.26562 12.6172 8.72266 13.1914 8.72266ZM18.6875 8.28906H21.8516C22.2031 8.28906 22.4375 8.04297 22.4375 7.69141C22.4375 7.33984 22.2031 7.10547 21.8516 7.10547H18.6875C18.3359 7.10547 18.0898 7.33984 18.0898 7.69141C18.0898 8.04297 18.3359 8.28906 18.6875 8.28906ZM3.13672 11.0078H25.25V9.47266H3.13672V11.0078ZM6.93359 20.8867H21.4414C22.1094 20.8867 22.5312 20.4648 22.5312 19.7969V13.4336C22.5312 12.7656 22.1094 12.332 21.4414 12.332H6.93359C6.26562 12.332 5.83203 12.7656 5.83203 13.4336V19.7969C5.83203 20.4648 6.26562 20.8867 6.93359 20.8867ZM7.44922 19.5859C7.27344 19.5859 7.14453 19.457 7.14453 19.2812V13.9492C7.14453 13.7617 7.27344 13.6328 7.44922 13.6328H20.9258C21.1016 13.6328 21.2305 13.7617 21.2305 13.9492V19.2812C21.2305 19.457 21.1016 19.5859 20.9258 19.5859H7.44922ZM6.91016 16.2461H21.4648V14.9453H6.91016V16.2461Z" fill="black" fill-opacity="0.85"/>
</g>
<defs>
<clipPath id="clip0_2124_50240">
<rect width="24.3633" height="20.2383" fill="white" transform="translate(2 4)"/>
</clipPath>
</defs>
</svg>
