<svg width="28" height="28" viewBox="0 0 28 28" fill="none" xmlns="http://www.w3.org/2000/svg">
<path d="M13.9531 25.918C20.4922 25.918 25.9062 20.5039 25.9062 13.9648C25.9062 7.4375 20.4805 2.01172 13.9414 2.01172C7.41406 2.01172 2 7.4375 2 13.9648C2 20.5039 7.42578 25.918 13.9531 25.918Z" fill="black" fill-opacity="0.85"/>
<path d="M9.83984 15.0312C9.20703 14.1523 8.83203 13.0742 8.83203 11.8672C8.83203 9.60546 10.0977 7.64843 11.9727 6.87499C12.2656 6.7578 12.5234 6.79296 12.6523 6.9453C12.7578 7.10937 12.7812 7.33202 12.6523 7.57811C12.4531 7.96483 12.3359 8.70311 12.3359 9.40624C12.3359 12.0078 14.0469 13.6719 16.7188 13.6719C17.375 13.6719 17.9375 13.5781 18.3945 13.3906C18.6406 13.2969 18.8281 13.332 18.957 13.4375C19.0977 13.5898 19.1211 13.8242 19.0156 14.082C18.8633 14.4336 18.6875 14.7617 18.4531 15.0312H9.83984ZM8.02344 16.7656C7.77734 16.7656 7.60156 16.5898 7.60156 16.3438C7.60156 16.0977 7.77734 15.9219 8.02344 15.9219H20.9961C21.2422 15.9219 21.418 16.0977 21.418 16.3438C21.418 16.5898 21.2422 16.7656 20.9961 16.7656H8.02344ZM6.89844 18.4297C6.65234 18.4297 6.46484 18.2422 6.46484 17.9961C6.46484 17.7617 6.65234 17.5742 6.89844 17.5742H19.8594C20.1055 17.5742 20.2812 17.7617 20.2812 17.9961C20.2812 18.2422 20.1055 18.4297 19.8594 18.4297H6.89844ZM8.02344 20.082C7.77734 20.082 7.60156 19.9062 7.60156 19.6602C7.60156 19.4141 7.77734 19.2383 8.02344 19.2383H20.9961C21.2422 19.2383 21.418 19.4141 21.418 19.6602C21.418 19.9062 21.2422 20.082 20.9961 20.082H8.02344Z" fill="white"/>
</svg>
