<svg width="28" height="28" viewBox="0 0 28 28" fill="none" xmlns="http://www.w3.org/2000/svg">
<path d="M1.69141 8.35156H2.32422C2.71094 8.35156 3.00391 8.05859 3.00391 7.66016V2.69141C3.00391 2.29297 2.71094 2 2.32422 2H1.69141C1.29297 2 1 2.29297 1 2.69141V7.66016C1 8.05859 1.29297 8.35156 1.69141 8.35156ZM1.69141 17.0352H2.32422C2.71094 17.0352 3.00391 16.7422 3.00391 16.3438V11.3867C3.00391 11 2.71094 10.707 2.32422 10.707H1.69141C1.29297 10.707 1 11 1 11.3867V16.3438C1 16.7422 1.29297 17.0352 1.69141 17.0352ZM1.69141 25.7422H2.32422C2.71094 25.7422 3.00391 25.4492 3.00391 25.0508V20.082C3.00391 19.6836 2.71094 19.3906 2.32422 19.3906H1.69141C1.29297 19.3906 1 19.6836 1 20.082V25.0508C1 25.4492 1.29297 25.7422 1.69141 25.7422ZM23.5586 8.33984H24.1797C24.5781 8.33984 24.8711 8.04688 24.8711 7.66016V2.69141C24.8711 2.29297 24.5781 2 24.1797 2H23.5586C23.1602 2 22.8672 2.29297 22.8672 2.69141V7.66016C22.8672 8.04688 23.1602 8.33984 23.5586 8.33984ZM23.5586 25.7305H24.1797C24.5781 25.7305 24.8711 25.4375 24.8711 25.0508V20.082C24.8711 19.6836 24.5781 19.3906 24.1797 19.3906H23.5586C23.1602 19.3906 22.8672 19.6836 22.8672 20.082V25.0508C22.8672 25.4375 23.1602 25.7305 23.5586 25.7305Z" fill="black" fill-opacity="0.85"/>
<path d="M12.0153 23.2695C15.613 25.332 17.6989 25.4609 18.8942 23.3984L25.8903 11.2578C27.1325 9.125 25.8903 6.73438 22.6442 4.87109C19.4216 3.01953 16.738 3.125 15.5075 5.25781L8.49974 17.3984C7.30443 19.4609 8.44115 21.207 12.0153 23.2695ZM22.82 14.7617L24.0036 15.4531C24.4606 15.7227 25.0349 15.5703 25.2809 15.1367L25.4802 14.7734C25.7263 14.3281 25.5856 13.7773 25.1169 13.5078L23.9333 12.8281L22.82 14.7617Z" fill="white"/>
<path d="M12.0153 23.2695C15.613 25.332 17.6989 25.4609 18.8942 23.3984L25.8903 11.2578C27.1325 9.125 25.8903 6.73438 22.6442 4.87109C19.4216 3.01953 16.738 3.125 15.5075 5.25781L8.49974 17.3984C7.30443 19.4609 8.44115 21.207 12.0153 23.2695ZM18.2145 12.5469C17.5231 12.1484 16.4333 11.6211 16.07 11.3867C15.4724 11.0586 15.3786 10.6602 15.6599 10.0391L16.3044 8.62109C16.8552 7.4375 17.8395 7.44922 20.3239 8.89062C22.8317 10.332 23.3122 11.1758 22.5856 12.2305L21.6833 13.5078C21.2614 14.1055 20.863 14.1758 20.3005 13.8477C19.9372 13.6367 18.8708 12.9336 18.2145 12.5469ZM13.738 20.3047C11.2653 18.875 10.6794 18.0547 11.5114 17L11.9919 16.4023C12.6599 15.5703 13.5505 15.6992 15.6833 16.9414C17.8395 18.1719 18.3903 18.8633 17.9919 19.8711L17.7224 20.5859C17.2536 21.8281 16.2224 21.7461 13.738 20.3047ZM14.0075 9.67578L15.1208 7.75391L13.9372 7.0625C13.4802 6.79297 12.9294 6.93359 12.6716 7.37891L12.4606 7.73047C12.2028 8.16406 12.3669 8.73828 12.8122 8.99609L14.0075 9.67578ZM22.82 14.7617L24.0036 15.4531C24.4606 15.7227 25.0349 15.5703 25.2809 15.1367L25.4802 14.7734C25.7263 14.3281 25.5856 13.7773 25.1169 13.5078L23.9333 12.8281L22.82 14.7617Z" fill="black" fill-opacity="0.85"/>
</svg>
