<svg width="28" height="28" viewBox="0 0 28 28" fill="none" xmlns="http://www.w3.org/2000/svg">
<path d="M2.11719 20.5977V24.1484C2.11719 25.5664 2.79688 26.2227 4.23828 26.2227H7.98828C5.42188 24.9688 3.51172 23.1172 2.11719 20.5977ZM25.7891 20.5977C24.3945 23.1172 22.4844 24.9688 19.9297 26.2227H23.668C25.1094 26.2227 25.7891 25.5664 25.7891 24.1484V20.5977ZM13.9531 26.0586C20.4922 26.0586 25.9062 20.6328 25.9062 14.1055C25.9062 7.56641 20.4805 2.15234 13.9414 2.15234C7.41406 2.15234 2 7.56641 2 14.1055C2 20.6328 7.42578 26.0586 13.9531 26.0586Z" fill="black" fill-opacity="0.85"/>
<path d="M9.75832 11.2227C9.41848 10.8828 9.4302 10.3672 9.75832 10.0391C10.0982 9.69924 10.6021 9.69924 10.9536 10.0391L13.9419 13.0391L18.8638 8.11721C19.2036 7.77736 19.6958 7.78908 20.0474 8.11721C20.3989 8.44533 20.3872 8.9844 20.0474 9.31252L14.5513 14.8203C14.2114 15.1602 13.6841 15.1719 13.3443 14.8203L9.75832 11.2227Z" fill="black" fill-opacity="0.85"/>
</svg>
