<svg width="29" height="28" viewBox="0 0 29 28" fill="none" xmlns="http://www.w3.org/2000/svg">
<g clip-path="url(#clip0_2124_50126)">
<path d="M0.9375 26.8672C1.46484 26.8672 1.88672 26.4453 1.88672 25.9297V4.50781C1.88672 4.13281 2.13281 3.88672 2.48438 3.88672H26.168C26.5195 3.88672 26.7656 4.13281 26.7656 4.50781V25.9297C26.7656 26.4453 27.1875 26.8672 27.7031 26.8672C28.2305 26.8672 28.6523 26.4453 28.6523 25.9297V4.39062C28.6523 2.96094 27.668 2 26.1914 2H2.44922C0.984375 2 0 2.96094 0 4.39062V25.9297C0 26.4453 0.421875 26.8672 0.9375 26.8672Z" fill="black" fill-opacity="0.85"/>
<path d="M3.65625 10.2266H24.9961C25.2188 10.2266 25.3945 10.0508 25.3945 9.83984V5.64453C25.3945 5.42188 25.2188 5.24609 24.9961 5.24609H3.65625C3.43359 5.24609 3.25781 5.42188 3.25781 5.64453V9.83984C3.25781 10.0508 3.43359 10.2266 3.65625 10.2266ZM12.0352 8.30469C11.6953 8.30469 11.4727 8.07031 11.4727 7.74219C11.4727 7.40234 11.6953 7.16797 12.0352 7.16797H16.6172C16.957 7.16797 17.1797 7.40234 17.1797 7.74219C17.1797 8.07031 16.957 8.30469 16.6172 8.30469H12.0352Z" fill="black" fill-opacity="0.85"/>
</g>
<defs>
<clipPath id="clip0_2124_50126">
<rect width="28.6523" height="24.8789" fill="white" transform="translate(0 2)"/>
</clipPath>
</defs>
</svg>
