<svg width="28" height="28" viewBox="0 0 28 28" fill="none" xmlns="http://www.w3.org/2000/svg">
<path d="M9.83203 24.4375H17.2031C24 24.4375 27.0352 21.3086 27.0352 14.9102V7.55078C27.0352 5.19531 25.8164 4 23.4375 4H3.59766C1.21875 4 0 5.19531 0 7.55078V14.9102C0 21.3086 3.03516 24.4375 9.83203 24.4375ZM9.83203 22.5508C4.30078 22.5508 1.88672 20.1484 1.88672 15.0273V7.65625C1.88672 6.48438 2.49609 5.88672 3.64453 5.88672H23.3906C24.5156 5.88672 25.1484 6.48438 25.1484 7.65625V15.0273C25.1484 20.1484 22.7344 22.5508 17.1914 22.5508H9.83203Z" fill="black" fill-opacity="0.85"/>
<path d="M11.6602 19.0586H16.2539C16.6992 19.0586 17.0859 18.7422 17.0859 18.2617C17.0859 17.7812 16.6992 17.4414 16.2539 17.4414H12.6445V10.2695C12.6445 9.63672 12.2578 9.20312 11.6602 9.20312C11.0625 9.20312 10.7227 9.64844 10.7227 10.2695V18.0156C10.7227 18.6367 11.0625 19.0586 11.6602 19.0586Z" fill="black" fill-opacity="0.85"/>
</svg>
