<svg width="28" height="28" viewBox="0 0 28 28" fill="none" xmlns="http://www.w3.org/2000/svg">
<path d="M13.9531 25.9062C20.4922 25.9062 25.9062 20.4805 25.9062 13.9531C25.9062 7.41406 20.4805 2 13.9414 2C7.41406 2 2 7.41406 2 13.9531C2 20.4805 7.42578 25.9062 13.9531 25.9062Z" fill="black" fill-opacity="0.85"/>
<path d="M8.82031 18.8398C8.26953 18.8398 8.01172 18.5469 8.01172 18.1367C8.01172 17.7617 8.23438 17.457 8.45703 17.1641L10.5547 14.4922C11.1875 13.6719 11.8672 12.6875 11.8672 11.7148C11.8672 10.8594 11.457 10.2266 10.7305 10.2266C10.0391 10.2266 9.74609 10.7305 9.52344 11.5391C9.39453 11.9375 9.14844 12.125 8.75 12.125C8.28125 12.125 8.02344 11.8086 8.02344 11.3516C8.02344 10.0977 9.19531 8.82031 10.7422 8.82031C12.4062 8.82031 13.5195 10.0039 13.5195 11.6328C13.5195 12.6992 13.1211 13.5898 11.9141 15.0898L10.1562 17.3164V17.4219H13.0156C13.4375 17.4219 13.707 17.668 13.707 18.1367C13.707 18.5586 13.4492 18.8398 13.0156 18.8398H8.82031ZM16.5312 19.0039C15.957 19.0039 15.7227 18.6055 15.7227 18.2539C15.7227 17.9609 15.7695 17.8086 15.8867 17.5391L18.5469 10.6133V10.5078H15.4531C15.0312 10.5078 14.75 10.2031 14.75 9.79297C14.75 9.37109 15.0312 9.06641 15.4531 9.06641H19.3555C19.8945 9.06641 20.3164 9.45312 20.3164 10.0039C20.3164 10.3555 20.2227 10.6484 20.0938 11.0234L17.3398 18.3828C17.1641 18.8281 16.9766 19.0039 16.5312 19.0039Z" fill="white"/>
</svg>
