<svg width="28" height="28" viewBox="0 0 28 28" fill="none" xmlns="http://www.w3.org/2000/svg">
<g clip-path="url(#clip0_2124_24797)">
<path d="M18.9531 19.1172C20.4883 19.1172 22.1523 18.2031 22.5156 16.2344L23.1367 12.8711C23.7812 9.36719 21.1328 6.75391 16.8672 5.27734C14.3359 4.39844 11.8633 4 9.36719 4C8.61719 4 8.35938 4.26953 8.35938 4.76172C8.35938 5.96875 8.99219 6.87109 10.1992 7.04688C12.1797 7.35156 13.6797 7.75 15.2617 8.5C15.8945 8.79297 16.1406 9.22656 16.0234 9.87109L15.2617 14.4766C14.8281 17.0898 16.5859 19.1172 18.9531 19.1172ZM18.9531 17.3242C17.8633 17.3242 16.9961 16.457 16.9961 15.3672C16.9961 14.2773 17.8633 13.4102 18.9531 13.4102C20.043 13.4102 20.9102 14.2656 20.9102 15.3672C20.9102 16.4688 20.043 17.3242 18.9531 17.3242ZM18.9531 16.4922C19.5859 16.4922 20.0781 16 20.0781 15.3672C20.0781 14.7461 19.5859 14.2422 18.9531 14.2422C18.3203 14.2422 17.8281 14.7461 17.8281 15.3672C17.8281 16 18.3203 16.4922 18.9531 16.4922ZM18.9531 20.2539C15.8125 20.2539 13.5977 17.5234 14.1484 14.2891L14.6055 11.5234C12.0977 12.168 10.2812 13.2344 9.51953 14.8633C10.1875 17.8398 11.2656 20.5938 12.7773 23.2305C13.5156 23.6055 14.2891 23.7461 15.332 23.7461C19.3398 23.7461 22.8672 21.8008 23.1133 17.8984C22.293 19.3398 20.7461 20.2539 18.9531 20.2539Z" fill="black" fill-opacity="0.85"/>
<path d="M4 19.7617C4 22.75 5.98047 24.7539 8.95703 24.7539C10.1406 24.7539 11.2188 24.3672 11.8633 23.9102C10.2461 21.1328 9.09766 18.1562 8.37109 14.9922C6.15625 15.2148 4 17.0312 4 19.7617Z" fill="black" fill-opacity="0.85"/>
</g>
<defs>
<clipPath id="clip0_2124_24797">
<rect width="19.233" height="20.7773" fill="white" transform="translate(4 4)"/>
</clipPath>
</defs>
</svg>
