<svg width="28" height="28" viewBox="0 0 28 28" fill="none" xmlns="http://www.w3.org/2000/svg">
<g clip-path="url(#clip0_2124_88523)">
<path d="M13.9531 25.918C20.4922 25.918 25.9062 20.5039 25.9062 13.9648C25.9062 7.4375 20.4805 2.01172 13.9414 2.01172C7.41406 2.01172 2 7.4375 2 13.9648C2 20.5039 7.42578 25.918 13.9531 25.918Z" fill="black" fill-opacity="0.85"/>
<path d="M8.05867 19.6602C6.52352 18.1367 6.66414 16.25 8.41024 14.4922L10.5665 12.3594C10.379 12.9688 10.3907 13.6602 10.5899 14.1289L9.34774 15.3477C8.12899 16.543 8.00008 17.7969 8.96102 18.7344C9.91024 19.6719 11.1524 19.5312 12.3478 18.3477L14.0821 16.6016C15.3126 15.3945 15.4649 14.1289 14.5274 13.1797C14.2345 12.8984 13.8126 12.6992 13.2618 12.6289C13.4493 12.207 13.8595 11.75 14.1993 11.5156C14.5392 11.5742 15.0196 11.8554 15.4181 12.2891C16.9649 13.8125 16.8126 15.6992 15.0196 17.4922L13.2149 19.2734C11.4571 21.043 9.55867 21.1602 8.05867 19.6602ZM19.4493 8.23434C20.9845 9.75777 20.8439 11.6445 19.086 13.4141L16.9415 15.5352C17.129 14.9375 17.1173 14.2344 16.9181 13.7773L18.1603 12.5469C19.379 11.3515 19.4962 10.0976 18.547 9.16012C17.5978 8.22262 16.3556 8.36324 15.1603 9.54684L13.4259 11.2929C12.1837 12.5117 12.0431 13.7656 12.9806 14.7266C13.2735 14.9961 13.6954 15.1953 14.2462 15.2773C14.0587 15.6992 13.6368 16.1562 13.297 16.3906C12.9689 16.332 12.4884 16.0391 12.0899 15.6172C10.5431 14.0938 10.6954 12.1953 12.4884 10.414L14.2813 8.62105C16.0509 6.85152 17.9376 6.73434 19.4493 8.23434Z" fill="white"/>
</g>
<defs>
<clipPath id="clip0_2124_88523">
<rect width="23.9062" height="23.918" fill="white" transform="translate(2 2)"/>
</clipPath>
</defs>
</svg>
