<svg width="28" height="28" viewBox="0 0 28 28" fill="none" xmlns="http://www.w3.org/2000/svg">
<path d="M5.67969 24.457H23.1523C25.6367 24.457 26.832 23.2852 26.832 20.8359V6.55078C26.832 4.20703 25.625 3.01172 23.2578 3.01172H17.5742C15.6641 3.01172 14.4688 3.42188 12.9219 4.58203L3.81641 11.5078C2.46875 12.5273 2 13.4297 2 15.1055V20.8359C2 23.2852 3.20703 24.457 5.67969 24.457ZM5.75 13.6523C5.12891 13.6523 5 12.9844 5.48047 12.6328L14.2109 5.95312C15.207 5.15625 16.0742 4.89844 17.5742 4.89844H23.2227C24.3125 4.89844 24.9453 5.50781 24.9453 6.64453V11.9062C24.9453 13.0312 24.3008 13.6523 23.2227 13.6523H5.75Z" fill="black" fill-opacity="0.85"/>
<path d="M16.2848 11.918H21.4996C22.1207 11.918 22.4137 11.4141 22.0738 10.8633L19.5191 6.70313C19.2027 6.17579 18.5816 6.16407 18.2535 6.70313L15.7223 10.8633C15.3824 11.4141 15.6519 11.918 16.2848 11.918Z" fill="black" fill-opacity="0.85"/>
<path d="M16.2848 15.832H21.4996C22.1207 15.832 22.4137 16.3359 22.0738 16.8867L19.5191 21.0469C19.2027 21.5742 18.5816 21.5859 18.2535 21.0469L15.7223 16.8867C15.3824 16.3359 15.6519 15.832 16.2848 15.832Z" fill="white"/>
</svg>
