<svg width="29" height="28" viewBox="0 0 29 28" fill="none" xmlns="http://www.w3.org/2000/svg">
<g clip-path="url(#clip0_2124_50019)">
<path d="M3.67969 24.9141H25.125C27.5859 24.9141 28.8047 23.6953 28.8047 21.2812V6.63281C28.8047 4.21875 27.5859 3 25.125 3H3.67969C1.23047 3 0 4.20703 0 6.63281V21.2812C0 23.707 1.23047 24.9141 3.67969 24.9141ZM3.70312 23.0273C2.53125 23.0273 1.88672 22.3945 1.88672 21.1875V6.72656C1.88672 5.50781 2.53125 4.88672 3.70312 4.88672H25.1016C26.2617 4.88672 26.918 5.50781 26.918 6.72656V21.1875C26.918 22.3945 26.2617 23.0273 25.1016 23.0273H3.70312Z" fill="black" fill-opacity="0.85"/>
<path d="M4.51172 21.4219H24.293C24.9492 21.4219 25.3242 21.0352 25.3242 20.3789V7.53516C25.3242 6.86719 24.9492 6.48047 24.293 6.48047H4.51172C3.85547 6.48047 3.49219 6.86719 3.49219 7.53516V20.3789C3.49219 21.0352 3.85547 21.4219 4.51172 21.4219Z" fill="black" fill-opacity="0.85"/>
</g>
<defs>
<clipPath id="clip0_2124_50019">
<rect width="28.8047" height="21.9258" fill="white" transform="translate(0 3)"/>
</clipPath>
</defs>
</svg>
