<svg width="28" height="28" viewBox="0 0 28 28" fill="none" xmlns="http://www.w3.org/2000/svg">
<g clip-path="url(#clip0_2124_89154)">
<path d="M2 24.2344C2 25.0898 2.49219 25.582 3.33594 25.582C3.64062 25.582 3.93359 25.4883 4.32031 25.2773L9.24219 22.6172V3.19922C9.03125 3.30469 8.79688 3.42188 8.58594 3.53906L3.03125 6.72656C2.32812 7.11328 2 7.67578 2 8.46094V24.2344ZM10.8477 22.3945L16.7539 25.7109C16.9297 25.8047 17.1172 25.8867 17.293 25.9336V6.80859L11.5039 3.26953C11.3047 3.14063 11.0703 3.04688 10.8477 3V22.3945ZM18.8867 25.8984C19.0039 25.8633 19.1328 25.8164 19.2383 25.7461L25.3438 22.2773C26.0469 21.8906 26.375 21.3281 26.375 20.543V4.75781C26.375 3.89062 25.8828 3.41016 25.0391 3.41016C24.7344 3.41016 24.4414 3.50391 24.0547 3.71484L18.8867 6.58594V25.8984Z" fill="black" fill-opacity="0.85"/>
</g>
<defs>
<clipPath id="clip0_2124_89154">
<rect width="24.375" height="22.9805" fill="white" transform="translate(2 3)"/>
</clipPath>
</defs>
</svg>
