<svg width="28" height="28" viewBox="0 0 28 28" fill="none" xmlns="http://www.w3.org/2000/svg">
<path d="M13.9531 25.9062C20.4922 25.9062 25.9062 20.4805 25.9062 13.9531C25.9062 7.41406 20.4805 2 13.9414 2C7.41406 2 2 7.41406 2 13.9531C2 20.4805 7.42578 25.9062 13.9531 25.9062ZM13.9531 23.9141C8.42188 23.9141 4.00391 19.4844 4.00391 13.9531C4.00391 8.42188 8.41016 3.99219 13.9414 3.99219C19.4727 3.99219 23.9141 8.42188 23.9141 13.9531C23.9141 19.4844 19.4844 23.9141 13.9531 23.9141Z" fill="black" fill-opacity="0.85"/>
<path d="M8.44485 9.88672C8.14016 10.1914 8.15188 10.7305 8.44485 11.0234L11.398 13.9062C11.5503 14.0352 11.7613 14.1289 11.9488 14.1289C12.3823 14.1289 12.6987 13.8242 12.6987 13.3906C12.6987 13.1797 12.6167 12.9922 12.4761 12.8516L11.2339 11.6445L10.7417 11.1875L11.2925 11.2227H18.8979C19.3315 11.2227 19.6597 10.8828 19.6597 10.4492C19.6597 10.0156 19.3433 9.69922 18.8979 9.69922H11.3042L10.7534 9.71094L11.2339 9.27734L12.4761 8.07031C12.6167 7.92969 12.6987 7.73047 12.6987 7.53125C12.6987 7.08594 12.3823 6.78125 11.9488 6.78125C11.7613 6.78125 11.5386 6.875 11.398 7.02734L8.44485 9.88672ZM19.4253 18.0312C19.7417 17.7148 19.7183 17.2344 19.4253 16.9297L16.4722 14.0469C16.3433 13.9062 16.1206 13.8125 15.9214 13.8125C15.4761 13.8125 15.1714 14.1172 15.1714 14.5508C15.1714 14.7617 15.2534 14.9492 15.394 15.0898L16.6479 16.2969L17.1401 16.7539L16.5776 16.7188H8.9722C8.55032 16.7188 8.2222 17.0352 8.2222 17.4805C8.2222 17.9141 8.5386 18.2422 8.9722 18.2422H16.5659L17.1401 18.2305L16.6479 18.6641L15.4057 19.8711C15.2651 20.0234 15.1714 20.1992 15.1714 20.4102C15.1714 20.8438 15.4995 21.1602 15.9214 21.1602C16.0972 21.1602 16.3198 21.0664 16.4722 20.9258L19.4253 18.0312Z" fill="black" fill-opacity="0.85"/>
</svg>
