<svg width="28" height="28" viewBox="0 0 28 28" fill="none" xmlns="http://www.w3.org/2000/svg">
<path d="M23.1523 24.457C25.625 24.457 26.832 23.2852 26.832 20.8359V15.1055C26.832 13.4297 26.3633 12.5273 25.0156 11.5078L15.9102 4.58203C14.3633 3.42188 13.168 3.01172 11.2578 3.01172H5.57422C3.20703 3.01172 2 4.20703 2 6.55078V20.8359C2 23.2852 3.19531 24.457 5.67969 24.457H23.1523ZM23.082 13.6523H5.60938C4.53125 13.6523 3.88672 13.0312 3.88672 11.9062V6.64453C3.88672 5.50781 4.51953 4.89844 5.60938 4.89844H11.2578C12.7578 4.89844 13.625 5.15625 14.6211 5.95312L23.3516 12.6328C23.832 12.9844 23.7031 13.6523 23.082 13.6523Z" fill="black" fill-opacity="0.85"/>
</svg>
