<svg width="28" height="30" viewBox="0 0 28 30" fill="none" xmlns="http://www.w3.org/2000/svg">
<path d="M14.6671 5.12109C16.0734 5.12109 17.2101 3.97266 17.2101 2.54297C17.2101 1.13672 16.0734 0 14.6671 0C13.2374 0 12.089 1.13672 12.089 2.54297C12.089 3.97266 13.2374 5.12109 14.6671 5.12109ZM17.4093 11.9648C17.8898 12.4688 18.8156 12.4336 19.2374 11.7656L22.0851 7.19531C22.964 5.78906 20.9015 4.66406 20.0929 5.95312L18.0304 9.28125L16.4132 7.65234C14.8546 6.10547 13.1554 5.78906 10.7882 6.05859L6.61634 6.52734C6.07728 6.58594 5.6554 7.01953 5.59681 7.53516L5.01087 12.1406C4.82337 13.6172 7.12025 14.0039 7.31947 12.4219L7.78822 8.74219L9.9679 8.49609C10.2726 8.47266 10.4835 8.67188 10.4366 9.01172L9.88587 13.5234C9.61634 15.6562 10.8468 16.8867 12.9562 16.7344L17.2687 16.4297L15.9796 21.1289C15.546 22.7109 17.8312 23.2617 18.2413 21.7266L19.9406 15.4688C20.1515 14.6719 19.6124 13.9922 18.7218 13.9922H14.2687L14.8312 10.1484C14.8898 9.77344 15.2296 9.76172 15.4406 9.99609L17.4093 11.9648ZM11.046 17.625L10.7648 21.7969L8.56165 27.3047C8.17494 28.2891 8.87806 28.9688 9.60462 28.9688C10.0616 28.9688 10.5187 28.7227 10.7531 28.1367L13.0031 22.4883C13.0265 22.4062 13.0617 22.3125 13.0734 22.2305L13.7296 17.8242L13.0382 17.8711C12.2999 17.918 11.6203 17.8242 11.046 17.625Z" fill="black" fill-opacity="0.85"/>
</svg>
