<svg width="28" height="28" viewBox="0 0 28 28" fill="none" xmlns="http://www.w3.org/2000/svg">
<path d="M13.9531 25.9062C20.4922 25.9062 25.9062 20.4805 25.9062 13.9531C25.9062 7.41406 20.4805 2 13.9414 2C7.41406 2 2 7.41406 2 13.9531C2 20.4805 7.42578 25.9062 13.9531 25.9062Z" fill="black" fill-opacity="0.85"/>
<path d="M10.0391 19.0508C8.73828 19.0508 7.50781 18.4297 7.15625 17.3047C7.09766 17.1055 7.0625 16.8945 7.0625 16.6719C7.0625 16.2031 7.37891 15.9102 7.85938 15.9102C8.24609 15.9102 8.50391 16.1094 8.62109 16.5078C8.77344 17.0586 9.17188 17.6445 10.0391 17.6445C10.9414 17.6445 11.375 16.9297 11.375 16.0977C11.375 15.0547 10.8008 14.4922 9.79297 14.4922H9.47656C9.07812 14.4922 8.80859 14.2578 8.80859 13.8594C8.80859 13.4609 9.06641 13.2031 9.47656 13.2031H9.76953C10.6719 13.2031 11.1641 12.5586 11.1641 11.6797C11.1641 10.8828 10.7773 10.2734 9.99219 10.2734C9.3125 10.2734 8.92578 10.7187 8.75 11.4336C8.62109 11.8555 8.375 12.0078 7.96484 12.0078C7.48438 12.0078 7.21484 11.6914 7.21484 11.293C7.21484 11.082 7.25 10.8711 7.30859 10.6367C7.66016 9.57031 8.73828 8.86719 9.99219 8.86719C11.5742 8.86719 12.8164 9.81641 12.8164 11.4922C12.8164 12.5 12.2891 13.4844 11.1875 13.7773V13.8125C12.207 13.918 13.1094 14.6562 13.1094 16.1562C13.1094 17.9609 11.7734 19.0508 10.0391 19.0508ZM18.8633 18.9922C18.4766 18.9922 18.0312 18.7695 18.0312 18.125V16.9297H15.3242C14.7266 16.9297 14.3281 16.5312 14.3281 15.9453C14.3281 15.5703 14.3867 15.2539 14.5977 14.7852L16.7539 10.0977C17.0938 9.34766 17.4922 8.91406 18.3359 8.91406C19.1445 8.91406 19.6953 9.38281 19.6953 10.2266V15.5234H20.1172C20.6094 15.5234 20.7969 15.8281 20.7969 16.2148C20.7969 16.625 20.5859 16.9297 20.1172 16.9297H19.6953V18.125C19.6953 18.7109 19.3086 18.9922 18.8633 18.9922ZM18.0664 15.5586V10.4375H18.0195L15.8164 15.4766V15.5586H18.0664Z" fill="white"/>
</svg>
