<svg width="28" height="28" viewBox="0 0 28 28" fill="none" xmlns="http://www.w3.org/2000/svg">
<path d="M2.06934 14.0182C2.06934 17.9674 4.09668 21.4596 7.07324 23.6862C7.58887 24.0846 8.24512 23.9557 8.52637 23.4753C8.81934 22.9948 8.67871 22.4323 8.19824 22.0807C5.69043 20.2878 4.07324 17.3581 4.06152 14.0182C4.03809 8.48693 8.50293 4.05724 14.0225 4.05724C19.5537 4.05724 24.0068 8.48693 23.9834 14.0182C23.9717 17.3581 22.3662 20.2878 19.8584 22.0807C19.3779 22.4323 19.2373 22.9948 19.5303 23.4753C19.8115 23.9557 20.4678 24.0846 20.9834 23.6862C23.96 21.4596 25.9756 17.9674 25.9756 14.0182C25.9756 7.47912 20.5615 2.06506 14.0225 2.06506C7.49512 2.06506 2.06934 7.47912 2.06934 14.0182ZM23.0459 24.4948L19.3428 20.6276C18.7568 20.0182 18.1943 20.276 18.042 21.0378L17.1396 25.444C16.999 26.1003 17.3975 26.4987 18.0654 26.4049L22.5654 25.7721C23.374 25.6549 23.6318 25.1159 23.0459 24.4948ZM10.1787 18.8229C10.6006 18.8229 10.8935 18.612 11.0693 18.0729L11.9365 15.5768H16.1201L16.9756 18.0729C17.1631 18.612 17.4561 18.8229 17.8779 18.8229C18.3936 18.8229 18.7451 18.4831 18.7451 18.0143C18.7451 17.8268 18.71 17.6628 18.6162 17.4049L15.335 8.55724C15.1006 7.94787 14.6553 7.63146 14.0107 7.63146C13.3896 7.63146 12.9443 7.94787 12.7217 8.55724L9.42871 17.4049C9.34668 17.6628 9.31152 17.8268 9.31152 18.0026C9.31152 18.4948 9.65137 18.8229 10.1787 18.8229ZM12.4053 14.1706L13.9639 9.63537H14.0928L15.6514 14.1706H12.4053Z" fill="black" fill-opacity="0.85"/>
<path d="M23.1631 26.393C24.0654 27.2719 25.5186 27.2719 26.3857 26.3579C27.2646 25.4672 27.2529 24.0493 26.374 23.1704L4.88184 1.66651C4.00293 0.787604 2.56152 0.775886 1.65918 1.66651C0.780273 2.5337 0.780273 4.01026 1.65918 4.87745L23.1631 26.393Z" fill="white"/>
<path d="M24.1357 25.4205C24.4873 25.772 25.0732 25.7603 25.4131 25.4088C25.7646 25.0572 25.7646 24.483 25.4131 24.1314L3.9209 2.63918C3.56934 2.28762 2.9834 2.2759 2.63184 2.63918C2.28027 2.97903 2.28027 3.56497 2.63184 3.91653L24.1357 25.4205Z" fill="black" fill-opacity="0.85"/>
</svg>
