<svg width="28" height="28" viewBox="0 0 28 28" fill="none" xmlns="http://www.w3.org/2000/svg">
<g clip-path="url(#clip0_2124_67747)">
<path d="M13.9531 25.918C20.4922 25.918 25.9062 20.5039 25.9062 13.9648C25.9062 7.4375 20.4805 2.01172 13.9414 2.01172C7.41406 2.01172 2 7.4375 2 13.9648C2 20.5039 7.42578 25.918 13.9531 25.918Z" fill="black" fill-opacity="0.85"/>
<path d="M6.65234 18.3125V14.8906C6.65234 13.8008 7.27344 13.1797 8.375 13.1797H19.5312C20.6328 13.1797 21.2539 13.8008 21.2539 14.8906V18.3125C21.2539 18.6172 21.0547 18.8047 20.75 18.8047H20.4219C20.1289 18.8047 19.9297 18.6172 19.9297 18.3125V17.4688C19.8594 17.4805 19.6719 17.4805 19.5312 17.4805H8.375C8.23438 17.4805 8.04688 17.4805 7.97656 17.4688V18.3125C7.97656 18.6172 7.77734 18.8047 7.48438 18.8047H7.15625C6.86328 18.8047 6.65234 18.6172 6.65234 18.3125ZM8.04688 12.3594V10.7188C8.04688 9.66406 8.60938 9.11328 9.64062 9.11328H18.2656C19.2969 9.11328 19.8711 9.66406 19.8711 10.7188V12.3594H18.4062V11.5508C18.4062 11.0117 18.1133 10.707 17.5156 10.707H15.5117C14.9375 10.707 14.6445 11.0117 14.6445 11.5508V12.3594H13.332V11.5508C13.332 11.0117 13.0391 10.707 12.5 10.707H10.3555C9.79297 10.707 9.51172 11.0117 9.51172 11.5508V12.3594H8.04688Z" fill="white"/>
</g>
<defs>
<clipPath id="clip0_2124_67747">
<rect width="23.9062" height="23.918" fill="white" transform="translate(2 2)"/>
</clipPath>
</defs>
</svg>
