<svg width="28" height="28" viewBox="0 0 28 28" fill="none" xmlns="http://www.w3.org/2000/svg">
<path d="M7.29024 15.3008C7.29024 16.8477 5.90742 17.7031 5.90742 18.7344C5.90742 19.3438 6.05977 19.6602 6.44649 20.1758C7.00899 20.9258 5.9543 21.6758 5.40352 20.9609C4.85274 20.2695 4.60664 19.625 4.60664 18.8164C4.60664 17.2344 5.96602 16.4375 5.96602 15.3008C5.96602 14.1523 4.60664 13.3672 4.60664 11.7734C4.60664 10.9883 4.85274 10.3438 5.40352 9.64062C5.97774 8.91406 7.02071 9.66406 6.45821 10.4141C6.05977 10.9414 5.90742 11.2695 5.90742 11.8555C5.90742 12.9102 7.29024 13.7656 7.29024 15.3008ZM11.052 15.3008C11.052 16.8477 9.66914 17.7031 9.66914 18.7344C9.66914 19.3438 9.82149 19.6602 10.2082 20.1758C10.7707 20.9258 9.71602 21.6758 9.15352 20.9609C8.60274 20.2695 8.36836 19.625 8.36836 18.8164C8.36836 17.2344 9.72774 16.4375 9.72774 15.3008C9.72774 14.1523 8.36836 13.3672 8.36836 11.7734C8.36836 10.9883 8.60274 10.3438 9.16524 9.64062C9.72774 8.91406 10.7707 9.66406 10.2199 10.4141C9.82149 10.9414 9.66914 11.2695 9.66914 11.8555C9.66914 12.9102 11.052 13.7656 11.052 15.3008ZM14.802 15.3008C14.802 16.8477 13.4191 17.7031 13.4191 18.7344C13.4191 19.3438 13.5715 19.6602 13.9582 20.1758C14.5207 20.9258 13.4777 21.6758 12.9152 20.9609C12.3645 20.2695 12.1184 19.625 12.1184 18.8164C12.1184 17.2344 13.4777 16.4375 13.4777 15.3008C13.4777 14.1523 12.1184 13.3672 12.1184 11.7734C12.1184 10.9883 12.3645 10.3438 12.9152 9.64062C13.4895 8.91406 14.5324 9.66406 13.9699 10.4141C13.5715 10.9414 13.4191 11.2695 13.4191 11.8555C13.4191 12.9102 14.802 13.7656 14.802 15.3008ZM1.19649 21.8281C2.22774 25.6484 3.29414 26.8086 5.70821 26.8086H19.384C21.1184 26.8086 22.2785 25.8711 22.7121 24.1133L27.1184 6.23047C27.8332 3.3125 26.3801 2 24.6926 2C22.4543 2 20.0168 4.39062 21.3879 8.25781L21.7277 6.81641C18.2004 8.66797 16.5949 12.957 17.2395 18.1953L17.6613 17.6094C15.2473 17.1055 12.0949 16.8008 9.05977 16.8008C2.79024 16.8008 0.235549 18.3242 1.19649 21.8281Z" fill="black" fill-opacity="0.85"/>
</svg>
