<svg width="28" height="28" viewBox="0 0 28 28" fill="none" xmlns="http://www.w3.org/2000/svg">
<path d="M6.67969 24.5977H20.8945C23.3555 24.5977 24.5742 23.3789 24.5742 20.9648V6.65625C24.5742 4.24219 23.3555 3.02344 20.8945 3.02344H6.67969C4.23047 3.02344 3 4.23047 3 6.65625V20.9648C3 23.3906 4.23047 24.5977 6.67969 24.5977ZM6.70312 22.7109C5.53125 22.7109 4.88672 22.0898 4.88672 20.8711V6.75C4.88672 5.53125 5.53125 4.91016 6.70312 4.91016H20.8711C22.0312 4.91016 22.6875 5.53125 22.6875 6.75V20.8711C22.6875 22.0898 22.0312 22.7109 20.8711 22.7109H6.70312Z" fill="black" fill-opacity="0.85"/>
<path d="M9.98438 18.6914C10.4062 18.6914 10.7578 18.3516 10.7578 17.9297V16.1836L11.3789 15.5977L13.1836 18.2461C13.4883 18.7148 13.9922 18.7383 14.3086 18.5156C14.5898 18.3047 14.7305 17.8828 14.4023 17.4023L12.4805 14.6484L14.4023 12.6445C14.7305 12.3047 14.6484 11.918 14.4141 11.707C14.1562 11.4375 13.6875 11.3555 13.3359 11.7539L10.793 14.6016H10.7578V9.60938C10.7578 9.1875 10.4062 8.83594 9.98438 8.83594C9.5625 8.83594 9.22266 9.1875 9.22266 9.60938V17.9297C9.22266 18.3516 9.5625 18.6914 9.98438 18.6914ZM16.6055 18.7031C17.0039 18.7031 17.3203 18.375 17.3203 17.9766V14.5547C17.3203 13.6992 17.6133 12.9844 18.4805 12.9844C18.7617 12.9844 19.0664 12.9258 19.2539 12.7734C19.3828 12.668 19.4766 12.4922 19.4766 12.2695C19.4766 12.0352 19.4062 11.8594 19.2773 11.7305C19.125 11.5898 18.9258 11.5195 18.6914 11.5195C17.9531 11.5195 17.4727 12.1641 17.332 12.9141H17.2734V12.1992C17.2734 11.8125 16.9688 11.5078 16.582 11.5078C16.1836 11.5078 15.8789 11.8125 15.8789 12.1992V17.9766C15.8789 18.375 16.1953 18.7031 16.6055 18.7031Z" fill="black" fill-opacity="0.85"/>
</svg>
