<svg width="28" height="28" viewBox="0 0 28 28" fill="none" xmlns="http://www.w3.org/2000/svg">
<g clip-path="url(#clip0_2124_88710)">
<path d="M13.9531 25.9062C20.4922 25.9062 25.9062 20.4805 25.9062 13.9531C25.9062 7.41406 20.4805 2 13.9414 2C7.41406 2 2 7.41406 2 13.9531C2 20.4805 7.42578 25.9062 13.9531 25.9062ZM13.9531 23.9141C8.42188 23.9141 4.00391 19.4844 4.00391 13.9531C4.00391 8.42188 8.41016 3.99219 13.9414 3.99219C19.4727 3.99219 23.9141 8.42188 23.9141 13.9531C23.9141 19.4844 19.4844 23.9141 13.9531 23.9141Z" fill="black" fill-opacity="0.85"/>
<path d="M10.8242 7.89453H17.082V7.67188C17.082 6.83984 16.6719 6.41797 15.8398 6.41797H12.0547C11.2344 6.41797 10.8242 6.83984 10.8242 7.67188V7.89453ZM13.3438 21.4883H14.5508C15.3477 21.4883 15.7812 21.0547 15.7812 20.2344V12.8516C15.7812 12.1367 15.9336 11.6562 16.1914 11.2578L16.5547 10.6953C16.8711 10.2031 17.082 9.76953 17.082 9.20703V8.60938H10.8242V9.20703C10.8242 9.76953 11.0352 10.2031 11.3516 10.6953L11.7148 11.2578C11.9727 11.6562 12.1367 12.1367 12.1367 12.8516V20.2344C12.1367 21.0547 12.5586 21.4883 13.3438 21.4883Z" fill="black" fill-opacity="0.85"/>
<path d="M18.6523 20.5742C19.1914 21.1016 20.0586 21.1133 20.5742 20.5742C21.125 20.0352 21.1133 19.2031 20.5742 18.6641L9.23047 7.32031C8.69141 6.78125 7.83594 6.78125 7.30859 7.32031C6.76953 7.84766 6.76953 8.71484 7.30859 9.24219L18.6523 20.5742Z" fill="white"/>
<path d="M19.2383 20C19.4375 20.1992 19.7891 20.1992 19.9883 20C20.1992 19.7773 20.1992 19.4609 19.9883 19.25L8.65628 7.90625C8.44534 7.69531 8.1055 7.69531 7.89456 7.90625C7.68362 8.10547 7.69534 8.45703 7.89456 8.65625L19.2383 20Z" fill="black" fill-opacity="0.85"/>
</g>
<defs>
<clipPath id="clip0_2124_88710">
<rect width="23.9062" height="23.918" fill="white" transform="translate(2 2)"/>
</clipPath>
</defs>
</svg>
