<svg width="28" height="28" viewBox="0 0 28 28" fill="none" xmlns="http://www.w3.org/2000/svg">
<g clip-path="url(#clip0_2124_62643)">
<path d="M13.9531 25.9062C20.4922 25.9062 25.9062 20.4805 25.9062 13.9531C25.9062 7.41406 20.4805 2 13.9414 2C7.41406 2 2 7.41406 2 13.9531C2 20.4805 7.42578 25.9062 13.9531 25.9062Z" fill="black" fill-opacity="0.85"/>
<path d="M9.23047 18.957C8.48047 18.957 8.04688 18.5586 8.04688 17.8203V17.0586C8.04688 16.3203 8.48047 15.9219 9.23047 15.9219H18.6758C19.4258 15.9219 19.8594 16.3203 19.8594 17.0586V17.8203C19.8594 18.5586 19.4258 18.957 18.6758 18.957H9.23047ZM8.9375 14.3984C8.43359 14.3984 8.19922 14.1406 8.16406 13.6953C8.15234 13.4844 8.24609 13.2734 8.43359 13.0859L13.1914 7.84766C13.3789 7.63672 13.6484 7.46094 13.9531 7.46094C14.2578 7.46094 14.5156 7.60156 14.7148 7.84766L19.4609 13.0859C19.6367 13.2852 19.7422 13.4844 19.7422 13.6953C19.7422 14.1406 19.4492 14.3984 18.957 14.3984H8.9375Z" fill="white"/>
</g>
<defs>
<clipPath id="clip0_2124_62643">
<rect width="23.9062" height="23.918" fill="white" transform="translate(2 2)"/>
</clipPath>
</defs>
</svg>
