<svg width="42" height="28" viewBox="0 0 42 28" fill="none" xmlns="http://www.w3.org/2000/svg">
<path d="M3.05859 20.3711H6.64453V18.4844H3.16406C2.33203 18.4844 1.88672 17.9688 1.88672 17.0078V14.9219C1.88672 13.1641 3.12891 12.0273 5.39062 11.7461L10.9922 11.043L16.0781 7.87891C18.668 6.27344 20.2266 5.88672 24.7031 5.88672H27.457C30.6445 5.88672 33.2227 7.21094 35.4375 10.293L38.3086 11.043C39.3867 11.3125 39.6797 11.957 39.6797 12.8594V17.1133C39.6797 17.9688 39.2461 18.4844 38.5078 18.4844H35.6016V20.3711H38.8477C40.5352 20.3711 41.5664 19.3047 41.5664 17.582V12.8594C41.5664 11.2188 41.0742 9.82422 38.8945 9.14453L36.4805 8.40625C34.957 6.58984 32.2969 4 27.457 4H24.7031C19.875 4 17.9531 4.46875 15.0703 6.27344L10.3477 9.23828L5.14453 9.87109C1.91016 10.2695 0 12.1328 0 14.9219V17.2422C0 19.2344 1.11328 20.3711 3.05859 20.3711ZM12.1289 20.3711H30.2109V18.4844H12.1289V20.3711ZM9.31641 23.043C11.5664 23.043 13.3242 21.2852 13.3242 19.0352C13.3242 16.7852 11.5664 15.0273 9.31641 15.0273C7.06641 15.0273 5.30859 16.7852 5.30859 19.0352C5.30859 21.2852 7.06641 23.043 9.31641 23.043ZM9.31641 21.1562C8.12109 21.1562 7.19531 20.2305 7.19531 19.0352C7.19531 17.8398 8.12109 16.9141 9.31641 16.9141C10.5117 16.9141 11.4375 17.8398 11.4375 19.0352C11.4375 20.2305 10.5117 21.1562 9.31641 21.1562ZM32.9883 23.043C35.2383 23.043 36.9961 21.2852 36.9961 19.0352C36.9961 16.7852 35.2383 15.0273 32.9883 15.0273C30.7383 15.0273 28.9805 16.7852 28.9805 19.0352C28.9805 21.2852 30.7383 23.043 32.9883 23.043ZM32.9883 21.1562C31.793 21.1562 30.8672 20.2305 30.8672 19.0352C30.8672 17.8398 31.793 16.9141 32.9883 16.9141C34.1836 16.9141 35.1094 17.8398 35.1094 19.0352C35.1094 20.2305 34.1836 21.1562 32.9883 21.1562Z" fill="black" fill-opacity="0.85"/>
<path d="M16.3594 11.8867C16.3594 13.8789 17.8242 15.2031 19.9805 15.2031H24.6445V16.2812C24.6445 16.9375 25.1133 17.1719 25.6875 16.7969L28.418 15.0039C28.8516 14.7227 28.875 14.1836 28.418 13.8672L25.6992 12.0859C25.125 11.6992 24.6445 11.9219 24.6445 12.6016V13.6211H19.9805C18.7852 13.6211 18 12.9648 18 11.9805C18 10.8789 18.7969 10.1289 19.9922 10.1289H26.8242C27.3164 10.1289 27.6562 9.8125 27.6562 9.34375C27.6562 8.875 27.3164 8.53516 26.8125 8.53516H19.9922C17.8242 8.53516 16.3594 9.89453 16.3594 11.8867Z" fill="black" fill-opacity="0.85"/>
</svg>
