<svg width="28" height="28" viewBox="0 0 28 28" fill="none" xmlns="http://www.w3.org/2000/svg">
<path d="M10.4844 25.1797H17.5977C19.0859 25.1797 19.7891 24.6992 20.5625 23.8672L25.1094 18.8516C25.8711 18.0078 26.082 17.4336 26.082 16.2734V10.918C26.082 9.74609 25.8711 9.18359 25.1094 8.33984L20.5625 3.32422C19.7891 2.49219 19.0859 2 17.5977 2H10.4844C8.99609 2 8.28125 2.49219 7.51953 3.32422L2.97266 8.33984C2.19922 9.18359 2 9.74609 2 10.918V16.2734C2 17.4336 2.19922 18.0078 2.97266 18.8516L7.51953 23.8672C8.28125 24.6992 8.99609 25.1797 10.4844 25.1797Z" fill="black" fill-opacity="0.85"/>
</svg>
