<svg width="28" height="28" viewBox="0 0 28 28" fill="none" xmlns="http://www.w3.org/2000/svg">
<path d="M6.67969 24.5977H20.8945C23.3555 24.5977 24.5742 23.3789 24.5742 20.9648V6.65625C24.5742 4.24219 23.3555 3.02344 20.8945 3.02344H6.67969C4.23047 3.02344 3 4.23047 3 6.65625V20.9648C3 23.3906 4.23047 24.5977 6.67969 24.5977ZM6.70312 22.7109C5.53125 22.7109 4.88672 22.0898 4.88672 20.8711V6.75C4.88672 5.53125 5.53125 4.91016 6.70312 4.91016H20.8711C22.0312 4.91016 22.6875 5.53125 22.6875 6.75V20.8711C22.6875 22.0898 22.0312 22.7109 20.8711 22.7109H6.70312Z" fill="black" fill-opacity="0.85"/>
<path d="M10.1484 18.7734C12.4805 18.7734 13.1836 16.1484 13.1836 13.793C13.1836 11.4375 12.4805 8.8125 10.1484 8.8125C7.81641 8.8125 7.11328 11.4375 7.11328 13.793C7.11328 16.1484 7.81641 18.7734 10.1484 18.7734ZM10.1484 17.3789C9.1875 17.3789 8.82422 15.8203 8.82422 13.793C8.82422 11.7539 9.1875 10.1953 10.1484 10.1953C11.1094 10.1953 11.4727 11.7539 11.4727 13.793C11.4727 15.8203 11.1094 17.3789 10.1484 17.3789ZM16.8047 15.2578C17.7656 15.2578 18.4805 14.625 18.75 13.6172H18.7969C18.7969 13.6641 18.7969 13.7109 18.7969 13.7461C18.7969 15.0469 18.6328 17.3906 17.3203 17.3906C16.793 17.3906 16.4414 17.0273 16.2305 16.5234C16.0547 16.1367 15.832 15.9844 15.4805 15.9844C14.9883 15.9844 14.7773 16.3125 14.7773 16.6992C14.7773 16.8398 14.8125 16.9805 14.8477 17.1211C15.0938 18.1406 16.1133 18.7617 17.2852 18.7617C19.6875 18.7617 20.3906 16.1016 20.3906 13.6992C20.3906 11.4844 19.6875 8.83594 17.3086 8.83594C15.5273 8.83594 14.4961 10.3359 14.4961 12.1758C14.4961 13.7578 15.2578 15.2578 16.8047 15.2578ZM17.332 13.9688C16.4648 13.9688 16.1133 12.9727 16.1133 12.1055C16.1133 11.2266 16.5117 10.1953 17.332 10.1953C18.2109 10.1953 18.5742 11.2266 18.5742 12.1055C18.5742 13.0078 18.1758 13.9688 17.332 13.9688Z" fill="black" fill-opacity="0.85"/>
</svg>
