<svg width="28" height="28" viewBox="0 0 28 28" fill="none" xmlns="http://www.w3.org/2000/svg">
<path d="M14.1953 25.5246C14.5 25.5246 14.793 25.4894 15.1094 25.466L15.7773 26.755C15.918 27.0128 16.1641 27.1535 16.4922 27.1066C16.7852 27.048 16.9844 26.8371 17.0312 26.5207L17.2305 25.1027C17.8164 24.9503 18.3906 24.7277 18.9414 24.4816L19.9961 25.4308C20.2188 25.6417 20.5 25.6886 20.793 25.5246C21.0508 25.3839 21.1562 25.1027 21.0977 24.798L20.8047 23.3917C21.2969 23.0519 21.7773 22.6652 22.2109 22.2316L23.5117 22.7824C23.8047 22.9113 24.0859 22.841 24.3086 22.5714C24.5078 22.3605 24.5195 22.0558 24.3555 21.798L23.5938 20.5792C23.9453 20.0871 24.2266 19.5597 24.4961 18.9972L25.9375 19.0675C26.2422 19.0792 26.4883 18.9152 26.5938 18.6222C26.6875 18.3292 26.6055 18.048 26.3594 17.8605L25.2344 16.9699C25.3867 16.4074 25.5039 15.798 25.5625 15.1652L26.9102 14.7433C27.2148 14.6378 27.3906 14.4152 27.3906 14.0988C27.3906 13.7941 27.2148 13.5597 26.9102 13.466L25.5625 13.0324C25.5039 12.3996 25.3867 11.8136 25.2344 11.2394L26.3594 10.3371C26.5938 10.1613 26.6875 9.89174 26.5938 9.59878C26.4883 9.30581 26.2422 9.14174 25.9375 9.15346L24.4961 9.21206C24.2266 8.64956 23.9453 8.12221 23.5938 7.63003L24.3555 6.41128C24.5195 6.16518 24.4961 5.86049 24.3086 5.64956C24.0859 5.38003 23.8047 5.32143 23.5117 5.43862L22.2109 5.96596C21.7773 5.55581 21.2969 5.15737 20.8047 4.81753L21.0977 3.42299C21.168 3.10659 21.0508 2.82534 20.793 2.68471C20.5 2.53237 20.2188 2.55581 19.9961 2.79018L18.9414 3.71596C18.3906 3.46987 17.8164 3.27065 17.2305 3.10659L17.0312 1.68862C16.9844 1.38393 16.7734 1.16127 16.4805 1.1144C16.1641 1.06753 15.9062 1.19643 15.7773 1.45424L15.1094 2.74331C14.793 2.71987 14.5 2.69643 14.1953 2.69643C13.8789 2.69643 13.5977 2.71987 13.2812 2.74331L12.6016 1.45424C12.4727 1.19643 12.2148 1.06753 11.8984 1.1144C11.6055 1.16127 11.3945 1.38393 11.3594 1.68862L11.1484 3.09487C10.5625 3.27065 10 3.46987 9.4375 3.71596L8.38281 2.79018C8.16016 2.55581 7.87891 2.53237 7.58594 2.68471C7.32812 2.82534 7.21094 3.10659 7.28125 3.42299L7.57422 4.81753C7.09375 5.15737 6.60156 5.55581 6.16797 5.96596L4.86719 5.43862C4.57422 5.32143 4.30469 5.38003 4.08203 5.64956C3.88281 5.86049 3.87109 6.16518 4.02344 6.39956L4.78516 7.63003C4.44531 8.12221 4.15234 8.64956 3.88281 9.21206L2.45312 9.15346C2.14844 9.14174 1.89062 9.30581 1.78516 9.59878C1.69141 9.89174 1.78516 10.1496 2.01953 10.3371L3.14453 11.2394C2.99219 11.8136 2.875 12.3996 2.83984 13.0324L1.46875 13.466C1.16406 13.5597 1 13.7824 1 14.0988C1 14.4152 1.16406 14.6378 1.46875 14.7433L2.83984 15.1769C2.875 15.798 2.99219 16.4074 3.14453 16.9699L2.01953 17.8605C1.78516 18.048 1.70312 18.3292 1.78516 18.6222C1.89062 18.9152 2.14844 19.0792 2.45312 19.0675L3.88281 18.9972C4.15234 19.5597 4.44531 20.0871 4.78516 20.5792L4.02344 21.798C3.85938 22.0558 3.88281 22.3605 4.08203 22.5714C4.30469 22.841 4.57422 22.9113 4.86719 22.7824L6.16797 22.2316C6.60156 22.6652 7.09375 23.0519 7.57422 23.3917L7.28125 24.798C7.22266 25.1027 7.32812 25.3839 7.58594 25.5246C7.87891 25.6886 8.16016 25.6417 8.38281 25.4308L9.4375 24.4816C10 24.7277 10.5625 24.9503 11.1484 25.1027L11.3594 26.5207C11.3945 26.8371 11.6055 27.048 11.8984 27.1066C12.2148 27.1535 12.4609 27.0128 12.6016 26.755L13.2812 25.466C13.5859 25.4894 13.8789 25.5246 14.1953 25.5246ZM14.1953 23.7433C8.82812 23.7433 4.67969 19.466 4.67969 14.1105C4.67969 8.75503 8.82812 4.47768 14.1953 4.47768C19.5625 4.47768 23.7109 8.75503 23.7109 14.1105C23.7109 19.466 19.5625 23.7433 14.1953 23.7433Z" fill="black" fill-opacity="0.85"/>
<path d="M14.1953 19.7941C16.5977 19.7941 18.2266 18.2355 18.2266 15.9035C18.2266 14.7433 17.7344 13.7121 17.3828 12.9152C16.75 11.5441 15.707 9.82143 14.793 8.43862C14.6172 8.16909 14.4297 8.0519 14.1953 8.0519C13.9609 8.0519 13.7734 8.16909 13.5977 8.43862C12.6836 9.82143 11.6523 11.5441 11.0078 12.9152C10.6563 13.7121 10.1641 14.7433 10.1641 15.9035C10.1641 18.2355 11.793 19.7941 14.1953 19.7941Z" fill="black" fill-opacity="0.85"/>
</svg>
