<svg width="28" height="28" viewBox="0 0 28 28" fill="none" xmlns="http://www.w3.org/2000/svg">
<g clip-path="url(#clip0_2124_78066)">
<path d="M6.99609 21.5742C7.32422 21.5742 7.54688 21.4688 7.78125 21.3516L20.9531 15.4336C21.6328 15.1172 22.1484 14.6016 22.1484 13.8516C22.1484 13.1133 21.6328 12.5742 20.9531 12.2695L7.78125 6.21094C7.55859 6.09375 7.34766 6.01172 7.04297 6.01172C6.42187 6.01172 6 6.43359 6 7.05469C6 7.59375 6.28125 7.89844 6.77344 8.13281L19.3828 13.6992V13.8281L6.77344 19.4414C6.28125 19.6758 6 19.9805 6 20.5195C6 21.1641 6.41016 21.5742 6.99609 21.5742Z" fill="black" fill-opacity="0.85"/>
</g>
<defs>
<clipPath id="clip0_2124_78066">
<rect width="16.1484" height="15.5742" fill="white" transform="translate(6 6)"/>
</clipPath>
</defs>
</svg>
