<svg width="28" height="31" viewBox="0 0 28 31" fill="none" xmlns="http://www.w3.org/2000/svg">
<path d="M18.1329 28.9922C18.3439 28.9922 18.4962 28.793 18.4845 28.5703L18.4024 27.457L19.3399 28.0898C19.504 28.207 19.7618 28.1602 19.879 27.9844C19.9962 27.8086 19.9259 27.5391 19.7032 27.4336L18.6954 26.9414L19.7149 26.4375C19.9259 26.332 19.9845 26.0742 19.8907 25.8984C19.7853 25.7109 19.504 25.6758 19.3399 25.793L18.4024 26.4375L18.4962 25.3125C18.5196 25.0781 18.3439 24.8906 18.1329 24.8906C17.8868 24.8906 17.7345 25.0781 17.7462 25.3125L17.8282 26.4375L16.879 25.793C16.7149 25.6758 16.4689 25.6992 16.3517 25.8984C16.2462 26.0742 16.2931 26.332 16.5157 26.4375L17.5235 26.9414L16.5157 27.4336C16.2931 27.5391 16.2345 27.7969 16.3399 27.9844C16.4454 28.1719 16.7149 28.207 16.879 28.0898L17.8282 27.4688L17.7579 28.5703C17.7462 28.793 17.8868 28.9922 18.1329 28.9922Z" fill="black" fill-opacity="0.85"/>
<path d="M11.4415 30.7383C11.6642 30.7383 11.8048 30.5391 11.7931 30.3281L11.7228 29.2148L12.6485 29.8359C12.8243 29.9531 13.0821 29.9062 13.1993 29.7305C13.3165 29.5547 13.2462 29.2852 13.0235 29.1797L12.0157 28.6992L13.0353 28.1953C13.2462 28.0898 13.3048 27.832 13.211 27.6445C13.1056 27.457 12.8243 27.4219 12.6485 27.5391L11.7228 28.1953L11.8048 27.0586C11.8282 26.8359 11.6642 26.6484 11.4415 26.6484C11.1954 26.6484 11.0548 26.8359 11.0665 27.0586L11.1368 28.1953L10.1993 27.5391C10.0235 27.4219 9.77741 27.4453 9.66023 27.6445C9.55476 27.832 9.60163 28.0781 9.82429 28.1953L10.8438 28.6992L9.82429 29.1914C9.60163 29.2969 9.54304 29.543 9.64851 29.7305C9.75398 29.9297 10.0235 29.9648 10.1993 29.8477L11.1368 29.2148L11.0782 30.3281C11.0665 30.5391 11.1954 30.7383 11.4415 30.7383Z" fill="black" fill-opacity="0.85"/>
<path d="M5.85163 28.9453C6.06257 28.9453 6.21491 28.7461 6.20319 28.5352L6.12116 27.4102L7.05866 28.043C7.22273 28.1602 7.49226 28.1133 7.59773 27.9375C7.71491 27.7617 7.6446 27.4922 7.42195 27.3867L6.41413 26.8945L7.43366 26.3906C7.6446 26.2852 7.70319 26.0391 7.60945 25.8516C7.51569 25.6641 7.22273 25.6289 7.05866 25.7461L6.12116 26.3906L6.21491 25.2656C6.23835 25.043 6.06257 24.8555 5.85163 24.8555C5.60554 24.8555 5.45319 25.043 5.46491 25.2656L5.54695 26.3906L4.59773 25.7461C4.43366 25.6289 4.18757 25.6523 4.07038 25.8516C3.96491 26.0391 4.01179 26.2852 4.23445 26.3906L5.24226 26.8945L4.23445 27.3867C4.01179 27.4922 3.95319 27.75 4.05866 27.9375C4.16413 28.1367 4.43366 28.1719 4.59773 28.0547L5.54695 27.4219L5.47663 28.5352C5.46491 28.7461 5.60554 28.9453 5.85163 28.9453Z" fill="black" fill-opacity="0.85"/>
<path d="M20.3005 23.9648L21.0856 22.582C21.2966 22.2305 21.1911 21.8086 20.8395 21.5977C20.488 21.3984 20.0778 21.5273 19.8669 21.8672L19.07 23.2852C18.8825 23.6133 18.9645 24.0234 19.3278 24.2344C19.6794 24.4336 20.1013 24.3047 20.3005 23.9648Z" fill="black" fill-opacity="0.85"/>
<path d="M13.1287 25.7109L14.9568 22.5469C15.156 22.1836 15.0506 21.7734 14.7107 21.5742C14.3475 21.3633 13.9373 21.4805 13.7381 21.8438L11.8982 25.0312C11.699 25.3711 11.8045 25.7812 12.1678 25.9805C12.5076 26.1797 12.9412 26.0625 13.1287 25.7109Z" fill="black" fill-opacity="0.85"/>
<path d="M8.01921 23.918L8.80437 22.5352C9.0153 22.1836 8.90984 21.7617 8.55827 21.5508C8.20671 21.3516 7.79656 21.4805 7.58562 21.8203L6.78874 23.2383C6.60124 23.5664 6.68327 23.9766 7.04656 24.1875C7.39812 24.3867 7.81999 24.2695 8.01921 23.918Z" fill="black" fill-opacity="0.85"/>
<path d="M6.50781 19.6992H21.0508C24.8945 19.6992 27.7539 16.7812 27.7539 13.1719C27.7539 9.43359 24.707 6.70312 20.7344 6.70312C19.2695 3.80859 16.5508 1.94531 13.1641 1.94531C8.75781 1.94531 5.125 5.40234 4.73828 9.75C2.61719 10.3711 1 12.2109 1 14.6836C1 17.4609 3.01562 19.6992 6.50781 19.6992ZM6.48438 17.8242C4.08203 17.8242 2.875 16.4766 2.875 14.7422C2.875 13.3359 3.69531 12.0703 5.6875 11.543C6.33203 11.3672 6.56641 11.0625 6.625 10.4062C6.89453 6.57422 9.76562 3.82031 13.1641 3.82031C15.8008 3.82031 17.875 5.27344 19.1406 7.86328C19.4102 8.4375 19.7617 8.63672 20.4531 8.63672C23.9219 8.63672 25.8789 10.7227 25.8789 13.2188C25.8789 15.7734 23.8398 17.8242 21.168 17.8242H6.48438Z" fill="black" fill-opacity="0.85"/>
</svg>
