<svg width="28" height="28" viewBox="0 0 28 28" fill="none" xmlns="http://www.w3.org/2000/svg">
<g clip-path="url(#clip0_2124_88594)">
<path d="M2.07887 9.49913C1.8445 10.1671 2.1609 10.7179 2.65309 10.8936C3.02809 11.0343 3.39137 10.8585 3.69606 10.6124C4.76247 9.82726 5.782 9.47569 7.00075 9.92101C8.2195 10.3546 8.71169 11.2569 8.92262 12.5108C8.98122 12.921 9.12184 13.2491 9.4734 13.378C9.8484 13.5186 10.1648 13.3546 10.4812 13.085C11.1843 12.4874 12.1336 12.1827 13.0359 12.2296L7.8445 26.4561C7.657 26.96 7.92653 27.5343 8.44215 27.7218C8.93434 27.8975 9.52028 27.628 9.70778 27.1241L14.8875 12.8975C15.6023 13.4483 16.1179 14.2921 16.2703 15.2061C16.3523 15.5929 16.4812 15.9327 16.8445 16.0616C17.2078 16.1905 17.5242 16.0147 17.8406 15.7569C18.8132 14.9366 19.7507 14.5616 20.9695 14.9952C22.1882 15.4522 22.7507 16.3663 23.0554 17.6788C23.1492 18.0538 23.3015 18.4171 23.6765 18.546C24.1687 18.7218 24.7898 18.5108 25.0125 17.8429C26.6062 13.4718 25.5164 6.18272 18.4617 3.06554L19.0711 1.41319C19.2703 0.827255 19.0476 0.299912 18.4851 0.0889741C17.9461 -0.110245 17.4187 0.159287 17.2078 0.733505L16.6101 2.39757C9.20387 0.241318 3.67262 5.1046 2.07887 9.49913ZM4.82106 8.13976C6.81325 5.08116 10.5632 3.14757 14.7586 3.86241C12.8718 5.1046 11.0554 7.28429 9.87184 10.0968C9.40309 9.19444 8.64137 8.57335 7.63356 8.22179C6.68434 7.88194 5.75856 7.84679 4.82106 8.13976ZM11.2898 10.6827C12.6257 7.50694 14.8757 5.22179 16.9148 4.40147C17.9695 6.34679 18.2273 9.53429 17.2078 12.8507C16.6453 11.878 15.6961 11.0929 14.6297 10.6944C13.5632 10.3077 12.3328 10.3077 11.2898 10.6827ZM18.6609 13.296C19.575 10.378 19.5867 7.55382 18.9422 5.38585C22.5984 7.5421 24.2273 11.4327 23.782 15.0421C23.2547 14.2218 22.5164 13.6475 21.5906 13.296C20.5828 12.9327 19.5984 12.9093 18.6609 13.296Z" fill="black" fill-opacity="0.85"/>
</g>
<defs>
<clipPath id="clip0_2124_88594">
<rect width="23.6538" height="27.7755" fill="white" transform="translate(2)"/>
</clipPath>
</defs>
</svg>
