<svg width="28" height="28" viewBox="0 0 28 28" fill="none" xmlns="http://www.w3.org/2000/svg">
<path d="M2.64062 21.0938C2.64062 21.8203 2.85156 22.4062 3.23828 22.8281V25.793C3.23828 26.6602 3.90625 27.3398 4.78516 27.3398H6.16797C7.04688 27.3398 7.72656 26.6602 7.72656 25.793V23.9062C9.66016 24.0352 11.7812 24.1055 14.043 24.1055C16.3047 24.1055 18.4375 24.0352 20.3711 23.9062V25.793C20.3711 26.6602 21.0391 27.3398 21.918 27.3398H23.3008C24.1797 27.3398 24.8594 26.6602 24.8594 25.793V22.8281C25.2461 22.4062 25.457 21.8203 25.457 21.0938V3.01172C25.457 1.5 24.5664 0.632812 22.9727 0.445312C20.5234 0.152344 17.2656 0 14.043 0C10.8203 0 7.55078 0.164062 5.11328 0.445312C3.51953 0.632812 2.64062 1.5 2.64062 3.01172V21.0938ZM14.043 22.5703C10.5977 22.5703 7.67969 22.418 5.52344 22.1602C4.52734 22.043 4.17578 21.5273 4.17578 20.625V3.48047C4.17578 2.58984 4.64453 2.05078 5.52344 1.94531C7.63281 1.6875 10.75 1.53516 14.043 1.53516C17.3008 1.53516 20.418 1.6875 22.5625 1.94531C23.5586 2.0625 23.9219 2.57812 23.9219 3.48047V20.625C23.9219 21.5273 23.5586 22.043 22.5625 22.1602C20.3711 22.418 17.4531 22.5703 14.043 22.5703ZM6.46094 15.9961C11.0312 16.7109 17.0312 16.7227 21.6367 15.9961C22.375 15.8672 22.7266 15.457 22.7266 14.6719V4.59375C22.7266 3.71484 22.3281 3.23438 21.4844 3.15234C16.8555 2.68359 11.2656 2.69531 6.625 3.15234C5.79297 3.23438 5.37109 3.71484 5.37109 4.59375V14.6719C5.37109 15.457 5.73438 15.8672 6.46094 15.9961ZM2.64062 11.2031V4.33594H2.11328C1.45703 4.33594 1 4.74609 1 5.36719V10.1836C1 10.8047 1.45703 11.2031 2.11328 11.2031H2.64062ZM25.457 11.2031H25.9727C26.6289 11.2031 27.0859 10.8047 27.0859 10.1836V5.36719C27.0859 4.74609 26.6289 4.33594 25.9727 4.33594H25.457V11.2031ZM7.35156 20.7539C8.16016 20.7539 8.76953 20.1328 8.76953 19.3359C8.76953 18.5273 8.16016 17.918 7.35156 17.918C6.54297 17.918 5.93359 18.5273 5.93359 19.3359C5.93359 20.1328 6.54297 20.7539 7.35156 20.7539ZM11.2539 20.332H16.8203C17.418 20.332 17.8398 19.9102 17.8398 19.3125C17.8398 18.7031 17.418 18.293 16.8203 18.293H11.2539C10.6445 18.293 10.2227 18.7031 10.2227 19.3125C10.2227 19.9102 10.6445 20.332 11.2539 20.332ZM20.7344 20.7539C21.543 20.7539 22.1641 20.1328 22.1641 19.3359C22.1641 18.5273 21.543 17.918 20.7344 17.918C19.9375 17.918 19.3281 18.5273 19.3281 19.3359C19.3281 20.1328 19.9375 20.7539 20.7344 20.7539Z" fill="black" fill-opacity="0.85"/>
</svg>
