<svg width="28" height="28" viewBox="0 0 28 28" fill="none" xmlns="http://www.w3.org/2000/svg">
<path d="M13.9531 25.9062C20.4922 25.9062 25.9062 20.4805 25.9062 13.9531C25.9062 7.41406 20.4805 2 13.9414 2C7.41406 2 2 7.41406 2 13.9531C2 20.4805 7.42578 25.9062 13.9531 25.9062Z" fill="black" fill-opacity="0.85"/>
<path d="M10.8711 18.9922C10.4961 18.9922 10.0273 18.7695 10.0273 18.125V16.9297H7.33203C6.74609 16.9297 6.33594 16.5312 6.33594 15.9453C6.33594 15.5703 6.40625 15.2539 6.60547 14.7852L8.75 10.0977C9.10156 9.34766 9.51172 8.91406 10.3555 8.91406C11.1523 8.91406 11.7031 9.38281 11.7031 10.2266V15.5234H12.125C12.6172 15.5234 12.8164 15.8281 12.8164 16.2148C12.8164 16.625 12.5938 16.9297 12.125 16.9297H11.7031V18.125C11.7031 18.7109 11.3281 18.9922 10.8711 18.9922ZM10.0625 15.5586V10.4375H10.0156L7.82422 15.4766V15.5586H10.0625ZM14.7383 19.0039C14.2344 19.0039 13.9062 18.6641 13.9062 18.1719C13.9062 18.0195 13.9531 17.7617 13.9883 17.6211L16.0156 10.0156C16.2031 9.30078 16.6367 8.92578 17.3516 8.92578C18.043 8.92578 18.5352 9.25391 18.7227 10.0156L20.75 17.6094C20.7969 17.7969 20.832 17.9492 20.832 18.1719C20.832 18.6406 20.4922 19.0039 20.0234 19.0039C19.6016 19.0039 19.2383 18.8398 19.1094 18.2188L18.7109 16.5547H16.0039L15.6172 18.207C15.5234 18.7695 15.207 19.0039 14.7383 19.0039ZM16.3203 15.2188H18.3945L17.3867 10.9414H17.293L16.3203 15.2188Z" fill="white"/>
</svg>
