<svg width="28" height="29" viewBox="0 0 28 29" fill="none" xmlns="http://www.w3.org/2000/svg">
<g clip-path="url(#clip0_2124_24867)">
<path d="M14.3788 1.94531C16.9101 1.94531 19.1952 2.82422 20.9413 4.39453C21.4335 4.82812 21.9726 4.93359 22.3944 4.57031C22.8397 4.18359 22.8397 3.53906 22.3358 3.08203C20.2265 1.13672 17.414 0.0351562 14.3788 0.0351562C11.3436 0.0351562 8.54283 1.13672 6.42174 3.08203C5.92955 3.53906 5.92955 4.18359 6.36314 4.57031C6.79674 4.93359 7.3358 4.82812 7.81627 4.39453C9.57408 2.82422 11.8592 1.94531 14.3788 1.94531Z" fill="black" fill-opacity="0.85"/>
<path d="M14.4023 6.64453C15.6211 6.64453 16.7578 6.99609 17.625 7.69922C18.1289 8.0625 18.6562 8.22656 19.0781 7.85156C19.5234 7.46484 19.5352 6.76172 18.9961 6.33984C17.7305 5.32031 16.125 4.73438 14.4023 4.73438C12.6797 4.73438 11.0742 5.32031 9.80857 6.33984C9.26951 6.76172 9.28123 7.46484 9.72654 7.85156C10.1484 8.22656 10.664 8.0625 11.1797 7.69922C12.082 7.01953 13.1836 6.64453 14.4023 6.64453Z" fill="black" fill-opacity="0.85"/>
<path d="M14.4258 25.4414C16.8164 25.4414 19.8398 25.3594 21.9844 25.2305V26.8828C21.9844 27.5859 22.5352 28.1367 23.25 28.1367H24.5742C25.2891 28.1367 25.8516 27.5859 25.8516 26.8828V21.293C25.8516 19.6758 25.5234 18.7617 24.6328 17.6133L23.8242 16.582C23.4727 14.8477 22.8398 13.043 22.5117 12.3398C21.9844 11.25 21 10.5938 19.7227 10.4414C19.0898 10.3594 16.9102 10.3008 14.4258 10.3008C11.9414 10.3008 9.76172 10.3594 9.12891 10.4414C7.85156 10.5938 6.85547 11.25 6.33984 12.3398C6.01172 13.043 5.37891 14.8477 5.02734 16.582L4.21875 17.6133C3.32812 18.7617 3 19.6758 3 21.293V26.8828C3 27.5859 3.5625 28.1367 4.27734 28.1367H5.60156C6.31641 28.1367 6.86719 27.5859 6.86719 26.8828V25.2305C9.01172 25.3594 12.0352 25.4414 14.4258 25.4414ZM7.04297 15.7852C7.26562 14.7305 7.73438 13.3594 8.05078 12.8086C8.30859 12.3516 8.58984 12.1641 9.10547 12.082C9.83203 11.9883 11.4609 11.9297 14.4258 11.9297C17.3906 11.9297 19.0195 11.9648 19.7461 12.082C20.2617 12.1641 20.5312 12.3516 20.8008 12.8086C21.1289 13.3477 21.5508 14.7305 21.8086 15.7852C21.9023 16.1367 21.75 16.2773 21.3867 16.2422C19.793 16.1367 17.8945 16.043 14.4258 16.043C10.957 16.043 9.05859 16.1367 7.46484 16.2422C7.10156 16.2773 6.96094 16.1367 7.04297 15.7852ZM7.51172 22.8633C6.64453 22.8633 5.96484 22.1836 5.96484 21.3164C5.96484 20.4375 6.64453 19.7812 7.51172 19.7812C8.39062 19.7812 9.04688 20.4375 9.04688 21.3164C9.04688 22.1836 8.39062 22.8633 7.51172 22.8633ZM11.8945 22.4766C11.2383 22.4766 10.7812 22.0195 10.7812 21.3633C10.7812 20.707 11.2383 20.2617 11.8945 20.2617H16.957C17.6133 20.2617 18.0703 20.707 18.0703 21.3633C18.0703 22.0195 17.6133 22.4766 16.957 22.4766H11.8945ZM21.3398 22.8633C20.4609 22.8633 19.8047 22.1836 19.8047 21.3164C19.8047 20.4375 20.4609 19.7812 21.3398 19.7812C22.207 19.7812 22.875 20.4375 22.875 21.3164C22.875 22.1836 22.207 22.8633 21.3398 22.8633Z" fill="black" fill-opacity="0.85"/>
</g>
<defs>
<clipPath id="clip0_2124_24867">
<rect width="22.8516" height="28.1367" fill="white" transform="translate(3)"/>
</clipPath>
</defs>
</svg>
