<svg width="28" height="28" viewBox="0 0 28 28" fill="none" xmlns="http://www.w3.org/2000/svg">
<path d="M13.9531 25.9062C20.4922 25.9062 25.9062 20.4805 25.9062 13.9531C25.9062 7.41406 20.4805 2 13.9414 2C7.41406 2 2 7.41406 2 13.9531C2 20.4805 7.42578 25.9062 13.9531 25.9062ZM13.9531 23.9141C8.42188 23.9141 4.00391 19.4844 4.00391 13.9531C4.00391 8.42188 8.41016 3.99219 13.9414 3.99219C19.4727 3.99219 23.9141 8.42188 23.9141 13.9531C23.9141 19.4844 19.4844 23.9141 13.9531 23.9141Z" fill="black" fill-opacity="0.85"/>
<path d="M12.3711 19.5195C12.7695 19.5195 13.0391 19.332 13.2852 18.875L17.6562 10.6836C17.8789 10.2617 17.9375 10.0156 17.9375 9.76953C17.9375 9.125 17.4219 8.64453 16.6602 8.64453H10.9297C10.5195 8.64453 10.2383 8.9375 10.2383 9.35938C10.2383 9.78125 10.5313 10.0859 10.9297 10.0859H15.9102V10.1797L11.5977 18.0781C11.4805 18.2773 11.4336 18.4414 11.4336 18.6758C11.4336 19.168 11.8438 19.5195 12.3711 19.5195Z" fill="black" fill-opacity="0.85"/>
</svg>
