<svg width="29" height="29" viewBox="0 0 29 29" fill="none" xmlns="http://www.w3.org/2000/svg">
<g clip-path="url(#clip0_2124_46020)">
<path d="M12.9865 26.5327C17.0997 26.5327 19.7247 24.189 21.5646 19.9116L24.0138 14.1343C24.5763 12.8335 23.9904 11.6968 23.0529 11.2046C22.1388 10.7358 20.8966 10.8999 20.1232 12.1538L19.0099 14.146C18.9747 14.1929 18.9513 14.228 18.9044 14.228C18.8458 14.228 18.799 14.1812 18.8224 14.1108L20.3458 5.26319C20.6037 3.81006 19.8654 2.79053 18.588 2.55616C17.2052 2.32178 16.1271 2.96631 15.8341 4.48975L15.4826 6.54053H15.6232V3.38819C15.6232 2.00537 14.6622 1.021 13.3263 1.021C11.9318 1.021 11.006 2.04053 11.006 3.47022V4.97022L11.299 4.91162L11.1583 3.97412C10.8185 2.68506 9.74035 2.13428 8.61535 2.3335C7.25598 2.56788 6.56457 3.70459 6.72864 5.05225L6.95129 6.97412L7.38489 6.88038C6.98645 5.60303 5.99035 5.19288 4.90051 5.39209C3.49426 5.63819 2.84973 6.646 3.06067 8.08741L4.61926 18.5405C5.35754 23.5093 8.02942 26.5327 12.9865 26.5327ZM12.9279 24.9155C8.77942 24.9155 6.8341 22.5483 6.17785 18.353L4.49035 7.82959C4.42004 7.34912 4.68957 6.96241 5.1466 6.88038C5.56848 6.81006 5.9552 7.09131 6.06067 7.52491L7.75989 13.8882C7.87707 14.3335 8.22864 14.5093 8.59192 14.439C8.99035 14.3804 9.25989 14.0288 9.21301 13.6304L8.2052 4.80616C8.1466 4.29053 8.38098 3.91553 8.86145 3.8335C9.34192 3.75147 9.72864 4.05616 9.79895 4.52491L11.0177 13.3726C11.0646 13.7476 11.4044 13.9937 11.8146 13.9351C12.3185 13.853 12.4943 13.5483 12.4943 13.1265V3.38819C12.4943 2.896 12.8341 2.54444 13.3263 2.54444C13.7951 2.54444 14.1349 2.896 14.1349 3.38819V13.2319C14.1349 13.6304 14.4747 13.9351 14.8615 13.9351C15.2599 13.9351 15.5412 13.6772 15.6115 13.2788L17.2755 4.74756C17.381 4.18506 17.7794 3.95069 18.2247 4.03272C18.6818 4.10303 18.9513 4.48975 18.8693 5.00538L17.2052 15.9741C17.0529 16.9702 17.6037 17.3101 18.0958 17.3101C18.5177 17.3101 18.8107 17.0991 19.1388 16.5366L21.2247 12.8335C21.4708 12.3648 21.9162 12.2358 22.2794 12.3882C22.6779 12.5288 22.8888 12.9507 22.6662 13.478L20.1349 19.4077C18.4591 23.2866 16.1974 24.9155 12.9279 24.9155Z" fill="black" fill-opacity="0.85"/>
</g>
<defs>
<clipPath id="clip0_2124_46020">
<rect width="21.2125" height="26.6836" fill="white" transform="translate(3.02148 1.021)"/>
</clipPath>
</defs>
</svg>
