<svg width="29" height="29" viewBox="0 0 29 29" fill="none" xmlns="http://www.w3.org/2000/svg">
<g clip-path="url(#clip0_2124_45850)">
<path d="M13.9687 25.9245C20.5078 25.9245 25.9218 20.4988 25.9218 13.9714C25.9218 7.43237 20.4961 2.01831 13.957 2.01831C7.42968 2.01831 2.01562 7.43237 2.01562 13.9714C2.01562 20.4988 7.44141 25.9245 13.9687 25.9245Z" fill="black" fill-opacity="0.85"/>
<path d="M12.9603 22.0808C12.4798 22.0808 12.1986 21.7878 12.1986 21.2839V11.9207C12.1986 11.616 12.0814 11.405 11.8236 11.2175L10.0658 9.90504C9.67911 9.62379 9.50333 9.3191 9.47989 8.86207L9.31583 6.40113C9.28067 5.9441 9.52677 5.66285 9.93693 5.6277C10.3588 5.59254 10.6283 5.85035 10.6518 6.30738L10.8275 8.79176L11.9291 9.5652C12.3158 9.83473 12.5736 9.9402 13.1127 9.9402H14.1088C16.722 9.9402 17.9291 10.5261 17.9291 12.6824V16.0808C17.9291 16.5378 17.6712 16.8191 17.2611 16.8191C16.8392 16.8191 16.5697 16.5378 16.5697 16.0808V12.4949C16.5697 12.2605 16.4291 12.0964 16.2298 12.0964C16.0189 12.0964 15.89 12.2488 15.89 12.4949V21.2839C15.89 21.7995 15.6322 22.0808 15.1517 22.0808C14.6712 22.0808 14.3783 21.7878 14.3783 21.2839V16.0105C14.3783 15.7878 14.2494 15.6238 14.0384 15.6238C13.8275 15.6238 13.6986 15.7761 13.6986 16.0105V21.2839C13.6986 21.7995 13.4291 22.0808 12.9603 22.0808ZM14.1088 9.17848C13.2767 9.17848 12.5736 8.48707 12.5736 7.65504C12.5736 6.79957 13.2533 6.10816 14.1088 6.10816C14.9642 6.10816 15.6556 6.79957 15.6556 7.65504C15.6556 8.47535 14.9408 9.17848 14.1088 9.17848Z" fill="white"/>
</g>
<defs>
<clipPath id="clip0_2124_45850">
<rect width="23.9062" height="23.918" fill="white" transform="translate(2.01562 2.01831)"/>
</clipPath>
</defs>
</svg>
