<svg width="28" height="28" viewBox="0 0 28 28" fill="none" xmlns="http://www.w3.org/2000/svg">
<path d="M21.2344 13.1797C23.6367 13.1797 25.3125 11.5391 25.3125 9.17188C25.3125 6.81641 23.6367 5.16406 21.2344 5.16406C18.9023 5.16406 17.2852 6.81641 17.2852 9.17188C17.2852 11.5391 18.9141 13.1797 21.2344 13.1797ZM21.2344 11.6211C19.9922 11.6211 19.125 10.6133 19.125 9.17188C19.125 7.73047 19.9922 6.73438 21.2344 6.73438C22.5586 6.73438 23.4609 7.73047 23.4609 9.17188C23.4609 10.6133 22.5469 11.6211 21.2344 11.6211ZM3.99609 22.1445C4.62891 22.1445 5.00391 21.7461 5.00391 21.1133V8.86719H4.95703L13.3945 21.3594C13.8047 21.9453 14.1211 22.1445 14.6367 22.1445C15.3164 22.1445 15.7148 21.7227 15.7148 20.9961V6.27734C15.7148 5.63281 15.3398 5.22266 14.707 5.22266C14.0977 5.22266 13.7109 5.63281 13.7109 6.27734V18.5117H13.7578L5.32031 6.00781C4.91016 5.41016 4.61719 5.22266 4.07812 5.22266C3.42188 5.22266 3 5.67969 3 6.37109V21.1133C3 21.7461 3.39844 22.1445 3.99609 22.1445ZM18.4336 16.1094H24.1758C24.7383 16.1094 25.1719 15.7578 25.1719 15.1836C25.1719 14.6094 24.7383 14.2344 24.1758 14.2344H18.4336C17.8711 14.2344 17.4609 14.6094 17.4609 15.1836C17.4609 15.7578 17.8711 16.1094 18.4336 16.1094Z" fill="black" fill-opacity="0.85"/>
</svg>
