<svg width="28" height="28" viewBox="0 0 28 28" fill="none" xmlns="http://www.w3.org/2000/svg">
<path d="M8.9375 22.7578H16.3438C16.8945 22.7578 17.293 22.418 17.293 21.8672C17.293 21.3398 16.9062 21 16.3555 21H13.7305L16.5781 7.75781H19.2031C19.7539 7.75781 20.1406 7.41797 20.1406 6.86719C20.1406 6.33984 19.7656 6 19.2148 6H11.7734C11.2227 6 10.8477 6.33984 10.8477 6.86719C10.8477 7.41797 11.2344 7.75781 11.7852 7.75781H14.4102L11.5625 21H8.92578C8.375 21 8 21.3398 8 21.8672C8 22.418 8.38672 22.7578 8.9375 22.7578Z" fill="black" fill-opacity="0.85"/>
</svg>
