<svg width="28" height="28" viewBox="0 0 28 28" fill="none" xmlns="http://www.w3.org/2000/svg">
<path d="M6.67969 24.5977H20.8945C23.3555 24.5977 24.5742 23.3789 24.5742 20.9648V6.65625C24.5742 4.24219 23.3555 3.02344 20.8945 3.02344H6.67969C4.23047 3.02344 3 4.23047 3 6.65625V20.9648C3 23.3906 4.23047 24.5977 6.67969 24.5977ZM6.70312 22.7109C5.53125 22.7109 4.88672 22.0898 4.88672 20.8711V6.75C4.88672 5.53125 5.53125 4.91016 6.70312 4.91016H20.8711C22.0312 4.91016 22.6875 5.53125 22.6875 6.75V20.8711C22.6875 22.0898 22.0312 22.7109 20.8711 22.7109H6.70312Z" fill="black" fill-opacity="0.85"/>
<path d="M13.7812 19.1602C14.3906 19.1602 14.7305 18.75 14.7305 18.1055V9.25781C14.7305 8.61328 14.3906 8.20312 13.7812 8.20312C13.1836 8.20312 12.8555 8.63672 12.8555 9.25781V18.1055C12.8555 18.7266 13.1836 19.1602 13.7812 19.1602Z" fill="black" fill-opacity="0.85"/>
</svg>
