<svg width="28" height="28" viewBox="0 0 28 28" fill="none" xmlns="http://www.w3.org/2000/svg">
<path d="M5.41797 23.6445C5.88672 23.6445 6.26172 23.4453 6.75391 23.1992L21.8125 15.8984C22.8086 15.4062 23.125 14.9492 23.125 14.3281C23.125 13.707 22.8086 13.2617 21.8125 12.7695L6.75391 5.45703C6.25 5.21094 5.875 5.01172 5.40625 5.01172C4.53906 5.01172 4 5.66797 4 6.6875L4.01172 21.9688C4.01172 22.9883 4.55078 23.6445 5.41797 23.6445ZM6.00391 21.418C5.93359 21.418 5.88672 21.3711 5.88672 21.2773V7.37891C5.88672 7.28516 5.93359 7.23828 6.00391 7.23828C6.05078 7.23828 6.09766 7.26172 6.14453 7.29688L20.5 14.1992C20.5586 14.2227 20.6055 14.2695 20.6055 14.3281C20.6055 14.3867 20.5586 14.4336 20.5 14.457L6.14453 21.3711C6.09766 21.3945 6.05078 21.418 6.00391 21.418Z" fill="black" fill-opacity="0.85"/>
</svg>
