<svg width="28" height="28" viewBox="0 0 28 28" fill="none" xmlns="http://www.w3.org/2000/svg">
<g clip-path="url(#clip0_2124_24755)">
<path d="M13.9531 25.918C20.4922 25.918 25.9062 20.5039 25.9062 13.9648C25.9062 7.4375 20.4805 2.01172 13.9414 2.01172C7.41406 2.01172 2 7.4375 2 13.9648C2 20.5039 7.42578 25.918 13.9531 25.918Z" fill="black" fill-opacity="0.85"/>
<path d="M7.42578 13.9531C7.42578 9.75781 10.0508 6.93359 13.9648 6.93359C17.8906 6.93359 20.5273 9.76953 20.5273 13.9531C20.5273 16.1914 19.9883 17.9141 19.0508 19.5664C18.8164 19.9531 18.3945 20.1055 17.9844 19.9531C17.6562 20.3047 17.1758 20.4219 16.625 20.2578C15.8164 20.0469 15.4531 19.3672 15.6758 18.5703L16.5547 15.5586C16.7891 14.75 17.4805 14.3633 18.2656 14.5977C18.5 14.668 18.6992 14.7734 18.8516 14.9023C18.875 14.5977 18.8867 14.2812 18.8867 13.9531C18.8867 10.7305 16.918 8.57422 13.9648 8.57422C11.0234 8.57422 9.06641 10.7188 9.06641 13.9531C9.06641 14.2812 9.06641 14.5859 9.10156 14.8789C9.25391 14.7617 9.44141 14.668 9.65234 14.5977C10.4609 14.3633 11.1523 14.75 11.3867 15.5586L12.2539 18.5586C12.4883 19.3555 12.1133 20.0469 11.3047 20.2578C10.7656 20.4336 10.2734 20.3047 9.94531 19.9531C9.53516 20.1055 9.11328 19.9531 8.89062 19.5664C7.96484 17.9609 7.42578 16.2266 7.42578 13.9531Z" fill="white"/>
</g>
<defs>
<clipPath id="clip0_2124_24755">
<rect width="23.9062" height="23.918" fill="white" transform="translate(2 2)"/>
</clipPath>
</defs>
</svg>
