<svg width="28" height="28" viewBox="0 0 28 28" fill="none" xmlns="http://www.w3.org/2000/svg">
<path d="M6.67969 24.5977H20.8945C23.3555 24.5977 24.5742 23.3789 24.5742 20.9648V6.65625C24.5742 4.24219 23.3555 3.02344 20.8945 3.02344H6.67969C4.23047 3.02344 3 4.23047 3 6.65625V20.9648C3 23.3906 4.23047 24.5977 6.67969 24.5977ZM6.70312 22.7109C5.53125 22.7109 4.88672 22.0898 4.88672 20.8711V6.75C4.88672 5.53125 5.53125 4.91016 6.70312 4.91016H20.8711C22.0312 4.91016 22.6875 5.53125 22.6875 6.75V20.8711C22.6875 22.0898 22.0312 22.7109 20.8711 22.7109H6.70312Z" fill="black" fill-opacity="0.85"/>
<path d="M13.8867 19.3711C16.2422 19.3711 17.9062 18 17.9062 15.5977C17.9062 13.3711 16.2188 12.1289 14.3672 12.1289C12.7969 12.1289 11.8945 12.9258 11.5078 13.7695C11.4844 13.7695 11.4375 13.7695 11.4141 13.7695C11.4141 13.7227 11.4141 13.6875 11.4141 13.6523C11.4141 11.25 12.5156 9.70312 14.1211 9.70312C14.9297 9.70312 15.3984 10.0664 15.7383 10.4766C16.1016 10.8516 16.3359 11.0508 16.7344 11.0508C17.1328 11.0508 17.4492 10.7695 17.4492 10.3594C17.4492 10.1719 17.4023 10.0078 17.332 9.84375C16.9688 8.97656 15.7031 8.21484 14.1797 8.21484C11.4141 8.21484 9.69141 10.1484 9.69141 14.0508C9.69141 15.668 9.98438 16.8398 10.4766 17.625C11.2266 18.8672 12.5039 19.3711 13.8867 19.3711ZM13.8164 17.9648C12.5039 17.9648 11.5664 17.0039 11.5664 15.668C11.5664 14.3789 12.4922 13.4648 13.8164 13.4648C15.1523 13.4648 16.0664 14.3672 16.0664 15.6797C16.0664 17.0625 15.1875 17.9648 13.8164 17.9648Z" fill="black" fill-opacity="0.85"/>
</svg>
