<svg width="28" height="28" viewBox="0 0 28 28" fill="none" xmlns="http://www.w3.org/2000/svg">
<path d="M2.31406 16.8805L11.7008 26.2672C13.4352 28.0016 15.1461 28.0133 16.8687 26.3023L26.3023 16.857C28.0133 15.1461 28.0016 13.4234 26.2672 11.6891L16.8922 2.31406C15.1578 0.579683 13.4469 0.556245 11.7242 2.2789L2.2789 11.7125C0.556245 13.4352 0.579683 15.1461 2.31406 16.8805Z" fill="black" fill-opacity="0.85"/>
<path d="M17.1738 21.7555C16.8574 21.7555 16.6231 21.6031 16.4824 21.2867L14.9121 18.1109C14.8301 17.9703 14.7949 17.9 14.666 17.7477L13.2363 15.9547C12.8379 15.4508 12.4629 14.8766 12.5215 14.068L12.6387 12.4508C12.6621 12.2047 12.416 12.0641 12.2285 12.2398L11.5254 12.8609L11.3848 14.6539C11.3496 15.1227 11.0684 15.3687 10.6699 15.3453C10.248 15.3102 10.002 15.0172 10.0371 14.5602L10.1777 12.9195C10.2246 12.4625 10.3418 12.1695 10.6934 11.8297L11.8301 10.7281C12.5566 10.025 13.2363 9.65003 13.9863 9.65003C15.0645 9.65003 15.6973 10.3883 15.6152 11.5016L15.4863 13.4703C15.4395 14.1852 15.2754 14.6656 15.0527 15.4273L14.9707 15.6734L15.8613 16.9273C15.9902 17.0914 16.1426 17.3141 16.2715 17.6187L17.7363 20.5836C17.8301 20.7711 17.877 20.9234 17.877 21.0875C17.877 21.4742 17.5723 21.7555 17.1738 21.7555ZM10.4707 21.7672C10.084 21.7672 9.83789 21.4977 9.83789 21.1109C9.83789 20.8531 9.96679 20.6773 10.1426 20.4664L12.2402 17.982L12.5801 16.3531L13.7168 17.7945L13.5996 18.2867C13.541 18.5328 13.5293 18.5328 13.2832 18.8375L11.0215 21.5211C10.8809 21.6852 10.6816 21.7672 10.4707 21.7672ZM17.5723 13.8336C17.1621 13.8336 16.9629 13.7633 16.7402 13.5289L16.2481 13.0367L16.3652 11.3023L17.4434 12.4977H19.3184C19.7871 12.4977 20.0801 12.7555 20.0801 13.1656C20.0801 13.5758 19.7988 13.8336 19.3184 13.8336H17.5723ZM14.9238 8.93518C14.0918 8.93518 13.4004 8.23206 13.4004 7.40003C13.4004 6.54456 14.0801 5.85315 14.9238 5.85315C15.7793 5.85315 16.4707 6.54456 16.4707 7.40003C16.4707 8.22034 15.7559 8.93518 14.9238 8.93518Z" fill="white"/>
</svg>
