<svg width="28" height="28" viewBox="0 0 28 28" fill="none" xmlns="http://www.w3.org/2000/svg">
<g clip-path="url(#clip0_2124_24561)">
<path d="M2.69531 22.2734H25.2305C26.918 22.2734 27.9375 21.2539 27.9375 19.5664V5.51562C27.9375 3.82812 26.918 2.82031 25.2305 2.82031H2.69531C1.01953 2.82031 0 3.82812 0 5.51562V19.5664C0 21.2539 1.01953 22.2734 2.69531 22.2734ZM2.73047 20.3867C2.21484 20.3867 1.88672 20.0586 1.88672 19.543V5.55078C1.88672 5.02344 2.21484 4.70703 2.73047 4.70703H25.207C25.7227 4.70703 26.0508 5.02344 26.0508 5.55078V19.543C26.0508 20.0586 25.7227 20.3867 25.207 20.3867H2.73047ZM10.2656 25.0625H17.6719V22.1211H10.2656V25.0625ZM10.1953 26.4336H17.7422C18.2578 26.4336 18.6797 26.0117 18.6797 25.4844C18.6797 24.957 18.2578 24.5352 17.7422 24.5352H10.1953C9.67969 24.5352 9.24609 24.957 9.24609 25.4844C9.24609 26.0117 9.67969 26.4336 10.1953 26.4336Z" fill="black" fill-opacity="0.85"/>
</g>
<defs>
<clipPath id="clip0_2124_24561">
<rect width="27.9375" height="24.4336" fill="white" transform="translate(0 2)"/>
</clipPath>
</defs>
</svg>
