<svg width="28" height="28" viewBox="0 0 28 28" fill="none" xmlns="http://www.w3.org/2000/svg">
<path d="M25.9062 13.9531C25.9062 7.41406 20.5039 2 13.9648 2C7.4375 2 2 7.41406 2 13.9531C2 20.4805 7.42578 25.9062 13.9531 25.9062C20.4922 25.9062 25.9062 20.4805 25.9062 13.9531ZM3.99219 13.9531C4.00391 8.42188 8.43359 3.99219 13.9648 3.99219C14.3398 3.99219 14.7148 4.01562 15.0781 4.0625C11.7734 6.04297 9.92188 9.53516 9.92188 13.9531C9.92188 18.3594 11.7617 21.8398 15.043 23.8438C14.6797 23.8906 14.3164 23.9141 13.9531 23.9141C8.42188 23.9141 3.98047 19.4844 3.99219 13.9531Z" fill="black" fill-opacity="0.85"/>
</svg>
