<svg width="28" height="28" viewBox="0 0 28 28" fill="none" xmlns="http://www.w3.org/2000/svg">
<path d="M13.9531 25.9062C20.4922 25.9062 25.9062 20.4805 25.9062 13.9531C25.9062 7.41406 20.4805 2 13.9414 2C7.41406 2 2 7.41406 2 13.9531C2 20.4805 7.42578 25.9062 13.9531 25.9062Z" fill="black" fill-opacity="0.85"/>
<path d="M8.07031 9.35937C8.14062 8.98437 8.46875 8.96093 8.70312 9.1953C9.5 10.0039 10.4844 10.1094 11.3633 10.1094C12.1719 10.1094 13.168 9.88671 14.0586 9.88671C16.6602 9.88671 18.5234 11.164 18.5234 13.8242C18.5234 14.0703 18.5117 14.3281 18.4883 14.4922C18.4414 14.668 18.2305 14.7734 18.043 14.5859C15.6758 12.4531 13.3438 13.8242 11.3984 12.125C11.1875 11.9609 11 12.1133 11.0703 12.2891C12.0078 14.7383 15.6406 13.4375 18.043 15.6406C18.6172 16.1562 19.6953 17.4805 19.6953 18.2305C19.6953 18.7109 19.3555 19.0625 18.957 19.0625C18.7812 19.0625 18.582 18.9688 18.5117 18.7109C18.2188 17.7734 17.9609 17.0938 17.4922 16.4727C16.9648 17.1406 15.8398 17.9258 14.0352 17.9258C10.3203 17.9258 7.89453 15.207 7.89453 11.1289C7.89453 10.6367 7.96484 9.91015 8.07031 9.35937Z" fill="white"/>
</svg>
