<svg width="28" height="29" viewBox="0 0 28 29" fill="none" xmlns="http://www.w3.org/2000/svg">
<path d="M7.50391 17.3672H11.1953C8.05469 16.4648 6.10938 13.7344 6.10938 10.3711C6.10938 7.94532 7.17578 5.80079 8.88672 4.34767C8.71094 5.01563 8.60547 5.85939 8.60547 6.73829C8.60547 11.8359 12.1211 15.2578 17.3477 15.2578C18.0156 15.2578 18.7188 15.1758 19.2461 15.0703C18.3906 16.125 17.1367 16.9336 15.6367 17.3672L19.2578 17.3789C20.2891 16.5586 21.0977 15.5039 21.6133 14.2734C21.8125 13.8164 21.7773 13.418 21.5312 13.1719C21.332 12.9609 20.9805 12.9258 20.5703 13.0781C19.7852 13.3828 18.8594 13.5352 17.7227 13.5352C13.1875 13.5352 10.3047 10.7344 10.3047 6.31642C10.3047 5.14454 10.5273 3.89063 10.8438 3.23439C11.0547 2.82423 11.0547 2.40235 10.8203 2.15626C10.5742 1.89845 10.1875 1.82813 9.70703 2.02735C6.50781 3.32813 4.33984 6.66798 4.33984 10.5C4.33984 13.2891 5.47656 15.7734 7.50391 17.3672Z" fill="black" fill-opacity="0.85"/>
<path d="M2.04297 18.7031H25.8438C26.2656 18.7031 26.582 18.3867 26.582 17.9648C26.582 17.543 26.2656 17.2266 25.8438 17.2266H2.04297C1.63281 17.2266 1.30469 17.543 1.30469 17.9648C1.30469 18.3867 1.63281 18.7031 2.04297 18.7031ZM3.09766 22.5C3.4375 22.5 3.69531 22.2305 3.69531 21.9023C3.69531 21.5625 3.4375 21.293 3.09766 21.293C2.75781 21.293 2.5 21.5625 2.5 21.9023C2.5 22.2305 2.75781 22.5 3.09766 22.5ZM8.04297 22.5C8.38281 22.5 8.65234 22.2305 8.65234 21.9023C8.65234 21.5625 8.38281 21.293 8.04297 21.293C7.71484 21.293 7.44531 21.5625 7.44531 21.9023C7.44531 22.2305 7.71484 22.5 8.04297 22.5ZM13 22.5C13.3398 22.5 13.5977 22.2305 13.5977 21.9023C13.5977 21.5625 13.3398 21.293 13 21.293C12.6602 21.293 12.4023 21.5625 12.4023 21.9023C12.4023 22.2305 12.6602 22.5 13 22.5ZM17.9453 22.5C18.2852 22.5 18.5547 22.2305 18.5547 21.9023C18.5547 21.5625 18.2852 21.293 17.9453 21.293C17.6172 21.293 17.3477 21.5625 17.3477 21.9023C17.3477 22.2305 17.6172 22.5 17.9453 22.5ZM22.9023 22.5C23.2422 22.5 23.5 22.2305 23.5 21.9023C23.5 21.5625 23.2422 21.293 22.9023 21.293C22.5625 21.293 22.3047 21.5625 22.3047 21.9023C22.3047 22.2305 22.5625 22.5 22.9023 22.5ZM1.59766 25.3359C1.9375 25.3359 2.20703 25.0781 2.20703 24.7383C2.20703 24.3984 1.9375 24.1406 1.59766 24.1406C1.26953 24.1406 1 24.3984 1 24.7383C1 25.0781 1.26953 25.3359 1.59766 25.3359ZM6.55469 25.3359C6.88281 25.3359 7.15234 25.0781 7.15234 24.7383C7.15234 24.3984 6.88281 24.1406 6.55469 24.1406C6.21484 24.1406 5.94531 24.3984 5.94531 24.7383C5.94531 25.0781 6.21484 25.3359 6.55469 25.3359ZM11.5 25.3359C11.8398 25.3359 12.1094 25.0781 12.1094 24.7383C12.1094 24.3984 11.8398 24.1406 11.5 24.1406C11.1719 24.1406 10.9023 24.3984 10.9023 24.7383C10.9023 25.0781 11.1719 25.3359 11.5 25.3359ZM16.457 25.3359C16.7852 25.3359 17.0547 25.0781 17.0547 24.7383C17.0547 24.3984 16.7852 24.1406 16.457 24.1406C16.1172 24.1406 15.8477 24.3984 15.8477 24.7383C15.8477 25.0781 16.1172 25.3359 16.457 25.3359ZM21.4023 25.3359C21.7422 25.3359 22.0117 25.0781 22.0117 24.7383C22.0117 24.3984 21.7422 24.1406 21.4023 24.1406C21.0742 24.1406 20.8047 24.3984 20.8047 24.7383C20.8047 25.0781 21.0742 25.3359 21.4023 25.3359ZM26.3594 25.3359C26.6875 25.3359 26.957 25.0781 26.957 24.7383C26.957 24.3984 26.6875 24.1406 26.3594 24.1406C26.0195 24.1406 25.75 24.3984 25.75 24.7383C25.75 25.0781 26.0195 25.3359 26.3594 25.3359ZM5.05469 28.1836C5.39453 28.1836 5.65234 27.9141 5.65234 27.5859C5.65234 27.2461 5.39453 26.9766 5.05469 26.9766C4.71484 26.9766 4.45703 27.2461 4.45703 27.5859C4.45703 27.9141 4.71484 28.1836 5.05469 28.1836ZM10.0117 28.1836C10.3398 28.1836 10.6094 27.9141 10.6094 27.5859C10.6094 27.2461 10.3398 26.9766 10.0117 26.9766C9.67188 26.9766 9.40234 27.2461 9.40234 27.5859C9.40234 27.9141 9.67188 28.1836 10.0117 28.1836ZM14.957 28.1836C15.2969 28.1836 15.5547 27.9141 15.5547 27.5859C15.5547 27.2461 15.2969 26.9766 14.957 26.9766C14.6172 26.9766 14.3594 27.2461 14.3594 27.5859C14.3594 27.9141 14.6172 28.1836 14.957 28.1836ZM19.9141 28.1836C20.2422 28.1836 20.5117 27.9141 20.5117 27.5859C20.5117 27.2461 20.2422 26.9766 19.9141 26.9766C19.5742 26.9766 19.3047 27.2461 19.3047 27.5859C19.3047 27.9141 19.5742 28.1836 19.9141 28.1836ZM24.8594 28.1836C25.1992 28.1836 25.457 27.9141 25.457 27.5859C25.457 27.2461 25.1992 26.9766 24.8594 26.9766C24.5195 26.9766 24.2617 27.2461 24.2617 27.5859C24.2617 27.9141 24.5195 28.1836 24.8594 28.1836Z" fill="black" fill-opacity="0.85"/>
</svg>
