<svg width="28" height="28" viewBox="0 0 28 28" fill="none" xmlns="http://www.w3.org/2000/svg">
<path d="M13.9531 25.9062C20.4922 25.9062 25.9062 20.4805 25.9062 13.9531C25.9062 7.41406 20.4805 2 13.9414 2C7.41406 2 2 7.41406 2 13.9531C2 20.4805 7.42578 25.9062 13.9531 25.9062Z" fill="black" fill-opacity="0.85"/>
<path d="M13.9648 7.80078C14.5039 7.80078 14.8789 8.17578 14.8789 8.71484V14.7266L14.7734 17.3047L16.0039 15.8398L17.4219 14.3984C17.5859 14.2109 17.8086 14.1289 18.0664 14.1289C18.5703 14.1289 18.957 14.5039 18.957 15.0078C18.957 15.2656 18.8633 15.4766 18.6992 15.6406L14.6797 19.6484C14.4453 19.8828 14.2344 20 13.9648 20C13.707 20 13.5078 19.8945 13.2617 19.6484L9.23047 15.6406C9.06641 15.4766 8.99609 15.2656 8.99609 15.0078C8.99609 14.5039 9.37109 14.1289 9.875 14.1289C10.1211 14.1289 10.3555 14.2227 10.5195 14.3984L11.9492 15.8398L13.1562 17.293L13.0508 14.7266V8.71484C13.0508 8.17578 13.4375 7.80078 13.9648 7.80078Z" fill="white"/>
</svg>
