<svg width="28" height="28" viewBox="0 0 28 28" fill="none" xmlns="http://www.w3.org/2000/svg">
<path d="M13.9531 25.9062C20.4922 25.9062 25.9062 20.4805 25.9062 13.9531C25.9062 7.41406 20.4805 2 13.9414 2C7.41406 2 2 7.41406 2 13.9531C2 20.4805 7.42578 25.9062 13.9531 25.9062ZM13.9531 23.9141C8.42188 23.9141 4.00391 19.4844 4.00391 13.9531C4.00391 8.42188 8.41016 3.99219 13.9414 3.99219C19.4727 3.99219 23.9141 8.42188 23.9141 13.9531C23.9141 19.4844 19.4844 23.9141 13.9531 23.9141Z" fill="black" fill-opacity="0.85"/>
<path d="M8.43359 17.2578H14.2461C15.8281 17.2578 17.0352 16.0508 17.0352 14.5039C17.0352 12.9922 15.8164 11.832 14.1875 11.7969C13.5547 10.625 12.4414 9.89844 11.0938 9.89844C9.3125 9.89844 7.8125 11.2812 7.61328 13.0508C6.73438 13.3438 6.11328 14.1289 6.11328 15.125C6.11328 16.3438 7.03906 17.2578 8.43359 17.2578ZM13.1211 9.41797C13.332 9.62891 13.6836 9.60547 13.8828 9.41797C14.0703 9.21875 14.0938 8.86719 13.8828 8.66797L13.0391 7.83594C12.8281 7.63672 12.5 7.63672 12.2891 7.83594C12.0898 8.02344 12.0898 8.36328 12.2891 8.57422L13.1211 9.41797ZM16.2734 8.41016C16.5781 8.41016 16.8125 8.17578 16.8125 7.88281V6.69922C16.8125 6.41797 16.5781 6.17188 16.2734 6.17188C15.9922 6.17188 15.7461 6.41797 15.7461 6.69922V7.88281C15.7461 8.17578 15.9922 8.41016 16.2734 8.41016ZM18.6875 9.40625C18.8867 9.60547 19.25 9.62891 19.4609 9.41797L20.2812 8.57422C20.4805 8.375 20.4688 8.02344 20.2812 7.83594C20.0703 7.63672 19.7422 7.625 19.5312 7.83594L18.6875 8.66797C18.4766 8.86719 18.5 9.20703 18.6875 9.40625ZM20.2227 12.3477H21.3828C21.6875 12.3477 21.9219 12.1133 21.9219 11.8203C21.9219 11.5156 21.6875 11.293 21.3828 11.293H20.2227C19.9414 11.293 19.6953 11.5156 19.6953 11.8203C19.6953 12.1133 19.9414 12.3477 20.2227 12.3477ZM19.5312 15.8281C19.7422 16.0391 20.0703 16.0156 20.2812 15.8164C20.4688 15.6055 20.4805 15.2539 20.2812 15.0664L19.4609 14.2461C19.25 14.0469 18.8984 14.0469 18.6875 14.2461C18.5 14.4453 18.4766 14.7969 18.6875 14.9961L19.5312 15.8281ZM19.0273 11.8203C19.0273 10.2852 17.8086 9.08984 16.2734 9.08984C15.3477 9.08984 14.5156 9.55859 14.0352 10.2734C14.2812 10.4961 14.4805 10.7422 14.668 11.0352C16.3555 11.2578 17.6445 12.4766 17.8203 14.0938C18.5703 13.5664 19.0273 12.7461 19.0273 11.8203ZM8.89062 19.7422L9.55859 18.5938C9.6875 18.3828 9.61719 18.1367 9.39453 18.0078C9.19531 17.8906 8.9375 17.9727 8.82031 18.1719L8.15234 19.3203C8.04688 19.5078 8.10547 19.7891 8.31641 19.8828C8.51562 20.0117 8.77344 19.9414 8.89062 19.7422ZM10.3906 20.9844L11.0117 19.8945C11.1172 19.707 11.0703 19.4375 10.8477 19.3203C10.6367 19.2031 10.3906 19.2734 10.2617 19.4844L9.62891 20.5625C9.51172 20.7617 9.59375 21.0312 9.80469 21.1367C10.0039 21.2656 10.2734 21.1836 10.3906 20.9844ZM12.6758 19.7422L13.3438 18.5938C13.4609 18.3945 13.3789 18.1367 13.1797 18.0195C12.9688 17.8906 12.7109 17.9609 12.5938 18.1602L11.9375 19.3086C11.832 19.5078 11.8789 19.7773 12.0898 19.8945C12.3125 20 12.5586 19.9297 12.6758 19.7422ZM14.1641 20.9844L14.7969 19.9062C14.9023 19.707 14.832 19.4258 14.6211 19.3203C14.4219 19.2148 14.1758 19.2734 14.0469 19.4844L13.4141 20.5625C13.2852 20.7734 13.3672 21.0312 13.5898 21.1484C13.7891 21.2656 14.0469 21.1836 14.1641 20.9844Z" fill="black" fill-opacity="0.85"/>
</svg>
