<svg width="28" height="28" viewBox="0 0 28 28" fill="none" xmlns="http://www.w3.org/2000/svg">
<path d="M13.9531 25.9062C20.4922 25.9062 25.9062 20.4805 25.9062 13.9531C25.9062 7.41406 20.4805 2 13.9414 2C7.41406 2 2 7.41406 2 13.9531C2 20.4805 7.42578 25.9062 13.9531 25.9062ZM13.9531 23.9141C8.42188 23.9141 4.00391 19.4844 4.00391 13.9531C4.00391 8.42188 8.41016 3.99219 13.9414 3.99219C19.4727 3.99219 23.9141 8.42188 23.9141 13.9531C23.9141 19.4844 19.4844 23.9141 13.9531 23.9141Z" fill="black" fill-opacity="0.85"/>
<path d="M6.58203 13.9648C6.58203 14.4336 6.91016 14.75 7.35547 14.75H12.7344L14.8906 14.6211L12.5117 16.7305L11.7617 17.4219C11.5977 17.5625 11.5273 17.75 11.5273 17.9844C11.5273 18.4414 11.8555 18.7461 12.3008 18.7461C12.4883 18.7461 12.7344 18.6406 12.8984 18.4883L16.9297 14.5508C17.1055 14.3867 17.1875 14.1758 17.1875 13.9648C17.1875 13.7422 17.0938 13.543 16.9297 13.3672L12.8867 9.39453C12.7109 9.21875 12.5117 9.14844 12.3008 9.14844C11.8789 9.14844 11.5273 9.45312 11.5273 9.89844C11.5273 10.1094 11.5977 10.3203 11.7617 10.4727L12.5 11.1992L14.8789 13.3086L12.7344 13.1797H7.35547C6.91016 13.1797 6.58203 13.5078 6.58203 13.9648ZM18.8633 19.1211C19.332 19.1211 19.6602 18.8047 19.6602 18.3477V9.54688C19.6602 9.08984 19.332 8.77344 18.8633 8.77344C18.418 8.77344 18.0898 9.08984 18.0898 9.54688V18.3477C18.0898 18.8047 18.418 19.1211 18.8633 19.1211Z" fill="black" fill-opacity="0.85"/>
</svg>
