<svg width="28" height="28" viewBox="0 0 28 28" fill="none" xmlns="http://www.w3.org/2000/svg">
<g clip-path="url(#clip0_2124_49994)">
<path d="M1.42578 18.1124C1.42578 21.8507 4.76563 25.7179 8.0586 25.7179C11.3047 25.7179 13.0039 22.4015 14.7149 16.6124H14.8789V23.2921C14.8789 25.4249 15.9805 26.5616 18.043 26.5616C21.7813 26.5616 25.6485 23.2101 25.6485 19.9171C25.6485 16.6827 22.3321 14.9718 16.5547 13.2726V13.0968H23.2227C25.3555 13.0968 26.4922 11.9952 26.4922 9.93274C26.4922 6.20618 23.1524 2.32727 19.8594 2.32727C16.625 2.32727 14.9141 5.62024 13.2149 11.3976H13.0391V4.76477C13.0391 2.63196 11.9258 1.48352 9.875 1.48352C6.13672 1.49524 2.26953 4.83509 2.26953 8.12805C2.26953 11.3507 5.55078 13.0616 11.3281 14.7726V14.9366H4.69532C2.5625 14.9366 1.42578 16.0499 1.42578 18.1124Z" fill="black" fill-opacity="0.85"/>
<path d="M23.1631 26.3976C24.0654 27.2882 25.5068 27.2765 26.3857 26.3624C27.2646 25.4718 27.2529 24.0538 26.374 23.1749L4.88184 1.67103C4.00293 0.792121 2.5498 0.780403 1.65918 1.67103C0.780273 2.53822 0.780273 4.00305 1.65918 4.88196L23.1631 26.3976Z" fill="white"/>
<path d="M24.1357 25.4249C24.4873 25.7765 25.0615 25.7648 25.4131 25.4132C25.7529 25.0616 25.7646 24.4874 25.4131 24.1359L3.90918 2.64369C3.55762 2.29213 2.9834 2.28041 2.62012 2.64369C2.28027 2.98353 2.28027 3.56947 2.62012 3.92103L24.1357 25.4249Z" fill="black" fill-opacity="0.85"/>
</g>
<defs>
<clipPath id="clip0_2124_49994">
<rect width="26.0391" height="26.0569" fill="white" transform="translate(1 1)"/>
</clipPath>
</defs>
</svg>
