<svg width="28" height="28" viewBox="0 0 28 28" fill="none" xmlns="http://www.w3.org/2000/svg">
<g clip-path="url(#clip0_2124_24832)">
<path d="M10.7539 26.8867H16.6133C18.3477 26.8867 19.3672 25.8672 19.3672 24.1328V3.75391C19.3672 2.01953 18.3477 1 16.6133 1H10.7539C9.01953 1 8 2.01953 8 3.75391V24.1328C8 25.8672 9.01953 26.8867 10.7539 26.8867ZM11.5977 11.125C10.7539 11.125 10.0977 10.4453 10.0977 9.625C10.0977 8.79297 10.7539 8.125 11.5977 8.125C12.418 8.125 13.0859 8.79297 13.0859 9.625C13.0859 10.4453 12.418 11.125 11.5977 11.125ZM15.7461 11.125C14.9141 11.125 14.2461 10.4453 14.2461 9.625C14.2461 8.79297 14.9141 8.125 15.7461 8.125C16.5781 8.125 17.2461 8.79297 17.2461 9.625C17.2461 10.4453 16.5781 11.125 15.7461 11.125ZM11.5977 15.4492C10.7539 15.4492 10.0977 14.7695 10.0977 13.9492C10.0977 13.1172 10.7539 12.4492 11.5977 12.4492C12.418 12.4492 13.0859 13.1172 13.0859 13.9492C13.0859 14.7695 12.418 15.4492 11.5977 15.4492ZM11.5977 19.7617C10.7539 19.7617 10.0977 19.1055 10.0977 18.2617C10.0977 17.4414 10.7539 16.7617 11.5977 16.7617C12.418 16.7617 13.0859 17.4414 13.0859 18.2617C13.0859 19.1055 12.418 19.7617 11.5977 19.7617ZM15.7344 19.7617C14.9492 19.7617 14.3281 19.1406 14.3281 18.332V13.8789C14.3281 13.082 14.9492 12.4492 15.7344 12.4492C16.5312 12.4492 17.1875 13.082 17.1875 13.8789V18.332C17.1875 19.1406 16.5312 19.7617 15.7344 19.7617Z" fill="black" fill-opacity="0.85"/>
</g>
<defs>
<clipPath id="clip0_2124_24832">
<rect width="11.3672" height="25.9102" fill="white" transform="translate(8 1)"/>
</clipPath>
</defs>
</svg>
