<svg width="28" height="28" viewBox="0 0 28 28" fill="none" xmlns="http://www.w3.org/2000/svg">
<g clip-path="url(#clip0_2124_89405)">
<path d="M13.9531 25.9062C20.4922 25.9062 25.9062 20.4805 25.9062 13.9531C25.9062 7.41406 20.4805 2 13.9414 2C7.41406 2 2 7.41406 2 13.9531C2 20.4805 7.42578 25.9062 13.9531 25.9062ZM13.9531 23.9141C8.42188 23.9141 4.00391 19.4844 4.00391 13.9531C4.00391 8.42188 8.41016 3.99219 13.9414 3.99219C19.4727 3.99219 23.9141 8.42188 23.9141 13.9531C23.9141 19.4844 19.4844 23.9141 13.9531 23.9141Z" fill="black" fill-opacity="0.85"/>
<path d="M9.66406 17.5977H17.5391C18.418 17.5977 19.2266 17.5156 19.7891 16.9531C20.3633 16.3672 20.457 15.5703 20.457 14.7031V13.2031C20.457 12.3359 20.3633 11.5273 19.7891 10.9531C19.2266 10.3906 18.4062 10.2969 17.5391 10.2969H9.66406C8.79688 10.2969 7.97656 10.3906 7.39062 10.9531C6.82812 11.5273 6.74609 12.3359 6.74609 13.2031V14.7031C6.74609 15.5703 6.82812 16.3672 7.39062 16.9531C7.97656 17.5156 8.78516 17.5977 9.66406 17.5977ZM9.51172 16.2969C8.9375 16.2969 8.55078 16.1914 8.35156 15.9922C8.15234 15.8047 8.07031 15.418 8.07031 14.8438V13.0508C8.07031 12.4766 8.15234 12.0898 8.35156 11.9023C8.55078 11.7031 8.94922 11.5977 9.51172 11.5977H17.6914C18.2422 11.5977 18.6523 11.7031 18.8516 11.9141C19.0391 12.1016 19.1562 12.5 19.1562 13.0508V14.8438C19.1562 15.4062 19.0391 15.8047 18.8516 15.9922C18.6523 16.1914 18.2539 16.2969 17.6914 16.2969H9.51172ZM9.57031 15.6055H17.6445C17.9609 15.6055 18.1484 15.5703 18.2773 15.4414C18.4062 15.3125 18.4648 15.1133 18.4648 14.8086V13.0742C18.4648 12.7695 18.4062 12.5703 18.2773 12.4414C18.1484 12.3242 17.9609 12.2773 17.6445 12.2773H9.57031C9.25391 12.2773 9.05469 12.3242 8.92578 12.4414C8.80859 12.5703 8.75 12.7578 8.75 13.0742V14.8086C8.75 15.125 8.80859 15.3242 8.92578 15.4414C9.05469 15.5703 9.25391 15.6055 9.57031 15.6055ZM20.9727 15.3359C21.3828 15.3008 21.957 14.7617 21.957 13.9531C21.957 13.1445 21.3828 12.5938 20.9727 12.5703V15.3359Z" fill="black" fill-opacity="0.85"/>
</g>
<defs>
<clipPath id="clip0_2124_89405">
<rect width="23.9062" height="23.918" fill="white" transform="translate(2 2)"/>
</clipPath>
</defs>
</svg>
