<svg width="28" height="28" viewBox="0 0 28 28" fill="none" xmlns="http://www.w3.org/2000/svg">
<path d="M13.9531 25.9062C20.4922 25.9062 25.9062 20.4805 25.9062 13.9531C25.9062 7.41406 20.4805 2 13.9414 2C7.41406 2 2 7.41406 2 13.9531C2 20.4805 7.42578 25.9062 13.9531 25.9062Z" fill="black" fill-opacity="0.85"/>
<path d="M7.75391 18.8398C7.20312 18.8398 6.94531 18.5469 6.94531 18.1367C6.94531 17.7617 7.15625 17.457 7.39062 17.1641L9.48828 14.4922C10.1328 13.6719 10.8008 12.6875 10.8008 11.7148C10.8008 10.8594 10.4023 10.2266 9.66406 10.2266C8.97266 10.2266 8.67969 10.7305 8.44531 11.5391C8.32812 11.9375 8.08203 12.125 7.68359 12.125C7.21484 12.125 6.95703 11.8086 6.95703 11.3516C6.95703 10.0977 8.12891 8.82031 9.67578 8.82031C11.3398 8.82031 12.4648 10.0039 12.4648 11.6328C12.4648 12.6992 12.0664 13.5898 10.8477 15.0898L9.08984 17.3164V17.4219H11.9492C12.3711 17.4219 12.6406 17.668 12.6406 18.1367C12.6406 18.5586 12.3828 18.8398 11.9492 18.8398H7.75391ZM15.0312 18.9922C14.5508 18.9922 14.1523 18.5938 14.1523 18.1016V9.79297C14.1523 9.30078 14.5508 8.90234 15.0312 8.90234C15.5117 8.90234 15.9219 9.30078 15.9219 9.79297V13.1328H18.8984V9.79297C18.8984 9.30078 19.2969 8.90234 19.7891 8.90234C20.2578 8.90234 20.6562 9.30078 20.6562 9.79297V18.1016C20.6562 18.5938 20.2578 18.9922 19.7891 18.9922C19.2969 18.9922 18.8984 18.5938 18.8984 18.1016V14.6094H15.9219V18.1016C15.9219 18.5938 15.5117 18.9922 15.0312 18.9922Z" fill="white"/>
</svg>
