<svg width="28" height="28" viewBox="0 0 28 28" fill="none" xmlns="http://www.w3.org/2000/svg">
<path d="M13.9531 25.9062C20.4922 25.9062 25.9062 20.4805 25.9062 13.9531C25.9062 7.41406 20.4805 2 13.9414 2C7.41406 2 2 7.41406 2 13.9531C2 20.4805 7.42578 25.9062 13.9531 25.9062ZM13.9531 23.9141C8.42188 23.9141 4.00391 19.4844 4.00391 13.9531C4.00391 8.42188 8.41016 3.99219 13.9414 3.99219C19.4727 3.99219 23.9141 8.42188 23.9141 13.9531C23.9141 19.4844 19.4844 23.9141 13.9531 23.9141Z" fill="black" fill-opacity="0.85"/>
<path d="M9.38281 19.3906C9.92188 19.3906 10.2383 19.0391 10.2383 18.4297V11.668H10.3438L13.0391 18.418C13.2148 18.8398 13.4844 19.0391 13.9297 19.0391C14.3633 19.0391 14.6562 18.8398 14.8203 18.418L17.5391 11.668H17.6328V18.4297C17.6328 19.0273 17.9492 19.3906 18.4648 19.3906C19.0156 19.3906 19.332 19.0391 19.332 18.4297V9.45312C19.332 8.80859 18.875 8.36328 18.2305 8.36328C17.668 8.36328 17.293 8.62109 17.082 9.125L13.9766 16.918H13.918L10.7891 9.125C10.5898 8.62109 10.2148 8.36328 9.65234 8.36328C8.99609 8.36328 8.53906 8.80859 8.53906 9.45312V18.4297C8.53906 19.0273 8.86719 19.3906 9.38281 19.3906Z" fill="black" fill-opacity="0.85"/>
</svg>
