<svg width="28" height="28" viewBox="0 0 28 28" fill="none" xmlns="http://www.w3.org/2000/svg">
<g clip-path="url(#clip0_2124_50114)">
<path d="M21.4531 22.9414V5.63281C21.4531 3.21875 20.2344 2 17.7852 2H8.67969C6.24219 2 5 3.20703 5 5.63281V22.9414C5 25.3672 6.24219 26.5742 8.67969 26.5742H17.7852C20.2344 26.5742 21.4531 25.3555 21.4531 22.9414ZM6.88672 22.8477V5.72656C6.88672 4.50781 7.54297 3.88672 8.71484 3.88672H17.75C18.9102 3.88672 19.5664 4.50781 19.5664 5.72656V22.8477C19.5664 24.0664 18.9102 24.6875 17.75 24.6875H8.71484C7.54297 24.6875 6.88672 24.0664 6.88672 22.8477Z" fill="black" fill-opacity="0.85"/>
<path d="M9.66406 7.98828C10.4375 7.98828 11.0586 7.35547 11.0586 6.60547C11.0586 5.82031 10.4375 5.19922 9.66406 5.19922C8.89062 5.19922 8.26953 5.82031 8.26953 6.60547C8.26953 7.35547 8.89062 7.98828 9.66406 7.98828ZM13.2266 7.98828C14.0234 7.98828 14.6328 7.35547 14.6328 6.60547C14.6328 5.82031 14.0234 5.19922 13.2266 5.19922C12.4531 5.19922 11.8438 5.82031 11.8438 6.60547C11.8438 7.35547 12.4531 7.98828 13.2266 7.98828ZM16.8125 7.98828C17.5859 7.98828 18.1953 7.35547 18.1953 6.60547C18.1953 5.82031 17.5859 5.19922 16.8125 5.19922C16.0273 5.19922 15.418 5.82031 15.418 6.60547C15.418 7.35547 16.0273 7.98828 16.8125 7.98828ZM9.66406 11.4219C10.4375 11.4219 11.0586 10.8008 11.0586 10.0273C11.0586 9.24219 10.4375 8.62109 9.66406 8.62109C8.89062 8.62109 8.26953 9.24219 8.26953 10.0273C8.26953 10.8008 8.89062 11.4219 9.66406 11.4219ZM13.2266 11.4219C14.0234 11.4219 14.6328 10.8008 14.6328 10.0273C14.6328 9.24219 14.0234 8.62109 13.2266 8.62109C12.4531 8.62109 11.8438 9.24219 11.8438 10.0273C11.8438 10.8008 12.4531 11.4219 13.2266 11.4219ZM16.8125 11.4219C17.5859 11.4219 18.1953 10.8008 18.1953 10.0273C18.1953 9.24219 17.5859 8.62109 16.8125 8.62109C16.0273 8.62109 15.418 9.24219 15.418 10.0273C15.418 10.8008 16.0273 11.4219 16.8125 11.4219ZM9.66406 14.8672C10.4375 14.8672 11.0586 14.2461 11.0586 13.4609C11.0586 12.6992 10.4375 12.0664 9.66406 12.0664C8.89062 12.0664 8.26953 12.6992 8.26953 13.4609C8.26953 14.2461 8.89062 14.8672 9.66406 14.8672ZM13.2266 14.8672C14.0234 14.8672 14.6328 14.2461 14.6328 13.4609C14.6328 12.6992 14.0234 12.0664 13.2266 12.0664C12.4531 12.0664 11.8438 12.6992 11.8438 13.4609C11.8438 14.2461 12.4531 14.8672 13.2266 14.8672ZM16.8125 14.8672C17.5859 14.8672 18.1953 14.2461 18.1953 13.4609C18.1953 12.6992 17.5859 12.0664 16.8125 12.0664C16.0273 12.0664 15.418 12.6992 15.418 13.4609C15.418 14.2461 16.0273 14.8672 16.8125 14.8672Z" fill="black" fill-opacity="0.85"/>
<path d="M13.4375 22.3789H21.4531C22.8125 22.3789 23.9375 21.2773 23.9375 19.9062C23.9375 18.5352 22.8125 17.4219 21.4531 17.4219H13.4375C12.0781 17.4219 10.9648 18.5352 10.9648 19.9062C10.9648 21.2773 12.0781 22.3789 13.4375 22.3789Z" fill="white"/>
<path d="M13.2266 23.3516C15.1484 23.3516 16.6836 21.8164 16.6836 19.9062C16.6836 18.0078 15.1484 16.4727 13.2266 16.4727C11.3164 16.4727 9.78125 18.0078 9.78125 19.9062C9.78125 21.8164 11.3164 23.3516 13.2266 23.3516ZM13.4375 21.2539H21.4531C22.1914 21.2539 22.8008 20.6562 22.8008 19.9062C22.8008 19.1562 22.1914 18.5586 21.4531 18.5586H13.4375C12.6992 18.5586 12.0898 19.1562 12.0898 19.9062C12.0898 20.6562 12.6992 21.2539 13.4375 21.2539Z" fill="black" fill-opacity="0.85"/>
</g>
<defs>
<clipPath id="clip0_2124_50114">
<rect width="18.9375" height="24.6211" fill="white" transform="translate(5 2)"/>
</clipPath>
</defs>
</svg>
