<svg width="28" height="28" viewBox="0 0 28 28" fill="none" xmlns="http://www.w3.org/2000/svg">
<path d="M13.9531 25.9062C20.4922 25.9062 25.9062 20.4922 25.9062 13.9531C25.9062 7.42578 20.4805 2 13.9414 2C7.41406 2 2 7.42578 2 13.9531C2 20.4922 7.42578 25.9062 13.9531 25.9062Z" fill="black" fill-opacity="0.85"/>
<path d="M15.2188 7.8125C18.0195 7.8125 19.8477 9.72266 19.8477 12.5469V14.1172C19.8477 14.6797 19.4961 15.0664 18.9688 15.0664C18.4531 15.0664 18.1016 14.6914 18.1016 14.1406V12.5469C18.1016 10.7773 16.9531 9.57031 15.2188 9.57031C13.6133 9.57031 12.5469 10.7539 12.5469 12.5352V15.957L12.4883 17.1641L12.8867 16.6133L14.2578 15.1836C14.4219 15.0195 14.6445 14.9141 14.9023 14.9141C15.4062 14.9141 15.8047 15.2891 15.8047 15.7812C15.8047 16.0391 15.7109 16.2617 15.5469 16.4141L12.4062 19.4961C12.1836 19.7188 11.9258 19.8125 11.668 19.8125C11.3984 19.8125 11.1406 19.707 10.918 19.4961L7.8125 16.4258C7.63672 16.2617 7.55469 16.0508 7.55469 15.793C7.55469 15.2891 7.95312 14.9141 8.44531 14.9141C8.69141 14.9141 8.92578 15.0195 9.07812 15.1836L10.2266 16.3789L10.8594 17.1758L10.8008 15.957V12.5352C10.8008 9.71094 12.5586 7.8125 15.2188 7.8125Z" fill="white"/>
</svg>
