<svg width="28" height="28" viewBox="0 0 28 28" fill="none" xmlns="http://www.w3.org/2000/svg">
<path d="M13.192 8.63281L11.0006 15.207H16.9303L14.7272 8.63281C14.4694 7.87109 13.4498 7.87109 13.192 8.63281ZM18.7233 23.9023C19.0748 23.9023 19.5436 23.4922 19.4498 23.0117L17.8444 15.4883C17.7272 14.9023 17.2584 14.4805 16.6959 14.4805H11.2233C10.6725 14.4805 10.192 14.9023 10.0748 15.4766L8.46935 23.0117C8.38732 23.4219 8.66857 23.8203 9.06701 23.8906C9.47716 23.9727 9.8756 23.7266 9.95763 23.3164L11.5397 15.8867L11.3873 15.9922H16.5436L16.3795 15.8867L17.9615 23.3164C18.0318 23.6797 18.3483 23.9141 18.7233 23.9023Z" fill="black" fill-opacity="0.85"/>
<path d="M13.9531 25.9062C20.4922 25.9062 25.9062 20.4805 25.9062 13.9531C25.9062 7.41406 20.4805 2 13.9414 2C7.41406 2 2 7.41406 2 13.9531C2 20.4805 7.42578 25.9062 13.9531 25.9062ZM13.9531 23.9141C8.42188 23.9141 4.00391 19.4844 4.00391 13.9531C4.00391 8.42188 8.41016 3.99219 13.9414 3.99219C19.4727 3.99219 23.9141 8.42188 23.9141 13.9531C23.9141 19.4844 19.4844 23.9141 13.9531 23.9141Z" fill="black" fill-opacity="0.85"/>
</svg>
