<svg width="28" height="28" viewBox="0 0 28 28" fill="none" xmlns="http://www.w3.org/2000/svg">
<path d="M13.9531 25.9062C20.4922 25.9062 25.9062 20.4805 25.9062 13.9531C25.9062 7.41406 20.4805 2 13.9414 2C7.41406 2 2 7.41406 2 13.9531C2 20.4805 7.42578 25.9062 13.9531 25.9062Z" fill="black" fill-opacity="0.85"/>
<path d="M11.2461 18.9688C10.7539 18.9688 10.3555 18.5703 10.3555 18.0781V10.7539L9.24219 11.6445C9.125 11.7383 8.99609 11.7969 8.82031 11.7969C8.45703 11.7969 8.19922 11.5273 8.19922 11.1523C8.19922 10.8359 8.35156 10.6016 8.57422 10.4375L9.89844 9.40625C10.1914 9.19531 10.6016 8.91406 11.1055 8.91406C11.7383 8.91406 12.125 9.27734 12.125 9.89844V18.0781C12.125 18.5703 11.7266 18.9688 11.2461 18.9688ZM15.6289 19.0039C15.0547 19.0039 14.832 18.6055 14.832 18.2539C14.832 17.9609 14.8672 17.8086 14.9727 17.5391L17.6562 10.6133V10.5078H14.5508C14.1289 10.5078 13.8477 10.2031 13.8477 9.78125C13.8477 9.37109 14.1289 9.06641 14.5508 9.06641H18.4531C18.9922 9.06641 19.4258 9.44141 19.4258 10.0039C19.4258 10.3555 19.332 10.6484 19.2031 11.0234L16.4375 18.3828C16.2734 18.8281 16.0742 19.0039 15.6289 19.0039Z" fill="white"/>
</svg>
