<svg width="28" height="28" viewBox="0 0 28 28" fill="none" xmlns="http://www.w3.org/2000/svg">
<path d="M13.9531 25.9062C20.4922 25.9062 25.9062 20.4805 25.9062 13.9531C25.9062 7.41406 20.4805 2 13.9414 2C7.41406 2 2 7.41406 2 13.9531C2 20.4805 7.42578 25.9062 13.9531 25.9062ZM13.9531 23.9141C8.42188 23.9141 4.00391 19.4844 4.00391 13.9531C4.00391 8.42188 8.41016 3.99219 13.9414 3.99219C19.4727 3.99219 23.9141 8.42188 23.9141 13.9531C23.9141 19.4844 19.4844 23.9141 13.9531 23.9141Z" fill="black" fill-opacity="0.85"/>
<path d="M10.2383 19.3203C10.8477 19.3203 11.1875 18.9336 11.1875 18.2773V14.4102H16.6719V18.2773C16.6719 18.9219 17.0234 19.3203 17.5977 19.3203C18.207 19.3203 18.5469 18.9336 18.5469 18.2773V9.40625C18.5469 8.75 18.207 8.36328 17.5977 8.36328C17.0234 8.36328 16.6719 8.76172 16.6719 9.40625V12.9453H11.1875V9.40625C11.1875 8.75 10.8477 8.36328 10.2383 8.36328C9.66406 8.36328 9.32422 8.76172 9.32422 9.40625V18.2773C9.32422 18.9219 9.66406 19.3203 10.2383 19.3203Z" fill="black" fill-opacity="0.85"/>
</svg>
