<svg width="28" height="28" viewBox="0 0 28 28" fill="none" xmlns="http://www.w3.org/2000/svg">
<path d="M6.67969 24.5977H20.8945C23.3555 24.5977 24.5742 23.3789 24.5742 20.9648V6.65625C24.5742 4.24219 23.3555 3.02344 20.8945 3.02344H6.67969C4.23047 3.02344 3 4.23047 3 6.65625V20.9648C3 23.3906 4.23047 24.5977 6.67969 24.5977ZM6.70312 22.7109C5.53125 22.7109 4.88672 22.0898 4.88672 20.8711V6.75C4.88672 5.53125 5.53125 4.91016 6.70312 4.91016H20.8711C22.0312 4.91016 22.6875 5.53125 22.6875 6.75V20.8711C22.6875 22.0898 22.0312 22.7109 20.8711 22.7109H6.70312Z" fill="black" fill-opacity="0.85"/>
<path d="M13.793 19.2891C16.793 19.2891 18.8672 16.9922 18.8672 13.6875C18.8672 10.3711 16.793 8.07422 13.793 8.07422C10.8047 8.07422 8.73047 10.3711 8.73047 13.6875C8.73047 16.9922 10.8047 19.2891 13.793 19.2891ZM13.793 17.8125C11.8594 17.8125 10.5937 16.1836 10.5937 13.6875C10.5937 11.1797 11.8594 9.55078 13.793 9.55078C15.7266 9.55078 16.9922 11.1797 16.9922 13.6875C16.9922 16.1836 15.7266 17.8125 13.793 17.8125Z" fill="black" fill-opacity="0.85"/>
</svg>
