<svg width="37" height="28" viewBox="0 0 37 28" fill="none" xmlns="http://www.w3.org/2000/svg">
<g clip-path="url(#clip0_2124_89303)">
<path d="M9.57422 21.7071C13.6055 21.7071 16.875 18.4375 16.875 14.3946C16.875 10.3633 13.6055 7.08203 9.57422 7.08203C5.53125 7.08203 2.25 10.3633 2.25 14.3946C2.25 18.4375 5.53125 21.7071 9.57422 21.7071ZM9.57422 19.7266C6.62109 19.7266 4.23047 17.3477 4.23047 14.3946C4.23047 11.4532 6.62109 9.0625 9.57422 9.0625C12.5039 9.0625 14.8945 11.4649 14.8945 14.3946C14.8945 17.336 12.5039 19.7266 9.57422 19.7266ZM27.4219 21.7071C31.4531 21.7071 34.7227 18.4375 34.7227 14.3946C34.7227 10.3633 31.4531 7.08203 27.4219 7.08203C23.3789 7.08203 20.0977 10.3633 20.0977 14.3946C20.0977 18.4375 23.3789 21.7071 27.4219 21.7071ZM27.4219 19.7266C24.4805 19.7266 22.0781 17.336 22.0781 14.3946C22.0781 11.4649 24.4805 9.0625 27.4219 9.0625C30.3633 9.0625 32.7422 11.4532 32.7422 14.3946C32.7422 17.3477 30.3633 19.7266 27.4219 19.7266ZM3.02344 12.9532H0.878906C0.304688 12.9532 0 13.2461 0 13.8321V14.3125C0 14.8985 0.304688 15.2032 0.878906 15.2032H3.02344V12.9532ZM33.9492 15.2032H36.1055C36.6797 15.2032 36.9727 14.8985 36.9727 14.3125V13.8321C36.9727 13.2461 36.6797 12.9532 36.1055 12.9532H33.9492V15.2032ZM16.3008 14.8164C16.8867 14.4532 17.707 14.2657 18.4922 14.2657C19.2656 14.2657 20.0859 14.4532 20.6836 14.8164V12.6953C20.0156 12.3789 19.1484 12.2617 18.4922 12.2617C17.8242 12.2617 16.957 12.3789 16.3008 12.6953V14.8164Z" fill="black" fill-opacity="0.85"/>
<path d="M28.1953 27.1211C29.0859 28 30.5391 28 31.418 27.0977C32.2852 26.2071 32.2852 24.7891 31.4062 23.8985L9.17578 1.69141C8.29688 0.800781 6.84375 0.800781 5.95312 1.69141C5.07422 2.55859 5.07422 4.02344 5.95312 4.90234L28.1953 27.1211Z" fill="white"/>
<path d="M29.1562 26.1485C29.5078 26.5 30.0938 26.5 30.4336 26.1485C30.7852 25.7969 30.7852 25.2227 30.4336 24.8711L8.20312 2.65234C7.85156 2.30078 7.27734 2.30078 6.91406 2.65234C6.57422 2.99219 6.57422 3.58984 6.91406 3.92969L29.1562 26.1485Z" fill="black" fill-opacity="0.85"/>
</g>
<defs>
<clipPath id="clip0_2124_89303">
<rect width="36.9727" height="26.7774" fill="white" transform="translate(0 1)"/>
</clipPath>
</defs>
</svg>
