<svg width="28" height="28" viewBox="0 0 28 28" fill="none" xmlns="http://www.w3.org/2000/svg">
<path d="M6.67969 24.5977H20.8945C23.3555 24.5977 24.5742 23.3789 24.5742 20.9648V6.65625C24.5742 4.24219 23.3555 3.02344 20.8945 3.02344H6.67969C4.23047 3.02344 3 4.23047 3 6.65625V20.9648C3 23.3906 4.23047 24.5977 6.67969 24.5977Z" fill="black" fill-opacity="0.85"/>
<path d="M10.5234 18.8086C10.0313 18.8086 9.63281 18.4102 9.63281 17.918V10.5938L8.53125 11.4844C8.40234 11.5781 8.28516 11.6367 8.08594 11.6367C7.72266 11.6367 7.47656 11.3672 7.47656 10.9922C7.47656 10.6758 7.64062 10.4414 7.85156 10.2773L9.17578 9.24609C9.46875 9.03516 9.87891 8.75391 10.3945 8.75391C11.0039 8.75391 11.4141 9.11719 11.4141 9.73828V17.918C11.4141 18.4102 10.9922 18.8086 10.5234 18.8086ZM16.4297 18.8906C14.6484 18.8906 13.2891 17.8359 13.2891 16.043C13.2891 14.7305 14.0859 13.7812 15.1172 13.5469V13.5117C14.3438 13.2773 13.5703 12.5508 13.5703 11.3203C13.5703 9.62109 14.9297 8.70703 16.4297 8.70703C18.1289 8.70703 19.3008 9.76172 19.3008 11.332C19.3008 12.4805 18.5742 13.2656 17.7656 13.5117V13.5469C18.7266 13.7695 19.5586 14.7188 19.5586 16.043C19.5586 17.6953 18.3398 18.8906 16.4297 18.8906ZM16.4297 12.9609C17.1914 12.9609 17.5898 12.293 17.5898 11.4961C17.5898 10.7227 17.2148 10.0078 16.4297 10.0078C15.6797 10.0078 15.2578 10.7227 15.2578 11.4961C15.2578 12.2109 15.6562 12.9609 16.4297 12.9609ZM16.4297 17.5781C17.3086 17.5781 17.7422 16.793 17.7422 15.9023C17.7422 14.9883 17.2852 14.2617 16.4297 14.2617C15.5625 14.2617 15.1172 15.0352 15.1172 15.9023C15.1172 16.793 15.5508 17.5781 16.4297 17.5781Z" fill="white"/>
</svg>
