<svg width="28" height="28" viewBox="0 0 28 28" fill="none" xmlns="http://www.w3.org/2000/svg">
<g clip-path="url(#clip0_2124_49988)">
<path d="M10.668 24.2031H16.4336C16.8086 24.2031 17.1133 23.9102 17.1133 23.5234C17.1133 23.1367 16.8086 22.8438 16.4336 22.8438H10.668C10.2813 22.8438 9.97656 23.1367 9.97656 23.5234C9.97656 23.9102 10.2813 24.2031 10.668 24.2031ZM13.5508 27.543C15.1328 27.543 16.2578 26.6992 16.5039 25.3633H10.5859C10.8086 26.6992 11.9336 27.543 13.5508 27.543Z" fill="black" fill-opacity="0.85"/>
<path d="M10.9258 21.6133H16.1641C16.5859 21.6133 16.8086 21.3906 16.8086 20.9805V20.0312C16.8086 14.2891 20.9102 11.207 22.4922 8.01953H4.62109C6.21484 11.1836 10.2812 14.3359 10.2812 20.0312V20.9805C10.2812 21.3906 10.5039 21.6133 10.9258 21.6133Z" fill="black" fill-opacity="0.85"/>
<path d="M4.09375 6.48438H22.9961C23.0547 6.22656 23.0898 5.95703 23.0898 5.6875C23.0898 2.67578 19.5859 1 13.5508 1C7.50391 1 4 2.67578 4 5.6875C4 5.95703 4.03516 6.21484 4.09375 6.48438Z" fill="black" fill-opacity="0.85"/>
</g>
<defs>
<clipPath id="clip0_2124_49988">
<rect width="19.0898" height="26.543" fill="white" transform="translate(4 1)"/>
</clipPath>
</defs>
</svg>
