<svg width="29" height="28" viewBox="0 0 29 28" fill="none" xmlns="http://www.w3.org/2000/svg">
<path d="M0.9375 17.6719H11.332C12.6445 17.6719 14.1094 17.8828 15.5977 18.3164C18.6914 19.207 21.6094 21.0586 24.4102 23.9297C26.0742 25.7227 28.6875 24.8086 28.6875 22.3359V5.53126C28.6875 3.05861 26.0742 2.14454 24.4102 3.93751C20.2969 8.20314 15.5156 10.1953 11.332 10.1953H0.9375V12.082H11.332C15.9961 12.082 21.2461 9.90235 25.6992 5.3086C26.3203 4.67579 26.8008 4.8047 26.8008 5.53126V22.3359C26.8008 23.0625 26.3203 23.1797 25.6992 22.5469C21.2461 17.9649 15.9961 15.7852 11.332 15.7852H0.9375V17.6719ZM0.9375 19.0547C1.46484 19.0547 1.88672 18.6211 1.88672 18.1055V9.73829C1.88672 9.22267 1.46484 8.80079 0.9375 8.80079C0.421875 8.80079 0 9.22267 0 9.73829V18.1055C0 18.6211 0.421875 19.0547 0.9375 19.0547ZM3.26953 19.5C3.26953 21.3984 4.82812 22.9453 6.72656 22.9453H13.3711C15.2695 22.9453 16.8281 21.3984 16.8281 19.5C16.8281 17.6016 15.2695 16.043 13.3711 16.043H6.72656C4.82812 16.043 3.26953 17.6016 3.26953 19.5ZM5.15625 19.5C5.15625 18.6445 5.87109 17.9297 6.72656 17.9297H13.3711C14.2266 17.9297 14.9414 18.6445 14.9414 19.5C14.9414 20.3555 14.2266 21.0469 13.3711 21.0469H6.72656C5.87109 21.0469 5.15625 20.3555 5.15625 19.5Z" fill="black" fill-opacity="0.85"/>
</svg>
