<svg width="28" height="28" viewBox="0 0 28 28" fill="none" xmlns="http://www.w3.org/2000/svg">
<path d="M6.67969 24.5977H20.8945C23.3555 24.5977 24.5742 23.3789 24.5742 20.9648V6.65625C24.5742 4.24219 23.3555 3.02344 20.8945 3.02344H6.67969C4.23047 3.02344 3 4.23047 3 6.65625V20.9648C3 23.3906 4.23047 24.5977 6.67969 24.5977ZM6.70312 22.7109C5.53125 22.7109 4.88672 22.0898 4.88672 20.8711V6.75C4.88672 5.53125 5.53125 4.91016 6.70312 4.91016H20.8711C22.0312 4.91016 22.6875 5.53125 22.6875 6.75V20.8711C22.6875 22.0898 22.0312 22.7109 20.8711 22.7109H6.70312Z" fill="black" fill-opacity="0.85"/>
<path d="M11.6133 19.0195H17.0156C17.4609 19.0195 17.7891 18.7266 17.7891 18.2578C17.7891 17.7773 17.4609 17.4844 17.0156 17.4844H12.5625V9.25781C12.5625 8.61328 12.2344 8.20312 11.6133 8.20312C11.0156 8.20312 10.6875 8.63672 10.6875 9.25781V17.9766C10.6875 18.5977 11.0156 19.0195 11.6133 19.0195Z" fill="black" fill-opacity="0.85"/>
</svg>
