<svg width="28" height="28" viewBox="0 0 28 28" fill="none" xmlns="http://www.w3.org/2000/svg">
<g clip-path="url(#clip0_2124_67754)">
<path d="M13.9531 25.9062C20.4922 25.9062 25.9062 20.4805 25.9062 13.9531C25.9062 7.41406 20.4805 2 13.9414 2C7.41406 2 2 7.41406 2 13.9531C2 20.4805 7.42578 25.9062 13.9531 25.9062ZM13.9531 23.9141C8.42188 23.9141 4.00391 19.4844 4.00391 13.9531C4.00391 8.42188 8.41016 3.99219 13.9414 3.99219C19.4727 3.99219 23.9141 8.42188 23.9141 13.9531C23.9141 19.4844 19.4844 23.9141 13.9531 23.9141Z" fill="black" fill-opacity="0.85"/>
<path d="M13.9531 17.9961C16.1797 17.9961 17.9961 16.1797 17.9961 13.9531C17.9961 11.7266 16.1797 9.91016 13.9531 9.91016C11.7266 9.91016 9.91016 11.7266 9.91016 13.9531C9.91016 16.1797 11.7266 17.9961 13.9531 17.9961ZM13.9648 8.84375C14.4453 8.84375 14.7969 8.49219 14.7969 8C14.7969 7.51953 14.4453 7.16797 13.9648 7.16797C13.4844 7.16797 13.1328 7.51953 13.1328 8C13.1328 8.49219 13.4844 8.84375 13.9648 8.84375ZM16.9531 9.62891C17.4336 9.62891 17.7852 9.27734 17.7852 8.79688C17.7852 8.31641 17.4336 7.96484 16.9531 7.96484C16.4727 7.96484 16.1211 8.31641 16.1211 8.79688C16.1211 9.27734 16.4727 9.62891 16.9531 9.62891ZM19.1211 11.8086C19.6016 11.8086 19.9531 11.457 19.9531 10.9766C19.9531 10.4961 19.6016 10.1445 19.1211 10.1445C18.6406 10.1445 18.2891 10.4961 18.2891 10.9766C18.2891 11.457 18.6406 11.8086 19.1211 11.8086ZM19.918 14.7852C20.3984 14.7852 20.75 14.4336 20.75 13.9531C20.75 13.4727 20.3984 13.1211 19.918 13.1211C19.4375 13.1211 19.0859 13.4727 19.0859 13.9531C19.0859 14.4336 19.4375 14.7852 19.918 14.7852ZM19.1211 17.7617C19.6016 17.7617 19.9531 17.4102 19.9531 16.9297C19.9531 16.4492 19.6016 16.0977 19.1211 16.0977C18.6406 16.0977 18.2891 16.4492 18.2891 16.9297C18.2891 17.4102 18.6406 17.7617 19.1211 17.7617ZM16.9531 19.9414C17.4336 19.9414 17.7852 19.5898 17.7852 19.0977C17.7852 18.6172 17.4336 18.2656 16.9531 18.2656C16.4727 18.2656 16.1211 18.6172 16.1211 19.0977C16.1211 19.5898 16.4727 19.9414 16.9531 19.9414ZM13.9648 20.7266C14.4453 20.7266 14.7969 20.375 14.7969 19.8945C14.7969 19.4141 14.4453 19.0625 13.9648 19.0625C13.4844 19.0625 13.1328 19.4141 13.1328 19.8945C13.1328 20.375 13.4844 20.7266 13.9648 20.7266ZM10.9883 19.9414C11.4687 19.9414 11.8203 19.5898 11.8203 19.0977C11.8203 18.6172 11.4687 18.2656 10.9883 18.2656C10.5078 18.2656 10.1562 18.6172 10.1562 19.0977C10.1562 19.5898 10.5078 19.9414 10.9883 19.9414ZM8.80859 17.7617C9.30078 17.7617 9.65234 17.4102 9.65234 16.9297C9.65234 16.4492 9.30078 16.0977 8.80859 16.0977C8.32812 16.0977 7.97656 16.4492 7.97656 16.9297C7.97656 17.4102 8.32812 17.7617 8.80859 17.7617ZM8.02344 14.7852C8.50391 14.7852 8.85547 14.4336 8.85547 13.9531C8.85547 13.4727 8.50391 13.1211 8.02344 13.1211C7.54297 13.1211 7.19141 13.4727 7.19141 13.9531C7.19141 14.4336 7.54297 14.7852 8.02344 14.7852ZM8.80859 11.8086C9.30078 11.8086 9.65234 11.457 9.65234 10.9766C9.65234 10.4961 9.30078 10.1445 8.80859 10.1445C8.32812 10.1445 7.97656 10.4961 7.97656 10.9766C7.97656 11.457 8.32812 11.8086 8.80859 11.8086ZM10.9883 9.62891C11.4687 9.62891 11.8203 9.27734 11.8203 8.79688C11.8203 8.31641 11.4687 7.96484 10.9883 7.96484C10.5078 7.96484 10.1562 8.31641 10.1562 8.79688C10.1562 9.27734 10.5078 9.62891 10.9883 9.62891Z" fill="black" fill-opacity="0.85"/>
</g>
<defs>
<clipPath id="clip0_2124_67754">
<rect width="23.9062" height="23.918" fill="white" transform="translate(2 2)"/>
</clipPath>
</defs>
</svg>
