<svg width="28" height="28" viewBox="0 0 28 28" fill="none" xmlns="http://www.w3.org/2000/svg">
<path d="M6.67969 24.5977H20.8945C23.3555 24.5977 24.5742 23.3789 24.5742 20.9648V6.65625C24.5742 4.24219 23.3555 3.02344 20.8945 3.02344H6.67969C4.23047 3.02344 3 4.23047 3 6.65625V20.9648C3 23.3906 4.23047 24.5977 6.67969 24.5977Z" fill="black" fill-opacity="0.85"/>
<path d="M9.02344 18.6797C8.47266 18.6797 8.21484 18.3867 8.21484 17.9766C8.21484 17.6016 8.42578 17.2969 8.66016 17.0039L10.7578 14.332C11.4023 13.5117 12.0703 12.5273 12.0703 11.5547C12.0703 10.6992 11.6719 10.0664 10.9336 10.0664C10.2422 10.0664 9.94922 10.5703 9.71484 11.3789C9.59766 11.7773 9.35156 11.9648 8.95312 11.9648C8.48438 11.9648 8.22656 11.6484 8.22656 11.1914C8.22656 9.9375 9.39844 8.66016 10.9453 8.66016C12.6094 8.66016 13.7344 9.84375 13.7344 11.4727C13.7344 12.5391 13.3359 13.4297 12.1172 14.9297L10.3594 17.1562V17.2617H13.2188C13.6406 17.2617 13.9102 17.5078 13.9102 17.9766C13.9102 18.3984 13.6523 18.6797 13.2188 18.6797H9.02344ZM17.9531 18.8086C17.4609 18.8086 17.0625 18.4102 17.0625 17.9297V10.5937L15.9609 11.4961C15.832 11.5781 15.7148 11.6367 15.5156 11.6367C15.1523 11.6367 14.8945 11.3672 14.8945 10.9922C14.8945 10.6758 15.0703 10.4414 15.293 10.2773L16.6172 9.25781C16.8984 9.03516 17.3086 8.75391 17.8125 8.75391C18.4453 8.75391 18.832 9.11719 18.832 9.73828V17.9297C18.832 18.4102 18.4336 18.8086 17.9531 18.8086Z" fill="white"/>
</svg>
