<svg width="33" height="28" viewBox="0 0 33 28" fill="none" xmlns="http://www.w3.org/2000/svg">
<path d="M25.1836 17.5898C29.8477 17.5898 32.0977 13.9688 32.0977 12.0352C32.0977 11.5782 31.8984 11.25 31.5234 11.25C30.9492 11.25 30.0938 12 28.4414 12C25.5352 12 23.8125 10.336 23.8125 7.65237C23.8125 6.09378 24.6328 4.96878 24.6328 4.34769C24.6328 3.98441 24.3867 3.73832 23.918 3.75003C21.5273 3.84378 18.3164 6.70316 18.3164 10.6641C18.3164 14.543 21.3164 17.5898 25.1836 17.5898Z" fill="black" fill-opacity="0.85"/>
<path d="M6.31641 25.0195H18.9961C23.1211 25.0195 26.3555 21.8555 26.3555 17.8008C26.3555 14.0156 23.4844 11.1094 19.6406 10.7109C17.9531 8.05079 15.2344 6.51562 12.1289 6.51562C7.86328 6.51562 4.21875 9.59766 3.41016 13.7344C1.3125 14.7188 0 16.7461 0 19.1367C0 22.582 2.64844 25.0195 6.31641 25.0195Z" fill="white"/>
<path d="M6.31641 23.5664H18.9961C22.3242 23.5664 24.9023 21.0469 24.9023 17.8008C24.9023 14.5781 22.2773 12.1406 18.7734 12.1172C17.4023 9.49219 14.9531 7.96875 12.1289 7.96875C8.30859 7.96875 5.08595 10.9336 4.72267 14.7891C2.73048 15.3867 1.45312 17.0742 1.45312 19.1367C1.45312 21.7617 3.43359 23.5664 6.31641 23.5664Z" fill="black" fill-opacity="0.85"/>
</svg>
