<svg width="28" height="28" viewBox="0 0 28 28" fill="none" xmlns="http://www.w3.org/2000/svg">
<path d="M6.67969 24.5977H20.8945C23.3555 24.5977 24.5742 23.3789 24.5742 20.9648V6.65625C24.5742 4.24219 23.3555 3.02344 20.8945 3.02344H6.67969C4.23047 3.02344 3 4.23047 3 6.65625V20.9648C3 23.3906 4.23047 24.5977 6.67969 24.5977ZM6.70312 22.7109C5.53125 22.7109 4.88672 22.0898 4.88672 20.8711V6.75C4.88672 5.53125 5.53125 4.91016 6.70312 4.91016H20.8711C22.0312 4.91016 22.6875 5.53125 22.6875 6.75V20.8711C22.6875 22.0898 22.0312 22.7109 20.8711 22.7109H6.70312Z" fill="black" fill-opacity="0.85"/>
<path d="M10.0781 18.7734C12.4102 18.7734 13.1133 16.1484 13.1133 13.793C13.1133 11.4375 12.4102 8.8125 10.0781 8.8125C7.74609 8.8125 7.04297 11.4375 7.04297 13.793C7.04297 16.1484 7.74609 18.7734 10.0781 18.7734ZM10.0781 17.3789C9.11719 17.3789 8.75391 15.8203 8.75391 13.793C8.75391 11.7539 9.11719 10.1953 10.0781 10.1953C11.0391 10.1953 11.4023 11.7539 11.4023 13.793C11.4023 15.8203 11.0391 17.3789 10.0781 17.3789ZM17.5078 18.7734C19.8516 18.7734 20.543 16.1484 20.543 13.793C20.543 11.4375 19.8516 8.8125 17.5078 8.8125C15.1758 8.8125 14.4727 11.4375 14.4727 13.793C14.4727 16.1484 15.1758 18.7734 17.5078 18.7734ZM17.5078 17.3789C16.5469 17.3789 16.1836 15.8203 16.1836 13.793C16.1836 11.7539 16.5469 10.1953 17.5078 10.1953C18.4688 10.1953 18.832 11.7539 18.832 13.793C18.832 15.8203 18.4688 17.3789 17.5078 17.3789Z" fill="black" fill-opacity="0.85"/>
</svg>
