<svg width="28" height="28" viewBox="0 0 28 28" fill="none" xmlns="http://www.w3.org/2000/svg">
<g clip-path="url(#clip0_2124_24829)">
<path d="M8 24.3555C8 25.9023 9.03125 26.8867 10.6719 26.8867H17.0938C18.7227 26.8867 19.7656 25.9023 19.7656 24.3555V3.53125C19.7656 1.99609 18.7227 1 17.0938 1H10.6719C9.03125 1 8 1.99609 8 3.53125V24.3555ZM9.73438 24.1094V3.77734C9.73438 3.12109 10.168 2.71094 10.8711 2.71094H16.8945C17.5977 2.71094 18.0312 3.12109 18.0312 3.77734V24.1094C18.0312 24.7656 17.5977 25.1758 16.8945 25.1758H10.8711C10.168 25.1758 9.73438 24.7656 9.73438 24.1094ZM12.0078 14.8984C12.7578 14.8984 13.3672 14.2773 13.3672 13.5273C13.3672 12.7773 12.7578 12.1562 12.0078 12.1562C11.2461 12.1562 10.625 12.7773 10.625 13.5273C10.625 14.2773 11.2461 14.8984 12.0078 14.8984ZM15.7812 14.8984C16.5312 14.8984 17.1406 14.2773 17.1406 13.5273C17.1406 12.7773 16.5312 12.1562 15.7812 12.1562C15.0195 12.1562 14.3984 12.7773 14.3984 13.5273C14.3984 14.2773 15.0195 14.8984 15.7812 14.8984ZM13.8828 10.6914C15.6875 10.6914 17.1406 9.23828 17.1406 7.43359C17.1406 5.62891 15.6875 4.17578 13.8828 4.17578C12.0898 4.17578 10.625 5.62891 10.625 7.43359C10.625 9.23828 12.0898 10.6914 13.8828 10.6914ZM13.8945 8.74609C13.168 8.74609 12.5703 8.16016 12.5703 7.43359C12.5703 6.70703 13.168 6.12109 13.8945 6.12109C14.6211 6.12109 15.207 6.70703 15.207 7.43359C15.207 8.16016 14.6211 8.74609 13.8945 8.74609Z" fill="black" fill-opacity="0.85"/>
</g>
<defs>
<clipPath id="clip0_2124_24829">
<rect width="11.7656" height="25.957" fill="white" transform="translate(8 1)"/>
</clipPath>
</defs>
</svg>
