<svg width="28" height="28" viewBox="0 0 28 28" fill="none" xmlns="http://www.w3.org/2000/svg">
<path d="M13.9531 25.9062C20.4922 25.9062 25.9062 20.4805 25.9062 13.9531C25.9062 7.41406 20.4805 2 13.9414 2C7.41406 2 2 7.41406 2 13.9531C2 20.4805 7.42578 25.9062 13.9531 25.9062Z" fill="black" fill-opacity="0.85"/>
<path d="M10.0039 19.0039C9.57031 19.0039 9.21875 18.6523 9.21875 18.2188V9.64062C9.21875 9.20703 9.57031 8.84375 10.0039 8.84375C10.4492 8.84375 10.8125 9.20703 10.8125 9.64062V14.7852H10.8359L13.4609 11.8555C13.8242 11.4336 14.3164 11.5273 14.5742 11.7969C14.8203 12.0195 14.9023 12.418 14.5625 12.7695L12.5938 14.832L14.5625 17.668C14.9023 18.1719 14.7617 18.6055 14.4688 18.8281C14.1289 19.0508 13.6133 19.0273 13.2969 18.5469L11.4453 15.8164L10.8125 16.4258V18.2188C10.8125 18.6523 10.4492 19.0039 10.0039 19.0039ZM16.8242 19.0156C16.4141 19.0156 16.0859 18.6758 16.0859 18.2656V12.3125C16.0859 11.9141 16.4023 11.5977 16.8008 11.5977C17.1992 11.5977 17.5273 11.9141 17.5273 12.3125V13.0508H17.5977C17.7266 12.2773 18.2305 11.6094 18.9922 11.6094C19.2383 11.6094 19.4375 11.6797 19.6016 11.832C19.7305 11.9609 19.8008 12.1367 19.8008 12.3828C19.8008 12.6172 19.707 12.793 19.5781 12.9102C19.3789 13.0625 19.0625 13.1211 18.7695 13.1211C17.8789 13.1211 17.5859 13.8594 17.5859 14.7383V18.2656C17.5859 18.6758 17.2578 19.0156 16.8242 19.0156Z" fill="white"/>
</svg>
