<svg width="28" height="28" viewBox="0 0 28 28" fill="none" xmlns="http://www.w3.org/2000/svg">
<path d="M13.9531 25.9062C20.4922 25.9062 25.9062 20.4805 25.9062 13.9531C25.9062 7.41406 20.4805 2 13.9414 2C7.41406 2 2 7.41406 2 13.9531C2 20.4805 7.42578 25.9062 13.9531 25.9062ZM13.9531 23.9141C8.42188 23.9141 4.00391 19.4844 4.00391 13.9531C4.00391 8.42188 8.41016 3.99219 13.9414 3.99219C19.4727 3.99219 23.9141 8.42188 23.9141 13.9531C23.9141 19.4844 19.4844 23.9141 13.9531 23.9141Z" fill="black" fill-opacity="0.85"/>
<path d="M14 21.207C17.3633 21.207 19.6016 18.9219 19.6016 15.5C19.6016 9.79297 14.75 7.41406 11.3867 7.41406C10.7891 7.41406 10.4141 7.64844 10.4141 8.04688C10.4141 8.21094 10.4844 8.36328 10.6133 8.52734C11.3516 9.41797 12.125 10.4961 12.1367 11.75C12.1367 12.0547 12.1016 12.3008 11.9023 12.6523L12.2188 12.5938C11.9258 11.6563 11.1641 10.9883 10.4844 10.9883C10.2266 10.9883 10.0508 11.1875 10.0508 11.4688C10.0508 11.6211 10.0977 12.0195 10.0977 12.3125C10.0977 13.7305 9.00781 14.5742 9.00781 16.8594C9.00781 19.4609 10.9883 21.207 14 21.207ZM14.1523 19.4141C12.9688 19.4141 12.1602 18.6875 12.1602 17.6094C12.1602 16.4961 12.9688 16.0977 13.0742 15.3828C13.0742 15.3125 13.1211 15.3008 13.168 15.3477C13.4609 15.5938 13.6367 15.9219 13.8125 16.2852C14.1523 15.8281 14.3047 14.8672 14.1992 13.8359C14.1875 13.7539 14.2227 13.7422 14.2812 13.7539C15.6875 14.4102 16.3906 15.8047 16.3906 17.0352C16.3906 18.2891 15.6641 19.4141 14.1523 19.4141Z" fill="black" fill-opacity="0.85"/>
</svg>
