<svg width="28" height="28" viewBox="0 0 28 28" fill="none" xmlns="http://www.w3.org/2000/svg">
<path d="M13.9531 25.9062C20.4922 25.9062 25.9062 20.4805 25.9062 13.9531C25.9062 7.41406 20.4805 2 13.9414 2C7.41406 2 2 7.41406 2 13.9531C2 20.4805 7.42578 25.9062 13.9531 25.9062Z" fill="black" fill-opacity="0.85"/>
<path d="M10.5898 19.0859C8.17578 19.0859 7.46094 16.3906 7.46094 13.9531C7.46094 11.5156 8.17578 8.82031 10.5898 8.82031C13.0039 8.82031 13.7305 11.5156 13.7305 13.9531C13.7305 16.3906 13.0039 19.0859 10.5898 19.0859ZM10.5898 17.6445C11.5742 17.6445 11.9492 16.0508 11.9492 13.9531C11.9492 11.8438 11.5742 10.2617 10.5898 10.2617C9.60547 10.2617 9.23047 11.8438 9.23047 13.9531C9.23047 16.0508 9.60547 17.6445 10.5898 17.6445ZM16.4844 19.0039C15.8984 19.0039 15.6875 18.6055 15.6875 18.2539C15.6875 17.9609 15.7227 17.8086 15.8281 17.5391L18.5 10.6133V10.5078H15.3945C14.9844 10.5078 14.7031 10.2031 14.7031 9.78125C14.7031 9.37109 14.9844 9.06641 15.3945 9.06641H19.3086C19.8477 9.06641 20.2695 9.44141 20.2695 10.0039C20.2695 10.3555 20.1875 10.6484 20.0469 11.0234L17.293 18.3828C17.1289 18.8281 16.9297 19.0039 16.4844 19.0039Z" fill="white"/>
</svg>
