<svg width="28" height="28" viewBox="0 0 28 28" fill="none" xmlns="http://www.w3.org/2000/svg">
<g clip-path="url(#clip0_2124_24700)">
<path d="M3.67969 24.5977H23.9531C26.4141 24.5977 27.6328 23.3789 27.6328 20.9648V6.65625C27.6328 4.24219 26.4141 3.02344 23.9531 3.02344H3.67969C1.23047 3.02344 0 4.23047 0 6.65625V20.9648C0 23.3906 1.23047 24.5977 3.67969 24.5977Z" fill="black" fill-opacity="0.85"/>
<path d="M13.8164 19.8047C10.5117 19.8047 7.81641 17.1211 7.81641 13.793C7.81641 10.4883 10.5117 7.80469 13.8164 7.80469C17.1211 7.80469 19.8281 10.4883 19.8281 13.793C19.8281 17.1211 17.1211 19.8047 13.8164 19.8047Z" fill="white"/>
</g>
<defs>
<clipPath id="clip0_2124_24700">
<rect width="27.6328" height="21.5977" fill="white" transform="translate(0 3)"/>
</clipPath>
</defs>
</svg>
