<svg width="28" height="28" viewBox="0 0 28 28" fill="none" xmlns="http://www.w3.org/2000/svg">
<g clip-path="url(#clip0_2124_49995)">
<path d="M13.8711 23.7305C20.4219 23.7305 25.7305 18.4219 25.7305 11.8711C25.7305 5.32031 20.4219 0 13.8711 0C7.30859 0 2 5.30859 2 11.8711C2 18.4219 7.30859 23.7305 13.8711 23.7305ZM13.8711 21.8438C8.35156 21.8438 3.88672 17.3789 3.88672 11.8711C3.88672 6.35156 8.35156 1.88672 13.8711 1.88672C19.3789 1.88672 23.8438 6.35156 23.8438 11.8711C23.8438 17.3789 19.3789 21.8438 13.8711 21.8438ZM12.9219 23.0039V26.1797H14.8086V23.0039H12.9219ZM7.64844 27.293H20.082C20.5273 27.293 20.8086 26.9766 20.8086 26.5195C20.8086 25.6406 20.0938 25.0195 18.9805 25.0195H8.76172C7.64844 25.0195 6.93359 25.6406 6.93359 26.5195C6.93359 26.9766 7.21484 27.293 7.64844 27.293Z" fill="black" fill-opacity="0.85"/>
<path d="M10.1328 19.3242C11.8789 19.3242 12.8047 17.8594 13.8125 15.1875C14.0469 15.1992 14.2461 15.1875 14.457 15.1523V17.8125C14.457 19.1602 15.1367 19.8867 16.4492 19.8867C18.8398 19.8867 21.2539 17.7188 21.2539 15.6797C21.2539 13.9336 19.8125 13.0312 17.1992 12.0469C17.2109 11.8125 17.1992 11.5898 17.1758 11.3438H19.7422C21.0781 11.3438 21.8164 10.6641 21.8164 9.35156C21.8164 6.96094 19.6484 4.54688 17.6094 4.54688C15.8867 4.54688 14.9727 5.96484 14 8.53125C13.7891 8.53125 13.5195 8.53125 13.2852 8.58984V6.05859C13.2852 4.72266 12.6055 3.99609 11.293 3.99609C8.89062 3.99609 6.47656 6.15234 6.47656 8.20312C6.47656 9.9375 7.92969 10.8516 10.543 11.8359C10.543 12.0586 10.5664 12.3164 10.6133 12.5273H7.98828C6.65234 12.5273 5.92578 13.207 5.92578 14.5195C5.92578 16.9219 8.08203 19.3242 10.1328 19.3242ZM13.8711 13.6055C12.9336 13.6055 12.1953 12.8672 12.1953 11.9414C12.1953 11.0039 12.9336 10.2656 13.8711 10.2656C14.7969 10.2656 15.5352 11.0039 15.5352 11.9414C15.5352 12.8672 14.7969 13.6055 13.8711 13.6055Z" fill="black" fill-opacity="0.85"/>
</g>
<defs>
<clipPath id="clip0_2124_49995">
<rect width="23.7305" height="27.293" fill="white" transform="translate(2)"/>
</clipPath>
</defs>
</svg>
