<svg width="37" height="28" viewBox="0 0 37 28" fill="none" xmlns="http://www.w3.org/2000/svg">
<path d="M0.996094 22.8125C1.64062 22.8125 1.99219 22.3789 1.99219 21.7578V8.35156H1.96875L4.82812 21.2656C4.98047 21.9922 5.42578 22.543 6.1875 22.543C6.9375 22.543 7.37109 21.9805 7.53516 21.2305L10.3945 8.35156H10.3594V21.7578C10.3594 22.3555 10.6875 22.8125 11.3555 22.8125C12 22.8125 12.3633 22.4141 12.3633 21.7578V6.62891C12.3633 5.71484 11.7305 5 10.7109 5C9.80859 5 9.26953 5.49219 9.07031 6.41797L6.1875 19.6602H6.22266L3.28125 6.41797C3.07031 5.49219 2.55469 5 1.62891 5C0.609375 5 0 5.72656 0 6.62891V21.7578C0 22.332 0.316406 22.8125 0.996094 22.8125ZM16.5352 22.7539C17.1797 22.7539 17.6133 22.3672 17.6133 21.6289V16.3203H19.7344C22.6875 16.3203 24.2227 13.7188 24.2227 10.7656C24.2227 7.83594 22.6992 5.22266 19.8281 5.22266H16.5117C15.832 5.22266 15.457 5.69141 15.457 6.35938V21.6289C15.457 22.332 15.832 22.7539 16.5352 22.7539ZM17.6133 14.4453V7.12109H19.3242C21.2812 7.12109 22.0781 8.73828 22.0781 10.7656C22.0781 12.793 21.3047 14.4453 19.3242 14.4453H17.6133ZM27.7969 22.8125C28.5234 22.8125 28.8633 22.2734 28.8633 21.6172V14.668H33.9727V21.6172C33.9727 22.3203 34.3477 22.8125 35.0625 22.8125C35.7656 22.8125 36.1406 22.3203 36.1406 21.6172V6.19531C36.1406 5.48047 35.7656 5 35.0625 5C34.3477 5 33.9727 5.48047 33.9727 6.19531V12.7578H28.8633V6.19531C28.8633 5.52734 28.5234 5 27.7969 5C27.082 5 26.707 5.48047 26.707 6.19531V21.6172C26.707 22.3203 27.082 22.8125 27.7969 22.8125Z" fill="black" fill-opacity="0.85"/>
</svg>
