<svg width="28" height="28" viewBox="0 0 28 28" fill="none" xmlns="http://www.w3.org/2000/svg">
<path d="M7.03906 22.0039L22.2617 6.76953L21.1484 5.65625L5.91406 20.8789L7.03906 22.0039ZM5.64453 17.2695L4.08594 18.8281C3.82812 19.0859 3.82812 19.4844 4.08594 19.7422C4.34375 20.0117 4.74219 20.0117 5.01172 19.7422L6.55859 18.1953C6.82812 17.9375 6.81641 17.5273 6.55859 17.2695C6.30078 17.0117 5.90234 17.0117 5.64453 17.2695ZM8.92578 13.9766L7.37891 15.5352C7.12109 15.793 7.12109 16.1914 7.37891 16.4609C7.63672 16.707 8.03516 16.707 8.30469 16.4609L9.85156 14.9023C10.1094 14.6445 10.0977 14.2344 9.85156 13.9766C9.59375 13.7188 9.19531 13.7188 8.92578 13.9766ZM12.2188 10.6836L10.6602 12.2422C10.4023 12.5 10.4023 12.9102 10.6602 13.168C10.9297 13.4258 11.3281 13.4258 11.5859 13.168L13.1445 11.6094C13.4023 11.3516 13.4023 10.9414 13.1445 10.6836C12.8867 10.4258 12.4766 10.4258 12.2188 10.6836ZM15.5117 7.39062L13.9531 8.94922C13.6953 9.20703 13.6953 9.61719 13.9531 9.875C14.2109 10.1211 14.6211 10.1328 14.8789 9.875L16.4375 8.31641C16.6953 8.05859 16.6953 7.64844 16.4375 7.39062C16.1797 7.13281 15.7695 7.13281 15.5117 7.39062ZM18.8047 4.10938L17.2461 5.65625C16.9883 5.91406 16.9883 6.32422 17.2461 6.58203C17.5039 6.82812 17.9141 6.83984 18.1719 6.58203L19.7305 5.02344C19.9883 4.76562 19.9883 4.36719 19.7305 4.10938C19.4727 3.83984 19.0625 3.83984 18.8047 4.10938ZM9.73438 21.3242L8.1875 22.8711C7.91797 23.1406 7.91797 23.5391 8.1875 23.7969C8.43359 24.0547 8.84375 24.0547 9.10156 23.7969L10.6602 22.2383C10.918 21.9805 10.918 21.582 10.6602 21.3242C10.4023 21.0664 9.99219 21.0547 9.73438 21.3242ZM13.0273 18.0195L11.4688 19.5781C11.2109 19.8359 11.2109 20.2461 11.4688 20.5039C11.7383 20.7617 12.1367 20.7617 12.3945 20.5039L13.9531 18.9453C14.2109 18.6875 14.2109 18.2891 13.9531 18.0195C13.6953 17.7852 13.2852 17.7734 13.0273 18.0195ZM16.3203 14.7383L14.7617 16.2852C14.5039 16.5547 14.5039 16.9531 14.7617 17.2109C15.0195 17.4805 15.4297 17.4805 15.6875 17.2109L17.2461 15.6641C17.5039 15.3945 17.5039 14.9961 17.2461 14.7383C16.9883 14.4805 16.5781 14.4805 16.3203 14.7383ZM19.6133 11.4453L18.0547 13.0039C17.7969 13.2617 17.8086 13.6602 18.0547 13.9297C18.3125 14.1875 18.7227 14.1875 18.9805 13.9297L20.5273 12.3711C20.7969 12.1133 20.7969 11.7031 20.5273 11.4453C20.2695 11.1875 19.8711 11.1875 19.6133 11.4453ZM22.9062 8.15234L21.3477 9.71094C21.0898 9.96875 21.1016 10.3789 21.3477 10.6367C21.6055 10.8945 22.0156 10.8945 22.2617 10.6367L23.8203 9.07812C24.0781 8.82031 24.0781 8.41016 23.8203 8.15234C23.5625 7.89453 23.1641 7.89453 22.9062 8.15234ZM13.9531 2C7.42578 2 2 7.41406 2 13.9531C2 20.4805 7.4375 25.9062 13.9648 25.9062C20.5039 25.9062 25.9062 20.4805 25.9062 13.9531C25.9062 7.41406 20.4922 2 13.9531 2ZM13.9531 3.59375C19.6133 3.59375 24.3125 8.29297 24.3125 13.9531C24.3125 19.6133 19.625 24.3125 13.9648 24.3125C8.30469 24.3125 3.59375 19.6133 3.59375 13.9531C3.59375 8.29297 8.29297 3.59375 13.9531 3.59375Z" fill="black" fill-opacity="0.85"/>
</svg>
