<svg width="28" height="28" viewBox="0 0 28 28" fill="none" xmlns="http://www.w3.org/2000/svg">
<path d="M13.9531 25.9062C20.4922 25.9062 25.9062 20.4805 25.9062 13.9531C25.9062 7.41406 20.4805 2 13.9414 2C7.41406 2 2 7.41406 2 13.9531C2 20.4805 7.42578 25.9062 13.9531 25.9062Z" fill="black" fill-opacity="0.85"/>
<path d="M8.87891 14.1406C8.87891 13.7891 9.13672 13.5312 9.46484 13.5312H10.1328V9.24219C10.1328 8.66797 10.5195 8.26953 11.1172 8.26953C11.6211 8.26953 11.9609 8.53906 12.1719 8.98438L14.4688 13.543H16.1914V9.07812C16.1914 8.59766 16.5078 8.28125 16.9648 8.28125C17.4219 8.28125 17.75 8.59766 17.75 9.07812V13.543H18.4414C18.7695 13.543 19.0273 13.7891 19.0273 14.1406C19.0273 14.4688 18.7695 14.75 18.4414 14.75H17.75V18.9922C17.75 19.5781 17.3633 19.9766 16.7656 19.9766C16.2617 19.9766 15.9219 19.707 15.7109 19.2617L13.4258 14.7383H11.6914V19.168C11.6914 19.6484 11.375 19.9648 10.918 19.9648C10.4609 19.9648 10.1328 19.6484 10.1328 19.168V14.7383H9.46484C9.125 14.7383 8.87891 14.4688 8.87891 14.1406ZM11.6914 13.5312H12.8281L11.6914 11.0938V13.5312ZM15.0664 14.75L16.1914 17.1758V14.75H15.0664Z" fill="white"/>
</svg>
