<svg width="29" height="30" viewBox="0 0 29 30" fill="none" xmlns="http://www.w3.org/2000/svg">
<g clip-path="url(#clip0_2124_46035)">
<path d="M8.86915 0.0224609C5.63477 0.0224609 3.00977 2.64746 3.00977 5.88184C3.00977 7.27637 3.50195 8.56543 4.31055 9.57324C4.50977 9.81934 4.74415 9.91308 4.9668 9.91308C5.54102 9.91308 6.03321 9.2334 5.54102 8.64746C4.90821 7.89746 4.54493 6.93652 4.54493 5.88184C4.54493 3.49121 6.47852 1.55762 8.86915 1.55762C11.2598 1.55762 13.1817 3.49121 13.1817 5.88184C13.1817 5.95215 13.1817 6.02246 13.1817 6.12793C13.1934 6.65527 13.5567 6.88965 13.9317 6.88965C14.295 6.88965 14.67 6.63184 14.7051 6.22168C14.7168 6.13965 14.7168 6.03418 14.7168 5.88184C14.7168 2.64746 12.1035 0.0224609 8.86915 0.0224609Z" fill="black" fill-opacity="0.85"/>
<path d="M20.2602 25.2764C25.0414 23.542 26.6352 19.5694 24.7719 14.4483L24.0102 12.3389C23.2954 10.4053 21.9477 9.56152 20.893 9.93652C20.6469 10.0303 20.5649 10.2061 20.6469 10.4287L20.9868 11.3663C21.1508 11.8116 21.0102 12.1045 20.7407 12.21C20.4594 12.3037 20.1547 12.1748 19.9907 11.7295L19.768 11.1202C19.3461 9.97168 18.35 9.49121 17.3657 9.85449C16.9204 10.0186 16.7797 10.2764 16.9204 10.6514L17.3891 11.9287C17.5414 12.3741 17.4008 12.667 17.143 12.7725C16.85 12.878 16.5454 12.7373 16.3813 12.292L15.9594 11.1202C15.4907 9.83105 14.5297 9.50293 13.5688 9.85449C13.1469 10.0068 12.9946 10.2881 13.1235 10.6514L14.0375 13.1475C14.2016 13.5928 14.0493 13.8858 13.7914 13.9913C13.4985 14.0967 13.1938 13.9561 13.0297 13.5108L9.99459 5.15527C9.70162 4.33496 8.97505 4.00684 8.28365 4.25293C7.54537 4.52246 7.22896 5.2373 7.52193 6.05762L11.975 18.292C12.0805 18.5967 11.9516 18.8194 11.7641 18.8897C11.5766 18.96 11.3774 18.9014 11.143 18.6436L8.1313 15.4092C7.68599 14.9405 7.21724 14.8233 6.72505 15.0108C5.97505 15.2803 5.68209 15.9717 5.90474 16.6045C5.99849 16.8506 6.1274 17.0381 6.24459 17.1905L9.97115 21.8663C13.1118 25.8037 16.7446 26.5537 20.2602 25.2764Z" fill="black" fill-opacity="0.85"/>
</g>
<defs>
<clipPath id="clip0_2124_46035">
<rect width="22.5203" height="29.8008" fill="white" transform="translate(3.00977 0.0224609)"/>
</clipPath>
</defs>
</svg>
