<svg width="28" height="28" viewBox="0 0 28 28" fill="none" xmlns="http://www.w3.org/2000/svg">
<g clip-path="url(#clip0_2124_88800)">
<path d="M6.67969 24.5977H20.8945C23.3555 24.5977 24.5742 23.3789 24.5742 20.9648V6.65625C24.5742 4.24219 23.3555 3.02344 20.8945 3.02344H6.67969C4.23047 3.02344 3 4.23047 3 6.65625V20.9648C3 23.3906 4.23047 24.5977 6.67969 24.5977ZM6.70312 22.7109C5.53125 22.7109 4.88672 22.0898 4.88672 20.8711V6.75C4.88672 5.53125 5.53125 4.91016 6.70312 4.91016H20.8711C22.0312 4.91016 22.6875 5.53125 22.6875 6.75V20.8711C22.6875 22.0898 22.0312 22.7109 20.8711 22.7109H6.70312Z" fill="black" fill-opacity="0.85"/>
<path d="M8.53125 10.4414C9.5625 10.4531 10.4297 9.58594 10.4297 8.51953C10.4297 7.47656 9.5625 6.63281 8.53125 6.63281C7.47656 6.63281 6.62109 7.47656 6.62109 8.51953C6.62109 9.58594 7.47656 10.418 8.53125 10.4414ZM19.0664 10.4414C20.0977 10.4531 20.9531 9.58594 20.9531 8.51953C20.9531 7.47656 20.0977 6.63281 19.0664 6.63281C18.0117 6.63281 17.1445 7.47656 17.1445 8.51953C17.1445 9.58594 18.0117 10.418 19.0664 10.4414ZM8.53125 20.9883C9.5625 20.9883 10.4297 20.1328 10.4297 19.0781C10.4297 18.0234 9.5625 17.1797 8.53125 17.1797C7.47656 17.1797 6.63281 18.0234 6.63281 19.0781C6.63281 20.1328 7.47656 20.9883 8.53125 20.9883ZM19.0664 20.9883C20.0977 20.9883 20.9531 20.1328 20.9531 19.0781C20.9531 18.0234 20.0977 17.1797 19.0664 17.1797C18.0117 17.1797 17.168 18.0234 17.168 19.0781C17.168 20.1328 18.0117 20.9883 19.0664 20.9883Z" fill="black" fill-opacity="0.85"/>
</g>
<defs>
<clipPath id="clip0_2124_88800">
<rect width="21.5742" height="21.5977" fill="white" transform="translate(3 3)"/>
</clipPath>
</defs>
</svg>
