<svg width="30" height="28" viewBox="0 0 30 28" fill="none" xmlns="http://www.w3.org/2000/svg">
<path d="M0 15.7656C0 18.7539 2.51953 21.1562 6.36328 21.1562H13.875V26.2422C13.875 26.7344 14.3086 27.1445 14.8125 27.1445C15.3164 27.1445 15.7383 26.7344 15.7383 26.2422V21.1562H23.8242C27.1992 21.1562 29.4609 19.0469 29.4609 16.2695C29.4609 13.9727 28.043 11.8633 25.7578 10.9141C25.7812 5.6875 22.0195 1.91406 17.2266 1.91406C14.0508 1.91406 11.7891 3.61328 10.3828 5.66406C7.72266 4.94922 4.35938 7.01172 4.30078 10.3047C1.65234 10.7266 0 13.0586 0 15.7656Z" fill="black" fill-opacity="0.85"/>
<path d="M13.875 20.6758V14.6406L13.9453 12.8945L13.3477 13.5273L11.3789 15.6133C11.2148 15.8008 10.957 15.8945 10.7344 15.8945C10.2422 15.8945 9.89062 15.543 9.89062 15.0742C9.89062 14.8164 9.99609 14.6289 10.1719 14.4531L14.1328 10.6328C14.3672 10.3984 14.5664 10.3164 14.8125 10.3164C15.0469 10.3164 15.2461 10.3984 15.4805 10.6328L19.4414 14.4531C19.6172 14.6289 19.7227 14.8164 19.7227 15.0742C19.7227 15.543 19.3477 15.8945 18.8672 15.8945C18.6445 15.8945 18.3984 15.8008 18.2344 15.6133L16.2656 13.5273L15.668 12.8945L15.7383 14.6406V20.6758C15.7383 21.1914 15.3164 21.6016 14.8125 21.6016C14.2969 21.6016 13.875 21.1914 13.875 20.6758Z" fill="white"/>
</svg>
