<svg width="28" height="28" viewBox="0 0 28 28" fill="none" xmlns="http://www.w3.org/2000/svg">
<path d="M9.83203 24.4375H17.2031C24 24.4375 27.0352 21.3086 27.0352 14.9102V7.55078C27.0352 5.19531 25.8164 4 23.4375 4H3.59766C1.21875 4 0 5.19531 0 7.55078V14.9102C0 21.3086 3.03516 24.4375 9.83203 24.4375Z" fill="black" fill-opacity="0.85"/>
<path d="M9.87891 18.9297C9.33984 18.9297 9.03516 18.6016 9.03516 18.0508V10.2461C9.03516 9.77734 9.43359 9.39062 9.89062 9.39062C10.3594 9.39062 10.7344 9.77734 10.7344 10.2461V17.5117H13.2188C13.6055 17.5117 13.9219 17.8281 13.9219 18.2266C13.9219 18.6133 13.6055 18.9297 13.2188 18.9297H9.87891ZM17.0273 19.0469C16.5586 19.0469 16.1719 18.6602 16.1719 18.1797V11.1484L15.1172 12.0039C14.9883 12.0977 14.8711 12.1445 14.6836 12.1445C14.332 12.1445 14.0977 11.8984 14.0977 11.5352C14.0977 11.2305 14.2617 10.9961 14.4609 10.8555L15.7383 9.84766C16.0195 9.64844 16.4062 9.37891 16.8867 9.37891C17.4961 9.37891 17.8828 9.73047 17.8828 10.3281V18.1797C17.8828 18.6602 17.4844 19.0469 17.0273 19.0469Z" fill="white"/>
</svg>
