<svg width="28" height="28" viewBox="0 0 28 28" fill="none" xmlns="http://www.w3.org/2000/svg">
<path d="M18.3783 26.6636L21.8471 20.6636C22.0463 20.3121 21.9408 19.8902 21.5892 19.7144C21.2494 19.5269 20.8392 19.6089 20.64 19.9722L17.1946 25.9488C16.9837 26.3004 17.0892 26.7105 17.4291 26.9214C17.7572 27.1207 18.1908 27.0035 18.3783 26.6636Z" fill="black" fill-opacity="0.85"/>
<path d="M13.7497 26.6519L17.1833 20.6871C17.3942 20.3121 17.2888 19.9136 16.9372 19.7144C16.5739 19.5035 16.1755 19.6089 15.9645 19.9839L12.5192 25.9722C12.3317 26.3004 12.4138 26.7105 12.777 26.9214C13.1286 27.1207 13.5505 27.0035 13.7497 26.6519Z" fill="black" fill-opacity="0.85"/>
<path d="M9.08562 26.6519L12.5192 20.6871C12.7302 20.3121 12.6247 19.9136 12.2731 19.7144C11.9099 19.5035 11.5114 19.6089 11.3005 19.9839L7.85515 25.9722C7.66765 26.3004 7.74968 26.7105 8.11296 26.9214C8.46452 27.1207 8.8864 27.0035 9.08562 26.6519Z" fill="black" fill-opacity="0.85"/>
<path d="M4.41104 26.6519L7.85635 20.6871C8.06729 20.3121 7.9501 19.9136 7.59854 19.7144C7.24697 19.5035 6.84854 19.6089 6.6376 19.9839L3.18057 25.9722C2.99307 26.3004 3.08682 26.7105 3.43838 26.9214C3.78994 27.1207 4.21182 27.0035 4.41104 26.6519Z" fill="black" fill-opacity="0.85"/>
<path d="M6.50781 17.8393H21.0508C24.8945 17.8393 27.7539 14.9213 27.7539 11.312C27.7539 7.57373 24.707 4.84326 20.7344 4.84326C19.2695 1.94873 16.5508 0.0854492 13.1641 0.0854492C8.75781 0.0854492 5.125 3.54248 4.73828 7.89014C2.61719 8.51123 1 10.351 1 12.8237C1 15.601 3.01562 17.8393 6.50781 17.8393ZM6.48438 15.9643C4.08203 15.9643 2.875 14.6167 2.875 12.8823C2.875 11.476 3.69531 10.2104 5.6875 9.6831C6.33203 9.50732 6.56641 9.20264 6.625 8.54639C6.89453 4.71435 9.76562 1.96045 13.1641 1.96045C15.8008 1.96045 17.875 3.41357 19.1406 6.00342C19.4102 6.57764 19.7617 6.77685 20.4531 6.77685C23.9219 6.77685 25.8789 8.86279 25.8789 11.3588C25.8789 13.9135 23.8398 15.9643 21.168 15.9643H6.48438Z" fill="black" fill-opacity="0.85"/>
</svg>
