<svg width="31" height="28" viewBox="0 0 31 28" fill="none" xmlns="http://www.w3.org/2000/svg">
<g clip-path="url(#clip0_2124_89278)">
<path d="M3.03516 12.9336C4.69922 12.9336 6.05859 11.5742 6.05859 9.88672C6.05859 8.23438 4.69922 6.86328 3.03516 6.86328C1.35938 6.86328 0 8.22266 0 9.88672C0 11.5742 1.37109 12.9336 3.03516 12.9336ZM3.03516 11.1055C2.37891 11.1055 1.82812 10.5547 1.82812 9.88672C1.82812 9.21875 2.37891 8.69141 3.03516 8.69141C3.67969 8.69141 4.23047 9.24219 4.23047 9.88672C4.23047 10.5547 3.70312 11.1055 3.03516 11.1055ZM15.0352 8.05859C16.6992 8.05859 18.0586 6.69922 18.0586 5.02344C18.0586 3.37109 16.6992 2 15.0352 2C13.3477 2 12 3.35938 12 5.02344C12 6.69922 13.3594 8.05859 15.0352 8.05859ZM15.0352 6.23047C14.3789 6.23047 13.8281 5.67969 13.8281 5.02344C13.8281 4.35547 14.3789 3.82812 15.0352 3.82812C15.6797 3.82812 16.2305 4.37891 16.2305 5.02344C16.2305 5.67969 15.7031 6.23047 15.0352 6.23047ZM27.0234 12.9336C28.6875 12.9336 30.0586 11.5742 30.0586 9.88672C30.0586 8.22266 28.6992 6.86328 27.0234 6.86328C25.3594 6.86328 24 8.23438 24 9.88672C24 11.5742 25.3594 12.9336 27.0234 12.9336ZM27.0234 11.1055C26.3555 11.1055 25.8281 10.5547 25.8281 9.88672C25.8281 9.24219 26.3789 8.69141 27.0234 8.69141C27.6797 8.69141 28.2305 9.21875 28.2305 9.88672C28.2305 10.5547 27.6797 11.1055 27.0234 11.1055ZM4.42969 12.1602L8.14453 14.4453C8.89453 14.9023 10.1367 14.9258 10.9102 13.8828L15.3398 7.94141L13.6641 7.22656L9.62109 12.6523C9.41016 12.957 9.1875 13.0156 8.78906 12.7695L5.36719 10.6602L4.42969 12.1602ZM25.6289 12.1484L24.6914 10.6484L21.293 12.7344C20.8711 13.0039 20.6367 12.9219 20.4023 12.6055L16.3945 7.20312L14.7305 7.92969L19.1719 13.8945C19.9219 14.9023 21.1523 14.9023 21.832 14.4805L25.6289 12.1484ZM5.90625 20.75H24.1641V18.9805H5.90625V20.75ZM2.97656 12.418L5.36719 22.1562C5.8125 23.9961 6.78516 24.9219 8.71875 24.9219H21.3398C23.2852 24.9219 24.2461 23.9961 24.7031 22.1562L27.0938 12.418L25.4414 11.668L22.9453 21.9336C22.7461 22.7656 22.2422 23.1523 21.3633 23.1523H8.70703C7.82812 23.1523 7.32422 22.7656 7.125 21.9336L4.61719 11.668L2.97656 12.418Z" fill="black" fill-opacity="0.85"/>
</g>
<defs>
<clipPath id="clip0_2124_89278">
<rect width="30.0586" height="24.4102" fill="white" transform="translate(0 2)"/>
</clipPath>
</defs>
</svg>
