<svg width="28" height="29" viewBox="0 0 28 29" fill="none" xmlns="http://www.w3.org/2000/svg">
<path d="M10.867 5.12109C12.2733 5.12109 13.4334 3.97266 13.4334 2.56641C13.4334 1.16016 12.2733 0 10.867 0C9.46077 0 8.31233 1.16016 8.31233 2.56641C8.31233 3.97266 9.46077 5.12109 10.867 5.12109ZM12.6365 23.0039C13.1756 23.0977 13.7615 22.8398 13.9725 22.125L15.5545 16.8281C15.7655 16.1016 15.4608 15.4805 14.7811 15.2344L10.6795 13.7578L11.2889 9.51562C11.324 9.28125 11.5115 9.21094 11.7342 9.30469L13.7967 10.2422C14.0662 10.3711 14.2772 10.4062 14.6287 10.4414L19.8084 10.9688C20.4647 11.0391 21.0506 10.5703 21.0975 9.92578C21.1561 9.29297 20.6873 8.70703 20.0428 8.64844L14.7576 8.13281L10.7615 6.29297C9.05061 5.51953 7.28108 6.38672 7.05842 8.09766L6.40217 13.0898C6.21467 14.5547 7.12874 15.8789 8.55842 16.2188L13.0115 17.2383L11.7225 21.457C11.4647 22.3125 12.0155 22.8984 12.6365 23.0039ZM4.57405 26.6953C5.06624 26.9648 5.75764 26.8945 6.20296 26.2266L9.37874 21.4805C9.50764 21.293 9.57796 21.0703 9.62483 20.7891L10.117 17.7539L8.32405 17.3438C8.0428 17.2852 7.77327 17.1914 7.50374 17.0625L7.28108 20.4141L4.26936 24.9258C3.75374 25.7109 4.04671 26.4023 4.57405 26.6953ZM23.2655 7.42969C23.0897 7.07812 22.7147 6.94922 22.3748 7.11328C21.824 7.38281 21.4256 7.59375 21.0272 7.80469C21.449 8.02734 21.7889 8.37891 21.9881 8.80078C22.2576 8.64844 22.5389 8.50781 22.9608 8.28516C23.2889 8.12109 23.4178 7.74609 23.2655 7.42969ZM7.37483 28.7695H11.7342C12.0975 28.7695 12.3905 28.4883 12.3905 28.125V26.0156H16.1053C16.4569 26.0156 16.7498 25.7109 16.7498 25.3477V23.2383H19.1522C19.5037 23.2383 19.7967 22.957 19.8084 22.5938L20.2186 12.0469C20.1014 12.0469 20.0311 12.0586 19.9373 12.0586C19.5975 12.082 19.2342 12.0469 18.9178 12L18.5194 21.9258H16.1053C15.7303 21.9258 15.449 22.1953 15.449 22.5703V24.7031H11.7342C11.3709 24.7031 11.0897 24.9844 11.0897 25.3477V27.4688H7.37483C7.01155 27.4688 6.70686 27.7734 6.70686 28.125C6.70686 28.4766 7.02327 28.7695 7.37483 28.7695Z" fill="black" fill-opacity="0.85"/>
</svg>
