<svg width="28" height="30" viewBox="0 0 28 30" fill="none" xmlns="http://www.w3.org/2000/svg">
<path d="M10.7734 9.5625C12.1797 9.5625 13.3398 8.41406 13.3398 6.98438C13.3398 5.57812 12.1797 4.44141 10.7734 4.44141C9.35547 4.44141 8.21875 5.57812 8.21875 6.98438C8.21875 8.41406 9.35547 9.5625 10.7734 9.5625ZM4 15.2695C4 16.1836 4.94922 16.6172 5.6875 16.2422L9.78906 14.1797C9.98828 14.0742 10.2109 14.1914 10.2578 14.4023L11.4531 19.1836L9.57812 23.8711H5.16016C4.52734 23.8711 4 24.3867 4 25.0195C4 25.6523 4.52734 26.168 5.16016 26.168H10.293C10.8203 26.168 11.1484 25.957 11.4062 25.4883L13.9023 20.8711L15.2969 24.5508L10.8672 27.5273C10.3398 27.8789 10.1875 28.6172 10.5391 29.1211C10.8906 29.6367 11.5586 29.8125 12.1328 29.4258L17.3711 25.9453C17.7695 25.6875 17.957 25.3008 17.7812 24.5977L14.6875 12.2344C14.6172 11.9766 14.6875 11.7422 14.9805 11.5898L22.9727 7.59375C23.5469 7.32422 23.7812 6.62109 23.4883 6.04688C23.1953 5.47266 22.5156 5.25 21.9414 5.53125L6.30859 13.3477V9.44531C6.30859 8.8125 5.80469 8.29688 5.16016 8.29688C4.52734 8.29688 4 8.8125 4 9.44531V15.2695ZM20.1602 4.53516C21.4141 4.53516 22.4219 3.52734 22.4219 2.27344C22.4219 1.03125 21.4141 0 20.1602 0C18.8945 0 17.8867 1.03125 17.8867 2.27344C17.8867 3.52734 18.8945 4.53516 20.1602 4.53516Z" fill="black" fill-opacity="0.85"/>
</svg>
