<svg width="28" height="28" viewBox="0 0 28 28" fill="none" xmlns="http://www.w3.org/2000/svg">
<g clip-path="url(#clip0_2124_89158)">
<path d="M2 17.6797C2 18.2422 2.375 18.6289 2.9375 18.6289H4.14453V22.5195C4.14453 23.082 4.51953 23.4453 5.08203 23.4453H8.96094V24.6523C8.96094 25.2148 9.34766 25.5898 9.91016 25.5898C10.4727 25.5898 10.8477 25.2148 10.8477 24.6523V23.4453H12.8516V24.6523C12.8516 25.2148 13.2266 25.5898 13.7891 25.5898C14.3516 25.5898 14.7383 25.2148 14.7383 24.6523V23.4453H16.7305V24.6523C16.7305 25.2148 17.1055 25.5898 17.668 25.5898C18.2422 25.5898 18.6172 25.2148 18.6172 24.6523V23.4453H22.4961C23.0586 23.4453 23.4336 23.082 23.4336 22.5195V18.6172H24.6406C25.2031 18.6172 25.5781 18.2305 25.5781 17.668C25.5781 17.1055 25.2031 16.7305 24.6406 16.7305H23.4336V14.7266H24.6406C25.2031 14.7266 25.5781 14.3516 25.5781 13.7891C25.5781 13.2266 25.2031 12.8398 24.6406 12.8398H23.4336V10.8477H24.6406C25.2031 10.8477 25.5781 10.4609 25.5781 9.89844C25.5781 9.33594 25.2031 8.96094 24.6406 8.96094H23.4336V5.09375C23.4336 4.53125 23.0586 4.15625 22.4961 4.15625H18.6172V2.96094C18.6172 2.39844 18.2422 2.01172 17.668 2.01172C17.1055 2.01172 16.7305 2.39844 16.7305 2.96094V4.15625H14.7383V2.96094C14.7383 2.39844 14.3516 2.01172 13.7891 2.01172C13.2266 2.01172 12.8516 2.39844 12.8516 2.96094V4.15625H10.8477V2.96094C10.8477 2.39844 10.4727 2.01172 9.91016 2.01172C9.34766 2.01172 8.96094 2.39844 8.96094 2.96094V4.15625H5.08203C4.51953 4.15625 4.14453 4.53125 4.14453 5.09375V8.97266H2.9375C2.375 8.97266 2 9.34766 2 9.91016C2 10.4727 2.375 10.8594 2.9375 10.8594H4.14453V12.8516H2.9375C2.375 12.8516 2 13.2383 2 13.8008C2 14.3633 2.375 14.7383 2.9375 14.7383H4.14453V16.7422H2.9375C2.375 16.7422 2 17.1172 2 17.6797ZM9.3125 19.2148C8.69141 19.2148 8.38672 18.9219 8.38672 18.2773V9.32422C8.38672 8.69141 8.69141 8.39844 9.3125 8.39844H18.2891C18.9102 8.39844 19.2031 8.69141 19.2031 9.32422V18.2773C19.2031 18.9219 18.9102 19.2148 18.2891 19.2148H9.3125ZM9.98047 17.3281C9.98047 17.5039 10.0977 17.6211 10.2734 17.6211H17.3164C17.5039 17.6211 17.6094 17.5039 17.6094 17.3281V10.2852C17.6094 10.0977 17.5039 9.99219 17.3164 9.99219H10.2734C10.0977 9.99219 9.98047 10.0977 9.98047 10.2852V17.3281Z" fill="black" fill-opacity="0.85"/>
</g>
<defs>
<clipPath id="clip0_2124_89158">
<rect width="23.5781" height="23.5898" fill="white" transform="translate(2 2)"/>
</clipPath>
</defs>
</svg>
