<svg width="35" height="28" viewBox="0 0 35 28" fill="none" xmlns="http://www.w3.org/2000/svg">
<path d="M0.878928 15.6523L9.75002 21.0898C10.8633 21.7695 12.1172 21.2891 12.1172 19.8594V8.67969C12.1172 7.28516 10.8867 6.76953 9.75002 7.46094L0.878928 12.8984C-0.304666 13.6133 -0.281228 14.9375 0.878928 15.6523ZM2.13283 14.5156C1.95705 14.3984 1.85158 14.2109 2.13283 14.0234L9.99612 9.16016C10.1133 9.07812 10.4063 9.04297 10.4063 9.35938V19.1914C10.4063 19.4844 10.1367 19.4844 9.99612 19.3906L2.13283 14.5156ZM17.461 26.5273C17.918 26.5273 18.3281 26.1641 18.3281 25.707V2.83203C18.3281 2.375 17.918 2.02344 17.461 2.02344C17.0039 2.02344 16.6055 2.375 16.6055 2.83203V25.707C16.6055 26.1641 17.0039 26.5273 17.461 26.5273ZM25.1719 21.0898L34.0547 15.6523C35.2031 14.9375 35.2266 13.6133 34.0547 12.8984L25.1719 7.46094C24.0352 6.76953 22.8047 7.28516 22.8047 8.67969V19.8594C22.8047 21.2891 24.0586 21.7695 25.1719 21.0898ZM24.9258 19.3906C24.7852 19.4727 24.5156 19.4844 24.5156 19.1914V9.35938C24.5156 9.04297 24.8086 9.07812 24.9258 9.16016L32.7891 14.0234C33.0703 14.2109 32.9766 14.4102 32.7891 14.5156L24.9258 19.3906Z" fill="black" fill-opacity="0.85"/>
</svg>
