<svg width="28" height="29" viewBox="0 0 28 29" fill="none" xmlns="http://www.w3.org/2000/svg">
<path d="M13.7624 27.9961C17.0788 27.9961 19.9733 24.4336 19.9733 20.6016C19.9733 20.0039 19.8678 19.5 19.6569 19.0898C19.9967 19.1836 20.3366 19.2656 20.6647 19.3594C21.4733 19.582 21.7077 19.8984 21.6022 20.6016L20.7467 26.2148C20.6413 26.8828 21.0514 27.2812 21.6022 27.2812C22.1764 27.2812 22.4342 26.9297 22.528 26.3438L23.4889 20.2617C23.7116 18.8906 23.1491 18.1406 21.6491 17.7891L16.3639 16.5586L16.3522 16.4414C16.8561 16.1953 17.196 15.7148 17.3483 15.1875L20.946 14.6719C22.4108 14.4727 23.0671 13.6523 23.0671 12.2109V8.15625C23.0671 7.58203 22.7389 7.25391 22.1764 7.25391C21.6139 7.25391 21.2858 7.59375 21.2858 8.15625V11.8477C21.2858 12.6797 20.8405 12.9492 20.0788 13.0547L17.3952 13.418C17.2663 13.0547 17.0319 12.7266 16.7155 12.5156V12.3984C18.7194 12.0469 19.8327 10.8281 19.8327 9.04688C19.8327 7.54688 19.2702 6.17578 18.3561 5.12109L18.4616 5.03906C19.5983 4.21875 19.8092 3.01172 19.071 1.71094L18.3796 0.574219C18.1569 0.175781 17.8991 0 17.5358 0C17.0436 0 16.6921 0.351562 16.6921 0.808594C16.6921 1.01953 16.7272 1.13672 16.8561 1.37109L17.4655 2.29688C17.8405 2.90625 17.8405 3.43359 17.36 3.85547C17.2897 3.91406 17.2311 3.96094 17.1608 4.00781C16.1882 3.35156 15.0163 2.96484 13.7624 2.96484C12.5319 2.96484 11.3717 3.35156 10.4108 3.99609C10.3405 3.96094 10.2702 3.90234 10.2116 3.84375C9.74284 3.43359 9.73112 2.90625 10.1178 2.29688L10.7272 1.37109C10.8561 1.13672 10.8913 1.01953 10.8913 0.808594C10.8913 0.351562 10.528 0 10.0475 0C9.68425 0 9.42643 0.175781 9.20378 0.574219L8.51237 1.71094C7.77409 3.01172 7.98503 4.21875 9.12175 5.03906L9.20378 5.09766C8.278 6.15234 7.69206 7.53516 7.69206 9.04688C7.69206 10.8281 8.81706 12.0469 10.821 12.3984V12.5156C10.4928 12.7266 10.2702 13.0547 10.1413 13.418L7.45768 13.0547C6.68425 12.9492 6.25065 12.6797 6.25065 11.8477V8.15625C6.25065 7.59375 5.92253 7.25391 5.36003 7.25391C4.79753 7.25391 4.4694 7.58203 4.4694 8.15625V12.2109C4.4694 13.6523 5.12565 14.4727 6.5905 14.6719L10.1881 15.1875C10.3405 15.7148 10.6686 16.1953 11.1842 16.4414V16.5586L5.88737 17.7891C4.37565 18.1406 3.82487 18.8906 4.04753 20.2617L5.00847 26.3438C5.0905 26.9297 5.36003 27.2812 5.93425 27.2812C6.48503 27.2812 6.89518 26.8828 6.78972 26.2148L5.93425 20.6016C5.81706 19.8984 6.06315 19.582 6.87175 19.3594C7.19987 19.2656 7.53972 19.1836 7.86784 19.0898C7.66862 19.5 7.56315 20.0039 7.56315 20.6016C7.56315 24.4336 10.4577 27.9961 13.7624 27.9961Z" fill="black" fill-opacity="0.85"/>
</svg>
