<svg width="28" height="28" viewBox="0 0 28 28" fill="none" xmlns="http://www.w3.org/2000/svg">
<path d="M13.9531 25.9062C20.4922 25.9062 25.9062 20.4805 25.9062 13.9531C25.9062 7.41406 20.4805 2 13.9414 2C7.41406 2 2 7.41406 2 13.9531C2 20.4805 7.42578 25.9062 13.9531 25.9062Z" fill="black" fill-opacity="0.85"/>
<path d="M15.958 9.16016C15.0908 9.16016 14.3877 8.46875 14.3877 7.58984C14.3877 6.72266 15.0908 6.00781 15.958 6.00781C16.8252 6.00781 17.5283 6.72266 17.5283 7.58984C17.5283 8.46875 16.8252 9.16016 15.958 9.16016ZM13.4854 15.4297C12.876 15.0781 12.0908 14.75 12.4424 13.543L13.0166 11.4805C13.0869 11.1875 12.876 11.0352 12.6533 11.0586L11.6338 11.1289L11.3291 13.2266C11.2705 13.6602 11.001 13.9062 10.6025 13.8594C10.2041 13.8242 9.98144 13.5195 10.04 13.0625L10.3799 10.4961C10.4385 10.0859 10.7197 9.81641 11.1182 9.78125L13.6612 9.60547C14.9737 9.51172 15.7705 9.86328 16.4385 10.7773L17.669 12.5L19.4971 11.6914C19.8955 11.5156 20.2471 11.6211 20.4229 11.9844C20.5987 12.3594 20.4463 12.7109 20.0479 12.8867L17.751 13.9062C17.4463 14.0352 17.1065 13.9414 16.919 13.6602L16.1221 12.5C15.9698 12.2773 15.6533 12.3125 15.583 12.5938L15.0557 14.4453L17.751 16.2148C18.1612 16.4961 18.2198 17.1055 17.8799 17.3984L15.3838 19.5195C14.9854 19.8594 14.5752 19.8008 14.3291 19.5312C14.0948 19.2734 14.0948 18.8516 14.4815 18.5117L16.251 16.9883L13.4854 15.4297ZM8.66894 21.6758C8.37597 21.418 8.30566 20.9375 8.68066 20.5742L11.1064 18.1602L11.9619 15.1133C12.2198 15.4414 12.6065 15.7461 13.1572 16.0508L13.3916 16.168L12.419 18.7109C12.2901 19.0156 12.2432 19.0508 12.044 19.2617L9.71191 21.5703C9.34863 21.9219 8.93847 21.8984 8.66894 21.6758Z" fill="white"/>
</svg>
