<svg width="28" height="31" viewBox="0 0 28 31" fill="none" xmlns="http://www.w3.org/2000/svg">
<path d="M22.9021 16.2662C23.3357 16.5591 23.8748 16.4654 24.1795 16.0084C25.6795 13.9459 26.5701 11.1099 26.5701 8.21538C26.5701 5.32085 25.6912 2.46148 24.1795 0.422413C23.8748 -0.0228996 23.3357 -0.128369 22.9021 0.1646C22.4686 0.457569 22.3982 1.00835 22.7381 1.48882C24.0154 3.30523 24.7537 5.71929 24.7537 8.21538C24.7537 10.7232 23.992 13.1255 22.7381 14.9419C22.41 15.4224 22.4686 15.9732 22.9021 16.2662Z" fill="black" fill-opacity="0.85"/>
<path d="M18.5546 13.2193C18.953 13.4888 19.5038 13.3951 19.8202 12.9498C20.7108 11.7544 21.2499 10.0084 21.2499 8.21537C21.2499 6.4224 20.7108 4.68803 19.8202 3.49272C19.5038 3.03568 18.953 2.95365 18.5546 3.2349C18.0858 3.56303 18.0038 4.13725 18.3671 4.61772C19.0585 5.55522 19.4335 6.856 19.4335 8.21537C19.4335 9.57475 19.0468 10.8638 18.3671 11.813C18.0155 12.3052 18.0858 12.8794 18.5546 13.2193Z" fill="black" fill-opacity="0.85"/>
<path d="M8.48828 0.703613C4.31641 0.703613 1 4.02002 1 8.16846C1 11.2974 2.875 14.063 5.80469 15.1763V26.7427C5.80469 27.0357 5.89844 27.2584 6.10938 27.481L8.06641 29.4498C8.26562 29.649 8.66406 29.7076 8.91016 29.4615L12.625 25.7465C12.8711 25.4888 12.8594 25.149 12.625 24.9029L10.3164 22.6294L13.4805 19.4771C13.7031 19.2427 13.7031 18.9028 13.457 18.6451L10.3281 15.4927C13.9492 14.0513 15.9648 11.3794 15.9648 8.16846C15.9648 4.04346 12.625 0.703613 8.48828 0.703613ZM8.48828 7.5708C7.39844 7.5708 6.53125 6.69189 6.53125 5.61377C6.53125 4.52393 7.38672 3.65674 8.48828 3.65674C9.56641 3.65674 10.4453 4.52393 10.4453 5.61377C10.4453 6.69189 9.56641 7.5708 8.48828 7.5708Z" fill="black" fill-opacity="0.85"/>
</svg>
