<svg width="28" height="28" viewBox="0 0 28 28" fill="none" xmlns="http://www.w3.org/2000/svg">
<path d="M9.83203 4C3.03516 4 0 7.12891 0 13.5273V20.875C0 23.2422 1.21875 24.4375 3.59766 24.4375H23.4375C25.8164 24.4375 27.0352 23.2305 27.0352 20.875V13.5273C27.0352 7.12891 24 4 17.2031 4H9.83203Z" fill="black" fill-opacity="0.85"/>
<path d="M8.80078 19.1289C8.23828 19.1289 7.93359 18.7773 7.93359 18.2031V10.082C7.93359 9.58984 8.33203 9.19141 8.8125 9.19141C9.29297 9.19141 9.70312 9.58984 9.70312 10.082V17.6523H12.2812C12.6797 17.6523 13.0078 17.9922 13.0078 18.3906C13.0078 18.7891 12.6797 19.1289 12.2812 19.1289H8.80078ZM14.8008 19.1172C14.2383 19.1172 13.9688 18.8125 13.9688 18.4023C13.9688 18.0273 14.2031 17.7227 14.4375 17.4414L16.5234 14.7578C17.1562 13.9375 17.8359 12.9531 17.8359 11.9922C17.8359 11.1367 17.4258 10.4922 16.7109 10.4922C16.0195 10.4922 15.7266 11.0078 15.4922 11.8164C15.3633 12.2031 15.1289 12.3906 14.7305 12.3906C14.25 12.3906 13.9922 12.0742 13.9922 11.6406C13.9922 10.3633 15.1758 9.08594 16.7227 9.08594C18.3867 9.08594 19.4883 10.2695 19.4883 11.9102C19.4883 12.9766 19.1016 13.8555 17.8828 15.3672L16.1367 17.582V17.6875H18.9961C19.4062 17.6875 19.6875 17.957 19.6875 18.4023C19.6875 18.8242 19.418 19.1172 18.9961 19.1172H14.8008Z" fill="white"/>
</svg>
