<svg width="28" height="28" viewBox="0 0 28 28" fill="none" xmlns="http://www.w3.org/2000/svg">
<path d="M9.83203 24.4375H17.2031C24 24.4375 27.0352 21.3086 27.0352 14.9102V7.55078C27.0352 5.19531 25.8164 4 23.4375 4H3.59766C1.21875 4 0 5.19531 0 7.55078V14.9102C0 21.3086 3.03516 24.4375 9.83203 24.4375Z" fill="black" fill-opacity="0.85"/>
<path d="M11.6016 19.2109C10.9805 19.2109 10.6289 18.7773 10.6289 18.1328V10.1523C10.6289 9.50781 10.9805 9.05078 11.6016 9.05078C12.2227 9.05078 12.6211 9.49609 12.6211 10.1523V17.5469H16.3359C16.793 17.5469 17.2031 17.8984 17.2031 18.3906C17.2031 18.8828 16.8047 19.2109 16.3359 19.2109H11.6016Z" fill="white"/>
</svg>
