<svg width="28" height="28" viewBox="0 0 28 28" fill="none" xmlns="http://www.w3.org/2000/svg">
<path d="M13.9531 25.9062C20.4922 25.9062 25.9062 20.4805 25.9062 13.9531C25.9062 7.41406 20.4805 2 13.9414 2C7.41406 2 2 7.41406 2 13.9531C2 20.4805 7.42578 25.9062 13.9531 25.9062ZM13.9531 23.9141C8.42188 23.9141 4.00391 19.4844 4.00391 13.9531C4.00391 8.42188 8.41016 3.99219 13.9414 3.99219C19.4727 3.99219 23.9141 8.42188 23.9141 13.9531C23.9141 19.4844 19.4844 23.9141 13.9531 23.9141Z" fill="black" fill-opacity="0.85"/>
<path d="M10.7891 18.8164C11.2461 18.8164 11.6328 18.4297 11.6328 17.9609V10.0156C11.6328 9.41797 11.2578 9.06641 10.6484 9.06641C10.1562 9.06641 9.75781 9.33594 9.48828 9.54688L8.19922 10.543C7.98828 10.707 7.82422 10.9297 7.82422 11.2344C7.82422 11.5977 8.07031 11.8555 8.43359 11.8555C8.60938 11.8555 8.72656 11.7969 8.84375 11.7148L9.92188 10.8477V17.9609C9.92188 18.4297 10.3086 18.8164 10.7891 18.8164ZM16.3672 18.8984C18.043 18.8984 19.3438 17.8438 19.3438 16.0859C19.3438 14.6328 18.4648 13.918 17.4805 13.8125V13.7773C18.5469 13.4961 19.0625 12.5469 19.0625 11.5625C19.0625 9.94531 17.8438 9.01953 16.3203 9.01953C15.1133 9.01953 14.0586 9.69922 13.7305 10.7422C13.6602 10.9648 13.6367 11.1758 13.6367 11.375C13.6367 11.7617 13.8945 12.0664 14.3633 12.0664C14.7617 12.0664 14.9844 11.9141 15.1016 11.5039C15.2891 10.8125 15.6641 10.3789 16.3203 10.3789C17.0938 10.3789 17.4688 10.9766 17.4688 11.75C17.4688 12.6055 16.9883 13.2266 16.1094 13.2266H15.8281C15.4297 13.2266 15.1836 13.4727 15.1836 13.8594C15.1836 14.2461 15.4414 14.4688 15.8281 14.4688H16.1211C17.1172 14.4688 17.668 15.0195 17.668 16.0391C17.668 16.8477 17.2461 17.5391 16.3672 17.5391C15.5117 17.5391 15.1367 16.9648 14.9961 16.4258C14.8789 16.0508 14.6328 15.8516 14.2461 15.8516C13.7891 15.8516 13.4844 16.1328 13.4844 16.5898C13.4844 16.8008 13.5195 17.0117 13.5781 17.1992C13.918 18.2891 15.1016 18.8984 16.3672 18.8984Z" fill="black" fill-opacity="0.85"/>
</svg>
