<svg width="28" height="28" viewBox="0 0 28 28" fill="none" xmlns="http://www.w3.org/2000/svg">
<g clip-path="url(#clip0_2124_24612)">
<path d="M14.2031 26.1523C19.2539 26.1523 22.3945 23.2461 22.3945 18.1953V8.57422C22.3945 6.71094 21.1641 5.52734 19.207 5.52734H7.88672V2.96094C7.88672 2.44531 7.46484 2.01172 6.9375 2.01172C6.42188 2.01172 6 2.44531 6 2.96094V18.1953C6 23.2461 9.14062 26.1523 14.2031 26.1523ZM14.2031 24.3125C10.3477 24.3125 7.88672 22.1211 7.88672 18.3242V7.41406H18.9609C19.9453 7.41406 20.5078 7.95312 20.5078 8.87891V18.3242C20.5078 22.1211 18.0586 24.3125 14.2031 24.3125ZM10.0898 16.4961H18.3047C18.9492 16.4961 19.3359 16.1094 19.3359 15.4883V9.60547C19.3359 8.97266 18.9492 8.58594 18.3047 8.58594H10.0898C9.45703 8.58594 9.05859 8.97266 9.05859 9.60547V15.4883C9.05859 16.1094 9.45703 16.4961 10.0898 16.4961ZM12.5391 22.2969H15.7969C16.2422 22.2969 16.5938 21.9453 16.5938 21.5C16.5938 21.0547 16.2422 20.7031 15.7969 20.7031H12.5391C12.1055 20.7031 11.7422 21.0547 11.7422 21.5C11.7422 21.9453 12.1055 22.2969 12.5391 22.2969Z" fill="black" fill-opacity="0.85"/>
</g>
<defs>
<clipPath id="clip0_2124_24612">
<rect width="16.3945" height="24.1523" fill="white" transform="translate(6 2)"/>
</clipPath>
</defs>
</svg>
