<svg width="28" height="28" viewBox="0 0 28 28" fill="none" xmlns="http://www.w3.org/2000/svg">
<path d="M13.9531 25.9062C20.4922 25.9062 25.9062 20.4805 25.9062 13.9531C25.9062 7.41406 20.4805 2 13.9414 2C7.41406 2 2 7.41406 2 13.9531C2 20.4805 7.42578 25.9062 13.9531 25.9062Z" fill="black" fill-opacity="0.85"/>
<path d="M17.5508 8.63281C17.7617 8.76172 17.9609 8.92578 18.1602 9.08984L9.06641 18.1602C8.89062 17.9727 8.73828 17.7852 8.60938 17.5625L9.82812 16.3438C10.0039 16.1797 9.99219 15.9336 9.82812 15.7695C9.66406 15.6172 9.42969 15.6172 9.27734 15.7695L8.17578 16.8359C7.73047 15.9688 7.47266 14.9961 7.47266 13.9648C7.47266 10.4375 10.4141 7.48438 13.9414 7.48438C14.9727 7.48438 15.957 7.75391 16.8359 8.19922L15.7578 9.27734C15.6172 9.44141 15.6055 9.67578 15.7578 9.82812C15.9336 10.0039 16.168 10.0039 16.3203 9.82812L17.5508 8.63281ZM15.3477 10.8125C15.5117 10.6484 15.5117 10.4141 15.3477 10.25C15.1953 10.0977 14.9492 10.0977 14.7969 10.25L13.9297 11.1172C13.7539 11.293 13.7539 11.5391 13.9297 11.6797C14.082 11.832 14.3164 11.832 14.4688 11.6797L15.3477 10.8125ZM13.5195 12.6406C13.6602 12.5 13.6602 12.2422 13.5195 12.1016C13.3555 11.9258 13.1094 11.9258 12.957 12.1016L12.0781 12.9688C11.9258 13.1328 11.9258 13.3672 12.0781 13.543C12.2188 13.6836 12.4883 13.6836 12.6289 13.543L13.5195 12.6406ZM11.668 14.4805C11.8086 14.3281 11.8203 14.0938 11.668 13.9414C11.5156 13.7656 11.2812 13.7656 11.1055 13.9414L10.2383 14.8086C10.0859 14.9609 10.0859 15.2188 10.2383 15.3594C10.4023 15.5234 10.6484 15.5352 10.8008 15.3594L11.668 14.4805ZM19.707 11.082C20.1523 11.9492 20.4219 12.9336 20.4219 13.9648C20.4219 17.4922 17.4688 20.4453 13.9414 20.4453C12.9102 20.4453 11.9375 20.1758 11.0586 19.7305L12.1484 18.6172C12.3008 18.4648 12.3008 18.2305 12.1484 18.0664C11.9844 17.9023 11.75 17.9023 11.5859 18.0664L10.332 19.2969C10.1211 19.1562 9.92188 19.0039 9.74609 18.8398L18.8164 9.75781C18.9922 9.95703 19.1445 10.1562 19.2852 10.3672L18.0898 11.5625C17.9141 11.7148 17.9141 11.9609 18.0898 12.125C18.2422 12.2891 18.4766 12.2891 18.6406 12.125L19.707 11.082ZM17.668 13.0977C17.8203 12.9453 17.8203 12.6875 17.668 12.5234C17.5039 12.3828 17.2578 12.3711 17.1055 12.5234L16.2383 13.4258C16.0977 13.5781 16.0859 13.8125 16.2383 13.9648C16.4023 14.1406 16.625 14.1406 16.8008 13.9648L17.668 13.0977ZM15.8164 14.9375C15.9922 14.7852 15.9922 14.5391 15.8164 14.375C15.6758 14.2344 15.418 14.2344 15.2773 14.375L14.375 15.2539C14.2344 15.4062 14.2344 15.6758 14.375 15.8164C14.5508 15.9688 14.7852 15.9688 14.9492 15.8164L15.8164 14.9375ZM13.9766 16.7891C14.1406 16.6133 14.1406 16.3672 13.9766 16.2266C13.8242 16.0742 13.5898 16.0742 13.4375 16.2266L12.5703 17.0938C12.3945 17.2578 12.3945 17.4922 12.5703 17.6562C12.6992 17.8086 12.957 17.8086 13.1094 17.6562L13.9766 16.7891Z" fill="white"/>
</svg>
