<svg width="28" height="28" viewBox="0 0 28 28" fill="none" xmlns="http://www.w3.org/2000/svg">
<path d="M3.67969 24.5742H23.9531C26.4141 24.5742 27.6328 23.3672 27.6328 20.9531V6.63281C27.6328 4.21875 26.4141 3 23.9531 3H3.67969C1.23047 3 0 4.21875 0 6.63281V20.9531C0 23.3672 1.23047 24.5742 3.67969 24.5742ZM3.70312 22.6875C2.53125 22.6875 1.88672 22.0664 1.88672 20.8477V6.73828C1.88672 5.51953 2.53125 4.88672 3.70312 4.88672H23.9297C25.0898 4.88672 25.7461 5.51953 25.7461 6.73828V20.8477C25.7461 22.0664 25.0898 22.6875 23.9297 22.6875H3.70312Z" fill="black" fill-opacity="0.85"/>
<path d="M11.1094 19.8984C11.625 19.8984 11.9766 19.5 11.9766 18.9609V13.5938C11.9766 12.9023 11.5898 12.6328 10.9922 12.6328H5.60156C5.05078 12.6328 4.69922 12.9727 4.69922 13.4883C4.69922 14.0039 5.0625 14.3438 5.625 14.3438H7.59375L9.32812 14.1562L7.5 15.8555L3.96094 19.3945C3.79688 19.5586 3.67969 19.793 3.67969 20.0273C3.67969 20.5547 4.01953 20.8945 4.54688 20.8945C4.82812 20.8945 5.03906 20.7891 5.20312 20.625L8.74219 17.0977L10.4297 15.293L10.2539 17.1094V18.9844C10.2539 19.5352 10.5938 19.8984 11.1094 19.8984Z" fill="black" fill-opacity="0.85"/>
</svg>
