<svg width="28" height="28" viewBox="0 0 28 28" fill="none" xmlns="http://www.w3.org/2000/svg">
<path d="M6.67969 24.5977H20.8945C23.3555 24.5977 24.5742 23.3789 24.5742 20.9648V6.65625C24.5742 4.24219 23.3555 3.02344 20.8945 3.02344H6.67969C4.23047 3.02344 3 4.23047 3 6.65625V20.9648C3 23.3906 4.23047 24.5977 6.67969 24.5977Z" fill="black" fill-opacity="0.85"/>
<path d="M8.89453 13.8047C8.89453 10.2656 10.8398 7.99219 13.8047 7.99219C15.7266 7.99219 17.3672 9.08203 17.9297 10.6641C18 10.8633 18.0352 11.0742 18.0352 11.2852C18.0352 11.7305 17.7539 12.0234 17.2969 12.0234C16.8633 12.0234 16.6523 11.7656 16.5234 11.3906C16.1367 10.2773 15.0938 9.46875 13.793 9.46875C11.8008 9.46875 10.5234 11.168 10.5234 13.793C10.5234 16.043 11.4258 17.6016 12.9258 18.0352V13.793C12.9258 13.4297 13.1719 13.1719 13.5234 13.1719C13.875 13.1719 14.1211 13.4062 14.1211 13.793V14.2969C14.4961 13.582 15.1875 13.207 15.9141 13.207C16.5703 13.207 17.0156 13.5 17.0156 13.9336C17.0156 14.25 16.7695 14.4727 16.418 14.4727C16.2773 14.4727 16.1133 14.4258 15.8672 14.4258C14.8477 14.4258 14.1328 15.2344 14.1328 16.3945V18.1406C15.3633 18.0352 16.3125 17.2969 16.6055 16.2656C16.7344 15.8438 16.9688 15.6328 17.3789 15.6328C17.8359 15.6328 18.1289 15.9258 18.1289 16.3594C18.1172 16.5703 18.082 16.7578 18.0234 16.9453C17.4492 18.5508 15.9375 19.6172 13.8047 19.6172C10.8398 19.6172 8.89453 17.3906 8.89453 13.8047Z" fill="white"/>
</svg>
