<svg width="28" height="28" viewBox="0 0 28 28" fill="none" xmlns="http://www.w3.org/2000/svg">
<path d="M13.9531 25.9062C20.4922 25.9062 25.9062 20.4805 25.9062 13.9531C25.9062 7.41406 20.4805 2 13.9414 2C7.41406 2 2 7.41406 2 13.9531C2 20.4805 7.42578 25.9062 13.9531 25.9062ZM13.9531 23.9141C8.42188 23.9141 4.00391 19.4844 4.00391 13.9531C4.00391 8.42188 8.41016 3.99219 13.9414 3.99219C19.4727 3.99219 23.9141 8.42188 23.9141 13.9531C23.9141 19.4844 19.4844 23.9141 13.9531 23.9141Z" fill="black" fill-opacity="0.85"/>
<path d="M13.9531 7.98828C13.4492 7.98828 13.0742 8.35156 13.0742 8.86719V14.7266L13.168 17.1992L11.9961 15.793L10.6016 14.3867C10.4375 14.2227 10.2266 14.1289 9.98047 14.1289C9.5 14.1289 9.13672 14.4922 9.13672 14.9727C9.13672 15.2188 9.20703 15.4297 9.35938 15.582L13.2734 19.4727C13.5078 19.707 13.707 19.8125 13.9531 19.8125C14.2109 19.8125 14.4219 19.6953 14.6445 19.4727L18.5469 15.582C18.6992 15.4297 18.793 15.2188 18.793 14.9727C18.793 14.4922 18.418 14.1289 17.9375 14.1289C17.6797 14.1289 17.4688 14.2109 17.3164 14.3867L15.9336 15.793L14.7383 17.2109L14.832 14.7266V8.86719C14.832 8.35156 14.4688 7.98828 13.9531 7.98828Z" fill="black" fill-opacity="0.85"/>
</svg>
