<svg width="29" height="28" viewBox="0 0 29 28" fill="none" xmlns="http://www.w3.org/2000/svg">
<g clip-path="url(#clip0_2124_88723)">
<path d="M3.67969 24.3477H25.1016C27.5391 24.3477 28.7812 23.1289 28.7812 20.7148V8.44531C28.7812 6.03125 27.5391 4.82422 25.1016 4.82422H21.75C20.8242 4.82422 20.543 4.63672 20.0156 4.05078L19.0781 2.99609C18.4922 2.35156 17.8945 2 16.6875 2H12.0117C10.8047 2 10.207 2.35156 9.62109 2.99609L8.68359 4.05078C8.15625 4.625 7.86328 4.82422 6.94922 4.82422H3.67969C1.23047 4.82422 0 6.03125 0 8.44531V20.7148C0 23.1289 1.23047 24.3477 3.67969 24.3477Z" fill="black" fill-opacity="0.85"/>
<path d="M6.25794 14.0117L8.13294 11.375C8.47279 10.9063 9.01185 10.9414 9.31654 11.375L11.2267 14.0117C11.5313 14.4336 11.4024 14.9492 10.8517 14.9492H9.62122C10.1485 17.0352 12.0821 18.6055 14.4142 18.6055C15.5509 18.6055 16.3946 18.2422 17.2384 17.5742C17.7071 17.2344 18.2345 17.1641 18.6446 17.6094C19.0665 18.043 18.9259 18.6641 18.3634 19.0977C17.3439 19.9414 15.879 20.4453 14.4142 20.4453C11.0743 20.4453 8.43763 18.207 7.86341 14.9492H6.62122C6.07044 14.9492 5.96497 14.4336 6.25794 14.0117ZM10.1603 10.1563C9.73841 9.72266 9.87904 9.11328 10.4415 8.67969C11.461 7.83594 12.9259 7.32031 14.3907 7.32031C17.7306 7.32031 20.3673 9.55859 20.9415 12.8164H22.1134C22.6642 12.8164 22.7696 13.332 22.4767 13.7539L20.6017 16.4023C20.2618 16.8711 19.7228 16.8359 19.4063 16.4023L17.5079 13.7539C17.2032 13.3438 17.3321 12.8164 17.8712 12.8164H19.1837C18.6563 10.7422 16.7228 9.17188 14.3907 9.17188C13.254 9.17188 12.3985 9.51172 11.5665 10.1914C11.0978 10.543 10.5821 10.6016 10.1603 10.1563Z" fill="white"/>
</g>
<defs>
<clipPath id="clip0_2124_88723">
<rect width="28.7812" height="23.0977" fill="white" transform="translate(0 2)"/>
</clipPath>
</defs>
</svg>
