<svg width="34" height="28" viewBox="0 0 34 28" fill="none" xmlns="http://www.w3.org/2000/svg">
<path d="M33.1075 21.8281C34.0684 18.3242 31.5137 16.8008 25.2442 16.8008C22.209 16.8008 19.0567 17.1055 16.6426 17.6094L17.0645 18.1953C17.709 12.957 16.1036 8.66797 12.5762 6.81641L12.9161 8.25781C14.2872 4.39062 11.8497 2 9.61138 2C7.92388 2 6.47075 3.3125 7.1856 6.23047L11.5919 24.1133C12.0255 25.8711 13.1856 26.8086 14.92 26.8086H28.5958C31.0098 26.8086 32.0762 25.6484 33.1075 21.8281Z" fill="black" fill-opacity="0.85"/>
<path d="M6.1187 13.4609L4.79448 8.42188C4.63042 7.8125 4.0562 7.66016 3.61089 8.12891L0.247609 11.668C-0.185985 12.1016 -0.0336417 12.7109 0.575734 12.8867L5.22808 14.2812C5.86089 14.4688 6.28276 14.0703 6.1187 13.4609Z" fill="black" fill-opacity="0.85"/>
<path d="M18.9272 9.27734C19.0913 9.89844 19.6538 10.0156 20.0991 9.54688L23.4741 6.03125C23.9077 5.58594 23.7436 4.98828 23.1577 4.8125L18.4702 3.40625C17.8608 3.21875 17.4389 3.62891 17.603 4.22656L18.9272 9.27734Z" fill="black" fill-opacity="0.85"/>
</svg>
