<svg width="35" height="34" viewBox="0 0 35 34" fill="none" xmlns="http://www.w3.org/2000/svg">
<g clip-path="url(#clip0_2124_45955)">
<path d="M31.3677 11.1467C33.1256 11.1467 34.5318 9.68189 34.5318 7.98267C34.5318 6.21314 33.1256 4.78345 31.3677 4.78345C29.5982 4.78345 28.1802 6.21314 28.1802 7.98267C28.1802 9.72876 29.5982 11.1467 31.3677 11.1467ZM12.4888 27.9162C13.0982 28.5491 14.1412 28.5022 14.8795 27.7287L19.9302 22.5256C20.0943 22.3498 20.2115 22.303 20.4693 22.4084L24.4068 23.8967C26.9381 24.8694 29.317 24.0373 30.4302 22.0217L32.9615 17.4162C33.9459 15.6233 33.6295 13.7717 31.9302 12.8577C30.2662 11.9553 28.5552 12.635 27.5592 14.4748L24.2662 20.4631L21.4771 19.4436C20.0826 18.9397 18.9342 19.1037 17.8326 20.2522L12.5943 25.6662C11.8677 26.4162 11.9381 27.3537 12.4888 27.9162Z" fill="black" fill-opacity="0.85"/>
<path d="M0.218437 8.55689L3.40594 12.6233C3.54657 12.8108 3.76922 12.8459 3.96844 12.7287C4.73015 12.3303 5.81999 12.0608 6.67547 12.0608C7.54265 12.0608 8.63249 12.3303 9.37078 12.7287C9.59343 12.8459 9.8161 12.8108 9.94499 12.6233L13.1442 8.55689C13.4606 8.14673 13.402 7.73658 13.027 7.43189C11.7262 6.4358 9.26532 5.67408 6.67547 5.67408C4.09735 5.67408 1.6364 6.4358 0.347344 7.43189C-0.0510941 7.73658 -0.0862501 8.14673 0.218437 8.55689ZM3.52312 15.0022C3.15984 14.5217 3.00749 14.0764 3.00749 13.5959C3.00749 12.4944 3.89812 12.2131 3.89812 11.5686C3.89812 10.9123 3.00749 10.6428 3.00749 9.50611C3.00749 9.03736 3.15984 8.59204 3.52312 8.1233C3.93328 7.63111 4.67157 8.15845 4.27313 8.67408C4.01532 9.03736 3.94499 9.23658 3.94499 9.50611C3.94499 10.303 4.8239 10.5256 4.8239 11.5686C4.8239 12.5998 3.94499 12.8342 3.94499 13.5959C3.94499 13.9006 4.01532 14.0764 4.27313 14.4514C4.65985 14.9553 3.93328 15.4944 3.52312 15.0022ZM6.27704 15.0022C5.93719 14.5217 5.77313 14.0764 5.77313 13.5959C5.77313 12.4944 6.66374 12.2131 6.66374 11.5686C6.66374 10.9123 5.77313 10.6428 5.77313 9.50611C5.77313 9.03736 5.92547 8.59204 6.27704 8.1233C6.68719 7.63111 7.43719 8.15845 7.05047 8.67408C6.78094 9.03736 6.71063 9.23658 6.71063 9.50611C6.71063 10.303 7.60124 10.5256 7.60124 11.5686C7.60124 12.5998 6.71063 12.8342 6.71063 13.5959C6.71063 13.9006 6.78093 14.0764 7.03874 14.4514C7.42547 14.9553 6.68719 15.4944 6.27704 15.0022ZM9.0661 15.0022C8.70282 14.5217 8.53874 14.0764 8.53874 13.5959C8.53874 12.4944 9.4411 12.2131 9.4411 11.5686C9.4411 10.9123 8.53874 10.6428 8.53874 9.50611C8.53874 9.03736 8.6911 8.59204 9.07782 8.1233C9.47624 7.63111 10.2028 8.15845 9.8161 8.67408C9.55829 9.03736 9.47624 9.23658 9.47624 9.50611C9.47624 10.303 10.3668 10.5256 10.3668 11.5686C10.3668 12.5998 9.47624 12.8342 9.47624 13.5959C9.47624 13.9006 9.55828 14.0764 9.80437 14.4514C10.2028 14.9553 9.46454 15.4944 9.0661 15.0022ZM15.3825 8.19361C15.7926 8.19361 16.1208 7.86548 16.1208 7.44361V4.25611H17.7614C18.4997 4.25611 18.7926 3.54126 18.3004 2.99048L15.945 0.295166C15.6051 -0.079834 15.1715 -0.079834 14.8317 0.295166L12.4411 2.99048C11.9723 3.49439 12.2418 4.25611 13.0036 4.25611H14.6325L14.6442 7.44361C14.6442 7.86548 14.9606 8.21704 15.3825 8.19361ZM17.5622 9.40064C17.5622 9.84595 17.902 10.1623 18.3004 10.1623H21.4879V11.7912C21.4879 12.5178 22.2379 12.8342 22.777 12.342L25.4489 9.96314C25.8356 9.63501 25.8122 9.20142 25.4489 8.88501L22.777 6.48267C22.2614 6.01392 21.4879 6.29517 21.4879 7.03345V8.66236H18.3004C17.8903 8.66236 17.5622 9.0022 17.5622 9.40064Z" fill="black" fill-opacity="0.85"/>
</g>
<defs>
<clipPath id="clip0_2124_45955">
<rect width="34.5153" height="33.3164" fill="white" transform="translate(0.015625 0.013916)"/>
</clipPath>
</defs>
</svg>
