<svg width="28" height="28" viewBox="0 0 28 28" fill="none" xmlns="http://www.w3.org/2000/svg">
<path d="M5 17.9609C5 18.5938 5.49219 19.0742 6.06641 19.0742C6.64062 19.0742 7.12109 18.5586 7.12109 18.0078V13.6719L6.91016 8.19922L8.84375 10.3906L20.4688 22.0156C20.6914 22.2383 20.9492 22.332 21.207 22.332C21.793 22.332 22.3086 21.8047 22.3086 21.2422C22.3086 20.9844 22.1914 20.7148 21.9805 20.5039L10.3672 8.86719L8.1875 6.95703L13.9062 7.14453H17.9844C18.5352 7.14453 19.0391 6.66406 19.0391 6.10156C19.0391 5.53906 18.5938 5.03516 17.9375 5.03516H6.14844C5.44531 5.03516 5.01172 5.50391 5.01172 6.17188L5 17.9609Z" fill="black" fill-opacity="0.85"/>
</svg>
