<svg width="28" height="28" viewBox="0 0 28 28" fill="none" xmlns="http://www.w3.org/2000/svg">
<path d="M9.23438 24.0352H18.3984C25.1953 24.0352 27.6328 21.5156 27.6328 15.2461V11.8008C27.6328 5.53125 25.1953 3 18.3984 3H9.23438C2.4375 3 0 5.53125 0 11.8008V15.2461C0 21.5156 2.4375 24.0352 9.23438 24.0352ZM9.23438 22.1484C3.70312 22.1484 1.88672 20.3555 1.88672 15.2461V11.8008C1.88672 6.69141 3.70312 4.88672 9.23438 4.88672H18.3984C23.9297 4.88672 25.7461 6.69141 25.7461 11.8008V15.2461C25.7461 20.3555 23.9297 22.1484 18.3984 22.1484H9.23438Z" fill="black" fill-opacity="0.85"/>
<path d="M8.36719 18.375C8.92969 18.375 9.22266 18.0352 9.22266 17.4961V15.1172H10.4648C12.2461 15.1172 13.2891 13.7578 13.2891 11.9531C13.2891 10.1719 12.2812 8.76562 10.5586 8.76562H8.35547C7.86328 8.76562 7.51172 9.09375 7.51172 9.66797V17.4961C7.51172 18.0469 7.81641 18.375 8.36719 18.375ZM9.22266 13.7695V10.1484H10.125C11.1094 10.1484 11.5898 10.8516 11.5898 11.9531C11.5898 12.9961 11.1562 13.7695 10.1133 13.7695H9.22266ZM17.3789 18.4688C19.0547 18.4688 20.3438 17.4141 20.3438 15.6562C20.3438 14.2031 19.4766 13.4883 18.4922 13.3828V13.3477C19.5469 13.0664 20.0625 12.1172 20.0625 11.1328C20.0625 9.51562 18.8555 8.58984 17.332 8.58984C16.1133 8.58984 15.0703 9.26953 14.7305 10.3125C14.6719 10.5352 14.6484 10.7461 14.6484 10.9453C14.6484 11.332 14.9062 11.6367 15.3633 11.6367C15.7617 11.6367 15.9961 11.4844 16.1133 11.0742C16.3008 10.3828 16.6758 9.94922 17.332 9.94922C18.1055 9.94922 18.4688 10.5469 18.4688 11.3203C18.4688 12.1758 18 12.7969 17.1211 12.7969H16.8398C16.4414 12.7969 16.1953 13.043 16.1953 13.4297C16.1953 13.8164 16.4531 14.0391 16.8398 14.0391H17.1328C18.1289 14.0391 18.6797 14.5898 18.6797 15.6094C18.6797 16.418 18.2461 17.1094 17.3789 17.1094C16.5234 17.1094 16.1484 16.5352 15.9961 15.9961C15.8906 15.6211 15.6328 15.4219 15.2578 15.4219C14.8008 15.4219 14.4961 15.7031 14.4961 16.1602C14.4961 16.3711 14.5312 16.582 14.5898 16.7695C14.918 17.8594 16.1133 18.4688 17.3789 18.4688Z" fill="black" fill-opacity="0.85"/>
</svg>
