<svg width="28" height="28" viewBox="0 0 28 28" fill="none" xmlns="http://www.w3.org/2000/svg">
<path d="M3 21.7344C3 22.25 3.42188 22.6836 3.9375 22.6836C4.46484 22.6836 4.88672 22.25 4.88672 21.7344V5.96094C4.88672 5.44531 4.46484 5.02344 3.9375 5.02344C3.42188 5.02344 3 5.44531 3 5.96094V21.7344ZM22.6875 21.7344C22.6875 22.25 23.1211 22.6836 23.6367 22.6836C24.1523 22.6836 24.5742 22.25 24.5742 21.7344V5.96094C24.5742 5.44531 24.1523 5.02344 23.6367 5.02344C23.1211 5.02344 22.6875 5.44531 22.6875 5.96094V21.7344Z" fill="black" fill-opacity="0.85"/>
<path d="M10.9922 18.6523C11.4961 18.6523 11.8008 18.2891 11.8008 17.7852V10.3789C11.8008 9.80469 11.4375 9.46484 10.8633 9.46484C10.3945 9.46484 10.0547 9.67578 9.69141 9.95703L8.36719 10.9414C8.13281 11.1055 7.99219 11.3047 7.99219 11.5859C7.99219 11.9258 8.23828 12.1836 8.57812 12.1836C8.74219 12.1836 8.85938 12.1367 8.98828 12.0313L10.1484 11.1641H10.1719V17.7852C10.1719 18.2891 10.4766 18.6523 10.9922 18.6523ZM14.5078 18.6172H18.8203C19.2305 18.6172 19.4766 18.3711 19.4766 17.9609C19.4766 17.5508 19.2188 17.3047 18.8203 17.3047H15.8086V17.2227L17.5547 15.2773C17.9648 14.8086 18.3047 14.3984 18.5508 14.0586C19.0078 13.4375 19.2656 12.8398 19.2656 12.0664C19.2656 10.4609 18.0703 9.48828 16.4883 9.48828C15.1289 9.48828 14.0156 10.4258 13.8047 11.4805C13.7812 11.5859 13.7695 11.7031 13.7695 11.8086C13.7695 12.2305 14.0273 12.5117 14.4492 12.5117C14.8125 12.5117 15.0352 12.3125 15.1758 11.9727C15.3633 11.2461 15.7969 10.7773 16.4883 10.7773C17.2617 10.7773 17.6953 11.375 17.6953 12.1367C17.6953 12.6992 17.4961 13.1211 17.1797 13.5781C16.9805 13.8594 16.7109 14.2109 16.3594 14.6211L14.1797 17.0703C13.9453 17.3164 13.7461 17.5742 13.7461 17.9375C13.7461 18.2656 13.9219 18.6172 14.5078 18.6172Z" fill="black" fill-opacity="0.85"/>
</svg>
