<svg width="28" height="28" viewBox="0 0 28 28" fill="none" xmlns="http://www.w3.org/2000/svg">
<g clip-path="url(#clip0_2124_88658)">
<path d="M6.67969 24.5977H20.8945C23.3555 24.5977 24.5742 23.3789 24.5742 20.9648V6.65625C24.5742 4.24219 23.3555 3.02344 20.8945 3.02344H6.67969C4.23047 3.02344 3 4.23047 3 6.65625V20.9648C3 23.3906 4.23047 24.5977 6.67969 24.5977Z" fill="black" fill-opacity="0.85"/>
<path d="M9.19922 20.2852C8.90625 20.2852 8.63672 20.0156 8.63672 19.7227V9.58594C8.63672 9.07031 8.88281 8.68359 9.375 8.46094C9.80859 8.26172 10.1953 8.15625 11.1328 8.15625C13.3008 8.15625 14.6836 9.23438 16.7227 9.23438C17.7188 9.23438 18.2461 8.97656 18.5977 8.97656C19.0898 8.97656 19.2773 9.23438 19.2773 9.58594V15.5391C19.2773 16.0898 19.043 16.4414 18.5391 16.6758C18.0938 16.8867 17.707 16.9805 16.7812 16.9805C14.6953 16.9805 13.3359 15.9258 11.1914 15.9258C10.4531 15.9258 9.97266 16.0664 9.75 16.1602V19.7227C9.75 20.0273 9.52734 20.2852 9.19922 20.2852Z" fill="white"/>
</g>
<defs>
<clipPath id="clip0_2124_88658">
<rect width="21.5742" height="21.5977" fill="white" transform="translate(3 3)"/>
</clipPath>
</defs>
</svg>
