<svg width="29" height="29" viewBox="0 0 29 29" fill="none" xmlns="http://www.w3.org/2000/svg">
<g clip-path="url(#clip0_2124_45943)">
<path d="M22.3375 8.37451C24.0953 8.37451 25.4898 6.90967 25.4898 5.21045C25.4898 3.44092 24.0953 2.01123 22.3375 2.01123C20.5679 2.01123 19.15 3.44092 19.15 5.21045C19.15 6.95654 20.5679 8.37451 22.3375 8.37451ZM3.45859 25.144C4.05624 25.7768 5.09921 25.73 5.84921 24.9565L10.8883 19.7534C11.0523 19.5776 11.1812 19.5307 11.4391 19.6362L15.3765 21.1245C17.9078 22.0971 20.2867 21.2651 21.4 19.2495L23.9312 14.644C24.9156 12.851 24.5992 10.9995 22.8882 10.0855C21.2359 9.18311 19.525 9.86279 18.5171 11.7026L15.2359 17.6909L12.4351 16.6714C11.0523 16.1674 9.9039 16.3315 8.80234 17.48L3.56405 22.894C2.82577 23.644 2.89609 24.5815 3.45859 25.144Z" fill="black" fill-opacity="0.85"/>
</g>
<defs>
<clipPath id="clip0_2124_45943">
<rect width="22.4664" height="23.7773" fill="white" transform="translate(3.02344 2.01123)"/>
</clipPath>
</defs>
</svg>
