<svg width="28" height="28" viewBox="0 0 28 28" fill="none" xmlns="http://www.w3.org/2000/svg">
<path d="M2.01172 13.8008C3.04297 12.3828 4.34375 11.0703 5.76172 9.99219C5.75 9.94531 5.75 9.88672 5.73828 9.82812C5.69141 8.97266 5.14062 7.30859 4.14453 7.16797C2.86719 8.99609 2.08203 11.1875 2 13.543C2 13.6367 2 13.7188 2.01172 13.8008ZM6.99219 9.125C7.36719 8.87891 7.75391 8.64453 8.14062 8.43359C7.89453 6.3125 7.98828 4.58984 8.35156 3.40625C7.05078 4.10938 5.90234 5.03516 4.92969 6.13672C6.10156 6.45312 6.75781 7.95312 6.99219 9.125ZM9.38281 7.8125C9.95703 7.54297 10.5547 7.30859 11.1641 7.10938C11.1406 6.86328 11.1172 6.62891 11.1172 6.38281C11.1172 4.50781 12.125 2.94922 13.6953 2C13.6133 2 13.5547 2 13.4727 2C12.1602 2.04688 10.8828 2.31641 9.71094 2.77344C9.39453 3.81641 9.16016 5.48047 9.38281 7.8125ZM12.4883 6.71094C13.9531 6.33594 15.4883 6.13672 17.082 6.13672C19.4609 6.13672 21.8281 6.60547 23.9492 7.47266C22.25 4.85938 19.5664 2.9375 16.4375 2.25781C13.9648 2.97266 12.4062 4.29688 12.4648 6.38281C12.4648 6.48828 12.4766 6.60547 12.4883 6.71094ZM5.73828 11.7383C4.39062 12.9336 3.13672 14.3633 2.16406 15.9219C2.62109 18.5938 4.00391 20.9961 5.96094 22.7773C4.54297 19.4492 5.5625 15.3008 5.73828 11.7383ZM7.12109 10.6484C7.15625 16.0039 4.74219 22.1445 9.92188 25.1211C11.1641 25.6133 12.5352 25.8945 13.9531 25.8945C14.6094 25.8945 15.2539 25.8477 15.875 25.7422C11.3984 20.2812 9.14844 14.3984 8.35156 9.85156C7.92969 10.0977 7.51953 10.3555 7.12109 10.6484ZM11.5273 8.38672C10.8594 8.62109 10.1914 8.89062 9.55859 9.20703C10.2734 13.625 12.5234 19.7305 17.3398 25.3906C19.8945 24.6289 22.1094 23.0117 23.6445 20.8672C23.4688 15.1016 13.6602 13.3789 11.5273 8.38672ZM24.6992 19.1211C25.4727 17.5391 25.9062 15.793 25.9062 13.9414C25.9062 12.3477 25.5898 10.8125 24.9922 9.42969C22.4961 8.12891 19.918 7.48438 17.082 7.48438C15.6172 7.48438 14.1992 7.66016 12.8516 8C14.7148 11.8555 22.9648 13.5898 24.6992 19.1211Z" fill="black" fill-opacity="0.85"/>
</svg>
