<svg width="33" height="28" viewBox="0 0 33 28" fill="none" xmlns="http://www.w3.org/2000/svg">
<path d="M0 15.1498C0 20.0833 2.88281 22.6732 7.89844 22.6732H25.6992C27.5039 22.6732 29.0391 22.849 30.4688 23.2123C31.6992 23.5169 32.6719 23.013 32.6719 21.7591V16.1458C32.6719 15.349 32.0977 14.763 31.2891 14.763H28.2539C27.2812 14.763 26.8008 14.3412 26.8945 13.4271L27.2461 9.99353C27.5391 7.13416 25.9102 5.39978 22.7227 5.39978C19.0312 5.4115 12.2227 5.55212 8.33203 6.00916C3 6.66541 0 9.92322 0 15.1498ZM1.88672 15.1498C1.88672 11.0131 4.24219 8.39978 8.49609 7.90759C12.3398 7.474 19.043 7.2865 22.7227 7.2865C24.75 7.2865 25.5703 8.10681 25.3828 9.78259L24.457 18.1029C24.2344 20.0716 23.3906 20.7865 21.2344 20.7865H7.86328C4.10156 20.7865 1.88672 18.8412 1.88672 15.1498Z" fill="black" fill-opacity="0.85"/>
<path d="M8.97672 25.9076C8.50797 25.2748 8.32047 24.888 8.32047 24.1615C8.32047 22.4505 9.9611 21.4779 9.9611 19.2162C9.9611 17.1771 8.43766 16.6732 8.43766 14.2474V13.8138H7.1486V14.2474C7.1486 17.2943 8.67204 17.6458 8.67204 19.2162C8.67204 21.1966 7.03141 21.9818 7.03141 24.2552C7.03141 25.1927 7.32438 25.8958 7.93375 26.6693C8.47282 27.3607 9.55094 26.6576 8.97672 25.9076ZM5.68375 13.6263C5.47282 13.9427 5.66032 14.388 6.08219 14.388H9.48063C9.91422 14.388 10.1135 13.9544 9.87907 13.6263L8.23844 11.1771C8.10954 10.9896 7.98063 10.9193 7.78141 10.9193C7.59391 10.9193 7.45328 11.0013 7.32438 11.1771L5.68375 13.6263ZM14.5666 25.9076C14.0861 25.2748 13.9104 24.888 13.9104 24.1615C13.9104 22.4505 15.5393 21.4779 15.5393 19.2162C15.5393 17.1771 14.0275 16.6732 14.0275 14.2474V13.8138H12.7385V14.2474C12.7385 17.2943 14.2502 17.6458 14.2502 19.2162C14.2502 21.1966 12.633 21.9818 12.633 24.2552C12.633 25.1927 12.926 25.8958 13.5354 26.6693C14.0744 27.3607 15.1291 26.6576 14.5666 25.9076ZM11.2619 13.6263C11.051 13.9427 11.2502 14.388 11.6838 14.388H15.0588C15.5041 14.388 15.7033 13.9427 15.4807 13.6263L13.8283 11.1771C13.6994 11.0013 13.5705 10.9193 13.3713 10.9193C13.1838 10.9193 13.0432 11.0013 12.9143 11.1771L11.2619 13.6263ZM20.1682 25.9076C19.6877 25.2748 19.5119 24.888 19.5119 24.1615C19.5119 22.4505 21.1291 21.4779 21.1291 19.2162C21.1291 17.1771 19.6057 16.6732 19.6057 14.2474V13.8138H18.3166V14.2474C18.3166 17.2943 19.84 17.6458 19.84 19.2162C19.84 21.1966 18.2111 21.9818 18.2111 24.2552C18.2111 25.1927 18.5041 25.8958 19.1135 26.6693C19.6525 27.3607 20.719 26.6576 20.1682 25.9076ZM16.8635 13.6263C16.6525 13.9427 16.84 14.388 17.2619 14.388H20.6604C21.1057 14.388 21.2932 13.9427 21.0705 13.6263L19.4182 11.1771C19.301 11.0013 19.1486 10.9193 18.9611 10.9193C18.7619 10.9193 18.6447 10.9896 18.5158 11.1771L16.8635 13.6263Z" fill="black" fill-opacity="0.85"/>
</svg>
