<svg width="28" height="29" viewBox="0 0 28 29" fill="none" xmlns="http://www.w3.org/2000/svg">
<path d="M4 14.8594C4 20.6133 8.61719 25.2305 14.3594 25.2305C20.1016 25.2305 24.707 20.6133 24.707 14.8594C24.707 9.11719 20.1016 4.51172 14.3594 4.51172C13.6328 4.51172 12.9414 4.59375 12.332 4.71094L15.4492 1.62891C15.625 1.44141 15.707 1.20703 15.707 0.960938C15.707 0.421875 15.3086 0 14.793 0C14.5 0 14.2656 0.09375 14.1016 0.28125L9.27344 5.17969C9.08594 5.36719 8.98047 5.625 8.98047 5.88281C8.98047 6.15234 9.07422 6.38672 9.27344 6.58594L14.1016 11.4375C14.2773 11.6133 14.5 11.707 14.7812 11.707C15.3086 11.707 15.707 11.3086 15.707 10.7695C15.707 10.5234 15.625 10.2891 15.4375 10.1016L11.9453 6.63281C12.625 6.46875 13.457 6.39844 14.3594 6.39844C19.0586 6.39844 22.8203 10.1602 22.8203 14.8594C22.8203 19.5703 19.0586 23.3438 14.3594 23.3438C9.66016 23.3438 5.88672 19.5703 5.88672 14.8594C5.88672 14.2969 5.53516 13.8867 4.97266 13.8867C4.39844 13.8867 4 14.2969 4 14.8594Z" fill="black" fill-opacity="0.85"/>
</svg>
