<svg width="34" height="28" viewBox="0 0 34 28" fill="none" xmlns="http://www.w3.org/2000/svg">
<path d="M0 14.4258C0 18.1406 1.20703 21.5508 3.24609 24.3281C3.60938 24.832 4.23047 24.8789 4.69922 24.5039C5.12109 24.1406 5.17969 23.5781 4.83984 23.1094C3.05859 20.6836 2.00391 17.6719 2.00391 14.4258C2.00391 11.1679 3.05859 8.16793 4.83984 5.71871C5.17969 5.2734 5.13281 4.69918 4.69922 4.3359C4.23047 3.96089 3.60938 4.01949 3.24609 4.51168C1.20703 7.28902 0 10.7109 0 14.4258ZM33.4453 14.4258C33.4453 10.7109 32.25 7.28902 30.1992 4.51168C29.8359 4.01949 29.2148 3.96089 28.7461 4.3359C28.3125 4.69918 28.2773 5.2734 28.6055 5.71871C30.3984 8.16793 31.4414 11.1679 31.4414 14.4258C31.4414 17.6719 30.3984 20.6836 28.6055 23.1094C28.2773 23.5781 28.3242 24.1406 28.7461 24.5039C29.2148 24.8789 29.8359 24.832 30.1992 24.3281C32.25 21.5508 33.4453 18.1406 33.4453 14.4258Z" fill="black" fill-opacity="0.85"/>
<path d="M16.7227 25.8516C22.9688 25.8516 28.1602 20.6719 28.1602 14.4258C28.1602 8.17969 22.9688 3 16.7109 3C10.4648 3 5.29688 8.16797 5.29688 14.4258C5.29688 20.6719 10.4766 25.8516 16.7227 25.8516ZM16.7227 23.8594C11.4961 23.8594 7.30078 19.6641 7.30078 14.4258C7.30078 9.17578 11.4844 4.98047 16.7109 4.98047C21.9492 4.98047 26.1562 9.17578 26.168 14.4258C26.1797 19.6523 21.9727 23.8594 16.7227 23.8594Z" fill="black" fill-opacity="0.85"/>
<path d="M12.8555 19.9453C13.2773 19.9453 13.582 19.7461 13.7578 19.1953L14.6133 16.6992H18.8086L19.6641 19.1953C19.8398 19.7344 20.1445 19.9453 20.5664 19.9453C21.082 19.9453 21.4336 19.6055 21.4336 19.1367C21.4336 18.9492 21.3867 18.7852 21.3047 18.5273L18.0234 9.67969C17.7891 9.07031 17.3438 8.75391 16.6992 8.75391C16.0664 8.75391 15.6328 9.07031 15.3984 9.67969L12.1172 18.5273C12.0352 18.7852 11.9883 18.9492 11.9883 19.125C11.9883 19.6172 12.3398 19.9453 12.8555 19.9453ZM15.082 15.293L16.6523 10.7578H16.7695L18.3398 15.293H15.082Z" fill="black" fill-opacity="0.85"/>
</svg>
