<svg width="29" height="29" viewBox="0 0 29 29" fill="none" xmlns="http://www.w3.org/2000/svg">
<g clip-path="url(#clip0_2124_45988)">
<path d="M6.29102 24.0379C9.80665 24.0379 12.6075 19.7722 12.6075 13.5144C12.6075 7.2566 9.80665 3.00269 6.29102 3.00269C2.99805 3.00269 0.326172 6.76441 0.00976562 12.4128C0.560547 11.3347 1.61524 10.6902 2.99805 10.6902C5.03711 10.6902 6.38477 12.1199 6.38477 14.2293C6.38477 16.3738 5.03711 17.7918 2.99805 17.7918C1.75586 17.7918 0.771485 17.2761 0.185547 16.3855C0.900391 21.0379 3.34961 24.0379 6.29102 24.0379ZM2.03711 13.8074C2.45899 13.8894 2.84571 13.5027 2.96289 12.9753C3.06836 12.448 2.81055 11.9441 2.36524 11.8621C1.95508 11.78 1.52149 12.1667 1.42774 12.6941C1.33399 13.2332 1.61524 13.7371 2.03711 13.8074ZM20.9043 24.0379C24.42 24.0379 27.2207 19.7722 27.2207 13.5144C27.2207 7.2566 24.42 3.00269 20.9043 3.00269C17.6114 3.00269 14.9395 6.76441 14.6231 12.4128C15.1739 11.3347 16.2286 10.6902 17.5996 10.6902C19.6504 10.6902 20.9981 12.1199 20.9981 14.2293C20.9981 16.3738 19.6504 17.7918 17.5996 17.7918C16.3692 17.7918 15.3848 17.2761 14.7989 16.3855C15.5137 21.0379 17.9629 24.0379 20.9043 24.0379ZM16.6504 13.8074C17.0606 13.8894 17.4707 13.5027 17.5762 12.9753C17.67 12.448 17.4121 11.9324 16.9786 11.8621C16.5684 11.78 16.1348 12.1667 16.041 12.6941C15.9473 13.2332 16.2168 13.7254 16.6504 13.8074Z" fill="black" fill-opacity="0.85"/>
</g>
<defs>
<clipPath id="clip0_2124_45988">
<rect width="27.2109" height="21.0352" fill="white" transform="translate(0.00976562 3.00269)"/>
</clipPath>
</defs>
</svg>
