<svg width="42" height="28" viewBox="0 0 42 28" fill="none" xmlns="http://www.w3.org/2000/svg">
<path d="M3.05859 20.6719H6.64453V18.7852H3.16406C2.33203 18.7852 1.88672 18.2695 1.88672 17.3086V15.2227C1.88672 13.4648 3.12891 12.3281 5.39062 12.0469L10.9922 11.3438L16.0781 8.17969C18.668 6.57422 20.2266 6.1875 24.7031 6.1875H27.457C30.6445 6.1875 33.2227 7.51172 35.4375 10.5938L38.3086 11.3438C39.3867 11.6133 39.6797 12.2578 39.6797 13.1602V17.4141C39.6797 18.2695 39.2461 18.7852 38.5078 18.7852H35.6016V20.6719H38.8477C40.5352 20.6719 41.5664 19.6055 41.5664 17.8828V13.1602C41.5664 11.5195 41.0742 10.125 38.8945 9.44531L36.4805 8.70703C34.957 6.89062 32.2969 4.30078 27.457 4.30078H24.7031C19.875 4.30078 17.9531 4.76953 15.0703 6.57422L10.3477 9.53906L5.14453 10.1719C1.91016 10.5703 0 12.4336 0 15.2227V17.543C0 19.5352 1.11328 20.6719 3.05859 20.6719ZM12.1289 20.6719H30.2109V18.7852H12.1289V20.6719ZM9.31641 23.3438C11.5664 23.3438 13.3242 21.5859 13.3242 19.3359C13.3242 17.0859 11.5664 15.3281 9.31641 15.3281C7.06641 15.3281 5.30859 17.0859 5.30859 19.3359C5.30859 21.5859 7.06641 23.3438 9.31641 23.3438ZM9.31641 21.457C8.12109 21.457 7.19531 20.5312 7.19531 19.3359C7.19531 18.1406 8.12109 17.2148 9.31641 17.2148C10.5117 17.2148 11.4375 18.1406 11.4375 19.3359C11.4375 20.5312 10.5117 21.457 9.31641 21.457ZM32.9883 23.3438C35.2383 23.3438 36.9961 21.5859 36.9961 19.3359C36.9961 17.0859 35.2383 15.3281 32.9883 15.3281C30.7383 15.3281 28.9805 17.0859 28.9805 19.3359C28.9805 21.5859 30.7383 23.3438 32.9883 23.3438ZM32.9883 21.457C31.793 21.457 30.8672 20.5312 30.8672 19.3359C30.8672 18.1406 31.793 17.2148 32.9883 17.2148C34.1836 17.2148 35.1094 18.1406 35.1094 19.3359C35.1094 20.5312 34.1836 21.457 32.9883 21.457Z" fill="black" fill-opacity="0.85"/>
<path d="M3.45703 7.61719H6.33984C7.25391 7.61719 7.3125 7.66406 7.69922 8.16797L10.8516 12.3047C12.1172 13.9805 13.6406 14.7539 15.7148 14.7539H20.6953C21.9727 14.7539 23.0039 13.7227 23.0039 12.4453C23.0039 11.168 21.9727 10.1367 20.6953 10.1367H15.7148C15.0586 10.1367 15 10.1133 14.6836 9.71484L11.3555 5.35547C10.0898 3.69141 8.51953 3 6.33984 3H3.45703C2.19141 3 1.14844 4.04297 1.14844 5.30859C1.14844 6.58594 2.19141 7.61719 3.45703 7.61719Z" fill="white"/>
<path d="M3.45703 6.25781H6.33984C7.64062 6.25781 8.13281 6.48047 8.78906 7.33594L11.9414 11.4961C12.9492 12.8203 14.0742 13.3945 15.7148 13.3945H18.2812V14.4023C18.2812 15.2227 19.0078 15.4688 19.6172 15.0703L22.5703 13.1719C23.1328 12.8086 23.1445 12.1055 22.5586 11.7305L19.6289 9.84375C19.0078 9.43359 18.2812 9.67969 18.2812 10.5117V11.5078H15.7148C14.6133 11.5078 14.168 11.2617 13.4414 10.3242L10.2656 6.1875C9.28125 4.88672 8.12109 4.37109 6.33984 4.37109H3.45703C2.94141 4.37109 2.51953 4.79297 2.51953 5.30859C2.51953 5.82422 2.94141 6.25781 3.45703 6.25781Z" fill="black" fill-opacity="0.85"/>
</svg>
