<svg width="28" height="31" viewBox="0 0 28 31" fill="none" xmlns="http://www.w3.org/2000/svg">
<path d="M23.25 24.668C23.8477 24.668 24.2344 24.293 24.2344 23.6836V13.5234C24.2344 12.9141 23.8477 12.5391 23.25 12.5391C22.6523 12.5391 22.2656 12.9141 22.2656 13.5352V23.6719C22.2656 24.293 22.6523 24.668 23.25 24.668ZM23.25 16.4766V14.9414H19.1133V16.4766H23.25ZM11.4375 30.2578C17.3555 30.2578 19.875 28.957 19.875 25.7695V5.42578C19.875 2.00391 16.7695 0 11.4375 0C6.10547 0 3 2.00391 3 5.42578V25.7695C3 28.957 5.51953 30.2578 11.4375 30.2578ZM11.4375 12.4805C10.2891 12.4805 8.53125 12.5625 7.92188 12.5625C7.00781 12.5625 6.60938 12.2109 6.52734 11.2734L6.32812 9C6.17578 7.25391 7.40625 6.55078 11.4375 6.55078C15.4688 6.55078 16.6992 7.25391 16.5469 9L16.3477 11.2734C16.2656 12.2109 15.8672 12.5625 14.9648 12.5625C14.3438 12.5625 12.5156 12.4805 11.4375 12.4805ZM11.4375 25.3828C7.37109 25.3828 6.12891 24.7734 6.38672 22.9922L6.52734 21.8906C6.73828 20.4492 7.93359 19.957 11.4375 19.957C14.9414 19.957 16.1484 20.4492 16.3477 21.8906L16.4883 22.9922C16.7461 24.7734 15.5039 25.3828 11.4375 25.3828Z" fill="black" fill-opacity="0.85"/>
</svg>
