<svg width="28" height="28" viewBox="0 0 28 28" fill="none" xmlns="http://www.w3.org/2000/svg">
<path d="M11.8673 24.5714C11.1642 24.6183 10.3556 24.9581 9.83999 25.4386C9.66421 25.6027 9.67593 25.8019 9.86343 25.9308C10.4376 26.3644 11.2931 26.587 12.008 26.4933C12.6876 26.4464 13.4962 26.0831 14.0353 25.6027C14.2462 25.4152 14.2111 25.1925 13.965 25.0519C13.3908 24.7003 12.547 24.5128 11.8673 24.5714ZM9.4064 20.6105C9.25406 20.3878 9.04312 20.3761 8.86734 20.587C8.39859 21.1261 8.05874 21.9347 8.01187 22.6144C7.94156 23.3409 8.18765 24.1964 8.64468 24.7355C8.79702 24.923 8.98452 24.923 9.13687 24.7472C9.5939 24.2433 9.92202 23.423 9.95718 22.7081C9.99234 22.0284 9.76968 21.1847 9.4064 20.6105ZM15.172 21.3956C14.5158 21.6183 13.8244 22.1573 13.4494 22.755C13.3205 22.9659 13.3791 23.1417 13.6017 23.2238C14.2697 23.505 15.1603 23.505 15.8166 23.2355C16.4611 23.0011 17.1525 22.4503 17.5392 21.8527C17.6798 21.6183 17.6095 21.4191 17.3517 21.337C16.6955 21.1378 15.8166 21.1613 15.172 21.3956ZM11.797 18.2081C11.5861 18.0089 11.3751 18.0441 11.2697 18.3019C10.9533 18.9347 10.8361 19.8136 10.965 20.4816C11.0939 21.2081 11.5509 21.9698 12.1134 22.38C12.3009 22.5206 12.5002 22.4855 12.5939 22.2628C12.9103 21.6652 13.0041 20.7863 12.8634 20.0831C12.7228 19.4152 12.3009 18.6652 11.797 18.2081ZM20.1056 16.8605C20.1525 16.5909 20.0119 16.4386 19.7306 16.4738C19.0509 16.5558 18.2775 16.9308 17.7736 17.4113C17.2697 17.8683 16.8595 18.63 16.7423 19.3448C16.7072 19.5792 16.8361 19.7316 17.0705 19.7198C17.797 19.6964 18.6056 19.3448 19.0978 18.8292C19.6017 18.337 20.0119 17.5402 20.1056 16.8605ZM13.3791 15.8527C13.1212 15.7589 12.9455 15.8761 12.9455 16.1573C12.8986 16.8488 13.1447 17.6808 13.5431 18.2784C13.9181 18.8878 14.6564 19.3917 15.3595 19.5558C15.5822 19.5909 15.7462 19.4738 15.758 19.2511C15.7931 18.5245 15.5353 17.6925 15.1252 17.1417C14.7267 16.5909 14.0353 16.0753 13.3791 15.8527ZM15.3361 13.1105C14.8322 12.6652 14.0236 12.3605 13.3205 12.3019C13.0509 12.2902 12.922 12.4659 12.9572 12.7238C13.1095 13.4034 13.5666 14.1652 14.1056 14.6222C14.6212 15.0909 15.465 15.4073 16.1916 15.3839C16.4025 15.3722 16.5314 15.2081 16.4962 14.9972C16.3556 14.3058 15.8986 13.5558 15.3361 13.1105ZM20.0939 11.5753C20.0587 11.2941 19.8712 11.1886 19.6251 11.2941C18.9923 11.5402 18.3244 12.1027 17.9611 12.6886C17.5861 13.298 17.3751 14.1534 17.4572 14.8214C17.4806 15.0558 17.6564 15.173 17.8791 15.1027C18.5587 14.9152 19.2501 14.3644 19.6017 13.7316C19.9767 13.1222 20.1642 12.2667 20.0939 11.5753ZM14.7033 9.17297C14.0705 8.9386 13.2033 8.92688 12.5353 9.11438C12.2775 9.19641 12.2072 9.39563 12.3361 9.60657C12.6877 10.2042 13.3791 10.7667 14.0705 11.0245C14.7267 11.2941 15.6173 11.2941 16.2853 11.0245C16.4962 10.9308 16.5548 10.7316 16.4376 10.5441C16.0626 9.93469 15.3712 9.40735 14.7033 9.17297ZM18.6291 6.10266C18.5119 5.86828 18.2892 5.82141 18.09 5.98547C17.6095 6.45422 17.1642 7.20422 17.0236 7.88391C16.8712 8.57532 16.965 9.4425 17.2814 10.0519C17.3869 10.2628 17.5861 10.3214 17.7619 10.1808C18.3361 9.75891 18.7931 9.00891 18.922 8.29407C19.0626 7.61438 18.9455 6.74719 18.6291 6.10266ZM12.5705 5.79797C11.8908 5.65735 11.0353 5.76282 10.4142 6.04407C10.1681 6.14953 10.1095 6.36047 10.2853 6.57141C10.7423 7.08703 11.5041 7.54407 12.1837 7.69641C12.8869 7.88391 13.7658 7.76672 14.3752 7.40344C14.5744 7.27453 14.6095 7.07532 14.4689 6.91125C14.0236 6.37219 13.2736 5.92688 12.5705 5.79797ZM16.0392 2.1886C15.8869 1.97766 15.6642 1.95422 15.4884 2.16516C15.0431 2.71594 14.715 3.51282 14.6798 4.18078C14.6095 4.86047 14.8439 5.71594 15.2423 6.3136C15.3712 6.5011 15.5705 6.52453 15.7462 6.36047C16.2619 5.84485 16.6134 5.03625 16.6251 4.32141C16.672 3.64172 16.4377 2.78625 16.0392 2.1886ZM9.99234 1.005C9.71109 0.969847 9.57046 1.12219 9.5939 1.39172C9.69937 2.09485 10.0861 2.88 10.5548 3.37219C11.047 3.92297 11.8439 4.29797 12.5587 4.33313C12.7931 4.34485 12.922 4.20422 12.8986 3.96985C12.8166 3.29016 12.4298 2.48157 11.9259 2.0011C11.4455 1.52063 10.672 1.11047 9.99234 1.005Z" fill="black" fill-opacity="0.85"/>
</svg>
