<svg width="28" height="28" viewBox="0 0 28 28" fill="none" xmlns="http://www.w3.org/2000/svg">
<path d="M6.67969 24.5977H20.8945C23.3555 24.5977 24.5742 23.3789 24.5742 20.9648V6.65625C24.5742 4.24219 23.3555 3.02344 20.8945 3.02344H6.67969C4.23047 3.02344 3 4.23047 3 6.65625V20.9648C3 23.3906 4.23047 24.5977 6.67969 24.5977ZM6.70312 22.7109C5.53125 22.7109 4.88672 22.0898 4.88672 20.8711V6.75C4.88672 5.53125 5.53125 4.91016 6.70312 4.91016H20.8711C22.0312 4.91016 22.6875 5.53125 22.6875 6.75V20.8711C22.6875 22.0898 22.0312 22.7109 20.8711 22.7109H6.70312Z" fill="black" fill-opacity="0.85"/>
<path d="M8.32031 18.5273H12.3867C12.7969 18.5273 13.0547 18.2578 13.0547 17.8477C13.0547 17.4023 12.7852 17.1562 12.3867 17.1562H9.60938V17.0625L11.3086 14.8945C12.4922 13.4414 12.8672 12.5742 12.8672 11.543C12.8672 9.96094 11.8008 8.8125 10.1836 8.8125C8.68359 8.8125 7.54688 10.0547 7.54688 11.2734C7.54688 11.707 7.79297 12.0117 8.23828 12.0117C8.63672 12.0117 8.87109 11.8359 8.98828 11.4492C9.21094 10.6641 9.50391 10.1719 10.1719 10.1719C10.875 10.1719 11.2734 10.793 11.2734 11.625C11.2734 12.5625 10.6172 13.5117 9.99609 14.3086L7.96875 16.9102C7.74609 17.1914 7.52344 17.4844 7.52344 17.8477C7.52344 18.2461 7.78125 18.5273 8.32031 18.5273ZM16.5703 15.2578C17.5195 15.2578 18.2344 14.625 18.5039 13.6172H18.5508C18.5508 13.6641 18.5508 13.7109 18.5508 13.7461C18.5508 15.0469 18.3867 17.3906 17.0742 17.3906C16.5469 17.3906 16.1953 17.0273 15.9844 16.5234C15.8203 16.1367 15.5859 15.9844 15.2344 15.9844C14.7422 15.9844 14.5312 16.3125 14.5312 16.6992C14.5312 16.8398 14.5664 16.9805 14.6016 17.1211C14.8477 18.1406 15.8672 18.7617 17.0391 18.7617C19.4531 18.7617 20.1445 16.1016 20.1445 13.6992C20.1445 11.4844 19.4414 8.83594 17.0625 8.83594C15.2812 8.83594 14.25 10.3359 14.25 12.1758C14.25 13.7578 15.0117 15.2578 16.5703 15.2578ZM17.0859 13.9688C16.2188 13.9688 15.8672 12.9727 15.8672 12.1055C15.8672 11.2266 16.2656 10.1953 17.0859 10.1953C17.9648 10.1953 18.3281 11.2266 18.3281 12.1055C18.3281 13.0078 17.9297 13.9688 17.0859 13.9688Z" fill="black" fill-opacity="0.85"/>
</svg>
