<svg width="28" height="28" viewBox="0 0 28 28" fill="none" xmlns="http://www.w3.org/2000/svg">
<path d="M6.67969 24.5977H20.8945C23.3555 24.5977 24.5742 23.3789 24.5742 20.9648V6.65625C24.5742 4.24219 23.3555 3.02344 20.8945 3.02344H6.67969C4.23047 3.02344 3 4.23047 3 6.65625V20.9648C3 23.3906 4.23047 24.5977 6.67969 24.5977ZM6.70312 22.7109C5.53125 22.7109 4.88672 22.0898 4.88672 20.8711V6.75C4.88672 5.53125 5.53125 4.91016 6.70312 4.91016H20.8711C22.0312 4.91016 22.6875 5.53125 22.6875 6.75V20.8711C22.6875 22.0898 22.0312 22.7109 20.8711 22.7109H6.70312Z" fill="black" fill-opacity="0.85"/>
<path d="M11.7187 18.6797C12.1523 18.6797 12.5156 18.4102 12.5156 17.8477V16.6758H12.9375C13.3828 16.6758 13.6055 16.3828 13.6055 15.9844C13.6055 15.6094 13.4062 15.3164 12.9375 15.3164H12.5156V10.1719C12.5156 9.36328 11.9883 8.90625 11.2266 8.90625C10.3945 8.90625 10.0078 9.32812 9.67969 10.0547L7.58203 14.6016C7.39453 15.0586 7.32422 15.3633 7.32422 15.7266C7.32422 16.2891 7.71094 16.6758 8.28516 16.6758H10.9102V17.8477C10.9102 18.4688 11.3437 18.6797 11.7187 18.6797ZM10.9453 15.3516H8.76562V15.2695L10.8984 10.3828H10.9453V15.3516ZM16.207 18.6914C16.6406 18.6914 16.8281 18.5156 16.9922 18.0938L19.6641 10.9453C19.793 10.582 19.8867 10.3008 19.8867 9.96094C19.8867 9.42188 19.4766 9.05859 18.9492 9.05859H15.1641C14.7656 9.05859 14.4844 9.35156 14.4844 9.75C14.4844 10.1484 14.7656 10.4414 15.1641 10.4414H18.1758V10.5469L15.5742 17.2734C15.4805 17.5312 15.4336 17.6836 15.4336 17.9648C15.4336 18.3047 15.6562 18.6914 16.207 18.6914Z" fill="black" fill-opacity="0.85"/>
</svg>
