<svg width="28" height="28" viewBox="0 0 28 28" fill="none" xmlns="http://www.w3.org/2000/svg">
<path d="M9.23438 24.0352H18.3984C25.1953 24.0352 27.6328 21.5156 27.6328 15.2461V11.8008C27.6328 5.53125 25.1953 3 18.3984 3H9.23438C2.4375 3 0 5.53125 0 11.8008V15.2461C0 21.5156 2.4375 24.0352 9.23438 24.0352ZM9.23438 22.1484C3.70312 22.1484 1.88672 20.3555 1.88672 15.2461V11.8008C1.88672 6.69141 3.70312 4.88672 9.23438 4.88672H18.3984C23.9297 4.88672 25.7461 6.69141 25.7461 11.8008V15.2461C25.7461 20.3555 23.9297 22.1484 18.3984 22.1484H9.23438Z" fill="black" fill-opacity="0.85"/>
<path d="M6.80859 18.4336C7.26562 18.4336 7.57031 18.1172 7.57031 17.6133V11.2852H7.64062L9.23438 17.4844C9.33983 17.9297 9.62108 18.2578 10.1016 18.2578C10.582 18.2578 10.8281 17.9414 10.9453 17.4727L12.5391 11.2852H12.6094V17.6133C12.6094 18.1172 12.8906 18.4336 13.3594 18.4336C13.8633 18.4336 14.1211 18.1172 14.1211 17.6133V9.84375C14.1211 9.08203 13.6641 8.64844 12.9258 8.64844C12.2461 8.64844 11.8711 8.97656 11.707 9.63281L10.1133 16.0195H10.0664L8.44921 9.63281C8.28515 8.97656 7.88672 8.64844 7.25391 8.64844C6.50391 8.64844 6.04688 9.10547 6.04688 9.84375V17.6133C6.04688 18.1172 6.33984 18.4336 6.80859 18.4336ZM20.0156 18.4102C20.4609 18.4102 20.8125 18.1406 20.8125 17.5781V16.4062H21.2344C21.6914 16.4062 21.9023 16.1133 21.9023 15.7148C21.9023 15.3398 21.7031 15.0469 21.2344 15.0469H20.8125V9.90234C20.8125 9.09375 20.2852 8.63672 19.5234 8.63672C18.6914 8.63672 18.3047 9.05859 17.9766 9.78516L15.8906 14.332C15.6914 14.7891 15.6211 15.0938 15.6211 15.457C15.6211 16.0195 16.0078 16.4062 16.582 16.4062H19.207V17.5781C19.207 18.1992 19.6523 18.4102 20.0156 18.4102ZM19.2422 15.082H17.0625V15L19.1953 10.1133H19.2422V15.082Z" fill="black" fill-opacity="0.85"/>
</svg>
