<svg width="29" height="29" viewBox="0 0 29 29" fill="none" xmlns="http://www.w3.org/2000/svg">
<g clip-path="url(#clip0_2124_45991)">
<path d="M2.01562 19.7439C2.01562 22.7087 4.07812 24.6774 7.19531 24.6774C8.14454 24.6774 9.16406 24.3493 9.82031 23.8571C9.3164 23.4939 8.88282 23.0954 8.27344 22.3337C8.00391 22.4509 7.64062 22.5329 7.27735 22.5329C6.30469 22.5329 5.64844 21.9704 5.64844 21.1735C5.64844 20.4118 6.21094 19.8845 7.05469 19.8845C7.79296 19.8845 8.29688 20.3181 8.84765 20.9274C10.043 22.2282 11.1797 23.7399 13.8047 23.7399C16.4297 23.7399 17.5664 22.2282 18.7617 20.9274C19.3125 20.3181 19.8164 19.8845 20.5547 19.8845C21.3867 19.8845 21.9609 20.4118 21.9609 21.1735C21.9609 21.9704 21.3047 22.5329 20.3203 22.5329C19.9687 22.5329 19.6054 22.4509 19.3242 22.3337C18.7265 23.0954 18.2929 23.4939 17.789 23.8571C18.4453 24.3493 19.4648 24.6774 20.414 24.6774C23.5312 24.6774 25.5937 22.7087 25.5937 19.7439C25.5937 16.9196 23.5547 14.8103 20.4492 14.4704C19.2656 11.6814 18.4218 8.61109 17.7422 5.66968C17.2031 3.29077 15.9844 2.02515 13.8047 2.02515C11.625 2.02515 10.4062 3.29077 9.86719 5.66968C9.18751 8.61109 8.34374 11.6814 7.16015 14.4704C4.05468 14.8103 2.01562 16.9196 2.01562 19.7439Z" fill="black" fill-opacity="0.85"/>
</g>
<defs>
<clipPath id="clip0_2124_45991">
<rect width="23.5781" height="23.0977" fill="white" transform="translate(2.01562 2.02515)"/>
</clipPath>
</defs>
</svg>
