<svg width="28" height="28" viewBox="0 0 28 28" fill="none" xmlns="http://www.w3.org/2000/svg">
<path d="M13.9531 25.9062C20.4922 25.9062 25.9062 20.4805 25.9062 13.9531C25.9062 7.41406 20.4805 2 13.9414 2C7.41406 2 2 7.41406 2 13.9531C2 20.4805 7.42578 25.9062 13.9531 25.9062Z" fill="black" fill-opacity="0.85"/>
<path d="M10.707 18.9688C10.2148 18.9688 9.81641 18.5703 9.81641 18.0781V10.7539L8.70312 11.6445C8.58594 11.7383 8.45703 11.7969 8.28125 11.7969C7.90625 11.7969 7.64844 11.5273 7.64844 11.1523C7.64844 10.8359 7.8125 10.6016 8.03516 10.4375L9.35938 9.40625C9.64062 9.19531 10.0508 8.91406 10.5664 8.91406C11.1992 8.91406 11.5859 9.27734 11.5859 9.89844V18.0781C11.5859 18.5703 11.1875 18.9688 10.707 18.9688ZM16.4727 19.0508C15.1602 19.0508 13.9414 18.4297 13.5898 17.3047C13.5312 17.1055 13.4961 16.8945 13.4961 16.6719C13.4961 16.2031 13.8125 15.9102 14.2812 15.9102C14.6797 15.9102 14.9375 16.1094 15.0547 16.5078C15.207 17.0586 15.5938 17.6445 16.4727 17.6445C17.375 17.6445 17.8086 16.9297 17.8086 16.0977C17.8086 15.0547 17.2461 14.4922 16.2148 14.4922H15.9219C15.5117 14.4922 15.2539 14.2578 15.2539 13.8594C15.2539 13.4609 15.5 13.2031 15.9219 13.2031H16.2031C17.1055 13.2031 17.5977 12.5586 17.5977 11.6797C17.5977 10.8828 17.2227 10.2734 16.4258 10.2734C15.7461 10.2734 15.3594 10.7187 15.1719 11.4336C15.043 11.8555 14.8203 12.0078 14.3984 12.0078C13.918 12.0078 13.6484 11.6914 13.6484 11.293C13.6484 11.082 13.6719 10.8711 13.7422 10.6367C14.082 9.57031 15.1719 8.86719 16.4258 8.86719C17.9961 8.86719 19.25 9.81641 19.25 11.4922C19.25 12.5 18.7227 13.4844 17.6211 13.7773V13.8125C18.6406 13.918 19.543 14.6562 19.543 16.1562C19.543 17.9609 18.1953 19.0508 16.4727 19.0508Z" fill="white"/>
</svg>
