<svg width="28" height="28" viewBox="0 0 28 28" fill="none" xmlns="http://www.w3.org/2000/svg">
<g clip-path="url(#clip0_2124_78065)">
<path d="M6.67969 24.5977H20.8945C23.3555 24.5977 24.5742 23.3789 24.5742 20.9648V6.65625C24.5742 4.24219 23.3555 3.02344 20.8945 3.02344H6.67969C4.23047 3.02344 3 4.23047 3 6.65625V20.9648C3 23.3906 4.23047 24.5977 6.67969 24.5977Z" fill="black" fill-opacity="0.85"/>
<path d="M16.9336 18.75C16.6992 18.75 16.5352 18.6914 16.3477 18.6094L9.14062 14.8594C8.63672 14.6016 8.42578 14.2969 8.42578 13.793C8.42578 13.3359 8.66016 12.9961 9.14062 12.7266L16.3477 8.84766C16.5469 8.75391 16.6992 8.69531 16.957 8.69531C17.5312 8.69531 17.9414 9.11719 17.9414 9.65625C17.9414 10.1133 17.7305 10.4063 17.2383 10.6406L11.1094 13.7227V13.793L17.2383 16.8047C17.7422 17.0391 17.9414 17.3086 17.9414 17.7773C17.9414 18.3281 17.5195 18.75 16.9336 18.75Z" fill="white"/>
</g>
<defs>
<clipPath id="clip0_2124_78065">
<rect width="21.5742" height="21.5977" fill="white" transform="translate(3 3)"/>
</clipPath>
</defs>
</svg>
