<svg width="28" height="28" viewBox="0 0 28 28" fill="none" xmlns="http://www.w3.org/2000/svg">
<path d="M10.4766 25.2773C14.9648 25.2773 18.0469 22.2539 18.0469 16.8984V8.96484L17.8828 5.33203L17.3438 5.54297L19.8281 8.4375L23.1211 11.8125C23.3086 12 23.543 12.1055 23.8359 12.1055C24.4453 12.1055 24.8672 11.6836 24.8672 11.0625C24.8672 10.8047 24.75 10.5 24.5508 10.3008L17.7891 3.41016C17.5664 3.17578 17.2852 3.07031 17.0039 3.07031C16.7109 3.07031 16.4414 3.17578 16.2188 3.41016L9.45703 10.3008C9.25781 10.5 9.12891 10.8047 9.12891 11.0625C9.12891 11.6836 9.5625 12.1055 10.1602 12.1055C10.4648 12.1055 10.6992 12 10.8867 11.8125L14.1797 8.4375L16.6641 5.54297L16.1133 5.33203L15.9609 8.96484V17.0742C15.9609 21.0703 13.7461 23.1914 10.5938 23.1914C7.44141 23.1914 5.08594 21.0703 5.08594 17.0742V14.3789C5.08594 13.7344 4.61719 13.3125 4.04297 13.3125C3.46875 13.3125 3 13.7344 3 14.3789V17.0859C3 22.3359 5.98828 25.2773 10.4766 25.2773Z" fill="black" fill-opacity="0.85"/>
</svg>
