<svg width="28" height="28" viewBox="0 0 28 28" fill="none" xmlns="http://www.w3.org/2000/svg">
<path d="M20.6348 20.6348C25.1699 16.0762 26.7637 9.64257 25.2871 4.67382C24.8769 3.36132 24.4668 2.93944 23.1426 2.541C18.1855 1.05272 11.7402 2.64647 7.18163 7.18163C2.64647 11.7402 1.05272 18.1855 2.541 23.1426C2.93944 24.4551 3.36132 24.8769 4.67382 25.2754C9.64257 26.7637 16.0762 25.1699 20.6348 20.6348ZM19.2519 19.2519C15.3144 23.2129 10.1465 24.7012 5.33007 23.4238C4.69725 23.2598 4.55663 23.1191 4.38085 22.4512C3.13866 17.6582 4.6035 12.5019 8.56444 8.56444C12.5137 4.6035 17.6582 3.12694 22.4512 4.36913C23.1191 4.55663 23.2598 4.69725 23.4238 5.33007C24.7129 10.1348 23.2129 15.3144 19.2519 19.2519ZM15.8652 2.96288L14.3769 4.45116L23.3887 13.4746L24.8887 11.9746L15.8652 2.96288ZM2.9746 15.8652L11.9746 24.8887L13.4746 23.3887L4.46288 14.3769L2.9746 15.8652ZM9.25585 16.2285L11.5996 18.5605C11.7988 18.7715 12.1152 18.7715 12.3262 18.5605C12.5254 18.3613 12.5254 18.0332 12.3262 17.8223L9.99413 15.4902C9.79491 15.291 9.45507 15.291 9.25585 15.4902C9.05663 15.7012 9.05663 16.0176 9.25585 16.2285ZM10.8262 14.6465L13.1699 16.9902C13.3691 17.1894 13.6973 17.1894 13.8965 16.9902C14.0957 16.791 14.0957 16.4512 13.8965 16.2519L11.5644 13.9199C11.3652 13.7207 11.0254 13.7207 10.8262 13.9199C10.6269 14.1191 10.6269 14.4473 10.8262 14.6465ZM12.3965 13.0762L14.7402 15.4199C14.9394 15.6191 15.2676 15.6191 15.4668 15.4199C15.666 15.209 15.666 14.8808 15.4668 14.6933L13.123 12.3496C12.9355 12.1504 12.5957 12.1504 12.3965 12.3496C12.1973 12.5488 12.1973 12.8769 12.3965 13.0762ZM13.9668 11.5176L16.2988 13.8496C16.5098 14.0488 16.8379 14.0488 17.0371 13.8496C17.248 13.6387 17.248 13.3223 17.0371 13.123L14.7051 10.7793C14.4941 10.5801 14.1777 10.5801 13.9668 10.7793C13.7676 10.9785 13.7676 11.3183 13.9668 11.5176ZM15.5488 9.94725L17.8691 12.2676C18.0801 12.4785 18.4082 12.4785 18.6074 12.2676C18.8183 12.0683 18.8183 11.7519 18.6074 11.541L16.2754 9.19725C16.0644 8.99803 15.748 8.99803 15.5488 9.19725C15.3379 9.40819 15.3379 9.73632 15.5488 9.94725ZM11.0019 17.541L17.5527 11.0019L16.8262 10.2754L10.2754 16.8262L11.0019 17.541Z" fill="black" fill-opacity="0.85"/>
</svg>
