<svg width="28" height="28" viewBox="0 0 28 28" fill="none" xmlns="http://www.w3.org/2000/svg">
<path d="M13.9531 25.9062C20.4922 25.9062 25.9062 20.4805 25.9062 13.9531C25.9062 7.41406 20.4805 2 13.9414 2C7.41406 2 2 7.41406 2 13.9531C2 20.4805 7.42578 25.9062 13.9531 25.9062Z" fill="black" fill-opacity="0.85"/>
<path d="M11.7031 19.3438C11.082 19.3438 10.7422 18.8984 10.7422 18.2539V9.27734C10.7422 8.63281 11.082 8.17578 11.7031 8.17578C12.3477 8.17578 12.6875 8.60938 12.6875 9.27734V17.75H17.2695C17.7383 17.75 18.0781 18.0547 18.0781 18.5469C18.0781 19.0391 17.7383 19.3438 17.2695 19.3438H11.7031Z" fill="white"/>
</svg>
