<svg width="28" height="28" viewBox="0 0 28 28" fill="none" xmlns="http://www.w3.org/2000/svg">
<g clip-path="url(#clip0_2124_88413)">
<path d="M13.9531 25.9062C20.4922 25.9062 25.9062 20.4805 25.9062 13.9531C25.9062 7.41406 20.4805 2 13.9414 2C7.41406 2 2 7.41406 2 13.9531C2 20.4805 7.42578 25.9062 13.9531 25.9062ZM13.9531 23.9141C8.42188 23.9141 4.00391 19.4844 4.00391 13.9531C4.00391 8.42188 8.41016 3.99219 13.9414 3.99219C19.4727 3.99219 23.9141 8.42188 23.9141 13.9531C23.9141 19.4844 19.4844 23.9141 13.9531 23.9141Z" fill="black" fill-opacity="0.85"/>
<path d="M10.5195 19.8828H17.3633C18.5938 19.8828 19.25 19.25 19.25 18.0195V12.1367H8.63281V18.0195C8.63281 19.2617 9.28906 19.8828 10.5195 19.8828ZM11.8789 14.3867C11.6211 14.3867 11.4336 14.2109 11.4336 13.9414V13.7422C11.4336 13.4609 11.6211 13.2969 11.8789 13.2969H16.0039C16.2734 13.2969 16.4492 13.4609 16.4492 13.7422V13.9414C16.4492 14.2109 16.2734 14.3867 16.0039 14.3867H11.8789ZM8.76172 11.1875H19.1211C19.8359 11.1875 20.1875 10.7773 20.1875 10.0859V9.51172C20.1875 8.80859 19.8359 8.38672 19.1211 8.38672H8.76172C8.10547 8.38672 7.70703 8.80859 7.70703 9.51172V10.0859C7.70703 10.7773 8.05859 11.1875 8.76172 11.1875Z" fill="black" fill-opacity="0.85"/>
</g>
<defs>
<clipPath id="clip0_2124_88413">
<rect width="23.9062" height="23.918" fill="white" transform="translate(2 2)"/>
</clipPath>
</defs>
</svg>
