<svg width="28" height="28" viewBox="0 0 28 28" fill="none" xmlns="http://www.w3.org/2000/svg">
<path d="M13.9531 25.9062C20.4922 25.9062 25.9062 20.4805 25.9062 13.9531C25.9062 7.41406 20.4805 2 13.9414 2C7.41406 2 2 7.41406 2 13.9531C2 20.4805 7.42578 25.9062 13.9531 25.9062ZM13.9531 23.9141C8.42188 23.9141 4.00391 19.4844 4.00391 13.9531C4.00391 8.42188 8.41016 3.99219 13.9414 3.99219C19.4727 3.99219 23.9141 8.42188 23.9141 13.9531C23.9141 19.4844 19.4844 23.9141 13.9531 23.9141Z" fill="black" fill-opacity="0.85"/>
<path d="M17.6094 16.8594C18.125 16.8594 18.4766 16.4609 18.4766 15.9219V10.3906C18.4766 9.69922 18.0898 9.42969 17.4922 9.42969H11.9375C11.3867 9.42969 11.0352 9.76953 11.0352 10.2852C11.0352 10.8008 11.3984 11.1406 11.9609 11.1406H14.0938L15.8281 10.9531L14 12.6523L9.67578 16.9766C9.51172 17.1406 9.39453 17.375 9.39453 17.6094C9.39453 18.1367 9.74609 18.4766 10.2617 18.4766C10.543 18.4766 10.7539 18.3711 10.9297 18.207L15.2422 13.8945L16.9297 12.0898L16.7539 13.918V15.9453C16.7539 16.4961 17.0938 16.8594 17.6094 16.8594Z" fill="black" fill-opacity="0.85"/>
</svg>
