<svg width="28" height="28" viewBox="0 0 28 28" fill="none" xmlns="http://www.w3.org/2000/svg">
<g clip-path="url(#clip0_2124_89151)">
<path d="M13.9531 25.9062C20.4922 25.9062 25.9062 20.4805 25.9062 13.9531C25.9062 7.41406 20.4805 2 13.9414 2C7.41406 2 2 7.41406 2 13.9531C2 20.4805 7.42578 25.9062 13.9531 25.9062ZM13.9531 23.9141C8.42188 23.9141 4.00391 19.4844 4.00391 13.9531C4.00391 8.42188 8.41016 3.99219 13.9414 3.99219C19.4727 3.99219 23.9141 8.42188 23.9141 13.9531C23.9141 19.4844 19.4844 23.9141 13.9531 23.9141Z" fill="black" fill-opacity="0.85"/>
<path d="M11.5039 9.05469C11.5039 10.168 12.2539 11.1172 13.2852 11.4102V15.3828C13.2852 17.2227 13.6016 18.2773 13.9414 18.2773C14.293 18.2773 14.6094 17.2461 14.6094 15.3828V11.4102C15.6289 11.1172 16.3789 10.168 16.3789 9.05469C16.3789 7.70703 15.3008 6.61719 13.9414 6.61719C12.582 6.61719 11.5039 7.70703 11.5039 9.05469ZM13.2617 9.16016C12.8633 9.16016 12.4766 8.80859 12.4766 8.375C12.4766 7.94141 12.8633 7.58984 13.2617 7.58984C13.707 7.58984 14.0586 7.94141 14.0586 8.375C14.0586 8.80859 13.707 9.16016 13.2617 9.16016ZM13.9414 20.5742C17.75 20.5742 19.9883 19.2383 19.9883 17.7969C19.9883 16.0391 17.1992 15.0195 15.4414 15.0312V16.1094C16.6602 16.0977 18.5703 16.7539 18.5703 17.6445C18.5703 18.6758 16.6367 19.4258 13.9414 19.4258C11.2344 19.4258 9.32422 18.6758 9.32422 17.6445C9.32422 16.7539 11.2227 16.0977 12.4414 16.1094V15.0312C10.6836 15.0195 7.89453 16.0391 7.89453 17.7969C7.89453 19.2383 10.1328 20.5742 13.9414 20.5742Z" fill="black" fill-opacity="0.85"/>
</g>
<defs>
<clipPath id="clip0_2124_89151">
<rect width="23.9062" height="23.918" fill="white" transform="translate(2 2)"/>
</clipPath>
</defs>
</svg>
