<svg width="28" height="28" viewBox="0 0 28 28" fill="none" xmlns="http://www.w3.org/2000/svg">
<path d="M7.20948 24.4712H9.74073C9.98682 24.4712 10.1626 24.5415 10.3384 24.7173L12.1431 26.5103C13.6196 27.9985 14.9907 27.9868 16.4673 26.5103L18.272 24.7173C18.4478 24.5415 18.6235 24.4712 18.8696 24.4712H21.4009C23.4985 24.4712 24.4712 23.5103 24.4712 21.4009V18.8696C24.4712 18.6235 24.5415 18.4595 24.7173 18.272L26.4985 16.4673C27.9868 14.9907 27.9751 13.6314 26.4985 12.1431L24.7173 10.3384C24.5415 10.1626 24.4712 9.98682 24.4712 9.75245V7.20948C24.4712 5.12354 23.5103 4.13916 21.4009 4.13916H18.8696C18.6235 4.13916 18.4478 4.08057 18.272 3.90479L16.4673 2.11182C14.9907 0.623539 13.6196 0.635258 12.1431 2.11182L10.3384 3.90479C10.1626 4.08057 9.98682 4.13916 9.74073 4.13916H7.20948C5.11182 4.13916 4.13916 5.1001 4.13916 7.20948V9.75245C4.13916 9.98682 4.08057 10.1626 3.90479 10.3384L2.11182 12.1431C0.623539 13.6314 0.635258 14.9907 2.11182 16.4673L3.90479 18.272C4.08057 18.4595 4.13916 18.6235 4.13916 18.8696V21.4009C4.13916 23.4985 5.11182 24.4712 7.20948 24.4712ZM7.20948 22.6079C6.16651 22.6079 6.00245 22.4439 6.00245 21.4009V18.2485C6.00245 17.897 5.89698 17.6274 5.63916 17.3696L3.42432 15.1665C2.68604 14.4165 2.68604 14.2056 3.42432 13.4556L5.63916 11.2524C5.89698 10.9946 6.00245 10.7251 6.00245 10.3618V7.20948C6.00245 6.15479 6.15479 6.00245 7.20948 6.00245H10.3618C10.7251 6.00245 10.9946 5.9087 11.2524 5.63916L13.4556 3.42432C14.2056 2.68604 14.4165 2.68604 15.1548 3.42432L17.3696 5.63916C17.6157 5.9087 17.897 6.00245 18.2485 6.00245H21.4009C22.4439 6.00245 22.6079 6.16651 22.6079 7.20948V10.3618C22.6079 10.7251 22.7251 10.9946 22.9829 11.2524L25.1978 13.4556C25.936 14.2056 25.936 14.4165 25.1978 15.1665L22.9829 17.3696C22.7251 17.6274 22.6079 17.897 22.6079 18.2485V21.4009C22.6079 22.4439 22.4439 22.6079 21.4009 22.6079H18.2485C17.897 22.6079 17.6157 22.7134 17.3696 22.9829L15.1548 25.1978C14.4165 25.936 14.2056 25.936 13.4556 25.1978L11.2524 22.9829C10.9946 22.7134 10.7251 22.6079 10.3618 22.6079H7.20948Z" fill="black" fill-opacity="0.85"/>
<path d="M13.0342 19.8657C13.4209 19.8657 13.749 19.6782 13.9834 19.3267L19.3389 10.8892C19.4678 10.6665 19.6201 10.4087 19.6201 10.1392C19.6201 9.62353 19.1514 9.28369 18.6709 9.28369C18.3662 9.28369 18.0733 9.45947 17.8506 9.81103L12.9873 17.6157L10.6787 14.6274C10.3975 14.2524 10.1396 14.147 9.82324 14.147C9.30761 14.147 8.90918 14.5571 8.90918 15.0845C8.90918 15.3306 9.01464 15.5884 9.17871 15.811L12.0381 19.3267C12.3311 19.7134 12.6475 19.8657 13.0342 19.8657Z" fill="black" fill-opacity="0.85"/>
</svg>
