<svg width="28" height="28" viewBox="0 0 28 28" fill="none" xmlns="http://www.w3.org/2000/svg">
<path d="M13.9531 25.9062C20.4922 25.9062 25.9062 20.4805 25.9062 13.9531C25.9062 7.41406 20.4805 2 13.9414 2C7.41406 2 2 7.41406 2 13.9531C2 20.4805 7.42578 25.9062 13.9531 25.9062ZM13.9531 23.9141C8.42188 23.9141 4.00391 19.4844 4.00391 13.9531C4.00391 8.42188 8.41016 3.99219 13.9414 3.99219C19.4727 3.99219 23.9141 8.42188 23.9141 13.9531C23.9141 19.4844 19.4844 23.9141 13.9531 23.9141Z" fill="black" fill-opacity="0.85"/>
<path d="M8.26953 18.8516H14.4102C16.0859 18.8516 17.3516 17.5977 17.3516 15.957C17.3516 14.3633 16.0742 13.1445 14.3516 13.1094C13.6836 11.8672 12.5117 11.0938 11.082 11.0938C9.19531 11.0938 7.61328 12.5586 7.41406 14.4219C6.47656 14.7266 5.80859 15.5586 5.80859 16.6016C5.80859 17.9023 6.80469 18.8516 8.26953 18.8516ZM13.2266 10.5898C13.4375 10.8125 13.8125 10.7891 14.0352 10.5781C14.2227 10.3672 14.2344 10.0039 14.0352 9.79297L13.1328 8.91406C12.9102 8.70312 12.5586 8.70312 12.3477 8.91406C12.1484 9.11328 12.1484 9.47656 12.3477 9.69922L13.2266 10.5898ZM16.5664 9.52344C16.8828 9.52344 17.1289 9.26562 17.1289 8.96094V7.71875C17.1289 7.40234 16.8828 7.15625 16.5664 7.15625C16.2617 7.15625 15.9922 7.40234 15.9922 7.71875V8.96094C15.9922 9.26562 16.2617 9.52344 16.5664 9.52344ZM19.1094 10.5781C19.3203 10.7891 19.707 10.8125 19.918 10.5898L20.7969 9.69922C20.9961 9.47656 20.9961 9.11328 20.7969 8.91406C20.5742 8.70312 20.2109 8.69141 19.9883 8.91406L19.1094 9.79297C18.8984 10.0039 18.9102 10.3672 19.1094 10.5781ZM20.7383 13.6836H21.957C22.2734 13.6836 22.5195 13.4258 22.5195 13.1211C22.5195 12.8047 22.2734 12.5703 21.957 12.5703H20.7383C20.4219 12.5703 20.1641 12.8047 20.1641 13.1211C20.1641 13.4258 20.4219 13.6836 20.7383 13.6836ZM19.9883 17.3516C20.2109 17.5859 20.5742 17.5508 20.7969 17.3398C20.9961 17.1172 21.0078 16.7539 20.7969 16.5547L19.918 15.6875C19.6953 15.4648 19.332 15.4648 19.1094 15.6875C18.9102 15.8984 18.8984 16.25 19.1094 16.4727L19.9883 17.3516ZM19.4609 13.1211C19.4609 11.5039 18.1719 10.2383 16.5664 10.2383C15.5703 10.2383 14.6914 10.7305 14.1875 11.4922C14.4453 11.7266 14.668 11.9844 14.8555 12.2891C16.6367 12.5234 18.0078 13.8125 18.1836 15.5234C18.9805 14.9609 19.4609 14.0938 19.4609 13.1211Z" fill="black" fill-opacity="0.85"/>
</svg>
