<svg width="28" height="32" viewBox="0 0 28 32" fill="none" xmlns="http://www.w3.org/2000/svg">
<path d="M5 18.1002C5 22.4127 5.87891 25.7994 7.92969 29.1862C9.07812 31.0377 11.0234 31.5885 13.0273 30.6158L15.3477 29.4908C17.4453 28.483 18.4414 27.1471 18.4414 25.319C18.4414 24.4987 18.1484 23.8658 18.1484 23.3268C18.1484 22.694 18.582 22.3072 19.332 22.3072H21.5117C22.25 22.3072 22.7891 21.6979 22.7891 20.901V18.0885C22.7891 17.1979 22.168 16.5533 21.3242 16.5533H18.4414C17.3164 16.5533 16.7773 15.9088 16.7773 14.8424C16.7773 12.2291 17.2461 9.19396 19.0859 5.01037C19.9648 3.00646 19.3438 1.55334 17.2344 0.721307L16.0859 0.275995C14.3047 -0.42713 12.7695 0.311151 11.7266 1.38928C6.92188 6.44006 5 13.2135 5 18.1002Z" fill="black" fill-opacity="0.85"/>
</svg>
