<svg width="28" height="28" viewBox="0 0 28 28" fill="none" xmlns="http://www.w3.org/2000/svg">
<path d="M13.9531 25.918C20.4922 25.918 25.9062 20.5039 25.9062 13.9648C25.9062 7.4375 20.4805 2.01172 13.9414 2.01172C7.41406 2.01172 2 7.4375 2 13.9648C2 20.5039 7.42578 25.918 13.9531 25.918Z" fill="black" fill-opacity="0.85"/>
<path d="M10.3555 19.9062C9.03125 19.9062 8.36328 19.2617 8.36328 17.9727V11.4453C8.36328 10.1445 9.03125 9.51172 10.3555 9.51172H11.3516C11.375 8.17578 12.5234 7.05078 13.9531 7.05078C15.3828 7.05078 16.5312 8.17578 16.5547 9.51172H17.5508C18.875 9.51172 19.543 10.1563 19.543 11.4453V17.9727C19.543 19.2617 18.8867 19.9062 17.75 19.9062H10.3555ZM12.5234 9.51172H15.3828C15.3477 8.69141 14.8086 8.16406 13.9531 8.16406C13.0977 8.16406 12.5586 8.69141 12.5234 9.51172Z" fill="white"/>
</svg>
