<svg width="28" height="28" viewBox="0 0 28 28" fill="none" xmlns="http://www.w3.org/2000/svg">
<g clip-path="url(#clip0_2124_24691)">
<path d="M4 24.3086C4 26.1602 5.30078 27.4023 7.24609 27.4023H20.3359C22.2812 27.4023 23.582 26.1602 23.582 24.3086V4.10547C23.582 2.25391 22.2812 1 20.3359 1H7.24609C5.30078 1 4 2.25391 4 4.10547V24.3086ZM5.88672 23.9922V4.42188C5.88672 3.46094 6.47266 2.88672 7.48047 2.88672H20.1016C21.0977 2.88672 21.6953 3.46094 21.6953 4.42188V23.9922C21.6953 24.9531 21.0977 25.5156 20.1016 25.5156H7.48047C6.47266 25.5156 5.88672 24.9531 5.88672 23.9922Z" fill="black" fill-opacity="0.85"/>
<path d="M11.8164 18.1797H15.7891C16.4219 18.1797 16.7383 17.8516 16.7383 17.1836V14.1367C16.7383 13.6094 16.5391 13.3047 16.1523 13.1758V12.3789C16.1523 10.7969 15.2031 9.71875 13.7969 9.71875C12.4023 9.71875 11.4414 10.7969 11.4414 12.3789V13.1875C11.0664 13.3047 10.8555 13.6094 10.8555 14.1367V17.1836C10.8555 17.8516 11.1836 18.1797 11.8164 18.1797ZM12.6016 13.1289V12.2734C12.6016 11.4062 13.0703 10.8438 13.7969 10.8438C14.5234 10.8438 14.9922 11.4062 14.9922 12.2734V13.1289H12.6016Z" fill="black" fill-opacity="0.85"/>
</g>
<defs>
<clipPath id="clip0_2124_24691">
<rect width="19.582" height="26.4258" fill="white" transform="translate(4 1)"/>
</clipPath>
</defs>
</svg>
