<svg width="28" height="28" viewBox="0 0 28 28" fill="none" xmlns="http://www.w3.org/2000/svg">
<path d="M13.7383 26.293C13.9258 26.293 14.2305 26.2227 14.5234 26.0586C21.1914 22.3203 23.4766 20.7383 23.4766 16.4609V7.49609C23.4766 6.26562 22.9492 5.87891 21.9531 5.45703C20.5703 4.88281 16.1055 3.27734 14.7227 2.79687C14.4062 2.69141 14.0664 2.62109 13.7383 2.62109C13.4102 2.62109 13.0703 2.71484 12.7656 2.79687C11.3828 3.19531 6.90625 4.89453 5.52344 5.45703C4.53906 5.86719 4 6.26562 4 7.49609V16.4609C4 20.7383 6.29688 22.3086 12.9531 26.0586C13.2578 26.2227 13.5508 26.293 13.7383 26.293ZM13.7383 24.1719C13.5508 24.1719 13.3633 24.1016 13.0117 23.8906C7.59766 20.6094 5.86328 19.6484 5.86328 16.0273V7.85938C5.86328 7.46094 5.93359 7.30859 6.26172 7.17969C8.04297 6.47656 11.5 5.31641 13.2695 4.61328C13.457 4.53125 13.6094 4.50781 13.7383 4.50781C13.8672 4.50781 14.0195 4.54297 14.207 4.61328C15.9766 5.31641 19.4102 6.55859 21.2266 7.17969C21.543 7.29688 21.6133 7.46094 21.6133 7.85938V16.0273C21.6133 19.6484 19.8789 20.5977 14.4648 23.8906C14.125 24.1016 13.9258 24.1719 13.7383 24.1719Z" fill="black" fill-opacity="0.85"/>
<path d="M14.8281 8.96095V10.2031H9.08594C8.66406 10.2031 8.3125 10.5547 8.3125 10.9766C8.3125 11.3984 8.66406 11.7383 9.08594 11.7383H14.8281V12.9805C14.8281 13.4961 15.3203 13.6602 15.707 13.4023L18.625 11.4336C18.9531 11.2109 18.9414 10.7656 18.5898 10.5195L15.6953 8.56251C15.3203 8.3047 14.8281 8.45704 14.8281 8.96095ZM8.55859 17.4219L11.4766 19.3906C11.8516 19.6367 12.3555 19.4727 12.3555 18.9688V17.7266H18.0977C18.5195 17.7266 18.8594 17.3867 18.8594 16.9648C18.8594 16.543 18.5195 16.1914 18.0977 16.1914H12.3555V14.9375C12.3555 14.4453 11.8516 14.293 11.4883 14.5391L8.58203 16.4961C8.23047 16.7422 8.23047 17.1875 8.55859 17.4219Z" fill="black" fill-opacity="0.85"/>
</svg>
