<svg width="31" height="28" viewBox="0 0 31 28" fill="none" xmlns="http://www.w3.org/2000/svg">
<path d="M30.3281 14.8737V7.52606C30.3281 5.41669 28.9102 3.987 26.7891 3.987L3.51562 3.99872C1.41797 3.99872 0 5.44012 0 7.56122V14.8737C0 17.9089 1.30078 19.7722 4.42969 20.6979L14.5781 23.6511C17.2969 24.4479 19.043 24.1315 21.4688 22.8776L28.0547 19.4909C29.918 18.53 30.3281 17.3815 30.3281 14.8737ZM28.4414 14.8737C28.4414 16.6081 28.1133 17.3698 26.8594 18.0026L20.4609 21.2722C18.4453 22.2917 17.0156 22.5026 14.5781 21.7761L4.98047 18.9284C2.77734 18.2839 1.88672 17.0065 1.88672 14.8737V7.59637C1.88672 6.56512 2.54297 5.88544 3.55078 5.88544L26.7656 5.87372C27.7734 5.87372 28.4414 6.54169 28.4414 7.56122V14.8737Z" fill="black" fill-opacity="0.85"/>
<path d="M10.1367 17.6393H13.5C13.8867 17.6393 14.2148 17.3112 14.2148 16.9245C14.2148 16.5378 13.8867 16.2097 13.5 16.2097H10.9922V8.86201C10.9922 8.40498 10.6055 8.01826 10.1484 8.01826C9.67969 8.01826 9.29297 8.40498 9.29297 8.86201V16.7487C9.29297 17.2995 9.59766 17.6393 10.1367 17.6393ZM18.0703 17.8386C19.7461 17.8386 21.0469 16.7839 21.0469 15.0261C21.0469 13.5729 20.168 12.8581 19.1836 12.7526V12.7058C20.2383 12.4245 20.7656 11.487 20.7656 10.5026C20.7656 8.88545 19.5469 7.95966 18.0234 7.95966C16.8164 7.95966 15.7617 8.63935 15.4336 9.68232C15.3633 9.90498 15.3398 10.1159 15.3398 10.3151C15.3398 10.6901 15.5977 11.0065 16.0547 11.0065C16.4648 11.0065 16.6875 10.8425 16.8047 10.444C16.9922 9.75263 17.3672 9.30732 18.0234 9.30732C18.7969 9.30732 19.1602 9.9167 19.1602 10.6901C19.1602 11.5456 18.6914 12.1667 17.8125 12.1667H17.5312C17.1328 12.1667 16.8867 12.4128 16.8867 12.7878C16.8867 13.1745 17.1445 13.4089 17.5312 13.4089H17.8242C18.8203 13.4089 19.3711 13.9479 19.3711 14.9792C19.3711 15.7878 18.9375 16.4675 18.0703 16.4675C17.2148 16.4675 16.8398 15.8932 16.6875 15.3659C16.582 14.9909 16.3242 14.7917 15.9492 14.7917C15.4922 14.7917 15.1875 15.0612 15.1875 15.53C15.1875 15.7409 15.2227 15.9518 15.2812 16.1393C15.6211 17.2292 16.8047 17.8386 18.0703 17.8386Z" fill="black" fill-opacity="0.85"/>
</svg>
