<svg width="28" height="28" viewBox="0 0 28 28" fill="none" xmlns="http://www.w3.org/2000/svg">
<g clip-path="url(#clip0_2124_32156)">
<path d="M3.34766 22.3477H4.85938V6.71484C4.85938 5.87109 5.26953 5.40234 6.13672 5.28516C8.07031 5.01562 11.0586 4.89844 14.1875 4.89844C17.3047 4.89844 20.293 5.01562 22.25 5.28516C23.1289 5.39062 23.5156 5.80078 23.5156 6.71484V22.3477H25.0391V6.25781C25.0391 4.82812 24.207 3.98438 22.6484 3.79688C20.375 3.51562 17.1992 3.36328 14.1875 3.36328C11.1758 3.36328 8 3.51562 5.71484 3.79688C4.16797 3.98438 3.34766 4.82812 3.34766 6.25781V22.3477ZM2 23.0977C2 23.6133 2.42188 24.0469 2.9375 24.0469H25.4492C25.9648 24.0469 26.3867 23.6133 26.3867 23.0977C26.3867 22.582 25.9648 22.1602 25.4492 22.1602H2.9375C2.42188 22.1602 2 22.582 2 23.0977ZM6.62891 1.30078C6.62891 1.82812 7.07422 2.33203 7.625 2.26172C9.37109 2.05078 11.7852 1.95703 14.1875 1.95703C16.5898 1.95703 19.0156 2.05078 20.7617 2.26172C21.3008 2.33203 21.7461 1.82812 21.7461 1.30078C21.7461 0.773438 21.3242 0.386719 20.7617 0.316406C18.9922 0.105469 16.5547 0 14.1875 0C11.832 0 9.39453 0.105469 7.61328 0.316406C7.0625 0.386719 6.62891 0.773438 6.62891 1.30078ZM7.96484 0.996094V4.20703H9.5V0.996094H7.96484ZM18.8867 0.996094V4.20703H20.4219V0.996094H18.8867ZM14.1875 20.8242C15.2539 20.8242 16.0977 20.0273 16.0977 18.9609C16.0977 17.8711 15.2539 17.0273 14.1875 17.0273C13.0977 17.0273 12.3008 17.8711 12.3008 18.9609C12.3008 20.0273 13.0977 20.8242 14.1875 20.8242ZM6.11328 14.7539C6.11328 15.1055 6.34766 15.3398 6.72266 15.3398H9.875C10.25 15.3398 10.4844 15.1055 10.4844 14.7539V9.02344C10.4844 7.79297 9.52344 6.84375 8.30469 6.84375C7.0625 6.84375 6.11328 7.79297 6.11328 9.02344V14.7539ZM11.7266 14.7539C11.7266 15.1055 11.9609 15.3398 12.3359 15.3398H16.0273C16.4141 15.3398 16.6484 15.1055 16.6484 14.7539V8.75391C16.6484 7.28906 15.6641 6.30469 14.1875 6.30469C12.7109 6.30469 11.7266 7.28906 11.7266 8.75391V14.7539ZM17.8789 14.7539C17.8789 15.1055 18.125 15.3398 18.5 15.3398H21.6523C22.0273 15.3398 22.2617 15.1055 22.2617 14.7539V9.02344C22.2617 7.79297 21.3008 6.84375 20.082 6.84375C18.8398 6.84375 17.8789 7.79297 17.8789 9.02344V14.7539ZM5.90234 28.582H6.55859C6.875 28.582 7.0625 28.4766 7.23828 28.1953L10.5664 22.8164H8.32812L5.375 27.5625C5.07031 28.0547 5.35156 28.582 5.90234 28.582ZM21.418 28.582H22.0742C22.6133 28.582 22.8945 28.0547 22.5898 27.5625L19.6367 22.8164H17.3984L20.7266 28.1953C20.9023 28.4766 21.0898 28.582 21.418 28.582Z" fill="black" fill-opacity="0.85"/>
</g>
<defs>
<clipPath id="clip0_2124_32156">
<rect width="28" height="28" fill="white"/>
</clipPath>
</defs>
</svg>
