<svg width="28" height="31" viewBox="0 0 28 31" fill="none" xmlns="http://www.w3.org/2000/svg">
<path d="M5.93309 27.4336C7.72606 29.2383 10.0112 30.375 12.4956 30.375C13.0932 30.375 13.5034 29.9883 13.5034 29.4375C13.5034 28.9336 13.105 28.6055 12.437 28.5586C10.5151 28.4414 8.64012 27.6445 7.17528 26.1914C5.72215 24.7266 4.92528 22.8633 4.80809 20.9297C4.7495 20.1797 4.44481 19.8867 3.85887 19.8867C3.40184 19.8867 2.95653 20.2148 3.0034 20.8594C3.15575 23.3438 4.11668 25.6406 5.93309 27.4336Z" fill="black" fill-opacity="0.85"/>
<path d="M8.83959 24.5156C10.0466 25.7227 11.6873 26.3203 12.6951 26.3203C13.2459 26.3203 13.6209 25.9688 13.6209 25.4648C13.6209 24.9961 13.2928 24.6211 12.5662 24.5156C11.6638 24.4219 10.8201 24 10.0818 23.2734C9.37865 22.5586 8.9685 21.6914 8.83959 20.6953C8.73412 20.0391 8.47631 19.7695 7.90209 19.7695C7.38646 19.7695 6.97631 20.168 7.05834 20.8008C7.21068 22.2305 7.82006 23.4961 8.83959 24.5156Z" fill="black" fill-opacity="0.85"/>
<path d="M17.8623 23.0742C22.3623 23.0742 24.3662 22.0547 24.3662 19.4648V4.25391C24.3662 1.58203 21.9052 0 17.8623 0C13.7959 0 11.335 1.58203 11.335 4.25391V19.4648C11.335 22.0547 13.3506 23.0742 17.8623 23.0742ZM17.8506 9.64453C17.0302 9.64453 15.6592 9.71484 15.2021 9.71484C14.4756 9.71484 14.1474 9.41016 14.0771 8.64844L13.9365 6.96094C13.8193 5.56641 14.7334 5.03906 17.8506 5.03906C20.9677 5.03906 21.8818 5.56641 21.7646 6.96094L21.6123 8.64844C21.5537 9.41016 21.2138 9.71484 20.499 9.71484C20.0302 9.71484 18.7177 9.64453 17.8506 9.64453ZM17.8506 19.3359C14.7334 19.3359 13.7373 18.8789 13.9717 17.4375L14.0888 16.6172C14.2763 15.4688 15.167 15.1055 17.8506 15.1055C20.5342 15.1055 21.4248 15.4688 21.6006 16.6172L21.7295 17.4375C21.9521 18.8789 20.9677 19.3359 17.8506 19.3359ZM23.3701 9.23438H24.8701C25.456 9.23438 25.9013 8.78906 25.9013 8.23828V7.79297C25.9013 7.23047 25.456 6.79688 24.8701 6.79688H23.3701V9.23438ZM12.3311 9.23438V6.79688H10.8311C10.2451 6.79688 9.7998 7.23047 9.7998 7.79297V8.23828C9.7998 8.78906 10.2451 9.23438 10.8311 9.23438H12.3311Z" fill="black" fill-opacity="0.85"/>
</svg>
