<svg width="28" height="28" viewBox="0 0 28 28" fill="none" xmlns="http://www.w3.org/2000/svg">
<path d="M6.67969 24.5977H20.8945C23.3555 24.5977 24.5742 23.3789 24.5742 20.9648V6.65625C24.5742 4.24219 23.3555 3.02344 20.8945 3.02344H6.67969C4.23047 3.02344 3 4.23047 3 6.65625V20.9648C3 23.3906 4.23047 24.5977 6.67969 24.5977ZM6.70312 22.7109C5.53125 22.7109 4.88672 22.0898 4.88672 20.8711V6.75C4.88672 5.53125 5.53125 4.91016 6.70312 4.91016H20.8711C22.0312 4.91016 22.6875 5.53125 22.6875 6.75V20.8711C22.6875 22.0898 22.0312 22.7109 20.8711 22.7109H6.70312Z" fill="black" fill-opacity="0.85"/>
<path d="M11.2148 19.1602C11.8242 19.1602 12.1641 18.75 12.1641 18.1055V14.4727H16.3828C16.8398 14.4727 17.168 14.2266 17.168 13.7578C17.168 13.2773 16.8398 13.0078 16.3828 13.0078H12.1641V9.87891H16.8398C17.2969 9.87891 17.625 9.57422 17.625 9.10547C17.625 8.625 17.2969 8.34375 16.8398 8.34375H11.2031C10.6055 8.34375 10.2891 8.76562 10.2891 9.39844V18.1055C10.2891 18.7266 10.6055 19.1602 11.2148 19.1602Z" fill="black" fill-opacity="0.85"/>
</svg>
