<svg width="28" height="28" viewBox="0 0 28 28" fill="none" xmlns="http://www.w3.org/2000/svg">
<path d="M6.67969 24.5977H20.8945C23.3555 24.5977 24.5742 23.3789 24.5742 20.9648V6.65625C24.5742 4.24219 23.3555 3.02344 20.8945 3.02344H6.67969C4.23047 3.02344 3 4.23047 3 6.65625V20.9648C3 23.3906 4.23047 24.5977 6.67969 24.5977Z" fill="black" fill-opacity="0.85"/>
<path d="M13.793 15.9727C13.1836 15.9727 12.8555 15.6328 12.8437 15.0117L12.6797 8.625C12.668 8.00391 13.125 7.55859 13.7812 7.55859C14.4258 7.55859 14.9062 8.01562 14.8945 8.63672L14.7305 15.0117C14.7188 15.6445 14.3789 15.9727 13.793 15.9727ZM13.793 19.8984C13.0898 19.8984 12.4805 19.3359 12.4805 18.6445C12.4805 17.9531 13.0781 17.3789 13.793 17.3789C14.5078 17.3789 15.1055 17.9414 15.1055 18.6445C15.1055 19.3477 14.4961 19.8984 13.793 19.8984Z" fill="white"/>
</svg>
