<svg width="30" height="28" viewBox="0 0 30 28" fill="none" xmlns="http://www.w3.org/2000/svg">
<path d="M23.1562 23.3672C26.6953 23.3672 29.4609 20.7773 29.4609 17.5547C29.4609 15.0938 28.043 12.9609 25.7578 12C25.7812 6.77344 22.0195 3 17.2266 3C14.0508 3 11.7891 4.69922 10.3828 6.75C7.5 5.90625 4.35938 8.09766 4.30078 11.3789C1.65234 11.8008 0 14.168 0 17.0273C0 20.4727 3.01172 23.3672 7.01953 23.3672H23.1562ZM23.1562 21.4805H7.01953C4.06641 21.4805 1.88672 19.418 1.88672 17.0273C1.88672 14.6836 3.30469 12.8203 5.78906 12.8203C5.95312 12.8203 6.01172 12.7383 6.01172 12.5859C6.01172 8.97656 8.61328 7.91016 11.0156 8.69531C11.1562 8.74219 11.2383 8.70703 11.3086 8.57812C12.4453 6.55078 14.1914 4.88672 17.2266 4.88672C21.0703 4.88672 23.7305 7.93359 23.9297 11.4141C23.9648 11.9531 23.9297 12.5859 23.8828 13.1367C23.8711 13.2891 23.9297 13.3711 24.0703 13.4062C26.2031 13.875 27.5742 15.4336 27.5742 17.5547C27.5742 19.7344 25.6523 21.4805 23.1562 21.4805Z" fill="black" fill-opacity="0.85"/>
<path d="M14.7422 15.3516C15.3047 15.3516 15.6211 15.0234 15.6445 14.4141L15.8086 10.1133C15.832 9.46875 15.3516 9.02344 14.7305 9.02344C14.0977 9.02344 13.6406 9.45703 13.6641 10.1016L13.8281 14.4141C13.8516 15.0117 14.1562 15.3516 14.7422 15.3516ZM14.7305 19.0898C15.4102 19.0898 15.9961 18.5508 15.9961 17.8711C15.9961 17.1914 15.4219 16.6523 14.7305 16.6523C14.0391 16.6523 13.4648 17.2031 13.4648 17.8711C13.4648 18.5391 14.0508 19.0898 14.7305 19.0898Z" fill="black" fill-opacity="0.85"/>
</svg>
