<svg width="28" height="28" viewBox="0 0 28 28" fill="none" xmlns="http://www.w3.org/2000/svg">
<path d="M13.9531 25.9062C20.4922 25.9062 25.9062 20.4805 25.9062 13.9531C25.9062 7.41406 20.4805 2 13.9414 2C7.41406 2 2 7.41406 2 13.9531C2 20.4805 7.42578 25.9062 13.9531 25.9062ZM13.9531 23.9141C8.42188 23.9141 4.00391 19.4844 4.00391 13.9531C4.00391 8.42188 8.41016 3.99219 13.9414 3.99219C19.4727 3.99219 23.9141 8.42188 23.9141 13.9531C23.9141 19.4844 19.4844 23.9141 13.9531 23.9141Z" fill="black" fill-opacity="0.85"/>
<path d="M11.457 18.8398C11.9023 18.8398 12.2539 18.5703 12.2539 18.0078V16.8359H12.6758C13.1328 16.8359 13.3438 16.543 13.3438 16.1445C13.3438 15.7695 13.1445 15.4766 12.6758 15.4766H12.2539V10.332C12.2539 9.52344 11.7266 9.06641 10.9648 9.06641C10.1328 9.06641 9.74609 9.48828 9.41797 10.2148L7.33203 14.7617C7.13281 15.2188 7.0625 15.5234 7.0625 15.8867C7.0625 16.4492 7.44922 16.8359 8.02344 16.8359H10.6484V18.0078C10.6484 18.6289 11.0938 18.8398 11.457 18.8398ZM10.6836 15.5117H8.50391V15.4297L10.6367 10.543H10.6836V15.5117ZM16.8125 15.418C17.7734 15.418 18.4883 14.7852 18.7578 13.7773H18.8047C18.8047 13.8242 18.8047 13.8711 18.8047 13.9062C18.8047 15.207 18.6406 17.5508 17.3281 17.5508C16.8008 17.5508 16.4492 17.1875 16.2383 16.6836C16.0742 16.2969 15.8398 16.1445 15.4883 16.1445C14.9961 16.1445 14.7852 16.4727 14.7852 16.8594C14.7852 17 14.8203 17.1406 14.8555 17.2812C15.1016 18.3008 16.1211 18.9219 17.293 18.9219C19.6953 18.9219 20.3984 16.2617 20.3984 13.8594C20.3984 11.6445 19.6953 8.99609 17.3164 8.99609C15.5352 8.99609 14.5039 10.4961 14.5039 12.3359C14.5039 13.918 15.2656 15.418 16.8125 15.418ZM17.3398 14.1289C16.4727 14.1289 16.1211 13.1328 16.1211 12.2656C16.1211 11.3867 16.5195 10.3555 17.3398 10.3555C18.2188 10.3555 18.582 11.3867 18.582 12.2656C18.582 13.168 18.1836 14.1289 17.3398 14.1289Z" fill="black" fill-opacity="0.85"/>
</svg>
