<svg width="28" height="28" viewBox="0 0 28 28" fill="none" xmlns="http://www.w3.org/2000/svg">
<path d="M1.22407 12.7891L4.6811 23.5352C5.20844 25.2109 6.3686 26.0664 8.14985 26.0664H19.2358C21.017 26.0664 22.1772 25.2109 22.7045 23.5352L26.1381 12.8359C26.6889 11.1016 26.267 9.73047 24.8608 8.69922L15.8842 2.10156C14.4077 1.01172 12.978 1.01172 11.5014 2.10156L2.52485 8.69922C1.1186 9.73047 0.685006 11.0898 1.22407 12.7891ZM3.00532 12.2148C2.71235 11.3242 2.89985 10.7852 3.66157 10.2109L12.6264 3.60156C13.4116 3.02734 13.9741 3.02734 14.7475 3.60156L23.7123 10.2109C24.4858 10.7852 24.6616 11.3359 24.3686 12.25L20.935 22.9609C20.642 23.8516 20.185 24.1797 19.2358 24.1797H8.14985C7.20063 24.1797 6.7436 23.8516 6.45063 22.9609L3.00532 12.2148Z" fill="black" fill-opacity="0.85"/>
</svg>
