<svg width="28" height="28" viewBox="0 0 28 28" fill="none" xmlns="http://www.w3.org/2000/svg">
<path d="M13.9531 25.918C20.4922 25.918 25.9062 20.5039 25.9062 13.9648C25.9062 7.4375 20.4805 2.01172 13.9414 2.01172C7.41406 2.01172 2 7.4375 2 13.9648C2 20.5039 7.42578 25.918 13.9531 25.918Z" fill="black" fill-opacity="0.85"/>
<path d="M19.3438 14.5273C19.3438 17.5508 16.9414 19.9766 13.9531 19.9766C10.9648 19.9766 8.5625 17.5508 8.5625 14.5742C8.5625 14.1172 8.94922 13.7422 9.39453 13.7422C9.86328 13.7422 10.2383 14.1172 10.2383 14.5742C10.2383 16.6367 11.8906 18.3008 13.9531 18.3008C16.0273 18.3008 17.668 16.6367 17.668 14.5742C17.668 12.5 16.0273 10.8477 13.9531 10.8477C13.8008 10.8477 13.6484 10.8594 13.5312 10.8828L14.6914 12.0312C14.832 12.1836 14.9258 12.3711 14.9258 12.582C14.9258 13.0156 14.5977 13.3555 14.1523 13.3555C13.9648 13.3555 13.7539 13.25 13.625 13.1211L11.2812 10.7891C10.9883 10.4961 11 9.95703 11.2812 9.66406L13.6016 7.30859C13.7422 7.15625 13.9414 7.05078 14.1523 7.05078C14.5977 7.05078 14.9258 7.40234 14.9258 7.83594C14.9258 8.04688 14.832 8.25781 14.7148 8.38672L13.8711 9.25391C13.9531 9.24219 14.082 9.23047 14.1875 9.23047C16.9062 9.23047 19.3438 11.5625 19.3438 14.5273Z" fill="white"/>
</svg>
