<svg width="28" height="28" viewBox="0 0 28 28" fill="none" xmlns="http://www.w3.org/2000/svg">
<path d="M13.9531 25.9062C20.4922 25.9062 25.9062 20.4805 25.9062 13.9531C25.9062 7.41406 20.4805 2 13.9414 2C7.41406 2 2 7.41406 2 13.9531C2 20.4805 7.42578 25.9062 13.9531 25.9062ZM13.9531 23.9141C8.42188 23.9141 4.00391 19.4844 4.00391 13.9531C4.00391 8.42188 8.41016 3.99219 13.9414 3.99219C19.4727 3.99219 23.9141 8.42188 23.9141 13.9531C23.9141 19.4844 19.4844 23.9141 13.9531 23.9141Z" fill="black" fill-opacity="0.85"/>
<path d="M11.2812 18.7695C11.7031 18.7695 11.9961 18.5 11.9961 18.2422V17.9375L8.14062 14.3984C7.76562 14.0469 7.56641 13.6133 7.56641 13.1562C7.56641 12.6992 7.75391 12.2773 8.14062 11.9258L11.9961 8.39844V8.10547C11.9961 7.8125 11.7031 7.55469 11.2695 7.55469C10.9766 7.55469 10.7773 7.67188 10.4609 7.97656L5.62109 12.5117C5.38672 12.7344 5.31641 12.9453 5.31641 13.1562C5.31641 13.3672 5.38672 13.5898 5.62109 13.8125L10.4609 18.3594C10.7656 18.6406 10.9883 18.7695 11.2812 18.7695ZM14.375 18.7695C14.7734 18.7695 15.0781 18.4648 15.0781 18.043V15.6992H15.2656C17.6445 15.6992 19.1797 16.3086 20.2109 18.3125C20.4102 18.6875 20.6914 18.7695 20.9609 18.7695C21.3008 18.7695 21.582 18.4766 21.582 17.9609C21.582 13.4141 19.6367 10.6367 15.2656 10.6367H15.0781V8.30469C15.0781 7.89453 14.7734 7.55469 14.3633 7.55469C14.0703 7.55469 13.8711 7.68359 13.5547 7.97656L8.72656 12.5117C8.48047 12.7461 8.39844 12.9453 8.39844 13.1562C8.39844 13.3672 8.48047 13.5781 8.72656 13.8125L13.5547 18.3594C13.8477 18.6406 14.0938 18.7695 14.375 18.7695Z" fill="black" fill-opacity="0.85"/>
</svg>
