<svg width="28" height="28" viewBox="0 0 28 28" fill="none" xmlns="http://www.w3.org/2000/svg">
<path d="M13.9531 25.9062C20.4922 25.9062 25.9062 20.4805 25.9062 13.9531C25.9062 7.41406 20.4805 2 13.9414 2C7.41406 2 2 7.41406 2 13.9531C2 20.4805 7.42578 25.9062 13.9531 25.9062ZM13.9531 23.9141C8.42188 23.9141 4.00391 19.4844 4.00391 13.9531C4.00391 8.42188 8.41016 3.99219 13.9414 3.99219C19.4727 3.99219 23.9141 8.42188 23.9141 13.9531C23.9141 19.4844 19.4844 23.9141 13.9531 23.9141Z" fill="black" fill-opacity="0.85"/>
<path d="M8.43359 17.1055H14.2461C15.8281 17.1055 17.0352 15.8984 17.0352 14.3516C17.0352 12.8516 15.8164 11.6914 14.1875 11.6562C13.5547 10.4844 12.4414 9.74609 11.0938 9.74609C9.3125 9.74609 7.8125 11.1289 7.61328 12.8984C6.73438 13.2031 6.11328 13.9766 6.11328 14.9727C6.11328 16.2031 7.03906 17.1055 8.43359 17.1055ZM13.1211 9.26562C13.332 9.48828 13.6836 9.46484 13.8828 9.26562C14.0703 9.06641 14.0938 8.71484 13.8828 8.51562L13.0391 7.68359C12.8281 7.48438 12.5 7.48438 12.2891 7.68359C12.0898 7.87109 12.0898 8.22266 12.2891 8.43359L13.1211 9.26562ZM16.2734 8.25781C16.5781 8.25781 16.8125 8.02344 16.8125 7.73047V6.55859C16.8125 6.26562 16.5781 6.03125 16.2734 6.03125C15.9922 6.03125 15.7461 6.26562 15.7461 6.55859V7.73047C15.7461 8.02344 15.9922 8.25781 16.2734 8.25781ZM18.6875 9.25391C18.8867 9.46484 19.25 9.48828 19.4609 9.26562L20.2812 8.43359C20.4805 8.22266 20.4688 7.87109 20.2812 7.68359C20.0703 7.48438 19.7422 7.47266 19.5312 7.68359L18.6875 8.51562C18.4766 8.71484 18.5 9.06641 18.6875 9.25391ZM20.2227 12.1953H21.3828C21.6875 12.1953 21.9219 11.9609 21.9219 11.668C21.9219 11.3633 21.6875 11.1406 21.3828 11.1406H20.2227C19.9414 11.1406 19.6953 11.3633 19.6953 11.668C19.6953 11.9609 19.9414 12.1953 20.2227 12.1953ZM19.5312 15.6758C19.7422 15.8867 20.0703 15.8633 20.2812 15.6641C20.4688 15.4531 20.4805 15.1016 20.2812 14.9141L19.4609 14.0938C19.25 13.8945 18.8984 13.8945 18.6875 14.0938C18.5 14.293 18.4766 14.6445 18.6875 14.8555L19.5312 15.6758ZM19.0273 11.668C19.0273 10.1445 17.8086 8.9375 16.2734 8.9375C15.3477 8.9375 14.5156 9.40625 14.0352 10.1211C14.2812 10.3555 14.4805 10.6016 14.668 10.8945C16.3555 11.1055 17.6445 12.3242 17.8203 13.9531C18.5703 13.4141 19.0273 12.5938 19.0273 11.668ZM9.92188 19.707C9.86328 19.8477 9.92188 19.9648 10.0859 19.9648H11.0938L10.3086 21.8633C10.25 22.0156 10.4258 22.1094 10.543 21.9805L13.1328 19.3438C13.2617 19.2148 13.2031 19.0391 13.0273 19.0391H11.8438L12.4062 17.9727C12.4766 17.8438 12.418 17.7266 12.2773 17.7266H11.0117C10.8359 17.7266 10.7656 17.7852 10.707 17.9141L9.92188 19.707Z" fill="black" fill-opacity="0.85"/>
</svg>
