<svg width="28" height="28" viewBox="0 0 28 28" fill="none" xmlns="http://www.w3.org/2000/svg">
<path d="M13.9531 25.9062C20.4922 25.9062 25.9062 20.4805 25.9062 13.9531C25.9062 7.41406 20.4805 2 13.9414 2C7.41406 2 2 7.41406 2 13.9531C2 20.4805 7.42578 25.9062 13.9531 25.9062Z" fill="black" fill-opacity="0.85"/>
<path d="M13.3789 19.6133C11.7031 19.6133 10.4023 18.793 9.98047 17.5391C9.91016 17.3516 9.875 17.1758 9.875 16.9648C9.875 16.4375 10.2383 16.0625 10.7773 16.0625C11.1875 16.0625 11.457 16.2617 11.668 16.7188C11.9609 17.5039 12.5703 17.9492 13.4727 17.9492C14.4688 17.9492 15.0898 17.2227 15.0898 16.0156V9.27734C15.0898 8.63281 15.4297 8.1875 16.0508 8.1875C16.6836 8.1875 17.0352 8.60938 17.0352 9.27734V16.0391C17.0352 18.3477 15.7461 19.6133 13.3789 19.6133Z" fill="white"/>
</svg>
