<svg width="29" height="28" viewBox="0 0 29 28" fill="none" xmlns="http://www.w3.org/2000/svg">
<path d="M1.32422 24.2889C1.72266 24.2889 2.07422 24.0545 2.51953 23.785C3.80859 22.9061 5.39062 22.367 7.01953 22.3787C8.54297 22.3905 10.043 22.8826 11.2969 23.9139C10.957 23.1405 10.8633 22.2967 11.0625 21.4764C9.9375 20.8787 8.53125 20.492 7.06641 20.492C5.02734 20.492 3.12891 21.0662 1.88672 21.9569V7.32019C2.83594 5.94909 4.89844 5.02331 7.06641 5.02331C9.29297 5.02331 11.2383 5.96081 12.0703 7.3905V19.4959C12.4453 19.0389 13.4648 18.2655 13.957 17.9256V7.3905C14.8008 5.96081 16.7461 5.02331 18.9727 5.02331C20.9648 5.02331 22.8867 5.82019 23.8945 7.0155C24.6094 6.93347 25.3359 6.99206 26.0273 7.203C26.0273 6.85144 26.0156 6.68737 25.8984 6.48816C24.8438 4.67175 22.207 3.1366 18.9727 3.1366C16.418 3.1366 14.2031 4.15612 13.0195 5.59753C11.8359 4.15612 9.62109 3.1366 7.06641 3.1366C3.83203 3.1366 1.19531 4.67175 0.140625 6.48816C0.0234375 6.68737 0 6.85144 0 7.05066V22.953C0 23.9139 0.632812 24.2889 1.32422 24.2889ZM24.7148 24.2889C25.4062 24.2889 26.0273 23.9139 26.0273 22.953V18.4764C25.2539 18.6991 24.5977 18.6522 24.1406 18.7694V21.9569C23.5195 21.4764 22.6406 21.078 21.6094 20.8787C21.1992 21.4178 20.7773 21.992 20.4023 22.5428C21.5625 22.7069 22.6523 23.1522 23.5195 23.785C23.9648 24.0545 24.3047 24.2889 24.7148 24.2889Z" fill="black" fill-opacity="0.85"/>
<path d="M13.3943 24.207C14.531 25.3437 16.2303 25.3906 17.3436 24.0546C18.1639 23.0702 20.2264 19.7187 21.9959 17.9492C22.9803 16.9648 24.3045 16.8476 25.0428 16.8476C27.8084 16.8476 28.8865 14.621 28.5467 13.0859L25.0428 14.0117L24.6443 12.582C24.5037 12.0546 24.7264 11.6093 25.324 11.4453L27.9139 10.7539C27.8201 10.5195 27.5975 10.1796 27.3162 9.88667C25.7225 8.26949 23.0857 8.23433 21.5154 9.73433C19.2303 11.9023 20.9764 14.2226 19.4646 15.7343C17.5662 17.621 14.9412 19.0038 13.5467 20.246C12.2342 21.4179 12.2459 23.0585 13.3943 24.207ZM15.3396 23.1054C14.8709 23.1054 14.4842 22.7187 14.4842 22.2499C14.4842 21.7812 14.8709 21.4062 15.3396 21.4062C15.8201 21.4062 16.1951 21.7812 16.1951 22.2499C16.1951 22.7187 15.8201 23.1054 15.3396 23.1054Z" fill="black" fill-opacity="0.85"/>
</svg>
