<svg width="28" height="28" viewBox="0 0 28 28" fill="none" xmlns="http://www.w3.org/2000/svg">
<path d="M13.9531 25.9062C20.4922 25.9062 25.9062 20.4805 25.9062 13.9531C25.9062 7.41406 20.4805 2 13.9414 2C7.41406 2 2 7.41406 2 13.9531C2 20.4805 7.42578 25.9062 13.9531 25.9062ZM13.9531 23.9141C8.42188 23.9141 4.00391 19.4844 4.00391 13.9531C4.00391 8.42188 8.41016 3.99219 13.9414 3.99219C19.4727 3.99219 23.9141 8.42188 23.9141 13.9531C23.9141 19.4844 19.4844 23.9141 13.9531 23.9141Z" fill="black" fill-opacity="0.85"/>
<path d="M10.8828 19.3203C11.4922 19.3203 11.832 18.9219 11.832 18.2656V15.8281L13.2617 14.3516L16.6836 18.8633C16.918 19.1797 17.1641 19.3203 17.4922 19.3203C18.0195 19.3203 18.3945 18.9453 18.3945 18.4414C18.3945 18.207 18.3008 17.9492 18.125 17.7266L14.6328 13.1445L17.8438 9.83984C18.0547 9.61719 18.1367 9.41797 18.1367 9.16016C18.1367 8.72656 17.7617 8.36328 17.2812 8.36328C16.9883 8.36328 16.7891 8.46875 16.5195 8.73828L11.9023 13.4492H11.832V9.41797C11.832 8.76172 11.4922 8.36328 10.8828 8.36328C10.3086 8.36328 9.95703 8.76172 9.95703 9.41797V18.2656C9.95703 18.9219 10.3086 19.3203 10.8828 19.3203Z" fill="black" fill-opacity="0.85"/>
</svg>
