<svg width="28" height="28" viewBox="0 0 28 28" fill="none" xmlns="http://www.w3.org/2000/svg">
<path d="M13.6058 8.12109C15.0121 8.12109 16.1605 6.97266 16.1605 5.54297C16.1605 4.13672 15.0121 3 13.6058 3C12.1762 3 11.0394 4.13672 11.0394 5.54297C11.0394 6.97266 12.1762 8.12109 13.6058 8.12109ZM2.70741 18.9609L8.59022 19.4531C9.64491 19.5469 9.86757 19.6172 10.8754 19.8984L18.0473 21.9141L24.4926 24.2695C25.0551 24.4688 25.8168 24.2695 26.0394 23.5547C26.2269 22.9336 25.9457 22.2539 25.3246 22.0312L18.891 19.6875C18.7855 19.6523 18.5746 19.5703 18.4926 19.5352L13.4887 17.7305C14.1566 16.4531 15.059 14.4023 15.2933 12.1758C15.3168 11.918 15.4808 11.7891 15.7152 11.7891H24.3168C24.9848 11.7891 25.5004 11.25 25.5004 10.5938C25.5004 9.92578 24.9848 9.39844 24.3168 9.39844H14.8832C13.3012 9.39844 13.1605 9.38672 11.4379 8.91797L2.51991 6.44531C1.87538 6.26953 1.23085 6.64453 1.04335 7.27734C0.867567 7.92188 1.24257 8.57812 1.87538 8.75391L10.1957 11.0508C10.4066 11.1094 10.5472 11.2734 10.5238 11.5195C10.2543 13.6172 9.23475 15.6445 8.69569 16.5703H3.99647V11.7891C3.99647 11.1328 3.43397 10.5938 2.78944 10.5938C2.13319 10.5938 1.59413 11.1328 1.59413 11.7891V17.7539C1.59413 18.457 1.91054 18.8789 2.70741 18.9609Z" fill="black" fill-opacity="0.85"/>
</svg>
