<svg width="28" height="28" viewBox="0 0 28 28" fill="none" xmlns="http://www.w3.org/2000/svg">
<path d="M6.67969 24.5977H20.8945C23.3555 24.5977 24.5742 23.3789 24.5742 20.9648V6.65625C24.5742 4.24219 23.3555 3.02344 20.8945 3.02344H6.67969C4.23047 3.02344 3 4.23047 3 6.65625V20.9648C3 23.3906 4.23047 24.5977 6.67969 24.5977Z" fill="black" fill-opacity="0.85"/>
<path d="M13.2188 19.4531C11.543 19.4531 10.2422 18.6328 9.82031 17.3789C9.75 17.1914 9.71484 17.0156 9.71484 16.8047C9.71484 16.2773 10.0781 15.9023 10.6172 15.9023C11.0273 15.9023 11.2969 16.1016 11.5078 16.5586C11.8125 17.3438 12.4102 17.7891 13.3125 17.7891C14.3086 17.7891 14.9297 17.0625 14.9297 15.8555V9.11719C14.9297 8.47266 15.2695 8.02734 15.8906 8.02734C16.5352 8.02734 16.875 8.44922 16.875 9.11719V15.8789C16.875 18.1875 15.5859 19.4531 13.2188 19.4531Z" fill="white"/>
</svg>
