<svg width="32" height="28" viewBox="0 0 32 28" fill="none" xmlns="http://www.w3.org/2000/svg">
<path d="M10.2891 24.8086C10.8164 24.8086 11.1328 24.5508 11.25 24.082C12.5156 20.168 14.5312 18.7852 17.8594 18.7852L18.2812 18.7969V23.2734C18.2812 24.0586 18.8555 24.6445 19.6523 24.6445C20.2266 24.6445 20.6953 24.4102 21.2578 23.8828L30.5156 15.1523C30.9609 14.7305 31.1016 14.2852 31.1016 13.8984C31.1016 13.5 30.9609 13.0547 30.5156 12.6328L21.2578 3.98438C20.6367 3.39844 20.25 3.14062 19.6758 3.14062C18.8555 3.14062 18.2812 3.79688 18.2812 4.58203V9.01172H17.9414C14.2617 9.01172 11.0625 11.1914 10.3359 15.5742H10.207C9.39844 10.7227 6.07031 9.01172 2.91797 9.01172C2.85938 9.01172 2.67188 9.01172 2.26172 9.01172C0.644531 9.01172 0 9.62109 0 11.3672V16.9688C0 18.293 0.632812 18.8555 2.15625 18.8555C2.50781 18.8555 2.82422 18.8555 3.1875 18.8555C6.38672 18.8555 8.49609 20.9883 9.33984 24.0703C9.44531 24.5508 9.75 24.8086 10.2891 24.8086Z" fill="black" fill-opacity="0.85"/>
</svg>
