<svg width="28" height="28" viewBox="0 0 28 28" fill="none" xmlns="http://www.w3.org/2000/svg">
<path d="M13.9531 25.9062C20.4922 25.9062 25.9062 20.4922 25.9062 13.9531C25.9062 7.42578 20.4805 2 13.9414 2C7.41406 2 2 7.42578 2 13.9531C2 20.4922 7.42578 25.9062 13.9531 25.9062Z" fill="black" fill-opacity="0.85"/>
<path d="M14.0125 20.7031C10.5673 20.7031 7.83679 18.3945 7.25085 15.0312H5.97351C5.39929 15.0312 5.29382 14.4922 5.59851 14.0586L7.5321 11.3281C7.88366 10.8594 8.44616 10.8828 8.76257 11.3281L10.7313 14.0586C11.036 14.4922 10.9188 15.0312 10.3446 15.0312H9.07897C9.61804 17.1641 11.6102 18.7812 14.0125 18.7812C15.1844 18.7812 16.0516 18.418 16.9188 17.75C17.3992 17.3867 17.95 17.3164 18.3719 17.7734C18.8055 18.2188 18.6649 18.8516 18.0789 19.3086C17.036 20.1758 15.5242 20.7031 14.0125 20.7031ZM13.9891 7.15625C17.4344 7.15625 20.1531 9.46484 20.7508 12.8281H21.9578C22.532 12.8281 22.6375 13.3672 22.3328 13.8008L20.3992 16.5195C20.0477 17 19.4852 16.9648 19.157 16.5195L17.2 13.8008C16.8953 13.3672 17.0125 12.8281 17.575 12.8281H18.9227C18.3836 10.6836 16.3914 9.06641 13.9891 9.06641C12.8172 9.06641 11.9501 9.44141 11.0829 10.1094C10.6024 10.4609 10.0399 10.543 9.62976 10.0859C9.20788 9.64062 9.33679 9.00781 9.92273 8.53906C10.9657 7.68359 12.4774 7.15625 13.9891 7.15625Z" fill="white"/>
</svg>
