<svg width="28" height="28" viewBox="0 0 28 28" fill="none" xmlns="http://www.w3.org/2000/svg">
<g clip-path="url(#clip0_2124_78068)">
<path d="M13.9531 25.9062C20.4922 25.9062 25.9062 20.4805 25.9062 13.9531C25.9062 7.41406 20.4805 2 13.9414 2C7.41406 2 2 7.41406 2 13.9531C2 20.4805 7.42578 25.9062 13.9531 25.9062Z" fill="black" fill-opacity="0.85"/>
<path d="M10.8242 18.9102C10.25 18.9102 9.81641 18.4883 9.81641 17.9375C9.81641 17.4688 10.0273 17.1992 10.5312 16.9648L16.6484 13.9531V13.8828L10.5312 10.8008C10.0391 10.5664 9.81641 10.2734 9.81641 9.81641C9.81641 9.27734 10.2383 8.85547 10.8008 8.85547C11.0703 8.85547 11.2227 8.91406 11.4102 9.00781L18.6172 12.8867C19.0977 13.1562 19.3438 13.4961 19.3438 13.9531C19.3438 14.457 19.1211 14.7617 18.6172 15.0195L11.4102 18.7695C11.2344 18.8516 11.0703 18.9102 10.8242 18.9102Z" fill="white"/>
</g>
<defs>
<clipPath id="clip0_2124_78068">
<rect width="23.9062" height="23.918" fill="white" transform="translate(2 2)"/>
</clipPath>
</defs>
</svg>
