<svg width="37" height="28" viewBox="0 0 37 28" fill="none" xmlns="http://www.w3.org/2000/svg">
<path d="M17.2148 26.2656V3.97656C17.2148 2.05469 16.1602 1 14.25 1H4.80469C2.87109 1 1.85156 2.05469 1.85156 3.97656V26.2656H17.2148ZM5.19141 13.2344C4.33594 13.2344 3.82031 12.7656 3.82031 11.9805V4.24609C3.82031 3.46094 4.33594 2.98047 5.19141 2.98047H13.8633C14.7188 2.98047 15.2461 3.46094 15.2461 4.24609V11.9805C15.2461 12.7656 14.7188 13.2344 13.8633 13.2344H5.19141ZM0 26.1836C0 26.7109 0.410156 27.1445 0.925781 27.1445H18.1172C18.6328 27.1445 19.0664 26.7109 19.0664 26.1836C19.0664 25.6797 18.6328 25.2578 18.1172 25.2578H0.925781C0.421875 25.2578 0 25.668 0 26.1836ZM20.5781 8.71094H21.9141V6.09766C21.9141 5.73438 21.6094 5.42969 21.2578 5.42969C20.8711 5.42969 20.5781 5.73438 20.5781 6.09766V8.71094ZM24.9961 8.71094V6.09766C24.9961 5.73438 24.7031 5.42969 24.3281 5.42969C23.9648 5.42969 23.6602 5.73438 23.6602 6.09766V8.71094H24.9961ZM16.6758 16.4336H17.332C17.8711 16.4336 18.2109 16.7383 18.2109 17.3242V21.2031C18.2109 22.8672 19.2188 23.875 20.8828 23.875C22.5352 23.875 23.5312 22.8672 23.5312 21.2031V15.1445C23.5312 13.9844 24.3984 13.6562 24.9492 13.2344C25.793 12.6016 26.25 11.7227 26.25 10.6797V8.92188C26.25 8.64062 26.0859 8.47656 25.8281 8.47656H19.582C19.3242 8.47656 19.1602 8.64062 19.1602 8.92188V10.6797C19.1602 11.7227 19.6172 12.6016 20.4609 13.2344C21.0117 13.6562 21.8789 13.9844 21.8789 15.1445V21.2031C21.8789 21.8359 21.5039 22.2227 20.8828 22.2227C20.2383 22.2227 19.8633 21.8359 19.8633 21.2031V17.3242C19.8633 15.707 18.9023 14.7812 17.332 14.7812H16.6758V16.4336Z" fill="black" fill-opacity="0.85"/>
<path d="M35.6719 13.6445L29.6367 10.0703C29.1797 9.80078 28.5703 10.0234 28.5703 10.5156V17.8984C28.5703 18.4023 29.1445 18.6367 29.6367 18.3438L35.6719 14.793C36.1289 14.5234 36.1055 13.9023 35.6719 13.6445Z" fill="black" fill-opacity="0.85"/>
</svg>
