<svg width="28" height="28" viewBox="0 0 28 28" fill="none" xmlns="http://www.w3.org/2000/svg">
<path d="M13.9531 25.9062C20.4922 25.9062 25.9062 20.4805 25.9062 13.9531C25.9062 7.41406 20.4805 2 13.9414 2C7.41406 2 2 7.41406 2 13.9531C2 20.4805 7.42578 25.9062 13.9531 25.9062ZM13.9531 23.9141C8.42188 23.9141 4.00391 19.4844 4.00391 13.9531C4.00391 8.42188 8.41016 3.99219 13.9414 3.99219C19.4727 3.99219 23.9141 8.42188 23.9141 13.9531C23.9141 19.4844 19.4844 23.9141 13.9531 23.9141Z" fill="black" fill-opacity="0.85"/>
<path d="M10.3789 18.8984C12.0664 18.8984 13.3555 17.8438 13.3555 16.0859C13.3555 14.6328 12.4883 13.918 11.4922 13.8125V13.7773C12.5586 13.4961 13.0742 12.5469 13.0742 11.5625C13.0742 9.94531 11.8672 9.01953 10.332 9.01953C9.125 9.01953 8.08203 9.69922 7.74219 10.7422C7.68359 10.9648 7.64844 11.1758 7.64844 11.375C7.64844 11.7617 7.90625 12.0664 8.375 12.0664C8.77344 12.0664 9.00781 11.9141 9.125 11.5039C9.30078 10.8125 9.67578 10.3789 10.332 10.3789C11.1055 10.3789 11.4805 10.9766 11.4805 11.75C11.4805 12.6055 11 13.2266 10.1211 13.2266H9.83984C9.44141 13.2266 9.19531 13.4727 9.19531 13.8594C9.19531 14.2461 9.45312 14.4688 9.83984 14.4688H10.1445C11.1289 14.4688 11.6797 15.0195 11.6797 16.0391C11.6797 16.8477 11.2578 17.5391 10.3789 17.5391C9.53516 17.5391 9.14844 16.9648 9.00781 16.4258C8.89062 16.0508 8.64453 15.8516 8.26953 15.8516C7.80078 15.8516 7.49609 16.1328 7.49609 16.5898C7.49609 16.8008 7.53125 17.0117 7.58984 17.1992C7.92969 18.2891 9.125 18.8984 10.3789 18.8984ZM17.4922 18.9336C19.3203 18.9336 20.3281 17.3984 20.3281 15.5469C20.3281 13.9297 19.543 12.4531 18.043 12.4531C17.3516 12.4531 16.707 12.7695 16.4141 13.4492H16.3555L16.543 10.6016H19.2969C19.707 10.6016 19.9531 10.3203 19.9531 9.91016C19.9531 9.52344 19.6953 9.21875 19.2969 9.21875H16.0859C15.4648 9.21875 15.1953 9.61719 15.1484 10.2266L14.9609 13.4375C14.9492 13.6133 14.9375 13.8008 14.9375 13.9531C14.9375 14.3984 15.1719 14.7969 15.7109 14.7969C16.0273 14.7969 16.2148 14.668 16.4609 14.3516C16.7305 13.9648 17.0234 13.6836 17.4922 13.6836C18.3594 13.6836 18.6875 14.7266 18.6875 15.5938C18.6875 16.5664 18.3359 17.5625 17.4688 17.5625C16.8125 17.5625 16.4492 17.0938 16.2266 16.4492C16.0977 16.0742 15.8281 15.8984 15.5234 15.8984C15.0898 15.8984 14.8203 16.168 14.8203 16.6016C14.8203 16.8711 14.8906 17.1289 14.9844 17.3633C15.3945 18.3125 16.4375 18.9336 17.4922 18.9336Z" fill="black" fill-opacity="0.85"/>
</svg>
