<svg width="28" height="28" viewBox="0 0 28 28" fill="none" xmlns="http://www.w3.org/2000/svg">
<g clip-path="url(#clip0_2124_62606)">
<path d="M13.9531 25.9062C20.4922 25.9062 25.9062 20.4805 25.9062 13.9531C25.9062 7.41406 20.4805 2 13.9414 2C7.41406 2 2 7.41406 2 13.9531C2 20.4805 7.42578 25.9062 13.9531 25.9062ZM13.9531 23.9141C8.42188 23.9141 4.00391 19.4844 4.00391 13.9531C4.00391 8.42188 8.41016 3.99219 13.9414 3.99219C19.4727 3.99219 23.9141 8.42188 23.9141 13.9531C23.9141 19.4844 19.4844 23.9141 13.9531 23.9141Z" fill="black" fill-opacity="0.85"/>
<path d="M11.1875 12.875V15.043H10.3086C8.92578 15.043 7.8125 16.1445 7.8125 17.5039C7.8125 18.8867 8.92578 20 10.3086 20C11.668 20 12.793 18.875 12.793 17.5039V16.6133H14.9258V17.5039C14.9258 18.875 16.0391 20 17.4102 20C18.7812 20 19.8945 18.8867 19.8945 17.5039C19.8945 16.1445 18.7812 15.043 17.4102 15.043H16.5195V12.875H17.4102C18.7812 12.875 19.8945 11.7734 19.8945 10.4023C19.8945 9.03125 18.7812 7.91797 17.4102 7.91797C16.0391 7.91797 14.9258 9.04297 14.9258 10.4023V11.293H12.793V10.4023C12.793 9.04297 11.668 7.91797 10.3086 7.91797C8.92578 7.91797 7.8125 9.03125 7.8125 10.4023C7.8125 11.7734 8.92578 12.875 10.3086 12.875H11.1875ZM12.793 15.0547V12.8633H14.9258V15.0547H12.793ZM10.3086 11.3047C9.80469 11.3047 9.40625 10.9062 9.40625 10.4023C9.40625 9.92188 9.81641 9.5 10.3086 9.5C10.7891 9.5 11.1875 9.92188 11.1875 10.4023V11.3047H10.3086ZM17.4102 11.3047H16.5195V10.4023C16.5195 9.92188 16.918 9.5 17.4102 9.5C17.8906 9.5 18.3125 9.92188 18.3125 10.4023C18.3125 10.9062 17.9023 11.3047 17.4102 11.3047ZM10.3086 16.5898H11.1875V17.4922C11.1875 17.9961 10.7891 18.3945 10.3086 18.3945C9.80469 18.3945 9.40625 17.9961 9.40625 17.4922C9.40625 17.0117 9.81641 16.5898 10.3086 16.5898ZM17.4102 16.5898C17.8906 16.5898 18.3125 17.0117 18.3125 17.4922C18.3125 17.9961 17.9023 18.3945 17.4102 18.3945C16.918 18.3945 16.5195 17.9961 16.5195 17.4922V16.5898H17.4102Z" fill="black" fill-opacity="0.85"/>
</g>
<defs>
<clipPath id="clip0_2124_62606">
<rect width="23.9062" height="23.918" fill="white" transform="translate(2 2)"/>
</clipPath>
</defs>
</svg>
