<svg width="28" height="28" viewBox="0 0 28 28" fill="none" xmlns="http://www.w3.org/2000/svg">
<path d="M13.9531 25.9062C20.4922 25.9062 25.9062 20.4805 25.9062 13.9531C25.9062 7.41406 20.4805 2 13.9414 2C7.41406 2 2 7.41406 2 13.9531C2 20.4805 7.42578 25.9062 13.9531 25.9062ZM13.9531 23.9141C8.42188 23.9141 4.00391 19.4844 4.00391 13.9531C4.00391 8.42188 8.41016 3.99219 13.9414 3.99219C19.4727 3.99219 23.9141 8.42188 23.9141 13.9531C23.9141 19.4844 19.4844 23.9141 13.9531 23.9141Z" fill="black" fill-opacity="0.85"/>
<path d="M7.69531 13.0508C7.69531 14.2227 8.31641 15.125 9.125 15.125C9.92188 15.125 10.5547 14.2227 10.5547 13.0508C10.5547 11.8789 9.92188 10.9648 9.125 10.9648C8.31641 10.9648 7.69531 11.8789 7.69531 13.0508ZM10.5781 9.61719C10.5781 10.7891 11.2109 11.7031 12.0078 11.7031C12.8164 11.7031 13.4375 10.7891 13.4375 9.61719C13.4375 8.45703 12.8164 7.55469 12.0078 7.55469C11.2109 7.55469 10.5781 8.44531 10.5781 9.61719ZM14.457 9.61719C14.457 10.7891 15.0781 11.7031 15.875 11.7031C16.6836 11.7031 17.3164 10.7891 17.3164 9.61719C17.3164 8.44531 16.6836 7.55469 15.875 7.55469C15.0781 7.55469 14.457 8.45703 14.457 9.61719ZM17.3398 13.0508C17.3398 14.2227 17.9727 15.125 18.7695 15.125C19.5664 15.125 20.1875 14.2227 20.1875 13.0508C20.1875 11.8789 19.5664 10.9648 18.7695 10.9648C17.9727 10.9648 17.3398 11.8789 17.3398 13.0508ZM9.48828 17.6328C9.48828 18.8398 10.2852 19.6836 11.4805 19.6836C12.0664 19.6836 12.4883 19.5312 12.8984 19.3789C13.2383 19.2617 13.5547 19.168 13.9414 19.168C14.3281 19.168 14.6562 19.2617 14.9844 19.3789C15.4062 19.5312 15.8281 19.6836 16.4023 19.6836C17.5977 19.6836 18.4062 18.8398 18.4062 17.6328C18.4062 16.625 17.7969 16.0977 17.2109 15.6172C16.8945 15.3594 16.5781 15.1133 16.3438 14.7734C16.168 14.5156 16.0273 14.2109 15.8984 13.9414C15.4766 13.0273 15.1484 12.1836 13.9414 12.1836C12.7461 12.1836 12.4062 13.0391 11.9961 13.9414C11.8555 14.2109 11.7148 14.5039 11.5508 14.7617C11.3164 15.1133 11 15.3594 10.6836 15.6172C10.0977 16.0977 9.48828 16.625 9.48828 17.6328Z" fill="black" fill-opacity="0.85"/>
</svg>
