<svg width="28" height="28" viewBox="0 0 28 28" fill="none" xmlns="http://www.w3.org/2000/svg">
<g clip-path="url(#clip0_2124_50036)">
<path d="M6.67969 24.5977H20.8945C23.3555 24.5977 24.5742 23.3789 24.5742 20.9648V6.65625C24.5742 4.24219 23.3555 3.02344 20.8945 3.02344H6.67969C4.23047 3.02344 3 4.23047 3 6.65625V20.9648C3 23.3906 4.23047 24.5977 6.67969 24.5977Z" fill="black" fill-opacity="0.85"/>
<path d="M10.5703 7.5H17.0039C17.5195 7.5 17.8945 7.875 17.8945 8.40234V19.2188C17.8945 19.7344 17.5195 20.1094 17.0039 20.1094H10.5703C10.0547 20.1094 9.67969 19.7344 9.67969 19.2188V8.40234C9.67969 7.875 10.0547 7.5 10.5703 7.5ZM11.4492 14.9297C11.2148 14.9297 11.0508 15.0938 11.0508 15.3398V18.3281C11.0508 18.5742 11.2148 18.7383 11.4492 18.7383H16.125C16.3594 18.7383 16.5234 18.5742 16.5234 18.3281V15.3398C16.5234 15.0938 16.3594 14.9297 16.125 14.9297H11.4492Z" fill="white"/>
</g>
<defs>
<clipPath id="clip0_2124_50036">
<rect width="21.5742" height="21.5977" fill="white" transform="translate(3 3)"/>
</clipPath>
</defs>
</svg>
