<svg width="28" height="28" viewBox="0 0 28 28" fill="none" xmlns="http://www.w3.org/2000/svg">
<g clip-path="url(#clip0_2124_50031)">
<path d="M6.67969 24.5977H20.8945C23.3555 24.5977 24.5742 23.3789 24.5742 20.9648V6.65625C24.5742 4.24219 23.3555 3.02344 20.8945 3.02344H6.67969C4.23047 3.02344 3 4.23047 3 6.65625V20.9648C3 23.3906 4.23047 24.5977 6.67969 24.5977ZM6.70312 22.7109C5.53125 22.7109 4.88672 22.0898 4.88672 20.8711V6.75C4.88672 5.53125 5.53125 4.91016 6.70312 4.91016H20.8711C22.0312 4.91016 22.6875 5.53125 22.6875 6.75V20.8711C22.6875 22.0898 22.0312 22.7109 20.8711 22.7109H6.70312Z" fill="black" fill-opacity="0.85"/>
<path d="M10.6641 19.9102H16.9102C17.4023 19.9102 17.7656 19.5469 17.7656 19.0547V8.56641C17.7656 8.05078 17.4023 7.69922 16.9102 7.69922H10.6641C10.1719 7.69922 9.80859 8.05078 9.80859 8.56641V19.0547C9.80859 19.5469 10.1719 19.9102 10.6641 19.9102ZM11.5195 12.7266C11.2969 12.7266 11.1328 12.5508 11.1328 12.3164V9.42188C11.1328 9.17578 11.2969 9.02344 11.5195 9.02344H16.0547C16.2891 9.02344 16.4414 9.17578 16.4414 9.42188V12.3164C16.4414 12.5508 16.2891 12.7266 16.0547 12.7266H11.5195Z" fill="black" fill-opacity="0.85"/>
</g>
<defs>
<clipPath id="clip0_2124_50031">
<rect width="21.5742" height="21.5977" fill="white" transform="translate(3 3)"/>
</clipPath>
</defs>
</svg>
