<svg width="35" height="28" viewBox="0 0 35 28" fill="none" xmlns="http://www.w3.org/2000/svg">
<g clip-path="url(#clip0_2124_50130)">
<path d="M0.9375 26.8672C1.46484 26.8672 1.88672 26.4453 1.88672 25.9297V4.50781C1.88672 4.13281 2.13281 3.88672 2.48438 3.88672H31.7578C32.1094 3.88672 32.3555 4.13281 32.3555 4.50781V25.9297C32.3555 26.4453 32.7773 26.8672 33.3047 26.8672C33.8203 26.8672 34.2422 26.4453 34.2422 25.9297V4.39062C34.2422 2.96094 33.2695 2 31.793 2H2.44922C0.984375 2 0 2.96094 0 4.39062V25.9297C0 26.4453 0.421875 26.8672 0.9375 26.8672Z" fill="black" fill-opacity="0.85"/>
<path d="M3.65625 10.2266H30.5977C30.8086 10.2266 30.9844 10.0508 30.9844 9.83984V5.64453C30.9844 5.42188 30.8086 5.24609 30.5977 5.24609H3.65625C3.43359 5.24609 3.25781 5.42188 3.25781 5.64453V9.83984C3.25781 10.0508 3.43359 10.2266 3.65625 10.2266ZM14.6016 8.30469C14.2617 8.30469 14.0273 8.07031 14.0273 7.74219C14.0273 7.40234 14.2617 7.16797 14.6016 7.16797H19.6523C19.9805 7.16797 20.2148 7.40234 20.2148 7.74219C20.2148 8.07031 19.9805 8.30469 19.6523 8.30469H14.6016Z" fill="black" fill-opacity="0.85"/>
</g>
<defs>
<clipPath id="clip0_2124_50130">
<rect width="34.2422" height="24.8789" fill="white" transform="translate(0 2)"/>
</clipPath>
</defs>
</svg>
