<svg width="28" height="28" viewBox="0 0 28 28" fill="none" xmlns="http://www.w3.org/2000/svg">
<path d="M2.87891 24.8555C3.38281 24.8555 3.76953 24.4453 3.76953 23.9531V3.89062C3.76953 3.39844 3.38281 3 2.87891 3C2.38672 3 2 3.39844 2 3.89062V23.9531C2 24.4453 2.38672 24.8555 2.87891 24.8555ZM8.72656 24.8555C9.23047 24.8555 9.61719 24.4453 9.61719 23.9531V3.89062C9.61719 3.39844 9.23047 3 8.72656 3C8.23438 3 7.84766 3.39844 7.84766 3.89062V23.9531C7.84766 24.4453 8.23438 24.8555 8.72656 24.8555ZM14.5742 24.8555C15.0781 24.8555 15.4648 24.4453 15.4648 23.9531V3.89062C15.4648 3.39844 15.0781 3 14.5742 3C14.082 3 13.6953 3.39844 13.6953 3.89062V23.9531C13.6953 24.4453 14.082 24.8555 14.5742 24.8555Z" fill="black" fill-opacity="0.85"/>
<path d="M21.6876 17.5195L25.5665 14.9297C26.2579 14.4609 26.2345 13.4648 25.5665 12.9961L21.6876 10.3594C20.7853 9.75 19.836 10.0898 19.8478 11.168V16.7227C19.836 17.7656 20.8204 18.082 21.6876 17.5195Z" fill="black" fill-opacity="0.85"/>
</svg>
