<svg width="28" height="28" viewBox="0 0 28 28" fill="none" xmlns="http://www.w3.org/2000/svg">
<g clip-path="url(#clip0_2124_88381)">
<path d="M0 18.7422C0 21.7188 2.30859 24.0273 5.56641 24.0273H22.1016C25.3594 24.0273 27.668 21.7188 27.668 18.7422C27.668 17.8633 27.4102 17.0781 27.1055 16.3398L23.1562 6.85938C22.3828 4.98438 20.7891 4.02344 18.6914 4.02344H8.97656C6.87891 4.02344 5.28516 4.98438 4.51172 6.85938L0.550781 16.3398C0.257812 17.0664 0 17.8633 0 18.7422ZM1.88672 18.7422C1.88672 16.8086 3.35156 15.3438 5.56641 15.3438H22.1016C24.3164 15.3438 25.7812 16.8086 25.7812 18.7422C25.7812 20.9102 24.3164 22.1406 22.1016 22.1406H5.56641C3.35156 22.1406 1.88672 20.6758 1.88672 18.7422ZM3.78516 13.7617L6.33984 7.33984C6.78516 6.22656 7.74609 5.66406 9.07031 5.66406H18.5977C19.9219 5.66406 20.8945 6.22656 21.3281 7.33984L23.8828 13.7617C23.332 13.5625 22.7461 13.457 22.1016 13.457H5.56641C4.92188 13.457 4.32422 13.5625 3.78516 13.7617ZM20.6133 18.7422C20.6133 19.5625 21.293 20.1953 22.0898 20.1953C22.875 20.1953 23.543 19.5508 23.543 18.7422C23.543 17.957 22.875 17.2891 22.0898 17.2891C21.293 17.2891 20.6133 17.957 20.6133 18.7422Z" fill="black" fill-opacity="0.85"/>
</g>
<defs>
<clipPath id="clip0_2124_88381">
<rect width="27.668" height="20.0273" fill="white" transform="translate(0 4)"/>
</clipPath>
</defs>
</svg>
