<svg width="28" height="28" viewBox="0 0 28 28" fill="none" xmlns="http://www.w3.org/2000/svg">
<path d="M5.47424 18.6812H7.57189V8.97804C7.57189 6.9507 8.80236 5.67335 10.4899 5.67335C12.1891 5.67335 13.4547 6.92726 13.4547 8.97804V17.0054C13.4547 20.4038 15.5758 22.5601 18.5055 22.5601C21.4235 22.5601 23.5211 20.4038 23.5211 17.0054V7.39601H21.4235V17.1694C21.4235 19.1851 20.193 20.4624 18.5055 20.4624C16.8063 20.4624 15.5406 19.2085 15.5406 17.1694V9.1421C15.5406 5.74366 13.4195 3.58741 10.4899 3.58741C7.57189 3.58741 5.47424 5.74366 5.47424 9.1421V18.6812ZM3.83361 17.7905C2.98986 17.7905 2.77893 18.3648 3.23596 19.0093L5.86096 22.7359C6.24767 23.2866 6.81017 23.2749 7.18517 22.7359L9.81017 18.9976C10.2555 18.3648 10.0445 17.7905 9.21252 17.7905H3.83361ZM19.7945 8.35695H25.1617C25.9938 8.35695 26.2164 7.78273 25.7594 7.1382L23.1461 3.39991C22.7711 2.87257 22.2086 2.86085 21.8219 3.39991L19.1969 7.12648C18.7281 7.78273 18.9508 8.35695 19.7945 8.35695Z" fill="black" fill-opacity="0.85"/>
</svg>
