<svg width="28" height="28" viewBox="0 0 28 28" fill="none" xmlns="http://www.w3.org/2000/svg">
<path d="M13.9531 25.9062C20.4922 25.9062 25.9062 20.4805 25.9062 13.9531C25.9062 7.41406 20.4805 2 13.9414 2C7.41406 2 2 7.41406 2 13.9531C2 20.4805 7.42578 25.9062 13.9531 25.9062ZM13.9531 23.9141C8.42188 23.9141 4.00391 19.4844 4.00391 13.9531C4.00391 8.42188 8.41016 3.99219 13.9414 3.99219C19.4727 3.99219 23.9141 8.42188 23.9141 13.9531C23.9141 19.4844 19.4844 23.9141 13.9531 23.9141Z" fill="black" fill-opacity="0.85"/>
<path d="M10.9414 18.8398C11.3867 18.8398 11.75 18.5703 11.75 18.0078V16.8359H12.1602C12.6172 16.8359 12.8281 16.543 12.8281 16.1445C12.8281 15.7695 12.6289 15.4766 12.1602 15.4766H11.75V10.332C11.75 9.52344 11.2109 9.06641 10.4492 9.06641C9.6289 9.06641 9.24219 9.48828 8.90234 10.2148L6.81641 14.7617C6.61719 15.2188 6.54688 15.5234 6.54688 15.8867C6.54688 16.4492 6.94531 16.8359 7.50781 16.8359H10.1328V18.0078C10.1328 18.6289 10.5781 18.8398 10.9414 18.8398ZM10.168 15.5117H7.98828V15.4297L10.1211 10.543H10.168V15.5117ZM14.6914 18.8516C15.1367 18.8516 15.4414 18.6289 15.5352 18.0781L15.9102 16.4727H18.5469L18.9336 18.0898C19.0508 18.6875 19.4023 18.8516 19.8125 18.8516C20.2695 18.8516 20.5977 18.5 20.5977 18.043C20.5977 17.832 20.5625 17.6914 20.5156 17.5039L18.5469 10.1328C18.3594 9.39453 17.8906 9.07812 17.2227 9.07812C16.5312 9.07812 16.1094 9.44141 15.9336 10.1328L13.9648 17.5156C13.9297 17.6562 13.8828 17.9023 13.8828 18.043C13.8828 18.5234 14.1992 18.8516 14.6914 18.8516ZM16.2148 15.1836L17.1641 11.0234H17.2578L18.2422 15.1836H16.2148Z" fill="black" fill-opacity="0.85"/>
</svg>
