<svg width="28" height="28" viewBox="0 0 28 28" fill="none" xmlns="http://www.w3.org/2000/svg">
<g clip-path="url(#clip0_2124_24768)">
<path d="M15.0312 23.9258H15.9453C16.6719 23.9258 17.1406 23.5509 17.1406 22.8243V13.1562L13.8125 14.0587V22.8243C13.8125 23.5509 14.293 23.9258 15.0312 23.9258Z" fill="black" fill-opacity="0.85"/>
<path d="M16.7303 2.00009C14.3748 1.98837 11.7733 3.11337 10.0389 5.52743C9.48811 6.23056 8.39827 8.03525 8.46858 9.67587L10.8006 15.7579C15.0428 15.9454 16.9412 15.3477 18.5467 14.4337C20.7498 13.1798 22.6014 11.0235 22.6014 7.90634C22.6014 4.21493 19.8943 2.02353 16.7303 2.00009Z" fill="white"/>
<path d="M16.7188 3.19535C14.7031 3.17192 12.4766 4.15629 10.9766 6.24223C10.5547 6.76957 9.6875 8.2227 9.64062 9.42973L12.6055 14.586C15.3945 14.5509 16.7539 14.0938 17.9609 13.4142C19.8828 12.3009 21.4062 10.4961 21.4062 7.90629C21.4062 4.91801 19.2969 3.21879 16.7188 3.19535ZM17.1641 8.2227C16.9297 8.42193 16.5781 8.39848 16.3789 8.15238C16.1797 7.90629 16.2031 7.55473 16.4492 7.35551L18.1719 5.90238C18.4062 5.70317 18.7695 5.73832 18.957 5.98442C19.1562 6.21879 19.1445 6.57035 18.8984 6.76957L17.1641 8.2227Z" fill="black" fill-opacity="0.85"/>
<path d="M10.3906 17.0587C12.7344 17.0587 14.9492 15.5001 14.9492 12.5235C14.9492 9.89856 12.5703 7.22668 9.42969 7.22668C6.61719 7.22668 5 9.4884 5 11.715C5 14.9493 7.75391 17.0587 10.3906 17.0587Z" fill="white"/>
<path d="M10.3906 15.922C12.2188 15.922 13.8242 14.797 13.8242 12.5235C13.8242 10.4962 11.9141 8.35168 9.42969 8.35168C7.33203 8.35168 6.125 10.0158 6.125 11.715C6.125 14.2579 8.29297 15.922 10.3906 15.922ZM9.81641 14.1407C9.47656 14.4337 8.92578 14.1407 8.22266 13.3087C7.54297 12.4767 7.36719 11.9025 7.69531 11.6212C8.04688 11.3165 8.58594 11.5978 9.28906 12.4415C9.95703 13.297 10.1445 13.8595 9.81641 14.1407Z" fill="black" fill-opacity="0.85"/>
</g>
<defs>
<clipPath id="clip0_2124_24768">
<rect width="17.6016" height="23.1213" fill="white" transform="translate(5 2)"/>
</clipPath>
</defs>
</svg>
