<svg width="28" height="28" viewBox="0 0 28 28" fill="none" xmlns="http://www.w3.org/2000/svg">
<path d="M13.9531 25.9062C20.4922 25.9062 25.9062 20.4805 25.9062 13.9531C25.9062 7.41406 20.4805 2 13.9414 2C7.41406 2 2 7.41406 2 13.9531C2 20.4805 7.42578 25.9062 13.9531 25.9062ZM13.9531 23.9141C8.42188 23.9141 4.00391 19.4844 4.00391 13.9531C4.00391 8.42188 8.41016 3.99219 13.9414 3.99219C19.4727 3.99219 23.9141 8.42188 23.9141 13.9531C23.9141 19.4844 19.4844 23.9141 13.9531 23.9141Z" fill="black" fill-opacity="0.85"/>
<path d="M14.5508 19.5312C15.1484 19.5312 15.4883 19.1328 15.4883 18.4766V9.42969C15.4883 8.75 15.125 8.375 14.5039 8.375C14.0703 8.375 13.7656 8.49219 13.2617 8.83203L11.1523 10.2617C10.8945 10.4375 10.7891 10.625 10.7891 10.918C10.7891 11.2812 11.082 11.6211 11.457 11.6211C11.6328 11.6211 11.7617 11.5859 12.0312 11.4102L13.543 10.4141H13.625V18.4766C13.625 19.1328 13.9648 19.5312 14.5508 19.5312Z" fill="black" fill-opacity="0.85"/>
</svg>
