<svg width="28" height="28" viewBox="0 0 28 28" fill="none" xmlns="http://www.w3.org/2000/svg">
<path d="M13.9531 25.918C20.4922 25.918 25.9062 20.5039 25.9062 13.9648C25.9062 7.4375 20.4805 2.01172 13.9414 2.01172C7.41406 2.01172 2 7.4375 2 13.9648C2 20.5039 7.42578 25.918 13.9531 25.918Z" fill="black" fill-opacity="0.85"/>
<path d="M13.9531 21.0547C13.7422 21.0547 13.4844 20.9727 13.25 20.7266L8.35156 15.5352C8.07031 15.2188 7.92969 14.9609 7.92969 14.6445C7.92969 14.1875 8.24609 13.8711 8.70312 13.8711H11.3633V8.41016C11.3633 7.44922 11.9023 6.89844 12.8281 6.89844H15.0664C15.9922 6.89844 16.543 7.44922 16.543 8.41016V13.8711H19.1797C19.6133 13.8711 19.9766 14.1875 19.9766 14.668C19.9766 14.9727 19.8359 15.1836 19.5078 15.5352L14.668 20.7266C14.4219 20.9727 14.1758 21.0547 13.9531 21.0547Z" fill="white"/>
</svg>
