<svg width="28" height="28" viewBox="0 0 28 28" fill="none" xmlns="http://www.w3.org/2000/svg">
<g clip-path="url(#clip0_2124_24712)">
<path d="M14.2086 27.4961C18.2868 27.4961 20.7243 25.5273 21.0993 21.5312C21.5328 16.7617 21.5211 11.9219 21.0758 6.74219C20.736 2.98047 18.2868 1 14.2086 1C10.1305 1 7.68128 2.98047 7.34144 6.74219C6.89613 11.9219 6.88441 16.7617 7.318 21.5312C7.693 25.5273 10.1305 27.4961 14.2086 27.4961ZM14.1969 22.7617C13.8336 22.7617 13.7047 22.9492 13.4117 22.9492C13.1188 22.9492 12.9313 22.6797 12.6969 22.3516C12.4157 21.9531 12.2047 21.3672 12.2047 20.8047C12.2047 19.8906 12.8024 19.4219 13.3883 19.4219C13.6696 19.4219 13.8922 19.6094 14.1383 19.6094C14.3844 19.6094 14.5953 19.4219 14.9703 19.4219C15.0992 19.4219 15.5797 19.4219 15.8844 19.8555C15.861 19.8789 15.3922 20.1484 15.3922 20.7578C15.3922 21.4375 15.9899 21.6719 16.0016 21.6953C16.0016 21.707 15.9196 22.0352 15.6852 22.3633C15.486 22.6562 15.275 22.9492 14.9703 22.9492C14.6539 22.9492 14.5602 22.7617 14.1969 22.7617ZM14.0914 19.3516C14.0914 18.7188 14.5485 18.25 15.0289 18.25C15.1227 18.7773 14.6539 19.375 14.0914 19.3516Z" fill="black" fill-opacity="0.85"/>
</g>
<defs>
<clipPath id="clip0_2124_24712">
<rect width="14.4173" height="26.5195" fill="white" transform="translate(7 1)"/>
</clipPath>
</defs>
</svg>
