<svg width="28" height="28" viewBox="0 0 28 28" fill="none" xmlns="http://www.w3.org/2000/svg">
<path d="M23.8945 4C23.2852 4 22.8516 4.42188 22.8516 5.03125C22.8516 5.45312 22.875 5.82812 22.875 6.39062C22.875 10.7383 21.3633 12.5078 17.0625 12.5078H8.97656L6.09375 12.6836L10.0547 9.0625L12.6562 6.41406C12.8438 6.22656 12.9375 5.95703 12.9375 5.67578C12.9375 5.08984 12.4922 4.66797 11.918 4.66797C11.6367 4.66797 11.3906 4.76172 11.1445 4.98438L3.36328 12.7656C3.12891 12.9883 3 13.2695 3 13.5508C3 13.8438 3.12891 14.1133 3.36328 14.3477L11.1211 22.0938C11.3789 22.3398 11.6367 22.4453 11.918 22.4453C12.4922 22.4453 12.9375 22.0234 12.9375 21.4375C12.9375 21.1562 12.8438 20.8867 12.6562 20.6875L10.0547 18.0391L6.10547 14.4414L8.97656 14.6055H17.168C22.7344 14.6055 24.9961 12.168 24.9961 6.49609C24.9961 5.80469 24.9727 5.23047 24.9023 4.86719C24.7969 4.39844 24.5156 4 23.8945 4Z" fill="black" fill-opacity="0.85"/>
</svg>
