<svg width="28" height="28" viewBox="0 0 28 28" fill="none" xmlns="http://www.w3.org/2000/svg">
<g clip-path="url(#clip0_2124_24878)">
<path d="M5 19.6875C5 22.9219 7.01562 24.9844 10.168 24.9844C12.5234 24.9844 14.2812 23.9531 15.3945 21.9609L16.4492 20.0742C18.9219 15.5508 23 14.9648 23 9.15234C23 3.66797 19.4492 0 14.1289 0C8.67969 0 5 3.69141 5 9.19922V19.6875ZM6.76953 19.5703V9.19922C6.76953 4.73438 9.71094 1.76953 14.1289 1.76953C18.3945 1.76953 21.2305 4.73438 21.2305 9.15234C21.2305 14.0156 17.4219 14.8594 14.8672 19.2773L13.8477 21.0234C13.0156 22.4766 11.8555 23.168 10.25 23.168C8.08203 23.168 6.76953 21.8086 6.76953 19.5703Z" fill="black" fill-opacity="0.85"/>
<path d="M8.60938 16.2773C8.60938 17.4961 9.52343 18.3047 10.8945 18.3047C12.6641 18.293 13.8711 16.793 13.8711 14.9062C13.8711 11.5312 10.3789 10.9688 10.3789 8.58984C10.3789 6.75 11.8789 5.39062 14.1172 5.39062C16.3906 5.39062 17.8555 6.86719 17.8555 9.12891C17.8555 9.60938 18.2539 10.0195 18.7344 10.0195C19.2148 10.0195 19.625 9.60938 19.625 9.12891C19.625 5.83594 17.4219 3.62109 14.1172 3.62109C10.8242 3.62109 8.60938 5.69531 8.60938 8.58984C8.60938 11.1328 11.0117 11.9648 11.0117 13.1016C11.0117 14.3672 8.60938 14.0859 8.60938 16.2773Z" fill="black" fill-opacity="0.85"/>
</g>
<defs>
<clipPath id="clip0_2124_24878">
<rect width="18" height="27.2461" fill="white" transform="translate(5)"/>
</clipPath>
</defs>
</svg>
