<svg width="28" height="28" viewBox="0 0 28 28" fill="none" xmlns="http://www.w3.org/2000/svg">
<path d="M6.67969 24.5977H20.8945C23.3555 24.5977 24.5742 23.3789 24.5742 20.9648V6.65625C24.5742 4.24219 23.3555 3.02344 20.8945 3.02344H6.67969C4.23047 3.02344 3 4.23047 3 6.65625V20.9648C3 23.3906 4.23047 24.5977 6.67969 24.5977ZM6.70312 22.7109C5.53125 22.7109 4.88672 22.0898 4.88672 20.8711V6.75C4.88672 5.53125 5.53125 4.91016 6.70312 4.91016H20.8711C22.0312 4.91016 22.6875 5.53125 22.6875 6.75V20.8711C22.6875 22.0898 22.0312 22.7109 20.8711 22.7109H6.70312Z" fill="black" fill-opacity="0.85"/>
<path d="M10.6289 18.6562C11.0859 18.6562 11.4727 18.2695 11.4727 17.8008V9.85547C11.4727 9.25781 11.0977 8.90625 10.4883 8.90625C9.99609 8.90625 9.59766 9.17578 9.32812 9.38672L8.03906 10.3828C7.82812 10.5469 7.66406 10.7695 7.66406 11.0742C7.66406 11.4375 7.91016 11.6953 8.26172 11.6953C8.44922 11.6953 8.56641 11.6367 8.68359 11.5547L9.76172 10.6875V17.8008C9.76172 18.2695 10.1484 18.6562 10.6289 18.6562ZM15.5859 15.2578C16.5352 15.2578 17.2617 14.625 17.5195 13.6172H17.5664C17.5664 13.6641 17.5664 13.7109 17.5664 13.7461C17.5664 15.0469 17.4141 17.3906 16.1016 17.3906C15.5742 17.3906 15.2227 17.0273 15.0117 16.5234C14.8359 16.1367 14.6016 15.9844 14.25 15.9844C13.7695 15.9844 13.5586 16.3125 13.5586 16.6992C13.5586 16.8398 13.582 16.9805 13.6172 17.1211C13.875 18.1406 14.8945 18.7617 16.0664 18.7617C18.4688 18.7617 19.1719 16.1016 19.1719 13.6992C19.1719 11.4844 18.457 8.83594 16.0781 8.83594C14.2969 8.83594 13.2656 10.3359 13.2656 12.1758C13.2656 13.7578 14.0273 15.2578 15.5859 15.2578ZM16.1016 13.9688C15.2461 13.9688 14.8945 12.9727 14.8945 12.1055C14.8945 11.2266 15.293 10.1953 16.1016 10.1953C16.9922 10.1953 17.3438 11.2266 17.3438 12.1055C17.3438 13.0078 16.957 13.9688 16.1016 13.9688Z" fill="black" fill-opacity="0.85"/>
</svg>
