<svg width="30" height="28" viewBox="0 0 30 28" fill="none" xmlns="http://www.w3.org/2000/svg">
<path d="M0.340363 13.0312C-0.081512 13.5117 -0.140106 14.1914 0.328644 14.6484L3.93802 18.2695C4.40677 18.7383 5.12161 18.7148 5.56693 18.2578L7.37161 16.4531L10.0201 19.0898C10.4654 19.5469 11.1802 19.5352 11.6372 19.0781L14.1099 16.6289C15.6451 19.8516 18.2818 21.668 21.3872 21.668C25.7232 21.668 29.2036 18.1758 29.2036 13.8398C29.2036 9.49219 25.7349 6 21.3872 6C18.2583 6 15.4576 7.80469 14.2154 10.6523H3.14114C2.75443 10.6523 2.30911 10.7695 2.01614 11.1211L0.340363 13.0312ZM2.18021 13.8398L3.48099 12.5508H15.563C16.1958 9.78516 18.563 7.875 21.3872 7.875C24.6685 7.875 27.3169 10.5352 27.3169 13.8398C27.3169 17.1328 24.6802 19.7812 21.3872 19.7812C18.5982 19.7812 16.1958 17.8594 15.4927 14.918H13.1138L10.8169 17.2148L8.35599 14.7305H6.42239L4.77005 16.3945L2.18021 13.8398ZM21.7388 13.8398C21.7388 14.8945 22.5943 15.75 23.649 15.75C24.7036 15.75 25.5474 14.8945 25.5474 13.8398C25.5474 12.7734 24.7036 11.9414 23.649 11.9414C22.5943 11.9414 21.7388 12.7852 21.7388 13.8398Z" fill="black" fill-opacity="0.85"/>
</svg>
