<svg width="28" height="28" viewBox="0 0 28 28" fill="none" xmlns="http://www.w3.org/2000/svg">
<path d="M13.9531 25.9062C20.4922 25.9062 25.9062 20.4805 25.9062 13.9531C25.9062 7.41406 20.4805 2 13.9414 2C7.41406 2 2 7.41406 2 13.9531C2 20.4805 7.42578 25.9062 13.9531 25.9062ZM13.9531 23.9141C8.42188 23.9141 4.00391 19.4844 4.00391 13.9531C4.00391 8.42188 8.41016 3.99219 13.9414 3.99219C19.4727 3.99219 23.9141 8.42188 23.9141 13.9531C23.9141 19.4844 19.4844 23.9141 13.9531 23.9141Z" fill="black" fill-opacity="0.85"/>
<path d="M9.23047 13.9766C9.23047 17.1758 10.8125 19.2617 13.3086 19.5781V20.5156C13.3086 20.8672 13.5664 21.1016 13.8945 21.1016C14.2227 21.1016 14.4688 20.8672 14.4688 20.5156V19.5898C16.2617 19.4492 17.5508 18.4648 18.0547 17.0586C18.125 16.8711 18.1719 16.6719 18.1719 16.4609C18.1719 16.0391 17.8906 15.7461 17.457 15.7461C17.0586 15.7461 16.8242 15.9688 16.6953 16.3672C16.4375 17.3281 15.5938 18.0195 14.4688 18.1719V9.81641C15.5234 9.99219 16.3438 10.7187 16.6133 11.6445C16.7539 12.0898 16.9531 12.2539 17.375 12.2539C17.8086 12.2539 18.0898 11.9727 18.0898 11.5391C18.0898 11.3398 18.043 11.1406 17.9727 10.9531C17.4688 9.54688 16.1328 8.55078 14.4688 8.38672V7.47266C14.4688 7.12109 14.2227 6.89844 13.8945 6.89844C13.5547 6.89844 13.3086 7.12109 13.3086 7.47266V8.39844C10.8242 8.71484 9.23047 10.8242 9.23047 13.9766ZM10.8008 13.9766C10.8008 11.7383 11.75 10.1797 13.3086 9.85156V18.1367C11.75 17.7969 10.8008 16.25 10.8008 13.9766Z" fill="black" fill-opacity="0.85"/>
</svg>
