<svg width="28" height="28" viewBox="0 0 28 28" fill="none" xmlns="http://www.w3.org/2000/svg">
<g clip-path="url(#clip0_2124_24769)">
<path d="M12.5703 23.9258C13.2969 23.9258 13.7773 23.5509 13.7773 22.8243V14.0587L10.4492 13.1562V22.8243C10.4492 23.5509 10.9297 23.9258 11.6562 23.9258H12.5703Z" fill="black" fill-opacity="0.85"/>
<path d="M10.8594 2.00009C7.69531 2.02353 5 4.21493 5 7.90634C5 11.0235 6.85156 13.1798 9.05469 14.4337C10.6602 15.3477 12.5469 15.9454 16.7891 15.7579L19.1328 9.67587C19.2031 8.03525 18.1133 6.23056 17.5625 5.52743C15.8281 3.11337 13.2148 1.98837 10.8594 2.00009Z" fill="white"/>
<path d="M10.8828 3.19535C8.29297 3.21879 6.18359 4.91801 6.18359 7.90629C6.18359 10.4961 7.70703 12.3009 9.64062 13.4142C10.8477 14.0938 12.207 14.5509 14.9961 14.586L17.9609 9.42973C17.9023 8.2227 17.0469 6.76957 16.625 6.24223C15.125 4.15629 12.8867 3.17192 10.8828 3.19535ZM10.4375 8.2227L8.69141 6.76957C8.44531 6.57035 8.43359 6.21879 8.64453 5.98442C8.83203 5.73832 9.18359 5.70317 9.42969 5.90238L11.1406 7.35551C11.3984 7.55473 11.4219 7.90629 11.2227 8.15238C11.0234 8.39848 10.6602 8.42193 10.4375 8.2227Z" fill="black" fill-opacity="0.85"/>
<path d="M17.2109 17.0587C19.8359 17.0587 22.6016 14.9493 22.6016 11.715C22.6016 9.4884 20.9727 7.22668 18.1602 7.22668C15.0312 7.22668 12.6406 9.89856 12.6406 12.5235C12.6406 15.5001 14.8555 17.0587 17.2109 17.0587Z" fill="white"/>
<path d="M17.2109 15.922C19.3086 15.922 21.4648 14.2579 21.4648 11.715C21.4648 10.0158 20.2695 8.35168 18.1602 8.35168C15.6875 8.35168 13.7773 10.4962 13.7773 12.5235C13.7773 14.797 15.3828 15.922 17.2109 15.922ZM17.7852 14.1407C17.457 13.8595 17.6445 13.297 18.3125 12.4415C19.0039 11.5978 19.5547 11.3165 19.9062 11.6212C20.2227 11.9025 20.0469 12.4767 19.3789 13.3087C18.6758 14.1407 18.125 14.4337 17.7852 14.1407Z" fill="black" fill-opacity="0.85"/>
</g>
<defs>
<clipPath id="clip0_2124_24769">
<rect width="17.6016" height="23.1213" fill="white" transform="translate(5 2)"/>
</clipPath>
</defs>
</svg>
