<svg width="29" height="29" viewBox="0 0 29 29" fill="none" xmlns="http://www.w3.org/2000/svg">
<g clip-path="url(#clip0_2124_46016)">
<path d="M23.2481 4.66162C22.0528 3.46631 20.3653 3.27881 18.3614 3.27881H9.23243C7.26368 3.27881 5.57618 3.46631 4.38086 4.66162C3.18555 5.85694 3.00977 7.521 3.00977 9.48975V18.6304C3.00977 20.6343 3.18555 22.2983 4.38086 23.4937C5.57618 24.689 7.26368 24.8765 9.25586 24.8765H18.3614C20.3653 24.8765 22.0528 24.689 23.2481 23.4937C24.4434 22.2983 24.6192 20.6343 24.6192 18.6304V9.52491C24.6192 7.521 24.4434 5.84522 23.2481 4.66162ZM22.7325 9.19678V18.9468C22.7325 20.1538 22.5801 21.4077 21.8653 22.1226C21.1621 22.8257 19.8965 22.9898 18.6895 22.9898H8.93946C7.73243 22.9898 6.4668 22.8257 5.75196 22.1226C5.04883 21.4077 4.89649 20.1538 4.89649 18.9468V9.23194C4.89649 8.00147 5.04883 6.73584 5.75196 6.03272C6.4668 5.31788 7.74415 5.16553 8.97461 5.16553H18.6895C19.8965 5.16553 21.1621 5.32959 21.8653 6.03272C22.5801 6.74756 22.7325 7.98975 22.7325 9.19678Z" fill="black" fill-opacity="0.85"/>
<path d="M8.8457 16.2749C8.8457 19.2632 10.7793 21.0796 13.5332 21.0796C15.6075 21.0796 17.0254 20.2476 17.9746 18.3022C18.4903 17.2944 18.8887 16.0874 19.3106 14.6929C19.4864 14.1187 19.7325 13.4038 19.7325 13.0874C19.7325 12.7124 19.4512 12.4546 19.0645 12.4546C18.6192 12.4546 18.3614 12.7241 18.045 13.3687L17.0957 15.3726C17.002 15.5835 16.9082 15.6538 16.8028 15.6538C16.6621 15.6538 16.5801 15.5601 16.5801 15.3608V8.22412C16.5801 7.81397 16.2403 7.47412 15.8301 7.47412C15.42 7.47412 15.0918 7.81397 15.0918 8.22412V13.2866C14.9043 13.2398 14.7168 13.1694 14.5176 13.1343V7.22803C14.5176 6.82959 14.1895 6.47803 13.7676 6.47803C13.3575 6.47803 13.0176 6.82959 13.0176 7.22803V13.0522C12.8184 13.0757 12.6191 13.0991 12.4199 13.1343V7.81397C12.4199 7.40381 12.0801 7.07569 11.6699 7.07569C11.2598 7.07569 10.9199 7.40381 10.9199 7.81397V13.6148C10.709 13.7085 10.5332 13.8257 10.3457 13.9312V9.94678C10.3457 9.53662 10.0059 9.18506 9.60742 9.18506C9.18554 9.18506 8.8457 9.53662 8.8457 9.94678V16.2749Z" fill="black" fill-opacity="0.85"/>
</g>
<defs>
<clipPath id="clip0_2124_46016">
<rect width="21.6094" height="21.8555" fill="white" transform="translate(3.00977 3.021)"/>
</clipPath>
</defs>
</svg>
