<svg width="28" height="28" viewBox="0 0 28 28" fill="none" xmlns="http://www.w3.org/2000/svg">
<path d="M13.9531 25.9062C20.4922 25.9062 25.9062 20.4805 25.9062 13.9531C25.9062 7.41406 20.4805 2 13.9414 2C7.41406 2 2 7.41406 2 13.9531C2 20.4805 7.42578 25.9062 13.9531 25.9062ZM13.9531 23.9141C8.42188 23.9141 4.00391 19.4844 4.00391 13.9531C4.00391 8.42188 8.41016 3.99219 13.9414 3.99219C19.4727 3.99219 23.9141 8.42188 23.9141 13.9531C23.9141 19.4844 19.4844 23.9141 13.9531 23.9141Z" fill="black" fill-opacity="0.85"/>
<path d="M10.8711 19.1797H13.8594C17.1875 19.1797 19.0625 17.2812 19.0625 13.8125C19.0625 10.3906 17.2109 8.50391 13.8594 8.50391H10.8711C10.2734 8.50391 9.95703 8.92578 9.95703 9.55859V18.125C9.95703 18.7578 10.2734 19.1797 10.8711 19.1797ZM11.7617 17.7266V9.95703H13.6484C15.9336 9.95703 17.1875 11.3164 17.1875 13.8477C17.1875 16.4258 15.9453 17.7266 13.6484 17.7266H11.7617Z" fill="black" fill-opacity="0.85"/>
</svg>
