<svg width="28" height="29" viewBox="0 0 28 29" fill="none" xmlns="http://www.w3.org/2000/svg">
<g clip-path="url(#clip0_2124_89301)">
<path d="M2.25254 23.3115L7.52597 28.5967C7.88926 28.96 8.51035 28.96 8.87363 28.5967C9.23691 28.2217 9.22519 27.624 8.87363 27.2607L5.42832 23.8037L22.8658 6.36621L26.3111 9.81152C26.6744 10.1748 27.2603 10.1865 27.6236 9.82324C27.9986 9.45996 27.9986 8.8623 27.6236 8.4873L22.3502 3.21387C20.6627 1.52637 18.483 1.53809 16.7838 3.24902L2.28769 17.7451C0.588474 19.4443 0.565036 21.624 2.25254 23.3115ZM21.4713 7.39746L20.3697 8.53418L24.0846 12.2373C24.401 12.5654 24.9049 12.5654 25.1978 12.249C25.5143 11.9443 25.526 11.4404 25.2096 11.124L21.4713 7.39746ZM19.151 9.71777L18.0494 10.8545L21.7643 14.5576C22.0807 14.874 22.5846 14.874 22.8775 14.5693C23.1822 14.2646 23.1939 13.7607 22.8893 13.4561L19.151 9.71777ZM16.8424 12.0381L15.7408 13.1748L19.4439 16.8896C19.7603 17.1943 20.2643 17.1943 20.5572 16.9014C20.8736 16.585 20.8853 16.0811 20.5689 15.7764L16.8424 12.0381ZM14.5338 14.3584L13.4205 15.4717L17.1353 19.1982C17.4518 19.5146 17.9557 19.5146 18.2486 19.1982C18.5533 18.8936 18.565 18.3779 18.2603 18.085L14.5338 14.3584ZM12.2135 16.6787L11.1002 17.792L14.815 21.5303C15.1197 21.835 15.6236 21.835 15.9283 21.5303C16.233 21.2139 16.2447 20.71 15.94 20.4053L12.2135 16.6787ZM9.89316 18.999L8.77988 20.1123L12.4947 23.8506C12.8111 24.1553 13.315 24.1553 13.608 23.8506C13.9127 23.5342 13.9244 23.0303 13.6197 22.7256L9.89316 18.999ZM7.57285 21.3193L6.45957 22.4326L10.1744 26.1709C10.4791 26.4756 10.983 26.4756 11.2877 26.1709C11.5924 25.8545 11.6041 25.3506 11.2994 25.0459L7.57285 21.3193Z" fill="black" fill-opacity="0.85"/>
</g>
<defs>
<clipPath id="clip0_2124_89301">
<rect width="26.9049" height="28.8691" fill="white" transform="translate(1)"/>
</clipPath>
</defs>
</svg>
