<svg width="28" height="28" viewBox="0 0 28 28" fill="none" xmlns="http://www.w3.org/2000/svg">
<g clip-path="url(#clip0_2124_88777)">
<path d="M13.9531 25.9062C20.4922 25.9062 25.9062 20.4805 25.9062 13.9531C25.9062 7.41406 20.5039 2 13.9648 2C7.4375 2 2 7.41406 2 13.9531C2 20.4805 7.42578 25.9062 13.9531 25.9062ZM13.9648 23.9141C8.43359 23.9141 4.00391 19.4844 4.00391 13.9531C4.00391 8.42188 8.44531 3.99219 13.9766 3.99219C19.5078 3.99219 23.9141 8.42188 23.9141 13.9531C23.9141 19.4844 19.4961 23.9141 13.9648 23.9141ZM6.64062 21.2891C8.65625 23.3047 12.9336 21.7344 17.3281 17.3398C21.7344 12.9336 23.3047 8.65625 21.2891 6.64062C19.2266 4.58984 14.9844 6.16016 10.5664 10.5781C6.16016 14.9961 4.57812 19.2266 6.64062 21.2891ZM7.90625 20.0117C6.64062 18.7461 8.22266 15.4766 11.832 11.8555C15.4883 8.19922 18.7578 6.64062 20.0117 7.90625C21.2773 9.16016 19.6953 12.418 16.0508 16.0742C12.4297 19.6953 9.16016 21.2773 7.90625 20.0117ZM21.2656 21.2891C23.3164 19.2266 21.7461 14.9961 17.3281 10.5664C12.9336 6.16016 8.67969 4.58984 6.61719 6.64062C4.60156 8.65625 6.18359 12.9336 10.5781 17.3281C14.9844 21.7344 19.25 23.293 21.2656 21.2891ZM20 20.0117C18.7461 21.2773 15.4766 19.6953 11.832 16.0508C8.19922 12.418 6.64062 9.16016 7.89453 7.90625C9.14844 6.64062 12.418 8.19922 16.0508 11.8438C19.6836 15.4766 21.2773 18.7461 20 20.0117ZM22.3672 6.83984L25.3555 3.85156C25.6953 3.5 25.6953 2.91406 25.3555 2.57422C24.9922 2.21094 24.418 2.22266 24.0664 2.57422L21.0195 5.60938L22.3672 6.83984ZM5.60938 21.0195L2.57422 24.0664C2.21094 24.418 2.22266 24.9922 2.57422 25.3438C2.91406 25.6953 3.48828 25.707 3.85156 25.3555L7.03906 22.168L5.60938 21.0195Z" fill="black" fill-opacity="0.85"/>
</g>
<defs>
<clipPath id="clip0_2124_88777">
<rect width="23.9062" height="23.918" fill="white" transform="translate(2 2)"/>
</clipPath>
</defs>
</svg>
