<svg width="28" height="28" viewBox="0 0 28 28" fill="none" xmlns="http://www.w3.org/2000/svg">
<path d="M13.9531 25.9062C20.4922 25.9062 25.9062 20.4805 25.9062 13.9531C25.9062 7.41406 20.4805 2 13.9414 2C7.41406 2 2 7.41406 2 13.9531C2 20.4805 7.42578 25.9062 13.9531 25.9062ZM13.9531 23.9141C8.42188 23.9141 4.00391 19.4844 4.00391 13.9531C4.00391 8.42188 8.41016 3.99219 13.9414 3.99219C19.4727 3.99219 23.9141 8.42188 23.9141 13.9531C23.9141 19.4844 19.4844 23.9141 13.9531 23.9141Z" fill="black" fill-opacity="0.85"/>
<path d="M13.6484 19.5312C16.4844 19.5312 18.0195 17.5039 18.0195 13.5781C18.0195 10.2031 16.4961 8.375 13.8594 8.375C11.4453 8.375 9.875 9.83984 9.875 12.1133C9.875 14.3164 11.5508 15.5703 13.3789 15.5703C14.9375 15.5703 15.8633 14.7969 16.2383 13.9297H16.3203C16.3438 16.5078 15.2539 18.043 13.6367 18.043C12.8281 18.043 12.2773 17.7031 11.7969 17.0469C11.5977 16.7773 11.375 16.5781 11 16.5781C10.543 16.5781 10.2266 16.8828 10.2266 17.3398C10.2266 17.4688 10.25 17.5977 10.2969 17.7383C10.5781 18.5469 11.6797 19.5312 13.6484 19.5312ZM13.9297 14.2461C12.6055 14.2461 11.6914 13.3203 11.6914 12.0312C11.6914 10.6719 12.582 9.76953 13.9414 9.76953C15.2188 9.76953 16.1797 10.7305 16.1797 12.0547C16.1797 13.3203 15.2422 14.2461 13.9297 14.2461Z" fill="black" fill-opacity="0.85"/>
</svg>
