<svg width="28" height="28" viewBox="0 0 28 28" fill="none" xmlns="http://www.w3.org/2000/svg">
<path d="M13.9531 25.9062C20.4922 25.9062 25.9062 20.4805 25.9062 13.9531C25.9062 7.41406 20.4805 2 13.9414 2C7.41406 2 2 7.41406 2 13.9531C2 20.4805 7.42578 25.9062 13.9531 25.9062Z" fill="black" fill-opacity="0.85"/>
<path d="M16.8242 21.418C16.5078 21.418 16.2734 21.2656 16.1328 20.9492L14.5742 17.7734C14.4805 17.6328 14.4453 17.5625 14.3164 17.4102L12.8867 15.6172C12.4883 15.1133 12.1133 14.5391 12.1719 13.7305L12.3008 12.1133C12.3125 11.8672 12.0781 11.7266 11.8789 11.9023L11.1758 12.5234L11.0352 14.3164C11 14.7852 10.7305 15.0312 10.3203 15.0078C9.89844 14.9727 9.65234 14.6797 9.69922 14.2227L9.82812 12.582C9.875 12.125 10.0039 11.832 10.3438 11.4922L11.4805 10.3906C12.2188 9.6875 12.8867 9.31251 13.6484 9.31251C14.7148 9.31251 15.3477 10.0508 15.2773 11.1641L15.1367 13.1328C15.0898 13.8477 14.9375 14.3281 14.7031 15.0898L14.6328 15.3359L15.5234 16.5898C15.6406 16.7539 15.793 16.9766 15.9336 17.2812L17.3867 20.2461C17.4805 20.4336 17.5391 20.5859 17.5391 20.75C17.5391 21.1367 17.2344 21.418 16.8242 21.418ZM10.1211 21.4297C9.74609 21.4297 9.48828 21.1602 9.48828 20.7734C9.48828 20.5156 9.62891 20.3398 9.80469 20.1289L11.9023 17.6445L12.2305 16.0156L13.3789 17.457L13.2617 17.9492C13.1914 18.1953 13.1797 18.1953 12.9336 18.5L10.6719 21.1836C10.543 21.3477 10.332 21.4297 10.1211 21.4297ZM17.2344 13.4961C16.8125 13.4961 16.625 13.4258 16.3906 13.1914L15.8984 12.6992L16.0156 10.9648L17.0938 12.1602H18.9805C19.4492 12.1602 19.7422 12.418 19.7422 12.8281C19.7422 13.2383 19.4609 13.4961 18.9805 13.4961H17.2344ZM14.5742 8.59767C13.7422 8.59767 13.0508 7.89454 13.0508 7.06251C13.0508 6.20704 13.7305 5.51562 14.5742 5.51562C15.4297 5.51562 16.1211 6.20704 16.1211 7.06251C16.1211 7.88281 15.418 8.59767 14.5742 8.59767Z" fill="white"/>
</svg>
