<svg width="28" height="28" viewBox="0 0 28 28" fill="none" xmlns="http://www.w3.org/2000/svg">
<path d="M23.2383 4.38281C22.043 3.1875 20.3555 3 18.3516 3H9.22266C7.25391 3 5.56641 3.1875 4.37109 4.38281C3.17578 5.57812 3 7.25391 3 9.22266V18.3516C3 20.3555 3.17578 22.0312 4.37109 23.2266C5.56641 24.4219 7.25391 24.6094 9.24609 24.6094H18.3516C20.3555 24.6094 22.043 24.4219 23.2383 23.2266C24.4336 22.0312 24.6094 20.3555 24.6094 18.3516V9.24609C24.6094 7.24219 24.4336 5.57812 23.2383 4.38281Z" fill="black" fill-opacity="0.85"/>
<path d="M13.7812 20.2969C10.2773 20.2969 7.3125 17.332 7.3125 13.8164C7.3125 10.2891 10.2539 7.33594 13.7812 7.33594C17.2969 7.33594 20.2617 10.3008 20.2617 13.8164C20.2617 17.3438 17.3203 20.2969 13.7812 20.2969ZM9.09375 13.8164C9.09375 16.3711 11.2383 18.5156 13.7812 18.5156C14.7422 18.5156 15.6328 18.2109 16.3711 17.6953L9.90234 11.2266C9.41016 11.9766 9.09375 12.8672 9.09375 13.8164ZM11.1914 9.9375L17.6719 16.4062C18.1641 15.6562 18.4805 14.7656 18.4805 13.8164C18.4805 11.2617 16.3359 9.11719 13.7812 9.11719C12.832 9.11719 11.9414 9.42188 11.1914 9.9375Z" fill="white"/>
</svg>
