<svg width="28" height="28" viewBox="0 0 28 28" fill="none" xmlns="http://www.w3.org/2000/svg">
<path d="M13.9531 25.9062C20.4922 25.9062 25.9062 20.4805 25.9062 13.9531C25.9062 7.41406 20.4805 2 13.9414 2C7.41406 2 2 7.41406 2 13.9531C2 20.4805 7.42578 25.9062 13.9531 25.9062ZM13.9531 23.9141C8.42188 23.9141 4.00391 19.4844 4.00391 13.9531C4.00391 8.42188 8.41016 3.99219 13.9414 3.99219C19.4727 3.99219 23.9141 8.42188 23.9141 13.9531C23.9141 19.4844 19.4844 23.9141 13.9531 23.9141Z" fill="black" fill-opacity="0.85"/>
<path d="M14.3398 18.9688C14.7266 18.9688 15.0664 18.7812 15.793 18.7812C16.5078 18.7812 16.707 18.9688 17.2461 18.9688C18.0547 18.9688 18.4766 18.6523 18.4766 18.0781C18.4766 17.1055 17.4336 16.4727 15.7812 16.4727C14.9727 16.4727 14.5977 16.543 14.1406 16.6602L13.5547 15.3125C12.9922 14 12.043 13.168 10.7188 13.168H10.0625C9.85156 13.168 9.71094 13.0859 9.71094 12.875C9.71094 12.5352 10.168 12.4531 10.6602 12.4531C12.2539 12.4531 13.4375 13.332 14.1758 15.1016L14.5508 16.0156C14.9141 15.9453 15.3242 15.9102 15.7344 15.9102C16.0508 15.9102 16.3438 15.9336 16.6484 15.9688C16.9883 15.7227 17.3633 15.4648 17.9141 15.2188C18.5352 15.6406 19.2266 15.9219 19.9766 15.9219C21.4766 15.9219 22.1562 15.582 22.1562 14.1523C22.1562 12.4297 20.9023 11.1289 19.25 11.1523L17.7617 9.18359C16.9531 8.11719 15.9688 7.58984 14.9961 7.58984C14.1875 7.58984 13.0156 8.04688 13.0156 8.70312C13.0156 9.14844 13.8945 9.75781 14.5859 10.1797L17.7383 12.1016C17.4922 12.3359 17.2695 12.4648 17 12.4648C16.5664 12.4648 16.1211 12.2188 15.4648 11.832C13.7773 10.8594 12.4766 9.92188 10.7305 9.92188C8.90234 9.92188 7.50781 10.9766 6.76953 13.0156C6.18359 13.0273 5.73828 13.4023 5.73828 13.9766C5.73828 14.5977 6.24219 14.9961 6.93359 15.0078C7.73047 16.1328 9.05469 16.5664 10.6016 16.5664C10.6836 16.5664 10.7656 16.5547 10.8359 16.5547L13.0625 18.4062C13.6367 18.8867 13.918 18.9688 14.3398 18.9688ZM10.3789 19.4023C11.4336 19.4023 12.0781 19.2031 12.6055 18.8398L10.918 17.4336C10.8242 17.4336 10.7422 17.4453 10.625 17.4453C10.3555 17.4453 9.94531 17.375 9.46484 17.375C8.84375 17.375 8.46875 17.6914 8.46875 18.1836C8.46875 18.9219 9.20703 19.4023 10.3789 19.4023ZM19.8359 13.8945C19.5898 13.8945 19.4023 13.6719 19.4023 13.4492C19.4023 13.1914 19.6016 12.9805 19.8477 12.9805C20.0938 12.9805 20.2812 13.1797 20.2812 13.4141C20.2812 13.6602 20.082 13.8945 19.8359 13.8945Z" fill="black" fill-opacity="0.85"/>
</svg>
