<svg width="28" height="28" viewBox="0 0 28 28" fill="none" xmlns="http://www.w3.org/2000/svg">
<path d="M1 13.9531C1 20.4805 6.42578 25.9062 12.9531 25.9062C16.9023 25.9062 20.4062 23.9023 22.6211 20.9023C23.0195 20.3867 22.8906 19.7422 22.4219 19.4492C21.9297 19.1562 21.3672 19.3086 21.0156 19.7891C19.2109 22.2734 16.293 23.9023 12.9531 23.9141C7.42188 23.9258 2.99219 19.4844 2.99219 13.9531C2.99219 8.42188 7.42188 4.00391 12.9531 4.00391C17.7109 4.00391 21.6484 7.26172 22.6562 11.6914H20.9688C20.1367 11.6914 19.9258 12.2656 20.3711 12.9102L22.9961 16.6484C23.3711 17.1758 23.9336 17.1875 24.3203 16.6484L26.9336 12.9219C27.4023 12.2656 27.1797 11.6914 26.3477 11.6914H24.6836C23.6172 6.20703 18.7188 2 12.9531 2C6.42578 2 1 7.41406 1 13.9531Z" fill="black" fill-opacity="0.85"/>
<path d="M10.0352 19.8711H16.1055C16.9141 19.8711 17.3008 19.4609 17.3008 18.582V13.9297C17.3008 13.0508 16.9141 12.6406 16.1055 12.6406L11.0898 12.6289V11.1289C11.0898 9.74609 11.8867 8.83203 13.0703 8.83203C14.2539 8.83203 15.0508 9.62891 15.0508 10.8242V11.1055C15.0508 11.4805 15.3203 11.7031 15.6836 11.7031C16.0234 11.7031 16.2695 11.4687 16.2695 11.1055V10.8242C16.2695 8.92578 14.9922 7.64844 13.0703 7.64844C11.1602 7.64844 9.87109 9.10156 9.87109 11.2578V12.6406C9.17969 12.6875 8.83984 13.0977 8.83984 13.918V18.582C8.83984 19.4609 9.22656 19.8711 10.0352 19.8711Z" fill="black" fill-opacity="0.85"/>
</svg>
