<svg width="28" height="28" viewBox="0 0 28 28" fill="none" xmlns="http://www.w3.org/2000/svg">
<path d="M12.7317 5.10938C14.138 5.10938 15.2747 3.97266 15.2747 2.54297C15.2747 1.13672 14.138 0 12.7317 0C11.302 0 10.1653 1.13672 10.1653 2.54297C10.1653 3.97266 11.302 5.10938 12.7317 5.10938ZM1.93874 26.6133C2.38406 27.0469 3.12234 27.1289 3.63796 26.6133L8.77077 21.4922C9.08718 21.1875 9.14577 20.9414 9.11062 20.4844L8.81765 17.1797C8.79421 16.9688 8.99343 16.875 9.13406 17.0039L12.8137 20.168L14.7239 26.1094C14.9466 26.8008 15.6497 27.0703 16.2473 26.8945C16.927 26.6953 17.2434 26.0156 17.0325 25.3711L15.052 19.1133C14.9934 18.9375 14.888 18.7383 14.7473 18.6094L10.7864 14.6953L13.3294 9.60938C13.4348 9.39844 13.6926 9.35156 13.8684 9.52734L16.7161 12.3984C16.845 12.5273 17.0325 12.6328 17.22 12.6914L22.927 14.4023C23.3958 14.543 24.1809 14.3555 24.427 13.5703C24.6145 12.9375 24.2512 12.2461 23.6067 12.0586L18.2044 10.4648L15.1223 7.34766C14.4192 6.64453 13.6106 6.33984 12.6497 6.33984H4.49343C4.02468 6.33984 3.61452 6.59766 3.41531 7.00781L1.13015 11.5547C0.837181 12.1406 1.04812 12.8789 1.66921 13.1719C2.29031 13.4648 2.99343 13.2422 3.29812 12.6211L5.23171 8.76562H7.64577C7.91531 8.76562 8.07937 9.02344 7.95046 9.28125L6.18093 12.832C5.54812 14.0859 5.37234 15.5508 5.7239 16.9336L6.56765 20.25L1.91531 24.8789C1.44656 25.3359 1.45827 26.1328 1.93874 26.6133ZM23.2669 21.2812C24.8137 21.2812 26.0559 20.0273 26.0559 18.4922C26.0559 16.957 24.8137 15.7148 23.2669 15.7148C21.7317 15.7148 20.4895 16.957 20.4895 18.4922C20.4895 20.0273 21.7317 21.2812 23.2669 21.2812Z" fill="black" fill-opacity="0.85"/>
</svg>
