<svg width="28" height="28" viewBox="0 0 28 28" fill="none" xmlns="http://www.w3.org/2000/svg">
<path d="M3.67969 24.5742H23.9531C26.4141 24.5742 27.6328 23.3672 27.6328 20.9531V6.63281C27.6328 4.21875 26.4141 3 23.9531 3H3.67969C1.23047 3 0 4.21875 0 6.63281V20.9531C0 23.3672 1.23047 24.5742 3.67969 24.5742Z" fill="black" fill-opacity="0.85"/>
<path d="M12.5156 19.5234C12.1055 19.5234 11.7891 19.3594 11.4727 18.9492L8.54297 15.3398C8.35547 15.1055 8.26172 14.8477 8.26172 14.5781C8.26172 14.0508 8.66016 13.6172 9.19922 13.6172C9.52734 13.6172 9.79688 13.7227 10.0781 14.1094L12.4688 17.1797L17.4727 9.14062C17.6836 8.78906 17.9883 8.60156 18.3047 8.60156C18.8203 8.60156 19.3008 8.95312 19.3008 9.50391C19.3008 9.76172 19.1484 10.0313 19.0078 10.2773L13.4883 18.9492C13.2539 19.3359 12.9141 19.5234 12.5156 19.5234Z" fill="white"/>
</svg>
