<svg width="28" height="28" viewBox="0 0 28 28" fill="none" xmlns="http://www.w3.org/2000/svg">
<g clip-path="url(#clip0_2124_88704)">
<path d="M13.9531 25.9062C20.4922 25.9062 25.9062 20.4805 25.9062 13.9531C25.9062 7.41406 20.4805 2 13.9414 2C7.41406 2 2 7.41406 2 13.9531C2 20.4805 7.42578 25.9062 13.9531 25.9062ZM13.9531 23.9141C8.42188 23.9141 4.00391 19.4844 4.00391 13.9531C4.00391 8.42188 8.41016 3.99219 13.9414 3.99219C19.4727 3.99219 23.9141 8.42188 23.9141 13.9531C23.9141 19.4844 19.4844 23.9141 13.9531 23.9141Z" fill="black" fill-opacity="0.85"/>
<path d="M10.8242 7.89453H17.082V7.67188C17.082 6.83984 16.6719 6.41797 15.8398 6.41797H12.0547C11.2344 6.41797 10.8242 6.83984 10.8242 7.67188V7.89453ZM13.3438 21.4883H14.5508C15.3477 21.4883 15.7812 21.0547 15.7812 20.2344V12.8516C15.7812 12.1367 15.9336 11.6562 16.1914 11.2578L16.5547 10.6953C16.8711 10.2031 17.082 9.76953 17.082 9.20703V8.60938H10.8242V9.20703C10.8242 9.76953 11.0352 10.2031 11.3516 10.6953L11.7148 11.2578C11.9727 11.6562 12.1367 12.1367 12.1367 12.8516V20.2344C12.1367 21.0547 12.5586 21.4883 13.3438 21.4883ZM12.8281 13.4492C12.8281 12.8164 13.3203 12.3242 13.9531 12.3242C14.5859 12.3242 15.0781 12.8164 15.0781 13.4492V15.3711C15.0781 15.9922 14.5859 16.4961 13.9531 16.4961C13.3203 16.4961 12.8281 15.9922 12.8281 15.3711V13.4492ZM13.9531 16.0859C14.3867 16.0859 14.668 15.7695 14.668 15.3711C14.668 14.9727 14.3633 14.6445 13.9531 14.6445C13.5547 14.6445 13.2383 14.9727 13.2383 15.3711C13.2383 15.7695 13.543 16.0859 13.9531 16.0859Z" fill="black" fill-opacity="0.85"/>
</g>
<defs>
<clipPath id="clip0_2124_88704">
<rect width="23.9062" height="23.918" fill="white" transform="translate(2 2)"/>
</clipPath>
</defs>
</svg>
