<svg width="32" height="28" viewBox="0 0 32 28" fill="none" xmlns="http://www.w3.org/2000/svg">
<path d="M11.4687 25.3048H21.6406C22.1562 25.3048 22.5898 24.8829 22.5898 24.3673C22.5898 23.8517 22.1562 23.4181 21.6406 23.4181H11.4687C10.9531 23.4181 10.5195 23.8517 10.5195 24.3673C10.5195 24.8829 10.9531 25.3048 11.4687 25.3048Z" fill="black" fill-opacity="0.85"/>
<path d="M25.1445 25.3048H30.9687C31.4844 25.3048 31.9062 24.8829 31.9062 24.3673C31.9062 23.8517 31.4844 23.4181 30.9687 23.4181H25.1445C24.6289 23.4181 24.1953 23.8517 24.1953 24.3673C24.1953 24.8829 24.6289 25.3048 25.1445 25.3048Z" fill="black" fill-opacity="0.85"/>
<path d="M1.8242 21.215L6.37107 25.7501C8.78513 28.1642 11.7734 28.1759 14.0469 25.9025L25.3437 14.6056C27.0078 12.9415 27.0078 10.4455 25.3086 8.74623L18.8281 2.2892C17.1289 0.589981 14.6445 0.566544 12.9687 2.24232L1.68357 13.5392C-0.589867 15.8126 -0.578148 18.8009 1.8242 21.215Z" fill="white"/>
<path d="M5.17533 12.4611L14.984 22.2697L23.9254 13.3165C24.9683 12.2736 24.9449 10.797 23.8785 9.73057L17.7144 3.54307C16.648 2.47666 15.1597 2.46494 14.1168 3.50791L5.17533 12.4611ZM2.9722 20.2189L7.21439 24.4611C8.9722 26.2072 10.9644 26.2775 12.6285 24.6134L13.8472 23.3947L4.03861 13.5861L2.80814 14.7931C1.14408 16.4689 1.21439 18.4611 2.9722 20.2189Z" fill="black" fill-opacity="0.85"/>
</svg>
