<svg width="35" height="34" viewBox="0 0 35 34" fill="none" xmlns="http://www.w3.org/2000/svg">
<g clip-path="url(#clip0_2124_45953)">
<path d="M31.3697 11.1467C33.1276 11.1467 34.5338 9.68189 34.5338 7.98267C34.5338 6.21314 33.1276 4.78345 31.3697 4.78345C29.6002 4.78345 28.1822 6.21314 28.1822 7.98267C28.1822 9.72876 29.6002 11.1467 31.3697 11.1467ZM12.4908 27.9162C13.1002 28.5491 14.1432 28.5022 14.8815 27.7287L19.9322 22.5256C20.0963 22.3498 20.2135 22.303 20.4713 22.4084L24.4088 23.8967C26.9401 24.8694 29.319 24.0373 30.4322 22.0217L32.9635 17.4162C33.9479 15.6233 33.6315 13.7717 31.9322 12.8577C30.2682 11.9553 28.5572 12.635 27.5612 14.4748L24.2682 20.4631L21.4791 19.4436C20.0846 18.9397 18.9362 19.1037 17.8346 20.2522L12.5963 25.6662C11.8697 26.4162 11.9401 27.3537 12.4908 27.9162Z" fill="black" fill-opacity="0.85"/>
<path d="M0.22039 8.55689L3.40789 12.6233C3.54852 12.8108 3.77117 12.8459 3.97039 12.7287C4.73211 12.3303 5.82195 12.0608 6.67742 12.0608C7.54461 12.0608 8.63445 12.3303 9.37274 12.7287C9.59539 12.8459 9.81805 12.8108 9.94695 12.6233L13.1462 8.55689C13.4626 8.14673 13.404 7.73658 13.029 7.43189C11.7282 6.4358 9.26727 5.67408 6.67742 5.67408C4.0993 5.67408 1.63836 6.4358 0.349297 7.43189C-0.049141 7.73658 -0.0842969 8.14673 0.22039 8.55689ZM3.52508 15.0022C3.1618 14.5217 3.00945 14.0764 3.00945 13.5959C3.00945 12.4944 3.90008 12.2131 3.90008 11.5686C3.90008 10.9123 3.00945 10.6428 3.00945 9.50611C3.00945 9.03736 3.1618 8.59204 3.52508 8.1233C3.93524 7.63111 4.67352 8.15845 4.27508 8.67408C4.01727 9.03736 3.94695 9.23658 3.94695 9.50611C3.94695 10.303 4.82586 10.5256 4.82586 11.5686C4.82586 12.5998 3.94695 12.8342 3.94695 13.5959C3.94695 13.9006 4.01727 14.0764 4.27508 14.4514C4.6618 14.9553 3.93524 15.4944 3.52508 15.0022ZM6.27899 15.0022C5.93914 14.5217 5.77508 14.0764 5.77508 13.5959C5.77508 12.4944 6.6657 12.2131 6.6657 11.5686C6.6657 10.9123 5.77508 10.6428 5.77508 9.50611C5.77508 9.03736 5.92742 8.59204 6.27899 8.1233C6.68914 7.63111 7.43914 8.15845 7.05242 8.67408C6.78289 9.03736 6.71258 9.23658 6.71258 9.50611C6.71258 10.303 7.6032 10.5256 7.6032 11.5686C7.6032 12.5998 6.71258 12.8342 6.71258 13.5959C6.71258 13.9006 6.78289 14.0764 7.0407 14.4514C7.42742 14.9553 6.68914 15.4944 6.27899 15.0022ZM9.06805 15.0022C8.70477 14.5217 8.5407 14.0764 8.5407 13.5959C8.5407 12.4944 9.44305 12.2131 9.44305 11.5686C9.44305 10.9123 8.5407 10.6428 8.5407 9.50611C8.5407 9.03736 8.69305 8.59204 9.07977 8.1233C9.4782 7.63111 10.2048 8.15845 9.81805 8.67408C9.56024 9.03736 9.4782 9.23658 9.4782 9.50611C9.4782 10.303 10.3688 10.5256 10.3688 11.5686C10.3688 12.5998 9.4782 12.8342 9.4782 13.5959C9.4782 13.9006 9.56024 14.0764 9.80633 14.4514C10.2048 14.9553 9.46649 15.4944 9.06805 15.0022ZM15.3845 8.19361C15.7946 8.19361 16.1228 7.86548 16.1228 7.44361V4.25611H17.7634C18.5017 4.25611 18.7946 3.54126 18.3024 2.99048L15.947 0.295166C15.6071 -0.079834 15.1735 -0.079834 14.8337 0.295166L12.4431 2.99048C11.9743 3.49439 12.2438 4.25611 13.0056 4.25611H14.6345L14.6462 7.44361C14.6462 7.86548 14.9626 8.21704 15.3845 8.19361ZM17.5642 9.40064C17.5642 9.84595 17.904 10.1623 18.3024 10.1623H21.4899V11.7912C21.4899 12.5178 22.2399 12.8342 22.779 12.342L25.4509 9.96314C25.8376 9.63501 25.8142 9.20142 25.4509 8.88501L22.779 6.48267C22.2634 6.01392 21.4899 6.29517 21.4899 7.03345V8.66236H18.3024C17.8923 8.66236 17.5642 9.0022 17.5642 9.40064ZM15.3728 10.6194C14.9509 10.6194 14.6345 10.9475 14.6345 11.3811V14.5569H13.0056C12.2204 14.5569 11.9626 15.3186 12.4313 15.8342L14.8454 18.5178C15.1853 18.8694 15.6071 18.9045 15.9353 18.5295L18.3024 15.8108C18.7712 15.2717 18.4899 14.5569 17.7634 14.5569H16.1228V11.3811C16.1228 10.9592 15.7712 10.6311 15.3728 10.6194Z" fill="black" fill-opacity="0.85"/>
</g>
<defs>
<clipPath id="clip0_2124_45953">
<rect width="34.5153" height="33.3164" fill="white" transform="translate(0.0175781 0.013916)"/>
</clipPath>
</defs>
</svg>
