<svg width="28" height="28" viewBox="0 0 28 28" fill="none" xmlns="http://www.w3.org/2000/svg">
<path d="M14.2539 25.8516C21.9531 25.8516 27.5078 20.6484 27.5078 13.1719C27.5078 5.76562 23.8164 3 14.2539 3C4.67969 3 1 5.76562 1 13.1719C1 20.6484 6.55469 25.8516 14.2539 25.8516ZM14.2539 23.8477C7.33984 23.8477 3.00391 19.793 3.00391 13.1719C3.00391 7.01953 5.83984 5.00391 14.2539 5.00391C22.668 5.00391 25.5039 7.01953 25.5039 13.1719C25.5039 19.793 21.168 23.8477 14.2539 23.8477ZM6.92969 14.332C9.54297 14.332 11.6523 12.2227 11.6523 9.62109C11.6523 7.00781 9.54297 4.89844 6.92969 4.89844C4.32812 4.89844 2.21875 7.00781 2.21875 9.62109C2.21875 12.2227 4.32812 14.332 6.92969 14.332ZM6.92969 12.6797C5.23047 12.6797 3.87109 11.3203 3.87109 9.62109C3.87109 7.92188 5.23047 6.55078 6.92969 6.55078C8.62891 6.55078 10 7.92188 10 9.62109C10 11.3203 8.62891 12.6797 6.92969 12.6797ZM21.5664 14.332C24.1797 14.332 26.2891 12.2227 26.2891 9.62109C26.2891 7.00781 24.1797 4.89844 21.5664 4.89844C18.9648 4.89844 16.8555 7.00781 16.8555 9.62109C16.8555 12.2227 18.9648 14.332 21.5664 14.332ZM21.5664 12.6797C19.8672 12.6797 18.5078 11.3203 18.5078 9.62109C18.5078 7.92188 19.8672 6.55078 21.5664 6.55078C23.2656 6.55078 24.6367 7.92188 24.6367 9.62109C24.6367 11.3203 23.2656 12.6797 21.5664 12.6797ZM14.2539 25.6055C19.0234 25.6055 22.7969 23.6133 25.0586 20.4375C22.1992 17.8242 18.4492 16.3008 14.2539 16.3008C10.0469 16.3008 6.29688 17.8242 3.4375 20.4258C5.71094 23.6133 9.48438 25.6055 14.2539 25.6055ZM9.00391 22.0195C8.41797 22.0195 7.94922 21.5625 7.94922 20.9766C7.94922 20.3906 8.41797 19.9336 9.00391 19.9336C9.58984 19.9336 10.0469 20.3906 10.0469 20.9766C10.0469 21.5625 9.58984 22.0195 9.00391 22.0195ZM14.2539 22.7695C13.2695 22.7695 12.4609 21.9609 12.4609 20.9766C12.4609 19.9922 13.2695 19.1836 14.2539 19.1836C15.2383 19.1836 16.0469 19.9922 16.0469 20.9766C16.0469 21.9609 15.2383 22.7695 14.2539 22.7695ZM19.5039 22.0195C18.918 22.0195 18.4609 21.5625 18.4609 20.9766C18.4609 20.3906 18.918 19.9336 19.5039 19.9336C20.0898 19.9336 20.5469 20.3906 20.5469 20.9766C20.5469 21.5625 20.0898 22.0195 19.5039 22.0195Z" fill="black" fill-opacity="0.85"/>
<path d="M6.92969 11.2734C7.84375 11.2734 8.59375 10.5352 8.59375 9.62109C8.59375 8.70703 7.84375 7.95703 6.92969 7.95703C6.01562 7.95703 5.27734 8.70703 5.27734 9.62109C5.27734 10.5352 6.01562 11.2734 6.92969 11.2734ZM21.5664 11.2734C22.4805 11.2734 23.2305 10.5352 23.2305 9.62109C23.2305 8.70703 22.4805 7.95703 21.5664 7.95703C20.6523 7.95703 19.9141 8.70703 19.9141 9.62109C19.9141 10.5352 20.6523 11.2734 21.5664 11.2734Z" fill="black" fill-opacity="0.85"/>
</svg>
