<svg width="28" height="28" viewBox="0 0 28 28" fill="none" xmlns="http://www.w3.org/2000/svg">
<path d="M13.832 26.6562C17.6641 26.6562 20.6406 24.1367 20.6406 20.9023C20.6406 17.6562 17.6641 15.1367 13.832 15.1367C9.97656 15.1367 7 17.6562 7 20.9023C7 24.1367 9.97656 26.6562 13.832 26.6562ZM13.832 24.7695C11.043 24.7695 8.88672 23.082 8.88672 20.9023C8.88672 18.7109 11.043 17.0234 13.832 17.0234C16.6211 17.0234 18.7539 18.7109 18.7539 20.9023C18.7539 23.082 16.6211 24.7695 13.832 24.7695Z" fill="black" fill-opacity="0.85"/>
<path d="M13.7852 23.3984C15.2734 23.3984 16.4922 22.4844 16.4922 21.1836V7.71875H11.0898V21.1836C11.0898 22.4844 12.3203 23.3984 13.7852 23.3984Z" fill="white"/>
<path d="M13.7852 22.0273C14.5234 22.0273 15.1328 21.6758 15.1328 21.1836V9.08984H12.4609V21.1836C12.4609 21.6758 13.0469 22.0273 13.7852 22.0273ZM13.7852 12.0664C16.5625 12.0664 18.8008 9.80469 18.8008 7.01562C18.8008 4.25 16.5391 2 13.7852 2C11.0078 2 8.73438 4.27344 8.73438 7.01562C8.73438 9.82812 11.0078 12.0664 13.7852 12.0664Z" fill="black" fill-opacity="0.85"/>
</svg>
