<svg width="28" height="28" viewBox="0 0 28 28" fill="none" xmlns="http://www.w3.org/2000/svg">
<path d="M13.9531 25.9062C20.4922 25.9062 25.9062 20.4805 25.9062 13.9531C25.9062 7.41406 20.4805 2 13.9414 2C7.41406 2 2 7.41406 2 13.9531C2 20.4805 7.42578 25.9062 13.9531 25.9062Z" fill="black" fill-opacity="0.85"/>
<path d="M11.2109 18.9922C10.8242 18.9922 10.3789 18.7695 10.3789 18.125V16.9297H7.67188C7.08594 16.9297 6.67578 16.5312 6.67578 15.9453C6.67578 15.5703 6.74609 15.2539 6.94531 14.7852L9.10156 10.0977C9.44141 9.34766 9.83984 8.91406 10.6953 8.91406C11.4922 8.91406 12.043 9.38281 12.043 10.2266V15.5234H12.4766C12.957 15.5234 13.1562 15.8281 13.1562 16.2148C13.1562 16.625 12.9336 16.9297 12.4766 16.9297H12.043V18.125C12.043 18.7109 11.668 18.9922 11.2109 18.9922ZM10.4141 15.5586V10.4375H10.3672L8.17578 15.4766V15.5586H10.4141ZM17.5039 19.0508C15.7344 19.0508 14.375 17.9961 14.375 16.2031C14.375 14.8906 15.1602 13.9414 16.2031 13.707V13.6719C15.4297 13.4375 14.6445 12.7109 14.6445 11.4805C14.6445 9.78125 16.0039 8.86719 17.5039 8.86719C19.2148 8.86719 20.375 9.92188 20.375 11.4922C20.375 12.6406 19.6484 13.4258 18.8398 13.6719V13.707C19.8008 13.9297 20.6445 14.8789 20.6445 16.2031C20.6445 17.8555 19.4141 19.0508 17.5039 19.0508ZM17.5039 13.1211C18.2656 13.1211 18.6641 12.4531 18.6641 11.6562C18.6641 10.8828 18.2891 10.168 17.5039 10.168C16.7539 10.168 16.3438 10.8828 16.3438 11.6562C16.3438 12.3711 16.7305 13.1211 17.5039 13.1211ZM17.5039 17.7383C18.3828 17.7383 18.8164 16.9531 18.8164 16.0625C18.8164 15.1484 18.3594 14.4219 17.5039 14.4219C16.6367 14.4219 16.1914 15.1953 16.1914 16.0625C16.1914 16.9531 16.625 17.7383 17.5039 17.7383Z" fill="white"/>
</svg>
