<svg width="28" height="28" viewBox="0 0 28 28" fill="none" xmlns="http://www.w3.org/2000/svg">
<path d="M6.67969 24.5977H20.8945C23.3555 24.5977 24.5742 23.3789 24.5742 20.9648V6.65625C24.5742 4.24219 23.3555 3.02344 20.8945 3.02344H6.67969C4.23047 3.02344 3 4.23047 3 6.65625V20.9648C3 23.3906 4.23047 24.5977 6.67969 24.5977ZM6.70312 22.7109C5.53125 22.7109 4.88672 22.0898 4.88672 20.8711V6.75C4.88672 5.53125 5.53125 4.91016 6.70312 4.91016H20.8711C22.0312 4.91016 22.6875 5.53125 22.6875 6.75V20.8711C22.6875 22.0898 22.0312 22.7109 20.8711 22.7109H6.70312Z" fill="black" fill-opacity="0.85"/>
<path d="M15.2227 19.6641C15.6094 19.6641 15.9375 19.4062 15.9375 18.9844C15.9375 18.7383 15.7969 18.5391 15.6211 18.375L12.1641 15.1406H12.4687C14.7773 15.1406 15.9141 13.8516 16.1602 12.375H17.25C17.5898 12.375 17.8242 12.1172 17.8242 11.8008C17.8242 11.4609 17.5898 11.2148 17.25 11.2148H16.1719C16.0898 10.6055 15.8672 10.0664 15.4805 9.64453H17.1914C17.5312 9.64453 17.7656 9.375 17.7656 9.05859C17.7656 8.71875 17.5312 8.48438 17.1914 8.48438H14.7305C14.3555 8.48438 13.9805 8.48438 13.6055 8.48438H10.4531C10.0781 8.48438 9.76172 8.77734 9.76172 9.17578C9.76172 9.55078 10.0781 9.87891 10.4531 9.87891H12.5625C13.6055 9.87891 14.332 10.3711 14.5547 11.2148H10.4414C10.1133 11.2148 9.86719 11.4609 9.86719 11.8008C9.86719 12.1172 10.1133 12.375 10.4414 12.375H14.5781C14.3672 13.2891 13.5938 13.7461 12.4102 13.7461H10.6992C10.2187 13.7461 9.86719 14.0508 9.86719 14.543C9.86719 14.9414 10.0547 15.1289 10.2891 15.3516L14.5312 19.3477C14.7891 19.5938 14.9766 19.6641 15.2227 19.6641Z" fill="black" fill-opacity="0.85"/>
</svg>
