<svg width="28" height="28" viewBox="0 0 28 28" fill="none" xmlns="http://www.w3.org/2000/svg">
<path d="M6.67969 24.5977H20.8945C23.3555 24.5977 24.5742 23.3789 24.5742 20.9648V6.65625C24.5742 4.24219 23.3555 3.02344 20.8945 3.02344H6.67969C4.23047 3.02344 3 4.23047 3 6.65625V20.9648C3 23.3906 4.23047 24.5977 6.67969 24.5977Z" fill="black" fill-opacity="0.85"/>
<path d="M11.0508 18.832C10.6641 18.832 10.2188 18.6094 10.2188 17.9766V16.7695H7.51173C6.92579 16.7695 6.51562 16.3711 6.51562 15.7852C6.51562 15.4102 6.59767 15.0938 6.79689 14.625L8.94142 9.9375C9.28126 9.1875 9.67969 8.75391 10.5469 8.75391C11.332 8.75391 11.8828 9.22266 11.8828 10.0664V15.3633H12.3164C12.7969 15.3633 13.0078 15.668 13.0078 16.0547C13.0078 16.4648 12.7852 16.7695 12.3164 16.7695H11.8828V17.9766C11.8828 18.5508 11.5195 18.832 11.0508 18.832ZM10.2539 15.3984V10.2773H10.207L8.01563 15.3164V15.3984H10.2539ZM17.3672 18.9258C14.9648 18.9258 14.2383 16.2305 14.2383 13.793C14.2383 11.3555 14.9648 8.66016 17.3672 8.66016C19.7812 8.66016 20.5078 11.3555 20.5078 13.793C20.5078 16.2305 19.7812 18.9258 17.3672 18.9258ZM17.3672 17.4844C18.3516 17.4844 18.7266 15.8906 18.7266 13.793C18.7266 11.6836 18.3516 10.1016 17.3672 10.1016C16.3828 10.1016 16.0078 11.6836 16.0078 13.793C16.0078 15.8906 16.3828 17.4844 17.3672 17.4844Z" fill="white"/>
</svg>
