<svg width="28" height="28" viewBox="0 0 28 28" fill="none" xmlns="http://www.w3.org/2000/svg">
<g clip-path="url(#clip0_2124_88680)">
<path d="M6.67969 24.5977H20.8945C23.3555 24.5977 24.5742 23.3789 24.5742 20.9648V6.65625C24.5742 4.24219 23.3555 3.02344 20.8945 3.02344H6.67969C4.23047 3.02344 3 4.23047 3 6.65625V20.9648C3 23.3906 4.23047 24.5977 6.67969 24.5977Z" fill="black" fill-opacity="0.85"/>
<path d="M8.49609 18.1523C7.86328 18.1523 7.5 17.8242 7.5 17.3555C7.5 16.6758 8.17969 16.0898 8.75391 15.4805C9.19922 15.0117 9.30469 14.0625 9.35156 13.3125C9.39844 10.7227 10.0898 8.95312 11.8594 8.29688C12.1406 7.44141 12.8203 6.73828 13.8047 6.73828C14.7891 6.73828 15.4805 7.44141 15.75 8.29688C17.5195 8.95312 18.2227 10.7227 18.2695 13.3125C18.3164 14.0625 18.3984 15.0117 18.8555 15.4805C19.4531 16.0781 20.1094 16.6758 20.1094 17.3555C20.1094 17.8242 19.7461 18.1523 19.125 18.1523H8.49609ZM13.8047 20.9531C12.668 20.9531 11.8477 20.1328 11.7656 19.1602H15.8555C15.7734 20.1328 14.9414 20.9531 13.8047 20.9531Z" fill="white"/>
</g>
<defs>
<clipPath id="clip0_2124_88680">
<rect width="21.5742" height="21.5977" fill="white" transform="translate(3 3)"/>
</clipPath>
</defs>
</svg>
