<svg width="28" height="28" viewBox="0 0 28 28" fill="none" xmlns="http://www.w3.org/2000/svg">
<path d="M2.31406 16.8805L11.7008 26.2672C13.4352 28.0016 15.1461 28.0133 16.8687 26.3023L26.3023 16.857C28.0133 15.1461 28.0016 13.4234 26.2672 11.6891L16.8922 2.31406C15.1578 0.579683 13.4469 0.556245 11.7242 2.2789L2.2789 11.7125C0.556245 13.4352 0.579683 15.1461 2.31406 16.8805Z" fill="black" fill-opacity="0.85"/>
<path d="M9.05273 17.7242V14.6422C9.05273 12.2984 10.166 11.1734 12.5215 11.1734H15.8496V9.62655C15.8496 8.84139 16.6582 8.50155 17.2793 8.98202L20.1387 11.1969C20.8887 11.7945 20.8887 12.5094 20.1387 13.107L17.2793 15.3336C16.6582 15.8141 15.8496 15.4742 15.8496 14.6891V13.1305H12.5449C11.5137 13.1305 10.998 13.6461 10.998 14.7359V17.7242C10.998 18.4156 10.6348 18.8023 10.0254 18.8141C9.39257 18.8258 9.05273 18.4156 9.05273 17.7242Z" fill="white"/>
</svg>
