<svg width="28" height="28" viewBox="0 0 28 28" fill="none" xmlns="http://www.w3.org/2000/svg">
<path d="M4.89062 25.0039C5.38281 25.0039 5.78125 24.6172 5.78125 24.125V17.6094C6.07422 17.4805 7.17578 17.0586 8.89844 17.0586C13.2344 17.0586 15.9531 19.1797 20.0781 19.1797C21.9062 19.1797 22.5859 18.9805 23.4766 18.582C24.2852 18.2188 24.8125 17.6094 24.8125 16.5312V4.63672C24.8125 4.00391 24.2734 3.64062 23.5938 3.64062C23.0195 3.64062 21.9414 4.13281 19.9258 4.13281C15.8008 4.13281 13.0938 2.01172 8.74609 2.01172C6.91797 2.01172 6.22656 2.21094 5.33594 2.60937C4.52734 2.97266 4 3.58203 4 4.64844V24.125C4 24.6055 4.41016 25.0039 4.89062 25.0039ZM5.78125 12.2539V8.28125C5.94531 7.89453 6.91797 7.35547 8.74609 7.35547C9.12109 7.35547 9.63672 7.37891 10.0469 7.42578V3.85156C11.6289 4.01562 13.0234 4.47266 14.4531 4.89453V8.46875C15.9062 8.91406 17.2656 9.28906 18.8477 9.42969V5.85547C19.1992 5.89062 19.5508 5.90234 19.9258 5.90234C21.2031 5.90234 22.2578 5.75 23.043 5.52734V9.10156C22.457 9.26562 21.332 9.47656 19.9258 9.47656C19.5625 9.47656 19.1875 9.45312 18.8477 9.42969V13.4023C19.1875 13.4375 19.5156 13.4492 19.9258 13.4492C21.2031 13.4492 22.2578 13.2969 23.043 13.0742V16.4844C22.8789 16.8711 21.9062 17.4102 20.0781 17.4102C19.6562 17.4102 19.2461 17.3867 18.8477 17.3398V13.4023C17.2656 13.2266 15.9531 12.9336 14.4531 12.4414V16.2734C13.0938 15.8633 11.6875 15.4648 10.0469 15.3242V11.3984C9.60156 11.3516 9.29688 11.3281 8.74609 11.3281C6.91797 11.3281 5.94531 11.8672 5.78125 12.2539ZM10.0469 11.3984C11.6641 11.5742 12.8945 11.9844 14.4531 12.4414V8.46875C12.9883 8.03516 11.6758 7.58984 10.0469 7.42578V11.3984Z" fill="black" fill-opacity="0.85"/>
</svg>
