<svg width="29" height="29" viewBox="0 0 29 29" fill="none" xmlns="http://www.w3.org/2000/svg">
<g clip-path="url(#clip0_2124_45848)">
<path d="M8.0107 2.12311L8.23335 6.23639C8.26851 6.98639 8.56148 7.41998 9.08883 7.8067L11.6318 9.66998C11.9482 9.89264 12.124 10.0567 12.124 10.6075V25.9004C12.124 26.5333 12.6396 27.0372 13.2724 27.0372C13.9052 27.0372 14.4091 26.5333 14.4091 25.9004V17.6739C14.4091 17.4629 14.5966 17.2754 14.8076 17.2754C15.0185 17.2754 15.1943 17.4629 15.1943 17.6739V25.9004C15.1943 26.5333 15.7099 27.0372 16.3427 27.0372C16.9755 27.0372 17.4794 26.5333 17.4794 25.9004V12.3184C17.4794 12.1075 17.6552 11.9434 17.8662 11.9434C18.0771 11.9434 18.2412 12.1075 18.2412 12.3184V16.8301C18.2412 17.4161 18.7099 17.8731 19.2842 17.8731C19.8584 17.8731 20.3271 17.4161 20.3271 16.8301V11.7911C20.3271 9.20123 18.4287 7.47858 15.663 7.47858H13.2255C12.5224 7.47858 12.0888 7.33795 11.5263 6.93951L10.3076 6.07233L10.0849 2.01764C10.0615 1.44342 9.56929 0.974671 8.99507 1.02155C8.40913 1.06842 7.98726 1.54889 8.0107 2.12311ZM14.8076 6.16608C16.2255 6.16608 17.3623 5.02936 17.3623 3.61139C17.3623 2.19342 16.2255 1.0567 14.8076 1.0567C13.3896 1.0567 12.2529 2.19342 12.2529 3.61139C12.2529 5.02936 13.3896 6.16608 14.8076 6.16608Z" fill="black" fill-opacity="0.85"/>
</g>
<defs>
<clipPath id="clip0_2124_45848">
<rect width="12.3173" height="26.1276" fill="white" transform="translate(8.00977 1.01831)"/>
</clipPath>
</defs>
</svg>
