<svg width="28" height="28" viewBox="0 0 28 28" fill="none" xmlns="http://www.w3.org/2000/svg">
<g clip-path="url(#clip0_2124_89098)">
<path d="M13.9531 25.918C20.4922 25.918 25.9062 20.5039 25.9062 13.9648C25.9062 7.4375 20.4805 2.01172 13.9414 2.01172C7.41406 2.01172 2 7.4375 2 13.9648C2 20.5039 7.42578 25.918 13.9531 25.918Z" fill="black" fill-opacity="0.85"/>
<path d="M13.9531 23.9258C11 23.9258 8.375 22.6719 6.55859 20.6562V9.96875C6.55859 9.16016 7.02734 8.63281 7.78906 8.63281H15.6523C16.4258 8.63281 16.8828 9.16016 16.8828 9.96875V23.4922C15.957 23.7734 14.9727 23.9258 13.9531 23.9258ZM9.3125 21.4414H10.5898C10.7422 21.4414 10.8711 21.3359 10.8711 21.1602V19.918C10.8711 19.7656 10.7422 19.6367 10.5898 19.6367H9.3125C9.14844 19.6367 9.04297 19.7656 9.04297 19.918V21.1602C9.04297 21.3359 9.14844 21.4414 9.3125 21.4414ZM12.8281 21.4414H14.1055C14.2695 21.4414 14.3867 21.3359 14.3867 21.1602V19.918C14.3867 19.7656 14.2695 19.6367 14.1055 19.6367H12.8281C12.6641 19.6367 12.5586 19.7656 12.5586 19.918V21.1602C12.5586 21.3359 12.6641 21.4414 12.8281 21.4414ZM9.3125 18.4648H10.5898C10.7422 18.4648 10.8711 18.3477 10.8711 18.1836V16.9531C10.8711 16.7891 10.7422 16.6719 10.5898 16.6719H9.3125C9.14844 16.6719 9.04297 16.7891 9.04297 16.9531V18.1836C9.04297 18.3477 9.14844 18.4648 9.3125 18.4648ZM12.8281 18.4648H14.1055C14.2695 18.4648 14.3867 18.3477 14.3867 18.1836V16.9531C14.3867 16.7891 14.2695 16.6719 14.1055 16.6719H12.8281C12.6641 16.6719 12.5586 16.7891 12.5586 16.9531V18.1836C12.5586 18.3477 12.6641 18.4648 12.8281 18.4648ZM9.3125 15.5H10.5898C10.7422 15.5 10.8711 15.3711 10.8711 15.2188V13.9766C10.8711 13.8125 10.7422 13.6953 10.5898 13.6953H9.3125C9.14844 13.6953 9.04297 13.8125 9.04297 13.9766V15.2188C9.04297 15.3711 9.14844 15.5 9.3125 15.5ZM12.8281 15.5H14.1055C14.2695 15.5 14.3867 15.3711 14.3867 15.2188V13.9766C14.3867 13.8125 14.2695 13.6953 14.1055 13.6953H12.8281C12.6641 13.6953 12.5586 13.8125 12.5586 13.9766V15.2188C12.5586 15.3711 12.6641 15.5 12.8281 15.5ZM9.3125 12.5469H10.5898C10.7422 12.5469 10.8711 12.4297 10.8711 12.2656V11.0234C10.8711 10.8594 10.7422 10.7422 10.5898 10.7422H9.3125C9.14844 10.7422 9.04297 10.8594 9.04297 11.0234V12.2656C9.04297 12.4297 9.14844 12.5469 9.3125 12.5469ZM12.8281 12.5469H14.1055C14.2695 12.5469 14.3867 12.4297 14.3867 12.2656V11.0234C14.3867 10.8594 14.2695 10.7422 14.1055 10.7422H12.8281C12.6641 10.7422 12.5586 10.8594 12.5586 11.0234V12.2656C12.5586 12.4297 12.6641 12.5469 12.8281 12.5469ZM17.7969 23.1641V11.6328H21.1953C21.957 11.6328 22.4258 12.1367 22.4258 12.9453V19.2031C21.3477 20.9609 19.7305 22.3672 17.7969 23.1641ZM19.5547 20.4453H20.6562C20.7734 20.4453 20.8672 20.3398 20.8672 20.2227V19.1562C20.8672 19.0391 20.7734 18.9336 20.6562 18.9336H19.5547C19.4141 18.9336 19.3203 19.0391 19.3203 19.1562V20.2227C19.3203 20.3398 19.4141 20.4453 19.5547 20.4453ZM19.5547 17.7617H20.6562C20.7734 17.7617 20.8672 17.668 20.8672 17.5391V16.4844C20.8672 16.3555 20.7734 16.2617 20.6562 16.2617H19.5547C19.4141 16.2617 19.3203 16.3555 19.3203 16.4844V17.5391C19.3203 17.668 19.4141 17.7617 19.5547 17.7617ZM19.5547 15.0898H20.6562C20.7734 15.0898 20.8672 14.9961 20.8672 14.8672V13.8008C20.8672 13.6836 20.7734 13.5781 20.6562 13.5781H19.5547C19.4141 13.5781 19.3203 13.6836 19.3203 13.8008V14.8672C19.3203 14.9961 19.4141 15.0898 19.5547 15.0898Z" fill="white"/>
</g>
<defs>
<clipPath id="clip0_2124_89098">
<rect width="23.9062" height="23.918" fill="white" transform="translate(2 2)"/>
</clipPath>
</defs>
</svg>
