<svg width="28" height="28" viewBox="0 0 28 28" fill="none" xmlns="http://www.w3.org/2000/svg">
<path d="M13.9531 25.9062C20.4922 25.9062 25.9062 20.4805 25.9062 13.9531C25.9062 7.41406 20.4805 2 13.9414 2C7.41406 2 2 7.41406 2 13.9531C2 20.4805 7.42578 25.9062 13.9531 25.9062ZM13.9531 23.9141C8.42188 23.9141 4.00391 19.4844 4.00391 13.9531C4.00391 8.42188 8.41016 3.99219 13.9414 3.99219C19.4727 3.99219 23.9141 8.42188 23.9141 13.9531C23.9141 19.4844 19.4844 23.9141 13.9531 23.9141Z" fill="black" fill-opacity="0.85"/>
<path d="M8.73828 18.6406C10.5547 18.6406 12.0312 17.1641 12.0312 15.3477C12.0312 13.5312 10.5547 12.0547 8.73828 12.0547C6.92188 12.0547 5.44531 13.5312 5.44531 15.3477C5.44531 17.1641 6.92188 18.6406 8.73828 18.6406ZM8.75 17.6797C7.44922 17.6797 6.40625 16.6367 6.40625 15.3242C6.40625 14.0352 7.44922 13.0039 8.75 13.0039C10.0391 13.0039 11.082 14.0352 11.082 15.3242C11.082 16.6367 10.0391 17.6797 8.75 17.6797ZM8.75 16.1328C9.18359 16.1328 9.52344 15.7812 9.52344 15.3359C9.52344 14.9023 9.18359 14.5625 8.75 14.5625C8.29297 14.5625 7.95312 14.9023 7.95312 15.3359C7.95312 15.7812 8.29297 16.1328 8.75 16.1328ZM19.168 18.6406C20.9961 18.6406 22.4609 17.1641 22.4609 15.3477C22.4609 13.5312 20.9961 12.0547 19.168 12.0547C17.3516 12.0547 15.875 13.5312 15.875 15.3477C15.875 17.1641 17.3516 18.6406 19.168 18.6406ZM19.1914 17.6797C17.8789 17.6797 16.8359 16.6367 16.8359 15.3242C16.8359 14.0352 17.8789 13.0039 19.1914 13.0039C20.4805 13.0039 21.5234 14.0352 21.5234 15.3242C21.5234 16.6367 20.4805 17.6797 19.1914 17.6797ZM19.1914 16.1328C19.625 16.1328 19.9648 15.7812 19.9648 15.3359C19.9648 14.9023 19.625 14.5625 19.1914 14.5625C18.7344 14.5625 18.3945 14.9023 18.3945 15.3359C18.3945 15.7812 18.7344 16.1328 19.1914 16.1328ZM9.89844 10.1328H12.1016C12.3594 10.1328 12.5938 9.92188 12.5938 9.67578C12.5938 9.40625 12.3711 9.18359 12.1016 9.18359H9.89844C9.62891 9.18359 9.41797 9.40625 9.41797 9.67578C9.41797 9.92188 9.62891 10.1328 9.89844 10.1328ZM8.59766 14.8086L9.35938 15.3594L11.9141 12.5352L13.1328 14.7383H11.7148V15.6406H13.25C13.7305 15.6406 13.9648 15.5234 14.2227 15.2422L17.1875 11.7734L18.5938 15.2539L19.4492 14.8672L16.8477 8.46875C16.7188 8.17578 16.5547 8.07031 16.2148 8.07031H14.7734C14.5039 8.07031 14.2812 8.28125 14.2812 8.55078C14.2812 8.79688 14.4922 9.01953 14.7734 9.01953H16.0742L16.8008 10.8008L12.3242 11.375L11.457 9.80469L10.5078 10.0391L11.3867 11.6211L8.59766 14.8086ZM12.8164 12.2656L16.0742 11.7148L13.9062 14.2109L12.8164 12.2656Z" fill="black" fill-opacity="0.85"/>
</svg>
