<svg width="28" height="28" viewBox="0 0 28 28" fill="none" xmlns="http://www.w3.org/2000/svg">
<path d="M13.9531 25.9062C20.4922 25.9062 25.9062 20.4805 25.9062 13.9531C25.9062 7.41406 20.4805 2 13.9414 2C7.41406 2 2 7.41406 2 13.9531C2 20.4805 7.42578 25.9062 13.9531 25.9062Z" fill="black" fill-opacity="0.85"/>
<path d="M9.34766 16.1914C9.34766 15.9336 9.40625 15.6758 9.54688 15.4297C10.8477 13.1562 12.0195 11.082 13.2969 8.82031C13.5312 8.42188 13.7891 8.23438 14.1758 8.23438C14.7266 8.23438 15.0195 8.64453 15.0195 9.125C15.0195 9.3125 14.9609 9.5 14.8672 9.69922C13.7422 11.7617 12.6992 13.5664 11.6094 15.5938H14.9609V12.9922C14.9609 12.3477 15.2891 11.9727 15.8281 11.9727C16.4141 11.9727 16.7422 12.3359 16.7422 12.9922V15.5938H17.5508C18.0781 15.5938 18.418 15.8984 18.418 16.3672C18.418 16.8711 18.0781 17.1992 17.5508 17.1992H16.7422V18.4414C16.7422 19.0977 16.4141 19.4609 15.8281 19.4609C15.2891 19.4609 14.9609 19.0859 14.9609 18.4414V17.1992H10.4141C9.74609 17.1992 9.34766 16.8008 9.34766 16.1914Z" fill="white"/>
</svg>
