<svg width="28" height="28" viewBox="0 0 28 28" fill="none" xmlns="http://www.w3.org/2000/svg">
<g clip-path="url(#clip0_2124_24802)">
<path d="M13.543 24.2227C17.7969 24.2227 19.5898 23.6836 21.2891 22.1016C23.6797 19.9219 25.0742 16.7695 25.0742 13.418C25.0742 10.7109 24.1719 8.13281 22.3086 6.01172C21.875 5.47266 21.4297 5.42578 20.9609 5.76562C19.2266 7.07812 17.2227 7.73438 13.543 7.73438C9.85156 7.73438 7.84766 7.07812 6.125 5.76562C5.65625 5.42578 5.19922 5.47266 4.76562 6.01172C2.91406 8.13281 2 10.7109 2 13.418C2 16.7695 3.39453 19.9219 5.78516 22.1016C7.48438 23.6836 9.27734 24.2227 13.543 24.2227Z" fill="black" fill-opacity="0.85"/>
<path d="M13.543 6.14062C16.8008 6.14062 19.0742 5.48438 19.0742 4.64062C19.0742 3.78516 16.8008 3.15234 13.543 3.15234C10.2734 3.15234 8 3.78516 8 4.64062C8 5.48438 10.2734 6.14062 13.543 6.14062Z" fill="black" fill-opacity="0.85"/>
</g>
<defs>
<clipPath id="clip0_2124_24802">
<rect width="23.0742" height="21.2227" fill="white" transform="translate(2 3)"/>
</clipPath>
</defs>
</svg>
