<svg width="28" height="28" viewBox="0 0 28 28" fill="none" xmlns="http://www.w3.org/2000/svg">
<path d="M13.9531 25.9062C20.4922 25.9062 25.9062 20.4805 25.9062 13.9531C25.9062 7.41406 20.4805 2 13.9414 2C7.41406 2 2 7.41406 2 13.9531C2 20.4805 7.42578 25.9062 13.9531 25.9062Z" fill="black" fill-opacity="0.85"/>
<path d="M8.24609 18.8398C7.70703 18.8398 7.4375 18.5469 7.4375 18.1367C7.4375 17.75 7.64844 17.4453 7.88281 17.1641L9.98047 14.4805C10.625 13.6719 11.293 12.6875 11.293 11.7148C11.293 10.8594 10.8945 10.2266 10.1562 10.2266C9.47656 10.2266 9.17188 10.7305 8.9375 11.5391C8.82031 11.9375 8.57422 12.1133 8.17578 12.1133C7.71875 12.1133 7.44922 11.8086 7.44922 11.3516C7.44922 10.0977 8.62109 8.82031 10.168 8.82031C11.8438 8.82031 12.957 10.0039 12.957 11.6328C12.957 12.6992 12.5586 13.5898 11.3398 15.0898L9.58203 17.3164V17.4102H12.4414C12.8633 17.4102 13.1328 17.668 13.1328 18.1367C13.1328 18.5586 12.875 18.8398 12.4414 18.8398H8.24609ZM17.3867 19.0859C16.2969 19.0859 15.2305 18.4531 14.8086 17.4688C14.6914 17.2344 14.6211 16.9648 14.6211 16.6836C14.6211 16.2383 14.9141 15.957 15.3477 15.957C15.6758 15.957 15.9453 16.1445 16.0859 16.5312C16.3086 17.1875 16.6953 17.668 17.3633 17.668C18.2539 17.668 18.6055 16.6484 18.6055 15.6406C18.6055 14.75 18.2656 13.6836 17.3867 13.6836C16.8945 13.6836 16.6016 13.9648 16.3203 14.3633C16.0625 14.6914 15.8867 14.8203 15.5469 14.8203C14.9844 14.8203 14.75 14.4102 14.75 13.9531C14.75 13.7891 14.75 13.6016 14.7617 13.4141L14.9727 10.1094C15.0078 9.48828 15.3008 9.06641 15.9336 9.06641H19.25C19.6602 9.06641 19.9297 9.38281 19.9297 9.78125C19.9297 10.2148 19.6719 10.5078 19.25 10.5078H16.4141L16.2266 13.4375H16.2734C16.5898 12.7344 17.2344 12.4062 17.9492 12.4062C19.5078 12.4062 20.3047 13.9297 20.3047 15.5938C20.3047 17.5039 19.2734 19.0859 17.3867 19.0859Z" fill="white"/>
</svg>
