<svg width="30" height="28" viewBox="0 0 30 28" fill="none" xmlns="http://www.w3.org/2000/svg">
<path d="M9.31641 22.3086C9.89062 22.3086 10.3125 21.8633 10.3125 21.2539V18.4648H11.8594C12.4102 18.4648 12.7852 18.1367 12.7852 17.5859C12.7852 17.0703 12.3984 16.707 11.8594 16.707H10.3125V6.64062C10.3125 5.69141 9.60938 5.01172 8.625 5.01172C7.57031 5.01172 6.96094 5.78516 6.41016 6.65234L0.433594 15.8164C0.152344 16.2617 0 16.7305 0 17.1523C0 17.9023 0.492188 18.4648 1.42969 18.4648H8.32031V21.2539C8.32031 21.9805 8.83594 22.3086 9.31641 22.3086ZM8.33203 16.7305H1.95703V16.625L8.22656 7.09766H8.33203V16.7305ZM16.1719 22.3086C16.793 22.3086 17.0977 22.0742 17.3203 21.418L18.832 17.2812H25.7461L27.2578 21.418C27.4805 22.0742 27.7852 22.3086 28.3945 22.3086C29.0156 22.3086 29.4141 21.9336 29.4141 21.3477C29.4141 21.1484 29.3789 20.9609 29.2852 20.7148L23.7891 6.07812C23.5195 5.36328 23.0391 5 22.2891 5C21.5625 5 21.0703 5.35156 20.8125 6.06641L15.3164 20.7266C15.2227 20.9727 15.1875 21.1602 15.1875 21.3594C15.1875 21.9453 15.5625 22.3086 16.1719 22.3086ZM19.4062 15.5L22.2539 7.61328H22.3125L25.1602 15.5H19.4062Z" fill="black" fill-opacity="0.85"/>
</svg>
