<svg width="28" height="29" viewBox="0 0 28 29" fill="none" xmlns="http://www.w3.org/2000/svg">
<g clip-path="url(#clip0_2124_88456)">
<path d="M3 22.7344C3 25.1836 4.21875 26.4141 6.63281 26.4141H19.0781C21.5039 26.4141 22.7109 25.1953 22.7109 22.7344V4.96875C22.7109 2.50781 21.5039 1.28906 19.0781 1.28906H6.63281C4.21875 1.28906 3 2.51953 3 4.96875V22.7344ZM20.8242 4.99219V22.7109C20.8242 23.8828 20.1562 24.5273 18.9844 24.5273H6.73828C5.51953 24.5273 4.88672 23.8711 4.88672 22.7109V4.99219C4.88672 3.84375 5.51953 3.17578 6.73828 3.17578H18.9844C20.1562 3.17578 20.8242 3.83203 20.8242 4.99219Z" fill="black" fill-opacity="0.85"/>
<path d="M8.42578 12.0352H17.3086C17.7188 12.0352 18.0352 11.7188 18.0352 11.3086C18.0352 10.9102 17.7188 10.5938 17.3086 10.5938H8.42578C7.99219 10.5938 7.6875 10.9102 7.6875 11.3086C7.6875 11.7188 7.99219 12.0352 8.42578 12.0352Z" fill="black" fill-opacity="0.85"/>
<path d="M8.42578 7.95703H17.3086C17.7188 7.95703 18.0352 7.62891 18.0352 7.21875C18.0352 6.82031 17.7188 6.51562 17.3086 6.51562H8.42578C7.99219 6.51562 7.6875 6.82031 7.6875 7.21875C7.6875 7.62891 7.99219 7.95703 8.42578 7.95703Z" fill="black" fill-opacity="0.85"/>
<path d="M17.4492 28.0195C21.2344 28.0195 24.3164 24.9375 24.3164 21.1523C24.3164 17.3438 21.2344 14.2734 17.4492 14.2734C13.6641 14.2734 10.5703 17.3672 10.5703 21.1523C10.5703 24.9375 13.6641 28.0195 17.4492 28.0195Z" fill="white"/>
<path d="M17.4492 26.4141C20.3555 26.4141 22.7109 24.0586 22.7109 21.1523C22.7109 18.2227 20.3555 15.8672 17.4492 15.8672C14.543 15.8672 12.1641 18.2461 12.1641 21.1523C12.1641 24.0586 14.543 26.4141 17.4492 26.4141ZM17.4492 24.7383C15.457 24.7383 13.8398 23.1211 13.8398 21.1523C13.8398 19.1836 15.457 17.5547 17.4492 17.5547C19.4062 17.5547 21.0234 19.1836 21.0234 21.1523C21.0234 23.1211 19.418 24.7383 17.4492 24.7383ZM23.8125 28.582C24.3516 28.582 24.7617 28.1602 24.7617 27.5625C24.7617 27.3047 24.6328 27.0469 24.4336 26.8477L21.1523 23.5547L19.6641 24.8906L22.957 28.1953C23.2383 28.4766 23.4961 28.582 23.8125 28.582Z" fill="black" fill-opacity="0.85"/>
</g>
<defs>
<clipPath id="clip0_2124_88456">
<rect width="21.7617" height="28.582" fill="white" transform="translate(3)"/>
</clipPath>
</defs>
</svg>
