<svg width="28" height="28" viewBox="0 0 28 28" fill="none" xmlns="http://www.w3.org/2000/svg">
<path d="M13.9531 25.9062C20.4922 25.9062 25.9062 20.4805 25.9062 13.9531C25.9062 7.41406 20.4805 2 13.9414 2C7.41406 2 2 7.41406 2 13.9531C2 20.4805 7.42578 25.9062 13.9531 25.9062ZM13.9531 23.9141C8.42188 23.9141 4.00391 19.4844 4.00391 13.9531C4.00391 8.42188 8.41016 3.99219 13.9414 3.99219C19.4727 3.99219 23.9141 8.42188 23.9141 13.9531C23.9141 19.4844 19.4844 23.9141 13.9531 23.9141Z" fill="black" fill-opacity="0.85"/>
<path d="M15.4766 19.5312C16.0273 19.5312 16.3438 19.168 16.3438 18.5469V17.1055H17.2461C17.7031 17.1055 18.0195 16.8008 18.0195 16.3438C18.0195 15.8867 17.7148 15.5703 17.2461 15.5703H16.3438V9.60547C16.3438 8.86719 15.7812 8.375 14.9492 8.375C14.1289 8.375 13.6133 8.66797 13.1445 9.37109C11.9375 11.1992 10.4844 13.3555 9.51172 14.9375C9.27734 15.3242 9.19531 15.6055 9.19531 15.957C9.19531 16.6484 9.66406 17.1055 10.4141 17.1055H14.6211V18.5469C14.6211 19.1562 14.9375 19.5312 15.4766 19.5312ZM14.6211 15.5703H10.918V15.5C11.8086 13.9648 13.3086 11.7383 14.5391 9.88672H14.6211V15.5703Z" fill="black" fill-opacity="0.85"/>
</svg>
