<svg width="28" height="28" viewBox="0 0 28 28" fill="none" xmlns="http://www.w3.org/2000/svg">
<path d="M6.67969 24.5977H20.8945C23.3555 24.5977 24.5742 23.3789 24.5742 20.9648V6.65625C24.5742 4.24219 23.3555 3.02344 20.8945 3.02344H6.67969C4.23047 3.02344 3 4.23047 3 6.65625V20.9648C3 23.3906 4.23047 24.5977 6.67969 24.5977ZM6.70312 22.7109C5.53125 22.7109 4.88672 22.0898 4.88672 20.8711V6.75C4.88672 5.53125 5.53125 4.91016 6.70312 4.91016H20.8711C22.0312 4.91016 22.6875 5.53125 22.6875 6.75V20.8711C22.6875 22.0898 22.0312 22.7109 20.8711 22.7109H6.70312Z" fill="black" fill-opacity="0.85"/>
<path d="M10.3711 18.6562C10.8281 18.6562 11.2148 18.2695 11.2148 17.8008V9.85547C11.2148 9.25781 10.8398 8.90625 10.2305 8.90625C9.73828 8.90625 9.33984 9.17578 9.07031 9.38672L7.78125 10.3828C7.57031 10.5469 7.40625 10.7695 7.40625 11.0742C7.40625 11.4375 7.65234 11.6953 8.00391 11.6953C8.19141 11.6953 8.30859 11.6367 8.42578 11.5547L9.50391 10.6875V17.8008C9.50391 18.2695 9.89062 18.6562 10.3711 18.6562ZM17.3672 18.6797C17.8008 18.6797 18.1641 18.4102 18.1641 17.8477V16.6758H18.5742C19.0312 16.6758 19.2422 16.3828 19.2422 15.9844C19.2422 15.6094 19.043 15.3164 18.5742 15.3164H18.1641V10.1719C18.1641 9.36328 17.625 8.90625 16.8633 8.90625C16.043 8.90625 15.6562 9.32812 15.3281 10.0547L13.2305 14.6016C13.0312 15.0586 12.9609 15.3633 12.9609 15.7266C12.9609 16.2891 13.3594 16.6758 13.9219 16.6758H16.5469V17.8477C16.5469 18.4688 16.9922 18.6797 17.3672 18.6797ZM16.582 15.3516H14.4023V15.2695L16.5352 10.3828H16.582V15.3516Z" fill="black" fill-opacity="0.85"/>
</svg>
