<svg width="30" height="28" viewBox="0 0 30 28" fill="none" xmlns="http://www.w3.org/2000/svg">
<path d="M23.1562 23.3672C26.6953 23.3672 29.4609 20.7773 29.4609 17.5547C29.4609 15.0938 28.043 12.9609 25.7578 12C25.7812 6.77344 22.0195 3 17.2266 3C14.0508 3 11.7891 4.69922 10.3828 6.75C7.5 5.90625 4.35938 8.09766 4.30078 11.3789C1.65234 11.8008 0 14.168 0 17.0273C0 20.4727 3.01172 23.3672 7.01953 23.3672H23.1562Z" fill="black" fill-opacity="0.85"/>
<path d="M13.8984 18.7617C13.5117 18.7617 13.1953 18.5977 12.9141 18.2344L10.2891 14.9297C10.1133 14.6953 10.0195 14.4609 10.0195 14.2148C10.0195 13.6641 10.4414 13.2422 10.9688 13.2422C11.3203 13.2422 11.6133 13.4062 11.8359 13.7109L13.8516 16.3477L17.8594 9.65625C18.0469 9.32812 18.3633 9.12891 18.6914 9.12891C19.2422 9.12891 19.6875 9.51562 19.6875 10.0312C19.6875 10.3008 19.5352 10.5703 19.418 10.7578L14.8359 18.2227C14.6133 18.5742 14.2852 18.7617 13.8984 18.7617Z" fill="white"/>
</svg>
