<svg width="28" height="28" viewBox="0 0 28 28" fill="none" xmlns="http://www.w3.org/2000/svg">
<g clip-path="url(#clip0_2124_24783)">
<path d="M9.18359 25.2734H18.1836C22.9297 25.2734 25.4023 22.8125 25.4023 18.0898V9.18359C25.4023 4.46094 22.9297 2 18.1836 2H9.18359C4.46094 2 2 4.46094 2 9.18359V18.0898C2 22.8125 4.46094 25.2734 9.18359 25.2734ZM8.92578 23.3867C5.60938 23.3867 3.88672 21.6523 3.88672 18.3477V8.92578C3.88672 5.60938 5.60938 3.88672 8.92578 3.88672H18.5117C21.793 3.88672 23.5156 5.59766 23.5156 8.85547V18.418C23.5156 21.6758 21.793 23.3867 18.5117 23.3867H8.92578ZM13.6953 19.1797C16.7656 19.1797 19.2383 16.6602 19.2383 13.6367C19.2383 10.5781 16.707 8.11719 13.6953 8.11719C13.1562 8.11719 12.6641 8.16406 12.2305 8.29297V11.4336C12.6641 11.1172 13.1797 10.9414 13.6953 10.9414C15.1367 10.9414 16.3672 12.1836 16.3672 13.6367C16.3672 15.0898 15.1602 16.2734 13.6953 16.2734C12.207 16.2734 11.0352 15.1133 11.0352 13.6367V8.77344C9.27734 9.75781 8.16406 11.5859 8.16406 13.6367C8.16406 16.7188 10.6367 19.1797 13.6953 19.1797ZM13.6953 15.1016C14.4805 15.1016 15.1484 14.4102 15.1484 13.6367C15.1484 12.8867 14.457 12.1953 13.6953 12.1953C12.9336 12.1953 12.2539 12.8516 12.2539 13.6367C12.2539 14.4453 12.9102 15.1016 13.6953 15.1016Z" fill="black" fill-opacity="0.85"/>
</g>
<defs>
<clipPath id="clip0_2124_24783">
<rect width="23.4023" height="23.2852" fill="white" transform="translate(2 2)"/>
</clipPath>
</defs>
</svg>
