<svg width="33" height="28" viewBox="0 0 33 28" fill="none" xmlns="http://www.w3.org/2000/svg">
<path d="M32.6719 14.75C32.6719 9.52344 29.6602 6.26562 24.3398 5.60938C20.4375 5.15234 13.6289 5.01172 9.94922 5C6.76172 5 5.13281 6.73438 5.41406 9.59375L5.76562 13.0273C5.87109 13.9414 5.39062 14.3633 4.40625 14.3633H1.38281C0.574219 14.3633 0 14.9492 0 15.7461V21.3594C0 22.6133 0.960938 23.1172 2.19141 22.8125C3.63281 22.4492 5.16797 22.2734 6.97266 22.2734H24.7734C29.7422 22.2734 32.6719 19.6367 32.6719 14.75ZM30.7852 14.75C30.7852 18.4062 28.5352 20.3867 24.8086 20.3867H11.4258C9.28125 20.3867 8.4375 19.6719 8.21484 17.7031L7.27734 9.38281C7.10156 7.70703 7.91016 6.88672 9.94922 6.88672C13.6289 6.88672 20.332 7.07422 24.1758 7.50781C28.4297 8 30.7852 10.6133 30.7852 14.75Z" fill="black" fill-opacity="0.85"/>
<path d="M30.7851 14.75C30.7851 18.4062 28.5351 20.3867 24.8085 20.3867H11.4257C9.28119 20.3867 8.43744 19.6719 8.21478 17.7031L7.27728 9.38281C7.1015 7.70703 7.9101 6.88672 9.94916 6.88672C13.6288 6.88672 20.3319 7.07422 24.1757 7.50781C28.4296 8 30.7851 10.6133 30.7851 14.75Z" fill="white"/>
</svg>
