<svg width="28" height="28" viewBox="0 0 28 28" fill="none" xmlns="http://www.w3.org/2000/svg">
<g clip-path="url(#clip0_2124_62626)">
<path d="M6.67969 24.5977H20.8945C23.3555 24.5977 24.5742 23.3789 24.5742 20.9648V6.65625C24.5742 4.24219 23.3555 3.02344 20.8945 3.02344H6.67969C4.23047 3.02344 3 4.23047 3 6.65625V20.9648C3 23.3906 4.23047 24.5977 6.67969 24.5977ZM6.70312 22.7109C5.53125 22.7109 4.88672 22.0898 4.88672 20.8711V6.75C4.88672 5.53125 5.53125 4.91016 6.70312 4.91016H20.8711C22.0312 4.91016 22.6875 5.53125 22.6875 6.75V20.8711C22.6875 22.0898 22.0312 22.7109 20.8711 22.7109H6.70312Z" fill="black" fill-opacity="0.85"/>
<path d="M9.79688 18.75C10.0664 18.75 10.3008 18.6445 10.4766 18.457L13.793 15.1289L17.1328 18.457C17.3086 18.6328 17.5312 18.75 17.8008 18.75C18.3281 18.75 18.7383 18.3281 18.7383 17.8008C18.7383 17.5312 18.6445 17.3203 18.457 17.1328L15.1289 13.8047L18.4688 10.4531C18.668 10.2539 18.75 10.0547 18.75 9.79688C18.75 9.28124 18.3398 8.85938 17.8125 8.85938C17.5664 8.85938 17.3672 8.95312 17.168 9.15234L13.793 12.4922L10.4531 9.16406C10.2773 8.97656 10.0664 8.88281 9.79688 8.88281C9.28124 8.88281 8.85938 9.29297 8.85938 9.80859C8.85938 10.0664 8.96484 10.2891 9.14062 10.4648L12.4687 13.8047L9.14062 17.1445C8.96484 17.3203 8.85938 17.543 8.85938 17.8008C8.85938 18.3281 9.28124 18.75 9.79688 18.75Z" fill="black" fill-opacity="0.85"/>
</g>
<defs>
<clipPath id="clip0_2124_62626">
<rect width="21.5742" height="21.5977" fill="white" transform="translate(3 3)"/>
</clipPath>
</defs>
</svg>
