<svg width="28" height="28" viewBox="0 0 28 28" fill="none" xmlns="http://www.w3.org/2000/svg">
<path d="M27.3279 21.8398C28.2888 18.3359 25.7342 16.8125 19.4646 16.8125C16.5115 16.8125 13.5349 17.0586 10.9685 17.5039L11.5193 18.1953C11.8943 13.2148 10.4529 9.05469 7.72243 7.12109L7.94509 8.25781C9.0115 4.61328 6.77321 2 4.01931 2C1.74587 2 0.52712 3.64062 1.17165 6.24219L5.5779 24.125C6.0115 25.8828 7.17165 26.8203 8.89431 26.8203H22.8162C25.2302 26.8203 26.2967 25.6602 27.3279 21.8398ZM25.5232 21.3359C24.6677 24.5117 24.1287 24.9336 22.8162 24.9336H8.89431C8.12087 24.9336 7.61696 24.4883 7.41775 23.668L2.97634 5.75C2.69509 4.60156 3.16384 3.88672 4.03103 3.88672C5.36696 3.88672 6.58571 5.10547 6.25759 7.30859C6.1404 8.10547 6.22243 8.33984 6.66775 8.70312C8.73025 10.2383 9.8904 13.7891 9.79665 18.1953C9.79665 18.9102 10.242 19.3672 10.9568 19.3555C12.2927 19.2617 15.2927 18.6992 19.4646 18.6992C24.6092 18.6992 26.0271 19.4609 25.5232 21.3359Z" fill="black" fill-opacity="0.85"/>
<path d="M22.5937 13.2266C23.1445 13.2266 23.4609 12.875 23.4609 12.2656V3.99219C23.4609 3.35938 23.1328 3.01953 22.5469 3.01953C22.1367 3.01953 21.8672 3.125 21.3984 3.45312L19.3945 4.80078C19.1484 4.97656 19.0781 5.14062 19.0781 5.39844C19.0781 5.73828 19.3476 6.03125 19.6758 6.03125C19.8398 6.03125 19.957 6.00781 20.2265 5.82031L21.6328 4.89453H21.75V12.2656C21.75 12.8633 22.0781 13.2266 22.5937 13.2266Z" fill="black" fill-opacity="0.85"/>
</svg>
