<svg width="28" height="28" viewBox="0 0 28 28" fill="none" xmlns="http://www.w3.org/2000/svg">
<path d="M27.2398 11.771C27.2632 11.103 26.7593 10.6343 26.1265 10.6577L17.6773 10.7397C17.3843 10.7397 17.0913 10.8686 16.9038 11.0562C16.4585 11.4898 16.4702 12.0991 16.9038 12.521C17.1148 12.7319 17.3491 12.8257 17.6187 12.8257L21.1343 12.7671L24.0054 12.5679L22.0132 14.396L10.9507 25.4585C10.5171 25.8921 10.5054 26.5132 10.9507 26.9468C11.3843 27.3804 11.9937 27.3804 12.4273 26.9468L23.5015 15.8843L25.3296 13.8804L25.1304 16.7515L25.0718 20.2671C25.0718 20.5484 25.1655 20.7827 25.3765 20.9937C25.7984 21.4273 26.396 21.439 26.8413 20.9937C27.0171 20.8062 27.1577 20.5132 27.1577 20.2085L27.2398 11.771Z" fill="black" fill-opacity="0.85"/>
<path d="M1.00079 16.5054C0.977348 17.1499 1.48125 17.6421 2.11407 17.6187L10.5516 17.5249C10.8562 17.5249 11.1492 17.396 11.3484 17.2202C11.782 16.7749 11.7703 16.1773 11.3484 15.7554C11.1375 15.5327 10.8914 15.4507 10.6102 15.4507L7.10625 15.5093L4.23516 15.7085L6.22735 13.8804L17.2898 2.80617C17.7234 2.37257 17.7352 1.75148 17.2898 1.3296C16.868 0.884292 16.2352 0.896011 15.8016 1.3296L4.73907 12.3921L2.91094 14.3843L3.11016 11.5015L3.16875 7.99757C3.16875 7.72804 3.075 7.48195 2.86407 7.27101C2.44219 6.84914 1.83282 6.83742 1.39922 7.27101C1.22344 7.45851 1.08282 7.7632 1.08282 8.05617L1.00079 16.5054Z" fill="black" fill-opacity="0.85"/>
</svg>
