<svg width="30" height="28" viewBox="0 0 30 28" fill="none" xmlns="http://www.w3.org/2000/svg">
<path d="M0.9375 24.7576C1.20703 24.7576 1.47656 24.6756 1.69922 24.4764C3.16406 23.2108 5.13281 22.5545 7.07812 22.5545C8.83594 22.5545 10.5234 23.0936 11.9766 24.3006C11.0625 22.6483 11.3555 20.6912 12.7266 19.2967V6.60534C12.7266 6.30066 12.7031 6.23034 12.4805 5.91394C11.332 4.26159 9.08203 3.2655 6.62109 3.2655C4.03125 3.2655 1.34766 4.46081 0.140625 6.53503C0.0117188 6.76941 0 6.92175 0 7.35534V23.8905C0 24.4295 0.351562 24.7576 0.9375 24.7576ZM14.2617 18.0428C15.7148 16.9998 17.4727 15.9451 18.5742 14.8319C19.6758 13.7537 18.2695 11.0702 20.8828 8.57409C22.5117 7.02722 24.9492 6.6405 26.9883 7.47253C26.9883 6.92175 26.9883 6.75769 26.8594 6.53503C25.6406 4.46081 22.9688 3.2655 20.3789 3.2655C17.9062 3.2655 15.668 4.26159 14.5195 5.91394C14.2852 6.23034 14.2617 6.30066 14.2617 6.60534V18.0428ZM20.8242 22.6131C22.4648 22.7889 24.0703 23.4217 25.3008 24.4764C25.5234 24.6756 25.7812 24.7576 26.0625 24.7576C26.6484 24.7576 26.9883 24.4295 26.9883 23.8905V18.3123C25.4297 18.9569 24.293 18.3944 23.4844 19.203C22.7109 19.9881 21.6914 21.3709 20.8242 22.6131Z" fill="black" fill-opacity="0.85"/>
<path d="M13.8748 24.207C15.0115 25.3437 16.7107 25.3906 17.824 24.0546C18.6443 23.0702 20.7068 19.7187 22.4764 17.9492C23.4607 16.9648 24.785 16.8476 25.5232 16.8476C28.2889 16.8476 29.367 14.621 29.0271 13.0859L25.5232 14.0117L25.1248 12.582C24.9842 12.0546 25.2068 11.6093 25.8045 11.4453L28.3943 10.7539C28.3006 10.5195 28.0779 10.1796 27.7967 9.88667C26.2029 8.26949 23.5662 8.23433 21.9959 9.73433C19.7107 11.9023 21.4568 14.2226 19.9451 15.7343C18.0467 17.621 15.4217 19.0038 14.0271 20.246C12.7146 21.4179 12.7264 23.0585 13.8748 24.207ZM15.8201 23.1054C15.3514 23.1054 14.9646 22.7187 14.9646 22.2499C14.9646 21.7812 15.3514 21.4062 15.8201 21.4062C16.3006 21.4062 16.6756 21.7812 16.6756 22.2499C16.6756 22.7187 16.3006 23.1054 15.8201 23.1054Z" fill="black" fill-opacity="0.85"/>
</svg>
