<svg width="28" height="28" viewBox="0 0 28 28" fill="none" xmlns="http://www.w3.org/2000/svg">
<g clip-path="url(#clip0_2124_89160)">
<path d="M4.67969 22.1055H22.4336C24.8945 22.1055 26.1133 20.8867 26.1133 18.4727V9.95312C26.1133 7.53906 24.8945 6.32031 22.4336 6.32031H4.67969C2.23047 6.32031 1 7.52734 1 9.95312V18.4727C1 20.8984 2.23047 22.1055 4.67969 22.1055ZM5.04297 7.09375H6.92969V4.96094C6.92969 4.39844 6.54297 4.02344 5.98047 4.02344C5.41797 4.02344 5.04297 4.39844 5.04297 4.96094V7.09375ZM8.82812 7.09375H10.7148V4.96094C10.7148 4.39844 10.3281 4.02344 9.76562 4.02344C9.20312 4.02344 8.82812 4.39844 8.82812 4.96094V7.09375ZM12.6133 7.09375H14.5V4.96094C14.5 4.39844 14.1133 4.02344 13.5508 4.02344C12.9883 4.02344 12.6133 4.39844 12.6133 4.96094V7.09375ZM16.3984 7.09375H18.2852V4.96094C18.2852 4.39844 17.9102 4.02344 17.3477 4.02344C16.7852 4.02344 16.3984 4.39844 16.3984 4.96094V7.09375ZM20.1836 7.09375H22.0703V4.96094C22.0703 4.39844 21.6953 4.02344 21.1328 4.02344C20.5703 4.02344 20.1836 4.39844 20.1836 4.96094V7.09375ZM5.04297 21.3555V23.4531C5.04297 24.0156 5.41797 24.4023 5.98047 24.4023C6.54297 24.4023 6.92969 24.0156 6.92969 23.4531V21.3555H5.04297ZM8.82812 21.3555V23.4531C8.82812 24.0156 9.20312 24.4023 9.76562 24.4023C10.3281 24.4023 10.7148 24.0156 10.7148 23.4531V21.3555H8.82812ZM12.6133 21.3555V23.4531C12.6133 24.0156 12.9883 24.4023 13.5508 24.4023C14.1133 24.4023 14.5 24.0156 14.5 23.4531V21.3555H12.6133ZM16.3984 21.3555V23.4531C16.3984 24.0156 16.7852 24.4023 17.3477 24.4023C17.9102 24.4023 18.2852 24.0156 18.2852 23.4531V21.3555H16.3984ZM20.1836 21.3555V23.4531C20.1836 24.0156 20.5703 24.4023 21.1328 24.4023C21.6953 24.4023 22.0703 24.0156 22.0703 23.4531V21.3555H20.1836Z" fill="black" fill-opacity="0.85"/>
</g>
<defs>
<clipPath id="clip0_2124_89160">
<rect width="25.1133" height="20.4023" fill="white" transform="translate(1 4)"/>
</clipPath>
</defs>
</svg>
