<svg width="28" height="28" viewBox="0 0 28 28" fill="none" xmlns="http://www.w3.org/2000/svg">
<path d="M13.9531 25.9062C20.4922 25.9062 25.9062 20.4805 25.9062 13.9531C25.9062 7.41406 20.4805 2 13.9414 2C7.41406 2 2 7.41406 2 13.9531C2 20.4805 7.42578 25.9062 13.9531 25.9062ZM13.9531 23.9141C8.42188 23.9141 4.00391 19.4844 4.00391 13.9531C4.00391 8.42188 8.41016 3.99219 13.9414 3.99219C19.4727 3.99219 23.9141 8.42188 23.9141 13.9531C23.9141 19.4844 19.4844 23.9141 13.9531 23.9141Z" fill="black" fill-opacity="0.85"/>
<path d="M14.1875 19.6133C16.1797 19.6133 17.7617 18.7695 18.3711 17.0586C18.4414 16.8711 18.4883 16.6719 18.4883 16.4609C18.4883 16.0391 18.1953 15.7461 17.7734 15.7461C17.375 15.7461 17.1406 15.9688 17.0117 16.3672C16.6836 17.5625 15.5352 18.207 14.2344 18.207C12.207 18.207 11.1055 16.2617 11.1055 13.9766C11.1055 11.6914 12.2305 9.76953 14.2344 9.76953C15.4414 9.76953 16.5664 10.4375 16.9297 11.6445C17.0703 12.0898 17.2695 12.2539 17.6797 12.2539C18.125 12.2539 18.4062 11.9727 18.4062 11.5391C18.4062 11.3398 18.3594 11.1406 18.2891 10.9531C17.7148 9.37109 16.0977 8.36328 14.1875 8.36328C11.3633 8.36328 9.53516 10.6367 9.53516 13.9766C9.53516 17.2109 11.2109 19.6133 14.1875 19.6133ZM8.60938 13.332H14.457C14.7852 13.332 15.0312 13.0742 15.0312 12.7578C15.0312 12.4062 14.7852 12.1719 14.457 12.1719H8.60938C8.28125 12.1719 8.03516 12.4062 8.03516 12.7578C8.03516 13.0742 8.28125 13.332 8.60938 13.332ZM8.60938 15.7109H14.457C14.7852 15.7109 15.0312 15.4531 15.0312 15.125C15.0312 14.7852 14.7852 14.5508 14.457 14.5508H8.60938C8.28125 14.5508 8.03516 14.7852 8.03516 15.125C8.03516 15.4531 8.28125 15.7109 8.60938 15.7109Z" fill="black" fill-opacity="0.85"/>
</svg>
