<svg width="28" height="28" viewBox="0 0 28 28" fill="none" xmlns="http://www.w3.org/2000/svg">
<path d="M6.67969 24.5977H20.8945C23.3555 24.5977 24.5742 23.3789 24.5742 20.9648V6.65625C24.5742 4.24219 23.3555 3.02344 20.8945 3.02344H6.67969C4.23047 3.02344 3 4.23047 3 6.65625V20.9648C3 23.3906 4.23047 24.5977 6.67969 24.5977ZM6.70312 22.7109C5.53125 22.7109 4.88672 22.0898 4.88672 20.8711V6.75C4.88672 5.53125 5.53125 4.91016 6.70312 4.91016H20.8711C22.0312 4.91016 22.6875 5.53125 22.6875 6.75V20.8711C22.6875 22.0898 22.0312 22.7109 20.8711 22.7109H6.70312Z" fill="black" fill-opacity="0.85"/>
<path d="M9.9375 18.7734C12.2695 18.7734 12.9727 16.1484 12.9727 13.793C12.9727 11.4375 12.2695 8.8125 9.9375 8.8125C7.60547 8.8125 6.90234 11.4375 6.90234 13.793C6.90234 16.1484 7.60547 18.7734 9.9375 18.7734ZM9.9375 17.3789C8.97656 17.3789 8.61328 15.8203 8.61328 13.793C8.61328 11.7539 8.97656 10.1953 9.9375 10.1953C10.8984 10.1953 11.2617 11.7539 11.2617 13.793C11.2617 15.8203 10.8984 17.3789 9.9375 17.3789ZM17.4258 18.7734C19.207 18.7734 20.2383 17.2734 20.2383 15.4336C20.2383 13.8516 19.4766 12.3516 17.918 12.3516C16.9688 12.3516 16.2539 12.9844 15.9844 13.9922H15.9375C15.9375 13.9453 15.9375 13.8984 15.9375 13.8633C15.9375 12.5625 16.1016 10.207 17.4023 10.207C17.9297 10.207 18.293 10.582 18.4922 11.0742C18.6562 11.4375 18.8789 11.6016 19.2539 11.6016C19.7344 11.6016 19.9336 11.2852 19.9336 10.8984C19.9336 10.7695 19.9102 10.6289 19.875 10.4766C19.6289 9.46875 18.6094 8.83594 17.4375 8.83594C15.0352 8.83594 14.332 11.5312 14.332 13.9102C14.332 16.125 15.0469 18.7734 17.4258 18.7734ZM17.4023 17.4023C16.5117 17.4023 16.1602 16.3008 16.1602 15.457C16.1602 14.6016 16.5469 13.6289 17.3906 13.6289C18.2578 13.6289 18.6211 14.6367 18.5977 15.5039C18.5977 16.3594 18.2109 17.4023 17.4023 17.4023Z" fill="black" fill-opacity="0.85"/>
</svg>
