<svg width="28" height="28" viewBox="0 0 28 28" fill="none" xmlns="http://www.w3.org/2000/svg">
<path d="M13.9531 25.918C20.4922 25.918 25.9062 20.5039 25.9062 13.9648C25.9062 7.4375 20.4805 2.01172 13.9414 2.01172C7.41406 2.01172 2 7.4375 2 13.9648C2 20.5039 7.42578 25.918 13.9531 25.918Z" fill="black" fill-opacity="0.85"/>
<path d="M8.25781 17.2109C6.82812 17.2109 5.86719 16.2852 5.86719 15.0078C5.86719 13.9883 6.51172 13.1914 7.41406 12.875C7.625 11.0586 9.17188 9.62891 11 9.62891C12.3945 9.62891 13.543 10.3906 14.1875 11.5977C15.875 11.6328 17.1289 12.8281 17.1289 14.3867C17.1289 15.9805 15.8867 17.2109 14.2578 17.2109H8.25781ZM13.0859 9.14843L12.2305 8.28124C12.0312 8.05858 12.0312 7.6953 12.2305 7.49608C12.4531 7.30858 12.793 7.29688 13.0156 7.50781L13.8828 8.36327C14.0938 8.57421 14.0703 8.92578 13.8828 9.13672C13.6719 9.33594 13.3086 9.35938 13.0859 9.14843ZM16.3438 8.10547C16.0508 8.10547 15.793 7.84765 15.793 7.55468V6.34766C15.793 6.04297 16.0508 5.79688 16.3438 5.79688C16.6602 5.79688 16.9062 6.04297 16.9062 6.34766V7.55468C16.9062 7.84765 16.6602 8.10547 16.3438 8.10547ZM18.8281 9.13672C18.6406 8.92578 18.6172 8.56249 18.8281 8.36327L19.6953 7.50781C19.918 7.28516 20.2578 7.30859 20.4688 7.50781C20.668 7.70703 20.6797 8.0703 20.4688 8.28124L19.625 9.14843C19.4141 9.35938 19.0391 9.33594 18.8281 9.13672ZM20.4102 12.1602C20.1289 12.1602 19.8711 11.9141 19.8711 11.6211C19.8711 11.3047 20.1289 11.0586 20.4102 11.0586H21.6055C21.9219 11.0586 22.168 11.3047 22.168 11.6211C22.168 11.9141 21.9219 12.1602 21.6055 12.1602H20.4102ZM19.6953 15.7461L18.8281 14.8906C18.6172 14.6914 18.6406 14.3164 18.8281 14.1055C19.0508 13.9062 19.4141 13.9062 19.625 14.1055L20.4688 14.9492C20.6797 15.1602 20.668 15.5234 20.4688 15.7344C20.2578 15.9336 19.918 15.9688 19.6953 15.7461ZM19.1797 11.6211C19.1797 12.5586 18.7109 13.4141 17.9375 13.9648C17.7617 12.2773 16.4258 11.0234 14.6914 10.8008C14.4922 10.5078 14.293 10.25 14.0352 10.0156C14.5273 9.27734 15.3945 8.79687 16.3438 8.79687C17.9258 8.79687 19.1797 10.0391 19.1797 11.6211ZM9.79297 19.8945L10.6016 18.043C10.6602 17.9141 10.7305 17.8672 10.918 17.8672H12.2305C12.3711 17.8672 12.4297 17.9727 12.3594 18.1133L11.7734 19.2148H13.0039C13.1797 19.2148 13.2383 19.3789 13.1094 19.5312L10.4258 22.25C10.3086 22.3672 10.1328 22.2734 10.1914 22.1211L11 20.1523H9.95703C9.79297 20.1523 9.73438 20.0469 9.79297 19.8945Z" fill="white"/>
</svg>
