<svg width="31" height="28" viewBox="0 0 31 28" fill="none" xmlns="http://www.w3.org/2000/svg">
<path d="M3.15234 19.5273C3.15234 19.9727 3.39844 20.2188 3.83203 20.2188H27.1172C27.5391 20.2188 27.7969 19.9727 27.7969 19.5273V7.83204C27.7969 7.39845 27.5391 7.14062 27.1172 7.14062H3.83203C3.39844 7.14062 3.15234 7.39845 3.15234 7.83204V19.5273ZM4.33594 18.7656V8.59376C4.33594 8.41797 4.41797 8.32423 4.59375 8.32423H26.3438C26.5195 8.32423 26.6133 8.41797 26.6133 8.59376V18.7656C26.6133 18.9414 26.5195 19.0352 26.3438 19.0352H4.59375C4.41797 19.0352 4.33594 18.9414 4.33594 18.7656ZM15.4219 20.2188C17.9531 20.2188 19.9688 17.6758 19.9688 13.668C19.9688 9.67188 17.9531 7.14062 15.4219 7.14062C12.9609 7.14062 10.9805 9.67188 10.9805 13.668C10.9805 17.6758 12.9609 20.2188 15.4219 20.2188ZM15.4219 18.8359C13.7578 18.8359 12.3398 16.8555 12.3398 13.668C12.3398 10.4922 13.7578 8.52344 15.4219 8.52344C17.1562 8.52344 18.6211 10.4922 18.6211 13.668C18.6211 16.8555 17.1562 18.8359 15.4219 18.8359Z" fill="black" fill-opacity="0.85"/>
<path d="M0 22.4336C0 22.9961 0.375 23.3711 0.9375 23.3711H30.0117C30.5742 23.3711 30.9375 22.9961 30.9375 22.4336V4.92578C30.9375 4.36328 30.5742 4 30.0117 4H0.9375C0.375 4 0 4.36328 0 4.92578V22.4336ZM1.88672 21.1445V6.22656C1.88672 5.96875 1.98047 5.88672 2.22656 5.88672H28.7109C28.9688 5.88672 29.0508 5.96875 29.0508 6.22656V21.1445C29.0508 21.3906 28.9688 21.4844 28.7109 21.4844H2.22656C1.98047 21.4844 1.88672 21.3906 1.88672 21.1445Z" fill="black" fill-opacity="0.85"/>
</svg>
