<svg width="28" height="28" viewBox="0 0 28 28" fill="none" xmlns="http://www.w3.org/2000/svg">
<g clip-path="url(#clip0_2124_88440)">
<path d="M7.63281 26.125H20.0781C22.5039 26.125 23.7109 24.8945 23.7109 22.457V11.8164H15.2266C13.7266 11.8164 13.0117 11.1016 13.0117 9.60156V1H7.63281C5.21875 1 4 2.24219 4 4.67969V22.457C4 24.9062 5.20703 26.125 7.63281 26.125ZM15.2617 10.2109H23.5703C23.5 9.73047 23.1602 9.26172 22.5977 8.6875L16.1406 2.11328C15.5898 1.55078 15.1094 1.21094 14.6172 1.12891V9.57812C14.6172 10 14.8281 10.2109 15.2617 10.2109Z" fill="black" fill-opacity="0.85"/>
<path d="M13.8555 13.9727C14.3242 13.9727 14.7227 14.3477 14.7227 14.8047V18.9531L14.6406 20.793L15.625 19.7969L16.6445 18.7539C16.8086 18.5898 17.0312 18.4961 17.2539 18.4961C17.7109 18.4961 18.0508 18.8242 18.0508 19.2695C18.0508 19.5273 17.9453 19.7266 17.7695 19.8789L14.4883 22.9023C14.2539 23.1133 14.0664 23.1953 13.8555 23.1953C13.6445 23.1953 13.457 23.1133 13.2227 22.9023L9.94141 19.8789C9.76562 19.7266 9.66016 19.5273 9.66016 19.2695C9.66016 18.8242 9.98828 18.4961 10.457 18.4961C10.668 18.4961 10.9023 18.5898 11.0664 18.7539L12.0859 19.7969L13.0703 20.793L13 18.9531V14.8047C13 14.3477 13.3867 13.9727 13.8555 13.9727Z" fill="white"/>
</g>
<defs>
<clipPath id="clip0_2124_88440">
<rect width="19.7109" height="25.1367" fill="white" transform="translate(4 1)"/>
</clipPath>
</defs>
</svg>
