<svg width="28" height="28" viewBox="0 0 28 28" fill="none" xmlns="http://www.w3.org/2000/svg">
<path d="M6.67969 24.5977H20.8945C23.3555 24.5977 24.5742 23.3789 24.5742 20.9648V6.65625C24.5742 4.24219 23.3555 3.02344 20.8945 3.02344H6.67969C4.23047 3.02344 3 4.23047 3 6.65625V20.9648C3 23.3906 4.23047 24.5977 6.67969 24.5977ZM6.70312 22.7109C5.53125 22.7109 4.88672 22.0898 4.88672 20.8711V6.75C4.88672 5.53125 5.53125 4.91016 6.70312 4.91016H20.8711C22.0312 4.91016 22.6875 5.53125 22.6875 6.75V20.8711C22.6875 22.0898 22.0312 22.7109 20.8711 22.7109H6.70312Z" fill="black" fill-opacity="0.85"/>
<path d="M10.2305 18.7383C11.918 18.7383 13.207 17.6836 13.207 15.9258C13.207 14.4727 12.3398 13.7578 11.3437 13.6523V13.6172C12.4102 13.3359 12.9258 12.3867 12.9258 11.4023C12.9258 9.78516 11.7187 8.85938 10.1836 8.85938C8.97656 8.85938 7.93359 9.53906 7.59375 10.582C7.53516 10.8047 7.5 11.0156 7.5 11.2148C7.5 11.6016 7.75781 11.9062 8.22656 11.9062C8.625 11.9062 8.85938 11.7539 8.97656 11.3437C9.15234 10.6523 9.52734 10.2187 10.1836 10.2187C10.9687 10.2187 11.332 10.8164 11.332 11.5898C11.332 12.4453 10.8516 13.0664 9.97266 13.0664H9.69141C9.30469 13.0664 9.04688 13.3125 9.04688 13.6992C9.04688 14.0859 9.30469 14.3086 9.69141 14.3086H9.99609C10.9922 14.3086 11.5312 14.8594 11.5312 15.8789C11.5312 16.6875 11.1094 17.3789 10.2422 17.3789C9.38672 17.3789 9 16.8047 8.85938 16.2656C8.74219 15.8906 8.49609 15.6914 8.12109 15.6914C7.66406 15.6914 7.34766 15.9727 7.34766 16.4297C7.34766 16.6406 7.38281 16.8516 7.44141 17.0391C7.78125 18.1289 8.97656 18.7383 10.2305 18.7383ZM17.3438 18.7734C19.1719 18.7734 20.1797 17.2383 20.1797 15.3867C20.1797 13.7695 19.4062 12.293 17.8945 12.293C17.2031 12.293 16.5703 12.6094 16.2656 13.2891H16.207L16.4062 10.4414H19.1484C19.5586 10.4414 19.8047 10.1602 19.8047 9.75C19.8047 9.36328 19.5469 9.05859 19.1484 9.05859H15.9375C15.3164 9.05859 15.0469 9.45703 15 10.0664L14.8125 13.2773C14.8008 13.4531 14.8008 13.6406 14.8008 13.793C14.8008 14.2383 15.0234 14.6367 15.5625 14.6367C15.8789 14.6367 16.0664 14.5078 16.3125 14.1914C16.582 13.8047 16.875 13.5234 17.3438 13.5234C18.2109 13.5234 18.5391 14.5664 18.5391 15.4336C18.5391 16.4062 18.1992 17.4023 17.3203 17.4023C16.6758 17.4023 16.3008 16.9336 16.0898 16.2891C15.9492 15.9141 15.6914 15.7383 15.375 15.7383C14.9414 15.7383 14.6719 16.0078 14.6719 16.4414C14.6719 16.7109 14.7422 16.9688 14.8359 17.2031C15.2461 18.1523 16.2891 18.7734 17.3438 18.7734Z" fill="black" fill-opacity="0.85"/>
</svg>
