<svg width="28" height="28" viewBox="0 0 28 28" fill="none" xmlns="http://www.w3.org/2000/svg">
<g clip-path="url(#clip0_2124_24836)">
<path d="M10.0586 27.457H17.3242C19.1992 27.457 20.3828 26.3086 20.3828 24.5391V2.90625C20.3828 1.13672 19.1992 0 17.3242 0H10.0586C8.18359 0 7 1.13672 7 2.90625V24.5391C7 26.3086 8.18359 27.457 10.0586 27.457ZM14.4297 4.23047C14.0078 4.23047 13.668 3.90234 13.668 3.48047C13.668 3.05859 14.0078 2.71875 14.4297 2.71875H17.0078C17.4297 2.71875 17.7578 3.05859 17.7578 3.48047C17.7578 3.90234 17.4297 4.23047 17.0078 4.23047H14.4297ZM10.7383 8.73047C10.0938 8.73047 9.56641 8.21484 9.56641 7.54688C9.56641 6.91406 10.0938 6.375 10.7383 6.375C11.3945 6.375 11.9219 6.91406 11.9219 7.54688C11.9219 8.21484 11.3945 8.73047 10.7383 8.73047ZM13.6914 8.73047C13.0352 8.73047 12.5195 8.21484 12.5195 7.54688C12.5195 6.91406 13.0352 6.375 13.6914 6.375C14.3477 6.375 14.8633 6.91406 14.8633 7.54688C14.8633 8.21484 14.3477 8.73047 13.6914 8.73047ZM16.6562 8.73047C16 8.73047 15.4844 8.21484 15.4844 7.54688C15.4844 6.91406 16 6.375 16.6562 6.375C17.3008 6.375 17.8281 6.91406 17.8281 7.54688C17.8281 8.21484 17.3008 8.73047 16.6562 8.73047ZM10.7383 12.1055C10.0938 12.1055 9.56641 11.5898 9.56641 10.9336C9.56641 10.3008 10.0938 9.76172 10.7383 9.76172C11.3945 9.76172 11.9219 10.3008 11.9219 10.9336C11.9219 11.5898 11.3945 12.1055 10.7383 12.1055ZM13.6914 12.1055C13.0352 12.1055 12.5195 11.5898 12.5195 10.9336C12.5195 10.3008 13.0352 9.76172 13.6914 9.76172C14.3477 9.76172 14.8633 10.3008 14.8633 10.9336C14.8633 11.5898 14.3477 12.1055 13.6914 12.1055ZM16.6562 12.1055C16 12.1055 15.4844 11.5898 15.4844 10.9336C15.4844 10.3008 16 9.76172 16.6562 9.76172C17.3008 9.76172 17.8281 10.3008 17.8281 10.9336C17.8281 11.5898 17.3008 12.1055 16.6562 12.1055ZM10.7383 15.4805C10.0938 15.4805 9.56641 14.9766 9.56641 14.3086C9.56641 13.6641 10.0938 13.1367 10.7383 13.1367C11.3945 13.1367 11.9219 13.6641 11.9219 14.3086C11.9219 14.9766 11.3945 15.4805 10.7383 15.4805ZM13.6914 15.4805C13.0352 15.4805 12.5195 14.9531 12.5195 14.3086C12.5195 13.6523 13.0352 13.1367 13.6914 13.1367C14.3477 13.1367 14.8633 13.6523 14.8633 14.3086C14.8633 14.9531 14.3477 15.4805 13.6914 15.4805ZM16.6562 15.4805C16 15.4805 15.4844 14.9531 15.4844 14.3086C15.4844 13.6523 16 13.1367 16.6562 13.1367C17.3008 13.1367 17.8281 13.6523 17.8281 14.3086C17.8281 14.9531 17.3008 15.4805 16.6562 15.4805ZM10.4805 23.5078C9.97656 23.5078 9.56641 23.0977 9.56641 22.5938V18.3164C9.56641 17.8125 9.97656 17.4141 10.4805 17.4141C10.9844 17.4141 11.3828 17.8125 11.3828 18.3164V22.5938C11.3828 23.0977 10.9844 23.5078 10.4805 23.5078ZM13.0938 20.0039C12.707 20.0039 12.4727 19.7578 12.4727 19.3711V18.5859C12.4727 18.1875 12.707 17.9414 13.0938 17.9414H14.2773C14.6875 17.9414 14.9102 18.1875 14.9102 18.5859V19.3711C14.9102 19.7578 14.6875 20.0039 14.2773 20.0039H13.0938ZM13.0938 22.957C12.707 22.957 12.4727 22.7344 12.4727 22.3359V21.5508C12.4727 21.1523 12.707 20.918 13.0938 20.918H14.2773C14.6875 20.918 14.9102 21.1523 14.9102 21.5508V22.3359C14.9102 22.7344 14.6875 22.957 14.2773 22.957H13.0938ZM16.9141 23.5078C16.4102 23.5078 16.0117 23.0977 16.0117 22.5938V18.3164C16.0117 17.8125 16.4102 17.4141 16.9141 17.4141C17.418 17.4141 17.8281 17.8125 17.8281 18.3164V22.5938C17.8281 23.0977 17.418 23.5078 16.9141 23.5078Z" fill="black" fill-opacity="0.85"/>
</g>
<defs>
<clipPath id="clip0_2124_24836">
<rect width="13.3828" height="27.457" fill="white" transform="translate(7)"/>
</clipPath>
</defs>
</svg>
