<svg width="28" height="28" viewBox="0 0 28 28" fill="none" xmlns="http://www.w3.org/2000/svg">
<g clip-path="url(#clip0_2124_24720)">
<path d="M6 18.2852C6 20.1016 6.71484 21.4375 8.03906 22.1641C8.68359 22.5039 9.05859 22.9375 9.29297 23.7227L9.66797 24.9766C9.89062 25.7266 10.418 26.0898 11.2031 26.0898H16.6172C17.4258 26.0898 17.918 25.7383 18.1406 24.9766L18.5273 23.7227C18.7617 22.9375 19.1367 22.5039 19.7812 22.1641C21.1055 21.4375 21.8203 20.1016 21.8203 18.2852V8.80469C21.8203 6.98828 21.1055 5.66406 19.7812 4.92578C19.1367 4.58594 18.7617 4.15234 18.5273 3.37891L18.1406 2.11328C17.9414 1.375 17.4141 1 16.6172 1H11.2031C10.418 1 9.89062 1.36328 9.66797 2.11328L9.29297 3.37891C9.07031 4.14062 8.69531 4.59766 8.03906 4.92578C6.72656 5.62891 6 6.96484 6 8.80469V18.2852ZM7.71094 18.0391V9.0625C7.71094 7.31641 8.73047 6.26172 10.4414 6.26172H17.3789C19.0898 6.26172 20.1094 7.31641 20.1094 9.0625V18.0391C20.1094 19.7734 19.0898 20.8281 17.3789 20.8281H10.4414C8.73047 20.8281 7.71094 19.7734 7.71094 18.0391ZM21.5625 12.7188H21.9844C22.5938 12.7188 22.9922 12.3086 22.9922 11.6406V10.0586C22.9922 9.39062 22.5938 8.98047 21.9844 8.98047H21.5625V12.7188Z" fill="black" fill-opacity="0.85"/>
<path d="M12.9259 17.9922C13.2423 17.9922 13.5118 17.8398 13.6993 17.5352L17.9767 10.8086C18.6212 9.8008 17.2735 9.06252 16.6759 10.0352L12.8907 16.1172L11.0743 13.7734C10.3477 12.8242 9.09382 13.8203 9.84382 14.7578L12.1055 17.5352C12.3516 17.8516 12.6095 17.9922 12.9259 17.9922Z" fill="black" fill-opacity="0.85"/>
</g>
<defs>
<clipPath id="clip0_2124_24720">
<rect width="16.9922" height="25.0898" fill="white" transform="translate(6 1)"/>
</clipPath>
</defs>
</svg>
