<svg width="28" height="28" viewBox="0 0 28 28" fill="none" xmlns="http://www.w3.org/2000/svg">
<path d="M13.9531 25.9062C20.4922 25.9062 25.9062 20.4805 25.9062 13.9531C25.9062 7.41406 20.4805 2 13.9414 2C7.41406 2 2 7.41406 2 13.9531C2 20.4805 7.42578 25.9062 13.9531 25.9062Z" fill="black" fill-opacity="0.85"/>
<path d="M10.8125 18.9688C10.3203 18.9688 9.92188 18.5703 9.92188 18.0898V10.7539L8.82031 11.6563C8.69141 11.7383 8.57422 11.7969 8.375 11.7969C8.01172 11.7969 7.75391 11.5273 7.75391 11.1523C7.75391 10.8359 7.92969 10.6016 8.14062 10.4375L9.46484 9.41797C9.75781 9.19531 10.168 8.91406 10.6719 8.91406C11.3047 8.91406 11.6914 9.27734 11.6914 9.89844V18.0898C11.6914 18.5703 11.293 18.9688 10.8125 18.9688ZM14.3516 18.8398C13.8008 18.8398 13.5312 18.5469 13.5312 18.1367C13.5312 17.7617 13.7656 17.457 13.9883 17.1641L16.0859 14.4922C16.7188 13.6719 17.3984 12.6875 17.3984 11.7148C17.3984 10.8594 16.9883 10.2266 16.2734 10.2266C15.5703 10.2266 15.2656 10.7305 15.0547 11.5391C14.9141 11.9375 14.6797 12.125 14.2695 12.125C13.8125 12.125 13.543 11.8086 13.543 11.3516C13.543 10.0977 14.7148 8.82031 16.2734 8.82031C17.9375 8.82031 19.0508 10.0039 19.0508 11.6328C19.0508 12.6992 18.6523 13.5898 17.4453 15.0898L15.6875 17.3164V17.4219H18.5469C18.9688 17.4219 19.2383 17.668 19.2383 18.1367C19.2383 18.5586 18.9805 18.8398 18.5469 18.8398H14.3516Z" fill="white"/>
</svg>
