<svg width="28" height="28" viewBox="0 0 28 28" fill="none" xmlns="http://www.w3.org/2000/svg">
<path d="M19.809 27.5695L21.3324 24.9327C21.5434 24.5695 21.4262 24.1593 21.0746 23.9601C20.7231 23.7491 20.3246 23.8663 20.1137 24.2296L18.5668 26.8898C18.3793 27.2296 18.4731 27.6398 18.8363 27.839C19.1879 28.0382 19.6098 27.921 19.809 27.5695Z" fill="black" fill-opacity="0.85"/>
<path d="M16.1396 24.2765L17.6631 21.6281C17.874 21.2765 17.7568 20.8663 17.4052 20.6554C17.0537 20.4562 16.6552 20.5616 16.4443 20.9249L14.9092 23.5968C14.7099 23.9249 14.8037 24.3351 15.167 24.546C15.5185 24.7452 15.9404 24.6163 16.1396 24.2765Z" fill="black" fill-opacity="0.85"/>
<path d="M10.4807 27.5812L12.0041 24.9445C12.215 24.5812 12.1096 24.171 11.758 23.9718C11.3947 23.7609 10.9963 23.8781 10.7854 24.2413L9.25024 26.9015C9.05102 27.2413 9.15649 27.6515 9.50805 27.8507C9.85962 28.0499 10.2815 27.9327 10.4807 27.5812Z" fill="black" fill-opacity="0.85"/>
<path d="M6.81229 24.2882L8.33573 21.6398C8.55838 21.2882 8.4412 20.8781 8.08963 20.6671C7.73807 20.4679 7.33963 20.5734 7.11698 20.9366L5.58182 23.6085C5.3826 23.9366 5.48807 24.3468 5.85135 24.5577C6.1912 24.757 6.61307 24.6281 6.81229 24.2882Z" fill="black" fill-opacity="0.85"/>
<path d="M6.50781 18.8038H21.0508C24.8945 18.8038 27.7539 15.8859 27.7539 12.2765C27.7539 8.53821 24.707 5.80774 20.7344 5.80774C19.2695 2.91321 16.5508 1.04993 13.1641 1.04993C8.75781 1.04993 5.125 4.50696 4.73828 8.85462C2.61719 9.47571 1 11.3156 1 13.7882C1 16.5656 3.01562 18.8038 6.50781 18.8038Z" fill="black" fill-opacity="0.85"/>
</svg>
