<svg width="28" height="28" viewBox="0 0 28 28" fill="none" xmlns="http://www.w3.org/2000/svg">
<path d="M13.9531 25.9062C20.4922 25.9062 25.9062 20.4805 25.9062 13.9531C25.9062 7.41406 20.4805 2 13.9414 2C7.41406 2 2 7.41406 2 13.9531C2 20.4805 7.42578 25.9062 13.9531 25.9062ZM13.9531 23.9141C8.42188 23.9141 4.00391 19.4844 4.00391 13.9531C4.00391 8.42188 8.41016 3.99219 13.9414 3.99219C19.4727 3.99219 23.9141 8.42188 23.9141 13.9531C23.9141 19.4844 19.4844 23.9141 13.9531 23.9141Z" fill="black" fill-opacity="0.85"/>
<path d="M11.2812 18.8398C11.7148 18.8398 12.0781 18.5703 12.0781 18.0078V16.8359H12.5C12.9453 16.8359 13.168 16.543 13.168 16.1445C13.168 15.7695 12.9688 15.4766 12.5 15.4766H12.0781V10.332C12.0781 9.52344 11.5508 9.06641 10.7891 9.06641C9.95703 9.06641 9.57031 9.48828 9.24219 10.2148L7.14453 14.7617C6.95703 15.2188 6.88672 15.5234 6.88672 15.8867C6.88672 16.4492 7.27344 16.8359 7.84766 16.8359H10.4727V18.0078C10.4727 18.6289 10.9062 18.8398 11.2812 18.8398ZM10.5078 15.5117H8.32812V15.4297L10.4609 10.543H10.5078V15.5117ZM17.3984 18.9336C19.7305 18.9336 20.4336 16.3086 20.4336 13.9531C20.4336 11.5977 19.7305 8.97266 17.3984 8.97266C15.0664 8.97266 14.3633 11.5977 14.3633 13.9531C14.3633 16.3086 15.0664 18.9336 17.3984 18.9336ZM17.3984 17.5391C16.4375 17.5391 16.0742 15.9805 16.0742 13.9531C16.0742 11.9141 16.4375 10.3555 17.3984 10.3555C18.3594 10.3555 18.7227 11.9141 18.7227 13.9531C18.7227 15.9805 18.3594 17.5391 17.3984 17.5391Z" fill="black" fill-opacity="0.85"/>
</svg>
