<svg width="30" height="28" viewBox="0 0 30 28" fill="none" xmlns="http://www.w3.org/2000/svg">
<path d="M23.1562 23.0625C26.6953 23.0625 29.4609 20.4727 29.4609 17.25C29.4609 14.7891 28.043 12.6562 25.7578 11.6953C25.7812 6.46875 22.0195 2.69531 17.2266 2.69531C14.0508 2.69531 11.7891 4.39453 10.3828 6.44531C7.5 5.60156 4.35938 7.79297 4.30078 11.0742C1.65234 11.4961 0 13.8633 0 16.7227C0 20.168 3.01172 23.0625 7.01953 23.0625H23.1562Z" fill="black" fill-opacity="0.85"/>
<path d="M22.8979 27.0001C23.7768 27.8907 25.23 27.8907 26.1089 27.0001C26.9995 26.1212 26.9995 24.6798 26.1089 23.7892L6.5503 4.24225C5.63624 3.32818 4.18311 3.38678 3.32764 4.24225C2.44874 5.12115 2.46046 6.59772 3.32764 7.45318L22.8979 27.0001Z" fill="white"/>
<path d="M23.8589 26.0391C24.2222 26.3906 24.7847 26.3906 25.1362 26.0391C25.4878 25.6875 25.4995 25.1133 25.1362 24.7617L5.58937 5.21479C5.22609 4.85151 4.64015 4.87495 4.30031 5.21479C3.96047 5.55464 3.97219 6.16401 4.30031 6.49214L23.8589 26.0391Z" fill="black" fill-opacity="0.85"/>
</svg>
