<svg width="28" height="28" viewBox="0 0 28 28" fill="none" xmlns="http://www.w3.org/2000/svg">
<path d="M13.9531 25.9062C20.4922 25.9062 25.9062 20.4805 25.9062 13.9531C25.9062 7.41406 20.4805 2 13.9414 2C7.41406 2 2 7.41406 2 13.9531C2 20.4805 7.42578 25.9062 13.9531 25.9062Z" fill="black" fill-opacity="0.85"/>
<path d="M21.4648 13.9531C21.4648 14.2109 21.3594 14.4102 21.125 14.6562L17.6328 18.1602C17.4805 18.3242 17.2578 18.4062 17 18.4062C16.5078 18.4062 16.1328 18.0312 16.1328 17.5273C16.1328 17.2578 16.2383 17.0469 16.3906 16.8828L17.3047 15.9805L18.7578 14.7617L16.2031 14.8672H11.6797L9.125 14.7617L10.5898 15.9805L11.5039 16.8828C11.6562 17.0469 11.7617 17.2578 11.7617 17.5273C11.7617 18.0312 11.3867 18.4062 10.8945 18.4062C10.6367 18.4062 10.4141 18.3242 10.2617 18.1602L6.76953 14.6562C6.53516 14.4102 6.42969 14.2109 6.42969 13.9531C6.42969 13.6836 6.53516 13.4844 6.76953 13.2383L10.2617 9.74609C10.4141 9.58203 10.6367 9.48828 10.8945 9.48828C11.3867 9.48828 11.7617 9.88672 11.7617 10.3789C11.7617 10.6484 11.668 10.8594 11.5039 11.0352L10.5898 11.9258L9.11328 13.1445L11.6797 13.0508H16.2031L18.7695 13.1445L17.3047 11.9258L16.3906 11.0352C16.2266 10.8594 16.1328 10.6484 16.1328 10.3789C16.1328 9.88672 16.5078 9.48828 17 9.48828C17.2578 9.48828 17.4805 9.58203 17.6328 9.74609L21.125 13.2383C21.3594 13.4844 21.4648 13.6836 21.4648 13.9531Z" fill="white"/>
</svg>
