<svg width="28" height="28" viewBox="0 0 28 28" fill="none" xmlns="http://www.w3.org/2000/svg">
<path d="M6.67969 24.5977H20.8945C23.3555 24.5977 24.5742 23.3789 24.5742 20.9648V6.65625C24.5742 4.24219 23.3555 3.02344 20.8945 3.02344H6.67969C4.23047 3.02344 3 4.23047 3 6.65625V20.9648C3 23.3906 4.23047 24.5977 6.67969 24.5977Z" fill="black" fill-opacity="0.85"/>
<path d="M11.25 18.832C10.8633 18.832 10.3945 18.6094 10.3945 17.9648V16.7695H7.69923C7.11329 16.7695 6.70312 16.3711 6.70312 15.7852C6.70312 15.4102 6.77345 15.0938 6.97267 14.625L9.12892 9.9375C9.46876 9.1875 9.87891 8.75391 10.7227 8.75391C11.5195 8.75391 12.0703 9.22266 12.0703 10.0664V15.3633H12.4922C12.9727 15.3633 13.1836 15.668 13.1836 16.0547C13.1836 16.4648 12.9609 16.7695 12.4922 16.7695H12.0703V17.9648C12.0703 18.5508 11.6953 18.832 11.25 18.832ZM10.4297 15.3984V10.2773H10.3828L8.19142 15.3164V15.3984H10.4297ZM16.7695 15.3047C15.1641 15.3047 14.3789 13.7578 14.3789 12.1289C14.3789 10.2305 15.4453 8.68359 17.2852 8.68359C19.7344 8.68359 20.4609 11.4141 20.4609 13.6992C20.4609 16.1719 19.7461 18.9141 17.2734 18.9141C16.0547 18.9141 15.0117 18.2812 14.7422 17.2266C14.707 17.0859 14.6719 16.9336 14.6719 16.793C14.6719 16.3945 14.8945 16.0547 15.3984 16.0547C15.7617 16.0547 16.0078 16.207 16.1719 16.6055C16.3945 17.1211 16.7578 17.4961 17.2969 17.4961C18.6445 17.4961 18.8086 15.082 18.8086 13.7461C18.8086 13.7109 18.8086 13.6641 18.8086 13.6172H18.7617C18.4922 14.6484 17.7539 15.3047 16.7695 15.3047ZM17.3086 13.9688C18.1758 13.9688 18.5859 12.9844 18.5859 12.0469C18.5859 11.1445 18.2109 10.1016 17.3086 10.1016C16.4648 10.1016 16.0547 11.1445 16.0547 12.0469C16.0547 12.9375 16.418 13.9688 17.3086 13.9688Z" fill="white"/>
</svg>
