<svg width="28" height="28" viewBox="0 0 28 28" fill="none" xmlns="http://www.w3.org/2000/svg">
<path d="M6.67969 24.5977H20.8945C23.3555 24.5977 24.5742 23.3789 24.5742 20.9648V6.65625C24.5742 4.24219 23.3555 3.02344 20.8945 3.02344H6.67969C4.23047 3.02344 3 4.23047 3 6.65625V20.9648C3 23.3906 4.23047 24.5977 6.67969 24.5977Z" fill="black" fill-opacity="0.85"/>
<path d="M11.2031 18.832C10.8164 18.832 10.3594 18.6094 10.3594 17.9648V16.7695H7.66406C7.06641 16.7695 6.66797 16.3711 6.66797 15.7852C6.66797 15.4102 6.73828 15.0938 6.92578 14.625L9.08203 9.9375C9.42188 9.1875 9.83203 8.75391 10.6875 8.75391C11.4844 8.75391 12.0234 9.22266 12.0234 10.0664V15.3633H12.457C12.9375 15.3633 13.1484 15.668 13.1484 16.0547C13.1484 16.4648 12.9141 16.7695 12.457 16.7695H12.0234V17.9648C12.0234 18.5508 11.6484 18.832 11.2031 18.832ZM10.3945 15.3984V10.2773H10.3477L8.15625 15.3164V15.3984H10.3945ZM17.3438 18.8906C16.0547 18.8906 14.8125 18.2695 14.4727 17.1445C14.4023 16.9453 14.3789 16.7344 14.3789 16.5117C14.3789 16.043 14.6953 15.75 15.1641 15.75C15.5625 15.75 15.8203 15.9492 15.9375 16.3477C16.0781 16.8984 16.4766 17.4844 17.3555 17.4844C18.2461 17.4844 18.6914 16.7695 18.6914 15.9375C18.6914 14.8945 18.1289 14.332 17.0977 14.332H16.8047C16.4062 14.332 16.125 14.0977 16.125 13.6992C16.125 13.3008 16.3945 13.043 16.8047 13.043H17.0859C18 13.043 18.4805 12.3984 18.4805 11.5195C18.4805 10.7227 18.1055 10.1133 17.3086 10.1133C16.6172 10.1133 16.2539 10.5586 16.0547 11.2734C15.9375 11.6953 15.6914 11.8477 15.2812 11.8477C14.8008 11.8477 14.5312 11.5313 14.5312 11.1328C14.5312 10.9219 14.5664 10.7109 14.625 10.4766C14.9766 9.41016 16.0547 8.70703 17.3086 8.70703C18.8789 8.70703 20.1328 9.65625 20.1328 11.332C20.1328 12.3398 19.5938 13.3242 18.5039 13.6172V13.6523C19.5234 13.7578 20.4141 14.4961 20.4141 15.9961C20.4141 17.8008 19.0898 18.8906 17.3438 18.8906Z" fill="white"/>
</svg>
