<svg width="28" height="28" viewBox="0 0 28 28" fill="none" xmlns="http://www.w3.org/2000/svg">
<path d="M13.9531 25.9062C20.4922 25.9062 25.9062 20.4805 25.9062 13.9531C25.9062 7.41406 20.4805 2 13.9414 2C7.41406 2 2 7.41406 2 13.9531C2 20.4805 7.42578 25.9062 13.9531 25.9062ZM13.9531 23.9141C8.42188 23.9141 4.00391 19.4844 4.00391 13.9531C4.00391 8.42188 8.41016 3.99219 13.9414 3.99219C19.4727 3.99219 23.9141 8.42188 23.9141 13.9531C23.9141 19.4844 19.4844 23.9141 13.9531 23.9141Z" fill="black" fill-opacity="0.85"/>
<path d="M17.2109 19.4961V8.53906C17.2109 7.57812 16.6953 7.05078 15.7227 7.05078H10.5312C9.57031 7.05078 9.04297 7.56641 9.04297 8.53906V19.4961H17.2109ZM11.1992 13.543C10.8008 13.543 10.5547 13.3086 10.5547 12.9453V9.17188C10.5547 8.80859 10.8008 8.59766 11.1992 8.59766H15.0664C15.4648 8.59766 15.7109 8.80859 15.7109 9.17188V12.9453C15.7109 13.3086 15.4648 13.543 15.0664 13.543H11.1992ZM8.30469 19.8711C8.30469 20.1406 8.55078 20.3867 8.82031 20.3867H17.4219C17.7266 20.3867 17.9492 20.1406 17.9492 19.8711C17.9492 19.6133 17.7266 19.3906 17.4219 19.3906H8.82031C8.55078 19.3906 8.30469 19.6133 8.30469 19.8711ZM15.7344 17.8438H18.9102C19.9062 17.8438 20.4102 17.3398 20.4102 16.3555V10.2266C20.4102 9.81641 20.3047 9.5 20.1055 9.19531L19.2852 7.84766C18.957 7.33203 18.1953 7.80078 18.5117 8.32812L19.3555 9.67578C19.4727 9.875 19.5078 9.98047 19.5078 10.2266V16.3555C19.5078 16.7422 19.2969 16.9414 18.9102 16.9414H15.7344V17.8438ZM18.5469 12.0664L19.5898 13.2734V9.35938L18.4883 10.9063C18.1836 11.3281 18.207 11.668 18.5469 12.0664Z" fill="black" fill-opacity="0.85"/>
</svg>
