<svg width="28" height="28" viewBox="0 0 28 28" fill="none" xmlns="http://www.w3.org/2000/svg">
<path d="M6.67969 24.5977H20.8945C23.3555 24.5977 24.5742 23.3789 24.5742 20.9648V6.65625C24.5742 4.24219 23.3555 3.02344 20.8945 3.02344H6.67969C4.23047 3.02344 3 4.23047 3 6.65625V20.9648C3 23.3906 4.23047 24.5977 6.67969 24.5977Z" fill="black" fill-opacity="0.85"/>
<path d="M10.043 18.8789C8.74219 18.8789 7.51172 18.2578 7.16016 17.1328C7.10156 16.9336 7.06641 16.7227 7.06641 16.5C7.06641 16.0195 7.38281 15.7383 7.86328 15.7383C8.25 15.7383 8.50781 15.9375 8.63672 16.3359C8.77734 16.875 9.17578 17.4609 10.043 17.4609C10.9453 17.4609 11.3789 16.7578 11.3789 15.9375C11.3789 14.8711 10.8164 14.3203 9.78516 14.3203H9.49219C9.08203 14.3203 8.82422 14.0742 8.82422 13.6758C8.82422 13.2891 9.07031 13.0312 9.49219 13.0312H9.77344C10.6758 13.0312 11.168 12.3867 11.168 11.5078C11.168 10.7109 10.793 10.1016 9.99609 10.1016C9.31641 10.1016 8.92969 10.5469 8.74219 11.2617C8.625 11.6719 8.39062 11.8359 7.96875 11.8359C7.48828 11.8359 7.21875 11.5078 7.21875 11.1211C7.21875 10.9219 7.24219 10.6992 7.3125 10.4648C7.66406 9.39844 8.74219 8.69531 9.99609 8.69531C11.5781 8.69531 12.8203 9.64453 12.8203 11.3203C12.8203 12.3281 12.293 13.3008 11.1914 13.5938V13.6406C12.2227 13.7461 13.1133 14.4844 13.1133 15.9844C13.1133 17.7891 11.7891 18.8789 10.043 18.8789ZM17.5195 18.9141C15.0938 18.9141 14.3789 16.2188 14.3789 13.7812C14.3789 11.3437 15.0938 8.64844 17.5195 8.64844C19.9219 8.64844 20.6367 11.3437 20.6367 13.7812C20.6367 16.2188 19.9219 18.9141 17.5195 18.9141ZM17.5195 17.4727C18.5039 17.4727 18.8672 15.8789 18.8672 13.7812C18.8672 11.6719 18.5039 10.0781 17.5195 10.0781C16.5352 10.0781 16.1602 11.6719 16.1602 13.7812C16.1602 15.8789 16.5352 17.4727 17.5195 17.4727Z" fill="white"/>
</svg>
