<svg width="28" height="28" viewBox="0 0 28 28" fill="none" xmlns="http://www.w3.org/2000/svg">
<g clip-path="url(#clip0_2124_88522)">
<path d="M13.9531 25.9062C20.4922 25.9062 25.9062 20.4805 25.9062 13.9531C25.9062 7.41406 20.4805 2 13.9414 2C7.41406 2 2 7.41406 2 13.9531C2 20.4805 7.42578 25.9062 13.9531 25.9062ZM13.9531 23.9141C8.42188 23.9141 4.00391 19.4844 4.00391 13.9531C4.00391 8.42188 8.41016 3.99219 13.9414 3.99219C19.4727 3.99219 23.9141 8.42188 23.9141 13.9531C23.9141 19.4844 19.4844 23.9141 13.9531 23.9141Z" fill="black" fill-opacity="0.85"/>
<path d="M8.22245 19.4728C9.68729 20.9259 11.5154 20.8087 13.2146 19.0978L14.9725 17.3517C16.7068 15.629 16.8475 13.7892 15.3592 12.3126C14.9607 11.9024 14.5037 11.6212 14.1756 11.5626C13.8475 11.797 13.449 12.2306 13.2615 12.6407C13.8006 12.7228 14.2107 12.9103 14.492 13.1798C15.406 14.1056 15.2654 15.3243 14.0701 16.5079L12.3709 18.2071C11.2225 19.3556 10.0154 19.4845 9.08963 18.5821C8.17557 17.6681 8.28104 16.4493 9.46463 15.3009L10.6717 14.0939C10.4842 13.6485 10.4725 12.9689 10.66 12.3946L8.57401 14.4571C6.87479 16.1681 6.73417 17.9962 8.22245 19.4728ZM19.2615 8.39854C17.7967 6.94541 15.9686 7.0626 14.2693 8.77354L12.5115 10.5079C10.7771 12.2423 10.6365 14.0704 12.1248 15.547C12.5232 15.9689 12.9803 16.2384 13.3084 16.3087C13.6365 16.0626 14.035 15.629 14.2225 15.2306C13.6834 15.1485 13.2732 14.961 12.992 14.6798C12.0779 13.7657 12.2186 12.5353 13.4139 11.3634L15.1131 9.66416C16.2615 8.51572 17.4686 8.38682 18.3943 9.28916C19.3084 10.2032 19.2029 11.422 18.0193 12.5704L16.8123 13.7657C16.9998 14.2228 17.0115 14.8907 16.824 15.4767L18.91 13.4024C20.6092 11.7032 20.7498 9.8751 19.2615 8.39854Z" fill="black" fill-opacity="0.85"/>
</g>
<defs>
<clipPath id="clip0_2124_88522">
<rect width="23.9062" height="23.918" fill="white" transform="translate(2 2)"/>
</clipPath>
</defs>
</svg>
