<svg width="28" height="28" viewBox="0 0 28 28" fill="none" xmlns="http://www.w3.org/2000/svg">
<path d="M13.9531 25.9062C20.4922 25.9062 25.9062 20.4805 25.9062 13.9531C25.9062 7.41406 20.4805 2 13.9414 2C7.41406 2 2 7.41406 2 13.9531C2 20.4805 7.42578 25.9062 13.9531 25.9062ZM13.9531 23.9141C8.42188 23.9141 4.00391 19.4844 4.00391 13.9531C4.00391 8.42188 8.41016 3.99219 13.9414 3.99219C19.4727 3.99219 23.9141 8.42188 23.9141 13.9531C23.9141 19.4844 19.4844 23.9141 13.9531 23.9141Z" fill="black" fill-opacity="0.85"/>
<path d="M8.87891 13.9414C9.33594 13.9414 9.71094 13.5781 9.71094 13.1211V12.5469L9.58203 10.6953L12.125 13.3555C12.4648 13.7305 13.0273 13.7188 13.3672 13.3672C13.707 13.0273 13.6953 12.4531 13.3555 12.125L10.7188 9.60547L12.5117 9.72266H13.0859C13.543 9.72266 13.9062 9.35938 13.9062 8.90234C13.9062 8.44531 13.543 8.07031 13.0859 8.07031H9.01953C8.41016 8.07031 8.05859 8.33984 8.05859 9.04297V13.1211C8.05859 13.5781 8.42188 13.9414 8.87891 13.9414ZM14.8086 19.8594H18.8633C19.4727 19.8594 19.8359 19.5898 19.8359 18.8867V14.8086C19.8359 14.3516 19.4609 13.9883 19.0039 13.9883C18.5469 13.9883 18.1836 14.3516 18.1836 14.8086V15.3828L18.3008 17.2344L15.7695 14.5742C15.418 14.1992 14.8672 14.2109 14.5156 14.5625C14.1758 14.9023 14.1875 15.4766 14.5273 15.8047L17.1758 18.3242L15.3828 18.207H14.8086C14.3516 18.207 13.9766 18.5703 13.9766 19.0273C13.9766 19.4844 14.3516 19.8594 14.8086 19.8594Z" fill="black" fill-opacity="0.85"/>
</svg>
