<svg width="28" height="32" viewBox="0 0 28 32" fill="none" xmlns="http://www.w3.org/2000/svg">
<path d="M14.0504 29.9766C11.9879 29.9766 10.1011 29.2148 8.65975 27.9258C8.15584 27.4922 7.6285 27.457 7.28865 27.7969C6.89021 28.1836 6.91365 28.7461 7.33553 29.1797C9.08162 30.9258 11.5074 31.7344 14.0504 31.7344C16.6051 31.7344 19.0308 30.9258 20.7769 29.1797C21.1871 28.7461 21.2105 28.1836 20.8238 27.7969C20.4723 27.457 19.9449 27.4922 19.441 27.9258C17.9996 29.2148 16.1246 29.9766 14.0504 29.9766Z" fill="black" fill-opacity="0.85"/>
<path d="M14.0507 25.8633C13.0312 25.8633 12.1289 25.5469 11.4257 24.9727C10.8281 24.5508 10.3359 24.5742 10.0078 24.9141C9.64448 25.2656 9.66792 25.7812 10.0429 26.1797C10.7695 26.8828 12.3515 27.6211 14.0507 27.6211C15.7617 27.6211 17.3437 26.8828 18.0585 26.1797C18.4335 25.7812 18.4569 25.2656 18.0937 24.9141C17.7655 24.5742 17.2733 24.5508 16.6757 24.9727C15.9843 25.5469 15.082 25.8633 14.0507 25.8633Z" fill="black" fill-opacity="0.85"/>
<path d="M14.0508 23.0742C18.5508 23.0742 20.5781 22.0547 20.5781 19.4648V4.25391C20.5781 1.58203 18.1055 0 14.0508 0C9.99609 0 7.53516 1.58203 7.53516 4.25391V19.4648C7.53516 22.0547 9.55078 23.0742 14.0508 23.0742ZM8.53125 9.23438V6.79688H7.03125C6.45703 6.79688 6 7.23047 6 7.79297V8.23828C6 8.78906 6.45703 9.23438 7.03125 9.23438H8.53125ZM19.5703 9.23438H21.0703C21.6562 9.23438 22.1016 8.78906 22.1016 8.23828V7.79297C22.1016 7.23047 21.6562 6.79688 21.0703 6.79688H19.5703V9.23438ZM14.0508 9.64453C13.2305 9.64453 11.8711 9.71484 11.4023 9.71484C10.6875 9.71484 10.3594 9.41016 10.2891 8.64844L10.1367 6.96094C10.0195 5.56641 10.9336 5.03906 14.0508 5.03906C17.168 5.03906 18.0938 5.56641 17.9766 6.96094L17.8242 8.64844C17.7539 9.41016 17.4375 9.71484 16.6992 9.71484C16.2422 9.71484 14.9297 9.64453 14.0508 9.64453ZM14.0508 19.3359C10.9336 19.3359 9.96094 18.8789 10.1719 17.4375L10.3008 16.6172C10.4766 15.4688 11.3672 15.1055 14.0508 15.1055C16.7461 15.1055 17.625 15.4688 17.8125 16.6172L17.9414 17.4375C18.1641 18.8789 17.168 19.3359 14.0508 19.3359Z" fill="black" fill-opacity="0.85"/>
</svg>
