<svg width="29" height="34" viewBox="0 0 29 34" fill="none" xmlns="http://www.w3.org/2000/svg">
<g clip-path="url(#clip0_2124_45950)">
<path d="M23.5669 11.2872C25.313 11.2872 26.7193 9.82239 26.7193 8.12317C26.7193 6.35364 25.313 4.92395 23.5669 4.92395C21.7857 4.92395 20.3794 6.35364 20.3794 8.12317C20.3794 9.86926 21.7857 11.2872 23.5669 11.2872ZM4.67636 28.0568C5.28574 28.6896 6.32871 28.6427 7.07871 27.8693L12.1177 22.6661C12.2818 22.4904 12.399 22.4435 12.6685 22.549L16.5943 24.0372C19.1255 25.0099 21.5162 24.1779 22.6177 22.1622L25.149 17.5568C26.1334 15.7638 25.8287 13.9122 24.1177 12.9982C22.4654 12.0958 20.7427 12.7755 19.7466 14.6154L16.4654 20.6036L13.6646 19.5841C12.2818 19.0802 11.1216 19.2443 10.0201 20.3927L4.78183 25.8068C4.05527 26.5568 4.12558 27.4943 4.67636 28.0568Z" fill="black" fill-opacity="0.85"/>
<path d="M1.25441 7.47865C1.59426 7.81849 2.14504 7.81849 2.48489 7.47865L5.71926 4.23255L7.02004 5.53334C7.59426 6.10755 8.44973 5.77943 8.48489 4.9474L8.7427 0.892705C8.76614 0.341924 8.42629 -0.0096381 7.86379 0.0137994L3.79739 0.259893C3.01223 0.306768 2.62551 1.11537 3.22317 1.72474L4.51223 3.02552L1.26613 6.2599C0.926289 6.59974 0.926289 7.15052 1.25441 7.47865ZM1.25441 11.7326C0.926289 12.0607 0.926289 12.5997 1.26613 12.9513L4.51223 16.1857L3.22317 17.4865C2.62551 18.0958 3.01223 18.9044 3.79739 18.9513L7.86379 19.1857C8.42629 19.2208 8.76614 18.8693 8.7427 18.3185L8.48489 14.2638C8.44973 13.4318 7.59426 13.1036 7.02004 13.6779L5.71926 14.9786L2.48489 11.7326C2.14504 11.3927 1.59426 11.3927 1.25441 11.7326Z" fill="black" fill-opacity="0.85"/>
</g>
<defs>
<clipPath id="clip0_2124_45950">
<rect width="25.7095" height="33.5999" fill="white" transform="translate(1.00977 0.0126953)"/>
</clipPath>
</defs>
</svg>
