<svg width="28" height="28" viewBox="0 0 28 28" fill="none" xmlns="http://www.w3.org/2000/svg">
<path d="M6.67969 24.5977H20.8945C23.3555 24.5977 24.5742 23.3789 24.5742 20.9648V6.65625C24.5742 4.24219 23.3555 3.02344 20.8945 3.02344H6.67969C4.23047 3.02344 3 4.23047 3 6.65625V20.9648C3 23.3906 4.23047 24.5977 6.67969 24.5977Z" fill="black" fill-opacity="0.85"/>
<path d="M9.82031 19.4531C9.28125 19.4531 8.91797 19.1133 8.91797 18.6211C8.91797 18.4336 8.95312 18.2578 9.04688 17.9883L12.4336 8.87109C12.6797 8.23828 13.125 7.91016 13.7812 7.91016C14.4492 7.91016 14.9062 8.23828 15.1523 8.87109L18.5391 17.9883C18.6328 18.2578 18.668 18.4336 18.668 18.6211C18.668 19.1133 18.3047 19.4531 17.7656 19.4531C17.332 19.4531 17.0156 19.2422 16.8281 18.6797L15.9492 16.1133H11.6367L10.7578 18.6797C10.5703 19.2539 10.2539 19.4531 9.82031 19.4531ZM12.1172 14.6484H15.4688L13.8516 9.98438H13.7344L12.1172 14.6484Z" fill="white"/>
</svg>
