<svg width="28" height="28" viewBox="0 0 28 28" fill="none" xmlns="http://www.w3.org/2000/svg">
<path d="M1.19649 21.8281C2.22774 25.6484 3.29414 26.8086 5.70821 26.8086H19.384C21.1184 26.8086 22.2785 25.8711 22.7121 24.1133L27.1184 6.23047C27.8332 3.3125 26.3801 2 24.6926 2C22.4543 2 20.0168 4.39062 21.3879 8.25781L21.7277 6.81641C18.2004 8.66797 16.5949 12.957 17.2395 18.1953L17.6613 17.6094C15.2473 17.1055 12.0949 16.8008 9.05977 16.8008C2.79024 16.8008 0.235549 18.3242 1.19649 21.8281Z" fill="black" fill-opacity="0.85"/>
<path d="M6.63379 12.7109C8.7666 12.7109 10.208 11.5859 10.208 9.89844C10.208 8.69141 9.30566 7.73047 8.06347 7.57812C9.07129 7.41406 9.87988 6.47656 9.87988 5.38672C9.87988 3.94531 8.56738 2.89062 6.71582 2.89062C5.04004 2.89062 3.77441 3.67578 3.48144 4.92969C3.44629 5.07031 3.43457 5.16406 3.43457 5.33984C3.43457 5.73828 3.72754 6.03125 4.17285 6.03125C4.53613 6.03125 4.77051 5.85547 4.89941 5.48047C5.13379 4.69531 5.80176 4.25 6.69238 4.25C7.67676 4.25 8.30957 4.74219 8.30957 5.55078C8.30957 6.38281 7.59472 6.99219 6.64551 6.99219H6.00097C5.62597 6.99219 5.33301 7.26172 5.33301 7.64844C5.33301 8.03516 5.61426 8.31641 6.00097 8.31641H6.71582C7.85254 8.31641 8.63769 8.92578 8.63769 9.83984C8.63769 10.7305 7.84082 11.3398 6.65722 11.3398C5.68457 11.3398 4.99316 10.9062 4.71191 10.1094C4.57129 9.74609 4.33691 9.58203 3.98535 9.58203C3.55176 9.58203 3.24707 9.875 3.24707 10.2969C3.24707 10.4492 3.25879 10.5195 3.29394 10.6602C3.56347 11.8672 4.95801 12.7109 6.63379 12.7109Z" fill="black" fill-opacity="0.85"/>
</svg>
