<svg width="28" height="28" viewBox="0 0 28 28" fill="none" xmlns="http://www.w3.org/2000/svg">
<g clip-path="url(#clip0_2124_24784)">
<path d="M9.18359 25.2734H18.1836C22.9297 25.2734 25.4023 22.8125 25.4023 18.0898V9.18359C25.4023 4.46094 22.9297 2 18.1836 2H9.18359C4.46094 2 2 4.46094 2 9.18359V18.0898C2 22.8125 4.46094 25.2734 9.18359 25.2734ZM13.6953 19.3555C10.543 19.3555 7.98828 16.8125 7.98828 13.6367C7.98828 11.5156 9.13672 9.64062 10.9531 8.62109V13.6367C10.9531 15.1602 12.1602 16.3555 13.6953 16.3555C15.207 16.3555 16.4492 15.1367 16.4492 13.6367C16.4492 12.1367 15.1836 10.8594 13.6953 10.8594C13.168 10.8594 12.6289 11.0352 12.1836 11.3633V8.12891C12.6289 7.98828 13.1445 7.94141 13.6953 7.94141C16.8008 7.94141 19.4141 10.4844 19.4141 13.6367C19.4141 16.7539 16.8594 19.3555 13.6953 19.3555ZM13.6953 15.1484C12.8867 15.1484 12.207 14.4688 12.207 13.6367C12.207 12.8281 12.9102 12.1484 13.6953 12.1484C14.4805 12.1484 15.1953 12.8633 15.1953 13.6367C15.1953 14.4336 14.5039 15.1484 13.6953 15.1484Z" fill="black" fill-opacity="0.85"/>
</g>
<defs>
<clipPath id="clip0_2124_24784">
<rect width="23.4023" height="23.2852" fill="white" transform="translate(2 2)"/>
</clipPath>
</defs>
</svg>
