<svg width="28" height="28" viewBox="0 0 28 28" fill="none" xmlns="http://www.w3.org/2000/svg">
<path d="M14.3438 8.90627C15.7617 8.90627 16.9102 7.75783 16.9102 6.33986C16.9102 4.9219 15.7617 3.78518 14.3438 3.78518C12.9258 3.78518 11.7891 4.9219 11.7891 6.33986C11.7891 7.75783 12.9258 8.90627 14.3438 8.90627ZM24.7031 27.8789C25.3594 27.8789 25.8867 27.3398 25.8867 26.6953V20.7539C25.8867 20.332 25.6641 20.0156 25.3594 19.7578L20.7539 15.9609L19.8398 11.0156C19.7578 10.5117 19.8164 10.0195 20.0625 9.52736L23.9414 1.78127C24.2344 1.19533 23.9883 0.480485 23.4023 0.187516C22.8164 -0.105453 22.1016 0.128922 21.8086 0.703141L18 8.34377C17.7305 8.88283 17.3438 9.2344 16.7695 9.46877L10.0547 12.2578L7.34766 10.0898C7.14844 9.93752 6.91406 9.87893 6.71484 9.87893V6.65627H5.41406V10.9688C5.41406 11.3672 5.53125 11.707 5.83594 11.9531L9.14062 14.5781C9.55078 14.8945 9.99609 14.8711 10.5117 14.6602L14.1797 13.125C14.6953 12.9023 14.9531 13.1953 15.0117 13.5469L16.8281 23.5664L11.7891 25.582C11.1914 25.8164 10.8867 26.5078 11.1211 27.1289C11.4023 27.8203 12.082 28.0078 12.668 27.7734L18.6094 25.4062C19.125 25.1953 19.3945 24.6914 19.3594 24.1523L19.0195 19.5352C18.9844 19.0195 19.5469 18.7266 19.9453 18.9961L23.5195 21.3867V26.6953C23.5195 27.3398 24.0352 27.8789 24.7031 27.8789ZM6.07031 0.421891C4.34766 0.421891 3 1.78127 3 3.51564C3 5.08596 4.33594 6.82033 6.07031 7.40627C7.80469 6.82033 9.12891 5.08596 9.12891 3.51564C9.12891 1.78127 7.78125 0.421891 6.07031 0.421891ZM6.07031 1.72268C7.05469 1.72268 7.82812 2.51955 7.82812 3.5508C7.82812 4.55861 7.08984 5.64846 6.07031 6.00002C5.05078 5.64846 4.30078 4.55861 4.30078 3.5508C4.30078 2.51955 5.07422 1.72268 6.07031 1.72268Z" fill="black" fill-opacity="0.85"/>
</svg>
