<svg width="28" height="28" viewBox="0 0 28 28" fill="none" xmlns="http://www.w3.org/2000/svg">
<path d="M13.9531 25.918C20.4922 25.918 25.9062 20.5039 25.9062 13.9648C25.9062 7.4375 20.4805 2.01172 13.9414 2.01172C7.41406 2.01172 2 7.4375 2 13.9648C2 20.5039 7.42578 25.918 13.9531 25.918Z" fill="black" fill-opacity="0.85"/>
<path d="M9.59375 18.7578V13.9414C9.59375 13.0859 9.94531 12.6758 10.6484 12.6289V11.1992C10.6484 8.97265 11.9844 7.48438 13.9531 7.48438C15.9219 7.48438 17.2578 8.97265 17.2578 11.1992V12.6289C17.9609 12.6758 18.3125 13.0859 18.3125 13.9414V18.7578C18.3125 19.6602 17.9141 20.0703 17.082 20.0703H10.8242C9.99219 20.0703 9.59375 19.6602 9.59375 18.7578ZM11.9141 12.6172H15.9922V11.0586C15.9922 9.65234 15.1719 8.70312 13.9531 8.70312C12.7344 8.70312 11.9141 9.65234 11.9141 11.0586V12.6172Z" fill="white"/>
</svg>
