<svg width="28" height="28" viewBox="0 0 28 28" fill="none" xmlns="http://www.w3.org/2000/svg">
<g clip-path="url(#clip0_2124_49991)">
<path d="M13.5977 18.0508C16.0469 18.0508 18.0508 16.0586 18.0508 13.6094C18.0508 11.1602 16.0469 9.15625 13.5977 9.15625C11.1484 9.15625 9.15625 11.1602 9.15625 13.6094C9.15625 16.0586 11.1484 18.0508 13.5977 18.0508ZM13.5977 16.2461C12.1445 16.2461 10.9609 15.0625 10.9609 13.6094C10.9609 12.1562 12.1445 10.9609 13.5977 10.9609C15.0508 10.9609 16.2461 12.1562 16.2461 13.6094C16.2461 15.0625 15.0508 16.2461 13.5977 16.2461ZM13.5977 15.2734C14.5352 15.2734 15.2734 14.5352 15.2734 13.6094C15.2734 12.6836 14.5234 11.9219 13.5977 11.9219C12.6602 11.9219 11.9219 12.6602 11.9219 13.6094C11.9219 14.5469 12.6602 15.2734 13.5977 15.2734ZM12.7539 10.0117V4.35156C12.7539 2.19531 11.5938 1 9.50781 1C5.75781 1.01172 1.84375 4.39844 1.84375 7.71484C1.84375 10.7383 4.65625 12.4258 9.53125 14.0312L10.2812 12.332C5.98047 10.9023 3.63672 9.80078 3.63672 7.71484C3.63672 5.37109 6.74219 2.79297 9.50781 2.79297C10.5977 2.79297 10.9609 3.19141 10.9609 4.35156V10.5273L12.7539 10.0117ZM17.1953 12.7539H22.8672C25.0234 12.7539 26.207 11.6055 26.207 9.51953C26.207 5.76953 22.8086 1.84375 19.4922 1.84375C16.4688 1.84375 14.7812 4.66797 13.1758 9.55469L14.875 10.3047C16.3047 6.00391 17.4062 3.63672 19.4922 3.63672C21.8359 3.63672 24.4141 6.75391 24.4141 9.51953C24.4141 10.6094 24.0273 10.9609 22.8672 10.9609H16.6797L17.1953 12.7539ZM14.4531 17.207V22.8789C14.4531 25.0352 15.6016 26.2188 17.6875 26.2188C21.4492 26.2188 25.3633 22.8203 25.3633 19.5039C25.3633 16.4805 22.5391 14.793 17.6641 13.1875L16.9141 14.8867C21.2148 16.3164 23.5703 17.418 23.5703 19.5039C23.5703 21.8477 20.4648 24.4258 17.6875 24.4141C16.5977 24.4141 16.2461 24.0391 16.2461 22.8789V16.6914L14.4531 17.207ZM10 14.4531H4.32812C2.18359 14.4531 1 15.6133 1 17.6992C1 21.4609 4.38672 25.375 7.70312 25.375C10.7266 25.375 12.4141 22.5508 14.0195 17.6758L12.3203 16.9258C10.8906 21.2266 9.78906 23.5703 7.70312 23.5703C5.35938 23.5703 2.79297 20.4766 2.79297 17.6992C2.79297 16.6094 3.16797 16.2461 4.32812 16.2461H10.5156L10 14.4531Z" fill="black" fill-opacity="0.85"/>
</g>
<defs>
<clipPath id="clip0_2124_49991">
<rect width="25.207" height="25.2305" fill="white" transform="translate(1 1)"/>
</clipPath>
</defs>
</svg>
