<svg width="28" height="28" viewBox="0 0 28 28" fill="none" xmlns="http://www.w3.org/2000/svg">
<g clip-path="url(#clip0_2124_62611)">
<path d="M8.75 3H3.10156C2.48047 3 2 3.45703 2 4.05469C2 4.65234 2.48047 5.12109 3.10156 5.12109H8.25781C8.67969 5.12109 8.98438 5.30859 9.16016 5.69531L16.8828 23.0391C17.3164 24.0234 18.0312 24.4805 19.1094 24.4805H24.8281C25.4375 24.4805 25.9297 24.0117 25.9297 23.4258C25.9297 22.8398 25.4375 22.3594 24.8281 22.3594H19.6367C19.168 22.3594 18.875 22.1836 18.6875 21.7969L11 4.46484C10.6016 3.55078 9.75781 3 8.75 3ZM24.8281 3H17.2461C16.625 3 16.1445 3.44531 16.1445 4.04297C16.1445 4.64062 16.625 5.09766 17.2461 5.09766H24.8281C25.4492 5.09766 25.918 4.64062 25.918 4.04297C25.918 3.44531 25.4492 3 24.8281 3Z" fill="black" fill-opacity="0.85"/>
</g>
<defs>
<clipPath id="clip0_2124_62611">
<rect width="23.9297" height="21.4805" fill="white" transform="translate(2 3)"/>
</clipPath>
</defs>
</svg>
