<svg width="28" height="28" viewBox="0 0 28 28" fill="none" xmlns="http://www.w3.org/2000/svg">
<path d="M13.9531 25.9062C20.4922 25.9062 25.9062 20.4805 25.9062 13.9531C25.9062 7.41406 20.4805 2 13.9414 2C7.41406 2 2 7.41406 2 13.9531C2 20.4805 7.42578 25.9062 13.9531 25.9062ZM13.9531 23.9141C8.42188 23.9141 4.00391 19.4844 4.00391 13.9531C4.00391 8.42188 8.41016 3.99219 13.9414 3.99219C19.4727 3.99219 23.9141 8.42188 23.9141 13.9531C23.9141 19.4844 19.4844 23.9141 13.9531 23.9141Z" fill="black" fill-opacity="0.85"/>
<path d="M15.043 7.92969C12.2188 7.92969 10.5195 9.95703 10.5195 12.6992V16.1914L10.5547 17.5859L9.82812 16.6602L8.65625 15.4414C8.50391 15.2891 8.29297 15.1836 8.04688 15.1836C7.56641 15.1836 7.19141 15.5469 7.19141 16.0156C7.19141 16.2617 7.27344 16.4609 7.44922 16.625L10.6133 19.7305C10.8125 19.9297 11.0586 20.0469 11.3281 20.0469C11.6094 20.0469 11.8437 19.9297 12.043 19.7305L15.2305 16.6133C15.3945 16.4492 15.4766 16.25 15.4766 16.0039C15.4766 15.5469 15.1133 15.1836 14.6211 15.1836C14.3984 15.1836 14.1758 15.2656 14.0234 15.4297L12.6055 16.9062L12.1016 17.5859L12.1602 16.1914V12.6992C12.1602 10.9766 13.1445 9.65234 14.9492 9.65234C16.8008 9.65234 17.9375 10.9414 17.9375 12.7109C17.9375 12.8516 17.9375 14.293 17.9375 14.3398C17.9375 14.832 18.2305 15.2188 18.7695 15.2188C19.3203 15.2188 19.6133 14.832 19.6133 14.3164C19.6133 14.2578 19.6133 12.8516 19.6133 12.7109C19.6133 9.96875 17.8555 7.92969 15.043 7.92969Z" fill="black" fill-opacity="0.85"/>
</svg>
