<svg width="28" height="28" viewBox="0 0 28 28" fill="none" xmlns="http://www.w3.org/2000/svg">
<path d="M13.9531 25.9062C20.4922 25.9062 25.9062 20.4805 25.9062 13.9531C25.9062 7.41406 20.4805 2 13.9414 2C7.41406 2 2 7.41406 2 13.9531C2 20.4805 7.42578 25.9062 13.9531 25.9062ZM13.9531 23.9141C8.42188 23.9141 4.00391 19.4844 4.00391 13.9531C4.00391 8.42188 8.41016 3.99219 13.9414 3.99219C19.4727 3.99219 23.9141 8.42188 23.9141 13.9531C23.9141 19.4844 19.4844 23.9141 13.9531 23.9141Z" fill="black" fill-opacity="0.85"/>
<path d="M8.45703 18.6875H12.5234C12.9453 18.6875 13.1914 18.418 13.1914 18.0078C13.1914 17.5625 12.9336 17.3164 12.5234 17.3164H9.74609V17.2227L11.457 15.0547C12.6289 13.6016 13.0156 12.7344 13.0156 11.7031C13.0156 10.1211 11.9375 8.97266 10.3203 8.97266C8.8203 8.97266 7.68359 10.2148 7.68359 11.4336C7.68359 11.8672 7.94141 12.1719 8.38672 12.1719C8.77344 12.1719 9.00781 11.9961 9.125 11.6094C9.34766 10.8242 9.64062 10.332 10.3086 10.332C11.0234 10.332 11.4102 10.9531 11.4102 11.7852C11.4102 12.7227 10.7656 13.6719 10.1445 14.4688L8.10547 17.0703C7.88281 17.3516 7.67188 17.6445 7.67188 18.0078C7.67188 18.4062 7.92969 18.6875 8.45703 18.6875ZM17.457 18.9336C19.7891 18.9336 20.4805 16.3086 20.4805 13.9531C20.4805 11.5977 19.7891 8.97266 17.457 8.97266C15.1133 8.97266 14.4219 11.5977 14.4219 13.9531C14.4219 16.3086 15.1133 18.9336 17.457 18.9336ZM17.457 17.5391C16.4961 17.5391 16.1328 15.9805 16.1328 13.9531C16.1328 11.9141 16.4961 10.3555 17.457 10.3555C18.4062 10.3555 18.7695 11.9141 18.7695 13.9531C18.7695 15.9805 18.4062 17.5391 17.457 17.5391Z" fill="black" fill-opacity="0.85"/>
</svg>
