<svg width="28" height="29" viewBox="0 0 28 29" fill="none" xmlns="http://www.w3.org/2000/svg">
<g clip-path="url(#clip0_2124_49975)">
<path d="M6.62695 7.66724C6.62695 12.1673 9.32226 13.2805 10.0723 21.0969C10.1191 21.5188 10.3535 21.7883 10.8105 21.7883H18.1348C18.5918 21.7883 18.8262 21.5188 18.873 21.0969C19.623 13.2805 22.3184 12.1673 22.3184 7.66724C22.3184 3.62427 18.8613 0.448486 14.4785 0.448486C10.0957 0.448486 6.62695 3.62427 6.62695 7.66724ZM8.39648 7.66724C8.39648 4.50317 11.1855 2.21802 14.4785 2.21802C17.7715 2.21802 20.5488 4.50317 20.5488 7.66724C20.5488 11.0305 18.3105 11.8274 17.2559 20.0188H11.6895C10.6348 11.8274 8.39648 11.0305 8.39648 7.66724ZM10.7637 24.3196H18.1816C18.5684 24.3196 18.873 24.0149 18.873 23.6282C18.873 23.2532 18.5684 22.9485 18.1816 22.9485H10.7637C10.377 22.9485 10.084 23.2532 10.084 23.6282C10.084 24.0149 10.377 24.3196 10.7637 24.3196ZM14.4785 27.718C16.2832 27.718 17.8066 26.8274 17.9121 25.4798H11.0332C11.1152 26.8274 12.6504 27.718 14.4785 27.718Z" fill="black" fill-opacity="0.85"/>
<path d="M21.9907 23.218C22.8931 24.1204 24.3228 24.1087 25.2134 23.218C26.0923 22.3391 26.0923 20.886 25.2134 20.0071L5.87745 0.659443C4.96339 -0.254619 3.49854 -0.184307 2.65479 0.659443C1.77589 1.53835 1.78761 3.01491 2.65479 3.8821L21.9907 23.218Z" fill="white"/>
<path d="M22.9634 22.2454C23.3267 22.6204 23.8892 22.6087 24.2407 22.2454C24.5923 21.8938 24.5923 21.3313 24.2407 20.968L4.9048 1.63209C4.55324 1.26881 3.9673 1.29225 3.61574 1.63209C3.2759 1.97193 3.28762 2.58131 3.61574 2.90943L22.9634 22.2454Z" fill="black" fill-opacity="0.85"/>
</g>
<defs>
<clipPath id="clip0_2124_49975">
<rect width="23.8726" height="28.8931" fill="white" transform="translate(2)"/>
</clipPath>
</defs>
</svg>
