<svg width="28" height="28" viewBox="0 0 28 28" fill="none" xmlns="http://www.w3.org/2000/svg">
<path d="M9.83203 4C3.03516 4 0 7.12891 0 13.5273V20.875C0 23.2422 1.21875 24.4375 3.59766 24.4375H23.4375C25.8164 24.4375 27.0352 23.2305 27.0352 20.875V13.5273C27.0352 7.12891 24 4 17.2031 4H9.83203ZM9.83203 5.88672H17.1914C22.7344 5.88672 25.1484 8.28906 25.1484 13.3984V20.7812C25.1484 21.9531 24.5156 22.5508 23.3906 22.5508H3.64453C2.49609 22.5508 1.88672 21.9531 1.88672 20.7812V13.3984C1.88672 8.28906 4.30078 5.88672 9.83203 5.88672Z" fill="black" fill-opacity="0.85"/>
</svg>
