<svg width="28" height="28" viewBox="0 0 28 28" fill="none" xmlns="http://www.w3.org/2000/svg">
<path d="M9.83203 24.4375H17.2031C24 24.4375 27.0352 21.3086 27.0352 14.9102V7.55078C27.0352 5.19531 25.8164 4 23.4375 4H3.59766C1.21875 4 0 5.19531 0 7.55078V14.9102C0 21.3086 3.03516 24.4375 9.83203 24.4375ZM9.83203 22.5508C4.30078 22.5508 1.88672 20.1484 1.88672 15.0273V7.65625C1.88672 6.48438 2.49609 5.88672 3.64453 5.88672H23.3906C24.5156 5.88672 25.1484 6.48438 25.1484 7.65625V15.0273C25.1484 20.1484 22.7344 22.5508 17.1914 22.5508H9.83203Z" fill="black" fill-opacity="0.85"/>
<path d="M9.84375 18.9766H13.207C13.5938 18.9766 13.9219 18.6484 13.9219 18.2617C13.9219 17.875 13.5938 17.5469 13.207 17.5469H10.6992V10.1992C10.6992 9.73047 10.3125 9.34375 9.85547 9.34375C9.38672 9.34375 9 9.73047 9 10.1992V18.0859C9 18.6367 9.30469 18.9766 9.84375 18.9766ZM17.0508 19.0938C17.5195 19.0938 17.9062 18.707 17.9062 18.2266V10.293C17.9062 9.68359 17.5312 9.33203 16.9219 9.33203C16.4297 9.33203 16.0312 9.60156 15.75 9.8125L14.4609 10.8203C14.2617 10.9727 14.0977 11.1953 14.0977 11.5117C14.0977 11.875 14.3438 12.1211 14.6953 12.1211C14.8828 12.1211 15 12.0742 15.1172 11.9805L16.1953 11.1133V18.2266C16.1953 18.707 16.582 19.0938 17.0508 19.0938Z" fill="black" fill-opacity="0.85"/>
</svg>
