<svg width="28" height="28" viewBox="0 0 28 28" fill="none" xmlns="http://www.w3.org/2000/svg">
<path d="M13.9531 25.918C20.4922 25.918 25.9062 20.5039 25.9062 13.9648C25.9062 7.4375 20.4805 2.01172 13.9414 2.01172C7.41406 2.01172 2 7.4375 2 13.9648C2 20.5039 7.42578 25.918 13.9531 25.918Z" fill="black" fill-opacity="0.85"/>
<path d="M10.1562 15.1719C8.43359 15.1719 7.4375 14.0703 7.4375 12.6992C7.4375 11.4805 8.23438 10.5664 9.27734 10.2734C9.47656 8.10547 11.2812 6.39453 13.4492 6.39453C15.125 6.39453 16.4609 7.32031 17.1992 8.75C19.1562 8.75 20.668 10.0977 20.668 11.9492C20.668 13.7305 19.2266 15.1719 17.3516 15.1719H10.1562ZM11.8203 20.3164C11.668 20.5859 11.3398 20.6914 11.0703 20.5273C10.8008 20.3867 10.707 20.0352 10.8711 19.7773L12.7227 16.5781C12.8867 16.2969 13.2031 16.2148 13.4609 16.3672C13.7422 16.5195 13.8477 16.8594 13.6719 17.1289L11.8203 20.3164ZM17.3164 20.3164C17.1758 20.5859 16.8477 20.6914 16.5781 20.5273C16.2969 20.3867 16.2148 20.0352 16.3672 19.7773L18.2188 16.5781C18.3828 16.2969 18.6992 16.2148 18.9688 16.3672C19.25 16.5195 19.3438 16.8594 19.1797 17.1289L17.3164 20.3164ZM14.5742 20.3164C14.4102 20.5859 14.082 20.6914 13.8242 20.5273C13.543 20.3867 13.4609 20.0352 13.6133 19.7773L15.4648 16.5781C15.6289 16.2969 15.9453 16.2148 16.2148 16.3672C16.4961 16.5195 16.5898 16.8594 16.4141 17.1289L14.5742 20.3164ZM9.06641 20.3164C8.91406 20.5859 8.58594 20.6914 8.31641 20.5273C8.04688 20.3867 7.95312 20.0352 8.10547 19.7773L9.96875 16.5781C10.1211 16.2969 10.4492 16.2148 10.707 16.3672C10.9883 16.5195 11.082 16.8594 10.918 17.1289L9.06641 20.3164Z" fill="white"/>
</svg>
