<svg width="28" height="28" viewBox="0 0 28 28" fill="none" xmlns="http://www.w3.org/2000/svg">
<path d="M13.9531 25.918C20.4922 25.918 25.9062 20.5039 25.9062 13.9648C25.9062 7.4375 20.4805 2.01172 13.9414 2.01172C7.41406 2.01172 2 7.4375 2 13.9648C2 20.5039 7.42578 25.918 13.9531 25.918Z" fill="black" fill-opacity="0.85"/>
<path d="M9.57031 20.8438C9.11328 20.8438 8.79688 20.5859 8.66797 20.0703L7.95312 17.4219C7.69531 16.5547 8.53906 16.2734 8.53906 14.375C8.53906 14.1641 8.53906 13.9062 8.5625 13.5781C8.5625 13.2617 8.43359 13.0273 8.11719 12.8984C7.08594 12.5117 6.44141 11.5273 6.44141 10.2734C6.44141 8.58594 7.73047 7.40234 9.58203 7.40234C10.2031 7.40234 10.8594 7.51953 11.5742 7.8125C12.1367 8.04688 11.8437 8.86719 11.2344 8.62109C10.625 8.375 10.0977 8.26953 9.58203 8.26953C8.24609 8.26953 7.29688 9.08984 7.29688 10.2734C7.29688 11.1758 7.78906 11.8555 8.49219 12.1367C8.86719 12.2656 9.01953 12.207 9.23047 11.9492C9.62891 11.4922 10.2734 11.1406 11.293 11.1406C13.4492 11.1406 14.3047 11.4688 16.625 11.4688C16.8828 11.4688 17.0586 11.2344 17.2578 10.8359L17.4922 10.4609C17.7734 9.92188 18.1602 9.35938 18.6406 8.90234C18.8516 8.17578 19.2852 7.68359 19.543 7.68359C19.8008 7.68359 20.1641 8.21094 20.3516 8.85547C21.2539 9.5 22.0391 10.2734 22.0391 11.0234C22.0391 11.5391 21.2773 12.2188 20.2227 12.3008C20.1523 16.2383 17.8789 15.3477 17.8789 18.5352V19.168C18.3828 19.2383 18.6172 19.5312 18.6172 19.9766C18.6172 20.5156 18.2539 20.8438 17.6328 20.8438H16.9531C16.332 20.8438 16.0039 20.5391 16.0039 19.9414C16.0039 19.4023 16.0859 18.7109 16.0859 18.0195C16.0859 17.457 15.9453 16.9062 15.8047 16.4258C15.2539 16.5781 14.2109 16.7422 13.25 16.7422C12.4414 16.7422 11.7734 16.625 10.7305 16.2266C10.3789 16.8125 10.25 17.1641 10.25 17.7383V19.1445C10.8477 19.2383 11.1758 19.5898 11.1758 19.9766C11.1758 20.5391 10.8125 20.8438 10.1914 20.8438H9.57031ZM20.1875 10.5547C20.3281 10.5898 20.4805 10.5195 20.5156 10.3672C20.5508 10.2266 20.4688 10.0625 20.3281 10.0273C20.1641 9.98047 20.0234 10.0859 19.9883 10.2266C19.9531 10.3789 20.0234 10.5078 20.1875 10.5547Z" fill="white"/>
</svg>
