<svg width="28" height="28" viewBox="0 0 28 28" fill="none" xmlns="http://www.w3.org/2000/svg">
<path d="M13.9531 25.9062C20.4922 25.9062 25.9062 20.4805 25.9062 13.9531C25.9062 7.41406 20.4805 2 13.9414 2C7.41406 2 2 7.41406 2 13.9531C2 20.4805 7.42578 25.9062 13.9531 25.9062ZM13.9531 23.9141C8.42188 23.9141 4.00391 19.4844 4.00391 13.9531C4.00391 8.42188 8.41016 3.99219 13.9414 3.99219C19.4727 3.99219 23.9141 8.42188 23.9141 13.9531C23.9141 19.4844 19.4844 23.9141 13.9531 23.9141Z" fill="black" fill-opacity="0.85"/>
<path d="M11.6797 18.8398C12.1133 18.8398 12.4766 18.5703 12.4766 18.0078V16.8359H12.8984C13.3438 16.8359 13.5664 16.543 13.5664 16.1445C13.5664 15.7695 13.3672 15.4766 12.8984 15.4766H12.4766V10.332C12.4766 9.52344 11.9492 9.06641 11.1758 9.06641C10.3555 9.06641 9.96875 9.48828 9.64062 10.2148L7.54297 14.7617C7.35547 15.2188 7.28516 15.5234 7.28516 15.8867C7.28516 16.4492 7.67188 16.8359 8.24609 16.8359H10.8711V18.0078C10.8711 18.6289 11.3047 18.8398 11.6797 18.8398ZM10.9062 15.5117H8.72656V15.4297L10.8594 10.543H10.9062V15.5117ZM15.8281 18.6875H19.168C19.5898 18.6875 19.9062 18.4414 19.9062 17.9727C19.9062 17.5156 19.5898 17.2695 19.168 17.2695H16.6953V9.98047C16.6953 9.46484 16.4492 9.06641 15.8398 9.06641C15.2891 9.06641 14.9961 9.41797 14.9961 9.98047V17.8086C14.9961 18.3594 15.2891 18.6875 15.8281 18.6875Z" fill="black" fill-opacity="0.85"/>
</svg>
