<svg width="28" height="28" viewBox="0 0 28 28" fill="none" xmlns="http://www.w3.org/2000/svg">
<g clip-path="url(#clip0_2124_50025)">
<path d="M1.13429 10.339C-0.0258653 11.0069 -0.318834 12.0499 0.360853 13.2218L2.04835 16.1515C2.52882 16.9835 3.20851 17.2765 4.0171 17.2765H12.6069L7.40382 20.2882C6.25538 20.9562 5.97413 21.9874 6.63038 23.1476L8.31788 26.089C8.99757 27.2609 10.0288 27.5187 11.189 26.8507L26.4468 18.0616C27.5952 17.3937 27.8882 16.339 27.2202 15.1788L25.521 12.2491C25.064 11.4523 24.4077 11.1241 23.6109 11.1241H14.9507L20.1655 8.11242C21.3257 7.44445 21.5952 6.40148 20.939 5.25304L19.2515 2.31164C18.5718 1.12804 17.5405 0.87023 16.3921 1.54992L1.13429 10.339ZM2.00148 11.5812L17.0366 2.90929C17.4234 2.67492 17.7749 2.78039 18.021 3.20226L19.5796 5.87414C19.814 6.27257 19.7085 6.64757 19.2984 6.88195L4.28663 15.5421C3.8882 15.7765 3.5132 15.671 3.27882 15.2609L1.74367 12.6124C1.50929 12.1905 1.59132 11.8155 2.00148 11.5812ZM6.94679 15.7648L12.3374 12.6359H20.5991L15.2202 15.7648H6.94679ZM8.27101 21.5187L23.2827 12.8468C23.6812 12.6124 24.0562 12.7179 24.2905 13.128L25.8257 15.7882C26.0601 16.2101 25.978 16.5851 25.5679 16.8194L10.5444 25.4796C10.146 25.714 9.79445 25.6085 9.54835 25.1984L8.00148 22.5148C7.75538 22.1163 7.86085 21.753 8.27101 21.5187ZM18.314 2.21789L18.9702 3.36632L20.9507 2.21789C21.2671 2.03039 21.3843 1.64367 21.1851 1.32726C21.0093 1.01086 20.6109 0.905387 20.2944 1.09289L18.314 2.21789ZM19.896 4.96007L20.564 6.10851L22.521 4.97179C22.8843 4.77257 22.978 4.43273 22.7554 4.06945C22.5796 3.72961 22.1929 3.63586 21.8648 3.82336L19.896 4.96007ZM15.7241 6.29601C15.9585 6.74132 16.5093 6.88195 16.9429 6.64757C17.3882 6.38976 17.5288 5.83898 17.2827 5.39367C17.0249 4.96007 16.4859 4.81945 16.0523 5.05382C15.6069 5.33507 15.478 5.86242 15.7241 6.29601ZM12.8062 7.98351C13.0405 8.41711 13.5796 8.56945 14.0132 8.33507C14.4702 8.07726 14.6343 7.51476 14.353 7.10461C14.1187 6.64757 13.5562 6.51867 13.1226 6.76476C12.6773 7.02257 12.5484 7.54992 12.8062 7.98351ZM9.86476 9.69445C10.1226 10.1163 10.6851 10.2452 11.1069 10.0226C11.5288 9.75304 11.6812 9.20226 11.4351 8.79211C11.1773 8.34679 10.6148 8.19445 10.2163 8.44054C9.77101 8.71007 9.60695 9.24914 9.86476 9.69445ZM6.93507 11.3819C7.19288 11.8038 7.74367 11.9444 8.18898 11.7101C8.62257 11.4523 8.77492 10.8898 8.49367 10.4796C8.28273 10.0343 7.72023 9.88195 7.27492 10.1398C6.84132 10.3741 6.68898 10.9484 6.93507 11.3819ZM4.0171 13.0694C4.2632 13.503 4.80226 13.6319 5.27101 13.3976C5.68117 13.1398 5.82179 12.589 5.58742 12.1671C5.3296 11.7218 4.79054 11.5812 4.35695 11.8155C3.89992 12.0616 3.77101 12.6359 4.0171 13.0694ZM9.25538 26.1827L8.59913 25.0226L6.61867 26.1827C6.30226 26.3702 6.18507 26.7452 6.38429 27.0734C6.56007 27.378 6.95851 27.4835 7.27492 27.3077L9.25538 26.1827ZM7.68507 23.4405L7.00538 22.2921L5.04835 23.4171C4.68507 23.628 4.59132 23.9679 4.81398 24.3312C4.98976 24.6593 5.37648 24.7648 5.7046 24.5773L7.68507 23.4405ZM21.9819 16.2335C22.2398 16.6788 22.7788 16.8194 23.2124 16.5734C23.6694 16.3273 23.7984 15.7648 23.5523 15.3312C23.3062 14.8976 22.7671 14.7569 22.2984 15.003C21.8882 15.2609 21.7476 15.8116 21.9819 16.2335ZM19.0874 17.921C19.2984 18.3663 19.8491 18.5187 20.3062 18.2609C20.728 18.0265 20.8804 17.4523 20.6343 17.0187C20.3765 16.5968 19.8257 16.4444 19.3921 16.6905C18.9468 16.9484 18.7944 17.5109 19.0874 17.921ZM16.1343 19.6085C16.3921 20.0538 16.9546 20.1944 17.353 19.9484C17.7984 19.6905 17.9624 19.1515 17.7046 18.7062C17.4585 18.2843 16.8843 18.1437 16.4624 18.378C16.0405 18.6476 15.8882 19.1984 16.1343 19.6085ZM13.2163 21.2843C13.4507 21.753 14.0249 21.8819 14.4468 21.6359C14.8921 21.378 15.021 20.8507 14.7632 20.4171C14.5288 19.9718 13.9898 19.8312 13.5562 20.0655C13.1109 20.3234 12.9351 20.8741 13.2163 21.2843ZM10.2866 23.0069C10.5444 23.4288 11.0952 23.5812 11.5171 23.3468C11.9624 23.0655 12.0913 22.5265 11.8452 22.0929C11.6109 21.6593 11.0601 21.5187 10.6265 21.753C10.1929 22.0109 10.0405 22.5616 10.2866 23.0069Z" fill="black" fill-opacity="0.85"/>
</g>
<defs>
<clipPath id="clip0_2124_50025">
<rect width="27.573" height="26.4241" fill="white" transform="translate(0 1)"/>
</clipPath>
</defs>
</svg>
