<svg width="28" height="28" viewBox="0 0 28 28" fill="none" xmlns="http://www.w3.org/2000/svg">
<path d="M13.9531 25.9062C20.4922 25.9062 25.9062 20.4805 25.9062 13.9531C25.9062 7.41406 20.4805 2 13.9414 2C7.41406 2 2 7.41406 2 13.9531C2 20.4805 7.42578 25.9062 13.9531 25.9062ZM13.9531 23.9141C8.42188 23.9141 4.00391 19.4844 4.00391 13.9531C4.00391 8.42188 8.41016 3.99219 13.9414 3.99219C19.4727 3.99219 23.9141 8.42188 23.9141 13.9531C23.9141 19.4844 19.4844 23.9141 13.9531 23.9141Z" fill="black" fill-opacity="0.85"/>
<path d="M12.6998 12.1484C13.2389 12.3008 13.6139 12.7344 13.9772 12.7344C14.4225 12.7344 14.8209 12.0547 15.6529 12.0547C16.4733 12.0547 16.8834 12.7344 17.3287 12.7344C17.6803 12.7344 18.0553 12.3125 18.6061 12.1484L16.5201 9.39452C16.0279 8.76171 15.3014 8.73827 14.8092 9.39452L12.6998 12.1484ZM10.2506 17.7031H21.0553C21.9459 17.7031 22.1686 16.8359 21.7115 16.25L19.11 12.8281C18.6998 12.6172 18.1139 13.4141 17.3287 13.4141C16.4498 13.4141 16.1217 12.7344 15.6529 12.7344C15.1842 12.7344 14.8444 13.4141 13.9772 13.4141C13.1803 13.4141 12.6061 12.6172 12.1959 12.8281L9.58267 16.25C9.12564 16.8242 9.36002 17.7031 10.2506 17.7031ZM6.8522 17.7031H8.69205C8.38736 17.1289 8.4108 16.332 8.87955 15.7227L11.9147 11.7734L11.6686 11.4805C11.1647 10.8711 10.4967 10.8711 9.99283 11.4805L6.23111 16.1562C5.71548 16.8125 5.93814 17.7031 6.8522 17.7031Z" fill="black" fill-opacity="0.85"/>
</svg>
