<svg width="28" height="28" viewBox="0 0 28 28" fill="none" xmlns="http://www.w3.org/2000/svg">
<g clip-path="url(#clip0_2124_78075)">
<path d="M6.67969 24.5977H20.8945C23.3555 24.5977 24.5742 23.3789 24.5742 20.9648V6.65625C24.5742 4.24219 23.3555 3.02344 20.8945 3.02344H6.67969C4.23047 3.02344 3 4.23047 3 6.65625V20.9648C3 23.3906 4.23047 24.5977 6.67969 24.5977Z" fill="black" fill-opacity="0.85"/>
<path d="M10.6875 19.6992C10.1836 19.6992 9.82031 19.2773 9.91406 18.7734L10.418 16.3945H9.31641C8.91797 16.3945 8.625 16.1016 8.625 15.6797C8.625 15.2227 8.96484 14.8711 9.44531 14.8711H10.7344L11.2383 12.4219H10.1836C9.77344 12.4219 9.48047 12.1172 9.48047 11.707C9.48047 11.2383 9.83203 10.8867 10.3008 10.8867H11.5781L12.082 8.41406C12.1758 7.95703 12.4805 7.71094 12.9727 7.71094C13.4648 7.71094 13.8164 8.14453 13.7109 8.63672L13.2539 10.8867H15.4922L16.0195 8.41406C16.1133 7.95703 16.418 7.71094 16.8867 7.71094C17.3906 7.71094 17.7539 8.13281 17.6602 8.63672L17.1797 10.8867H18.2578C18.6562 10.8867 18.9492 11.1914 18.9492 11.6016C18.9492 12.0703 18.6094 12.4219 18.1289 12.4219H16.8633L16.3477 14.8711H17.4023C17.8008 14.8711 18.0938 15.1758 18.0938 15.5859C18.0938 16.043 17.7539 16.3945 17.2734 16.3945H16.0195L15.4805 19.0078C15.3867 19.4531 15.0703 19.6992 14.5781 19.6992C14.0859 19.6992 13.7344 19.2773 13.8398 18.7734L14.332 16.4062H12.0938L11.543 19.0078C11.4492 19.4531 11.1562 19.6992 10.6875 19.6992ZM12.3047 15.0117H14.7305L15.3047 12.293H12.8672L12.3047 15.0117Z" fill="white"/>
</g>
<defs>
<clipPath id="clip0_2124_78075">
<rect width="21.5742" height="21.5977" fill="white" transform="translate(3 3)"/>
</clipPath>
</defs>
</svg>
