<svg width="28" height="28" viewBox="0 0 28 28" fill="none" xmlns="http://www.w3.org/2000/svg">
<path d="M13.9531 25.9062C20.4922 25.9062 25.9062 20.4805 25.9062 13.9531C25.9062 7.41406 20.4805 2 13.9414 2C7.41406 2 2 7.41406 2 13.9531C2 20.4805 7.42578 25.9062 13.9531 25.9062Z" fill="black" fill-opacity="0.85"/>
<path d="M10.6836 18.9688C10.1797 18.9688 9.78125 18.5703 9.78125 18.0781V10.7539L8.67969 11.6445C8.55078 11.7383 8.44531 11.7969 8.24609 11.7969C7.88281 11.7969 7.63672 11.5273 7.63672 11.1523C7.63672 10.8359 7.80078 10.6016 8.01172 10.4375L9.33594 9.40625C9.62891 9.19531 10.0391 8.91406 10.543 8.91406C11.1641 8.91406 11.5625 9.27734 11.5625 9.89844V18.0781C11.5625 18.5703 11.1523 18.9688 10.6836 18.9688ZM16.5781 19.0508C14.8086 19.0508 13.4492 17.9961 13.4492 16.2031C13.4492 14.8906 14.2461 13.9414 15.2773 13.707V13.6719C14.4922 13.4375 13.7305 12.7109 13.7305 11.4805C13.7305 9.78125 15.0898 8.86719 16.5781 8.86719C18.2891 8.86719 19.4609 9.92188 19.4609 11.4922C19.4609 12.6406 18.7344 13.4258 17.9258 13.6719V13.707C18.8867 13.9297 19.7188 14.8789 19.7188 16.2031C19.7188 17.8555 18.5 19.0508 16.5781 19.0508ZM16.5898 13.1211C17.3516 13.1211 17.75 12.4531 17.75 11.6562C17.75 10.8828 17.375 10.168 16.5898 10.168C15.8398 10.168 15.418 10.8828 15.418 11.6562C15.418 12.3711 15.8164 13.1211 16.5898 13.1211ZM16.5898 17.7383C17.4688 17.7383 17.9023 16.9531 17.9023 16.0625C17.9023 15.1484 17.4453 14.4219 16.5898 14.4219C15.7109 14.4219 15.2773 15.1953 15.2773 16.0625C15.2773 16.9531 15.7109 17.7383 16.5898 17.7383Z" fill="white"/>
</svg>
