<svg width="28" height="28" viewBox="0 0 28 28" fill="none" xmlns="http://www.w3.org/2000/svg">
<path d="M6.67969 24.5977H20.8945C23.3555 24.5977 24.5742 23.3789 24.5742 20.9648V6.65625C24.5742 4.24219 23.3555 3.02344 20.8945 3.02344H6.67969C4.23047 3.02344 3 4.23047 3 6.65625V20.9648C3 23.3906 4.23047 24.5977 6.67969 24.5977ZM6.70312 22.7109C5.53125 22.7109 4.88672 22.0898 4.88672 20.8711V6.75C4.88672 5.53125 5.53125 4.91016 6.70312 4.91016H20.8711C22.0312 4.91016 22.6875 5.53125 22.6875 6.75V20.8711C22.6875 22.0898 22.0312 22.7109 20.8711 22.7109H6.70312Z" fill="black" fill-opacity="0.85"/>
<path d="M17.4609 10.8867C16.9453 10.8867 16.6055 11.2383 16.6055 11.8008V13.8281L16.7812 15.6562L15.0938 13.8516L10.7813 9.53906C10.6172 9.375 10.3945 9.26953 10.1133 9.26953C9.59766 9.26953 9.25781 9.60938 9.25781 10.1367C9.25781 10.3711 9.36328 10.6055 9.52734 10.7695L13.8516 15.082L15.6797 16.793L13.9453 16.6055H11.8125C11.25 16.6055 10.8867 16.9453 10.8867 17.4609C10.8867 17.9766 11.2383 18.3164 11.7891 18.3164H17.3438C17.9414 18.3164 18.3281 18.0469 18.3281 17.3555V11.8242C18.3281 11.2734 17.9766 10.8867 17.4609 10.8867Z" fill="black" fill-opacity="0.85"/>
</svg>
