<svg width="28" height="29" viewBox="0 0 28 29" fill="none" xmlns="http://www.w3.org/2000/svg">
<path d="M4 14.8594C4 20.6133 8.61719 25.2305 14.3594 25.2305C20.1016 25.2305 24.707 20.6133 24.707 14.8594C24.707 14.2969 24.3086 13.8867 23.7344 13.8867C23.1836 13.8867 22.8203 14.2969 22.8203 14.8594C22.8203 19.5703 19.0586 23.3438 14.3594 23.3438C9.66016 23.3438 5.88672 19.5703 5.88672 14.8594C5.88672 10.1602 9.66016 6.39844 14.3594 6.39844C15.25 6.39844 16.082 6.46875 16.7734 6.63281L13.2695 10.1016C13.0938 10.2891 13 10.5234 13 10.7695C13 11.3086 13.3984 11.707 13.9258 11.707C14.2188 11.707 14.4414 11.6133 14.6055 11.4375L19.4336 6.58594C19.6445 6.38672 19.7266 6.15234 19.7266 5.88281C19.7266 5.625 19.6211 5.36719 19.4336 5.17969L14.6055 0.28125C14.4414 0.09375 14.207 0 13.9258 0C13.3984 0 13 0.421875 13 0.960938C13 1.20703 13.0938 1.44141 13.2578 1.62891L16.375 4.71094C15.7656 4.59375 15.0742 4.51172 14.3594 4.51172C8.61719 4.51172 4 9.11719 4 14.8594Z" fill="black" fill-opacity="0.85"/>
</svg>
