<svg width="28" height="29" viewBox="0 0 28 29" fill="none" xmlns="http://www.w3.org/2000/svg">
<path d="M12.8095 6.70042C14.2275 6.70042 15.3759 5.55198 15.3759 4.15745C15.3759 2.7512 14.2275 1.60276 12.8095 1.60276C11.4033 1.60276 10.2665 2.7512 10.2665 4.15745C10.2665 5.55198 11.4033 6.70042 12.8095 6.70042ZM21.8915 7.93089H8.59076L8.95404 8.21214C9.52826 8.0012 9.75092 7.45042 9.62201 6.96995C9.46967 6.43089 8.95404 5.98558 8.08685 6.1848L4.62982 6.98167C2.40326 7.4973 2.46186 10.3567 4.78217 10.3567H8.5556C8.89545 10.3567 9.16498 10.6379 9.16498 10.9778V15.9231L5.54389 19.5207C5.0517 20.0129 4.72357 20.5168 4.52435 21.2785L3.15326 26.4231C2.91889 27.302 3.43451 27.8528 4.04389 27.9465C4.62982 28.052 5.27435 27.7707 5.47357 27.0442L6.77435 22.216C6.90326 21.759 6.99701 21.5715 7.34857 21.2785L10.1845 18.8528C10.7587 18.384 11.7314 18.466 12.1298 19.1575L13.8525 22.1575L16.5829 27.302C16.9814 28.0637 17.8369 28.1457 18.3876 27.7942C18.8681 27.4778 19.0673 26.8332 18.7158 26.177L15.9736 20.9504L14.415 17.3996C14.1572 16.802 14.0165 16.1457 14.0165 15.466V10.9778C14.0165 10.6379 14.2861 10.3567 14.6376 10.3567H21.8915C22.5712 10.3567 23.1103 9.81761 23.1103 9.16136C23.1103 8.48167 22.5712 7.93089 21.8915 7.93089ZM24.3408 9.16136C24.3408 11.7395 23.8369 14.1535 22.5712 17.3762C22.4306 17.7512 22.5829 18.1262 22.9111 18.2668C23.2626 18.4075 23.6142 18.2785 23.79 17.927C25.1376 14.9621 25.6767 12.4192 25.6767 9.16136C25.6767 6.00901 25.1376 3.45433 23.7783 0.395733C23.6142 0.0441703 23.2626 -0.084736 22.9111 0.055889C22.5712 0.196514 22.4306 0.571514 22.5712 0.946514C23.8369 4.19261 24.3408 6.59495 24.3408 9.16136Z" fill="black" fill-opacity="0.85"/>
</svg>
