<svg width="28" height="28" viewBox="0 0 28 28" fill="none" xmlns="http://www.w3.org/2000/svg">
<path d="M8.87012 25.6299H19.6045C21.3154 25.6299 22.2295 24.6924 22.2295 22.8408V14.7666C22.2295 12.9268 21.3154 11.9893 19.6045 11.9893H8.87012C7.14746 11.9893 6.2334 12.9268 6.2334 14.7666V22.8408C6.2334 24.6924 7.14746 25.6299 8.87012 25.6299ZM8.94043 23.8604C8.43652 23.8604 8.13184 23.544 8.13184 22.9698V14.6377C8.13184 14.0635 8.43652 13.7588 8.94043 13.7588H19.5459C20.0498 13.7588 20.3428 14.0635 20.3428 14.6377V22.9698C20.3428 23.544 20.0498 23.8604 19.5459 23.8604H8.94043ZM8.2959 12.8916H10.1475V8.94238C10.1475 5.97754 12.0459 4.41894 14.2373 4.41894C16.4287 4.41894 18.3271 5.97754 18.3271 8.94238V12.8916H20.1904V9.18848C20.1904 4.78223 17.3076 2.64941 14.2373 2.64941C11.167 2.64941 8.2959 4.78223 8.2959 9.18848V12.8916Z" fill="black" fill-opacity="0.85"/>
<path d="M22.7686 27.2237C23.6709 28.1143 25.124 28.1143 25.9912 27.2002C26.8584 26.3096 26.8584 24.8916 25.9795 24.0127L5.88184 3.92676C5.00293 3.03613 3.5498 3.03613 2.65918 3.92676C1.78027 4.79394 1.78027 6.25879 2.65918 7.13769L22.7686 27.2237Z" fill="white"/>
<path d="M23.7412 26.251C24.0928 26.6026 24.667 26.6026 25.0186 26.251C25.3584 25.8994 25.3701 25.3252 25.0186 24.9737L4.9209 4.88769C4.56934 4.53613 3.9834 4.53613 3.63184 4.88769C3.29199 5.23926 3.29199 5.82519 3.63184 6.16504L23.7412 26.251Z" fill="black" fill-opacity="0.85"/>
</svg>
