<svg width="28" height="28" viewBox="0 0 28 28" fill="none" xmlns="http://www.w3.org/2000/svg">
<path d="M27.2398 16.5054L27.1577 8.05617C27.1577 7.7632 27.0288 7.45851 26.8413 7.27101C26.4077 6.83742 25.7984 6.84914 25.3765 7.27101C25.1655 7.48195 25.0718 7.72804 25.0718 7.99757L25.1304 11.5015L25.3413 14.3843L23.5015 12.3921L12.439 1.3296C12.0054 0.896011 11.3726 0.884292 10.9507 1.3296C10.5054 1.75148 10.5171 2.37257 10.9507 2.80617L22.0132 13.8804L24.0054 15.7085L21.1343 15.5093L17.6304 15.4507C17.3491 15.4507 17.103 15.5327 16.8921 15.7554C16.4702 16.1773 16.4585 16.7749 16.8921 17.2202C17.0913 17.396 17.3843 17.5249 17.689 17.5249L26.1265 17.6187C26.7593 17.6421 27.2632 17.1499 27.2398 16.5054Z" fill="black" fill-opacity="0.85"/>
<path d="M1.00079 11.771L1.09454 20.2085C1.09454 20.5132 1.22344 20.8062 1.39922 20.9937C1.84454 21.439 2.44219 21.4273 2.86407 20.9937C3.075 20.7827 3.16875 20.5484 3.16875 20.2671L3.11016 16.7515L2.91094 13.8804L4.73907 15.8843L15.8133 26.9468C16.2469 27.3804 16.8563 27.3804 17.2898 26.9468C17.7352 26.5132 17.7234 25.8921 17.2898 25.4585L6.22735 14.396L4.23516 12.5679L7.10625 12.7671L10.6219 12.8257C10.8914 12.8257 11.1258 12.7319 11.3367 12.521C11.7703 12.0991 11.782 11.4898 11.3367 11.0562C11.1492 10.8687 10.8562 10.7398 10.5633 10.7398L2.11407 10.6577C1.48125 10.6343 0.977348 11.103 1.00079 11.771Z" fill="black" fill-opacity="0.85"/>
</svg>
