<svg width="28" height="28" viewBox="0 0 28 28" fill="none" xmlns="http://www.w3.org/2000/svg">
<path d="M13.9531 25.9062C20.4922 25.9062 25.9062 20.4805 25.9062 13.9531C25.9062 7.41406 20.4805 2 13.9414 2C7.41406 2 2 7.41406 2 13.9531C2 20.4805 7.42578 25.9062 13.9531 25.9062ZM13.9531 23.9141C8.42188 23.9141 4.00391 19.4844 4.00391 13.9531C4.00391 8.42188 8.41016 3.99219 13.9414 3.99219C19.4727 3.99219 23.9141 8.42188 23.9141 13.9531C23.9141 19.4844 19.4844 23.9141 13.9531 23.9141Z" fill="black" fill-opacity="0.85"/>
<path d="M17.2698 10.1094C16.4144 10.1094 15.7581 10.5899 15.3011 11.7383C13.6487 10.0391 11.0003 8.51567 8.35182 8.31646C7.80104 8.2813 7.73073 8.67974 7.71901 9.00786C7.51979 11.9258 9.82838 14.457 12.887 14.668C12.0667 16.6367 10.7307 18.1953 9.41823 19.4258C9.20729 19.6016 9.26588 19.8711 9.39479 20.0703C10.0745 21.0898 12.1605 21.6992 13.5667 21.2188C13.8714 21.1016 13.93 20.9492 13.93 20.7031V18.5234C15.4886 18.4414 17.9144 17.457 17.5745 14.2461L17.5159 13.8008C18.2191 13.625 18.7815 13.2969 19.1214 12.9102L20.8089 13.1562C21.1839 13.2031 21.3831 12.6172 20.9847 12.4648L19.4847 11.8321C19.3675 10.9649 18.43 10.1094 17.2698 10.1094ZM12.3011 8.64458C13.3441 9.16021 14.2933 9.79302 15.1019 10.4727C15.5003 9.93364 15.9808 9.5938 16.5198 9.44146C15.7815 8.11724 14.8323 7.13286 13.6253 6.44146C13.18 6.18364 12.7347 6.38286 12.6175 6.85161C12.4534 7.44927 12.3362 8.04693 12.3011 8.64458ZM17.4456 11.75C17.4456 11.5274 17.6448 11.3399 17.8558 11.3399C18.0901 11.3399 18.2776 11.5274 18.2776 11.75C18.2776 11.9844 18.0901 12.1602 17.8558 12.1602C17.6448 12.1602 17.4456 11.9844 17.4456 11.75Z" fill="black" fill-opacity="0.85"/>
</svg>
