<svg width="35" height="28" viewBox="0 0 35 28" fill="none" xmlns="http://www.w3.org/2000/svg">
<path d="M30.8171 4.88672C31.5553 4.88672 32.2819 4.98047 32.985 5.15625C34.2858 5.48438 34.8249 3.69141 33.4069 3.30469C32.7389 3.12891 31.778 3 30.8171 3C24.2194 3 18.7819 9.02344 18.7819 16.2773C18.7819 21.1172 20.8327 24.3984 23.9616 24.3984C27.1022 24.3984 29.153 21.1172 29.153 16.2773C29.153 9.02344 23.7272 3 17.1178 3C10.5085 3 5.0944 9.02344 5.0944 16.2773C5.0944 21.1172 7.14518 24.3984 10.2858 24.3984C13.403 24.3984 15.4538 21.1172 15.4538 16.2773C15.4538 9.02344 10.028 3 3.43034 3C2.4694 3 1.50846 3.12891 0.840494 3.30469C-0.577475 3.69141 -0.0384125 5.48438 1.25065 5.15625C1.96549 4.98047 2.69206 4.88672 3.43034 4.88672C8.96159 4.88672 13.5671 10.0547 13.5671 16.2773C13.5671 20.0391 12.2194 22.5117 10.2858 22.5117C8.34049 22.5117 6.98112 20.0273 6.98112 16.2773C6.98112 10.0547 11.5866 4.88672 17.1178 4.88672C22.6608 4.88672 27.2663 10.0547 27.2663 16.2773C27.2663 20.0273 25.8952 22.5117 23.9616 22.5117C22.028 22.5117 20.6686 20.0391 20.6686 16.2773C20.6686 10.0547 25.2741 4.88672 30.8171 4.88672Z" fill="black" fill-opacity="0.85"/>
</svg>
