<svg width="28" height="33" viewBox="0 0 28 33" fill="none" xmlns="http://www.w3.org/2000/svg">
<g clip-path="url(#clip0_2124_50209)">
<path d="M13.5586 17.9531C17.8125 17.9531 21.1289 13.4297 21.1289 7.78125C21.1289 3.33984 18.0352 0 13.5586 0C9.08203 0 6 3.33984 6 7.78125C6 13.4297 9.30469 17.9531 13.5586 17.9531ZM11.918 17.1445L11.3672 19.2539C11.25 19.7227 11.4961 20.2266 12.0938 20.2266H15.0352C15.6328 20.2266 15.8906 19.7227 15.7617 19.2539L15.1875 17.1445H11.918ZM13.418 31.8867C13.875 31.8867 14.25 31.5 14.25 31.043C14.25 28.4766 16.582 27.8789 16.582 25.2773C16.582 22.6055 14.332 22.1016 14.3555 19.7695H12.6914C12.6797 22.957 14.9297 23.4492 14.9297 25.2773C14.9297 27.1406 12.5859 27.4219 12.5859 31.043C12.5859 31.5 12.9609 31.8867 13.418 31.8867Z" fill="black" fill-opacity="0.85"/>
</g>
<defs>
<clipPath id="clip0_2124_50209">
<rect width="15.1289" height="32.0508" fill="white" transform="translate(6)"/>
</clipPath>
</defs>
</svg>
