<svg width="28" height="28" viewBox="0 0 28 28" fill="none" xmlns="http://www.w3.org/2000/svg">
<path d="M13.9297 4C13.3086 4 12.875 4.43359 12.875 5.04297V16.8789L12.9688 19.3984L9.44141 15.5312L6.81641 12.9414C6.61719 12.7539 6.34766 12.6484 6.06641 12.6484C5.46875 12.6484 5.04688 13.0938 5.04688 13.6797C5.04688 13.9609 5.16406 14.2188 5.38672 14.4648L13.1445 22.2227C13.3672 22.457 13.6367 22.5859 13.9297 22.5859C14.2109 22.5859 14.4922 22.457 14.7148 22.2227L22.4609 14.4648C22.6953 14.2188 22.8125 13.9609 22.8125 13.6797C22.8125 13.0938 22.3789 12.6484 21.793 12.6484C21.5117 12.6484 21.2305 12.7539 21.043 12.9414L18.418 15.5312L14.8906 19.3867L14.9727 16.8789V5.04297C14.9727 4.43359 14.5391 4 13.9297 4ZM6.00781 22.5625C5.41016 22.5625 5 22.9961 5 23.6055C5 24.2148 5.41016 24.6602 6.00781 24.6602H21.8164C22.4258 24.6602 22.8477 24.2148 22.8477 23.6055C22.8477 22.9961 22.4258 22.5625 21.8164 22.5625H6.00781Z" fill="black" fill-opacity="0.85"/>
</svg>
