<svg width="28" height="28" viewBox="0 0 28 28" fill="none" xmlns="http://www.w3.org/2000/svg">
<g clip-path="url(#clip0_2124_24699)">
<path d="M3.67969 24.5977H23.9531C26.4141 24.5977 27.6328 23.3789 27.6328 20.9648V6.65625C27.6328 4.24219 26.4141 3.02344 23.9531 3.02344H3.67969C1.23047 3.02344 0 4.23047 0 6.65625V20.9648C0 23.3906 1.23047 24.5977 3.67969 24.5977ZM3.70312 22.7109C2.53125 22.7109 1.88672 22.0898 1.88672 20.8711V6.75C1.88672 5.53125 2.53125 4.91016 3.70312 4.91016H23.9297C25.0898 4.91016 25.7461 5.53125 25.7461 6.75V20.8711C25.7461 22.0898 25.0898 22.7109 23.9297 22.7109H3.70312Z" fill="black" fill-opacity="0.85"/>
<path d="M13.8164 19.6172C17.0156 19.6172 19.6406 17.0156 19.6406 13.793C19.6406 10.5937 17.0156 7.99219 13.8164 7.99219C10.6172 7.99219 8.00391 10.5937 8.00391 13.793C8.00391 17.0156 10.6172 19.6172 13.8164 19.6172Z" fill="black" fill-opacity="0.85"/>
</g>
<defs>
<clipPath id="clip0_2124_24699">
<rect width="27.6328" height="21.5977" fill="white" transform="translate(0 3)"/>
</clipPath>
</defs>
</svg>
