<svg width="30" height="28" viewBox="0 0 30 28" fill="none" xmlns="http://www.w3.org/2000/svg">
<g clip-path="url(#clip0_2124_24795)">
<path d="M13.2891 24.5742H16.7109C20.0039 24.5742 22.3828 24.1758 24.2344 23.2734C28.125 21.3984 30 17.7305 30 13.7812C30 12.1992 29.6953 10.6641 29.0859 9.26953H0.914062C0.304688 10.6641 0 12.1992 0 13.7812C0 17.7305 1.875 21.3984 5.76562 23.2734C7.61719 24.1758 9.99609 24.5742 13.2891 24.5742ZM15.0117 18.082C13.6172 18.082 12.5625 17.0273 12.5625 15.6797V12.1406L13.6641 11.6602V13.6172C14.0859 13.3125 14.5195 13.1836 15.0117 13.1836C16.3359 13.1836 17.4727 14.3086 17.4727 15.6797C17.4727 16.9922 16.3711 18.082 15.0117 18.082ZM15.0117 16.9922C15.7383 16.9922 16.3359 16.3828 16.3359 15.6797C16.3359 14.9531 15.7383 14.332 15.0117 14.332C14.2852 14.332 13.6641 14.9414 13.6641 15.6797C13.6641 16.3828 14.2734 16.9922 15.0117 16.9922ZM1.53516 8.08594H28.4648C27.5156 6.51562 26.1094 5.19141 24.2344 4.30078C22.3828 3.38672 20.0039 3 16.7109 3H13.2891C9.99609 3 7.61719 3.38672 5.76562 4.30078C3.89062 5.19141 2.48438 6.51562 1.53516 8.08594Z" fill="black" fill-opacity="0.85"/>
</g>
<defs>
<clipPath id="clip0_2124_24795">
<rect width="30" height="21.5742" fill="white" transform="translate(0 3)"/>
</clipPath>
</defs>
</svg>
