<svg width="28" height="28" viewBox="0 0 28 28" fill="none" xmlns="http://www.w3.org/2000/svg">
<path d="M20.3491 8.12109C21.7671 8.12109 22.9155 6.98438 22.9155 5.56641C22.9155 4.14844 21.7671 3 20.3491 3C18.9312 3 17.7944 4.14844 17.7944 5.56641C17.7944 6.98438 18.9312 8.12109 20.3491 8.12109ZM12.228 23.8828C12.9312 23.8828 13.4702 23.3086 13.4702 22.6289V17.168C13.4702 16.6523 13.2359 16.2891 12.9312 15.9844L9.31007 12.3516L13.6929 11.2383C13.9155 11.1797 14.103 11.3438 14.103 11.5664V13.8984C14.103 14.2266 14.2319 14.543 14.4663 14.7773L18.1929 18.5273C18.6851 19.0078 19.4819 19.0078 19.9741 18.5273C20.4546 18.0469 20.4663 17.2383 19.9741 16.7578L16.5874 13.3945V11.0273L18.4624 13.1602C18.7085 13.4297 19.0484 13.5938 19.3999 13.5938H25.0132C25.7046 13.5938 26.2437 13.043 26.2437 12.3398C26.2437 11.6484 25.7046 11.1094 25.0132 11.1094H19.9741L16.9859 7.66406C16.0601 6.59766 14.6304 6.17578 13.2593 6.51562L6.87257 8.12109C4.36476 8.75391 3.93117 11.8594 5.92335 13.4766L10.9859 17.6016V22.6289C10.9859 23.3086 11.5366 23.8828 12.228 23.8828ZM1.36476 23.5195C1.84523 24 2.65382 24 3.14601 23.5195L7.50538 19.1602C7.72804 18.9258 7.79835 18.7148 7.86867 18.3398L8.14992 16.7578L5.37257 14.4961V17.7539L1.36476 21.75C0.872572 22.2305 0.884291 23.0391 1.36476 23.5195Z" fill="black" fill-opacity="0.85"/>
</svg>
