<svg width="29" height="29" viewBox="0 0 29 29" fill="none" xmlns="http://www.w3.org/2000/svg">
<g clip-path="url(#clip0_2124_46028)">
<path d="M13.9687 25.9287C20.5078 25.9287 25.9218 20.503 25.9218 13.9756C25.9218 7.43652 20.4961 2.02246 13.957 2.02246C7.42968 2.02246 2.01562 7.43652 2.01562 13.9756C2.01562 20.503 7.44141 25.9287 13.9687 25.9287ZM13.9687 23.9366C8.43751 23.9366 4.01954 19.5069 4.01954 13.9756C4.01954 8.44434 8.42578 4.01465 13.957 4.01465C19.4883 4.01465 23.9297 8.44434 23.9297 13.9756C23.9297 19.5069 19.5 23.9366 13.9687 23.9366Z" fill="black" fill-opacity="0.85"/>
<path d="M20.5547 12.0068C20.5547 10.1201 19.4062 8.5498 17.8359 8.5498H16.6875C17.8476 9.38184 18.3398 10.624 18.3164 12.0772C18.2929 13.6709 17.6718 14.7842 17.1445 15.4756H18.0586C19.4765 15.4756 20.5547 13.9522 20.5547 12.0068ZM17.4726 12.0655C17.5078 9.7334 15.6445 7.99902 12.6914 7.96387L11.8242 7.95215C11.0156 7.94043 10.4062 8.01074 10.0664 8.09277C9.56251 8.22168 9.07032 8.51465 9.07032 9.12402C9.07032 9.34668 9.14063 9.55762 9.21094 9.6748C9.25782 9.75684 9.2461 9.82715 9.17579 9.8623C8.80079 10.0029 8.44922 10.3896 8.44922 10.8701C8.44922 11.1748 8.54297 11.4326 8.69532 11.5967C8.76563 11.6904 8.75391 11.7842 8.64844 11.8545C8.34375 12.0303 8.14454 12.3702 8.14454 12.792C8.14454 13.0733 8.23829 13.4014 8.40235 13.5537C8.50782 13.6475 8.4961 13.6944 8.37891 13.7881C8.19141 13.9639 8.07422 14.2569 8.07422 14.5967C8.07422 15.2295 8.54297 15.7334 9.16407 15.7334H11.3906C11.9766 15.7334 12.3398 16.0147 12.3398 16.4952C12.3398 17.3389 11.2852 18.8975 11.2852 19.9991C11.2852 20.585 11.6719 20.9366 12.164 20.9366C12.6211 20.9366 12.8437 20.6319 13.0664 20.1514C14.0273 18.3233 15.2812 16.835 16.2422 15.5342C17.039 14.4795 17.4492 13.5537 17.4726 12.0655Z" fill="black" fill-opacity="0.85"/>
</g>
<defs>
<clipPath id="clip0_2124_46028">
<rect width="23.9062" height="23.918" fill="white" transform="translate(2.01562 2.02246)"/>
</clipPath>
</defs>
</svg>
