<svg width="28" height="28" viewBox="0 0 28 28" fill="none" xmlns="http://www.w3.org/2000/svg">
<path d="M6.67969 24.5977H20.8945C23.3555 24.5977 24.5742 23.3789 24.5742 20.9648V6.65625C24.5742 4.24219 23.3555 3.02344 20.8945 3.02344H6.67969C4.23047 3.02344 3 4.23047 3 6.65625V20.9648C3 23.3906 4.23047 24.5977 6.67969 24.5977Z" fill="black" fill-opacity="0.85"/>
<path d="M9.17578 18.8438C8.74219 18.8438 8.39062 18.4922 8.39062 18.0586V9.48047C8.39062 9.04688 8.74219 8.68359 9.17578 8.68359C9.60938 8.68359 9.98438 9.04688 9.98438 9.48047V14.625H10.0078L12.6328 11.6953C12.9961 11.2734 13.4766 11.3672 13.7461 11.6367C13.9922 11.8594 14.0742 12.2578 13.7344 12.6094L11.7539 14.6719L13.7344 17.5078C14.0742 18.0117 13.9336 18.4453 13.6406 18.668C13.3008 18.8906 12.7852 18.8672 12.4688 18.3867L10.6055 15.6562L9.98438 16.2656V18.0586C9.98438 18.4922 9.60938 18.8438 9.17578 18.8438ZM15.9961 18.8555C15.5859 18.8555 15.2578 18.5156 15.2578 18.1055V12.1523C15.2578 11.7539 15.5742 11.4375 15.9727 11.4375C16.3711 11.4375 16.6992 11.7539 16.6992 12.1523V12.8906H16.7461C16.8984 12.1172 17.4023 11.4492 18.1641 11.4492C18.4102 11.4492 18.6094 11.5195 18.7734 11.6719C18.9023 11.8008 18.9727 11.9766 18.9727 12.2227C18.9727 12.457 18.8789 12.6328 18.7383 12.75C18.5508 12.9023 18.2344 12.9609 17.9414 12.9609C17.0508 12.9609 16.7461 13.6992 16.7461 14.5781V18.1055C16.7461 18.5156 16.418 18.8555 15.9961 18.8555ZM19.5586 18.7852C19.0195 18.7852 18.6094 18.375 18.6094 17.8359C18.6094 17.332 19.0195 16.9102 19.5586 16.9102C20.0625 16.9102 20.4844 17.332 20.4844 17.8359C20.4844 18.375 20.0625 18.7852 19.5586 18.7852Z" fill="white"/>
</svg>
