<svg width="28" height="28" viewBox="0 0 28 28" fill="none" xmlns="http://www.w3.org/2000/svg">
<path d="M2.31406 16.8805L11.7008 26.2672C13.4352 28.0016 15.1461 28.0133 16.8687 26.3023L26.3023 16.857C28.0133 15.1461 28.0016 13.4234 26.2672 11.6891L16.8922 2.31406C15.1578 0.579683 13.4469 0.556245 11.7242 2.2789L2.2789 11.7125C0.556245 13.4352 0.579683 15.1461 2.31406 16.8805ZM3.67343 15.5797C2.8414 14.7359 2.81796 13.857 3.68515 12.9898L12.9898 3.68515C13.857 2.81796 14.7359 2.82968 15.5797 3.67343L24.9078 13.0016C25.7398 13.8336 25.7633 14.7242 24.8961 15.5914L15.5914 24.8961C14.7242 25.7633 13.8219 25.7398 13.0016 24.9195L3.67343 15.5797Z" fill="black" fill-opacity="0.85"/>
</svg>
