<svg width="28" height="28" viewBox="0 0 28 28" fill="none" xmlns="http://www.w3.org/2000/svg">
<path d="M13.9531 25.9062C20.4922 25.9062 25.9062 20.4805 25.9062 13.9531C25.9062 7.41406 20.4805 2 13.9414 2C7.41406 2 2 7.41406 2 13.9531C2 20.4805 7.42578 25.9062 13.9531 25.9062ZM13.9531 23.9141C8.42188 23.9141 4.00391 19.4844 4.00391 13.9531C4.00391 8.42188 8.41016 3.99219 13.9414 3.99219C19.4727 3.99219 23.9141 8.42188 23.9141 13.9531C23.9141 19.4844 19.4844 23.9141 13.9531 23.9141Z" fill="black" fill-opacity="0.85"/>
<path d="M12.8516 18.9922C13.2734 18.9922 13.5898 18.6758 13.5898 18.2539V15.8398H13.7773C16.2148 15.8398 17.7617 16.4609 18.8516 18.5234C19.0742 18.9219 19.3555 18.9922 19.625 18.9922C19.9531 18.9922 20.2812 18.6992 20.2812 18.1484C20.2812 13.4844 18.2891 10.6016 13.7773 10.6016H13.5898V8.21094C13.5898 7.78906 13.2734 7.4375 12.8398 7.4375C12.5352 7.4375 12.3359 7.57812 12.0078 7.88281L7.01562 12.5352C6.78125 12.7578 6.69922 13.0039 6.69922 13.2148C6.69922 13.4258 6.78125 13.6719 7.01562 13.8945L12.0078 18.582C12.3008 18.8516 12.5469 18.9922 12.8516 18.9922Z" fill="black" fill-opacity="0.85"/>
</svg>
