<svg width="28" height="28" viewBox="0 0 28 28" fill="none" xmlns="http://www.w3.org/2000/svg">
<path d="M13.9531 25.9062C20.4922 25.9062 25.9062 20.4805 25.9062 13.9531C25.9062 7.41406 20.4805 2 13.9414 2C7.41406 2 2 7.41406 2 13.9531C2 20.4805 7.42578 25.9062 13.9531 25.9062ZM13.9531 23.9141C8.42188 23.9141 4.00391 19.4844 4.00391 13.9531C4.00391 8.42188 8.41016 3.99219 13.9414 3.99219C19.4727 3.99219 23.9141 8.42188 23.9141 13.9531C23.9141 19.4844 19.4844 23.9141 13.9531 23.9141Z" fill="black" fill-opacity="0.85"/>
<path d="M11.1523 19.5898C12.9336 19.5898 13.918 18.6641 14.2344 16.7188L14.6211 14.293H17.082C17.4688 14.293 17.7266 14.0469 17.7266 13.6836C17.7266 13.2969 17.4688 13.0391 17.082 13.0391H14.8203L15.1016 11.2578C15.2891 10.1211 15.7695 9.64062 16.8008 9.64062C17.1406 9.64062 17.293 9.67578 17.4805 9.71094C17.5742 9.73438 17.6797 9.74609 17.8086 9.74609C18.2305 9.74609 18.4766 9.47656 18.4766 9.125C18.4766 8.79688 18.2891 8.53906 17.8906 8.39844C17.6094 8.29297 17.2227 8.24609 16.7305 8.24609C14.9492 8.24609 13.9648 9.18359 13.6484 11.1289L13.3438 13.0391H10.9883C10.6016 13.0391 10.3555 13.2969 10.3555 13.6836C10.3555 14.0469 10.5898 14.293 10.9883 14.293H13.1562L12.793 16.5312C12.5938 17.7148 12.1133 18.207 11.082 18.207C10.7305 18.207 10.5898 18.1602 10.4023 18.125C10.2969 18.1016 10.2031 18.0898 10.0625 18.0898C9.64062 18.0898 9.39453 18.3594 9.39453 18.7109C9.39453 19.0508 9.58203 19.2969 9.98047 19.4375C10.2617 19.5547 10.6484 19.5898 11.1523 19.5898Z" fill="black" fill-opacity="0.85"/>
</svg>
