<svg width="34" height="28" viewBox="0 0 34 28" fill="none" xmlns="http://www.w3.org/2000/svg">
<path d="M12.7383 24.3281H24.1523C25.6992 24.3281 26.625 23.4492 26.625 21.9141V19.7812C26.625 19.7227 26.6602 19.6992 26.707 19.6992H28.1016C28.1602 19.6992 28.1836 19.7227 28.1836 19.7812V21.0938C28.1836 22.418 29.0625 23.2266 30.4922 23.2266H30.9961C32.4141 23.2266 33.293 22.4297 33.293 21.0938V12.6328C33.293 11.2969 32.4141 10.5 30.9961 10.5H30.4922C29.0625 10.5 28.1836 11.3086 28.1836 12.6328V13.7227C28.1836 13.7695 28.1602 13.8047 28.1016 13.8047H26.707C26.6602 13.8047 26.625 13.7695 26.625 13.7227V11.7305C26.625 10.2773 25.7227 9.39844 24.2227 9.39844H23.2969L21.3281 7.25391C20.8711 6.75 20.4023 6.55078 19.8281 6.55078H10.7227C10.1367 6.55078 9.66797 6.77344 9.21094 7.25391L7.24219 9.39844H5.95312C4.47656 9.39844 3.5625 10.2773 3.5625 11.7305V19.125C3.5625 20.5898 4.46484 21.4688 5.95312 21.4688H9.25781L11.2383 23.625C11.6953 24.1172 12.1172 24.3281 12.7383 24.3281ZM0.9375 20.0742C1.46484 20.0742 1.88672 19.6289 1.88672 19.125V16.3828H4.38281V14.4961H1.88672V11.7422C1.88672 11.2266 1.45312 10.8047 0.9375 10.8047C0.421875 10.8047 0 11.2383 0 11.7422V19.125C0 19.6406 0.433594 20.0742 0.9375 20.0742ZM15.2344 7.73438H17.1328V4.88672H20.8125C21.3281 4.88672 21.75 4.44141 21.75 3.9375C21.75 3.42188 21.3281 3 20.8125 3H11.5312C11.0156 3 10.5938 3.43359 10.5938 3.94922C10.5938 4.46484 11.0273 4.88672 11.5312 4.88672H15.2344V7.73438Z" fill="black" fill-opacity="0.85"/>
</svg>
