<svg width="28" height="28" viewBox="0 0 28 28" fill="none" xmlns="http://www.w3.org/2000/svg">
<path d="M6.67969 24.5977H20.8945C23.3555 24.5977 24.5742 23.3789 24.5742 20.9648V6.65625C24.5742 4.24219 23.3555 3.02344 20.8945 3.02344H6.67969C4.23047 3.02344 3 4.23047 3 6.65625V20.9648C3 23.3906 4.23047 24.5977 6.67969 24.5977ZM6.70312 22.7109C5.53125 22.7109 4.88672 22.0898 4.88672 20.8711V6.75C4.88672 5.53125 5.53125 4.91016 6.70312 4.91016H20.8711C22.0312 4.91016 22.6875 5.53125 22.6875 6.75V20.8711C22.6875 22.0898 22.0312 22.7109 20.8711 22.7109H6.70312Z" fill="black" fill-opacity="0.85"/>
<path d="M10.0664 18.7734C12.3984 18.7734 13.1016 16.1484 13.1016 13.793C13.1016 11.4375 12.3984 8.8125 10.0664 8.8125C7.72266 8.8125 7.03125 11.4375 7.03125 13.793C7.03125 16.1484 7.72266 18.7734 10.0664 18.7734ZM10.0664 17.3789C9.10547 17.3789 8.74219 15.8203 8.74219 13.793C8.74219 11.7539 9.10547 10.1953 10.0664 10.1953C11.0273 10.1953 11.3906 11.7539 11.3906 13.793C11.3906 15.8203 11.0273 17.3789 10.0664 17.3789ZM17.2969 18.7383C18.9727 18.7383 20.2734 17.6836 20.2734 15.9258C20.2734 14.4727 19.3945 13.7578 18.4102 13.6523V13.6172C19.4766 13.3359 19.9922 12.3867 19.9922 11.4023C19.9922 9.78516 18.7734 8.85938 17.25 8.85938C16.043 8.85938 14.9883 9.53906 14.6602 10.582C14.5898 10.8047 14.5664 11.0156 14.5664 11.2148C14.5664 11.6016 14.8242 11.9062 15.2812 11.9062C15.6914 11.9062 15.9141 11.7539 16.0312 11.3438C16.2188 10.6523 16.5938 10.2188 17.25 10.2188C18.0234 10.2188 18.3984 10.8164 18.3984 11.5898C18.3984 12.4453 17.918 13.0664 17.0391 13.0664H16.7578C16.3594 13.0664 16.1133 13.3125 16.1133 13.6992C16.1133 14.0859 16.3711 14.3086 16.7578 14.3086H17.0508C18.0469 14.3086 18.5977 14.8594 18.5977 15.8789C18.5977 16.6875 18.1641 17.3789 17.2969 17.3789C16.4414 17.3789 16.0664 16.8047 15.9141 16.2656C15.8086 15.8906 15.5625 15.6914 15.1758 15.6914C14.7188 15.6914 14.4141 15.9727 14.4141 16.4297C14.4141 16.6406 14.4492 16.8516 14.5078 17.0391C14.8477 18.1289 16.0312 18.7383 17.2969 18.7383Z" fill="black" fill-opacity="0.85"/>
</svg>
