<svg width="28" height="28" viewBox="0 0 28 28" fill="none" xmlns="http://www.w3.org/2000/svg">
<path d="M13.9531 25.9062C20.4922 25.9062 25.9062 20.4805 25.9062 13.9531C25.9062 7.41406 20.4805 2 13.9414 2C7.41406 2 2 7.41406 2 13.9531C2 20.4805 7.42578 25.9062 13.9531 25.9062ZM13.9531 23.9141C8.42188 23.9141 4.00391 19.4844 4.00391 13.9531C4.00391 8.42188 8.41016 3.99219 13.9414 3.99219C19.4727 3.99219 23.9141 8.42188 23.9141 13.9531C23.9141 19.4844 19.4844 23.9141 13.9531 23.9141Z" fill="black" fill-opacity="0.85"/>
<path d="M7.60156 12.1484C8.15234 12.1484 8.60938 11.6914 8.60938 11.1406C8.60938 10.5781 8.15234 10.1211 7.60156 10.1211C7.05078 10.1211 6.59375 10.5781 6.59375 11.1406C6.59375 11.6914 7.05078 12.1484 7.60156 12.1484ZM10.2266 9.24219C10.7773 9.24219 11.2344 8.78516 11.2344 8.23438C11.2344 7.68359 10.7773 7.22656 10.2266 7.22656C9.67578 7.22656 9.21875 7.68359 9.21875 8.23438C9.21875 8.78516 9.67578 9.24219 10.2266 9.24219ZM13.9414 8.12891C14.4922 8.12891 14.9492 7.67188 14.9492 7.12109C14.9492 6.57031 14.4922 6.11328 13.9414 6.11328C13.3906 6.11328 12.9336 6.57031 12.9336 7.12109C12.9336 7.67188 13.3906 8.12891 13.9414 8.12891ZM17.6562 9.24219C18.207 9.24219 18.6641 8.78516 18.6641 8.23438C18.6641 7.68359 18.207 7.22656 17.6562 7.22656C17.1055 7.22656 16.6484 7.68359 16.6484 8.23438C16.6484 8.78516 17.1055 9.24219 17.6562 9.24219ZM20.2812 12.1484C20.832 12.1484 21.2891 11.6914 21.2891 11.1406C21.2891 10.5781 20.832 10.1211 20.2812 10.1211C19.7305 10.1211 19.2734 10.5781 19.2734 11.1406C19.2734 11.6914 19.7305 12.1484 20.2812 12.1484ZM13.9414 21.2773C14.9844 21.2773 15.8164 20.4453 15.8164 19.4492C15.8164 18.7812 15.582 18.3359 14.9141 17.7266L10.332 13.5898C10.0859 13.3555 9.80469 13.3438 9.59375 13.4844C9.39453 13.6133 9.3125 13.8945 9.44141 14.1992L12.0195 19.7539C12.4062 20.6211 12.9219 21.2773 13.9414 21.2773Z" fill="black" fill-opacity="0.85"/>
</svg>
