<svg width="33" height="28" viewBox="0 0 33 28" fill="none" xmlns="http://www.w3.org/2000/svg">
<path d="M0 13.9531C0 14.457 0.410156 14.8906 0.902344 14.8906H31.9336C32.4258 14.8906 32.8359 14.457 32.8359 13.9531C32.8359 13.4492 32.4258 13.0273 31.9336 13.0273H0.902344C0.410156 13.0273 0 13.4492 0 13.9531ZM16.4297 25.9062C22.957 25.9062 28.3828 20.4805 28.3828 13.9531C28.3828 7.41406 22.9453 2 16.418 2C9.87891 2 4.47656 7.41406 4.47656 13.9531C4.47656 20.4805 9.89062 25.9062 16.4297 25.9062ZM16.4297 23.9141C10.8984 23.9141 6.46875 19.4844 6.46875 13.9531C6.46875 8.42188 10.8867 3.99219 16.418 3.99219C21.9375 3.99219 26.3906 8.42188 26.3906 13.9531C26.3906 19.4844 21.9492 23.9141 16.4297 23.9141Z" fill="black" fill-opacity="0.85"/>
</svg>
