<svg width="29" height="29" viewBox="0 0 29 29" fill="none" xmlns="http://www.w3.org/2000/svg">
<g clip-path="url(#clip0_2124_45838)">
<path d="M9.87504 5.60571C11.2813 5.60571 12.4063 4.49243 12.4063 3.08618C12.4063 1.67993 11.2813 0.554932 9.87504 0.554932C8.46879 0.554932 7.35551 1.67993 7.35551 3.08618C7.35551 4.49243 8.46879 5.60571 9.87504 5.60571ZM9.87504 16.9494C10.3555 16.9494 10.543 17.2776 10.8125 18.1214C11.211 19.305 12.3946 24.215 12.7931 25.6565C12.9923 26.3831 13.3673 26.6877 13.9181 26.6877C14.6681 26.6877 15.1251 26.0081 14.9142 25.2698C14.8321 24.9534 13.1329 17.8518 12.8985 16.3869C12.6993 15.0979 12.6407 12.4964 12.6407 11.2659C12.6407 11.0784 12.8517 11.0081 12.9688 11.1722C13.8478 12.4026 15.4649 14.6995 15.7813 15.0745C16.1212 15.473 16.6837 15.5433 17.1524 15.2854C17.7501 14.969 17.879 14.3245 17.6329 13.8792C17.5392 13.7034 17.4103 13.5276 17.2931 13.3519L14.2579 8.88696C13.297 7.46899 12.1017 6.83618 9.87504 6.83618C7.64848 6.83618 6.46489 7.46899 5.49223 8.88696L2.45708 13.3519C2.33989 13.5276 2.2227 13.7034 2.11724 13.8792C1.87114 14.3245 2.01177 14.969 2.60942 15.2854C3.07817 15.5433 3.62895 15.473 3.98051 15.0745C4.29692 14.6995 5.90239 12.4144 6.78129 11.1722C6.88676 11.0198 7.10942 11.0784 7.10942 11.2776C7.10942 12.5081 7.06254 15.0979 6.86333 16.3869C6.62895 17.8518 4.91801 24.9534 4.83598 25.2698C4.62504 26.0081 5.08208 26.6877 5.83208 26.6877C6.38286 26.6877 6.75786 26.3831 6.95708 25.6565C7.35551 24.215 8.55083 19.305 8.93754 18.1214C9.20708 17.2776 9.39458 16.9494 9.87504 16.9494Z" fill="black" fill-opacity="0.85"/>
<path d="M17.1291 27.5783C18.0314 27.5783 18.7229 26.9924 18.9572 26.09C19.0979 25.5979 19.3674 24.5197 19.6135 23.5119C19.8596 24.5197 20.1291 25.5979 20.2697 26.09C20.5041 26.9924 21.1955 27.5783 22.0979 27.5783C23.3635 27.5783 24.1486 26.3947 23.8557 25.2229C23.8439 25.1291 23.176 22.3518 22.8244 20.7697C23.4455 21.508 24.4299 21.5666 25.1213 21.0627C25.8244 20.5705 26.0588 19.5979 25.5197 18.7541L23.5744 15.7541C22.7189 14.4299 21.3361 13.9143 20.0236 13.9143H19.6135C19.2268 13.9143 19.0158 13.7853 18.6174 13.3752L17.3635 12.0627C16.6955 11.3596 15.465 11.3479 14.7736 12.1213C14.1291 12.8127 14.0236 13.8439 14.6564 14.6174C14.9963 15.051 15.9104 16.0822 16.6252 16.9846C16.7307 17.1018 16.7307 17.1018 16.7307 17.2189C16.7307 17.7932 16.6955 19.176 16.6018 19.8557C16.4377 20.758 15.3947 25.1057 15.3713 25.2229C15.0783 26.3947 15.8635 27.5783 17.1291 27.5783Z" fill="white"/>
<path d="M19.7302 13.7033C20.7614 13.7033 21.6169 12.8596 21.6169 11.8283C21.6169 10.7971 20.7614 9.95337 19.7302 9.95337C18.6989 9.95337 17.8552 10.7971 17.8552 11.8283C17.8552 12.8596 18.6989 13.7033 19.7302 13.7033ZM17.1286 26.6877C17.5739 26.6877 17.9489 26.4299 18.0895 25.8439C18.3356 24.965 19.0505 21.9416 19.2849 21.2033C19.4489 20.7229 19.4841 20.6877 19.613 20.6877C19.7419 20.6877 19.777 20.7229 19.9411 21.2033C20.1638 21.9416 20.8903 24.965 21.1364 25.8439C21.277 26.4299 21.652 26.6877 22.0974 26.6877C22.7653 26.6877 23.152 26.0667 22.988 25.4572C22.9294 25.258 21.9099 20.9103 21.7458 19.9964C21.6638 19.4339 21.6169 18.4494 21.6169 18.0393C21.6169 17.8518 21.8278 17.7933 21.9333 17.9455L23.4333 20.1135C23.7497 20.5705 24.2653 20.5823 24.6052 20.3362C24.9099 20.1252 25.0622 19.6917 24.7692 19.2464L22.8356 16.2464C22.1559 15.2151 21.1013 14.8049 20.0231 14.8049H19.613C18.8278 14.8049 18.488 14.5588 17.9606 13.9963L16.7184 12.6721C16.402 12.3439 15.7809 12.3322 15.4294 12.7424C15.113 13.0705 15.0075 13.551 15.277 13.9611C15.4059 14.1603 16.4841 15.3674 17.3278 16.4221C17.5153 16.6564 17.6208 16.8791 17.6208 17.2189C17.6208 17.8049 17.5974 19.2698 17.4802 19.9964C17.3161 20.9103 16.2966 25.258 16.238 25.4572C16.0739 26.0667 16.4606 26.6877 17.1286 26.6877Z" fill="black" fill-opacity="0.85"/>
</g>
<defs>
<clipPath id="clip0_2124_45838">
<rect width="23.8138" height="27.5742" fill="white" transform="translate(2.00195 0.00415039)"/>
</clipPath>
</defs>
</svg>
