<svg width="28" height="28" viewBox="0 0 28 28" fill="none" xmlns="http://www.w3.org/2000/svg">
<path d="M17.2344 6.12109C18.6524 6.12109 19.7891 4.98438 19.7891 3.56641C19.7891 2.14844 18.6524 1 17.2344 1C15.8047 1 14.668 2.14844 14.668 3.56641C14.668 4.98438 15.8047 6.12109 17.2344 6.12109ZM5.49223 14.6289C6.20708 14.957 6.85161 14.6406 7.13286 14.0781L9.27739 9.80078H11.8438C12.1133 9.80078 12.3008 10.0586 12.1602 10.3047L9.9102 14.7695C9.07817 16.4219 10.0977 18.4961 12.2774 18.3672L18.336 17.9922L16.0977 22.9609C15.8165 23.5938 16.086 24.3672 16.7188 24.6016C17.4219 24.8711 18.0313 24.6602 18.336 23.9805L21.4532 17.1367C21.793 16.3984 21.3125 15.3789 20.3633 15.3789H14.8672L17.3047 10.5156C17.3985 10.3047 17.6563 10.2461 17.8204 10.4219L20.6915 13.1641C21.2657 13.7148 22.2852 13.6211 22.6836 12.8359L25.1563 7.86719C25.461 7.24609 25.2735 6.49609 24.6172 6.19141C23.9961 5.89844 23.2579 6.15625 22.9532 6.76562L21.2188 10.1875L19.8125 8.76953C18.8633 7.82031 17.8555 7.32812 16.3086 7.32812H8.51567C8.04692 7.32812 7.62505 7.59766 7.42583 8.00781L4.91801 12.9883C4.61333 13.5977 4.8477 14.3125 5.49223 14.6289ZM2.12895 26.6641C2.51567 27.4727 3.37114 27.4844 3.76958 27.3086L9.95708 24.6133C10.2149 24.4961 10.4376 24.2969 10.5665 24.0273L12.8282 19.4688L12.3477 19.5039C11.3633 19.5625 10.5079 19.2812 9.87505 18.8008L8.48051 22.5391L2.77348 25C2.12895 25.2812 1.80083 26.0078 2.12895 26.6641ZM22.5782 27.8242C24.0196 27.8242 25.1563 26.6992 25.1563 25.2578C25.1563 23.8398 24.0196 22.7031 22.5782 22.7031C21.1602 22.7031 20.0352 23.8398 20.0352 25.2578C20.0352 26.6992 21.1602 27.8242 22.5782 27.8242Z" fill="black" fill-opacity="0.85"/>
</svg>
