<svg width="28" height="28" viewBox="0 0 28 28" fill="none" xmlns="http://www.w3.org/2000/svg">
<g clip-path="url(#clip0_2124_62644)">
<path d="M4.75781 9.88184H23.7891C25.4062 9.88184 25.5586 8.07715 24.5859 7.35059L15.9023 0.694336C14.6719 -0.231445 13.875 -0.231445 12.6445 0.694336L3.96094 7.35059C2.98828 8.07715 3.14062 9.88184 4.75781 9.88184ZM6.63281 8.13574C6.35156 8.13574 6.26953 7.80762 6.49219 7.63184L13.5586 2.21777C13.9453 1.9248 14.6016 1.93652 14.9766 2.21777L22.0547 7.63184C22.2773 7.80762 22.1953 8.13574 21.9141 8.13574H6.63281ZM3.99609 14.7217H24.5508C25.0898 14.7217 25.5469 14.2529 25.5469 13.7021C25.5469 13.1514 25.0898 12.6709 24.5508 12.6709H3.99609C3.45703 12.6709 3 13.1514 3 13.7021C3 14.2529 3.45703 14.7217 3.99609 14.7217ZM4.75781 17.5225C3.14062 17.5225 2.98828 19.3154 3.96094 20.0537L12.6445 26.71C13.875 27.6357 14.6719 27.6357 15.9023 26.71L24.5859 20.0537C25.5586 19.3154 25.4062 17.5225 23.7891 17.5225H4.75781ZM6.63281 19.2686H21.9141C22.1953 19.2686 22.2773 19.585 22.0547 19.7725L14.9766 25.1865C14.6016 25.4678 13.9453 25.4795 13.5586 25.1865L6.49219 19.7725C6.26953 19.585 6.35156 19.2686 6.63281 19.2686Z" fill="black" fill-opacity="0.85"/>
</g>
<defs>
<clipPath id="clip0_2124_62644">
<rect width="22.5469" height="27.416" fill="white" transform="translate(3)"/>
</clipPath>
</defs>
</svg>
