<svg width="28" height="28" viewBox="0 0 28 28" fill="none" xmlns="http://www.w3.org/2000/svg">
<g clip-path="url(#clip0_2124_88632)">
<path d="M13.9531 25.9062C20.4922 25.9062 25.9062 20.4805 25.9062 13.9531C25.9062 7.41406 20.4805 2 13.9414 2C7.41406 2 2 7.41406 2 13.9531C2 20.4805 7.42578 25.9062 13.9531 25.9062ZM13.9531 23.9141C8.42188 23.9141 4.00391 19.4844 4.00391 13.9531C4.00391 8.42188 8.41016 3.99219 13.9414 3.99219C19.4727 3.99219 23.9141 8.42188 23.9141 13.9531C23.9141 19.4844 19.4844 23.9141 13.9531 23.9141Z" fill="black" fill-opacity="0.85"/>
<path d="M12.6758 17.4805C15.3594 17.4805 17.5508 15.2891 17.5508 12.6055C17.5508 9.92188 15.3594 7.73047 12.6758 7.73047C9.99219 7.73047 7.80078 9.93359 7.80078 12.6055C7.80078 15.2773 9.99219 17.4805 12.6758 17.4805ZM12.6758 15.8867C10.8828 15.8867 9.39453 14.3984 9.39453 12.6055C9.39453 10.8125 10.8828 9.32422 12.6758 9.32422C14.4688 9.32422 15.9453 10.8008 15.9453 12.6055C15.9453 14.3984 14.4688 15.8867 12.6758 15.8867ZM19.0977 20.0703C19.6602 20.0703 20.0469 19.6602 20.0469 19.0742C20.0469 18.8047 19.918 18.5586 19.7305 18.3594L16.0273 14.6328L14.5273 15.9922L18.2656 19.7188C18.5 19.9648 18.7578 20.0703 19.0977 20.0703Z" fill="black" fill-opacity="0.85"/>
</g>
<defs>
<clipPath id="clip0_2124_88632">
<rect width="23.9062" height="23.918" fill="white" transform="translate(2 2)"/>
</clipPath>
</defs>
</svg>
