<svg width="28" height="28" viewBox="0 0 28 28" fill="none" xmlns="http://www.w3.org/2000/svg">
<path d="M23.6445 5.42969C23.6445 4.5625 22.9766 4.02344 21.957 4.02344L6.67578 4.01172C5.65625 4.01172 5 4.55078 5 5.41797C5 5.88672 5.21094 6.27344 5.44531 6.76562L12.7578 21.8242C13.25 22.8203 13.6953 23.1367 14.3164 23.1367C14.9375 23.1367 15.3945 22.8203 15.8867 21.8242L23.1875 6.76562C23.4336 6.28516 23.6445 5.89844 23.6445 5.42969ZM21.4062 6.02734C21.4062 6.07422 21.3828 6.12109 21.3594 6.17969L14.457 20.5117C14.4219 20.5703 14.3867 20.6172 14.3164 20.6172C14.2578 20.6172 14.2227 20.5703 14.1875 20.5117L7.28516 6.16797C7.26172 6.10938 7.23828 6.0625 7.23828 6.01562C7.23828 5.94531 7.27344 5.89844 7.36719 5.89844L21.2656 5.91016C21.3594 5.91016 21.4062 5.95703 21.4062 6.02734Z" fill="black" fill-opacity="0.85"/>
</svg>
