<svg width="28" height="28" viewBox="0 0 28 28" fill="none" xmlns="http://www.w3.org/2000/svg">
<path d="M13.9531 25.9062C20.4922 25.9062 25.9062 20.4805 25.9062 13.9531C25.9062 7.41406 20.4805 2 13.9414 2C7.41406 2 2 7.41406 2 13.9531C2 20.4805 7.42578 25.9062 13.9531 25.9062ZM13.9531 23.9141C8.42188 23.9141 4.00391 19.4844 4.00391 13.9531C4.00391 8.42188 8.41016 3.99219 13.9414 3.99219C19.4727 3.99219 23.9141 8.42188 23.9141 13.9531C23.9141 19.4844 19.4844 23.9141 13.9531 23.9141Z" fill="black" fill-opacity="0.85"/>
<path d="M11.3164 18.8164C11.7734 18.8164 12.1602 18.4297 12.1602 17.9609V10.0156C12.1602 9.41797 11.7852 9.06641 11.1758 9.06641C10.6953 9.06641 10.2969 9.33594 10.0156 9.54688L8.72656 10.543C8.51562 10.707 8.36328 10.9297 8.36328 11.2344C8.36328 11.5977 8.60938 11.8555 8.96094 11.8555C9.13672 11.8555 9.25391 11.7969 9.37109 11.7148L10.4492 10.8477V17.9609C10.4492 18.4297 10.8359 18.8164 11.3164 18.8164ZM15.5586 18.8516C15.9805 18.8516 16.1797 18.6758 16.332 18.2539L19.0156 11.1055C19.1445 10.7422 19.2383 10.4609 19.2383 10.1211C19.2383 9.58203 18.8164 9.21875 18.3008 9.21875H14.5156C14.1055 9.21875 13.8359 9.51172 13.8359 9.91016C13.8359 10.3086 14.1055 10.6016 14.5156 10.6016H17.5273V10.707L14.9258 17.4336C14.8203 17.6914 14.7852 17.8438 14.7852 18.125C14.7852 18.4648 14.9961 18.8516 15.5586 18.8516Z" fill="black" fill-opacity="0.85"/>
</svg>
