<svg width="34" height="28" viewBox="0 0 34 28" fill="none" xmlns="http://www.w3.org/2000/svg">
<path d="M0.196487 21.8398C1.22774 25.6602 2.29414 26.8203 4.70821 26.8203H18.6184C20.3527 26.8203 21.5129 25.8828 21.9465 24.125L26.3527 6.24219C26.9973 3.64062 25.7785 2 23.4934 2C20.7395 2 18.5129 4.61328 19.5793 8.25781L19.802 7.12109C17.0715 9.05469 15.6301 13.2148 16.0051 18.1953L16.5441 17.5039C13.9895 17.0586 11.0129 16.8125 8.05977 16.8125C1.79024 16.8125 -0.764451 18.3359 0.196487 21.8398ZM2.00117 21.3359C1.48555 19.4609 2.91524 18.6992 8.05977 18.6992C12.2316 18.6992 15.2316 19.2617 16.5676 19.3555C17.2824 19.3672 17.7277 18.9102 17.716 18.1953C17.634 13.7891 18.7941 10.2383 20.8449 8.70312C21.2902 8.33984 21.384 8.10547 21.2551 7.30859C20.9387 5.10547 22.1574 3.88672 23.4934 3.88672C24.3605 3.88672 24.8293 4.60156 24.548 5.75L20.1066 23.668C19.9074 24.4883 19.4035 24.9336 18.6184 24.9336H4.70821C3.39571 24.9336 2.85664 24.5117 2.00117 21.3359Z" fill="black" fill-opacity="0.85"/>
<path d="M27.3959 13.4727C27.2318 14.082 27.6537 14.4805 28.2865 14.293L32.9389 12.8984C33.5482 12.7227 33.7006 12.1133 33.267 11.6797L29.9037 8.14063C29.4584 7.67189 28.8842 7.82423 28.7201 8.4336L27.3959 13.4727Z" fill="black" fill-opacity="0.85"/>
<path d="M14.5869 9.28907L15.9111 4.23829C16.0752 3.64063 15.6533 3.23048 15.0439 3.41798L10.3564 4.82423C9.77048 5.00001 9.60641 5.59767 10.04 6.04298L13.415 9.5586C13.8603 10.0273 14.4228 9.91017 14.5869 9.28907Z" fill="black" fill-opacity="0.85"/>
</svg>
