<svg width="28" height="28" viewBox="0 0 28 28" fill="none" xmlns="http://www.w3.org/2000/svg">
<path d="M13.126 5.12109C14.5206 5.12109 15.6807 3.97266 15.6807 2.56641C15.6807 1.16016 14.5206 0 13.126 0C11.7198 0 10.5596 1.16016 10.5596 2.56641C10.5596 3.97266 11.7198 5.12109 13.126 5.12109ZM5.21588 8.56641H9.02447C9.20025 8.56641 9.3526 8.70703 9.32916 8.88281L8.96588 13.8281C8.83697 15.5977 9.86822 16.6992 11.3682 17.0039L16.2667 18.0352L17.3213 23.2852C17.462 24 18.1885 24.3398 18.7276 24.2344C19.3838 24.1055 19.8057 23.4609 19.6768 22.8047L18.4815 16.7695C18.3878 16.3008 17.9893 15.9727 17.544 15.8203L13.7589 14.6367L14.087 10.0664C14.1221 9.71484 14.4503 9.58594 14.7198 9.80859L16.5128 11.2969C16.7354 11.4727 16.9932 11.5781 17.2862 11.5781H22.7237C23.3917 11.5781 23.919 11.0391 23.919 10.3711C23.919 9.70312 23.3917 9.17578 22.7237 9.17578H17.7198L15.1065 6.99609C14.4503 6.45703 13.8526 6.15234 12.9151 6.15234H6.84479L8.19244 1.67578C8.37994 1.03125 8.01666 0.351562 7.38385 0.164062C6.73932 -0.0234375 6.04791 0.339844 5.86041 0.984375L4.06744 7.00781C3.83307 7.80469 4.20807 8.56641 5.21588 8.56641ZM10.3135 27.7734C10.8878 27.9492 11.6026 27.6914 11.8253 26.9766L13.6182 20.9883C13.6651 20.8242 13.6768 20.6484 13.6768 20.4609V18.6445L11.1456 18.1055C11.087 18.0938 11.0401 18.0938 10.9932 18.082L11.251 20.4609L9.50494 26.2852C9.31744 26.9062 9.68072 27.5859 10.3135 27.7734Z" fill="black" fill-opacity="0.85"/>
</svg>
