<svg width="29" height="28" viewBox="0 0 29 28" fill="none" xmlns="http://www.w3.org/2000/svg">
<path d="M3.05566 1.64923H4.97754C4.89551 1.21563 4.94238 0.758598 5.10645 0.348442H3.05566C2.69238 0.348442 2.39941 0.641411 2.39941 1.00469C2.39941 1.36798 2.69238 1.64923 3.05566 1.64923ZM10.3799 1.64923H21.1846L21.9229 0.55938C21.9697 0.500786 22.0166 0.418755 22.0635 0.348442H9.5127C9.55957 0.418755 9.60645 0.500786 9.65332 0.571098L10.3799 1.64923ZM26.5986 1.64923H27.5947C27.958 1.64923 28.2393 1.36798 28.2393 1.00469C28.2393 0.641411 27.958 0.348442 27.5947 0.348442H26.4697C26.6338 0.758598 26.6807 1.20391 26.5986 1.64923ZM15.8643 7.96563C17.2822 7.96563 18.4307 6.82891 18.4307 5.41094C18.4307 3.99298 17.2822 2.84454 15.8643 2.84454C14.4463 2.84454 13.3096 3.99298 13.3096 5.41094C13.3096 6.82891 14.4463 7.96563 15.8643 7.96563ZM9.65332 18.3602C11.0713 20.0594 13.3564 19.825 14.5049 18.1024L25.3096 1.93048C25.6846 1.35626 25.5322 0.606255 24.9697 0.231255C24.4189 -0.143745 23.6572 -0.0031206 23.2705 0.571098L18.3838 7.91876C17.833 8.76251 16.8721 9.20782 15.8643 9.20782C14.7979 9.20782 13.708 8.70391 13.0166 7.67266L8.30566 0.571098C7.93066 -0.0031206 7.18066 -0.143745 6.60645 0.231255C6.04395 0.606255 5.8916 1.35626 6.2666 1.93048L12.0439 10.5907C12.3135 10.9891 12.3252 11.5282 12.0439 11.9383L10.4385 14.3641L6.92285 11.3172C6.43066 10.8719 5.66895 10.8485 5.12988 11.3875L0.360352 16.1805C-0.120117 16.6727 -0.120117 17.411 0.360352 17.8915C0.887695 18.3954 1.61426 18.3368 2.05957 17.8915L5.99707 13.9774L9.65332 18.3602ZM12.5361 27.4188C12.9111 26.8563 12.7705 26.1415 12.1963 25.7547L7.90723 22.8836L10.2744 20.2704C9.73535 20.0125 9.24316 19.6141 8.78613 19.0868L7.94238 18.1024L5.05957 22.4383C4.68457 22.9891 4.8252 23.7508 5.3877 24.1375L10.8721 27.7586C11.4346 28.1454 12.1846 27.9696 12.5361 27.4188Z" fill="black" fill-opacity="0.85"/>
</svg>
