<svg width="28" height="28" viewBox="0 0 28 28" fill="none" xmlns="http://www.w3.org/2000/svg">
<g clip-path="url(#clip0_2124_50164)">
<path d="M10.9688 25.793H16.6406C21.9375 25.793 24.6211 23.0039 24.6211 18.2461C24.6211 14.5195 21.5508 9.53906 17.7539 4.47656C17.0039 3.49219 16.5586 3 15.293 3H12.3281C11.0625 3 10.6172 3.49219 9.86719 4.47656C6.07031 9.53906 3 14.5195 3 18.2461C3 23.0039 5.68359 25.793 10.9688 25.793ZM4.88672 18.2461C4.88672 15.1758 7.35938 10.9922 11.4141 5.4375C11.6953 5.0625 11.9062 4.88672 12.3633 4.88672H15.2578C15.7148 4.88672 15.9141 5.0625 16.1953 5.4375C20.2617 10.9922 22.7344 15.1758 22.7344 18.2461C22.7344 21.8086 20.7305 23.9062 16.6406 23.9062H10.9688C6.87891 23.9062 4.88672 21.8086 4.88672 18.2461ZM7.89844 8.69531L7.54688 10.582H20.0742L19.7227 8.69531H7.89844ZM4.5 19.0078H11.4609V17.1211H4.5V19.0078ZM13.8164 21.082C15.5156 21.082 16.8398 19.7578 16.8398 18.0469C16.8398 16.3594 15.5156 15.0234 13.8164 15.0234C12.1172 15.0234 10.7812 16.3594 10.7812 18.0469C10.7812 19.7578 12.1172 21.082 13.8164 21.082ZM13.8164 19.4297C13.043 19.4297 12.4336 18.832 12.4336 18.0469C12.4336 17.2852 13.043 16.6758 13.8164 16.6758C14.5898 16.6758 15.1875 17.2852 15.1875 18.0469C15.1875 18.832 14.5898 19.4297 13.8164 19.4297ZM16.1602 19.0078H23.1797V17.1211H16.1602V19.0078Z" fill="black" fill-opacity="0.85"/>
</g>
<defs>
<clipPath id="clip0_2124_50164">
<rect width="21.6211" height="22.8164" fill="white" transform="translate(3 3)"/>
</clipPath>
</defs>
</svg>
