<svg width="28" height="28" viewBox="0 0 28 28" fill="none" xmlns="http://www.w3.org/2000/svg">
<path d="M6.67969 24.5977H20.8945C23.3555 24.5977 24.5742 23.3789 24.5742 20.9648V6.65625C24.5742 4.24219 23.3555 3.02344 20.8945 3.02344H6.67969C4.23047 3.02344 3 4.23047 3 6.65625V20.9648C3 23.3906 4.23047 24.5977 6.67969 24.5977ZM6.70312 22.7109C5.53125 22.7109 4.88672 22.0898 4.88672 20.8711V6.75C4.88672 5.53125 5.53125 4.91016 6.70312 4.91016H20.8711C22.0312 4.91016 22.6875 5.53125 22.6875 6.75V20.8711C22.6875 22.0898 22.0312 22.7109 20.8711 22.7109H6.70312Z" fill="black" fill-opacity="0.85"/>
<path d="M10.5352 18.7734C12.8672 18.7734 13.5703 16.1484 13.5703 13.793C13.5703 11.4375 12.8672 8.8125 10.5352 8.8125C8.20312 8.8125 7.5 11.4375 7.5 13.793C7.5 16.1484 8.20312 18.7734 10.5352 18.7734ZM10.5352 17.3789C9.57422 17.3789 9.21094 15.8203 9.21094 13.793C9.21094 11.7539 9.57422 10.1953 10.5352 10.1953C11.4961 10.1953 11.8594 11.7539 11.8594 13.793C11.8594 15.8203 11.4961 17.3789 10.5352 17.3789ZM16.2422 18.6914C16.6641 18.6914 16.8633 18.5156 17.0156 18.0938L19.6992 10.9453C19.8281 10.582 19.9102 10.3008 19.9102 9.96094C19.9102 9.42188 19.5 9.05859 18.9844 9.05859H15.1992C14.7891 9.05859 14.5195 9.35156 14.5195 9.75C14.5195 10.1484 14.7891 10.4414 15.1992 10.4414H18.2109V10.5469L15.6094 17.2734C15.5039 17.5312 15.4688 17.6836 15.4688 17.9648C15.4688 18.3047 15.6797 18.6914 16.2422 18.6914Z" fill="black" fill-opacity="0.85"/>
</svg>
