<svg width="39" height="28" viewBox="0 0 39 28" fill="none" xmlns="http://www.w3.org/2000/svg">
<g clip-path="url(#clip0_2124_24877)">
<path d="M13.8633 22.1211C17.8125 22.1211 23.0391 21.9219 25.2656 21.6641C26.8477 21.4883 27.7383 20.6094 27.7383 19.1094V17.0469C27.7383 15.0664 27.3398 13.9648 26.25 12.5586L25.2656 11.2812C24.832 9.17188 24.0586 6.95703 23.6484 6.08984C23.0273 4.76562 21.8086 3.98047 20.25 3.76953C19.4648 3.66406 16.8984 3.60547 13.8633 3.60547C10.8398 3.60547 8.27344 3.67578 7.48828 3.76953C5.92969 3.95703 4.71094 4.76562 4.08984 6.08984C3.67969 6.95703 2.90625 9.17188 2.47266 11.2812L1.48828 12.5586C0.398438 13.9648 0 15.0664 0 17.0469V23.7969C0 24.6641 0.679688 25.3438 1.55859 25.3438H2.94141C3.80859 25.3438 4.48828 24.6641 4.48828 23.7969V21.8398C7.08984 22.0039 10.8516 22.1211 13.8633 22.1211ZM4.83984 10.2969C5.12109 9.01953 5.68359 7.34375 6.07031 6.66406C6.38672 6.11328 6.72656 5.86719 7.35938 5.78516C8.25 5.66797 10.2422 5.58594 13.8633 5.58594C17.4961 5.58594 19.4883 5.64453 20.3789 5.78516C21 5.87891 21.3398 6.11328 21.668 6.66406C22.0664 7.33203 22.5938 9.01953 22.8984 10.2969C23.0039 10.7305 22.8281 10.8945 22.3711 10.8711C20.4258 10.7422 18.1055 10.625 13.8633 10.625C9.63281 10.625 7.3125 10.7422 5.36719 10.8711C4.91016 10.8945 4.74609 10.7305 4.83984 10.2969ZM4.41797 18.3242C3.43359 18.3242 2.69531 17.5742 2.69531 16.6016C2.69531 15.6172 3.43359 14.8789 4.41797 14.8789C5.39062 14.8789 6.14062 15.6172 6.14062 16.6016C6.14062 17.5742 5.39062 18.3242 4.41797 18.3242ZM10.7695 18.4883C9.97266 18.4883 9.41016 17.9375 9.41016 17.1289C9.41016 16.332 9.97266 15.7812 10.7695 15.7812H16.9688C17.7656 15.7812 18.3281 16.332 18.3281 17.1289C18.3281 17.9375 17.7656 18.4883 16.9688 18.4883H10.7695ZM22.3242 18.6289C21.3398 18.6289 20.6016 17.8789 20.6016 16.9062C20.6016 15.9219 21.3398 15.1836 22.3242 15.1836C23.2969 15.1836 24.0352 15.9219 24.0352 16.9062C24.0352 17.8789 23.2969 18.6289 22.3242 18.6289Z" fill="black" fill-opacity="0.85"/>
<path d="M11.168 26.9375H12.5508C14.3086 26.9375 15.7031 25.543 15.7031 23.7969V23.5273C18.1172 23.6445 21.0469 23.7148 23.4844 23.7148C25.9102 23.7148 28.8516 23.6445 31.2656 23.5273V23.7969C31.2656 25.543 32.6602 26.9375 34.418 26.9375H35.7891C37.5469 26.9375 38.9531 25.543 38.9531 23.7969V17.0469C38.9531 14.7148 38.4258 13.2617 37.1367 11.5742L36.3633 10.5898C35.8945 8.48047 35.1328 6.3125 34.7109 5.41016C33.832 3.54688 32.1211 2.45703 30.0703 2.1875C29.2031 2.05859 26.543 2 23.4844 2C20.4258 2 17.7656 2.07031 16.9102 2.1875C14.8242 2.43359 13.125 3.55859 12.2461 5.41016C11.8359 6.3125 11.0625 8.48047 10.5938 10.5898L9.83204 11.5742C8.53126 13.2617 8.01562 14.7148 8.01562 17.0469V23.7969C8.01562 25.543 9.41016 26.9375 11.168 26.9375Z" fill="white"/>
<path d="M14.4492 10.2969C14.7305 9.01953 15.3047 7.34375 15.6914 6.66406C16.0078 6.11328 16.3477 5.86719 16.9805 5.78516C17.8594 5.66797 19.8516 5.58594 23.4844 5.58594C27.1055 5.58594 29.0977 5.64453 29.9883 5.78516C30.6211 5.87891 30.9492 6.11328 31.2773 6.66406C31.6758 7.33203 32.2031 9.01953 32.5078 10.2969C32.625 10.7305 32.4375 10.8945 31.9805 10.8711C30.0352 10.7422 27.7148 10.625 23.4844 10.625C19.2422 10.625 16.9219 10.7422 14.9766 10.8711C14.5312 10.8945 14.3555 10.7305 14.4492 10.2969ZM15.0352 18.957C13.957 18.957 13.1484 18.1367 13.1484 17.0703C13.1484 15.9922 13.957 15.1836 15.0352 15.1836C16.1016 15.1836 16.9102 15.9922 16.9102 17.0703C16.9102 18.1367 16.1016 18.957 15.0352 18.957ZM20.3789 18.4883C19.582 18.4883 19.0312 17.9375 19.0312 17.1289C19.0312 16.332 19.582 15.7812 20.3789 15.7812H26.5781C27.3867 15.7812 27.9375 16.332 27.9375 17.1289C27.9375 17.9375 27.3867 18.4883 26.5781 18.4883H20.3789ZM31.9336 18.957C30.8672 18.957 30.0469 18.1367 30.0469 17.0703C30.0469 15.9922 30.8672 15.1836 31.9336 15.1836C33 15.1836 33.8203 15.9922 33.8203 17.0703C33.8203 18.1367 33 18.957 31.9336 18.957ZM23.4844 22.1211C27.4219 22.1211 32.6484 21.9219 34.875 21.6641C36.457 21.4883 37.3477 20.6094 37.3477 19.1094V17.0469C37.3477 15.0664 36.9492 13.9648 35.8594 12.5586L34.875 11.2812C34.4414 9.17188 33.668 6.95703 33.2578 6.08984C32.6367 4.76562 31.418 3.98047 29.8594 3.76953C29.0742 3.66406 26.5078 3.60547 23.4844 3.60547C20.4492 3.60547 17.8828 3.67578 17.0977 3.76953C15.5391 3.95703 14.332 4.76562 13.6992 6.08984C13.3008 6.95703 12.5156 9.17188 12.0938 11.2812L11.0977 12.5586C10.0195 13.9648 9.62109 15.0664 9.62109 17.0469V19.1094C9.62109 20.6094 10.5 21.4883 12.0938 21.6641C14.3086 21.9219 19.5469 22.1211 23.4844 22.1211ZM11.168 25.3438H12.5508C13.4297 25.3438 14.0977 24.6641 14.0977 23.7969V20.8789L9.62109 18.7461V23.7969C9.62109 24.6641 10.2891 25.3438 11.168 25.3438ZM34.418 25.3438H35.7891C36.668 25.3438 37.3477 24.6641 37.3477 23.7969V18.7461L32.8594 20.8789V23.7969C32.8594 24.6641 33.5391 25.3438 34.418 25.3438Z" fill="black" fill-opacity="0.85"/>
</g>
<defs>
<clipPath id="clip0_2124_24877">
<rect width="38.9531" height="24.9961" fill="white" transform="translate(0 2)"/>
</clipPath>
</defs>
</svg>
