<svg width="28" height="28" viewBox="0 0 28 28" fill="none" xmlns="http://www.w3.org/2000/svg">
<path d="M6.67969 24.5977H20.8945C23.3555 24.5977 24.5742 23.3789 24.5742 20.9648V6.65625C24.5742 4.24219 23.3555 3.02344 20.8945 3.02344H6.67969C4.23047 3.02344 3 4.23047 3 6.65625V20.9648C3 23.3906 4.23047 24.5977 6.67969 24.5977ZM6.70312 22.7109C5.53125 22.7109 4.88672 22.0898 4.88672 20.8711V6.75C4.88672 5.53125 5.53125 4.91016 6.70312 4.91016H20.8711C22.0312 4.91016 22.6875 5.53125 22.6875 6.75V20.8711C22.6875 22.0898 22.0312 22.7109 20.8711 22.7109H6.70312Z" fill="black" fill-opacity="0.85"/>
<path d="M10.1133 18.7383C11.8008 18.7383 13.0898 17.6836 13.0898 15.9258C13.0898 14.4727 12.2227 13.7578 11.2383 13.6523V13.6172C12.293 13.3359 12.8086 12.3867 12.8086 11.4023C12.8086 9.78516 11.6016 8.85938 10.0781 8.85938C8.85938 8.85938 7.81641 9.53906 7.47656 10.582C7.41797 10.8047 7.39453 11.0156 7.39453 11.2148C7.39453 11.6016 7.65234 11.9062 8.10938 11.9062C8.50781 11.9062 8.74219 11.7539 8.85938 11.3437C9.04688 10.6523 9.41016 10.2187 10.0781 10.2187C10.8516 10.2187 11.2148 10.8164 11.2148 11.5898C11.2148 12.4453 10.7461 13.0664 9.86719 13.0664H9.58594C9.1875 13.0664 8.92969 13.3125 8.92969 13.6992C8.92969 14.0859 9.19922 14.3086 9.58594 14.3086H9.87891C10.875 14.3086 11.4258 14.8594 11.4258 15.8789C11.4258 16.6875 10.9922 17.3789 10.125 17.3789C9.26953 17.3789 8.88281 16.8047 8.74219 16.2656C8.63672 15.8906 8.37891 15.6914 8.00391 15.6914C7.54688 15.6914 7.24219 15.9727 7.24219 16.4297C7.24219 16.6406 7.26562 16.8516 7.33594 17.0391C7.66406 18.1289 8.85938 18.7383 10.1133 18.7383ZM17.4375 18.7734C19.2188 18.7734 20.25 17.2734 20.25 15.4336C20.25 13.8516 19.4766 12.3516 17.9297 12.3516C16.9805 12.3516 16.2539 12.9844 15.9961 13.9922H15.9492C15.9492 13.9453 15.9492 13.8984 15.9492 13.8633C15.9492 12.5625 16.1016 10.207 17.4141 10.207C17.9414 10.207 18.293 10.582 18.5039 11.0742C18.668 11.4375 18.8906 11.6016 19.2656 11.6016C19.7344 11.6016 19.9453 11.2852 19.9453 10.8984C19.9453 10.7695 19.9219 10.6289 19.8867 10.4766C19.6406 9.46875 18.6211 8.83594 17.4492 8.83594C15.0469 8.83594 14.3438 11.5312 14.3438 13.9102C14.3438 16.125 15.0586 18.7734 17.4375 18.7734ZM17.4141 17.4023C16.5234 17.4023 16.1719 16.3008 16.1719 15.457C16.1719 14.6016 16.5586 13.6289 17.4023 13.6289C18.2695 13.6289 18.6328 14.6367 18.6094 15.5039C18.6094 16.3594 18.2227 17.4023 17.4141 17.4023Z" fill="black" fill-opacity="0.85"/>
</svg>
