<svg width="28" height="28" viewBox="0 0 28 28" fill="none" xmlns="http://www.w3.org/2000/svg">
<path d="M13.9531 25.918C20.4922 25.918 25.9062 20.5039 25.9062 13.9648C25.9062 7.4375 20.4805 2.01172 13.9414 2.01172C7.41406 2.01172 2 7.4375 2 13.9648C2 20.5039 7.42578 25.918 13.9531 25.918Z" fill="black" fill-opacity="0.85"/>
<path d="M6.13635 16.25L10.2028 10.9883C10.4606 10.6836 10.7067 10.543 10.9762 10.543C11.1871 10.543 11.4098 10.625 11.6442 10.7539L16.8941 13.5664L20.9254 11.3984C21.6402 11.0117 22.2848 11.7148 21.7808 12.3711L17.691 17.6562C17.4449 17.9727 17.1754 18.1016 16.9058 18.1016C16.7066 18.1016 16.484 18.0195 16.2496 17.8906L10.9879 15.0781L6.99182 17.2461C6.30041 17.6211 5.58557 16.9766 6.13635 16.25Z" fill="white"/>
</svg>
