<svg width="28" height="28" viewBox="0 0 28 28" fill="none" xmlns="http://www.w3.org/2000/svg">
<path d="M6.67969 24.5977H20.8945C23.3555 24.5977 24.5742 23.3789 24.5742 20.9648V6.65625C24.5742 4.24219 23.3555 3.02344 20.8945 3.02344H6.67969C4.23047 3.02344 3 4.23047 3 6.65625V20.9648C3 23.3906 4.23047 24.5977 6.67969 24.5977Z" fill="black" fill-opacity="0.85"/>
<path d="M11.0625 18.832C10.6758 18.832 10.207 18.6094 10.207 17.9648V16.7695H7.51173C6.92579 16.7695 6.51562 16.3711 6.51562 15.7852C6.51562 15.4102 6.58595 15.0938 6.78517 14.625L8.94142 9.9375C9.28126 9.1875 9.69141 8.75391 10.5352 8.75391C11.332 8.75391 11.8828 9.22266 11.8828 10.0664V15.3633H12.3047C12.7852 15.3633 12.9961 15.668 12.9961 16.0547C12.9961 16.4648 12.7734 16.7695 12.3047 16.7695H11.8828V17.9648C11.8828 18.5508 11.5078 18.832 11.0625 18.832ZM10.2422 15.3984V10.2773H10.1953L8.01563 15.3164V15.3984H10.2422ZM17.4375 18.9258C14.9766 18.9258 14.25 16.1953 14.25 13.9102C14.25 11.4609 14.9766 8.68359 17.4609 8.68359C18.668 8.68359 19.7109 9.32812 19.9688 10.3711C20.0156 10.5234 20.0273 10.6758 20.0273 10.8047C20.0273 11.2031 19.8164 11.5313 19.3359 11.5313C18.9375 11.5313 18.7031 11.3672 18.5273 10.9922C18.3281 10.4883 17.9648 10.1016 17.4141 10.1016C16.0664 10.1016 15.9023 12.5273 15.9023 13.8633C15.9023 13.8984 15.9023 13.9453 15.9023 13.9922H15.9492C16.2305 12.9609 16.9688 12.3047 17.9414 12.3047C19.5469 12.3047 20.332 13.8516 20.332 15.4805C20.332 17.3789 19.2891 18.9258 17.4375 18.9258ZM17.4141 17.5078C18.2578 17.5078 18.6445 16.4414 18.6445 15.5625C18.668 14.6719 18.3047 13.6289 17.4141 13.6289C16.5469 13.6289 16.1367 14.625 16.1367 15.5039C16.1367 16.3711 16.5 17.5078 17.4141 17.5078Z" fill="white"/>
</svg>
