<svg width="28" height="28" viewBox="0 0 28 28" fill="none" xmlns="http://www.w3.org/2000/svg">
<path d="M13.9531 25.9062C20.4922 25.9062 25.9062 20.4805 25.9062 13.9531C25.9062 7.41406 20.4805 2 13.9414 2C7.41406 2 2 7.41406 2 13.9531C2 20.4805 7.42578 25.9062 13.9531 25.9062ZM13.9531 23.9141C8.42188 23.9141 4.00391 19.4844 4.00391 13.9531C4.00391 8.42188 8.41016 3.99219 13.9414 3.99219C19.4727 3.99219 23.9141 8.42188 23.9141 13.9531C23.9141 19.4844 19.4844 23.9141 13.9531 23.9141Z" fill="black" fill-opacity="0.85"/>
<path d="M13.9531 19.8125C14.4688 19.8125 14.832 19.4492 14.832 18.9336V13.0742L14.7383 10.5898L15.9336 12.0078L17.3164 13.4141C17.4688 13.5781 17.6797 13.6719 17.9375 13.6719C18.418 13.6719 18.793 13.2969 18.793 12.8281C18.793 12.582 18.6992 12.3711 18.5469 12.2188L14.6445 8.31641C14.4219 8.09375 14.2109 7.98828 13.9531 7.98828C13.707 7.98828 13.5078 8.08203 13.2734 8.31641L9.35938 12.2188C9.20703 12.3711 9.13672 12.582 9.13672 12.8281C9.13672 13.2969 9.5 13.6719 9.98047 13.6719C10.2266 13.6719 10.4375 13.5664 10.6016 13.4141L11.9961 12.0078L13.168 10.6016L13.0742 13.0742V18.9336C13.0742 19.4492 13.4492 19.8125 13.9531 19.8125Z" fill="black" fill-opacity="0.85"/>
</svg>
