<svg width="28" height="28" viewBox="0 0 28 28" fill="none" xmlns="http://www.w3.org/2000/svg">
<path d="M13.7461 1.01172C13.3594 1.01172 12.9141 1.16406 12.4922 1.60937L3.76172 10.8555C3.23438 11.418 3 11.8867 3 12.4609C3 13.2578 3.58594 13.832 4.37109 13.832H8.84766V23.3477C8.84766 25.1992 9.90234 26.2773 11.7188 26.2773H15.7617C17.5781 26.2773 18.6328 25.1992 18.6328 23.3477V13.832H23.0625C23.8477 13.832 24.5039 13.2578 24.5039 12.4375C24.5039 11.8633 24.2461 11.4766 23.6602 10.8555L15.0117 1.60937C14.5898 1.15234 14.1445 1.01172 13.7461 1.01172ZM13.7461 3.10938C13.8164 3.10938 13.8867 3.14453 13.9688 3.23828L21.9727 11.582C22.0312 11.6406 22.0664 11.7109 22.0664 11.7812C22.0664 11.8867 22.0078 11.9453 21.9023 11.9453H17.25C16.9805 11.9453 16.8633 12.0742 16.8633 12.3438V23.3242C16.8633 24.0742 16.4414 24.5078 15.6797 24.5078H11.8125C11.0508 24.5078 10.6172 24.0742 10.6172 23.3242V12.3438C10.6172 12.0742 10.5 11.9453 10.2305 11.9453H5.69531C5.58984 11.9453 5.51953 11.8867 5.51953 11.793C5.51953 11.7227 5.55469 11.6523 5.625 11.582L13.5234 3.23828C13.6172 3.14453 13.6758 3.10938 13.7461 3.10938Z" fill="black" fill-opacity="0.85"/>
</svg>
