<svg width="30" height="28" viewBox="0 0 30 28" fill="none" xmlns="http://www.w3.org/2000/svg">
<path d="M23.1562 23.3672C26.6953 23.3672 29.4609 20.7773 29.4609 17.5547C29.4609 15.0938 28.043 12.9609 25.7578 12C25.7812 6.77344 22.0195 3 17.2266 3C14.0508 3 11.7891 4.69922 10.3828 6.75C7.5 5.90625 4.35938 8.09766 4.30078 11.3789C1.65234 11.8008 0 14.168 0 17.0273C0 20.4727 3.01172 23.3672 7.01953 23.3672H23.1562Z" fill="black" fill-opacity="0.85"/>
<path d="M10.8281 18.4219V14.0977C10.8281 13.3477 11.1445 12.9609 11.7656 12.9258V11.6484C11.7656 9.64453 12.9727 8.30859 14.7305 8.30859C16.5117 8.30859 17.707 9.64453 17.707 11.6484V12.9258C18.3398 12.9609 18.6562 13.3477 18.6562 14.0977V18.4219C18.6562 19.2305 18.293 19.5938 17.543 19.5938H11.9297C11.1797 19.5938 10.8281 19.2305 10.8281 18.4219ZM12.9023 12.9141H16.5586V11.5195C16.5586 10.2539 15.832 9.39844 14.7305 9.39844C13.6523 9.39844 12.9023 10.2539 12.9023 11.5195V12.9141Z" fill="white"/>
</svg>
