<svg width="28" height="28" viewBox="0 0 28 28" fill="none" xmlns="http://www.w3.org/2000/svg">
<path d="M13.8017 25.2773C14.4579 25.2773 14.8212 24.8438 14.8212 24.0352V17.3086C14.8212 14.4961 17.9384 10.4179 20.8212 8.5781L21.7587 7.96872C22.0868 7.76951 22.2626 7.40622 22.2626 7.05466C22.2626 6.48044 21.8642 6.08201 21.2665 6.08201C20.9736 6.08201 20.6572 6.18747 20.3759 6.37497L19.7548 6.78514C16.9072 8.68357 14.1767 12.2812 13.8134 14.0977H13.7783C13.415 12.2695 10.6962 8.68357 7.84856 6.78514L7.22747 6.37497C6.9345 6.18747 6.62981 6.08201 6.32513 6.08201C5.72747 6.08201 5.34075 6.5156 5.34075 7.04295C5.34075 7.39451 5.51653 7.76951 5.84466 7.96872L6.78216 8.5781C9.65325 10.4179 12.7822 14.4961 12.7822 17.3086V24.0352C12.7822 24.8438 13.1454 25.2773 13.8017 25.2773ZM5.73919 10.0078L9.02044 5.75389C9.52435 5.09764 9.20794 4.57029 8.42278 4.53514L3.86419 4.33592C3.20794 4.30076 2.85638 4.73436 3.0556 5.37889L4.40325 9.72654C4.63763 10.5 5.22356 10.6758 5.73919 10.0078ZM21.7236 9.99607C22.2158 10.6758 22.8134 10.5234 23.0595 9.7617L24.5361 5.4492C24.747 4.81639 24.4072 4.37107 23.7626 4.38279L19.1923 4.4531C18.4072 4.46482 18.079 4.98044 18.5595 5.64841L21.7236 9.99607Z" fill="black" fill-opacity="0.85"/>
</svg>
