<svg width="28" height="28" viewBox="0 0 28 28" fill="none" xmlns="http://www.w3.org/2000/svg">
<path d="M14.9531 24.8242C18.8086 24.8242 21.5859 22.9141 22.6172 20.043C22.7461 19.6914 22.8047 19.3398 22.8164 18.9766C22.8281 18.3672 22.418 17.9453 21.7852 17.9453C21.1758 17.9453 20.8711 18.2852 20.6719 18.8945C20.0156 21.2148 17.8008 22.7734 14.9648 22.7734C10.957 22.7734 8.35547 19.4336 8.35547 14.1016C8.35547 8.85156 10.9688 5.55859 14.9531 5.55859C17.6367 5.55859 19.8633 7.21094 20.5195 9.51953C20.7305 10.1992 21.0234 10.4688 21.6328 10.4688C22.2656 10.4688 22.6758 10.0469 22.6641 9.42578C22.6523 9.07422 22.5938 8.74609 22.4766 8.41797C21.4102 5.45312 18.4688 3.50781 14.9531 3.50781C9.55078 3.50781 6 7.62109 6 14.1016C6 20.6641 9.52734 24.8242 14.9531 24.8242ZM14.7773 27.2852C15.1992 27.2852 15.5391 26.9453 15.5391 26.5234V1.84375C15.5391 1.42188 15.1992 1.08203 14.7773 1.08203C14.3555 1.08203 14.0156 1.42188 14.0156 1.84375V26.5234C14.0156 26.9453 14.3555 27.2852 14.7773 27.2852Z" fill="black" fill-opacity="0.85"/>
</svg>
