<svg width="28" height="28" viewBox="0 0 28 28" fill="none" xmlns="http://www.w3.org/2000/svg">
<path d="M13.9531 25.9062C20.4922 25.9062 25.9062 20.4805 25.9062 13.9531C25.9062 7.41406 20.4805 2 13.9414 2C7.41406 2 2 7.41406 2 13.9531C2 20.4805 7.42578 25.9062 13.9531 25.9062Z" fill="black" fill-opacity="0.85"/>
<path d="M16.2724 19.7539C15.9678 20.0469 15.3584 20.0234 15.0302 19.7188L10.1553 15.1133C9.4873 14.5039 9.4873 13.4258 10.1553 12.8164L15.0302 8.21095C15.3935 7.8711 15.9326 7.85939 16.2607 8.17579C16.624 8.51563 16.6357 9.10157 16.2842 9.4297L11.4678 13.9531L16.2842 18.5C16.624 18.8281 16.6357 19.3906 16.2724 19.7539Z" fill="white"/>
</svg>
