<svg width="29" height="29" viewBox="0 0 29 29" fill="none" xmlns="http://www.w3.org/2000/svg">
<g clip-path="url(#clip0_2124_45812)">
<path d="M14.3086 9.60742C16.5117 9.63086 18.2578 7.74414 18.2578 5.27149C18.2578 2.96289 16.5117 1.0293 14.3086 1.0293C12.1289 1.0293 10.3594 2.96289 10.3594 5.27149C10.3594 7.74414 12.1172 9.59571 14.3086 9.60742ZM7.38281 18.0918H21.2461C21.9609 18.0918 22.3476 17.6231 22.3476 16.9902C22.3476 15.1387 19.664 11.0137 14.3086 11.0137C8.9414 11.0137 6.26953 15.1387 6.26953 16.9902C6.26953 17.6231 6.66797 18.0918 7.38281 18.0918ZM4.94531 26.2129H23.6836C24.1992 26.2129 24.6211 25.791 24.6211 25.2754C24.6211 24.7598 24.1992 24.3262 23.6836 24.3262H22.957V21.5957C22.957 20.3652 22.3828 19.6973 21.0586 19.6973H7.57031C6.25781 19.6973 5.67187 20.3652 5.67187 21.5957V24.3262H4.94531C4.42969 24.3262 4.00781 24.7598 4.00781 25.2754C4.00781 25.791 4.42969 26.2129 4.94531 26.2129ZM12.0117 23.6699C11.6133 23.6699 11.332 23.3652 11.332 22.9668C11.332 22.5801 11.6133 22.2871 12.0117 22.2871H16.6406C17.0273 22.2871 17.3203 22.5801 17.3203 22.9668C17.3203 23.3652 17.0273 23.6699 16.6406 23.6699H12.0117Z" fill="black" fill-opacity="0.85"/>
</g>
<defs>
<clipPath id="clip0_2124_45812">
<rect width="20.6133" height="25.2539" fill="white" transform="translate(4.00781 1.0293)"/>
</clipPath>
</defs>
</svg>
