<svg width="28" height="34" viewBox="0 0 28 34" fill="none" xmlns="http://www.w3.org/2000/svg">
<path d="M23.9961 11.2148C25.4023 11.2148 26.5391 10.0781 26.5391 8.66016C26.5391 7.25391 25.4023 6.11719 23.9961 6.11719C22.5781 6.11719 21.4297 7.25391 21.4297 8.66016C21.4297 10.0781 22.5781 11.2148 23.9961 11.2148ZM3.20703 14.4258H9.04297L12.6289 17.6836C12.7812 17.8125 12.6992 18.0352 12.5 18.0352H8.41016C8.05859 18.0352 7.70703 18.1172 7.46094 18.3633L3.11328 22.7227C2.64453 23.2031 2.63281 23.9414 3.11328 24.4219C3.58203 24.8906 4.34375 24.8906 4.8125 24.4219L8.71484 20.5195L13.4844 21.3047C15.0078 21.5508 16.5664 21.082 17.668 19.957L20.3633 17.2734C20.5859 17.0508 20.9023 17.1797 20.9023 17.4844V19.3359L17.6562 22.582C17.1875 23.0508 17.1992 23.8125 17.6562 24.2812C17.8906 24.5156 18.1953 24.6328 18.5234 24.6328C18.8281 24.6328 19.1328 24.5156 19.3672 24.2812L22.9648 20.6836C23.1875 20.4609 23.3164 20.1328 23.3164 19.8281V14.4727C23.3164 13.6992 23.0703 13.0664 22.6133 12.6211L15.4883 5.51953V8.91797L18.5586 11.9883C18.7812 12.2109 18.7695 12.457 18.5586 12.6562L15.3711 15.8555L10.1914 12.2227C9.96875 12.0703 9.79297 12.0117 9.46484 12.0117H3.20703C2.53906 12.0117 2 12.5508 2 13.2188C2 13.875 2.53906 14.4258 3.20703 14.4258ZM16.1094 26.4727C17.8438 26.4727 19.168 25.1133 19.1562 23.3789H17.8555C17.8672 24.4102 17.1172 25.1719 16.1094 25.1719C15.1133 25.1719 14.3516 24.5625 14.3516 23.4258V0.644531C14.3516 0.292969 14.0586 0 13.707 0C13.3555 0 13.0508 0.292969 13.0508 0.644531V23.4258C13.0508 25.3125 14.3867 26.4727 16.1094 26.4727ZM18.5 33.0469C18.875 33.0469 19.1562 32.7539 19.1562 32.3906V17.9766H17.8555V32.3906C17.8555 32.7539 18.1367 33.0469 18.5 33.0469Z" fill="black" fill-opacity="0.85"/>
</svg>
