<svg width="28" height="34" viewBox="0 0 28 34" fill="none" xmlns="http://www.w3.org/2000/svg">
<path d="M1.19649 19.8281C2.22774 23.6484 3.29414 24.8203 5.70821 24.8203H19.384C21.1184 24.8203 22.2785 23.8711 22.7121 22.1133L27.1184 4.23047C27.8332 1.32422 26.3801 0 24.6926 0C22.4543 0 20.0168 2.39062 21.3879 6.25781L21.7277 4.82812C18.2004 6.66797 16.5949 10.9688 17.2395 16.1953L17.6613 15.6211C15.2473 15.1055 12.0949 14.8008 9.05977 14.8008C2.79024 14.8008 0.235549 16.3242 1.19649 19.8281Z" fill="black" fill-opacity="0.85"/>
<path d="M15.5635 32.9648C15.5635 33.5977 16.0791 33.8672 16.6299 33.5273L20.79 30.9961C21.3174 30.668 21.3057 30.0469 20.79 29.7305L16.6182 27.1758C16.0674 26.8359 15.5635 27.1289 15.5635 27.75V32.9648Z" fill="black" fill-opacity="0.85"/>
<path d="M9.48194 32.9648V27.75C9.48194 27.1289 8.97804 26.8359 8.42726 27.1758L4.2671 29.7305C3.73976 30.0469 3.72804 30.668 4.2671 30.9961L8.42726 33.5273C8.97804 33.8672 9.48194 33.5977 9.48194 32.9648Z" fill="black" fill-opacity="0.85"/>
</svg>
