<svg width="29" height="28" viewBox="0 0 29 28" fill="none" xmlns="http://www.w3.org/2000/svg">
<path d="M27.8878 5.83984C28.38 5.82812 28.8018 5.41797 28.8018 4.92578C28.8018 4.44531 28.3917 4.01172 27.8878 4.01172L5.24714 4C4.74323 4 4.33308 4.43359 4.33308 4.92578C4.33308 5.41797 4.75495 5.82812 5.24714 5.82812L27.8878 5.83984ZM16.5792 13.9492C21.876 13.9492 25.5089 10.2695 25.4737 4.94922H23.6573C23.6925 9.19141 20.7979 12.1211 16.5792 12.1211C12.3487 12.1211 9.45417 9.19141 9.48933 4.94922H7.67292C7.63777 10.2695 11.2589 13.9492 16.5792 13.9492ZM10.087 23.8047L18.5948 15.2852C17.5635 15.4727 17.1065 15.4375 15.8878 15.4375L8.7862 22.5156C8.4112 22.8906 8.4112 23.418 8.7862 23.8047C9.17292 24.1797 9.70027 24.1797 10.087 23.8047ZM7.25105 20.9688L13.2276 14.9805C12.5831 14.793 11.9503 14.5469 11.3878 14.2422L5.95027 19.668C5.58698 20.0547 5.57527 20.5703 5.95027 20.9688C6.33698 21.3438 6.86433 21.3438 7.25105 20.9688ZM4.41511 18.1328L9.54792 12.9883C9.09089 12.5898 8.68073 12.1328 8.30573 11.6406L3.11433 16.832C2.75105 17.2188 2.72761 17.7461 3.10261 18.1211C3.50105 18.5078 4.02839 18.5312 4.41511 18.1328ZM1.56745 15.2969L7.13386 9.73047C6.86433 9.12109 6.65339 8.47656 6.50105 7.77344L0.278391 13.9961C-0.08489 14.3828 -0.0966087 14.9102 0.266672 15.2852C0.66511 15.6719 1.18073 15.6836 1.56745 15.2969Z" fill="black" fill-opacity="0.85"/>
</svg>
