<svg width="28" height="28" viewBox="0 0 28 28" fill="none" xmlns="http://www.w3.org/2000/svg">
<g clip-path="url(#clip0_2124_24664)">
<path d="M9.1875 26.8086H17.8828C19.793 26.8086 21.0703 25.5898 21.0703 23.7617V5.04688C21.0703 3.21875 19.793 2 17.8828 2H9.1875C7.27734 2 6 3.21875 6 5.04688V23.7617C6 25.5898 7.27734 26.8086 9.1875 26.8086ZM9.43359 24.9219C8.4375 24.9219 7.88672 24.3945 7.88672 23.457V5.35156C7.88672 4.41406 8.4375 3.88672 9.43359 3.88672H17.6484C18.6328 3.88672 19.1836 4.41406 19.1836 5.35156V23.457C19.1836 24.3945 18.6328 24.9219 17.6484 24.9219H9.43359Z" fill="black" fill-opacity="0.85"/>
<path d="M9.99609 23.3281H11.0977C11.3555 23.3281 11.5547 23.1523 11.5547 22.9062V21.7695C11.5547 21.5234 11.3555 21.3477 11.0977 21.3477H9.99609C9.73828 21.3477 9.5625 21.5234 9.5625 21.7695V22.9062C9.5625 23.1523 9.73828 23.3281 9.99609 23.3281ZM12.9609 23.3281H14.0742C14.332 23.3281 14.5312 23.1523 14.5312 22.9062V21.7695C14.5312 21.5234 14.332 21.3477 14.0742 21.3477H12.9609C12.7148 21.3477 12.5391 21.5234 12.5391 21.7695V22.9062C12.5391 23.1523 12.7148 23.3281 12.9609 23.3281ZM15.9375 23.3281H17.0391C17.3086 23.3281 17.4961 23.1523 17.4961 22.9062V21.7695C17.4961 21.5234 17.3086 21.3477 17.0391 21.3477H15.9375C15.6914 21.3477 15.5156 21.5234 15.5156 21.7695V22.9062C15.5156 23.1523 15.6914 23.3281 15.9375 23.3281ZM9.99609 13.9062H11.0977C11.3555 13.9062 11.5547 13.7305 11.5547 13.4727V12.3477C11.5547 12.0898 11.3555 11.9141 11.0977 11.9141H9.99609C9.73828 11.9141 9.5625 12.0898 9.5625 12.3477V13.4727C9.5625 13.7305 9.73828 13.9062 9.99609 13.9062ZM12.9609 13.9062H14.0742C14.332 13.9062 14.5312 13.7305 14.5312 13.4727V12.3477C14.5312 12.0898 14.332 11.9141 14.0742 11.9141H12.9609C12.7148 11.9141 12.5391 12.0898 12.5391 12.3477V13.4727C12.5391 13.7305 12.7148 13.9062 12.9609 13.9062ZM9.99609 10.7188H11.0977C11.3555 10.7188 11.5547 10.543 11.5547 10.2969V9.16016C11.5547 8.90234 11.3555 8.72656 11.0977 8.72656H9.99609C9.73828 8.72656 9.5625 8.90234 9.5625 9.16016V10.2969C9.5625 10.543 9.73828 10.7188 9.99609 10.7188ZM12.9609 10.7188H14.0742C14.332 10.7188 14.5312 10.543 14.5312 10.2969V9.16016C14.5312 8.90234 14.332 8.72656 14.0742 8.72656H12.9609C12.7148 8.72656 12.5391 8.90234 12.5391 9.16016V10.2969C12.5391 10.543 12.7148 10.7188 12.9609 10.7188ZM15.9375 10.7188H17.0391C17.3086 10.7188 17.4961 10.543 17.4961 10.2969V9.16016C17.4961 8.90234 17.3086 8.72656 17.0391 8.72656H15.9375C15.6914 8.72656 15.5156 8.90234 15.5156 9.16016V10.2969C15.5156 10.543 15.6914 10.7188 15.9375 10.7188ZM9.99609 7.54297H11.0977C11.3555 7.54297 11.5547 7.36719 11.5547 7.10938V5.98438C11.5547 5.72656 11.3555 5.55078 11.0977 5.55078H9.99609C9.73828 5.55078 9.5625 5.72656 9.5625 5.98438V7.10938C9.5625 7.36719 9.73828 7.54297 9.99609 7.54297ZM12.9609 7.54297H14.0742C14.332 7.54297 14.5312 7.36719 14.5312 7.10938V5.98438C14.5312 5.72656 14.332 5.55078 14.0742 5.55078H12.9609C12.7148 5.55078 12.5391 5.72656 12.5391 5.98438V7.10938C12.5391 7.36719 12.7148 7.54297 12.9609 7.54297ZM15.9375 7.54297H17.0391C17.3086 7.54297 17.4961 7.36719 17.4961 7.10938V5.98438C17.4961 5.72656 17.3086 5.55078 17.0391 5.55078H15.9375C15.6914 5.55078 15.5156 5.72656 15.5156 5.98438V7.10938C15.5156 7.36719 15.6914 7.54297 15.9375 7.54297Z" fill="black" fill-opacity="0.85"/>
</g>
<defs>
<clipPath id="clip0_2124_24664">
<rect width="15.0703" height="24.832" fill="white" transform="translate(6 2)"/>
</clipPath>
</defs>
</svg>
