<svg width="28" height="29" viewBox="0 0 28 29" fill="none" xmlns="http://www.w3.org/2000/svg">
<g clip-path="url(#clip0_2124_50006)">
<path d="M13.9538 15.9141C16.5202 15.9141 19.0515 15.7617 21.1257 15.457C22.7429 15.2109 23.2234 14.0273 22.6843 12.3516L19.5906 2.55469C19.0398 0.796875 17.6335 0 15.7234 0H12.1726C10.2624 0 8.85618 0.796875 8.3054 2.55469L5.21165 12.3516C4.67259 14.0273 5.15306 15.2109 6.77024 15.457C8.84446 15.7617 11.3757 15.9141 13.9538 15.9141ZM13.9538 14.1914C11.7976 14.1914 9.71165 14.0742 7.42649 13.8164C6.79368 13.7461 6.72337 13.3711 6.92259 12.7148L9.87571 3.23438C10.1921 2.20312 11.0359 1.71094 12.1726 1.71094H15.7234C16.8601 1.71094 17.7038 2.20312 18.032 3.23438L20.9734 12.7148C21.1726 13.3711 21.1023 13.7461 20.4695 13.8164C18.1843 14.0742 16.0984 14.1914 13.9538 14.1914ZM13.0046 15.2695V27.9844H14.8913V15.2695H13.0046ZM8.6804 28.793H19.2156C19.6491 28.793 19.9421 28.4883 19.9421 28.0312C19.9421 27.1406 19.2156 26.5195 18.1023 26.5195H9.79368C8.6804 26.5195 7.96556 27.1406 7.96556 28.0312C7.96556 28.4883 8.24681 28.793 8.6804 28.793Z" fill="black" fill-opacity="0.85"/>
</g>
<defs>
<clipPath id="clip0_2124_50006">
<rect width="17.896" height="28.8633" fill="white" transform="translate(5)"/>
</clipPath>
</defs>
</svg>
