<svg width="28" height="28" viewBox="0 0 28 28" fill="none" xmlns="http://www.w3.org/2000/svg">
<path d="M13.9531 25.9062C20.4922 25.9062 25.9062 20.4805 25.9062 13.9531C25.9062 7.41406 20.4805 2 13.9414 2C7.41406 2 2 7.41406 2 13.9531C2 20.4805 7.42578 25.9062 13.9531 25.9062ZM13.9531 23.9141C8.42188 23.9141 4.00391 19.4844 4.00391 13.9531C4.00391 8.42188 8.41016 3.99219 13.9414 3.99219C19.4727 3.99219 23.9141 8.42188 23.9141 13.9531C23.9141 19.4844 19.4844 23.9141 13.9531 23.9141Z" fill="black" fill-opacity="0.85"/>
<path d="M12.1484 18.8398C12.582 18.8398 12.9453 18.5703 12.9453 18.0078V16.8359H13.3555C13.8125 16.8359 14.0234 16.543 14.0234 16.1445C14.0234 15.7695 13.8242 15.4766 13.3555 15.4766H12.9453V10.332C12.9453 9.52344 12.418 9.06641 11.6445 9.06641C10.8242 9.06641 10.4375 9.48828 10.1094 10.2148L8.01172 14.7617C7.8125 15.2188 7.75391 15.5234 7.75391 15.8867C7.75391 16.4492 8.14062 16.8359 8.71484 16.8359H11.3281V18.0078C11.3281 18.6289 11.7734 18.8398 12.1484 18.8398ZM11.3633 15.5117H9.19531V15.4297L11.3281 10.543H11.3633V15.5117ZM17.8438 18.8164C18.3008 18.8164 18.6875 18.4297 18.6875 17.9609V10.0156C18.6875 9.41797 18.3125 9.06641 17.7031 9.06641C17.2109 9.06641 16.8125 9.33594 16.543 9.54688L15.2539 10.543C15.043 10.707 14.8789 10.9297 14.8789 11.2344C14.8789 11.5977 15.125 11.8555 15.4883 11.8555C15.6641 11.8555 15.7812 11.7969 15.8984 11.7148L16.9766 10.8477V17.9609C16.9766 18.4297 17.3633 18.8164 17.8438 18.8164Z" fill="black" fill-opacity="0.85"/>
</svg>
