<svg width="28" height="28" viewBox="0 0 28 28" fill="none" xmlns="http://www.w3.org/2000/svg">
<path d="M13.9531 25.918C20.4922 25.918 25.9062 20.5039 25.9062 13.9648C25.9062 7.4375 20.4805 2.01172 13.9414 2.01172C7.41406 2.01172 2 7.4375 2 13.9648C2 20.5039 7.42578 25.918 13.9531 25.918Z" fill="black" fill-opacity="0.85"/>
<path d="M9.35938 20.457C9.05469 20.457 8.78516 20.1992 8.78516 19.8945V9.75781C8.78516 9.24219 9.04297 8.86719 9.53516 8.64453C9.96875 8.43359 10.3437 8.32812 11.293 8.32812C13.4609 8.32812 14.832 9.40625 16.8828 9.40625C17.8789 9.40625 18.4062 9.14844 18.7578 9.14844C19.25 9.14844 19.4375 9.40625 19.4375 9.76953V15.7109C19.4375 16.2617 19.2031 16.6133 18.6992 16.8594C18.2422 17.0586 17.8672 17.1523 16.9414 17.1523C14.8555 17.1523 13.4961 16.0977 11.3516 16.0977C10.6016 16.0977 10.1328 16.2383 9.89844 16.332V19.8945C9.89844 20.2109 9.6875 20.457 9.35938 20.457ZM9.72266 13.5898C9.81641 13.3789 10.3086 13.1211 11.2344 13.1211C11.5273 13.1211 11.6914 13.1328 11.9023 13.1562V15.1484C12.7227 15.2188 13.4492 15.418 14.1406 15.6289V13.6719C14.9023 13.9297 15.582 14.082 16.3906 14.1641V16.1562C16.5664 16.2031 16.7773 16.2148 17.0117 16.2148C17.9375 16.2148 18.4297 15.9336 18.5234 15.7227V14C18.1016 14.1172 17.5742 14.1875 16.9297 14.1875C16.7188 14.1875 16.543 14.1758 16.3906 14.1641V12.1367C16.543 12.1484 16.7305 12.1602 16.9297 12.1602C17.6328 12.1602 18.207 12.0547 18.5234 11.9727V10.1563C18.1016 10.2734 17.5742 10.3555 16.9297 10.3555C16.7422 10.3555 16.5547 10.3555 16.3906 10.332V12.1367C15.582 12.0781 14.8789 11.8789 14.1406 11.6563V9.85156C13.4141 9.61719 12.6992 9.39453 11.9023 9.3125V11.1406C11.6914 11.0938 11.4336 11.082 11.2344 11.082C10.3086 11.082 9.81641 11.3633 9.72266 11.5625V13.5898ZM11.9023 13.1562V11.1406C12.7227 11.2109 13.3906 11.4336 14.1406 11.6563V13.6719C13.3438 13.4375 12.7227 13.2383 11.9023 13.1562Z" fill="white"/>
</svg>
