<svg width="28" height="28" viewBox="0 0 28 28" fill="none" xmlns="http://www.w3.org/2000/svg">
<path d="M13.9531 25.9062C20.4922 25.9062 25.9062 20.4805 25.9062 13.9531C25.9062 7.41406 20.4805 2 13.9414 2C7.41406 2 2 7.41406 2 13.9531C2 20.4805 7.42578 25.9062 13.9531 25.9062ZM13.9531 23.9141C8.42188 23.9141 4.00391 19.4844 4.00391 13.9531C4.00391 8.42188 8.41016 3.99219 13.9414 3.99219C19.4727 3.99219 23.9141 8.42188 23.9141 13.9531C23.9141 19.4844 19.4844 23.9141 13.9531 23.9141Z" fill="black" fill-opacity="0.85"/>
<path d="M15.1136 17.7266L19.7073 12.8516C20.0589 12.4766 20.0706 11.9375 19.7425 11.6094C19.3792 11.2461 18.8167 11.2344 18.4886 11.5859L13.9534 16.3906L9.41828 11.5859C9.07843 11.2344 8.50422 11.2344 8.15265 11.6094C7.83625 11.9492 7.84797 12.4766 8.18781 12.8516L12.7933 17.7266C13.5198 18.5117 14.3753 18.5117 15.1136 17.7266Z" fill="black" fill-opacity="0.85"/>
</svg>
