<svg width="28" height="28" viewBox="0 0 28 28" fill="none" xmlns="http://www.w3.org/2000/svg">
<path d="M13.9531 25.9062C20.4922 25.9062 25.9062 20.4805 25.9062 13.9531C25.9062 7.41406 20.4805 2 13.9414 2C7.41406 2 2 7.41406 2 13.9531C2 20.4805 7.42578 25.9062 13.9531 25.9062ZM13.9531 23.9141C8.42188 23.9141 4.00391 19.4844 4.00391 13.9531C4.00391 8.42188 8.41016 3.99219 13.9414 3.99219C19.4727 3.99219 23.9141 8.42188 23.9141 13.9531C23.9141 19.4844 19.4844 23.9141 13.9531 23.9141Z" fill="black" fill-opacity="0.85"/>
<path d="M8.78516 19.25C9.23047 19.25 9.54688 18.9336 9.54688 18.4766V14.7031H10.4727C10.5547 14.7031 10.625 14.7031 10.7187 14.7031L12.2773 18.7578C12.4062 19.1094 12.6875 19.25 12.9805 19.25C13.4844 19.25 13.9766 18.8633 13.7188 18.1953L12.1953 14.4102C13.1914 14.0234 13.707 12.7812 13.707 11.5508C13.707 9.67578 12.7812 8.59766 10.8008 8.59766H8.90234C8.32812 8.59766 8.01172 9.03125 8.01172 9.66406V18.4766C8.01172 18.9336 8.32812 19.25 8.78516 19.25ZM9.54688 13.5078V9.83984H10.625C11.668 9.83984 12.1484 10.5078 12.1484 11.6094C12.1484 12.7227 11.6914 13.5078 10.6367 13.5078H9.54688ZM17.5625 18.7695C19.25 18.7695 20.4102 17.7969 20.4102 16.1914C20.4102 15.0547 19.8008 14.2461 18.418 13.5195L17.375 12.9688C16.7539 12.6523 16.1328 12.2539 16.1328 11.4805C16.1328 10.7539 16.6719 10.2852 17.4805 10.2852C18.3711 10.2852 18.8164 10.8477 18.875 11.6445C18.9102 12.0195 19.2031 12.2422 19.5195 12.2422C19.918 12.2422 20.3164 11.9375 20.2227 11.293C20.0586 10.0156 19.0859 9.04297 17.4805 9.04297C15.875 9.04297 14.6914 10.0273 14.6914 11.5391C14.6914 12.8164 15.418 13.6367 16.6484 14.2461L17.668 14.75C18.3359 15.0781 18.9805 15.5938 18.9805 16.2969C18.9805 17.0352 18.4648 17.5273 17.5625 17.5273C16.543 17.5273 16.0977 17.0117 16.0156 16.1562C15.9688 15.7578 15.6992 15.5586 15.3828 15.5586C14.9727 15.5586 14.5977 15.8984 14.6914 16.5078C14.8789 17.8555 15.9102 18.7695 17.5625 18.7695ZM17.5508 20.0234C17.8086 20.0234 18.0312 19.8008 18.0312 19.543V8.30469C18.0312 8.03516 17.8086 7.8125 17.5508 7.8125C17.2812 7.8125 17.0586 8.03516 17.0586 8.30469V19.543C17.0586 19.8008 17.2812 20.0234 17.5508 20.0234Z" fill="black" fill-opacity="0.85"/>
</svg>
