<svg width="28" height="28" viewBox="0 0 28 28" fill="none" xmlns="http://www.w3.org/2000/svg">
<path d="M9.83203 24.4375H17.2031C24 24.4375 27.0352 21.3086 27.0352 14.9102V7.55078C27.0352 5.19531 25.8164 4 23.4375 4H3.59766C1.21875 4 0 5.19531 0 7.55078V14.9102C0 21.3086 3.03516 24.4375 9.83203 24.4375ZM9.83203 22.5508C4.30078 22.5508 1.88672 20.1484 1.88672 15.0273V7.65625C1.88672 6.48438 2.49609 5.88672 3.64453 5.88672H23.3906C24.5156 5.88672 25.1484 6.48438 25.1484 7.65625V15.0273C25.1484 20.1484 22.7344 22.5508 17.1914 22.5508H9.83203Z" fill="black" fill-opacity="0.85"/>
<path d="M8.63672 18.9766H12.0117C12.3984 18.9766 12.7266 18.6484 12.7266 18.2617C12.7266 17.875 12.3984 17.5469 12.0117 17.5469H9.50391V10.1992C9.50391 9.73047 9.11719 9.34375 8.64844 9.34375C8.19141 9.34375 7.80469 9.73047 7.80469 10.1992V18.0859C7.80469 18.6367 8.10938 18.9766 8.63672 18.9766ZM14.7773 18.9766H17.2617C18.9258 18.9766 19.875 17.875 19.875 16.3047C19.875 15.1562 19.1836 14.1133 18.0703 13.9961V13.9375C18.9727 13.7852 19.582 12.7891 19.582 11.8633C19.582 10.3516 18.5742 9.49609 17.1914 9.49609H14.7773C14.2266 9.49609 13.9336 9.88281 13.9336 10.3867V18.0859C13.9336 18.625 14.2383 18.9766 14.7773 18.9766ZM15.6094 13.5156V10.7969H16.7109C17.5898 10.7969 17.9414 11.3594 17.9414 12.1211C17.9414 12.9883 17.4375 13.5156 16.5703 13.5156H15.6094ZM15.6094 17.6758V14.6641H16.6992C17.5664 14.6641 18.1523 15.1328 18.1523 16.1641C18.1523 17.1133 17.6953 17.6758 16.7461 17.6758H15.6094Z" fill="black" fill-opacity="0.85"/>
</svg>
