<svg width="28" height="28" viewBox="0 0 28 28" fill="none" xmlns="http://www.w3.org/2000/svg">
<g clip-path="url(#clip0_2124_89378)">
<path d="M3 20.9648C3 23.3906 4.23047 24.5977 6.67969 24.5977H21.0469C23.4961 24.5977 24.7266 23.3789 24.7266 20.9648V6.65625C24.7266 4.24219 23.4961 3.02344 21.0469 3.02344H6.67969C4.23047 3.02344 3 4.23047 3 6.65625V20.9648ZM4.88672 20.8711V6.75C4.88672 5.53125 5.53125 4.91016 6.70312 4.91016H7.81641V6.50391C7.81641 6.90234 8.12109 7.21875 8.51953 7.21875C8.91797 7.21875 9.23438 6.90234 9.23438 6.50391V4.91016H11.3789V6.50391C11.3789 6.90234 11.6836 7.21875 12.0938 7.21875C12.4922 7.21875 12.7969 6.90234 12.7969 6.50391V4.91016H14.9531V6.50391C14.9531 6.90234 15.2578 7.21875 15.6562 7.21875C16.0664 7.21875 16.3711 6.90234 16.3711 6.50391V4.91016H18.5156V6.50391C18.5156 6.90234 18.8203 7.21875 19.2305 7.21875C19.6289 7.21875 19.9336 6.90234 19.9336 6.50391V4.91016H21.0117C22.1719 4.91016 22.8398 5.53125 22.8398 6.75V20.8711C22.8398 22.0898 22.1719 22.7109 21.0117 22.7109H19.9336V21.1172C19.9336 20.707 19.6289 20.4023 19.2305 20.4023C18.8203 20.4023 18.5156 20.707 18.5156 21.1172V22.7109H16.3711V21.1172C16.3711 20.707 16.0664 20.4023 15.6562 20.4023C15.2578 20.4023 14.9531 20.707 14.9531 21.1172V22.7109H12.7969V21.1172C12.7969 20.707 12.4922 20.4023 12.0938 20.4023C11.6836 20.4023 11.3789 20.707 11.3789 21.1172V22.7109H9.23438V21.1172C9.23438 20.707 8.91797 20.4023 8.51953 20.4023C8.12109 20.4023 7.81641 20.707 7.81641 21.1172V22.7109H6.70312C5.53125 22.7109 4.88672 22.0898 4.88672 20.8711ZM8.08594 17.25C8.08594 17.8711 8.49609 18.2695 9.12891 18.2695H18.5977C19.2305 18.2695 19.6406 17.8711 19.6406 17.25V10.3711C19.6406 9.75 19.2305 9.35156 18.5977 9.35156H9.12891C8.49609 9.35156 8.08594 9.75 8.08594 10.3711V17.25Z" fill="black" fill-opacity="0.85"/>
</g>
<defs>
<clipPath id="clip0_2124_89378">
<rect width="21.7266" height="21.5977" fill="white" transform="translate(3 3)"/>
</clipPath>
</defs>
</svg>
