<svg width="28" height="28" viewBox="0 0 28 28" fill="none" xmlns="http://www.w3.org/2000/svg">
<path d="M6.67969 24.5742H20.8945C23.3555 24.5742 24.5742 23.3555 24.5742 20.9414V6.63281C24.5742 4.21875 23.3555 3 20.8945 3H6.67969C4.23047 3 3 4.20703 3 6.63281V20.9414C3 23.3672 4.23047 24.5742 6.67969 24.5742ZM6.70312 22.6875C5.53125 22.6875 4.88672 22.0664 4.88672 20.8477V6.72656C4.88672 5.51953 5.53125 4.88672 6.70312 4.88672H20.8711C22.0312 4.88672 22.6875 5.51953 22.6875 6.72656V20.8477C22.6875 22.0664 22.0312 22.6875 20.8711 22.6875H6.70312Z" fill="black" fill-opacity="0.85"/>
<path d="M12.1641 19.8047C14.9766 19.8047 16.6875 17.7773 16.6875 15.0469V11.543L16.6406 10.1602L17.3672 11.0859L18.5508 12.293C18.6914 12.457 18.9023 12.5625 19.1484 12.5625C19.6406 12.5625 20.0039 12.1992 20.0039 11.7188C20.0039 11.4727 19.9219 11.2852 19.7461 11.1211L16.582 8.00391C16.3945 7.80469 16.1484 7.6875 15.8672 7.6875C15.5977 7.6875 15.3516 7.80469 15.1641 8.00391L11.9648 11.1328C11.8008 11.2969 11.7188 11.4844 11.7188 11.7305C11.7188 12.1992 12.0938 12.5625 12.5742 12.5625C12.7969 12.5625 13.0195 12.4805 13.1836 12.3047L14.5898 10.8398L15.0938 10.1602L15.0469 11.543V15.0469C15.0469 16.7695 14.0508 18.082 12.2578 18.082C10.4063 18.082 9.25781 16.8047 9.25781 15.0352C9.25781 14.8945 9.25781 13.4531 9.25781 13.4062C9.25781 12.9023 8.96484 12.5156 8.42578 12.5156C7.88672 12.5156 7.58203 12.9023 7.58203 13.4297C7.58203 13.4883 7.58203 14.8945 7.58203 15.0352C7.58203 17.7656 9.33984 19.8047 12.1641 19.8047Z" fill="black" fill-opacity="0.85"/>
</svg>
