<svg width="34" height="28" viewBox="0 0 34 28" fill="none" xmlns="http://www.w3.org/2000/svg">
<g clip-path="url(#clip0_2124_24594)">
<path d="M13.3594 5.91016H13.6523C13.8281 5.91016 13.9219 5.99219 13.9219 6.19141V6.32031C13.9219 6.8125 14.25 7.14062 14.7422 7.14062H19.0781C19.5586 7.14062 19.8633 6.8125 19.8633 6.32031V6.19141C19.8633 5.99219 19.957 5.91016 20.1562 5.91016H20.4492V4.9375H13.3594V5.91016ZM0 21.7539C0 22.4922 0.597656 23.0898 1.32422 23.0898H32.4727C33.1992 23.0898 33.7969 22.4922 33.7969 21.7539C33.7969 21.0156 33.1992 20.418 32.4727 20.418H29.9062V6.50781C29.9062 4.86719 29.0273 4.02344 27.3984 4.02344H6.39844C4.85156 4.02344 3.89062 4.86719 3.89062 6.50781V20.418H1.32422C0.597656 20.418 0 21.0156 0 21.7539ZM5.77734 20.418V7.03516C5.77734 6.28516 6.15234 5.91016 6.90234 5.91016H26.8945C27.6445 5.91016 28.0195 6.28516 28.0195 7.03516V20.418H5.77734Z" fill="black" fill-opacity="0.85"/>
</g>
<defs>
<clipPath id="clip0_2124_24594">
<rect width="33.7969" height="19.0898" fill="white" transform="translate(0 4)"/>
</clipPath>
</defs>
</svg>
