<svg width="28" height="28" viewBox="0 0 28 28" fill="none" xmlns="http://www.w3.org/2000/svg">
<path d="M6.67969 24.5977H20.8945C23.3555 24.5977 24.5742 23.3789 24.5742 20.9648V6.65625C24.5742 4.24219 23.3555 3.02344 20.8945 3.02344H6.67969C4.23047 3.02344 3 4.23047 3 6.65625V20.9648C3 23.3906 4.23047 24.5977 6.67969 24.5977ZM6.70312 22.7109C5.53125 22.7109 4.88672 22.0898 4.88672 20.8711V6.75C4.88672 5.53125 5.53125 4.91016 6.70312 4.91016H20.8711C22.0312 4.91016 22.6875 5.53125 22.6875 6.75V20.8711C22.6875 22.0898 22.0312 22.7109 20.8711 22.7109H6.70312Z" fill="black" fill-opacity="0.85"/>
<path d="M10.125 18.7383C11.8008 18.7383 13.1016 17.6836 13.1016 15.9258C13.1016 14.4727 12.2227 13.7578 11.2383 13.6523V13.6172C12.293 13.3359 12.8203 12.3867 12.8203 11.4023C12.8203 9.78516 11.6016 8.85938 10.0781 8.85938C8.87109 8.85938 7.81641 9.53906 7.48828 10.582C7.41797 10.8047 7.39453 11.0156 7.39453 11.2148C7.39453 11.6016 7.65234 11.9062 8.10938 11.9062C8.51953 11.9062 8.74219 11.7539 8.85938 11.3437C9.04688 10.6523 9.42188 10.2187 10.0781 10.2187C10.8516 10.2187 11.2148 10.8164 11.2148 11.5898C11.2148 12.4453 10.7461 13.0664 9.86719 13.0664H9.58594C9.1875 13.0664 8.94141 13.3125 8.94141 13.6992C8.94141 14.0859 9.19922 14.3086 9.58594 14.3086H9.87891C10.875 14.3086 11.4258 14.8594 11.4258 15.8789C11.4258 16.6875 10.9922 17.3789 10.125 17.3789C9.26953 17.3789 8.89453 16.8047 8.74219 16.2656C8.63672 15.8906 8.37891 15.6914 8.00391 15.6914C7.54688 15.6914 7.24219 15.9727 7.24219 16.4297C7.24219 16.6406 7.27734 16.8516 7.33594 17.0391C7.67578 18.1289 8.85938 18.7383 10.125 18.7383ZM16.6172 15.2578C17.5664 15.2578 18.2812 14.625 18.5508 13.6172H18.5977C18.5977 13.6641 18.5977 13.7109 18.5977 13.7461C18.5977 15.0469 18.4336 17.3906 17.1211 17.3906C16.5938 17.3906 16.2422 17.0273 16.043 16.5234C15.8672 16.1367 15.6328 15.9844 15.2812 15.9844C14.7891 15.9844 14.5781 16.3125 14.5781 16.6992C14.5781 16.8398 14.6133 16.9805 14.6484 17.1211C14.9062 18.1406 15.9258 18.7617 17.0977 18.7617C19.5 18.7617 20.1914 16.1016 20.1914 13.6992C20.1914 11.4844 19.4883 8.83594 17.1094 8.83594C15.3281 8.83594 14.2969 10.3359 14.2969 12.1758C14.2969 13.7578 15.0586 15.2578 16.6172 15.2578ZM17.1328 13.9688C16.2656 13.9688 15.9258 12.9727 15.9258 12.1055C15.9258 11.2266 16.3125 10.1953 17.1328 10.1953C18.0234 10.1953 18.375 11.2266 18.375 12.1055C18.375 13.0078 17.9883 13.9688 17.1328 13.9688Z" fill="black" fill-opacity="0.85"/>
</svg>
