<svg width="28" height="28" viewBox="0 0 28 28" fill="none" xmlns="http://www.w3.org/2000/svg">
<path d="M13.9531 25.9062C20.4922 25.9062 25.9062 20.4805 25.9062 13.9531C25.9062 7.41406 20.4805 2 13.9414 2C7.41406 2 2 7.41406 2 13.9531C2 20.4805 7.42578 25.9062 13.9531 25.9062Z" fill="black" fill-opacity="0.85"/>
<path d="M10.0977 19.0859C7.67188 19.0859 6.95703 16.3906 6.95703 13.9531C6.95703 11.5156 7.67188 8.82031 10.0977 8.82031C12.5 8.82031 13.2148 11.5156 13.2148 13.9531C13.2148 16.3906 12.5 19.0859 10.0977 19.0859ZM10.0977 17.6445C11.0703 17.6445 11.4453 16.0508 11.4453 13.9531C11.4453 11.8438 11.0703 10.2617 10.0977 10.2617C9.11328 10.2617 8.73828 11.8438 8.73828 13.9531C8.73828 16.0508 9.11328 17.6445 10.0977 17.6445ZM19.0625 18.9922C18.6758 18.9922 18.2305 18.7695 18.2305 18.1367V16.9297H15.5234C14.9375 16.9297 14.5273 16.5312 14.5273 15.9453C14.5273 15.5703 14.6094 15.2539 14.7969 14.7852L16.9531 10.0977C17.293 9.34766 17.6914 8.91406 18.5586 8.91406C19.3438 8.91406 19.8945 9.38281 19.8945 10.2266V15.5234H20.3281C20.8086 15.5234 21.0195 15.8281 21.0195 16.2148C21.0195 16.625 20.7852 16.9297 20.3281 16.9297H19.8945V18.1367C19.8945 18.7109 19.5195 18.9922 19.0625 18.9922ZM18.2656 15.5586V10.4375H18.2188L16.0273 15.4766V15.5586H18.2656Z" fill="white"/>
</svg>
