<svg width="28" height="28" viewBox="0 0 28 28" fill="none" xmlns="http://www.w3.org/2000/svg">
<path d="M9.23438 24.0352H18.3984C25.1953 24.0352 27.6328 21.5156 27.6328 15.2461V11.8008C27.6328 5.53125 25.1953 3 18.3984 3H9.23438C2.4375 3 0 5.53125 0 11.8008V15.2461C0 21.5156 2.4375 24.0352 9.23438 24.0352Z" fill="black" fill-opacity="0.85"/>
<path d="M8.28516 18.5273C7.71094 18.5273 7.38281 18.1875 7.38281 17.6133V9.55078C7.38281 8.95312 7.75781 8.61328 8.27344 8.61328H10.5352C12.3047 8.61328 13.3477 10.0664 13.3477 11.9062C13.3477 13.7695 12.2695 15.1758 10.4297 15.1758H9.15234V17.6133C9.15234 18.1758 8.84766 18.5273 8.28516 18.5273ZM9.15234 13.7695H10.0781C11.1562 13.7695 11.5898 12.9844 11.5898 11.9062C11.5898 10.7695 11.1094 10.043 10.0898 10.043H9.15234V13.7695ZM18.8555 18.5625C18.4688 18.5625 18.0117 18.3398 18.0117 17.6953V16.5H15.3164C14.7188 16.5 14.3203 16.1016 14.3203 15.5156C14.3203 15.1406 14.3906 14.8242 14.5898 14.3555L16.7344 9.66797C17.0742 8.91797 17.4844 8.48438 18.3398 8.48438C19.1367 8.48438 19.6758 8.95311 19.6758 9.79688V15.0938H20.1094C20.5898 15.0938 20.8008 15.3984 20.8008 15.7852C20.8008 16.1953 20.5781 16.5 20.1094 16.5H19.6758V17.6953C19.6758 18.2812 19.3125 18.5625 18.8555 18.5625ZM18.0469 15.1289V10.0078H18L15.8086 15.0469V15.1289H18.0469Z" fill="white"/>
</svg>
