<svg width="28" height="28" viewBox="0 0 28 28" fill="none" xmlns="http://www.w3.org/2000/svg">
<path d="M6.67969 24.5977H20.8945C23.3555 24.5977 24.5742 23.3789 24.5742 20.9648V6.65625C24.5742 4.24219 23.3555 3.02344 20.8945 3.02344H6.67969C4.23047 3.02344 3 4.23047 3 6.65625V20.9648C3 23.3906 4.23047 24.5977 6.67969 24.5977Z" fill="black" fill-opacity="0.85"/>
<path d="M8.14453 18.6797C7.59375 18.6797 7.33594 18.3867 7.33594 17.9766C7.33594 17.5898 7.55859 17.2969 7.78125 17.0039L9.87891 14.3203C10.5234 13.5117 11.2031 12.5273 11.2031 11.5547C11.2031 10.6992 10.793 10.0664 10.0664 10.0664C9.36328 10.0664 9.07031 10.5703 8.84766 11.3789C8.71875 11.7773 8.47266 11.9648 8.07422 11.9648C7.60547 11.9648 7.34766 11.6484 7.34766 11.1914C7.34766 9.9375 8.51953 8.66016 10.0664 8.66016C11.7305 8.66016 12.8555 9.84375 12.8555 11.4727C12.8555 12.5391 12.4453 13.4297 11.2383 14.9297L9.48047 17.1562V17.25H12.3516C12.7617 17.25 13.0312 17.5078 13.0312 17.9766C13.0312 18.3984 12.7734 18.6797 12.3516 18.6797H8.14453ZM17.2734 18.8906C15.9844 18.8906 14.7422 18.2695 14.4023 17.1445C14.332 16.9453 14.3086 16.7344 14.3086 16.5117C14.3086 16.043 14.625 15.75 15.1055 15.75C15.4922 15.75 15.75 15.9492 15.8672 16.3477C16.0078 16.8984 16.4062 17.4844 17.2852 17.4844C18.1758 17.4844 18.6211 16.7812 18.6211 15.9492C18.6211 14.8945 18.0586 14.332 17.0273 14.332H16.7344C16.3359 14.332 16.0547 14.0977 16.0547 13.6992C16.0547 13.3008 16.3242 13.043 16.7344 13.043H17.0156C17.9297 13.043 18.4102 12.3984 18.4102 11.5195C18.4102 10.7227 18.0352 10.1133 17.2383 10.1133C16.5469 10.1133 16.1836 10.5586 15.9844 11.2734C15.8672 11.6953 15.6211 11.8477 15.2109 11.8477C14.7305 11.8477 14.4727 11.5312 14.4727 11.1328C14.4727 10.9336 14.4961 10.7109 14.5547 10.4766C14.9062 9.41016 15.9844 8.70703 17.2383 8.70703C18.8086 8.70703 20.0625 9.65625 20.0625 11.332C20.0625 12.3398 19.5234 13.3242 18.4336 13.6172V13.6523C19.4531 13.7578 20.3438 14.4961 20.3438 15.9961C20.3438 17.8125 19.0195 18.8906 17.2734 18.8906Z" fill="white"/>
</svg>
