<svg width="28" height="28" viewBox="0 0 28 28" fill="none" xmlns="http://www.w3.org/2000/svg">
<g clip-path="url(#clip0_2124_89308)">
<path d="M3.9375 10.4766C4.55859 10.4766 4.88672 10.125 4.88672 9.51562V6.75C4.88672 5.53125 5.53125 4.91016 6.70312 4.91016H9.53906C10.1602 4.91016 10.5 4.57031 10.5 3.96094C10.5 3.35156 10.1602 3.02344 9.53906 3.02344H6.67969C4.23047 3.02344 3 4.23047 3 6.64453V9.51562C3 10.125 3.33984 10.4766 3.9375 10.4766ZM24.9961 10.4766C25.6172 10.4766 25.9453 10.125 25.9453 9.51562V6.64453C25.9453 4.23047 24.7148 3.02344 22.2656 3.02344H19.3945C18.7852 3.02344 18.4453 3.35156 18.4453 3.96094C18.4453 4.57031 18.7852 4.91016 19.3945 4.91016H22.2305C23.3906 4.91016 24.0586 5.53125 24.0586 6.75V9.51562C24.0586 10.125 24.3984 10.4766 24.9961 10.4766ZM6.67969 25.957H9.53906C10.1602 25.957 10.5 25.6172 10.5 25.0195C10.5 24.4102 10.1602 24.0703 9.53906 24.0703H6.70312C5.53125 24.0703 4.88672 23.4492 4.88672 22.2305V19.4648C4.88672 18.8438 4.54688 18.5039 3.9375 18.5039C3.32812 18.5039 3 18.8438 3 19.4648V22.3242C3 24.75 4.23047 25.957 6.67969 25.957ZM19.3945 25.957H22.2656C24.7148 25.957 25.9453 24.7383 25.9453 22.3242V19.4648C25.9453 18.8438 25.6055 18.5039 24.9961 18.5039C24.3867 18.5039 24.0586 18.8438 24.0586 19.4648V22.2305C24.0586 23.4492 23.3906 24.0703 22.2305 24.0703H19.3945C18.7852 24.0703 18.4453 24.4102 18.4453 25.0195C18.4453 25.6172 18.7852 25.957 19.3945 25.957Z" fill="black" fill-opacity="0.85"/>
<path d="M11.1914 21.7266H18.2695C19.7461 21.7266 20.4727 20.9648 20.4727 19.4883V14.0508H15C14.1328 14.0508 13.6406 13.5469 13.6406 12.6797V7.21875H11.1914C9.73828 7.21875 8.98828 7.98047 8.98828 9.44531V19.4883C8.98828 20.9766 9.73828 21.7266 11.1914 21.7266ZM15.3281 12.75H20.4023C20.3438 12.4688 20.1445 12.1641 19.8047 11.8242L15.8555 7.875C15.5156 7.53516 15.2344 7.33594 14.9414 7.28906V12.375C14.9414 12.6211 15.0703 12.75 15.3281 12.75Z" fill="black" fill-opacity="0.85"/>
</g>
<defs>
<clipPath id="clip0_2124_89308">
<rect width="22.9453" height="22.957" fill="white" transform="translate(3 3)"/>
</clipPath>
</defs>
</svg>
