<svg width="39" height="31" viewBox="0 0 39 31" fill="none" xmlns="http://www.w3.org/2000/svg">
<path d="M10.1495 22.3188L11.3916 21.6039C11.2159 21.4047 11.0284 21.1703 10.876 20.9125C9.90335 19.2133 10.4659 17.1039 12.1534 16.1195C13.8643 15.1352 15.9737 15.6977 16.9463 17.4086C17.0987 17.6664 17.2041 17.9242 17.2862 18.2055L27.3526 12.393C27.1651 12.182 26.9893 11.9477 26.837 11.6898C25.8526 9.99061 26.4151 7.89294 28.126 6.89685C29.8135 5.92419 31.9346 6.49841 32.919 8.18591C33.0479 8.45544 33.1651 8.72497 33.2471 8.9945L34.2901 8.38514C35.4385 7.72889 35.708 6.60388 35.0401 5.44372L33.2002 2.2445C32.5791 1.14294 31.6768 0.404664 29.9424 0.791383L28.0323 1.22497C26.2979 0.592164 23.4854 -0.110961 20.2393 1.77575L18.3877 2.84216C15.1299 4.7406 13.9932 5.78357 12.7627 8.12732L10.7354 11.9594L7.48929 14.4086C5.45023 15.9438 4.87601 17.9477 5.97757 19.8344L6.87991 21.4047C7.65335 22.7406 8.86038 23.0805 10.1495 22.3188ZM15.1299 21.2641C16.3252 20.5844 16.7002 19.1078 16.0205 17.9359C15.3409 16.7641 13.8643 16.3656 12.6924 17.0453C11.5205 17.725 11.1221 19.2133 11.8018 20.3852C12.4698 21.557 13.958 21.9438 15.1299 21.2641ZM31.1026 12.0531C32.2627 11.3734 32.6612 9.89686 31.9815 8.72498C31.3018 7.55311 29.8252 7.14294 28.6534 7.82263C27.4932 8.51403 27.083 9.99061 27.751 11.1625C28.4307 12.3344 29.919 12.7211 31.1026 12.0531Z" fill="black" fill-opacity="0.85"/>
<path d="M6.9264 29.7602C7.19593 30.2172 7.78187 30.3578 8.21546 30.1234L38.4381 12.6625C38.8717 12.4281 39.0475 11.8422 38.778 11.3969C38.5084 10.9281 37.9225 10.7875 37.5006 11.0336L7.26624 28.4828C6.83265 28.7289 6.66859 29.3148 6.9264 29.7602ZM5.28577 23.7484L2.82484 19.4711C2.40296 18.7563 1.58265 18.9438 1.34827 19.6352L0.0592106 23.2445C-0.116571 23.7484 0.106086 24.1469 0.633429 24.2406L4.39515 24.932C5.13343 25.0844 5.68421 24.4516 5.28577 23.7484Z" fill="black" fill-opacity="0.85"/>
</svg>
