<svg width="28" height="28" viewBox="0 0 28 28" fill="none" xmlns="http://www.w3.org/2000/svg">
<g clip-path="url(#clip0_2124_62608)">
<path d="M6.67969 24.5977H20.8945C23.3555 24.5977 24.5742 23.3789 24.5742 20.9648V6.65625C24.5742 4.24219 23.3555 3.02344 20.8945 3.02344H6.67969C4.23047 3.02344 3 4.23047 3 6.65625V20.9648C3 23.3906 4.23047 24.5977 6.67969 24.5977ZM6.70312 22.7109C5.53125 22.7109 4.88672 22.0898 4.88672 20.8711V6.75C4.88672 5.53125 5.53125 4.91016 6.70312 4.91016H20.8711C22.0312 4.91016 22.6875 5.53125 22.6875 6.75V20.8711C22.6875 22.0898 22.0312 22.7109 20.8711 22.7109H6.70312Z" fill="black" fill-opacity="0.85"/>
<path d="M11.0391 12.7148V14.8828H10.1602C8.77734 14.8828 7.67578 15.9844 7.67578 17.3438C7.67578 18.7266 8.77734 19.8398 10.1602 19.8398C11.5195 19.8398 12.6445 18.7148 12.6445 17.3438V16.4531H14.7773V17.3438C14.7773 18.7148 15.8906 19.8398 17.2617 19.8398C18.6328 19.8398 19.7461 18.7266 19.7461 17.3438C19.7461 15.9844 18.6328 14.8828 17.2617 14.8828H16.3711V12.7148H17.2617C18.6328 12.7148 19.7461 11.6133 19.7461 10.2422C19.7461 8.87109 18.6328 7.75781 17.2617 7.75781C15.8906 7.75781 14.7773 8.88281 14.7773 10.2422V11.1328H12.6445V10.2422C12.6445 8.88281 11.5195 7.75781 10.1602 7.75781C8.77734 7.75781 7.67578 8.87109 7.67578 10.2422C7.67578 11.6133 8.77734 12.7148 10.1602 12.7148H11.0391ZM12.6445 14.8945V12.7031H14.7773V14.8945H12.6445ZM10.1602 11.1445C9.65625 11.1445 9.25781 10.7461 9.25781 10.2422C9.25781 9.76172 9.66797 9.33984 10.1602 9.33984C10.6406 9.33984 11.0391 9.76172 11.0391 10.2422V11.1445H10.1602ZM17.2617 11.1445H16.3711V10.2422C16.3711 9.76172 16.7812 9.33984 17.2617 9.33984C17.7422 9.33984 18.1641 9.76172 18.1641 10.2422C18.1641 10.7461 17.7539 11.1445 17.2617 11.1445ZM10.1602 16.4297H11.0391V17.332C11.0391 17.8359 10.6406 18.2344 10.1602 18.2344C9.65625 18.2344 9.25781 17.8359 9.25781 17.332C9.25781 16.8516 9.66797 16.4297 10.1602 16.4297ZM17.2617 16.4297C17.7422 16.4297 18.1641 16.8516 18.1641 17.332C18.1641 17.8359 17.7539 18.2344 17.2617 18.2344C16.7812 18.2344 16.3711 17.8359 16.3711 17.332V16.4297H17.2617Z" fill="black" fill-opacity="0.85"/>
</g>
<defs>
<clipPath id="clip0_2124_62608">
<rect width="21.5742" height="21.5977" fill="white" transform="translate(3 3)"/>
</clipPath>
</defs>
</svg>
