<svg width="28" height="28" viewBox="0 0 28 28" fill="none" xmlns="http://www.w3.org/2000/svg">
<path d="M13.8203 16.75L16.6445 21.1797L18.7539 26.9922C18.9882 27.6367 19.6093 27.8477 20.1367 27.6484C20.6992 27.4609 20.9921 26.8164 20.7812 26.2656L18.6484 20.3945L16.5273 14.5703V9.28516C16.5273 9.03906 16.6562 8.81641 16.8789 8.69922L24.0625 4.86719C24.5898 4.58594 24.789 3.94141 24.5078 3.40234C24.2265 2.875 23.582 2.6875 23.0546 2.96875L16.1171 6.63672C15.3437 7.04688 14.582 7.23438 13.8203 7.23438C13.0586 7.23438 12.2968 7.04688 11.5234 6.63672L4.5859 2.96875C4.05856 2.6875 3.41402 2.875 3.13277 3.40234C2.83981 3.94141 3.05074 4.58594 3.57809 4.86719L10.7617 8.69922C10.9843 8.81641 11.1132 9.03906 11.1132 9.28516V14.5703L8.99215 20.3945L6.85934 26.2656C6.6484 26.8164 6.94137 27.4609 7.49215 27.6484C8.03121 27.8477 8.65231 27.6367 8.88668 26.9922L10.9961 21.1797L13.8203 16.75ZM13.8203 6.01562C15.1914 6.01562 16.3046 4.89062 16.3046 3.49609C16.3046 2.125 15.1914 1 13.8203 1C12.4257 1 11.3007 2.125 11.3007 3.49609C11.3007 4.89062 12.4257 6.01562 13.8203 6.01562Z" fill="black" fill-opacity="0.85"/>
</svg>
