<svg width="28" height="31" viewBox="0 0 28 31" fill="none" xmlns="http://www.w3.org/2000/svg">
<path d="M23.4258 11.334C24.832 11.334 25.9688 10.1855 25.9688 8.75586C25.9688 7.34961 24.832 6.21289 23.4258 6.21289C21.9961 6.21289 20.8477 7.34961 20.8477 8.75586C20.8477 10.1855 21.9961 11.334 23.4258 11.334ZM12.9375 20.5215L17.2852 23.6972L14.7539 28.748C14.4609 29.3222 14.6953 30.0605 15.293 30.3652C15.832 30.623 16.5586 30.4707 16.875 29.8261L19.8398 23.8965C20.0977 23.3691 20.0039 22.8418 19.5938 22.4433L17.3555 20.3457H21.1641C21.8555 20.3457 22.3594 19.8066 22.3594 19.1504V14.3808C22.3594 12.4238 20.7773 10.8183 18.7969 10.8183H14.4023L15.1641 8.14648C15.3398 7.52539 15 6.86914 14.3555 6.68164C13.7227 6.49414 13.0664 6.86914 12.8906 7.49023L11.707 11.6621C11.4844 12.459 11.9531 13.1855 12.7969 13.1855H17.0742C17.1211 13.1855 17.1562 13.2558 17.1094 13.291L13.3828 15.1777C11.2852 16.2324 11.0273 19.1152 12.9375 20.5215ZM17.4492 18.0136L19.8164 16.8886C19.9219 16.8418 20.0508 16.9121 20.0508 17.0293V18.0136H17.4492ZM11.2031 20.3105L10.1836 23.3105H4.21875C3.53906 23.3105 3 23.8496 3 24.5058C3 25.1855 3.53906 25.7246 4.21875 25.7246H11.0391C11.4844 25.7246 11.9297 25.4668 12.1289 25.0332L13.4883 22.3144L12.2695 21.4355C11.8359 21.1074 11.4727 20.7207 11.2031 20.3105ZM13.5469 5.27539H14.5078C15.2109 4.41992 16.0195 2.97851 16.0195 2.01757C16.0195 0.833984 15.1992 0.0136719 14.0391 0.0136719C12.8555 0.0136719 12.0234 0.833984 12.0234 2.01757C12.0234 3.08398 12.832 4.51367 13.5469 5.27539ZM13.3594 17.58H14.6836V4.84179H13.3594V17.58Z" fill="black" fill-opacity="0.85"/>
</svg>
