<svg width="29" height="28" viewBox="0 0 29 28" fill="none" xmlns="http://www.w3.org/2000/svg">
<g clip-path="url(#clip0_2124_50124)">
<path d="M27.7031 26.8672C28.2305 26.8672 28.6523 26.4453 28.6523 25.9297V4.39062C28.6523 2.96094 27.668 2 26.1914 2H2.44922C0.984375 2 0 2.96094 0 4.39062V25.9297C0 26.4453 0.421875 26.8672 0.9375 26.8672C1.46484 26.8672 1.88672 26.4453 1.88672 25.9297V4.50781C1.88672 4.13281 2.13281 3.88672 2.48438 3.88672H26.168C26.5195 3.88672 26.7656 4.13281 26.7656 4.50781V25.9297C26.7656 26.4453 27.1875 26.8672 27.7031 26.8672Z" fill="black" fill-opacity="0.85"/>
<path d="M13.8281 26.457C14.0508 26.457 14.2266 26.2695 14.2266 26.0586V5.64453C14.2266 5.42188 14.0508 5.24609 13.8281 5.24609H3.65625C3.43359 5.24609 3.25781 5.42188 3.25781 5.64453V26.0586C3.25781 26.2695 3.43359 26.457 3.65625 26.457H13.8281ZM11.5781 17.6914C11.2383 17.6914 11.0039 17.457 11.0039 17.1172V15.0664C11.0039 14.7266 11.2383 14.5039 11.5781 14.5039C11.9062 14.5039 12.1406 14.7266 12.1406 15.0664V17.1172C12.1406 17.457 11.9062 17.6914 11.5781 17.6914Z" fill="black" fill-opacity="0.85"/>
</g>
<defs>
<clipPath id="clip0_2124_50124">
<rect width="28.6523" height="24.8789" fill="white" transform="translate(0 2)"/>
</clipPath>
</defs>
</svg>
