<svg width="28" height="28" viewBox="0 0 28 28" fill="none" xmlns="http://www.w3.org/2000/svg">
<path d="M13.9531 25.9062C20.4922 25.9062 25.9062 20.4805 25.9062 13.9531C25.9062 7.41406 20.4805 2 13.9414 2C7.41406 2 2 7.41406 2 13.9531C2 20.4805 7.42578 25.9062 13.9531 25.9062ZM13.9531 23.9141C8.42188 23.9141 4.00391 19.4844 4.00391 13.9531C4.00391 8.42188 8.41016 3.99219 13.9414 3.99219C19.4727 3.99219 23.9141 8.42188 23.9141 13.9531C23.9141 19.4844 19.4844 23.9141 13.9531 23.9141Z" fill="black" fill-opacity="0.85"/>
<path d="M14.1172 20.9609C14.4453 20.9609 14.6914 20.7266 14.6914 20.375V19.5898C17.1172 19.3906 18.4414 17.6797 18.4414 15.0195V14.4336C18.4414 13.9297 18.1367 13.6367 17.668 13.6367H14.6914V9.81641C15.7227 9.98047 16.543 10.6836 16.8008 11.6094C16.9531 12.0664 17.1523 12.2305 17.5625 12.2305C17.9961 12.2305 18.2773 11.9375 18.2773 11.5156C18.2773 11.3047 18.2305 11.1289 18.1719 10.9414C17.668 9.53516 16.3438 8.55078 14.6914 8.375V7.61328C14.6914 7.26172 14.4453 7.03906 14.1172 7.03906C13.7773 7.03906 13.5312 7.26172 13.5312 7.61328V8.39844C11.0469 8.70312 9.44141 10.8125 9.44141 13.9648C9.44141 17.1875 11.0234 19.2734 13.5312 19.5781V20.375C13.5312 20.7266 13.7891 20.9609 14.1172 20.9609ZM13.5312 18.125C11.9727 17.7969 11.0117 16.25 11.0117 13.9648C11.0117 11.7148 11.9727 10.168 13.5312 9.83984V18.125ZM14.6914 18.1719V15.0195H16.9297V15.2773C16.9297 16.8594 16.0977 17.9609 14.6914 18.1719Z" fill="black" fill-opacity="0.85"/>
</svg>
