<svg width="28" height="28" viewBox="0 0 28 28" fill="none" xmlns="http://www.w3.org/2000/svg">
<g clip-path="url(#clip0_2124_24874)">
<path d="M13.9531 25.9062C20.4922 25.9062 25.9062 20.4805 25.9062 13.9531C25.9062 7.41406 20.4805 2 13.9414 2C7.41406 2 2 7.41406 2 13.9531C2 20.4805 7.42578 25.9062 13.9531 25.9062ZM13.9531 23.9141C8.42188 23.9141 4.00391 19.4844 4.00391 13.9531C4.00391 8.42188 8.41016 3.99219 13.9414 3.99219C19.4727 3.99219 23.9141 8.42188 23.9141 13.9531C23.9141 19.4844 19.4844 23.9141 13.9531 23.9141Z" fill="black" fill-opacity="0.85"/>
<path d="M7.51953 17.832C7.51953 18.2422 7.83594 18.5469 8.24609 18.5469H8.89062C9.28906 18.5469 9.60547 18.2422 9.60547 17.832V16.9297C10.8125 17 12.5586 17.0586 13.9531 17.0586C15.3477 17.0586 17.082 17 18.2891 16.9297V17.832C18.2891 18.2422 18.6055 18.5469 19.0156 18.5469H19.6602C20.0586 18.5469 20.375 18.2422 20.375 17.832V14.7031C20.375 13.8008 20.1875 13.2852 19.6836 12.6289L19.2266 12.043C19.0156 11.0586 18.6641 10.0273 18.4883 9.62891C18.1953 9.01953 17.6328 8.66797 16.9062 8.5625C16.543 8.51562 15.3477 8.49219 13.9531 8.49219C12.5469 8.49219 11.3633 8.51562 10.9883 8.5625C10.2734 8.65625 9.71094 9.01953 9.41797 9.62891C9.23047 10.0273 8.87891 11.0586 8.67969 12.043L8.21094 12.6289C7.71875 13.2852 7.51953 13.8008 7.51953 14.7031V17.832ZM12.0195 13.2031C12.0195 13.1328 12.043 13.0625 12.1016 12.9922L14.457 9.98047C14.6797 9.6875 15.0312 9.875 14.9023 10.2148L14.1758 12.1719H15.6406C15.7812 12.1719 15.8867 12.2773 15.8867 12.418C15.8867 12.4766 15.8398 12.5586 15.8047 12.6172L13.4727 15.6289C13.25 15.9219 12.875 15.7227 13.0039 15.3828L13.7305 13.4141H12.2656C12.125 13.4141 12.0195 13.3203 12.0195 13.2031Z" fill="black" fill-opacity="0.85"/>
</g>
<defs>
<clipPath id="clip0_2124_24874">
<rect width="23.9062" height="23.918" fill="white" transform="translate(2 2)"/>
</clipPath>
</defs>
</svg>
