<svg width="29" height="28" viewBox="0 0 29 28" fill="none" xmlns="http://www.w3.org/2000/svg">
<g clip-path="url(#clip0_2124_50137)">
<path d="M0.949219 26.8672C1.46484 26.8672 1.88672 26.4453 1.88672 25.9297V2.9375C1.88672 2.42188 1.46484 2 0.949219 2C0.421875 2 0 2.42188 0 2.9375V25.9297C0 26.4453 0.421875 26.8672 0.949219 26.8672ZM27.1992 26.8672C27.7148 26.8672 28.1367 26.4453 28.1367 25.9297V2.9375C28.1367 2.42188 27.7148 2 27.1992 2C26.6719 2 26.25 2.42188 26.25 2.9375V25.9297C26.25 26.4453 26.6719 26.8672 27.1992 26.8672ZM24.0703 6.89844H27.1992V5.36328H24.0703V6.89844ZM24.0703 12.4531H27.1992V10.918H24.0703V12.4531ZM24.0703 17.9961H27.1992V16.4609H24.0703V17.9961ZM24.0703 23.5391H27.1992V22.0039H24.0703V23.5391Z" fill="black" fill-opacity="0.85"/>
<path d="M12.6562 9.72267L24.0469 8.38673C24.5508 8.32813 24.8789 8.0586 24.8789 7.56642V4.67189C24.8789 4.16798 24.5508 3.73439 24.0469 3.85157L12.5039 6.40626C12.0352 6.51173 11.8242 6.81642 11.8242 7.1797V8.98439C11.8242 9.51173 12.1055 9.79298 12.6562 9.72267ZM12.5039 13.9531H24.0469C24.5508 13.9531 24.8789 13.625 24.8789 13.1328V10.2383C24.8789 9.73439 24.5625 9.35939 24.0469 9.41798L12.5039 10.7656C12.082 10.8125 11.8242 11.1289 11.8242 11.5625V13.1914C11.8242 13.6602 12.1055 13.9531 12.5039 13.9531ZM12.5039 18.1602L24.0469 19.5078C24.5625 19.5664 24.8789 19.1914 24.8789 18.6875V15.793C24.8789 15.3008 24.5508 14.9727 24.0469 14.9727H12.5039C12.1055 14.9727 11.8242 15.2656 11.8242 15.7344V17.3633C11.8242 17.7969 12.082 18.1016 12.5039 18.1602ZM12.5039 22.5195L24.0469 25.0742C24.5508 25.1797 24.8789 24.7578 24.8789 24.2539V21.3477C24.8789 20.8672 24.5508 20.5977 24.0469 20.5391L12.6562 19.2031C12.1055 19.1328 11.8242 19.4141 11.8242 19.9414V21.7461C11.8242 22.1094 12.0352 22.4141 12.5039 22.5195Z" fill="black" fill-opacity="0.85"/>
</g>
<defs>
<clipPath id="clip0_2124_50137">
<rect width="28.1367" height="24.8789" fill="white" transform="translate(0 2)"/>
</clipPath>
</defs>
</svg>
