<svg width="28" height="28" viewBox="0 0 28 28" fill="none" xmlns="http://www.w3.org/2000/svg">
<g clip-path="url(#clip0_2124_24639)">
<path d="M5.05859 21.0703H23.7734C25.6016 21.0703 26.8203 19.7812 26.8203 17.8711V9.1875C26.8203 7.27734 25.6016 6 23.7734 6H5.05859C3.23047 6 2 7.27734 2 9.1875V17.8711C2 19.7812 3.23047 21.0703 5.05859 21.0703ZM5.36328 19.1836C4.41406 19.1836 3.88672 18.6211 3.88672 17.6367V9.43359C3.88672 8.44922 4.41406 7.88672 5.36328 7.88672H23.4688C24.4062 7.88672 24.9336 8.44922 24.9336 9.43359V17.6367C24.9336 18.6211 24.4062 19.1836 23.4688 19.1836H5.36328ZM11.293 18.3164H17.5391C17.8555 18.3164 18.0781 18.0938 18.0781 17.7656C18.0781 17.4375 17.8555 17.2266 17.5391 17.2266H11.293C10.9766 17.2266 10.7539 17.4375 10.7539 17.7656C10.7539 18.0938 10.9766 18.3164 11.293 18.3164ZM5.55078 15.7852C6.01953 15.7852 6.38281 15.4102 6.38281 14.9414V12.1055C6.38281 11.6484 6.01953 11.2852 5.55078 11.2852C5.09375 11.2852 4.71875 11.6484 4.71875 12.1055V14.9414C4.71875 15.4102 5.09375 15.7852 5.55078 15.7852Z" fill="black" fill-opacity="0.85"/>
</g>
<defs>
<clipPath id="clip0_2124_24639">
<rect width="24.8203" height="15.1055" fill="white" transform="translate(2 6)"/>
</clipPath>
</defs>
</svg>
