<svg width="28" height="28" viewBox="0 0 28 28" fill="none" xmlns="http://www.w3.org/2000/svg">
<path d="M13.9531 25.9062C20.4922 25.9062 25.9062 20.4805 25.9062 13.9531C25.9062 7.41406 20.4805 2 13.9414 2C7.41406 2 2 7.41406 2 13.9531C2 20.4805 7.42578 25.9062 13.9531 25.9062Z" fill="black" fill-opacity="0.85"/>
<path d="M10.1094 18.3242C9.66406 18.3242 9.34766 18.0195 9.34766 17.5859V10.7305C9.34766 10.2734 9.65234 9.96875 10.0742 9.96875C10.4844 9.96875 10.7891 10.2383 10.7891 10.7656V10.9062C11.1523 10.2383 11.7148 9.93359 12.3945 9.93359C13.168 9.93359 13.7656 10.2617 14.1055 10.9531L15.582 7.35547C15.6992 7.08594 15.875 6.92188 16.1445 6.92188C16.4727 6.92188 16.7422 7.15625 16.7422 7.47266C16.7422 7.58984 16.707 7.70703 16.6719 7.80078L15.7461 10.0273C15.9102 9.96875 16.0742 9.93359 16.2734 9.93359C17.6797 9.93359 18.582 10.918 18.582 12.5352V17.5508C18.582 18.0195 18.2656 18.3242 17.832 18.3242C17.3984 18.3242 17.0938 18.0195 17.0938 17.5508V12.6523C17.0938 11.8203 16.6602 11.293 15.9219 11.293C15.1719 11.293 14.7148 11.8437 14.7148 12.6992V17.5508C14.7148 18.0195 14.4102 18.3242 13.9648 18.3242C13.5312 18.3242 13.2266 18.0195 13.2266 17.5508V16.4961L11.7617 20.5508C11.6562 20.832 11.457 20.9961 11.1875 20.9961C10.8594 20.9961 10.6133 20.75 10.6133 20.4336C10.6133 20.3164 10.6367 20.1992 10.6836 20.0938L13.2266 13.0625V12.5703C13.2266 11.8203 12.7578 11.2812 12.0898 11.2812C11.3164 11.2812 10.8477 11.8789 10.8477 12.7578V17.5508C10.8477 18.0195 10.543 18.3242 10.1094 18.3242Z" fill="white"/>
</svg>
