<svg width="28" height="28" viewBox="0 0 28 28" fill="none" xmlns="http://www.w3.org/2000/svg">
<path d="M4.99163 20.9927L5.92913 22.6099L14.2846 18.4146L22.6401 22.6099L23.5893 20.9927L15.2338 16.7974V6.90675H13.3471V16.7974L4.99163 20.9927ZM2.13226 22.645C1.80413 23.395 2.0971 23.8755 2.89397 23.9692L7.74554 24.4966C8.82366 24.6255 9.45648 23.9575 8.88226 22.9732L5.98773 17.9575C5.43694 16.9966 4.5346 17.1958 4.11273 18.1802L2.13226 22.645ZM26.4369 22.645L24.4682 18.1802C24.0346 17.1958 23.144 16.9966 22.5932 17.9575L19.6869 22.9732C19.1127 23.9575 19.7573 24.6255 20.8237 24.4966L25.6752 23.9692C26.4721 23.8755 26.7651 23.395 26.4369 22.645ZM13.5112 3.49659L10.6401 7.42237C9.99554 8.28956 10.2651 9.18019 11.3901 9.18019H17.1674C18.3159 9.18019 18.5619 8.30128 17.9174 7.42237L15.0346 3.49659C14.5424 2.84034 14.0034 2.82862 13.5112 3.49659Z" fill="black" fill-opacity="0.85"/>
</svg>
