<svg width="29" height="28" viewBox="0 0 29 28" fill="none" xmlns="http://www.w3.org/2000/svg">
<path d="M6.53613 7.12109C7.94238 7.12109 9.09082 5.97266 9.09082 4.54297C9.09082 3.13672 7.94238 2 6.53613 2C5.12988 2 3.96973 3.13672 3.96973 4.54297C3.96973 5.97266 5.12988 7.12109 6.53613 7.12109ZM3.95801 22.2617C4.83691 21.9453 5.55176 21.5234 6.39551 21.1953L6.58301 19.4844C6.60645 19.3555 6.78223 19.332 6.8291 19.4375L7.54395 20.8672C7.91895 20.7852 8.3291 20.7383 8.82129 20.7383C9.39551 20.7383 9.85254 20.8203 10.251 20.9727L9.06738 17.7852V10.7305C9.06738 9.42969 8.15332 8.35156 6.54785 8.35156H5.99707C5.03613 8.35156 3.95801 8.48047 2.98535 9.42969L0.325195 12.0781C-0.108398 12.5117 -0.108398 13.2617 0.325195 13.6836L3.95801 17.2695V22.2617ZM3.95801 14.1172L2.73926 12.8867L3.59473 12.0195C3.73535 11.8789 3.95801 11.9609 3.95801 12.1719V14.1172ZM1.7666 18.9805L26.5752 3.75781C26.8916 3.55859 26.9736 3.17188 26.7627 2.84375C26.5752 2.52734 26.1885 2.44531 25.8721 2.64453L1.0752 17.8555C0.758789 18.0547 0.665039 18.4531 0.875977 18.7695C1.06348 19.0859 1.4502 19.1797 1.7666 18.9805ZM1.37988 25.7656H2.5752C5.7041 25.7656 6.41895 23.832 8.58691 23.832C10.7549 23.832 11.4697 25.7656 14.5986 25.7656C17.7275 25.7656 18.4424 23.832 20.6104 23.832C22.7783 23.832 23.4932 25.7656 26.6221 25.7656H27.8174C28.1807 25.7656 28.4619 25.4844 28.4619 25.1211C28.4619 24.7578 28.1807 24.4648 27.8174 24.4648H26.6221C24.3721 24.4648 23.6104 22.5312 20.6104 22.5312C17.6104 22.5312 16.8486 24.4648 14.5986 24.4648C12.3486 24.4648 11.5869 22.5312 8.58691 22.5312C5.5752 22.5312 4.8252 24.4648 2.5752 24.4648H1.37988C1.0166 24.4648 0.723633 24.7578 0.723633 25.1211C0.723633 25.4844 1.0166 25.7656 1.37988 25.7656Z" fill="black" fill-opacity="0.85"/>
</svg>
