<svg width="31" height="28" viewBox="0 0 31 28" fill="none" xmlns="http://www.w3.org/2000/svg">
<path d="M3.67969 20.9102H19.6875C22.1367 20.9102 23.3672 19.6914 23.3672 17.2773V6.22656C23.3672 3.8125 22.1367 2.59375 19.6875 2.59375H3.67969C1.23047 2.59375 0 3.8125 0 6.22656V17.2773C0 19.7031 1.23047 20.9102 3.67969 20.9102Z" fill="black" fill-opacity="0.85"/>
<path d="M9.46875 27.9414H25.4766C28.8047 27.9414 30.7617 26.0078 30.7617 22.7031V11.6523C30.7617 8.34766 28.8047 6.42578 25.4766 6.42578H9.46875C6.12891 6.42578 4.19531 8.34766 4.19531 11.6523V22.7031C4.19531 26.0195 6.12891 27.9414 9.46875 27.9414Z" fill="white"/>
<path d="M9.46875 26.3359H25.4766C27.9258 26.3359 29.1562 25.1172 29.1562 22.7031V11.6523C29.1562 9.23828 27.9258 8.01953 25.4766 8.01953H9.46875C7.01953 8.01953 5.78906 9.23828 5.78906 11.6523V22.7031C5.78906 25.1289 7.01953 26.3359 9.46875 26.3359Z" fill="black" fill-opacity="0.85"/>
<path d="M13.1133 21.9648V17.1602C13.1133 16.3047 13.4648 15.8828 14.168 15.8359V14.418C14.168 12.1914 15.5156 10.6914 17.4727 10.6914C19.4414 10.6914 20.7773 12.1914 20.7773 14.418V15.8359C21.4922 15.8828 21.8438 16.3047 21.8438 17.1602V21.9648C21.8438 22.8672 21.4453 23.2891 20.6016 23.2891H14.3438C13.5117 23.2891 13.1133 22.8672 13.1133 21.9648ZM15.4336 15.8242H19.5117V14.2773C19.5117 12.8594 18.7031 11.9102 17.4727 11.9102C16.2539 11.9102 15.4336 12.8594 15.4336 14.2773V15.8242Z" fill="white"/>
</svg>
