<svg width="31" height="29" viewBox="0 0 31 29" fill="none" xmlns="http://www.w3.org/2000/svg">
<g clip-path="url(#clip0_2124_46036)">
<path d="M0.00195312 2.27179C0.00195312 2.70538 0.353515 3.06866 0.798828 3.06866H11.3926C11.8262 3.06866 12.1778 2.70538 12.1778 2.27179C12.1778 1.8382 11.8262 1.48663 11.3926 1.48663H0.798828C0.353515 1.48663 0.00195312 1.8382 0.00195312 2.27179Z" fill="black" fill-opacity="0.85"/>
<path d="M0.00195312 6.67804C0.00195312 7.11163 0.353515 7.46319 0.798828 7.46319H11.3926C11.8262 7.46319 12.1778 7.11163 12.1778 6.67804C12.1778 6.24444 11.8262 5.88116 11.3926 5.88116H0.798828C0.353515 5.88116 0.00195312 6.24444 0.00195312 6.67804Z" fill="black" fill-opacity="0.85"/>
<path d="M0.00195312 11.0843C0.00195312 11.5179 0.353515 11.8695 0.798828 11.8695H7.09179C7.52539 11.8695 7.87695 11.5179 7.87695 11.0843C7.87695 10.639 7.52539 10.2874 7.09179 10.2874H0.798828C0.353515 10.2874 0.00195312 10.639 0.00195312 11.0843Z" fill="black" fill-opacity="0.85"/>
<path d="M23.58 26.4241C29.0644 24.432 31.4785 19.2523 29.3105 13.264L28.4317 10.8499C27.3652 7.93194 25.1972 6.36163 22.6542 6.77179C21.623 6.06866 20.3339 5.96319 19.1855 6.47882C18.4355 6.02179 17.5566 5.85772 16.7128 6.02179L15.9277 3.88897C15.1308 1.69757 12.9628 0.654603 10.8066 1.41632C8.68554 2.21319 7.63086 4.36944 8.45117 6.60772L10.291 11.6702C9.8457 11.5062 9.37695 11.5062 8.93164 11.6702C7.43164 12.221 6.41211 13.5452 6.41211 15.0804C6.41211 16.0648 6.86914 17.0843 7.53711 17.8929L11.4628 22.6507C14.8496 26.7288 19.0097 28.0765 23.58 26.4241Z" fill="white"/>
<path d="M23.0284 24.9124C27.6925 23.2249 29.673 18.9593 27.798 13.803L26.9191 11.4007C25.9933 8.85772 24.2589 7.81476 22.1964 8.5296C21.6573 7.81476 20.8019 7.56866 19.8878 7.89679C19.548 8.02569 19.255 8.20147 18.9855 8.41241C18.3761 7.63897 17.4503 7.35772 16.4894 7.69757C16.2433 7.79132 15.9855 7.93194 15.7628 8.09601L14.4269 4.43976C13.9113 3.04522 12.6573 2.45929 11.3566 2.92804C10.0441 3.40851 9.44643 4.66241 9.96206 6.05694L13.3019 15.2445C13.3253 15.303 13.3136 15.3499 13.255 15.3734C13.2081 15.3968 13.173 15.3734 13.1378 15.3382L11.755 13.8382C11.0753 13.1116 10.2667 12.889 9.48159 13.1702C8.41518 13.5687 7.71206 14.5882 8.15737 15.7952C8.27456 16.1351 8.50893 16.5452 8.77846 16.8851L12.7042 21.6312C15.6691 25.2171 19.1495 26.3304 23.0284 24.9124ZM22.5363 23.3773C19.4542 24.5023 16.5831 23.928 13.8761 20.6585L9.95034 15.9359C9.82143 15.7952 9.7394 15.6663 9.66909 15.4671C9.54018 15.0921 9.70424 14.6585 10.1495 14.4945C10.5128 14.3655 10.8175 14.5062 11.1105 14.8226L13.8292 17.6234C14.2745 18.0921 14.673 18.139 15.0714 17.9984C15.5284 17.8343 15.7277 17.3421 15.5402 16.8382L11.3917 5.42413C11.2159 4.95538 11.4152 4.51007 11.8722 4.34601C12.3292 4.18194 12.7511 4.4046 12.9269 4.87335L15.8917 13.0179C16.0323 13.4046 16.4659 13.5804 16.8409 13.4398C17.2159 13.2991 17.4269 12.889 17.2863 12.514L16.2199 9.57257C16.3722 9.42022 16.6066 9.26788 16.8175 9.18585C17.38 8.98663 17.837 9.23272 18.048 9.80694L18.9738 12.3734C19.1261 12.7718 19.5597 12.9241 19.9347 12.7835C20.298 12.6546 20.5206 12.2679 20.38 11.8577L19.6183 9.77179C19.7706 9.61944 20.005 9.4671 20.2159 9.38507C20.7667 9.18585 21.2355 9.43194 21.4464 10.0062L22.0675 11.7171C22.2199 12.1273 22.6534 12.2796 23.0284 12.139C23.38 12.0101 23.6144 11.6116 23.462 11.2132L23.005 9.94757C23.9894 9.59601 24.9152 10.3929 25.548 12.1507L26.2745 14.1546C27.8917 18.5843 26.4269 21.9593 22.5363 23.3773Z" fill="black" fill-opacity="0.85"/>
</g>
<defs>
<clipPath id="clip0_2124_46036">
<rect width="30.0992" height="26.0914" fill="white" transform="translate(0.00195312 1.021)"/>
</clipPath>
</defs>
</svg>
