<svg width="28" height="28" viewBox="0 0 28 28" fill="none" xmlns="http://www.w3.org/2000/svg">
<path d="M13.9531 25.9062C20.4922 25.9062 25.9062 20.4805 25.9062 13.9531C25.9062 7.41406 20.4805 2 13.9414 2C7.41406 2 2 7.41406 2 13.9531C2 20.4805 7.42578 25.9062 13.9531 25.9062ZM13.9531 23.9141C8.42188 23.9141 4.00391 19.4844 4.00391 13.9531C4.00391 8.42188 8.41016 3.99219 13.9414 3.99219C19.4727 3.99219 23.9141 8.42188 23.9141 13.9531C23.9141 19.4844 19.4844 23.9141 13.9531 23.9141Z" fill="black" fill-opacity="0.85"/>
<path d="M8.76082 13.8008H12.8272C13.4366 13.8008 13.7882 13.5312 13.7882 12.8281V8.75002C13.7882 8.29299 13.4249 7.92971 12.9679 7.92971C12.5108 7.92971 12.1358 8.29299 12.1358 8.75002V9.32424L12.2647 11.1758L9.20613 8.00002C8.86629 7.63674 8.30379 7.63674 7.96394 7.9883C7.6241 8.32814 7.63582 8.89064 7.97566 9.23049L11.1397 12.2656L9.34676 12.1484H8.76082C8.30379 12.1484 7.94051 12.5117 7.94051 12.9688C7.94051 13.4258 8.30379 13.8008 8.76082 13.8008ZM14.9132 19.9648C15.3702 19.9648 15.7335 19.6016 15.7335 19.1445V18.5703L15.6163 16.7188L18.6749 19.8945C19.0147 20.2578 19.5772 20.2578 19.9171 19.9062C20.2569 19.5664 20.2452 18.9922 19.9053 18.6641L16.7413 15.6289L18.5343 15.7461H19.1085C19.5655 15.7461 19.9405 15.3828 19.9405 14.9258C19.9405 14.457 19.5655 14.0938 19.1085 14.0938H15.0538C14.4444 14.0938 14.0811 14.3633 14.0811 15.0547V19.1445C14.0811 19.6016 14.4561 19.9648 14.9132 19.9648Z" fill="black" fill-opacity="0.85"/>
</svg>
