<svg width="43" height="28" viewBox="0 0 43 28" fill="none" xmlns="http://www.w3.org/2000/svg">
<path d="M21.1523 24.457C23.625 24.457 24.832 23.2852 24.832 20.8359V15.1055C24.832 13.4297 24.3633 12.5273 23.0156 11.5078L13.9102 4.58203C12.3633 3.42188 11.168 3.01172 9.25781 3.01172H3.57422C1.20703 3.01172 0 4.20703 0 6.55078V20.8359C0 23.2852 1.19531 24.457 3.67969 24.457H21.1523ZM21.082 13.6523H3.60938C2.53125 13.6523 1.88672 13.0312 1.88672 11.9062V6.64453C1.88672 5.50781 2.51953 4.89844 3.60938 4.89844H9.25781C10.7578 4.89844 11.625 5.15625 12.6211 5.95312L21.3516 12.6328C21.832 12.9844 21.7031 13.6523 21.082 13.6523Z" fill="black" fill-opacity="0.85"/>
<path d="M30.0938 20.2383C30.457 20.2383 30.6797 20.1094 31.043 19.7695L35.5899 15.1875L40.125 19.7578C40.4766 20.0977 40.6992 20.2266 41.0625 20.2266C41.5664 20.2266 42.0117 19.793 42.0117 19.3008C42.0117 18.9609 41.8946 18.7383 41.5899 18.4219L36.9845 13.7812L41.5899 9.14062C41.8946 8.82422 42.0117 8.60156 42.0117 8.26172C42.0117 7.76953 41.5781 7.34766 41.0742 7.34766C40.7109 7.34766 40.4883 7.47656 40.125 7.81641L35.5781 12.3867L31.0548 7.81641C30.7032 7.47656 30.4689 7.34766 30.1173 7.34766C29.6017 7.34766 29.168 7.76953 29.168 8.27344C29.168 8.625 29.2852 8.85938 29.5781 9.16406L34.1837 13.7812L29.5781 18.4336C29.2734 18.75 29.1562 18.9727 29.1562 19.3242C29.1562 19.8164 29.5898 20.2383 30.0938 20.2383Z" fill="black" fill-opacity="0.85"/>
</svg>
