<svg width="28" height="28" viewBox="0 0 28 28" fill="none" xmlns="http://www.w3.org/2000/svg">
<g clip-path="url(#clip0_2124_78040)">
<path d="M3.67969 24.5742H23.9531C26.4141 24.5742 27.6328 23.3672 27.6328 20.9531V6.63281C27.6328 4.21875 26.4141 3 23.9531 3H3.67969C1.23047 3 0 4.21875 0 6.63281V20.9531C0 23.3672 1.23047 24.5742 3.67969 24.5742Z" fill="black" fill-opacity="0.85"/>
<path d="M9.09375 14.8242C8.41406 14.8242 7.93359 14.4609 7.93359 13.8164C7.93359 13.1602 8.39062 12.7852 9.09375 12.7852H18.5625C19.2773 12.7852 19.7109 13.1602 19.7109 13.8164C19.7109 14.4609 19.2422 14.8242 18.5625 14.8242H9.09375Z" fill="white"/>
</g>
<defs>
<clipPath id="clip0_2124_78040">
<rect width="27.6328" height="21.5742" fill="white" transform="translate(0 3)"/>
</clipPath>
</defs>
</svg>
