<svg width="28" height="28" viewBox="0 0 28 28" fill="none" xmlns="http://www.w3.org/2000/svg">
<path d="M6.67969 24.5977H20.8945C23.3555 24.5977 24.5742 23.3789 24.5742 20.9648V6.65625C24.5742 4.24219 23.3555 3.02344 20.8945 3.02344H6.67969C4.23047 3.02344 3 4.23047 3 6.65625V20.9648C3 23.3906 4.23047 24.5977 6.67969 24.5977Z" fill="black" fill-opacity="0.85"/>
<path d="M9.94922 18.9258C7.53516 18.9258 6.82031 16.2305 6.82031 13.793C6.82031 11.3555 7.53516 8.66016 9.94922 8.66016C12.3633 8.66016 13.0898 11.3555 13.0898 13.793C13.0898 16.2305 12.3633 18.9258 9.94922 18.9258ZM9.94922 17.4844C10.9336 17.4844 11.3086 15.8906 11.3086 13.793C11.3086 11.6836 10.9336 10.1016 9.94922 10.1016C8.96484 10.1016 8.58984 11.6836 8.58984 13.793C8.58984 15.8906 8.96484 17.4844 9.94922 17.4844ZM17.4141 18.8906C16.1133 18.8906 14.8828 18.2695 14.5312 17.1445C14.4727 16.9453 14.4375 16.7344 14.4375 16.5117C14.4375 16.043 14.7539 15.75 15.2227 15.75C15.6328 15.75 15.8789 15.9492 15.9961 16.3477C16.1484 16.8984 16.5352 17.4844 17.4141 17.4844C18.3047 17.4844 18.75 16.7695 18.75 15.9492C18.75 14.8945 18.1875 14.332 17.1562 14.332H16.8633C16.4648 14.332 16.1953 14.0977 16.1953 13.6992C16.1953 13.3008 16.4531 13.043 16.8633 13.043H17.1445C18.0469 13.043 18.5508 12.3984 18.5508 11.5195C18.5508 10.7227 18.1641 10.1133 17.3672 10.1133C16.6875 10.1133 16.3008 10.5586 16.1133 11.2734C15.9961 11.6953 15.7617 11.8477 15.3398 11.8477C14.8594 11.8477 14.5898 11.5312 14.5898 11.1328C14.5898 10.9336 14.6133 10.7109 14.6953 10.4766C15.0352 9.41016 16.125 8.70703 17.3672 8.70703C18.9375 8.70703 20.2031 9.65625 20.2031 11.332C20.2031 12.3398 19.6641 13.3242 18.5625 13.6172V13.6523C19.582 13.7578 20.4844 14.4961 20.4844 15.9961C20.4844 17.8008 19.1484 18.8906 17.4141 18.8906Z" fill="white"/>
</svg>
