<svg width="28" height="28" viewBox="0 0 28 28" fill="none" xmlns="http://www.w3.org/2000/svg">
<g clip-path="url(#clip0_2124_24576)">
<path d="M2 25.6523C2 26.8828 2.75 27.6914 3.91016 27.6914H6.41797C7.10938 27.6914 7.61328 27.3281 7.8125 26.6836L8.38672 24.7031H19.8242L20.3984 26.6836C20.5977 27.3281 21.1133 27.6914 21.8047 27.6914H24.3008C25.4609 27.6914 26.2109 26.8828 26.2109 25.6523V2.05078C26.2109 0.820312 25.4609 0.0117188 24.3008 0.0117188H21.8047C21.1133 0.0117188 20.5977 0.375 20.3984 1.01953L19.8242 3H8.38672L7.8125 1.01953C7.61328 0.375 7.10938 0.0117188 6.41797 0.0117188H3.91016C2.75 0.0117188 2 0.820312 2 2.05078V25.6523ZM12.7812 17.9297C12.2188 17.9297 11.832 17.4023 11.3867 16.7695C10.8594 16.0195 10.4375 14.8711 10.4375 13.7695C10.4375 11.9883 11.5742 11.0625 12.7109 11.0625C13.3203 11.0625 13.8008 11.4492 14.1758 11.4492C14.5391 11.4492 15.1016 11.0391 15.7812 11.0391C16.0508 11.0391 16.9648 11.0625 17.5859 11.9414C17.5273 11.9766 16.6016 12.5156 16.6016 13.6758C16.6016 15.0234 17.7852 15.4922 17.8203 15.5039C17.8086 15.5508 17.6445 16.1719 17.1992 16.8047C16.8125 17.3438 16.4023 17.9297 15.7812 17.9297C15.1719 17.9297 14.9961 17.5664 14.2812 17.5664C13.6133 17.5664 13.3438 17.9297 12.7812 17.9297ZM14.2344 10.957C14.1758 10.957 14.1406 10.9453 14.1172 10.9219C14.1055 10.9102 14.1055 10.8398 14.1055 10.7695C14.1055 10.3008 14.3164 9.82031 14.5859 9.52734C14.9258 9.15234 15.4766 8.85938 15.9336 8.84766C15.9453 8.89453 15.9453 8.95312 15.9453 9.02344C15.9453 9.49219 15.7461 9.96094 15.4766 10.3008C15.1719 10.6758 14.6445 10.957 14.2344 10.957Z" fill="black" fill-opacity="0.85"/>
</g>
<defs>
<clipPath id="clip0_2124_24576">
<rect width="24.2109" height="27.6914" fill="white" transform="translate(2)"/>
</clipPath>
</defs>
</svg>
