<svg width="28" height="28" viewBox="0 0 28 28" fill="none" xmlns="http://www.w3.org/2000/svg">
<path d="M13.9531 25.9062C20.4922 25.9062 25.9062 20.4805 25.9062 13.9531C25.9062 7.41406 20.4805 2 13.9414 2C7.41406 2 2 7.41406 2 13.9531C2 20.4805 7.42578 25.9062 13.9531 25.9062Z" fill="black" fill-opacity="0.85"/>
<path d="M7.88281 10.8008C7.33203 10.8008 6.95703 10.4609 6.95703 9.94531C6.95703 9.42969 7.33203 9.08984 7.88281 9.08984H20.0703C20.6094 9.08984 20.9961 9.42969 20.9961 9.94531C20.9961 10.4609 20.6094 10.8008 20.0703 10.8008H7.88281ZM7.88281 14.8086C7.33203 14.8086 6.95703 14.4688 6.95703 13.9414C6.95703 13.4258 7.33203 13.0859 7.88281 13.0859H20.0703C20.6094 13.0859 20.9961 13.4258 20.9961 13.9414C20.9961 14.4688 20.6094 14.8086 20.0703 14.8086H7.88281ZM7.88281 18.8164C7.33203 18.8164 6.95703 18.4648 6.95703 17.9492C6.95703 17.4453 7.33203 17.1055 7.88281 17.1055H20.0703C20.6094 17.1055 20.9961 17.4453 20.9961 17.9492C20.9961 18.4648 20.6094 18.8164 20.0703 18.8164H7.88281Z" fill="white"/>
</svg>
