<svg width="28" height="28" viewBox="0 0 28 28" fill="none" xmlns="http://www.w3.org/2000/svg">
<path d="M9.83203 26.6562C13.6641 26.6562 16.6406 24.1367 16.6406 20.9023C16.6406 17.6562 13.6641 15.1367 9.83203 15.1367C5.97656 15.1367 3 17.6562 3 20.9023C3 24.1367 5.97656 26.6562 9.83203 26.6562ZM9.83203 24.7695C7.04297 24.7695 4.88672 23.082 4.88672 20.9023C4.88672 18.7109 7.04297 17.0234 9.83203 17.0234C12.6211 17.0234 14.7539 18.7109 14.7539 20.9023C14.7539 23.082 12.6211 24.7695 9.83203 24.7695Z" fill="black" fill-opacity="0.85"/>
<path d="M9.78516 23.3984C11.2734 23.3984 12.4922 22.4844 12.4922 21.1836V7.71875H7.08984V21.1836C7.08984 22.4844 8.32031 23.3984 9.78516 23.3984Z" fill="white"/>
<path d="M9.78516 22.0273C10.5234 22.0273 11.1328 21.6758 11.1328 21.1836V9.08984H8.46093V21.1836C8.46093 21.6758 9.04688 22.0273 9.78516 22.0273ZM9.78516 12.0664C12.5625 12.0664 14.8008 9.80469 14.8008 7.01562C14.8008 4.25 12.5391 2 9.78516 2C7.00781 2 4.73438 4.27344 4.73438 7.01562C4.73438 9.82812 7.00781 12.0664 9.78516 12.0664Z" fill="black" fill-opacity="0.85"/>
<path d="M22.6057 16.168C22.09 16.168 21.6916 16.5664 21.6916 17.082V20.3398H20.1213C19.3127 20.3398 19.0197 21.125 19.5119 21.7695L21.9729 25.0391C22.301 25.4609 22.8869 25.4609 23.215 25.0391L25.6877 21.7695C26.1564 21.1484 25.9104 20.3398 25.0666 20.3398H23.5197V17.082C23.5197 16.5664 23.1096 16.168 22.6057 16.168Z" fill="black" fill-opacity="0.85"/>
</svg>
