<svg width="28" height="28" viewBox="0 0 28 28" fill="none" xmlns="http://www.w3.org/2000/svg">
<path d="M14.2539 26.1367C21.5664 26.1367 27.5078 20.1953 27.5078 12.8828C27.5078 8.00781 24.8711 3.75391 21.1445 1.58594C20.4648 1.1875 19.7734 1 18.9766 1H9.53125C8.73438 1 8.04297 1.1875 7.36328 1.58594C3.63672 3.75391 1 8.00781 1 12.8828C1 20.1953 6.94141 26.1367 14.2539 26.1367ZM14.2539 24.1328C7.97266 24.1328 3.00391 19.1758 3.00391 12.8828C3.00391 8.79297 5.11328 5.26562 8.28906 3.33203C8.66406 3.09766 9.0625 3.00391 9.53125 3.00391H18.9766C19.4453 3.00391 19.8438 3.09766 20.2188 3.33203C23.4062 5.26562 25.5039 8.79297 25.5039 12.8828C25.5039 19.1758 20.5352 24.1328 14.2539 24.1328Z" fill="black" fill-opacity="0.85"/>
<path d="M10.4453 8.11328C11.3242 8.11328 12.0391 7.41016 12.0391 6.53125C12.0391 5.65234 11.3242 4.9375 10.4453 4.9375C9.57812 4.9375 8.86328 5.65234 8.86328 6.53125C8.86328 7.41016 9.57812 8.11328 10.4453 8.11328ZM14.2539 8.11328C15.1328 8.11328 15.8359 7.41016 15.8359 6.53125C15.8359 5.65234 15.1328 4.9375 14.2539 4.9375C13.375 4.9375 12.6719 5.65234 12.6719 6.53125C12.6719 7.41016 13.375 8.11328 14.2539 8.11328ZM18.0625 8.11328C18.9414 8.11328 19.6445 7.41016 19.6445 6.53125C19.6445 5.65234 18.9414 4.9375 18.0625 4.9375C17.1836 4.9375 16.4688 5.65234 16.4688 6.53125C16.4688 7.41016 17.1836 8.11328 18.0625 8.11328ZM14.2539 11.9219C15.1328 11.9219 15.8359 11.207 15.8359 10.3398C15.8359 9.46094 15.1328 8.74609 14.2539 8.74609C13.375 8.74609 12.6719 9.46094 12.6719 10.3398C12.6719 11.207 13.375 11.9219 14.2539 11.9219ZM8.42969 16.3633C10.3398 16.3633 11.8984 14.8047 11.8984 12.8828C11.8984 10.9727 10.3398 9.41406 8.42969 9.41406C6.50781 9.41406 4.94922 10.9727 4.94922 12.8828C4.94922 14.8047 6.50781 16.3633 8.42969 16.3633ZM20.0781 16.3633C22 16.3633 23.5586 14.8047 23.5586 12.8828C23.5586 10.9727 22 9.41406 20.0781 9.41406C18.168 9.41406 16.6094 10.9727 16.6094 12.8828C16.6094 14.8047 18.168 16.3633 20.0781 16.3633ZM9.32031 20.6992C10.1172 20.6992 10.7617 20.0547 10.7617 19.2695C10.7617 18.4844 10.1172 17.8281 9.32031 17.8281C8.53516 17.8281 7.89062 18.4844 7.89062 19.2695C7.89062 20.0547 8.53516 20.6992 9.32031 20.6992ZM14.2539 21.707C15.5898 21.707 16.6914 20.6055 16.6914 19.2695C16.6914 17.9336 15.5898 16.832 14.2539 16.832C12.918 16.832 11.8164 17.9336 11.8164 19.2695C11.8164 20.6055 12.918 21.707 14.2539 21.707ZM19.1875 20.6992C19.9727 20.6992 20.6172 20.0547 20.6172 19.2695C20.6172 18.4844 19.9727 17.8281 19.1875 17.8281C18.3906 17.8281 17.7461 18.4844 17.7461 19.2695C17.7461 20.0547 18.3906 20.6992 19.1875 20.6992Z" fill="black" fill-opacity="0.85"/>
</svg>
