<svg width="34" height="28" viewBox="0 0 34 28" fill="none" xmlns="http://www.w3.org/2000/svg">
<g clip-path="url(#clip0_2124_24588)">
<path d="M0 21.7539C0 22.4922 0.597656 23.0898 1.32422 23.0898H32.4727C33.1992 23.0898 33.7969 22.4922 33.7969 21.7539C33.7969 21.0156 33.1992 20.418 32.4727 20.418H29.9062V6.50781C29.9062 4.86719 29.0273 4.02344 27.3984 4.02344H6.39844C4.85156 4.02344 3.89062 4.86719 3.89062 6.50781V20.418H1.32422C0.597656 20.418 0 21.0156 0 21.7539ZM5.77734 20.418V7.03516C5.77734 6.28516 6.15234 5.91016 6.90234 5.91016H26.8945C27.6445 5.91016 28.0195 6.28516 28.0195 7.03516V20.418H5.77734Z" fill="black" fill-opacity="0.85"/>
<path d="M14.918 17.2539H18.8906C19.5352 17.2539 19.8516 16.9258 19.8516 16.2578V13.2109C19.8516 12.6836 19.6523 12.3789 19.2656 12.25V11.4531C19.2656 9.87109 18.3164 8.79297 16.9102 8.79297C15.5039 8.79297 14.5547 9.87109 14.5547 11.4531V12.2617C14.168 12.3789 13.9688 12.6836 13.9688 13.2109V16.2578C13.9688 16.9258 14.2852 17.2539 14.918 17.2539ZM15.7148 12.2031V11.3477C15.7148 10.4805 16.1719 9.91797 16.9102 9.91797C17.625 9.91797 18.1054 10.4805 18.1054 11.3477V12.2031H15.7148Z" fill="black" fill-opacity="0.85"/>
</g>
<defs>
<clipPath id="clip0_2124_24588">
<rect width="33.7969" height="19.0898" fill="white" transform="translate(0 4)"/>
</clipPath>
</defs>
</svg>
