<svg width="34" height="28" viewBox="0 0 34 28" fill="none" xmlns="http://www.w3.org/2000/svg">
<g clip-path="url(#clip0_2124_24586)">
<path d="M0 22.5962C0 23.3345 0.597656 23.9321 1.32422 23.9321H32.4727C33.1992 23.9321 33.7969 23.3345 33.7969 22.5962C33.7969 21.8579 33.1992 21.2603 32.4727 21.2603H29.9062V7.35009C29.9062 5.70947 29.0273 4.86572 27.3984 4.86572H6.39844C4.85156 4.86572 3.89062 5.70947 3.89062 7.35009V21.2603H1.32422C0.597656 21.2603 0 21.8579 0 22.5962ZM5.77734 21.2603V7.87744C5.77734 7.12744 6.15234 6.75244 6.90234 6.75244H26.8945C27.6445 6.75244 28.0195 7.12744 28.0195 7.87744V21.2603H5.77734Z" fill="black" fill-opacity="0.85"/>
<path d="M26.332 27.1079C27.2227 27.9985 28.6641 27.9985 29.543 27.0962C30.4219 26.2056 30.4219 24.7759 29.5547 23.897L7.35938 1.68995C6.48047 0.811042 5.02734 0.799324 4.13672 1.68995C3.25781 2.56885 3.25781 4.0337 4.13672 4.90089L26.332 27.1079Z" fill="white"/>
<path d="M27.293 26.1353C27.6445 26.4985 28.2305 26.4985 28.5703 26.1353C28.9219 25.7837 28.9336 25.2212 28.582 24.8579L6.39844 2.66261C6.04688 2.31105 5.46094 2.29933 5.10938 2.66261C4.75781 3.00246 4.75781 3.5884 5.10938 3.93996L27.293 26.1353Z" fill="black" fill-opacity="0.85"/>
</g>
<defs>
<clipPath id="clip0_2124_24586">
<rect width="33.7969" height="26.7744" fill="white" transform="translate(0 1)"/>
</clipPath>
</defs>
</svg>
