<svg width="28" height="28" viewBox="0 0 28 28" fill="none" xmlns="http://www.w3.org/2000/svg">
<g clip-path="url(#clip0_2124_88412)">
<path d="M7.28516 24.5977H20.1406C22.4492 24.5977 23.6797 23.4023 23.6797 21.1055V9.89062H3.74609V21.1055C3.74609 23.4141 4.97656 24.5977 7.28516 24.5977ZM9.85156 14.1211C9.35938 14.1211 9.01953 13.7812 9.01953 13.2656V12.9023C9.01953 12.3867 9.35938 12.0586 9.85156 12.0586H17.5859C18.0781 12.0586 18.4297 12.3867 18.4297 12.9023V13.2656C18.4297 13.7812 18.0781 14.1211 17.5859 14.1211H9.85156ZM3.99219 8.28516H23.4336C24.7578 8.28516 25.4258 7.5 25.4258 6.1875V5.12109C25.4258 3.80859 24.7578 3.02344 23.4336 3.02344H3.99219C2.73828 3.02344 2 3.80859 2 5.12109V6.1875C2 7.5 2.66797 8.28516 3.99219 8.28516Z" fill="black" fill-opacity="0.85"/>
</g>
<defs>
<clipPath id="clip0_2124_88412">
<rect width="23.4258" height="21.5977" fill="white" transform="translate(2 3)"/>
</clipPath>
</defs>
</svg>
