<svg width="28" height="28" viewBox="0 0 28 28" fill="none" xmlns="http://www.w3.org/2000/svg">
<path d="M13.9531 25.9062C20.4922 25.9062 25.9062 20.4805 25.9062 13.9531C25.9062 7.41406 20.4805 2 13.9414 2C7.41406 2 2 7.41406 2 13.9531C2 20.4805 7.42578 25.9062 13.9531 25.9062ZM13.9531 23.9141C8.42188 23.9141 4.00391 19.4844 4.00391 13.9531C4.00391 8.42188 8.41016 3.99219 13.9414 3.99219C19.4727 3.99219 23.9141 8.42188 23.9141 13.9531C23.9141 19.4844 19.4844 23.9141 13.9531 23.9141Z" fill="black" fill-opacity="0.85"/>
<path d="M11.2813 19.2617H17.3047C17.7617 19.2617 18.0898 18.9688 18.0898 18.5C18.0898 18.0078 17.7617 17.7266 17.3047 17.7266H13.0273V17.6445L15.8164 14.6797C16.8477 13.5664 17.5742 12.6406 17.5742 11.3398C17.5742 9.55859 16.1445 8.375 13.9766 8.375C12.3125 8.375 10.8477 9.38281 10.4609 10.6953C10.4141 10.8711 10.4023 11.0117 10.4023 11.1641C10.4023 11.6211 10.707 11.9141 11.1641 11.9141C11.5742 11.9141 11.7852 11.6563 11.9961 11.3281C12.3008 10.6133 12.9219 9.86328 14.0586 9.86328C15.1719 9.86328 15.9102 10.5078 15.9102 11.4805C15.9102 12.3359 15.1953 13.0508 14.5039 13.7773L10.7539 17.7969C10.5547 18.0195 10.4492 18.2539 10.4492 18.5C10.4492 18.9688 10.7656 19.2617 11.2813 19.2617Z" fill="black" fill-opacity="0.85"/>
</svg>
