<svg width="28" height="28" viewBox="0 0 28 28" fill="none" xmlns="http://www.w3.org/2000/svg">
<path d="M13.9531 25.918C20.4922 25.918 25.9062 20.5039 25.9062 13.9648C25.9062 7.4375 20.4805 2.01172 13.9414 2.01172C7.41406 2.01172 2 7.4375 2 13.9648C2 20.5039 7.42578 25.918 13.9531 25.918Z" fill="black" fill-opacity="0.85"/>
<path d="M13.9414 17.8203C13.7188 17.8203 13.5078 17.7266 13.332 17.5391L9.25391 13.3672C9.10156 13.2031 9.00781 12.957 9.00781 12.7695C9.00781 12.3008 9.32422 11.9727 9.78125 11.9727C10.0391 11.9727 10.2266 12.043 10.3789 12.207L11.0586 12.957L13.2617 15.4297L13.1211 13.2148V7.67188C13.1211 7.20312 13.4492 6.86328 13.9414 6.86328C14.3984 6.86328 14.75 7.20312 14.75 7.67188V13.2148L14.6211 15.418L16.7891 12.9688L17.5273 12.207C17.6914 12.043 17.9023 11.9727 18.1367 11.9727C18.582 11.9727 18.8984 12.3242 18.8984 12.7695C18.8984 12.9922 18.8281 13.1797 18.6406 13.3789L14.5508 17.5391C14.3867 17.7148 14.1641 17.8203 13.9414 17.8203ZM9.41797 20.3633C8.94922 20.3633 8.60938 20.0234 8.60938 19.543C8.60938 19.0859 8.94922 18.7344 9.41797 18.7344H18.5C18.9688 18.7344 19.2969 19.0859 19.2969 19.543C19.2969 20.0234 18.9688 20.3633 18.5 20.3633H9.41797Z" fill="white"/>
</svg>
