<svg width="28" height="28" viewBox="0 0 28 28" fill="none" xmlns="http://www.w3.org/2000/svg">
<path d="M11.5289 24.6421C12.1852 24.6421 12.5485 24.2554 12.5485 23.5874V14.5288H11.6813C12.6539 17.3413 15.443 19.6616 19.1695 20.9038C19.8375 21.1499 20.3766 20.8101 20.5641 20.353C20.775 19.896 20.6227 19.3218 19.9547 19.0171C15.6071 17.2359 12.5485 14.4702 12.5485 10.2163V5.84523H10.4977V23.5874C10.4977 24.2554 10.861 24.6421 11.5289 24.6421ZM8.83361 7.35695H14.2125C15.0445 7.35695 15.2555 6.78273 14.8102 6.1382L12.1852 2.39991C11.8102 1.87257 11.2477 1.86085 10.861 2.39991L8.23596 6.12648C7.77893 6.78273 7.98986 7.35695 8.83361 7.35695Z" fill="black" fill-opacity="0.85"/>
</svg>
