<svg width="28" height="28" viewBox="0 0 28 28" fill="none" xmlns="http://www.w3.org/2000/svg">
<g clip-path="url(#clip0_2124_62641)">
<path d="M4.67578 16.0781H23.5664C24.5039 16.0781 25.0195 15.5859 25.0195 14.7656C25.0195 14.3789 24.8438 13.9688 24.5156 13.6172L15.5625 3.73828C15.1641 3.30469 14.707 3.01172 14.1211 3.01172C13.5586 3.01172 13.0781 3.32812 12.6914 3.73828L3.72656 13.6172C3.39844 13.9688 3.21094 14.3789 3.22266 14.7656C3.23438 15.5859 3.73828 16.0781 4.67578 16.0781ZM4.91016 24.6445H23.3555C24.5508 24.6445 25.2656 23.9062 25.2656 22.7109V20.5898C25.2656 19.3945 24.5508 18.6562 23.3555 18.6562H4.91016C3.71484 18.6562 3 19.3945 3 20.5898V22.7109C3 23.9062 3.71484 24.6445 4.91016 24.6445Z" fill="black" fill-opacity="0.85"/>
</g>
<defs>
<clipPath id="clip0_2124_62641">
<rect width="22.2656" height="21.6445" fill="white" transform="translate(3 3)"/>
</clipPath>
</defs>
</svg>
