<svg width="28" height="29" viewBox="0 0 28 29" fill="none" xmlns="http://www.w3.org/2000/svg">
<g clip-path="url(#clip0_2124_67780)">
<path d="M8.07422 3.30469C8.07422 4.60547 8.83594 5.37891 10.1016 5.37891H17.9531C19.2305 5.37891 19.9922 4.60547 19.9922 3.30469V2.07422C19.9922 0.773438 19.2305 0 17.9531 0H10.1016C8.83594 0 8.07422 0.773438 8.07422 2.07422V3.30469ZM9.72656 3.28125V2.09766C9.72656 1.81641 9.89062 1.64062 10.1836 1.64062H17.8711C18.1641 1.64062 18.3398 1.81641 18.3398 2.09766V3.28125C18.3398 3.55078 18.1641 3.73828 17.8711 3.73828H10.1836C9.89062 3.73828 9.72656 3.55078 9.72656 3.28125ZM11.4375 7.51172V4.73438H9.78516V7.51172H11.4375ZM18.2812 7.51172V4.73438H16.6289V7.51172H18.2812ZM6 24.2109C6 26.543 7.5 28.0547 9.78516 28.0547H18.2812C20.5664 28.0547 22.0664 26.543 22.0664 24.2109V10.9219C22.0664 8.58984 20.5664 7.07812 18.2812 7.07812H9.78516C7.5 7.07812 6 8.58984 6 10.9219V24.2109ZM7.79297 24.1875V10.9453C7.79297 9.69141 8.61328 8.88281 9.87891 8.88281H18.1875C19.4531 8.88281 20.2734 9.69141 20.2734 10.9453V24.1875C20.2734 25.4531 19.4531 26.2617 18.1875 26.2617H9.87891C8.61328 26.2617 7.79297 25.4531 7.79297 24.1875Z" fill="black" fill-opacity="0.85"/>
<path d="M9.65625 18.3984C9.65625 18.8906 9.98438 19.207 10.4648 19.207H12.3867V21.1172C12.3867 21.6094 12.7031 21.9375 13.1953 21.9375H14.8594C15.3516 21.9375 15.668 21.6094 15.668 21.1172V19.207H17.5898C18.0586 19.207 18.4102 18.8906 18.4102 18.3984V16.7344C18.4102 16.2422 18.0586 15.9258 17.5898 15.9258H15.668V14.0156C15.668 13.5234 15.3516 13.207 14.8594 13.207H13.1953C12.7031 13.207 12.3867 13.5234 12.3867 14.0156V15.9258H10.4648C9.98438 15.9258 9.65625 16.2422 9.65625 16.7344V18.3984Z" fill="black" fill-opacity="0.85"/>
</g>
<defs>
<clipPath id="clip0_2124_67780">
<rect width="16.0664" height="28.0898" fill="white" transform="translate(6)"/>
</clipPath>
</defs>
</svg>
