<svg width="28" height="28" viewBox="0 0 28 28" fill="none" xmlns="http://www.w3.org/2000/svg">
<path d="M3 21.7344C3 22.25 3.42188 22.6836 3.9375 22.6836C4.46484 22.6836 4.88672 22.25 4.88672 21.7344V5.96094C4.88672 5.44531 4.46484 5.02344 3.9375 5.02344C3.42188 5.02344 3 5.44531 3 5.96094V21.7344ZM22.6875 21.7344C22.6875 22.25 23.1211 22.6836 23.6367 22.6836C24.1523 22.6836 24.5742 22.25 24.5742 21.7344V5.96094C24.5742 5.44531 24.1523 5.02344 23.6367 5.02344C23.1211 5.02344 22.6875 5.44531 22.6875 5.96094V21.7344Z" fill="black" fill-opacity="0.85"/>
<path d="M13.9455 18.7344C15.6682 18.7344 16.8869 17.4336 16.8869 15.5938C16.8869 13.9414 15.9377 12.6875 14.4143 12.6875C13.3596 12.6875 12.6213 13.3203 12.3283 14.2227H12.2932C12.2932 13.4141 12.3517 12.8164 12.4689 12.3008C12.6682 11.4805 13.09 10.707 13.9338 10.707C14.508 10.707 14.9064 11.0117 15.1643 11.5273C15.34 11.8203 15.5627 12.0195 15.9143 12.0195C16.3947 12.0195 16.5822 11.6797 16.5822 11.3516C16.5822 11.1406 16.5354 10.9297 16.4416 10.7422C16.0666 9.93359 15.0822 9.39453 13.9572 9.39453C11.7424 9.39453 10.9221 11.4805 10.8166 13.6133C10.7228 14.5742 10.8166 15.6172 11.0861 16.4375C11.5314 17.7734 12.4807 18.7344 13.9455 18.7344ZM13.9104 17.4219C13.0197 17.4219 12.5158 16.5078 12.5158 15.6055C12.5158 14.6797 13.0666 13.9063 13.9221 13.9063C14.8244 13.9063 15.3049 14.7266 15.3049 15.6523C15.3049 16.5547 14.7893 17.4219 13.9104 17.4219Z" fill="black" fill-opacity="0.85"/>
</svg>
