<svg width="28" height="28" viewBox="0 0 28 28" fill="none" xmlns="http://www.w3.org/2000/svg">
<g clip-path="url(#clip0_2124_67735)">
<path d="M2 10.793C2 15.7852 6.18359 20.6953 12.793 24.9141C13.0391 25.0664 13.4023 25.2305 13.6367 25.2305C13.8828 25.2305 14.2344 25.0664 14.4922 24.9141C21.1016 20.6953 25.2852 15.7852 25.2852 10.793C25.2852 6.64453 22.4375 3.71484 18.6289 3.71484C16.4609 3.71484 14.7031 4.74609 13.6367 6.32812C12.5938 4.75781 10.8242 3.71484 8.64453 3.71484C4.84766 3.71484 2 6.64453 2 10.793ZM3.88672 10.793C3.88672 7.67578 5.90234 5.60156 8.62109 5.60156C10.8359 5.60156 12.0898 6.97266 12.8516 8.14453C13.168 8.61328 13.3672 8.74219 13.6367 8.74219C13.918 8.74219 14.0938 8.60156 14.4336 8.14453C15.2422 6.99609 16.4609 5.60156 18.6523 5.60156C21.3828 5.60156 23.3984 7.67578 23.3984 10.793C23.3984 15.1523 18.793 19.8516 13.8828 23.1094C13.7656 23.1914 13.6836 23.25 13.6367 23.25C13.6016 23.25 13.5195 23.1914 13.4023 23.1094C8.49219 19.8516 3.88672 15.1523 3.88672 10.793Z" fill="black" fill-opacity="0.85"/>
<path d="M9.82812 15.6212C9.82812 15.8321 10.0039 15.9845 10.2266 15.9845H13.1328L11.5742 20.1446C11.375 20.6954 11.9609 21.0001 12.3242 20.5548L17.0117 14.6603C17.1055 14.5548 17.1641 14.4259 17.1641 14.3204C17.1641 14.1095 16.9766 13.9454 16.7539 13.9454H13.8594L15.4062 9.79694C15.6055 9.23444 15.0195 8.94147 14.668 9.38678L9.96875 15.2813C9.88672 15.3985 9.82812 15.504 9.82812 15.6212Z" fill="black" fill-opacity="0.85"/>
</g>
<defs>
<clipPath id="clip0_2124_67735">
<rect width="23.2852" height="22.2305" fill="white" transform="translate(2 3)"/>
</clipPath>
</defs>
</svg>
