<svg width="28" height="28" viewBox="0 0 28 28" fill="none" xmlns="http://www.w3.org/2000/svg">
<path d="M6.67969 24.5742H20.8945C23.3555 24.5742 24.5742 23.3555 24.5742 20.9414V6.63281C24.5742 4.21875 23.3555 3 20.8945 3H6.67969C4.23047 3 3 4.20703 3 6.63281V20.9414C3 23.3672 4.23047 24.5742 6.67969 24.5742Z" fill="black" fill-opacity="0.85"/>
<path d="M7.78125 15.082C7.78125 12.4219 9.66797 10.6641 12.5039 10.6641H15.9258L17.1328 10.7227L16.3359 10.0898L15.1523 8.94141C14.9766 8.78906 14.8828 8.55469 14.8828 8.32031C14.8828 7.80469 15.2461 7.41797 15.75 7.41797C16.0195 7.41797 16.2188 7.5 16.3945 7.67578L19.4531 10.7812C19.6641 11.0039 19.7695 11.2617 19.7695 11.5312C19.7695 11.7891 19.6758 12.0469 19.4531 12.2695L16.3828 15.4102C16.2188 15.5742 16.0078 15.668 15.7383 15.668C15.2578 15.668 14.8828 15.2695 14.8828 14.7656C14.8828 14.5078 14.9766 14.2969 15.1523 14.1211L16.5703 12.75L17.1211 12.3633L15.9258 12.4102H12.5039C10.7109 12.4102 9.52734 13.4766 9.52734 15.082C9.52734 16.8164 10.7344 17.9648 12.5156 17.9648H14.1094C14.6602 17.9648 15.0234 18.3164 15.0234 18.832C15.0234 19.3594 14.6484 19.7109 14.0859 19.7109H12.5156C9.67969 19.7109 7.78125 17.8828 7.78125 15.082Z" fill="white"/>
</svg>
