<svg width="33" height="28" viewBox="0 0 33 28" fill="none" xmlns="http://www.w3.org/2000/svg">
<path d="M11.4492 25.1094C12.2461 25.1094 12.8203 24.5234 12.8203 23.7383V5.04688C12.8203 4.26172 12.2461 3.61719 11.4258 3.61719C10.8516 3.61719 10.4648 3.86328 9.84375 4.44922L0.585938 13.0977C0.164062 13.4961 0 13.9414 0 14.3633C0 14.7617 0.164062 15.2188 0.585938 15.6172L9.84375 24.3477C10.4062 24.875 10.875 25.1094 11.4492 25.1094Z" fill="black" fill-opacity="0.85"/>
<path d="M17.2148 26.7031C18.8789 26.7031 20.1797 25.4023 20.1797 23.7266V20.8789C23.5781 21.043 25.418 22.0508 26.9648 25.0039C27.6328 26.2109 28.6641 26.7031 29.8125 26.7031C31.3359 26.7031 32.625 25.4141 32.625 23.5273C32.625 14.5977 28.7578 8.45703 20.1797 7.91797V5.03516C20.1797 3.37109 18.8789 2 17.1914 2C16.207 2 15.457 2.36328 14.5078 3.26562L5.25 11.9258C4.5 12.6289 4.16016 13.5078 4.16016 14.3516C4.16016 15.1836 4.5 16.0625 5.26172 16.7656L14.5078 25.4961C15.4688 26.3867 16.3242 26.7031 17.2148 26.7031Z" fill="white"/>
<path d="M17.2148 25.0977C18 25.0977 18.5859 24.5117 18.5859 23.7266V19.25H18.9258C23.4609 19.25 26.332 20.3984 28.3711 24.2305C28.7812 24.9805 29.3203 25.0977 29.8125 25.0977C30.4453 25.0977 31.0195 24.5352 31.0195 23.5273C31.0195 14.8672 27.3516 9.46484 18.9258 9.46484H18.5859V5.03516C18.5859 4.25 18 3.60547 17.1914 3.60547C16.6055 3.60547 16.2188 3.85156 15.5977 4.4375L6.35156 13.0859C5.92969 13.4844 5.75391 13.9297 5.75391 14.3516C5.75391 14.75 5.92969 15.207 6.35156 15.6055L15.5977 24.3359C16.1602 24.8633 16.6289 25.0977 17.2148 25.0977Z" fill="black" fill-opacity="0.85"/>
</svg>
