<svg width="28" height="28" viewBox="0 0 28 28" fill="none" xmlns="http://www.w3.org/2000/svg">
<path d="M13.9531 25.9062C20.4922 25.9062 25.9062 20.4805 25.9062 13.9531C25.9062 7.41406 20.4805 2 13.9414 2C7.41406 2 2 7.41406 2 13.9531C2 20.4805 7.42578 25.9062 13.9531 25.9062Z" fill="black" fill-opacity="0.85"/>
<path d="M10.2852 19.0859C7.87109 19.0859 7.15625 16.3906 7.15625 13.9531C7.15625 11.5156 7.87109 8.82031 10.2852 8.82031C12.6992 8.82031 13.4141 11.5156 13.4141 13.9531C13.4141 16.3906 12.6992 19.0859 10.2852 19.0859ZM10.2852 17.6445C11.2695 17.6445 11.6445 16.0508 11.6445 13.9531C11.6445 11.8438 11.2695 10.2617 10.2852 10.2617C9.30078 10.2617 8.92578 11.8438 8.92578 13.9531C8.92578 16.0508 9.30078 17.6445 10.2852 17.6445ZM15.5352 18.8398C14.9844 18.8398 14.7148 18.5469 14.7148 18.1367C14.7148 17.75 14.9492 17.4453 15.1719 17.1641L17.2695 14.4805C17.9023 13.6719 18.582 12.6875 18.582 11.7148C18.582 10.8594 18.1719 10.2266 17.457 10.2266C16.7539 10.2266 16.4609 10.7305 16.2383 11.5391C16.1094 11.9375 15.8633 12.1133 15.4648 12.1133C14.9961 12.1133 14.7266 11.8086 14.7266 11.3516C14.7266 10.0977 15.9102 8.82031 17.457 8.82031C19.1211 8.82031 20.2344 10.0039 20.2344 11.6328C20.2344 12.6992 19.8242 13.5898 18.6289 15.0898L16.8711 17.3164V17.4102H19.7305C20.1523 17.4102 20.4219 17.668 20.4219 18.1367C20.4219 18.5586 20.1641 18.8398 19.7305 18.8398H15.5352Z" fill="white"/>
</svg>
