<svg width="28" height="28" viewBox="0 0 28 28" fill="none" xmlns="http://www.w3.org/2000/svg">
<path d="M8.91016 24.5508H18.8242C20.0078 24.5508 20.7344 23.8828 20.7344 22.6289V22.3945C20.7344 19.5703 17.7461 16.5703 16.1055 14.9414C15.3086 14.1445 15.3672 13.3242 16.1055 12.5859C17.7461 10.9688 20.7344 7.98047 20.7344 5.13281V4.93359C20.7344 3.67969 20.0078 3 18.8242 3H8.91016C7.72656 3 7 3.67969 7 4.93359V5.13281C7 7.98047 10 10.9688 11.6289 12.5859C12.3789 13.3242 12.4375 14.1445 11.6289 14.9414C10 16.5703 7 19.5703 7 22.3945V22.6289C7 23.8828 7.72656 24.5508 8.91016 24.5508Z" fill="black" fill-opacity="0.85"/>
<path d="M9.81245 22.957C9.30854 22.957 9.19136 22.3711 9.5312 22.0547L13.2695 18.4922C13.4101 18.3633 13.4687 18.3047 13.4687 18.1172V12.9258C13.4687 12.3867 13.3632 12.1172 12.9648 11.7773C12.1796 11.1094 11.0781 10.1484 10.3515 9.38672C10.0468 9.08203 10.2109 8.70703 10.5742 8.70703H17.1601C17.5233 8.70703 17.6874 9.08203 17.3827 9.38672C16.6679 10.1484 15.5664 11.1094 14.7695 11.7773C14.371 12.1172 14.2773 12.3867 14.2773 12.9258V18.1172C14.2773 18.3047 14.3242 18.3633 14.4648 18.4922L18.203 22.0547C18.5429 22.3711 18.4257 22.957 17.9218 22.957H9.81245Z" fill="black" fill-opacity="0.85"/>
</svg>
