<svg width="36" height="28" viewBox="0 0 36 28" fill="none" xmlns="http://www.w3.org/2000/svg">
<g clip-path="url(#clip0_2124_67764)">
<path d="M11.7656 11.5391C11.7656 12.0547 12.1875 12.4883 12.7031 12.4883H23.1445C23.6602 12.4883 24.082 12.0547 24.082 11.5391C24.082 11.0352 23.6602 10.6016 23.1445 10.6016H12.7031C12.1875 10.6016 11.7656 11.0352 11.7656 11.5391ZM11.7656 15.9219C11.7656 16.4375 12.1875 16.8594 12.7031 16.8594H23.1445C23.6602 16.8594 24.082 16.4375 24.082 15.9219C24.082 15.4062 23.6602 14.9727 23.1445 14.9727H12.7031C12.1875 14.9727 11.7656 15.4062 11.7656 15.9219ZM0 12.6992C0 16.4727 2.74219 19.1094 6.85547 19.1094H7.61719V17.2227H6.66797C3.82031 17.2227 1.88672 15.3242 1.88672 12.6992C1.88672 11.3984 2.57812 10.6016 3.83203 10.6016H7.13672V8.71484H3.83203C1.40625 8.71484 0 10.2148 0 12.6992ZM35.8242 12.6992C35.8242 10.2148 34.4297 8.71484 31.9922 8.71484H28.6875V10.6016H31.9922C33.2461 10.6016 33.9375 11.3984 33.9375 12.6992C33.9375 15.3242 32.0039 17.2227 29.1562 17.2227H28.207V19.1094H28.9805C33.082 19.1094 35.8242 16.4727 35.8242 12.6992Z" fill="black" fill-opacity="0.85"/>
<path d="M17.918 22.9766C24.8672 22.9766 29.8125 20.2695 29.8125 16.2969V10.4375C29.8125 6.92188 25.6055 5 17.918 5C10.2188 5 6.01172 6.92188 6.01172 10.4375V16.2969C6.01172 20.2695 10.957 22.9766 17.918 22.9766ZM17.918 21.0898C12.1172 21.0898 7.91016 19.0391 7.91016 16.2969V10.4375C7.91016 8.15234 11.4609 6.88672 17.918 6.88672C24.3633 6.88672 27.9258 8.15234 27.9258 10.4375V16.2969C27.9258 19.0391 23.707 21.0898 17.918 21.0898Z" fill="black" fill-opacity="0.85"/>
</g>
<defs>
<clipPath id="clip0_2124_67764">
<rect width="35.8242" height="18.0117" fill="white" transform="translate(0 5)"/>
</clipPath>
</defs>
</svg>
