<svg width="28" height="28" viewBox="0 0 28 28" fill="none" xmlns="http://www.w3.org/2000/svg">
<path d="M13.9531 25.9062C20.4922 25.9062 25.9062 20.4805 25.9062 13.9531C25.9062 7.41406 20.4805 2 13.9414 2C7.41406 2 2 7.41406 2 13.9531C2 20.4805 7.42578 25.9062 13.9531 25.9062ZM13.9531 23.9141C8.42188 23.9141 4.00391 19.4844 4.00391 13.9531C4.00391 8.42188 8.41016 3.99219 13.9414 3.99219C19.4727 3.99219 23.9141 8.42188 23.9141 13.9531C23.9141 19.4844 19.4844 23.9141 13.9531 23.9141Z" fill="black" fill-opacity="0.85"/>
<path d="M13.9531 6.78125C13.7539 6.78125 13.4961 6.86328 13.2734 7.10938L8.51562 12.1484C8.24609 12.4414 8.11719 12.6992 8.11719 13.0156C8.11719 13.4375 8.42188 13.7539 8.85547 13.7539H11.4453V19.0508C11.4453 19.9883 11.9609 20.5273 12.8633 20.5273H15.0312C15.9336 20.5273 16.4609 19.9883 16.4609 19.0508V13.7539H19.0273C19.4492 13.7539 19.7891 13.4375 19.7891 12.9922C19.7891 12.6875 19.6602 12.4766 19.3438 12.1484L14.6445 7.10938C14.4102 6.86328 14.1641 6.78125 13.9531 6.78125Z" fill="black" fill-opacity="0.85"/>
</svg>
