<svg width="28" height="28" viewBox="0 0 28 28" fill="none" xmlns="http://www.w3.org/2000/svg">
<path d="M3 21.7344C3 22.25 3.42188 22.6836 3.9375 22.6836C4.46484 22.6836 4.88672 22.25 4.88672 21.7344V5.96094C4.88672 5.44531 4.46484 5.02344 3.9375 5.02344C3.42188 5.02344 3 5.44531 3 5.96094V21.7344ZM22.6875 21.7344C22.6875 22.25 23.1211 22.6836 23.6367 22.6836C24.1523 22.6836 24.5742 22.25 24.5742 21.7344V5.96094C24.5742 5.44531 24.1523 5.02344 23.6367 5.02344C23.1211 5.02344 22.6875 5.44531 22.6875 5.96094V21.7344Z" fill="black" fill-opacity="0.85"/>
<path d="M12.7266 18.6523C13.1133 18.6523 13.3125 18.4883 13.4648 18.125L16.3242 11.4219C16.4648 11.1172 16.5703 10.8125 16.5703 10.4727C16.5703 9.91016 16.1484 9.61719 15.6562 9.61719H11.6367C11.25 9.61719 10.9805 9.875 10.9805 10.2617C10.9805 10.6484 11.25 10.918 11.6367 10.918H14.9297V11L12.1172 17.375C12.0234 17.5742 11.9648 17.75 11.9648 17.9727C11.9648 18.3828 12.2812 18.6523 12.7266 18.6523Z" fill="black" fill-opacity="0.85"/>
</svg>
