<svg width="28" height="30" viewBox="0 0 28 30" fill="none" xmlns="http://www.w3.org/2000/svg">
<path d="M13.2422 11.7731C14.6367 11.7731 15.7734 10.6364 15.7734 9.20666C15.7734 7.80041 14.6367 6.66369 13.2422 6.66369C11.8125 6.66369 10.6758 7.80041 10.6758 9.20666C10.6758 10.6364 11.8125 11.7731 13.2422 11.7731ZM7.19531 29.5739H13.2422C13.9688 29.5739 14.3086 29.2223 14.4258 28.5778L15.457 22.9294H20.2383L19.3008 28.1325C19.1602 28.9645 19.7109 29.5153 20.3203 29.5739C20.9062 29.6325 21.5508 29.3512 21.6914 28.5778L22.8633 22.0505C23.0156 21.1364 22.4883 20.5856 21.832 20.5153L17.5781 20.0465L17.9414 16.0153C17.9531 15.8161 18.1172 15.6872 18.3047 15.6872H21.7031C22.3594 15.6872 22.9102 15.1247 22.9102 14.4684V7.82385C22.9102 7.33166 22.6055 6.88635 22.1484 6.71057C21.7031 6.52307 21.1875 6.6051 20.8359 6.95666L14.2148 13.6012C13.6289 14.1872 13.2539 14.9255 13.1719 15.8278L12.1289 27.1598H7.19531C6.52734 27.1598 6 27.6872 6 28.3551C6 29.0231 6.52734 29.5739 7.19531 29.5739ZM20.4961 10.7419V13.2497H17.9648L20.4961 10.7419ZM18.0703 7.19104L20.7891 9.61682L21.4219 8.91369L18.7383 6.47619L18.0703 7.19104ZM11.3555 2.26916L17.543 7.84729C17.918 8.18713 18.4102 8.14025 18.7734 7.76525L19.3945 7.13244C19.7695 6.75744 19.6992 6.2301 19.3359 5.89025L13.1133 0.288689C12.7383 -0.0511552 12.2109 -0.015999 11.8711 0.359001L11.2852 1.03869C10.957 1.41369 10.9688 1.9176 11.3555 2.26916Z" fill="black" fill-opacity="0.85"/>
</svg>
