<svg width="28" height="32" viewBox="0 0 28 32" fill="none" xmlns="http://www.w3.org/2000/svg">
<path d="M19.0193 8.27344C20.4255 8.27344 21.5622 7.125 21.5622 5.69531C21.5622 4.30078 20.4255 3.15234 19.0193 3.15234C17.5896 3.15234 16.4412 4.30078 16.4412 5.69531C16.4412 7.125 17.5896 8.27344 19.0193 8.27344ZM13.113 31.4766C13.7576 31.4766 14.2966 30.9492 14.2966 30.293V24.4453L17.0388 20.4023C17.1443 20.2383 17.3787 20.2852 17.4021 20.4961L17.824 24.1055C17.8474 24.3047 17.8826 24.4102 17.9763 24.6328L20.2849 30.7148C20.5662 31.4531 21.2458 31.6055 21.7966 31.4062C22.3474 31.1953 22.7693 30.6328 22.488 29.8828L20.2146 23.8359V12.6797C20.2146 11.4258 19.6872 10.125 18.4802 9.63281L17.7419 9.32812C16.3826 8.76562 15.1052 8.92969 13.9568 9.75L11.1794 11.7539L8.07396 10.4414L14.238 1.89844H16.2888C16.8162 1.89844 17.2497 1.46484 17.2497 0.949219C17.2497 0.410156 16.8162 0 16.2888 0H14.3435C14.1326 0 13.9216 0.09375 13.7927 0.269531L6.24584 10.7227C5.83568 11.2852 5.92943 12.1055 6.5974 12.3867L10.863 14.2148C11.0505 14.2852 11.1794 14.2969 11.449 14.2969H14.2732C14.7185 14.2969 14.8708 14.5898 14.8708 14.918V18.1641L12.0466 23.5195C11.9411 23.7188 11.9177 23.8711 11.9177 24.0938V30.293C11.9177 30.9492 12.4451 31.4766 13.113 31.4766Z" fill="black" fill-opacity="0.85"/>
</svg>
