<svg width="28" height="28" viewBox="0 0 28 28" fill="none" xmlns="http://www.w3.org/2000/svg">
<path d="M13.9531 25.9062C20.4922 25.9062 25.9062 20.4805 25.9062 13.9531C25.9062 7.41406 20.4805 2 13.9414 2C7.41406 2 2 7.41406 2 13.9531C2 20.4805 7.42578 25.9062 13.9531 25.9062ZM13.9531 23.9141C8.42188 23.9141 4.00391 19.4844 4.00391 13.9531C4.00391 8.42188 8.41016 3.99219 13.9414 3.99219C19.4727 3.99219 23.9141 8.42188 23.9141 13.9531C23.9141 19.4844 19.4844 23.9141 13.9531 23.9141Z" fill="black" fill-opacity="0.85"/>
<path d="M10.6016 18.8164C11.0703 18.8164 11.457 18.4297 11.457 17.9609V10.0156C11.457 9.41797 11.082 9.06641 10.4727 9.06641C9.98047 9.06641 9.58203 9.33594 9.3125 9.54688L8.02344 10.543C7.8125 10.707 7.64844 10.9297 7.64844 11.2344C7.64844 11.5977 7.89453 11.8555 8.24609 11.8555C8.43359 11.8555 8.55078 11.7969 8.66797 11.7148L9.74609 10.8477V17.9609C9.74609 18.4297 10.1328 18.8164 10.6016 18.8164ZM16.4258 18.9336C18.207 18.9336 19.2383 17.4336 19.2383 15.5938C19.2383 14.0117 18.4766 12.5117 16.918 12.5117C15.9688 12.5117 15.2539 13.1445 14.9844 14.1523H14.9375C14.9375 14.1055 14.9375 14.0586 14.9375 14.0234C14.9375 12.7227 15.1016 10.3672 16.4023 10.3672C16.9414 10.3672 17.293 10.7422 17.4922 11.2344C17.6562 11.5977 17.8789 11.7617 18.2539 11.7617C18.7344 11.7617 18.9336 11.4453 18.9336 11.0586C18.9336 10.9297 18.9102 10.7891 18.875 10.6367C18.6289 9.62891 17.6094 8.99609 16.4375 8.99609C14.0352 8.99609 13.3438 11.6914 13.3438 14.0703C13.3438 16.2852 14.0469 18.9336 16.4258 18.9336ZM16.4023 17.5625C15.5117 17.5625 15.1602 16.4609 15.1602 15.6172C15.1602 14.7617 15.5469 13.7891 16.4023 13.7891C17.2695 13.7891 17.6211 14.7969 17.5977 15.6641C17.5977 16.5195 17.2227 17.5625 16.4023 17.5625Z" fill="black" fill-opacity="0.85"/>
</svg>
