<svg width="28" height="28" viewBox="0 0 28 28" fill="none" xmlns="http://www.w3.org/2000/svg">
<g clip-path="url(#clip0_2124_88493)">
<path d="M13.9531 25.918C20.4922 25.918 25.9062 20.5039 25.9062 13.9648C25.9062 7.4375 20.4805 2.01172 13.9414 2.01172C7.41406 2.01172 2 7.4375 2 13.9648C2 20.5039 7.42578 25.918 13.9531 25.918Z" fill="black" fill-opacity="0.85"/>
<path d="M7.67188 13.4258C7.67188 12.7695 8.09375 12.3711 8.77344 12.3711H9.05469V18.4297C9.05469 18.8398 8.74999 19.1094 8.36328 19.1094C7.96484 19.1094 7.67188 18.8516 7.67188 18.4297V13.4258ZM9.55859 19.9766C10.0039 19.7305 10.1445 19.4141 10.1445 18.8164V9.69922C10.1445 8.53906 10.7187 7.96484 11.8906 7.96484H18.4414C19.6133 7.96484 20.1992 8.53906 20.1992 9.69922V18.2422C20.1992 19.4141 19.6133 19.9766 18.4414 19.9766H9.55859ZM12.418 11.3281H17.9141C18.1484 11.3281 18.3008 11.1641 18.3008 10.9414C18.3008 10.7422 18.1484 10.5898 17.9141 10.5898H12.418C12.1953 10.5898 12.043 10.7422 12.043 10.9414C12.043 11.1641 12.1953 11.3281 12.418 11.3281ZM12.418 13.3086H17.9141C18.1484 13.3086 18.3008 13.1445 18.3008 12.9336C18.3008 12.7109 18.1484 12.5586 17.9141 12.5586H12.418C12.1953 12.5586 12.043 12.7109 12.043 12.9336C12.043 13.1445 12.1953 13.3086 12.418 13.3086ZM15.8984 15.3125H17.9141C18.1484 15.3125 18.3008 15.1484 18.3008 14.9492C18.3008 14.7383 18.1484 14.5742 17.9141 14.5742H15.8984C15.6758 14.5742 15.5234 14.7383 15.5234 14.9492C15.5234 15.1484 15.6758 15.3125 15.8984 15.3125ZM15.8984 17.3047H17.9141C18.1484 17.3047 18.3008 17.1523 18.3008 16.9297C18.3008 16.7188 18.1484 16.5547 17.9141 16.5547H15.8984C15.6758 16.5547 15.5234 16.7188 15.5234 16.9297C15.5234 17.1523 15.6758 17.3047 15.8984 17.3047ZM12.6758 17.3047H14.082C14.5039 17.3047 14.7617 17.0586 14.7617 16.6367V15.2422C14.7617 14.8203 14.5039 14.5742 14.082 14.5742H12.6758C12.2773 14.5742 12.0312 14.8203 12.0312 15.2422V16.6367C12.0312 17.0586 12.2773 17.3047 12.6758 17.3047Z" fill="white"/>
</g>
<defs>
<clipPath id="clip0_2124_88493">
<rect width="23.9062" height="23.918" fill="white" transform="translate(2 2)"/>
</clipPath>
</defs>
</svg>
