<svg width="28" height="28" viewBox="0 0 28 28" fill="none" xmlns="http://www.w3.org/2000/svg">
<path d="M6.67969 24.5977H20.8945C23.3555 24.5977 24.5742 23.3789 24.5742 20.9648V6.65625C24.5742 4.24219 23.3555 3.02344 20.8945 3.02344H6.67969C4.23047 3.02344 3 4.23047 3 6.65625V20.9648C3 23.3906 4.23047 24.5977 6.67969 24.5977ZM6.70312 22.7109C5.53125 22.7109 4.88672 22.0898 4.88672 20.8711V6.75C4.88672 5.53125 5.53125 4.91016 6.70312 4.91016H20.8711C22.0312 4.91016 22.6875 5.53125 22.6875 6.75V20.8711C22.6875 22.0898 22.0312 22.7109 20.8711 22.7109H6.70312Z" fill="black" fill-opacity="0.85"/>
<path d="M11.1328 18.6797C11.5664 18.6797 11.9297 18.4102 11.9297 17.8477V16.6758H12.3516C12.7969 16.6758 13.0078 16.3828 13.0078 15.9844C13.0078 15.6094 12.8203 15.3164 12.3516 15.3164H11.9297V10.1719C11.9297 9.36328 11.4023 8.90625 10.6289 8.90625C9.80859 8.90625 9.42188 9.32812 9.09375 10.0547L6.99609 14.6016C6.80859 15.0586 6.73828 15.3633 6.73828 15.7266C6.73828 16.2891 7.125 16.6758 7.69922 16.6758H10.3242V17.8477C10.3242 18.4688 10.7578 18.6797 11.1328 18.6797ZM10.3594 15.3516H8.17969V15.2695L10.3125 10.3828H10.3594V15.3516ZM18.5273 18.6797C18.9609 18.6797 19.3242 18.4102 19.3242 17.8477V16.6758H19.7461C20.1914 16.6758 20.4023 16.3828 20.4023 15.9844C20.4023 15.6094 20.2148 15.3164 19.7461 15.3164H19.3242V10.1719C19.3242 9.36328 18.7969 8.90625 18.0234 8.90625C17.2031 8.90625 16.8164 9.32812 16.4883 10.0547L14.3906 14.6016C14.2031 15.0586 14.1328 15.3633 14.1328 15.7266C14.1328 16.2891 14.5195 16.6758 15.0938 16.6758H17.7188V17.8477C17.7188 18.4688 18.1523 18.6797 18.5273 18.6797ZM17.7539 15.3516H15.5742V15.2695L17.707 10.3828H17.7539V15.3516Z" fill="black" fill-opacity="0.85"/>
</svg>
