<svg width="28" height="28" viewBox="0 0 28 28" fill="none" xmlns="http://www.w3.org/2000/svg">
<g clip-path="url(#clip0_2124_24605)">
<path d="M14.2461 13.543C16.2734 13.543 17.9141 11.9023 17.9141 9.875C17.9141 7.85938 16.2734 6.20703 14.2461 6.20703C12.2305 6.20703 10.6016 7.85938 10.6016 9.875C10.6016 11.9023 12.2305 13.543 14.2461 13.543ZM14.2461 12.1836C12.9805 12.1836 11.9609 11.1641 11.9609 9.875C11.9609 8.59766 12.9805 7.56641 14.2461 7.56641C15.5352 7.56641 16.5547 8.59766 16.5547 9.875C16.5547 11.1641 15.5352 12.1836 14.2461 12.1836ZM11.1875 26.8203H17.3047C19.2617 26.8203 20.4922 25.6367 20.4922 23.7734V5.04688C20.4922 3.18359 19.2617 2 17.3047 2H11.1875C9.23047 2 8 3.18359 8 5.04688V23.7734C8 25.6367 9.23047 26.8203 11.1875 26.8203ZM11.4336 24.9336C10.4492 24.9336 9.88672 24.3945 9.88672 23.4688V5.35156C9.88672 4.42578 10.4492 3.88672 11.4336 3.88672H17.0703C18.043 3.88672 18.6055 4.42578 18.6055 5.35156V23.4688C18.6055 24.3945 18.043 24.9336 17.0703 24.9336H11.4336Z" fill="black" fill-opacity="0.85"/>
</g>
<defs>
<clipPath id="clip0_2124_24605">
<rect width="12.4922" height="24.832" fill="white" transform="translate(8 2)"/>
</clipPath>
</defs>
</svg>
