<svg width="28" height="28" viewBox="0 0 28 28" fill="none" xmlns="http://www.w3.org/2000/svg">
<path d="M13.9531 25.9062C20.4922 25.9062 25.9062 20.4805 25.9062 13.9531C25.9062 7.41406 20.4805 2 13.9414 2C7.41406 2 2 7.41406 2 13.9531C2 20.4805 7.42578 25.9062 13.9531 25.9062Z" fill="black" fill-opacity="0.85"/>
<path d="M9.10193 19.918C8.41053 19.6953 8.19959 19.4844 7.98865 18.8047C7.66053 17.6797 7.62537 16.4023 7.87146 15.1484L12.7582 20.0234C11.4926 20.2695 10.2269 20.2461 9.10193 19.918ZM17.4574 17.457C16.4379 18.4883 15.266 19.2266 14.0238 19.6602L8.23475 13.8711C8.68006 12.6406 9.40662 11.457 10.4379 10.4492C11.4457 9.41794 12.6293 8.67966 13.8598 8.24606L19.6606 14.0352C19.2152 15.2773 18.4887 16.4492 17.4574 17.457ZM13.1098 16.4844C13.2035 16.3672 13.2035 16.1914 13.1098 16.0742L12.6762 15.6289L13.1098 15.207L13.5199 15.6289C13.6488 15.7695 13.8363 15.7578 13.9418 15.6289C14.0707 15.5234 14.0707 15.3242 13.9418 15.207L13.5082 14.7852L13.9535 14.3633L14.3871 14.7734C14.4926 14.8906 14.6918 14.9023 14.7973 14.7734C14.9262 14.6797 14.9027 14.4688 14.7973 14.3633L14.3637 13.9297L14.7973 13.4961L15.2309 13.918C15.3598 14.0352 15.5356 14.0469 15.6527 13.9297C15.7699 13.8125 15.7699 13.6133 15.6527 13.5195L15.2192 13.0859L15.6527 12.6523L16.0746 13.0742C16.2152 13.1914 16.391 13.1914 16.5082 13.0859C16.6137 12.957 16.6254 12.7695 16.5082 12.6523L15.2309 11.3867C15.1137 11.2695 14.9496 11.2812 14.809 11.3867C14.7035 11.5039 14.7152 11.6914 14.809 11.8203L15.2426 12.2422L14.7973 12.6641L14.3754 12.2422C14.2816 12.125 14.0942 12.125 13.9652 12.2422C13.8481 12.3594 13.8481 12.5586 13.9652 12.6641L14.3988 13.0859L13.9535 13.5312L13.5199 13.0977C13.4145 12.9688 13.227 12.9688 13.1215 13.1094C12.9926 13.2031 13.0043 13.4023 13.1215 13.5078L13.5316 13.9297L13.1098 14.375L12.6879 13.9414C12.5707 13.8242 12.3715 13.8242 12.266 13.9531C12.1371 14.0586 12.1371 14.2695 12.266 14.375L12.6879 14.7852L12.2543 15.2188L11.8324 14.7969C11.7152 14.6914 11.5394 14.6914 11.4105 14.7969C11.2933 14.9258 11.2933 15.1133 11.4105 15.2188L12.6762 16.4727C12.8051 16.5898 12.9809 16.6016 13.1098 16.4844ZM19.9066 9.10153C20.2348 10.2265 20.2699 11.4922 20.0121 12.7578L15.1371 7.88278C16.4027 7.63669 17.6684 7.66013 18.7934 7.98825C19.4731 8.21091 19.684 8.42185 19.9066 9.10153Z" fill="white"/>
</svg>
