<svg width="28" height="28" viewBox="0 0 28 28" fill="none" xmlns="http://www.w3.org/2000/svg">
<g clip-path="url(#clip0_2124_50224)">
<path d="M5.45703 10.8906H7.42578V6.92969C7.42578 6.34375 7.8125 5.96875 8.375 5.96875H18.9219C19.4961 5.96875 19.8711 6.34375 19.8711 6.92969V10.8906H21.8398V6.91797C21.8398 5.16016 20.7031 4 19.0273 4H8.28125C6.59375 4 5.45703 5.16016 5.45703 6.91797V10.8906ZM2 19.375C2 21.0625 3.11328 22.1758 4.77734 22.1758H22.5312C24.1836 22.1758 25.3086 21.0625 25.3086 19.375V12.25C25.3086 10.5742 24.1836 9.44922 22.5312 9.44922H21.1602C19.4961 9.44922 18.3828 10.5742 18.3828 12.25V15.3086H8.92578V12.25C8.92578 10.5742 7.80078 9.44922 6.14844 9.44922H4.77734C3.11328 9.44922 2 10.5742 2 12.25V19.375ZM3.99219 19.3516V12.2734C3.99219 11.7578 4.34375 11.418 4.87109 11.418H6.05469C6.58203 11.418 6.93359 11.7578 6.93359 12.2734V17.2773H20.375V12.2734C20.375 11.7578 20.7266 11.418 21.2539 11.418H22.4375C22.9648 11.418 23.3164 11.7578 23.3164 12.2734V19.3516C23.3164 19.8672 22.9648 20.207 22.4375 20.207H4.87109C4.34375 20.207 3.99219 19.8672 3.99219 19.3516ZM6.26562 24.5664H6.99219C7.625 24.5664 8.03516 24.168 8.03516 23.5352V21.0508H5.22266V23.5352C5.22266 24.168 5.63281 24.5664 6.26562 24.5664ZM20.3164 24.5664H21.0312C21.6641 24.5664 22.0742 24.168 22.0742 23.5352V21.0508H19.2734V23.5352C19.2734 24.168 19.6836 24.5664 20.3164 24.5664Z" fill="black" fill-opacity="0.85"/>
</g>
<defs>
<clipPath id="clip0_2124_50224">
<rect width="23.3086" height="20.5898" fill="white" transform="translate(2 4)"/>
</clipPath>
</defs>
</svg>
