<svg width="28" height="28" viewBox="0 0 28 28" fill="none" xmlns="http://www.w3.org/2000/svg">
<path d="M6.67969 24.5977H20.8945C23.3555 24.5977 24.5742 23.3789 24.5742 20.9648V6.65625C24.5742 4.24219 23.3555 3.02344 20.8945 3.02344H6.67969C4.23047 3.02344 3 4.23047 3 6.65625V20.9648C3 23.3906 4.23047 24.5977 6.67969 24.5977ZM6.70312 22.7109C5.53125 22.7109 4.88672 22.0898 4.88672 20.8711V6.75C4.88672 5.53125 5.53125 4.91016 6.70312 4.91016H20.8711C22.0312 4.91016 22.6875 5.53125 22.6875 6.75V20.8711C22.6875 22.0898 22.0312 22.7109 20.8711 22.7109H6.70312Z" fill="black" fill-opacity="0.85"/>
<path d="M10.3828 19.207C10.8398 19.207 11.1445 18.9141 11.1445 18.4219V14.6953C11.1445 12.5156 11.9062 11.2734 13.1484 10.957V18.5625C13.1484 18.9492 13.418 19.207 13.793 19.207C14.1211 19.207 14.4258 18.9492 14.4258 18.5625V10.9453C15.6914 11.2383 16.4766 12.4805 16.4766 14.6953V18.4219C16.4766 18.9141 16.7812 19.207 17.2266 19.207C17.6836 19.207 17.9883 18.9141 17.9883 18.4219V14.6016C17.9883 11.5078 16.5703 9.76172 14.4258 9.49219V8.28516C14.4258 7.875 14.1211 7.65234 13.793 7.65234C13.418 7.65234 13.1484 7.875 13.1484 8.28516V9.50391C11.0039 9.77344 9.60938 11.5195 9.60938 14.6016V18.4219C9.60938 18.9141 9.9375 19.207 10.3828 19.207Z" fill="black" fill-opacity="0.85"/>
</svg>
