<svg width="28" height="28" viewBox="0 0 28 28" fill="none" xmlns="http://www.w3.org/2000/svg">
<path d="M18.8601 26.6519L22.3288 20.6519C22.528 20.3004 22.4226 19.9019 22.0827 19.7027C21.7546 19.4918 21.3327 19.5972 21.1218 19.9605L17.6765 25.9371C17.4773 26.2886 17.5827 26.6988 17.9226 26.9097C18.2624 27.1089 18.6609 27.0035 18.8601 26.6519Z" fill="black" fill-opacity="0.85"/>
<path d="M16.1396 23.3121L17.6631 20.6636C17.874 20.3121 17.7568 19.9019 17.4052 19.691C17.0537 19.4918 16.6552 19.5972 16.4443 19.9605L14.9092 22.6324C14.7099 22.9605 14.8037 23.3707 15.167 23.5816C15.5185 23.7808 15.9404 23.6519 16.1396 23.3121Z" fill="black" fill-opacity="0.85"/>
<path d="M9.54248 26.6636L12.9995 20.6636C13.1987 20.3121 13.105 19.9136 12.7651 19.7144C12.4253 19.5035 11.9917 19.6089 11.7925 19.9722L8.35889 25.9488C8.15967 26.3004 8.25342 26.7105 8.60498 26.9214C8.94482 27.1207 9.34326 27.0035 9.54248 26.6636Z" fill="black" fill-opacity="0.85"/>
<path d="M6.81229 23.3238L8.33573 20.6754C8.55838 20.3238 8.4412 19.9136 8.08963 19.7027C7.73807 19.5035 7.33963 19.6089 7.11698 19.9722L5.58182 22.6441C5.3826 22.9722 5.48807 23.3824 5.85135 23.5933C6.1912 23.7925 6.61307 23.6636 6.81229 23.3238Z" fill="black" fill-opacity="0.85"/>
<path d="M6.50781 17.8394H21.0508C24.8945 17.8394 27.7539 14.9214 27.7539 11.3121C27.7539 7.57379 24.707 4.84332 20.7344 4.84332C19.2695 1.94879 16.5508 0.0855103 13.1641 0.0855103C8.75781 0.0855103 5.125 3.54254 4.73828 7.8902C2.61719 8.51129 1 10.3511 1 12.8238C1 15.6011 3.01562 17.8394 6.50781 17.8394Z" fill="black" fill-opacity="0.85"/>
</svg>
