<svg width="28" height="28" viewBox="0 0 28 28" fill="none" xmlns="http://www.w3.org/2000/svg">
<path d="M13.9531 25.9062C20.4922 25.9062 25.9062 20.4805 25.9062 13.9531C25.9062 7.41406 20.4805 2 13.9414 2C7.41406 2 2 7.41406 2 13.9531C2 20.4805 7.42578 25.9062 13.9531 25.9062ZM13.9531 23.9141C8.42188 23.9141 4.00391 19.4844 4.00391 13.9531C4.00391 8.42188 8.41016 3.99219 13.9414 3.99219C19.4727 3.99219 23.9141 8.42188 23.9141 13.9531C23.9141 19.4844 19.4844 23.9141 13.9531 23.9141Z" fill="black" fill-opacity="0.85"/>
<path d="M13.3789 19.4375C15.6758 19.4375 16.918 18.207 16.918 15.9805V9.41797C16.918 8.77344 16.5781 8.36328 15.9688 8.36328C15.3711 8.36328 15.043 8.79688 15.043 9.41797V15.957C15.043 17.1289 14.4453 17.832 13.4727 17.832C12.5938 17.832 11.9961 17.3984 11.7148 16.6367C11.5156 16.1914 11.2578 16.0039 10.8594 16.0039C10.3437 16.0039 9.99219 16.3672 9.99219 16.8711C9.99219 17.0703 10.0273 17.2461 10.0859 17.4219C10.4961 18.6406 11.7617 19.4375 13.3789 19.4375Z" fill="black" fill-opacity="0.85"/>
</svg>
