<svg width="28" height="28" viewBox="0 0 28 28" fill="none" xmlns="http://www.w3.org/2000/svg">
<path d="M13.7461 26.2773C14.1445 26.2773 14.5898 26.125 15.0117 25.6797L23.6602 16.4336C24.2461 15.8125 24.5039 15.4258 24.5039 14.8516C24.5039 14.0312 23.8477 13.4453 23.0625 13.4453H18.6328V3.94141C18.6328 2.07812 17.5781 1.01172 15.7617 1.01172H11.7188C9.90234 1.01172 8.84766 2.07812 8.84766 3.94141V13.4453H4.37109C3.58594 13.4453 3 14.0312 3 14.8281C3 15.4023 3.23438 15.8711 3.76172 16.4336L12.4922 25.6797C12.9141 26.125 13.3594 26.2773 13.7461 26.2773ZM13.7461 24.168C13.6758 24.168 13.6172 24.1445 13.5234 24.0508L5.625 15.6953C5.55469 15.625 5.51953 15.5664 5.51953 15.4961C5.51953 15.4023 5.58984 15.332 5.69531 15.332H10.2305C10.5 15.332 10.6172 15.2148 10.6172 14.9453V3.96484C10.6172 3.21484 11.0508 2.78125 11.8125 2.78125H15.6797C16.4414 2.78125 16.8633 3.21484 16.8633 3.96484V14.9453C16.8633 15.2148 16.9805 15.332 17.25 15.332H21.9023C22.0078 15.332 22.0664 15.4023 22.0664 15.4961C22.0664 15.5781 22.0312 15.6484 21.9727 15.707L13.9688 24.0508C13.8867 24.1328 13.8164 24.168 13.7461 24.168Z" fill="black" fill-opacity="0.85"/>
</svg>
