<svg width="28" height="28" viewBox="0 0 28 28" fill="none" xmlns="http://www.w3.org/2000/svg">
<path d="M6.67969 24.5977H20.8945C23.3555 24.5977 24.5742 23.3789 24.5742 20.9648V6.65625C24.5742 4.24219 23.3555 3.02344 20.8945 3.02344H6.67969C4.23047 3.02344 3 4.23047 3 6.65625V20.9648C3 23.3906 4.23047 24.5977 6.67969 24.5977Z" fill="black" fill-opacity="0.85"/>
<path d="M10.0313 18.9258C7.62891 18.9258 6.90234 16.2305 6.90234 13.793C6.90234 11.3555 7.62891 8.66016 10.0313 8.66016C12.4453 8.66016 13.1719 11.3555 13.1719 13.793C13.1719 16.2305 12.4453 18.9258 10.0313 18.9258ZM10.0313 17.4844C11.0156 17.4844 11.3906 15.8906 11.3906 13.793C11.3906 11.6836 11.0156 10.1016 10.0313 10.1016C9.04688 10.1016 8.67188 11.6836 8.67188 13.793C8.67188 15.8906 9.04688 17.4844 10.0313 17.4844ZM16.8984 15.3047C15.3047 15.3047 14.5195 13.7578 14.5195 12.1289C14.5195 10.2305 15.5859 8.68359 17.4258 8.68359C19.875 8.68359 20.6016 11.4141 20.6016 13.6992C20.6016 16.1719 19.875 18.9141 17.4023 18.9141C16.1953 18.9141 15.1406 18.2812 14.8828 17.2266C14.8477 17.0859 14.8125 16.9336 14.8125 16.793C14.8125 16.3945 15.0234 16.0547 15.5391 16.0547C15.9023 16.0547 16.1367 16.207 16.3125 16.6055C16.5352 17.1211 16.8984 17.4961 17.4375 17.4961C18.7852 17.4961 18.9492 15.082 18.9492 13.7461C18.9492 13.7109 18.9492 13.6641 18.9492 13.6172H18.9023C18.6328 14.6484 17.8945 15.3047 16.8984 15.3047ZM17.4492 13.9688C18.3164 13.9688 18.7148 12.9844 18.7148 12.0469C18.7148 11.1445 18.3516 10.1016 17.4492 10.1016C16.6055 10.1016 16.1953 11.1445 16.1953 12.0469C16.1953 12.9492 16.5586 13.9688 17.4492 13.9688Z" fill="white"/>
</svg>
