<svg width="28" height="28" viewBox="0 0 28 28" fill="none" xmlns="http://www.w3.org/2000/svg">
<g clip-path="url(#clip0_2124_50039)">
<path d="M6.67969 24.5977H20.8945C23.3555 24.5977 24.5742 23.3789 24.5742 20.9648V6.65625C24.5742 4.24219 23.3555 3.02344 20.8945 3.02344H6.67969C4.23047 3.02344 3 4.23047 3 6.65625V20.9648C3 23.3906 4.23047 24.5977 6.67969 24.5977Z" fill="black" fill-opacity="0.85"/>
<path d="M13.8281 20.6953C10.0898 20.6953 6.94922 17.5547 6.94922 13.8047C6.94922 10.043 10.0664 6.91406 13.8281 6.91406C17.5781 6.91406 20.7188 10.0547 20.7188 13.8047C20.7188 17.5664 17.6016 20.6953 13.8281 20.6953ZM13.8281 18.9844C16.6523 18.9844 19.0195 16.6289 19.0195 13.8047C19.0195 10.9922 16.6406 8.625 13.8281 8.625C11.0156 8.625 8.64844 10.9805 8.64844 13.8047C8.64844 16.6172 11.0273 18.9844 13.8281 18.9844ZM13.8281 17.7422C11.707 17.7422 9.90234 15.9258 9.90234 13.8047C9.90234 11.6719 11.6953 9.86719 13.8281 9.86719C15.9609 9.86719 17.7656 11.6836 17.7656 13.8047C17.7656 15.9375 15.9727 17.7422 13.8281 17.7422Z" fill="white"/>
</g>
<defs>
<clipPath id="clip0_2124_50039">
<rect width="21.5742" height="21.5977" fill="white" transform="translate(3 3)"/>
</clipPath>
</defs>
</svg>
