<svg width="28" height="28" viewBox="0 0 28 28" fill="none" xmlns="http://www.w3.org/2000/svg">
<path d="M13.9531 25.9062C20.4922 25.9062 25.9062 20.4805 25.9062 13.9531C25.9062 7.41406 20.4805 2 13.9414 2C7.41406 2 2 7.41406 2 13.9531C2 20.4805 7.42578 25.9062 13.9531 25.9062Z" fill="black" fill-opacity="0.85"/>
<path d="M9.62891 14.3867C9.62891 12.1602 11.082 10.625 13.0742 10.625C14.0586 10.625 14.9023 11.0117 15.4297 11.6563V9.73438H13.2266C12.8984 9.73438 12.6523 9.48828 12.6523 9.16016C12.6523 8.83203 12.8867 8.57422 13.2266 8.57422H15.4297V8.01172C15.4297 7.53125 15.7344 7.23828 16.1797 7.23828C16.6367 7.23828 16.9414 7.53125 16.9414 8.01172V8.57422H17.7148C18.0547 8.57422 18.2891 8.83203 18.2891 9.16016C18.2891 9.48828 18.043 9.73438 17.7148 9.73438H16.9414V17.5508C16.9414 17.9961 16.6484 18.2891 16.2266 18.2891C15.793 18.2891 15.4883 17.9961 15.4883 17.5508V17.0703C14.9375 17.7617 14.0703 18.1484 13.0859 18.1484C11.0937 18.1484 9.62891 16.6016 9.62891 14.3867ZM11.1875 14.3984C11.1875 15.8281 12.0547 16.7656 13.332 16.7656C14.5742 16.7656 15.4648 15.7695 15.4648 14.3984C15.4648 13.0273 14.5742 12.0312 13.332 12.0312C12.0547 12.0312 11.1875 12.9688 11.1875 14.3984ZM10.25 19.5312C10.25 19.2031 10.4961 18.9453 10.8359 18.9453H16.7305C17.0703 18.9453 17.3164 19.1914 17.3164 19.5312C17.3164 19.8594 17.0586 20.1172 16.7305 20.1172H10.8359C10.5078 20.1172 10.25 19.8594 10.25 19.5312Z" fill="white"/>
</svg>
