<svg width="28" height="28" viewBox="0 0 28 28" fill="none" xmlns="http://www.w3.org/2000/svg">
<g clip-path="url(#clip0_2124_62612)">
<path d="M3.10156 24.4805H8.75C9.75781 24.4805 10.6016 23.9297 11 23.0156L18.6875 5.68359C18.875 5.29688 19.168 5.12109 19.6367 5.12109H24.8281C25.4375 5.12109 25.9297 4.64062 25.9297 4.05469C25.9297 3.46875 25.4375 3 24.8281 3H19.1094C18.0312 3 17.3164 3.45703 16.8828 4.44141L9.16016 21.7852C8.98438 22.1719 8.67969 22.3594 8.25781 22.3594H3.10156C2.48047 22.3594 2 22.8281 2 23.4258C2 24.0234 2.48047 24.4805 3.10156 24.4805ZM17.2461 24.4805H24.8281C25.4492 24.4805 25.918 24.0352 25.918 23.4375C25.918 22.8398 25.4492 22.3828 24.8281 22.3828H17.2461C16.625 22.3828 16.1445 22.8398 16.1445 23.4375C16.1445 24.0352 16.625 24.4805 17.2461 24.4805Z" fill="black" fill-opacity="0.85"/>
</g>
<defs>
<clipPath id="clip0_2124_62612">
<rect width="23.9297" height="21.4805" fill="white" transform="translate(2 3)"/>
</clipPath>
</defs>
</svg>
