<svg width="32" height="28" viewBox="0 0 32 28" fill="none" xmlns="http://www.w3.org/2000/svg">
<g clip-path="url(#clip0_2124_24661)">
<path d="M19.9219 26.8086H28.6055C30.5156 26.8086 31.793 25.5898 31.793 23.7617V5.04688C31.793 3.21875 30.5156 2 28.6055 2H19.9219C18.0117 2 16.7227 3.21875 16.7227 5.04688V23.7617C16.7227 25.5898 18.0117 26.8086 19.9219 26.8086ZM20.1562 24.9219C19.1719 24.9219 18.6094 24.3945 18.6094 23.457V5.35156C18.6094 4.41406 19.1719 3.88672 20.1562 3.88672H28.3594C29.3438 3.88672 29.9062 4.41406 29.9062 5.35156V23.457C29.9062 24.3945 29.3438 24.9219 28.3594 24.9219H20.1562Z" fill="black" fill-opacity="0.85"/>
<path d="M1.04297 24.0195C1.65234 24.0195 2.08594 23.5977 2.08594 22.9883V21.207C2.08594 16.8477 4.74609 15.4414 8.15625 15.4414H8.92969L12.1758 15.3359V14.6797L8.98828 17.5859L7.69922 18.6875C7.42969 18.9102 7.35938 19.2031 7.35938 19.4844C7.35938 20.0586 7.80469 20.4922 8.37891 20.4922C8.66016 20.4922 8.90625 20.3867 9.16406 20.1406L14.1211 15.1953C14.3555 14.9727 14.4844 14.7031 14.4844 14.4102C14.4844 14.1172 14.3555 13.8477 14.1211 13.625L9.14062 8.65625C8.90625 8.42188 8.66016 8.32812 8.37891 8.32812C7.80469 8.32812 7.35938 8.75 7.35938 9.33594C7.35938 9.61719 7.42969 9.91016 7.69922 10.1328L8.98828 11.2344L12.1758 14.1406V13.4844L8.92969 13.3789H8.15625C3.99609 13.3789 0 15.2891 0 21.207V22.9883C0 23.5977 0.433594 24.0195 1.04297 24.0195Z" fill="black" fill-opacity="0.85"/>
</g>
<defs>
<clipPath id="clip0_2124_24661">
<rect width="31.793" height="24.832" fill="white" transform="translate(0 2)"/>
</clipPath>
</defs>
</svg>
