<svg width="28" height="28" viewBox="0 0 28 28" fill="none" xmlns="http://www.w3.org/2000/svg">
<path d="M13.7695 26.1172C18.1172 26.1172 21.5508 22.6836 21.5508 18.3359C21.5508 13.9766 18.1172 10.5547 13.7578 10.5547C9.41016 10.5547 6 13.9766 6 18.3359C6 22.6836 9.42188 26.1172 13.7695 26.1172ZM13.7695 24.1367C10.5117 24.1367 7.98047 21.6055 7.98047 18.3359C7.98047 15.0781 10.5117 12.5352 13.7578 12.5352C17.0273 12.5352 19.5703 15.0781 19.5703 18.3359C19.5703 21.6055 17.0391 24.1367 13.7695 24.1367ZM19.5703 18.3359H21.5508V5.21094H19.5703V18.3359ZM20.5547 6.5C21.8086 6.5 22.8047 5.49219 22.8047 4.25C22.8047 3.00781 21.8086 2 20.5547 2C19.3125 2 18.3047 3.00781 18.3047 4.25C18.3047 5.49219 19.3125 6.5 20.5547 6.5Z" fill="black" fill-opacity="0.85"/>
</svg>
