<svg width="28" height="28" viewBox="0 0 28 28" fill="none" xmlns="http://www.w3.org/2000/svg">
<path d="M6.67969 24.5977H20.8945C23.3555 24.5977 24.5742 23.3789 24.5742 20.9648V6.65625C24.5742 4.24219 23.3555 3.02344 20.8945 3.02344H6.67969C4.23047 3.02344 3 4.23047 3 6.65625V20.9648C3 23.3906 4.23047 24.5977 6.67969 24.5977ZM6.70312 22.7109C5.53125 22.7109 4.88672 22.0898 4.88672 20.8711V6.75C4.88672 5.53125 5.53125 4.91016 6.70312 4.91016H20.8711C22.0312 4.91016 22.6875 5.53125 22.6875 6.75V20.8711C22.6875 22.0898 22.0312 22.7109 20.8711 22.7109H6.70312Z" fill="black" fill-opacity="0.85"/>
<path d="M9.89062 13.793C9.89062 16.2188 11.1914 17.8125 13.207 18.082V18.9609C13.207 19.3008 13.4531 19.5352 13.7812 19.5352C14.1211 19.5352 14.3672 19.3008 14.3672 18.9609V18.0938C15.8555 17.918 16.9102 17.0742 17.25 16.0312C17.2852 15.9023 17.3203 15.7617 17.3203 15.6211C17.3203 15.2109 17.0273 14.9297 16.6172 14.9297C16.3008 14.9297 16.0664 15.1172 15.9375 15.4219C15.6797 16.0898 15.1523 16.5586 14.3672 16.7109V10.875C15.1406 11.0273 15.668 11.5078 15.9258 12.1523C16.0664 12.4922 16.3008 12.668 16.6289 12.668C17.0391 12.668 17.3086 12.3867 17.3086 11.9648C17.3086 11.8242 17.2734 11.6953 17.2383 11.5781C16.8984 10.5352 15.8438 9.67969 14.3672 9.50391V8.63672C14.3672 8.29688 14.1211 8.05078 13.7812 8.05078C13.4531 8.05078 13.207 8.29688 13.207 8.63672V9.51562C11.1914 9.78516 9.89062 11.3906 9.89062 13.793ZM11.3789 13.793C11.3789 12.2109 12.082 11.1797 13.207 10.8984V16.6875C12.082 16.418 11.3789 15.3984 11.3789 13.793Z" fill="black" fill-opacity="0.85"/>
</svg>
