<svg width="28" height="28" viewBox="0 0 28 28" fill="none" xmlns="http://www.w3.org/2000/svg">
<path d="M4 13.9297C4 14.5391 4.42188 14.9727 5.03125 14.9727H16.8789L19.3867 14.8906L15.5312 18.4062L12.9414 21.0312C12.7422 21.2305 12.6484 21.5117 12.6484 21.793C12.6484 22.3789 13.0938 22.8008 13.668 22.8008C13.9609 22.8008 14.2188 22.6953 14.4531 22.4609L22.2227 14.7148C22.457 14.4922 22.5859 14.2109 22.5859 13.9297C22.5859 13.6367 22.457 13.3672 22.2227 13.1328L14.4531 5.38672C14.2188 5.15234 13.9609 5.03516 13.668 5.03516C13.0938 5.03516 12.6484 5.46875 12.6484 6.05469C12.6484 6.33594 12.7422 6.61719 12.9414 6.80469L15.5312 9.44141L19.375 12.9688L16.8789 12.875H5.03125C4.42188 12.875 4 13.3086 4 13.9297ZM22.5508 21.8398C22.5508 22.4375 22.9844 22.8477 23.6055 22.8477C24.2148 22.8477 24.6484 22.4375 24.6484 21.8398V6.03125C24.6484 5.42188 24.2148 5 23.6055 5C22.9844 5 22.5508 5.42188 22.5508 6.03125V21.8398Z" fill="black" fill-opacity="0.85"/>
</svg>
