<svg width="28" height="28" viewBox="0 0 28 28" fill="none" xmlns="http://www.w3.org/2000/svg">
<path d="M6.67969 24.5977H20.8945C23.3555 24.5977 24.5742 23.3789 24.5742 20.9648V6.65625C24.5742 4.24219 23.3555 3.02344 20.8945 3.02344H6.67969C4.23047 3.02344 3 4.23047 3 6.65625V20.9648C3 23.3906 4.23047 24.5977 6.67969 24.5977Z" fill="black" fill-opacity="0.85"/>
<path d="M13.7227 19.5469C11.7891 19.5469 10.3828 18.7734 9.91406 17.543C9.82031 17.3555 9.77344 17.168 9.77344 16.957C9.77344 16.4883 10.1016 16.1484 10.5937 16.1484C10.9453 16.1484 11.2383 16.3477 11.4492 16.7344C11.8477 17.5312 12.6914 18.0234 13.6875 18.0234C15.0234 18.0234 16.0195 17.0391 16.0195 15.7148C16.0195 14.3789 15.1641 13.4883 13.8867 13.4883C13.2773 13.4883 12.8203 13.6758 12.2461 14.168C11.7656 14.5312 11.4844 14.625 11.0391 14.625C10.3711 14.625 9.96094 14.168 10.0195 13.4648L10.3477 9.45703C10.3945 8.75391 10.9102 8.30859 11.707 8.30859H16.7109C17.1328 8.30859 17.4258 8.61328 17.4258 9.05859C17.4258 9.49219 17.1211 9.80859 16.7109 9.80859H11.8828L11.6016 13.0781H11.6836C12.1172 12.4805 13.125 12.0469 14.1211 12.0469C16.3242 12.0469 17.8711 13.5352 17.8711 15.668C17.8711 18.0117 16.1719 19.5469 13.7227 19.5469Z" fill="white"/>
</svg>
