<svg width="44" height="28" viewBox="0 0 44 28" fill="none" xmlns="http://www.w3.org/2000/svg">
<path d="M34.9219 8.46484L36.293 9.56641L39.5039 6.28516C39.7734 6.00391 40.1016 5.89844 40.4766 5.89844H42.2578C42.7969 5.89844 43.1367 5.55859 43.1367 5.05469C43.1367 4.55078 42.7969 4.21094 42.2578 4.21094H40.6758C39.6797 4.21094 38.8125 4.49219 38.1445 5.18359L34.9219 8.46484ZM3.05859 20.3711H6.64453V18.4844H3.16406C2.33203 18.4844 1.88672 17.9688 1.88672 17.0078V14.9219C1.88672 13.1641 3.12891 12.0273 5.39062 11.7461L10.9922 11.043L16.0781 7.87891C18.668 6.27344 20.2266 5.88672 24.7031 5.88672H27.457C30.6445 5.88672 33.2227 7.21094 35.4375 10.293L38.3086 11.043C39.3867 11.3125 39.6797 11.957 39.6797 12.8594V17.1133C39.6797 17.9688 39.2461 18.4844 38.5078 18.4844H35.6016V20.3711H38.8477C40.5352 20.3711 41.5664 19.3047 41.5664 17.582V12.8594C41.5664 11.2188 41.0742 9.82422 38.8945 9.14453L36.4805 8.40625C34.957 6.58984 32.2969 4 27.457 4H24.7031C19.875 4 17.9531 4.46875 15.0703 6.27344L10.3477 9.23828L5.14453 9.87109C1.91016 10.2695 0 12.1328 0 14.9219V17.2422C0 19.2344 1.11328 20.3711 3.05859 20.3711ZM12.1289 20.3711H30.2109V18.4844H12.1289V20.3711ZM9.31641 23.043C11.5664 23.043 13.3242 21.2852 13.3242 19.0352C13.3242 16.7852 11.5664 15.0273 9.31641 15.0273C7.06641 15.0273 5.30859 16.7852 5.30859 19.0352C5.30859 21.2852 7.06641 23.043 9.31641 23.043ZM9.31641 21.1562C8.12109 21.1562 7.19531 20.2305 7.19531 19.0352C7.19531 17.8398 8.12109 16.9141 9.31641 16.9141C10.5117 16.9141 11.4375 17.8398 11.4375 19.0352C11.4375 20.2305 10.5117 21.1562 9.31641 21.1562ZM32.9883 23.043C35.2383 23.043 36.9961 21.2852 36.9961 19.0352C36.9961 16.7852 35.2383 15.0273 32.9883 15.0273C30.7383 15.0273 28.9805 16.7852 28.9805 19.0352C28.9805 21.2852 30.7383 23.043 32.9883 23.043ZM32.9883 21.1562C31.793 21.1562 30.8672 20.2305 30.8672 19.0352C30.8672 17.8398 31.793 16.9141 32.9883 16.9141C34.1836 16.9141 35.1094 17.8398 35.1094 19.0352C35.1094 20.2305 34.1836 21.1562 32.9883 21.1562Z" fill="black" fill-opacity="0.85"/>
</svg>
