<svg width="28" height="28" viewBox="0 0 28 28" fill="none" xmlns="http://www.w3.org/2000/svg">
<g clip-path="url(#clip0_2124_88682)">
<path d="M4.15527 21.5034H22.7295C23.8428 21.5034 24.499 20.9409 24.499 20.0855C24.499 18.9136 23.3154 17.8589 22.2959 16.8159C21.5225 16.0073 21.3115 14.3433 21.2295 12.9956C21.1357 8.4956 19.9521 5.40185 16.835 4.27685C16.3896 2.7417 15.1709 1.53467 13.4482 1.53467C11.7139 1.53467 10.5068 2.7417 10.0615 4.27685C6.94434 5.40185 5.74902 8.4956 5.66699 12.9956C5.57324 14.3433 5.37402 16.0073 4.60059 16.8159C3.58105 17.8589 2.38574 18.9136 2.38574 20.0855C2.38574 20.9409 3.05371 21.5034 4.15527 21.5034ZM13.4482 26.2026C15.4287 26.2026 16.8818 24.7495 17.0459 23.1089H9.85059C10.0029 24.7495 11.4561 26.2026 13.4482 26.2026Z" fill="black" fill-opacity="0.85"/>
<path d="M1.65918 4.88624L22.7061 25.9097C23.5967 26.8003 25.0615 26.8003 25.9287 25.8862C26.7959 24.9956 26.7959 23.5776 25.917 22.6987L4.88184 1.66358C4.00293 0.784675 2.5498 0.772956 1.65918 1.66358C0.780273 2.54249 0.780273 4.00733 1.65918 4.88624Z" fill="white"/>
<path d="M2.62012 3.91357L23.6787 24.937C24.0303 25.3003 24.6045 25.3003 24.9561 24.937C25.2959 24.5855 25.3076 24.023 24.9561 23.6597L3.90918 2.63623C3.55762 2.28467 2.9834 2.28467 2.62012 2.63623C2.28027 2.97607 2.28027 3.57373 2.62012 3.91357Z" fill="black" fill-opacity="0.85"/>
</g>
<defs>
<clipPath id="clip0_2124_88682">
<rect width="25.5776" height="25.7373" fill="white" transform="translate(1 1)"/>
</clipPath>
</defs>
</svg>
