<svg width="28" height="28" viewBox="0 0 28 28" fill="none" xmlns="http://www.w3.org/2000/svg">
<g clip-path="url(#clip0_2124_50161)">
<path d="M6.62109 25.4883H17.1914C19.582 25.4883 20.8008 24.2695 20.8008 21.9141V3.5625C20.8008 1.19531 19.5586 0 17.1914 0H6.62109C4.25391 0 3 1.19531 3 3.5625V21.9141C3 24.2695 4.23047 25.4883 6.62109 25.4883ZM7.74609 6.49219C6.80859 6.49219 6.04688 5.71875 6.04688 4.76953C6.04688 3.84375 6.80859 3.08203 7.74609 3.08203C8.68359 3.08203 9.45703 3.84375 9.45703 4.76953C9.45703 5.71875 8.68359 6.49219 7.74609 6.49219ZM6.73828 16.3008C6.31641 16.3008 5.97656 15.9727 5.97656 15.5391C5.97656 15.1172 6.31641 14.7773 6.73828 14.7773H10.2539C10.6875 14.7773 11.0273 15.1172 11.0273 15.5391C11.0273 15.9727 10.6875 16.3008 10.2539 16.3008H6.73828ZM6.73828 19.3242C6.31641 19.3242 5.97656 18.9961 5.97656 18.5625C5.97656 18.1289 6.31641 17.8008 6.73828 17.8008H10.2539C10.6875 17.8008 11.0273 18.1289 11.0273 18.5625C11.0273 18.9961 10.6875 19.3242 10.2539 19.3242H6.73828ZM6.73828 22.3477C6.31641 22.3477 5.97656 22.0078 5.97656 21.5859C5.97656 21.1523 6.31641 20.8125 6.73828 20.8125H10.2539C10.6875 20.8125 11.0273 21.1523 11.0273 21.5859C11.0273 22.0078 10.6875 22.3477 10.2539 22.3477H6.73828ZM13.5469 16.3008C13.1133 16.3008 12.7734 15.9727 12.7734 15.5391C12.7734 15.1172 13.1133 14.7773 13.5469 14.7773H17.0625C17.4844 14.7773 17.8242 15.1172 17.8242 15.5391C17.8242 15.9727 17.4844 16.3008 17.0625 16.3008H13.5469ZM13.5469 19.3242C13.1133 19.3242 12.7734 18.9961 12.7734 18.5625C12.7734 18.1289 13.1133 17.8008 13.5469 17.8008H17.0625C17.4844 17.8008 17.8242 18.1289 17.8242 18.5625C17.8242 18.9961 17.4844 19.3242 17.0625 19.3242H13.5469ZM13.5469 22.3477C13.1133 22.3477 12.7734 22.0078 12.7734 21.5859C12.7734 21.1523 13.1133 20.8125 13.5469 20.8125H17.0625C17.4844 20.8125 17.8242 21.1523 17.8242 21.5859C17.8242 22.0078 17.4844 22.3477 17.0625 22.3477H13.5469ZM6.39844 27.5508C6.96094 27.5508 7.33594 27.1641 7.33594 26.6016V24.3047H5.44922V26.6016C5.44922 27.1641 5.83594 27.5508 6.39844 27.5508ZM17.4023 27.5508C17.9766 27.5508 18.3516 27.1641 18.3516 26.6016V24.3047H16.4648V26.6016C16.4648 27.1641 16.8398 27.5508 17.4023 27.5508Z" fill="white"/>
<path d="M15.4796 6.11719C14.5889 6.11719 13.7335 5.91797 12.9601 5.4375C12.4679 5.15625 12.4444 4.64062 12.6554 4.3125C12.8429 4.00781 13.2413 3.85547 13.6397 4.07812C14.3194 4.46484 14.8468 4.60547 15.4796 4.60547C18.1632 4.60547 19.7921 2.05078 22.9679 2.05078C23.8585 2.05078 24.7022 2.27344 25.4874 2.73047C26.003 3.02344 26.0147 3.53906 25.7921 3.87891C25.6046 4.14844 25.2296 4.3125 24.8077 4.07812C24.128 3.70312 23.6007 3.57422 22.9679 3.57422C20.2374 3.57422 18.6085 6.11719 15.4796 6.11719ZM15.4913 9.38672C14.6007 9.38672 13.7452 9.17578 12.9718 8.70703C12.4679 8.42578 12.4444 7.91016 12.6554 7.58203C12.8429 7.27734 13.253 7.11328 13.6514 7.34766C14.3194 7.72266 14.8468 7.875 15.4913 7.875C18.1749 7.875 19.8038 5.30859 22.9679 5.30859C23.8585 5.30859 24.7139 5.53125 25.5108 5.98828C26.0147 6.28125 26.0147 6.80859 25.8038 7.13672C25.6163 7.41797 25.2296 7.58203 24.8194 7.34766C24.1397 6.96094 23.6124 6.83203 22.9679 6.83203C20.2491 6.83203 18.6085 9.38672 15.4913 9.38672ZM15.4796 12.6445C14.5889 12.6445 13.7335 12.4453 12.9601 11.9648C12.4679 11.6836 12.4444 11.168 12.6554 10.8398C12.8429 10.5352 13.2413 10.3828 13.6397 10.6055C14.3194 10.9922 14.8468 11.1328 15.4796 11.1328C18.1632 11.1328 19.7921 8.57812 22.9679 8.57812C23.8585 8.57812 24.7022 8.80078 25.4874 9.25781C26.003 9.55078 26.0147 10.0664 25.7921 10.4062C25.6046 10.6758 25.2296 10.8398 24.8077 10.6055C24.128 10.2305 23.6007 10.1016 22.9679 10.1016C20.2374 10.1016 18.6085 12.6445 15.4796 12.6445Z" fill="white"/>
<path d="M6.62109 25.4883H17.1914C19.582 25.4883 20.8008 24.2695 20.8008 21.9141V3.5625C20.8008 1.19531 19.5586 0 17.1914 0H6.62109C4.25391 0 3 1.19531 3 3.5625V21.9141C3 24.2695 4.23047 25.4883 6.62109 25.4883ZM7.74609 6.49219C6.80859 6.49219 6.04688 5.71875 6.04688 4.76953C6.04688 3.84375 6.80859 3.08203 7.74609 3.08203C8.68359 3.08203 9.45703 3.84375 9.45703 4.76953C9.45703 5.71875 8.68359 6.49219 7.74609 6.49219ZM6.73828 16.3008C6.31641 16.3008 5.97656 15.9727 5.97656 15.5391C5.97656 15.1172 6.31641 14.7773 6.73828 14.7773H10.2539C10.6875 14.7773 11.0273 15.1172 11.0273 15.5391C11.0273 15.9727 10.6875 16.3008 10.2539 16.3008H6.73828ZM6.73828 19.3242C6.31641 19.3242 5.97656 18.9961 5.97656 18.5625C5.97656 18.1289 6.31641 17.8008 6.73828 17.8008H10.2539C10.6875 17.8008 11.0273 18.1289 11.0273 18.5625C11.0273 18.9961 10.6875 19.3242 10.2539 19.3242H6.73828ZM6.73828 22.3477C6.31641 22.3477 5.97656 22.0078 5.97656 21.5859C5.97656 21.1523 6.31641 20.8125 6.73828 20.8125H10.2539C10.6875 20.8125 11.0273 21.1523 11.0273 21.5859C11.0273 22.0078 10.6875 22.3477 10.2539 22.3477H6.73828ZM13.5469 16.3008C13.1133 16.3008 12.7734 15.9727 12.7734 15.5391C12.7734 15.1172 13.1133 14.7773 13.5469 14.7773H17.0625C17.4844 14.7773 17.8242 15.1172 17.8242 15.5391C17.8242 15.9727 17.4844 16.3008 17.0625 16.3008H13.5469ZM13.5469 19.3242C13.1133 19.3242 12.7734 18.9961 12.7734 18.5625C12.7734 18.1289 13.1133 17.8008 13.5469 17.8008H17.0625C17.4844 17.8008 17.8242 18.1289 17.8242 18.5625C17.8242 18.9961 17.4844 19.3242 17.0625 19.3242H13.5469ZM13.5469 22.3477C13.1133 22.3477 12.7734 22.0078 12.7734 21.5859C12.7734 21.1523 13.1133 20.8125 13.5469 20.8125H17.0625C17.4844 20.8125 17.8242 21.1523 17.8242 21.5859C17.8242 22.0078 17.4844 22.3477 17.0625 22.3477H13.5469ZM15.4805 6.11719C14.5898 6.11719 13.7344 5.91797 12.9609 5.4375C12.4688 5.15625 12.4453 4.64062 12.6562 4.3125C12.8438 4.00781 13.2422 3.85547 13.6406 4.07812C14.3203 4.46484 14.8477 4.60547 15.4805 4.60547C18.1641 4.60547 19.793 2.05078 22.9688 2.05078C23.8594 2.05078 24.7031 2.27344 25.4883 2.73047C26.0039 3.02344 26.0156 3.53906 25.793 3.87891C25.6055 4.14844 25.2305 4.3125 24.8086 4.07812C24.1289 3.70312 23.6016 3.57422 22.9688 3.57422C20.2383 3.57422 18.6094 6.11719 15.4805 6.11719ZM15.4922 9.38672C14.6016 9.38672 13.7461 9.17578 12.9727 8.70703C12.4688 8.42578 12.4453 7.91016 12.6562 7.58203C12.8438 7.27734 13.2539 7.11328 13.6523 7.34766C14.3203 7.72266 14.8477 7.875 15.4922 7.875C18.1758 7.875 19.8047 5.30859 22.9688 5.30859C23.8594 5.30859 24.7148 5.53125 25.5117 5.98828C26.0156 6.28125 26.0156 6.80859 25.8047 7.13672C25.6172 7.41797 25.2305 7.58203 24.8203 7.34766C24.1406 6.96094 23.6133 6.83203 22.9688 6.83203C20.25 6.83203 18.6094 9.38672 15.4922 9.38672ZM15.4805 12.6445C14.5898 12.6445 13.7344 12.4453 12.9609 11.9648C12.4688 11.6836 12.4453 11.168 12.6562 10.8398C12.8438 10.5352 13.2422 10.3828 13.6406 10.6055C14.3203 10.9922 14.8477 11.1328 15.4805 11.1328C18.1641 11.1328 19.793 8.57812 22.9688 8.57812C23.8594 8.57812 24.7031 8.80078 25.4883 9.25781C26.0039 9.55078 26.0156 10.0664 25.793 10.4062C25.6055 10.6758 25.2305 10.8398 24.8086 10.6055C24.1289 10.2305 23.6016 10.1016 22.9688 10.1016C20.2383 10.1016 18.6094 12.6445 15.4805 12.6445ZM6.39844 27.5508C6.96094 27.5508 7.33594 27.1641 7.33594 26.6016V24.3047H5.44922V26.6016C5.44922 27.1641 5.83594 27.5508 6.39844 27.5508ZM17.4023 27.5508C17.9766 27.5508 18.3516 27.1641 18.3516 26.6016V24.3047H16.4648V26.6016C16.4648 27.1641 16.8398 27.5508 17.4023 27.5508Z" fill="black" fill-opacity="0.85"/>
</g>
<defs>
<clipPath id="clip0_2124_50161">
<rect width="22.9379" height="27.5742" fill="white" transform="translate(3)"/>
</clipPath>
</defs>
</svg>
