<svg width="28" height="28" viewBox="0 0 28 28" fill="none" xmlns="http://www.w3.org/2000/svg">
<g clip-path="url(#clip0_2124_88637)">
<path d="M3 11.3516C3 16.5078 7.19531 20.7031 12.3516 20.7031C14.3906 20.7031 16.2539 20.0469 17.7891 18.9453L23.5547 24.7227C23.8242 24.9922 24.1758 25.1211 24.5508 25.1211C25.3477 25.1211 25.8984 24.5234 25.8984 23.7383C25.8984 23.3633 25.7578 23.0234 25.5117 22.7773L19.7812 17.0117C20.9883 15.4414 21.7031 13.4844 21.7031 11.3516C21.7031 6.19531 17.5078 2 12.3516 2C7.19531 2 3 6.19531 3 11.3516ZM5.00391 11.3516C5.00391 7.29688 8.29688 4.00391 12.3516 4.00391C16.4062 4.00391 19.6992 7.29688 19.6992 11.3516C19.6992 15.4062 16.4062 18.6992 12.3516 18.6992C8.29688 18.6992 5.00391 15.4062 5.00391 11.3516ZM8.22656 10.8711C8.22656 11.5039 8.89453 11.5859 9.23438 11.2578L10.2188 10.2852L13.3711 13.4375L12.3516 14.4336C11.9883 14.7852 12.1055 15.4414 12.7383 15.4414H15.7734C16.1953 15.4414 16.4297 15.1719 16.4297 14.6914V11.8086C16.4297 11.1758 15.7617 11.0938 15.4219 11.4219L14.4492 12.3828L11.2969 9.23047L12.3047 8.24609C12.668 7.89453 12.5508 7.23828 11.918 7.23828H8.88281C8.46094 7.23828 8.22656 7.50781 8.22656 7.98828V10.8711Z" fill="black" fill-opacity="0.85"/>
</g>
<defs>
<clipPath id="clip0_2124_88637">
<rect width="22.8984" height="23.1211" fill="white" transform="translate(3 2)"/>
</clipPath>
</defs>
</svg>
