<svg width="28" height="28" viewBox="0 0 28 28" fill="none" xmlns="http://www.w3.org/2000/svg">
<path d="M13.9531 25.9062C20.4922 25.9062 25.9062 20.4805 25.9062 13.9531C25.9062 7.41406 20.4805 2 13.9414 2C7.41406 2 2 7.41406 2 13.9531C2 20.4805 7.42578 25.9062 13.9531 25.9062Z" fill="black" fill-opacity="0.85"/>
<path d="M9.28907 17.5273C7.3086 17.5273 5.70312 15.9336 5.70312 13.9531C5.70312 11.9727 7.3086 10.3789 9.28907 10.3789C11.2578 10.3789 12.8633 11.9727 12.8633 13.9531C12.8633 15.9336 11.2578 17.5273 9.28907 17.5273ZM18.6289 17.5273C16.6484 17.5273 15.043 15.9336 15.043 13.9531C15.043 11.9727 16.6484 10.3789 18.6289 10.3789C20.5977 10.3789 22.2031 11.9727 22.2031 13.9531C22.2031 15.9336 20.5977 17.5273 18.6289 17.5273ZM12.125 9.53516C11.9141 9.3125 11.9141 8.96094 12.125 8.73828L13.1562 7.70703L12.125 6.6875C11.9141 6.46484 11.9141 6.11328 12.125 5.89062C12.3477 5.66797 12.6758 5.66797 12.9102 5.89062L13.9414 6.93359L14.9727 5.89062C15.207 5.66797 15.5352 5.66797 15.7578 5.89062C15.9805 6.11328 15.9805 6.45312 15.7578 6.6875L14.7266 7.70703L15.7578 8.73828C15.9805 8.97266 15.9805 9.3125 15.7578 9.53516C15.5352 9.74609 15.1953 9.74609 14.9727 9.53516L13.9414 8.49219L12.9102 9.53516C12.6875 9.74609 12.3477 9.74609 12.125 9.53516ZM12.125 22.0039C11.9023 21.7812 11.9141 21.4297 12.125 21.207L13.1562 20.1875L12.125 19.1562C11.9141 18.9336 11.9023 18.5938 12.125 18.3594C12.3477 18.1367 12.6875 18.1484 12.9102 18.3594L13.9414 19.4023L14.9727 18.3594C15.1953 18.1484 15.5352 18.1367 15.7578 18.3594C15.9805 18.5938 15.9688 18.9336 15.7578 19.1562L14.7266 20.1875L15.7578 21.207C15.9688 21.4297 15.9805 21.7812 15.7578 22.0039C15.5352 22.2266 15.1953 22.2148 14.9727 22.0039L13.9414 20.9609L12.9102 22.0039C12.6875 22.2148 12.3477 22.2266 12.125 22.0039Z" fill="white"/>
</svg>
