<svg width="28" height="28" viewBox="0 0 28 28" fill="none" xmlns="http://www.w3.org/2000/svg">
<path d="M13.9531 25.918C20.4922 25.918 25.9062 20.5039 25.9062 13.9648C25.9062 7.4375 20.4805 2.01172 13.9414 2.01172C7.41406 2.01172 2 7.4375 2 13.9648C2 20.5039 7.42578 25.918 13.9531 25.918Z" fill="black" fill-opacity="0.85"/>
<path d="M13.7773 20.9609C10.0625 20.9609 7.22656 18.3008 7.22656 14.5742C7.22656 11.9258 8.79688 9.39453 11.1406 8.46875C11.668 8.25781 11.9844 8.59766 11.7852 9.04297C11.5977 9.59375 11.3984 10.5781 11.3984 11.293C11.3984 14.7266 13.6016 16.8828 17.0234 16.8828C17.7969 16.8828 18.6055 16.7188 19.0859 16.5547C19.5781 16.3906 19.8477 16.7656 19.6367 17.2461C18.8398 19.2969 16.4961 20.9609 13.7773 20.9609ZM17.3867 13.2617C17.2461 13.2617 17.1406 13.1445 17.1172 13.0039C16.8477 10.8594 16.7422 10.8242 14.5039 10.4023C14.3516 10.3906 14.2578 10.2852 14.2578 10.1211C14.2578 9.98047 14.3516 9.875 14.5039 9.86328C16.7422 9.54688 16.8125 9.42969 17.1172 7.26172C17.1406 7.10938 17.2461 7.00391 17.3867 7.00391C17.5273 7.00391 17.6328 7.10938 17.6562 7.26172C17.9727 9.39453 18.0547 9.42969 20.2695 9.86328C20.4102 9.875 20.5156 9.98047 20.5156 10.1211C20.5156 10.2969 20.4102 10.3906 20.2461 10.4023C18.043 10.7305 17.9258 10.8359 17.6562 13.0039C17.6328 13.1445 17.5273 13.2617 17.3867 13.2617Z" fill="white"/>
</svg>
