<svg width="28" height="28" viewBox="0 0 28 28" fill="none" xmlns="http://www.w3.org/2000/svg">
<path d="M6.67969 24.5977H20.8945C23.3555 24.5977 24.5742 23.3789 24.5742 20.9648V6.65625C24.5742 4.24219 23.3555 3.02344 20.8945 3.02344H6.67969C4.23047 3.02344 3 4.23047 3 6.65625V20.9648C3 23.3906 4.23047 24.5977 6.67969 24.5977ZM6.70312 22.7109C5.53125 22.7109 4.88672 22.0898 4.88672 20.8711V6.75C4.88672 5.53125 5.53125 4.91016 6.70312 4.91016H20.8711C22.0312 4.91016 22.6875 5.53125 22.6875 6.75V20.8711C22.6875 22.0898 22.0312 22.7109 20.8711 22.7109H6.70312Z" fill="black" fill-opacity="0.85"/>
<path d="M19.8281 13.7812C19.8281 13.5234 19.7227 13.3359 19.4883 13.1016L15.5273 9.11719C15.375 8.96484 15.1641 8.88281 14.918 8.88281C14.4375 8.88281 14.0742 9.24609 14.0742 9.72656C14.0742 9.98438 14.1797 10.1953 14.332 10.3594L15.8086 11.8125L17.2148 12.9961L14.7422 12.9023H8.625C8.12109 12.9023 7.75781 13.2656 7.75781 13.7812C7.75781 14.2852 8.12109 14.6484 8.625 14.6484H14.7422L17.2148 14.5664L15.8086 15.75L14.332 17.2031C14.168 17.3555 14.0742 17.5664 14.0742 17.8242C14.0742 18.3047 14.4375 18.6797 14.918 18.6797C15.1641 18.6797 15.375 18.5859 15.5273 18.4336L19.4883 14.4609C19.7109 14.25 19.8281 14.0391 19.8281 13.7812Z" fill="black" fill-opacity="0.85"/>
</svg>
