<svg width="28" height="28" viewBox="0 0 28 28" fill="none" xmlns="http://www.w3.org/2000/svg">
<path d="M14.2344 24.5508C21.0898 24.5508 26.4805 19.1719 26.4805 12.7148C26.4805 9.30469 24.9805 6.22266 22.8594 4.20703C21.9688 3.375 20.9961 3 19.6719 3H8.79688C7.48438 3 6.51172 3.375 5.62109 4.20703C3.48828 6.22266 2 9.30469 2 12.7148C2 19.1719 7.39062 24.5508 14.2344 24.5508ZM14.2344 22.5469C8.21094 22.5469 4.00391 18.3398 4.00391 12.7148C4.00391 9.77344 5.12891 7.42969 6.99219 5.67188C7.57812 5.10938 7.87109 5.00391 8.79688 5.00391H19.6719C20.5977 5.00391 20.8906 5.10938 21.4766 5.67188C23.3398 7.42969 24.4766 9.77344 24.4766 12.7148C24.4766 18.3398 20.2578 22.5469 14.2344 22.5469Z" fill="black" fill-opacity="0.85"/>
<path d="M11.1523 9.98438C12.1836 9.98438 13.0273 9.14062 13.0273 8.10938C13.0273 7.06641 12.1836 6.22266 11.1523 6.22266C10.1094 6.22266 9.26562 7.06641 9.26562 8.10938C9.26562 9.14062 10.1094 9.98438 11.1523 9.98438ZM17.3281 9.98438C18.3711 9.98438 19.2148 9.14062 19.2148 8.10938C19.2148 7.06641 18.3711 6.22266 17.3281 6.22266C16.2852 6.22266 15.4414 7.06641 15.4414 8.10938C15.4414 9.14062 16.2852 9.98438 17.3281 9.98438ZM8.05858 15.3516C9.51171 15.3516 10.6836 14.168 10.6836 12.7148C10.6836 11.2617 9.51171 10.0781 8.05858 10.0781C6.59374 10.0781 5.42188 11.2617 5.42188 12.7148C5.42188 14.168 6.59374 15.3516 8.05858 15.3516ZM14.2344 15.3516C15.6992 15.3516 16.8711 14.168 16.8711 12.7148C16.8711 11.2617 15.6992 10.0781 14.2344 10.0781C12.7812 10.0781 11.6094 11.2617 11.6094 12.7148C11.6094 14.168 12.7812 15.3516 14.2344 15.3516ZM20.4219 15.3516C21.875 15.3516 23.0586 14.168 23.0586 12.7148C23.0586 11.2617 21.875 10.0781 20.4219 10.0781C18.9688 10.0781 17.7852 11.2617 17.7852 12.7148C17.7852 14.168 18.9688 15.3516 20.4219 15.3516ZM11.1406 20.7773C12.6055 20.7773 13.7773 19.5938 13.7773 18.1406C13.7773 16.6875 12.6055 15.5039 11.1406 15.5039C9.6875 15.5039 8.51562 16.6875 8.51562 18.1406C8.51562 19.5938 9.6875 20.7773 11.1406 20.7773ZM17.3281 20.7773C18.793 20.7773 19.9648 19.5938 19.9648 18.1406C19.9648 16.6875 18.793 15.5039 17.3281 15.5039C15.875 15.5039 14.6914 16.6875 14.6914 18.1406C14.6914 19.5938 15.875 20.7773 17.3281 20.7773Z" fill="black" fill-opacity="0.85"/>
</svg>
