<svg width="32" height="28" viewBox="0 0 32 28" fill="none" xmlns="http://www.w3.org/2000/svg">
<g clip-path="url(#clip0_2124_24557)">
<path d="M26.8124 22.3633C27.1874 22.7969 27.8437 22.7969 28.289 22.3047C30.246 20.1836 31.3358 17.3828 31.3358 14.3477C31.3358 11.3125 30.246 8.50001 28.289 6.39063C27.8437 5.89845 27.1874 5.88673 26.8124 6.33204C26.4374 6.75392 26.5546 7.3047 26.9765 7.78517C28.5468 9.53126 29.4257 11.8281 29.4257 14.3477C29.4257 16.8672 28.5468 19.1641 26.9765 20.9102C26.5546 21.3906 26.4374 21.9414 26.8124 22.3633Z" fill="black" fill-opacity="0.85"/>
<path d="M23.5313 19.0234C23.9181 19.457 24.6212 19.4688 25.0313 18.9414C26.0509 17.6758 26.6485 16.0703 26.6485 14.3477C26.6485 12.625 26.0509 11.0196 25.0313 9.75395C24.6212 9.2266 23.9181 9.2266 23.5313 9.67192C23.1563 10.0938 23.3087 10.6211 23.6837 11.125C24.3868 11.9922 24.7384 13.129 24.7384 14.3477C24.7384 15.5664 24.3868 16.6914 23.6837 17.5703C23.3087 18.0742 23.1563 18.6016 23.5313 19.0234Z" fill="black" fill-opacity="0.85"/>
<path d="M10.3477 24.6953C15.9961 24.6953 20.6953 19.9961 20.6953 14.3477C20.6953 8.69922 16.0078 4 10.3594 4C4.71094 4 0 8.69922 0 14.3477C0 19.9961 4.69922 24.6953 10.3477 24.6953ZM10.3594 22.8203C5.66016 22.8203 1.88672 19.0469 1.89844 14.3477C1.89844 9.64844 5.67188 5.88672 10.3711 5.88672C15.0469 5.88672 18.8086 9.64844 18.8086 14.3477C18.8086 19.0469 15.0586 22.8203 10.3594 22.8203ZM10.4414 17.7227C11.1445 17.7227 11.2969 18.0742 11.8945 18.0742C12.4922 18.0742 12.9023 17.5234 13.2773 16.9844C13.7109 16.3633 13.8867 15.7539 13.8867 15.7305C13.8516 15.7188 12.7031 15.25 12.7031 13.9375C12.7031 12.7891 13.6055 12.2852 13.6523 12.2383C13.0664 11.3828 12.1523 11.3711 11.8945 11.3711C11.2266 11.3711 10.6875 11.7695 10.3359 11.7695C9.97266 11.7695 9.49219 11.3828 8.89453 11.3828C7.79297 11.3828 6.67969 12.3086 6.67969 14.0195C6.67969 15.0977 7.08984 16.2344 7.59375 16.9609C8.03906 17.582 8.42578 18.0859 8.98828 18.0859C9.52734 18.0859 9.77344 17.7227 10.4414 17.7227ZM11.5898 10.6328C11.8594 10.3047 12.0586 9.85938 12.0586 9.39062C12.0586 9.33203 12.0586 9.27344 12.0469 9.22656C11.5898 9.23828 11.0625 9.51953 10.7461 9.89453C10.5 10.1875 10.2539 10.6328 10.2539 11.1016C10.2539 11.1602 10.2656 11.2305 10.2656 11.2539C10.3008 11.2539 10.3359 11.2656 10.3828 11.2656C10.793 11.2656 11.2969 10.9961 11.5898 10.6328Z" fill="black" fill-opacity="0.85"/>
</g>
<defs>
<clipPath id="clip0_2124_24557">
<rect width="31.3359" height="20.707" fill="white" transform="translate(0 4)"/>
</clipPath>
</defs>
</svg>
