<svg width="28" height="28" viewBox="0 0 28 28" fill="none" xmlns="http://www.w3.org/2000/svg">
<path d="M4.07778 8.80396L4.95669 9.12037C5.87075 9.46021 6.72622 9.03834 7.06606 8.10084L8.7184 3.56568C9.05825 2.62818 8.67153 1.77271 7.75747 1.43287L6.87856 1.11646C5.9645 0.776619 5.12075 1.19849 4.76919 2.14771L3.12856 6.67115C2.777 7.60865 3.16372 8.46412 4.07778 8.80396ZM19.5114 8.80396L20.402 9.12037C21.3161 9.46021 22.1598 9.03834 22.4997 8.10084L24.152 3.56568C24.5036 2.62818 24.1051 1.77271 23.2028 1.43287L22.3122 1.11646C21.3981 0.776619 20.5661 1.19849 20.2145 2.14771L18.5622 6.67115C18.2223 7.60865 18.609 8.47584 19.5114 8.80396ZM5.44887 26.1829H6.38637C7.35903 26.1829 8.01528 25.5032 8.01528 24.5071V19.6907C8.01528 18.6829 7.35903 18.0032 6.38637 18.0032H5.44887C4.48794 18.0032 3.83169 18.6829 3.83169 19.6907V24.5071C3.83169 25.5032 4.48794 26.1829 5.44887 26.1829ZM20.8825 26.1829H21.82C22.7926 26.1829 23.4489 25.5032 23.4489 24.5071V19.6907C23.4489 18.6829 22.7926 18.0032 21.82 18.0032H20.8825C19.9215 18.0032 19.2653 18.6829 19.2653 19.6907V24.5071C19.2653 25.5032 19.9215 26.1829 20.8825 26.1829ZM7.0895 6.06178H20.2028V4.17506H7.0895V6.06178ZM12.6676 4.17506V10.1868C12.7965 10.2688 12.902 10.3508 13.0192 10.4563L13.5817 11.0071L14.2379 10.3391C14.3317 10.2337 14.4489 10.1516 14.5543 10.0813V4.17506H12.6676ZM12.6676 23.0422H14.5543V17.0305C14.4372 16.9485 14.32 16.8547 14.2028 16.761L13.652 16.2102L12.9958 16.8782C12.902 16.9719 12.7848 17.0657 12.6676 17.136V23.0422ZM7.0895 23.0422H20.2028V21.1555H7.0895V23.0422Z" fill="black" fill-opacity="0.85"/>
<path d="M11.0621 16.1633C11.3317 16.4329 11.7653 16.4915 12.0582 16.1985L13.652 14.6165L15.1403 16.093C15.4098 16.3508 15.8317 16.3391 16.1012 16.093C16.359 15.8469 16.359 15.4016 16.1012 15.1321L14.6129 13.6438L16.2067 12.0618C16.4997 11.7688 16.4411 11.3352 16.1715 11.054C15.8903 10.7727 15.4567 10.7258 15.1637 11.0188L13.5817 12.6008L12.0817 11.1243C11.8121 10.8664 11.3903 10.8664 11.1207 11.1243C10.8629 11.3704 10.8629 11.804 11.1207 12.0735L12.609 13.5735L11.027 15.1555C10.734 15.4485 10.7809 15.8821 11.0621 16.1633Z" fill="black" fill-opacity="0.85"/>
</svg>
