<svg width="30" height="28" viewBox="0 0 30 28" fill="none" xmlns="http://www.w3.org/2000/svg">
<path d="M23.1562 23.3672C26.6953 23.3672 29.4609 20.7773 29.4609 17.5547C29.4609 15.0938 28.043 12.9609 25.7578 12C25.7812 6.77344 22.0195 3 17.2266 3C14.0508 3 11.7891 4.69922 10.3828 6.75C7.5 5.90625 4.35938 8.09766 4.30078 11.3789C1.65234 11.8008 0 14.168 0 17.0273C0 20.4727 3.01172 23.3672 7.01953 23.3672H23.1562ZM23.1562 21.4805H7.01953C4.06641 21.4805 1.88672 19.418 1.88672 17.0273C1.88672 14.6836 3.30469 12.8203 5.78906 12.8203C5.95312 12.8203 6.01172 12.7383 6.01172 12.5859C6.01172 8.97656 8.61328 7.91016 11.0156 8.69531C11.1562 8.74219 11.2383 8.70703 11.3086 8.57812C12.4453 6.55078 14.1914 4.88672 17.2266 4.88672C21.0703 4.88672 23.7305 7.93359 23.9297 11.4141C23.9648 11.9531 23.9297 12.5859 23.8828 13.1367C23.8711 13.2891 23.9297 13.3711 24.0703 13.4062C26.2031 13.875 27.5742 15.4336 27.5742 17.5547C27.5742 19.7344 25.6523 21.4805 23.1562 21.4805Z" fill="black" fill-opacity="0.85"/>
<path d="M10.0312 18.5508C11.3203 19.8281 13.125 19.8281 14.4258 18.5508L16.793 16.1836C18.082 14.9062 18.0703 13.0898 16.793 11.8008C16.3828 11.3789 15.9258 11.1563 15.5742 11.0508L14.9648 11.6484C14.8477 11.7773 14.6953 11.9414 14.5312 12.1758C15.0234 12.0938 15.5039 12.2813 15.9023 12.6914C16.6992 13.4766 16.7109 14.5781 15.8906 15.3867L13.6289 17.6602C12.832 18.457 11.707 18.457 10.9219 17.6719C10.125 16.8633 10.125 15.75 10.9219 14.9531L11.918 13.957C11.7656 13.418 11.7891 12.8086 12.0352 12.1641L10.0312 14.1562C8.75392 15.4336 8.75392 17.2617 10.0312 18.5508ZM20.0391 8.5547C18.7617 7.26563 16.9336 7.26563 15.6445 8.54298L13.2773 10.9102C12 12.1875 12.0117 14.0156 13.2891 15.3047C13.6992 15.7266 14.1797 15.9492 14.4961 16.0547L15.1172 15.4453C15.3164 15.2109 15.3516 15.1523 15.457 14.9766C15.0117 14.9883 14.543 14.7891 14.168 14.4141C13.3711 13.6172 13.3594 12.5273 14.1797 11.7188L16.4414 9.44532C17.25 8.63673 18.3633 8.63673 19.1484 9.4336C19.9336 10.2422 19.9453 11.3555 19.1484 12.1523L18.1523 13.125C18.3047 13.6875 18.2812 14.2969 18.0352 14.9414L20.0391 12.9375C21.3164 11.6484 21.3047 9.83204 20.0391 8.5547Z" fill="black" fill-opacity="0.85"/>
</svg>
