<svg width="28" height="30" viewBox="0 0 28 30" fill="none" xmlns="http://www.w3.org/2000/svg">
<path d="M7.71094 28.7812C8.39062 28.7812 8.89453 28.2656 8.89453 27.6328V22.0195L12.1758 18.5273C12.2344 18.4688 12.3398 18.4688 12.3984 18.5391L15.5391 22.7461L18.2109 28.0547C18.9492 29.543 21.0352 28.4766 20.3203 27.0586L14.8359 16.0664C14.3438 15.082 14.0977 13.7578 13.9805 12.4102C13.9453 11.9766 14.2266 11.7656 14.6016 11.9531L16.7695 13.0547L18.7734 17.0625C19.4883 18.4805 21.6328 17.5195 20.8711 16.0078L18.6914 11.6602C18.5742 11.4258 18.3984 11.25 18.1641 11.1328L15.0469 9.57422C14.1211 9.10547 13.1719 8.92969 12.293 8.70703C11.2852 8.46094 10.3828 8.14453 9.77344 7.27734L8.35547 5.21484V1.16016C8.35547 0.527344 7.81641 0 7.17188 0C6.52734 0 6 0.527344 6 1.16016V5.58984C6 5.84766 6.05859 6.02344 6.21094 6.24609L8.69531 9.83203C8.91797 10.1602 9.05859 10.3711 9.10547 10.9219C9.19922 12.2227 9.48047 14.6367 10.0078 16.3828L6.77344 20.8711C6.62109 21.1055 6.5625 21.3281 6.5625 21.5508V27.6328C6.5625 28.2656 7.06641 28.7812 7.71094 28.7812ZM13.1016 7.44141C14.5078 7.44141 15.6445 6.30469 15.6445 4.875C15.6445 3.46875 14.5078 2.33203 13.1016 2.33203C11.6719 2.33203 10.5352 3.46875 10.5352 4.875C10.5352 6.30469 11.6719 7.44141 13.1016 7.44141Z" fill="black" fill-opacity="0.85"/>
</svg>
