<svg width="28" height="28" viewBox="0 0 28 28" fill="none" xmlns="http://www.w3.org/2000/svg">
<path d="M2 13.9531C2 15.9102 2.48047 17.75 3.34766 19.3906L5.375 17.3633C5.64453 17.0938 6.05469 17.0938 6.32422 17.3633C6.59375 17.6328 6.60547 18.043 6.32422 18.3242L4.05078 20.5977C4.34375 21.0078 4.63672 21.4062 4.97656 21.7695L21.7812 4.97656C21.4062 4.63672 20.9961 4.33203 20.5977 4.05078L18.3008 6.34766C18.0312 6.61719 17.6094 6.60547 17.3398 6.34766C17.0703 6.07812 17.0703 5.66797 17.3398 5.38672L19.3789 3.35938C17.75 2.48047 15.8984 2 13.9414 2C7.41406 2 2 7.41406 2 13.9531ZM16.5078 8.14062L14.9023 9.74609C14.6328 10.0156 14.2109 10.0039 13.9414 9.74609C13.6836 9.47656 13.6719 9.04297 13.9414 8.78516L15.5586 7.17969C15.8281 6.92188 16.25 6.91016 16.5078 7.17969C16.7773 7.44922 16.7773 7.87109 16.5078 8.14062ZM13.1211 11.5391L11.5039 13.1445C11.2461 13.4023 10.8242 13.4023 10.5547 13.1445C10.2852 12.875 10.2852 12.4531 10.5547 12.1836L12.1602 10.5781C12.4297 10.3086 12.8516 10.3086 13.1211 10.5781C13.3789 10.8359 13.3906 11.2812 13.1211 11.5391ZM9.72266 14.9258L8.12891 16.5312C7.84766 16.8008 7.4375 16.7891 7.16797 16.5312C6.89844 16.2617 6.89844 15.8516 7.16797 15.582L8.76172 13.9648C9.03125 13.6953 9.45312 13.707 9.72266 13.9648C9.98047 14.2344 10.0039 14.6562 9.72266 14.9258ZM13.9531 25.9062C20.4922 25.9062 25.9062 20.4805 25.9062 13.9531C25.9062 12.0078 25.4258 10.1562 24.5586 8.52734L22.5312 10.543C22.25 10.8242 21.8516 10.8125 21.582 10.543C21.3242 10.2734 21.3008 9.86328 21.582 9.58203L23.8555 7.32031C23.5742 6.91016 23.2812 6.51172 22.9414 6.14844L6.13672 22.9414C6.51172 23.2695 6.91016 23.5742 7.30859 23.8555L9.60547 21.5586C9.88672 21.2656 10.2969 21.2891 10.5664 21.5586C10.8359 21.8281 10.8477 22.2266 10.5664 22.5078L8.51562 24.5586C10.1562 25.4141 11.9961 25.9062 13.9531 25.9062ZM20.7383 12.3242L19.1445 13.9414C18.875 14.2109 18.4531 14.1992 18.1836 13.9414C17.9258 13.6602 17.9141 13.25 18.1836 12.9805L19.7891 11.375C20.0586 11.1055 20.4688 11.1055 20.7383 11.375C21.0195 11.6328 21.0078 12.0547 20.7383 12.3242ZM17.3516 15.7227L15.7461 17.3164C15.4766 17.5977 15.0547 17.5977 14.7852 17.3164C14.5273 17.0586 14.5156 16.625 14.7852 16.3555L16.4023 14.7617C16.6602 14.5039 17.0938 14.5039 17.3516 14.7617C17.6211 15.0312 17.6211 15.4414 17.3516 15.7227ZM13.9648 19.1094L12.3477 20.7148C12.0781 20.9727 11.668 20.9844 11.3984 20.7148C11.1289 20.4453 11.1289 20.0234 11.3984 19.7539L13.0039 18.1484C13.2734 17.8789 13.6953 17.9023 13.9648 18.1484C14.2227 18.4297 14.2344 18.8516 13.9648 19.1094Z" fill="black" fill-opacity="0.85"/>
</svg>
