<svg width="28" height="28" viewBox="0 0 28 28" fill="none" xmlns="http://www.w3.org/2000/svg">
<path d="M6.67969 24.5977H20.8945C23.3555 24.5977 24.5742 23.3789 24.5742 20.9648V6.65625C24.5742 4.24219 23.3555 3.02344 20.8945 3.02344H6.67969C4.23047 3.02344 3 4.23047 3 6.65625V20.9648C3 23.3906 4.23047 24.5977 6.67969 24.5977Z" fill="black" fill-opacity="0.85"/>
<path d="M8.69531 19.2539C8.22656 19.2539 7.89844 18.9375 7.89844 18.4688V9.375C7.89844 8.71875 8.22656 8.27344 8.82422 8.27344H10.7812C12.8203 8.27344 13.7812 9.38672 13.7812 11.332C13.7812 12.5977 13.2422 13.875 12.2227 14.2617L13.793 18.1641C14.0742 18.8672 13.5469 19.2539 13.0312 19.2539C12.7148 19.2539 12.4219 19.1133 12.293 18.7617L10.6875 14.5664C10.5937 14.5781 10.5234 14.5781 10.4414 14.5781H9.49219V18.4688C9.49219 18.9375 9.16406 19.2539 8.69531 19.2539ZM9.49219 13.3477H10.6172C11.6953 13.3477 12.1641 12.5391 12.1641 11.3906C12.1641 10.2539 11.6719 9.5625 10.6055 9.5625H9.49219V13.3477ZM17.7422 20.0742C17.4727 20.0742 17.2383 19.8398 17.2383 19.5586V18.7383C15.832 18.5742 14.9648 17.6836 14.7891 16.4297C14.6953 15.8086 15.0938 15.457 15.5039 15.457C15.832 15.457 16.1133 15.668 16.1602 16.0664C16.2305 16.793 16.5703 17.2852 17.2383 17.4141V14.3203L16.8281 14.1094C15.5508 13.4531 14.7891 12.6328 14.7891 11.3203C14.7891 9.90234 15.7969 8.91797 17.2383 8.76562V7.96875C17.2383 7.69922 17.4727 7.46484 17.7422 7.46484C18.0117 7.46484 18.2461 7.69922 18.2461 7.96875V8.77734C19.5586 8.97656 20.3555 9.87891 20.4961 11.0508C20.6016 11.7305 20.1914 12.0352 19.7695 12.0352C19.4414 12.0352 19.1367 11.8125 19.1016 11.4141C19.0547 10.793 18.7734 10.3008 18.2461 10.125V13.1367L18.6445 13.3594C20.0508 14.1211 20.6953 14.9414 20.6953 16.1016C20.6953 17.6016 19.7227 18.5742 18.2461 18.75V19.5586C18.2461 19.8398 18.0117 20.0742 17.7422 20.0742ZM17.2383 10.0781C16.6523 10.2188 16.2891 10.6406 16.2891 11.2617C16.2891 11.9063 16.7109 12.2813 17.1797 12.5625L17.2383 12.5977V10.0781ZM18.2461 17.4141C18.8672 17.2852 19.2188 16.8281 19.2188 16.207C19.2188 15.6445 18.8086 15.2109 18.293 14.8828L18.2461 14.8711V17.4141Z" fill="white"/>
</svg>
