<svg width="28" height="28" viewBox="0 0 28 28" fill="none" xmlns="http://www.w3.org/2000/svg">
<g clip-path="url(#clip0_2124_62605)">
<path d="M9.53906 11.3438V16.8164H7.18359C4.875 16.8164 3 18.6328 3 20.9531C3 23.2734 4.875 25.1484 7.18359 25.1484C9.49219 25.1484 11.3672 23.2734 11.3672 20.9531V18.6094H16.7695V20.9531C16.7695 23.2734 18.6445 25.1484 20.9531 25.1484C23.2617 25.1484 25.1367 23.2734 25.1367 20.9531C25.1367 18.6328 23.2617 16.8164 20.9531 16.8164H18.5977V11.3438H20.9531C23.2617 11.3438 25.1367 9.52734 25.1367 7.20703C25.1367 4.88672 23.2617 3 20.9531 3C18.6445 3 16.7695 4.88672 16.7695 7.20703V9.55078H11.3672V7.20703C11.3672 4.88672 9.49219 3 7.18359 3C4.875 3 3 4.88672 3 7.20703C3 9.52734 4.875 11.3438 7.18359 11.3438H9.53906ZM7.18359 9.57422C5.89453 9.57422 4.82812 8.50781 4.82812 7.20703C4.82812 5.90625 5.89453 4.82812 7.18359 4.82812C8.47266 4.82812 9.53906 5.90625 9.53906 7.20703V9.57422H7.18359ZM20.9531 9.57422H18.5977V7.20703C18.5977 5.90625 19.6641 4.82812 20.9531 4.82812C22.2422 4.82812 23.3086 5.90625 23.3086 7.20703C23.3086 8.50781 22.2422 9.57422 20.9531 9.57422ZM11.3672 16.8398V11.3203H16.7695V16.8398H11.3672ZM7.18359 18.5742H9.53906V20.9414C9.53906 22.2422 8.47266 23.3086 7.18359 23.3086C5.89453 23.3086 4.82812 22.2422 4.82812 20.9414C4.82812 19.6406 5.89453 18.5742 7.18359 18.5742ZM20.9531 18.5742C22.2422 18.5742 23.3086 19.6406 23.3086 20.9414C23.3086 22.2422 22.2422 23.3086 20.9531 23.3086C19.6641 23.3086 18.5977 22.2422 18.5977 20.9414V18.5742H20.9531Z" fill="black" fill-opacity="0.85"/>
</g>
<defs>
<clipPath id="clip0_2124_62605">
<rect width="22.1367" height="22.1602" fill="white" transform="translate(3 3)"/>
</clipPath>
</defs>
</svg>
