<svg width="28" height="28" viewBox="0 0 28 28" fill="none" xmlns="http://www.w3.org/2000/svg">
<path d="M13.9531 25.9062C20.4922 25.9062 25.9062 20.4805 25.9062 13.9531C25.9062 7.41406 20.4805 2 13.9414 2C7.41406 2 2 7.41406 2 13.9531C2 20.4805 7.42578 25.9062 13.9531 25.9062Z" fill="black" fill-opacity="0.85"/>
<path d="M14.0469 19.707C12.6289 19.707 11.3047 19.1914 10.5312 17.9023C10.0156 17.0938 9.72266 15.8867 9.72266 14.2227C9.72266 10.1914 11.4922 8.19922 14.3516 8.19922C15.9102 8.19922 17.2344 8.98438 17.6094 9.875C17.6797 10.0508 17.7148 10.2148 17.7148 10.4141C17.7148 10.8359 17.3984 11.1289 16.9883 11.1289C16.5781 11.1289 16.332 10.918 15.9453 10.5313C15.6055 10.1094 15.125 9.74609 14.293 9.74609C12.6289 9.74609 11.5039 11.3281 11.5039 13.8008C11.5039 13.8359 11.5039 13.8711 11.5039 13.9297C11.5273 13.9297 11.5742 13.9297 11.5977 13.9297C11.9844 13.0508 12.9336 12.2305 14.5508 12.2305C16.4609 12.2305 18.1953 13.5195 18.1953 15.8164C18.1953 18.2891 16.4844 19.707 14.0469 19.707ZM13.9648 18.2539C15.3828 18.2539 16.2969 17.3164 16.2969 15.8984C16.2969 14.5508 15.3477 13.6133 13.9766 13.6133C12.6172 13.6133 11.6562 14.5625 11.6562 15.8867C11.6562 17.2578 12.6289 18.2539 13.9648 18.2539Z" fill="white"/>
</svg>
