<svg width="28" height="31" viewBox="0 0 28 31" fill="none" xmlns="http://www.w3.org/2000/svg">
<g clip-path="url(#clip0_2124_24580)">
<path d="M5.67969 25.9688H22.5312C24.9805 25.9688 26.2109 24.75 26.2109 22.3477V6.96094C26.2109 4.53516 24.9805 3.32812 22.5312 3.32812H5.67969C3.21875 3.32812 2 4.53516 2 6.96094V22.3477C2 24.7617 3.21875 25.9688 5.67969 25.9688ZM12.7812 18.7266C12.2188 18.7266 11.832 18.1992 11.3867 17.5781C10.8477 16.8281 10.4375 15.668 10.4375 14.5664C10.4375 12.7852 11.5742 11.8594 12.7109 11.8594C13.3086 11.8594 13.8008 12.2578 14.1758 12.2578C14.5391 12.2578 15.0898 11.8359 15.7695 11.8359C16.0391 11.8359 16.9648 11.8594 17.5859 12.7383C17.5273 12.7734 16.6016 13.3125 16.6016 14.4844C16.6016 15.8203 17.7852 16.2891 17.8203 16.3125C17.7969 16.3477 17.6445 16.9688 17.1992 17.6016C16.8125 18.1523 16.4023 18.7266 15.7695 18.7266C15.1719 18.7266 14.9961 18.3633 14.2812 18.3633C13.6133 18.3633 13.3438 18.7266 12.7812 18.7266ZM14.2344 11.7656C14.1758 11.7656 14.1406 11.7422 14.1172 11.7188C14.1055 11.707 14.1055 11.6367 14.1055 11.5664C14.1055 11.0977 14.3047 10.6172 14.5742 10.3242C14.9258 9.94922 15.4648 9.66797 15.9219 9.64453C15.9453 9.69141 15.9453 9.75 15.9453 9.82031C15.9453 10.3008 15.7461 10.7578 15.4648 11.0977C15.1719 11.4727 14.6328 11.7656 14.2344 11.7656ZM5.15234 29.4492H9.42969C9.92188 29.4492 10.3086 29.0508 10.3086 28.5586C10.3086 28.0664 9.92188 27.668 9.42969 27.668H5.15234C4.67188 27.668 4.27344 28.0664 4.27344 28.5586C4.27344 29.0508 4.67188 29.4492 5.15234 29.4492ZM6.40625 28.5H8.17578V24.9727H6.40625V28.5ZM18.7812 29.4492H23.0586C23.5508 29.4492 23.9375 29.0508 23.9375 28.5586C23.9375 28.0664 23.5508 27.668 23.0586 27.668H18.7812C18.3008 27.668 17.9023 28.0664 17.9023 28.5586C17.9023 29.0508 18.3008 29.4492 18.7812 29.4492ZM20.0352 28.5H21.8047V24.9727H20.0352V28.5ZM6.40625 4.24219H8.17578V0.878906C8.17578 0.398438 7.78906 0 7.29688 0C6.80469 0 6.40625 0.398438 6.40625 0.878906V4.24219ZM20.0352 4.24219H21.8047V0.878906C21.8047 0.398438 21.418 0 20.9258 0C20.4219 0 20.0352 0.398438 20.0352 0.878906V4.24219Z" fill="black" fill-opacity="0.85"/>
</g>
<defs>
<clipPath id="clip0_2124_24580">
<rect width="24.2109" height="30.7852" fill="white" transform="translate(2)"/>
</clipPath>
</defs>
</svg>
