<svg width="28" height="28" viewBox="0 0 28 28" fill="none" xmlns="http://www.w3.org/2000/svg">
<g clip-path="url(#clip0_2124_67760)">
<path d="M3.81491 24.5159C6.29928 26.9885 9.81491 26.9651 12.5337 24.258L16.1079 20.6604L14.7837 19.3244L11.2094 22.9104C9.32272 24.7854 6.85006 25.0549 5.0571 23.2737C3.25241 21.4924 3.53366 19.008 5.42038 17.1213L9.00631 13.5354L7.67038 12.2229L4.07272 15.7971C1.36569 18.5159 1.34225 22.0315 3.81491 24.5159ZM24.5102 3.82054C22.0258 1.34788 18.5102 1.3596 15.8032 4.06663L12.2173 7.66429L13.5415 9.01195L17.1274 5.42601C19.0024 3.53929 21.4751 3.28148 23.268 5.05101C25.0727 6.83226 24.7915 9.32835 22.9048 11.2034L19.3188 14.7893L20.6665 16.1135L24.2524 12.5276C26.9712 9.82054 26.9829 6.30491 24.5102 3.82054ZM20.6782 12.0119L16.3071 7.65257C14.936 6.28148 13.6235 6.24632 12.2173 7.66429L7.67038 12.2229C6.24069 13.6291 6.28756 14.9416 7.64694 16.3127L12.018 20.6838C13.3891 22.0432 14.7016 22.0901 16.1079 20.6604L20.6665 16.1135C22.0844 14.6955 22.0493 13.3948 20.6782 12.0119ZM15.229 9.07054L19.2602 13.1018C19.9282 13.7698 19.8579 14.2619 19.1548 14.9534L14.9477 19.1604C14.2563 19.8635 13.7641 19.9338 13.0962 19.2659L9.06491 15.2346C8.39694 14.5666 8.46725 14.0627 9.17038 13.3713L13.3774 9.17601C14.0688 8.47288 14.561 8.40257 15.229 9.07054Z" fill="black" fill-opacity="0.85"/>
<path d="M14.1503 12.8557C14.7246 12.8557 15.1464 12.4104 15.1464 11.8713C15.1699 11.3323 14.7128 10.8752 14.1621 10.8752C13.6113 10.8752 13.1777 11.3323 13.1777 11.8948C13.1777 12.3987 13.6347 12.8557 14.1503 12.8557ZM11.9004 15.1526C12.4394 15.1526 12.873 14.6838 12.873 14.1799C12.873 13.6174 12.4394 13.1721 11.8887 13.1721C11.3262 13.1721 10.8926 13.6174 10.8926 14.1682C10.8926 14.7073 11.3262 15.1526 11.9004 15.1526ZM16.4355 15.1526C16.9863 15.1526 17.4433 14.6955 17.4316 14.1565C17.4316 13.6174 16.998 13.1721 16.4238 13.1721C15.9082 13.1721 15.4511 13.6291 15.4511 14.133C15.4511 14.6955 15.8964 15.1526 16.4355 15.1526ZM14.1621 17.4377C14.7128 17.4377 15.1464 16.9924 15.1464 16.4299C15.1464 15.926 14.7128 15.4573 14.1738 15.4573C13.5996 15.4573 13.166 15.9026 13.166 16.4416C13.166 16.9924 13.5996 17.4377 14.1621 17.4377Z" fill="black" fill-opacity="0.85"/>
</g>
<defs>
<clipPath id="clip0_2124_67760">
<rect width="24.3294" height="24.4419" fill="white" transform="translate(2 2)"/>
</clipPath>
</defs>
</svg>
