<svg width="29" height="28" viewBox="0 0 29 28" fill="none" xmlns="http://www.w3.org/2000/svg">
<path d="M4.25391 24.5977H24.5391C27 24.5977 28.2188 23.3789 28.2188 20.9648V17.5078C28.2188 16.8984 27.8789 16.5586 27.2695 16.5586C26.6602 16.5586 26.332 16.8984 26.332 17.5078V20.8711C26.332 22.0898 25.6641 22.7109 24.5156 22.7109H4.28906C3.11719 22.7109 2.47266 22.0898 2.47266 20.8711V17.5078C2.47266 16.8984 2.12109 16.5586 1.52344 16.5586C0.925781 16.5586 0.585938 16.8984 0.585938 17.5078V20.9648C0.585938 23.3906 1.81641 24.5977 4.25391 24.5977ZM4.25391 3.02344C1.81641 3.02344 0.585938 4.23047 0.585938 6.65625V9.52734C0.585938 10.1367 0.925781 10.4883 1.52344 10.4883C2.12109 10.4883 2.47266 10.1367 2.47266 9.52734V6.75C2.47266 5.53125 3.11719 4.91016 4.28906 4.91016H24.5156C25.6641 4.91016 26.332 5.53125 26.332 6.75V9.52734C26.332 10.1367 26.6719 10.4883 27.2695 10.4883C27.8906 10.4883 28.2188 10.1367 28.2188 9.52734V6.65625C28.2188 4.24219 27 3.02344 24.5391 3.02344H4.25391ZM1.52344 15.0352C2.36719 15.0352 3.04688 14.3438 3.04688 13.5C3.04688 12.668 2.36719 11.9883 1.52344 11.9883C0.691406 11.9883 0 12.668 0 13.5C0 14.3438 0.691406 15.0352 1.52344 15.0352ZM27.2695 15.0352C28.1016 15.0352 28.793 14.3438 28.793 13.5C28.793 12.668 28.1016 11.9883 27.2695 11.9883C26.4258 11.9883 25.7461 12.6562 25.7461 13.5C25.7461 14.3438 26.4258 15.0352 27.2695 15.0352Z" fill="black" fill-opacity="0.85"/>
<path d="M10.5586 19.3125C10.9805 19.3125 11.2734 19.1133 11.4492 18.5625L12.3047 16.0664H16.5L17.3555 18.5625C17.5312 19.1016 17.8359 19.3125 18.2578 19.3125C18.7734 19.3125 19.125 18.9727 19.125 18.5039C19.125 18.3164 19.0898 18.1523 18.9961 17.8945L15.7148 9.04688C15.4805 8.4375 15.0352 8.12109 14.3906 8.12109C13.7578 8.12109 13.3242 8.4375 13.1016 9.04688L9.80859 17.8945C9.72656 18.1523 9.67969 18.3164 9.67969 18.4922C9.67969 18.9844 10.0312 19.3125 10.5586 19.3125ZM12.7852 14.6602L14.3438 10.125H14.4727L16.0312 14.6602H12.7852Z" fill="black" fill-opacity="0.85"/>
</svg>
