<svg width="28" height="28" viewBox="0 0 28 28" fill="none" xmlns="http://www.w3.org/2000/svg">
<path d="M13.9531 25.9062C20.4922 25.9062 25.9062 20.4805 25.9062 13.9531C25.9062 7.41406 20.4805 2 13.9414 2C7.41406 2 2 7.41406 2 13.9531C2 20.4805 7.42578 25.9062 13.9531 25.9062ZM13.9531 23.9141C8.42188 23.9141 4.00391 19.4844 4.00391 13.9531C4.00391 8.42188 8.41016 3.99219 13.9414 3.99219C19.4727 3.99219 23.9141 8.42188 23.9141 13.9531C23.9141 19.4844 19.4844 23.9141 13.9531 23.9141Z" fill="black" fill-opacity="0.85"/>
<path d="M11.0937 10.7891H19.8828C20.2812 10.7891 20.5977 10.4844 20.5977 10.0859C20.5977 9.67579 20.2812 9.37109 19.8828 9.37109H11.0937C10.6953 9.37109 10.3906 9.68751 10.3906 10.0859C10.3906 10.4727 10.707 10.7891 11.0937 10.7891ZM11.0937 18.5469H19.8828C20.2812 18.5469 20.5977 18.2422 20.5977 17.8438C20.5977 17.4336 20.2812 17.1289 19.8828 17.1289H11.0937C10.707 17.1289 10.3906 17.457 10.3906 17.8438C10.3906 18.2422 10.6953 18.5469 11.0937 18.5469ZM11.0937 14.668H19.8828C20.2812 14.668 20.5977 14.3633 20.5977 13.9648C20.5977 13.5547 20.2812 13.25 19.8828 13.25H11.0937C10.707 13.25 10.3906 13.5781 10.3906 13.9648C10.3906 14.3516 10.707 14.668 11.0937 14.668ZM8.26953 11.0938C8.82031 11.0938 9.27734 10.625 9.27734 10.0859C9.27734 9.52345 8.83203 9.07812 8.26953 9.07812C7.70703 9.07812 7.26172 9.52345 7.26172 10.0859C7.26172 10.6367 7.70703 11.0938 8.26953 11.0938ZM8.26953 14.9727C8.82031 14.9727 9.27734 14.5039 9.27734 13.9648C9.27734 13.4141 8.82031 12.957 8.26953 12.957C7.70703 12.957 7.26172 13.4023 7.26172 13.9648C7.26172 14.5156 7.70703 14.9727 8.26953 14.9727ZM8.26953 18.8516C8.83203 18.8516 9.27734 18.3945 9.27734 17.8438C9.27734 17.293 8.82031 16.8359 8.26953 16.8359C7.70703 16.8359 7.26172 17.2812 7.26172 17.8438C7.26172 18.3945 7.70703 18.8516 8.26953 18.8516Z" fill="black" fill-opacity="0.85"/>
</svg>
