<svg width="28" height="28" viewBox="0 0 28 28" fill="none" xmlns="http://www.w3.org/2000/svg">
<path d="M6.67969 24.5977H20.8945C23.3555 24.5977 24.5742 23.3789 24.5742 20.9648V6.65625C24.5742 4.24219 23.3555 3.02344 20.8945 3.02344H6.67969C4.23047 3.02344 3 4.23047 3 6.65625V20.9648C3 23.3906 4.23047 24.5977 6.67969 24.5977ZM6.70312 22.7109C5.53125 22.7109 4.88672 22.0898 4.88672 20.8711V6.75C4.88672 5.53125 5.53125 4.91016 6.70312 4.91016H20.8711C22.0312 4.91016 22.6875 5.53125 22.6875 6.75V20.8711C22.6875 22.0898 22.0312 22.7109 20.8711 22.7109H6.70312Z" fill="black" fill-opacity="0.85"/>
<path d="M9.02344 13.8984C9.02344 15.9492 9.66797 17.543 10.793 18.5156L10.3594 20.2148C10.3359 20.3086 10.3242 20.3906 10.3242 20.4727C10.3242 20.8242 10.5469 21.0586 10.8867 21.0586C11.1797 21.0586 11.4023 20.918 11.4727 20.6016L11.8359 19.1602C12.1641 19.3008 12.5039 19.4062 12.8672 19.4648L12.6797 20.2266C12.6562 20.3203 12.6445 20.3906 12.6445 20.4727C12.6445 20.8242 12.8555 21.0586 13.207 21.0586C13.5 21.0586 13.7227 20.918 13.793 20.6016L14.0742 19.5352C15.9609 19.4414 17.332 18.457 17.8477 16.9922C17.918 16.8047 17.9648 16.5938 17.9648 16.3945C17.9648 15.9727 17.6836 15.6562 17.2383 15.6562C16.8398 15.6562 16.6055 15.9375 16.4883 16.2891C16.2305 17.2148 15.4688 17.9062 14.4375 18.0586L16.207 11.1328C16.3125 11.2383 16.4062 11.4141 16.4648 11.625C16.582 11.9062 16.7578 12.1875 17.168 12.1875C17.6016 12.1875 17.8828 11.9062 17.8828 11.4609C17.8828 11.2734 17.8359 11.0742 17.7656 10.8867C17.543 10.2656 17.1562 9.72656 16.6641 9.30469L17.0391 7.80469C17.0742 7.71094 17.0859 7.62891 17.0859 7.54688C17.0859 7.20703 16.8633 6.97266 16.5234 6.97266C16.2305 6.97266 16.0078 7.11328 15.9258 7.42969L15.6094 8.66016C15.293 8.51953 14.9531 8.42578 14.5898 8.35547L14.7305 7.80469C14.7539 7.72266 14.7656 7.62891 14.7656 7.54688C14.7656 7.20703 14.543 6.97266 14.2031 6.97266C13.9102 6.97266 13.6875 7.11328 13.6055 7.42969L13.3828 8.30859C10.7344 8.49609 9.02344 10.6406 9.02344 13.8984ZM10.5937 13.8984C10.5937 11.7187 11.4961 10.1953 12.9961 9.82031L11.2617 16.6523C10.8281 15.9492 10.5937 15.0234 10.5937 13.8984ZM12.1992 17.707L14.2383 9.75C14.6016 9.79688 14.9414 9.92578 15.2461 10.1016L13.2188 18.0938C12.832 18.0352 12.5039 17.9062 12.1992 17.707Z" fill="black" fill-opacity="0.85"/>
</svg>
