<svg width="29" height="28" viewBox="0 0 29 28" fill="none" xmlns="http://www.w3.org/2000/svg">
<g clip-path="url(#clip0_2124_24598)">
<path d="M23.0391 16.9375C22.2188 16.9492 21.5039 16.2227 21.5039 15.3906C21.5039 14.5469 22.2188 13.832 23.0391 13.832C23.8711 13.832 24.5742 14.5469 24.5742 15.3906C24.5742 16.2227 23.8711 16.9141 23.0391 16.9375ZM3.67969 20.8281H25.0195C27.4688 20.8281 28.6992 19.6094 28.6992 17.1953V10.6211C28.6992 8.21875 27.4688 7 25.0195 7H3.67969C1.21875 7 0 8.20703 0 10.6211V17.1953C0 19.6211 1.21875 20.8281 3.67969 20.8281Z" fill="black" fill-opacity="0.85"/>
</g>
<defs>
<clipPath id="clip0_2124_24598">
<rect width="28.6992" height="13.957" fill="white" transform="translate(0 7)"/>
</clipPath>
</defs>
</svg>
