<svg width="28" height="28" viewBox="0 0 28 28" fill="none" xmlns="http://www.w3.org/2000/svg">
<path d="M8.64453 18.3194C9.13672 18.2022 9.41797 17.7335 9.27734 17.2413L8.29297 13.3389C8.1875 12.9522 8.02344 12.6827 7.71875 12.5069C7.41406 12.3194 7.10938 12.3077 6.71094 12.4249L2.85547 13.5147C2.33984 13.6553 2.08203 14.1358 2.22266 14.6046C2.35156 15.0968 2.83203 15.3897 3.32422 15.2257L6.73438 14.2178L7.55469 17.6749C7.66016 18.1788 8.16406 18.4483 8.64453 18.3194ZM5.23438 24.8702H11.5156C12.0664 24.8702 12.4766 24.4835 12.4766 23.9561C12.4766 23.4288 12.0664 23.0303 11.5156 23.0303H5.24609C4.4375 23.0303 3.89844 22.3624 3.89844 21.6358C3.89844 21.4249 3.93359 21.1671 4.0625 20.9444L8.12891 13.6671L6.53516 12.7296L2.43359 20.0421C2.15234 20.5577 2 21.1085 2 21.6358C2 23.4522 3.24219 24.8702 5.23438 24.8702ZM19.6953 12.4483L21.2891 11.5225L17.0352 3.91711C16.4375 2.83899 15.3477 2.28821 14.2578 2.28821C13.1562 2.28821 12.0781 2.85071 11.4688 3.91711L8.23438 9.69446C7.92969 10.2218 8.09375 10.7257 8.55078 10.9952C9.01953 11.253 9.57031 11.0889 9.83984 10.6202L13.0742 4.81946C13.3438 4.35071 13.8008 4.15149 14.2578 4.15149C14.7148 4.15149 15.1602 4.35071 15.418 4.81946L19.6953 12.4483ZM19.8594 12.7296C20.2578 12.835 20.5625 12.835 20.8672 12.6475C21.1719 12.46 21.3359 12.2139 21.4414 11.8155L22.4141 7.91321C22.5547 7.42102 22.2852 6.95227 21.793 6.83508C21.3125 6.70618 20.8086 6.97571 20.7031 7.47961L19.8828 10.9366L16.4609 9.92883C15.9805 9.77649 15.5 10.0577 15.3594 10.5499C15.2305 11.0186 15.4883 11.4991 15.9922 11.6397L19.8594 12.7296ZM14.9727 24.8702H23.2695C25.2617 24.8702 26.5039 23.4522 26.5039 21.6358C26.5039 21.1085 26.3633 20.5694 26.0703 20.0421L22.9648 14.4991C22.6953 13.9952 22.1445 13.878 21.6992 14.1475C21.2422 14.4171 21.0898 14.9678 21.3477 15.4366L24.4297 20.9444C24.5586 21.1671 24.6172 21.4249 24.6172 21.6358C24.6172 22.3624 24.0547 23.0303 23.2461 23.0303H14.9727V24.8702ZM17.5039 27.6593C17.8672 28.0343 18.418 28.0108 18.7578 27.6593C19.1211 27.3194 19.1211 26.7569 18.7461 26.3936L16.168 23.9561L18.7461 21.5186C19.1211 21.1553 19.1211 20.5928 18.7578 20.253C18.418 19.8897 17.8672 19.878 17.5039 20.253L14.6211 23.0421C14.3281 23.3233 14.1992 23.6046 14.1992 23.9561C14.1992 24.3077 14.3281 24.5772 14.6211 24.8585L17.5039 27.6593Z" fill="black" fill-opacity="0.85"/>
</svg>
