<svg width="28" height="28" viewBox="0 0 28 28" fill="none" xmlns="http://www.w3.org/2000/svg">
<path d="M13.9297 24.6602C14.5391 24.6602 14.9727 24.2266 14.9727 23.6172V11.7812L14.8906 9.27344L18.418 13.1289L21.043 15.7188C21.2305 15.9062 21.5117 16.0117 21.793 16.0117C22.3789 16.0117 22.8125 15.5664 22.8125 14.9805C22.8125 14.6992 22.6953 14.4414 22.4609 14.1953L14.7148 6.4375C14.4922 6.20312 14.2109 6.07422 13.9297 6.07422C13.6367 6.07422 13.3672 6.20312 13.1445 6.4375L5.38672 14.1953C5.16406 14.4414 5.04688 14.6992 5.04688 14.9805C5.04688 15.5664 5.46875 16.0117 6.06641 16.0117C6.34766 16.0117 6.61719 15.9062 6.81641 15.7188L9.44141 13.1289L12.9688 9.26172L12.875 11.7812V23.6172C12.875 24.2266 13.3086 24.6602 13.9297 24.6602ZM6.00781 6.09766H21.8164C22.4258 6.09766 22.8477 5.66406 22.8477 5.05469C22.8477 4.44531 22.4258 4 21.8164 4H6.00781C5.41016 4 5 4.44531 5 5.05469C5 5.66406 5.41016 6.09766 6.00781 6.09766Z" fill="black" fill-opacity="0.85"/>
</svg>
