<svg width="34" height="28" viewBox="0 0 34 28" fill="none" xmlns="http://www.w3.org/2000/svg">
<path d="M0 14.4258C0 18.1406 1.20703 21.5508 3.24609 24.3281C3.60938 24.832 4.23047 24.8789 4.69922 24.5039C5.12109 24.1406 5.17969 23.5781 4.83984 23.1094C3.05859 20.6836 2.00391 17.6719 2.00391 14.4258C2.00391 11.168 3.05859 8.16799 4.83984 5.71877C5.17969 5.27346 5.13281 4.69924 4.69922 4.33596C4.23047 3.96096 3.60938 4.01955 3.24609 4.51174C1.20703 7.28908 0 10.711 0 14.4258ZM33.4453 14.4258C33.4453 10.711 32.25 7.28908 30.1992 4.51174C29.8359 4.01955 29.2148 3.96096 28.7461 4.33596C28.3125 4.69924 28.2773 5.27346 28.6055 5.71877C30.3984 8.16799 31.4414 11.168 31.4414 14.4258C31.4414 17.6719 30.3984 20.6836 28.6055 23.1094C28.2773 23.5781 28.3242 24.1406 28.7461 24.5039C29.2148 24.8789 29.8359 24.832 30.1992 24.3281C32.25 21.5508 33.4453 18.1406 33.4453 14.4258Z" fill="black" fill-opacity="0.85"/>
<path d="M16.7227 25.8516C22.9688 25.8516 28.1602 20.6719 28.1602 14.4258C28.1602 8.17969 22.9688 3 16.7109 3C10.4648 3 5.29688 8.16797 5.29688 14.4258C5.29688 20.6719 10.4766 25.8516 16.7227 25.8516ZM16.7227 23.8594C11.4961 23.8594 7.30078 19.6641 7.30078 14.4258C7.30078 9.17578 11.4844 4.98047 16.7109 4.98047C21.9492 4.98047 26.1562 9.17578 26.168 14.4258C26.1797 19.6523 21.9727 23.8594 16.7227 23.8594Z" fill="black" fill-opacity="0.85"/>
<path d="M13.0078 19.793C13.6172 19.793 13.957 19.4062 13.957 18.75V14.8828H19.4414V18.75C19.4414 19.3945 19.793 19.793 20.3672 19.793C20.9766 19.793 21.3164 19.4062 21.3164 18.75V9.87891C21.3164 9.22266 20.9766 8.83594 20.3672 8.83594C19.793 8.83594 19.4414 9.23438 19.4414 9.87891V13.418H13.957V9.87891C13.957 9.22266 13.6172 8.83594 13.0078 8.83594C12.4336 8.83594 12.0938 9.23438 12.0938 9.87891V18.75C12.0938 19.3945 12.4336 19.793 13.0078 19.793Z" fill="black" fill-opacity="0.85"/>
</svg>
