<svg width="34" height="28" viewBox="0 0 34 28" fill="none" xmlns="http://www.w3.org/2000/svg">
<path d="M16.9958 21.0312C19.3044 21.0312 21.9997 21.7344 24.0036 22.7773C24.5426 23.0703 25.1403 22.9531 25.4919 22.4961L33.4723 12.3359C34.2575 11.3281 34.1286 10.2617 33.1325 9.47656C29.863 6.95703 23.5934 5 16.9958 5C10.3981 5 4.12858 6.95703 0.847332 9.47656C-0.148761 10.2617 -0.277668 11.3281 0.519207 12.3359L8.49968 22.4961C8.85124 22.9531 9.43718 23.0703 9.97624 22.7773C11.9801 21.7344 14.6872 21.0312 16.9958 21.0312ZM16.9958 19.1445C14.8512 19.1445 12.3786 19.707 9.98796 20.6914C9.69499 20.8086 9.56608 20.7852 9.33171 20.4922L2.39421 11.6562C2.17155 11.3633 2.20671 11.082 2.52311 10.8711C6.55436 8.32812 11.7223 6.88672 16.9958 6.88672C22.2692 6.88672 27.4372 8.32812 31.4684 10.8711C31.7848 11.082 31.82 11.3633 31.5856 11.6562L24.6598 20.4922C24.4255 20.7852 24.2966 20.8086 24.0036 20.6914C21.613 19.707 19.1286 19.1445 16.9958 19.1445Z" fill="black" fill-opacity="0.85"/>
<path d="M15.3203 17.75H18.6601C19.0586 17.75 19.3868 17.4336 19.3868 17.0234C19.3868 16.6367 19.0703 16.332 18.6601 16.332H17.7695V12.2891C17.7695 11.7969 17.5 11.4336 17.0078 11.4336H15.4609C15.0625 11.4336 14.7345 11.7266 14.7345 12.125C14.7345 12.5469 15.0625 12.8516 15.4609 12.8516H16.1993V16.332H15.3203C14.9219 16.332 14.5938 16.625 14.5938 17.0234C14.5938 17.4453 14.9219 17.75 15.3203 17.75ZM16.6914 10.332C17.3594 10.332 17.8868 9.78125 17.8868 9.125C17.8868 8.45703 17.3476 7.91797 16.6914 7.91797C16.0234 7.91797 15.4726 8.45703 15.4726 9.125C15.4726 9.78125 16.0234 10.332 16.6914 10.332Z" fill="black" fill-opacity="0.85"/>
</svg>
