<svg width="28" height="28" viewBox="0 0 28 28" fill="none" xmlns="http://www.w3.org/2000/svg">
<g clip-path="url(#clip0_2124_24658)">
<path d="M6 23.7617C6 25.5898 7.27734 26.8086 9.1875 26.8086H17.8711C19.7812 26.8086 21.0586 25.5898 21.0586 23.7617V5.04688C21.0586 3.21875 19.7812 2 17.8711 2H9.1875C7.27734 2 6 3.21875 6 5.04688V23.7617ZM7.88672 23.457V5.35156C7.88672 4.41406 8.4375 3.88672 9.43359 3.88672H17.6367C18.6211 3.88672 19.1719 4.41406 19.1719 5.35156V23.457C19.1719 24.3945 18.6211 24.9219 17.6367 24.9219H9.43359C8.4375 24.9219 7.88672 24.3945 7.88672 23.457Z" fill="black" fill-opacity="0.85"/>
<path d="M11.5547 18.3828H15.5273C16.1602 18.3828 16.4766 18.0547 16.4766 17.3867V14.3398C16.4766 13.8125 16.2773 13.5078 15.8906 13.3789V12.582C15.8906 11 14.9414 9.92188 13.5352 9.92188C12.1289 9.92188 11.1797 11 11.1797 12.582V13.3906C10.793 13.5078 10.5938 13.8125 10.5938 14.3398V17.3867C10.5938 18.0547 10.9102 18.3828 11.5547 18.3828ZM12.3398 13.332V12.4766C12.3398 11.6094 12.8086 11.0469 13.5352 11.0469C14.25 11.0469 14.7305 11.6094 14.7305 12.4766V13.332H12.3398Z" fill="black" fill-opacity="0.85"/>
</g>
<defs>
<clipPath id="clip0_2124_24658">
<rect width="15.0586" height="24.832" fill="white" transform="translate(6 2)"/>
</clipPath>
</defs>
</svg>
