<svg width="28" height="32" viewBox="0 0 28 32" fill="none" xmlns="http://www.w3.org/2000/svg">
<path d="M13.8867 8.64844C15.2695 8.64844 16.3945 7.52344 16.3945 6.11719C16.3945 4.72266 15.2695 3.60938 13.8867 3.60938C12.4805 3.60938 11.3555 4.72266 11.3555 6.11719C11.3555 7.52344 12.4805 8.64844 13.8867 8.64844ZM12.1875 31.8633C12.7969 31.8633 13.3242 31.3359 13.3242 30.7266V24.5859L13.8867 20.0273L14.4375 24.5859V30.7266C14.4375 31.3359 14.9648 31.8633 15.5742 31.8633C16.1953 31.8633 16.7109 31.3359 16.7109 30.7266V14.3789C16.7109 14.2383 16.8984 14.2148 16.957 14.332C18.3867 16.9805 19.2305 19.3477 19.5703 20.3789C19.7812 20.9531 20.4258 21.2812 21.0117 21.082C21.4805 20.9297 21.7734 20.4844 21.7734 20.0156C21.7734 19.8984 21.75 19.7695 21.7148 19.6523C21.6445 19.4062 19.6758 13.5586 17.2383 10.793C16.7227 10.207 15.9609 9.85547 15.1406 9.85547H12.6211C11.8008 9.85547 11.0391 10.207 10.5352 10.793C8.08594 13.5586 6.12891 19.4062 6.05859 19.6523C6.01172 19.7695 6 19.9102 6 20.0273C6 20.4844 6.29297 20.9297 6.76172 21.082C7.34766 21.2812 7.98047 20.9531 8.19141 20.3789C8.54297 19.3477 9.375 16.9805 10.8164 14.332C10.875 14.2148 11.0625 14.2383 11.0625 14.3789V30.7266C11.0625 31.3359 11.5781 31.8633 12.1875 31.8633ZM13.8867 1.30078C18.0938 1.30078 20.4727 5.17969 20.4727 11.8711V20.0273H21.7734V11.8711C21.7734 4.33594 18.9375 0 13.8867 0C8.84766 0 6.01172 4.33594 6.01172 11.8711V20.0391H7.3125V11.8711C7.3125 5.17969 9.67969 1.30078 13.8867 1.30078Z" fill="black" fill-opacity="0.85"/>
</svg>
