<svg width="28" height="28" viewBox="0 0 28 28" fill="none" xmlns="http://www.w3.org/2000/svg">
<path d="M6.67969 24.5977H20.8945C23.3555 24.5977 24.5742 23.3789 24.5742 20.9648V6.65625C24.5742 4.24219 23.3555 3.02344 20.8945 3.02344H6.67969C4.23047 3.02344 3 4.23047 3 6.65625V20.9648C3 23.3906 4.23047 24.5977 6.67969 24.5977Z" fill="black" fill-opacity="0.85"/>
<path d="M9.82031 18.9258C7.41797 18.9258 6.69141 16.2305 6.69141 13.793C6.69141 11.3555 7.41797 8.66016 9.82031 8.66016C12.2227 8.66016 12.9492 11.3555 12.9492 13.793C12.9492 16.2305 12.2227 18.9258 9.82031 18.9258ZM9.82031 17.4844C10.8047 17.4844 11.1797 15.8906 11.1797 13.793C11.1797 11.6836 10.8047 10.1016 9.82031 10.1016C8.83594 10.1016 8.46094 11.6836 8.46094 13.793C8.46094 15.8906 8.83594 17.4844 9.82031 17.4844ZM17.5547 18.9258C15.0938 18.9258 14.3555 16.1953 14.3555 13.9102C14.3555 11.4609 15.082 8.68359 17.5664 8.68359C18.7734 8.68359 19.8281 9.32812 20.0742 10.3711C20.1211 10.5234 20.1445 10.6758 20.1445 10.8047C20.1445 11.2031 19.9336 11.5312 19.4297 11.5312C19.043 11.5312 18.8203 11.3672 18.6445 10.9922C18.4453 10.4883 18.0703 10.1016 17.5312 10.1016C16.1836 10.1016 16.0195 12.5273 16.0195 13.8633C16.0195 13.8984 16.0195 13.9453 16.0195 13.9922H16.0664C16.3477 12.9609 17.0859 12.3047 18.0586 12.3047C19.6641 12.3047 20.4492 13.8516 20.4492 15.4805C20.4492 17.3789 19.3945 18.9258 17.5547 18.9258ZM17.5312 17.5078C18.3516 17.5078 18.75 16.4414 18.75 15.5625C18.7734 14.6719 18.4102 13.6289 17.5195 13.6289C16.6523 13.6289 16.2539 14.625 16.2539 15.5156C16.2539 16.3711 16.6055 17.5078 17.5312 17.5078Z" fill="white"/>
</svg>
