<svg width="28" height="28" viewBox="0 0 28 28" fill="none" xmlns="http://www.w3.org/2000/svg">
<g clip-path="url(#clip0_2124_88679)">
<path d="M6.67969 24.5977H20.8945C23.3555 24.5977 24.5742 23.3789 24.5742 20.9648V6.65625C24.5742 4.24219 23.3555 3.02344 20.8945 3.02344H6.67969C4.23047 3.02344 3 4.23047 3 6.65625V20.9648C3 23.3906 4.23047 24.5977 6.67969 24.5977ZM6.70312 22.7109C5.53125 22.7109 4.88672 22.0898 4.88672 20.8711V6.75C4.88672 5.53125 5.53125 4.91016 6.70312 4.91016H20.8711C22.0312 4.91016 22.6875 5.53125 22.6875 6.75V20.8711C22.6875 22.0898 22.0312 22.7109 20.8711 22.7109H6.70312Z" fill="black" fill-opacity="0.85"/>
<path d="M8.64844 18.0234H18.9727C19.5703 18.0234 19.9219 17.707 19.9219 17.25C19.9219 16.5938 19.2773 16.0195 18.7031 15.4336C18.2578 14.9766 18.1758 14.0508 18.1289 13.3125C18.082 10.8164 17.4023 9.10547 15.6914 8.47266C15.4336 7.64062 14.7539 6.96094 13.8047 6.96094C12.8555 6.96094 12.1875 7.64062 11.918 8.47266C10.207 9.10547 9.53906 10.8164 9.49219 13.3125C9.44531 14.0508 9.33984 14.9766 8.90625 15.4336C8.35547 16.0312 7.6875 16.5938 7.6875 17.25C7.6875 17.707 8.03906 18.0234 8.64844 18.0234ZM13.8047 20.7305C14.9062 20.7305 15.7148 19.9453 15.7969 18.9961H11.8242C11.9062 19.9453 12.7031 20.7305 13.8047 20.7305Z" fill="black" fill-opacity="0.85"/>
</g>
<defs>
<clipPath id="clip0_2124_88679">
<rect width="21.5742" height="21.5977" fill="white" transform="translate(3 3)"/>
</clipPath>
</defs>
</svg>
