<svg width="28" height="28" viewBox="0 0 28 28" fill="none" xmlns="http://www.w3.org/2000/svg">
<path d="M13.9531 25.9062C20.4922 25.9062 25.9062 20.4805 25.9062 13.9531C25.9062 7.41406 20.4805 2 13.9414 2C7.41406 2 2 7.41406 2 13.9531C2 20.4805 7.42578 25.9062 13.9531 25.9062ZM13.9531 23.9141C8.42188 23.9141 4.00391 19.4844 4.00391 13.9531C4.00391 8.42188 8.41016 3.99219 13.9414 3.99219C19.4727 3.99219 23.9141 8.42188 23.9141 13.9531C23.9141 19.4844 19.4844 23.9141 13.9531 23.9141Z" fill="black" fill-opacity="0.85"/>
<path d="M10.7656 18.8164C11.2227 18.8164 11.6094 18.4297 11.6094 17.9609V10.0156C11.6094 9.41797 11.2344 9.06641 10.625 9.06641C10.1445 9.06641 9.74609 9.33594 9.46484 9.54688L8.17578 10.543C7.96484 10.707 7.8125 10.9297 7.8125 11.2344C7.8125 11.5977 8.05859 11.8555 8.41016 11.8555C8.59766 11.8555 8.70312 11.7969 8.82031 11.7148L9.89844 10.8477V17.9609C9.89844 18.4297 10.2852 18.8164 10.7656 18.8164ZM16.4727 18.8984C18.3359 18.8984 19.5195 17.7383 19.5195 16.1328C19.5195 14.8555 18.7109 13.9297 17.7734 13.7188V13.6836C18.5586 13.4375 19.2617 12.6758 19.2617 11.5625C19.2617 10.0508 18.1367 9.01953 16.4727 9.01953C15.0312 9.01953 13.7188 9.91016 13.7188 11.5508C13.7188 12.7461 14.457 13.4492 15.2188 13.6836V13.7188C14.2109 13.9414 13.4492 14.8672 13.4492 16.1328C13.4492 17.8672 14.7617 18.8984 16.4727 18.8984ZM16.4844 13.1445C15.7344 13.1445 15.3477 12.418 15.3477 11.7266C15.3477 10.9766 15.7578 10.2734 16.4844 10.2734C17.2461 10.2734 17.6094 10.9766 17.6094 11.7266C17.6094 12.5 17.2227 13.1445 16.4844 13.1445ZM16.4844 17.6328C15.6289 17.6328 15.207 16.8711 15.207 16.0039C15.207 15.1602 15.6289 14.4102 16.4844 14.4102C17.3164 14.4102 17.7617 15.1133 17.7617 16.0039C17.7617 16.8711 17.3398 17.6328 16.4844 17.6328Z" fill="black" fill-opacity="0.85"/>
</svg>
