<svg width="28" height="28" viewBox="0 0 28 28" fill="none" xmlns="http://www.w3.org/2000/svg">
<path d="M6.67969 24.5977H20.8945C23.3555 24.5977 24.5742 23.3789 24.5742 20.9648V6.65625C24.5742 4.24219 23.3555 3.02344 20.8945 3.02344H6.67969C4.23047 3.02344 3 4.23047 3 6.65625V20.9648C3 23.3906 4.23047 24.5977 6.67969 24.5977ZM6.70312 22.7109C5.53125 22.7109 4.88672 22.0898 4.88672 20.8711V6.75C4.88672 5.53125 5.53125 4.91016 6.70312 4.91016H20.8711C22.0312 4.91016 22.6875 5.53125 22.6875 6.75V20.8711C22.6875 22.0898 22.0312 22.7109 20.8711 22.7109H6.70312Z" fill="black" fill-opacity="0.85"/>
<path d="M10.4648 18.6562C10.9219 18.6562 11.3086 18.2695 11.3086 17.8008V9.85547C11.3086 9.25781 10.9336 8.90625 10.3242 8.90625C9.83203 8.90625 9.43359 9.17578 9.16406 9.38672L7.875 10.3828C7.66406 10.5469 7.5 10.7695 7.5 11.0742C7.5 11.4375 7.74609 11.6953 8.09766 11.6953C8.28516 11.6953 8.40234 11.6367 8.51953 11.5547L9.59766 10.6875V17.8008C9.59766 18.2695 9.98438 18.6562 10.4648 18.6562ZM16.2773 18.7734C18.0586 18.7734 19.0898 17.2734 19.0898 15.4336C19.0898 13.8516 18.3281 12.3516 16.7695 12.3516C15.8203 12.3516 15.1055 12.9844 14.8359 13.9922H14.7891C14.7891 13.9453 14.7891 13.8984 14.7891 13.8633C14.7891 12.5625 14.9531 10.207 16.2539 10.207C16.793 10.207 17.1445 10.582 17.3438 11.0742C17.5078 11.4375 17.7305 11.6016 18.1172 11.6016C18.5859 11.6016 18.7852 11.2852 18.7852 10.8984C18.7852 10.7695 18.7734 10.6289 18.7266 10.4766C18.4805 9.46875 17.4727 8.83594 16.2891 8.83594C13.8867 8.83594 13.1953 11.5312 13.1953 13.9102C13.1953 16.125 13.8984 18.7734 16.2773 18.7734ZM16.2539 17.4023C15.375 17.4023 15.0117 16.3008 15.0117 15.457C15.0117 14.6016 15.4102 13.6289 16.2539 13.6289C17.1211 13.6289 17.4844 14.6367 17.4609 15.5039C17.4609 16.3594 17.0742 17.4023 16.2539 17.4023Z" fill="black" fill-opacity="0.85"/>
</svg>
