<svg width="28" height="28" viewBox="0 0 28 28" fill="none" xmlns="http://www.w3.org/2000/svg">
<path d="M13.9531 25.9062C20.4922 25.9062 25.9062 20.4805 25.9062 13.9531C25.9062 7.41406 20.4805 2 13.9414 2C7.41406 2 2 7.41406 2 13.9531C2 20.4805 7.42578 25.9062 13.9531 25.9062Z" fill="black" fill-opacity="0.85"/>
<path d="M11.8203 18.9922C11.4336 18.9922 10.9766 18.7695 10.9766 18.125V16.9297H8.28125C7.68359 16.9297 7.28516 16.5312 7.28516 15.9453C7.28516 15.5703 7.35547 15.2539 7.55469 14.7852L9.69922 10.0977C10.0391 9.34766 10.4492 8.91406 11.293 8.91406C12.1016 8.91406 12.6406 9.38281 12.6406 10.2266V15.5234H13.0742C13.5664 15.5234 13.7656 15.8281 13.7656 16.2148C13.7656 16.625 13.543 16.9297 13.0742 16.9297H12.6406V18.125C12.6406 18.7109 12.2656 18.9922 11.8203 18.9922ZM11.0117 15.5586V10.4375H10.9648L8.77344 15.4766V15.5586H11.0117ZM16.4492 19.0039C15.875 19.0039 15.6523 18.6055 15.6523 18.2539C15.6523 17.9609 15.6992 17.8086 15.793 17.5391L18.4766 10.6133V10.5078H15.3711C14.9609 10.5078 14.668 10.2031 14.668 9.78125C14.668 9.37109 14.9609 9.06641 15.3711 9.06641H19.2734C19.8125 9.06641 20.2461 9.44141 20.2461 10.0039C20.2461 10.3555 20.1523 10.6484 20.0234 11.0234L17.2695 18.3828C17.0938 18.8281 16.9062 19.0039 16.4492 19.0039Z" fill="white"/>
</svg>
