<svg width="28" height="28" viewBox="0 0 28 28" fill="none" xmlns="http://www.w3.org/2000/svg">
<path d="M5.11328 24.1172C5.74609 24.1172 6.23828 23.625 6.23828 23.0039V18.5156L7.82031 16.9922L12.8711 23.6602C13.3633 24.3164 14.0547 24.3164 14.5117 23.9883C14.957 23.6602 15.1445 23.0156 14.6406 22.3594L9.46094 15.5391L14.2539 10.6289C14.793 10.0781 14.7109 9.49219 14.3594 9.14062C13.9844 8.75391 13.3047 8.66016 12.7773 9.21094L6.34375 15.9727H6.23828V4.11328C6.23828 3.49219 5.74609 3 5.11328 3C4.49219 3 4 3.49219 4 4.11328V23.0039C4 23.625 4.49219 24.1172 5.11328 24.1172ZM18.9648 24.1289C19.5859 24.1289 20.0898 23.625 20.0898 23.0039V14.9062C20.0898 12.8789 20.9688 11.0273 23.1836 11.0273C23.6875 11.0273 24.0508 11.0391 24.3789 10.9219C24.7305 10.7812 24.9766 10.5 24.9766 9.99609C24.9766 9.41016 24.6953 9.09375 24.2852 8.94141C24.0039 8.82422 23.6992 8.78906 23.3711 8.78906C21.9062 8.78906 20.5 9.86719 20.0781 11.707H19.9844V9.86719C19.9844 9.26953 19.4922 8.78906 18.9062 8.78906C18.3203 8.78906 17.8398 9.26953 17.8398 9.86719V23.0039C17.8398 23.625 18.332 24.1289 18.9648 24.1289Z" fill="black" fill-opacity="0.85"/>
</svg>
