<svg width="28" height="28" viewBox="0 0 28 28" fill="none" xmlns="http://www.w3.org/2000/svg">
<path d="M15.9531 24.3984C19.668 24.3984 22.8438 22.793 24.0156 19.5234C24.1328 19.2188 24.1797 18.9023 24.1797 18.6562C24.1797 18.0469 23.793 17.6484 23.1836 17.6484C22.6445 17.6484 22.3047 17.9531 22.0586 18.5859C21.1445 21.1523 18.8359 22.3242 15.9648 22.3242C11.8047 22.3242 8.83984 18.9609 8.83984 13.6641C8.83984 8.44922 11.8047 5.08594 15.9531 5.08594C18.8125 5.08594 21.1094 6.60938 22.0352 9.16406C22.2695 9.78516 22.6328 10.1016 23.1836 10.1016C23.7812 10.1016 24.1914 9.69141 24.1914 9.08203C24.1914 8.83594 24.1445 8.51953 24.0156 8.21484C22.8906 5.09766 19.9727 3 15.9531 3C10.4102 3 6.56641 7.17188 6.56641 13.6641C6.56641 20.2266 10.3867 24.3984 15.9531 24.3984ZM4.75 12.3633H17.418C17.8633 12.3633 18.1797 12.0234 18.1797 11.6016C18.1797 11.1445 17.8633 10.8281 17.418 10.8281H4.75C4.31641 10.8281 4 11.1445 4 11.6016C4 12.0234 4.32812 12.3633 4.75 12.3633ZM4.75 16.5703H17.418C17.8633 16.5703 18.1797 16.2305 18.1797 15.8086C18.1797 15.3516 17.8633 15.0352 17.418 15.0352H4.75C4.32812 15.0352 4 15.3516 4 15.8086C4 16.2305 4.31641 16.5703 4.75 16.5703Z" fill="black" fill-opacity="0.85"/>
</svg>
