<svg width="28" height="28" viewBox="0 0 28 28" fill="none" xmlns="http://www.w3.org/2000/svg">
<path d="M13.9531 25.9062C20.4922 25.9062 25.9062 20.4805 25.9062 13.9531C25.9062 7.41406 20.4805 2 13.9414 2C7.41406 2 2 7.41406 2 13.9531C2 20.4805 7.42578 25.9062 13.9531 25.9062ZM13.9531 23.9141C8.42188 23.9141 4.00391 19.4844 4.00391 13.9531C4.00391 8.42188 8.41016 3.99219 13.9414 3.99219C19.4727 3.99219 23.9141 8.42188 23.9141 13.9531C23.9141 19.4844 19.4844 23.9141 13.9531 23.9141Z" fill="black" fill-opacity="0.85"/>
<path d="M13.9531 16.7773C15.043 16.7773 15.8164 15.9922 15.8164 14.9141C15.8164 14.7031 15.7578 14.3281 15.7227 14.1055L14.4922 7.29688C14.4336 6.96875 14.1992 6.80469 13.9531 6.80469C13.707 6.80469 13.4727 6.96875 13.4141 7.29688L12.1836 14.1055C12.1484 14.3281 12.0898 14.7031 12.0898 14.9141C12.0898 15.9922 12.875 16.7773 13.9531 16.7773ZM9.20703 19.6719C9.75781 19.6719 10.2148 19.2148 10.2148 18.6641C10.2148 18.1133 9.75781 17.6562 9.20703 17.6562C8.65625 17.6562 8.19922 18.1133 8.19922 18.6641C8.19922 19.2148 8.65625 19.6719 9.20703 19.6719ZM7.22656 14.9609C7.77734 14.9609 8.23438 14.5039 8.23438 13.9531C8.23438 13.4023 7.77734 12.9453 7.22656 12.9453C6.67578 12.9453 6.21875 13.4023 6.21875 13.9531C6.21875 14.5039 6.67578 14.9609 7.22656 14.9609ZM9.20703 10.25C9.75781 10.25 10.2148 9.79297 10.2148 9.24219C10.2148 8.67969 9.75781 8.23438 9.20703 8.23438C8.65625 8.23438 8.19922 8.67969 8.19922 9.24219C8.19922 9.79297 8.65625 10.25 9.20703 10.25ZM18.6992 10.25C19.25 10.25 19.707 9.79297 19.707 9.24219C19.707 8.67969 19.25 8.23438 18.6992 8.23438C18.1484 8.23438 17.6914 8.67969 17.6914 9.24219C17.6914 9.79297 18.1484 10.25 18.6992 10.25ZM20.6797 14.9609C21.2305 14.9609 21.6875 14.5039 21.6875 13.9531C21.6875 13.4023 21.2305 12.9453 20.6797 12.9453C20.1289 12.9453 19.6719 13.4023 19.6719 13.9531C19.6719 14.5039 20.1289 14.9609 20.6797 14.9609ZM18.6992 19.6719C19.25 19.6719 19.707 19.2148 19.707 18.6641C19.707 18.1133 19.25 17.6562 18.6992 17.6562C18.1484 17.6562 17.6914 18.1133 17.6914 18.6641C17.6914 19.2148 18.1484 19.6719 18.6992 19.6719Z" fill="black" fill-opacity="0.85"/>
</svg>
