<svg width="29" height="28" viewBox="0 0 29 28" fill="none" xmlns="http://www.w3.org/2000/svg">
<g clip-path="url(#clip0_2124_50134)">
<path d="M0.9375 26.8672C1.46484 26.8672 1.88672 26.4453 1.88672 25.9297V4.50781C1.88672 4.13281 2.13281 3.88672 2.48438 3.88672H26.168C26.5195 3.88672 26.7656 4.13281 26.7656 4.50781V25.9297C26.7656 26.4453 27.1875 26.8672 27.7031 26.8672C28.2305 26.8672 28.6523 26.4453 28.6523 25.9297V4.39062C28.6523 2.96094 27.668 2 26.1914 2H2.44922C0.984375 2 0 2.96094 0 4.39062V25.9297C0 26.4453 0.421875 26.8672 0.9375 26.8672Z" fill="black" fill-opacity="0.85"/>
<path d="M3.25781 25.9883C3.25781 26.2109 3.44531 26.4219 3.66797 26.375L10.957 24.7461C11.1797 24.6992 11.3672 24.5469 11.3672 24.3125V6.91017C11.3672 6.68751 11.1914 6.53517 10.9688 6.48829L3.65625 4.84767C3.44531 4.81251 3.25781 5.01173 3.25781 5.2461V25.9883ZM9.375 19.2852C9.53906 19.2734 9.65625 19.3672 9.65625 19.543V23.1289C9.65625 23.3047 9.55078 23.3867 9.39844 23.4219L5.26172 24.2422C5.10938 24.2773 4.99219 24.1953 4.99219 24.0078V19.8711C4.99219 19.6953 5.10938 19.5898 5.26172 19.5781L9.375 19.2852ZM4.99219 17.8203V13.4141C4.99219 13.2266 5.10938 13.1328 5.26172 13.1445L9.38672 13.3672C9.55078 13.3789 9.65625 13.4844 9.65625 13.6602V17.5742C9.65625 17.75 9.53906 17.8438 9.38672 17.8555L5.26172 18.0898C5.09766 18.1016 4.99219 17.9961 4.99219 17.8203ZM9.38672 11.9492L5.25 11.6445C5.09766 11.6328 4.99219 11.5625 4.99219 11.375V7.21485C4.99219 7.02735 5.10938 6.94532 5.26172 6.98048L9.38672 7.76563C9.53906 7.78907 9.65625 7.8711 9.65625 8.0586V11.6563C9.65625 11.832 9.55078 11.961 9.38672 11.9492ZM25.3945 25.9883V5.2461C25.3945 5.01173 25.207 4.81251 24.9961 4.84767L17.6836 6.48829C17.4609 6.53517 17.2852 6.68751 17.2852 6.91017V24.3125C17.2852 24.5469 17.4609 24.6992 17.6953 24.7461L24.9844 26.375C25.207 26.4219 25.3945 26.2109 25.3945 25.9883ZM19.2773 19.2852L23.3789 19.5781C23.543 19.5898 23.6602 19.6953 23.6602 19.8711V24.0078C23.6602 24.1953 23.543 24.2773 23.3906 24.2422L19.2539 23.4219C19.1016 23.3867 18.9961 23.3047 18.9961 23.1289V19.543C18.9961 19.3672 19.1133 19.2734 19.2773 19.2852ZM23.6602 17.8203C23.6602 17.9961 23.5547 18.1016 23.3906 18.0898L19.2656 17.8555C19.1016 17.8438 18.9961 17.75 18.9961 17.5742V13.6602C18.9961 13.4844 19.1016 13.3789 19.2656 13.3672L23.3906 13.1445C23.543 13.1328 23.6602 13.2266 23.6602 13.4141V17.8203ZM19.2656 11.9492C19.1016 11.961 18.9961 11.832 18.9961 11.6563V8.0586C18.9961 7.8711 19.1133 7.78907 19.2656 7.76563L23.3906 6.98048C23.5312 6.94532 23.6602 7.02735 23.6602 7.21485V11.375C23.6602 11.5625 23.5547 11.6328 23.4023 11.6445L19.2656 11.9492Z" fill="black" fill-opacity="0.85"/>
</g>
<defs>
<clipPath id="clip0_2124_50134">
<rect width="28.6523" height="24.8789" fill="white" transform="translate(0 2)"/>
</clipPath>
</defs>
</svg>
