<svg width="29" height="29" viewBox="0 0 29 29" fill="none" xmlns="http://www.w3.org/2000/svg">
<g clip-path="url(#clip0_2124_46024)">
<path d="M13.9765 25.9287C20.5156 25.9287 25.9296 20.503 25.9296 13.9756C25.9296 7.43652 20.5039 2.02246 13.9648 2.02246C7.4375 2.02246 2.02344 7.43652 2.02344 13.9756C2.02344 20.503 7.44922 25.9287 13.9765 25.9287ZM13.9765 23.9366C8.44532 23.9366 4.02735 19.5069 4.02735 13.9756C4.02735 8.44434 8.4336 4.01465 13.9648 4.01465C19.4961 4.01465 23.9375 8.44434 23.9375 13.9756C23.9375 19.5069 19.5078 23.9366 13.9765 23.9366Z" fill="black" fill-opacity="0.85"/>
<path d="M7.26172 15.8623C7.26172 17.7608 8.41016 19.3311 9.98047 19.3311H11.1289C9.96875 18.4991 9.47656 17.2452 9.5 15.8037C9.52344 14.21 10.1328 13.0967 10.6719 12.4053H9.75782C8.32813 12.4053 7.26172 13.9287 7.26172 15.8623ZM10.3437 15.8155C10.3086 18.1358 12.1718 19.8936 15.125 19.9053L15.9922 19.917C16.8007 19.9287 17.4101 19.8702 17.75 19.7881C18.2539 19.6475 18.7461 19.3663 18.7461 18.7569C18.7461 18.5342 18.6757 18.3233 18.6054 18.2061C18.5586 18.1241 18.5586 18.0537 18.6406 18.0186C19.0156 17.878 19.3554 17.4913 19.3554 16.9991C19.3554 16.7061 19.2734 16.4483 19.1211 16.2842C19.0507 16.1905 19.0625 16.085 19.1679 16.0264C19.4726 15.8506 19.6601 15.5108 19.6601 15.0889C19.6601 14.8077 19.5781 14.4795 19.4023 14.3272C19.3086 14.2334 19.3203 14.1866 19.4375 14.0928C19.625 13.917 19.7422 13.6241 19.7422 13.2842C19.7422 12.6514 19.2734 12.1475 18.6523 12.1475H16.4257C15.8398 12.1475 15.4765 11.8662 15.4765 11.3857C15.4765 10.542 16.5312 8.9834 16.5312 7.87012C16.5312 7.28418 16.1445 6.94434 15.6523 6.94434C15.1953 6.94434 14.9726 7.24902 14.7382 7.72949C13.789 9.55762 12.5234 11.0459 11.5742 12.335C10.7656 13.4014 10.3672 14.3272 10.3437 15.8155Z" fill="black" fill-opacity="0.85"/>
</g>
<defs>
<clipPath id="clip0_2124_46024">
<rect width="23.9062" height="23.918" fill="white" transform="translate(2.02344 2.02246)"/>
</clipPath>
</defs>
</svg>
