<svg width="28" height="28" viewBox="0 0 28 28" fill="none" xmlns="http://www.w3.org/2000/svg">
<path d="M6.67969 24.5977H20.8945C23.3555 24.5977 24.5742 23.3789 24.5742 20.9648V6.65625C24.5742 4.24219 23.3555 3.02344 20.8945 3.02344H6.67969C4.23047 3.02344 3 4.23047 3 6.65625V20.9648C3 23.3906 4.23047 24.5977 6.67969 24.5977Z" fill="black" fill-opacity="0.85"/>
<path d="M11.028 19.7812C10.653 19.4062 10.653 18.8203 11.0163 18.4805L15.985 13.8047L11.0163 9.14061C10.6413 8.78905 10.653 8.1914 11.0397 7.83983C11.3796 7.49999 11.9421 7.53515 12.3171 7.88671L17.3444 12.6094C18.0358 13.2539 18.0358 14.3672 17.3444 15L12.3171 19.7344C11.9772 20.0625 11.3444 20.0859 11.028 19.7812Z" fill="white"/>
</svg>
