<svg width="28" height="32" viewBox="0 0 28 32" fill="none" xmlns="http://www.w3.org/2000/svg">
<path d="M22.7891 18.1002C22.7891 13.2135 20.8672 6.44006 16.0508 1.38928C15.0195 0.311151 13.4844 -0.42713 11.6914 0.275995L10.5547 0.721307C8.43359 1.55334 7.82422 3.00646 8.69141 5.01037C10.543 9.19396 11 12.2291 11 14.8424C11 15.9088 10.4609 16.5533 9.34766 16.5533H6.46484C5.62109 16.5533 5 17.1979 5 18.0885V20.901C5 21.6979 5.53906 22.3072 6.27734 22.3072H8.45703C9.20703 22.3072 9.64062 22.694 9.64062 23.3268C9.64062 23.8658 9.34766 24.4987 9.34766 25.319C9.34766 27.1471 10.3438 28.483 12.4297 29.4908L14.7617 30.6158C16.7656 31.5885 18.7109 31.0377 19.8477 29.1862C21.9102 25.7994 22.7891 22.4127 22.7891 18.1002Z" fill="black" fill-opacity="0.85"/>
</svg>
