<svg width="43" height="28" viewBox="0 0 43 28" fill="none" xmlns="http://www.w3.org/2000/svg">
<path d="M31.7463 8.63724C31.9924 9.07083 32.5783 9.22318 33.0236 8.96537L40.3479 4.74662C40.7932 4.50052 40.9572 3.91459 40.6877 3.45755C40.4416 3.02396 39.844 2.87162 39.4104 3.11771L32.0744 7.33646C31.6408 7.58255 31.4768 8.18021 31.7463 8.63724ZM31.9455 13.9341C31.9455 14.4497 32.3674 14.8716 32.883 14.8716H41.3322C41.8479 14.8716 42.2814 14.4497 42.2814 13.9341C42.2814 13.4185 41.8479 12.9849 41.3322 12.9849H32.883C32.3674 12.9849 31.9455 13.4185 31.9455 13.9341ZM31.7463 19.231C31.4768 19.688 31.6408 20.2622 32.0744 20.5318L39.4104 24.7505C39.844 25.0083 40.4416 24.8443 40.6877 24.4107C40.9572 23.9536 40.7932 23.3794 40.3479 23.1099L33.0236 18.8911C32.5783 18.6333 31.9924 18.7974 31.7463 19.231Z" fill="black" fill-opacity="0.85"/>
<path d="M0.9375 17.6724H11.332C12.6445 17.6724 14.1094 17.8833 15.5977 18.3169C18.6914 19.2076 21.6094 21.0591 24.4102 23.9302C26.0742 25.7232 28.6875 24.8091 28.6875 22.3365V5.53175C28.6875 3.05909 26.0742 2.14503 24.4102 3.938C20.2969 8.20363 15.5156 10.1958 11.332 10.1958H0.9375V12.0825H11.332C15.9961 12.0825 21.2461 9.90285 25.6992 5.3091C26.3203 4.67628 26.8008 4.80519 26.8008 5.53175V22.3365C26.8008 23.063 26.3203 23.1802 25.6992 22.5474C21.2461 17.9654 15.9961 15.7857 11.332 15.7857H0.9375V17.6724ZM0.9375 19.0552C1.46484 19.0552 1.88672 18.6216 1.88672 18.106V9.73878C1.88672 9.22316 1.46484 8.80128 0.9375 8.80128C0.421875 8.80128 0 9.22316 0 9.73878V18.106C0 18.6216 0.421875 19.0552 0.9375 19.0552ZM3.26953 19.5005C3.26953 21.399 4.82812 22.9458 6.72656 22.9458H13.3711C15.2695 22.9458 16.8281 21.399 16.8281 19.5005C16.8281 17.6021 15.2695 16.0435 13.3711 16.0435H6.72656C4.82812 16.0435 3.26953 17.6021 3.26953 19.5005ZM5.15625 19.5005C5.15625 18.6451 5.87109 17.9302 6.72656 17.9302H13.3711C14.2266 17.9302 14.9414 18.6451 14.9414 19.5005C14.9414 20.356 14.2266 21.0474 13.3711 21.0474H6.72656C5.87109 21.0474 5.15625 20.356 5.15625 19.5005Z" fill="black" fill-opacity="0.85"/>
</svg>
