<svg width="44" height="28" viewBox="0 0 44 28" fill="none" xmlns="http://www.w3.org/2000/svg">
<path d="M34.9219 9.25391L36.293 10.3555L39.5039 7.07422C39.7734 6.79297 40.1016 6.6875 40.4766 6.6875H42.2578C42.7969 6.6875 43.1367 6.34766 43.1367 5.84375C43.1367 5.33984 42.7969 5 42.2578 5H40.6758C39.6797 5 38.8125 5.28125 38.1445 5.97266L34.9219 9.25391ZM3.05859 21.3945H4.88672C4.81641 21.043 4.75781 20.6797 4.75781 20.293C4.75781 17.7734 6.75 15.793 9.25781 15.793C11.7773 15.793 13.7578 17.7734 13.7578 20.293C13.7578 20.6797 13.7109 21.043 13.6289 21.3945H28.5586C28.4883 21.043 28.4297 20.6797 28.4297 20.293C28.4297 17.7734 30.4219 15.793 32.9297 15.793C35.4492 15.793 37.4297 17.7734 37.4297 20.293C37.4297 20.6797 37.3828 21.043 37.3008 21.3945H38.8477C40.5352 21.3945 41.5664 20.3281 41.5664 18.5938V13.8828C41.5664 12.2422 41.0742 10.8477 38.8945 10.168L36.4805 9.42969C34.957 7.61328 32.2969 5.02344 27.457 5.02344H24.7031C19.875 5.02344 17.9531 5.49219 15.0703 7.29688L10.3477 10.2617L5.14453 10.8945C1.91016 11.293 0 13.1562 0 15.9453V18.2656C0 20.2578 1.11328 21.3945 3.05859 21.3945ZM9.25781 23.4219C11.0156 23.4219 12.3984 22.0391 12.3984 20.293C12.3984 18.5469 11.0039 17.1523 9.25781 17.1523C7.52344 17.1523 6.12891 18.5469 6.12891 20.293C6.12891 22.0273 7.52344 23.4219 9.25781 23.4219ZM32.9297 23.4219C34.6758 23.4219 36.0703 22.0273 36.0703 20.293C36.0703 18.5469 34.6758 17.1523 32.9297 17.1523C31.207 17.1523 29.8008 18.5586 29.8008 20.293C29.8008 22.0273 31.1953 23.4219 32.9297 23.4219Z" fill="black" fill-opacity="0.85"/>
</svg>
