<svg width="28" height="28" viewBox="0 0 28 28" fill="none" xmlns="http://www.w3.org/2000/svg">
<path d="M6.67969 24.5977H20.8945C23.3555 24.5977 24.5742 23.3789 24.5742 20.9648V6.65625C24.5742 4.24219 23.3555 3.02344 20.8945 3.02344H6.67969C4.23047 3.02344 3 4.23047 3 6.65625V20.9648C3 23.3906 4.23047 24.5977 6.67969 24.5977Z" fill="black" fill-opacity="0.85"/>
<path d="M9.93749 18.9258C7.51171 18.9258 6.79688 16.2305 6.79688 13.793C6.79688 11.3555 7.51171 8.66016 9.93749 8.66016C12.3398 8.66016 13.0547 11.3555 13.0547 13.793C13.0547 16.2305 12.3398 18.9258 9.93749 18.9258ZM9.93749 17.4844C10.9219 17.4844 11.2969 15.8906 11.2969 13.793C11.2969 11.6836 10.9219 10.1016 9.93749 10.1016C8.95311 10.1016 8.57812 11.6836 8.57812 13.793C8.57812 15.8906 8.95311 17.4844 9.93749 17.4844ZM18.9023 18.832C18.5156 18.832 18.0703 18.6094 18.0703 17.9766V16.7695H15.3633C14.7773 16.7695 14.3672 16.3711 14.3672 15.7852C14.3672 15.4102 14.4492 15.0938 14.6367 14.625L16.793 9.9375C17.1328 9.1875 17.5312 8.75391 18.3984 8.75391C19.1836 8.75391 19.7344 9.22266 19.7344 10.0664V15.3633H20.168C20.6484 15.3633 20.8594 15.668 20.8594 16.0547C20.8594 16.4648 20.6367 16.7695 20.168 16.7695H19.7344V17.9766C19.7344 18.5508 19.3711 18.832 18.9023 18.832ZM18.1055 15.3984V10.2773H18.0586L15.8672 15.3164V15.3984H18.1055Z" fill="white"/>
</svg>
