<svg width="30" height="28" viewBox="0 0 30 28" fill="none" xmlns="http://www.w3.org/2000/svg">
<g clip-path="url(#clip0_2124_24794)">
<path d="M0 13.7812C0 17.7305 1.875 21.3984 5.76562 23.2734C7.61719 24.1758 9.99609 24.5742 13.2891 24.5742H16.7109C20.0039 24.5742 22.3828 24.1758 24.2344 23.2734C28.125 21.3984 30 17.7305 30 13.7812C30 10.2539 28.1016 6.59766 24.2344 4.73438C22.3828 3.83203 20.0039 3.43359 16.7109 3.43359H13.2891C9.99609 3.43359 7.61719 3.83203 5.76562 4.73438C1.88672 6.59766 0 10.2539 0 13.7812ZM1.88672 13.7812C1.88672 9.98438 4.47656 6.72656 8.47266 5.77734C9.75 5.47266 11.3203 5.32031 13.2891 5.32031H16.7109C19.7812 5.32031 21.8555 5.67188 23.4141 6.43359C26.3203 7.83984 28.1133 10.6406 28.1133 13.7812C28.1133 18.6445 24.8672 22.125 19.582 22.5469C18.7266 22.6406 17.7773 22.6875 16.7109 22.6875H13.2891C10.2188 22.6875 8.14453 22.3359 6.58594 21.5742C3.59766 20.1328 1.88672 17.3086 1.88672 13.7812ZM2.16797 9.50391H27.8438V8.32031H2.16797V9.50391ZM15.0117 17.8711C16.3242 17.8711 17.4023 16.8047 17.4023 15.5391C17.4023 14.2031 16.3008 13.1133 15.0117 13.1133C14.5312 13.1133 14.1094 13.2422 13.7109 13.5352V11.6367L12.6328 12.1055V15.5391C12.6328 16.8398 13.6641 17.8711 15.0117 17.8711ZM15.0117 16.8047C14.2969 16.8047 13.7109 16.2188 13.7109 15.5391C13.7109 14.8242 14.3086 14.2266 15.0117 14.2266C15.7148 14.2266 16.3008 14.8359 16.3008 15.5391C16.3008 16.2188 15.7148 16.8047 15.0117 16.8047Z" fill="black" fill-opacity="0.85"/>
</g>
<defs>
<clipPath id="clip0_2124_24794">
<rect width="30" height="21.5742" fill="white" transform="translate(0 3)"/>
</clipPath>
</defs>
</svg>
