<svg width="28" height="28" viewBox="0 0 28 28" fill="none" xmlns="http://www.w3.org/2000/svg">
<g clip-path="url(#clip0_2124_24620)">
<path d="M13.9531 25.918C20.4922 25.918 25.9062 20.5039 25.9062 13.9648C25.9062 7.4375 20.4805 2.01172 13.9414 2.01172C7.41406 2.01172 2 7.4375 2 13.9648C2 20.5039 7.42578 25.918 13.9531 25.918Z" fill="black" fill-opacity="0.85"/>
<path d="M7.00392 17.5508C6.85157 17.7734 6.53516 17.7734 6.30078 17.5391C5.42188 16.5898 4.95312 15.3125 4.95312 13.9648C4.95312 12.6289 5.42188 11.3516 6.30078 10.3906C6.53516 10.1562 6.85157 10.1562 7.00392 10.3789C7.1797 10.5781 7.13281 10.8242 6.93359 11.0586C6.21876 11.8555 5.84376 12.8633 5.84376 13.9648C5.84376 15.0664 6.21876 16.0742 6.93359 16.8711C7.13281 17.1055 7.1797 17.3633 7.00392 17.5508ZM20.9375 17.5508C20.7617 17.3633 20.8086 17.1055 21.0195 16.8711C21.7227 16.0742 22.1094 15.0664 22.1094 13.9648C22.1094 12.8633 21.7227 11.8555 21.0195 11.0586C20.8086 10.8242 20.7617 10.5781 20.9375 10.3789C21.1016 10.1562 21.418 10.1562 21.6406 10.3906C22.5195 11.3516 23 12.6289 23 13.9648C23 15.3125 22.5195 16.5898 21.6406 17.5391C21.418 17.7734 21.1016 17.7734 20.9375 17.5508Z" fill="white"/>
<path d="M8.75 16.0625C8.5625 16.2852 8.23438 16.2852 8.03516 16.0391C7.57812 15.4648 7.30859 14.75 7.30859 13.9648C7.30859 13.1914 7.57812 12.4648 8.03516 11.9023C8.23438 11.6562 8.5625 11.6445 8.75 11.8672C8.91406 12.0664 8.85547 12.3008 8.67969 12.5469C8.375 12.9102 8.22266 13.4258 8.22266 13.9648C8.22266 14.5039 8.375 14.9961 8.67969 15.3828C8.85547 15.6289 8.91406 15.8633 8.75 16.0625ZM19.1914 16.0625C19.0273 15.8633 19.0859 15.6289 19.2617 15.3828C19.5664 14.9961 19.7305 14.5039 19.7305 13.9648C19.7305 13.4258 19.5664 12.9102 19.2617 12.5469C19.0859 12.3008 19.0273 12.0664 19.1914 11.8672C19.3789 11.6445 19.7188 11.6562 19.9062 11.9023C20.3633 12.4648 20.6445 13.1914 20.6445 13.9648C20.6445 14.75 20.3633 15.4648 19.9062 16.0391C19.7188 16.2852 19.3789 16.2852 19.1914 16.0625Z" fill="white"/>
<path d="M9.76953 19.168V8.77344C9.76953 7.74219 10.4844 7.05078 11.5625 7.05078H16.3672C17.4453 7.05078 18.1602 7.74219 18.1602 8.77344V19.168C18.1602 20.1992 17.4453 20.8906 16.3672 20.8906H11.5625C10.4844 20.8906 9.76953 20.1992 9.76953 19.168ZM10.8594 18.6523H17.0703V9.28906H10.8594V18.6523ZM13.9766 20.2109C14.2812 20.2109 14.5039 19.9531 14.5039 19.6484C14.5039 19.3555 14.2812 19.1094 13.9766 19.1094C13.6719 19.1094 13.4258 19.3555 13.4258 19.6484C13.4258 19.9531 13.6719 20.2109 13.9766 20.2109ZM12.7227 8.22266C12.7227 8.375 12.8398 8.46875 12.9688 8.46875H14.9609C15.1016 8.46875 15.207 8.375 15.207 8.22266C15.207 8.05859 15.1016 7.95312 14.9609 7.95312H12.9688C12.8398 7.95312 12.7227 8.05859 12.7227 8.22266Z" fill="white"/>
</g>
<defs>
<clipPath id="clip0_2124_24620">
<rect width="23.9062" height="23.918" fill="white" transform="translate(2 2)"/>
</clipPath>
</defs>
</svg>
