<svg width="28" height="28" viewBox="0 0 28 28" fill="none" xmlns="http://www.w3.org/2000/svg">
<g clip-path="url(#clip0_2124_67790)">
<path d="M13.9531 25.9062C20.4922 25.9062 25.9062 20.4805 25.9062 13.9531C25.9062 7.41406 20.4805 2 13.9414 2C7.41406 2 2 7.41406 2 13.9531C2 20.4805 7.42578 25.9062 13.9531 25.9062ZM13.9531 23.9141C8.42188 23.9141 4.00391 19.4844 4.00391 13.9531C4.00391 8.42188 8.41016 3.99219 13.9414 3.99219C19.4727 3.99219 23.9141 8.42188 23.9141 13.9531C23.9141 19.4844 19.4844 23.9141 13.9531 23.9141Z" fill="black" fill-opacity="0.85"/>
<path d="M13.9414 18.9102C18.5938 18.9102 21.8281 15.1367 21.8281 13.9648C21.8281 12.7812 18.582 9.00781 13.9414 9.00781C9.30078 9.00781 6.04297 12.7812 6.04297 13.9648C6.04297 15.1367 9.33594 18.9102 13.9414 18.9102ZM13.9414 17.1992C12.1367 17.1992 10.6953 15.7227 10.6953 13.9648C10.6836 12.1484 12.1367 10.7188 13.9414 10.7188C15.7344 10.7188 17.1875 12.1484 17.1875 13.9648C17.1875 15.7227 15.7344 17.1992 13.9414 17.1992ZM13.9531 15.3828C14.7148 15.3828 15.3711 14.7148 15.3711 13.9648C15.3711 13.2031 14.7148 12.5352 13.9531 12.5352C13.1797 12.5352 12.5117 13.2031 12.5117 13.9648C12.5117 14.7148 13.1797 15.3828 13.9531 15.3828Z" fill="black" fill-opacity="0.85"/>
</g>
<defs>
<clipPath id="clip0_2124_67790">
<rect width="23.9062" height="23.918" fill="white" transform="translate(2 2)"/>
</clipPath>
</defs>
</svg>
