<svg width="28" height="28" viewBox="0 0 28 28" fill="none" xmlns="http://www.w3.org/2000/svg">
<g clip-path="url(#clip0_2124_88457)">
<path d="M5.67969 24.5977H21.6875C24.1367 24.5977 25.3555 23.3789 25.3555 20.9648V6.65625C25.3555 4.24219 24.1367 3.02344 21.6875 3.02344H5.67969C3.23047 3.02344 2 4.23047 2 6.65625V20.9648C2 23.3906 3.23047 24.5977 5.67969 24.5977ZM5.50391 22.7109C4.46094 22.7109 3.88672 22.1602 3.88672 21.0703V10.0195C3.88672 8.94141 4.46094 8.37891 5.50391 8.37891H21.8398C22.8828 8.37891 23.4688 8.94141 23.4688 10.0195V21.0703C23.4688 22.1602 22.8828 22.7109 21.8398 22.7109H5.50391Z" fill="black" fill-opacity="0.85"/>
</g>
<defs>
<clipPath id="clip0_2124_88457">
<rect width="23.3555" height="21.5977" fill="white" transform="translate(2 3)"/>
</clipPath>
</defs>
</svg>
