<svg width="28" height="28" viewBox="0 0 28 28" fill="none" xmlns="http://www.w3.org/2000/svg">
<g clip-path="url(#clip0_2124_67792)">
<path d="M6.67969 24.5977H20.8945C23.3555 24.5977 24.5742 23.3789 24.5742 20.9648V6.65625C24.5742 4.24219 23.3555 3.02344 20.8945 3.02344H6.67969C4.23047 3.02344 3 4.23047 3 6.65625V20.9648C3 23.3906 4.23047 24.5977 6.67969 24.5977ZM6.70312 22.7109C5.53125 22.7109 4.88672 22.0898 4.88672 20.8711V6.75C4.88672 5.53125 5.53125 4.91016 6.70312 4.91016H20.8711C22.0312 4.91016 22.6875 5.53125 22.6875 6.75V20.8711C22.6875 22.0898 22.0312 22.7109 20.8711 22.7109H6.70312Z" fill="black" fill-opacity="0.85"/>
<path d="M13.793 18.75C18.4453 18.75 21.6797 14.9766 21.6797 13.8047C21.6797 12.6211 18.4336 8.84766 13.793 8.84766C9.15234 8.84766 5.89453 12.6211 5.89453 13.8047C5.89453 14.9766 9.1875 18.75 13.793 18.75ZM13.793 17.0391C11.9883 17.0391 10.5469 15.5625 10.5469 13.8047C10.5352 11.9883 11.9883 10.5586 13.793 10.5586C15.5859 10.5586 17.0391 11.9883 17.0391 13.8047C17.0391 15.5625 15.5859 17.0391 13.793 17.0391ZM13.8164 15.2227C14.5664 15.2227 15.2227 14.5547 15.2227 13.8047C15.2227 13.043 14.5664 12.375 13.8164 12.375C13.0312 12.375 12.3633 13.043 12.3633 13.8047C12.3633 14.5547 13.0312 15.2227 13.8164 15.2227Z" fill="black" fill-opacity="0.85"/>
</g>
<defs>
<clipPath id="clip0_2124_67792">
<rect width="21.5742" height="21.5977" fill="white" transform="translate(3 3)"/>
</clipPath>
</defs>
</svg>
