<svg width="30" height="28" viewBox="0 0 30 28" fill="none" xmlns="http://www.w3.org/2000/svg">
<g clip-path="url(#clip0_2124_67745)">
<path d="M0 22.7734C0 23.3828 0.386719 23.7695 0.996094 23.7695H1.69922C2.29688 23.7695 2.69531 23.3828 2.69531 22.7734V21.0391C2.82422 21.0742 3.21094 21.0977 3.49219 21.0977H26.2031C26.4844 21.0977 26.8711 21.0742 27 21.0391V22.7734C27 23.3828 27.3984 23.7695 27.9961 23.7695H28.6992C29.3086 23.7695 29.6953 23.3828 29.6953 22.7734V15.7891C29.6953 13.5508 28.4531 12.3203 26.2148 12.3203H3.48047C1.24219 12.3203 0 13.5508 0 15.7891V22.7734Z" fill="black" fill-opacity="0.85"/>
<path d="M2.8125 10.6445H5.78906V8.95703C5.78906 7.86719 6.39844 7.26953 7.51172 7.26953H11.8828C12.9844 7.26953 13.5938 7.86719 13.5938 8.95703V10.6445H16.2539V8.95703C16.2539 7.86719 16.8633 7.26953 18.0352 7.26953H22.1367C23.3086 7.26953 23.918 7.86719 23.918 8.95703V10.6445H26.9062V7.28125C26.9062 5.11328 25.7344 4 23.625 4H6.08203C3.97266 4 2.8125 5.11328 2.8125 7.28125V10.6445Z" fill="black" fill-opacity="0.85"/>
</g>
<defs>
<clipPath id="clip0_2124_67745">
<rect width="29.6953" height="19.793" fill="white" transform="translate(0 4)"/>
</clipPath>
</defs>
</svg>
