<svg width="28" height="28" viewBox="0 0 28 28" fill="none" xmlns="http://www.w3.org/2000/svg">
<path d="M6.67969 24.5977H20.8945C23.3555 24.5977 24.5742 23.3789 24.5742 20.9648V6.65625C24.5742 4.24219 23.3555 3.02344 20.8945 3.02344H6.67969C4.23047 3.02344 3 4.23047 3 6.65625V20.9648C3 23.3906 4.23047 24.5977 6.67969 24.5977Z" fill="black" fill-opacity="0.85"/>
<path d="M13.8516 19.5234C10.6523 19.5234 8.625 17.2617 8.625 13.6875C8.625 10.125 10.6523 7.83984 13.8047 7.83984C16.0898 7.83984 17.6953 8.97656 18.2812 10.5117C18.3633 10.7109 18.3984 10.8633 18.3984 11.0742C18.3984 11.5898 18.0703 11.918 17.5547 11.918C17.1797 11.918 16.9453 11.7305 16.7461 11.3203C16.2422 10.1133 15.2227 9.45703 13.8398 9.45703C11.8945 9.45703 10.5938 11.1563 10.5938 13.6875C10.5938 16.2305 11.9062 17.918 13.875 17.918C15.7148 17.918 16.6641 16.957 16.6641 15.5273V14.7305H14.4258C13.9805 14.7305 13.7109 14.4023 13.7109 14.0273C13.7109 13.6172 13.9805 13.3242 14.4258 13.3242H17.5664C18.2109 13.3242 18.5977 13.7109 18.5977 14.3789V15.2695C18.5977 17.7773 16.8398 19.5234 13.8516 19.5234Z" fill="white"/>
</svg>
