<svg width="28" height="28" viewBox="0 0 28 28" fill="none" xmlns="http://www.w3.org/2000/svg">
<path d="M13.9531 25.918C20.4922 25.918 25.9062 20.5039 25.9062 13.9648C25.9062 7.4375 20.4805 2.01172 13.9414 2.01172C7.41406 2.01172 2 7.4375 2 13.9648C2 20.5039 7.42578 25.918 13.9531 25.918Z" fill="black" fill-opacity="0.85"/>
<path d="M8.4107 19.1914L13.0747 7.3086C13.4028 6.48829 14.4927 6.46485 14.8208 7.28517L19.4849 19.1914C19.8013 19.9766 18.9341 20.6562 18.1958 19.918L14.2583 15.9805C14.0708 15.7812 13.8364 15.7812 13.6489 15.9805L9.71148 19.918C8.96148 20.6562 8.09429 19.9766 8.4107 19.1914Z" fill="white"/>
</svg>
