<svg width="29" height="28" viewBox="0 0 29 28" fill="none" xmlns="http://www.w3.org/2000/svg">
<path d="M5.74219 23.5508H21C24.9492 23.5508 28.0078 20.5625 28.0078 16.7422C28.0078 12.8867 24.8789 9.98047 20.625 9.98047C19.0664 6.88672 16.207 5 12.7266 5C8.17969 5 4.33594 8.52734 3.92578 13.2031C1.58203 13.8711 0 15.8398 0 18.3359C0 21.2188 2.09766 23.5508 5.74219 23.5508ZM5.71875 21.6641C3.31641 21.6641 1.88672 20.3633 1.88672 18.3945C1.88672 16.707 2.96484 15.4883 4.86328 14.9844C5.51953 14.8203 5.76562 14.5156 5.8125 13.8359C6.09375 9.86328 9.07031 6.88672 12.7266 6.88672C15.5508 6.88672 17.7305 8.45703 19.043 11.1523C19.3242 11.7266 19.6641 11.9258 20.3789 11.9258C24.0469 11.9258 26.1094 14.1406 26.1094 16.7891C26.1094 19.5195 23.9297 21.6641 21.1289 21.6641H5.71875Z" fill="black" fill-opacity="0.85"/>
</svg>
