<svg width="28" height="28" viewBox="0 0 28 28" fill="none" xmlns="http://www.w3.org/2000/svg">
<g clip-path="url(#clip0_2124_78071)">
<path d="M7.30078 25.8867C7.86328 25.8867 8.27344 25.582 8.39062 25.0078L12.5625 4.33594C12.5859 4.26562 12.6094 4.11328 12.6094 3.96094C12.6094 3.38672 12.1875 3.05859 11.625 3.05859C10.9688 3.05859 10.6641 3.42187 10.5586 3.97266L6.38672 24.6211C6.36328 24.7383 6.33984 24.8789 6.33984 24.9961C6.33984 25.5703 6.73828 25.8867 7.30078 25.8867ZM14.918 25.8867C15.4922 25.8867 15.8906 25.582 16.0078 25.0078L20.1914 4.33594C20.2031 4.26562 20.2266 4.11328 20.2266 3.96094C20.2266 3.38672 19.8047 3.05859 19.2539 3.05859C18.5859 3.05859 18.293 3.42187 18.1875 3.97266L14.0039 24.6211C13.9805 24.7383 13.9688 24.8789 13.9688 24.9961C13.9688 25.5703 14.3672 25.8867 14.918 25.8867ZM5.46094 11.0977H22.9219C23.5664 11.0977 24.0117 10.6289 24.0117 9.99609C24.0117 9.48047 23.6602 9.05859 23.1328 9.05859H5.67188C5.03906 9.05859 4.58203 9.55078 4.58203 10.1953C4.58203 10.7227 4.94531 11.0977 5.46094 11.0977ZM3.87891 19.3242H21.3398C21.9727 19.3242 22.4297 18.8555 22.4297 18.2227C22.4297 17.707 22.0664 17.2852 21.5508 17.2852H4.08984C3.44531 17.2852 3 17.7773 3 18.4219C3 18.9492 3.35156 19.3242 3.87891 19.3242Z" fill="black" fill-opacity="0.85"/>
</g>
<defs>
<clipPath id="clip0_2124_78071">
<rect width="21.0117" height="22.8867" fill="white" transform="translate(3 3)"/>
</clipPath>
</defs>
</svg>
