<svg width="28" height="28" viewBox="0 0 28 28" fill="none" xmlns="http://www.w3.org/2000/svg">
<path d="M13.9531 25.9062C20.4922 25.9062 25.9062 20.4805 25.9062 13.9531C25.9062 7.41406 20.4805 2 13.9414 2C7.41406 2 2 7.41406 2 13.9531C2 20.4805 7.42578 25.9062 13.9531 25.9062ZM13.9531 23.9141C8.42188 23.9141 4.00391 19.4844 4.00391 13.9531C4.00391 8.42188 8.41016 3.99219 13.9414 3.99219C19.4727 3.99219 23.9141 8.42188 23.9141 13.9531C23.9141 19.4844 19.4844 23.9141 13.9531 23.9141Z" fill="black" fill-opacity="0.85"/>
<path d="M10.2266 18.9336C12.5586 18.9336 13.2617 16.3086 13.2617 13.9531C13.2617 11.5977 12.5586 8.97266 10.2266 8.97266C7.89453 8.97266 7.19141 11.5977 7.19141 13.9531C7.19141 16.3086 7.89453 18.9336 10.2266 18.9336ZM10.2266 17.5391C9.26562 17.5391 8.90234 15.9805 8.90234 13.9531C8.90234 11.9141 9.26562 10.3555 10.2266 10.3555C11.1875 10.3555 11.5508 11.9141 11.5508 13.9531C11.5508 15.9805 11.1875 17.5391 10.2266 17.5391ZM17.6328 18.8984C19.4961 18.8984 20.6797 17.7383 20.6797 16.1328C20.6797 14.8555 19.8711 13.9297 18.9336 13.7188V13.6836C19.7188 13.4375 20.4219 12.6758 20.4219 11.5625C20.4219 10.0508 19.2969 9.01953 17.6328 9.01953C16.1914 9.01953 14.8789 9.91016 14.8789 11.5508C14.8789 12.7461 15.6172 13.4492 16.3789 13.6836V13.7188C15.3711 13.9414 14.6094 14.8672 14.6094 16.1328C14.6094 17.8672 15.9219 18.8984 17.6328 18.8984ZM17.6445 13.1445C16.8945 13.1445 16.5078 12.418 16.5078 11.7266C16.5078 10.9766 16.918 10.2734 17.6445 10.2734C18.4062 10.2734 18.7695 10.9766 18.7695 11.7266C18.7695 12.5 18.3828 13.1445 17.6445 13.1445ZM17.6445 17.6328C16.7891 17.6328 16.3672 16.8711 16.3672 16.0039C16.3672 15.1602 16.7891 14.4102 17.6445 14.4102C18.4766 14.4102 18.9219 15.1133 18.9219 16.0039C18.9219 16.8711 18.5 17.6328 17.6445 17.6328Z" fill="black" fill-opacity="0.85"/>
</svg>
