<svg width="28" height="28" viewBox="0 0 28 28" fill="none" xmlns="http://www.w3.org/2000/svg">
<path d="M13.9531 25.9062C20.4922 25.9062 25.9062 20.4805 25.9062 13.9531C25.9062 7.41406 20.4805 2 13.9414 2C7.41406 2 2 7.41406 2 13.9531C2 20.4805 7.42578 25.9062 13.9531 25.9062ZM13.9531 23.9141C8.42188 23.9141 4.00391 19.4844 4.00391 13.9531C4.00391 8.42188 8.41016 3.99219 13.9414 3.99219C19.4727 3.99219 23.9141 8.42188 23.9141 13.9531C23.9141 19.4844 19.4844 23.9141 13.9531 23.9141Z" fill="black" fill-opacity="0.85"/>
<path d="M19.168 14.4922C19.168 11.6094 16.8008 9.34766 14.1641 9.34766C14.0586 9.34766 13.9297 9.37109 13.8477 9.37109L14.6797 8.52734C14.7969 8.39844 14.8789 8.19922 14.8789 8C14.8789 7.57812 14.5625 7.25 14.1406 7.25C13.9297 7.25 13.7422 7.34375 13.6016 7.48438L11.3516 9.76953C11.082 10.0508 11.0703 10.5781 11.3516 10.8594L13.625 13.1328C13.7539 13.25 13.9531 13.3438 14.1406 13.3438C14.5625 13.3438 14.8789 13.0273 14.8789 12.6172C14.8789 12.3945 14.7969 12.2188 14.6562 12.0664L13.5195 10.9531C13.6367 10.9297 13.7891 10.918 13.9414 10.918C15.957 10.918 17.5508 12.5234 17.5508 14.5273C17.5508 16.543 15.957 18.1484 13.9414 18.1484C11.9375 18.1484 10.332 16.5312 10.332 14.5273C10.332 14.0938 9.96875 13.7305 9.52344 13.7305C9.08984 13.7305 8.71484 14.0938 8.71484 14.5273C8.71484 17.4219 11.0469 19.7656 13.9414 19.7656C16.8359 19.7656 19.168 17.4219 19.168 14.4922Z" fill="black" fill-opacity="0.85"/>
</svg>
