<svg width="28" height="28" viewBox="0 0 28 28" fill="none" xmlns="http://www.w3.org/2000/svg">
<g clip-path="url(#clip0_2124_89161)">
<path d="M13.9648 19.3672C16.9414 19.3555 19.3555 16.9414 19.3555 13.9531C19.3555 11.0117 16.9297 8.58594 13.9766 8.58594C11.0117 8.58594 8.5625 11.0117 8.5625 13.9531C8.5625 16.9414 10.9883 19.3789 13.9648 19.3672ZM13.9648 18.1719C11.6445 18.1719 9.75781 16.2969 9.75781 13.9531C9.75781 11.6797 11.6562 9.78125 13.9648 9.78125C16.2734 9.78125 18.1602 11.668 18.1602 13.9531C18.1602 16.2734 16.2852 18.1719 13.9648 18.1719ZM13.9648 16.8242C15.5234 16.8242 16.8125 15.5352 16.8125 13.9648C16.8125 12.418 15.5234 11.1289 13.9648 11.1289C12.3945 11.1289 11.1055 12.418 11.1055 13.9766C11.1055 15.5352 12.3945 16.8242 13.9648 16.8242ZM13.9648 15.5234C13.0977 15.5117 12.418 14.832 12.418 13.9648C12.418 13.1445 13.0977 12.4297 13.9766 12.4297C14.8086 12.4297 15.5 13.1328 15.5 13.9648C15.5 14.832 14.8086 15.5352 13.9648 15.5234ZM9.64062 15.9453L9.37109 14.9727L2.87891 17.082L3.19531 18.043L9.64062 15.9453ZM10.3086 17.3516L9.67578 16.5547L4.40234 20.4336L5.01172 21.2539L10.3086 17.3516ZM12.9805 18.7695L12.0547 18.3594L9.95703 24.8047L10.918 25.1328L12.9805 18.7695ZM14.9492 9.27734L15.9219 9.57031L17.9609 3.28906L17 2.96094L14.9492 9.27734ZM17.5742 10.7773L18.207 11.5625L23.5156 7.63672L22.9062 6.83984L17.5742 10.7773ZM18.2891 12.1367L18.6406 13.0742L25.0391 11.0117L24.7227 10.0391L18.2891 12.1367ZM13.9531 25.9062C20.4922 25.9062 25.9062 20.4805 25.9062 13.9531C25.9062 7.41406 20.4805 2 13.9414 2C7.41406 2 2 7.41406 2 13.9531C2 20.4805 7.42578 25.9062 13.9531 25.9062ZM13.9531 23.9141C8.42188 23.9141 4.00391 19.4844 4.00391 13.9531C4.00391 8.42188 8.41016 3.99219 13.9414 3.99219C19.4727 3.99219 23.9141 8.42188 23.9141 13.9531C23.9141 19.4844 19.4844 23.9141 13.9531 23.9141Z" fill="black" fill-opacity="0.85"/>
</g>
<defs>
<clipPath id="clip0_2124_89161">
<rect width="23.9062" height="23.918" fill="white" transform="translate(2 2)"/>
</clipPath>
</defs>
</svg>
