<svg width="28" height="28" viewBox="0 0 28 28" fill="none" xmlns="http://www.w3.org/2000/svg">
<path d="M26.1641 14.8206C26.1641 7.14477 18.8633 1.07446 11.8555 1.07446C5.80859 1.07446 2 5.39868 2 11.0471C2 18.7581 8.59766 25.1096 16.0742 25.8362C16.7305 25.9182 17.0703 25.4729 17.0703 25.051C17.0703 24.6643 16.8125 24.2776 16.2734 24.2073C7.90625 23.0002 3.65234 16.5666 3.65234 11.0002C3.65234 6.33618 6.71094 2.7268 11.8086 2.7268C18.0781 2.7268 24.5469 8.43383 24.5469 14.8088C24.5469 18.137 22.1562 20.1643 19.2852 20.1643C17.0117 20.1643 14.5273 18.969 12.5938 17.1409L10.8008 17.9143C13.1562 20.2581 16.3789 21.7346 19.3086 21.7346C23.3281 21.7346 26.1641 18.9456 26.1641 14.8206Z" fill="black" fill-opacity="0.85"/>
<path d="M13.5544 17.469L25.9177 5.15258C27.0895 3.98071 27.0895 2.1643 25.9059 1.0393L25.5895 0.746332C24.4645 -0.273199 22.7185 -0.26148 21.6286 0.86352L9.08958 13.4026L7.98802 15.9456C7.24974 17.6565 8.9724 19.426 10.6951 18.7346L13.5544 17.469Z" fill="white"/>
<path d="M12.3367 16.1682L22.8602 5.65651L21.1141 3.92213L10.6024 14.4221L9.62973 16.6604C9.53598 16.9065 9.78207 17.1643 10.0399 17.0706L12.3367 16.1682ZM23.7156 4.81276L24.6531 3.87526C25.0985 3.42995 25.1219 2.7737 24.6649 2.35182L24.3602 2.07057C23.9617 1.69557 23.3289 1.69557 22.907 2.11745L21.9813 3.06666L23.7156 4.81276Z" fill="black" fill-opacity="0.85"/>
</svg>
