<svg width="28" height="28" viewBox="0 0 28 28" fill="none" xmlns="http://www.w3.org/2000/svg">
<path d="M3.67969 24.5742H23.9531C26.4141 24.5742 27.6328 23.3672 27.6328 20.9531V9.62109C27.6328 7.20703 26.4141 6 23.9531 6H22.3359V4.42969C22.3359 3.53906 21.8203 3 20.918 3H17.4609C16.5703 3 16.0547 3.53906 16.0547 4.42969V6H11.5898V4.42969C11.5898 3.53906 11.0742 3 10.1719 3H6.71484C5.8125 3 5.30859 3.53906 5.30859 4.42969V6H3.67969C1.23047 6 0 7.20703 0 9.62109V20.9531C0 23.3672 1.23047 24.5742 3.67969 24.5742Z" fill="black" fill-opacity="0.85"/>
<path d="M9.98438 16.0664C9.98438 15.9492 10.043 15.8438 10.1367 15.7266L14.9766 9.64455C15.3398 9.1758 15.9492 9.49221 15.7383 10.0664L14.1445 14.3438H17.1328C17.3555 14.3438 17.5547 14.5195 17.5547 14.7305C17.5547 14.8477 17.4961 14.9766 17.3906 15.082L12.5625 21.1523C12.1992 21.6211 11.5781 21.3047 11.7891 20.7422L13.3945 16.4531H10.3945C10.1719 16.4531 9.98438 16.2891 9.98438 16.0664Z" fill="white"/>
</svg>
