<svg width="29" height="29" viewBox="0 0 29 29" fill="none" xmlns="http://www.w3.org/2000/svg">
<g clip-path="url(#clip0_2124_45963)">
<path d="M13.9629 25.9118C20.502 25.9118 25.916 20.4861 25.916 13.9587C25.916 7.41968 20.4903 2.00562 13.9512 2.00562C7.42383 2.00562 2.00977 7.41968 2.00977 13.9587C2.00977 20.4861 7.43555 25.9118 13.9629 25.9118Z" fill="black" fill-opacity="0.85"/>
<path d="M13.9752 9.83373C13.0729 9.83373 12.3229 9.09545 12.3229 8.19311C12.3229 7.26733 13.0729 6.52905 13.9752 6.52905C14.8893 6.52905 15.6159 7.26733 15.6159 8.19311C15.6159 9.09545 14.8893 9.83373 13.9752 9.83373ZM13.9635 15.6931C13.7409 15.6931 13.5768 15.822 13.5065 16.0798L12.3815 20.3923C12.1354 21.365 10.8112 21.0251 10.9401 20.1111C10.9987 19.7595 11.9713 16.1033 12.112 15.2829C12.2057 14.6736 12.1706 13.1501 12.1706 12.4704C12.1706 12.2595 11.9948 12.154 11.7838 12.2361L9.87368 13.0095C9.36978 13.2204 9.00649 12.9626 8.91274 12.6111C8.79556 12.2829 8.9479 11.8845 9.41665 11.697L11.4792 10.8298C11.9596 10.6541 12.3815 10.5369 12.862 10.4783C13.2018 10.6423 13.5651 10.7244 13.9635 10.7244C14.362 10.7244 14.737 10.6423 15.0651 10.4783C15.5456 10.5369 15.9674 10.6541 16.4479 10.8298L18.5104 11.697C18.9909 11.8845 19.1315 12.2829 19.026 12.6111C18.9323 12.9626 18.569 13.2204 18.0651 13.0095L16.1432 12.2361C15.9323 12.154 15.7682 12.2595 15.7682 12.4704C15.7682 13.1501 15.7213 14.6736 15.8268 15.2829C15.9557 16.1033 16.9284 19.7595 16.987 20.1111C17.1159 21.0251 15.7916 21.365 15.5456 20.3923L14.4206 16.0798C14.3502 15.822 14.1862 15.6931 13.9635 15.6931Z" fill="white"/>
</g>
<defs>
<clipPath id="clip0_2124_45963">
<rect width="23.9062" height="23.918" fill="white" transform="translate(2.00977 2.00562)"/>
</clipPath>
</defs>
</svg>
