<svg width="28" height="28" viewBox="0 0 28 28" fill="none" xmlns="http://www.w3.org/2000/svg">
<path d="M0.714844 13.8203V15.1094H11.9297C11.2383 16.5391 8.98828 18.6484 7.35938 18.8242C6.76172 18.8828 6.42188 19.2578 6.42188 19.8203C6.42188 20.3359 6.83203 20.8164 7.5 20.7227C9.30469 20.4414 12.1992 18.3438 12.9727 15.9297H13.0547V23.7695H14.4727V15.9297H14.5664C15.3398 18.3438 18.2344 20.4414 20.0391 20.7227C20.707 20.8164 21.1172 20.3359 21.1172 19.8203C21.1172 19.2578 20.7773 18.8828 20.168 18.8242C18.5508 18.6484 16.2891 16.5391 15.6094 15.1094H26.707V13.8203H18.457C19.9453 13.1523 20.9766 11.9336 20.9766 10.457C20.9766 8.74609 19.7227 7.49219 18.0352 7.49219C16.5703 7.49219 15.2461 8.41797 14.4727 9.91797V4.21094H13.0547V9.91797C12.293 8.41797 10.9688 7.49219 9.49219 7.49219C7.81641 7.49219 6.55078 8.74609 6.55078 10.457C6.55078 11.9336 7.59375 13.1523 9.07031 13.8203H0.714844ZM12.4922 13.6445C10.1836 13.6445 8.20312 12.0625 8.20312 10.5859C8.20312 9.69531 8.74219 9.15625 9.58594 9.15625C11.3203 9.15625 12.8438 11.0898 12.8438 13.3164V13.6445H12.4922ZM15.0352 13.6445H14.6836V13.3164C14.6836 11.0898 16.207 9.15625 17.9414 9.15625C18.7969 9.15625 19.3242 9.69531 19.3242 10.5859C19.3242 12.0625 17.3555 13.6445 15.0352 13.6445ZM3.67969 24.0273H23.8594C26.3203 24.0273 27.5391 22.8203 27.5391 20.4062V7.64453C27.5391 5.23047 26.3203 4.01172 23.8594 4.01172H3.67969C1.23047 4.01172 0 5.23047 0 7.64453V20.4062C0 22.8203 1.23047 24.0273 3.67969 24.0273ZM3.70312 22.1406C2.53125 22.1406 1.88672 21.5195 1.88672 20.3008V7.75C1.88672 6.53125 2.53125 5.89844 3.70312 5.89844H23.8359C24.9844 5.89844 25.6523 6.53125 25.6523 7.75V20.3008C25.6523 21.5195 24.9844 22.1406 23.8359 22.1406H3.70312Z" fill="black" fill-opacity="0.85"/>
</svg>
