<svg width="28" height="28" viewBox="0 0 28 28" fill="none" xmlns="http://www.w3.org/2000/svg">
<path d="M13.9531 25.9062C20.4922 25.9062 25.9062 20.4805 25.9062 13.9531C25.9062 7.41406 20.4805 2 13.9414 2C7.41406 2 2 7.41406 2 13.9531C2 20.4805 7.42578 25.9062 13.9531 25.9062Z" fill="black" fill-opacity="0.85"/>
<path d="M9.25391 19.5664C8.71484 19.5664 8.375 19.1914 8.375 18.5703V9.3125C8.375 8.64453 8.84375 8.1875 9.52344 8.1875C10.1094 8.1875 10.4961 8.45703 10.707 8.97266L13.9297 17H13.9883L17.1875 8.97266C17.4102 8.45703 17.7969 8.1875 18.3828 8.1875C19.0508 8.1875 19.5195 8.64453 19.5195 9.3125V18.5703C19.5195 19.2031 19.1914 19.5664 18.6172 19.5664C18.0898 19.5664 17.7617 19.1914 17.7617 18.5703V11.6211H17.6562L14.8672 18.5586C14.6914 18.9922 14.3867 19.1914 13.9414 19.1914C13.4844 19.1914 13.2031 18.9922 13.0156 18.5586L10.25 11.6211H10.1328V18.5703C10.1328 19.2031 9.80469 19.5664 9.25391 19.5664Z" fill="white"/>
</svg>
