<svg width="28" height="28" viewBox="0 0 28 28" fill="none" xmlns="http://www.w3.org/2000/svg">
<path d="M13.9531 25.9062C20.4922 25.9062 25.9062 20.4805 25.9062 13.9531C25.9062 7.41406 20.4805 2 13.9414 2C7.41406 2 2 7.41406 2 13.9531C2 20.4805 7.42578 25.9062 13.9531 25.9062ZM13.9531 23.9141C8.42188 23.9141 4.00391 19.4844 4.00391 13.9531C4.00391 8.42188 8.41016 3.99219 13.9414 3.99219C19.4727 3.99219 23.9141 8.42188 23.9141 13.9531C23.9141 19.4844 19.4844 23.9141 13.9531 23.9141Z" fill="black" fill-opacity="0.85"/>
<path d="M17.6094 11.0469C17.0938 11.0469 16.7539 11.3984 16.7539 11.9609V13.9883L16.9297 15.8164L15.2422 14.0117L10.9297 9.69922C10.7539 9.53516 10.543 9.42969 10.2617 9.42969C9.74609 9.42969 9.39453 9.76953 9.39453 10.2969C9.39453 10.5312 9.51172 10.7656 9.67578 10.9297L14 15.2422L15.8281 16.9531L14.0938 16.7656H11.9609C11.3984 16.7656 11.0352 17.1055 11.0352 17.6211C11.0352 18.1367 11.3867 18.4766 11.9375 18.4766H17.4922C18.0898 18.4766 18.4766 18.207 18.4766 17.5156V11.9844C18.4766 11.4336 18.125 11.0469 17.6094 11.0469Z" fill="black" fill-opacity="0.85"/>
</svg>
