<svg width="28" height="29" viewBox="0 0 28 29" fill="none" xmlns="http://www.w3.org/2000/svg">
<path d="M27.3279 21.7068C28.2888 18.2029 25.7342 16.6795 19.4646 16.6795C16.5115 16.6795 13.5349 16.9256 10.9685 17.3709L11.5193 18.0623C11.8943 13.0818 10.4529 8.92168 7.72243 6.98808L7.94509 8.1248C9.0115 4.48027 6.77321 1.86699 4.01931 1.86699C1.74587 1.86699 0.52712 3.50761 1.17165 6.10918L5.5779 23.992C6.0115 25.7498 7.17165 26.6873 8.89431 26.6873H22.8162C25.2302 26.6873 26.2967 25.5271 27.3279 21.7068ZM25.5232 21.2029C24.6677 24.3787 24.1287 24.8006 22.8162 24.8006H8.89431C8.12087 24.8006 7.61696 24.3553 7.41775 23.535L2.97634 5.61699C2.69509 4.46855 3.16384 3.75371 4.03103 3.75371C5.36696 3.75371 6.58571 4.97246 6.25759 7.17558C6.1404 7.97246 6.22243 8.20683 6.66775 8.57011C8.73025 10.1053 9.8904 13.6561 9.79665 18.0623C9.79665 18.7771 10.242 19.2342 10.9568 19.2225C12.2927 19.1287 15.2927 18.5662 19.4646 18.5662C24.6092 18.5662 26.0271 19.3279 25.5232 21.2029Z" fill="black" fill-opacity="0.85"/>
<path d="M10.5579 4.09355C10.4876 4.44511 10.6282 4.72636 10.9446 4.85527C11.3313 4.98418 11.7297 4.78496 11.8001 4.3748C12.0579 2.61699 11.1907 0.812301 9.74933 0.0974576C9.2923 -0.136918 8.92901 0.0857387 8.80011 0.402145C8.69464 0.706832 8.77667 1.04668 9.1048 1.22246C10.1712 1.71464 10.722 2.86308 10.5579 4.09355ZM13.7688 13.035C13.6399 13.492 13.8743 13.785 14.179 13.867C14.5071 13.949 14.9055 13.7967 15.011 13.3982C15.6087 11.16 14.6712 7.87871 12.2219 6.71855C11.7766 6.50761 11.4368 6.67168 11.2844 6.94121C11.1321 7.22246 11.179 7.62089 11.6008 7.84355C13.6751 8.94511 14.2376 11.324 13.7688 13.035Z" fill="black" fill-opacity="0.85"/>
</svg>
