<svg width="28" height="28" viewBox="0 0 28 28" fill="none" xmlns="http://www.w3.org/2000/svg">
<path d="M14.9531 24.3633C18.8086 24.3633 21.5859 22.4531 22.6172 19.582C22.7461 19.2305 22.8047 18.8789 22.8164 18.5156C22.8281 17.9062 22.418 17.4844 21.7852 17.4844C21.1758 17.4844 20.8711 17.8242 20.6719 18.4336C20.0156 20.7539 17.8008 22.3125 14.9648 22.3125C10.957 22.3125 8.35547 18.9727 8.35547 13.6406C8.35547 8.39062 10.9688 5.09766 14.9531 5.09766C17.6367 5.09766 19.8633 6.75 20.5195 9.05859C20.7305 9.73828 21.0234 10.0078 21.6328 10.0078C22.2656 10.0078 22.6758 9.58594 22.6641 8.96484C22.6523 8.61328 22.5938 8.28516 22.4766 7.95703C21.4102 4.99219 18.4688 3.04688 14.9531 3.04688C9.55078 3.04688 6 7.16016 6 13.6406C6 20.2031 9.52734 24.3633 14.9531 24.3633ZM13.6875 23.4609H15.2227V18.6211C15.2227 16.1953 16.7812 14.5078 19.0312 14.5078C19.4062 14.5078 19.7227 14.5898 19.9336 14.6133C20.9062 14.6367 21.0234 13.4062 20.1328 13.0547C19.7695 12.8906 19.3828 12.832 18.9727 12.832C17.1094 12.832 15.7031 13.957 15.2227 15.5273H15.1875V13.6875C15.1875 13.1953 14.8828 12.8789 14.4492 12.8789C13.9922 12.8789 13.6875 13.1953 13.6875 13.6875V23.4609Z" fill="black" fill-opacity="0.85"/>
</svg>
