<svg width="28" height="28" viewBox="0 0 28 28" fill="none" xmlns="http://www.w3.org/2000/svg">
<path d="M6.67969 24.5977H20.8945C23.3555 24.5977 24.5742 23.3789 24.5742 20.9648V6.65625C24.5742 4.24219 23.3555 3.02344 20.8945 3.02344H6.67969C4.23047 3.02344 3 4.23047 3 6.65625V20.9648C3 23.3906 4.23047 24.5977 6.67969 24.5977ZM6.70312 22.7109C5.53125 22.7109 4.88672 22.0898 4.88672 20.8711V6.75C4.88672 5.53125 5.53125 4.91016 6.70312 4.91016H20.8711C22.0312 4.91016 22.6875 5.53125 22.6875 6.75V20.8711C22.6875 22.0898 22.0312 22.7109 20.8711 22.7109H6.70312Z" fill="black" fill-opacity="0.85"/>
<path d="M8.23828 18.5273H12.3047C12.7148 18.5273 12.9727 18.2578 12.9727 17.8477C12.9727 17.4023 12.7031 17.1562 12.3047 17.1562H9.51562V17.0625L11.2266 14.8945C12.4102 13.4414 12.7852 12.5742 12.7852 11.543C12.7852 9.96094 11.7187 8.8125 10.0898 8.8125C8.60156 8.8125 7.46484 10.0547 7.46484 11.2734C7.46484 11.707 7.71094 12.0117 8.15625 12.0117C8.54297 12.0117 8.78906 11.8359 8.90625 11.4492C9.12891 10.6641 9.42188 10.1719 10.0898 10.1719C10.793 10.1719 11.1914 10.793 11.1914 11.625C11.1914 12.5625 10.5352 13.5117 9.91406 14.3086L7.88672 16.9102C7.66406 17.1914 7.44141 17.4844 7.44141 17.8477C7.44141 18.2461 7.69922 18.5273 8.23828 18.5273ZM17.2852 18.7734C19.0781 18.7734 20.0977 17.2734 20.0977 15.4336C20.0977 13.8516 19.3359 12.3516 17.7773 12.3516C16.8281 12.3516 16.1133 12.9844 15.8438 13.9922H15.7969C15.7969 13.9453 15.7969 13.8984 15.7969 13.8633C15.7969 12.5625 15.9609 10.207 17.2617 10.207C17.8008 10.207 18.1523 10.582 18.3516 11.0742C18.5273 11.4375 18.75 11.6016 19.125 11.6016C19.5938 11.6016 19.793 11.2852 19.793 10.8984C19.793 10.7695 19.7812 10.6289 19.7461 10.4766C19.4883 9.46875 18.4805 8.83594 17.3086 8.83594C14.9062 8.83594 14.2031 11.5312 14.2031 13.9102C14.2031 16.125 14.9062 18.7734 17.2852 18.7734ZM17.2617 17.4023C16.3828 17.4023 16.0195 16.3008 16.0195 15.457C16.0195 14.6016 16.418 13.6289 17.2617 13.6289C18.1289 13.6289 18.4922 14.6367 18.4688 15.5039C18.4688 16.3594 18.082 17.4023 17.2617 17.4023Z" fill="black" fill-opacity="0.85"/>
</svg>
