<svg width="28" height="28" viewBox="0 0 28 28" fill="none" xmlns="http://www.w3.org/2000/svg">
<path d="M13.9414 14.0117C17.2227 14.0117 19.9648 11.293 19.9648 8.02344C19.9648 4.73047 17.2227 2.01172 13.9414 2.01172C10.6484 2.01172 7.92969 4.73047 7.92969 8.02344C7.92969 11.293 10.6719 14.0117 13.9414 14.0117ZM13.9414 12.0312C11.668 12.0312 9.91016 10.2852 9.91016 8.02344C9.91016 5.75 11.668 3.99219 13.9414 3.99219C16.2148 3.99219 17.9844 5.75 17.9844 8.02344C17.9844 10.2852 16.2148 12.0312 13.9414 12.0312ZM13.9531 25.9062C20.4922 25.9062 25.9062 20.4805 25.9062 13.9531C25.9062 7.41406 20.4805 2 13.9414 2C7.41406 2 2 7.41406 2 13.9531C2 20.4805 7.42578 25.9062 13.9531 25.9062ZM13.9531 23.9141C8.42188 23.9141 4.00391 19.4844 4.00391 13.9531C4.00391 8.42188 8.41016 3.99219 13.9414 3.99219C19.4727 3.99219 23.9141 8.42188 23.9141 13.9531C23.9141 19.4844 19.4844 23.9141 13.9531 23.9141Z" fill="black" fill-opacity="0.85"/>
</svg>
