<svg width="28" height="28" viewBox="0 0 28 28" fill="none" xmlns="http://www.w3.org/2000/svg">
<path d="M9.23438 24.0352H18.3984C25.1953 24.0352 27.6328 21.5156 27.6328 15.2461V11.8008C27.6328 5.53125 25.1953 3 18.3984 3H9.23438C2.4375 3 0 5.53125 0 11.8008V15.2461C0 21.5156 2.4375 24.0352 9.23438 24.0352Z" fill="black" fill-opacity="0.85"/>
<path d="M6.72656 18.5859C6.25781 18.5859 5.94141 18.2578 5.94141 17.7422V9.73828C5.94141 8.96484 6.42188 8.49609 7.18359 8.49609C7.85156 8.49609 8.26172 8.83594 8.42578 9.51562L10.1016 16.0898H10.1484L11.7891 9.51562C11.9414 8.83594 12.3398 8.49609 13.0312 8.49609C13.8164 8.49609 14.2852 8.94141 14.2852 9.73828V17.7422C14.2852 18.2578 14.0039 18.5859 13.5 18.5859C12.9961 18.5859 12.7031 18.2578 12.7031 17.7422V11.2266H12.6445L11.0039 17.5898C10.8867 18.082 10.6172 18.4102 10.125 18.4102C9.63281 18.4102 9.35156 18.0703 9.22266 17.6016L7.59375 11.2266H7.51172V17.7422C7.51172 18.2578 7.20703 18.5859 6.72656 18.5859ZM18.8672 18.6211C17.5781 18.6211 16.3359 18 15.9844 16.875C15.9258 16.6758 15.8906 16.4648 15.8906 16.2422C15.8906 15.7734 16.2188 15.4805 16.6992 15.4805C17.0859 15.4805 17.3438 15.6797 17.4609 16.0781C17.6016 16.6289 18 17.2148 18.8789 17.2148C19.7695 17.2148 20.2148 16.5 20.2148 15.668C20.2148 14.625 19.6523 14.0625 18.6211 14.0625H18.3281C17.918 14.0625 17.6484 13.8281 17.6484 13.4297C17.6484 13.0312 17.918 12.7734 18.3281 12.7734H18.5977C19.5117 12.7734 20.0039 12.1289 20.0039 11.25C20.0039 10.4531 19.6289 9.84375 18.832 9.84375C18.1406 9.84375 17.7773 10.2891 17.5781 11.0039C17.4609 11.4258 17.2148 11.5781 16.8047 11.5781C16.3125 11.5781 16.0664 11.2617 16.0664 10.8633C16.0664 10.6523 16.0898 10.4414 16.1484 10.207C16.5 9.14062 17.5781 8.4375 18.832 8.4375C20.4023 8.4375 21.6562 9.38672 21.6562 11.0625C21.6562 12.0703 21.1172 13.0547 20.0156 13.3477V13.3828C21.0469 13.4883 21.9375 14.2266 21.9375 15.7266C21.9375 17.5312 20.6133 18.6211 18.8672 18.6211Z" fill="white"/>
</svg>
