<svg width="28" height="28" viewBox="0 0 28 28" fill="none" xmlns="http://www.w3.org/2000/svg">
<path d="M13.9531 25.918C20.4922 25.918 25.9062 20.5039 25.9062 13.9648C25.9062 7.4375 20.4805 2.01172 13.9414 2.01172C7.41406 2.01172 2 7.4375 2 13.9648C2 20.5039 7.42578 25.918 13.9531 25.918Z" fill="black" fill-opacity="0.85"/>
<path d="M10.0625 15.1602C8.33984 15.1602 7.34375 14.0469 7.34375 12.6875C7.34375 11.4453 8.14062 10.5547 9.18359 10.2383C9.38281 8.09375 11.1875 6.37109 13.3555 6.37109C15.0312 6.37109 16.3672 7.30859 17.1055 8.72656C19.0625 8.72656 20.5742 10.0859 20.5742 11.9375C20.5742 13.707 19.1328 15.1602 17.2578 15.1602H10.0625ZM11.9141 18.5938L12.8984 16.3203C12.9688 16.1562 13.0625 16.0977 13.2734 16.0977H14.8906C15.0664 16.0977 15.1133 16.2266 15.043 16.3906L14.3281 17.75H15.8047C16.0391 17.75 16.0977 17.9609 15.9453 18.1367L12.6758 21.4531C12.5938 21.5586 12.5117 21.5703 12.4414 21.5586C12.3711 21.5 12.3477 21.418 12.3945 21.3125L13.3672 18.9102H12.1133C11.9023 18.9102 11.8203 18.7578 11.9141 18.5938Z" fill="white"/>
</svg>
