<svg width="28" height="28" viewBox="0 0 28 28" fill="none" xmlns="http://www.w3.org/2000/svg">
<g clip-path="url(#clip0_2124_24627)">
<path d="M13.9531 25.918C20.4922 25.918 25.9062 20.5039 25.9062 13.9648C25.9062 7.4375 20.4805 2.01172 13.9414 2.01172C7.41406 2.01172 2 7.4375 2 13.9648C2 20.5039 7.42578 25.918 13.9531 25.918Z" fill="black" fill-opacity="0.85"/>
<path d="M11.3047 21.5938C10.1211 21.5938 9.33594 20.832 9.33594 19.6836V8.24609C9.33594 7.08594 10.1211 6.33594 11.3047 6.33594H16.5898C17.7734 6.33594 18.5703 7.08594 18.5703 8.24609V19.6836C18.5703 20.832 17.7734 21.5938 16.5898 21.5938H11.3047ZM11.457 20.4102H16.4492C17.0586 20.4102 17.3984 20.082 17.3984 19.5078V8.42188C17.3984 7.84766 17.0586 7.51953 16.4492 7.51953H15.582C15.4766 7.51953 15.4297 7.56641 15.4297 7.67188V7.83594C15.4297 8.15234 15.2188 8.35156 14.9258 8.35156H12.9688C12.6758 8.35156 12.4766 8.15234 12.4766 7.83594V7.67188C12.4766 7.56641 12.4297 7.51953 12.3242 7.51953H11.457C10.8359 7.51953 10.5078 7.84766 10.5078 8.42188V19.5078C10.5078 20.082 10.8359 20.4102 11.457 20.4102ZM12.4414 19.8828C12.2422 19.8828 12.0898 19.7422 12.0898 19.543C12.0898 19.3203 12.2422 19.1797 12.4414 19.1797H15.4648C15.6641 19.1797 15.8164 19.3203 15.8164 19.543C15.8164 19.7422 15.6641 19.8828 15.4648 19.8828H12.4414Z" fill="white"/>
</g>
<defs>
<clipPath id="clip0_2124_24627">
<rect width="23.9062" height="23.918" fill="white" transform="translate(2 2)"/>
</clipPath>
</defs>
</svg>
