<svg width="28" height="28" viewBox="0 0 28 28" fill="none" xmlns="http://www.w3.org/2000/svg">
<g clip-path="url(#clip0_2124_50226)">
<path d="M8.97656 9.69531H19.9688C21.3516 9.69531 22.0078 9.0625 22.0078 7.71484V2.98047C22.0078 1.63281 21.3516 1 19.9688 1H8.97656C7.59375 1 6.9375 1.63281 6.9375 2.98047V7.71484C6.9375 9.0625 7.59375 9.69531 8.97656 9.69531ZM9.63281 7.72656C9.16406 7.72656 8.90625 7.49219 8.90625 7.03516V3.64844C8.90625 3.21484 9.16406 2.96875 9.63281 2.96875H19.3125C19.7812 2.96875 20.0391 3.21484 20.0391 3.64844V7.03516C20.0391 7.49219 19.7812 7.72656 19.3125 7.72656H9.63281ZM9.33984 13.6445H11.5781V8.66406H9.33984V13.6445ZM17.3672 13.6445H19.6055V8.66406H17.3672V13.6445ZM7.93359 18.4258H21.0117C22.3008 18.4258 22.9453 17.8164 22.9453 16.5625V14.7812C22.9453 13.5273 22.3008 12.918 21.0117 12.918H7.93359C6.64453 12.918 6 13.5273 6 14.7812V16.5625C6 17.8164 6.64453 18.4258 7.93359 18.4258ZM8.47266 16.457C8.17969 16.457 7.96875 16.2695 7.96875 16V15.3438C7.96875 15.0742 8.17969 14.8867 8.47266 14.8867H20.4727C20.7656 14.8867 20.9766 15.0742 20.9766 15.3438V16C20.9766 16.2695 20.7656 16.457 20.4727 16.457H8.47266ZM8.21484 26.3711H8.57812C9.15234 26.3711 9.55078 25.9727 9.55078 25.3984V17.8164H7.24219V25.3984C7.24219 25.9727 7.64062 26.3711 8.21484 26.3711ZM8.94141 21.1562H20.0039V19.3867H8.94141V21.1562ZM20.3672 26.3711H20.7305C21.3047 26.3711 21.7031 25.9727 21.7031 25.3984V17.8164H19.3945V25.3984C19.3945 25.9727 19.793 26.3711 20.3672 26.3711Z" fill="black" fill-opacity="0.85"/>
</g>
<defs>
<clipPath id="clip0_2124_50226">
<rect width="16.9453" height="25.3945" fill="white" transform="translate(6 1)"/>
</clipPath>
</defs>
</svg>
