<svg width="28" height="28" viewBox="0 0 28 28" fill="none" xmlns="http://www.w3.org/2000/svg">
<path d="M6.14844 8.85156H21.9336C22.918 8.85156 23.832 9.07422 24.5938 9.46094L22.0977 3.4375C21.4531 1.84375 20.0703 1 18.2656 1H9.81641C8 1 6.62891 1.84375 5.98438 3.4375L3.47656 9.46094C4.25 9.07422 5.16406 8.85156 6.14844 8.85156ZM6.14844 18.5312H21.9336C24.3945 18.5312 26.082 16.8555 26.082 14.418C26.082 11.9805 24.3945 10.2812 21.9336 10.2812H6.14844C3.6875 10.2812 2 11.9805 2 14.418C2 16.8555 3.6875 18.5312 6.14844 18.5312ZM20.4219 14.418C20.4219 13.7031 21.043 13.0703 21.7695 13.0703C22.4961 13.0703 23.1289 13.7031 23.1289 14.418C23.1289 15.168 22.4961 15.7539 21.7695 15.7656C21.043 15.7656 20.4219 15.1797 20.4219 14.418ZM13.0977 24.0273H14.9844V17.6641H13.0977V24.0273ZM4.29688 24.9648H23.7852C24.3008 24.9648 24.7227 24.5312 24.7227 24.0156C24.7227 23.5 24.3008 23.0781 23.7852 23.0781H4.29688C3.78125 23.0781 3.35938 23.5 3.35938 24.0156C3.35938 24.5312 3.78125 24.9648 4.29688 24.9648ZM14.0352 26.7578C15.5352 26.7578 16.7656 25.5273 16.7656 24.0391C16.7656 22.5391 15.5352 21.3086 14.0352 21.3086C12.5469 21.3086 11.3164 22.5391 11.3164 24.0391C11.3164 25.5273 12.5469 26.7578 14.0352 26.7578Z" fill="black" fill-opacity="0.85"/>
</svg>
