<svg width="28" height="30" viewBox="0 0 28 30" fill="none" xmlns="http://www.w3.org/2000/svg">
<g clip-path="url(#clip0_2124_88447)">
<path d="M7.68359 3.67969V19.957C7.68359 22.3945 8.89062 23.6367 11.3164 23.6367H22.332C24.7461 23.6367 25.9648 22.3945 25.9648 19.957V3.67969C25.9648 1.23047 24.7461 0 22.332 0H11.3164C8.89062 0 7.68359 1.23047 7.68359 3.67969ZM13.9648 4.01953C13.4492 4.01953 13.2148 3.67969 13.2148 3.32812V3.08203C13.2148 2.71875 13.4492 2.39062 13.9648 2.39062H19.6836C20.1875 2.39062 20.4336 2.71875 20.4336 3.08203V3.32812C20.4336 3.67969 20.1875 4.01953 19.6836 4.01953H13.9648Z" fill="black" fill-opacity="0.85"/>
<path d="M2 25.8047C2 28.2539 3.20703 29.4844 5.63281 29.4844H16.6484C19.0742 29.4844 20.2812 28.2422 20.2812 25.8047V9.52734C20.2812 7.07812 19.0742 5.84766 16.6484 5.84766H5.63281C3.20703 5.84766 2 7.06641 2 9.52734V25.8047Z" fill="white"/>
<path d="M2 25.8047C2 28.2539 3.20703 29.4844 5.63281 29.4844H16.6484C19.0742 29.4844 20.2812 28.2422 20.2812 25.8047V9.52734C20.2812 7.07812 19.0742 5.84766 16.6484 5.84766H5.63281C3.20703 5.84766 2 7.06641 2 9.52734V25.8047ZM3.88672 25.7695V9.55078C3.88672 8.39062 4.50781 7.73438 5.71484 7.73438H16.5547C17.7617 7.73438 18.3945 8.39062 18.3945 9.55078V25.7695C18.3945 26.9414 17.7617 27.5977 16.5547 27.5977H5.71484C4.50781 27.5977 3.88672 26.9414 3.88672 25.7695Z" fill="black" fill-opacity="0.85"/>
<path d="M6.01953 17.6484C6.01953 18.082 6.32422 18.3984 6.74609 18.3984H11.8203L13.9297 18.3164L12.6992 19.3594L11.5508 20.4844C11.4102 20.625 11.3281 20.8008 11.3281 21.0117C11.3281 21.4102 11.6328 21.7383 12.043 21.7383C12.2422 21.7383 12.418 21.6562 12.5469 21.5273L15.8281 18.2344C16.0156 18.0469 16.1211 17.8828 16.1211 17.6484C16.1211 17.4492 16.0273 17.2852 15.8281 17.0859L12.5469 13.7812C12.418 13.6523 12.2422 13.582 12.043 13.582C11.6328 13.582 11.3281 13.8984 11.3281 14.2969C11.3281 14.5078 11.4219 14.6836 11.5508 14.8242L12.6992 15.9609L13.918 16.9922L11.8203 16.9219H6.74609C6.32422 16.9219 6.01953 17.2148 6.01953 17.6484Z" fill="black" fill-opacity="0.85"/>
</g>
<defs>
<clipPath id="clip0_2124_88447">
<rect width="23.9648" height="29.5195" fill="white" transform="translate(2)"/>
</clipPath>
</defs>
</svg>
