<svg width="28" height="28" viewBox="0 0 28 28" fill="none" xmlns="http://www.w3.org/2000/svg">
<g clip-path="url(#clip0_2124_88421)">
<path d="M7.63281 26.125H20.0781C22.5039 26.125 23.7109 24.8945 23.7109 22.457V11.8164C23.7109 10.3047 23.5352 9.64844 22.5977 8.6875L16.1406 2.11328C15.25 1.19922 14.5117 1 13.1992 1H7.63281C5.21875 1 4 2.24219 4 4.67969V22.457C4 24.9062 5.20703 26.125 7.63281 26.125ZM7.71484 24.2383C6.50781 24.2383 5.88672 23.5938 5.88672 22.4219V4.71484C5.88672 3.55469 6.50781 2.88672 7.72656 2.88672H12.9414V9.69531C12.9414 11.1719 13.6797 11.8984 15.1445 11.8984H21.8242V22.4219C21.8242 23.5938 21.2031 24.2383 19.9844 24.2383H7.71484ZM15.3555 10.1289C14.8867 10.1289 14.7109 9.94141 14.7109 9.47266V3.25L21.4609 10.1289H15.3555Z" fill="black" fill-opacity="0.85"/>
</g>
<defs>
<clipPath id="clip0_2124_88421">
<rect width="19.7109" height="25.1367" fill="white" transform="translate(4 1)"/>
</clipPath>
</defs>
</svg>
