<svg width="28" height="28" viewBox="0 0 28 28" fill="none" xmlns="http://www.w3.org/2000/svg">
<path d="M13.9531 25.918C20.4922 25.918 25.9062 20.5039 25.9062 13.9648C25.9062 7.4375 20.4805 2.01172 13.9414 2.01172C7.41406 2.01172 2 7.4375 2 13.9648C2 20.5039 7.42578 25.918 13.9531 25.918Z" fill="black" fill-opacity="0.85"/>
<path d="M10.0861 19.203L8.41032 19.8358C8.1525 19.9296 7.85954 19.6718 7.98844 19.3671L8.66813 17.7733L16.5666 9.87494L18.008 11.3164L10.0861 19.203ZM18.7346 10.5898L17.2932 9.1601L18.1838 8.26947C18.5822 7.89447 19.0275 7.8476 19.3908 8.21088L19.6604 8.49213C20.0354 8.85541 20.0119 9.31244 19.6135 9.71088L18.7346 10.5898Z" fill="white"/>
</svg>
