<svg width="28" height="28" viewBox="0 0 28 28" fill="none" xmlns="http://www.w3.org/2000/svg">
<path d="M13.9531 25.9062C20.4922 25.9062 25.9062 20.4805 25.9062 13.9531C25.9062 7.41406 20.4805 2 13.9414 2C7.41406 2 2 7.41406 2 13.9531C2 20.4805 7.42578 25.9062 13.9531 25.9062ZM13.9531 23.9141C8.42188 23.9141 4.00391 19.4844 4.00391 13.9531C4.00391 8.42188 8.41016 3.99219 13.9414 3.99219C19.4727 3.99219 23.9141 8.42188 23.9141 13.9531C23.9141 19.4844 19.4844 23.9141 13.9531 23.9141Z" fill="black" fill-opacity="0.85"/>
<path d="M9.75781 18.2539H18.6641C20.0586 18.2539 21.1484 17.1406 21.1484 15.7812C21.1484 14.6094 20.3633 13.6367 19.3203 13.3789C19.332 13.2617 19.332 13.1445 19.332 13.0391C19.332 10.6602 17.4453 8.72656 15.0078 8.72656C13.5781 8.72656 12.3125 9.40625 11.5273 10.4844C11.375 10.4492 11.1992 10.4258 11.0586 10.4258C9.85156 10.4258 8.83203 11.3047 8.65625 12.5117C7.56641 12.9453 6.75781 14.0117 6.75781 15.2891C6.75781 17.2227 8.05859 18.2539 9.75781 18.2539Z" fill="black" fill-opacity="0.85"/>
</svg>
