<svg width="28" height="28" viewBox="0 0 28 28" fill="none" xmlns="http://www.w3.org/2000/svg">
<g clip-path="url(#clip0_2124_89379)">
<path d="M3 20.9648C3 23.3906 4.23047 24.5977 6.67969 24.5977H7.41797V22.3359C7.41797 21.9141 7.74609 21.5859 8.17969 21.5859C8.61328 21.5859 8.94141 21.9141 8.94141 22.3359V24.5977H11.2148V22.3359C11.2148 21.9141 11.543 21.5859 11.9766 21.5859C12.4102 21.5859 12.7383 21.9141 12.7383 22.3359V24.5977H15.0117V22.3359C15.0117 21.9141 15.3398 21.5859 15.7734 21.5859C16.207 21.5859 16.5352 21.9141 16.5352 22.3359V24.5977H18.8086V22.3359C18.8086 21.9141 19.1367 21.5859 19.5703 21.5859C20.0039 21.5859 20.332 21.9141 20.332 22.3359V24.5977H21.0469C23.4961 24.5977 24.7266 23.3789 24.7266 20.9648V6.65625C24.7266 4.24219 23.4961 3.02344 21.0469 3.02344H20.332V5.28516C20.332 5.70703 20.0039 6.03516 19.5703 6.03516C19.1367 6.03516 18.8086 5.70703 18.8086 5.28516V3.02344H16.5352V5.28516C16.5352 5.70703 16.207 6.03516 15.7734 6.03516C15.3398 6.03516 15.0117 5.70703 15.0117 5.28516V3.02344H12.7383V5.28516C12.7383 5.70703 12.4102 6.03516 11.9766 6.03516C11.543 6.03516 11.2148 5.70703 11.2148 5.28516V3.02344H8.94141V5.28516C8.94141 5.70703 8.61328 6.03516 8.17969 6.03516C7.74609 6.03516 7.41797 5.70703 7.41797 5.28516V3.02344H6.67969C4.23047 3.02344 3 4.23047 3 6.65625V20.9648ZM7.72266 17.4609V10.1602C7.72266 9.50391 8.17969 9.07031 8.83594 9.07031H18.8906C19.5586 9.07031 19.9922 9.50391 19.9922 10.1602V17.4609C19.9922 18.1172 19.5586 18.5508 18.8906 18.5508H8.83594C8.17969 18.5508 7.72266 18.1172 7.72266 17.4609Z" fill="black" fill-opacity="0.85"/>
</g>
<defs>
<clipPath id="clip0_2124_89379">
<rect width="21.7266" height="21.5977" fill="white" transform="translate(3 3)"/>
</clipPath>
</defs>
</svg>
