<svg width="28" height="28" viewBox="0 0 28 28" fill="none" xmlns="http://www.w3.org/2000/svg">
<g clip-path="url(#clip0_2124_50034)">
<path d="M8.63281 1C6.20703 1 5 2.24219 5 4.67969V23.2539C5 25.7031 6.20703 26.9219 8.63281 26.9219H18.5469C20.9609 26.9219 22.1797 25.7031 22.1797 23.2539V4.67969C22.1797 2.24219 20.9609 1 18.5469 1H8.63281Z" fill="black" fill-opacity="0.85"/>
<path d="M9.14843 15.8242H17.9727C18.7695 15.8242 19.0859 16.1289 19.0859 16.9141V22.7031C19.0859 23.4883 18.7695 23.793 17.9727 23.793H9.14843C8.36327 23.793 8.04688 23.4883 8.04688 22.7031V16.9141C8.04688 16.1289 8.36327 15.8242 9.14843 15.8242Z" fill="white"/>
</g>
<defs>
<clipPath id="clip0_2124_50034">
<rect width="17.1797" height="25.9336" fill="white" transform="translate(5 1)"/>
</clipPath>
</defs>
</svg>
