<svg width="28" height="28" viewBox="0 0 28 28" fill="none" xmlns="http://www.w3.org/2000/svg">
<path d="M6.67969 24.5977H20.8945C23.3555 24.5977 24.5742 23.3789 24.5742 20.9648V6.65625C24.5742 4.24219 23.3555 3.02344 20.8945 3.02344H6.67969C4.23047 3.02344 3 4.23047 3 6.65625V20.9648C3 23.3906 4.23047 24.5977 6.67969 24.5977ZM6.70312 22.7109C5.53125 22.7109 4.88672 22.0898 4.88672 20.8711V6.75C4.88672 5.53125 5.53125 4.91016 6.70312 4.91016H20.8711C22.0312 4.91016 22.6875 5.53125 22.6875 6.75V20.8711C22.6875 22.0898 22.0312 22.7109 20.8711 22.7109H6.70312Z" fill="black" fill-opacity="0.85"/>
<path d="M11.7539 20.3555H16.5234C17.0039 20.3555 17.3789 20.0039 17.3789 19.5234C17.3789 19.0664 17.0039 18.7031 16.5234 18.7031H15.0703V12.7383C15.0703 12.1055 14.7539 11.6836 14.1562 11.6836H11.9531C11.4727 11.6836 11.0977 12.0469 11.0977 12.5039C11.0977 12.9844 11.4727 13.3359 11.9531 13.3359H13.207V18.7031H11.7539C11.2734 18.7031 10.8984 19.0664 10.8984 19.5234C10.8984 20.0039 11.2734 20.3555 11.7539 20.3555ZM13.6992 9.73828C14.5547 9.73828 15.2227 9.05859 15.2227 8.20312C15.2227 7.34766 14.5547 6.66797 13.6992 6.66797C12.8555 6.66797 12.1758 7.34766 12.1758 8.20312C12.1758 9.05859 12.8555 9.73828 13.6992 9.73828Z" fill="black" fill-opacity="0.85"/>
</svg>
