<svg width="28" height="28" viewBox="0 0 28 28" fill="none" xmlns="http://www.w3.org/2000/svg">
<path d="M13.9531 25.9062C20.4922 25.9062 25.9062 20.4805 25.9062 13.9531C25.9062 7.41406 20.4805 2 13.9414 2C7.41406 2 2 7.41406 2 13.9531C2 20.4805 7.42578 25.9062 13.9531 25.9062ZM13.9531 23.9141C8.42188 23.9141 4.00391 19.4844 4.00391 13.9531C4.00391 8.42188 8.41016 3.99219 13.9414 3.99219C19.4727 3.99219 23.9141 8.42188 23.9141 13.9531C23.9141 19.4844 19.4844 23.9141 13.9531 23.9141Z" fill="black" fill-opacity="0.85"/>
<path d="M9.01953 19.1211C9.46484 19.1211 9.79297 18.8047 9.79297 18.3477V9.54688C9.79297 9.08984 9.46484 8.77344 9.01953 8.77344C8.5625 8.77344 8.22266 9.08984 8.22266 9.54688V18.3477C8.22266 18.8047 8.5625 19.1211 9.01953 19.1211ZM21.3125 13.9648C21.3125 13.5078 20.9727 13.1797 20.5273 13.1797H15.1484L13.0039 13.3086L15.3828 11.1992L16.1211 10.4727C16.2852 10.3203 16.3555 10.1094 16.3555 9.89844C16.3555 9.45312 16.0156 9.14844 15.582 9.14844C15.3711 9.14844 15.1719 9.21875 15.0078 9.39453L10.9648 13.3672C10.7891 13.543 10.6953 13.7422 10.6953 13.9648C10.6953 14.1758 10.7773 14.3867 10.9648 14.5508L14.9961 18.4883C15.1484 18.6406 15.3945 18.7461 15.5938 18.7461C16.0391 18.7461 16.3555 18.4414 16.3555 17.9844C16.3555 17.75 16.2852 17.5625 16.1211 17.4219L15.3711 16.7305L12.9922 14.6211L15.1484 14.75H20.5273C20.9727 14.75 21.3125 14.4336 21.3125 13.9648Z" fill="black" fill-opacity="0.85"/>
</svg>
