<svg width="28" height="28" viewBox="0 0 28 28" fill="none" xmlns="http://www.w3.org/2000/svg">
<g clip-path="url(#clip0_2124_50115)">
<path d="M7.67969 26.5742H16.7852C19.2344 26.5742 20.4531 25.3555 20.4531 22.9648V5.63281C20.4531 3.21875 19.2344 2 16.7852 2H7.67969C5.23047 2 4 3.20703 4 5.63281V22.9648C4 25.3672 5.23047 26.5742 7.67969 26.5742Z" fill="black" fill-opacity="0.85"/>
<path d="M8.48828 7.88282C7.66797 7.88282 7.02344 7.22656 7.02344 6.42969C7.02344 5.60938 7.66797 4.95312 8.48828 4.95312C9.29688 4.95312 9.95312 5.60938 9.95312 6.42969C9.95312 7.22656 9.29688 7.88282 8.48828 7.88282ZM12.2266 7.88282C11.418 7.88282 10.7734 7.22656 10.7734 6.42969C10.7734 5.60938 11.418 4.95312 12.2266 4.95312C13.0586 4.95312 13.7031 5.60938 13.7031 6.42969C13.7031 7.22656 13.0586 7.88282 12.2266 7.88282ZM15.9883 7.88282C15.168 7.88282 14.5234 7.22656 14.5234 6.42969C14.5234 5.60938 15.168 4.95312 15.9883 4.95312C16.8086 4.95312 17.4414 5.60938 17.4414 6.42969C17.4414 7.22656 16.8086 7.88282 15.9883 7.88282ZM8.48828 11.4922C7.66797 11.4922 7.02344 10.8359 7.02344 10.0273C7.02344 9.20703 7.66797 8.55078 8.48828 8.55078C9.29688 8.55078 9.95312 9.20703 9.95312 10.0273C9.95312 10.8359 9.29688 11.4922 8.48828 11.4922ZM12.2266 11.4922C11.418 11.4922 10.7734 10.8359 10.7734 10.0273C10.7734 9.20703 11.418 8.55078 12.2266 8.55078C13.0586 8.55078 13.7031 9.20703 13.7031 10.0273C13.7031 10.8359 13.0586 11.4922 12.2266 11.4922ZM15.9883 11.4922C15.168 11.4922 14.5234 10.8359 14.5234 10.0273C14.5234 9.20703 15.168 8.55078 15.9883 8.55078C16.8086 8.55078 17.4414 9.20703 17.4414 10.0273C17.4414 10.8359 16.8086 11.4922 15.9883 11.4922ZM8.48828 15.1133C7.66797 15.1133 7.02344 14.457 7.02344 13.6367C7.02344 12.8281 7.66797 12.1719 8.48828 12.1719C9.29688 12.1719 9.95312 12.8281 9.95312 13.6367C9.95312 14.457 9.29688 15.1133 8.48828 15.1133ZM12.2266 15.1133C11.418 15.1133 10.7734 14.457 10.7734 13.6367C10.7734 12.8281 11.418 12.1719 12.2266 12.1719C13.0586 12.1719 13.7031 12.8281 13.7031 13.6367C13.7031 14.457 13.0586 15.1133 12.2266 15.1133ZM15.9883 15.1133C15.168 15.1133 14.5234 14.457 14.5234 13.6367C14.5234 12.8281 15.168 12.1719 15.9883 12.1719C16.8086 12.1719 17.4414 12.8281 17.4414 13.6367C17.4414 14.457 16.8086 15.1133 15.9883 15.1133Z" fill="white"/>
<path d="M12.2266 24.0664C10.2227 24.0664 8.60547 22.4492 8.60547 20.4453C8.60547 18.4414 10.2227 16.8242 12.2266 16.8242C14.2422 16.8242 15.8594 18.4414 15.8594 20.4453C15.8594 22.4492 14.2422 24.0664 12.2266 24.0664ZM12.2266 22.9883C10.832 22.9883 9.68359 21.8516 9.68359 20.4453C9.68359 19.0391 10.832 17.8906 12.2266 17.8906H21.3906C22.7969 17.8906 23.9453 19.0391 23.9453 20.4453C23.9453 21.8516 22.7969 22.9883 21.3906 22.9883H12.2266Z" fill="white"/>
<path d="M12.2266 21.8633H21.3906C22.1758 21.8633 22.8086 21.2188 22.8086 20.4453C22.8086 19.6602 22.1758 19.0273 21.3906 19.0273H12.2266C11.4531 19.0273 10.8086 19.6602 10.8086 20.4453C10.8086 21.2188 11.4531 21.8633 12.2266 21.8633Z" fill="black" fill-opacity="0.85"/>
</g>
<defs>
<clipPath id="clip0_2124_50115">
<rect width="19.9453" height="24.6211" fill="white" transform="translate(4 2)"/>
</clipPath>
</defs>
</svg>
