<svg width="28" height="28" viewBox="0 0 28 28" fill="none" xmlns="http://www.w3.org/2000/svg">
<g clip-path="url(#clip0_2124_67757)">
<path d="M22.4258 25.9062C22.6719 25.9062 22.8828 25.7188 22.918 25.4609C23.293 22.6484 23.3047 22.6719 26.293 22.0977C26.5508 22.0508 26.7383 21.8516 26.7383 21.6055C26.7383 21.3477 26.5508 21.1602 26.2812 21.1133C23.3398 20.6914 23.2812 20.6445 22.918 17.7617C22.8945 17.4922 22.6836 17.3047 22.4258 17.3047C22.1562 17.3047 21.957 17.5039 21.9336 17.7734C21.582 20.5859 21.5234 20.5508 18.5469 21.1133C18.2891 21.1719 18.1133 21.3711 18.1133 21.6055C18.1133 21.8633 18.3008 22.0508 18.5938 22.0977C21.5234 22.5781 21.582 22.625 21.9336 25.4375C21.957 25.707 22.1562 25.9062 22.4258 25.9062Z" fill="black" fill-opacity="0.85"/>
<path d="M9.69922 8.43359C9.89844 8.43359 10.0625 8.30469 10.0977 8.09375C10.4961 5.96094 10.4375 6.03125 12.5703 5.60938C12.7812 5.57422 12.9219 5.41016 12.9219 5.21094C12.9219 5.01172 12.7812 4.85938 12.5703 4.82422C10.4375 4.40234 10.4961 4.47266 10.0977 2.33984C10.0625 2.12891 9.89844 2 9.69922 2C9.5 2 9.33594 2.12891 9.30078 2.33984C8.90234 4.47266 8.96094 4.40234 6.82812 4.82422C6.61719 4.85938 6.47656 5.01172 6.47656 5.21094C6.47656 5.41016 6.61719 5.57422 6.82812 5.60938C8.96094 6.03125 8.90234 5.96094 9.30078 8.09375C9.33594 8.30469 9.5 8.43359 9.69922 8.43359Z" fill="black" fill-opacity="0.85"/>
<path d="M9.67578 25.5312C11.4922 25.5312 12.9922 24.0312 12.9922 22.1914C12.9922 20.375 11.4922 18.875 9.67578 18.875C7.83594 18.875 6.33594 20.375 6.33594 22.1914C6.33594 24.0312 7.83594 25.5312 9.67578 25.5312Z" fill="black" fill-opacity="0.85"/>
<path d="M5.10547 14.9258C6.79297 14.9258 8.19922 13.5312 8.19922 11.8203C8.19922 10.1328 6.79297 8.73828 5.10547 8.73828C3.39453 8.73828 2 10.1328 2 11.8203C2 13.5312 3.39453 14.9258 5.10547 14.9258Z" fill="black" fill-opacity="0.85"/>
<path d="M20.7148 14.3984C23.7852 14.3984 26.2695 11.9141 26.2695 8.84375C26.2695 5.78516 23.7852 3.30078 20.7148 3.30078C17.6562 3.30078 15.1719 5.78516 15.1719 8.84375C15.1719 11.9141 17.6562 14.3984 20.7148 14.3984Z" fill="black" fill-opacity="0.85"/>
<path d="M16.0156 19.0977C19.1562 19.0977 21.6992 16.5547 21.6992 13.4023C21.6992 10.2617 19.1562 7.71875 16.0156 7.71875C12.875 7.71875 10.332 10.2617 10.332 13.4023C10.332 16.5547 12.875 19.0977 16.0156 19.0977Z" fill="white"/>
<path d="M16.0156 17.7266C18.4062 17.7266 20.3398 15.8047 20.3398 13.4023C20.3398 11.0117 18.4062 9.07812 16.0156 9.07812C13.625 9.07812 11.6914 11.0117 11.6914 13.4023C11.6914 15.8047 13.625 17.7266 16.0156 17.7266Z" fill="black" fill-opacity="0.85"/>
</g>
<defs>
<clipPath id="clip0_2124_67757">
<rect width="24.7383" height="23.918" fill="white" transform="translate(2 2)"/>
</clipPath>
</defs>
</svg>
