<svg width="28" height="28" viewBox="0 0 28 28" fill="none" xmlns="http://www.w3.org/2000/svg">
<g clip-path="url(#clip0_2124_68657)">
<path d="M-1 14.8736C-1 17.3814 -0.589844 18.5299 1.27344 19.4908L7.87109 22.8775C10.2969 24.1314 12.0312 24.4478 14.75 23.651L24.8984 20.6978C28.0273 19.7721 29.3281 17.9088 29.3281 14.8736V7.56116C29.3281 5.44006 27.9219 3.99866 25.8125 3.99866L2.53906 3.98694C0.42969 3.98694 -1 5.41663 -1 7.526V14.8736ZM0.88672 14.8736V7.56116C0.88672 6.54163 1.55469 5.87366 2.57422 5.87366L25.7891 5.88538C26.7852 5.88538 27.4414 6.56506 27.4414 7.59631V14.8736C27.4414 17.0064 26.5625 18.2838 24.3594 18.9283L14.75 21.776C12.3125 22.5025 10.8945 22.2916 8.87891 21.2721L2.46875 18.0025C1.21484 17.3697 0.88672 16.608 0.88672 14.8736Z" fill="black" fill-opacity="0.85"/>
</g>
<defs>
<clipPath id="clip0_2124_68657">
<rect width="28" height="28" fill="white"/>
</clipPath>
</defs>
</svg>
