<svg width="28" height="28" viewBox="0 0 28 28" fill="none" xmlns="http://www.w3.org/2000/svg">
<path d="M13.9531 25.9062C20.4922 25.9062 25.9062 20.4805 25.9062 13.9531C25.9062 7.41406 20.4805 2 13.9414 2C7.41406 2 2 7.41406 2 13.9531C2 20.4805 7.42578 25.9062 13.9531 25.9062ZM13.9531 23.9141C8.42188 23.9141 4.00391 19.4844 4.00391 13.9531C4.00391 8.42188 8.41016 3.99219 13.9414 3.99219C19.4727 3.99219 23.9141 8.42188 23.9141 13.9531C23.9141 19.4844 19.4844 23.9141 13.9531 23.9141Z" fill="black" fill-opacity="0.85"/>
<path d="M10.2148 18.9336C12.5469 18.9336 13.2383 16.3086 13.2383 13.9531C13.2383 11.5977 12.5469 8.97266 10.2148 8.97266C7.87109 8.97266 7.17969 11.5977 7.17969 13.9531C7.17969 16.3086 7.87109 18.9336 10.2148 18.9336ZM10.2148 17.5391C9.25391 17.5391 8.89062 15.9805 8.89062 13.9531C8.89062 11.9141 9.25391 10.3555 10.2148 10.3555C11.1641 10.3555 11.5273 11.9141 11.5273 13.9531C11.5273 15.9805 11.1641 17.5391 10.2148 17.5391ZM17.4453 18.8984C19.1211 18.8984 20.4102 17.8438 20.4102 16.0859C20.4102 14.6328 19.543 13.918 18.5586 13.8125V13.7773C19.6133 13.4961 20.1406 12.5469 20.1406 11.5625C20.1406 9.94531 18.9219 9.01953 17.3984 9.01953C16.1914 9.01953 15.1367 9.69922 14.7969 10.7422C14.7383 10.9648 14.7148 11.1758 14.7148 11.375C14.7148 11.7617 14.9727 12.0664 15.4297 12.0664C15.8281 12.0664 16.0625 11.9141 16.1797 11.5039C16.3672 10.8125 16.7422 10.3789 17.3984 10.3789C18.1719 10.3789 18.5352 10.9766 18.5352 11.75C18.5352 12.6055 18.0664 13.2266 17.1875 13.2266H16.9062C16.5078 13.2266 16.2617 13.4727 16.2617 13.8594C16.2617 14.2461 16.5195 14.4688 16.9062 14.4688H17.1992C18.1953 14.4688 18.7461 15.0195 18.7461 16.0391C18.7461 16.8477 18.3125 17.5391 17.4453 17.5391C16.5898 17.5391 16.2148 16.9648 16.0625 16.4258C15.957 16.0508 15.6992 15.8516 15.3242 15.8516C14.8672 15.8516 14.5625 16.1328 14.5625 16.5898C14.5625 16.8008 14.5977 17.0117 14.6562 17.1992C14.9844 18.2891 16.1797 18.8984 17.4453 18.8984Z" fill="black" fill-opacity="0.85"/>
</svg>
