<svg width="35" height="28" viewBox="0 0 35 28" fill="none" xmlns="http://www.w3.org/2000/svg">
<g clip-path="url(#clip0_2124_50201)">
<path d="M3.62109 19.6523H31.3242C33.7266 19.6523 34.957 18.4336 34.957 16.0781V9.57422C34.957 7.21875 33.7266 6 31.3242 6H3.62109C1.24219 6 0 7.21875 0 9.57422V16.0781C0 18.4336 1.24219 19.6523 3.62109 19.6523ZM6.64453 15.4336C5.17969 15.4336 4.00781 14.2617 4.00781 12.8086C4.00781 11.3438 5.17969 10.1719 6.64453 10.1719C8.08594 10.1719 9.25781 11.3438 9.25781 12.8086C9.25781 14.2617 8.08594 15.4336 6.64453 15.4336ZM12.6328 15.4453C12.0352 15.4453 11.6367 15.0586 11.6367 14.4609V11.2031C11.6367 10.6055 12.0352 10.207 12.6328 10.207H22.3125C22.9219 10.207 23.3086 10.6055 23.3086 11.2031V14.4609C23.3086 15.0586 22.9219 15.4453 22.3125 15.4453H12.6328ZM28.3125 15.4336C26.8711 15.4336 25.6992 14.2617 25.6992 12.8086C25.6992 11.3438 26.8711 10.1719 28.3125 10.1719C29.7656 10.1719 30.9375 11.3438 30.9375 12.8086C30.9375 14.2617 29.7656 15.4336 28.3125 15.4336ZM8.68359 18.9258H2.60156V20.6484C2.60156 21.2227 2.98828 21.6094 3.5625 21.6094H7.72266C8.30859 21.6094 8.68359 21.2227 8.68359 20.6484V18.9258ZM26.2734 18.9258V20.6484C26.2734 21.2227 26.6484 21.6094 27.2344 21.6094H31.3828C31.9688 21.6094 32.3555 21.2227 32.3555 20.6484V18.9258H26.2734Z" fill="black" fill-opacity="0.85"/>
</g>
<defs>
<clipPath id="clip0_2124_50201">
<rect width="34.957" height="15.6211" fill="white" transform="translate(0 6)"/>
</clipPath>
</defs>
</svg>
