<svg width="28" height="28" viewBox="0 0 28 28" fill="none" xmlns="http://www.w3.org/2000/svg">
<path d="M9.23438 24.0352H18.3984C25.1953 24.0352 27.6328 21.5156 27.6328 15.2461V11.8008C27.6328 5.53125 25.1953 3 18.3984 3H9.23438C2.4375 3 0 5.53125 0 11.8008V15.2461C0 21.5156 2.4375 24.0352 9.23438 24.0352ZM9.23438 22.1484C3.70312 22.1484 1.88672 20.3555 1.88672 15.2461V11.8008C1.88672 6.69141 3.70312 4.88672 9.23438 4.88672H18.3984C23.9297 4.88672 25.7461 6.69141 25.7461 11.8008V15.2461C25.7461 20.3555 23.9297 22.1484 18.3984 22.1484H9.23438Z" fill="black" fill-opacity="0.85"/>
<path d="M9.10547 18.375C9.66797 18.375 9.96094 18.0352 9.96094 17.4961V15.1172H11.1914C12.9844 15.1172 14.0156 13.7578 14.0156 11.9531C14.0156 10.1719 13.0078 8.76562 11.2969 8.76562H9.09375C8.60156 8.76562 8.25 9.09375 8.25 9.66797V17.4961C8.25 18.0469 8.55469 18.375 9.10547 18.375ZM9.96094 13.7695V10.1484H10.8633C11.8477 10.1484 12.3164 10.8516 12.3164 11.9531C12.3164 12.9961 11.8945 13.7695 10.8516 13.7695H9.96094ZM17.9414 18.3867C18.3984 18.3867 18.7852 18 18.7852 17.5312V9.58594C18.7852 8.98828 18.4102 8.63672 17.8008 8.63672C17.3086 8.63672 16.9102 8.90625 16.6406 9.11719L15.3516 10.1133C15.1406 10.2773 14.9766 10.5 14.9766 10.8047C14.9766 11.168 15.2227 11.4258 15.5742 11.4258C15.7617 11.4258 15.8789 11.3672 15.9961 11.2852L17.0742 10.418V17.5312C17.0742 18 17.4609 18.3867 17.9414 18.3867Z" fill="black" fill-opacity="0.85"/>
</svg>
