<svg width="28" height="31" viewBox="0 0 28 31" fill="none" xmlns="http://www.w3.org/2000/svg">
<path d="M23.25 24.668C23.8477 24.668 24.2344 24.293 24.2344 23.6836V13.5234C24.2344 12.9141 23.8477 12.5391 23.25 12.5391C22.6523 12.5391 22.2656 12.9141 22.2656 13.5352V23.6719C22.2656 24.293 22.6523 24.668 23.25 24.668ZM23.25 16.4766V14.9414H19.1133V16.4766H23.25ZM11.4375 30.2578C17.3555 30.2578 19.875 28.957 19.875 25.7695V5.42578C19.875 2.00391 16.7695 0 11.4375 0C6.10547 0 3 2.00391 3 5.42578V25.7695C3 28.957 5.51953 30.2578 11.4375 30.2578ZM11.4375 28.3125C6.90234 28.3125 4.95703 27.5508 4.95703 25.6758V5.42578C4.95703 3.23438 7.33594 1.95703 11.4375 1.95703C15.5273 1.95703 17.918 3.23438 17.918 5.42578V25.6758C17.918 27.5508 15.9609 28.3125 11.4375 28.3125ZM11.4375 12.5859C12.4805 12.5859 14.2617 12.668 14.8594 12.668C15.7383 12.668 16.125 12.3281 16.1953 11.4141L16.3945 9.21094C16.5352 7.52344 15.3516 6.84375 11.4375 6.84375C7.52344 6.84375 6.33984 7.52344 6.48047 9.21094L6.67969 11.4141C6.75 12.3281 7.13672 12.668 8.02734 12.668C8.61328 12.668 10.3242 12.5859 11.4375 12.5859ZM11.4375 25.0898C15.375 25.0898 16.582 24.5039 16.3359 22.7812L16.1953 21.7148C16.0078 20.3086 14.8359 19.8398 11.4375 19.8398C8.03906 19.8398 6.87891 20.3086 6.67969 21.7148L6.53906 22.7812C6.29297 24.5039 7.5 25.0898 11.4375 25.0898Z" fill="black" fill-opacity="0.85"/>
</svg>
