<svg width="28" height="31" viewBox="0 0 28 31" fill="none" xmlns="http://www.w3.org/2000/svg">
<path d="M11.4375 30.2578C17.3555 30.2578 19.875 28.957 19.875 25.7695V5.42578C19.875 2.00391 16.7695 0 11.4375 0C6.11719 0 3 2.00391 3 5.42578V25.7695C3 28.957 5.53125 30.2578 11.4375 30.2578ZM11.4492 12.4805C10.3008 12.4805 8.54297 12.5625 7.92188 12.5625C7.01953 12.5625 6.62109 12.2109 6.52734 11.2734L6.33984 9C6.17578 7.25391 7.40625 6.55078 11.4492 6.55078C15.4805 6.55078 16.7109 7.25391 16.5469 9L16.3594 11.2734C16.2656 12.2109 15.8789 12.5625 14.9648 12.5625C14.3555 12.5625 12.5273 12.4805 11.4492 12.4805ZM11.4492 25.3828C7.37109 25.3828 6.12891 24.7734 6.38672 22.9922L6.53906 21.8906C6.73828 20.4492 7.94531 19.957 11.4492 19.957C14.9414 19.957 16.1484 20.4492 16.3477 21.8906L16.5 22.9922C16.7578 24.7734 15.5156 25.3828 11.4492 25.3828ZM18.9961 8.16797V10.9219L23.3438 15.2578C23.7305 15.6445 24.3398 15.6328 24.7266 15.2578C25.1016 14.8711 25.1016 14.25 24.7266 13.8633L18.9961 8.16797Z" fill="black" fill-opacity="0.85"/>
</svg>
