<svg width="28" height="28" viewBox="0 0 28 28" fill="none" xmlns="http://www.w3.org/2000/svg">
<path d="M13.9531 25.9062C20.4922 25.9062 25.9062 20.4805 25.9062 13.9531C25.9062 7.41406 20.4805 2 13.9414 2C7.41406 2 2 7.41406 2 13.9531C2 20.4805 7.42578 25.9062 13.9531 25.9062Z" fill="black" fill-opacity="0.85"/>
<path d="M11.0117 10.707C10.6133 10.707 10.2852 10.3672 10.2852 9.96875C10.2852 9.55859 10.5898 9.24219 11.0117 9.24219H20.0586C20.4805 9.24219 20.8086 9.55859 20.8086 9.96875C20.8086 10.3789 20.4805 10.707 20.0586 10.707H11.0117ZM11.0117 18.6992C10.5898 18.6992 10.2852 18.3711 10.2852 17.9609C10.2852 17.5625 10.6133 17.2344 11.0117 17.2344H20.0586C20.4805 17.2344 20.8086 17.5508 20.8086 17.9609C20.8086 18.3711 20.4805 18.6992 20.0586 18.6992H11.0117ZM11.0117 14.7031C10.6133 14.7031 10.2852 14.3633 10.2852 13.9648C10.2852 13.5664 10.6133 13.2383 11.0117 13.2383H20.0586C20.4805 13.2383 20.8086 13.5547 20.8086 13.9648C20.8086 14.375 20.4805 14.7031 20.0586 14.7031H11.0117ZM8.09375 11.0117C7.51953 11.0117 7.0625 10.543 7.0625 9.96875C7.0625 9.38281 7.51953 8.92578 8.09375 8.92578C8.67969 8.92578 9.13672 9.38281 9.13672 9.96875C9.13672 10.5313 8.66797 11.0117 8.09375 11.0117ZM8.09375 15.0078C7.51953 15.0078 7.0625 14.5508 7.0625 13.9648C7.0625 13.3789 7.51953 12.9219 8.09375 12.9219C8.66797 12.9219 9.13672 13.3906 9.13672 13.9648C9.13672 14.5391 8.66797 15.0078 8.09375 15.0078ZM8.09375 19.0039C7.51953 19.0039 7.0625 18.5469 7.0625 17.9609C7.0625 17.3867 7.51953 16.918 8.09375 16.918C8.66797 16.918 9.13672 17.3984 9.13672 17.9609C9.13672 18.5469 8.67969 19.0039 8.09375 19.0039Z" fill="white"/>
</svg>
