<svg width="28" height="28" viewBox="0 0 28 28" fill="none" xmlns="http://www.w3.org/2000/svg">
<path d="M13.9531 25.9062C20.4922 25.9062 25.9062 20.4805 25.9062 13.9531C25.9062 7.41406 20.4805 2 13.9414 2C7.41406 2 2 7.41406 2 13.9531C2 20.4805 7.42578 25.9062 13.9531 25.9062ZM13.9531 23.9141C8.42188 23.9141 4.00391 19.4844 4.00391 13.9531C4.00391 8.42188 8.41016 3.99219 13.9414 3.99219C19.4727 3.99219 23.9141 8.42188 23.9141 13.9531C23.9141 19.4844 19.4844 23.9141 13.9531 23.9141Z" fill="black" fill-opacity="0.85"/>
<path d="M9.17188 16.3672C9.17188 16.6953 9.39453 16.9414 9.74609 16.9414H10.3789L9.79297 18.6641C9.74609 18.8398 9.73438 18.957 9.73438 19.0508C9.73438 19.4492 10.0391 19.7422 10.4844 19.7422C10.8594 19.7422 11.1172 19.5664 11.2344 19.168L11.9375 16.9414H15.9336L16.6367 19.1797C16.7539 19.5781 16.9883 19.7422 17.375 19.7422C17.8203 19.7422 18.1367 19.4492 18.1367 19.0508C18.1367 18.957 18.1133 18.8398 18.0547 18.6641L17.4688 16.9414H18.125C18.4766 16.9414 18.6992 16.6953 18.6992 16.3672C18.6992 16.0391 18.4766 15.7812 18.125 15.7812H17.1055L16.7773 14.7969H18.125C18.4766 14.7969 18.6992 14.5391 18.6992 14.2109C18.6992 13.8828 18.4766 13.6367 18.125 13.6367H16.3906L14.832 8.94922C14.6914 8.52734 14.4102 8.26953 13.9297 8.26953C13.4375 8.26953 13.1562 8.51562 13.0156 8.94922L11.4687 13.6367H9.74609C9.39453 13.6367 9.17188 13.8828 9.17188 14.2109C9.17188 14.5391 9.39453 14.7969 9.74609 14.7969H11.082L10.7539 15.7812H9.74609C9.39453 15.7812 9.17188 16.0391 9.17188 16.3672ZM12.2773 15.7812L12.5938 14.7969H15.2656L15.582 15.7812H12.2773ZM12.9453 13.6367L13.9297 10.4961L14.9141 13.6367H12.9453Z" fill="black" fill-opacity="0.85"/>
</svg>
