<svg width="28" height="28" viewBox="0 0 28 28" fill="none" xmlns="http://www.w3.org/2000/svg">
<path d="M4.68359 19.1211C6.45312 17.7852 6.39453 15.5352 7.0625 15.5352C7.42578 15.5352 7.78906 15.8516 8.42188 16.6602C9.5 18.0547 10.2148 18.7461 10.9414 18.7461C11.6211 18.7461 12.4531 17.75 12.4531 16.9531C12.4531 16.5781 11.75 16.0977 11.75 15.8164C11.75 15.6523 11.9141 15.5703 12.1484 15.5703C13.8008 15.5703 15.2539 14.1875 15.2539 13.0859C15.2539 12.3008 13.9766 11.5742 13.9766 11.0703C13.9766 10.8594 14.1523 10.7188 14.3633 10.7188C14.5039 10.7188 14.668 10.7773 14.8789 10.9297C16.1562 11.9375 16.7539 11.4102 16.8711 10.7656C16.918 10.4961 17.0703 10.2148 17.7383 9.88672C19.1328 9.14844 20.1172 8.14062 20.1172 7.35547C20.1172 6.47656 18.5234 5.72656 18.5234 5.38672C18.5234 5.19922 18.8164 5.03516 19.5898 4.80078C18.3828 3.69922 16.4609 2.89062 13.9414 2.89062C7.32031 3.14844 3.01953 7.88281 2.98438 13.9531C2.97266 15.8516 3.57031 17.7383 4.68359 19.1211ZM19.1797 23.8555C21.4766 22.3906 23.1641 20.6094 24.2422 18.5469C24.043 17.0469 23.3281 16.1797 22.3203 16.1797C22.0508 16.1797 21.7109 16.2266 21.4062 16.332C20.9961 16.4609 20.9141 16.4375 20.5859 16.0625C20.1172 15.5234 19.707 15.3359 19.0625 15.3359C17.8438 15.3359 17.1406 15.9688 16.6133 17.5508C16.4609 18.0312 16.25 18.1953 15.4297 18.5117L14.9375 18.6875C14.0234 19.0391 13.7891 19.6953 14.1055 21.0781C14.3867 22.2969 14.9727 22.918 15.8047 22.918C16.5547 22.918 17.0117 22.6484 17.5273 22.6484C18.2773 22.625 18.6523 23.1172 19.1797 23.8555ZM16.7773 13.2383C17.5391 13.2383 17.8789 12.5586 18.7344 12.3008C19.2969 12.1367 19.6016 11.5625 19.6016 11.0703C19.6016 10.6719 19.4023 10.332 18.9688 10.332C18.5117 10.332 18.0898 10.6836 17.8086 11.2812C17.6562 11.6211 17.3984 11.7852 16.7773 11.9609C16.2852 12.1133 16.1094 12.2891 16.1094 12.6641C16.1094 13.0625 16.4258 13.2383 16.7773 13.2383ZM13.3789 18.6523C14.0469 18.6523 14.7031 17.8789 14.7031 17.1875C14.7031 16.332 14.3516 15.9336 13.9414 15.9336C13.4961 15.9336 13.2148 16.4609 13.2148 17.2578C13.2148 17.7148 12.8164 17.7266 12.8164 18.1836C12.8164 18.4648 13.0391 18.6523 13.3789 18.6523ZM11.3281 20.7969C11.8438 20.7969 12.1602 20.5273 12.1602 20.1055C12.1602 19.7773 11.9141 19.5664 11.5625 19.5664C10.1445 19.5664 10.0859 18.7695 9.40625 18.7695C9.03125 18.7695 8.77344 18.9922 8.77344 19.3203C8.77344 19.5781 9.03125 19.7773 9.38281 19.7773C10.1328 19.7773 9.78125 20.7969 11.3281 20.7969ZM13.9531 25.9062C20.4922 25.9062 25.9062 20.4805 25.9062 13.9531C25.9062 7.41406 20.4805 2 13.9414 2C7.41406 2 2 7.41406 2 13.9531C2 20.4805 7.42578 25.9062 13.9531 25.9062ZM13.9531 24.3125C8.29297 24.3125 3.59375 19.6133 3.59375 13.9531C3.59375 8.29297 8.28125 3.59375 13.9414 3.59375C19.6016 3.59375 24.3125 8.29297 24.3125 13.9531C24.3125 19.6133 19.6133 24.3125 13.9531 24.3125Z" fill="black" fill-opacity="0.85"/>
</svg>
