<svg width="29" height="31" viewBox="0 0 29 31" fill="none" xmlns="http://www.w3.org/2000/svg">
<g clip-path="url(#clip0_2124_46049)">
<path d="M11.4863 3.35937C12.4121 3.35937 13.1504 2.62109 13.1504 1.69531C13.1504 0.769531 12.4121 0.0195312 11.4863 0.0195312C10.5488 0.0195312 9.81054 0.769531 9.81054 1.69531C9.81054 2.62109 10.5488 3.35937 11.4863 3.35937ZM5.69726 8.55078C6.62304 8.55078 7.36132 7.8125 7.36132 6.88672C7.36132 5.94922 6.62304 5.21094 5.69726 5.21094C4.75977 5.21094 4.02148 5.94922 4.02148 6.88672C4.02148 7.8125 4.75977 8.55078 5.69726 8.55078ZM17.3457 8.55078C18.2715 8.55078 19.0215 7.8125 19.0215 6.88672C19.0215 5.94922 18.2715 5.21094 17.3457 5.21094C16.4199 5.21094 15.6699 5.94922 15.6699 6.88672C15.6699 7.8125 16.4199 8.55078 17.3457 8.55078ZM22.5371 8.55078C23.4629 8.55078 24.2012 7.8125 24.2012 6.88672C24.2012 5.94922 23.4629 5.21094 22.5371 5.21094C21.6113 5.21094 20.8613 5.94922 20.8613 6.88672C20.8613 7.8125 21.6113 8.55078 22.5371 8.55078ZM22.5371 3.35937C23.4629 3.35937 24.2012 2.62109 24.2012 1.69531C24.2012 0.769531 23.4629 0.0195312 22.5371 0.0195312C21.6113 0.0195312 20.8613 0.769531 20.8613 1.69531C20.8613 2.62109 21.6113 3.35937 22.5371 3.35937Z" fill="black" fill-opacity="0.85"/>
<path d="M15.541 29.539C20.627 29.539 23.4863 26.3515 23.4863 20.914V18.664C23.4863 16.6015 22.502 15.3476 21.377 15.3476C21.1309 15.3476 20.9903 15.4765 20.9903 15.7226V16.7187C20.9903 17.1875 20.7559 17.4218 20.4746 17.4218C20.1699 17.4218 19.9238 17.1875 19.9238 16.7187V16.0625C19.9238 14.8554 19.1504 14.0586 18.0957 14.0586C17.627 14.0586 17.416 14.2578 17.416 14.6562V16.0156C17.416 16.4843 17.1699 16.7187 16.8887 16.7187C16.584 16.7187 16.3496 16.4843 16.3496 16.0156V14.7617C16.3496 13.4023 15.5527 12.7578 14.5332 12.7578C14.0879 12.7578 13.8535 12.9687 13.8535 13.3554V16.0156C13.8535 16.4843 13.6074 16.7187 13.3262 16.7187C13.0215 16.7187 12.7871 16.4843 12.7871 16.0156V7.12109C12.7871 6.25391 12.2129 5.67969 11.4863 5.67969C10.6895 5.67969 10.1504 6.25391 10.1504 7.12109V20.1406C10.1504 20.4687 9.95118 20.6328 9.74024 20.6328C9.54102 20.6328 9.38868 20.5156 9.24805 20.1875L7.51368 16.1211C7.26758 15.5234 6.86915 15.2656 6.3418 15.2656C5.54493 15.2656 5.0293 15.8164 5.0293 16.4726C5.0293 16.7422 5.07618 16.9648 5.14649 17.1523L7.04493 22.8125C8.6504 27.582 11.8027 29.539 15.541 29.539Z" fill="black" fill-opacity="0.85"/>
</g>
<defs>
<clipPath id="clip0_2124_46049">
<rect width="20.1797" height="29.9883" fill="white" transform="translate(4.02148 0.0195312)"/>
</clipPath>
</defs>
</svg>
