<svg width="38" height="29" viewBox="0 0 38 29" fill="none" xmlns="http://www.w3.org/2000/svg">
<path d="M8.36948 9.19866L10.9359 10.6752L11.8734 9.04631L9.37728 7.60491C8.93197 7.3471 8.87338 6.99553 9.18978 6.45647L9.98667 5.05022C10.6077 3.98381 11.7093 3.74944 13.2445 4.39397L17.264 6.09319L21.8929 5.92913C24.1781 5.85881 25.2796 6.19866 28.2445 7.89788L30.0726 8.92913C32.1585 10.1244 33.2835 11.9291 33.5648 14.8119L35.2406 16.4525C35.7679 16.9799 35.721 17.3666 35.4046 17.9174L33.7874 20.7299C33.4945 21.2338 33.1781 21.3393 32.7913 21.1049L30.6702 19.8979L29.721 21.5268L32.0765 22.8744C33.2952 23.5893 34.514 23.2377 35.2406 21.9721L37.0452 18.8783C37.7015 17.7299 37.9241 16.5111 36.6585 15.1166L35.3929 13.7455C35.0648 11.9525 34.2445 9.17522 30.9984 7.30022L29.182 6.24553C25.9476 4.38225 24.4593 3.96038 21.8226 4.04241L17.6156 4.19475L13.971 2.64788C11.5921 1.64006 9.47103 2.17913 8.34603 4.11272L7.45541 5.64788C6.6351 7.07756 6.97495 8.40178 8.36948 9.19866ZM14.1937 12.5502L26.5335 19.6869L27.4827 18.058L15.1312 10.9213L14.1937 12.5502ZM11.4866 13.3588C13.0921 14.2846 15.0609 13.7455 15.9866 12.1635C16.9007 10.558 16.3616 8.58928 14.7796 7.67522C13.1859 6.76116 11.2171 7.27678 10.2913 8.88225C9.37728 10.4643 9.91635 12.4447 11.4866 13.3588ZM12.4476 11.7299C11.7327 11.3197 11.5101 10.5229 11.932 9.83147C12.3187 9.11663 13.1273 8.89397 13.8421 9.30413C14.557 9.71428 14.7679 10.5111 14.346 11.2143C13.9476 11.9291 13.1507 12.1518 12.4476 11.7299ZM27.1663 22.4174C28.7718 23.3315 30.7288 22.7924 31.6663 21.2221C32.5687 19.6049 32.0413 17.6361 30.4476 16.7221C28.8538 15.8197 26.8851 16.3236 25.9593 17.9291C25.057 19.5111 25.5726 21.4916 27.1663 22.4174ZM28.1156 20.7768C27.4124 20.3666 27.1898 19.5697 27.5999 18.8666C27.9984 18.1635 28.7952 17.9408 29.5218 18.351C30.2249 18.7611 30.4359 19.558 30.0257 20.2611C29.6156 20.9877 28.8187 21.1986 28.1156 20.7768Z" fill="black" fill-opacity="0.85"/>
<path d="M0.13108 9.91348C-0.138452 10.3822 0.0256111 10.9565 0.459205 11.2143L30.6936 28.6635C31.1155 28.9096 31.7014 28.7572 31.9592 28.3236C32.217 27.8549 32.053 27.269 31.6311 27.0229L1.3967 9.57364C0.97483 9.32754 0.377173 9.47989 0.13108 9.91348ZM4.51389 5.48379L6.98655 1.21817C7.3967 0.503326 6.82249 -0.129486 6.09592 0.0228572L2.32249 0.714264C1.80686 0.808014 1.57249 1.20645 1.75999 1.71036L3.03733 5.30801C3.28342 6.02286 4.10374 6.18692 4.51389 5.48379Z" fill="black" fill-opacity="0.85"/>
</svg>
