<svg width="28" height="28" viewBox="0 0 28 28" fill="none" xmlns="http://www.w3.org/2000/svg">
<path d="M13.9531 25.9062C20.4922 25.9062 25.9062 20.4805 25.9062 13.9531C25.9062 7.41406 20.4805 2 13.9414 2C7.41406 2 2 7.41406 2 13.9531C2 20.4805 7.42578 25.9062 13.9531 25.9062ZM13.9531 23.9141C8.42188 23.9141 4.00391 19.4844 4.00391 13.9531C4.00391 8.42188 8.41016 3.99219 13.9414 3.99219C19.4727 3.99219 23.9141 8.42188 23.9141 13.9531C23.9141 19.4844 19.4844 23.9141 13.9531 23.9141Z" fill="black" fill-opacity="0.85"/>
<path d="M9.17188 14.0586C9.17188 16.1094 9.81641 17.7031 10.9414 18.6758L10.5078 20.375C10.4844 20.4688 10.4727 20.5508 10.4727 20.6328C10.4727 20.9844 10.6953 21.2188 11.0352 21.2188C11.3281 21.2188 11.5391 21.0781 11.6211 20.7617L11.9844 19.3203C12.3125 19.4609 12.6523 19.5664 13.0156 19.625L12.8281 20.3867C12.793 20.4805 12.7812 20.5508 12.7812 20.6328C12.7812 20.9844 13.0039 21.2188 13.3555 21.2188C13.6367 21.2188 13.8594 21.0781 13.9414 20.7617L14.2109 19.6953C16.1094 19.6016 17.4805 18.6172 17.9961 17.1523C18.0664 16.9648 18.1133 16.7539 18.1133 16.5547C18.1133 16.1328 17.832 15.8164 17.3867 15.8164C16.9883 15.8164 16.7539 16.0977 16.6367 16.4492C16.3789 17.375 15.6172 18.0664 14.5859 18.2188L16.3555 11.293C16.4609 11.3984 16.5547 11.5742 16.6133 11.7852C16.7305 12.0664 16.9062 12.3477 17.3164 12.3477C17.75 12.3477 18.0312 12.0664 18.0312 11.6211C18.0312 11.4336 17.9844 11.2344 17.9141 11.0469C17.6914 10.4258 17.3047 9.88672 16.8125 9.46484L17.1875 7.96484C17.2227 7.87109 17.2344 7.78906 17.2344 7.70703C17.2344 7.36719 17.0117 7.13281 16.6602 7.13281C16.3789 7.13281 16.1562 7.27344 16.0742 7.58984L15.7461 8.82031C15.4414 8.67969 15.1016 8.58594 14.7383 8.51562L14.8672 7.96484C14.9023 7.88281 14.9141 7.78906 14.9141 7.70703C14.9141 7.36719 14.6914 7.13281 14.3398 7.13281C14.0586 7.13281 13.8359 7.27344 13.7539 7.58984L13.5312 8.46875C10.8828 8.65625 9.17188 10.8008 9.17188 14.0586ZM10.7422 14.0586C10.7422 11.8789 11.6445 10.3555 13.1445 9.98047L11.4102 16.8125C10.9766 16.1094 10.7422 15.1836 10.7422 14.0586ZM12.3477 17.8672L14.3867 9.91016C14.75 9.95703 15.0898 10.0859 15.3945 10.2617L13.3672 18.2539C12.9805 18.1953 12.6523 18.0664 12.3477 17.8672Z" fill="black" fill-opacity="0.85"/>
</svg>
