<svg width="28" height="28" viewBox="0 0 28 28" fill="none" xmlns="http://www.w3.org/2000/svg">
<path d="M13.9531 25.9062C20.4922 25.9062 25.9062 20.4805 25.9062 13.9531C25.9062 7.41406 20.4805 2 13.9414 2C7.41406 2 2 7.41406 2 13.9531C2 20.4805 7.42578 25.9062 13.9531 25.9062Z" fill="black" fill-opacity="0.85"/>
<path d="M11.3984 18.9922C11.0234 18.9922 10.5547 18.7695 10.5547 18.125V16.9297H7.85938C7.26172 16.9297 6.86328 16.5312 6.86328 15.9453C6.86328 15.5703 6.93359 15.2539 7.13281 14.7852L9.27734 10.0977C9.61719 9.34766 10.0273 8.91406 10.8828 8.91406C11.6797 8.91406 12.2188 9.38281 12.2188 10.2266V15.5234H12.6523C13.1328 15.5234 13.3438 15.8281 13.3438 16.2148C13.3438 16.625 13.1211 16.9297 12.6523 16.9297H12.2188V18.125C12.2188 18.7109 11.8555 18.9922 11.3984 18.9922ZM10.5898 15.5586V10.4375H10.543L8.35156 15.4766V15.5586H10.5898ZM16.918 15.4648C15.3242 15.4648 14.5391 13.918 14.5391 12.2891C14.5391 10.3906 15.6055 8.84375 17.4453 8.84375C19.8945 8.84375 20.6211 11.5742 20.6211 13.8594C20.6211 16.332 19.8945 19.0742 17.4219 19.0742C16.2148 19.0742 15.1602 18.4414 14.9023 17.3867C14.8672 17.2461 14.832 17.0938 14.832 16.9531C14.832 16.5547 15.0547 16.2148 15.5586 16.2148C15.9219 16.2148 16.168 16.3672 16.332 16.7656C16.5547 17.2812 16.918 17.6562 17.457 17.6562C18.8047 17.6562 18.9688 15.2422 18.9688 13.9062C18.9688 13.8711 18.9688 13.8242 18.9688 13.7773H18.9219C18.6523 14.8086 17.9141 15.4648 16.918 15.4648ZM17.4688 14.1289C18.3359 14.1289 18.7461 13.1445 18.7461 12.207C18.7461 11.3047 18.3711 10.2617 17.4688 10.2617C16.625 10.2617 16.2148 11.3047 16.2148 12.207C16.2148 13.0977 16.5781 14.1289 17.4688 14.1289Z" fill="white"/>
</svg>
