<svg width="28" height="28" viewBox="0 0 28 28" fill="none" xmlns="http://www.w3.org/2000/svg">
<g clip-path="url(#clip0_2124_88420)">
<path d="M7.78125 24.5977H20.0859C22.3945 24.5977 23.3203 23.3789 23.6602 21.1055L25.3242 9.94922H2.54297L4.21875 21.1055C4.55859 23.3906 5.48438 24.5977 7.78125 24.5977ZM1.99219 8.35547H25.8867C27.2109 8.35547 27.8789 7.57031 27.8789 6.25781V5.12109C27.8789 3.80859 27.2109 3.02344 25.8867 3.02344H1.99219C0.738281 3.02344 0 3.80859 0 5.12109V6.25781C0 7.57031 0.667969 8.35547 1.99219 8.35547Z" fill="black" fill-opacity="0.85"/>
<path d="M14.8711 21.0117C14.8711 21.5039 14.4492 21.9141 13.9453 21.9141C13.4414 21.9141 13.0078 21.5039 13.0078 21.0117V16.6875L13.0898 14.7188L12.082 15.7734L11.0156 16.8516C10.8398 17.0273 10.6055 17.1328 10.3711 17.1328C9.8672 17.1328 9.51562 16.7812 9.51562 16.2891C9.51562 16.0078 9.63281 15.8086 9.82031 15.6328L13.2656 12.4688C13.5234 12.2344 13.7109 12.1523 13.9453 12.1523C14.1797 12.1523 14.3672 12.2344 14.625 12.4688L18.0703 15.6328C18.2578 15.8086 18.375 16.0078 18.375 16.2891C18.375 16.7812 18 17.1328 17.5195 17.1328C17.2734 17.1328 17.0391 17.0273 16.875 16.8516L15.8086 15.7734L14.8008 14.7188L14.8711 16.6875V21.0117Z" fill="white"/>
</g>
<defs>
<clipPath id="clip0_2124_88420">
<rect width="27.8789" height="21.5977" fill="white" transform="translate(0 3)"/>
</clipPath>
</defs>
</svg>
