<svg width="28" height="28" viewBox="0 0 28 28" fill="none" xmlns="http://www.w3.org/2000/svg">
<g clip-path="url(#clip0_2124_88411)">
<path d="M7.28516 24.5977H20.1406C22.4492 24.5977 23.6797 23.4023 23.6797 21.1055V8.58984H21.793V21.1992C21.793 22.2539 21.207 22.8281 20.1641 22.8281H7.26172C6.20703 22.8281 5.63281 22.2539 5.63281 21.1992V8.58984H3.74609V21.1055C3.74609 23.4141 4.97656 24.5977 7.28516 24.5977ZM9.85156 14.1914H17.5859C18.0781 14.1914 18.4297 13.8516 18.4297 13.3359V12.9609C18.4297 12.4453 18.0781 12.1172 17.5859 12.1172H9.85156C9.35938 12.1172 9.01953 12.4453 9.01953 12.9609V13.3359C9.01953 13.8516 9.35938 14.1914 9.85156 14.1914ZM4.22656 9.46875H23.1992C24.6406 9.46875 25.4258 8.56641 25.4258 7.13672V5.35547C25.4258 3.92578 24.6406 3.02344 23.1992 3.02344H4.22656C2.85547 3.02344 2 3.92578 2 5.35547V7.13672C2 8.56641 2.78516 9.46875 4.22656 9.46875ZM4.70703 7.69922C4.12109 7.69922 3.88672 7.45312 3.88672 6.86719V5.625C3.88672 5.03906 4.12109 4.79297 4.70703 4.79297H22.7305C23.3164 4.79297 23.5391 5.03906 23.5391 5.625V6.86719C23.5391 7.45312 23.3164 7.69922 22.7305 7.69922H4.70703Z" fill="black" fill-opacity="0.85"/>
</g>
<defs>
<clipPath id="clip0_2124_88411">
<rect width="23.4258" height="21.5977" fill="white" transform="translate(2 3)"/>
</clipPath>
</defs>
</svg>
