<svg width="28" height="28" viewBox="0 0 28 28" fill="none" xmlns="http://www.w3.org/2000/svg">
<path d="M13.9531 25.9062C20.4922 25.9062 25.9062 20.4805 25.9062 13.9531C25.9062 7.41406 20.4805 2 13.9414 2C7.41406 2 2 7.41406 2 13.9531C2 20.4805 7.42578 25.9062 13.9531 25.9062Z" fill="black" fill-opacity="0.85"/>
<path d="M10.6953 19.0508C9.40625 19.0508 8.16406 18.4297 7.8125 17.3047C7.75391 17.1055 7.71875 16.8945 7.71875 16.6719C7.71875 16.2031 8.04688 15.9102 8.51562 15.9102C8.91406 15.9102 9.16016 16.1094 9.28906 16.5078C9.42969 17.0586 9.82812 17.6445 10.707 17.6445C11.5977 17.6445 12.043 16.9297 12.043 16.0977C12.043 15.0547 11.4805 14.4922 10.4492 14.4922H10.1445C9.74609 14.4922 9.47656 14.2578 9.47656 13.8594C9.47656 13.4609 9.74609 13.2031 10.1445 13.2031H10.4258C11.3398 13.2031 11.832 12.5586 11.832 11.6797C11.832 10.8828 11.457 10.2734 10.6484 10.2734C9.96875 10.2734 9.60547 10.7187 9.40625 11.4336C9.28906 11.8555 9.04297 12.0078 8.63281 12.0078C8.14062 12.0078 7.88281 11.6914 7.88281 11.293C7.88281 11.082 7.91797 10.8711 7.97656 10.6367C8.32812 9.57031 9.40625 8.86719 10.6484 8.86719C12.2305 8.86719 13.4844 9.81641 13.4844 11.4922C13.4844 12.5 12.9453 13.4844 11.8438 13.7773V13.8125C12.875 13.918 13.7656 14.6562 13.7656 16.1562C13.7656 17.9609 12.4414 19.0508 10.6953 19.0508ZM16.6133 19.0039C16.0273 19.0039 15.8164 18.6055 15.8164 18.2539C15.8164 17.9609 15.8516 17.8086 15.957 17.5391L18.6406 10.6133V10.5078H15.5352C15.1133 10.5078 14.832 10.2031 14.832 9.78125C14.832 9.37109 15.1133 9.06641 15.5352 9.06641H19.4375C19.9766 9.06641 20.4102 9.44141 20.4102 10.0039C20.4102 10.3555 20.3164 10.6484 20.1758 11.0234L17.4102 18.3828C17.2578 18.8281 17.0469 19.0039 16.6133 19.0039Z" fill="white"/>
</svg>
