<svg width="30" height="28" viewBox="0 0 30 28" fill="none" xmlns="http://www.w3.org/2000/svg">
<path d="M2.20312 19.7539H3.70312V18.1016H2.21484C1.88672 18.1016 1.65234 17.8555 1.65234 17.5391V9.81641C1.65234 9.48828 1.88672 9.23047 2.21484 9.23047H3.70312V7.57812H2.20312C0.960938 7.57812 0 8.53906 0 9.78125V17.5625C0 18.793 0.960938 19.7539 2.20312 19.7539ZM6 22.3438H6.83203C8.78906 22.3438 9.92578 21.1719 9.92578 19.1211V8.24609C9.92578 6.19531 8.80078 5 6.85547 5H5.85938C4.05469 5 3.01172 6.19531 3.01172 8.24609V19.1211C3.01172 21.1719 4.10156 22.3438 6 22.3438ZM6.02344 20.5742C5.25 20.5742 4.78125 20.0352 4.78125 19.1211V8.24609C4.78125 7.32031 5.20312 6.76953 5.89453 6.76953H6.82031C7.65234 6.76953 8.15625 7.32031 8.15625 8.24609V19.1211C8.15625 20.0352 7.65234 20.5742 6.79688 20.5742H6.02344ZM9.62109 12.7109H20.0273V10.9414H9.62109V12.7109ZM9.62109 16.3906H20.0273V14.6211H9.62109V16.3906ZM22.8164 22.3438H23.6484C25.5469 22.3438 26.6367 21.1719 26.6367 19.1211V8.24609C26.6367 6.19531 25.5938 5 23.7773 5H22.793C20.8359 5 19.7227 6.19531 19.7227 8.24609V19.1211C19.7227 21.1719 20.8594 22.3438 22.8164 22.3438ZM22.8516 20.5742C21.9961 20.5742 21.4922 20.0352 21.4922 19.1211V8.24609C21.4922 7.32031 21.9844 6.76953 22.8281 6.76953H23.7539C24.4453 6.76953 24.8672 7.32031 24.8672 8.24609V19.1211C24.8672 20.0352 24.3984 20.5742 23.625 20.5742H22.8516ZM25.9453 19.7539H27.4453C28.6875 19.7539 29.6484 18.793 29.6484 17.5625V9.78125C29.6484 8.53906 28.6875 7.57812 27.4453 7.57812H25.9453V9.23047H27.4336C27.75 9.23047 27.9961 9.48828 27.9961 9.81641V17.5391C27.9961 17.8555 27.75 18.1016 27.4336 18.1016H25.9453V19.7539Z" fill="black" fill-opacity="0.85"/>
</svg>
