<svg width="34" height="28" viewBox="0 0 34 28" fill="none" xmlns="http://www.w3.org/2000/svg">
<path d="M13.6984 7.88704L15.3742 7.5472C15.1867 6.31673 14.882 5.30891 14.0148 3.99641C13.9093 3.83235 13.9327 3.66829 14.0734 3.62141C17.7999 2.34407 22.6163 4.16048 23.6476 8.01595L25.4054 7.80501C24.1632 2.4261 17.1202 -0.116868 12.2452 2.57845C11.6593 2.89485 11.5421 3.51595 12.0226 4.14876C13.2062 5.70735 13.464 6.50423 13.6984 7.88704ZM19.2765 22.9456C24.6906 22.9456 33.046 19.3949 33.046 14.5784C33.046 9.77376 24.6906 6.22298 19.2765 6.22298C15.4562 6.22298 11.5656 7.5472 8.4015 10.6175C6.339 8.28548 3.93665 6.9847 1.13587 6.93782C0.549933 6.9261 0.0811826 7.3011 0.0343076 7.89876C-0.211786 10.3363 0.889776 12.973 2.57728 14.5784C0.889776 16.1956 -0.211786 18.8441 0.0343076 21.2699C0.0811826 21.8675 0.549933 22.2425 1.13587 22.2308C3.93665 22.1839 6.339 20.8831 8.4015 18.5628C11.5656 21.6214 15.4562 22.9456 19.2765 22.9456ZM19.2765 21.0589C15.5148 21.0589 11.9288 19.7347 8.98743 16.4534C8.60071 16.0199 8.06165 16.0316 7.67493 16.5003C5.964 18.6214 4.29993 19.8753 2.26087 20.2269C2.06165 20.262 1.89759 20.098 1.93275 19.887C2.13196 18.0589 3.21009 16.3714 4.55775 15.305C5.16712 14.7894 5.17884 14.3792 4.54603 13.8519C3.21009 12.7855 2.13196 11.1097 1.93275 9.28157C1.89759 9.08235 2.06165 8.90657 2.26087 8.94173C4.29993 9.29329 5.964 10.5472 7.67493 12.6683C8.06165 13.1488 8.60071 13.1605 8.97571 12.7269C11.9288 9.43391 15.5148 8.1097 19.2765 8.1097C24.2687 8.1097 31.1945 11.3558 31.1945 14.5784C31.1945 17.8128 24.2687 21.0589 19.2765 21.0589ZM26.5538 15.2933C27.2335 15.2933 27.796 14.7308 27.796 14.0628C27.796 13.3949 27.2335 12.8324 26.5538 12.8324C25.8859 12.8324 25.3234 13.3949 25.3234 14.0628C25.3234 14.7308 25.8859 15.2933 26.5538 15.2933ZM15.5851 21.6097L15.0929 25.6409C14.9757 26.6253 15.6085 27.2933 16.757 27.1058C19.7452 26.637 23.1437 24.4105 24.8663 21.8558L22.4523 22.1488C20.9757 23.4261 19.382 24.5863 17.4718 25.1136C17.2257 25.1722 17.0617 25.1253 17.0968 24.7972L17.3898 21.8792L15.5851 21.6097Z" fill="black" fill-opacity="0.85"/>
</svg>
