<svg width="28" height="28" viewBox="0 0 28 28" fill="none" xmlns="http://www.w3.org/2000/svg">
<path d="M13.9531 25.9062C20.4922 25.9062 25.9062 20.4805 25.9062 13.9531C25.9062 7.41406 20.4805 2 13.9414 2C7.41406 2 2 7.41406 2 13.9531C2 20.4805 7.42578 25.9062 13.9531 25.9062ZM13.9531 23.9141C8.42188 23.9141 4.00391 19.4844 4.00391 13.9531C4.00391 8.42188 8.41016 3.99219 13.9414 3.99219C19.4727 3.99219 23.9141 8.42188 23.9141 13.9531C23.9141 19.4844 19.4844 23.9141 13.9531 23.9141Z" fill="black" fill-opacity="0.85"/>
<path d="M10.2617 18.6992H13.625C14.0117 18.6992 14.3398 18.3828 14.3398 17.9844C14.3398 17.5977 14.0117 17.2812 13.625 17.2812H11.1172V9.92188C11.1172 9.46484 10.7305 9.07812 10.2734 9.07812C9.81641 9.07812 9.41797 9.46484 9.41797 9.92188V17.8203C9.41797 18.3711 9.72266 18.6992 10.2617 18.6992ZM17.4688 18.8164C17.9375 18.8164 18.3242 18.4297 18.3242 17.9609V10.0156C18.3242 9.41797 17.9492 9.06641 17.3398 9.06641C16.8477 9.06641 16.4492 9.33594 16.168 9.54688L14.8789 10.543C14.6797 10.707 14.5156 10.9297 14.5156 11.2344C14.5156 11.5977 14.7617 11.8555 15.1133 11.8555C15.3008 11.8555 15.418 11.7969 15.5352 11.7148L16.6133 10.8477V17.9609C16.6133 18.4297 17 18.8164 17.4688 18.8164Z" fill="black" fill-opacity="0.85"/>
</svg>
