<svg width="28" height="28" viewBox="0 0 28 28" fill="none" xmlns="http://www.w3.org/2000/svg">
<g clip-path="url(#clip0_2124_89095)">
<path d="M13.6406 26.9961H25.6289C26.8125 26.9961 27.5625 26.1641 27.5625 24.8633V9.91016C27.5625 8.60938 26.8125 7.77734 25.6289 7.77734H13.6406C12.4453 7.77734 11.707 8.60938 11.707 9.91016V24.8633C11.707 26.1641 12.4453 26.9961 13.6406 26.9961ZM14.2617 25.1094C13.8047 25.1094 13.5938 24.8867 13.5938 24.4297V10.3438C13.5938 9.88672 13.8047 9.66406 14.2617 9.66406H25.0078C25.4648 9.66406 25.6758 9.88672 25.6758 10.3438V24.4297C25.6758 24.8867 25.4648 25.1094 25.0078 25.1094H14.2617ZM21.2227 14.2227H23.1094C23.3438 14.2227 23.5078 14.0586 23.5078 13.8242V11.9961C23.5078 11.7617 23.3438 11.5977 23.1094 11.5977H21.2227C20.9766 11.5977 20.8359 11.7617 20.8359 11.9961V13.8242C20.8359 14.0586 20.9766 14.2227 21.2227 14.2227ZM21.2227 18.6992H23.1094C23.3438 18.6992 23.5078 18.5352 23.5078 18.3008V16.4727C23.5078 16.2383 23.3438 16.0742 23.1094 16.0742H21.2227C20.9766 16.0742 20.8359 16.2383 20.8359 16.4727V18.3008C20.8359 18.5352 20.9766 18.6992 21.2227 18.6992ZM21.2227 23.1758H23.1094C23.3438 23.1758 23.5078 23.0117 23.5078 22.7773V20.9492C23.5078 20.7148 23.3438 20.5508 23.1094 20.5508H21.2227C20.9766 20.5508 20.8359 20.7148 20.8359 20.9492V22.7773C20.8359 23.0117 20.9766 23.1758 21.2227 23.1758ZM16.1602 14.2227H18.0469C18.293 14.2227 18.4336 14.0586 18.4336 13.8242V11.9961C18.4336 11.7617 18.293 11.5977 18.0469 11.5977H16.1602C15.9258 11.5977 15.7617 11.7617 15.7617 11.9961V13.8242C15.7617 14.0586 15.9258 14.2227 16.1602 14.2227ZM16.1602 18.6992H18.0469C18.293 18.6992 18.4336 18.5352 18.4336 18.3008V16.4727C18.4336 16.2383 18.293 16.0742 18.0469 16.0742H16.1602C15.9258 16.0742 15.7617 16.2383 15.7617 16.4727V18.3008C15.7617 18.5352 15.9258 18.6992 16.1602 18.6992ZM16.1602 23.1758H18.0469C18.293 23.1758 18.4336 23.0117 18.4336 22.7773V20.9492C18.4336 20.7148 18.293 20.5508 18.0469 20.5508H16.1602C15.9258 20.5508 15.7617 20.7148 15.7617 20.9492V22.7773C15.7617 23.0117 15.9258 23.1758 16.1602 23.1758Z" fill="black" fill-opacity="0.85"/>
<path d="M0 24.8633C0 26.1641 0.75 26.9961 1.94531 26.9961H16.7227C17.9062 26.9961 18.6562 26.1641 18.6562 24.8633V4.14453C18.6562 2.84375 17.9062 2.01172 16.7227 2.01172H1.94531C0.75 2.01172 0 2.84375 0 4.14453V24.8633Z" fill="white"/>
<path d="M0 24.8633C0 26.1641 0.75 26.9961 1.94531 26.9961H16.7227C17.9062 26.9961 18.6562 26.1641 18.6562 24.8633V4.14453C18.6562 2.84375 17.9062 2.01172 16.7227 2.01172H1.94531C0.75 2.01172 0 2.84375 0 4.14453V24.8633ZM1.88672 24.4297V4.57812C1.88672 4.10938 2.09766 3.89844 2.56641 3.89844H16.1016C16.5586 3.89844 16.7695 4.10938 16.7695 4.57812V24.4297C16.7695 24.8867 16.5586 25.1094 16.1016 25.1094H2.56641C2.09766 25.1094 1.88672 24.8867 1.88672 24.4297ZM5.25 26H6.78516V22.0859C6.78516 21.8398 6.91406 21.7109 7.16016 21.7109H11.4961C11.7539 21.7109 11.8711 21.8398 11.8711 22.0859V26H13.4062V21.6523C13.4062 20.6445 12.9609 20.1758 12 20.1758H6.65625C5.69531 20.1758 5.25 20.6445 5.25 21.6523V26ZM5.4375 9.01953H7.72266C8.00391 9.01953 8.20312 8.83203 8.20312 8.53906V6.32422C8.20312 6.04297 8.00391 5.84375 7.72266 5.84375H5.4375C5.15625 5.84375 4.98047 6.04297 4.98047 6.32422V8.53906C4.98047 8.83203 5.15625 9.01953 5.4375 9.01953ZM10.9336 9.01953H13.207C13.4883 9.01953 13.6875 8.83203 13.6875 8.53906V6.32422C13.6875 6.04297 13.4883 5.84375 13.207 5.84375H10.9336C10.6406 5.84375 10.4648 6.04297 10.4648 6.32422V8.53906C10.4648 8.83203 10.6406 9.01953 10.9336 9.01953ZM5.4375 13.6602H7.72266C8.00391 13.6602 8.20312 13.4727 8.20312 13.1797V10.9648C8.20312 10.6836 8.00391 10.4844 7.72266 10.4844H5.4375C5.15625 10.4844 4.98047 10.6836 4.98047 10.9648V13.1797C4.98047 13.4727 5.15625 13.6602 5.4375 13.6602ZM10.9336 13.6602H13.207C13.4883 13.6602 13.6875 13.4727 13.6875 13.1797V10.9648C13.6875 10.6836 13.4883 10.4844 13.207 10.4844H10.9336C10.6406 10.4844 10.4648 10.6836 10.4648 10.9648V13.1797C10.4648 13.4727 10.6406 13.6602 10.9336 13.6602ZM5.4375 18.3008H7.72266C8.00391 18.3008 8.20312 18.1016 8.20312 17.8203V15.6055C8.20312 15.3125 8.00391 15.125 7.72266 15.125H5.4375C5.15625 15.125 4.98047 15.3125 4.98047 15.6055V17.8203C4.98047 18.1016 5.15625 18.3008 5.4375 18.3008ZM10.9336 18.3008H13.207C13.4883 18.3008 13.6875 18.1016 13.6875 17.8203V15.6055C13.6875 15.3125 13.4883 15.125 13.207 15.125H10.9336C10.6406 15.125 10.4648 15.3125 10.4648 15.6055V17.8203C10.4648 18.1016 10.6406 18.3008 10.9336 18.3008Z" fill="black" fill-opacity="0.85"/>
</g>
<defs>
<clipPath id="clip0_2124_89095">
<rect width="27.5625" height="24.9961" fill="white" transform="translate(0 2)"/>
</clipPath>
</defs>
</svg>
