<svg width="28" height="28" viewBox="0 0 28 28" fill="none" xmlns="http://www.w3.org/2000/svg">
<g clip-path="url(#clip0_2124_88601)">
<path d="M5.91016 18.0742H8.42969V6.87109H5.91016C2.71094 6.87109 1 8.53516 1 11.6172V13.3281C1 16.3984 2.71094 18.0742 5.91016 18.0742ZM10.0352 18.0859C13.3516 18.4492 17.5 19.4219 20.7227 21.0039C20.7227 20.8867 20.7227 20.7578 20.7227 20.6406V4.33984C20.7227 4.19922 20.7227 4.08203 20.7227 3.94141C17.4648 5.53516 13.0586 6.54297 10.0352 6.87109V18.0859ZM24.707 23.8633C26.1367 23.8633 27.0977 22.8906 27.0977 21.4844V3.39062C27.0977 1.97266 26.1367 1 24.707 1C23.3008 1 22.3281 1.97266 22.3281 3.39062V21.4844C22.3281 22.8906 23.3008 23.8633 24.707 23.8633ZM10.5742 26.0078C12.0273 26.0078 13.0938 24.9883 12.7188 23.1836L12.0625 20.0312C11.1719 19.8789 9.84766 19.7734 6.88281 19.6914C6.67188 19.6914 6.30859 19.668 5.93359 19.668L7.90234 23.9688C8.48828 25.2461 9.21484 26.0078 10.5742 26.0078Z" fill="black" fill-opacity="0.85"/>
</g>
<defs>
<clipPath id="clip0_2124_88601">
<rect width="26.0977" height="25.0195" fill="white" transform="translate(1 1)"/>
</clipPath>
</defs>
</svg>
