<svg width="28" height="28" viewBox="0 0 28 28" fill="none" xmlns="http://www.w3.org/2000/svg">
<path d="M13.9531 25.9062C20.4922 25.9062 25.9062 20.4805 25.9062 13.9531C25.9062 7.41406 20.4805 2 13.9414 2C7.41406 2 2 7.41406 2 13.9531C2 20.4805 7.42578 25.9062 13.9531 25.9062Z" fill="black" fill-opacity="0.85"/>
<path d="M13.9531 16.1328C13.3438 16.1328 13.0039 15.793 12.9922 15.1719L12.8398 8.78516C12.8281 8.16406 13.2852 7.71875 13.9414 7.71875C14.5859 7.71875 15.0664 8.17578 15.0547 8.79688L14.8906 15.1719C14.8789 15.8047 14.5391 16.1328 13.9531 16.1328ZM13.9531 20.0586C13.25 20.0586 12.6406 19.4961 12.6406 18.8047C12.6406 18.1133 13.2383 17.5391 13.9531 17.5391C14.668 17.5391 15.2656 18.1016 15.2656 18.8047C15.2656 19.5078 14.6562 20.0586 13.9531 20.0586Z" fill="white"/>
</svg>
