<svg width="28" height="28" viewBox="0 0 28 28" fill="none" xmlns="http://www.w3.org/2000/svg">
<g clip-path="url(#clip0_2124_50119)">
<path d="M5.9375 26.8672C6.46484 26.8672 6.88672 26.4453 6.88672 25.9297V4.50781C6.88672 4.13281 7.13281 3.88672 7.48438 3.88672H20.375C20.7266 3.88672 20.9727 4.13281 20.9727 4.50781V25.9297C20.9727 26.4453 21.3945 26.8672 21.9219 26.8672C22.4375 26.8672 22.8594 26.4453 22.8594 25.9297V4.39062C22.8594 2.96094 21.8867 2 20.4102 2H7.44922C5.98438 2 5 2.96094 5 4.39062V25.9297C5 26.4453 5.42188 26.8672 5.9375 26.8672Z" fill="black" fill-opacity="0.85"/>
<path d="M8.65625 26.457H19.2148C19.4258 26.457 19.6016 26.2695 19.6016 26.0586V5.64453C19.6016 5.42188 19.4258 5.24609 19.2148 5.24609H8.65625C8.43359 5.24609 8.25781 5.42188 8.25781 5.64453V26.0586C8.25781 26.2695 8.43359 26.457 8.65625 26.457ZM16.8125 17.0352C16.2969 17.0352 15.875 16.6133 15.875 16.0977C15.875 15.5703 16.2969 15.1602 16.8125 15.1602C17.3398 15.1602 17.75 15.5703 17.75 16.0977C17.75 16.6133 17.3398 17.0352 16.8125 17.0352Z" fill="black" fill-opacity="0.85"/>
</g>
<defs>
<clipPath id="clip0_2124_50119">
<rect width="17.8594" height="24.8789" fill="white" transform="translate(5 2)"/>
</clipPath>
</defs>
</svg>
