<svg width="28" height="28" viewBox="0 0 28 28" fill="none" xmlns="http://www.w3.org/2000/svg">
<path d="M13.9531 25.9062C20.4922 25.9062 25.9062 20.4805 25.9062 13.9531C25.9062 7.41406 20.4805 2 13.9414 2C7.41406 2 2 7.41406 2 13.9531C2 20.4805 7.42578 25.9062 13.9531 25.9062Z" fill="black" fill-opacity="0.85"/>
<path d="M11.0703 19.3672C10.3906 19.3672 9.98047 18.957 9.98047 18.2891V9.40625C9.98047 8.71484 10.3906 8.31641 11.0703 8.31641H14.6211C16.6953 8.31641 18.043 9.38281 18.043 11.0469C18.043 12.2539 17.3047 13.1914 16.1094 13.4844V13.5547C17.7148 13.7539 18.7109 14.7852 18.7109 16.2617C18.7109 18.1602 17.0938 19.3672 14.5977 19.3672H11.0703ZM11.8672 13.0156H13.6836C15.3008 13.0156 16.1797 12.4062 16.1797 11.3516C16.1797 10.3555 15.4531 9.74609 14.2344 9.74609H11.8672V13.0156ZM11.8672 17.9375H13.8242C15.8398 17.9375 16.7656 17.3867 16.7656 16.1797C16.7656 15.0195 15.9102 14.3516 14.4336 14.3516H11.8672V17.9375Z" fill="white"/>
</svg>
