<svg width="30" height="28" viewBox="0 0 30 28" fill="none" xmlns="http://www.w3.org/2000/svg">
<path d="M3.67969 20.3164H19.6875C22.125 20.3164 23.3672 19.0977 23.3672 16.6836V5.63281C23.3672 3.21875 22.125 2 19.6875 2H3.67969C1.21875 2 0 3.21875 0 5.63281V16.6836C0 19.1094 1.21875 20.3164 3.67969 20.3164ZM3.70312 18.4297C2.53125 18.4297 1.88672 17.8086 1.88672 16.5898V5.73828C1.88672 4.51953 2.53125 3.88672 3.70312 3.88672H19.6523C20.8125 3.88672 21.4805 4.51953 21.4805 5.73828V16.5898C21.4805 17.8086 20.8125 18.4297 19.6523 18.4297H3.70312Z" fill="black" fill-opacity="0.85"/>
<path d="M9.46875 25.7422H25.4766C27.9141 25.7422 29.1562 24.5234 29.1562 22.1094V11.0586C29.1562 8.64453 27.9141 7.42578 25.4766 7.42578H9.46875C7.00781 7.42578 5.78906 8.64453 5.78906 11.0586V22.1094C5.78906 24.5352 7.00781 25.7422 9.46875 25.7422Z" fill="white"/>
<path d="M9.46875 25.7422H25.4766C27.9141 25.7422 29.1562 24.5234 29.1562 22.1094V11.0586C29.1562 8.64453 27.9141 7.42578 25.4766 7.42578H9.46875C7.00781 7.42578 5.78906 8.64453 5.78906 11.0586V22.1094C5.78906 24.5352 7.00781 25.7422 9.46875 25.7422ZM9.49219 23.8555C8.32031 23.8555 7.67578 23.2344 7.67578 22.0156V11.1641C7.67578 9.94531 8.32031 9.3125 9.49219 9.3125H25.4414C26.6016 9.3125 27.2695 9.94531 27.2695 11.1641V22.0156C27.2695 23.2344 26.6016 23.8555 25.4414 23.8555H9.49219Z" fill="black" fill-opacity="0.85"/>
<path d="M13.2422 21.207C13.2422 22.0859 13.6289 22.4961 14.4375 22.4961H20.5078C21.3281 22.4961 21.7148 22.0859 21.7148 21.207V16.543C21.7148 15.7227 21.375 15.3125 20.6719 15.2656V13.8828C20.6719 11.7266 19.3828 10.2852 17.4727 10.2852C15.5742 10.2852 14.2734 11.7266 14.2734 13.8828V15.2656C13.582 15.3125 13.2422 15.7227 13.2422 16.543V21.207ZM15.4922 15.2539V13.7539C15.4922 12.3711 16.2891 11.4687 17.4727 11.4687C18.668 11.4687 19.4531 12.3711 19.4531 13.7539V15.2539H15.4922Z" fill="black" fill-opacity="0.85"/>
</svg>
