<svg width="28" height="28" viewBox="0 0 28 28" fill="none" xmlns="http://www.w3.org/2000/svg">
<path d="M16.2472 24.5714C15.5675 24.5128 14.7237 24.7003 14.1495 25.0519C13.9034 25.1925 13.8683 25.4152 14.0792 25.6027C14.6065 26.0831 15.4151 26.4464 16.1065 26.4933C16.8214 26.587 17.6768 26.3644 18.2511 25.9308C18.4386 25.8019 18.4503 25.6027 18.2745 25.4386C17.7589 24.9581 16.9503 24.6183 16.2472 24.5714ZM18.7081 20.6105C18.3331 21.1847 18.1222 22.0284 18.1456 22.7081C18.1925 23.423 18.5206 24.2433 18.9776 24.7472C19.13 24.923 19.3175 24.923 19.4698 24.7355C19.9269 24.1964 20.1729 23.3409 20.1026 22.6144C20.0558 21.9347 19.7159 21.1261 19.2472 20.587C19.0714 20.3761 18.8604 20.3878 18.7081 20.6105ZM12.9425 21.3956C12.298 21.1613 11.419 21.1378 10.7628 21.337C10.505 21.4191 10.4347 21.6183 10.5753 21.8527C10.962 22.4503 11.6534 23.0011 12.2979 23.2355C12.9542 23.505 13.8448 23.505 14.5128 23.2238C14.7355 23.1417 14.794 22.9659 14.6651 22.755C14.2901 22.1573 13.5987 21.6183 12.9425 21.3956ZM16.3175 18.2081C15.8136 18.6652 15.38 19.4152 15.2511 20.0831C15.0987 20.7863 15.2042 21.6652 15.5206 22.2628C15.6143 22.4855 15.8018 22.5206 16.0011 22.38C16.5636 21.9698 17.0206 21.2081 17.1378 20.4816C17.2784 19.8136 17.1612 18.9347 16.8448 18.3019C16.7394 18.0441 16.5167 18.0089 16.3175 18.2081ZM8.00888 16.8605C8.10263 17.5402 8.51279 18.337 9.0167 18.8292C9.50888 19.3448 10.3175 19.6964 11.044 19.7198C11.2784 19.7316 11.4073 19.5792 11.3722 19.3448C11.255 18.63 10.8448 17.8683 10.3409 17.4113C9.83701 16.9308 9.06357 16.5558 8.38388 16.4738C8.10263 16.4386 7.96201 16.5909 8.00888 16.8605ZM14.7237 15.8527C14.0792 16.0753 13.3878 16.5909 12.9893 17.1417C12.5675 17.6925 12.3214 18.5245 12.3448 19.2511C12.3683 19.4738 12.5206 19.5909 12.755 19.5558C13.4581 19.3917 14.1964 18.8878 14.5714 18.2784C14.9581 17.6808 15.2159 16.8488 15.169 16.1573C15.169 15.8761 14.9933 15.7589 14.7237 15.8527ZM12.7667 13.1105C12.2159 13.5558 11.7589 14.3058 11.6183 14.9972C11.5831 15.2081 11.7003 15.3722 11.923 15.3839C12.6495 15.4073 13.4815 15.0909 14.0089 14.6222C14.5362 14.1652 15.005 13.4034 15.1573 12.7238C15.1925 12.4659 15.0519 12.2902 14.794 12.3019C14.0909 12.3605 13.2823 12.6652 12.7667 13.1105ZM8.0206 11.5753C7.95029 12.2667 8.13779 13.1222 8.51279 13.7316C8.86435 14.3644 9.55576 14.9152 10.2355 15.1027C10.4464 15.173 10.6339 15.0558 10.6573 14.8214C10.7276 14.1534 10.5284 13.298 10.1534 12.6886C9.77841 12.1027 9.11045 11.5402 8.48935 11.2941C8.24326 11.1886 8.04404 11.2941 8.0206 11.5753ZM13.4112 9.17297C12.7433 9.40735 12.0519 9.93469 11.6769 10.5441C11.548 10.7316 11.6183 10.9308 11.8292 11.0245C12.4972 11.2941 13.3761 11.2941 14.044 11.0245C14.7237 10.7667 15.4268 10.2042 15.7667 9.60657C15.9073 9.39563 15.837 9.19641 15.5792 9.11438C14.9112 8.92688 14.044 8.9386 13.4112 9.17297ZM9.47373 6.10266C9.16904 6.74719 9.05185 7.61438 9.18076 8.29407C9.30966 9.00891 9.7667 9.75891 10.3526 10.1808C10.5284 10.3214 10.7159 10.2628 10.8331 10.0519C11.1378 9.4425 11.2433 8.57532 11.0909 7.88391C10.9503 7.20422 10.505 6.45422 10.0128 5.98547C9.82529 5.82141 9.60263 5.86828 9.47373 6.10266ZM15.5323 5.79797C14.8409 5.92688 14.0792 6.37219 13.6456 6.91125C13.505 7.07532 13.5401 7.27453 13.7276 7.40344C14.3487 7.76672 15.2276 7.88391 15.919 7.69641C16.6104 7.54407 17.3722 7.08703 17.8175 6.57141C17.9933 6.36047 17.9464 6.14953 17.7003 6.04407C17.0792 5.76282 16.2237 5.65735 15.5323 5.79797ZM12.0753 2.1886C11.6769 2.78625 11.4425 3.64172 11.4894 4.32141C11.5011 5.03625 11.8526 5.84485 12.3683 6.36047C12.544 6.52453 12.7433 6.5011 12.8722 6.3136C13.2589 5.71594 13.4933 4.86047 13.4347 4.18078C13.3878 3.51282 13.0714 2.71594 12.6261 2.16516C12.4386 1.95422 12.2276 1.97766 12.0753 2.1886ZM18.1222 1.005C17.4425 1.11047 16.669 1.52063 16.1769 2.0011C15.6847 2.48157 15.2979 3.29016 15.2159 3.96985C15.1925 4.20422 15.3214 4.34485 15.5558 4.33313C16.2706 4.29797 17.0675 3.92297 17.5597 3.37219C18.0284 2.88 18.4151 2.09485 18.5206 1.39172C18.544 1.12219 18.4034 0.969847 18.1222 1.005Z" fill="black" fill-opacity="0.85"/>
</svg>
