<svg width="28" height="28" viewBox="0 0 28 28" fill="none" xmlns="http://www.w3.org/2000/svg">
<path d="M13.9531 25.918C20.4922 25.918 25.9062 20.5039 25.9062 13.9648C25.9062 7.4375 20.4805 2.01172 13.9414 2.01172C7.41406 2.01172 2 7.4375 2 13.9648C2 20.5039 7.42578 25.918 13.9531 25.918Z" fill="black" fill-opacity="0.85"/>
<path d="M6.57031 13.9648C6.57031 13.7422 6.65234 13.5078 6.91016 13.25L12.1016 8.41016C12.4531 8.08203 12.6523 7.94141 12.9688 7.94141C13.4375 7.94141 13.7656 8.31641 13.7656 8.75V11.375H19.2266C20.1875 11.375 20.7383 11.9258 20.7383 12.8516V15.0898C20.7383 16.0156 20.1875 16.5664 19.2266 16.5664H13.7656V19.2266C13.7656 19.6836 13.4375 19.9883 12.9922 19.9883C12.6641 19.9883 12.418 19.8477 12.1016 19.5664L6.91016 14.668C6.65234 14.4336 6.57031 14.1758 6.57031 13.9648Z" fill="white"/>
</svg>
