<svg width="28" height="28" viewBox="0 0 28 28" fill="none" xmlns="http://www.w3.org/2000/svg">
<path d="M13.9531 25.9062C20.4922 25.9062 25.9062 20.4805 25.9062 13.9531C25.9062 7.41406 20.4805 2 13.9414 2C7.41406 2 2 7.41406 2 13.9531C2 20.4805 7.42578 25.9062 13.9531 25.9062Z" fill="black" fill-opacity="0.85"/>
<path d="M8.19922 18.8398C7.63672 18.8398 7.36719 18.5469 7.36719 18.1367C7.36719 17.75 7.60156 17.457 7.83594 17.1641L9.92188 14.4805C10.5547 13.6719 11.2344 12.6875 11.2344 11.7148C11.2344 10.8594 10.8242 10.2266 10.1094 10.2266C9.41797 10.2266 9.11328 10.7305 8.89062 11.5391C8.76172 11.9375 8.52734 12.125 8.11719 12.125C7.64844 12.125 7.39062 11.8086 7.39062 11.3516C7.39062 10.0977 8.57422 8.82031 10.1211 8.82031C11.7852 8.82031 12.8867 10.0039 12.8867 11.6328C12.8867 12.6992 12.5 13.5898 11.2812 15.0898L9.53516 17.3164V17.4102H12.3945C12.8047 17.4102 13.0859 17.668 13.0859 18.1367C13.0859 18.5586 12.8164 18.8398 12.3945 18.8398H8.19922ZM17.457 19.0508C15.6992 19.0508 14.3398 17.9961 14.3398 16.2031C14.3398 14.8906 15.125 13.9414 16.1562 13.707V13.6719C15.3828 13.4375 14.6211 12.7109 14.6211 11.4805C14.6211 9.78125 15.957 8.86719 17.457 8.86719C19.168 8.86719 20.3281 9.93359 20.3281 11.4922C20.3281 12.6406 19.6133 13.4258 18.8047 13.6719V13.707C19.7539 13.9297 20.6094 14.8789 20.6094 16.2031C20.6094 17.8555 19.3789 19.0508 17.457 19.0508ZM17.457 13.1211C18.2305 13.1211 18.6289 12.4531 18.6289 11.6563C18.6289 10.8828 18.2422 10.168 17.457 10.168C16.707 10.168 16.3086 10.8828 16.3086 11.6563C16.3086 12.3711 16.6953 13.1211 17.457 13.1211ZM17.457 17.7383C18.3477 17.7383 18.7812 16.9648 18.7812 16.0625C18.7812 15.1484 18.3125 14.4336 17.457 14.4336C16.5898 14.4336 16.1562 15.1953 16.1562 16.0625C16.1562 16.9648 16.5898 17.7383 17.457 17.7383Z" fill="white"/>
</svg>
