<svg width="28" height="28" viewBox="0 0 28 28" fill="none" xmlns="http://www.w3.org/2000/svg">
<path d="M6.67969 24.5977H20.8945C23.3555 24.5977 24.5742 23.3789 24.5742 20.9648V6.65625C24.5742 4.24219 23.3555 3.02344 20.8945 3.02344H6.67969C4.23047 3.02344 3 4.23047 3 6.65625V20.9648C3 23.3906 4.23047 24.5977 6.67969 24.5977ZM6.70312 22.7109C5.53125 22.7109 4.88672 22.0898 4.88672 20.8711V6.75C4.88672 5.53125 5.53125 4.91016 6.70312 4.91016H20.8711C22.0312 4.91016 22.6875 5.53125 22.6875 6.75V20.8711C22.6875 22.0898 22.0312 22.7109 20.8711 22.7109H6.70312Z" fill="black" fill-opacity="0.85"/>
<path d="M13.8047 19.6523C14.3203 19.6523 14.6836 19.2891 14.6836 18.7734V12.9141L14.5898 10.4297L15.7852 11.8477L17.168 13.2539C17.3203 13.418 17.5312 13.5117 17.7891 13.5117C18.2695 13.5117 18.6445 13.1367 18.6445 12.668C18.6445 12.4219 18.5625 12.2109 18.3984 12.0586L14.4961 8.15625C14.2734 7.93359 14.0742 7.82812 13.8047 7.82812C13.5586 7.82812 13.3594 7.92188 13.125 8.15625L9.21094 12.0586C9.05859 12.2109 8.98828 12.4219 8.98828 12.668C8.98828 13.1367 9.35156 13.5117 9.83203 13.5117C10.0898 13.5117 10.3008 13.4062 10.4531 13.2539L11.8477 11.8477L13.0195 10.4414L12.9258 12.9141V18.7734C12.9258 19.2891 13.3008 19.6523 13.8047 19.6523Z" fill="black" fill-opacity="0.85"/>
</svg>
