<svg width="28" height="28" viewBox="0 0 28 28" fill="none" xmlns="http://www.w3.org/2000/svg">
<path d="M6.67969 24.5977H20.8945C23.3555 24.5977 24.5742 23.3789 24.5742 20.9648V6.65625C24.5742 4.24219 23.3555 3.02344 20.8945 3.02344H6.67969C4.23047 3.02344 3 4.23047 3 6.65625V20.9648C3 23.3906 4.23047 24.5977 6.67969 24.5977ZM6.70312 22.7109C5.53125 22.7109 4.88672 22.0898 4.88672 20.8711V6.75C4.88672 5.53125 5.53125 4.91016 6.70312 4.91016H20.8711C22.0312 4.91016 22.6875 5.53125 22.6875 6.75V20.8711C22.6875 22.0898 22.0312 22.7109 20.8711 22.7109H6.70312Z" fill="black" fill-opacity="0.85"/>
<path d="M13.793 20.4844C14.1094 20.4844 14.3555 20.2617 14.3555 19.9336V19.1133C16.1719 18.9375 17.5781 17.8828 17.5781 16.1133C17.5781 14.5195 16.5469 13.5586 14.5078 13.1953L14.3555 13.1602V9.89062C15.1875 10.043 15.7734 10.5469 16.0078 11.332C16.125 11.6836 16.3477 11.9063 16.7227 11.9063C17.1211 11.9063 17.4141 11.625 17.4141 11.2148C17.4141 11.0977 17.3789 10.9805 17.3555 10.8516C17.0508 9.58594 15.8555 8.71875 14.3555 8.54297V7.73438C14.3555 7.40625 14.1094 7.18359 13.793 7.18359C13.4766 7.18359 13.2422 7.40625 13.2422 7.73438V8.54297C11.4609 8.74219 10.207 9.85547 10.207 11.4492C10.207 12.9375 11.2031 13.8281 13.1602 14.2852L13.2422 14.3086V17.7773C12.1875 17.625 11.5664 17.0391 11.3789 16.2539C11.25 15.8555 11.0039 15.668 10.6523 15.668C10.2539 15.668 9.97266 15.9492 9.97266 16.3594C9.97266 16.4883 9.99609 16.6055 10.0312 16.7227C10.3594 18.0703 11.6719 18.9375 13.2422 19.0898V19.9336C13.2422 20.2617 13.4766 20.4844 13.793 20.4844ZM13.2422 12.8672L13.1602 12.8438C12.1055 12.5391 11.6484 12.0703 11.6484 11.3789C11.6484 10.6641 12.2461 10.0664 13.2422 9.89062V12.8672ZM14.3555 14.5898L14.6016 14.6484C15.7383 14.9648 16.1367 15.4453 16.1367 16.1953C16.1367 17.0156 15.5508 17.6367 14.3555 17.7773V14.5898Z" fill="black" fill-opacity="0.85"/>
</svg>
