<svg width="28" height="28" viewBox="0 0 28 28" fill="none" xmlns="http://www.w3.org/2000/svg">
<path d="M13.9531 25.9062C20.4922 25.9062 25.9062 20.4805 25.9062 13.9531C25.9062 7.41406 20.4805 2 13.9414 2C7.41406 2 2 7.41406 2 13.9531C2 20.4805 7.42578 25.9062 13.9531 25.9062Z" fill="black" fill-opacity="0.85"/>
<path d="M6.78125 17.8906C6.42969 17.8906 6.125 17.6914 6.125 17.2344C6.125 17.0938 6.16016 16.9414 6.20703 16.7891L7.55469 10.8828C7.69531 10.2852 8.03516 10.0039 8.59766 10.0039C9.19531 10.0039 9.54688 10.2969 9.67578 10.8828L11.0469 16.7891C11.082 16.8945 11.1172 17.1641 11.1172 17.2344C11.1172 17.5977 10.8359 17.8906 10.4727 17.8906C10.1094 17.8906 9.86328 17.7266 9.76953 17.2695L9.51172 16.0508H7.71875L7.46094 17.2578C7.40234 17.6445 7.17969 17.8906 6.78125 17.8906ZM7.90625 14.9961H9.3125L8.62109 11.6445H8.57422L7.90625 14.9961ZM12.8047 17.7734C12.3594 17.7734 12.125 17.5039 12.125 17.0469V10.8477C12.125 10.3438 12.4062 10.1211 12.8047 10.1211H14.5742C15.7109 10.1211 16.3438 10.8828 16.3438 12.0195C16.3438 12.7109 15.9922 13.5195 15.2188 13.6953V13.7422C16.0391 13.8125 16.5547 14.7383 16.5547 15.6055C16.5547 16.7891 15.9102 17.7734 14.6211 17.7734H12.8047ZM13.4961 16.7188H14.1758C14.8789 16.7188 15.1719 16.2031 15.1719 15.5C15.1719 14.7969 14.8438 14.3047 14.1523 14.3047H13.4961V16.7188ZM13.4961 13.3555H14.0586C14.7383 13.3555 15.0312 12.8984 15.0312 12.2305C15.0312 11.5977 14.7969 11.1758 14.1641 11.1758H13.4961V13.3555ZM19.5547 17.9375C18.4766 17.9375 17.75 17.3633 17.4922 16.4258C17.4688 16.2969 17.4453 16.168 17.4453 16.0391C17.4453 15.6758 17.668 15.418 18.0312 15.418C18.3711 15.418 18.5938 15.582 18.6758 15.9102C18.8047 16.4258 19.0508 16.8125 19.5547 16.8125C20.082 16.8125 20.375 16.3906 20.375 15.8281C20.375 15.1484 20 14.8672 19.3906 14.5508L18.9688 14.3398C18.1602 13.918 17.457 13.3438 17.457 12.125C17.457 10.707 18.3945 9.93359 19.5312 9.93359C20.5039 9.93359 21.1953 10.5195 21.4766 11.3633C21.5352 11.5391 21.5703 11.7031 21.5703 11.8672C21.5703 12.1953 21.3594 12.4297 21.0078 12.4297C20.6797 12.4297 20.4336 12.2656 20.3633 11.9844C20.2344 11.4922 20.0352 11.082 19.5312 11.082C19.0391 11.082 18.8047 11.5039 18.8047 12.0078C18.8047 12.6641 19.1914 12.9688 19.7656 13.2617L20.1992 13.4727C21.0781 13.9062 21.7344 14.457 21.7344 15.6875C21.7344 17.0352 20.9609 17.9375 19.5547 17.9375Z" fill="white"/>
</svg>
