<svg width="32" height="28" viewBox="0 0 32 28" fill="none" xmlns="http://www.w3.org/2000/svg">
<path d="M2.08594 27.6016H4.47656C5.82422 27.6016 6.59766 26.7461 6.59766 25.7383C6.59766 24.6836 6.04688 24.2383 4.92188 24.1211C4.39453 24.0625 4.40625 23.4297 4.85156 23.3711C7.71094 22.9141 9.44531 21.4258 9.78516 18.8711C11.5312 20.1133 14.4727 20.3008 17.4258 19.9258C17.4141 21.6367 17.1562 23.9922 17.1562 25.2109C17.1562 26.6406 18.0703 27.6016 19.4648 27.6016H21.4336C22.7695 27.6016 23.543 26.7461 23.543 25.7734C23.543 24.7539 23.0625 24.3086 21.7852 24.1211C21.5156 24.0742 21.375 23.8984 21.4336 23.6289C21.6562 22.4219 22.3359 19.9141 22.7227 18.7656C23.5312 16.3633 24.668 14.8164 24.668 12.332C24.668 11.1719 24.9844 10.4805 25.2539 10.1758C26.1797 10.7383 26.8594 11.0195 27.7617 11.0195C29.7656 11.0195 31.7578 8.98047 31.7578 6.84766C31.7578 5.72266 30.8203 5.67578 29.6367 4.92578C28.6055 4.24609 28.0195 3.36719 27.1055 2.875C26.7891 4.39844 25.6289 6.78906 23.5781 6.78906C22.3242 6.78906 21.4102 5.88672 20.8242 4.85547C19.8984 6.12109 19.5234 7.17578 17.0391 8.04297L7.00781 8.82812C6.75 8.83984 6.52734 8.92188 6.375 8.98047L5.49609 7.92578C4.06641 6.22656 1.83984 8.23047 3.25781 9.85938L4.23047 10.9844C3.75 12.1211 3.49219 13.4922 3.49219 15.2031C3.49219 17.793 3.29297 18.5078 2.51953 19.1406C0.679688 20.5938 0 21.5547 0 23.1836V25.4102C0 26.6992 0.867188 27.6016 2.08594 27.6016ZM27.7031 6.97656C27.2695 6.97656 26.9531 6.64844 26.9531 6.23828C26.9531 5.81641 27.2695 5.51172 27.7031 5.51172C28.1133 5.51172 28.4297 5.81641 28.4297 6.23828C28.4297 6.64844 28.1133 6.97656 27.7031 6.97656ZM23.5781 5.72266C25.2539 5.72266 26.1211 2.88672 26.1211 2.08984C26.1211 1.375 25.7461 1 25.0078 1H22.1602C21.4219 1 21.0352 1.375 21.0352 2.08984C21.0352 2.88672 21.9023 5.72266 23.5781 5.72266Z" fill="black" fill-opacity="0.85"/>
</svg>
