<svg width="28" height="28" viewBox="0 0 28 28" fill="none" xmlns="http://www.w3.org/2000/svg">
<path d="M6.67969 24.5977H20.8945C23.3555 24.5977 24.5742 23.3789 24.5742 20.9648V6.65625C24.5742 4.24219 23.3555 3.02344 20.8945 3.02344H6.67969C4.23047 3.02344 3 4.23047 3 6.65625V20.9648C3 23.3906 4.23047 24.5977 6.67969 24.5977ZM6.70312 22.7109C5.53125 22.7109 4.88672 22.0898 4.88672 20.8711V6.75C4.88672 5.53125 5.53125 4.91016 6.70312 4.91016H20.8711C22.0312 4.91016 22.6875 5.53125 22.6875 6.75V20.8711C22.6875 22.0898 22.0312 22.7109 20.8711 22.7109H6.70312Z" fill="black" fill-opacity="0.85"/>
<path d="M7.64072 14.7772L12.5509 14.789C12.7735 14.789 12.9259 14.9296 12.9259 15.164V20.0155C12.9259 21.0585 14.0274 21.164 14.379 20.414L19.5821 9.31635C20.0157 8.414 19.2306 7.64056 18.3165 8.07416L7.25401 13.3241C6.49229 13.6874 6.60948 14.7772 7.64072 14.7772Z" fill="black" fill-opacity="0.85"/>
</svg>
