<svg width="28" height="30" viewBox="0 0 28 30" fill="none" xmlns="http://www.w3.org/2000/svg">
<path d="M14.0312 17.2734C18.7422 17.2734 22.6562 13.3477 22.6562 8.63672C22.6562 3.92578 18.7305 0 14.0078 0C9.29688 0 5.39453 3.92578 5.39453 8.63672C5.39453 13.3477 9.32031 17.2734 14.0312 17.2734ZM9.94141 29.8477H18.0742C21.4375 29.8477 24.0273 27.2227 24.0273 23.8945C24.0273 20.5664 21.4375 17.9414 18.0742 17.9414H9.94141C6.58984 17.9414 4 20.5664 4 23.8945C4 27.2227 6.58984 29.8477 9.94141 29.8477Z" fill="black" fill-opacity="0.85"/>
<path d="M10.9258 7.96875C9.81251 7.96875 8.93359 7.08984 8.93359 5.98828C8.93359 4.875 9.81251 3.99609 10.9258 3.99609C12.0273 3.99609 12.9063 4.875 12.9063 5.98828C12.9063 7.08984 12.0273 7.96875 10.9258 7.96875ZM17.1016 7.96875C16 7.96875 15.1211 7.08984 15.1211 5.98828C15.1211 4.875 16 3.99609 17.1016 3.99609C18.2148 3.99609 19.0938 4.875 19.0938 5.98828C19.0938 7.08984 18.2148 7.96875 17.1016 7.96875ZM9.80078 12.0352C9.02734 12.0352 8.41798 11.4141 8.41798 10.6406C8.41798 9.86719 9.02734 9.24609 9.80078 9.24609C10.5742 9.24609 11.1953 9.86719 11.1953 10.6406C11.1953 11.4141 10.5742 12.0352 9.80078 12.0352ZM18.2266 12.0352C17.4531 12.0352 16.832 11.4141 16.832 10.6406C16.832 9.86719 17.4531 9.24609 18.2266 9.24609C19 9.24609 19.6094 9.86719 19.6094 10.6406C19.6094 11.4141 19 12.0352 18.2266 12.0352ZM14.0078 14.9297C12.9063 14.9297 12.0273 14.0508 12.0273 12.9375C12.0273 11.8359 12.9063 10.957 14.0078 10.957C15.1211 10.957 16 11.8359 16 12.9375C16 14.0508 15.1211 14.9297 14.0078 14.9297ZM9.80078 27.1172C8.01953 27.1172 6.57812 25.6875 6.57812 23.8945C6.57812 22.1016 8.01953 20.6602 9.80078 20.6602C11.5938 20.6602 13.0469 22.1016 13.0469 23.8945C13.0469 25.6875 11.5938 27.1172 9.80078 27.1172ZM18.2148 27.1172C16.4219 27.1172 14.9805 25.6875 14.9805 23.8945C14.9805 22.1016 16.4219 20.6602 18.2148 20.6602C20.0078 20.6602 21.4492 22.1016 21.4492 23.8945C21.4492 25.6875 20.0078 27.1172 18.2148 27.1172Z" fill="white"/>
</svg>
