<svg width="28" height="28" viewBox="0 0 28 28" fill="none" xmlns="http://www.w3.org/2000/svg">
<path d="M6.67969 24.5977H20.8945C23.3555 24.5977 24.5742 23.3789 24.5742 20.9648V6.65625C24.5742 4.24219 23.3555 3.02344 20.8945 3.02344H6.67969C4.23047 3.02344 3 4.23047 3 6.65625V20.9648C3 23.3906 4.23047 24.5977 6.67969 24.5977ZM6.70312 22.7109C5.53125 22.7109 4.88672 22.0898 4.88672 20.8711V6.75C4.88672 5.53125 5.53125 4.91016 6.70312 4.91016H20.8711C22.0312 4.91016 22.6875 5.53125 22.6875 6.75V20.8711C22.6875 22.0898 22.0312 22.7109 20.8711 22.7109H6.70312Z" fill="black" fill-opacity="0.85"/>
<path d="M13.8281 19.3711C16.2305 19.3711 17.8945 17.8242 17.8945 15.6445C17.8945 13.7109 16.4414 12.2695 14.3906 12.2695C13.5938 12.2695 12.7852 12.5742 12.3867 12.9727L12.2813 12.9375C12.3867 12.7383 12.5508 12.5273 12.9141 12.0586C13.5 11.2852 14.2852 10.3242 14.8594 9.58594C15.0352 9.35156 15.1289 9.16406 15.1289 8.94141C15.1289 8.58984 14.8945 8.22656 14.332 8.22656C13.957 8.22656 13.7344 8.47266 13.5469 8.70703C12.7734 9.71484 12.0703 10.6172 11.4609 11.4258C10.2539 13.0195 9.73828 14.3086 9.73828 15.5742C9.73828 17.8242 11.3906 19.3711 13.8281 19.3711ZM13.8281 17.8945C12.4336 17.8945 11.3906 16.957 11.3906 15.7148C11.3906 14.4961 12.4219 13.5938 13.8164 13.5938C15.2227 13.5938 16.2539 14.4961 16.2539 15.7383C16.2539 16.957 15.2227 17.8945 13.8281 17.8945Z" fill="black" fill-opacity="0.85"/>
</svg>
