<svg width="28" height="28" viewBox="0 0 28 28" fill="none" xmlns="http://www.w3.org/2000/svg">
<path d="M13.9531 25.9062C20.4922 25.9062 25.9062 20.4805 25.9062 13.9531C25.9062 7.41406 20.4805 2 13.9414 2C7.41406 2 2 7.41406 2 13.9531C2 20.4805 7.42578 25.9062 13.9531 25.9062ZM13.9531 23.9141C8.42188 23.9141 4.00391 19.4844 4.00391 13.9531C4.00391 8.42188 8.41016 3.99219 13.9414 3.99219C19.4727 3.99219 23.9141 8.42188 23.9141 13.9531C23.9141 19.4844 19.4844 23.9141 13.9531 23.9141Z" fill="black" fill-opacity="0.85"/>
<path d="M12.3008 19.9883C15.125 19.9883 16.8359 17.9609 16.8359 15.2188V11.7266L16.7891 10.332L17.5156 11.2695L18.6875 12.4766C18.8398 12.6289 19.0508 12.7461 19.2969 12.7461C19.7773 12.7461 20.1523 12.3711 20.1523 11.9023C20.1523 11.6563 20.0703 11.457 19.8945 11.293L16.7305 8.1875C16.543 7.98828 16.2852 7.87109 16.0156 7.87109C15.7461 7.87109 15.5 7.98828 15.3125 8.1875L12.1133 11.3047C11.9492 11.4688 11.8672 11.668 11.8672 11.9141C11.8672 12.3711 12.2422 12.7461 12.7227 12.7461C12.9453 12.7461 13.168 12.6523 13.332 12.4883L14.7383 11.0234L15.2422 10.332L15.1953 11.7266V15.2188C15.1953 16.9414 14.1992 18.2656 12.3945 18.2656C10.5547 18.2656 9.40625 16.9766 9.40625 15.207C9.40625 15.0781 9.40625 13.625 9.40625 13.5781C9.40625 13.0859 9.11328 12.6992 8.57422 12.6992C8.03516 12.6992 7.73047 13.0859 7.73047 13.6016C7.73047 13.6602 7.73047 15.0781 7.73047 15.207C7.73047 17.9492 9.48828 19.9883 12.3008 19.9883Z" fill="black" fill-opacity="0.85"/>
</svg>
