<svg width="28" height="28" viewBox="0 0 28 28" fill="none" xmlns="http://www.w3.org/2000/svg">
<g clip-path="url(#clip0_2124_24676)">
<path d="M9.1875 26.8086H17.8711C19.7812 26.8086 21.0586 25.5898 21.0586 23.7617V5.04688C21.0586 3.21875 19.7812 2 17.8711 2H9.1875C7.27734 2 6 3.21875 6 5.04688V23.7617C6 25.5898 7.27734 26.8086 9.1875 26.8086ZM9.43359 23.3633C8.4375 23.3633 7.88672 22.8359 7.88672 21.8984V5.35156C7.88672 4.41406 8.4375 3.88672 9.43359 3.88672H17.6367C18.6211 3.88672 19.1719 4.41406 19.1719 5.35156V21.957C19.1719 22.9062 18.6211 23.3633 17.6367 23.3633H9.43359ZM11.7188 23.6328H15.3516V22.9648C15.3516 22.4844 15.0352 22.1445 14.5547 22.1445H12.5273C12.0352 22.1445 11.7188 22.4844 11.7188 22.9648V23.6328Z" fill="black" fill-opacity="0.85"/>
</g>
<defs>
<clipPath id="clip0_2124_24676">
<rect width="15.0586" height="24.832" fill="white" transform="translate(6 2)"/>
</clipPath>
</defs>
</svg>
