<svg width="30" height="28" viewBox="0 0 30 28" fill="none" xmlns="http://www.w3.org/2000/svg">
<g clip-path="url(#clip0_2124_62621)">
<path d="M1.03125 21.7734H4.78125C5.35547 21.7734 5.83594 21.293 5.83594 20.7305C5.83594 20.1797 5.34375 19.6992 4.78125 19.6992H1.03125C0.480469 19.6992 0 20.1797 0 20.7305C0 21.2812 0.480469 21.7734 1.03125 21.7734ZM8.32031 14.3438C8.71875 13.9453 8.70703 13.2891 8.30859 12.8906L5.68359 10.2188C5.28516 9.83203 4.60547 9.83203 4.21875 10.2188C3.82031 10.6172 3.82031 11.2734 4.21875 11.6836L6.85547 14.3555C7.24219 14.7539 7.92188 14.7539 8.32031 14.3438ZM14.7305 11.8125C15.2812 11.8125 15.7617 11.3438 15.7617 10.793V7.04297C15.7617 6.48047 15.2812 6 14.7305 6C14.168 6 13.6875 6.48047 13.6875 7.04297V10.793C13.6875 11.3438 14.168 11.8125 14.7305 11.8125ZM21.1406 14.3438C21.5273 14.7539 22.207 14.7539 22.5938 14.3438L25.2422 11.6836C25.6406 11.2734 25.6406 10.6172 25.2422 10.2188C24.8438 9.82031 24.1641 9.83203 23.7773 10.2305L21.1406 12.8906C20.7305 13.2891 20.7305 13.9453 21.1406 14.3438ZM24.668 21.7734H28.4297C28.9805 21.7734 29.4492 21.2812 29.4492 20.7305C29.4492 20.1797 28.9805 19.6992 28.4297 19.6992H24.668C24.1055 19.6992 23.625 20.1797 23.625 20.7305C23.625 21.293 24.0938 21.7734 24.668 21.7734Z" fill="black" fill-opacity="0.85"/>
<path d="M10.2656 21.7852H19.1953C19.7695 21.7852 20.25 21.3047 20.25 20.7539C20.25 20.1914 19.7812 19.7109 19.1953 19.7109H10.2656C9.67969 19.7109 9.19922 20.1914 9.19922 20.7539C9.19922 21.3047 9.69141 21.7852 10.2656 21.7852Z" fill="black" fill-opacity="0.85"/>
</g>
<defs>
<clipPath id="clip0_2124_62621">
<rect width="29.4492" height="16.2539" fill="white" transform="translate(0 6)"/>
</clipPath>
</defs>
</svg>
