<svg width="28" height="28" viewBox="0 0 28 28" fill="none" xmlns="http://www.w3.org/2000/svg">
<path d="M6.67969 24.5977H20.8945C23.3555 24.5977 24.5742 23.3789 24.5742 20.9648V6.65625C24.5742 4.24219 23.3555 3.02344 20.8945 3.02344H6.67969C4.23047 3.02344 3 4.23047 3 6.65625V20.9648C3 23.3906 4.23047 24.5977 6.67969 24.5977Z" fill="black" fill-opacity="0.85"/>
<path d="M21.3047 13.793C21.3047 14.0508 21.1992 14.25 20.9648 14.4961L17.4727 18C17.3203 18.1641 17.0977 18.2461 16.8398 18.2461C16.3477 18.2461 15.9727 17.8711 15.9727 17.3672C15.9727 17.0977 16.0781 16.8867 16.2305 16.7227L17.1445 15.8203L18.6094 14.6016L16.0547 14.707H11.5313L8.97656 14.6016L10.4297 15.8203L11.3438 16.7227C11.4961 16.8867 11.6016 17.0977 11.6016 17.3672C11.6016 17.8711 11.2266 18.2461 10.7344 18.2461C10.4766 18.2461 10.2539 18.1641 10.1016 18L6.60938 14.4961C6.375 14.25 6.26953 14.0508 6.26953 13.793C6.26953 13.5234 6.375 13.3242 6.60938 13.0781L10.1016 9.58594C10.2539 9.42188 10.4766 9.32812 10.7344 9.32812C11.2266 9.32812 11.6016 9.72656 11.6016 10.2188C11.6016 10.4883 11.5078 10.6992 11.3438 10.875L10.4297 11.7656L8.96484 12.9844L11.5313 12.8906H16.0547L18.6211 12.9844L17.1445 11.7656L16.2305 10.875C16.0664 10.6992 15.9727 10.4883 15.9727 10.2188C15.9727 9.72656 16.3477 9.32812 16.8398 9.32812C17.0977 9.32812 17.3203 9.42188 17.4727 9.58594L20.9648 13.0781C21.1992 13.3242 21.3047 13.5234 21.3047 13.793Z" fill="white"/>
</svg>
