<svg width="28" height="28" viewBox="0 0 28 28" fill="none" xmlns="http://www.w3.org/2000/svg">
<path d="M2 8.28515C2 17.0273 7.23828 22.7695 15.3008 22.7695C20.9258 22.7695 24.9102 19.1367 24.9102 14.0039C24.9102 9.0703 20.8906 5.5078 15.3477 5.5078C13.4375 5.5078 11.5039 6.04687 9.35938 6.04687C7.55469 6.04687 5.99609 5.49608 4.70703 4.03124C4.02734 3.23436 2.67969 3.16405 2.35156 4.51171C2.07031 5.64843 2 7.65233 2 8.28515ZM3.76953 8.28515C3.76953 7.51171 3.78125 6.64452 3.88672 6.01171C3.91016 5.85937 3.99219 5.84765 4.09766 5.9414C5.41016 7.13671 7.47266 7.8164 9.35938 7.8164C10.625 7.8164 11.7734 7.65233 12.8047 7.51171C13.7422 7.3828 14.5625 7.27733 15.3477 7.27733C19.918 7.27733 23.1406 10.0781 23.1406 14.0039C23.1406 18.1406 19.9414 21 15.3008 21C8.23438 21 3.76953 16.0547 3.76953 8.28515ZM8.85547 11.0156C9.59375 13.3008 11.8086 14.2148 14.5742 14.8945C18.5469 15.8438 20.3633 16.6172 21.957 18.6094C23.2578 20.2148 23.5742 22.1484 24.3008 24.4688C24.4766 25.0312 24.8633 25.2305 25.2734 25.2305C26.1406 25.2305 26.832 24.4219 26.832 23.4492C26.832 21.832 24.9922 19.0312 23.7617 17.3555C22.1797 15.2578 19.4727 14.0508 15.1719 13.3594C12.9453 12.9844 10.9766 12.3984 9.62891 10.6406C9.25391 10.1367 8.67969 10.4883 8.85547 11.0156Z" fill="black" fill-opacity="0.85"/>
</svg>
