<svg width="28" height="28" viewBox="0 0 28 28" fill="none" xmlns="http://www.w3.org/2000/svg">
<path d="M13.9531 25.9062C20.4922 25.9062 25.9062 20.4805 25.9062 13.9531C25.9062 7.41406 20.4805 2 13.9414 2C7.41406 2 2 7.41406 2 13.9531C2 20.4805 7.42578 25.9062 13.9531 25.9062Z" fill="black" fill-opacity="0.85"/>
<path d="M14.6094 19.707C14 19.707 13.6484 19.2969 13.6484 18.6172V10.3086H13.5664L12.0078 11.3398C11.7266 11.5273 11.5977 11.5508 11.4102 11.5508C11.0234 11.5508 10.7188 11.1992 10.7188 10.8242C10.7188 10.5195 10.8359 10.3437 11.0938 10.1445L13.2734 8.66797C13.7891 8.31641 14.1055 8.19922 14.5625 8.19922C15.207 8.19922 15.582 8.58594 15.582 9.28906V18.6172C15.582 19.2969 15.2305 19.707 14.6094 19.707Z" fill="white"/>
</svg>
