<svg width="28" height="28" viewBox="0 0 28 28" fill="none" xmlns="http://www.w3.org/2000/svg">
<g clip-path="url(#clip0_2124_32160)">
<path d="M14.3602 28.168C17.5594 28.168 18.0633 25.7891 19.9266 25.7891C21.8251 25.7891 22.1297 28.168 25.786 28.168H25.8446C26.3016 28.168 26.6766 27.793 26.6766 27.3359C26.6766 26.8789 26.3016 26.5156 25.8446 26.5156H25.786C24.5321 26.5156 23.8172 25.9883 22.9383 25.3672C22.1766 24.8164 21.2274 24.1367 19.9266 24.1367C18.579 24.1367 17.618 24.8516 16.8563 25.4258C16.0477 26.0352 15.4149 26.5156 14.3602 26.5156C13.3055 26.5156 12.6727 26.0352 11.8641 25.4258C11.1024 24.8516 10.1415 24.1367 8.7938 24.1367C7.49302 24.1367 6.5438 24.8164 5.78209 25.3672C4.90318 25.9883 4.20005 26.5156 2.93443 26.5156H2.87584C2.4188 26.5156 2.0438 26.8789 2.0438 27.3359C2.0438 27.793 2.4188 28.168 2.87584 28.168H2.93443C6.59068 28.168 6.89537 25.7891 8.7938 25.7891C10.6571 25.7891 11.161 28.168 14.3602 28.168ZM2.52427 17.75L6.82505 25.3438L8.24302 24.3945L4.00084 17.0234C3.49693 16.1328 3.69615 15.7227 4.34068 15.4297L12.8719 11.5156C13.4344 11.2578 13.8211 11.0703 14.3602 11.0703C14.8993 11.0703 15.286 11.2578 15.8602 11.5156L24.3797 15.4297C25.0243 15.7227 25.2235 16.1328 24.7196 17.0234L20.4774 24.3945L21.9774 25.2266L26.1961 17.75C27.1922 15.9922 26.7821 14.7148 25.036 13.9297L16.5165 10.0156C16.0243 9.793 15.3329 9.418 14.3602 9.418C13.3993 9.418 12.7079 9.793 12.204 10.0156L3.68443 13.9297C1.95005 14.7148 1.5399 15.9922 2.52427 17.75ZM4.86802 13.7305L6.64927 12.8984L7.90318 4.10938C7.97349 3.65234 8.24302 3.38281 8.6649 3.38281H20.079C20.5243 3.38281 20.8055 3.60547 20.8641 3.98047L22.0946 12.957L23.8758 13.7305L22.5282 3.875C22.3407 2.50391 21.4383 1.73047 20.079 1.73047H8.6649C7.34068 1.73047 6.45005 2.59766 6.2274 4.10938L4.86802 13.7305ZM9.53209 7.64844H13.1649C13.5165 7.64844 13.7508 7.44922 13.7508 7.16797V5.29297C13.7508 5.01172 13.5165 4.8125 13.1649 4.8125H9.53209C9.25084 4.8125 9.06334 5.01172 9.06334 5.29297V7.16797C9.06334 7.44922 9.25084 7.64844 9.53209 7.64844ZM15.4383 7.64844H19.0829C19.4344 7.64844 19.6688 7.44922 19.6688 7.16797V5.29297C19.6688 5.01172 19.4344 4.8125 19.0829 4.8125H15.4383C15.1688 4.8125 14.9813 5.01172 14.9813 5.29297V7.16797C14.9813 7.44922 15.1688 7.64844 15.4383 7.64844ZM9.26255 3.01953H10.9149V1.08594C10.9149 0.82812 11.0555 0.6875 11.3016 0.6875H17.4305C17.6766 0.6875 17.8172 0.82812 17.8172 1.08594V3.01953H19.4696V0.96875C19.4696 -0.191406 18.7079 -0.964844 17.5477 -0.964844H11.1844C10.0243 -0.964844 9.26255 -0.191406 9.26255 0.96875V3.01953Z" fill="black" fill-opacity="0.85"/>
</g>
<defs>
<clipPath id="clip0_2124_32160">
<rect width="28" height="28" fill="white"/>
</clipPath>
</defs>
</svg>
