<svg width="28" height="28" viewBox="0 0 28 28" fill="none" xmlns="http://www.w3.org/2000/svg">
<path d="M6.67969 24.5977H20.8945C23.3555 24.5977 24.5742 23.3789 24.5742 20.9648V6.65625C24.5742 4.24219 23.3555 3.02344 20.8945 3.02344H6.67969C4.23047 3.02344 3 4.23047 3 6.65625V20.9648C3 23.3906 4.23047 24.5977 6.67969 24.5977ZM6.70312 22.7109C5.53125 22.7109 4.88672 22.0898 4.88672 20.8711V6.75C4.88672 5.53125 5.53125 4.91016 6.70312 4.91016H20.8711C22.0312 4.91016 22.6875 5.53125 22.6875 6.75V20.8711C22.6875 22.0898 22.0312 22.7109 20.8711 22.7109H6.70312Z" fill="black" fill-opacity="0.85"/>
<path d="M9.60937 18.0938H18.5156C19.9102 18.0938 21 16.9805 21 15.6211C21 14.4492 20.2148 13.4766 19.1719 13.2188C19.1836 13.1016 19.1953 12.9844 19.1953 12.8789C19.1953 10.5 17.2969 8.56641 14.8594 8.56641C13.4297 8.56641 12.1641 9.24609 11.3789 10.3242C11.2266 10.2891 11.0508 10.2656 10.9102 10.2656C9.70312 10.2656 8.68359 11.1445 8.50781 12.3516C7.41797 12.7852 6.60938 13.8516 6.60938 15.1289C6.60938 17.0625 7.91015 18.0938 9.60937 18.0938Z" fill="black" fill-opacity="0.85"/>
</svg>
