<svg width="28" height="28" viewBox="0 0 28 28" fill="none" xmlns="http://www.w3.org/2000/svg">
<g clip-path="url(#clip0_2124_67787)">
<path d="M6.67969 24.5977H20.8945C23.3555 24.5977 24.5742 23.3789 24.5742 20.9648V6.65625C24.5742 4.24219 23.3555 3.02344 20.8945 3.02344H6.67969C4.23047 3.02344 3 4.23047 3 6.65625V20.9648C3 23.3906 4.23047 24.5977 6.67969 24.5977Z" fill="black" fill-opacity="0.85"/>
<path d="M8.27344 6.17578C8.90625 6.17578 9.38672 6.53906 9.67969 7.07812C9.97266 6.53906 10.4766 6.17578 11.0625 6.17578C12.0586 6.17578 12.7734 6.92578 12.7734 7.95703C12.7734 9.48047 11.168 10.8984 9.98438 11.6367C9.87891 11.6953 9.77344 11.7656 9.69141 11.7656C9.62109 11.7656 9.50391 11.707 9.39844 11.6367C8.23828 10.8164 6.59766 9.48047 6.59766 7.95703C6.59766 6.92578 7.3125 6.17578 8.27344 6.17578ZM7.33594 17.0039C6.90234 17.0039 6.59766 16.6875 6.59766 16.2773C6.59766 15.8789 6.90234 15.5625 7.33594 15.5625H19.1133C19.5234 15.5625 19.8281 15.8789 19.8281 16.2773C19.8281 16.6875 19.5234 17.0039 19.1133 17.0039H7.33594ZM7.33594 21.0117C6.90234 21.0117 6.59766 20.6953 6.59766 20.2969C6.59766 19.8867 6.90234 19.5703 7.33594 19.5703H16.0195C16.4414 19.5703 16.7461 19.8867 16.7461 20.2969C16.7461 20.6953 16.4414 21.0117 16.0195 21.0117H7.33594Z" fill="white"/>
</g>
<defs>
<clipPath id="clip0_2124_67787">
<rect width="21.5742" height="21.5977" fill="white" transform="translate(3 3)"/>
</clipPath>
</defs>
</svg>
