<svg width="28" height="28" viewBox="0 0 28 28" fill="none" xmlns="http://www.w3.org/2000/svg">
<path d="M14.2539 15.7734C18.6484 15.7734 22.5977 17.4023 25.5508 20.1445C26.793 18.1992 27.5078 15.832 27.5078 13.1719C27.5078 11.7188 27.3555 10.4648 27.0508 9.36328C26.7344 11.8477 24.6133 13.7695 22.0117 13.7695C19.1641 13.7695 16.8906 11.4844 16.8906 8.64844C16.8906 6.22266 18.5547 4.19531 20.8047 3.65625C19.0352 3.19922 16.8672 3 14.2539 3C11.6289 3 9.46094 3.19922 7.69141 3.65625C9.94141 4.19531 11.6172 6.22266 11.6172 8.64844C11.6172 11.4844 9.33203 13.7695 6.49609 13.7695C3.89453 13.7695 1.77344 11.8477 1.44531 9.36328C1.15234 10.4648 1 11.7188 1 13.1719C1 15.832 1.71484 18.1992 2.94531 20.1445C5.91016 17.4023 9.84766 15.7734 14.2539 15.7734ZM14.2539 25.8516C18.7891 25.8516 22.5742 24.0469 24.9297 21.0469C22.1172 18.3633 18.4492 16.8398 14.2539 16.8398C10.0469 16.8398 6.37891 18.3633 3.56641 21.0352C5.91016 24.0469 9.70703 25.8516 14.2539 25.8516Z" fill="black" fill-opacity="0.85"/>
<path d="M9.00391 22.0195C8.41797 22.0195 7.94922 21.5625 7.94922 20.9766C7.94922 20.3906 8.41797 19.9336 9.00391 19.9336C9.58984 19.9336 10.0469 20.3906 10.0469 20.9766C10.0469 21.5625 9.58984 22.0195 9.00391 22.0195ZM14.2539 22.7695C13.2695 22.7695 12.4609 21.9609 12.4609 20.9766C12.4609 19.9922 13.2695 19.1836 14.2539 19.1836C15.2383 19.1836 16.0469 19.9922 16.0469 20.9766C16.0469 21.9609 15.2383 22.7695 14.2539 22.7695ZM19.5039 22.0195C18.918 22.0195 18.4609 21.5625 18.4609 20.9766C18.4609 20.3906 18.918 19.9336 19.5039 19.9336C20.0898 19.9336 20.5469 20.3906 20.5469 20.9766C20.5469 21.5625 20.0898 22.0195 19.5039 22.0195Z" fill="white"/>
<path d="M6.49609 12.7031C8.74609 12.7031 10.5508 10.8984 10.5508 8.64844C10.5508 6.39844 8.74609 4.58203 6.49609 4.58203C4.24609 4.58203 2.44141 6.39844 2.44141 8.64844C2.44141 10.8984 4.24609 12.7031 6.49609 12.7031ZM6.49609 11.0391C5.17188 11.0391 4.10547 9.97266 4.10547 8.64844C4.10547 7.32422 5.17188 6.25781 6.49609 6.25781C7.82031 6.25781 8.88672 7.32422 8.88672 8.64844C8.88672 9.97266 7.82031 11.0391 6.49609 11.0391ZM6.49609 9.70312C7.08203 9.70312 7.55078 9.23438 7.55078 8.64844C7.55078 8.0625 7.08203 7.59375 6.49609 7.59375C5.91016 7.59375 5.44141 8.0625 5.44141 8.64844C5.44141 9.23438 5.91016 9.70312 6.49609 9.70312ZM22.0117 12.7031C24.2617 12.7031 26.0664 10.8984 26.0664 8.64844C26.0664 6.39844 24.2617 4.58203 22.0117 4.58203C19.7617 4.58203 17.957 6.39844 17.957 8.64844C17.957 10.8984 19.7617 12.7031 22.0117 12.7031ZM22.0117 11.0391C20.6875 11.0391 19.6211 9.97266 19.6211 8.64844C19.6211 7.32422 20.6875 6.25781 22.0117 6.25781C23.3359 6.25781 24.4023 7.32422 24.4023 8.64844C24.4023 9.97266 23.3359 11.0391 22.0117 11.0391ZM22.0117 9.70312C22.5977 9.70312 23.0664 9.23438 23.0664 8.64844C23.0664 8.0625 22.5977 7.59375 22.0117 7.59375C21.4258 7.59375 20.957 8.0625 20.957 8.64844C20.957 9.23438 21.4258 9.70312 22.0117 9.70312Z" fill="black" fill-opacity="0.85"/>
</svg>
