<svg width="28" height="28" viewBox="0 0 28 28" fill="none" xmlns="http://www.w3.org/2000/svg">
<g clip-path="url(#clip0_2124_24660)">
<path d="M9.12109 5.04688V23.7617C9.12109 25.5898 10.3984 26.8086 12.3086 26.8086H20.9922C22.9023 26.8086 24.1797 25.5898 24.1797 23.7617V5.04688C24.1797 3.21875 22.9023 2 20.9922 2H12.3086C10.3984 2 9.12109 3.21875 9.12109 5.04688ZM11.0078 23.457V5.35156C11.0078 4.41406 11.5586 3.88672 12.5547 3.88672H20.7578C21.7422 3.88672 22.293 4.41406 22.293 5.35156V23.457C22.293 24.3945 21.7422 24.9219 20.7578 24.9219H12.5547C11.5586 24.9219 11.0078 24.3945 11.0078 23.457Z" fill="black" fill-opacity="0.85"/>
<path d="M6.44922 16.8359H16.6211C18.0273 16.8359 19.0703 15.7109 19.0703 14.3984C19.0703 13.0859 18.0273 11.9609 16.6211 11.9609H6.44922C5.04297 11.9609 4 13.0859 4 14.3984C4 15.7109 5.04297 16.8359 6.44922 16.8359Z" fill="white"/>
<path d="M6.44922 15.2305H14.0898L16.5625 15.1133L14.0078 17.4102L13.3398 18.0781C13.1875 18.2422 13.082 18.4648 13.082 18.7109C13.082 19.1914 13.4336 19.5195 13.8906 19.5195C14.125 19.5195 14.3477 19.4258 14.5117 19.2617L18.7539 15.0195C18.9648 14.8203 19.0703 14.5977 19.0703 14.3984C19.0703 14.1992 18.9648 13.9531 18.7539 13.7656L14.5117 9.53516C14.3477 9.37109 14.125 9.27734 13.8906 9.27734C13.4336 9.27734 13.082 9.60547 13.082 10.0742C13.082 10.332 13.1875 10.543 13.3398 10.707L14.0078 11.3867L16.5625 13.6719L14.0898 13.5547H6.44922C5.92188 13.5547 5.59375 13.9648 5.59375 14.3984C5.59375 14.832 5.92188 15.2305 6.44922 15.2305Z" fill="black" fill-opacity="0.85"/>
</g>
<defs>
<clipPath id="clip0_2124_24660">
<rect width="20.1797" height="24.832" fill="white" transform="translate(4 2)"/>
</clipPath>
</defs>
</svg>
