<svg width="31" height="28" viewBox="0 0 31 28" fill="none" xmlns="http://www.w3.org/2000/svg">
<path d="M23.4492 18.3126C27.3164 18.3126 29.7891 16.0743 30.668 13.7775C31.0547 12.8282 30.5508 11.9845 29.6367 11.9845C28.9336 11.9845 28.3594 12.2892 27.1172 12.2892C24.1289 12.2892 22.5469 10.6486 22.5469 7.90637C22.5469 6.58215 22.957 5.85559 22.957 5.19934C22.957 4.2384 22.125 3.75793 21.0938 4.12121C18.6094 4.92981 16.5 7.57824 16.5 10.9181C16.5 15.1017 19.5234 18.3126 23.4492 18.3126ZM23.4492 16.5665C20.3789 16.5665 18.2109 14.2111 18.2109 10.8829C18.2109 8.51574 19.5703 6.75793 21.1055 5.91418L21.2344 6.00793C21.0352 6.57043 20.8594 7.35559 20.8594 8.25793C20.8594 11.6564 23.3086 13.9415 26.7188 13.9415C27.5508 13.9415 28.3242 13.8009 28.8633 13.6251L28.9453 13.7072C28.1367 15.2306 26.0625 16.5665 23.4492 16.5665Z" fill="black" fill-opacity="0.85"/>
<path d="M4.96875 24.2657H17.6484C21.0352 24.2657 23.6719 21.6993 23.6719 18.3946C23.6719 15.1134 21.0117 12.6407 17.4961 12.5939C16.125 10.0275 13.6758 8.45715 10.7812 8.45715C6.90234 8.45715 3.65625 11.4454 3.26953 15.3009C1.32422 15.9103 0 17.5978 0 19.7306C0 22.3673 1.99219 24.2657 4.96875 24.2657Z" fill="white"/>
<path d="M4.96875 24.2657H17.6484C21.0352 24.2657 23.6719 21.6993 23.6719 18.3946C23.6719 15.1134 21.0117 12.6407 17.4961 12.5939C16.125 10.0275 13.6758 8.45715 10.7812 8.45715C6.90234 8.45715 3.65625 11.4454 3.26953 15.3009C1.32422 15.9103 0 17.5978 0 19.7306C0 22.3673 1.99219 24.2657 4.96875 24.2657ZM4.92188 22.3907C2.92969 22.3907 1.875 21.2423 1.875 19.7775C1.875 18.5353 2.60156 17.4454 4.32422 16.9767C4.88672 16.8361 5.09766 16.5782 5.14453 15.9806C5.41406 12.6993 7.85156 10.3322 10.7812 10.3322C13.0547 10.3322 14.8242 11.5861 15.9141 13.7657C16.1719 14.2696 16.4531 14.4454 17.0508 14.4454C20.0859 14.4454 21.7852 16.2736 21.7852 18.4532C21.7852 20.6329 20.0039 22.3907 17.6836 22.3907H4.92188Z" fill="black" fill-opacity="0.85"/>
</svg>
