<svg width="28" height="28" viewBox="0 0 28 28" fill="none" xmlns="http://www.w3.org/2000/svg">
<g clip-path="url(#clip0_2124_62639)">
<path d="M10.168 19.4023H18.4648C19.8125 19.4023 20.4453 18.7695 20.4453 17.4219V14.8203H24.8867C25.8594 14.8203 26.6328 14.2461 26.6328 13.3438C26.6328 12.793 26.3516 12.3594 25.8242 11.9023L15.7695 3.03125C15.2773 2.60938 14.8438 2.32812 14.3164 2.32812C13.7891 2.32812 13.3555 2.60938 12.8633 3.03125L2.80859 11.9141C2.25781 12.3945 2 12.793 2 13.3438C2 14.2461 2.77344 14.8203 3.74609 14.8203H8.1875V17.4219C8.1875 18.7695 8.82031 19.4023 10.168 19.4023ZM10.0508 26.8555H18.582C19.7539 26.8555 20.4453 26.1641 20.4453 25.0039V23.1992C20.4453 22.0391 19.7539 21.3477 18.582 21.3477H10.0508C8.87891 21.3477 8.1875 22.0391 8.1875 23.1992V25.0039C8.1875 26.1641 8.87891 26.8555 10.0508 26.8555Z" fill="black" fill-opacity="0.85"/>
</g>
<defs>
<clipPath id="clip0_2124_62639">
<rect width="24.6328" height="24.8555" fill="white" transform="translate(2 2)"/>
</clipPath>
</defs>
</svg>
