<svg width="28" height="28" viewBox="0 0 28 28" fill="none" xmlns="http://www.w3.org/2000/svg">
<path d="M13.9531 25.918C20.4922 25.918 25.9062 20.5039 25.9062 13.9648C25.9062 7.4375 20.4805 2.01172 13.9414 2.01172C7.41406 2.01172 2 7.4375 2 13.9648C2 20.5039 7.42578 25.918 13.9531 25.918Z" fill="black" fill-opacity="0.85"/>
<path d="M10.0742 15.4766C8.35156 15.4766 7.35547 14.3516 7.35547 12.9922C7.35547 11.7734 8.15234 10.8594 9.19531 10.5547C9.39453 8.39844 11.1992 6.67578 13.3672 6.67578C15.043 6.67578 16.3789 7.625 17.1172 9.04297C19.0742 9.04297 20.5859 10.3906 20.5859 12.2422C20.5859 14.0234 19.1445 15.4766 17.2695 15.4766H10.0742ZM10.7656 18.6406C10.625 18.8984 10.2852 19.0039 10.0156 18.8516C9.74609 18.6992 9.66406 18.3359 9.80469 18.0898L10.5195 16.8711C10.6602 16.6133 11 16.5195 11.2695 16.6602C11.5391 16.8242 11.6211 17.1758 11.4805 17.4219L10.7656 18.6406ZM14.082 18.6406C13.9414 18.8984 13.5898 19.0039 13.332 18.8516C13.0625 18.6992 12.9805 18.3359 13.1328 18.0898L13.8359 16.8711C13.9766 16.6133 14.3281 16.5195 14.5859 16.6602C14.8555 16.8242 14.9375 17.1758 14.7852 17.4219L14.082 18.6406ZM17.3867 18.6406C17.2461 18.8984 16.9062 19.0039 16.6367 18.8516C16.3672 18.6992 16.2852 18.3359 16.4258 18.0898L17.1406 16.8711C17.2812 16.6133 17.6211 16.5195 17.8906 16.6602C18.1719 16.8242 18.2422 17.1758 18.1016 17.4219L17.3867 18.6406ZM9.33594 21.0312C8.89062 21.0312 8.52734 20.668 8.52734 20.2227C8.52734 19.7891 8.89062 19.4258 9.33594 19.4258C9.76953 19.4258 10.1328 19.7891 10.1328 20.2227C10.1328 20.668 9.76953 21.0312 9.33594 21.0312ZM12.6523 21.0312C12.207 21.0312 11.8437 20.668 11.8437 20.2227C11.8437 19.7891 12.207 19.4258 12.6523 19.4258C13.0977 19.4258 13.4609 19.7891 13.4609 20.2227C13.4609 20.668 13.0977 21.0312 12.6523 21.0312ZM15.957 21.0312C15.5234 21.0312 15.1484 20.668 15.1484 20.2227C15.1484 19.7891 15.5234 19.4258 15.957 19.4258C16.3906 19.4258 16.7656 19.7891 16.7656 20.2227C16.7656 20.668 16.3906 21.0312 15.957 21.0312Z" fill="white"/>
</svg>
