<svg width="28" height="28" viewBox="0 0 28 28" fill="none" xmlns="http://www.w3.org/2000/svg">
<path d="M13.6367 25.2305C13.8828 25.2305 14.2344 25.0664 14.4922 24.9141C21.1016 20.6953 25.2852 15.7852 25.2852 10.793C25.2852 6.64453 22.4375 3.71484 18.7461 3.71484C16.4609 3.71484 14.7031 4.98047 13.6367 6.91406C12.5938 4.99219 10.8242 3.71484 8.52734 3.71484C4.84766 3.71484 2 6.64453 2 10.793C2 15.7852 6.18359 20.6953 12.793 24.9141C13.0391 25.0664 13.4023 25.2305 13.6367 25.2305Z" fill="black" fill-opacity="0.85"/>
<path d="M14.4805 18.832C14.4805 19.3242 14.0469 19.7344 13.543 19.7344C13.0391 19.7344 12.6172 19.3242 12.6172 18.832V14.4961L12.6875 12.5391L11.6797 13.582L10.6133 14.6719C10.4492 14.8359 10.2031 14.9414 9.96875 14.9414C9.46484 14.9414 9.11328 14.6016 9.11328 14.0977C9.11328 13.8281 9.23047 13.6289 9.41797 13.4531L12.8633 10.2891C13.1211 10.0547 13.3086 9.97266 13.543 9.97266C13.7773 9.97266 13.9648 10.0547 14.2227 10.2891L17.668 13.4531C17.8555 13.6289 17.9727 13.8281 17.9727 14.0977C17.9727 14.6016 17.5977 14.9414 17.1172 14.9414C16.8711 14.9414 16.6484 14.8359 16.4727 14.6719L15.4062 13.582L14.3984 12.5391L14.4805 14.4961V18.832Z" fill="white"/>
</svg>
