<svg width="29" height="29" viewBox="0 0 29 29" fill="none" xmlns="http://www.w3.org/2000/svg">
<g clip-path="url(#clip0_2124_46012)">
<path d="M13.9687 25.9272C20.5078 25.9272 25.9218 20.5015 25.9218 13.9741C25.9218 7.43506 20.4961 2.021 13.957 2.021C7.42968 2.021 2.01562 7.43506 2.01562 13.9741C2.01562 20.5015 7.44141 25.9272 13.9687 25.9272ZM13.9687 23.9351C8.43751 23.9351 4.01954 19.5054 4.01954 13.9741C4.01954 8.44288 8.42578 4.01319 13.957 4.01319C19.4883 4.01319 23.9297 8.44288 23.9297 13.9741C23.9297 19.5054 19.5 23.9351 13.9687 23.9351Z" fill="black" fill-opacity="0.85"/>
<path d="M9.28125 16.0601C9.28125 19.0366 11.2148 20.8648 13.9687 20.8648C16.0429 20.8648 17.4609 20.0327 18.4101 18.0874C18.9258 17.0796 19.3242 15.8608 19.7461 14.4663C19.9218 13.8921 20.1679 13.189 20.1679 12.8726C20.1679 12.4976 19.8867 12.2398 19.5 12.2398C19.0547 12.2398 18.7968 12.5093 18.4804 13.1421L17.5312 15.146C17.4375 15.3569 17.3437 15.439 17.2383 15.439C17.0976 15.439 17.0156 15.3452 17.0156 15.1343V7.99755C17.0156 7.59911 16.6758 7.25927 16.2773 7.25927C15.8554 7.25927 15.5273 7.59911 15.5273 7.99755V13.0601C15.3398 13.0132 15.1523 12.9429 14.9531 12.9077V7.01318C14.9531 6.60302 14.625 6.26318 14.2031 6.26318C13.7929 6.26318 13.4648 6.60302 13.4648 7.01318V12.8257C13.2539 12.8608 13.0547 12.8726 12.8672 12.9077V7.59911C12.8672 7.17724 12.5156 6.84911 12.1054 6.84911C11.6953 6.84911 11.3555 7.17724 11.3555 7.59911V13.3882C11.1445 13.4819 10.9687 13.5991 10.793 13.7046V9.72021C10.793 9.31005 10.4414 8.97021 10.043 8.97021C9.6211 8.97021 9.28125 9.31005 9.28125 9.72021V16.0601Z" fill="black" fill-opacity="0.85"/>
</g>
<defs>
<clipPath id="clip0_2124_46012">
<rect width="23.9062" height="23.918" fill="white" transform="translate(2.01562 2.021)"/>
</clipPath>
</defs>
</svg>
