<svg width="28" height="31" viewBox="0 0 28 31" fill="none" xmlns="http://www.w3.org/2000/svg">
<path d="M5.93309 27.4336C7.72606 29.2383 10.0112 30.375 12.4956 30.375C13.0932 30.375 13.5034 29.9883 13.5034 29.4375C13.5034 28.9336 13.105 28.6055 12.437 28.5586C10.5151 28.4414 8.64012 27.6445 7.17528 26.1914C5.72215 24.7266 4.92528 22.8633 4.80809 20.9297C4.7495 20.1797 4.44481 19.8867 3.85887 19.8867C3.40184 19.8867 2.95653 20.2148 3.0034 20.8594C3.15575 23.3438 4.11668 25.6406 5.93309 27.4336Z" fill="black" fill-opacity="0.85"/>
<path d="M8.83959 24.5156C10.0466 25.7227 11.6873 26.3203 12.6951 26.3203C13.2459 26.3203 13.6209 25.9688 13.6209 25.4648C13.6209 24.9961 13.2928 24.6211 12.5662 24.5156C11.6638 24.4219 10.8201 24 10.0818 23.2734C9.37865 22.5586 8.9685 21.6914 8.83959 20.6953C8.73412 20.0391 8.47631 19.7695 7.90209 19.7695C7.38646 19.7695 6.97631 20.168 7.05834 20.8008C7.21068 22.2305 7.82006 23.4961 8.83959 24.5156Z" fill="black" fill-opacity="0.85"/>
<path d="M17.8623 23.0742C22.3623 23.0742 24.3662 22.0547 24.3662 19.4648V4.25391C24.3662 1.58203 21.9052 0 17.8623 0C13.7959 0 11.335 1.58203 11.335 4.25391V19.4648C11.335 22.0547 13.3506 23.0742 17.8623 23.0742ZM17.8623 21.2461C14.4873 21.2461 13.1748 20.7305 13.1748 19.4062V4.25391C13.1748 2.71875 14.8037 1.85156 17.8623 1.85156C20.8974 1.85156 22.5146 2.71875 22.5146 4.25391V19.4062C22.5146 20.7305 21.2138 21.2461 17.8623 21.2461ZM17.8506 9.71484C18.6943 9.71484 19.9717 9.78516 20.417 9.78516C21.1201 9.78516 21.4482 9.49219 21.5068 8.75391L21.6474 7.11328C21.7646 5.76562 20.874 5.25 17.8506 5.25C14.8271 5.25 13.9365 5.76562 14.0537 7.11328L14.1943 8.75391C14.2529 9.49219 14.581 9.78516 15.2842 9.78516C15.7177 9.78516 17.0537 9.71484 17.8506 9.71484ZM17.8506 19.125C20.874 19.125 21.8349 18.6797 21.6123 17.2852L21.4951 16.4883C21.3193 15.375 20.4521 15.0234 17.8506 15.0234C15.249 15.0234 14.3818 15.375 14.206 16.4883L14.0771 17.2852C13.8662 18.6797 14.8271 19.125 17.8506 19.125ZM23.3701 9.23438H24.8701C25.456 9.23438 25.9013 8.78906 25.9013 8.23828V7.79297C25.9013 7.23047 25.456 6.79688 24.8701 6.79688H23.3701V9.23438ZM12.3311 9.23438V6.79688H10.8311C10.2451 6.79688 9.7998 7.23047 9.7998 7.79297V8.23828C9.7998 8.78906 10.2451 9.23438 10.8311 9.23438H12.3311Z" fill="black" fill-opacity="0.85"/>
</svg>
