<svg width="28" height="28" viewBox="0 0 28 28" fill="none" xmlns="http://www.w3.org/2000/svg">
<path d="M13.9531 25.9062C20.4922 25.9062 25.9062 20.4805 25.9062 13.9531C25.9062 7.41406 20.4805 2 13.9414 2C7.41406 2 2 7.41406 2 13.9531C2 20.4805 7.42578 25.9062 13.9531 25.9062ZM13.9531 23.9141C8.42188 23.9141 4.00391 19.4844 4.00391 13.9531C4.00391 8.42188 8.41016 3.99219 13.9414 3.99219C19.4727 3.99219 23.9141 8.42188 23.9141 13.9531C23.9141 19.4844 19.4844 23.9141 13.9531 23.9141Z" fill="black" fill-opacity="0.85"/>
<path d="M9.96875 14.9844H18.3125C18.5469 14.7031 18.7109 14.3984 18.8633 14.0586C18.9688 13.8008 18.9453 13.5781 18.8047 13.4258C18.6875 13.3203 18.5 13.2969 18.2656 13.3789C17.8203 13.5664 17.2695 13.6484 16.6367 13.6484C14.0352 13.6484 12.3828 12.043 12.3828 9.49999C12.3828 8.83202 12.4883 8.11718 12.6875 7.74218C12.8164 7.49608 12.793 7.28515 12.6875 7.1328C12.5586 6.98046 12.3125 6.9453 12.0312 7.06249C10.2148 7.81249 8.98438 9.69921 8.98438 11.8906C8.98438 13.0742 9.34766 14.1289 9.96875 14.9844ZM8.19922 16.6602H20.7852C21.0195 16.6602 21.1953 16.4844 21.1953 16.25C21.1953 16.0039 21.0195 15.8281 20.7852 15.8281H8.19922C7.96484 15.8281 7.78906 16.0156 7.78906 16.25C7.78906 16.4844 7.96484 16.6602 8.19922 16.6602ZM7.10938 18.2656H19.6836C19.918 18.2656 20.0938 18.0898 20.0938 17.8555C20.0938 17.6094 19.918 17.4336 19.6836 17.4336H7.10938C6.875 17.4336 6.6875 17.6211 6.6875 17.8555C6.6875 18.0898 6.875 18.2656 7.10938 18.2656ZM8.19922 19.8711H20.7852C21.0195 19.8711 21.1953 19.6953 21.1953 19.4609C21.1953 19.2148 21.0195 19.0391 20.7852 19.0391H8.19922C7.96484 19.0391 7.78906 19.2266 7.78906 19.4609C7.78906 19.6953 7.96484 19.8711 8.19922 19.8711Z" fill="black" fill-opacity="0.85"/>
</svg>
