<svg width="28" height="28" viewBox="0 0 28 28" fill="none" xmlns="http://www.w3.org/2000/svg">
<g clip-path="url(#clip0_2124_50118)">
<path d="M5 25.9297C5 26.4453 5.42188 26.8672 5.9375 26.8672C6.46484 26.8672 6.88672 26.4453 6.88672 25.9297V4.50781C6.88672 4.13281 7.13281 3.88672 7.48438 3.88672H20.375C20.7266 3.88672 20.9727 4.13281 20.9727 4.50781V25.9297C20.9727 26.4453 21.3945 26.8672 21.9219 26.8672C22.4375 26.8672 22.8594 26.4453 22.8594 25.9297V4.39062C22.8594 2.96094 21.8867 2 20.4102 2H7.44922C5.98438 2 5 2.96094 5 4.39062V25.9297Z" fill="black" fill-opacity="0.85"/>
<path d="M8.25781 26.1992C8.25781 26.4219 8.44531 26.5391 8.66797 26.4453L12.3477 24.8164C12.6406 24.6875 12.7578 24.5938 12.7578 24.2891V7.40236C12.7578 7.1094 12.6406 7.00393 12.3594 6.88674L8.66797 5.24611C8.44531 5.15236 8.25781 5.26955 8.25781 5.50393V26.1992Z" fill="black" fill-opacity="0.85"/>
</g>
<defs>
<clipPath id="clip0_2124_50118">
<rect width="17.8594" height="24.8789" fill="white" transform="translate(5 2)"/>
</clipPath>
</defs>
</svg>
