<svg width="36" height="28" viewBox="0 0 36 28" fill="none" xmlns="http://www.w3.org/2000/svg">
<path d="M17.8359 25.2773C18.4453 25.2773 18.879 24.8438 18.879 24.2344V4.01953C18.879 3.42188 18.4453 3 17.8359 3C17.2266 3 16.7812 3.42188 16.7812 4.01953V24.2344C16.7812 24.8438 17.2266 25.2773 17.8359 25.2773Z" fill="black" fill-opacity="0.85"/>
<path d="M0 14.1328C0 14.7422 0.421875 15.1875 1.03125 15.1875H9.02344L11.3555 15.1055L7.48828 18.8438C7.28906 19.0312 7.19531 19.3125 7.19531 19.5938C7.19531 20.1797 7.64062 20.6133 8.22656 20.6133C8.51953 20.6133 8.77734 20.4961 9.01172 20.2617L14.3672 14.918C14.5898 14.6953 14.7305 14.4258 14.7305 14.1328C14.7305 13.8398 14.5898 13.5703 14.3672 13.3477L9.01172 8.00391C8.77734 7.76953 8.51953 7.65234 8.22656 7.65234C7.64062 7.65234 7.19531 8.08594 7.19531 8.67188C7.19531 8.95312 7.28906 9.23438 7.48828 9.42188L11.3555 13.1602L9.02344 13.0898H1.03125C0.421875 13.0898 0 13.5234 0 14.1328ZM35.6719 14.1328C35.6719 13.5234 35.2383 13.0898 34.6289 13.0898H26.6484L24.3047 13.1602L28.1719 9.42188C28.3711 9.23438 28.4648 8.95312 28.4648 8.67188C28.4648 8.08594 28.0195 7.65234 27.4453 7.65234C27.1523 7.65234 26.8828 7.76953 26.6484 8.00391L21.293 13.3477C21.0703 13.5703 20.9414 13.8398 20.9414 14.1328C20.9414 14.4258 21.0703 14.6953 21.293 14.918L26.6484 20.2617C26.8828 20.4961 27.1523 20.6133 27.4453 20.6133C28.0195 20.6133 28.4648 20.1797 28.4648 19.5938C28.4648 19.3125 28.3711 19.0312 28.1719 18.8438L24.3047 15.1055L26.6484 15.1875H34.6289C35.2383 15.1875 35.6719 14.7422 35.6719 14.1328Z" fill="black" fill-opacity="0.85"/>
</svg>
