<svg width="28" height="28" viewBox="0 0 28 28" fill="none" xmlns="http://www.w3.org/2000/svg">
<g clip-path="url(#clip0_2124_88705)">
<path d="M13.9531 25.918C20.4922 25.918 25.9062 20.5039 25.9062 13.9648C25.9062 7.4375 20.4805 2.01172 13.9414 2.01172C7.41406 2.01172 2 7.4375 2 13.9648C2 20.5039 7.42578 25.918 13.9531 25.918Z" fill="black" fill-opacity="0.85"/>
<path d="M10.7305 7.71875V7.48438C10.7305 6.62891 11.1523 6.19531 11.9961 6.19531H15.8984C16.7539 6.19531 17.1758 6.62891 17.1758 7.48438V7.71875H10.7305ZM13.3203 21.7344C12.5117 21.7344 12.0781 21.2891 12.0781 20.4453V12.8281C12.0781 12.0898 11.9141 11.5977 11.6445 11.1875L11.2695 10.6016C10.9414 10.0977 10.7305 9.66406 10.7305 9.06641V8.45703H17.1758V9.06641C17.1758 9.66406 16.9648 10.0977 16.6367 10.6016L16.2617 11.1875C15.9922 11.5977 15.8398 12.0898 15.8398 12.8281V20.4453C15.8398 21.2891 15.3945 21.7344 14.5742 21.7344H13.3203ZM12.793 13.4492V15.4297C12.793 16.0625 13.2969 16.5898 13.9531 16.5898C14.6094 16.5898 15.1133 16.0625 15.1133 15.4297V13.4492C15.1133 12.8047 14.6094 12.2891 13.9531 12.2891C13.2969 12.2891 12.793 12.8047 12.793 13.4492ZM13.9531 16.1797C13.5312 16.1797 13.2148 15.8516 13.2148 15.4297C13.2148 15.0195 13.543 14.6797 13.9531 14.6797C14.375 14.6797 14.6914 15.0195 14.6914 15.4297C14.6914 15.8516 14.3984 16.1797 13.9531 16.1797Z" fill="white"/>
</g>
<defs>
<clipPath id="clip0_2124_88705">
<rect width="23.9062" height="23.918" fill="white" transform="translate(2 2)"/>
</clipPath>
</defs>
</svg>
