<svg width="28" height="28" viewBox="0 0 28 28" fill="none" xmlns="http://www.w3.org/2000/svg">
<path d="M13.9531 25.9062C20.4922 25.9062 25.9062 20.4805 25.9062 13.9531C25.9062 7.41406 20.4805 2 13.9414 2C7.41406 2 2 7.41406 2 13.9531C2 20.4805 7.42578 25.9062 13.9531 25.9062ZM13.9531 23.9141C8.42188 23.9141 4.00391 19.4844 4.00391 13.9531C4.00391 8.42188 8.41016 3.99219 13.9414 3.99219C19.4727 3.99219 23.9141 8.42188 23.9141 13.9531C23.9141 19.4844 19.4844 23.9141 13.9531 23.9141Z" fill="black" fill-opacity="0.85"/>
<path d="M13.7891 20.7383C16.4258 20.7383 18.6992 19.1211 19.4727 17.1172C19.6719 16.6719 19.4141 16.2969 18.9336 16.4609C18.4766 16.625 17.6914 16.7891 16.9297 16.7891C13.6133 16.7891 11.4805 14.6914 11.4805 11.3633C11.4805 10.6602 11.668 9.69922 11.8555 9.17188C12.043 8.72656 11.7383 8.41016 11.2227 8.62109C8.94922 9.5 7.42578 11.9609 7.42578 14.5391C7.42578 18.1484 10.1797 20.7383 13.7891 20.7383ZM17.2812 13.2617C17.4219 13.2617 17.5156 13.1445 17.5391 13.0039C17.7969 10.918 17.9141 10.8125 20.0469 10.4961C20.2109 10.4727 20.3164 10.3906 20.3164 10.2266C20.3164 10.0859 20.2109 9.98047 20.0703 9.96875C17.9258 9.55859 17.8438 9.52344 17.5391 7.44922C17.5156 7.30859 17.4219 7.20312 17.2812 7.20312C17.1406 7.20312 17.0469 7.30859 17.0234 7.44922C16.7188 9.54689 16.6602 9.66406 14.4922 9.96875C14.3398 9.98047 14.2461 10.0859 14.2461 10.2266C14.2461 10.3789 14.3398 10.4727 14.4922 10.4961C16.6602 10.9063 16.7539 10.9414 17.0234 13.0039C17.0469 13.1445 17.1406 13.2617 17.2812 13.2617Z" fill="black" fill-opacity="0.85"/>
</svg>
