<svg width="28" height="28" viewBox="0 0 28 28" fill="none" xmlns="http://www.w3.org/2000/svg">
<path d="M7.82422 15.2188C7.35547 15.2188 7.00391 14.8672 7.00391 14.3984C7.00391 13.9414 7.35547 13.5898 7.82422 13.5898H13.1328V6.5C13.1328 6.04297 13.4844 5.69141 13.9414 5.69141C14.3984 5.69141 14.7617 6.04297 14.7617 6.5V14.3984C14.7617 14.8672 14.3984 15.2188 13.9414 15.2188H7.82422ZM13.9531 25.9062C20.4922 25.9062 25.9062 20.4805 25.9062 13.9531C25.9062 7.41406 20.4805 2 13.9414 2C7.41406 2 2 7.41406 2 13.9531C2 20.4805 7.42578 25.9062 13.9531 25.9062Z" fill="black" fill-opacity="0.85"/>
</svg>
