<svg width="29" height="29" viewBox="0 0 29 29" fill="none" xmlns="http://www.w3.org/2000/svg">
<g clip-path="url(#clip0_2124_46053)">
<path d="M11.1475 22.5794C14.8038 26.2239 19.3623 25.9895 22.6436 22.72C25.2803 20.0716 25.8077 17.3294 24.6944 14.0247C24.0967 12.1731 23.1123 10.2161 21.917 7.97778C21.4483 7.06372 20.8623 5.86841 20.4639 5.48169C20.0186 5.03638 19.4092 5.05981 18.9288 5.52856C18.4014 6.05591 18.4248 6.68872 18.8233 7.87231L20.1006 11.4348C20.2413 11.8098 20.2178 12.0442 20.0772 12.1848C19.9131 12.3489 19.6905 12.3723 19.3975 12.0793L10.7139 3.38403C10.2217 2.90356 9.41309 2.90356 8.93262 3.38403C8.44043 3.87622 8.44043 4.67309 8.93262 5.16528L15.1436 11.3762C14.8389 11.5168 14.5225 11.7043 14.2061 11.9153L6.99902 4.70825C6.51856 4.21606 5.70996 4.21606 5.21777 4.70825C4.73731 5.20044 4.73731 5.99731 5.21777 6.4895L12.3311 13.6028C12.0967 13.8841 11.874 14.1887 11.6631 14.4934L5.14746 7.96606C4.65527 7.47388 3.8584 7.47388 3.36621 7.96606C2.88574 8.45825 2.88574 9.25513 3.36621 9.74731L10.4561 16.8255C10.3037 17.2239 10.21 17.6223 10.1279 17.9973L5.20606 13.0755C4.72559 12.5833 3.91699 12.5833 3.4248 13.0755C2.94434 13.5676 2.94434 14.3645 3.4248 14.8567L11.1475 22.5794Z" fill="black" fill-opacity="0.85"/>
</g>
<defs>
<clipPath id="clip0_2124_46053">
<rect width="22.238" height="22.248" fill="white" transform="translate(3.00586 3.02368)"/>
</clipPath>
</defs>
</svg>
