<svg width="28" height="28" viewBox="0 0 28 28" fill="none" xmlns="http://www.w3.org/2000/svg">
<g clip-path="url(#clip0_2124_49997)">
<path d="M14.3516 18.7148C19.5195 18.7148 23.7148 14.5195 23.7148 9.36328C23.7148 4.20703 19.5078 0 14.3516 0C9.19531 0 5 4.20703 5 9.36328C5 14.5195 9.18359 18.7148 14.3516 18.7148ZM14.3633 17.0039C10.1328 17.0039 6.73438 13.582 6.73438 9.35156C6.73438 5.13281 10.1328 1.72266 14.3633 1.72266C18.5938 1.72266 21.9922 5.13281 21.9922 9.35156C21.9922 13.582 18.5938 17.0039 14.3633 17.0039ZM13.4258 18.3867V26.5195H15.3125V18.3867H13.4258ZM9.08984 27.293H19.625C20.0586 27.293 20.3398 26.9766 20.3398 26.5195C20.3398 25.6406 19.625 25.0195 18.5117 25.0195H10.1914C9.07812 25.0195 8.36328 25.6406 8.36328 26.5195C8.36328 26.9766 8.64453 27.293 9.08984 27.293Z" fill="black" fill-opacity="0.85"/>
<path d="M11.4805 15.1289C12.8281 15.1289 13.543 13.9922 14.3164 11.918C14.5039 11.9297 14.6562 11.9297 14.8203 11.8828V13.9805C14.8203 15.0117 15.3477 15.5742 16.3555 15.5742C18.2305 15.5742 20.0938 13.8984 20.0938 12.3164C20.0938 10.957 18.9688 10.2539 16.9414 9.50391C16.9531 9.31641 16.9414 9.15234 16.9297 8.95312H18.9219C19.9531 8.95312 20.5156 8.42578 20.5156 7.40625C20.5156 5.55469 18.8516 3.69141 17.2578 3.69141C15.9453 3.69141 15.2188 4.78125 14.4805 6.77344C14.3047 6.77344 14.0937 6.77344 13.918 6.82031V4.85156C13.918 3.82031 13.3906 3.24609 12.3828 3.24609C10.5078 3.24609 8.63281 4.93359 8.63281 6.51562C8.63281 7.86328 9.75781 8.56641 11.7969 9.32812C11.7969 9.50391 11.8086 9.71484 11.8437 9.86719H9.81641C8.77344 9.86719 8.21094 10.3945 8.21094 11.4023C8.21094 13.2773 9.88672 15.1289 11.4805 15.1289ZM14.3633 10.7109C13.6367 10.7109 13.0625 10.1367 13.0625 9.42188C13.0625 8.68359 13.6367 8.10938 14.3633 8.10938C15.0898 8.10938 15.6641 8.68359 15.6641 9.42188C15.6641 10.1367 15.0898 10.7109 14.3633 10.7109Z" fill="black" fill-opacity="0.85"/>
</g>
<defs>
<clipPath id="clip0_2124_49997">
<rect width="18.7148" height="27.293" fill="white" transform="translate(5)"/>
</clipPath>
</defs>
</svg>
