<svg width="28" height="28" viewBox="0 0 28 28" fill="none" xmlns="http://www.w3.org/2000/svg">
<g clip-path="url(#clip0_2124_88496)">
<path d="M13.9531 25.9062C20.4922 25.9062 25.9062 20.4805 25.9062 13.9531C25.9062 7.41406 20.4805 2 13.9414 2C7.41406 2 2 7.41406 2 13.9531C2 20.4805 7.42578 25.9062 13.9531 25.9062ZM13.9531 23.9141C8.42188 23.9141 4.00391 19.4844 4.00391 13.9531C4.00391 8.42188 8.41016 3.99219 13.9414 3.99219C19.4727 3.99219 23.9141 8.42188 23.9141 13.9531C23.9141 19.4844 19.4844 23.9141 13.9531 23.9141Z" fill="black" fill-opacity="0.85"/>
<path d="M10.4727 20.1641C10.7773 20.1641 10.9531 19.9883 11.4922 19.4609L13.8828 17.1055C13.918 17.0703 13.9648 17.0703 14 17.1055L16.4023 19.4609C16.9297 19.9883 17.1055 20.1641 17.4102 20.1641C17.7969 20.1641 18.043 19.8828 18.043 19.4141V9.54688C18.043 8.41016 17.457 7.8125 16.3203 7.8125H11.5625C10.4258 7.8125 9.83984 8.41016 9.83984 9.54688V19.4141C9.83984 19.8828 10.0859 20.1641 10.4727 20.1641Z" fill="black" fill-opacity="0.85"/>
</g>
<defs>
<clipPath id="clip0_2124_88496">
<rect width="23.9062" height="23.918" fill="white" transform="translate(2 2)"/>
</clipPath>
</defs>
</svg>
