<svg width="28" height="28" viewBox="0 0 28 28" fill="none" xmlns="http://www.w3.org/2000/svg">
<g clip-path="url(#clip0_2124_24742)">
<path d="M13.8477 11.8047C20.7734 11.8047 25.3906 9.61328 25.3906 6.40234C25.3906 3.19141 20.7734 1 13.8477 1C6.92188 1 2.30469 3.19141 2.30469 6.40234C2.30469 9.61328 6.92188 11.8047 13.8477 11.8047ZM13.8477 18.0391C21.2188 18.0391 25.6953 15.9766 25.6953 11.0781V9.74219C24.8281 10.7383 23.5625 11.5469 21.957 12.1445V13.7383C21.957 14.1602 21.6055 14.5 21.1836 14.5C20.7617 14.5 20.4219 14.1602 20.4219 13.7383V12.6484C19.7422 12.8242 19.0156 12.9648 18.3594 13.0703V14.5352C18.3594 14.957 18.0195 15.2969 17.5977 15.2969C17.1758 15.2969 16.8242 14.957 16.8242 14.5352V13.2695C16.0625 13.3398 15.1953 13.3984 14.4688 13.4102V14.8281C14.4688 15.25 14.1289 15.6016 13.707 15.6016C13.2852 15.6016 12.9336 15.25 12.9336 14.8281V13.3984C12.1602 13.3867 11.3516 13.3281 10.5898 13.2461V14.5352C10.5898 14.957 10.2383 15.2969 9.81641 15.2969C9.39453 15.2969 9.05469 14.957 9.05469 14.5352V13.0234C8.32812 12.9062 7.64844 12.7539 6.99219 12.5664V13.7383C6.99219 14.1602 6.65234 14.5 6.23047 14.5C5.80859 14.5 5.45703 14.1602 5.45703 13.7383V12.0391C3.98047 11.4531 2.80859 10.6797 2 9.74219V11.0781C2 15.9766 6.46484 18.0391 13.8477 18.0391Z" fill="black" fill-opacity="0.85"/>
<path d="M4.20312 23.3477C4.20312 23.6992 4.36719 24.0625 4.77734 24.2031C7.16797 25.0703 9.73439 25.5273 12.5234 25.5273C15.3008 25.5273 17.8789 25.082 20.2695 24.2031L19.6719 22.5391C17.4688 23.3477 15.1016 23.7578 12.5234 23.7578C9.9336 23.7578 7.57812 23.3477 5.37501 22.5391C4.66017 22.2695 4.20312 22.8086 4.20312 23.3477ZM19.25 26.4062C19.5078 27.1211 20.4219 27.1445 20.7852 26.582L23.1055 22.9141C23.4219 22.4102 23.2227 21.8594 22.6719 21.6719L18.5938 20.2422C17.9609 20.0312 17.2109 20.582 17.4805 21.3555L19.25 26.4062Z" fill="black" fill-opacity="0.85"/>
</g>
<defs>
<clipPath id="clip0_2124_24742">
<rect width="23.6953" height="26.0039" fill="white" transform="translate(2 1)"/>
</clipPath>
</defs>
</svg>
