<svg width="28" height="28" viewBox="0 0 28 28" fill="none" xmlns="http://www.w3.org/2000/svg">
<path d="M13.9531 25.9062C20.4922 25.9062 25.9062 20.4805 25.9062 13.9531C25.9062 7.41406 20.4805 2 13.9414 2C7.41406 2 2 7.41406 2 13.9531C2 20.4805 7.42578 25.9062 13.9531 25.9062ZM13.9531 23.9141C8.42188 23.9141 4.00391 19.4844 4.00391 13.9531C4.00391 8.42188 8.41016 3.99219 13.9414 3.99219C19.4727 3.99219 23.9141 8.42188 23.9141 13.9531C23.9141 19.4844 19.4844 23.9141 13.9531 23.9141Z" fill="black" fill-opacity="0.85"/>
<path d="M10.4609 19.6953H17.6328C18.7344 19.6953 19.3672 19.0625 19.3672 17.8203V11.4922C19.3672 10.2383 18.7227 9.61719 17.4453 9.61719H16.4727C16.4492 8.32812 15.3359 7.23828 13.9531 7.23828C12.5703 7.23828 11.457 8.32812 11.4336 9.61719H10.4609C9.18359 9.61719 8.53906 10.2383 8.53906 11.4922V17.8203C8.53906 19.0742 9.18359 19.6953 10.4609 19.6953ZM12.5586 9.61719C12.5938 8.80859 13.1211 8.30469 13.9531 8.30469C14.7852 8.30469 15.3125 8.80859 15.3477 9.61719H12.5586Z" fill="black" fill-opacity="0.85"/>
</svg>
