<svg width="28" height="30" viewBox="0 0 28 30" fill="none" xmlns="http://www.w3.org/2000/svg">
<path d="M14.0195 17.1914C19.0234 17.1914 22.9727 13.2539 22.9727 8.51953C22.9727 6.04688 21.8828 3.77344 20.3242 2.29688C19.668 1.67578 18.9297 1.39453 17.9453 1.39453H10.082C9.10938 1.39453 8.37109 1.67578 7.71484 2.29688C6.14453 3.77344 5.06641 6.04688 5.06641 8.51953C5.06641 13.2539 9.00391 17.1914 14.0195 17.1914ZM9.94141 29.8242H18.0742C21.4375 29.8242 24.0273 27.1992 24.0273 23.8711C24.0273 20.543 21.4375 17.918 18.0742 17.918H9.94141C6.58984 17.918 4 20.543 4 23.8711C4 27.1992 6.58984 29.8242 9.94141 29.8242Z" fill="black" fill-opacity="0.85"/>
<path d="M11.6875 6.42188C10.9141 6.42188 10.293 5.8125 10.293 5.03906C10.293 4.26562 10.9141 3.64453 11.6875 3.64453C12.4609 3.64453 13.082 4.26562 13.082 5.03906C13.082 5.8125 12.4609 6.42188 11.6875 6.42188ZM16.3516 6.42188C15.5781 6.42188 14.957 5.8125 14.957 5.03906C14.957 4.26562 15.5781 3.64453 16.3516 3.64453C17.1133 3.64453 17.7344 4.26562 17.7344 5.03906C17.7344 5.8125 17.1133 6.42188 16.3516 6.42188ZM9.35548 10.4883C8.25392 10.4883 7.36329 9.59766 7.36329 8.48438C7.36329 7.39453 8.25392 6.50391 9.35548 6.50391C10.457 6.50391 11.3477 7.39453 11.3477 8.48438C11.3477 9.59766 10.457 10.4883 9.35548 10.4883ZM14.0195 10.4883C12.9063 10.4883 12.0273 9.59766 12.0273 8.48438C12.0273 7.39453 12.9063 6.50391 14.0195 6.50391C15.1211 6.50391 16 7.39453 16 8.48438C16 9.59766 15.1211 10.4883 14.0195 10.4883ZM18.6719 10.4883C17.5703 10.4883 16.6914 9.59766 16.6914 8.48438C16.6914 7.39453 17.5703 6.50391 18.6719 6.50391C19.7852 6.50391 20.6641 7.39453 20.6641 8.48438C20.6641 9.59766 19.7852 10.4883 18.6719 10.4883ZM11.6875 14.5078C10.5859 14.5078 9.69532 13.6289 9.69532 12.5156C9.69532 11.4141 10.5859 10.5352 11.6875 10.5352C12.7891 10.5352 13.668 11.4141 13.668 12.5156C13.668 13.6289 12.7891 14.5078 11.6875 14.5078ZM16.3516 14.5078C15.2383 14.5078 14.3594 13.6289 14.3594 12.5156C14.3594 11.4141 15.2383 10.5352 16.3516 10.5352C17.4531 10.5352 18.332 11.4141 18.332 12.5156C18.332 13.6289 17.4531 14.5078 16.3516 14.5078ZM9.80078 27.0938C8.01953 27.0938 6.57812 25.6641 6.57812 23.8711C6.57812 22.0781 8.01953 20.6367 9.80078 20.6367C11.5938 20.6367 13.0469 22.0781 13.0469 23.8711C13.0469 25.6641 11.5938 27.0938 9.80078 27.0938ZM18.2148 27.0938C16.4219 27.0938 14.9805 25.6641 14.9805 23.8711C14.9805 22.0781 16.4219 20.6367 18.2148 20.6367C20.0078 20.6367 21.4492 22.0781 21.4492 23.8711C21.4492 25.6641 20.0078 27.0938 18.2148 27.0938Z" fill="white"/>
</svg>
