<svg width="28" height="28" viewBox="0 0 28 28" fill="none" xmlns="http://www.w3.org/2000/svg">
<path d="M13.9531 25.918C20.4922 25.918 25.9062 20.5039 25.9062 13.9648C25.9062 7.4375 20.4805 2.01172 13.9414 2.01172C7.41406 2.01172 2 7.4375 2 13.9648C2 20.5039 7.42578 25.918 13.9531 25.918Z" fill="black" fill-opacity="0.85"/>
<path d="M10.0625 15.7109C8.33984 15.7109 7.34375 14.5977 7.34375 13.2383C7.34375 12.0195 8.14062 11.1055 9.18359 10.8125C9.38281 8.64453 11.1875 6.93359 13.3555 6.93359C15.0312 6.93359 16.3672 7.87109 17.1055 9.30078C19.0625 9.30078 20.5742 10.6367 20.5742 12.4883C20.5742 14.2812 19.1328 15.7109 17.2578 15.7109H10.0625ZM9.67578 20.3398C9.45312 20.3398 9.33594 20.1641 9.34766 19.9648L9.37109 19.25L8.76172 19.6719C8.59766 19.7656 8.35156 19.7305 8.26953 19.543C8.19922 19.3906 8.22266 19.168 8.44531 19.0625L9.07812 18.7461L8.44531 18.418C8.23438 18.3125 8.19922 18.0781 8.29297 17.9375C8.375 17.7617 8.60938 17.7383 8.76172 17.832L9.37109 18.2539L9.33594 17.5273C9.32422 17.3281 9.45312 17.1523 9.67578 17.1523C9.86328 17.1523 10.0039 17.3281 9.99219 17.5391L9.95703 18.2539L10.543 17.832C10.6953 17.7383 10.9531 17.7734 11.0352 17.9375C11.1289 18.1133 11.082 18.3125 10.8711 18.4062L10.2266 18.7461L10.8711 19.0625C11.0938 19.1562 11.1523 19.4141 11.0234 19.5547C10.9297 19.7188 10.6953 19.7656 10.543 19.6719L9.95703 19.25L9.99219 19.9648C10.0039 20.1641 9.86328 20.3398 9.67578 20.3398ZM13.6602 20.3398C13.4492 20.3398 13.3086 20.1641 13.3203 19.9648L13.3555 19.25L12.7461 19.6719C12.5938 19.7656 12.3477 19.7305 12.2656 19.543C12.1836 19.3906 12.207 19.168 12.4297 19.0625L13.0742 18.7461L12.4297 18.418C12.2188 18.3125 12.1836 18.0781 12.2891 17.9375C12.3711 17.7617 12.6055 17.7383 12.7461 17.832L13.3555 18.2539L13.3086 17.5273C13.2969 17.3281 13.4492 17.1523 13.6602 17.1523C13.8594 17.1523 13.9883 17.3281 13.9766 17.5391L13.9414 18.2539L14.5273 17.832C14.6914 17.7383 14.9492 17.7734 15.0312 17.9375C15.1133 18.1133 15.0664 18.3125 14.8555 18.4062L14.2227 18.7461L14.8555 19.0625C15.0781 19.1562 15.1367 19.4141 15.0195 19.5547C14.9258 19.7188 14.6797 19.7656 14.5273 19.6719L13.9414 19.25L13.9766 19.9648C13.9883 20.1641 13.8594 20.3398 13.6602 20.3398ZM17.6445 20.3398C17.4336 20.3398 17.3047 20.1641 17.3164 19.9648L17.3516 19.25L16.7305 19.6719C16.5781 19.7656 16.332 19.7305 16.25 19.543C16.1797 19.3906 16.2031 19.168 16.4141 19.0625L17.0586 18.7461L16.4141 18.418C16.2031 18.3125 16.1797 18.0781 16.2617 17.9375C16.3555 17.7617 16.5898 17.7383 16.7305 17.832L17.3516 18.2539L17.3047 17.5273C17.293 17.3281 17.4336 17.1523 17.6445 17.1523C17.8438 17.1523 17.9844 17.3281 17.9727 17.5391L17.9258 18.2539L18.5234 17.832C18.6758 17.7383 18.9219 17.7734 19.0156 17.9375C19.0977 18.1133 19.0508 18.3125 18.8516 18.4062L18.207 18.7461L18.8516 19.0625C19.0625 19.1562 19.1094 19.4141 19.0039 19.5547C18.9102 19.7188 18.6641 19.7656 18.5234 19.6719L17.9258 19.25L17.9727 19.9648C17.9844 20.1641 17.8438 20.3398 17.6445 20.3398Z" fill="white"/>
</svg>
