<svg width="28" height="28" viewBox="0 0 28 28" fill="none" xmlns="http://www.w3.org/2000/svg">
<g clip-path="url(#clip0_2124_89157)">
<path d="M2 17.6797C2 18.2422 2.375 18.6289 2.9375 18.6289H4.14453V22.5195C4.14453 23.082 4.51953 23.4453 5.08203 23.4453H8.96094V24.6523C8.96094 25.2148 9.34766 25.5898 9.91016 25.5898C10.4727 25.5898 10.8477 25.2148 10.8477 24.6523V23.4453H12.8516V24.6523C12.8516 25.2148 13.2266 25.5898 13.7891 25.5898C14.3516 25.5898 14.7383 25.2148 14.7383 24.6523V23.4453H16.7305V24.6523C16.7305 25.2148 17.1055 25.5898 17.668 25.5898C18.2422 25.5898 18.6172 25.2148 18.6172 24.6523V23.4453H22.4961C23.0586 23.4453 23.4336 23.082 23.4336 22.5195V18.6172H24.6406C25.2031 18.6172 25.5781 18.2305 25.5781 17.668C25.5781 17.1055 25.2031 16.7305 24.6406 16.7305H23.4336V14.7266H24.6406C25.2031 14.7266 25.5781 14.3516 25.5781 13.7891C25.5781 13.2266 25.2031 12.8398 24.6406 12.8398H23.4336V10.8477H24.6406C25.2031 10.8477 25.5781 10.4609 25.5781 9.89844C25.5781 9.33594 25.2031 8.96094 24.6406 8.96094H23.4336V5.09375C23.4336 4.53125 23.0586 4.15625 22.4961 4.15625H18.6172V2.96094C18.6172 2.39844 18.2422 2.01172 17.668 2.01172C17.1055 2.01172 16.7305 2.39844 16.7305 2.96094V4.15625H14.7383V2.96094C14.7383 2.39844 14.3516 2.01172 13.7891 2.01172C13.2266 2.01172 12.8516 2.39844 12.8516 2.96094V4.15625H10.8477V2.96094C10.8477 2.39844 10.4727 2.01172 9.91016 2.01172C9.34766 2.01172 8.96094 2.39844 8.96094 2.96094V4.15625H5.08203C4.51953 4.15625 4.14453 4.53125 4.14453 5.09375V8.97266H2.9375C2.375 8.97266 2 9.34766 2 9.91016C2 10.4727 2.375 10.8594 2.9375 10.8594H4.14453V12.8516H2.9375C2.375 12.8516 2 13.2383 2 13.8008C2 14.3633 2.375 14.7383 2.9375 14.7383H4.14453V16.7422H2.9375C2.375 16.7422 2 17.1172 2 17.6797ZM6.03125 21.2188V6.39453C6.03125 6.13672 6.125 6.04297 6.37109 6.04297H21.207C21.4531 6.04297 21.5469 6.13672 21.5469 6.39453V21.2188C21.5469 21.4766 21.4531 21.5586 21.207 21.5586H6.37109C6.125 21.5586 6.03125 21.4766 6.03125 21.2188ZM9.44141 19.0508H18.1602C18.7578 19.0508 19.0391 18.7695 19.0391 18.1484V9.45312C19.0391 8.84375 18.7578 8.5625 18.1602 8.5625H9.44141C8.84375 8.5625 8.55078 8.84375 8.55078 9.45312V18.1484C8.55078 18.7695 8.84375 19.0508 9.44141 19.0508ZM10.0859 17.2344V10.3789C10.0859 10.2031 10.2031 10.0977 10.3672 10.0977H17.2227C17.3984 10.0977 17.5039 10.2031 17.5039 10.3789V17.2344C17.5039 17.3984 17.3984 17.5156 17.2227 17.5156H10.3672C10.2031 17.5156 10.0859 17.3984 10.0859 17.2344Z" fill="black" fill-opacity="0.85"/>
</g>
<defs>
<clipPath id="clip0_2124_89157">
<rect width="23.5781" height="23.5898" fill="white" transform="translate(2 2)"/>
</clipPath>
</defs>
</svg>
