<svg width="28" height="28" viewBox="0 0 28 28" fill="none" xmlns="http://www.w3.org/2000/svg">
<path d="M13.9531 25.9062C20.4922 25.9062 25.9062 20.4805 25.9062 13.9531C25.9062 7.41406 20.4805 2 13.9414 2C7.41406 2 2 7.41406 2 13.9531C2 20.4805 7.42578 25.9062 13.9531 25.9062Z" fill="black" fill-opacity="0.85"/>
<path d="M7.48438 13.9531C7.48438 13.3438 7.57812 12.7344 7.74219 12.1719C8.19922 12.2773 8.64453 12.418 9.07812 12.6406L8.96094 12.8633C8.83203 13.0859 8.91406 13.3438 9.125 13.4375C9.3125 13.543 9.55859 13.4844 9.67578 13.2734L9.80469 13.0391C10.0273 13.168 10.2383 13.332 10.4375 13.4961L10.3086 13.6133C10.1562 13.7773 10.168 14.0469 10.3203 14.1992C10.4961 14.3516 10.7422 14.3633 10.9062 14.2109L11.0352 14.082C11.2578 14.3047 11.4336 14.5508 11.6211 14.7969L11.4453 14.9023C11.2461 15.0078 11.1758 15.2773 11.293 15.4648C11.4102 15.6758 11.6562 15.7344 11.8437 15.6289L12.0195 15.5234C12.1602 15.793 12.2656 16.0625 12.3711 16.3438L12.125 16.4023C11.9141 16.4609 11.7852 16.6953 11.8437 16.9297C11.8906 17.1289 12.1133 17.2812 12.3359 17.2227L12.582 17.1523C12.6172 17.4453 12.6523 17.7148 12.6641 17.9844L12.4297 17.9727C12.1836 17.9727 12.0195 18.1836 12.0078 18.4062C12.0078 18.6172 12.1719 18.8164 12.4062 18.8281L12.6523 18.8398C12.5938 19.3086 12.5117 19.7656 12.3594 20.2227C9.58203 19.4844 7.48438 16.9297 7.48438 13.9531ZM13.9648 20.4453C13.6719 20.4453 13.3906 20.4219 13.0977 20.375C13.2617 19.8828 13.3555 19.3672 13.4258 18.8516L13.7188 18.8633C13.9531 18.8633 14.1289 18.6758 14.1289 18.4531C14.1289 18.2305 13.9648 18.0195 13.7305 18.0078H13.4492C13.4375 17.668 13.4023 17.3047 13.3438 16.9648L13.6133 16.8945C13.8242 16.8359 13.9531 16.6016 13.9062 16.3672C13.8477 16.1562 13.625 16.0156 13.4023 16.0742L13.1445 16.1562C13.0273 15.8047 12.8984 15.4648 12.7344 15.1367L13.0039 14.9844C13.2148 14.8672 13.2734 14.5977 13.1562 14.4102C13.0391 14.2109 12.8047 14.1172 12.5938 14.2461L12.3125 14.3984C12.1016 14.0703 11.8555 13.7891 11.5977 13.5078L11.832 13.2617C11.9961 13.1094 11.9961 12.8516 11.8203 12.6992C11.6328 12.5352 11.4102 12.5234 11.2461 12.6875L10.9883 12.9219C10.7422 12.7227 10.4727 12.5117 10.1797 12.3477L10.3086 12.125C10.4258 11.9258 10.3437 11.6562 10.1445 11.5625C9.94531 11.457 9.69921 11.5156 9.58203 11.7266L9.45312 11.9492C8.98438 11.7266 8.50391 11.5625 8 11.4453C8.98438 9.13672 11.3047 7.46094 13.9531 7.46094C14.2227 7.46094 14.5039 7.48438 14.7734 7.51953C14.6211 8.03516 14.5039 8.53906 14.457 9.05469L14.2109 9.04297C13.9648 9.04297 13.7773 9.24219 13.7773 9.45312C13.7773 9.6875 13.9414 9.88672 14.1758 9.89844H14.4453C14.457 10.2266 14.4805 10.5664 14.5508 10.8945L14.2109 10.9766C13.9648 11.0352 13.8594 11.2695 13.918 11.4805C13.9766 11.7031 14.1875 11.8437 14.4102 11.7734L14.7383 11.6914C14.8438 12.0547 14.9961 12.4062 15.1602 12.7578L14.8906 12.9102C14.7031 13.0039 14.6562 13.2617 14.75 13.4727C14.8555 13.6602 15.1016 13.7422 15.3125 13.625L15.5703 13.4727C15.7812 13.7773 16.0039 14.0703 16.2617 14.3516L16.0625 14.5391C15.9102 14.7031 15.9336 14.9609 16.0977 15.1133C16.2617 15.2539 16.5195 15.2773 16.6719 15.125L16.8711 14.9258C17.1406 15.1484 17.4336 15.3711 17.7383 15.5469L17.5977 15.7812C17.4922 15.9805 17.5625 16.2383 17.7617 16.3555C17.9609 16.4727 18.2188 16.3789 18.3242 16.1797L18.4648 15.9336C18.9336 16.1562 19.4258 16.3203 19.9531 16.4258C18.957 18.7695 16.625 20.4453 13.9648 20.4453ZM20.457 13.9531C20.457 14.5625 20.375 15.1484 20.1992 15.6992C19.7305 15.6172 19.2734 15.4766 18.8281 15.2656L18.9453 15.043C19.0625 14.832 18.9922 14.5977 18.7812 14.4805C18.6055 14.3633 18.3359 14.457 18.2305 14.6562L18.1133 14.8672C17.8672 14.7266 17.6445 14.5508 17.4219 14.3633L17.5977 14.1875C17.7734 14.0117 17.7383 13.7422 17.5977 13.6016C17.4102 13.4375 17.1875 13.4141 17 13.6016L16.8242 13.7773C16.625 13.5547 16.4492 13.3203 16.2734 13.0742L16.4492 12.9688C16.6484 12.8633 16.707 12.6406 16.6016 12.418C16.4961 12.2188 16.2383 12.1367 16.0391 12.2539L15.875 12.3477C15.7227 12.0664 15.6172 11.7852 15.5117 11.5039L15.6875 11.4453C15.8984 11.3867 16.0391 11.1758 15.9688 10.9531C15.9102 10.7187 15.6992 10.5898 15.4648 10.6484L15.3125 10.6836C15.2656 10.4258 15.2422 10.168 15.2188 9.92188L15.4883 9.93359C15.7227 9.93359 15.8984 9.74609 15.8984 9.5C15.9102 9.28906 15.7344 9.08984 15.5117 9.07812L15.2305 9.06641C15.2891 8.59766 15.3828 8.12891 15.5352 7.66016C18.3242 8.39844 20.457 10.9648 20.457 13.9531Z" fill="white"/>
</svg>
