<svg width="28" height="28" viewBox="0 0 28 28" fill="none" xmlns="http://www.w3.org/2000/svg">
<path d="M3 21.7344C3 22.25 3.42188 22.6836 3.9375 22.6836C4.46484 22.6836 4.88672 22.25 4.88672 21.7344V5.96094C4.88672 5.44531 4.46484 5.02344 3.9375 5.02344C3.42188 5.02344 3 5.44531 3 5.96094V21.7344ZM22.6875 21.7344C22.6875 22.25 23.1211 22.6836 23.6367 22.6836C24.1523 22.6836 24.5742 22.25 24.5742 21.7344V5.96094C24.5742 5.44531 24.1523 5.02344 23.6367 5.02344C23.1211 5.02344 22.6875 5.44531 22.6875 5.96094V21.7344Z" fill="black" fill-opacity="0.85"/>
<path d="M11.6953 18.6523C12.1992 18.6523 12.5156 18.2891 12.5156 17.7852V10.3789C12.5156 9.80469 12.1523 9.46484 11.5664 9.46484C11.1094 9.46484 10.7695 9.67578 10.3945 9.95703L9.07031 10.9414C8.84766 11.1055 8.70703 11.3047 8.70703 11.5859C8.70703 11.9258 8.94141 12.1836 9.28125 12.1836C9.44531 12.1836 9.5625 12.1367 9.70312 12.0313L10.8633 11.1641H10.875V17.7852C10.875 18.2891 11.1914 18.6523 11.6953 18.6523ZM17.2617 18.6523C17.7656 18.6523 18.082 18.2891 18.082 17.7852V10.3789C18.082 9.80469 17.7188 9.46484 17.1328 9.46484C16.6758 9.46484 16.3359 9.67578 15.9609 9.95703L14.6367 10.9414C14.4141 11.1055 14.2734 11.3047 14.2734 11.5859C14.2734 11.9258 14.5078 12.1836 14.8477 12.1836C15.0117 12.1836 15.1289 12.1367 15.2695 12.0313L16.4297 11.1641H16.4414V17.7852C16.4414 18.2891 16.7578 18.6523 17.2617 18.6523Z" fill="black" fill-opacity="0.85"/>
</svg>
