<svg width="28" height="28" viewBox="0 0 28 28" fill="none" xmlns="http://www.w3.org/2000/svg">
<g clip-path="url(#clip0_2124_24575)">
<path d="M12.8281 17.7891C13.3672 17.7891 13.625 17.4375 14.2812 17.4375C14.9727 17.4375 15.1367 17.7891 15.7344 17.7891C16.332 17.7891 16.7305 17.2148 17.1055 16.6992C17.5391 16.0898 17.6914 15.4805 17.7031 15.4336C17.668 15.4219 16.5312 14.9766 16.5312 13.6641C16.5312 12.5391 17.4219 12.0234 17.4805 11.9883C16.8711 11.1328 15.9922 11.1094 15.7344 11.1094C15.0664 11.1094 14.5273 11.5078 14.1758 11.5078C13.8125 11.5078 13.3438 11.1328 12.7578 11.1328C11.6562 11.1328 10.5547 12.0352 10.5547 13.7578C10.5547 14.8242 10.9648 15.9375 11.4688 16.6641C11.9023 17.2734 12.2773 17.7891 12.8281 17.7891ZM14.2344 11.0273C14.6328 11.0273 15.1367 10.7578 15.4297 10.3945C15.6992 10.0664 15.8867 9.60938 15.8867 9.16406C15.8867 9.09375 15.8867 9.03516 15.875 8.98828C15.4297 9 14.9023 9.28125 14.5742 9.64453C14.3164 9.9375 14.1055 10.3945 14.1055 10.8516C14.1055 10.9219 14.1055 10.9922 14.1172 11.0039C14.1406 11.0273 14.1758 11.0273 14.2344 11.0273ZM4.36719 27.6914H6.06641C7.01562 27.6914 7.63672 27.2461 7.89453 26.3672L8.38672 24.7031H19.8242L20.3164 26.3672C20.5742 27.2461 21.207 27.6914 22.1562 27.6914H23.8555C25.3789 27.6914 26.2109 26.8125 26.2109 25.207V2.49609C26.2109 0.890625 25.3789 0.0117188 23.8555 0.0117188H22.1562C21.207 0.0117188 20.5742 0.457031 20.3164 1.33594L19.8242 3H8.38672L7.89453 1.33594C7.63672 0.457031 7.01562 0.0117188 6.06641 0.0117188H4.36719C2.84375 0.0117188 2 0.890625 2 2.49609V25.207C2 26.8125 2.84375 27.6914 4.36719 27.6914ZM4.48438 25.8047C4.10938 25.8047 3.88672 25.5703 3.88672 25.1953V2.50781C3.88672 2.13281 4.10938 1.89844 4.48438 1.89844H5.77344C5.98438 1.89844 6.17188 2.02734 6.24219 2.25L6.79297 4.13672C6.94531 4.64062 7.23828 4.88672 7.85938 4.88672H20.3633C20.9727 4.88672 21.2656 4.64062 21.418 4.13672L21.9688 2.25C22.0391 2.02734 22.2266 1.89844 22.4375 1.89844H23.7266C24.1016 1.89844 24.3242 2.13281 24.3242 2.50781V25.1953C24.3242 25.5703 24.1016 25.8047 23.7266 25.8047H22.4375C22.2266 25.8047 22.0391 25.6758 21.9688 25.4531L21.418 23.5547C21.2656 23.0625 20.9727 22.8164 20.3633 22.8164H7.85938C7.23828 22.8164 6.94531 23.0625 6.79297 23.5547L6.24219 25.4531C6.17188 25.6758 5.98438 25.8047 5.77344 25.8047H4.48438Z" fill="black" fill-opacity="0.85"/>
</g>
<defs>
<clipPath id="clip0_2124_24575">
<rect width="24.2109" height="27.6914" fill="white" transform="translate(2)"/>
</clipPath>
</defs>
</svg>
