<svg width="33" height="28" viewBox="0 0 33 28" fill="none" xmlns="http://www.w3.org/2000/svg">
<path d="M32.6719 15.1498C32.6719 9.92322 29.6602 6.66541 24.3398 6.00916C20.4375 5.55212 13.6289 5.4115 9.94922 5.39978C6.76172 5.39978 5.13281 7.13416 5.41406 9.99353L5.76562 13.4271C5.87109 14.3412 5.39062 14.763 4.40625 14.763H1.38281C0.574219 14.763 0 15.349 0 16.1458V21.7591C0 23.013 0.960938 23.5169 2.19141 23.2123C3.63281 22.849 5.16797 22.6732 6.97266 22.6732H24.7734C29.7422 22.6732 32.6719 20.0365 32.6719 15.1498ZM30.7852 15.1498C30.7852 18.806 28.5352 20.7865 24.8086 20.7865H11.4258C9.28125 20.7865 8.4375 20.0716 8.21484 18.1029L7.27734 9.78259C7.10156 8.10681 7.91016 7.2865 9.94922 7.2865C13.6289 7.2865 20.332 7.474 24.1758 7.90759C28.4297 8.39978 30.7852 11.0131 30.7852 15.1498Z" fill="black" fill-opacity="0.85"/>
<path d="M14.5783 25.9076C14.1096 25.2748 13.9221 24.888 13.9221 24.1615C13.9221 22.4505 15.5627 21.4779 15.5627 19.2162C15.5627 17.1771 14.0393 16.6732 14.0393 14.2474V13.8138H12.7502V14.2474C12.7502 17.2943 14.2736 17.6458 14.2736 19.2162C14.2736 21.1966 12.633 21.9818 12.633 24.2552C12.633 25.1927 12.926 25.8958 13.5354 26.6693C14.0744 27.3607 15.1525 26.6576 14.5783 25.9076ZM11.2854 13.6263C11.0744 13.9427 11.2619 14.388 11.6838 14.388H15.0822C15.5041 14.388 15.7033 13.9544 15.4807 13.6263L13.84 11.1771C13.7111 10.9896 13.5822 10.9193 13.383 10.9193C13.1955 10.9193 13.0549 11.0013 12.926 11.1771L11.2854 13.6263ZM20.1682 25.9076C19.6877 25.2748 19.5119 24.888 19.5119 24.1615C19.5119 22.4505 21.1408 21.4779 21.1408 19.2162C21.1408 17.1771 19.6291 16.6732 19.6291 14.2474V13.8138H18.34V14.2474C18.34 17.2943 19.8518 17.6458 19.8518 19.2162C19.8518 21.1966 18.2346 21.9818 18.2346 24.2552C18.2346 25.1927 18.5275 25.8958 19.1369 26.6693C19.676 27.3607 20.7307 26.6576 20.1682 25.9076ZM16.8635 13.6263C16.6525 13.9427 16.8518 14.388 17.2854 14.388H20.6604C21.094 14.388 21.2932 13.9427 21.0822 13.6263L19.4299 11.1771C19.301 11.0013 19.1604 10.9193 18.9729 10.9193C18.7854 10.9193 18.6447 11.0013 18.5158 11.1771L16.8635 13.6263ZM25.758 25.9076C25.2893 25.2748 25.1018 24.888 25.1018 24.1615C25.1018 22.4505 26.7307 21.4779 26.7307 19.2162C26.7307 17.1771 25.2072 16.6732 25.2072 14.2474V13.8138H23.9182V14.2474C23.9182 17.2943 25.4416 17.6458 25.4416 19.2162C25.4416 21.1966 23.8127 21.9818 23.8127 24.2552C23.8127 25.1927 24.1057 25.8958 24.715 26.6693C25.2541 27.3607 26.3205 26.6576 25.758 25.9076ZM22.465 13.6263C22.2541 13.9427 22.4416 14.388 22.8635 14.388H26.2619C26.6955 14.388 26.8947 13.9427 26.6721 13.6263L25.0197 11.1771C24.8908 11.0013 24.7502 10.9193 24.5627 10.9193C24.3635 10.9193 24.2346 10.9896 24.1057 11.1771L22.465 13.6263Z" fill="black" fill-opacity="0.85"/>
</svg>
