<svg width="28" height="28" viewBox="0 0 28 28" fill="none" xmlns="http://www.w3.org/2000/svg">
<path d="M27.4141 13.9297C27.4023 12.5586 25.5391 11.5625 23.3008 11.5625H18.5781C17.9219 11.5625 17.6758 11.457 17.2891 11.0117L9.41406 2.42188C9.16797 2.14062 8.86328 2 8.51172 2H7.15234C6.84766 2 6.67188 2.26953 6.82422 2.59766L10.8789 11.5625L4.92578 12.2422L2.80469 8.35156C2.65234 8.05859 2.39453 7.92969 2.00781 7.92969H1.50391C1.19922 7.92969 1 8.12891 1 8.43359V19.4258C1 19.7305 1.19922 19.918 1.50391 19.918H2.00781C2.39453 19.918 2.65234 19.7891 2.80469 19.5078L4.92578 15.6172L10.8789 16.2969L6.82422 25.2617C6.67188 25.5781 6.84766 25.8594 7.15234 25.8594H8.51172C8.86328 25.8594 9.16797 25.707 9.41406 25.4375L17.2891 16.8359C17.6758 16.4023 17.9219 16.2969 18.5781 16.2969H23.3008C25.5391 16.2969 27.4023 15.2891 27.4141 13.9297Z" fill="black" fill-opacity="0.85"/>
</svg>
