<svg width="30" height="29" viewBox="0 0 30 29" fill="none" xmlns="http://www.w3.org/2000/svg">
<g clip-path="url(#clip0_2124_46037)">
<path d="M0.00390625 10.7727C0.00390625 11.2063 0.355468 11.5578 0.800781 11.5578H7.09375C7.52735 11.5578 7.87891 11.2063 7.87891 10.7727C7.87891 10.3274 7.52735 9.9758 7.09375 9.9758H0.800781C0.355468 9.9758 0.00390625 10.3274 0.00390625 10.7727Z" fill="black" fill-opacity="0.85"/>
<path d="M0.00390625 6.36643C0.00390625 6.80002 0.355468 7.15158 0.800781 7.15158H11.3945C11.8281 7.15158 12.1797 6.80002 12.1797 6.36643C12.1797 5.93283 11.8281 5.56955 11.3945 5.56955H0.800781C0.355468 5.56955 0.00390625 5.93283 0.00390625 6.36643Z" fill="black" fill-opacity="0.85"/>
<path d="M0.00390625 1.96017C0.00390625 2.39377 0.355468 2.75705 0.800781 2.75705H11.3945C11.8281 2.75705 12.1797 2.39377 12.1797 1.96017C12.1797 1.52658 11.8281 1.17502 11.3945 1.17502H0.800781C0.355468 1.17502 0.00390625 1.52658 0.00390625 1.96017Z" fill="black" fill-opacity="0.85"/>
<path d="M23.0898 25.2336C28.7266 23.1711 30.707 18.2844 28.5625 12.3547L27.6133 9.75314C26.7695 7.43283 24.0859 5.78049 22.1289 7.1633C20.7578 6.2258 19.1406 6.58908 18.4023 7.17502C17.4648 6.48361 16.1992 6.34299 15.168 6.85861L13.7851 3.06174C13.1758 1.40939 11.5351 0.647672 10.0234 1.19845C8.4414 1.77267 7.70312 3.40158 8.28906 5.05393L10.9727 12.425L10.5742 12.0852C9.98828 11.7571 9.16796 11.6985 8.45312 11.9563C7.23437 12.4016 6.50781 13.4797 6.50781 14.6399C6.50781 15.3899 6.82421 16.0813 7.28124 16.6438L10.9961 21.3078C14.6172 25.8313 18.9883 26.7219 23.0898 25.2336Z" fill="white"/>
<path d="M22.5396 23.7336C27.3208 21.9875 28.9146 18.0149 27.0513 12.9055L26.2896 10.7844C25.5746 8.85079 24.2271 8.00704 23.1723 8.39376C22.9262 8.47579 22.8442 8.65158 22.9263 8.87424L23.2661 9.81174C23.4302 10.257 23.2896 10.5617 23.02 10.6555C22.7388 10.761 22.4341 10.6203 22.27 10.175L22.0473 9.56563C21.6255 8.42892 20.6294 7.94845 19.645 8.30001C19.1997 8.46408 19.059 8.72188 19.1996 9.09688L19.6685 10.3742C19.8208 10.8195 19.6802 11.1125 19.4223 11.218C19.1293 11.3235 18.8247 11.1828 18.6606 10.7375L18.2388 9.56563C17.77 8.28829 16.8091 7.94845 15.8482 8.30001C15.4263 8.45235 15.2739 8.7336 15.4028 9.09688L16.3169 11.593C16.481 12.0383 16.3286 12.343 16.0708 12.4367C15.7778 12.5422 15.4732 12.4016 15.3091 11.9563L12.2739 3.60079C11.981 2.7922 11.2544 2.45236 10.563 2.69846C9.82466 2.96799 9.50826 3.68283 9.80123 4.50314L14.2544 16.7375C14.3599 17.0422 14.231 17.2766 14.0435 17.3469C13.856 17.4055 13.6567 17.3469 13.4224 17.1008L10.4106 13.8664C9.95357 13.386 9.49654 13.2805 9.00435 13.4563C8.25435 13.7258 7.96138 14.4172 8.18404 15.05C8.27779 15.2961 8.40669 15.4836 8.52388 15.6477L12.2505 20.3117C15.3911 24.2492 19.0239 25.011 22.5396 23.7336Z" fill="black" fill-opacity="0.85"/>
</g>
<defs>
<clipPath id="clip0_2124_46037">
<rect width="29.4032" height="25.4682" fill="white" transform="translate(0.00390625 1.021)"/>
</clipPath>
</defs>
</svg>
