<svg width="28" height="28" viewBox="0 0 28 28" fill="none" xmlns="http://www.w3.org/2000/svg">
<g clip-path="url(#clip0_2124_88471)">
<path d="M13.9531 25.918C20.4922 25.918 25.9062 20.5039 25.9062 13.9648C25.9062 7.4375 20.4805 2.01172 13.9414 2.01172C7.41406 2.01172 2 7.4375 2 13.9648C2 20.5039 7.42578 25.918 13.9531 25.918Z" fill="black" fill-opacity="0.85"/>
<path d="M10.6367 8.78516C11.8203 8.78516 12.8867 9.26562 13.4492 10.0625C13.5547 10.2148 13.5664 10.2383 13.5664 10.3906V18.793C13.5664 18.9336 13.4609 19.0273 13.332 19.0273C13.2617 19.0273 13.2148 19.0039 13.1445 18.9453C12.4766 18.3828 11.6797 18.1133 10.8477 18.1133C9.875 18.1133 8.9375 18.4531 8.25781 19.0391C8.14062 19.1328 8.01172 19.1797 7.85938 19.1797C7.60156 19.1797 7.42578 19.0156 7.42578 18.7695V10.7539C7.42578 10.543 7.42578 10.4727 7.49609 10.3672C8.07031 9.35938 9.38281 8.78516 10.6367 8.78516ZM17.2812 8.78516C18.5352 8.78516 19.8477 9.35938 20.4219 10.3672C20.4922 10.4609 20.5039 10.543 20.5039 10.7539V18.7695C20.5039 19.0156 20.3164 19.1797 20.0586 19.1797C19.9062 19.1797 19.7891 19.1328 19.6602 19.0391C18.9922 18.4531 18.0547 18.1133 17.0703 18.1133C16.25 18.1133 15.4414 18.3828 14.7734 18.9453C14.7148 19.0039 14.6562 19.0273 14.5859 19.0273C14.457 19.0273 14.3633 18.9336 14.3633 18.793V10.3906C14.3633 10.2383 14.3633 10.2148 14.4688 10.0625C15.043 9.26562 16.0977 8.78516 17.2812 8.78516Z" fill="white"/>
</g>
<defs>
<clipPath id="clip0_2124_88471">
<rect width="23.9062" height="23.918" fill="white" transform="translate(2 2)"/>
</clipPath>
</defs>
</svg>
