<svg width="28" height="28" viewBox="0 0 28 28" fill="none" xmlns="http://www.w3.org/2000/svg">
<path d="M6.67969 24.5977H20.8945C23.3555 24.5977 24.5742 23.3789 24.5742 20.9648V6.65625C24.5742 4.24219 23.3555 3.02344 20.8945 3.02344H6.67969C4.23047 3.02344 3 4.23047 3 6.65625V20.9648C3 23.3906 4.23047 24.5977 6.67969 24.5977Z" fill="black" fill-opacity="0.85"/>
<path d="M8.37891 18.6797C7.81641 18.6797 7.54688 18.3867 7.54688 17.9766C7.54688 17.6016 7.78125 17.2969 7.99219 17.0039L10.0898 14.332C10.7344 13.5117 11.4141 12.5273 11.4141 11.5664C11.4141 10.6992 11.0039 10.0664 10.2773 10.0664C9.58594 10.0664 9.29297 10.5703 9.07031 11.3789C8.94141 11.7773 8.68359 11.9648 8.28516 11.9648C7.82812 11.9648 7.55859 11.6484 7.55859 11.2031C7.55859 9.9375 8.74219 8.66016 10.2773 8.66016C11.9531 8.66016 13.0664 9.84375 13.0664 11.4727C13.0664 12.5391 12.668 13.4297 11.4609 14.9414L9.69141 17.1562V17.2617H12.5625C12.9844 17.2617 13.2422 17.5195 13.2422 17.9766C13.2422 18.3984 12.9961 18.6797 12.5625 18.6797H8.37891ZM15.3047 18.6797C14.7422 18.6797 14.4844 18.3867 14.4844 17.9766C14.4844 17.6016 14.707 17.2969 14.9414 17.0039L17.0273 14.332C17.6602 13.5117 18.3398 12.5273 18.3398 11.5664C18.3398 10.6992 17.9297 10.0664 17.2148 10.0664C16.5234 10.0664 16.2305 10.5703 15.9961 11.3789C15.8789 11.7773 15.6211 11.9648 15.2227 11.9648C14.7539 11.9648 14.5078 11.6484 14.5078 11.2031C14.5078 9.9375 15.6797 8.66016 17.2266 8.66016C18.8906 8.66016 19.9922 9.84375 19.9922 11.4727C19.9922 12.5391 19.6055 13.4297 18.3867 14.9414L16.6289 17.1562V17.2617H19.5C19.9102 17.2617 20.1914 17.5195 20.1914 17.9766C20.1914 18.3984 19.9219 18.6797 19.5 18.6797H15.3047Z" fill="white"/>
</svg>
