<svg width="28" height="28" viewBox="0 0 28 28" fill="none" xmlns="http://www.w3.org/2000/svg">
<path d="M13.9531 25.9062C20.4922 25.9062 25.9062 20.4805 25.9062 13.9531C25.9062 7.41406 20.4805 2 13.9414 2C7.41406 2 2 7.41406 2 13.9531C2 20.4805 7.42578 25.9062 13.9531 25.9062ZM13.9531 23.9141C8.42188 23.9141 4.00391 19.4844 4.00391 13.9531C4.00391 8.42188 8.41016 3.99219 13.9414 3.99219C19.4727 3.99219 23.9141 8.42188 23.9141 13.9531C23.9141 19.4844 19.4844 23.9141 13.9531 23.9141Z" fill="black" fill-opacity="0.85"/>
<path d="M8.85547 17.6445C8.85547 18.3125 9.19531 18.7109 9.79297 18.6992C10.3906 18.6875 10.7305 18.3125 10.7305 17.6445V14.3867C10.7305 13.3203 11.2461 12.8281 12.2539 12.8281H15.3125V14.668C15.3125 15.4297 16.168 15.7812 16.8125 15.2305L19.6016 12.8047C20.3047 12.1953 20.3047 11.5742 19.6016 10.9648L16.8125 8.55075C16.168 7.98825 15.3125 8.35153 15.3125 9.10153V10.9414H12.2188C9.94531 10.9414 8.85547 12.0312 8.85547 14.293V17.6445Z" fill="black" fill-opacity="0.85"/>
</svg>
