<svg width="28" height="28" viewBox="0 0 28 28" fill="none" xmlns="http://www.w3.org/2000/svg">
<path d="M2 13.9531C2 20.4805 7.42578 25.9062 13.9531 25.9062C20.4922 25.9062 25.9062 20.4805 25.9062 13.9531C25.9062 7.41406 20.4805 2 13.9414 2C7.41406 2 2 7.41406 2 13.9531ZM23.9141 13.9531C23.9258 19.4844 19.4844 23.9141 13.9531 23.9141C13.5898 23.9141 13.2266 23.8906 12.8633 23.8438C16.1445 21.8398 17.9844 18.3594 17.9844 13.9531C17.9844 9.53516 16.1328 6.04297 12.8281 4.0625C13.2031 4.01562 13.5664 3.99219 13.9414 3.99219C19.4727 3.99219 23.9023 8.42188 23.9141 13.9531Z" fill="black" fill-opacity="0.85"/>
</svg>
