<svg width="28" height="28" viewBox="0 0 28 28" fill="none" xmlns="http://www.w3.org/2000/svg">
<path d="M6.67969 24.5977H20.8945C23.3555 24.5977 24.5742 23.3789 24.5742 20.9648V6.65625C24.5742 4.24219 23.3555 3.02344 20.8945 3.02344H6.67969C4.23047 3.02344 3 4.23047 3 6.65625V20.9648C3 23.3906 4.23047 24.5977 6.67969 24.5977ZM6.70312 22.7109C5.53125 22.7109 4.88672 22.0898 4.88672 20.8711V6.75C4.88672 5.53125 5.53125 4.91016 6.70312 4.91016H20.8711C22.0312 4.91016 22.6875 5.53125 22.6875 6.75V20.8711C22.6875 22.0898 22.0312 22.7109 20.8711 22.7109H6.70312Z" fill="black" fill-opacity="0.85"/>
<path d="M13.8047 19.7227C14.2383 19.7227 14.543 19.418 14.543 18.9492V17.25H16.7227C17.0625 17.25 17.2852 16.9922 17.2852 16.6641C17.2852 16.3359 17.0625 16.0898 16.7227 16.0898H14.543V15.1875H16.7227C17.0625 15.1875 17.2852 14.9414 17.2852 14.6133C17.2852 14.2734 17.0625 14.0273 16.7227 14.0273H15.082L17.9297 9.44531C18.0352 9.28125 18.082 9.14062 18.082 8.96484C18.082 8.57812 17.7539 8.27344 17.332 8.27344C17.0508 8.27344 16.8398 8.39062 16.6758 8.66016L13.8047 13.4766L10.9336 8.64844C10.7695 8.37891 10.5586 8.26172 10.2773 8.26172C9.85547 8.26172 9.52734 8.56641 9.52734 8.95312C9.52734 9.12891 9.57422 9.26953 9.66797 9.43359L12.5273 14.0273H10.9219C10.582 14.0273 10.3594 14.2734 10.3594 14.6133C10.3594 14.9414 10.5938 15.1875 10.9219 15.1875H13.0664V16.0898H10.9219C10.582 16.0898 10.3594 16.3359 10.3594 16.6641C10.3594 16.9922 10.5938 17.25 10.9219 17.25H13.0664V18.9375C13.0664 19.4062 13.3711 19.7227 13.8047 19.7227Z" fill="black" fill-opacity="0.85"/>
</svg>
