<svg width="28" height="28" viewBox="0 0 28 28" fill="none" xmlns="http://www.w3.org/2000/svg">
<g clip-path="url(#clip0_2124_24793)">
<path d="M15.5765 16.0586C17.2289 15.3438 18.014 13.4453 17.2992 11.8047L14.9437 6.41406C14.2054 4.75 12.3187 3.97656 10.6664 4.67969C9.02574 5.39453 8.24058 7.31641 8.95543 8.94531L11.3226 14.3359C12.0375 15.9531 13.9359 16.7617 15.5765 16.0586ZM14.3929 15.0977C13.2562 15.0977 12.3656 14.207 12.3656 13.082C12.3656 11.9688 13.2562 11.0664 14.3929 11.0664C15.5062 11.0664 16.3968 11.9688 16.3968 13.082C16.3968 14.207 15.5179 15.0977 14.3929 15.0977ZM14.3929 14.2656C15.0609 14.2656 15.5648 13.7383 15.5648 13.082C15.5648 12.4375 15.0609 11.8984 14.3929 11.8984C13.7015 11.8984 13.1976 12.4375 13.1976 13.082C13.1976 13.7383 13.7015 14.2656 14.3929 14.2656ZM4.25621 12.6133C3.3773 15.6367 4.80699 18.4258 7.81871 19.6094L10.0335 20.4883C13.7132 21.9297 17.4515 21.1562 18.9281 17.043C19.7367 14.8164 19.4906 12.8477 18.4125 11.5586C19.2445 13.7148 18.1898 16.1523 16.0336 17.1016C13.8187 18.0273 11.264 17.0078 10.2914 14.793L7.92418 9.40234C7.79527 9.12109 7.70152 8.85156 7.64293 8.55859C6.35386 9.63672 4.85386 10.5977 4.25621 12.6133Z" fill="black" fill-opacity="0.85"/>
<path d="M19.9946 17.4297C19.1626 19.75 17.604 21.2852 15.6235 21.9297C16.5258 22.7383 17.7094 23.207 19.0102 23.207C21.8696 23.207 24.1899 20.8867 24.1899 18.0156C24.1899 15.6133 22.561 13.5977 20.3579 13C20.6626 14.4531 20.5454 15.9297 19.9946 17.4297Z" fill="black" fill-opacity="0.85"/>
</g>
<defs>
<clipPath id="clip0_2124_24793">
<rect width="20.1898" height="19.207" fill="white" transform="translate(4 4)"/>
</clipPath>
</defs>
</svg>
