<svg width="31" height="28" viewBox="0 0 31 28" fill="none" xmlns="http://www.w3.org/2000/svg">
<g clip-path="url(#clip0_2124_89178)">
<path d="M25.4674 26.5234C28.6432 26.5234 30.6705 25.0234 30.6705 22.6328C30.6705 20.2422 29.1002 19.6445 29.1002 18.6016C29.1002 17.8047 29.44 17.1016 29.44 16.1289C29.44 14.5469 28.315 13.5391 26.3463 13.3047V6.35547C26.3463 5.86328 26.4166 5.72266 26.6978 5.53516C26.9322 5.38281 27.0142 5.25391 26.9908 5.05469L26.815 2.16016C26.8033 1.92578 26.6392 1.76172 26.4283 1.76172H24.5064C24.2955 1.76172 24.1314 1.92578 24.1197 2.16016L23.9439 5.05469C23.9205 5.25391 24.0025 5.38281 24.2369 5.53516C24.5182 5.72266 24.5767 5.86328 24.5767 6.35547V13.3047C22.6197 13.5391 21.4947 14.5469 21.4947 16.1289C21.4947 17.1016 21.8346 17.8047 21.8346 18.6016C21.8346 19.6445 20.2642 20.2422 20.2642 22.6328C20.2642 25.0234 22.2916 26.5234 25.4674 26.5234ZM25.4674 19.5625C24.7291 19.5625 24.1549 18.9766 24.1549 18.2617C24.1549 17.5352 24.7408 16.9492 25.4674 16.9492C26.1939 16.9492 26.7682 17.5352 26.7682 18.2617C26.7682 18.9766 26.1939 19.5625 25.4674 19.5625ZM23.9205 22.8672C23.6275 22.8672 23.3814 22.6328 23.3814 22.3398C23.3814 22.0469 23.6392 21.7891 23.9205 21.7891H26.9908C27.2838 21.7891 27.5299 22.0352 27.5299 22.3398C27.5299 22.6328 27.2838 22.8672 26.9908 22.8672H23.9205Z" fill="black" fill-opacity="0.85"/>
<path d="M16.2798 27.3086C19.7837 27.3086 22.2095 25.1523 22.2095 21.9414C22.2095 19.2344 20.7563 18.2031 20.7563 17.7812C20.7563 17.1484 21.5532 16.4805 21.5532 14.957C21.5532 13.7148 20.686 12.8008 19.5024 12.8008C18.811 12.8008 18.2954 13.1055 17.8735 13.5508L17.8852 6.88281C18.2134 6.69531 18.4243 6.37891 18.4712 5.83984L18.7056 3.4375C18.729 3.01562 18.5649 2.58203 18.2251 2.27734L17.2173 1.41016C16.936 1.16406 16.5962 1.04688 16.2798 1.04688C15.9634 1.04688 15.6235 1.16406 15.3423 1.41016L14.3345 2.27734C13.9946 2.58203 13.8306 3.01562 13.854 3.4375L14.0884 5.83984C14.1352 6.37891 14.3462 6.69531 14.6743 6.88281L14.686 13.5625C14.2641 13.1055 13.7602 12.8008 13.0571 12.8008C11.8735 12.8008 11.0063 13.7148 11.0063 14.957C11.0063 16.4805 11.8032 17.1484 11.8032 17.7812C11.8032 18.2031 10.3501 19.2344 10.3501 21.9414C10.3501 25.1523 12.7759 27.3086 16.2798 27.3086Z" fill="white"/>
<path d="M16.2798 26.5938C19.4204 26.5938 21.4946 24.7422 21.4946 21.9414C21.4946 19.6211 20.0415 18.5547 20.0415 17.7812C20.0415 16.8672 20.8384 16.1289 20.8384 14.957C20.8384 14.1133 20.2876 13.5156 19.5024 13.5156C18.7876 13.5156 18.3657 13.9492 18.0727 14.3711C17.8266 14.6992 17.6509 14.9453 17.4868 14.9453C17.1938 14.9453 17.1587 14.3945 17.1587 13.9844L17.1704 6.78906C17.1704 6.4375 17.1821 6.39062 17.3931 6.32031C17.6509 6.23828 17.7212 6.09766 17.7563 5.76953L17.9907 3.37891C18.0024 3.16797 17.9204 2.96875 17.7446 2.81641L16.7485 1.9375C16.5962 1.80859 16.4321 1.76172 16.2798 1.76172C16.1391 1.76172 15.9634 1.80859 15.811 1.9375L14.8149 2.81641C14.6391 2.96875 14.5571 3.16797 14.5688 3.37891L14.8032 5.76953C14.8384 6.09766 14.9087 6.23828 15.1665 6.32031C15.3774 6.39062 15.3891 6.4375 15.3891 6.78906L15.4009 13.9844C15.4009 14.3945 15.3657 14.9453 15.0727 14.9453C14.9087 14.9453 14.7329 14.6992 14.4985 14.3711C14.1938 13.9492 13.772 13.5156 13.0571 13.5156C12.272 13.5156 11.7212 14.1133 11.7212 14.957C11.7212 16.1289 12.5181 16.8672 12.5181 17.7812C12.5181 18.5547 11.0649 19.6211 11.0649 21.9414C11.0649 24.7422 13.1391 26.5938 16.2798 26.5938ZM13.7016 21.7422C13.4556 21.6602 13.3266 21.3672 13.4087 21.1211L14.4165 18.3555C14.5102 18.0977 14.7915 17.9688 15.0493 18.0625C15.2954 18.1445 15.436 18.4375 15.3423 18.6953L14.3345 21.4492C14.2407 21.707 13.9595 21.8359 13.7016 21.7422ZM18.8579 21.7422C18.6001 21.8359 18.3188 21.707 18.2251 21.4492L17.2173 18.6953C17.1235 18.4375 17.2759 18.1445 17.522 18.0625C17.7798 17.9688 18.061 18.0977 18.1548 18.3555L19.1626 21.1211C19.2446 21.3672 19.104 21.6602 18.8579 21.7422Z" fill="black" fill-opacity="0.85"/>
<path d="M0.225287 24.1914C-0.360651 25.5039 0.178412 27.2734 2.05341 27.2734C2.72138 27.2734 3.27216 26.9922 3.91669 26.4414L6.95185 23.9102L9.99872 26.4414C10.6433 26.9922 11.1823 27.2734 11.862 27.2734C13.7253 27.2734 14.2643 25.5039 13.6901 24.1914L8.55732 12.6133V7.32812C8.55732 4.72656 9.00263 2.76953 9.00263 2.28906C9.00263 1.5625 8.48701 1.04688 7.78388 1.04688C7.37372 1.04688 7.03388 1.21094 6.57685 1.72656L3.98701 4.69141C3.47138 5.3125 3.63544 6.15625 4.33857 6.48438C5.31122 6.90625 5.34638 6.91797 5.34638 7.32812V12.6016L0.225287 24.1914Z" fill="white"/>
<path d="M0.881605 24.4727C0.45973 25.4336 0.799573 26.5586 2.05348 26.5586C2.51051 26.5586 2.89723 26.3594 3.44801 25.9023L6.65895 23.2188C6.78786 23.1133 6.88161 23.0664 6.95192 23.0664C7.03395 23.0664 7.11598 23.1133 7.24489 23.2188L10.4559 25.9023C11.0184 26.3594 11.3934 26.5586 11.8621 26.5586C13.1043 26.5586 13.4559 25.4336 13.0223 24.4727L7.84254 12.7656V7.32812C7.84254 4.65625 8.28786 2.66406 8.28786 2.28906C8.28786 1.96094 8.08864 1.76172 7.78395 1.76172C7.57301 1.76172 7.39723 1.89062 7.11598 2.19531L4.52614 5.16016C4.3152 5.40625 4.37379 5.69922 4.64333 5.83984C5.67458 6.28516 6.06129 6.46094 6.06129 7.32812V12.7539L0.881605 24.4727ZM8.6277 19.8906C8.31129 19.8906 8.05348 19.6211 8.05348 19.3281C8.05348 19 8.32301 18.7188 8.6277 18.7188C8.95583 18.7188 9.21364 18.9883 9.21364 19.3281C9.21364 19.6328 8.95583 19.8906 8.6277 19.8906ZM9.02614 20.8281C8.70973 20.8281 8.42848 20.5586 8.42848 20.2422C8.42848 19.9258 8.70973 19.6445 9.02614 19.6445C9.34254 19.6445 9.62379 19.9141 9.62379 20.2422C9.62379 20.5586 9.34254 20.8281 9.02614 20.8281ZM9.40114 21.7422C9.08473 21.7422 8.83864 21.4844 8.83864 21.168C8.83864 20.8516 9.09645 20.5703 9.40114 20.5703C9.74098 20.5703 9.99879 20.8516 9.99879 21.168C9.99879 21.4727 9.71754 21.7422 9.40114 21.7422Z" fill="black" fill-opacity="0.85"/>
</g>
<defs>
<clipPath id="clip0_2124_89178">
<rect width="30.6706" height="26.3086" fill="white" transform="translate(0 1)"/>
</clipPath>
</defs>
</svg>
