<svg width="28" height="28" viewBox="0 0 28 28" fill="none" xmlns="http://www.w3.org/2000/svg">
<path d="M6.67969 24.5977H20.8945C23.3555 24.5977 24.5742 23.3789 24.5742 20.9648V6.65625C24.5742 4.24219 23.3555 3.02344 20.8945 3.02344H6.67969C4.23047 3.02344 3 4.23047 3 6.65625V20.9648C3 23.3906 4.23047 24.5977 6.67969 24.5977Z" fill="black" fill-opacity="0.85"/>
<path d="M10.9102 19.6172C10.3945 19.6172 9.99609 19.582 9.70312 19.4531C9.29297 19.3125 9.09375 19.0547 9.09375 18.7031C9.09375 18.3398 9.35156 18.0586 9.78516 18.0586C9.9375 18.0586 10.0313 18.0703 10.1367 18.0938C10.3359 18.1289 10.4766 18.1758 10.8398 18.1758C11.9062 18.1758 12.3984 17.6719 12.6094 16.4531L12.9844 14.1445H10.7461C10.3477 14.1445 10.0898 13.8984 10.0898 13.5234C10.0898 13.1133 10.3477 12.8555 10.7461 12.8555H13.1719L13.4883 10.875C13.8164 8.87109 14.8359 7.89844 16.6758 7.89844C17.1797 7.89844 17.5898 7.94531 17.8828 8.0625C18.293 8.20312 18.4922 8.47266 18.4922 8.8125C18.4922 9.17578 18.2344 9.45703 17.8008 9.45703C17.6484 9.45703 17.5547 9.44531 17.4492 9.42188C17.25 9.38672 17.1094 9.35156 16.7461 9.35156C15.6797 9.35156 15.1875 9.84375 14.9883 11.0156L14.707 12.8555H17.0273C17.4492 12.8555 17.6953 13.1133 17.6953 13.5234C17.6953 13.8984 17.4492 14.1445 17.0273 14.1445H14.4961L14.0977 16.6523C13.7695 18.6562 12.75 19.6172 10.9102 19.6172Z" fill="white"/>
</svg>
