<svg width="28" height="28" viewBox="0 0 28 28" fill="none" xmlns="http://www.w3.org/2000/svg">
<path d="M13.9531 25.9062C20.4922 25.9062 25.9062 20.4805 25.9062 13.9531C25.9062 7.41406 20.4805 2 13.9414 2C7.41406 2 2 7.41406 2 13.9531C2 20.4805 7.42578 25.9062 13.9531 25.9062ZM13.9531 23.9141C8.42188 23.9141 4.00391 19.4844 4.00391 13.9531C4.00391 8.42188 8.41016 3.99219 13.9414 3.99219C19.4727 3.99219 23.9141 8.42188 23.9141 13.9531C23.9141 19.4844 19.4844 23.9141 13.9531 23.9141Z" fill="black" fill-opacity="0.85"/>
<path d="M13.9766 19.5312C16.4961 19.5312 18.0547 18.207 18.0547 16.3672C18.0547 14.9844 17.0117 13.8828 15.5938 13.7539V13.6602C16.7656 13.4844 17.6797 12.4062 17.6797 11.1758C17.6797 9.54688 16.1797 8.375 14.082 8.375C12.1719 8.375 10.7305 9.26562 10.4141 10.6484C10.3789 10.8125 10.3672 10.9414 10.3672 11.1172C10.3672 11.5742 10.6953 11.8906 11.1641 11.8906C11.5859 11.8906 11.832 11.6914 11.9609 11.2812C12.2305 10.4023 12.957 9.85156 14.0469 9.85156C15.2188 9.85156 15.9453 10.4375 15.9453 11.3867C15.9453 12.3477 15.125 13.0625 14.0117 13.0625H13.2734C12.8398 13.0625 12.5352 13.3555 12.5352 13.7891C12.5352 14.1992 12.8398 14.5039 13.2734 14.5039H14.0703C15.3945 14.5039 16.2969 15.2305 16.2969 16.2969C16.2969 17.3516 15.3828 18.043 14.0117 18.043C12.7461 18.043 12.0312 17.4219 11.75 16.6133C11.5859 16.2031 11.3516 16.0156 10.9414 16.0156C10.4727 16.0156 10.1328 16.3438 10.1328 16.8125C10.1328 16.9883 10.1563 17.0938 10.1914 17.2578C10.543 18.6055 12.0664 19.5312 13.9766 19.5312Z" fill="black" fill-opacity="0.85"/>
</svg>
