<svg width="28" height="28" viewBox="0 0 28 28" fill="none" xmlns="http://www.w3.org/2000/svg">
<path d="M13.9531 25.9062C20.4922 25.9062 25.9062 20.4805 25.9062 13.9531C25.9062 7.41406 20.4805 2 13.9414 2C7.41406 2 2 7.41406 2 13.9531C2 20.4805 7.42578 25.9062 13.9531 25.9062Z" fill="black" fill-opacity="0.85"/>
<path d="M10.6719 18.9688C10.1914 18.9688 9.79297 18.5703 9.79297 18.0781V10.7539L8.67969 11.6445C8.5625 11.7383 8.44531 11.7969 8.24609 11.7969C7.88281 11.7969 7.625 11.5273 7.625 11.1523C7.625 10.8359 7.80078 10.6016 8 10.4375L9.32422 9.40625C9.61719 9.19531 10.0391 8.91406 10.543 8.91406C11.1641 8.91406 11.5508 9.27734 11.5508 9.89844V18.0781C11.5508 18.5703 11.1523 18.9688 10.6719 18.9688ZM16.4375 19.0859C15.3359 19.0859 14.2578 18.4531 13.8477 17.4688C13.7422 17.2344 13.6719 16.9648 13.6719 16.6836C13.6719 16.2383 13.9531 15.957 14.3984 15.957C14.7266 15.957 14.9961 16.1328 15.1367 16.5195C15.3594 17.1875 15.7344 17.668 16.4141 17.668C17.3047 17.668 17.6562 16.6484 17.6562 15.6406C17.6562 14.75 17.3164 13.6836 16.4258 13.6836C15.9453 13.6836 15.6406 13.9648 15.3711 14.3633C15.1133 14.6914 14.9141 14.8203 14.5859 14.8203C14.0352 14.8203 13.8008 14.4102 13.8008 13.9531C13.8008 13.7891 13.8008 13.6016 13.8125 13.4141L14 10.1094C14.0586 9.47656 14.3281 9.06641 14.9727 9.06641H18.3008C18.6992 9.06641 18.9688 9.38281 18.9688 9.78125C18.9688 10.2148 18.7109 10.4961 18.3008 10.4961H15.4648L15.2539 13.4258H15.3242C15.6289 12.7344 16.2852 12.4062 17 12.4062C18.5586 12.4062 19.3555 13.9297 19.3555 15.5938C19.3555 17.5039 18.3125 19.0859 16.4375 19.0859Z" fill="white"/>
</svg>
