<svg width="28" height="28" viewBox="0 0 28 28" fill="none" xmlns="http://www.w3.org/2000/svg">
<path d="M6.67969 24.5977H20.8945C23.3555 24.5977 24.5742 23.3789 24.5742 20.9648V6.65625C24.5742 4.24219 23.3555 3.02344 20.8945 3.02344H6.67969C4.23047 3.02344 3 4.23047 3 6.65625V20.9648C3 23.3906 4.23047 24.5977 6.67969 24.5977Z" fill="black" fill-opacity="0.85"/>
<path d="M9.97266 19.3359C9.375 19.3359 9.02344 18.9258 9.02344 18.2461V9.11719C9.02344 8.4375 9.375 8.02734 9.97266 8.02734C10.6055 8.02734 10.957 8.42578 10.957 9.11719V12.75H16.6055V9.11719C16.6055 8.4375 16.9688 8.02734 17.5664 8.02734C18.1992 8.02734 18.5508 8.42578 18.5508 9.11719V18.2461C18.5508 18.9375 18.1992 19.3359 17.5664 19.3359C16.9688 19.3359 16.6055 18.9258 16.6055 18.2461V14.2734H10.957V18.2461C10.957 18.9375 10.6055 19.3359 9.97266 19.3359Z" fill="white"/>
</svg>
