<svg width="28" height="29" viewBox="0 0 28 29" fill="none" xmlns="http://www.w3.org/2000/svg">
<g clip-path="url(#clip0_2124_45960)">
<path d="M22.3141 8.3772C24.0719 8.3772 25.4664 6.91236 25.4664 5.21314C25.4664 3.44361 24.0719 2.01392 22.3141 2.01392C20.5445 2.01392 19.1266 3.44361 19.1266 5.21314C19.1266 6.95923 20.5445 8.3772 22.3141 8.3772ZM3.43515 25.1467C4.0328 25.7795 5.07577 25.7327 5.82577 24.9592L10.8648 19.7561C11.0289 19.5803 11.1578 19.5334 11.4156 19.6389L15.3531 21.1272C17.8844 22.0998 20.2633 21.2678 21.3766 19.2522L23.9078 14.6467C24.8922 12.8537 24.5758 11.0022 22.8648 10.0881C21.2125 9.1858 19.5016 9.86548 18.4937 11.7053L15.2125 17.6936L12.4117 16.6741C11.0289 16.1701 9.88046 16.3342 8.7789 17.4827L3.54062 22.8967C2.80233 23.6467 2.87265 24.5842 3.43515 25.1467Z" fill="black" fill-opacity="0.85"/>
<path d="M5.09961 13.3342C5.52149 13.3342 5.81445 13.1233 6.00195 12.5842L6.85742 10.0881H11.041L11.9082 12.5842C12.084 13.1233 12.377 13.3342 12.8106 13.3342C13.3262 13.3342 13.666 12.9944 13.666 12.5256C13.666 12.3381 13.6309 12.1741 13.5488 11.9163L10.2559 3.06861C10.0332 2.45923 9.57617 2.14282 8.94336 2.14282C8.31055 2.14282 7.86524 2.45923 7.64258 3.06861L4.36133 11.9163C4.26758 12.1741 4.23242 12.3381 4.23242 12.5139C4.23242 13.0061 4.57227 13.3342 5.09961 13.3342ZM7.32617 8.68189L8.88477 4.14673H9.01367L10.5723 8.68189H7.32617Z" fill="black" fill-opacity="0.85"/>
</g>
<defs>
<clipPath id="clip0_2124_45960">
<rect width="22.4664" height="23.7773" fill="white" transform="translate(3 2.01392)"/>
</clipPath>
</defs>
</svg>
