<svg width="28" height="30" viewBox="0 0 28 30" fill="none" xmlns="http://www.w3.org/2000/svg">
<path d="M12.8359 26.6367C17.7109 26.6367 20.957 23.4609 20.957 18.7031C20.957 16.3594 20.0312 14.0273 19.3516 12.4688C18.0976 9.64453 16.1289 6.53906 14.418 3.89062C14.0078 3.26953 13.5156 2.90625 12.8359 2.90625C12.1328 2.90625 11.6641 3.26953 11.2539 3.89062C9.54296 6.53906 7.57421 9.64453 6.32031 12.4688C5.6289 14.0273 4.71484 16.3594 4.71484 18.7031C4.71484 23.4609 7.96093 26.6367 12.8359 26.6367ZM21.168 7.16016C23.1836 7.16016 24.7539 5.58984 24.7539 3.58594C24.7539 1.57031 23.1836 0 21.168 0C19.1641 0 17.5937 1.57031 17.5937 3.58594C17.5937 5.58984 19.1641 7.16016 21.168 7.16016ZM21.168 5.50781C20.0898 5.50781 19.2461 4.66406 19.2461 3.58594C19.2461 2.49609 20.0898 1.65234 21.168 1.65234C22.2578 1.65234 23.1016 2.49609 23.1016 3.58594C23.1016 4.66406 22.2578 5.50781 21.168 5.50781Z" fill="black" fill-opacity="0.85"/>
<path d="M21.32 26.7188C22.2106 27.6094 23.6638 27.6094 24.5427 26.6953C25.4098 25.8047 25.4098 24.3984 24.5309 23.5078L5.88641 4.875C5.00751 3.98438 3.55438 3.98438 2.66376 4.86328C1.80829 5.71875 1.74969 7.17188 2.66376 8.08594L21.32 26.7188Z" fill="white"/>
<path d="M22.2807 25.7578C22.644 26.1094 23.2182 26.1094 23.5581 25.7578C23.9096 25.3945 23.9214 24.832 23.5581 24.4805L4.9136 5.83594C4.56203 5.48438 3.98781 5.48438 3.62453 5.83594C3.28469 6.1875 3.27297 6.76172 3.62453 7.11328L22.2807 25.7578Z" fill="black" fill-opacity="0.85"/>
</svg>
