<svg width="28" height="28" viewBox="0 0 28 28" fill="none" xmlns="http://www.w3.org/2000/svg">
<g clip-path="url(#clip0_2124_24719)">
<path d="M6 18.2852C6 20.1016 6.71484 21.4375 8.03906 22.1641C8.68359 22.5039 9.05859 22.9375 9.29297 23.7227L9.66797 24.9766C9.89062 25.7266 10.418 26.0898 11.2031 26.0898H16.6172C17.4258 26.0898 17.918 25.7383 18.1406 24.9766L18.5273 23.7227C18.7617 22.9375 19.1367 22.5039 19.7812 22.1641C21.1055 21.4375 21.8203 20.1016 21.8203 18.2852V8.80469C21.8203 6.98828 21.1055 5.66406 19.7812 4.92578C19.1367 4.58594 18.7617 4.15234 18.5273 3.37891L18.1406 2.11328C17.9414 1.375 17.4141 1 16.6172 1H11.2031C10.418 1 9.89062 1.36328 9.66797 2.11328L9.29297 3.37891C9.07031 4.14062 8.69531 4.59766 8.03906 4.92578C6.72656 5.62891 6 6.96484 6 8.80469V18.2852ZM7.71094 18.0391V9.0625C7.71094 7.31641 8.73047 6.26172 10.4414 6.26172H17.3789C19.0898 6.26172 20.1094 7.31641 20.1094 9.0625V18.0391C20.1094 19.7734 19.0898 20.8281 17.3789 20.8281H10.4414C8.73047 20.8281 7.71094 19.7734 7.71094 18.0391ZM21.5625 12.7188H21.9844C22.5938 12.7188 22.9922 12.3086 22.9922 11.6406V10.0586C22.9922 9.39062 22.5938 8.98047 21.9844 8.98047H21.5625V12.7188Z" fill="black" fill-opacity="0.85"/>
<path d="M9.72656 16.5156C9.72656 17.1836 10.0547 17.5234 10.6875 17.5234H14.6719C15.3047 17.5234 15.6328 17.1836 15.6328 16.5156V13.457C15.6328 12.7891 15.3047 12.4609 14.6719 12.4609H10.6875C10.0547 12.4609 9.72656 12.7891 9.72656 13.457V16.5156ZM13.7695 13.1406H14.9297V11.4648C14.9297 10.5977 15.3984 10.0352 16.1953 10.0352C16.9922 10.0352 17.4609 10.5977 17.4609 11.4648V12.2969C17.4609 12.625 17.7188 12.8828 18.0469 12.8828C18.3516 12.8828 18.6211 12.625 18.6211 12.2969V11.4648C18.6211 9.98828 17.6602 8.91016 16.1953 8.91016C14.7188 8.91016 13.7695 9.98828 13.7695 11.5703V13.1406Z" fill="black" fill-opacity="0.85"/>
</g>
<defs>
<clipPath id="clip0_2124_24719">
<rect width="16.9922" height="25.0898" fill="white" transform="translate(6 1)"/>
</clipPath>
</defs>
</svg>
