<svg width="28" height="28" viewBox="0 0 28 28" fill="none" xmlns="http://www.w3.org/2000/svg">
<path d="M6.67969 24.5977H20.8945C23.3555 24.5977 24.5742 23.3789 24.5742 20.9648V6.65625C24.5742 4.24219 23.3555 3.02344 20.8945 3.02344H6.67969C4.23047 3.02344 3 4.23047 3 6.65625V20.9648C3 23.3906 4.23047 24.5977 6.67969 24.5977ZM6.70312 22.7109C5.53125 22.7109 4.88672 22.0898 4.88672 20.8711V6.75C4.88672 5.53125 5.53125 4.91016 6.70312 4.91016H20.8711C22.0312 4.91016 22.6875 5.53125 22.6875 6.75V20.8711C22.6875 22.0898 22.0312 22.7109 20.8711 22.7109H6.70312Z" fill="black" fill-opacity="0.85"/>
<path d="M7.99169 19.1484C8.35497 19.1484 8.68309 18.9609 8.77684 18.5273L10.4995 10.4766H10.5815L12.3628 18.5273C12.4565 18.9609 12.7729 19.1484 13.1362 19.1484C13.5815 19.1484 13.9917 18.8203 13.8276 18.1289L11.6245 9.10547C11.4956 8.56641 11.1206 8.25 10.5933 8.25C10.0776 8.25 9.66747 8.57812 9.53856 9.10547L7.26512 18.1289C7.08934 18.8203 7.54638 19.1484 7.99169 19.1484ZM8.68309 16.3125H12.4214V15.1172H8.68309V16.3125ZM17.2026 18.6094C18.8901 18.6094 20.0503 17.6367 20.0503 16.0312C20.0503 14.8945 19.4409 14.0859 18.0464 13.3594L17.0034 12.8086C16.394 12.4922 15.7612 12.0938 15.7612 11.3203C15.7612 10.5938 16.312 10.125 17.1206 10.125C17.9995 10.125 18.4448 10.6875 18.5034 11.4844C18.5386 11.8594 18.8433 12.082 19.1597 12.082C19.5581 12.082 19.9448 11.7773 19.8511 11.1328C19.687 9.85547 18.7261 8.88281 17.1206 8.88281C15.5151 8.88281 14.3315 9.86719 14.3315 11.3789C14.3315 12.6563 15.0581 13.4766 16.2886 14.0859L17.2964 14.5898C17.9643 14.918 18.6206 15.4336 18.6206 16.1367C18.6206 16.875 18.105 17.3672 17.2026 17.3672C16.1831 17.3672 15.7378 16.8516 15.6557 15.9961C15.6089 15.5977 15.3393 15.3984 15.0229 15.3984C14.6128 15.3984 14.2378 15.7383 14.3315 16.3477C14.519 17.6953 15.5503 18.6094 17.2026 18.6094ZM17.1909 19.8633C17.437 19.8633 17.6714 19.6406 17.6714 19.3828V8.14453C17.6714 7.875 17.437 7.65234 17.1909 7.65234C16.9214 7.65234 16.6987 7.875 16.6987 8.14453V19.3828C16.6987 19.6406 16.9214 19.8633 17.1909 19.8633Z" fill="black" fill-opacity="0.85"/>
</svg>
