<svg width="28" height="28" viewBox="0 0 28 28" fill="none" xmlns="http://www.w3.org/2000/svg">
<path d="M13.9531 25.9062C20.4922 25.9062 25.9062 20.4805 25.9062 13.9531C25.9062 7.41406 20.4805 2 13.9414 2C7.41406 2 2 7.41406 2 13.9531C2 20.4805 7.42578 25.9062 13.9531 25.9062ZM13.9531 23.9141C8.42188 23.9141 4.00391 19.4844 4.00391 13.9531C4.00391 8.42188 8.41016 3.99219 13.9414 3.99219C19.4727 3.99219 23.9141 8.42188 23.9141 13.9531C23.9141 19.4844 19.4844 23.9141 13.9531 23.9141Z" fill="black" fill-opacity="0.85"/>
<path d="M11.8906 19.8242C12.3359 19.8242 12.6406 19.5078 12.6406 19.0625V17.832H15.0547C15.3945 17.832 15.6289 17.5742 15.6289 17.2461C15.6289 16.918 15.3945 16.6719 15.0547 16.6719H12.6406V14.7617H16.5547C16.9648 14.7617 17.2812 14.4805 17.2812 14.0586C17.2812 13.6367 16.9648 13.3672 16.5547 13.3672H12.6406V10.0508H16.9883C17.3984 10.0508 17.7031 9.76953 17.7031 9.34766C17.7031 8.91406 17.3984 8.63281 16.9883 8.63281H11.8789C11.4102 8.63281 11.1172 8.9375 11.1172 9.41797V16.6719H10.1797C9.83984 16.6719 9.61719 16.918 9.61719 17.2461C9.61719 17.5742 9.83984 17.832 10.1797 17.832H11.1172V19.0742C11.1172 19.5312 11.4453 19.8242 11.8906 19.8242Z" fill="black" fill-opacity="0.85"/>
</svg>
