<svg width="28" height="28" viewBox="0 0 28 28" fill="none" xmlns="http://www.w3.org/2000/svg">
<path d="M13.9531 25.918C20.4922 25.918 25.9062 20.5039 25.9062 13.9648C25.9062 7.4375 20.4805 2.01172 13.9414 2.01172C7.41406 2.01172 2 7.4375 2 13.9648C2 20.5039 7.42578 25.918 13.9531 25.918Z" fill="black" fill-opacity="0.85"/>
<path d="M8.09375 19.0508C6.58203 19.0508 5.55078 18.0664 5.55078 16.7305C5.55078 15.6641 6.24219 14.7969 7.20312 14.4805C7.41406 12.5586 9.04297 11.0469 10.9883 11.0469C12.4648 11.0469 13.6719 11.8437 14.3516 13.1211C16.1328 13.1562 17.4453 14.4102 17.4453 16.0625C17.4453 17.75 16.1445 19.0508 14.4219 19.0508H8.09375ZM13.1914 10.5312L12.2891 9.61719C12.0898 9.38281 12.0898 9.00781 12.2891 8.79688C12.5117 8.58594 12.875 8.58594 13.1094 8.79688L14.0352 9.71094C14.2344 9.92188 14.2227 10.2969 14.0352 10.5195C13.8008 10.7305 13.4141 10.7539 13.1914 10.5312ZM16.6367 9.42969C16.3203 9.42969 16.0508 9.16016 16.0508 8.85547V7.56641C16.0508 7.23828 16.3203 6.99219 16.6367 6.99219C16.9648 6.99219 17.2227 7.23828 17.2227 7.56641V8.85547C17.2227 9.16016 16.9648 9.42969 16.6367 9.42969ZM19.2617 10.5195C19.0508 10.2969 19.0391 9.92188 19.2617 9.71094L20.1641 8.79688C20.3984 8.57422 20.7734 8.58594 20.9961 8.79688C21.207 9.01953 21.207 9.38281 20.9961 9.61719L20.0938 10.5312C19.8828 10.7539 19.4844 10.7305 19.2617 10.5195ZM20.9375 13.7188C20.6094 13.7188 20.3516 13.4609 20.3516 13.1445C20.3516 12.8164 20.6094 12.5703 20.9375 12.5703H22.1914C22.5195 12.5703 22.7773 12.8164 22.7773 13.1445C22.7773 13.4609 22.5195 13.7188 22.1914 13.7188H20.9375ZM20.1641 17.5039L19.2617 16.6016C19.0391 16.3672 19.0508 16.0039 19.2617 15.7812C19.4961 15.5586 19.8711 15.5586 20.0938 15.7812L20.9961 16.6719C21.2188 16.8828 21.207 17.2695 20.9961 17.4922C20.7734 17.7148 20.3984 17.7383 20.1641 17.5039ZM19.625 13.1445C19.625 14.1406 19.1328 15.043 18.3125 15.6055C18.125 13.8477 16.7188 12.5117 14.8789 12.2773C14.6797 11.9609 14.457 11.6914 14.1875 11.457C14.7148 10.6719 15.6172 10.168 16.6367 10.168C18.2891 10.168 19.625 11.4687 19.625 13.1445Z" fill="white"/>
</svg>
