<svg width="28" height="28" viewBox="0 0 28 28" fill="none" xmlns="http://www.w3.org/2000/svg">
<path d="M6.67969 24.5977H20.8945C23.3555 24.5977 24.5742 23.3789 24.5742 20.9648V6.65625C24.5742 4.24219 23.3555 3.02344 20.8945 3.02344H6.67969C4.23047 3.02344 3 4.23047 3 6.65625V20.9648C3 23.3906 4.23047 24.5977 6.67969 24.5977ZM6.70312 22.7109C5.53125 22.7109 4.88672 22.0898 4.88672 20.8711V6.75C4.88672 5.53125 5.53125 4.91016 6.70312 4.91016H20.8711C22.0312 4.91016 22.6875 5.53125 22.6875 6.75V20.8711C22.6875 22.0898 22.0312 22.7109 20.8711 22.7109H6.70312Z" fill="black" fill-opacity="0.85"/>
<path d="M13.8164 6.50391C13.5586 6.50391 13.3477 6.62109 13.125 6.84375L9.73828 10.2187C9.58594 10.3711 9.49219 10.582 9.49219 10.8281C9.49219 11.3086 9.86719 11.6719 10.3477 11.6719C10.6055 11.6719 10.8164 11.5781 10.9805 11.4141L11.8477 10.5234L13.0312 9.10547L12.9375 11.5898V15.9961L13.0312 18.4805L11.8477 17.0625L10.9805 16.1719C10.8164 15.9961 10.6055 15.9141 10.3477 15.9141C9.86719 15.9141 9.49219 16.2773 9.49219 16.7578C9.49219 16.9922 9.58594 17.2148 9.73828 17.3672L13.125 20.7422C13.3477 20.9648 13.5586 21.082 13.8164 21.082C14.0625 21.082 14.2617 20.9648 14.4961 20.7422L17.8945 17.3672C18.0469 17.2148 18.1289 16.9922 18.1289 16.7578C18.1289 16.2773 17.7656 15.9141 17.2852 15.9141C17.0273 15.9141 16.8164 16.0078 16.6641 16.1719L15.7852 17.0625L14.6016 18.4688L14.6953 15.9961V11.5898L14.6016 9.11719L15.7852 10.5234L16.6641 11.4141C16.8164 11.5664 17.0273 11.6719 17.2852 11.6719C17.7656 11.6719 18.1289 11.3086 18.1289 10.8281C18.1289 10.582 18.0469 10.3711 17.8945 10.2187L14.4961 6.84375C14.2617 6.62109 14.0625 6.50391 13.8164 6.50391Z" fill="black" fill-opacity="0.85"/>
</svg>
