<svg width="28" height="28" viewBox="0 0 28 28" fill="none" xmlns="http://www.w3.org/2000/svg">
<path d="M13.9531 25.9062C20.4922 25.9062 25.9062 20.4805 25.9062 13.9531C25.9062 7.41406 20.4805 2 13.9414 2C7.41406 2 2 7.41406 2 13.9531C2 20.4805 7.42578 25.9062 13.9531 25.9062Z" fill="black" fill-opacity="0.85"/>
<path d="M10.2969 19.0977C9.20703 19.0977 8.12891 18.4648 7.70703 17.4805C7.60156 17.2461 7.53125 16.9766 7.53125 16.6953C7.53125 16.25 7.8125 15.9688 8.25781 15.9688C8.58594 15.9688 8.85547 16.1562 9.00781 16.543C9.21875 17.1992 9.59375 17.6797 10.2734 17.6797C11.1641 17.6797 11.5156 16.6602 11.5156 15.6523C11.5156 14.7617 11.1875 13.6953 10.2969 13.6953C9.80469 13.6953 9.51172 13.9766 9.23047 14.375C8.97266 14.7148 8.78516 14.832 8.45703 14.832C7.89453 14.832 7.66016 14.4336 7.66016 13.9648C7.66016 13.8008 7.67188 13.6133 7.68359 13.4258L7.87109 10.1211C7.91797 9.51172 8.19922 9.08984 8.84375 9.08984H12.1602C12.5703 9.08984 12.8398 9.39453 12.8398 9.79297C12.8398 10.2266 12.582 10.5195 12.1602 10.5195H9.32422L9.125 13.4609H9.18359C9.48828 12.7461 10.1445 12.418 10.8594 12.418C12.418 12.418 13.2148 13.9531 13.2148 15.6172C13.2148 17.5273 12.1836 19.0977 10.2969 19.0977ZM17.6914 19.0977C15.2891 19.0977 14.5742 16.4023 14.5742 13.9648C14.5742 11.5273 15.2891 8.83203 17.6914 8.83203C20.1172 8.83203 20.832 11.5273 20.832 13.9648C20.832 16.4023 20.1172 19.0977 17.6914 19.0977ZM17.6914 17.6562C18.6758 17.6562 19.0508 16.0742 19.0508 13.9648C19.0508 11.8672 18.6758 10.2734 17.6914 10.2734C16.7188 10.2734 16.3438 11.8672 16.3438 13.9648C16.3438 16.0742 16.7188 17.6562 17.6914 17.6562Z" fill="white"/>
</svg>
