<svg width="42" height="28" viewBox="0 0 42 28" fill="none" xmlns="http://www.w3.org/2000/svg">
<path d="M2.1685 24.1055H20.813C23.0396 24.1055 23.5669 21.9492 22.313 20.3906L13.5005 9.48047C12.9029 8.74219 12.188 8.35547 11.4849 8.35547C10.7935 8.35547 10.0787 8.74219 9.46928 9.48047L0.668497 20.3906C-0.585409 21.9492 -0.0697849 24.1055 2.1685 24.1055ZM2.44975 22.2188C2.05131 22.2188 1.9224 21.8438 2.15678 21.5508L10.9341 10.6758C11.0982 10.4766 11.2974 10.3594 11.4849 10.3594C11.6841 10.3594 11.8716 10.4766 12.0474 10.6758L20.8247 21.5508C21.0591 21.8438 20.9302 22.2188 20.5318 22.2188H2.44975ZM8.06303 16.7695C9.82084 16.7695 10.5122 15.375 11.4849 15.375C12.4576 15.375 13.1607 16.7695 14.9185 16.7695C16.1021 16.7695 16.8052 15.6562 17.4263 15.0352L16.5826 14.0859C15.9263 14.7188 15.4224 15.4805 14.9185 15.4805C14.0044 15.4805 13.1724 14.0859 11.4849 14.0859C9.80912 14.0859 8.97709 15.4805 8.06303 15.4805C7.55912 15.4805 7.05522 14.7188 6.39897 14.0859L5.55522 15.0352C6.17631 15.6562 6.86772 16.7695 8.06303 16.7695Z" fill="black" fill-opacity="0.85"/>
<path d="M13.7229 24.1055H39.094C41.2268 24.1055 41.7424 21.9961 40.6877 20.6133L28.4416 4.53516C27.2932 3.02344 25.5354 3 24.3635 4.53516L12.1291 20.625C11.0744 22.0078 11.5901 24.1055 13.7229 24.1055Z" fill="white"/>
<path d="M13.7229 24.1055H39.094C41.2268 24.1055 41.7424 21.9961 40.6877 20.6133L28.4416 4.53516C27.2932 3.02344 25.5354 3 24.3635 4.53516L12.1291 20.625C11.0744 22.0078 11.5901 24.1055 13.7229 24.1055ZM14.1096 22.2188C13.676 22.2188 13.5588 21.8555 13.7815 21.5508L25.8284 5.71875C26.1448 5.30859 26.6838 5.32031 26.9651 5.70703L39.0237 21.5391C39.258 21.8438 39.1291 22.2188 38.6955 22.2188H14.1096ZM22.594 13.9102C24.5393 13.9102 25.3244 12.3633 26.4026 12.3633C27.4924 12.3633 28.2776 13.9102 30.2229 13.9102C31.4182 13.9102 32.1916 12.9375 32.8596 12.2227L31.9573 11.1211C31.301 11.7891 30.7737 12.4922 30.2229 12.4922C29.1916 12.4922 28.2776 10.9453 26.4026 10.9453C24.5393 10.9453 23.6252 12.4922 22.594 12.4922C22.0315 12.4922 21.5041 11.7773 20.8362 11.1094L19.9338 12.1992C20.6135 12.9258 21.3869 13.9102 22.594 13.9102Z" fill="black" fill-opacity="0.85"/>
</svg>
