<svg width="28" height="28" viewBox="0 0 28 28" fill="none" xmlns="http://www.w3.org/2000/svg">
<path d="M12.4492 24.4922C13.2461 24.4922 13.8203 23.9062 13.8203 23.1211V18.6445H14.1602C18.707 18.6445 21.5664 19.793 23.6172 23.625C24.0273 24.375 24.5664 24.4922 25.0586 24.4922C25.6797 24.4922 26.2656 23.9297 26.2656 22.9219C26.2656 14.2617 22.5977 8.85938 14.1602 8.85938H13.8203V4.42969C13.8203 3.64453 13.2461 3 12.4258 3C11.8516 3 11.4648 3.24609 10.8438 3.83203L1.59766 12.4805C1.14062 12.9141 1 13.3477 1 13.7461C1 14.1328 1.15234 14.5781 1.59766 15L10.8438 23.7305C11.4062 24.2578 11.875 24.4922 12.4492 24.4922ZM11.7812 21.9727C11.7109 21.9727 11.6406 21.9375 11.582 21.8672L3.22656 13.9688C3.13281 13.875 3.09766 13.8164 3.09766 13.7461C3.09766 13.6758 3.13281 13.6055 3.22656 13.5234L11.5703 5.51953C11.6289 5.47266 11.6992 5.42578 11.7695 5.42578C11.875 5.42578 11.9336 5.49609 11.9336 5.58984V10.2422C11.9336 10.5117 12.0625 10.6289 12.332 10.6289H13.9023C21.9414 10.6289 24.3672 16.207 24.6016 21.7383C24.6016 21.832 24.5664 21.8672 24.5078 21.8672C24.4609 21.8672 24.4375 21.832 24.4023 21.75C23.0195 18.8086 19.4688 16.875 13.9023 16.875H12.332C12.0625 16.875 11.9336 16.9922 11.9336 17.2617V21.7969C11.9336 21.9023 11.875 21.9727 11.7812 21.9727Z" fill="black" fill-opacity="0.85"/>
</svg>
