<svg width="34" height="28" viewBox="0 0 34 28" fill="none" xmlns="http://www.w3.org/2000/svg">
<path d="M0 14.4258C0 18.1406 1.20703 21.5508 3.24609 24.3281C3.60938 24.832 4.23047 24.8789 4.69922 24.5039C5.12109 24.1406 5.17969 23.5781 4.83984 23.1094C3.05859 20.6836 2.00391 17.6719 2.00391 14.4258C2.00391 11.168 3.05859 8.16796 4.83984 5.71874C5.17969 5.27343 5.13281 4.69921 4.69922 4.33593C4.23047 3.96093 3.60938 4.01952 3.24609 4.51171C1.20703 7.28905 0 10.7109 0 14.4258ZM33.4453 14.4258C33.4453 10.7109 32.25 7.28905 30.1992 4.51171C29.8359 4.01952 29.2148 3.96093 28.7461 4.33593C28.3125 4.69921 28.2773 5.27343 28.6055 5.71874C30.3984 8.16796 31.4414 11.168 31.4414 14.4258C31.4414 17.6719 30.3984 20.6836 28.6055 23.1094C28.2773 23.5781 28.3242 24.1406 28.7461 24.5039C29.2148 24.8789 29.8359 24.832 30.1992 24.3281C32.25 21.5508 33.4453 18.1406 33.4453 14.4258Z" fill="black" fill-opacity="0.85"/>
<path d="M16.7227 25.8516C22.9688 25.8516 28.1602 20.6719 28.1602 14.4258C28.1602 8.17969 22.9688 3 16.7109 3C10.4648 3 5.29688 8.16797 5.29688 14.4258C5.29688 20.6719 10.4766 25.8516 16.7227 25.8516ZM16.7227 23.8594C11.4961 23.8594 7.30078 19.6641 7.30078 14.4258C7.30078 9.17578 11.4844 4.98047 16.7109 4.98047C21.9492 4.98047 26.1562 9.17578 26.168 14.4258C26.1797 19.6523 21.9727 23.8594 16.7227 23.8594Z" fill="black" fill-opacity="0.85"/>
<path d="M16.7109 16.5352C17.2734 16.5352 17.5898 16.2188 17.6016 15.6094L17.7773 9.42188C17.7891 8.82422 17.3203 8.37891 16.6992 8.37891C16.0664 8.37891 15.6211 8.8125 15.6328 9.41016L15.7852 15.6094C15.7969 16.207 16.125 16.5352 16.7109 16.5352ZM16.7109 20.3438C17.3789 20.3438 17.9648 19.8047 17.9648 19.125C17.9648 18.4453 17.3906 17.9062 16.7109 17.9062C16.0195 17.9062 15.4453 18.457 15.4453 19.125C15.4453 19.793 16.0312 20.3438 16.7109 20.3438Z" fill="black" fill-opacity="0.85"/>
</svg>
