<svg width="28" height="28" viewBox="0 0 28 28" fill="none" xmlns="http://www.w3.org/2000/svg">
<path d="M13.9531 25.9062C20.4922 25.9062 25.9062 20.4805 25.9062 13.9531C25.9062 7.41406 20.4805 2 13.9414 2C7.41406 2 2 7.41406 2 13.9531C2 20.4805 7.42578 25.9062 13.9531 25.9062Z" fill="black" fill-opacity="0.85"/>
<path d="M10.6602 14.7734H13.9414C14.2695 14.7734 14.5508 14.5273 14.5508 14.1992V9.93359C14.5508 9.60547 14.2812 9.34766 13.9414 9.34766C13.6133 9.34766 13.3555 9.60547 13.3555 9.93359V13.6133H10.6602C10.3203 13.6133 10.0625 13.8594 10.0625 14.1992C10.0625 14.5391 10.3203 14.7734 10.6602 14.7734ZM13.9531 20.4336C10.4141 20.4336 7.46094 17.4922 7.46094 13.9531C7.46094 10.4141 10.4023 7.46094 13.9414 7.46094C17.4922 7.46094 20.4453 10.4141 20.4453 13.9531C20.4453 17.4922 17.4922 20.4336 13.9531 20.4336Z" fill="black" fill-opacity="0.85"/>
</svg>
