<svg width="28" height="28" viewBox="0 0 28 28" fill="none" xmlns="http://www.w3.org/2000/svg">
<path d="M6.67969 24.5977H20.8945C23.3555 24.5977 24.5742 23.3789 24.5742 20.9648V6.65625C24.5742 4.24219 23.3555 3.02344 20.8945 3.02344H6.67969C4.23047 3.02344 3 4.23047 3 6.65625V20.9648C3 23.3906 4.23047 24.5977 6.67969 24.5977Z" fill="black" fill-opacity="0.85"/>
<path d="M9.87891 18.8906C8.57812 18.8906 7.34766 18.2695 6.99609 17.1445C6.9375 16.9453 6.90234 16.7344 6.90234 16.5117C6.90234 16.043 7.23047 15.75 7.69922 15.75C8.08594 15.75 8.34375 15.9492 8.46094 16.3477C8.61328 16.8984 9.01172 17.4844 9.89062 17.4844C10.7813 17.4844 11.2148 16.7695 11.2148 15.9375C11.2148 14.8945 10.6523 14.332 9.63281 14.332H9.31641C8.91797 14.332 8.64844 14.0977 8.64844 13.6992C8.64844 13.3008 8.91797 13.043 9.31641 13.043H9.60938C10.5117 13.043 11.0039 12.3984 11.0039 11.5195C11.0039 10.7227 10.6172 10.1133 9.83203 10.1133C9.15234 10.1133 8.76562 10.5586 8.58984 11.2734C8.46094 11.6953 8.21484 11.8477 7.80469 11.8477C7.32422 11.8477 7.05469 11.5313 7.05469 11.1328C7.05469 10.9219 7.08984 10.7109 7.14844 10.4766C7.5 9.41016 8.57812 8.70703 9.83203 8.70703C11.4141 8.70703 12.6563 9.65625 12.6563 11.332C12.6563 12.3398 12.1289 13.3242 11.0273 13.6172V13.6523C12.0469 13.7578 12.9492 14.4961 12.9492 15.9961C12.9492 17.8008 11.6133 18.8906 9.87891 18.8906ZM18.7031 18.832C18.3164 18.832 17.8711 18.6094 17.8711 17.9648V16.7695H15.1641C14.5664 16.7695 14.168 16.3711 14.168 15.7852C14.168 15.4102 14.2383 15.0938 14.4375 14.625L16.5938 9.9375C16.9336 9.1875 17.332 8.75391 18.1758 8.75391C18.9844 8.75391 19.5352 9.22266 19.5352 10.0664V15.3633H19.957C20.4492 15.3633 20.6484 15.668 20.6484 16.0547C20.6484 16.4648 20.4258 16.7695 19.957 16.7695H19.5352V17.9648C19.5352 18.5508 19.1484 18.832 18.7031 18.832ZM17.9062 15.3984V10.2773H17.8594L15.6562 15.3164V15.3984H17.9062Z" fill="white"/>
</svg>
