<svg width="28" height="28" viewBox="0 0 28 28" fill="none" xmlns="http://www.w3.org/2000/svg">
<path d="M13.9531 25.9062C20.4922 25.9062 25.9062 20.4805 25.9062 13.9531C25.9062 7.41406 20.4805 2 13.9414 2C7.41406 2 2 7.41406 2 13.9531C2 20.4805 7.42578 25.9062 13.9531 25.9062ZM13.9531 23.9141C8.42188 23.9141 4.00391 19.4844 4.00391 13.9531C4.00391 8.42188 8.41016 3.99219 13.9414 3.99219C19.4727 3.99219 23.9141 8.42188 23.9141 13.9531C23.9141 19.4844 19.4844 23.9141 13.9531 23.9141Z" fill="black" fill-opacity="0.85"/>
<path d="M7.67188 13.6719C8.21093 12.9805 8.83203 12.3711 9.53516 11.832C9.52344 11.3867 9.24219 10.5313 8.78516 10.4023C8.12891 11.3398 7.6953 12.6172 7.67188 13.6719ZM10.2383 11.3281C10.4258 11.2109 10.6133 11.0938 10.8125 10.9883C10.6953 9.94531 10.7305 9.08984 10.8711 8.49219C10.2617 8.84375 9.71094 9.28906 9.24219 9.81641C9.78125 10.0156 10.1094 10.7539 10.2383 11.3281ZM11.5156 10.6367C11.8086 10.4961 12.125 10.3789 12.4297 10.2617C12.418 10.1563 12.418 10.0273 12.418 9.89844C12.418 8.98438 12.8633 8.19922 13.5898 7.68359C13.0859 7.69531 12.2773 7.85938 11.6562 8.10547C11.5273 8.59766 11.3984 9.44141 11.5156 10.6367ZM13.2031 10.0508C13.9766 9.83984 14.7969 9.74609 15.6289 9.74609C16.8242 9.74609 18.0195 9.95703 19.0742 10.3672C18.1484 9.05469 16.7305 8.09375 15.1016 7.77734C13.8711 8.19922 13.1211 8.92578 13.2031 10.0508ZM7.74219 14.9023C7.95312 16.25 8.60938 17.4688 9.54688 18.3945C8.94921 16.6953 9.41797 14.6211 9.52344 12.8281C8.84375 13.4375 8.24609 14.1172 7.74219 14.9023ZM10.3086 12.207C10.3203 14.9844 9.10155 18.125 11.668 19.707C12.3477 20.0352 13.1328 20.2344 13.9531 20.2344C14.2578 20.2344 14.5625 20.2227 14.8672 20.1758C12.5352 17.2812 11.3633 14.2109 10.9297 11.8086C10.7187 11.9258 10.5078 12.0664 10.3086 12.207ZM11.6094 11.4336C11.9961 13.7656 13.1914 16.9766 15.6875 19.9883C17.082 19.5781 18.2773 18.6992 19.0859 17.5273C18.8516 14.5742 13.7891 13.6367 12.6406 11.0117C12.2891 11.1172 11.9492 11.2695 11.6094 11.4336ZM13.3906 10.7773C14.3867 12.7812 18.6055 13.707 19.6602 16.543C20.0234 15.7461 20.2344 14.8789 20.2344 13.9531C20.2344 13.0859 20.0469 12.2539 19.707 11.4922C18.4297 10.8359 17.1055 10.5078 15.6289 10.5078C14.8672 10.5078 14.1172 10.6016 13.3906 10.7773Z" fill="black" fill-opacity="0.85"/>
</svg>
