<svg width="29" height="29" viewBox="0 0 29 29" fill="none" xmlns="http://www.w3.org/2000/svg">
<g clip-path="url(#clip0_2124_46044)">
<path d="M1.01172 15.4231C1.01172 20.6262 4.50391 24.1184 10.2578 24.1184H12.9414C15.7773 24.1184 17.4414 22.7708 17.4648 20.4856C18.3789 20.2043 18.9179 19.4543 18.9179 18.4348C18.9179 18.0598 18.8476 17.6965 18.7422 17.3567C19.7265 17.0403 20.3359 16.22 20.3359 15.1536C20.3359 14.8723 20.3008 14.5793 20.207 14.2864H24.2969C25.8672 14.2864 26.8867 13.2552 26.8867 11.7903C26.8867 10.3255 25.8672 9.29422 24.2969 9.29422H14.0429C13.9844 9.29422 13.9375 9.27078 13.9375 9.20047C13.9375 9.15359 13.9609 9.10672 14.0195 9.095L15.9883 8.27469C16.9492 7.86453 17.4531 7.14969 17.4531 6.27078C17.4531 5.07547 16.6914 4.02078 15.3437 4.02078C14.9687 4.00906 14.4765 4.07938 14.0547 4.24344L7.96094 6.41141C3.34375 8.05203 1.01172 11.0755 1.01172 15.4231ZM2.69922 15.4934C2.69922 12.0481 4.29297 9.41141 8.48828 7.91141L14.5703 5.73172C14.7461 5.66141 14.9101 5.63797 15.1211 5.63797C15.5547 5.63797 15.9179 5.95438 15.9179 6.44656C15.9179 6.86844 15.6719 7.10281 15.25 7.29031L11.5 8.95438C10.8906 9.23563 10.6914 9.62234 10.6914 10.0559C10.6914 10.5716 11.1015 10.9348 11.6523 10.9348H24.414C24.9414 10.9348 25.3047 11.2864 25.3047 11.7903C25.3047 12.3059 24.9414 12.6458 24.414 12.6458H15.3086C14.8867 12.6458 14.5469 13.0091 14.5469 13.4427C14.5469 13.8528 14.8867 14.2161 15.3086 14.2161H18.5898C18.6836 14.4153 18.7539 14.7083 18.7539 14.9426C18.7539 15.552 18.3437 15.9387 17.6992 15.9387H14.8515C14.3945 15.9387 14.0781 16.302 14.0781 16.7122C14.0781 17.1223 14.3945 17.4856 14.8515 17.4856H17.1719C17.2656 17.6965 17.3242 17.9895 17.3242 18.2239C17.3242 18.845 16.9258 19.2083 16.2929 19.2083H14.3711C13.9258 19.2083 13.6094 19.595 13.6094 20.0051C13.6094 20.4153 13.9258 20.7668 14.3711 20.7668H15.7773C15.7773 21.8684 14.6523 22.4895 12.6953 22.4895H10.457C5.5 22.4895 2.69922 19.8411 2.69922 15.4934Z" fill="black" fill-opacity="0.85"/>
</g>
<defs>
<clipPath id="clip0_2124_46044">
<rect width="25.875" height="20.1705" fill="white" transform="translate(1.01172 4.01953)"/>
</clipPath>
</defs>
</svg>
