<svg width="28" height="28" viewBox="0 0 28 28" fill="none" xmlns="http://www.w3.org/2000/svg">
<g clip-path="url(#clip0_2124_88805)">
<path d="M6.67969 24.5977H20.8945C23.3555 24.5977 24.5742 23.3789 24.5742 20.9648V6.65625C24.5742 4.24219 23.3555 3.02344 20.8945 3.02344H6.67969C4.23047 3.02344 3 4.23047 3 6.65625V20.9648C3 23.3906 4.23047 24.5977 6.67969 24.5977Z" fill="black" fill-opacity="0.85"/>
<path d="M8.36719 10.3359C7.27734 10.3125 6.39844 9.45703 6.39844 8.35547C6.39844 7.27734 7.27734 6.41016 8.36719 6.41016C9.43359 6.41016 10.3242 7.27734 10.3242 8.35547C10.3242 9.45703 9.43359 10.3594 8.36719 10.3359ZM19.2305 10.3359C18.1406 10.3125 17.25 9.45703 17.25 8.35547C17.25 7.27734 18.1406 6.41016 19.2305 6.41016C20.2969 6.41016 21.1758 7.27734 21.1758 8.35547C21.1758 9.45703 20.2969 10.3594 19.2305 10.3359ZM8.36719 15.7734C7.27734 15.7734 6.41016 14.8945 6.41016 13.793C6.41016 12.7148 7.27734 11.8477 8.36719 11.8477C9.43359 11.8477 10.3242 12.7148 10.3242 13.793C10.3242 14.8945 9.43359 15.7734 8.36719 15.7734ZM19.2188 15.7734C18.1406 15.7734 17.2617 14.8945 17.2617 13.793C17.2617 12.7148 18.1406 11.8477 19.2188 11.8477C20.2969 11.8477 21.1758 12.7148 21.1758 13.793C21.1758 14.8945 20.2969 15.7734 19.2188 15.7734ZM8.36719 21.2109C7.27734 21.2109 6.41016 20.332 6.41016 19.2422C6.41016 18.1523 7.27734 17.2852 8.36719 17.2852C9.43359 17.2852 10.3242 18.1523 10.3242 19.2422C10.3242 20.332 9.43359 21.2109 8.36719 21.2109ZM19.2305 21.2109C18.1406 21.2109 17.2734 20.332 17.2734 19.2422C17.2734 18.1523 18.1406 17.2852 19.2305 17.2852C20.2969 17.2852 21.1758 18.1523 21.1758 19.2422C21.1758 20.332 20.2969 21.2109 19.2305 21.2109Z" fill="white"/>
</g>
<defs>
<clipPath id="clip0_2124_88805">
<rect width="21.5742" height="21.5977" fill="white" transform="translate(3 3)"/>
</clipPath>
</defs>
</svg>
