<svg width="28" height="28" viewBox="0 0 28 28" fill="none" xmlns="http://www.w3.org/2000/svg">
<g clip-path="url(#clip0_2124_88408)">
<path d="M5.34766 19.0234C5.34766 18.5547 5.72266 18.168 6.20312 18.168H22.7617C23.2422 18.168 23.6172 18.5547 23.6172 19.0234C23.6172 19.4922 23.2422 19.8906 22.7617 19.8906H6.20312C5.72266 19.8906 5.34766 19.4922 5.34766 19.0234ZM5.64062 23.6289H23.3242C26.0664 23.6289 27.9648 21.7422 27.9648 19.0234C27.9648 16.3047 26.0664 14.4062 23.3242 14.4062H5.64062C2.89844 14.4062 1 16.3047 1 19.0234C1 21.7422 2.89844 23.6289 5.64062 23.6289ZM5.64062 12.8008H23.3242C24.4258 12.8008 25.4336 13.0469 26.3008 13.4922L23.5 6.73047C22.7734 4.96094 21.2383 4.01172 19.2109 4.01172H9.75391C7.72656 4.01172 6.19141 4.96094 5.46484 6.73047L2.65234 13.4922C3.53125 13.0469 4.53906 12.8008 5.64062 12.8008Z" fill="black" fill-opacity="0.85"/>
</g>
<defs>
<clipPath id="clip0_2124_88408">
<rect width="26.9648" height="19.6289" fill="white" transform="translate(1 4)"/>
</clipPath>
</defs>
</svg>
