<svg width="28" height="28" viewBox="0 0 28 28" fill="none" xmlns="http://www.w3.org/2000/svg">
<g clip-path="url(#clip0_2124_89292)">
<path d="M13.9531 25.9062C20.4922 25.9062 25.9062 20.4805 25.9062 13.9531C25.9062 7.41406 20.4805 2 13.9414 2C7.41406 2 2 7.41406 2 13.9531C2 20.4805 7.42578 25.9062 13.9531 25.9062ZM13.9531 23.9141C8.42188 23.9141 4.00391 19.4844 4.00391 13.9531C4.00391 8.42188 8.41016 3.99219 13.9414 3.99219C19.4727 3.99219 23.9141 8.42188 23.9141 13.9531C23.9141 19.4844 19.4844 23.9141 13.9531 23.9141Z" fill="black" fill-opacity="0.85"/>
<path d="M8.43359 19.1797H19.4844C20.1758 19.1797 20.6328 18.7344 20.6328 18.0547V9.88672C20.6328 9.19531 20.1758 8.76172 19.4844 8.76172H8.43359C7.73047 8.76172 7.28516 9.19531 7.28516 9.88672V18.0547C7.28516 18.7344 7.73047 19.1797 8.43359 19.1797ZM8.5625 18.2188C8.32812 18.2188 8.19922 18.0664 8.19922 17.8438V17.0703C8.19922 16.8594 8.32812 16.7305 8.55078 16.7305H9.44141C9.64062 16.7305 9.76953 16.8594 9.76953 17.0703V17.8672C9.76953 18.0664 9.64062 18.2188 9.44141 18.2188H8.5625ZM8.55078 15.8281C8.32812 15.8281 8.19922 15.6758 8.19922 15.5V14.7148C8.19922 14.4922 8.32812 14.3633 8.55078 14.3633H9.44141C9.64062 14.3633 9.76953 14.4922 9.76953 14.7148V15.5C9.76953 15.6758 9.64062 15.8281 9.44141 15.8281H8.55078ZM8.55078 13.4961C8.32812 13.4961 8.19922 13.3438 8.19922 13.168V12.3711C8.19922 12.1602 8.32812 12.0195 8.55078 12.0195H9.44141C9.64062 12.0195 9.76953 12.1602 9.76953 12.3711V13.168C9.76953 13.3438 9.64062 13.4961 9.44141 13.4961H8.55078ZM8.55078 11.1758C8.32812 11.1758 8.19922 11.0234 8.19922 10.8477V10.0625C8.19922 9.86328 8.32812 9.71094 8.55078 9.71094H9.44141C9.64062 9.71094 9.76953 9.86328 9.76953 10.0625V10.8477C9.76953 11.0234 9.64062 11.1758 9.44141 11.1758H8.55078ZM18.4648 18.2188C18.2773 18.2188 18.1484 18.0664 18.1484 17.8672V17.0703C18.1484 16.8594 18.2773 16.7305 18.4648 16.7305H19.3672C19.5898 16.7305 19.7188 16.8594 19.7188 17.0703V17.8438C19.7188 18.0664 19.5898 18.2188 19.3555 18.2188H18.4648ZM18.4648 15.8281C18.2773 15.8281 18.1484 15.6758 18.1484 15.5V14.7148C18.1484 14.4922 18.2773 14.3633 18.4648 14.3633H19.3672C19.5898 14.3633 19.7188 14.4922 19.7188 14.7148V15.5C19.7188 15.6758 19.5898 15.8281 19.3672 15.8281H18.4648ZM18.4648 13.4961C18.2773 13.4961 18.1484 13.3438 18.1484 13.168V12.3711C18.1484 12.1602 18.2773 12.0195 18.4648 12.0195H19.3672C19.5898 12.0195 19.7188 12.1602 19.7188 12.3711V13.168C19.7188 13.3438 19.5898 13.4961 19.3672 13.4961H18.4648ZM18.4648 11.1758C18.2773 11.1758 18.1484 11.0234 18.1484 10.8477V10.0625C18.1484 9.86328 18.2773 9.71094 18.4648 9.71094H19.3672C19.5898 9.71094 19.7188 9.86328 19.7188 10.0625V10.8477C19.7188 11.0234 19.5898 11.1758 19.3672 11.1758H18.4648ZM11.2109 13.4844C10.9883 13.4844 10.8711 13.332 10.8711 13.1562V10.0625C10.8711 9.86328 10.9883 9.71094 11.2109 9.71094H16.7188C16.9062 9.71094 17.0352 9.86328 17.0352 10.0625V13.1562C17.0352 13.332 16.9062 13.4844 16.7188 13.4844H11.2109ZM11.2109 18.2188C10.9883 18.2188 10.8711 18.0664 10.8711 17.8906V14.7852C10.8711 14.5977 10.9883 14.4336 11.2109 14.4336H16.7188C16.9062 14.4336 17.0352 14.5977 17.0352 14.7852V17.8906C17.0352 18.0664 16.9062 18.2188 16.7188 18.2188H11.2109Z" fill="black" fill-opacity="0.85"/>
</g>
<defs>
<clipPath id="clip0_2124_89292">
<rect width="23.9062" height="23.918" fill="white" transform="translate(2 2)"/>
</clipPath>
</defs>
</svg>
