<svg width="28" height="29" viewBox="0 0 28 29" fill="none" xmlns="http://www.w3.org/2000/svg">
<path d="M0 14.2254C0 20.7645 5.42578 26.1785 11.9531 26.1785C18.4922 26.1785 23.9062 20.7645 23.9062 14.2254C23.9062 8.45979 19.6992 3.57307 14.2148 2.49495V0.830886C14.2148 -0.00114524 13.6406 -0.223801 13.0078 0.23323L9.26953 2.84651C8.73047 3.22151 8.71875 3.78401 9.26953 4.17073L12.9961 6.79573C13.6406 7.26448 14.2148 7.04182 14.2148 6.19807V4.53401C18.6445 5.54182 21.9023 9.47932 21.9023 14.2254C21.9023 19.7567 17.4844 24.1864 11.9531 24.1864C6.42188 24.1864 1.98047 19.7567 1.99219 14.2254C2.00391 10.8973 3.62109 7.95589 6.11719 6.17464C6.59766 5.81135 6.75 5.26057 6.45703 4.76839C6.16406 4.28792 5.51953 4.15901 5.00391 4.55745C1.99219 6.74885 0 10.2879 0 14.2254Z" fill="black" fill-opacity="0.85"/>
<path d="M10.7344 19.7919C11.1211 19.7919 11.4492 19.6044 11.6836 19.241L17.0391 10.8154C17.168 10.581 17.3203 10.3232 17.3203 10.0654C17.3203 9.53797 16.8516 9.19812 16.3594 9.19812C16.0664 9.19812 15.7734 9.38562 15.5508 9.72547L10.6875 17.5302L8.37891 14.5419C8.09766 14.1669 7.83984 14.0732 7.51172 14.0732C7.00781 14.0732 6.60938 14.4833 6.60938 14.999C6.60938 15.2568 6.71484 15.5029 6.87891 15.7255L9.73828 19.241C10.0312 19.6278 10.3477 19.7919 10.7344 19.7919Z" fill="black" fill-opacity="0.85"/>
</svg>
