<svg width="28" height="28" viewBox="0 0 28 28" fill="none" xmlns="http://www.w3.org/2000/svg">
<path d="M24.8828 15.893C24.8828 9.36566 19.4688 3.93988 12.9414 3.93988C6.40234 3.93988 1 9.36566 1 15.893C1 18.9633 2.19531 21.7876 4.14062 23.9087C4.65625 24.4829 5.55859 24.6235 6.25 23.9321L7.90234 22.2915C8.26562 21.9282 8.26562 21.3188 7.90234 20.9555C7.53906 20.5923 6.92969 20.5923 6.56641 20.9555L5.27734 22.2446C3.84766 20.5219 3.00391 18.3305 3.00391 15.893C3.00391 10.3735 7.41016 5.93206 12.9414 5.93206C18.4609 5.93206 22.8789 10.3735 22.8789 15.893C22.8789 18.3305 22.0234 20.5219 20.5938 22.2446L19.3047 20.9555C18.9531 20.5923 18.3438 20.5923 17.9688 20.9555C17.6172 21.3188 17.6055 21.9282 17.9688 22.2915L19.6328 23.9321C20.3242 24.6235 21.2266 24.4829 21.7422 23.9087C23.6875 21.7876 24.8828 18.9633 24.8828 15.893ZM21.0156 14.9555C20.5 14.9555 20.0781 15.3774 20.0781 15.893C20.0781 16.4087 20.5 16.8423 21.0156 16.8423H23.875V14.9555H21.0156ZM13.8789 7.79535V4.93597H11.9922V7.79535C11.9922 8.31097 12.4258 8.74456 12.9414 8.74456C13.457 8.74456 13.8789 8.31097 13.8789 7.79535ZM7.86719 9.50628L5.83984 7.47894L4.50391 8.81488L6.53125 10.8422C6.89453 11.2055 7.50391 11.2055 7.86719 10.8422C8.23047 10.4672 8.23047 9.86956 7.86719 9.50628ZM4.82031 14.9555H1.96094V16.8423H4.82031C5.33594 16.8423 5.76953 16.4087 5.76953 15.893C5.76953 15.3774 5.33594 14.9555 4.82031 14.9555Z" fill="black" fill-opacity="0.85"/>
<path d="M11.4414 17.393C12.2148 18.1548 13.3164 18.1548 14.0898 17.393C14.2305 17.2407 14.4531 16.936 14.582 16.7485L18.5312 11.0649C18.7188 10.7836 18.6719 10.5141 18.5078 10.3266C18.3203 10.1625 18.0508 10.1039 17.7695 10.3032L12.0859 14.2524C11.8984 14.3813 11.582 14.604 11.4414 14.7446C10.6797 15.518 10.6797 16.6196 11.4414 17.393Z" fill="black" fill-opacity="0.85"/>
<path d="M24.32 1.19772C23.9333 0.811 23.4411 1.03366 23.3356 1.50241L22.5036 5.61569C22.3864 6.13131 22.7263 6.48288 23.2653 6.36569L27.3669 5.53366C27.8474 5.42819 28.0583 4.94772 27.6716 4.54928L24.32 1.19772Z" fill="black" fill-opacity="0.85"/>
</svg>
