<svg width="28" height="28" viewBox="0 0 28 28" fill="none" xmlns="http://www.w3.org/2000/svg">
<path d="M13.9531 25.9062C20.4922 25.9062 25.9062 20.4805 25.9062 13.9531C25.9062 7.41406 20.4805 2 13.9414 2C7.41406 2 2 7.41406 2 13.9531C2 20.4805 7.42578 25.9062 13.9531 25.9062Z" fill="black" fill-opacity="0.85"/>
<path d="M10.1562 19.0508C8.86719 19.0508 7.625 18.4297 7.27344 17.3047C7.21484 17.1055 7.19141 16.8945 7.19141 16.6719C7.19141 16.2031 7.50781 15.9102 7.97656 15.9102C8.375 15.9102 8.63281 16.1094 8.75 16.5078C8.89062 17.0586 9.28906 17.6445 10.168 17.6445C11.0586 17.6445 11.5039 16.9297 11.5039 16.0977C11.5039 15.0547 10.9414 14.4922 9.91016 14.4922H9.61719C9.21875 14.4922 8.9375 14.2578 8.9375 13.8594C8.9375 13.4609 9.20703 13.2031 9.61719 13.2031H9.89844C10.8008 13.2031 11.293 12.5586 11.293 11.6797C11.293 10.8828 10.918 10.2734 10.1211 10.2734C9.42969 10.2734 9.06641 10.7188 8.86719 11.4336C8.75 11.8555 8.50391 12.0078 8.09375 12.0078C7.60156 12.0078 7.34375 11.6914 7.34375 11.293C7.34375 11.082 7.37891 10.8711 7.4375 10.6367C7.78906 9.57031 8.86719 8.86719 10.1211 8.86719C11.6914 8.86719 12.9453 9.81641 12.9453 11.4922C12.9453 12.5 12.4062 13.4844 11.3164 13.7773V13.8125C12.3359 13.918 13.2266 14.6562 13.2266 16.1562C13.2266 17.9609 11.9023 19.0508 10.1562 19.0508ZM17.7031 19.0859C15.2656 19.0859 14.5273 16.3555 14.5273 14.0703C14.5273 11.6211 15.2539 8.84375 17.7266 8.84375C18.9336 8.84375 19.9883 9.48828 20.2461 10.5312C20.2812 10.6836 20.3047 10.8359 20.3047 10.9648C20.3047 11.3633 20.082 11.6914 19.6016 11.6914C19.2148 11.6914 18.9805 11.5273 18.8164 11.1523C18.5938 10.6484 18.2305 10.2617 17.6914 10.2617C16.3438 10.2617 16.1914 12.6875 16.1914 14.0234C16.1914 14.0586 16.1914 14.1055 16.1914 14.1523H16.2266C16.4961 13.1211 17.2461 12.4648 18.2305 12.4648C19.8242 12.4648 20.6094 14.0117 20.6094 15.6406C20.6094 17.5391 19.5547 19.0859 17.7031 19.0859ZM17.6797 17.668C18.5234 17.668 18.9219 16.6016 18.9219 15.7227C18.9453 14.832 18.5703 13.7891 17.6797 13.7891C16.8125 13.7891 16.4141 14.7852 16.4141 15.6641C16.4141 16.5312 16.7773 17.668 17.6797 17.668Z" fill="white"/>
</svg>
