<svg width="30" height="31" viewBox="0 0 30 31" fill="none" xmlns="http://www.w3.org/2000/svg">
<g clip-path="url(#clip0_2124_24812)">
<path d="M8.54297 23.3086C14.3906 23.3086 17.0977 21.2461 17.0977 16.4883V8.40233C17.0977 6.49218 16.6992 5.14452 15.9375 4.18358C15.6562 3.83202 15.2109 3.76171 14.8242 4.0664C13.7578 4.87499 11.1445 5.67187 8.54297 5.67187C5.89453 5.67187 3.25781 4.86327 2.22656 4.0078C1.89844 3.74999 1.5 3.78515 1.23047 4.10155C0.46875 5.03905 0 6.41015 0 8.40233V16.4883C0 21.2461 2.69531 23.3086 8.54297 23.3086Z" fill="black" fill-opacity="0.85"/>
<path d="M8.54297 4.21875C11.3672 4.21875 13.4648 3.62109 13.4648 2.85938C13.4648 2.07422 11.3672 1.5 8.54297 1.5C5.73047 1.5 3.62109 2.07422 3.62109 2.85938C3.62109 3.62109 5.73047 4.21875 8.54297 4.21875Z" fill="black" fill-opacity="0.85"/>
<path d="M18.7383 30.4102C25.9805 30.4102 29.7656 27.5273 29.7656 21.293V12.375C29.7656 9.97266 29.2266 8.09766 28.0664 6.59766C26.25 4.18359 23.0391 2.98828 18.7383 2.98828C14.4375 2.98828 11.2383 4.17188 9.41016 6.58594C8.25 8.08594 7.71094 9.97266 7.71094 12.375V21.293C7.71094 27.5273 11.4961 30.4102 18.7383 30.4102Z" fill="white"/>
<path d="M18.7383 28.8164C25.1953 28.8164 28.1602 26.5195 28.1602 21.293V12.375C28.1602 10.1719 27.6328 8.68358 26.8008 7.6289C26.5195 7.27733 26.0742 7.2539 25.7227 7.53515C24.6094 8.51952 21.668 9.36327 18.7383 9.36327C15.7969 9.36327 12.8672 8.51952 11.7422 7.53515C11.3906 7.2539 10.9453 7.27733 10.6641 7.6289C9.83203 8.68358 9.30469 10.1719 9.30469 12.375V21.293C9.30469 26.5195 12.2695 28.8164 18.7383 28.8164Z" fill="black" fill-opacity="0.85"/>
<path d="M18.7383 7.75781C21.7383 7.75781 24.1523 7.10156 24.1523 6.25781C24.1523 5.39062 21.7383 4.74609 18.7383 4.74609C15.7266 4.74609 13.3125 5.39062 13.3125 6.25781C13.3125 7.10156 15.7266 7.75781 18.7383 7.75781Z" fill="black" fill-opacity="0.85"/>
</g>
<defs>
<clipPath id="clip0_2124_24812">
<rect width="29.7656" height="30.4102" fill="white"/>
</clipPath>
</defs>
</svg>
