<svg width="28" height="28" viewBox="0 0 28 28" fill="none" xmlns="http://www.w3.org/2000/svg">
<path d="M27.1084 21.8281C28.0694 18.3242 25.5264 16.8008 19.2452 16.8008C16.21 16.8008 13.0577 17.1055 10.6436 17.6094L11.0655 18.1953C11.71 12.957 10.1045 8.66797 6.57719 6.81641L6.91704 8.25781C8.28813 4.39062 5.85063 2 3.61235 2C1.92485 2 0.471726 3.3125 1.18657 6.23047L5.59282 24.1133C6.02641 25.8711 7.18657 26.8086 8.92094 26.8086H22.5967C25.0108 26.8086 26.0772 25.6484 27.1084 21.8281Z" fill="black" fill-opacity="0.85"/>
<path d="M18.9639 12.9102H24.5772C25.0225 12.9102 25.3272 12.6055 25.3272 12.1836C25.3272 11.75 25.0108 11.4453 24.5772 11.4453H20.6045V11.4102L23.1475 8.66797C24.0499 7.70703 24.7295 6.86328 24.7295 5.65625C24.7295 3.99219 23.4288 2.89062 21.4014 2.89062C19.878 2.89062 18.5303 3.80469 18.1788 5.04688C18.1436 5.22266 18.1084 5.33984 18.1084 5.49219C18.1084 5.92578 18.3897 6.21875 18.8467 6.21875C19.2452 6.21875 19.4444 5.97266 19.6436 5.64453C19.9131 5 20.4756 4.33203 21.4717 4.33203C22.4678 4.33203 23.1358 4.91797 23.1358 5.77344C23.1358 6.53516 22.4795 7.17969 21.8702 7.84766L18.46 11.5156C18.2608 11.7148 18.1553 11.9258 18.1553 12.1836C18.1553 12.6289 18.46 12.9102 18.9639 12.9102Z" fill="black" fill-opacity="0.85"/>
</svg>
