<svg width="28" height="28" viewBox="0 0 28 28" fill="none" xmlns="http://www.w3.org/2000/svg">
<g clip-path="url(#clip0_2124_24631)">
<path d="M13.9531 25.918C20.4922 25.918 25.9062 20.5039 25.9062 13.9648C25.9062 7.4375 20.4805 2.01172 13.9414 2.01172C7.41406 2.01172 2 7.4375 2 13.9648C2 20.5039 7.42578 25.918 13.9531 25.918Z" fill="black" fill-opacity="0.85"/>
<path d="M6.91016 17.5508C6.74609 17.7734 6.4414 17.7734 6.20702 17.5391C5.32811 16.5898 4.85938 15.3125 4.85938 13.9648C4.85938 12.6289 5.32811 11.3516 6.20702 10.3906C6.4414 10.1562 6.74609 10.1562 6.91016 10.3789C7.07421 10.5781 7.02733 10.8242 6.83983 11.0586C6.12499 11.8555 5.74999 12.8633 5.74999 13.9648C5.74999 15.0664 6.12499 16.0742 6.83983 16.8711C7.02733 17.1055 7.07421 17.3633 6.91016 17.5508ZM20.9609 17.5508C20.7969 17.3633 20.8438 17.1055 21.043 16.8711C21.7461 16.0742 22.1328 15.0664 22.1328 13.9648C22.1328 12.8633 21.7461 11.8555 21.043 11.0586C20.8438 10.8242 20.7969 10.5781 20.9609 10.3789C21.1367 10.1562 21.4414 10.1562 21.6641 10.3906C22.543 11.3516 23.0234 12.6289 23.0234 13.9648C23.0234 15.3125 22.543 16.5898 21.6641 17.5391C21.4414 17.7734 21.1367 17.7734 20.9609 17.5508Z" fill="white"/>
<path d="M8.65625 16.0625C8.46875 16.2852 8.14062 16.2852 7.92969 16.0391C7.47266 15.4648 7.21484 14.75 7.21484 13.9648C7.21484 13.1914 7.47266 12.4648 7.92969 11.9023C8.14062 11.6563 8.46875 11.6445 8.65625 11.8672C8.82031 12.0664 8.76172 12.3008 8.57422 12.5469C8.28125 12.9219 8.12891 13.4258 8.12891 13.9648C8.12891 14.5039 8.28125 14.9961 8.57422 15.3828C8.76172 15.6289 8.82031 15.8633 8.65625 16.0625ZM19.2148 16.0625C19.0508 15.8633 19.1094 15.6289 19.2969 15.3828C19.5898 14.9961 19.7539 14.5039 19.7539 13.9648C19.7539 13.4258 19.5898 12.9219 19.2969 12.5469C19.1094 12.3008 19.0508 12.0664 19.2148 11.8672C19.4023 11.6445 19.7422 11.6563 19.9414 11.9023C20.3984 12.4648 20.668 13.1914 20.668 13.9648C20.668 14.75 20.3984 15.4648 19.9414 16.0391C19.7422 16.2852 19.4023 16.2852 19.2148 16.0625Z" fill="white"/>
<path d="M11.5625 20.8906C10.4844 20.8906 9.75781 20.1875 9.75781 19.1445V8.78516C9.75781 7.73047 10.4844 7.03906 11.5625 7.03906H16.3438C17.4219 7.03906 18.1484 7.73047 18.1484 8.78516V19.1445C18.1484 20.1875 17.4219 20.8906 16.3438 20.8906H11.5625ZM11.6914 19.8125H16.2148C16.7656 19.8125 17.0703 19.5078 17.0703 18.9922V8.92578C17.0703 8.41016 16.7656 8.11719 16.2148 8.11719H15.4062C15.3125 8.11719 15.2656 8.16406 15.2656 8.25781V8.39844C15.2656 8.67969 15.0898 8.89062 14.8086 8.89062H13.0977C12.8164 8.89062 12.6406 8.67969 12.6406 8.39844V8.25781C12.6406 8.17578 12.6172 8.11719 12.4883 8.11719H11.6914C11.1406 8.11719 10.8359 8.41016 10.8359 8.92578V18.9922C10.8359 19.5078 11.1406 19.8125 11.6914 19.8125ZM12.5938 19.3438C12.3945 19.3438 12.2656 19.2148 12.2656 19.0156C12.2656 18.8164 12.3945 18.6875 12.5938 18.6875H15.3359C15.5234 18.6875 15.6406 18.8164 15.6406 19.0156C15.6406 19.2148 15.5234 19.3438 15.3359 19.3438H12.5938Z" fill="white"/>
</g>
<defs>
<clipPath id="clip0_2124_24631">
<rect width="23.9062" height="23.918" fill="white" transform="translate(2 2)"/>
</clipPath>
</defs>
</svg>
