<svg width="28" height="28" viewBox="0 0 28 28" fill="none" xmlns="http://www.w3.org/2000/svg">
<path d="M15.8242 6.12109C17.2305 6.12109 18.3789 4.96094 18.3789 3.55469C18.3789 2.14844 17.2305 1 15.8242 1C14.418 1 13.2578 2.14844 13.2578 3.55469C13.2578 4.96094 14.418 6.12109 15.8242 6.12109ZM19.1172 26.4297C19.6211 26.2305 20.0078 25.7148 19.8086 25L18.0391 18.8242C17.9453 18.5312 17.7812 18.2969 17.5 18.1328L13.8086 15.9648L15.5664 10.75C15.6953 10.3516 16.1172 10.3047 16.4102 10.5977L19.0234 13.1992C19.2578 13.4219 19.5391 13.5508 19.8438 13.5508C20.1602 13.5508 20.4531 13.4453 20.6875 13.1992L24.2148 9.66016C24.6602 9.19141 24.6953 8.47656 24.2148 8.00781C23.7578 7.55078 23.0195 7.53906 22.5508 8.00781L19.8438 10.7148L17.582 8.37109C16.5391 7.29297 15.4258 7.07031 13.2578 7.07031H2.18359C1.53906 7.07031 1 7.59766 1 8.25391C1 8.89844 1.53906 9.42578 2.18359 9.42578H10.4102C10.75 9.42578 11.0664 9.70703 10.9023 10.1758L9.53125 14.2891C9.05078 15.7422 9.73047 17.3008 11.1367 17.9102L15.9062 20.0078L17.5469 25.6094C17.7812 26.4414 18.5312 26.6406 19.1172 26.4297ZM4.16406 26.0195C4.46875 26.4648 5.06641 26.6992 5.72266 26.3477L10.9844 23.4297C11.2422 23.2891 11.4297 23.0547 11.5352 22.75L12.543 19.7617L10.6914 18.9531C10.4688 18.8477 10.2578 18.7422 10.0469 18.6016L9.40234 21.6016L4.58594 24.2969C3.83594 24.7305 3.8125 25.5156 4.16406 26.0195ZM20.4297 16.1875H27.6602V14.8867H20.4297C20.0664 14.8867 19.7852 15.168 19.7852 15.5312C19.7852 15.8945 20.0664 16.1875 20.4297 16.1875ZM2.61719 7.52734H3.80078V5.875H2.61719V7.52734ZM3.21484 1.41016C1.98437 1.41016 1 2.39453 1 3.63672C1 4.76172 1.98437 6.10938 3.21484 6.39062C4.44531 6.10938 5.41797 4.76172 5.41797 3.63672C5.41797 2.39453 4.44531 1.41016 3.21484 1.41016Z" fill="black" fill-opacity="0.85"/>
</svg>
