<svg width="28" height="28" viewBox="0 0 28 28" fill="none" xmlns="http://www.w3.org/2000/svg">
<path d="M7.98438 22.3086C8.60547 22.3086 8.91016 22.0742 9.13281 21.418L10.6445 17.2812H17.5586L19.0703 21.418C19.293 22.0742 19.5977 22.3086 20.207 22.3086C20.8281 22.3086 21.2266 21.9336 21.2266 21.3477C21.2266 21.1484 21.1914 20.9609 21.0977 20.7148L15.6016 6.07812C15.332 5.36328 14.8516 5 14.1016 5C13.375 5 12.8828 5.35156 12.625 6.06641L7.12891 20.7266C7.03516 20.9727 7 21.1602 7 21.3594C7 21.9453 7.375 22.3086 7.98438 22.3086ZM11.2188 15.5L14.0664 7.61328H14.125L16.9727 15.5H11.2188Z" fill="black" fill-opacity="0.85"/>
</svg>
