<svg width="35" height="28" viewBox="0 0 35 28" fill="none" xmlns="http://www.w3.org/2000/svg">
<g clip-path="url(#clip0_2124_50200)">
<path d="M3.62109 19.6523H31.3242C33.7266 19.6523 34.957 18.4336 34.957 16.0781V9.57422C34.957 7.21875 33.7266 6 31.3242 6H3.62109C1.24219 6 0 7.21875 0 9.57422V16.0781C0 18.4336 1.24219 19.6523 3.62109 19.6523ZM3.62109 17.7656C2.55469 17.7656 1.88672 17.1094 1.88672 16.0781V9.57422C1.88672 8.54297 2.55469 7.88672 3.62109 7.88672H31.3242C32.3906 7.88672 33.0703 8.54297 33.0703 9.57422V16.0781C33.0703 17.1094 32.3906 17.7656 31.3242 17.7656H3.62109ZM6.97266 15.3516C8.37891 15.3516 9.51562 14.2148 9.51562 12.8086C9.51562 11.3906 8.37891 10.2539 6.97266 10.2539C5.55469 10.2539 4.41797 11.3906 4.41797 12.8086C4.41797 14.2148 5.55469 15.3516 6.97266 15.3516ZM12.7734 15.3633H22.1719C22.7578 15.3633 23.1328 14.9883 23.1328 14.4141V11.25C23.1328 10.6758 22.7578 10.2891 22.1719 10.2891H12.7734C12.1992 10.2891 11.8125 10.6758 11.8125 11.25V14.4141C11.8125 14.9883 12.1992 15.3633 12.7734 15.3633ZM27.9844 15.3516C29.3906 15.3516 30.5273 14.2148 30.5273 12.8086C30.5273 11.3906 29.3906 10.2539 27.9844 10.2539C26.5781 10.2539 25.4414 11.3906 25.4414 12.8086C25.4414 14.2148 26.5781 15.3516 27.9844 15.3516ZM8.68359 18.9258H2.60156V20.6484C2.60156 21.2227 2.98828 21.6094 3.5625 21.6094H7.72266C8.30859 21.6094 8.68359 21.2227 8.68359 20.6484V18.9258ZM26.2734 18.9258V20.6484C26.2734 21.2227 26.6484 21.6094 27.2344 21.6094H31.3828C31.9688 21.6094 32.3555 21.2227 32.3555 20.6484V18.9258H26.2734Z" fill="black" fill-opacity="0.85"/>
</g>
<defs>
<clipPath id="clip0_2124_50200">
<rect width="34.957" height="15.6211" fill="white" transform="translate(0 6)"/>
</clipPath>
</defs>
</svg>
