<svg width="32" height="29" viewBox="0 0 32 29" fill="none" xmlns="http://www.w3.org/2000/svg">
<g clip-path="url(#clip0_2124_45834)">
<path d="M26.3008 6.79224C27.5899 6.79224 28.6094 5.74927 28.6094 4.47192C28.6094 3.18286 27.5899 2.16333 26.3008 2.16333C25.0235 2.16333 23.9805 3.18286 23.9805 4.47192C23.9805 5.74927 25.0235 6.79224 26.3008 6.79224ZM24.9063 25.8235C25.4922 25.8235 25.9375 25.3665 25.9375 24.7923V17.2454C25.9375 17.0579 26.1133 16.8938 26.3008 16.8938C26.4883 16.8938 26.6524 17.0579 26.6524 17.2454V24.7923C26.6524 25.3665 27.1211 25.8235 27.6954 25.8235C28.2696 25.8235 28.7266 25.3665 28.7266 24.7923V12.3938C28.7266 12.1946 28.879 12.054 29.0782 12.054C29.2657 12.054 29.418 12.1946 29.418 12.3938V16.4837C29.418 17.0227 29.8399 17.4446 30.3672 17.4446C30.8829 17.4446 31.3047 17.0227 31.3047 16.4837V11.9133C31.3047 9.56958 29.5821 8.01099 27.0743 8.01099H25.5274C23.0079 8.01099 21.2852 9.56958 21.2852 11.9133V16.4837C21.2852 17.0227 21.7071 17.4446 22.2344 17.4446C22.7618 17.4446 23.1836 17.0227 23.1836 16.4837V12.3938C23.1836 12.1946 23.336 12.054 23.5235 12.054C23.711 12.054 23.875 12.1946 23.875 12.3938V24.7923C23.875 25.3665 24.3321 25.8235 24.9063 25.8235Z" fill="black" fill-opacity="0.85"/>
<path d="M16.6328 28.1321C17.1601 28.1321 17.582 27.7454 17.582 27.218V0.921142C17.582 0.393799 17.1601 0.00708008 16.6328 0.00708008C16.1054 0.00708008 15.6953 0.393799 15.6953 0.921142V27.218C15.6953 27.7454 16.1054 28.1321 16.6328 28.1321Z" fill="black" fill-opacity="0.85"/>
<path d="M6.35453 6.79224C7.63187 6.79224 8.66312 5.74927 8.66312 4.47192C8.66312 3.18286 7.63187 2.16333 6.35453 2.16333C5.06546 2.16333 4.03421 3.18286 4.03421 4.47192C4.03421 5.74927 5.06546 6.79224 6.35453 6.79224ZM4.95999 25.8235C5.53421 25.8235 5.99124 25.3665 5.99124 24.7923V20.4446C5.99124 20.2454 6.15531 20.093 6.35453 20.093C6.54203 20.093 6.70609 20.2454 6.70609 20.4446V24.7923C6.70609 25.3665 7.1514 25.8235 7.73734 25.8235C8.31156 25.8235 8.76859 25.3665 8.76859 24.7923V20.4446H10.1983C10.7842 20.4446 11.0303 19.9524 10.8545 19.3899L8.70999 12.5344C8.55765 12.0305 9.23734 11.8313 9.38968 12.3469L10.7256 16.6243C11.1358 17.9368 13.0459 17.4212 12.6358 16.0852L11.3936 12.1243C10.585 9.5227 9.72953 7.99927 6.70609 7.99927H5.99124C2.96781 7.99927 2.10062 9.5227 1.29203 12.1243L0.0615533 16.0852C-0.348603 17.4212 1.54984 17.9368 1.97171 16.6243L3.30765 12.3469C3.45999 11.8313 4.13968 12.0305 3.97562 12.5344L1.84281 19.3899C1.66703 19.9524 1.91312 20.4446 2.48734 20.4446H3.91703V24.7923C3.91703 25.3665 4.38578 25.8235 4.95999 25.8235Z" fill="black" fill-opacity="0.85"/>
</g>
<defs>
<clipPath id="clip0_2124_45834">
<rect width="31.2998" height="28.1367" fill="white" transform="translate(0.00390625 0.00708008)"/>
</clipPath>
</defs>
</svg>
