<svg width="29" height="29" viewBox="0 0 29 29" fill="none" xmlns="http://www.w3.org/2000/svg">
<g clip-path="url(#clip0_2124_45849)">
<path d="M13.9648 25.9245C20.5039 25.9245 25.9179 20.4988 25.9179 13.9714C25.9179 7.43237 20.4922 2.01831 13.9531 2.01831C7.42578 2.01831 2.01172 7.43237 2.01172 13.9714C2.01172 20.4988 7.4375 25.9245 13.9648 25.9245ZM13.9648 23.9324C8.4336 23.9324 4.01563 19.5027 4.01563 13.9714C4.01563 8.44019 8.42188 4.0105 13.9531 4.0105C19.4844 4.0105 23.9258 8.44019 23.9258 13.9714C23.9258 19.5027 19.4961 23.9324 13.9648 23.9324Z" fill="black" fill-opacity="0.85"/>
<path d="M12.8859 21.9167C13.3312 21.9167 13.6476 21.6355 13.6476 21.0964V16.2917C13.6476 16.0456 13.7531 15.905 13.9523 15.905C14.1281 15.905 14.2336 16.0339 14.2336 16.2917V21.0964C14.2336 21.6355 14.5734 21.9167 15.0304 21.9167C15.4757 21.9167 15.7804 21.6355 15.7804 21.0964V12.7175C15.7804 12.53 15.8976 12.4011 16.05 12.4011C16.2023 12.4011 16.2961 12.5183 16.2961 12.7175V16.1394C16.2961 16.6199 16.6007 16.8894 17.0226 16.8894C17.4211 16.8894 17.7023 16.6199 17.7023 16.1394V12.905C17.7023 10.8074 16.5187 10.2332 13.964 10.2332H12.9797C12.4992 10.2332 12.2765 10.1394 11.9132 9.89332L10.8937 9.16676L10.7414 6.83473C10.7062 6.34254 10.4015 6.09644 9.99136 6.11988C9.5812 6.15504 9.31167 6.42457 9.34683 6.92848L9.48745 9.26051C9.52261 9.76441 9.75698 10.0691 10.0851 10.3035L11.7726 11.5574C12.007 11.7214 12.1007 11.9089 12.1007 12.1785V21.0964C12.1007 21.6355 12.4289 21.9167 12.8859 21.9167ZM13.964 9.54176C14.8078 9.54176 15.4992 8.83863 15.4992 8.04176C15.4992 7.18629 14.8078 6.5066 13.964 6.5066C13.1086 6.5066 12.4523 7.18629 12.4523 8.04176C12.4523 8.83863 13.1086 9.54176 13.964 9.54176Z" fill="black" fill-opacity="0.85"/>
</g>
<defs>
<clipPath id="clip0_2124_45849">
<rect width="23.9062" height="23.918" fill="white" transform="translate(2.01172 2.01831)"/>
</clipPath>
</defs>
</svg>
