<svg width="29" height="28" viewBox="0 0 29 28" fill="none" xmlns="http://www.w3.org/2000/svg">
<g clip-path="url(#clip0_2124_50197)">
<path d="M5.90625 25.1367H21.1641C25.1133 25.1367 28.1719 22.1484 28.1719 18.3281C28.1719 14.4727 25.0547 11.5664 20.7891 11.5664C19.2305 8.47266 16.3711 6.58594 12.9023 6.58594C8.35547 6.58594 4.5 10.1133 4.08984 14.7891C1.74609 15.457 0.164062 17.4258 0.164062 19.9102C0.164062 22.8047 2.26172 25.1367 5.90625 25.1367ZM1.64062 13.6641C2.54297 13.6641 3.26953 12.9375 3.26953 12.0234C3.26953 11.1211 2.54297 10.3945 1.64062 10.3945C0.726562 10.3945 0 11.1211 0 12.0234C0 12.9375 0.726562 13.6641 1.64062 13.6641ZM18.8203 6.08203C19.6641 6.08203 20.3555 5.39062 20.3555 4.54688C20.3555 3.70312 19.6641 3 18.8203 3C17.9766 3 17.2852 3.70312 17.2852 4.54688C17.2852 5.39062 17.9766 6.08203 18.8203 6.08203ZM23.7539 10.1367C25.0195 10.1367 26.0391 9.11719 26.0391 7.82812C26.0391 6.55078 25.0195 5.53125 23.7539 5.53125C22.4648 5.53125 21.4336 6.55078 21.4336 7.82812C21.4336 9.11719 22.4648 10.1367 23.7539 10.1367Z" fill="black" fill-opacity="0.85"/>
<path d="M10.0547 21.2109C7.96875 21.2109 7.14844 19.4062 7.14844 17.3438C7.14844 15.2461 8.03906 13.5234 10.0195 13.5234C11.5898 13.5234 12.5625 14.6484 12.5977 15.8789C12.6094 16.3125 12.3516 16.5938 11.9766 16.5938C11.6133 16.5938 11.4258 16.3945 11.3203 15.9727C11.1914 15.3633 10.8633 14.7305 10.043 14.7305C8.88281 14.7305 8.48438 16.043 8.48438 17.3438C8.48438 18.7266 8.85938 20.0039 10.0547 20.0039C10.875 20.0039 11.2266 19.3594 11.3555 18.75C11.4609 18.3281 11.6484 18.1289 12.0117 18.1289C12.3867 18.1289 12.6445 18.4219 12.6328 18.8438C12.5977 20.0742 11.625 21.2109 10.0547 21.2109ZM16.0195 21.2109C14.25 21.2109 13.1367 19.7109 13.1367 17.3672C13.1367 15.0117 14.25 13.5234 16.0078 13.5234C17.7773 13.5234 18.8789 15.0117 18.8789 17.3672C18.8789 19.7109 17.7773 21.2109 16.0195 21.2109ZM19.8047 21.668C19.5703 21.668 19.3945 21.4805 19.3945 21.2344C19.3945 21.0938 19.4648 20.9062 19.5703 20.8008L20.5078 19.8516C20.7656 19.582 21.0352 19.2656 21.0352 18.9961C21.0352 18.8203 20.9062 18.6914 20.7188 18.6914C20.5312 18.6914 20.4141 18.8086 20.3438 19.043C20.2617 19.207 20.1328 19.418 19.8398 19.418C19.5938 19.418 19.3828 19.2305 19.3828 18.9258C19.3828 18.4102 19.8867 17.7891 20.707 17.7891C21.4805 17.7891 22.043 18.293 22.043 18.9727C22.043 19.4531 21.7031 19.8984 21.2227 20.3672L20.8359 20.7773H21.7617C21.9961 20.7773 22.1953 20.9883 22.1953 21.2109C22.1953 21.457 22.0078 21.668 21.7617 21.668H19.8047ZM16.0195 20.0039C16.9688 20.0039 17.5547 19.0312 17.5547 17.3672C17.5547 15.7031 16.9688 14.7305 16.0078 14.7305C15.0586 14.7305 14.4727 15.7031 14.4727 17.3672C14.4727 19.0312 15.0586 20.0039 16.0195 20.0039Z" fill="white"/>
</g>
<defs>
<clipPath id="clip0_2124_50197">
<rect width="28.1719" height="22.1602" fill="white" transform="translate(0 3)"/>
</clipPath>
</defs>
</svg>
