<svg width="28" height="28" viewBox="0 0 28 28" fill="none" xmlns="http://www.w3.org/2000/svg">
<g clip-path="url(#clip0_2124_24736)">
<path d="M16.1748 13.8477C16.1748 20.7734 18.3662 25.3906 21.5772 25.3906C24.7881 25.3906 26.9795 20.7734 26.9795 13.8477C26.9795 6.92188 24.7881 2.29297 21.5772 2.29297C18.3662 2.29297 16.1748 6.92188 16.1748 13.8477ZM9.95215 13.8477C9.95215 21.2188 12.0029 25.6953 16.9131 25.6953H18.2373C17.2529 24.8281 16.4326 23.5625 15.835 21.957H14.2529C13.8311 21.957 13.4795 21.6055 13.4795 21.1836C13.4795 20.7617 13.8311 20.4219 14.2529 20.4219H15.3428C15.1553 19.7422 15.0147 19.0156 14.9092 18.3594H13.4561C13.0342 18.3594 12.6826 18.0195 12.6826 17.5977C12.6826 17.1758 13.0342 16.8242 13.4561 16.8242H14.7217C14.6397 16.0625 14.5928 15.1953 14.5811 14.4688H13.1514C12.7295 14.4688 12.3897 14.1289 12.3897 13.707C12.3897 13.2852 12.7295 12.9336 13.1514 12.9336H14.5928C14.6045 12.1602 14.6514 11.3516 14.7451 10.5898H13.4561C13.0342 10.5898 12.6826 10.2383 12.6826 9.81641C12.6826 9.39453 13.0342 9.05469 13.4561 9.05469H14.9561C15.0733 8.32812 15.2256 7.64844 15.4248 6.99219H14.2529C13.8311 6.99219 13.4795 6.65234 13.4795 6.23047C13.4795 5.80859 13.8311 5.45703 14.2529 5.45703H15.9404C16.5264 3.98047 17.3115 2.80859 18.2373 2H16.9131C12.0029 2 9.95215 6.46484 9.95215 13.8477Z" fill="black" fill-opacity="0.85"/>
<path d="M4.63184 4.20312C4.28028 4.20312 3.917 4.36719 3.77638 4.77734C2.92091 7.16797 2.45216 9.73439 2.45216 12.5234C2.45216 15.3008 2.90919 17.8789 3.77638 20.2695L5.44044 19.6719C4.63184 17.4688 4.22169 15.1016 4.22169 12.5234C4.22169 9.9336 4.63184 7.57812 5.44044 5.37501C5.70997 4.66017 5.18263 4.20312 4.63184 4.20312ZM1.56153 19.2852C0.846688 19.543 0.834969 20.4688 1.40919 20.8203L5.10059 23.1055C5.6045 23.4102 6.167 23.1992 6.34278 22.6484L7.71388 18.5586C7.92481 17.9258 7.36231 17.1758 6.60059 17.4453L1.56153 19.2852Z" fill="black" fill-opacity="0.85"/>
</g>
<defs>
<clipPath id="clip0_2124_24736">
<rect width="25.9795" height="23.707" fill="white" transform="translate(1 2)"/>
</clipPath>
</defs>
</svg>
