<svg width="29" height="28" viewBox="0 0 29 28" fill="none" xmlns="http://www.w3.org/2000/svg">
<g clip-path="url(#clip0_2124_24841)">
<path d="M0 15.1328H12.1758V13.1875H0V15.1328ZM11.6836 18.332H21.7266C22.7578 18.332 23.168 17.9102 23.168 16.8906V11.4297C23.168 10.4102 22.7578 10 21.7266 10H11.6836C10.6523 10 10.2422 10.4102 10.2422 11.4297V16.8906C10.2422 17.9102 10.6523 18.332 11.6836 18.332Z" fill="black" fill-opacity="0.85"/>
<path d="M24.5273 16.6563H27.5625C28.582 16.6563 28.9922 16.2344 28.9922 15.2031V13.1172C28.9922 12.0977 28.582 11.6758 27.5625 11.6758H24.5273V16.6563Z" fill="black" fill-opacity="0.85"/>
</g>
<defs>
<clipPath id="clip0_2124_24841">
<rect width="28.9922" height="8.33203" fill="white" transform="translate(0 10)"/>
</clipPath>
</defs>
</svg>
