<svg width="28" height="28" viewBox="0 0 28 28" fill="none" xmlns="http://www.w3.org/2000/svg">
<path d="M13.9531 25.9062C20.4922 25.9062 25.9062 20.4805 25.9062 13.9531C25.9062 7.41406 20.4805 2 13.9414 2C7.41406 2 2 7.41406 2 13.9531C2 20.4805 7.42578 25.9062 13.9531 25.9062ZM13.9531 23.9141C8.42188 23.9141 4.00391 19.4844 4.00391 13.9531C4.00391 8.42188 8.41016 3.99219 13.9414 3.99219C19.4727 3.99219 23.9141 8.42188 23.9141 13.9531C23.9141 19.4844 19.4844 23.9141 13.9531 23.9141Z" fill="black" fill-opacity="0.85"/>
<path d="M9.41797 14.0703C9.41797 14.3867 9.66406 14.6562 9.98047 14.6562H10.7305V19.0039C10.7305 19.4727 11.0469 19.7656 11.4922 19.7656C11.9375 19.7656 12.2422 19.4727 12.2422 19.0039V14.6562H12.793L16.5781 19.4141C16.7773 19.6719 16.9766 19.7656 17.1992 19.7656C17.5977 19.7656 17.9141 19.4609 17.9141 19.0742C17.9141 18.9219 17.8555 18.7344 17.7266 18.5586L14.5742 14.6562H17.5977C17.9375 14.6562 18.1719 14.3867 18.1719 14.0703C18.1719 13.7305 17.9375 13.4961 17.5977 13.4961H14.5625L17.7148 9.62891C17.8438 9.46484 17.9141 9.27734 17.9141 9.125C17.9141 8.73828 17.6094 8.43359 17.1992 8.43359C16.9766 8.43359 16.7773 8.52734 16.5781 8.79688L12.7812 13.4961H12.2422V9.21875C12.2422 8.73828 11.9492 8.45703 11.4922 8.45703C11.0352 8.45703 10.7305 8.73828 10.7305 9.21875V13.4961H9.98047C9.66406 13.4961 9.41797 13.7305 9.41797 14.0703Z" fill="black" fill-opacity="0.85"/>
</svg>
