<svg width="32" height="28" viewBox="0 0 32 28" fill="none" xmlns="http://www.w3.org/2000/svg">
<path d="M12.8203 23.1211V4.42969C12.8203 3.64453 12.2461 3 11.4258 3C10.8516 3 10.4648 3.24609 9.84375 3.83203L0.585938 12.4805C0.140625 12.9141 0 13.3477 0 13.7461C0 14.1328 0.140625 14.5781 0.585938 15L9.84375 23.7305C10.4062 24.2578 10.875 24.4922 11.4492 24.4922C12.2461 24.4922 12.8203 23.9062 12.8203 23.1211ZM2.09766 13.7461C2.09766 13.6758 2.13281 13.6055 2.22656 13.5234L10.5703 5.51953C10.6289 5.47266 10.6992 5.42578 10.7695 5.42578C10.875 5.42578 10.9336 5.49609 10.9336 5.58984V21.7969C10.9336 21.9023 10.875 21.9727 10.7695 21.9727C10.7109 21.9727 10.6406 21.9375 10.5703 21.8672L2.22656 13.9688C2.13281 13.875 2.09766 13.8164 2.09766 13.7461Z" fill="black" fill-opacity="0.85"/>
<path d="M17.2852 24.4922C18.082 24.4922 18.6562 23.9062 18.6562 23.1211V18.6445H18.9961C23.543 18.6445 26.4023 19.793 28.4531 23.625C28.8633 24.375 29.4023 24.4922 29.8945 24.4922C30.5156 24.4922 31.1016 23.9297 31.1016 22.9219C31.1016 14.2617 27.4219 8.85938 18.9961 8.85938H18.6562V4.42969C18.6562 3.64453 18.082 3 17.2617 3C16.6875 3 16.3008 3.24609 15.6797 3.83203L6.43359 12.4805C5.97656 12.9141 5.83594 13.3477 5.83594 13.7461C5.83594 14.1328 5.98828 14.5781 6.43359 15L15.6797 23.7305C16.2422 24.2578 16.7109 24.4922 17.2852 24.4922Z" fill="white"/>
<path d="M17.2852 24.4922C18.082 24.4922 18.6562 23.9062 18.6562 23.1211V18.6445H18.9961C23.543 18.6445 26.4023 19.793 28.4531 23.625C28.8633 24.375 29.4023 24.4922 29.8945 24.4922C30.5156 24.4922 31.1016 23.9297 31.1016 22.9219C31.1016 14.2617 27.4219 8.85938 18.9961 8.85938H18.6562V4.42969C18.6562 3.64453 18.082 3 17.2617 3C16.6875 3 16.3008 3.24609 15.6797 3.83203L6.43359 12.4805C5.97656 12.9141 5.83594 13.3477 5.83594 13.7461C5.83594 14.1328 5.98828 14.5781 6.43359 15L15.6797 23.7305C16.2422 24.2578 16.7109 24.4922 17.2852 24.4922ZM16.6172 21.9727C16.5469 21.9727 16.4766 21.9375 16.4062 21.8672L8.0625 13.9688C7.96875 13.875 7.93359 13.8164 7.93359 13.7461C7.93359 13.6758 7.96875 13.6055 8.0625 13.5234L16.4062 5.51953C16.4648 5.47266 16.5352 5.42578 16.6055 5.42578C16.7109 5.42578 16.7695 5.49609 16.7695 5.58984V10.2422C16.7695 10.5117 16.8984 10.6289 17.168 10.6289H18.7383C26.7773 10.6289 29.2031 16.207 29.4375 21.7383C29.4375 21.832 29.4023 21.8672 29.3438 21.8672C29.2969 21.8672 29.2734 21.832 29.2383 21.75C27.8555 18.8086 24.3047 16.875 18.7383 16.875H17.168C16.8984 16.875 16.7695 16.9922 16.7695 17.2617V21.7969C16.7695 21.9023 16.7109 21.9727 16.6172 21.9727Z" fill="black" fill-opacity="0.85"/>
</svg>
