<svg width="28" height="28" viewBox="0 0 28 28" fill="none" xmlns="http://www.w3.org/2000/svg">
<path d="M13.9531 25.9062C20.4922 25.9062 25.9062 20.4805 25.9062 13.9531C25.9062 7.41406 20.4805 2 13.9414 2C7.41406 2 2 7.41406 2 13.9531C2 20.4805 7.42578 25.9062 13.9531 25.9062ZM13.9531 23.9141C8.42188 23.9141 4.00391 19.4844 4.00391 13.9531C4.00391 8.42188 8.41016 3.99219 13.9414 3.99219C19.4727 3.99219 23.9141 8.42188 23.9141 13.9531C23.9141 19.4844 19.4844 23.9141 13.9531 23.9141Z" fill="black" fill-opacity="0.85"/>
<path d="M9.04297 18.8047H18.8398C20.0117 18.8047 20.6094 18.2188 20.6094 17.0469V12.6875H7.27344V17.0469C7.27344 18.2188 7.87109 18.8047 9.04297 18.8047ZM9.59375 17.0469C9.26562 17.0469 9.04297 16.8242 9.04297 16.5078V15.4531C9.04297 15.1367 9.26562 14.9141 9.59375 14.9141H10.9883C11.3164 14.9141 11.5391 15.1367 11.5391 15.4531V16.5078C11.5391 16.8242 11.3164 17.0469 10.9883 17.0469H9.59375ZM7.27344 11.3984H20.6094V10.8711C20.6094 9.71094 20.0117 9.125 18.8398 9.125H9.04297C7.87109 9.125 7.27344 9.69922 7.27344 10.8711V11.3984Z" fill="black" fill-opacity="0.85"/>
</svg>
