<svg width="28" height="28" viewBox="0 0 28 28" fill="none" xmlns="http://www.w3.org/2000/svg">
<g clip-path="url(#clip0_2124_24673)">
<path d="M9.1875 26.8086H17.8828C19.793 26.8086 21.0703 25.5898 21.0703 23.7617V5.04688C21.0703 3.21875 19.793 2 17.8828 2H9.1875C7.27734 2 6 3.21875 6 5.04688V23.7617C6 25.5898 7.27734 26.8086 9.1875 26.8086ZM9.43359 24.9219C8.4375 24.9219 7.88672 24.3945 7.88672 23.457V5.35156C7.88672 4.41406 8.4375 3.88672 9.43359 3.88672H17.6484C18.6328 3.88672 19.1836 4.41406 19.1836 5.35156V23.457C19.1836 24.3945 18.6328 24.9219 17.6484 24.9219H9.43359Z" fill="black" fill-opacity="0.85"/>
<path d="M13.5469 18.7578C15.9492 18.7578 17.9062 16.8008 17.9062 14.3984C17.9062 11.9961 15.9492 10.0391 13.5469 10.0391C11.1445 10.0391 9.1875 11.9961 9.1875 14.3984C9.1875 16.8008 11.1445 18.7578 13.5469 18.7578Z" fill="black" fill-opacity="0.85"/>
</g>
<defs>
<clipPath id="clip0_2124_24673">
<rect width="15.0703" height="24.832" fill="white" transform="translate(6 2)"/>
</clipPath>
</defs>
</svg>
