<svg width="28" height="28" viewBox="0 0 28 28" fill="none" xmlns="http://www.w3.org/2000/svg">
<path d="M13.9531 25.9062C20.4922 25.9062 25.9062 20.4805 25.9062 13.9531C25.9062 7.41406 20.4805 2 13.9414 2C7.41406 2 2 7.41406 2 13.9531C2 20.4805 7.42578 25.9062 13.9531 25.9062Z" fill="black" fill-opacity="0.85"/>
<path d="M11.2109 18.9922C10.8242 18.9922 10.3789 18.7695 10.3789 18.1367V16.9297H7.67188C7.08594 16.9297 6.67578 16.5312 6.67578 15.9453C6.67578 15.5703 6.75781 15.2539 6.94531 14.7852L9.10156 10.0977C9.44141 9.34766 9.83984 8.91406 10.707 8.91406C11.4922 8.91406 12.043 9.38281 12.043 10.2266V15.5234H12.4766C12.957 15.5234 13.168 15.8281 13.168 16.2148C13.168 16.625 12.9336 16.9297 12.4766 16.9297H12.043V18.1367C12.043 18.7109 11.668 18.9922 11.2109 18.9922ZM10.4141 15.5586V10.4375H10.3672L8.17578 15.4766V15.5586H10.4141ZM17.5273 19.0859C15.125 19.0859 14.3984 16.3906 14.3984 13.9531C14.3984 11.5156 15.125 8.82031 17.5273 8.82031C19.9414 8.82031 20.668 11.5156 20.668 13.9531C20.668 16.3906 19.9414 19.0859 17.5273 19.0859ZM17.5273 17.6445C18.5117 17.6445 18.8867 16.0508 18.8867 13.9531C18.8867 11.8438 18.5117 10.2617 17.5273 10.2617C16.543 10.2617 16.168 11.8438 16.168 13.9531C16.168 16.0508 16.543 17.6445 17.5273 17.6445Z" fill="white"/>
</svg>
