<svg width="36" height="28" viewBox="0 0 36 28" fill="none" xmlns="http://www.w3.org/2000/svg">
<path d="M25.1953 24.3306H34.8047L32.1914 11.8149C32.0039 10.8657 31.4648 10.4204 30.5742 10.4204H29.4023C28.5 10.4204 27.9609 10.8657 27.7617 11.8149L25.1953 24.3306ZM25.043 25.5024H34.9219C35.4141 25.5024 35.8125 25.104 35.8125 24.6118C35.8125 24.1196 35.4141 23.7329 34.9219 23.7329H25.043C24.5508 23.7329 24.1641 24.1196 24.1641 24.6118C24.1641 25.104 24.5508 25.5024 25.043 25.5024Z" fill="black" fill-opacity="0.85"/>
<path d="M20.5434 18.354C20.9301 18.7876 21.5746 18.7876 22.0316 18.2954C23.977 16.186 25.0785 13.3735 25.0785 10.3384C25.0785 7.30323 23.977 4.49073 22.0316 2.38135C21.5746 1.88917 20.9301 1.87745 20.5434 2.32276C20.1684 2.74463 20.2856 3.29542 20.7074 3.77589C22.2895 5.52198 23.1684 7.81885 23.1684 10.3384C23.1684 12.8579 22.2895 15.1548 20.7074 16.9009C20.2856 17.3814 20.1684 17.9321 20.5434 18.354Z" fill="black" fill-opacity="0.85"/>
<path d="M17.2618 15.0142C17.6485 15.4478 18.3517 15.4595 18.7735 14.9321C19.7931 13.6665 20.379 12.061 20.379 10.3384C20.379 8.61576 19.7931 7.01029 18.7735 5.74467C18.3517 5.21732 17.6485 5.21732 17.2618 5.66263C16.8868 6.08451 17.0509 6.61185 17.4142 7.11576C18.1173 7.98295 18.4689 9.11967 18.4689 10.3384C18.4689 11.5572 18.1173 12.6821 17.4142 13.561C17.0509 14.0649 16.8868 14.5923 17.2618 15.0142Z" fill="black" fill-opacity="0.85"/>
<path d="M1.44141 25.5024C2.32031 25.5024 2.89453 24.9048 2.89453 24.0142V17.3931H7.67578C11.9062 17.3931 14.8477 14.4868 14.8477 10.3384C14.8477 6.1665 11.918 3.29541 7.6875 3.29541H1.44141C0.574219 3.29541 0 3.88134 0 4.78369V24.0142C0 24.9165 0.574219 25.5024 1.44141 25.5024ZM2.89453 14.7212V5.94384H7.14844C10.1602 5.94384 11.8945 7.53759 11.8945 10.3384C11.8945 13.1157 10.1602 14.7212 7.14844 14.7212H2.89453Z" fill="black" fill-opacity="0.85"/>
</svg>
