<svg width="28" height="28" viewBox="0 0 28 28" fill="none" xmlns="http://www.w3.org/2000/svg">
<path d="M6.67969 24.5977H20.8945C23.3555 24.5977 24.5742 23.3789 24.5742 20.9648V6.65625C24.5742 4.24219 23.3555 3.02344 20.8945 3.02344H6.67969C4.23047 3.02344 3 4.23047 3 6.65625V20.9648C3 23.3906 4.23047 24.5977 6.67969 24.5977Z" fill="black" fill-opacity="0.85"/>
<path d="M9.12891 13.9102C9.12891 13.5586 9.38672 13.3125 9.71484 13.3125H10.4766V8.90625C10.4766 8.40234 10.793 8.10938 11.2734 8.10938C11.7422 8.10938 12.0469 8.40234 12.0469 8.90625V13.3125H12.5977L16.5117 8.47266C16.7227 8.19141 16.9336 8.08594 17.168 8.08594C17.5898 8.08594 17.9062 8.40234 17.9062 8.8125C17.9062 8.96484 17.8359 9.16406 17.6953 9.32812L14.4492 13.3125H17.5781C17.9297 13.3125 18.1641 13.5586 18.1641 13.9102C18.1641 14.2383 17.9297 14.5195 17.5781 14.5195H14.4609L17.707 18.5391C17.8359 18.7148 17.918 18.9141 17.918 19.0664C17.918 19.4766 17.5781 19.793 17.1562 19.793C16.9336 19.793 16.7227 19.6875 16.5117 19.418L12.6211 14.5195H12.0469V18.9961C12.0469 19.4883 11.7305 19.793 11.2734 19.793C10.8047 19.793 10.4766 19.4883 10.4766 18.9961V14.5195H9.71484C9.38672 14.5195 9.12891 14.2383 9.12891 13.9102Z" fill="white"/>
</svg>
