<svg width="28" height="28" viewBox="0 0 28 28" fill="none" xmlns="http://www.w3.org/2000/svg">
<path d="M14.0117 3C13.7422 3 13.4961 3.10547 13.2148 3.33984L5.31641 9.76172C5.11719 9.92578 5 10.1719 5 10.5234C5 11.1328 5.45703 11.6016 6.06641 11.6016C6.32422 11.6016 6.57031 11.5078 6.85156 11.2852L14.0117 5.46094L21.1719 11.2852C21.4414 11.5078 21.6992 11.6016 21.9453 11.6016C22.5664 11.6016 23.0234 11.1328 23.0234 10.5234C23.0234 10.1719 22.9062 9.92578 22.707 9.76172L14.8086 3.33984C14.5273 3.10547 14.2695 3 14.0117 3ZM14.0117 25.5469C14.2695 25.5469 14.5273 25.4414 14.8086 25.207L22.707 18.7852C22.9062 18.6211 23.0234 18.375 23.0234 18.0117C23.0234 17.4023 22.5664 16.9453 21.9453 16.9453C21.6992 16.9453 21.4414 17.0391 21.1719 17.2617L14.0117 23.0859L6.85156 17.2617C6.57031 17.0391 6.32422 16.9453 6.06641 16.9453C5.45703 16.9453 5 17.4023 5 18.0117C5 18.375 5.11719 18.6211 5.31641 18.7852L13.2148 25.207C13.4961 25.4297 13.7422 25.5469 14.0117 25.5469Z" fill="black" fill-opacity="0.85"/>
</svg>
