<svg width="28" height="32" viewBox="0 0 28 32" fill="none" xmlns="http://www.w3.org/2000/svg">
<g clip-path="url(#clip0_2124_24746)">
<path d="M0 7.875V23.9297C0 27.4805 2.17969 30.1641 5.68359 30.1641C9.17578 30.1641 11.3555 27.4805 11.3555 23.9297V7.875C11.3555 4.32422 9.17578 1.64062 5.68359 1.64062C2.17969 1.64062 0 4.32422 0 7.875Z" fill="black" fill-opacity="0.85"/>
<path d="M3.03516 7.875V23.9297C3.03516 28.4062 5.92969 31.8047 10.3359 31.8047C14.7422 31.8047 17.6367 28.4062 17.6367 23.9297V7.875C17.6367 3.38672 14.7422 0 10.3359 0C5.92969 0 3.03516 3.38672 3.03516 7.875Z" fill="white"/>
<path d="M4.64062 7.875V23.9297C4.64062 27.5742 6.85548 30.1992 10.3359 30.1992C13.8164 30.1992 16.0312 27.5742 16.0312 23.9297V7.875C16.0312 4.21875 13.8164 1.59375 10.3359 1.59375C6.85548 1.59375 4.64062 4.21875 4.64062 7.875Z" fill="black" fill-opacity="0.85"/>
<path d="M12.5508 17.8125L16.0898 20.9531C17.8008 22.5 20.4492 21.4102 20.4492 19.0312V18.5039H25.1836C26.625 18.5039 27.7852 17.3438 27.7852 15.9141C27.7852 14.4609 26.625 13.3125 25.1836 13.3125H20.4492V12.7617C20.4492 10.4297 17.8359 9.28125 16.1016 10.8281L12.5508 13.9805C11.3672 15.0352 11.3555 16.7461 12.5508 17.8125Z" fill="white"/>
<path d="M13.6172 16.6172L17.168 19.7578C17.8477 20.3789 18.8438 20.0273 18.8438 19.0312V16.9102H25.1836C25.7461 16.9102 26.1797 16.4648 26.1797 15.9141C26.1797 15.3398 25.7461 14.9062 25.1836 14.9062H18.8438V12.7617C18.8438 11.8008 17.8828 11.3906 17.168 12.0234L13.6172 15.1758C13.125 15.5977 13.125 16.1836 13.6172 16.6172Z" fill="black" fill-opacity="0.85"/>
</g>
<defs>
<clipPath id="clip0_2124_24746">
<rect width="27.7852" height="31.8398" fill="white"/>
</clipPath>
</defs>
</svg>
