<svg width="28" height="28" viewBox="0 0 28 28" fill="none" xmlns="http://www.w3.org/2000/svg">
<g clip-path="url(#clip0_2124_88844)">
<path d="M6.79174 10.7305H8.67846V9.05469C8.67846 6.125 11.0339 3.88672 14.1042 3.88672C17.1746 3.88672 19.53 6.125 19.53 9.05469V10.7305H21.4167V9.05469C21.4167 5.05859 18.2527 2 14.1042 2C9.96753 2 6.79174 5.05859 6.79174 9.05469V10.7305ZM14.1042 16.3203C18.0183 16.3203 21.4871 14.7734 23.4792 10.7422C22.9636 10.4375 22.3308 10.2969 21.5925 10.2969H6.61596C5.87768 10.2969 5.24487 10.4375 4.72924 10.7422C6.73315 14.7734 10.1902 16.3203 14.1042 16.3203ZM26.1511 22.2031L25.1433 13.5312C25.073 12.957 24.9324 12.5 24.698 12.1016C22.7292 15.6641 19.7058 17.457 16.448 18.0195V18.8516C16.448 19.6484 15.9792 20.0938 15.1824 20.0938H13.0261C12.2292 20.0938 11.7605 19.6484 11.7605 18.8516V18.0195C8.50268 17.457 5.47924 15.6758 3.51049 12.1133C3.28784 12.5 3.14721 12.957 3.0769 13.5312L2.05737 22.2031C1.69409 25.25 3.06518 26.9141 5.91284 26.9141H22.2957C25.155 26.9141 26.5144 25.25 26.1511 22.2031Z" fill="black" fill-opacity="0.85"/>
</g>
<defs>
<clipPath id="clip0_2124_88844">
<rect width="24.2088" height="24.9258" fill="white" transform="translate(2 2)"/>
</clipPath>
</defs>
</svg>
