<svg width="28" height="28" viewBox="0 0 28 28" fill="none" xmlns="http://www.w3.org/2000/svg">
<path d="M13.9531 25.9062C20.4922 25.9062 25.9062 20.4805 25.9062 13.9531C25.9062 7.41406 20.4805 2 13.9414 2C7.41406 2 2 7.41406 2 13.9531C2 20.4805 7.42578 25.9062 13.9531 25.9062Z" fill="black" fill-opacity="0.85"/>
<path d="M8.5625 13.9531C8.07031 13.9531 7.68359 13.5664 7.68359 13.0742V8.72656C7.68359 7.97656 8.05859 7.68359 8.71484 7.68359H13.0508C13.543 7.68359 13.9297 8.08203 13.9297 8.57422C13.9297 9.06641 13.543 9.45312 13.0508 9.45312H12.4414L10.543 9.33594L13.332 11.9961C13.6953 12.3477 13.707 12.9688 13.3438 13.332C12.9805 13.707 12.3711 13.7188 12.0078 13.3203L9.32422 10.5078L9.45312 12.4648V13.0742C9.45312 13.5664 9.05469 13.9531 8.5625 13.9531ZM14.8672 20.2461C14.375 20.2461 13.9766 19.8477 13.9766 19.3555C13.9766 18.8633 14.375 18.4766 14.8672 18.4766H15.4766L17.375 18.5938L14.5742 15.9336C14.2109 15.582 14.1992 14.9609 14.5625 14.5977C14.9375 14.2227 15.5352 14.2109 15.9102 14.6094L18.582 17.4219L18.4648 15.4648V14.8555C18.4648 14.3633 18.8516 13.9766 19.3438 13.9766C19.8359 13.9766 20.2344 14.3633 20.2344 14.8555V19.2031C20.2344 19.9531 19.8477 20.2461 19.1914 20.2461H14.8672Z" fill="white"/>
</svg>
