<svg width="28" height="28" viewBox="0 0 28 28" fill="none" xmlns="http://www.w3.org/2000/svg">
<path d="M9.83203 24.4375H17.2031C24 24.4375 27.0352 21.3086 27.0352 14.9102V7.55078C27.0352 5.19531 25.8164 4 23.4375 4H3.59766C1.21875 4 0 5.19531 0 7.55078V14.9102C0 21.3086 3.03516 24.4375 9.83203 24.4375Z" fill="black" fill-opacity="0.85"/>
<path d="M8.68359 18.9297C8.15625 18.9297 7.85156 18.6016 7.85156 18.0508V10.2461C7.85156 9.77734 8.25 9.39062 8.70703 9.39062C9.15234 9.39062 9.55078 9.77734 9.55078 10.2461V17.5117H12.0234C12.4102 17.5117 12.7383 17.8281 12.7383 18.2266C12.7383 18.6133 12.4102 18.9297 12.0234 18.9297H8.68359ZM14.7773 18.9414C14.2383 18.9414 13.9336 18.5898 13.9336 18.0508V10.4336C13.9336 9.92969 14.2266 9.54297 14.7773 9.54297H17.168C18.5391 9.54297 19.5352 10.3984 19.5352 11.8867C19.5352 12.8008 18.9258 13.7852 18.0469 13.9375V14.0078C19.1484 14.1133 19.8398 15.1562 19.8398 16.293C19.8398 17.8398 18.8789 18.9414 17.25 18.9414H14.7773ZM15.5977 13.5273H16.5469C17.4141 13.5273 17.9062 13 17.9062 12.1445C17.9062 11.3945 17.5664 10.8438 16.6875 10.8438H15.5977V13.5273ZM15.5977 17.6523H16.7227C17.6602 17.6523 18.1172 17.0898 18.1172 16.1406C18.1172 15.1328 17.5312 14.6758 16.6875 14.6758H15.5977V17.6523Z" fill="white"/>
</svg>
