<svg width="29" height="29" viewBox="0 0 29 29" fill="none" xmlns="http://www.w3.org/2000/svg">
<g clip-path="url(#clip0_2124_45962)">
<path d="M13.9609 25.9118C20.5 25.9118 25.914 20.4861 25.914 13.9587C25.914 7.41968 20.4883 2.00562 13.9492 2.00562C7.42187 2.00562 2.00781 7.41968 2.00781 13.9587C2.00781 20.4861 7.43359 25.9118 13.9609 25.9118ZM13.9609 23.9197C8.42969 23.9197 4.01172 19.49 4.01172 13.9587C4.01172 8.4275 8.41797 3.99781 13.9492 3.99781C19.4805 3.99781 23.9219 8.4275 23.9219 13.9587C23.9219 19.49 19.4922 23.9197 13.9609 23.9197Z" fill="black" fill-opacity="0.85"/>
<path d="M13.9734 9.95093C14.8641 9.95093 15.5672 9.23609 15.5672 8.35718C15.5672 7.46656 14.8641 6.75171 13.9734 6.75171C13.0945 6.75171 12.368 7.46656 12.368 8.35718C12.368 9.23609 13.0945 9.95093 13.9734 9.95093ZM13.9617 15.6345C14.1727 15.6345 14.3367 15.7634 14.407 16.0095L15.4969 20.1931C15.7313 21.1306 17.0203 20.8025 16.8914 19.9236C16.8328 19.572 15.8953 16.0329 15.7664 15.2361C15.6609 14.6501 15.7078 13.1736 15.7078 12.5056C15.7078 12.3064 15.8719 12.2009 16.0711 12.2829L17.9344 13.0329C18.4266 13.2322 18.7781 12.9861 18.8719 12.6462C18.9774 12.3298 18.8367 11.9431 18.368 11.7556L16.3758 10.9236C15.907 10.7478 15.4969 10.6306 15.0281 10.572C14.7117 10.7361 14.3484 10.8181 13.9617 10.8181C13.575 10.8181 13.2234 10.7361 12.8953 10.572C12.4266 10.6306 12.0164 10.7478 11.5476 10.9236L9.55544 11.7556C9.0984 11.9431 8.94606 12.3298 9.06325 12.6462C9.157 12.9861 9.50856 13.2322 10.0008 13.0329L11.8523 12.2829C12.0516 12.2009 12.2274 12.3064 12.2274 12.5056C12.2274 13.1736 12.2625 14.6501 12.1688 15.2361C12.0281 16.0329 11.0906 19.572 11.032 19.9236C10.9031 20.8025 12.1922 21.1306 12.4266 20.1931L13.5164 16.0095C13.5867 15.7634 13.7508 15.6345 13.9617 15.6345Z" fill="black" fill-opacity="0.85"/>
</g>
<defs>
<clipPath id="clip0_2124_45962">
<rect width="23.9062" height="23.918" fill="white" transform="translate(2.00781 2.00562)"/>
</clipPath>
</defs>
</svg>
