<svg width="28" height="28" viewBox="0 0 28 28" fill="none" xmlns="http://www.w3.org/2000/svg">
<path d="M13.9531 25.918C20.4922 25.918 25.9062 20.5039 25.9062 13.9648C25.9062 7.4375 20.4805 2.01172 13.9414 2.01172C7.41406 2.01172 2 7.4375 2 13.9648C2 20.5039 7.42578 25.918 13.9531 25.918Z" fill="black" fill-opacity="0.85"/>
<path d="M21.2891 13.9648C21.2891 14.1758 21.207 14.457 20.9609 14.6914L15.5938 19.7422C15.2773 20.0352 14.9961 20.1758 14.6562 20.1758C14.2109 20.1758 13.8711 19.8594 13.8711 19.3906V16.6484H8.24609C7.26172 16.6484 6.6875 16.0859 6.6875 15.125V12.8164C6.6875 11.8555 7.26172 11.293 8.24609 11.293H13.8711V8.58594C13.8711 8.12891 14.2109 7.75391 14.6914 7.75391C15.0078 7.75391 15.2422 7.89453 15.5938 8.23438L20.9609 13.2266C21.207 13.4844 21.2891 13.7422 21.2891 13.9648Z" fill="white"/>
</svg>
