<svg width="28" height="30" viewBox="0 0 28 30" fill="none" xmlns="http://www.w3.org/2000/svg">
<g clip-path="url(#clip0_2124_89297)">
<path d="M0.179135 9.45981L1.05804 12.6825V22.9481C1.05804 25.2567 2.24163 26.4168 4.58538 26.4168H23.851C26.2065 26.4168 27.3666 25.245 27.3666 22.9481V12.0145C27.3666 10.7137 26.5229 9.86997 25.1987 9.86997H11.4877L24.3549 6.42465C25.644 6.08481 26.2299 5.0184 25.9135 3.78793L25.6088 2.6395C25.0346 0.401216 23.5463 -0.407378 21.2963 0.190279L2.68695 5.19418C0.448666 5.80356 -0.406803 7.24497 0.179135 9.45981Z" fill="black" fill-opacity="0.85"/>
<path d="M3.33154 10.28L4.21044 6.68238L7.91357 5.67456L7.06982 9.27222L3.33154 10.28ZM10.5386 8.34644L11.3824 4.74878L15.3785 3.68238L14.5347 7.29175L10.5386 8.34644ZM17.98 6.35425L18.8355 2.75659L21.6597 1.98316C21.9644 1.90113 22.2574 1.84253 22.5386 1.78394L21.7066 5.35816L17.98 6.35425ZM3.89404 14.9558L5.56982 11.8386L8.62841 11.698H9.50732L7.74951 14.9558H3.89404ZM11.3355 14.9558L13.0816 11.698H17.23L15.4722 14.9558H11.3355ZM19.0581 14.9558L20.8042 11.698H24.6597L22.9019 14.9558H19.0581Z" fill="white"/>
</g>
<defs>
<clipPath id="clip0_2124_89297">
<rect width="27.3666" height="29.8063" fill="white"/>
</clipPath>
</defs>
</svg>
