<svg width="28" height="28" viewBox="0 0 28 28" fill="none" xmlns="http://www.w3.org/2000/svg">
<path d="M13.9531 25.9062C20.4922 25.9062 25.9062 20.4805 25.9062 13.9531C25.9062 7.41406 20.4805 2 13.9414 2C7.41406 2 2 7.41406 2 13.9531C2 20.4805 7.42578 25.9062 13.9531 25.9062ZM13.9531 23.9141C8.42188 23.9141 4.00391 19.4844 4.00391 13.9531C4.00391 8.42188 8.41016 3.99219 13.9414 3.99219C19.4727 3.99219 23.9141 8.42188 23.9141 13.9531C23.9141 19.4844 19.4844 23.9141 13.9531 23.9141Z" fill="black" fill-opacity="0.85"/>
<path d="M9.875 12.1016C9.875 14.0703 11.3633 15.5 13.4023 15.5C14.1758 15.5 15.0078 15.2188 15.4062 14.8086H15.5469C15.4531 14.9844 15.2773 15.2305 15.0195 15.5469C14.375 16.3672 13.6016 17.3047 12.8984 18.1602C12.7109 18.3828 12.6172 18.6055 12.6172 18.8281C12.6172 19.1797 12.9219 19.5195 13.3906 19.5195C13.8477 19.5195 14.0234 19.25 14.3516 18.8281C14.9727 18.0664 15.8516 16.9297 16.4844 16.0977C17.5625 14.6562 18.0781 13.4609 18.0781 12.1953C18.0781 9.92188 16.4023 8.375 13.9766 8.375C11.5508 8.375 9.875 9.91016 9.875 12.1016ZM11.5273 12.0312C11.5273 10.7891 12.582 9.86328 13.9766 9.86328C15.3594 9.86328 16.4141 10.8008 16.4141 12.0312C16.4141 13.2852 15.3711 14.1875 13.9883 14.1875C12.582 14.1875 11.5273 13.2734 11.5273 12.0312Z" fill="black" fill-opacity="0.85"/>
</svg>
