<svg width="28" height="28" viewBox="0 0 28 28" fill="none" xmlns="http://www.w3.org/2000/svg">
<g clip-path="url(#clip0_2124_88478)">
<path d="M13.9531 25.9062C20.4922 25.9062 25.9062 20.4805 25.9062 13.9531C25.9062 7.41406 20.4805 2 13.9414 2C7.41406 2 2 7.41406 2 13.9531C2 20.4805 7.42578 25.9062 13.9531 25.9062ZM13.9531 23.9141C8.42188 23.9141 4.00391 19.4844 4.00391 13.9531C4.00391 8.42188 8.41016 3.99219 13.9414 3.99219C19.4727 3.99219 23.9141 8.42188 23.9141 13.9531C23.9141 19.4844 19.4844 23.9141 13.9531 23.9141Z" fill="black" fill-opacity="0.85"/>
<path d="M10.8711 20.1523H18.3242C18.582 20.1523 18.8047 19.918 18.8047 19.6602C18.8047 19.4492 18.6641 19.25 18.4766 19.1914C17.7617 18.8984 17.6211 17.9844 18.3125 17.293C18.5469 17.0703 18.8047 16.7656 18.8047 16.1914V9.59375C18.8047 8.38672 18.207 7.76562 17 7.76562H10.8828C9.6875 7.76562 9.08984 8.375 9.08984 9.59375V18.3477C9.08984 19.543 9.6875 20.1523 10.8711 20.1523ZM10.9297 19.1797C10.3672 19.1797 10.0625 18.8633 10.0625 18.3359C10.0625 17.8438 10.4258 17.5156 10.9766 17.5156H16.8711C16.9297 17.5156 16.9766 17.5039 17.0234 17.5039C16.8008 18.0781 16.8359 18.6758 17.0938 19.1797H10.9297ZM10.7422 16.543C10.5547 16.543 10.4023 16.4023 10.4023 16.1914V9.10156C10.4023 8.90234 10.5547 8.75 10.7422 8.75C10.9531 8.75 11.1172 8.90234 11.1172 9.10156V16.1914C11.1172 16.4023 10.9531 16.543 10.7422 16.543Z" fill="black" fill-opacity="0.85"/>
</g>
<defs>
<clipPath id="clip0_2124_88478">
<rect width="23.9062" height="23.918" fill="white" transform="translate(2 2)"/>
</clipPath>
</defs>
</svg>
