<svg width="32" height="28" viewBox="0 0 32 28" fill="none" xmlns="http://www.w3.org/2000/svg">
<g clip-path="url(#clip0_2124_67795)">
<path d="M15.8906 18.1367C17.9883 18.1367 19.6758 16.4375 19.6758 14.3398C19.6758 12.2422 17.9883 10.5547 15.8906 10.5547C13.793 10.5547 12.0938 12.2422 12.0938 14.3398C12.0938 16.4375 13.793 18.1367 15.8906 18.1367ZM15.8906 24.3008C25.2773 24.3008 31.7695 16.707 31.7695 14.3398C31.7695 11.9609 25.2656 4.37891 15.8906 4.37891C6.62109 4.37891 0 11.9609 0 14.3398C0 16.707 6.62109 24.3008 15.8906 24.3008ZM15.8906 20.8672C12.2344 20.8672 9.32812 17.9023 9.32812 14.3398C9.32812 10.6836 12.2344 7.8125 15.8906 7.8125C19.5117 7.8125 22.4414 10.6836 22.4414 14.3398C22.4414 17.9023 19.5117 20.8672 15.8906 20.8672Z" fill="black" fill-opacity="0.85"/>
<path d="M23.8349 25.4609C24.7373 26.3516 26.167 26.375 27.0576 25.4492C27.9599 24.5117 27.9248 23.1289 27.0459 22.25L7.45215 2.66797C6.57325 1.77734 5.12012 1.77734 4.22949 2.66797C3.35058 3.53516 3.35058 5 4.22949 5.87891L23.8349 25.4609Z" fill="white"/>
<path d="M24.8076 24.4883C25.1592 24.8516 25.7099 24.875 26.0849 24.4883C26.4599 24.1016 26.4365 23.5742 26.0849 23.2109L6.47949 3.62891C6.13964 3.27734 5.55371 3.27734 5.19043 3.62891C4.85058 3.96875 4.85058 4.56641 5.19043 4.90625L24.8076 24.4883Z" fill="black" fill-opacity="0.85"/>
</g>
<defs>
<clipPath id="clip0_2124_67795">
<rect width="31.7695" height="24.668" fill="white" transform="translate(0 2)"/>
</clipPath>
</defs>
</svg>
