<svg width="28" height="28" viewBox="0 0 28 28" fill="none" xmlns="http://www.w3.org/2000/svg">
<path d="M6.67969 24.5977H20.8945C23.3555 24.5977 24.5742 23.3789 24.5742 20.9648V6.65625C24.5742 4.24219 23.3555 3.02344 20.8945 3.02344H6.67969C4.23047 3.02344 3 4.23047 3 6.65625V20.9648C3 23.3906 4.23047 24.5977 6.67969 24.5977ZM6.70312 22.7109C5.53125 22.7109 4.88672 22.0898 4.88672 20.8711V6.75C4.88672 5.53125 5.53125 4.91016 6.70312 4.91016H20.8711C22.0312 4.91016 22.6875 5.53125 22.6875 6.75V20.8711C22.6875 22.0898 22.0312 22.7109 20.8711 22.7109H6.70312Z" fill="black" fill-opacity="0.85"/>
<path d="M13.8047 7.82812C13.3008 7.82812 12.9258 8.19141 12.9258 8.70703V14.5664L13.0195 17.0391L11.8477 15.6328L10.4531 14.2266C10.3008 14.0625 10.0898 13.9688 9.83203 13.9688C9.35156 13.9688 8.98828 14.332 8.98828 14.8125C8.98828 15.0586 9.05859 15.2695 9.21094 15.4219L13.125 19.3125C13.3594 19.5469 13.5586 19.6523 13.8047 19.6523C14.0742 19.6523 14.2734 19.5352 14.4961 19.3125L18.3984 15.4219C18.5625 15.2695 18.6445 15.0586 18.6445 14.8125C18.6445 14.332 18.2695 13.9688 17.7891 13.9688C17.5312 13.9688 17.3203 14.0508 17.168 14.2266L15.7852 15.6328L14.5898 17.0508L14.6836 14.5664V8.70703C14.6836 8.19141 14.3203 7.82812 13.8047 7.82812Z" fill="black" fill-opacity="0.85"/>
</svg>
