<svg width="28" height="28" viewBox="0 0 28 28" fill="none" xmlns="http://www.w3.org/2000/svg">
<path d="M6.67969 24.5977H20.8945C23.3555 24.5977 24.5742 23.3789 24.5742 20.9648V6.65625C24.5742 4.24219 23.3555 3.02344 20.8945 3.02344H6.67969C4.23047 3.02344 3 4.23047 3 6.65625V20.9648C3 23.3906 4.23047 24.5977 6.67969 24.5977Z" fill="black" fill-opacity="0.85"/>
<path d="M10.125 18.9258C7.71094 18.9258 6.99609 16.2305 6.99609 13.793C6.99609 11.3555 7.71094 8.66016 10.125 8.66016C12.5391 8.66016 13.2539 11.3555 13.2539 13.793C13.2539 16.2305 12.5391 18.9258 10.125 18.9258ZM10.125 17.4844C11.1094 17.4844 11.4844 15.8906 11.4844 13.793C11.4844 11.6836 11.1094 10.1016 10.125 10.1016C9.15234 10.1016 8.77734 11.6836 8.77734 13.793C8.77734 15.8906 9.15234 17.4844 10.125 17.4844ZM15.3867 18.6797C14.8242 18.6797 14.5547 18.3867 14.5547 17.9766C14.5547 17.5898 14.7891 17.2852 15.0117 17.0039L17.1094 14.3203C17.7422 13.5117 18.4219 12.5273 18.4219 11.5547C18.4219 10.6992 18.0117 10.0664 17.2969 10.0664C16.5938 10.0664 16.3125 10.5703 16.0781 11.3789C15.9609 11.7773 15.7031 11.9531 15.3047 11.9531C14.8359 11.9531 14.5664 11.6484 14.5664 11.1914C14.5664 9.9375 15.7617 8.66016 17.2969 8.66016C18.9609 8.66016 20.0742 9.84375 20.0742 11.4727C20.0742 12.5391 19.6641 13.4297 18.4688 14.9297L16.7109 17.1562V17.25H19.582C19.9922 17.25 20.2617 17.5078 20.2617 17.9766C20.2617 18.3984 20.0039 18.6797 19.582 18.6797H15.3867Z" fill="white"/>
</svg>
