<svg width="40" height="29" viewBox="0 0 40 29" fill="none" xmlns="http://www.w3.org/2000/svg">
<g clip-path="url(#clip0_2124_45779)">
<path d="M35.4317 16.2959C35.8653 16.5889 36.4043 16.4834 36.7207 16.0381C38.2207 13.9756 39.0996 11.1397 39.0996 8.24515C39.0996 5.35062 38.2324 2.49124 36.7207 0.452179C36.4043 -0.0048517 35.8653 -0.0986017 35.4317 0.194367C35.0098 0.487336 34.9278 1.03812 35.2676 1.51858C36.5567 3.32327 37.2832 5.74905 37.2832 8.24515C37.2832 10.7412 36.5332 13.1436 35.2676 14.9717C34.9395 15.4522 35.0098 16.0029 35.4317 16.2959Z" fill="black" fill-opacity="0.85"/>
<path d="M31.0953 13.2373C31.482 13.5069 32.0328 13.4248 32.3492 12.9678C33.2516 11.7842 33.7906 10.0381 33.7906 8.24515C33.7906 6.45218 33.2516 4.7178 32.3492 3.51077C32.0328 3.06546 31.482 2.97171 31.0953 3.25296C30.6149 3.58108 30.5445 4.16702 30.9078 4.64749C31.5875 5.58499 31.9742 6.88577 31.9742 8.24515C31.9742 9.60452 31.5758 10.8936 30.9078 11.8428C30.5563 12.335 30.6149 12.8975 31.0953 13.2373Z" fill="black" fill-opacity="0.85"/>
<path d="M8.92383 14.0108C11.3379 14.0108 13.3184 11.8428 13.3184 9.18265C13.3184 6.58108 11.3614 4.48343 8.92383 4.48343C6.50977 4.48343 4.5293 6.61624 4.5293 9.20608C4.5293 11.8545 6.50977 14.0108 8.92383 14.0108ZM8.92383 12.2647C7.49414 12.2647 6.27539 10.8936 6.27539 9.20608C6.27539 7.55374 7.48242 6.22952 8.92383 6.22952C10.4004 6.22952 11.584 7.5303 11.584 9.18265C11.584 10.8936 10.3653 12.2647 8.92383 12.2647ZM2.4082 24.7569H15.4278C17.0215 24.7569 17.8067 24.1123 17.8067 22.7998C17.8067 18.9092 13.834 15.3467 8.91211 15.3467C4.00196 15.3467 0.0175781 18.9092 0.0175781 22.7998C0.0175781 24.1123 0.814453 24.7569 2.4082 24.7569ZM2.11524 23.0225C1.88086 23.0225 1.76367 22.9287 1.76367 22.6944C1.76367 19.7881 5.08008 17.0811 8.91211 17.0811C12.7559 17.0811 16.0606 19.7881 16.0606 22.6944C16.0606 22.9287 15.9551 23.0225 15.7207 23.0225H2.11524Z" fill="black" fill-opacity="0.85"/>
<path d="M15.0645 26.3506H29.7832C32.9004 26.3506 34.2598 24.874 34.2598 22.8819C34.2598 18.8975 29.6426 13.7647 22.4238 13.7647C15.1934 13.7647 10.5879 18.8975 10.5879 22.8819C10.5879 24.874 11.9356 26.3506 15.0645 26.3506Z" fill="white"/>
<path d="M22.4237 13.9053C25.2128 13.9053 27.4863 11.4326 27.4863 8.40921C27.4863 5.40921 25.2245 3.05374 22.4237 3.05374C19.6464 3.05374 17.3613 5.45608 17.3613 8.43265C17.3613 11.4444 19.6464 13.9053 22.4237 13.9053ZM22.4237 12.1358C20.7128 12.1358 19.248 10.5069 19.248 8.43265C19.248 6.39358 20.6894 4.82327 22.4237 4.82327C24.1698 4.82327 25.5995 6.35843 25.5995 8.40921C25.5995 10.4834 24.1581 12.1358 22.4237 12.1358ZM15.0644 24.7569H29.7831C31.7284 24.7569 32.6542 24.1709 32.6542 22.8819C32.6542 19.8115 28.7753 15.3701 22.4237 15.3701C16.0605 15.3701 12.1816 19.8115 12.1816 22.8819C12.1816 24.1709 13.1073 24.7569 15.0644 24.7569ZM14.5019 22.9873C14.1972 22.9873 14.0683 22.9053 14.0683 22.6592C14.0683 20.7256 17.0448 17.1397 22.4237 17.1397C27.7909 17.1397 30.7675 20.7256 30.7675 22.6592C30.7675 22.9053 30.6503 22.9873 30.3456 22.9873H14.5019Z" fill="black" fill-opacity="0.85"/>
</g>
<defs>
<clipPath id="clip0_2124_45779">
<rect width="39.082" height="27.7691" fill="white" transform="translate(0.0175781 0.0266113)"/>
</clipPath>
</defs>
</svg>
