<svg width="28" height="28" viewBox="0 0 28 28" fill="none" xmlns="http://www.w3.org/2000/svg">
<path d="M3 21.7344C3 22.25 3.42188 22.6836 3.9375 22.6836C4.46484 22.6836 4.88672 22.25 4.88672 21.7344V5.96094C4.88672 5.44531 4.46484 5.02344 3.9375 5.02344C3.42188 5.02344 3 5.44531 3 5.96094V21.7344ZM22.6875 21.7344C22.6875 22.25 23.1211 22.6836 23.6367 22.6836C24.1523 22.6836 24.5742 22.25 24.5742 21.7344V5.96094C24.5742 5.44531 24.1523 5.02344 23.6367 5.02344C23.1211 5.02344 22.6875 5.44531 22.6875 5.96094V21.7344Z" fill="black" fill-opacity="0.85"/>
<path d="M13.7461 18.7109C15.4688 18.7109 16.8398 17.7266 16.8398 16.0625C16.8398 14.7148 15.9492 14.0117 14.8711 13.9062V13.8828C15.9141 13.6484 16.5352 12.8164 16.5352 11.7969C16.5352 10.2734 15.2812 9.41797 13.7109 9.41797C12.3984 9.41797 11.2734 10.1562 11.0156 11.2109C10.9805 11.3398 10.957 11.4922 10.957 11.6328C10.957 11.9961 11.1445 12.3008 11.6367 12.3008C12.0352 12.3008 12.2461 12.1367 12.375 11.7617C12.5977 11.0586 13.043 10.707 13.7227 10.707C14.4961 10.707 14.9883 11.2109 14.9883 11.9961C14.9883 12.8516 14.4023 13.3555 13.5352 13.3555H13.1953C12.7969 13.3555 12.5625 13.5898 12.5625 13.9531C12.5625 14.3398 12.8086 14.5508 13.1953 14.5508H13.5586C14.5078 14.5508 15.1992 14.9609 15.1992 15.9922C15.1992 16.8359 14.6133 17.3984 13.7578 17.3984C12.9375 17.3984 12.457 16.9766 12.2344 16.332C12.0937 16.0156 11.8359 15.8164 11.5195 15.8164C11.0742 15.8164 10.793 16.0859 10.793 16.5195C10.793 16.6602 10.8164 16.8008 10.8516 16.9414C11.1445 18.125 12.4922 18.7109 13.7461 18.7109Z" fill="black" fill-opacity="0.85"/>
</svg>
