<svg width="28" height="28" viewBox="0 0 28 28" fill="none" xmlns="http://www.w3.org/2000/svg">
<path d="M2 14.2422C2 14.5234 2.11719 14.793 2.35156 15.0156L8.60938 21.1562C8.80859 21.3555 9.11328 21.4727 9.37109 21.4727C9.99219 21.4727 10.4023 21.0508 10.4023 20.4414C10.4023 20.1367 10.3086 19.9141 10.1211 19.7266L7.36719 17.0664L5.17578 15.168L7.89453 15.2852H19.1797L21.8984 15.168L19.707 17.0664L16.9648 19.7266C16.7773 19.9141 16.6836 20.1367 16.6836 20.4414C16.6836 21.0508 17.0938 21.4727 17.7148 21.4727C17.9727 21.4727 18.2773 21.3555 18.4766 21.1562L24.7344 15.0156C24.9688 14.793 25.0859 14.5234 25.0859 14.2422C25.0859 13.9492 24.9688 13.6797 24.7344 13.457L18.4766 7.31641C18.2773 7.11719 17.9727 7 17.7148 7C17.0938 7 16.6836 7.42188 16.6836 8.03125C16.6836 8.33594 16.7773 8.55859 16.9648 8.74609L19.707 11.418L21.8984 13.3047L19.1797 13.1875H7.89453L5.17578 13.3047L7.36719 11.418L10.1211 8.74609C10.3086 8.55859 10.4023 8.33594 10.4023 8.03125C10.4023 7.42188 9.99219 7 9.37109 7C9.11328 7 8.80859 7.11719 8.60938 7.31641L2.35156 13.457C2.11719 13.6797 2 13.9492 2 14.2422Z" fill="black" fill-opacity="0.85"/>
</svg>
