<svg width="28" height="28" viewBox="0 0 28 28" fill="none" xmlns="http://www.w3.org/2000/svg">
<path d="M13.9531 25.9062C20.4922 25.9062 25.9062 20.4805 25.9062 13.9531C25.9062 7.41406 20.4805 2 13.9414 2C7.41406 2 2 7.41406 2 13.9531C2 20.4805 7.42578 25.9062 13.9531 25.9062Z" fill="black" fill-opacity="0.85"/>
<path d="M13.6484 19.707C11.6211 19.707 10.4844 18.6992 10.1914 17.8555C10.1445 17.7148 10.1211 17.5742 10.1211 17.4453C10.1211 16.9766 10.4492 16.6602 10.918 16.6602C11.3047 16.6602 11.5391 16.8594 11.75 17.1406C12.2422 17.8203 12.8047 18.1602 13.6367 18.1602C15.3008 18.1602 16.4258 16.5781 16.4023 13.9297H16.3203C15.9336 14.8203 14.9727 15.6172 13.3672 15.6172C11.4805 15.6172 9.75781 14.3281 9.75781 12.0547C9.75781 9.71094 11.375 8.19922 13.8711 8.19922C16.5898 8.19922 18.1602 10.0859 18.1602 13.5664C18.1602 17.6211 16.5781 19.707 13.6484 19.707ZM13.9414 14.2461C15.2891 14.2461 16.2617 13.2969 16.2617 11.9961C16.2617 10.6367 15.2656 9.64062 13.9531 9.64062C12.5586 9.64062 11.6328 10.5664 11.6328 11.9727C11.6328 13.2969 12.582 14.2461 13.9414 14.2461Z" fill="white"/>
</svg>
