<svg width="28" height="28" viewBox="0 0 28 28" fill="none" xmlns="http://www.w3.org/2000/svg">
<path d="M7.19778 22.43L19.9947 9.65661L17.9322 7.59411L5.147 20.3675L4.022 22.9808C3.91653 23.262 4.2095 23.5902 4.49075 23.473L7.19778 22.43ZM21.0142 8.6488L22.1978 7.48864C22.8072 6.89099 22.8423 6.24646 22.2915 5.70739L21.9048 5.30896C21.3658 4.78162 20.7212 4.82849 20.1353 5.41442L18.94 6.5863L21.0142 8.6488Z" fill="black" fill-opacity="0.85"/>
<path d="M19.9711 22.6059C20.8735 23.4965 22.3266 23.4965 23.2055 22.5825C24.061 21.7035 24.061 20.2739 23.1938 19.395L8.45159 4.66448C7.42034 3.63323 5.61565 3.7973 4.86565 5.19183C4.38519 6.0473 4.51409 7.16058 5.22893 7.87542L19.9711 22.6059Z" fill="white"/>
<path d="M20.9444 21.645C21.2959 21.9965 21.8819 21.9965 22.2217 21.645C22.5616 21.2817 22.5733 20.7192 22.2217 20.3676L7.49121 5.6371C7.13965 5.28554 6.54199 5.27382 6.20215 5.6371C5.86231 5.97694 5.86231 6.5746 6.20215 6.91444L20.9444 21.645Z" fill="black" fill-opacity="0.85"/>
</svg>
