<svg width="28" height="28" viewBox="0 0 28 28" fill="none" xmlns="http://www.w3.org/2000/svg">
<path d="M13.9531 25.9062C20.4922 25.9062 25.9062 20.4805 25.9062 13.9531C25.9062 7.41406 20.4805 2 13.9414 2C7.41406 2 2 7.41406 2 13.9531C2 20.4805 7.42578 25.9062 13.9531 25.9062ZM13.9531 23.9141C8.42188 23.9141 4.00391 19.4844 4.00391 13.9531C4.00391 8.42188 8.41016 3.99219 13.9414 3.99219C19.4727 3.99219 23.9141 8.42188 23.9141 13.9531C23.9141 19.4844 19.4844 23.9141 13.9531 23.9141Z" fill="black" fill-opacity="0.85"/>
<path d="M10.6836 18.9336C13.0156 18.9336 13.7188 16.3086 13.7188 13.9531C13.7188 11.5977 13.0156 8.97266 10.6836 8.97266C8.33984 8.97266 7.64844 11.5977 7.64844 13.9531C7.64844 16.3086 8.33984 18.9336 10.6836 18.9336ZM10.6836 17.5391C9.72266 17.5391 9.35938 15.9805 9.35938 13.9531C9.35938 11.9141 9.72266 10.3555 10.6836 10.3555C11.6445 10.3555 12.0078 11.9141 12.0078 13.9531C12.0078 15.9805 11.6445 17.5391 10.6836 17.5391ZM16.3906 18.8516C16.8125 18.8516 17.0117 18.6758 17.1641 18.2539L19.8477 11.1055C19.9766 10.7422 20.0586 10.4609 20.0586 10.1211C20.0586 9.58203 19.6484 9.21875 19.1328 9.21875H15.3359C14.9375 9.21875 14.668 9.51172 14.668 9.91016C14.668 10.3086 14.9375 10.6016 15.3359 10.6016H18.3477V10.707L15.7578 17.4336C15.6523 17.6914 15.6172 17.8438 15.6172 18.125C15.6172 18.4648 15.8281 18.8516 16.3906 18.8516Z" fill="black" fill-opacity="0.85"/>
</svg>
