<svg width="28" height="31" viewBox="0 0 28 31" fill="none" xmlns="http://www.w3.org/2000/svg">
<path d="M16.5703 30.2578C22.4883 30.2578 25.0078 28.957 25.0078 25.7695V5.42578C25.0078 2.00391 21.9023 0 16.5703 0C11.25 0 8.13281 2.00391 8.13281 5.42578V25.7695C8.13281 28.957 10.6641 30.2578 16.5703 30.2578ZM16.582 12.4805C15.4336 12.4805 13.6758 12.5625 13.0547 12.5625C12.1523 12.5625 11.7539 12.2109 11.6602 11.2734L11.4727 9C11.3086 7.25391 12.5391 6.55078 16.582 6.55078C20.6133 6.55078 21.8438 7.25391 21.6797 9L21.4922 11.2734C21.3984 12.2109 21.0117 12.5625 20.0977 12.5625C19.4883 12.5625 17.6602 12.4805 16.582 12.4805ZM16.582 25.3828C12.5039 25.3828 11.2617 24.7734 11.5195 22.9922L11.6719 21.8906C11.8711 20.4492 13.0781 19.957 16.582 19.957C20.0742 19.957 21.2812 20.4492 21.4805 21.8906L21.6328 22.9922C21.8906 24.7734 20.6484 25.3828 16.582 25.3828ZM9.01172 8.16797L3.28125 13.8633C2.90625 14.25 2.90625 14.8711 3.28125 15.2578C3.66797 15.6328 4.28906 15.6445 4.67578 15.2578L9.01172 10.9219V8.16797Z" fill="black" fill-opacity="0.85"/>
</svg>
