<svg width="28" height="28" viewBox="0 0 28 28" fill="none" xmlns="http://www.w3.org/2000/svg">
<g clip-path="url(#clip0_2124_24630)">
<path d="M13.9531 25.9062C20.4922 25.9062 25.9062 20.4805 25.9062 13.9531C25.9062 7.41406 20.4805 2 13.9414 2C7.41406 2 2 7.41406 2 13.9531C2 20.4805 7.42578 25.9062 13.9531 25.9062ZM13.9531 23.9141C8.42188 23.9141 4.00391 19.4844 4.00391 13.9531C4.00391 8.42188 8.41016 3.99219 13.9414 3.99219C19.4727 3.99219 23.9141 8.42188 23.9141 13.9531C23.9141 19.4844 19.4844 23.9141 13.9531 23.9141Z" fill="black" fill-opacity="0.85"/>
<path d="M7.10938 17.4336C7.27344 17.2344 7.22656 17 7.03906 16.7773C6.34766 16.0039 5.98438 15.0195 5.98438 13.9531C5.98438 12.8867 6.34766 11.9023 7.03906 11.1289C7.22656 10.9062 7.27344 10.6602 7.10938 10.4727C6.95703 10.2617 6.65234 10.2617 6.42969 10.4844C5.57422 11.4102 5.11719 12.6406 5.11719 13.9531C5.11719 15.2539 5.57422 16.4844 6.42969 17.4219C6.65234 17.6445 6.95703 17.6445 7.10938 17.4336ZM20.7383 17.4336C20.9023 17.6445 21.207 17.6445 21.418 17.4219C22.2734 16.4844 22.7422 15.2539 22.7422 13.9531C22.7422 12.6406 22.2734 11.4102 21.418 10.4844C21.207 10.2617 20.9023 10.2617 20.7383 10.4727C20.5742 10.6602 20.6211 10.9062 20.8203 11.1289C21.5 11.9023 21.875 12.8867 21.875 13.9531C21.875 15.0195 21.5 16.0039 20.8203 16.7773C20.6211 17 20.5742 17.2344 20.7383 17.4336Z" fill="black" fill-opacity="0.85"/>
<path d="M8.79688 15.9922C8.96094 15.793 8.90234 15.5703 8.72656 15.3359C8.43359 14.9609 8.29297 14.4805 8.29297 13.9531C8.29297 13.4258 8.43359 12.9336 8.72656 12.5703C8.90234 12.3359 8.96094 12.1133 8.79688 11.9141C8.62109 11.7031 8.30469 11.7031 8.10547 11.9375C7.66016 12.5 7.40234 13.1914 7.40234 13.9531C7.40234 14.7031 7.66016 15.4062 8.10547 15.957C8.30469 16.1914 8.62109 16.2031 8.79688 15.9922ZM19.0508 15.9922C19.2266 16.2031 19.5547 16.1914 19.7422 15.957C20.1875 15.4062 20.457 14.7031 20.457 13.9531C20.457 13.1914 20.1875 12.5 19.7422 11.9375C19.5547 11.7031 19.2266 11.7031 19.0508 11.9141C18.8867 12.1133 18.9453 12.3359 19.1211 12.5703C19.4141 12.9336 19.5664 13.4258 19.5664 13.9531C19.5664 14.4805 19.4141 14.9609 19.1211 15.3359C18.9453 15.5703 18.8867 15.793 19.0508 15.9922Z" fill="black" fill-opacity="0.85"/>
<path d="M11.6211 20.668H16.2617C17.3047 20.668 18.0078 19.9883 18.0078 18.9805V8.91406C18.0078 7.90625 17.3047 7.22656 16.2617 7.22656H11.6211C10.5781 7.22656 9.875 7.90625 9.875 8.91406V18.9805C9.875 19.9883 10.5781 20.668 11.6211 20.668ZM11.75 19.625C11.2109 19.625 10.918 19.332 10.918 18.8281V9.06641C10.918 8.5625 11.2109 8.26953 11.75 8.26953H12.5234C12.6406 8.26953 12.6641 8.31641 12.6641 8.41016V8.55078C12.6641 8.82031 12.8398 9.00781 13.1094 9.00781H14.7734C15.043 9.00781 15.2188 8.82031 15.2188 8.55078V8.41016C15.2188 8.31641 15.2539 8.26953 15.3477 8.26953H16.1328C16.6719 8.26953 16.9648 8.5625 16.9648 9.06641V18.8281C16.9648 19.332 16.6719 19.625 16.1328 19.625H11.75ZM12.6172 19.168H15.2773C15.4648 19.168 15.582 19.0508 15.582 18.8633C15.582 18.6641 15.4648 18.5352 15.2773 18.5352H12.6172C12.4297 18.5352 12.3008 18.6641 12.3008 18.8633C12.3008 19.0508 12.4297 19.168 12.6172 19.168Z" fill="black" fill-opacity="0.85"/>
</g>
<defs>
<clipPath id="clip0_2124_24630">
<rect width="23.9062" height="23.918" fill="white" transform="translate(2 2)"/>
</clipPath>
</defs>
</svg>
