<svg width="28" height="33" viewBox="0 0 28 33" fill="none" xmlns="http://www.w3.org/2000/svg">
<g clip-path="url(#clip0_2124_88451)">
<path d="M23.7109 26.0742V8.29688C23.7109 5.83594 22.5039 4.61719 20.0781 4.61719H7.63281C5.20703 4.61719 4 5.83594 4 8.29688V26.0742C4 28.5352 5.20703 29.7539 7.63281 29.7539H20.0781C22.5039 29.7539 23.7109 28.5352 23.7109 26.0742Z" fill="black" fill-opacity="0.85"/>
<path d="M10.2344 8.67188H17.4766C18.9062 8.67188 19.9375 7.62891 19.9375 6.15234V4.92188C19.9375 3.43359 18.9062 2.39062 17.4766 2.39062C17.2305 2.39062 17.0078 2.39062 16.75 2.39062L17.6758 3.03516C17.3711 1.26562 15.6953 0 13.8555 0C12.0156 0 10.3398 1.26562 10.0352 3.03516L10.9609 2.39062C10.7031 2.39062 10.4805 2.39062 10.2344 2.39062C8.80469 2.39062 7.77344 3.43359 7.77344 4.92188V6.15234C7.77344 7.62891 8.80469 8.67188 10.2344 8.67188Z" fill="white"/>
<path d="M10.2344 7.3125H17.4766C18.1562 7.3125 18.5664 6.87891 18.5664 6.15234V4.92187C18.5664 4.1953 18.1562 3.76171 17.4766 3.76171H16.3984C16.3164 2.43749 15.2148 1.35938 13.8555 1.35938C12.4961 1.35938 11.3945 2.43749 11.3125 3.76171H10.2344C9.55469 3.76171 9.14453 4.1953 9.14453 4.92187V6.15234C9.14453 6.87891 9.55469 7.3125 10.2344 7.3125ZM13.8555 4.87499C13.293 4.87499 12.8359 4.40624 12.8359 3.85546C12.8359 3.28124 13.293 2.82421 13.8555 2.82421C14.418 2.82421 14.875 3.28124 14.875 3.85546C14.875 4.40624 14.418 4.87499 13.8555 4.87499Z" fill="black" fill-opacity="0.85"/>
</g>
<defs>
<clipPath id="clip0_2124_88451">
<rect width="19.7109" height="32.4727" fill="white" transform="translate(4)"/>
</clipPath>
</defs>
</svg>
