<svg width="28" height="28" viewBox="0 0 28 28" fill="none" xmlns="http://www.w3.org/2000/svg">
<path d="M3.67969 24.5742H23.9531C26.4141 24.5742 27.6328 23.3672 27.6328 20.9531V6.63281C27.6328 4.21875 26.4141 3 23.9531 3H3.67969C1.23047 3 0 4.21875 0 6.63281V20.9531C0 23.3672 1.23047 24.5742 3.67969 24.5742Z" fill="black" fill-opacity="0.85"/>
<path d="M11.2148 7.58203C11.7422 7.58203 12.1055 7.98047 12.1055 8.55469V14.0742C12.1055 14.8008 11.707 15.082 11.0859 15.082H5.53125C4.95703 15.082 4.59375 14.7305 4.59375 14.1914C4.59375 13.6641 4.96875 13.3125 5.55469 13.3125H7.57031L9.36328 13.5L7.47656 11.7305L3.84375 8.09766C3.66797 7.93359 3.55078 7.69922 3.55078 7.46484C3.55078 6.91406 3.90234 6.55078 4.44141 6.55078C4.73438 6.55078 4.95703 6.65625 5.13281 6.83203L8.75391 10.4648L10.5 12.3281L10.3242 10.4414V8.53125C10.3242 7.94531 10.6758 7.58203 11.2148 7.58203Z" fill="white"/>
</svg>
