<svg width="28" height="28" viewBox="0 0 28 28" fill="none" xmlns="http://www.w3.org/2000/svg">
<path d="M13.9531 25.918C20.4922 25.918 25.9062 20.5039 25.9062 13.9648C25.9062 7.4375 20.4805 2.01172 13.9414 2.01172C7.41406 2.01172 2 7.4375 2 13.9648C2 20.5039 7.42578 25.918 13.9531 25.918Z" fill="black" fill-opacity="0.85"/>
<path d="M8.84375 16.9531C8.84375 14.5977 9.96875 13.7305 9.96875 12.2656C9.96875 11.9609 9.92188 11.5625 9.92188 11.3984C9.92188 11.1055 10.0977 10.9063 10.3672 10.9063C10.9531 10.9063 11.6328 11.3984 11.9961 12.1367C12.043 11.9844 12.0664 11.8438 12.0664 11.6797C12.0547 10.3906 11.2578 9.28906 10.4961 8.36328C10.3672 8.21094 10.2969 8.03516 10.2969 7.87109C10.2969 7.44922 10.6836 7.22656 11.293 7.22656C14.7617 7.22656 19.7656 9.67578 19.7656 15.5586C19.7656 19.0742 17.457 21.4297 13.9883 21.4297C10.8828 21.4297 8.84375 19.6484 8.84375 16.9531ZM12.0898 17.7383C12.0898 18.8398 12.9219 19.5898 14.1523 19.5898C15.7109 19.5898 16.4609 18.4414 16.4609 17.1289C16.4609 15.8633 15.7344 14.4219 14.2812 13.7539C14.2227 13.7305 14.1875 13.7539 14.1992 13.8477C14.3047 14.8906 14.1523 15.8984 13.8008 16.3672C13.6133 15.9805 13.4375 15.6406 13.1328 15.3945C13.0859 15.3359 13.0391 15.3594 13.0391 15.4414C12.9219 16.168 12.0898 16.5781 12.0898 17.7383Z" fill="white"/>
</svg>
