<svg width="28" height="28" viewBox="0 0 28 28" fill="none" xmlns="http://www.w3.org/2000/svg">
<path d="M13.9531 25.9062C20.4922 25.9062 25.9062 20.4805 25.9062 13.9531C25.9062 7.41406 20.4805 2 13.9414 2C7.41406 2 2 7.41406 2 13.9531C2 20.4805 7.42578 25.9062 13.9531 25.9062ZM13.9531 23.9141C8.42188 23.9141 4.00391 19.4844 4.00391 13.9531C4.00391 8.42188 8.41016 3.99219 13.9414 3.99219C19.4727 3.99219 23.9141 8.42188 23.9141 13.9531C23.9141 19.4844 19.4844 23.9141 13.9531 23.9141Z" fill="black" fill-opacity="0.85"/>
<path d="M10.2969 18.9336C12.6289 18.9336 13.332 16.3086 13.332 13.9531C13.332 11.5977 12.6289 8.97266 10.2969 8.97266C7.96484 8.97266 7.26172 11.5977 7.26172 13.9531C7.26172 16.3086 7.96484 18.9336 10.2969 18.9336ZM10.2969 17.5391C9.33594 17.5391 8.97266 15.9805 8.97266 13.9531C8.97266 11.9141 9.33594 10.3555 10.2969 10.3555C11.2578 10.3555 11.6211 11.9141 11.6211 13.9531C11.6211 15.9805 11.2578 17.5391 10.2969 17.5391ZM16.9531 15.418C17.9023 15.418 18.6289 14.7852 18.8984 13.7773H18.9336C18.9336 13.8242 18.9336 13.8711 18.9336 13.9062C18.9336 15.207 18.7812 17.5508 17.4688 17.5508C16.9414 17.5508 16.5898 17.1875 16.3789 16.6836C16.2031 16.2969 15.9688 16.1445 15.6289 16.1445C15.1367 16.1445 14.9258 16.4727 14.9258 16.8594C14.9258 17 14.9492 17.1406 14.9961 17.2812C15.2422 18.3008 16.2617 18.9219 17.4336 18.9219C19.8359 18.9219 20.5391 16.2617 20.5391 13.8594C20.5391 11.6445 19.8242 8.99609 17.457 8.99609C15.6758 8.99609 14.6445 10.4961 14.6445 12.3359C14.6445 13.918 15.4062 15.418 16.9531 15.418ZM17.4805 14.1289C16.6133 14.1289 16.2617 13.1328 16.2617 12.2656C16.2617 11.3867 16.6602 10.3555 17.4805 10.3555C18.3594 10.3555 18.7109 11.3867 18.7109 12.2656C18.7109 13.168 18.3242 14.1289 17.4805 14.1289Z" fill="black" fill-opacity="0.85"/>
</svg>
