<svg width="33" height="29" viewBox="0 0 33 29" fill="none" xmlns="http://www.w3.org/2000/svg">
<g clip-path="url(#clip0_2124_24804)">
<path d="M10.5 20.8945C14.3906 20.8945 15.9961 20.4023 17.5547 18.9375C19.7344 16.9453 21.0117 14.0742 21.0117 11.0273C21.0117 8.70702 20.2734 6.5039 19.0078 4.85155C18.4922 4.16015 17.543 4.01952 16.6992 4.52343C15.293 5.33202 13.6289 5.87108 10.5 5.87108C7.06641 5.87108 5.34375 5.24999 3.76172 4.05468C3.32812 3.73827 2.91797 3.78515 2.51953 4.27733C0.867188 6.18749 0 8.51952 0 11.0273C0 14.0742 1.27734 16.9453 3.44531 18.9375C5.01562 20.4023 6.62109 20.8945 10.5 20.8945Z" fill="black" fill-opacity="0.85"/>
<path d="M10.5 4.40625C13.4531 4.40625 15.5273 3.80859 15.5273 3.03516C15.5273 2.26172 13.4531 1.67578 10.5 1.67578C7.57031 1.67578 5.49609 2.26172 5.49609 3.03516C5.49609 3.80859 7.57031 4.40625 10.5 4.40625Z" fill="black" fill-opacity="0.85"/>
<path d="M19.0898 28.7461C23.6602 28.7461 25.875 28.1133 27.9258 26.1914C30.6445 23.707 32.2266 20.1328 32.2266 16.3477C32.2266 13.207 31.1016 10.2422 29.2383 8.09766C27.0234 5.30859 24.3164 3.84375 19.0898 3.84375C13.8281 3.84375 11.1094 5.33203 8.88281 8.13281C7.06641 10.2773 5.95312 13.2305 5.95312 16.3477C5.95312 20.1328 7.53516 23.707 10.2539 26.1914C12.3047 28.1133 14.5195 28.7461 19.0898 28.7461Z" fill="white"/>
<path d="M19.0898 27.1406C23.3438 27.1406 25.1484 26.6016 26.8477 25.0195C29.2266 22.8398 30.6328 19.6875 30.6328 16.3477C30.6328 13.6406 29.7188 11.0508 27.8672 8.92968C27.4336 8.39061 26.9766 8.35546 26.5078 8.68358C24.7734 9.99608 22.7695 10.6641 19.0898 10.6641C15.4102 10.6641 13.4062 9.99608 11.6719 8.68358C11.2031 8.35546 10.7578 8.39061 10.3242 8.92968C8.46094 11.0508 7.55859 13.6406 7.55859 16.3477C7.55859 19.6875 8.95312 22.8398 11.3438 25.0195C13.043 26.6016 14.8359 27.1406 19.0898 27.1406Z" fill="black" fill-opacity="0.85"/>
<path d="M19.0898 9.05859C22.3477 9.05859 24.6328 8.40234 24.6328 7.55859C24.6328 6.71484 22.3477 6.07031 19.0898 6.07031C15.832 6.07031 13.5469 6.71484 13.5469 7.55859C13.5469 8.40234 15.832 9.05859 19.0898 9.05859Z" fill="black" fill-opacity="0.85"/>
</g>
<defs>
<clipPath id="clip0_2124_24804">
<rect width="32.2266" height="28.7461" fill="white"/>
</clipPath>
</defs>
</svg>
