<svg width="29" height="29" viewBox="0 0 29 29" fill="none" xmlns="http://www.w3.org/2000/svg">
<g clip-path="url(#clip0_2124_45974)">
<path d="M4.01954 13.9558C4.01954 12.8894 4.1836 11.8582 4.48829 10.9089L2.64844 10.1355C2.25 11.3425 2.01562 12.6199 2.01562 13.9558C2.01562 15.28 2.25 16.5691 2.66016 17.7761L4.48829 17.0027C4.1836 16.0535 4.01954 15.0222 4.01954 13.9558ZM9.41015 5.073L8.66015 3.26831C6.33984 4.42847 4.42969 6.33863 3.26953 8.65894L5.09766 9.42066C6.03516 7.55738 7.55859 6.03394 9.41015 5.073ZM13.957 3.99488C15.0234 3.99488 16.0547 4.15894 17.0273 4.47535L17.7773 2.64722C16.5703 2.23706 15.2812 2.00269 13.957 2.00269C12.6328 2.00269 11.332 2.23706 10.125 2.64722L10.8984 4.47535C11.8594 4.15894 12.8906 3.99488 13.957 3.99488ZM22.8398 9.40894L24.6562 8.65894C23.4844 6.33863 21.5742 4.42847 19.2539 3.2566L18.5039 5.073C20.3554 6.02222 21.8906 7.54566 22.8398 9.40894ZM23.9297 13.9558C23.9297 15.0222 23.7656 16.0535 23.4609 17.0144L25.2773 17.7879C25.6875 16.5808 25.9218 15.28 25.9218 13.9558C25.9218 12.6199 25.6875 11.3308 25.2773 10.1238L23.4492 10.8972C23.7656 11.8582 23.9297 12.8894 23.9297 13.9558ZM18.5039 22.8269L19.2539 24.655C21.5859 23.4832 23.4961 21.573 24.6445 19.2527L22.8515 18.5027C21.9023 20.366 20.3672 21.8777 18.5039 22.8269ZM13.9687 23.9168C12.8906 23.9168 11.8594 23.7527 10.8984 23.4363L10.1367 25.2644C11.3437 25.6746 12.6445 25.9089 13.9687 25.9089C15.2929 25.9089 16.582 25.6746 17.7773 25.2761L17.0156 23.448C16.0547 23.7527 15.0351 23.9168 13.9687 23.9168ZM5.09766 18.5027L3.28124 19.2527C4.45312 21.573 6.33984 23.4832 8.66015 24.6433L9.41015 22.8152C7.55859 21.866 6.03516 20.3543 5.09766 18.5027Z" fill="black" fill-opacity="0.85"/>
<path d="M13.9453 22.1355C18.5039 22.1355 22.1367 18.5027 22.125 13.9558C22.1133 9.40893 18.4804 5.77612 13.9336 5.77612C9.38671 5.77612 5.77734 9.39721 5.77734 13.9558C5.77734 18.5144 9.39843 22.1355 13.9453 22.1355ZM13.957 18.8074C11.8594 18.8074 10.4531 17.4011 10.4531 16.7332C10.4531 16.4988 10.6875 16.405 10.8867 16.4988C11.6133 16.8972 12.4922 17.3543 13.957 17.3543C15.4336 17.3543 16.3008 16.8972 17.039 16.4988C17.2383 16.405 17.4609 16.4988 17.4609 16.7332C17.4609 17.4011 16.0664 18.8074 13.957 18.8074ZM10.9805 12.8543C10.3477 12.8543 9.79687 12.2918 9.79687 11.4949C9.79687 10.6746 10.3477 10.1121 10.9805 10.1121C11.6133 10.1121 12.164 10.6746 12.164 11.4949C12.164 12.2918 11.6016 12.8543 10.9805 12.8543ZM16.957 12.8543C16.3242 12.8543 15.7734 12.2918 15.7734 11.4949C15.7734 10.6746 16.3242 10.1121 16.957 10.1121C17.5898 10.1121 18.1406 10.6746 18.1406 11.4949C18.1406 12.2918 17.5781 12.8543 16.957 12.8543Z" fill="black" fill-opacity="0.85"/>
</g>
<defs>
<clipPath id="clip0_2124_45974">
<rect width="23.9062" height="23.918" fill="white" transform="translate(2.01562 2.00269)"/>
</clipPath>
</defs>
</svg>
