<svg width="28" height="28" viewBox="0 0 28 28" fill="none" xmlns="http://www.w3.org/2000/svg">
<path d="M13.9531 25.9062C20.4922 25.9062 25.9062 20.4805 25.9062 13.9531C25.9062 7.41406 20.4805 2 13.9414 2C7.41406 2 2 7.41406 2 13.9531C2 20.4805 7.42578 25.9062 13.9531 25.9062ZM13.9531 23.9141C8.42188 23.9141 4.00391 19.4844 4.00391 13.9531C4.00391 8.42188 8.41016 3.99219 13.9414 3.99219C19.4727 3.99219 23.9141 8.42188 23.9141 13.9531C23.9141 19.4844 19.4844 23.9141 13.9531 23.9141Z" fill="black" fill-opacity="0.85"/>
<path d="M8.44531 18.6875H12.5117C12.9336 18.6875 13.1797 18.418 13.1797 18.0078C13.1797 17.5625 12.9219 17.3164 12.5117 17.3164H9.73438V17.2227L11.4453 15.0547C12.6172 13.6016 13.0039 12.7344 13.0039 11.7031C13.0039 10.1211 11.9258 8.97266 10.3086 8.97266C8.80859 8.97266 7.67188 10.2148 7.67188 11.4336C7.67188 11.8672 7.92969 12.1719 8.375 12.1719C8.76172 12.1719 8.99609 11.9961 9.125 11.6094C9.33594 10.8242 9.62891 10.332 10.3086 10.332C11.0117 10.332 11.4102 10.9531 11.4102 11.7852C11.4102 12.7227 10.7539 13.6719 10.1328 14.4688L8.09375 17.0703C7.88281 17.3516 7.66016 17.6445 7.66016 18.0078C7.66016 18.4062 7.91797 18.6875 8.44531 18.6875ZM18.5938 18.8398C19.0273 18.8398 19.3906 18.5703 19.3906 18.0078V16.8359H19.8008C20.2578 16.8359 20.4688 16.543 20.4688 16.1445C20.4688 15.7695 20.2695 15.4766 19.8008 15.4766H19.3906V10.332C19.3906 9.52344 18.8516 9.06641 18.0898 9.06641C17.2695 9.06641 16.8828 9.48828 16.5547 10.2148L14.457 14.7617C14.2578 15.2188 14.1875 15.5234 14.1875 15.8867C14.1875 16.4492 14.5859 16.8359 15.1484 16.8359H17.7734V18.0078C17.7734 18.6289 18.2188 18.8398 18.5938 18.8398ZM17.8086 15.5117H15.6289V15.4297L17.7617 10.543H17.8086V15.5117Z" fill="black" fill-opacity="0.85"/>
</svg>
