<svg width="28" height="28" viewBox="0 0 28 28" fill="none" xmlns="http://www.w3.org/2000/svg">
<g clip-path="url(#clip0_2124_88462)">
<path d="M13.9531 25.918C20.4922 25.918 25.9062 20.5039 25.9062 13.9648C25.9062 7.4375 20.4805 2.01172 13.9414 2.01172C7.41406 2.01172 2 7.4375 2 13.9648C2 20.5039 7.42578 25.918 13.9531 25.918Z" fill="black" fill-opacity="0.85"/>
<path d="M9.53516 19.9414C8.17578 19.9414 7.49609 19.2734 7.49609 17.9258V10.0039C7.49609 8.66797 8.17578 7.98828 9.53516 7.98828H18.3711C19.7305 7.98828 20.4102 8.66797 20.4102 10.0039V17.9258C20.4102 19.2734 19.7305 19.9414 18.3711 19.9414H9.53516ZM9.44141 18.8281H18.4531C19.0156 18.8281 19.2969 18.5586 19.2969 17.9844V11.8672C19.2969 11.2695 18.9688 10.9648 18.4062 10.9648H9.5C8.92578 10.9648 8.60938 11.2695 8.60938 11.8672V17.9844C8.60938 18.5586 8.90234 18.8281 9.44141 18.8281ZM12.6523 13.3906C12.3711 13.3906 12.2891 13.3086 12.2891 13.0508V12.582C12.2891 12.3125 12.3711 12.2188 12.6523 12.2188H13.0977C13.3789 12.2188 13.4727 12.3125 13.4727 12.582V13.0508C13.4727 13.3086 13.3789 13.3906 13.0977 13.3906H12.6523ZM14.8086 13.3906C14.5273 13.3906 14.4453 13.3086 14.4453 13.0508V12.582C14.4453 12.3125 14.5273 12.2188 14.8086 12.2188H15.2539C15.5352 12.2188 15.6172 12.3125 15.6172 12.582V13.0508C15.6172 13.3086 15.5352 13.3906 15.2539 13.3906H14.8086ZM16.9648 13.3906C16.6719 13.3906 16.5898 13.3086 16.5898 13.0508V12.582C16.5898 12.3125 16.6719 12.2188 16.9648 12.2188H17.3984C17.6797 12.2188 17.7734 12.3125 17.7734 12.582V13.0508C17.7734 13.3086 17.6797 13.3906 17.3984 13.3906H16.9648ZM10.5078 15.5C10.2266 15.5 10.1328 15.4297 10.1328 15.1602V14.7031C10.1328 14.4219 10.2266 14.3398 10.5078 14.3398H10.9531C11.2344 14.3398 11.3164 14.4219 11.3164 14.7031V15.1602C11.3164 15.4297 11.2344 15.5 10.9531 15.5H10.5078ZM12.6523 15.5C12.3711 15.5 12.2891 15.4297 12.2891 15.1602V14.7031C12.2891 14.4219 12.3711 14.3398 12.6523 14.3398H13.0977C13.3789 14.3398 13.4727 14.4219 13.4727 14.7031V15.1602C13.4727 15.4297 13.3789 15.5 13.0977 15.5H12.6523ZM14.8086 15.5C14.5273 15.5 14.4453 15.4297 14.4453 15.1602V14.7031C14.4453 14.4219 14.5273 14.3398 14.8086 14.3398H15.2539C15.5352 14.3398 15.6172 14.4219 15.6172 14.7031V15.1602C15.6172 15.4297 15.5352 15.5 15.2539 15.5H14.8086ZM16.9648 15.5C16.6719 15.5 16.5898 15.4297 16.5898 15.1602V14.7031C16.5898 14.4219 16.6719 14.3398 16.9648 14.3398H17.3984C17.6797 14.3398 17.7734 14.4219 17.7734 14.7031V15.1602C17.7734 15.4297 17.6797 15.5 17.3984 15.5H16.9648ZM10.5078 17.6211C10.2266 17.6211 10.1328 17.5391 10.1328 17.2578V16.8008C10.1328 16.5312 10.2266 16.4609 10.5078 16.4609H10.9531C11.2344 16.4609 11.3164 16.5312 11.3164 16.8008V17.2578C11.3164 17.5391 11.2344 17.6211 10.9531 17.6211H10.5078ZM12.6523 17.6211C12.3711 17.6211 12.2891 17.5391 12.2891 17.2578V16.8008C12.2891 16.5312 12.3711 16.4609 12.6523 16.4609H13.0977C13.3789 16.4609 13.4727 16.5312 13.4727 16.8008V17.2578C13.4727 17.5391 13.3789 17.6211 13.0977 17.6211H12.6523ZM14.8086 17.6211C14.5273 17.6211 14.4453 17.5391 14.4453 17.2578V16.8008C14.4453 16.5312 14.5273 16.4609 14.8086 16.4609H15.2539C15.5352 16.4609 15.6172 16.5312 15.6172 16.8008V17.2578C15.6172 17.5391 15.5352 17.6211 15.2539 17.6211H14.8086Z" fill="white"/>
</g>
<defs>
<clipPath id="clip0_2124_88462">
<rect width="23.9062" height="23.918" fill="white" transform="translate(2 2)"/>
</clipPath>
</defs>
</svg>
