<svg width="30" height="31" viewBox="0 0 30 31" fill="none" xmlns="http://www.w3.org/2000/svg">
<path d="M2.93309 27.4336C4.72606 29.2383 7.01121 30.375 9.49559 30.375C10.0932 30.375 10.5034 29.9883 10.5034 29.4375C10.5034 28.9336 10.105 28.6055 9.437 28.5586C7.51512 28.4414 5.64012 27.6445 4.17528 26.1914C2.72215 24.7266 1.92528 22.8633 1.80809 20.9297C1.7495 20.1797 1.44481 19.8867 0.858871 19.8867C0.401839 19.8867 -0.043473 20.2148 0.00340199 20.8594C0.155746 23.3438 1.11668 25.6406 2.93309 27.4336ZM26.7807 27.4336C28.5972 25.6406 29.5581 23.3438 29.7104 20.8594C29.7573 20.2148 29.312 19.8867 28.855 19.8867C28.2807 19.8867 27.9643 20.1797 27.9057 20.9297C27.7886 22.8633 27.0034 24.7266 25.5386 26.1914C24.0737 27.6445 22.2104 28.4414 20.2768 28.5586C19.6206 28.6055 19.2222 28.9336 19.2222 29.4375C19.2222 29.9883 19.6206 30.375 20.23 30.375C22.7026 30.375 24.9878 29.2383 26.7807 27.4336Z" fill="black" fill-opacity="0.85"/>
<path d="M5.83959 24.5156C7.04662 25.7227 8.68725 26.3203 9.69506 26.3203C10.2459 26.3203 10.6209 25.9688 10.6209 25.4648C10.6209 24.9961 10.2928 24.6211 9.56615 24.5156C8.66381 24.4219 7.82006 24 7.08178 23.2734C6.37865 22.5586 5.9685 21.6914 5.83959 20.6953C5.73412 20.0391 5.47631 19.7695 4.90209 19.7695C4.38646 19.7695 3.97631 20.168 4.05834 20.8008C4.21068 22.2305 4.82006 23.4961 5.83959 24.5156ZM23.8748 24.5156C24.906 23.4961 25.5037 22.2305 25.656 20.8008C25.7381 20.168 25.3279 19.7695 24.8123 19.7695C24.2381 19.7695 23.9919 20.0391 23.8864 20.6953C23.7458 21.6914 23.3356 22.5586 22.6325 23.2734C21.8942 24 21.0505 24.4219 20.1481 24.5156C19.4216 24.6211 19.1053 24.9961 19.1053 25.4648C19.0935 25.9688 19.4803 26.3203 20.0192 26.3203C21.0271 26.3203 22.6677 25.7227 23.8748 24.5156Z" fill="black" fill-opacity="0.85"/>
<path d="M14.8623 23.0742C19.3623 23.0742 21.3779 22.0547 21.3779 19.4648V4.25391C21.3779 1.58203 18.917 0 14.8623 0C10.8076 0 8.34667 1.58203 8.34667 4.25391V19.4648C8.34667 22.0547 10.3506 23.0742 14.8623 23.0742ZM14.8506 9.64453C14.042 9.64453 12.6709 9.71484 12.2138 9.71484C11.499 9.71484 11.1592 9.41016 11.1006 8.64844L10.9482 6.96094C10.831 5.56641 11.7451 5.03906 14.8506 5.03906C17.9795 5.03906 18.8935 5.56641 18.7763 6.96094L18.6357 8.64844C18.5654 9.41016 18.2373 9.71484 17.5107 9.71484C17.042 9.71484 15.7295 9.64453 14.8506 9.64453ZM14.8506 19.3359C11.7451 19.3359 10.7607 18.8789 10.9834 17.4375L11.1123 16.6172C11.2881 15.4688 12.1787 15.1055 14.8506 15.1055C17.5459 15.1055 18.4365 15.4688 18.624 16.6172L18.7412 17.4375C18.9756 18.8789 17.9795 19.3359 14.8506 19.3359ZM9.34277 9.23438V6.79688H7.84277C7.25683 6.79688 6.81152 7.23047 6.81152 7.79297V8.23828C6.81152 8.78906 7.25683 9.23438 7.84277 9.23438H9.34277ZM20.3818 9.23438H21.8818C22.4677 9.23438 22.9131 8.78906 22.9131 8.23828V7.79297C22.9131 7.23047 22.4677 6.79688 21.8818 6.79688H20.3818V9.23438Z" fill="black" fill-opacity="0.85"/>
</svg>
