<svg width="28" height="28" viewBox="0 0 28 28" fill="none" xmlns="http://www.w3.org/2000/svg">
<path d="M13.9531 25.9062C20.4922 25.9062 25.9062 20.4805 25.9062 13.9531C25.9062 7.41406 20.4805 2 13.9414 2C7.41406 2 2 7.41406 2 13.9531C2 20.4805 7.42578 25.9062 13.9531 25.9062Z" fill="black" fill-opacity="0.85"/>
<path d="M7.97654 16.7773C7.64842 16.4492 7.66014 15.875 8.02341 15.5L12.7578 10.4609C13.5195 9.66406 14.3984 9.66406 15.1602 10.4609L19.8945 15.5C20.2695 15.875 20.2812 16.4492 19.9414 16.7773C19.5664 17.1641 18.9805 17.1641 18.6406 16.8008L13.9648 11.8438L9.27732 16.8008C8.93747 17.1641 8.35154 17.1641 7.97654 16.7773Z" fill="white"/>
</svg>
