<svg width="30" height="28" viewBox="0 0 30 28" fill="none" xmlns="http://www.w3.org/2000/svg">
<path d="M23.1562 23.3672C26.6953 23.3672 29.4609 20.7773 29.4609 17.5547C29.4609 15.0938 28.043 12.9609 25.7578 12C25.7812 6.77344 22.0195 3 17.2266 3C14.0508 3 11.7891 4.69922 10.3828 6.75C7.5 5.90625 4.35938 8.09766 4.30078 11.3789C1.65234 11.8008 0 14.168 0 17.0273C0 20.4727 3.01172 23.3672 7.01953 23.3672H23.1562Z" fill="black" fill-opacity="0.85"/>
<path d="M21.3746 14.543C21.3746 16.5352 19.7691 18.1289 17.7769 18.1289C16.2418 18.1289 14.941 17.168 14.2613 15.4219L12.7379 16.9219C12.609 17.0508 12.4332 17.0625 12.3394 16.9453L10.8277 15.4102L9.72613 16.5234C9.59723 16.6523 9.43316 16.6523 9.31598 16.5234L7.53473 14.7422C7.42926 14.625 7.44098 14.4492 7.53473 14.3438L8.47223 13.4062C8.60113 13.2891 8.7066 13.2539 8.83551 13.2539H14.4019C14.941 11.8359 16.2652 10.9453 17.7769 10.9453C19.7691 10.9453 21.3746 12.5391 21.3746 14.543ZM19.6519 14.5312C19.6519 13.9102 19.1363 13.4297 18.5387 13.4297C17.9058 13.4297 17.4254 13.9219 17.4254 14.5312C17.4254 15.1406 17.9058 15.6328 18.5387 15.6328C19.1363 15.6328 19.6519 15.1406 19.6519 14.5312Z" fill="white"/>
</svg>
