<svg width="28" height="28" viewBox="0 0 28 28" fill="none" xmlns="http://www.w3.org/2000/svg">
<g clip-path="url(#clip0_2124_88498)">
<path d="M6.67969 24.8086H20.8945C23.3555 24.8086 24.5742 23.5898 24.5742 21.1758V6.86719C24.5742 4.45312 23.3555 3.23438 20.8945 3.23438H6.67969C4.23047 3.23438 3 4.44141 3 6.86719V21.1758C3 23.6016 4.23047 24.8086 6.67969 24.8086ZM6.70312 22.9219C5.53125 22.9219 4.88672 22.3008 4.88672 21.082V6.96094C4.88672 5.74219 5.53125 5.12109 6.70312 5.12109H20.8711C22.0312 5.12109 22.6875 5.74219 22.6875 6.96094V21.082C22.6875 22.3008 22.0312 22.9219 20.8711 22.9219H6.70312Z" fill="black" fill-opacity="0.85"/>
<path d="M10.3242 20.2148C10.6289 20.2148 10.8047 20.0391 11.3437 19.5117L13.7344 17.1562C13.7695 17.1211 13.8164 17.1211 13.8516 17.1562L16.2539 19.5117C16.7812 20.0391 16.957 20.2148 17.2617 20.2148C17.6602 20.2148 17.9062 19.9336 17.9062 19.4648V9.59766C17.9062 8.46094 17.3203 7.86328 16.1719 7.86328H11.4141C10.2773 7.86328 9.69141 8.46094 9.69141 9.59766V19.4648C9.69141 19.9336 9.9375 20.2148 10.3242 20.2148Z" fill="black" fill-opacity="0.85"/>
</g>
<defs>
<clipPath id="clip0_2124_88498">
<rect width="21.5742" height="21.8086" fill="white" transform="translate(3 3)"/>
</clipPath>
</defs>
</svg>
