<svg width="29" height="30" viewBox="0 0 29 30" fill="none" xmlns="http://www.w3.org/2000/svg">
<g clip-path="url(#clip0_2124_46034)">
<path d="M8.86719 0.0224609C5.63281 0.0224609 3.00781 2.64746 3.00781 5.88184C3.00781 7.27637 3.5 8.56543 4.30859 9.57324C4.50781 9.81934 4.74219 9.91308 4.96484 9.91308C5.53906 9.91308 6.03125 9.2334 5.53906 8.64746C4.90625 7.89746 4.54297 6.93652 4.54297 5.88184C4.54297 3.49121 6.47656 1.55762 8.86719 1.55762C11.2578 1.55762 13.1797 3.49121 13.1797 5.88184C13.1797 5.95215 13.1797 6.02246 13.1797 6.12793C13.1914 6.65527 13.5547 6.88965 13.9297 6.88965C14.293 6.88965 14.668 6.63184 14.7031 6.22168C14.7148 6.13965 14.7148 6.03418 14.7148 5.88184C14.7148 2.64746 12.1016 0.0224609 8.86719 0.0224609Z" fill="black" fill-opacity="0.85"/>
<path d="M19.8363 25.7686C24.4887 24.0811 26.4809 19.8155 24.6059 14.6592L23.727 12.2569C22.8012 9.71387 21.0668 8.6709 19.0043 9.38574C18.4652 8.6709 17.6098 8.4248 16.6957 8.75293C16.3559 8.88184 16.0629 9.05762 15.7934 9.26855C15.184 8.49512 14.2582 8.21387 13.2973 8.55371C13.0394 8.64746 12.7934 8.78808 12.559 8.95215L11.223 5.2959C10.7191 3.90137 9.46523 3.31543 8.16445 3.78418C6.85195 4.26465 6.25429 5.51855 6.7582 6.91308L10.1098 16.1006C10.1215 16.1592 10.1098 16.2061 10.0629 16.2295C10.016 16.253 9.96914 16.2295 9.93398 16.1944L8.56289 14.6944C7.8832 13.9678 7.07461 13.7452 6.28945 14.0264C5.21132 14.4248 4.51992 15.4444 4.96523 16.6514C5.08242 16.9913 5.31679 17.4014 5.58632 17.7413L9.50039 22.4873C12.4769 26.0733 15.9457 27.1866 19.8363 25.7686ZM19.3441 24.2334C16.2621 25.3584 13.391 24.7842 10.684 21.5147L6.74648 16.792C6.62929 16.6514 6.54726 16.5225 6.47695 16.3233C6.33632 15.9483 6.50039 15.5147 6.9457 15.3506C7.3207 15.2217 7.62539 15.3623 7.91836 15.6787L10.6371 18.4795C11.0824 18.9483 11.4809 18.9952 11.8793 18.8545C12.3363 18.6905 12.5238 18.1983 12.348 17.6944L8.18789 6.28027C8.02382 5.81152 8.22304 5.36621 8.68008 5.20215C9.13711 5.03808 9.55898 5.26074 9.72304 5.72949L12.6996 13.8741C12.8285 14.2608 13.2621 14.4366 13.6488 14.2959C14.0238 14.1553 14.2348 13.7452 14.0941 13.3702L13.0277 10.4287C13.1801 10.2764 13.4144 10.1241 13.6254 10.042C14.1762 9.84277 14.6449 10.0889 14.8441 10.6631L15.7816 13.2295C15.934 13.628 16.3676 13.7803 16.7426 13.6397C17.1059 13.5108 17.3285 13.1241 17.1762 12.7139L16.4262 10.628C16.5785 10.4756 16.8129 10.3233 17.0238 10.2413C17.5746 10.042 18.0316 10.2881 18.2426 10.8623L18.8754 12.5733C19.016 12.9834 19.4496 13.1358 19.8246 12.9952C20.1879 12.8663 20.4223 12.4678 20.2699 12.0694L19.8129 10.8037C20.7855 10.4522 21.7113 11.2491 22.3559 13.0069L23.0824 15.0108C24.6996 19.4405 23.2348 22.8155 19.3441 24.2334Z" fill="black" fill-opacity="0.85"/>
</g>
<defs>
<clipPath id="clip0_2124_46034">
<rect width="22.2977" height="29.8008" fill="white" transform="translate(3.00781 0.0224609)"/>
</clipPath>
</defs>
</svg>
