<svg width="28" height="28" viewBox="0 0 28 28" fill="none" xmlns="http://www.w3.org/2000/svg">
<path d="M13.9531 25.9062C20.4922 25.9062 25.9062 20.4805 25.9062 13.9531C25.9062 7.41406 20.4805 2 13.9414 2C7.41406 2 2 7.41406 2 13.9531C2 20.4805 7.42578 25.9062 13.9531 25.9062ZM13.9531 23.9141C8.42188 23.9141 4.00391 19.4844 4.00391 13.9531C4.00391 8.42188 8.41016 3.99219 13.9414 3.99219C19.4727 3.99219 23.9141 8.42188 23.9141 13.9531C23.9141 19.4844 19.4844 23.9141 13.9531 23.9141Z" fill="black" fill-opacity="0.85"/>
<path d="M13.9414 19.8828C14.3867 19.8828 14.6914 19.5781 14.6914 19.1094V17.4102H16.8594C17.1992 17.4102 17.4336 17.1523 17.4336 16.8242C17.4336 16.4961 17.1992 16.25 16.8594 16.25H14.6914V15.3477H16.8594C17.1992 15.3477 17.4336 15.1016 17.4336 14.7734C17.4336 14.4336 17.1992 14.1875 16.8594 14.1875H15.2305L18.0781 9.60547C18.1836 9.44141 18.2188 9.30078 18.2188 9.125C18.2188 8.73828 17.9023 8.43359 17.4805 8.43359C17.1992 8.43359 16.9766 8.55078 16.8242 8.82031L13.9531 13.6367L11.082 8.80859C10.918 8.53906 10.707 8.42188 10.4141 8.42188C9.99219 8.42188 9.67578 8.72656 9.67578 9.11328C9.67578 9.28906 9.72266 9.42969 9.81641 9.59375L12.6758 14.1875H11.0703C10.7305 14.1875 10.5078 14.4336 10.5078 14.7734C10.5078 15.1016 10.7422 15.3477 11.0703 15.3477H13.2148V16.25H11.0703C10.7305 16.25 10.5078 16.4961 10.5078 16.8242C10.5078 17.1523 10.7422 17.4102 11.0703 17.4102H13.2148V19.0977C13.2148 19.5664 13.5078 19.8828 13.9414 19.8828Z" fill="black" fill-opacity="0.85"/>
</svg>
