<svg width="28" height="28" viewBox="0 0 28 28" fill="none" xmlns="http://www.w3.org/2000/svg">
<g clip-path="url(#clip0_2124_88629)">
<path d="M13.9531 25.9062C20.4922 25.9062 25.9062 20.4805 25.9062 13.9531C25.9062 7.41406 20.4805 2 13.9414 2C7.41406 2 2 7.41406 2 13.9531C2 20.4805 7.42578 25.9062 13.9531 25.9062ZM13.9531 23.9141C8.42188 23.9141 4.00391 19.4844 4.00391 13.9531C4.00391 8.42188 8.41016 3.99219 13.9414 3.99219C19.4727 3.99219 23.9141 8.42188 23.9141 13.9531C23.9141 19.4844 19.4844 23.9141 13.9531 23.9141Z" fill="black" fill-opacity="0.85"/>
<path d="M14.1174 11.0234L8.53928 17.0234C8.25803 17.3281 8.24631 17.7031 8.48069 17.9961L7.76584 18.9102C7.64866 19.0742 7.66038 19.2852 7.81272 19.4258L7.9885 19.6016C8.12913 19.7422 8.32834 19.7656 8.50413 19.6367L9.42991 18.9219C9.71116 19.1562 10.0862 19.1445 10.3791 18.875L13.2971 16.168V19.332C13.2971 19.707 13.59 20.0117 13.9768 20.0117C14.3518 20.0117 14.6564 19.707 14.6564 19.332V14.9023L16.3674 13.3086C17.1174 13.3906 17.8557 13.0859 18.4885 12.4297L14.9729 8.91405C14.3283 9.5703 14.0354 10.2851 14.1174 11.0234ZM9.42991 17.6094L14.5627 12.1602C14.6447 12.2891 14.7385 12.4062 14.8674 12.5469C14.9729 12.6641 15.1018 12.7695 15.2307 12.8516L9.80491 17.9961L9.42991 17.6094ZM19.1682 8.23437C18.1018 7.16796 16.6721 7.21483 15.5705 8.3164L19.0861 11.832C20.1994 10.7305 20.2346 9.30077 19.1682 8.23437Z" fill="black" fill-opacity="0.85"/>
</g>
<defs>
<clipPath id="clip0_2124_88629">
<rect width="23.9062" height="23.918" fill="white" transform="translate(2 2)"/>
</clipPath>
</defs>
</svg>
