<svg width="31" height="28" viewBox="0 0 31 28" fill="none" xmlns="http://www.w3.org/2000/svg">
<g clip-path="url(#clip0_2124_67749)">
<path d="M4.24371 25.043L8.84918 24.1523C11.3336 23.6719 12.4351 22.3242 12.4351 19.6875V6.9375C12.4351 4.58203 10.7828 3 8.33356 3C6.24762 3 4.47809 4.48828 3.89215 6.67969L0.189025 20.7188C-0.60785 23.707 1.18512 25.6289 4.24371 25.043ZM26.65 25.043C29.7086 25.6289 31.5015 23.707 30.7047 20.7188L27.0015 6.67969C26.4156 4.48828 24.6461 3 22.5601 3C20.1109 3 18.4586 4.58203 18.4586 6.9375V19.6875C18.4586 22.3242 19.5601 23.6719 22.0445 24.1523L26.65 25.043Z" fill="black" fill-opacity="0.85"/>
<path d="M6.04881 19.8164C5.55662 19.9219 5.01756 19.5938 4.92381 19.0898C4.83006 18.5977 5.1699 18.082 5.63865 17.9883L8.79101 17.3203L6.21287 15.0117C5.83787 14.6719 5.791 14.0508 6.11912 13.6641C6.47069 13.2891 7.1035 13.2773 7.46678 13.6055L11.0527 16.8398L12.4355 16.5352V18.457L6.04881 19.8164ZM24.8457 19.8164L18.459 18.457V16.5352L19.8418 16.8398L23.4277 13.6055C23.791 13.2773 24.4238 13.2891 24.7754 13.6641C25.1035 14.0508 25.0566 14.6719 24.6816 15.0117L22.1035 17.3203L25.2558 17.9883C25.7246 18.082 26.0644 18.5977 25.9707 19.0898C25.8769 19.5938 25.3379 19.9219 24.8457 19.8164Z" fill="white"/>
<path d="M15.4472 17.8359L18.459 18.457V16.5352L16.373 16.0898V4.47656C16.373 3.96094 15.9629 3.53906 15.4472 3.53906C14.9316 3.53906 14.5097 3.96094 14.5097 4.47656V16.0898L12.4355 16.5352V18.457L15.4472 17.8359Z" fill="black" fill-opacity="0.85"/>
</g>
<defs>
<clipPath id="clip0_2124_67749">
<rect width="30.8937" height="22.6289" fill="white" transform="translate(0 3)"/>
</clipPath>
</defs>
</svg>
