<svg width="28" height="28" viewBox="0 0 28 28" fill="none" xmlns="http://www.w3.org/2000/svg">
<path d="M7.47266 3C6.80469 3 6.23047 3.02344 5.87891 3.08203C5.41016 3.17578 5 3.48047 5 4.07812C5 4.6875 5.43359 5.07422 6.04297 5.07422C6.44141 5.07422 6.82812 5.05078 7.36719 5.05078C11.5391 5.05078 13.3789 6.46875 13.3672 10.7109L13.3555 18.7266L13.4609 21.9141L11.1055 19.3359L7.27344 15.4922C7.08594 15.3047 6.80469 15.2109 6.52344 15.2109C5.94922 15.2109 5.51562 15.6562 5.51562 16.2305C5.51562 16.5117 5.62109 16.7578 5.84375 16.9922L13.625 24.7852C13.8477 25.0195 14.1172 25.1367 14.3984 25.1367C14.6914 25.1367 14.9609 25.0195 15.1836 24.7852L22.9648 16.9922C23.1875 16.7578 23.293 16.5117 23.293 16.2305C23.293 15.6562 22.8594 15.2109 22.2734 15.2109C22.0039 15.2109 21.7227 15.3047 21.5352 15.4922L17.6914 19.3359L15.3594 21.9023L15.4531 18.7266V10.6055C15.4531 5.15625 12.8984 3 7.47266 3Z" fill="black" fill-opacity="0.85"/>
</svg>
