<svg width="30" height="28" viewBox="0 0 30 28" fill="none" xmlns="http://www.w3.org/2000/svg">
<g clip-path="url(#clip0_2124_89277)">
<path d="M0 22.1992C0 23.4648 0.867188 24.6133 2.4375 24.6133H26.9766C28.5469 24.6133 29.4023 23.4648 29.4023 22.1992C29.4023 21.2617 28.9102 20.2656 27.9023 19.7031L14.707 12.2969L1.5 19.7031C0.492188 20.2656 0 21.2617 0 22.1992ZM1.89844 22.0938C1.89844 21.7891 2.05078 21.5195 2.44922 21.2969L14.707 14.4414L26.9648 21.2969C27.3633 21.5195 27.5156 21.7891 27.5156 22.0938C27.5156 22.457 27.2812 22.75 26.7773 22.75H2.625C2.13281 22.75 1.89844 22.457 1.89844 22.0938ZM13.793 13.1758H15.6094V11.9336C15.6094 10.8789 16.125 10.4688 17.0391 9.73047C17.9883 8.95703 19.5 7.87891 19.5 5.51172C19.5 2.80469 17.6016 1 14.7656 1C11.9531 1 10.0781 2.98047 10.0781 5.94531C10.0781 6.50781 10.4648 6.89453 10.9688 6.89453C11.4609 6.89453 11.8477 6.50781 11.8477 6.0625C11.8477 4.09375 13.0195 2.78125 14.7656 2.78125C16.5469 2.78125 17.7422 3.87109 17.7422 5.51172C17.7422 6.97656 16.957 7.63281 16.1602 8.27734C15.1172 9.12109 13.793 9.85938 13.793 11.9336V13.1758Z" fill="black" fill-opacity="0.85"/>
</g>
<defs>
<clipPath id="clip0_2124_89277">
<rect width="29.4023" height="25.6992" fill="white" transform="translate(0 1)"/>
</clipPath>
</defs>
</svg>
