<svg width="28" height="28" viewBox="0 0 28 28" fill="none" xmlns="http://www.w3.org/2000/svg">
<path d="M14.3828 21.9844C17.6523 21.9844 20.0195 20.3086 20.7461 18.1289C20.8047 17.9297 20.8633 17.707 20.8633 17.4609C20.8633 16.8633 20.4414 16.4648 19.8438 16.4648C19.3633 16.4648 19.0586 16.7695 18.8594 17.2266C18.168 18.9023 16.7148 20.0742 14.3945 20.0742C11.2891 20.0742 9.20312 17.8828 9.20312 13.8867C9.20312 9.97266 11.2656 7.6875 14.3711 7.6875C16.6914 7.6875 18.1445 8.87109 18.8242 10.5234C19.0234 11.0273 19.375 11.3086 19.8672 11.3086C20.4531 11.3086 20.8398 10.8984 20.8398 10.3125C20.8398 10.0664 20.7812 9.84375 20.7227 9.64453C19.9844 7.47656 17.6289 5.77734 14.3594 5.77734C9.92969 5.77734 7 8.94141 7 13.8867C7 18.9023 9.92969 21.9844 14.3828 21.9844ZM14.2773 24.7734C14.7109 24.7734 15.0508 24.4688 15.0508 24.0117V3.76172C15.0508 3.30469 14.7109 3 14.2773 3C13.8438 3 13.5156 3.30469 13.5156 3.76172V24.0117C13.5156 24.4688 13.8438 24.7734 14.2773 24.7734Z" fill="black" fill-opacity="0.85"/>
</svg>
