<svg width="29" height="29" viewBox="0 0 29 29" fill="none" xmlns="http://www.w3.org/2000/svg">
<g clip-path="url(#clip0_2124_45831)">
<path d="M0.0078125 3.80541C0.0078125 4.32104 0.429688 4.74291 0.945312 4.74291H27.1719C27.6875 4.74291 28.1094 4.32104 28.1094 3.80541C28.1094 3.28979 27.6875 2.85619 27.1719 2.85619H0.945312C0.429688 2.85619 0.0078125 3.28979 0.0078125 3.80541ZM0.0078125 8.66869C0.0078125 9.18432 0.429688 9.60619 0.945312 9.60619H27.1719C27.6875 9.60619 28.1094 9.18432 28.1094 8.66869C28.1094 8.15307 27.6875 7.71948 27.1719 7.71948H0.945312C0.429688 7.71948 0.0078125 8.15307 0.0078125 8.66869ZM0.0078125 13.532C0.0078125 14.0476 0.429688 14.4812 0.945312 14.4812H27.1719C27.6875 14.4812 28.1094 14.0476 28.1094 13.532C28.1094 13.0164 27.6875 12.5945 27.1719 12.5945H0.945312C0.429688 12.5945 0.0078125 13.0164 0.0078125 13.532ZM0.0078125 18.3953C0.0078125 18.9109 0.429688 19.3445 0.945312 19.3445H27.1719C27.6875 19.3445 28.1094 18.9109 28.1094 18.3953C28.1094 17.8797 27.6875 17.4578 27.1719 17.4578H0.945312C0.429688 17.4578 0.0078125 17.8797 0.0078125 18.3953ZM0.0078125 23.2703C0.0078125 23.7859 0.429688 24.2078 0.945312 24.2078H27.1719C27.6875 24.2078 28.1094 23.7859 28.1094 23.2703C28.1094 22.7547 27.6875 22.3211 27.1719 22.3211H0.945312C0.429688 22.3211 0.0078125 22.7547 0.0078125 23.2703Z" fill="black" fill-opacity="0.85"/>
<path d="M14.0586 17.2469C17.0937 17.2469 19.6953 14.5515 19.6953 11.1883C19.6953 7.77807 17.0469 5.28198 14.0586 5.28198C11.0469 5.28198 8.42187 7.83666 8.42187 11.2117C8.42187 14.5515 11.0234 17.2469 14.0586 17.2469ZM8.0586 26.1179H20.0586C23.0469 26.1179 23.914 24.6531 23.914 23.1531C23.914 19.7078 20.0234 15.5242 14.0586 15.5242C8.09375 15.5242 4.20312 19.7078 4.20312 23.1531C4.20312 24.6531 5.08204 26.1179 8.0586 26.1179Z" fill="white"/>
<path d="M14.0586 15.6414C16.2031 15.6414 18.1016 13.6843 18.1016 11.1883C18.1016 8.69213 16.2031 6.87573 14.0586 6.87573C11.9258 6.87573 10.0156 8.73901 10.0156 11.2117C10.0156 13.6843 11.9258 15.6414 14.0586 15.6414ZM8.05859 24.5125H20.0586C21.793 24.5125 22.3203 24.0203 22.3203 23.1531C22.3203 20.6219 19.1562 17.1297 14.0586 17.1297C8.96093 17.1297 5.80859 20.6219 5.80859 23.1531C5.80859 24.0203 6.32422 24.5125 8.05859 24.5125Z" fill="black" fill-opacity="0.85"/>
</g>
<defs>
<clipPath id="clip0_2124_45831">
<rect width="28.1016" height="25.0898" fill="white" transform="translate(0.0078125 1.02808)"/>
</clipPath>
</defs>
</svg>
