<svg width="28" height="28" viewBox="0 0 28 28" fill="none" xmlns="http://www.w3.org/2000/svg">
<path d="M13.9531 25.9062C20.4922 25.9062 25.9062 20.4805 25.9062 13.9531C25.9062 7.41406 20.4805 2 13.9414 2C7.41406 2 2 7.41406 2 13.9531C2 20.4805 7.42578 25.9062 13.9531 25.9062Z" fill="black" fill-opacity="0.85"/>
<path d="M11.1172 19.0508C9.81642 19.0508 8.58594 18.4297 8.23438 17.3047C8.17578 17.1055 8.14062 16.8945 8.14062 16.6719C8.14062 16.2031 8.45703 15.9102 8.9375 15.9102C9.32422 15.9102 9.58203 16.1094 9.69922 16.5078C9.85156 17.0586 10.2383 17.6445 11.1172 17.6445C12.0078 17.6445 12.4531 16.9297 12.4531 16.0977C12.4531 15.0547 11.8906 14.4922 10.8594 14.4922H10.5664C10.168 14.4922 9.89844 14.2578 9.89844 13.8594C9.89844 13.4609 10.1563 13.2031 10.5664 13.2031H10.8477C11.7617 13.2031 12.2422 12.5586 12.2422 11.6797C12.2422 10.8828 11.8672 10.2734 11.0703 10.2734C10.3906 10.2734 10.0156 10.7187 9.81641 11.4336C9.69922 11.8555 9.45312 12.0078 9.04297 12.0078C8.5625 12.0078 8.30469 11.6914 8.30469 11.293C8.30469 11.082 8.32812 10.8711 8.39844 10.6367C8.73828 9.57031 9.82812 8.86719 11.0703 8.86719C12.6406 8.86719 13.9062 9.81641 13.9062 11.4922C13.9062 12.5 13.3555 13.4844 12.2656 13.7773V13.8125C13.2852 13.918 14.1875 14.6562 14.1875 16.1562C14.1875 17.9609 12.8516 19.0508 11.1172 19.0508ZM18.2539 18.9688C17.7617 18.9688 17.3633 18.5703 17.3633 18.0781V10.7539L16.25 11.6445C16.1328 11.7383 16.0039 11.7969 15.8164 11.7969C15.4531 11.7969 15.1953 11.5273 15.1953 11.1523C15.1953 10.8359 15.3594 10.6016 15.582 10.4375L16.9062 9.40625C17.1875 9.19531 17.5977 8.91406 18.1133 8.91406C18.7461 8.91406 19.1328 9.27734 19.1328 9.89844V18.0781C19.1328 18.5703 18.7344 18.9688 18.2539 18.9688Z" fill="white"/>
</svg>
