<svg width="28" height="28" viewBox="0 0 28 28" fill="none" xmlns="http://www.w3.org/2000/svg">
<path d="M6.67969 24.5977H20.8945C23.3555 24.5977 24.5742 23.3789 24.5742 20.9648V6.65625C24.5742 4.24219 23.3555 3.02344 20.8945 3.02344H6.67969C4.23047 3.02344 3 4.23047 3 6.65625V20.9648C3 23.3906 4.23047 24.5977 6.67969 24.5977Z" fill="black" fill-opacity="0.85"/>
<path d="M13.8281 19.5469C11.3086 19.5469 9.60938 17.9531 9.60938 15.6328C9.60938 14.3203 10.1367 12.9961 11.3789 11.3437C12.0117 10.5117 12.7383 9.58594 13.5352 8.54297C13.7227 8.30859 13.957 8.05078 14.3438 8.05078C14.9297 8.05078 15.1758 8.42578 15.1758 8.78906C15.1758 9.02344 15.0703 9.21094 14.8945 9.45703C14.2969 10.2187 13.5 11.2031 12.8906 12C12.5156 12.4922 12.3516 12.7031 12.2344 12.9141L12.3516 12.9492C12.7617 12.5391 13.5938 12.2227 14.4141 12.2227C16.5234 12.2227 18.0234 13.7109 18.0234 15.7031C18.0234 17.9531 16.3125 19.5469 13.8281 19.5469ZM13.8281 18.0234C15.2578 18.0234 16.3242 17.0508 16.3242 15.7969C16.3242 14.5195 15.2578 13.5938 13.8164 13.5938C12.3867 13.5938 11.3203 14.5195 11.3203 15.7734C11.3203 17.0508 12.3984 18.0234 13.8281 18.0234Z" fill="white"/>
</svg>
