<svg width="28" height="28" viewBox="0 0 28 28" fill="none" xmlns="http://www.w3.org/2000/svg">
<path d="M7.47266 25.1367C12.8984 25.1367 15.4531 22.9805 15.4531 17.5312V9.41016L15.3594 6.23438L17.6914 8.80078L21.5352 12.6445C21.7227 12.832 22.0039 12.9258 22.2734 12.9258C22.8594 12.9258 23.293 12.4805 23.293 11.9062C23.293 11.625 23.1875 11.3789 22.9648 11.1445L15.1836 3.35156C14.9609 3.11719 14.6914 3 14.3984 3C14.1172 3 13.8477 3.11719 13.625 3.35156L5.84375 11.1445C5.62109 11.3789 5.51562 11.625 5.51562 11.9062C5.51562 12.4805 5.94922 12.9258 6.52344 12.9258C6.80469 12.9258 7.08594 12.832 7.27344 12.6445L11.1055 8.80078L13.4609 6.22266L13.3555 9.41016L13.3672 17.4258C13.3789 21.668 11.5391 23.0859 7.36719 23.0859C6.82812 23.0859 6.44141 23.0625 6.04297 23.0625C5.43359 23.0625 5 23.4492 5 24.0586C5 24.6562 5.41016 24.9492 5.87891 25.0547C6.23047 25.125 6.80469 25.1367 7.47266 25.1367Z" fill="black" fill-opacity="0.85"/>
</svg>
