<svg width="28" height="28" viewBox="0 0 28 28" fill="none" xmlns="http://www.w3.org/2000/svg">
<path d="M13.9531 25.9062C20.4922 25.9062 25.9062 20.4805 25.9062 13.9531C25.9062 7.41406 20.4805 2 13.9414 2C7.41406 2 2 7.41406 2 13.9531C2 20.4805 7.42578 25.9062 13.9531 25.9062ZM13.9531 23.9141C8.42188 23.9141 4.00391 19.4844 4.00391 13.9531C4.00391 8.42188 8.41016 3.99219 13.9414 3.99219C19.4727 3.99219 23.9141 8.42188 23.9141 13.9531C23.9141 19.4844 19.4844 23.9141 13.9531 23.9141Z" fill="black" fill-opacity="0.85"/>
<path d="M10.7539 14.75C10.4258 14.75 10.1797 14.5156 10.1797 14.1875C10.1797 13.8594 10.4258 13.625 10.7539 13.625H13.3789V10.0508C13.3789 9.73438 13.625 9.48828 13.9414 9.48828C14.2695 9.48828 14.5273 9.73438 14.5273 10.0508V14.1875C14.5273 14.5039 14.2578 14.75 13.9414 14.75H10.7539ZM13.9531 20.2461C17.3867 20.2461 20.2461 17.3867 20.2461 13.9531C20.2461 10.5195 17.3867 7.66016 13.9414 7.66016C10.5078 7.66016 7.66016 10.5195 7.66016 13.9531C7.66016 17.3867 10.5195 20.2461 13.9531 20.2461Z" fill="black" fill-opacity="0.85"/>
</svg>
