<svg width="28" height="28" viewBox="0 0 28 28" fill="none" xmlns="http://www.w3.org/2000/svg">
<g clip-path="url(#clip0_2124_62609)">
<path d="M6.67969 24.5977H20.8945C23.3555 24.5977 24.5742 23.3789 24.5742 20.9648V6.65625C24.5742 4.24219 23.3555 3.02344 20.8945 3.02344H6.67969C4.23047 3.02344 3 4.23047 3 6.65625V20.9648C3 23.3906 4.23047 24.5977 6.67969 24.5977Z" fill="black" fill-opacity="0.85"/>
<path d="M10.957 12.6914H10.0547C8.625 12.6914 7.48828 11.5547 7.48828 10.1367C7.48828 8.71875 8.625 7.57031 10.0547 7.57031C11.4609 7.57031 12.6211 8.73047 12.6211 10.1367V11.0508H14.8008V10.1367C14.8008 8.73047 15.9492 7.57031 17.3672 7.57031C18.7852 7.57031 19.9336 8.71875 19.9336 10.1367C19.9336 11.5547 18.7852 12.6914 17.3672 12.6914H16.4531V14.9062H17.3672C18.7852 14.9062 19.9336 16.043 19.9336 17.4492C19.9336 18.8789 18.7852 20.0273 17.3672 20.0273C15.9492 20.0273 14.8008 18.8672 14.8008 17.4492V16.5352H12.6211V17.4492C12.6211 18.8672 11.4609 20.0273 10.0547 20.0273C8.625 20.0273 7.48828 18.8789 7.48828 17.4492C7.48828 16.043 8.625 14.9062 10.0547 14.9062H10.957V12.6914ZM12.6211 14.918H14.8008V12.6797H12.6211V14.918ZM10.0547 11.0625H10.957V10.1367C10.957 9.64453 10.5469 9.21094 10.0547 9.21094C9.55078 9.21094 9.12891 9.64453 9.12891 10.1367C9.12891 10.6523 9.53906 11.0625 10.0547 11.0625ZM17.3672 11.0625C17.8711 11.0625 18.293 10.6523 18.293 10.1367C18.293 9.64453 17.8594 9.21094 17.3672 9.21094C16.8633 9.21094 16.4531 9.64453 16.4531 10.1367V11.0625H17.3672ZM10.0547 16.5117C9.55078 16.5117 9.12891 16.9453 9.12891 17.4375C9.12891 17.9531 9.53906 18.3633 10.0547 18.3633C10.5469 18.3633 10.957 17.9531 10.957 17.4375V16.5117H10.0547ZM17.3672 16.5117H16.4531V17.4375C16.4531 17.9531 16.8633 18.3633 17.3672 18.3633C17.8711 18.3633 18.293 17.9531 18.293 17.4375C18.293 16.9453 17.8594 16.5117 17.3672 16.5117Z" fill="white"/>
</g>
<defs>
<clipPath id="clip0_2124_62609">
<rect width="21.5742" height="21.5977" fill="white" transform="translate(3 3)"/>
</clipPath>
</defs>
</svg>
