<svg width="35" height="28" viewBox="0 0 35 28" fill="none" xmlns="http://www.w3.org/2000/svg">
<path d="M1.16016 8.72266C1.78125 8.72266 2.29688 8.20703 2.29688 7.5625C2.29688 6.94141 1.78125 6.42578 1.16016 6.42578C0.515625 6.42578 0 6.92969 0 7.5625C0 8.20703 0.515625 8.72266 1.16016 8.72266ZM1.16016 15.0977C1.78125 15.0977 2.29688 14.582 2.29688 13.9375C2.29688 13.3047 1.78125 12.7891 1.16016 12.7891C0.515625 12.7891 0 13.3047 0 13.9375C0 14.582 0.515625 15.0977 1.16016 15.0977ZM1.16016 21.4609C1.78125 21.4609 2.29688 20.9453 2.29688 20.3008C2.29688 19.6797 1.78125 19.1641 1.16016 19.1641C0.515625 19.1641 0 19.6797 0 20.3008C0 20.9453 0.515625 21.4609 1.16016 21.4609Z" fill="black" fill-opacity="0.85"/>
<path d="M5.30858 9.27344C6.24608 9.27344 7.00781 8.51172 7.00781 7.5625C7.00781 6.63672 6.24608 5.875 5.30858 5.875C4.37108 5.875 3.60938 6.63672 3.60938 7.5625C3.60938 8.51172 4.37108 9.27344 5.30858 9.27344ZM5.30858 15.6484C6.24608 15.6484 7.00781 14.8867 7.00781 13.9375C7.00781 13 6.24608 12.2383 5.30858 12.2383C4.37108 12.2383 3.60938 13 3.60938 13.9375C3.60938 14.8867 4.37108 15.6484 5.30858 15.6484ZM5.30858 22.0117C6.24608 22.0117 7.00781 21.25 7.00781 20.3008C7.00781 19.375 6.24608 18.6133 5.30858 18.6133C4.37108 18.6133 3.60938 19.375 3.60938 20.3008C3.60938 21.25 4.37108 22.0117 5.30858 22.0117Z" fill="black" fill-opacity="0.85"/>
<path d="M10.6172 9.85938C11.8711 9.85938 12.9023 8.83984 12.9023 7.5625C12.9023 6.30859 11.8711 5.28906 10.6172 5.28906C9.35156 5.28906 8.32031 6.30859 8.32031 7.5625C8.32031 8.83984 9.35156 9.85938 10.6172 9.85938ZM10.6172 16.2344C11.8711 16.2344 12.9023 15.2031 12.9023 13.9375C12.9023 12.6836 11.8711 11.6523 10.6172 11.6523C9.35156 11.6523 8.32031 12.6836 8.32031 13.9375C8.32031 15.2031 9.35156 16.2344 10.6172 16.2344ZM10.6172 22.5977C11.8711 22.5977 12.9023 21.5781 12.9023 20.3008C12.9023 19.0469 11.8711 18.0273 10.6172 18.0273C9.35156 18.0273 8.32031 19.0469 8.32031 20.3008C8.32031 21.5781 9.35156 22.5977 10.6172 22.5977Z" fill="black" fill-opacity="0.85"/>
<path d="M14.625 13.9375C14.6016 16.1992 14.7891 18.3672 15.4102 20.582C16.125 22.9961 17.4844 23.8516 20.3438 23.8516H21C27.9844 23.8516 34.207 19.293 34.207 13.9375C34.207 8.58203 27.9844 4 21 4H20.3438C17.4961 4 16.1367 4.86719 15.4102 7.28125C14.7891 9.50781 14.6016 11.6758 14.625 13.9375Z" fill="black" fill-opacity="0.85"/>
</svg>
