<svg width="28" height="28" viewBox="0 0 28 28" fill="none" xmlns="http://www.w3.org/2000/svg">
<path d="M13.9531 25.9062C20.4922 25.9062 25.9062 20.4805 25.9062 13.9531C25.9062 7.41406 20.4805 2 13.9414 2C7.41406 2 2 7.41406 2 13.9531C2 20.4805 7.42578 25.9062 13.9531 25.9062Z" fill="black" fill-opacity="0.85"/>
<path d="M14.1289 21.1836C13.7891 21.1836 13.5312 20.9375 13.5312 20.5742V19.7539C10.9414 19.4492 9.30078 17.293 9.30078 13.9648C9.30078 10.707 10.9648 8.53906 13.5312 8.22266V7.41406C13.5312 7.05078 13.7773 6.81641 14.1289 6.81641C14.4688 6.81641 14.7266 7.05078 14.7266 7.41406V8.19922C16.4375 8.375 17.7969 9.39453 18.3242 10.8359C18.3828 11.0352 18.4297 11.2227 18.4297 11.4336C18.4297 11.8672 18.1367 12.1719 17.6914 12.1719C17.2578 12.1719 17.0586 12.0078 16.8945 11.5273C16.6367 10.5781 15.793 9.86328 14.7266 9.6875V13.625H17.7969C18.2891 13.625 18.6055 13.9297 18.6055 14.4453V15.0547C18.6055 17.7969 17.2344 19.5664 14.7266 19.7656V20.5742C14.7266 20.9375 14.4688 21.1836 14.1289 21.1836ZM13.5312 18.2539V9.71094C11.9258 10.0508 10.9297 11.6445 10.9297 13.9648C10.9297 16.3203 11.9258 17.9141 13.5312 18.2539ZM14.7266 18.3008C16.1797 18.0781 17.0352 16.9531 17.0352 15.3242V15.0547H14.7266V18.3008Z" fill="white"/>
</svg>
