<svg width="28" height="28" viewBox="0 0 28 28" fill="none" xmlns="http://www.w3.org/2000/svg">
<g clip-path="url(#clip0_2124_24610)">
<path d="M6.45605 23.7734C6.45605 25.6016 7.7334 26.8203 9.64355 26.8203H18.3271C20.2373 26.8203 21.5146 25.6016 21.5146 23.7734V5.04688C21.5146 3.21875 20.2373 2 18.3271 2H9.64355C7.7334 2 6.45605 3.21875 6.45605 5.04688V23.7734ZM8.34277 22.8477V5.97266H19.6279V22.8477H8.34277ZM14.0029 25.6602C13.4404 25.6602 12.9834 25.2031 12.9834 24.6406C12.9834 24.0898 13.4404 23.6328 14.0029 23.6328C14.5537 23.6328 15.0107 24.0898 15.0107 24.6406C15.0107 25.2031 14.5537 25.6602 14.0029 25.6602ZM14.0029 4.67188C13.6162 4.67188 13.3115 4.35547 13.3115 3.96875C13.3115 3.59375 13.6162 3.28906 14.0029 3.28906C14.3896 3.28906 14.6826 3.59375 14.6826 3.96875C14.6826 4.35547 14.3896 4.67188 14.0029 4.67188Z" fill="black" fill-opacity="0.85"/>
<path d="M22.0889 25.7773C22.9795 26.6562 24.4209 26.668 25.2998 25.7773C26.1904 24.8984 26.1904 23.457 25.3115 22.5664L5.88184 3.14845C5.00293 2.26954 3.5498 2.25782 2.65918 3.14845C1.78027 4.02735 1.78027 5.4922 2.65918 6.35939L22.0889 25.7773Z" fill="white"/>
<path d="M23.0615 24.8047C23.4131 25.168 23.999 25.1562 24.3389 24.8047C24.6904 24.4648 24.6904 23.8906 24.3389 23.5273L4.9209 4.1211C4.56934 3.76954 3.9834 3.75782 3.63184 4.1211C3.29199 4.46095 3.29199 5.05859 3.63184 5.39845L23.0615 24.8047Z" fill="black" fill-opacity="0.85"/>
</g>
<defs>
<clipPath id="clip0_2124_24610">
<rect width="23.9692" height="24.832" fill="white" transform="translate(2 2)"/>
</clipPath>
</defs>
</svg>
