<svg width="28" height="28" viewBox="0 0 28 28" fill="none" xmlns="http://www.w3.org/2000/svg">
<path d="M11.4355 26.7017L22.0762 13.0025C22.2754 12.7564 22.3809 12.522 22.3809 12.2525C22.3809 11.8071 22.041 11.4673 21.5488 11.4673H14.916L18.4199 2.35011C18.8769 1.14308 17.5996 0.48683 16.8262 1.49464L6.18554 15.1821C5.97461 15.44 5.86914 15.6743 5.86914 15.9321C5.86914 16.3892 6.2207 16.729 6.71289 16.729H13.3457L9.84179 25.8345C9.37304 27.0415 10.6621 27.6978 11.4355 26.7017ZM12.127 23.5493L16.041 14.9829H8.79882L16.4512 4.82277L16.123 4.64699L12.209 13.2134H19.4512L11.7988 23.3735L12.127 23.5493Z" fill="black" fill-opacity="0.85"/>
<path d="M21.3501 24.5454C22.2407 25.436 23.6939 25.436 24.561 24.5454C25.4517 23.6782 25.4517 22.2134 24.561 21.3345L6.87745 3.65088C5.98682 2.76026 4.5337 2.76026 3.65479 3.6626C2.77589 4.52979 2.78761 5.98291 3.65479 6.86182L21.3501 24.5454Z" fill="white"/>
<path d="M22.3233 23.5728C22.6748 23.9243 23.2608 23.9243 23.6006 23.5728C23.9522 23.2329 23.9522 22.6587 23.6006 22.2954L5.91699 4.61181C5.56543 4.26025 4.96777 4.26025 4.62793 4.61181C4.28809 4.95165 4.28809 5.54931 4.62793 5.88915L22.3233 23.5728Z" fill="black" fill-opacity="0.85"/>
</svg>
