<svg width="28" height="28" viewBox="0 0 28 28" fill="none" xmlns="http://www.w3.org/2000/svg">
<g clip-path="url(#clip0_2124_67746)">
<path d="M13.9531 25.9062C20.4922 25.9062 25.9062 20.4805 25.9062 13.9531C25.9062 7.41406 20.4805 2 13.9414 2C7.41406 2 2 7.41406 2 13.9531C2 20.4805 7.42578 25.9062 13.9531 25.9062ZM13.9531 23.9141C8.42188 23.9141 4.00391 19.4844 4.00391 13.9531C4.00391 8.42188 8.41016 3.99219 13.9414 3.99219C19.4727 3.99219 23.9141 8.42188 23.9141 13.9531C23.9141 19.4844 19.4844 23.9141 13.9531 23.9141Z" fill="black" fill-opacity="0.85"/>
<path d="M6.875 18.1719C6.875 18.4531 7.07422 18.6406 7.35547 18.6406H7.68359C7.96484 18.6406 8.15234 18.4531 8.15234 18.1719V17.3516C8.22266 17.3633 8.39844 17.3633 8.53906 17.3633H19.3672C19.5078 17.3633 19.6836 17.3633 19.7539 17.3516V18.1719C19.7539 18.4531 19.9414 18.6406 20.2227 18.6406H20.5508C20.8438 18.6406 21.0312 18.4531 21.0312 18.1719V14.8438C21.0312 13.7773 20.4336 13.1914 19.3672 13.1914H8.53906C7.47266 13.1914 6.875 13.7773 6.875 14.8438V18.1719ZM8.22266 12.3945H9.64062V11.6094C9.64062 11.082 9.92188 10.7891 10.4609 10.7891H12.5469C13.0625 10.7891 13.3555 11.082 13.3555 11.6094V12.3945H14.6211V11.6094C14.6211 11.082 14.9141 10.7891 15.4648 10.7891H17.4102C17.9844 10.7891 18.2773 11.082 18.2773 11.6094V12.3945H19.6953V10.8008C19.6953 9.78125 19.1328 9.25391 18.1367 9.25391H9.76953C8.77344 9.25391 8.22266 9.78125 8.22266 10.8008V12.3945Z" fill="black" fill-opacity="0.85"/>
</g>
<defs>
<clipPath id="clip0_2124_67746">
<rect width="23.9062" height="23.918" fill="white" transform="translate(2 2)"/>
</clipPath>
</defs>
</svg>
