<svg width="28" height="28" viewBox="0 0 28 28" fill="none" xmlns="http://www.w3.org/2000/svg">
<path d="M6.99219 24.8555C7.55469 24.8555 7.90625 24.5859 8.08203 24L13.707 5.97656H13.7891L19.4258 24.0117C19.6016 24.5977 19.9414 24.8555 20.5273 24.8555C21.1719 24.8555 21.6406 24.4336 21.6406 23.8594C21.6406 23.7188 21.6055 23.5078 21.5117 23.2266L15.1836 4.14844C14.9609 3.49219 14.5156 3.07031 13.7656 3.07031C12.9805 3.07031 12.5352 3.48047 12.3125 4.14844L5.98438 23.2383C5.89062 23.5195 5.86719 23.7188 5.86719 23.8594C5.86719 24.4336 6.33594 24.8555 6.99219 24.8555ZM5 14.3789C5 14.8008 5.33984 15.1406 5.76172 15.1406H21.7344C22.1562 15.1406 22.4961 14.8008 22.4961 14.3789C22.4961 13.957 22.1562 13.6172 21.7344 13.6172H5.76172C5.33984 13.6172 5 13.957 5 14.3789ZM5 18.5859C5 19.0078 5.33984 19.3477 5.76172 19.3477H21.7344C22.1562 19.3477 22.4961 19.0078 22.4961 18.5859C22.4961 18.1641 22.1562 17.8242 21.7344 17.8242H5.76172C5.33984 17.8242 5 18.1641 5 18.5859Z" fill="black" fill-opacity="0.85"/>
</svg>
