<svg width="28" height="28" viewBox="0 0 28 28" fill="none" xmlns="http://www.w3.org/2000/svg">
<path d="M3.67969 24.5742H23.9531C26.4141 24.5742 27.6328 23.3672 27.6328 20.9531V6.63281C27.6328 4.21875 26.4141 3 23.9531 3H3.67969C1.23047 3 0 4.21875 0 6.63281V20.9531C0 23.3672 1.23047 24.5742 3.67969 24.5742Z" fill="black" fill-opacity="0.85"/>
<path d="M16.5469 15.082C15.9258 15.082 15.5391 14.8008 15.5391 14.0742V8.55469C15.5391 7.98047 15.8906 7.58203 16.418 7.58203C16.957 7.58203 17.3086 7.94531 17.3086 8.53125V10.4414L17.1328 12.3281L18.8789 10.4648L22.5 6.83203C22.6758 6.65625 22.8984 6.55078 23.2031 6.55078C23.7305 6.55078 24.082 6.91406 24.082 7.46484C24.082 7.69922 23.9648 7.93359 23.7891 8.09766L20.1562 11.7305L18.2695 13.5L20.0625 13.3125H22.0898C22.6641 13.3125 23.0391 13.6641 23.0391 14.1914C23.0391 14.7305 22.6758 15.082 22.1133 15.082H16.5469Z" fill="white"/>
</svg>
