<svg width="28" height="28" viewBox="0 0 28 28" fill="none" xmlns="http://www.w3.org/2000/svg">
<path d="M13.9531 25.9062C20.4922 25.9062 25.9062 20.4805 25.9062 13.9531C25.9062 7.41406 20.4805 2 13.9414 2C7.41406 2 2 7.41406 2 13.9531C2 20.4805 7.42578 25.9062 13.9531 25.9062ZM13.9531 23.9141C8.42188 23.9141 4.00391 19.4844 4.00391 13.9531C4.00391 8.42188 8.41016 3.99219 13.9414 3.99219C19.4727 3.99219 23.9141 8.42188 23.9141 13.9531C23.9141 19.4844 19.4844 23.9141 13.9531 23.9141Z" fill="black" fill-opacity="0.85"/>
<path d="M20.7031 14.9609L20.6562 10.8477C20.6562 10.6484 20.5625 10.4258 20.4336 10.2852C20.1289 9.96875 19.6836 9.96875 19.3672 10.2852C19.2266 10.4258 19.1328 10.625 19.1445 10.8242L19.168 12.5703L19.2031 13.2031L18.8281 12.8047L13.4492 7.42578C13.1445 7.12109 12.6758 7.12109 12.3711 7.42578C12.0664 7.74219 12.0664 8.19922 12.3711 8.50391L17.75 13.8828L18.1719 14.2578L17.5039 14.2344L15.7695 14.2109C15.5586 14.2109 15.3711 14.2812 15.2305 14.4336C14.9258 14.7383 14.9258 15.1719 15.2422 15.4766C15.3594 15.6172 15.5703 15.6992 15.7812 15.7109L19.9062 15.7578C20.3281 15.7695 20.7031 15.3945 20.7031 14.9609ZM7.17969 12.957L7.22656 17.0938C7.23828 17.3047 7.32031 17.5156 7.4375 17.6445C7.75391 17.9492 8.21094 17.9492 8.51562 17.6445C8.65625 17.4922 8.71484 17.3047 8.72656 17.1055L8.69141 15.3594L8.65625 14.7031L9.05469 15.125L14.4336 20.4922C14.7383 20.8086 15.1836 20.7969 15.5 20.4922C15.8164 20.1758 15.8164 19.7305 15.5 19.4258L10.1211 14.0352L9.69922 13.6719L10.3672 13.6953L12.1133 13.7305C12.3125 13.7305 12.5 13.6484 12.6523 13.5078C12.957 13.2031 12.957 12.7695 12.6406 12.4414C12.5117 12.3125 12.2891 12.2188 12.1016 12.2188L7.97656 12.1836C7.54297 12.1836 7.17969 12.5117 7.17969 12.957Z" fill="black" fill-opacity="0.85"/>
</svg>
