<svg width="32" height="28" viewBox="0 0 32 28" fill="none" xmlns="http://www.w3.org/2000/svg">
<path d="M31.9922 12.8242V10.8789C31.4766 11.125 30.9492 11.418 30.3984 11.7695L26.1445 14.4414L21.4688 15.0156C18.5391 15.3672 16.8164 17.0547 16.8164 19.5625V21.6602C16.8164 23.4414 17.8359 24.4727 19.582 24.4727H22.8047V22.7617H19.6758C18.9258 22.7617 18.5273 22.293 18.5273 21.4492V19.5625C18.5273 17.9922 19.6523 16.9609 21.6797 16.7031L26.7188 16.082L31.3008 13.2461C31.5352 13.0938 31.7695 12.9531 31.9922 12.8242ZM31.9922 24.4727V22.7617H27.7383V24.4727H31.9922ZM25.2188 26.8867C27.2461 26.8867 28.8281 25.293 28.8281 23.2773C28.8281 21.2383 27.2461 19.6562 25.2188 19.6562C23.1914 19.6562 21.6094 21.2383 21.6094 23.2773C21.6094 25.293 23.1914 26.8867 25.2188 26.8867ZM25.2188 25.1758C24.1406 25.1758 23.3203 24.3438 23.3203 23.2773C23.3203 22.1992 24.1406 21.3672 25.2188 21.3672C26.2852 21.3672 27.1172 22.1992 27.1172 23.2773C27.1172 24.3438 26.2852 25.1758 25.2188 25.1758ZM6.5625 26.8867C8.58984 26.8867 10.1719 25.293 10.1719 23.2773C10.1719 21.2383 8.58984 19.6562 6.5625 19.6562C4.53516 19.6562 2.95312 21.2383 2.95312 23.2773C2.95312 25.293 4.53516 26.8867 6.5625 26.8867ZM6.5625 25.1758C5.48438 25.1758 4.66406 24.3438 4.66406 23.2773C4.66406 22.1992 5.48438 21.3672 6.5625 21.3672C7.64062 21.3672 8.46094 22.1992 8.46094 23.2773C8.46094 24.3438 7.64062 25.1758 6.5625 25.1758ZM0 9.73047V11.4414H1.57031C4.44141 11.4414 6.76172 12.625 8.76562 15.4023L11.3555 16.082C12.3164 16.3281 12.5742 16.9023 12.5742 17.6992V21.5312C12.5742 22.3047 12.1875 22.7617 11.5195 22.7617H8.90625V24.4727H11.8242C13.3477 24.4727 14.2852 23.5234 14.2852 21.9531V17.6992C14.2852 16.2344 13.8398 14.9805 11.8711 14.3594L9.70312 13.6914C8.33203 12.0625 5.94141 9.73047 1.57031 9.73047H0ZM0 22.7617V24.4727H4.06641V22.7617H0Z" fill="black" fill-opacity="0.85"/>
<path d="M15.9961 9.15625C16.5586 9.15625 16.8867 8.83984 16.8984 8.23047L17.0625 2.05469C17.0742 1.45703 16.6055 1 15.9844 1C15.3516 1 14.9062 1.44531 14.918 2.04297L15.0703 8.23047C15.082 8.82812 15.4102 9.15625 15.9961 9.15625ZM15.9961 12.9648C16.6758 12.9648 17.2617 12.4375 17.2617 11.7461C17.2617 11.0664 16.6875 10.5391 15.9961 10.5391C15.3047 10.5391 14.7305 11.0781 14.7305 11.7461C14.7305 12.4258 15.3164 12.9648 15.9961 12.9648Z" fill="black" fill-opacity="0.85"/>
</svg>
