<svg width="28" height="28" viewBox="0 0 28 28" fill="none" xmlns="http://www.w3.org/2000/svg">
<g clip-path="url(#clip0_2124_78045)">
<path d="M3.83203 9.64453H10.2539C10.7109 9.64453 11.0859 9.28125 11.0859 8.82422C11.0859 8.36719 10.7109 7.99219 10.2539 7.99219H3.83203C3.36328 7.99219 3 8.36719 3 8.82422C3 9.28125 3.36328 9.64453 3.83203 9.64453ZM7.21875 25.1367C7.60547 25.1367 7.82812 24.9727 8.13281 24.5391L15 14.3555L21.6797 4.48828C21.8438 4.26562 21.9023 4.06641 21.9023 3.83203C21.9023 3.36328 21.4922 3 21.0117 3C20.6016 3 20.3789 3.12891 20.0508 3.60938L13.3477 13.5586L6.51562 23.625C6.36328 23.8477 6.28125 24.0352 6.28125 24.293C6.28125 24.7969 6.70312 25.1367 7.21875 25.1367ZM17.0859 20.0156C17.0859 20.4727 17.4492 20.8359 17.9062 20.8359H20.3086V23.2383C20.3086 23.6953 20.6719 24.0586 21.1289 24.0586C21.5859 24.0586 21.9609 23.6953 21.9609 23.2383V20.8359H24.3398C24.7969 20.8359 25.1719 20.4727 25.1719 20.0156C25.1719 19.5586 24.7969 19.1836 24.3398 19.1836H21.9609V16.8047C21.9609 16.3359 21.5742 15.9727 21.1289 15.9727C20.6602 15.9727 20.3086 16.3477 20.3086 16.8047V19.1836H17.9062C17.4492 19.1836 17.0859 19.5586 17.0859 20.0156Z" fill="black" fill-opacity="0.85"/>
</g>
<defs>
<clipPath id="clip0_2124_78045">
<rect width="22.1719" height="22.1367" fill="white" transform="translate(3 3)"/>
</clipPath>
</defs>
</svg>
