<svg width="35" height="28" viewBox="0 0 35 28" fill="none" xmlns="http://www.w3.org/2000/svg">
<g clip-path="url(#clip0_2124_89411)">
<path d="M6.24609 21.4599H24.668C26.6719 21.4599 28.3594 21.2724 29.5547 20.0771C30.75 18.8818 30.9258 17.2177 30.9258 15.2138V11.8506C30.9258 9.84668 30.75 8.18262 29.5547 6.98731C28.3594 5.79199 26.6719 5.60449 24.668 5.60449H6.22266C4.25391 5.60449 2.56641 5.79199 1.37109 6.98731C0.175781 8.18262 0 9.8584 0 11.8154V15.2138C0 17.2177 0.175781 18.8818 1.37109 20.0771C2.56641 21.2724 4.25391 21.4599 6.24609 21.4599ZM5.92969 19.5732C4.72266 19.5732 3.45703 19.4091 2.74219 18.706C2.03906 17.9912 1.88672 16.7373 1.88672 15.5302V11.5576C1.88672 10.3272 2.03906 9.07324 2.74219 8.3584C3.45703 7.64356 4.73438 7.49121 5.96484 7.49121H24.9961C26.2031 7.49121 27.4688 7.65528 28.1719 8.3584C28.8867 9.07324 29.0391 10.3154 29.0391 11.5225V15.5302C29.0391 16.7373 28.8867 17.9912 28.1719 18.706C27.4688 19.4091 26.2031 19.5732 24.9961 19.5732H5.92969ZM32.5195 16.5615C33.4453 16.5029 34.6875 15.3193 34.6875 13.5264C34.6875 11.7451 33.4453 10.5615 32.5195 10.5029V16.5615Z" fill="black" fill-opacity="0.85"/>
<path d="M5.30859 18.214H25.6172C26.4258 18.214 26.8945 18.0968 27.2227 17.7687C27.5391 17.4406 27.668 16.9718 27.668 16.1632V10.9015C27.668 10.0929 27.5391 9.62415 27.2227 9.29602C26.8945 8.9679 26.4141 8.85071 25.6172 8.85071H5.34375C4.5 8.85071 4.01953 8.9679 3.70312 9.29602C3.375 9.62415 3.25781 10.1046 3.25781 10.9249V16.1632C3.25781 16.9718 3.375 17.4406 3.70312 17.7687C4.03125 18.0968 4.51172 18.214 5.30859 18.214Z" fill="black" fill-opacity="0.85"/>
<path d="M8.98828 14.4171C8.98828 15.5889 9.94922 16.5264 11.1328 16.5264H12.7969L11.4844 20.0655C10.582 22.503 13.6406 24.1788 15.2461 22.1749L21.6797 14.0889C22.0195 13.6671 22.2188 13.1749 22.2188 12.6475C22.2188 11.4757 21.2578 10.5382 20.0742 10.5382H18.4102L19.7227 6.99909C20.625 4.56159 17.5664 2.8858 15.9609 4.88971L9.52734 12.9757C9.1875 13.3975 8.98828 13.8897 8.98828 14.4171Z" fill="white"/>
<path d="M10.582 14.4171C10.582 14.71 10.8164 14.921 11.1211 14.921H15.0938L12.9727 20.6163C12.7031 21.3663 13.5 21.7764 13.9805 21.1788L20.4023 13.1046C20.5195 12.9522 20.6016 12.7999 20.6016 12.6475C20.6016 12.3546 20.3672 12.1436 20.0625 12.1436H16.0898L18.2109 6.44832C18.4805 5.69832 17.6836 5.28817 17.2031 5.88582L10.7812 13.9483C10.6523 14.1124 10.582 14.2647 10.582 14.4171Z" fill="black" fill-opacity="0.85"/>
</g>
<defs>
<clipPath id="clip0_2124_89411">
<rect width="34.6875" height="19.0646" fill="white" transform="translate(0 4)"/>
</clipPath>
</defs>
</svg>
