<svg width="28" height="28" viewBox="0 0 28 28" fill="none" xmlns="http://www.w3.org/2000/svg">
<g clip-path="url(#clip0_2124_89093)">
<path d="M5 24.8633C5 26.1641 5.75 26.9961 6.94531 26.9961H21.7227C22.9062 26.9961 23.6562 26.1641 23.6562 24.8633V4.14453C23.6562 2.84375 22.9062 2.01172 21.7227 2.01172H6.94531C5.75 2.01172 5 2.84375 5 4.14453V24.8633ZM6.88672 24.4297V4.57812C6.88672 4.10938 7.09766 3.89844 7.56641 3.89844H21.1016C21.5586 3.89844 21.7695 4.10938 21.7695 4.57812V24.4297C21.7695 24.8867 21.5586 25.1094 21.1016 25.1094H7.56641C7.09766 25.1094 6.88672 24.8867 6.88672 24.4297ZM10.25 26H11.7852V22.0859C11.7852 21.8398 11.9141 21.7109 12.1602 21.7109H16.4961C16.7539 21.7109 16.8711 21.8398 16.8711 22.0859V26H18.4062V21.6523C18.4062 20.6445 17.9609 20.1758 17 20.1758H11.6562C10.6953 20.1758 10.25 20.6445 10.25 21.6523V26ZM10.4375 9.01953H12.7227C13.0039 9.01953 13.2031 8.83203 13.2031 8.53906V6.32422C13.2031 6.04297 13.0039 5.84375 12.7227 5.84375H10.4375C10.1562 5.84375 9.98047 6.04297 9.98047 6.32422V8.53906C9.98047 8.83203 10.1562 9.01953 10.4375 9.01953ZM15.9336 9.01953H18.207C18.4883 9.01953 18.6875 8.83203 18.6875 8.53906V6.32422C18.6875 6.04297 18.4883 5.84375 18.207 5.84375H15.9336C15.6406 5.84375 15.4648 6.04297 15.4648 6.32422V8.53906C15.4648 8.83203 15.6406 9.01953 15.9336 9.01953ZM10.4375 13.6602H12.7227C13.0039 13.6602 13.2031 13.4727 13.2031 13.1797V10.9648C13.2031 10.6836 13.0039 10.4844 12.7227 10.4844H10.4375C10.1562 10.4844 9.98047 10.6836 9.98047 10.9648V13.1797C9.98047 13.4727 10.1562 13.6602 10.4375 13.6602ZM15.9336 13.6602H18.207C18.4883 13.6602 18.6875 13.4727 18.6875 13.1797V10.9648C18.6875 10.6836 18.4883 10.4844 18.207 10.4844H15.9336C15.6406 10.4844 15.4648 10.6836 15.4648 10.9648V13.1797C15.4648 13.4727 15.6406 13.6602 15.9336 13.6602ZM10.4375 18.3008H12.7227C13.0039 18.3008 13.2031 18.1016 13.2031 17.8203V15.6055C13.2031 15.3125 13.0039 15.125 12.7227 15.125H10.4375C10.1562 15.125 9.98047 15.3125 9.98047 15.6055V17.8203C9.98047 18.1016 10.1562 18.3008 10.4375 18.3008ZM15.9336 18.3008H18.207C18.4883 18.3008 18.6875 18.1016 18.6875 17.8203V15.6055C18.6875 15.3125 18.4883 15.125 18.207 15.125H15.9336C15.6406 15.125 15.4648 15.3125 15.4648 15.6055V17.8203C15.4648 18.1016 15.6406 18.3008 15.9336 18.3008Z" fill="black" fill-opacity="0.85"/>
</g>
<defs>
<clipPath id="clip0_2124_89093">
<rect width="18.6562" height="24.9961" fill="white" transform="translate(5 2)"/>
</clipPath>
</defs>
</svg>
