<svg width="28" height="31" viewBox="0 0 28 31" fill="none" xmlns="http://www.w3.org/2000/svg">
<path d="M3.98438 24.668C4.59375 24.668 4.96875 24.293 4.96875 23.6719V13.5352C4.96875 12.9141 4.59375 12.5391 3.98438 12.5391C3.38672 12.5391 3 12.9141 3 13.5234V23.6836C3 24.293 3.38672 24.668 3.98438 24.668ZM3.98438 16.4766H8.12109V14.9414H3.98438V16.4766ZM15.7969 30.2578C21.7148 30.2578 24.2344 28.957 24.2344 25.7695V5.42578C24.2344 2.00391 21.1289 0 15.7969 0C10.4648 0 7.35938 2.00391 7.35938 5.42578V25.7695C7.35938 28.957 9.87891 30.2578 15.7969 30.2578ZM15.7969 12.4805C14.6484 12.4805 12.8906 12.5625 12.2812 12.5625C11.3672 12.5625 10.9805 12.2109 10.8867 11.2734L10.6875 9C10.5352 7.25391 11.7656 6.55078 15.7969 6.55078C19.8281 6.55078 21.0703 7.25391 20.9062 9L20.707 11.2734C20.625 12.2109 20.2266 12.5625 19.3242 12.5625C18.7031 12.5625 16.8867 12.4805 15.7969 12.4805ZM15.7969 25.3828C11.7305 25.3828 10.4883 24.7734 10.7461 22.9922L10.8984 21.8906C11.0977 20.4492 12.3047 19.957 15.7969 19.957C19.3008 19.957 20.5078 20.4492 20.707 21.8906L20.8594 22.9922C21.1055 24.7734 19.875 25.3828 15.7969 25.3828Z" fill="black" fill-opacity="0.85"/>
</svg>
