<svg width="28" height="29" viewBox="0 0 28 29" fill="none" xmlns="http://www.w3.org/2000/svg">
<path d="M0 14.2254C0 20.7645 5.42578 26.1785 11.9531 26.1785C18.4922 26.1785 23.9062 20.7645 23.9062 14.2254C23.9062 8.45979 19.6992 3.57307 14.2148 2.49495V0.830886C14.2148 -0.00114524 13.6406 -0.223801 13.0078 0.23323L9.26953 2.84651C8.73047 3.22151 8.71875 3.78401 9.26953 4.17073L12.9961 6.79573C13.6406 7.26448 14.2148 7.04182 14.2148 6.19807V4.53401C18.6445 5.54182 21.9023 9.47932 21.9023 14.2254C21.9023 19.7567 17.4844 24.1864 11.9531 24.1864C6.42188 24.1864 1.98047 19.7567 1.99219 14.2254C2.00391 10.8973 3.62109 7.95589 6.11719 6.17464C6.59766 5.81135 6.75 5.26057 6.45703 4.76839C6.16406 4.28792 5.51953 4.15901 5.00391 4.55745C1.99219 6.74885 0 10.2879 0 14.2254Z" fill="black" fill-opacity="0.85"/>
<path d="M8.46113 19.1239C10.1955 19.1239 11.4025 17.8231 11.4025 15.9715C11.4025 14.3426 10.465 13.077 8.9416 13.077C7.88691 13.077 7.14863 13.6981 6.85566 14.6121H6.80878C6.80878 13.8035 6.86738 13.1942 6.99628 12.6903C7.1955 11.8699 7.61738 11.0965 8.46113 11.0965C9.04707 11.0965 9.43378 11.4012 9.6916 11.9168C9.86738 12.2098 10.0783 12.409 10.4299 12.409C10.9221 12.409 11.1096 12.0692 11.1096 11.741C11.1096 11.5184 11.0627 11.3192 10.969 11.1317C10.594 10.3231 9.62127 9.78406 8.48457 9.78406C6.258 9.78406 5.43769 11.8699 5.34394 13.991C5.25019 14.9637 5.34394 16.0184 5.61347 16.827C6.05878 18.1629 7.008 19.1239 8.46113 19.1239ZM8.43769 17.8114C7.54707 17.8114 7.04316 16.8973 7.04316 15.9949C7.04316 15.0692 7.58221 14.2957 8.4494 14.2957C9.35175 14.2957 9.83222 15.116 9.83222 16.0418C9.83222 16.9559 9.32831 17.8114 8.43769 17.8114ZM15.8674 19.1121C18.1877 19.1121 18.9846 16.7449 18.9846 14.4364C18.9846 12.1278 18.176 9.77234 15.8674 9.77234C13.5588 9.77234 12.7502 12.1395 12.7502 14.4364C12.7502 16.7684 13.5705 19.1121 15.8674 19.1121ZM15.8674 17.7879C14.8947 17.7879 14.4025 16.3465 14.4025 14.4364C14.4025 12.5379 14.8947 11.1082 15.8674 11.1082C16.8518 11.1082 17.344 12.5379 17.344 14.4364C17.344 16.3465 16.8518 17.7879 15.8674 17.7879Z" fill="black" fill-opacity="0.85"/>
</svg>
