<svg width="28" height="28" viewBox="0 0 28 28" fill="none" xmlns="http://www.w3.org/2000/svg">
<path d="M16.1749 15.3008C16.1749 16.8477 14.792 17.7031 14.792 18.7344C14.792 19.3438 14.9444 19.6602 15.3311 20.1758C15.8936 20.9258 14.8389 21.6758 14.2764 20.9609C13.7256 20.2695 13.4913 19.625 13.4913 18.8164C13.4913 17.2344 14.8506 16.4375 14.8506 15.3008C14.8506 14.1523 13.4913 13.3672 13.4913 11.7734C13.4913 10.9883 13.7256 10.3438 14.2881 9.64062C14.8506 8.91406 15.9053 9.66406 15.3428 10.4141C14.9444 10.9414 14.792 11.2695 14.792 11.8555C14.792 12.9102 16.1749 13.7656 16.1749 15.3008ZM19.9249 15.3008C19.9249 16.8477 18.542 17.7031 18.542 18.7344C18.542 19.3438 18.7061 19.6602 19.0928 20.1758C19.6436 20.9258 18.6006 21.6758 18.0381 20.9609C17.4874 20.2695 17.2413 19.625 17.2413 18.8164C17.2413 17.2344 18.6006 16.4375 18.6006 15.3008C18.6006 14.1523 17.2413 13.3672 17.2413 11.7734C17.2413 10.9883 17.4874 10.3438 18.0499 9.64062C18.6124 8.91406 19.6553 9.66406 19.0928 10.4141C18.7061 10.9414 18.542 11.2695 18.542 11.8555C18.542 12.9102 19.9249 13.7656 19.9249 15.3008ZM23.6866 15.3008C23.6866 16.8477 22.3038 17.7031 22.3038 18.7344C22.3038 19.3438 22.4561 19.6602 22.8428 20.1758C23.4053 20.9258 22.3506 21.6758 21.7999 20.9609C21.2374 20.2695 21.003 19.625 21.003 18.8164C21.003 17.2344 22.3624 16.4375 22.3624 15.3008C22.3624 14.1523 21.003 13.3672 21.003 11.7734C21.003 10.9883 21.2374 10.3438 21.7999 9.64062C22.3624 8.91406 23.417 9.66406 22.8545 10.4141C22.4561 10.9414 22.3038 11.2695 22.3038 11.8555C22.3038 12.9102 23.6866 13.7656 23.6866 15.3008ZM27.1084 21.8281C28.0694 18.3242 25.5264 16.8008 19.2452 16.8008C16.21 16.8008 13.0577 17.1055 10.6436 17.6094L11.0655 18.1953C11.71 12.957 10.1045 8.66797 6.57719 6.81641L6.91704 8.25781C8.28813 4.39062 5.85063 2 3.61235 2C1.92485 2 0.471726 3.3125 1.18657 6.23047L5.59282 24.1133C6.02641 25.8711 7.18657 26.8086 8.92094 26.8086H22.5967C25.0108 26.8086 26.0772 25.6484 27.1084 21.8281Z" fill="black" fill-opacity="0.85"/>
</svg>
