<svg width="28" height="31" viewBox="0 0 28 31" fill="none" xmlns="http://www.w3.org/2000/svg">
<g clip-path="url(#clip0_2124_24578)">
<path d="M12.8281 18.5859C13.3672 18.5859 13.625 18.2344 14.2812 18.2344C14.9727 18.2344 15.1367 18.5859 15.7227 18.5859C16.332 18.5859 16.7305 18.0234 17.1055 17.4961C17.5391 16.8867 17.6797 16.2773 17.7031 16.2422C17.668 16.2188 16.5195 15.7734 16.5195 14.4727C16.5195 13.3359 17.4219 12.8203 17.4805 12.7852C16.8711 11.9297 15.9805 11.9062 15.7227 11.9062C15.0547 11.9062 14.5273 12.3164 14.1758 12.3164C13.8125 12.3164 13.332 11.9297 12.7578 11.9297C11.6562 11.9297 10.5547 12.832 10.5547 14.5547C10.5547 15.6211 10.9531 16.7461 11.4688 17.4727C11.9023 18.0703 12.2773 18.5859 12.8281 18.5859ZM14.2344 11.8359C14.6211 11.8359 15.1367 11.5547 15.418 11.1914C15.6992 10.8633 15.8867 10.418 15.8867 9.96094C15.8867 9.89062 15.8867 9.83203 15.8633 9.78516C15.418 9.80859 14.9023 10.0781 14.5625 10.4414C14.3047 10.7344 14.1055 11.1914 14.1055 11.6484C14.1055 11.7188 14.1055 11.7891 14.1172 11.8008C14.1406 11.8242 14.1758 11.8359 14.2344 11.8359ZM5.67969 25.9688H22.5312C24.9805 25.9688 26.2109 24.75 26.2109 22.3477V6.96094C26.2109 4.53516 24.9805 3.32812 22.5312 3.32812H5.67969C3.21875 3.32812 2 4.53516 2 6.96094V22.3477C2 24.7617 3.21875 25.9688 5.67969 25.9688ZM5.70312 24.082C4.53125 24.082 3.88672 23.4609 3.88672 22.2422V7.05469C3.88672 5.83594 4.53125 5.21484 5.70312 5.21484H22.5078C23.6797 5.21484 24.3242 5.83594 24.3242 7.05469V22.2422C24.3242 23.4609 23.668 24.082 22.5078 24.082H5.70312ZM5.15234 29.4492H9.42969C9.92188 29.4492 10.3086 29.0508 10.3086 28.5586C10.3086 28.0664 9.92188 27.668 9.42969 27.668H5.15234C4.67188 27.668 4.27344 28.0664 4.27344 28.5586C4.27344 29.0508 4.67188 29.4492 5.15234 29.4492ZM6.40625 28.5H8.17578V24.9727H6.40625V28.5ZM18.7812 29.4492H23.0586C23.5508 29.4492 23.9375 29.0508 23.9375 28.5586C23.9375 28.0664 23.5508 27.668 23.0586 27.668H18.7812C18.3008 27.668 17.9023 28.0664 17.9023 28.5586C17.9023 29.0508 18.3008 29.4492 18.7812 29.4492ZM20.0352 28.5H21.8047V24.9727H20.0352V28.5ZM6.40625 4.24219H8.17578V0.878906C8.17578 0.398438 7.78906 0 7.29688 0C6.80469 0 6.40625 0.398438 6.40625 0.878906V4.24219ZM20.0352 4.24219H21.8047V0.878906C21.8047 0.398438 21.418 0 20.9258 0C20.4219 0 20.0352 0.398438 20.0352 0.878906V4.24219Z" fill="black" fill-opacity="0.85"/>
</g>
<defs>
<clipPath id="clip0_2124_24578">
<rect width="24.2109" height="30.7852" fill="white" transform="translate(2)"/>
</clipPath>
</defs>
</svg>
