<svg width="38" height="28" viewBox="0 0 38 28" fill="none" xmlns="http://www.w3.org/2000/svg">
<g clip-path="url(#clip0_2124_24540)">
<path d="M11.9443 23.5156H34.0811C36.5186 23.5156 37.7607 22.2969 37.7607 19.8828V8.62109C37.7607 6.21875 36.5186 5 34.0811 5H11.9443C9.4834 5 8.26465 6.20703 8.26465 8.62109V19.8828C8.26465 22.2969 9.4834 23.5156 11.9443 23.5156ZM12.7178 11.4453C12.3779 11.4453 12.1787 11.2344 12.1787 10.9062V9.79297C12.1787 9.46484 12.3779 9.25391 12.7178 9.25391H13.8193C14.1592 9.25391 14.3701 9.46484 14.3701 9.79297V10.9062C14.3701 11.2344 14.1592 11.4453 13.8193 11.4453H12.7178ZM16.5967 11.4453C16.2568 11.4453 16.0576 11.2344 16.0576 10.9062V9.79297C16.0576 9.46484 16.2568 9.25391 16.5967 9.25391H17.71C18.0498 9.25391 18.2607 9.46484 18.2607 9.79297V10.9062C18.2607 11.2344 18.0498 11.4453 17.71 11.4453H16.5967ZM20.4873 11.4453C20.1592 11.4453 19.9482 11.2344 19.9482 10.9062V9.79297C19.9482 9.46484 20.1592 9.25391 20.4873 9.25391H21.5889C21.9287 9.25391 22.1396 9.46484 22.1396 9.79297V10.9062C22.1396 11.2344 21.9287 11.4453 21.5889 11.4453H20.4873ZM24.3896 11.4453C24.0498 11.4453 23.8389 11.2344 23.8389 10.9062V9.79297C23.8389 9.46484 24.0498 9.25391 24.3896 9.25391H25.4912C25.8193 9.25391 26.0303 9.46484 26.0303 9.79297V10.9062C26.0303 11.2344 25.8193 11.4453 25.4912 11.4453H24.3896ZM28.2686 11.4453C27.9287 11.4453 27.7178 11.2344 27.7178 10.9062V9.79297C27.7178 9.46484 27.9287 9.25391 28.2686 9.25391H29.3818C29.71 9.25391 29.9209 9.46484 29.9209 9.79297V10.9062C29.9209 11.2344 29.71 11.4453 29.3818 11.4453H28.2686ZM32.1592 11.4453C31.8193 11.4453 31.6084 11.2344 31.6084 10.9062V9.79297C31.6084 9.46484 31.8193 9.25391 32.1592 9.25391H33.2607C33.6006 9.25391 33.7998 9.46484 33.7998 9.79297V10.9062C33.7998 11.2344 33.6006 11.4453 33.2607 11.4453H32.1592ZM12.7178 15.3359C12.3779 15.3359 12.1787 15.125 12.1787 14.7969V13.6836C12.1787 13.3555 12.3779 13.1445 12.7178 13.1445H13.8193C14.1592 13.1445 14.3701 13.3555 14.3701 13.6836V14.7969C14.3701 15.125 14.1592 15.3359 13.8193 15.3359H12.7178ZM16.5967 15.3359C16.2568 15.3359 16.0576 15.125 16.0576 14.7969V13.6836C16.0576 13.3555 16.2568 13.1445 16.5967 13.1445H17.71C18.0498 13.1445 18.2607 13.3555 18.2607 13.6836V14.7969C18.2607 15.125 18.0498 15.3359 17.71 15.3359H16.5967ZM20.4873 15.3359C20.1592 15.3359 19.9482 15.125 19.9482 14.7969V13.6836C19.9482 13.3555 20.1592 13.1445 20.4873 13.1445H21.5889C21.9287 13.1445 22.1396 13.3555 22.1396 13.6836V14.7969C22.1396 15.125 21.9287 15.3359 21.5889 15.3359H20.4873ZM24.3896 15.3359C24.0498 15.3359 23.8389 15.125 23.8389 14.7969V13.6836C23.8389 13.3555 24.0498 13.1445 24.3896 13.1445H25.4912C25.8193 13.1445 26.0303 13.3555 26.0303 13.6836V14.7969C26.0303 15.125 25.8193 15.3359 25.4912 15.3359H24.3896ZM28.2686 15.3359C27.9287 15.3359 27.7178 15.125 27.7178 14.7969V13.6836C27.7178 13.3555 27.9287 13.1445 28.2686 13.1445H29.3818C29.71 13.1445 29.9209 13.3555 29.9209 13.6836V14.7969C29.9209 15.125 29.71 15.3359 29.3818 15.3359H28.2686ZM32.1592 15.3359C31.8193 15.3359 31.6084 15.125 31.6084 14.7969V13.6836C31.6084 13.3555 31.8193 13.1445 32.1592 13.1445H33.2607C33.6006 13.1445 33.7998 13.3555 33.7998 13.6836V14.7969C33.7998 15.125 33.6006 15.3359 33.2607 15.3359H32.1592ZM12.7178 19.2266C12.3779 19.2266 12.1787 19.0156 12.1787 18.6875V17.5742C12.1787 17.2461 12.3779 17.0352 12.7178 17.0352H13.8193C14.1592 17.0352 14.3701 17.2461 14.3701 17.5742V18.6875C14.3701 19.0156 14.1592 19.2266 13.8193 19.2266H12.7178ZM16.7256 19.2266C16.3037 19.2266 16.0576 18.9805 16.0576 18.5586V17.6914C16.0576 17.2812 16.3037 17.0352 16.7256 17.0352H29.2529C29.6631 17.0352 29.9209 17.2812 29.9209 17.6914V18.5586C29.9209 18.9805 29.6631 19.2266 29.2529 19.2266H16.7256ZM32.1592 19.2266C31.8193 19.2266 31.6084 19.0156 31.6084 18.6875V17.5742C31.6084 17.2461 31.8193 17.0352 32.1592 17.0352H33.2607C33.6006 17.0352 33.7998 17.2461 33.7998 17.5742V18.6875C33.7998 19.0156 33.6006 19.2266 33.2607 19.2266H32.1592Z" fill="black" fill-opacity="0.85"/>
<path d="M3.6123 19.7305C4.45605 20.9023 5.90918 19.8008 5.21777 18.8281L1.95996 14.2461L5.21777 9.68751C5.90918 8.72657 4.45605 7.61329 3.6123 8.78517L0.272461 13.4258C-0.0908203 13.9414 -0.0908203 14.5742 0.272461 15.0781L3.6123 19.7305Z" fill="black" fill-opacity="0.85"/>
</g>
<defs>
<clipPath id="clip0_2124_24540">
<rect width="37.7607" height="18.5273" fill="white" transform="translate(0 5)"/>
</clipPath>
</defs>
</svg>
