<svg width="29" height="29" viewBox="0 0 29 29" fill="none" xmlns="http://www.w3.org/2000/svg">
<g clip-path="url(#clip0_2124_46010)">
<path d="M12.293 26.5327C16.4062 26.5327 19.3125 24.3062 20.8711 19.9116L22.9336 14.1108C23.0742 13.7124 23.1445 13.3257 23.1445 12.9741C23.1445 11.7319 22.207 10.8647 21.0117 10.8647C20.2031 10.8647 19.4766 11.3452 19.0781 12.271L18.3164 14.146C18.293 14.1929 18.2578 14.228 18.2109 14.228C18.1523 14.228 18.1289 14.1812 18.1289 14.1226V4.72412C18.1289 3.35303 17.2734 2.48584 15.9609 2.48584C15.4805 2.48584 15.0469 2.66162 14.7187 2.96631C14.5664 1.75928 13.793 1.021 12.6328 1.021C11.4961 1.021 10.6992 1.78272 10.5234 2.94288C10.2305 2.64991 9.80859 2.48584 9.38672 2.48584C8.16797 2.48584 7.35937 3.34131 7.35937 4.64209V5.94288C7.04297 5.61475 6.5625 5.43897 6.07031 5.43897C4.85156 5.43897 4.00781 6.32959 4.00781 7.65381V17.7202C4.00781 23.2046 7.33593 26.5327 12.293 26.5327ZM12.2344 24.9155C8.08593 24.9155 5.55469 22.2437 5.55469 17.5327V7.81788C5.55469 7.31397 5.87109 6.97412 6.36328 6.97412C6.84375 6.97412 7.19531 7.31397 7.19531 7.81788V13.8062C7.19531 14.2398 7.54687 14.5327 7.92187 14.5327C8.32031 14.5327 8.68359 14.2398 8.68359 13.8062V4.85303C8.68359 4.34912 9 3.99756 9.48047 3.99756C9.97265 3.99756 10.3125 4.34912 10.3125 4.85303V13.2085C10.3125 13.6421 10.6641 13.9351 11.0508 13.9351C11.4492 13.9351 11.8008 13.6421 11.8008 13.2085V3.39991C11.8008 2.896 12.1406 2.53272 12.6328 2.53272C13.1016 2.53272 13.4414 2.896 13.4414 3.39991V13.2085C13.4414 13.6187 13.7695 13.9351 14.1797 13.9351C14.5781 13.9351 14.9297 13.6187 14.9297 13.2085V4.85303C14.9297 4.34912 15.2695 3.99756 15.75 3.99756C16.2305 3.99756 16.5703 4.34912 16.5703 4.85303V16.3843C16.5703 16.9702 16.9101 17.3101 17.4023 17.3101C17.8242 17.3101 18.1758 17.1226 18.4453 16.5366L20.1328 12.7749C20.3555 12.271 20.789 12.0952 21.1992 12.2476C21.6562 12.4116 21.7969 12.8452 21.5859 13.4194L19.4414 19.4077C18.0117 23.4038 15.5039 24.9155 12.2344 24.9155Z" fill="black" fill-opacity="0.85"/>
</g>
<defs>
<clipPath id="clip0_2124_46010">
<rect width="19.1367" height="26.6836" fill="white" transform="translate(4.00781 1.021)"/>
</clipPath>
</defs>
</svg>
