<svg width="28" height="28" viewBox="0 0 28 28" fill="none" xmlns="http://www.w3.org/2000/svg">
<g clip-path="url(#clip0_2124_88517)">
<path d="M13.9531 25.918C20.4922 25.918 25.9062 20.5039 25.9062 13.9648C25.9062 7.4375 20.4805 2.01172 13.9414 2.01172C7.41406 2.01172 2 7.4375 2 13.9648C2 20.5039 7.42578 25.918 13.9531 25.918Z" fill="black" fill-opacity="0.85"/>
<path d="M8.62115 20.0586C7.00397 18.4531 7.00397 15.9805 8.66803 14.3164L15.3712 7.61331C16.6485 6.33597 18.3946 6.32425 19.6134 7.50784C20.8087 8.71487 20.7735 10.4493 19.4845 11.7266L12.9454 18.2656C12.1837 19.0273 11.0704 19.0742 10.3673 18.3359C9.67584 17.6211 9.69928 16.4609 10.4376 15.7344L14.9728 11.1758C15.254 10.9063 15.6407 10.8828 15.922 11.1641C16.2149 11.4336 16.1798 11.8203 15.8985 12.1016L11.3516 16.6367C11.129 16.8594 11.1173 17.1523 11.3399 17.3516C11.5626 17.5508 11.8087 17.5508 12.0431 17.3164L18.547 10.8243C19.2735 10.086 19.3321 9.11331 18.6759 8.46878C18.0431 7.83597 17.0353 7.87112 16.3204 8.59769L9.66412 15.2539C8.53912 16.3906 8.50397 17.9727 9.62897 19.0742C10.7188 20.1641 12.3126 20.1523 13.4376 19.0273L18.3126 14.1523C18.5704 13.8945 19.0274 13.8828 19.297 14.1406C19.5548 14.375 19.5313 14.8555 19.2853 15.1016L14.3399 20.0352C12.6876 21.6758 10.3438 21.7344 8.62115 20.0586Z" fill="white"/>
</g>
<defs>
<clipPath id="clip0_2124_88517">
<rect width="23.9062" height="23.918" fill="white" transform="translate(2 2)"/>
</clipPath>
</defs>
</svg>
