<svg width="31" height="28" viewBox="0 0 31 28" fill="none" xmlns="http://www.w3.org/2000/svg">
<path d="M0.9375 9.03353C0.433594 9.03353 0 9.46713 0 9.98275C0 10.4984 0.445312 10.9202 0.9375 10.9202L9.85547 10.932C9.9375 10.3109 10.0195 9.66635 10.1484 9.03353H0.9375ZM0.9375 13.4867C0.433594 13.4867 0 13.9437 0 14.4476C0 14.9632 0.433594 15.3734 0.9375 15.3734H9.70312C9.69141 15.0335 9.69141 13.8382 9.70312 13.4867H0.9375ZM0.9375 17.9515C0.433594 17.9515 0 18.3968 0 18.9007C0 19.4163 0.433594 19.8382 0.9375 19.8382L10.1484 19.8499C10.0195 19.2054 9.9375 18.5726 9.85547 17.9632L0.9375 17.9515ZM4.05469 23.2249C3.07031 24.1742 4.34766 25.4749 5.35547 24.5609C7.66406 22.3929 8.13281 18.3617 6.59766 14.4945L6.375 13.932C5.08594 10.6624 5.30859 7.35775 6.99609 5.64682C7.98047 4.6976 6.71484 3.39682 5.68359 4.31088C3.375 6.49057 2.91797 10.4984 4.45312 14.3656L4.6875 14.9281C5.98828 18.221 5.75391 21.5023 4.05469 23.2249Z" fill="black" fill-opacity="0.85"/>
<path d="M11.2851 14.4359C11.2616 16.6976 11.4491 18.8656 12.0702 21.0804C12.7851 23.4945 14.1444 24.3499 17.0038 24.3499H17.6601C24.6444 24.3499 30.8671 19.7913 30.8671 14.4359C30.8671 9.08038 24.6444 4.49835 17.6601 4.49835H17.0038C14.1561 4.49835 12.7968 5.36554 12.0702 7.7796C11.4491 10.0062 11.2616 12.1741 11.2851 14.4359Z" fill="black" fill-opacity="0.85"/>
</svg>
