<svg width="29" height="28" viewBox="0 0 29 28" fill="none" xmlns="http://www.w3.org/2000/svg">
<g clip-path="url(#clip0_2124_24737)">
<path d="M5.92969 13.8477C5.92969 20.9492 8.21484 25.6953 11.6367 25.6953C15.0586 25.6953 17.332 20.9492 17.332 13.8477C17.332 6.73438 15.0586 2 11.6367 2C8.21484 2 5.92969 6.73438 5.92969 13.8477ZM7.81641 13.8477C7.81641 7.87109 9.36328 3.88672 11.6367 3.88672C13.9102 3.88672 15.4453 7.87109 15.4453 13.8477C15.4453 19.8125 13.9102 23.8086 11.6367 23.8086C9.36328 23.8086 7.81641 19.8125 7.81641 13.8477ZM0 13.8477C0 21.2188 2.0625 25.6953 6.96094 25.6953H11.6367V23.8086H6.96094C3.23438 23.8086 1.88672 20.0469 1.88672 13.8477C1.88672 7.64844 3.23438 3.88672 6.96094 3.88672H11.6367V2H6.96094C2.0625 2 0 6.46484 0 13.8477ZM5.56641 6.99219H7.75781V5.45703H5.56641C5.14453 5.45703 4.80469 5.80859 4.80469 6.23047C4.80469 6.65234 5.14453 6.99219 5.56641 6.99219ZM4.78125 10.5898H6.97266V9.05469H4.78125C4.35938 9.05469 4.00781 9.39453 4.00781 9.81641C4.00781 10.2383 4.35938 10.5898 4.78125 10.5898ZM4.47656 14.4688H6.66797V12.9336H4.47656C4.05469 12.9336 3.71484 13.2852 3.71484 13.707C3.71484 14.1289 4.05469 14.4688 4.47656 14.4688ZM4.78125 18.3594H6.97266V16.8242H4.78125C4.35938 16.8242 4.00781 17.1758 4.00781 17.5977C4.00781 18.0195 4.35938 18.3594 4.78125 18.3594ZM5.56641 21.957H7.75781V20.4219H5.56641C5.14453 20.4219 4.80469 20.7617 4.80469 21.1836C4.80469 21.6055 5.14453 21.957 5.56641 21.957Z" fill="black" fill-opacity="0.85"/>
<path d="M13.6641 15.7578L17.2031 18.8984C18.9141 20.4453 21.5625 19.3555 21.5625 16.9766V16.4492H26.2969C27.7383 16.4492 28.8984 15.2891 28.8984 13.8594C28.8984 12.4062 27.7383 11.2578 26.2969 11.2578H21.5625V10.707C21.5625 8.37499 18.9609 7.23827 17.2148 8.77343L13.6641 11.9258C12.4688 12.9688 12.457 14.7031 13.6641 15.7578Z" fill="white"/>
<path d="M14.7305 14.5625L18.2695 17.7031C18.9492 18.3242 19.957 17.9727 19.957 16.9766V14.8555H26.2969C26.8594 14.8555 27.293 14.4102 27.293 13.8594C27.293 13.2852 26.8594 12.8516 26.2969 12.8516H19.957V10.707C19.957 9.74606 18.9844 9.33591 18.2695 9.96872L14.7305 13.1211C14.2383 13.543 14.2383 14.1289 14.7305 14.5625Z" fill="black" fill-opacity="0.85"/>
</g>
<defs>
<clipPath id="clip0_2124_24737">
<rect width="28.8984" height="23.707" fill="white" transform="translate(0 2)"/>
</clipPath>
</defs>
</svg>
