<svg width="28" height="28" viewBox="0 0 28 28" fill="none" xmlns="http://www.w3.org/2000/svg">
<path d="M13.9531 25.9062C20.4922 25.9062 25.9062 20.4805 25.9062 13.9531C25.9062 7.41406 20.4805 2 13.9414 2C7.41406 2 2 7.41406 2 13.9531C2 20.4805 7.42578 25.9062 13.9531 25.9062Z" fill="black" fill-opacity="0.85"/>
<path d="M7.09766 17.9023C6.75781 17.9023 6.41797 17.7031 6.41797 17.1758V10.7422C6.41797 10.2969 6.66406 10.0156 7.09766 10.0156C7.56641 10.0156 7.80078 10.2852 7.80078 10.7422V13.6602H7.88281L9.66406 10.4492C9.80469 10.1914 9.94531 10.0273 10.3086 10.0273C10.707 10.0273 10.918 10.3555 10.918 10.6602C10.918 10.8594 10.8828 10.9883 10.7773 11.1641L9.34766 13.6133L10.9883 16.7539C11.0586 16.8828 11.1055 17.0703 11.1055 17.2344C11.1055 17.6445 10.7891 17.8789 10.4844 17.8789C10.168 17.8789 9.91016 17.7148 9.79297 17.457L8.32812 14.5859L7.8125 15.5V17.1758C7.8125 17.6211 7.55469 17.9023 7.09766 17.9023ZM12.418 17.8789C11.9961 17.8789 11.7266 17.5859 11.7266 17.1523V10.8594C11.7266 10.4141 11.9844 10.1328 12.418 10.1328H14.0117C15.3477 10.1328 16.0625 11.293 16.0625 12.6992C16.0625 14.0117 15.3711 15.2656 13.9297 15.2656H13.1211V17.1523C13.1211 17.5859 12.8516 17.8789 12.418 17.8789ZM13.1211 14.1523H13.6367C14.4102 14.1523 14.6914 13.4844 14.6914 12.6992C14.6914 11.9141 14.4219 11.2461 13.6484 11.2461H13.1211V14.1523ZM17.4805 17.9023C17.0117 17.9023 16.7773 17.6094 16.7773 17.1406V10.7539C16.7773 10.2852 17.0117 10.0156 17.4805 10.0156C17.9258 10.0156 18.1602 10.2852 18.1602 10.7539V13.3086H20.0352V10.7539C20.0352 10.2852 20.2812 10.0156 20.7266 10.0156C21.1953 10.0156 21.4297 10.2852 21.4297 10.7539V17.1406C21.4297 17.6094 21.1953 17.9023 20.7266 17.9023C20.2695 17.9023 20.0352 17.6094 20.0352 17.1406V14.4805H18.1602V17.1406C18.1602 17.6094 17.9375 17.9023 17.4805 17.9023Z" fill="white"/>
</svg>
