<svg width="29" height="29" viewBox="0 0 29 29" fill="none" xmlns="http://www.w3.org/2000/svg">
<g clip-path="url(#clip0_2124_46023)">
<path d="M2.00195 18.512C2.00195 21.9807 4.16992 24.887 7.07617 24.887H9.13867C7.02929 23.3518 6.16211 21.0315 6.16211 18.3948C6.17383 15.4651 7.31054 13.3675 8.31836 12.1018H6.64257C4.02929 12.1018 2.00195 14.9143 2.00195 18.512ZM7.77929 18.4182C7.77929 22.6956 11.1191 26.0003 16.5684 26.0003H18.1622C19.6739 26.0003 20.7989 25.8948 21.4317 25.719C22.3458 25.4964 23.2247 24.9339 23.2247 23.8323C23.2247 23.3753 23.1075 23.0471 22.9668 22.801C22.8731 22.6487 22.8965 22.5315 23.0372 22.4729C23.7637 22.1682 24.3614 21.4885 24.3614 20.5628C24.3614 20.0354 24.209 19.5667 23.9512 19.2503C23.8223 19.0745 23.834 18.9104 24.0567 18.7932C24.5723 18.4885 24.9473 17.8323 24.9473 17.0706C24.9473 16.5198 24.7715 15.9456 24.4668 15.6643C24.2793 15.5003 24.3145 15.3831 24.502 15.2073C24.8653 14.9026 25.0997 14.3753 25.0997 13.7073C25.0997 12.5823 24.2208 11.6565 23.0606 11.6565H18.9356C17.8926 11.6565 17.2012 11.1174 17.2012 10.2502C17.2012 8.69165 19.1582 5.80884 19.1582 3.74634C19.1582 2.65649 18.4551 2.02368 17.5411 2.02368C16.6973 2.02368 16.2872 2.5979 15.8418 3.4768C14.0958 6.86352 11.7754 9.60571 10.0059 11.9495C8.50586 13.9417 7.77929 15.6643 7.77929 18.4182Z" fill="black" fill-opacity="0.85"/>
</g>
<defs>
<clipPath id="clip0_2124_46023">
<rect width="23.0977" height="24.668" fill="white" transform="translate(2.00195 2.02368)"/>
</clipPath>
</defs>
</svg>
