<svg width="28" height="28" viewBox="0 0 28 28" fill="none" xmlns="http://www.w3.org/2000/svg">
<path d="M6.67969 24.5977H20.8945C23.3555 24.5977 24.5742 23.3789 24.5742 20.9648V6.65625C24.5742 4.24219 23.3555 3.02344 20.8945 3.02344H6.67969C4.23047 3.02344 3 4.23047 3 6.65625V20.9648C3 23.3906 4.23047 24.5977 6.67969 24.5977Z" fill="black" fill-opacity="0.85"/>
<path d="M9.84375 18.8438C9.41016 18.8438 9.05859 18.4922 9.05859 18.0586V9.48047C9.05859 9.04688 9.41016 8.68359 9.84375 8.68359C10.2891 8.68359 10.6523 9.04688 10.6523 9.48047V14.625H10.6875L13.3008 11.6953C13.6641 11.2734 14.1562 11.3672 14.4141 11.6367C14.6602 11.8594 14.7422 12.2578 14.4023 12.6094L12.4336 14.6719L14.4023 17.5078C14.7422 18.0117 14.6016 18.4453 14.3086 18.668C13.9805 18.8906 13.4531 18.8672 13.1367 18.3867L11.2852 15.6562L10.6523 16.2656V18.0586C10.6523 18.4922 10.2891 18.8438 9.84375 18.8438ZM16.6758 18.8555C16.2539 18.8555 15.9258 18.5156 15.9258 18.1055V12.1523C15.9258 11.7539 16.2422 11.4375 16.6523 11.4375C17.0508 11.4375 17.3672 11.7539 17.3672 12.1523V12.8906H17.4375C17.5781 12.1172 18.0703 11.4492 18.832 11.4492C19.0781 11.4492 19.2773 11.5195 19.4414 11.6719C19.5703 11.8008 19.6406 11.9766 19.6406 12.2227C19.6406 12.457 19.5469 12.6328 19.418 12.75C19.2188 12.9023 18.9023 12.9609 18.6094 12.9609C17.7188 12.9609 17.4258 13.6992 17.4258 14.5781V18.1055C17.4258 18.5156 17.0977 18.8555 16.6758 18.8555Z" fill="white"/>
</svg>
