<svg width="35" height="29" viewBox="0 0 35 29" fill="none" xmlns="http://www.w3.org/2000/svg">
<g clip-path="url(#clip0_2124_45833)">
<path d="M13.1894 14.9295C13.7402 14.9295 14.1972 14.4724 14.1972 13.9216C14.1972 13.3709 13.7402 12.9138 13.1894 12.9138C12.6386 12.9138 12.1816 13.3709 12.1816 13.9216C12.1816 14.4724 12.6386 14.9295 13.1894 14.9295ZM17.0683 14.9295C17.6191 14.9295 18.0761 14.4724 18.0761 13.9216C18.0761 13.3709 17.6191 12.9138 17.0683 12.9138C16.5175 12.9138 16.0605 13.3709 16.0605 13.9216C16.0605 14.4724 16.5175 14.9295 17.0683 14.9295ZM20.9355 14.9295C21.4863 14.9295 21.9433 14.4724 21.9433 13.9216C21.9433 13.3709 21.4863 12.9138 20.9355 12.9138C20.3847 12.9138 19.9277 13.3709 19.9277 13.9216C19.9277 14.4724 20.3847 14.9295 20.9355 14.9295Z" fill="black" fill-opacity="0.85"/>
<path d="M0.0175781 16.3474C0.0175781 16.8631 0.439453 17.2849 0.955078 17.2849C1.48242 17.2849 1.9043 16.8631 1.9043 16.3474V12.2459C1.9043 12.0584 2.05664 11.906 2.24414 11.906C2.44336 11.906 2.5957 12.0584 2.5957 12.2459V24.6443C2.5957 25.2185 3.05274 25.6756 3.62696 25.6756C4.21289 25.6756 4.66992 25.2185 4.66992 24.6443V17.0974C4.66992 16.9099 4.83399 16.7459 5.02149 16.7459C5.2207 16.7459 5.38477 16.9099 5.38477 17.0974V24.6443C5.38477 25.2185 5.8418 25.6756 6.41602 25.6756C6.99024 25.6756 7.45899 25.2185 7.45899 24.6443V12.2459C7.45899 12.0584 7.61133 11.906 7.79883 11.906C7.98633 11.906 8.15039 12.0584 8.15039 12.2459V16.3474C8.15039 16.8631 8.56055 17.2849 9.08789 17.2849C9.61524 17.2849 10.0254 16.8631 10.0254 16.3474V11.7654C10.0254 9.40991 8.31446 7.86304 5.79492 7.86304H4.25977C1.74024 7.86304 0.0175781 9.40991 0.0175781 11.7654V16.3474ZM5.02149 6.64429C6.31055 6.64429 7.3418 5.61304 7.3418 4.32397C7.3418 3.04663 6.31055 2.01538 5.02149 2.01538C3.74414 2.01538 2.71289 3.04663 2.71289 4.32397C2.71289 5.61304 3.74414 6.64429 5.02149 6.64429ZM24.0996 16.3474C24.0996 16.8631 24.5215 17.2849 25.0371 17.2849C25.5645 17.2849 25.9864 16.8631 25.9864 16.3474V12.2459C25.9864 12.0584 26.1387 11.906 26.3379 11.906C26.5254 11.906 26.6778 12.0584 26.6778 12.2459V24.6443C26.6778 25.2185 27.1348 25.6756 27.709 25.6756C28.2949 25.6756 28.752 25.2185 28.752 24.6443V17.0974C28.752 16.9099 28.916 16.7459 29.1035 16.7459C29.3028 16.7459 29.4668 16.9099 29.4668 17.0974V24.6443C29.4668 25.2185 29.9238 25.6756 30.4981 25.6756C31.0723 25.6756 31.541 25.2185 31.541 24.6443V12.2459C31.541 12.0584 31.6934 11.906 31.8809 11.906C32.0684 11.906 32.2324 12.0584 32.2324 12.2459V16.3474C32.2324 16.8631 32.6426 17.2849 33.1699 17.2849C33.6973 17.2849 34.1192 16.8631 34.1192 16.3474V11.7654C34.1192 9.40991 32.3965 7.86304 29.877 7.86304H28.3418C25.8223 7.86304 24.0996 9.40991 24.0996 11.7654V16.3474ZM29.1035 6.64429C30.3926 6.64429 31.4238 5.61304 31.4238 4.32397C31.4238 3.04663 30.3926 2.01538 29.1035 2.01538C27.8262 2.01538 26.7949 3.04663 26.7949 4.32397C26.7949 5.61304 27.8262 6.64429 29.1035 6.64429Z" fill="black" fill-opacity="0.85"/>
</g>
<defs>
<clipPath id="clip0_2124_45833">
<rect width="34.1016" height="23.8242" fill="white" transform="translate(0.0175781 2.01538)"/>
</clipPath>
</defs>
</svg>
