<svg width="30" height="28" viewBox="0 0 30 28" fill="none" xmlns="http://www.w3.org/2000/svg">
<g clip-path="url(#clip0_2124_24707)">
<path d="M0.201105 18.0924C-0.619207 20.0963 1.23236 21.0455 2.82611 19.8971C4.11517 18.9479 5.41595 17.9986 6.70501 17.0143L6.23626 16.7682C5.06439 18.3619 4.5722 19.7565 4.5722 20.858C4.5722 23.483 7.24407 24.7135 10.0097 23.3307C10.7363 22.9674 10.4784 21.2213 9.13079 21.819C7.37298 22.5924 6.23626 22.2057 6.23626 20.776C6.23626 19.4401 7.22064 17.1783 9.43548 14.2486C10.1386 13.3229 9.01361 12.1275 8.04095 13.1588C6.16595 15.0572 3.57611 16.9557 1.34954 18.8307L1.70111 19.1236L6.98626 6.2447C7.33782 5.37751 5.75579 4.56892 5.25189 5.77595L0.201105 18.0924Z" fill="black" fill-opacity="0.85"/>
<path d="M11.3923 20.5415C11.2165 20.8814 11.5798 21.186 11.8728 21.0337L13.6189 20.1196L12.3415 18.8423L11.3923 20.5415ZM12.8806 17.8579L14.6267 19.604L15.3181 19.2407L29.1228 5.48292C29.697 4.92042 29.697 3.99464 29.1228 3.43214C28.5486 2.85792 27.6228 2.85792 27.0603 3.42042L13.2556 17.1782L12.8806 17.8579Z" fill="black" fill-opacity="0.85"/>
</g>
<defs>
<clipPath id="clip0_2124_24707">
<rect width="29.5536" height="22.1338" fill="white" transform="translate(0 3)"/>
</clipPath>
</defs>
</svg>
