<svg width="28" height="28" viewBox="0 0 28 28" fill="none" xmlns="http://www.w3.org/2000/svg">
<g clip-path="url(#clip0_2124_24652)">
<path d="M13.9531 25.9062C20.4922 25.9062 25.9062 20.4805 25.9062 13.9531C25.9062 7.41406 20.4805 2 13.9414 2C7.41406 2 2 7.41406 2 13.9531C2 20.4805 7.42578 25.9062 13.9531 25.9062ZM13.9531 23.9141C8.42188 23.9141 4.00391 19.4844 4.00391 13.9531C4.00391 8.42188 8.41016 3.99219 13.9414 3.99219C19.4727 3.99219 23.9141 8.42188 23.9141 13.9531C23.9141 19.4844 19.4844 23.9141 13.9531 23.9141Z" fill="black" fill-opacity="0.85"/>
<path d="M7.12109 17.4336C7.28516 17.2344 7.23828 17 7.05078 16.7773C6.35938 16.0039 5.99609 15.0195 5.99609 13.9531C5.99609 12.8867 6.35938 11.9023 7.05078 11.1289C7.23828 10.9062 7.28516 10.6602 7.12109 10.4727C6.96875 10.2617 6.66406 10.2617 6.44141 10.4844C5.58594 11.4102 5.12891 12.6406 5.12891 13.9531C5.12891 15.2539 5.58594 16.4844 6.44141 17.4219C6.66406 17.6445 6.96875 17.6445 7.12109 17.4336ZM20.75 17.4336C20.9141 17.6445 21.2188 17.6445 21.4297 17.4219C22.2852 16.4844 22.7539 15.2539 22.7539 13.9531C22.7539 12.6406 22.2852 11.4102 21.4297 10.4844C21.2188 10.2617 20.9141 10.2617 20.75 10.4727C20.5859 10.6602 20.6328 10.9062 20.832 11.1289C21.5117 11.9023 21.8867 12.8867 21.8867 13.9531C21.8867 15.0195 21.5117 16.0039 20.832 16.7773C20.6328 17 20.5859 17.2344 20.75 17.4336Z" fill="black" fill-opacity="0.85"/>
<path d="M8.80859 15.9922C8.97266 15.793 8.91406 15.5703 8.73828 15.3359C8.44531 14.9609 8.30469 14.4805 8.30469 13.9531C8.30469 13.4258 8.44531 12.9336 8.73828 12.5703C8.91406 12.3359 8.97266 12.1133 8.80859 11.9141C8.63281 11.7031 8.31641 11.7031 8.11719 11.9375C7.67188 12.5 7.41406 13.1914 7.41406 13.9531C7.41406 14.7031 7.67188 15.4062 8.11719 15.957C8.31641 16.1914 8.63281 16.2031 8.80859 15.9922ZM19.0625 15.9922C19.2383 16.2031 19.5664 16.1914 19.7539 15.957C20.1992 15.4062 20.4688 14.7031 20.4688 13.9531C20.4688 13.1914 20.1992 12.5 19.7539 11.9375C19.5664 11.7031 19.2383 11.7031 19.0625 11.9141C18.8984 12.1133 18.957 12.3359 19.1328 12.5703C19.4258 12.9336 19.5781 13.4258 19.5781 13.9531C19.5781 14.4805 19.4258 14.9609 19.1328 15.3359C18.957 15.5703 18.8984 15.793 19.0625 15.9922Z" fill="black" fill-opacity="0.85"/>
<path d="M11.6328 20.6562H16.2734C17.3164 20.6562 18.0195 19.9883 18.0195 18.9805V8.91406C18.0195 7.90625 17.3164 7.23828 16.2734 7.23828H11.6328C10.5898 7.23828 9.88672 7.90625 9.88672 8.91406V18.9805C9.88672 19.9883 10.5898 20.6562 11.6328 20.6562ZM11.7617 19.6133C11.2227 19.6133 10.9297 19.332 10.9297 18.8281V9.06641C10.9297 8.5625 11.2227 8.28125 11.7617 8.28125H16.1445C16.6836 8.28125 16.9766 8.5625 16.9766 9.06641V18.8281C16.9766 19.332 16.6836 19.6133 16.1445 19.6133H11.7617ZM13.168 9.69922H14.7148C14.9727 9.69922 15.1719 9.48828 15.1719 9.24219C15.1719 8.99609 14.9727 8.78516 14.7148 8.78516H13.168C12.9102 8.78516 12.7227 8.99609 12.7227 9.24219C12.7227 9.48828 12.9102 9.69922 13.168 9.69922ZM12.6289 19.168H15.2891C15.4766 19.168 15.5938 19.0391 15.5938 18.8633C15.5938 18.6641 15.4766 18.5352 15.2891 18.5352H12.6289C12.4414 18.5352 12.3125 18.6641 12.3125 18.8633C12.3125 19.0391 12.4414 19.168 12.6289 19.168Z" fill="black" fill-opacity="0.85"/>
</g>
<defs>
<clipPath id="clip0_2124_24652">
<rect width="23.9062" height="24.0117" fill="white" transform="translate(2 2)"/>
</clipPath>
</defs>
</svg>
