<svg width="28" height="28" viewBox="0 0 28 28" fill="none" xmlns="http://www.w3.org/2000/svg">
<path d="M13.9531 25.9062C20.4922 25.9062 25.9062 20.4805 25.9062 13.9531C25.9062 7.41406 20.4805 2 13.9414 2C7.41406 2 2 7.41406 2 13.9531C2 20.4805 7.42578 25.9062 13.9531 25.9062ZM13.9531 23.9141C8.42188 23.9141 4.00391 19.4844 4.00391 13.9531C4.00391 8.42188 8.41016 3.99219 13.9414 3.99219C19.4727 3.99219 23.9141 8.42188 23.9141 13.9531C23.9141 19.4844 19.4844 23.9141 13.9531 23.9141Z" fill="black" fill-opacity="0.85"/>
<path d="M13.9531 19.4492C16.0273 19.4492 17.6797 18.4648 18.2422 16.8828C18.3242 16.6719 18.3477 16.5195 18.3477 16.3438C18.3477 15.8516 18.0312 15.5469 17.5391 15.5469C17.1875 15.5469 16.9531 15.7227 16.7656 16.1211C16.2852 17.2695 15.3008 17.9023 13.9766 17.9023C12.1133 17.9023 10.8594 16.2734 10.8594 13.8477C10.8594 11.4219 12.1133 9.78125 13.9766 9.78125C15.3008 9.78125 16.2852 10.4141 16.7656 11.5742C16.9531 11.9727 17.1875 12.1367 17.5391 12.1367C18.0312 12.1367 18.3477 11.832 18.3477 11.3398C18.3477 11.1523 18.3242 11.0117 18.2422 10.8008C17.668 9.23047 16.0273 8.23438 13.9531 8.23438C10.918 8.23438 8.97266 10.4258 8.97266 13.8477C8.97266 17.2695 10.9062 19.4492 13.9531 19.4492Z" fill="black" fill-opacity="0.85"/>
</svg>
