<svg width="28" height="30" viewBox="0 0 28 30" fill="none" xmlns="http://www.w3.org/2000/svg">
<path d="M14.0312 17.2734C18.7422 17.2734 22.6562 13.3477 22.6562 8.63672C22.6562 3.92578 18.7305 0 14.0078 0C9.29688 0 5.39453 3.92578 5.39453 8.63672C5.39453 13.3477 9.32031 17.2734 14.0312 17.2734ZM14.0312 15.5625C10.1641 15.5625 7.11719 12.5039 7.11719 8.63672C7.11719 4.78125 10.1641 1.71094 14.0078 1.71094C17.875 1.71094 20.9453 4.78125 20.9453 8.63672C20.9453 12.5039 17.8867 15.5625 14.0312 15.5625ZM9.94141 29.8477H18.0742C21.4375 29.8477 24.0273 27.2227 24.0273 23.8945C24.0273 20.5664 21.4375 17.9414 18.0742 17.9414H9.94141C6.58984 17.9414 4 20.5664 4 23.8945C4 27.2227 6.58984 29.8477 9.94141 29.8477ZM9.94141 28.1367C7.53906 28.1367 5.6875 26.2969 5.6875 23.8945C5.6875 21.4922 7.53906 19.6523 9.94141 19.6523H18.0742C20.4883 19.6523 22.3398 21.4922 22.3398 23.8945C22.3398 26.2969 20.4883 28.1367 18.0742 28.1367H9.94141Z" fill="black" fill-opacity="0.85"/>
<path d="M11.0195 8.01562C12.0859 8.01562 12.9414 7.16016 12.9414 6.09375C12.9414 5.01562 12.0859 4.16016 11.0195 4.16016C9.94141 4.16016 9.08594 5.01562 9.08594 6.09375C9.08594 7.16016 9.94141 8.01562 11.0195 8.01562ZM17.0078 8.01562C18.0859 8.01562 18.9414 7.16016 18.9414 6.09375C18.9414 5.01562 18.0859 4.16016 17.0078 4.16016C15.9414 4.16016 15.0859 5.01562 15.0859 6.09375C15.0859 7.16016 15.9414 8.01562 17.0078 8.01562ZM9.92969 11.9531C10.6797 11.9531 11.2773 11.3555 11.2773 10.6055C11.2773 9.85547 10.6797 9.25781 9.92969 9.25781C9.17969 9.25781 8.58203 9.85547 8.58203 10.6055C8.58203 11.3555 9.17969 11.9531 9.92969 11.9531ZM18.0977 11.9531C18.8477 11.9531 19.4453 11.3555 19.4453 10.6055C19.4453 9.85547 18.8477 9.25781 18.0977 9.25781C17.3477 9.25781 16.75 9.85547 16.75 10.6055C16.75 11.3555 17.3477 11.9531 18.0977 11.9531ZM14.0078 14.7656C15.0859 14.7656 15.9414 13.9102 15.9414 12.832C15.9414 11.7656 15.0859 10.9102 14.0078 10.9102C12.9414 10.9102 12.0859 11.7656 12.0859 12.832C12.0859 13.9102 12.9414 14.7656 14.0078 14.7656ZM9.92969 27.0234C11.6641 27.0234 13.0703 25.6289 13.0703 23.8945C13.0703 22.1602 11.6641 20.7539 9.92969 20.7539C8.19531 20.7539 6.80078 22.1602 6.80078 23.8945C6.80078 25.6289 8.19531 27.0234 9.92969 27.0234ZM18.0859 27.0234C19.832 27.0234 21.2266 25.6289 21.2266 23.8945C21.2266 22.1602 19.832 20.7539 18.0859 20.7539C16.3516 20.7539 14.957 22.1602 14.957 23.8945C14.957 25.6289 16.3516 27.0234 18.0859 27.0234Z" fill="black" fill-opacity="0.85"/>
</svg>
