<svg width="28" height="29" viewBox="0 0 28 29" fill="none" xmlns="http://www.w3.org/2000/svg">
<g clip-path="url(#clip0_2124_67781)">
<path d="M10.1016 5.37891H17.9531C19.2305 5.37891 19.9922 4.60547 19.9922 3.30469V2.07422C19.9922 0.773438 19.2305 0 17.9531 0H10.1016C8.83594 0 8.07422 0.773438 8.07422 2.07422V3.30469C8.07422 4.60547 8.83594 5.37891 10.1016 5.37891ZM10.2539 7.51172H17.8125V4.73438H10.2539V7.51172ZM9.78516 28.0547H18.2812C20.5664 28.0547 22.0664 26.543 22.0664 24.2109V10.9219C22.0664 8.58984 20.5664 7.07812 18.2812 7.07812H9.78516C7.5 7.07812 6 8.58984 6 10.9219V24.2109C6 26.543 7.5 28.0547 9.78516 28.0547Z" fill="black" fill-opacity="0.85"/>
<path d="M9.51562 18.4219V16.7109C9.51562 16.1953 9.85548 15.8789 10.3477 15.8789H12.3398V13.8984C12.3398 13.3945 12.6563 13.0664 13.1719 13.0664H14.8828C15.3984 13.0664 15.7148 13.3945 15.7148 13.8984V15.8789H17.707C18.1875 15.8789 18.5508 16.1953 18.5508 16.7109V18.4219C18.5508 18.9375 18.1875 19.2539 17.707 19.2539H15.7148V21.2344C15.7148 21.7383 15.3984 22.0781 14.8828 22.0781H13.1719C12.6563 22.0781 12.3398 21.7383 12.3398 21.2344V19.2539H10.3477C9.85548 19.2539 9.51562 18.9375 9.51562 18.4219Z" fill="white"/>
</g>
<defs>
<clipPath id="clip0_2124_67781">
<rect width="16.0664" height="28.0898" fill="white" transform="translate(6)"/>
</clipPath>
</defs>
</svg>
