<svg width="28" height="31" viewBox="0 0 28 31" fill="none" xmlns="http://www.w3.org/2000/svg">
<g clip-path="url(#clip0_2124_88511)">
<path d="M10.0591 29.3906H17.2192C21.2973 29.3906 23.313 27.3281 23.2778 23.2031C23.2309 18.4922 23.2075 15.0703 23.0903 12.5039C22.7505 4.95703 20.6294 2.74219 13.645 2.74219C6.66061 2.74219 4.5278 4.95703 4.18795 12.5039C4.07076 15.0703 4.04733 18.4922 4.00045 23.2031C3.9653 27.3281 5.98092 29.3906 10.0591 29.3906ZM9.7192 24.7383C8.71139 24.7383 8.06686 24.082 8.06686 23.0977V17.0508C8.06686 16.0547 8.71139 15.3984 9.7192 15.3984H17.5708C18.5669 15.3984 19.2114 16.0547 19.2114 17.0508V23.0977C19.2114 24.082 18.5669 24.7383 17.5708 24.7383H9.7192ZM8.06686 19.9102H19.2114V18.5156H8.06686V19.9102ZM13.645 0C11.395 0 9.81295 1.52344 9.81295 3.59766H11.4653C11.4653 2.46094 12.3559 1.65234 13.645 1.65234C14.9223 1.65234 15.8247 2.46094 15.8247 3.59766H17.477C17.477 1.52344 15.8833 0 13.645 0Z" fill="black" fill-opacity="0.85"/>
</g>
<defs>
<clipPath id="clip0_2124_88511">
<rect width="19.2782" height="30.5977" fill="white" transform="translate(4)"/>
</clipPath>
</defs>
</svg>
