<svg width="28" height="28" viewBox="0 0 28 28" fill="none" xmlns="http://www.w3.org/2000/svg">
<path d="M4.00391 13.9531C4.00391 12.8867 4.16797 11.8555 4.47266 10.9062L2.63281 10.1328C2.23438 11.3398 2 12.6172 2 13.9531C2 15.2773 2.23438 16.5664 2.64453 17.7734L4.47266 17C4.16797 16.0508 4.00391 15.0195 4.00391 13.9531ZM9.39453 5.07031L8.64453 3.26562C6.32422 4.42578 4.41406 6.33594 3.25391 8.65625L5.08203 9.41797C6.01953 7.55469 7.54297 6.03125 9.39453 5.07031ZM13.9414 3.99219C15.0078 3.99219 16.0391 4.15625 17.0117 4.47266L17.7617 2.64453C16.5547 2.23438 15.2656 2 13.9414 2C12.6172 2 11.3164 2.23438 10.1094 2.64453L10.8828 4.47266C11.8438 4.15625 12.875 3.99219 13.9414 3.99219ZM22.8242 9.40625L24.6406 8.65625C23.4688 6.33594 21.5586 4.42578 19.2383 3.25391L18.4883 5.07031C20.3398 6.01953 21.875 7.54297 22.8242 9.40625ZM23.9141 13.9531C23.9141 15.0195 23.75 16.0508 23.4453 17.0117L25.2617 17.7852C25.6719 16.5781 25.9062 15.2773 25.9062 13.9531C25.9062 12.6172 25.6719 11.3281 25.2617 10.1211L23.4336 10.8945C23.75 11.8555 23.9141 12.8867 23.9141 13.9531ZM18.4883 22.8242L19.2383 24.6523C21.5703 23.4805 23.4805 21.5703 24.6289 19.25L22.8359 18.5C21.8867 20.3633 20.3516 21.875 18.4883 22.8242ZM13.9531 23.9141C12.875 23.9141 11.8438 23.75 10.8828 23.4336L10.1211 25.2617C11.3281 25.6719 12.6289 25.9062 13.9531 25.9062C15.2773 25.9062 16.5664 25.6719 17.7617 25.2734L17 23.4453C16.0391 23.75 15.0195 23.9141 13.9531 23.9141ZM5.08203 18.5L3.26562 19.25C4.4375 21.5703 6.32422 23.4805 8.64453 24.6406L9.39453 22.8125C7.54297 21.8633 6.01953 20.3516 5.08203 18.5Z" fill="black" fill-opacity="0.85"/>
<path d="M13.9297 22.1328C18.4883 22.1328 22.1211 18.5 22.1094 13.9531C22.0977 9.40625 18.4648 5.77344 13.918 5.77344C9.37109 5.77344 5.76172 9.39453 5.76172 13.9531C5.76172 18.5117 9.38281 22.1328 13.9297 22.1328Z" fill="black" fill-opacity="0.85"/>
</svg>
