<svg width="28" height="28" viewBox="0 0 28 28" fill="none" xmlns="http://www.w3.org/2000/svg">
<path d="M6.67969 24.5977H20.8945C23.3555 24.5977 24.5742 23.3789 24.5742 20.9648V6.65625C24.5742 4.24219 23.3555 3.02344 20.8945 3.02344H6.67969C4.23047 3.02344 3 4.23047 3 6.65625V20.9648C3 23.3906 4.23047 24.5977 6.67969 24.5977ZM6.70312 22.7109C5.53125 22.7109 4.88672 22.0898 4.88672 20.8711V6.75C4.88672 5.53125 5.53125 4.91016 6.70312 4.91016H20.8711C22.0312 4.91016 22.6875 5.53125 22.6875 6.75V20.8711C22.6875 22.0898 22.0312 22.7109 20.8711 22.7109H6.70312Z" fill="black" fill-opacity="0.85"/>
<path d="M11.0039 19.4297C12.7852 19.4297 13.7695 18.5039 14.0859 16.5586L14.4727 14.1328H16.9336C17.332 14.1328 17.5781 13.8867 17.5781 13.5234C17.5781 13.1367 17.332 12.8789 16.9336 12.8789H14.6719L14.9531 11.0977C15.1406 9.96094 15.6211 9.48047 16.6523 9.48047C17.0039 9.48047 17.1445 9.51562 17.332 9.55078C17.4375 9.57422 17.5312 9.58594 17.6719 9.58594C18.0938 9.58594 18.3398 9.31641 18.3398 8.96484C18.3398 8.63672 18.1523 8.37891 17.7539 8.23828C17.4727 8.13281 17.0742 8.08594 16.582 8.08594C14.8008 8.08594 13.8164 9.02344 13.5 10.9687L13.1953 12.8789H10.8398C10.4531 12.8789 10.207 13.1367 10.207 13.5234C10.207 13.8867 10.4531 14.1328 10.8398 14.1328H13.0078L12.6445 16.3711C12.4453 17.5547 11.9648 18.0469 10.9336 18.0469C10.582 18.0469 10.4414 18 10.2539 17.9648C10.1484 17.9414 10.0547 17.9297 9.91406 17.9297C9.49219 17.9297 9.24609 18.1992 9.24609 18.5508C9.24609 18.8906 9.43359 19.1367 9.83203 19.2773C10.1133 19.3945 10.5 19.4297 11.0039 19.4297Z" fill="black" fill-opacity="0.85"/>
</svg>
