<svg width="28" height="28" viewBox="0 0 28 28" fill="none" xmlns="http://www.w3.org/2000/svg">
<path d="M13.9531 25.9062C20.4922 25.9062 25.9062 20.4805 25.9062 13.9531C25.9062 7.41406 20.4805 2 13.9414 2C7.41406 2 2 7.41406 2 13.9531C2 20.4805 7.42578 25.9062 13.9531 25.9062ZM13.9531 23.9141C8.42188 23.9141 4.00391 19.4844 4.00391 13.9531C4.00391 8.42188 8.41016 3.99219 13.9414 3.99219C19.4727 3.99219 23.9141 8.42188 23.9141 13.9531C23.9141 19.4844 19.4844 23.9141 13.9531 23.9141Z" fill="black" fill-opacity="0.85"/>
<path d="M21.5703 13.9648C21.5703 13.1797 20.5391 12.582 19.2617 12.582H16.7539C16.4492 12.582 16.3555 12.5469 16.1562 12.3359L11.9844 7.78906C11.832 7.61328 11.6445 7.53125 11.4336 7.53125H10.707C10.4609 7.53125 10.3203 7.75391 10.4258 8L12.5117 12.6055L9.59375 12.9453L8.50391 10.9531C8.39844 10.7656 8.23438 10.6719 7.97656 10.6719H7.70703C7.48438 10.6719 7.33203 10.8242 7.33203 11.0469V16.8711C7.33203 17.0938 7.48438 17.2461 7.70703 17.2461H7.97656C8.23438 17.2461 8.39844 17.1523 8.50391 16.9766L9.59375 14.9844L12.5117 15.3125L10.4258 19.918C10.3203 20.1641 10.4609 20.3867 10.707 20.3867H11.4336C11.6445 20.3867 11.832 20.3047 11.9844 20.1406L16.1562 15.5938C16.3555 15.3828 16.4492 15.3359 16.7539 15.3359H19.2617C20.5391 15.3359 21.5703 14.7383 21.5703 13.9648Z" fill="black" fill-opacity="0.85"/>
</svg>
