<svg width="28" height="28" viewBox="0 0 28 28" fill="none" xmlns="http://www.w3.org/2000/svg">
<path d="M3.47811 26.4098C5.43514 28.3669 7.7203 28.3903 9.64217 26.4684C11.0601 25.0505 12.5484 21.7106 13.65 20.3981L16.1461 22.9059C17.0601 23.8317 18.1617 23.8317 19.0523 22.9411L20.564 21.4176C21.4547 20.5153 21.4547 19.4489 20.5289 18.5231L11.3765 9.35903C10.4508 8.43325 9.37264 8.42153 8.4703 9.32387L6.95858 10.8473C6.06795 11.738 6.05624 12.8278 6.98202 13.7536L9.48983 16.2497C8.18905 17.3512 4.8492 18.8278 3.43124 20.2458C1.50936 22.1676 1.52108 24.4645 3.47811 26.4098ZM8.58749 11.8903L9.5367 10.9645C9.84139 10.6598 10.1695 10.6481 10.4742 10.9528L18.9469 19.4137C19.2398 19.7184 19.2398 20.0465 18.9234 20.363L18.0094 21.2887C17.7047 21.6169 17.3531 21.6286 17.0484 21.3005L14.2476 18.488C13.814 18.0544 13.2515 18.1012 12.7594 18.5817C11.8453 19.484 10.2398 23.3395 8.37655 25.1911C7.25155 26.3278 5.89217 26.3278 4.7203 25.1676C3.57186 24.0075 3.56014 22.6364 4.69686 21.5114C6.56014 19.6598 10.4156 18.0544 11.318 17.1403C11.7867 16.6364 11.8453 16.0739 11.4117 15.652L8.58749 12.8395C8.2828 12.5348 8.2828 12.195 8.58749 11.8903ZM6.51327 24.8512C7.31014 24.8512 7.95467 24.195 7.95467 23.3981C7.95467 22.6012 7.31014 21.9567 6.51327 21.9567C5.71639 21.9567 5.06014 22.6012 5.06014 23.3981C5.06014 24.195 5.71639 24.8512 6.51327 24.8512ZM20.4 19.6833L25.9664 14.1169C27.2672 12.8161 27.2437 11.2575 25.9078 9.92153L16.7086 0.710591C15.4781 -0.519877 13.3453 -0.0394087 12.9117 1.87075C11.8219 6.60512 11.775 7.16762 9.98202 9.67544L11.3297 11.0231C13.3805 8.3395 13.5328 7.027 14.6578 2.8434C14.8101 2.24575 15.3023 2.0934 15.7008 2.48012L24.4781 11.2458C25.0172 11.7848 25.0172 12.4411 24.5133 12.945L19.0875 18.3708L20.4 19.6833ZM18.5484 13.0036C19.1695 13.6247 22.5914 11.7262 23.775 10.238L21.1969 7.67153C20.9742 9.74575 19.8961 11.2458 18.5836 12.5583C18.4312 12.7106 18.443 12.8981 18.5484 13.0036Z" fill="black" fill-opacity="0.85"/>
</svg>
