<svg width="28" height="28" viewBox="0 0 28 28" fill="none" xmlns="http://www.w3.org/2000/svg">
<path d="M3.14679 5.93755C2.80695 6.44145 3.07648 7.13286 3.75617 7.13286H5.18585V7.26176C5.18585 11.4922 7.4007 12.0547 7.4007 14.211C7.4007 16.379 4.61163 16.9415 4.61163 20.9961C4.61163 22.3672 4.98663 23.3985 5.95929 24.6407C6.80304 25.6954 8.4671 24.6172 7.57648 23.4336C6.86163 22.4844 6.62726 21.8399 6.62726 20.8555C6.62726 18.0665 9.41632 17.2227 9.41632 14.211C9.41632 11.1993 7.18976 10.5079 7.18976 7.26176V7.13286H8.61945C9.29913 7.13286 9.5921 6.45317 9.24054 5.93755L6.87335 2.51567C6.52179 1.96489 5.88898 1.94145 5.50226 2.51567L3.14679 5.93755ZM11.0335 5.90239C10.6937 6.4063 10.9632 7.08598 11.6429 7.08598H13.0726V7.22661C13.0726 11.4454 15.2874 12.0079 15.2874 14.1641C15.2874 16.3321 12.4984 16.8946 12.4984 20.961C12.4984 22.3204 12.8734 23.3516 13.846 24.5938C14.6898 25.6602 16.3538 24.5821 15.4632 23.3868C14.7484 22.4375 14.514 21.793 14.514 20.8204C14.514 18.0196 17.303 17.1758 17.303 14.1641C17.303 11.1524 15.0765 10.4727 15.0765 7.22661V7.08598H16.5062C17.1859 7.08598 17.4788 6.41801 17.1273 5.90239L14.7601 2.4688C14.4085 1.91801 13.7757 1.89458 13.389 2.4688L11.0335 5.90239ZM18.9202 5.85551C18.5804 6.35942 18.8499 7.05083 19.5296 7.05083H20.971V7.17973C20.971 11.4102 23.1741 11.9727 23.1741 14.129C23.1741 16.2969 20.3851 16.8594 20.3851 20.9141C20.3851 22.2852 20.7601 23.3165 21.7327 24.5586C22.5765 25.6133 24.2405 24.5352 23.3499 23.3399C22.6351 22.4024 22.4007 21.7579 22.4007 20.7735C22.4007 17.9844 25.1898 17.1407 25.1898 14.129C25.1898 11.1172 22.9749 10.4258 22.9749 7.17973V7.05083H24.3929C25.0726 7.05083 25.3655 6.37114 25.014 5.85551L22.6585 2.42192C22.2952 1.87114 21.6624 1.8477 21.2757 2.42192L18.9202 5.85551Z" fill="black" fill-opacity="0.85"/>
</svg>
