<svg width="28" height="28" viewBox="0 0 28 28" fill="none" xmlns="http://www.w3.org/2000/svg">
<g clip-path="url(#clip0_2124_88791)">
<path d="M1 21.9375C1 24.3398 2.20703 25.5117 4.62109 25.5117H23.4766C25.9023 25.5117 27.0977 24.3398 27.0977 21.9375V10.5352C27.0977 8.14453 25.9023 6.96094 23.4766 6.96094H4.62109C2.20703 6.96094 1 8.14453 1 10.5352V21.9375ZM5.46484 13.8398C4.42188 13.8398 3.57812 12.9961 3.57812 11.9414C3.57812 10.8984 4.42188 10.0547 5.46484 10.0547C6.53125 10.0547 7.36328 10.8984 7.36328 11.9414C7.36328 12.9961 6.53125 13.8398 5.46484 13.8398ZM11.1953 13.8398C10.1406 13.8398 9.29688 12.9961 9.29688 11.9414C9.29688 10.8984 10.1406 10.0547 11.1953 10.0547C12.2383 10.0547 13.082 10.8984 13.082 11.9414C13.082 12.9961 12.2383 13.8398 11.1953 13.8398ZM16.9023 13.8398C15.8594 13.8398 15.0156 12.9961 15.0156 11.9414C15.0156 10.8984 15.8594 10.0547 16.9023 10.0547C17.9688 10.0547 18.8008 10.8984 18.8008 11.9414C18.8008 12.9961 17.9688 13.8398 16.9023 13.8398ZM22.6328 13.8398C21.5781 13.8398 20.7344 12.9961 20.7344 11.9414C20.7344 10.8984 21.5781 10.0547 22.6328 10.0547C23.6758 10.0547 24.5312 10.8984 24.5312 11.9414C24.5312 12.9961 23.6758 13.8398 22.6328 13.8398ZM2.88672 21.8438V16.1953H25.2109V21.8438C25.2109 23.0508 24.6016 23.6367 23.4531 23.6367H4.64453C3.49609 23.6367 2.88672 23.0508 2.88672 21.8438ZM7.22266 8.40234H9.08594V5.89453C9.08594 5.22656 9.55469 4.79297 10.2461 4.79297H17.8633C18.5664 4.79297 19.0234 5.22656 19.0234 5.89453V8.40234H20.8867V5.77734C20.8867 4.07812 19.7852 3.04688 17.9805 3.04688H10.1289C8.32422 3.04688 7.22266 4.07812 7.22266 5.77734V8.40234Z" fill="black" fill-opacity="0.85"/>
</g>
<defs>
<clipPath id="clip0_2124_88791">
<rect width="26.0977" height="22.5117" fill="white" transform="translate(1 3)"/>
</clipPath>
</defs>
</svg>
