<svg width="28" height="28" viewBox="0 0 28 28" fill="none" xmlns="http://www.w3.org/2000/svg">
<path d="M13.9531 25.9062C20.4922 25.9062 25.9062 20.4805 25.9062 13.9531C25.9062 7.41406 20.4805 2 13.9414 2C7.41406 2 2 7.41406 2 13.9531C2 20.4805 7.42578 25.9062 13.9531 25.9062ZM13.9531 23.9141C8.42188 23.9141 4.00391 19.4844 4.00391 13.9531C4.00391 8.42188 8.41016 3.99219 13.9414 3.99219C19.4727 3.99219 23.9141 8.42188 23.9141 13.9531C23.9141 19.4844 19.4844 23.9141 13.9531 23.9141Z" fill="black" fill-opacity="0.85"/>
<path d="M11.1875 18.8984C12.8633 18.8984 14.1641 17.8438 14.1641 16.0859C14.1641 14.6328 13.2852 13.918 12.3008 13.8125V13.7773C13.3555 13.4961 13.8828 12.5469 13.8828 11.5625C13.8828 9.94531 12.6641 9.01953 11.1406 9.01953C9.93359 9.01953 8.87891 9.69922 8.55078 10.7422C8.48047 10.9648 8.45703 11.1758 8.45703 11.375C8.45703 11.7617 8.71484 12.0664 9.17188 12.0664C9.57031 12.0664 9.80469 11.9141 9.92188 11.5039C10.1094 10.8125 10.4844 10.3789 11.1406 10.3789C11.9141 10.3789 12.2773 10.9766 12.2773 11.75C12.2773 12.6055 11.8086 13.2266 10.9297 13.2266H10.6484C10.25 13.2266 10.0039 13.4727 10.0039 13.8594C10.0039 14.2461 10.2617 14.4688 10.6484 14.4688H10.9414C11.9375 14.4688 12.4883 15.0195 12.4883 16.0391C12.4883 16.8477 12.0547 17.5391 11.1875 17.5391C10.332 17.5391 9.95703 16.9648 9.80469 16.4258C9.69922 16.0508 9.44141 15.8516 9.06641 15.8516C8.60938 15.8516 8.30469 16.1328 8.30469 16.5898C8.30469 16.8008 8.33984 17.0117 8.39844 17.1992C8.73828 18.2891 9.92188 18.8984 11.1875 18.8984ZM18.1016 18.8164C18.5586 18.8164 18.9453 18.4297 18.9453 17.9609V10.0156C18.9453 9.41797 18.5703 9.06641 17.9609 9.06641C17.4688 9.06641 17.0703 9.33594 16.8008 9.54688L15.5117 10.543C15.3008 10.707 15.1367 10.9297 15.1367 11.2344C15.1367 11.5977 15.3828 11.8555 15.7344 11.8555C15.9219 11.8555 16.0391 11.7969 16.1562 11.7148L17.2344 10.8477V17.9609C17.2344 18.4297 17.6211 18.8164 18.1016 18.8164Z" fill="black" fill-opacity="0.85"/>
</svg>
