<svg width="28" height="28" viewBox="0 0 28 28" fill="none" xmlns="http://www.w3.org/2000/svg">
<g clip-path="url(#clip0_2124_78039)">
<path d="M3.67969 24.5742H23.9531C26.4141 24.5742 27.6328 23.3672 27.6328 20.9531V6.63281C27.6328 4.21875 26.4141 3 23.9531 3H3.67969C1.23047 3 0 4.21875 0 6.63281V20.9531C0 23.3672 1.23047 24.5742 3.67969 24.5742ZM3.70312 22.6875C2.53125 22.6875 1.88672 22.0664 1.88672 20.8477V6.73828C1.88672 5.51953 2.53125 4.88672 3.70312 4.88672H23.9297C25.0898 4.88672 25.7461 5.51953 25.7461 6.73828V20.8477C25.7461 22.0664 25.0898 22.6875 23.9297 22.6875H3.70312Z" fill="black" fill-opacity="0.85"/>
<path d="M9.23438 14.7773H18.4219C19.0781 14.7773 19.5352 14.4258 19.5352 13.8047C19.5352 13.1719 19.1133 12.8086 18.4219 12.8086H9.23438C8.55468 12.8086 8.10938 13.1719 8.10938 13.8047C8.10938 14.4258 8.57811 14.7773 9.23438 14.7773Z" fill="black" fill-opacity="0.85"/>
</g>
<defs>
<clipPath id="clip0_2124_78039">
<rect width="27.6328" height="21.5742" fill="white" transform="translate(0 3)"/>
</clipPath>
</defs>
</svg>
