<svg width="28" height="28" viewBox="0 0 28 28" fill="none" xmlns="http://www.w3.org/2000/svg">
<path d="M5.19922 25.2656H23.3633C25.3555 25.2656 26.5625 23.8828 26.5625 22.0898C26.5625 21.5391 26.3984 20.9648 26.1055 20.4492L17.0117 4.60547C16.4023 3.53906 15.3594 3 14.2812 3C13.2031 3 12.1484 3.53906 11.5508 4.60547L2.45703 20.4492C2.14062 20.9766 2 21.5391 2 22.0898C2 23.8828 3.20703 25.2656 5.19922 25.2656Z" fill="black" fill-opacity="0.85"/>
<path d="M14.2812 20.8945C12.2539 20.8945 10.8828 19.5703 10.8828 17.6016C10.8828 16.6289 11.293 15.75 11.5977 15.1055C12.1367 13.9336 13.0273 12.4922 13.7773 11.3203C13.918 11.0977 14.082 10.9922 14.2812 10.9922C14.4922 10.9922 14.6445 11.0977 14.7852 11.3203C15.5469 12.4922 16.4375 13.9336 16.9648 15.1055C17.2695 15.75 17.6797 16.6289 17.6797 17.6016C17.6797 19.5703 16.3203 20.8945 14.2812 20.8945Z" fill="white"/>
</svg>
