<svg width="28" height="28" viewBox="0 0 28 28" fill="none" xmlns="http://www.w3.org/2000/svg">
<path d="M17.8633 26.1719C22.1055 26.1719 24.8477 23.4414 24.8477 19.1992V13.4219C24.8477 11.8164 24.3438 10.5273 23.3477 9.61328L15.9531 2.80469C14.5 1.48047 12.9648 1 11.1367 1H7.51562C5.40625 1 4 2.42969 4 4.55078V22.6562C4 24.8594 5.33594 26.1719 7.55078 26.1719H17.8633ZM17.8281 24.2852H7.59766C6.36719 24.2852 5.88672 23.8633 5.88672 22.6211V4.57422C5.88672 3.56641 6.54297 2.88672 7.5625 2.88672H11.0898C12.543 2.88672 13.6094 3.23828 14.6523 4.1875L22.0352 10.9727C22.6797 11.5586 22.9609 12.2734 22.9609 13.4453V19.1641C22.9609 22.4453 21.0977 24.2852 17.8281 24.2852Z" fill="black" fill-opacity="0.85"/>
</svg>
