<svg width="34" height="28" viewBox="0 0 34 28" fill="none" xmlns="http://www.w3.org/2000/svg">
<path d="M6.11622 20.4648L9.25684 22.8203C9.87794 23.2891 10.6748 23.043 10.6748 22.1992V20.5469H26.8467V22.1992C26.8467 23.0195 27.6318 23.3125 28.2763 22.8203L31.417 20.4648C31.8506 20.1484 31.8388 19.5391 31.417 19.2344L28.2763 16.9023C27.6318 16.4102 26.8467 16.7031 26.8467 17.5117V19.1875H10.6748V17.5117C10.6748 16.7031 9.90137 16.4102 9.25684 16.9023L6.11622 19.2344C5.68262 19.5508 5.68262 20.1484 6.11622 20.4648Z" fill="black" fill-opacity="0.85"/>
<path d="M15.8086 12.9062H20.8711C23.6133 12.9062 24.457 12.0391 25.5586 10.3164L26.168 9.15625C27.082 7.04688 27.8672 5.98047 29.2383 5.98047C30.6094 5.98047 31.5469 7.48047 31.5469 8.94531C31.5469 10.3398 30.7383 10.8789 29.4844 10.8789C27.6914 10.8789 26.1094 9.85938 25.4297 8.6875L24.7266 10.4219C25.3711 11.7227 27.1523 12.9062 29.3555 12.9062C31.6055 12.9062 33.1172 11.5117 33.1172 8.92188C33.1172 6.47266 31.6172 4 29.4141 4C27.7617 4 26.6367 5.01953 25.6406 7L24.9727 8.3125C24.1641 9.92969 23.3906 10.8203 21.1289 10.8203H16.0664C13.2422 10.8203 12.668 9.8125 12.1172 7.89062C11.543 5.95703 10.4297 4 8.36719 4C5.85938 4 4.27734 6.73047 3.78516 9.50781L5.21484 9.92969C5.71875 7.44531 6.94922 5.98047 8.25 5.98047C9.62109 5.98047 10.3828 7.35156 10.5938 8.54688C10.8633 10.2227 9.78516 10.9258 8.55469 10.9258C6.92578 10.9258 5.50781 10.0352 4.92188 8.88672L3.83203 10.3867C4.46484 11.6406 6.12891 12.9062 8.35547 12.9062C10.4297 12.9062 11.9883 11.7109 11.8242 9.39062L11.2266 9.71875C11.6133 11.582 12.8086 12.9062 15.8086 12.9062ZM0.84375 21.3672C1.3125 21.3672 1.65234 21.0156 1.65234 20.5234V12.6719C1.65234 11.3477 2.10938 11.1484 3.21094 10.9844L5.12109 10.6914L4.69922 8.85156L3.10547 9.13281C0.972656 9.48438 0 10.1875 0 12.6719L0.0117188 20.5352C0.0117188 21.0273 0.363281 21.3672 0.84375 21.3672Z" fill="black" fill-opacity="0.85"/>
</svg>
