<svg width="28" height="28" viewBox="0 0 28 28" fill="none" xmlns="http://www.w3.org/2000/svg">
<path d="M13.9531 25.9062C20.4922 25.9062 25.9062 20.4805 25.9062 13.9531C25.9062 7.41406 20.4805 2 13.9414 2C7.41406 2 2 7.41406 2 13.9531C2 20.4805 7.42578 25.9062 13.9531 25.9062Z" fill="black" fill-opacity="0.85"/>
<path d="M8.29297 18.8398C7.74219 18.8398 7.47266 18.5469 7.47266 18.1367C7.47266 17.75 7.69531 17.4453 7.92969 17.1641L10.0273 14.4805C10.6602 13.6719 11.3281 12.6875 11.3281 11.7148C11.3281 10.8594 10.9297 10.2266 10.2031 10.2266C9.51172 10.2266 9.20703 10.7305 8.98438 11.5391C8.85547 11.9375 8.62109 12.1133 8.21094 12.1133C7.75391 12.1133 7.48438 11.8086 7.48438 11.3516C7.48438 10.0977 8.66797 8.82031 10.2148 8.82031C11.8789 8.82031 12.9922 10.0039 12.9922 11.6328C12.9922 12.6992 12.5938 13.5898 11.3867 15.0898L9.62891 17.3164V17.4102H12.4883C12.9102 17.4102 13.1797 17.668 13.1797 18.1367C13.1797 18.5586 12.9219 18.8398 12.4883 18.8398H8.29297ZM17.5625 19.0859C15.1602 19.0859 14.4453 16.3906 14.4453 13.9531C14.4453 11.5156 15.1602 8.82031 17.5625 8.82031C19.9883 8.82031 20.7031 11.5156 20.7031 13.9531C20.7031 16.3906 19.9883 19.0859 17.5625 19.0859ZM17.5625 17.6445C18.5469 17.6445 18.9219 16.0508 18.9219 13.9531C18.9219 11.8438 18.5469 10.2617 17.5625 10.2617C16.5898 10.2617 16.2148 11.8438 16.2148 13.9531C16.2148 16.0508 16.5898 17.6445 17.5625 17.6445Z" fill="white"/>
</svg>
