<svg width="33" height="28" viewBox="0 0 33 28" fill="none" xmlns="http://www.w3.org/2000/svg">
<path d="M0.400122 18.7383C-0.713159 20.168 0.716528 21.3281 2.00559 20.5781L10.5017 15.7266L20.5798 21.1289C21.0486 21.3633 21.447 21.5039 21.8337 21.5039C22.3728 21.5039 22.865 21.2578 23.3337 20.6602L31.9587 9.76172C32.8962 8.57812 31.7478 7.11328 30.3298 7.91016L21.8337 12.7969L11.7439 7.39453C11.2868 7.13672 10.865 7.01953 10.49 7.01953C9.93918 7.01953 9.47043 7.26562 9.00168 7.86328L0.400122 18.7383ZM3.06028 18.2812C2.91965 18.3516 2.84934 18.2344 2.94309 18.1289L10.3611 9.14062C10.5251 8.92969 10.6775 8.90625 10.9001 9.02344L21.4118 14.6367C21.904 14.8945 22.0564 14.8242 22.4431 14.5781L29.3103 10.207C29.4157 10.1367 29.5329 10.2539 29.4392 10.3594L21.9861 19.3828C21.822 19.582 21.6579 19.6172 21.447 19.5L10.9236 13.8867C10.4314 13.6289 10.279 13.6875 9.89231 13.9336L3.06028 18.2812Z" fill="black" fill-opacity="0.85"/>
</svg>
