<svg width="28" height="28" viewBox="0 0 28 28" fill="none" xmlns="http://www.w3.org/2000/svg">
<path d="M6.67969 24.5977H20.8945C23.3555 24.5977 24.5742 23.3789 24.5742 20.9648V6.65625C24.5742 4.24219 23.3555 3.02344 20.8945 3.02344H6.67969C4.23047 3.02344 3 4.23047 3 6.65625V20.9648C3 23.3906 4.23047 24.5977 6.67969 24.5977ZM6.70312 22.7109C5.53125 22.7109 4.88672 22.0898 4.88672 20.8711V6.75C4.88672 5.53125 5.53125 4.91016 6.70312 4.91016H20.8711C22.0312 4.91016 22.6875 5.53125 22.6875 6.75V20.8711C22.6875 22.0898 22.0312 22.7109 20.8711 22.7109H6.70312Z" fill="black" fill-opacity="0.85"/>
<path d="M10.7344 18.6562C11.2031 18.6562 11.5898 18.2695 11.5898 17.8008V9.85547C11.5898 9.25781 11.2148 8.90625 10.6055 8.90625C10.1133 8.90625 9.71484 9.17578 9.44531 9.38672L8.15625 10.3828C7.94531 10.5469 7.78125 10.7695 7.78125 11.0742C7.78125 11.4375 8.02734 11.6953 8.37891 11.6953C8.56641 11.6953 8.68359 11.6367 8.80078 11.5547L9.87891 10.6875V17.8008C9.87891 18.2695 10.2656 18.6562 10.7344 18.6562ZM14.168 18.5273H18.2344C18.6445 18.5273 18.8906 18.2578 18.8906 17.8477C18.8906 17.4023 18.6328 17.1562 18.2344 17.1562H15.4453V17.0625L17.1562 14.8945C18.3281 13.4414 18.7148 12.5742 18.7148 11.543C18.7148 9.96094 17.6367 8.8125 16.0195 8.8125C14.5312 8.8125 13.3828 10.0547 13.3828 11.2734C13.3828 11.707 13.6406 12.0117 14.0859 12.0117C14.4727 12.0117 14.7188 11.8359 14.8359 11.4492C15.0586 10.6641 15.3398 10.1719 16.0195 10.1719C16.7227 10.1719 17.1211 10.793 17.1211 11.625C17.1211 12.5625 16.4648 13.5117 15.8438 14.3086L13.8047 16.9102C13.5938 17.1914 13.3711 17.4844 13.3711 17.8477C13.3711 18.2461 13.6289 18.5273 14.168 18.5273Z" fill="black" fill-opacity="0.85"/>
</svg>
