<svg width="28" height="28" viewBox="0 0 28 28" fill="none" xmlns="http://www.w3.org/2000/svg">
<path d="M6.67969 24.5977H20.8945C23.3555 24.5977 24.5742 23.3789 24.5742 20.9648V6.65625C24.5742 4.24219 23.3555 3.02344 20.8945 3.02344H6.67969C4.23047 3.02344 3 4.23047 3 6.65625V20.9648C3 23.3906 4.23047 24.5977 6.67969 24.5977ZM6.70312 22.7109C5.53125 22.7109 4.88672 22.0898 4.88672 20.8711V6.75C4.88672 5.53125 5.53125 4.91016 6.70312 4.91016H20.8711C22.0312 4.91016 22.6875 5.53125 22.6875 6.75V20.8711C22.6875 22.0898 22.0312 22.7109 20.8711 22.7109H6.70312Z" fill="black" fill-opacity="0.85"/>
<path d="M11.0977 19.0195H16.6406C17.0977 19.0195 17.4141 18.7266 17.4141 18.2578C17.4141 17.7773 17.0977 17.4844 16.6406 17.4844H12.0469V14.332H16.3359C16.793 14.332 17.1094 14.0742 17.1094 13.6172C17.1094 13.1367 16.793 12.8672 16.3359 12.8672H12.0469V9.87891H16.6406C17.0977 9.87891 17.4141 9.57422 17.4141 9.10547C17.4141 8.625 17.0977 8.34375 16.6406 8.34375H11.0977C10.4883 8.34375 10.1836 8.76562 10.1836 9.39844V17.9648C10.1836 18.5977 10.4883 19.0195 11.0977 19.0195Z" fill="black" fill-opacity="0.85"/>
</svg>
