<svg width="28" height="28" viewBox="0 0 28 28" fill="none" xmlns="http://www.w3.org/2000/svg">
<path d="M18.2148 26.2656V3.97656C18.2148 2.05469 17.1602 1 15.25 1H5.80469C3.87109 1 2.85156 2.05469 2.85156 3.97656V26.2656H18.2148ZM6.19141 13.2344C5.33594 13.2344 4.82031 12.7656 4.82031 11.9805V4.24609C4.82031 3.46094 5.33594 2.98047 6.19141 2.98047H14.8633C15.7188 2.98047 16.2461 3.46094 16.2461 4.24609V11.9805C16.2461 12.7656 15.7188 13.2344 14.8633 13.2344H6.19141ZM1 26.1836C1 26.7109 1.41016 27.1445 1.92578 27.1445H19.1172C19.6328 27.1445 20.0664 26.7109 20.0664 26.1836C20.0664 25.6797 19.6328 25.2578 19.1172 25.2578H1.92578C1.42188 25.2578 1 25.668 1 26.1836ZM21.5781 8.71094H22.9141V6.09766C22.9141 5.73438 22.6094 5.42969 22.2578 5.42969C21.8711 5.42969 21.5781 5.73438 21.5781 6.09766V8.71094ZM25.9961 8.71094V6.09766C25.9961 5.73438 25.7031 5.42969 25.3281 5.42969C24.9648 5.42969 24.6602 5.73438 24.6602 6.09766V8.71094H25.9961ZM17.6758 16.4336H18.332C18.8711 16.4336 19.2109 16.7383 19.2109 17.3242V21.2031C19.2109 22.8672 20.2188 23.875 21.8828 23.875C23.5352 23.875 24.5312 22.8672 24.5312 21.2031V15.1445C24.5312 13.9844 25.3984 13.6562 25.9492 13.2344C26.793 12.6016 27.25 11.7227 27.25 10.6797V8.92188C27.25 8.64062 27.0859 8.47656 26.8281 8.47656H20.582C20.3242 8.47656 20.1602 8.64062 20.1602 8.92188V10.6797C20.1602 11.7227 20.6172 12.6016 21.4609 13.2344C22.0117 13.6562 22.8789 13.9844 22.8789 15.1445V21.2031C22.8789 21.8359 22.5039 22.2227 21.8828 22.2227C21.2383 22.2227 20.8633 21.8359 20.8633 21.2031V17.3242C20.8633 15.707 19.9023 14.7812 18.332 14.7812H17.6758V16.4336Z" fill="black" fill-opacity="0.85"/>
</svg>
