<svg width="28" height="28" viewBox="0 0 28 28" fill="none" xmlns="http://www.w3.org/2000/svg">
<g clip-path="url(#clip0_2124_88492)">
<path d="M13.9531 25.9062C20.4922 25.9062 25.9062 20.4805 25.9062 13.9531C25.9062 7.41406 20.4805 2 13.9414 2C7.41406 2 2 7.41406 2 13.9531C2 20.4805 7.42578 25.9062 13.9531 25.9062ZM13.9531 23.9141C8.42188 23.9141 4.00391 19.4844 4.00391 13.9531C4.00391 8.42188 8.41016 3.99219 13.9414 3.99219C19.4727 3.99219 23.9141 8.42188 23.9141 13.9531C23.9141 19.4844 19.4844 23.9141 13.9531 23.9141Z" fill="black" fill-opacity="0.85"/>
<path d="M7.76562 13.4258V18.3477C7.76562 18.7695 8.05859 19.0156 8.44531 19.0156C8.83203 19.0039 9.13672 18.7578 9.13672 18.3477V12.3828H8.86719C8.19922 12.3828 7.76562 12.7695 7.76562 13.4258ZM9.62891 19.8711H18.3711C19.5312 19.8711 20.1055 19.3086 20.1055 18.1719V9.74609C20.1055 8.59766 19.5312 8.04688 18.3711 8.04688H11.9375C10.7773 8.04688 10.2031 8.59766 10.2031 9.74609V18.7227C10.2031 19.3086 10.0625 19.6367 9.62891 19.8711ZM12.4531 11.3516C12.2305 11.3516 12.0664 11.1992 12.0664 10.9766C12.0664 10.7773 12.2188 10.625 12.4531 10.625H17.8672C18.0781 10.625 18.2305 10.7773 18.2305 10.9766C18.2305 11.1992 18.0781 11.3516 17.8672 11.3516H12.4531ZM12.4531 13.2969C12.2305 13.2969 12.0664 13.1445 12.0664 12.9336C12.0664 12.7227 12.2188 12.5703 12.4531 12.5703H17.8672C18.0781 12.5703 18.2305 12.7227 18.2305 12.9336C18.2305 13.1445 18.0781 13.2969 17.8672 13.2969H12.4531ZM15.875 15.2773C15.6523 15.2773 15.5 15.125 15.5 14.9258C15.5 14.7148 15.6523 14.5391 15.875 14.5391H17.8672C18.0781 14.5391 18.2305 14.7148 18.2305 14.9258C18.2305 15.125 18.0781 15.2773 17.8672 15.2773H15.875ZM15.875 17.2344C15.6523 17.2344 15.5 17.082 15.5 16.8711C15.5 16.6602 15.6523 16.5078 15.875 16.5078H17.8672C18.0781 16.5078 18.2305 16.6602 18.2305 16.8711C18.2305 17.082 18.0781 17.2344 17.8672 17.2344H15.875ZM12.7109 17.2344C12.3008 17.2344 12.0664 17 12.0664 16.5898V15.1953C12.0664 14.7969 12.3008 14.5391 12.7109 14.5391H14.0938C14.5039 14.5391 14.75 14.7969 14.75 15.1953V16.5898C14.75 17 14.5039 17.2344 14.0938 17.2344H12.7109Z" fill="black" fill-opacity="0.85"/>
</g>
<defs>
<clipPath id="clip0_2124_88492">
<rect width="23.9062" height="23.918" fill="white" transform="translate(2 2)"/>
</clipPath>
</defs>
</svg>
