<svg width="34" height="28" viewBox="0 0 34 28" fill="none" xmlns="http://www.w3.org/2000/svg">
<g clip-path="url(#clip0_2124_24589)">
<path d="M0 21.7539C0 22.4922 0.597656 23.0898 1.32422 23.0898H32.4727C33.1992 23.0898 33.7969 22.4922 33.7969 21.7539C33.7969 21.0156 33.1992 20.418 32.4727 20.418H29.9062V6.50781C29.9062 4.86719 29.0273 4.02344 27.3984 4.02344H6.39844C4.85156 4.02344 3.89062 4.86719 3.89062 6.50781V20.418H1.32422C0.597656 20.418 0 21.0156 0 21.7539ZM5.77734 20.418V7.03516C5.77734 6.28516 6.15234 5.91016 6.90234 5.91016H26.8945C27.6445 5.91016 28.0195 6.28516 28.0195 7.03516V20.418H5.77734Z" fill="black" fill-opacity="0.85"/>
<path d="M12.7031 16.2578C12.7031 16.9258 13.0195 17.2539 13.6523 17.2539H17.625C18.2578 17.2539 18.5742 16.9258 18.5742 16.2578V13.2109C18.5742 12.543 18.2578 12.2031 17.625 12.2031H13.6523C13.0195 12.2031 12.7031 12.543 12.7031 13.2109V16.2578ZM16.7227 12.8828H17.8828V11.2188C17.8828 10.3516 18.3516 9.78906 19.1484 9.78906C19.9453 9.78906 20.4023 10.3516 20.4023 11.2188V12.0508C20.4023 12.3672 20.6719 12.6367 20.9883 12.6367C21.3047 12.6367 21.5625 12.3672 21.5625 12.0508V11.2188C21.5625 9.74219 20.6133 8.66406 19.1484 8.66406C17.6719 8.66406 16.7227 9.74219 16.7227 11.3242V12.8828Z" fill="black" fill-opacity="0.85"/>
</g>
<defs>
<clipPath id="clip0_2124_24589">
<rect width="33.7969" height="19.0898" fill="white" transform="translate(0 4)"/>
</clipPath>
</defs>
</svg>
