<svg width="28" height="28" viewBox="0 0 28 28" fill="none" xmlns="http://www.w3.org/2000/svg">
<g clip-path="url(#clip0_2124_88406)">
<path d="M11.0312 20.2656V17.7695C11.0312 17.4062 11.3242 17.1016 11.7109 17.1016C12.0742 17.1016 12.3789 17.4062 12.3789 17.7695V20.2656C12.3789 20.6406 12.0742 20.9453 11.7109 20.9453C11.3242 20.9453 11.0312 20.6406 11.0312 20.2656ZM13.7969 20.2656V17.7695C13.7969 17.4062 14.1016 17.1016 14.4883 17.1016C14.8516 17.1016 15.1562 17.4062 15.1562 17.7695V20.2656C15.1562 20.6406 14.8516 20.9453 14.4883 20.9453C14.1016 20.9453 13.7969 20.6406 13.7969 20.2656ZM16.5742 20.2656V17.7695C16.5742 17.4062 16.8789 17.1016 17.2539 17.1016C17.6289 17.1016 17.9336 17.4062 17.9336 17.7695V20.2656C17.9336 20.6406 17.6289 20.9453 17.2539 20.9453C16.8789 20.9453 16.5742 20.6406 16.5742 20.2656ZM19.3516 20.2656V17.7695C19.3516 17.4062 19.6445 17.1016 20.0312 17.1016C20.4062 17.1016 20.6992 17.4062 20.6992 17.7695V20.2656C20.6992 20.6406 20.4062 20.9453 20.0312 20.9453C19.6445 20.9453 19.3516 20.6406 19.3516 20.2656ZM22.1406 20.2656V17.7695C22.1406 17.4062 22.4336 17.1016 22.8203 17.1016C23.1836 17.1016 23.4766 17.4062 23.4766 17.7695V20.2656C23.4766 20.6406 23.1836 20.9453 22.8203 20.9453C22.4336 20.9453 22.1406 20.6406 22.1406 20.2656ZM5.64062 23.6289H23.3242C26.0664 23.6289 27.9648 21.7422 27.9648 19.0234C27.9648 16.3047 26.0664 14.4062 23.3242 14.4062H5.64062C2.89844 14.4062 1 16.3047 1 19.0234C1 21.7422 2.89844 23.6289 5.64062 23.6289ZM5.64062 12.8008H23.3242C24.4258 12.8008 25.4336 13.0469 26.3008 13.4922L23.5 6.73047C22.7734 4.96094 21.2383 4.01172 19.2109 4.01172H9.75391C7.72656 4.01172 6.19141 4.96094 5.46484 6.73047L2.65234 13.4922C3.53125 13.0469 4.53906 12.8008 5.64062 12.8008Z" fill="black" fill-opacity="0.85"/>
</g>
<defs>
<clipPath id="clip0_2124_88406">
<rect width="26.9648" height="19.6289" fill="white" transform="translate(1 4)"/>
</clipPath>
</defs>
</svg>
