<svg width="29" height="28" viewBox="0 0 29 28" fill="none" xmlns="http://www.w3.org/2000/svg">
<g clip-path="url(#clip0_2124_88419)">
<path d="M7.89844 24.5977H20.2031C22.5117 24.5977 23.5312 23.5195 23.8828 21.2227L25.7695 8.47266L23.8828 8.58984L22.0078 21.1992C21.832 22.3594 21.2109 22.8281 20.1797 22.8281H7.93359C6.87891 22.8281 6.26953 22.3594 6.10547 21.1992L4.23047 8.58984L2.34375 8.47266L4.23047 21.2227C4.57031 23.5312 5.60156 24.5977 7.89844 24.5977ZM2.22656 9.46875H25.8867C27.3281 9.46875 28.1133 8.56641 28.1133 7.13672V5.35547C28.1133 3.92578 27.3281 3.02344 25.8867 3.02344H2.22656C0.855469 3.02344 0 3.92578 0 5.35547V7.13672C0 8.56641 0.785156 9.46875 2.22656 9.46875ZM2.70703 7.69922C2.12109 7.69922 1.88672 7.45312 1.88672 6.86719V5.625C1.88672 5.03906 2.12109 4.79297 2.70703 4.79297H25.418C26.0039 4.79297 26.2266 5.03906 26.2266 5.625V6.86719C26.2266 7.45312 26.0039 7.69922 25.418 7.69922H2.70703Z" fill="black" fill-opacity="0.85"/>
<path d="M14.9883 19.8398V15.6211L14.9062 13.7227L15.9023 14.7422L16.9336 15.7969C17.0977 15.9609 17.3203 16.0547 17.5547 16.0547C18.0234 16.0547 18.3867 15.7266 18.3867 15.2578C18.3867 14.9883 18.2695 14.7891 18.082 14.625L14.7422 11.543C14.4961 11.3203 14.3203 11.2383 14.0859 11.2383C13.8633 11.2383 13.6758 11.3203 13.4297 11.543L10.0898 14.625C9.90234 14.7891 9.79688 14.9883 9.79688 15.2578C9.79688 15.7266 10.1484 16.0547 10.6289 16.0547C10.8398 16.0547 11.0859 15.9609 11.25 15.7969L12.2695 14.7422L13.2656 13.7227L13.1953 15.6211V19.8398C13.1953 20.3203 13.6055 20.7188 14.0859 20.7188C14.5664 20.7188 14.9883 20.3203 14.9883 19.8398Z" fill="black" fill-opacity="0.85"/>
</g>
<defs>
<clipPath id="clip0_2124_88419">
<rect width="28.1133" height="21.5977" fill="white" transform="translate(0 3)"/>
</clipPath>
</defs>
</svg>
