<svg width="28" height="28" viewBox="0 0 28 28" fill="none" xmlns="http://www.w3.org/2000/svg">
<g clip-path="url(#clip0_2124_24782)">
<path d="M11.5898 3C7.89844 3 6 5.71875 6 10.0312V12.7617C6 15.832 6.77344 17.2852 8.95312 18.4805L13.9336 21.2227C15.2227 21.9141 15.8203 22.1484 16.7227 22.1484C18.5859 22.1484 20.1094 20.6133 20.1094 18.7617C20.1094 17.4961 19.4414 16.3242 18 15.5625L8.09766 10.3945C8.09766 6.96094 9.22266 5.10938 11.707 5.10938C15.8672 5.10938 19.4648 9.99609 19.8867 15.5625C20.7656 16.4297 21.2461 17.5312 21.2461 18.7617C21.2461 20.8125 19.8398 22.5586 17.9648 23.1094C18.0586 24.3867 18.8438 25.6523 19.793 25.6523C21.0234 25.6523 22.043 21.457 22.043 17.6602C22.043 9.58594 17.3203 3 11.5898 3ZM16.8047 20.8828C15.6445 20.8828 14.6836 19.9219 14.6836 18.75C14.6836 17.5781 15.6445 16.6172 16.8047 16.6172C17.9883 16.6172 18.9492 17.5781 18.9492 18.75C18.9492 19.9219 17.9883 20.8828 16.8047 20.8828ZM16.8047 20.0508C17.5312 20.0508 18.1172 19.4648 18.1172 18.75C18.1172 18.0469 17.5312 17.4492 16.8047 17.4492C16.1016 17.4492 15.5156 18.0469 15.5156 18.75C15.5156 19.4648 16.1016 20.0508 16.8047 20.0508Z" fill="black" fill-opacity="0.85"/>
</g>
<defs>
<clipPath id="clip0_2124_24782">
<rect width="16.043" height="22.6758" fill="white" transform="translate(6 3)"/>
</clipPath>
</defs>
</svg>
