<svg width="28" height="28" viewBox="0 0 28 28" fill="none" xmlns="http://www.w3.org/2000/svg">
<path d="M13.9531 25.9062C20.4922 25.9062 25.9062 20.4805 25.9062 13.9531C25.9062 7.41406 20.4805 2 13.9414 2C7.41406 2 2 7.41406 2 13.9531C2 20.4805 7.42578 25.9062 13.9531 25.9062Z" fill="black" fill-opacity="0.85"/>
<path d="M9.85156 18.6172C9.32422 18.6172 9.03125 18.2773 9.03125 17.7383V10.0156C9.03125 9.55859 9.40625 9.18359 9.86328 9.18359C10.3203 9.18359 10.6953 9.55859 10.6953 10.0156V17.1992H13.1562C13.5312 17.1992 13.8594 17.5156 13.8594 17.9023C13.8594 18.2891 13.5312 18.6172 13.1562 18.6172H9.85156ZM16.5781 18.7461C16.1094 18.7461 15.7227 18.3711 15.7227 17.8906V10.707H14.293C13.8945 10.707 13.5898 10.4023 13.5898 10.0039C13.5898 9.61719 13.8945 9.3125 14.293 9.3125H18.8047C19.1797 9.3125 19.4844 9.61719 19.4844 10.0039C19.4844 10.4023 19.1797 10.707 18.8047 10.707H17.4102V17.8906C17.4102 18.3711 17.0352 18.7461 16.5781 18.7461Z" fill="white"/>
</svg>
