<svg width="28" height="28" viewBox="0 0 28 28" fill="none" xmlns="http://www.w3.org/2000/svg">
<path d="M6.67969 24.5977H20.8945C23.3555 24.5977 24.5742 23.3789 24.5742 20.9648V6.65625C24.5742 4.24219 23.3555 3.02344 20.8945 3.02344H6.67969C4.23047 3.02344 3 4.23047 3 6.65625V20.9648C3 23.3906 4.23047 24.5977 6.67969 24.5977Z" fill="black" fill-opacity="0.85"/>
<path d="M6.83203 14.8242L6.87891 10.5937C6.87891 10.3828 6.97266 10.1484 7.11328 10.0078C7.42969 9.67969 7.88672 9.67969 8.21484 10.0078C8.36719 10.1602 8.46094 10.3594 8.44922 10.5703L8.42578 12.3633L8.39062 13.0078L8.76562 12.5977L14.2969 7.06641C14.625 6.75 15.1055 6.75 15.4102 7.06641C15.7383 7.39453 15.7266 7.86328 15.4102 8.17969L9.89062 13.7109L9.45703 14.0977L10.1367 14.0742L11.918 14.0508C12.1289 14.0508 12.3164 14.1211 12.4805 14.2852C12.7969 14.6016 12.7969 15.0469 12.4688 15.3633C12.3398 15.5039 12.1289 15.5977 11.9063 15.6094L7.65234 15.6562C7.21875 15.668 6.83203 15.2812 6.83203 14.8242ZM20.7656 12.7734L20.7188 17.0273C20.707 17.25 20.6367 17.4727 20.4961 17.6016C20.1797 17.918 19.7109 17.918 19.3945 17.6016C19.2422 17.4375 19.1719 17.25 19.1719 17.0391L19.1953 15.2461L19.2422 14.5781L18.8438 15.0117L13.3008 20.5312C12.9844 20.8594 12.5156 20.8477 12.1992 20.5312C11.8711 20.2031 11.8711 19.7461 12.1992 19.4297L17.7305 13.8867L18.1641 13.5117L17.4844 13.5352L15.6797 13.5703C15.4805 13.5703 15.293 13.4883 15.1289 13.3359C14.8125 13.0195 14.8125 12.5742 15.1406 12.2344C15.2812 12.1055 15.5156 12 15.7031 12L19.957 11.9648C20.4023 11.9648 20.7656 12.3047 20.7656 12.7734Z" fill="white"/>
</svg>
