<svg width="32" height="28" viewBox="0 0 32 28" fill="none" xmlns="http://www.w3.org/2000/svg">
<g clip-path="url(#clip0_2124_24839)">
<path d="M3.9375 20.0352H20.7539C23.7422 20.0352 24.6914 18.5938 24.6914 14.0234C24.6914 9.44141 23.7539 8 20.7539 8H3.9375C0.9375 8 0 9.44141 0 14.0234C0 18.5938 0.9375 20.0352 3.9375 20.0352ZM3.9375 13.1797C3.25781 13.1797 2.71875 12.6406 2.71875 11.9609C2.71875 11.293 3.25781 10.7656 3.9375 10.7656C4.60547 10.7656 5.13281 11.293 5.13281 11.9609C5.13281 12.6406 4.60547 13.1797 3.9375 13.1797Z" fill="black" fill-opacity="0.85"/>
<path d="M26.0156 17.3281H28.8633C30.2109 17.3281 31.1016 16.4609 31.1016 15.207V12.8164C31.1016 11.5742 30.2109 10.6953 28.8633 10.6953H26.0156C26.2031 11.6211 26.2852 12.7227 26.2852 14.0234C26.2852 15.3008 26.1914 16.4023 26.0156 17.3281Z" fill="black" fill-opacity="0.85"/>
</g>
<defs>
<clipPath id="clip0_2124_24839">
<rect width="31.1016" height="12.082" fill="white" transform="translate(0 8)"/>
</clipPath>
</defs>
</svg>
