<svg width="28" height="28" viewBox="0 0 28 28" fill="none" xmlns="http://www.w3.org/2000/svg">
<g clip-path="url(#clip0_2124_50165)">
<path d="M6.98438 8.49609H20.5547C19.6992 7.18359 18.7266 5.83594 17.7188 4.47656C16.9688 3.49219 16.5234 3 15.2578 3H12.293C11.0273 3 10.582 3.49219 9.83203 4.47656C8.8125 5.83594 7.85156 7.18359 6.98438 8.49609ZM13.7812 15.0234C15.1875 15.0234 16.3477 15.9141 16.7578 17.1914H24.5039C24.2344 15.2227 23.2383 12.9141 21.7969 10.4531H5.74219C4.3125 12.9141 3.31641 15.2227 3.03516 17.1914H10.793C11.2031 15.9141 12.375 15.0234 13.7812 15.0234ZM13.7812 19.5703C14.5781 19.5703 15.1875 18.9609 15.1875 18.1523C15.1875 17.3672 14.5781 16.7344 13.7812 16.7344C12.9844 16.7344 12.3633 17.3672 12.3633 18.1523C12.3633 18.9609 12.9844 19.5703 13.7812 19.5703ZM10.9336 25.793H16.6055C21.5508 25.793 24.2227 23.3438 24.5508 19.1484H16.7578C16.3594 20.3906 15.1992 21.2812 13.7812 21.2812C12.375 21.2812 11.1914 20.3906 10.793 19.1484H3C3.31641 23.3438 5.98828 25.793 10.9336 25.793Z" fill="black" fill-opacity="0.85"/>
</g>
<defs>
<clipPath id="clip0_2124_50165">
<rect width="21.5508" height="22.8164" fill="white" transform="translate(3 3)"/>
</clipPath>
</defs>
</svg>
