<svg width="28" height="28" viewBox="0 0 28 28" fill="none" xmlns="http://www.w3.org/2000/svg">
<g clip-path="url(#clip0_2124_50106)">
<path d="M3.21875 15.418C3.89844 15.418 4.4375 14.8789 4.4375 14.2109C4.4375 13.5312 3.89844 12.9922 3.21875 12.9922C2.53906 12.9922 2 13.5312 2 14.2109C2 14.8789 2.53906 15.418 3.21875 15.418ZM5.98438 7.20312C6.66406 7.20312 7.20312 6.65234 7.20312 5.98438C7.20312 5.30469 6.66406 4.76562 5.98438 4.76562C5.31641 4.76562 4.76562 5.30469 4.76562 5.98438C4.76562 6.65234 5.31641 7.20312 5.98438 7.20312ZM14.2227 4.4375C14.8906 4.4375 15.4297 3.89844 15.4297 3.21875C15.4297 2.55078 14.8906 2 14.2227 2C13.543 2 13.0039 2.55078 13.0039 3.21875C13.0039 3.89844 13.543 4.4375 14.2227 4.4375ZM22.4492 7.20312C23.1289 7.20312 23.668 6.65234 23.668 5.98438C23.668 5.30469 23.1289 4.76562 22.4492 4.76562C21.7695 4.76562 21.2305 5.30469 21.2305 5.98438C21.2305 6.65234 21.7695 7.20312 22.4492 7.20312ZM25.2266 15.418C25.8945 15.418 26.4336 14.8789 26.4336 14.2109C26.4336 13.5312 25.8945 12.9922 25.2266 12.9922C24.5469 12.9922 24.0078 13.5312 24.0078 14.2109C24.0078 14.8789 24.5469 15.418 25.2266 15.418Z" fill="black" fill-opacity="0.85"/>
<path d="M19.9062 23.0938H21.793V14.375C21.793 10.0977 18.4883 6.79297 14.2227 6.79297C9.94531 6.79297 6.66406 10.0977 6.66406 14.375V23.0938H8.55078V14.375C8.55078 11.1406 11 8.67969 14.2227 8.67969C17.457 8.67969 19.9062 11.1406 19.9062 14.375V23.0938ZM23.2227 24.043C23.7383 24.043 24.1836 23.6211 24.1836 23.1055C24.1836 22.5781 23.7383 22.1445 23.2227 22.1445H5.21094C4.69531 22.1445 4.28516 22.5781 4.28516 23.1055C4.28516 23.6211 4.69531 24.043 5.21094 24.043H23.2227ZM15.1719 14.6328C15.1719 14.1172 14.7383 13.6836 14.2227 13.6836C13.707 13.6836 13.2852 14.1172 13.2852 14.6328V23.0938H15.1719V14.6328Z" fill="black" fill-opacity="0.85"/>
</g>
<defs>
<clipPath id="clip0_2124_50106">
<rect width="24.4336" height="23.3086" fill="white" transform="translate(2 2)"/>
</clipPath>
</defs>
</svg>
