<svg width="29" height="28" viewBox="0 0 29 28" fill="none" xmlns="http://www.w3.org/2000/svg">
<g clip-path="url(#clip0_2124_24738)">
<path d="M6.23438 13.8477C6.23438 20.7734 8.42578 25.3906 11.6367 25.3906C14.8477 25.3906 17.0391 20.7734 17.0391 13.8477C17.0391 6.92188 14.8477 2.29297 11.6367 2.29297C8.42578 2.29297 6.23438 6.92188 6.23438 13.8477ZM0 13.8477C0 21.2188 2.0625 25.6953 6.96094 25.6953H8.29688C7.30078 24.8281 6.49219 23.5625 5.88281 21.957H4.30078C3.87891 21.957 3.53906 21.6055 3.53906 21.1836C3.53906 20.7617 3.87891 20.4219 4.30078 20.4219H5.39062C5.21484 19.7422 5.07422 19.0156 4.96875 18.3594H3.50391C3.08203 18.3594 2.74219 18.0195 2.74219 17.5977C2.74219 17.1758 3.08203 16.8242 3.50391 16.8242H4.76953C4.69922 16.0625 4.64062 15.1953 4.62891 14.4688H3.21094C2.78906 14.4688 2.4375 14.1289 2.4375 13.707C2.4375 13.2852 2.78906 12.9336 3.21094 12.9336H4.64062C4.65234 12.1602 4.71094 11.3516 4.79297 10.5898H3.50391C3.08203 10.5898 2.74219 10.2383 2.74219 9.81641C2.74219 9.39453 3.08203 9.05469 3.50391 9.05469H5.01562C5.13281 8.32812 5.28516 7.64844 5.47266 6.99219H4.30078C3.87891 6.99219 3.53906 6.65234 3.53906 6.23047C3.53906 5.80859 3.87891 5.45703 4.30078 5.45703H5.98828C6.58594 3.98047 7.35938 2.80859 8.29688 2H6.96094C2.0625 2 0 6.46484 0 13.8477Z" fill="black" fill-opacity="0.85"/>
<path d="M13.6641 15.7578L17.2031 18.8984C18.9141 20.4453 21.5625 19.3555 21.5625 16.9766V16.4492H26.2969C27.7383 16.4492 28.8984 15.2891 28.8984 13.8594C28.8984 12.4062 27.7383 11.2578 26.2969 11.2578H21.5625V10.707C21.5625 8.37499 18.9609 7.23827 17.2148 8.77343L13.6641 11.9258C12.4688 12.9688 12.457 14.7031 13.6641 15.7578Z" fill="white"/>
<path d="M14.7305 14.5625L18.2695 17.7031C18.9492 18.3242 19.957 17.9727 19.957 16.9766V14.8555H26.2969C26.8594 14.8555 27.293 14.4102 27.293 13.8594C27.293 13.2852 26.8594 12.8516 26.2969 12.8516H19.957V10.707C19.957 9.74606 18.9844 9.33591 18.2695 9.96872L14.7305 13.1211C14.2383 13.543 14.2383 14.1289 14.7305 14.5625Z" fill="black" fill-opacity="0.85"/>
</g>
<defs>
<clipPath id="clip0_2124_24738">
<rect width="28.8984" height="23.707" fill="white" transform="translate(0 2)"/>
</clipPath>
</defs>
</svg>
