<svg width="29" height="29" viewBox="0 0 29 29" fill="none" xmlns="http://www.w3.org/2000/svg">
<g clip-path="url(#clip0_2124_45851)">
<path d="M7.61302 8.81567C9.03099 8.81567 10.1677 7.67895 10.1677 6.26099C10.1677 4.85474 9.03099 3.7063 7.61302 3.7063C6.19506 3.7063 5.05834 4.85474 5.05834 6.26099C5.05834 7.67895 6.19506 8.81567 7.61302 8.81567ZM3.04271 13.7376L3.72239 17.9329C3.99193 19.4798 6.10131 19.1633 5.85521 17.6282L5.25756 14.0071L7.63646 13.0813C7.99974 12.9407 8.31615 12.9875 8.46849 13.3274L10.6599 17.6633C11.3161 18.9641 11.8552 19.3626 12.3943 19.7493L19.4607 24.9407C20.7029 25.8548 22.1912 24.0501 20.7966 23.0188L15.3006 18.9876C15.031 18.7883 15.0545 18.4251 15.3474 18.261L19.0857 16.1048L23.9841 18.4485C25.3904 19.1048 26.5037 17.1477 24.8631 16.3626L19.6365 13.8782C18.992 13.5735 18.3943 13.6673 17.8787 13.9719L15.4177 15.4133C15.0896 15.6008 14.8552 15.5071 14.7381 15.261L12.7576 11.2297C12.5701 10.8547 12.6169 10.4914 13.0271 10.2922L14.8318 9.47192C15.4295 9.19067 15.6521 8.99145 15.8162 8.41724L16.9646 4.44458C17.3865 2.94458 15.3709 2.3938 14.9373 3.8938L13.824 7.78442L3.83958 12.179C3.15989 12.4719 2.9138 12.9876 3.04271 13.7376Z" fill="black" fill-opacity="0.85"/>
</g>
<defs>
<clipPath id="clip0_2124_45851">
<rect width="22.6694" height="22.2461" fill="white" transform="translate(3.00977 3.00708)"/>
</clipPath>
</defs>
</svg>
