<svg width="28" height="28" viewBox="0 0 28 28" fill="none" xmlns="http://www.w3.org/2000/svg">
<path d="M13.9531 25.9062C20.4922 25.9062 25.9062 20.4805 25.9062 13.9531C25.9062 7.41406 20.4805 2 13.9414 2C7.41406 2 2 7.41406 2 13.9531C2 20.4805 7.42578 25.9062 13.9531 25.9062ZM13.9531 23.9141C8.42188 23.9141 4.00391 19.4844 4.00391 13.9531C4.00391 8.42188 8.41016 3.99219 13.9414 3.99219C19.4727 3.99219 23.9141 8.42188 23.9141 13.9531C23.9141 19.4844 19.4844 23.9141 13.9531 23.9141Z" fill="black" fill-opacity="0.85"/>
<path d="M6.99219 17.7734C7.37891 17.7734 7.58984 17.5391 7.64844 17.1641L7.89453 15.9805H9.64062L9.88672 17.1758C9.98047 17.6094 10.2148 17.7734 10.5664 17.7734C10.918 17.7734 11.1875 17.4922 11.1875 17.1406C11.1875 17.0703 11.1523 16.8125 11.1289 16.707L9.79297 10.9766C9.66406 10.4023 9.32422 10.1211 8.75 10.1211C8.21094 10.1211 7.88281 10.3906 7.74219 10.9766L6.42969 16.707C6.39453 16.8594 6.35938 17 6.35938 17.1406C6.35938 17.5742 6.65234 17.7734 6.99219 17.7734ZM8.08203 14.9609L8.72656 11.7031H8.77344L9.44141 14.9609H8.08203ZM12.8281 17.6562H14.5859C15.8398 17.6562 16.4609 16.707 16.4609 15.5586C16.4609 14.7148 15.957 13.8125 15.1602 13.7539V13.707C15.9102 13.5312 16.25 12.7461 16.25 12.0781C16.25 10.9766 15.6406 10.2383 14.5391 10.2383H12.8281C12.4414 10.2383 12.1719 10.4492 12.1719 10.9414V16.9531C12.1719 17.3984 12.3945 17.6562 12.8281 17.6562ZM13.4961 16.6367V14.293H14.1289C14.8086 14.293 15.125 14.7734 15.125 15.4531C15.125 16.1328 14.8438 16.6367 14.1523 16.6367H13.4961ZM13.4961 13.3789V11.2578H14.1406C14.7617 11.2578 14.9844 11.668 14.9844 12.2773C14.9844 12.9336 14.7031 13.3789 14.0469 13.3789H13.4961ZM19.3672 17.8203C20.7266 17.8203 21.4766 16.9414 21.4766 15.6406C21.4766 14.4453 20.8438 13.9062 19.9883 13.4844L19.5664 13.2852C19.0156 13.0039 18.6406 12.6992 18.6406 12.0664C18.6406 11.5742 18.8633 11.1641 19.3438 11.1641C19.8359 11.1641 20.0352 11.5625 20.1523 12.043C20.2227 12.3125 20.457 12.4766 20.7734 12.4766C21.1133 12.4766 21.3242 12.2422 21.3242 11.9258C21.3242 11.7734 21.2891 11.6094 21.2305 11.4453C20.9609 10.625 20.293 10.0508 19.3438 10.0508C18.2422 10.0508 17.3398 10.8008 17.3398 12.1836C17.3398 13.3555 18.0195 13.918 18.8047 14.3281L19.2148 14.5273C19.8008 14.832 20.1641 15.1133 20.1641 15.7695C20.1641 16.3203 19.8828 16.7305 19.3672 16.7305C18.875 16.7305 18.6406 16.3555 18.5117 15.8516C18.4297 15.5352 18.2305 15.3711 17.8906 15.3711C17.5391 15.3711 17.3281 15.6289 17.3281 15.9805C17.3281 16.0977 17.3516 16.2266 17.375 16.3438C17.6211 17.2578 18.3242 17.8203 19.3672 17.8203Z" fill="black" fill-opacity="0.85"/>
</svg>
