<svg width="28" height="30" viewBox="0 0 28 30" fill="none" xmlns="http://www.w3.org/2000/svg">
<path d="M20.2305 5.27344C21.625 5.27344 22.7852 4.125 22.7852 2.71875C22.7852 1.3125 21.625 0.152344 20.2305 0.152344C18.8242 0.152344 17.6641 1.3125 17.6641 2.71875C17.6641 4.125 18.8242 5.27344 20.2305 5.27344ZM15.6836 21.7148C16.3633 21.7148 16.8789 21.1758 16.8789 20.5195V14.8711C16.8789 14.543 16.7734 14.2266 16.5508 14.0273L13.4453 10.9336L16.2109 8.15625C16.3867 7.98047 16.6797 7.98047 16.8555 8.15625L18.7891 10.1016C19 10.3242 19.3164 10.4414 19.6211 10.4414H25.2695C25.9375 10.4414 26.4648 9.91406 26.4648 9.23438C26.4648 8.57812 25.9375 8.03906 25.2695 8.03906H20.1133L15.918 3.82031C15.3906 3.28125 14.6172 2.97656 13.8672 2.97656H9.44922C8.25391 2.97656 7.90234 4.28906 8.65234 5.03906L10.6211 6.99609L9.03906 8.54297C8.04297 9.52734 8.04297 11.2031 9.03906 12.1758L11.125 14.2383V20.8008C11.125 21.457 11.6406 21.9961 12.3203 21.9961C12.9766 21.9961 13.5156 21.457 13.5156 20.8008V14.4023L14.4883 15.3633V20.5195C14.4883 21.1758 15.0273 21.7148 15.6836 21.7148ZM1.65625 8.33203H13.0117V7.03125H1.65625C1.29297 7.03125 1 7.32422 1 7.6875C1 8.03906 1.29297 8.33203 1.65625 8.33203ZM25.7852 21.1406C26.1367 21.1406 26.4414 20.8359 26.4414 20.4844V9.26953H25.1406V20.4844C25.1406 20.8359 25.4336 21.1406 25.7852 21.1406ZM20.1836 29.1211C20.5469 29.1211 20.8398 28.8281 20.8398 28.4648C20.8398 28.1016 20.5469 27.8203 20.1836 27.8203C19.375 27.8203 19.1523 27.6797 18.4727 27.0117L5.99219 14.5195C5.72266 14.2617 5.3125 14.2617 5.06641 14.5195C4.80859 14.7656 4.80859 15.1758 5.06641 15.4336L17.7344 28.1016C18.4727 28.8398 19.2812 29.1211 20.1836 29.1211ZM23.2188 28.4883C23.582 28.4883 23.8633 28.1953 23.8633 27.832C23.8633 27.4688 23.582 27.1875 23.2188 27.1875C22.4102 27.1875 22.1758 27.0469 21.4961 26.3789L9.01562 13.8984C8.74609 13.6289 8.34766 13.6289 8.08984 13.8867C7.84375 14.1445 7.84375 14.543 8.08984 14.8008L20.7578 27.4688C21.4961 28.207 22.3047 28.4883 23.2188 28.4883Z" fill="black" fill-opacity="0.85"/>
</svg>
