<svg width="28" height="28" viewBox="0 0 28 28" fill="none" xmlns="http://www.w3.org/2000/svg">
<g clip-path="url(#clip0_2124_24760)">
<path d="M7.15625 12.5039C9.89844 12.5273 12.2539 10.3711 12.2188 7.73438C12.1836 5.13281 9.89844 3 7.15625 3C4.63672 3 3.08984 4.55859 2.35156 5.64844C2.10547 6.02344 2 6.43359 2 6.89062V8.61328C2 9.07031 2.11719 9.48047 2.35156 9.85547C3.06641 10.9453 4.63672 12.4688 7.15625 12.5039ZM4.13281 9.60938C3.82812 9.60938 3.58203 9.36328 3.58203 9.04688V6.44531C3.58203 6.12891 3.82812 5.88281 4.13281 5.88281C4.46094 5.88281 4.69531 6.12891 4.69531 6.44531V9.04688C4.69531 9.36328 4.46094 9.60938 4.13281 9.60938ZM7.75391 21.9609H11.0586V12.3281C10.1328 13.043 8.98438 13.5117 7.75391 13.6055V21.9609ZM8.90234 25.8281H9.89844C10.6133 25.8281 11.0586 25.4766 11.0586 24.7852V23.1328H7.75391V24.7852C7.75391 25.4766 8.21094 25.8281 8.90234 25.8281ZM20.1406 12.5039C22.6602 12.4688 24.2422 10.9453 24.9453 9.85547C25.1797 9.48047 25.2969 9.07031 25.2969 8.61328V6.89062C25.2969 6.43359 25.1914 6.02344 24.9453 5.64844C24.2188 4.55859 22.6602 3 20.1406 3C17.3984 3 15.1133 5.13281 15.0781 7.73438C15.043 10.3711 17.3984 12.5273 20.1406 12.5039ZM23.1641 9.60938C22.8359 9.60938 22.6016 9.36328 22.6016 9.04688V6.44531C22.6016 6.12891 22.8359 5.88281 23.1641 5.88281C23.4688 5.88281 23.7148 6.12891 23.7148 6.44531V9.04688C23.7148 9.36328 23.4688 9.60938 23.1641 9.60938ZM19.543 21.9609V13.6055C18.3125 13.5117 17.1641 13.043 16.2383 12.3281V21.9609H19.543ZM18.3945 25.8281C19.0859 25.8281 19.543 25.4766 19.543 24.7852V23.1328H16.2383V24.7852C16.2383 25.4766 16.6836 25.8281 17.3984 25.8281H18.3945Z" fill="black" fill-opacity="0.85"/>
</g>
<defs>
<clipPath id="clip0_2124_24760">
<rect width="23.2969" height="22.8633" fill="white" transform="translate(2 3)"/>
</clipPath>
</defs>
</svg>
