<svg width="28" height="28" viewBox="0 0 28 28" fill="none" xmlns="http://www.w3.org/2000/svg">
<g clip-path="url(#clip0_2124_89147)">
<path d="M10.4834 5.41797C10.4834 7.48047 11.8779 9.20312 13.7881 9.68359V20.5586C13.7881 24.0156 14.3975 25.9023 14.8779 25.9023C15.3467 25.9023 15.9561 24.0273 15.9561 20.5586V9.68359C17.8662 9.21484 19.2725 7.48047 19.2725 5.41797C19.2725 2.99219 17.3154 1 14.8779 1C12.4287 1 10.4834 2.99219 10.4834 5.41797ZM13.6123 5.66406C12.8154 5.66406 12.1123 4.96094 12.1123 4.14062C12.1123 3.33203 12.8154 2.64062 13.6123 2.64062C14.4443 2.64062 15.124 3.33203 15.124 4.14062C15.124 4.96094 14.4443 5.66406 13.6123 5.66406Z" fill="black" fill-opacity="0.85"/>
<path d="M21.0186 24.7539C21.9209 25.6445 23.374 25.6445 24.2412 24.7305C25.1084 23.8516 25.1084 22.4219 24.2295 21.543L7.88184 5.20703C7.00293 4.31641 5.5498 4.31641 4.65918 5.20703C3.78027 6.07422 3.78027 7.53906 4.65918 8.41797L21.0186 24.7539Z" fill="white"/>
<path d="M21.9912 23.7812C22.3428 24.1328 22.9287 24.1328 23.2686 23.7812C23.6084 23.4297 23.6201 22.8672 23.2686 22.5039L6.9209 6.16799C6.56934 5.82814 5.9834 5.81643 5.63184 6.16799C5.29199 6.50783 5.29199 7.10549 5.63184 7.44533L21.9912 23.7812Z" fill="black" fill-opacity="0.85"/>
</g>
<defs>
<clipPath id="clip0_2124_89147">
<rect width="20.8901" height="25.7461" fill="white" transform="translate(4 1)"/>
</clipPath>
</defs>
</svg>
