<svg width="28" height="28" viewBox="0 0 28 28" fill="none" xmlns="http://www.w3.org/2000/svg">
<path d="M13.9531 25.9062C20.4922 25.9062 25.9062 20.4805 25.9062 13.9531C25.9062 7.41406 20.4805 2 13.9414 2C7.41406 2 2 7.41406 2 13.9531C2 20.4805 7.42578 25.9062 13.9531 25.9062Z" fill="black" fill-opacity="0.85"/>
<path d="M8.30469 18.8398C7.74219 18.8398 7.48438 18.5469 7.48438 18.1367C7.48438 17.75 7.70703 17.4453 7.94141 17.1641L10.0273 14.4805C10.6719 13.6719 11.3516 12.6875 11.3516 11.7148C11.3516 10.8594 10.9414 10.2266 10.2148 10.2266C9.51172 10.2266 9.23047 10.7305 8.99609 11.5391C8.87891 11.9375 8.62109 12.1133 8.22266 12.1133C7.75391 12.1133 7.50781 11.8086 7.50781 11.3516C7.50781 10.0977 8.67969 8.82031 10.2148 8.82031C11.8906 8.82031 13.0039 10.0039 13.0039 11.6328C13.0039 12.6992 12.6055 13.5898 11.3867 15.0898L9.62891 17.3164V17.4102H12.5C12.9102 17.4102 13.1914 17.668 13.1914 18.1367C13.1914 18.5586 12.9219 18.8398 12.5 18.8398H8.30469ZM16.8008 15.4648C15.207 15.4648 14.4219 13.918 14.4219 12.2891C14.4219 10.3906 15.4883 8.84375 17.3281 8.84375C19.7773 8.84375 20.5039 11.5742 20.5039 13.8594C20.5039 16.332 19.7773 19.0742 17.3047 19.0742C16.0977 19.0742 15.043 18.4414 14.7852 17.3867C14.75 17.2461 14.7148 17.0938 14.7148 16.9531C14.7148 16.5547 14.9375 16.2148 15.4414 16.2148C15.8047 16.2148 16.0508 16.3672 16.2148 16.7656C16.4375 17.2812 16.8008 17.6562 17.3398 17.6562C18.6875 17.6562 18.8516 15.2422 18.8516 13.9062C18.8516 13.8711 18.8516 13.8242 18.8516 13.7773H18.8047C18.5352 14.8086 17.7969 15.4648 16.8008 15.4648ZM17.3516 14.1289C18.2188 14.1289 18.6289 13.1445 18.6289 12.207C18.6289 11.3047 18.2539 10.2617 17.3516 10.2617C16.5078 10.2617 16.0977 11.3047 16.0977 12.207C16.0977 13.1094 16.4609 14.1289 17.3516 14.1289Z" fill="white"/>
</svg>
