<svg width="28" height="28" viewBox="0 0 28 28" fill="none" xmlns="http://www.w3.org/2000/svg">
<g clip-path="url(#clip0_2124_88657)">
<path d="M6.67969 24.5977H20.8945C23.3555 24.5977 24.5742 23.3789 24.5742 20.9648V6.65625C24.5742 4.24219 23.3555 3.02344 20.8945 3.02344H6.67969C4.23047 3.02344 3 4.23047 3 6.65625V20.9648C3 23.3906 4.23047 24.5977 6.67969 24.5977ZM6.70312 22.7109C5.53125 22.7109 4.88672 22.0898 4.88672 20.8711V6.75C4.88672 5.53125 5.53125 4.91016 6.70312 4.91016H20.8711C22.0312 4.91016 22.6875 5.53125 22.6875 6.75V20.8711C22.6875 22.0898 22.0312 22.7109 20.8711 22.7109H6.70312Z" fill="black" fill-opacity="0.85"/>
<path d="M9.33984 20.0977C9.65625 20.0977 9.87891 19.8516 9.87891 19.5586V16.1016C10.0898 16.0078 10.5586 15.8672 11.2734 15.8672C13.3594 15.8672 14.6719 16.8984 16.6992 16.8984C17.5898 16.8984 17.9648 16.8047 18.3984 16.5938C18.8906 16.3711 19.1133 16.0312 19.1133 15.5039V9.72656C19.1133 9.38672 18.9375 9.14062 18.457 9.14062C18.1172 9.14062 17.6016 9.38672 16.6406 9.38672C14.6602 9.38672 13.3242 8.34375 11.2148 8.34375C10.3125 8.34375 9.9375 8.44922 9.51562 8.63672C9.03516 8.84766 8.80078 9.22266 8.80078 9.72656V19.5586C8.80078 19.8398 9.04688 20.0977 9.33984 20.0977Z" fill="black" fill-opacity="0.85"/>
</g>
<defs>
<clipPath id="clip0_2124_88657">
<rect width="21.5742" height="21.5977" fill="white" transform="translate(3 3)"/>
</clipPath>
</defs>
</svg>
