<svg width="28" height="28" viewBox="0 0 28 28" fill="none" xmlns="http://www.w3.org/2000/svg">
<path d="M13.9531 25.9062C20.4922 25.9062 25.9062 20.4805 25.9062 13.9531C25.9062 7.41406 20.4805 2 13.9414 2C7.41406 2 2 7.41406 2 13.9531C2 20.4805 7.42578 25.9062 13.9531 25.9062ZM13.9531 23.9141C8.42188 23.9141 4.00391 19.4844 4.00391 13.9531C4.00391 8.42188 8.41016 3.99219 13.9414 3.99219C19.4727 3.99219 23.9141 8.42188 23.9141 13.9531C23.9141 19.4844 19.4844 23.9141 13.9531 23.9141Z" fill="black" fill-opacity="0.85"/>
<path d="M14.0352 19.5312C16.3906 19.5312 18.0547 18.1602 18.0547 15.7578C18.0547 13.5312 16.3672 12.2891 14.5156 12.2891C12.9453 12.2891 12.0312 13.0859 11.6563 13.9297C11.6328 13.9297 11.5859 13.9297 11.5625 13.9297C11.5625 13.8828 11.5625 13.8477 11.5625 13.8125C11.5625 11.4102 12.6523 9.86328 14.2695 9.86328C15.0781 9.86328 15.5469 10.2266 15.875 10.6367C16.25 11.0117 16.4844 11.2109 16.8828 11.2109C17.2812 11.2109 17.5859 10.9297 17.5859 10.5195C17.5859 10.332 17.5508 10.168 17.4805 10.0039C17.1172 9.13672 15.8398 8.375 14.3281 8.375C11.5625 8.375 9.83984 10.3086 9.83984 14.2109C9.83984 15.8281 10.1328 17 10.625 17.7852C11.375 19.0273 12.6523 19.5312 14.0352 19.5312ZM13.9531 18.125C12.6523 18.125 11.7148 17.1641 11.7148 15.8281C11.7148 14.5391 12.6406 13.625 13.9648 13.625C15.3008 13.625 16.2148 14.5273 16.2148 15.8398C16.2148 17.2227 15.3359 18.125 13.9531 18.125Z" fill="black" fill-opacity="0.85"/>
</svg>
