<svg width="28" height="28" viewBox="0 0 28 28" fill="none" xmlns="http://www.w3.org/2000/svg">
<path d="M6.67969 24.5977H20.8945C23.3555 24.5977 24.5742 23.3789 24.5742 20.9648V6.65625C24.5742 4.24219 23.3555 3.02344 20.8945 3.02344H6.67969C4.23047 3.02344 3 4.23047 3 6.65625V20.9648C3 23.3906 4.23047 24.5977 6.67969 24.5977ZM6.70312 22.7109C5.53125 22.7109 4.88672 22.0898 4.88672 20.8711V6.75C4.88672 5.53125 5.53125 4.91016 6.70312 4.91016H20.8711C22.0312 4.91016 22.6875 5.53125 22.6875 6.75V20.8711C22.6875 22.0898 22.0312 22.7109 20.8711 22.7109H6.70312Z" fill="black" fill-opacity="0.85"/>
<path d="M10.4883 18.5039C10.4883 19.043 10.8633 19.418 11.4141 19.418H11.9063V20.3438C11.9063 20.6836 12.1523 20.918 12.4688 20.918C12.7969 20.918 13.043 20.6836 13.043 20.3438V19.418H13.793V20.3438C13.793 20.6836 14.0391 20.918 14.3672 20.918C14.6836 20.918 14.9297 20.6836 14.9297 20.3438V19.3828C16.875 19.1719 18.0117 18.0469 18.0117 16.3242C18.0117 15 17.2383 14.0156 16.0195 13.6523C16.8867 13.2305 17.4961 12.3047 17.4961 11.3086C17.4961 9.85547 16.5 8.80078 14.9297 8.56641V7.61719C14.9297 7.27734 14.6836 7.04297 14.3672 7.04297C14.0391 7.04297 13.793 7.27734 13.793 7.61719V8.51953H13.043V7.61719C13.043 7.27734 12.7969 7.04297 12.4688 7.04297C12.1523 7.04297 11.9063 7.27734 11.9063 7.61719V8.51953H11.4141C10.875 8.51953 10.4883 8.89453 10.4883 9.44531V18.5039ZM12 18.0469V14.4844H13.9688C15.6445 14.4844 16.5117 15.082 16.5117 16.2656C16.5117 17.4258 15.6797 18.0234 14.1094 18.0352L12 18.0469ZM12 13.1133V9.87891H14.0039C15.2578 9.87891 15.9844 10.4297 15.9844 11.4258C15.9844 12.5273 15.1641 13.1367 13.6641 13.125L12 13.1133Z" fill="black" fill-opacity="0.85"/>
</svg>
