<svg width="28" height="33" viewBox="0 0 28 33" fill="none" xmlns="http://www.w3.org/2000/svg">
<path d="M1.19649 19.8281C2.22774 23.6484 3.29414 24.8086 5.70821 24.8086H19.384C21.1184 24.8086 22.2785 23.8711 22.7121 22.1016L27.1184 4.21875C27.8332 1.3125 26.3801 0 24.6926 0C22.4543 0 20.0168 2.39062 21.3879 6.24609L21.7277 4.81641C18.2004 6.65625 16.5949 10.957 17.2395 16.1953L17.6613 15.6094C15.2473 15.0937 12.0949 14.8008 9.05977 14.8008C2.79024 14.8008 0.235549 16.3242 1.19649 19.8281Z" fill="black" fill-opacity="0.85"/>
<path d="M7.24342 26.6016C6.61061 26.6016 6.3528 27.1172 6.68092 27.668L9.21217 31.8281C9.55202 32.3672 10.1614 32.3438 10.4778 31.8281L13.0325 27.668C13.3724 27.1172 13.0794 26.6016 12.4583 26.6016H7.24342Z" fill="black" fill-opacity="0.85"/>
<path d="M7.24369 13.0195H12.4585C13.0796 13.0195 13.3726 12.5156 13.0327 11.9648L10.4781 7.80469C10.1617 7.27734 9.54057 7.26562 9.21244 7.80469L6.68119 11.9648C6.34135 12.5156 6.61088 13.0195 7.24369 13.0195Z" fill="black" fill-opacity="0.85"/>
</svg>
