<svg width="28" height="28" viewBox="0 0 28 28" fill="none" xmlns="http://www.w3.org/2000/svg">
<g clip-path="url(#clip0_2124_24727)">
<path d="M8.26172 25.418H17.1914C20.4844 25.418 22.4531 23.4141 22.4531 20.0625V8.37891C22.4531 5.02734 20.4844 3.03516 17.1914 3.03516H8.26172C4.96875 3.03516 3 5.02734 3 8.37891V20.0625C3 23.4141 4.96875 25.418 8.26172 25.418ZM8.17969 23.5312C6.11719 23.5312 4.88672 22.2773 4.88672 20.1445V8.35547C4.88672 6.23438 6.11719 4.98047 8.17969 4.98047H17.2734C19.3477 4.98047 20.5664 6.23438 20.5664 8.35547V20.1445C20.5664 22.2773 19.3477 23.5312 17.2734 23.5312H8.17969ZM22.2422 12.9961H22.7695C23.5195 12.9961 24 12.4805 24 11.6719V9.71484C24 8.88281 23.5195 8.36719 22.7695 8.36719H22.2422V12.9961Z" fill="black" fill-opacity="0.85"/>
<path d="M6.44531 20.2969C6.44531 21.3281 7.04297 21.9609 8.02734 21.9609H17.4375C18.4102 21.9609 19.0078 21.3281 19.0078 20.2969V8.14453C19.0078 7.13672 18.3867 6.46875 17.4375 6.46875H8.02734C7.06641 6.46875 6.44531 7.13672 6.44531 8.14453V20.2969Z" fill="black" fill-opacity="0.85"/>
</g>
<defs>
<clipPath id="clip0_2124_24727">
<rect width="21" height="22.418" fill="white" transform="translate(3 3)"/>
</clipPath>
</defs>
</svg>
