<svg width="28" height="31" viewBox="0 0 28 31" fill="none" xmlns="http://www.w3.org/2000/svg">
<path d="M18.9961 8.16797V10.9219L23.3438 15.2578C23.7305 15.6445 24.3398 15.6328 24.7266 15.2578C25.1016 14.8711 25.1016 14.25 24.7266 13.8633L18.9961 8.16797ZM11.4375 30.2578C17.3555 30.2578 19.875 28.957 19.875 25.7695V5.42578C19.875 2.00391 16.7695 0 11.4375 0C6.11719 0 3 2.00391 3 5.42578V25.7695C3 28.957 5.53125 30.2578 11.4375 30.2578ZM11.4375 28.3125C6.91406 28.3125 4.95703 27.5508 4.95703 25.6758V5.42578C4.95703 3.23438 7.34766 1.95703 11.4375 1.95703C15.5391 1.95703 17.918 3.23438 17.918 5.42578V25.6758C17.918 27.5508 15.9727 28.3125 11.4375 28.3125ZM11.4492 12.5859C12.4922 12.5859 14.2734 12.668 14.8594 12.668C15.75 12.668 16.125 12.3281 16.207 11.4141L16.3945 9.21094C16.5469 7.52344 15.3633 6.84375 11.4492 6.84375C7.52344 6.84375 6.33984 7.52344 6.49219 9.21094L6.67969 11.4141C6.76172 12.3281 7.14844 12.668 8.02734 12.668C8.625 12.668 10.3359 12.5859 11.4492 12.5859ZM11.4492 25.0898C15.3867 25.0898 16.5938 24.5039 16.3477 22.7812L16.1953 21.7148C16.0078 20.3086 14.8359 19.8398 11.4492 19.8398C8.05078 19.8398 6.87891 20.3086 6.69141 21.7148L6.53906 22.7812C6.29297 24.5039 7.5 25.0898 11.4492 25.0898Z" fill="black" fill-opacity="0.85"/>
</svg>
