<svg width="28" height="28" viewBox="0 0 28 28" fill="none" xmlns="http://www.w3.org/2000/svg">
<path d="M13.9531 25.9062C20.4922 25.9062 25.9062 20.4805 25.9062 13.9531C25.9062 7.41406 20.4805 2 13.9414 2C7.41406 2 2 7.41406 2 13.9531C2 20.4805 7.42578 25.9062 13.9531 25.9062ZM13.9531 23.9141C8.42188 23.9141 4.00391 19.4844 4.00391 13.9531C4.00391 8.42188 8.41016 3.99219 13.9414 3.99219C19.4727 3.99219 23.9141 8.42188 23.9141 13.9531C23.9141 19.4844 19.4844 23.9141 13.9531 23.9141Z" fill="black" fill-opacity="0.85"/>
<path d="M10.8477 18.8164C11.3047 18.8164 11.6914 18.4297 11.6914 17.9609V10.0156C11.6914 9.41797 11.3164 9.06641 10.7188 9.06641C10.2266 9.06641 9.82812 9.33594 9.54688 9.54688L8.25781 10.543C8.05859 10.707 7.89453 10.9297 7.89453 11.2344C7.89453 11.5977 8.14062 11.8555 8.49219 11.8555C8.67969 11.8555 8.79688 11.7969 8.91406 11.7148L9.99219 10.8477V17.9609C9.99219 18.4297 10.3789 18.8164 10.8477 18.8164ZM16.5898 18.9336C18.9219 18.9336 19.625 16.3086 19.625 13.9531C19.625 11.5977 18.9219 8.97266 16.5898 8.97266C14.2578 8.97266 13.5547 11.5977 13.5547 13.9531C13.5547 16.3086 14.2578 18.9336 16.5898 18.9336ZM16.5898 17.5391C15.6289 17.5391 15.2656 15.9805 15.2656 13.9531C15.2656 11.9141 15.6289 10.3555 16.5898 10.3555C17.5508 10.3555 17.9141 11.9141 17.9141 13.9531C17.9141 15.9805 17.5508 17.5391 16.5898 17.5391Z" fill="black" fill-opacity="0.85"/>
</svg>
