<svg width="28" height="28" viewBox="0 0 28 28" fill="none" xmlns="http://www.w3.org/2000/svg">
<path d="M10.2305 9.12109C11.6602 9.12109 12.7969 7.97266 12.7969 6.55469C12.7969 5.13672 11.6602 4 10.2305 4C8.8125 4 7.67578 5.13672 7.67578 6.55469C7.67578 7.97266 8.8125 9.12109 10.2305 9.12109ZM4.03125 18.0273C3.51562 19.9609 4.74609 21.1914 6.25781 21.1914C6.73828 21.1914 7.24219 21.0742 7.73438 20.8047L14.0977 17.418L21.1406 20.9453C21.9961 21.3672 22.6875 21.0273 22.957 20.4766C23.2148 19.9375 23.0508 19.1992 22.2305 18.7891L14.8594 15.0859C14.3789 14.8398 13.8516 14.8164 13.3477 15.0391L8.58984 17.1016L9.55078 13.75C9.72656 13.1758 10.2539 12.7539 10.8633 12.7539H20.3438C21.0117 12.7539 21.5508 12.2148 21.5508 11.5469C21.5508 10.8906 21.0117 10.3398 20.3438 10.3398H9.98438C7.64062 10.3398 5.73047 11.6875 5.19141 13.7148L4.03125 18.0273ZM3.65625 24.9414H24.2812C24.6445 24.9414 24.9375 24.6602 24.9375 24.2969C24.9375 23.9336 24.6445 23.6406 24.2812 23.6406H3.65625C3.28125 23.6406 3 23.9336 3 24.2969C3 24.6602 3.28125 24.9414 3.65625 24.9414Z" fill="black" fill-opacity="0.85"/>
</svg>
