<svg width="28" height="28" viewBox="0 0 28 28" fill="none" xmlns="http://www.w3.org/2000/svg">
<path d="M6.67969 24.5977H20.8945C23.3555 24.5977 24.5742 23.3789 24.5742 20.9648V6.65625C24.5742 4.24219 23.3555 3.02344 20.8945 3.02344H6.67969C4.23047 3.02344 3 4.23047 3 6.65625V20.9648C3 23.3906 4.23047 24.5977 6.67969 24.5977ZM6.70312 22.7109C5.53125 22.7109 4.88672 22.0898 4.88672 20.8711V6.75C4.88672 5.53125 5.53125 4.91016 6.70312 4.91016H20.8711C22.0312 4.91016 22.6875 5.53125 22.6875 6.75V20.8711C22.6875 22.0898 22.0312 22.7109 20.8711 22.7109H6.70312Z" fill="black" fill-opacity="0.85"/>
<path d="M14.0508 19.4531C16.043 19.4531 17.6133 18.6094 18.2227 16.8984C18.293 16.7109 18.3398 16.5117 18.3398 16.3008C18.3398 15.8789 18.0469 15.5859 17.625 15.5859C17.2266 15.5859 16.9922 15.8086 16.8633 16.207C16.5352 17.4023 15.3867 18.0469 14.0977 18.0469C12.0586 18.0469 10.9687 16.1016 10.9687 13.8164C10.9687 11.5313 12.082 9.60938 14.0977 9.60938C15.293 9.60938 16.418 10.2773 16.7812 11.4844C16.9219 11.9297 17.1211 12.0938 17.5312 12.0938C17.9766 12.0938 18.2578 11.8125 18.2578 11.3789C18.2578 11.1797 18.2109 10.9805 18.1406 10.793C17.5781 9.21094 15.9492 8.20312 14.0508 8.20312C11.2148 8.20312 9.39844 10.4766 9.39844 13.8164C9.39844 17.0508 11.0625 19.4531 14.0508 19.4531ZM8.46094 13.1719H14.3086C14.6367 13.1719 14.8828 12.9141 14.8828 12.5977C14.8828 12.2461 14.6367 12.0117 14.3086 12.0117H8.46094C8.13281 12.0117 7.89844 12.2461 7.89844 12.5977C7.89844 12.9141 8.13281 13.1719 8.46094 13.1719ZM8.46094 15.5508H14.3086C14.6367 15.5508 14.8828 15.293 14.8828 14.9648C14.8828 14.625 14.6367 14.3906 14.3086 14.3906H8.46094C8.13281 14.3906 7.89844 14.625 7.89844 14.9648C7.89844 15.293 8.13281 15.5508 8.46094 15.5508Z" fill="black" fill-opacity="0.85"/>
</svg>
