<svg width="28" height="29" viewBox="0 0 28 29" fill="none" xmlns="http://www.w3.org/2000/svg">
<path d="M3 13.957C3 14.5664 3.42188 15 4.03125 15H23.8359C24.4336 15 24.8555 14.5664 24.8555 13.957C24.8555 13.3477 24.4336 12.9023 23.8359 12.9023H4.03125C3.42188 12.9023 3 13.3477 3 13.957Z" fill="black" fill-opacity="0.85"/>
<path d="M13.9336 11.6953C14.543 11.6953 14.9766 11.2734 14.9766 10.6523V5.70703L14.9062 3.28125L18.0117 6.59766C18.2109 6.82031 18.4805 6.89062 18.7617 6.89062C19.3477 6.89062 19.7812 6.44531 19.7812 5.87109C19.7812 5.57812 19.6641 5.33203 19.4297 5.08594L14.7188 0.351562C14.4961 0.117188 14.2148 0 13.9336 0C13.6406 0 13.3711 0.117188 13.1484 0.351562L8.4375 5.08594C8.20312 5.33203 8.08594 5.57812 8.08594 5.87109C8.08594 6.44531 8.51953 6.89062 9.10547 6.89062C9.38672 6.89062 9.65625 6.82031 9.85547 6.59766L12.9609 3.28125L12.8789 5.70703V10.6523C12.8789 11.2734 13.3242 11.6953 13.9336 11.6953ZM13.9336 16.207C13.3242 16.207 12.8789 16.6289 12.8789 17.25V22.207L12.9609 24.6211L9.85547 21.3047C9.65625 21.0938 9.38672 21.0117 9.10547 21.0117C8.51953 21.0117 8.08594 21.457 8.08594 22.0312C8.08594 22.3242 8.20312 22.582 8.4375 22.8281L13.1484 27.5508C13.3711 27.7852 13.6406 27.9141 13.9336 27.9141C14.2148 27.9141 14.4961 27.7852 14.7188 27.5508L19.4297 22.8281C19.6641 22.582 19.7812 22.3242 19.7812 22.0312C19.7812 21.457 19.3477 21.0117 18.7617 21.0117C18.4805 21.0117 18.2109 21.0938 18.0117 21.3047L14.9062 24.6211L14.9766 22.207V17.25C14.9766 16.6289 14.543 16.207 13.9336 16.207Z" fill="black" fill-opacity="0.85"/>
</svg>
