<svg width="31" height="28" viewBox="0 0 31 28" fill="none" xmlns="http://www.w3.org/2000/svg">
<path d="M30.3281 14.8737V7.52606C30.3281 5.41669 28.9102 3.987 26.7891 3.987L3.51562 3.99872C1.41797 3.99872 0 5.44012 0 7.56122V14.8737C0 17.9089 1.30078 19.7722 4.42969 20.6979L14.5781 23.6511C17.2969 24.4479 19.043 24.1315 21.4688 22.8776L28.0547 19.4909C29.918 18.53 30.3281 17.3815 30.3281 14.8737ZM28.4414 14.8737C28.4414 16.6081 28.1133 17.3698 26.8594 18.0026L20.4609 21.2722C18.4453 22.2917 17.0156 22.5026 14.5781 21.7761L4.98047 18.9284C2.77734 18.2839 1.88672 17.0065 1.88672 14.8737V7.59637C1.88672 6.56512 2.54297 5.88544 3.55078 5.88544L26.7656 5.87372C27.7734 5.87372 28.4414 6.54169 28.4414 7.56122V14.8737Z" fill="black" fill-opacity="0.85"/>
<path d="M6.89062 17.3581H10.125C10.5 17.3581 10.8047 17.0417 10.8047 16.6667C10.8047 16.3034 10.5 15.987 10.125 15.987H7.71094V8.92059C7.71094 8.487 7.33594 8.112 6.90234 8.112C6.45703 8.112 6.08203 8.487 6.08203 8.92059V16.5026C6.08203 17.03 6.375 17.3581 6.89062 17.3581ZM14.5195 17.5573C16.2656 17.5573 17.3438 16.5612 17.3438 14.8503C17.3438 13.3972 16.6055 12.7175 15.293 12.2136L14.6602 11.9792C13.9219 11.6979 13.3945 11.3112 13.3945 10.5261C13.3945 9.83465 13.8164 9.35419 14.4727 9.35419C15.1758 9.35419 15.5508 9.86981 15.6797 10.4557C15.7969 10.8425 16.0664 10.9831 16.4297 10.9831C16.8633 10.9831 17.1328 10.7136 17.1328 10.2917C17.1328 10.1979 17.1328 10.1042 17.0742 9.88153C16.7344 8.68622 15.7266 8.01825 14.4727 8.01825C12.9141 8.01825 11.7891 9.02606 11.7891 10.655C11.7891 12.0729 12.6562 12.8229 13.8047 13.2682L14.4258 13.5143C15.1641 13.7956 15.7383 14.1589 15.7383 14.9909C15.7383 15.7175 15.2812 16.2214 14.5312 16.2214C13.793 16.2214 13.3477 15.7292 13.2188 15.1198C13.125 14.7214 12.8438 14.5456 12.4688 14.5456C12.0352 14.5456 11.7539 14.862 11.7539 15.2956C11.7539 15.4948 11.7656 15.5651 11.8242 15.7643C12.1641 16.9479 13.2422 17.5573 14.5195 17.5573ZM19.5703 17.3581H21.9609C23.5547 17.3581 24.4688 16.3034 24.4688 14.7917C24.4688 13.6901 23.8008 12.6823 22.7344 12.5768V12.5182C23.5898 12.3659 24.1875 11.4167 24.1875 10.5261C24.1875 9.07294 23.2148 8.25262 21.8906 8.25262H19.5703C19.043 8.25262 18.75 8.6159 18.75 9.10809V16.5026C18.75 17.03 19.0547 17.3581 19.5703 17.3581ZM20.3672 12.1198V9.50653H21.4219C22.2773 9.50653 22.6055 10.0456 22.6055 10.7721C22.6055 11.6042 22.125 12.1198 21.293 12.1198H20.3672ZM20.3672 16.1159V13.2214H21.4219C22.2422 13.2214 22.8164 13.6667 22.8164 14.6628C22.8164 15.5651 22.3711 16.1159 21.457 16.1159H20.3672Z" fill="black" fill-opacity="0.85"/>
</svg>
