<svg width="38" height="28" viewBox="0 0 38 28" fill="none" xmlns="http://www.w3.org/2000/svg">
<g clip-path="url(#clip0_2124_24539)">
<path d="M11.9443 23.5156H34.0811C36.5186 23.5156 37.7607 22.2969 37.7607 19.8828V8.62109C37.7607 6.21875 36.5186 5 34.0811 5H11.9443C9.4834 5 8.26465 6.20703 8.26465 8.62109V19.8828C8.26465 22.2969 9.4834 23.5156 11.9443 23.5156ZM11.9678 21.6289C10.8076 21.6289 10.1514 20.9961 10.1514 19.7773V8.72656C10.1514 7.50781 10.8076 6.88672 11.9678 6.88672H34.0459C35.2061 6.88672 35.874 7.50781 35.874 8.72656V19.7773C35.874 20.9961 35.2061 21.6289 34.0459 21.6289H11.9678ZM13.0342 11.5273H14.1006C14.4287 11.5273 14.6279 11.3281 14.6279 11.0117V9.93359C14.6279 9.60547 14.4287 9.40625 14.1006 9.40625H13.0342C12.7061 9.40625 12.5068 9.60547 12.5068 9.93359V11.0117C12.5068 11.3281 12.7061 11.5273 13.0342 11.5273ZM16.7959 11.5273H17.874C18.2021 11.5273 18.4014 11.3281 18.4014 11.0117V9.93359C18.4014 9.60547 18.2021 9.40625 17.874 9.40625H16.7959C16.4678 9.40625 16.2686 9.60547 16.2686 9.93359V11.0117C16.2686 11.3281 16.4678 11.5273 16.7959 11.5273ZM20.5693 11.5273H21.6357C21.9639 11.5273 22.1631 11.3281 22.1631 11.0117V9.93359C22.1631 9.60547 21.9639 9.40625 21.6357 9.40625H20.5693C20.2412 9.40625 20.042 9.60547 20.042 9.93359V11.0117C20.042 11.3281 20.2412 11.5273 20.5693 11.5273ZM24.3428 11.5273H25.4092C25.7373 11.5273 25.9365 11.3281 25.9365 11.0117V9.93359C25.9365 9.60547 25.7373 9.40625 25.4092 9.40625H24.3428C24.0146 9.40625 23.8154 9.60547 23.8154 9.93359V11.0117C23.8154 11.3281 24.0146 11.5273 24.3428 11.5273ZM28.1045 11.5273H29.1826C29.499 11.5273 29.71 11.3281 29.71 11.0117V9.93359C29.71 9.60547 29.499 9.40625 29.1826 9.40625H28.1045C27.7764 9.40625 27.5771 9.60547 27.5771 9.93359V11.0117C27.5771 11.3281 27.7764 11.5273 28.1045 11.5273ZM31.8779 11.5273H32.9443C33.2725 11.5273 33.4717 11.3281 33.4717 11.0117V9.93359C33.4717 9.60547 33.2725 9.40625 32.9443 9.40625H31.8779C31.5498 9.40625 31.3506 9.60547 31.3506 9.93359V11.0117C31.3506 11.3281 31.5498 11.5273 31.8779 11.5273ZM13.0342 15.3008H14.1006C14.4287 15.3008 14.6279 15.1016 14.6279 14.7734V13.707C14.6279 13.3789 14.4287 13.1797 14.1006 13.1797H13.0342C12.7061 13.1797 12.5068 13.3789 12.5068 13.707V14.7734C12.5068 15.1016 12.7061 15.3008 13.0342 15.3008ZM16.7959 15.3008H17.874C18.2021 15.3008 18.4014 15.1016 18.4014 14.7734V13.707C18.4014 13.3789 18.2021 13.1797 17.874 13.1797H16.7959C16.4678 13.1797 16.2686 13.3789 16.2686 13.707V14.7734C16.2686 15.1016 16.4678 15.3008 16.7959 15.3008ZM20.5693 15.3008H21.6357C21.9639 15.3008 22.1631 15.1016 22.1631 14.7734V13.707C22.1631 13.3789 21.9639 13.1797 21.6357 13.1797H20.5693C20.2412 13.1797 20.042 13.3789 20.042 13.707V14.7734C20.042 15.1016 20.2412 15.3008 20.5693 15.3008ZM24.3428 15.3008H25.4092C25.7373 15.3008 25.9365 15.1016 25.9365 14.7734V13.707C25.9365 13.3789 25.7373 13.1797 25.4092 13.1797H24.3428C24.0146 13.1797 23.8154 13.3789 23.8154 13.707V14.7734C23.8154 15.1016 24.0146 15.3008 24.3428 15.3008ZM28.1045 15.3008H29.1826C29.499 15.3008 29.71 15.1016 29.71 14.7734V13.707C29.71 13.3789 29.499 13.1797 29.1826 13.1797H28.1045C27.7764 13.1797 27.5771 13.3789 27.5771 13.707V14.7734C27.5771 15.1016 27.7764 15.3008 28.1045 15.3008ZM31.8779 15.3008H32.9443C33.2725 15.3008 33.4717 15.1016 33.4717 14.7734V13.707C33.4717 13.3789 33.2725 13.1797 32.9443 13.1797H31.8779C31.5498 13.1797 31.3506 13.3789 31.3506 13.707V14.7734C31.3506 15.1016 31.5498 15.3008 31.8779 15.3008ZM13.0342 19.0742H14.1006C14.4287 19.0742 14.6279 18.875 14.6279 18.5469V17.4688C14.6279 17.1523 14.4287 16.9531 14.1006 16.9531H13.0342C12.7061 16.9531 12.5068 17.1523 12.5068 17.4688V18.5469C12.5068 18.875 12.7061 19.0742 13.0342 19.0742ZM16.9131 19.0742H29.0654C29.4639 19.0742 29.71 18.8398 29.71 18.4297V17.5859C29.71 17.1875 29.4639 16.9531 29.0654 16.9531H16.9131C16.5029 16.9531 16.2686 17.1875 16.2686 17.5859V18.4297C16.2686 18.8398 16.5029 19.0742 16.9131 19.0742ZM31.8779 19.0742H32.9443C33.2725 19.0742 33.4717 18.875 33.4717 18.5469V17.4688C33.4717 17.1523 33.2725 16.9531 32.9443 16.9531H31.8779C31.5498 16.9531 31.3506 17.1523 31.3506 17.4688V18.5469C31.3506 18.875 31.5498 19.0742 31.8779 19.0742Z" fill="black" fill-opacity="0.85"/>
<path d="M3.6123 19.7305C4.45605 20.9023 5.90918 19.8008 5.21777 18.8281L1.95996 14.2461L5.21777 9.6875C5.90918 8.72656 4.45605 7.61328 3.6123 8.78516L0.272461 13.4258C-0.0908203 13.9414 -0.0908203 14.5742 0.272461 15.0781L3.6123 19.7305Z" fill="black" fill-opacity="0.85"/>
</g>
<defs>
<clipPath id="clip0_2124_24539">
<rect width="37.7607" height="18.5273" fill="white" transform="translate(0 5)"/>
</clipPath>
</defs>
</svg>
