<svg width="28" height="28" viewBox="0 0 28 28" fill="none" xmlns="http://www.w3.org/2000/svg">
<g clip-path="url(#clip0_2124_67740)">
<path d="M3.62109 25.7109H23.5078C25.9336 25.7109 27.1289 24.5391 27.1289 22.1367V10.7344C27.1289 8.33203 25.9336 7.16016 23.5078 7.16016H3.62109C1.20703 7.16016 0 8.33203 0 10.7344V22.1367C0 24.5391 1.20703 25.7109 3.62109 25.7109ZM3.64453 23.8359C2.49609 23.8359 1.88672 23.25 1.88672 22.043V10.8281C1.88672 9.63281 2.49609 9.03516 3.64453 9.03516H23.4844C24.6328 9.03516 25.2422 9.63281 25.2422 10.8281V22.043C25.2422 23.25 24.6328 23.8359 23.4844 23.8359H3.64453ZM7.61719 8.17969H9.43359V6.10547C9.43359 5.21484 9.96094 4.71094 10.875 4.71094H16.2539C17.168 4.71094 17.6836 5.21484 17.6836 6.10547V8.15625H19.5V6.23438C19.5 4.03125 18.3398 3 16.2188 3H10.8984C8.89453 3 7.61719 4.03125 7.61719 6.23438V8.17969Z" fill="black" fill-opacity="0.85"/>
<path d="M8.10938 17.4727C8.10938 18.0703 8.51953 18.4805 9.11719 18.4805H11.5078V20.8594C11.5078 21.4805 11.9062 21.8789 12.5156 21.8789H14.6133C15.2227 21.8789 15.6211 21.4805 15.6211 20.8594V18.4805H18.0117C18.6211 18.4805 19.0312 18.0703 19.0312 17.4727V15.375C19.0312 14.7656 18.6211 14.3555 18.0117 14.3555H15.6211V11.9883C15.6211 11.3672 15.2227 10.9688 14.6133 10.9688H12.5156C11.9062 10.9688 11.5078 11.3672 11.5078 11.9883V14.3555H9.11719C8.50781 14.3555 8.10938 14.7656 8.10938 15.375V17.4727Z" fill="black" fill-opacity="0.85"/>
</g>
<defs>
<clipPath id="clip0_2124_67740">
<rect width="27.1289" height="22.7227" fill="white" transform="translate(0 3)"/>
</clipPath>
</defs>
</svg>
