<svg width="28" height="28" viewBox="0 0 28 28" fill="none" xmlns="http://www.w3.org/2000/svg">
<g clip-path="url(#clip0_2124_88504)">
<path d="M13.9531 25.9062C20.4922 25.9062 25.9062 20.4805 25.9062 13.9531C25.9062 7.41406 20.4805 2 13.9414 2C7.41406 2 2 7.41406 2 13.9531C2 20.4805 7.42578 25.9062 13.9531 25.9062ZM13.9531 23.9141C8.42188 23.9141 4.00391 19.4844 4.00391 13.9531C4.00391 8.42188 8.41016 3.99219 13.9414 3.99219C19.4727 3.99219 23.9141 8.42188 23.9141 13.9531C23.9141 19.4844 19.4844 23.9141 13.9531 23.9141Z" fill="black" fill-opacity="0.85"/>
<path d="M20.7969 11.2344L15.4062 8.78516C14.8555 8.53906 14.3984 8.41016 13.9414 8.42188C13.4844 8.41016 13.0391 8.53906 12.4766 8.78516L7.09766 11.2344C6.74609 11.3984 6.57031 11.6914 6.57031 11.9609C6.57031 12.2422 6.74609 12.5117 7.09766 12.6758L9.33594 13.6953L12.793 12.0898C12.7695 12.043 12.7578 12.0078 12.7578 11.9609C12.7578 11.5859 13.3672 11.3281 13.9648 11.3281C14.5625 11.3281 15.1602 11.5859 15.1602 11.9609C15.1602 12.3477 14.5625 12.6172 13.9648 12.6172C13.7773 12.6172 13.6016 12.5938 13.4375 12.5469L10.168 14.082L12.4766 15.1367C13.0391 15.4062 13.4844 15.5117 13.9414 15.5C14.3984 15.5117 14.8555 15.4062 15.4062 15.1367L20.7969 12.6758C21.1484 12.5117 21.3125 12.2422 21.3125 11.9609C21.3125 11.6914 21.1484 11.3984 20.7969 11.2344ZM13.9414 19.1094C17.1875 19.1094 19.25 17.7148 19.25 16.0859V14.2344L15.7227 15.8516C15.0781 16.1445 14.4922 16.2969 13.9414 16.2734C13.3906 16.2969 12.8047 16.1445 12.1602 15.8516L10.1328 14.9258V18.2188C11.0586 18.7695 12.3594 19.1094 13.9414 19.1094ZM8.63281 14.2344V16.0859C8.63281 16.5547 8.90234 17.1289 9.35938 17.6211V14.5625L8.63281 14.2344ZM9.35938 19.2852H10.1328V18.2188C9.83984 18.043 9.59375 17.8438 9.35938 17.6211V19.2852ZM8.97266 19.2734V20.457C8.97266 20.8789 9.24219 21.1602 9.67578 21.1602H9.81641C10.25 21.1602 10.5313 20.8789 10.5313 20.457V19.2734C10.5313 18.8398 10.25 18.5703 9.81641 18.5703H9.67578C9.24219 18.5703 8.97266 18.8398 8.97266 19.2734Z" fill="black" fill-opacity="0.85"/>
</g>
<defs>
<clipPath id="clip0_2124_88504">
<rect width="23.9062" height="23.918" fill="white" transform="translate(2 2)"/>
</clipPath>
</defs>
</svg>
