<svg width="28" height="28" viewBox="0 0 28 28" fill="none" xmlns="http://www.w3.org/2000/svg">
<g clip-path="url(#clip0_2124_24762)">
<path d="M14.0629 12.5039C16.5824 12.4688 18.1645 10.9453 18.8676 9.85547C19.102 9.48047 19.2191 9.07031 19.2191 8.61328V6.89062C19.2191 6.43359 19.1137 6.02344 18.8676 5.64844C18.141 4.55859 16.5824 3 14.0629 3C11.3207 3 9.03554 5.13281 9.00039 7.73438C8.96523 10.3711 11.3207 12.5273 14.0629 12.5039ZM17.0863 9.60938C16.7699 9.60938 16.5238 9.36328 16.5238 9.04688V6.44531C16.5238 6.12891 16.7699 5.88281 17.0863 5.88281C17.4027 5.88281 17.6371 6.12891 17.6371 6.44531V9.04688C17.6371 9.36328 17.4027 9.60938 17.0863 9.60938ZM13.4652 21.9609V13.6055C12.2348 13.5117 11.0863 13.043 10.1605 12.3281V21.9609H13.4652ZM12.3168 25.8281C13.0199 25.8281 13.4652 25.4766 13.4652 24.7852V23.1328H10.1605V24.7852C10.1605 25.4766 10.6059 25.8281 11.3207 25.8281H12.3168Z" fill="black" fill-opacity="0.85"/>
</g>
<defs>
<clipPath id="clip0_2124_24762">
<rect width="10.2191" height="22.8633" fill="white" transform="translate(9 3)"/>
</clipPath>
</defs>
</svg>
