<svg width="28" height="28" viewBox="0 0 28 28" fill="none" xmlns="http://www.w3.org/2000/svg">
<path d="M3.67969 24.5742H23.9531C26.4141 24.5742 27.6328 23.3672 27.6328 20.9531V6.63281C27.6328 4.21875 26.4141 3 23.9531 3H3.67969C1.23047 3 0 4.21875 0 6.63281V20.9531C0 23.3672 1.23047 24.5742 3.67969 24.5742ZM3.70312 22.6875C2.53125 22.6875 1.88672 22.0664 1.88672 20.8477V6.73828C1.88672 5.51953 2.53125 4.88672 3.70312 4.88672H23.9297C25.0898 4.88672 25.7461 5.51953 25.7461 6.73828V20.8477C25.7461 22.0664 25.0898 22.6875 23.9297 22.6875H3.70312Z" fill="black" fill-opacity="0.85"/>
<path d="M16.5234 19.8984C17.0391 19.8984 17.3789 19.5352 17.3789 18.9844V17.1094L17.2031 15.293L18.8906 17.0977L22.4297 20.625C22.5938 20.7891 22.8047 20.8945 23.0977 20.8945C23.6133 20.8945 23.9531 20.5547 23.9531 20.0273C23.9531 19.793 23.8359 19.5586 23.6719 19.3945L20.1328 15.8555L18.3047 14.1562L20.0391 14.3438H22.0195C22.5703 14.3438 22.9336 14.0039 22.9336 13.4883C22.9336 12.9727 22.582 12.6328 22.043 12.6328H16.6406C16.043 12.6328 15.668 12.9023 15.668 13.5938V18.9609C15.668 19.5 16.0078 19.8984 16.5234 19.8984Z" fill="black" fill-opacity="0.85"/>
</svg>
