<svg width="28" height="28" viewBox="0 0 28 28" fill="none" xmlns="http://www.w3.org/2000/svg">
<g clip-path="url(#clip0_2124_24835)">
<path d="M10.0586 27.457H17.3242C19.1992 27.457 20.3828 26.3086 20.3828 24.5391V2.90625C20.3828 1.13672 19.1992 0 17.3242 0H10.0586C8.18359 0 7 1.13672 7 2.90625V24.5391C7 26.3086 8.18359 27.457 10.0586 27.457ZM10.2578 25.7461C9.32031 25.7461 8.73438 25.1836 8.73438 24.293V3.16406C8.73438 2.27344 9.32031 1.71094 10.2578 1.71094H17.125C18.0625 1.71094 18.6484 2.27344 18.6484 3.16406V24.293C18.6484 25.1836 18.0625 25.7461 17.125 25.7461H10.2578ZM14.4062 4.5H16.9023C17.3125 4.5 17.6406 4.18359 17.6406 3.77344C17.6406 3.35156 17.3125 3.03516 16.9023 3.03516H14.4062C13.9961 3.03516 13.668 3.35156 13.668 3.77344C13.668 4.18359 13.9961 4.5 14.4062 4.5ZM10.832 8.85938C11.4648 8.85938 11.9688 8.36719 11.9688 7.72266C11.9688 7.10156 11.4648 6.58594 10.832 6.58594C10.1992 6.58594 9.69531 7.10156 9.69531 7.72266C9.69531 8.36719 10.1992 8.85938 10.832 8.85938ZM13.6914 8.85938C14.3242 8.85938 14.8281 8.36719 14.8281 7.72266C14.8281 7.10156 14.3242 6.58594 13.6914 6.58594C13.0586 6.58594 12.5547 7.10156 12.5547 7.72266C12.5547 8.36719 13.0586 8.85938 13.6914 8.85938ZM16.5625 8.85938C17.1953 8.85938 17.6992 8.36719 17.6992 7.72266C17.6992 7.10156 17.1953 6.58594 16.5625 6.58594C15.9297 6.58594 15.4258 7.10156 15.4258 7.72266C15.4258 8.36719 15.9297 8.85938 16.5625 8.85938ZM10.832 12.1406C11.4648 12.1406 11.9688 11.6367 11.9688 11.0039C11.9688 10.3828 11.4648 9.86719 10.832 9.86719C10.1992 9.86719 9.69531 10.3828 9.69531 11.0039C9.69531 11.6367 10.1992 12.1406 10.832 12.1406ZM13.6914 12.1406C14.3242 12.1406 14.8281 11.6367 14.8281 11.0039C14.8281 10.3828 14.3242 9.86719 13.6914 9.86719C13.0586 9.86719 12.5547 10.3828 12.5547 11.0039C12.5547 11.6367 13.0586 12.1406 13.6914 12.1406ZM16.5625 12.1406C17.1953 12.1406 17.6992 11.6367 17.6992 11.0039C17.6992 10.3828 17.1953 9.86719 16.5625 9.86719C15.9297 9.86719 15.4258 10.3828 15.4258 11.0039C15.4258 11.6367 15.9297 12.1406 16.5625 12.1406ZM10.832 15.4102C11.4648 15.4102 11.9688 14.918 11.9688 14.2734C11.9688 13.6523 11.4648 13.1367 10.832 13.1367C10.1992 13.1367 9.69531 13.6523 9.69531 14.2734C9.69531 14.918 10.1992 15.4102 10.832 15.4102ZM13.6914 15.4102C14.3242 15.4102 14.8281 14.8945 14.8281 14.2734C14.8281 13.6406 14.3242 13.1367 13.6914 13.1367C13.0586 13.1367 12.5547 13.6406 12.5547 14.2734C12.5547 14.8945 13.0586 15.4102 13.6914 15.4102ZM16.5625 15.4102C17.1953 15.4102 17.6992 14.8945 17.6992 14.2734C17.6992 13.6406 17.1953 13.1367 16.5625 13.1367C15.9297 13.1367 15.4258 13.6406 15.4258 14.2734C15.4258 14.8945 15.9297 15.4102 16.5625 15.4102ZM10.5742 23.1914C11.0664 23.1914 11.4531 22.793 11.4531 22.3125V18.1641C11.4531 17.6719 11.0664 17.2852 10.5742 17.2852C10.0938 17.2852 9.69531 17.6719 9.69531 18.1641V22.3125C9.69531 22.793 10.0938 23.1914 10.5742 23.1914ZM13.1172 19.793H14.2539C14.6523 19.793 14.875 19.5586 14.875 19.1836V18.4219C14.875 18.0352 14.6523 17.8008 14.2539 17.8008H13.1172C12.7422 17.8008 12.5078 18.0352 12.5078 18.4219V19.1836C12.5078 19.5586 12.7422 19.793 13.1172 19.793ZM13.1172 22.6641H14.2539C14.6523 22.6641 14.875 22.4414 14.875 22.0547V21.293C14.875 20.9062 14.6523 20.6836 14.2539 20.6836H13.1172C12.7422 20.6836 12.5078 20.9062 12.5078 21.293V22.0547C12.5078 22.4414 12.7422 22.6641 13.1172 22.6641ZM16.8203 23.1914C17.3008 23.1914 17.6992 22.793 17.6992 22.3125V18.1641C17.6992 17.6719 17.3008 17.2852 16.8203 17.2852C16.3281 17.2852 15.9414 17.6719 15.9414 18.1641V22.3125C15.9414 22.793 16.3281 23.1914 16.8203 23.1914Z" fill="black" fill-opacity="0.85"/>
</g>
<defs>
<clipPath id="clip0_2124_24835">
<rect width="13.3828" height="27.457" fill="white" transform="translate(7)"/>
</clipPath>
</defs>
</svg>
