<svg width="28" height="28" viewBox="0 0 28 28" fill="none" xmlns="http://www.w3.org/2000/svg">
<path d="M13.9531 25.9062C20.4922 25.9062 25.9062 20.4805 25.9062 13.9531C25.9062 7.41406 20.4805 2 13.9414 2C7.41406 2 2 7.41406 2 13.9531C2 20.4805 7.42578 25.9062 13.9531 25.9062Z" fill="black" fill-opacity="0.85"/>
<path d="M13.9531 19.8711C11.4805 19.8711 9.79297 18.2656 9.79297 15.8633C9.79297 14.668 10.3086 13.6016 10.6602 12.793C11.3281 11.375 12.3945 9.59375 13.332 8.17578C13.5195 7.89453 13.707 7.76562 13.9531 7.76562C14.1992 7.76562 14.3984 7.89453 14.5742 8.17578C15.5117 9.59375 16.5898 11.375 17.2461 12.793C17.5977 13.6016 18.1133 14.668 18.1133 15.8633C18.1133 18.2656 16.4258 19.8711 13.9531 19.8711Z" fill="white"/>
</svg>
