<svg width="28" height="28" viewBox="0 0 28 28" fill="none" xmlns="http://www.w3.org/2000/svg">
<path d="M6.67969 24.5977H20.8945C23.3555 24.5977 24.5742 23.3789 24.5742 20.9648V6.65625C24.5742 4.24219 23.3555 3.02344 20.8945 3.02344H6.67969C4.23047 3.02344 3 4.23047 3 6.65625V20.9648C3 23.3906 4.23047 24.5977 6.67969 24.5977Z" fill="black" fill-opacity="0.85"/>
<path d="M13.9688 21.0234C13.6289 21.0234 13.3711 20.7773 13.3711 20.4141V19.5938C10.7813 19.2891 9.14062 17.1328 9.14062 13.8047C9.14062 10.5469 10.8047 8.37891 13.3711 8.0625V7.25391C13.3711 6.89062 13.6289 6.65625 13.9688 6.65625C14.3086 6.65625 14.5664 6.89062 14.5664 7.25391V8.03906C16.2773 8.21484 17.6367 9.23438 18.1641 10.6758C18.2227 10.875 18.2695 11.0625 18.2695 11.2734C18.2695 11.707 17.9766 12.0117 17.5312 12.0117C17.0977 12.0117 16.8984 11.8477 16.7344 11.3672C16.4766 10.418 15.6328 9.70312 14.5664 9.52734V13.4648H17.6367C18.1289 13.4648 18.4453 13.7695 18.4453 14.2852V14.8945C18.4453 17.6367 17.0742 19.4062 14.5664 19.6055V20.4141C14.5664 20.7773 14.3086 21.0234 13.9688 21.0234ZM13.3711 18.0938V9.55078C11.7773 9.89062 10.7695 11.4844 10.7695 13.8047C10.7695 16.1602 11.7656 17.7539 13.3711 18.0938ZM14.5664 18.1406C16.0195 17.918 16.875 16.793 16.875 15.1641V14.8945H14.5664V18.1406Z" fill="white"/>
</svg>
