<svg width="39" height="29" viewBox="0 0 39 29" fill="none" xmlns="http://www.w3.org/2000/svg">
<g clip-path="url(#clip0_2124_45780)">
<path d="M35.1287 16.2959C35.5623 16.5889 36.1013 16.4834 36.4177 16.0381C37.9177 13.9756 38.7966 11.1397 38.7966 8.24515C38.7966 5.35062 37.9295 2.49124 36.4177 0.452179C36.1013 -0.0048517 35.5623 -0.0986017 35.1287 0.194367C34.6951 0.487336 34.6248 1.03812 34.9646 1.51858C36.242 3.32327 36.9802 5.74905 36.9802 8.24515C36.9802 10.7412 36.2185 13.1436 34.9646 14.9717C34.6365 15.4522 34.6951 16.0029 35.1287 16.2959Z" fill="black" fill-opacity="0.85"/>
<path d="M30.7808 13.2373C31.1793 13.5069 31.73 13.4248 32.0464 12.9678C32.9488 11.7842 33.4879 10.0381 33.4879 8.24515C33.4879 6.45218 32.9488 4.7178 32.0464 3.51077C31.73 3.06546 31.1793 2.97171 30.7808 3.25296C30.3121 3.58108 30.23 4.16702 30.605 4.64749C31.2847 5.58499 31.6714 6.88577 31.6714 8.24515C31.6714 9.60452 31.273 10.8936 30.605 11.8428C30.2418 12.335 30.3121 12.8975 30.7808 13.2373Z" fill="black" fill-opacity="0.85"/>
<path d="M8.62109 13.8584C10.8007 13.8584 12.6992 11.8897 12.6992 9.34671C12.6992 6.81546 10.789 4.9639 8.62109 4.9639C6.44141 4.9639 4.53125 6.86233 4.53125 9.37015C4.53125 11.8897 6.42969 13.8584 8.62109 13.8584ZM2.08203 24.4404H15.1367C16.625 24.4404 17.1992 23.8545 17.1992 22.7881C17.1992 19.5537 13.8945 15.6514 8.60937 15.6514C3.32422 15.6514 0.0195312 19.5537 0.0195312 22.7881C0.0195312 23.8545 0.605469 24.4404 2.08203 24.4404Z" fill="black" fill-opacity="0.85"/>
<path d="M14.7383 26.0342H29.4687C32.5507 26.0342 33.5586 24.5459 33.5586 22.8819C33.5586 18.9444 29.0468 14.0928 22.0976 14.0928C15.1601 14.0928 10.6484 18.9444 10.6484 22.8819C10.6484 24.5459 11.6562 26.0342 14.7383 26.0342Z" fill="white"/>
<path d="M22.1093 13.5889C24.6289 13.5889 26.7968 11.3389 26.7968 8.40921C26.7968 5.51468 24.6172 3.37015 22.1093 3.37015C19.6015 3.37015 17.4218 5.56155 17.4218 8.43265C17.4218 11.3389 19.5898 13.5889 22.1093 13.5889ZM14.7383 24.4404H29.4687C31.3086 24.4404 31.9648 23.9131 31.9648 22.8819C31.9648 19.8584 28.1797 15.6865 22.0976 15.6865C16.0273 15.6865 12.2422 19.8584 12.2422 22.8819C12.2422 23.9131 12.8984 24.4404 14.7383 24.4404Z" fill="black" fill-opacity="0.85"/>
</g>
<defs>
<clipPath id="clip0_2124_45780">
<rect width="38.7773" height="27.7691" fill="white" transform="translate(0.0195312 0.0266113)"/>
</clipPath>
</defs>
</svg>
