<svg width="28" height="28" viewBox="0 0 28 28" fill="none" xmlns="http://www.w3.org/2000/svg">
<path d="M6.67969 24.5977H20.8945C23.3555 24.5977 24.5742 23.3789 24.5742 20.9648V6.65625C24.5742 4.24219 23.3555 3.02344 20.8945 3.02344H6.67969C4.23047 3.02344 3 4.23047 3 6.65625V20.9648C3 23.3906 4.23047 24.5977 6.67969 24.5977ZM6.70312 22.7109C5.53125 22.7109 4.88672 22.0898 4.88672 20.8711V6.75C4.88672 5.53125 5.53125 4.91016 6.70312 4.91016H20.8711C22.0312 4.91016 22.6875 5.53125 22.6875 6.75V20.8711C22.6875 22.0898 22.0312 22.7109 20.8711 22.7109H6.70312Z" fill="black" fill-opacity="0.85"/>
<path d="M13.793 19.3711C16.2773 19.3711 17.9414 17.1328 17.9414 13.793C17.9414 10.4531 16.2773 8.21484 13.793 8.21484C11.3203 8.21484 9.65625 10.4531 9.65625 13.793C9.65625 17.1328 11.3203 19.3711 13.793 19.3711ZM13.793 17.8711C12.3984 17.8711 11.4492 16.2422 11.4492 13.793C11.4492 11.3438 12.3984 9.71484 13.793 9.71484C15.1992 9.71484 16.1367 11.3438 16.1367 13.793C16.1367 16.2422 15.1992 17.8711 13.793 17.8711Z" fill="black" fill-opacity="0.85"/>
</svg>
