<svg width="28" height="28" viewBox="0 0 28 28" fill="none" xmlns="http://www.w3.org/2000/svg">
<g clip-path="url(#clip0_2124_67741)">
<path d="M3.62109 25.7109H23.5078C25.9336 25.7109 27.1289 24.5391 27.1289 22.1367V10.7344C27.1289 8.33203 25.9336 7.16016 23.5078 7.16016H3.62109C1.20703 7.16016 0 8.33203 0 10.7344V22.1367C0 24.5391 1.20703 25.7109 3.62109 25.7109ZM7.61719 8.17969H9.43359V6.10547C9.43359 5.21484 9.96094 4.71094 10.875 4.71094H16.2539C17.168 4.71094 17.6836 5.21484 17.6836 6.10547V8.15625H19.5V6.23438C19.5 4.03125 18.3398 3 16.2188 3H10.8984C8.89453 3 7.61719 4.03125 7.61719 6.23438V8.17969Z" fill="black" fill-opacity="0.85"/>
<path d="M8.05078 17.4844V15.3633C8.05078 14.7539 8.46094 14.332 9.08203 14.332H11.4844V11.9531C11.4844 11.3203 11.8945 10.9102 12.5156 10.9102H14.625C15.2344 10.9102 15.6562 11.3203 15.6562 11.9531V14.332H18.0469C18.668 14.332 19.0898 14.7539 19.0898 15.3633V17.4844C19.0898 18.0938 18.668 18.5156 18.0469 18.5156H15.6562V20.9062C15.6562 21.5273 15.2344 21.9375 14.625 21.9375H12.5156C11.8945 21.9375 11.4844 21.5273 11.4844 20.9062V18.5156H9.08203C8.47266 18.5156 8.05078 18.0938 8.05078 17.4844Z" fill="white"/>
</g>
<defs>
<clipPath id="clip0_2124_67741">
<rect width="27.1289" height="22.7227" fill="white" transform="translate(0 3)"/>
</clipPath>
</defs>
</svg>
