<svg width="28" height="28" viewBox="0 0 28 28" fill="none" xmlns="http://www.w3.org/2000/svg">
<path d="M2.99557 11.4561C1.37838 12.2061 1.83541 14.374 3.61666 14.3857L12.1479 14.4209C12.2885 14.4209 12.3237 14.4561 12.3237 14.5967L12.3471 23.0693C12.3588 24.9209 14.5737 25.249 15.3588 23.5498L24.0073 4.92872C24.8159 3.19435 23.4448 1.96388 21.7338 2.77247L2.99557 11.4561ZM5.04635 12.5576C4.99947 12.5576 4.98775 12.5107 5.03463 12.4873L21.8862 4.77638C21.9565 4.74122 22.0034 4.76466 21.9565 4.85841L14.2104 21.6865C14.187 21.7334 14.1518 21.7217 14.1518 21.6748L14.1987 13.3896C14.1987 12.874 13.8471 12.5107 13.3081 12.5107L5.04635 12.5576Z" fill="black" fill-opacity="0.85"/>
<path d="M22.0029 22.917C22.8935 23.8076 24.3466 23.8076 25.2255 22.8936C26.081 22.0146 26.0927 20.5967 25.2138 19.7061L7.16699 1.65918C6.28809 0.780273 4.82324 0.780273 3.94434 1.65918C3.06543 2.53809 3.06543 4.00293 3.94434 4.88184L22.0029 22.917Z" fill="white"/>
<path d="M22.9658 21.9561C23.3174 22.3076 23.9033 22.3076 24.2432 21.9561C24.583 21.6045 24.5947 21.0303 24.2432 20.6787L6.19629 2.63184C5.85644 2.28027 5.2705 2.28027 4.90722 2.63184C4.56738 2.97168 4.56738 3.56934 4.90722 3.90918L22.9658 21.9561Z" fill="black" fill-opacity="0.85"/>
</svg>
