<svg width="28" height="28" viewBox="0 0 28 28" fill="none" xmlns="http://www.w3.org/2000/svg">
<path d="M3.67969 24.5742H23.9531C26.4141 24.5742 27.6328 23.3672 27.6328 20.9531V6.63281C27.6328 4.21875 26.4141 3 23.9531 3H3.67969C1.23047 3 0 4.21875 0 6.63281V20.9531C0 23.3672 1.23047 24.5742 3.67969 24.5742ZM3.70312 22.6875C2.53125 22.6875 1.88672 22.0664 1.88672 20.8477V6.73828C1.88672 5.51953 2.53125 4.88672 3.70312 4.88672H23.9297C25.0898 4.88672 25.7461 5.51953 25.7461 6.73828V20.8477C25.7461 22.0664 25.0898 22.6875 23.9297 22.6875H3.70312Z" fill="black" fill-opacity="0.85"/>
<path d="M16.5234 7.6875C16.0078 7.6875 15.668 8.07422 15.668 8.625V13.9805C15.668 14.6836 16.043 14.9531 16.6406 14.9531H22.043C22.582 14.9531 22.9336 14.6133 22.9336 14.0977C22.9336 13.582 22.5703 13.2422 22.0195 13.2422H20.0391L18.3047 13.4297L20.1328 11.7187L23.6719 8.17969C23.8359 8.01562 23.9531 7.79297 23.9531 7.55859C23.9531 7.03125 23.6133 6.67969 23.0977 6.67969C22.8047 6.67969 22.5938 6.78516 22.4297 6.94922L18.8906 10.4883L17.2031 12.293L17.3789 10.4648V8.60156C17.3789 8.03906 17.0391 7.6875 16.5234 7.6875Z" fill="black" fill-opacity="0.85"/>
</svg>
