<svg width="30" height="28" viewBox="0 0 30 28" fill="none" xmlns="http://www.w3.org/2000/svg">
<g clip-path="url(#clip0_2124_45823)">
<path d="M10.2207 22.457C10.2207 24.9062 11.4394 26.125 13.8535 26.125H26.2988C28.7246 26.125 29.9316 24.9062 29.9316 22.457V4.67969C29.9316 2.24219 28.7246 1 26.2988 1H13.8535C11.4394 1 10.2207 2.24219 10.2207 4.67969V22.457ZM12.1074 22.4219V4.71484C12.1074 3.54297 12.7402 2.88672 13.9589 2.88672H26.205C27.4238 2.88672 28.0449 3.54297 28.0449 4.71484V22.4219C28.0449 23.5938 27.4238 24.2383 26.205 24.2383H13.9589C12.7402 24.2383 12.1074 23.5938 12.1074 22.4219Z" fill="black" fill-opacity="0.85"/>
<path d="M14.7207 19.5039H25.4316C25.9004 19.5039 26.123 19.1992 26.123 18.7656C26.123 17.4883 24.1894 14.1602 20.0761 14.1602C15.9629 14.1602 14.0293 17.4883 14.0293 18.7656C14.0293 19.1992 14.2636 19.5039 14.7207 19.5039ZM20.0761 13.1992C21.7519 13.2109 23.0879 11.793 23.0879 9.91797C23.0879 8.16016 21.7519 6.69531 20.0761 6.69531C18.4121 6.69531 17.0761 8.16016 17.0761 9.91797C17.0761 11.793 18.4121 13.1875 20.0761 13.1992Z" fill="black" fill-opacity="0.85"/>
<path d="M0.282566 11.582C-0.303371 12.2383 0.0716286 13.1289 0.950535 13.1289H2.94272V18.2617C2.94272 18.7773 3.34116 19.1758 3.8685 19.1758C4.37241 19.1758 4.77085 18.7773 4.77085 18.2617V13.1289H6.7396C7.66538 13.1289 7.98178 12.2031 7.41928 11.582L4.51303 8.30078C4.12632 7.85547 3.57553 7.85547 3.1771 8.30078L0.282566 11.582Z" fill="black" fill-opacity="0.85"/>
</g>
<defs>
<clipPath id="clip0_2124_45823">
<rect width="29.931" height="25.1367" fill="white" transform="translate(0 1)"/>
</clipPath>
</defs>
</svg>
