<svg width="28" height="28" viewBox="0 0 28 28" fill="none" xmlns="http://www.w3.org/2000/svg">
<path d="M6.67969 24.5977H20.8945C23.3555 24.5977 24.5742 23.3789 24.5742 20.9648V6.65625C24.5742 4.24219 23.3555 3.02344 20.8945 3.02344H6.67969C4.23047 3.02344 3 4.23047 3 6.65625V20.9648C3 23.3906 4.23047 24.5977 6.67969 24.5977Z" fill="black" fill-opacity="0.85"/>
<path d="M11.2852 18.832C10.8984 18.832 10.4414 18.6211 10.4414 17.9766V16.7695H7.73438C7.14844 16.7695 6.73828 16.3711 6.73828 15.7852C6.73828 15.4102 6.80859 15.0938 7.01953 14.625L9.17578 9.94922C9.51562 9.1875 9.91406 8.75391 10.7695 8.75391C11.5547 8.75391 12.1172 9.23438 12.1172 10.0664V15.3633H12.5391C13.0195 15.3633 13.2305 15.668 13.2305 16.0547C13.2305 16.4648 13.0078 16.7695 12.5391 16.7695H12.1172V17.9766C12.1172 18.5508 11.7422 18.832 11.2852 18.832ZM10.4766 15.3984V10.2773H10.4297L8.23828 15.3164V15.3984H10.4766ZM15.2344 18.6797C14.6719 18.6797 14.4258 18.3867 14.4258 17.9766C14.4258 17.6016 14.6367 17.2969 14.8711 17.0039L16.957 14.332C17.6016 13.5117 18.2695 12.5273 18.2695 11.5547C18.2695 10.6992 17.8711 10.0664 17.1445 10.0664C16.4531 10.0664 16.1602 10.5703 15.9258 11.3789C15.8086 11.7773 15.5625 11.9648 15.1641 11.9648C14.6953 11.9648 14.4375 11.6484 14.4375 11.1914C14.4375 9.9375 15.6094 8.66016 17.1562 8.66016C18.8203 8.66016 19.9336 9.84375 19.9336 11.4727C19.9336 12.5391 19.5352 13.4297 18.3281 14.9297L16.5703 17.1562V17.2617H19.4297C19.8398 17.2617 20.1211 17.5078 20.1211 17.9766C20.1211 18.3984 19.8516 18.6797 19.4297 18.6797H15.2344Z" fill="white"/>
</svg>
