<svg width="28" height="28" viewBox="0 0 28 28" fill="none" xmlns="http://www.w3.org/2000/svg">
<path d="M6.67969 24.5977H20.8945C23.3555 24.5977 24.5742 23.3789 24.5742 20.9648V6.65625C24.5742 4.24219 23.3555 3.02344 20.8945 3.02344H6.67969C4.23047 3.02344 3 4.23047 3 6.65625V20.9648C3 23.3906 4.23047 24.5977 6.67969 24.5977ZM6.70312 22.7109C5.53125 22.7109 4.88672 22.0898 4.88672 20.8711V6.75C4.88672 5.53125 5.53125 4.91016 6.70312 4.91016H20.8711C22.0312 4.91016 22.6875 5.53125 22.6875 6.75V20.8711C22.6875 22.0898 22.0312 22.7109 20.8711 22.7109H6.70312Z" fill="black" fill-opacity="0.85"/>
<path d="M7.78125 13.7812C7.78125 14.0391 7.89844 14.25 8.10938 14.4609L12.0703 18.4336C12.2227 18.5859 12.4453 18.6797 12.6797 18.6797C13.1719 18.6797 13.5234 18.3047 13.5234 17.8242C13.5234 17.5664 13.4414 17.3555 13.2656 17.2031L11.8008 15.75L10.3828 14.5664L12.8672 14.6484H18.9727C19.4883 14.6484 19.8516 14.2852 19.8516 13.7812C19.8516 13.2656 19.4766 12.9023 18.9727 12.9023H12.8672L10.3945 12.9961L11.8008 11.8125L13.2656 10.3594C13.4297 10.1953 13.5234 9.98438 13.5234 9.72656C13.5234 9.24609 13.1719 8.88281 12.6797 8.88281C12.4453 8.88281 12.2227 8.96484 12.0703 9.11719L8.10938 13.1016C7.875 13.3359 7.78125 13.5234 7.78125 13.7812Z" fill="black" fill-opacity="0.85"/>
</svg>
