<svg width="28" height="29" viewBox="0 0 28 29" fill="none" xmlns="http://www.w3.org/2000/svg">
<path d="M8.92188 8.84766C10.3281 8.84766 11.4648 7.71094 11.4648 6.28125C11.4648 4.875 10.3281 3.73828 8.92188 3.73828C7.50391 3.73828 6.35547 4.875 6.35547 6.28125C6.35547 7.71094 7.50391 8.84766 8.92188 8.84766ZM15.3086 21.1172L18.9414 16.125L21.2383 20.3203C22.0117 23.918 22.1055 26.6719 22.1055 27.0938C22.1055 27.8203 22.6445 28.3594 23.3008 28.3594C23.9805 28.3594 24.4961 27.8203 24.4961 27.1289C24.4961 27.0117 24.4375 23.8711 23.582 19.6523L23.5352 19.4414C22.5508 14.6016 19.4688 5.64844 11.5117 0.363281C11.1133 0.117188 10.7617 0 10.3516 0H5.19531C4.53906 0 4 0.539062 4 1.19531C4 1.88672 4.53906 2.42578 5.19531 2.42578H10.2578C11.5117 3.29297 12.6016 4.23047 13.5977 5.23828C13.7383 5.36719 13.75 5.57812 13.6562 5.73047L9.60156 12.6562C9.10938 13.5234 9.70703 14.4727 10.6445 14.4727H16.1758L13.2695 19.8164L13.1523 20.0273L9.57812 26.5664C9.25 27.1523 9.46094 27.9023 10.0469 28.207C10.5977 28.5 11.3477 28.3711 11.6992 27.7266L15.3086 21.1172ZM12.7305 12.0703L13.6328 10.5352C13.7734 10.2656 14.0547 10.3242 14.1719 10.5L15.2266 12.0703H12.7305Z" fill="black" fill-opacity="0.85"/>
</svg>
