<svg width="28" height="28" viewBox="0 0 28 28" fill="none" xmlns="http://www.w3.org/2000/svg">
<path d="M13.9531 25.9062C20.4922 25.9062 25.9062 20.4805 25.9062 13.9531C25.9062 7.41406 20.4805 2 13.9414 2C7.41406 2 2 7.41406 2 13.9531C2 20.4805 7.42578 25.9062 13.9531 25.9062Z" fill="black" fill-opacity="0.85"/>
<path d="M9.98047 19.6133C9.42969 19.6133 9.07812 19.2734 9.07812 18.7812C9.07812 18.5938 9.10156 18.418 9.20703 18.1484L12.5938 9.03125C12.8398 8.39844 13.2852 8.07031 13.9414 8.07031C14.6094 8.07031 15.0664 8.39844 15.3008 9.03125L18.6992 18.1484C18.793 18.418 18.8281 18.5938 18.8281 18.7812C18.8281 19.2734 18.4648 19.6133 17.9258 19.6133C17.4805 19.6133 17.1758 19.4023 16.9883 18.8398L16.1094 16.2734H11.7969L10.918 18.8398C10.7305 19.4141 10.4141 19.6133 9.98047 19.6133ZM12.2773 14.8086H15.6172L14.0117 10.1445H13.8828L12.2773 14.8086Z" fill="white"/>
</svg>
