<svg width="28" height="28" viewBox="0 0 28 28" fill="none" xmlns="http://www.w3.org/2000/svg">
<g clip-path="url(#clip0_2124_24881)">
<path d="M8.99219 20.6875C8.99219 23.9336 11.0078 25.9961 14.1719 25.9961C16.5156 25.9961 18.2734 24.9531 19.3867 22.9609L20.4414 21.0742C22.9141 16.5625 26.9922 15.9648 26.9922 10.1641C26.9922 4.66797 23.4414 1 18.1211 1C12.6719 1 8.99219 4.69141 8.99219 10.1992V20.6875ZM12.4258 17.4531C12.4258 15.1914 14.9102 15.4609 14.9102 14.1719C14.9102 12.9883 12.4258 12.1328 12.4258 9.51953C12.4258 6.53125 14.7109 4.39844 18.1094 4.39844C21.5195 4.39844 23.793 6.67188 23.793 10.082C23.793 10.5859 23.3828 10.9961 22.8789 10.9961C22.3867 10.9961 21.9531 10.5859 21.9531 10.082C21.9531 7.75 20.4531 6.23828 18.1094 6.23828C15.8008 6.23828 14.2656 7.62109 14.2656 9.51953C14.2656 11.9688 17.8633 12.543 17.8633 16.0352C17.8633 17.9688 16.6211 19.5273 14.793 19.5391C13.375 19.5391 12.4258 18.707 12.4258 17.4531Z" fill="black" fill-opacity="0.85"/>
<path d="M2.96875 6.30859C4.04688 6.30859 4.92578 5.42969 4.92578 4.35156C4.92578 3.26172 4.04688 2.38281 2.96875 2.38281C1.87891 2.38281 1 3.26172 1 4.35156C1 5.42969 1.87891 6.30859 2.96875 6.30859Z" fill="black" fill-opacity="0.85"/>
<path d="M2.96875 12.4023C4.04688 12.4023 4.92578 11.5234 4.92578 10.4453C4.92578 9.35547 4.04688 8.47656 2.96875 8.47656C1.87891 8.47656 1 9.35547 1 10.4453C1 11.5234 1.87891 12.4023 2.96875 12.4023Z" fill="black" fill-opacity="0.85"/>
<path d="M2.96875 18.5195C4.04688 18.5195 4.92578 17.6406 4.92578 16.5625C4.92578 15.4727 4.04688 14.5938 2.96875 14.5938C1.87891 14.5938 1 15.4727 1 16.5625C1 17.6406 1.87891 18.5195 2.96875 18.5195Z" fill="black" fill-opacity="0.85"/>
<path d="M2.96875 24.6133C4.04688 24.6133 4.92578 23.7344 4.92578 22.6562C4.92578 21.5664 4.04688 20.6875 2.96875 20.6875C1.87891 20.6875 1 21.5664 1 22.6562C1 23.7344 1.87891 24.6133 2.96875 24.6133Z" fill="black" fill-opacity="0.85"/>
</g>
<defs>
<clipPath id="clip0_2124_24881">
<rect width="25.9922" height="25.0195" fill="white" transform="translate(1 1)"/>
</clipPath>
</defs>
</svg>
