<svg width="28" height="28" viewBox="0 0 28 28" fill="none" xmlns="http://www.w3.org/2000/svg">
<path d="M6.67969 24.5977H20.8945C23.3555 24.5977 24.5742 23.3789 24.5742 20.9648V6.65625C24.5742 4.24219 23.3555 3.02344 20.8945 3.02344H6.67969C4.23047 3.02344 3 4.23047 3 6.65625V20.9648C3 23.3906 4.23047 24.5977 6.67969 24.5977Z" fill="black" fill-opacity="0.85"/>
<path d="M9.46875 14.2266C9.46875 12 10.9336 10.4648 12.9141 10.4648C13.8984 10.4648 14.7422 10.8516 15.2695 11.4961V9.57422H13.0664C12.7383 9.57422 12.5039 9.32812 12.5039 9C12.5039 8.67188 12.7266 8.41406 13.0664 8.41406H15.2695V7.85156C15.2695 7.37109 15.5742 7.07812 16.0312 7.07812C16.4766 7.07812 16.7812 7.37109 16.7812 7.85156V8.41406H17.5547C17.8945 8.41406 18.1289 8.67188 18.1289 9C18.1289 9.32812 17.8828 9.57422 17.5547 9.57422H16.7812V17.3906C16.7812 17.8359 16.4883 18.1289 16.0664 18.1289C15.6328 18.1289 15.3281 17.8359 15.3281 17.3906V16.9102C14.7773 17.6016 13.9102 17.9883 12.9258 17.9883C10.9453 17.9883 9.46875 16.4414 9.46875 14.2266ZM11.0273 14.2383C11.0273 15.668 11.8945 16.6055 13.1719 16.6055C14.4141 16.6055 15.3047 15.6094 15.3047 14.2383C15.3047 12.8672 14.4141 11.8711 13.1719 11.8711C11.8945 11.8711 11.0273 12.8086 11.0273 14.2383ZM10.0898 19.3711C10.0898 19.043 10.3359 18.7852 10.6758 18.7852H16.5703C16.9102 18.7852 17.1562 19.0312 17.1562 19.3711C17.1562 19.6992 16.8984 19.957 16.5703 19.957H10.6758C10.3477 19.957 10.0898 19.6992 10.0898 19.3711Z" fill="white"/>
</svg>
