<svg width="28" height="28" viewBox="0 0 28 28" fill="none" xmlns="http://www.w3.org/2000/svg">
<path d="M3.67969 24.5742H23.9531C26.4141 24.5742 27.6328 23.3672 27.6328 20.9531V6.63281C27.6328 4.21875 26.4141 3 23.9531 3H3.67969C1.23047 3 0 4.21875 0 6.63281V20.9531C0 23.3672 1.23047 24.5742 3.67969 24.5742ZM3.70312 22.6875C2.53125 22.6875 1.88672 22.0664 1.88672 20.8477V6.73828C1.88672 5.51953 2.53125 4.88672 3.70312 4.88672H23.9297C25.0898 4.88672 25.7461 5.51953 25.7461 6.73828V20.8477C25.7461 22.0664 25.0898 22.6875 23.9297 22.6875H3.70312Z" fill="black" fill-opacity="0.85"/>
<path d="M11.1094 7.6875C10.5938 7.6875 10.2539 8.03906 10.2539 8.60156V10.4648L10.4297 12.293L8.74219 10.4883L5.20312 6.94922C5.03906 6.78516 4.82812 6.67969 4.54688 6.67969C4.01953 6.67969 3.67969 7.03125 3.67969 7.55859C3.67969 7.79297 3.79688 8.01562 3.96094 8.17969L7.5 11.7187L9.32812 13.4297L7.59375 13.2422H5.625C5.0625 13.2422 4.69922 13.582 4.69922 14.0977C4.69922 14.6133 5.05078 14.9531 5.60156 14.9531H10.9922C11.5898 14.9531 11.9766 14.6836 11.9766 13.9805V8.625C11.9766 8.07422 11.625 7.6875 11.1094 7.6875Z" fill="black" fill-opacity="0.85"/>
</svg>
