<svg width="38" height="28" viewBox="0 0 38 28" fill="none" xmlns="http://www.w3.org/2000/svg">
<g clip-path="url(#clip0_2124_24618)">
<path d="M4.52344 22.4258C4.89844 22.0039 4.78125 21.4531 4.35938 20.9727C2.78906 19.2266 1.91016 16.9297 1.91016 14.4102C1.91016 11.8906 2.78906 9.59376 4.35938 7.84767C4.78125 7.3672 4.89844 6.81642 4.52344 6.39454C4.14844 5.94923 3.49219 5.96095 3.04688 6.45313C1.10156 8.56251 0 11.375 0 14.4102C0 17.4453 1.10156 20.2461 3.04688 22.3672C3.49219 22.8594 4.14844 22.8594 4.52344 22.4258ZM32.9531 22.4258C33.3281 22.8594 33.9844 22.8594 34.4414 22.3672C36.3867 20.2461 37.4766 17.4453 37.4766 14.4102C37.4766 11.375 36.3867 8.56251 34.4414 6.45313C33.9844 5.96095 33.3281 5.94923 32.9531 6.39454C32.5781 6.81642 32.6953 7.3672 33.1172 7.84767C34.6875 9.59376 35.5664 11.8906 35.5664 14.4102C35.5664 16.9297 34.6875 19.2266 33.1172 20.9727C32.6953 21.4531 32.5781 22.0039 32.9531 22.4258Z" fill="black" fill-opacity="0.85"/>
<path d="M7.80469 19.0859C8.17969 18.6641 8.02734 18.1367 7.65234 17.6328C6.94922 16.7539 6.60938 15.6289 6.60938 14.4102C6.60938 13.1914 6.94922 12.0547 7.65234 11.1875C8.02734 10.6836 8.17969 10.1562 7.80469 9.73437C7.41797 9.28905 6.71484 9.28905 6.30469 9.8164C5.28516 11.082 4.69922 12.6875 4.69922 14.4102C4.69922 16.1328 5.28516 17.7383 6.30469 19.0039C6.71484 19.5312 7.41797 19.5195 7.80469 19.0859ZM29.6719 19.0859C30.0586 19.5195 30.7617 19.5312 31.1719 19.0039C32.1914 17.7383 32.7891 16.1328 32.7891 14.4102C32.7891 12.6875 32.1914 11.082 31.1719 9.8164C30.7617 9.28905 30.0586 9.28905 29.6719 9.73437C29.2969 10.1562 29.4609 10.6836 29.8242 11.1875C30.5273 12.0547 30.8789 13.1914 30.8789 14.4102C30.8789 15.6289 30.5273 16.7539 29.8242 17.6328C29.4609 18.1367 29.2969 18.6641 29.6719 19.0859Z" fill="black" fill-opacity="0.85"/>
<path d="M11.2148 23.7734C11.2148 25.6016 12.4922 26.8203 14.4023 26.8203H23.0859C24.9961 26.8203 26.2734 25.6016 26.2734 23.7734V5.04688C26.2734 3.21875 24.9961 2 23.0859 2H14.4023C12.4922 2 11.2148 3.21875 11.2148 5.04688V23.7734ZM13.1016 22.8477V5.97266H24.3867V22.8477H13.1016ZM18.7617 25.6602C18.1992 25.6602 17.7422 25.2031 17.7422 24.6406C17.7422 24.0898 18.1992 23.6328 18.7617 23.6328C19.3125 23.6328 19.7695 24.0898 19.7695 24.6406C19.7695 25.2031 19.3125 25.6602 18.7617 25.6602ZM16.5234 4.05078C16.5234 3.78125 16.7109 3.60547 16.9688 3.60547H20.5312C20.8008 3.60547 20.9766 3.78125 20.9766 4.05078C20.9766 4.32031 20.8008 4.48438 20.5312 4.48438H16.9688C16.7109 4.48438 16.5234 4.32031 16.5234 4.05078Z" fill="black" fill-opacity="0.85"/>
</g>
<defs>
<clipPath id="clip0_2124_24618">
<rect width="37.4766" height="24.832" fill="white" transform="translate(0 2)"/>
</clipPath>
</defs>
</svg>
