<svg width="28" height="28" viewBox="0 0 28 28" fill="none" xmlns="http://www.w3.org/2000/svg">
<g clip-path="url(#clip0_2124_88499)">
<path d="M6.67969 24.5977H20.8945C23.3555 24.5977 24.5742 23.3789 24.5742 20.9648V6.65625C24.5742 4.24219 23.3555 3.02344 20.8945 3.02344H6.67969C4.23047 3.02344 3 4.23047 3 6.65625V20.9648C3 23.3906 4.23047 24.5977 6.67969 24.5977Z" fill="black" fill-opacity="0.85"/>
<path d="M10.2188 20.2031C9.82031 20.2031 9.5625 19.9102 9.5625 19.418V9.24609C9.5625 8.07422 10.1719 7.45312 11.3438 7.45312H16.2422C17.4258 7.45312 18.0352 8.07422 18.0352 9.24609V19.418C18.0352 19.9102 17.7773 20.2031 17.3672 20.2031C17.0508 20.2031 16.875 20.0156 16.3242 19.4648L13.8516 17.0508C13.8164 17.0156 13.7695 17.0156 13.7344 17.0508L11.2734 19.4648C10.7109 20.0156 10.5352 20.2031 10.2188 20.2031Z" fill="white"/>
</g>
<defs>
<clipPath id="clip0_2124_88499">
<rect width="21.5742" height="21.5977" fill="white" transform="translate(3 3)"/>
</clipPath>
</defs>
</svg>
