<svg width="28" height="28" viewBox="0 0 28 28" fill="none" xmlns="http://www.w3.org/2000/svg">
<path d="M13.9531 25.9062C20.4922 25.9062 25.9062 20.4805 25.9062 13.9531C25.9062 7.41406 20.4805 2 13.9414 2C7.41406 2 2 7.41406 2 13.9531C2 20.4805 7.42578 25.9062 13.9531 25.9062ZM13.9531 23.9141C8.42188 23.9141 4.00391 19.4844 4.00391 13.9531C4.00391 8.42188 8.41016 3.99219 13.9414 3.99219C19.4727 3.99219 23.9141 8.42188 23.9141 13.9531C23.9141 19.4844 19.4844 23.9141 13.9531 23.9141Z" fill="black" fill-opacity="0.85"/>
<path d="M11.2809 19.7539C11.5856 20.0469 12.195 20.0234 12.5231 19.7188L17.3981 15.1133C18.0661 14.5039 18.0661 13.4258 17.3981 12.8164L12.5231 8.21095C12.1599 7.8711 11.6208 7.85939 11.2926 8.17579C10.9176 8.51563 10.9059 9.10157 11.2692 9.4297L16.0856 13.9531L11.2692 18.5C10.9176 18.8281 10.9176 19.3906 11.2809 19.7539Z" fill="black" fill-opacity="0.85"/>
</svg>
