<svg width="29" height="28" viewBox="0 0 29 28" fill="none" xmlns="http://www.w3.org/2000/svg">
<g clip-path="url(#clip0_2124_24774)">
<path d="M7.88672 4.08202C4.30078 4.05859 0 7.65624 0 11.1367C0 14.0195 2.88281 16.293 5.21484 16.2812C8.46094 16.2695 12.9375 12.5078 12.9375 9.36718C12.9375 6.33202 10.5938 4.10546 7.88672 4.08202ZM4.10156 14.6641C3.44531 14.6641 2.4375 13.8437 1.80469 12.8242C1.18359 11.7812 1.20703 10.9727 1.86328 10.9727C2.50781 10.9727 3.52734 11.7812 4.14844 12.8242C4.76953 13.8437 4.74609 14.6641 4.10156 14.6641ZM7.37109 9.43749C6.99609 8.91015 7.125 8.20702 7.64062 7.84374L9.26953 6.66015C9.77344 6.28515 10.4883 6.41405 10.8398 6.9414C11.2383 7.45702 11.1211 8.13671 10.6055 8.52343L8.97656 9.68358C8.4375 10.0703 7.72266 9.95311 7.37109 9.43749ZM8.46094 24.6133H9.92578C10.6523 24.6133 11.1328 24.2383 11.1328 23.5234V14.7695C9.98438 15.8008 8.625 16.6211 7.25391 17.0547V23.5234C7.25391 24.2383 7.72266 24.6133 8.46094 24.6133ZM20.7188 4.08202C18.0117 4.10546 15.668 6.33202 15.668 9.36718C15.668 12.5078 20.1445 16.2695 23.3906 16.2812C25.7227 16.293 28.6055 14.0195 28.6055 11.1367C28.6055 7.65624 24.3047 4.05859 20.7188 4.08202ZM24.5039 14.6641C23.8594 14.6641 23.8359 13.8437 24.457 12.8242C25.0781 11.7812 26.0977 10.9727 26.7422 10.9727C27.3984 10.9727 27.4219 11.7812 26.8008 12.8242C26.1797 13.8437 25.1602 14.6641 24.5039 14.6641ZM21.2344 9.43749C20.8828 9.95311 20.168 10.0703 19.6406 9.68358L18.0117 8.52343C17.4844 8.13671 17.3672 7.45702 17.7656 6.9414C18.1172 6.41405 18.832 6.28515 19.3359 6.66015L20.9766 7.84374C21.4922 8.20702 21.6094 8.91015 21.2344 9.43749ZM20.1445 24.6133C20.8828 24.6133 21.3516 24.2383 21.3516 23.5234V17.0547C19.9805 16.6211 18.6211 15.8008 17.4727 14.7695V23.5234C17.4727 24.2383 17.9531 24.6133 18.6797 24.6133H20.1445Z" fill="black" fill-opacity="0.85"/>
</g>
<defs>
<clipPath id="clip0_2124_24774">
<rect width="28.6055" height="20.6133" fill="white" transform="translate(0 4)"/>
</clipPath>
</defs>
</svg>
