<svg width="28" height="28" viewBox="0 0 28 28" fill="none" xmlns="http://www.w3.org/2000/svg">
<g clip-path="url(#clip0_2124_24757)">
<path d="M7.23047 23.5977H20.7305C25.6055 23.5977 27.9609 21.3008 27.9609 16.5547V12.0898C27.9609 7.32031 25.6523 5.01172 20.8594 5.01172H7.10156C2.32031 5.01172 0 7.32031 0 12.0898V16.5547C0 21.3008 2.35547 23.5977 7.23047 23.5977ZM7.23047 21.7109C3.55078 21.7109 1.88672 20.1172 1.88672 16.5547V12.0898C1.88672 8.50391 3.50391 6.89844 7.10156 6.89844H20.8594C24.4688 6.89844 26.0742 8.50391 26.0742 12.0898V16.5547C26.0742 20.1172 24.4219 21.7109 20.7305 21.7109H7.23047ZM0.949219 12.875H27.0117V11.6914H0.949219V12.875ZM13.9805 17.2344C14.6016 17.2344 15.1172 16.7188 15.1172 16.0977C15.1172 15.4766 14.6016 14.9727 13.9805 14.9727C13.3594 14.9727 12.8555 15.4766 12.8555 16.0977C12.8555 16.7188 13.3594 17.2344 13.9805 17.2344Z" fill="black" fill-opacity="0.85"/>
</g>
<defs>
<clipPath id="clip0_2124_24757">
<rect width="27.9609" height="18.5977" fill="white" transform="translate(0 5)"/>
</clipPath>
</defs>
</svg>
