<svg width="28" height="28" viewBox="0 0 28 28" fill="none" xmlns="http://www.w3.org/2000/svg">
<path d="M6.67969 24.5977H20.8945C23.3555 24.5977 24.5742 23.3789 24.5742 20.9648V6.65625C24.5742 4.24219 23.3555 3.02344 20.8945 3.02344H6.67969C4.23047 3.02344 3 4.23047 3 6.65625V20.9648C3 23.3906 4.23047 24.5977 6.67969 24.5977Z" fill="black" fill-opacity="0.85"/>
<path d="M8.71875 13.9805C8.71875 13.6289 8.97656 13.3711 9.30469 13.3711H9.97266V9.08203C9.97266 8.50781 10.3594 8.10938 10.957 8.10938C11.4609 8.10938 11.8008 8.37891 12.0117 8.82422L14.3203 13.3828H16.0312V8.91797C16.0312 8.4375 16.3594 8.12109 16.8164 8.12109C17.2734 8.12109 17.5898 8.4375 17.5898 8.91797V13.3828H18.2812C18.6094 13.3828 18.8789 13.6289 18.8789 13.9805C18.8789 14.3086 18.6094 14.5898 18.2812 14.5898H17.5898V18.832C17.5898 19.418 17.2031 19.8164 16.6055 19.8164C16.1016 19.8164 15.7734 19.5469 15.5508 19.1016L13.2656 14.5781H11.5312V19.0078C11.5312 19.4883 11.2148 19.8047 10.7578 19.8047C10.3008 19.8047 9.97266 19.4883 9.97266 19.0078V14.5781H9.30469C8.96484 14.5781 8.71875 14.3086 8.71875 13.9805ZM11.5312 13.3711H12.668L11.5312 10.9336V13.3711ZM14.9062 14.5898L16.0312 17.0156V14.5898H14.9062Z" fill="white"/>
</svg>
