<svg width="29" height="29" viewBox="0 0 29 29" fill="none" xmlns="http://www.w3.org/2000/svg">
<g clip-path="url(#clip0_2124_46014)">
<path d="M6.6836 24.878H20.8984C23.3594 24.878 24.5781 23.6709 24.5781 21.2569V6.93652C24.5781 4.52246 23.3594 3.30371 20.8984 3.30371H6.6836C4.23438 3.30371 3.00391 4.52246 3.00391 6.93652V21.2569C3.00391 23.6709 4.23438 24.878 6.6836 24.878ZM6.70703 22.9913C5.53516 22.9913 4.89063 22.3702 4.89063 21.1514V7.04199C4.89063 5.82324 5.53516 5.19043 6.70703 5.19043H20.875C22.0351 5.19043 22.6914 5.82324 22.6914 7.04199V21.1514C22.6914 22.3702 22.0351 22.9913 20.875 22.9913H6.70703Z" fill="black" fill-opacity="0.85"/>
<path d="M8.83984 16.2764C8.83984 19.2647 10.7734 21.0811 13.5273 21.0811C15.6016 21.0811 17.0195 20.2491 17.9687 18.3037C18.4844 17.2959 18.8828 16.0889 19.3047 14.6944C19.4805 14.1202 19.7266 13.4053 19.7266 13.0889C19.7266 12.7139 19.4453 12.4561 19.0586 12.4561C18.6133 12.4561 18.3555 12.7256 18.0391 13.3702L17.0898 15.3741C16.9961 15.585 16.9023 15.6553 16.7969 15.6553C16.6562 15.6553 16.5742 15.5616 16.5742 15.3623V8.22558C16.5742 7.81543 16.2344 7.47558 15.8242 7.47558C15.4141 7.47558 15.0859 7.81543 15.0859 8.22558V13.2881C14.8984 13.2413 14.7109 13.1709 14.5117 13.1358V7.22949C14.5117 6.83105 14.1836 6.47949 13.7617 6.47949C13.3516 6.47949 13.0117 6.83105 13.0117 7.22949V13.0537C12.8125 13.0772 12.6133 13.1006 12.4141 13.1358V7.81543C12.4141 7.40527 12.0742 7.07715 11.6641 7.07715C11.2539 7.07715 10.9141 7.40527 10.9141 7.81543V13.6163C10.7031 13.71 10.5273 13.8272 10.3398 13.9327V9.94824C10.3398 9.53808 9.99999 9.18652 9.60156 9.18652C9.17968 9.18652 8.83984 9.53808 8.83984 9.94824V16.2764Z" fill="black" fill-opacity="0.85"/>
</g>
<defs>
<clipPath id="clip0_2124_46014">
<rect width="21.5742" height="21.8555" fill="white" transform="translate(3.00391 3.02246)"/>
</clipPath>
</defs>
</svg>
