<svg width="29" height="29" viewBox="0 0 29 29" fill="none" xmlns="http://www.w3.org/2000/svg">
<g clip-path="url(#clip0_2124_46031)">
<path d="M18.434 24.2995C23.2152 22.5652 24.809 18.5925 22.9457 13.4714L22.184 11.362C21.4808 9.42844 20.1215 8.58469 19.0668 8.95969C18.8324 9.05344 18.7504 9.22922 18.8324 9.45188L19.1722 10.3894C19.3363 10.8347 19.184 11.1277 18.9144 11.2331C18.6332 11.3269 18.3285 11.198 18.1644 10.7527L17.9418 10.1433C17.5316 8.99484 16.5238 8.51438 15.5394 8.87766C15.0941 9.04172 14.9652 9.29953 15.1058 9.67453L15.5629 10.9519C15.7269 11.3972 15.5746 11.6902 15.3168 11.7956C15.0238 11.9011 14.7191 11.7605 14.5668 11.3152L14.1332 10.1433C13.6644 8.85422 12.7034 8.52609 11.7425 8.87766C11.3206 9.03 11.1683 9.31125 11.3089 9.67453L12.2113 12.1706C12.3753 12.6159 12.2347 12.9089 11.9652 13.0144C11.6839 13.1198 11.3792 12.9792 11.2152 12.5339L8.16829 4.17844C7.87532 3.35813 7.14876 3.03 6.45736 3.27609C5.71907 3.54563 5.40267 4.26047 5.69564 5.08078L10.1488 17.3152C10.2659 17.6198 10.1253 17.8425 9.93782 17.9128C9.75032 17.9831 9.56282 17.9245 9.31673 17.6667L6.30501 14.4323C5.8597 13.9636 5.40267 13.8464 4.91048 14.0339C4.14876 14.3034 3.85579 14.9948 4.07845 15.6277C4.1722 15.8738 4.3011 16.0613 4.43001 16.2136L8.14486 20.8894C11.2855 24.8269 14.9183 25.5769 18.434 24.2995Z" fill="black" fill-opacity="0.85"/>
</g>
<defs>
<clipPath id="clip0_2124_46031">
<rect width="19.6983" height="21.85" fill="white" transform="translate(4.00586 3.021)"/>
</clipPath>
</defs>
</svg>
