<svg width="28" height="28" viewBox="0 0 28 28" fill="none" xmlns="http://www.w3.org/2000/svg">
<path d="M7.86081 16.6211L9.11472 15.3203L4.94285 7.12891L6.82956 4.23438L11.7749 13.9844L13.6968 13.668L7.96628 2.99219H20.3061L14.5757 13.668L16.4975 13.9844L21.4428 4.23438L23.3413 7.12891L19.1577 15.3203L20.4116 16.6211L25.1225 7.77344C25.3452 7.38672 25.3335 6.94141 25.0874 6.57812L21.9116 1.71484C21.6655 1.375 21.3725 1.22266 20.9155 1.22266H7.36863C6.89988 1.22266 6.60691 1.375 6.37253 1.71484L3.18503 6.57812C2.95066 6.94141 2.93894 7.38672 3.14988 7.77344L7.86081 16.6211ZM9.79441 8.37109H18.4897V6.60156H9.79441V8.37109ZM14.1421 27.8945C18.3843 27.8945 21.8178 24.4609 21.8178 20.2188C21.8178 15.9648 18.3843 12.5312 14.1421 12.5312C9.88816 12.5312 6.45456 15.9648 6.45456 20.2188C6.45456 24.4609 9.88816 27.8945 14.1421 27.8945ZM14.1421 26.125C10.8725 26.125 8.2241 23.4883 8.2241 20.2188C8.2241 16.9492 10.8608 14.3008 14.1421 14.3008C17.3999 14.3008 20.0483 16.9375 20.0483 20.2188C20.0483 23.4766 17.4116 26.125 14.1421 26.125ZM12.0796 23.9219L14.1538 22.4102L16.2046 23.9219C16.6499 24.2383 17.0952 23.9102 16.9311 23.418L16.0991 20.9688L18.1968 19.4688C18.5835 19.1992 18.478 18.6367 17.9272 18.6367L15.3608 18.6602L14.5757 16.1992C14.4233 15.707 13.8608 15.707 13.7085 16.1992L12.9233 18.6602L10.3569 18.6367C9.81785 18.6367 9.68894 19.1875 10.0991 19.4805L12.1967 20.9688L11.3647 23.418C11.2007 23.9102 11.646 24.2383 12.0796 23.9219Z" fill="black" fill-opacity="0.85"/>
</svg>
