<svg width="28" height="28" viewBox="0 0 28 28" fill="none" xmlns="http://www.w3.org/2000/svg">
<path d="M6.67969 24.5977H20.8945C23.3555 24.5977 24.5742 23.3789 24.5742 20.9648V6.65625C24.5742 4.24219 23.3555 3.02344 20.8945 3.02344H6.67969C4.23047 3.02344 3 4.23047 3 6.65625V20.9648C3 23.3906 4.23047 24.5977 6.67969 24.5977ZM6.70312 22.7109C5.53125 22.7109 4.88672 22.0898 4.88672 20.8711V6.75C4.88672 5.53125 5.53125 4.91016 6.70312 4.91016H20.8711C22.0312 4.91016 22.6875 5.53125 22.6875 6.75V20.8711C22.6875 22.0898 22.0312 22.7109 20.8711 22.7109H6.70312Z" fill="black" fill-opacity="0.85"/>
<path d="M13.8398 19.3711C16.3477 19.3711 17.9062 18.0469 17.9062 16.207C17.9062 14.8242 16.8633 13.7227 15.4453 13.5938V13.5C16.6172 13.3242 17.5312 12.2461 17.5312 11.0156C17.5312 9.38672 16.0312 8.21484 13.9336 8.21484C12.0234 8.21484 10.582 9.10547 10.2773 10.4883C10.2305 10.6523 10.2188 10.7813 10.2188 10.957C10.2188 11.4141 10.5469 11.7305 11.0156 11.7305C11.4375 11.7305 11.6836 11.5313 11.8242 11.1211C12.082 10.2422 12.8203 9.69141 13.8984 9.69141C15.0703 9.69141 15.7969 10.2773 15.7969 11.2266C15.7969 12.1875 14.9766 12.9023 13.8633 12.9023H13.125C12.7031 12.9023 12.3867 13.1953 12.3867 13.6289C12.3867 14.0391 12.7031 14.3438 13.125 14.3438H13.9219C15.2461 14.3438 16.1602 15.0703 16.1602 16.1367C16.1602 17.1914 15.2461 17.8828 13.875 17.8828C12.5977 17.8828 11.8945 17.2617 11.6016 16.4531C11.4492 16.043 11.2031 15.8555 10.793 15.8555C10.3242 15.8555 9.99609 16.1836 9.99609 16.6523C9.99609 16.8281 10.0078 16.9336 10.043 17.0977C10.3945 18.4453 11.918 19.3711 13.8398 19.3711Z" fill="black" fill-opacity="0.85"/>
</svg>
