<svg width="28" height="28" viewBox="0 0 28 28" fill="none" xmlns="http://www.w3.org/2000/svg">
<path d="M13.9531 25.918C20.4922 25.918 25.9062 20.5039 25.9062 13.9648C25.9062 7.4375 20.4805 2.01172 13.9414 2.01172C7.41406 2.01172 2 7.4375 2 13.9648C2 20.5039 7.42578 25.918 13.9531 25.918Z" fill="black" fill-opacity="0.85"/>
<path d="M14.2812 20.9961C10.3203 20.9961 7.27344 18.1602 7.27344 14.1758C7.27344 11.3398 8.94922 8.64453 11.457 7.64844C11.6094 7.58984 11.7734 7.56641 11.8555 7.56641C12.1016 7.56641 12.2422 7.77734 12.2422 7.96484C12.2422 8.02344 12.2422 8.11719 12.1719 8.26953C11.9492 8.84375 11.75 9.91016 11.75 10.6836C11.75 14.3398 14.082 16.6367 17.75 16.6367C18.582 16.6367 19.4375 16.4492 19.9414 16.2852C20.0703 16.25 20.1523 16.2383 20.2344 16.2383C20.4336 16.2383 20.6328 16.3906 20.6328 16.6484C20.6328 16.707 20.6211 16.8711 20.5508 17.0234C19.6953 19.2148 17.1992 20.9961 14.2812 20.9961Z" fill="white"/>
</svg>
