<svg width="28" height="28" viewBox="0 0 28 28" fill="none" xmlns="http://www.w3.org/2000/svg">
<path d="M5.75333 23.0898C10.9682 23.0898 13.7924 18.6602 18.7026 18.6602C19.851 18.6602 20.8822 18.918 22.0776 19.5977C22.5697 19.8789 23.0385 19.6914 23.2846 19.3398C23.5776 18.918 23.5541 18.2852 22.8979 17.8984C21.5736 17.1367 20.2026 16.7734 18.7026 16.7734C13.394 16.7734 10.5932 21.2031 5.75333 21.2031C4.59318 21.2031 3.57364 20.9453 2.37833 20.2539C1.88614 19.9727 1.40568 20.1602 1.1713 20.5234C0.890051 20.9453 0.913488 21.5898 1.55802 21.9531C2.88224 22.7266 4.25333 23.0898 5.75333 23.0898Z" fill="black" fill-opacity="0.85"/>
<path d="M5.76505 16.8086C10.9799 16.8086 13.8041 12.3789 18.7143 12.3789C19.8627 12.3789 20.894 12.6367 22.0893 13.3164C22.5815 13.5977 23.0502 13.4102 23.2963 13.0586C23.5893 12.6367 23.5658 12.0039 22.9096 11.6172C21.5854 10.8555 20.2143 10.4922 18.7143 10.4922C13.4057 10.4922 10.6049 14.9219 5.76505 14.9219C4.60489 14.9219 3.58536 14.6523 2.39005 13.9727C1.89786 13.6914 1.41739 13.8789 1.18302 14.2422C0.90177 14.6641 0.925207 15.2969 1.56974 15.6719C2.89396 16.4336 4.26505 16.8086 5.76505 16.8086Z" fill="black" fill-opacity="0.85"/>
<path d="M5.75333 10.5156C10.9682 10.5156 13.7924 6.09766 18.7026 6.09766C19.851 6.09766 20.8822 6.35547 22.0776 7.03516C22.5697 7.31641 23.0385 7.12891 23.2846 6.77734C23.5776 6.35547 23.5541 5.72266 22.8979 5.33594C21.5736 4.57422 20.2026 4.21094 18.7026 4.21094C13.394 4.21094 10.5932 8.62891 5.75333 8.62891C4.59318 8.62891 3.57364 8.37109 2.37833 7.69141C1.88614 7.41016 1.40568 7.59766 1.1713 7.96094C0.890051 8.38281 0.913488 9.01562 1.55802 9.39062C2.88224 10.1523 4.25333 10.5156 5.75333 10.5156Z" fill="black" fill-opacity="0.85"/>
<path d="M21.1407 26.3008C24.8321 26.3008 27.8086 23.3828 27.8086 19.7383C27.8086 17.8047 26.8828 16.0117 26.2266 14.7578L23.6133 9.89453C23.0742 8.89844 22.3008 8.30078 21.1407 8.30078C19.9805 8.30078 19.2071 8.89844 18.668 9.89453L16.0664 14.7695C15.4102 16.0117 14.4727 17.8047 14.4727 19.7383C14.4727 23.3828 17.461 26.3008 21.1407 26.3008Z" fill="white"/>
<path d="M21.1406 24.6953C23.9648 24.6953 26.2148 22.4922 26.2148 19.7383C26.2148 18.2148 25.4531 16.7266 24.8085 15.5195L22.1952 10.6562C21.914 10.1289 21.6562 9.90625 21.1406 9.90625C20.6132 9.90625 20.3671 10.1289 20.0859 10.6562L17.4843 15.5195C16.8398 16.7266 16.0781 18.2148 16.0781 19.7383C16.0781 22.4922 18.3281 24.6953 21.1406 24.6953Z" fill="black" fill-opacity="0.85"/>
</svg>
