<svg width="32" height="28" viewBox="0 0 32 28" fill="none" xmlns="http://www.w3.org/2000/svg">
<g clip-path="url(#clip0_2124_50188)">
<path d="M0 7.39062C0 8.73828 1.04297 9.76953 2.37891 9.76953H28.6523C29.9883 9.76953 31.0312 8.73828 31.0312 7.39062C31.0312 6.01953 29.9883 5 28.6523 5H2.37891C1.04297 5 0 6.01953 0 7.39062ZM1.86328 7.39062C1.86328 7.0625 2.10938 6.82812 2.46094 6.82812H28.5703C28.9219 6.82812 29.168 7.0625 29.168 7.39062C29.168 7.70703 28.9219 7.94141 28.5703 7.94141H2.46094C2.10938 7.94141 1.86328 7.70703 1.86328 7.39062ZM8.75391 20.8086H22.2891C26.6953 20.8086 28.9805 18.6523 28.9805 14.457V8.89062H27.0938V14.457C27.0938 17.3984 25.4531 18.9219 22.2891 18.9219H8.75391C5.57812 18.9219 3.9375 17.3984 3.9375 14.457V8.89062H2.05078V14.457C2.05078 18.6523 4.33594 20.8086 8.75391 20.8086ZM5.48438 23.4219C5.96484 23.6094 6.51562 23.3398 6.69141 22.8594L7.6875 20.1055L5.91797 19.4609L4.92188 22.2148C4.74609 22.6953 5.00391 23.2578 5.48438 23.4219ZM25.5586 23.4219C26.0391 23.2578 26.2852 22.6953 26.1094 22.2148L25.1133 19.4609L23.3438 20.1055L24.3398 22.8594C24.5156 23.3398 25.0664 23.6094 25.5586 23.4219Z" fill="black" fill-opacity="0.85"/>
</g>
<defs>
<clipPath id="clip0_2124_50188">
<rect width="31.0312" height="18.6211" fill="white" transform="translate(0 5)"/>
</clipPath>
</defs>
</svg>
