<svg width="29" height="29" viewBox="0 0 29 29" fill="none" xmlns="http://www.w3.org/2000/svg">
<g clip-path="url(#clip0_2124_45813)">
<path d="M13.957 25.9355C20.4961 25.9355 25.9101 20.5098 25.9101 13.9824C25.9101 7.44336 20.4844 2.0293 13.9453 2.0293C7.41797 2.0293 2.00391 7.44336 2.00391 13.9824C2.00391 20.5098 7.42969 25.9355 13.957 25.9355ZM13.957 23.9434C8.42579 23.9434 4.00782 19.5137 4.00782 13.9824C4.00782 8.45118 8.41407 4.02149 13.9453 4.02149C19.4766 4.02149 23.918 8.45118 23.918 13.9824C23.918 19.5137 19.4883 23.9434 13.957 23.9434Z" fill="black" fill-opacity="0.85"/>
<path d="M13.9453 11.2871C15.1641 11.2988 16.125 10.2676 16.125 8.89648C16.125 7.61913 15.1641 6.55273 13.9453 6.55273C12.7383 6.55273 11.7656 7.61913 11.7656 8.89648C11.7656 10.2676 12.7383 11.2871 13.9453 11.2871ZM10.1133 15.9981H17.7773C18.1758 15.9981 18.3984 15.7402 18.3984 15.3887C18.3984 14.3457 16.8984 12.0723 13.9453 12.0723C10.9922 12.0723 9.49219 14.3457 9.49219 15.3887C9.49219 15.7402 9.71485 15.9981 10.1133 15.9981ZM9.0586 20.4629H18.8437C19.1367 20.4629 19.3711 20.2168 19.3711 19.9238C19.3711 19.6309 19.1367 19.3965 18.8437 19.3965H18.7266V17.8965C18.7266 17.2285 18.4219 16.8652 17.6953 16.8652H10.207C9.48047 16.8652 9.17579 17.2285 9.17579 17.8965V19.3965H9.0586C8.76563 19.3965 8.53125 19.6309 8.53125 19.9238C8.53125 20.2168 8.76563 20.4629 9.0586 20.4629ZM12.6445 19.0449C12.4219 19.0449 12.2695 18.8809 12.2695 18.6699C12.2695 18.459 12.4219 18.2949 12.6445 18.2949H15.2578C15.4805 18.2949 15.6562 18.459 15.6562 18.6699C15.6562 18.8809 15.4805 19.0449 15.2578 19.0449H12.6445Z" fill="black" fill-opacity="0.85"/>
</g>
<defs>
<clipPath id="clip0_2124_45813">
<rect width="23.9062" height="23.918" fill="white" transform="translate(2.00391 2.0293)"/>
</clipPath>
</defs>
</svg>
