<svg width="28" height="28" viewBox="0 0 28 28" fill="none" xmlns="http://www.w3.org/2000/svg">
<path d="M27.1084 21.8281C28.0694 18.3242 25.5264 16.8008 19.2452 16.8008C16.21 16.8008 13.0577 17.1055 10.6436 17.6094L11.0655 18.1953C11.71 12.957 10.1045 8.66797 6.57719 6.81641L6.91704 8.25781C8.28813 4.39062 5.85063 2 3.61235 2C1.92485 2 0.471726 3.3125 1.18657 6.23047L5.59282 24.1133C6.02641 25.8711 7.18657 26.8086 8.92094 26.8086H22.5967C25.0108 26.8086 26.0772 25.6484 27.1084 21.8281Z" fill="black" fill-opacity="0.85"/>
<path d="M14.417 9.78125C14.417 11.5039 15.9874 13.2383 17.4405 13.2383C18.7764 13.2383 19.4561 12.043 20.2647 9.92188L20.5577 9.86328V12.1484C20.5577 13.1328 21.0733 13.6367 22.0225 13.6367C23.7334 13.6367 25.4678 12.0781 25.4678 10.6133C25.4678 9.26562 24.2725 8.59766 22.1397 7.78906L22.0928 7.49609H24.378C25.3624 7.49609 25.8545 6.99219 25.8545 6.04297C25.8545 4.32031 24.3077 2.57422 22.8428 2.57422C21.4952 2.57422 20.8272 3.79297 20.0186 5.92578L19.7256 5.96094V3.67578C19.7256 2.70313 19.2217 2.1875 18.2725 2.1875C16.5499 2.1875 14.8038 3.75781 14.8038 5.21094C14.8038 6.54688 16.0225 7.21484 18.1553 8.02344L18.1788 8.32812H15.9053C14.9327 8.32812 14.417 8.84375 14.417 9.78125ZM18.9639 7.90625C18.9639 7.26172 19.4913 6.73438 20.1358 6.73438C20.7803 6.73438 21.3077 7.26172 21.3077 7.90625C21.3077 8.5625 20.7803 9.07812 20.1358 9.07812C19.4913 9.07812 18.9639 8.5625 18.9639 7.90625Z" fill="black" fill-opacity="0.85"/>
</svg>
