<svg width="36" height="35" viewBox="0 0 36 35" fill="none" xmlns="http://www.w3.org/2000/svg">
<path d="M12.1759 25.9417C11.8478 25.9417 11.7423 26.0589 11.6368 26.2933L10.1368 29.7034C10.0196 29.9847 10.1485 30.1604 10.4415 30.1604H12.5392L12.6915 29.469L10.8985 33.7815C10.8282 33.9456 10.8634 34.0628 10.9806 34.1097C11.086 34.1565 11.2149 34.1214 11.3204 33.9925L16.2774 28.9769C16.5235 28.7308 16.4415 28.4144 16.1017 28.4144H13.5353L13.5118 28.9183L14.8478 26.387C14.9884 26.1292 14.8829 25.9417 14.6251 25.9417H12.1759Z" fill="black" fill-opacity="0.85"/>
<path d="M23.2617 18.5472C26.4727 18.5472 29.0742 15.9456 29.0742 12.7347C29.0742 9.52374 26.4727 6.92218 23.2617 6.92218C20.0508 6.92218 17.4492 9.52374 17.4492 12.7347C17.4492 15.9456 20.0508 18.5472 23.2617 18.5472ZM23.2383 5.0589C23.7773 5.0589 24.2109 4.61358 24.2109 4.08624V1.55499C24.2109 1.02765 23.7773 0.582336 23.2383 0.582336C22.6992 0.582336 22.2656 1.02765 22.2656 1.55499V4.08624C22.2656 4.61358 22.6992 5.0589 23.2383 5.0589ZM28.6523 7.32062C29.0156 7.69562 29.6484 7.70733 30.0352 7.32062L31.8281 5.52765C32.2031 5.15265 32.2031 4.53155 31.8281 4.15655C31.4531 3.78155 30.8438 3.76983 30.4688 4.15655L28.6523 5.96124C28.2773 6.33624 28.2891 6.94562 28.6523 7.32062ZM30.8906 12.7347C30.8906 13.2737 31.3477 13.7073 31.8633 13.7073H34.4062C34.9336 13.7073 35.3672 13.2737 35.3672 12.7347C35.3672 12.1956 34.9336 11.762 34.4062 11.762H31.8633C31.3477 11.762 30.8906 12.1956 30.8906 12.7347ZM28.6523 18.1487C28.2891 18.5237 28.2773 19.1331 28.6523 19.5081L30.4688 21.3245C30.8438 21.6995 31.4531 21.6995 31.8281 21.3245C32.2031 20.9495 32.2031 20.3284 31.8281 19.9534L30.0352 18.1487C29.6484 17.762 29.0156 17.7737 28.6523 18.1487ZM17.8242 18.1487C17.4609 17.7737 16.8281 17.762 16.4414 18.1487L14.6602 19.9534C14.2734 20.3284 14.2852 20.9495 14.6602 21.3245C15.0352 21.6995 15.6445 21.6995 16.0195 21.3245L17.8242 19.5081C18.1992 19.1331 18.1875 18.5237 17.8242 18.1487ZM15.5859 12.7347C15.5859 12.1956 15.1406 11.762 14.6133 11.762H12.082C11.5547 11.762 11.1094 12.1956 11.1094 12.7347C11.1094 13.2737 11.5547 13.7073 12.082 13.7073H14.6133C15.1406 13.7073 15.5859 13.2737 15.5859 12.7347ZM17.8242 7.32062C18.1875 6.94562 18.1992 6.33624 17.8242 5.96124L16.0195 4.14483C15.6445 3.76983 15.0352 3.76983 14.6602 4.14483C14.2852 4.51983 14.2734 5.14093 14.6602 5.52765L16.4414 7.32062C16.8281 7.70733 17.4609 7.69562 17.8242 7.32062Z" fill="black" fill-opacity="0.85"/>
<path d="M6.32812 25.5901H19.0078C23.1211 25.5901 26.3555 22.4378 26.3555 18.3714C26.3555 14.5862 23.4961 11.68 19.6406 11.2815C17.9531 8.6214 15.2344 7.08624 12.1289 7.08624C7.875 7.08624 4.21875 10.1683 3.42188 14.305C1.32422 15.2894 0 17.3167 0 19.7073C0 23.1644 2.64844 25.5901 6.32812 25.5901Z" fill="white"/>
<path d="M6.32812 24.137H19.0078C22.3242 24.137 24.9023 21.6175 24.9023 18.3714C24.9023 15.1487 22.2773 12.7112 18.7734 12.6878C17.4023 10.0628 14.9648 8.55109 12.1289 8.55109C8.32031 8.55109 5.08594 11.5042 4.73438 15.3597C2.74219 15.9573 1.46484 17.6448 1.46484 19.7073C1.46484 22.3323 3.44531 24.137 6.32812 24.137Z" fill="black" fill-opacity="0.85"/>
</svg>
