<svg width="28" height="28" viewBox="0 0 28 28" fill="none" xmlns="http://www.w3.org/2000/svg">
<path d="M6.67969 24.5977H20.8945C23.3555 24.5977 24.5742 23.3789 24.5742 20.9648V6.65625C24.5742 4.24219 23.3555 3.02344 20.8945 3.02344H6.67969C4.23047 3.02344 3 4.23047 3 6.65625V20.9648C3 23.3906 4.23047 24.5977 6.67969 24.5977ZM6.70312 22.7109C5.53125 22.7109 4.88672 22.0898 4.88672 20.8711V6.75C4.88672 5.53125 5.53125 4.91016 6.70312 4.91016H20.8711C22.0312 4.91016 22.6875 5.53125 22.6875 6.75V20.8711C22.6875 22.0898 22.0312 22.7109 20.8711 22.7109H6.70312Z" fill="black" fill-opacity="0.85"/>
<path d="M11.3555 18.6797C11.7891 18.6797 12.1523 18.4102 12.1523 17.8477V16.6758H12.5625C13.0195 16.6758 13.2305 16.3828 13.2305 15.9844C13.2305 15.6094 13.0312 15.3164 12.5625 15.3164H12.1523V10.1719C12.1523 9.36328 11.6133 8.90625 10.8516 8.90625C10.0312 8.90625 9.64453 9.32812 9.31641 10.0547L7.21875 14.6016C7.01953 15.0586 6.94922 15.3633 6.94922 15.7266C6.94922 16.2891 7.34766 16.6758 7.91016 16.6758H10.5352V17.8477C10.5352 18.4688 10.9805 18.6797 11.3555 18.6797ZM10.5703 15.3516H8.40234V15.2695L10.5234 10.3828H10.5703V15.3516ZM17.3086 18.7734C19.1367 18.7734 20.1445 17.2383 20.1445 15.3867C20.1445 13.7695 19.3711 12.293 17.8594 12.293C17.168 12.293 16.5234 12.6094 16.2305 13.2891H16.1719L16.3711 10.4414H19.1133C19.5234 10.4414 19.7695 10.1602 19.7695 9.75C19.7695 9.36328 19.5117 9.05859 19.1133 9.05859H15.9023C15.2812 9.05859 15.0117 9.45703 14.9648 10.0664L14.7773 13.2773C14.7656 13.4531 14.7539 13.6406 14.7539 13.793C14.7539 14.2383 14.9883 14.6367 15.5273 14.6367C15.8438 14.6367 16.0312 14.5078 16.2773 14.1914C16.5469 13.8047 16.8398 13.5234 17.3086 13.5234C18.1758 13.5234 18.5039 14.5664 18.5039 15.4336C18.5039 16.4062 18.1523 17.4023 17.2852 17.4023C16.6289 17.4023 16.2656 16.9336 16.043 16.2891C15.9141 15.9141 15.6445 15.7383 15.3398 15.7383C14.9062 15.7383 14.6367 16.0078 14.6367 16.4414C14.6367 16.7109 14.707 16.9688 14.8008 17.2031C15.2109 18.1523 16.2539 18.7734 17.3086 18.7734Z" fill="black" fill-opacity="0.85"/>
</svg>
