<svg width="28" height="28" viewBox="0 0 28 28" fill="none" xmlns="http://www.w3.org/2000/svg">
<path d="M13.9531 25.9062C20.4922 25.9062 25.9062 20.4805 25.9062 13.9531C25.9062 7.41406 20.4805 2 13.9414 2C7.41406 2 2 7.41406 2 13.9531C2 20.4805 7.42578 25.9062 13.9531 25.9062ZM13.9531 23.9141C8.42188 23.9141 4.00391 19.4844 4.00391 13.9531C4.00391 8.42188 8.41016 3.99219 13.9414 3.99219C19.4727 3.99219 23.9141 8.42188 23.9141 13.9531C23.9141 19.4844 19.4844 23.9141 13.9531 23.9141Z" fill="black" fill-opacity="0.85"/>
<path d="M7.17969 14.9609C7.17969 15.3945 7.56641 15.7695 7.98828 15.7578L12.1133 15.7109C12.3242 15.6992 12.5234 15.6172 12.6523 15.4766C12.9688 15.1719 12.9688 14.7383 12.6641 14.4336C12.5117 14.2812 12.3242 14.2109 12.125 14.2109L10.3906 14.2344L9.72266 14.2578L10.1445 13.8828L15.5117 8.50391C15.8164 8.19922 15.8281 7.74219 15.5117 7.42578C15.207 7.12109 14.75 7.12109 14.4336 7.42578L9.06641 12.8047L8.69141 13.2031L8.71484 12.5703L8.73828 10.8242C8.75 10.625 8.66797 10.4258 8.52734 10.2852C8.21094 9.96875 7.76562 9.96875 7.46094 10.2852C7.33203 10.4258 7.23828 10.6484 7.23828 10.8477L7.17969 14.9609ZM20.7031 12.957C20.7031 12.5117 20.3516 12.1836 19.918 12.1836L15.793 12.2188C15.6055 12.2188 15.3828 12.3125 15.2539 12.4414C14.9258 12.7695 14.9258 13.2031 15.2422 13.5078C15.3945 13.6484 15.5703 13.7305 15.7695 13.7305L17.5273 13.6953L18.1836 13.6719L17.7734 14.0352L12.3828 19.4258C12.0781 19.7305 12.0781 20.1758 12.3945 20.4922C12.6992 20.7969 13.1562 20.8086 13.4609 20.4922L18.8398 15.125L19.2383 14.7031L19.1914 15.3594L19.168 17.1055C19.168 17.3047 19.2383 17.4922 19.3789 17.6445C19.6836 17.9492 20.1289 17.9492 20.4453 17.6445C20.5742 17.5156 20.6445 17.3047 20.6562 17.0938L20.7031 12.957Z" fill="black" fill-opacity="0.85"/>
</svg>
