<svg width="28" height="28" viewBox="0 0 28 28" fill="none" xmlns="http://www.w3.org/2000/svg">
<path d="M6.67969 24.5977H20.8945C23.3555 24.5977 24.5742 23.3789 24.5742 20.9648V6.65625C24.5742 4.24219 23.3555 3.02344 20.8945 3.02344H6.67969C4.23047 3.02344 3 4.23047 3 6.65625V20.9648C3 23.3906 4.23047 24.5977 6.67969 24.5977Z" fill="black" fill-opacity="0.85"/>
<path d="M8.03906 18.6797C7.47656 18.6797 7.21875 18.3867 7.21875 17.9766C7.21875 17.5898 7.44141 17.2969 7.67578 17.0039L9.76172 14.3203C10.4063 13.5117 11.0742 12.5273 11.0742 11.5547C11.0742 10.6992 10.6641 10.0664 9.94922 10.0664C9.25781 10.0664 8.95312 10.5703 8.73047 11.3789C8.60156 11.7773 8.36719 11.9648 7.95703 11.9648C7.5 11.9648 7.23047 11.6484 7.23047 11.1914C7.23047 9.9375 8.41406 8.66016 9.96094 8.66016C11.625 8.66016 12.7383 9.84375 12.7383 11.4727C12.7383 12.5391 12.3398 13.4297 11.1328 14.9297L9.375 17.1562V17.25H12.2344C12.6445 17.25 12.9258 17.5078 12.9258 17.9766C12.9258 18.3984 12.6562 18.6797 12.2344 18.6797H8.03906ZM17.2969 18.8906C15.5391 18.8906 14.1797 17.8359 14.1797 16.043C14.1797 14.7305 14.9648 13.7812 15.9961 13.5469V13.5117C15.2227 13.2773 14.4609 12.5508 14.4609 11.3203C14.4609 9.62109 15.8086 8.70703 17.2969 8.70703C19.0078 8.70703 20.168 9.77344 20.168 11.332C20.168 12.4805 19.4531 13.2656 18.6445 13.5117V13.5469C19.6055 13.7695 20.4492 14.7188 20.4492 16.043C20.4492 17.6953 19.2188 18.8906 17.2969 18.8906ZM17.3086 12.9609C18.0703 12.9609 18.4688 12.293 18.4688 11.4961C18.4688 10.7227 18.082 10.0078 17.3086 10.0078C16.5586 10.0078 16.1484 10.7227 16.1484 11.4961C16.1484 12.2109 16.5352 12.9609 17.3086 12.9609ZM17.3086 17.5781C18.1875 17.5781 18.6211 16.8047 18.6211 15.9023C18.6211 14.9883 18.1641 14.2734 17.3086 14.2734C16.4297 14.2734 15.9961 15.0352 15.9961 15.9023C15.9961 16.8047 16.4297 17.5781 17.3086 17.5781Z" fill="white"/>
</svg>
