<svg width="28" height="28" viewBox="0 0 28 28" fill="none" xmlns="http://www.w3.org/2000/svg">
<path d="M6.67969 24.5977H20.8945C23.3555 24.5977 24.5742 23.3789 24.5742 20.9648V6.65625C24.5742 4.24219 23.3555 3.02344 20.8945 3.02344H6.67969C4.23047 3.02344 3 4.23047 3 6.65625V20.9648C3 23.3906 4.23047 24.5977 6.67969 24.5977ZM6.70312 22.7109C5.53125 22.7109 4.88672 22.0898 4.88672 20.8711V6.75C4.88672 5.53125 5.53125 4.91016 6.70312 4.91016H20.8711C22.0312 4.91016 22.6875 5.53125 22.6875 6.75V20.8711C22.6875 22.0898 22.0312 22.7109 20.8711 22.7109H6.70312Z" fill="black" fill-opacity="0.85"/>
<path d="M10.9922 19.043H14.4141C16.8398 19.043 18.3984 17.8711 18.3984 16.0312C18.3984 14.6016 17.4375 13.5938 15.8789 13.4062V13.3359C17.0391 13.0547 17.7539 12.1406 17.7539 10.9688C17.7539 9.36328 16.4531 8.32031 14.4375 8.32031H10.9922C10.3477 8.32031 9.96094 8.70703 9.96094 9.375V18C9.96094 18.6445 10.3477 19.043 10.9922 19.043ZM11.7656 12.8789V9.70312H14.0625C15.2461 9.70312 15.9609 10.3008 15.9609 11.2617C15.9609 12.293 15.1055 12.8789 13.5352 12.8789H11.7656ZM11.7656 17.6602V14.168H14.2617C15.6914 14.168 16.5234 14.8242 16.5234 15.9492C16.5234 17.1211 15.6211 17.6602 13.6758 17.6602H11.7656Z" fill="black" fill-opacity="0.85"/>
</svg>
