<svg width="34" height="28" viewBox="0 0 34 28" fill="none" xmlns="http://www.w3.org/2000/svg">
<g clip-path="url(#clip0_2124_24788)">
<path d="M5.58984 20.2227H14.8125C15.293 20.2227 15.668 19.918 15.7266 19.4141L16.1133 15.3594C16.1602 14.75 15.75 14.3164 15.1523 14.3164H5.58984C3.96094 14.3164 2.64844 15.6406 2.64844 17.2812C2.64844 18.9102 3.96094 20.2227 5.58984 20.2227ZM5.58984 18.3828C6.21094 18.3828 6.71484 17.9023 6.71484 17.2812C6.71484 16.6602 6.21094 16.1562 5.58984 16.1562C4.96875 16.1562 4.47656 16.6602 4.47656 17.2812C4.47656 17.9023 4.96875 18.3828 5.58984 18.3828ZM12.3516 25.7656H13.4648L13.875 21.8281H12.75L12.3516 25.7656ZM5.58984 19.2148C4.51172 19.2148 3.64453 18.3594 3.64453 17.2812C3.64453 16.2031 4.51172 15.3242 5.58984 15.3242C6.67969 15.3242 7.54688 16.2031 7.54688 17.2812C7.54688 18.3594 6.67969 19.2148 5.58984 19.2148ZM10.4883 2C5.05078 2 0 6.86328 0 13.7773C0 18.3477 1.47656 24.6406 3.90234 24.6641C4.51172 24.6641 4.95703 24.0547 4.95703 22.6719C4.95703 22.2734 4.93359 21.8984 4.83984 21.2891C2.95312 20.9375 1.51172 19.2734 1.51172 17.2812C1.51172 16.5195 1.72266 15.8164 2.08594 15.1953C2.00391 14.6797 1.95703 14.1172 1.95703 13.6836C1.95703 8.28125 6.41016 3.95703 10.3594 3.95703C12.7852 3.95703 14.0156 5.84375 13.6875 9.01953L12.3164 22.1914C12.1875 23.4805 14.1211 23.4805 14.2383 22.3438L15.5859 8.9375C16.0312 4.48438 14.1562 2 10.4883 2ZM27.9609 20.2227C29.6016 20.2227 30.9141 18.9102 30.9141 17.2812C30.9141 15.6406 29.6016 14.3164 27.9609 14.3164H18.4102C17.8008 14.3164 17.3906 14.75 17.4492 15.3594L17.8359 19.4141C17.8945 19.918 18.2695 20.2227 18.7383 20.2227H27.9609ZM27.9609 18.3828C28.5938 18.3828 29.0742 17.9023 29.0742 17.2812C29.0742 16.6602 28.5938 16.1562 27.9609 16.1562C27.3398 16.1562 26.8477 16.6602 26.8477 17.2812C26.8477 17.9023 27.3398 18.3828 27.9609 18.3828ZM21.2109 25.7656L20.8008 21.8281H19.6875L20.0977 25.7656H21.2109ZM27.9609 19.2148C26.8828 19.2148 26.0039 18.3594 26.0039 17.2812C26.0039 16.2031 26.8828 15.3242 27.9609 15.3242C29.0508 15.3242 29.9062 16.2031 29.9062 17.2812C29.9062 18.3594 29.0508 19.2148 27.9609 19.2148ZM23.0742 2C19.3945 2 17.5195 4.48438 17.9766 8.9375L19.3242 22.3438C19.4414 23.4805 21.375 23.4805 21.2344 22.1914L19.875 9.01953C19.5352 5.84375 20.7773 3.95703 23.2031 3.95703C27.1406 3.95703 31.5938 8.28125 31.5938 13.6836C31.5938 14.1172 31.5469 14.6797 31.4766 15.1953C31.8281 15.8164 32.0391 16.5195 32.0391 17.2812C32.0391 19.2734 30.6094 20.9375 28.7227 21.2891C28.6289 21.8984 28.5938 22.2734 28.5938 22.6719C28.5938 24.0547 29.0391 24.6641 29.6484 24.6641C32.0859 24.6406 33.5625 18.3477 33.5625 13.7773C33.5625 6.86328 28.5 2 23.0742 2Z" fill="black" fill-opacity="0.85"/>
</g>
<defs>
<clipPath id="clip0_2124_24788">
<rect width="33.5625" height="23.7773" fill="white" transform="translate(0 2)"/>
</clipPath>
</defs>
</svg>
