<svg width="28" height="28" viewBox="0 0 28 28" fill="none" xmlns="http://www.w3.org/2000/svg">
<path d="M13.9531 25.9062C20.4922 25.9062 25.9062 20.4805 25.9062 13.9531C25.9062 7.41406 20.4805 2 13.9414 2C7.41406 2 2 7.41406 2 13.9531C2 20.4805 7.42578 25.9062 13.9531 25.9062ZM13.9531 23.9141C8.42188 23.9141 4.00391 19.4844 4.00391 13.9531C4.00391 8.42188 8.41016 3.99219 13.9414 3.99219C19.4727 3.99219 23.9141 8.42188 23.9141 13.9531C23.9141 19.4844 19.4844 23.9141 13.9531 23.9141Z" fill="black" fill-opacity="0.85"/>
<path d="M10.1914 19.0273L17.8789 11.3633L16.4961 9.9805L8.82035 17.6328L8.15238 19.1914C8.0352 19.4844 8.31645 19.7305 8.57426 19.6367L10.1914 19.0273ZM18.582 10.6719L19.4258 9.81644C19.8008 9.418 19.8359 8.99612 19.4844 8.64456L19.2148 8.37503C18.8633 8.02347 18.4297 8.05862 18.0547 8.43362L17.1992 9.27737L18.582 10.6719Z" fill="black" fill-opacity="0.85"/>
</svg>
