<svg width="28" height="28" viewBox="0 0 28 28" fill="none" xmlns="http://www.w3.org/2000/svg">
<g clip-path="url(#clip0_2124_24628)">
<path d="M26.832 17.8711V9.1875C26.832 7.27734 25.6133 6 23.7852 6H5.07031C3.24219 6 2 7.27734 2 9.1875V17.8711C2 19.7812 3.24219 21.0703 5.07031 21.0703H23.7852C25.6133 21.0703 26.832 19.7812 26.832 17.8711ZM24.9453 17.6367C24.9453 18.6211 24.418 19.1836 23.4805 19.1836H5.375C4.42578 19.1836 3.89844 18.6211 3.89844 17.6367V16.125C3.89844 15.9492 4.00391 15.8438 4.17969 15.8438H4.44922C4.92969 15.8438 5.26953 15.5273 5.26953 15.0469V12.0117C5.26953 11.5312 4.92969 11.2148 4.44922 11.2148H4.17969C4.00391 11.2148 3.89844 11.1094 3.89844 10.9336V9.43359C3.89844 8.44922 4.42578 7.88672 5.375 7.88672H23.4805C24.418 7.88672 24.9453 8.44922 24.9453 9.43359V17.6367ZM11.3047 18.3164H17.5508C17.8672 18.3164 18.0898 18.0938 18.0898 17.7656C18.0898 17.4375 17.8672 17.2266 17.5508 17.2266H11.3047C10.9883 17.2266 10.7656 17.4375 10.7656 17.7656C10.7656 18.0938 10.9883 18.3164 11.3047 18.3164Z" fill="black" fill-opacity="0.85"/>
</g>
<defs>
<clipPath id="clip0_2124_24628">
<rect width="24.832" height="15.1055" fill="white" transform="translate(2 6)"/>
</clipPath>
</defs>
</svg>
