<svg width="43" height="28" viewBox="0 0 43 28" fill="none" xmlns="http://www.w3.org/2000/svg">
<path d="M3.67969 24.457H21.1523C23.6367 24.457 24.832 23.2852 24.832 20.8359V6.55078C24.832 4.20703 23.625 3.01172 21.2578 3.01172H15.5742C13.6641 3.01172 12.4688 3.42188 10.9219 4.58203L1.81641 11.5078C0.46875 12.5273 0 13.4297 0 15.1055V20.8359C0 23.2852 1.20703 24.457 3.67969 24.457ZM3.75 13.6523C3.12891 13.6523 3 12.9844 3.48047 12.6328L12.2109 5.95312C13.207 5.15625 14.0742 4.89844 15.5742 4.89844H21.2227C22.3125 4.89844 22.9453 5.50781 22.9453 6.64453V11.9062C22.9453 13.0312 22.3008 13.6523 21.2227 13.6523H3.75Z" fill="black" fill-opacity="0.85"/>
<path d="M30.0938 20.2383C30.457 20.2383 30.6797 20.1094 31.043 19.7695L35.5899 15.1875L40.125 19.7578C40.4766 20.0977 40.6992 20.2266 41.0625 20.2266C41.5664 20.2266 42.0117 19.793 42.0117 19.3008C42.0117 18.9609 41.8946 18.7383 41.5899 18.4219L36.9845 13.7812L41.5899 9.14062C41.8946 8.82422 42.0117 8.60156 42.0117 8.26172C42.0117 7.76953 41.5781 7.34766 41.0742 7.34766C40.7109 7.34766 40.4883 7.47656 40.125 7.81641L35.5781 12.3867L31.0548 7.81641C30.7032 7.47656 30.4689 7.34766 30.1173 7.34766C29.6017 7.34766 29.168 7.76953 29.168 8.27344C29.168 8.625 29.2852 8.85938 29.5781 9.16406L34.1837 13.7812L29.5781 18.4336C29.2734 18.75 29.1562 18.9727 29.1562 19.3242C29.1562 19.8164 29.5898 20.2383 30.0938 20.2383Z" fill="black" fill-opacity="0.85"/>
</svg>
