<svg width="28" height="28" viewBox="0 0 28 28" fill="none" xmlns="http://www.w3.org/2000/svg">
<path d="M6.67969 24.5977H20.8945C23.3555 24.5977 24.5742 23.3789 24.5742 20.9648V6.65625C24.5742 4.24219 23.3555 3.02344 20.8945 3.02344H6.67969C4.23047 3.02344 3 4.23047 3 6.65625V20.9648C3 23.3906 4.23047 24.5977 6.67969 24.5977Z" fill="black" fill-opacity="0.85"/>
<path d="M13.8164 19.4648C10.6641 19.4648 8.67188 17.2148 8.67188 13.6875C8.67188 10.1602 10.6758 7.89844 13.8164 7.89844C15.9492 7.89844 17.6602 8.91797 18.2461 10.5352C18.3281 10.7578 18.3516 10.8984 18.3516 11.0977C18.3516 11.6133 18.0234 11.9297 17.5195 11.9297C17.1445 11.9297 16.9102 11.7539 16.7109 11.3437C16.207 10.1484 15.1992 9.50391 13.8398 9.50391C11.918 9.50391 10.6289 11.1914 10.6289 13.6875C10.6289 16.1836 11.918 17.8594 13.8398 17.8594C15.1992 17.8594 16.207 17.2148 16.7109 16.0312C16.9102 15.6211 17.1445 15.4336 17.5195 15.4336C18.0234 15.4336 18.3516 15.75 18.3516 16.2656C18.3516 16.4414 18.3281 16.6055 18.2461 16.8281C17.6602 18.457 15.9609 19.4648 13.8164 19.4648Z" fill="white"/>
</svg>
