<svg width="28" height="28" viewBox="0 0 28 28" fill="none" xmlns="http://www.w3.org/2000/svg">
<path d="M13.9531 25.9062C20.4922 25.9062 25.9062 20.4805 25.9062 13.9531C25.9062 7.41406 20.4805 2 13.9414 2C7.41406 2 2 7.41406 2 13.9531C2 20.4805 7.42578 25.9062 13.9531 25.9062ZM13.9531 23.9141C8.42188 23.9141 4.00391 19.4844 4.00391 13.9531C4.00391 8.42188 8.41016 3.99219 13.9414 3.99219C19.4727 3.99219 23.9141 8.42188 23.9141 13.9531C23.9141 19.4844 19.4844 23.9141 13.9531 23.9141Z" fill="black" fill-opacity="0.85"/>
<path d="M13.9414 19.4492C16.9414 19.4492 19.0156 17.1523 19.0156 13.8477C19.0156 10.5312 16.9414 8.23438 13.9414 8.23438C10.9531 8.23438 8.87891 10.5312 8.87891 13.8477C8.87891 17.1523 10.9531 19.4492 13.9414 19.4492ZM13.9414 17.9727C12.0078 17.9727 10.7422 16.3438 10.7422 13.8477C10.7422 11.3398 12.0078 9.71094 13.9414 9.71094C15.875 9.71094 17.1406 11.3398 17.1406 13.8477C17.1406 16.3438 15.875 17.9727 13.9414 17.9727Z" fill="black" fill-opacity="0.85"/>
</svg>
