<svg width="28" height="28" viewBox="0 0 28 28" fill="none" xmlns="http://www.w3.org/2000/svg">
<g clip-path="url(#clip0_2124_62613)">
<path d="M4.31641 12.6211C4.11719 12.832 4 13.0898 4 13.3828C4 13.9922 4.45703 14.4609 5.06641 14.4609C5.37109 14.4609 5.64062 14.332 5.82812 14.1445L14.8047 4.98047H13.5508L22.5273 14.1445C22.7266 14.332 22.9961 14.4609 23.2891 14.4609C23.8984 14.4609 24.3555 13.9922 24.3555 13.3828C24.3555 13.0898 24.2383 12.832 24.0391 12.6211L14.9688 3.33984C14.7695 3.11719 14.4766 3 14.1836 3C13.8789 3 13.6094 3.11719 13.3867 3.33984L4.31641 12.6211Z" fill="black" fill-opacity="0.85"/>
</g>
<defs>
<clipPath id="clip0_2124_62613">
<rect width="20.3555" height="22.043" fill="white" transform="translate(4 3)"/>
</clipPath>
</defs>
</svg>
