<svg width="28" height="28" viewBox="0 0 28 28" fill="none" xmlns="http://www.w3.org/2000/svg">
<path d="M20.1723 7.49931C22.0238 6.31572 23.9223 0.983686 21.8363 0.468061C19.6918 -0.0241264 19.0238 5.6126 20.1723 7.49931ZM20.4535 7.95635C23.1723 7.96806 28.727 3.52666 26.8051 1.59306C24.8832 -0.328814 20.4418 5.22588 20.4535 7.95635ZM20.9105 8.22588C22.7855 9.39775 28.434 8.70635 27.9418 6.59697C27.4379 4.47588 22.0941 6.38603 20.9105 8.22588ZM1.68008 26.6712C2.27773 27.2806 3.1918 27.6673 4.32851 26.9525L10.2113 23.2728L8.80508 21.8783C8.48867 21.5619 8.48867 21.0931 8.79336 20.7884C9.09805 20.4837 9.5668 20.472 9.8832 20.7884L11.5473 22.429L12.8598 21.597L10.891 19.6986C10.5746 19.3822 10.5863 18.9134 10.8793 18.6087C11.1957 18.304 11.6645 18.2923 11.9691 18.597L14.1957 20.7767L19.9145 17.1673C23.9105 14.6595 24.6254 10.7454 21.6371 7.71025L20.6293 6.69072C18.0277 4.054 14.6762 4.28838 12.2035 7.07744L15.3207 10.1478C15.6371 10.4642 15.6371 10.9212 15.3441 11.2259C15.0395 11.5423 14.5707 11.554 14.2543 11.2376L11.2543 8.30791L10.434 9.59697L12.6723 11.7884C12.9887 12.1048 12.9887 12.5853 12.684 12.8783C12.3676 13.1829 11.9105 13.1947 11.5941 12.8783L9.60195 10.9447L1.37539 23.9876C0.71914 25.0423 0.988671 25.9798 1.68008 26.6712Z" fill="black" fill-opacity="0.85"/>
</svg>
