<svg width="28" height="28" viewBox="0 0 28 28" fill="none" xmlns="http://www.w3.org/2000/svg">
<g clip-path="url(#clip0_2124_88497)">
<path d="M13.9531 25.918C20.4922 25.918 25.9062 20.5039 25.9062 13.9648C25.9062 7.4375 20.4805 2.01172 13.9414 2.01172C7.41406 2.01172 2 7.4375 2 13.9648C2 20.5039 7.42578 25.918 13.9531 25.918Z" fill="black" fill-opacity="0.85"/>
<path d="M10.3789 20.375C9.98047 20.375 9.72266 20.082 9.72266 19.6016V9.41797C9.72266 8.24609 10.332 7.625 11.5039 7.625H16.4023C17.5742 7.625 18.1836 8.24609 18.1836 9.41797V19.6016C18.1836 20.082 17.9258 20.375 17.5273 20.375C17.2109 20.375 17.0352 20.1875 16.4844 19.6484L14.0117 17.2227C13.9766 17.1875 13.9297 17.1875 13.8945 17.2227L11.4336 19.6484C10.8711 20.1875 10.6953 20.375 10.3789 20.375Z" fill="white"/>
</g>
<defs>
<clipPath id="clip0_2124_88497">
<rect width="23.9062" height="23.918" fill="white" transform="translate(2 2)"/>
</clipPath>
</defs>
</svg>
