<svg width="28" height="28" viewBox="0 0 28 28" fill="none" xmlns="http://www.w3.org/2000/svg">
<g clip-path="url(#clip0_2124_88348)">
<path d="M13.9531 25.918C20.4922 25.918 25.9062 20.5039 25.9062 13.9648C25.9062 7.4375 20.4805 2.01172 13.9414 2.01172C7.41406 2.01172 2 7.4375 2 13.9648C2 20.5039 7.42578 25.918 13.9531 25.918Z" fill="black" fill-opacity="0.85"/>
<path d="M9.05469 19.4492C7.82422 19.4492 7.20312 18.8398 7.20312 17.6445V12.5938H20.7266V17.6445C20.7266 18.8398 20.1172 19.4492 19.0625 19.4492H9.05469ZM7.20312 11.6094V10.0391C7.20312 8.86719 7.78906 8.28125 8.80859 8.28125H10.5898C11.1406 8.28125 11.4336 8.38672 11.832 8.70312L12.207 8.99609C12.5 9.23047 12.7109 9.34766 13.1328 9.34766H18.875C20.1055 9.34766 20.7266 9.95703 20.7266 11.1641V11.6094H7.20312Z" fill="white"/>
</g>
<defs>
<clipPath id="clip0_2124_88348">
<rect width="23.9062" height="23.918" fill="white" transform="translate(2 2)"/>
</clipPath>
</defs>
</svg>
