<svg width="32" height="28" viewBox="0 0 32 28" fill="none" xmlns="http://www.w3.org/2000/svg">
<path d="M15.5625 26.6562C19.3945 26.6562 22.3711 24.1367 22.3711 20.9023C22.3711 17.6562 19.3945 15.1367 15.5625 15.1367C11.707 15.1367 8.73047 17.6562 8.73047 20.9023C8.73047 24.1367 11.707 26.6562 15.5625 26.6562ZM15.5625 24.7695C12.7734 24.7695 10.6172 23.082 10.6172 20.9023C10.6172 18.7109 12.7734 17.0234 15.5625 17.0234C18.3516 17.0234 20.4844 18.7109 20.4844 20.9023C20.4844 23.082 18.3516 24.7695 15.5625 24.7695Z" fill="black" fill-opacity="0.85"/>
<path d="M15.5156 23.3984C17.0039 23.3984 18.2227 22.4844 18.2227 21.1836V7.71875H12.8203V21.1836C12.8203 22.4844 14.0508 23.3984 15.5156 23.3984Z" fill="white"/>
<path d="M15.5156 22.0273C16.2539 22.0273 16.8633 21.6758 16.8633 21.1836V9.08984H14.1914V21.1836C14.1914 21.6758 14.7773 22.0273 15.5156 22.0273ZM15.5156 12.0664C18.3047 12.0664 20.5312 9.80469 20.5312 7.01562C20.5312 4.25 18.2812 2 15.5156 2C12.7383 2 10.4766 4.27344 10.4766 7.01562C10.4766 9.82812 12.7383 12.0664 15.5156 12.0664Z" fill="black" fill-opacity="0.85"/>
<path d="M9.1875 12.3946C9.1875 11.8907 8.78906 11.4923 8.27344 11.4923H5.01562V9.93365C5.01562 9.10162 4.20703 8.85553 3.58594 9.32428L0.316406 11.7969C-0.105469 12.1134 -0.105469 12.711 0.316406 13.0392L3.58594 15.5001C4.23047 15.9923 5.01562 15.6993 5.01562 14.8907V13.3204H8.27344C8.78906 13.3204 9.1875 12.9103 9.1875 12.3946ZM21.8438 12.3946C21.8438 12.9103 22.2539 13.3204 22.7695 13.3204H26.0156V14.8907C26.0156 15.6993 26.8008 15.9923 27.4453 15.5001L30.7148 13.0392C31.1484 12.711 31.1367 12.1134 30.7148 11.7969L27.4453 9.32428C26.8242 8.85553 26.0156 9.10162 26.0156 9.93365V11.4923H22.7695C22.2539 11.4923 21.8438 11.8907 21.8438 12.3946Z" fill="black" fill-opacity="0.85"/>
</svg>
