<svg width="28" height="28" viewBox="0 0 28 28" fill="none" xmlns="http://www.w3.org/2000/svg">
<path d="M6.67969 24.5977H20.8945C23.3555 24.5977 24.5742 23.3789 24.5742 20.9648V6.65625C24.5742 4.24219 23.3555 3.02344 20.8945 3.02344H6.67969C4.23047 3.02344 3 4.23047 3 6.65625V20.9648C3 23.3906 4.23047 24.5977 6.67969 24.5977Z" fill="black" fill-opacity="0.85"/>
<path d="M13.793 19.4648C10.7109 19.4648 8.56641 17.0977 8.56641 13.6875C8.56641 10.2656 10.7109 7.89844 13.793 7.89844C16.8867 7.89844 19.0312 10.2656 19.0312 13.6875C19.0312 17.0977 16.8867 19.4648 13.793 19.4648ZM13.793 17.9414C15.7852 17.9414 17.0859 16.2539 17.0859 13.6875C17.0859 11.1094 15.7852 9.42188 13.793 9.42188C11.8008 9.42188 10.5 11.1094 10.5 13.6875C10.5 16.2539 11.8008 17.9414 13.793 17.9414Z" fill="white"/>
</svg>
