<svg width="28" height="28" viewBox="0 0 28 28" fill="none" xmlns="http://www.w3.org/2000/svg">
<g clip-path="url(#clip0_2124_32158)">
<path d="M7.21875 26.3281H19.8984C22.4414 26.3281 24.1289 24.5586 24.1289 21.8984V15.9805C24.1289 13.1094 23.8125 10.0625 23.2852 7.88281C22.6758 5.22266 20.8711 3.48828 18.4102 3.23047C17.8008 3.17188 15.7734 3.00781 13.5586 3.00781C11.0742 3.00781 9.32812 3.17188 8.71875 3.23047C6.25781 3.48828 4.45312 5.22266 3.84375 7.88281C3.31641 10.0742 3 12.9922 3 15.8398V21.8984C3 24.5586 4.6875 26.3281 7.21875 26.3281ZM7.51172 24.793C5.54297 24.793 4.53516 23.6445 4.53516 21.8984V15.8398C4.53516 13.0977 4.82812 10.3203 5.33203 8.23438C5.8125 6.19531 7.08984 4.95312 8.87109 4.76562C9.44531 4.70703 11.1211 4.54297 13.5586 4.54297C15.7148 4.54297 17.6836 4.70703 18.2578 4.76562C20.0391 4.95312 21.3164 6.19531 21.7969 8.23438C22.3008 10.3203 22.5938 13.2148 22.5938 15.9805V21.8984C22.5938 23.6445 21.5859 24.793 19.6055 24.793H7.51172ZM13.5586 18.1836C16.5117 18.1719 18.7617 18.043 20.0273 17.8906C20.7305 17.8086 21.0117 17.3516 21.0117 16.6953V15.0898C21.0117 12.7461 20.7656 11.0117 20.5898 10.2266C20.4727 9.7109 20.1562 9.3359 19.6172 9.2773C18.3281 9.125 16.8984 9.0312 13.5586 9.0195C10.2305 9.0312 8.80078 9.125 7.51172 9.2773C6.97266 9.3359 6.65625 9.7109 6.53906 10.2266C6.36328 11.0117 6.11719 12.7461 6.11719 15.0898V16.6953C6.11719 17.3516 6.38672 17.8086 7.10156 17.8906C8.36719 18.043 10.6172 18.1719 13.5586 18.1836ZM8.22656 23.0234C9.14062 23.0234 9.83203 22.3438 9.83203 21.4062C9.83203 20.4805 9.16406 19.8008 8.22656 19.8008C7.30078 19.8008 6.62109 20.4805 6.62109 21.4062C6.62109 22.3438 7.30078 23.0234 8.22656 23.0234ZM18.8789 23.0352C19.7812 23.0352 20.4961 22.332 20.4961 21.4062C20.4961 20.4922 19.793 19.7891 18.8789 19.7891C17.9531 19.7891 17.25 20.4922 17.25 21.4062C17.25 22.332 17.9531 23.0352 18.8789 23.0352ZM10.6055 7.625H16.5234C16.957 7.625 17.2383 7.34375 17.2383 6.91016C17.2383 6.47656 16.957 6.20703 16.5234 6.20703H10.6055C10.1719 6.20703 9.89062 6.47656 9.89062 6.91016C9.89062 7.34375 10.1719 7.625 10.6055 7.625ZM3.89062 1.34375C3.89062 1.82422 4.25391 2.11719 4.6875 2.11719C4.92188 2.11719 5.15625 2 5.36719 1.75391C6.01172 0.92188 6.73828 0.61719 8.07422 0.61719H19.0547C20.3906 0.61719 21.1055 0.92188 21.7617 1.75391C21.9609 2 22.207 2.11719 22.4414 2.11719C22.875 2.11719 23.2383 1.82422 23.2383 1.34375C23.2383 0.99219 22.9805 0.62891 22.6523 0.3125C21.6445 -0.660156 20.4961 -0.988281 19.0547 -0.988281H8.07422C6.63281 -0.988281 5.47266 -0.660156 4.47656 0.3125C4.13672 0.62891 3.89062 0.99219 3.89062 1.34375ZM12.1523 3.35938L9.79688 0.47656H7.61719L9.98438 3.35938H12.1523ZM14.9766 3.35938H17.1445L19.5117 0.47656H17.332L14.9766 3.35938ZM7.57031 25.7891L5.64844 28.8711C5.34375 29.3516 5.625 29.8789 6.17578 29.8789H6.83203C7.16016 29.8789 7.33594 29.7734 7.51172 29.4922L9.80859 25.7891H7.57031ZM17.332 25.7891L19.6289 29.4922C19.8047 29.7734 19.9805 29.8789 20.3086 29.8789H20.9648C21.5156 29.8789 21.7617 29.3398 21.457 28.8711L19.5586 25.7891H17.332Z" fill="black" fill-opacity="0.85"/>
</g>
<defs>
<clipPath id="clip0_2124_32158">
<rect width="28" height="28" fill="white"/>
</clipPath>
</defs>
</svg>
