<svg width="30" height="28" viewBox="0 0 30 28" fill="none" xmlns="http://www.w3.org/2000/svg">
<g clip-path="url(#clip0_2124_24541)">
<path d="M3.67969 23.5156H25.8164C28.2539 23.5156 29.4961 22.2969 29.4961 19.8828V8.62109C29.4961 6.21875 28.2539 5 25.8164 5H3.67969C1.21875 5 0 6.20703 0 8.62109V19.8828C0 22.2969 1.21875 23.5156 3.67969 23.5156ZM3.70312 21.6289C2.53125 21.6289 1.88672 20.9961 1.88672 19.7773V8.72656C1.88672 7.50781 2.53125 6.88672 3.70312 6.88672H25.7812C26.9414 6.88672 27.6094 7.50781 27.6094 8.72656V19.7773C27.6094 20.9961 26.9414 21.6289 25.7812 21.6289H3.70312Z" fill="black" fill-opacity="0.85"/>
<path d="M4.61719 11.5039H5.48438C5.68359 11.5039 5.8125 11.3633 5.8125 11.1289V9.81641C5.8125 9.58203 5.68359 9.44141 5.48438 9.44141H4.61719C4.40625 9.44141 4.26562 9.58203 4.26562 9.81641V11.1289C4.26562 11.3633 4.40625 11.5039 4.61719 11.5039ZM7.19531 11.5039H8.05079C8.26172 11.5039 8.39062 11.3633 8.39062 11.1289V9.81641C8.39062 9.58203 8.26172 9.44141 8.05079 9.44141H7.19531C6.97266 9.44141 6.84375 9.58203 6.84375 9.81641V11.1289C6.84375 11.3633 6.97266 11.5039 7.19531 11.5039ZM9.76172 11.5039H10.6289C10.8281 11.5039 10.957 11.3633 10.957 11.1289V9.81641C10.957 9.58203 10.8281 9.44141 10.6289 9.44141H9.76172C9.55078 9.44141 9.41016 9.58203 9.41016 9.81641V11.1289C9.41016 11.3633 9.55078 11.5039 9.76172 11.5039ZM12.3281 11.5039H13.1836C13.3945 11.5039 13.5352 11.3633 13.5352 11.1289V9.81641C13.5352 9.58203 13.3945 9.44141 13.1836 9.44141H12.3281C12.1172 9.44141 11.9883 9.58203 11.9883 9.81641V11.1289C11.9883 11.3633 12.1172 11.5039 12.3281 11.5039ZM14.8945 11.5039H15.7734C15.9727 11.5039 16.1016 11.3633 16.1016 11.1289V9.81641C16.1016 9.58203 15.9727 9.44141 15.7734 9.44141H14.8945C14.6836 9.44141 14.5547 9.58203 14.5547 9.81641V11.1289C14.5547 11.3633 14.6836 11.5039 14.8945 11.5039ZM17.4844 11.5039H18.3281C18.5391 11.5039 18.6797 11.3633 18.6797 11.1289V9.81641C18.6797 9.58203 18.5391 9.44141 18.3281 9.44141H17.4844C17.2617 9.44141 17.1328 9.58203 17.1328 9.81641V11.1289C17.1328 11.3633 17.2617 11.5039 17.4844 11.5039ZM4.61719 15.2656H5.48438C5.68359 15.2656 5.8125 15.1367 5.8125 14.8906V13.5898C5.8125 13.3437 5.68359 13.2148 5.48438 13.2148H4.61719C4.40625 13.2148 4.26562 13.3437 4.26562 13.5898V14.8906C4.26562 15.1367 4.40625 15.2656 4.61719 15.2656ZM7.19531 15.2656H8.05079C8.26172 15.2656 8.39062 15.1367 8.39062 14.8906V13.5898C8.39062 13.3437 8.26172 13.2148 8.05079 13.2148H7.19531C6.97266 13.2148 6.84375 13.3437 6.84375 13.5898V14.8906C6.84375 15.1367 6.97266 15.2656 7.19531 15.2656ZM9.76172 15.2656H10.6289C10.8281 15.2656 10.957 15.1367 10.957 14.8906V13.5898C10.957 13.3437 10.8281 13.2148 10.6289 13.2148H9.76172C9.55078 13.2148 9.41016 13.3437 9.41016 13.5898V14.8906C9.41016 15.1367 9.55078 15.2656 9.76172 15.2656ZM12.3281 15.2656H13.1836C13.3945 15.2656 13.5352 15.1367 13.5352 14.8906V13.5898C13.5352 13.3437 13.3945 13.2148 13.1836 13.2148H12.3281C12.1172 13.2148 11.9883 13.3437 11.9883 13.5898V14.8906C11.9883 15.1367 12.1172 15.2656 12.3281 15.2656ZM14.8945 15.2656H15.7734C15.9727 15.2656 16.1016 15.1367 16.1016 14.8906V13.5898C16.1016 13.3437 15.9727 13.2148 15.7734 13.2148H14.8945C14.6836 13.2148 14.5547 13.3437 14.5547 13.5898V14.8906C14.5547 15.1367 14.6836 15.2656 14.8945 15.2656ZM17.4844 15.2656H18.3281C18.5391 15.2656 18.6797 15.1367 18.6797 14.8906V13.5898C18.6797 13.3437 18.5391 13.2148 18.3281 13.2148H17.4844C17.2617 13.2148 17.1328 13.3437 17.1328 13.5898V14.8906C17.1328 15.1367 17.2617 15.2656 17.4844 15.2656ZM4.61719 19.0391H5.48438C5.68359 19.0391 5.8125 18.8984 5.8125 18.6641V17.3516C5.8125 17.1172 5.68359 16.9766 5.48438 16.9766H4.61719C4.40625 16.9766 4.26562 17.1172 4.26562 17.3516V18.6641C4.26562 18.8984 4.40625 19.0391 4.61719 19.0391ZM7.19531 19.0391H15.7734C15.9727 19.0391 16.1016 18.8984 16.1016 18.6641V17.3516C16.1016 17.1172 15.9727 16.9766 15.7734 16.9766H7.19531C6.97266 16.9766 6.84375 17.1172 6.84375 17.3516V18.6641C6.84375 18.8984 6.97266 19.0391 7.19531 19.0391ZM17.4844 19.0391H18.3281C18.5391 19.0391 18.6797 18.8984 18.6797 18.6641V17.3516C18.6797 17.1172 18.5391 16.9766 18.3281 16.9766H17.4844C17.2617 16.9766 17.1328 17.1172 17.1328 17.3516V18.6641C17.1328 18.8984 17.2617 19.0391 17.4844 19.0391ZM20.6602 13.6016C20.2266 14.0117 20.2266 14.4922 20.6602 14.9023L24.0938 18.1836C24.4922 18.5586 25.1719 18.4062 25.1719 17.7734V10.7305C25.1719 10.1094 24.4922 9.95703 24.0938 10.332L20.6602 13.6016Z" fill="black" fill-opacity="0.85"/>
</g>
<defs>
<clipPath id="clip0_2124_24541">
<rect width="29.4961" height="18.5273" fill="white" transform="translate(0 5)"/>
</clipPath>
</defs>
</svg>
