<svg width="28" height="28" viewBox="0 0 28 28" fill="none" xmlns="http://www.w3.org/2000/svg">
<path d="M3.67969 24.5742H23.9531C26.4141 24.5742 27.6328 23.3672 27.6328 20.9531V6.63281C27.6328 4.21875 26.4141 3 23.9531 3H3.67969C1.23047 3 0 4.21875 0 6.63281V20.9531C0 23.3672 1.23047 24.5742 3.67969 24.5742ZM3.70312 22.6875C2.53125 22.6875 1.88672 22.0664 1.88672 20.8477V6.73828C1.88672 5.51953 2.53125 4.88672 3.70312 4.88672H23.9297C25.0898 4.88672 25.7461 5.51953 25.7461 6.73828V20.8477C25.7461 22.0664 25.0898 22.6875 23.9297 22.6875H3.70312Z" fill="black" fill-opacity="0.85"/>
<path d="M6.90234 18.5742C7.41797 18.5742 7.71094 18.2461 7.71094 17.6953V9.78516C7.71094 9.21094 7.39453 8.89453 6.86719 8.89453C6.48047 8.89453 6.23438 8.98828 5.80078 9.29297L3.92578 10.5586C3.70312 10.7109 3.62109 10.875 3.62109 11.1094C3.62109 11.4258 3.87891 11.6953 4.17188 11.6953C4.32422 11.6953 4.44141 11.6719 4.6875 11.4961L6.02344 10.6172H6.12891V17.6953C6.12891 18.2344 6.42188 18.5742 6.90234 18.5742ZM10.2422 18.4336H15.5039C15.9023 18.4336 16.1836 18.1406 16.1836 17.7422C16.1836 17.3438 15.9023 17.0742 15.5039 17.0742H11.7539V17.0273L14.1797 14.4258C15.0938 13.4414 15.7383 12.6328 15.7383 11.5078C15.7383 9.92578 14.4844 8.88281 12.5859 8.88281C11.1445 8.88281 9.84375 9.76172 9.51562 10.9453C9.48047 11.1094 9.45703 11.2148 9.45703 11.3555C9.45703 11.7539 9.71484 12.0234 10.1367 12.0234C10.5 12.0234 10.6992 11.8008 10.875 11.5078C11.1211 10.875 11.6719 10.2188 12.6562 10.2188C13.6172 10.2188 14.2617 10.7813 14.2617 11.625C14.2617 12.3516 13.6523 12.9844 13.0547 13.6172L9.77344 17.1445C9.59766 17.3203 9.50391 17.5078 9.50391 17.7539C9.50391 18.1641 9.79688 18.4336 10.2422 18.4336ZM20.3906 18.5859C22.5 18.5859 23.918 17.4844 23.918 15.8203C23.918 14.6133 23.0156 13.6641 21.7852 13.5352V13.5117C22.8047 13.3477 23.5898 12.4102 23.5898 11.332C23.5898 9.90234 22.2891 8.87109 20.4727 8.87109C18.8203 8.87109 17.5664 9.66797 17.2852 10.875C17.2617 11.0273 17.25 11.1211 17.25 11.2852C17.25 11.6719 17.5312 11.9531 17.9531 11.9531C18.3164 11.9531 18.5391 11.7891 18.6562 11.4258C18.8789 10.6406 19.5469 10.1953 20.4492 10.1953C21.4453 10.1953 22.0781 10.6992 22.0781 11.5078C22.0781 12.3398 21.3633 12.9492 20.4023 12.9492H19.7578C19.3945 12.9492 19.125 13.207 19.125 13.582C19.125 13.957 19.3945 14.2266 19.7578 14.2266H20.4727C21.6094 14.2266 22.3945 14.8359 22.3945 15.7617C22.3945 16.6641 21.5977 17.2734 20.4141 17.2734C19.4414 17.2734 18.75 16.8281 18.4805 16.0312C18.3281 15.6797 18.1172 15.5156 17.7656 15.5156C17.332 15.5156 17.0625 15.8086 17.0625 16.2188C17.0625 16.3594 17.0742 16.4297 17.0977 16.5703C17.3555 17.7539 18.7383 18.5859 20.3906 18.5859Z" fill="black" fill-opacity="0.85"/>
</svg>
