<svg width="28" height="28" viewBox="0 0 28 28" fill="none" xmlns="http://www.w3.org/2000/svg">
<path d="M6.67969 24.5977H20.8945C23.3555 24.5977 24.5742 23.3789 24.5742 20.9648V6.65625C24.5742 4.24219 23.3555 3.02344 20.8945 3.02344H6.67969C4.23047 3.02344 3 4.23047 3 6.65625V20.9648C3 23.3906 4.23047 24.5977 6.67969 24.5977ZM6.70312 22.7109C5.53125 22.7109 4.88672 22.0898 4.88672 20.8711V6.75C4.88672 5.53125 5.53125 4.91016 6.70312 4.91016H20.8711C22.0312 4.91016 22.6875 5.53125 22.6875 6.75V20.8711C22.6875 22.0898 22.0312 22.7109 20.8711 22.7109H6.70312Z" fill="black" fill-opacity="0.85"/>
<path d="M9.52734 18.6211C9.52734 19.0312 9.79688 19.3125 10.2188 19.3125H17.2969C17.7188 19.3125 18.0117 19.0312 18.0117 18.6211C18.0117 18.2109 17.7188 17.9414 17.2969 17.9414H12.2344C12.7383 17.5312 13.0898 16.8164 13.1953 16.0547C13.2188 15.8672 13.2305 15.6914 13.2305 15.5156H16.0312C16.418 15.5156 16.6875 15.2578 16.6875 14.8828C16.6875 14.5078 16.418 14.2617 16.0312 14.2617H13.1016C13.0195 13.9102 12.9258 13.5703 12.8438 13.2422H16.0312C16.418 13.2422 16.6875 12.9844 16.6875 12.6094C16.6875 12.2344 16.418 11.9883 16.0312 11.9883H12.6328C12.6211 11.8711 12.6094 11.7539 12.6094 11.6367C12.6094 10.3711 13.5117 9.50391 15.0586 9.50391C15.9258 9.50391 16.4414 9.71484 16.8047 9.76172C17.25 9.78516 17.4727 9.52734 17.4727 9.14062C17.4727 8.83594 17.3203 8.58984 16.9102 8.42578C16.3594 8.20312 15.6914 8.12109 14.9766 8.12109C12.5625 8.12109 11.0742 9.52734 11.0742 11.7305C11.0742 11.8242 11.0859 11.8945 11.0977 11.9883H10.207C9.83203 11.9883 9.5625 12.2344 9.5625 12.6094C9.5625 12.9844 9.83203 13.2422 10.207 13.2422H11.2969C11.3789 13.582 11.4727 13.9219 11.5547 14.2617H10.207C9.83203 14.2617 9.5625 14.5078 9.5625 14.8828C9.5625 15.2578 9.83203 15.5156 10.207 15.5156H11.7422C11.7539 15.6445 11.7422 15.7617 11.7305 15.9023C11.6133 16.9336 10.9336 17.6367 10.1367 17.8594C9.70312 18 9.52734 18.2344 9.52734 18.6211Z" fill="black" fill-opacity="0.85"/>
</svg>
