<svg width="28" height="28" viewBox="0 0 28 28" fill="none" xmlns="http://www.w3.org/2000/svg">
<g clip-path="url(#clip0_2124_89156)">
<path d="M13.9531 25.9062C20.4922 25.9062 25.9062 20.4805 25.9062 13.9531C25.9062 7.41406 20.4805 2 13.9414 2C7.41406 2 2 7.41406 2 13.9531C2 20.4805 7.42578 25.9062 13.9531 25.9062Z" fill="black" fill-opacity="0.85"/>
<path d="M7.37891 19.1797V10.707C7.37891 10.2852 7.54297 9.98047 7.91797 9.76953L10.9062 8.05859C11.0352 8 11.1641 7.92969 11.2695 7.87109V18.3125L8.62109 19.7422C8.42188 19.8477 8.25781 19.918 8.09375 19.918C7.63672 19.918 7.37891 19.6484 7.37891 19.1797ZM12.125 18.1953V7.76562C12.2656 7.78906 12.3711 7.83594 12.4883 7.90625L15.5938 9.80469V20.0938C15.5117 20.0703 15.4062 20.0352 15.3008 19.9883L12.125 18.1953ZM16.4609 20.082V9.6875L19.2383 8.15234C19.4375 8.03516 19.6016 7.98828 19.7656 7.98828C20.2109 7.98828 20.4805 8.23438 20.4805 8.71484V17.1992C20.4805 17.6094 20.3047 17.9141 19.9297 18.1367L16.6484 20C16.5781 20.0352 16.5195 20.0586 16.4609 20.082Z" fill="white"/>
</g>
<defs>
<clipPath id="clip0_2124_89156">
<rect width="23.9062" height="23.918" fill="white" transform="translate(2 2)"/>
</clipPath>
</defs>
</svg>
