<svg width="28" height="28" viewBox="0 0 28 28" fill="none" xmlns="http://www.w3.org/2000/svg">
<path d="M13.9531 25.918C20.4922 25.918 25.9062 20.5039 25.9062 13.9648C25.9062 7.4375 20.4805 2.01172 13.9414 2.01172C7.41406 2.01172 2 7.4375 2 13.9648C2 20.5039 7.42578 25.918 13.9531 25.918Z" fill="black" fill-opacity="0.85"/>
<path d="M13.9531 11.0117C12.8281 11.0117 11.7383 10.8125 11.0117 10.4844C10.5898 10.2852 10.4609 10.0274 10.4609 9.66408C10.4609 8.82033 10.9414 8.05861 11.8086 7.57814L11.832 7.40236C11.8672 7.17971 11.7734 7.01564 11.5039 6.93361L11.0352 6.78127C10.3906 6.60549 10.7187 5.58596 11.3867 5.83205L11.9141 6.04299C12.4766 6.24221 12.8164 6.62893 12.793 7.14455L12.7812 7.20314C13.1445 7.1094 13.5312 7.06252 13.9531 7.06252C14.3633 7.06252 14.75 7.1094 15.1133 7.20314V7.14455C15.0898 6.61721 15.4297 6.24221 15.9805 6.04299L16.5195 5.83205C17.1875 5.58596 17.5156 6.60549 16.8594 6.78127L16.4023 6.93361C16.1211 7.01564 16.0273 7.17971 16.0742 7.40236L16.0977 7.57814C16.9531 8.05861 17.4336 8.82033 17.4336 9.66408C17.4336 10.0274 17.3047 10.2852 16.8828 10.4844C16.1562 10.8125 15.0664 11.0117 13.9531 11.0117ZM13.9531 12.9453C13.707 12.9453 13.5195 13.1211 13.5195 13.3555V20.8438C13.5195 21.1836 13.2969 21.3359 12.8516 21.3008C11.4687 21.125 10.3438 20.4805 9.52344 19.4961L8.63281 20.2461C8.375 20.4688 8.03516 20.4922 7.83594 20.2227C7.63672 20 7.70703 19.6719 7.96484 19.4492L8.9375 18.6289C8.48047 17.7734 8.21094 16.7422 8.1875 15.6172H7.03906C6.69922 15.6172 6.5 15.4062 6.5 15.1016C6.5 14.7852 6.69922 14.5859 7.03906 14.5859L8.24609 14.5742C8.36328 13.6953 8.62109 12.793 9.00781 12.1016L7.98828 11.2344C7.73047 11.0352 7.66016 10.6953 7.84766 10.4492C8.05859 10.1914 8.38672 10.2266 8.65625 10.4375L9.65234 11.2813C10.0156 10.9766 10.2617 10.9649 10.4727 11.0703C11.457 11.5039 12.6992 11.7735 13.9531 11.7735C15.207 11.7735 16.4492 11.5039 17.4219 11.0703C17.6328 10.9766 17.8906 10.9766 18.2539 11.2813L19.25 10.4375C19.5195 10.2266 19.8359 10.1914 20.0469 10.4492C20.2461 10.6953 20.1641 11.0352 19.918 11.2344L18.8984 12.1016C19.2734 12.793 19.543 13.6953 19.6484 14.5742L20.8555 14.5859C21.207 14.5859 21.4062 14.7852 21.4062 15.1016C21.4062 15.4062 21.207 15.6172 20.8555 15.6172H19.7188C19.6953 16.7422 19.4258 17.7734 18.957 18.6289L19.9414 19.4492C20.1992 19.6719 20.2695 20 20.0703 20.2227C19.8594 20.4922 19.5312 20.4688 19.2734 20.2461L18.3711 19.4961C17.5625 20.4805 16.4258 21.125 15.0547 21.3008C14.6094 21.3359 14.375 21.1836 14.375 20.8438V13.3555C14.375 13.1211 14.1875 12.9453 13.9531 12.9453ZM10.0977 14.2227C10.0977 14.7617 10.5547 15.2305 11.1055 15.2305C11.6445 15.2305 12.0898 14.7617 12.0898 14.2227C12.0898 13.6836 11.6445 13.2266 11.1055 13.2266C10.5547 13.2266 10.0977 13.6836 10.0977 14.2227ZM10.1094 17.6094C10.1094 18.2305 10.625 18.7344 11.2461 18.7344C11.8555 18.7344 12.3945 18.2305 12.3945 17.6094C12.3945 16.9883 11.8555 16.4727 11.2461 16.4727C10.625 16.4727 10.1094 16.9883 10.1094 17.6094ZM17.8086 14.2227C17.8086 13.6836 17.3516 13.2266 16.8008 13.2266C16.2617 13.2266 15.8047 13.6836 15.8047 14.2227C15.8047 14.7617 16.2617 15.2305 16.8008 15.2305C17.3516 15.2305 17.8086 14.7617 17.8086 14.2227ZM17.7852 17.6094C17.7852 16.9883 17.2812 16.4727 16.6484 16.4727C16.0508 16.4727 15.5117 16.9883 15.5117 17.6094C15.5117 18.2305 16.0508 18.7344 16.6484 18.7344C17.2812 18.7344 17.7852 18.2305 17.7852 17.6094Z" fill="white"/>
</svg>
