<svg width="28" height="30" viewBox="0 0 28 30" fill="none" xmlns="http://www.w3.org/2000/svg">
<path d="M17.1962 23.387H14.5361L14.5126 23.9144L15.9423 21.1722C16.0829 20.9144 15.9775 20.7151 15.7197 20.7151H13.1767C12.8368 20.7151 12.7197 20.8323 12.6142 21.0784L11.0204 24.7112C10.8915 25.0042 11.0204 25.18 11.3251 25.18H13.4931L13.6454 24.4886L11.7587 29.0706C11.7001 29.2229 11.7353 29.3519 11.8407 29.3987C11.9462 29.4456 12.0751 29.4104 12.204 29.2815L17.3837 23.9729C17.6298 23.7151 17.5361 23.387 17.1962 23.387Z" fill="black" fill-opacity="0.85"/>
<path d="M6.50781 19.0394H21.0508C24.8945 19.0394 27.7539 16.1214 27.7539 12.512C27.7539 8.77368 24.707 6.04321 20.7344 6.04321C19.2695 3.14868 16.5508 1.2854 13.1641 1.2854C8.75781 1.2854 5.125 4.74243 4.73828 9.09009C2.61719 9.71118 1 11.5511 1 14.0237C1 16.8011 3.01562 19.0394 6.50781 19.0394ZM6.48438 17.1644C4.08203 17.1644 2.875 15.8167 2.875 14.0823C2.875 12.6761 3.69531 11.4103 5.6875 10.883C6.33203 10.7072 6.56641 10.4026 6.625 9.74634C6.89453 5.91431 9.76562 3.1604 13.1641 3.1604C15.8008 3.1604 17.875 4.61352 19.1406 7.20337C19.4102 7.77759 19.7617 7.97681 20.4531 7.97681C23.9219 7.97681 25.8789 10.0627 25.8789 12.5589C25.8789 15.1136 23.8398 17.1644 21.168 17.1644H6.48438Z" fill="black" fill-opacity="0.85"/>
</svg>
