<svg width="28" height="28" viewBox="0 0 28 28" fill="none" xmlns="http://www.w3.org/2000/svg">
<g clip-path="url(#clip0_2124_78054)">
<path d="M6.67969 24.5977H20.8945C23.3555 24.5977 24.5742 23.3789 24.5742 20.9648V6.65625C24.5742 4.24219 23.3555 3.02344 20.8945 3.02344H6.67969C4.23047 3.02344 3 4.23047 3 6.65625V20.9648C3 23.3906 4.23047 24.5977 6.67969 24.5977ZM6.70312 22.7109C5.53125 22.7109 4.88672 22.0898 4.88672 20.8711V6.75C4.88672 5.53125 5.53125 4.91016 6.70312 4.91016H20.8711C22.0312 4.91016 22.6875 5.53125 22.6875 6.75V20.8711C22.6875 22.0898 22.0312 22.7109 20.8711 22.7109H6.70312Z" fill="black" fill-opacity="0.85"/>
<path d="M13.7695 10.875C14.6133 10.875 15.2109 10.3125 15.2109 9.58594C15.2109 8.75391 14.625 8.17969 13.7695 8.17969C12.9844 8.17969 12.375 8.76562 12.375 9.58594C12.375 10.3125 12.9844 10.875 13.7695 10.875ZM9.23438 14.7891H18.3633C19.0195 14.7891 19.4648 14.4375 19.4648 13.8164C19.4648 13.1836 19.043 12.832 18.3633 12.832H9.23438C8.55469 12.832 8.12109 13.1836 8.12109 13.8164C8.12109 14.4375 8.57812 14.7891 9.23438 14.7891ZM13.7695 19.4297C14.6133 19.4297 15.2109 18.8555 15.2109 18.1289C15.2109 17.3086 14.625 16.7344 13.7695 16.7344C12.9844 16.7344 12.375 17.3086 12.375 18.1289C12.375 18.8555 12.9844 19.4297 13.7695 19.4297Z" fill="black" fill-opacity="0.85"/>
</g>
<defs>
<clipPath id="clip0_2124_78054">
<rect width="21.5742" height="21.5977" fill="white" transform="translate(3 3)"/>
</clipPath>
</defs>
</svg>
