<svg width="28" height="28" viewBox="0 0 28 28" fill="none" xmlns="http://www.w3.org/2000/svg">
<path d="M6.67969 24.5977H20.8945C23.3555 24.5977 24.5742 23.3789 24.5742 20.9648V6.65625C24.5742 4.24219 23.3555 3.02344 20.8945 3.02344H6.67969C4.23047 3.02344 3 4.23047 3 6.65625V20.9648C3 23.3906 4.23047 24.5977 6.67969 24.5977Z" fill="black" fill-opacity="0.85"/>
<path d="M8.13183 9.59766L11.167 6.65625C11.3193 6.49219 11.542 6.39844 11.7412 6.39844C12.1865 6.39844 12.5146 6.71484 12.5146 7.17188C12.5146 7.38281 12.4326 7.58203 12.2803 7.73438L11.0146 8.97656L10.5225 9.41016L11.085 9.39844H18.9013C19.3584 9.39844 19.6865 9.72656 19.6865 10.1836C19.6865 10.6289 19.3467 10.9805 18.9013 10.9805H11.0732L10.5107 10.9453L11.0146 11.4141L12.2803 12.6445C12.4326 12.7969 12.5146 12.9844 12.5146 13.207C12.5146 13.6523 12.1865 13.9688 11.7412 13.9688C11.542 13.9688 11.3311 13.875 11.167 13.7461L8.13183 10.7695C7.81543 10.4648 7.81543 9.91406 8.13183 9.59766ZM19.4287 18L16.4052 20.9766C16.2412 21.1289 16.0185 21.2227 15.831 21.2227C15.3974 21.2227 15.0576 20.8945 15.0576 20.4492C15.0576 20.2266 15.1513 20.0508 15.3037 19.8867L16.5693 18.6445L17.0732 18.2109L16.4873 18.2227H8.6709C8.22558 18.2227 7.89746 17.8828 7.89746 17.4258C7.89746 16.9688 8.2373 16.6406 8.6709 16.6406H16.499L17.0732 16.6758L16.5693 16.207L15.2802 14.9766C15.1396 14.8242 15.0576 14.6367 15.0576 14.4141C15.0576 13.9688 15.374 13.6523 15.831 13.6523C16.042 13.6523 16.2646 13.7461 16.4052 13.8867L19.4287 16.8633C19.7451 17.1797 19.7685 17.6719 19.4287 18Z" fill="white"/>
</svg>
