<svg width="28" height="28" viewBox="0 0 28 28" fill="none" xmlns="http://www.w3.org/2000/svg">
<path d="M7.94418 25.1367C8.49496 25.1367 8.76449 24.8438 8.85824 24.3633L11.1786 12.5508L10.0067 13.5H18.7489L17.577 12.5508L19.8973 24.3633C19.9911 24.8438 20.2606 25.1367 20.8114 25.1367C21.5965 25.1367 21.8661 24.5977 21.7371 23.9648L19.5457 12.8086C19.4051 12.0703 18.784 11.5312 18.0692 11.5312H10.6981C9.98324 11.5312 9.36215 12.0703 9.22152 12.8086L7.03012 23.9648C6.90121 24.5977 7.18246 25.1367 7.94418 25.1367ZM10.4403 12.4805H18.327L15.409 3.77344C15.2332 3.28125 14.9051 3 14.4012 3C13.8739 3 13.5106 3.28125 13.3465 3.77344L10.4403 12.4805Z" fill="black" fill-opacity="0.85"/>
</svg>
