<svg width="28" height="28" viewBox="0 0 28 28" fill="none" xmlns="http://www.w3.org/2000/svg">
<g clip-path="url(#clip0_2124_24608)">
<path d="M6 18.5039C6 20.2383 7.05469 21.3398 8.68359 21.3398H19.6758C21.3047 21.3398 22.3594 20.2383 22.3594 18.5039V8.83594C22.3594 7.10156 21.2695 6 19.6758 6H8.68359C7.05469 6 6 7.10156 6 8.83594V18.5039ZM7.88672 18.2695V9.07031C7.88672 8.33203 8.30859 7.88672 9 7.88672H19.3594C20.0391 7.88672 20.4727 8.33203 20.4727 9.07031V18.2695C20.4727 19.0078 20.0391 19.4531 19.3594 19.4531H9C8.30859 19.4531 7.88672 19.0078 7.88672 18.2695ZM14.1797 18.2109C16.6875 18.2109 18.7266 16.1719 18.7266 13.6641C18.7266 11.1562 16.6875 9.11719 14.1797 9.11719C11.6719 9.11719 9.63281 11.1562 9.63281 13.6641C9.63281 16.1719 11.6719 18.2109 14.1797 18.2109ZM14.1797 16.7109C12.4805 16.7109 11.1328 15.3633 11.1328 13.6641C11.1328 11.9648 12.4805 10.6172 14.1797 10.6172C15.8789 10.6172 17.2266 11.9648 17.2266 13.6641C17.2266 15.3633 15.8789 16.7109 14.1797 16.7109Z" fill="black" fill-opacity="0.85"/>
</g>
<defs>
<clipPath id="clip0_2124_24608">
<rect width="16.3594" height="15.3398" fill="white" transform="translate(6 6)"/>
</clipPath>
</defs>
</svg>
