<svg width="28" height="28" viewBox="0 0 28 28" fill="none" xmlns="http://www.w3.org/2000/svg">
<path d="M13.9531 25.9062C20.4922 25.9062 25.9062 20.4805 25.9062 13.9531C25.9062 7.41406 20.4805 2 13.9414 2C7.41406 2 2 7.41406 2 13.9531C2 20.4805 7.42578 25.9062 13.9531 25.9062ZM13.9531 23.9141C8.42188 23.9141 4.00391 19.4844 4.00391 13.9531C4.00391 8.42188 8.41016 3.99219 13.9414 3.99219C19.4727 3.99219 23.9141 8.42188 23.9141 13.9531C23.9141 19.4844 19.4844 23.9141 13.9531 23.9141Z" fill="black" fill-opacity="0.85"/>
<path d="M10.4141 18.8984C12.0898 18.8984 13.3906 17.8438 13.3906 16.0859C13.3906 14.6328 12.5117 13.918 11.5273 13.8125V13.7773C12.582 13.4961 13.1094 12.5469 13.1094 11.5625C13.1094 9.94531 11.8906 9.01953 10.3672 9.01953C9.16016 9.01953 8.10547 9.69922 7.77734 10.7422C7.70703 10.9648 7.68359 11.1758 7.68359 11.375C7.68359 11.7617 7.94141 12.0664 8.39844 12.0664C8.80859 12.0664 9.03125 11.9141 9.14844 11.5039C9.33594 10.8125 9.71094 10.3789 10.3672 10.3789C11.1406 10.3789 11.5039 10.9766 11.5039 11.75C11.5039 12.6055 11.0352 13.2266 10.1562 13.2266H9.875C9.47656 13.2266 9.23047 13.4727 9.23047 13.8594C9.23047 14.2461 9.48828 14.4688 9.875 14.4688H10.168C11.1641 14.4688 11.7148 15.0195 11.7148 16.0391C11.7148 16.8477 11.2812 17.5391 10.4141 17.5391C9.55859 17.5391 9.18359 16.9648 9.03125 16.4258C8.92578 16.0508 8.66797 15.8516 8.29297 15.8516C7.83594 15.8516 7.53125 16.1328 7.53125 16.5898C7.53125 16.8008 7.56641 17.0117 7.625 17.1992C7.96484 18.2891 9.14844 18.8984 10.4141 18.8984ZM17.5039 18.8984C19.1914 18.8984 20.4805 17.8438 20.4805 16.0859C20.4805 14.6328 19.6133 13.918 18.6172 13.8125V13.7773C19.6836 13.4961 20.1992 12.5469 20.1992 11.5625C20.1992 9.94531 18.9922 9.01953 17.457 9.01953C16.25 9.01953 15.207 9.69922 14.8672 10.7422C14.8086 10.9648 14.7734 11.1758 14.7734 11.375C14.7734 11.7617 15.0312 12.0664 15.5 12.0664C15.8984 12.0664 16.1328 11.9141 16.25 11.5039C16.4258 10.8125 16.8008 10.3789 17.457 10.3789C18.2305 10.3789 18.6055 10.9766 18.6055 11.75C18.6055 12.6055 18.125 13.2266 17.2461 13.2266H16.9648C16.5781 13.2266 16.3203 13.4727 16.3203 13.8594C16.3203 14.2461 16.5781 14.4688 16.9648 14.4688H17.2695C18.2656 14.4688 18.8047 15.0195 18.8047 16.0391C18.8047 16.8477 18.3828 17.5391 17.5039 17.5391C16.6602 17.5391 16.2734 16.9648 16.1328 16.4258C16.0156 16.0508 15.7695 15.8516 15.3945 15.8516C14.9375 15.8516 14.6211 16.1328 14.6211 16.5898C14.6211 16.8008 14.6562 17.0117 14.7148 17.1992C15.0547 18.2891 16.25 18.8984 17.5039 18.8984Z" fill="black" fill-opacity="0.85"/>
</svg>
