<svg width="28" height="30" viewBox="0 0 28 30" fill="none" xmlns="http://www.w3.org/2000/svg">
<g clip-path="url(#clip0_2124_88448)">
<path d="M7.68359 3.67969V19.957C7.68359 22.3945 8.89062 23.6367 11.3164 23.6367H22.332C24.7461 23.6367 25.9648 22.4062 25.9648 19.957V3.67969C25.9648 1.24219 24.7461 0 22.332 0H11.3164C8.89062 0 7.68359 1.23047 7.68359 3.67969ZM13.2148 3.32812V3.08203C13.2148 2.71875 13.4492 2.39062 13.9648 2.39062H19.6836C20.1875 2.39062 20.4336 2.71875 20.4336 3.08203V3.32812C20.4336 3.67969 20.1875 4.01953 19.6836 4.01953H13.9648C13.4492 4.01953 13.2148 3.67969 13.2148 3.32812Z" fill="black" fill-opacity="0.85"/>
<path d="M2 25.8047C2 28.2539 3.20703 29.4844 5.63281 29.4844H16.6484C19.0742 29.4844 20.2812 28.2422 20.2812 25.8047V9.52734C20.2812 7.07812 19.0742 5.84766 16.6484 5.84766H5.63281C3.20703 5.84766 2 7.06641 2 9.52734V25.8047Z" fill="white"/>
<path d="M2 25.8047C2 28.2539 3.20703 29.4844 5.63281 29.4844H16.6484C19.0742 29.4844 20.2812 28.2422 20.2812 25.8047V9.52734C20.2812 7.07812 19.0742 5.84766 16.6484 5.84766H5.63281C3.20703 5.84766 2 7.06641 2 9.52734V25.8047ZM3.88672 25.7695V9.55078C3.88672 8.39062 4.50781 7.73438 5.71484 7.73438H16.5547C17.7617 7.73438 18.3945 8.39062 18.3945 9.55078V25.7695C18.3945 26.9414 17.7617 27.5977 16.5547 27.5977H5.71484C4.50781 27.5977 3.88672 26.9414 3.88672 25.7695Z" fill="black" fill-opacity="0.85"/>
<path d="M11.1289 22.7344C11.5625 22.7344 11.8789 22.4297 11.8789 22.0078V16.9336L11.7969 14.8242L12.8398 16.0547L13.9648 17.2031C14.1055 17.3438 14.2812 17.4258 14.4922 17.4258C14.8906 17.4258 15.2188 17.1211 15.2188 16.7109C15.2188 16.5117 15.1367 16.3359 15.0078 16.207L11.7148 12.9258C11.5273 12.7383 11.3633 12.6328 11.1289 12.6328C10.9297 12.6328 10.7656 12.7266 10.5664 12.9258L7.26172 16.207C7.13281 16.3359 7.0625 16.5117 7.0625 16.7109C7.0625 17.1211 7.37891 17.4258 7.77734 17.4258C7.98828 17.4258 8.16406 17.332 8.30469 17.2031L9.44141 16.0547L10.4727 14.8359L10.3906 16.9336V22.0078C10.3906 22.4297 10.6953 22.7344 11.1289 22.7344Z" fill="black" fill-opacity="0.85"/>
</g>
<defs>
<clipPath id="clip0_2124_88448">
<rect width="23.9648" height="29.5195" fill="white" transform="translate(2)"/>
</clipPath>
</defs>
</svg>
