<svg width="28" height="28" viewBox="0 0 28 28" fill="none" xmlns="http://www.w3.org/2000/svg">
<path d="M9.23438 24.0352H18.3984C25.1953 24.0352 27.6328 21.5156 27.6328 15.2461V11.8008C27.6328 5.53125 25.1953 3 18.3984 3H9.23438C2.4375 3 0 5.53125 0 11.8008V15.2461C0 21.5156 2.4375 24.0352 9.23438 24.0352Z" fill="black" fill-opacity="0.85"/>
<path d="M8.19141 18.5273C7.61719 18.5273 7.30078 18.1875 7.30078 17.6133V9.55078C7.30078 8.95312 7.66406 8.61328 8.17969 8.61328H10.4531C12.2344 8.61328 13.2656 10.0664 13.2656 11.9062C13.2656 13.7695 12.1992 15.1758 10.3594 15.1758H9.08203V17.6133C9.08203 18.1758 8.77734 18.5273 8.19141 18.5273ZM9.08203 13.7695H9.99609C11.0625 13.7695 11.5078 12.9844 11.5078 11.9062C11.5078 10.7695 11.0156 10.043 10.0078 10.043H9.08203V13.7695ZM17.4844 18.6211C16.1836 18.6211 14.9531 18 14.6133 16.875C14.5547 16.6758 14.5078 16.4648 14.5078 16.2422C14.5078 15.7734 14.8242 15.4805 15.3047 15.4805C15.6914 15.4805 15.9609 15.6797 16.0664 16.0781C16.2305 16.6289 16.6055 17.2148 17.4844 17.2148C18.3867 17.2148 18.832 16.5 18.832 15.668C18.832 14.625 18.2578 14.0625 17.2383 14.0625H16.9336C16.5352 14.0625 16.2656 13.8281 16.2656 13.4297C16.2656 13.0312 16.5234 12.7734 16.9336 12.7734H17.2266C18.1289 12.7734 18.6094 12.1289 18.6094 11.25C18.6094 10.4531 18.2344 9.84375 17.4375 9.84375C16.7695 9.84375 16.3828 10.2891 16.1836 11.0039C16.0664 11.4258 15.8203 11.5781 15.4102 11.5781C14.9414 11.5781 14.6719 11.2617 14.6719 10.8633C14.6719 10.6523 14.6953 10.4414 14.7539 10.207C15.1055 9.14062 16.1836 8.4375 17.4375 8.4375C19.0195 8.4375 20.2617 9.38672 20.2617 11.0625C20.2617 12.0703 19.7344 13.0547 18.6445 13.3477V13.3828C19.6523 13.4883 20.5547 14.2266 20.5547 15.7266C20.5547 17.5312 19.2188 18.6211 17.4844 18.6211Z" fill="white"/>
</svg>
