<svg width="29" height="28" viewBox="0 0 29 28" fill="none" xmlns="http://www.w3.org/2000/svg">
<g clip-path="url(#clip0_2124_50196)">
<path d="M5.90625 25.1367H21.1641C25.1133 25.1367 28.1719 22.1484 28.1719 18.3281C28.1719 14.4727 25.0547 11.5664 20.7891 11.5664C19.2305 8.47266 16.3711 6.58594 12.9023 6.58594C8.35547 6.58594 4.5 10.1133 4.08984 14.7891C1.74609 15.457 0.164062 17.4258 0.164062 19.9102C0.164062 22.8047 2.26172 25.1367 5.90625 25.1367ZM5.88281 23.25C3.48047 23.25 2.05078 21.9492 2.05078 19.9688C2.05078 18.2812 3.12891 17.0742 5.02734 16.5703C5.68359 16.4062 5.92969 16.1016 5.97656 15.4219C6.25781 11.4492 9.23438 8.47266 12.9023 8.47266C15.7148 8.47266 17.9062 10.043 19.2188 12.7383C19.4883 13.3125 19.8281 13.5117 20.543 13.5117C24.2109 13.5117 26.2852 15.7266 26.2852 18.375C26.2852 21.1055 24.0938 23.25 21.293 23.25H5.88281ZM1.64062 13.6641C2.54297 13.6641 3.26953 12.9375 3.26953 12.0234C3.26953 11.1211 2.54297 10.3945 1.64062 10.3945C0.726562 10.3945 0 11.1211 0 12.0234C0 12.9375 0.726562 13.6641 1.64062 13.6641ZM18.8203 6.08203C19.6641 6.08203 20.3555 5.39062 20.3555 4.54688C20.3555 3.70312 19.6641 3 18.8203 3C17.9766 3 17.2852 3.70312 17.2852 4.54688C17.2852 5.39062 17.9766 6.08203 18.8203 6.08203ZM23.7539 10.1367C25.0195 10.1367 26.0391 9.11719 26.0391 7.82812C26.0391 6.55078 25.0195 5.53125 23.7539 5.53125C22.4648 5.53125 21.4336 6.55078 21.4336 7.82812C21.4336 9.11719 22.4648 10.1367 23.7539 10.1367Z" fill="black" fill-opacity="0.85"/>
<path d="M10.3125 21.0938C11.8359 21.0938 12.7734 19.9922 12.8086 18.7969C12.8203 18.3867 12.5742 18.1055 12.2109 18.1055C11.8594 18.1055 11.6719 18.3047 11.5781 18.7031C11.4492 19.3008 11.1094 19.9336 10.3125 19.9336C9.14062 19.9336 8.77734 18.6914 8.77734 17.3438C8.77734 16.0781 9.16406 14.8008 10.3008 14.8008C11.0977 14.8008 11.4141 15.4219 11.543 16.0195C11.6367 16.418 11.8242 16.6172 12.1758 16.6172C12.5391 16.6172 12.7852 16.3477 12.7734 15.9258C12.7383 14.7305 11.8008 13.6406 10.2773 13.6406C8.35547 13.6406 7.48828 15.3047 7.48828 17.3438C7.48828 19.3477 8.28516 21.0938 10.3125 21.0938ZM15.9844 21.0938C17.6836 21.0938 18.75 19.6406 18.75 17.3672C18.75 15.082 17.6836 13.6406 15.9727 13.6406C14.2617 13.6406 13.1836 15.082 13.1836 17.3672C13.1836 19.6406 14.2617 21.0938 15.9844 21.0938ZM15.9844 19.9336C15.0469 19.9336 14.4727 18.9844 14.4727 17.3672C14.4727 15.75 15.0469 14.8008 15.9727 14.8008C16.8984 14.8008 17.4727 15.75 17.4727 17.3672C17.4727 18.9844 16.8984 19.9336 15.9844 19.9336ZM19.5352 21.5625H21.4336C21.668 21.5625 21.8555 21.3516 21.8555 21.1172C21.8555 20.8945 21.6562 20.6953 21.4336 20.6953H20.5312L20.9062 20.2969C21.375 19.8398 21.7031 19.4062 21.7031 18.9375C21.7031 18.2812 21.1641 17.8008 20.4141 17.8008C19.6172 17.8008 19.125 18.3984 19.125 18.9023C19.125 19.1953 19.3359 19.3711 19.5703 19.3711C19.8516 19.3711 19.9805 19.1719 20.0508 19.0078C20.1211 18.7852 20.2383 18.668 20.4258 18.668C20.6016 18.668 20.7305 18.7969 20.7305 18.9609C20.7305 19.2305 20.4727 19.5352 20.2148 19.793L19.3125 20.7188C19.207 20.8242 19.1367 21 19.1367 21.1406C19.1367 21.375 19.3125 21.5625 19.5352 21.5625Z" fill="black" fill-opacity="0.85"/>
</g>
<defs>
<clipPath id="clip0_2124_50196">
<rect width="28.1719" height="22.1602" fill="white" transform="translate(0 3)"/>
</clipPath>
</defs>
</svg>
