<svg width="28" height="28" viewBox="0 0 28 28" fill="none" xmlns="http://www.w3.org/2000/svg">
<g clip-path="url(#clip0_2124_24766)">
<path d="M13.5273 15.3828C12.9414 15.3945 12.4492 14.8906 12.4492 14.3164C12.4492 13.7305 12.9414 13.2383 13.5273 13.2383C14.1133 13.2383 14.6055 13.7305 14.6055 14.3164C14.6055 14.8672 14.1133 15.3711 13.5273 15.3828ZM9.90625 25.2734H17.1484C21.1328 25.2734 23.0547 23.3516 23.0547 19.3672V9.80469H18.0977C17.8867 10.2734 17.3945 10.6016 16.7734 10.6016H10.2812C9.68359 10.6016 9.17969 10.2734 8.96875 9.80469H4V19.3672C4 23.3516 5.92188 25.2734 9.90625 25.2734ZM4 8.62109H8.96875C9.17969 8.14062 9.68359 7.8125 10.2812 7.8125H16.7734C17.3945 7.8125 17.8867 8.14062 18.0977 8.62109H23.0547V7.90625C23.0547 3.92188 21.1328 2 17.1484 2H9.90625C5.92188 2 4 3.92188 4 7.90625V8.62109Z" fill="black" fill-opacity="0.85"/>
</g>
<defs>
<clipPath id="clip0_2124_24766">
<rect width="19.0547" height="23.2852" fill="white" transform="translate(4 2)"/>
</clipPath>
</defs>
</svg>
