<svg width="29" height="28" viewBox="0 0 29 28" fill="none" xmlns="http://www.w3.org/2000/svg">
<g clip-path="url(#clip0_2124_24597)">
<path d="M23.0391 16.8906C23.8477 16.8672 24.5273 16.1992 24.5273 15.3906C24.5273 14.5703 23.8477 13.8789 23.0391 13.8789C22.2422 13.8789 21.5508 14.5703 21.5508 15.3906C21.5508 16.1992 22.2422 16.9023 23.0391 16.8906ZM3.67969 20.8281H25.0195C27.4688 20.8281 28.6992 19.6094 28.6992 17.1953V10.6211C28.6992 8.21875 27.4688 7 25.0195 7H3.67969C1.21875 7 0 8.20703 0 10.6211V17.1953C0 19.6211 1.21875 20.8281 3.67969 20.8281ZM3.70312 18.9414C2.53125 18.9414 1.88672 18.3203 1.88672 17.1016V10.7266C1.88672 9.50781 2.53125 8.88672 3.70312 8.88672H24.9961C26.1562 8.88672 26.8125 9.50781 26.8125 10.7266V17.1016C26.8125 18.3203 26.1562 18.9414 24.9961 18.9414H3.70312Z" fill="black" fill-opacity="0.85"/>
</g>
<defs>
<clipPath id="clip0_2124_24597">
<rect width="28.6992" height="13.957" fill="white" transform="translate(0 7)"/>
</clipPath>
</defs>
</svg>
