<svg width="38" height="28" viewBox="0 0 38 28" fill="none" xmlns="http://www.w3.org/2000/svg">
<path d="M32.6719 14.75C32.6719 9.52344 29.6719 6.26562 24.3398 5.60938C20.4375 5.15234 13.6406 5.01172 9.94922 5C6.76172 5 5.13281 6.73438 5.42578 9.59375L5.77734 13.0273C5.87109 13.9414 5.39062 14.3633 4.40625 14.3633H1.38281C0.574219 14.3633 0 14.9492 0 15.7461V21.3594C0 22.6133 0.972656 23.1172 2.19141 22.8125C3.63281 22.4492 5.16797 22.2734 6.97266 22.2734H24.7734C29.7422 22.2734 32.6719 19.6367 32.6719 14.75ZM30.7852 14.75C30.7852 18.4062 28.5352 20.3867 24.8086 20.3867H11.4375C9.28125 20.3867 8.4375 19.6719 8.21484 17.7031L7.28906 9.38281C7.10156 7.70703 7.92188 6.88672 9.94922 6.88672C13.6289 6.88672 20.332 7.07422 24.1758 7.50781C28.4297 8 30.7852 10.6133 30.7852 14.75Z" fill="black" fill-opacity="0.85"/>
<path d="M34.8867 16.8594C36.3164 16.8594 37.4648 15.7109 37.4648 14.293C37.4648 12.8633 36.3164 11.7148 34.8867 11.7148H25.8633C24.4336 11.7148 23.2852 12.8633 23.2852 14.293C23.2852 15.7109 24.4336 16.8594 25.8633 16.8594H34.8867Z" fill="white"/>
<path d="M36.4688 11.5977V10.0508C36.4688 9.5 36.0234 9.04297 35.4727 9.04297C34.9219 9.04297 34.4766 9.5 34.4766 10.0508V11.5977C34.4766 12.6758 33.7852 13.3086 32.6133 13.3086H26.3906V12.0312C26.3906 11.2344 25.8281 10.9297 25.1484 11.4102L21.9023 13.6367C21.3633 14 21.3633 14.6445 21.9023 15.0078L25.1719 17.2344C25.8281 17.6914 26.3906 17.4102 26.3906 16.6133V15.2656H32.6133C35.0391 15.2656 36.4688 13.8945 36.4688 11.5977Z" fill="black" fill-opacity="0.85"/>
</svg>
