<svg width="28" height="28" viewBox="0 0 28 28" fill="none" xmlns="http://www.w3.org/2000/svg">
<path d="M6.67969 24.5977H20.8945C23.3555 24.5977 24.5742 23.3789 24.5742 20.9648V6.65625C24.5742 4.24219 23.3555 3.02344 20.8945 3.02344H6.67969C4.23047 3.02344 3 4.23047 3 6.65625V20.9648C3 23.3906 4.23047 24.5977 6.67969 24.5977Z" fill="black" fill-opacity="0.85"/>
<path d="M10.5469 18.8086C10.0547 18.8086 9.65625 18.4102 9.65625 17.918V10.5938L8.54297 11.4844C8.42578 11.5781 8.29688 11.6367 8.12109 11.6367C7.75781 11.6367 7.5 11.3672 7.5 10.9922C7.5 10.6758 7.65234 10.4414 7.875 10.2773L9.19922 9.24609C9.49219 9.03516 9.90234 8.75391 10.4062 8.75391C11.0391 8.75391 11.4258 9.11719 11.4258 9.73828V17.918C11.4258 18.4102 11.0273 18.8086 10.5469 18.8086ZM16.3125 18.8906C15.0117 18.8906 13.7812 18.2695 13.4297 17.1445C13.3711 16.9453 13.3359 16.7344 13.3359 16.5117C13.3359 16.043 13.6523 15.75 14.1328 15.75C14.5195 15.75 14.7773 15.9492 14.8945 16.3477C15.0469 16.8984 15.4453 17.4844 16.3125 17.4844C17.2148 17.4844 17.6484 16.7695 17.6484 15.9375C17.6484 14.8945 17.0859 14.332 16.0547 14.332H15.7617C15.3516 14.332 15.0938 14.0977 15.0938 13.6992C15.0938 13.3008 15.3398 13.043 15.7617 13.043H16.043C16.9453 13.043 17.4375 12.3984 17.4375 11.5195C17.4375 10.7227 17.0625 10.1133 16.2656 10.1133C15.5859 10.1133 15.1992 10.5586 15.0117 11.2734C14.8945 11.6953 14.6602 11.8477 14.2383 11.8477C13.7578 11.8477 13.4883 11.5313 13.4883 11.1328C13.4883 10.9219 13.5117 10.7109 13.582 10.4766C13.9336 9.41016 15.0117 8.70703 16.2656 8.70703C17.8477 8.70703 19.0898 9.65625 19.0898 11.332C19.0898 12.3398 18.5625 13.3242 17.4609 13.6172V13.6523C18.4922 13.7578 19.3828 14.4961 19.3828 15.9961C19.3828 17.8008 18.0352 18.8906 16.3125 18.8906Z" fill="white"/>
</svg>
