<svg width="30" height="28" viewBox="0 0 30 28" fill="none" xmlns="http://www.w3.org/2000/svg">
<g clip-path="url(#clip0_2124_45824)">
<path d="M10.2246 22.457C10.2246 24.9062 11.4433 26.125 13.8574 26.125H26.3027C28.7285 26.125 29.9355 24.9062 29.9355 22.457V4.67969C29.9355 2.24219 28.7285 1 26.3027 1H13.8574C11.4433 1 10.2246 2.24219 10.2246 4.67969V22.457ZM12.1113 22.4219V4.71484C12.1113 3.54297 12.7441 2.88672 13.9628 2.88672H26.2089C27.4277 2.88672 28.0488 3.54297 28.0488 4.71484V22.4219C28.0488 23.5938 27.4277 24.2383 26.2089 24.2383H13.9628C12.7441 24.2383 12.1113 23.5938 12.1113 22.4219Z" fill="black" fill-opacity="0.85"/>
<path d="M14.4199 19.1523C15.6972 19.1523 19.0253 17.2188 19.0253 13.1055C19.0253 8.99219 15.6972 7.05859 14.4199 7.05859C13.9863 7.05859 13.6816 7.28125 13.6816 7.75V18.4609C13.6816 18.918 13.9863 19.1523 14.4199 19.1523ZM23.2675 16.1055C25.0253 16.1055 26.4902 14.7695 26.4902 13.1055C26.4902 11.4297 25.0253 10.0938 23.2675 10.0938C21.3925 10.0938 19.998 11.4297 19.9863 13.1055C19.9746 14.7695 21.3925 16.1055 23.2675 16.1055Z" fill="black" fill-opacity="0.85"/>
<path d="M0.286472 11.582C-0.299465 12.2383 0.0755349 13.1289 0.954441 13.1289H2.94663V18.2617C2.94663 18.7773 3.34507 19.1758 3.87241 19.1758C4.37632 19.1758 4.77476 18.7773 4.77476 18.2617V13.1289H6.74351C7.66929 13.1289 7.98569 12.2031 7.42319 11.582L4.51694 8.30078C4.13023 7.85547 3.57944 7.85547 3.18101 8.30078L0.286472 11.582Z" fill="black" fill-opacity="0.85"/>
</g>
<defs>
<clipPath id="clip0_2124_45824">
<rect width="29.931" height="25.1367" fill="white" transform="translate(0.00390625 1)"/>
</clipPath>
</defs>
</svg>
