<svg width="28" height="28" viewBox="0 0 28 28" fill="none" xmlns="http://www.w3.org/2000/svg">
<g clip-path="url(#clip0_2124_88513)">
<path d="M13.9531 25.918C20.4922 25.918 25.9062 20.5039 25.9062 13.9648C25.9062 7.4375 20.4805 2.01172 13.9414 2.01172C7.41406 2.01172 2 7.4375 2 13.9648C2 20.5039 7.42578 25.918 13.9531 25.918Z" fill="black" fill-opacity="0.85"/>
<path d="M12.0548 21.3242C9.93369 21.3242 8.87901 20.2461 8.89072 18.0781C8.92588 15.6055 8.9376 13.8125 8.99619 12.4766C9.13682 9.35938 9.85166 7.97656 11.9493 7.54297C12.0782 6.58203 12.8634 5.90234 13.9415 5.90234C15.0196 5.90234 15.8048 6.58203 15.9337 7.54297C18.0313 7.97656 18.7462 9.35938 18.8868 12.4766C18.9454 13.8125 18.9571 15.6055 18.9923 18.0781C19.004 20.2461 17.9493 21.3242 15.8282 21.3242H12.0548ZM12.9337 7.40234C13.2501 7.37891 13.5782 7.36719 13.9415 7.36719C14.3048 7.36719 14.6329 7.37891 14.9493 7.40234C14.7735 7.05078 14.4103 6.81641 13.9415 6.81641C13.4728 6.81641 13.1095 7.05078 12.9337 7.40234ZM11.0235 15.6406H16.8595V14.8555C16.8595 14.3398 16.5313 14 15.9923 14H11.9024C11.3634 14 11.0235 14.3398 11.0235 14.8555V15.6406ZM11.9024 18.8867H15.9923C16.5313 18.8867 16.8595 18.5469 16.8595 18.0195V16.4023H11.0235V18.0195C11.0235 18.5469 11.3634 18.8867 11.9024 18.8867Z" fill="white"/>
</g>
<defs>
<clipPath id="clip0_2124_88513">
<rect width="23.9062" height="23.918" fill="white" transform="translate(2 2)"/>
</clipPath>
</defs>
</svg>
