<svg width="28" height="28" viewBox="0 0 28 28" fill="none" xmlns="http://www.w3.org/2000/svg">
<path d="M6.67969 24.5742H20.8945C23.3555 24.5742 24.5742 23.3555 24.5742 20.9414V6.63281C24.5742 4.21875 23.3555 3 20.8945 3H6.67969C4.23047 3 3 4.20703 3 6.63281V20.9414C3 23.3672 4.23047 24.5742 6.67969 24.5742ZM6.70312 22.6875C5.53125 22.6875 4.88672 22.0664 4.88672 20.8477V6.72656C4.88672 5.51953 5.53125 4.88672 6.70312 4.88672H20.8711C22.0312 4.88672 22.6875 5.51953 22.6875 6.72656V20.8477C22.6875 22.0664 22.0312 22.6875 20.8711 22.6875H6.70312Z" fill="black" fill-opacity="0.85"/>
<path d="M14.8945 7.74609C12.082 7.74609 10.3711 9.77344 10.3711 12.5156V16.0078L10.4062 17.4023L9.67969 16.4766L8.50781 15.2578C8.36719 15.1055 8.14453 15 7.89844 15C7.41797 15 7.04297 15.3633 7.04297 15.8438C7.04297 16.0898 7.125 16.2773 7.30078 16.4414L10.4648 19.5586C10.6641 19.7461 10.9102 19.8633 11.1797 19.8633C11.4609 19.8633 11.6953 19.7461 11.8945 19.5586L15.082 16.4297C15.2461 16.2656 15.3281 16.0781 15.3281 15.832C15.3281 15.3633 14.9648 15 14.4727 15C14.25 15 14.0273 15.082 13.875 15.2461L12.4687 16.7227L11.9531 17.4023L12.0117 16.0078V12.5156C12.0117 10.793 12.9961 9.46875 14.8008 9.46875C16.6523 9.46875 17.7891 10.7578 17.7891 12.5273C17.7891 12.668 17.7891 14.1094 17.7891 14.1562C17.7891 14.6484 18.082 15.0469 18.6328 15.0469C19.1719 15.0469 19.4648 14.6484 19.4648 14.1328C19.4648 14.0742 19.4648 12.668 19.4648 12.5273C19.4648 9.78516 17.707 7.74609 14.8945 7.74609Z" fill="black" fill-opacity="0.85"/>
</svg>
