<svg width="28" height="28" viewBox="0 0 28 28" fill="none" xmlns="http://www.w3.org/2000/svg">
<path d="M1.19649 21.8281C2.22774 25.6484 3.29414 26.8086 5.70821 26.8086H19.384C21.1184 26.8086 22.2785 25.8711 22.7121 24.1133L27.1184 6.23047C27.8332 3.3125 26.3801 2 24.6926 2C22.4543 2 20.0168 4.39062 21.3879 8.25781L21.7277 6.81641C18.2004 8.66797 16.5949 12.957 17.2395 18.1953L17.6613 17.6094C15.2473 17.1055 12.0949 16.8008 9.05977 16.8008C2.79024 16.8008 0.235549 18.3242 1.19649 21.8281Z" fill="black" fill-opacity="0.85"/>
<path d="M7.66504 13.2148C8.22754 13.2148 8.54394 12.8633 8.54394 12.2539V3.98047C8.54394 3.34766 8.21582 3.00781 7.62988 3.00781C7.20801 3.00781 6.93847 3.11328 6.48144 3.44141L4.47754 4.78906C4.23144 4.96484 4.14941 5.12891 4.14941 5.38672C4.14941 5.72656 4.43066 6.01953 4.74707 6.01953C4.91113 6.01953 5.04004 5.99609 5.29785 5.80859L6.71582 4.88281H6.83301V12.2539C6.83301 12.8516 7.14941 13.2148 7.66504 13.2148Z" fill="black" fill-opacity="0.85"/>
</svg>
