<svg width="28" height="28" viewBox="0 0 28 28" fill="none" xmlns="http://www.w3.org/2000/svg">
<g clip-path="url(#clip0_2124_88439)">
<path d="M7.63281 26.125H20.0781C22.5039 26.125 23.7109 24.8945 23.7109 22.457V11.8164C23.7109 10.3047 23.5352 9.64844 22.5977 8.6875L16.1406 2.11328C15.25 1.19922 14.5117 1 13.1992 1H7.63281C5.21875 1 4 2.24219 4 4.67969V22.457C4 24.9062 5.20703 26.125 7.63281 26.125ZM7.71484 24.2383C6.50781 24.2383 5.88672 23.5938 5.88672 22.4219V4.71484C5.88672 3.55469 6.50781 2.88672 7.72656 2.88672H12.9414V9.69531C12.9414 11.1719 13.6797 11.8984 15.1445 11.8984H21.8242V22.4219C21.8242 23.5938 21.2031 24.2383 19.9844 24.2383H7.71484ZM15.3555 10.1289C14.8867 10.1289 14.7109 9.94141 14.7109 9.47266V3.25L21.4609 10.1289H15.3555Z" fill="black" fill-opacity="0.85"/>
<path d="M14.7461 14.1133C14.7461 13.6328 14.3359 13.2461 13.8555 13.2461C13.375 13.2461 12.9648 13.6328 12.9648 14.1133V18.3672L13.0352 20.2773L12.0391 19.2461L10.9844 18.168C10.8203 17.9922 10.5742 17.8984 10.3516 17.8984C9.87109 17.8984 9.53125 18.2383 9.53125 18.707C9.53125 18.9766 9.63672 19.1758 9.82422 19.3398L13.1992 22.4453C13.4453 22.668 13.6328 22.75 13.8555 22.75C14.0781 22.75 14.2656 22.668 14.5117 22.4453L17.8867 19.3398C18.0742 19.1758 18.1797 18.9766 18.1797 18.707C18.1797 18.2383 17.8281 17.8984 17.3594 17.8984C17.125 17.8984 16.8906 17.9922 16.7266 18.168L15.6719 19.2461L14.6758 20.2773L14.7461 18.3672V14.1133Z" fill="black" fill-opacity="0.85"/>
</g>
<defs>
<clipPath id="clip0_2124_88439">
<rect width="19.7109" height="25.1367" fill="white" transform="translate(4 1)"/>
</clipPath>
</defs>
</svg>
