<svg width="28" height="28" viewBox="0 0 28 28" fill="none" xmlns="http://www.w3.org/2000/svg">
<path d="M13.9531 25.9062C20.4922 25.9062 25.9062 20.4805 25.9062 13.9531C25.9062 7.41406 20.4805 2 13.9414 2C7.41406 2 2 7.41406 2 13.9531C2 20.4805 7.42578 25.9062 13.9531 25.9062ZM13.9531 23.9141C8.42188 23.9141 4.00391 19.4844 4.00391 13.9531C4.00391 8.42188 8.41016 3.99219 13.9414 3.99219C19.4727 3.99219 23.9141 8.42188 23.9141 13.9531C23.9141 19.4844 19.4844 23.9141 13.9531 23.9141Z" fill="black" fill-opacity="0.85"/>
<path d="M9.71094 20.6328H10.3086C10.918 20.6328 11.2695 20.3281 11.2695 19.7891C11.2695 19.4141 10.9531 19.0742 10.3672 18.9805V17.6094C10.3672 17.0469 10.4961 16.707 10.8359 16.1445C11.8438 16.5312 12.5 16.6484 13.2852 16.6484C14.2109 16.6484 15.2188 16.4961 15.7578 16.3438C15.8984 16.8125 16.0273 17.3398 16.0273 17.8906C16.0273 18.5469 15.9453 19.2148 15.9453 19.7539C15.9453 20.3281 16.2734 20.6328 16.8711 20.6328H17.5273C18.125 20.6328 18.4883 20.3047 18.4883 19.7891C18.4883 19.3555 18.2539 19.0742 17.7617 18.9922V18.3945C17.7617 15.2891 19.9766 16.168 20.0352 12.3359C21.0664 12.2656 21.8047 11.5977 21.8047 11.1055C21.8047 10.3789 21.0547 9.62891 20.1641 9.00781C19.9883 8.36328 19.6367 7.87109 19.3789 7.87109C19.1328 7.87109 18.7109 8.33984 18.5117 9.04297C18.043 9.47656 17.668 10.0391 17.3867 10.5547L17.1641 10.9297C16.9648 11.3047 16.8008 11.5273 16.5547 11.5273C14.3047 11.5273 13.4727 11.2227 11.3867 11.2227C10.3906 11.2227 9.76953 11.5625 9.38281 11.9961C9.17188 12.2539 9.03125 12.3125 8.66797 12.1719C7.98828 11.9141 7.50781 11.2461 7.50781 10.3789C7.50781 9.23047 8.42188 8.43359 9.72266 8.43359C10.2266 8.43359 10.7305 8.52734 11.3281 8.77344C11.9141 9.00781 12.1953 8.21094 11.6563 7.98828C10.9648 7.70703 10.3203 7.58984 9.72266 7.58984C7.92969 7.58984 6.67578 8.73828 6.67578 10.3789C6.67578 11.5859 7.30859 12.5469 8.30469 12.9219C8.60938 13.0508 8.73828 13.2617 8.73828 13.5781C8.71484 13.8828 8.71484 14.1523 8.71484 14.3516C8.71484 16.1914 7.89453 16.4727 8.14062 17.293L8.83203 19.8828C8.96094 20.375 9.26562 20.6328 9.71094 20.6328ZM20 10.6367C19.8477 10.6016 19.7773 10.4609 19.8125 10.3203C19.8477 10.1797 19.9883 10.0977 20.1406 10.1328C20.2812 10.1797 20.3516 10.332 20.3164 10.4727C20.2812 10.6133 20.1406 10.6836 20 10.6367Z" fill="black" fill-opacity="0.85"/>
</svg>
