<svg width="30" height="28" viewBox="0 0 30 28" fill="none" xmlns="http://www.w3.org/2000/svg">
<g clip-path="url(#clip0_2124_24531)">
<path d="M3.67969 23.5156H25.8164C28.2539 23.5156 29.4961 22.2969 29.4961 19.8828V8.62109C29.4961 6.21875 28.2539 5 25.8164 5H3.67969C1.21875 5 0 6.20703 0 8.62109V19.8828C0 22.2969 1.21875 23.5156 3.67969 23.5156ZM3.70312 21.6289C2.53125 21.6289 1.88672 20.9961 1.88672 19.7773V8.72656C1.88672 7.50781 2.53125 6.88672 3.70312 6.88672H25.7812C26.9414 6.88672 27.6094 7.50781 27.6094 8.72656V19.7773C27.6094 20.9961 26.9414 21.6289 25.7812 21.6289H3.70312ZM4.75781 11.5273H5.83594C6.16406 11.5273 6.36328 11.3281 6.36328 11.0117V9.93359C6.36328 9.60547 6.16406 9.40625 5.83594 9.40625H4.75781C4.44141 9.40625 4.24219 9.60547 4.24219 9.93359V11.0117C4.24219 11.3281 4.44141 11.5273 4.75781 11.5273ZM8.53125 11.5273H9.60938C9.92578 11.5273 10.125 11.3281 10.125 11.0117V9.93359C10.125 9.60547 9.92578 9.40625 9.60938 9.40625H8.53125C8.20312 9.40625 8.00391 9.60547 8.00391 9.93359V11.0117C8.00391 11.3281 8.20312 11.5273 8.53125 11.5273ZM12.3047 11.5273H13.3711C13.6992 11.5273 13.8984 11.3281 13.8984 11.0117V9.93359C13.8984 9.60547 13.6992 9.40625 13.3711 9.40625H12.3047C11.9766 9.40625 11.7773 9.60547 11.7773 9.93359V11.0117C11.7773 11.3281 11.9766 11.5273 12.3047 11.5273ZM16.0664 11.5273H17.1445C17.4727 11.5273 17.6719 11.3281 17.6719 11.0117V9.93359C17.6719 9.60547 17.4727 9.40625 17.1445 9.40625H16.0664C15.75 9.40625 15.5508 9.60547 15.5508 9.93359V11.0117C15.5508 11.3281 15.75 11.5273 16.0664 11.5273ZM19.8398 11.5273H20.918C21.2344 11.5273 21.4336 11.3281 21.4336 11.0117V9.93359C21.4336 9.60547 21.2344 9.40625 20.918 9.40625H19.8398C19.5117 9.40625 19.3125 9.60547 19.3125 9.93359V11.0117C19.3125 11.3281 19.5117 11.5273 19.8398 11.5273ZM23.6133 11.5273H24.6797C25.0078 11.5273 25.207 11.3281 25.207 11.0117V9.93359C25.207 9.60547 25.0078 9.40625 24.6797 9.40625H23.6133C23.2852 9.40625 23.0859 9.60547 23.0859 9.93359V11.0117C23.0859 11.3281 23.2852 11.5273 23.6133 11.5273ZM4.75781 15.3008H5.83594C6.16406 15.3008 6.36328 15.1016 6.36328 14.7734V13.707C6.36328 13.3789 6.16406 13.1797 5.83594 13.1797H4.75781C4.44141 13.1797 4.24219 13.3789 4.24219 13.707V14.7734C4.24219 15.1016 4.44141 15.3008 4.75781 15.3008ZM8.53125 15.3008H9.60938C9.92578 15.3008 10.125 15.1016 10.125 14.7734V13.707C10.125 13.3789 9.92578 13.1797 9.60938 13.1797H8.53125C8.20312 13.1797 8.00391 13.3789 8.00391 13.707V14.7734C8.00391 15.1016 8.20312 15.3008 8.53125 15.3008ZM12.3047 15.3008H13.3711C13.6992 15.3008 13.8984 15.1016 13.8984 14.7734V13.707C13.8984 13.3789 13.6992 13.1797 13.3711 13.1797H12.3047C11.9766 13.1797 11.7773 13.3789 11.7773 13.707V14.7734C11.7773 15.1016 11.9766 15.3008 12.3047 15.3008ZM16.0664 15.3008H17.1445C17.4727 15.3008 17.6719 15.1016 17.6719 14.7734V13.707C17.6719 13.3789 17.4727 13.1797 17.1445 13.1797H16.0664C15.75 13.1797 15.5508 13.3789 15.5508 13.707V14.7734C15.5508 15.1016 15.75 15.3008 16.0664 15.3008ZM19.8398 15.3008H20.918C21.2344 15.3008 21.4336 15.1016 21.4336 14.7734V13.707C21.4336 13.3789 21.2344 13.1797 20.918 13.1797H19.8398C19.5117 13.1797 19.3125 13.3789 19.3125 13.707V14.7734C19.3125 15.1016 19.5117 15.3008 19.8398 15.3008ZM23.6133 15.3008H24.6797C25.0078 15.3008 25.207 15.1016 25.207 14.7734V13.707C25.207 13.3789 25.0078 13.1797 24.6797 13.1797H23.6133C23.2852 13.1797 23.0859 13.3789 23.0859 13.707V14.7734C23.0859 15.1016 23.2852 15.3008 23.6133 15.3008ZM4.75781 19.0742H5.83594C6.16406 19.0742 6.36328 18.875 6.36328 18.5469V17.4688C6.36328 17.1523 6.16406 16.9531 5.83594 16.9531H4.75781C4.44141 16.9531 4.24219 17.1523 4.24219 17.4688V18.5469C4.24219 18.875 4.44141 19.0742 4.75781 19.0742ZM8.64844 19.0742H20.8008C21.1992 19.0742 21.4336 18.8398 21.4336 18.4297V17.5859C21.4336 17.1875 21.1992 16.9531 20.8008 16.9531H8.64844C8.23828 16.9531 8.00391 17.1875 8.00391 17.5859V18.4297C8.00391 18.8398 8.23828 19.0742 8.64844 19.0742ZM23.6133 19.0742H24.6797C25.0078 19.0742 25.207 18.875 25.207 18.5469V17.4688C25.207 17.1523 25.0078 16.9531 24.6797 16.9531H23.6133C23.2852 16.9531 23.0859 17.1523 23.0859 17.4688V18.5469C23.0859 18.875 23.2852 19.0742 23.6133 19.0742Z" fill="black" fill-opacity="0.85"/>
</g>
<defs>
<clipPath id="clip0_2124_24531">
<rect width="29.4961" height="18.5273" fill="white" transform="translate(0 5)"/>
</clipPath>
</defs>
</svg>
