<svg width="28" height="30" viewBox="0 0 28 30" fill="none" xmlns="http://www.w3.org/2000/svg">
<path d="M22.6221 28.0745C22.9737 28.262 23.3955 28.1448 23.5948 27.805L25.1182 25.1565C25.3291 24.805 25.2119 24.3948 24.8721 24.1839C24.5088 23.9729 24.1104 24.0901 23.8994 24.4534L22.3643 27.1136C22.1651 27.4534 22.2588 27.8636 22.6221 28.0745Z" fill="black" fill-opacity="0.85"/>
<path d="M20.3467 24.7933C20.6982 24.9925 21.1201 24.8753 21.3193 24.5237L22.8428 21.887C23.0537 21.5237 22.9365 21.1136 22.5967 20.9026C22.2334 20.7034 21.8349 20.8206 21.624 21.1722L20.0888 23.844C19.8896 24.1839 19.9834 24.594 20.3467 24.7933Z" fill="black" fill-opacity="0.85"/>
<path d="M17.1962 23.387H14.5361L14.5126 23.9144L15.9423 21.1722C16.0829 20.9144 15.9775 20.7151 15.7197 20.7151H13.1767C12.8368 20.7151 12.7197 20.8323 12.6142 21.0784L11.0204 24.7112C10.8915 25.0042 11.0204 25.18 11.3251 25.18H13.4931L13.6454 24.4886L11.7587 29.0706C11.7001 29.2229 11.7353 29.3519 11.8407 29.3987C11.9462 29.4456 12.0751 29.4104 12.204 29.2815L17.3837 23.9729C17.6298 23.7151 17.5361 23.387 17.1962 23.387Z" fill="black" fill-opacity="0.85"/>
<path d="M6.33247 28.0745C6.68403 28.262 7.10591 28.1448 7.30513 27.805L8.82856 25.1565C9.0395 24.805 8.92232 24.3948 8.57075 24.1839C8.21919 23.9729 7.82075 24.0901 7.60982 24.4534L6.06294 27.1136C5.87544 27.4534 5.96919 27.8636 6.33247 28.0745Z" fill="black" fill-opacity="0.85"/>
<path d="M4.05762 24.7933C4.40919 24.9925 4.83106 24.8753 5.03028 24.5237L6.55372 21.887C6.76465 21.5237 6.64747 21.1136 6.29591 20.9026C5.94434 20.7034 5.54591 20.8206 5.33497 21.1722L3.79981 23.844C3.60059 24.1839 3.69434 24.594 4.05762 24.7933Z" fill="black" fill-opacity="0.85"/>
<path d="M6.50781 19.0394H21.0508C24.8945 19.0394 27.7539 16.1214 27.7539 12.512C27.7539 8.77368 24.707 6.04321 20.7344 6.04321C19.2695 3.14868 16.5508 1.2854 13.1641 1.2854C8.75781 1.2854 5.125 4.74243 4.73828 9.09009C2.61719 9.71118 1 11.5511 1 14.0237C1 16.8011 3.01562 19.0394 6.50781 19.0394Z" fill="black" fill-opacity="0.85"/>
</svg>
