<svg width="28" height="28" viewBox="0 0 28 28" fill="none" xmlns="http://www.w3.org/2000/svg">
<path d="M13.9531 25.9062C20.4922 25.9062 25.9062 20.4805 25.9062 13.9531C25.9062 7.41406 20.4805 2 13.9414 2C7.41406 2 2 7.41406 2 13.9531C2 20.4805 7.42578 25.9062 13.9531 25.9062Z" fill="black" fill-opacity="0.85"/>
<path d="M8.30469 18.8398C7.75391 18.8398 7.49609 18.5469 7.49609 18.1367C7.49609 17.75 7.71875 17.457 7.94141 17.1641L10.0391 14.4805C10.6836 13.6719 11.3633 12.6875 11.3633 11.7148C11.3633 10.8594 10.9531 10.2266 10.2148 10.2266C9.52344 10.2266 9.23047 10.7305 9.00781 11.5391C8.87891 11.9375 8.63281 12.125 8.23438 12.125C7.76562 12.125 7.50781 11.8086 7.50781 11.3516C7.50781 10.0977 8.67969 8.82031 10.2266 8.82031C11.8906 8.82031 13.0156 10.0039 13.0156 11.6328C13.0156 12.6992 12.6055 13.5898 11.3984 15.0898L9.64062 17.3164V17.4102H12.5C12.9219 17.4102 13.1914 17.668 13.1914 18.1367C13.1914 18.5586 12.9336 18.8398 12.5 18.8398H8.30469ZM17.4336 19.0508C16.1445 19.0508 14.9023 18.4297 14.5508 17.3047C14.4922 17.1055 14.457 16.8945 14.457 16.6719C14.457 16.2031 14.7852 15.9102 15.2656 15.9102C15.6523 15.9102 15.8984 16.1094 16.0273 16.5078C16.168 17.0586 16.5664 17.6445 17.4453 17.6445C18.3359 17.6445 18.7812 16.9414 18.7812 16.1094C18.7812 15.0547 18.2188 14.4922 17.1875 14.4922H16.8945C16.4844 14.4922 16.2148 14.2578 16.2148 13.8594C16.2148 13.4609 16.4844 13.2031 16.8945 13.2031H17.1641C18.0781 13.2031 18.5703 12.5586 18.5703 11.6797C18.5703 10.8828 18.1953 10.2734 17.3984 10.2734C16.707 10.2734 16.3438 10.7188 16.1445 11.4336C16.0273 11.8555 15.7812 12.0078 15.3711 12.0078C14.8789 12.0078 14.6328 11.6914 14.6328 11.293C14.6328 11.0938 14.6562 10.8711 14.7148 10.6367C15.0664 9.57031 16.1445 8.86719 17.3984 8.86719C18.9688 8.86719 20.2227 9.81641 20.2227 11.4922C20.2227 12.5 19.6836 13.4844 18.582 13.7773V13.8125C19.6133 13.918 20.5039 14.6562 20.5039 16.1562C20.5039 17.9727 19.1797 19.0508 17.4336 19.0508Z" fill="white"/>
</svg>
