<svg width="41" height="28" viewBox="0 0 41 28" fill="none" xmlns="http://www.w3.org/2000/svg">
<path d="M1.44141 25.2344C2.32031 25.2344 2.89453 24.6367 2.89453 23.7461V17.125H7.67578C11.9062 17.125 14.8477 14.2188 14.8477 10.0703C14.8477 5.89844 11.918 3.02734 7.6875 3.02734H1.44141C0.574219 3.02734 0 3.61328 0 4.51562V23.7461C0 24.6484 0.574219 25.2344 1.44141 25.2344ZM2.89453 14.4531V5.67578H7.14844C10.1602 5.67578 11.8945 7.26953 11.8945 10.0703C11.8945 12.8477 10.1602 14.4531 7.14844 14.4531H2.89453ZM28.3477 27.1914C34.8867 27.1914 40.3008 21.7773 40.3008 15.2383C40.3008 8.71094 34.875 3.28516 28.3359 3.28516C21.8086 3.28516 16.3945 8.71094 16.3945 15.2383C16.3945 21.7773 21.8203 27.1914 28.3477 27.1914ZM20.1094 9.73047C21.832 7.04688 24.8672 5.27734 28.3242 5.27734C31.7812 5.27734 34.8281 7.04688 36.5625 9.71875C37.0312 10.375 36.8086 11.125 36.0117 11.125H20.6484C19.875 11.125 19.6289 10.375 20.1094 9.73047ZM28.3359 18.4258C26.8828 18.4258 25.7344 17.2773 25.7344 15.8242C25.7344 14.3828 26.8828 13.2344 28.3359 13.2344C29.7773 13.2344 30.9375 14.3828 30.9375 15.8242C30.9375 17.2773 29.7773 18.4258 28.3359 18.4258ZM18.7383 17.8633C18.5273 17.1367 18.9375 16.7969 19.5469 16.8789C22.8984 17.2656 25.5 20.207 25.3945 23.6641C25.3828 24.2617 24.9375 24.6484 24.3047 24.3438C21.5391 23.1133 19.5 20.7344 18.7383 17.8633ZM37.9336 17.8633C37.1719 20.7344 35.1445 23.1133 32.3672 24.3438C31.7461 24.6484 31.2891 24.2617 31.2773 23.6641C31.1719 20.2188 33.7617 17.2656 37.125 16.8789C37.7344 16.7969 38.1445 17.1367 37.9336 17.8633Z" fill="black" fill-opacity="0.85"/>
</svg>
