<svg width="32" height="28" viewBox="0 0 32 28" fill="none" xmlns="http://www.w3.org/2000/svg">
<g clip-path="url(#clip0_2124_24732)">
<path d="M0 19.5703C0 19.8281 0.128906 20.1328 0.328125 20.332L5.49609 25.6289C5.71875 25.8633 5.98828 25.9805 6.28125 25.9805C6.5625 25.9805 6.83203 25.8633 7.05469 25.6289L12.2344 20.332C12.4336 20.1328 12.5508 19.8281 12.5508 19.5703C12.5508 18.9492 12.1289 18.5391 11.5195 18.5391C11.2148 18.5391 10.9805 18.6328 10.8047 18.8203L9.10547 20.6133L7.20703 22.793L7.32422 20.0859V8.89453L7.20703 6.1875L9.10547 8.36719L10.8047 10.1602C10.9805 10.3477 11.2148 10.4414 11.5195 10.4414C12.1289 10.4414 12.5508 10.0312 12.5508 9.41016C12.5508 9.15234 12.4336 8.84766 12.2344 8.64844L7.05469 3.35156C6.83203 3.11719 6.5625 3 6.28125 3C5.98828 3 5.71875 3.11719 5.49609 3.35156L0.328125 8.64844C0.128906 8.84766 0 9.15234 0 9.41016C0 10.0312 0.421875 10.4414 1.03125 10.4414C1.33594 10.4414 1.58203 10.3359 1.74609 10.1602L3.45703 8.36719L5.34375 6.1875L5.22656 8.89453V20.0859L5.34375 22.793L3.45703 20.6133L1.74609 18.8203C1.58203 18.6445 1.33594 18.5391 1.03125 18.5391C0.421875 18.5391 0 18.9492 0 19.5703ZM14.8359 11.3906C14.8359 11.7305 15.0938 12 15.457 12.0469C20.9766 12.668 21.7852 13.4414 22.5234 19.1367C22.582 19.4883 22.8516 19.7227 23.168 19.7227C23.4961 19.7227 23.7656 19.4883 23.8242 19.1367C24.5625 13.4414 25.3594 12.668 30.8789 12.0469C31.2539 12 31.5 11.7305 31.5 11.3906C31.5 11.0508 31.2539 10.7812 30.8789 10.7344C25.3711 10.1133 24.5625 9.32812 23.8242 3.64453C23.7656 3.30469 23.5078 3.07031 23.168 3.07031C22.8398 3.07031 22.582 3.30469 22.5234 3.64453C21.7383 9.29297 20.9883 9.99609 15.457 10.7344C15.0938 10.7812 14.8359 11.0508 14.8359 11.3906ZM13.7227 21.5977C13.7227 21.832 13.8867 22.0312 14.1445 22.0898C17.1328 22.6523 17.1914 22.6172 17.5312 25.4297C17.5781 25.6992 17.7656 25.8984 18.0234 25.8984C18.293 25.8984 18.4805 25.7109 18.5273 25.4414C18.9023 22.5 19.0312 22.5 21.8906 22.0898C22.1602 22.043 22.3359 21.8438 22.3359 21.5977C22.3359 21.3633 22.1719 21.1523 21.9023 21.1055C18.9961 20.543 18.9141 20.6133 18.5273 17.7422C18.4805 17.4844 18.2812 17.2969 18.0234 17.2969C17.7656 17.2969 17.5781 17.4961 17.5312 17.7656C17.1914 20.5781 17.1211 20.625 14.1914 21.1055C13.8984 21.1523 13.7227 21.3398 13.7227 21.5977Z" fill="black" fill-opacity="0.85"/>
</g>
<defs>
<clipPath id="clip0_2124_24732">
<rect width="31.5" height="22.9805" fill="white" transform="translate(0 3)"/>
</clipPath>
</defs>
</svg>
