<svg width="28" height="28" viewBox="0 0 28 28" fill="none" xmlns="http://www.w3.org/2000/svg">
<path d="M13.9531 25.918C20.4922 25.918 25.9062 20.5039 25.9062 13.9648C25.9062 7.4375 20.4805 2.01172 13.9414 2.01172C7.41406 2.01172 2 7.4375 2 13.9648C2 20.5039 7.42578 25.918 13.9531 25.918Z" fill="black" fill-opacity="0.85"/>
<path d="M10.0625 15.582C8.33984 15.582 7.34375 14.4688 7.34375 13.1094C7.34375 11.8906 8.14062 10.9766 9.18359 10.6719C9.38281 8.51562 11.1875 6.79297 13.3555 6.79297C15.0312 6.79297 16.3672 7.74219 17.1055 9.16016C19.0625 9.16016 20.5742 10.5078 20.5742 12.3594C20.5742 14.1406 19.1328 15.582 17.2578 15.582H10.0625ZM9.92188 19.0156C9.75781 19.2852 9.42969 19.3789 9.16016 19.2148C8.89062 19.0742 8.79688 18.7227 8.96094 18.4648L9.81641 16.9883C9.96875 16.7188 10.2969 16.6367 10.5664 16.7773C10.8359 16.9414 10.918 17.2812 10.7773 17.5391L9.92188 19.0156ZM11.6211 20.8789C11.4688 21.1367 11.1406 21.2422 10.8828 21.0898C10.6016 20.9375 10.5195 20.5977 10.6602 20.3281L12.6055 16.9883C12.7695 16.707 13.0977 16.6367 13.3438 16.7773C13.625 16.9414 13.707 17.2695 13.5664 17.5391L11.6211 20.8789ZM15.4766 19.0156C15.3242 19.2852 14.9961 19.3789 14.7383 19.2148C14.457 19.0742 14.375 18.7227 14.5273 18.4648L15.3945 16.9883C15.5352 16.7188 15.875 16.6367 16.1328 16.7773C16.4141 16.9414 16.4961 17.2812 16.332 17.5391L15.4766 19.0156ZM17.1875 20.8789C17.0352 21.1367 16.6953 21.2422 16.4492 21.0898C16.168 20.9375 16.0859 20.5977 16.2383 20.3281L18.1719 16.9883C18.3242 16.707 18.6523 16.6367 18.9219 16.7773C19.1914 16.9414 19.2852 17.2695 19.1328 17.5391L17.1875 20.8789Z" fill="white"/>
</svg>
