<svg width="28" height="28" viewBox="0 0 28 28" fill="none" xmlns="http://www.w3.org/2000/svg">
<path d="M13.9531 25.9062C20.4922 25.9062 25.9062 20.4805 25.9062 13.9531C25.9062 7.41406 20.4805 2 13.9414 2C7.41406 2 2 7.41406 2 13.9531C2 20.4805 7.42578 25.9062 13.9531 25.9062Z" fill="black" fill-opacity="0.85"/>
<path d="M10.4258 18.9688C9.93359 18.9688 9.53516 18.5703 9.53516 18.0781V10.7539L8.43359 11.6445C8.30469 11.7383 8.1875 11.7969 7.98828 11.7969C7.625 11.7969 7.36719 11.5273 7.36719 11.1523C7.36719 10.8359 7.54297 10.6016 7.76562 10.4375L9.07812 9.40625C9.37109 9.19531 9.78125 8.91406 10.2852 8.91406C10.918 8.91406 11.3047 9.27734 11.3047 9.89844V18.0781C11.3047 18.5703 10.9062 18.9688 10.4258 18.9688ZM17.6445 18.9922C17.2695 18.9922 16.8125 18.7695 16.8125 18.1367V16.9297H14.1055C13.5195 16.9297 13.1094 16.5312 13.1094 15.9453C13.1094 15.5703 13.1797 15.2539 13.3906 14.7852L15.5352 10.0977C15.8867 9.34766 16.2852 8.91406 17.1406 8.91406C17.9258 8.91406 18.4766 9.38281 18.4766 10.2266V15.5234H18.9102C19.3906 15.5234 19.6016 15.8281 19.6016 16.2148C19.6016 16.625 19.3789 16.9297 18.9102 16.9297H18.4766V18.1367C18.4766 18.7109 18.1133 18.9922 17.6445 18.9922ZM16.8477 15.5586V10.4375H16.8008L14.6094 15.4766V15.5586H16.8477Z" fill="white"/>
</svg>
