<svg width="28" height="28" viewBox="0 0 28 28" fill="none" xmlns="http://www.w3.org/2000/svg">
<path d="M5.19922 25.2656H23.3633C25.3555 25.2656 26.5625 23.8828 26.5625 22.0898C26.5625 21.5391 26.3984 20.9648 26.1055 20.4492L17.0117 4.60547C16.4023 3.53906 15.3594 3 14.2812 3C13.2031 3 12.1484 3.53906 11.5508 4.60547L2.45703 20.4492C2.14062 20.9766 2 21.5391 2 22.0898C2 23.8828 3.20703 25.2656 5.19922 25.2656ZM5.21094 23.4258C4.39062 23.4258 3.89844 22.793 3.89844 22.0781C3.89844 21.8555 3.94531 21.5742 4.07422 21.3281L13.1562 5.49609C13.4023 5.0625 13.8477 4.875 14.2812 4.875C14.7148 4.875 15.1484 5.0625 15.3945 5.49609L24.4766 21.3398C24.6055 21.5859 24.6641 21.8555 24.6641 22.0781C24.6641 22.793 24.1484 23.4258 23.3398 23.4258H5.21094Z" fill="black" fill-opacity="0.85"/>
<path d="M14.293 20.7422C16.2617 20.7422 17.5742 19.4648 17.5742 17.5547C17.5742 16.6055 17.1875 15.7617 16.8945 15.1289C16.3672 13.9922 15.5117 12.5977 14.7852 11.4609C14.6328 11.25 14.4805 11.1445 14.293 11.1445C14.0938 11.1445 13.9414 11.25 13.8008 11.4609C13.0625 12.5977 12.207 13.9922 11.6797 15.1289C11.3867 15.7617 11 16.6055 11 17.5547C11 19.4648 12.3125 20.7422 14.293 20.7422Z" fill="black" fill-opacity="0.85"/>
</svg>
