<svg width="28" height="28" viewBox="0 0 28 28" fill="none" xmlns="http://www.w3.org/2000/svg">
<path d="M13.9531 25.9062C20.4922 25.9062 25.9062 20.4805 25.9062 13.9531C25.9062 7.41406 20.4805 2 13.9414 2C7.41406 2 2 7.41406 2 13.9531C2 20.4805 7.42578 25.9062 13.9531 25.9062ZM13.9531 23.9141C8.42188 23.9141 4.00391 19.4844 4.00391 13.9531C4.00391 8.42188 8.41016 3.99219 13.9414 3.99219C19.4727 3.99219 23.9141 8.42188 23.9141 13.9531C23.9141 19.4844 19.4844 23.9141 13.9531 23.9141Z" fill="black" fill-opacity="0.85"/>
<path d="M9.24256 19.7305C10.3441 20.0586 11.5629 20.082 12.7934 19.8359L8.05896 15.1133C7.81287 16.332 7.84803 17.5625 8.17615 18.6641C8.37537 19.3203 8.57459 19.5195 9.24256 19.7305ZM17.352 17.3516C18.3481 16.3672 19.0512 15.2305 19.4848 14.0234L13.8715 8.42185C12.6762 8.84372 11.5277 9.55856 10.5433 10.5547C9.54725 11.539 8.84412 12.6875 8.41053 13.8828L14.0121 19.4844C15.2192 19.0625 16.3559 18.3477 17.352 17.3516ZM13.1332 16.4141C13.0043 16.5195 12.8402 16.5078 12.7113 16.4023L11.4808 15.1836C11.3754 15.0781 11.3754 14.9023 11.4808 14.7734C11.6098 14.668 11.7855 14.668 11.891 14.7734L12.3012 15.1836L12.7231 14.7617L12.3129 14.3633C12.1957 14.2578 12.1957 14.0586 12.3129 13.9531C12.4184 13.8242 12.6059 13.8242 12.7231 13.9414L13.1332 14.3633L13.5434 13.9297L13.1449 13.5195C13.0277 13.4141 13.016 13.2266 13.1449 13.1328C13.2504 13.0039 13.4262 13.0039 13.5316 13.1211L13.9535 13.543L14.3871 13.1094L13.9652 12.6992C13.8481 12.5938 13.8481 12.4062 13.9652 12.2891C14.0942 12.1836 14.2699 12.1836 14.3637 12.2891L14.7738 12.6992L15.2074 12.2891L14.7856 11.8789C14.6918 11.7617 14.6801 11.5742 14.7856 11.457C14.9145 11.3633 15.0785 11.3515 15.1957 11.457L16.4379 12.6875C16.5434 12.8047 16.5316 12.9922 16.4379 13.1094C16.3207 13.2148 16.1449 13.2148 16.016 13.0977L15.6059 12.6875L15.184 13.1094L15.6059 13.5312C15.7113 13.625 15.7113 13.8125 15.6059 13.9297C15.4887 14.0469 15.3129 14.0352 15.1957 13.918L14.7738 13.5078L14.352 13.9297L14.7738 14.3516C14.8793 14.457 14.891 14.6562 14.7738 14.75C14.6684 14.8789 14.4809 14.8672 14.3754 14.75L13.9535 14.3516L13.5199 14.7617L13.9418 15.1719C14.0707 15.2891 14.0707 15.4766 13.9418 15.582C13.8363 15.6992 13.6606 15.7109 13.5316 15.582L13.1332 15.1719L12.7113 15.582L13.1332 16.0156C13.227 16.1211 13.227 16.2969 13.1332 16.4141ZM19.7192 9.24216C19.5082 8.58591 19.309 8.38669 18.6527 8.17575C17.5512 7.84763 16.3324 7.82419 15.102 8.07028L19.8246 12.793C20.0824 11.5625 20.0473 10.3437 19.7192 9.24216Z" fill="black" fill-opacity="0.85"/>
</svg>
