<svg width="28" height="28" viewBox="0 0 28 28" fill="none" xmlns="http://www.w3.org/2000/svg">
<g clip-path="url(#clip0_2124_50233)">
<path d="M2.24219 7.08594H26.5469C27.2852 7.08594 27.7891 6.58203 27.7891 5.83203V3.23047C27.7891 2.50391 27.2852 2 26.5469 2H2.24219C1.50391 2 1 2.50391 1 3.23047V5.83203C1 6.58203 1.50391 7.08594 2.24219 7.08594ZM3.69531 24.5234H25.0938V8.44531H3.69531V24.5234ZM7.57422 23.6211V12.2891C7.57422 11.2695 8.20703 10.6484 9.21484 10.6484H19.5742C20.582 10.6484 21.2148 11.2695 21.2148 12.2891V23.6211H19.7383V12.7109C19.7383 12.3359 19.5156 12.1133 19.1523 12.1133H9.63672C9.27344 12.1133 9.05078 12.3359 9.05078 12.7109V23.6211H7.57422ZM14.2656 22.4258C12.4727 22.4258 11.2773 21.3945 11.2773 19.8125C11.2773 18.4414 11.9219 17.9375 11.9219 16.9766C11.9219 16.8359 11.9102 16.6367 11.9102 16.543C11.9102 16.4023 12.0039 16.3086 12.1445 16.3086C12.4844 16.3086 12.9062 16.6016 13.1172 17.0234C13.1523 16.0977 12.7305 15.4297 12.25 14.8086C11.9805 14.457 12.1914 14.1523 12.707 14.1523C14.7344 14.1523 17.6406 15.582 17.6406 19.0156C17.6406 21.0664 16.3047 22.4258 14.2656 22.4258ZM14.3828 21.3477C15.2852 21.3477 15.7188 20.6914 15.7188 19.9297C15.7188 18.9688 15.0273 18.1836 14.4062 17.9492C14.5234 18.6406 14.3945 19.168 14.1836 19.4844C14.0781 19.2266 13.9492 19.0273 13.75 18.8867C13.668 19.3672 13.1875 19.6016 13.1875 20.2695C13.1875 20.9258 13.668 21.3477 14.3828 21.3477ZM1.98438 25.5078H26.8047C27.3203 25.5078 27.7539 25.0742 27.7539 24.5586C27.7539 24.043 27.3203 23.6211 26.8047 23.6211H1.98438C1.46875 23.6211 1.03516 24.043 1.03516 24.5586C1.03516 25.0742 1.46875 25.5078 1.98438 25.5078Z" fill="black" fill-opacity="0.85"/>
</g>
<defs>
<clipPath id="clip0_2124_50233">
<rect width="26.7891" height="23.5664" fill="white" transform="translate(1 2)"/>
</clipPath>
</defs>
</svg>
