<svg width="28" height="28" viewBox="0 0 28 28" fill="none" xmlns="http://www.w3.org/2000/svg">
<path d="M3.67969 24.5742H23.9531C26.4141 24.5742 27.6328 23.3672 27.6328 20.9531V9.62109C27.6328 7.20703 26.4141 6 23.9531 6H22.3359V4.42969C22.3359 3.53906 21.8203 3 20.918 3H17.4609C16.5703 3 16.0547 3.53906 16.0547 4.42969V6H11.5898V4.42969C11.5898 3.53906 11.0742 3 10.1719 3H6.71484C5.8125 3 5.30859 3.53906 5.30859 4.42969V6H3.67969C1.23047 6 0 7.20703 0 9.62109V20.9531C0 23.3672 1.23047 24.5742 3.67969 24.5742ZM1.88672 20.8477V9.72656C1.88672 8.50781 2.53125 7.88672 3.70312 7.88672H23.9297C25.0898 7.88672 25.7461 8.50781 25.7461 9.72656V20.8477C25.7461 22.0664 25.0898 22.6875 23.9297 22.6875H3.70312C2.53125 22.6875 1.88672 22.0664 1.88672 20.8477Z" fill="black" fill-opacity="0.85"/>
<path d="M10.1016 16.043C10.1016 16.2656 10.2773 16.418 10.5 16.418H13.4062L11.8477 20.5781C11.6484 21.1289 12.2461 21.4336 12.5977 20.9766L17.2852 15.0938C17.3789 14.9883 17.4375 14.8594 17.4375 14.7539C17.4375 14.543 17.25 14.3789 17.0273 14.3789H14.1328L15.6797 10.2305C15.8789 9.66799 15.293 9.3633 14.9414 9.82033L10.2422 15.7148C10.1602 15.832 10.1016 15.9375 10.1016 16.043Z" fill="black" fill-opacity="0.85"/>
</svg>
