<svg width="28" height="28" viewBox="0 0 28 28" fill="none" xmlns="http://www.w3.org/2000/svg">
<g clip-path="url(#clip0_2124_50167)">
<path d="M8.05859 3.85938C8.51562 3.85938 8.89062 3.48438 8.89062 3.02734C8.89062 2.57031 8.51562 2.19531 8.05859 2.19531C7.60156 2.19531 7.22656 2.57031 7.22656 3.02734C7.22656 3.48438 7.60156 3.85938 8.05859 3.85938ZM14.4922 2.67578C14.9492 2.67578 15.3242 2.30078 15.3242 1.84375C15.3242 1.375 14.9492 1 14.4922 1C14.0352 1 13.6602 1.375 13.6602 1.84375C13.6602 2.30078 14.0352 2.67578 14.4922 2.67578ZM20.9258 3.85938C21.3828 3.85938 21.7578 3.48438 21.7578 3.02734C21.7578 2.57031 21.3828 2.19531 20.9258 2.19531C20.4688 2.19531 20.0938 2.57031 20.0938 3.02734C20.0938 3.48438 20.4688 3.85938 20.9258 3.85938Z" fill="black" fill-opacity="0.85"/>
<path d="M10.2148 6.60156C10.6719 6.60156 11.0469 6.22656 11.0469 5.76953C11.0469 5.3125 10.6719 4.9375 10.2148 4.9375C9.74609 4.9375 9.37109 5.3125 9.37109 5.76953C9.37109 6.22656 9.74609 6.60156 10.2148 6.60156ZM14.4922 6.16797C14.9492 6.16797 15.3242 5.79297 15.3242 5.33594C15.3242 4.87891 14.9492 4.50391 14.4922 4.50391C14.0352 4.50391 13.6602 4.87891 13.6602 5.33594C13.6602 5.79297 14.0352 6.16797 14.4922 6.16797ZM18.7812 6.60156C19.2383 6.60156 19.6133 6.22656 19.6133 5.76953C19.6133 5.3125 19.2383 4.9375 18.7812 4.9375C18.3125 4.9375 17.9492 5.3125 17.9492 5.76953C17.9492 6.22656 18.3125 6.60156 18.7812 6.60156Z" fill="black" fill-opacity="0.85"/>
<path d="M8.53906 13H20.3516C19.5898 11.8633 18.7695 10.7266 17.9023 9.56641C17.2695 8.73438 16.8594 8.26562 15.7109 8.26562H13.1797C12.043 8.26562 11.6328 8.73438 10.9883 9.56641C10.1211 10.7266 9.30078 11.8633 8.53906 13ZM5.08203 20.3125H11.9023C12.2656 19.2578 13.25 18.5195 14.457 18.5195C15.6406 18.5195 16.625 19.2578 17 20.3125H23.8086C23.5391 18.707 22.7188 16.832 21.5469 14.8516H7.35547C6.17188 16.832 5.35156 18.707 5.08203 20.3125ZM14.457 22.3633C15.1016 22.3633 15.582 21.8828 15.582 21.2266C15.582 20.582 15.1016 20.1016 14.457 20.1016C13.7891 20.1016 13.3203 20.582 13.3203 21.2266C13.3203 21.8828 13.7891 22.3633 14.457 22.3633ZM11.9023 27.9648H16.9883C21.2891 27.9648 23.6094 25.8203 23.8906 22.1641H16.9883C16.6133 23.207 15.6289 23.9453 14.457 23.9453C13.25 23.9453 12.2773 23.207 11.9141 22.1641H5C5.28125 25.8203 7.60156 27.9648 11.9023 27.9648Z" fill="black" fill-opacity="0.85"/>
</g>
<defs>
<clipPath id="clip0_2124_50167">
<rect width="18.8906" height="26.9883" fill="white" transform="translate(5 1)"/>
</clipPath>
</defs>
</svg>
