<svg width="34" height="28" viewBox="0 0 34 28" fill="none" xmlns="http://www.w3.org/2000/svg">
<path d="M1.76953 9.64449C2.30859 9.79684 2.80078 9.55074 3.02344 9.01168C3.49219 7.8398 4.10156 6.72652 4.83984 5.71871C5.17969 5.2734 5.13281 4.69918 4.69922 4.3359C4.23047 3.96089 3.60938 4.01949 3.24609 4.51168C2.37891 5.67184 1.67578 6.9609 1.14844 8.32027C0.914062 8.90621 1.20703 9.45699 1.76953 9.64449ZM1.38281 17.7539C1.93359 17.6367 2.25 17.1562 2.16797 16.582C2.05078 15.8906 2.00391 15.1523 2.00391 14.4258C2.00391 13.6758 2.05078 12.9609 2.16797 12.246C2.25 11.6835 1.93359 11.2148 1.37109 11.0859C0.808594 10.9687 0.28125 11.2968 0.1875 11.9179C0.0585938 12.75 0 13.582 0 14.4258C0 15.2812 0.0585938 16.1133 0.1875 16.9336C0.28125 17.543 0.820312 17.8828 1.38281 17.7539ZM4.69922 24.5039C5.13281 24.1289 5.17969 23.5664 4.83984 23.1094C4.10156 22.1016 3.49219 20.9883 3.02344 19.8164C2.80078 19.2773 2.30859 19.0312 1.76953 19.1953C1.20703 19.3828 0.914062 19.9219 1.14844 20.5078C1.67578 21.8672 2.37891 23.1562 3.24609 24.3164C3.60938 24.8203 4.23047 24.8789 4.69922 24.5039ZM31.6758 9.64449C32.2383 9.45699 32.5312 8.90621 32.3086 8.32027C31.7812 6.9609 31.0781 5.67184 30.1992 4.51168C29.8359 4.01949 29.2148 3.96089 28.7461 4.3359C28.3125 4.69918 28.2773 5.2734 28.6055 5.71871C29.3555 6.72652 29.9648 7.8398 30.4336 9.01168C30.6445 9.55074 31.1484 9.79684 31.6758 9.64449ZM32.0625 17.7539C32.6367 17.8828 33.1758 17.543 33.2578 16.9336C33.3867 16.1133 33.4453 15.2812 33.4453 14.4258C33.4453 13.582 33.3867 12.75 33.2578 11.9179C33.1758 11.2968 32.6484 10.9687 32.0742 11.0859C31.5117 11.2148 31.207 11.6835 31.2773 12.246C31.3945 12.9609 31.4414 13.6758 31.4414 14.4258C31.4414 15.1523 31.3945 15.8906 31.2773 16.582C31.207 17.1562 31.5117 17.6367 32.0625 17.7539ZM28.7461 24.5039C29.2148 24.8789 29.8359 24.8203 30.1992 24.3164C31.0781 23.1562 31.7812 21.8672 32.3086 20.5078C32.5312 19.9219 32.2383 19.3828 31.6758 19.1953C31.1484 19.0312 30.6445 19.2773 30.4336 19.8164C29.9648 20.9883 29.3555 22.1016 28.6055 23.1094C28.2773 23.5664 28.3125 24.1289 28.7461 24.5039Z" fill="black" fill-opacity="0.85"/>
<path d="M16.7227 25.8516C22.9688 25.8516 28.1602 20.6719 28.1602 14.4258C28.1602 8.17969 22.9688 3 16.7109 3C10.4648 3 5.29688 8.16797 5.29688 14.4258C5.29688 20.6719 10.4766 25.8516 16.7227 25.8516ZM16.7227 23.8594C11.4961 23.8594 7.30078 19.6641 7.30078 14.4258C7.30078 9.17578 11.4844 4.98047 16.7109 4.98047C21.9492 4.98047 26.1562 9.17578 26.168 14.4258C26.1797 19.6523 21.9727 23.8594 16.7227 23.8594Z" fill="black" fill-opacity="0.85"/>
</svg>
