<svg width="28" height="28" viewBox="0 0 28 28" fill="none" xmlns="http://www.w3.org/2000/svg">
<path d="M6.67969 24.5977H20.8945C23.3555 24.5977 24.5742 23.3789 24.5742 20.9648V6.65625C24.5742 4.24219 23.3555 3.02344 20.8945 3.02344H6.67969C4.23047 3.02344 3 4.23047 3 6.65625V20.9648C3 23.3906 4.23047 24.5977 6.67969 24.5977ZM6.70312 22.7109C5.53125 22.7109 4.88672 22.0898 4.88672 20.8711V6.75C4.88672 5.53125 5.53125 4.91016 6.70312 4.91016H20.8711C22.0312 4.91016 22.6875 5.53125 22.6875 6.75V20.8711C22.6875 22.0898 22.0312 22.7109 20.8711 22.7109H6.70312Z" fill="black" fill-opacity="0.85"/>
<path d="M10.0898 19.1602C10.6992 19.1602 11.0391 18.7734 11.0391 18.1172V14.25H16.5234V18.1172C16.5234 18.7617 16.875 19.1602 17.4492 19.1602C18.0586 19.1602 18.3984 18.7734 18.3984 18.1172V9.24609C18.3984 8.58984 18.0586 8.20312 17.4492 8.20312C16.875 8.20312 16.5234 8.60156 16.5234 9.24609V12.7852H11.0391V9.24609C11.0391 8.58984 10.6992 8.20312 10.0898 8.20312C9.51562 8.20312 9.17578 8.60156 9.17578 9.24609V18.1172C9.17578 18.7617 9.51562 19.1602 10.0898 19.1602Z" fill="black" fill-opacity="0.85"/>
</svg>
