<svg width="28" height="28" viewBox="0 0 28 28" fill="none" xmlns="http://www.w3.org/2000/svg">
<g clip-path="url(#clip0_2124_88853)">
<path d="M1.64062 14.6719H25.4883V12.9023H1.64062V14.6719ZM6.25781 16.2773H9.16406C9.99609 16.2773 10.4648 15.8203 10.4648 15V12.5977C10.4648 11.7773 9.99609 11.3086 9.16406 11.3086H6.25781C5.4375 11.3086 4.96875 11.7773 4.96875 12.5977V15C4.96875 15.8203 5.4375 16.2773 6.25781 16.2773ZM17.9531 16.2773H20.8594C21.6914 16.2773 22.1602 15.8203 22.1602 15V12.5977C22.1602 11.7773 21.6914 11.3086 20.8594 11.3086H17.9531C17.1211 11.3086 16.6523 11.7773 16.6523 12.5977V15C16.6523 15.8203 17.1211 16.2773 17.9531 16.2773ZM3.62109 25.7109H23.5078C25.9336 25.7109 27.1289 24.5391 27.1289 22.1367V10.7344C27.1289 8.33203 25.9336 7.16016 23.5078 7.16016H3.62109C1.20703 7.16016 0 8.33203 0 10.7344V22.1367C0 24.5391 1.20703 25.7109 3.62109 25.7109ZM3.64453 23.8359C2.49609 23.8359 1.88672 23.25 1.88672 22.043V10.8281C1.88672 9.63281 2.49609 9.03516 3.64453 9.03516H23.4844C24.6328 9.03516 25.2422 9.63281 25.2422 10.8281V22.043C25.2422 23.25 24.6328 23.8359 23.4844 23.8359H3.64453ZM7.61719 8.17969H9.43359V6.10547C9.43359 5.21484 9.96094 4.71094 10.875 4.71094H16.2539C17.168 4.71094 17.6836 5.21484 17.6836 6.10547V8.15625H19.5V6.23438C19.5 4.03125 18.3398 3 16.2188 3H10.8984C8.89453 3 7.61719 4.03125 7.61719 6.23438V8.17969Z" fill="black" fill-opacity="0.85"/>
</g>
<defs>
<clipPath id="clip0_2124_88853">
<rect width="27.1289" height="22.7227" fill="white" transform="translate(0 3)"/>
</clipPath>
</defs>
</svg>
