<svg width="28" height="28" viewBox="0 0 28 28" fill="none" xmlns="http://www.w3.org/2000/svg">
<path d="M23.2383 4.38281C22.043 3.1875 20.3555 3 18.3516 3H9.22266C7.25391 3 5.56641 3.1875 4.37109 4.38281C3.17578 5.57812 3 7.25391 3 9.22266V18.3516C3 20.3555 3.17578 22.0312 4.37109 23.2266C5.56641 24.4219 7.25391 24.6094 9.24609 24.6094H18.3516C20.3555 24.6094 22.043 24.4219 23.2383 23.2266C24.4336 22.0312 24.6094 20.3555 24.6094 18.3516V9.24609C24.6094 7.24219 24.4336 5.57812 23.2383 4.38281ZM22.7227 8.92969V18.6797C22.7227 19.8867 22.5703 21.1406 21.8555 21.8438C21.1523 22.5586 19.8867 22.7227 18.6797 22.7227H8.92969C7.72266 22.7227 6.45703 22.5586 5.74219 21.8438C5.03906 21.1406 4.88672 19.8867 4.88672 18.6797V8.96484C4.88672 7.72266 5.03906 6.46875 5.74219 5.75391C6.45703 5.05078 7.73438 4.88672 8.96484 4.88672H18.6797C19.8867 4.88672 21.1523 5.05078 21.8555 5.76562C22.5703 6.46875 22.7227 7.72266 22.7227 8.92969Z" fill="black" fill-opacity="0.85"/>
<path d="M13.8164 7.83984C13.3125 7.83984 12.9492 8.20312 12.9492 8.71875V14.5781L13.0312 17.0508L11.8594 15.6445L10.4648 14.2383C10.3125 14.0742 10.1016 13.9805 9.84375 13.9805C9.36328 13.9805 9 14.3438 9 14.8242C9 15.0703 9.07031 15.2812 9.23438 15.4336L13.1484 19.3242C13.3828 19.5586 13.5703 19.6641 13.8164 19.6641C14.0859 19.6641 14.2852 19.5469 14.5078 19.3242L18.4219 15.4336C18.5742 15.2812 18.6562 15.0703 18.6562 14.8242C18.6562 14.3438 18.2812 13.9805 17.8008 13.9805C17.543 13.9805 17.332 14.0625 17.1797 14.2383L15.7969 15.6445L14.6133 17.0625L14.6953 14.5781V8.71875C14.6953 8.20312 14.332 7.83984 13.8164 7.83984Z" fill="black" fill-opacity="0.85"/>
</svg>
