<svg width="28" height="28" viewBox="0 0 28 28" fill="none" xmlns="http://www.w3.org/2000/svg">
<path d="M13.9531 25.9062C20.4922 25.9062 25.9062 20.4805 25.9062 13.9531C25.9062 7.41406 20.4805 2 13.9414 2C7.41406 2 2 7.41406 2 13.9531C2 20.4805 7.42578 25.9062 13.9531 25.9062Z" fill="black" fill-opacity="0.85"/>
<path d="M10.1211 19.0859C7.70703 19.0859 6.98047 16.3906 6.98047 13.9531C6.98047 11.5156 7.70703 8.82031 10.1211 8.82031C12.5234 8.82031 13.25 11.5156 13.25 13.9531C13.25 16.3906 12.5234 19.0859 10.1211 19.0859ZM10.1211 17.6445C11.1055 17.6445 11.4805 16.0508 11.4805 13.9531C11.4805 11.8438 11.1055 10.2617 10.1211 10.2617C9.13672 10.2617 8.76172 11.8438 8.76172 13.9531C8.76172 16.0508 9.13672 17.6445 10.1211 17.6445ZM17.7852 19.0859C15.3828 19.0859 14.6562 16.3906 14.6562 13.9531C14.6562 11.5156 15.3828 8.82031 17.7852 8.82031C20.1992 8.82031 20.9258 11.5156 20.9258 13.9531C20.9258 16.3906 20.1992 19.0859 17.7852 19.0859ZM17.7852 17.6445C18.7695 17.6445 19.1445 16.0508 19.1445 13.9531C19.1445 11.8438 18.7695 10.2617 17.7852 10.2617C16.8008 10.2617 16.4258 11.8438 16.4258 13.9531C16.4258 16.0508 16.8008 17.6445 17.7852 17.6445Z" fill="white"/>
</svg>
