<svg width="28" height="28" viewBox="0 0 28 28" fill="none" xmlns="http://www.w3.org/2000/svg">
<g clip-path="url(#clip0_2124_24754)">
<path d="M13.9531 25.9062C20.4922 25.9062 25.9062 20.4805 25.9062 13.9531C25.9062 7.41406 20.4805 2 13.9414 2C7.41406 2 2 7.41406 2 13.9531C2 20.4805 7.42578 25.9062 13.9531 25.9062ZM13.9531 23.9141C8.42188 23.9141 4.00391 19.4844 4.00391 13.9531C4.00391 8.42188 8.41016 3.99219 13.9414 3.99219C19.4727 3.99219 23.9141 8.42188 23.9141 13.9531C23.9141 19.4844 19.4844 23.9141 13.9531 23.9141Z" fill="black" fill-opacity="0.85"/>
<path d="M7.61328 13.9297C7.61328 16.1328 8.14062 17.832 9.04297 19.3906C9.27734 19.7773 9.72266 19.8945 10.1328 19.6719C10.5078 19.4727 10.625 19.0039 10.4141 18.582C9.64062 17.1641 9.19531 15.8398 9.19531 13.9297C9.19531 10.7891 11.0938 8.71484 13.9531 8.71484C16.8242 8.71484 18.7461 10.8008 18.7461 13.9297C18.7461 15.8281 18.3008 17.1758 17.5039 18.582C17.2812 18.9922 17.4102 19.4609 17.7852 19.6719C18.1836 19.8945 18.6406 19.7773 18.875 19.3906C19.7891 17.7852 20.3281 16.0977 20.3281 13.9297C20.3281 9.86328 17.7617 7.13281 13.9531 7.13281C10.1563 7.13281 7.61328 9.85156 7.61328 13.9297ZM9.6875 19.1328C9.91016 19.9062 10.6016 20.293 11.3633 20.0469C12.1484 19.8359 12.5234 19.1562 12.2891 18.3828L11.4453 15.4883C11.2109 14.7031 10.543 14.3281 9.76953 14.5625C8.99609 14.7734 8.60938 15.4531 8.84375 16.2148L9.6875 19.1328ZM18.2188 19.1328L19.0625 16.2148C19.2969 15.4414 18.9219 14.7734 18.1367 14.5625C17.375 14.3281 16.707 14.7031 16.4727 15.4883L15.6172 18.3945C15.3945 19.1797 15.7578 19.8359 16.543 20.0469C17.3164 20.2812 17.9961 19.9062 18.2188 19.1328Z" fill="black" fill-opacity="0.85"/>
</g>
<defs>
<clipPath id="clip0_2124_24754">
<rect width="23.9062" height="23.918" fill="white" transform="translate(2 2)"/>
</clipPath>
</defs>
</svg>
