<svg width="28" height="28" viewBox="0 0 28 28" fill="none" xmlns="http://www.w3.org/2000/svg">
<path d="M6.67969 24.5977H20.8945C23.3555 24.5977 24.5742 23.3789 24.5742 20.9648V6.65625C24.5742 4.24219 23.3555 3.02344 20.8945 3.02344H6.67969C4.23047 3.02344 3 4.23047 3 6.65625V20.9648C3 23.3906 4.23047 24.5977 6.67969 24.5977ZM6.70312 22.7109C5.53125 22.7109 4.88672 22.0898 4.88672 20.8711V6.75C4.88672 5.53125 5.53125 4.91016 6.70312 4.91016H20.8711C22.0312 4.91016 22.6875 5.53125 22.6875 6.75V20.8711C22.6875 22.0898 22.0312 22.7109 20.8711 22.7109H6.70312Z" fill="black" fill-opacity="0.85"/>
<path d="M8.30859 18.5273H12.375C12.7969 18.5273 13.043 18.2578 13.043 17.8477C13.043 17.4023 12.7852 17.1562 12.375 17.1562H9.59766V17.0625L11.3086 14.8945C12.4805 13.4414 12.8672 12.5742 12.8672 11.543C12.8672 9.96094 11.7891 8.8125 10.1719 8.8125C8.67188 8.8125 7.53516 10.0547 7.53516 11.2734C7.53516 11.707 7.79297 12.0117 8.23828 12.0117C8.625 12.0117 8.85938 11.8359 8.98828 11.4492C9.19922 10.6641 9.49219 10.1719 10.1602 10.1719C10.875 10.1719 11.2617 10.793 11.2617 11.625C11.2617 12.5625 10.6172 13.5117 9.99609 14.3086L7.95703 16.9102C7.73438 17.1914 7.52344 17.4844 7.52344 17.8477C7.52344 18.2461 7.78125 18.5273 8.30859 18.5273ZM17.3086 18.7734C19.6406 18.7734 20.332 16.1484 20.332 13.793C20.332 11.4375 19.6406 8.8125 17.3086 8.8125C14.9648 8.8125 14.2734 11.4375 14.2734 13.793C14.2734 16.1484 14.9648 18.7734 17.3086 18.7734ZM17.3086 17.3789C16.3477 17.3789 15.9844 15.8203 15.9844 13.793C15.9844 11.7539 16.3477 10.1953 17.3086 10.1953C18.2695 10.1953 18.6211 11.7539 18.6211 13.793C18.6211 15.8203 18.2695 17.3789 17.3086 17.3789Z" fill="black" fill-opacity="0.85"/>
</svg>
