<svg width="28" height="28" viewBox="0 0 28 28" fill="none" xmlns="http://www.w3.org/2000/svg">
<g clip-path="url(#clip0_2124_88486)">
<path d="M6.30859 24.9127L19.6328 27.2682C22.0234 27.6901 23.4766 26.3542 23.4766 23.7526V9.25651C23.4766 6.86588 22.2461 5.9987 19.8672 5.57682L6.94141 3.30338C5.16016 2.98698 4 3.95963 4 5.70573V22.2526C4 23.7526 4.77344 24.6432 6.30859 24.9127ZM6.76562 23.0495C6.16797 22.944 5.88672 22.6042 5.88672 21.9831V6.02213C5.88672 5.40104 6.30859 5.08463 7 5.1901L19.7734 7.4401C20.957 7.65104 21.5898 8.14323 21.5898 9.23307V23.5417C21.5898 24.8776 20.8164 25.5456 19.5508 25.3112L6.76562 23.0495ZM20.5469 7.02995H22.4336V4.28776C22.4336 1.8151 20.7812 0.643223 18.0039 1.13541L5.75781 3.29166L6.46094 4.93229L18.6719 2.90495C19.8438 2.70573 20.5469 3.19791 20.5469 4.21745V7.02995ZM7.44531 10.651C7.44531 11.6354 8.98047 11.6354 8.98047 10.7096V9.13932C8.98047 8.82291 9.16797 8.68229 9.53125 8.74088L11.0781 9.02213C12.0742 9.19791 12.2734 7.69791 11.3828 7.53385L8.875 7.08854C7.98438 6.9362 7.44531 7.32291 7.44531 8.17838V10.651ZM18.4961 12.5612C18.4961 13.5456 20.0312 13.6393 20.0312 12.5612V10.6042C20.0312 9.51432 19.5039 8.96354 18.2031 8.72916L16.9844 8.51823C15.918 8.33073 15.6602 9.81901 16.7266 10.0065L17.6992 10.1823C18.3906 10.2995 18.4961 10.7213 18.4961 11.0729V12.5612ZM8.98047 18.1159C8.98047 17.1315 7.44531 17.0377 7.44531 18.1159V20.0729C7.44531 21.1627 7.97266 21.7135 9.27344 21.9479L10.4922 22.1588C11.5586 22.3463 11.8164 20.8463 10.75 20.6706L9.77734 20.4948C9.08594 20.3776 8.98047 19.9557 8.98047 19.6042V18.1159ZM20.0312 20.026C20.0312 19.0417 18.4961 19.0417 18.4961 19.9674V21.5377C18.4961 21.8542 18.3086 21.9948 17.9453 21.9362L16.3984 21.6549C15.4023 21.4792 15.2031 22.9792 16.0938 23.1432L18.6016 23.5885C19.4922 23.7409 20.0312 23.3542 20.0312 22.4987V20.026Z" fill="black" fill-opacity="0.85"/>
</g>
<defs>
<clipPath id="clip0_2124_88486">
<rect width="19.4766" height="26.345" fill="white" transform="translate(4 1)"/>
</clipPath>
</defs>
</svg>
