<svg width="28" height="28" viewBox="0 0 28 28" fill="none" xmlns="http://www.w3.org/2000/svg">
<path d="M3.88672 8.98438C6.78125 12.0664 10.8594 13.8477 15.1953 13.8359C18.6172 13.8242 21.8633 12.6875 24.5117 10.6016L23.8438 9.28906C21.4297 11.3047 18.3945 12.4062 15.1953 12.418C11.0469 12.4297 7.16797 10.625 4.54297 7.53125L3.88672 8.98438ZM2.63281 15.6758C8.72656 20.8789 17.4453 21.8516 24.4766 18.1719L24.4414 16.5664C17.6094 20.5156 8.87891 19.5312 2.98438 14.082L2.63281 15.6758ZM8.44531 23.7266L10.1211 24.1133C9.33594 22.2266 8.91406 20.2344 8.87891 18.1836C8.55078 12.3594 11.0586 6.80469 15.5352 3.13672L14.0352 2.55078C9.59375 6.48828 7.14453 12.2188 7.46094 18.207C7.48438 20.082 7.82422 21.9336 8.44531 23.7266ZM16.168 24.8867L17.4922 24.3008C15.3008 21.207 14.1055 17.5391 14.1055 13.707C14.1055 10.0742 15.1602 6.60547 17.1406 3.65234L15.7578 3.16016C13.7539 6.30078 12.6875 9.94531 12.6875 13.707C12.6875 17.75 13.9062 21.6055 16.168 24.8867ZM23.0703 20.5273L24.0195 19.4492C20.082 17.1875 17.6211 13.0508 17.5625 8.45703C17.5391 6.81641 17.832 5.1875 18.418 3.6875L17.0469 3.30078C16.4258 4.94141 16.1211 6.67578 16.1445 8.46875C16.2031 13.4492 18.8398 17.9961 23.0703 20.5273ZM8.86719 13.6953C9.86328 13.6953 10.6836 12.8633 10.6836 11.8555C10.6836 10.8477 9.86328 10.0273 8.86719 10.0273C7.84766 10.0273 7.02734 10.8477 7.02734 11.8555C7.02734 12.8633 7.84766 13.6953 8.86719 13.6953ZM17.8438 14.668C18.8281 14.668 19.6367 13.8594 19.6367 12.8516C19.6367 11.8672 18.8281 11.0586 17.8438 11.0586C16.8359 11.0586 16.0273 11.8672 16.0273 12.8516C16.0273 13.8594 16.8359 14.668 17.8438 14.668ZM14.3516 21.4414C15.3594 21.4414 16.168 20.6328 16.168 19.6133C16.168 18.6055 15.3594 17.7852 14.3516 17.7852C13.332 17.7852 12.5117 18.6055 12.5117 19.6133C12.5117 20.6328 13.332 21.4414 14.3516 21.4414ZM13.9531 25.9062C20.4922 25.9062 25.9062 20.4805 25.9062 13.9531C25.9062 7.41406 20.4805 2 13.9414 2C7.41406 2 2 7.41406 2 13.9531C2 20.4805 7.42578 25.9062 13.9531 25.9062ZM13.9531 24.3125C8.29297 24.3125 3.59375 19.6133 3.59375 13.9531C3.59375 8.29297 8.28125 3.59375 13.9414 3.59375C19.6016 3.59375 24.3125 8.29297 24.3125 13.9531C24.3125 19.6133 19.6133 24.3125 13.9531 24.3125Z" fill="black" fill-opacity="0.85"/>
</svg>
