<svg width="28" height="28" viewBox="0 0 28 28" fill="none" xmlns="http://www.w3.org/2000/svg">
<path d="M6.67969 24.5977H20.8945C23.3555 24.5977 24.5742 23.3789 24.5742 20.9648V6.65625C24.5742 4.24219 23.3555 3.02344 20.8945 3.02344H6.67969C4.23047 3.02344 3 4.23047 3 6.65625V20.9648C3 23.3906 4.23047 24.5977 6.67969 24.5977Z" fill="black" fill-opacity="0.85"/>
<path d="M10.957 18.8906C9.65625 18.8906 8.42578 18.2695 8.07422 17.1445C8.01562 16.9453 7.98047 16.7344 7.98047 16.5117C7.98047 16.043 8.29688 15.75 8.77734 15.75C9.17578 15.75 9.42188 15.9492 9.55078 16.3477C9.69141 16.8984 10.0781 17.4844 10.957 17.4844C11.8477 17.4844 12.293 16.7695 12.293 15.9375C12.293 14.8945 11.7305 14.332 10.6992 14.332H10.4062C10.0078 14.332 9.73828 14.0977 9.73828 13.6992C9.73828 13.3008 9.99609 13.043 10.4062 13.043H10.6875C11.6016 13.043 12.0937 12.3984 12.0937 11.5195C12.0937 10.7227 11.707 10.1133 10.9102 10.1133C10.2305 10.1133 9.85547 10.5586 9.65625 11.2734C9.53906 11.6953 9.30469 11.8477 8.88281 11.8477C8.40234 11.8477 8.14453 11.5313 8.14453 11.1328C8.14453 10.9219 8.16797 10.7109 8.23828 10.4766C8.57812 9.41016 9.66797 8.70703 10.9102 8.70703C12.4805 8.70703 13.7461 9.65625 13.7461 11.332C13.7461 12.3398 13.207 13.3242 12.1055 13.6172V13.6523C13.125 13.7578 14.0273 14.4961 14.0273 15.9961C14.0273 17.8008 12.6914 18.8906 10.957 18.8906ZM18.0938 18.8086C17.6016 18.8086 17.2031 18.4102 17.2031 17.918V10.5938L16.0898 11.4844C15.9727 11.5781 15.8438 11.6367 15.668 11.6367C15.293 11.6367 15.0352 11.3672 15.0352 10.9922C15.0352 10.6758 15.1992 10.4414 15.4219 10.2773L16.7461 9.24609C17.0273 9.03516 17.4375 8.75391 17.9531 8.75391C18.5859 8.75391 18.9727 9.11719 18.9727 9.73828V17.918C18.9727 18.4102 18.5742 18.8086 18.0938 18.8086Z" fill="white"/>
</svg>
