<svg width="28" height="28" viewBox="0 0 28 28" fill="none" xmlns="http://www.w3.org/2000/svg">
<path d="M25.1484 18.7461C25.1484 14.2695 22.1133 11.1758 16.7695 11.1758H8.89453L5.26172 11.3398L5.47266 11.8789L8.36719 9.40625L11.7539 6.10156C11.9297 5.91406 12.0352 5.69141 12.0352 5.38672C12.0352 4.77734 11.625 4.35547 10.9922 4.35547C10.7461 4.35547 10.4414 4.48438 10.2422 4.68359L3.35156 11.4453C3.11719 11.668 3 11.9375 3 12.2305C3 12.5117 3.11719 12.7812 3.35156 13.0039L10.2422 19.7656C10.4414 19.9766 10.7461 20.0938 10.9922 20.0938C11.625 20.0938 12.0352 19.6719 12.0352 19.0625C12.0352 18.7578 11.9297 18.5352 11.7539 18.3477L8.36719 15.0547L5.47266 12.5703L5.26172 13.1094L8.89453 13.2734H16.9453C20.9414 13.2734 23.0508 15.4766 23.0508 18.6289C23.0508 21.793 20.9414 24.1367 16.9453 24.1367H14.25C13.6055 24.1367 13.1836 24.6055 13.1836 25.1797C13.1836 25.7539 13.6055 26.2227 14.25 26.2227H16.957C22.1953 26.2227 25.1484 23.2344 25.1484 18.7461Z" fill="black" fill-opacity="0.85"/>
</svg>
