<svg width="28" height="28" viewBox="0 0 28 28" fill="none" xmlns="http://www.w3.org/2000/svg">
<g clip-path="url(#clip0_2124_49974)">
<path d="M13.9531 25.9062C20.4922 25.9062 25.9062 20.4805 25.9062 13.9531C25.9062 7.41406 20.4805 2 13.9414 2C7.41406 2 2 7.41406 2 13.9531C2 20.4805 7.42578 25.9062 13.9531 25.9062Z" fill="black" fill-opacity="0.85"/>
<path d="M9.71094 10.4375C9.71094 8.24609 11.5742 6.58203 13.9414 6.58203C16.3203 6.58203 18.1953 8.30469 18.1953 10.4961C18.1953 12.9219 16.5664 13.4492 16.332 17.6562C16.3203 17.8906 16.168 18.043 15.9219 18.043H11.9609C11.7383 18.043 11.5977 17.8906 11.5742 17.6562C11.3164 13.4492 9.71094 12.8633 9.71094 10.4375ZM12.1016 19.6602C11.832 19.6602 11.6094 19.4375 11.6094 19.168C11.6094 18.8984 11.832 18.6758 12.1016 18.6758H15.8047C16.0742 18.6758 16.3086 18.8984 16.3086 19.168C16.3086 19.4375 16.0742 19.6602 15.8047 19.6602H12.1016ZM13.9531 21.3125C13.0742 21.3125 12.418 20.9023 12.3594 20.2812H15.5469C15.4766 20.9023 14.832 21.3125 13.9531 21.3125Z" fill="white"/>
</g>
<defs>
<clipPath id="clip0_2124_49974">
<rect width="23.9062" height="23.918" fill="white" transform="translate(2 2)"/>
</clipPath>
</defs>
</svg>
