<svg width="28" height="28" viewBox="0 0 28 28" fill="none" xmlns="http://www.w3.org/2000/svg">
<g clip-path="url(#clip0_2124_24831)">
<path d="M11.0586 26.8867H17.1289C18.9922 26.8867 20.1758 25.7383 20.1758 23.9688V3.91797C20.1758 2.14844 18.9922 1 17.1289 1H11.0586C9.18359 1 8 2.14844 8 3.91797V23.9688C8 25.7383 9.18359 26.8867 11.0586 26.8867ZM11.2578 25.1758C10.3203 25.1758 9.73438 24.6133 9.73438 23.7227V4.17578C9.73438 3.27344 10.3203 2.71094 11.2578 2.71094H16.918C17.8555 2.71094 18.4414 3.27344 18.4414 4.17578V23.7227C18.4414 24.6133 17.8555 25.1758 16.918 25.1758H11.2578ZM12.1953 11.6289C12.957 11.6289 13.5664 11.0078 13.5664 10.2578C13.5664 9.50781 12.957 8.88672 12.1953 8.88672C11.4453 8.88672 10.8242 9.50781 10.8242 10.2578C10.8242 11.0078 11.4453 11.6289 12.1953 11.6289ZM16.0039 11.6289C16.7539 11.6289 17.375 11.0078 17.375 10.2578C17.375 9.50781 16.7539 8.88672 16.0039 8.88672C15.2422 8.88672 14.6328 9.50781 14.6328 10.2578C14.6328 11.0078 15.2422 11.6289 16.0039 11.6289ZM12.1953 15.3438C12.957 15.3438 13.5664 14.7227 13.5664 13.9727C13.5664 13.2109 12.957 12.6016 12.1953 12.6016C11.4453 12.6016 10.8242 13.2109 10.8242 13.9727C10.8242 14.7227 11.4453 15.3438 12.1953 15.3438ZM12.1953 19.0469C12.957 19.0469 13.5664 18.4375 13.5664 17.6758C13.5664 16.9258 12.957 16.3047 12.1953 16.3047C11.4453 16.3047 10.8242 16.9258 10.8242 17.6758C10.8242 18.4375 11.4453 19.0469 12.1953 19.0469ZM15.9922 19.0469C16.7188 19.0469 17.3164 18.4727 17.3164 17.7344V13.9023C17.3164 13.1758 16.7188 12.6016 15.9922 12.6016C15.2773 12.6016 14.7031 13.1758 14.7031 13.9023V17.7344C14.7031 18.4727 15.2773 19.0469 15.9922 19.0469Z" fill="black" fill-opacity="0.85"/>
</g>
<defs>
<clipPath id="clip0_2124_24831">
<rect width="12.1758" height="25.957" fill="white" transform="translate(8 1)"/>
</clipPath>
</defs>
</svg>
