<svg width="28" height="28" viewBox="0 0 28 28" fill="none" xmlns="http://www.w3.org/2000/svg">
<path d="M6.67969 24.5977H20.8945C23.3555 24.5977 24.5742 23.3789 24.5742 20.9648V6.65625C24.5742 4.24219 23.3555 3.02344 20.8945 3.02344H6.67969C4.23047 3.02344 3 4.23047 3 6.65625V20.9648C3 23.3906 4.23047 24.5977 6.67969 24.5977ZM6.70312 22.7109C5.53125 22.7109 4.88672 22.0898 4.88672 20.8711V6.75C4.88672 5.53125 5.53125 4.91016 6.70312 4.91016H20.8711C22.0312 4.91016 22.6875 5.53125 22.6875 6.75V20.8711C22.6875 22.0898 22.0312 22.7109 20.8711 22.7109H6.70312Z" fill="black" fill-opacity="0.85"/>
<path d="M12 18.6797C12.4336 18.6797 12.7969 18.4102 12.7969 17.8477V16.6758H13.2188C13.6641 16.6758 13.875 16.3828 13.875 15.9844C13.875 15.6094 13.6875 15.3164 13.2188 15.3164H12.7969V10.1719C12.7969 9.36328 12.2695 8.90625 11.4961 8.90625C10.6758 8.90625 10.2891 9.32812 9.96094 10.0547L7.86328 14.6016C7.66406 15.0586 7.60547 15.3633 7.60547 15.7266C7.60547 16.2891 7.99219 16.6758 8.56641 16.6758H11.1914V17.8477C11.1914 18.4688 11.625 18.6797 12 18.6797ZM11.2266 15.3516H9.04688V15.2695L11.1797 10.3828H11.2266V15.3516ZM17.6953 18.6562C18.1523 18.6562 18.5391 18.2695 18.5391 17.8008V9.85547C18.5391 9.25781 18.1641 8.90625 17.5547 8.90625C17.0625 8.90625 16.6641 9.17578 16.3945 9.38672L15.1055 10.3828C14.8945 10.5469 14.7305 10.7695 14.7305 11.0742C14.7305 11.4375 14.9766 11.6953 15.3398 11.6953C15.5156 11.6953 15.6328 11.6367 15.75 11.5547L16.8281 10.6875V17.8008C16.8281 18.2695 17.2148 18.6562 17.6953 18.6562Z" fill="black" fill-opacity="0.85"/>
</svg>
