<svg width="28" height="28" viewBox="0 0 28 28" fill="none" xmlns="http://www.w3.org/2000/svg">
<path d="M6.67969 24.5977H20.8945C23.3555 24.5977 24.5742 23.3789 24.5742 20.9648V6.65625C24.5742 4.24219 23.3555 3.02344 20.8945 3.02344H6.67969C4.23047 3.02344 3 4.23047 3 6.65625V20.9648C3 23.3906 4.23047 24.5977 6.67969 24.5977ZM6.70312 22.7109C5.53125 22.7109 4.88672 22.0898 4.88672 20.8711V6.75C4.88672 5.53125 5.53125 4.91016 6.70312 4.91016H20.8711C22.0312 4.91016 22.6875 5.53125 22.6875 6.75V20.8711C22.6875 22.0898 22.0312 22.7109 20.8711 22.7109H6.70312Z" fill="black" fill-opacity="0.85"/>
<path d="M9.72656 11.9414C9.72656 13.9102 11.2148 15.3398 13.2539 15.3398C14.0273 15.3398 14.8594 15.0586 15.2578 14.6484H15.3984C15.3047 14.8242 15.1289 15.0703 14.8828 15.3867C14.2266 16.207 13.4531 17.1445 12.7617 18C12.5625 18.2227 12.4688 18.4453 12.4688 18.668C12.4688 19.0195 12.7734 19.3594 13.2422 19.3594C13.6992 19.3594 13.875 19.0898 14.2148 18.668C14.8242 17.9062 15.7148 16.7695 16.3359 15.9375C17.4141 14.4961 17.9297 13.3008 17.9297 12.0352C17.9297 9.76172 16.2539 8.21484 13.8281 8.21484C11.4023 8.21484 9.72656 9.75 9.72656 11.9414ZM11.3789 11.8711C11.3789 10.6289 12.4336 9.70312 13.8281 9.70312C15.2109 9.70312 16.2656 10.6406 16.2656 11.8711C16.2656 13.125 15.2227 14.0273 13.8398 14.0273C12.4336 14.0273 11.3789 13.1133 11.3789 11.8711Z" fill="black" fill-opacity="0.85"/>
</svg>
