<svg width="49" height="28" viewBox="0 0 49 28" fill="none" xmlns="http://www.w3.org/2000/svg">
<g clip-path="url(#clip0_2124_24773)">
<path d="M4.52344 22.2344C4.89844 21.8125 4.78125 21.2617 4.35938 20.7812C2.78906 19.0352 1.91016 16.7383 1.91016 14.2188C1.91016 11.6992 2.78906 9.40235 4.35938 7.65626C4.78125 7.17579 4.89844 6.62501 4.52344 6.20313C4.14844 5.75782 3.49219 5.76954 3.04688 6.26173C1.10156 8.3711 0 11.1836 0 14.2188C0 17.2539 1.10156 20.0547 3.04688 22.1758C3.49219 22.668 4.14844 22.668 4.52344 22.2344ZM43.6992 22.2344C44.0742 22.668 44.7305 22.668 45.1875 22.1758C47.1328 20.0547 48.2227 17.2539 48.2227 14.2188C48.2227 11.1836 47.1328 8.3711 45.1875 6.26173C44.7305 5.76954 44.0742 5.75782 43.6992 6.20313C43.3242 6.62501 43.4414 7.17579 43.8633 7.65626C45.4336 9.40235 46.3125 11.6992 46.3125 14.2188C46.3125 16.7383 45.4336 19.0352 43.8633 20.7812C43.4414 21.2617 43.3242 21.8125 43.6992 22.2344Z" fill="black" fill-opacity="0.85"/>
<path d="M7.80469 18.8945C8.17969 18.4727 8.02734 17.9453 7.65234 17.4414C6.94922 16.5625 6.60938 15.4375 6.60938 14.2188C6.60938 13 6.94922 11.8633 7.65234 10.9961C8.02734 10.4922 8.17969 9.96488 7.80469 9.54301C7.41797 9.0977 6.71484 9.0977 6.30469 9.62504C5.28516 10.8907 4.69922 12.4961 4.69922 14.2188C4.69922 15.9414 5.28516 17.5469 6.30469 18.8125C6.71484 19.3398 7.41797 19.3281 7.80469 18.8945ZM40.418 18.8945C40.8047 19.3281 41.5078 19.3398 41.918 18.8125C42.9375 17.5469 43.5352 15.9414 43.5352 14.2188C43.5352 12.4961 42.9375 10.8907 41.918 9.62504C41.5078 9.0977 40.8047 9.0977 40.418 9.54301C40.043 9.96488 40.1953 10.4922 40.5703 10.9961C41.2734 11.8633 41.625 13 41.625 14.2188C41.625 15.4375 41.2734 16.5625 40.5703 17.4414C40.1953 17.9453 40.043 18.4727 40.418 18.8945Z" fill="black" fill-opacity="0.85"/>
<path d="M17.9531 24.4375H30.2695C35.0625 24.4375 37.3828 22.1406 37.3828 17.3711V11.8047H30.1289C29.918 12.332 29.4258 12.6719 28.8047 12.6719H19.418C18.8086 12.6719 18.3047 12.332 18.1172 11.8047H10.8398V17.3711C10.8398 22.1406 13.1602 24.4375 17.9531 24.4375ZM24.1172 17.1367C23.5195 17.1484 23.0391 16.6562 23.0391 16.082C23.0391 15.4961 23.5195 15.0039 24.1172 15.0039C24.7031 15.0039 25.1836 15.4961 25.1836 16.082C25.1836 16.6328 24.7031 17.125 24.1172 17.1367ZM10.8398 10.7383H18.0938C18.2812 10.1992 18.7852 9.87109 19.3945 9.87109H28.793C29.4023 9.87109 29.9062 10.1992 30.1055 10.7383H37.3477V10.3633C37.3477 6.08594 34.8047 4 30.2344 4H17.9531C13.3828 4 10.8398 6.08594 10.8398 10.3633V10.7383Z" fill="black" fill-opacity="0.85"/>
</g>
<defs>
<clipPath id="clip0_2124_24773">
<rect width="48.2227" height="20.4492" fill="white" transform="translate(0 4)"/>
</clipPath>
</defs>
</svg>
