<svg width="28" height="28" viewBox="0 0 28 28" fill="none" xmlns="http://www.w3.org/2000/svg">
<path d="M6.67969 24.5977H20.8945C23.3555 24.5977 24.5742 23.3789 24.5742 20.9648V6.65625C24.5742 4.24219 23.3555 3.02344 20.8945 3.02344H6.67969C4.23047 3.02344 3 4.23047 3 6.65625V20.9648C3 23.3906 4.23047 24.5977 6.67969 24.5977Z" fill="black" fill-opacity="0.85"/>
<path d="M13.793 20.6953C13.4648 20.6953 13.2188 20.4609 13.2188 20.1211V19.2539C11.6016 19.1016 10.2539 18.2109 9.91406 16.8164C9.87891 16.6992 9.85547 16.5703 9.85547 16.4414C9.85547 16.0195 10.1484 15.7266 10.5586 15.7266C10.9219 15.7266 11.1797 15.9141 11.3086 16.3359C11.5078 17.1328 12.1406 17.7422 13.2188 17.8945V14.332L13.1367 14.3086C11.1211 13.8281 10.0898 12.9141 10.0898 11.3789C10.0898 9.72656 11.3906 8.57812 13.2188 8.37891V7.54688C13.2188 7.20703 13.4648 6.97266 13.793 6.97266C14.1211 6.97266 14.3789 7.20703 14.3789 7.54688V8.37891C15.9258 8.55469 17.1562 9.45703 17.4727 10.7578C17.4961 10.8867 17.5312 11.0156 17.5312 11.1328C17.5312 11.5547 17.2266 11.8477 16.8164 11.8477C16.4297 11.8477 16.1953 11.6133 16.0781 11.25C15.832 10.4414 15.2344 9.92578 14.3789 9.77344V13.1367L14.5312 13.1719C16.6289 13.5469 17.6953 14.543 17.6953 16.1836C17.6953 18.0117 16.2422 19.1016 14.3789 19.2773V20.1211C14.3789 20.4609 14.1211 20.6953 13.793 20.6953ZM13.2188 12.832V9.77344C12.1992 9.94922 11.5898 10.5703 11.5898 11.2969C11.5898 12.0117 12.0703 12.4922 13.1367 12.8086L13.2188 12.832ZM14.3789 14.6133V17.8945C15.6094 17.7539 16.207 17.1094 16.207 16.2656C16.207 15.5039 15.7969 15 14.625 14.6836L14.3789 14.6133Z" fill="white"/>
</svg>
