<svg width="30" height="28" viewBox="0 0 30 28" fill="none" xmlns="http://www.w3.org/2000/svg">
<path d="M0.281509 11.1445C0.691665 11.5547 1.24245 11.5078 1.64088 11.1211L2.76588 10.0078L4.50026 8.16797V20.9648C4.50026 23.3906 5.74245 24.5977 8.17995 24.5977H17.719C18.387 24.5977 18.7737 24.2578 18.762 23.6602C18.7503 23.0508 18.387 22.7109 17.719 22.7109H8.2151C7.04323 22.7109 6.38698 22.0898 6.38698 20.8711V8.14453L8.13307 10.0078L9.25807 11.1211C9.65651 11.5078 10.219 11.5547 10.6174 11.1445C11.0159 10.7578 10.9924 10.1836 10.594 9.78516L6.64479 5.84766C5.88307 5.09766 5.0276 5.09766 4.26588 5.84766L0.316665 9.78516C-0.0934917 10.1836 -0.10521 10.7578 0.281509 11.1445ZM10.2542 3.96094C10.2659 4.55859 10.6292 4.91016 11.2971 4.91016H20.8128C21.9846 4.91016 22.6292 5.53125 22.6292 6.75V19.4766L20.8831 17.6016L19.7581 16.5C19.3596 16.1133 18.8089 16.0664 18.3987 16.4648C18.0003 16.8633 18.0237 17.4375 18.4221 17.8359L22.3714 21.7617C23.1448 22.5234 23.9885 22.5234 24.762 21.7617L28.6995 17.8359C29.1096 17.4375 29.1214 16.8633 28.7346 16.4648C28.3362 16.0664 27.7737 16.1016 27.3753 16.5L26.2503 17.6016L24.5159 19.4531V6.65625C24.5159 4.23047 23.2854 3.02344 20.8362 3.02344H11.2971C10.6292 3.02344 10.2424 3.36328 10.2542 3.96094Z" fill="black" fill-opacity="0.85"/>
</svg>
