<svg width="28" height="28" viewBox="0 0 28 28" fill="none" xmlns="http://www.w3.org/2000/svg">
<path d="M6.67969 24.5977H20.8945C23.3555 24.5977 24.5742 23.3789 24.5742 20.9648V6.65625C24.5742 4.24219 23.3555 3.02344 20.8945 3.02344H6.67969C4.23047 3.02344 3 4.23047 3 6.65625V20.9648C3 23.3906 4.23047 24.5977 6.67969 24.5977ZM6.70312 22.7109C5.53125 22.7109 4.88672 22.0898 4.88672 20.8711V6.75C4.88672 5.53125 5.53125 4.91016 6.70312 4.91016H20.8711C22.0312 4.91016 22.6875 5.53125 22.6875 6.75V20.8711C22.6875 22.0898 22.0312 22.7109 20.8711 22.7109H6.70312Z" fill="black" fill-opacity="0.85"/>
<path d="M9.5625 18.4102C9.5625 19.2891 9.94922 19.6992 10.7578 19.6992H16.8281C17.6484 19.6992 18.0352 19.2891 18.0352 18.4102V13.7461C18.0352 12.9258 17.6953 12.5273 16.9922 12.4805V11.0859C16.9922 8.92969 15.7031 7.48828 13.793 7.48828C11.8828 7.48828 10.5938 8.92969 10.5938 11.0859V12.4805C9.90234 12.5273 9.5625 12.9258 9.5625 13.7461V18.4102ZM11.8125 12.4688V10.957C11.8125 9.58594 12.6094 8.67188 13.793 8.67188C14.9766 8.67188 15.7734 9.58594 15.7734 10.957V12.4688H11.8125Z" fill="black" fill-opacity="0.85"/>
</svg>
