<svg width="28" height="28" viewBox="0 0 28 28" fill="none" xmlns="http://www.w3.org/2000/svg">
<g clip-path="url(#clip0_2124_89371)">
<path d="M13.9531 25.9062C20.4922 25.9062 25.9062 20.4805 25.9062 13.9531C25.9062 7.41406 20.4805 2 13.9414 2C7.41406 2 2 7.41406 2 13.9531C2 20.4805 7.42578 25.9062 13.9531 25.9062Z" fill="black" fill-opacity="0.85"/>
<path d="M11.3397 21.8633C10.7772 21.8633 10.414 21.5586 10.4257 20.9961L10.5663 13.332C10.5663 13.0977 10.4608 12.9102 10.2499 12.8164C9.33584 12.4297 8.94912 12.0195 9.00771 10.8125L9.19521 6.62891C9.20693 6.32422 9.38271 6.14844 9.65224 6.14844C9.93349 6.14844 10.0976 6.33594 10.0976 6.64062L10.039 10.7305C10.039 10.9531 10.203 11.1172 10.414 11.1172C10.6601 11.1172 10.8124 10.9531 10.8124 10.7422L10.8827 6.53516C10.8827 6.23047 11.0702 6.06641 11.3397 6.06641C11.6093 6.06641 11.8085 6.23047 11.8085 6.53516L11.8554 10.7422C11.8554 10.9531 12.0194 11.1172 12.2538 11.1172C12.4882 11.1172 12.6522 10.9531 12.6522 10.7305L12.5937 6.64062C12.5937 6.33594 12.7577 6.14844 13.0272 6.14844C13.3085 6.14844 13.4608 6.32422 13.4843 6.62891L13.6835 10.8125C13.7421 12.0195 13.3437 12.4297 12.4413 12.8164C12.2304 12.9102 12.1366 13.0977 12.1366 13.332L12.2538 20.9961C12.2772 21.5586 11.914 21.8633 11.3397 21.8633ZM16.2265 16.0625C16.2382 15.8047 16.121 15.6172 15.8749 15.4531L15.4882 15.1719C15.1483 14.9258 14.9608 14.5977 14.9608 14.1172V13.6602C14.9608 10.9414 15.6874 8.05859 16.789 6.52344C16.9999 6.20703 17.1874 6.06641 17.4335 6.06641C17.6796 6.06641 17.9257 6.21875 17.9257 6.57031V21.0312C17.9257 21.582 17.5741 21.8633 16.9882 21.8633C16.4374 21.8633 16.0624 21.5586 16.0741 20.9609L16.2265 16.0625Z" fill="white"/>
</g>
<defs>
<clipPath id="clip0_2124_89371">
<rect width="23.9062" height="23.918" fill="white" transform="translate(2 2)"/>
</clipPath>
</defs>
</svg>
