<svg width="28" height="28" viewBox="0 0 28 28" fill="none" xmlns="http://www.w3.org/2000/svg">
<g clip-path="url(#clip0_2124_32149)">
<path d="M14.4805 24.0781C17.1641 24.0781 20.457 23.9141 22.8477 23.6328C24.4297 23.4453 25.3203 22.5781 25.3203 21.0664V2C25.3203 0.5 24.4297 -0.378906 22.8477 -0.554688C20.457 -0.835938 17.1641 -1 14.4805 -1C11.7852 -1 8.49219 -0.835938 6.11328 -0.554688C4.51953 -0.378906 3.64062 0.5 3.64062 2V21.0664C3.64062 22.5781 4.51953 23.4453 6.11328 23.6328C8.49219 23.9023 11.7852 24.0781 14.4805 24.0781ZM14.4805 22.543C11.6797 22.543 8.5625 22.3789 6.52344 22.1328C5.52734 22.0156 5.17578 21.5 5.17578 20.5977V2.46875C5.17578 1.57812 5.52734 1.0625 6.52344 0.94531C8.5625 0.6875 11.6797 0.53516 14.4805 0.53516C17.2344 0.53516 20.3516 0.6875 22.4375 0.94531C23.4336 1.0625 23.7852 1.57812 23.7852 2.46875V20.5977C23.7852 21.5 23.4336 22.0156 22.4375 22.1328C20.3516 22.3789 17.2344 22.543 14.4805 22.543ZM5.78516 27.3125H7.16797C8.04688 27.3125 8.72656 26.6328 8.72656 25.7656V23.2344L4.23828 22.5547V25.7656C4.23828 26.6328 4.90625 27.3125 5.78516 27.3125ZM21.793 27.3125H23.1641C24.043 27.3125 24.7227 26.6328 24.7227 25.7656V22.5547L20.2344 23.2344V25.7656C20.2344 26.6328 20.9141 27.3125 21.793 27.3125ZM4.40234 12.9805V6.93359H3.11328C2.45703 6.93359 2 7.34375 2 7.96484V11.9609C2 12.5703 2.45703 12.9805 3.11328 12.9805H4.40234ZM24.5586 12.9805H25.8477C26.5039 12.9805 26.9609 12.5703 26.9609 11.9609V7.96484C26.9609 7.34375 26.5039 6.93359 25.8477 6.93359H24.5586V12.9805ZM6.38281 8.50391H22.5781V3.71094C22.5781 2.82031 22.168 2.35156 21.2188 2.23438C17.1758 1.80078 11.7852 1.80078 7.75391 2.23438C6.80469 2.35156 6.38281 2.82031 6.38281 3.71094V8.50391ZM6.38281 10.0977V14.7617C6.38281 15.5469 6.74609 15.9453 7.47266 16.0742C11.0352 16.6836 17.7969 16.7188 21.4883 16.0742C22.1328 15.957 22.5781 15.5469 22.5781 14.7617V10.0977H6.38281ZM8.19922 20.7266C8.94922 20.7266 9.52344 20.1406 9.52344 19.4023C9.52344 18.6523 8.94922 18.0781 8.19922 18.0781C7.46094 18.0781 6.875 18.6523 6.875 19.4023C6.875 20.1406 7.46094 20.7266 8.19922 20.7266ZM12.207 20.375H16.7305C17.293 20.375 17.7148 19.9531 17.7148 19.3906C17.7148 18.8164 17.3047 18.4062 16.7305 18.4062H12.207C11.6328 18.4062 11.2227 18.8164 11.2227 19.3906C11.2227 19.9531 11.6445 20.375 12.207 20.375ZM20.7617 20.7266C21.5 20.7266 22.0859 20.1406 22.0859 19.4023C22.0859 18.6523 21.5 18.0781 20.7617 18.0781C20.0117 18.0781 19.4375 18.6523 19.4375 19.4023C19.4375 20.1406 20.0117 20.7266 20.7617 20.7266Z" fill="black" fill-opacity="0.85"/>
</g>
<defs>
<clipPath id="clip0_2124_32149">
<rect width="28" height="28" fill="white"/>
</clipPath>
</defs>
</svg>
