<svg width="32" height="28" viewBox="0 0 32 28" fill="none" xmlns="http://www.w3.org/2000/svg">
<path d="M29.9883 21.9297C30.8203 21.9297 31.5234 21.25 31.5234 20.4531C31.5234 19.6445 30.832 18.9766 29.9883 18.9766C29.1328 18.9766 28.4414 19.6445 28.4414 20.4531C28.4414 21.25 29.1445 21.9297 29.9883 21.9297ZM29.9883 16.7266C30.5625 16.7266 30.9609 16.3281 30.9844 15.7305L31.2305 7.43359C31.2539 6.68359 30.75 6.17969 29.9883 6.17969C29.2148 6.17969 28.7109 6.68359 28.7344 7.43359L28.9805 15.7305C29.0039 16.3281 29.4141 16.7266 29.9883 16.7266Z" fill="black" fill-opacity="0.85"/>
<path d="M18.4102 26.2656V3.97656C18.4102 2.05469 17.3555 1 15.4336 1H4.80469C2.87109 1 1.85156 2.05469 1.85156 3.97656V26.2656H3.72656L3.73828 4C3.73828 3.27344 4.08984 2.88672 4.83984 2.88672H15.3984C16.125 2.88672 16.5117 3.26172 16.5117 4V26.2656H18.4102ZM0 26.1836C0 26.7109 0.410156 27.1445 0.925781 27.1445H19.3125C19.8281 27.1445 20.25 26.7109 20.25 26.1836C20.25 25.6797 19.8281 25.2578 19.3125 25.2578H0.925781C0.421875 25.2578 0 25.668 0 26.1836ZM6.375 13.9023H13.8633C14.6484 13.9023 15.1875 13.4336 15.1875 12.7188V5.61719C15.1875 4.90234 14.6367 4.41016 13.8633 4.41016H6.375C5.60156 4.41016 5.07422 4.90234 5.07422 5.61719V12.7188C5.07422 13.4336 5.60156 13.9023 6.375 13.9023ZM17.5078 16.4336H18.5273C19.0664 16.4336 19.3945 16.7383 19.3945 17.3242V21.2031C19.3945 22.8672 20.4023 23.875 22.0664 23.875C23.7305 23.875 24.7266 22.8672 24.7266 21.2031V6.84766C24.7266 6.14453 24.5391 5.60547 24.1992 5.06641L22.5938 2.46484C21.9961 1.51563 20.6016 2.37109 21.1875 3.33203L22.5703 5.55859C22.6992 5.76953 22.6875 6.01562 22.5469 6.22656L21.0117 8.37109C20.5078 9.0625 20.5781 9.71875 21.1055 10.3398L23.0742 12.625V21.2031C23.0742 21.8359 22.6875 22.2227 22.0664 22.2227C21.4336 22.2227 21.0586 21.8359 21.0586 21.2031V17.3242C21.0586 15.707 20.0977 14.7812 18.5273 14.7812H17.5078V16.4336Z" fill="black" fill-opacity="0.85"/>
</svg>
