<svg width="28" height="28" viewBox="0 0 28 28" fill="none" xmlns="http://www.w3.org/2000/svg">
<path d="M13.9531 25.9062C20.4922 25.9062 25.9062 20.4805 25.9062 13.9531C25.9062 7.41406 20.4805 2 13.9414 2C7.41406 2 2 7.41406 2 13.9531C2 20.4805 7.42578 25.9062 13.9531 25.9062ZM13.9531 23.9141C8.42188 23.9141 4.00391 19.4844 4.00391 13.9531C4.00391 8.42188 8.41016 3.99219 13.9414 3.99219C19.4727 3.99219 23.9141 8.42188 23.9141 13.9531C23.9141 19.4844 19.4844 23.9141 13.9531 23.9141Z" fill="black" fill-opacity="0.85"/>
<path d="M10.4023 18.9453C12.2305 18.9453 13.2383 17.4219 13.2383 15.5703C13.2383 13.9531 12.4648 12.4648 10.9531 12.4648C10.2617 12.4648 9.61719 12.7812 9.32422 13.4727H9.26562L9.46484 10.6133H12.207C12.6172 10.6133 12.8633 10.332 12.8633 9.92188C12.8633 9.53516 12.6055 9.24219 12.207 9.24219H8.99609C8.375 9.24219 8.10547 9.64062 8.05859 10.2383L7.87109 13.4492C7.85938 13.625 7.84766 13.8125 7.84766 13.9648C7.84766 14.4219 8.08203 14.8086 8.62109 14.8086C8.9375 14.8086 9.125 14.6914 9.37109 14.3633C9.64062 13.9766 9.93359 13.6953 10.4023 13.6953C11.2695 13.6953 11.5977 14.7383 11.5977 15.6055C11.5977 16.5781 11.2461 17.5742 10.3789 17.5742C9.72266 17.5742 9.35938 17.1055 9.14844 16.4609C9.00781 16.0859 8.75 15.9102 8.43359 15.9102C8 15.9102 7.73047 16.1797 7.73047 16.6133C7.73047 16.8828 7.80078 17.1406 7.89453 17.375C8.30469 18.3242 9.34766 18.9453 10.4023 18.9453ZM17.5742 18.9453C19.918 18.9453 20.6094 16.3203 20.6094 13.9648C20.6094 11.6094 19.918 8.98438 17.5742 8.98438C15.2422 8.98438 14.5508 11.6094 14.5508 13.9648C14.5508 16.3203 15.2422 18.9453 17.5742 18.9453ZM17.5742 17.5625C16.625 17.5625 16.2617 16.0039 16.2617 13.9648C16.2617 11.9375 16.625 10.3789 17.5742 10.3789C18.5352 10.3789 18.8984 11.9375 18.8984 13.9648C18.8984 16.0039 18.5352 17.5625 17.5742 17.5625Z" fill="black" fill-opacity="0.85"/>
</svg>
