<svg width="28" height="28" viewBox="0 0 28 28" fill="none" xmlns="http://www.w3.org/2000/svg">
<path d="M14.2539 26.1367C21.5664 26.1367 27.5078 20.1953 27.5078 12.8828C27.5078 8.00781 24.8711 3.75391 21.1445 1.58594C20.4648 1.1875 19.7734 1 18.9766 1H9.53125C8.73438 1 8.04297 1.1875 7.36328 1.58594C3.63672 3.75391 1 8.00781 1 12.8828C1 20.1953 6.94141 26.1367 14.2539 26.1367Z" fill="black" fill-opacity="0.85"/>
<path d="M10.3281 7.94922C9.4375 7.94922 8.69922 7.22266 8.69922 6.32031C8.69922 5.41797 9.4375 4.67969 10.3281 4.67969C11.2305 4.67969 11.9688 5.41797 11.9688 6.32031C11.9688 7.22266 11.2305 7.94922 10.3281 7.94922ZM14.2539 7.94922C13.3516 7.94922 12.625 7.22266 12.625 6.32031C12.625 5.41797 13.3516 4.67969 14.2539 4.67969C15.1562 4.67969 15.8828 5.41797 15.8828 6.32031C15.8828 7.22266 15.1562 7.94922 14.2539 7.94922ZM18.1797 7.94922C17.2773 7.94922 16.5391 7.22266 16.5391 6.32031C16.5391 5.41797 17.2773 4.67969 18.1797 4.67969C19.082 4.67969 19.8086 5.41797 19.8086 6.32031C19.8086 7.22266 19.082 7.94922 18.1797 7.94922ZM14.2539 11.875C13.3516 11.875 12.625 11.1367 12.625 10.2461C12.625 9.34375 13.3516 8.60547 14.2539 8.60547C15.1562 8.60547 15.8828 9.34375 15.8828 10.2461C15.8828 11.1367 15.1562 11.875 14.2539 11.875ZM8.25391 16.457C6.27344 16.457 4.65625 14.8516 4.65625 12.8711C4.65625 10.9023 6.27344 9.29688 8.25391 9.29688C10.2227 9.29688 11.8281 10.9023 11.8281 12.8711C11.8281 14.8516 10.2227 16.457 8.25391 16.457ZM20.2539 16.457C18.2852 16.457 16.6797 14.8516 16.6797 12.8711C16.6797 10.9023 18.2852 9.29688 20.2539 9.29688C22.2344 9.29688 23.8516 10.9023 23.8516 12.8711C23.8516 14.8516 22.2344 16.457 20.2539 16.457ZM9.17969 20.9336C8.35938 20.9336 7.69141 20.2656 7.69141 19.457C7.69141 18.6484 8.35938 17.9688 9.17969 17.9688C9.98828 17.9688 10.6562 18.6484 10.6562 19.457C10.6562 20.2656 9.98828 20.9336 9.17969 20.9336ZM14.2539 21.9648C12.8711 21.9648 11.7461 20.8281 11.7461 19.457C11.7461 18.0742 12.8711 16.9375 14.2539 16.9375C15.6367 16.9375 16.7617 18.0742 16.7617 19.457C16.7617 20.8281 15.6367 21.9648 14.2539 21.9648ZM19.3398 20.9336C18.5195 20.9336 17.8516 20.2656 17.8516 19.457C17.8516 18.6484 18.5195 17.9688 19.3398 17.9688C20.1484 17.9688 20.8164 18.6484 20.8164 19.457C20.8164 20.2656 20.1484 20.9336 19.3398 20.9336Z" fill="white"/>
</svg>
