<svg width="28" height="28" viewBox="0 0 28 28" fill="none" xmlns="http://www.w3.org/2000/svg">
<path d="M13.9531 25.9062C20.4922 25.9062 25.9062 20.4805 25.9062 13.9531C25.9062 7.41406 20.4805 2 13.9414 2C7.41406 2 2 7.41406 2 13.9531C2 20.4805 7.42578 25.9062 13.9531 25.9062ZM13.9531 23.9141C8.42188 23.9141 4.00391 19.4844 4.00391 13.9531C4.00391 8.42188 8.41016 3.99219 13.9414 3.99219C19.4727 3.99219 23.9141 8.42188 23.9141 13.9531C23.9141 19.4844 19.4844 23.9141 13.9531 23.9141Z" fill="black" fill-opacity="0.85"/>
<path d="M20 15.3828C20 12.5703 17.9609 10.8594 15.2305 10.8594H11.7266L10.3438 10.8945L11.2695 10.168L12.4766 8.99609C12.6406 8.85547 12.7461 8.63281 12.7461 8.38672C12.7461 7.90625 12.3828 7.54297 11.9023 7.54297C11.6563 7.54297 11.4688 7.61328 11.3047 7.78906L8.1875 10.9531C8 11.1523 7.87109 11.3984 7.87109 11.668C7.87109 11.9492 8 12.1836 8.1875 12.3828L11.3164 15.5703C11.4805 15.7344 11.668 15.8164 11.9141 15.8164C12.3828 15.8164 12.7461 15.4531 12.7461 14.9609C12.7461 14.75 12.6641 14.5156 12.4883 14.3633L11.0234 12.957L10.3438 12.4414L11.7266 12.5H15.2305C16.9531 12.5 18.2773 13.4844 18.2773 15.2891C18.2773 17.1406 16.9883 18.2773 15.2188 18.2773C15.0781 18.2773 13.6367 18.2773 13.5898 18.2773C13.0859 18.2773 12.6992 18.5703 12.6992 19.1211C12.6992 19.6602 13.0859 19.9531 13.6133 19.9531C13.6719 19.9531 15.0781 19.9531 15.2188 19.9531C17.9492 19.9531 20 18.1953 20 15.3828Z" fill="black" fill-opacity="0.85"/>
</svg>
