<svg width="28" height="34" viewBox="0 0 28 34" fill="none" xmlns="http://www.w3.org/2000/svg">
<path d="M27.3279 19.8398C28.2888 16.3359 25.7342 14.8125 19.4646 14.8125C16.5115 14.8125 13.5349 15.0586 10.9685 15.5156L11.5193 16.1953C11.8943 11.2148 10.4529 7.06641 7.72243 5.12109L7.94509 6.25781C9.0115 2.61328 6.77321 0 4.01931 0C1.74587 0 0.52712 1.65234 1.17165 4.24219L5.5779 22.125C6.0115 23.8828 7.17165 24.832 8.89431 24.832H22.8162C25.2302 24.832 26.2967 23.6602 27.3279 19.8398ZM25.5232 19.3477C24.6677 22.5117 24.1287 22.9453 22.8162 22.9453H8.89431C8.12087 22.9453 7.61696 22.4883 7.41775 21.668L2.97634 3.75C2.69509 2.60156 3.16384 1.88672 4.03103 1.88672C5.36696 1.88672 6.58571 3.10547 6.25759 5.30859C6.1404 6.10547 6.22243 6.33984 6.66775 6.70312C8.73025 8.23828 9.8904 11.7891 9.79665 16.207C9.79665 16.9219 10.242 17.3672 10.9568 17.3555C12.2927 17.2617 15.2927 16.6992 19.4646 16.6992C24.6092 16.6992 26.0271 17.4609 25.5232 19.3477Z" fill="black" fill-opacity="0.85"/>
<path d="M19.0312 32.9766C19.0312 33.6094 19.5351 33.8789 20.0859 33.5391L24.2461 31.0078C24.7851 30.6797 24.7734 30.0586 24.2461 29.7422L20.0859 27.1875C19.5351 26.8477 19.0312 27.1406 19.0312 27.7617V32.9766Z" fill="black" fill-opacity="0.85"/>
<path d="M12.9487 32.9766V27.7617C12.9487 27.1406 12.4448 26.8477 11.894 27.1875L7.72218 29.7422C7.20656 30.0586 7.19484 30.6797 7.72218 31.0078L11.8823 33.5391C12.4331 33.8789 12.9487 33.6094 12.9487 32.9766Z" fill="black" fill-opacity="0.85"/>
</svg>
