<svg width="28" height="28" viewBox="0 0 28 28" fill="none" xmlns="http://www.w3.org/2000/svg">
<path d="M13.5859 25.6602C13.7734 25.6602 14.0664 25.5898 14.3594 25.4375C21.0273 21.9453 23.1719 20.1992 23.1719 15.9922V7.15625C23.1719 5.94922 22.6562 5.5625 21.6719 5.15234C20.3008 4.58984 15.918 2.99609 14.5586 2.52734C14.2422 2.42188 13.9141 2.36328 13.5859 2.36328C13.2578 2.36328 12.9297 2.43359 12.625 2.52734C11.2539 2.97266 6.87109 4.60156 5.5 5.15234C4.52734 5.55078 4 5.94922 4 7.15625V15.9922C4 20.1992 6.26172 21.7461 12.8125 25.4375C13.1172 25.6016 13.3984 25.6602 13.5859 25.6602Z" fill="black" fill-opacity="0.85"/>
<path d="M12.2734 19.2969C11.875 19.2969 11.5469 19.1445 11.2422 18.7344L8.30078 15.125C8.125 14.8906 8.01953 14.6211 8.01953 14.3633C8.01953 13.8242 8.42969 13.3906 8.96875 13.3906C9.29688 13.3906 9.55469 13.5078 9.84766 13.8945L12.2266 16.9648L17.2305 8.92578C17.4531 8.5625 17.7578 8.38672 18.0742 8.38672C18.5781 8.38672 19.0586 8.73828 19.0586 9.27734C19.0586 9.54688 18.918 9.81641 18.7656 10.0508L13.2578 18.7344C13.0117 19.1094 12.6719 19.2969 12.2734 19.2969Z" fill="white"/>
</svg>
