<svg width="28" height="28" viewBox="0 0 28 28" fill="none" xmlns="http://www.w3.org/2000/svg">
<path d="M26.2656 13.7461C26.2656 13.3477 26.125 12.9141 25.668 12.4805L16.4219 3.83203C15.8008 3.24609 15.4141 3 14.8398 3C14.0195 3 13.4336 3.64453 13.4336 4.42969V8.85938H3.92969C2.07812 8.85938 1 9.91406 1 11.7305V15.7734C1 17.5898 2.07812 18.6445 3.92969 18.6445H13.4336V23.1211C13.4336 23.9062 14.0195 24.4922 14.8164 24.4922C15.3906 24.4922 15.8594 24.2578 16.4219 23.7305L25.668 15C26.1133 14.5781 26.2656 14.1328 26.2656 13.7461ZM24.1562 13.7461C24.1562 13.8164 24.1328 13.875 24.0391 13.9688L15.6836 21.8672C15.625 21.9375 15.5547 21.9727 15.4844 21.9727C15.3906 21.9727 15.3203 21.9023 15.3203 21.7969V17.2617C15.3203 16.9922 15.2031 16.875 14.9336 16.875H3.95312C3.20312 16.875 2.76953 16.4414 2.76953 15.6797V11.8242C2.76953 11.0625 3.20312 10.6289 3.95312 10.6289H14.9336C15.2031 10.6289 15.3203 10.5117 15.3203 10.2422V5.58984C15.3203 5.49609 15.3906 5.42578 15.4961 5.42578C15.5664 5.42578 15.6367 5.47266 15.6953 5.51953L24.0391 13.5234C24.1211 13.6055 24.1562 13.6758 24.1562 13.7461Z" fill="black" fill-opacity="0.85"/>
</svg>
