<svg width="28" height="28" viewBox="0 0 28 28" fill="none" xmlns="http://www.w3.org/2000/svg">
<path d="M20.8086 3C15.3945 3 12.8398 5.15625 12.8398 10.6055V18.7266L12.9219 21.9023L10.5898 19.3359L6.74609 15.4922C6.57031 15.3047 6.28906 15.2109 6.00781 15.2109C5.42188 15.2109 5 15.6562 5 16.2305C5 16.5117 5.10547 16.7578 5.32812 16.9922L13.0977 24.7852C13.3203 25.0195 13.5898 25.1367 13.8828 25.1367C14.1758 25.1367 14.4453 25.0195 14.668 24.7852L22.4492 16.9922C22.6719 16.7578 22.7656 16.5117 22.7656 16.2305C22.7656 15.6562 22.3438 15.2109 21.7578 15.2109C21.4766 15.2109 21.207 15.3047 21.0195 15.4922L17.1758 19.3359L14.832 21.9141L14.9258 18.7266L14.9141 10.7109C14.9023 6.46875 16.7539 5.05078 20.9141 5.05078C21.4648 5.05078 21.8398 5.07422 22.25 5.07422C22.8477 5.07422 23.293 4.6875 23.293 4.07812C23.293 3.48047 22.8711 3.17578 22.4141 3.08203C22.0508 3.02344 21.4883 3 20.8086 3Z" fill="black" fill-opacity="0.85"/>
</svg>
