<svg width="29" height="29" viewBox="0 0 29 29" fill="none" xmlns="http://www.w3.org/2000/svg">
<g clip-path="url(#clip0_2124_45940)">
<path d="M22.3185 8.5752C24.0764 8.5752 25.4826 7.11036 25.4826 5.41114C25.4826 3.64161 24.0764 2.2002 22.3185 2.2002C20.549 2.2002 19.131 3.64161 19.131 5.41114C19.131 7.1455 20.549 8.5752 22.3185 8.5752ZM20.2795 20.7158C20.7951 20.3057 21.2873 19.6143 21.756 18.7471L23.9123 14.833C24.9084 13.0283 24.5803 11.1885 22.881 10.2744C21.2287 9.36035 19.5178 10.0635 18.51 11.8916L16.2834 15.9111L20.2795 20.7158ZM3.43962 25.3213C4.04899 25.9658 5.09196 25.9072 5.84196 25.1455L10.881 19.9424C11.0568 19.7666 11.1623 19.7197 11.4201 19.8252L15.674 21.4307C16.5998 21.7822 17.6076 21.7119 18.3459 21.5713L15.4162 17.9502L12.4279 16.8604C11.0451 16.3565 9.89665 16.5205 8.78337 17.6689L3.54509 23.083C2.83024 23.833 2.88883 24.7705 3.43962 25.3213ZM22.8107 25.4619C23.2912 25.0869 23.3264 24.501 22.8693 23.9502L20.2795 20.7158C19.6818 21.1377 19.0256 21.4307 18.3459 21.5713L21.3342 25.2393C21.7678 25.7666 22.3185 25.8721 22.8107 25.4619Z" fill="black" fill-opacity="0.85"/>
<path d="M8.98243 13.9072C12.2988 13.9072 14.8769 11.1768 14.8769 8.00098C14.8769 4.68458 12.2988 2.0127 8.98243 2.0127C5.67774 2.0127 3.01758 4.68458 3.01758 8.00098C3.01758 11.1768 5.67774 13.9072 8.98243 13.9072ZM8.98243 12.3721C6.58008 12.3721 4.55274 10.3799 4.55274 8.00098C4.55274 5.52832 6.52149 3.54786 8.98243 3.54786C11.4316 3.54786 13.3418 5.50489 13.3418 8.00098C13.3418 10.415 11.3848 12.3721 8.98243 12.3721ZM4.65821 2.58691C4.36524 2.29395 3.87305 2.29395 3.58008 2.58691C3.27539 2.87988 3.27539 3.36036 3.58008 3.67676L13.2598 13.3447C13.5527 13.6377 14.0332 13.6377 14.3379 13.3447C14.6426 13.0518 14.6426 12.5596 14.3379 12.2549L4.65821 2.58691ZM3.58008 12.2549C3.27539 12.5596 3.27539 13.0518 3.58008 13.3447C3.87305 13.6377 4.36524 13.6377 4.65821 13.3447L14.3379 3.67676C14.6426 3.36036 14.6426 2.87988 14.3379 2.58691C14.0332 2.29395 13.5527 2.29395 13.2598 2.58691L3.58008 12.2549Z" fill="black" fill-opacity="0.85"/>
</g>
<defs>
<clipPath id="clip0_2124_45940">
<rect width="22.465" height="23.9414" fill="white" transform="translate(3.01758 2.0127)"/>
</clipPath>
</defs>
</svg>
