<svg width="28" height="28" viewBox="0 0 28 28" fill="none" xmlns="http://www.w3.org/2000/svg">
<path d="M5.98828 15.5156H10.875C11.3555 15.5156 11.7305 15.1406 11.7305 14.6602C11.7305 14.1797 11.3555 13.793 10.875 13.793H5.98828C5.50781 13.793 5.12109 14.1797 5.12109 14.6602C5.12109 15.1406 5.50781 15.5156 5.98828 15.5156ZM19.1836 18.1875C19.6641 18.1875 20.0391 17.8125 20.0391 17.332V15.5156H21.8555C22.3359 15.5156 22.7227 15.1406 22.7227 14.6602C22.7227 14.1797 22.3359 13.793 21.8555 13.793H20.0391V11.9766C20.0391 11.4961 19.6641 11.1211 19.1836 11.1211C18.7031 11.1211 18.3164 11.4961 18.3164 11.9766V13.793H16.5C16.0195 13.793 15.6445 14.1797 15.6445 14.6602C15.6445 15.1406 16.0195 15.5156 16.5 15.5156H18.3164V17.332C18.3164 17.8125 18.7031 18.1875 19.1836 18.1875ZM3.02344 23.7188H24.6445C26.0508 23.7188 26.9766 22.7227 26.9766 21.2695V20.8594C25.7812 20.8359 24.7852 20.3672 24.1406 19.6406C23.8828 19.3359 23.5898 19.3477 23.332 19.6406C22.6289 20.4258 21.5742 20.8711 20.4375 20.8711C19.3008 20.8711 18.2461 20.4258 17.543 19.6406C17.2852 19.3477 16.9922 19.3359 16.7344 19.6406C16.0664 20.3906 15 20.8711 13.8164 20.8711C12.6328 20.8711 11.5664 20.3906 10.8984 19.6406C10.6406 19.3359 10.3594 19.3477 10.0898 19.6406C9.38672 20.4258 8.33203 20.8711 7.19531 20.8711C6.05859 20.8711 5.01562 20.4258 4.30078 19.6406C4.04297 19.3477 3.75 19.3359 3.49219 19.6406C2.84766 20.3672 1.86328 20.8359 0.65625 20.8594V21.2695C0.65625 22.7227 1.58203 23.7188 3.02344 23.7188ZM3.67969 24.5742H23.9531C26.4141 24.5742 27.6328 23.3672 27.6328 20.9531V9.62109C27.6328 7.20703 26.4141 6 23.9531 6H22.3359V4.42969C22.3359 3.53906 21.8203 3 20.918 3H17.4609C16.5703 3 16.0547 3.53906 16.0547 4.42969V6H11.5898V4.42969C11.5898 3.53906 11.0742 3 10.1719 3H6.71484C5.8125 3 5.30859 3.53906 5.30859 4.42969V6H3.67969C1.23047 6 0 7.20703 0 9.62109V20.9531C0 23.3672 1.23047 24.5742 3.67969 24.5742ZM1.88672 20.8477V9.72656C1.88672 8.50781 2.53125 7.88672 3.70312 7.88672H23.9297C25.0898 7.88672 25.7461 8.50781 25.7461 9.72656V20.8477C25.7461 22.0664 25.0898 22.6875 23.9297 22.6875H3.70312C2.53125 22.6875 1.88672 22.0664 1.88672 20.8477Z" fill="black" fill-opacity="0.85"/>
</svg>
