<svg width="28" height="28" viewBox="0 0 28 28" fill="none" xmlns="http://www.w3.org/2000/svg">
<path d="M3.36059 19.4905L7.89575 24.0139C9.66528 25.7717 11.6458 25.842 13.3098 24.178L24.6067 12.8694C25.6497 11.8381 25.6379 10.3498 24.5715 9.28342L18.0911 2.81467C17.0247 1.74827 15.5481 1.72483 14.5051 2.7678L3.20825 14.0647C1.54419 15.7405 1.60278 17.7209 3.36059 19.4905ZM4.69653 18.1545C3.79419 17.2405 3.74731 16.1975 4.60278 15.3303L15.759 4.17405C16.0637 3.86936 16.4856 3.86936 16.7786 4.16233L23.2239 10.6076C23.5168 10.9006 23.5051 11.3108 23.2122 11.6037L12.0442 22.7717C11.1887 23.6389 10.1458 23.592 9.23169 22.678L4.69653 18.1545ZM5.07153 13.4905L13.884 22.3147L15.0559 21.1428L6.26684 12.3537L5.07153 13.4905Z" fill="black" fill-opacity="0.85"/>
</svg>
