<svg width="28" height="28" viewBox="0 0 28 28" fill="none" xmlns="http://www.w3.org/2000/svg">
<path d="M9.23438 24.0352H18.3984C25.1953 24.0352 27.6328 21.5156 27.6328 15.2461V11.8008C27.6328 5.53125 25.1953 3 18.3984 3H9.23438C2.4375 3 0 5.53125 0 11.8008V15.2461C0 21.5156 2.4375 24.0352 9.23438 24.0352ZM9.23438 22.1484C3.70312 22.1484 1.88672 20.3555 1.88672 15.2461V11.8008C1.88672 6.69141 3.70312 4.88672 9.23438 4.88672H18.3984C23.9297 4.88672 25.7461 6.69141 25.7461 11.8008V15.2461C25.7461 20.3555 23.9297 22.1484 18.3984 22.1484H9.23438Z" fill="black" fill-opacity="0.85"/>
<path d="M7.10156 18.4336C7.57031 18.4336 7.86328 18.1172 7.86328 17.6133V11.2852H7.93359L9.52734 17.4844C9.63281 17.9297 9.92578 18.2578 10.3945 18.2578C10.875 18.2578 11.1211 17.9414 11.25 17.4727L12.8438 11.2852H12.9023V17.6133C12.9023 18.1172 13.1836 18.4336 13.6641 18.4336C14.1562 18.4336 14.4258 18.1172 14.4258 17.6133V9.84375C14.4258 9.08203 13.957 8.64844 13.2188 8.64844C12.5391 8.64844 12.1641 8.97656 12 9.63281L10.418 16.0195H10.3594L8.74219 9.63281C8.57812 8.97656 8.19141 8.64844 7.54688 8.64844C6.80859 8.64844 6.33984 9.10547 6.33984 9.84375V17.6133C6.33984 18.1172 6.63281 18.4336 7.10156 18.4336ZM16.7461 18.2578H20.8125C21.2227 18.2578 21.4688 17.9883 21.4688 17.5781C21.4688 17.1328 21.2109 16.8867 20.8125 16.8867H18.0234V16.793L19.7344 14.625C20.9062 13.1719 21.293 12.3047 21.293 11.2734C21.293 9.69141 20.2148 8.54297 18.5977 8.54297C17.1094 8.54297 15.9609 9.78516 15.9609 11.0039C15.9609 11.4375 16.2188 11.7422 16.6641 11.7422C17.0508 11.7422 17.2969 11.5664 17.4141 11.1797C17.6367 10.3945 17.918 9.90234 18.5977 9.90234C19.3008 9.90234 19.6992 10.5234 19.6992 11.3555C19.6992 12.293 19.043 13.2422 18.4219 14.0391L16.3828 16.6406C16.1719 16.9219 15.9492 17.2148 15.9492 17.5781C15.9492 17.9766 16.207 18.2578 16.7461 18.2578Z" fill="black" fill-opacity="0.85"/>
</svg>
