<svg width="28" height="29" viewBox="0 0 28 29" fill="none" xmlns="http://www.w3.org/2000/svg">
<g clip-path="url(#clip0_2124_46030)">
<path d="M19.0083 25.3094C23.6607 23.6219 25.6411 19.3563 23.7661 14.2001L22.8989 11.7977C21.9732 9.25477 20.2271 8.2118 18.1763 8.92664C17.6255 8.2118 16.7817 7.9657 15.8677 8.29383C15.5278 8.42274 15.2349 8.59852 14.9536 8.80945C14.356 8.03602 13.4302 7.75477 12.4692 8.09461C12.2114 8.18836 11.9653 8.32899 11.731 8.49305L10.395 4.8368C9.89112 3.44226 8.6255 2.85633 7.32471 3.32508C6.01221 3.80555 5.42628 5.05945 5.93018 6.45399L9.27003 15.6415C9.29346 15.7001 9.28175 15.7469 9.22315 15.7704C9.188 15.7938 9.14112 15.7704 9.10596 15.7352L7.73487 14.2352C7.05518 13.5087 6.23487 13.286 5.44971 13.5673C4.38331 13.9657 3.6919 14.9852 4.13722 16.1923C4.24268 16.5321 4.47706 16.9423 4.74659 17.2821L8.67237 22.0282C11.6372 25.6141 15.1177 26.7274 19.0083 25.3094ZM18.5044 23.7743C15.4341 24.8993 12.5513 24.3251 9.84425 21.0555L5.91846 16.3329C5.80128 16.1923 5.71925 16.0634 5.64893 15.8641C5.50831 15.4891 5.67237 15.0555 6.11768 14.8915C6.49268 14.7626 6.78565 14.9032 7.09034 15.2196L9.80909 18.0204C10.2544 18.4891 10.6528 18.536 11.0396 18.3954C11.5083 18.2313 11.6958 17.7391 11.5083 17.2352L7.35987 5.82117C7.18409 5.35242 7.39503 4.90711 7.84034 4.74305C8.29737 4.57899 8.71925 4.80164 8.89503 5.27039L11.8599 13.4149C12.0005 13.8016 12.4341 13.9774 12.8208 13.8368C13.1958 13.6962 13.395 13.286 13.2661 12.911L12.188 9.96961C12.3521 9.81727 12.5747 9.66492 12.7974 9.58289C13.3482 9.38367 13.8052 9.62977 14.0161 10.204L14.9536 12.7704C15.0942 13.1688 15.5278 13.3212 15.9028 13.1805C16.2661 13.0516 16.5005 12.6649 16.3482 12.2548L15.5864 10.1688C15.7505 10.0165 15.9732 9.86414 16.1958 9.78211C16.7466 9.58289 17.2036 9.82899 17.4146 10.4032L18.0357 12.1141C18.188 12.5243 18.6216 12.6766 18.9966 12.536C19.3599 12.4071 19.5825 12.0087 19.4419 11.6102L18.9732 10.3446C19.9575 9.99305 20.8833 10.7899 21.5161 12.5477L22.2544 14.5516C23.8599 18.9813 22.4067 22.3563 18.5044 23.7743Z" fill="black" fill-opacity="0.85"/>
</g>
<defs>
<clipPath id="clip0_2124_46030">
<rect width="20.4681" height="22.8855" fill="white" transform="translate(4 3.021)"/>
</clipPath>
</defs>
</svg>
