<svg width="28" height="28" viewBox="0 0 28 28" fill="none" xmlns="http://www.w3.org/2000/svg">
<path d="M6.67969 24.5977H20.8945C23.3555 24.5977 24.5742 23.3789 24.5742 20.9648V6.65625C24.5742 4.24219 23.3555 3.02344 20.8945 3.02344H6.67969C4.23047 3.02344 3 4.23047 3 6.65625V20.9648C3 23.3906 4.23047 24.5977 6.67969 24.5977ZM6.70312 22.7109C5.53125 22.7109 4.88672 22.0898 4.88672 20.8711V6.75C4.88672 5.53125 5.53125 4.91016 6.70312 4.91016H20.8711C22.0312 4.91016 22.6875 5.53125 22.6875 6.75V20.8711C22.6875 22.0898 22.0312 22.7109 20.8711 22.7109H6.70312Z" fill="black" fill-opacity="0.85"/>
<path d="M13.2305 19.2773C15.5273 19.2773 16.7695 18.0469 16.7695 15.8203V9.25781C16.7695 8.61328 16.4414 8.20312 15.8203 8.20312C15.2227 8.20312 14.8945 8.63672 14.8945 9.25781V15.7969C14.8945 16.9688 14.2969 17.6719 13.3242 17.6719C12.4453 17.6719 11.8594 17.2383 11.5664 16.4766C11.3672 16.0312 11.1094 15.8438 10.7109 15.8438C10.1953 15.8438 9.84375 16.207 9.84375 16.7109C9.84375 16.9102 9.87891 17.0859 9.9375 17.2617C10.3477 18.4805 11.6133 19.2773 13.2305 19.2773Z" fill="black" fill-opacity="0.85"/>
</svg>
