<svg width="28" height="28" viewBox="0 0 28 28" fill="none" xmlns="http://www.w3.org/2000/svg">
<path d="M13.9531 25.9062C20.4922 25.9062 25.9062 20.4805 25.9062 13.9531C25.9062 7.41406 20.4805 2 13.9414 2C7.41406 2 2 7.41406 2 13.9531C2 20.4805 7.42578 25.9062 13.9531 25.9062Z" fill="black" fill-opacity="0.85"/>
<path d="M10.5195 18.9688C10.0391 18.9688 9.62891 18.5703 9.62891 18.0781V10.7539L8.52734 11.6445C8.41016 11.7383 8.28125 11.7969 8.09375 11.7969C7.73047 11.7969 7.47266 11.5273 7.47266 11.1523C7.47266 10.8359 7.63672 10.6016 7.85938 10.4375L9.18359 9.40625C9.46484 9.19531 9.875 8.91406 10.3906 8.91406C11.0234 8.91406 11.4102 9.27734 11.4102 9.89844V18.0781C11.4102 18.5703 11.0117 18.9688 10.5195 18.9688ZM16.5312 19.0859C14.082 19.0859 13.3555 16.3555 13.3555 14.0703C13.3555 11.6211 14.0703 8.84375 16.543 8.84375C17.7617 8.84375 18.8164 9.48828 19.0625 10.5312C19.0977 10.6836 19.1211 10.8359 19.1211 10.9648C19.1211 11.3633 18.9219 11.6914 18.418 11.6914C18.0312 11.6914 17.7969 11.5273 17.6328 11.1523C17.4219 10.6484 17.0703 10.2617 16.5078 10.2617C15.1719 10.2617 15.0078 12.6875 15.0078 14.0234C15.0078 14.0586 15.0078 14.1055 15.0078 14.1523H15.0547C15.3359 13.1211 16.0742 12.4648 17.0469 12.4648C18.6523 12.4648 19.4375 14.0117 19.4375 15.6406C19.4375 17.5391 18.3711 19.0859 16.5312 19.0859ZM16.5078 17.668C17.3516 17.668 17.7383 16.6016 17.7383 15.7227C17.7617 14.832 17.3984 13.7891 16.4961 13.7891C15.6289 13.7891 15.2305 14.7852 15.2305 15.6641C15.2305 16.5312 15.5938 17.668 16.5078 17.668Z" fill="white"/>
</svg>
