<svg width="28" height="28" viewBox="0 0 28 28" fill="none" xmlns="http://www.w3.org/2000/svg">
<path d="M13.9531 25.918C20.4922 25.918 25.9062 20.5039 25.9062 13.9648C25.9062 7.4375 20.4805 2.01172 13.9414 2.01172C7.41406 2.01172 2 7.4375 2 13.9648C2 20.5039 7.42578 25.918 13.9531 25.918Z" fill="black" fill-opacity="0.85"/>
<path d="M9.18359 15.207C8.49219 14.2812 8.12891 13.1445 8.12891 11.8789C8.12891 9.48827 9.46484 7.41405 11.4453 6.60546C11.7383 6.47655 12.0312 6.51171 12.1602 6.67577C12.2773 6.85155 12.3008 7.09765 12.1602 7.34374C11.9492 7.7539 11.8438 8.52733 11.8438 9.27733C11.8438 12.0195 13.6133 13.7656 16.4492 13.7656C17.1406 13.7656 17.7383 13.6719 18.2188 13.4727C18.4766 13.3789 18.6875 13.4141 18.8047 13.5195C18.9688 13.6836 18.9922 13.9297 18.8633 14.2227C18.6992 14.5859 18.5352 14.9141 18.2891 15.207H9.18359ZM7.17969 17.4102C6.81641 17.4102 6.47656 17.1172 6.47656 16.7422C6.47656 16.3672 6.80469 16.0859 7.17969 16.0859H20.7148C21.1016 16.0859 21.4297 16.3672 21.4297 16.7422C21.4297 17.1172 21.0898 17.4102 20.7148 17.4102H7.17969ZM8.03516 19.5664C7.71875 19.5664 7.44922 19.2969 7.44922 18.9805C7.44922 18.6641 7.71875 18.4062 8.03516 18.4062C8.35156 18.4062 8.60938 18.6641 8.60938 18.9805C8.60938 19.2969 8.35156 19.5664 8.03516 19.5664ZM11 19.5664C10.6836 19.5664 10.4258 19.2969 10.4258 18.9805C10.4258 18.6641 10.6836 18.4062 11 18.4062C11.3164 18.4062 11.5742 18.6641 11.5742 18.9805C11.5742 19.2969 11.3164 19.5664 11 19.5664ZM13.9648 19.5664C13.6484 19.5664 13.3789 19.2969 13.3789 18.9805C13.3789 18.6641 13.6484 18.4062 13.9648 18.4062C14.2812 18.4062 14.5508 18.6641 14.5508 18.9805C14.5508 19.2969 14.2812 19.5664 13.9648 19.5664ZM16.9297 19.5664C16.6133 19.5664 16.3555 19.2969 16.3555 18.9805C16.3555 18.6641 16.6133 18.4062 16.9297 18.4062C17.2461 18.4062 17.5039 18.6641 17.5039 18.9805C17.5039 19.2969 17.2461 19.5664 16.9297 19.5664ZM19.8945 19.5664C19.5898 19.5664 19.3203 19.2969 19.3203 18.9805C19.3203 18.6641 19.5898 18.4062 19.8945 18.4062C20.2109 18.4062 20.4688 18.6641 20.4688 18.9805C20.4688 19.2969 20.2109 19.5664 19.8945 19.5664ZM9.5 21.1836C9.19531 21.1836 8.92578 20.9258 8.92578 20.6094C8.92578 20.3047 9.19531 20.0352 9.5 20.0352C9.81641 20.0352 10.0859 20.3047 10.0859 20.6094C10.0859 20.9258 9.81641 21.1836 9.5 21.1836ZM12.4766 21.1836C12.1602 21.1836 11.9023 20.9258 11.9023 20.6094C11.9023 20.3047 12.1602 20.0352 12.4766 20.0352C12.793 20.0352 13.0508 20.3047 13.0508 20.6094C13.0508 20.9258 12.793 21.1836 12.4766 21.1836ZM15.4414 21.1836C15.125 21.1836 14.8555 20.9258 14.8555 20.6094C14.8555 20.3047 15.125 20.0352 15.4414 20.0352C15.7578 20.0352 16.0156 20.3047 16.0156 20.6094C16.0156 20.9258 15.7578 21.1836 15.4414 21.1836ZM18.4062 21.1836C18.0898 21.1836 17.8203 20.9258 17.8203 20.6094C17.8203 20.3047 18.0898 20.0352 18.4062 20.0352C18.7109 20.0352 18.9805 20.3047 18.9805 20.6094C18.9805 20.9258 18.7109 21.1836 18.4062 21.1836Z" fill="white"/>
</svg>
