<svg width="28" height="28" viewBox="0 0 28 28" fill="none" xmlns="http://www.w3.org/2000/svg">
<path d="M6.67969 24.5977H20.8945C23.3555 24.5977 24.5742 23.3789 24.5742 20.9648V6.65625C24.5742 4.24219 23.3555 3.02344 20.8945 3.02344H6.67969C4.23047 3.02344 3 4.23047 3 6.65625V20.9648C3 23.3906 4.23047 24.5977 6.67969 24.5977ZM6.70312 22.7109C5.53125 22.7109 4.88672 22.0898 4.88672 20.8711V6.75C4.88672 5.53125 5.53125 4.91016 6.70312 4.91016H20.8711C22.0312 4.91016 22.6875 5.53125 22.6875 6.75V20.8711C22.6875 22.0898 22.0312 22.7109 20.8711 22.7109H6.70312Z" fill="black" fill-opacity="0.85"/>
<path d="M11.0391 18.7383C12.7148 18.7383 14.0156 17.6836 14.0156 15.9258C14.0156 14.4727 13.1367 13.7578 12.1523 13.6523V13.6172C13.2188 13.3359 13.7344 12.3867 13.7344 11.4023C13.7344 9.78516 12.5156 8.85938 10.9922 8.85938C9.78516 8.85938 8.73047 9.53906 8.40234 10.582C8.33203 10.8047 8.30859 11.0156 8.30859 11.2148C8.30859 11.6016 8.56641 11.9062 9.02344 11.9062C9.43359 11.9062 9.65625 11.7539 9.77344 11.3437C9.96094 10.6523 10.3359 10.2187 10.9922 10.2187C11.7656 10.2187 12.1406 10.8164 12.1406 11.5898C12.1406 12.4453 11.6602 13.0664 10.7812 13.0664H10.5C10.1016 13.0664 9.85547 13.3125 9.85547 13.6992C9.85547 14.0859 10.1133 14.3086 10.5 14.3086H10.793C11.7891 14.3086 12.3398 14.8594 12.3398 15.8789C12.3398 16.6875 11.9062 17.3789 11.0391 17.3789C10.1836 17.3789 9.80859 16.8047 9.66797 16.2656C9.55078 15.8906 9.30469 15.6914 8.91797 15.6914C8.46094 15.6914 8.15625 15.9727 8.15625 16.4297C8.15625 16.6406 8.19141 16.8516 8.25 17.0391C8.58984 18.1289 9.77344 18.7383 11.0391 18.7383ZM17.9531 18.6562C18.4102 18.6562 18.7969 18.2695 18.7969 17.8008V9.85547C18.7969 9.25781 18.4219 8.90625 17.8125 8.90625C17.3203 8.90625 16.9219 9.17578 16.6523 9.38672L15.3633 10.3828C15.1523 10.5469 14.9883 10.7695 14.9883 11.0742C14.9883 11.4375 15.2344 11.6953 15.5977 11.6953C15.7734 11.6953 15.8906 11.6367 16.0078 11.5547L17.0859 10.6875V17.8008C17.0859 18.2695 17.4727 18.6562 17.9531 18.6562Z" fill="black" fill-opacity="0.85"/>
</svg>
