<svg width="29" height="28" viewBox="0 0 29 28" fill="none" xmlns="http://www.w3.org/2000/svg">
<path d="M17.2383 24.5039C17.8125 24.5039 18.2812 24.2695 18.8438 23.7422L28.0898 15.0117C28.5469 14.5898 28.6875 14.1445 28.6875 13.7578C28.6875 13.3594 28.5469 12.9141 28.0898 12.4922L18.8438 3.84375C18.2227 3.25781 17.8359 3 17.2617 3C16.4414 3 15.8672 3.65625 15.8672 4.44141V8.98828H8.26172C6.23438 8.98828 5.36719 9.83203 5.36719 11.8242V14.2734H2.89453C0.867188 14.2734 0 15.1055 0 17.0977V21.5977C0 23.5898 0.867188 24.4336 2.89453 24.4336H9.96094C11.9883 24.4336 12.8555 23.5898 12.8555 21.5977V18.9258H15.8672V23.1328C15.8672 23.918 16.4414 24.5039 17.2383 24.5039ZM11.5195 21.7031L6.78516 19.7227C5.63672 19.2422 5.21484 18.7383 5.15625 17.8125C5.14453 17.5781 5.39062 17.5312 5.49609 17.7539C5.84766 18.5273 6.64453 18.9258 7.81641 18.9258H11.6719V21.6328C11.6719 21.7031 11.5898 21.7383 11.5195 21.7031Z" fill="black" fill-opacity="0.85"/>
</svg>
