<svg width="28" height="28" viewBox="0 0 28 28" fill="none" xmlns="http://www.w3.org/2000/svg">
<g clip-path="url(#clip0_2124_78074)">
<path d="M6.67969 24.5977H20.8945C23.3555 24.5977 24.5742 23.3789 24.5742 20.9648V6.65625C24.5742 4.24219 23.3555 3.02344 20.8945 3.02344H6.67969C4.23047 3.02344 3 4.23047 3 6.65625V20.9648C3 23.3906 4.23047 24.5977 6.67969 24.5977ZM6.70312 22.7109C5.53125 22.7109 4.88672 22.0898 4.88672 20.8711V6.75C4.88672 5.53125 5.53125 4.91016 6.70312 4.91016H20.8711C22.0312 4.91016 22.6875 5.53125 22.6875 6.75V20.8711C22.6875 22.0898 22.0312 22.7109 20.8711 22.7109H6.70312Z" fill="black" fill-opacity="0.85"/>
<path d="M10.7813 19.5117C11.2383 19.5117 11.5195 19.2773 11.6133 18.8438L12.1406 16.3242H14.3203L13.8398 18.6211C13.7344 19.1016 14.0742 19.5117 14.5547 19.5117C15.0234 19.5117 15.3281 19.2773 15.4219 18.8438L15.9492 16.3125H17.168C17.625 16.3125 17.9531 15.9727 17.9531 15.5273C17.9531 15.1289 17.6719 14.8359 17.2852 14.8359H16.2656L16.7695 12.457H18C18.457 12.457 18.7852 12.1172 18.7852 11.6719C18.7852 11.2734 18.5039 10.9805 18.1172 10.9805H17.0742L17.5312 8.78906C17.625 8.30859 17.2734 7.89844 16.793 7.89844C16.3359 7.89844 16.043 8.13281 15.9492 8.57812L15.4453 10.9805H13.2656L13.7109 8.78906C13.8164 8.32031 13.4766 7.89844 12.9961 7.89844C12.5273 7.89844 12.2344 8.13281 12.1406 8.57812L11.6484 10.9805H10.4063C9.96094 10.9805 9.62109 11.3203 9.62109 11.7656C9.62109 12.1641 9.90234 12.457 10.3008 12.457H11.3203L10.8281 14.8359H9.57422C9.11719 14.8359 8.78906 15.1758 8.78906 15.6211C8.78906 16.0195 9.07031 16.3125 9.45703 16.3125H10.5234L10.043 18.6211C9.94922 19.1016 10.3008 19.5117 10.7813 19.5117ZM12.3516 14.9766L12.8906 12.3398H15.2578L14.707 14.9766H12.3516Z" fill="black" fill-opacity="0.85"/>
</g>
<defs>
<clipPath id="clip0_2124_78074">
<rect width="21.5742" height="21.5977" fill="white" transform="translate(3 3)"/>
</clipPath>
</defs>
</svg>
