<svg width="28" height="28" viewBox="0 0 28 28" fill="none" xmlns="http://www.w3.org/2000/svg">
<path d="M13.9531 25.9062C20.4922 25.9062 25.9062 20.4805 25.9062 13.9531C25.9062 7.41406 20.4805 2 13.9414 2C7.41406 2 2 7.41406 2 13.9531C2 20.4805 7.42578 25.9062 13.9531 25.9062Z" fill="black" fill-opacity="0.85"/>
<path d="M17.7383 10.9531C18.2656 10.9531 18.6289 11.3516 18.6289 11.9258V17.6211C18.6289 18.3359 18.2305 18.6172 17.6094 18.6172H11.8906C11.3164 18.6172 10.9531 18.2656 10.9531 17.7266C10.9531 17.1992 11.3281 16.8477 11.9141 16.8477H14.0938L15.8867 17.0352L14 15.2656L9.55859 10.8477C9.38281 10.6719 9.26562 10.4258 9.26562 10.1914C9.26562 9.64062 9.62891 9.28906 10.1563 9.28906C10.4492 9.28906 10.6719 9.39453 10.8594 9.57031L15.2773 14L17.0234 15.8633L16.8477 13.9766V11.9023C16.8477 11.3164 17.1992 10.9531 17.7383 10.9531Z" fill="white"/>
</svg>
