<svg width="28" height="28" viewBox="0 0 28 28" fill="none" xmlns="http://www.w3.org/2000/svg">
<path d="M3.11328 24.1172C3.74609 24.1172 4.23828 23.625 4.23828 23.0039V18.5156L5.82031 16.9922L10.8711 23.6602C11.3633 24.3164 12.0547 24.3164 12.5117 23.9883C12.957 23.6602 13.1445 23.0156 12.6406 22.3594L7.46094 15.5391L12.2539 10.6289C12.793 10.0781 12.7109 9.49219 12.3594 9.14062C11.9844 8.75391 11.3047 8.66016 10.7773 9.21094L4.34375 15.9727H4.23828V4.11328C4.23828 3.49219 3.74609 3 3.11328 3C2.49219 3 2 3.49219 2 4.11328V23.0039C2 23.625 2.49219 24.1172 3.11328 24.1172ZM16.9648 24.1289C17.5859 24.1289 18.0898 23.625 18.0898 23.0039V14.9062C18.0898 12.8789 18.9688 11.0273 21.1836 11.0273C21.6875 11.0273 22.0508 11.0391 22.3789 10.9219C22.7305 10.7812 22.9766 10.5 22.9766 9.99609C22.9766 9.41016 22.6953 9.09375 22.2852 8.94141C22.0039 8.82422 21.6992 8.78906 21.3711 8.78906C19.9062 8.78906 18.5 9.86719 18.0781 11.707H17.9844V9.86719C17.9844 9.26953 17.4922 8.78906 16.9062 8.78906C16.3203 8.78906 15.8398 9.26953 15.8398 9.86719V23.0039C15.8398 23.625 16.332 24.1289 16.9648 24.1289ZM24.3828 24.0469C25.2617 24.0469 25.9766 23.332 25.9766 22.4414C25.9766 21.5625 25.2617 20.8477 24.3828 20.8477C23.4922 20.8477 22.7773 21.5625 22.7773 22.4414C22.7773 23.332 23.4922 24.0469 24.3828 24.0469Z" fill="black" fill-opacity="0.85"/>
</svg>
