<svg width="28" height="28" viewBox="0 0 28 28" fill="none" xmlns="http://www.w3.org/2000/svg">
<path d="M13.5859 25.6602C13.7734 25.6602 14.0664 25.5898 14.3594 25.4375C21.0273 21.9453 23.1719 20.1992 23.1719 15.9922V7.15625C23.1719 5.94922 22.6562 5.5625 21.6719 5.15234C20.3008 4.58984 15.918 2.99609 14.5586 2.52734C14.2422 2.42188 13.9141 2.36328 13.5859 2.36328C13.2578 2.36328 12.9297 2.43359 12.625 2.52734C11.2539 2.97266 6.87109 4.60156 5.5 5.15234C4.52734 5.55078 4 5.94922 4 7.15625V15.9922C4 20.1992 6.26172 21.7461 12.8125 25.4375C13.1172 25.6016 13.3984 25.6602 13.5859 25.6602Z" fill="black" fill-opacity="0.85"/>
<path d="M14.7109 8.49216C14.7109 7.96481 15.2266 7.81248 15.6133 8.07029L18.5898 10.0976C18.9531 10.3437 18.9648 10.8125 18.625 11.0351L15.625 13.0742C15.2266 13.332 14.7109 13.168 14.7109 12.6289V11.3515H8.79297C8.35938 11.3515 7.99609 11 7.99609 10.5664C7.99609 10.1328 8.35938 9.7695 8.79297 9.7695H14.7109V8.49216ZM8.25391 17.2109C7.91406 16.9766 7.91406 16.5078 8.27734 16.2617L11.2656 14.2344C11.6406 13.9883 12.168 14.1406 12.168 14.6562V15.9453H18.0859C18.5195 15.9453 18.8711 16.3086 18.8711 16.7422C18.8711 17.1758 18.5195 17.5273 18.0859 17.5273H12.168V18.8047C12.168 19.332 11.6406 19.4961 11.2539 19.25L8.25391 17.2109Z" fill="white"/>
</svg>
