<svg width="28" height="28" viewBox="0 0 28 28" fill="none" xmlns="http://www.w3.org/2000/svg">
<path d="M14.0742 3C11.6719 3 9.48047 3.9375 8.35547 5.95312C8.07422 6.375 7.91016 6.78516 7.89844 7.27734C7.89844 7.83984 8.25 8.26172 8.89453 8.26172C9.31641 8.26172 9.65625 8.08594 9.90234 7.51172C10.582 5.83594 12.2578 4.96875 14.1445 4.96875C16.5117 4.96875 18.4922 6.15234 18.4922 8.34375C18.4922 9.32812 17.9648 10.4414 16.793 10.9453H19.2773C20.168 10.2422 20.6484 9.23438 20.6484 8.20312C20.6484 4.875 17.6484 3 14.0742 3ZM6.75 12.2109H21.5859C22.0312 12.2109 22.3477 11.8711 22.3477 11.4492C22.3477 11.0039 22.0312 10.6875 21.5859 10.6875H6.75C6.32812 10.6875 6 11.0039 6 11.4492C6 11.8711 6.32812 12.2109 6.75 12.2109ZM6.75 16.3008H21.5859C22.0312 16.3008 22.3477 15.9609 22.3477 15.5391C22.3477 15.0938 22.0312 14.7773 21.5859 14.7773H6.75C6.32812 14.7773 6 15.0938 6 15.5391C6 15.9609 6.32812 16.3008 6.75 16.3008ZM14.1914 24.6094C17.2617 24.6094 19.5 23.3203 20.543 21.2812C20.8125 20.8594 21 20.4609 21 19.9453C21 19.3711 20.5898 18.9727 20.0156 18.9727C19.4297 18.9727 19.1367 19.2773 18.9258 19.7344C18.1758 21.668 16.5469 22.6406 14.1328 22.6406C11.2969 22.6406 9.49219 21.082 9.49219 19.2305C9.49219 17.9297 10.1836 16.6992 11.918 16.0078H9.26953C8.05078 16.7344 7.32422 17.9648 7.32422 19.3242C7.32422 22.2539 9.98438 24.6094 14.1914 24.6094Z" fill="black" fill-opacity="0.85"/>
</svg>
