<svg width="28" height="28" viewBox="0 0 28 28" fill="none" xmlns="http://www.w3.org/2000/svg">
<path d="M27.3279 21.8398C28.2888 18.3359 25.7342 16.8125 19.4646 16.8125C16.5115 16.8125 13.5349 17.0586 10.9685 17.5039L11.5193 18.1953C11.8943 13.2148 10.4529 9.05469 7.72243 7.12109L7.94509 8.25781C9.0115 4.61328 6.77321 2 4.01931 2C1.74587 2 0.52712 3.64062 1.17165 6.24219L5.5779 24.125C6.0115 25.8828 7.17165 26.8203 8.89431 26.8203H22.8162C25.2302 26.8203 26.2967 25.6602 27.3279 21.8398ZM25.5232 21.3359C24.6677 24.5117 24.1287 24.9336 22.8162 24.9336H8.89431C8.12087 24.9336 7.61696 24.4883 7.41775 23.668L2.97634 5.75C2.69509 4.60156 3.16384 3.88672 4.03103 3.88672C5.36696 3.88672 6.58571 5.10547 6.25759 7.30859C6.1404 8.10547 6.22243 8.33984 6.66775 8.70312C8.73025 10.2383 9.8904 13.7891 9.79665 18.1953C9.79665 18.9102 10.242 19.3672 10.9568 19.3555C12.2927 19.2617 15.2927 18.6992 19.4646 18.6992C24.6092 18.6992 26.0271 19.4609 25.5232 21.3359Z" fill="black" fill-opacity="0.85"/>
<path d="M14.625 9.79297C14.625 11.5156 16.1953 13.25 17.6484 13.25C18.9844 13.25 19.664 12.0547 20.4609 9.93359L20.7656 9.875V12.1602C20.7656 13.1445 21.2812 13.6484 22.2304 13.6484C23.9414 13.6484 25.6758 12.0898 25.6758 10.625C25.6758 9.27734 24.4804 8.60938 22.3476 7.80078L22.3008 7.50781H24.5859C25.5703 7.50781 26.0625 7.00391 26.0625 6.05469C26.0625 4.33203 24.5156 2.58594 23.0508 2.58594C21.7031 2.58594 21.0351 3.80469 20.2265 5.9375L19.9336 5.97266V3.6875C19.9336 2.71484 19.4297 2.19922 18.4804 2.19922C16.7578 2.19922 15.0117 3.76953 15.0117 5.22266C15.0117 6.55859 16.2304 7.22656 18.3633 8.03516L18.3867 8.33984H16.1133C15.1406 8.33984 14.625 8.85547 14.625 9.79297ZM19.1719 7.91797C19.1719 7.27344 19.6992 6.74609 20.3437 6.74609C20.9883 6.74609 21.5156 7.27344 21.5156 7.91797C21.5156 8.57422 20.9883 9.08984 20.3437 9.08984C19.6992 9.08984 19.1719 8.57422 19.1719 7.91797Z" fill="black" fill-opacity="0.85"/>
</svg>
