<svg width="30" height="28" viewBox="0 0 30 28" fill="none" xmlns="http://www.w3.org/2000/svg">
<g clip-path="url(#clip0_2124_24854)">
<path d="M3.01172 21.4648H26.2852C28.1602 21.4648 29.2969 20.3164 29.2969 18.4531V5.01172C29.2969 3.14844 28.1602 2 26.2852 2H3.01172C1.14844 2 0 3.14844 0 5.01172V18.4531C0 20.3164 1.14844 21.4648 3.01172 21.4648ZM3.04688 19.5781C2.32031 19.5781 1.88672 19.1445 1.88672 18.4297V5.03516C1.88672 4.32031 2.32031 3.88672 3.04688 3.88672H26.25C26.9766 3.88672 27.4102 4.32031 27.4102 5.03516V18.4297C27.4102 19.1445 26.9766 19.5781 26.25 19.5781H3.04688ZM8.75391 25.4375H20.543C21.0586 25.4375 21.4922 25.0156 21.4922 24.4883C21.4922 23.9609 21.0586 23.5391 20.543 23.5391H8.75391C8.23828 23.5391 7.80469 23.9609 7.80469 24.4883C7.80469 25.0156 8.23828 25.4375 8.75391 25.4375Z" fill="black" fill-opacity="0.85"/>
<path d="M18.1875 9.60545C18.75 9.4531 18.9141 9.33592 18.9141 8.65623V6.35936C18.9141 5.91404 18.7617 5.71482 18.1406 5.86717L14.707 6.72264C14.1328 6.86326 14.0039 6.98045 14.0039 7.67186V12.957C14.0039 13.4727 13.957 13.5664 13.3711 13.7305L12.293 14.0117C11.2266 14.293 10.3359 14.9258 10.3359 16.0742C10.3359 17.0703 11.0859 17.7969 12.2578 17.7969C13.9336 17.7969 15.0703 16.5898 15.0703 14.8906V10.8711C15.0703 10.4375 15.1758 10.3203 15.4336 10.2617L18.1875 9.60545Z" fill="black" fill-opacity="0.85"/>
</g>
<defs>
<clipPath id="clip0_2124_24854">
<rect width="29.2969" height="23.4492" fill="white" transform="translate(0 2)"/>
</clipPath>
</defs>
</svg>
