<svg width="28" height="28" viewBox="0 0 28 28" fill="none" xmlns="http://www.w3.org/2000/svg">
<g clip-path="url(#clip0_2124_24570)">
<path d="M2.69531 22.2734H25.2305C26.918 22.2734 27.9375 21.2539 27.9375 19.5664V5.51562C27.9375 3.82812 26.918 2.82031 25.2305 2.82031H2.69531C1.01953 2.82031 0 3.82812 0 5.51562V19.5664C0 21.2539 1.01953 22.2734 2.69531 22.2734ZM2.39062 17.1055C2.03906 17.1055 1.88672 16.9766 1.88672 16.6016V5.55078C1.88672 5.02344 2.21484 4.70703 2.73047 4.70703H25.207C25.7227 4.70703 26.0508 5.02344 26.0508 5.55078V16.6016C26.0508 16.9766 25.8867 17.1055 25.5352 17.1055H2.39062ZM10.2656 25.0625H17.6719V22.1211H10.2656V25.0625ZM10.1953 26.4336H17.7422C18.2578 26.4336 18.6797 26.0117 18.6797 25.4844C18.6797 24.957 18.2578 24.5352 17.7422 24.5352H10.1953C9.67969 24.5352 9.24609 24.957 9.24609 25.4844C9.24609 26.0117 9.67969 26.4336 10.1953 26.4336Z" fill="black" fill-opacity="0.85"/>
<path d="M11.9883 14.9961H15.9609C16.5938 14.9961 16.9102 14.668 16.9102 14V10.9531C16.9102 10.4258 16.7109 10.1211 16.3359 9.99219V9.19531C16.3359 7.61328 15.375 6.53516 13.9805 6.53516C12.5742 6.53516 11.625 7.61328 11.625 9.19531V10.0039C11.2383 10.1211 11.0391 10.4258 11.0391 10.9531V14C11.0391 14.668 11.3555 14.9961 11.9883 14.9961ZM12.7852 9.94531V9.08984C12.7852 8.22266 13.2422 7.67188 13.9805 7.67188C14.6953 7.67188 15.1758 8.22266 15.1758 9.08984V9.94531H12.7852Z" fill="black" fill-opacity="0.85"/>
</g>
<defs>
<clipPath id="clip0_2124_24570">
<rect width="27.9375" height="24.4336" fill="white" transform="translate(0 2)"/>
</clipPath>
</defs>
</svg>
