<svg width="30" height="28" viewBox="0 0 30 28" fill="none" xmlns="http://www.w3.org/2000/svg">
<g clip-path="url(#clip0_2124_24544)">
<path d="M3.67969 23.5156H25.8164C28.2539 23.5156 29.4961 22.2969 29.4961 19.8828V8.62109C29.4961 6.21875 28.2539 5 25.8164 5H3.67969C1.21875 5 0 6.20703 0 8.62109V19.8828C0 22.2969 1.21875 23.5156 3.67969 23.5156Z" fill="black" fill-opacity="0.85"/>
<path d="M11.0391 11.4219C10.8281 11.4219 10.6875 11.2695 10.6875 11.0352V9.67578C10.6875 9.42969 10.8281 9.28906 11.0391 9.28906H11.9414C12.1523 9.28906 12.293 9.42969 12.293 9.67578V11.0352C12.293 11.2695 12.1523 11.4219 11.9414 11.4219H11.0391ZM13.6992 11.4219C13.4883 11.4219 13.3359 11.2695 13.3359 11.0352V9.67578C13.3359 9.42969 13.4883 9.28906 13.6992 9.28906H14.5898C14.8008 9.28906 14.9414 9.42969 14.9414 9.67578V11.0352C14.9414 11.2695 14.8008 11.4219 14.5898 11.4219H13.6992ZM16.3594 11.4219C16.125 11.4219 15.9961 11.2695 15.9961 11.0352V9.67578C15.9961 9.42969 16.125 9.28906 16.3594 9.28906H17.25C17.4492 9.28906 17.6016 9.42969 17.6016 9.67578V11.0352C17.6016 11.2695 17.4492 11.4219 17.25 11.4219H16.3594ZM19.0078 11.4219C18.7734 11.4219 18.6445 11.2695 18.6445 11.0352V9.67578C18.6445 9.42969 18.7734 9.28906 19.0078 9.28906H19.875C20.1094 9.28906 20.2383 9.42969 20.2383 9.67578V11.0352C20.2383 11.2695 20.1094 11.4219 19.875 11.4219H19.0078ZM21.6445 11.4219C21.4336 11.4219 21.3047 11.2695 21.3047 11.0352V9.67578C21.3047 9.42969 21.4336 9.28906 21.6445 9.28906H22.5469C22.7578 9.28906 22.8984 9.42969 22.8984 9.67578V11.0352C22.8984 11.2695 22.7578 11.4219 22.5469 11.4219H21.6445ZM24.3164 11.4219C24.082 11.4219 23.9531 11.2695 23.9531 11.0352V9.67578C23.9531 9.42969 24.082 9.28906 24.3164 9.28906H25.1836C25.418 9.28906 25.5469 9.42969 25.5469 9.67578V11.0352C25.5469 11.2695 25.418 11.4219 25.1836 11.4219H24.3164ZM11.0391 15.3008C10.8281 15.3008 10.6875 15.1719 10.6875 14.9141V13.5664C10.6875 13.3086 10.8281 13.1797 11.0391 13.1797H11.9414C12.1523 13.1797 12.293 13.3086 12.293 13.5664V14.9141C12.293 15.1719 12.1523 15.3008 11.9414 15.3008H11.0391ZM13.6992 15.3008C13.4883 15.3008 13.3359 15.1719 13.3359 14.9141V13.5664C13.3359 13.3086 13.4883 13.1797 13.6992 13.1797H14.5898C14.8008 13.1797 14.9414 13.3086 14.9414 13.5664V14.9141C14.9414 15.1719 14.8008 15.3008 14.5898 15.3008H13.6992ZM16.3594 15.3008C16.125 15.3008 15.9961 15.1719 15.9961 14.9141V13.5664C15.9961 13.3086 16.125 13.1797 16.3594 13.1797H17.25C17.4492 13.1797 17.6016 13.3086 17.6016 13.5664V14.9141C17.6016 15.1719 17.4492 15.3008 17.25 15.3008H16.3594ZM19.0078 15.3008C18.7734 15.3008 18.6445 15.1719 18.6445 14.9141V13.5664C18.6445 13.3086 18.7734 13.1797 19.0078 13.1797H19.875C20.1094 13.1797 20.2383 13.3086 20.2383 13.5664V14.9141C20.2383 15.1719 20.1094 15.3008 19.875 15.3008H19.0078ZM21.6445 15.3008C21.4336 15.3008 21.3047 15.1719 21.3047 14.9141V13.5664C21.3047 13.3086 21.4336 13.1797 21.6445 13.1797H22.5469C22.7578 13.1797 22.8984 13.3086 22.8984 13.5664V14.9141C22.8984 15.1719 22.7578 15.3008 22.5469 15.3008H21.6445ZM24.3164 15.3008C24.082 15.3008 23.9531 15.1719 23.9531 14.9141V13.5664C23.9531 13.3086 24.082 13.1797 24.3164 13.1797H25.1836C25.418 13.1797 25.5469 13.3086 25.5469 13.5664V14.9141C25.5469 15.1719 25.418 15.3008 25.1836 15.3008H24.3164ZM11.0391 19.1914C10.8281 19.1914 10.6875 19.0508 10.6875 18.8047V17.4453C10.6875 17.2109 10.8281 17.0586 11.0391 17.0586H11.9414C12.1523 17.0586 12.293 17.2109 12.293 17.4453V18.8047C12.293 19.0508 12.1523 19.1914 11.9414 19.1914H11.0391ZM13.6992 19.1914C13.4883 19.1914 13.3359 19.0508 13.3359 18.8047V17.4453C13.3359 17.2109 13.4883 17.0586 13.6992 17.0586H22.5469C22.7578 17.0586 22.8984 17.2109 22.8984 17.4453V18.8047C22.8984 19.0508 22.7578 19.1914 22.5469 19.1914H13.6992ZM24.3164 19.1914C24.082 19.1914 23.9531 19.0508 23.9531 18.8047V17.4453C23.9531 17.2109 24.082 17.0586 24.3164 17.0586H25.1836C25.418 17.0586 25.5469 17.2109 25.5469 17.4453V18.8047C25.5469 19.0508 25.418 19.1914 25.1836 19.1914H24.3164ZM8.58984 13.5781C9.03516 14 9.03516 14.5039 8.58984 14.9258L5.05078 18.3008C4.64062 18.6875 3.9375 18.5352 3.9375 17.8789V10.625C3.9375 9.98047 4.64062 9.82812 5.05078 10.2148L8.58984 13.5781Z" fill="white"/>
</g>
<defs>
<clipPath id="clip0_2124_24544">
<rect width="29.4961" height="18.5273" fill="white" transform="translate(0 5)"/>
</clipPath>
</defs>
</svg>
