<svg width="42" height="28" viewBox="0 0 42 28" fill="none" xmlns="http://www.w3.org/2000/svg">
<path d="M0.867188 5.6875H4.60547C5.03906 5.6875 5.37891 5.79297 5.66016 6.07422L9.82031 10.2227L11.4141 9.34375L7.03125 4.96094C6.35156 4.28125 5.46094 4 4.39453 4H0.867188C0.328125 4 0 4.32812 0 4.83203C0 5.33594 0.328125 5.6875 0.867188 5.6875ZM3.05859 20.582H4.88672C4.81641 20.2305 4.75781 19.8672 4.75781 19.4805C4.75781 16.9609 6.75 14.9805 9.25781 14.9805C11.7773 14.9805 13.7578 16.9609 13.7578 19.4805C13.7578 19.8672 13.7109 20.2305 13.6289 20.582H28.5586C28.4883 20.2305 28.4297 19.8672 28.4297 19.4805C28.4297 16.9609 30.4219 14.9805 32.9297 14.9805C35.4492 14.9805 37.4297 16.9609 37.4297 19.4805C37.4297 19.8672 37.3828 20.2305 37.3008 20.582H38.8477C40.5352 20.582 41.5664 19.5156 41.5664 17.7812V13.0703C41.5664 11.4297 41.0742 10.0352 38.8945 9.35547L36.4805 8.61719C34.957 6.80078 32.2969 4.21094 27.457 4.21094H24.7031C19.875 4.21094 17.9531 4.67969 15.0703 6.48438L10.3477 9.44922L5.14453 10.082C1.91016 10.4805 0 12.3438 0 15.1328V17.4531C0 19.4453 1.11328 20.582 3.05859 20.582ZM9.25781 22.6094C11.0156 22.6094 12.3984 21.2266 12.3984 19.4805C12.3984 17.7344 11.0039 16.3398 9.25781 16.3398C7.52344 16.3398 6.12891 17.7344 6.12891 19.4805C6.12891 21.2148 7.52344 22.6094 9.25781 22.6094ZM32.9297 22.6094C34.6758 22.6094 36.0703 21.2148 36.0703 19.4805C36.0703 17.7344 34.6758 16.3398 32.9297 16.3398C31.207 16.3398 29.8008 17.7461 29.8008 19.4805C29.8008 21.2148 31.1953 22.6094 32.9297 22.6094Z" fill="black" fill-opacity="0.85"/>
</svg>
