<svg width="33" height="31" viewBox="0 0 33 31" fill="none" xmlns="http://www.w3.org/2000/svg">
<g clip-path="url(#clip0_2124_24805)">
<path d="M9.43359 25.6992C15.375 25.6992 18.8555 23.8359 18.8555 18.1641V9.25782C18.8555 7.0547 18.3281 5.5547 17.4961 4.51173C17.2148 4.14845 16.7695 4.12501 16.418 4.41798C15.3047 5.40235 12.3633 6.23439 9.43359 6.23439C6.49219 6.23439 3.5625 5.40235 2.4375 4.41798C2.08594 4.12501 1.64062 4.14845 1.35938 4.51173C0.527344 5.5547 0 7.0547 0 9.25782V18.1641C0 23.8359 3.48047 25.6992 9.43359 25.6992ZM9.43359 23.8125C4.05469 23.8125 1.88672 22.0312 1.88672 17.9883V9.36329C1.88672 8.33204 2.0625 7.3711 2.49609 6.53907C3.89062 7.62892 6.52734 8.1211 9.43359 8.1211C12.3281 8.1211 14.9648 7.62892 16.3594 6.53907C16.793 7.3711 16.9688 8.33204 16.9688 9.36329V17.9883C16.9688 22.0312 14.8008 23.8125 9.43359 23.8125Z" fill="black" fill-opacity="0.85"/>
<path d="M9.43359 4.64062C12.4336 4.64062 14.8477 3.98438 14.8477 3.12891C14.8477 2.27344 12.4336 1.62891 9.43359 1.62891C6.42188 1.62891 4.00781 2.27344 4.00781 3.12891C4.00781 3.98438 6.42188 4.64062 9.43359 4.64062Z" fill="black" fill-opacity="0.85"/>
<path d="M20.0977 30.8789C24.375 30.8789 26.4258 30.2578 28.3359 28.4883C30.8789 26.1797 32.3438 22.8047 32.3438 19.3008C32.3438 16.4531 31.3711 13.6992 29.6016 11.6836C27.5977 9.22266 25.0547 8.35547 20.0977 8.35547C15.5977 8.35547 12.4102 9.46875 10.6055 11.6836C8.82422 13.6992 7.85156 16.4414 7.85156 19.3008C7.85156 22.8047 9.31641 26.1797 11.8594 28.4883C13.7695 30.2578 15.8203 30.8789 20.0977 30.8789Z" fill="white"/>
<path d="M20.0977 29.2734C24.0469 29.2734 25.6992 28.7578 27.2461 27.3047C29.4492 25.3008 30.75 22.3828 30.75 19.3008C30.75 16.8047 29.8945 14.4141 28.3594 12.6797C27.9023 12.1055 27.1172 11.9766 26.4492 12.3867C25.1484 13.3359 23.5312 14.0039 20.0977 14.0039C16.6758 14.0039 15.0469 13.3359 13.7461 12.3867C13.0781 11.9766 12.3047 12.0938 11.8359 12.6797C10.3008 14.4141 9.44531 16.793 9.44531 19.3008C9.44531 22.3828 10.7344 25.3008 12.9375 27.3047C14.4961 28.7578 16.1602 29.2734 20.0977 29.2734ZM20.0977 27.2695C16.7695 27.2695 15.4922 26.9531 14.3086 25.8398C12.4805 24.1641 11.4609 21.8086 11.4609 19.3008C11.4609 17.1797 12.1992 15.1289 13.7344 13.5L12.2461 13.9102C13.8398 15.2578 16.4648 16.0078 20.0977 16.0078C23.7422 16.0078 26.3672 15.2578 27.9609 13.8984L26.4492 13.5C28.0078 15.1172 28.7461 17.168 28.7461 19.3008C28.7461 21.8086 27.7031 24.1641 25.8867 25.8398C24.6914 26.9531 23.4258 27.2695 20.0977 27.2695Z" fill="black" fill-opacity="0.85"/>
<path d="M20.0977 12.6797C23.0273 12.6797 25.1133 12.082 25.1133 11.3203C25.1133 10.5352 23.0273 9.94922 20.0977 9.94922C17.1562 9.94922 15.082 10.5352 15.082 11.3203C15.082 12.082 17.1562 12.6797 20.0977 12.6797Z" fill="black" fill-opacity="0.85"/>
</g>
<defs>
<clipPath id="clip0_2124_24805">
<rect width="32.3438" height="30.8789" fill="white"/>
</clipPath>
</defs>
</svg>
