<svg width="30" height="28" viewBox="0 0 30 28" fill="none" xmlns="http://www.w3.org/2000/svg">
<g clip-path="url(#clip0_2124_24542)">
<path d="M3.67969 23.5156H25.8164C28.2539 23.5156 29.4961 22.2969 29.4961 19.8828V8.62109C29.4961 6.21875 28.2539 5 25.8164 5H3.67969C1.21875 5 0 6.20703 0 8.62109V19.8828C0 22.2969 1.21875 23.5156 3.67969 23.5156Z" fill="black" fill-opacity="0.85"/>
<path d="M4.30078 11.4219C4.07812 11.4219 3.9375 11.2695 3.9375 11.0352V9.67578C3.9375 9.42969 4.07812 9.28906 4.30078 9.28906H5.19141C5.40234 9.28906 5.53125 9.42969 5.53125 9.67578V11.0352C5.53125 11.2695 5.40234 11.4219 5.19141 11.4219H4.30078ZM6.96094 11.4219C6.72656 11.4219 6.59766 11.2695 6.59766 11.0352V9.67578C6.59766 9.42969 6.72656 9.28906 6.96094 9.28906H7.83984C8.0625 9.28906 8.19141 9.42969 8.19141 9.67578V11.0352C8.19141 11.2695 8.0625 11.4219 7.83984 11.4219H6.96094ZM9.60938 11.4219C9.38672 11.4219 9.24609 11.2695 9.24609 11.0352V9.67578C9.24609 9.42969 9.38672 9.28906 9.60938 9.28906H10.5C10.7109 9.28906 10.8398 9.42969 10.8398 9.67578V11.0352C10.8398 11.2695 10.7109 11.4219 10.5 11.4219H9.60938ZM12.2578 11.4219C12.0352 11.4219 11.9062 11.2695 11.9062 11.0352V9.67578C11.9062 9.42969 12.0352 9.28906 12.2578 9.28906H13.1367C13.3594 9.28906 13.5 9.42969 13.5 9.67578V11.0352C13.5 11.2695 13.3594 11.4219 13.1367 11.4219H12.2578ZM14.8945 11.4219C14.6836 11.4219 14.543 11.2695 14.543 11.0352V9.67578C14.543 9.42969 14.6836 9.28906 14.8945 9.28906H15.8086C16.0078 9.28906 16.1484 9.42969 16.1484 9.67578V11.0352C16.1484 11.2695 16.0078 11.4219 15.8086 11.4219H14.8945ZM17.5664 11.4219C17.3438 11.4219 17.2031 11.2695 17.2031 11.0352V9.67578C17.2031 9.42969 17.3438 9.28906 17.5664 9.28906H18.4453C18.6562 9.28906 18.8086 9.42969 18.8086 9.67578V11.0352C18.8086 11.2695 18.6562 11.4219 18.4453 11.4219H17.5664ZM4.30078 15.3008C4.07812 15.3008 3.9375 15.1719 3.9375 14.9141V13.5664C3.9375 13.3086 4.07812 13.1797 4.30078 13.1797H5.19141C5.40234 13.1797 5.53125 13.3086 5.53125 13.5664V14.9141C5.53125 15.1719 5.40234 15.3008 5.19141 15.3008H4.30078ZM6.96094 15.3008C6.72656 15.3008 6.59766 15.1719 6.59766 14.9141V13.5664C6.59766 13.3086 6.72656 13.1797 6.96094 13.1797H7.83984C8.0625 13.1797 8.19141 13.3086 8.19141 13.5664V14.9141C8.19141 15.1719 8.0625 15.3008 7.83984 15.3008H6.96094ZM9.60938 15.3008C9.38672 15.3008 9.24609 15.1719 9.24609 14.9141V13.5664C9.24609 13.3086 9.38672 13.1797 9.60938 13.1797H10.5C10.7109 13.1797 10.8398 13.3086 10.8398 13.5664V14.9141C10.8398 15.1719 10.7109 15.3008 10.5 15.3008H9.60938ZM12.2578 15.3008C12.0352 15.3008 11.9062 15.1719 11.9062 14.9141V13.5664C11.9062 13.3086 12.0352 13.1797 12.2578 13.1797H13.1367C13.3594 13.1797 13.5 13.3086 13.5 13.5664V14.9141C13.5 15.1719 13.3594 15.3008 13.1367 15.3008H12.2578ZM14.8945 15.3008C14.6836 15.3008 14.543 15.1719 14.543 14.9141V13.5664C14.543 13.3086 14.6836 13.1797 14.8945 13.1797H15.8086C16.0078 13.1797 16.1484 13.3086 16.1484 13.5664V14.9141C16.1484 15.1719 16.0078 15.3008 15.8086 15.3008H14.8945ZM17.5664 15.3008C17.3438 15.3008 17.2031 15.1719 17.2031 14.9141V13.5664C17.2031 13.3086 17.3438 13.1797 17.5664 13.1797H18.4453C18.6562 13.1797 18.8086 13.3086 18.8086 13.5664V14.9141C18.8086 15.1719 18.6562 15.3008 18.4453 15.3008H17.5664ZM4.30078 19.1914C4.07812 19.1914 3.9375 19.0508 3.9375 18.8047V17.4453C3.9375 17.2109 4.07812 17.0586 4.30078 17.0586H5.19141C5.40234 17.0586 5.53125 17.2109 5.53125 17.4453V18.8047C5.53125 19.0508 5.40234 19.1914 5.19141 19.1914H4.30078ZM6.96094 19.1914C6.72656 19.1914 6.59766 19.0508 6.59766 18.8047V17.4453C6.59766 17.2109 6.72656 17.0586 6.96094 17.0586H15.8086C16.0078 17.0586 16.1484 17.2109 16.1484 17.4453V18.8047C16.1484 19.0508 16.0078 19.1914 15.8086 19.1914H6.96094ZM17.5664 19.1914C17.3438 19.1914 17.2031 19.0508 17.2031 18.8047V17.4453C17.2031 17.2109 17.3438 17.0586 17.5664 17.0586H18.4453C18.6562 17.0586 18.8086 17.2109 18.8086 17.4453V18.8047C18.8086 19.0508 18.6562 19.1914 18.4453 19.1914H17.5664ZM20.8477 13.5781L24.3867 10.2148C24.7969 9.82812 25.5 9.98047 25.5 10.625V17.8789C25.5 18.5352 24.7969 18.6875 24.3867 18.3008L20.8477 14.9258C20.4023 14.5039 20.4023 14 20.8477 13.5781Z" fill="white"/>
</g>
<defs>
<clipPath id="clip0_2124_24542">
<rect width="29.4961" height="18.5273" fill="white" transform="translate(0 5)"/>
</clipPath>
</defs>
</svg>
