<svg width="30" height="28" viewBox="0 0 30 28" fill="none" xmlns="http://www.w3.org/2000/svg">
<g clip-path="url(#clip0_2124_50026)">
<path d="M1.9546 16.0664C2.63429 17.2383 3.66554 17.4844 4.81398 16.8282L20.0601 8.02739C21.2202 7.35942 21.5249 6.32817 20.8452 5.15629L19.2515 2.4141C18.5718 1.23051 17.5523 0.984417 16.4038 1.6641L1.13429 10.4766C-0.0258653 11.1329 -0.318834 12.1407 0.360853 13.3243L1.9546 16.0664ZM15.8296 6.2227C15.5718 5.77739 15.7241 5.20317 16.1694 4.94535C16.6265 4.68754 17.2007 4.83989 17.4585 5.29692C17.7163 5.74223 17.564 6.31645 17.1069 6.57426C16.6616 6.83207 16.0874 6.67973 15.8296 6.2227ZM12.8062 7.96879C12.5484 7.52348 12.7007 6.94926 13.146 6.69145C13.603 6.43364 14.1773 6.58598 14.4351 7.03129C14.6929 7.4766 14.5405 8.06254 14.0835 8.32035C13.6382 8.57817 13.064 8.4141 12.8062 7.96879ZM9.78273 9.71489C9.52492 9.26957 9.68898 8.69535 10.1343 8.42582C10.5796 8.16801 11.1538 8.33207 11.4116 8.77739C11.6694 9.2227 11.5171 9.79692 11.0718 10.0547C10.6265 10.3125 10.0523 10.1602 9.78273 9.71489ZM6.77101 11.4493C6.5132 11.0039 6.66554 10.4414 7.12257 10.1836C7.56788 9.9141 8.15382 10.0665 8.41163 10.5118C8.66945 10.9688 8.50538 11.5313 8.06007 11.7891C7.60304 12.0469 7.02882 11.9063 6.77101 11.4493ZM3.74757 13.1954C3.48976 12.75 3.6421 12.1758 4.09913 11.918C4.54445 11.6602 5.11867 11.8125 5.37648 12.2579C5.64601 12.7149 5.48195 13.2774 5.03663 13.5352C4.5796 13.793 4.00538 13.6524 3.74757 13.1954ZM18.2671 2.23832L18.9234 3.36332L20.9038 2.2266C21.2319 2.0391 21.3257 1.65239 21.1382 1.33598C20.9624 1.01957 20.564 0.902386 20.2476 1.08989L18.2671 2.23832ZM19.8609 4.98051L20.5171 6.11723L22.4859 4.98051C22.8491 4.78129 22.9312 4.44145 22.7202 4.07817C22.5327 3.75004 22.1577 3.65629 21.8296 3.84379L19.8609 4.98051ZM9.8882 26.0391C10.5562 27.1993 11.6109 27.4571 12.771 26.8008L28.0171 18C29.1655 17.3321 29.4468 16.2891 28.7905 15.1289L27.1968 12.3868C26.5171 11.2032 25.4976 10.9571 24.3491 11.6368L9.0796 20.4493C7.93117 21.1055 7.62648 22.1133 8.30617 23.2969L9.8882 26.0391ZM23.7749 16.1954C23.5171 15.75 23.6577 15.1875 24.1148 14.9297C24.5718 14.6602 25.1343 14.8125 25.3921 15.2579C25.6499 15.7149 25.5093 16.2774 25.0523 16.5352C24.5952 16.8047 24.0327 16.6524 23.7749 16.1954ZM20.7515 17.9414C20.4819 17.4961 20.646 16.9336 21.103 16.6758C21.5484 16.4063 22.1226 16.5586 22.3804 17.0039C22.6382 17.461 22.4859 18.0235 22.0405 18.2813C21.5835 18.5508 21.0093 18.3985 20.7515 17.9414ZM17.7398 19.6875C17.4819 19.2422 17.6343 18.668 18.0796 18.4102C18.5249 18.1407 19.1109 18.3047 19.3687 18.75C19.6265 19.1954 19.4624 19.7696 19.0171 20.0274C18.5718 20.2969 17.9976 20.1329 17.7398 19.6875ZM14.7163 21.4219C14.4585 20.9766 14.6226 20.4024 15.0679 20.1446C15.5132 19.8868 16.0874 20.0391 16.3452 20.4961C16.603 20.9414 16.4507 21.5039 16.0054 21.7735C15.5601 22.0313 14.9741 21.8789 14.7163 21.4219ZM11.6929 23.168C11.4351 22.7227 11.5991 22.1485 12.0444 21.8789C12.4898 21.6211 13.064 21.7852 13.3218 22.2305C13.5796 22.6758 13.4273 23.2618 12.9819 23.5196C12.5366 23.7774 11.9507 23.6133 11.6929 23.168ZM10.8843 26.2383L10.228 25.0899L8.23585 26.2383C7.90773 26.4258 7.8257 26.8008 8.0132 27.1289C8.22413 27.4922 8.56398 27.5977 8.90382 27.3868L10.8843 26.2383ZM9.30226 23.4844L8.64601 22.3477L6.66554 23.4844C6.33742 23.6719 6.24367 24.0704 6.43117 24.3868C6.61867 24.7032 6.99367 24.8086 7.31007 24.6211L9.30226 23.4844ZM6.06788 17.4141H12.0562L22.7202 11.25H16.7319L6.06788 17.4141Z" fill="black" fill-opacity="0.85"/>
</g>
<defs>
<clipPath id="clip0_2124_50026">
<rect width="29.1381" height="26.5118" fill="white" transform="translate(0 1)"/>
</clipPath>
</defs>
</svg>
