<svg width="28" height="28" viewBox="0 0 28 28" fill="none" xmlns="http://www.w3.org/2000/svg">
<g clip-path="url(#clip0_2124_62645)">
<path d="M3.03516 8.60156C3.03516 9.26953 3.50391 9.90234 4.42969 9.90234H23.4844C24.4219 9.90234 24.8789 9.26953 24.8789 8.60156C24.8789 8.15625 24.6797 7.6875 24.2227 7.34766L15.4102 0.5625C14.918 0.1875 14.4492 0 13.957 0C13.4648 0 12.9961 0.1875 12.5039 0.5625L3.69141 7.34766C3.24609 7.6875 3.03516 8.15625 3.03516 8.60156ZM3.01172 13.7227C3.01172 14.332 3.43359 14.7422 4.06641 14.7422H23.8477C24.4805 14.7422 24.9023 14.332 24.9023 13.7227C24.9023 13.1133 24.4805 12.6914 23.8477 12.6914H4.06641C3.43359 12.6914 3.01172 13.1133 3.01172 13.7227ZM3 18.8438C3 19.2891 3.19922 19.7578 3.65625 20.0977L12.4688 26.8828C12.9609 27.2578 13.4297 27.4453 13.9219 27.4453C14.4141 27.4453 14.8828 27.2578 15.375 26.8828L24.1875 20.0977C24.6445 19.7578 24.8438 19.2891 24.8438 18.8438C24.8438 18.1641 24.3867 17.5312 23.4492 17.5312H4.39453C3.46875 17.5312 3 18.1641 3 18.8438Z" fill="black" fill-opacity="0.85"/>
</g>
<defs>
<clipPath id="clip0_2124_62645">
<rect width="21.9023" height="27.457" fill="white" transform="translate(3)"/>
</clipPath>
</defs>
</svg>
