<svg width="28" height="28" viewBox="0 0 28 28" fill="none" xmlns="http://www.w3.org/2000/svg">
<path d="M13.9531 25.9062C20.4922 25.9062 25.9062 20.4805 25.9062 13.9531C25.9062 7.41406 20.4805 2 13.9414 2C7.41406 2 2 7.41406 2 13.9531C2 20.4805 7.42578 25.9062 13.9531 25.9062Z" fill="black" fill-opacity="0.85"/>
<path d="M8.292 9.75781L11.3271 6.81641C11.4795 6.65234 11.7021 6.55859 11.8896 6.55859C12.3467 6.55859 12.6748 6.875 12.6748 7.33203C12.6748 7.54297 12.5928 7.74219 12.4287 7.89453L11.1631 9.13672L10.6826 9.57031L11.2451 9.55859H19.0615C19.5185 9.55859 19.8467 9.88672 19.8467 10.3438C19.8467 10.7891 19.5068 11.1406 19.0615 11.1406H11.2334L10.6709 11.1055L11.1631 11.5742L12.4287 12.8047C12.5928 12.957 12.6748 13.1445 12.6748 13.3672C12.6748 13.8125 12.3467 14.1289 11.8896 14.1289C11.7021 14.1289 11.4912 14.0352 11.3271 13.9062L8.292 10.9297C7.97558 10.625 7.97558 10.0742 8.292 9.75781ZM19.5888 18.1602L16.5654 21.1367C16.3896 21.2891 16.1787 21.3828 15.9912 21.3828C15.5459 21.3828 15.2178 21.0547 15.2178 20.6094C15.2178 20.3867 15.3115 20.2109 15.4638 20.0469L16.7295 18.8047L17.2334 18.3711L16.6474 18.3828H8.81933C8.38574 18.3828 8.05761 18.043 8.05761 17.5859C8.05761 17.1289 8.38574 16.8008 8.81933 16.8008H16.6592L17.2334 16.8359L16.7295 16.3672L15.4404 15.1367C15.2881 14.9844 15.2178 14.7969 15.2178 14.5742C15.2178 14.1289 15.5342 13.8125 15.9912 13.8125C16.1904 13.8125 16.4131 13.9062 16.5654 14.0469L19.5888 17.0234C19.9052 17.3398 19.9287 17.832 19.5888 18.1602Z" fill="white"/>
</svg>
