<svg width="28" height="28" viewBox="0 0 28 28" fill="none" xmlns="http://www.w3.org/2000/svg">
<g clip-path="url(#clip0_2124_24770)">
<path d="M8.10156 24.4375H20.4297C25.2227 24.4375 27.5312 22.1406 27.5312 17.3711V11.0664C27.5312 6.29688 25.2227 4 20.4297 4H8.10156C3.32031 4 1 6.29688 1 11.0664V17.3711C1 22.1406 3.32031 24.4375 8.10156 24.4375ZM8.10156 22.5508C4.50391 22.5508 2.88672 20.9453 2.88672 17.3711V11.0664C2.88672 7.49219 4.50391 5.88672 8.10156 5.88672H20.4297C24.0391 5.88672 25.6445 7.49219 25.6445 11.0664V17.3711C25.6445 20.9453 24.0391 22.5508 20.4297 22.5508H8.10156ZM1.94922 11.8633H26.582V10.6797H1.94922V11.8633ZM9.57812 12.6719H18.9648C19.7852 12.6719 20.3711 12.0977 20.3711 11.2656C20.3711 10.4453 19.7852 9.87109 18.9648 9.87109H9.57812C8.78125 9.87109 8.16016 10.4453 8.16016 11.2656C8.16016 12.0977 8.78125 12.6719 9.57812 12.6719ZM14.2656 16.668C14.8867 16.6562 15.4023 16.1406 15.4023 15.5547C15.4023 14.9336 14.8867 14.418 14.2656 14.418C13.6445 14.418 13.1406 14.9336 13.1406 15.5547C13.1406 16.1641 13.6445 16.6797 14.2656 16.668Z" fill="black" fill-opacity="0.85"/>
</g>
<defs>
<clipPath id="clip0_2124_24770">
<rect width="26.5312" height="20.4492" fill="white" transform="translate(1 4)"/>
</clipPath>
</defs>
</svg>
