<svg width="33" height="28" viewBox="0 0 33 28" fill="none" xmlns="http://www.w3.org/2000/svg">
<g clip-path="url(#clip0_2124_67794)">
<path d="M16.0195 24.3828C25.4883 24.3828 32.0273 16.7305 32.0273 14.3398C32.0273 11.9375 25.4766 4.29688 16.0195 4.29688C6.67969 4.29688 0 11.9375 0 14.3398C0 16.7305 6.66797 24.3828 16.0195 24.3828ZM16.0195 22.5312C8.29688 22.5312 2.05078 15.9922 2.05078 14.3398C2.05078 12.9453 8.29688 6.14843 16.0195 6.14843C23.707 6.14843 29.9766 12.9453 29.9766 14.3398C29.9766 15.9922 23.707 22.5312 16.0195 22.5312ZM16.0195 20.9023C19.6641 20.9023 22.5938 17.9141 22.5938 14.3398C22.5938 10.6719 19.6641 7.77733 16.0195 7.77733C12.3516 7.77733 9.42188 10.6719 9.42188 14.3398C9.42188 17.9141 12.3516 20.9023 16.0195 20.9023ZM16.0195 16.5195C14.8008 16.5195 13.8164 15.5352 13.8164 14.3398C13.8164 13.1328 14.8008 12.1602 16.0195 12.1602C17.2266 12.1602 18.2109 13.1328 18.2109 14.3398C18.2109 15.5352 17.2266 16.5195 16.0195 16.5195Z" fill="black" fill-opacity="0.85"/>
<path d="M23.9658 25.4609C24.8682 26.3516 26.2979 26.375 27.1885 25.4492C28.0908 24.5117 28.0557 23.1289 27.1768 22.25L7.583 2.66797C6.70409 1.77734 5.25097 1.77734 4.36035 2.66797C3.48144 3.53516 3.48144 5 4.36035 5.87891L23.9658 25.4609Z" fill="white"/>
<path d="M24.9385 24.4883C25.2901 24.8516 25.8408 24.875 26.2158 24.4883C26.5908 24.1016 26.5674 23.5742 26.2158 23.2109L6.61036 3.62891C6.27051 3.27734 5.68457 3.27734 5.32129 3.62891C4.98145 3.96875 4.98145 4.56641 5.32129 4.90625L24.9385 24.4883Z" fill="black" fill-opacity="0.85"/>
</g>
<defs>
<clipPath id="clip0_2124_67794">
<rect width="32.0273" height="24.668" fill="white" transform="translate(0 2)"/>
</clipPath>
</defs>
</svg>
