<svg width="28" height="28" viewBox="0 0 28 28" fill="none" xmlns="http://www.w3.org/2000/svg">
<path d="M9.20703 22.1289H24.6641C25.1914 22.1289 25.6133 21.7188 25.6133 21.1914C25.6133 20.6523 25.1914 20.2422 24.6641 20.2422H9.20703C8.67969 20.2422 8.25781 20.6523 8.25781 21.1914C8.25781 21.7188 8.67969 22.1289 9.20703 22.1289Z" fill="black" fill-opacity="0.85"/>
<path d="M4.05078 23.7461C5.44531 23.7461 6.26562 23.125 6.26562 22.1406C6.26562 21.4961 5.82031 21.0508 5.01172 20.9805V20.9453C5.59766 20.8398 6.06641 20.4414 6.06641 19.7617C6.06641 18.8711 5.19922 18.3789 4.03906 18.3789C3.125 18.3789 2.12891 18.8125 2.12891 19.5859C2.12891 19.9141 2.36328 20.1484 2.72656 20.1484C2.98438 20.1484 3.10156 20.043 3.26562 19.8672C3.53516 19.5742 3.74609 19.4805 4.03906 19.4805C4.40234 19.4805 4.67188 19.6562 4.67188 20.0078C4.67188 20.3359 4.39062 20.5 3.91016 20.5H3.78125C3.45312 20.5 3.24219 20.6641 3.24219 21.0039C3.24219 21.3203 3.44141 21.5078 3.78125 21.5078H3.93359C4.46094 21.5078 4.74219 21.6836 4.74219 22.0469C4.74219 22.3633 4.44922 22.5977 4.05078 22.5977C3.64062 22.5977 3.34766 22.3633 3.125 22.1406C2.98438 22.0117 2.86719 21.918 2.64453 21.918C2.26953 21.918 2 22.1406 2 22.5039C2 23.3125 3.10156 23.7461 4.05078 23.7461Z" fill="black" fill-opacity="0.85"/>
<path d="M9.20703 15.0508H24.6641C25.1914 15.0508 25.6133 14.6289 25.6133 14.1016C25.6133 13.5742 25.1914 13.1641 24.6641 13.1641H9.20703C8.67969 13.1641 8.25781 13.5742 8.25781 14.1016C8.25781 14.6289 8.67969 15.0508 9.20703 15.0508Z" fill="black" fill-opacity="0.85"/>
<path d="M2.66797 16.4453H5.67969C5.99609 16.4453 6.24219 16.2227 6.24219 15.8945C6.24219 15.543 6.00781 15.3203 5.67969 15.3203H4.00391V15.2852L4.96484 14.5117C5.76172 13.8555 6.07812 13.4805 6.07812 12.7891C6.07812 11.8516 5.29297 11.2188 4.02734 11.2188C2.90234 11.2188 2.09375 11.8047 2.09375 12.5547C2.09375 12.9297 2.33984 13.1289 2.73828 13.1289C3.00781 13.1289 3.18359 13.0469 3.34766 12.7773C3.51172 12.4961 3.72266 12.3438 4.05078 12.3438C4.39062 12.3438 4.63672 12.5664 4.63672 12.8945C4.63672 13.1758 4.49609 13.4219 3.88672 13.9023L2.35156 15.168C2.11719 15.3555 2.02344 15.5664 2.02344 15.8242C2.02344 16.1875 2.28125 16.4453 2.66797 16.4453Z" fill="black" fill-opacity="0.85"/>
<path d="M9.20703 7.96094H24.6641C25.1914 7.96094 25.6133 7.55078 25.6133 7.02344C25.6133 6.48438 25.1914 6.07422 24.6641 6.07422H9.20703C8.67969 6.07422 8.25781 6.48438 8.25781 7.02344C8.25781 7.55078 8.67969 7.96094 9.20703 7.96094Z" fill="black" fill-opacity="0.85"/>
<path d="M4.55469 9.37891C5 9.37891 5.31641 9.12109 5.31641 8.59375V4.80859C5.31641 4.31641 4.96484 4 4.44922 4C4.03906 4 3.78125 4.14062 3.48828 4.33984L2.65625 4.91406C2.42187 5.07812 2.29297 5.23047 2.29297 5.47656C2.29297 5.78125 2.52734 5.99219 2.79687 5.99219C2.94922 5.99219 3.01953 5.96875 3.21875 5.82812L3.75781 5.46484H3.78125V8.59375C3.78125 9.12109 4.08594 9.37891 4.55469 9.37891Z" fill="black" fill-opacity="0.85"/>
</svg>
