<svg width="28" height="28" viewBox="0 0 28 28" fill="none" xmlns="http://www.w3.org/2000/svg">
<path d="M13.9531 25.9062C20.4922 25.9062 25.9062 20.4805 25.9062 13.9531C25.9062 7.41406 20.4805 2 13.9414 2C7.41406 2 2 7.41406 2 13.9531C2 20.4805 7.42578 25.9062 13.9531 25.9062ZM13.9531 23.9141C8.42188 23.9141 4.00391 19.4844 4.00391 13.9531C4.00391 8.42188 8.41016 3.99219 13.9414 3.99219C19.4727 3.99219 23.9141 8.42188 23.9141 13.9531C23.9141 19.4844 19.4844 23.9141 13.9531 23.9141Z" fill="black" fill-opacity="0.85"/>
<path d="M10.1797 15.1133H17.1641C18.9805 15.1133 20.375 13.707 20.375 11.9727C20.375 10.1797 18.9102 8.87891 17.0117 8.87891C16.2969 7.49609 14.9961 6.58203 13.3789 6.58203C11.2695 6.58203 9.52344 8.25781 9.32422 10.3438C8.31641 10.6367 7.54297 11.5156 7.54297 12.7109C7.54297 14.0352 8.50391 15.1133 10.1797 15.1133ZM11.9844 18.4297C11.8906 18.6055 11.9727 18.7461 12.1719 18.7461H13.3906L12.4414 21.0664C12.3945 21.1719 12.418 21.2656 12.4883 21.3008C12.5586 21.3242 12.6406 21.3008 12.7227 21.2188L15.875 17.9961C16.0273 17.832 15.9688 17.6211 15.7461 17.6211H14.3164L15.0078 16.2969C15.0781 16.1445 15.0312 16.0039 14.8555 16.0039H13.2969C13.0977 16.0039 13.0039 16.0742 12.9336 16.2266L11.9844 18.4297Z" fill="black" fill-opacity="0.85"/>
</svg>
