<svg width="28" height="28" viewBox="0 0 28 28" fill="none" xmlns="http://www.w3.org/2000/svg">
<path d="M6.67969 24.5977H20.8945C23.3555 24.5977 24.5742 23.3789 24.5742 20.9648V6.65625C24.5742 4.24219 23.3555 3.02344 20.8945 3.02344H6.67969C4.23047 3.02344 3 4.23047 3 6.65625V20.9648C3 23.3906 4.23047 24.5977 6.67969 24.5977Z" fill="black" fill-opacity="0.85"/>
<path d="M10.0078 18.9258C7.60547 18.9258 6.87891 16.2305 6.87891 13.793C6.87891 11.3555 7.60547 8.66016 10.0078 8.66016C12.4219 8.66016 13.1484 11.3555 13.1484 13.793C13.1484 16.2305 12.4219 18.9258 10.0078 18.9258ZM10.0078 17.4844C10.9922 17.4844 11.3672 15.8906 11.3672 13.793C11.3672 11.6836 10.9922 10.1016 10.0078 10.1016C9.02344 10.1016 8.64844 11.6836 8.64844 13.793C8.64844 15.8906 9.02344 17.4844 10.0078 17.4844ZM17.4844 18.9258C16.3945 18.9258 15.3281 18.293 14.8945 17.3086C14.7891 17.0742 14.7188 16.8047 14.7188 16.5234C14.7188 16.0781 15.0117 15.7969 15.4453 15.7969C15.7734 15.7969 16.043 15.9844 16.1836 16.3711C16.4062 17.0273 16.793 17.5078 17.4609 17.5078C18.3516 17.5078 18.7031 16.4883 18.7031 15.4805C18.7031 14.5898 18.3633 13.5234 17.4844 13.5234C16.9922 13.5234 16.6875 13.8047 16.418 14.2031C16.1602 14.5312 15.9727 14.6602 15.6562 14.6602C15.082 14.6602 14.8477 14.25 14.8477 13.793C14.8477 13.6289 14.8477 13.4414 14.8711 13.2539L15.0703 9.94922C15.1055 9.32812 15.3984 8.90625 16.0195 8.90625H19.3477C19.7461 8.90625 20.0273 9.22266 20.0273 9.62109C20.0273 10.0547 19.7578 10.3477 19.3477 10.3477H16.5117L16.3242 13.2773H16.3711C16.6758 12.5742 17.3438 12.2461 18.0469 12.2461C19.6055 12.2461 20.4023 13.7695 20.4023 15.4336C20.4023 17.3438 19.3711 18.9258 17.4844 18.9258Z" fill="white"/>
</svg>
