<svg width="28" height="28" viewBox="0 0 28 28" fill="none" xmlns="http://www.w3.org/2000/svg">
<path d="M13.9531 25.9062C20.4922 25.9062 25.9062 20.4805 25.9062 13.9531C25.9062 7.41406 20.4805 2 13.9414 2C7.41406 2 2 7.41406 2 13.9531C2 20.4805 7.42578 25.9062 13.9531 25.9062ZM13.9531 23.9141C8.42188 23.9141 4.00391 19.4844 4.00391 13.9531C4.00391 8.42188 8.41016 3.99219 13.9414 3.99219C19.4727 3.99219 23.9141 8.42188 23.9141 13.9531C23.9141 19.4844 19.4844 23.9141 13.9531 23.9141Z" fill="black" fill-opacity="0.85"/>
<path d="M8.41016 18.6875H12.4766C12.8984 18.6875 13.1445 18.418 13.1445 18.0078C13.1445 17.5625 12.8867 17.3164 12.4766 17.3164H9.69922V17.2227L11.4102 15.0547C12.582 13.6016 12.9688 12.7344 12.9688 11.7031C12.9688 10.1211 11.8906 8.97266 10.2734 8.97266C8.77344 8.97266 7.63672 10.2148 7.63672 11.4336C7.63672 11.8672 7.89453 12.1719 8.33984 12.1719C8.72656 12.1719 8.96094 11.9961 9.07812 11.6094C9.30078 10.8242 9.59375 10.332 10.2617 10.332C10.9766 10.332 11.3633 10.9531 11.3633 11.7852C11.3633 12.7227 10.7188 13.6719 10.0977 14.4688L8.05859 17.0703C7.83594 17.3516 7.625 17.6445 7.625 18.0078C7.625 18.4062 7.88281 18.6875 8.41016 18.6875ZM17.2695 18.9336C19.0977 18.9336 20.0938 17.3984 20.0938 15.5469C20.0938 13.9297 19.3203 12.4531 17.8086 12.4531C17.1172 12.4531 16.4844 12.7695 16.1797 13.4492H16.1328L16.3203 10.6016H19.0742C19.4727 10.6016 19.7305 10.3203 19.7305 9.91016C19.7305 9.52344 19.4609 9.21875 19.0742 9.21875H15.8516C15.2422 9.21875 14.9609 9.61719 14.9258 10.2266L14.7266 13.4375C14.7148 13.6133 14.7148 13.8008 14.7148 13.9531C14.7148 14.3984 14.9375 14.7969 15.4766 14.7969C15.8047 14.7969 15.9805 14.668 16.2266 14.3516C16.4961 13.9648 16.7891 13.6836 17.2695 13.6836C18.125 13.6836 18.4531 14.7266 18.4531 15.5938C18.4531 16.5664 18.1133 17.5625 17.2461 17.5625C16.5898 17.5625 16.2148 17.0938 16.0039 16.4492C15.8633 16.0742 15.6055 15.8984 15.2891 15.8984C14.8672 15.8984 14.5859 16.168 14.5859 16.6016C14.5859 16.8711 14.6562 17.1289 14.7617 17.3633C15.1719 18.3125 16.2031 18.9336 17.2695 18.9336Z" fill="black" fill-opacity="0.85"/>
</svg>
