<svg width="28" height="28" viewBox="0 0 28 28" fill="none" xmlns="http://www.w3.org/2000/svg">
<g clip-path="url(#clip0_2124_24693)">
<path d="M7.12109 4.10547V24.3086C7.12109 26.1602 8.43359 27.4023 10.3672 27.4023H23.457C25.4023 27.4023 26.7031 26.1602 26.7031 24.3086V4.10547C26.7031 2.25391 25.4023 1 23.457 1H10.3672C8.43359 1 7.12109 2.25391 7.12109 4.10547ZM9.00781 23.9922V4.42188C9.00781 3.46094 9.60547 2.88672 10.6133 2.88672H23.2227C24.2305 2.88672 24.8164 3.46094 24.8164 4.42188V23.9922C24.8164 24.9531 24.2305 25.5156 23.2227 25.5156H10.6133C9.60547 25.5156 9.00781 24.9531 9.00781 23.9922Z" fill="black" fill-opacity="0.85"/>
<path d="M4.44922 16.6328H14.6211C16.0391 16.6328 17.0703 15.5078 17.0703 14.1953C17.0703 12.8828 16.0391 11.7578 14.6211 11.7578H4.44922C3.04297 11.7578 2 12.8828 2 14.1953C2 15.5078 3.04297 16.6328 4.44922 16.6328Z" fill="white"/>
<path d="M4.44922 15.0273H12.1016L14.5742 14.9102L12.0078 17.207L11.3398 17.875C11.1875 18.0391 11.0938 18.2617 11.0938 18.5078C11.0938 18.9883 11.4336 19.3164 11.8906 19.3164C12.1367 19.3164 12.3477 19.2227 12.5117 19.0586L16.7656 14.8164C16.9648 14.6172 17.0703 14.3945 17.0703 14.1953C17.0703 13.9961 16.9648 13.75 16.7656 13.5625L12.5117 9.33203C12.3477 9.16797 12.1367 9.07422 11.8906 9.07422C11.4336 9.07422 11.0938 9.40234 11.0938 9.87109C11.0938 10.1289 11.1875 10.3398 11.3398 10.5039L12.0078 11.1836L14.5742 13.4688L12.1016 13.3516H4.44922C3.92188 13.3516 3.59375 13.7617 3.59375 14.1953C3.59375 14.6289 3.92188 15.0273 4.44922 15.0273Z" fill="black" fill-opacity="0.85"/>
</g>
<defs>
<clipPath id="clip0_2124_24693">
<rect width="24.7031" height="26.4258" fill="white" transform="translate(2 1)"/>
</clipPath>
</defs>
</svg>
