<svg width="28" height="28" viewBox="0 0 28 28" fill="none" xmlns="http://www.w3.org/2000/svg">
<path d="M13.9531 25.9062C20.4922 25.9062 25.9062 20.4805 25.9062 13.9531C25.9062 7.41406 20.4805 2 13.9414 2C7.41406 2 2 7.41406 2 13.9531C2 20.4805 7.42578 25.9062 13.9531 25.9062ZM13.9531 23.9141C8.42188 23.9141 4.00391 19.4844 4.00391 13.9531C4.00391 8.42188 8.41016 3.99219 13.9414 3.99219C19.4727 3.99219 23.9141 8.42188 23.9141 13.9531C23.9141 19.4844 19.4844 23.9141 13.9531 23.9141Z" fill="black" fill-opacity="0.85"/>
<path d="M10.3086 18.8867C11.9844 18.8867 13.2852 17.832 13.2852 16.0742C13.2852 14.6211 12.4062 13.9062 11.4219 13.8008V13.7539C12.4883 13.4727 13.0039 12.5352 13.0039 11.5508C13.0039 9.93359 11.7852 9.00781 10.2617 9.00781C9.05469 9.00781 8 9.6875 7.67188 10.7305C7.60156 10.9531 7.57812 11.1641 7.57812 11.3633C7.57812 11.7383 7.83594 12.0547 8.30469 12.0547C8.70312 12.0547 8.92578 11.8906 9.04297 11.4922C9.23047 10.8008 9.60547 10.3555 10.2617 10.3555C11.0352 10.3555 11.4102 10.9648 11.4102 11.7383C11.4102 12.5938 10.9297 13.2148 10.0508 13.2148H9.76953C9.37109 13.2148 9.125 13.4609 9.125 13.8359C9.125 14.2227 9.38281 14.457 9.76953 14.457H10.0625C11.0586 14.457 11.6094 14.9961 11.6094 16.0273C11.6094 16.8359 11.1875 17.5156 10.3086 17.5156C9.45312 17.5156 9.07812 16.9414 8.9375 16.4141C8.82031 16.0391 8.57422 15.8398 8.1875 15.8398C7.73047 15.8398 7.42578 16.1094 7.42578 16.5781C7.42578 16.7891 7.46094 17 7.51953 17.1875C7.85938 18.2773 9.04297 18.8867 10.3086 18.8867ZM17.5391 18.9219C19.8828 18.9219 20.5742 16.2969 20.5742 13.9414C20.5742 11.5859 19.8828 8.96094 17.5391 8.96094C15.207 8.96094 14.5156 11.5859 14.5156 13.9414C14.5156 16.2969 15.207 18.9219 17.5391 18.9219ZM17.5391 17.5273C16.5898 17.5273 16.2266 15.9688 16.2266 13.9414C16.2266 11.9023 16.5898 10.3437 17.5391 10.3437C18.5 10.3437 18.8633 11.9023 18.8633 13.9414C18.8633 15.9688 18.5 17.5273 17.5391 17.5273Z" fill="black" fill-opacity="0.85"/>
</svg>
