<svg width="28" height="28" viewBox="0 0 28 28" fill="none" xmlns="http://www.w3.org/2000/svg">
<g clip-path="url(#clip0_2124_89076)">
<path d="M13.9531 25.918C20.4922 25.918 25.9062 20.5039 25.9062 13.9648C25.9062 7.4375 20.4805 2.01172 13.9414 2.01172C7.41406 2.01172 2 7.4375 2 13.9648C2 20.5039 7.42578 25.918 13.9531 25.918Z" fill="black" fill-opacity="0.85"/>
<path d="M7.16775 13.7891C6.57009 14.082 6.2654 13.3672 6.73416 13.1328L11.5974 10.5781C12.0076 10.3672 12.3357 10.3672 12.7459 10.5781L17.3865 13.0039V8.58594C17.3865 8.38672 17.4803 8.21094 17.6678 8.14062C17.8436 8.07031 17.9842 8.02344 18.3357 8.02344C19.1678 8.02344 19.6951 8.43359 20.4568 8.43359C20.8436 8.43359 21.0193 8.32812 21.1834 8.32812C21.3709 8.32812 21.4529 8.43359 21.4529 8.58594V10.8359C21.4529 11.0586 21.3592 11.1992 21.16 11.2812C20.9842 11.375 20.8436 11.4102 20.492 11.4102C19.6834 11.4102 19.1678 11.0117 18.3592 11.0117C18.2889 11.0117 18.2303 11.0117 18.1834 11.0234V18.4297H19.7654C19.9881 18.4297 20.1639 18.6055 20.1639 18.8281C20.1639 19.0508 19.9881 19.2266 19.7654 19.2266H6.95681C6.74587 19.2266 6.57009 19.0508 6.57009 18.8281C6.57009 18.6055 6.74587 18.4297 6.95681 18.4297H7.87087C7.84744 18.3477 7.83572 18.2656 7.83572 18.1602V14.1758C7.91775 14.1406 7.98806 14.0938 8.07009 14.0586L12.16 11.9492L16.2498 14.0586C16.3318 14.0938 16.4139 14.1406 16.4959 14.1758V18.1602C16.4959 18.2656 16.4842 18.3477 16.4607 18.4297H17.3865V13.8477C17.2928 13.8359 17.2107 13.8008 17.1053 13.7539L12.3357 11.3164C12.2186 11.2695 12.1014 11.2695 11.9959 11.3164L7.16775 13.7891ZM10.6717 18.4297H13.6482V15.2188C13.6482 14.9844 13.5076 14.8438 13.285 14.8438H11.0467C10.824 14.8438 10.6717 14.9844 10.6717 15.2188V18.4297Z" fill="white"/>
</g>
<defs>
<clipPath id="clip0_2124_89076">
<rect width="23.9062" height="23.918" fill="white" transform="translate(2 2)"/>
</clipPath>
</defs>
</svg>
