<svg width="28" height="28" viewBox="0 0 28 28" fill="none" xmlns="http://www.w3.org/2000/svg">
<g clip-path="url(#clip0_2124_32159)">
<path d="M7.32812 25.9414H20.0078C21.8711 25.9414 23.0898 24.6406 23.0898 22.6719V14.9023C23.0898 12.1719 22.7734 9.4062 22.3164 7.50781C21.8477 5.41016 20.4648 3.88672 18.332 3.66406C17.7812 3.61719 15.9062 3.45312 13.668 3.45312C11.3711 3.45312 9.55469 3.61719 9.00391 3.66406C6.87109 3.88672 5.5 5.41016 5.01953 7.50781C4.5625 9.418 4.25781 12.1484 4.25781 14.8672V22.6719C4.25781 24.6406 5.46484 25.9414 7.32812 25.9414ZM13.668 18.2305C11.0664 18.2188 8.66406 18.1016 7.44531 17.9492C6.76562 17.8672 6.50781 17.4336 6.50781 16.8008V14.7031C6.50781 12.4531 6.73047 10.7891 6.90625 10.0273C7.02344 9.5352 7.32812 9.1719 7.84375 9.1133C9.08594 8.97266 10.6914 8.87891 13.668 8.86719C16.6445 8.85547 18.25 8.97266 19.4922 9.1133C20.0078 9.1719 20.3242 9.5352 20.4297 10.0273C20.6055 10.7891 20.8281 12.4531 20.8281 14.7031V16.8008C20.8281 17.4453 20.5703 17.8789 19.8906 17.9492C18.0742 18.1367 15.6836 18.2422 13.668 18.2305ZM8.52344 23.2227C7.63281 23.2227 7 22.5664 7 21.6641C7 20.7734 7.63281 20.1172 8.52344 20.1172C9.42578 20.1172 10.082 20.7734 10.082 21.6641C10.082 22.5664 9.40234 23.2227 8.52344 23.2227ZM18.7891 23.2344C17.8867 23.2344 17.2188 22.5547 17.2188 21.6641C17.2188 20.7852 17.8867 20.1055 18.7891 20.1055C19.668 20.1055 20.3242 20.7852 20.3242 21.6641C20.3242 22.5547 19.6562 23.2344 18.7891 23.2344ZM10.8203 6.95703C10.4102 6.95703 10.1289 6.6875 10.1289 6.27734C10.1289 5.85547 10.4102 5.59766 10.8203 5.59766H16.5273C16.9258 5.59766 17.207 5.85547 17.207 6.27734C17.207 6.6875 16.9258 6.95703 16.5273 6.95703H10.8203ZM4 1.34375C4 1.82422 4.35156 2.11719 4.79688 2.11719C5.03125 2.11719 5.26562 2 5.46484 1.75391C6.12109 0.92188 6.83594 0.61719 8.18359 0.61719H19.1641C20.5 0.61719 21.2148 0.92188 21.8711 1.75391C22.0703 2 22.3164 2.11719 22.5508 2.11719C22.9844 2.11719 23.3359 1.82422 23.3359 1.34375C23.3359 0.99219 23.0898 0.62891 22.7617 0.3125C21.7539 -0.660156 20.6055 -0.988281 19.1641 -0.988281H8.18359C6.74219 -0.988281 5.58203 -0.660156 4.58594 0.3125C4.24609 0.62891 4 0.99219 4 1.34375ZM12.8125 4.05078L9.89453 0.47656H7.72656L10.6562 4.05078H12.8125ZM14.5234 4.05078H16.6797L19.6094 0.47656H17.4414L14.5234 4.05078ZM7.67969 25.7891L5.75781 28.8711C5.45312 29.3516 5.73438 29.8789 6.28516 29.8789H6.94141C7.25781 29.8789 7.44531 29.7734 7.62109 29.4922L9.91797 25.7891H7.67969ZM17.4297 25.7891L19.7266 29.4922C19.9023 29.7734 20.0898 29.8789 20.418 29.8789H21.0742C21.6133 29.8789 21.8594 29.3398 21.5664 28.8711L19.668 25.7891H17.4297Z" fill="black" fill-opacity="0.85"/>
</g>
<defs>
<clipPath id="clip0_2124_32159">
<rect width="28" height="28" fill="white"/>
</clipPath>
</defs>
</svg>
