<svg width="28" height="28" viewBox="0 0 28 28" fill="none" xmlns="http://www.w3.org/2000/svg">
<path d="M14.5078 11.1445C15.9258 11.1445 17.0742 10.0078 17.0742 8.58984C17.0742 7.17188 15.9258 6.02344 14.5078 6.02344C13.0898 6.02344 11.9531 7.17188 11.9531 8.58984C11.9531 10.0078 13.0898 11.1445 14.5078 11.1445ZM8.92969 16.7461C11.5664 17.0742 11.918 18.5977 13.8633 18.5977C13.9336 18.5977 13.9805 18.5977 14.0508 18.5859L15.1992 15.3633C15.3281 14.9883 15.5391 14.8477 15.9375 14.8477H26.3555C27.0352 14.8477 27.6094 14.2734 27.6094 13.582C27.6094 12.9141 27.0352 12.3398 26.3555 12.3398H6.72656L5.09766 7.01953C4.89844 6.33984 4.20703 5.96484 3.5625 6.16406C2.90625 6.375 2.54297 7.07812 2.73047 7.69922L4.55859 13.8047C4.73438 14.3789 5.17969 14.8477 5.78906 14.8477H9.14062C9.38672 14.8477 9.55078 15.0469 9.46875 15.293L8.92969 16.7461ZM7.54688 6.66797C8.55469 6.66797 9.375 5.84766 9.375 4.83984C9.375 3.83203 8.55469 3 7.54688 3C6.53906 3 5.71875 3.83203 5.71875 4.83984C5.71875 5.84766 6.53906 6.66797 7.54688 6.66797ZM0.65625 21.6914H1.83984C4.96875 21.6914 5.68359 19.7695 7.85156 19.7695C10.0195 19.7695 10.7344 21.6914 13.8633 21.6914C17.0039 21.6914 17.707 19.7695 19.8867 19.7695C22.0547 19.7695 22.7578 21.6914 25.8984 21.6914H27.082C27.4453 21.6914 27.7383 21.4102 27.7383 21.0469C27.7383 20.6836 27.4453 20.3906 27.082 20.3906H25.8984C23.6484 20.3906 22.8867 18.4688 19.8867 18.4688C16.875 18.4688 16.1133 20.3906 13.8633 20.3906C11.6133 20.3906 10.8633 18.4688 7.85156 18.4688C4.85156 18.4688 4.08984 20.3906 1.83984 20.3906H0.65625C0.28125 20.3906 0 20.6836 0 21.0469C0 21.4102 0.28125 21.6914 0.65625 21.6914ZM0.960938 24.9492C1.34766 24.9492 1.65234 24.6445 1.65234 24.2578C1.65234 23.8828 1.34766 23.5781 0.960938 23.5781C0.585938 23.5781 0.28125 23.8828 0.28125 24.2578C0.28125 24.6445 0.585938 24.9492 0.960938 24.9492ZM3.16406 24.5508C3.53906 24.5508 3.84375 24.2461 3.84375 23.8711C3.84375 23.4844 3.53906 23.1797 3.16406 23.1797C2.77734 23.1797 2.47266 23.4844 2.47266 23.8711C2.47266 24.2461 2.77734 24.5508 3.16406 24.5508ZM5.21484 23.5781C5.60156 23.5781 5.90625 23.2852 5.90625 22.8984C5.90625 22.5117 5.60156 22.2188 5.21484 22.2188C4.83984 22.2188 4.53516 22.5117 4.53516 22.8984C4.53516 23.2852 4.83984 23.5781 5.21484 23.5781ZM7.42969 23.0625C7.81641 23.0625 8.12109 22.7578 8.12109 22.3711C8.12109 21.9961 7.81641 21.6914 7.42969 21.6914C7.05469 21.6914 6.75 21.9961 6.75 22.3711C6.75 22.7578 7.05469 23.0625 7.42969 23.0625ZM9.64453 23.5781C10.0312 23.5781 10.3242 23.2852 10.3242 22.8984C10.3242 22.5117 10.0312 22.2188 9.64453 22.2188C9.25781 22.2188 8.96484 22.5117 8.96484 22.8984C8.96484 23.2852 9.25781 23.5781 9.64453 23.5781ZM11.7188 24.5508C12.1055 24.5508 12.4102 24.2461 12.4102 23.8711C12.4102 23.4844 12.1055 23.1797 11.7188 23.1797C11.3438 23.1797 11.0391 23.4844 11.0391 23.8711C11.0391 24.2461 11.3438 24.5508 11.7188 24.5508ZM13.8867 24.9492C14.2617 24.9492 14.5664 24.6445 14.5664 24.2578C14.5664 23.8828 14.2617 23.5781 13.8867 23.5781C13.5 23.5781 13.1953 23.8828 13.1953 24.2578C13.1953 24.6445 13.5 24.9492 13.8867 24.9492ZM16.043 24.5508C16.4297 24.5508 16.7227 24.2461 16.7227 23.8711C16.7227 23.4844 16.4297 23.1797 16.043 23.1797C15.6562 23.1797 15.3633 23.4844 15.3633 23.8711C15.3633 24.2461 15.6562 24.5508 16.043 24.5508ZM18.1172 23.5781C18.5039 23.5781 18.8086 23.2852 18.8086 22.8984C18.8086 22.5117 18.5039 22.2188 18.1172 22.2188C17.7422 22.2188 17.4375 22.5117 17.4375 22.8984C17.4375 23.2852 17.7422 23.5781 18.1172 23.5781ZM20.332 23.0625C20.7188 23.0625 21.0117 22.7578 21.0117 22.3711C21.0117 21.9961 20.7188 21.6914 20.332 21.6914C19.9453 21.6914 19.6523 21.9961 19.6523 22.3711C19.6523 22.7578 19.9453 23.0625 20.332 23.0625ZM22.5469 23.5781C22.9336 23.5781 23.2266 23.2852 23.2266 22.8984C23.2266 22.5117 22.9336 22.2188 22.5469 22.2188C22.1602 22.2188 21.8672 22.5117 21.8672 22.8984C21.8672 23.2852 22.1602 23.5781 22.5469 23.5781ZM24.6094 24.5508C24.9961 24.5508 25.2891 24.2461 25.2891 23.8711C25.2891 23.4844 24.9961 23.1797 24.6094 23.1797C24.2227 23.1797 23.9297 23.4844 23.9297 23.8711C23.9297 24.2461 24.2227 24.5508 24.6094 24.5508ZM26.7891 24.9492C27.1758 24.9492 27.4805 24.6445 27.4805 24.2578C27.4805 23.8828 27.1758 23.5781 26.7891 23.5781C26.4141 23.5781 26.1094 23.8828 26.1094 24.2578C26.1094 24.6445 26.4141 24.9492 26.7891 24.9492Z" fill="black" fill-opacity="0.85"/>
</svg>
