<svg width="28" height="28" viewBox="0 0 28 28" fill="none" xmlns="http://www.w3.org/2000/svg">
<path d="M17.3906 3C12.9141 3 9.82031 6.03516 9.82031 11.3906V19.3125L9.98438 22.9453L10.5234 22.7344L8.05078 19.8398L4.74609 16.4648C4.57031 16.2773 4.33594 16.1719 4.03125 16.1719C3.42188 16.1719 3 16.5938 3 17.2148C3 17.4727 3.12891 17.7773 3.32812 17.9766L10.0898 24.8672C10.3125 25.1016 10.582 25.207 10.875 25.207C11.1562 25.207 11.4258 25.1016 11.6484 24.8672L18.4102 17.9766C18.6211 17.7773 18.7383 17.4727 18.7383 17.2148C18.7383 16.5938 18.3164 16.1719 17.707 16.1719C17.4023 16.1719 17.1797 16.2773 16.9922 16.4648L13.6992 19.8398L11.2148 22.7344L11.7539 22.9453L11.918 19.3125V11.2031C11.918 7.20703 14.1211 5.09766 17.2734 5.09766C20.4375 5.09766 22.7812 7.20703 22.7812 11.2031V13.8984C22.7812 14.543 23.25 14.9648 23.8242 14.9648C24.3984 14.9648 24.8672 14.543 24.8672 13.8984V11.2031C24.8672 5.95312 21.8789 3 17.3906 3Z" fill="black" fill-opacity="0.85"/>
</svg>
