<svg width="28" height="36" viewBox="0 0 28 36" fill="none" xmlns="http://www.w3.org/2000/svg">
<g clip-path="url(#clip0_2124_50211)">
<path d="M6.57031 21.2578L6.07812 23.1797C5.97266 23.6016 6.19531 24.0469 6.73438 24.0469H9.39453C9.95703 24.0469 10.1562 23.6016 10.0508 23.1797L9.55859 21.2578H6.57031ZM7.95312 33.6445C8.375 33.6445 8.71484 33.3047 8.71484 32.9062C8.71484 30.668 10.6953 30.3633 10.6953 28.1367C10.6953 25.7812 8.77344 25.6641 8.79688 23.6016H7.32031C7.30859 26.4141 9.23047 26.5547 9.23047 28.1367C9.23047 29.6953 7.23828 29.7188 7.23828 32.9062C7.23828 33.3047 7.55469 33.6445 7.95312 33.6445ZM2 13.6875C2 18.3164 4.74219 22.0898 8.29297 22.0898C11.8555 22.0898 14.5977 18.3164 14.5977 13.6875C14.5977 10.1016 12.1953 7.11328 8.29297 7.11328C4.40234 7.11328 2 10.1016 2 13.6875Z" fill="black" fill-opacity="0.85"/>
<path d="M16.9766 21.1523C22.25 21.1523 26.1406 15.7734 26.1406 9.375C26.1406 4.07812 22.3672 0 16.9766 0C11.5742 0 7.8125 4.07812 7.8125 9.375C7.8125 15.7734 11.7031 21.1523 16.9766 21.1523Z" fill="white"/>
<path d="M16.9766 19.5469C21.2188 19.5469 24.5469 15.0234 24.5469 9.375C24.5469 4.93359 21.4414 1.59375 16.9766 1.59375C12.5 1.59375 9.41797 4.93359 9.41797 9.375C9.41797 15.0234 12.7227 19.5469 16.9766 19.5469ZM15.3359 18.7383L14.7734 20.8477C14.6562 21.3164 14.9141 21.8203 15.5 21.8203H18.4414C19.0391 21.8203 19.3086 21.3164 19.168 20.8477L18.6055 18.7383H15.3359ZM16.8242 33.4805C17.2812 33.4805 17.668 33.0938 17.668 32.6367C17.668 30.0703 20 29.4727 20 26.8711C20 24.1992 17.7383 23.6953 17.7617 21.3633L16.0977 21.375C16.0859 24.5508 18.3477 25.043 18.3477 26.8711C18.3477 28.7344 16.0039 29.0156 16.0039 32.6367C16.0039 33.0938 16.3672 33.4805 16.8242 33.4805Z" fill="black" fill-opacity="0.85"/>
</g>
<defs>
<clipPath id="clip0_2124_50211">
<rect width="24.1406" height="35.2383" fill="white" transform="translate(2)"/>
</clipPath>
</defs>
</svg>
