<svg width="28" height="28" viewBox="0 0 28 28" fill="none" xmlns="http://www.w3.org/2000/svg">
<g clip-path="url(#clip0_2124_88790)">
<path d="M4.53759 25.2656H22.7134C24.7056 25.2656 25.9126 23.8828 25.9126 22.0898C25.9126 21.5391 25.7485 20.9648 25.4556 20.4492L16.3618 4.60547C15.7524 3.53906 14.6978 3 13.6314 3C12.5532 3 11.4985 3.53906 10.9009 4.60547L1.80713 20.4492C1.49072 20.9766 1.3501 21.5391 1.3501 22.0898C1.3501 23.8828 2.55713 25.2656 4.53759 25.2656Z" fill="black" fill-opacity="0.85"/>
<path d="M12.6821 18.8438V8.28516C12.6821 7.69922 13.0337 7.32422 13.6196 7.32422C14.1939 7.32422 14.5454 7.69922 14.5454 8.28516V18.8438H12.6821Z" fill="white"/>
<path d="M10.9712 19.6407H18.1665L5.35792 6.84385C4.3501 5.83604 2.82667 5.8126 1.7837 6.82041C0.72901 7.86338 0.752448 9.42198 1.77198 10.4415L10.9712 19.6407Z" fill="white"/>
<path d="M26.2173 19.6406H1.03369L1.9126 18.1055H25.3384L26.2173 19.6406Z" fill="white"/>
<path d="M11.9322 18.3281L14.5572 18.3047L4.22126 7.96877C3.83454 7.58205 3.31891 7.57033 2.89704 7.96877C2.48688 8.37893 2.51032 8.91799 2.89704 9.31643L11.9322 18.3281Z" fill="black" fill-opacity="0.85"/>
</g>
<defs>
<clipPath id="clip0_2124_88790">
<rect width="25.2173" height="22.3945" fill="white" transform="translate(1 3)"/>
</clipPath>
</defs>
</svg>
