<svg width="28" height="28" viewBox="0 0 28 28" fill="none" xmlns="http://www.w3.org/2000/svg">
<g clip-path="url(#clip0_2124_24830)">
<path d="M8 24.3555C8 25.9023 9.03125 26.8867 10.6719 26.8867H16.6484C18.2773 26.8867 19.3203 25.9023 19.3203 24.3555V3.53125C19.3203 1.99609 18.2773 1 16.6484 1H10.6719C9.03125 1 8 1.99609 8 3.53125V24.3555ZM11.5391 15.7305C10.7305 15.7305 10.0742 15.0742 10.0742 14.2773C10.0742 13.4688 10.7305 12.8242 11.5391 12.8242C12.3477 12.8242 12.9805 13.4688 12.9805 14.2773C12.9805 15.0742 12.3477 15.7305 11.5391 15.7305ZM15.8047 15.7305C14.9844 15.7305 14.3398 15.0742 14.3398 14.2773C14.3398 13.4688 14.9844 12.8242 15.8047 12.8242C16.6016 12.8242 17.2461 13.4688 17.2461 14.2773C17.2461 15.0742 16.6016 15.7305 15.8047 15.7305ZM13.6602 11.3242C11.5742 11.3242 9.83984 9.61328 9.83984 7.50391C9.83984 5.39453 11.5742 3.68359 13.6602 3.68359C15.7578 3.68359 17.4805 5.39453 17.4805 7.50391C17.4805 9.61328 15.7578 11.3242 13.6602 11.3242ZM13.6719 9.03906C14.5273 9.03906 15.2188 8.35938 15.2188 7.50391C15.2188 6.64844 14.5273 5.95703 13.6719 5.95703C12.8164 5.95703 12.1133 6.64844 12.1133 7.50391C12.1133 8.35938 12.8164 9.03906 13.6719 9.03906Z" fill="black" fill-opacity="0.85"/>
</g>
<defs>
<clipPath id="clip0_2124_24830">
<rect width="11.3203" height="25.957" fill="white" transform="translate(8 1)"/>
</clipPath>
</defs>
</svg>
