<svg width="28" height="28" viewBox="0 0 28 28" fill="none" xmlns="http://www.w3.org/2000/svg">
<g clip-path="url(#clip0_2124_67803)">
<path d="M5 19.6875C5 22.9219 7.01562 24.9844 10.168 24.9844C12.5234 24.9844 14.2812 23.9531 15.3945 21.9609L16.4492 20.0742C18.9219 15.5508 23 14.9648 23 9.15234C23 3.66797 19.4492 0 14.1289 0C8.67969 0 5 3.69141 5 9.19922V19.6875ZM6.76953 19.5703V9.19922C6.76953 4.73438 9.71094 1.76953 14.1289 1.76953C18.3945 1.76953 21.2305 4.73438 21.2305 9.15234C21.2305 14.0156 17.4219 14.8594 14.8672 19.2773L13.8477 21.0234C13.0156 22.4766 11.8555 23.168 10.25 23.168C8.08203 23.168 6.76953 21.8086 6.76953 19.5703ZM9.26562 15.1641C9.74609 15.1641 10.1562 14.7539 10.1562 14.2734V9.12891C10.1562 6.87891 11.7266 5.39062 14.1172 5.39062C16.3906 5.39062 17.8555 6.86719 17.8555 9.12891C17.8555 9.60938 18.2539 10.0195 18.7344 10.0195C19.2148 10.0195 19.625 9.60938 19.625 9.12891C19.625 5.83594 17.4219 3.62109 14.1172 3.62109C10.6953 3.62109 8.38672 5.83594 8.38672 9.12891V14.2734C8.38672 14.7539 8.78516 15.1641 9.26562 15.1641ZM9.17188 11.6836H13.1328C13.9297 11.6836 14.4336 12.1641 14.4336 12.8672C14.4336 13.2305 14.2461 13.7227 13.9648 14.0625L12.5586 15.832C12.4062 16.0312 12.3242 16.2422 12.3242 16.4648C12.3242 16.9453 12.7344 17.3438 13.2148 17.3438C13.4844 17.3438 13.7422 17.2031 13.9414 16.957L15.4648 15.0234C15.9453 14.4141 16.2617 13.5234 16.2617 12.7969C16.2617 11.0742 15.0078 9.91406 13.1094 9.91406H9.17188V11.6836Z" fill="black" fill-opacity="0.85"/>
</g>
<defs>
<clipPath id="clip0_2124_67803">
<rect width="18" height="27.2461" fill="white" transform="translate(5)"/>
</clipPath>
</defs>
</svg>
