<svg width="28" height="28" viewBox="0 0 28 28" fill="none" xmlns="http://www.w3.org/2000/svg">
<path d="M14.0352 23.4219C20.8438 23.4219 26.0938 20.375 26.0938 16.6367V10.4844L24.207 12.125V16.6367C24.207 19.3438 20.3047 21.5352 14.0352 21.5352C7.77734 21.5352 3.875 19.3438 3.875 16.6367V12.125L2 10.4844V16.6367C2 20.375 7.23828 23.4219 14.0352 23.4219ZM14.0352 15.9219C20.7969 15.9219 26.0938 13.4844 26.0938 10.3789C26.0938 7.37891 20.7969 5 14.0352 5C7.28516 5 2 7.37891 2 10.3789C2 13.4844 7.28516 15.9219 14.0352 15.9219ZM14.0352 14.0352C8.31641 14.0352 3.875 12.4297 3.875 10.3789C3.875 8.41016 8.31641 6.88672 14.0352 6.88672C19.7656 6.88672 24.207 8.41016 24.207 10.3789C24.207 12.4297 19.7656 14.0352 14.0352 14.0352Z" fill="black" fill-opacity="0.85"/>
</svg>
