<svg width="28" height="28" viewBox="0 0 28 28" fill="none" xmlns="http://www.w3.org/2000/svg">
<g clip-path="url(#clip0_2124_24753)">
<path d="M2 14.832C2 18.3594 3.01953 22.25 4.74219 25.2734C5.03516 25.7773 5.58594 25.918 6.11328 25.625C6.60547 25.3555 6.74609 24.8047 6.44141 24.2539C4.87109 21.3945 3.99219 17.9844 3.99219 14.832C3.99219 8.32812 7.96484 3.99219 13.9297 3.99219C19.8828 3.99219 23.8672 8.32812 23.8672 14.832C23.8672 17.9844 22.9766 21.3945 21.4062 24.2539C21.1016 24.8047 21.2422 25.3555 21.7344 25.625C22.2617 25.918 22.8242 25.7773 23.1055 25.2734C24.8281 22.25 25.8594 18.3594 25.8594 14.832C25.8594 7.12109 21.1016 2 13.9297 2C6.74609 2 2 7.12109 2 14.832ZM5.66797 24.9805C6.05469 26.3281 7.20312 26.9492 8.5625 26.5625C9.91016 26.1758 10.543 25.0039 10.1445 23.6562L8.46875 17.9375C8.08203 16.6016 6.93359 15.9688 5.57422 16.3555C4.22656 16.7539 3.59375 17.9141 3.99219 19.2734L5.66797 24.9805ZM22.1797 24.9805L23.8555 19.2734C24.2539 17.9023 23.6328 16.7539 22.2734 16.3555C20.9141 15.9688 19.7773 16.6016 19.3789 17.9375L17.7031 23.6562C17.3047 25.0156 17.9375 26.1758 19.2852 26.5625C20.6562 26.9492 21.793 26.3281 22.1797 24.9805Z" fill="black" fill-opacity="0.85"/>
</g>
<defs>
<clipPath id="clip0_2124_24753">
<rect width="23.8594" height="24.8555" fill="white" transform="translate(2 2)"/>
</clipPath>
</defs>
</svg>
