<svg width="28" height="28" viewBox="0 0 28 28" fill="none" xmlns="http://www.w3.org/2000/svg">
<path d="M3.04297 22.7656C3.66406 22.7656 4.09766 22.3555 4.09766 21.7578V6.04297C4.09766 5.43359 3.66406 5 3.04297 5C2.43359 5 2 5.43359 2 6.04297V21.7578C2 22.3555 2.43359 22.7656 3.04297 22.7656ZM12.9922 22.7656C13.5781 22.7656 14.0234 22.3438 14.0234 21.7578C14.0234 21.4883 13.918 21.207 13.7422 21.0195L11.1172 18.3477L6.51172 14.1641L6.27734 14.8086L9.76953 14.9375H25.2148C25.8125 14.9375 26.2461 14.4922 26.2461 13.8828C26.2461 13.2734 25.8125 12.8398 25.2148 12.8398H9.76953L6.27734 12.9688L6.51172 13.625L11.1172 9.41797L13.7422 6.75781C13.918 6.57031 14.0234 6.28906 14.0234 6.00781C14.0234 5.43359 13.5781 5 12.9922 5C12.7227 5 12.4766 5.10547 12.2422 5.32812L4.44922 13.0977C4.21484 13.332 4.08594 13.6016 4.08594 13.8828C4.08594 14.1758 4.21484 14.4453 4.44922 14.668L12.2422 22.4492C12.4766 22.6719 12.7227 22.7656 12.9922 22.7656Z" fill="black" fill-opacity="0.85"/>
</svg>
