<svg width="28" height="28" viewBox="0 0 28 28" fill="none" xmlns="http://www.w3.org/2000/svg">
<g clip-path="url(#clip0_2124_24873)">
<path d="M13.8633 21.5156C17.8008 21.5156 23.0391 21.3164 25.2539 21.0586C26.8477 20.8828 27.7266 20.0039 27.7266 18.5039V16.4414C27.7266 14.4609 27.3281 13.3594 26.25 11.9531L25.2539 10.6758C24.832 8.56641 24.0469 6.35156 23.6484 5.48438C23.0156 4.16016 21.8086 3.375 20.25 3.16406C19.4648 3.05859 16.8984 3 13.8633 3C10.8398 3 8.27344 3.07031 7.48828 3.16406C5.92969 3.35156 4.71094 4.16016 4.08984 5.48438C3.67969 6.35156 2.90625 8.56641 2.47266 10.6758L1.48828 11.9531C0.398438 13.3594 0 14.4609 0 16.4414V18.5039C0 20.0039 0.890625 20.8828 2.47266 21.0586C4.69922 21.3164 9.92578 21.5156 13.8633 21.5156ZM1.55859 24.7383H2.92969C3.80859 24.7383 4.48828 24.0586 4.48828 23.1914V20.2734L0 18.1406V23.1914C0 24.0586 0.679688 24.7383 1.55859 24.7383ZM24.7969 24.7383H26.1797C27.0586 24.7383 27.7266 24.0586 27.7266 23.1914V18.1406L23.25 20.2734V23.1914C23.25 24.0586 23.918 24.7383 24.7969 24.7383Z" fill="black" fill-opacity="0.85"/>
<path d="M10.043 13.0078C10.043 12.8789 10.1016 12.7734 10.1953 12.6562L15.0352 6.57422C15.3984 6.11719 16.0078 6.42188 15.7969 6.99609L14.2031 11.2734H17.1914C17.4141 11.2734 17.6133 11.4492 17.6133 11.6602C17.6133 11.7773 17.5547 11.9062 17.4375 12.0117L12.6211 18.0938C12.2461 18.5508 11.625 18.2344 11.8477 17.6719L13.4531 13.3828H10.4531C10.2305 13.3828 10.043 13.2188 10.043 13.0078Z" fill="white"/>
</g>
<defs>
<clipPath id="clip0_2124_24873">
<rect width="27.7266" height="21.7852" fill="white" transform="translate(0 3)"/>
</clipPath>
</defs>
</svg>
