<svg width="28" height="28" viewBox="0 0 28 28" fill="none" xmlns="http://www.w3.org/2000/svg">
<path d="M9.51172 22.02H24.6641C25.1914 22.02 25.6133 21.6098 25.6133 21.0825C25.6133 20.5434 25.1914 20.1333 24.6641 20.1333H9.51172C8.97266 20.1333 8.5625 20.5434 8.5625 21.0825C8.5625 21.6098 8.97266 22.02 9.51172 22.02Z" fill="black" fill-opacity="0.85"/>
<path d="M2.94922 22.8403L5.03516 21.5981C5.39844 21.3754 5.38672 20.8247 5.03516 20.6137L2.94922 19.3481C2.48047 19.0669 2 19.1958 2 19.7583V22.4301C2 22.9692 2.49219 23.1098 2.94922 22.8403Z" fill="black" fill-opacity="0.85"/>
<path d="M9.51172 14.9419H24.6641C25.1914 14.9419 25.6133 14.52 25.6133 13.9927C25.6133 13.4653 25.1914 13.0552 24.6641 13.0552H9.51172C8.97266 13.0552 8.5625 13.4653 8.5625 13.9927C8.5625 14.52 8.97266 14.9419 9.51172 14.9419Z" fill="black" fill-opacity="0.85"/>
<path d="M2.94922 15.7387L5.03516 14.4965C5.39844 14.2739 5.38672 13.7231 5.03516 13.5122L2.94922 12.2465C2.48047 11.9653 2 12.1059 2 12.6567V15.3286C2 15.8676 2.49219 16.0083 2.94922 15.7387Z" fill="black" fill-opacity="0.85"/>
<path d="M9.51172 7.85205H24.6641C25.1914 7.85205 25.6133 7.44189 25.6133 6.91455C25.6133 6.37549 25.1914 5.96533 24.6641 5.96533H9.51172C8.97266 5.96533 8.5625 6.37549 8.5625 6.91455C8.5625 7.44189 8.97266 7.85205 9.51172 7.85205Z" fill="black" fill-opacity="0.85"/>
<path d="M2.94922 8.67235L5.03516 7.43017C5.39844 7.20752 5.38672 6.65673 5.03516 6.44579L2.94922 5.18017C2.48047 4.8872 2 5.02783 2 5.59032V8.26221C2 8.80127 2.49219 8.94188 2.94922 8.67235Z" fill="black" fill-opacity="0.85"/>
</svg>
