<svg width="28" height="28" viewBox="0 0 28 28" fill="none" xmlns="http://www.w3.org/2000/svg">
<g clip-path="url(#clip0_2124_88470)">
<path d="M13.9531 25.9062C20.4922 25.9062 25.9062 20.4805 25.9062 13.9531C25.9062 7.41406 20.4805 2 13.9414 2C7.41406 2 2 7.41406 2 13.9531C2 20.4805 7.42578 25.9062 13.9531 25.9062ZM13.9531 23.9141C8.42188 23.9141 4.00391 19.4844 4.00391 13.9531C4.00391 8.42188 8.41016 3.99219 13.9414 3.99219C19.4727 3.99219 23.9141 8.42188 23.9141 13.9531C23.9141 19.4844 19.4844 23.9141 13.9531 23.9141Z" fill="black" fill-opacity="0.85"/>
<path d="M10.7305 8.92578C9.51172 8.92578 8.23438 9.48828 7.68359 10.4492C7.61328 10.5664 7.61328 10.6367 7.61328 10.8359V18.6172C7.61328 18.8516 7.77734 19.0156 8.03516 19.0156C8.17578 19.0156 8.30469 18.9688 8.41016 18.875C9.07812 18.3008 9.98047 17.9727 10.9297 17.9727C11.7383 17.9727 12.5117 18.2422 13.1562 18.7695C13.2266 18.8281 13.2734 18.8633 13.3438 18.8633C13.4609 18.8633 13.5664 18.7578 13.5664 18.6289V10.4727C13.5664 10.3438 13.5547 10.3203 13.4492 10.1563C12.9102 9.39453 11.8789 8.92578 10.7305 8.92578ZM17.1641 8.92578C16.0156 8.92578 14.9961 9.39453 14.4453 10.1563C14.3398 10.3203 14.3398 10.3438 14.3398 10.4727V18.6289C14.3398 18.7578 14.4336 18.8633 14.5508 18.8633C14.6211 18.8633 14.6797 18.8281 14.7383 18.7695C15.3828 18.2422 16.168 17.9727 16.9648 17.9727C17.9258 17.9727 18.8281 18.3008 19.4961 18.875C19.6016 18.9688 19.7188 19.0156 19.8594 19.0156C20.1172 19.0156 20.293 18.8516 20.293 18.6172V10.8359C20.293 10.6367 20.2812 10.5547 20.2109 10.4492C19.6602 9.48828 18.3828 8.92578 17.1641 8.92578Z" fill="black" fill-opacity="0.85"/>
</g>
<defs>
<clipPath id="clip0_2124_88470">
<rect width="23.9062" height="23.918" fill="white" transform="translate(2 2)"/>
</clipPath>
</defs>
</svg>
