<svg width="28" height="28" viewBox="0 0 28 28" fill="none" xmlns="http://www.w3.org/2000/svg">
<path d="M6.67969 24.5977H20.8945C23.3555 24.5977 24.5742 23.3789 24.5742 20.9648V6.65625C24.5742 4.24219 23.3555 3.02344 20.8945 3.02344H6.67969C4.23047 3.02344 3 4.23047 3 6.65625V20.9648C3 23.3906 4.23047 24.5977 6.67969 24.5977ZM6.70312 22.7109C5.53125 22.7109 4.88672 22.0898 4.88672 20.8711V6.75C4.88672 5.53125 5.53125 4.91016 6.70312 4.91016H20.8711C22.0312 4.91016 22.6875 5.53125 22.6875 6.75V20.8711C22.6875 22.0898 22.0312 22.7109 20.8711 22.7109H6.70312Z" fill="black" fill-opacity="0.85"/>
<path d="M8.26172 18.5273H12.3281C12.75 18.5273 12.9961 18.2578 12.9961 17.8477C12.9961 17.4023 12.7383 17.1562 12.3281 17.1562H9.55078V17.0625L11.2617 14.8945C12.4336 13.4414 12.8203 12.5742 12.8203 11.543C12.8203 9.96094 11.7422 8.8125 10.125 8.8125C8.625 8.8125 7.48828 10.0547 7.48828 11.2734C7.48828 11.707 7.74609 12.0117 8.19141 12.0117C8.57812 12.0117 8.8125 11.8359 8.94141 11.4492C9.15234 10.6641 9.44531 10.1719 10.1133 10.1719C10.8281 10.1719 11.2266 10.793 11.2266 11.625C11.2266 12.5625 10.5703 13.5117 9.94922 14.3086L7.91016 16.9102C7.69922 17.1914 7.47656 17.4844 7.47656 17.8477C7.47656 18.2461 7.73438 18.5273 8.26172 18.5273ZM17.1211 18.7734C18.9492 18.7734 19.9453 17.2383 19.9453 15.3867C19.9453 13.7695 19.1719 12.293 17.6602 12.293C16.9805 12.293 16.3359 12.6094 16.0312 13.2891H15.9844L16.1719 10.4414H18.9258C19.3359 10.4414 19.582 10.1602 19.582 9.75C19.582 9.36328 19.3125 9.05859 18.9258 9.05859H15.7031C15.0938 9.05859 14.8125 9.45703 14.7773 10.0664L14.5898 13.2773C14.5664 13.4531 14.5664 13.6406 14.5664 13.793C14.5664 14.2383 14.7891 14.6367 15.3398 14.6367C15.6562 14.6367 15.832 14.5078 16.0781 14.1914C16.3477 13.8047 16.6406 13.5234 17.1211 13.5234C17.9766 13.5234 18.3164 14.5664 18.3164 15.4336C18.3164 16.4062 17.9648 17.4023 17.0977 17.4023C16.4414 17.4023 16.0664 16.9336 15.8555 16.2891C15.7148 15.9141 15.457 15.7383 15.1406 15.7383C14.7188 15.7383 14.4492 16.0078 14.4492 16.4414C14.4492 16.7109 14.5078 16.9688 14.6133 17.2031C15.0234 18.1523 16.0547 18.7734 17.1211 18.7734Z" fill="black" fill-opacity="0.85"/>
</svg>
