<svg width="28" height="28" viewBox="0 0 28 28" fill="none" xmlns="http://www.w3.org/2000/svg">
<path d="M13.6943 6.09766C15.1123 6.09766 16.2607 4.9375 16.2607 3.55469C16.2607 2.13672 15.1123 1 13.6943 1C12.2881 1 11.1514 2.13672 11.1514 3.55469C11.1514 4.9375 12.2881 6.09766 13.6943 6.09766ZM4.57715 25.1523C3.94434 25.7852 4.08496 26.5586 4.55371 26.9805C4.97559 27.3555 5.70215 27.4375 6.28809 26.8516L10.7529 22.3867C10.8467 22.293 10.8818 22.2578 10.9639 22.1055L13.167 17.9688C13.4834 17.3594 14.3506 17.3359 14.8896 17.7344L19.8818 21.5195V26.6758C19.8818 27.4727 20.374 27.9648 21.1006 27.9648C21.8271 27.9648 22.3193 27.4727 22.3193 26.6758V20.9336C22.3193 20.582 22.1787 20.2773 21.8623 19.9961L16.2373 15.168V9.91797C16.2373 9.625 16.4365 9.39062 16.7881 9.33203L26.1162 7.91406C26.7725 7.80859 27.2295 7.17578 27.124 6.51953C27.0303 5.86328 26.4092 5.40625 25.7529 5.51172L7.16699 8.32422V4.59766H4.75293V9.74219C4.75293 10.5039 5.37402 11.043 6.14746 10.9258L10.167 10.3164C10.5303 10.2578 10.7998 10.4922 10.7998 10.8555V15.6016L8.86621 20.8633L4.57715 25.1523ZM5.05762 5.92188C6.44043 5.92188 7.97559 5.27734 8.87793 4.25781C9.18262 3.91797 9.18262 3.47266 8.87793 3.12109C7.97559 2.10156 6.44043 1.45703 5.05762 1.45703C3.68652 1.45703 2.15137 2.10156 1.2373 3.12109C0.920898 3.47266 0.920898 3.91797 1.2373 4.26953C2.15137 5.27734 3.68652 5.92188 5.05762 5.92188Z" fill="black" fill-opacity="0.85"/>
</svg>
