<svg width="31" height="28" viewBox="0 0 31 28" fill="none" xmlns="http://www.w3.org/2000/svg">
<g clip-path="url(#clip0_2124_67748)">
<path d="M4.24371 25.043L8.84918 24.1523C11.3336 23.6719 12.4351 22.3242 12.4351 19.6875V6.9375C12.4351 4.58203 10.7828 3 8.33356 3C6.24762 3 4.47809 4.48828 3.89215 6.67969L0.189025 20.7188C-0.60785 23.707 1.18512 25.6289 4.24371 25.043ZM10.5484 6.9375V19.6875C10.5484 21.4336 10.0914 21.9844 8.50934 22.3008L3.86871 23.2031C2.53278 23.4492 1.64215 22.6406 2.04059 21.1406L5.72028 7.16016C6.09528 5.77734 7.12653 4.88672 8.33356 4.88672C9.65778 4.88672 10.5484 5.69531 10.5484 6.9375ZM26.65 25.043C29.7086 25.6289 31.5015 23.707 30.7047 20.7188L27.0015 6.67969C26.4156 4.48828 24.6461 3 22.5601 3C20.1109 3 18.4586 4.58203 18.4586 6.9375V19.6875C18.4586 22.3242 19.5601 23.6719 22.0445 24.1523L26.65 25.043ZM20.3453 6.9375C20.3453 5.69531 21.2242 4.88672 22.5601 4.88672C23.7672 4.88672 24.7984 5.77734 25.1734 7.16016L28.8531 21.1406C29.2515 22.6406 28.3609 23.4492 27.025 23.2031L22.3843 22.3008C20.8023 21.9844 20.3453 21.4336 20.3453 19.6875V6.9375Z" fill="black" fill-opacity="0.85"/>
<path d="M6.04881 19.8164L12.4355 18.457V16.5352L11.0527 16.8398L7.46678 13.6055C7.1035 13.2773 6.47069 13.2891 6.11912 13.6641C5.791 14.0508 5.83787 14.6719 6.21287 15.0117L8.79101 17.3203L5.63865 17.9883C5.1699 18.082 4.83006 18.5977 4.92381 19.0898C5.01756 19.5938 5.55662 19.9219 6.04881 19.8164ZM24.8457 19.8164C25.3379 19.9219 25.8769 19.5938 25.9707 19.0898C26.0644 18.5977 25.7246 18.082 25.2558 17.9883L22.1035 17.3203L24.6816 15.0117C25.0566 14.6719 25.1035 14.0508 24.7754 13.6641C24.4238 13.2891 23.791 13.2773 23.4277 13.6055L19.8418 16.8398L18.459 16.5352V18.457L24.8457 19.8164Z" fill="black" fill-opacity="0.85"/>
<path d="M15.4472 17.8359L18.459 18.457V16.5352L16.373 16.0898V4.47656C16.373 3.96094 15.9629 3.53906 15.4472 3.53906C14.9316 3.53906 14.5097 3.96094 14.5097 4.47656V16.0898L12.4355 16.5352V18.457L15.4472 17.8359Z" fill="black" fill-opacity="0.85"/>
</g>
<defs>
<clipPath id="clip0_2124_67748">
<rect width="30.8937" height="22.6289" fill="white" transform="translate(0 3)"/>
</clipPath>
</defs>
</svg>
