<svg width="28" height="28" viewBox="0 0 28 28" fill="none" xmlns="http://www.w3.org/2000/svg">
<path d="M13.9531 25.9062C20.4922 25.9062 25.9062 20.4805 25.9062 13.9531C25.9062 7.41406 20.4805 2 13.9414 2C7.41406 2 2 7.41406 2 13.9531C2 20.4805 7.42578 25.9062 13.9531 25.9062ZM13.9531 23.9141C8.42188 23.9141 4.00391 19.4844 4.00391 13.9531C4.00391 8.42188 8.41016 3.99219 13.9414 3.99219C19.4727 3.99219 23.9141 8.42188 23.9141 13.9531C23.9141 19.4844 19.4844 23.9141 13.9531 23.9141Z" fill="black" fill-opacity="0.85"/>
<path d="M21.2188 13.9648C21.2188 13.6953 21.1133 13.4961 20.8906 13.2734L17.5039 9.88672C17.3516 9.72266 17.1406 9.64062 16.8945 9.64062C16.4141 9.64062 16.0508 10.0156 16.0508 10.4961C16.0508 10.7422 16.1445 10.9648 16.3086 11.1172L17.1992 11.9844L18.6172 13.1797L16.1328 13.0859H11.7266L9.24219 13.1797L10.6719 11.9844L11.5625 11.1172C11.7266 10.9648 11.8203 10.7422 11.8203 10.4961C11.8203 10.0156 11.457 9.64062 10.9766 9.64062C10.7305 9.64062 10.5195 9.72266 10.3672 9.88672L6.98047 13.2734C6.75781 13.4961 6.65234 13.6953 6.65234 13.9648C6.65234 14.2109 6.75781 14.3984 6.98047 14.6328L10.3672 18.043C10.5195 18.1953 10.7305 18.2773 10.9766 18.2773C11.457 18.2773 11.8203 17.9023 11.8203 17.4336C11.8203 17.1758 11.7148 16.9648 11.5625 16.8008L10.6719 15.9219L9.25391 14.75L11.7266 14.832H16.1328L18.6055 14.75L17.1992 15.9219L16.3086 16.8008C16.1562 16.9648 16.0508 17.1758 16.0508 17.4336C16.0508 17.9023 16.4141 18.2773 16.8945 18.2773C17.1406 18.2773 17.3516 18.1953 17.5039 18.043L20.8906 14.6328C21.1133 14.3984 21.2188 14.2109 21.2188 13.9648Z" fill="black" fill-opacity="0.85"/>
</svg>
