<svg width="28" height="28" viewBox="0 0 28 28" fill="none" xmlns="http://www.w3.org/2000/svg">
<path d="M6.67969 24.5977H20.8945C23.3555 24.5977 24.5742 23.3789 24.5742 20.9648V6.65625C24.5742 4.24219 23.3555 3.02344 20.8945 3.02344H6.67969C4.23047 3.02344 3 4.23047 3 6.65625V20.9648C3 23.3906 4.23047 24.5977 6.67969 24.5977ZM6.70312 22.7109C5.53125 22.7109 4.88672 22.0898 4.88672 20.8711V6.75C4.88672 5.53125 5.53125 4.91016 6.70312 4.91016H20.8711C22.0312 4.91016 22.6875 5.53125 22.6875 6.75V20.8711C22.6875 22.0898 22.0312 22.7109 20.8711 22.7109H6.70312Z" fill="black" fill-opacity="0.85"/>
<path d="M13.793 20.0859C17.2148 20.0859 20.0742 17.2266 20.0742 13.8047C20.0742 10.3945 17.2031 7.52344 13.793 7.52344C10.3711 7.52344 7.52344 10.3828 7.52344 13.8047C7.52344 17.2148 10.3828 20.0859 13.793 20.0859ZM13.793 18.2578C11.3789 18.2578 9.35156 16.2305 9.35156 13.8047C9.35156 11.3672 11.3672 9.35156 13.793 9.35156C16.2188 9.35156 18.2344 11.3789 18.2344 13.8047C18.2344 16.2422 16.2305 18.2578 13.793 18.2578Z" fill="black" fill-opacity="0.85"/>
</svg>
