<svg width="28" height="28" viewBox="0 0 28 28" fill="none" xmlns="http://www.w3.org/2000/svg">
<path d="M13.9531 25.9062C20.4922 25.9062 25.9062 20.4805 25.9062 13.9531C25.9062 7.41406 20.4805 2 13.9414 2C7.41406 2 2 7.41406 2 13.9531C2 20.4805 7.42578 25.9062 13.9531 25.9062ZM13.9531 23.9141C8.42188 23.9141 4.00391 19.4844 4.00391 13.9531C4.00391 8.42188 8.41016 3.99219 13.9414 3.99219C19.4727 3.99219 23.9141 8.42188 23.9141 13.9531C23.9141 19.4844 19.4844 23.9141 13.9531 23.9141Z" fill="black" fill-opacity="0.85"/>
<path d="M16.5428 18.8398C16.8006 18.7109 16.8709 18.3945 16.7303 18.1602L11.6795 9.41797C11.4451 9.00781 11.0935 8.91406 10.7303 8.91406C10.4021 8.91406 10.0154 9.10156 9.65213 9.30078C8.43338 10.0156 8.01151 11.0469 6.88651 11.6797C6.39432 11.9727 5.97245 12.0898 5.74979 12.207C5.45682 12.3711 5.29276 12.6992 5.48026 13.0391L7.36698 16.2969C7.57791 16.6484 7.83573 16.8242 8.24588 16.8242C8.66776 16.8242 9.0662 16.625 9.40604 16.4141C10.6365 15.7109 11.0701 14.6562 12.1834 14.0352C12.4881 13.8477 12.7693 13.7539 12.992 13.6602L15.8748 18.6523C16.0271 18.9102 16.3084 18.9805 16.5428 18.8398ZM19.6248 16.8242C20.035 16.8242 20.2928 16.6484 20.492 16.2969L22.3904 13.0391C22.5779 12.6992 22.4139 12.3828 22.1209 12.207C21.8982 12.0898 21.4764 11.9727 20.9842 11.6797C19.8592 11.0469 19.4256 10.0156 18.2186 9.30078C17.8553 9.10156 17.4568 8.91406 17.1287 8.91406C16.7654 8.91406 16.4256 9.00781 16.1912 9.42969L14.4217 12.4883L15.1717 13.7773C16.5193 14.293 17.281 15.7461 18.4646 16.4141C18.7928 16.625 19.2029 16.8242 19.6248 16.8242ZM11.3162 18.8398C11.5506 18.9922 11.8435 18.9102 11.9959 18.6523L13.4607 16.1094L12.8865 15.1367L11.1404 18.1602C10.9998 18.3945 11.0701 18.7109 11.3162 18.8398Z" fill="black" fill-opacity="0.85"/>
</svg>
