<svg width="28" height="28" viewBox="0 0 28 28" fill="none" xmlns="http://www.w3.org/2000/svg">
<g clip-path="url(#clip0_2124_24709)">
<path d="M11.1875 2C9.23047 2 8 3.18359 8 5.04688V23.5742L9.88672 22.4023V5.35156C9.88672 4.42578 10.4492 3.88672 11.4336 3.88672H17.0703C18.043 3.88672 18.6055 4.42578 18.6055 5.35156V22.4023L20.4922 23.5742V5.04688C20.4922 3.18359 19.2617 2 17.3047 2H11.1875ZM10.9883 26.5508H17.5156C19.2617 26.5508 20.4922 25.3203 20.4922 23.5742C20.4922 21.8164 19.2617 20.5859 17.5156 20.5859H10.9883C9.24219 20.5859 8 21.8164 8 23.5742C8 25.3203 9.24219 26.5508 10.9883 26.5508ZM10.9883 24.7812C10.2734 24.7812 9.76953 24.2773 9.76953 23.5742C9.76953 22.8594 10.2734 22.3555 10.9883 22.3555H17.5156C18.2305 22.3555 18.7227 22.8594 18.7227 23.5742C18.7227 24.2773 18.2305 24.7812 17.5156 24.7812H10.9883ZM14.2578 7.87109C15.0312 7.87109 15.6758 7.23828 15.6758 6.46484C15.6758 5.67969 15.0312 5.04688 14.2578 5.04688C13.4727 5.04688 12.8398 5.67969 12.8398 6.46484C12.8398 7.23828 13.4727 7.87109 14.2578 7.87109Z" fill="black" fill-opacity="0.85"/>
</g>
<defs>
<clipPath id="clip0_2124_24709">
<rect width="12.4922" height="24.5977" fill="white" transform="translate(8 2)"/>
</clipPath>
</defs>
</svg>
