<svg width="28" height="28" viewBox="0 0 28 28" fill="none" xmlns="http://www.w3.org/2000/svg">
<path d="M13.9531 25.9062C20.4922 25.9062 25.9062 20.4805 25.9062 13.9531C25.9062 7.41406 20.4805 2 13.9414 2C7.41406 2 2 7.41406 2 13.9531C2 20.4805 7.42578 25.9062 13.9531 25.9062Z" fill="black" fill-opacity="0.85"/>
<path d="M12.3242 19.6953C11.7969 19.6953 11.3633 19.332 11.3633 18.8164C11.3633 18.5703 11.4219 18.4062 11.5273 18.1953L15.9688 10.0625V9.96875H10.8359C10.4258 9.96875 10.1211 9.65234 10.1211 9.21875C10.1211 8.77344 10.4141 8.46875 10.8359 8.46875H16.7539C17.5391 8.46875 18.0781 8.97266 18.0781 9.64062C18.0781 9.89844 18.0195 10.1445 17.7852 10.5898L13.2734 19.0273C13.0391 19.4961 12.7461 19.6953 12.3242 19.6953Z" fill="white"/>
</svg>
