<svg width="30" height="28" viewBox="0 0 30 28" fill="none" xmlns="http://www.w3.org/2000/svg">
<g clip-path="url(#clip0_2124_24855)">
<path d="M3.01172 22.1328H26.2852C28.2891 22.1328 29.2969 21.1602 29.2969 19.1211V5.69141C29.2969 3.65234 28.2891 2.67969 26.2852 2.67969H3.01172C1.01953 2.67969 0 3.65234 0 5.69141V19.1211C0 21.1602 1.01953 22.1328 3.01172 22.1328ZM8.75391 26.1055H20.543C21.0586 26.1055 21.4922 25.6836 21.4922 25.1562C21.4922 24.6289 21.0586 24.207 20.543 24.207H8.75391C8.23828 24.207 7.80469 24.6289 7.80469 25.1562C7.80469 25.6836 8.23828 26.1055 8.75391 26.1055Z" fill="black" fill-opacity="0.85"/>
<path d="M18.3633 10.1328L15.4805 10.836C15.1992 10.8945 15.0938 11.0117 15.0938 11.4688V15.6875C15.0938 17.4688 13.8984 18.7227 12.1406 18.7227C10.9102 18.7227 10.125 17.9609 10.125 16.918C10.125 15.7109 11.0625 15.043 12.1758 14.7617L13.3125 14.457C13.9219 14.3047 13.9688 14.1875 13.9688 13.6367V8.10548C13.9688 7.37892 14.1094 7.26173 14.707 7.10939L18.3164 6.20704C18.9727 6.04298 19.125 6.25392 19.125 6.72267V9.14845C19.125 9.86329 18.9609 9.9922 18.3633 10.1328Z" fill="white"/>
</g>
<defs>
<clipPath id="clip0_2124_24855">
<rect width="29.2969" height="24.1055" fill="white" transform="translate(0 2)"/>
</clipPath>
</defs>
</svg>
