<svg width="29" height="29" viewBox="0 0 29 29" fill="none" xmlns="http://www.w3.org/2000/svg">
<g clip-path="url(#clip0_2124_45814)">
<path d="M13.959 25.9355C20.4981 25.9355 25.9121 20.5098 25.9121 13.9824C25.9121 7.44336 20.4864 2.0293 13.9473 2.0293C7.41992 2.0293 2.00586 7.44336 2.00586 13.9824C2.00586 20.5098 7.43164 25.9355 13.959 25.9355Z" fill="black" fill-opacity="0.85"/>
<path d="M13.9473 11.2168C12.7051 11.2168 11.6973 10.1621 11.6973 8.75586C11.6973 7.43164 12.7051 6.3418 13.9473 6.3418C15.2012 6.3418 16.1973 7.43164 16.1973 8.75586C16.1973 10.1621 15.2012 11.2285 13.9473 11.2168ZM9.99805 16.0684C9.58789 16.0684 9.35352 15.8105 9.35352 15.4473C9.35352 14.3691 10.9004 12.0254 13.9473 12.0254C16.9942 12.0254 18.5411 14.3691 18.5411 15.4473C18.5411 15.8105 18.3067 16.0684 17.8965 16.0684H9.99805ZM8.9082 20.6738C8.60352 20.6738 8.36914 20.4277 8.36914 20.1231C8.36914 19.8184 8.60352 19.5723 8.9082 19.5723H9.03711V18.0371C9.03711 17.3457 9.3418 16.9707 10.1035 16.9707H17.8028C18.5645 16.9707 18.8692 17.3457 18.8692 18.0371V19.5723H18.9981C19.3028 19.5723 19.5371 19.8184 19.5371 20.1231C19.5371 20.4277 19.3028 20.6738 18.9981 20.6738H8.9082ZM12.6114 19.2207H15.295C15.5293 19.2207 15.7051 19.0449 15.7051 18.834C15.7051 18.6113 15.5293 18.4473 15.295 18.4473H12.6114C12.377 18.4473 12.2247 18.6113 12.2247 18.834C12.2247 19.0449 12.377 19.2207 12.6114 19.2207Z" fill="white"/>
</g>
<defs>
<clipPath id="clip0_2124_45814">
<rect width="23.9062" height="23.918" fill="white" transform="translate(2.00586 2.0293)"/>
</clipPath>
</defs>
</svg>
