<svg width="28" height="28" viewBox="0 0 28 28" fill="none" xmlns="http://www.w3.org/2000/svg">
<path d="M13.5938 25.9336C16.4297 25.9336 18.1172 24.5977 18.1172 22.3477V18.3867C18.1172 16.1367 16.4297 14.8008 13.5938 14.8008C10.7461 14.8008 9.05859 16.1367 9.05859 18.3867V22.3477C9.05859 24.5977 10.7461 25.9336 13.5938 25.9336Z" fill="black" fill-opacity="0.85"/>
<path d="M13.5938 22.207C21.9492 22.207 27.1758 18.1992 27.1758 13.0547C27.1758 7.91016 21.9492 3.90234 13.5703 3.90234C5.22656 3.90234 0 7.91016 0 13.0547C0 18.1992 5.22656 22.207 13.5938 22.207Z" fill="white"/>
<path d="M13.5938 20.6133C21.082 20.6133 25.582 17.2383 25.582 13.0547C25.582 8.88281 21.082 5.50781 13.5703 5.50781C6.09375 5.50781 1.60547 8.88281 1.60547 13.0547C1.60547 17.2383 6.09375 20.6133 13.5938 20.6133Z" fill="black" fill-opacity="0.85"/>
<path d="M11.9883 16.8516C11.4492 16.8516 11.0977 16.4531 11.0977 15.8672V9.83203C11.0977 9.24609 11.4609 8.85938 11.9883 8.85938C12.5391 8.85938 12.8906 9.23438 12.8906 9.83203V15.2812H15.7148C16.1836 15.2812 16.5117 15.5977 16.5117 16.0664C16.5117 16.5234 16.1836 16.8516 15.7148 16.8516H11.9883Z" fill="white"/>
</svg>
