<svg width="28" height="34" viewBox="0 0 28 34" fill="none" xmlns="http://www.w3.org/2000/svg">
<path d="M27.1084 19.8281C28.0694 16.3242 25.5264 14.8008 19.2452 14.8008C16.21 14.8008 13.0577 15.1055 10.6436 15.6211L11.0655 16.1953C11.71 10.9688 10.1045 6.66797 6.57719 4.82812L6.91704 6.25781C8.28813 2.39062 5.85063 0 3.61235 0C1.92485 0 0.471726 1.32422 1.18657 4.23047L5.59282 22.1133C6.02641 23.8711 7.18657 24.8203 8.92094 24.8203H22.5967C25.0108 24.8203 26.0772 23.6484 27.1084 19.8281Z" fill="black" fill-opacity="0.85"/>
<path d="M18.8115 32.9648C18.8115 33.5977 19.3154 33.8672 19.8662 33.5273L24.0263 30.9961C24.5654 30.668 24.5537 30.0469 24.0263 29.7305L19.8662 27.1758C19.3154 26.8359 18.8115 27.1289 18.8115 27.75V32.9648Z" fill="black" fill-opacity="0.85"/>
<path d="M12.73 32.9648V27.75C12.73 27.1289 12.2261 26.8359 11.6754 27.1758L7.50343 29.7305C6.9878 30.0469 6.97608 30.668 7.50343 30.9961L11.6636 33.5273C12.2144 33.8672 12.73 33.5977 12.73 32.9648Z" fill="black" fill-opacity="0.85"/>
</svg>
