<svg width="28" height="28" viewBox="0 0 28 28" fill="none" xmlns="http://www.w3.org/2000/svg">
<g clip-path="url(#clip0_2124_89399)">
<path d="M13.9648 18.3008C11.5508 18.3008 9.61719 16.3555 9.61719 13.9531C9.61719 11.5508 11.5508 9.60547 13.9648 9.60547C16.3672 9.60547 18.3008 11.5508 18.3008 13.9531C18.3008 16.3555 16.3672 18.3008 13.9648 18.3008ZM5.91406 8.08203C6.51172 7.23828 7.22656 6.51172 8.05859 5.91406L10.3789 8.23438C9.52344 8.78516 8.76172 9.52344 8.22266 10.3906L5.91406 8.08203ZM21.9922 8.09375L19.6719 10.4023C19.1445 9.53516 18.3828 8.79688 17.5273 8.24609L19.8477 5.92578C20.6797 6.52344 21.3945 7.26172 21.9922 8.09375ZM21.9922 19.7891C21.4062 20.6211 20.6797 21.3594 19.8594 21.957L17.5273 19.6367C18.3945 19.0859 19.1445 18.3477 19.6836 17.4805L21.9922 19.7891ZM5.92578 19.8008L8.23438 17.4922C8.77344 18.3594 9.52344 19.0977 10.3789 19.6484L8.05859 21.9688C7.23828 21.3711 6.51172 20.6445 5.92578 19.8008ZM13.9531 25.918C20.4922 25.918 25.9062 20.5039 25.9062 13.9648C25.9062 7.4375 20.4805 2.01172 13.9414 2.01172C7.41406 2.01172 2 7.4375 2 13.9648C2 20.5039 7.42578 25.918 13.9531 25.918Z" fill="black" fill-opacity="0.85"/>
</g>
<defs>
<clipPath id="clip0_2124_89399">
<rect width="23.9062" height="23.918" fill="white" transform="translate(2 2)"/>
</clipPath>
</defs>
</svg>
