<svg width="28" height="28" viewBox="0 0 28 28" fill="none" xmlns="http://www.w3.org/2000/svg">
<path d="M13.9531 25.9062C20.4922 25.9062 25.9062 20.4805 25.9062 13.9531C25.9062 7.41406 20.4805 2 13.9414 2C7.41406 2 2 7.41406 2 13.9531C2 20.4805 7.42578 25.9062 13.9531 25.9062ZM13.9531 23.9141C8.42188 23.9141 4.00391 19.4844 4.00391 13.9531C4.00391 8.42188 8.41016 3.99219 13.9414 3.99219C19.4727 3.99219 23.9141 8.42188 23.9141 13.9531C23.9141 19.4844 19.4844 23.9141 13.9531 23.9141Z" fill="black" fill-opacity="0.85"/>
<path d="M7.87109 15.3828C7.87109 18.1953 9.92188 19.9531 12.6523 19.9531C12.793 19.9531 14.1992 19.9531 14.2578 19.9531C14.7852 19.9531 15.1719 19.6602 15.1719 19.1211C15.1719 18.5703 14.7852 18.2773 14.2812 18.2773C14.2344 18.2773 12.793 18.2773 12.6523 18.2773C10.8828 18.2773 9.59375 17.1406 9.59375 15.2891C9.59375 13.4844 10.918 12.5 12.6406 12.5H16.1445L17.5273 12.4414L16.8477 12.957L15.3828 14.3633C15.207 14.5156 15.125 14.75 15.125 14.9609C15.125 15.4531 15.4883 15.8164 15.957 15.8164C16.2031 15.8164 16.3906 15.7344 16.5547 15.5703L19.6836 12.3828C19.8711 12.1836 20 11.9492 20 11.668C20 11.3984 19.8711 11.1523 19.6836 10.9531L16.5664 7.78906C16.4023 7.61328 16.2148 7.54297 15.9688 7.54297C15.4883 7.54297 15.125 7.90625 15.125 8.38672C15.125 8.63281 15.2305 8.85547 15.3945 8.99609L16.6016 10.168L17.5273 10.8945L16.1445 10.8594H12.6406C9.91016 10.8594 7.87109 12.5703 7.87109 15.3828Z" fill="black" fill-opacity="0.85"/>
</svg>
