<svg width="28" height="28" viewBox="0 0 28 28" fill="none" xmlns="http://www.w3.org/2000/svg">
<path d="M6.67969 24.5977H20.8945C23.3555 24.5977 24.5742 23.3789 24.5742 20.9648V6.65625C24.5742 4.24219 23.3555 3.02344 20.8945 3.02344H6.67969C4.23047 3.02344 3 4.23047 3 6.65625V20.9648C3 23.3906 4.23047 24.5977 6.67969 24.5977ZM6.70312 22.7109C5.53125 22.7109 4.88672 22.0898 4.88672 20.8711V6.75C4.88672 5.53125 5.53125 4.91016 6.70312 4.91016H20.8711C22.0312 4.91016 22.6875 5.53125 22.6875 6.75V20.8711C22.6875 22.0898 22.0312 22.7109 20.8711 22.7109H6.70312Z" fill="black" fill-opacity="0.85"/>
<path d="M10.7227 19.0195H13.7109C17.0391 19.0195 18.9141 17.1211 18.9141 13.6523C18.9141 10.2305 17.0625 8.34375 13.7109 8.34375H10.7227C10.125 8.34375 9.80859 8.76562 9.80859 9.39844V17.9648C9.80859 18.5977 10.125 19.0195 10.7227 19.0195ZM11.6133 17.5664V9.79688H13.5C15.7852 9.79688 17.0391 11.1562 17.0391 13.6875C17.0391 16.2656 15.7969 17.5664 13.5 17.5664H11.6133Z" fill="black" fill-opacity="0.85"/>
</svg>
