<svg width="28" height="28" viewBox="0 0 28 28" fill="none" xmlns="http://www.w3.org/2000/svg">
<path d="M13.9531 25.9062C20.4922 25.9062 25.9062 20.4805 25.9062 13.9531C25.9062 7.41406 20.4805 2 13.9414 2C7.41406 2 2 7.41406 2 13.9531C2 20.4805 7.42578 25.9062 13.9531 25.9062Z" fill="black" fill-opacity="0.85"/>
<path d="M8.70312 17.3867V14.3047C8.70312 11.961 9.82812 10.836 12.1719 10.836H15.5V9.28908C15.5 8.50393 16.3203 8.16408 16.9297 8.64455L19.7891 10.8594C20.5391 11.4571 20.5391 12.1719 19.7891 12.7695L16.9297 14.9961C16.3203 15.4766 15.5 15.1367 15.5 14.3516V12.793H12.207C11.1758 12.793 10.6484 13.3086 10.6484 14.3984V17.3867C10.6484 18.0781 10.2852 18.4648 9.67578 18.4766C9.05469 18.4883 8.70312 18.0781 8.70312 17.3867Z" fill="white"/>
</svg>
