<svg width="35" height="29" viewBox="0 0 35 29" fill="none" xmlns="http://www.w3.org/2000/svg">
<g clip-path="url(#clip0_2124_45957)">
<path d="M31.3619 8.68628C33.1198 8.68628 34.526 7.22143 34.526 5.52222C34.526 3.75268 33.1198 2.323 31.3619 2.323C29.5924 2.323 28.1744 3.75268 28.1744 5.52222C28.1744 7.26831 29.5924 8.68628 31.3619 8.68628ZM12.483 25.4558C13.0924 26.0886 14.1354 26.0417 14.8737 25.2683L19.9244 20.0652C20.0885 19.8894 20.2057 19.8425 20.4635 19.948L24.401 21.4363C26.9323 22.4089 29.3112 21.5769 30.4244 19.5613L32.9557 14.9558C33.9401 13.1628 33.6237 11.3113 31.9244 10.3972C30.2604 9.49487 28.5494 10.1746 27.5534 12.0144L24.2604 18.0027L21.4713 16.9832C20.0768 16.4792 18.9284 16.6433 17.8268 17.7917L12.5885 23.2058C11.8619 23.9558 11.9323 24.8933 12.483 25.4558Z" fill="black" fill-opacity="0.85"/>
<path d="M0.212578 6.09645L3.40008 10.1629C3.54071 10.3504 3.76336 10.3855 3.96258 10.2683C4.7243 9.86989 5.81414 9.60036 6.66961 9.60036C7.5368 9.60036 8.62664 9.86989 9.36493 10.2683C9.58757 10.3855 9.81024 10.3504 9.93914 10.1629L13.1384 6.09645C13.4548 5.6863 13.3962 5.27614 13.0212 4.97145C11.7204 3.97536 9.25946 3.21364 6.66961 3.21364C4.09149 3.21364 1.63055 3.97536 0.341485 4.97145C-0.0569535 5.27614 -0.0921094 5.6863 0.212578 6.09645ZM3.51727 12.5417C3.15399 12.0613 3.00164 11.616 3.00164 11.1355C3.00164 10.0339 3.89227 9.7527 3.89227 9.10817C3.89227 8.45192 3.00164 8.18239 3.00164 7.04567C3.00164 6.57692 3.15399 6.13161 3.51727 5.66286C3.92743 5.17067 4.66571 5.69802 4.26727 6.21364C4.00946 6.57692 3.93914 6.77614 3.93914 7.04567C3.93914 7.84255 4.81805 8.0652 4.81805 9.10817C4.81805 10.1394 3.93914 10.3738 3.93914 11.1355C3.93914 11.4402 4.00946 11.616 4.26727 11.991C4.65399 12.4949 3.92743 13.0339 3.51727 12.5417ZM6.27118 12.5417C5.93133 12.0613 5.76727 11.616 5.76727 11.1355C5.76727 10.0339 6.65789 9.7527 6.65789 9.10817C6.65789 8.45192 5.76727 8.18239 5.76727 7.04567C5.76727 6.57692 5.91961 6.13161 6.27118 5.66286C6.68133 5.17067 7.43133 5.69802 7.04461 6.21364C6.77508 6.57692 6.70477 6.77614 6.70477 7.04567C6.70477 7.84255 7.59539 8.0652 7.59539 9.10817C7.59539 10.1394 6.70477 10.3738 6.70477 11.1355C6.70477 11.4402 6.77508 11.616 7.03289 11.991C7.41961 12.4949 6.68133 13.0339 6.27118 12.5417ZM9.06024 12.5417C8.69696 12.0613 8.53289 11.616 8.53289 11.1355C8.53289 10.0339 9.43524 9.7527 9.43524 9.10817C9.43524 8.45192 8.53289 8.18239 8.53289 7.04567C8.53289 6.57692 8.68524 6.13161 9.07196 5.66286C9.47039 5.17067 10.197 5.69802 9.81024 6.21364C9.55243 6.57692 9.47039 6.77614 9.47039 7.04567C9.47039 7.84255 10.361 8.0652 10.361 9.10817C10.361 10.1394 9.47039 10.3738 9.47039 11.1355C9.47039 11.4402 9.55243 11.616 9.79852 11.991C10.197 12.4949 9.45868 13.0339 9.06024 12.5417ZM19.2556 12.3777C19.7478 12.3777 20.1228 12.0027 20.1228 11.5105V6.9402H22.0329C22.865 6.9402 23.24 6.09645 22.6775 5.47536L19.9001 2.33473C19.5134 1.91286 19.0095 1.90114 18.6345 2.33473L15.8571 5.47536C15.3181 6.07302 15.6228 6.9402 16.5017 6.9402H18.4001V11.5105C18.4001 12.0027 18.7868 12.3777 19.2556 12.3777Z" fill="black" fill-opacity="0.85"/>
</g>
<defs>
<clipPath id="clip0_2124_45957">
<rect width="34.5153" height="24.3955" fill="white" transform="translate(0.00976562 2.01392)"/>
</clipPath>
</defs>
</svg>
