<svg width="34" height="28" viewBox="0 0 34 28" fill="none" xmlns="http://www.w3.org/2000/svg">
<path d="M33.3292 21.8398C34.2902 18.3359 31.7355 16.8125 25.466 16.8125C22.5128 16.8125 19.5363 17.0586 16.9699 17.5039L17.5206 18.1953C17.8956 13.2148 16.4542 9.05469 13.7238 7.12109L13.9464 8.25781C15.0011 4.61328 12.7746 2 10.0206 2C7.74721 2 6.51674 3.64062 7.17299 6.24219L11.5792 24.125C12.0128 25.8828 13.173 26.8203 14.8956 26.8203H28.8175C31.2316 26.8203 32.298 25.6602 33.3292 21.8398ZM31.5246 21.3359C30.6574 24.5117 30.1183 24.9336 28.8175 24.9336H14.8956C14.1222 24.9336 13.6183 24.4883 13.4074 23.668L8.97768 5.75C8.69643 4.60156 9.16518 3.88672 10.0324 3.88672C11.3683 3.88672 12.5871 5.10547 12.2589 7.30859C12.1417 8.10547 12.2238 8.33984 12.6691 8.70312C14.7316 10.2383 15.88 13.7891 15.798 18.1953C15.798 18.9102 16.2433 19.3672 16.9581 19.3555C18.2941 19.2617 21.2941 18.6992 25.466 18.6992C30.6105 18.6992 32.0285 19.4609 31.5246 21.3359Z" fill="black" fill-opacity="0.85"/>
<path d="M6.1187 13.4727L4.79448 8.43359C4.63042 7.82422 4.0562 7.67188 3.61089 8.14062L0.247609 11.6797C-0.185985 12.1133 -0.0336417 12.7227 0.575734 12.8984L5.22808 14.293C5.86089 14.4805 6.28276 14.082 6.1187 13.4727Z" fill="black" fill-opacity="0.85"/>
<path d="M18.9272 9.28906C19.0913 9.91016 19.6538 10.0273 20.0991 9.55859L23.4741 6.04297C23.9077 5.59766 23.7436 5 23.1577 4.82422L18.4702 3.41797C17.8608 3.23047 17.4389 3.64062 17.603 4.23828L18.9272 9.28906Z" fill="black" fill-opacity="0.85"/>
</svg>
