<svg width="28" height="28" viewBox="0 0 28 28" fill="none" xmlns="http://www.w3.org/2000/svg">
<g clip-path="url(#clip0_2124_67736)">
<path d="M13.6367 25.2305C13.8828 25.2305 14.2344 25.0664 14.4922 24.9141C21.1016 20.6953 25.2852 15.7852 25.2852 10.793C25.2852 6.64453 22.4375 3.71484 18.7461 3.71484C16.4609 3.71484 14.7031 4.98047 13.6367 6.91406C12.5938 4.99219 10.8242 3.71484 8.52734 3.71484C4.84766 3.71484 2 6.64453 2 10.793C2 15.7852 6.18359 20.6953 12.793 24.9141C13.0391 25.0664 13.4023 25.2305 13.6367 25.2305Z" fill="black" fill-opacity="0.85"/>
<path d="M9.71094 15.6681C9.71094 15.5392 9.76953 15.4337 9.86328 15.3165L14.7031 9.23444C15.0664 8.7774 15.6758 9.08209 15.4648 9.65631L13.8711 13.9337H16.8594C17.082 13.9337 17.2812 14.1095 17.2812 14.3204C17.2812 14.4376 17.2227 14.5665 17.1172 14.672L12.2891 20.754C11.9141 21.211 11.3047 20.8946 11.5156 20.3321L13.1211 16.0431H10.1211C9.89844 16.0431 9.71094 15.879 9.71094 15.6681Z" fill="white"/>
</g>
<defs>
<clipPath id="clip0_2124_67736">
<rect width="23.2852" height="22.2305" fill="white" transform="translate(2 3)"/>
</clipPath>
</defs>
</svg>
