<svg width="28" height="28" viewBox="0 0 28 28" fill="none" xmlns="http://www.w3.org/2000/svg">
<g clip-path="url(#clip0_2124_24559)">
<path d="M13.9531 25.9062C20.4922 25.9062 25.9062 20.4805 25.9062 13.9531C25.9062 7.41406 20.4805 2 13.9414 2C7.41406 2 2 7.41406 2 13.9531C2 20.4805 7.42578 25.9062 13.9531 25.9062ZM13.9531 23.8438C8.46875 23.8438 4.07422 19.4375 4.07422 13.9531C4.07422 8.45703 8.45703 4.05078 13.9414 4.05078C19.4258 4.05078 23.8438 8.45703 23.8555 13.9531C23.8672 19.4375 19.4375 23.8438 13.9531 23.8438ZM13.9531 22.7188C18.8164 22.7188 22.7305 18.8047 22.7188 13.9531C22.707 9.08984 18.8047 5.1875 13.9414 5.1875C9.08984 5.1875 5.19922 9.08984 5.19922 13.9531C5.19922 18.8164 9.10156 22.7188 13.9531 22.7188ZM13.9531 21.6523C9.6875 21.6523 6.26562 18.2305 6.26562 13.9531C6.26562 9.67578 9.67578 6.25391 13.9414 6.25391C18.2188 6.25391 21.6406 9.67578 21.6523 13.9531C21.6641 18.2188 18.2305 21.6523 13.9531 21.6523ZM14.0469 17.1172C14.7148 17.1172 14.8555 17.457 15.4414 17.457C16.0156 17.457 16.4023 16.9297 16.7656 16.4141C17.1758 15.8281 17.3398 15.2422 17.3398 15.2188C17.3047 15.207 16.2148 14.7617 16.2148 13.4961C16.2148 12.4062 17.0703 11.9258 17.1172 11.8789C16.5547 11.0586 15.6875 11.0469 15.4414 11.0469C14.7969 11.0469 14.2812 11.4336 13.9414 11.4336C13.5898 11.4336 13.1328 11.0586 12.5703 11.0586C11.5156 11.0586 10.4375 11.9375 10.4375 13.5781C10.4375 14.6211 10.8477 15.6992 11.3281 16.3906C11.75 16.9883 12.1133 17.4688 12.6523 17.4688C13.168 17.4688 13.4023 17.1172 14.0469 17.1172ZM15.1484 10.3438C15.4062 10.0273 15.5938 9.59375 15.5938 9.14844C15.5938 9.08984 15.5938 9.03125 15.582 8.98438C15.1484 8.99609 14.6328 9.26562 14.3281 9.62891C14.0938 9.92188 13.8594 10.3438 13.8594 10.7891C13.8594 10.8477 13.8711 10.918 13.8711 10.9414C13.9062 10.9414 13.9414 10.9531 13.9883 10.9531C14.375 10.9531 14.8555 10.6953 15.1484 10.3438Z" fill="black" fill-opacity="0.85"/>
</g>
<defs>
<clipPath id="clip0_2124_24559">
<rect width="23.9062" height="23.918" fill="white" transform="translate(2 2)"/>
</clipPath>
</defs>
</svg>
