<svg width="33" height="28" viewBox="0 0 33 28" fill="none" xmlns="http://www.w3.org/2000/svg">
<path d="M1.07812 22.8477C1.73438 22.8477 2.15625 22.4609 2.15625 21.7227V17.0234L3.5625 14.75L7.44141 21.9922C7.72266 22.5312 7.98047 22.7891 8.53125 22.7891C9.10547 22.7891 9.52734 22.3672 9.52734 21.8047C9.52734 21.5117 9.35156 21.1836 9.22266 20.9375L4.93359 13.0156L8.69531 6.88672C8.83594 6.65234 8.96484 6.41797 8.96484 6.10156C8.96484 5.48047 8.50781 5.08203 7.98047 5.08203C7.46484 5.08203 7.20703 5.38672 6.94922 5.80859L2.17969 13.8359H2.15625V6.14844C2.15625 5.44531 1.74609 5.03516 1.04297 5.03516C0.503906 5.03516 0 5.35156 0 6.14844V21.7227C0 22.4609 0.46875 22.8477 1.07812 22.8477ZM12.7383 22.7891C13.3359 22.7891 13.8164 22.4492 13.8164 21.6641V16.3438H15.9492C18.8438 16.3438 20.4141 13.8125 20.4141 10.8008C20.4141 7.95312 18.9609 5.26953 16.0312 5.26953H12.7266C12.0469 5.26953 11.6719 5.72656 11.6719 6.39453V21.6641C11.6719 22.3672 12.0469 22.7891 12.7383 22.7891ZM13.8164 14.4805V7.14453H15.5273C17.4844 7.14453 18.293 8.71484 18.293 10.8008C18.293 12.8281 17.5078 14.4805 15.5273 14.4805H13.8164ZM24 22.8477C24.75 22.8477 25.0664 22.3086 25.0664 21.6523V14.7031H30.1992V21.6523C30.1992 22.3555 30.5625 22.8477 31.2656 22.8477C31.9688 22.8477 32.3555 22.3555 32.3555 21.6523V6.23047C32.3555 5.52734 31.9688 5.03516 31.2656 5.03516C30.5625 5.03516 30.1992 5.52734 30.1992 6.23047V12.793H25.0664V6.23047C25.0664 5.57422 24.75 5.03516 24 5.03516C23.2969 5.03516 22.9219 5.52734 22.9219 6.23047V21.6523C22.9219 22.3555 23.2969 22.8477 24 22.8477Z" fill="black" fill-opacity="0.85"/>
</svg>
