<svg width="28" height="28" viewBox="0 0 28 28" fill="none" xmlns="http://www.w3.org/2000/svg">
<path d="M10.8203 26.1719H20.3242C22.5508 26.1719 23.8867 24.8594 23.8867 22.6562L23.8984 4.55078C23.8984 2.44141 22.4805 1 20.3594 1H9.0625C5.94531 1 4 2.96875 4 6.07422V7.86719C4 10.9961 4.73828 13.0938 6.4375 15.2969L7.25781 16.375V22.6562C7.25781 24.8594 8.59375 26.1719 10.8203 26.1719ZM10.8203 24.2852C9.8125 24.2852 9.14453 23.6406 9.14453 22.6445V15.7422L7.92578 14.1367C6.51953 12.2969 5.88672 10.4922 5.88672 7.80859V6.08594C5.88672 4.12891 7.10547 2.88672 9.07422 2.88672H20.3594C21.3555 2.88672 22.0117 3.54297 22.0117 4.55078L22 22.6445C22 23.6406 21.332 24.2852 20.3242 24.2852H10.8203Z" fill="black" fill-opacity="0.85"/>
<path d="M9.02734 8.39453H19.2695C19.6914 8.39453 20.0312 8.05469 20.0312 7.63281C20.0312 7.21094 19.6914 6.85938 19.2695 6.85938H9.02734C8.60547 6.85938 8.26562 7.21094 8.26562 7.63281C8.26562 8.05469 8.60547 8.39453 9.02734 8.39453ZM10.082 12.7422H19.2695C19.6914 12.7422 20.0312 12.3906 20.0312 11.9688C20.0312 11.5469 19.6914 11.207 19.2695 11.207H10.082C9.66016 11.207 9.30859 11.5469 9.30859 11.9688C9.30859 12.3906 9.66016 12.7422 10.082 12.7422ZM11.875 17.0547H19.2695C19.6914 17.0547 20.0312 16.7148 20.0312 16.293C20.0312 15.8711 19.6914 15.5195 19.2695 15.5195H11.875C11.4531 15.5195 11.1016 15.8711 11.1016 16.293C11.1016 16.7148 11.4531 17.0547 11.875 17.0547ZM11.875 21.4023H19.2695C19.6914 21.4023 20.0312 21.0508 20.0312 20.6289C20.0312 20.207 19.6914 19.8672 19.2695 19.8672H11.875C11.4531 19.8672 11.1016 20.207 11.1016 20.6289C11.1016 21.0508 11.4531 21.4023 11.875 21.4023Z" fill="black" fill-opacity="0.85"/>
</svg>
