<svg width="28" height="28" viewBox="0 0 28 28" fill="none" xmlns="http://www.w3.org/2000/svg">
<path d="M27.1084 21.8281C28.0694 18.3242 25.5264 16.8008 19.2452 16.8008C16.21 16.8008 13.0577 17.1055 10.6436 17.6094L11.0655 18.1953C11.71 12.957 10.1045 8.66797 6.57719 6.81641L6.91704 8.25781C8.28813 4.39062 5.85063 2 3.61235 2C1.92485 2 0.471726 3.3125 1.18657 6.23047L5.59282 24.1133C6.02641 25.8711 7.18657 26.8086 8.92094 26.8086H22.5967C25.0108 26.8086 26.0772 25.6484 27.1084 21.8281Z" fill="black" fill-opacity="0.85"/>
<path d="M22.3857 13.2148C22.9365 13.2148 23.2529 12.8633 23.2529 12.2539V3.98047C23.2529 3.34766 22.9248 3.00781 22.3388 3.00781C21.9287 3.00781 21.6591 3.11328 21.2021 3.44141L19.1865 4.78906C18.9521 4.96484 18.8701 5.12891 18.8701 5.38672C18.8701 5.72656 19.1396 6.01953 19.4677 6.01953C19.6318 6.01953 19.749 5.99609 20.0185 5.80859L21.4248 4.88281H21.5419V12.2539C21.5419 12.8516 21.8701 13.2148 22.3857 13.2148Z" fill="black" fill-opacity="0.85"/>
</svg>
