<svg width="28" height="28" viewBox="0 0 28 28" fill="none" xmlns="http://www.w3.org/2000/svg">
<path d="M8.45312 24.6484H14.0898C18.4727 24.6484 21.1094 22.5039 21.1094 18.918C21.1094 16.0938 19.1758 14.1367 16.3164 13.7852V13.6914C18.4492 13.3047 20.043 11.3125 20.043 9.07422C20.043 5.99219 17.6406 3.94141 14.0664 3.94141H8.45312C7.57422 3.94141 7 4.51562 7 5.39453V23.1953C7 24.0742 7.57422 24.6484 8.45312 24.6484ZM9.23828 5.91016H13.5508C16.2109 5.91016 17.8047 7.12891 17.8047 9.30859C17.8047 11.6875 16.0117 12.9883 12.9062 12.9883H9.23828V5.91016ZM9.23828 22.6797V14.9688H13.4688C16.9375 14.9688 18.8359 16.293 18.8359 18.8242C18.8359 21.3438 16.9961 22.6797 13.7383 22.6797H9.23828ZM12.2617 26.5352C12.2617 26.957 12.6133 27.3086 13.0352 27.3086C13.457 27.3086 13.7969 26.957 13.7969 26.5352V1.85547C13.7969 1.43359 13.457 1.08203 13.0352 1.08203C12.6133 1.08203 12.2617 1.43359 12.2617 1.85547V26.5352Z" fill="black" fill-opacity="0.85"/>
</svg>
