<svg width="28" height="28" viewBox="0 0 28 28" fill="none" xmlns="http://www.w3.org/2000/svg">
<path d="M13.9531 25.9062C20.4922 25.9062 25.9062 20.4805 25.9062 13.9531C25.9062 7.41406 20.4805 2 13.9414 2C7.41406 2 2 7.41406 2 13.9531C2 20.4805 7.42578 25.9062 13.9531 25.9062Z" fill="black" fill-opacity="0.85"/>
<path d="M9.08984 13.9766C9.08984 10.7188 10.7305 8.55078 13.2969 8.22266V7.26172C13.2969 6.89844 13.5547 6.66406 13.9062 6.66406C14.2461 6.66406 14.4922 6.89844 14.4922 7.26172V8.21094C16.2148 8.375 17.5859 9.40625 18.1133 10.8477C18.1836 11.0469 18.2305 11.2578 18.2305 11.457C18.2305 11.9023 17.9375 12.1953 17.4922 12.1953C17.0586 12.1953 16.8477 12.0312 16.707 11.5625C16.4258 10.6133 15.582 9.875 14.4922 9.6875V18.3008C15.6523 18.1484 16.5195 17.4336 16.7891 16.4492C16.918 16.0273 17.1641 15.8047 17.5742 15.8047C18.0312 15.8047 18.3125 16.1094 18.3125 16.543C18.3125 16.7656 18.2656 16.9648 18.1953 17.1641C17.6797 18.6055 16.3438 19.625 14.4922 19.7656V20.7266C14.4922 21.0898 14.2461 21.3359 13.9062 21.3359C13.5664 21.3359 13.2969 21.0898 13.2969 20.7266V19.7539C10.7188 19.4375 9.08984 17.2812 9.08984 13.9766ZM10.7188 13.9766C10.7188 16.3203 11.6914 17.9141 13.2969 18.2656V9.72266C11.6914 10.0625 10.7188 11.668 10.7188 13.9766Z" fill="white"/>
</svg>
