<svg width="28" height="28" viewBox="0 0 28 28" fill="none" xmlns="http://www.w3.org/2000/svg">
<g clip-path="url(#clip0_2124_88850)">
<path d="M13.9531 25.918C20.4922 25.918 25.9062 20.5039 25.9062 13.9648C25.9062 7.4375 20.4805 2.01172 13.9414 2.01172C7.41406 2.01172 2 7.4375 2 13.9648C2 20.5039 7.42578 25.918 13.9531 25.918Z" fill="black" fill-opacity="0.85"/>
<path d="M7.08594 17.4688V13.0156C8.89062 13.6719 10.5898 13.9883 12.3242 14.1055V14.5977C12.3242 15.0312 12.5703 15.2891 12.9922 15.2891H14.9375C15.3594 15.2891 15.6055 15.0312 15.6055 14.5977V14.1055C17.3398 13.9883 19.0391 13.6719 20.8555 13.0156V17.4688C20.8555 18.7461 20.2109 19.3672 18.9453 19.3672H8.98438C7.71875 19.3672 7.08594 18.7461 7.08594 17.4688ZM7.08594 11.9375V11.457C7.08594 10.1914 7.71875 9.57031 8.98438 9.57031H10.2734V8.96094C10.2734 8 10.9062 7.41406 11.8906 7.41406H16.0391C17.0234 7.41406 17.6562 8 17.6562 8.96094V9.57031H18.9453C20.2109 9.57031 20.8555 10.1914 20.8555 11.457V11.9375C18.5703 12.8633 16.3672 13.1914 13.9648 13.1914C11.5625 13.1914 9.35938 12.8633 7.08594 11.9375ZM11.4336 9.57031H16.4961V9.01953C16.4961 8.70312 16.2852 8.51562 15.957 8.51562H11.9727C11.6328 8.51562 11.4336 8.70312 11.4336 9.01953V9.57031Z" fill="white"/>
</g>
<defs>
<clipPath id="clip0_2124_88850">
<rect width="23.9062" height="23.918" fill="white" transform="translate(2 2)"/>
</clipPath>
</defs>
</svg>
