<svg width="29" height="29" viewBox="0 0 29 29" fill="none" xmlns="http://www.w3.org/2000/svg">
<g clip-path="url(#clip0_2124_45852)">
<path d="M13.9648 25.9133C20.5039 25.9133 25.9179 20.4876 25.9179 13.9602C25.9179 7.42114 20.4922 2.00708 13.9531 2.00708C7.42578 2.00708 2.01172 7.42114 2.01172 13.9602C2.01172 20.4876 7.4375 25.9133 13.9648 25.9133ZM13.9648 23.9212C8.4336 23.9212 4.01563 19.4915 4.01563 13.9602C4.01563 8.42896 8.42188 3.99927 13.9531 3.99927C19.4844 3.99927 23.9258 8.42896 23.9258 13.9602C23.9258 19.4915 19.4961 23.9212 13.9648 23.9212Z" fill="black" fill-opacity="0.85"/>
<path d="M7.23762 13.5618L7.70637 16.304C7.87044 17.3352 9.27668 17.1126 9.11262 16.0813L8.76106 13.8313L10.4017 13.1868C10.5423 13.1516 10.6126 13.1751 10.6712 13.2805L12.0892 16.1282C12.5228 16.9719 12.8861 17.2532 13.2142 17.4876L17.7142 20.7688C18.558 21.3899 19.5072 20.1946 18.6049 19.5032L15.183 16.8899C15.0541 16.7844 15.0541 16.6321 15.2064 16.5501L17.5033 15.1907L20.6088 16.679C21.5111 17.1009 22.2963 15.7063 21.1947 15.1907L17.8549 13.6673C17.4447 13.4798 17.0697 13.4915 16.6947 13.7259L15.1127 14.6751C14.972 14.7571 14.8314 14.7219 14.7611 14.6048L13.4134 11.8157C13.3549 11.7102 13.39 11.6399 13.4955 11.5813L14.6556 11.054C14.972 10.9016 15.3236 10.7961 15.4173 10.4329L16.2025 7.74927C16.4955 6.74146 15.1127 6.34302 14.8314 7.35083L14.1283 9.80005L13.1205 10.2102C12.0541 10.6321 10.554 11.2883 8.62044 12.2141L7.80012 12.6009C7.34309 12.8118 7.16731 13.1282 7.23762 13.5618ZM10.2728 10.5969C11.1868 10.5969 11.9368 9.85864 11.9368 8.97974C11.9368 8.05396 11.1986 7.31567 10.2728 7.31567C9.38215 7.31567 8.66731 8.05396 8.66731 8.97974C8.66731 9.87036 9.39387 10.5969 10.2728 10.5969Z" fill="black" fill-opacity="0.85"/>
</g>
<defs>
<clipPath id="clip0_2124_45852">
<rect width="23.9062" height="23.918" fill="white" transform="translate(2.01172 2.00708)"/>
</clipPath>
</defs>
</svg>
