<svg width="38" height="28" viewBox="0 0 38 28" fill="none" xmlns="http://www.w3.org/2000/svg">
<g clip-path="url(#clip0_2124_89073)">
<path d="M1.49929 14.2422L12.5969 8.57031C12.843 8.44141 13.1477 8.44141 13.4173 8.57031L24.5149 14.2422C25.8626 14.9219 26.5657 13.3047 25.4641 12.7305L14.3313 6.88281C13.3821 6.39062 12.6204 6.39062 11.6829 6.88281L0.526629 12.7305C-0.551496 13.3047 0.151629 14.9219 1.49929 14.2422ZM5.55397 26.793H20.4602C22.054 26.793 22.9915 25.8789 22.9915 24.2969V12.8125L21.1868 11.8281V23.8398C21.1868 24.5781 20.7883 24.9883 20.0618 24.9883H5.94069C5.22585 24.9883 4.82741 24.5781 4.82741 23.8398V11.8398L3.02272 12.7422V24.2969C3.02272 25.8789 3.96022 26.793 5.55397 26.793ZM9.58522 25.8672H16.4173V17.5352C16.4173 17.0195 16.0774 16.6797 15.5618 16.6797H10.4407C9.92507 16.6797 9.58522 17.0195 9.58522 17.5352V25.8672ZM28.9212 26.793C29.4251 26.793 29.8235 26.3711 29.8235 25.8789V7.86719C29.9407 7.84375 30.0813 7.83203 30.2688 7.83203C32.1673 7.83203 33.3508 8.75781 35.1673 8.75781C35.9758 8.75781 36.3157 8.67578 36.7141 8.48828C37.1594 8.27734 37.3587 7.97266 37.3587 7.46875V2.26562C37.3587 1.94922 37.1946 1.72656 36.761 1.72656C36.4446 1.72656 35.9876 1.94922 35.1204 1.94922C33.3274 1.94922 32.1204 1 30.2219 1C29.4016 1 29.0735 1.10547 28.6868 1.26953C28.2532 1.45703 28.0305 1.79688 28.0305 2.26562V25.8789C28.0305 26.3711 28.429 26.793 28.9212 26.793ZM1.03054 26.793H33.6907C34.1829 26.793 34.5813 26.3711 34.5813 25.8789C34.5813 25.3867 34.1829 24.9883 33.6907 24.9883H1.03054C0.538348 24.9883 0.128192 25.3867 0.128192 25.8789C0.128192 26.3711 0.538348 26.793 1.03054 26.793Z" fill="black" fill-opacity="0.85"/>
</g>
<defs>
<clipPath id="clip0_2124_89073">
<rect width="37.3587" height="25.8398" fill="white" transform="translate(0 1)"/>
</clipPath>
</defs>
</svg>
