<svg width="28" height="28" viewBox="0 0 28 28" fill="none" xmlns="http://www.w3.org/2000/svg">
<path d="M13.9531 25.9062C20.4922 25.9062 25.9062 20.4805 25.9062 13.9531C25.9062 7.41406 20.4805 2 13.9414 2C7.41406 2 2 7.41406 2 13.9531C2 20.4805 7.42578 25.9062 13.9531 25.9062ZM13.9531 23.9141C8.42188 23.9141 4.00391 19.4844 4.00391 13.9531C4.00391 8.42188 8.41016 3.99219 13.9414 3.99219C19.4727 3.99219 23.9141 8.42188 23.9141 13.9531C23.9141 19.4844 19.4844 23.9141 13.9531 23.9141Z" fill="black" fill-opacity="0.85"/>
<path d="M10.2734 15.1133H17.2578C19.0742 15.1133 20.4688 13.707 20.4688 11.9844C20.4688 10.1797 19.0039 8.87891 17.1055 8.87891C16.3906 7.49609 15.0898 6.59375 13.4727 6.59375C11.3633 6.59375 9.61719 8.25781 9.41797 10.3438C8.41016 10.6484 7.63672 11.5156 7.63672 12.7109C7.63672 14.0352 8.59766 15.1133 10.2734 15.1133ZM11.8906 20.1055L13.6836 17C13.8477 16.7305 13.7539 16.4141 13.4844 16.2617C13.2266 16.1211 12.9219 16.2031 12.7695 16.4727L10.9648 19.5664C10.8125 19.8242 10.8945 20.1523 11.1641 20.3047C11.4219 20.4453 11.7383 20.3633 11.8906 20.1055ZM17.2109 20.1055L19.0156 17C19.1797 16.7305 19.0859 16.4141 18.8164 16.2617C18.5586 16.1211 18.2539 16.2031 18.0898 16.4727L16.2969 19.5664C16.1445 19.8242 16.2266 20.1523 16.4961 20.3047C16.7539 20.4453 17.0703 20.3633 17.2109 20.1055ZM14.5508 20.1055L16.3438 17C16.5078 16.7305 16.4141 16.4141 16.1445 16.2617C15.8867 16.1211 15.582 16.2031 15.418 16.4727L13.625 19.5664C13.4727 19.8242 13.5547 20.1523 13.8242 20.3047C14.082 20.4453 14.3984 20.3633 14.5508 20.1055ZM9.21875 20.1055L11.0117 17C11.1758 16.7305 11.082 16.4141 10.8125 16.2617C10.5664 16.1211 10.25 16.2031 10.0977 16.4727L8.29297 19.5664C8.14062 19.8242 8.22266 20.1523 8.49219 20.3047C8.75 20.4453 9.06641 20.3633 9.21875 20.1055Z" fill="black" fill-opacity="0.85"/>
</svg>
