<svg width="28" height="28" viewBox="0 0 28 28" fill="none" xmlns="http://www.w3.org/2000/svg">
<path d="M13.9531 25.918C20.4922 25.918 25.9062 20.5039 25.9062 13.9648C25.9062 7.4375 20.4805 2.01172 13.9414 2.01172C7.41406 2.01172 2 7.4375 2 13.9648C2 20.5039 7.42578 25.918 13.9531 25.918Z" fill="black" fill-opacity="0.85"/>
<path d="M9.64062 18.418C7.88281 18.418 6.54688 17.3633 6.54688 15.3711C6.54688 14.0352 7.37891 12.957 8.50391 12.4883C8.67969 11.2578 9.73438 10.3555 10.9883 10.3555C11.1289 10.3555 11.3047 10.3672 11.4687 10.4023C12.2773 9.30078 13.5781 8.58594 15.0547 8.58594C17.5625 8.58594 19.5078 10.5898 19.5078 13.0391C19.5078 13.1445 19.5078 13.2734 19.4961 13.4023C20.5742 13.6602 21.3828 14.6562 21.3828 15.8633C21.3828 17.2812 20.2578 18.418 18.8164 18.418H9.64062Z" fill="white"/>
</svg>
