<svg width="28" height="28" viewBox="0 0 28 28" fill="none" xmlns="http://www.w3.org/2000/svg">
<g clip-path="url(#clip0_2124_24696)">
<path d="M3.67969 24.5977H23.9531C26.4141 24.5977 27.6328 23.3789 27.6328 20.9648V6.65625C27.6328 4.24219 26.4141 3.02344 23.9531 3.02344H3.67969C1.23047 3.02344 0 4.23047 0 6.65625V20.9648C0 23.3906 1.23047 24.5977 3.67969 24.5977ZM3.70312 22.7109C2.53125 22.7109 1.88672 22.0898 1.88672 20.8711V6.75C1.88672 5.53125 2.53125 4.91016 3.70312 4.91016H23.9297C25.0898 4.91016 25.7461 5.53125 25.7461 6.75V20.8711C25.7461 22.0898 25.0898 22.7109 23.9297 22.7109H3.70312Z" fill="black" fill-opacity="0.85"/>
<path d="M4.78125 9.45703H5.94141C6.28125 9.45703 6.55078 9.22266 6.55078 8.89453V7.69922C6.55078 7.35938 6.28125 7.13672 5.94141 7.13672H4.78125C4.46484 7.13672 4.21875 7.37109 4.21875 7.69922V8.89453C4.21875 9.21094 4.46484 9.45703 4.78125 9.45703ZM9 9.45703H10.1602C10.5117 9.45703 10.7695 9.22266 10.7695 8.89453V7.69922C10.7695 7.35938 10.5117 7.13672 10.1602 7.13672H9C8.68359 7.13672 8.4375 7.37109 8.4375 7.69922V8.89453C8.4375 9.21094 8.68359 9.45703 9 9.45703ZM13.2188 9.45703H14.3789C14.7188 9.45703 14.9766 9.22266 14.9766 8.89453V7.69922C14.9766 7.35938 14.7188 7.13672 14.3789 7.13672H13.2188C12.8906 7.13672 12.6562 7.37109 12.6562 7.69922V8.89453C12.6562 9.21094 12.8906 9.45703 13.2188 9.45703ZM17.4258 9.45703H18.5859C18.9375 9.45703 19.1953 9.22266 19.1953 8.89453V7.69922C19.1953 7.35938 18.9375 7.13672 18.5859 7.13672H17.4258C17.1094 7.13672 16.8633 7.37109 16.8633 7.69922V8.89453C16.8633 9.21094 17.1094 9.45703 17.4258 9.45703ZM21.6445 9.45703H22.8047C23.1445 9.45703 23.4023 9.22266 23.4023 8.89453V7.69922C23.4023 7.35938 23.1445 7.13672 22.8047 7.13672H21.6445C21.3164 7.13672 21.082 7.37109 21.082 7.69922V8.89453C21.082 9.21094 21.3164 9.45703 21.6445 9.45703ZM4.78125 13.3242H5.94141C6.28125 13.3242 6.55078 13.0898 6.55078 12.7617V11.5664C6.55078 11.2266 6.28125 11.0039 5.94141 11.0039H4.78125C4.46484 11.0039 4.21875 11.2383 4.21875 11.5664V12.7617C4.21875 13.0781 4.46484 13.3242 4.78125 13.3242ZM9 13.3242H10.1602C10.5117 13.3242 10.7695 13.0898 10.7695 12.7617V11.5664C10.7695 11.2266 10.5117 11.0039 10.1602 11.0039H9C8.68359 11.0039 8.4375 11.2383 8.4375 11.5664V12.7617C8.4375 13.0781 8.68359 13.3242 9 13.3242ZM13.2188 13.3242H14.3789C14.7188 13.3242 14.9766 13.0898 14.9766 12.7617V11.5664C14.9766 11.2266 14.7188 11.0039 14.3789 11.0039H13.2188C12.8906 11.0039 12.6562 11.2383 12.6562 11.5664V12.7617C12.6562 13.0781 12.8906 13.3242 13.2188 13.3242ZM17.4258 13.3242H18.5859C18.9375 13.3242 19.1953 13.0898 19.1953 12.7617V11.5664C19.1953 11.2266 18.9375 11.0039 18.5859 11.0039H17.4258C17.1094 11.0039 16.8633 11.2383 16.8633 11.5664V12.7617C16.8633 13.0781 17.1094 13.3242 17.4258 13.3242ZM4.78125 20.4844H5.94141C6.28125 20.4844 6.55078 20.25 6.55078 19.9219V18.7266C6.55078 18.3867 6.28125 18.1523 5.94141 18.1523H4.78125C4.46484 18.1523 4.21875 18.3984 4.21875 18.7266V19.9219C4.21875 20.2383 4.46484 20.4844 4.78125 20.4844ZM9 20.4844H10.1602C10.5117 20.4844 10.7695 20.25 10.7695 19.9219V18.7266C10.7695 18.3867 10.5117 18.1523 10.1602 18.1523H9C8.68359 18.1523 8.4375 18.3984 8.4375 18.7266V19.9219C8.4375 20.2383 8.68359 20.4844 9 20.4844ZM13.2188 20.4844H14.3789C14.7188 20.4844 14.9766 20.25 14.9766 19.9219V18.7266C14.9766 18.3867 14.7188 18.1523 14.3789 18.1523H13.2188C12.8906 18.1523 12.6562 18.3984 12.6562 18.7266V19.9219C12.6562 20.2383 12.8906 20.4844 13.2188 20.4844ZM17.4258 20.4844H18.5859C18.9375 20.4844 19.1953 20.25 19.1953 19.9219V18.7266C19.1953 18.3867 18.9375 18.1523 18.5859 18.1523H17.4258C17.1094 18.1523 16.8633 18.3984 16.8633 18.7266V19.9219C16.8633 20.2383 17.1094 20.4844 17.4258 20.4844ZM21.6445 20.4844H22.8047C23.1445 20.4844 23.4023 20.25 23.4023 19.9219V18.7266C23.4023 18.3867 23.1445 18.1523 22.8047 18.1523H21.6445C21.3164 18.1523 21.082 18.3984 21.082 18.7266V19.9219C21.082 20.2383 21.3164 20.4844 21.6445 20.4844Z" fill="black" fill-opacity="0.85"/>
</g>
<defs>
<clipPath id="clip0_2124_24696">
<rect width="27.6328" height="21.5977" fill="white" transform="translate(0 3)"/>
</clipPath>
</defs>
</svg>
