<svg width="28" height="28" viewBox="0 0 28 28" fill="none" xmlns="http://www.w3.org/2000/svg">
<g clip-path="url(#clip0_2124_24777)">
<path d="M9.10156 24.4375H19.6367C24.418 24.4375 26.7383 22.1406 26.7383 17.3711V11.0664C26.7383 6.29688 24.418 4 19.6367 4H9.10156C4.32031 4 2 6.29688 2 11.0664V17.3711C2 22.1406 4.32031 24.4375 9.10156 24.4375ZM9.10156 22.5508C5.50391 22.5508 3.88672 20.9453 3.88672 17.3711V11.0664C3.88672 7.49219 5.50391 5.88672 9.10156 5.88672H19.6367C23.2344 5.88672 24.8516 7.49219 24.8516 11.0664V17.3711C24.8516 20.9453 23.2344 22.5508 19.6367 22.5508H9.10156ZM2.94922 11.8633H25.7891V10.6797H2.94922V11.8633ZM9.67578 12.6719H19.0625C19.8828 12.6719 20.4688 12.0977 20.4688 11.2656C20.4688 10.4453 19.8828 9.87109 19.0625 9.87109H9.67578C8.87891 9.87109 8.26953 10.4453 8.26953 11.2656C8.26953 12.0977 8.87891 12.6719 9.67578 12.6719ZM14.375 16.668C14.9961 16.6562 15.5 16.1406 15.5 15.5547C15.5 14.9336 14.9961 14.418 14.375 14.418C13.7422 14.418 13.2383 14.9336 13.2383 15.5547C13.2383 16.1641 13.7422 16.6797 14.375 16.668Z" fill="black" fill-opacity="0.85"/>
</g>
<defs>
<clipPath id="clip0_2124_24777">
<rect width="24.7383" height="20.4492" fill="white" transform="translate(2 4)"/>
</clipPath>
</defs>
</svg>
