<svg width="28" height="28" viewBox="0 0 28 28" fill="none" xmlns="http://www.w3.org/2000/svg">
<path d="M13.9531 25.918C20.4922 25.918 25.9062 20.5039 25.9062 13.9648C25.9062 7.4375 20.4805 2.01172 13.9414 2.01172C7.41406 2.01172 2 7.4375 2 13.9648C2 20.5039 7.42578 25.918 13.9531 25.918Z" fill="black" fill-opacity="0.85"/>
<path d="M13.9414 21.1836C13.4492 21.1836 13.1211 20.8438 13.1211 20.375V14.8438L13.2617 12.6172L11.0586 15.0898L10.3789 15.8398C10.2266 16.0039 10.0391 16.0742 9.78125 16.0742C9.32422 16.0742 9.00781 15.7461 9.00781 15.2773C9.00781 15.0898 9.10156 14.832 9.25391 14.6797L13.332 10.5078C13.5078 10.3203 13.7188 10.2266 13.9414 10.2266C14.1641 10.2266 14.375 10.3438 14.5508 10.5078L18.6406 14.668C18.8398 14.8555 18.8984 15.0547 18.8984 15.2773C18.8984 15.7227 18.582 16.0742 18.1367 16.0742C17.9023 16.0742 17.6914 16.0039 17.5273 15.8398L16.7891 15.0781L14.6211 12.6289L14.75 14.8438V20.375C14.75 20.8438 14.3984 21.1836 13.9414 21.1836ZM9.41797 9.3125C8.94922 9.3125 8.60938 8.96094 8.60938 8.50391C8.60938 8.02344 8.94922 7.68359 9.41797 7.68359H18.5C18.9688 7.68359 19.2969 8.02344 19.2969 8.50391C19.2969 8.96094 18.9688 9.3125 18.5 9.3125H9.41797Z" fill="white"/>
</svg>
