<svg width="28" height="28" viewBox="0 0 28 28" fill="none" xmlns="http://www.w3.org/2000/svg">
<g clip-path="url(#clip0_2124_89306)">
<path d="M3.9375 10.4766C4.55859 10.4766 4.88672 10.125 4.88672 9.51562V6.75C4.88672 5.53125 5.53125 4.91016 6.70312 4.91016H9.53906C10.1602 4.91016 10.5 4.57031 10.5 3.96094C10.5 3.35156 10.1602 3.02344 9.53906 3.02344H6.67969C4.23047 3.02344 3 4.23047 3 6.64453V9.51562C3 10.125 3.33984 10.4766 3.9375 10.4766ZM24.9961 10.4766C25.6172 10.4766 25.9453 10.125 25.9453 9.51562V6.64453C25.9453 4.23047 24.7148 3.02344 22.2656 3.02344H19.3945C18.7852 3.02344 18.4453 3.35156 18.4453 3.96094C18.4453 4.57031 18.7852 4.91016 19.3945 4.91016H22.2305C23.3906 4.91016 24.0586 5.53125 24.0586 6.75V9.51562C24.0586 10.125 24.3984 10.4766 24.9961 10.4766ZM6.67969 25.957H9.53906C10.1602 25.957 10.5 25.6172 10.5 25.0195C10.5 24.4102 10.1602 24.0703 9.53906 24.0703H6.70312C5.53125 24.0703 4.88672 23.4492 4.88672 22.2305V19.4648C4.88672 18.8438 4.54688 18.5039 3.9375 18.5039C3.32812 18.5039 3 18.8438 3 19.4648V22.3242C3 24.75 4.23047 25.957 6.67969 25.957ZM19.3945 25.957H22.2656C24.7148 25.957 25.9453 24.7383 25.9453 22.3242V19.4648C25.9453 18.8438 25.6055 18.5039 24.9961 18.5039C24.3867 18.5039 24.0586 18.8438 24.0586 19.4648V22.2305C24.0586 23.4492 23.3906 24.0703 22.2305 24.0703H19.3945C18.7852 24.0703 18.4453 24.4102 18.4453 25.0195C18.4453 25.6172 18.7852 25.957 19.3945 25.957Z" fill="black" fill-opacity="0.85"/>
<path d="M9.24609 19.7812H19.7109C20.9414 19.7812 21.5742 19.1719 21.5742 17.9531V11.7656C21.5742 10.5234 20.9414 9.91406 19.7109 9.91406H18.1875C17.7305 9.91406 17.5898 9.83203 17.3203 9.52734L16.8398 9C16.5469 8.67188 16.2422 8.50781 15.6445 8.50781H13.2773C12.668 8.50781 12.3633 8.67188 12.0703 9L11.5898 9.52734C11.3203 9.82031 11.1797 9.91406 10.7227 9.91406H9.24609C8.00391 9.91406 7.38281 10.5234 7.38281 11.7656V17.9531C7.38281 19.1719 8.00391 19.7812 9.24609 19.7812ZM14.4961 18.3164C12.5391 18.3164 10.9688 16.7578 10.9688 14.7891C10.9688 12.8438 12.5391 11.2852 14.4961 11.2852C16.4297 11.2852 17.9883 12.8438 17.9883 14.7891C17.9883 16.793 16.4297 18.3164 14.4961 18.3164ZM14.4844 17.2969C15.8555 17.2969 16.9805 16.1953 16.9805 14.7891C16.9805 13.4062 15.8555 12.293 14.4844 12.293C13.1016 12.293 11.9766 13.4062 11.9766 14.7891C11.9766 16.1953 13.1016 17.2969 14.4844 17.2969ZM19.1602 13.1133C18.7266 13.1133 18.375 12.7617 18.375 12.3164C18.375 11.8711 18.7266 11.5195 19.1602 11.5195C19.5938 11.5195 19.957 11.8711 19.957 12.3164C19.957 12.7617 19.5938 13.1133 19.1602 13.1133Z" fill="black" fill-opacity="0.85"/>
</g>
<defs>
<clipPath id="clip0_2124_89306">
<rect width="22.9453" height="22.957" fill="white" transform="translate(3 3)"/>
</clipPath>
</defs>
</svg>
