<svg width="28" height="28" viewBox="0 0 28 28" fill="none" xmlns="http://www.w3.org/2000/svg">
<path d="M13.5859 25.6602C13.7734 25.6602 14.0664 25.5898 14.3594 25.4375C21.0273 21.9453 23.1719 20.1992 23.1719 15.9922V7.15625C23.1719 5.94922 22.6562 5.5625 21.6719 5.15234C20.3008 4.58984 15.918 2.99609 14.5586 2.52734C14.2422 2.42188 13.9141 2.36328 13.5859 2.36328C13.2578 2.36328 12.9297 2.43359 12.625 2.52734C11.2539 2.97266 6.87109 4.60156 5.5 5.15234C4.52734 5.55078 4 5.94922 4 7.15625V15.9922C4 20.1992 6.26172 21.7461 12.8125 25.4375C13.1172 25.6016 13.3984 25.6602 13.5859 25.6602Z" fill="black" fill-opacity="0.85"/>
<path d="M13.5859 15.7578C12.9766 15.7578 12.6484 15.418 12.6367 14.7969L12.4727 8.41016C12.4609 7.78906 12.918 7.34375 13.5742 7.34375C14.2188 7.34375 14.6992 7.80078 14.6875 8.42188L14.5234 14.7969C14.5117 15.4297 14.1719 15.7578 13.5859 15.7578ZM13.5859 19.6836C12.8828 19.6836 12.2734 19.1211 12.2734 18.4297C12.2734 17.7383 12.8711 17.1641 13.5859 17.1641C14.3008 17.1641 14.8984 17.7266 14.8984 18.4297C14.8984 19.1328 14.2891 19.6836 13.5859 19.6836Z" fill="white"/>
</svg>
