<svg width="28" height="28" viewBox="0 0 28 28" fill="none" xmlns="http://www.w3.org/2000/svg">
<g clip-path="url(#clip0_2124_89075)">
<path d="M13.9531 25.9062C20.4922 25.9062 25.9062 20.4805 25.9062 13.9531C25.9062 7.41406 20.4805 2 13.9414 2C7.41406 2 2 7.41406 2 13.9531C2 20.4805 7.42578 25.9062 13.9531 25.9062ZM13.9531 23.9141C8.42188 23.9141 4.00391 19.4844 4.00391 13.9531C4.00391 8.42188 8.41016 3.99219 13.9414 3.99219C19.4727 3.99219 23.9141 8.42188 23.9141 13.9531C23.9141 19.4844 19.4844 23.9141 13.9531 23.9141Z" fill="black" fill-opacity="0.85"/>
<path d="M7.25016 13.8828L11.9377 11.4922C12.0432 11.4336 12.1604 11.4336 12.2658 11.4922L16.9533 13.8828C17.5275 14.1758 17.8205 13.4844 17.3635 13.2383L12.6643 10.7656C12.2541 10.5664 11.9377 10.5664 11.5392 10.7773L6.84 13.2383C6.38297 13.4844 6.66422 14.1758 7.25016 13.8828ZM7.05094 19.168H19.4729C19.6838 19.168 19.8596 18.9922 19.8596 18.7695C19.8596 18.5586 19.6838 18.3828 19.4729 18.3828H16.2736C16.2971 18.3008 16.2971 18.2188 16.2971 18.125V14.2578C16.2268 14.2227 16.1447 14.1758 16.0627 14.1406L12.1018 12.1016L8.12907 14.1406C8.04704 14.1758 7.97672 14.2227 7.90641 14.2578V18.125C7.90641 18.2188 7.90641 18.3125 7.94157 18.3828H7.05094C6.85172 18.3828 6.66422 18.5586 6.66422 18.7695C6.66422 18.9922 6.85172 19.168 7.05094 19.168ZM10.6486 18.3828V15.2773C10.6486 15.043 10.8009 14.9141 11.0119 14.9141H13.1799C13.4025 14.9141 13.5432 15.043 13.5432 15.2773V18.3828H10.6486ZM17.1525 18.7578H17.926V11.1992C17.9729 11.1875 18.0432 11.1875 18.1018 11.1875C18.8986 11.1875 19.3908 11.5742 20.176 11.5742C20.5041 11.5742 20.6564 11.5273 20.8205 11.457C21.0197 11.3633 21.1018 11.2344 21.1018 11.0234V8.83203C21.1018 8.69141 21.0197 8.58594 20.8322 8.58594C20.6916 8.58594 20.5158 8.69141 20.1408 8.69141C19.4025 8.69141 18.8986 8.29297 18.09 8.29297C17.7502 8.29297 17.5979 8.33984 17.4455 8.41016C17.2463 8.48047 17.1525 8.63281 17.1525 8.84375V18.7578Z" fill="black" fill-opacity="0.85"/>
</g>
<defs>
<clipPath id="clip0_2124_89075">
<rect width="23.9062" height="23.918" fill="white" transform="translate(2 2)"/>
</clipPath>
</defs>
</svg>
