<svg width="28" height="28" viewBox="0 0 28 28" fill="none" xmlns="http://www.w3.org/2000/svg">
<path d="M6.67969 24.5977H20.8945C23.3555 24.5977 24.5742 23.3789 24.5742 20.9648V6.65625C24.5742 4.24219 23.3555 3.02344 20.8945 3.02344H6.67969C4.23047 3.02344 3 4.23047 3 6.65625V20.9648C3 23.3906 4.23047 24.5977 6.67969 24.5977Z" fill="black" fill-opacity="0.85"/>
<path d="M10.6055 18.8086C10.1133 18.8086 9.71484 18.4102 9.71484 17.918V10.5937L8.61328 11.4844C8.48438 11.5781 8.36719 11.6367 8.16797 11.6367C7.80469 11.6367 7.55859 11.3672 7.55859 10.9922C7.55859 10.6758 7.72266 10.4414 7.93359 10.2773L9.25781 9.24609C9.55078 9.03516 9.96094 8.75391 10.4766 8.75391C11.0977 8.75391 11.4961 9.11719 11.4961 9.73828V17.918C11.4961 18.4102 11.0859 18.8086 10.6055 18.8086ZM16.5352 18.9258C14.1328 18.9258 13.4062 16.2305 13.4062 13.793C13.4062 11.3555 14.1328 8.66016 16.5352 8.66016C18.9375 8.66016 19.6641 11.3555 19.6641 13.793C19.6641 16.2305 18.9375 18.9258 16.5352 18.9258ZM16.5352 17.4844C17.5195 17.4844 17.8945 15.8906 17.8945 13.793C17.8945 11.6836 17.5195 10.1016 16.5352 10.1016C15.5508 10.1016 15.1758 11.6836 15.1758 13.793C15.1758 15.8906 15.5508 17.4844 16.5352 17.4844Z" fill="white"/>
</svg>
