<svg width="28" height="28" viewBox="0 0 28 28" fill="none" xmlns="http://www.w3.org/2000/svg">
<path d="M2.31406 16.8805L11.7008 26.2672C13.4352 28.0016 15.1461 28.0133 16.8687 26.3023L26.3023 16.857C28.0133 15.1461 28.0016 13.4234 26.2672 11.6891L16.8922 2.31406C15.1578 0.579683 13.4469 0.556245 11.7242 2.2789L2.2789 11.7125C0.556245 13.4352 0.579683 15.1461 2.31406 16.8805Z" fill="black" fill-opacity="0.85"/>
<path d="M12.9902 20.0211C12.5801 20.0211 12.2637 19.857 11.9473 19.4469L9.01758 15.8375C8.83008 15.6031 8.73633 15.3453 8.73633 15.0758C8.73633 14.5484 9.13477 14.1148 9.67383 14.1148C10.002 14.1148 10.2715 14.2203 10.5527 14.607L12.9434 17.6773L17.9473 9.63831C18.1582 9.28674 18.4629 9.09924 18.7793 9.09924C19.2949 9.09924 19.7754 9.45081 19.7754 10.0016C19.7754 10.2594 19.6231 10.5289 19.4824 10.775L13.9629 19.4469C13.7285 19.8336 13.3887 20.0211 12.9902 20.0211Z" fill="white"/>
</svg>
