<svg width="28" height="28" viewBox="0 0 28 28" fill="none" xmlns="http://www.w3.org/2000/svg">
<path d="M13.9531 25.9062C20.4922 25.9062 25.9062 20.4805 25.9062 13.9531C25.9062 7.41406 20.4805 2 13.9414 2C7.41406 2 2 7.41406 2 13.9531C2 20.4805 7.42578 25.9062 13.9531 25.9062ZM13.9531 23.9141C8.42188 23.9141 4.00391 19.4844 4.00391 13.9531C4.00391 8.42188 8.41016 3.99219 13.9414 3.99219C19.4727 3.99219 23.9141 8.42188 23.9141 13.9531C23.9141 19.4844 19.4844 23.9141 13.9531 23.9141Z" fill="black" fill-opacity="0.85"/>
<path d="M7.76562 20.2109H8.90234C9.54688 20.2109 9.92188 19.8008 9.92188 19.3203C9.92188 18.8164 9.65234 18.5938 9.125 18.5469C8.86719 18.5117 8.86719 18.2188 9.07812 18.1836C10.4727 17.9727 11.293 17.2344 11.457 16.0156C12.3008 16.6133 13.7305 16.6953 15.1484 16.5078C15.125 17.3398 15.0195 18.4883 15.0195 19.0742C15.0195 19.7656 15.4414 20.2109 16.1094 20.2109H17.0586C17.6914 20.2109 18.0547 19.8008 18.0547 19.332C18.0547 18.8516 17.832 18.6406 17.2227 18.5469C17.1055 18.5117 17.0234 18.4297 17.0586 18.3008C17.1641 17.7266 17.4922 16.5078 17.6797 15.957C18.0664 14.8086 18.6172 14.0586 18.6172 12.8633C18.6172 12.3008 18.7695 11.9727 18.8984 11.8438C19.3555 12.1016 19.6719 12.2305 20.1055 12.2305C21.0547 12.2305 22.0156 11.2578 22.0156 10.2266C22.0156 9.69922 21.5469 9.66406 20.9844 9.30078C20.4922 8.98438 20.2109 8.5625 19.7891 8.32812C19.6367 9.05469 19.0742 10.2031 18.1016 10.2031C17.4922 10.2031 17.0703 9.78125 16.7891 9.26562C16.3438 9.88672 16.1562 10.4023 14.9609 10.8125L10.1211 11.1875C9.99219 11.2109 9.88672 11.2461 9.81641 11.2812L9.39453 10.7539C8.70312 9.94531 7.64844 10.9063 8.31641 11.6797L8.78516 12.2422C8.5625 12.7812 8.43359 13.4258 8.43359 14.2461C8.43359 15.4883 8.33984 15.8516 7.96484 16.1562C7.09766 16.8359 6.75781 17.3047 6.75781 18.0898V19.168C6.75781 19.7773 7.17969 20.2109 7.76562 20.2109ZM20.082 10.2969C19.8594 10.2969 19.7188 10.1445 19.7188 9.94531C19.7188 9.73438 19.8594 9.58203 20.082 9.58203C20.2695 9.58203 20.4219 9.73438 20.4219 9.94531C20.4219 10.1445 20.2695 10.2969 20.082 10.2969ZM18.1016 9.69922C18.8984 9.69922 19.3203 8.33984 19.3203 7.96484C19.3203 7.625 19.1445 7.4375 18.793 7.4375H17.4102C17.0703 7.4375 16.8828 7.625 16.8828 7.96484C16.8828 8.33984 17.293 9.69922 18.1016 9.69922Z" fill="black" fill-opacity="0.85"/>
</svg>
