<svg width="28" height="28" viewBox="0 0 28 28" fill="none" xmlns="http://www.w3.org/2000/svg">
<path d="M2 10.793C2 15.7852 6.18359 20.6953 12.793 24.9141C13.0391 25.0664 13.4023 25.2305 13.6367 25.2305C13.8828 25.2305 14.2344 25.0664 14.4922 24.9141C21.1016 20.6953 25.2852 15.7852 25.2852 10.793C25.2852 6.64453 22.4375 3.71484 18.6289 3.71484C16.4609 3.71484 14.7031 4.74609 13.6367 6.32812C12.5938 4.75781 10.8242 3.71484 8.64453 3.71484C4.84766 3.71484 2 6.64453 2 10.793ZM3.88672 10.793C3.88672 7.67578 5.90234 5.60156 8.62109 5.60156C10.8359 5.60156 12.0898 6.97266 12.8516 8.14453C13.168 8.61328 13.3672 8.74219 13.6367 8.74219C13.918 8.74219 14.0938 8.60156 14.4336 8.14453C15.2422 6.99609 16.4609 5.60156 18.6523 5.60156C21.3828 5.60156 23.3984 7.67578 23.3984 10.793C23.3984 15.1523 18.793 19.8516 13.8828 23.1094C13.7656 23.1914 13.6836 23.25 13.6367 23.25C13.6016 23.25 13.5195 23.1914 13.4023 23.1094C8.49219 19.8516 3.88672 15.1523 3.88672 10.793Z" fill="black" fill-opacity="0.85"/>
<path d="M14.4453 18.9492V14.7305L14.3633 12.832L15.3594 13.8516L16.3906 14.9062C16.5547 15.0703 16.7773 15.1641 17.0117 15.1641C17.4805 15.1641 17.832 14.8359 17.832 14.3555C17.832 14.0977 17.7266 13.8984 17.5391 13.7344L14.1992 10.6523C13.9531 10.4297 13.7656 10.3477 13.543 10.3477C13.3203 10.3477 13.1328 10.4297 12.8867 10.6523L9.54688 13.7344C9.35938 13.8984 9.25391 14.0977 9.25391 14.3555C9.25391 14.8359 9.59375 15.1641 10.0742 15.1641C10.2969 15.1641 10.543 15.0703 10.6953 14.9062L11.7266 13.8516L12.7227 12.832L12.6523 14.7305V18.9492C12.6523 19.4297 13.0625 19.8281 13.543 19.8281C14.0234 19.8281 14.4453 19.4297 14.4453 18.9492Z" fill="black" fill-opacity="0.85"/>
</svg>
