<svg width="28" height="28" viewBox="0 0 28 28" fill="none" xmlns="http://www.w3.org/2000/svg">
<path d="M13.9531 25.9062C20.4922 25.9062 25.9062 20.4805 25.9062 13.9531C25.9062 7.41406 20.4805 2 13.9414 2C7.41406 2 2 7.41406 2 13.9531C2 20.4805 7.42578 25.9062 13.9531 25.9062ZM13.9531 23.9141C8.42188 23.9141 4.00391 19.4844 4.00391 13.9531C4.00391 8.42188 8.41016 3.99219 13.9414 3.99219C19.4727 3.99219 23.9141 8.42188 23.9141 13.9531C23.9141 19.4844 19.4844 23.9141 13.9531 23.9141Z" fill="black" fill-opacity="0.85"/>
<path d="M17.4453 8.79688L16.25 9.95703C16.0977 10.1211 15.875 10.1211 15.7109 9.95703C15.5586 9.80469 15.5703 9.58203 15.7109 9.41797L16.7539 8.375C15.8984 7.94141 14.9375 7.68359 13.9414 7.68359C10.5195 7.68359 7.67188 10.543 7.67188 13.9648C7.67188 14.9609 7.91797 15.9102 8.35156 16.7539L9.41797 15.7227C9.57031 15.5703 9.79296 15.5703 9.95703 15.7227C10.1094 15.875 10.1211 16.1094 9.95703 16.2734L8.77344 17.457C8.90234 17.668 9.04297 17.8555 9.21875 18.0312L18.0312 9.24219C17.8438 9.07812 17.6445 8.92578 17.4453 8.79688ZM15.3125 10.9063L14.457 11.75C14.3047 11.9023 14.082 11.9023 13.9297 11.75C13.7656 11.6094 13.7656 11.375 13.9297 11.2109L14.7734 10.3672C14.9258 10.2148 15.1602 10.2148 15.3125 10.3672C15.4648 10.5195 15.4648 10.7539 15.3125 10.9063ZM13.5312 12.6875L12.6758 13.5547C12.5352 13.6953 12.2773 13.6953 12.1367 13.5547C11.9844 13.3906 11.9844 13.1562 12.1367 13.0039L12.9805 12.1602C13.1328 11.9961 13.3789 11.9961 13.5312 12.1602C13.6719 12.3008 13.6719 12.5469 13.5312 12.6875ZM11.7383 14.4688L10.8945 15.3242C10.7539 15.4883 10.5078 15.4766 10.3555 15.3242C10.2031 15.1836 10.2031 14.9375 10.3555 14.7852L11.1992 13.9414C11.3633 13.7773 11.5859 13.7773 11.7383 13.9414C11.8906 14.0938 11.8789 14.3164 11.7383 14.4688ZM19.5312 11.1641L18.5 12.1836C18.3359 12.3359 18.1133 12.3359 17.9609 12.1836C17.7969 12.0195 17.7969 11.7852 17.9609 11.6328L19.1211 10.4727C18.9805 10.2734 18.8398 10.0742 18.6641 9.88672L9.875 18.6875C10.0391 18.8516 10.2383 18.9922 10.4375 19.1328L11.6562 17.9375C11.8086 17.7852 12.043 17.7852 12.1953 17.9375C12.3477 18.1016 12.3477 18.3242 12.1953 18.4766L11.1406 19.5547C11.9961 19.9883 12.9453 20.2461 13.9414 20.2461C17.3633 20.2461 20.2227 17.3867 20.2227 13.9648C20.2227 12.9688 19.9648 12.0078 19.5312 11.1641ZM17.5508 13.1211L16.707 13.9648C16.543 14.1289 16.3203 14.1289 16.168 13.9648C16.0156 13.8125 16.0273 13.5898 16.168 13.4375L17.0117 12.5703C17.1523 12.418 17.3984 12.4297 17.5508 12.5703C17.7031 12.7227 17.7031 12.9688 17.5508 13.1211ZM15.7578 14.9023L14.9141 15.7578C14.7617 15.9102 14.5273 15.9102 14.3633 15.7578C14.2227 15.6172 14.2227 15.3594 14.3633 15.2188L15.2305 14.3633C15.3711 14.2227 15.6172 14.2227 15.7578 14.3633C15.9219 14.5156 15.9219 14.7617 15.7578 14.9023ZM13.9766 16.6953L13.1328 17.5391C12.9805 17.6914 12.7344 17.6914 12.6055 17.5391C12.4414 17.3867 12.4414 17.1523 12.6055 17L13.4492 16.1562C13.6016 16.0039 13.8242 16.0039 13.9766 16.1562C14.1289 16.2969 14.1289 16.5312 13.9766 16.6953Z" fill="black" fill-opacity="0.85"/>
</svg>
