<svg width="28" height="28" viewBox="0 0 28 28" fill="none" xmlns="http://www.w3.org/2000/svg">
<g clip-path="url(#clip0_2124_89402)">
<path d="M13.9531 25.9062C20.4922 25.9062 25.9062 20.4805 25.9062 13.9531C25.9062 7.41406 20.4805 2 13.9414 2C7.41406 2 2 7.41406 2 13.9531C2 20.4805 7.42578 25.9062 13.9531 25.9062ZM13.9531 23.9141C8.42188 23.9141 4.00391 19.4844 4.00391 13.9531C4.00391 8.42188 8.41016 3.99219 13.9414 3.99219C19.4727 3.99219 23.9141 8.42188 23.9141 13.9531C23.9141 19.4844 19.4844 23.9141 13.9531 23.9141Z" fill="black" fill-opacity="0.85"/>
<path d="M6.40625 16.5664C6.40625 18.207 7.85938 19.4492 9.67578 19.4492C11.4805 19.4492 12.957 18.207 12.957 16.5664V15.0312C13.2383 14.9258 13.5898 14.8555 13.9414 14.8555C14.3281 14.8555 14.6562 14.9023 14.9258 14.9961V16.5664C14.9258 18.207 16.4023 19.4492 18.1953 19.4492C20.0117 19.4492 21.4766 18.207 21.4766 16.5664C21.4766 16.1328 21.4297 15.7344 21.1953 15.1602L18.7344 9.44141C18.4062 8.67969 17.6914 8.22266 16.8008 8.22266C15.6641 8.22266 14.9258 8.94922 14.9258 10.0273V10.6133C14.6328 10.5195 14.3047 10.4727 13.9414 10.4727C13.6016 10.4727 13.2617 10.5312 12.957 10.6367V10.0273C12.957 8.94922 12.2188 8.22266 11.082 8.22266C10.1914 8.22266 9.47656 8.67969 9.16016 9.44141L6.6875 15.1602C6.45312 15.7344 6.40625 16.1328 6.40625 16.5664ZM7.61328 16.5664C7.61328 15.5469 8.44531 14.8555 9.67578 14.8555C10.9297 14.8555 11.7734 15.5469 11.7734 16.5664C11.7734 17.5625 10.9297 18.2656 9.67578 18.2656C8.44531 18.2656 7.61328 17.5625 7.61328 16.5664ZM16.0977 16.5664C16.0977 15.5469 16.9531 14.8555 18.1953 14.8555C19.4258 14.8555 20.2695 15.5469 20.2695 16.5664C20.2695 17.5625 19.4258 18.2656 18.1953 18.2656C16.9531 18.2656 16.0977 17.5625 16.0977 16.5664ZM12.957 13.2734V12.4062C13.25 12.3125 13.6016 12.2539 13.9414 12.2539C14.3047 12.2539 14.6328 12.3008 14.9258 12.3828V13.2148C14.6562 13.1328 14.3281 13.0859 13.9414 13.0859C13.5898 13.0859 13.2383 13.1445 12.957 13.2734Z" fill="black" fill-opacity="0.85"/>
</g>
<defs>
<clipPath id="clip0_2124_89402">
<rect width="23.9062" height="23.918" fill="white" transform="translate(2 2)"/>
</clipPath>
</defs>
</svg>
