<svg width="28" height="28" viewBox="0 0 28 28" fill="none" xmlns="http://www.w3.org/2000/svg">
<path d="M6.67969 24.5977H20.8945C23.3555 24.5977 24.5742 23.3789 24.5742 20.9648V6.65625C24.5742 4.24219 23.3555 3.02344 20.8945 3.02344H6.67969C4.23047 3.02344 3 4.23047 3 6.65625V20.9648C3 23.3906 4.23047 24.5977 6.67969 24.5977Z" fill="black" fill-opacity="0.85"/>
<path d="M11.543 19.1836C10.9219 19.1836 10.582 18.7383 10.582 18.0938V9.11719C10.582 8.47266 10.9219 8.01562 11.543 8.01562C12.1875 8.01562 12.5273 8.44922 12.5273 9.11719V17.5898H17.1094C17.5781 17.5898 17.918 17.8945 17.918 18.3867C17.918 18.8789 17.5781 19.1836 17.1094 19.1836H11.543Z" fill="white"/>
</svg>
