<svg width="29" height="29" viewBox="0 0 29 29" fill="none" xmlns="http://www.w3.org/2000/svg">
<g clip-path="url(#clip0_2124_45961)">
<path d="M14.0112 6.75806C15.6166 6.75806 16.8822 5.48071 16.8822 3.88696C16.8822 2.29321 15.6049 1.00415 14.0112 1.00415C12.4292 1.00415 11.1401 2.29321 11.1401 3.88696C11.1401 5.48071 12.4174 6.75806 14.0112 6.75806ZM13.9292 17.0237C14.3276 17.0237 14.6088 17.2464 14.726 17.6917L16.683 25.2269C17.1283 26.9261 19.4486 26.3519 19.2026 24.7346C19.1088 24.1136 17.4213 17.7386 17.1752 16.2972C16.9877 15.2308 17.0697 12.5589 17.0697 11.387C17.0697 11.0237 17.3744 10.8479 17.7377 10.9885L21.0658 12.3245C21.9565 12.6878 22.6127 12.2424 22.7885 11.633C22.9643 11.0705 22.7182 10.3674 21.8861 10.0159L18.2768 8.53931C17.4565 8.19946 16.7065 8.00024 15.8861 7.90649C15.3002 8.19946 14.6323 8.35181 13.9292 8.35181C13.2377 8.35181 12.5698 8.19946 11.9838 7.90649C11.1518 8.00024 10.4135 8.19946 9.59322 8.53931L5.98384 10.0159C5.15181 10.3674 4.894 11.0705 5.0815 11.633C5.25728 12.2424 5.90181 12.6878 6.79244 12.3245L10.1323 10.9885C10.4956 10.8479 10.7885 11.0237 10.7885 11.387C10.7885 12.5589 10.8706 15.2308 10.6948 16.2972C10.4487 17.7386 8.74947 24.1136 8.65572 24.7346C8.40962 26.3519 10.7417 26.9261 11.1752 25.2269L13.1323 17.6917C13.2495 17.2464 13.5424 17.0237 13.9292 17.0237Z" fill="black" fill-opacity="0.85"/>
</g>
<defs>
<clipPath id="clip0_2124_45961">
<rect width="17.8186" height="25.9336" fill="white" transform="translate(5.02344 1.00415)"/>
</clipPath>
</defs>
</svg>
