<svg width="28" height="28" viewBox="0 0 28 28" fill="none" xmlns="http://www.w3.org/2000/svg">
<path d="M13.9531 25.9062C20.4922 25.9062 25.9062 20.4805 25.9062 13.9531C25.9062 7.41406 20.4805 2 13.9414 2C7.41406 2 2 7.41406 2 13.9531C2 20.4805 7.42578 25.9062 13.9531 25.9062ZM13.9531 23.9141C8.42188 23.9141 4.00391 19.4844 4.00391 13.9531C4.00391 8.42188 8.41016 3.99219 13.9414 3.99219C19.4727 3.99219 23.9141 8.42188 23.9141 13.9531C23.9141 19.4844 19.4844 23.9141 13.9531 23.9141Z" fill="black" fill-opacity="0.85"/>
<path d="M6.46484 17.7734C6.85156 17.7734 7.0625 17.5273 7.0625 17.1289V12.1484H7.10938L8.11719 16.9531C8.19922 17.3516 8.42188 17.6328 8.82031 17.6328C9.23047 17.6328 9.44141 17.3516 9.52344 16.9531L10.5312 12.1484H10.5781V17.1289C10.5781 17.5156 10.7891 17.7734 11.1641 17.7734C11.5508 17.7734 11.7734 17.5273 11.7734 17.1289V11.0703C11.7734 10.4727 11.3867 10.1211 10.7891 10.1211C10.25 10.1211 9.93359 10.3555 9.82812 10.9063L8.83203 15.8398H8.82031L7.78906 10.9063C7.67188 10.3203 7.33203 10.1211 6.83984 10.1211C6.14844 10.1211 5.85547 10.5781 5.85547 11.0703V17.1289C5.85547 17.5156 6.07812 17.7734 6.46484 17.7734ZM13.3672 17.75C13.7656 17.75 14.0469 17.5273 14.0469 17.0469V15.207H14.832C16.2031 15.207 16.8945 14.0234 16.8945 12.7227C16.8945 11.3984 16.2266 10.2383 14.9141 10.2383H13.3672C12.9922 10.2383 12.7109 10.4492 12.7109 10.9414V17.0469C12.7109 17.5625 13.0391 17.75 13.3672 17.75ZM14.0469 14.1406V11.3164H14.5625C15.3125 11.3164 15.5703 11.9727 15.5703 12.7227C15.5703 13.4727 15.3125 14.1406 14.5508 14.1406H14.0469ZM18.2656 17.7734C18.7109 17.7734 18.9453 17.4688 18.9453 17.0352V14.4453H20.75V17.0352C20.75 17.4219 20.9609 17.7734 21.4297 17.7734C21.8633 17.7734 22.0977 17.4922 22.0977 17.0352V10.8359C22.0977 10.3789 21.8516 10.1211 21.4297 10.1211C20.9727 10.1211 20.75 10.4141 20.75 10.8359V13.3203H18.9453V10.8359C18.9453 10.4023 18.7109 10.1211 18.2656 10.1211C17.832 10.1211 17.5977 10.4023 17.5977 10.8359V17.0352C17.5977 17.4688 17.832 17.7734 18.2656 17.7734Z" fill="black" fill-opacity="0.85"/>
</svg>
