<svg width="28" height="28" viewBox="0 0 28 28" fill="none" xmlns="http://www.w3.org/2000/svg">
<path d="M1.19649 21.8281C2.22774 25.6484 3.29414 26.8086 5.70821 26.8086H19.384C21.1184 26.8086 22.2785 25.8711 22.7121 24.1133L27.1184 6.23047C27.8332 3.3125 26.3801 2 24.6926 2C22.4543 2 20.0168 4.39062 21.3879 8.25781L21.7277 6.81641C18.2004 8.66797 16.5949 12.957 17.2395 18.1953L17.6613 17.6094C15.2473 17.1055 12.0949 16.8008 9.05977 16.8008C2.79024 16.8008 0.235549 18.3242 1.19649 21.8281Z" fill="black" fill-opacity="0.85"/>
<path d="M2.4502 9.78125C2.4502 11.5039 4.02052 13.2383 5.47364 13.2383C6.80958 13.2383 7.47755 12.043 8.28614 9.92188L8.57911 9.86328V12.1484C8.57911 13.1328 9.09473 13.6367 10.0439 13.6367C11.7549 13.6367 13.501 12.0781 13.501 10.6133C13.501 9.26562 12.2939 8.59766 10.1729 7.78906L10.1143 7.49609H12.3994C13.3838 7.49609 13.8877 6.99219 13.8877 6.04297C13.8877 4.32031 12.3291 2.57422 10.8643 2.57422C9.52833 2.57422 8.84864 3.79297 8.05177 5.92578L7.74708 5.96094V3.67578C7.74708 2.70313 7.25489 2.1875 6.30567 2.1875C4.5713 2.1875 2.83692 3.75781 2.83692 5.21094C2.83692 6.54688 4.05567 7.21484 6.18848 8.02344L6.21192 8.32812H3.93848C2.95411 8.32812 2.4502 8.84375 2.4502 9.78125ZM6.99708 7.90625C6.99708 7.26172 7.5127 6.73438 8.16895 6.73438C8.81348 6.73438 9.34083 7.26172 9.34083 7.90625C9.34083 8.5625 8.81348 9.07812 8.16895 9.07812C7.52442 9.07812 6.99708 8.5625 6.99708 7.90625Z" fill="black" fill-opacity="0.85"/>
</svg>
