<svg width="28" height="29" viewBox="0 0 28 29" fill="none" xmlns="http://www.w3.org/2000/svg">
<path d="M13.375 5.8125C14.7812 5.8125 15.9297 4.67578 15.9297 3.23438C15.9297 1.83984 14.7812 0.691406 13.375 0.691406C11.9453 0.691406 10.8086 1.83984 10.8086 3.23438C10.8086 4.67578 11.9453 5.8125 13.375 5.8125ZM5.19531 28.2656C5.71094 28.5352 6.46094 28.4297 6.8125 27.7969L9.76562 22.4766L11.5117 18.5508C11.5469 18.4688 11.6641 18.4336 11.7344 18.5039L16.4219 21.9023V27.2109C16.4219 27.8789 16.9492 28.4062 17.6055 28.4062C18.2734 28.4062 18.7891 27.8789 18.7891 27.2109V21.375C18.7891 21.0352 18.6953 20.6836 18.4258 20.4375L13.5391 15.8203L13.9961 12.1055C14.0078 11.9648 14.1953 11.9531 14.2422 12.0703L15.332 14.6602C15.5195 15.1172 15.9414 15.3867 16.4219 15.3867H21.4492C22.1055 15.3867 22.6328 14.8594 22.6328 14.2031C22.6328 13.5469 22.1055 13.0195 21.4492 13.0195H17.1953L15.5078 9.04688C15.0625 8.01562 14.4062 7.42969 12.9062 7.01953L12.2266 6.83203C10.5977 6.375 9.48438 6.30469 8.17188 6.87891L6.36719 7.65234V3.25781C6.36719 2.61328 5.82812 2.08594 5.18359 2.08594C4.52734 2.08594 4 2.61328 4 3.25781V9.59766C4 10.4414 4.87891 10.8984 5.65234 10.5586L9.00391 9.09375C9.15625 9.03516 9.29688 9.12891 9.27344 9.29297L7.58594 21.5273L4.72656 26.6602C4.42188 27.2109 4.62109 27.9727 5.19531 28.2656ZM20.6523 11.2148H21.9531V0.644531C21.9531 0.28125 21.6602 0 21.2969 0C20.9336 0 20.6523 0.28125 20.6523 0.644531V11.2148ZM19.6797 11.8945H22.9141C23.3008 11.8945 23.4648 11.5664 23.3359 11.2148C23.043 10.3359 22.2344 9.72656 21.2969 9.72656C20.3594 9.72656 19.5508 10.3359 19.2578 11.2148C19.1289 11.5664 19.293 11.8945 19.6797 11.8945Z" fill="black" fill-opacity="0.85"/>
</svg>
