<svg width="28" height="28" viewBox="0 0 28 28" fill="none" xmlns="http://www.w3.org/2000/svg">
<path d="M13.9531 25.9062C20.4922 25.9062 25.9062 20.4805 25.9062 13.9531C25.9062 7.41406 20.4805 2 13.9414 2C7.41406 2 2 7.41406 2 13.9531C2 20.4805 7.42578 25.9062 13.9531 25.9062ZM13.9531 23.9141C8.42188 23.9141 4.00391 19.4844 4.00391 13.9531C4.00391 8.42188 8.41016 3.99219 13.9414 3.99219C19.4727 3.99219 23.9141 8.42188 23.9141 13.9531C23.9141 19.4844 19.4844 23.9141 13.9531 23.9141Z" fill="black" fill-opacity="0.85"/>
<path d="M9.03125 14.1406C9.03125 14.457 9.26562 14.7148 9.59375 14.7148H10.2383V19.0156C10.2383 19.4727 10.5547 19.7773 11 19.7773C11.4453 19.7773 11.75 19.4727 11.75 19.0156V14.7148H13.4375L15.6523 19.1094C15.8516 19.5312 16.1797 19.7891 16.6719 19.7891C17.2461 19.7891 17.6211 19.4141 17.6211 18.8398V14.7266H18.2891C18.6055 14.7266 18.8516 14.457 18.8516 14.1406C18.8516 13.8008 18.6055 13.5664 18.2891 13.5664H17.6211V9.23047C17.6211 8.77344 17.3164 8.46875 16.8594 8.46875C16.4141 8.46875 16.1094 8.77344 16.1094 9.23047V13.5664H14.4336L12.207 9.13672C12.0078 8.71484 11.6797 8.45703 11.1875 8.45703C10.6133 8.45703 10.2383 8.83203 10.2383 9.39453V13.5547H9.59375C9.27734 13.5547 9.03125 13.8008 9.03125 14.1406ZM11.75 13.5547V11.1758L12.8516 13.5547H11.75ZM15.0195 14.7266H16.1094V17.0938L15.0195 14.7266Z" fill="black" fill-opacity="0.85"/>
</svg>
