<svg width="28" height="28" viewBox="0 0 28 28" fill="none" xmlns="http://www.w3.org/2000/svg">
<path d="M2 15.9531C2 19.0234 3.19531 21.8477 5.14062 23.9688C5.65625 24.543 6.55859 24.6836 7.25 23.9922L8.90234 22.3516C9.26562 21.9883 9.26562 21.3789 8.90234 21.0156C8.53906 20.6523 7.92969 20.6523 7.56641 21.0156L6.27734 22.3047C4.85938 20.582 4.00391 18.3906 4.00391 15.9531C4.00391 10.4336 8.41016 5.99219 13.9414 5.99219C19.4727 5.99219 23.8789 10.4336 23.8789 15.9531C23.8789 18.3906 23.0234 20.582 21.6055 22.3047L20.3164 21.0156C19.9531 20.6523 19.3438 20.6523 18.9805 21.0156C18.6172 21.3789 18.6172 21.9883 18.9805 22.3516L20.6328 23.9922C21.3242 24.6836 22.2266 24.543 22.7422 23.9688C24.6875 21.8477 25.8828 19.0234 25.8828 15.9531C25.8828 9.42578 20.4805 4 13.9414 4C7.41406 4 2 9.42578 2 15.9531ZM5.86719 15.0156H2.99609V16.9023H5.86719C6.38281 16.9023 6.80469 16.4688 6.80469 15.9531C6.80469 15.4375 6.38281 15.0156 5.86719 15.0156ZM13.0039 7.85547C13.0039 8.37109 13.4258 8.80469 13.9414 8.80469C14.457 8.80469 14.8906 8.37109 14.8906 7.85547V4.99609H13.0039V7.85547ZM19.0156 9.56641C18.6523 9.92969 18.6523 10.5273 19.0156 10.9023C19.3789 11.2656 19.9883 11.2656 20.3516 10.9023L22.3672 8.875L21.043 7.53906L19.0156 9.56641ZM22.0508 15.0156C21.5352 15.0156 21.1133 15.4375 21.1133 15.9531C21.1133 16.4688 21.5352 16.9023 22.0508 16.9023H24.9219V15.0156H22.0508Z" fill="black" fill-opacity="0.85"/>
<path d="M15.4299 17.4531C16.2033 16.6797 16.2033 15.5781 15.4299 14.8047C15.2893 14.6641 14.9846 14.4414 14.7971 14.3125L9.11353 10.3633C8.83228 10.1641 8.55103 10.2227 8.37525 10.3867C8.21119 10.5742 8.15259 10.8438 8.35181 11.125L12.301 16.8086C12.4299 16.9961 12.6525 17.3008 12.7932 17.4531C13.5666 18.2148 14.6682 18.2148 15.4299 17.4531Z" fill="black" fill-opacity="0.85"/>
</svg>
