<svg width="29" height="29" viewBox="0 0 29 29" fill="none" xmlns="http://www.w3.org/2000/svg">
<g clip-path="url(#clip0_2124_45990)">
<path d="M7.19141 24.6774C8.28125 24.6774 9.39453 24.2321 10.3437 23.4704L9.13672 22.2517C8.5625 22.6618 7.90625 22.8845 7.20313 22.8845C5.35156 22.8845 3.96875 21.6306 3.96875 19.861C3.96875 17.2946 6.11328 16.0056 8.5625 16.3806C9.98047 13.2634 10.707 9.50171 11.5156 6.13843C11.8672 4.69703 12.5234 3.91187 13.8008 3.91187C15.0781 3.91187 15.7344 4.69703 16.0742 6.13843C16.8945 9.50171 17.6211 13.2634 19.039 16.3806C21.4883 16.0056 23.6328 17.2946 23.6328 19.861C23.6328 21.6306 22.25 22.8845 20.3984 22.8845C19.6953 22.8845 19.039 22.6618 18.4531 22.2517L17.2578 23.4704C18.1953 24.2321 19.3203 24.6774 20.4101 24.6774C23.5273 24.6774 25.5898 22.7087 25.5898 19.7439C25.5898 16.9196 23.5508 14.8103 20.4453 14.4704C19.3789 11.6814 18.5351 8.61109 17.8555 5.66968C17.3164 3.29077 15.9805 2.02515 13.8008 2.02515C11.6211 2.02515 10.2852 3.29077 9.7461 5.66968C9.06641 8.61109 8.22266 11.6814 7.15625 14.4704C4.05078 14.8103 2.01172 16.9196 2.01172 19.7439C2.01172 22.7087 4.07422 24.6774 7.19141 24.6774ZM13.8008 25.029C16.6601 25.029 18.1719 23.6931 19.2148 22.3454C19.4609 22.4978 19.7305 22.5798 20.0234 22.5798C20.9609 22.5798 21.5 21.9235 21.5 21.2439C21.5 20.5642 20.9961 19.9079 20.1172 19.9079C19.4844 19.9079 19.1211 20.2478 18.5937 20.822C17.1406 22.3806 15.8281 23.0603 13.8008 23.0603C11.7734 23.0603 10.4492 22.3923 9.00781 20.822C8.48047 20.2478 8.11719 19.9079 7.48438 19.9079C6.59375 19.9079 6.10156 20.5642 6.10156 21.2439C6.10156 21.9235 6.64063 22.5798 7.56641 22.5798C7.8711 22.5798 8.14063 22.4978 8.375 22.3454C9.42969 23.6931 10.9414 25.029 13.8008 25.029Z" fill="black" fill-opacity="0.85"/>
</g>
<defs>
<clipPath id="clip0_2124_45990">
<rect width="23.5781" height="23.0977" fill="white" transform="translate(2.01172 2.02515)"/>
</clipPath>
</defs>
</svg>
