<svg width="28" height="28" viewBox="0 0 28 28" fill="none" xmlns="http://www.w3.org/2000/svg">
<path d="M14.2344 24.5508C21.0898 24.5508 26.4805 19.1719 26.4805 12.7148C26.4805 9.30469 24.9805 6.22266 22.8594 4.20703C21.9688 3.375 20.9961 3 19.6719 3H8.79688C7.48438 3 6.51172 3.375 5.62109 4.20703C3.48828 6.22266 2 9.30469 2 12.7148C2 19.1719 7.39062 24.5508 14.2344 24.5508Z" fill="black" fill-opacity="0.85"/>
<path d="M11.0586 9.87891C9.98047 9.87891 9.11328 9 9.11328 7.94531C9.11328 6.86719 9.98047 6 11.0586 6C12.125 6 12.9922 6.86719 12.9922 7.94531C12.9922 9 12.125 9.87891 11.0586 9.87891ZM17.4219 9.87891C16.3438 9.87891 15.4766 9 15.4766 7.94531C15.4766 6.86719 16.3438 6 17.4219 6C18.5 6 19.3672 6.86719 19.3672 7.94531C19.3672 9 18.5 9.87891 17.4219 9.87891ZM7.87109 15.4102C6.35938 15.4102 5.15234 14.1914 5.15234 12.6914C5.15234 11.1914 6.35938 9.97266 7.87109 9.97266C9.35938 9.97266 10.5781 11.1914 10.5781 12.6914C10.5781 14.1914 9.35938 15.4102 7.87109 15.4102ZM14.2344 15.4102C12.7344 15.4102 11.5273 14.1914 11.5273 12.6914C11.5273 11.1914 12.7344 9.97266 14.2344 9.97266C15.7461 9.97266 16.9531 11.1914 16.9531 12.6914C16.9531 14.1914 15.7461 15.4102 14.2344 15.4102ZM20.6094 15.4102C19.1211 15.4102 17.8906 14.1914 17.8906 12.6914C17.8906 11.1914 19.1211 9.97266 20.6094 9.97266C22.1094 9.97266 23.3281 11.1914 23.3281 12.6914C23.3281 14.1914 22.1094 15.4102 20.6094 15.4102ZM11.0469 21C9.54688 21 8.33984 19.7812 8.33984 18.2812C8.33984 16.7812 9.54688 15.5625 11.0469 15.5625C12.5586 15.5625 13.7656 16.7812 13.7656 18.2812C13.7656 19.7812 12.5586 21 11.0469 21ZM17.4219 21C15.9219 21 14.7031 19.7812 14.7031 18.2812C14.7031 16.7812 15.9219 15.5625 17.4219 15.5625C18.9336 15.5625 20.1406 16.7812 20.1406 18.2812C20.1406 19.7812 18.9336 21 17.4219 21Z" fill="white"/>
</svg>
