<svg width="28" height="28" viewBox="0 0 28 28" fill="none" xmlns="http://www.w3.org/2000/svg">
<path d="M13.9531 25.918C20.4922 25.918 25.9062 20.5039 25.9062 13.9648C25.9062 7.4375 20.4805 2.01172 13.9414 2.01172C7.41406 2.01172 2 7.4375 2 13.9648C2 20.5039 7.42578 25.918 13.9531 25.918Z" fill="black" fill-opacity="0.85"/>
<path d="M13.9531 6.58203C14.1758 6.58203 14.4219 6.66406 14.668 6.92188L19.5078 12.1133C19.8359 12.4648 19.9766 12.6641 19.9766 12.9805C19.9766 13.4492 19.6133 13.7773 19.1797 13.7773H16.543V19.2383C16.543 20.1992 15.9922 20.75 15.0664 20.75H12.8281C11.9023 20.75 11.3633 20.1992 11.3633 19.2383V13.7773H8.70312C8.24609 13.7773 7.92969 13.4492 7.92969 13.0039C7.92969 12.6758 8.07031 12.4297 8.35156 12.1133L13.25 6.92188C13.4844 6.66406 13.7422 6.58203 13.9531 6.58203Z" fill="white"/>
</svg>
