<svg width="28" height="28" viewBox="0 0 28 28" fill="none" xmlns="http://www.w3.org/2000/svg">
<path d="M13.9531 25.9062C20.4922 25.9062 25.9062 20.4805 25.9062 13.9531C25.9062 7.41406 20.4805 2 13.9414 2C7.41406 2 2 7.41406 2 13.9531C2 20.4805 7.42578 25.9062 13.9531 25.9062ZM13.9531 23.9141C8.42188 23.9141 4.00391 19.4844 4.00391 13.9531C4.00391 8.42188 8.41016 3.99219 13.9414 3.99219C19.4727 3.99219 23.9141 8.42188 23.9141 13.9531C23.9141 19.4844 19.4844 23.9141 13.9531 23.9141Z" fill="black" fill-opacity="0.85"/>
<path d="M13.9414 20.6445C14.2578 20.6445 14.4922 20.4219 14.4922 20.0938V19.2734C16.3086 19.0977 17.7266 18.043 17.7266 16.2734C17.7266 14.6797 16.6953 13.7188 14.6562 13.3555L14.4922 13.3203V10.0508C15.3359 10.2031 15.9219 10.707 16.1562 11.4922C16.2734 11.8438 16.4961 12.0664 16.8711 12.0664C17.2695 12.0664 17.5625 11.7852 17.5625 11.375C17.5625 11.2578 17.5273 11.1406 17.5039 11.0117C17.1992 9.74609 15.9922 8.87891 14.4922 8.70312V7.89453C14.4922 7.56641 14.2578 7.34375 13.9414 7.34375C13.625 7.34375 13.3906 7.56641 13.3906 7.89453V8.70312C11.6094 8.90234 10.3438 10.0156 10.3438 11.6094C10.3438 13.0977 11.3516 13.9883 13.3086 14.4453L13.3906 14.4688V17.9375C12.3359 17.7852 11.7148 17.1992 11.5273 16.4141C11.3867 16.0156 11.1523 15.8281 10.8008 15.8281C10.4023 15.8281 10.1211 16.1094 10.1211 16.5195C10.1211 16.6484 10.1445 16.7656 10.1797 16.8828C10.5078 18.2305 11.8203 19.0977 13.3906 19.25V20.0938C13.3906 20.4219 13.625 20.6445 13.9414 20.6445ZM13.3906 13.0273L13.3086 13.0039C12.2539 12.6992 11.7852 12.2305 11.7852 11.5391C11.7852 10.8242 12.3945 10.2266 13.3906 10.0508V13.0273ZM14.4922 14.75L14.75 14.8086C15.8867 15.125 16.2734 15.6055 16.2734 16.3555C16.2734 17.1758 15.6875 17.7969 14.4922 17.9375V14.75Z" fill="black" fill-opacity="0.85"/>
</svg>
