<svg width="28" height="28" viewBox="0 0 28 28" fill="none" xmlns="http://www.w3.org/2000/svg">
<path d="M6.67969 24.5977H20.8945C23.3555 24.5977 24.5742 23.3789 24.5742 20.9648V6.65625C24.5742 4.24219 23.3555 3.02344 20.8945 3.02344H6.67969C4.23047 3.02344 3 4.23047 3 6.65625V20.9648C3 23.3906 4.23047 24.5977 6.67969 24.5977Z" fill="black" fill-opacity="0.85"/>
<path d="M11.0508 19.2773C10.5117 19.2773 10.1836 18.9727 10.1836 18.4805C10.1836 18.2344 10.3008 17.9883 10.5117 17.7539L14.3672 13.6172C15.082 12.8672 15.832 12.1289 15.832 11.25C15.832 10.2539 15.0586 9.58594 13.9102 9.58594C12.75 9.58594 12.1055 10.3594 11.7891 11.0859C11.5781 11.4258 11.3672 11.6953 10.9336 11.6953C10.4531 11.6953 10.1367 11.3906 10.1367 10.9219C10.1367 10.7578 10.1484 10.6172 10.207 10.4297C10.6055 9.08203 12.1172 8.03906 13.8281 8.03906C16.0664 8.03906 17.543 9.26953 17.543 11.0977C17.543 12.4453 16.793 13.4062 15.7266 14.543L12.8672 17.6016V17.6836H17.2617C17.7422 17.6836 18.082 17.9766 18.082 18.4805C18.082 18.9727 17.7422 19.2773 17.2617 19.2773H11.0508Z" fill="white"/>
</svg>
