<svg width="34" height="30" viewBox="0 0 34 30" fill="none" xmlns="http://www.w3.org/2000/svg">
<path d="M16.7227 26.4112C22.9688 26.4112 28.1602 21.2315 28.1602 14.9854C28.1602 8.73926 22.9688 3.55957 16.7109 3.55957C10.4648 3.55957 5.29688 8.72754 5.29688 14.9854C5.29688 21.2315 10.4766 26.4112 16.7227 26.4112ZM16.7227 24.419C11.4961 24.419 7.30078 20.2237 7.30078 14.9854C7.30078 9.73535 11.4844 5.54004 16.7109 5.54004C21.9492 5.54004 26.1562 9.73535 26.168 14.9854C26.1797 20.2119 21.9727 24.419 16.7227 24.419ZM0 14.9854C0 18.7002 1.20703 22.1104 3.24609 24.8877C3.60938 25.3916 4.23047 25.4385 4.69922 25.0635C5.12109 24.7002 5.17969 24.1377 4.83984 23.669C3.05859 21.2432 2.00391 18.2315 2.00391 14.9854C2.00391 11.7276 3.05859 8.72754 4.83984 6.27832C5.17969 5.83301 5.13281 5.25879 4.69922 4.89551C4.23047 4.52051 3.60938 4.5791 3.24609 5.07129C1.20703 7.84863 0 11.2705 0 14.9854ZM33.4453 14.9854C33.4453 11.2705 32.25 7.84863 30.1992 5.07129C29.8359 4.5791 29.2148 4.52051 28.7461 4.89551C28.3125 5.25879 28.2773 5.83301 28.6055 6.27832C30.3984 8.72754 31.4414 11.7276 31.4414 14.9854C31.4414 18.2315 30.3984 21.2432 28.6055 23.669C28.2773 24.1377 28.3242 24.7002 28.7461 25.0635C29.2148 25.4385 29.8359 25.3916 30.1992 24.8877C32.25 22.1104 33.4453 18.7002 33.4453 14.9854ZM14.3438 20.3526C14.9648 20.3526 15.293 19.9424 15.293 19.2979V16.7315H17.6016C19.8984 16.7315 21.4219 15.3018 21.4219 13.1455C21.4219 10.9893 19.875 9.53613 17.6133 9.53613H14.3438C13.7344 9.53613 13.418 9.95801 13.418 10.5908V19.2979C13.418 19.919 13.7461 20.3526 14.3438 20.3526ZM15.293 15.3018V10.9658H17.3438C18.7148 10.9658 19.5703 11.7979 19.5703 13.1455C19.5703 14.4698 18.7266 15.3018 17.3438 15.3018H15.293Z" fill="black" fill-opacity="0.85"/>
<path d="M27.8672 29.3174C28.7695 30.208 30.2227 30.208 31.1016 29.294C31.9688 28.4033 31.957 26.9854 31.0898 26.1065L5.71875 0.723662C4.83984 -0.155244 3.38672 -0.166963 2.49609 0.711944C1.61719 1.59085 1.61719 3.06741 2.49609 3.9346L27.8672 29.3174Z" fill="white"/>
<path d="M28.8398 28.3448C29.1914 28.6963 29.7773 28.6963 30.1172 28.3448C30.4688 27.9932 30.4688 27.419 30.1172 27.0674L4.74609 1.69631C4.39453 1.34475 3.82031 1.33303 3.45703 1.69631C3.11719 2.03615 3.11719 2.62209 3.45703 2.97365L28.8398 28.3448Z" fill="black" fill-opacity="0.85"/>
</svg>
