<svg width="28" height="28" viewBox="0 0 28 28" fill="none" xmlns="http://www.w3.org/2000/svg">
<path d="M6.67969 24.5977H20.8945C23.3555 24.5977 24.5742 23.3789 24.5742 20.9648V6.65625C24.5742 4.24219 23.3555 3.02344 20.8945 3.02344H6.67969C4.23047 3.02344 3 4.23047 3 6.65625V20.9648C3 23.3906 4.23047 24.5977 6.67969 24.5977Z" fill="black" fill-opacity="0.85"/>
<path d="M13.8398 19.5469C11.8477 19.5469 10.2773 18.5977 9.91406 17.2031C9.87891 17.0273 9.86719 16.9219 9.86719 16.7461C9.86719 16.2539 10.207 15.9141 10.6992 15.9141C11.1211 15.9141 11.3789 16.1133 11.5312 16.5352C11.8359 17.3672 12.5508 18 13.875 18C15.2812 18 16.2305 17.2969 16.2305 16.207C16.2305 15.1172 15.2812 14.3672 13.9219 14.3672H13.1016C12.668 14.3672 12.3398 14.0508 12.3398 13.6289C12.3398 13.1719 12.668 12.8672 13.1016 12.8672H13.8633C15.0117 12.8672 15.8555 12.1406 15.8555 11.1445C15.8555 10.1719 15.1055 9.57422 13.8984 9.57422C12.7852 9.57422 12.0234 10.1367 11.7656 11.0391C11.6133 11.4609 11.3555 11.6719 10.9219 11.6719C10.4414 11.6719 10.1016 11.3438 10.1016 10.8633C10.1016 10.6875 10.1133 10.5586 10.1602 10.3828C10.4766 8.95312 11.9648 8.03906 13.9336 8.03906C16.1016 8.03906 17.6484 9.24609 17.6484 10.9336C17.6484 12.1992 16.7109 13.3125 15.4922 13.4883V13.582C16.957 13.7227 18.0352 14.8594 18.0352 16.2773C18.0352 18.1875 16.4297 19.5469 13.8398 19.5469Z" fill="white"/>
</svg>
