<svg width="28" height="28" viewBox="0 0 28 28" fill="none" xmlns="http://www.w3.org/2000/svg">
<path d="M13.9531 25.9062C20.4922 25.9062 25.9062 20.4805 25.9062 13.9531C25.9062 7.41406 20.4805 2 13.9414 2C7.41406 2 2 7.41406 2 13.9531C2 20.4805 7.42578 25.9062 13.9531 25.9062ZM13.9531 23.9141C8.42188 23.9141 4.00391 19.4844 4.00391 13.9531C4.00391 8.42188 8.41016 3.99219 13.9414 3.99219C19.4727 3.99219 23.9141 8.42188 23.9141 13.9531C23.9141 19.4844 19.4844 23.9141 13.9531 23.9141Z" fill="black" fill-opacity="0.85"/>
<path d="M13.9766 19.5312C16.3789 19.5312 18.043 17.9844 18.043 15.8047C18.043 13.8711 16.5898 12.4297 14.5391 12.4297C13.7422 12.4297 12.9219 12.7344 12.5352 13.1328L12.4297 13.0977C12.5352 12.8984 12.6992 12.6875 13.0625 12.2188C13.6484 11.4453 14.4336 10.4844 14.9961 9.74609C15.1836 9.51172 15.2773 9.32422 15.2773 9.10156C15.2773 8.75 15.043 8.38672 14.4805 8.38672C14.1055 8.38672 13.8828 8.63281 13.6953 8.86719C12.9219 9.875 12.2188 10.7773 11.6094 11.5859C10.4023 13.1797 9.88672 14.4688 9.88672 15.7344C9.88672 17.9844 11.5391 19.5312 13.9766 19.5312ZM13.9766 18.0547C12.582 18.0547 11.5391 17.1172 11.5391 15.875C11.5391 14.6562 12.5703 13.7539 13.9648 13.7539C15.3711 13.7539 16.4023 14.6562 16.4023 15.8984C16.4023 17.1172 15.3711 18.0547 13.9766 18.0547Z" fill="black" fill-opacity="0.85"/>
</svg>
