<svg width="28" height="28" viewBox="0 0 28 28" fill="none" xmlns="http://www.w3.org/2000/svg">
<path d="M13.9531 25.9062C20.4922 25.9062 25.9062 20.4805 25.9062 13.9531C25.9062 7.41406 20.4805 2 13.9414 2C7.41406 2 2 7.41406 2 13.9531C2 20.4805 7.42578 25.9062 13.9531 25.9062Z" fill="black" fill-opacity="0.85"/>
<path d="M10.1328 19.4961C9.53516 19.4961 9.18359 19.0859 9.18359 18.4062V9.27734C9.18359 8.59766 9.53516 8.1875 10.1328 8.1875C10.7656 8.1875 11.1172 8.58594 11.1172 9.27734V12.9102H16.7656V9.27734C16.7656 8.59766 17.1289 8.1875 17.7266 8.1875C18.3594 8.1875 18.7109 8.58594 18.7109 9.27734V18.4062C18.7109 19.0977 18.3594 19.4961 17.7266 19.4961C17.1289 19.4961 16.7656 19.0859 16.7656 18.4062V14.4336H11.1172V18.4062C11.1172 19.0977 10.7656 19.4961 10.1328 19.4961Z" fill="white"/>
</svg>
