<svg width="33" height="28" viewBox="0 0 33 28" fill="none" xmlns="http://www.w3.org/2000/svg">
<path d="M0 7.29688C0 7.82421 0.433594 8.23438 0.9375 8.23438H12.8203C12.8203 7.3203 12.8203 6.83983 12.8203 6.35938H0.9375C0.433594 6.35938 0 6.79296 0 7.29688ZM0 11.6445C0 12.1602 0.445312 12.582 0.9375 12.582L12.8203 12.5938C12.8203 11.9492 12.8203 11.3281 12.8203 10.707H0.9375C0.433594 10.707 0 11.1406 0 11.6445ZM0 16.0156C0 16.5195 0.433594 16.9297 0.9375 16.9297H12.8203C12.8203 16.3203 12.8203 15.6992 12.8203 15.0664H0.9375C0.433594 15.0664 0 15.5 0 16.0156ZM0 20.3633C0 20.8672 0.433594 21.2773 0.9375 21.2773L12.8203 21.2891C12.8203 20.8438 12.8203 19.9648 12.8203 19.4258L0.9375 19.4141C0.433594 19.4141 0 19.8477 0 20.3633Z" fill="black" fill-opacity="0.85"/>
<path d="M9.15234 13.8359C9.15234 16.1562 9.33984 18.5234 10.0195 20.9141C10.9922 24.2773 13.1953 25.6484 16.8633 25.6484H17.5195C25.3828 25.6484 32.543 20.3984 32.543 13.8359C32.543 7.28516 25.4062 2 17.5195 2H16.8633C13.207 2 11.0039 3.39453 10.0195 6.73438C9.33984 9.14844 9.15234 11.5156 9.15234 13.8359Z" fill="white"/>
<path d="M11.25 13.8359C11.25 16.0391 11.4258 18.1719 12.0352 20.3398C12.7266 22.707 14.0625 23.5508 16.8633 23.5508H17.5195C24.3633 23.5508 30.4453 19.0859 30.4453 13.8359C30.4453 8.58594 24.3633 4.09766 17.5195 4.09766H16.8633C14.0742 4.09766 12.7383 4.95312 12.0352 7.32031C11.4258 9.5 11.25 11.6328 11.25 13.8359ZM13.1367 13.8359C13.1367 11.375 13.3242 9.59375 13.8281 7.84766C14.2383 6.47656 15.082 5.96094 16.8633 5.96094H17.5195C23.2852 5.96094 28.5703 9.65234 28.5703 13.8359C28.5703 18.0078 23.2852 21.6875 17.5195 21.6875H16.8633C15.0469 21.6875 14.2383 21.1836 13.8281 19.8242C13.3242 18.0664 13.1367 16.2969 13.1367 13.8359Z" fill="black" fill-opacity="0.85"/>
<path d="M16.418 18.2305C16.8047 18.2305 17.0742 18.043 17.2383 17.5508L18.0117 15.3125H21.7734L22.5352 17.5508C22.6992 18.043 22.9688 18.2305 23.3555 18.2305C23.8242 18.2305 24.1406 17.9375 24.1406 17.4922C24.1406 17.3281 24.1055 17.1758 24.0352 16.9414L21.0703 8.98438C20.8711 8.43359 20.4492 8.15234 19.875 8.15234C19.3008 8.15234 18.9141 8.43359 18.7031 8.98438L15.75 16.9414C15.668 17.1758 15.6328 17.3281 15.6328 17.4922C15.6328 17.9375 15.9375 18.2305 16.418 18.2305ZM18.4336 14.0352L19.8398 9.96875H19.9453L21.3398 14.0352H18.4336Z" fill="black" fill-opacity="0.85"/>
</svg>
