<svg width="28" height="28" viewBox="0 0 28 28" fill="none" xmlns="http://www.w3.org/2000/svg">
<path d="M8.17386 7.12109C9.59183 7.12109 10.7285 5.97266 10.7285 4.54297C10.7285 3.13672 9.59183 2 8.17386 2C6.76761 2 5.60746 3.13672 5.60746 4.54297C5.60746 5.97266 6.76761 7.12109 8.17386 7.12109ZM25.5059 23.457L17.7832 19.2852L13.3184 16.1797C12.9903 15.957 12.6739 15.6641 12.4161 15.3359C12.8731 15.0547 13.0606 14.5391 12.9317 14.0352L12.0528 10.4727C11.7364 9.21875 10.5996 8.35156 9.31058 8.35156H6.52152C5.66605 8.35156 5.06839 8.5625 4.51761 9.11328L1.34183 12.2891C0.955113 12.6758 0.896519 13.2734 1.16605 13.7422L3.39261 17.6445V24.5117C3.39261 25.1562 3.93168 25.707 4.58793 25.707C5.24418 25.707 5.78324 25.1562 5.78324 24.5117V18.6172L12.6153 19.1094L16.752 21.4531L24.3809 25.5547C25.084 25.9297 25.7637 25.5781 26.0098 25.0859C26.3028 24.5 26.0801 23.7617 25.5059 23.457ZM3.6973 13.3438L5.7598 11.2695L7.36527 15.4062L6.09964 16.1328H5.29105L3.6973 13.3438Z" fill="black" fill-opacity="0.85"/>
</svg>
