<svg width="48" height="28" viewBox="0 0 48 28" fill="none" xmlns="http://www.w3.org/2000/svg">
<path d="M0 13.7031C0 14.1367 0.1875 14.5586 0.5625 14.9102L8.77734 22.668C9.32812 23.1836 9.76172 23.3945 10.3125 23.3945C11.0977 23.3945 11.6719 22.8086 11.6719 22.0352V18.0742H19.4883C21.1992 18.0742 22.2305 17.0312 22.2305 15.3672V12.0508C22.2305 10.3633 21.2109 9.35547 19.4883 9.35547H11.6719V5.41797C11.6719 4.63281 11.0742 4 10.3008 4C9.78516 4 9.43359 4.1875 8.77734 4.78516L0.5625 12.4844C0.164062 12.8594 0 13.2695 0 13.7031ZM47.3906 13.7031C47.3906 13.2812 47.2266 12.8594 46.8281 12.4844L38.6016 4.78516C37.957 4.19922 37.6172 4.01172 37.0898 4.01172C36.3164 4.01172 35.7188 4.63281 35.7188 5.41797V9.35547H27.9023C26.1797 9.35547 25.1602 10.3633 25.1602 12.0508V15.3672C25.1602 17.0312 26.1914 18.0742 27.9023 18.0742H35.7188V22.0352C35.7188 22.8086 36.293 23.3828 37.0781 23.3828C37.6289 23.3828 38.0508 23.1719 38.6016 22.668L46.8281 14.9102C47.2031 14.5586 47.3906 14.125 47.3906 13.7031Z" fill="black" fill-opacity="0.85"/>
</svg>
