<svg width="28" height="28" viewBox="0 0 28 28" fill="none" xmlns="http://www.w3.org/2000/svg">
<g clip-path="url(#clip0_2124_89148)">
<path d="M13.9531 25.9062C20.4922 25.9062 25.9062 20.4805 25.9062 13.9531C25.9062 7.41406 20.4805 2 13.9414 2C7.41406 2 2 7.41406 2 13.9531C2 20.4805 7.42578 25.9062 13.9531 25.9062ZM13.9531 23.9141C8.42188 23.9141 4.00391 19.4844 4.00391 13.9531C4.00391 8.42188 8.41016 3.99219 13.9414 3.99219C19.4727 3.99219 23.9141 8.42188 23.9141 13.9531C23.9141 19.4844 19.4844 23.9141 13.9531 23.9141Z" fill="black" fill-opacity="0.85"/>
<path d="M11.2695 9.57031C11.2695 10.7539 12.0547 11.7617 13.1328 12.1016V17.9961C13.1328 19.707 13.4141 21.2305 13.9414 21.2305C14.4805 21.2305 14.7383 19.7305 14.7383 17.9961V12.1016C15.8281 11.7734 16.6133 10.7656 16.6133 9.57031C16.6133 8.09375 15.418 6.89844 13.9414 6.89844C12.4766 6.89844 11.2695 8.09375 11.2695 9.57031ZM12.4062 8.87891C12.3945 8.42188 12.8047 8.02344 13.25 8.02344C13.7188 8.02344 14.1055 8.42188 14.1055 8.87891C14.1055 9.33594 13.7188 9.73438 13.25 9.73438C12.8047 9.73438 12.4062 9.33594 12.4062 8.87891Z" fill="black" fill-opacity="0.85"/>
<path d="M18.6523 20.5742C19.1914 21.1016 20.0586 21.1133 20.5742 20.5742C21.125 20.0352 21.1133 19.2031 20.5742 18.6641L9.23047 7.32031C8.69141 6.78125 7.83594 6.78125 7.30859 7.32031C6.76953 7.84766 6.76953 8.71484 7.30859 9.24219L18.6523 20.5742Z" fill="white"/>
<path d="M19.2383 20C19.4375 20.1992 19.7891 20.1992 19.9883 20C20.1992 19.7773 20.1992 19.4609 19.9883 19.25L8.65628 7.90625C8.44534 7.69531 8.1055 7.69531 7.89456 7.90625C7.68362 8.10547 7.69534 8.45703 7.89456 8.65625L19.2383 20Z" fill="black" fill-opacity="0.85"/>
</g>
<defs>
<clipPath id="clip0_2124_89148">
<rect width="23.9062" height="23.918" fill="white" transform="translate(2 2)"/>
</clipPath>
</defs>
</svg>
