<svg width="28" height="28" viewBox="0 0 28 28" fill="none" xmlns="http://www.w3.org/2000/svg">
<path d="M3.67969 24.5742H23.9531C26.4141 24.5742 27.6328 23.3672 27.6328 20.9531V6.63281C27.6328 4.21875 26.4141 3 23.9531 3H3.67969C1.23047 3 0 4.21875 0 6.63281V20.9531C0 23.3672 1.23047 24.5742 3.67969 24.5742Z" fill="black" fill-opacity="0.85"/>
<path d="M11.2148 20.0039C10.6758 20.0039 10.3242 19.6289 10.3242 19.0547V17.1328L10.5 15.2578L8.75391 17.1211L5.13281 20.7422C4.95703 20.918 4.73438 21.0234 4.44141 21.0234C3.90234 21.0234 3.55078 20.6719 3.55078 20.1211C3.55078 19.8867 3.66797 19.6406 3.84375 19.4648L7.47656 15.8438L9.36328 14.0859L7.57031 14.2734H5.55469C4.96875 14.2734 4.59375 13.9219 4.59375 13.3828C4.59375 12.8555 4.95703 12.5039 5.53125 12.5039H11.0859C11.707 12.5039 12.1055 12.7852 12.1055 13.5V19.0312C12.1055 19.5938 11.7422 20.0039 11.2148 20.0039Z" fill="white"/>
</svg>
