<svg width="28" height="28" viewBox="0 0 28 28" fill="none" xmlns="http://www.w3.org/2000/svg">
<path d="M14.4453 22.8477C16.6016 22.8477 18.4414 19.5078 18.9219 18.7109C19.5195 17.75 19.2383 16.7891 19.2383 16.1914C19.2383 15.7695 20.4805 14.8789 20.4805 13.8594C20.4805 12.8281 18.0781 12.0078 18.0781 11.4219C18.0781 11.0469 18.3594 10.7188 18.6641 10.7188C19.1797 10.7188 20.4453 12.3477 21.1602 12.3477C21.6289 12.3477 21.6641 11.9375 21.9219 11.9375C22.5195 11.9375 22.6133 15.3008 24.4531 16.0977C24.957 15.5117 25.2617 14.8438 25.2617 13.9531C25.2617 7.84766 20.1875 2.63281 13.9414 2.64453C10.4609 2.65625 9.17188 3.99219 9.17188 5.16406C9.17188 6.69922 7.91797 7.05078 7.91797 7.97656C7.91797 8.5625 8.32812 8.94922 8.96094 8.94922C10.3203 8.94922 10.3086 7.47266 11 7.47266C11.5156 7.48438 11.9961 8.25781 12.8516 8.25781C13.2383 8.25781 13.4258 8.01172 13.4492 7.66016C13.4727 7.50781 13.543 7.4375 13.6836 7.4375C14.4336 7.4375 15.2656 8.28125 15.2656 8.79688C15.2656 9.28906 15.0781 9.66406 14.7734 9.66406C14.2461 9.66406 12.9336 9.04297 11.7617 9.04297C9.13672 9.04297 6.94531 10.9062 6.94531 13.1328C6.94531 15.0664 8.08203 16.1914 10.0742 16.1914C11.2812 16.1914 12.1719 17.0117 12.1719 18.125C12.1719 19.8594 11.9844 22.8477 14.4453 22.8477ZM17.3984 6.88672C16.9648 6.88672 16.7891 7.10938 16.4141 7.10938C16.0508 7.10938 15.7812 6.85156 15.7812 6.48828C15.7812 5.92578 16.3438 5.60938 17.3047 5.60938C18.125 5.60938 18.7461 6.03125 18.7461 6.58203C18.7461 6.88672 18.5469 7.13281 18.2891 7.13281C17.8672 7.13281 17.6445 6.88672 17.3984 6.88672ZM13.9531 25.9062C20.4922 25.9062 25.9062 20.4805 25.9062 13.9531C25.9062 7.41406 20.4805 2 13.9414 2C7.41406 2 2 7.41406 2 13.9531C2 20.4805 7.42578 25.9062 13.9531 25.9062ZM13.9531 24.3125C8.29297 24.3125 3.59375 19.6133 3.59375 13.9531C3.59375 8.29297 8.28125 3.59375 13.9414 3.59375C19.6016 3.59375 24.3125 8.29297 24.3125 13.9531C24.3125 19.6133 19.6133 24.3125 13.9531 24.3125Z" fill="black" fill-opacity="0.85"/>
</svg>
