<svg width="36" height="28" viewBox="0 0 36 28" fill="none" xmlns="http://www.w3.org/2000/svg">
<path d="M17.8359 25.2773C18.4453 25.2773 18.879 24.8438 18.879 24.2344V4.01953C18.879 3.42188 18.4453 3 17.8359 3C17.2266 3 16.7812 3.42188 16.7812 4.01953V24.2344C16.7812 24.8438 17.2266 25.2773 17.8359 25.2773Z" fill="black" fill-opacity="0.85"/>
<path d="M14.7305 14.1328C14.7305 13.5234 14.3086 13.0898 13.6992 13.0898H5.70703L3.375 13.1602L7.24219 9.42188C7.44141 9.23438 7.53516 8.95312 7.53516 8.67188C7.53516 8.08594 7.08984 7.65234 6.50391 7.65234C6.22266 7.65234 5.95312 7.76953 5.71875 8.00391L0.363281 13.3477C0.140625 13.5703 0 13.8398 0 14.1328C0 14.4258 0.140625 14.6953 0.363281 14.918L5.71875 20.2617C5.95312 20.4961 6.22266 20.6133 6.50391 20.6133C7.08984 20.6133 7.53516 20.1797 7.53516 19.5938C7.53516 19.3125 7.44141 19.0312 7.24219 18.8438L3.375 15.1055L5.70703 15.1875H13.6992C14.3086 15.1875 14.7305 14.7422 14.7305 14.1328ZM20.9414 14.1328C20.9414 14.7422 21.3633 15.1875 21.9727 15.1875H29.9531L32.2969 15.1055L28.4297 18.8438C28.2305 19.0312 28.1367 19.3125 28.1367 19.5938C28.1367 20.1797 28.582 20.6133 29.1562 20.6133C29.4492 20.6133 29.7188 20.4961 29.9531 20.2617L35.3086 14.918C35.5312 14.6953 35.6719 14.4258 35.6719 14.1328C35.6719 13.8398 35.5312 13.5703 35.3086 13.3477L29.9531 8.00391C29.7188 7.76953 29.4492 7.65234 29.1562 7.65234C28.582 7.65234 28.1367 8.08594 28.1367 8.67188C28.1367 8.95312 28.2305 9.23438 28.4297 9.42188L32.2969 13.1602L29.9531 13.0898H21.9727C21.3633 13.0898 20.9414 13.5234 20.9414 14.1328Z" fill="black" fill-opacity="0.85"/>
</svg>
