<svg width="28" height="28" viewBox="0 0 28 28" fill="none" xmlns="http://www.w3.org/2000/svg">
<path d="M5.57812 5.12109C6.97266 5.12109 8.12109 3.97266 8.12109 2.54297C8.12109 1.13672 6.97266 0 5.57812 0C4.14844 0 3 1.13672 3 2.54297C3 3.97266 4.14844 5.12109 5.57812 5.12109ZM4.23047 14.6602H9.08203L9.375 14.9531C9.96094 15.5391 10.7578 15.832 11.5312 15.832C12.1758 15.832 12.7969 15.6328 13.3477 15.2227L19.207 10.8398L25.0312 7.33594C25.5938 7.00781 25.7812 6.28125 25.4648 5.71875C25.1133 5.15625 24.3867 4.98047 23.8242 5.32031L12.7266 11.9648L9.64453 8.87109C9.5625 8.80078 9.60938 8.69531 9.71484 8.69531H12.5391C13.1953 8.69531 13.7344 8.16797 13.7344 7.51172V2.33203C13.7344 1.66406 13.1953 1.13672 12.5391 1.13672C11.8828 1.13672 11.3555 1.66406 11.3555 2.33203V6.33984H5.40234C4.11328 6.33984 3.04688 7.39453 3.04688 8.69531V13.4766C3.04688 14.1094 3.5625 14.6602 4.23047 14.6602ZM5.32031 12.3398V11.2148C5.32031 11.0508 5.50781 10.9688 5.625 11.0859L6.87891 12.3398H5.32031ZM11.707 27.7148C12.3164 27.832 12.9961 27.4336 13.125 26.7773L14.3086 20.8359C14.3438 20.6836 14.3438 20.5664 14.3203 20.4023L14.0977 16.0781C13.2891 16.6875 12.3984 16.957 11.5312 16.957C11.4258 16.957 11.3086 16.957 11.1914 16.9453L11.918 20.6016L10.7812 26.3086C10.6523 26.9531 11.0742 27.5859 11.707 27.7148ZM13.1367 4.10156C14.1211 4.10156 14.9297 3.31641 14.9297 2.33203C14.9297 1.33594 14.1211 0.550781 13.1367 0.550781C12.1641 0.550781 11.3555 1.33594 11.3555 2.33203C11.3555 3.31641 12.1641 4.10156 13.1367 4.10156Z" fill="black" fill-opacity="0.85"/>
</svg>
