<svg width="28" height="28" viewBox="0 0 28 28" fill="none" xmlns="http://www.w3.org/2000/svg">
<path d="M2.17188 23.793H10.5508C11.1953 23.793 11.6406 23.3828 11.6406 22.75C11.6406 22.1172 11.1719 21.6953 10.5508 21.6953H3.37891V14.6875H10.1992C10.8555 14.6875 11.2305 14.2422 11.2305 13.6914C11.2305 13.082 10.8086 12.6719 10.1992 12.6719H3.37891V6.09766H10.5508C11.1719 6.09766 11.6406 5.69922 11.6406 5.05469C11.6406 4.41016 11.1953 4 10.5508 4H2.17188C1.52734 4 1 4.42187 1 5.25391V22.5508C1 23.3828 1.52734 23.793 2.17188 23.793ZM15.8828 23.793H26.125C26.7578 23.793 27.168 23.3945 27.168 22.75C27.168 22.1055 26.7578 21.6836 26.125 21.6836H17.4648V21.5781L26.5586 6.25C26.7344 5.95703 26.9102 5.64062 26.9102 5.21875C26.9102 4.46875 26.4062 4 25.6445 4H15.8477C15.2148 4 14.7695 4.44531 14.7695 5.05469C14.7695 5.67578 15.2148 6.10938 15.8477 6.10938H24.1328V6.19141L14.9805 21.543C14.7695 21.8945 14.6523 22.1875 14.6523 22.5977C14.6523 23.3125 15.1445 23.793 15.8828 23.793Z" fill="black" fill-opacity="0.85"/>
</svg>
