<svg width="28" height="28" viewBox="0 0 28 28" fill="none" xmlns="http://www.w3.org/2000/svg">
<g clip-path="url(#clip0_2124_66935)">
<path d="M-2.47656 22.1289C-2.10156 21.707 -2.21875 21.1562 -2.64062 20.6758C-4.21094 18.9297 -5.08984 16.6328 -5.08984 14.1133C-5.08984 11.5938 -4.21094 9.29689 -2.64062 7.55079C-2.21875 7.07032 -2.10156 6.51954 -2.47656 6.09767C-2.85156 5.65235 -3.50781 5.66407 -3.95312 6.15626C-5.89844 8.26563 -7 11.0781 -7 14.1133C-7 17.1484 -5.89844 19.9492 -3.95312 22.0703C-3.50781 22.5625 -2.85156 22.5625 -2.47656 22.1289ZM30.5 22.1289C30.8867 22.5625 31.5312 22.5625 31.9883 22.0703C33.9336 19.9492 35.0352 17.1484 35.0352 14.1133C35.0352 11.0781 33.9336 8.26563 31.9883 6.15626C31.5312 5.66407 30.8867 5.65235 30.5 6.09767C30.1367 6.51954 30.2422 7.07032 30.6758 7.55079C32.2461 9.29689 33.125 11.5938 33.125 14.1133C33.125 16.6328 32.2461 18.9297 30.6758 20.6758C30.2422 21.1562 30.1367 21.707 30.5 22.1289Z" fill="black" fill-opacity="0.85"/>
<path d="M0.804688 18.7891C1.17969 18.3672 1.02734 17.8398 0.652339 17.3359C-0.0507815 16.457 -0.390622 15.332 -0.390622 14.1133C-0.390622 12.8945 -0.0507815 11.7578 0.652339 10.8907C1.02734 10.3868 1.17969 9.85942 0.804688 9.43754C0.417969 8.99223 -0.285161 8.99223 -0.695312 9.51957C-1.71484 10.7852 -2.30078 12.3906 -2.30078 14.1133C-2.30078 15.8359 -1.71484 17.4414 -0.695312 18.707C-0.285161 19.2344 0.417969 19.2227 0.804688 18.7891ZM27.2188 18.7891C27.6055 19.2227 28.3086 19.2344 28.7305 18.707C29.75 17.4414 30.3359 15.8359 30.3359 14.1133C30.3359 12.3906 29.75 10.7852 28.7305 9.51957C28.3086 8.99223 27.6055 8.99223 27.2188 9.43754C26.8438 9.85942 27.0078 10.3868 27.3711 10.8907C28.0742 11.7578 28.4258 12.8945 28.4258 14.1133C28.4258 15.332 28.0742 16.457 27.3711 17.3359C27.0078 17.8398 26.8438 18.3672 27.2188 18.7891Z" fill="black" fill-opacity="0.85"/>
<path d="M14.0117 25.293C20.2109 25.293 25.2148 20.2773 25.2148 14.0898C25.2148 7.90234 20.2109 2.88672 14.0117 2.88672C7.8242 2.88672 2.80859 7.90234 2.80859 14.0898C2.80859 20.2773 7.8242 25.293 14.0117 25.293ZM8.6797 15.3906C8.2227 15.3906 7.8711 15.0273 7.8711 14.5703C7.8711 14.1133 8.2227 13.7617 8.6797 13.7617H13.1914V7.46875C13.1914 7.01172 13.5547 6.66016 14 6.66016C14.4688 6.66016 14.8203 7.01172 14.8203 7.46875V14.5703C14.8203 15.0273 14.4688 15.3906 14 15.3906H8.6797ZM4.3906 5.89844C4.5664 5.89844 4.6953 5.86328 4.8594 5.73438L8.7852 2.78125C8.9727 2.62891 9.0781 2.45312 9.0781 2.25391C9.0781 2.00781 8.9609 1.80859 8.7617 1.62109C8.3164 1.21094 7.5195 1 6.8281 1C4.9883 1 3.5234 2.46484 3.5234 4.28125C3.5234 4.72656 3.6055 5.16016 3.7227 5.42969C3.8516 5.71094 4.0977 5.89844 4.3906 5.89844ZM23.6445 5.89844C23.9258 5.89844 24.1719 5.69922 24.3125 5.42969C24.4414 5.17188 24.5 4.72656 24.5 4.28125C24.5 2.46484 23.0469 1 21.207 1C20.5039 1 19.7188 1.21094 19.2734 1.62109C19.0625 1.80859 18.9453 2.00781 18.9453 2.25391C18.9453 2.45312 19.0508 2.62891 19.25 2.78125L23.1758 5.73438C23.3398 5.86328 23.4688 5.89844 23.6445 5.89844ZM4.2148 24.9648C4.5664 25.3164 5.1406 25.3164 5.5039 24.9531L7.7188 22.75L6.4531 21.4844L4.2266 23.6992C3.8633 24.0508 3.875 24.625 4.2148 24.9648ZM23.8203 24.9648C24.1602 24.625 24.1719 24.0508 23.8086 23.6992L21.582 21.4844L20.3164 22.75L22.5195 24.9531C22.8828 25.3164 23.457 25.3164 23.8203 24.9648Z" fill="black" fill-opacity="0.85"/>
</g>
<defs>
<clipPath id="clip0_2124_66935">
<rect width="28" height="28" fill="white"/>
</clipPath>
</defs>
</svg>
