<svg width="28" height="28" viewBox="0 0 28 28" fill="none" xmlns="http://www.w3.org/2000/svg">
<g clip-path="url(#clip0_2124_78038)">
<path d="M6.67969 24.5977H20.8945C23.3555 24.5977 24.5742 23.3789 24.5742 20.9648V6.65625C24.5742 4.24219 23.3555 3.02344 20.8945 3.02344H6.67969C4.23047 3.02344 3 4.23047 3 6.65625V20.9648C3 23.3906 4.23047 24.5977 6.67969 24.5977Z" fill="black" fill-opacity="0.85"/>
<path d="M9.07031 14.8242C8.39062 14.8242 7.91016 14.4609 7.91016 13.8164C7.91016 13.1602 8.35547 12.7852 9.07031 12.7852H18.5391C19.2422 12.7852 19.6875 13.1602 19.6875 13.8164C19.6875 14.4609 19.2188 14.8242 18.5391 14.8242H9.07031Z" fill="white"/>
</g>
<defs>
<clipPath id="clip0_2124_78038">
<rect width="21.5742" height="21.5977" fill="white" transform="translate(3 3)"/>
</clipPath>
</defs>
</svg>
