<svg width="28" height="28" viewBox="0 0 28 28" fill="none" xmlns="http://www.w3.org/2000/svg">
<g clip-path="url(#clip0_2124_78025)">
<path d="M7.05469 13.9279C9.57422 13.9279 11.0977 11.8537 11.0977 8.54896C11.0977 5.24428 9.5625 3.20521 7.05469 3.20521C4.53516 3.20521 3 5.25599 3 8.54896C3 11.8654 4.52344 13.9279 7.05469 13.9279ZM7.05469 12.2872C5.69531 12.2872 4.88672 10.9162 4.88672 8.54896C4.88672 6.21693 5.70703 4.83412 7.05469 4.83412C8.40234 4.83412 9.21094 6.20521 9.21094 8.54896C9.21094 10.9162 8.41406 12.2872 7.05469 12.2872ZM20.3672 25.2013C22.8867 25.2013 24.4102 23.1271 24.4102 19.8341C24.4102 16.5177 22.875 14.4787 20.3672 14.4787C17.8477 14.4787 16.3125 16.5294 16.3125 19.8341C16.3125 23.1388 17.8359 25.2013 20.3672 25.2013ZM20.3672 23.5724C19.0078 23.5724 18.1992 22.1896 18.1992 19.8341C18.1992 17.4904 19.0195 16.1193 20.3672 16.1193C21.7148 16.1193 22.5234 17.4787 22.5234 19.8341C22.5234 22.1896 21.7266 23.5724 20.3672 23.5724ZM6.21094 25.2482C6.64453 25.4943 7.27734 25.4591 7.65234 24.9201L21.4219 4.56459C21.832 3.97865 21.5859 3.381 21.1523 3.12318C20.7422 2.90053 20.168 2.9474 19.7578 3.53334L5.98828 23.8302C5.56641 24.4279 5.77734 24.9904 6.21094 25.2482Z" fill="black" fill-opacity="0.85"/>
</g>
<defs>
<clipPath id="clip0_2124_78025">
<rect width="21.4102" height="22.4065" fill="white" transform="translate(3 3)"/>
</clipPath>
</defs>
</svg>
