<svg width="28" height="28" viewBox="0 0 28 28" fill="none" xmlns="http://www.w3.org/2000/svg">
<path d="M20.8062 5.12109C22.2125 5.12109 23.3609 3.97266 23.3609 2.54297C23.3609 1.13672 22.2125 0 20.8062 0C19.3766 0 18.2281 1.13672 18.2281 2.54297C18.2281 3.97266 19.3766 5.12109 20.8062 5.12109ZM14.9352 23.2148C15.6031 23.2148 16.1656 22.6641 16.1656 22.0078V15.8672C16.1656 15.5742 16.0602 15.3164 15.8844 15.1055L13.107 11.6953C12.9312 11.4727 12.9898 11.2383 13.2008 11.1211L16.5875 9.36328C16.8336 9.23438 17.0797 9.32812 17.1266 9.62109L17.4195 11.6953C17.4781 12.1523 17.7359 12.4688 18.2281 12.7031L21.5562 14.3789C22.4703 14.8359 23.1852 14.4609 23.4078 13.8867C23.6305 13.3477 23.4547 12.6445 22.7164 12.2695L19.7281 10.7461L19.2477 7.20703C18.9898 5.32031 16.9039 4.16016 14.9117 5.20312L10.5172 7.5C8.48984 8.55469 8.22031 10.8633 9.72031 12.375L13.7516 16.3828V22.0078C13.7516 22.6641 14.2906 23.2148 14.9352 23.2148ZM5.54843 15.6328C6.00546 16.4531 6.86093 16.6992 7.70468 16.5117L10.2359 15.9492C10.5875 15.8789 10.8102 15.6211 10.8102 15.2461C10.8102 14.8828 10.5523 14.625 10.2125 14.5664L5.88828 13.8164C5.16171 13.6875 4.78671 14.2734 5.12656 14.8711L5.54843 15.6328ZM7.59921 15.75L10.7633 25.1484L12.0523 24.7031L8.92343 15.3516L7.59921 15.75ZM14.9 27.4453C17.5133 27.4453 19.5406 25.3828 19.5406 22.8164C19.5406 21.0469 18.5562 19.5234 17.1031 18.7383V20.4961C17.7242 21.0703 18.0875 21.9023 18.0875 22.8164C18.0875 24.5742 16.6695 25.9922 14.9 25.9922C13.1891 25.9922 11.7359 24.5391 11.7359 22.8164C11.7359 21.8906 12.1461 21.0352 12.7906 20.4492V18.7148C11.3141 19.4648 10.2828 21.0234 10.2828 22.8164C10.2828 25.3828 12.3687 27.4453 14.9 27.4453ZM17.7359 24.832L19.0484 25.2773L22.0133 16.3008C22.1305 15.9492 21.943 15.5508 21.6031 15.4453C21.2164 15.3281 20.8766 15.5273 20.7477 15.8789L17.7359 24.832ZM8.4664 26.4492C7.98593 26.7656 8.12656 27.4805 8.68906 27.4805H21.1227C21.6734 27.4805 21.8141 26.7422 21.357 26.4492L18.6031 24.6445L16.1187 26.3672H13.7047L11.1969 24.6445L8.4664 26.4492Z" fill="black" fill-opacity="0.85"/>
</svg>
