<svg width="28" height="28" viewBox="0 0 28 28" fill="none" xmlns="http://www.w3.org/2000/svg">
<path d="M6.67969 24.5977H20.8945C23.3555 24.5977 24.5742 23.3789 24.5742 20.9648V6.65625C24.5742 4.24219 23.3555 3.02344 20.8945 3.02344H6.67969C4.23047 3.02344 3 4.23047 3 6.65625V20.9648C3 23.3906 4.23047 24.5977 6.67969 24.5977Z" fill="black" fill-opacity="0.85"/>
<path d="M10.6406 19.3359C10.043 19.3359 9.67969 18.9258 9.67969 18.2344V9.12891C9.67969 8.4375 10.043 8.02734 10.6406 8.02734C11.2734 8.02734 11.625 8.4375 11.625 9.12891V13.2656H11.6953L16.4531 8.41406C16.7344 8.14453 16.9453 8.02734 17.2383 8.02734C17.7422 8.02734 18.1289 8.40234 18.1289 8.85938C18.1289 9.12891 18.0469 9.32812 17.8359 9.5625L14.5195 12.9609L18.1289 17.6836C18.293 17.918 18.3984 18.1758 18.3984 18.4219C18.3984 18.9492 18.0117 19.3359 17.4609 19.3359C17.1211 19.3359 16.8633 19.1836 16.6172 18.8555L13.1016 14.2148L11.625 15.7383V18.2344C11.625 18.9258 11.2734 19.3359 10.6406 19.3359Z" fill="white"/>
</svg>
