<svg width="28" height="28" viewBox="0 0 28 28" fill="none" xmlns="http://www.w3.org/2000/svg">
<path d="M13.9531 25.9062C20.4922 25.9062 25.9062 20.4805 25.9062 13.9531C25.9062 7.41406 20.4805 2 13.9414 2C7.41406 2 2 7.41406 2 13.9531C2 20.4805 7.42578 25.9062 13.9531 25.9062Z" fill="black" fill-opacity="0.85"/>
<path d="M9.05469 13.9648C9.05469 10.4258 11 8.15234 13.9531 8.15234C15.8867 8.15234 17.5273 9.24219 18.0898 10.8242C18.1602 11.0234 18.1953 11.2344 18.1953 11.4453C18.1953 11.8906 17.9141 12.1836 17.457 12.1836C17.0234 12.1836 16.8125 11.9258 16.6836 11.5508C16.2969 10.4375 15.2539 9.62891 13.9414 9.62891C11.9609 9.62891 10.6836 11.3281 10.6836 13.9531C10.6836 16.2031 11.5859 17.7617 13.0859 18.1953V13.9531C13.0859 13.5898 13.332 13.332 13.6836 13.332C14.0234 13.332 14.2812 13.5664 14.2812 13.9531V14.457C14.6562 13.7422 15.3477 13.3672 16.0742 13.3672C16.7305 13.3672 17.1758 13.6602 17.1758 14.0938C17.1758 14.4102 16.9297 14.6328 16.5781 14.6328C16.4375 14.6328 16.2734 14.5859 16.0273 14.5859C15.0078 14.5859 14.293 15.3945 14.293 16.5547V18.3008C15.5117 18.1953 16.4609 17.457 16.7656 16.4258C16.8945 16.0039 17.1289 15.793 17.5391 15.793C17.9961 15.793 18.2891 16.0859 18.2891 16.5195C18.2773 16.7305 18.2422 16.918 18.1719 17.1055C17.6094 18.7109 16.0859 19.7773 13.9531 19.7773C11 19.7773 9.05469 17.5508 9.05469 13.9648Z" fill="white"/>
</svg>
