<svg width="28" height="28" viewBox="0 0 28 28" fill="none" xmlns="http://www.w3.org/2000/svg">
<path d="M4 22.457C4 24.9062 5.20703 26.125 7.63281 26.125H20.0781C22.5039 26.125 23.7109 24.9062 23.7109 22.457V4.67969C23.7109 2.24219 22.5039 1 20.0781 1H7.63281C5.20703 1 4 2.24219 4 4.67969V22.457ZM5.88672 22.4219V4.71484C5.88672 3.54297 6.50781 2.88672 7.72656 2.88672H19.9844C21.2031 2.88672 21.8242 3.54297 21.8242 4.71484V22.4219C21.8242 23.5938 21.2031 24.2383 19.9844 24.2383H7.72656C6.50781 24.2383 5.88672 23.5938 5.88672 22.4219Z" fill="black" fill-opacity="0.85"/>
<path d="M12.5898 19.1289C12.9766 19.1289 13.3047 18.9414 13.5273 18.5781L18.8828 10.1523C19.0234 9.91797 19.1758 9.66016 19.1758 9.40234C19.1758 8.875 18.707 8.53516 18.2148 8.53516C17.9102 8.53516 17.6172 8.72266 17.4062 9.0625L12.5313 16.8672L10.2227 13.8789C9.95312 13.5039 9.68359 13.4102 9.36719 13.4102C8.85156 13.4102 8.46484 13.8203 8.46484 14.3359C8.46484 14.5938 8.55859 14.8398 8.72266 15.0625L11.582 18.5781C11.8867 18.9648 12.1914 19.1289 12.5898 19.1289Z" fill="black" fill-opacity="0.85"/>
</svg>
