<svg width="28" height="28" viewBox="0 0 28 28" fill="none" xmlns="http://www.w3.org/2000/svg">
<path d="M6.67969 24.5977H20.8945C23.3555 24.5977 24.5742 23.3789 24.5742 20.9648V6.65625C24.5742 4.24219 23.3555 3.02344 20.8945 3.02344H6.67969C4.23047 3.02344 3 4.23047 3 6.65625V20.9648C3 23.3906 4.23047 24.5977 6.67969 24.5977ZM6.70312 22.7109C5.53125 22.7109 4.88672 22.0898 4.88672 20.8711V6.75C4.88672 5.53125 5.53125 4.91016 6.70312 4.91016H20.8711C22.0312 4.91016 22.6875 5.53125 22.6875 6.75V20.8711C22.6875 22.0898 22.0312 22.7109 20.8711 22.7109H6.70312Z" fill="black" fill-opacity="0.85"/>
<path d="M8.21484 18.5273H12.2812C12.6914 18.5273 12.9492 18.2578 12.9492 17.8477C12.9492 17.4023 12.6797 17.1562 12.2812 17.1562H9.50391V17.0625L11.2148 14.8945C12.3867 13.4414 12.7734 12.5742 12.7734 11.543C12.7734 9.96094 11.6953 8.8125 10.0781 8.8125C8.57812 8.8125 7.44141 10.0547 7.44141 11.2734C7.44141 11.707 7.6875 12.0117 8.14453 12.0117C8.53125 12.0117 8.76562 11.8359 8.88281 11.4492C9.10547 10.6641 9.39844 10.1719 10.0664 10.1719C10.7695 10.1719 11.168 10.793 11.168 11.625C11.168 12.5625 10.5234 13.5117 9.89062 14.3086L7.86328 16.9102C7.64062 17.1914 7.42969 17.4844 7.42969 17.8477C7.42969 18.2461 7.67578 18.5273 8.21484 18.5273ZM17.1914 18.7383C19.0547 18.7383 20.2383 17.5781 20.2383 15.9727C20.2383 14.6953 19.4297 13.7695 18.4922 13.5586V13.5234C19.2773 13.2773 19.9688 12.5156 19.9688 11.4023C19.9688 9.89062 18.8438 8.85938 17.1914 8.85938C15.75 8.85938 14.4375 9.75 14.4375 11.3906C14.4375 12.5859 15.1758 13.2891 15.9258 13.5234V13.5586C14.9297 13.7812 14.168 14.707 14.168 15.9727C14.168 17.707 15.4805 18.7383 17.1914 18.7383ZM17.2031 12.9844C16.4531 12.9844 16.0664 12.2578 16.0664 11.5664C16.0664 10.8164 16.4766 10.1133 17.2031 10.1133C17.9531 10.1133 18.3281 10.8164 18.3281 11.5664C18.3281 12.3398 17.9414 12.9844 17.2031 12.9844ZM17.2031 17.4727C16.3477 17.4727 15.9258 16.7109 15.9258 15.8438C15.9258 15 16.3477 14.25 17.2031 14.25C18.0352 14.25 18.4805 14.9531 18.4805 15.8438C18.4805 16.7109 18.0586 17.4727 17.2031 17.4727Z" fill="black" fill-opacity="0.85"/>
</svg>
