<svg width="36" height="28" viewBox="0 0 36 28" fill="none" xmlns="http://www.w3.org/2000/svg">
<path d="M18.3984 25.3516C19.2188 25.3516 19.9453 24.9648 21.4805 24.9648C23.0273 24.9648 23.4492 25.3516 24.5977 25.3516C26.332 25.3516 27.2461 24.6367 27.2461 23.418C27.2461 21.3555 25.0078 19.9727 21.4688 19.9727C19.7344 19.9727 18.9609 20.1367 17.9766 20.3828L16.7109 17.5C15.4688 14.7344 13.4648 12.9297 10.6289 12.9297H9.24609C8.78906 12.9297 8.48438 12.7305 8.48438 12.2852C8.48438 11.5586 9.45703 11.3828 10.5234 11.3828C13.957 11.3828 16.4883 13.2695 18.0352 17.0664L18.8438 19.0234C19.6289 18.8594 20.4844 18.7773 21.3516 18.7773C22.043 18.7773 22.6758 18.8242 23.3438 18.918C24.0586 18.3906 24.8672 17.8398 26.0508 17.3242C27.3633 18.2148 28.8633 18.7891 30.4219 18.7891C33.6562 18.7891 35.1094 18.0859 35.1094 15.0273C35.1094 11.3359 32.4375 8.57031 28.8867 8.58203L25.7461 4.39844C24 2.08984 21.8789 1 19.793 1C18.082 1 15.5391 1.98437 15.5391 3.36719C15.5391 4.30469 17.4375 5.61719 18.9023 6.51953L25.6523 10.6445C25.125 11.1484 24.6562 11.418 24.0703 11.418C23.168 11.418 22.2188 10.8672 20.8008 10.0469C17.1914 7.96094 14.4023 6.00391 10.6523 6.00391C6.75 6.00391 3.78516 8.24219 2.20312 12.6016C0.949219 12.6016 0 13.4219 0 14.6289C0 15.9883 1.07812 16.8438 2.55469 16.8438C4.26562 19.2344 7.06641 20.1953 10.3828 20.1953C10.5586 20.1953 10.7344 20.1836 10.9102 20.1836L15.6562 24.1211C16.8398 25.1758 17.5078 25.3516 18.3984 25.3516ZM9.92578 26.2773C12.1875 26.2773 13.5703 25.8438 14.6953 25.0703L11.0625 22.0469C10.8984 22.0586 10.6992 22.082 10.4531 22.082C9.86719 22.082 9 21.9062 7.96875 21.9062C6.65625 21.9062 5.84766 22.6094 5.84766 23.6641C5.84766 25.2344 7.44141 26.2773 9.92578 26.2773ZM30.1523 14.4648C29.625 14.4648 29.2031 14.0195 29.2031 13.5039C29.2031 12.9766 29.6367 12.5078 30.1641 12.5078C30.7031 12.5078 31.125 12.9297 31.125 13.457C31.125 13.9844 30.6914 14.4648 30.1523 14.4648Z" fill="black" fill-opacity="0.85"/>
</svg>
