<svg width="28" height="28" viewBox="0 0 28 28" fill="none" xmlns="http://www.w3.org/2000/svg">
<path d="M13.9531 25.9062C20.4922 25.9062 25.9062 20.4805 25.9062 13.9531C25.9062 7.41406 20.4805 2 13.9414 2C7.41406 2 2 7.41406 2 13.9531C2 20.4805 7.42578 25.9062 13.9531 25.9062Z" fill="black" fill-opacity="0.85"/>
<path d="M13.9648 20C13.4375 20 13.0508 19.625 13.0508 19.0859V13.0742L13.1562 10.5078L11.9492 11.9609L10.5195 13.4023C10.3555 13.5664 10.1211 13.6719 9.875 13.6719C9.37109 13.6719 8.99609 13.2852 8.99609 12.793C8.99609 12.5352 9.06641 12.3242 9.23047 12.1602L13.2617 8.14062C13.5078 7.89453 13.707 7.80078 13.9648 7.80078C14.2344 7.80078 14.4453 7.90625 14.6797 8.14062L18.6992 12.1602C18.8633 12.3242 18.957 12.5352 18.957 12.793C18.957 13.2852 18.5703 13.6719 18.0664 13.6719C17.8086 13.6719 17.5859 13.5781 17.4219 13.4023L16.0039 11.9609L14.7734 10.4961L14.8789 13.0742V19.0859C14.8789 19.625 14.5039 20 13.9648 20Z" fill="white"/>
</svg>
