<svg width="28" height="28" viewBox="0 0 28 28" fill="none" xmlns="http://www.w3.org/2000/svg">
<path d="M6.67969 24.5977H20.8945C23.3555 24.5977 24.5742 23.3789 24.5742 20.9648V6.65625C24.5742 4.24219 23.3555 3.02344 20.8945 3.02344H6.67969C4.23047 3.02344 3 4.23047 3 6.65625V20.9648C3 23.3906 4.23047 24.5977 6.67969 24.5977ZM6.70312 22.7109C5.53125 22.7109 4.88672 22.0898 4.88672 20.8711V6.75C4.88672 5.53125 5.53125 4.91016 6.70312 4.91016H20.8711C22.0312 4.91016 22.6875 5.53125 22.6875 6.75V20.8711C22.6875 22.0898 22.0312 22.7109 20.8711 22.7109H6.70312Z" fill="black" fill-opacity="0.85"/>
<path d="M9.26953 13.9102C9.26953 14.2266 9.51562 14.4961 9.84375 14.4961H10.582V18.8438C10.582 19.3125 10.8984 19.6055 11.3438 19.6055C11.7891 19.6055 12.0938 19.3125 12.0938 18.8438V14.4961H12.6445L16.4297 19.2539C16.6289 19.5117 16.8281 19.6055 17.0508 19.6055C17.4492 19.6055 17.7773 19.3008 17.7773 18.9141C17.7773 18.7617 17.707 18.5742 17.5781 18.3984L14.4258 14.4961H17.4492C17.7891 14.4961 18.0234 14.2266 18.0234 13.9102C18.0234 13.5703 17.7891 13.3359 17.4492 13.3359H14.4141L17.5664 9.46875C17.707 9.30469 17.7656 9.11719 17.7656 8.96484C17.7656 8.57812 17.4609 8.27344 17.0625 8.27344C16.8281 8.27344 16.6289 8.36719 16.4297 8.63672L12.6328 13.3359H12.0938V9.05859C12.0938 8.57812 11.8008 8.29688 11.3438 8.29688C10.8867 8.29688 10.582 8.57812 10.582 9.05859V13.3359H9.84375C9.51562 13.3359 9.26953 13.5703 9.26953 13.9102Z" fill="black" fill-opacity="0.85"/>
</svg>
