<svg width="28" height="28" viewBox="0 0 28 28" fill="none" xmlns="http://www.w3.org/2000/svg">
<path d="M2.31406 16.8805L11.7008 26.2672C13.4352 28.0016 15.1461 28.0133 16.8687 26.3023L26.3023 16.857C28.0133 15.1461 28.0016 13.4234 26.2672 11.6891L16.8922 2.31406C15.1578 0.579683 13.4469 0.556245 11.7242 2.2789L2.2789 11.7125C0.556245 13.4352 0.579683 15.1461 2.31406 16.8805ZM3.67343 15.5797C2.8414 14.7359 2.81796 13.857 3.68515 12.9898L12.9898 3.68515C13.857 2.81796 14.7359 2.82968 15.5797 3.67343L24.9078 13.0016C25.7398 13.8336 25.7633 14.7242 24.8961 15.5914L15.5914 24.8961C14.7242 25.7633 13.8219 25.7398 13.0016 24.9195L3.67343 15.5797Z" fill="black" fill-opacity="0.85"/>
<path d="M9.21484 17.982C9.21484 18.65 9.54297 19.0484 10.1523 19.0367C10.75 19.025 11.0898 18.65 11.0898 17.982V14.7242C11.0898 13.6578 11.5937 13.1656 12.6015 13.1656H15.6601V15.0055C15.6601 15.7672 16.5156 16.1187 17.1601 15.568L19.9609 13.1422C20.664 12.5328 20.664 11.9117 19.9609 11.3023L17.1601 8.88828C16.5156 8.32578 15.6601 8.68906 15.6601 9.43906V11.2789H12.5781C10.293 11.2789 9.21484 12.3687 9.21484 14.6305V17.982Z" fill="black" fill-opacity="0.85"/>
</svg>
