<svg width="29" height="28" viewBox="0 0 29 28" fill="none" xmlns="http://www.w3.org/2000/svg">
<path d="M0.902344 5.83984L23.5547 5.82812C24.0469 5.82812 24.457 5.41797 24.457 4.92578C24.457 4.43359 24.0469 4 23.5547 4L0.902344 4.01172C0.398438 4.01172 0 4.44531 0 4.92578C0 5.41797 0.410156 5.82812 0.902344 5.83984ZM12.2227 13.9492C17.5312 13.9492 21.1641 10.2695 21.1172 4.94922H19.3125C19.3359 9.19141 16.4531 12.1211 12.2227 12.1211C8.00391 12.1211 5.10938 9.19141 5.13281 4.94922H3.31641C3.29297 10.2695 6.92578 13.9492 12.2227 13.9492ZM18.7031 23.8047C19.1016 24.1797 19.6172 24.1797 20.0039 23.8047C20.3789 23.418 20.3906 22.8906 20.0039 22.5156L12.9023 15.4375C11.6836 15.4375 11.2266 15.4727 10.1953 15.2852L18.7031 23.8047ZM21.5508 20.9688C21.9375 21.3438 22.4531 21.3438 22.8516 20.9688C23.2266 20.5703 23.2148 20.0547 22.8516 19.668L17.4141 14.2422C16.8398 14.5469 16.2188 14.793 15.5625 14.9805L21.5508 20.9688ZM24.3867 18.1328C24.7734 18.5312 25.2891 18.5078 25.6875 18.1211C26.0625 17.7461 26.0508 17.2188 25.6758 16.832L20.4844 11.6406C20.1211 12.1328 19.7109 12.5898 19.2539 12.9883L24.3867 18.1328ZM27.2227 15.2969C27.6094 15.6836 28.1367 15.6719 28.5352 15.2852C28.8984 14.9102 28.8867 14.3828 28.5117 13.9961L22.3008 7.77344C22.1484 8.47656 21.9375 9.12109 21.6562 9.73047L27.2227 15.2969Z" fill="black" fill-opacity="0.85"/>
</svg>
