<svg width="30" height="28" viewBox="0 0 30 28" fill="none" xmlns="http://www.w3.org/2000/svg">
<path d="M9.31641 22.3086C9.89062 22.3086 10.3125 21.8633 10.3125 21.2539V18.4648H11.8594C12.4102 18.4648 12.7852 18.1367 12.7852 17.5859C12.7852 17.0703 12.3984 16.707 11.8594 16.707H10.3125V6.64062C10.3125 5.69141 9.60938 5.01172 8.625 5.01172C7.57031 5.01172 6.96094 5.78516 6.41016 6.65234L0.433594 15.8164C0.152344 16.2617 0 16.7305 0 17.1523C0 17.9023 0.492188 18.4648 1.42969 18.4648H8.32031V21.2539C8.32031 21.9805 8.83594 22.3086 9.31641 22.3086ZM8.33203 16.7305H1.95703V16.625L8.22656 7.09766H8.33203V16.7305ZM17.3438 22.3086C17.918 22.3086 18.3867 21.8398 18.3867 21.2656V14.3633H27.668V21.2656C27.668 21.8398 28.1367 22.3086 28.7109 22.3086C29.2852 22.3086 29.7539 21.8398 29.7539 21.2656V6.04297C29.7539 5.45703 29.2852 5 28.7109 5C28.1367 5 27.668 5.45703 27.668 6.04297V12.5469H18.3867V6.04297C18.3867 5.45703 17.918 5 17.3438 5C16.7695 5 16.3008 5.45703 16.3008 6.04297V21.2656C16.3008 21.8398 16.7695 22.3086 17.3438 22.3086Z" fill="black" fill-opacity="0.85"/>
</svg>
