<svg width="28" height="28" viewBox="0 0 28 28" fill="none" xmlns="http://www.w3.org/2000/svg">
<path d="M9.41345 26.1602H20.3822C22.597 26.1602 23.933 24.8477 23.933 22.6445L23.9447 6.3203C23.9447 4.17577 22.7025 2.74608 20.3705 2.17187C17.5814 1.48046 14.7455 1.09374 11.7338 1.02343C7.64391 0.917957 5.0072 2.49999 4.50329 6.16796C3.85876 10.9375 3.83532 17.5586 4.42126 21.8711C4.7611 24.5195 6.65954 26.1602 9.41345 26.1602ZM9.47204 24.2734C7.70251 24.2734 6.49548 23.3711 6.30798 21.8828C5.72204 17.5469 5.74548 11.0195 6.36657 6.41405C6.71813 3.89452 8.59313 2.83983 11.558 2.91015C14.6049 2.98046 17.4877 3.36718 20.3236 4.04687C21.4838 4.33983 22.0697 5.11327 22.0697 6.35546L22.058 22.6094C22.058 23.8516 21.5658 24.2734 20.347 24.2734H9.47204Z" fill="black" fill-opacity="0.85"/>
<path d="M9.14355 11.3008H19.081C19.5029 11.3008 19.8545 10.9609 19.8545 10.5391C19.8545 10.1172 19.5029 9.76562 19.081 9.76562H9.14355C8.72168 9.76562 8.37012 10.1172 8.37012 10.5391C8.37012 10.9609 8.72168 11.3008 9.14355 11.3008ZM9.14355 15.1914H19.081C19.5029 15.1914 19.8545 14.8516 19.8545 14.4297C19.8545 14.0078 19.5029 13.6562 19.081 13.6562H9.14355C8.72168 13.6562 8.37012 14.0078 8.37012 14.4297C8.37012 14.8516 8.72168 15.1914 9.14355 15.1914ZM9.14355 19.082H19.081C19.5029 19.082 19.8545 18.7422 19.8545 18.3086C19.8545 17.8867 19.5029 17.5469 19.081 17.5469H9.14355C8.72168 17.5469 8.37012 17.8867 8.37012 18.3086C8.37012 18.7422 8.72168 19.082 9.14355 19.082Z" fill="black" fill-opacity="0.85"/>
</svg>
