<svg width="48" height="28" viewBox="0 0 48 28" fill="none" xmlns="http://www.w3.org/2000/svg">
<g clip-path="url(#clip0_2124_89069)">
<path d="M0.97065 16.5273H26.1425C27.1386 16.5273 27.4081 15.4023 26.7636 14.9336L19.2167 9.67188C18.8417 9.41406 18.4081 9.28516 17.9277 9.28516H9.19721C8.70502 9.28516 8.27143 9.41406 7.89643 9.67188L0.349556 14.9336C-0.294975 15.4023 -0.0254444 16.5273 0.97065 16.5273ZM3.10346 14.9219L8.82221 10.9844C8.95112 10.9023 9.02143 10.8906 9.19721 10.8906H17.916C18.0917 10.8906 18.1621 10.9023 18.291 10.9844L24.0097 14.9219H3.10346ZM4.8144 24.4023H22.2988C23.9277 24.4023 24.8769 23.5 24.8769 21.8945V15.6602H23.0371V21.4492C23.0371 22.1875 22.6503 22.5742 21.9355 22.5742H5.17768C4.46284 22.5742 4.07612 22.1875 4.07612 21.4492V15.6602H2.23627V21.8945C2.23627 23.5 3.18549 24.4023 4.8144 24.4023Z" fill="black" fill-opacity="0.85"/>
<path d="M21.7949 16.5273H46.9785C47.9628 16.5273 48.2441 15.4023 47.5878 14.9336L40.041 9.67188C39.6777 9.41406 39.2324 9.28516 38.7519 9.28516H30.0331C29.5292 9.28516 29.0956 9.41406 28.7206 9.67188L21.1855 14.9336C20.5292 15.4023 20.7988 16.5273 21.7949 16.5273ZM23.9277 14.9219L29.6581 10.9844C29.7871 10.9023 29.8456 10.8906 30.0331 10.8906H38.7402C38.916 10.8906 38.9863 10.9023 39.1152 10.9844L44.8339 14.9219H23.9277ZM25.6386 24.4023H43.123C44.7519 24.4023 45.7011 23.5 45.7011 21.8945V15.6602H43.8613V21.4492C43.8613 22.1875 43.4746 22.5742 42.7597 22.5742H26.0136C25.2871 22.5742 24.9003 22.1875 24.9003 21.4492V15.6602H23.0605V21.8945C23.0605 23.5 24.0097 24.4023 25.6386 24.4023Z" fill="black" fill-opacity="0.85"/>
<path d="M13.7791 24.4023H34.1463C35.7752 24.4023 36.701 23.5 36.701 21.8945V15.8125L37.2635 16.2578C38.4002 17.1484 39.537 15.6602 38.5995 14.9336L25.4393 4.58594C24.9588 4.21094 24.4666 4 23.9627 4C23.4588 4 22.9666 4.21094 22.4862 4.58594L9.32606 14.9336C8.38856 15.6602 9.52528 17.1484 10.662 16.2578L11.2245 15.8125V21.8945C11.2245 23.5 12.162 24.4023 13.7791 24.4023Z" fill="white"/>
<path d="M10.662 16.2578L23.4354 6.23828C23.5877 6.12109 23.787 6.03906 23.9627 6.03906C24.1502 6.03906 24.3495 6.12109 24.5018 6.23828L37.2635 16.2578C38.4002 17.1484 39.537 15.6602 38.5995 14.9336L25.4393 4.58594C24.9588 4.21094 24.4784 4 23.9627 4C23.4588 4 22.9666 4.21094 22.4862 4.58594L9.32606 14.9336C8.38856 15.6602 9.52528 17.1484 10.662 16.2578ZM13.7791 24.4023H34.1463C35.7752 24.4023 36.701 23.5 36.701 21.8945V14.1133L34.8729 14.0195V21.4492C34.8729 22.1875 34.4979 22.5742 33.7713 22.5742H14.1541C13.4276 22.5742 13.0526 22.1875 13.0526 21.4492V14.0195L11.2245 14.1133V21.8945C11.2245 23.5 12.162 24.4023 13.7791 24.4023ZM20.9041 23.125H27.0213V17.3594C27.0213 16.8789 26.6932 16.5508 26.2127 16.5508H21.7245C21.2557 16.5508 20.9041 16.8789 20.9041 17.3594V23.125Z" fill="black" fill-opacity="0.85"/>
</g>
<defs>
<clipPath id="clip0_2124_89069">
<rect width="47.9431" height="20.4023" fill="white" transform="translate(0 4)"/>
</clipPath>
</defs>
</svg>
