<svg width="32" height="28" viewBox="0 0 32 28" fill="none" xmlns="http://www.w3.org/2000/svg">
<path d="M30.082 21.5859C30.9141 21.5859 31.6172 20.9062 31.6172 20.1094C31.6172 19.3008 30.9258 18.6328 30.082 18.6328C29.2266 18.6328 28.5469 19.3008 28.5469 20.1094C28.5469 20.9062 29.25 21.5859 30.082 21.5859ZM30.082 16.3828C30.6562 16.3828 31.0547 15.9844 31.0781 15.3867L31.3242 7.08984C31.3477 6.33984 30.8555 5.83594 30.082 5.83594C29.3086 5.83594 28.8047 6.33984 28.8281 7.08984L29.0742 15.3867C29.0977 15.9844 29.5078 16.3828 30.082 16.3828Z" fill="black" fill-opacity="0.85"/>
<path d="M3.67969 24.457H21.1523C23.6367 24.457 24.832 23.2852 24.832 20.8359V6.55078C24.832 4.20703 23.625 3.01172 21.2578 3.01172H15.5742C13.6641 3.01172 12.4688 3.42188 10.9219 4.58203L1.81641 11.5078C0.46875 12.5273 0 13.4297 0 15.1055V20.8359C0 23.2852 1.20703 24.457 3.67969 24.457ZM3.75 13.6523C3.12891 13.6523 3 12.9844 3.48047 12.6328L12.2109 5.95312C13.207 5.15625 14.0742 4.89844 15.5742 4.89844H21.2227C22.3125 4.89844 22.9453 5.50781 22.9453 6.64453V11.9062C22.9453 13.0312 22.3008 13.6523 21.2227 13.6523H3.75Z" fill="black" fill-opacity="0.85"/>
</svg>
