<svg width="42" height="28" viewBox="0 0 42 28" fill="none" xmlns="http://www.w3.org/2000/svg">
<path d="M3.05859 21.3711H4.88672C4.81641 21.0195 4.75781 20.6562 4.75781 20.2695C4.75781 17.75 6.75 15.7695 9.25781 15.7695C11.7773 15.7695 13.7578 17.75 13.7578 20.2695C13.7578 20.6562 13.7109 21.0195 13.6289 21.3711H28.5586C28.4883 21.0195 28.4297 20.6562 28.4297 20.2695C28.4297 17.75 30.4219 15.7695 32.9297 15.7695C35.4492 15.7695 37.4297 17.75 37.4297 20.2695C37.4297 20.6562 37.3828 21.0195 37.3008 21.3711H38.8477C40.5352 21.3711 41.5664 20.3047 41.5664 18.5703V13.8594C41.5664 12.2188 41.0742 10.8242 38.8945 10.1445L36.4805 9.40625C34.957 7.58984 32.2969 5 27.457 5H24.7031C19.875 5 17.9531 5.46875 15.0703 7.27344L10.3477 10.2383L5.14453 10.8711C1.91016 11.2695 0 13.1328 0 15.9219V18.2422C0 20.2344 1.11328 21.3711 3.05859 21.3711ZM9.25781 23.3984C11.0156 23.3984 12.3984 22.0156 12.3984 20.2695C12.3984 18.5234 11.0039 17.1289 9.25781 17.1289C7.52344 17.1289 6.12891 18.5234 6.12891 20.2695C6.12891 22.0039 7.52344 23.3984 9.25781 23.3984ZM32.9297 23.3984C34.6758 23.3984 36.0703 22.0039 36.0703 20.2695C36.0703 18.5234 34.6758 17.1289 32.9297 17.1289C31.207 17.1289 29.8008 18.5352 29.8008 20.2695C29.8008 22.0039 31.1953 23.3984 32.9297 23.3984Z" fill="black" fill-opacity="0.85"/>
<path d="M15.3398 12.6289C15.3398 10.5664 16.8516 9.16016 19.0898 9.16016H26.1328C26.6484 9.16016 27 9.52344 27 10.0039C27 10.4844 26.6484 10.8125 26.1445 10.8125H19.0898C17.8594 10.8125 17.0391 11.5859 17.0391 12.7227C17.0391 13.7305 17.8477 14.4102 19.0781 14.4102H23.8945V13.3672C23.8945 12.6641 24.3867 12.4297 24.9844 12.8281L27.7852 14.668C28.2539 14.9961 28.2305 15.5586 27.7852 15.8398L24.9727 17.6914C24.375 18.0781 23.8945 17.832 23.8945 17.1523V16.0508H19.0781C16.8516 16.0508 15.3398 14.6797 15.3398 12.6289Z" fill="white"/>
</svg>
