<svg width="28" height="28" viewBox="0 0 28 28" fill="none" xmlns="http://www.w3.org/2000/svg">
<path d="M13.9531 25.9062C20.4922 25.9062 25.9062 20.4805 25.9062 13.9531C25.9062 7.41406 20.4805 2 13.9414 2C7.41406 2 2 7.41406 2 13.9531C2 20.4805 7.42578 25.9062 13.9531 25.9062ZM13.9531 23.9141C8.42188 23.9141 4.00391 19.4844 4.00391 13.9531C4.00391 8.42188 8.41016 3.99219 13.9414 3.99219C19.4727 3.99219 23.9141 8.42188 23.9141 13.9531C23.9141 19.4844 19.4844 23.9141 13.9531 23.9141Z" fill="black" fill-opacity="0.85"/>
<path d="M6.58203 13.6015C6.58203 15.3827 7.21484 17.0468 8.39844 18.3241C8.69141 18.6522 9.16016 18.6757 9.42969 18.3593C9.6875 18.078 9.65234 17.6913 9.35938 17.328C8.44531 16.3437 7.95312 15.0311 7.95312 13.6015C7.95312 12.1718 8.44531 10.871 9.35938 9.87495C9.65234 9.52339 9.6875 9.12495 9.44141 8.8437C9.16016 8.52729 8.69141 8.53901 8.39844 8.87886C7.22656 10.1562 6.58203 11.8203 6.58203 13.6015ZM19.9414 13.6015C19.9414 15.0311 19.4492 16.3437 18.5352 17.328C18.2305 17.6913 18.1953 18.078 18.4531 18.3593C18.7227 18.6757 19.1914 18.6522 19.4844 18.3241C20.668 17.0468 21.3125 15.3827 21.3125 13.6015C21.3125 11.8203 20.6562 10.1562 19.4844 8.87886C19.1914 8.53901 18.7227 8.52729 18.4414 8.8437C18.1953 9.12495 18.2305 9.52339 18.5352 9.87495C19.4492 10.871 19.9414 12.1718 19.9414 13.6015Z" fill="black" fill-opacity="0.85"/>
<path d="M9.44141 13.6017C9.44141 14.6095 9.79297 15.5821 10.4141 16.3556C10.6836 16.7189 11.1992 16.7423 11.4805 16.4142C11.7266 16.1446 11.6914 15.7931 11.3984 15.3946C11.0117 14.9142 10.8125 14.3048 10.8125 13.6017C10.8125 12.9337 11.0234 12.3126 11.4102 11.7969C11.6914 11.4102 11.7148 11.0586 11.4805 10.7891C11.1875 10.461 10.6836 10.4844 10.4141 10.8477C9.79297 11.6211 9.44141 12.5939 9.44141 13.6017ZM17.0703 13.6017C17.0703 14.3048 16.8711 14.9142 16.4844 15.3946C16.1914 15.7931 16.1562 16.1446 16.4023 16.4142C16.6836 16.7423 17.1992 16.7189 17.4688 16.3556C18.0898 15.5821 18.4414 14.6095 18.4414 13.6017C18.4414 12.5939 18.0898 11.6211 17.4688 10.8477C17.1992 10.4844 16.6953 10.461 16.4023 10.7891C16.168 11.0586 16.2031 11.4102 16.4844 11.7969C16.8594 12.3126 17.0703 12.9337 17.0703 13.6017Z" fill="black" fill-opacity="0.85"/>
<path d="M12.582 13.6016C12.582 14.1172 12.875 14.5508 13.2969 14.7734V20.8672C13.2969 21.2773 13.5664 21.5703 13.9414 21.5703C14.3281 21.5703 14.5977 21.2891 14.5977 20.8672V14.7734C15.0078 14.5508 15.3008 14.1055 15.3008 13.6016C15.3008 12.8398 14.7031 12.2422 13.9414 12.2422C13.1914 12.2422 12.582 12.8398 12.582 13.6016Z" fill="black" fill-opacity="0.85"/>
</svg>
