<svg width="28" height="28" viewBox="0 0 28 28" fill="none" xmlns="http://www.w3.org/2000/svg">
<g clip-path="url(#clip0_2124_66945)">
<path d="M14.2281 2C8.46252 2 3.56408 6.20703 2.49767 11.6914H0.833612C-0.0101376 11.6914 -0.221075 12.2656 0.235956 12.9219L2.86096 16.6484C3.24767 17.1875 3.81017 17.1758 4.18517 16.6484L6.81017 12.9102C7.25549 12.2656 7.04455 11.6914 6.21252 11.6914H4.52502C5.53283 7.26172 9.47033 4.00391 14.2281 4.00391C17.568 4.01562 20.4977 5.62109 22.2906 8.11719C22.6422 8.59766 23.2047 8.75 23.6852 8.44531C24.1656 8.16406 24.2945 7.51953 23.8961 7.00391C21.6695 4.01562 18.1774 2 14.2281 2ZM14.2281 25.9062C19.9938 25.9062 24.8922 21.6875 25.9586 16.2148H27.611C28.4547 16.2148 28.6774 15.6406 28.2086 14.9844L25.5953 11.2578C25.2086 10.7188 24.6461 10.7305 24.2711 11.2578L21.6461 14.9961C21.1891 15.6406 21.4117 16.2148 22.2438 16.2148H23.943C22.9235 20.6328 18.9742 23.9141 14.2281 23.9141C10.8883 23.9023 7.95861 22.2852 6.16564 19.7891C5.80236 19.3086 5.25158 19.1562 4.75939 19.4492C4.29064 19.7422 4.16174 20.3867 4.56017 20.9023C6.78674 23.8906 10.2789 25.9062 14.2281 25.9062Z" fill="black" fill-opacity="0.85"/>
<path d="M13.7832 7.08594C13.2676 7.08594 12.8457 7.49609 12.8457 8.01172V14.5508C12.8457 14.8203 12.9278 15.0547 13.127 15.3125L16.0215 19.1328C16.4082 19.6367 16.9473 19.7188 17.4278 19.3906C17.8614 19.0859 17.8965 18.5352 17.5449 18.0547L13.6426 12.793L14.709 16.0742V8.01172C14.709 7.49609 14.2989 7.08594 13.7832 7.08594Z" fill="black" fill-opacity="0.85"/>
</g>
<defs>
<clipPath id="clip0_2124_66945">
<rect width="28" height="28" fill="white"/>
</clipPath>
</defs>
</svg>
