<svg width="28" height="28" viewBox="0 0 28 28" fill="none" xmlns="http://www.w3.org/2000/svg">
<path d="M13.9531 25.9062C20.4922 25.9062 25.9062 20.4805 25.9062 13.9531C25.9062 7.41406 20.4805 2 13.9414 2C7.41406 2 2 7.41406 2 13.9531C2 20.4805 7.42578 25.9062 13.9531 25.9062Z" fill="black" fill-opacity="0.85"/>
<path d="M10.3437 18.6172C9.80469 18.6172 9.51172 18.2773 9.51172 17.7383V10.0156C9.51172 9.55859 9.89844 9.18359 10.3555 9.18359C10.8125 9.18359 11.1875 9.55859 11.1875 10.0156V17.1992H13.6367C14.0234 17.1992 14.3398 17.5156 14.3398 17.9141C14.3398 18.2891 14.0234 18.6172 13.6367 18.6172H10.3437ZM17.4102 18.7227C16.9414 18.7227 16.5664 18.3477 16.5664 17.8672V10.918L15.5117 11.7617C15.3945 11.8555 15.2773 11.9023 15.1016 11.9023C14.75 11.9023 14.5156 11.6562 14.5156 11.293C14.5156 11 14.668 10.7656 14.8789 10.625L16.1328 9.62891C16.4023 9.42969 16.8008 9.16016 17.2695 9.16016C17.8789 9.16016 18.2539 9.51172 18.2539 10.1094V17.8672C18.2539 18.3477 17.8672 18.7227 17.4102 18.7227Z" fill="white"/>
</svg>
