<svg width="29" height="29" viewBox="0 0 29 29" fill="none" xmlns="http://www.w3.org/2000/svg">
<g clip-path="url(#clip0_2124_46029)">
<path d="M13.9707 25.9287C20.5098 25.9287 25.9238 20.503 25.9238 13.9756C25.9238 7.43652 20.4981 2.02246 13.959 2.02246C7.43164 2.02246 2.01758 7.43652 2.01758 13.9756C2.01758 20.503 7.44336 25.9287 13.9707 25.9287Z" fill="black" fill-opacity="0.85"/>
<path d="M20.7676 11.9482C20.7676 13.9405 19.6543 15.5225 18.1895 15.5225H17.252C17.791 14.7959 18.4356 13.6475 18.459 12.0068C18.4824 10.5185 17.9785 9.22949 16.7832 8.3623H17.9551C19.584 8.3623 20.7676 9.99121 20.7676 11.9482ZM17.5801 11.9951C17.5567 13.542 17.1348 14.4795 16.3145 15.5811C15.3184 16.9053 14.0293 18.4522 13.0449 20.3389C12.8106 20.8311 12.5762 21.1475 12.1074 21.1475C11.6035 21.1475 11.2051 20.7842 11.2051 20.1866C11.2051 19.0498 12.2949 17.4444 12.2949 16.5537C12.2949 16.0733 11.9199 15.7686 11.3106 15.7686H9.01367C8.38086 15.7686 7.88867 15.253 7.88867 14.6084C7.88867 14.2686 8.01758 13.9522 8.20508 13.7647C8.32227 13.6827 8.3457 13.6241 8.22852 13.542C8.06446 13.378 7.9707 13.0381 7.9707 12.7452C7.9707 12.2998 8.16992 11.96 8.48633 11.7725C8.5918 11.7139 8.60352 11.6201 8.5332 11.5146C8.38086 11.3389 8.28711 11.0693 8.28711 10.7764C8.28711 10.2607 8.63867 9.87402 9.02539 9.72168C9.0957 9.69824 9.10742 9.61621 9.06055 9.53418C8.99024 9.40527 8.91992 9.19434 8.91992 8.95996C8.91992 8.33887 9.42383 8.0459 9.95117 7.90527C10.3027 7.82324 10.9238 7.75293 11.7559 7.76465L12.6582 7.77637C15.6934 7.81152 17.6153 9.60449 17.5801 11.9951Z" fill="white"/>
</g>
<defs>
<clipPath id="clip0_2124_46029">
<rect width="23.9062" height="23.918" fill="white" transform="translate(2.01758 2.02246)"/>
</clipPath>
</defs>
</svg>
