<svg width="28" height="28" viewBox="0 0 28 28" fill="none" xmlns="http://www.w3.org/2000/svg">
<g clip-path="url(#clip0_2124_24842)">
<path d="M22.918 5.35938H25.9766C26.4102 5.35938 26.6914 5.07812 26.6914 4.66797V4.11719C26.6914 3.69531 26.4102 3.41406 25.9766 3.41406H22.918V5.35938ZM20.4922 7.77344H21.0898C21.5117 7.77344 21.793 7.49219 21.793 7.07031V1.71484C21.793 1.28125 21.5117 1 21.0898 1H20.4922C20.0703 1 19.7891 1.28125 19.7891 1.71484V7.07031C19.7891 7.49219 20.0703 7.77344 20.4922 7.77344ZM14.0703 7.14062H18.6641V1.63281H14.0703C13.1094 1.63281 12.7227 2.03125 12.7227 2.99219V5.79297C12.7227 6.75391 13.1094 7.14062 14.0703 7.14062ZM2 8.98047C2 12.0391 4.49609 14.5234 7.55469 14.5234H21.1367C23.1641 14.5234 24.8047 16.1641 24.8047 18.1914C24.8047 20.207 23.1523 21.8359 21.1367 21.8359H17.1055V23.7227H21.1367C24.1953 23.7227 26.6914 21.25 26.6914 18.1914C26.6914 15.1328 24.1953 12.6367 21.1367 12.6367H7.55469C5.52734 12.6367 3.88672 11.0078 3.88672 8.98047C3.88672 6.96484 5.53906 5.32422 7.55469 5.32422H11.5859V3.4375H7.55469C4.49609 3.4375 2 5.92188 2 8.98047ZM5.77344 23.7461V21.8008H2.71484C2.28125 21.8008 2 22.082 2 22.5039V23.0547C2 23.4648 2.28125 23.7461 2.71484 23.7461H5.77344ZM8.19922 26.1719C8.62109 26.1719 8.90234 25.8906 8.90234 25.457V20.1016C8.90234 19.6797 8.62109 19.3984 8.19922 19.3984H7.60156C7.17969 19.3984 6.89844 19.6797 6.89844 20.1016V25.457C6.89844 25.8906 7.17969 26.1719 7.60156 26.1719H8.19922ZM14.6211 25.5391C15.582 25.5391 15.9688 25.1406 15.9688 24.1797V21.3789C15.9688 20.418 15.582 20.0312 14.6211 20.0312H10.0273V25.5391H14.6211Z" fill="black" fill-opacity="0.85"/>
</g>
<defs>
<clipPath id="clip0_2124_24842">
<rect width="24.6914" height="25.1836" fill="white" transform="translate(2 1)"/>
</clipPath>
</defs>
</svg>
