<svg width="28" height="28" viewBox="0 0 28 28" fill="none" xmlns="http://www.w3.org/2000/svg">
<path d="M13.9531 25.9062C20.4922 25.9062 25.9062 20.4805 25.9062 13.9531C25.9062 7.41406 20.4805 2 13.9414 2C7.41406 2 2 7.41406 2 13.9531C2 20.4805 7.42578 25.9062 13.9531 25.9062ZM13.9531 23.9141C8.42188 23.9141 4.00391 19.4844 4.00391 13.9531C4.00391 8.42188 8.41016 3.99219 13.9414 3.99219C19.4727 3.99219 23.9141 8.42188 23.9141 13.9531C23.9141 19.4844 19.4844 23.9141 13.9531 23.9141Z" fill="black" fill-opacity="0.85"/>
<path d="M20.8555 13.9531C20.8555 13.7422 20.7734 13.4961 20.5391 13.2617L15.4883 8.5625C15.1602 8.24609 14.9492 8.11719 14.6445 8.11719C14.1992 8.11719 13.8828 8.45703 13.8828 8.87891V11.4453H8.58594C7.66016 11.4453 7.12109 11.9609 7.12109 12.875V15.043C7.12109 15.9453 7.66016 16.4609 8.58594 16.4609H13.8828V19.0508C13.8828 19.4844 14.1992 19.7891 14.6211 19.7891C14.9375 19.7891 15.1953 19.6602 15.4883 19.3906L20.5391 14.6328C20.7734 14.3984 20.8555 14.1523 20.8555 13.9531Z" fill="black" fill-opacity="0.85"/>
</svg>
