<svg width="28" height="28" viewBox="0 0 28 28" fill="none" xmlns="http://www.w3.org/2000/svg">
<g clip-path="url(#clip0_2124_24815)">
<path d="M5 5.32812V22.9297C5 25.1445 6.10156 26.2578 8.29297 26.2578H19.6836C21.875 26.2578 22.9648 25.1445 22.9648 22.9297V5.32812C22.9648 3.11328 21.875 2 19.6836 2H8.29297C6.10156 2 5 3.11328 5 5.32812ZM6.88672 5.35156C6.88672 4.39062 7.39062 3.88672 8.36328 3.88672H19.6133C20.5859 3.88672 21.0781 4.39062 21.0781 5.35156V22.9062C21.0781 23.8555 20.5742 24.3711 19.6133 24.3711H8.36328C7.39062 24.3711 6.88672 23.8555 6.88672 22.9062V5.35156ZM13.9883 22.4844C16.6367 22.4844 18.7695 20.3633 18.7695 17.7031C18.7695 15.043 16.6367 12.9336 13.9883 12.9219C11.3398 12.9102 9.20703 15.043 9.20703 17.7031C9.20703 20.3633 11.3398 22.4844 13.9883 22.4844ZM13.9883 19.7305C12.875 19.7305 11.9609 18.8281 11.9609 17.7031C11.9609 16.543 12.8398 15.6641 13.9883 15.6641C15.125 15.6641 16.0156 16.543 16.0156 17.7031C16.0156 18.8281 15.125 19.7305 13.9883 19.7305ZM13.9883 11.082C15.4531 11.082 16.6719 9.89844 16.6484 8.42188C16.6367 6.94531 15.4531 5.78516 13.9883 5.77344C12.5117 5.76172 11.3281 6.93359 11.3281 8.42188C11.3281 9.89844 12.5117 11.082 13.9883 11.082ZM13.9883 9.78125C13.2266 9.78125 12.6289 9.16016 12.6289 8.42188C12.6289 7.63672 13.2266 7.0625 13.9883 7.0625C14.7266 7.0625 15.3477 7.67188 15.3477 8.42188C15.3477 9.16016 14.7383 9.78125 13.9883 9.78125Z" fill="black" fill-opacity="0.85"/>
</g>
<defs>
<clipPath id="clip0_2124_24815">
<rect width="17.9648" height="24.2695" fill="white" transform="translate(5 2)"/>
</clipPath>
</defs>
</svg>
