<svg width="28" height="28" viewBox="0 0 28 28" fill="none" xmlns="http://www.w3.org/2000/svg">
<path d="M12.2305 26.2422C16.5664 26.2422 19.4375 23.3711 19.4375 19.0117V16.6914C19.4375 16.1641 19.0273 15.7539 18.5 15.7539C17.9727 15.7539 17.5508 16.1641 17.5508 16.6914V19.0117C17.5508 22.2109 15.4062 24.3555 12.2305 24.3555C9.03125 24.3555 6.88672 22.2109 6.88672 19.0117V8.21875C6.88672 5.04297 9.03125 2.88672 12.2305 2.88672C15.4062 2.88672 17.5508 5.04297 17.5508 8.21875V9.57812H19.4375V8.21875C19.4375 3.87109 16.5664 1 12.2305 1C7.87109 1 5 3.87109 5 8.21875V19.0117C5 23.3711 7.87109 26.2422 12.2305 26.2422ZM21.2305 8.26562H15.8398C15.0195 8.26562 14.7969 8.83984 15.2422 9.48438L17.8672 13.2227C18.2422 13.75 18.8047 13.7617 19.1914 13.2227L21.8281 9.49609C22.2852 8.83984 22.0742 8.26562 21.2305 8.26562Z" fill="black" fill-opacity="0.85"/>
</svg>
