<svg width="28" height="28" viewBox="0 0 28 28" fill="none" xmlns="http://www.w3.org/2000/svg">
<path d="M4.07778 8.80396L4.95669 9.12037C5.87075 9.46021 6.72622 9.03834 7.06606 8.10084L8.7184 3.56568C9.05825 2.62818 8.67153 1.77271 7.75747 1.43287L6.87856 1.11646C5.9645 0.776619 5.12075 1.19849 4.76919 2.14771L3.12856 6.67115C2.777 7.60865 3.16372 8.46412 4.07778 8.80396ZM19.5114 8.80396L20.402 9.12037C21.3161 9.46021 22.1598 9.03834 22.4997 8.10084L24.152 3.56568C24.5036 2.62818 24.1051 1.77271 23.2028 1.43287L22.3122 1.11646C21.3981 0.776619 20.5661 1.19849 20.2145 2.14771L18.5622 6.67115C18.2223 7.60865 18.609 8.47584 19.5114 8.80396ZM7.0895 6.06178H20.2028V4.17506H7.0895V6.06178ZM12.6676 16.6204C12.9606 16.5383 13.277 16.4915 13.6168 16.4915C13.9567 16.4915 14.2614 16.5383 14.5543 16.6204V4.17506H12.6676V16.6204ZM5.44887 26.1829H6.38637C7.35903 26.1829 8.01528 25.5032 8.01528 24.5071V19.6907C8.01528 18.6829 7.35903 18.0032 6.38637 18.0032H5.44887C4.48794 18.0032 3.83169 18.6829 3.83169 19.6907V24.5071C3.83169 25.5032 4.48794 26.1829 5.44887 26.1829ZM20.8825 26.1829H21.82C22.7926 26.1829 23.4489 25.5032 23.4489 24.5071V19.6907C23.4489 18.6829 22.7926 18.0032 21.82 18.0032H20.8825C19.9215 18.0032 19.2653 18.6829 19.2653 19.6907V24.5071C19.2653 25.5032 19.9215 26.1829 20.8825 26.1829ZM7.0895 23.0422H9.53872V22.0344C9.53872 21.7063 9.58559 21.4133 9.70278 21.1555H7.0895V23.0422ZM17.6832 23.0422H20.2028V21.1555H17.5309C17.6364 21.4133 17.6832 21.7063 17.6832 22.0344V23.0422Z" fill="black" fill-opacity="0.85"/>
<path d="M11.625 26.0891H15.5976C16.2421 26.0891 16.5585 25.7493 16.5585 25.0813V22.0344C16.5585 21.5071 16.3593 21.2024 15.9726 21.0852V20.2766C15.9726 18.6946 15.0234 17.6165 13.6171 17.6165C12.2109 17.6165 11.25 18.6946 11.25 20.2766V21.0969C10.875 21.2024 10.6758 21.5071 10.6758 22.0344V25.0813C10.6758 25.7493 10.9922 26.0891 11.625 26.0891ZM12.4219 21.0266V20.1712C12.4219 19.304 12.8789 18.7532 13.6171 18.7532C14.332 18.7532 14.8125 19.304 14.8125 20.1712V21.0266H12.4219Z" fill="black" fill-opacity="0.85"/>
</svg>
