<svg width="28" height="28" viewBox="0 0 28 28" fill="none" xmlns="http://www.w3.org/2000/svg">
<g clip-path="url(#clip0_2124_40876)">
<path d="M9.86328 10.1133C11.8086 10.1133 13.4258 8.49609 13.4258 6.5625C13.4258 4.61719 11.8086 3 9.86328 3C7.91797 3 6.30078 4.61719 6.30078 6.5625C6.30078 8.48438 7.90625 10.1133 9.86328 10.1133ZM18.4531 10.1133C20.3984 10.1133 22.0273 8.49609 22.0273 6.5625C22.0273 4.61719 20.3984 3 18.4531 3C16.5078 3 14.8906 4.61719 14.8906 6.5625C14.8906 8.49609 16.5078 10.1133 18.4531 10.1133ZM5.5625 17.8242C7.51953 17.8242 9.13672 16.207 9.13672 14.2617C9.13672 12.3164 7.51953 10.6992 5.5625 10.6992C3.61719 10.6992 2 12.3164 2 14.2617C2 16.1953 3.60547 17.8242 5.5625 17.8242ZM22.7539 17.8242C24.6992 17.8242 26.3164 16.207 26.3164 14.2617C26.3164 12.3164 24.6992 10.6992 22.7539 10.6992C20.8086 10.6992 19.1797 12.3164 19.1797 14.2617C19.1797 16.207 20.8086 17.8242 22.7539 17.8242ZM9.86328 25.5234C11.8086 25.5234 13.4258 23.9062 13.4258 21.9609C13.4258 20.0156 11.8086 18.3984 9.86328 18.3984C7.91797 18.3984 6.30078 20.0156 6.30078 21.9609C6.30078 23.8945 7.90625 25.5234 9.86328 25.5234ZM18.4531 25.5234C20.3984 25.5234 22.0273 23.9062 22.0273 21.9609C22.0273 20.0156 20.3984 18.3984 18.4531 18.3984C16.5078 18.3984 14.8906 20.0156 14.8906 21.9609C14.8906 23.9062 16.5078 25.5234 18.4531 25.5234Z" fill="black" fill-opacity="0.85"/>
</g>
<defs>
<clipPath id="clip0_2124_40876">
<rect width="24.3164" height="22.5352" fill="white" transform="translate(2 3)"/>
</clipPath>
</defs>
</svg>
