<svg width="28" height="28" viewBox="0 0 28 28" fill="none" xmlns="http://www.w3.org/2000/svg">
<path d="M6.67969 24.5977H20.8945C23.3555 24.5977 24.5742 23.3789 24.5742 20.9648V6.65625C24.5742 4.24219 23.3555 3.02344 20.8945 3.02344H6.67969C4.23047 3.02344 3 4.23047 3 6.65625V20.9648C3 23.3906 4.23047 24.5977 6.67969 24.5977ZM6.70312 22.7109C5.53125 22.7109 4.88672 22.0898 4.88672 20.8711V6.75C4.88672 5.53125 5.53125 4.91016 6.70312 4.91016H20.8711C22.0312 4.91016 22.6875 5.53125 22.6875 6.75V20.8711C22.6875 22.0898 22.0312 22.7109 20.8711 22.7109H6.70312Z" fill="black" fill-opacity="0.85"/>
<path d="M10.2539 19.1602C10.8164 19.1602 11.1445 18.8203 11.1445 18.2227V11.4023H11.2148L16.3242 18.5977C16.6406 19.0312 16.875 19.1602 17.2617 19.1602C17.8359 19.1602 18.1875 18.8086 18.1875 18.1875V9.14062C18.1875 8.5547 17.8594 8.20312 17.2969 8.20312C16.7578 8.20312 16.4297 8.57812 16.4297 9.14062V16.0898H16.3594L11.25 8.76562C10.9453 8.34376 10.6875 8.20312 10.3008 8.20312C9.72656 8.20312 9.39844 8.58984 9.39844 9.1875V18.2227C9.39844 18.7969 9.71484 19.1602 10.2539 19.1602Z" fill="black" fill-opacity="0.85"/>
</svg>
