<svg width="28" height="28" viewBox="0 0 28 28" fill="none" xmlns="http://www.w3.org/2000/svg">
<path d="M6.67969 24.5977H20.8945C23.3555 24.5977 24.5742 23.3789 24.5742 20.9648V6.65625C24.5742 4.24219 23.3555 3.02344 20.8945 3.02344H6.67969C4.23047 3.02344 3 4.23047 3 6.65625V20.9648C3 23.3906 4.23047 24.5977 6.67969 24.5977ZM6.70312 22.7109C5.53125 22.7109 4.88672 22.0898 4.88672 20.8711V6.75C4.88672 5.53125 5.53125 4.91016 6.70312 4.91016H20.8711C22.0312 4.91016 22.6875 5.53125 22.6875 6.75V20.8711C22.6875 22.0898 22.0312 22.7109 20.8711 22.7109H6.70312Z" fill="black" fill-opacity="0.85"/>
<path d="M11.3437 18.6797C11.7891 18.6797 12.1523 18.4102 12.1523 17.8477V16.6758H12.5625C13.0195 16.6758 13.2305 16.3828 13.2305 15.9844C13.2305 15.6094 13.0312 15.3164 12.5625 15.3164H12.1523V10.1719C12.1523 9.36328 11.6133 8.90625 10.8516 8.90625C10.0312 8.90625 9.64453 9.32812 9.31641 10.0547L7.21875 14.6016C7.01953 15.0586 6.94922 15.3633 6.94922 15.7266C6.94922 16.2891 7.34766 16.6758 7.91016 16.6758H10.5352V17.8477C10.5352 18.4688 10.9805 18.6797 11.3437 18.6797ZM10.5703 15.3516H8.39062V15.2695L10.5234 10.3828H10.5703V15.3516ZM15.1758 18.5273H19.2422C19.6523 18.5273 19.9102 18.2578 19.9102 17.8477C19.9102 17.4023 19.6406 17.1562 19.2422 17.1562H16.4648V17.0625L18.1758 14.8945C19.3477 13.4414 19.7344 12.5742 19.7344 11.543C19.7344 9.96094 18.6562 8.8125 17.0391 8.8125C15.5391 8.8125 14.4023 10.0547 14.4023 11.2734C14.4023 11.707 14.6602 12.0117 15.1055 12.0117C15.4922 12.0117 15.7266 11.8359 15.8438 11.4492C16.0664 10.6641 16.3594 10.1719 17.0273 10.1719C17.7422 10.1719 18.1289 10.793 18.1289 11.625C18.1289 12.5625 17.4844 13.5117 16.8516 14.3086L14.8242 16.9102C14.6016 17.1914 14.3906 17.4844 14.3906 17.8477C14.3906 18.2461 14.6367 18.5273 15.1758 18.5273Z" fill="black" fill-opacity="0.85"/>
</svg>
