<svg width="28" height="28" viewBox="0 0 28 28" fill="none" xmlns="http://www.w3.org/2000/svg">
<path d="M13.9531 25.9062C20.4922 25.9062 25.9062 20.4805 25.9062 13.9531C25.9062 7.41406 20.4805 2 13.9414 2C7.41406 2 2 7.41406 2 13.9531C2 20.4805 7.42578 25.9062 13.9531 25.9062ZM13.9531 23.9141C8.42188 23.9141 4.00391 19.4844 4.00391 13.9531C4.00391 8.42188 8.41016 3.99219 13.9414 3.99219C19.4727 3.99219 23.9141 8.42188 23.9141 13.9531C23.9141 19.4844 19.4844 23.9141 13.9531 23.9141Z" fill="black" fill-opacity="0.85"/>
<path d="M11.4922 18.8398C11.9375 18.8398 12.2891 18.5703 12.2891 18.0078V16.8359H12.7109C13.168 16.8359 13.3789 16.543 13.3789 16.1445C13.3789 15.7695 13.1797 15.4766 12.7109 15.4766H12.2891V10.332C12.2891 9.52344 11.7617 9.06641 11 9.06641C10.168 9.06641 9.78125 9.48828 9.45312 10.2148L7.36719 14.7617C7.16797 15.2188 7.09766 15.5234 7.09766 15.8867C7.09766 16.4492 7.48438 16.8359 8.05859 16.8359H10.6836V18.0078C10.6836 18.6289 11.1289 18.8398 11.4922 18.8398ZM10.7187 15.5117H8.53906V15.4297L10.6719 10.543H10.7187V15.5117ZM15.3242 18.6875H19.3906C19.8008 18.6875 20.0586 18.418 20.0586 18.0078C20.0586 17.5625 19.7891 17.3164 19.3906 17.3164H16.6133V17.2227L18.3125 15.0547C19.4961 13.6016 19.8828 12.7344 19.8828 11.7031C19.8828 10.1211 18.8047 8.97266 17.1875 8.97266C15.6875 8.97266 14.5508 10.2148 14.5508 11.4336C14.5508 11.8672 14.7969 12.1719 15.2539 12.1719C15.6406 12.1719 15.875 11.9961 15.9922 11.6094C16.2148 10.8242 16.5078 10.332 17.1758 10.332C17.8789 10.332 18.2773 10.9531 18.2773 11.7852C18.2773 12.7227 17.6211 13.6719 17 14.4688L14.9727 17.0703C14.75 17.3516 14.5273 17.6445 14.5273 18.0078C14.5273 18.4062 14.7852 18.6875 15.3242 18.6875Z" fill="black" fill-opacity="0.85"/>
</svg>
