<svg width="28" height="28" viewBox="0 0 28 28" fill="none" xmlns="http://www.w3.org/2000/svg">
<path d="M13.7461 26.2656C14.1445 26.2656 14.5898 26.1133 15.0117 25.668L23.6602 16.4219C24.2461 15.8008 24.5039 15.4141 24.5039 14.8398C24.5039 14.0195 23.8477 13.4336 23.0625 13.4336H18.3633V3.69531C18.3633 1.98438 17.4023 1 15.7266 1H11.7539C10.0781 1 9.11719 1.98438 9.11719 3.69531V13.4336H4.37109C3.58594 13.4336 3 14.0195 3 14.8164C3 15.3906 3.23438 15.8594 3.76172 16.4219L12.4922 25.668C12.9141 26.1133 13.3594 26.2656 13.7461 26.2656Z" fill="black" fill-opacity="0.85"/>
</svg>
