<svg width="28" height="28" viewBox="0 0 28 28" fill="none" xmlns="http://www.w3.org/2000/svg">
<g clip-path="url(#clip0_2124_24862)">
<path d="M5.49609 10.3711C5.40234 10.7812 5.57812 10.9453 6.02344 10.9219C7.89844 10.793 10.125 10.6875 13.8633 10.6875C17.6133 10.6875 19.8398 10.793 21.7148 10.9219C22.1484 10.9453 22.3242 10.7812 22.2305 10.3711C21.9492 9.12891 21.4102 7.51172 21.0352 6.86719C20.7305 6.33984 20.3906 6.10547 19.7812 6.02344C18.9375 5.90625 17.0156 5.82422 13.8633 5.82422C10.7227 5.82422 8.80078 5.90625 7.94531 6.02344C7.33594 6.10547 6.99609 6.33984 6.69141 6.86719C6.31641 7.51172 5.78906 9.12891 5.49609 10.3711ZM5.41406 18.3516C6.48047 18.3516 7.30078 17.5312 7.30078 16.4648C7.30078 15.3867 6.48047 14.5781 5.41406 14.5781C4.34766 14.5781 3.52734 15.3867 3.52734 16.4648C3.52734 17.5312 4.34766 18.3516 5.41406 18.3516ZM10.7695 17.8828H16.9688C17.7656 17.8828 18.3164 17.332 18.3164 16.5234C18.3164 15.7266 17.7656 15.1758 16.9688 15.1758H10.7695C9.96094 15.1758 9.41016 15.7266 9.41016 16.5234C9.41016 17.332 9.96094 17.8828 10.7695 17.8828ZM22.3125 18.3516C23.3906 18.3516 24.1992 17.5312 24.1992 16.4648C24.1992 15.3867 23.3906 14.5781 22.3125 14.5781C21.2461 14.5781 20.4375 15.3867 20.4375 16.4648C20.4375 17.5312 21.2461 18.3516 22.3125 18.3516ZM13.8633 21.5156C17.8008 21.5156 23.0391 21.3164 25.2539 21.0586C26.8477 20.8828 27.7266 20.0039 27.7266 18.5039V16.4414C27.7266 14.4609 27.3281 13.3594 26.25 11.9531L25.2539 10.6758C24.832 8.56641 24.0469 6.35156 23.6484 5.48438C23.0156 4.16016 21.8086 3.375 20.25 3.16406C19.4648 3.05859 16.8984 3 13.8633 3C10.8398 3 8.27344 3.07031 7.48828 3.16406C5.92969 3.35156 4.71094 4.16016 4.08984 5.48438C3.67969 6.35156 2.90625 8.56641 2.47266 10.6758L1.48828 11.9531C0.398438 13.3594 0 14.4609 0 16.4414V18.5039C0 20.0039 0.890625 20.8828 2.47266 21.0586C4.69922 21.3164 9.92578 21.5156 13.8633 21.5156ZM13.8633 19.9805C9.87891 19.9805 4.76953 19.793 2.88281 19.5586C1.88672 19.4414 1.53516 18.9258 1.53516 18.0352V16.4414C1.53516 14.8359 1.79297 14.0859 2.70703 12.8906L3.90234 11.3203C4.21875 9.62109 4.98047 7.25391 5.48438 6.17578C5.85938 5.36719 6.59766 4.86328 7.66406 4.73438C8.41406 4.64062 10.793 4.53516 13.8633 4.53516C16.9453 4.53516 19.3594 4.64062 20.0391 4.73438C21.1406 4.875 21.8672 5.37891 22.2539 6.17578C22.7578 7.25391 23.5195 9.62109 23.8242 11.3203L25.0312 12.8906C25.9336 14.0859 26.1914 14.8359 26.1914 16.4414V18.0352C26.1914 18.9258 25.8398 19.4414 24.8438 19.5586C22.9688 19.793 17.8477 19.9805 13.8633 19.9805ZM2.15625 24.7383H3.52734C4.40625 24.7383 5.08594 24.0586 5.08594 23.1914V20.4023L0.597656 19.7578V23.1914C0.597656 24.0586 1.27734 24.7383 2.15625 24.7383ZM24.1992 24.7383H25.582C26.4609 24.7383 27.1289 24.0586 27.1289 23.1914V19.7578L22.6523 20.4023V23.1914C22.6523 24.0586 23.3203 24.7383 24.1992 24.7383Z" fill="black" fill-opacity="0.85"/>
</g>
<defs>
<clipPath id="clip0_2124_24862">
<rect width="27.7266" height="21.7852" fill="white" transform="translate(0 3)"/>
</clipPath>
</defs>
</svg>
