<svg width="28" height="28" viewBox="0 0 28 28" fill="none" xmlns="http://www.w3.org/2000/svg">
<path d="M6.67969 24.5977H20.8945C23.3555 24.5977 24.5742 23.3789 24.5742 20.9648V6.65625C24.5742 4.24219 23.3555 3.02344 20.8945 3.02344H6.67969C4.23047 3.02344 3 4.23047 3 6.65625V20.9648C3 23.3906 4.23047 24.5977 6.67969 24.5977Z" fill="black" fill-opacity="0.85"/>
<path d="M13.8164 6.26953C14.0742 6.26953 14.2734 6.38672 14.5195 6.62109L18.0234 10.1016C18.1875 10.2539 18.2695 10.4766 18.2695 10.7344C18.2695 11.2266 17.8945 11.6016 17.3906 11.6016C17.1211 11.6016 16.9102 11.4961 16.7461 11.3438L15.8438 10.4297L14.625 8.97656L14.7305 11.5313V16.0547L14.625 18.6094L15.8438 17.1562L16.7461 16.2422C16.9102 16.0781 17.1211 15.9844 17.3906 15.9844C17.8945 15.9844 18.2695 16.3594 18.2695 16.8516C18.2695 17.0977 18.1875 17.332 18.0234 17.4844L14.5195 20.9648C14.2734 21.1992 14.0742 21.3164 13.8164 21.3164C13.5469 21.3164 13.3359 21.1992 13.1016 20.9648L9.60938 17.4844C9.44531 17.332 9.35156 17.0977 9.35156 16.8516C9.35156 16.3594 9.73828 15.9844 10.2422 15.9844C10.5117 15.9844 10.7227 16.0664 10.8984 16.2422L11.7891 17.1562L13.0078 18.6211L12.9023 16.0547V11.5313L13.0078 8.96484L11.7891 10.4297L10.8984 11.3438C10.7227 11.5078 10.5117 11.6016 10.2422 11.6016C9.73828 11.6016 9.35156 11.2266 9.35156 10.7344C9.35156 10.4766 9.44531 10.2539 9.60938 10.1016L13.1016 6.62109C13.3359 6.38672 13.5469 6.26953 13.8164 6.26953Z" fill="white"/>
</svg>
