<svg width="28" height="28" viewBox="0 0 28 28" fill="none" xmlns="http://www.w3.org/2000/svg">
<path d="M6.67969 24.5977H20.8945C23.3555 24.5977 24.5742 23.3789 24.5742 20.9648V6.65625C24.5742 4.24219 23.3555 3.02344 20.8945 3.02344H6.67969C4.23047 3.02344 3 4.23047 3 6.65625V20.9648C3 23.3906 4.23047 24.5977 6.67969 24.5977ZM6.70312 22.7109C5.53125 22.7109 4.88672 22.0898 4.88672 20.8711V6.75C4.88672 5.53125 5.53125 4.91016 6.70312 4.91016H20.8711C22.0312 4.91016 22.6875 5.53125 22.6875 6.75V20.8711C22.6875 22.0898 22.0312 22.7109 20.8711 22.7109H6.70312Z" fill="black" fill-opacity="0.85"/>
<path d="M10.6172 18.6562C11.0742 18.6562 11.4727 18.2695 11.4727 17.8008V9.85547C11.4727 9.25781 11.0859 8.90625 10.4883 8.90625C9.99609 8.90625 9.59766 9.17578 9.31641 9.38672L8.02734 10.3828C7.82812 10.5469 7.66406 10.7695 7.66406 11.0742C7.66406 11.4375 7.91016 11.6953 8.26172 11.6953C8.44922 11.6953 8.56641 11.6367 8.68359 11.5547L9.76172 10.6875V17.8008C9.76172 18.2695 10.1484 18.6562 10.6172 18.6562ZM16.3359 18.7383C18.1875 18.7383 19.3711 17.5781 19.3711 15.9727C19.3711 14.6953 18.5625 13.7695 17.625 13.5586V13.5234C18.4102 13.2773 19.1133 12.5156 19.1133 11.4023C19.1133 9.89062 17.9883 8.85938 16.3359 8.85938C14.8828 8.85938 13.5703 9.75 13.5703 11.3906C13.5703 12.5859 14.3203 13.2891 15.0703 13.5234V13.5586C14.0625 13.7812 13.3008 14.707 13.3008 15.9727C13.3008 17.707 14.6133 18.7383 16.3359 18.7383ZM16.3359 12.9844C15.5859 12.9844 15.1992 12.2578 15.1992 11.5664C15.1992 10.8164 15.6094 10.1133 16.3359 10.1133C17.0977 10.1133 17.4609 10.8164 17.4609 11.5664C17.4609 12.3398 17.0742 12.9844 16.3359 12.9844ZM16.3359 17.4727C15.4805 17.4727 15.0586 16.7109 15.0586 15.8438C15.0586 15 15.4922 14.25 16.3359 14.25C17.168 14.25 17.6133 14.9531 17.6133 15.8438C17.6133 16.7109 17.1914 17.4727 16.3359 17.4727Z" fill="black" fill-opacity="0.85"/>
</svg>
