<svg width="28" height="28" viewBox="0 0 28 28" fill="none" xmlns="http://www.w3.org/2000/svg">
<path d="M5.71484 24.707H19.4258C23.3398 24.707 24.6992 22.7734 25.168 18.707C25.4727 16.1289 25.4727 13.5742 25.0625 10.1054C24.582 5.78122 22.168 3.97653 17.5508 4.46872L6.19531 5.75778C3.45312 6.06247 2 7.60935 2 10.1758V21.0273C2 23.3477 3.38281 24.707 5.71484 24.707Z" fill="black" fill-opacity="0.85"/>
<path d="M7.26172 11.9805C6.81641 11.9805 6.46484 11.6289 6.46484 11.1953C6.46484 10.75 6.81641 10.3867 7.26172 10.3867H19.9531C20.3984 10.3867 20.75 10.75 20.75 11.1953C20.75 11.6289 20.3984 11.9805 19.9531 11.9805H7.26172ZM7.26172 15.9883C6.81641 15.9883 6.46484 15.6367 6.46484 15.2031C6.46484 14.7695 6.81641 14.4062 7.26172 14.4062H19.9531C20.3984 14.4062 20.75 14.7695 20.75 15.2031C20.75 15.6367 20.3984 15.9883 19.9531 15.9883H7.26172ZM7.26172 20.0078C6.81641 20.0078 6.46484 19.6562 6.46484 19.1992C6.46484 18.7656 6.81641 18.4141 7.26172 18.4141H19.9531C20.3984 18.4141 20.75 18.7656 20.75 19.1992C20.75 19.6562 20.3984 20.0078 19.9531 20.0078H7.26172Z" fill="white"/>
</svg>
