<svg width="28" height="28" viewBox="0 0 28 28" fill="none" xmlns="http://www.w3.org/2000/svg">
<path d="M26.6992 20.8633C26.6992 20.3125 26.3359 19.9727 25.7617 19.9727H8.86328C8.60547 19.9727 8.52344 19.8906 8.52344 19.6328V2.73438C8.52344 2.14844 8.14844 1.75 7.57422 1.75C7.01172 1.75 6.63672 2.14844 6.63672 2.73438V20.8164C6.63672 21.3789 7 21.7422 7.5625 21.7422H25.7617C26.3359 21.7422 26.6992 21.4023 26.6992 20.8633ZM1 8.26562C1 8.82812 1.36328 9.15625 1.92578 9.15625H18.8359C19.0938 9.15625 19.1758 9.25 19.1758 9.49609V26.3945C19.1758 26.9805 19.5508 27.3789 20.1133 27.3789C20.6875 27.3789 21.0625 26.9805 21.0625 26.3945V8.32422C21.0625 7.76172 20.6992 7.38672 20.1367 7.38672H1.92578C1.36328 7.38672 1 7.72656 1 8.26562Z" fill="black" fill-opacity="0.85"/>
</svg>
