<svg width="28" height="28" viewBox="0 0 28 28" fill="none" xmlns="http://www.w3.org/2000/svg">
<g clip-path="url(#clip0_2124_24778)">
<path d="M9.30078 24.6719H18.8398C23.7969 24.6719 26.1406 22.3164 26.1406 17.3711V12.0039H20.2461C20.0234 12.5547 19.4961 12.8945 18.8398 12.8945H9.30078C8.65625 12.8945 8.11719 12.5547 7.90625 12.0039H2V17.3711C2 22.3164 4.34375 24.6719 9.30078 24.6719ZM14.0703 17.5938C13.4609 17.6055 12.9453 17.0898 12.9453 16.4922C12.9453 15.8711 13.4609 15.3672 14.0703 15.3672C14.6797 15.3672 15.1953 15.8711 15.1953 16.4922C15.1953 17.0547 14.6797 17.582 14.0703 17.5938ZM2 10.8086H7.88281C8.08203 10.2461 8.62109 9.90625 9.26562 9.90625H18.8281C19.4727 9.90625 20.0117 10.2461 20.2227 10.8086H26.0938V10.3984C26.0938 6.07422 23.4688 4 18.793 4H9.30078C4.63672 4 2 6.07422 2 10.3984V10.8086Z" fill="black" fill-opacity="0.85"/>
</g>
<defs>
<clipPath id="clip0_2124_24778">
<rect width="24.1406" height="20.6836" fill="white" transform="translate(2 4)"/>
</clipPath>
</defs>
</svg>
