<svg width="28" height="28" viewBox="0 0 28 28" fill="none" xmlns="http://www.w3.org/2000/svg">
<path d="M6.67969 24.5977H20.8945C23.3555 24.5977 24.5742 23.3789 24.5742 20.9648V6.65625C24.5742 4.24219 23.3555 3.02344 20.8945 3.02344H6.67969C4.23047 3.02344 3 4.23047 3 6.65625V20.9648C3 23.3906 4.23047 24.5977 6.67969 24.5977ZM6.70312 22.7109C5.53125 22.7109 4.88672 22.0898 4.88672 20.8711V6.75C4.88672 5.53125 5.53125 4.91016 6.70312 4.91016H20.8711C22.0312 4.91016 22.6875 5.53125 22.6875 6.75V20.8711C22.6875 22.0898 22.0312 22.7109 20.8711 22.7109H6.70312Z" fill="black" fill-opacity="0.85"/>
<path d="M8.66016 14.6016C8.66016 14.8945 8.90625 15.1055 9.19922 15.1055H13.1719L11.0508 20.8008C10.7695 21.5508 11.5664 21.9609 12.0586 21.3516L18.4922 13.2891C18.6094 13.1484 18.6797 12.9843 18.6797 12.832C18.6797 12.539 18.4453 12.3281 18.1406 12.3281H14.1797L16.2891 6.63277C16.582 5.88277 15.7734 5.47262 15.2812 6.07027L8.85938 14.1328C8.73047 14.2852 8.66016 14.4492 8.66016 14.6016Z" fill="black" fill-opacity="0.85"/>
</svg>
