<svg width="28" height="29" viewBox="0 0 28 29" fill="none" xmlns="http://www.w3.org/2000/svg">
<g clip-path="url(#clip0_2124_46025)">
<path d="M13.9531 25.9299C20.4922 25.9299 25.9062 20.5042 25.9062 13.9768C25.9062 7.43774 20.4805 2.02368 13.9414 2.02368C7.41406 2.02368 2 7.43774 2 13.9768C2 20.5042 7.42578 25.9299 13.9531 25.9299Z" fill="black" fill-opacity="0.85"/>
<path d="M7.05078 15.9456C7.05078 13.9534 8.15234 12.3714 9.62891 12.3714H10.5664C10.0156 13.0979 9.38281 14.2464 9.35938 15.887C9.33594 17.3753 9.83984 18.6643 11.0352 19.5315H9.86328C8.23438 19.5315 7.05078 17.9026 7.05078 15.9456ZM10.2383 15.8987C10.2617 14.3518 10.6719 13.4143 11.5039 12.3128C12.4883 10.9885 13.7891 9.44165 14.7617 7.55493C15.0078 7.06274 15.2422 6.74634 15.7109 6.74634C16.2148 6.74634 16.6133 7.10962 16.6133 7.70727C16.6133 8.84399 15.5234 10.4495 15.5234 11.3284C15.5234 11.8206 15.8984 12.1253 16.5078 12.1253H18.8047C19.4375 12.1253 19.9297 12.6409 19.9297 13.2854C19.9297 13.6253 19.8008 13.9417 19.6133 14.1292C19.4961 14.2112 19.4727 14.2698 19.5781 14.3518C19.7539 14.5159 19.8359 14.8557 19.8359 15.1487C19.8359 15.594 19.6484 15.9339 19.332 16.1214C19.2266 16.1799 19.2148 16.2737 19.2852 16.3792C19.4375 16.5549 19.5312 16.8245 19.5312 17.1175C19.5312 17.6331 19.1797 18.0198 18.793 18.1721C18.7109 18.1956 18.7109 18.2659 18.7578 18.3596C18.8281 18.4885 18.8984 18.6995 18.8984 18.9339C18.8984 19.5549 18.3945 19.8479 17.8672 19.9885C17.5156 20.0706 16.8945 20.1292 16.0625 20.1292L15.1602 20.1175C12.125 20.094 10.2031 18.2893 10.2383 15.8987Z" fill="white"/>
</g>
<defs>
<clipPath id="clip0_2124_46025">
<rect width="23.9062" height="23.918" fill="white" transform="translate(2 2.02368)"/>
</clipPath>
</defs>
</svg>
