<svg width="28" height="28" viewBox="0 0 28 28" fill="none" xmlns="http://www.w3.org/2000/svg">
<g clip-path="url(#clip0_2124_89145)">
<path d="M6.67969 24.5977H20.8945C23.3555 24.5977 24.5742 23.3789 24.5742 20.9648V6.65625C24.5742 4.24219 23.3555 3.02344 20.8945 3.02344H6.67969C4.23047 3.02344 3 4.23047 3 6.65625V20.9648C3 23.3906 4.23047 24.5977 6.67969 24.5977ZM6.70312 22.7109C5.53125 22.7109 4.88672 22.0898 4.88672 20.8711V6.75C4.88672 5.53125 5.53125 4.91016 6.70312 4.91016H20.8711C22.0312 4.91016 22.6875 5.53125 22.6875 6.75V20.8711C22.6875 22.0898 22.0312 22.7109 20.8711 22.7109H6.70312Z" fill="black" fill-opacity="0.85"/>
<path d="M11.1211 9.41016C11.1211 10.5938 11.9063 11.6016 12.9844 11.9414V17.8359C12.9844 19.5469 13.2656 21.0703 13.793 21.0703C14.332 21.0703 14.5898 19.5703 14.5898 17.8359V11.9414C15.6914 11.6133 16.4648 10.6055 16.4648 9.41016C16.4648 7.93359 15.2695 6.73828 13.793 6.73828C12.3281 6.73828 11.1211 7.93359 11.1211 9.41016ZM12.2578 8.71875C12.2461 8.26172 12.6563 7.86328 13.1016 7.86328C13.5703 7.86328 13.9688 8.26172 13.957 8.71875C13.957 9.17578 13.5703 9.57422 13.1016 9.57422C12.6563 9.57422 12.2578 9.17578 12.2578 8.71875Z" fill="black" fill-opacity="0.85"/>
</g>
<defs>
<clipPath id="clip0_2124_89145">
<rect width="21.5742" height="21.5977" fill="white" transform="translate(3 3)"/>
</clipPath>
</defs>
</svg>
