<svg width="28" height="28" viewBox="0 0 28 28" fill="none" xmlns="http://www.w3.org/2000/svg">
<path d="M22.3086 17.9609L22.2969 6.17188C22.2969 5.50391 21.8633 5.03516 21.1602 5.03516H9.37109C8.71484 5.03516 8.26953 5.53906 8.26953 6.10156C8.26953 6.66406 8.77344 7.14453 9.32422 7.14453H13.4023L19.1211 6.95703L16.9414 8.86719L5.32812 20.5039C5.11719 20.7148 5 20.9844 5 21.2422C5 21.8047 5.50391 22.332 6.08984 22.332C6.35938 22.332 6.61719 22.2383 6.82812 22.0156L18.4648 10.3906L20.3984 8.19922L20.1875 13.6719V18.0078C20.1875 18.5586 20.668 19.0742 21.2422 19.0742C21.8047 19.0742 22.3086 18.5938 22.3086 17.9609Z" fill="black" fill-opacity="0.85"/>
</svg>
