<svg width="33" height="28" viewBox="0 0 33 28" fill="none" xmlns="http://www.w3.org/2000/svg">
<g clip-path="url(#clip0_2124_24780)">
<path d="M9.94922 3.01172C4.48828 3.01172 0 9.26953 0 16.957C0 20.5781 0.972656 24.5742 2.14453 24.5742C3.04688 24.5742 3.78516 23.3555 3.87891 22.1484C2.08594 21.6211 0.761719 19.957 0.761719 18C0.761719 16.8281 1.21875 15.7852 2.05078 14.9648C2.44922 9.65625 5.88281 5.00391 9.83203 5.00391C12.1992 5.00391 13.2773 6.77344 13.2773 10.043L3.84375 14.9648C2.47266 15.6797 1.83984 16.8047 1.83984 18C1.83984 19.7695 3.29297 21.2227 5.0625 21.2227C5.91797 21.2227 6.49219 21.0117 7.72266 20.3438L12.457 17.7422C14.5312 16.6055 15.2695 15.2227 15.2695 12.293V9.70312C15.2695 5.58984 13.4648 3.01172 9.94922 3.01172ZM4.98047 20.0273C3.85547 20.0273 2.94141 19.1133 2.94141 18C2.94141 16.8867 3.85547 15.9727 4.98047 15.9727C6.09375 15.9727 7.00781 16.8867 7.00781 18C7.00781 19.1133 6.09375 20.0273 4.98047 20.0273ZM4.98047 19.2422C5.66016 19.2422 6.21094 18.6797 6.21094 18C6.21094 17.3203 5.66016 16.7578 4.98047 16.7578C4.28906 16.7578 3.73828 17.3203 3.73828 18C3.73828 18.6797 4.28906 19.2422 4.98047 19.2422ZM22.1016 3.01172C18.5859 3.01172 16.7812 5.58984 16.7812 9.70312V12.293C16.7812 15.2227 17.5195 16.6055 19.582 17.7422L24.3281 20.3438C25.5586 21.0117 26.1328 21.2227 26.9883 21.2227C28.7578 21.2227 30.2109 19.7695 30.2109 18C30.2109 16.8047 29.5781 15.6797 28.1953 14.9648L18.7734 10.043C18.7734 6.77344 19.8516 5.00391 22.2188 5.00391C26.168 5.00391 29.6016 9.65625 30 14.9648C30.832 15.7852 31.2891 16.8281 31.2891 18C31.2891 19.957 29.9531 21.6211 28.1602 22.1484C28.2539 23.3555 29.0039 24.5742 29.9062 24.5742C31.0781 24.5742 32.0508 20.5781 32.0508 16.957C32.0508 9.26953 27.5625 3.01172 22.1016 3.01172ZM27.0703 20.0273C25.957 20.0273 25.043 19.1133 25.043 18C25.043 16.8867 25.957 15.9727 27.0703 15.9727C28.1953 15.9727 29.1094 16.8867 29.1094 18C29.1094 19.1133 28.1953 20.0273 27.0703 20.0273ZM27.0703 19.2422C27.7617 19.2422 28.3125 18.6797 28.3125 18C28.3125 17.3203 27.7617 16.7578 27.0703 16.7578C26.3906 16.7578 25.8281 17.3203 25.8281 18C25.8281 18.6797 26.3906 19.2422 27.0703 19.2422Z" fill="black" fill-opacity="0.85"/>
</g>
<defs>
<clipPath id="clip0_2124_24780">
<rect width="32.0508" height="21.5742" fill="white" transform="translate(0 3)"/>
</clipPath>
</defs>
</svg>
