<svg width="28" height="28" viewBox="0 0 28 28" fill="none" xmlns="http://www.w3.org/2000/svg">
<path d="M13.9531 25.9062C20.4922 25.9062 25.9062 20.4805 25.9062 13.9531C25.9062 7.41406 20.4805 2 13.9414 2C7.41406 2 2 7.41406 2 13.9531C2 20.4805 7.42578 25.9062 13.9531 25.9062Z" fill="black" fill-opacity="0.85"/>
<path d="M8.62174 13.8008C8.14127 13.8008 7.75456 13.4141 7.75456 12.9336C7.75456 12.4648 8.14127 12.0898 8.62174 12.0898H9.20768L11.0592 12.207L7.80143 9.08986C7.44987 8.72658 7.42643 8.15236 7.78971 7.8008C8.14127 7.43752 8.71549 7.43752 9.06706 7.81252L12.2195 11.082L12.1023 9.1719V8.58596C12.1023 8.10549 12.4773 7.73049 12.946 7.73049C13.4265 7.73049 13.8132 8.10549 13.8132 8.58596V12.793C13.8132 13.5195 13.4382 13.8008 12.8054 13.8008H8.62174ZM14.9616 20.1641C14.4812 20.1641 14.0945 19.7891 14.0945 19.3086V15.0898C14.0945 14.375 14.4695 14.0938 15.1023 14.0938H19.2859C19.7663 14.0938 20.153 14.4688 20.153 14.9609C20.153 15.4297 19.7663 15.8047 19.2859 15.8047H18.6999L16.8484 15.6875L20.1061 18.8047C20.4576 19.1562 20.4812 19.7422 20.1179 20.0938C19.7663 20.457 19.192 20.457 18.8405 20.082L15.6882 16.8125L15.8054 18.7227V19.3086C15.8054 19.7891 15.4304 20.1641 14.9616 20.1641Z" fill="white"/>
</svg>
