<svg width="28" height="28" viewBox="0 0 28 28" fill="none" xmlns="http://www.w3.org/2000/svg">
<path d="M4.79297 20.3945C4.10156 20.3945 3.64453 19.9258 3.64453 19.2695V17.1016C3.64453 16.4336 4.10156 15.9766 4.79297 15.9766H7.66406C8.35547 15.9766 8.8125 16.4336 8.8125 17.1016V19.2695C8.8125 19.9258 8.35547 20.3945 7.66406 20.3945H4.79297ZM0 11.3945V8.73438H27.5391V11.3945H0ZM3.67969 24.0273H23.8594C26.3203 24.0273 27.5391 22.8203 27.5391 20.4062V7.64453C27.5391 5.23047 26.3203 4.01172 23.8594 4.01172H3.67969C1.23047 4.01172 0 5.23047 0 7.64453V20.4062C0 22.8203 1.23047 24.0273 3.67969 24.0273Z" fill="black" fill-opacity="0.85"/>
</svg>
