<svg width="28" height="28" viewBox="0 0 28 28" fill="none" xmlns="http://www.w3.org/2000/svg">
<path d="M13.9531 25.9062C20.4922 25.9062 25.9062 20.4805 25.9062 13.9531C25.9062 7.41406 20.4805 2 13.9414 2C7.41406 2 2 7.41406 2 13.9531C2 20.4805 7.42578 25.9062 13.9531 25.9062Z" fill="black" fill-opacity="0.85"/>
<path d="M10.168 19.0859C7.76562 19.0859 7.03906 16.3906 7.03906 13.9531C7.03906 11.5156 7.76562 8.82031 10.168 8.82031C12.582 8.82031 13.3086 11.5156 13.3086 13.9531C13.3086 16.3906 12.582 19.0859 10.168 19.0859ZM10.168 17.6445C11.1523 17.6445 11.5273 16.0508 11.5273 13.9531C11.5273 11.8438 11.1523 10.2617 10.168 10.2617C9.18359 10.2617 8.80859 11.8438 8.80859 13.9531C8.80859 16.0508 9.18359 17.6445 10.168 17.6445ZM17.6445 19.0859C16.5547 19.0859 15.4883 18.4531 15.0547 17.4688C14.9492 17.2344 14.8789 16.9648 14.8789 16.6836C14.8789 16.2383 15.1719 15.957 15.6055 15.957C15.9336 15.957 16.2031 16.1445 16.3438 16.5312C16.5664 17.1875 16.9531 17.668 17.6211 17.668C18.5117 17.668 18.8633 16.6484 18.8633 15.6406C18.8633 14.75 18.5234 13.6836 17.6445 13.6836C17.1523 13.6836 16.8477 13.9648 16.5781 14.3633C16.3203 14.6914 16.1328 14.8203 15.8047 14.8203C15.2422 14.8203 15.0078 14.4102 15.0078 13.9531C15.0078 13.7891 15.0078 13.6016 15.0195 13.4141L15.2305 10.1094C15.2656 9.48828 15.5586 9.06641 16.1797 9.06641H19.5078C19.9062 9.06641 20.1875 9.38281 20.1875 9.78125C20.1875 10.2148 19.918 10.5078 19.5078 10.5078H16.6719L16.4844 13.4375H16.5312C16.8359 12.7344 17.4922 12.4062 18.207 12.4062C19.7656 12.4062 20.5625 13.9297 20.5625 15.5938C20.5625 17.5039 19.5312 19.0859 17.6445 19.0859Z" fill="white"/>
</svg>
