<svg width="28" height="33" viewBox="0 0 28 33" fill="none" xmlns="http://www.w3.org/2000/svg">
<g clip-path="url(#clip0_2124_50210)">
<path d="M9.29297 20.4961C12.8555 20.4961 15.5859 16.7227 15.5859 12.0938C15.5859 8.40234 13.0078 5.54297 9.29297 5.54297C5.57812 5.54297 3 8.40234 3 12.0938C3 16.7227 5.74219 20.4961 9.29297 20.4961ZM4.78125 12.0938C4.78125 9.44531 6.62109 7.3125 9.29297 7.3125C11.9766 7.3125 13.8047 9.44531 13.8047 12.0938C13.8047 15.75 11.8594 18.7148 9.29297 18.7148C6.72656 18.7148 4.78125 15.75 4.78125 12.0938ZM7.57031 19.6641L7.07812 21.5859C6.94922 22.0078 7.19531 22.4531 7.73438 22.4531H10.3945C10.9453 22.4531 11.168 22.0078 11.0508 21.5859L10.5469 19.6641H7.57031ZM8.95312 32.0508C9.375 32.0508 9.71484 31.7109 9.71484 31.3125C9.71484 29.0742 11.6836 28.7695 11.6836 26.543C11.6836 24.1875 9.77344 24.0703 9.79688 22.0078H8.32031C8.29688 24.8203 10.2188 24.9609 10.2188 26.543C10.2188 28.1016 8.23828 28.125 8.23828 31.3125C8.23828 31.7109 8.54297 32.0508 8.95312 32.0508Z" fill="black" fill-opacity="0.85"/>
<path d="M17.9648 17.9531C22.2188 17.9531 25.5469 13.4297 25.5469 7.78125C25.5469 3.33984 22.4414 0 17.9648 0C13.4883 0 10.4062 3.33984 10.4062 7.78125C10.4062 13.4297 13.7227 17.9531 17.9648 17.9531Z" fill="white"/>
<path d="M17.9648 17.9531C22.2188 17.9531 25.5469 13.4297 25.5469 7.78125C25.5469 3.33984 22.4414 0 17.9648 0C13.4883 0 10.4062 3.33984 10.4062 7.78125C10.4062 13.4297 13.7227 17.9531 17.9648 17.9531ZM17.9648 16.1953C14.6953 16.1953 12.1758 12.375 12.1758 7.78125C12.1758 4.42969 14.5664 1.76953 17.9648 1.76953C21.3633 1.76953 23.7773 4.42969 23.7773 7.78125C23.7773 12.375 21.2227 16.1953 17.9648 16.1953ZM16.3242 17.1445L15.7734 19.2539C15.6328 19.7227 15.9023 20.2266 16.5 20.2266H19.4414C20.0391 20.2266 20.2969 19.7227 20.168 19.2539L19.6055 17.1445H16.3242ZM17.8242 31.8867C18.2812 31.8867 18.668 31.5 18.668 31.043C18.668 28.4766 21 27.8789 21 25.2773C21 22.6055 18.7383 22.1016 18.7617 19.7695L17.0977 19.7812C17.0859 22.957 19.3477 23.4492 19.3477 25.2773C19.3477 27.1406 17.0039 27.4219 17.0039 31.043C17.0039 31.5 17.3672 31.8867 17.8242 31.8867Z" fill="black" fill-opacity="0.85"/>
</g>
<defs>
<clipPath id="clip0_2124_50210">
<rect width="22.5469" height="32.0508" fill="white" transform="translate(3)"/>
</clipPath>
</defs>
</svg>
