<svg width="28" height="28" viewBox="0 0 28 28" fill="none" xmlns="http://www.w3.org/2000/svg">
<path d="M13.9531 25.9062C20.4922 25.9062 25.9062 20.4805 25.9062 13.9531C25.9062 7.41406 20.4805 2 13.9414 2C7.41406 2 2 7.41406 2 13.9531C2 20.4805 7.42578 25.9062 13.9531 25.9062Z" fill="black" fill-opacity="0.85"/>
<path d="M10.168 19.0508C8.86719 19.0508 7.625 18.4297 7.28516 17.3047C7.22656 17.1055 7.19141 16.8945 7.19141 16.6719C7.19141 16.2031 7.50781 15.9102 7.98828 15.9102C8.375 15.9102 8.63281 16.1094 8.75 16.5078C8.89062 17.0586 9.28906 17.6445 10.168 17.6445C11.0586 17.6445 11.5039 16.9297 11.5039 16.0977C11.5039 15.0547 10.9414 14.4922 9.91016 14.4922H9.61719C9.21875 14.4922 8.94922 14.2578 8.94922 13.8594C8.94922 13.4609 9.20703 13.2031 9.61719 13.2031H9.89844C10.8125 13.2031 11.293 12.5586 11.293 11.6797C11.293 10.8828 10.918 10.2734 10.1211 10.2734C9.42969 10.2734 9.06641 10.7188 8.86719 11.4336C8.75 11.8555 8.50391 12.0078 8.09375 12.0078C7.61328 12.0078 7.35547 11.6914 7.35547 11.293C7.35547 11.082 7.37891 10.8711 7.4375 10.6367C7.78906 9.57031 8.86719 8.86719 10.1211 8.86719C11.6914 8.86719 12.9453 9.81641 12.9453 11.4922C12.9453 12.5 12.4062 13.4844 11.3164 13.7773V13.8125C12.3359 13.918 13.2266 14.6562 13.2266 16.1562C13.2266 17.9609 11.9023 19.0508 10.168 19.0508ZM16.8711 15.4648C15.2656 15.4648 14.4805 13.918 14.4805 12.2891C14.4805 10.3906 15.5352 8.84375 17.375 8.84375C19.8359 8.84375 20.5625 11.5742 20.5625 13.8594C20.5625 16.332 19.8477 19.0742 17.3633 19.0742C16.1445 19.0742 15.1016 18.4414 14.8438 17.3867C14.7969 17.2461 14.7617 17.0938 14.7617 16.9531C14.7617 16.5547 14.9844 16.2148 15.5 16.2148C15.8633 16.2148 16.0977 16.3672 16.2734 16.7656C16.4844 17.2812 16.8477 17.6562 17.3867 17.6562C18.7461 17.6562 18.9102 15.2422 18.9102 13.9062C18.9102 13.8711 18.9102 13.8242 18.9102 13.7773H18.8633C18.582 14.8086 17.8438 15.4648 16.8711 15.4648ZM17.3984 14.1289C18.2656 14.1289 18.6758 13.1445 18.6758 12.207C18.6758 11.3047 18.3125 10.2617 17.3984 10.2617C16.5664 10.2617 16.1562 11.3047 16.1562 12.207C16.1562 13.0977 16.5078 14.1289 17.3984 14.1289Z" fill="white"/>
</svg>
