<svg width="28" height="28" viewBox="0 0 28 28" fill="none" xmlns="http://www.w3.org/2000/svg">
<path d="M13.9531 25.9062C20.4922 25.9062 25.9062 20.4805 25.9062 13.9531C25.9062 7.41406 20.4805 2 13.9414 2C7.41406 2 2 7.41406 2 13.9531C2 20.4805 7.42578 25.9062 13.9531 25.9062Z" fill="black" fill-opacity="0.85"/>
<path d="M11.4336 18.9922C11.0586 18.9922 10.6016 18.7812 10.6016 18.1367V16.9297H7.89453C7.29688 16.9297 6.89844 16.5312 6.89844 15.9453C6.89844 15.5703 6.96875 15.2539 7.17969 14.7852L9.32422 10.1094C9.66406 9.34766 10.0625 8.91406 10.9297 8.91406C11.7148 8.91406 12.2656 9.39453 12.2656 10.2266V15.5234H12.6992C13.1797 15.5234 13.3906 15.8281 13.3906 16.2148C13.3906 16.625 13.168 16.9297 12.6992 16.9297H12.2656V18.1367C12.2656 18.7109 11.9023 18.9922 11.4336 18.9922ZM10.6367 15.5586V10.4375H10.5898L8.39844 15.4766V15.5586H10.6367ZM15.3945 18.8398C14.832 18.8398 14.5742 18.5469 14.5742 18.1367C14.5742 17.7617 14.7969 17.457 15.0312 17.1641L17.1172 14.4922C17.75 13.6719 18.4297 12.6875 18.4297 11.7148C18.4297 10.8594 18.0195 10.2266 17.3047 10.2266C16.6133 10.2266 16.3203 10.7305 16.0859 11.5391C15.9688 11.9375 15.7227 12.125 15.3242 12.125C14.8438 12.125 14.5977 11.8086 14.5977 11.3516C14.5977 10.0977 15.7695 8.82031 17.3164 8.82031C18.9805 8.82031 20.0938 10.0039 20.0938 11.6328C20.0938 12.6992 19.6953 13.5898 18.4766 15.0898L16.7305 17.3164V17.4219H19.5898C20 17.4219 20.2812 17.668 20.2812 18.1367C20.2812 18.5586 20.0117 18.8398 19.5898 18.8398H15.3945Z" fill="white"/>
</svg>
