<svg width="28" height="28" viewBox="0 0 28 28" fill="none" xmlns="http://www.w3.org/2000/svg">
<path d="M6.67969 24.5977H20.8945C23.3555 24.5977 24.5742 23.3789 24.5742 20.9648V6.65625C24.5742 4.24219 23.3555 3.02344 20.8945 3.02344H6.67969C4.23047 3.02344 3 4.23047 3 6.65625V20.9648C3 23.3906 4.23047 24.5977 6.67969 24.5977ZM6.70312 22.7109C5.53125 22.7109 4.88672 22.0898 4.88672 20.8711V6.75C4.88672 5.53125 5.53125 4.91016 6.70312 4.91016H20.8711C22.0312 4.91016 22.6875 5.53125 22.6875 6.75V20.8711C22.6875 22.0898 22.0312 22.7109 20.8711 22.7109H6.70312Z" fill="black" fill-opacity="0.85"/>
<path d="M10.1602 18.7266C11.8477 18.7266 13.1367 17.6719 13.1367 15.9141C13.1367 14.4609 12.2695 13.7461 11.2734 13.6406V13.5938C12.3398 13.3125 12.8555 12.375 12.8555 11.3906C12.8555 9.77344 11.6484 8.84766 10.1133 8.84766C8.90625 8.84766 7.86328 9.52734 7.52344 10.5703C7.45312 10.793 7.42969 11.0039 7.42969 11.2031C7.42969 11.5781 7.6875 11.8945 8.15625 11.8945C8.55469 11.8945 8.78906 11.7305 8.89453 11.332C9.08203 10.6406 9.45703 10.1953 10.1133 10.1953C10.8867 10.1953 11.2617 10.8047 11.2617 11.5781C11.2617 12.4336 10.7813 13.0547 9.90234 13.0547H9.62109C9.22266 13.0547 8.97656 13.3008 8.97656 13.6758C8.97656 14.0625 9.23438 14.2969 9.62109 14.2969H9.91406C10.9102 14.2969 11.4609 14.8359 11.4609 15.8672C11.4609 16.6758 11.0391 17.3555 10.1602 17.3555C9.31641 17.3555 8.92969 16.7812 8.78906 16.2539C8.67188 15.8789 8.42578 15.6797 8.05078 15.6797C7.58203 15.6797 7.27734 15.9492 7.27734 16.418C7.27734 16.6289 7.3125 16.8398 7.37109 17.0273C7.71094 18.1172 8.90625 18.7266 10.1602 18.7266ZM17.4023 18.7617C19.7344 18.7617 20.4258 16.1367 20.4258 13.7812C20.4258 11.4258 19.7344 8.80078 17.4023 8.80078C15.0586 8.80078 14.3672 11.4258 14.3672 13.7812C14.3672 16.1367 15.0586 18.7617 17.4023 18.7617ZM17.4023 17.3672C16.4414 17.3672 16.0781 15.8086 16.0781 13.7812C16.0781 11.7422 16.4414 10.1836 17.4023 10.1836C18.3633 10.1836 18.7148 11.7422 18.7148 13.7812C18.7148 15.8086 18.3633 17.3672 17.4023 17.3672Z" fill="black" fill-opacity="0.85"/>
</svg>
