<svg width="28" height="28" viewBox="0 0 28 28" fill="none" xmlns="http://www.w3.org/2000/svg">
<path d="M13.9531 25.9062C20.4922 25.9062 25.9062 20.4805 25.9062 13.9531C25.9062 7.41406 20.4805 2 13.9414 2C7.41406 2 2 7.41406 2 13.9531C2 20.4805 7.42578 25.9062 13.9531 25.9062ZM13.9531 23.9141C8.42188 23.9141 4.00391 19.4844 4.00391 13.9531C4.00391 8.42188 8.41016 3.99219 13.9414 3.99219C19.4727 3.99219 23.9141 8.42188 23.9141 13.9531C23.9141 19.4844 19.4844 23.9141 13.9531 23.9141Z" fill="black" fill-opacity="0.85"/>
<path d="M10.2031 18.9336C12.5352 18.9336 13.2266 16.3086 13.2266 13.9531C13.2266 11.5977 12.5352 8.97266 10.2031 8.97266C7.85938 8.97266 7.16797 11.5977 7.16797 13.9531C7.16797 16.3086 7.85938 18.9336 10.2031 18.9336ZM10.2031 17.5391C9.24219 17.5391 8.87891 15.9805 8.87891 13.9531C8.87891 11.9141 9.24219 10.3555 10.2031 10.3555C11.1523 10.3555 11.5156 11.9141 11.5156 13.9531C11.5156 15.9805 11.1523 17.5391 10.2031 17.5391ZM18.8984 18.8398C19.332 18.8398 19.6953 18.5703 19.6953 18.0078V16.8359H20.1172C20.5625 16.8359 20.7852 16.543 20.7852 16.1445C20.7852 15.7695 20.5859 15.4766 20.1172 15.4766H19.6953V10.332C19.6953 9.52344 19.168 9.06641 18.4062 9.06641C17.5742 9.06641 17.1875 9.48828 16.8594 10.2148L14.7617 14.7617C14.5742 15.2188 14.5039 15.5234 14.5039 15.8867C14.5039 16.4492 14.8906 16.8359 15.4648 16.8359H18.0898V18.0078C18.0898 18.6289 18.5234 18.8398 18.8984 18.8398ZM18.125 15.5117H15.9453V15.4297L18.0781 10.543H18.125V15.5117Z" fill="black" fill-opacity="0.85"/>
</svg>
