<svg width="28" height="28" viewBox="0 0 28 28" fill="none" xmlns="http://www.w3.org/2000/svg">
<path d="M13.9531 25.9062C20.4922 25.9062 25.9062 20.4805 25.9062 13.9531C25.9062 7.41406 20.4805 2 13.9414 2C7.41406 2 2 7.41406 2 13.9531C2 20.4805 7.42578 25.9062 13.9531 25.9062Z" fill="black" fill-opacity="0.85"/>
<path d="M13.9531 19.707C11.3984 19.707 9.6875 17.3984 9.6875 13.9531C9.6875 10.5078 11.3984 8.19922 13.9531 8.19922C16.5195 8.19922 18.2305 10.5078 18.2305 13.9531C18.2305 17.3984 16.5195 19.707 13.9531 19.707ZM13.9531 18.1484C15.3945 18.1484 16.3672 16.4727 16.3672 13.9531C16.3672 11.4336 15.3945 9.75781 13.9531 9.75781C12.5117 9.75781 11.5391 11.4336 11.5391 13.9531C11.5391 16.4727 12.5117 18.1484 13.9531 18.1484Z" fill="white"/>
</svg>
