<svg width="37" height="28" viewBox="0 0 37 28" fill="none" xmlns="http://www.w3.org/2000/svg">
<g clip-path="url(#clip0_2124_24796)">
<path d="M13.7109 17.8633C15.1172 17.8633 16.6406 17.0195 16.9805 15.2266L17.543 12.1328C18.1406 8.92188 15.7148 6.51953 11.7891 5.17188C9.48047 4.36328 7.20703 4 4.92188 4C4.23047 4 3.99609 4.24609 3.99609 4.70312C3.99609 5.80469 4.57031 6.63672 5.68359 6.80078C7.5 7.07031 8.87109 7.44531 10.3242 8.125C10.9102 8.39453 11.1211 8.79297 11.0273 9.37891L10.3242 13.6094C9.92578 16 11.543 17.8633 13.7109 17.8633ZM13.7109 16.2109C12.7031 16.2109 11.918 15.4258 11.918 14.4297C11.918 13.4219 12.7031 12.625 13.7109 12.625C14.707 12.625 15.5039 13.4219 15.5039 14.4297C15.5039 15.4375 14.707 16.2109 13.7109 16.2109ZM13.7109 15.4492C14.2969 15.4492 14.7422 15.0039 14.7422 14.4297C14.7422 13.8438 14.2969 13.3867 13.7109 13.3867C13.125 13.3867 12.6797 13.8438 12.6797 14.4297C12.6797 15.0039 13.125 15.4492 13.7109 15.4492ZM13.7109 18.8945C10.8281 18.8945 8.80078 16.3984 9.30469 13.4336L9.72656 10.9023C7.42969 11.4883 5.76562 12.4727 5.05078 13.9609C5.67188 16.6914 6.65625 19.2109 8.03906 21.6367C8.71875 21.9766 9.43359 22.0938 10.3945 22.0938C14.0625 22.0938 17.2969 20.3125 17.5195 16.7383C16.7695 18.0742 15.3516 18.8945 13.7109 18.8945ZM23.2617 17.8633C25.4297 17.8633 27.0352 16 26.6484 13.6094L25.9453 9.37891C25.8398 8.79297 26.0625 8.39453 26.6367 8.125C28.1016 7.44531 29.4727 7.07031 31.2891 6.80078C32.4023 6.63672 32.9648 5.80469 32.9648 4.70312C32.9648 4.24609 32.7422 4 32.0508 4C29.7656 4 27.4922 4.36328 25.1719 5.17188C21.2578 6.51953 18.832 8.92188 19.4297 12.1328L19.9922 15.2266C20.3203 17.0195 21.8555 17.8633 23.2617 17.8633ZM23.2617 16.2109C22.2539 16.2109 21.4688 15.4375 21.4688 14.4297C21.4688 13.4219 22.2539 12.625 23.2617 12.625C24.2578 12.625 25.0547 13.4219 25.0547 14.4297C25.0547 15.4258 24.2578 16.2109 23.2617 16.2109ZM23.2617 15.4492C23.8477 15.4492 24.293 15.0039 24.293 14.4297C24.293 13.8438 23.8477 13.3867 23.2617 13.3867C22.6758 13.3867 22.2305 13.8438 22.2305 14.4297C22.2305 15.0039 22.6758 15.4492 23.2617 15.4492ZM23.2617 18.8945C21.6094 18.8945 20.1914 18.0742 19.4531 16.7383C19.6758 20.3125 22.9102 22.0938 26.5781 22.0938C27.5391 22.0938 28.2539 21.9766 28.9219 21.6367C30.3164 19.2109 31.2891 16.6914 31.9102 13.9609C31.207 12.4727 29.543 11.4883 27.2461 10.9023L27.668 13.4336C28.1719 16.3984 26.1328 18.8945 23.2617 18.8945Z" fill="black" fill-opacity="0.85"/>
<path d="M0 18.4609C0 21.1914 1.81641 23.0312 4.54688 23.0312C5.63672 23.0312 6.60938 22.668 7.20703 22.2461C5.71875 19.7031 4.66406 16.9844 4.00781 14.0781C1.98047 14.2773 0 15.9414 0 18.4609ZM36.9727 18.4609C36.9727 15.9414 34.9922 14.2773 32.9648 14.0781C32.2969 16.9844 31.2539 19.7031 29.7539 22.2461C30.3516 22.668 31.3359 23.0312 32.4258 23.0312C35.1562 23.0312 36.9727 21.1914 36.9727 18.4609Z" fill="black" fill-opacity="0.85"/>
</g>
<defs>
<clipPath id="clip0_2124_24796">
<rect width="36.9727" height="19.043" fill="white" transform="translate(0 4)"/>
</clipPath>
</defs>
</svg>
