<svg width="30" height="28" viewBox="0 0 30 28" fill="none" xmlns="http://www.w3.org/2000/svg">
<path d="M19.7812 7.12109C21.1992 7.12109 22.3477 5.97266 22.3477 4.55469C22.3477 3.13672 21.1992 2 19.7812 2C18.3633 2 17.2266 3.13672 17.2266 4.55469C17.2266 5.97266 18.3633 7.12109 19.7812 7.12109ZM11.5547 24.957C12.082 25.1445 12.7383 25.0156 13.0781 24.3242L16.0781 18.3242C16.3125 17.8672 16.2539 17.3281 15.8555 16.9414L12.2344 13.3086L16.8164 11.0234C17.0273 10.9062 17.2734 10.9648 17.4375 11.1289L20.168 13.8359C20.3789 14.0469 20.6836 14.1875 21 14.1875H26.4141C27.0703 14.1875 27.6094 13.6602 27.6094 12.9805C27.6094 12.3242 27.0703 11.7852 26.4141 11.7852H21.4922L16.4414 6.72266C15.8438 6.125 15.0234 5.78516 14.168 5.78516H4.19531C3.53906 5.78516 3 6.32422 3 6.98047C3 7.64844 3.53906 8.1875 4.19531 8.1875H11.7188C11.8477 8.1875 11.8945 8.38672 11.7773 8.44531L9.53906 9.55859C8.35547 10.1445 7.75781 11.2578 7.75781 12.3828C7.75781 13.3555 8.19141 14.3164 9.08203 14.9609L13.4766 18.1602L10.9336 23.2578C10.5352 24.0664 10.957 24.7227 11.5547 24.957ZM1.19531 20.1875H7.19531C7.66406 20.1875 8.07422 19.918 8.28516 19.5312L9.64453 16.7773L8.42578 15.875C7.99219 15.5586 7.61719 15.1719 7.33594 14.7734L6.35156 17.7852H1.19531C0.539062 17.7852 0 18.3242 0 18.9805C0 19.6367 0.539062 20.1875 1.19531 20.1875ZM26.9766 2.59766C25.3828 2.59766 24.2344 3.73438 24.2344 5.32812C24.2344 7.61328 26.2852 10.2266 26.4961 10.4492H27.4453C27.668 10.2266 29.7188 7.61328 29.7188 5.32812C29.7188 3.73438 28.5703 2.59766 26.9766 2.59766ZM26.9766 3.89844C27.8203 3.89844 28.418 4.50781 28.418 5.32812C28.418 6.46484 27.5508 7.98828 26.9766 8.91406C26.4023 7.98828 25.5352 6.46484 25.5352 5.32812C25.5352 4.50781 26.1328 3.89844 26.9766 3.89844ZM26.3203 12.9805H27.6094V9.98047H26.3203V12.9805Z" fill="black" fill-opacity="0.85"/>
</svg>
