<svg width="29" height="29" viewBox="0 0 29 29" fill="none" xmlns="http://www.w3.org/2000/svg">
<g clip-path="url(#clip0_2124_46050)">
<path d="M12.2773 2.125C7.32032 2.125 4.00391 5.45312 4.00391 10.9375V13.4922C4.00391 16.1992 5.28125 17.7812 7.46094 17.8047C7.73047 18.6601 8.4336 19.1875 9.41797 19.1875C9.76953 19.1875 10.1094 19.1289 10.4375 19.0117C10.7422 19.9609 11.5156 20.5351 12.5352 20.5351C12.8047 20.5351 13.0859 20.5 13.3672 20.4179V24.3203C13.3672 25.7968 14.3516 26.7812 15.7344 26.7812C17.1289 26.7812 18.1133 25.7968 18.1133 24.3203V14.5351C18.1133 14.4765 18.1484 14.4297 18.207 14.4297C18.2539 14.4297 18.2891 14.4648 18.3008 14.5117L19.0859 16.3867C19.4844 17.3007 20.1641 17.7929 20.9961 17.7929C22.1328 17.7929 23.1406 17.0664 23.1406 15.7773C23.1406 15.4257 23.0703 14.957 22.9297 14.5468L20.8672 8.74609C19.3086 4.35156 16.4141 2.125 12.2773 2.125ZM12.2187 3.74219C15.5 3.74219 18.0078 5.25391 19.4375 9.25L21.5117 15.039C21.5703 15.2148 21.6055 15.3672 21.6055 15.5664C21.6055 15.9765 21.3008 16.3281 20.832 16.3281C20.4336 16.3281 20.1992 16.082 20.0234 15.6836L18.4297 12.1211C18.1719 11.5352 17.8086 11.3477 17.3984 11.3477C16.9062 11.3477 16.5547 11.7344 16.5547 12.2734V24.4257C16.5547 24.9179 16.2148 25.2695 15.7344 25.2695C15.2539 25.2695 14.9258 24.9179 14.9258 24.4257V15.7539C14.9258 15.3437 14.5742 15.0273 14.1641 15.0273C13.7656 15.0273 13.4375 15.3437 13.4375 15.7539V18.8711C13.2383 18.9648 12.9687 19.0234 12.7344 19.0234C12.1484 19.0234 11.7969 18.6484 11.7969 18.0273V15.3086C11.7969 14.875 11.4453 14.582 11.0469 14.582C10.6602 14.582 10.3086 14.875 10.3086 15.3086V17.5234C10.1094 17.6172 9.83985 17.6757 9.61719 17.6757C9.01953 17.6757 8.67969 17.3007 8.67969 16.6797V14.8515C8.67969 14.4297 8.31641 14.1367 7.91797 14.1367C7.53125 14.1367 7.19141 14.4297 7.19141 14.8515V16.1992C6.14844 16.1992 5.55079 15.1328 5.55079 13.2578V11.125C5.55079 6.41406 8.08203 3.74219 12.2187 3.74219Z" fill="black" fill-opacity="0.85"/>
</g>
<defs>
<clipPath id="clip0_2124_46050">
<rect width="19.1367" height="24.7617" fill="white" transform="translate(4.00391 2.01953)"/>
</clipPath>
</defs>
</svg>
