<svg width="28" height="28" viewBox="0 0 28 28" fill="none" xmlns="http://www.w3.org/2000/svg">
<path d="M9.23438 24.0352H18.3984C25.1953 24.0352 27.6328 21.5156 27.6328 15.2461V11.8008C27.6328 5.53125 25.1953 3 18.3984 3H9.23438C2.4375 3 0 5.53125 0 11.8008V15.2461C0 21.5156 2.4375 24.0352 9.23438 24.0352ZM9.23438 22.1484C3.70312 22.1484 1.88672 20.3555 1.88672 15.2461V11.8008C1.88672 6.69141 3.70312 4.88672 9.23438 4.88672H18.3984C23.9297 4.88672 25.7461 6.69141 25.7461 11.8008V15.2461C25.7461 20.3555 23.9297 22.1484 18.3984 22.1484H9.23438Z" fill="black" fill-opacity="0.85"/>
<path d="M8.46094 18.375C9.01172 18.375 9.30469 18.0352 9.30469 17.4961V15.1172H10.5469C12.3281 15.1172 13.3711 13.7578 13.3711 11.9531C13.3711 10.1719 12.3633 8.76562 10.6406 8.76562H8.44922C7.95703 8.76562 7.59375 9.09375 7.59375 9.66797V17.4961C7.59375 18.0469 7.91016 18.375 8.46094 18.375ZM9.30469 13.7695V10.1484H10.2188C11.2031 10.1484 11.6719 10.8516 11.6719 11.9531C11.6719 12.9961 11.25 13.7695 10.207 13.7695H9.30469ZM18.7031 18.4102C19.1484 18.4102 19.5 18.1406 19.5 17.5781V16.4062H19.9219C20.3789 16.4062 20.5898 16.1133 20.5898 15.7148C20.5898 15.3398 20.3906 15.0469 19.9219 15.0469H19.5V9.90234C19.5 9.09375 18.9727 8.63672 18.2109 8.63672C17.3789 8.63672 16.9922 9.05859 16.6641 9.78516L14.5781 14.332C14.3789 14.7891 14.3086 15.0938 14.3086 15.457C14.3086 16.0195 14.6953 16.4062 15.2695 16.4062H17.8945V17.5781C17.8945 18.1992 18.3281 18.4102 18.7031 18.4102ZM17.9297 15.082H15.75V15L17.8828 10.1133H17.9297V15.082Z" fill="black" fill-opacity="0.85"/>
</svg>
