<svg width="28" height="28" viewBox="0 0 28 28" fill="none" xmlns="http://www.w3.org/2000/svg">
<path d="M6.67969 24.5977H20.8945C23.3555 24.5977 24.5742 23.3789 24.5742 20.9648V6.65625C24.5742 4.24219 23.3555 3.02344 20.8945 3.02344H6.67969C4.23047 3.02344 3 4.23047 3 6.65625V20.9648C3 23.3906 4.23047 24.5977 6.67969 24.5977ZM6.70312 22.7109C5.53125 22.7109 4.88672 22.0898 4.88672 20.8711V6.75C4.88672 5.53125 5.53125 4.91016 6.70312 4.91016H20.8711C22.0312 4.91016 22.6875 5.53125 22.6875 6.75V20.8711C22.6875 22.0898 22.0312 22.7109 20.8711 22.7109H6.70312Z" fill="black" fill-opacity="0.85"/>
<path d="M12.2227 19.3594C12.6211 19.3594 12.9023 19.1719 13.1367 18.7148L17.5078 10.5234C17.7305 10.1016 17.7891 9.85547 17.7891 9.60938C17.7891 8.96484 17.2852 8.48438 16.5117 8.48438H10.793C10.3711 8.48438 10.0898 8.77734 10.0898 9.19922C10.0898 9.62109 10.3828 9.92578 10.793 9.92578H15.7617V10.0195L11.4492 17.918C11.332 18.1172 11.2852 18.2812 11.2852 18.5156C11.2852 19.0078 11.707 19.3594 12.2227 19.3594Z" fill="black" fill-opacity="0.85"/>
</svg>
