<svg width="28" height="28" viewBox="0 0 28 28" fill="none" xmlns="http://www.w3.org/2000/svg">
<g clip-path="url(#clip0_2124_62642)">
<path d="M13.9531 25.9062C20.4922 25.9062 25.9062 20.4805 25.9062 13.9531C25.9062 7.41406 20.4805 2 13.9414 2C7.41406 2 2 7.41406 2 13.9531C2 20.4805 7.42578 25.9062 13.9531 25.9062ZM13.9531 23.9141C8.42188 23.9141 4.00391 19.4844 4.00391 13.9531C4.00391 8.42188 8.41016 3.99219 13.9414 3.99219C19.4727 3.99219 23.9141 8.42188 23.9141 13.9531C23.9141 19.4844 19.4844 23.9141 13.9531 23.9141Z" fill="black" fill-opacity="0.85"/>
<path d="M9.35938 18.7812H18.5234C19.25 18.7812 19.6719 18.3945 19.6719 17.6797V16.9414C19.6719 16.2266 19.25 15.8398 18.5234 15.8398H9.35938C8.63281 15.8398 8.21094 16.2266 8.21094 16.9414V17.6797C8.21094 18.3945 8.63281 18.7812 9.35938 18.7812ZM9.07812 14.3633H18.793C19.2734 14.3633 19.5547 14.1172 19.5547 13.6836C19.5547 13.4844 19.4492 13.2852 19.2852 13.0977L14.6797 8.01172C14.4805 7.77734 14.2344 7.63672 13.9414 7.63672C13.6484 7.63672 13.3906 7.80078 13.2031 8.01172L8.58594 13.0977C8.41016 13.2734 8.31641 13.4844 8.32812 13.6836C8.36328 14.1172 8.58594 14.3633 9.07812 14.3633Z" fill="black" fill-opacity="0.85"/>
</g>
<defs>
<clipPath id="clip0_2124_62642">
<rect width="23.9062" height="23.918" fill="white" transform="translate(2 2)"/>
</clipPath>
</defs>
</svg>
