<svg width="28" height="28" viewBox="0 0 28 28" fill="none" xmlns="http://www.w3.org/2000/svg">
<g clip-path="url(#clip0_2124_24604)">
<path d="M17.3555 23.7305C17.9062 23.7305 18.3633 23.2734 18.3633 22.6992C18.3633 22.1484 17.9062 21.6914 17.3555 21.6914C16.7812 21.6914 16.3359 22.1484 16.3359 22.6992C16.3359 23.2734 16.7812 23.7305 17.3555 23.7305ZM6 23.4727C6 25.8984 7.23047 27.1055 9.67969 27.1055H18.0703C20.5078 27.1055 21.7383 25.8984 21.7383 23.4727V5.85938C21.7383 4.94531 21.5391 4.34766 20.9883 3.67969L19.1719 1.46484C18.4219 0.550781 17.6484 0.09375 16.6992 0.09375H11.0391C10.0898 0.09375 9.32812 0.550781 8.56641 1.46484L6.75 3.67969C6.19922 4.34766 6 4.94531 6 5.85938V23.4727ZM7.88672 23.3789V6.84375C8.20312 7.01953 8.54297 7.07812 8.95312 7.07812H18.7852C19.207 7.07812 19.5469 7.01953 19.8516 6.84375V23.3789C19.8516 24.5977 19.207 25.2188 18.0352 25.2188H9.70312C8.53125 25.2188 7.88672 24.5977 7.88672 23.3789ZM8.46094 4.33594L9.9375 2.53125C10.4648 1.91016 10.7461 1.57031 11.5312 1.57031H16.207C17.0039 1.57031 17.2852 1.91016 17.8008 2.53125L19.2773 4.33594C19.5234 4.62891 19.4766 5.19141 18.8438 5.19141H8.89453C8.26172 5.19141 8.22656 4.62891 8.46094 4.33594Z" fill="black" fill-opacity="0.85"/>
</g>
<defs>
<clipPath id="clip0_2124_24604">
<rect width="15.7383" height="27.1055" fill="white" transform="translate(6)"/>
</clipPath>
</defs>
</svg>
