<svg width="28" height="29" viewBox="0 0 28 29" fill="none" xmlns="http://www.w3.org/2000/svg">
<path d="M1.19649 21.7068C2.22774 25.5271 3.29414 26.6873 5.70821 26.6873H19.384C21.1184 26.6873 22.2785 25.7498 22.7121 23.992L27.1184 6.10918C27.8332 3.19121 26.3801 1.87871 24.6926 1.87871C22.4543 1.87871 20.0168 4.26933 21.3879 8.13652L21.7277 6.69511C18.2004 8.54668 16.5949 12.8357 17.2395 18.074L17.6613 17.4881C15.2473 16.9842 12.0949 16.6795 9.05977 16.6795C2.79024 16.6795 0.235549 18.2029 1.19649 21.7068Z" fill="black" fill-opacity="0.85"/>
<path d="M17.954 4.09355C17.7899 2.86308 18.3407 1.71464 19.4071 1.22246C19.747 1.04668 19.8173 0.706832 19.7118 0.402145C19.5829 0.0857387 19.2196 -0.136918 18.7626 0.0974576C17.3212 0.812301 16.454 2.61699 16.7118 4.3748C16.7821 4.78496 17.1923 4.98418 17.579 4.85527C17.8954 4.72636 18.0243 4.44511 17.954 4.09355ZM14.7431 13.035C14.2743 11.324 14.8485 8.94511 16.911 7.84355C17.3329 7.62089 17.3798 7.22246 17.2274 6.94121C17.0751 6.67168 16.7352 6.50761 16.2899 6.71855C13.8407 7.87871 12.9032 11.16 13.5009 13.3982C13.6063 13.7967 14.0165 13.949 14.3329 13.867C14.6376 13.785 14.872 13.492 14.7431 13.035Z" fill="black" fill-opacity="0.85"/>
</svg>
