<svg width="28" height="28" viewBox="0 0 28 28" fill="none" xmlns="http://www.w3.org/2000/svg">
<g clip-path="url(#clip0_2124_50247)">
<path d="M2.35547 22.6602H18.4922V5.01172H2.35547C0.949219 5.01172 0 5.98437 0 7.46094V20.2109C0 21.6875 0.949219 22.6602 2.35547 22.6602ZM3.59766 19.8125C2.90625 19.8125 2.46094 19.3672 2.46094 18.6758V8.99609C2.46094 8.30469 2.90625 7.85938 3.59766 7.85938H15.2578C15.9492 7.85938 16.3945 8.30469 16.3945 8.99609V18.6758C16.3945 19.3672 15.9492 19.8125 15.2578 19.8125H3.59766ZM4.07812 18.5117H14.7656C14.9531 18.5117 15.0938 18.3828 15.0938 18.1953V9.47656C15.0938 9.28906 14.9531 9.16016 14.7656 9.16016H4.07812C3.90234 9.16016 3.76172 9.28906 3.76172 9.47656V18.1953C3.76172 18.3828 3.90234 18.5117 4.07812 18.5117ZM19.793 17.1875H27.3164V7.46094C27.3164 5.98437 26.3672 5.01172 24.9609 5.01172H19.793V17.1875ZM21.7266 10.2148C21.5977 10.2148 21.4922 10.1211 21.4922 9.99219V8.09375C21.4922 7.97656 21.5977 7.85938 21.7266 7.85938H25.207C25.3359 7.85938 25.4414 7.97656 25.4414 8.09375V9.99219C25.4414 10.1211 25.3359 10.2148 25.207 10.2148H21.7266ZM22.1133 12.3594C21.75 12.3594 21.4922 12.1133 21.4922 11.75C21.4922 11.375 21.75 11.1289 22.1133 11.1289H24.8203C25.1836 11.1289 25.4414 11.375 25.4414 11.75C25.4414 12.1133 25.1836 12.3594 24.8203 12.3594H22.1133ZM22.1133 14.5156C21.75 14.5156 21.4922 14.2695 21.4922 13.8945C21.4922 13.5312 21.75 13.2969 22.1133 13.2969H24.8203C25.1836 13.2969 25.4414 13.5312 25.4414 13.8945C25.4414 14.2695 25.1836 14.5156 24.8203 14.5156H22.1133ZM19.793 22.6602H24.9609C26.3672 22.6602 27.3164 21.6875 27.3164 20.2109V18.4883H19.793V22.6602Z" fill="black" fill-opacity="0.85"/>
</g>
<defs>
<clipPath id="clip0_2124_50247">
<rect width="27.3164" height="17.6602" fill="white" transform="translate(0 5)"/>
</clipPath>
</defs>
</svg>
