<svg width="28" height="28" viewBox="0 0 28 28" fill="none" xmlns="http://www.w3.org/2000/svg">
<path d="M13.9531 25.9062C20.4922 25.9062 25.9062 20.4805 25.9062 13.9531C25.9062 7.41406 20.4805 2 13.9414 2C7.41406 2 2 7.41406 2 13.9531C2 20.4805 7.42578 25.9062 13.9531 25.9062ZM13.9531 23.9141C8.42188 23.9141 4.00391 19.4844 4.00391 13.9531C4.00391 8.42188 8.41016 3.99219 13.9414 3.99219C19.4727 3.99219 23.9141 8.42188 23.9141 13.9531C23.9141 19.4844 19.4844 23.9141 13.9531 23.9141Z" fill="black" fill-opacity="0.85"/>
<path d="M9.19531 13.9648C9.19531 17.4336 11.082 19.5898 13.9414 19.5898C16.0156 19.5898 17.4922 18.5586 18.0312 17C18.1016 16.8242 18.1367 16.6367 18.1484 16.4375C18.1484 16.0156 17.8555 15.7344 17.4219 15.7344C17.0234 15.7344 16.8008 15.9453 16.6719 16.3438C16.3789 17.3516 15.4531 18.0664 14.2695 18.1719V16.4727C14.2695 15.3477 14.9609 14.5625 15.957 14.5625C16.1914 14.5625 16.3555 14.6094 16.4961 14.6094C16.8359 14.6094 17.0703 14.3984 17.0703 14.0938C17.0703 13.6719 16.6367 13.3906 16.0039 13.3906C15.3008 13.3906 14.6211 13.7539 14.2578 14.4453V13.9531C14.2578 13.5781 14.0117 13.3555 13.6836 13.3555C13.3438 13.3555 13.1094 13.6016 13.1094 13.9531V18.0664C11.6445 17.6562 10.7656 16.1328 10.7656 13.9531C10.7656 11.4102 12.0078 9.75781 13.9297 9.75781C15.207 9.75781 16.2266 10.543 16.5898 11.6328C16.7188 11.9961 16.918 12.2422 17.3398 12.2422C17.7852 12.2422 18.0547 11.9609 18.0547 11.5273C18.0547 11.3281 18.0195 11.1172 17.9492 10.9297C17.4102 9.39453 15.8164 8.33984 13.9414 8.33984C11.082 8.33984 9.19531 10.5313 9.19531 13.9648Z" fill="black" fill-opacity="0.85"/>
</svg>
