<svg width="28" height="28" viewBox="0 0 28 28" fill="none" xmlns="http://www.w3.org/2000/svg">
<g clip-path="url(#clip0_2124_13316)">
<path d="M14.1523 1.91016C14.6914 1.91016 15.1016 1.51172 15.1016 0.960938C15.1016 0.421875 14.6797 0 14.1523 0C13.625 0 13.1914 0.433594 13.1914 0.960938C13.1914 1.48828 13.6133 1.91016 14.1523 1.91016ZM8.55078 5.14453C9.10156 5.14453 9.51172 4.73438 9.51172 4.18359C9.51172 3.64453 9.08984 3.22266 8.55078 3.22266C8.03516 3.22266 7.58984 3.66797 7.58984 4.18359C7.58984 4.72266 8.01172 5.14453 8.55078 5.14453ZM19.7422 5.14453C20.293 5.14453 20.7031 4.73438 20.7031 4.18359C20.7031 3.64453 20.2812 3.22266 19.7422 3.22266C19.2266 3.22266 18.7812 3.66797 18.7812 4.18359C18.7812 4.72266 19.2031 5.14453 19.7422 5.14453ZM2.96094 8.41406C3.5 8.41406 3.91016 8.00391 3.91016 7.45312C3.91016 6.92578 3.48828 6.50391 2.96094 6.50391C2.43359 6.50391 2 6.9375 2 7.45312C2 7.99219 2.42188 8.41406 2.96094 8.41406ZM25.2969 8.41406C25.8477 8.41406 26.2461 8.00391 26.2461 7.45312C26.2461 6.91406 25.8359 6.50391 25.2969 6.50391C24.7695 6.50391 24.3359 6.9375 24.3359 7.45312C24.3359 7.99219 24.7578 8.41406 25.2969 8.41406ZM2.96094 14.9062C3.5 14.9062 3.91016 14.5078 3.91016 13.957C3.91016 13.418 3.48828 12.9961 2.96094 12.9961C2.43359 12.9961 2 13.4297 2 13.957C2 14.4844 2.42188 14.9062 2.96094 14.9062ZM25.2969 14.9062C25.8477 14.9062 26.2461 14.5078 26.2461 13.957C26.2461 13.418 25.8359 12.9961 25.2969 12.9961C24.7695 12.9961 24.3359 13.4414 24.3359 13.957C24.3359 14.4844 24.7578 14.9062 25.2969 14.9062ZM2.96094 21.4102C3.5 21.4102 3.91016 21 3.91016 20.4492C3.91016 19.9219 3.48828 19.5 2.96094 19.5C2.43359 19.5 2 19.9336 2 20.4492C2 20.9883 2.42188 21.4102 2.96094 21.4102ZM25.2969 21.4102C25.8477 21.4102 26.2461 21.0117 26.2461 20.4492C26.2461 19.9219 25.8242 19.5 25.2969 19.5C24.7695 19.5 24.3359 19.9336 24.3359 20.4492C24.3359 20.9883 24.7578 21.4102 25.2969 21.4102ZM8.55078 24.6797C9.10156 24.6797 9.51172 24.2812 9.51172 23.7305C9.51172 23.1914 9.08984 22.7695 8.55078 22.7695C8.03516 22.7695 7.58984 23.2031 7.58984 23.7305C7.58984 24.2578 8.01172 24.6797 8.55078 24.6797ZM19.7422 24.6797C20.293 24.6797 20.7031 24.2812 20.7031 23.7305C20.7031 23.1914 20.2812 22.7695 19.7422 22.7695C19.2266 22.7695 18.7812 23.2031 18.7812 23.7305C18.7812 24.2578 19.2031 24.6797 19.7422 24.6797ZM14.1523 27.9141C14.6914 27.9141 15.1016 27.5039 15.1016 26.9531C15.1016 26.4141 14.6797 25.9922 14.1523 25.9922C13.625 25.9922 13.1914 26.4375 13.1914 26.9531C13.1914 27.4922 13.6133 27.9141 14.1523 27.9141Z" fill="black" fill-opacity="0.85"/>
<path d="M14.1523 8.41406C14.6914 8.41406 15.1016 8.00391 15.1016 7.45312C15.1016 6.92578 14.6797 6.50391 14.1523 6.50391C13.625 6.50391 13.1914 6.9375 13.1914 7.45312C13.1914 7.99219 13.6133 8.41406 14.1523 8.41406ZM8.55078 11.6602C9.10156 11.6602 9.51172 11.25 9.51172 10.6992C9.51172 10.1602 9.08984 9.73828 8.55078 9.73828C8.03516 9.73828 7.58984 10.1719 7.58984 10.6992C7.58984 11.2383 8.01172 11.6602 8.55078 11.6602ZM19.7422 11.6602C20.293 11.6602 20.7031 11.25 20.7031 10.6992C20.7031 10.1602 20.2812 9.73828 19.7422 9.73828C19.2266 9.73828 18.7812 10.1719 18.7812 10.6992C18.7812 11.2383 19.2031 11.6602 19.7422 11.6602ZM8.55078 18.1641C9.10156 18.1641 9.51172 17.7656 9.51172 17.2148C9.51172 16.6758 9.08984 16.2539 8.55078 16.2539C8.03516 16.2539 7.58984 16.6875 7.58984 17.2148C7.58984 17.7539 8.01172 18.1641 8.55078 18.1641ZM19.7422 18.1641C20.293 18.1641 20.7031 17.7656 20.7031 17.2148C20.7031 16.6758 20.2812 16.2539 19.7422 16.2539C19.2266 16.2539 18.7812 16.6875 18.7812 17.2148C18.7812 17.7539 19.2031 18.1641 19.7422 18.1641ZM14.1523 21.4102C14.6914 21.4102 15.1016 21 15.1016 20.4492C15.1016 19.9219 14.6797 19.5 14.1523 19.5C13.625 19.5 13.1914 19.9336 13.1914 20.4492C13.1914 20.9883 13.6133 21.4102 14.1523 21.4102Z" fill="black" fill-opacity="0.85"/>
<path d="M14.1523 14.9062C14.6914 14.9062 15.1016 14.5078 15.1016 13.957C15.1016 13.418 14.6797 12.9961 14.1523 12.9961C13.625 12.9961 13.1914 13.4297 13.1914 13.957C13.1914 14.4844 13.6133 14.9062 14.1523 14.9062Z" fill="black" fill-opacity="0.85"/>
</g>
<defs>
<clipPath id="clip0_2124_13316">
<rect width="24.2461" height="27.9258" fill="white" transform="translate(2)"/>
</clipPath>
</defs>
</svg>
