<svg width="28" height="28" viewBox="0 0 28 28" fill="none" xmlns="http://www.w3.org/2000/svg">
<path d="M13.9531 25.918C20.4922 25.918 25.9062 20.5039 25.9062 13.9648C25.9062 7.4375 20.4805 2.01172 13.9414 2.01172C7.41406 2.01172 2 7.4375 2 13.9648C2 20.5039 7.42578 25.918 13.9531 25.918Z" fill="black" fill-opacity="0.85"/>
<path d="M10.0977 13.9648C10.0977 9.25391 13.5898 6.20703 18.043 6.20703C18.4414 6.20703 18.7344 6.51172 18.7344 6.89844C18.7344 7.27344 18.4531 7.58984 18.043 7.58984C15.5352 7.58984 13.4727 8.67969 12.3477 10.543C12.8164 10.25 13.3672 10.0977 13.9531 10.0977C16.0508 10.0977 17.8086 11.8438 17.8086 13.9648C17.8086 18.6758 14.3164 21.7227 9.875 21.7227C9.45312 21.7227 9.17188 21.4062 9.17188 21.043C9.17188 20.6562 9.45312 20.3398 9.875 20.3398C12.3711 20.3398 14.4336 19.2617 15.5586 17.3984C15.0898 17.6797 14.5391 17.832 13.9531 17.832C11.8555 17.832 10.0977 16.0859 10.0977 13.9648ZM12.7578 13.9648C12.7578 14.6211 13.2969 15.1602 13.9531 15.1602C14.6094 15.1602 15.1484 14.6094 15.1484 13.9648C15.1484 13.3086 14.6094 12.7695 13.9531 12.7695C13.2969 12.7695 12.7578 13.3086 12.7578 13.9648Z" fill="white"/>
</svg>
