<svg width="35" height="28" viewBox="0 0 35 28" fill="none" xmlns="http://www.w3.org/2000/svg">
<path d="M0.505381 15.2539L10.4194 20.9961C11.1694 21.4297 12.0952 20.9961 12.0952 20.1875V8.42188C12.0952 7.60156 11.1577 7.13281 10.4194 7.56641L0.505381 13.3789C-0.162588 13.7656 -0.174307 14.8438 0.505381 15.2539ZM17.439 26.5273C17.896 26.5273 18.3062 26.1641 18.3062 25.707V2.83203C18.3062 2.375 17.896 2.02344 17.439 2.02344C16.9819 2.02344 16.5835 2.375 16.5835 2.83203V25.707C16.5835 26.1641 16.9819 26.5273 17.439 26.5273ZM34.3843 15.2539C35.064 14.8438 35.0523 13.7656 34.3843 13.3789L24.4702 7.56641C23.7319 7.13281 22.7944 7.60156 22.7944 8.42188V20.1875C22.7944 20.9961 23.7202 21.4297 24.4702 20.9961L34.3843 15.2539Z" fill="black" fill-opacity="0.85"/>
</svg>
