<svg width="28" height="28" viewBox="0 0 28 28" fill="none" xmlns="http://www.w3.org/2000/svg">
<path d="M7.09282 6.12109C8.51079 6.12109 9.64751 4.98438 9.64751 3.56641C9.64751 2.14844 8.51079 1 7.09282 1C5.67485 1 4.52642 2.14844 4.52642 3.56641C4.52642 4.98438 5.67485 6.12109 7.09282 6.12109ZM11.1241 25.8789C11.6983 26.043 12.3897 25.75 12.5772 25.0469L14.3467 18.625C14.5694 17.8047 14.2295 17.2188 13.4092 16.9844L8.25298 15.5195L8.65142 10.9961C8.67485 10.8555 8.83892 10.7734 8.94438 10.8672L11.335 12.5781C11.7569 12.8828 12.2959 12.8828 12.7295 12.5781L16.8897 9.60156C17.4288 9.22656 17.5577 8.47656 17.1709 7.9375C16.7959 7.39844 16.0459 7.28125 15.5069 7.65625L12.0381 10.1523L9.17876 8.10156C8.5811 7.65625 7.85454 7.35156 6.9522 7.35156C5.44048 7.35156 4.30376 8.30078 4.21001 9.64844L3.81157 15.2266C3.69438 16.8906 4.50298 18.1211 6.35454 18.3906L11.71 19.1641L10.2803 24.4141C10.0928 25.1172 10.4795 25.7031 11.1241 25.8789ZM21.8584 11.3828C23.6045 11.3828 25.0459 9.94141 25.0459 8.18359C25.0459 6.42578 23.6045 5.00781 21.8584 5.00781C20.0889 5.00781 18.6592 6.42578 18.6592 8.18359C18.6592 9.94141 20.0889 11.3828 21.8584 11.3828ZM21.8584 10.082C20.7803 10.082 19.96 9.26172 19.96 8.18359C19.96 7.12891 20.7803 6.30859 21.8584 6.30859C22.9249 6.30859 23.7452 7.12891 23.7452 8.18359C23.7452 9.26172 22.9249 10.082 21.8584 10.082ZM14.1124 25.9844H20.71C21.378 25.9844 21.5655 25.1406 21.0264 24.7773L18.7061 23.2422C18.9405 22.8672 19.0928 22.457 19.1983 22.0117L21.9288 11.125L20.628 10.8203L17.9092 21.707C17.4756 23.4648 15.9405 24.6602 14.1124 24.6602C13.7374 24.6602 13.4561 24.9648 13.4561 25.3281C13.4561 25.6797 13.7374 25.9844 14.1124 25.9844ZM5.3936 21.5312L7.73735 21.0273C8.03032 20.9805 8.2061 20.7109 8.2061 20.418C8.2061 20.1133 7.98345 19.8789 7.71392 19.8438L3.7647 19.1641C3.10845 19.0586 2.90923 19.6211 3.10845 20.0547L3.3311 20.4883C3.74126 21.332 4.40923 21.7422 5.3936 21.5312ZM3.68267 25.9844H8.75688C9.1436 25.9844 9.42485 25.6797 9.42485 25.3281C9.42485 24.9648 9.1436 24.6602 8.75688 24.6602C7.99517 24.6602 7.43267 24.3555 7.23345 23.4414L6.54204 20.3242L5.25298 20.6055L5.80376 23.1367L3.31938 24.7773C2.7686 25.1406 2.9561 25.9844 3.68267 25.9844Z" fill="black" fill-opacity="0.85"/>
</svg>
