<svg width="28" height="28" viewBox="0 0 28 28" fill="none" xmlns="http://www.w3.org/2000/svg">
<path d="M6.67969 24.5977H20.8945C23.3555 24.5977 24.5742 23.3789 24.5742 20.9648V6.65625C24.5742 4.24219 23.3555 3.02344 20.8945 3.02344H6.67969C4.23047 3.02344 3 4.23047 3 6.65625V20.9648C3 23.3906 4.23047 24.5977 6.67969 24.5977ZM6.70312 22.7109C5.53125 22.7109 4.88672 22.0898 4.88672 20.8711V6.75C4.88672 5.53125 5.53125 4.91016 6.70312 4.91016H20.8711C22.0312 4.91016 22.6875 5.53125 22.6875 6.75V20.8711C22.6875 22.0898 22.0312 22.7109 20.8711 22.7109H6.70312Z" fill="black" fill-opacity="0.85"/>
<path d="M9.60938 8.32033L6.71484 11.2735C6.58594 11.4258 6.48047 11.6485 6.48047 11.8125C6.48047 12.2461 6.80859 12.5742 7.24219 12.5742C7.44141 12.5742 7.62891 12.4805 7.76953 12.3399L8.97656 11.086L9.42188 10.6055L9.39844 11.1797V18.7734C9.39844 19.1953 9.72656 19.5117 10.1602 19.5117C10.6055 19.5117 10.9336 19.1953 10.9336 18.7734V11.168L10.8984 10.6055L11.3555 11.086L12.5625 12.3516C12.7031 12.4922 12.8906 12.5742 13.0898 12.5742C13.5234 12.5742 13.8398 12.2578 13.8398 11.8125C13.8398 11.625 13.7344 11.4024 13.6055 11.2735L10.7227 8.32033C10.4414 8.02736 9.94922 7.98049 9.60938 8.32033ZM17.9883 19.2891L20.8594 16.3477C21 16.1953 21.1055 15.9844 21.1055 15.7969C21.1055 15.3516 20.8008 15.0469 20.3555 15.0469C20.1445 15.0469 19.9453 15.1289 19.8164 15.2695L18.6094 16.5117L18.1641 16.9922L18.1875 16.4414V8.83596C18.1875 8.40236 17.8594 8.08596 17.4258 8.08596C16.9922 8.08596 16.6641 8.40236 16.6641 8.83596V16.4531L16.6875 17.0039L16.2422 16.5117L15.0352 15.2695C14.8828 15.1172 14.707 15.0469 14.4961 15.0469C14.0508 15.0469 13.7578 15.3516 13.7578 15.7969C13.7578 15.9727 13.8398 16.1836 13.9805 16.3477L16.8633 19.2891C17.1328 19.5703 17.6719 19.6172 17.9883 19.2891Z" fill="black" fill-opacity="0.85"/>
</svg>
