<svg width="28" height="28" viewBox="0 0 28 28" fill="none" xmlns="http://www.w3.org/2000/svg">
<path d="M13.9531 25.9062C20.4922 25.9062 25.9062 20.4805 25.9062 13.9531C25.9062 7.41406 20.4805 2 13.9414 2C7.41406 2 2 7.41406 2 13.9531C2 20.4805 7.42578 25.9062 13.9531 25.9062ZM13.9531 23.9141C8.42188 23.9141 4.00391 19.4844 4.00391 13.9531C4.00391 8.42188 8.41016 3.99219 13.9414 3.99219C19.4727 3.99219 23.9141 8.42188 23.9141 13.9531C23.9141 19.4844 19.4844 23.9141 13.9531 23.9141Z" fill="black" fill-opacity="0.85"/>
<path d="M9.69922 18.2539H17.5625C19.5898 18.2539 21.1719 16.7305 21.1719 14.7617C21.1719 12.7578 19.543 11.2695 17.3633 11.293C16.5781 9.6875 15.1016 8.72656 13.3086 8.72656C10.9414 8.72656 8.97266 10.5664 8.77344 12.9336C7.56641 13.2734 6.73438 14.3047 6.73438 15.5703C6.73438 17.1406 7.91797 18.2539 9.69922 18.2539Z" fill="black" fill-opacity="0.85"/>
</svg>
