<svg width="28" height="28" viewBox="0 0 28 28" fill="none" xmlns="http://www.w3.org/2000/svg">
<path d="M13.9531 25.9062C20.4922 25.9062 25.9062 20.4805 25.9062 13.9531C25.9062 7.41406 20.4805 2 13.9414 2C7.41406 2 2 7.41406 2 13.9531C2 20.4805 7.42578 25.9062 13.9531 25.9062ZM13.9531 23.9141C8.42188 23.9141 4.00391 19.4844 4.00391 13.9531C4.00391 8.42188 8.41016 3.99219 13.9414 3.99219C19.4727 3.99219 23.9141 8.42188 23.9141 13.9531C23.9141 19.4844 19.4844 23.9141 13.9531 23.9141Z" fill="black" fill-opacity="0.85"/>
<path d="M13.3219 18.3711C13.6032 18.8633 14.2828 18.8867 14.5875 18.3711L18.5133 11.7031C18.8414 11.1523 18.5954 10.5312 18.0328 10.5312H9.86483C9.30233 10.5312 9.06796 11.1992 9.37264 11.7031L13.3219 18.3711Z" fill="black" fill-opacity="0.85"/>
</svg>
