<svg width="30" height="28" viewBox="0 0 30 28" fill="none" xmlns="http://www.w3.org/2000/svg">
<path d="M23.1562 23.3672C26.6953 23.3672 29.4609 20.7773 29.4609 17.5547C29.4609 15.0938 28.043 12.9609 25.7578 12C25.7812 6.77344 22.0195 3 17.2266 3C14.0508 3 11.7891 4.69922 10.3828 6.75C7.5 5.90625 4.35938 8.09766 4.30078 11.3789C1.65234 11.8008 0 14.168 0 17.0273C0 20.4727 3.01172 23.3672 7.01953 23.3672H23.1562ZM23.1562 21.4805H7.01953C4.06641 21.4805 1.88672 19.418 1.88672 17.0273C1.88672 14.6836 3.30469 12.8203 5.78906 12.8203C5.95312 12.8203 6.01172 12.7383 6.01172 12.5859C6.01172 8.97656 8.61328 7.91016 11.0156 8.69531C11.1562 8.74219 11.2383 8.70703 11.3086 8.57812C12.4453 6.55078 14.1914 4.88672 17.2266 4.88672C21.0703 4.88672 23.7305 7.93359 23.9297 11.4141C23.9648 11.9531 23.9297 12.5859 23.8828 13.1367C23.8711 13.2891 23.9297 13.3711 24.0703 13.4062C26.2031 13.875 27.5742 15.4336 27.5742 17.5547C27.5742 19.7344 25.6523 21.4805 23.1562 21.4805Z" fill="black" fill-opacity="0.85"/>
<path d="M7.1601 16.3594C6.62103 17.0508 7.32416 17.6719 7.99213 17.3203L11.871 15.2227L16.9687 17.9531C17.1913 18.082 17.414 18.1523 17.6015 18.1523C17.871 18.1523 18.1288 18.0117 18.3632 17.7188L22.3241 12.5977C22.8163 11.9531 22.1952 11.2852 21.4921 11.6602L17.5897 13.7578L12.5038 11.0156C12.2811 10.8984 12.0585 10.8164 11.8593 10.8164C11.5897 10.8164 11.3437 10.957 11.1093 11.2617L7.1601 16.3594Z" fill="black" fill-opacity="0.85"/>
</svg>
