<svg width="28" height="28" viewBox="0 0 28 28" fill="none" xmlns="http://www.w3.org/2000/svg">
<path d="M6.67969 24.5977H20.8945C23.3555 24.5977 24.5742 23.3789 24.5742 20.9648V6.65625C24.5742 4.24219 23.3555 3.02344 20.8945 3.02344H6.67969C4.23047 3.02344 3 4.23047 3 6.65625V20.9648C3 23.3906 4.23047 24.5977 6.67969 24.5977Z" fill="black" fill-opacity="0.85"/>
<path d="M8.87109 13.9102C8.87109 10.5469 10.6289 8.33203 13.3594 8.13281L13.5938 7.23047C13.6758 6.90234 13.9102 6.76172 14.2148 6.76172C14.5664 6.76172 14.8008 6.99609 14.8008 7.34766C14.8008 7.44141 14.7773 7.53516 14.7539 7.61719L14.6133 8.17969C14.9883 8.26172 15.3398 8.35547 15.668 8.49609L15.9844 7.23047C16.0781 6.90234 16.3008 6.76172 16.6055 6.76172C16.957 6.76172 17.1914 6.99609 17.1914 7.34766C17.1914 7.44141 17.1797 7.52344 17.1445 7.61719L16.7578 9.16406C17.2617 9.59766 17.6602 10.1484 17.8945 10.793C17.9648 10.9922 18.0117 11.1914 18.0117 11.3906C18.0117 11.8477 17.7188 12.1406 17.2734 12.1406C16.8516 12.1406 16.6641 11.8477 16.5469 11.5547C16.4883 11.3437 16.3828 11.168 16.2773 11.0625L14.4609 18.1992C15.5156 18.0352 16.3008 17.3203 16.5703 16.3711C16.6875 16.0078 16.9336 15.7148 17.3438 15.7148C17.8125 15.7148 18.0938 16.043 18.0938 16.4883C18.0938 16.6875 18.0469 16.9102 17.9766 17.0977C17.4492 18.6094 16.0312 19.6289 14.0859 19.7227L13.793 20.8242C13.7227 21.1523 13.4883 21.293 13.1836 21.293C12.8203 21.293 12.6094 21.0586 12.6094 20.6953C12.6094 20.6016 12.6211 20.5312 12.6445 20.4375L12.832 19.6523C12.457 19.5938 12.1055 19.4883 11.7773 19.3359L11.4023 20.8242C11.332 21.1523 11.0977 21.293 10.793 21.293C10.4414 21.293 10.207 21.0586 10.207 20.6953C10.207 20.6016 10.2188 20.5195 10.2422 20.4258L10.6875 18.668C9.52734 17.6719 8.87109 16.0195 8.87109 13.9102ZM10.5 13.9102C10.5 15.0586 10.7344 16.0195 11.1797 16.7344L12.9609 9.70312C11.4258 10.0898 10.5 11.6602 10.5 13.9102ZM12.1523 17.8359C12.4688 18.0352 12.7969 18.1758 13.1953 18.2344L15.2812 9.99609C14.9766 9.80859 14.625 9.67969 14.25 9.63281L12.1523 17.8359Z" fill="white"/>
</svg>
