<svg width="28" height="28" viewBox="0 0 28 28" fill="none" xmlns="http://www.w3.org/2000/svg">
<path d="M12.1875 21.5586C14.4961 21.5586 16.2305 20.4805 17.0742 18.7578H17.1328V20.7734C17.1328 21.4062 17.5547 21.8164 18.1641 21.8164C18.7617 21.8164 19.1719 21.4062 19.1719 20.7734V3.08984C19.1719 2.41016 18.7383 2 18.1055 2C17.4727 2 17.0273 2.41016 17.0273 3.08984V10.7539H16.9805C16.2188 9.04297 14.4961 7.96484 12.1875 7.96484C8.85938 7.96484 6 10.5312 6 14.7617C6 18.9922 8.85938 21.5586 12.1875 21.5586ZM12.668 19.6484C10.1367 19.6484 8.21484 17.7734 8.21484 14.7617C8.21484 11.7617 10.1367 9.88672 12.668 9.88672C15.1172 9.88672 17.0508 11.8789 17.0508 14.7617C17.0508 17.6445 15.1172 19.6484 12.668 19.6484ZM11.7188 5.03516C11.7188 5.44531 12.0469 5.78516 12.457 5.78516H20.9883C21.3867 5.78516 21.7266 5.44531 21.7266 5.03516C21.7266 4.63672 21.3867 4.29688 20.9883 4.29688H12.457C12.0469 4.29688 11.7188 4.63672 11.7188 5.03516ZM7.13672 24.0547C7.13672 24.4766 7.47656 24.8281 7.89844 24.8281H19.1133C19.5352 24.8281 19.875 24.4766 19.875 24.0547C19.875 23.6445 19.5352 23.293 19.1133 23.293H7.89844C7.47656 23.293 7.13672 23.6445 7.13672 24.0547Z" fill="black" fill-opacity="0.85"/>
</svg>
