<svg width="28" height="28" viewBox="0 0 28 28" fill="none" xmlns="http://www.w3.org/2000/svg">
<g clip-path="url(#clip0_2124_24697)">
<path d="M7.24609 27.4023H20.3359C22.2812 27.4023 23.582 26.1602 23.582 24.3086V4.10547C23.582 2.25391 22.2812 1 20.3359 1H7.24609C5.30078 1 4 2.25391 4 4.10547V24.3086C4 26.1602 5.30078 27.4023 7.24609 27.4023ZM7.48047 25.5156C6.47266 25.5156 5.88672 24.9531 5.88672 23.9922V4.42188C5.88672 3.46094 6.47266 2.88672 7.48047 2.88672H20.1016C21.0977 2.88672 21.6953 3.46094 21.6953 4.42188V23.9922C21.6953 24.9531 21.0977 25.5156 20.1016 25.5156H7.48047Z" fill="black" fill-opacity="0.85"/>
<path d="M13.7852 20.0195C16.9961 20.0195 19.6094 17.418 19.6094 14.1953C19.6094 10.9961 16.9961 8.39453 13.7852 8.39453C10.5859 8.39453 7.97266 10.9961 7.97266 14.1953C7.97266 17.418 10.5859 20.0195 13.7852 20.0195Z" fill="black" fill-opacity="0.85"/>
</g>
<defs>
<clipPath id="clip0_2124_24697">
<rect width="19.582" height="26.4258" fill="white" transform="translate(4 1)"/>
</clipPath>
</defs>
</svg>
