<svg width="28" height="28" viewBox="0 0 28 28" fill="none" xmlns="http://www.w3.org/2000/svg">
<path d="M6.67969 24.5977H20.8945C23.3555 24.5977 24.5742 23.3789 24.5742 20.9648V6.65625C24.5742 4.24219 23.3555 3.02344 20.8945 3.02344H6.67969C4.23047 3.02344 3 4.23047 3 6.65625V20.9648C3 23.3906 4.23047 24.5977 6.67969 24.5977Z" fill="black" fill-opacity="0.85"/>
<path d="M14.0859 19.6406C11.5781 19.6406 9.98438 18.0117 9.45703 15.6094H8.30859C7.96875 15.6094 7.73438 15.3398 7.73438 15C7.73438 14.6484 7.96875 14.4141 8.30859 14.4141H9.29297C9.28125 14.2148 9.28125 14.0273 9.28125 13.8164C9.28125 13.582 9.29297 13.3711 9.30469 13.1484H8.30859C7.96875 13.1484 7.73438 12.8789 7.73438 12.5508C7.73438 12.1875 7.96875 11.9531 8.30859 11.9531H9.48047C10.043 9.55079 11.7187 8.01562 14.0859 8.01562C16.043 8.01562 17.7188 9.05859 18.3047 10.6875C18.375 10.8867 18.4219 11.0859 18.4219 11.2969C18.4219 11.7422 18.1289 12.0352 17.6719 12.0352C17.25 12.0352 17.0391 11.8711 16.8984 11.4023C16.5234 10.1602 15.3633 9.48047 14.1328 9.48047C12.6328 9.48047 11.625 10.5 11.1797 11.9531H14.3438C14.6836 11.9531 14.9414 12.1875 14.9414 12.5508C14.9414 12.8789 14.6836 13.1484 14.3438 13.1484H10.9336C10.9219 13.3711 10.9102 13.582 10.9102 13.8164C10.9102 14.0156 10.9219 14.2148 10.9336 14.4141H14.3438C14.6836 14.4141 14.9414 14.6484 14.9414 15C14.9414 15.3398 14.6836 15.6094 14.3438 15.6094H11.1562C11.5781 17.1211 12.5977 18.1758 14.1328 18.1758C15.457 18.1758 16.6406 17.5195 16.9805 16.2891C17.1094 15.8672 17.3555 15.6445 17.7656 15.6445C18.2109 15.6445 18.5039 15.9492 18.5039 16.3828C18.5039 16.6055 18.457 16.8047 18.3867 17.0039C17.7539 18.7617 16.1367 19.6406 14.0859 19.6406Z" fill="white"/>
</svg>
