<svg width="28" height="28" viewBox="0 0 28 28" fill="none" xmlns="http://www.w3.org/2000/svg">
<path d="M17.5859 12.7227L12.4648 17.8438C12.0547 18.2539 11.5156 18.3828 11.1055 17.9492C10.6836 17.4805 10.7773 17.0469 11.2344 16.5781L16.3203 11.4336L15.3125 10.4375L5.84375 19.9062C2.22266 23.5273 3.96875 22.9648 2 25.7422L3.05469 26.8555C5.73828 24.8984 5.375 26.8203 9.05469 23.1523L18.5586 13.707L17.5859 12.7227ZM20.375 14.8438L20.7031 14.4805C21.2773 13.8828 21.3125 13.1797 20.6914 12.5703L20.3398 12.2305C22.1328 10.625 24.125 10.4023 25.3555 9.14844C27.1016 7.39062 26.5391 4.92969 25.3086 3.69922C24.0898 2.45704 21.6523 1.92969 19.8594 3.65234C18.5938 4.87109 18.3828 6.875 16.7773 8.66797L16.4375 8.31641C15.8398 7.70704 15.125 7.73047 14.5273 8.30469L14.1758 8.63281C13.4492 9.32422 13.5898 9.9336 14.1992 10.5547L18.4531 14.8086C19.0742 15.4297 19.6953 15.5586 20.375 14.8438Z" fill="black" fill-opacity="0.85"/>
</svg>
