<svg width="28" height="38" viewBox="0 0 28 38" fill="none" xmlns="http://www.w3.org/2000/svg">
<g clip-path="url(#clip0_2124_49977)">
<path d="M3.21875 13.418C3.89844 13.418 4.4375 12.8789 4.4375 12.1992C4.4375 11.5312 3.89844 10.9922 3.21875 10.9922C2.53906 10.9922 2 11.5312 2 12.1992C2 12.8789 2.53906 13.418 3.21875 13.418ZM5.98438 5.19141C6.66406 5.19141 7.20312 4.65234 7.20312 3.97266C7.20312 3.30469 6.66406 2.76562 5.98438 2.76562C5.31641 2.76562 4.76562 3.30469 4.76562 3.97266C4.76562 4.65234 5.31641 5.19141 5.98438 5.19141ZM14.2227 2.4375C14.8906 2.4375 15.4297 1.89844 15.4297 1.21875C15.4297 0.539062 14.8906 0 14.2227 0C13.543 0 13.0039 0.539062 13.0039 1.21875C13.0039 1.89844 13.543 2.4375 14.2227 2.4375ZM22.4492 5.19141C23.1289 5.19141 23.668 4.65234 23.668 3.97266C23.668 3.30469 23.1289 2.76562 22.4492 2.76562C21.7695 2.76562 21.2305 3.30469 21.2305 3.97266C21.2305 4.65234 21.7695 5.19141 22.4492 5.19141ZM25.2266 13.418C25.8945 13.418 26.4336 12.8789 26.4336 12.1992C26.4336 11.5312 25.8945 10.9922 25.2266 10.9922C24.5469 10.9922 24.0078 11.5312 24.0078 12.1992C24.0078 12.8789 24.5469 13.418 25.2266 13.418Z" fill="black" fill-opacity="0.85"/>
<path d="M14.2227 4.79297C10.0742 4.79297 6.81641 7.80469 6.81641 11.6367C6.81641 15.8789 9.35938 16.9336 10.0625 24.2578C10.1094 24.668 10.3203 24.9258 10.7656 24.9258H17.6797C18.1133 24.9258 18.3359 24.668 18.3711 24.2578C19.0742 16.9336 21.6289 15.8789 21.6289 11.6367C21.6289 7.80469 18.3594 4.79297 14.2227 4.79297ZM14.2227 6.51562C17.293 6.51562 19.9062 8.66016 19.9062 11.6367C19.9062 14.7773 17.8203 15.5039 16.8125 23.2031H11.6328C10.6133 15.5039 8.53906 14.7773 8.53906 11.6367C8.53906 8.66016 11.1406 6.51562 14.2227 6.51562ZM10.7305 27.3164H17.7148C18.1016 27.3164 18.3945 27.0352 18.3945 26.6484C18.3945 26.2617 18.1016 25.9805 17.7148 25.9805H10.7305C10.3437 25.9805 10.0625 26.2617 10.0625 26.6484C10.0625 27.0352 10.3437 27.3164 10.7305 27.3164ZM14.2227 30.5273C15.9453 30.5273 17.4102 29.6602 17.4922 28.3711H10.9531C11.0234 29.6602 12.4883 30.5273 14.2227 30.5273Z" fill="black" fill-opacity="0.85"/>
</g>
<defs>
<clipPath id="clip0_2124_49977">
<rect width="24.4336" height="37.582" fill="white" transform="translate(2)"/>
</clipPath>
</defs>
</svg>
