<svg width="28" height="30" viewBox="0 0 28 30" fill="none" xmlns="http://www.w3.org/2000/svg">
<path d="M14.0195 17.1914C19.0234 17.1914 22.9727 13.2539 22.9727 8.51953C22.9727 6.04688 21.8828 3.77344 20.3242 2.29688C19.668 1.67578 18.9297 1.39453 17.9453 1.39453H10.082C9.10938 1.39453 8.37109 1.67578 7.71484 2.29688C6.14453 3.77344 5.06641 6.04688 5.06641 8.51953C5.06641 13.2539 9.00391 17.1914 14.0195 17.1914ZM14.0195 15.4805C9.73047 15.4805 6.76562 12.5273 6.76562 8.51953C6.76562 6.44531 7.55078 4.78125 8.875 3.55078C9.29688 3.16406 9.42578 3.10547 10.082 3.10547H17.9453C18.6016 3.10547 18.7422 3.16406 19.1523 3.55078C20.4766 4.78125 21.2734 6.44531 21.2734 8.51953C21.2734 12.5273 18.3086 15.4805 14.0195 15.4805ZM9.94141 29.8242H18.0742C21.4375 29.8242 24.0273 27.1992 24.0273 23.8711C24.0273 20.543 21.4375 17.918 18.0742 17.918H9.94141C6.58984 17.918 4 20.543 4 23.8711C4 27.1992 6.58984 29.8242 9.94141 29.8242ZM9.94141 28.1133C7.53906 28.1133 5.6875 26.2734 5.6875 23.8711C5.6875 21.4688 7.53906 19.6289 9.94141 19.6289H18.0742C20.4883 19.6289 22.3398 21.4688 22.3398 23.8711C22.3398 26.2734 20.4883 28.1133 18.0742 28.1133H9.94141Z" fill="black" fill-opacity="0.85"/>
<path d="M11.7578 6.50391C12.5078 6.50391 13.1055 5.90625 13.1055 5.15625C13.1055 4.40625 12.5078 3.80859 11.7578 3.80859C11.0078 3.80859 10.4102 4.40625 10.4102 5.15625C10.4102 5.90625 11.0078 6.50391 11.7578 6.50391ZM16.2812 6.50391C17.0195 6.50391 17.6172 5.90625 17.6172 5.15625C17.6172 4.40625 17.0195 3.80859 16.2812 3.80859C15.5312 3.80859 14.9336 4.40625 14.9336 5.15625C14.9336 5.90625 15.5312 6.50391 16.2812 6.50391ZM9.49609 10.4414C10.5625 10.4414 11.4297 9.58594 11.4297 8.50781C11.4297 7.44141 10.5625 6.58594 9.49609 6.58594C8.42969 6.58594 7.5625 7.44141 7.5625 8.50781C7.5625 9.58594 8.42969 10.4414 9.49609 10.4414ZM14.0195 10.4414C15.0859 10.4414 15.9414 9.58594 15.9414 8.50781C15.9414 7.44141 15.0859 6.58594 14.0195 6.58594C12.9414 6.58594 12.0859 7.44141 12.0859 8.50781C12.0859 9.58594 12.9414 10.4414 14.0195 10.4414ZM18.5312 10.4414C19.6094 10.4414 20.4648 9.58594 20.4648 8.50781C20.4648 7.44141 19.6094 6.58594 18.5312 6.58594C17.4648 6.58594 16.6094 7.44141 16.6094 8.50781C16.6094 9.58594 17.4648 10.4414 18.5312 10.4414ZM11.7578 14.3438C12.8242 14.3438 13.6797 13.4883 13.6797 12.4102C13.6797 11.3438 12.8242 10.4883 11.7578 10.4883C10.6914 10.4883 9.82422 11.3438 9.82422 12.4102C9.82422 13.4883 10.6914 14.3438 11.7578 14.3438ZM16.2812 14.3438C17.3477 14.3438 18.2031 13.4883 18.2031 12.4102C18.2031 11.3438 17.3477 10.4883 16.2812 10.4883C15.2031 10.4883 14.3477 11.3438 14.3477 12.4102C14.3477 13.4883 15.2031 14.3438 16.2812 14.3438ZM9.92969 27C11.6641 27 13.0703 25.6055 13.0703 23.8711C13.0703 22.1367 11.6641 20.7305 9.92969 20.7305C8.19531 20.7305 6.80078 22.1367 6.80078 23.8711C6.80078 25.6055 8.19531 27 9.92969 27ZM18.0859 27C19.832 27 21.2266 25.6055 21.2266 23.8711C21.2266 22.1367 19.832 20.7305 18.0859 20.7305C16.3516 20.7305 14.957 22.1367 14.957 23.8711C14.957 25.6055 16.3516 27 18.0859 27Z" fill="black" fill-opacity="0.85"/>
</svg>
