<svg width="28" height="28" viewBox="0 0 28 28" fill="none" xmlns="http://www.w3.org/2000/svg">
<path d="M13.9531 25.9062C20.4922 25.9062 25.9062 20.4805 25.9062 13.9531C25.9062 7.41406 20.4805 2 13.9414 2C7.41406 2 2 7.41406 2 13.9531C2 20.4805 7.42578 25.9062 13.9531 25.9062ZM13.9531 23.9141C8.42188 23.9141 4.00391 19.4844 4.00391 13.9531C4.00391 8.42188 8.41016 3.99219 13.9414 3.99219C19.4727 3.99219 23.9141 8.42188 23.9141 13.9531C23.9141 19.4844 19.4844 23.9141 13.9531 23.9141Z" fill="black" fill-opacity="0.85"/>
<path d="M10.7891 18.8984C12.4766 18.8984 13.7656 17.8438 13.7656 16.0859C13.7656 14.6328 12.8984 13.918 11.9023 13.8125V13.7773C12.9688 13.4961 13.4844 12.5469 13.4844 11.5625C13.4844 9.94531 12.2773 9.01953 10.7422 9.01953C9.53516 9.01953 8.49219 9.69922 8.15234 10.7422C8.09375 10.9648 8.05859 11.1758 8.05859 11.375C8.05859 11.7617 8.31641 12.0664 8.78516 12.0664C9.18359 12.0664 9.41797 11.9141 9.53516 11.5039C9.72266 10.8125 10.0859 10.3789 10.7422 10.3789C11.5273 10.3789 11.8906 10.9766 11.8906 11.75C11.8906 12.6055 11.4102 13.2266 10.5312 13.2266H10.25C9.86328 13.2266 9.60547 13.4727 9.60547 13.8594C9.60547 14.2461 9.86328 14.4688 10.25 14.4688H10.5547C11.5508 14.4688 12.1016 15.0195 12.1016 16.0391C12.1016 16.8477 11.668 17.5391 10.8008 17.5391C9.94531 17.5391 9.55859 16.9648 9.41797 16.4258C9.30078 16.0508 9.05469 15.8516 8.67969 15.8516C8.22266 15.8516 7.90625 16.1328 7.90625 16.5898C7.90625 16.8008 7.94141 17.0117 8 17.1992C8.33984 18.2891 9.53516 18.8984 10.7891 18.8984ZM16.5195 18.8516C16.9414 18.8516 17.1406 18.6758 17.293 18.2539L19.9766 11.1055C20.1055 10.7422 20.1992 10.4609 20.1992 10.1211C20.1992 9.58203 19.7773 9.21875 19.2617 9.21875H15.4766C15.0664 9.21875 14.7969 9.51172 14.7969 9.91016C14.7969 10.3086 15.0664 10.6016 15.4766 10.6016H18.4883V10.707L15.8867 17.4336C15.7812 17.6914 15.7461 17.8438 15.7461 18.125C15.7461 18.4648 15.957 18.8516 16.5195 18.8516Z" fill="black" fill-opacity="0.85"/>
</svg>
