<svg width="28" height="28" viewBox="0 0 28 28" fill="none" xmlns="http://www.w3.org/2000/svg">
<g clip-path="url(#clip0_2124_88485)">
<path d="M7.21484 25.263L20.0352 27.5247C22.332 27.9349 23.7266 26.6575 23.7266 24.138V9.99351C23.7266 7.69663 22.5547 6.8646 20.2695 6.46616L7.82422 4.26304C6.11328 3.97007 5 4.89585 5 6.58335V22.7083C5 24.1614 5.73828 25.0052 7.21484 25.263ZM9.32422 10.7669C8.92578 10.6966 8.69141 10.3919 8.69141 9.97007C8.69141 9.46616 9.07812 9.13804 9.64062 9.23179L18.8984 10.849C19.3203 10.9427 19.5547 11.177 19.5547 11.6458C19.5547 12.1497 19.2031 12.5013 18.6289 12.4075L9.32422 10.7669ZM9.32422 15.4778C8.92578 15.4075 8.69141 15.1028 8.69141 14.681C8.69141 14.1888 9.07812 13.8606 9.64062 13.9544L18.8984 15.5716C19.3203 15.6536 19.5547 15.8997 19.5547 16.3567C19.5547 16.8724 19.2031 17.2239 18.6289 17.1302L9.32422 15.4778ZM10.4141 3.10288L20.5508 4.88413C21.5469 5.07163 22.3789 5.34116 23.0586 5.71616V4.8021C23.0586 2.34116 21.4062 1.15757 18.6289 1.64975L10.4141 3.10288Z" fill="black" fill-opacity="0.85"/>
</g>
<defs>
<clipPath id="clip0_2124_88485">
<rect width="18.7266" height="26.6004" fill="white" transform="translate(5 1)"/>
</clipPath>
</defs>
</svg>
