<svg width="29" height="29" viewBox="0 0 29 29" fill="none" xmlns="http://www.w3.org/2000/svg">
<g clip-path="url(#clip0_2124_45947)">
<path d="M23.9967 8.37598C25.7428 8.37598 27.149 6.91114 27.149 5.21192C27.149 3.44239 25.7428 2.0127 23.9967 2.0127C22.2154 2.0127 20.8092 3.44239 20.8092 5.21192C20.8092 6.95801 22.2154 8.37598 23.9967 8.37598ZM5.10605 25.1455C5.71543 25.7783 6.7584 25.7315 7.5084 24.958L12.5475 19.7549C12.7115 19.5791 12.8287 19.5322 13.0983 19.6377L17.0358 21.126C19.5553 22.0986 21.9459 21.2666 23.0475 19.251L25.5787 14.6455C26.5631 12.8525 26.2584 11.001 24.5475 10.0869C22.8951 9.18458 21.1725 9.86426 20.1764 11.7041L16.8951 17.6924L14.0944 16.6729C12.7115 16.1689 11.5514 16.333 10.4498 17.4815L5.21152 22.8955C4.48496 23.6455 4.55527 24.583 5.10605 25.1455Z" fill="black" fill-opacity="0.85"/>
<path d="M5.85638 6.6885C5.85638 7.18069 6.23138 7.56741 6.72357 7.56741H11.3173V9.39553C11.3173 10.2158 12.1493 10.5791 12.7704 10.0283L15.8056 7.33303C16.2157 6.94631 16.2157 6.46584 15.8056 6.09084L12.7704 3.39553C12.1728 2.86819 11.3173 3.16116 11.3173 4.02834V5.84475H6.72357C6.23138 5.84475 5.85638 6.21975 5.85638 6.6885ZM3.57123 8.03616C3.10248 8.03616 2.72748 8.42288 2.72748 8.90334V13.4854L0.911067 13.4971C0.0321608 13.5088 -0.260808 14.3643 0.266536 14.9385L2.97357 17.9854C3.34857 18.4072 3.84076 18.3955 4.21576 17.9854L6.89935 14.9385C7.45013 14.3291 7.09857 13.4854 6.26654 13.4854H4.43841V8.90334C4.43841 8.42288 4.0517 8.03616 3.57123 8.03616Z" fill="black" fill-opacity="0.85"/>
</g>
<defs>
<clipPath id="clip0_2124_45947">
<rect width="27.1454" height="23.7773" fill="white" transform="translate(0.00390625 2.0127)"/>
</clipPath>
</defs>
</svg>
