<svg width="28" height="28" viewBox="0 0 28 28" fill="none" xmlns="http://www.w3.org/2000/svg">
<path d="M6.67969 24.5977H20.8945C23.3555 24.5977 24.5742 23.3789 24.5742 20.9648V6.65625C24.5742 4.24219 23.3555 3.02344 20.8945 3.02344H6.67969C4.23047 3.02344 3 4.23047 3 6.65625V20.9648C3 23.3906 4.23047 24.5977 6.67969 24.5977Z" fill="black" fill-opacity="0.85"/>
<path d="M8.14453 18.6797C7.58203 18.6797 7.32422 18.3867 7.32422 17.9766C7.32422 17.5898 7.54688 17.2852 7.78125 17.0039L9.86719 14.3203C10.5117 13.5117 11.1914 12.5273 11.1914 11.5547C11.1914 10.6992 10.7812 10.0664 10.0547 10.0664C9.36328 10.0664 9.07031 10.5703 8.83594 11.3789C8.71875 11.7773 8.47266 11.9531 8.07422 11.9531C7.59375 11.9531 7.34766 11.6484 7.34766 11.1914C7.34766 9.9375 8.51953 8.66016 10.0664 8.66016C11.7305 8.66016 12.8437 9.84375 12.8437 11.4727C12.8437 12.5391 12.4453 13.4297 11.2266 14.9297L9.48047 17.1562V17.25H12.3398C12.75 17.25 13.0312 17.5078 13.0312 17.9766C13.0312 18.3984 12.7617 18.6797 12.3398 18.6797H8.14453ZM16.6523 15.3047C15.0469 15.3047 14.2617 13.7578 14.2617 12.1289C14.2617 10.2305 15.3281 8.68359 17.168 8.68359C19.6172 8.68359 20.3438 11.4141 20.3438 13.6992C20.3438 16.1719 19.6172 18.9141 17.1445 18.9141C15.9375 18.9141 14.8828 18.2812 14.625 17.2266C14.5898 17.0859 14.5547 16.9336 14.5547 16.793C14.5547 16.3945 14.7773 16.0547 15.2812 16.0547C15.6445 16.0547 15.8906 16.207 16.0547 16.6055C16.2773 17.1211 16.6406 17.4961 17.1797 17.4961C18.5273 17.4961 18.6914 15.082 18.6914 13.7461C18.6914 13.7109 18.6914 13.6641 18.6914 13.6172H18.6445C18.375 14.6484 17.6367 15.3047 16.6523 15.3047ZM17.1914 13.9688C18.0586 13.9688 18.4688 12.9844 18.4688 12.0469C18.4688 11.1445 18.0938 10.1016 17.1914 10.1016C16.3477 10.1016 15.9375 11.1445 15.9375 12.0469C15.9375 12.9492 16.3008 13.9688 17.1914 13.9688Z" fill="white"/>
</svg>
