<svg width="28" height="28" viewBox="0 0 28 28" fill="none" xmlns="http://www.w3.org/2000/svg">
<path d="M8.98047 22.7578H15.0859C18.6719 22.7578 20.9336 20.8711 20.9336 17.9766C20.9336 15.6914 19.2812 14.0391 16.9023 13.9102V13.8164C18.8477 13.5469 20.1719 12.082 20.1719 10.2188C20.1719 7.60547 18.168 6 14.9219 6H8.98047C7.72656 6 7 6.73828 7 8.02734V20.7422C7 22.0195 7.72656 22.7578 8.98047 22.7578ZM10.8672 20.0508V15.3984H13.8086C15.8594 15.3984 17.0078 16.1953 17.0078 17.6953C17.0078 19.2305 15.9062 20.0508 13.8906 20.0508H10.8672ZM10.8672 12.9609V8.75391H13.75C15.3906 8.75391 16.3633 9.50391 16.3633 10.793C16.3633 12.1523 15.2852 12.9609 13.457 12.9609H10.8672Z" fill="black" fill-opacity="0.85"/>
</svg>
