<svg width="28" height="28" viewBox="0 0 28 28" fill="none" xmlns="http://www.w3.org/2000/svg">
<path d="M4.69531 19.1211L6.00781 16.6133C6.33594 15.9922 6.6875 15.5938 7.0625 15.5938C7.42578 15.5938 7.8125 15.9688 8.375 16.6953C9.45312 18.0898 10.1914 18.8047 10.9414 18.8047C11.668 18.8047 12.5117 17.7734 12.5117 17.0703C12.5117 16.5547 11.8086 16.0742 11.8086 15.8164C11.8086 15.6992 11.9141 15.6289 12.1133 15.6289C13.8242 15.6289 15.3125 14.2227 15.3125 13.0859C15.3125 12.0195 14.1523 11.2109 14.1523 10.8477C14.1523 10.7773 14.2109 10.7188 14.2812 10.7188C14.3867 10.7188 14.5273 10.8359 14.7969 11.0469C16.1094 12.0898 16.7656 11.5039 16.8828 10.8477C16.9297 10.5898 17.0703 10.332 17.7148 10.0039C18.9336 9.37109 20.1758 8.26953 20.1758 7.35547C20.1758 6.17188 18.582 5.66797 18.582 5.38672C18.582 5.21094 18.9688 5.04688 19.707 4.83594L19.4141 3.6875C18.1836 4.00391 17.2578 4.60156 17.2578 5.31641C17.2578 6.25391 18.9922 6.79297 18.9922 7.35547C18.9922 7.89453 17.9961 8.50391 17.2578 8.90234C16.0039 9.61719 16.0977 9.94531 15.9336 10.3086C15.6406 10.8359 15.0664 9.74609 14.0938 9.74609C13.5078 9.74609 13.0625 10.1211 13.0625 10.707C13.0625 11.6094 14.1289 12.4531 14.1289 13.0859C14.1289 13.8359 13.2617 14.5625 11.7734 14.5625C10.9531 14.5625 10.5078 14.9258 10.5078 15.5586C10.5078 16.1797 11.2812 16.7656 11.2812 17.0703C11.2812 17.293 11.1055 17.5156 10.9648 17.5156C10.7188 17.5156 10.1797 17.0703 9.3125 15.9688C8.55078 14.9727 7.84766 14.4102 7.13281 14.4102C6.125 14.4102 5.49219 15.2422 5.12891 15.9102L3.98047 18.0195L4.69531 19.1211ZM19.168 23.9492L20.1172 23.2227C19.5898 22.5195 18.9219 21.5 17.5273 21.5C16.6719 21.5 16.4961 21.7812 15.9102 21.7812C15.5586 21.7812 15.3711 21.4766 15.2188 20.832C15.0781 20.2695 15.0195 19.8594 15.3828 19.707C15.8047 19.543 17.2227 19.3789 17.7031 17.8789C18.043 16.8594 18.3594 16.4609 18.9219 16.4609C19.9297 16.4609 19.7656 17.5273 20.9727 17.5273C21.5 17.5273 21.7812 17.3047 22.1562 17.3047C22.6719 17.3047 23.0234 17.8086 23.1172 19.0391L24.3008 18.5703C24.1016 17.0234 23.3633 16.1211 22.3203 16.1211C22.0508 16.1211 21.6992 16.168 21.3828 16.2734C20.9961 16.4023 20.9375 16.3789 20.6328 16.0273C20.1523 15.4766 19.7305 15.2773 19.0625 15.2773C17.8789 15.2773 17.1172 15.8516 16.5547 17.5391C16.4141 17.9961 16.2148 18.1484 15.4062 18.4531L14.9141 18.6289C13.9883 18.9805 13.7188 19.6602 14.0469 21.0898C14.3398 22.3438 14.9492 22.9766 15.8047 22.9766C16.5664 22.9766 17.0234 22.707 17.5273 22.707C18.2656 22.6836 18.6172 23.1758 19.168 23.9492ZM16.7773 13.2383C17.5391 13.2383 17.8789 12.5586 18.7344 12.3008C19.2969 12.1367 19.6016 11.5625 19.6016 11.0703C19.6016 10.6719 19.4023 10.332 18.9688 10.332C18.5117 10.332 18.0898 10.6836 17.8086 11.2812C17.6562 11.6211 17.3984 11.7852 16.7773 11.9609C16.2852 12.1133 16.1094 12.2891 16.1094 12.6641C16.1094 13.0625 16.4258 13.2383 16.7773 13.2383ZM13.3789 18.6523C14.0469 18.6523 14.7031 17.8789 14.7031 17.1875C14.7031 16.332 14.3516 15.9336 13.9414 15.9336C13.4961 15.9336 13.2148 16.4609 13.2148 17.2578C13.2148 17.7148 12.8164 17.7266 12.8164 18.1836C12.8164 18.4648 13.0391 18.6523 13.3789 18.6523ZM11.3281 20.7969C11.8438 20.7969 12.1602 20.5273 12.1602 20.1055C12.1602 19.7773 11.9141 19.5664 11.5625 19.5664C10.1445 19.5664 10.0859 18.7695 9.40625 18.7695C9.03125 18.7695 8.77344 18.9922 8.77344 19.3203C8.77344 19.5781 9.03125 19.7773 9.38281 19.7773C10.1328 19.7773 9.78125 20.7969 11.3281 20.7969ZM13.9531 25.9062C20.4922 25.9062 25.9062 20.4805 25.9062 13.9531C25.9062 7.41406 20.4805 2 13.9414 2C7.41406 2 2 7.41406 2 13.9531C2 20.4805 7.42578 25.9062 13.9531 25.9062ZM13.9531 24.3125C8.29297 24.3125 3.59375 19.6133 3.59375 13.9531C3.59375 8.29297 8.28125 3.59375 13.9414 3.59375C19.6016 3.59375 24.3125 8.29297 24.3125 13.9531C24.3125 19.6133 19.6133 24.3125 13.9531 24.3125Z" fill="black" fill-opacity="0.85"/>
</svg>
