<svg width="28" height="28" viewBox="0 0 28 28" fill="none" xmlns="http://www.w3.org/2000/svg">
<path d="M13.9531 25.9062C20.4922 25.9062 25.9062 20.4805 25.9062 13.9531C25.9062 7.41406 20.4805 2 13.9414 2C7.41406 2 2 7.41406 2 13.9531C2 20.4805 7.42578 25.9062 13.9531 25.9062ZM13.9531 23.9141C8.42188 23.9141 4.00391 19.4844 4.00391 13.9531C4.00391 8.42188 8.41016 3.99219 13.9414 3.99219C19.4727 3.99219 23.9141 8.42188 23.9141 13.9531C23.9141 19.4844 19.4844 23.9141 13.9531 23.9141Z" fill="black" fill-opacity="0.85"/>
<path d="M11.8672 18.8398C12.3008 18.8398 12.6641 18.5703 12.6641 18.0078V16.8359H13.0859C13.5312 16.8359 13.7539 16.543 13.7539 16.1445C13.7539 15.7695 13.5547 15.4766 13.0859 15.4766H12.6641V10.332C12.6641 9.52344 12.1367 9.06641 11.3633 9.06641C10.543 9.06641 10.1562 9.48828 9.82812 10.2148L7.73047 14.7617C7.54297 15.2188 7.47266 15.5234 7.47266 15.8867C7.47266 16.4492 7.85938 16.8359 8.43359 16.8359H11.0586V18.0078C11.0586 18.6289 11.4922 18.8398 11.8672 18.8398ZM11.0937 15.5117H8.91406V15.4297L11.0469 10.543H11.0937V15.5117ZM16.3555 18.8516C16.7891 18.8516 16.9766 18.6758 17.1406 18.2539L19.8125 11.1055C19.9414 10.7422 20.0352 10.4609 20.0352 10.1211C20.0352 9.58203 19.6133 9.21875 19.0977 9.21875H15.3125C14.9141 9.21875 14.6328 9.51172 14.6328 9.91016C14.6328 10.3086 14.9141 10.6016 15.3125 10.6016H18.3242V10.707L15.7227 17.4336C15.6289 17.6914 15.582 17.8438 15.582 18.125C15.582 18.4648 15.793 18.8516 16.3555 18.8516Z" fill="black" fill-opacity="0.85"/>
</svg>
