<svg width="28" height="28" viewBox="0 0 28 28" fill="none" xmlns="http://www.w3.org/2000/svg">
<g clip-path="url(#clip0_2124_89072)">
<path d="M13.9531 25.918C20.4922 25.918 25.9062 20.5039 25.9062 13.9648C25.9062 7.4375 20.4805 2.01172 13.9414 2.01172C7.41406 2.01172 2 7.4375 2 13.9648C2 20.5039 7.42578 25.918 13.9531 25.918Z" fill="black" fill-opacity="0.85"/>
<path d="M8.52725 14.2578C8.03507 14.6445 7.53116 14 7.94132 13.6836L13.3085 9.42969C13.5077 9.27734 13.7304 9.19531 13.953 9.19531C14.1757 9.19531 14.3983 9.28906 14.5858 9.42969L19.953 13.6836C20.3749 14 19.871 14.6445 19.3671 14.2578L14.1405 10.1563C14.0937 10.1094 13.9999 10.0859 13.953 10.0859C13.8944 10.0859 13.8124 10.1094 13.7538 10.1563L8.52725 14.2578ZM9.79288 17.5742C9.14835 17.5742 8.76163 17.2109 8.76163 16.543V14.8906C8.91397 14.8203 9.0546 14.7266 9.2421 14.6094L13.953 10.8945L18.6522 14.6094C18.8515 14.7266 18.9804 14.8203 19.1444 14.8906V16.543C19.1444 17.2109 18.7577 17.5742 18.1132 17.5742H9.79288ZM12.6991 16.7891H15.1952V14.6914C15.1952 14.5039 15.078 14.3633 14.8671 14.3633H13.039C12.8397 14.3633 12.6991 14.5039 12.6991 14.6914V16.7891ZM7.50772 13.1211C7.03897 13.4609 7.00382 13.9297 7.16788 14.3281H5.246C4.84757 14.3281 4.7421 13.8828 4.99991 13.707L8.08194 11.5508C8.23429 11.4453 8.41007 11.3984 8.59757 11.3984H9.71085L7.50772 13.1211ZM8.04679 16.543C8.04679 16.9414 8.14053 17.2812 8.32803 17.5742H6.81632C6.14835 17.5742 5.76163 17.2109 5.76163 16.543V15.0195L8.04679 15.0078V16.543ZM20.3983 13.1211L18.1952 11.3984H19.2968C19.496 11.3984 19.6483 11.4453 19.8124 11.5508L22.8944 13.707C23.1757 13.9062 23.0468 14.3281 22.6483 14.3281H20.7265C20.8905 13.9297 20.8554 13.4609 20.3983 13.1211ZM19.8593 16.543V15.0078L22.1444 15.0195V16.543C22.1444 17.2109 21.7577 17.5742 21.0897 17.5742H19.578C19.7538 17.2812 19.8593 16.9414 19.8593 16.543Z" fill="white"/>
</g>
<defs>
<clipPath id="clip0_2124_89072">
<rect width="23.9062" height="23.918" fill="white" transform="translate(2 2)"/>
</clipPath>
</defs>
</svg>
