<svg width="28" height="28" viewBox="0 0 28 28" fill="none" xmlns="http://www.w3.org/2000/svg">
<path d="M6.67969 24.5977H20.8945C23.3555 24.5977 24.5742 23.3789 24.5742 20.9648V6.65625C24.5742 4.24219 23.3555 3.02344 20.8945 3.02344H6.67969C4.23047 3.02344 3 4.23047 3 6.65625V20.9648C3 23.3906 4.23047 24.5977 6.67969 24.5977ZM6.70312 22.7109C5.53125 22.7109 4.88672 22.0898 4.88672 20.8711V6.75C4.88672 5.53125 5.53125 4.91016 6.70312 4.91016H20.8711C22.0312 4.91016 22.6875 5.53125 22.6875 6.75V20.8711C22.6875 22.0898 22.0312 22.7109 20.8711 22.7109H6.70312Z" fill="black" fill-opacity="0.85"/>
<path d="M21.0703 13.8047C21.0703 13.5352 20.9648 13.3359 20.7422 13.1133L17.3555 9.72656C17.2031 9.5625 16.9922 9.48047 16.7461 9.48047C16.2656 9.48047 15.9023 9.85547 15.9023 10.3359C15.9023 10.582 15.9961 10.8047 16.1602 10.957L17.0508 11.8242L18.4805 13.0195L15.9961 12.9258H11.5898L9.10547 13.0195L10.5234 11.8242L11.4141 10.957C11.5781 10.8047 11.6719 10.582 11.6719 10.3359C11.6719 9.85547 11.3086 9.48047 10.8281 9.48047C10.582 9.48047 10.3711 9.5625 10.2187 9.72656L6.83203 13.1133C6.60938 13.3359 6.50391 13.5352 6.50391 13.8047C6.50391 14.0508 6.60938 14.2383 6.83203 14.4727L10.2187 17.8828C10.3711 18.0352 10.582 18.1172 10.8281 18.1172C11.3086 18.1172 11.6719 17.7422 11.6719 17.2734C11.6719 17.0156 11.5664 16.8047 11.4141 16.6406L10.5234 15.7617L9.11719 14.5898L11.5898 14.6719H15.9961L18.4688 14.5898L17.0508 15.7617L16.1602 16.6406C16.0078 16.8047 15.9023 17.0156 15.9023 17.2734C15.9023 17.7422 16.2656 18.1172 16.7461 18.1172C16.9922 18.1172 17.2031 18.0352 17.3555 17.8828L20.7422 14.4727C20.9648 14.2383 21.0703 14.0508 21.0703 13.8047Z" fill="black" fill-opacity="0.85"/>
</svg>
