<svg width="31" height="28" viewBox="0 0 31 28" fill="none" xmlns="http://www.w3.org/2000/svg">
<g clip-path="url(#clip0_2124_89177)">
<path d="M25.4214 26.5C28.6324 26.5 30.6714 24.9766 30.6714 22.5625C30.6714 20.1484 29.1011 19.5508 29.1011 18.5312C29.1011 17.7461 29.441 17.0312 29.441 16.0586C29.441 14.4531 28.316 13.4336 26.3472 13.1992V6.28516C26.3472 5.81641 26.3941 5.67578 26.6753 5.5C26.9097 5.33594 27.0152 5.20703 26.9918 4.98438L26.816 2.08984C26.8043 1.83203 26.6168 1.64453 26.3824 1.64453H24.4488C24.2261 1.64453 24.0386 1.83203 24.0269 2.08984L23.8511 4.98438C23.8277 5.20703 23.9332 5.33594 24.1675 5.5C24.4371 5.6875 24.4839 5.82812 24.4839 6.28516V13.1992C22.5269 13.4336 21.4019 14.4531 21.4019 16.0586C21.4019 17.0312 21.7418 17.7461 21.7418 18.5312C21.7418 19.5508 20.1714 20.1484 20.1714 22.5625C20.1714 24.9766 22.2105 26.5 25.4214 26.5ZM25.4214 25.1758C22.9605 25.1758 21.4957 24.1914 21.4957 22.5625C21.4957 20.6758 23.0777 19.9375 23.0777 18.5078C23.0777 17.6875 22.7261 16.8203 22.7261 16.0586C22.7261 14.8164 23.8277 14.4297 25.4214 14.4297C27.0152 14.4297 28.1168 14.8164 28.1168 16.0586C28.1168 16.8203 27.7652 17.6875 27.7652 18.5078C27.7652 19.9375 29.3472 20.6758 29.3472 22.5625C29.3472 24.1914 27.8824 25.1758 25.4214 25.1758ZM25.4214 19.457C26.1246 19.457 26.6871 18.8828 26.6871 18.1914C26.6871 17.4883 26.1246 16.9141 25.4214 16.9141C24.7183 16.9141 24.1441 17.4883 24.1441 18.1914C24.1441 18.8828 24.7066 19.457 25.4214 19.457ZM23.9214 22.7734H26.898C27.1793 22.7734 27.4136 22.5508 27.4136 22.2695C27.4136 21.9766 27.1793 21.7422 26.898 21.7422H23.9214C23.6519 21.7422 23.4058 21.9883 23.4058 22.2695C23.4058 22.5508 23.6402 22.7734 23.9214 22.7734Z" fill="black" fill-opacity="0.85"/>
<path d="M16.2338 27.168C19.7143 27.168 22.0932 25.0469 22.0932 21.8711C22.0932 19.2109 20.6401 18.168 20.6401 17.7109C20.6401 17.0547 21.437 16.3398 21.437 14.8867C21.437 13.6797 20.5932 12.8008 19.4565 12.8008C18.7182 12.8008 18.1909 13.1289 17.7573 13.6211L17.769 6.77734C18.0854 6.60156 18.2846 6.29688 18.3549 5.75781L18.5893 3.35547C18.6127 2.95703 18.4604 2.54688 18.144 2.25391L17.1245 1.38672C16.8901 1.17578 16.5737 1.04688 16.2338 1.04688C15.894 1.04688 15.5776 1.17578 15.3432 1.38672L14.3354 2.25391C14.0424 2.53516 13.8549 2.95703 13.8901 3.36719L14.1245 5.75781C14.1596 6.29688 14.394 6.58984 14.6987 6.76562L14.7221 13.6445C14.3237 13.2227 13.6909 12.8008 13.0112 12.8008C11.8745 12.8008 11.0307 13.6797 11.0307 14.8867C11.0307 16.3398 11.8276 17.0547 11.8276 17.7109C11.8276 18.168 10.3745 19.2109 10.3745 21.8711C10.3745 25.0469 12.7534 27.168 16.2338 27.168Z" fill="white"/>
<path d="M16.2339 26.5703C19.4097 26.5703 21.4957 24.6953 21.4957 21.8711C21.4957 19.5391 20.0425 18.4609 20.0425 17.7109C20.0425 16.8086 20.8394 16.0703 20.8394 14.8867C20.8394 14.0195 20.2652 13.3984 19.4566 13.3984C18.7183 13.3984 18.2613 13.8203 17.9918 14.2773C17.7808 14.6055 17.5816 14.8281 17.441 14.8281C17.2183 14.8281 17.1597 14.4297 17.1597 13.8789L17.1714 6.71875C17.1714 6.37891 17.1714 6.35547 17.3589 6.29688C17.6285 6.21484 17.7105 6.0625 17.7574 5.69922L17.9918 3.30859C18.0035 3.08594 17.9214 2.875 17.7339 2.71094L16.7378 1.83203C16.5972 1.71484 16.4332 1.64453 16.2339 1.64453C16.0464 1.64453 15.8707 1.71484 15.7418 1.83203L14.7339 2.71094C14.5699 2.86328 14.4644 3.09766 14.4878 3.30859L14.7222 5.69922C14.7457 6.05078 14.8511 6.21484 15.1207 6.29688C15.273 6.33203 15.2964 6.39062 15.2964 6.71875L15.3199 13.8789C15.3199 14.3945 15.2496 14.8281 15.0386 14.8281C14.8863 14.8281 14.6871 14.6055 14.4878 14.2773C14.2066 13.8203 13.7496 13.3984 13.0113 13.3984C12.2027 13.3984 11.6285 14.0195 11.6285 14.8867C11.6285 16.0703 12.4253 16.8086 12.4253 17.7109C12.4253 18.4609 10.9722 19.5391 10.9722 21.8711C10.9722 24.6953 13.0699 26.5703 16.2339 26.5703ZM16.2339 25.2227C13.7847 25.2227 12.3082 23.9688 12.3082 21.8711C12.3082 19.7148 13.7496 19.0117 13.7496 17.7227C13.7496 16.5156 12.941 15.8125 12.941 14.875C12.941 14.7695 13.023 14.6875 13.105 14.6875C13.6324 14.6875 13.9136 16.1055 15.0855 16.1055C15.6128 16.1055 16.0113 15.7891 16.1871 15.1914H16.2808C16.4683 15.8008 16.8785 16.1055 17.4058 16.1055C18.5543 16.1055 18.8355 14.6875 19.3628 14.6875C19.4449 14.6875 19.5269 14.7695 19.5269 14.875C19.5269 15.8125 18.7183 16.5156 18.7183 17.7227C18.7183 19.0117 20.1597 19.7148 20.1597 21.8711C20.1597 23.9688 18.6832 25.2227 16.2339 25.2227ZM13.9136 21.6719C14.1597 21.7656 14.4293 21.6367 14.523 21.3906L15.4957 18.7188C15.5777 18.4727 15.4605 18.1914 15.2144 18.1094C14.9683 18.0156 14.6988 18.1445 14.605 18.3906L13.6324 21.0742C13.5503 21.3086 13.6675 21.5898 13.9136 21.6719ZM18.5543 21.6719C18.8003 21.5898 18.9293 21.3086 18.8472 21.0742L17.8746 18.3906C17.7808 18.1445 17.5113 18.0156 17.2652 18.1094C17.0191 18.1914 16.8902 18.4727 16.9722 18.7188L17.9449 21.3906C18.0386 21.6367 18.3082 21.7656 18.5543 21.6719Z" fill="black" fill-opacity="0.85"/>
<path d="M0.226229 24.1445C-0.394864 25.5273 0.284823 27.1328 1.99576 27.1328C2.59342 27.1328 3.12076 26.8984 3.82389 26.3242L6.8942 23.7578L9.97623 26.3242C10.6794 26.8984 11.195 27.1328 11.8044 27.1328C13.5036 27.1328 14.1833 25.5273 13.5739 24.1445L8.44107 12.5781V7.25781C8.44107 4.65625 8.88639 2.67578 8.88639 2.21875C8.88639 1.53906 8.40592 1.04688 7.73795 1.04688C7.36295 1.04688 7.03482 1.19922 6.57779 1.69141L3.99967 4.66797C3.50748 5.24219 3.65982 6.01562 4.31607 6.35547L5.37076 6.87109V12.5312L0.226229 24.1445Z" fill="white"/>
<path d="M0.77697 24.3789C0.343376 25.3633 0.706657 26.5352 1.99572 26.5352C2.44103 26.5352 2.82775 26.3594 3.42541 25.8672L6.63635 23.1836C6.76525 23.0781 6.84728 23.043 6.89416 23.043C6.95275 23.043 7.02306 23.0781 7.15197 23.1836L10.3629 25.8672C10.9723 26.3594 11.3473 26.5352 11.8044 26.5352C13.0817 26.5352 13.4567 25.3633 13.0114 24.3789L7.84338 12.6953V7.25781C7.84338 4.58594 8.28869 2.59375 8.28869 2.21875C8.28869 1.86719 8.07775 1.64453 7.73791 1.64453C7.51525 1.64453 7.32775 1.77344 7.03478 2.08984L4.44494 5.05469C4.21056 5.32422 4.26916 5.66406 4.57385 5.81641C5.59338 6.28516 5.96838 6.42578 5.96838 7.25781V12.6602L0.77697 24.3789ZM1.99572 24.8477L6.82385 13.8086H6.96447L11.8044 24.8477C11.9333 25.1406 11.6989 25.293 11.4762 25.1055L7.86681 22.0938C7.49181 21.7891 7.18713 21.6367 6.89416 21.6367C6.61291 21.6367 6.30822 21.7891 5.9215 22.0938L2.31213 25.1055C2.10119 25.293 1.86681 25.1406 1.99572 24.8477ZM8.12463 19.4922C8.42931 19.4922 8.68713 19.2461 8.68713 18.9414C8.68713 18.625 8.44103 18.3555 8.12463 18.3555C7.81994 18.3555 7.56213 18.6367 7.56213 18.9414C7.56213 19.2344 7.81994 19.4922 8.12463 19.4922ZM8.74572 20.9688C9.05041 20.9688 9.31994 20.7109 9.31994 20.4062C9.31994 20.0898 9.05041 19.832 8.74572 19.832C8.44103 19.832 8.1715 20.1016 8.1715 20.4062C8.1715 20.7109 8.44103 20.9688 8.74572 20.9688ZM9.34338 22.4336C9.65978 22.4336 9.92931 22.1641 9.92931 21.8711C9.92931 21.5664 9.6715 21.2969 9.34338 21.2969C9.06213 21.2969 8.80431 21.5664 8.80431 21.8711C8.80431 22.1758 9.03869 22.4336 9.34338 22.4336Z" fill="black" fill-opacity="0.85"/>
</g>
<defs>
<clipPath id="clip0_2124_89177">
<rect width="30.6715" height="26.168" fill="white" transform="translate(0 1)"/>
</clipPath>
</defs>
</svg>
