<svg width="28" height="29" viewBox="0 0 28 29" fill="none" xmlns="http://www.w3.org/2000/svg">
<g clip-path="url(#clip0_2124_46032)">
<path d="M0.75 17.1275C1.16016 17.1157 1.45312 16.7993 1.46484 16.3775C1.55859 12.4751 3.03516 8.85403 7.32422 6.32278C7.6875 6.10013 7.80469 5.67825 7.62891 5.31497C7.42969 4.96341 6.92578 4.81106 6.5625 5.04544C1.93359 7.65872 0 11.8775 0 16.354C0 16.7759 0.351562 17.1392 0.75 17.1275Z" fill="black" fill-opacity="0.85"/>
<path d="M21.2345 26.4204C26.7189 24.4282 29.1095 19.2603 26.9532 13.2603L26.086 10.8462C25.0313 7.92825 22.8399 6.35794 20.3087 6.7681C19.2892 6.05325 17.9415 5.99466 16.8282 6.47513C16.0665 5.99466 15.2228 5.87747 14.3673 6.0181L13.5939 3.88528C12.797 1.69388 10.629 0.650911 8.47277 1.41263C6.33995 2.2095 5.28527 4.36575 6.10558 6.60403L7.95714 11.6665C7.51183 11.5025 7.04308 11.5025 6.59777 11.6665C4.69933 12.3579 3.57433 14.2915 4.30089 16.3306C4.46495 16.7759 4.76964 17.3853 5.20323 17.9009L9.12902 22.6353C12.504 26.7134 16.6876 28.0728 21.2345 26.4204Z" fill="white"/>
<path d="M20.6957 24.9087C25.3481 23.2212 27.3285 18.9556 25.4535 13.7993L24.5746 11.397C23.6606 8.85403 21.9145 7.81106 19.8637 8.52591C19.3129 7.81106 18.4692 7.56497 17.5551 7.8931C17.2152 8.022 16.9106 8.19778 16.641 8.40872C16.0434 7.63528 15.1176 7.34231 14.1566 7.69388C13.8988 7.78763 13.6527 7.92825 13.4184 8.09231L12.0824 4.43606C11.5785 3.04153 10.3129 2.4556 9.01216 2.92435C7.69966 3.40481 7.11372 4.65872 7.61763 6.05325L10.9574 15.2407C10.9809 15.2993 10.9692 15.3462 10.9106 15.3696C10.8637 15.3814 10.8285 15.3696 10.7934 15.3228L9.4106 13.8345C8.73091 13.1079 7.92232 12.8853 7.13716 13.1665C6.07075 13.565 5.37935 14.5845 5.81294 15.7915C5.93013 16.1314 6.1645 16.5415 6.43403 16.8814L10.3598 21.6157C13.3246 25.2134 16.8051 26.3267 20.6957 24.9087ZM20.1918 23.3735C17.1215 24.4985 14.2387 23.9243 11.5316 20.6548L7.60591 15.9321C7.48872 15.7915 7.40669 15.6626 7.33638 15.4634C7.19575 15.0884 7.35982 14.6548 7.80513 14.4907C8.18013 14.3618 8.4731 14.5025 8.77778 14.8189L11.4848 17.6196C11.9418 18.0884 12.3402 18.1353 12.727 17.9946C13.1957 17.8306 13.3832 17.3384 13.1957 16.8345L9.04732 5.42044C8.87153 4.95169 9.08247 4.50638 9.52778 4.34231C9.98482 4.17825 10.4066 4.40091 10.5824 4.86966L13.5473 13.0142C13.6879 13.4009 14.1215 13.5767 14.5082 13.436C14.8832 13.2954 15.0824 12.8853 14.9418 12.5103L13.8754 9.56888C14.0395 9.41653 14.2621 9.26419 14.4848 9.18216C15.0356 8.98294 15.4926 9.22903 15.7035 9.80325L16.641 12.3579C16.7816 12.7681 17.2152 12.9204 17.5902 12.7798C17.9535 12.6509 18.1879 12.2642 18.0356 11.854L17.2738 9.7681C17.4379 9.61575 17.6606 9.46341 17.8832 9.38138C18.434 9.18216 18.891 9.42825 19.102 10.0025L19.7231 11.7134C19.8754 12.1235 20.309 12.2759 20.684 12.1353C21.0473 12.0064 21.2699 11.6079 21.1293 11.2095L20.6606 9.94388C21.6449 9.59231 22.5707 10.3892 23.2035 12.147L23.9418 14.1509C25.5473 18.5806 24.0824 21.9556 20.1918 23.3735Z" fill="black" fill-opacity="0.85"/>
</g>
<defs>
<clipPath id="clip0_2124_46032">
<rect width="27.7406" height="26.087" fill="white" transform="translate(0 1.01953)"/>
</clipPath>
</defs>
</svg>
