<svg width="28" height="28" viewBox="0 0 28 28" fill="none" xmlns="http://www.w3.org/2000/svg">
<g clip-path="url(#clip0_2124_24687)">
<path d="M3.67969 24.5977H23.9531C26.4141 24.5977 27.6328 23.3789 27.6328 20.9648V6.65625C27.6328 4.24219 26.4141 3.02344 23.9531 3.02344H3.67969C1.23047 3.02344 0 4.23047 0 6.65625V20.9648C0 23.3906 1.23047 24.5977 3.67969 24.5977ZM3.70312 22.7109C2.53125 22.7109 1.88672 22.0898 1.88672 20.8711V6.75C1.88672 5.53125 2.53125 4.91016 3.70312 4.91016H23.9297C25.0898 4.91016 25.7461 5.53125 25.7461 6.75V20.8711C25.7461 22.0898 25.0898 22.7109 23.9297 22.7109H3.70312ZM9.29297 21.8086H18.3516C18.668 21.8086 18.8906 21.5977 18.8906 21.2695C18.8906 20.9414 18.668 20.7188 18.3516 20.7188H9.29297C8.97656 20.7188 8.74219 20.9414 8.74219 21.2695C8.74219 21.5977 8.97656 21.8086 9.29297 21.8086Z" fill="black" fill-opacity="0.85"/>
</g>
<defs>
<clipPath id="clip0_2124_24687">
<rect width="27.6328" height="21.5977" fill="white" transform="translate(0 3)"/>
</clipPath>
</defs>
</svg>
