<svg width="28" height="28" viewBox="0 0 28 28" fill="none" xmlns="http://www.w3.org/2000/svg">
<g clip-path="url(#clip0_2124_78073)">
<path d="M13.9531 25.9062C20.4922 25.9062 25.9062 20.4805 25.9062 13.9531C25.9062 7.41406 20.4805 2 13.9414 2C7.41406 2 2 7.41406 2 13.9531C2 20.4805 7.42578 25.9062 13.9531 25.9062Z" fill="black" fill-opacity="0.85"/>
<path d="M10.8359 19.8594C10.3437 19.8594 9.98047 19.4375 10.0742 18.9336L10.5664 16.5547H9.47656C9.07812 16.5547 8.78516 16.2617 8.78516 15.8398C8.78516 15.3828 9.125 15.0312 9.60547 15.0312H10.8945L11.3984 12.582H10.3437C9.93359 12.582 9.64062 12.2773 9.64062 11.8672C9.64062 11.3984 9.98047 11.0469 10.4609 11.0469H11.7266L12.2422 8.57422C12.3359 8.11719 12.6406 7.87109 13.1328 7.87109C13.625 7.87109 13.9766 8.30469 13.8711 8.79688L13.4141 11.0469H15.6523L16.1797 8.57422C16.2734 8.11719 16.5781 7.87109 17.0469 7.87109C17.5508 7.87109 17.9023 8.29297 17.8203 8.79688L17.3398 11.0469H18.418C18.8164 11.0469 19.1094 11.3516 19.1094 11.7617C19.1094 12.2305 18.7695 12.582 18.2891 12.582H17.0234L16.5078 15.0312H17.5625C17.9609 15.0312 18.2539 15.3359 18.2539 15.7461C18.2539 16.2031 17.9141 16.5547 17.4336 16.5547H16.1797L15.6406 19.168C15.5469 19.6133 15.2305 19.8594 14.7383 19.8594C14.2461 19.8594 13.8945 19.4375 14 18.9336L14.4922 16.5664H12.2539L11.6914 19.168C11.6094 19.6133 11.3164 19.8594 10.8359 19.8594ZM12.4648 15.1719H14.8789L15.4648 12.4531H13.0273L12.4648 15.1719Z" fill="white"/>
</g>
<defs>
<clipPath id="clip0_2124_78073">
<rect width="23.9062" height="23.918" fill="white" transform="translate(2 2)"/>
</clipPath>
</defs>
</svg>
