<svg width="28" height="28" viewBox="0 0 28 28" fill="none" xmlns="http://www.w3.org/2000/svg">
<path d="M13.9531 25.9062C20.4922 25.9062 25.9062 20.4805 25.9062 13.9531C25.9062 7.41406 20.4805 2 13.9414 2C7.41406 2 2 7.41406 2 13.9531C2 20.4805 7.42578 25.9062 13.9531 25.9062Z" fill="black" fill-opacity="0.85"/>
<path d="M11.1758 19.3438C10.543 19.3438 10.2148 18.9102 10.2148 18.2539V9.42969C10.2148 8.77344 10.543 8.33984 11.1758 8.33984H16.8945C17.3516 8.33984 17.6914 8.62109 17.6914 9.125C17.6914 9.60547 17.3516 9.92188 16.8945 9.92188H12.1602V13.0039H16.5781C17.0352 13.0039 17.375 13.2734 17.375 13.7773C17.375 14.2461 17.0352 14.5156 16.5781 14.5156H12.1602V17.7617H16.8945C17.3516 17.7617 17.6914 18.0547 17.6914 18.5586C17.6914 19.0391 17.3516 19.3438 16.8945 19.3438H11.1758Z" fill="white"/>
</svg>
