<svg width="28" height="28" viewBox="0 0 28 28" fill="none" xmlns="http://www.w3.org/2000/svg">
<path d="M10.9727 26.1719H21.2734C23.5 26.1719 24.8359 24.8594 24.8359 22.6562L24.8477 4.55078C24.8477 2.42969 23.418 1 21.3086 1H17.7109C15.8711 1 14.3359 1.48047 12.8945 2.80469L5.48828 9.61328C4.49219 10.5273 4 11.8164 4 13.4219V19.1992C4 23.4414 6.73047 26.1719 10.9727 26.1719ZM11.0195 24.2852C7.73828 24.2852 5.88672 22.4453 5.88672 19.1641V13.4453C5.88672 12.2734 6.15625 11.5586 6.80078 10.9727L14.1953 4.1875C15.2383 3.23828 16.3047 2.88672 17.7578 2.88672H21.2734C22.293 2.88672 22.9609 3.56641 22.9609 4.57422L22.9492 22.6211C22.9492 23.8633 22.457 24.2852 21.2383 24.2852H11.0195Z" fill="black" fill-opacity="0.85"/>
<path d="M10.3867 20.3594H13.4922C13.8438 20.3594 14.1484 20.0547 14.1484 19.7031C14.1484 19.3398 13.8438 19.0469 13.4922 19.0469H11.1719V12.2617C11.1719 11.8398 10.8203 11.4883 10.3984 11.4883C9.96484 11.4883 9.61328 11.8398 9.61328 12.2617V19.5391C9.61328 20.043 9.89453 20.3594 10.3867 20.3594ZM15.7422 20.3477H19.4922C19.8672 20.3477 20.1016 20.0898 20.1016 19.7148C20.1016 19.3047 19.8555 19.082 19.4922 19.082H16.9258V18.9883L18.4961 16.9961C19.5859 15.6484 19.9375 14.8633 19.9375 13.9023C19.9375 12.4492 18.9414 11.3828 17.4531 11.3828C16.0703 11.3828 15.0273 12.5312 15.0273 13.6562C15.0273 14.0547 15.2617 14.3359 15.6719 14.3359C16.0234 14.3359 16.2461 14.1719 16.3633 13.8203C16.5625 13.0938 16.832 12.6367 17.4414 12.6367C18.0977 12.6367 18.4609 13.2227 18.4609 13.9727C18.4609 14.8398 17.8633 15.7188 17.2891 16.4453L15.4141 18.8594C15.2148 19.1055 15.0156 19.375 15.0156 19.7148C15.0156 20.0781 15.25 20.3477 15.7422 20.3477Z" fill="black" fill-opacity="0.85"/>
</svg>
