<svg width="33" height="28" viewBox="0 0 33 28" fill="none" xmlns="http://www.w3.org/2000/svg">
<path d="M1.08984 24.1914C1.62891 24.1914 1.95703 23.9336 2.15625 23.3477L4.16016 17.793H12.6562L14.6484 23.3477C14.8711 23.9336 15.1758 24.1914 15.7383 24.1914C16.3711 24.1914 16.8281 23.793 16.8281 23.2188C16.8281 23.0547 16.8047 22.8789 16.6875 22.5859L9.79688 4.15234C9.53906 3.4375 9.09375 3.10938 8.4375 3.10938C7.71094 3.10938 7.26562 3.44922 7.00781 4.16406L0.128906 22.5977C0.0234375 22.8789 0 23.0547 0 23.2305C0 23.793 0.445312 24.1914 1.08984 24.1914ZM4.81641 15.9297L8.37891 5.99219H8.46094L12 15.9297H4.81641ZM25.8281 26.3711C26.2617 26.3711 26.5664 26.0547 26.5664 25.6094V23.6523C30.0938 23.4297 32.8945 21.4727 32.8945 18.1094C32.8945 15.168 30.8789 13.6211 27.1523 12.7422L26.5664 12.6133V5.54688C28.5586 5.74609 29.9297 6.84766 30.4805 8.65234C30.6562 9.19141 30.9961 9.53125 31.5703 9.53125C32.1562 9.53125 32.5781 9.14453 32.5781 8.55859C32.5781 8.34766 32.543 8.16016 32.4961 7.94922C31.875 5.5 29.5195 3.84766 26.5664 3.625V1.76172C26.5664 1.31641 26.2617 1 25.8281 1C25.3945 1 25.0898 1.31641 25.0898 1.76172V3.63672C21.668 3.90625 19.1602 5.96875 19.1602 9.00391C19.1602 11.7578 21.0234 13.5391 24.668 14.2305L25.0898 14.3125V21.7422C22.6406 21.5312 21.2695 20.2422 20.8125 18.5078C20.6133 17.9102 20.25 17.6172 19.7344 17.6172C19.1602 17.6172 18.7383 18.0391 18.7383 18.625C18.7383 18.8242 18.7734 19.0234 18.8203 19.2344C19.4648 21.8359 22.0195 23.4297 25.0898 23.6406V25.6094C25.0898 26.0547 25.3945 26.3711 25.8281 26.3711ZM25.0898 12.2383L24.8672 12.1914C22.2891 11.582 21.2695 10.4219 21.2695 8.875C21.2695 7.23438 22.6992 5.80469 25.0898 5.55859V12.2383ZM26.5664 14.6758L26.8242 14.7227C29.8477 15.4492 30.7852 16.5391 30.7852 18.2852C30.7852 20.1367 29.4609 21.5664 26.5664 21.7422V14.6758Z" fill="black" fill-opacity="0.85"/>
</svg>
