<svg width="28" height="28" viewBox="0 0 28 28" fill="none" xmlns="http://www.w3.org/2000/svg">
<path d="M6.67969 24.5977H20.8945C23.3555 24.5977 24.5742 23.3789 24.5742 20.9648V6.65625C24.5742 4.24219 23.3555 3.02344 20.8945 3.02344H6.67969C4.23047 3.02344 3 4.23047 3 6.65625V20.9648C3 23.3906 4.23047 24.5977 6.67969 24.5977Z" fill="black" fill-opacity="0.85"/>
<path d="M9.46875 8.15627C9.80859 7.81643 10.3125 7.83986 10.6289 8.15627L13.5938 11.1914C13.7344 11.332 13.8398 11.5547 13.8398 11.7539C13.8398 12.211 13.5117 12.5391 13.0664 12.5391C12.8555 12.5391 12.6563 12.457 12.5156 12.3164L11.2734 11.0156L10.8164 10.5235L10.8516 11.0977V18.9258C10.8516 19.3594 10.5117 19.6875 10.043 19.6875C9.59766 19.6875 9.26953 19.3594 9.26953 18.9258V11.1094L9.28125 10.5235L8.82422 11.0156L7.58203 12.293C7.44141 12.4453 7.24219 12.5391 7.04297 12.5391C6.58594 12.5391 6.24609 12.1992 6.24609 11.7539C6.24609 11.5781 6.36328 11.3555 6.49219 11.1914L9.46875 8.15627ZM18.1289 19.4531C17.8125 19.7695 17.2617 19.7695 16.957 19.4531L13.9922 16.4297C13.8398 16.2539 13.7578 16.043 13.7578 15.8555C13.7578 15.3984 14.0625 15.082 14.5195 15.082C14.7422 15.082 14.9297 15.1523 15.082 15.3164L16.3242 16.582L16.7695 17.0859L16.7461 16.5234V8.68361C16.7461 8.2383 17.0859 7.91018 17.543 7.91018C17.9883 7.91018 18.3281 8.2383 18.3281 8.68361V16.5117L18.3047 17.0742L18.7617 16.582L20.0039 15.3164C20.1445 15.1758 20.3438 15.082 20.5547 15.082C21.0234 15.082 21.3398 15.3984 21.3398 15.8555C21.3398 16.0547 21.2227 16.2656 21.082 16.4297L18.1289 19.4531Z" fill="white"/>
</svg>
