<svg width="28" height="28" viewBox="0 0 28 28" fill="none" xmlns="http://www.w3.org/2000/svg">
<path d="M6.40234 18.4141C7.67969 18.4141 8.08984 18.2734 8.89844 17.4648L11.1719 15.1914C11.9922 14.3711 11.9922 13.2461 11.1719 12.4258L8.89844 10.1523C8.08984 9.34375 7.67969 9.19141 6.40234 9.19141H3.46094C1.96094 9.19141 1 10.0586 1 11.3945V16.2227C1 17.5469 1.96094 18.4141 3.46094 18.4141H6.40234ZM9.20312 6.41406C9.20312 7.67969 9.35547 8.08984 10.1641 8.89844L12.4375 11.1719C13.2578 11.9922 14.3828 11.9922 15.2031 11.1719L17.4766 8.89844C18.2852 8.08984 18.4258 7.67969 18.4258 6.41406V3.46094C18.4258 1.96094 17.5586 1 16.2227 1H11.4062C10.0703 1 9.20312 1.96094 9.20312 3.46094V6.41406ZM21.2148 9.20312C19.9375 9.20312 19.5273 9.34375 18.7188 10.1523L16.4453 12.4258C15.625 13.2461 15.625 14.3711 16.4453 15.1914L18.7188 17.4648C19.5273 18.2734 19.9375 18.4258 21.2148 18.4258H24.1562C25.6562 18.4258 26.6172 17.5586 26.6172 16.2227V11.3945C26.6172 10.0703 25.6562 9.20312 24.1562 9.20312H21.2148ZM18.4258 21.2031C18.4258 19.9375 18.2734 19.5273 17.4648 18.7188L15.1914 16.4336C14.3711 15.625 13.2461 15.625 12.4258 16.4336L10.1523 18.7188C9.34375 19.5273 9.20312 19.9375 9.20312 21.2031V24.1562C9.20312 25.6562 10.0703 26.6055 11.4062 26.6055H16.2227C17.5586 26.6055 18.4258 25.6562 18.4258 24.1562V21.2031Z" fill="black" fill-opacity="0.85"/>
</svg>
