<svg width="28" height="28" viewBox="0 0 28 28" fill="none" xmlns="http://www.w3.org/2000/svg">
<path d="M3.67969 24.5742H23.9531C26.4141 24.5742 27.6328 23.3672 27.6328 20.9531V6.63281C27.6328 4.21875 26.4141 3 23.9531 3H3.67969C1.23047 3 0 4.21875 0 6.63281V20.9531C0 23.3672 1.23047 24.5742 3.67969 24.5742Z" fill="black" fill-opacity="0.85"/>
<path d="M9.45703 18.5742V13.7695C9.45703 12.9141 9.80859 12.4922 10.5234 12.4453V11.0273C10.5234 8.80078 11.8594 7.3125 13.8281 7.3125C15.7969 7.3125 17.1328 8.80078 17.1328 11.0273V12.4453C17.8359 12.4922 18.1875 12.9141 18.1875 13.7695V18.5742C18.1875 19.4766 17.7891 19.8984 16.957 19.8984H10.6992C9.85547 19.8984 9.45703 19.4766 9.45703 18.5742ZM11.7891 12.4336H15.8672V10.8867C15.8672 9.48047 15.0469 8.53125 13.8281 8.53125C12.5977 8.53125 11.7891 9.48047 11.7891 10.8867V12.4336Z" fill="white"/>
</svg>
