<svg width="28" height="28" viewBox="0 0 28 28" fill="none" xmlns="http://www.w3.org/2000/svg">
<path d="M13.7461 1C13.3594 1 12.9141 1.15234 12.4922 1.59766L3.76172 10.8438C3.23438 11.4062 3 11.875 3 12.4492C3 13.2461 3.58594 13.8203 4.37109 13.8203H9.11719V23.5703C9.11719 25.2695 10.0781 26.2656 11.7539 26.2656H15.7266C17.4023 26.2656 18.3633 25.2695 18.3633 23.5703V13.8203H23.0625C23.8477 13.8203 24.5039 13.2461 24.5039 12.4258C24.5039 11.8516 24.2461 11.4648 23.6602 10.8438L15.0117 1.59766C14.5898 1.14062 14.1445 1 13.7461 1Z" fill="black" fill-opacity="0.85"/>
</svg>
