<svg width="28" height="28" viewBox="0 0 28 28" fill="none" xmlns="http://www.w3.org/2000/svg">
<path d="M13.9531 25.9062C20.4922 25.9062 25.9062 20.4805 25.9062 13.9531C25.9062 7.41406 20.4805 2 13.9414 2C7.41406 2 2 7.41406 2 13.9531C2 20.4805 7.42578 25.9062 13.9531 25.9062Z" fill="black" fill-opacity="0.85"/>
<path d="M10.9883 19.0859C8.58594 19.0859 7.85938 16.3906 7.85938 13.9531C7.85938 11.5156 8.58594 8.82031 10.9883 8.82031C13.4023 8.82031 14.1289 11.5156 14.1289 13.9531C14.1289 16.3906 13.4023 19.0859 10.9883 19.0859ZM10.9883 17.6445C11.9727 17.6445 12.3477 16.0508 12.3477 13.9531C12.3477 11.8438 11.9727 10.2617 10.9883 10.2617C10.0039 10.2617 9.62891 11.8438 9.62891 13.9531C9.62891 16.0508 10.0039 17.6445 10.9883 17.6445ZM18.2656 18.9688C17.7617 18.9688 17.3633 18.5703 17.3633 18.0781V10.7539L16.25 11.6445C16.1328 11.7383 16.0156 11.7969 15.8281 11.7969C15.4531 11.7969 15.1953 11.5273 15.1953 11.1523C15.1953 10.8359 15.3711 10.6016 15.582 10.4375L16.918 9.40625C17.1875 9.19531 17.6094 8.91406 18.1133 8.91406C18.7461 8.91406 19.1328 9.27734 19.1328 9.89844V18.0781C19.1328 18.5703 18.7344 18.9688 18.2656 18.9688Z" fill="white"/>
</svg>
