<svg width="28" height="28" viewBox="0 0 28 28" fill="none" xmlns="http://www.w3.org/2000/svg">
<g clip-path="url(#clip0_2124_89290)">
<path d="M2.37891 24.6211H25.2539C26.707 24.6211 27.6328 23.6953 27.6328 22.2773V5.36719C27.6328 3.96094 26.707 3.03516 25.2539 3.03516H2.37891C0.9375 3.03516 0 3.96094 0 5.36719V22.2773C0 23.6953 0.9375 24.6211 2.37891 24.6211ZM2.39062 22.7344C2.01562 22.7344 1.76953 22.4766 1.76953 22.125V20.8008C1.76953 20.4727 2.00391 20.2383 2.34375 20.2383H3.85547C4.19531 20.2383 4.41797 20.4727 4.41797 20.8008V22.1602C4.41797 22.4883 4.19531 22.7344 3.85547 22.7344H2.39062ZM2.34375 18.8555C2.00391 18.8555 1.76953 18.5977 1.76953 18.293V16.957C1.76953 16.6055 1.99219 16.3828 2.34375 16.3828H3.85547C4.19531 16.3828 4.41797 16.6055 4.41797 16.957V18.293C4.41797 18.5977 4.19531 18.8555 3.85547 18.8555H2.34375ZM2.34375 15.0586C2.00391 15.0586 1.76953 14.8125 1.76953 14.5078V13.1719C1.76953 12.8203 1.99219 12.5977 2.34375 12.5977H3.85547C4.19531 12.5977 4.41797 12.8203 4.41797 13.1719V14.5078C4.41797 14.8125 4.19531 15.0586 3.85547 15.0586H2.34375ZM2.34375 11.2969C2.00391 11.2969 1.76953 11.0391 1.76953 10.7461V9.39844C1.76953 9.05859 1.99219 8.82422 2.34375 8.82422H3.85547C4.19531 8.82422 4.41797 9.05859 4.41797 9.39844V10.7461C4.41797 11.0391 4.19531 11.2969 3.85547 11.2969H2.34375ZM2.34375 7.41797C2.00391 7.41797 1.76953 7.17188 1.76953 6.86719V5.54297C1.76953 5.16797 2.01562 4.92188 2.39062 4.92188H3.85547C4.19531 4.92188 4.41797 5.15625 4.41797 5.49609V6.86719C4.41797 7.17188 4.19531 7.41797 3.85547 7.41797H2.34375ZM6.63281 22.7344C6.28125 22.7344 6.07031 22.5234 6.07031 22.1719V15.3398C6.07031 15 6.28125 14.7891 6.63281 14.7891H21.0117C21.3516 14.7891 21.5625 15 21.5625 15.3398V22.1719C21.5625 22.5234 21.3516 22.7344 21.0117 22.7344H6.63281ZM6.63281 12.8906C6.28125 12.8906 6.07031 12.6914 6.07031 12.3398V5.46094C6.07031 5.10938 6.28125 4.92188 6.63281 4.92188H21.0117C21.3516 4.92188 21.5625 5.10938 21.5625 5.46094V12.3398C21.5625 12.6914 21.3516 12.8906 21.0117 12.8906H6.63281ZM23.7773 22.7344C23.4375 22.7344 23.2148 22.4883 23.2148 22.1602V20.8008C23.2148 20.4727 23.4375 20.2383 23.7773 20.2383H25.2891C25.6406 20.2383 25.8633 20.4727 25.8633 20.8008V22.125C25.8633 22.4766 25.6289 22.7344 25.2422 22.7344H23.7773ZM23.7773 18.8555C23.4375 18.8555 23.2148 18.5977 23.2148 18.293V16.957C23.2148 16.6055 23.4375 16.3828 23.7773 16.3828H25.2891C25.6406 16.3828 25.8633 16.6055 25.8633 16.957V18.293C25.8633 18.5977 25.6406 18.8555 25.2891 18.8555H23.7773ZM23.7773 15.0586C23.4375 15.0586 23.2148 14.8125 23.2148 14.5078V13.1719C23.2148 12.8203 23.4375 12.5977 23.7773 12.5977H25.2891C25.6406 12.5977 25.8633 12.8203 25.8633 13.1719V14.5078C25.8633 14.8125 25.6406 15.0586 25.2891 15.0586H23.7773ZM23.7773 11.2969C23.4375 11.2969 23.2148 11.0391 23.2148 10.7461V9.39844C23.2148 9.05859 23.4375 8.82422 23.7773 8.82422H25.2891C25.6406 8.82422 25.8633 9.05859 25.8633 9.39844V10.7461C25.8633 11.0391 25.6406 11.2969 25.2891 11.2969H23.7773ZM23.7773 7.41797C23.4375 7.41797 23.2148 7.17188 23.2148 6.86719V5.49609C23.2148 5.15625 23.4375 4.92188 23.7773 4.92188H25.2422C25.6289 4.92188 25.8633 5.16797 25.8633 5.54297V6.86719C25.8633 7.17188 25.6406 7.41797 25.2891 7.41797H23.7773Z" fill="black" fill-opacity="0.85"/>
</g>
<defs>
<clipPath id="clip0_2124_89290">
<rect width="27.6328" height="21.6211" fill="white" transform="translate(0 3)"/>
</clipPath>
</defs>
</svg>
