<svg width="28" height="28" viewBox="0 0 28 28" fill="none" xmlns="http://www.w3.org/2000/svg">
<path d="M6.67969 24.5977H20.8945C23.3555 24.5977 24.5742 23.3789 24.5742 20.9648V6.65625C24.5742 4.24219 23.3555 3.02344 20.8945 3.02344H6.67969C4.23047 3.02344 3 4.23047 3 6.65625V20.9648C3 23.3906 4.23047 24.5977 6.67969 24.5977ZM6.70312 22.7109C5.53125 22.7109 4.88672 22.0898 4.88672 20.8711V6.75C4.88672 5.53125 5.53125 4.91016 6.70312 4.91016H20.8711C22.0312 4.91016 22.6875 5.53125 22.6875 6.75V20.8711C22.6875 22.0898 22.0312 22.7109 20.8711 22.7109H6.70312Z" fill="black" fill-opacity="0.85"/>
<path d="M11.1328 18.6797C11.5664 18.6797 11.9297 18.4102 11.9297 17.8477V16.6758H12.3398C12.7969 16.6758 13.0078 16.3828 13.0078 15.9844C13.0078 15.6094 12.8086 15.3164 12.3398 15.3164H11.9297V10.1719C11.9297 9.36328 11.3906 8.90625 10.6289 8.90625C9.80859 8.90625 9.42188 9.32812 9.09375 10.0547L6.99609 14.6016C6.79688 15.0586 6.72656 15.3633 6.72656 15.7266C6.72656 16.2891 7.125 16.6758 7.69922 16.6758H10.3125V17.8477C10.3125 18.4688 10.7578 18.6797 11.1328 18.6797ZM10.3477 15.3516H8.17969V15.2695L10.3008 10.3828H10.3477V15.3516ZM17.3086 18.7734C19.1016 18.7734 20.1211 17.2734 20.1211 15.4336C20.1211 13.8516 19.3594 12.3516 17.8008 12.3516C16.8516 12.3516 16.1367 12.9844 15.8672 13.9922H15.8203C15.8203 13.9453 15.8203 13.8984 15.8203 13.8633C15.8203 12.5625 15.9844 10.207 17.2852 10.207C17.8242 10.207 18.1758 10.582 18.375 11.0742C18.5391 11.4375 18.7734 11.6016 19.1484 11.6016C19.6172 11.6016 19.8164 11.2852 19.8164 10.8984C19.8164 10.7695 19.8047 10.6289 19.7695 10.4766C19.5117 9.46875 18.5039 8.83594 17.332 8.83594C14.9297 8.83594 14.2266 11.5312 14.2266 13.9102C14.2266 16.125 14.9297 18.7734 17.3086 18.7734ZM17.2852 17.4023C16.4062 17.4023 16.043 16.3008 16.043 15.457C16.043 14.6016 16.4414 13.6289 17.2852 13.6289C18.1523 13.6289 18.5156 14.6367 18.4922 15.5039C18.4922 16.3594 18.1055 17.4023 17.2852 17.4023Z" fill="black" fill-opacity="0.85"/>
</svg>
