<svg width="28" height="28" viewBox="0 0 28 28" fill="none" xmlns="http://www.w3.org/2000/svg">
<g clip-path="url(#clip0_2124_67776)">
<path d="M13.9531 25.9062C20.4922 25.9062 25.9062 20.4805 25.9062 13.9531C25.9062 7.41406 20.4805 2 13.9414 2C7.41406 2 2 7.41406 2 13.9531C2 20.4805 7.42578 25.9062 13.9531 25.9062ZM13.9531 23.9141C8.42188 23.9141 4.00391 19.4844 4.00391 13.9531C4.00391 8.42188 8.41016 3.99219 13.9414 3.99219C19.4727 3.99219 23.9141 8.42188 23.9141 13.9531C23.9141 19.4844 19.4844 23.9141 13.9531 23.9141Z" fill="black" fill-opacity="0.85"/>
<path d="M7.47266 15.1836C7.47266 15.8984 7.96484 16.3789 8.66797 16.3789H11.4922V19.1914C11.4922 19.9297 11.9727 20.3984 12.6875 20.3984H15.1719C15.8984 20.3984 16.3672 19.9297 16.3672 19.1914V16.3789H19.1914C19.918 16.3789 20.3984 15.8984 20.3984 15.1836V12.6875C20.3984 11.9844 19.918 11.4922 19.1914 11.4922H16.3672V8.69141C16.3672 7.96484 15.8984 7.48438 15.1719 7.48438H12.6875C11.9727 7.48438 11.4922 7.96484 11.4922 8.69141V11.4922H8.66797C7.95312 11.4922 7.47266 11.9844 7.47266 12.6875V15.1836Z" fill="black" fill-opacity="0.85"/>
</g>
<defs>
<clipPath id="clip0_2124_67776">
<rect width="23.9062" height="23.918" fill="white" transform="translate(2 2)"/>
</clipPath>
</defs>
</svg>
