<svg width="28" height="28" viewBox="0 0 28 28" fill="none" xmlns="http://www.w3.org/2000/svg">
<path d="M6.67969 24.5977H20.8945C23.3555 24.5977 24.5742 23.3789 24.5742 20.9648V6.65625C24.5742 4.24219 23.3555 3.02344 20.8945 3.02344H6.67969C4.23047 3.02344 3 4.23047 3 6.65625V20.9648C3 23.3906 4.23047 24.5977 6.67969 24.5977ZM6.70312 22.7109C5.53125 22.7109 4.88672 22.0898 4.88672 20.8711V6.75C4.88672 5.53125 5.53125 4.91016 6.70312 4.91016H20.8711C22.0312 4.91016 22.6875 5.53125 22.6875 6.75V20.8711C22.6875 22.0898 22.0312 22.7109 20.8711 22.7109H6.70312Z" fill="black" fill-opacity="0.85"/>
<path d="M9.60938 14.2148C9.60938 16.3594 11.0391 17.8594 12.9492 17.8594C13.9102 17.8594 14.7539 17.4844 15.2812 16.8164V17.2852C15.2812 17.707 15.5742 18 15.9961 18C16.4062 18 16.6875 17.707 16.6875 17.2852V9.70312H17.4375C17.7539 9.70312 17.9883 9.46875 17.9883 9.15234C17.9883 8.83594 17.7656 8.58984 17.4375 8.58984H16.6875V8.03906C16.6875 7.58203 16.3945 7.28906 15.9609 7.28906C15.5156 7.28906 15.2227 7.58203 15.2227 8.03906V8.58984H13.0898C12.7617 8.58984 12.5508 8.83594 12.5508 9.15234C12.5508 9.46875 12.7734 9.70312 13.0898 9.70312H15.2227V11.5781C14.7188 10.9453 13.8984 10.5703 12.9375 10.5703C11.0273 10.5703 9.60938 12.0586 9.60938 14.2148ZM11.1094 14.2266C11.1094 12.8438 11.9531 11.9297 13.1953 11.9297C14.3906 11.9297 15.2578 12.9023 15.2578 14.2266C15.2578 15.5625 14.3906 16.5234 13.1953 16.5234C11.9531 16.5234 11.1094 15.6211 11.1094 14.2266ZM10.207 19.1953C10.207 19.5117 10.4531 19.7695 10.7695 19.7695H16.4883C16.8047 19.7695 17.0508 19.5117 17.0508 19.1953C17.0508 18.8672 16.8164 18.6328 16.4883 18.6328H10.7695C10.4414 18.6328 10.207 18.8789 10.207 19.1953Z" fill="black" fill-opacity="0.85"/>
</svg>
