<svg width="28" height="28" viewBox="0 0 28 28" fill="none" xmlns="http://www.w3.org/2000/svg">
<path d="M13.9531 25.9062C20.4922 25.9062 25.9062 20.4805 25.9062 13.9531C25.9062 7.41406 20.4805 2 13.9414 2C7.41406 2 2 7.41406 2 13.9531C2 20.4805 7.42578 25.9062 13.9531 25.9062Z" fill="black" fill-opacity="0.85"/>
<path d="M8.87891 19.2852C8.39844 19.2852 8.04688 18.957 8.04688 18.4883V9.40625C8.04688 8.9375 8.39844 8.60938 8.87891 8.60938C9.33594 8.60938 9.67578 8.9375 9.67578 9.40625V18.4883C9.67578 18.957 9.33594 19.2852 8.87891 19.2852ZM21.5586 13.9648C21.5586 14.457 21.207 14.7852 20.7383 14.7852H15.207L12.9805 14.6445L15.4414 16.8242L16.2031 17.5273C16.3789 17.668 16.4492 17.8672 16.4492 18.1133C16.4492 18.582 16.1211 18.8984 15.6523 18.8984C15.4531 18.8984 15.1953 18.793 15.043 18.6289L10.8828 14.5742C10.6836 14.3984 10.6016 14.1875 10.6016 13.9648C10.6016 13.7305 10.707 13.5312 10.8828 13.3438L15.0547 9.25391C15.2188 9.06641 15.4297 8.99609 15.6406 8.99609C16.0977 8.99609 16.4492 9.3125 16.4492 9.76953C16.4492 9.99219 16.3789 10.2148 16.2031 10.3672L15.4531 11.1055L12.9922 13.2852L15.207 13.1562H20.7383C21.207 13.1562 21.5586 13.4961 21.5586 13.9648Z" fill="white"/>
</svg>
