<svg width="31" height="29" viewBox="0 0 31 29" fill="none" xmlns="http://www.w3.org/2000/svg">
<g clip-path="url(#clip0_2124_45966)">
<path d="M8.78906 24.8136H19.5117C21.2344 24.8136 22.1484 23.8761 22.1484 22.0245V13.9503C22.1484 12.1105 21.2344 11.173 19.5117 11.173H8.78906C7.0664 11.173 6.15234 12.1105 6.15234 13.9503V22.0245C6.15234 23.8761 7.0664 24.8136 8.78906 24.8136ZM8.85937 23.0441C8.34375 23.0441 8.05078 22.7277 8.05078 22.1534V13.8214C8.05078 13.2472 8.34375 12.9425 8.85937 12.9425H19.4648C19.9687 12.9425 20.25 13.2472 20.25 13.8214V22.1534C20.25 22.7277 19.9687 23.0441 19.4648 23.0441H8.85937ZM18.375 12.087H20.2266V8.13781C20.2266 5.17297 22.125 3.61438 24.3164 3.61438C26.5078 3.61438 28.4062 5.17297 28.4062 8.13781V10.7394C28.4062 11.4308 28.8164 11.7823 29.3437 11.7823C29.8477 11.7823 30.2695 11.4659 30.2695 10.7394V8.38391C30.2695 3.97766 27.3867 1.84485 24.3164 1.84485C21.2461 1.84485 18.375 3.97766 18.375 8.38391V12.087Z" fill="black" fill-opacity="0.85"/>
<path d="M0.105272 16.2941C0.49199 17.6066 1.88653 18.3566 3.38653 17.7823L3.89043 17.5831C3.89043 18.0519 3.87871 18.4152 3.8084 18.7081L2.55449 23.9933C1.73418 27.3917 6.4334 28.5753 7.27715 25.3761H7.88653C8.73028 28.5753 13.4529 27.38 12.6209 23.9933L11.3318 18.7081C11.2732 18.4152 11.285 18.0519 11.285 17.5831L11.7771 17.7823C13.2771 18.3566 14.6834 17.6066 15.0584 16.2941C15.4217 15.1105 14.8475 13.8214 13.5232 13.2823L10.7693 12.1456C10.992 11.6886 11.1209 11.1847 11.1209 10.6456C11.1209 8.70032 9.56231 7.10657 7.59356 7.10657C5.65996 7.10657 4.05449 8.68861 4.05449 10.6456C4.05449 11.1847 4.19512 11.6886 4.41778 12.1339L1.65215 13.2823C0.327928 13.8331 -0.246291 15.1105 0.105272 16.2941Z" fill="white"/>
<path d="M7.593 12.5675C8.67112 12.5675 9.51487 11.712 9.51487 10.6456C9.51487 9.57923 8.67112 8.71204 7.593 8.71204C6.53831 8.71204 5.6594 9.57923 5.6594 10.6456C5.6594 11.712 6.53831 12.5675 7.593 12.5675ZM7.58128 19.4581C7.83909 19.4581 8.05003 19.6105 8.12034 19.9034L9.43284 24.9777C9.73753 26.1027 11.2844 25.7042 11.1203 24.6378C11.05 24.2159 9.92503 19.9269 9.76097 18.9659C9.64378 18.2628 9.69065 16.4698 9.69065 15.6613C9.69065 15.4386 9.88987 15.2863 10.1359 15.3917L12.3742 16.2941C12.9836 16.5402 13.4054 16.2472 13.5226 15.8488C13.6515 15.4503 13.4758 14.9816 12.9133 14.7589L10.4992 13.7628C9.93675 13.5284 9.43284 13.4113 8.87034 13.3292C8.48362 13.5167 8.05003 13.6339 7.58128 13.6339C7.11253 13.6339 6.69065 13.5167 6.29222 13.3292C5.72972 13.4113 5.22581 13.5284 4.66331 13.7628L2.24925 14.7589C1.69847 14.9816 1.52268 15.4503 1.65159 15.8488C1.75706 16.2472 2.17893 16.5402 2.78831 16.2941L5.03831 15.3917C5.27268 15.2863 5.4719 15.4386 5.4719 15.6613C5.4719 16.4698 5.5305 18.2628 5.41331 18.9659C5.24925 19.9269 4.11253 24.2159 4.04222 24.6378C3.87815 25.7042 5.43675 26.1027 5.72972 24.9777L7.04222 19.9034C7.12425 19.6105 7.32347 19.4581 7.58128 19.4581Z" fill="black" fill-opacity="0.85"/>
</g>
<defs>
<clipPath id="clip0_2124_45966">
<rect width="30.2654" height="27.2449" fill="white" transform="translate(0.00390625 0.00561523)"/>
</clipPath>
</defs>
</svg>
