<svg width="28" height="28" viewBox="0 0 28 28" fill="none" xmlns="http://www.w3.org/2000/svg">
<path d="M6.67969 24.5977H20.8945C23.3555 24.5977 24.5742 23.3789 24.5742 20.9648V6.65625C24.5742 4.24219 23.3555 3.02344 20.8945 3.02344H6.67969C4.23047 3.02344 3 4.23047 3 6.65625V20.9648C3 23.3906 4.23047 24.5977 6.67969 24.5977Z" fill="black" fill-opacity="0.85"/>
<path d="M10.0078 18.8906C8.70703 18.8906 7.46484 18.2695 7.125 17.1445C7.05469 16.9453 7.03125 16.7344 7.03125 16.5117C7.03125 16.043 7.34766 15.75 7.81641 15.75C8.21484 15.75 8.47266 15.9492 8.58984 16.3477C8.73047 16.8984 9.12891 17.4844 10.0078 17.4844C10.8984 17.4844 11.3438 16.7695 11.3438 15.9375C11.3438 14.8945 10.7812 14.332 9.75 14.332H9.45703C9.05859 14.332 8.77734 14.0977 8.77734 13.6992C8.77734 13.3008 9.04688 13.043 9.45703 13.043H9.73828C10.6523 13.043 11.1328 12.3984 11.1328 11.5195C11.1328 10.7227 10.7578 10.1133 9.96094 10.1133C9.26953 10.1133 8.90625 10.5586 8.70703 11.2734C8.58984 11.6953 8.34375 11.8477 7.93359 11.8477C7.45312 11.8477 7.18359 11.5313 7.18359 11.1328C7.18359 10.9219 7.21875 10.7109 7.27734 10.4766C7.62891 9.41016 8.70703 8.70703 9.96094 8.70703C11.5312 8.70703 12.7852 9.65625 12.7852 11.332C12.7852 12.3398 12.2461 13.3242 11.1562 13.6172V13.6523C12.1758 13.7578 13.0664 14.4961 13.0664 15.9961C13.0664 17.8008 11.7422 18.8906 10.0078 18.8906ZM17.5547 18.9258C15.1055 18.9258 14.3672 16.1953 14.3672 13.9102C14.3672 11.4609 15.0938 8.68359 17.5664 8.68359C18.7734 8.68359 19.8281 9.32812 20.0859 10.3711C20.1211 10.5234 20.1445 10.6758 20.1445 10.8047C20.1445 11.2031 19.9219 11.5313 19.4414 11.5313C19.0547 11.5313 18.8203 11.3672 18.6562 10.9922C18.4336 10.4883 18.0703 10.1016 17.5312 10.1016C16.1836 10.1016 16.0312 12.5273 16.0312 13.8633C16.0312 13.8984 16.0312 13.9453 16.0312 13.9922H16.0781C16.3359 12.9609 17.0859 12.3047 18.0703 12.3047C19.6641 12.3047 20.4609 13.8516 20.4609 15.4805C20.4609 17.3789 19.3945 18.9258 17.5547 18.9258ZM17.5312 17.5078C18.3633 17.5078 18.7617 16.4414 18.7617 15.5625C18.7852 14.6719 18.4102 13.6289 17.5195 13.6289C16.6523 13.6289 16.2539 14.625 16.2539 15.5039C16.2539 16.3711 16.6172 17.5078 17.5312 17.5078Z" fill="white"/>
</svg>
