<svg width="28" height="29" viewBox="0 0 28 29" fill="none" xmlns="http://www.w3.org/2000/svg">
<path d="M12.8981 5.10938C14.3044 5.10938 15.4411 3.97266 15.4411 2.54297C15.4411 1.13672 14.3044 0 12.8981 0C11.4684 0 10.3317 1.13672 10.3317 2.54297C10.3317 3.97266 11.4684 5.10938 12.8981 5.10938ZM2.42157 27.8203C2.91376 28.2422 3.67548 28.2188 4.13251 27.7031L8.30438 22.9336C8.52704 22.6758 8.65594 22.3945 8.6911 22.0664L9.21844 16.9336C9.23016 16.7578 9.41766 16.6875 9.53485 16.8281L12.8981 20.707V26.9062C12.8981 27.5742 13.4372 28.125 14.1169 28.125C14.7731 28.125 15.3356 27.5742 15.3356 26.9062V20.3086C15.3356 19.9805 15.2302 19.7578 15.0778 19.5352L11.5153 14.332L13.2497 9.15234C13.3434 8.87109 13.5309 8.76562 13.8122 8.76562H23.1872C23.8434 8.76562 24.4059 8.22656 24.4059 7.55859C24.4059 6.89062 23.8434 6.33984 23.1872 6.33984H9.0661C8.08173 6.33984 7.28485 6.62109 6.48798 7.40625L4.17938 9.73828C3.40594 10.5234 3.82782 11.8008 4.89423 11.8008H7.07391L6.60516 13.1953C6.35907 13.9453 6.24188 14.7188 6.24188 15.4805V21.6211L2.30438 26.1094C1.85907 26.6133 1.90594 27.375 2.42157 27.8203ZM23.1872 9.99609C24.1833 9.99609 25.0036 9.17578 25.0036 8.15625C25.0036 7.16016 24.1833 6.33984 23.1872 6.33984C22.1677 6.33984 21.3474 7.16016 21.3474 8.15625C21.3474 9.17578 22.1677 9.99609 23.1872 9.99609Z" fill="black" fill-opacity="0.85"/>
</svg>
