<svg width="28" height="28" viewBox="0 0 28 28" fill="none" xmlns="http://www.w3.org/2000/svg">
<path d="M9.23438 24.0352H18.3984C25.1953 24.0352 27.6328 21.5156 27.6328 15.2461V11.8008C27.6328 5.53125 25.1953 3 18.3984 3H9.23438C2.4375 3 0 5.53125 0 11.8008V15.2461C0 21.5156 2.4375 24.0352 9.23438 24.0352ZM9.23438 22.1484C3.70312 22.1484 1.88672 20.3555 1.88672 15.2461V11.8008C1.88672 6.69141 3.70312 4.88672 9.23438 4.88672H18.3984C23.9297 4.88672 25.7461 6.69141 25.7461 11.8008V15.2461C25.7461 20.3555 23.9297 22.1484 18.3984 22.1484H9.23438Z" fill="black" fill-opacity="0.85"/>
<path d="M8.47266 18.375C9.03516 18.375 9.31641 18.0352 9.31641 17.4961V15.1172H10.5586C12.3516 15.1172 13.3828 13.7578 13.3828 11.9531C13.3828 10.1719 12.375 8.76562 10.6641 8.76562H8.46094C7.96875 8.76562 7.61719 9.09375 7.61719 9.66797V17.4961C7.61719 18.0469 7.92188 18.375 8.47266 18.375ZM9.31641 13.7695V10.1484H10.2305C11.2148 10.1484 11.6836 10.8516 11.6836 11.9531C11.6836 12.9961 11.2617 13.7695 10.2188 13.7695H9.31641ZM15.3398 18.2578H19.4062C19.8164 18.2578 20.0742 17.9883 20.0742 17.5781C20.0742 17.1328 19.8047 16.8867 19.4062 16.8867H16.6289V16.793L18.3398 14.625C19.5117 13.1719 19.8984 12.3047 19.8984 11.2734C19.8984 9.69141 18.8203 8.54297 17.2031 8.54297C15.7031 8.54297 14.5664 9.78516 14.5664 11.0039C14.5664 11.4375 14.8242 11.7422 15.2695 11.7422C15.6562 11.7422 15.8906 11.5664 16.0078 11.1797C16.2305 10.3945 16.5234 9.90234 17.1914 9.90234C17.9062 9.90234 18.293 10.5234 18.293 11.3555C18.293 12.293 17.6484 13.2422 17.0273 14.0391L14.9883 16.6406C14.7656 16.9219 14.5547 17.2148 14.5547 17.5781C14.5547 17.9766 14.8008 18.2578 15.3398 18.2578Z" fill="black" fill-opacity="0.85"/>
</svg>
