<svg width="28" height="28" viewBox="0 0 28 28" fill="none" xmlns="http://www.w3.org/2000/svg">
<path d="M6.67969 24.5977H20.8945C23.3555 24.5977 24.5742 23.3789 24.5742 20.9648V6.65625C24.5742 4.24219 23.3555 3.02344 20.8945 3.02344H6.67969C4.23047 3.02344 3 4.23047 3 6.65625V20.9648C3 23.3906 4.23047 24.5977 6.67969 24.5977Z" fill="black" fill-opacity="0.85"/>
<path d="M11.1328 19.3359C10.5 19.3359 10.1719 18.8789 10.1719 18.2344V9.26953C10.1719 8.61328 10.5 8.16797 11.1211 8.16797H16.9336C17.4023 8.16797 17.7422 8.46094 17.7422 8.96484C17.7422 9.44531 17.4023 9.76172 16.9336 9.76172H12.1172V12.9844H16.4648C16.9336 12.9844 17.2734 13.2656 17.2734 13.7578C17.2734 14.25 16.9336 14.4961 16.4648 14.4961H12.1172V18.2344C12.1172 18.9023 11.7656 19.3359 11.1328 19.3359Z" fill="white"/>
</svg>
