<svg width="28" height="28" viewBox="0 0 28 28" fill="none" xmlns="http://www.w3.org/2000/svg">
<path d="M6.67969 24.5977H20.8945C23.3555 24.5977 24.5742 23.3789 24.5742 20.9648V6.65625C24.5742 4.24219 23.3555 3.02344 20.8945 3.02344H6.67969C4.23047 3.02344 3 4.23047 3 6.65625V20.9648C3 23.3906 4.23047 24.5977 6.67969 24.5977ZM6.70312 22.7109C5.53125 22.7109 4.88672 22.0898 4.88672 20.8711V6.75C4.88672 5.53125 5.53125 4.91016 6.70312 4.91016H20.8711C22.0312 4.91016 22.6875 5.53125 22.6875 6.75V20.8711C22.6875 22.0898 22.0312 22.7109 20.8711 22.7109H6.70312Z" fill="black" fill-opacity="0.85"/>
<path d="M9.02344 16.207C9.02344 16.5352 9.24609 16.7812 9.59766 16.7812H10.2305L9.65625 18.5039C9.59766 18.6797 9.58594 18.7969 9.58594 18.8906C9.58594 19.2891 9.90234 19.582 10.3477 19.582C10.7109 19.582 10.9687 19.4062 11.0859 19.0078L11.7891 16.7812H15.7852L16.4883 19.0195C16.6055 19.418 16.8398 19.582 17.2266 19.582C17.6719 19.582 17.9883 19.2891 17.9883 18.8906C17.9883 18.7969 17.9648 18.6797 17.9062 18.5039L17.332 16.7812H17.9766C18.3281 16.7812 18.5508 16.5352 18.5508 16.207C18.5508 15.8789 18.3281 15.6211 17.9766 15.6211H16.957L16.6289 14.6367H17.9766C18.3281 14.6367 18.5508 14.3789 18.5508 14.0508C18.5508 13.7227 18.3281 13.4766 17.9766 13.4766H16.2422L14.6836 8.78906C14.543 8.36719 14.2617 8.10938 13.7812 8.10938C13.3008 8.10938 13.0078 8.35547 12.8672 8.78906L11.3203 13.4766H9.59766C9.24609 13.4766 9.02344 13.7227 9.02344 14.0508C9.02344 14.3789 9.24609 14.6367 9.59766 14.6367H10.9336L10.6055 15.6211H9.59766C9.24609 15.6211 9.02344 15.8789 9.02344 16.207ZM12.1406 15.6211L12.4453 14.6367H15.1172L15.4336 15.6211H12.1406ZM12.7969 13.4766L13.7812 10.3359L14.7656 13.4766H12.7969Z" fill="black" fill-opacity="0.85"/>
</svg>
