<svg width="29" height="31" viewBox="0 0 29 31" fill="none" xmlns="http://www.w3.org/2000/svg">
<g clip-path="url(#clip0_2124_88716)">
<path d="M3.67969 26.0866H25.1016C27.5391 26.0866 28.7812 24.8679 28.7812 22.4538V10.1843C28.7812 7.7702 27.5391 6.56317 25.1016 6.56317H21.75C20.8242 6.56317 20.543 6.37567 20.0156 5.78973L19.0781 4.73505C18.4922 4.09052 17.8945 3.73895 16.6875 3.73895H12.0117C10.8047 3.73895 10.207 4.09052 9.62109 4.73505L8.68359 5.78973C8.15625 6.36395 7.86328 6.56317 6.94922 6.56317H3.67969C1.23047 6.56317 0 7.7702 0 10.1843V22.4538C0 24.8679 1.23047 26.0866 3.67969 26.0866ZM3.70312 24.1999C2.55469 24.1999 1.88672 23.5788 1.88672 22.36V10.2897C1.88672 9.07098 2.55469 8.44989 3.70312 8.44989H7.41797C8.47266 8.44989 9.04688 8.25067 9.63281 7.59442L10.5469 6.56317C11.2148 5.81317 11.5664 5.62567 12.5977 5.62567H16.1016C17.1328 5.62567 17.4844 5.81317 18.1523 6.56317L19.0664 7.59442C19.6523 8.25067 20.2266 8.44989 21.2812 8.44989H25.0664C26.2266 8.44989 26.8945 9.07098 26.8945 10.2897V22.36C26.8945 23.5788 26.2266 24.1999 25.0664 24.1999H3.70312ZM14.3906 22.5124C17.9297 22.5124 20.7773 19.6765 20.7773 16.1022C20.7773 12.5397 17.9414 9.7038 14.3906 9.7038C10.8398 9.7038 7.99219 12.5397 7.99219 16.1022C7.99219 19.6765 10.8398 22.5124 14.3906 22.5124ZM14.3906 20.7311C11.8477 20.7311 9.76172 18.6804 9.76172 16.1022C9.76172 13.5358 11.8359 11.4733 14.3906 11.4733C16.9453 11.4733 19.0078 13.5358 19.0078 16.1022C19.0078 18.6804 16.9453 20.7311 14.3906 20.7311ZM21.2578 11.7897C21.2578 12.61 21.9258 13.2546 22.7344 13.2546C23.5078 13.2546 24.1875 12.5983 24.1875 11.7897C24.1875 11.0163 23.5078 10.3366 22.7344 10.3366C21.9258 10.3366 21.2578 11.0163 21.2578 11.7897Z" fill="black" fill-opacity="0.85"/>
<path d="M1.57018 1.66473L4.86315 4.48895C5.07409 4.66473 5.29675 4.80536 5.54284 4.80536C5.80065 4.80536 6.02331 4.66473 6.23425 4.48895L9.52721 1.66473C10.4999 0.844422 9.35143 -0.655578 8.27331 0.317079L5.54284 2.81317L2.82409 0.317079C1.73425 -0.655578 0.59753 0.844422 1.57018 1.66473Z" fill="black" fill-opacity="0.85"/>
</g>
<defs>
<clipPath id="clip0_2124_88716">
<rect width="28.7812" height="30.5756" fill="white"/>
</clipPath>
</defs>
</svg>
