<svg width="35" height="29" viewBox="0 0 35 29" fill="none" xmlns="http://www.w3.org/2000/svg">
<g clip-path="url(#clip0_2124_45954)">
<path d="M31.3599 8.3772C33.1178 8.3772 34.524 6.91236 34.524 5.21314C34.524 3.44361 33.1178 2.01392 31.3599 2.01392C29.5904 2.01392 28.1724 3.44361 28.1724 5.21314C28.1724 6.95923 29.5904 8.3772 31.3599 8.3772ZM12.481 25.1467C13.0904 25.7795 14.1334 25.7327 14.8717 24.9592L19.9224 19.7561C20.0865 19.5803 20.2037 19.5334 20.4615 19.6389L24.399 21.1272C26.9303 22.0998 29.3092 21.2678 30.4224 19.2522L32.9537 14.6467C33.9381 12.8537 33.6217 11.0022 31.9224 10.0881C30.2584 9.1858 28.5474 9.86548 27.5514 11.7053L24.2584 17.6936L21.4693 16.6741C20.0748 16.1701 18.9264 16.3342 17.8248 17.4827L12.5865 22.8967C11.8599 23.6467 11.9303 24.5842 12.481 25.1467Z" fill="black" fill-opacity="0.85"/>
<path d="M0.210624 5.78736L3.39812 9.85376C3.53875 10.0413 3.7614 10.0764 3.96062 9.95923C4.72234 9.5608 5.81218 9.29126 6.66765 9.29126C7.53484 9.29126 8.62468 9.5608 9.36297 9.95923C9.58562 10.0764 9.80828 10.0413 9.93718 9.85376L13.1364 5.78736C13.4528 5.3772 13.3942 4.96704 13.0192 4.66236C11.7184 3.66626 9.2575 2.90454 6.66765 2.90454C4.08953 2.90454 1.62859 3.66626 0.339531 4.66236C-0.0589066 4.96704 -0.0940626 5.3772 0.210624 5.78736ZM3.51531 12.2327C3.15203 11.7522 2.99968 11.3069 2.99968 10.8264C2.99968 9.72486 3.89031 9.44361 3.89031 8.79908C3.89031 8.14283 2.99968 7.8733 2.99968 6.73658C2.99968 6.26783 3.15203 5.82251 3.51531 5.35376C3.92547 4.86158 4.66375 5.38892 4.26531 5.90454C4.0075 6.26783 3.93718 6.46704 3.93718 6.73658C3.93718 7.53345 4.81609 7.75611 4.81609 8.79908C4.81609 9.83033 3.93718 10.0647 3.93718 10.8264C3.93718 11.1311 4.0075 11.3069 4.26531 11.6819C4.65203 12.1858 3.92547 12.7248 3.51531 12.2327ZM6.26922 12.2327C5.92937 11.7522 5.76531 11.3069 5.76531 10.8264C5.76531 9.72486 6.65593 9.44361 6.65593 8.79908C6.65593 8.14283 5.76531 7.8733 5.76531 6.73658C5.76531 6.26783 5.91765 5.82251 6.26922 5.35376C6.67937 4.86158 7.42937 5.38892 7.04265 5.90454C6.77312 6.26783 6.70281 6.46704 6.70281 6.73658C6.70281 7.53345 7.59343 7.75611 7.59343 8.79908C7.59343 9.83033 6.70281 10.0647 6.70281 10.8264C6.70281 11.1311 6.77312 11.3069 7.03093 11.6819C7.41765 12.1858 6.67937 12.7248 6.26922 12.2327ZM9.05828 12.2327C8.695 11.7522 8.53093 11.3069 8.53093 10.8264C8.53093 9.72486 9.43328 9.44361 9.43328 8.79908C9.43328 8.14283 8.53093 7.8733 8.53093 6.73658C8.53093 6.26783 8.68328 5.82251 9.07 5.35376C9.46843 4.86158 10.195 5.38892 9.80828 5.90454C9.55047 6.26783 9.46843 6.46704 9.46843 6.73658C9.46843 7.53345 10.359 7.75611 10.359 8.79908C10.359 9.83033 9.46843 10.0647 9.46843 10.8264C9.46843 11.1311 9.55047 11.3069 9.79656 11.6819C10.195 12.1858 9.45672 12.7248 9.05828 12.2327ZM17.5544 6.63111C17.5544 7.07642 17.8942 7.39283 18.2926 7.39283H21.4801V9.02173C21.4801 9.7483 22.2301 10.0647 22.7692 9.57251L25.4411 7.19361C25.8278 6.86548 25.8044 6.43189 25.4411 6.11548L22.7692 3.71314C22.2536 3.24439 21.4801 3.52564 21.4801 4.26392V5.89283H18.2926C17.8825 5.89283 17.5544 6.23267 17.5544 6.63111ZM15.363 7.84986C14.9411 7.84986 14.6247 8.17798 14.6247 8.61158V11.7874H12.9958C12.2106 11.7874 11.9528 12.5491 12.4215 13.0647L14.8356 15.7483C15.1755 16.0998 15.5973 16.135 15.9255 15.76L18.2926 13.0412C18.7614 12.5022 18.4801 11.7874 17.7536 11.7874H16.1247V8.61158C16.1247 8.1897 15.7614 7.86158 15.363 7.84986Z" fill="black" fill-opacity="0.85"/>
</g>
<defs>
<clipPath id="clip0_2124_45954">
<rect width="34.5153" height="23.7773" fill="white" transform="translate(0.0078125 2.01392)"/>
</clipPath>
</defs>
</svg>
