<svg width="28" height="28" viewBox="0 0 28 28" fill="none" xmlns="http://www.w3.org/2000/svg">
<path d="M13.9531 25.918C20.4922 25.918 25.9062 20.5039 25.9062 13.9648C25.9062 7.4375 20.4805 2.01172 13.9414 2.01172C7.41406 2.01172 2 7.4375 2 13.9648C2 20.5039 7.42578 25.918 13.9531 25.918Z" fill="black" fill-opacity="0.85"/>
<path d="M10.332 15.1367C8.60938 15.1367 7.61328 14.0234 7.61328 12.6523C7.61328 11.4336 8.41016 10.5312 9.45312 10.2266C9.65234 8.05859 11.4453 6.34766 13.625 6.34766C15.3008 6.34766 16.6367 7.27344 17.3633 8.70312C19.3203 8.70312 20.832 10.0508 20.832 11.9023C20.832 13.6836 19.4023 15.1367 17.5156 15.1367H10.332ZM11.0586 18.2422C10.918 18.4883 10.5781 18.6055 10.3086 18.4531C10.0391 18.3008 9.96875 17.9492 10.0977 17.6914L10.7773 16.5312C10.918 16.2852 11.2578 16.168 11.5156 16.332C11.7969 16.4727 11.8672 16.8359 11.7383 17.082L11.0586 18.2422ZM14.375 18.2422C14.2344 18.4883 13.8828 18.6055 13.625 18.4531C13.3555 18.3008 13.2734 17.9492 13.4258 17.6914L14.0938 16.5312C14.2344 16.2852 14.5859 16.168 14.8438 16.332C15.1133 16.4727 15.1953 16.8359 15.043 17.082L14.375 18.2422ZM17.6797 18.2422C17.5391 18.4883 17.1992 18.6055 16.9297 18.4531C16.6602 18.3008 16.5898 17.9492 16.7188 17.6914L17.3984 16.5312C17.5391 16.2852 17.8789 16.168 18.1484 16.332C18.418 16.4727 18.4883 16.8359 18.3594 17.082L17.6797 18.2422ZM9.60547 21.1367C9.41797 21.1367 9.3125 20.9961 9.3125 20.8203L9.32422 20.3516L8.94922 20.6211C8.80859 20.7031 8.60938 20.6797 8.51562 20.5156C8.43359 20.375 8.46875 20.1875 8.66797 20.0938L9.06641 19.9062L8.66797 19.6953C8.46875 19.6133 8.46875 19.3906 8.52734 19.2734C8.62109 19.1328 8.82031 19.1094 8.94922 19.1914L9.32422 19.4609L9.30078 18.9922C9.28906 18.8164 9.41797 18.6758 9.60547 18.6758C9.76953 18.6758 9.89844 18.8047 9.88672 18.9922L9.85156 19.4609L10.2383 19.2031C10.3672 19.1094 10.5898 19.1445 10.6719 19.2852C10.7305 19.4375 10.6953 19.6016 10.5195 19.6953L10.1094 19.9062L10.5195 20.0938C10.7188 20.1875 10.7305 20.3984 10.6484 20.5508C10.5664 20.6562 10.3672 20.7031 10.2383 20.6211L9.85156 20.3516L9.88672 20.8203C9.89844 21.0078 9.76953 21.1367 9.60547 21.1367ZM12.9219 21.1367C12.7344 21.1367 12.6289 20.9961 12.6289 20.8203L12.6523 20.3516L12.2539 20.6211C12.125 20.7031 11.9141 20.6797 11.832 20.5156C11.7617 20.375 11.7969 20.1875 11.9727 20.0938L12.3828 19.9062L11.9727 19.6953C11.7969 19.6133 11.7852 19.3906 11.8555 19.2734C11.9375 19.1328 12.1367 19.1094 12.2539 19.1914L12.6523 19.4609L12.6172 18.9922C12.6055 18.8164 12.7344 18.6758 12.9219 18.6758C13.0742 18.6758 13.2148 18.8047 13.1914 18.9922L13.168 19.4609L13.543 19.2031C13.6836 19.1094 13.9062 19.1445 13.9766 19.2852C14.0469 19.4375 14.0234 19.6016 13.8359 19.6953L13.4258 19.9062L13.8359 20.0938C14.0352 20.1875 14.0586 20.3984 13.9531 20.5508C13.8828 20.6562 13.6836 20.7031 13.543 20.6211L13.168 20.3516L13.1914 20.8203C13.2148 21.0078 13.0742 21.1367 12.9219 21.1367ZM16.2266 21.1367C16.0391 21.1367 15.9336 20.9961 15.9336 20.8203L15.9453 20.3516L15.5703 20.6211C15.4297 20.7031 15.2305 20.6797 15.1367 20.5156C15.0547 20.375 15.0898 20.1875 15.2891 20.0938L15.6875 19.9062L15.2891 19.6953C15.0898 19.6133 15.0898 19.3906 15.1484 19.2734C15.2422 19.1328 15.4414 19.1094 15.5703 19.1914L15.9453 19.4609L15.9219 18.9922C15.9102 18.8164 16.0391 18.6758 16.2266 18.6758C16.3906 18.6758 16.5195 18.8047 16.5078 18.9922L16.4844 19.4609L16.8594 19.2031C16.9883 19.1094 17.2109 19.1445 17.293 19.2852C17.3516 19.4375 17.3164 19.6016 17.1523 19.6953L16.7305 19.9062L17.1523 20.0938C17.3398 20.1875 17.3633 20.3984 17.2695 20.5508C17.1875 20.6562 16.9883 20.7031 16.8594 20.6211L16.4844 20.3516L16.5078 20.8203C16.5195 21.0078 16.3906 21.1367 16.2266 21.1367Z" fill="white"/>
</svg>
