<svg width="28" height="28" viewBox="0 0 28 28" fill="none" xmlns="http://www.w3.org/2000/svg">
<g clip-path="url(#clip0_2124_89312)">
<path d="M3.64062 21.2852L12.8633 26.5117C13.5195 26.8867 14.1406 26.8867 14.8086 26.5117L24.0195 21.2852C25.0977 20.6758 25.6602 20.0547 25.6602 18.3789V9.09766C25.6602 7.87891 25.2148 7.11719 24.2305 6.55469L15.9336 1.84375C14.5156 1.02344 13.1445 1.02344 11.7266 1.84375L3.44141 6.55469C2.44531 7.11719 2 7.87891 2 9.09766V18.3789C2 20.0547 2.57422 20.6758 3.64062 21.2852ZM4.69531 19.7383C4.01562 19.3633 3.78125 18.9648 3.78125 18.3203V9.47266L12.9102 14.6875V24.4141L4.69531 19.7383ZM22.9766 19.7383L14.75 24.4141V14.6875L23.8789 9.47266V18.3203C23.8789 18.9648 23.6445 19.3633 22.9766 19.7383ZM13.8359 13.0469L4.78906 7.92578L12.5117 3.51953C13.4141 3.00391 14.2461 2.99219 15.1602 3.51953L22.8828 7.92578L13.8359 13.0469Z" fill="black" fill-opacity="0.85"/>
</g>
<defs>
<clipPath id="clip0_2124_89312">
<rect width="23.6602" height="25.793" fill="white" transform="translate(2 1)"/>
</clipPath>
</defs>
</svg>
