<svg width="28" height="28" viewBox="0 0 28 28" fill="none" xmlns="http://www.w3.org/2000/svg">
<g clip-path="url(#clip0_2124_24681)">
<path d="M4 24.3086C4 26.1602 5.30078 27.4023 7.24609 27.4023H20.3359C22.2812 27.4023 23.582 26.1602 23.582 24.3086V4.10547C23.582 2.25391 22.2812 1 20.3359 1H7.24609C5.30078 1 4 2.25391 4 4.10547V24.3086ZM5.88672 23.9922V4.42188C5.88672 3.46094 6.47266 2.88672 7.48047 2.88672H20.1016C21.0977 2.88672 21.6953 3.46094 21.6953 4.42188V23.9922C21.6953 24.9531 21.0977 25.5156 20.1016 25.5156H7.48047C6.47266 25.5156 5.88672 24.9531 5.88672 23.9922ZM10.4688 24.625H17.1133C17.4414 24.625 17.6641 24.4023 17.6641 24.0742C17.6641 23.7461 17.4414 23.5352 17.1133 23.5352H10.4688C10.1523 23.5352 9.92969 23.7461 9.92969 24.0742C9.92969 24.4023 10.1523 24.625 10.4688 24.625Z" fill="black" fill-opacity="0.85"/>
</g>
<defs>
<clipPath id="clip0_2124_24681">
<rect width="19.582" height="26.4258" fill="white" transform="translate(4 1)"/>
</clipPath>
</defs>
</svg>
