<svg width="28" height="28" viewBox="0 0 28 28" fill="none" xmlns="http://www.w3.org/2000/svg">
<g clip-path="url(#clip0_2124_50232)">
<path d="M2.24219 8.375H26.5469C27.2852 8.375 27.7891 7.87109 27.7891 7.12109V3.23047C27.7891 2.50391 27.2852 2 26.5469 2H2.24219C1.50391 2 1 2.50391 1 3.23047V7.12109C1 7.87109 1.50391 8.375 2.24219 8.375ZM3.19141 6.48828C3.01562 6.48828 2.88672 6.35938 2.88672 6.17188V4.20312C2.88672 4.01562 3.01562 3.88672 3.19141 3.88672H25.5977C25.7734 3.88672 25.9023 4.01562 25.9023 4.20312V6.17188C25.9023 6.35938 25.7734 6.48828 25.5977 6.48828H3.19141ZM3.69531 24.5586H5.58203V7.41406H3.69531V24.5586ZM23.207 24.5586H25.0938V7.41406H23.207V24.5586ZM7.57422 24.5586H9.05078V12.2422C9.05078 11.8672 9.27344 11.6445 9.63672 11.6445H19.1523C19.5156 11.6445 19.7383 11.8672 19.7383 12.2422V24.5586H21.2148V11.8203C21.2148 10.8008 20.582 10.1797 19.5742 10.1797H9.21484C8.20703 10.1797 7.57422 10.8008 7.57422 11.8203V24.5586ZM1.98438 25.5078H26.8047C27.3203 25.5078 27.7539 25.0742 27.7539 24.5586C27.7539 24.043 27.3203 23.6211 26.8047 23.6211H1.98438C1.46875 23.6211 1.03516 24.043 1.03516 24.5586C1.03516 25.0742 1.46875 25.5078 1.98438 25.5078ZM14.207 22.7188C16.5039 22.7188 18.0039 21.1836 18.0039 18.875C18.0039 15.0195 14.7227 13.4141 12.4609 13.4141C11.875 13.4141 11.6289 13.7539 11.9336 14.1641C12.4727 14.8438 12.9531 15.5938 12.918 16.6367C12.6602 16.1562 12.2031 15.8281 11.8281 15.8281C11.6523 15.8281 11.5586 15.9336 11.5586 16.0977C11.5586 16.2031 11.5586 16.4258 11.5586 16.5898C11.5586 17.668 10.8438 18.2305 10.8438 19.7773C10.8438 21.5586 12.1914 22.7188 14.207 22.7188ZM14.3242 21.5117C13.5273 21.5117 12.9883 21.0312 12.9883 20.293C12.9883 19.543 13.5273 19.2734 13.6211 18.7344C13.8438 18.8867 13.9961 19.1094 14.1016 19.4023C14.3477 19.0508 14.5 18.4531 14.3594 17.668C15.0625 17.9258 15.8477 18.8164 15.8477 19.9062C15.8477 20.7617 15.3555 21.5117 14.3242 21.5117Z" fill="black" fill-opacity="0.85"/>
</g>
<defs>
<clipPath id="clip0_2124_50232">
<rect width="26.7891" height="23.543" fill="white" transform="translate(1 2)"/>
</clipPath>
</defs>
</svg>
