<svg width="28" height="28" viewBox="0 0 28 28" fill="none" xmlns="http://www.w3.org/2000/svg">
<path d="M13.9531 25.9062C20.4922 25.9062 25.9062 20.4805 25.9062 13.9531C25.9062 7.41406 20.4805 2 13.9414 2C7.41406 2 2 7.41406 2 13.9531C2 20.4805 7.42578 25.9062 13.9531 25.9062Z" fill="black" fill-opacity="0.85"/>
<path d="M10.1914 19.0859C7.78906 19.0859 7.0625 16.3906 7.0625 13.9531C7.0625 11.5156 7.78906 8.82031 10.1914 8.82031C12.6055 8.82031 13.332 11.5156 13.332 13.9531C13.332 16.3906 12.6055 19.0859 10.1914 19.0859ZM10.1914 17.6445C11.1758 17.6445 11.5508 16.0508 11.5508 13.9531C11.5508 11.8438 11.1758 10.2617 10.1914 10.2617C9.20703 10.2617 8.83203 11.8438 8.83203 13.9531C8.83203 16.0508 9.20703 17.6445 10.1914 17.6445ZM17.0586 15.4648C15.4648 15.4648 14.6797 13.918 14.6797 12.2891C14.6797 10.3906 15.7461 8.84375 17.5859 8.84375C20.0234 8.84375 20.7617 11.5742 20.7617 13.8594C20.7617 16.332 20.0352 19.0742 17.5625 19.0742C16.3555 19.0742 15.3008 18.4414 15.043 17.3867C14.9961 17.2461 14.9727 17.0938 14.9727 16.9531C14.9727 16.5547 15.1836 16.2148 15.6992 16.2148C16.0508 16.2148 16.2969 16.3672 16.4727 16.7656C16.6953 17.2812 17.0586 17.6562 17.5977 17.6562C18.9453 17.6562 19.0977 15.2422 19.0977 13.9062C19.0977 13.8711 19.0977 13.8242 19.0977 13.7773H19.0625C18.793 14.8086 18.043 15.4648 17.0586 15.4648ZM17.6094 14.1289C18.4766 14.1289 18.875 13.1445 18.875 12.207C18.875 11.3047 18.5117 10.2617 17.6094 10.2617C16.7656 10.2617 16.3555 11.3047 16.3555 12.207C16.3555 13.1094 16.7188 14.1289 17.6094 14.1289Z" fill="white"/>
</svg>
