<svg width="29" height="29" viewBox="0 0 29 29" fill="none" xmlns="http://www.w3.org/2000/svg">
<g clip-path="url(#clip0_2124_45952)">
<path d="M23.5689 8.3772C25.315 8.3772 26.7213 6.91236 26.7213 5.21314C26.7213 3.44361 25.315 2.01392 23.5689 2.01392C21.7877 2.01392 20.3814 3.44361 20.3814 5.21314C20.3814 6.95923 21.7877 8.3772 23.5689 8.3772ZM4.67832 25.1467C5.28769 25.7795 6.33066 25.7327 7.08066 24.9592L12.1197 19.7561C12.2838 19.5803 12.401 19.5334 12.6705 19.6389L16.608 21.1272C19.1275 22.0998 21.5181 21.2678 22.6197 19.2522L25.151 14.6467C26.1353 12.8537 25.8306 11.0022 24.1197 10.0881C22.4674 9.1858 20.7447 9.86548 19.7486 11.7053L16.4674 17.6936L13.6666 16.6741C12.2838 16.1701 11.1236 16.3342 10.0221 17.4827L4.78378 22.8967C4.05722 23.6467 4.12753 24.5842 4.67832 25.1467Z" fill="black" fill-opacity="0.85"/>
<path d="M1.25678 5.79908L5.06537 10.6506C5.22944 10.8616 5.48725 10.9084 5.74506 10.7678C6.64741 10.2874 7.94819 9.95923 8.96772 9.95923C9.99897 9.95923 11.2998 10.2874 12.2021 10.7678C12.4482 10.9084 12.7178 10.8616 12.8818 10.6506L16.6904 5.79908C17.0771 5.30689 17.0185 4.80298 16.5381 4.4397C15.0029 3.25611 12.0732 2.34204 8.96772 2.34204C5.87397 2.34204 2.94428 3.25611 1.39741 4.4397C0.928659 4.80298 0.870065 5.30689 1.25678 5.79908ZM5.206 13.4748C4.77241 12.9123 4.58491 12.385 4.58491 11.8108C4.58491 10.4866 5.66303 10.1584 5.66303 9.3733C5.66303 8.58814 4.58491 8.27173 4.58491 6.92408C4.58491 6.36158 4.77241 5.84595 5.21772 5.27173C5.69819 4.67408 6.56537 5.30689 6.09662 5.92798C5.78022 6.36158 5.69819 6.60767 5.69819 6.92408C5.69819 7.8733 6.76459 8.13111 6.76459 9.3733C6.76459 10.6272 5.69819 10.8733 5.69819 11.8108C5.69819 12.1506 5.78022 12.385 6.09662 12.8186C6.56537 13.428 5.68647 14.0608 5.206 13.4748ZM8.51069 13.4748C8.07709 12.9123 7.88959 12.385 7.88959 11.8108C7.88959 10.4866 8.956 10.1584 8.956 9.3733C8.956 8.58814 7.88959 8.27173 7.88959 6.92408C7.88959 6.36158 8.06537 5.84595 8.51069 5.27173C8.99116 4.67408 9.87006 5.30689 9.40131 5.92798C9.08491 6.36158 9.00287 6.60767 9.00287 6.92408C9.00287 7.8733 10.0576 8.13111 10.0576 9.3733C10.0576 10.6272 9.00287 10.8733 9.00287 11.8108C9.00287 12.1506 9.08491 12.385 9.40131 12.8186C9.85834 13.428 8.99116 14.0608 8.51069 13.4748ZM11.8271 13.4748C11.3818 12.9123 11.206 12.385 11.206 11.8108C11.206 10.4866 12.2725 10.1584 12.2725 9.3733C12.2725 8.58814 11.206 8.27173 11.206 6.92408C11.206 6.36158 11.3818 5.84595 11.8271 5.27173C12.3076 4.67408 13.1865 5.30689 12.7178 5.92798C12.3896 6.36158 12.3193 6.60767 12.3193 6.92408C12.3193 7.8733 13.374 8.13111 13.374 9.3733C13.374 10.6272 12.3193 10.8733 12.3193 11.8108C12.3193 12.1506 12.3896 12.385 12.706 12.8186C13.1748 13.428 12.2959 14.0608 11.8271 13.4748Z" fill="black" fill-opacity="0.85"/>
</g>
<defs>
<clipPath id="clip0_2124_45952">
<rect width="25.7197" height="23.7773" fill="white" transform="translate(1.00195 2.01392)"/>
</clipPath>
</defs>
</svg>
