<svg width="28" height="28" viewBox="0 0 28 28" fill="none" xmlns="http://www.w3.org/2000/svg">
<path d="M13.9531 25.918C20.4922 25.918 25.9062 20.5039 25.9062 13.9648C25.9062 7.4375 20.4805 2.01172 13.9414 2.01172C7.41406 2.01172 2 7.4375 2 13.9648C2 20.5039 7.42578 25.918 13.9531 25.918Z" fill="black" fill-opacity="0.85"/>
<path d="M11.293 19.5078C10.6602 19.5078 10.332 19.0625 10.332 18.4062V9.44141C10.332 8.79688 10.6602 8.33984 11.2813 8.33984H17.0938C17.5625 8.33984 17.9023 8.64453 17.9023 9.14844C17.9023 9.61719 17.5625 9.93359 17.0938 9.93359H12.2656V13.168H16.625C17.0938 13.168 17.4336 13.4375 17.4336 13.9297C17.4336 14.4219 17.0938 14.6797 16.625 14.6797H12.2656V18.4062C12.2656 19.0859 11.9258 19.5078 11.293 19.5078Z" fill="white"/>
</svg>
