<svg width="28" height="28" viewBox="0 0 28 28" fill="none" xmlns="http://www.w3.org/2000/svg">
<path d="M13.9531 25.9062C20.4922 25.9062 25.9062 20.4805 25.9062 13.9531C25.9062 7.41406 20.4805 2 13.9414 2C7.41406 2 2 7.41406 2 13.9531C2 20.4805 7.42578 25.9062 13.9531 25.9062ZM13.9531 23.9141C8.42188 23.9141 4.00391 19.4844 4.00391 13.9531C4.00391 8.42188 8.41016 3.99219 13.9414 3.99219C19.4727 3.99219 23.9141 8.42188 23.9141 13.9531C23.9141 19.4844 19.4844 23.9141 13.9531 23.9141Z" fill="black" fill-opacity="0.85"/>
<path d="M11.4922 18.8398C11.9375 18.8398 12.3008 18.5703 12.3008 18.0078V16.8359H12.7109C13.168 16.8359 13.3789 16.543 13.3789 16.1445C13.3789 15.7695 13.1797 15.4766 12.7109 15.4766H12.3008V10.332C12.3008 9.52344 11.7617 9.06641 11 9.06641C10.1797 9.06641 9.79297 9.48828 9.46484 10.2148L7.36719 14.7617C7.16797 15.2188 7.09766 15.5234 7.09766 15.8867C7.09766 16.4492 7.49609 16.8359 8.05859 16.8359H10.6836V18.0078C10.6836 18.6289 11.1289 18.8398 11.4922 18.8398ZM10.7187 15.5117H8.53906V15.4297L10.6719 10.543H10.7187V15.5117ZM17.457 18.9336C19.2852 18.9336 20.2812 17.3984 20.2812 15.5469C20.2812 13.9297 19.5078 12.4531 17.9961 12.4531C17.3164 12.4531 16.6719 12.7695 16.3789 13.4492H16.3203L16.5078 10.6016H19.2617C19.6719 10.6016 19.918 10.3203 19.918 9.91016C19.918 9.52344 19.6602 9.21875 19.2617 9.21875H16.0391C15.4297 9.21875 15.1602 9.61719 15.1133 10.2266L14.9258 13.4375C14.9141 13.6133 14.9023 13.8008 14.9023 13.9531C14.9023 14.3984 15.1367 14.7969 15.6758 14.7969C15.9922 14.7969 16.1797 14.668 16.4258 14.3516C16.6836 13.9648 16.9883 13.6836 17.457 13.6836C18.3242 13.6836 18.6523 14.7266 18.6523 15.5938C18.6523 16.5664 18.3008 17.5625 17.4336 17.5625C16.7773 17.5625 16.4023 17.0938 16.1914 16.4492C16.0625 16.0742 15.793 15.8984 15.4883 15.8984C15.0547 15.8984 14.7852 16.168 14.7852 16.6016C14.7852 16.8711 14.8555 17.1289 14.9492 17.3633C15.3594 18.3125 16.4023 18.9336 17.457 18.9336Z" fill="black" fill-opacity="0.85"/>
</svg>
