<svg width="29" height="29" viewBox="0 0 29 29" fill="none" xmlns="http://www.w3.org/2000/svg">
<g clip-path="url(#clip0_2124_46047)">
<path d="M15.5468 25.9609C20.6328 25.9609 23.4922 22.7734 23.4922 17.3359V15.0859C23.4922 13.0234 22.4961 11.7695 21.3828 11.7695C21.125 11.7695 20.9961 11.8984 20.9961 12.1445V13.1406C20.9961 13.6093 20.75 13.8437 20.4687 13.8437C20.164 13.8437 19.9296 13.6093 19.9296 13.1406V12.4843C19.9296 11.2773 19.1445 10.4805 18.1015 10.4805C17.6211 10.4805 17.4101 10.6797 17.4101 11.0781V12.4375C17.4101 12.9062 17.1757 13.1406 16.8945 13.1406C16.5898 13.1406 16.3437 12.9062 16.3437 12.4375V11.1836C16.3437 9.82422 15.5468 9.17969 14.5391 9.17969C14.082 9.17969 13.8477 9.39062 13.8477 9.77734V12.4375C13.8477 12.9062 13.6016 13.1406 13.3203 13.1406C13.0156 13.1406 12.7812 12.9062 12.7812 12.4375V3.54297C12.7812 2.67578 12.207 2.11328 11.4805 2.11328C10.6953 2.11328 10.1445 2.67578 10.1445 3.54297V16.5625C10.1445 16.8906 9.94532 17.0547 9.7461 17.0547C9.54688 17.0547 9.38282 16.9375 9.24219 16.6093L7.51953 12.5429C7.26172 11.9453 6.86328 11.6875 6.33594 11.6875C5.53906 11.6875 5.02344 12.2383 5.02344 12.8945C5.02344 13.164 5.08203 13.3867 5.14063 13.5742L7.03906 19.2343C8.65625 24.0039 11.8086 25.9609 15.5468 25.9609Z" fill="black" fill-opacity="0.85"/>
</g>
<defs>
<clipPath id="clip0_2124_46047">
<rect width="18.4688" height="23.9414" fill="white" transform="translate(5.02344 2.01953)"/>
</clipPath>
</defs>
</svg>
