<svg width="28" height="28" viewBox="0 0 28 28" fill="none" xmlns="http://www.w3.org/2000/svg">
<path d="M13.9531 25.9062C20.4922 25.9062 25.9062 20.4805 25.9062 13.9531C25.9062 7.41406 20.4805 2 13.9414 2C7.41406 2 2 7.41406 2 13.9531C2 20.4805 7.42578 25.9062 13.9531 25.9062Z" fill="black" fill-opacity="0.85"/>
<path d="M10.2031 19.0391C8.89062 19.0391 7.67188 18.418 7.32031 17.293C7.26172 17.0938 7.22656 16.8828 7.22656 16.6602C7.22656 16.1797 7.54297 15.8984 8.02344 15.8984C8.41016 15.8984 8.66797 16.0977 8.79688 16.4961C8.9375 17.0352 9.32422 17.6211 10.2031 17.6211C11.1055 17.6211 11.5391 16.918 11.5391 16.0977C11.5391 15.0312 10.9766 14.4805 9.94531 14.4805H9.65234C9.24219 14.4805 8.98438 14.2344 8.98438 13.8359C8.98438 13.4492 9.23047 13.1914 9.65234 13.1914H9.93359C10.8359 13.1914 11.3281 12.5469 11.3281 11.668C11.3281 10.8711 10.9531 10.2617 10.1563 10.2617C9.47656 10.2617 9.08984 10.707 8.90234 11.4219C8.78516 11.832 8.55078 11.9961 8.12891 11.9961C7.64844 11.9961 7.37891 11.668 7.37891 11.2813C7.37891 11.082 7.40234 10.8594 7.47266 10.625C7.82422 9.55859 8.90234 8.85547 10.1563 8.85547C11.7266 8.85547 12.9805 9.80469 12.9805 11.4805C12.9805 12.4883 12.4531 13.4609 11.3516 13.7539V13.8008C12.3711 13.9062 13.2734 14.6445 13.2734 16.1445C13.2734 17.9492 11.9375 19.0391 10.2031 19.0391ZM17.668 19.0742C15.2539 19.0742 14.5391 16.3789 14.5391 13.9414C14.5391 11.5039 15.2539 8.80859 17.668 8.80859C20.082 8.80859 20.7969 11.5039 20.7969 13.9414C20.7969 16.3789 20.082 19.0742 17.668 19.0742ZM17.668 17.6328C18.6523 17.6328 19.0273 16.0391 19.0273 13.9414C19.0273 11.832 18.6523 10.2383 17.668 10.2383C16.6953 10.2383 16.3203 11.832 16.3203 13.9414C16.3203 16.0391 16.6953 17.6328 17.668 17.6328Z" fill="white"/>
</svg>
