<svg width="28" height="28" viewBox="0 0 28 28" fill="none" xmlns="http://www.w3.org/2000/svg">
<path d="M9.13281 26.8203C10.3047 26.8203 11.1133 26.5391 11.7812 26.2578C12.4727 25.9648 13 25.6602 13.6562 25.6602C14.3008 25.6602 14.8281 25.9648 15.5312 26.2578C16.1992 26.5391 16.9961 26.8203 18.168 26.8203C20.6992 26.8203 22.6211 24.9922 22.6211 22.5898C22.6211 20.2109 21.2734 19.0977 20.0898 18.1484C19.4688 17.668 18.918 17.2344 18.6016 16.6953C18.2969 16.1914 18.0508 15.6289 17.8047 15.0664C17.043 13.2969 16.2227 11.4688 13.6562 11.4688C11.0781 11.4688 10.2695 13.2969 9.50781 15.0547C9.25 15.6289 9.01562 16.1797 8.72266 16.6719C8.39453 17.2109 7.83203 17.668 7.22266 18.1484C6.03906 19.0977 4.69141 20.2227 4.69141 22.5898C4.69141 24.9922 6.61328 26.8203 9.13281 26.8203ZM9.13281 25.1211C7.53906 25.1211 6.39062 24.0664 6.39062 22.5898C6.39062 19.8477 8.65234 20.082 10.0938 17.6211C11.1602 15.8164 11.5234 13.168 13.6562 13.168C15.7891 13.168 16.1406 15.8164 17.2188 17.6445C18.6602 20.082 20.9219 19.8477 20.9219 22.5898C20.9219 24.0664 19.7734 25.1211 18.168 25.1211C16.5391 25.1211 15.4727 23.9727 13.6562 23.9727C11.8398 23.9727 10.7734 25.1211 9.13281 25.1211ZM1 13.2031C1 15.8633 2.24219 17.6445 4.14062 17.6445C6.02734 17.6445 7.29297 15.8633 7.29297 13.2031C7.29297 10.543 6.02734 8.76172 4.14062 8.76172C2.24219 8.76172 1 10.543 1 13.2031ZM2.62891 13.2031C2.62891 11.5156 3.22656 10.3906 4.14062 10.3906C5.05469 10.3906 5.66406 11.5156 5.66406 13.2031C5.66406 14.8906 5.05469 16.0156 4.14062 16.0156C3.22656 16.0156 2.62891 14.8906 2.62891 13.2031ZM6.69531 6.42969C6.69531 9.10156 7.94922 10.8594 9.83594 10.8594C11.7344 10.8594 12.9883 9.07812 12.9883 6.42969C12.9883 3.76953 11.7344 2 9.83594 2C7.94922 2 6.69531 3.76953 6.69531 6.42969ZM8.32422 6.42969C8.32422 4.75391 8.92188 3.62891 9.83594 3.62891C10.75 3.62891 11.3594 4.75391 11.3594 6.42969C11.3594 8.11719 10.75 9.23047 9.83594 9.23047C8.92188 9.23047 8.32422 8.11719 8.32422 6.42969ZM14.3477 6.42969C14.3477 9.07812 15.6016 10.8594 17.5 10.8594C19.3867 10.8594 20.6406 9.10156 20.6406 6.42969C20.6406 3.76953 19.3867 2 17.5 2C15.6016 2 14.3477 3.76953 14.3477 6.42969ZM15.9766 6.42969C15.9766 4.75391 16.5859 3.62891 17.5 3.62891C18.4141 3.62891 19.0117 4.75391 19.0117 6.42969C19.0117 8.11719 18.4141 9.23047 17.5 9.23047C16.5859 9.23047 15.9766 8.11719 15.9766 6.42969ZM20.043 13.2031C20.043 15.8633 21.3086 17.6445 23.1953 17.6445C25.0938 17.6445 26.3359 15.8633 26.3359 13.2031C26.3359 10.543 25.0938 8.76172 23.1953 8.76172C21.3086 8.76172 20.043 10.543 20.043 13.2031ZM21.6719 13.2031C21.6719 11.5156 22.2812 10.3906 23.1953 10.3906C24.1094 10.3906 24.707 11.5156 24.707 13.2031C24.707 14.8906 24.1094 16.0156 23.1953 16.0156C22.2812 16.0156 21.6719 14.8906 21.6719 13.2031Z" fill="black" fill-opacity="0.85"/>
</svg>
