<svg width="34" height="28" viewBox="0 0 34 28" fill="none" xmlns="http://www.w3.org/2000/svg">
<g clip-path="url(#clip0_2124_50014)">
<path d="M16.5938 24.0508C26.4844 24.0508 33.2227 19.5156 33.2227 14.0312C33.2227 8.54688 26.4844 4 16.5938 4C6.72656 4 0 8.54688 0 14.0312C0 19.5156 6.72656 24.0508 16.5938 24.0508ZM16.5938 20.5234C10.3594 20.5234 5.61328 17.9219 5.61328 14.3477C5.61328 10.7969 10.3594 8.19531 16.5938 8.19531C22.8633 8.19531 27.6211 10.7969 27.6211 14.3477C27.6211 17.9102 22.8516 20.5234 16.5938 20.5234ZM16.582 15.0625C20.168 15.0625 23.2969 13.4453 24.5039 11.1953C22.7812 10.0352 20.0391 9.32031 16.5938 9.32031C13.1367 9.32031 10.3711 10.0469 8.64844 11.2422C9.87891 13.4805 12.9961 15.0625 16.582 15.0625Z" fill="black" fill-opacity="0.85"/>
</g>
<defs>
<clipPath id="clip0_2124_50014">
<rect width="33.2227" height="20.0742" fill="white" transform="translate(0 4)"/>
</clipPath>
</defs>
</svg>
