<svg width="28" height="28" viewBox="0 0 28 28" fill="none" xmlns="http://www.w3.org/2000/svg">
<path d="M6.67969 24.5977H20.8945C23.3555 24.5977 24.5742 23.3789 24.5742 20.9648V6.65625C24.5742 4.24219 23.3555 3.02344 20.8945 3.02344H6.67969C4.23047 3.02344 3 4.23047 3 6.65625V20.9648C3 23.3906 4.23047 24.5977 6.67969 24.5977ZM6.70312 22.7109C5.53125 22.7109 4.88672 22.0898 4.88672 20.8711V6.75C4.88672 5.53125 5.53125 4.91016 6.70312 4.91016H20.8711C22.0312 4.91016 22.6875 5.53125 22.6875 6.75V20.8711C22.6875 22.0898 22.0312 22.7109 20.8711 22.7109H6.70312Z" fill="black" fill-opacity="0.85"/>
<path d="M11.4609 18.6562C11.918 18.6562 12.3047 18.2695 12.3047 17.8008V9.85547C12.3047 9.25781 11.9297 8.90625 11.3203 8.90625C10.8398 8.90625 10.4297 9.17578 10.1602 9.38672L8.87109 10.3828C8.66016 10.5469 8.50781 10.7695 8.50781 11.0742C8.50781 11.4375 8.74219 11.6953 9.10547 11.6953C9.28125 11.6953 9.39844 11.6367 9.51562 11.5547L10.5938 10.6875V17.8008C10.5938 18.2695 10.9805 18.6562 11.4609 18.6562ZM16.8633 18.6562C17.3203 18.6562 17.707 18.2695 17.707 17.8008V9.85547C17.707 9.25781 17.332 8.90625 16.7227 8.90625C16.2305 8.90625 15.832 9.17578 15.5625 9.38672L14.2734 10.3828C14.0625 10.5469 13.8984 10.7695 13.8984 11.0742C13.8984 11.4375 14.1445 11.6953 14.5078 11.6953C14.6836 11.6953 14.8008 11.6367 14.918 11.5547L15.9961 10.6875V17.8008C15.9961 18.2695 16.3828 18.6562 16.8633 18.6562Z" fill="black" fill-opacity="0.85"/>
</svg>
