<svg width="28" height="28" viewBox="0 0 28 28" fill="none" xmlns="http://www.w3.org/2000/svg">
<path d="M3 21.7344C3 22.25 3.42188 22.6836 3.9375 22.6836C4.46484 22.6836 4.88672 22.25 4.88672 21.7344V5.96094C4.88672 5.44531 4.46484 5.02344 3.9375 5.02344C3.42188 5.02344 3 5.44531 3 5.96094V21.7344ZM22.6875 21.7344C22.6875 22.25 23.1211 22.6836 23.6367 22.6836C24.1523 22.6836 24.5742 22.25 24.5742 21.7344V5.96094C24.5742 5.44531 24.1523 5.02344 23.6367 5.02344C23.1211 5.02344 22.6875 5.44531 22.6875 5.96094V21.7344Z" fill="black" fill-opacity="0.85"/>
<path d="M15.1172 18.6523C15.5156 18.6523 15.8906 18.418 15.8906 17.8555V16.7773H16.3594C16.8164 16.7773 17.0039 16.4844 17.0039 16.1328C17.0039 15.7461 16.793 15.4766 16.3594 15.4766H15.8906V10.6719C15.8906 9.89844 15.375 9.48828 14.6133 9.48828C13.8398 9.48828 13.4648 9.89844 13.1016 10.5781C12.4102 11.7852 11.4023 13.6602 10.8516 14.7734C10.6992 15.1367 10.5703 15.5117 10.5703 15.9102C10.5703 16.4258 10.9453 16.7773 11.4844 16.7773H14.3438V17.8555C14.3438 18.4062 14.7188 18.6523 15.1172 18.6523ZM14.3789 15.5234H11.9648V15.4414C12.5859 14.0234 13.5586 12.2188 14.332 10.8594H14.3789V15.5234Z" fill="black" fill-opacity="0.85"/>
</svg>
