<svg width="28" height="28" viewBox="0 0 28 28" fill="none" xmlns="http://www.w3.org/2000/svg">
<path d="M6.67969 24.5977H20.8945C23.3555 24.5977 24.5742 23.3789 24.5742 20.9648V6.65625C24.5742 4.24219 23.3555 3.02344 20.8945 3.02344H6.67969C4.23047 3.02344 3 4.23047 3 6.65625V20.9648C3 23.3906 4.23047 24.5977 6.67969 24.5977Z" fill="black" fill-opacity="0.85"/>
<path d="M8.13281 18.6797C7.57031 18.6797 7.30078 18.3867 7.30078 17.9766C7.30078 17.6016 7.53516 17.2969 7.75781 17.0039L9.85547 14.332C10.4883 13.5117 11.168 12.5273 11.168 11.5547C11.168 10.6992 10.7578 10.0664 10.043 10.0664C9.33984 10.0664 9.04688 10.5703 8.82422 11.3789C8.69531 11.7773 8.44922 11.9648 8.03906 11.9648C7.58203 11.9648 7.3125 11.6484 7.3125 11.1914C7.3125 9.9375 8.50781 8.66016 10.043 8.66016C11.707 8.66016 12.8203 9.84375 12.8203 11.4727C12.8203 12.5391 12.4219 13.4297 11.2148 14.9297L9.45703 17.1562V17.2617H12.3281C12.7383 17.2617 13.0078 17.5078 13.0078 17.9766C13.0078 18.3984 12.75 18.6797 12.3281 18.6797H8.13281ZM18.5859 18.832C18.1992 18.832 17.7422 18.6211 17.7422 17.9766V16.7695H15.0469C14.4609 16.7695 14.0391 16.3711 14.0391 15.7852C14.0391 15.4102 14.1211 15.0938 14.3203 14.625L16.4766 9.94922C16.8164 9.1875 17.2148 8.75391 18.0703 8.75391C18.8672 8.75391 19.418 9.23438 19.418 10.0664V15.3633H19.8398C20.3203 15.3633 20.5312 15.668 20.5312 16.0547C20.5312 16.4648 20.3086 16.7695 19.8398 16.7695H19.418V17.9766C19.418 18.5508 19.043 18.832 18.5859 18.832ZM17.7773 15.3984V10.2773H17.7422L15.5508 15.3164V15.3984H17.7773Z" fill="white"/>
</svg>
