<svg width="32" height="29" viewBox="0 0 32 29" fill="none" xmlns="http://www.w3.org/2000/svg">
<path d="M31.9922 12.8577V10.9124C31.4766 11.1584 30.9492 11.4514 30.3984 11.803L26.1445 14.4749L21.4688 15.0491C18.5391 15.4006 16.8164 17.0881 16.8164 19.5959V21.6936C16.8164 23.4749 17.8359 24.5061 19.582 24.5061H22.8047V22.7952H19.6758C18.9258 22.7952 18.5273 22.3264 18.5273 21.4827V19.5959C18.5273 18.0256 19.6523 16.9944 21.6797 16.7366L26.7188 16.1155L31.3008 13.2795C31.5352 13.1272 31.7695 12.9866 31.9922 12.8577ZM31.9922 24.5061V22.7952H27.7383V24.5061H31.9922ZM25.2188 26.9202C27.2461 26.9202 28.8281 25.3264 28.8281 23.3108C28.8281 21.2717 27.2461 19.6897 25.2188 19.6897C23.1914 19.6897 21.6094 21.2717 21.6094 23.3108C21.6094 25.3264 23.1914 26.9202 25.2188 26.9202ZM25.2188 25.2092C24.1406 25.2092 23.3203 24.3772 23.3203 23.3108C23.3203 22.2327 24.1406 21.4006 25.2188 21.4006C26.2852 21.4006 27.1172 22.2327 27.1172 23.3108C27.1172 24.3772 26.2852 25.2092 25.2188 25.2092ZM6.5625 26.9202C8.58984 26.9202 10.1719 25.3264 10.1719 23.3108C10.1719 21.2717 8.58984 19.6897 6.5625 19.6897C4.53516 19.6897 2.95312 21.2717 2.95312 23.3108C2.95312 25.3264 4.53516 26.9202 6.5625 26.9202ZM6.5625 25.2092C5.48438 25.2092 4.66406 24.3772 4.66406 23.3108C4.66406 22.2327 5.48438 21.4006 6.5625 21.4006C7.64062 21.4006 8.46094 22.2327 8.46094 23.3108C8.46094 24.3772 7.64062 25.2092 6.5625 25.2092ZM0 9.76392V11.4749H1.57031C4.44141 11.4749 6.76172 12.6584 8.76562 15.4358L11.3555 16.1155C12.3164 16.3616 12.5742 16.9358 12.5742 17.7327V21.5647C12.5742 22.3381 12.1875 22.7952 11.5195 22.7952H8.90625V24.5061H11.8242C13.3477 24.5061 14.2852 23.5569 14.2852 21.9866V17.7327C14.2852 16.2678 13.8398 15.0139 11.8711 14.3928L9.70312 13.7249C8.33203 12.0959 5.94141 9.76392 1.57031 9.76392H0ZM0 22.7952V24.5061H4.06641V22.7952H0Z" fill="black" fill-opacity="0.85"/>
<path d="M16.7229 4.80688C15.2463 6.98657 14.4611 9.52954 14.4963 11.9905C14.5314 12.4709 14.883 12.8108 15.3166 12.8108C15.7736 12.7874 16.09 12.4358 16.09 11.9553C16.0549 9.84595 16.7345 7.58423 18.0236 5.68579C19.3243 3.77563 21.1291 2.29907 23.1096 1.54907C23.5549 1.38501 23.7775 0.927979 23.6135 0.494385C23.4611 0.0725096 23.0041 -0.103271 22.5471 0.0607908C20.2502 0.963135 18.1877 2.63892 16.7229 4.80688Z" fill="black" fill-opacity="0.85"/>
<path d="M19.6872 6.82249C18.6091 8.3928 18.0466 10.2444 18.0935 12.0022C18.1169 12.4827 18.4685 12.7991 18.9138 12.8108C19.3474 12.7991 19.6872 12.4475 19.6872 11.9436C19.652 10.5491 20.1208 9.03733 21.0231 7.68968C21.902 6.3889 23.1442 5.36936 24.4567 4.8889C24.9138 4.7014 25.113 4.24436 24.9606 3.84593C24.7849 3.42405 24.3513 3.23655 23.9059 3.3889C22.2888 3.97483 20.777 5.2053 19.6872 6.82249Z" fill="black" fill-opacity="0.85"/>
<path d="M22.6644 8.81468C21.9847 9.81077 21.6214 10.9944 21.68 12.0022C21.68 12.4475 22.0315 12.8108 22.4769 12.7991C22.9691 12.7991 23.2972 12.4124 23.2972 11.9084C23.262 11.217 23.5198 10.3967 23.9886 9.7053C24.4691 9.00218 25.137 8.4514 25.7581 8.24046C26.2386 8.06468 26.4847 7.60765 26.3089 7.1389C26.1331 6.74046 25.6878 6.55296 25.2542 6.7053C24.2698 7.06858 23.3089 7.84202 22.6644 8.81468Z" fill="black" fill-opacity="0.85"/>
</svg>
