<svg width="28" height="28" viewBox="0 0 28 28" fill="none" xmlns="http://www.w3.org/2000/svg">
<path d="M9.83203 4C3.03516 4 0 7.12891 0 13.5273V20.875C0 23.2422 1.21875 24.4375 3.59766 24.4375H23.4375C25.8164 24.4375 27.0352 23.2305 27.0352 20.875V13.5273C27.0352 7.12891 24 4 17.2031 4H9.83203ZM9.83203 5.88672H17.1914C22.7344 5.88672 25.1484 8.28906 25.1484 13.3984V20.7812C25.1484 21.9531 24.5156 22.5508 23.3906 22.5508H3.64453C2.49609 22.5508 1.88672 21.9531 1.88672 20.7812V13.3984C1.88672 8.28906 4.30078 5.88672 9.83203 5.88672Z" fill="black" fill-opacity="0.85"/>
<path d="M9.35156 18.9766H12.7266C13.1133 18.9766 13.4297 18.6484 13.4297 18.2617C13.4297 17.875 13.1133 17.5469 12.7266 17.5469H10.2188V10.1992C10.2188 9.73047 9.83203 9.34375 9.36328 9.34375C8.90625 9.34375 8.51953 9.73047 8.51953 10.1992V18.0859C8.51953 18.6367 8.8125 18.9766 9.35156 18.9766ZM16.207 19.1172C16.6758 19.1172 17.0508 18.7305 17.0508 18.25V10.9023H18.4805C18.8672 10.9023 19.1719 10.5977 19.1719 10.1875C19.1719 9.80078 18.8672 9.49609 18.4805 9.49609H13.8867C13.4766 9.49609 13.1719 9.80078 13.1719 10.1875C13.1719 10.5977 13.4766 10.9023 13.8867 10.9023H15.3516V18.25C15.3516 18.7305 15.7266 19.1172 16.207 19.1172Z" fill="black" fill-opacity="0.85"/>
</svg>
