<svg width="30" height="28" viewBox="0 0 30 28" fill="none" xmlns="http://www.w3.org/2000/svg">
<path d="M14.8477 20.8945C15.4922 20.8945 16.0195 20.3672 16.0195 19.7227V13.8281C16.0195 13.5469 15.9141 13.2891 15.6914 13.0312L12.6211 9.60938C12.4336 9.39844 12.5625 9.08203 12.8555 9.08203H16.6172C17.0742 9.08203 17.2148 9.41016 17.2148 9.72656V12.6445C17.2148 13.2891 17.7422 13.8047 18.3867 13.8047H23.1094C23.7539 13.8047 24.2695 13.2891 24.2695 12.6445C24.2695 12 23.7539 11.4727 23.1094 11.4727H19.5586V7.32422C19.5586 6.01172 18.5156 4.96875 17.2031 4.96875H11.4492C10.2539 4.96875 9.19922 5.69531 8.73047 6.78516C8.27344 7.89844 8.53125 9.14062 9.375 9.99609L13.6758 14.3203V19.7227C13.6758 20.3672 14.2031 20.8945 14.8477 20.8945ZM6.36328 25.5117C9.90234 25.5117 12.7383 22.6758 12.7383 19.1367C12.7383 15.6094 9.90234 12.7617 6.36328 12.7617C2.83594 12.7617 0 15.6094 0 19.1367C0 22.6758 2.83594 25.5117 6.36328 25.5117ZM6.36328 23.8594C3.77344 23.8594 1.65234 21.7383 1.65234 19.1367C1.65234 16.5352 3.77344 14.4141 6.36328 14.4141C8.96484 14.4141 11.0859 16.5352 11.0859 19.1367C11.0859 21.7383 8.96484 23.8594 6.36328 23.8594ZM26.4609 15.6328C27.4102 16.4883 28.0312 17.7422 28.0312 19.1367C28.0312 21.7383 25.9102 23.8594 23.3203 23.8594C20.7188 23.8594 18.5977 21.7383 18.5977 19.1367C18.5977 18.4805 18.7266 17.8359 18.9727 17.2734C19.2422 16.6406 18.9727 16.1953 18.5625 16.0547C18.1758 15.9023 17.7188 16.0312 17.5078 16.5352C17.1445 17.3438 16.9453 18.2109 16.9453 19.1367C16.9453 22.6758 19.7812 25.5117 23.3203 25.5117C26.8477 25.5117 29.6836 22.6758 29.6836 19.1367C29.6836 17.2148 28.8516 15.5273 27.5039 14.3438C27.0703 13.9688 26.5781 14.0625 26.2852 14.3789C26.0039 14.6953 25.957 15.1875 26.4609 15.6328ZM23.3203 8.12109C24.7266 8.12109 25.8633 6.97266 25.8633 5.55469C25.8633 4.14844 24.7266 3 23.3203 3C21.8906 3 20.7422 4.14844 20.7422 5.55469C20.7422 6.97266 21.8906 8.12109 23.3203 8.12109Z" fill="black" fill-opacity="0.85"/>
</svg>
