<svg width="42" height="29" viewBox="0 0 42 29" fill="none" xmlns="http://www.w3.org/2000/svg">
<path d="M3.05859 21.5596H4.88672C4.81641 21.2081 4.75781 20.8448 4.75781 20.4581C4.75781 17.9385 6.75 15.9581 9.25781 15.9581C11.7773 15.9581 13.7578 17.9385 13.7578 20.4581C13.7578 20.8448 13.7109 21.2081 13.6289 21.5596H28.5586C28.4883 21.2081 28.4297 20.8448 28.4297 20.4581C28.4297 17.9385 30.4219 15.9581 32.9297 15.9581C35.4492 15.9581 37.4297 17.9385 37.4297 20.4581C37.4297 20.8448 37.3828 21.2081 37.3008 21.5596H38.8477C40.5352 21.5596 41.5664 20.4932 41.5664 18.7588V14.0479C41.5664 12.4073 41.0742 11.0127 38.8945 10.3331L36.4805 9.59479C34.957 7.77838 32.2969 5.18854 27.457 5.18854H24.7031C19.875 5.18854 17.9531 5.65729 15.0703 7.46197L10.3477 10.4268L5.14453 11.0596C1.91016 11.4581 0 13.3213 0 16.1104V18.4307C0 20.4229 1.11328 21.5596 3.05859 21.5596ZM9.25781 23.587C11.0156 23.587 12.3984 22.2042 12.3984 20.4581C12.3984 18.712 11.0039 17.3174 9.25781 17.3174C7.52344 17.3174 6.12891 18.712 6.12891 20.4581C6.12891 22.1924 7.52344 23.587 9.25781 23.587ZM32.9297 23.587C34.6758 23.587 36.0703 22.1924 36.0703 20.4581C36.0703 18.712 34.6758 17.3174 32.9297 17.3174C31.207 17.3174 29.8008 18.7237 29.8008 20.4581C29.8008 22.1924 31.1953 23.587 32.9297 23.587Z" fill="black" fill-opacity="0.85"/>
<path d="M18.609 23.3526C17.9762 23.3526 17.7066 23.8682 18.0465 24.419L20.5894 28.5792C20.9058 29.1182 21.5387 29.0948 21.8551 28.5792L24.4098 24.419C24.7496 23.8682 24.4566 23.3526 23.8355 23.3526H18.609Z" fill="black" fill-opacity="0.85"/>
<path d="M18.609 18.1143C17.9762 18.1143 17.7066 17.5987 18.0465 17.0479L20.5894 12.8877C20.9058 12.3604 21.5387 12.3721 21.8551 12.8877L24.4098 17.0596C24.7496 17.6104 24.4566 18.1143 23.8355 18.1143H18.609Z" fill="white"/>
</svg>
