<svg width="33" height="28" viewBox="0 0 33 28" fill="none" xmlns="http://www.w3.org/2000/svg">
<path d="M8.48438 10.3086H10.3711V6.91016C10.3711 5.03516 11.8242 3.89844 14.0977 3.89844H18.4453C20.7305 3.89844 22.1836 5.03516 22.1836 6.91016V10.3086H24.0703V6.91016C24.0703 3.88672 21.8906 2.01172 18.4453 2.01172H14.0977C10.6641 2.01172 8.48438 3.88672 8.48438 6.91016V10.3086ZM3.91406 25.4023H28.6289C31.0312 25.4023 32.543 23.9141 32.543 21.5469V14.8789C32.543 11.3867 30.1055 8.98438 26.5781 8.98438H5.96484C2.4375 8.98438 0 11.3867 0 14.8789V21.5469C0 23.9141 1.51172 25.4023 3.91406 25.4023ZM3.9375 23.5156C2.67188 23.5156 1.88672 22.7188 1.88672 21.4531V14.9727C1.88672 12.5352 3.55078 10.8711 5.98828 10.8711H26.5547C28.9922 10.8711 30.6562 12.5352 30.6562 14.9727V21.4531C30.6562 22.7188 29.8711 23.5156 28.6055 23.5156H3.9375ZM6.87891 24.6055H8.41406V9.76953H6.87891V24.6055ZM10.4297 24.6055H11.9648V9.76953H10.4297V24.6055ZM20.5898 24.6055H22.125V9.76953H20.5898V24.6055ZM24.1406 24.6055H25.6758V9.76953H24.1406V24.6055ZM11.1797 16.918H21.3398V15.3828H11.1797V16.918Z" fill="black" fill-opacity="0.85"/>
</svg>
