<svg width="28" height="33" viewBox="0 0 28 33" fill="none" xmlns="http://www.w3.org/2000/svg">
<g clip-path="url(#clip0_2124_50162)">
<path d="M6.62109 28.125H17.1914C19.582 28.125 20.8008 26.9062 20.8008 24.5508V6.19922C20.8008 3.83203 19.5586 2.63672 17.1914 2.63672H6.62109C4.25391 2.63672 3 3.83203 3 6.19922V24.5508C3 26.9062 4.23047 28.125 6.62109 28.125ZM4.88672 24.457V6.30469C4.88672 5.14453 5.54297 4.52344 6.64453 4.52344H17.1562C18.2578 4.52344 18.9141 5.14453 18.9141 6.30469V24.457C18.9141 25.6055 18.2578 26.2383 17.1562 26.2383H6.64453C5.54297 26.2383 4.88672 25.6055 4.88672 24.457ZM7.99219 9.43359C8.89453 9.43359 9.64453 8.68359 9.64453 7.76953C9.64453 6.86719 8.89453 6.12891 7.99219 6.12891C7.07812 6.12891 6.33984 6.86719 6.33984 7.76953C6.33984 8.68359 7.07812 9.43359 7.99219 9.43359ZM7.00781 18.7148H10.418C10.8398 18.7148 11.168 18.3984 11.168 17.9766C11.168 17.5664 10.8398 17.2383 10.418 17.2383H7.00781C6.59766 17.2383 6.26953 17.5664 6.26953 17.9766C6.26953 18.3984 6.59766 18.7148 7.00781 18.7148ZM7.00781 21.6445H10.418C10.8398 21.6445 11.168 21.3281 11.168 20.9062C11.168 20.4844 10.8398 20.168 10.418 20.168H7.00781C6.59766 20.168 6.26953 20.4844 6.26953 20.9062C6.26953 21.3281 6.59766 21.6445 7.00781 21.6445ZM7.00781 24.5742H10.418C10.8398 24.5742 11.168 24.2461 11.168 23.8359C11.168 23.4141 10.8398 23.0859 10.418 23.0859H7.00781C6.59766 23.0859 6.26953 23.4141 6.26953 23.8359C6.26953 24.2461 6.59766 24.5742 7.00781 24.5742ZM13.3828 18.7148H16.793C17.2031 18.7148 17.5312 18.3984 17.5312 17.9766C17.5312 17.5664 17.2031 17.2383 16.793 17.2383H13.3828C12.9609 17.2383 12.6328 17.5664 12.6328 17.9766C12.6328 18.3984 12.9609 18.7148 13.3828 18.7148ZM13.3828 21.6445H16.793C17.2031 21.6445 17.5312 21.3281 17.5312 20.9062C17.5312 20.4844 17.2031 20.168 16.793 20.168H13.3828C12.9609 20.168 12.6328 20.4844 12.6328 20.9062C12.6328 21.3281 12.9609 21.6445 13.3828 21.6445ZM13.3828 24.5742H16.793C17.2031 24.5742 17.5312 24.2461 17.5312 23.8359C17.5312 23.4141 17.2031 23.0859 16.793 23.0859H13.3828C12.9609 23.0859 12.6328 23.4141 12.6328 23.8359C12.6328 24.2461 12.9609 24.5742 13.3828 24.5742ZM6.39844 30.1875C6.96094 30.1875 7.33594 29.8008 7.33594 29.2383V26.9414H5.44922V29.2383C5.44922 29.8008 5.83594 30.1875 6.39844 30.1875ZM17.4023 30.1875C17.9766 30.1875 18.3516 29.8008 18.3516 29.2383V26.9414H16.4648V29.2383C16.4648 29.8008 16.8398 30.1875 17.4023 30.1875Z" fill="black" fill-opacity="0.85"/>
<path d="M19.1133 15.8203C22.582 15.8203 25.043 13.4297 25.043 10.0195C25.043 8.36719 24.3633 6.97266 24 6.17578C23.2734 4.61719 22.0898 2.63672 21.1055 1.125C20.6016 0.398438 19.8984 0 19.1133 0C18.3281 0 17.6367 0.398438 17.1328 1.125C16.1484 2.63672 14.9648 4.61719 14.2383 6.17578C13.875 6.97266 13.1836 8.36719 13.1836 10.0195C13.1836 13.4297 15.6562 15.8203 19.1133 15.8203Z" fill="white"/>
<path d="M19.1133 14.2148C21.7031 14.2148 23.4492 12.5391 23.4492 10.0195C23.4492 8.76562 22.9219 7.67578 22.5469 6.83203C21.8555 5.35547 20.7422 3.50391 19.7695 2.01562C19.5703 1.73438 19.3711 1.60547 19.1133 1.60547C18.8672 1.60547 18.6562 1.73438 18.4688 2.01562C17.4961 3.50391 16.3711 5.35547 15.6797 6.83203C15.3164 7.67578 14.7891 8.76562 14.7891 10.0195C14.7891 12.5391 16.5234 14.2148 19.1133 14.2148Z" fill="black" fill-opacity="0.85"/>
</g>
<defs>
<clipPath id="clip0_2124_50162">
<rect width="22.043" height="32.8477" fill="white" transform="translate(3)"/>
</clipPath>
</defs>
</svg>
