<svg width="28" height="28" viewBox="0 0 28 28" fill="none" xmlns="http://www.w3.org/2000/svg">
<path d="M13.9531 25.9062C20.4922 25.9062 25.9062 20.4805 25.9062 13.9531C25.9062 7.41406 20.4805 2 13.9414 2C7.41406 2 2 7.41406 2 13.9531C2 20.4805 7.42578 25.9062 13.9531 25.9062Z" fill="black" fill-opacity="0.85"/>
<path d="M12.125 18.9922C11.7383 18.9922 11.2695 18.7695 11.2695 18.1367V16.9297H8.58594C7.98828 16.9297 7.58984 16.5312 7.58984 15.9453C7.58984 15.5703 7.64844 15.2539 7.85938 14.7852L10.0156 10.0977C10.3555 9.34766 10.7539 8.91406 11.5977 8.91406C12.4062 8.91406 12.9453 9.38281 12.9453 10.2266V15.5234H13.3672C13.8594 15.5234 14.0586 15.8281 14.0586 16.2148C14.0586 16.625 13.8477 16.9297 13.3672 16.9297H12.9453V18.1367C12.9453 18.7109 12.5703 18.9922 12.125 18.9922ZM11.3047 15.5586V10.4375H11.2695L9.07812 15.4766V15.5586H11.3047ZM18.0078 18.9688C17.5039 18.9688 17.1055 18.5703 17.1055 18.0781V10.7539L15.9922 11.6445C15.875 11.7383 15.7578 11.7969 15.5703 11.7969C15.1953 11.7969 14.9375 11.5273 14.9375 11.1523C14.9375 10.8359 15.1133 10.6016 15.3242 10.4375L16.6602 9.40625C16.9297 9.19531 17.3516 8.91406 17.8555 8.91406C18.4883 8.91406 18.875 9.27734 18.875 9.89844V18.0781C18.875 18.5703 18.4766 18.9688 18.0078 18.9688Z" fill="white"/>
</svg>
