<svg width="28" height="28" viewBox="0 0 28 28" fill="none" xmlns="http://www.w3.org/2000/svg">
<path d="M6.67969 24.5977H20.8945C23.3555 24.5977 24.5742 23.3789 24.5742 20.9648V6.65625C24.5742 4.24219 23.3555 3.02344 20.8945 3.02344H6.67969C4.23047 3.02344 3 4.23047 3 6.65625V20.9648C3 23.3906 4.23047 24.5977 6.67969 24.5977ZM6.70312 22.7109C5.53125 22.7109 4.88672 22.0898 4.88672 20.8711V6.75C4.88672 5.53125 5.53125 4.91016 6.70312 4.91016H20.8711C22.0312 4.91016 22.6875 5.53125 22.6875 6.75V20.8711C22.6875 22.0898 22.0312 22.7109 20.8711 22.7109H6.70312Z" fill="black" fill-opacity="0.85"/>
<path d="M10.1133 16.6992C10.6289 16.6992 10.9688 16.3359 10.9688 15.7852V13.7578L10.793 11.9297L12.4805 13.7344L16.793 18.0469C16.9688 18.2109 17.1797 18.3164 17.4609 18.3164C17.9766 18.3164 18.3281 17.9766 18.3281 17.4492C18.3281 17.2148 18.2109 16.9805 18.0469 16.8164L13.7227 12.4922L11.8945 10.793L13.6289 10.9805H15.7617C16.3242 10.9805 16.6875 10.6406 16.6875 10.125C16.6875 9.60938 16.3359 9.26953 15.7852 9.26953H10.2305C9.63281 9.26953 9.25781 9.53906 9.25781 10.2305V15.7617C9.25781 16.3008 9.59766 16.6992 10.1133 16.6992Z" fill="black" fill-opacity="0.85"/>
</svg>
