<svg width="28" height="28" viewBox="0 0 28 28" fill="none" xmlns="http://www.w3.org/2000/svg">
<g clip-path="url(#clip0_2124_78052)">
<path d="M13.9531 25.9062C20.4922 25.9062 25.9062 20.4805 25.9062 13.9531C25.9062 7.41406 20.4805 2 13.9414 2C7.41406 2 2 7.41406 2 13.9531C2 20.4805 7.42578 25.9062 13.9531 25.9062ZM13.9531 23.9141C8.42188 23.9141 4.00391 19.4844 4.00391 13.9531C4.00391 8.42188 8.41016 3.99219 13.9414 3.99219C19.4727 3.99219 23.9141 8.42188 23.9141 13.9531C23.9141 19.4844 19.4844 23.9141 13.9531 23.9141Z" fill="black" fill-opacity="0.85"/>
<path d="M13.918 11.0352C14.7617 11.0352 15.3594 10.4727 15.3594 9.74609C15.3594 8.91406 14.7734 8.33984 13.918 8.33984C13.1328 8.33984 12.5234 8.92578 12.5234 9.74609C12.5234 10.4727 13.1328 11.0352 13.918 11.0352ZM9.38281 14.9492H18.5117C19.168 14.9492 19.6133 14.5977 19.6133 13.9766C19.6133 13.3438 19.1914 12.9922 18.5117 12.9922H9.38281C8.69141 12.9922 8.26953 13.3438 8.26953 13.9766C8.26953 14.5977 8.71484 14.9492 9.38281 14.9492ZM13.918 19.5898C14.7617 19.5898 15.3594 19.0156 15.3594 18.2891C15.3594 17.4688 14.7734 16.8945 13.918 16.8945C13.1328 16.8945 12.5234 17.4688 12.5234 18.2891C12.5234 19.0156 13.1328 19.5898 13.918 19.5898Z" fill="black" fill-opacity="0.85"/>
</g>
<defs>
<clipPath id="clip0_2124_78052">
<rect width="23.9062" height="23.918" fill="white" transform="translate(2 2)"/>
</clipPath>
</defs>
</svg>
