<svg width="28" height="28" viewBox="0 0 28 28" fill="none" xmlns="http://www.w3.org/2000/svg">
<path d="M6.67969 24.5977H20.8945C23.3555 24.5977 24.5742 23.3789 24.5742 20.9648V6.65625C24.5742 4.24219 23.3555 3.02344 20.8945 3.02344H6.67969C4.23047 3.02344 3 4.23047 3 6.65625V20.9648C3 23.3906 4.23047 24.5977 6.67969 24.5977Z" fill="black" fill-opacity="0.85"/>
<path d="M14.4492 19.5469C13.8398 19.5469 13.4883 19.1367 13.4883 18.457V10.1484H13.4062L11.8477 11.1797C11.5664 11.3672 11.4375 11.3906 11.25 11.3906C10.8633 11.3906 10.5586 11.0391 10.5586 10.6641C10.5586 10.3594 10.6758 10.1836 10.9336 9.98438L13.1133 8.50781C13.6289 8.15625 13.9453 8.03906 14.4023 8.03906C15.0586 8.03906 15.4336 8.42578 15.4336 9.12891V18.457C15.4336 19.1367 15.0703 19.5469 14.4492 19.5469Z" fill="white"/>
</svg>
