<svg width="28" height="28" viewBox="0 0 28 28" fill="none" xmlns="http://www.w3.org/2000/svg">
<g clip-path="url(#clip0_2124_24555)">
<path d="M5.64062 4.69141V7.25781C5.64062 9.54297 6.89453 10.5625 8.95703 10.5625H19.5156C21.6953 10.5625 22.832 9.54297 22.832 7.25781V4.69141C22.832 2.40625 21.6953 1.38672 19.5156 1.38672H8.95703C6.89453 1.38672 5.64062 2.40625 5.64062 4.69141ZM7.45703 7.38672V4.5625C7.45703 3.57812 7.96094 3.09766 8.93359 3.09766H19.5391C20.5234 3.09766 21.0156 3.57812 21.0156 4.5625V7.38672C21.0156 8.37109 20.5234 8.85156 19.5391 8.85156H8.93359C7.96094 8.85156 7.45703 8.37109 7.45703 7.38672Z" fill="black" fill-opacity="0.85"/>
<path d="M4.49219 23.1484H23.9922C26.2656 23.1484 27.4727 22 27.4727 19.7148V8.74609C27.4727 6.47266 26.2656 5.3125 23.9922 5.3125H4.49219C2.32422 5.3125 1 6.47266 1 8.74609V19.7148C1 22 2.20703 23.1484 4.49219 23.1484Z" fill="white"/>
<path d="M4.49219 23.1484H23.9922C26.2656 23.1484 27.4727 22 27.4727 19.7148V8.74609C27.4727 6.47266 26.2656 5.3125 23.9922 5.3125H4.49219C2.32422 5.3125 1 6.47266 1 8.74609V19.7148C1 22 2.20703 23.1484 4.49219 23.1484ZM2.89844 19.8086V8.65234C2.89844 7.62109 3.42578 7.08203 4.46875 7.08203H24.0156C25.0469 7.08203 25.5859 7.62109 25.5859 8.65234V19.8086C25.5859 20.8398 25.0469 21.3789 24.0156 21.3789H4.46875C3.42578 21.3789 2.89844 20.8398 2.89844 19.8086Z" fill="black" fill-opacity="0.85"/>
<path d="M7.92578 11.2422H9.00391C9.33203 11.2422 9.53125 11.043 9.53125 10.7148V9.64844C9.53125 9.32031 9.33203 9.12109 9.00391 9.12109H7.92578C7.60938 9.12109 7.41016 9.32031 7.41016 9.64844V10.7148C7.41016 11.043 7.60938 11.2422 7.92578 11.2422ZM11.7812 11.2422H12.8477C13.1758 11.2422 13.375 11.043 13.375 10.7148V9.64844C13.375 9.32031 13.1758 9.12109 12.8477 9.12109H11.7812C11.4531 9.12109 11.2539 9.32031 11.2539 9.64844V10.7148C11.2539 11.043 11.4531 11.2422 11.7812 11.2422ZM15.625 11.2422H16.7031C17.0195 11.2422 17.2188 11.043 17.2188 10.7148V9.64844C17.2188 9.32031 17.0195 9.12109 16.7031 9.12109H15.625C15.2969 9.12109 15.0977 9.32031 15.0977 9.64844V10.7148C15.0977 11.043 15.2969 11.2422 15.625 11.2422ZM19.4688 11.2422H20.5469C20.875 11.2422 21.0742 11.043 21.0742 10.7148V9.64844C21.0742 9.32031 20.875 9.12109 20.5469 9.12109H19.4688C19.1523 9.12109 18.9531 9.32031 18.9531 9.64844V10.7148C18.9531 11.043 19.1523 11.2422 19.4688 11.2422ZM7.92578 15.1914H9.00391C9.33203 15.1914 9.53125 14.9922 9.53125 14.6641V13.5859C9.53125 13.2578 9.33203 13.0586 9.00391 13.0586H7.92578C7.60938 13.0586 7.41016 13.2578 7.41016 13.5859V14.6641C7.41016 14.9922 7.60938 15.1914 7.92578 15.1914ZM11.7812 15.1914H12.8477C13.1758 15.1914 13.375 14.9922 13.375 14.6641V13.5859C13.375 13.2578 13.1758 13.0586 12.8477 13.0586H11.7812C11.4531 13.0586 11.2539 13.2578 11.2539 13.5859V14.6641C11.2539 14.9922 11.4531 15.1914 11.7812 15.1914ZM15.625 15.1914H16.7031C17.0195 15.1914 17.2188 14.9922 17.2188 14.6641V13.5859C17.2188 13.2578 17.0195 13.0586 16.7031 13.0586H15.625C15.2969 13.0586 15.0977 13.2578 15.0977 13.5859V14.6641C15.0977 14.9922 15.2969 15.1914 15.625 15.1914ZM19.4688 15.1914H20.5469C20.875 15.1914 21.0742 14.9922 21.0742 14.6641V13.5859C21.0742 13.2578 20.875 13.0586 20.5469 13.0586H19.4688C19.1523 13.0586 18.9531 13.2578 18.9531 13.5859V14.6641C18.9531 14.9922 19.1523 15.1914 19.4688 15.1914Z" fill="black" fill-opacity="0.85"/>
<path d="M7.96094 26.6289H20.5117C22 26.6289 22.75 25.9492 22.75 24.3906V19.457C22.75 17.9102 22 17.2188 20.5117 17.2188H7.96094C6.54297 17.2188 5.72266 17.9102 5.72266 19.457V24.3906C5.72266 25.9492 6.47266 26.6289 7.96094 26.6289Z" fill="white"/>
<path d="M7.96094 26.6289H20.5117C22 26.6289 22.75 25.9492 22.75 24.3906V19.457C22.75 17.9102 22 17.2188 20.5117 17.2188H7.96094C6.54297 17.2188 5.72266 17.9102 5.72266 19.457V24.3906C5.72266 25.9492 6.47266 26.6289 7.96094 26.6289ZM8.54688 24.8594C7.92578 24.8594 7.60938 24.5547 7.60938 23.9219V19.9141C7.60938 19.293 7.92578 18.9883 8.54688 18.9883H19.9375C20.5703 18.9883 20.8633 19.293 20.8633 19.9141V23.9219C20.8633 24.5547 20.5703 24.8594 19.9375 24.8594H8.54688ZM9.35547 21.9062C9.35547 22.4102 9.74219 22.8086 10.2461 22.8086H18.2383C18.7305 22.8086 19.1172 22.4102 19.1172 21.9062C19.1172 21.4258 18.7305 21.0273 18.2383 21.0273H10.2461C9.74219 21.0273 9.35547 21.4258 9.35547 21.9062Z" fill="black" fill-opacity="0.85"/>
</g>
<defs>
<clipPath id="clip0_2124_24555">
<rect width="26.4727" height="25.6289" fill="white" transform="translate(1 1)"/>
</clipPath>
</defs>
</svg>
