<svg width="28" height="28" viewBox="0 0 28 28" fill="none" xmlns="http://www.w3.org/2000/svg">
<path d="M20.7617 6.10938C22.168 6.10938 23.3047 4.97266 23.3047 3.54297C23.3047 2.13672 22.168 1 20.7617 1C19.332 1 18.1953 2.13672 18.1953 3.54297C18.1953 4.97266 19.332 6.10938 20.7617 6.10938ZM11.7031 15.9883L17.668 20.5352L15.8164 26.2539C15.5469 27.0742 16.0625 27.6602 16.6836 27.8125C17.2344 27.9414 17.8789 27.707 18.125 26.9336L20.1992 20.5234C20.3516 20.0547 20.2695 19.5508 19.9414 19.2344L15.9336 15.2266L20.5391 10.6094C20.7383 10.4102 21.043 10.4102 21.2422 10.6094L22.8359 12.1914L20.6562 14.3711C20.1758 14.8633 20.1875 15.625 20.6562 16.0938C21.1016 16.5273 21.8867 16.5742 22.3672 16.0938L25.4023 13.0586C25.8828 12.5781 25.8711 11.8281 25.4023 11.3477L22.4727 8.39453C21.7695 7.69141 20.9258 7.33984 19.918 7.33984H5.84375C5.1875 7.33984 4.63672 7.87891 4.63672 8.54688C4.63672 9.21484 5.1875 9.76562 5.84375 9.76562H13.9297C14.3398 9.76562 14.5273 10.1875 14.2344 10.4805L11.8906 12.8242C10.8359 13.8789 10.9883 15.4492 11.7031 15.9883ZM11.3516 17.1367L10.7656 20.6992H5.15234C4.46094 20.6992 3.92188 21.2383 3.92188 21.918C3.92188 22.5859 4.46094 23.125 5.15234 23.125H11.7383C12.3711 23.125 12.793 22.8086 12.957 22.2461L13.9062 19.0938L11.3516 17.1367ZM4.63672 13.8203C6.07812 13.8203 7.27344 12.6367 7.27344 11.1836C7.27344 9.74219 6.07812 8.54688 4.63672 8.54688C3.18359 8.54688 2 9.74219 2 11.1836C2 12.6367 3.18359 13.8203 4.63672 13.8203Z" fill="black" fill-opacity="0.85"/>
</svg>
