<svg width="29" height="31" viewBox="0 0 29 31" fill="none" xmlns="http://www.w3.org/2000/svg">
<g clip-path="url(#clip0_2124_88717)">
<path d="M3.67969 26.0866H25.1016C27.5391 26.0866 28.7812 24.8679 28.7812 22.4538V10.1843C28.7812 7.7702 27.5391 6.56317 25.1016 6.56317H21.75C20.8242 6.56317 20.543 6.37567 20.0156 5.78973L19.0781 4.73505C18.4922 4.09052 17.8945 3.73895 16.6875 3.73895H12.0117C10.8047 3.73895 10.207 4.09052 9.62109 4.73505L8.68359 5.78973C8.15625 6.36395 7.86328 6.56317 6.94922 6.56317H3.67969C1.23047 6.56317 0 7.7702 0 10.1843V22.4538C0 24.8679 1.23047 26.0866 3.67969 26.0866ZM14.3906 22.6296C10.8398 22.6296 7.99219 19.7936 7.99219 16.2194C7.99219 12.6569 10.8398 9.82098 14.3906 9.82098C17.9414 9.82098 20.7773 12.6569 20.7773 16.2194C20.7773 19.7936 17.9297 22.6296 14.3906 22.6296ZM14.3906 20.8483C16.9453 20.8483 19.0078 18.7975 19.0078 16.2194C19.0078 13.653 16.9453 11.5905 14.3906 11.5905C11.8359 11.5905 9.76172 13.653 9.76172 16.2194C9.76172 18.7975 11.8477 20.8483 14.3906 20.8483ZM21.5625 11.9069C21.5625 11.11 22.2539 10.4069 23.0859 10.4069C23.8828 10.4069 24.5859 11.11 24.5859 11.9069C24.5859 12.739 23.8828 13.4069 23.0859 13.4186C22.2539 13.4186 21.5625 12.7507 21.5625 11.9069Z" fill="black" fill-opacity="0.85"/>
<path d="M1.57018 1.66473L4.86315 4.48895C5.07409 4.66473 5.29675 4.80536 5.54284 4.80536C5.80065 4.80536 6.02331 4.66473 6.23425 4.48895L9.52721 1.66473C10.4999 0.844422 9.35143 -0.655578 8.27331 0.317079L5.54284 2.81317L2.82409 0.317079C1.73425 -0.655578 0.59753 0.844422 1.57018 1.66473Z" fill="black" fill-opacity="0.85"/>
</g>
<defs>
<clipPath id="clip0_2124_88717">
<rect width="28.7812" height="30.5756" fill="white"/>
</clipPath>
</defs>
</svg>
