<svg width="28" height="28" viewBox="0 0 28 28" fill="none" xmlns="http://www.w3.org/2000/svg">
<path d="M13.9531 25.9062C20.4922 25.9062 25.9062 20.4805 25.9062 13.9531C25.9062 7.41406 20.4805 2 13.9414 2C7.41406 2 2 7.41406 2 13.9531C2 20.4805 7.42578 25.9062 13.9531 25.9062ZM13.9531 23.9141C8.42188 23.9141 4.00391 19.4844 4.00391 13.9531C4.00391 8.42188 8.41016 3.99219 13.9414 3.99219C19.4727 3.99219 23.9141 8.42188 23.9141 13.9531C23.9141 19.4844 19.4844 23.9141 13.9531 23.9141Z" fill="black" fill-opacity="0.85"/>
<path d="M16.2627 19.7539C16.626 19.3906 16.6143 18.8281 16.2744 18.5L11.458 13.9531L16.2744 9.4297C16.626 9.10157 16.6143 8.51563 16.251 8.17579C15.9229 7.85939 15.3838 7.8711 15.0205 8.21095L10.1455 12.8164C9.47754 13.4258 9.47754 14.5039 10.1455 15.1133L15.0205 19.7188C15.3487 20.0234 15.958 20.0469 16.2627 19.7539Z" fill="black" fill-opacity="0.85"/>
</svg>
