<svg width="28" height="28" viewBox="0 0 28 28" fill="none" xmlns="http://www.w3.org/2000/svg">
<path d="M5.17578 5.9375C5.17578 6.45312 5.60938 6.88672 6.125 6.88672C14.2227 6.88672 20.8086 13.4727 20.8086 21.5703C20.8086 22.0859 21.2422 22.5195 21.7578 22.5195C22.2734 22.5195 22.6953 22.0859 22.6953 21.5703C22.6953 12.4414 15.2539 5 6.125 5C5.60938 5 5.17578 5.42188 5.17578 5.9375Z" fill="black" fill-opacity="0.85"/>
<path d="M5.17578 10.8945C5.17578 11.4102 5.60938 11.832 6.125 11.832C11.5039 11.832 15.8633 16.1914 15.8633 21.5703C15.8633 22.0859 16.2852 22.5195 16.8008 22.5195C17.3164 22.5195 17.75 22.0859 17.75 21.5703C17.75 15.1602 12.5352 9.94531 6.125 9.94531C5.60938 9.94531 5.17578 10.3789 5.17578 10.8945Z" fill="black" fill-opacity="0.85"/>
<path d="M5.17578 15.5469C5.17578 16.0625 5.60938 16.4844 6.125 16.4844C8.92578 16.4844 11.2109 18.7695 11.2109 21.5703C11.2109 22.0859 11.6328 22.5195 12.1484 22.5195C12.6641 22.5195 13.0977 22.0859 13.0977 21.5703C13.0977 17.7266 9.95703 14.5977 6.125 14.5977C5.60938 14.5977 5.17578 15.0312 5.17578 15.5469Z" fill="black" fill-opacity="0.85"/>
<path d="M6.67578 22.6953C7.58984 22.6953 8.32812 21.9453 8.32812 21.043C8.32812 20.1172 7.60156 19.3789 6.67578 19.3789C5.76172 19.3789 5 20.1523 5 21.0781C5 21.9453 5.78516 22.6953 6.67578 22.6953Z" fill="black" fill-opacity="0.85"/>
</svg>
