<svg width="28" height="28" viewBox="0 0 28 28" fill="none" xmlns="http://www.w3.org/2000/svg">
<g clip-path="url(#clip0_2124_24611)">
<path d="M23.7734 21.6914C25.6016 21.6914 26.832 20.4141 26.832 18.5039V9.82031C26.832 7.91016 25.6016 6.63281 23.7734 6.63281H5.04688C3.21875 6.63281 2 7.91016 2 9.82031V18.5039C2 20.4141 3.21875 21.6914 5.04688 21.6914H23.7734ZM22.8477 19.8047H5.97266V8.51953H22.8477V19.8047ZM25.6602 14.1445C25.6602 14.707 25.2148 15.1641 24.6406 15.1641C24.0898 15.1641 23.6328 14.707 23.6328 14.1445C23.6328 13.5938 24.0898 13.1367 24.6406 13.1367C25.2148 13.1367 25.6602 13.5938 25.6602 14.1445ZM4.67188 14.1445C4.67188 14.5313 4.35547 14.8359 3.98047 14.8359C3.59375 14.8359 3.28906 14.5313 3.28906 14.1445C3.28906 13.7578 3.59375 13.4648 3.98047 13.4648C4.35547 13.4648 4.67188 13.7578 4.67188 14.1445Z" fill="black" fill-opacity="0.85"/>
</g>
<defs>
<clipPath id="clip0_2124_24611">
<rect width="24.832" height="15.6914" fill="white" transform="translate(2 6)"/>
</clipPath>
</defs>
</svg>
