<svg width="28" height="28" viewBox="0 0 28 28" fill="none" xmlns="http://www.w3.org/2000/svg">
<path d="M13.9531 25.9062C20.4922 25.9062 25.9062 20.4922 25.9062 13.9531C25.9062 7.42578 20.4805 2 13.9414 2C7.41406 2 2 7.42578 2 13.9531C2 20.4922 7.42578 25.9062 13.9531 25.9062Z" fill="black" fill-opacity="0.85"/>
<path d="M12.7227 19.8125C9.93359 19.8125 8.09375 17.9141 8.09375 15.0781V13.5078C8.09375 12.9453 8.44531 12.5586 8.97266 12.5586C9.48828 12.5586 9.83984 12.9336 9.83984 13.4844V15.0781C9.83984 16.8477 11 18.0547 12.7227 18.0547C14.3281 18.0547 15.3945 16.8711 15.3945 15.0898V11.668L15.4531 10.4609L15.0547 11.0117L13.6836 12.4414C13.5195 12.6055 13.2969 12.7109 13.0391 12.7109C12.5352 12.7109 12.1484 12.3359 12.1484 11.8438C12.1484 11.5859 12.2305 11.3633 12.3945 11.2109L15.5352 8.12891C15.7578 7.91797 16.0156 7.8125 16.2852 7.8125C16.543 7.8125 16.8008 7.92969 17.0234 8.12891L20.1289 11.1992C20.3047 11.3633 20.3867 11.5742 20.3867 11.832C20.3867 12.3359 19.9883 12.7109 19.4961 12.7109C19.25 12.7109 19.0156 12.6055 18.8633 12.4414L17.7148 11.2461L17.0938 10.4492L17.1406 11.668V15.0898C17.1406 17.9258 15.3828 19.8125 12.7227 19.8125Z" fill="white"/>
</svg>
