<svg width="28" height="28" viewBox="0 0 28 28" fill="none" xmlns="http://www.w3.org/2000/svg">
<path d="M6.67969 24.5977H20.8945C23.3555 24.5977 24.5742 23.3789 24.5742 20.9648V6.65625C24.5742 4.24219 23.3555 3.02344 20.8945 3.02344H6.67969C4.23047 3.02344 3 4.23047 3 6.65625V20.9648C3 23.3906 4.23047 24.5977 6.67969 24.5977Z" fill="black" fill-opacity="0.85"/>
<path d="M13.793 19.5469C11.2383 19.5469 9.52734 17.2383 9.52734 13.793C9.52734 10.3477 11.2383 8.03906 13.793 8.03906C16.3594 8.03906 18.0703 10.3477 18.0703 13.793C18.0703 17.2383 16.3594 19.5469 13.793 19.5469ZM13.793 17.9883C15.2344 17.9883 16.207 16.3125 16.207 13.793C16.207 11.2734 15.2344 9.59766 13.793 9.59766C12.3633 9.59766 11.3789 11.2734 11.3789 13.793C11.3789 16.3125 12.3633 17.9883 13.793 17.9883Z" fill="white"/>
</svg>
