<svg width="28" height="28" viewBox="0 0 28 28" fill="none" xmlns="http://www.w3.org/2000/svg">
<path d="M22.3086 9.41797C22.3086 8.77344 21.8047 8.30469 21.2422 8.30469C20.668 8.30469 20.1875 8.80859 20.1875 9.37109V13.6953L20.3984 19.168L18.4648 16.9883L6.82812 5.35156C6.61719 5.14063 6.35938 5.03516 6.08984 5.03516C5.50391 5.03516 5 5.57422 5 6.13672C5 6.38281 5.11719 6.66406 5.32812 6.875L16.9414 18.5L19.1211 20.4219L13.4023 20.2344H9.32422C8.77344 20.2344 8.26953 20.7148 8.26953 21.2773C8.26953 21.8398 8.71484 22.332 9.37109 22.332H21.1602C21.8633 22.332 22.2969 21.875 22.2969 21.207L22.3086 9.41797Z" fill="black" fill-opacity="0.85"/>
</svg>
