<svg width="28" height="28" viewBox="0 0 28 28" fill="none" xmlns="http://www.w3.org/2000/svg">
<path d="M13.9531 25.9062C20.4922 25.9062 25.9062 20.4805 25.9062 13.9531C25.9062 7.41406 20.4805 2 13.9414 2C7.41406 2 2 7.41406 2 13.9531C2 20.4805 7.42578 25.9062 13.9531 25.9062Z" fill="black" fill-opacity="0.85"/>
<path d="M13.9531 20.4453C10.4375 20.4453 7.48438 17.4805 7.48438 13.9648C7.48438 10.4375 10.4258 7.48438 13.9531 7.48438C17.4688 7.48438 20.4336 10.4492 20.4336 13.9648C20.4336 17.4922 17.4805 20.4453 13.9531 20.4453ZM13.9531 18.5469C16.4609 18.5469 18.5234 16.4727 18.5234 13.9648C18.5234 11.4687 16.4492 9.38281 13.9531 9.38281C11.4453 9.38281 9.38281 11.457 9.38281 13.9648C9.38281 16.4609 11.4687 18.5469 13.9531 18.5469Z" fill="white"/>
</svg>
