<svg width="28" height="28" viewBox="0 0 28 28" fill="none" xmlns="http://www.w3.org/2000/svg">
<path d="M9.48047 24.7148C10.1367 24.7148 10.5938 24.2578 10.5938 23.5664V4.34766C10.5938 3.65625 10.1367 3.23438 9.48047 3.23438C8.80078 3.23438 8.35547 3.65625 8.35547 4.34766V23.5664C8.35547 24.2578 8.80078 24.7148 9.48047 24.7148ZM20.6719 24.7148C21.2344 24.7148 21.7031 24.2812 21.7031 23.7305C21.7031 23.4961 21.6094 23.2148 21.3984 22.957L14.0977 13.8984L21.3984 4.96875C21.5977 4.72266 21.6914 4.44141 21.6914 4.21875C21.6914 3.66797 21.2461 3.23438 20.6719 3.23438C20.332 3.23438 20.0391 3.38672 19.7227 3.78516L11.5781 13.8984L19.7344 24.1758C20.0508 24.5625 20.332 24.7148 20.6719 24.7148ZM6.75 14.6602H21.457C21.8906 14.6602 22.2188 14.3203 22.2188 13.8984C22.2188 13.4531 21.8906 13.1367 21.457 13.1367H6.75C6.31641 13.1367 6 13.4531 6 13.8984C6 14.3203 6.32812 14.6602 6.75 14.6602Z" fill="black" fill-opacity="0.85"/>
</svg>
