<svg width="30" height="28" viewBox="0 0 30 28" fill="none" xmlns="http://www.w3.org/2000/svg">
<path d="M12.3281 16.1328C15.6914 16.1328 18.3047 13.4727 18.3047 9.72266C18.3047 7.95312 17.8008 6.35938 16.875 5.11719L14.6367 7.36719C15.1992 8.05859 15.5273 8.94922 15.5273 9.91016C15.5273 11.9727 14.0859 13.4609 12.2109 13.4609C10.6992 13.4609 9.50391 12.4648 9.50391 11.3164C9.50391 10.9297 9.82031 10.6836 10.1602 10.6836C10.4297 10.6836 10.6758 10.8477 10.7695 11.2109C10.9219 11.7617 11.3906 12.1836 12.1406 12.1836C13.3477 12.1836 14.0977 11.3281 14.0977 10.0039C14.0977 8.41016 12.75 7.16797 11.0156 7.16797C8.88281 7.16797 7.10156 8.99609 7.10156 11.3164C7.10156 14.0117 9.30469 16.1328 12.3281 16.1328ZM10.9922 5.70312C11.8945 5.71484 12.8438 5.96094 13.6172 6.44141L15.9609 4.10938C14.707 2.9375 12.9844 2.1875 10.9922 2.05859V5.70312ZM7.54688 7.00391C8.15625 6.48828 8.85938 6.10156 9.63281 5.89062V2.02344C7.65234 2.11719 5.85938 2.75 4.35938 3.79297L7.54688 7.00391ZM0.164062 10.6133H5.70703C5.78906 9.6875 6.14062 8.76172 6.65625 8.01172L3.29297 4.63672C1.67578 6.125 0.550781 8.1875 0.164062 10.6133ZM0 12.5938C0 15.3359 0.75 17.75 2.10938 19.7305L6.87891 14.9492C6.22266 14.082 5.8125 13.0625 5.68359 11.9727H0.0117188C0 12.1953 0 12.3945 0 12.5938ZM2.94141 20.8203C4.92188 23.0586 7.79297 24.5586 11.2852 25.0156V17.5039C9.92578 17.3281 8.73047 16.7656 7.80469 15.9336L2.94141 20.8203ZM12.6562 25.1445C12.9609 25.168 13.2891 25.168 13.6055 25.168C16.9805 25.168 20.0039 24.207 22.5117 22.4961L16.4062 16.4258C15.3984 17.0938 14.1328 17.5273 12.6562 17.5859V25.1445ZM23.5898 21.7109C26.4492 19.4023 28.4648 16.0508 29.3086 12.3594C29.5312 11.4336 28.8047 10.8711 28.0664 10.8711H19.6758C19.5469 12.4414 18.8203 14.2344 17.4492 15.5703L23.5898 21.7109Z" fill="black" fill-opacity="0.85"/>
</svg>
