<svg width="28" height="28" viewBox="0 0 28 28" fill="none" xmlns="http://www.w3.org/2000/svg">
<path d="M13.9531 25.9062C20.4922 25.9062 25.9062 20.4805 25.9062 13.9531C25.9062 7.41406 20.4805 2 13.9414 2C7.41406 2 2 7.41406 2 13.9531C2 20.4805 7.42578 25.9062 13.9531 25.9062ZM13.9531 23.9141C8.42188 23.9141 4.00391 19.4844 4.00391 13.9531C4.00391 8.42188 8.41016 3.99219 13.9414 3.99219C19.4727 3.99219 23.9141 8.42188 23.9141 13.9531C23.9141 19.4844 19.4844 23.9141 13.9531 23.9141Z" fill="black" fill-opacity="0.85"/>
<path d="M7.67188 13.9531C7.67188 16.8359 9.69921 19.3203 12.3945 20.0352C12.5469 19.5898 12.6289 19.1445 12.6875 18.6875L12.4414 18.6758C12.2188 18.6641 12.0547 18.4766 12.0547 18.2656C12.0664 18.0547 12.2305 17.8555 12.4648 17.8555L12.6992 17.8672C12.6875 17.5977 12.6523 17.3398 12.6172 17.0586L12.3711 17.1172C12.1602 17.1758 11.9492 17.0352 11.9023 16.8359C11.8437 16.6133 11.9727 16.3789 12.1719 16.332L12.4062 16.2734C12.3125 15.9922 12.207 15.7344 12.0664 15.4766L11.9023 15.5703C11.7148 15.6758 11.4805 15.6172 11.3633 15.418C11.2578 15.2305 11.3164 14.9727 11.5156 14.8672L11.6797 14.7734C11.5039 14.5273 11.3281 14.293 11.1172 14.0703L10.9883 14.1992C10.8359 14.3516 10.5898 14.3398 10.4258 14.1875C10.2734 14.0469 10.2617 13.7773 10.4141 13.625L10.5312 13.5078C10.3437 13.3438 10.1328 13.1914 9.92188 13.0625L9.79297 13.2969C9.6875 13.4961 9.44141 13.5547 9.26562 13.4492C9.05469 13.3555 8.98438 13.1094 9.10156 12.8984L9.21875 12.6758C8.79688 12.4648 8.36328 12.3242 7.91797 12.2305C7.76562 12.7695 7.67188 13.3672 7.67188 13.9531ZM13.9531 20.2461C16.5312 20.2461 18.793 18.6172 19.7539 16.3555C19.25 16.25 18.7695 16.0859 18.3125 15.875L18.1836 16.1094C18.0781 16.3086 17.832 16.3906 17.6328 16.2852C17.4453 16.168 17.375 15.9219 17.4805 15.7227L17.6094 15.5C17.3164 15.3242 17.0352 15.1133 16.7656 14.9023L16.5781 15.0898C16.4258 15.2422 16.1797 15.2188 16.0156 15.0781C15.8633 14.9258 15.8398 14.6797 15.9922 14.5273L16.1797 14.3398C15.9336 14.0703 15.7109 13.7891 15.5117 13.4844L15.2539 13.6367C15.0547 13.7539 14.8203 13.6719 14.7148 13.4844C14.6211 13.2852 14.668 13.0391 14.8555 12.9453L15.1133 12.793C14.9492 12.4531 14.8086 12.1133 14.7031 11.7617L14.3867 11.8437C14.1641 11.9023 13.9648 11.7734 13.9062 11.5508C13.8477 11.3516 13.9531 11.1289 14.1875 11.0703L14.5156 10.9883C14.457 10.6719 14.4336 10.3437 14.4219 10.0156H14.1523C13.9297 10.0039 13.7773 9.81641 13.7773 9.59375C13.7773 9.38281 13.9531 9.19531 14.1875 9.19531L14.4336 9.20703C14.4805 8.70312 14.5859 8.21094 14.7383 7.71875C14.4805 7.68359 14.1992 7.66016 13.9414 7.66016C11.375 7.66016 9.12499 9.28906 8.17578 11.5273C8.65625 11.6328 9.12499 11.7969 9.58203 12.0078L9.69922 11.7969C9.81641 11.5859 10.0508 11.5391 10.25 11.6328C10.4375 11.7266 10.5195 11.9844 10.4023 12.1836L10.2852 12.3945C10.5664 12.5586 10.8242 12.7578 11.0703 12.957L11.3164 12.7227C11.4805 12.5703 11.6914 12.582 11.8789 12.7344C12.043 12.8867 12.043 13.1328 11.8906 13.2852L11.6562 13.5195C11.9141 13.7891 12.1484 14.0703 12.3477 14.3867L12.6289 14.2344C12.8281 14.1172 13.0508 14.1992 13.168 14.3984C13.2852 14.5742 13.2266 14.8438 13.0273 14.9492L12.7578 15.1016C12.9219 15.418 13.0508 15.7461 13.1562 16.0859L13.4141 16.0156C13.625 15.957 13.8359 16.0859 13.8945 16.2969C13.9414 16.5195 13.8125 16.7422 13.6133 16.8008L13.3555 16.8711C13.4141 17.1992 13.4375 17.5508 13.4492 17.8906H13.7305C13.9531 17.9023 14.1172 18.1016 14.1172 18.3125C14.1172 18.5352 13.9414 18.7109 13.7188 18.7109L13.4258 18.6992C13.3672 19.2031 13.2734 19.707 13.1094 20.1758C13.3906 20.2227 13.6719 20.2461 13.9531 20.2461ZM20.2461 13.9531C20.2461 11.0586 18.1836 8.5625 15.4766 7.84766C15.3242 8.30469 15.2305 8.76172 15.1836 9.21875L15.4531 9.23047C15.6641 9.24219 15.8398 9.42969 15.8281 9.64062C15.8281 9.875 15.6641 10.0508 15.4297 10.0508L15.1719 10.0391C15.1836 10.2852 15.207 10.5312 15.2539 10.7891L15.4062 10.7539C15.6289 10.6953 15.8398 10.8242 15.8984 11.0469C15.957 11.2578 15.8281 11.4687 15.6172 11.5273L15.4531 11.5742C15.5469 11.8555 15.6523 12.125 15.8047 12.3945L15.957 12.3125C16.1562 12.1953 16.4023 12.2773 16.5078 12.4648C16.6133 12.6875 16.5547 12.8984 16.3555 13.0039L16.1914 13.0977C16.3555 13.3438 16.5312 13.5664 16.7188 13.7891L16.8945 13.6133C17.0703 13.4375 17.293 13.4609 17.4688 13.6133C17.6094 13.7539 17.6445 14.0117 17.4688 14.1875L17.3047 14.3516C17.5156 14.5391 17.7383 14.7031 17.9727 14.8438L18.0898 14.6328C18.1953 14.4453 18.4531 14.3516 18.6172 14.4688C18.8281 14.5742 18.8984 14.8086 18.7812 15.0078L18.6641 15.2305C19.0977 15.4297 19.543 15.5703 20 15.6523C20.1641 15.1133 20.2461 14.5391 20.2461 13.9531Z" fill="black" fill-opacity="0.85"/>
</svg>
