<svg width="32" height="28" viewBox="0 0 32 28" fill="none" xmlns="http://www.w3.org/2000/svg">
<path d="M0.960938 11.0898H26.6016V8.4297H0.960938V11.0898ZM3.67969 23.7812H23.8594C26.3203 23.7812 27.5391 22.5742 27.5391 20.1602V7.39844C27.5391 4.98438 26.3203 3.76562 23.8594 3.76562H3.67969C1.24219 3.76562 0 4.98438 0 7.39844V20.1602C0 22.5742 1.24219 23.7812 3.67969 23.7812ZM3.71484 21.8945C2.54297 21.8945 1.88672 21.2734 1.88672 20.0547V7.50392C1.88672 6.28517 2.54297 5.65234 3.71484 5.65234H23.8359C24.9961 5.65234 25.6523 6.28517 25.6523 7.50392V20.0547C25.6523 21.2734 24.9961 21.8945 23.8359 21.8945H3.71484Z" fill="black" fill-opacity="0.85"/>
<path d="M15.5508 26.5352C16.0781 26.5352 16.5586 26.3477 16.9219 26.0547C17.2383 26.2891 17.6483 26.4297 18.1054 26.4297H22.5117C23.0858 26.4297 23.6016 26.207 24 25.8672C24.7031 26.3008 25.5938 26.5352 26.625 26.5352C29.3671 26.5352 31.3008 24.707 31.3008 22.4219C31.3008 21.6719 31.0898 20.9688 30.5977 20.3828C30.832 19.9141 30.9727 19.375 30.9727 18.7891C30.9727 16.668 29.1797 14.9336 26.6133 14.9336C25.2656 14.9336 24.1288 15.4141 23.3554 16.1875C22.5938 15.4141 21.4688 14.9336 20.1679 14.9336C19.0546 14.9336 18.0469 15.2852 17.2969 15.8594C16.9102 15.332 16.2539 14.9805 15.4922 14.9805C14.9297 14.9805 14.4258 15.1445 13.875 15.5078L12.1172 16.6445C11.3906 17.1133 10.9688 17.8398 10.9688 18.6602C10.9688 19.8203 11.8477 20.8984 12.9492 20.8984C13.0195 20.8984 13.0781 20.875 13.207 20.8164V24.168C13.207 25.5039 14.2383 26.5352 15.5508 26.5352Z" fill="white"/>
<path d="M26.625 24.9414C28.3945 24.9414 29.6953 23.875 29.6953 22.4219C29.6953 21.3086 28.9219 20.4531 27.8555 20.3477V20.7578C28.8047 20.4766 29.3672 19.7383 29.3672 18.7891C29.3672 17.4766 28.207 16.5273 26.6133 16.5273C25.4062 16.5273 24.4102 17.0781 24 17.957C23.8945 18.1797 23.8359 18.4258 23.8359 18.6602C23.8359 19.0703 24.1172 19.3516 24.5273 19.3516C24.8906 19.3516 25.1016 19.1875 25.207 18.8359C25.4062 18.25 25.875 17.9219 26.5781 17.9219C27.375 17.9219 27.8555 18.3086 27.8555 18.918C27.8555 19.5508 27.3398 19.9492 26.5312 19.9492H25.9453C25.5469 19.9492 25.2656 20.2422 25.2656 20.6289C25.2656 21.0156 25.5469 21.2969 25.9453 21.2969H26.543C27.5742 21.2969 28.1367 21.6953 28.1367 22.4219C28.1367 23.0898 27.5391 23.5352 26.6367 23.5352C25.8281 23.5352 25.2656 23.1953 25.0781 22.6211C24.9727 22.2695 24.7383 22.1055 24.3867 22.1055C23.9648 22.1055 23.6602 22.3984 23.6602 22.8203C23.6602 23.043 23.7188 23.2891 23.8359 23.5C24.3281 24.4141 25.3242 24.9414 26.625 24.9414Z" fill="black" fill-opacity="0.85"/>
<path d="M18.1055 24.8242H22.5117C22.9219 24.8242 23.2266 24.5312 23.2266 24.1328C23.2266 23.7109 22.9219 23.4062 22.5117 23.4062H19.7227V23.3477L21.2578 21.8242C22.5586 20.5469 22.9688 19.8438 22.9688 18.9531C22.9688 17.5703 21.7734 16.5273 20.168 16.5273C18.9141 16.5273 17.8477 17.2422 17.4961 18.2734C17.4375 18.4492 17.3906 18.625 17.3906 18.8242C17.3906 19.2461 17.6836 19.5273 18.082 19.5273C18.4453 19.5273 18.668 19.3516 18.7734 18.9531C18.7969 18.8594 18.8203 18.7773 18.8555 18.6953C19.0898 18.2031 19.5703 17.9219 20.168 17.9219C20.8711 17.9219 21.4453 18.4258 21.4453 19.0117C21.4453 19.5391 21.2109 19.9023 20.2148 20.8867L17.7305 23.3594C17.4609 23.6172 17.3555 23.8398 17.3555 24.1094C17.3555 24.5312 17.6602 24.8242 18.1055 24.8242Z" fill="black" fill-opacity="0.85"/>
<path d="M15.5508 24.9297C16.0195 24.9297 16.3242 24.625 16.3242 24.168V17.3828C16.3242 16.9023 15.9961 16.5742 15.4922 16.5742C15.2344 16.5742 15.0469 16.6445 14.7539 16.8438L12.9844 17.9922C12.7031 18.168 12.5742 18.3906 12.5742 18.6602C12.5742 19.0352 12.8672 19.3047 13.2539 19.3047C13.4062 19.3047 13.5469 19.2578 13.6992 19.1523L14.7422 18.4961H14.8125V24.168C14.8125 24.625 15.1172 24.9297 15.5508 24.9297Z" fill="black" fill-opacity="0.85"/>
</svg>
