<svg width="28" height="28" viewBox="0 0 28 28" fill="none" xmlns="http://www.w3.org/2000/svg">
<path d="M6.67969 24.5977H20.8945C23.3555 24.5977 24.5742 23.3789 24.5742 20.9648V6.65625C24.5742 4.24219 23.3555 3.02344 20.8945 3.02344H6.67969C4.23047 3.02344 3 4.23047 3 6.65625V20.9648C3 23.3906 4.23047 24.5977 6.67969 24.5977ZM6.70312 22.7109C5.53125 22.7109 4.88672 22.0898 4.88672 20.8711V6.75C4.88672 5.53125 5.53125 4.91016 6.70312 4.91016H20.8711C22.0312 4.91016 22.6875 5.53125 22.6875 6.75V20.8711C22.6875 22.0898 22.0312 22.7109 20.8711 22.7109H6.70312Z" fill="black" fill-opacity="0.85"/>
<path d="M13.8047 19.2891C15.8906 19.2891 17.5312 18.3047 18.0938 16.7227C18.1758 16.5117 18.1992 16.3594 18.1992 16.1836C18.1992 15.6914 17.8828 15.3867 17.4023 15.3867C17.0391 15.3867 16.8047 15.5625 16.6172 15.9609C16.1367 17.1094 15.1523 17.7422 13.8281 17.7422C11.9648 17.7422 10.7109 16.1133 10.7109 13.6875C10.7109 11.2617 11.9648 9.62109 13.8281 9.62109C15.1523 9.62109 16.1367 10.2539 16.6172 11.4141C16.8047 11.8125 17.0391 11.9766 17.4023 11.9766C17.8828 11.9766 18.1992 11.6719 18.1992 11.1797C18.1992 10.9922 18.1758 10.8516 18.0938 10.6406C17.5312 9.07031 15.8789 8.07422 13.8047 8.07422C10.7695 8.07422 8.82422 10.2656 8.82422 13.6875C8.82422 17.1094 10.7578 19.2891 13.8047 19.2891Z" fill="black" fill-opacity="0.85"/>
</svg>
