<svg width="28" height="28" viewBox="0 0 28 28" fill="none" xmlns="http://www.w3.org/2000/svg">
<path d="M13.9531 25.9062C20.4922 25.9062 25.9062 20.4805 25.9062 13.9531C25.9062 7.41406 20.4805 2 13.9414 2C7.41406 2 2 7.41406 2 13.9531C2 20.4805 7.42578 25.9062 13.9531 25.9062Z" fill="black" fill-opacity="0.85"/>
<path d="M8.90234 18.957C7.69531 18.957 7.07422 18.3594 7.07422 17.1406V12.6523H20.832V17.1406C20.832 18.3594 20.2109 18.957 19.0039 18.957H8.90234ZM9.46484 17.1406H10.9062C11.2461 17.1406 11.4805 16.918 11.4805 16.5898V15.5C11.4805 15.1719 11.2461 14.9492 10.9062 14.9492H9.46484C9.13672 14.9492 8.90234 15.1719 8.90234 15.5V16.5898C8.90234 16.918 9.13672 17.1406 9.46484 17.1406ZM7.07422 11.3164V10.7773C7.07422 9.55859 7.69531 8.97266 8.90234 8.97266H19.0039C20.2109 8.97266 20.832 9.57031 20.832 10.7773V11.3164H7.07422Z" fill="white"/>
</svg>
