<svg width="28" height="28" viewBox="0 0 28 28" fill="none" xmlns="http://www.w3.org/2000/svg">
<path d="M6.88681 21.6914H21.6642C22.1446 21.6914 22.4142 21.2461 22.1681 20.8125L14.7853 7.91016C14.5392 7.47656 14.0118 7.47656 13.7657 7.91016L6.3829 20.8125C6.12509 21.2578 6.40634 21.6914 6.88681 21.6914ZM9.23056 19.9219C9.08993 19.9219 9.0079 19.793 9.07821 19.6641L14.129 10.8398C14.1993 10.7109 14.3634 10.7109 14.4337 10.8398L19.4728 19.6641C19.5431 19.793 19.461 19.9219 19.3204 19.9219H9.23056Z" fill="black" fill-opacity="0.85"/>
<path d="M5.19922 25.2656H23.3633C25.3555 25.2656 26.5625 23.8828 26.5625 22.0898C26.5625 21.5391 26.3984 20.9648 26.1055 20.4492L17.0117 4.60547C16.4023 3.53906 15.3594 3 14.2812 3C13.2031 3 12.1484 3.53906 11.5508 4.60547L2.45703 20.4492C2.14062 20.9766 2 21.5391 2 22.0898C2 23.8828 3.20703 25.2656 5.19922 25.2656ZM5.21094 23.4258C4.39062 23.4258 3.89844 22.793 3.89844 22.0781C3.89844 21.8555 3.94531 21.5742 4.07422 21.3281L13.1562 5.49609C13.4023 5.0625 13.8477 4.875 14.2812 4.875C14.7148 4.875 15.1484 5.0625 15.3945 5.49609L24.4766 21.3398C24.6055 21.5859 24.6641 21.8555 24.6641 22.0781C24.6641 22.793 24.1484 23.4258 23.3398 23.4258H5.21094Z" fill="black" fill-opacity="0.85"/>
</svg>
