<svg width="28" height="28" viewBox="0 0 28 28" fill="none" xmlns="http://www.w3.org/2000/svg">
<path d="M6.67969 24.5977H20.8945C23.3555 24.5977 24.5742 23.3789 24.5742 20.9648V6.65625C24.5742 4.24219 23.3555 3.02344 20.8945 3.02344H6.67969C4.23047 3.02344 3 4.23047 3 6.65625V20.9648C3 23.3906 4.23047 24.5977 6.67969 24.5977ZM6.70312 22.7109C5.53125 22.7109 4.88672 22.0898 4.88672 20.8711V6.75C4.88672 5.53125 5.53125 4.91016 6.70312 4.91016H20.8711C22.0312 4.91016 22.6875 5.53125 22.6875 6.75V20.8711C22.6875 22.0898 22.0312 22.7109 20.8711 22.7109H6.70312Z" fill="black" fill-opacity="0.85"/>
<path d="M11.168 18.6562C11.625 18.6562 12.0117 18.2695 12.0117 17.8008V9.85547C12.0117 9.25781 11.6367 8.90625 11.0391 8.90625C10.5469 8.90625 10.1484 9.17578 9.86719 9.38672L8.57812 10.3828C8.37891 10.5469 8.21484 10.7695 8.21484 11.0742C8.21484 11.4375 8.46094 11.6953 8.8125 11.6953C9 11.6953 9.10547 11.6367 9.23438 11.5547L10.3008 10.6875V17.8008C10.3008 18.2695 10.6875 18.6562 11.168 18.6562ZM15.4102 18.6914C15.8438 18.6914 16.0312 18.5156 16.1953 18.0938L18.8672 10.9453C18.9961 10.582 19.0898 10.3008 19.0898 9.96094C19.0898 9.42188 18.668 9.05859 18.1523 9.05859H14.3672C13.9688 9.05859 13.6875 9.35156 13.6875 9.75C13.6875 10.1484 13.9688 10.4414 14.3672 10.4414H17.3789V10.5469L14.7773 17.2734C14.6719 17.5312 14.6367 17.6836 14.6367 17.9648C14.6367 18.3047 14.8477 18.6914 15.4102 18.6914Z" fill="black" fill-opacity="0.85"/>
</svg>
