<svg width="28" height="28" viewBox="0 0 28 28" fill="none" xmlns="http://www.w3.org/2000/svg">
<path d="M13.9531 25.9062C20.4922 25.9062 25.9062 20.4805 25.9062 13.9531C25.9062 7.41406 20.4805 2 13.9414 2C7.41406 2 2 7.41406 2 13.9531C2 20.4805 7.42578 25.9062 13.9531 25.9062ZM13.9531 23.9141C8.42188 23.9141 4.00391 19.4844 4.00391 13.9531C4.00391 8.42188 8.41016 3.99219 13.9414 3.99219C19.4727 3.99219 23.9141 8.42188 23.9141 13.9531C23.9141 19.4844 19.4844 23.9141 13.9531 23.9141Z" fill="black" fill-opacity="0.85"/>
<path d="M11.2812 18.8398C11.7148 18.8398 12.0781 18.5703 12.0781 18.0078V16.8359H12.4883C12.9453 16.8359 13.1562 16.543 13.1562 16.1445C13.1562 15.7695 12.9688 15.4766 12.4883 15.4766H12.0781V10.332C12.0781 9.52344 11.5508 9.06641 10.7773 9.06641C9.95703 9.06641 9.57031 9.48828 9.24219 10.2148L7.14453 14.7617C6.94531 15.2188 6.88672 15.5234 6.88672 15.8867C6.88672 16.4492 7.27344 16.8359 7.84766 16.8359H10.4609V18.0078C10.4609 18.6289 10.9062 18.8398 11.2812 18.8398ZM10.4961 15.5117H8.32812V15.4297L10.4609 10.543H10.4961V15.5117ZM18.6758 18.8398C19.1094 18.8398 19.4727 18.5703 19.4727 18.0078V16.8359H19.8945C20.3398 16.8359 20.5508 16.543 20.5508 16.1445C20.5508 15.7695 20.3633 15.4766 19.8945 15.4766H19.4727V10.332C19.4727 9.52344 18.9453 9.06641 18.1719 9.06641C17.3516 9.06641 16.9648 9.48828 16.6367 10.2148L14.5391 14.7617C14.3398 15.2188 14.2812 15.5234 14.2812 15.8867C14.2812 16.4492 14.668 16.8359 15.2422 16.8359H17.8672V18.0078C17.8672 18.6289 18.3008 18.8398 18.6758 18.8398ZM17.9023 15.5117H15.7227V15.4297L17.8555 10.543H17.9023V15.5117Z" fill="black" fill-opacity="0.85"/>
</svg>
