<svg width="28" height="28" viewBox="0 0 28 28" fill="none" xmlns="http://www.w3.org/2000/svg">
<path d="M13.9531 25.9062C20.4922 25.9062 25.9062 20.4805 25.9062 13.9531C25.9062 7.41406 20.4805 2 13.9414 2C7.41406 2 2 7.41406 2 13.9531C2 20.4805 7.42578 25.9062 13.9531 25.9062ZM13.9531 23.9141C8.42188 23.9141 4.00391 19.4844 4.00391 13.9531C4.00391 8.42188 8.41016 3.99219 13.9414 3.99219C19.4727 3.99219 23.9141 8.42188 23.9141 13.9531C23.9141 19.4844 19.4844 23.9141 13.9531 23.9141Z" fill="black" fill-opacity="0.85"/>
<path d="M7.92969 18.6875H11.9961C12.418 18.6875 12.6641 18.418 12.6641 18.0078C12.6641 17.5625 12.4062 17.3164 11.9961 17.3164H9.21875V17.2227L10.9297 15.0547C12.1016 13.6016 12.4883 12.7344 12.4883 11.7031C12.4883 10.1211 11.4102 8.97266 9.79297 8.97266C8.29297 8.97266 7.15625 10.2148 7.15625 11.4336C7.15625 11.8672 7.41406 12.1719 7.85938 12.1719C8.24609 12.1719 8.48047 11.9961 8.59766 11.6094C8.82031 10.8242 9.11328 10.332 9.78125 10.332C10.4961 10.332 10.8828 10.9531 10.8828 11.7852C10.8828 12.7227 10.2383 13.6719 9.61719 14.4688L7.57812 17.0703C7.35547 17.3516 7.14453 17.6445 7.14453 18.0078C7.14453 18.4062 7.40234 18.6875 7.92969 18.6875ZM14.9844 18.8398C15.4414 18.8398 15.8398 18.4531 15.8398 17.9727V14.5859H18.7344V17.9727C18.7344 18.4531 19.1211 18.8398 19.5898 18.8398C20.0469 18.8398 20.4336 18.4531 20.4336 17.9727V9.91016C20.4336 9.44141 20.0469 9.05469 19.5898 9.05469C19.1211 9.05469 18.7344 9.44141 18.7344 9.91016V13.1562H15.8398V9.91016C15.8398 9.44141 15.4414 9.05469 14.9844 9.05469C14.5156 9.05469 14.1289 9.44141 14.1289 9.91016V17.9727C14.1289 18.4531 14.5156 18.8398 14.9844 18.8398Z" fill="black" fill-opacity="0.85"/>
</svg>
