<svg width="29" height="28" viewBox="0 0 29 28" fill="none" xmlns="http://www.w3.org/2000/svg">
<g clip-path="url(#clip0_2124_89352)">
<path d="M15.1641 25.4727C20.0977 25.4727 23.3906 23.7266 23.3906 21.1484C23.3906 18.8398 21.4219 18.3242 21.4219 16.9648C21.4219 15.0898 28.2305 14.7148 28.2305 9.89844C28.2305 5.14062 23.3203 2 16.0312 2C6.45703 2 0 6.78125 0 13.9414C0 20.832 6.12891 25.4727 15.1641 25.4727ZM14.9062 20.9961C13.1953 20.9961 11.7891 19.6016 11.7891 17.8789C11.7891 16.168 13.1953 14.7617 14.9062 14.7617C16.6289 14.7617 18.0352 16.168 18.0352 17.8789C18.0352 19.6016 16.6289 20.9961 14.9062 20.9961Z" fill="black" fill-opacity="0.85"/>
<path d="M5.54297 15.3711C4.47656 15.3711 3.58594 14.4805 3.58594 13.4023C3.58594 12.3711 4.51172 11.4688 5.54297 11.4688C6.62109 11.4688 7.48828 12.3242 7.48828 13.4023C7.48828 14.4805 6.62109 15.3711 5.54297 15.3711Z" fill="white"/>
<path d="M10.043 11.2227C8.66016 11.2227 7.55859 10.1445 7.55859 8.76172C7.55859 7.41406 8.66016 6.33594 10.043 6.33594C11.3789 6.33594 12.4922 7.41406 12.4922 8.76172C12.4922 10.1445 11.3906 11.2227 10.043 11.2227Z" fill="white"/>
<path d="M16.2891 9.37109C15.2109 9.37109 14.2969 8.49219 14.2969 7.40234C14.2969 6.3125 15.2109 5.43359 16.2891 5.43359C17.3906 5.43359 18.2578 6.3125 18.2578 7.40234C18.2578 8.49219 17.3906 9.37109 16.2891 9.37109Z" fill="white"/>
<path d="M21.8086 10.4023C20.918 10.4023 20.1914 9.69922 20.1914 8.80859C20.1914 7.92969 20.918 7.20312 21.8086 7.20312C22.6875 7.20312 23.3906 7.92969 23.3906 8.80859C23.3906 9.69922 22.6875 10.4023 21.8086 10.4023Z" fill="white"/>
</g>
<defs>
<clipPath id="clip0_2124_89352">
<rect width="28.2305" height="23.707" fill="white" transform="translate(0 2)"/>
</clipPath>
</defs>
</svg>
