<svg width="28" height="28" viewBox="0 0 28 28" fill="none" xmlns="http://www.w3.org/2000/svg">
<path d="M6.67969 24.5977H20.8945C23.3555 24.5977 24.5742 23.3789 24.5742 20.9648V6.65625C24.5742 4.24219 23.3555 3.02344 20.8945 3.02344H6.67969C4.23047 3.02344 3 4.23047 3 6.65625V20.9648C3 23.3906 4.23047 24.5977 6.67969 24.5977Z" fill="black" fill-opacity="0.85"/>
<path d="M13.5 19.5469C11.4609 19.5469 10.3242 18.5391 10.0312 17.6953C9.98438 17.5547 9.96094 17.4141 9.96094 17.2852C9.96094 16.8164 10.2891 16.5 10.7578 16.5C11.1445 16.5 11.3789 16.6992 11.5898 16.9805C12.0937 17.6602 12.6445 18 13.4766 18C15.1406 18 16.2773 16.418 16.2539 13.7695H16.1602C15.7734 14.6602 14.8125 15.457 13.207 15.457C11.3203 15.457 9.59766 14.168 9.59766 11.8945C9.59766 9.55078 11.2148 8.03906 13.7109 8.03906C16.4297 8.03906 18.0117 9.92578 18.0117 13.4062C18.0117 17.4609 16.418 19.5469 13.5 19.5469ZM13.7812 14.0859C15.1289 14.0859 16.1016 13.1367 16.1016 11.8359C16.1016 10.4766 15.1055 9.48047 13.793 9.48047C12.3984 9.48047 11.4727 10.4063 11.4727 11.8125C11.4727 13.1367 12.4219 14.0859 13.7812 14.0859Z" fill="white"/>
</svg>
