<svg width="29" height="29" viewBox="0 0 29 29" fill="none" xmlns="http://www.w3.org/2000/svg">
<g clip-path="url(#clip0_2124_45853)">
<path d="M13.9687 25.9133C20.5078 25.9133 25.9218 20.4876 25.9218 13.9602C25.9218 7.42114 20.4961 2.00708 13.957 2.00708C7.42968 2.00708 2.01562 7.42114 2.01562 13.9602C2.01562 20.4876 7.44141 25.9133 13.9687 25.9133Z" fill="black" fill-opacity="0.85"/>
<path d="M7.02019 13.5618C6.94987 13.1165 7.13737 12.7883 7.60612 12.5657L8.44987 12.1555C10.4421 11.2181 11.9889 10.5384 13.0905 10.1048L14.1218 9.68291L14.8601 7.15166C15.153 6.12041 16.5827 6.51885 16.278 7.56182L15.4694 10.3274C15.364 10.7024 15.0007 10.8196 14.6843 10.972L13.4772 11.5228C13.3718 11.5814 13.3366 11.6399 13.3835 11.7454L14.7897 14.6282C14.8601 14.7571 15.0007 14.7923 15.153 14.7102L16.7819 13.7259C17.1686 13.4915 17.5554 13.4798 17.9772 13.6673L21.4108 15.2376C22.5593 15.7766 21.7507 17.218 20.8132 16.7727L17.614 15.2493L15.2468 16.6321C15.0944 16.7141 15.0944 16.8899 15.2233 16.9837L18.7507 19.6907C19.6882 20.4055 18.7038 21.636 17.8366 21.0032L13.196 17.6165C12.8561 17.3587 12.4811 17.0774 12.0358 16.2102L10.5592 13.2805C10.5124 13.1633 10.4303 13.1282 10.2897 13.1751L8.60222 13.843L8.9655 16.1633C9.11784 17.218 7.67644 17.4641 7.51237 16.3977L7.02019 13.5618ZM10.1608 10.5032C9.24675 10.5032 8.49675 9.75322 8.49675 8.82744C8.49675 7.86651 9.23503 7.10479 10.1608 7.10479C11.11 7.10479 11.8717 7.86651 11.8717 8.82744C11.8717 9.74151 11.0983 10.5032 10.1608 10.5032Z" fill="white"/>
</g>
<defs>
<clipPath id="clip0_2124_45853">
<rect width="23.9062" height="23.918" fill="white" transform="translate(2.01562 2.00708)"/>
</clipPath>
</defs>
</svg>
