<svg width="28" height="28" viewBox="0 0 28 28" fill="none" xmlns="http://www.w3.org/2000/svg">
<path d="M2 12.8633C2 15.1836 3.21875 16.9648 4.80078 16.9648C6.38281 16.9648 7.61328 15.1836 7.61328 12.8633C7.61328 10.5547 6.38281 8.76172 4.80078 8.76172C3.21875 8.76172 2 10.5547 2 12.8633ZM7.68359 6.10156C7.68359 8.41016 8.92578 10.1914 10.4961 10.1914C12.0898 10.1914 13.3203 8.39844 13.3203 6.10156C13.3203 3.78125 12.0898 2 10.4961 2C8.92578 2 7.68359 3.78125 7.68359 6.10156ZM15.3477 6.10156C15.3477 8.39844 16.5664 10.1914 18.1602 10.1914C19.7305 10.1914 20.9727 8.41016 20.9727 6.10156C20.9727 3.78125 19.7305 2 18.1602 2C16.5664 2 15.3477 3.78125 15.3477 6.10156ZM21.043 12.8633C21.043 15.1836 22.2734 16.9648 23.8555 16.9648C25.4375 16.9648 26.6562 15.1836 26.6562 12.8633C26.6562 10.5547 25.4375 8.76172 23.8555 8.76172C22.2734 8.76172 21.043 10.5547 21.043 12.8633ZM5.51562 21.9336C5.51562 24.3008 7.10938 25.9883 9.45312 25.9883C10.6133 25.9883 11.457 25.6602 12.2656 25.3789C12.9219 25.1445 13.5547 24.9336 14.3281 24.9336C15.0898 24.9336 15.7227 25.1445 16.3906 25.3789C17.1992 25.6602 18.0312 25.9883 19.1914 25.9883C21.5469 25.9883 23.1406 24.3008 23.1406 21.9336C23.1406 19.918 21.9336 18.8984 20.7734 17.9492C20.1289 17.4336 19.5078 16.9414 19.0859 16.2852C18.7344 15.7578 18.4414 15.1836 18.1953 14.6445C17.3516 12.8398 16.6836 11.1406 14.3281 11.1406C11.9609 11.1406 11.3047 12.8398 10.4609 14.6328C10.2031 15.1836 9.92188 15.7461 9.58203 16.2617C9.14844 16.918 8.51562 17.4336 7.88281 17.9492C6.72266 18.8984 5.51562 19.9297 5.51562 21.9336Z" fill="black" fill-opacity="0.85"/>
</svg>
