<svg width="33" height="29" viewBox="0 0 33 29" fill="none" xmlns="http://www.w3.org/2000/svg">
<g clip-path="url(#clip0_2124_24803)">
<path d="M10.5 20.8945C14.3438 20.8945 16.0078 20.3672 17.5547 18.9375C19.7344 16.9453 21.0117 14.0742 21.0117 11.0273C21.0117 8.70704 20.2734 6.50392 19.0195 4.83985C18.5156 4.14845 17.543 4.01954 16.6992 4.51173C15.2578 5.3086 13.6289 5.8711 10.5 5.8711C7.06641 5.8711 5.40234 5.20313 4.08984 4.2422C3.49219 3.85548 2.77734 3.94923 2.35547 4.48829C0.867188 6.18751 0 8.51954 0 11.0273C0 14.0742 1.27734 16.9453 3.44531 18.9375C5.00391 20.3672 6.66797 20.8945 10.5 20.8945ZM10.5 19.1953C7.35938 19.1953 5.94141 18.9141 4.62891 17.6719C2.78906 15.9727 1.72266 13.5703 1.72266 11.0273C1.72266 9.21095 2.26172 7.44142 3.43359 5.97657C5.16797 7.14845 7.71094 7.6172 10.5 7.6172C13.0898 7.6172 15.5977 7.21876 17.4492 6.16407H17.7891C18.8086 7.65235 19.2891 9.31642 19.2891 11.0273C19.2891 13.5703 18.2227 15.9727 16.3828 17.6719C15.0703 18.9141 13.6523 19.1953 10.5 19.1953Z" fill="black" fill-opacity="0.85"/>
<path d="M10.5 4.40625C13.4531 4.40625 15.5273 3.80859 15.5273 3.03516C15.5273 2.26172 13.4531 1.67578 10.5 1.67578C7.57031 1.67578 5.49609 2.26172 5.49609 3.03516C5.49609 3.80859 7.57031 4.40625 10.5 4.40625Z" fill="black" fill-opacity="0.85"/>
<path d="M19.0898 28.7461C23.6602 28.7461 25.875 28.1133 27.9258 26.1914C30.6445 23.707 32.2266 20.1328 32.2266 16.3477C32.2266 13.207 31.0898 10.2422 29.2383 8.09766C27.0234 5.30859 24.3164 3.84375 19.0898 3.84375C13.8281 3.84375 11.1094 5.33203 8.88281 8.13281C7.06641 10.2773 5.95312 13.2305 5.95312 16.3477C5.95312 20.1328 7.53516 23.707 10.2539 26.1914C12.3047 28.1133 14.5195 28.7461 19.0898 28.7461Z" fill="white"/>
<path d="M19.0898 27.1406C23.3438 27.1406 25.1484 26.6016 26.8477 25.0195C29.2266 22.8398 30.6328 19.6875 30.6328 16.3477C30.6328 13.6406 29.7188 11.0508 28.0312 9.16406C27.5859 8.57812 26.8008 8.48438 26.1445 8.88281C24.7031 9.9375 22.7695 10.6641 19.0898 10.6641C15.4102 10.6641 13.4766 9.9375 12.0352 8.88281C11.3789 8.48438 10.6055 8.57812 10.1484 9.16406C8.46094 11.0508 7.55859 13.6406 7.55859 16.3477C7.55859 19.6875 8.95312 22.8398 11.3438 25.0195C13.043 26.6016 14.8359 27.1406 19.0898 27.1406ZM19.0898 25.2539C15.375 25.2539 13.9453 24.8789 12.6211 23.6367C10.5938 21.7734 9.44531 19.1484 9.44531 16.3477C9.44531 14.1094 10.1719 11.9766 11.6836 10.2539L10.8398 10.4766C12.7266 11.9414 15.7031 12.5508 19.0898 12.5508C22.4766 12.5508 25.4531 11.9414 27.3516 10.4766L26.4961 10.2539C28.0078 11.9766 28.7461 14.1094 28.7461 16.3477C28.7461 19.1484 27.5859 21.7734 25.5586 23.6367C24.2344 24.8789 22.8164 25.2539 19.0898 25.2539Z" fill="black" fill-opacity="0.85"/>
<path d="M19.0898 9.05859C22.3477 9.05859 24.6328 8.40234 24.6328 7.55859C24.6328 6.71484 22.3477 6.07031 19.0898 6.07031C15.832 6.07031 13.5469 6.71484 13.5469 7.55859C13.5469 8.40234 15.832 9.05859 19.0898 9.05859Z" fill="black" fill-opacity="0.85"/>
</g>
<defs>
<clipPath id="clip0_2124_24803">
<rect width="32.2266" height="28.7461" fill="white"/>
</clipPath>
</defs>
</svg>
