<svg width="28" height="28" viewBox="0 0 28 28" fill="none" xmlns="http://www.w3.org/2000/svg">
<path d="M6.67969 24.5977H20.8945C23.3555 24.5977 24.5742 23.3789 24.5742 20.9648V6.65625C24.5742 4.24219 23.3555 3.02344 20.8945 3.02344H6.67969C4.23047 3.02344 3 4.23047 3 6.65625V20.9648C3 23.3906 4.23047 24.5977 6.67969 24.5977ZM6.70312 22.7109C5.53125 22.7109 4.88672 22.0898 4.88672 20.8711V6.75C4.88672 5.53125 5.53125 4.91016 6.70312 4.91016H20.8711C22.0312 4.91016 22.6875 5.53125 22.6875 6.75V20.8711C22.6875 22.0898 22.0312 22.7109 20.8711 22.7109H6.70312Z" fill="black" fill-opacity="0.85"/>
<path d="M9.32812 15.9609C9.32812 16.5469 9.72656 16.9336 10.3594 16.9336H14.7656V18.3867C14.7656 19.0078 15.082 19.3711 15.6211 19.3711C16.1719 19.3711 16.4883 19.0195 16.4883 18.3867V16.9336H17.2734C17.8008 16.9336 18.1172 16.6172 18.1172 16.125C18.1172 15.6797 17.8008 15.3867 17.2734 15.3867H16.4883V12.8555C16.4883 12.2227 16.1719 11.8711 15.6211 11.8711C15.082 11.8711 14.7656 12.2344 14.7656 12.8555V15.3867H11.5078C12.5625 13.418 13.5938 11.6367 14.6836 9.63281C14.7773 9.44531 14.8477 9.26953 14.8477 9.08203C14.8477 8.625 14.5547 8.22656 14.0156 8.22656C13.6523 8.22656 13.3945 8.40234 13.1836 8.78906C11.9414 10.9805 10.7813 13.0195 9.52734 15.2227C9.38672 15.457 9.32812 15.7148 9.32812 15.9609Z" fill="black" fill-opacity="0.85"/>
</svg>
