<svg width="28" height="28" viewBox="0 0 28 28" fill="none" xmlns="http://www.w3.org/2000/svg">
<path d="M6.67969 24.5977H20.8945C23.3555 24.5977 24.5742 23.3789 24.5742 20.9648V6.65625C24.5742 4.24219 23.3555 3.02344 20.8945 3.02344H6.67969C4.23047 3.02344 3 4.23047 3 6.65625V20.9648C3 23.3906 4.23047 24.5977 6.67969 24.5977ZM6.70312 22.7109C5.53125 22.7109 4.88672 22.0898 4.88672 20.8711V6.75C4.88672 5.53125 5.53125 4.91016 6.70312 4.91016H20.8711C22.0312 4.91016 22.6875 5.53125 22.6875 6.75V20.8711C22.6875 22.0898 22.0312 22.7109 20.8711 22.7109H6.70312Z" fill="black" fill-opacity="0.85"/>
<path d="M10.0781 18.7734C12.4102 18.7734 13.1133 16.1484 13.1133 13.793C13.1133 11.4375 12.4102 8.8125 10.0781 8.8125C7.74609 8.8125 7.04297 11.4375 7.04297 13.793C7.04297 16.1484 7.74609 18.7734 10.0781 18.7734ZM10.0781 17.3789C9.11719 17.3789 8.75391 15.8203 8.75391 13.793C8.75391 11.7539 9.11719 10.1953 10.0781 10.1953C11.0391 10.1953 11.4023 11.7539 11.4023 13.793C11.4023 15.8203 11.0391 17.3789 10.0781 17.3789ZM17.4961 18.7383C19.3477 18.7383 20.5312 17.5781 20.5312 15.9727C20.5312 14.6953 19.7227 13.7695 18.7852 13.5586V13.5234C19.5703 13.2773 20.2734 12.5156 20.2734 11.4023C20.2734 9.89062 19.1484 8.85938 17.4961 8.85938C16.043 8.85938 14.7305 9.75 14.7305 11.3906C14.7305 12.5859 15.4805 13.2891 16.2305 13.5234V13.5586C15.2227 13.7812 14.4609 14.707 14.4609 15.9727C14.4609 17.707 15.7734 18.7383 17.4961 18.7383ZM17.4961 12.9844C16.7461 12.9844 16.3594 12.2578 16.3594 11.5664C16.3594 10.8164 16.7695 10.1133 17.4961 10.1133C18.2578 10.1133 18.6211 10.8164 18.6211 11.5664C18.6211 12.3398 18.2344 12.9844 17.4961 12.9844ZM17.4961 17.4727C16.6406 17.4727 16.2188 16.7109 16.2188 15.8438C16.2188 15 16.6523 14.25 17.4961 14.25C18.3281 14.25 18.7734 14.9531 18.7734 15.8438C18.7734 16.7109 18.3516 17.4727 17.4961 17.4727Z" fill="black" fill-opacity="0.85"/>
</svg>
