<svg width="28" height="28" viewBox="0 0 28 28" fill="none" xmlns="http://www.w3.org/2000/svg">
<path d="M13.9531 25.9062C20.4922 25.9062 25.9062 20.4805 25.9062 13.9531C25.9062 7.41406 20.4805 2 13.9414 2C7.41406 2 2 7.41406 2 13.9531C2 20.4805 7.42578 25.9062 13.9531 25.9062Z" fill="black" fill-opacity="0.85"/>
<path d="M9.23047 18.8516C8.66797 18.8516 8.36328 18.5117 8.36328 17.9375V9.80469C8.36328 9.32422 8.76172 8.92578 9.24219 8.92578C9.72266 8.92578 10.1328 9.32422 10.1328 9.80469V17.3867H12.7109C13.1094 17.3867 13.4375 17.7148 13.4375 18.1133C13.4375 18.5234 13.1094 18.8516 12.7109 18.8516H9.23047ZM15.2305 18.8398C14.668 18.8398 14.3984 18.5469 14.3984 18.1367C14.3984 17.7617 14.6328 17.457 14.8672 17.1641L16.9531 14.4922C17.5859 13.6719 18.2656 12.6875 18.2656 11.7266C18.2656 10.8594 17.8555 10.2266 17.1406 10.2266C16.4492 10.2266 16.1562 10.7305 15.9219 11.5391C15.793 11.9375 15.5586 12.125 15.1602 12.125C14.6797 12.125 14.4219 11.8086 14.4219 11.3633C14.4219 10.0977 15.6055 8.82031 17.1523 8.82031C18.8164 8.82031 19.9297 10.0039 19.9297 11.6328C19.9297 12.6992 19.5312 13.5898 18.3125 15.1016L16.5664 17.3164V17.4219H19.4258C19.8359 17.4219 20.1172 17.6797 20.1172 18.1367C20.1172 18.5586 19.8477 18.8398 19.4258 18.8398H15.2305Z" fill="white"/>
</svg>
