<svg width="34" height="28" viewBox="0 0 34 28" fill="none" xmlns="http://www.w3.org/2000/svg">
<path d="M0 14.4258C0 18.1406 1.20703 21.5508 3.24609 24.3281C3.60938 24.832 4.23047 24.8789 4.69922 24.5039C5.12109 24.1406 5.17969 23.5781 4.83984 23.1094C3.05859 20.6836 2.00391 17.6719 2.00391 14.4258C2.00391 11.168 3.05859 8.16799 4.83984 5.71877C5.17969 5.27346 5.13281 4.69924 4.69922 4.33596C4.23047 3.96096 3.60938 4.01955 3.24609 4.51174C1.20703 7.28908 0 10.711 0 14.4258ZM33.4453 14.4258C33.4453 10.711 32.25 7.28908 30.1992 4.51174C29.8359 4.01955 29.2148 3.96096 28.7461 4.33596C28.3125 4.69924 28.2773 5.27346 28.6055 5.71877C30.3984 8.16799 31.4414 11.168 31.4414 14.4258C31.4414 17.6719 30.3984 20.6836 28.6055 23.1094C28.2773 23.5781 28.3242 24.1406 28.7461 24.5039C29.2148 24.8789 29.8359 24.832 30.1992 24.3281C32.25 21.5508 33.4453 18.1406 33.4453 14.4258Z" fill="black" fill-opacity="0.85"/>
<path d="M16.7227 25.8516C22.9688 25.8516 28.1602 20.6719 28.1602 14.4258C28.1602 8.17969 22.9688 3 16.7109 3C10.4648 3 5.29688 8.16797 5.29688 14.4258C5.29688 20.6719 10.4766 25.8516 16.7227 25.8516ZM16.7227 23.8594C11.4961 23.8594 7.30078 19.6641 7.30078 14.4258C7.30078 9.17578 11.4844 4.98047 16.7109 4.98047C21.9492 4.98047 26.1562 9.17578 26.168 14.4258C26.1797 19.6523 21.9727 23.8594 16.7227 23.8594Z" fill="black" fill-opacity="0.85"/>
<path d="M12.2109 16.7461C12.2109 19.6055 14.0625 21.3516 16.6992 21.3516C18.6914 21.3516 20.0625 20.5547 20.9648 18.668C21.4688 17.707 21.8438 16.5352 22.2422 15.1992C22.418 14.6484 22.6641 13.9805 22.6641 13.6875C22.6641 13.3242 22.3945 13.0781 22.0078 13.0781C21.5859 13.0781 21.3398 13.3359 21.0352 13.9336L20.1211 15.8672C20.0508 16.0664 19.9453 16.1484 19.8398 16.1484C19.6992 16.1484 19.6289 16.0547 19.6289 15.8555V9.01172C19.6289 8.625 19.3008 8.29688 18.9141 8.29688C18.5156 8.29688 18.1992 8.625 18.1992 9.01172V13.8633C18.0234 13.8164 17.8359 13.7461 17.6484 13.7109V8.0625C17.6484 7.66406 17.332 7.34766 16.9336 7.34766C16.5352 7.34766 16.2188 7.66406 16.2188 8.0625V13.6406C16.0195 13.6758 15.8203 13.6758 15.6445 13.7109V8.625C15.6445 8.22656 15.3047 7.91016 14.918 7.91016C14.5195 7.91016 14.2031 8.22656 14.2031 8.625V14.1797C13.9922 14.2617 13.8281 14.3789 13.6523 14.4844V10.6641C13.6523 10.2656 13.3242 9.9375 12.9375 9.9375C12.5391 9.9375 12.2109 10.2656 12.2109 10.6641V16.7461Z" fill="black" fill-opacity="0.85"/>
</svg>
