<svg width="28" height="29" viewBox="0 0 28 29" fill="none" xmlns="http://www.w3.org/2000/svg">
<g clip-path="url(#clip0_2124_45945)">
<path d="M22.316 8.42286C24.0738 8.42286 25.4683 6.958 25.4683 5.25879C25.4683 3.48926 24.0738 2.05957 22.316 2.05957C20.5464 2.05957 19.1285 3.48926 19.1285 5.25879C19.1285 7.00489 20.5464 8.42286 22.316 8.42286ZM3.4371 25.1924C4.03476 25.8252 5.07773 25.7783 5.82773 25.0049L10.8668 19.8018C11.0308 19.626 11.1598 19.5791 11.4176 19.6846L15.3551 21.1729C17.8864 22.1455 20.2652 21.3135 21.3785 19.2979L23.9097 14.6924C24.8941 12.8994 24.5778 11.0479 22.8668 10.1338C21.2145 9.23145 19.5035 9.91114 18.4957 11.751L15.2144 17.7393L12.4137 16.7197C11.0309 16.2158 9.88241 16.3799 8.78085 17.5283L3.54257 22.9424C2.80429 23.6924 2.8746 24.6299 3.4371 25.1924Z" fill="black" fill-opacity="0.85"/>
<path d="M7.19927 2.0127C6.63677 2.0127 6.19146 2.44629 6.19146 3.00879V8.39942H4.04693C3.08599 8.39942 2.66411 9.37208 3.30864 10.0869L6.46099 13.6377C6.88286 14.1182 7.45708 14.1299 7.9024 13.6377L11.043 10.0869C11.6524 9.40723 11.3126 8.39942 10.3165 8.39942H8.18365V3.00879C8.18365 2.44629 7.75005 2.0127 7.19927 2.0127Z" fill="black" fill-opacity="0.85"/>
</g>
<defs>
<clipPath id="clip0_2124_45945">
<rect width="22.4688" height="23.8711" fill="white" transform="translate(3 2.0127)"/>
</clipPath>
</defs>
</svg>
