<svg width="28" height="29" viewBox="0 0 28 29" fill="none" xmlns="http://www.w3.org/2000/svg">
<g clip-path="url(#clip0_2124_50005)">
<path d="M14.0582 13.8516C16.6246 13.8516 19.191 13.6875 21.3004 13.3711C22.9293 13.1367 23.527 11.8945 22.8238 10.2773L19.3434 2.4375C18.6168 0.785156 17.4098 0 15.5699 0H12.5348C10.7066 0 9.49961 0.785156 8.77305 2.4375L5.29258 10.2773C4.58946 11.8945 5.17539 13.1367 6.81602 13.3711C8.91368 13.6875 11.4801 13.8516 14.0582 13.8516ZM14.0582 12.1289C11.9254 12.1289 9.8043 12.0117 7.47227 11.7422C6.81602 11.6719 6.71055 11.2852 6.9918 10.6523L10.3199 3.14062C10.7535 2.16797 11.4684 1.71094 12.5348 1.71094H15.5699C16.6363 1.71094 17.3629 2.16797 17.7965 3.14062L21.1246 10.6523C21.4059 11.2852 21.2887 11.6719 20.6441 11.7422C18.3121 12.0117 16.1793 12.1289 14.0582 12.1289ZM13.0738 15.5977H15.0309V13.3359H13.0738V15.5977ZM12.2535 28.3594H15.8512C18.8746 28.3594 20.6559 26.8008 20.6559 24.1641C20.6559 22.5117 20.1402 20.0508 19.2379 17.5664C18.7106 16.125 17.5738 15.2812 15.9566 15.2812H12.148C10.5309 15.2812 9.39415 16.125 8.8668 17.5664C7.97618 20.0508 7.44883 22.5117 7.44883 24.1641C7.44883 26.8008 9.23008 28.3594 12.2535 28.3594ZM12.2535 26.6484C10.2965 26.6484 9.14805 25.7227 9.14805 24.1641C9.14805 22.6875 9.64024 20.4492 10.4605 18.1523C10.7184 17.4258 11.2691 16.9922 12.148 16.9922H15.9566C16.8356 16.9922 17.3863 17.4258 17.6441 18.1523C18.4645 20.4492 18.9566 22.6875 18.9566 24.1641C18.9566 25.7227 17.8082 26.6484 15.8512 26.6484H12.2535Z" fill="black" fill-opacity="0.85"/>
</g>
<defs>
<clipPath id="clip0_2124_50005">
<rect width="18.1144" height="28.3711" fill="white" transform="translate(5)"/>
</clipPath>
</defs>
</svg>
