<svg width="28" height="28" viewBox="0 0 28 28" fill="none" xmlns="http://www.w3.org/2000/svg">
<path d="M6.67969 24.5977H20.8945C23.3555 24.5977 24.5742 23.3789 24.5742 20.9648V6.65625C24.5742 4.24219 23.3555 3.02344 20.8945 3.02344H6.67969C4.23047 3.02344 3 4.23047 3 6.65625V20.9648C3 23.3906 4.23047 24.5977 6.67969 24.5977ZM6.70312 22.7109C5.53125 22.7109 4.88672 22.0898 4.88672 20.8711V6.75C4.88672 5.53125 5.53125 4.91016 6.70312 4.91016H20.8711C22.0312 4.91016 22.6875 5.53125 22.6875 6.75V20.8711C22.6875 22.0898 22.0312 22.7109 20.8711 22.7109H6.70312Z" fill="black" fill-opacity="0.85"/>
<path d="M8.63672 18.5156H12.1641C12.5977 18.5156 12.9023 18.2695 12.9023 17.8359C12.9023 17.3672 12.5508 17.1445 12.1641 17.1445H9.49219V14.3672H12.0586C12.4336 14.3672 12.7031 14.1562 12.7031 13.7227C12.7031 13.2773 12.4453 13.0664 12.0586 13.0664H9.49219V10.4414H12.1641C12.5508 10.4414 12.9023 10.2188 12.9023 9.73828C12.9023 9.31641 12.5859 9.05859 12.1641 9.05859H8.63672C8.10938 9.05859 7.82812 9.41016 7.82812 9.91406V17.6602C7.82812 18.1406 8.09766 18.5156 8.63672 18.5156ZM14.9883 18.5156H19.3008C19.7109 18.5156 19.9805 18.2227 19.9805 17.8242C19.9805 17.4258 19.7109 17.1445 19.3008 17.1445H16.0195V17.0273L19.6289 10.5352C19.7344 10.3594 19.8164 10.1719 19.8164 9.87891C19.8164 9.31641 19.418 9.05859 18.9727 9.05859H14.8945C14.4727 9.05859 14.168 9.33984 14.168 9.75C14.168 10.1602 14.4727 10.4414 14.8945 10.4414H18.0117V10.4883L14.332 17.0625C14.25 17.2148 14.1562 17.4844 14.1562 17.7422C14.1562 18.2227 14.5078 18.5156 14.9883 18.5156Z" fill="black" fill-opacity="0.85"/>
</svg>
