<svg width="28" height="28" viewBox="0 0 28 28" fill="none" xmlns="http://www.w3.org/2000/svg">
<g clip-path="url(#clip0_2124_88484)">
<path d="M6.30859 24.6163L19.6328 26.9718C22.0234 27.3937 23.4766 26.0695 23.4766 23.4562V8.96006C23.4766 6.56943 22.2461 5.70224 19.8672 5.29209L6.94141 3.00693C5.16016 2.69052 4 3.66318 4 5.42099V21.9562C4 23.4679 4.77344 24.3468 6.30859 24.6163ZM6.76562 22.7531C6.16797 22.6593 5.88672 22.3077 5.88672 21.6866V5.7374C5.88672 5.10459 6.30859 4.78818 7 4.90537L19.7734 7.14365C20.957 7.36631 21.5898 7.84677 21.5898 8.93662V23.257C21.5898 24.5812 20.8164 25.2491 19.5508 25.0148L6.76562 22.7531ZM20.5469 6.73349H22.4336V3.99131C22.4336 1.53037 20.7812 0.346776 18.0039 0.838963L5.75781 3.00693L6.46094 4.63584L18.6719 2.60849C19.8438 2.40927 20.5469 2.90146 20.5469 3.92099V6.73349ZM8.81641 10.0616L17.8516 11.6554C18.4023 11.7491 18.7422 11.4093 18.7422 10.9171C18.7422 10.4718 18.5195 10.2374 18.1094 10.1554L9.12109 8.58506C8.58203 8.49131 8.20703 8.80771 8.20703 9.28818C8.20703 9.69834 8.42969 9.99131 8.81641 10.0616ZM8.81641 14.632L17.8516 16.2257C18.4023 16.3195 18.7422 15.9796 18.7422 15.4874C18.7422 15.0421 18.5195 14.8077 18.1094 14.7257L9.12109 13.1554C8.58203 13.0616 8.20703 13.3781 8.20703 13.8585C8.20703 14.2687 8.42969 14.5616 8.81641 14.632Z" fill="black" fill-opacity="0.85"/>
</g>
<defs>
<clipPath id="clip0_2124_88484">
<rect width="19.4766" height="27.0491" fill="white" transform="translate(4)"/>
</clipPath>
</defs>
</svg>
