<svg width="28" height="28" viewBox="0 0 28 28" fill="none" xmlns="http://www.w3.org/2000/svg">
<g clip-path="url(#clip0_2124_24617)">
<path d="M23.7734 21.0586C25.6016 21.0586 26.832 19.7812 26.832 17.8711V9.1875C26.832 7.27734 25.6016 6 23.7734 6H5.04688C3.21875 6 2 7.27734 2 9.1875V17.8711C2 19.7812 3.21875 21.0586 5.04688 21.0586H23.7734ZM22.8477 19.1719H5.97266V7.88672H22.8477V19.1719ZM25.6602 13.5234C25.6602 14.0859 25.2148 14.543 24.6406 14.543C24.0898 14.543 23.6328 14.0859 23.6328 13.5234C23.6328 12.9609 24.0898 12.5156 24.6406 12.5156C25.2148 12.5156 25.6602 12.9609 25.6602 13.5234ZM4.05078 15.75C3.78125 15.75 3.61719 15.5742 3.61719 15.3164V11.7422C3.61719 11.4844 3.78125 11.3086 4.05078 11.3086C4.32031 11.3086 4.49609 11.4844 4.49609 11.7422V15.3164C4.49609 15.5742 4.32031 15.75 4.05078 15.75Z" fill="black" fill-opacity="0.85"/>
</g>
<defs>
<clipPath id="clip0_2124_24617">
<rect width="24.832" height="15.082" fill="white" transform="translate(2 6)"/>
</clipPath>
</defs>
</svg>
