<svg width="28" height="28" viewBox="0 0 28 28" fill="none" xmlns="http://www.w3.org/2000/svg">
<path d="M13.9531 25.9062C20.4922 25.9062 25.9062 20.4805 25.9062 13.9531C25.9062 7.41406 20.4805 2 13.9414 2C7.41406 2 2 7.41406 2 13.9531C2 20.4805 7.42578 25.9062 13.9531 25.9062Z" fill="black" fill-opacity="0.85"/>
<path d="M10.3086 19.0508C9.00781 19.0508 7.77734 18.4297 7.42578 17.3047C7.36719 17.1055 7.33203 16.8945 7.33203 16.6719C7.33203 16.2031 7.64844 15.9102 8.12891 15.9102C8.51562 15.9102 8.77344 16.1094 8.89062 16.5078C9.04297 17.0586 9.42969 17.6445 10.3086 17.6445C11.1992 17.6445 11.6445 16.9297 11.6445 16.0977C11.6445 15.0547 11.082 14.4922 10.0508 14.4922H9.75781C9.35938 14.4922 9.08984 14.2578 9.08984 13.8594C9.08984 13.4609 9.34766 13.2031 9.75781 13.2031H10.0391C10.9531 13.2031 11.4336 12.5586 11.4336 11.6797C11.4336 10.8828 11.0586 10.2734 10.2617 10.2734C9.58203 10.2734 9.20703 10.7187 9.00781 11.4336C8.89062 11.8555 8.65625 12.0078 8.23438 12.0078C7.75391 12.0078 7.49609 11.6914 7.49609 11.293C7.49609 11.082 7.51953 10.8711 7.58984 10.6367C7.92969 9.57031 9.01953 8.86719 10.2617 8.86719C11.832 8.86719 13.0977 9.81641 13.0977 11.4922C13.0977 12.5 12.5469 13.4844 11.457 13.7773V13.8125C12.4766 13.918 13.3789 14.6562 13.3789 16.1562C13.3789 17.9609 12.043 19.0508 10.3086 19.0508ZM17.6328 19.0508C16.332 19.0508 15.1016 18.4297 14.75 17.3047C14.6914 17.1055 14.6562 16.8945 14.6562 16.6719C14.6562 16.2031 14.9844 15.9102 15.4531 15.9102C15.8398 15.9102 16.0977 16.1094 16.2148 16.5078C16.3672 17.0586 16.7656 17.6445 17.6328 17.6445C18.5352 17.6445 18.9688 16.9297 18.9688 16.0977C18.9688 15.0547 18.4062 14.4922 17.3867 14.4922H17.0703C16.6719 14.4922 16.4023 14.2578 16.4023 13.8594C16.4023 13.4609 16.6719 13.2031 17.0703 13.2031H17.3633C18.2656 13.2031 18.7578 12.5586 18.7578 11.6797C18.7578 10.8828 18.3711 10.2734 17.5742 10.2734C16.9062 10.2734 16.5195 10.7187 16.3438 11.4336C16.2148 11.8555 15.9688 12.0078 15.5586 12.0078C15.0781 12.0078 14.8086 11.6914 14.8086 11.293C14.8086 11.082 14.8438 10.8711 14.9023 10.6367C15.2539 9.57031 16.332 8.86719 17.5742 8.86719C19.168 8.86719 20.4102 9.81641 20.4102 11.4922C20.4102 12.5 19.8828 13.4844 18.7812 13.7773V13.8125C19.8008 13.918 20.7031 14.6562 20.7031 16.1562C20.7031 17.9609 19.3672 19.0508 17.6328 19.0508Z" fill="white"/>
</svg>
