<svg width="28" height="28" viewBox="0 0 28 28" fill="none" xmlns="http://www.w3.org/2000/svg">
<path d="M5.19922 25.2656H23.3633C25.3555 25.2656 26.5625 23.8828 26.5625 22.0898C26.5625 21.5391 26.3984 20.9648 26.1055 20.4492L17.0117 4.60547C16.4023 3.53906 15.3594 3 14.2812 3C13.2031 3 12.1484 3.53906 11.5508 4.60547L2.45703 20.4492C2.14062 20.9766 2 21.5391 2 22.0898C2 23.8828 3.20703 25.2656 5.19922 25.2656Z" fill="black" fill-opacity="0.85"/>
<path d="M6.66394 21.9023C6.17176 21.9023 5.8905 21.457 6.14832 20.9883L13.7538 7.71094C13.9999 7.26562 14.5507 7.26562 14.7968 7.71094L22.4022 20.9883C22.6483 21.4336 22.3788 21.9023 21.8866 21.9023H6.66394ZM9.19519 20.0039H19.3554C19.4843 20.0039 19.5663 19.875 19.496 19.7344L14.4218 10.8867C14.3632 10.7578 14.1991 10.7578 14.1405 10.8867L9.05457 19.7227C8.98426 19.8633 9.06629 20.0039 9.19519 20.0039Z" fill="white"/>
</svg>
