<svg width="28" height="28" viewBox="0 0 28 28" fill="none" xmlns="http://www.w3.org/2000/svg">
<path d="M13.9531 25.9062C20.4922 25.9062 25.9062 20.4805 25.9062 13.9531C25.9062 7.41406 20.4805 2 13.9414 2C7.41406 2 2 7.41406 2 13.9531C2 20.4805 7.42578 25.9062 13.9531 25.9062ZM13.9531 23.9141C8.42188 23.9141 4.00391 19.4844 4.00391 13.9531C4.00391 8.42188 8.41016 3.99219 13.9414 3.99219C19.4727 3.99219 23.9141 8.42188 23.9141 13.9531C23.9141 19.4844 19.4844 23.9141 13.9531 23.9141Z" fill="black" fill-opacity="0.85"/>
<path d="M9.78125 13.0391C11.2461 13.0391 12.418 11.8672 12.418 10.4141C12.418 8.94922 11.2461 7.77734 9.78125 7.77734C8.32812 7.77734 7.14453 8.94922 7.14453 10.4141C7.14453 11.8672 8.32812 13.0391 9.78125 13.0391ZM18.1016 13.0391C19.5547 13.0391 20.7383 11.8672 20.7383 10.4141C20.7383 8.94922 19.5547 7.77734 18.1016 7.77734C16.6484 7.77734 15.4648 8.94922 15.4648 10.4141C15.4648 11.8672 16.6484 13.0391 18.1016 13.0391ZM13.9414 22.4961C15.3945 22.4961 16.5781 21.3125 16.5781 19.8594C16.5781 18.4062 15.3945 17.2227 13.9414 17.2227C12.4883 17.2227 11.3047 18.4062 11.3047 19.8594C11.3047 21.3125 12.4883 22.4961 13.9414 22.4961ZM8.02344 18.7812C9.06641 18.7812 9.91016 17.9258 9.91016 16.8945C9.91016 15.8516 9.06641 15.0078 8.02344 15.0078C6.99219 15.0078 6.13672 15.8516 6.13672 16.8945C6.13672 17.9258 6.99219 18.7812 8.02344 18.7812ZM19.8594 18.7812C20.9023 18.7812 21.7461 17.9258 21.7461 16.8945C21.7461 15.8516 20.9023 15.0078 19.8594 15.0078C18.8164 15.0078 17.9727 15.8516 17.9727 16.8945C17.9727 17.9258 18.8164 18.7812 19.8594 18.7812Z" fill="black" fill-opacity="0.85"/>
</svg>
