<svg width="28" height="28" viewBox="0 0 28 28" fill="none" xmlns="http://www.w3.org/2000/svg">
<g clip-path="url(#clip0_2124_24622)">
<path d="M13.9531 25.9062C20.4922 25.9062 25.9062 20.4805 25.9062 13.9531C25.9062 7.41406 20.4805 2 13.9414 2C7.41406 2 2 7.41406 2 13.9531C2 20.4805 7.42578 25.9062 13.9531 25.9062ZM13.9531 23.9141C8.42188 23.9141 4.00391 19.4844 4.00391 13.9531C4.00391 8.42188 8.41016 3.99219 13.9414 3.99219C19.4727 3.99219 23.9141 8.42188 23.9141 13.9531C23.9141 19.4844 19.4844 23.9141 13.9531 23.9141Z" fill="black" fill-opacity="0.85"/>
<path d="M9.47656 19.5078C9.47656 20.6094 10.2383 21.3477 11.3867 21.3477H16.5195C17.668 21.3477 18.4297 20.6094 18.4297 19.5078V8.39844C18.4297 7.29688 17.668 6.55859 16.5195 6.55859H11.3867C10.2383 6.55859 9.47656 7.29688 9.47656 8.39844V19.5078ZM10.625 18.957V8.94922H17.2812V18.957H10.625ZM13.9648 20.6328C13.6367 20.6328 13.3672 20.3633 13.3672 20.0352C13.3672 19.707 13.6367 19.4375 13.9648 19.4375C14.2812 19.4375 14.5391 19.707 14.5391 20.0352C14.5391 20.3633 14.2812 20.6328 13.9648 20.6328ZM12.6172 7.80078C12.6172 7.625 12.7344 7.51953 12.8984 7.51953H15.0195C15.1836 7.51953 15.2891 7.625 15.2891 7.80078C15.2891 7.96484 15.1836 8.08203 15.0195 8.08203H12.8984C12.7344 8.08203 12.6172 7.96484 12.6172 7.80078Z" fill="black" fill-opacity="0.85"/>
<path d="M18.6523 20.5742C19.1914 21.1016 20.0586 21.1133 20.5742 20.5742C21.125 20.0352 21.1133 19.2031 20.5742 18.6641L9.23047 7.32031C8.69141 6.78125 7.83594 6.78125 7.30859 7.32031C6.76953 7.84766 6.76953 8.71484 7.30859 9.24219L18.6523 20.5742Z" fill="white"/>
<path d="M19.2383 20C19.4375 20.1992 19.7891 20.1992 19.9883 20C20.1992 19.7773 20.1992 19.4609 19.9883 19.25L8.65628 7.90625C8.44534 7.69531 8.1055 7.69531 7.89456 7.90625C7.68362 8.10547 7.69534 8.45703 7.89456 8.65625L19.2383 20Z" fill="black" fill-opacity="0.85"/>
</g>
<defs>
<clipPath id="clip0_2124_24622">
<rect width="23.9062" height="23.918" fill="white" transform="translate(2 2)"/>
</clipPath>
</defs>
</svg>
