<svg width="45" height="28" viewBox="0 0 45 28" fill="none" xmlns="http://www.w3.org/2000/svg">
<path d="M31.9453 26.5508H44.2031C44.5898 26.5508 44.9062 26.2578 44.9062 25.8594C44.9062 25.4609 44.5898 25.1562 44.2031 25.1562H31.9453C31.582 25.1562 31.2539 25.4609 31.2539 25.8594C31.2539 26.2578 31.582 26.5508 31.9453 26.5508Z" fill="black" fill-opacity="0.85"/>
<path d="M38.0742 22.9531C42.3047 22.9531 44.9062 20.4219 44.9062 16.7422V6.69922C44.9062 6.04297 44.4727 5.62109 43.8164 5.62109C43.1484 5.62109 42.7383 6.04297 42.7383 6.69922V16.5664C42.7383 19.1797 41.0156 20.9492 38.0742 20.9492C35.1562 20.9492 33.4219 19.1797 33.4219 16.5664V6.69922C33.4219 6.04297 32.9883 5.62109 32.332 5.62109C31.6758 5.62109 31.2539 6.04297 31.2539 6.69922V16.7422C31.2539 20.4219 33.8672 22.9531 38.0742 22.9531Z" fill="black" fill-opacity="0.85"/>
<path d="M16.6055 22.6484H24.0117C24.5625 22.6484 24.9492 22.3086 24.9492 21.7578C24.9492 21.2305 24.5742 20.8906 24.0234 20.8906H21.3867L24.2344 7.64844H26.8594C27.4102 7.64844 27.7969 7.3086 27.7969 6.75782C27.7969 6.23048 27.4219 5.89062 26.8711 5.89062H19.4415C18.8907 5.89062 18.5156 6.23048 18.5156 6.75782C18.5156 7.3086 18.9023 7.64844 19.4531 7.64844H22.0665L19.2188 20.8906H16.5938C16.043 20.8906 15.6562 21.2305 15.6562 21.7578C15.6562 22.3086 16.0547 22.6484 16.6055 22.6484Z" fill="black" fill-opacity="0.85"/>
<path d="M1.98047 22.6484H8.08594C11.6719 22.6484 13.9336 20.7617 13.9336 17.8672C13.9336 15.582 12.2812 13.9297 9.90234 13.8008V13.707C11.8477 13.4375 13.1719 11.9727 13.1719 10.1094C13.1719 7.49609 11.168 5.89062 7.92188 5.89062H1.98047C0.726562 5.89062 0 6.62892 0 7.91798V20.6328C0 21.9102 0.726562 22.6484 1.98047 22.6484ZM3.86719 19.9414V15.2891H6.80859C8.85938 15.2891 10.0078 16.0859 10.0078 17.5859C10.0078 19.1211 8.90625 19.9414 6.89062 19.9414H3.86719ZM3.86719 12.8516V8.64453H6.75C8.39062 8.64453 9.36328 9.39453 9.36328 10.6836C9.36328 12.043 8.28516 12.8516 6.45703 12.8516H3.86719Z" fill="black" fill-opacity="0.85"/>
</svg>
