<svg width="28" height="28" viewBox="0 0 28 28" fill="none" xmlns="http://www.w3.org/2000/svg">
<path d="M3.54974 14.2568L12.0927 14.292C12.2685 14.292 12.3271 14.3506 12.3271 14.5264L12.3505 22.999C12.3505 24.7451 14.4482 25.1553 15.2333 23.4561L23.8935 4.83493C24.6786 3.12399 23.331 1.999 21.6904 2.76071L2.9638 11.4443C1.4638 12.1357 1.75677 14.2451 3.54974 14.2568Z" fill="black" fill-opacity="0.85"/>
<path d="M21.9238 22.917C22.8262 23.8076 24.2793 23.8076 25.1465 22.8936C26.0137 22.0146 26.0137 20.5967 25.1348 19.7061L7.09961 1.65918C6.2207 0.780273 4.75586 0.780273 3.86523 1.65918C2.99805 2.53809 2.99805 4.00293 3.86523 4.88184L21.9238 22.917Z" fill="white"/>
<path d="M22.8955 21.9561C23.2471 22.3076 23.833 22.3076 24.1728 21.9561C24.5127 21.6045 24.5244 21.0303 24.1728 20.6787L6.12597 2.63184C5.77441 2.28027 5.18847 2.28027 4.83691 2.63184C4.49707 2.97168 4.49707 3.56934 4.83691 3.90918L22.8955 21.9561Z" fill="black" fill-opacity="0.85"/>
</svg>
