<svg width="28" height="28" viewBox="0 0 28 28" fill="none" xmlns="http://www.w3.org/2000/svg">
<path d="M13.9531 25.9062C20.4922 25.9062 25.9062 20.4805 25.9062 13.9531C25.9062 7.41406 20.4805 2 13.9414 2C7.41406 2 2 7.41406 2 13.9531C2 20.4805 7.42578 25.9062 13.9531 25.9062ZM13.9531 23.9141C8.42188 23.9141 4.00391 19.4844 4.00391 13.9531C4.00391 8.42188 8.41016 3.99219 13.9414 3.99219C19.4727 3.99219 23.9141 8.42188 23.9141 13.9531C23.9141 19.4844 19.4844 23.9141 13.9531 23.9141Z" fill="black" fill-opacity="0.85"/>
<path d="M11.2695 18.8398C11.7148 18.8398 12.0781 18.5703 12.0781 18.0078V16.8359H12.4883C12.9453 16.8359 13.1562 16.543 13.1562 16.1445C13.1562 15.7695 12.957 15.4766 12.4883 15.4766H12.0781V10.332C12.0781 9.52344 11.5391 9.06641 10.7773 9.06641C9.95703 9.06641 9.57031 9.48828 9.24219 10.2148L7.14453 14.7617C6.94531 15.2188 6.875 15.5234 6.875 15.8867C6.875 16.4492 7.27344 16.8359 7.83594 16.8359H10.4609V18.0078C10.4609 18.6289 10.9063 18.8398 11.2695 18.8398ZM10.4961 15.5117H8.31641V15.4297L10.4492 10.543H10.4961V15.5117ZM17.457 18.9336C19.2383 18.9336 20.2695 17.4336 20.2695 15.5938C20.2695 14.0117 19.5078 12.5117 17.9492 12.5117C17 12.5117 16.2852 13.1445 16.0156 14.1523H15.9688C15.9688 14.1055 15.9688 14.0586 15.9688 14.0234C15.9688 12.7227 16.1328 10.3672 17.4336 10.3672C17.9727 10.3672 18.3242 10.7422 18.5234 11.2344C18.6875 11.5977 18.9102 11.7617 19.2969 11.7617C19.7656 11.7617 19.9648 11.4453 19.9648 11.0586C19.9648 10.9297 19.9531 10.7891 19.9062 10.6367C19.6602 9.62891 18.6523 8.99609 17.4688 8.99609C15.0664 8.99609 14.375 11.6914 14.375 14.0703C14.375 16.2852 15.0781 18.9336 17.457 18.9336ZM17.4336 17.5625C16.543 17.5625 16.1914 16.4609 16.1914 15.6172C16.1914 14.7617 16.5898 13.7891 17.4336 13.7891C18.3008 13.7891 18.6641 14.7969 18.6406 15.6641C18.6406 16.5195 18.2539 17.5625 17.4336 17.5625Z" fill="black" fill-opacity="0.85"/>
</svg>
