<svg width="28" height="28" viewBox="0 0 28 28" fill="none" xmlns="http://www.w3.org/2000/svg">
<g clip-path="url(#clip0_2124_24771)">
<path d="M8.10156 24.4375H20.4297C25.2227 24.4375 27.5312 22.1406 27.5312 17.3711V11.8047H20.2773C20.0781 12.332 19.5859 12.6719 18.9648 12.6719H9.57812C8.96875 12.6719 8.45312 12.332 8.26562 11.8047H1V17.3711C1 22.1406 3.32031 24.4375 8.10156 24.4375ZM14.2656 17.1367C13.6797 17.1484 13.1992 16.6562 13.1992 16.082C13.1992 15.4961 13.6797 15.0039 14.2656 15.0039C14.8516 15.0039 15.3438 15.4961 15.3438 16.082C15.3438 16.6328 14.8516 17.125 14.2656 17.1367ZM1 10.7383H8.24219C8.42969 10.1992 8.94531 9.87109 9.55469 9.87109H18.9531C19.5625 9.87109 20.0664 10.1992 20.2539 10.7383H27.4961V10.3633C27.4961 6.08594 24.9648 4 20.3945 4H8.10156C3.54297 4 1 6.08594 1 10.3633V10.7383Z" fill="black" fill-opacity="0.85"/>
</g>
<defs>
<clipPath id="clip0_2124_24771">
<rect width="26.5312" height="20.4492" fill="white" transform="translate(1 4)"/>
</clipPath>
</defs>
</svg>
