<svg width="28" height="28" viewBox="0 0 28 28" fill="none" xmlns="http://www.w3.org/2000/svg">
<path d="M13.9531 25.918C20.4922 25.918 25.9062 20.5039 25.9062 13.9648C25.9062 7.4375 20.4805 2.01172 13.9414 2.01172C7.41406 2.01172 2 7.4375 2 13.9648C2 20.5039 7.42578 25.918 13.9531 25.918Z" fill="black" fill-opacity="0.85"/>
<path d="M7.94141 19.1797C7.60156 19.1797 7.27344 18.8867 7.27344 18.3242C7.27344 13.5078 9.32422 10.5312 13.9766 10.5312H14.1641V8.07031C14.1641 7.63672 14.4805 7.28516 14.9375 7.28516C15.2656 7.28516 15.4648 7.41406 15.8047 7.74219L20.9375 12.5352C21.1953 12.7695 21.2773 13.0039 21.2773 13.2266C21.2773 13.4609 21.1953 13.6953 20.9375 13.9297L15.8047 18.7578C15.5 19.0391 15.2539 19.1797 14.9258 19.1797C14.4805 19.1797 14.1641 18.8516 14.1641 18.4297V15.9336H13.9766C11.457 15.9336 9.875 16.5781 8.73828 18.6992C8.52734 19.1094 8.22266 19.1797 7.94141 19.1797Z" fill="white"/>
</svg>
