<svg width="28" height="28" viewBox="0 0 28 28" fill="none" xmlns="http://www.w3.org/2000/svg">
<path d="M20.9219 7.10938C22.3164 7.10938 23.4531 5.97266 23.4531 4.54297C23.4531 3.13672 22.3164 2 20.9219 2C19.4922 2 18.3555 3.13672 18.3555 4.54297C18.3555 5.97266 19.4922 7.10938 20.9219 7.10938ZM14.9805 26.0586H17.3594V18.4531C17.3594 18.2188 17.2891 17.9492 17.125 17.7383L14.5234 14.2344L17.8281 10.918C18.0508 10.6836 18.3789 10.6836 18.6016 10.918L21.7422 14.082C21.9531 14.3164 22.2812 14.4102 22.5859 14.4102C22.8906 14.4102 23.1953 14.293 23.418 14.082L26.9336 10.5664C27.1797 10.3203 27.2852 10.0156 27.2852 9.72266C27.2852 8.67969 25.9961 8.11719 25.2344 8.87891L22.5859 11.5273L18.1094 7.08594C17.5352 6.52344 16.9609 6.20703 16.0469 6.20703H11.0664C10.6328 6.20703 10.3281 6.32422 10.0117 6.62891L6.60156 10.0391C5.82812 10.8125 6.40234 12.0898 7.43359 12.0898C7.72656 12.0898 8.03125 11.9609 8.26562 11.7266L11.418 8.58594H13.5039C13.6797 8.58594 13.75 8.75 13.6094 8.87891L11.0664 11.4336C10.0117 12.4883 10 13.9766 11.0664 15.043L14.9805 18.9453V26.0586ZM9.66016 15.0664L8.00781 17.2812H2.18359C1.53906 17.2812 1 17.7969 1 18.4648C1 19.1211 1.53906 19.6367 2.18359 19.6367H8.59375C8.93359 19.6367 9.23828 19.5078 9.50781 19.2383L11.5938 17.1641L10.2695 15.8516C10.0234 15.5938 9.82422 15.3477 9.66016 15.0664ZM25.9844 23.0586C25.9844 23.4219 26.2773 23.7148 26.6172 23.7148C26.9805 23.7148 27.2852 23.4219 27.2852 23.0586V9.72266H25.9844V23.0586ZM1.77344 10.7891C1.41016 10.7891 1.11719 11.082 1.11719 11.4219C1.11719 11.7852 1.41016 12.0898 1.77344 12.0898H7.43359V10.7891H1.77344ZM24.7656 26.8555C25.9609 26.8555 26.6758 26.5625 27.5078 26.1641C27.8594 26.0117 27.9883 25.6367 27.8594 25.3438C27.7656 25.0156 27.3789 24.793 26.957 25.0039C26.2891 25.3438 25.7617 25.5547 24.7656 25.5547H4.26953C3.91797 25.5547 3.61328 25.8359 3.61328 26.1875C3.61328 26.5391 3.90625 26.8555 4.26953 26.8555H24.7656Z" fill="black" fill-opacity="0.85"/>
</svg>
