<svg width="29" height="29" viewBox="0 0 29 29" fill="none" xmlns="http://www.w3.org/2000/svg">
<g clip-path="url(#clip0_2124_45832)">
<path d="M8.01562 16.8123C8.01562 17.3982 8.47266 17.8552 9.05859 17.8552C9.63281 17.8552 10.0898 17.3982 10.0898 16.8123V12.3006C10.0898 12.0896 10.2656 11.9256 10.4766 11.9256C10.6875 11.9256 10.8516 12.0896 10.8516 12.3006V25.9646C10.8516 26.5974 11.3672 27.1013 12 27.1013C12.6328 27.1013 13.1484 26.5974 13.1484 25.9646V17.656C13.1484 17.4451 13.3242 17.2576 13.5352 17.2576C13.7461 17.2576 13.9336 17.4451 13.9336 17.656V25.9646C13.9336 26.5974 14.4375 27.1013 15.0703 27.1013C15.7031 27.1013 16.2187 26.5974 16.2187 25.9646V12.3006C16.2187 12.0896 16.3828 11.9256 16.5937 11.9256C16.8047 11.9256 16.9805 12.0896 16.9805 12.3006V16.8123C16.9805 17.3982 17.4375 17.8552 18.0117 17.8552C18.5976 17.8552 19.0547 17.3982 19.0547 16.8123V11.7732C19.0547 9.18335 17.1562 7.47241 14.3789 7.47241H12.6914C9.91406 7.47241 8.01562 9.18335 8.01562 11.7732V16.8123ZM13.5352 6.12476C14.9531 6.12476 16.0898 4.98804 16.0898 3.57007C16.0898 2.1521 14.9531 1.01538 13.5352 1.01538C12.1172 1.01538 10.9805 2.1521 10.9805 3.57007C10.9805 4.98804 12.1172 6.12476 13.5352 6.12476Z" fill="black" fill-opacity="0.85"/>
</g>
<defs>
<clipPath id="clip0_2124_45832">
<rect width="11.0391" height="26.332" fill="white" transform="translate(8.01562 1.01538)"/>
</clipPath>
</defs>
</svg>
