<svg width="42" height="29" viewBox="0 0 42 29" fill="none" xmlns="http://www.w3.org/2000/svg">
<path d="M3.05859 21.0909H6.64453V19.2042H3.16406C2.33203 19.2042 1.88672 18.6885 1.88672 17.7276V15.6417C1.88672 13.8838 3.12891 12.7471 5.39062 12.4659L10.9922 11.7627L16.0781 8.59869C18.668 6.99322 20.2266 6.6065 24.7031 6.6065H27.457C30.6445 6.6065 33.2227 7.93072 35.4375 11.0127L38.3086 11.7627C39.3867 12.0323 39.6797 12.6768 39.6797 13.5792V17.8331C39.6797 18.6885 39.2461 19.2042 38.5078 19.2042H35.6016V21.0909H38.8477C40.5352 21.0909 41.5664 20.0245 41.5664 18.3018V13.5792C41.5664 11.9385 41.0742 10.544 38.8945 9.86432L36.4805 9.12604C34.957 7.30963 32.2969 4.71979 27.457 4.71979H24.7031C19.875 4.71979 17.9531 5.18854 15.0703 6.99322L10.3477 9.95807L5.14453 10.5909C1.91016 10.9893 0 12.8526 0 15.6417V17.962C0 19.9542 1.11328 21.0909 3.05859 21.0909ZM12.1289 21.0909H30.2109V19.2042H12.1289V21.0909ZM9.31641 23.7627C11.5664 23.7627 13.3242 22.0049 13.3242 19.7549C13.3242 17.5049 11.5664 15.7471 9.31641 15.7471C7.06641 15.7471 5.30859 17.5049 5.30859 19.7549C5.30859 22.0049 7.06641 23.7627 9.31641 23.7627ZM9.31641 21.876C8.12109 21.876 7.19531 20.9502 7.19531 19.7549C7.19531 18.5596 8.12109 17.6338 9.31641 17.6338C10.5117 17.6338 11.4375 18.5596 11.4375 19.7549C11.4375 20.9502 10.5117 21.876 9.31641 21.876ZM32.9883 23.7627C35.2383 23.7627 36.9961 22.0049 36.9961 19.7549C36.9961 17.5049 35.2383 15.7471 32.9883 15.7471C30.7383 15.7471 28.9805 17.5049 28.9805 19.7549C28.9805 22.0049 30.7383 23.7627 32.9883 23.7627ZM32.9883 21.876C31.793 21.876 30.8672 20.9502 30.8672 19.7549C30.8672 18.5596 31.793 17.6338 32.9883 17.6338C34.1836 17.6338 35.1094 18.5596 35.1094 19.7549C35.1094 20.9502 34.1836 21.876 32.9883 21.876Z" fill="black" fill-opacity="0.85"/>
<path d="M18.609 22.8838C17.9762 22.8838 17.7066 23.3995 18.0465 23.9502L20.5894 28.1104C20.9058 28.6495 21.5387 28.626 21.8551 28.1104L24.4098 23.9502C24.7496 23.3995 24.4566 22.8838 23.8355 22.8838H18.609Z" fill="black" fill-opacity="0.85"/>
<path d="M18.609 17.4112H23.8355C24.4566 17.4112 24.7496 16.9073 24.4098 16.3565L21.8551 12.1846C21.5387 11.669 20.9058 11.6573 20.5894 12.1846L18.0465 16.3448C17.7066 16.8956 17.9762 17.4112 18.609 17.4112Z" fill="black" fill-opacity="0.85"/>
</svg>
