<svg width="36" height="29" viewBox="0 0 36 29" fill="none" xmlns="http://www.w3.org/2000/svg">
<g clip-path="url(#clip0_2124_45837)">
<path d="M27.3739 5.60425C28.7802 5.60425 29.9052 4.49097 29.9052 3.08472C29.9052 1.67847 28.7802 0.553467 27.3739 0.553467C25.9677 0.553467 24.8427 1.67847 24.8427 3.08472C24.8427 4.49097 25.9677 5.60425 27.3739 5.60425ZM27.3739 16.948C27.8427 16.948 28.0419 17.2761 28.3114 18.1199C28.6981 19.3035 29.8934 24.2136 30.2919 25.655C30.4911 26.3816 30.8661 26.6863 31.4169 26.6863C32.1669 26.6863 32.6239 26.0066 32.413 25.2683C32.3192 24.9519 30.62 17.8504 30.3856 16.3855C30.1864 15.0965 30.1395 12.4949 30.1395 11.2644C30.1395 11.0769 30.3505 11.0066 30.4559 11.1707C31.3466 12.4011 32.952 14.698 33.2684 15.073C33.62 15.4715 34.1708 15.5418 34.6395 15.2839C35.2372 14.9675 35.3778 14.323 35.1317 13.8777C35.0263 13.7019 34.9091 13.5261 34.7802 13.3504L31.7567 8.8855C30.7841 7.46753 29.6005 6.83472 27.3739 6.83472C25.1473 6.83472 23.952 7.46753 22.9911 8.8855L19.9559 13.3504C19.827 13.5261 19.7098 13.7019 19.6161 13.8777C19.37 14.323 19.4989 14.9675 20.0966 15.2839C20.5653 15.5418 21.1161 15.4715 21.4677 15.073C21.7841 14.698 23.3895 12.4129 24.2802 11.1707C24.3856 11.0183 24.6083 11.0769 24.6083 11.2761C24.6083 12.5066 24.5497 15.0965 24.3505 16.3855C24.1161 17.8504 22.4169 24.9519 22.3348 25.2683C22.1122 26.0066 22.5809 26.6863 23.3309 26.6863C23.8817 26.6863 24.245 26.3816 24.4559 25.655C24.8427 24.2136 26.038 19.3035 26.4364 18.1199C26.6942 17.2761 26.8934 16.948 27.3739 16.948Z" fill="black" fill-opacity="0.85"/>
<path d="M7.89693 5.60425C9.30318 5.60425 10.4282 4.49097 10.4282 3.08472C10.4282 1.67847 9.30318 0.553467 7.89693 0.553467C6.49068 0.553467 5.36568 1.67847 5.36568 3.08472C5.36568 4.49097 6.49068 5.60425 7.89693 5.60425ZM7.89693 16.948C8.3774 16.948 8.5649 17.2761 8.83443 18.1199C9.23286 19.3035 10.4165 24.2136 10.8149 25.655C11.0141 26.3816 11.3891 26.6863 11.9399 26.6863C12.6899 26.6863 13.1469 26.0066 12.936 25.2683C12.854 24.9519 11.1548 17.8504 10.9087 16.3855C10.7094 15.0965 10.6626 12.4949 10.6626 11.2644C10.6626 11.0769 10.8735 11.0066 10.9907 11.1707C11.8696 12.4011 13.4751 14.698 13.7915 15.073C14.143 15.4715 14.7055 15.5418 15.1626 15.2839C15.7602 14.9675 15.9009 14.323 15.6548 13.8777C15.561 13.7019 15.4321 13.5261 15.3149 13.3504L12.2798 8.8855C11.3188 7.46753 10.1235 6.83472 7.89693 6.83472C5.67036 6.83472 4.47505 7.46753 3.51411 8.8855L0.478962 13.3504C0.361775 13.5261 0.232869 13.7019 0.139119 13.8777C-0.106975 14.323 0.0219314 14.9675 0.631306 15.2839C1.08833 15.5418 1.65083 15.4715 1.99068 15.073C2.30708 14.698 3.92427 12.4129 4.80318 11.1707C4.90865 11.0183 5.1313 11.0769 5.1313 11.2761C5.1313 12.5066 5.07271 15.0965 4.87349 16.3855C4.63911 17.8504 2.9399 24.9519 2.85786 25.2683C2.64693 26.0066 3.10396 26.6863 3.85396 26.6863C4.40474 26.6863 4.77974 26.3816 4.97896 25.655C5.3774 24.2136 6.56099 19.3035 6.95943 18.1199C7.22896 17.2761 7.41646 16.948 7.89693 16.948Z" fill="black" fill-opacity="0.85"/>
<path d="M15.1387 27.5769C16.0528 27.5769 16.7442 26.991 16.9786 26.0886C17.1192 25.5965 17.3887 24.5183 17.6348 23.5105C17.8809 24.5183 18.1387 25.5965 18.2911 26.0886C18.5255 26.991 19.2051 27.5769 20.1192 27.5769C21.3731 27.5769 22.1934 26.3933 21.877 25.2215C21.8301 25.1043 20.8106 20.7566 20.6465 19.8543C20.5411 19.1746 20.5176 17.7918 20.5176 17.2175C20.5176 17.1121 20.5176 17.0886 20.6231 16.9832C21.338 16.0808 22.252 15.0379 22.5919 14.6043C23.2247 13.8308 23.1192 12.8113 22.4747 12.1199C21.7715 11.3465 20.5411 11.3582 19.8848 12.0613L18.6309 13.3738C18.1973 13.8425 18.0919 13.9129 17.6348 13.9129C17.1661 13.9129 17.0606 13.8425 16.6387 13.3738L15.3848 12.0613C14.7169 11.3582 13.4864 11.3465 12.7833 12.1199C12.1505 12.8113 12.0333 13.8425 12.6661 14.616C13.0176 15.0496 13.9317 16.0808 14.6465 16.9832C14.7403 17.0886 14.7403 17.1121 14.7403 17.2175C14.7403 17.7918 14.7169 19.1746 14.6114 19.8543C14.459 20.7566 13.4278 25.1043 13.3926 25.2215C13.0645 26.3933 13.8848 27.5769 15.1387 27.5769Z" fill="white"/>
<path d="M17.6346 13.7019C18.6659 13.7019 19.5213 12.8582 19.5213 11.8269C19.5213 10.7957 18.6659 9.9519 17.6346 9.9519C16.6034 9.9519 15.7596 10.7957 15.7596 11.8269C15.7596 12.8582 16.6034 13.7019 17.6346 13.7019ZM15.1385 26.6863C15.5956 26.6863 15.9588 26.4285 16.1112 25.8425C16.3573 24.9636 17.0721 21.9402 17.3065 21.2019C17.4706 20.7215 17.5057 20.6863 17.6346 20.6863C17.7518 20.6863 17.787 20.7215 17.951 21.2019C18.1854 21.9402 18.9003 24.9636 19.1581 25.8425C19.2987 26.4285 19.6737 26.6863 20.119 26.6863C20.7753 26.6863 21.1737 26.0652 21.0096 25.4558C20.951 25.2566 19.9315 20.9089 19.7674 19.9949C19.6503 19.2683 19.6151 17.8035 19.6151 17.2175C19.6151 16.8777 19.7206 16.655 19.9198 16.4207C20.7635 15.366 21.8299 14.1589 21.9588 13.9597C22.2401 13.5496 22.1346 13.0691 21.8182 12.741C21.4549 12.3308 20.8456 12.3425 20.5292 12.6707L19.287 13.9949C18.7713 14.5457 18.3378 14.8035 17.6346 14.8035C16.9315 14.8035 16.4979 14.5457 15.9823 13.9949L14.7401 12.6707C14.4237 12.3425 13.8026 12.3308 13.4393 12.741C13.1229 13.0691 13.0292 13.5496 13.2987 13.9597C13.4276 14.1589 14.494 15.366 15.3495 16.4207C15.537 16.655 15.6424 16.8777 15.6424 17.2175C15.6424 17.8035 15.619 19.2683 15.5018 19.9949C15.3378 20.9089 14.3065 25.2566 14.2479 25.4558C14.0956 26.0652 14.4823 26.6863 15.1385 26.6863Z" fill="black" fill-opacity="0.85"/>
</g>
<defs>
<clipPath id="clip0_2124_45837">
<rect width="35.2251" height="27.5742" fill="white" transform="translate(0.0214844 0.00268555)"/>
</clipPath>
</defs>
</svg>
