<svg width="28" height="28" viewBox="0 0 28 28" fill="none" xmlns="http://www.w3.org/2000/svg">
<path d="M14.3791 5.85938C15.797 5.85938 16.9338 4.72266 16.9338 3.30469C16.9338 1.88672 15.797 0.738281 14.3791 0.738281C12.9611 0.738281 11.8127 1.88672 11.8127 3.30469C11.8127 4.72266 12.9611 5.85938 14.3791 5.85938ZM24.1408 8.0625C23.6603 7.58203 22.922 7.59375 22.4416 8.0625L19.5822 10.8984L16.7228 8.01562C16.1603 7.44141 15.2697 7.08984 14.3791 7.08984H6.67986C6.15251 7.08984 5.71892 7.40625 5.53142 7.92188L3.69158 13.4531C3.41033 14.3086 3.90251 14.8945 4.50017 15.0352C5.05095 15.1875 5.7072 14.9531 5.96501 14.2031L7.54705 9.49219H10.09C10.3244 9.49219 10.4884 9.70312 10.4064 9.9375L8.84783 14.625C8.3322 16.1484 8.80095 17.6133 10.5119 18.3633L15.5158 20.5547L17.2033 26.4727C17.4142 27.2109 18.0939 27.4336 18.6681 27.2812C19.2541 27.1289 19.7345 26.5898 19.5119 25.8047L17.6603 19.3359C17.5549 18.9961 17.3908 18.75 16.9924 18.5742L13.09 16.8516L15.1642 10.6055C15.258 10.3477 15.5627 10.2539 15.7619 10.4531L18.7267 13.4531C19.1955 13.9219 19.9689 13.9219 20.4377 13.4531L24.1408 9.76172C24.6213 9.26953 24.6213 8.54297 24.1408 8.0625ZM9.24626 18.9492L8.66033 22.2773L3.62126 25.0898C2.90642 25.4883 2.87126 26.2383 3.19939 26.7656C3.50408 27.2578 4.13689 27.5625 4.80486 27.1875L10.3478 24.1172C10.6877 23.918 10.8049 23.6953 10.922 23.332L11.965 20.2266L10.0549 19.3945C9.76189 19.2656 9.49236 19.1133 9.24626 18.9492ZM25.09 5.85938C25.4885 5.66016 25.7345 5.27344 25.7345 4.85156V1.17188C25.7345 0.527344 25.2424 0 24.5861 0H21.9845C21.34 0 20.8244 0.527344 20.8244 1.17188V4.85156C20.8244 5.27344 21.0705 5.66016 21.4806 5.85938L23.2853 6.78516L25.09 5.85938ZM22.6408 8.89453H23.9416V5.53125H22.6408V8.89453Z" fill="black" fill-opacity="0.85"/>
</svg>
