<svg width="34" height="28" viewBox="0 0 34 28" fill="none" xmlns="http://www.w3.org/2000/svg">
<path d="M31.6992 21.8477C32.543 21.8477 33.2344 21.168 33.2344 20.3711C33.2344 19.5625 32.5547 18.8945 31.6992 18.8945C30.8555 18.8945 30.1641 19.5625 30.1641 20.3711C30.1641 21.168 30.8672 21.8477 31.6992 21.8477ZM31.6992 16.6445C32.2734 16.6445 32.6836 16.2461 32.707 15.6484L32.9531 7.35156C32.9766 6.60156 32.4727 6.09766 31.6992 6.09766C30.9258 6.09766 30.4336 6.60156 30.457 7.35156L30.7031 15.6484C30.7266 16.2461 31.125 16.6445 31.6992 16.6445Z" fill="black" fill-opacity="0.85"/>
<path d="M8.41406 15.332C7.37109 15.332 6.76172 15.918 6.76172 16.9609V25.3398C6.76172 26.3711 7.37109 26.957 8.41406 26.957H19.9102C20.9531 26.957 21.5625 26.3711 21.5625 25.3398V16.9609C21.5625 15.918 20.9531 15.332 19.9102 15.332H8.41406Z" fill="black" fill-opacity="0.85"/>
<path d="M6.63281 9.40234C4.30078 9.40234 2.75391 10.9258 2.75391 13.2344V21.625C2.75391 23.9453 4.30078 25.457 6.63281 25.457H21.7031C24.0352 25.457 25.5703 23.9453 25.5703 21.625V13.2344C25.5703 10.9258 24.0352 9.40234 21.7031 9.40234H6.63281Z" fill="white"/>
<path d="M6.50391 10.9961C5.13281 10.9961 4.34766 11.7578 4.34766 13.1055V21.7539C4.34766 23.1016 5.13281 23.8633 6.50391 23.8633H21.832C23.2031 23.8633 23.9766 23.1016 23.9766 21.7539V13.1055C23.9766 11.7578 23.2031 10.9961 21.832 10.9961H6.50391Z" fill="black" fill-opacity="0.85"/>
<path d="M5.56641 1.69141C2.07422 1.69141 0 3.73047 0 7.21094V16.6797C0 20.1602 2.07422 22.1992 5.56641 22.1992H22.7578C26.25 22.1992 28.3242 20.1484 28.3242 16.6797V7.21094C28.3242 3.74219 26.25 1.69141 22.7578 1.69141H5.56641Z" fill="white"/>
<path d="M5.56641 3.57812C3.11719 3.57812 1.88672 4.78516 1.88672 7.21094V16.6797C1.88672 19.1055 3.11719 20.3125 5.56641 20.3125H22.7578C25.207 20.3125 26.4375 19.0938 26.4375 16.6797V7.21094C26.4375 4.79688 25.207 3.57812 22.7578 3.57812H21.7383V2.26562C21.7383 1.46875 21.2812 1 20.4727 1H17.4141C16.6055 1 16.1484 1.46875 16.1484 2.26562V3.57812H12.1875V2.26562C12.1875 1.46875 11.7305 1 10.9336 1H7.85156C7.06641 1 6.60938 1.46875 6.60938 2.26562V3.57812H5.56641ZM7.06641 12.7188C6.62109 12.7188 6.28125 12.3555 6.28125 11.9102C6.28125 11.4766 6.62109 11.125 7.06641 11.125H11.4141C11.8477 11.125 12.2109 11.4766 12.2109 11.9102C12.2109 12.3555 11.8477 12.7188 11.4141 12.7188H7.06641ZM19.0898 15.168C18.6445 15.168 18.293 14.8164 18.293 14.3594V12.7188H16.6406C16.207 12.7188 15.8438 12.3555 15.8438 11.9102C15.8438 11.4766 16.1953 11.125 16.6406 11.125H18.293V9.47266C18.293 9.01562 18.6445 8.67578 19.0898 8.67578C19.5469 8.67578 19.8867 9.01562 19.8867 9.47266V11.125H21.5391C21.9727 11.125 22.3359 11.4766 22.3359 11.9102C22.3359 12.3555 21.9727 12.7188 21.5391 12.7188H19.8867V14.3594C19.8867 14.8164 19.5469 15.168 19.0898 15.168Z" fill="black" fill-opacity="0.85"/>
</svg>
