<svg width="28" height="33" viewBox="0 0 28 33" fill="none" xmlns="http://www.w3.org/2000/svg">
<g clip-path="url(#clip0_2124_24743)">
<path d="M13.8477 22.9688C20.9492 22.9688 25.6953 20.6836 25.6953 17.2617C25.6953 13.8398 20.9492 11.5664 13.8477 11.5664C6.73438 11.5664 2 13.8398 2 17.2617C2 20.6836 6.73438 22.9688 13.8477 22.9688ZM13.8477 21.082C7.87109 21.082 3.88672 19.5352 3.88672 17.2617C3.88672 14.9883 7.87109 13.4531 13.8477 13.4531C19.8242 13.4531 23.8086 14.9883 23.8086 17.2617C23.8086 19.5352 19.8242 21.082 13.8477 21.082ZM13.8477 28.8984C21.2188 28.8984 25.6953 26.8359 25.6953 21.9375V17.2617H23.8086V21.9375C23.8086 25.6641 20.0469 27.0117 13.8477 27.0117C7.64844 27.0117 3.88672 25.6641 3.88672 21.9375V17.2617H2V21.9375C2 26.8359 6.46484 28.8984 13.8477 28.8984ZM6.99219 23.3203V21.1289H5.45703V23.3203C5.45703 23.7422 5.80859 24.0938 6.23047 24.0938C6.65234 24.0938 6.99219 23.7422 6.99219 23.3203ZM10.5898 24.1172V21.9258H9.05469V24.1172C9.05469 24.5391 9.39453 24.8906 9.81641 24.8906C10.2383 24.8906 10.5898 24.5391 10.5898 24.1172ZM14.4688 24.4219V22.2305H12.9336V24.4219C12.9336 24.8438 13.2852 25.1836 13.707 25.1836C14.1289 25.1836 14.4688 24.8438 14.4688 24.4219ZM18.3594 24.1172V21.9258H16.8242V24.1172C16.8242 24.5391 17.1758 24.8906 17.5977 24.8906C18.0195 24.8906 18.3594 24.5391 18.3594 24.1172ZM21.957 23.3203V21.1289H20.4219V23.3203C20.4219 23.7422 20.7617 24.0938 21.1836 24.0938C21.6055 24.0938 21.957 23.7422 21.957 23.3203Z" fill="black" fill-opacity="0.85"/>
<path d="M15.7577 15.2344L18.8983 11.6953C20.4452 9.98438 19.3554 7.33594 16.9765 7.33594H16.4491V2.60156C16.4491 1.16016 15.289 0 13.8593 0C12.4061 0 11.2577 1.16016 11.2577 2.60156V7.33594H10.7069C8.37486 7.33594 7.23814 9.9375 8.7733 11.6836L11.9256 15.2344C12.9687 16.4297 14.703 16.4414 15.7577 15.2344Z" fill="white"/>
<path d="M14.5627 14.168L17.7033 10.6289C18.3244 9.9375 17.9729 8.94141 16.9768 8.94141H14.8557V2.60156C14.8557 2.03906 14.4104 1.60547 13.8596 1.60547C13.2854 1.60547 12.8518 2.03906 12.8518 2.60156V8.94141H10.7072C9.7463 8.94141 9.33615 9.90234 9.96896 10.6289L13.1213 14.168C13.5432 14.6602 14.1291 14.6602 14.5627 14.168Z" fill="black" fill-opacity="0.85"/>
</g>
<defs>
<clipPath id="clip0_2124_24743">
<rect width="23.6953" height="32.3086" fill="white" transform="translate(2)"/>
</clipPath>
</defs>
</svg>
