<svg width="28" height="28" viewBox="0 0 28 28" fill="none" xmlns="http://www.w3.org/2000/svg">
<path d="M13.9531 25.9062C20.4922 25.9062 25.9062 20.4805 25.9062 13.9531C25.9062 7.41406 20.4805 2 13.9414 2C7.41406 2 2 7.41406 2 13.9531C2 20.4805 7.42578 25.9062 13.9531 25.9062ZM13.9531 23.9141C8.42188 23.9141 4.00391 19.4844 4.00391 13.9531C4.00391 8.42188 8.41016 3.99219 13.9414 3.99219C19.4727 3.99219 23.9141 8.42188 23.9141 13.9531C23.9141 19.4844 19.4844 23.9141 13.9531 23.9141Z" fill="black" fill-opacity="0.85"/>
<path d="M15.7812 12.1133C15.0195 11.3398 13.9062 11.3398 13.1445 12.1133C13.0039 12.2539 12.7812 12.5586 12.6406 12.7461L8.70312 18.4297C8.50391 18.7109 8.5625 18.9922 8.72656 19.168C8.90234 19.332 9.18359 19.3906 9.46484 19.1914L15.1484 15.2539C15.3359 15.1133 15.6406 14.8906 15.7812 14.75C16.5547 13.9883 16.5547 12.875 15.7812 12.1133ZM7.22656 14.9609C7.77734 14.9609 8.23438 14.5039 8.23438 13.9531C8.23438 13.4023 7.77734 12.9453 7.22656 12.9453C6.67578 12.9453 6.21875 13.4023 6.21875 13.9531C6.21875 14.5039 6.67578 14.9609 7.22656 14.9609ZM9.18359 10.25C9.73438 10.25 10.1914 9.79297 10.1914 9.24219C10.1914 8.67969 9.73438 8.23438 9.18359 8.23438C8.63281 8.23438 8.17578 8.67969 8.17578 9.24219C8.17578 9.79297 8.63281 10.25 9.18359 10.25ZM13.9414 8.23438C14.4922 8.23438 14.9492 7.77734 14.9492 7.22656C14.9492 6.67578 14.4922 6.21875 13.9414 6.21875C13.3906 6.21875 12.9336 6.67578 12.9336 7.22656C12.9336 7.77734 13.3906 8.23438 13.9414 8.23438ZM18.6992 10.25C19.25 10.25 19.707 9.79297 19.707 9.24219C19.707 8.67969 19.25 8.23438 18.6992 8.23438C18.1484 8.23438 17.6914 8.67969 17.6914 9.24219C17.6914 9.79297 18.1484 10.25 18.6992 10.25ZM20.6797 14.9609C21.2305 14.9609 21.6875 14.5039 21.6875 13.9531C21.6875 13.4023 21.2305 12.9453 20.6797 12.9453C20.1289 12.9453 19.6719 13.4023 19.6719 13.9531C19.6719 14.5039 20.1289 14.9609 20.6797 14.9609ZM18.6992 19.6719C19.25 19.6719 19.707 19.2148 19.707 18.6641C19.707 18.1133 19.25 17.6562 18.6992 17.6562C18.1484 17.6562 17.6914 18.1133 17.6914 18.6641C17.6914 19.2148 18.1484 19.6719 18.6992 19.6719Z" fill="black" fill-opacity="0.85"/>
</svg>
