<svg width="28" height="28" viewBox="0 0 28 28" fill="none" xmlns="http://www.w3.org/2000/svg">
<path d="M3 21.7344C3 22.25 3.42188 22.6836 3.9375 22.6836C4.46484 22.6836 4.88672 22.25 4.88672 21.7344V5.96094C4.88672 5.44531 4.46484 5.02344 3.9375 5.02344C3.42188 5.02344 3 5.44531 3 5.96094V21.7344ZM22.6875 21.7344C22.6875 22.25 23.1211 22.6836 23.6367 22.6836C24.1523 22.6836 24.5742 22.25 24.5742 21.7344V5.96094C24.5742 5.44531 24.1523 5.02344 23.6367 5.02344C23.1211 5.02344 22.6875 5.44531 22.6875 5.96094V21.7344Z" fill="black" fill-opacity="0.85"/>
<path d="M11.7305 18.6172H16.0312C16.4414 18.6172 16.6875 18.3711 16.6875 17.9609C16.6875 17.5508 16.4414 17.3047 16.0312 17.3047H13.0195V17.2227L14.7656 15.2773C15.1875 14.8086 15.5156 14.3984 15.7734 14.0586C16.2188 13.4375 16.4766 12.8398 16.4766 12.0664C16.4766 10.4609 15.2812 9.48828 13.7109 9.48828C12.3867 9.48828 11.3086 10.3672 11.0391 11.375C11.0039 11.5156 10.9805 11.668 10.9805 11.8086C10.9805 12.2305 11.2383 12.5117 11.6602 12.5117C12.0234 12.5117 12.2578 12.3125 12.3867 11.9727C12.5742 11.2461 13.0078 10.7773 13.6992 10.7773C14.4727 10.7773 14.9062 11.375 14.9062 12.1367C14.9062 12.6992 14.7188 13.1211 14.3906 13.5781C14.1914 13.8594 13.9219 14.2109 13.5703 14.6211L11.3906 17.0703C11.1563 17.3164 10.957 17.5742 10.957 17.9375C10.957 18.2656 11.1328 18.6172 11.7305 18.6172Z" fill="black" fill-opacity="0.85"/>
</svg>
