<svg width="28" height="33" viewBox="0 0 28 33" fill="none" xmlns="http://www.w3.org/2000/svg">
<path d="M1.19649 19.8398C2.22774 23.6602 3.29414 24.8203 5.70821 24.8203H19.6184C21.3527 24.8203 22.5129 23.8828 22.9465 22.1133L27.3527 4.23047C27.9973 1.64062 26.7785 0 24.4934 0C21.7395 0 19.5129 2.61328 20.5793 6.24609L20.802 5.12109C18.0715 7.05469 16.6301 11.2031 17.0051 16.1953L17.5441 15.5039C14.9895 15.0469 12.0129 14.8125 9.05977 14.8125C2.79024 14.8125 0.235549 16.3359 1.19649 19.8398ZM3.00117 19.3359C2.48555 17.4492 3.91524 16.6992 9.05977 16.6992C13.2316 16.6992 16.2316 17.2617 17.5676 17.3555C18.2824 17.3672 18.7277 16.9102 18.716 16.1953C18.634 11.7891 19.7941 8.22656 21.8449 6.69141C22.2902 6.32812 22.384 6.10547 22.2551 5.29687C21.9387 3.10547 23.1574 1.88672 24.4934 1.88672C25.3605 1.88672 25.8293 2.58984 25.548 3.73828L21.1066 21.6562C20.9074 22.4883 20.4035 22.9336 19.6184 22.9336H5.70821C4.39571 22.9336 3.85664 22.5117 3.00117 19.3359Z" fill="black" fill-opacity="0.85"/>
<path d="M7.36061 26.6133C6.7278 26.6133 6.46998 27.1289 6.79811 27.6797L9.32936 31.8398C9.6692 32.3789 10.2786 32.3555 10.595 31.8398L13.1497 27.6797C13.4896 27.1289 13.1966 26.6133 12.5755 26.6133H7.36061Z" fill="black" fill-opacity="0.85"/>
<path d="M7.36088 13.0312H12.5757C13.1968 13.0312 13.4898 12.5273 13.1499 11.9766L10.5952 7.81641C10.2788 7.28906 9.65775 7.27734 9.32963 7.81641L6.79838 11.9766C6.45854 12.5273 6.72807 13.0312 7.36088 13.0312Z" fill="black" fill-opacity="0.85"/>
</svg>
