<svg width="28" height="28" viewBox="0 0 28 28" fill="none" xmlns="http://www.w3.org/2000/svg">
<g clip-path="url(#clip0_2124_88677)">
<path d="M13.9531 25.9062C20.4922 25.9062 25.9062 20.4805 25.9062 13.9531C25.9062 7.41406 20.4805 2 13.9414 2C7.41406 2 2 7.41406 2 13.9531C2 20.4805 7.42578 25.9062 13.9531 25.9062ZM13.9531 23.9141C8.42188 23.9141 4.00391 19.4844 4.00391 13.9531C4.00391 8.42188 8.41016 3.99219 13.9414 3.99219C19.4727 3.99219 23.9141 8.42188 23.9141 13.9531C23.9141 19.4844 19.4844 23.9141 13.9531 23.9141Z" fill="black" fill-opacity="0.85"/>
<path d="M8.79688 18.1836H19.1211C19.7188 18.1836 20.0703 17.8672 20.0703 17.4102C20.0703 16.7539 19.4258 16.1797 18.8516 15.5938C18.4062 15.1367 18.3242 14.2109 18.2773 13.4727C18.2188 10.9766 17.5508 9.26562 15.8398 8.63281C15.582 7.80078 14.9023 7.12109 13.9531 7.12109C13.0039 7.12109 12.3359 7.80078 12.0664 8.63281C10.3555 9.26562 9.6875 10.9766 9.64062 13.4727C9.58203 14.2109 9.48828 15.1367 9.05469 15.5938C8.50391 16.1914 7.83594 16.7539 7.83594 17.4102C7.83594 17.8672 8.1875 18.1836 8.79688 18.1836ZM13.9531 20.8906C15.0547 20.8906 15.8633 20.1055 15.9336 19.1562H11.9727C12.0547 20.1055 12.8516 20.8906 13.9531 20.8906Z" fill="black" fill-opacity="0.85"/>
</g>
<defs>
<clipPath id="clip0_2124_88677">
<rect width="23.9062" height="23.918" fill="white" transform="translate(2 2)"/>
</clipPath>
</defs>
</svg>
