<svg width="28" height="28" viewBox="0 0 28 28" fill="none" xmlns="http://www.w3.org/2000/svg">
<path d="M13.9531 25.9062C20.4922 25.9062 25.9062 20.4805 25.9062 13.9531C25.9062 7.41406 20.4805 2 13.9414 2C7.41406 2 2 7.41406 2 13.9531C2 20.4805 7.42578 25.9062 13.9531 25.9062ZM13.9531 23.9141C8.42188 23.9141 4.00391 19.4844 4.00391 13.9531C4.00391 8.42188 8.41016 3.99219 13.9414 3.99219C19.4727 3.99219 23.9141 8.42188 23.9141 13.9531C23.9141 19.4844 19.4844 23.9141 13.9531 23.9141Z" fill="black" fill-opacity="0.85"/>
<path d="M11.7617 19.1797H17.1641C17.6094 19.1797 17.9375 18.8867 17.9375 18.418C17.9375 17.9375 17.6094 17.6445 17.1641 17.6445H12.7109V9.41797C12.7109 8.77344 12.3828 8.36328 11.7617 8.36328C11.1641 8.36328 10.8359 8.79688 10.8359 9.41797V18.1367C10.8359 18.7578 11.1641 19.1797 11.7617 19.1797Z" fill="black" fill-opacity="0.85"/>
</svg>
