<svg width="28" height="28" viewBox="0 0 28 28" fill="none" xmlns="http://www.w3.org/2000/svg">
<path d="M6.67969 24.5977H20.8945C23.3555 24.5977 24.5742 23.3789 24.5742 20.9648V6.65625C24.5742 4.24219 23.3555 3.02344 20.8945 3.02344H6.67969C4.23047 3.02344 3 4.23047 3 6.65625V20.9648C3 23.3906 4.23047 24.5977 6.67969 24.5977Z" fill="black" fill-opacity="0.85"/>
<path d="M13.8047 19.8398C13.2773 19.8398 12.8906 19.4648 12.8906 18.9258V12.9141L12.9961 10.3477L11.7891 11.8008L10.3594 13.2422C10.1953 13.4062 9.97266 13.5117 9.71484 13.5117C9.21094 13.5117 8.83594 13.125 8.83594 12.6328C8.83594 12.375 8.90625 12.1641 9.07031 12L13.1016 7.98047C13.3477 7.73438 13.5469 7.64062 13.8047 7.64062C14.0859 7.64062 14.2852 7.74609 14.5195 7.98047L18.5391 12C18.7148 12.1641 18.7969 12.375 18.7969 12.6328C18.7969 13.125 18.4102 13.5117 17.9062 13.5117C17.6484 13.5117 17.4258 13.418 17.2617 13.2422L15.8438 11.8008L14.6133 10.3359L14.7188 12.9141V18.9258C14.7188 19.4648 14.3438 19.8398 13.8047 19.8398Z" fill="white"/>
</svg>
