<svg width="30" height="29" viewBox="0 0 30 29" fill="none" xmlns="http://www.w3.org/2000/svg">
<g clip-path="url(#clip0_2124_45836)">
<path d="M7.89889 6.05347C9.30514 6.05347 10.4301 4.94019 10.4301 3.53394C10.4301 2.12769 9.30514 1.00269 7.89889 1.00269C6.49264 1.00269 5.36764 2.12769 5.36764 3.53394C5.36764 4.94019 6.49264 6.05347 7.89889 6.05347ZM7.89889 17.3972C8.37936 17.3972 8.56686 17.7254 8.83639 18.5691C9.23482 19.7527 10.4184 24.6629 10.8168 26.1043C11.016 26.8308 11.391 27.1355 11.9418 27.1355C12.6918 27.1355 13.1488 26.4558 12.9379 25.7175C12.8559 25.4011 11.1567 18.2996 10.9106 16.8347C10.7113 15.5457 10.6645 12.9441 10.6645 11.7136C10.6645 11.5261 10.8754 11.4558 10.9926 11.6199C11.8715 12.8504 13.477 15.1472 13.7934 15.5222C14.1449 15.9207 14.7074 15.991 15.1645 15.7332C15.7621 15.4168 15.9028 14.7722 15.6567 14.3269C15.5629 14.1511 15.434 13.9754 15.3168 13.7996L12.2817 9.33472C11.3207 7.91675 10.1254 7.28394 7.89889 7.28394C5.67232 7.28394 4.47701 7.91675 3.51607 9.33472L0.480915 13.7996C0.363728 13.9754 0.234822 14.1511 0.141072 14.3269C-0.105022 14.7722 0.0238845 15.4168 0.633259 15.7332C1.09029 15.991 1.65279 15.9207 1.99264 15.5222C2.30904 15.1472 3.92623 12.8621 4.80514 11.6199C4.91061 11.4675 5.13326 11.5261 5.13326 11.7254C5.13326 12.9558 5.07467 15.5457 4.87545 16.8347C4.64107 18.2996 2.94186 25.4011 2.85982 25.7175C2.64889 26.4558 3.10592 27.1355 3.85592 27.1355C4.4067 27.1355 4.7817 26.8308 4.98092 26.1043C5.37936 24.6629 6.56295 19.7527 6.96139 18.5691C7.23092 17.7254 7.41842 17.3972 7.89889 17.3972ZM21.3754 6.05347C22.7817 6.05347 23.9067 4.94019 23.9067 3.53394C23.9067 2.12769 22.7817 1.00269 21.3754 1.00269C19.9692 1.00269 18.8442 2.12769 18.8442 3.53394C18.8442 4.94019 19.9692 6.05347 21.3754 6.05347ZM21.3754 17.3972C21.8442 17.3972 22.0434 17.7254 22.3129 18.5691C22.6996 19.7527 23.8949 24.6629 24.2934 26.1043C24.4926 26.8308 24.8676 27.1355 25.4184 27.1355C26.1684 27.1355 26.6254 26.4558 26.4145 25.7175C26.3207 25.4011 24.6215 18.2996 24.3871 16.8347C24.1879 15.5457 24.1293 12.9441 24.1293 11.7136C24.1293 11.5261 24.352 11.4558 24.4574 11.6199C25.3481 12.8504 26.9535 15.1472 27.2699 15.5222C27.6215 15.9207 28.1723 15.991 28.641 15.7332C29.2387 15.4168 29.3793 14.7722 29.1215 14.3269C29.0278 14.1511 28.9106 13.9754 28.7817 13.7996L25.7582 9.33472C24.7856 7.91675 23.602 7.28394 21.3754 7.28394C19.1488 7.28394 17.9535 7.91675 16.9926 9.33472L13.9574 13.7996C13.8285 13.9754 13.7113 14.1511 13.6176 14.3269C13.3715 14.7722 13.5004 15.4168 14.0981 15.7332C14.5668 15.991 15.1176 15.9207 15.4692 15.5222C15.7856 15.1472 17.391 12.8621 18.2817 11.6199C18.3871 11.4675 18.6098 11.5261 18.6098 11.7254C18.6098 12.9558 18.5512 15.5457 18.352 16.8347C18.1176 18.2996 16.4184 25.4011 16.3363 25.7175C16.1137 26.4558 16.5824 27.1355 17.3324 27.1355C17.8832 27.1355 18.2465 26.8308 18.4457 26.1043C18.8442 24.6629 20.0395 19.7527 20.4262 18.5691C20.6957 17.7254 20.8949 17.3972 21.3754 17.3972Z" fill="black" fill-opacity="0.85"/>
</g>
<defs>
<clipPath id="clip0_2124_45836">
<rect width="29.2213" height="26.4727" fill="white" transform="translate(0.0234375 1.00269)"/>
</clipPath>
</defs>
</svg>
