<svg width="30" height="28" viewBox="0 0 30 28" fill="none" xmlns="http://www.w3.org/2000/svg">
<path d="M23.1562 23.3672C26.6953 23.3672 29.4609 20.7773 29.4609 17.5547C29.4609 15.0938 28.043 12.9609 25.7578 12C25.7812 6.77344 22.0195 3 17.2266 3C14.0508 3 11.7891 4.69922 10.3828 6.75C7.5 5.90625 4.35938 8.09766 4.30078 11.3789C1.65234 11.8008 0 14.168 0 17.0273C0 20.4727 3.01172 23.3672 7.01953 23.3672H23.1562Z" fill="black" fill-opacity="0.85"/>
<path d="M6.9137 16.418L10.9801 11.1562C11.2379 10.8398 11.4957 10.6992 11.7535 10.6992C11.9762 10.6992 12.1871 10.793 12.4215 10.9102L17.6832 13.7344L21.7027 11.5664C22.4176 11.1797 23.0621 11.8711 22.5582 12.5391L18.4684 17.8242C18.2223 18.1289 17.9527 18.2695 17.6832 18.2695C17.484 18.2695 17.273 18.1875 17.0269 18.0586L11.7652 15.2461L7.76917 17.4141C7.07776 17.7773 6.36292 17.1328 6.9137 16.418Z" fill="white"/>
</svg>
