<svg width="28" height="28" viewBox="0 0 28 28" fill="none" xmlns="http://www.w3.org/2000/svg">
<path d="M13.9531 25.9062C20.4922 25.9062 25.9062 20.4805 25.9062 13.9531C25.9062 7.41406 20.4805 2 13.9414 2C7.41406 2 2 7.41406 2 13.9531C2 20.4805 7.42578 25.9062 13.9531 25.9062ZM13.9531 23.9141C8.42188 23.9141 4.00391 19.4844 4.00391 13.9531C4.00391 8.42188 8.41016 3.99219 13.9414 3.99219C19.4727 3.99219 23.9141 8.42188 23.9141 13.9531C23.9141 19.4844 19.4844 23.9141 13.9531 23.9141Z" fill="black" fill-opacity="0.85"/>
<path d="M11.2812 18.8398C11.7148 18.8398 12.0781 18.5703 12.0781 18.0078V16.8359H12.5C12.9453 16.8359 13.1562 16.543 13.1562 16.1445C13.1562 15.7695 12.9688 15.4766 12.5 15.4766H12.0781V10.332C12.0781 9.52344 11.5508 9.06641 10.7773 9.06641C9.95703 9.06641 9.57031 9.48828 9.24219 10.2148L7.14453 14.7617C6.94531 15.2188 6.88672 15.5234 6.88672 15.8867C6.88672 16.4492 7.27344 16.8359 7.84766 16.8359H10.4609V18.0078C10.4609 18.6289 10.9062 18.8398 11.2812 18.8398ZM10.4961 15.5117H8.32812V15.4297L10.4609 10.543H10.4961V15.5117ZM17.375 18.8984C19.2266 18.8984 20.4102 17.7383 20.4102 16.1328C20.4102 14.8555 19.6016 13.9297 18.6641 13.7188V13.6836C19.4492 13.4375 20.1523 12.6758 20.1523 11.5625C20.1523 10.0508 19.0273 9.01953 17.375 9.01953C15.9219 9.01953 14.6094 9.91016 14.6094 11.5508C14.6094 12.7461 15.3594 13.4492 16.1094 13.6836V13.7188C15.1016 13.9414 14.3398 14.8672 14.3398 16.1328C14.3398 17.8672 15.6523 18.8984 17.375 18.8984ZM17.375 13.1445C16.625 13.1445 16.2383 12.418 16.2383 11.7266C16.2383 10.9766 16.6484 10.2734 17.375 10.2734C18.1367 10.2734 18.5 10.9766 18.5 11.7266C18.5 12.5 18.1133 13.1445 17.375 13.1445ZM17.375 17.6328C16.5195 17.6328 16.0977 16.8711 16.0977 16.0039C16.0977 15.1602 16.5312 14.4102 17.375 14.4102C18.207 14.4102 18.6523 15.1133 18.6523 16.0039C18.6523 16.8711 18.2305 17.6328 17.375 17.6328Z" fill="black" fill-opacity="0.85"/>
</svg>
