<svg width="28" height="28" viewBox="0 0 28 28" fill="none" xmlns="http://www.w3.org/2000/svg">
<path d="M3.67969 24.5742H23.9531C26.4141 24.5742 27.6328 23.3672 27.6328 20.9531V6.63281C27.6328 4.21875 26.4141 3 23.9531 3H3.67969C1.23047 3 0 4.21875 0 6.63281V20.9531C0 23.3672 1.23047 24.5742 3.67969 24.5742ZM3.70312 22.6875C2.53125 22.6875 1.88672 22.0664 1.88672 20.8477V6.73828C1.88672 5.51953 2.53125 4.88672 3.70312 4.88672H23.9297C25.0898 4.88672 25.7461 5.51953 25.7461 6.73828V20.8477C25.7461 22.0664 25.0898 22.6875 23.9297 22.6875H3.70312Z" fill="black" fill-opacity="0.85"/>
<path d="M9.58594 18.3984C9.58594 19.2773 9.97266 19.6875 10.793 19.6875H16.8633C17.6719 19.6875 18.0586 19.2773 18.0586 18.3984V13.7344C18.0586 12.9141 17.7188 12.5156 17.0273 12.4688V11.0742C17.0273 8.91797 15.7383 7.47656 13.8281 7.47656C11.918 7.47656 10.6289 8.91797 10.6289 11.0742V12.4688C9.92578 12.5156 9.58594 12.9141 9.58594 13.7344V18.3984ZM11.8477 12.457V10.9453C11.8477 9.57422 12.6328 8.66016 13.8281 8.66016C15.0117 8.66016 15.8086 9.57422 15.8086 10.9453V12.457H11.8477Z" fill="black" fill-opacity="0.85"/>
</svg>
