<svg width="28" height="28" viewBox="0 0 28 28" fill="none" xmlns="http://www.w3.org/2000/svg">
<path d="M13.9531 25.9062C20.4922 25.9062 25.9062 20.4805 25.9062 13.9531C25.9062 7.41406 20.4805 2 13.9414 2C7.41406 2 2 7.41406 2 13.9531C2 20.4805 7.42578 25.9062 13.9531 25.9062ZM13.9531 23.9141C8.42188 23.9141 4.00391 19.4844 4.00391 13.9531C4.00391 8.42188 8.41016 3.99219 13.9414 3.99219C19.4727 3.99219 23.9141 8.42188 23.9141 13.9531C23.9141 19.4844 19.4844 23.9141 13.9531 23.9141Z" fill="black" fill-opacity="0.85"/>
<path d="M10.6367 18.6641C10.6367 19.2031 11.0117 19.5781 11.5625 19.5781H12.0547V20.5039C12.0547 20.8438 12.2891 21.0781 12.6172 21.0781C12.9453 21.0781 13.1797 20.8438 13.1797 20.5039V19.5781H13.9414V20.5039C13.9414 20.8438 14.1875 21.0781 14.5039 21.0781C14.832 21.0781 15.0781 20.8438 15.0781 20.5039V19.543C17.0234 19.332 18.1602 18.207 18.1602 16.4844C18.1602 15.1602 17.375 14.1758 16.168 13.8125C17.0352 13.3906 17.6328 12.4648 17.6328 11.4688C17.6328 10.0156 16.6367 8.96094 15.0781 8.72656V7.77734C15.0781 7.4375 14.832 7.20312 14.5039 7.20312C14.1875 7.20312 13.9414 7.4375 13.9414 7.77734V8.67969H13.1797V7.77734C13.1797 7.4375 12.9453 7.20312 12.6172 7.20312C12.2891 7.20312 12.0547 7.4375 12.0547 7.77734V8.67969H11.5625C11.0234 8.67969 10.6367 9.05469 10.6367 9.60547V18.6641ZM12.1367 18.207V14.6445H14.1172C15.793 14.6445 16.6602 15.2422 16.6602 16.4258C16.6602 17.5859 15.8281 18.1836 14.2461 18.1953L12.1367 18.207ZM12.1367 13.2734V10.0391H14.1406C15.4062 10.0391 16.1328 10.5898 16.1328 11.5859C16.1328 12.6875 15.3125 13.2969 13.8125 13.2852L12.1367 13.2734Z" fill="black" fill-opacity="0.85"/>
</svg>
