<svg width="28" height="28" viewBox="0 0 28 28" fill="none" xmlns="http://www.w3.org/2000/svg">
<path d="M13.9531 25.9062C20.4922 25.9062 25.9062 20.4805 25.9062 13.9531C25.9062 7.41406 20.4805 2 13.9414 2C7.41406 2 2 7.41406 2 13.9531C2 20.4805 7.42578 25.9062 13.9531 25.9062Z" fill="black" fill-opacity="0.85"/>
<path d="M11.832 20.0117C11.375 20.0117 11.0352 19.707 11.0352 19.2383V17.9609H10.0625C9.71094 17.9609 9.48828 17.6914 9.48828 17.3516C9.48828 17.0117 9.71094 16.7539 10.0625 16.7539H11.0352V9.27734C11.0352 8.78516 11.3398 8.46875 11.8203 8.46875H17.0938C17.5156 8.46875 17.832 8.75 17.832 9.20703C17.832 9.64062 17.5156 9.93359 17.0938 9.93359H12.6172V13.3438H16.6484C17.0703 13.3438 17.3984 13.625 17.3984 14.0703C17.3984 14.5039 17.0703 14.7969 16.6484 14.7969H12.6172V16.7539H15.1016C15.4531 16.7539 15.6992 17.0117 15.6992 17.3516C15.6992 17.6914 15.4531 17.9609 15.1016 17.9609H12.6172V19.2266C12.6172 19.6836 12.3008 20.0117 11.832 20.0117Z" fill="white"/>
</svg>
