<svg width="34" height="28" viewBox="0 0 34 28" fill="none" xmlns="http://www.w3.org/2000/svg">
<path d="M12.7383 24.3281H24.1523C25.6992 24.3281 26.625 23.4492 26.625 21.9141V19.7812C26.625 19.7227 26.6602 19.6992 26.707 19.6992H28.1016C28.1602 19.6992 28.1836 19.7227 28.1836 19.7812V21.0938C28.1836 22.418 29.0625 23.2266 30.4922 23.2266H31.4648C32.8828 23.2266 33.7617 22.4297 33.7617 21.0938V12.6328C33.7617 11.2969 32.8828 10.5 31.4648 10.5H30.4922C29.0625 10.5 28.1836 11.3086 28.1836 12.6328V13.7227C28.1836 13.7695 28.1602 13.8047 28.1016 13.8047H26.707C26.6602 13.8047 26.625 13.7695 26.625 13.7227V11.7305C26.625 10.2773 25.7227 9.39844 24.2227 9.39844H23.2969L21.3281 7.25391C20.8711 6.75 20.4023 6.55078 19.8281 6.55078H10.7227C10.1367 6.55078 9.66797 6.77344 9.21094 7.25391L7.24219 9.39844H5.95312C4.47656 9.39844 3.5625 10.2773 3.5625 11.7305V19.125C3.5625 20.5898 4.46484 21.4688 5.95312 21.4688H9.25781L11.2383 23.625C11.6953 24.1172 12.1172 24.3281 12.7383 24.3281ZM12.9844 22.4414C12.75 22.4414 12.6797 22.4062 12.5273 22.2539L10.0781 19.582H5.96484C5.63672 19.582 5.44922 19.3945 5.44922 19.043V11.8242C5.44922 11.4727 5.63672 11.2852 5.96484 11.2852H8.08594L10.5117 8.64844C10.6641 8.47266 10.7461 8.4375 10.9453 8.4375H19.5938C19.8047 8.4375 19.8984 8.47266 20.0391 8.64844L22.4766 11.2852H24.2109C24.5391 11.2852 24.7383 11.4844 24.7383 11.8242V15.1875C24.7383 15.5039 24.9258 15.6914 25.2305 15.6914H29.5898C29.8945 15.6914 30.082 15.5039 30.082 15.1875V12.7148C30.082 12.5039 30.2227 12.3867 30.5156 12.3867H31.4531C31.7344 12.3867 31.875 12.5156 31.875 12.7148V21C31.875 21.2109 31.7344 21.3398 31.4531 21.3398H30.5156C30.2227 21.3398 30.082 21.2227 30.082 21V18.3047C30.082 17.9883 29.8945 17.8008 29.5898 17.8008H25.2305C24.9258 17.8008 24.7383 17.9883 24.7383 18.3047V21.8438C24.7383 22.2305 24.5391 22.4414 24.1406 22.4414H12.9844ZM0.9375 20.0742C1.46484 20.0742 1.88672 19.6289 1.88672 19.125V16.3828H4.38281V14.4961H1.88672V11.7422C1.88672 11.2266 1.45312 10.8047 0.9375 10.8047C0.421875 10.8047 0 11.2383 0 11.7422V19.125C0 19.6406 0.433594 20.0742 0.9375 20.0742ZM15.2344 7.73438H17.1328V4.88672H20.8125C21.3281 4.88672 21.75 4.44141 21.75 3.9375C21.75 3.42188 21.3281 3 20.8125 3H11.5312C11.0156 3 10.5938 3.43359 10.5938 3.94922C10.5938 4.46484 11.0273 4.88672 11.5312 4.88672H15.2344V7.73438Z" fill="black" fill-opacity="0.85"/>
</svg>
