<svg width="28" height="28" viewBox="0 0 28 28" fill="none" xmlns="http://www.w3.org/2000/svg">
<path d="M6.67969 24.5977H20.8945C23.3555 24.5977 24.5742 23.3789 24.5742 20.9648V6.65625C24.5742 4.24219 23.3555 3.02344 20.8945 3.02344H6.67969C4.23047 3.02344 3 4.23047 3 6.65625V20.9648C3 23.3906 4.23047 24.5977 6.67969 24.5977ZM6.70312 22.7109C5.53125 22.7109 4.88672 22.0898 4.88672 20.8711V6.75C4.88672 5.53125 5.53125 4.91016 6.70312 4.91016H20.8711C22.0312 4.91016 22.6875 5.53125 22.6875 6.75V20.8711C22.6875 22.0898 22.0312 22.7109 20.8711 22.7109H6.70312Z" fill="black" fill-opacity="0.85"/>
<path d="M10.6055 18.6562C11.0742 18.6562 11.4609 18.2695 11.4609 17.8008V9.85547C11.4609 9.25781 11.0859 8.90625 10.4766 8.90625C9.98438 8.90625 9.58594 9.17578 9.30469 9.38672L8.01562 10.3828C7.81641 10.5469 7.65234 10.7695 7.65234 11.0742C7.65234 11.4375 7.89844 11.6953 8.25 11.6953C8.4375 11.6953 8.55469 11.6367 8.67188 11.5547L9.75 10.6875V17.8008C9.75 18.2695 10.1367 18.6562 10.6055 18.6562ZM16.1836 18.7734C18 18.7734 19.0078 17.2383 19.0078 15.3867C19.0078 13.7695 18.2344 12.293 16.7227 12.293C16.0312 12.293 15.3984 12.6094 15.0938 13.2891H15.0469L15.2344 10.4414H17.9883C18.3867 10.4414 18.6328 10.1602 18.6328 9.75C18.6328 9.36328 18.375 9.05859 17.9883 9.05859H14.7656C14.1562 9.05859 13.875 9.45703 13.8398 10.0664L13.6406 13.2773C13.6289 13.4531 13.6289 13.6406 13.6289 13.793C13.6289 14.2383 13.8516 14.6367 14.3906 14.6367C14.7188 14.6367 14.8945 14.5078 15.1406 14.1914C15.4102 13.8047 15.7031 13.5234 16.1719 13.5234C17.0391 13.5234 17.3672 14.5664 17.3672 15.4336C17.3672 16.4062 17.0273 17.4023 16.1602 17.4023C15.5039 17.4023 15.1289 16.9336 14.918 16.2891C14.7773 15.9141 14.5195 15.7383 14.2031 15.7383C13.7695 15.7383 13.5 16.0078 13.5 16.4414C13.5 16.7109 13.5703 16.9688 13.6758 17.2031C14.0859 18.1523 15.1172 18.7734 16.1836 18.7734Z" fill="black" fill-opacity="0.85"/>
</svg>
