<svg width="28" height="28" viewBox="0 0 28 28" fill="none" xmlns="http://www.w3.org/2000/svg">
<g clip-path="url(#clip0_2124_88600)">
<path d="M1 14.3281C1 17.3867 2.69922 19.0625 5.91016 19.0625H9.97656C14.0312 19.5312 18.2852 20.8672 21.9648 23.1289V21.043C18.3789 18.8398 14.2422 17.6328 9.90625 17.1758H5.91016C3.76562 17.1758 2.88672 16.3438 2.88672 14.3281V12.6055C2.88672 10.5781 3.76562 9.75781 5.91016 9.75781H9.80078C14.2188 9.3125 18.4492 8.05859 21.9648 5.87891V3.80469C18.4375 6.05469 13.7266 7.47266 10.0469 7.87109H5.91016C2.69922 7.87109 1 9.52344 1 12.6055V14.3281ZM11.8984 18.9102H10.1172L11.1016 23.9023C11.1953 24.4297 10.9258 24.7695 10.5508 24.8984C10.1523 25.0391 9.63672 24.9102 9.36719 24.3477L6.71875 18.6875H4.79688L7.50391 24.6875C8.46484 26.832 10.1289 26.9609 11.2656 26.6094C12.4141 26.2461 13.1172 25.1797 12.8125 23.6211L11.8984 18.9102ZM8.39453 8.76172V18.1719H10.293V8.76172H8.39453ZM21.2969 21.957C21.2969 23.6914 22.4688 24.8516 24.1914 24.8516C25.9375 24.8516 27.0977 23.6914 27.0977 21.957V4.89453C27.0977 3.16016 25.9375 2 24.1914 2C22.4688 2 21.2969 3.16016 21.2969 4.89453V21.957ZM23.1953 21.957V4.89453C23.1953 4.28516 23.582 3.88672 24.1914 3.88672C24.8008 3.88672 25.2109 4.28516 25.2109 4.89453V21.957C25.2109 22.5664 24.8008 22.9648 24.1914 22.9648C23.582 22.9648 23.1953 22.5664 23.1953 21.957Z" fill="black" fill-opacity="0.85"/>
</g>
<defs>
<clipPath id="clip0_2124_88600">
<rect width="26.0977" height="24.7852" fill="white" transform="translate(1 2)"/>
</clipPath>
</defs>
</svg>
