<svg width="28" height="28" viewBox="0 0 28 28" fill="none" xmlns="http://www.w3.org/2000/svg">
<path d="M13.9531 25.9062C20.4922 25.9062 25.9062 20.4805 25.9062 13.9531C25.9062 7.41406 20.4805 2 13.9414 2C7.41406 2 2 7.41406 2 13.9531C2 20.4805 7.42578 25.9062 13.9531 25.9062Z" fill="black" fill-opacity="0.85"/>
<path d="M6.35938 13.9648C6.35938 13.4961 6.69922 13.1562 7.16797 13.1562H12.6992L14.9141 13.2852L12.4531 11.1055L11.7031 10.3672C11.5273 10.2148 11.457 9.99219 11.457 9.76953C11.457 9.3125 11.8203 8.99609 12.2656 8.99609C12.4766 8.99609 12.6875 9.06641 12.8633 9.25391L17.0352 13.3438C17.1992 13.5312 17.3047 13.7305 17.3047 13.9648C17.3047 14.1875 17.2227 14.3984 17.0352 14.5742L12.875 18.6289C12.7109 18.793 12.4531 18.8984 12.2656 18.8984C11.7969 18.8984 11.457 18.582 11.457 18.1133C11.457 17.8672 11.5273 17.668 11.7031 17.5273L12.4648 16.8242L14.9258 14.6445L12.6992 14.7852H7.16797C6.69922 14.7852 6.35938 14.457 6.35938 13.9648ZM19.0273 19.2852C18.5703 19.2852 18.2305 18.957 18.2305 18.4883V9.40625C18.2305 8.9375 18.5703 8.60938 19.0273 8.60938C19.5195 8.60938 19.8594 8.9375 19.8594 9.40625V18.4883C19.8594 18.957 19.5195 19.2852 19.0273 19.2852Z" fill="white"/>
</svg>
