<svg width="28" height="28" viewBox="0 0 28 28" fill="none" xmlns="http://www.w3.org/2000/svg">
<path d="M13.9531 25.918C20.4922 25.918 25.9062 20.5039 25.9062 13.9648C25.9062 7.4375 20.4805 2.01172 13.9414 2.01172C7.41406 2.01172 2 7.4375 2 13.9648C2 20.5039 7.42578 25.918 13.9531 25.918Z" fill="black" fill-opacity="0.85"/>
<path d="M5.1875 15.4297C5.1875 13.543 6.71094 12.043 8.58594 12.043C9.27734 12.043 9.91016 12.2422 10.4492 12.5938L11.3164 11.5859L10.4727 10.0508H9.78125C9.51172 10.0508 9.28906 9.83984 9.28906 9.58203C9.28906 9.28906 9.51172 9.07812 9.78125 9.07812H12.0547C12.3359 9.07812 12.5703 9.30078 12.5703 9.58203C12.5703 9.83984 12.3242 10.0508 12.0547 10.0508H11.5742L12.2891 11.3398L16.8945 10.7422L16.1562 8.91406H14.8086C14.5156 8.91406 14.3047 8.67969 14.3047 8.41016C14.3047 8.14062 14.5273 7.92969 14.8086 7.92969H16.2969C16.6484 7.92969 16.8242 8.03516 16.9531 8.32812L18.5117 12.1484C18.7695 12.0664 19.0625 12.043 19.3438 12.043C21.2188 12.043 22.7422 13.543 22.7422 15.4297C22.7422 17.3047 21.2188 18.8281 19.3438 18.8281C17.4688 18.8281 15.9453 17.3047 15.9453 15.4297C15.9453 14.1758 16.625 13.0977 17.6211 12.5117L17.3047 11.75L14.2461 15.3242C13.9766 15.6172 13.7305 15.7344 13.2383 15.7344H11.9727C11.8086 17.4688 10.3555 18.8281 8.58594 18.8281C6.71094 18.8281 5.1875 17.3047 5.1875 15.4297ZM6.18359 15.4062C6.18359 16.7656 7.26172 17.8203 8.59766 17.8203C9.92188 17.8203 11 16.7656 11 15.4062C11 14.8789 10.8242 14.3867 10.543 13.9883L9.38281 15.2773C9.38281 15.2891 9.39453 15.3594 9.39453 15.418C9.39453 15.8867 9.04297 16.2383 8.59766 16.2383C8.12891 16.2383 7.77734 15.8867 7.77734 15.418C7.77734 14.9727 8.14062 14.5859 8.67969 14.6211L9.79297 13.332C9.44141 13.1328 9.03125 13.0039 8.59766 13.0039C7.26172 13.0039 6.18359 14.082 6.18359 15.4062ZM16.9414 15.4062C16.9414 16.7656 18.0195 17.8203 19.3672 17.8203C20.6914 17.8203 21.7695 16.7656 21.7695 15.4062C21.7695 14.082 20.6914 13.0039 19.3672 13.0039C19.1914 13.0039 19.0391 13.0273 18.8867 13.0625L19.5195 14.6211C19.8828 14.7031 20.1641 15.0195 20.1641 15.418C20.1641 15.8867 19.8125 16.2383 19.3672 16.2383C18.8984 16.2383 18.5469 15.8867 18.5469 15.418C18.5469 15.2891 18.582 15.1602 18.6406 15.0547L17.9844 13.4375C17.3633 13.8711 16.9414 14.5859 16.9414 15.4062ZM12.793 12.2539L13.918 14.2578L16.1445 11.6797L12.793 12.2539ZM11.2109 13.2617C11.5625 13.6953 11.8203 14.2227 11.9258 14.7969H13.1211L11.8672 12.5352L11.2109 13.2617Z" fill="white"/>
</svg>
