<svg width="31" height="28" viewBox="0 0 31 28" fill="none" xmlns="http://www.w3.org/2000/svg">
<path d="M30.3281 14.8737V7.52606C30.3281 5.41669 28.9102 3.987 26.7891 3.987L3.51562 3.99872C1.41797 3.99872 0 5.44012 0 7.56122V14.8737C0 17.9089 1.30078 19.7722 4.42969 20.6979L14.5781 23.6511C17.2969 24.4479 19.043 24.1315 21.4688 22.8776L28.0547 19.4909C29.918 18.53 30.3281 17.3815 30.3281 14.8737Z" fill="black" fill-opacity="0.85"/>
<path d="M9.97266 18.0261C9.42188 18.0261 9.10547 17.6745 9.10547 17.1003V8.97919C9.10547 8.49872 9.50391 8.10028 9.98438 8.10028C10.4648 8.10028 10.8633 8.49872 10.8633 8.97919V16.5378H13.4414C13.8398 16.5378 14.1797 16.8776 14.1797 17.2761C14.1797 17.6862 13.8398 18.0261 13.4414 18.0261H9.97266ZM18.1641 18.2253C16.8633 18.2253 15.6328 17.6042 15.2812 16.4792C15.2227 16.28 15.1875 16.069 15.1875 15.8464C15.1875 15.3659 15.5039 15.0847 15.9727 15.0847C16.3594 15.0847 16.6289 15.2839 16.7461 15.6823C16.8984 16.2214 17.2852 16.8073 18.1641 16.8073C19.0547 16.8073 19.5 16.1042 19.5 15.2722C19.5 14.2175 18.9375 13.6667 17.9062 13.6667H17.6133C17.2031 13.6667 16.9453 13.4206 16.9453 13.0222C16.9453 12.6237 17.1914 12.3776 17.6133 12.3776H17.8945C18.7969 12.3776 19.2891 11.7331 19.2891 10.8542C19.2891 10.0573 18.9141 9.43622 18.1172 9.43622C17.4375 9.43622 17.0508 9.89325 16.8633 10.6081C16.7461 11.0182 16.5117 11.1823 16.0898 11.1823C15.6094 11.1823 15.3398 10.8542 15.3398 10.4675C15.3398 10.2565 15.3633 10.0456 15.4453 9.81122C15.7734 8.74481 16.875 8.04169 18.1172 8.04169C19.6875 8.04169 20.9414 8.9909 20.9414 10.6667C20.9414 11.6745 20.4023 12.6471 19.3125 12.9401V12.987C20.332 13.0925 21.2344 13.8307 21.2344 15.3307C21.2344 17.1354 19.8984 18.2253 18.1641 18.2253Z" fill="white"/>
</svg>
