<svg width="28" height="28" viewBox="0 0 28 28" fill="none" xmlns="http://www.w3.org/2000/svg">
<g clip-path="url(#clip0_2124_24560)">
<path d="M13.9531 25.918C20.4922 25.918 25.9062 20.5039 25.9062 13.9648C25.9062 7.4375 20.4805 2.01172 13.9414 2.01172C7.41406 2.01172 2 7.4375 2 13.9648C2 20.5039 7.42578 25.918 13.9531 25.918ZM13.9531 23.5742C8.62109 23.5742 4.34375 19.2969 4.34375 13.9531C4.34375 8.59766 8.60938 4.33203 13.9414 4.33203C19.2852 4.33203 23.5625 8.59766 23.5742 13.9531C23.5859 19.2852 19.2969 23.5742 13.9531 23.5742ZM13.9531 22.5078C18.7109 22.5078 22.5195 18.6875 22.5078 13.9531C22.4961 9.18359 18.6875 5.39844 13.9414 5.39844C9.19531 5.39844 5.41016 9.19531 5.41016 13.9531C5.41016 18.6992 9.20703 22.5078 13.9531 22.5078ZM14.0586 17.2109C13.3906 17.2109 13.1562 17.5742 12.6172 17.5742C12.0547 17.5742 11.6914 17.082 11.2461 16.4727C10.7539 15.7461 10.332 14.6328 10.332 13.5664C10.332 11.8789 11.4453 10.9648 12.5352 10.9648C13.1094 10.9648 13.5898 11.3516 13.9414 11.3516C14.293 11.3516 14.832 10.9531 15.4883 10.9531C15.7461 10.9531 16.6367 10.9648 17.2227 11.8086C17.1758 11.8672 16.2852 12.3594 16.2852 13.4844C16.2852 14.7852 17.4219 15.2422 17.457 15.2539C17.457 15.2773 17.2812 15.8867 16.8594 16.4961C16.4844 17.0234 16.0742 17.5625 15.4883 17.5625C14.8906 17.5625 14.75 17.2109 14.0586 17.2109ZM15.1836 10.2266C14.8906 10.5898 14.3984 10.8594 14 10.8594C13.9414 10.8594 13.9062 10.8477 13.8711 10.8477C13.8711 10.8242 13.8594 10.7539 13.8594 10.6953C13.8594 10.2266 14.1055 9.79297 14.3398 9.5C14.668 9.125 15.1836 8.85547 15.6289 8.84375C15.6406 8.89062 15.6406 8.94922 15.6406 9.00781C15.6406 9.46484 15.4531 9.89844 15.1836 10.2266Z" fill="black" fill-opacity="0.85"/>
</g>
<defs>
<clipPath id="clip0_2124_24560">
<rect width="23.9062" height="23.918" fill="white" transform="translate(2 2)"/>
</clipPath>
</defs>
</svg>
