<svg width="28" height="28" viewBox="0 0 28 28" fill="none" xmlns="http://www.w3.org/2000/svg">
<g clip-path="url(#clip0_2124_24708)">
<path d="M8.9501 25.1562C9.46573 25.1562 9.86417 24.793 9.8876 24.207L10.1806 18.5117L11.5985 12.5L10.4032 13.4375H17.2235L16.0282 12.5L17.4579 18.5117L17.7392 24.207C17.7743 24.793 18.161 25.1562 18.6884 25.1562C19.204 25.1562 19.661 24.7695 19.6259 24.1367L19.3564 18.418C19.3446 18.2656 19.3329 18.1484 19.286 18.0078L17.786 12.1484C17.7157 11.8555 17.4696 11.668 17.1767 11.668H10.4501C10.1571 11.668 9.92276 11.8555 9.84073 12.1484L8.34073 18.0078C8.29385 18.1484 8.28214 18.2656 8.28214 18.418L8.00089 24.1367C7.97745 24.7695 8.42276 25.1562 8.9501 25.1562Z" fill="black" fill-opacity="0.85"/>
<path d="M10.3213 10.0625H17.2588L14.8096 2.77344C14.6455 2.28125 14.3174 2 13.8135 2C13.2861 2 12.9111 2.28125 12.7471 2.77344L10.3213 10.0625Z" fill="black" fill-opacity="0.85"/>
</g>
<defs>
<clipPath id="clip0_2124_24708">
<rect width="11.6278" height="23.168" fill="white" transform="translate(8 2)"/>
</clipPath>
</defs>
</svg>
