<svg width="28" height="28" viewBox="0 0 28 28" fill="none" xmlns="http://www.w3.org/2000/svg">
<path d="M6.67969 24.5977H20.8945C23.3555 24.5977 24.5742 23.3789 24.5742 20.9648V6.65625C24.5742 4.24219 23.3555 3.02344 20.8945 3.02344H6.67969C4.23047 3.02344 3 4.23047 3 6.65625V20.9648C3 23.3906 4.23047 24.5977 6.67969 24.5977ZM6.70312 22.7109C5.53125 22.7109 4.88672 22.0898 4.88672 20.8711V6.75C4.88672 5.53125 5.53125 4.91016 6.70312 4.91016H20.8711C22.0312 4.91016 22.6875 5.53125 22.6875 6.75V20.8711C22.6875 22.0898 22.0312 22.7109 20.8711 22.7109H6.70312Z" fill="black" fill-opacity="0.85"/>
<path d="M10.3008 18.7383C11.9766 18.7383 13.2773 17.6836 13.2773 15.9258C13.2773 14.4727 12.3984 13.7578 11.4141 13.6523V13.6172C12.4805 13.3359 12.9961 12.3867 12.9961 11.4023C12.9961 9.78516 11.7773 8.85938 10.2539 8.85938C9.04688 8.85938 7.99219 9.53906 7.66406 10.582C7.59375 10.8047 7.57031 11.0156 7.57031 11.2148C7.57031 11.6016 7.82812 11.9062 8.28516 11.9062C8.69531 11.9062 8.91797 11.7539 9.03516 11.3438C9.22266 10.6523 9.59766 10.2188 10.2539 10.2188C11.0273 10.2188 11.4023 10.8164 11.4023 11.5898C11.4023 12.4453 10.9219 13.0664 10.043 13.0664H9.76172C9.36328 13.0664 9.11719 13.3125 9.11719 13.6992C9.11719 14.0859 9.375 14.3086 9.76172 14.3086H10.0547C11.0508 14.3086 11.6016 14.8594 11.6016 15.8789C11.6016 16.6875 11.168 17.3789 10.3008 17.3789C9.44531 17.3789 9.07031 16.8047 8.91797 16.2656C8.8125 15.8906 8.56641 15.6914 8.17969 15.6914C7.72266 15.6914 7.41797 15.9727 7.41797 16.4297C7.41797 16.6406 7.45312 16.8516 7.51172 17.0391C7.85156 18.1289 9.03516 18.7383 10.3008 18.7383ZM15.2695 18.5273H19.3477C19.7578 18.5273 20.0039 18.2578 20.0039 17.8477C20.0039 17.4023 19.7461 17.1562 19.3477 17.1562H16.5586V17.0625L18.2695 14.8945C19.4414 13.4414 19.8281 12.5742 19.8281 11.543C19.8281 9.96094 18.75 8.8125 17.1328 8.8125C15.6328 8.8125 14.4961 10.0547 14.4961 11.2734C14.4961 11.707 14.7539 12.0117 15.1992 12.0117C15.5859 12.0117 15.8203 11.8359 15.9492 11.4492C16.1602 10.6641 16.4531 10.1719 17.1328 10.1719C17.8359 10.1719 18.2344 10.793 18.2344 11.625C18.2344 12.5625 17.5781 13.5117 16.957 14.3086L14.918 16.9102C14.707 17.1914 14.4844 17.4844 14.4844 17.8477C14.4844 18.2461 14.7422 18.5273 15.2695 18.5273Z" fill="black" fill-opacity="0.85"/>
</svg>
