<svg width="28" height="29" viewBox="0 0 28 29" fill="none" xmlns="http://www.w3.org/2000/svg">
<g clip-path="url(#clip0_2124_50168)">
<path d="M2.66016 28.1602H9.92578C11.543 28.1602 12.5859 27.1289 12.5859 25.5469V2.61328C12.5859 1.03125 11.543 0 9.92578 0H2.66016C1.04297 0 0 1.03125 0 2.61328V25.5469C0 27.1289 1.04297 28.1602 2.66016 28.1602ZM2.69531 26.2734C2.19141 26.2734 1.88672 25.957 1.88672 25.4414V2.71875C1.88672 2.20312 2.19141 1.88672 2.69531 1.88672H9.89062C10.3945 1.88672 10.6992 2.20312 10.6992 2.71875V25.4414C10.6992 25.957 10.3945 26.2734 9.89062 26.2734H2.69531ZM8.92969 9.29297C9.25781 9.29297 9.51562 9.02344 9.51562 8.69531V4.06641C9.51562 3.73828 9.25781 3.46875 8.92969 3.46875C8.58984 3.46875 8.33203 3.73828 8.33203 4.06641V8.69531C8.33203 9.02344 8.58984 9.29297 8.92969 9.29297ZM6.51562 9.29297C6.83203 9.29297 7.10156 9.02344 7.10156 8.69531V4.06641C7.10156 3.73828 6.83203 3.46875 6.51562 3.46875C6.17578 3.46875 5.90625 3.73828 5.90625 4.06641V8.69531C5.90625 9.02344 6.17578 9.29297 6.51562 9.29297ZM8.92969 16.9453C9.25781 16.9453 9.51562 16.6875 9.51562 16.3477V11.7188C9.51562 11.3906 9.25781 11.1328 8.92969 11.1328C8.58984 11.1328 8.33203 11.3906 8.33203 11.7188V16.3477C8.33203 16.6875 8.58984 16.9453 8.92969 16.9453ZM6.51562 16.9453C6.83203 16.9453 7.10156 16.6875 7.10156 16.3477V11.7188C7.10156 11.3906 6.83203 11.1328 6.51562 11.1328C6.17578 11.1328 5.90625 11.3906 5.90625 11.7188V16.3477C5.90625 16.6875 6.17578 16.9453 6.51562 16.9453ZM8.92969 24.6211C9.25781 24.6211 9.51562 24.3516 9.51562 24.0352V19.4062C9.51562 19.0664 9.25781 18.8086 8.92969 18.8086C8.58984 18.8086 8.33203 19.0664 8.33203 19.4062V24.0352C8.33203 24.3516 8.58984 24.6211 8.92969 24.6211ZM6.51562 24.6211C6.83203 24.6211 7.10156 24.3516 7.10156 24.0352V19.4062C7.10156 19.0664 6.83203 18.8086 6.51562 18.8086C6.17578 18.8086 5.90625 19.0664 5.90625 19.4062V24.0352C5.90625 24.3516 6.17578 24.6211 6.51562 24.6211Z" fill="black" fill-opacity="0.85"/>
<path d="M17.2139 12.668C20.3429 12.668 21.96 10.125 24.6905 10.125C25.3233 10.125 25.8624 10.2539 26.5303 10.6289C26.9522 10.8633 27.3272 10.6992 27.5147 10.4297C27.7491 10.0898 27.7257 9.57422 27.21 9.28125C26.4366 8.82422 25.5929 8.60156 24.6905 8.60156C21.5147 8.60156 19.8975 11.1562 17.2139 11.1562C16.5811 11.1562 16.0421 11.0156 15.3624 10.6289C14.9639 10.4062 14.5772 10.5586 14.378 10.8633C14.1671 11.1914 14.1905 11.707 14.6827 11.9883C15.4561 12.4688 16.3116 12.668 17.2139 12.668ZM17.2257 16.1133C20.3429 16.1133 21.9718 13.5703 24.6905 13.5703C25.335 13.5703 25.8741 13.6992 26.5421 14.0742C26.9522 14.3086 27.3389 14.1445 27.5264 13.875C27.7491 13.5352 27.7374 13.0195 27.2335 12.7266C26.4483 12.2695 25.5929 12.0469 24.6905 12.0469C21.5264 12.0469 19.9093 14.6016 17.2257 14.6016C16.5811 14.6016 16.0421 14.4609 15.3741 14.0859C14.9757 13.8516 14.5772 14.0039 14.378 14.3086C14.1671 14.6367 14.1905 15.1523 14.6944 15.4336C15.4679 15.9141 16.3233 16.1133 17.2257 16.1133ZM17.2139 19.5586C20.3429 19.5586 21.96 17.0156 24.6905 17.0156C25.3233 17.0156 25.8624 17.1445 26.5303 17.5312C26.9522 17.7656 27.3272 17.5898 27.5147 17.3203C27.7491 16.9805 27.7257 16.4648 27.21 16.1719C26.4366 15.7148 25.5929 15.4922 24.6905 15.4922C21.5147 15.4922 19.8975 18.0469 17.2139 18.0469C16.5811 18.0469 16.0421 17.9062 15.3624 17.5312C14.9639 17.2969 14.5772 17.4492 14.378 17.7539C14.1671 18.082 14.1905 18.6094 14.6827 18.8906C15.4561 19.3594 16.3116 19.5586 17.2139 19.5586Z" fill="black" fill-opacity="0.85"/>
</g>
<defs>
<clipPath id="clip0_2124_50168">
<rect width="27.6656" height="28.1602" fill="white"/>
</clipPath>
</defs>
</svg>
