<svg width="31" height="28" viewBox="0 0 31 28" fill="none" xmlns="http://www.w3.org/2000/svg">
<path d="M17.4932 27.9531C24.9346 27.9531 30.9814 21.9297 30.9814 14.4883C30.9814 7.04688 24.9346 1 17.4932 1C10.0635 1 4.0166 7.04688 4.0166 14.4883C4.0166 21.9297 10.0635 27.9531 17.4932 27.9531ZM17.4932 26.0664C11.0713 26.0664 5.90332 20.9102 5.90332 14.4883C5.90332 8.06641 11.083 2.88672 17.4932 2.88672C23.915 2.88672 29.0947 8.06641 29.0947 14.4883C29.0947 20.9102 23.915 26.0664 17.4932 26.0664Z" fill="black" fill-opacity="0.85"/>
<path d="M3.78223 10.4805L0.981445 12.5664C-0.331055 13.5273 -0.319336 15.4258 0.969727 16.3984L3.79395 18.5195C5.49316 19.7734 7.80176 18.7539 7.80176 16.6094V12.3789C7.80176 10.2578 5.50488 9.20314 3.78223 10.4805Z" fill="white"/>
<path d="M4.74269 11.7578L1.93019 13.8555C1.48488 14.1836 1.4966 14.793 1.93019 15.1211L4.75441 17.2305C5.37551 17.6992 6.20754 17.4414 6.20754 16.6094V12.3789C6.20754 11.5703 5.38723 11.2773 4.74269 11.7578Z" fill="black" fill-opacity="0.85"/>
<path d="M17.4932 23.8398C22.6611 23.8398 26.8564 19.6562 26.8564 14.4883C26.8564 9.30859 22.6611 5.125 17.4932 5.125C12.3252 5.125 8.1416 9.30859 8.1416 14.4883C8.1416 19.6562 12.3252 23.8398 17.4932 23.8398ZM15.7119 19.1172C15.1377 19.1172 14.8213 18.707 14.8213 18.1094V10.7148C14.8213 10.1172 15.1377 9.69531 15.7119 9.69531C16.2861 9.69531 16.6611 10.1055 16.6611 10.7148V17.5703H20.1064C20.54 17.5703 20.9033 17.8984 20.9033 18.3555C20.9033 18.8125 20.54 19.1172 20.1064 19.1172H15.7119Z" fill="black" fill-opacity="0.85"/>
</svg>
