<svg width="28" height="28" viewBox="0 0 28 28" fill="none" xmlns="http://www.w3.org/2000/svg">
<g clip-path="url(#clip0_2124_78053)">
<path d="M13.9531 25.9062C20.4922 25.9062 25.9062 20.4805 25.9062 13.9531C25.9062 7.41406 20.4805 2 13.9414 2C7.41406 2 2 7.41406 2 13.9531C2 20.4805 7.42578 25.9062 13.9531 25.9062Z" fill="black" fill-opacity="0.85"/>
<path d="M13.9297 10.9531C13.1211 10.9531 12.4883 10.3672 12.4883 9.61719C12.4883 8.76172 13.1211 8.15234 13.9297 8.15234C14.8203 8.15234 15.418 8.75 15.418 9.61719C15.418 10.3672 14.8086 10.9531 13.9297 10.9531ZM9.25391 14.9844C8.5625 14.9844 8.10547 14.6211 8.10547 13.9766C8.10547 13.3203 8.53906 12.957 9.25391 12.957H18.6641C19.3672 12.957 19.8008 13.3203 19.8008 13.9766C19.8008 14.6211 19.3438 14.9844 18.6641 14.9844H9.25391ZM13.9297 19.7773C13.1211 19.7773 12.4883 19.1797 12.4883 18.4297C12.4883 17.5742 13.1211 16.9766 13.9297 16.9766C14.8203 16.9766 15.418 17.5742 15.418 18.4297C15.418 19.1797 14.8086 19.7773 13.9297 19.7773Z" fill="white"/>
</g>
<defs>
<clipPath id="clip0_2124_78053">
<rect width="23.9062" height="23.918" fill="white" transform="translate(2 2)"/>
</clipPath>
</defs>
</svg>
