<svg width="28" height="28" viewBox="0 0 28 28" fill="none" xmlns="http://www.w3.org/2000/svg">
<path d="M6.67969 24.5977H20.8945C23.3555 24.5977 24.5742 23.3789 24.5742 20.9648V6.65625C24.5742 4.24219 23.3555 3.02344 20.8945 3.02344H6.67969C4.23047 3.02344 3 4.23047 3 6.65625V20.9648C3 23.3906 4.23047 24.5977 6.67969 24.5977ZM6.70312 22.7109C5.53125 22.7109 4.88672 22.0898 4.88672 20.8711V6.75C4.88672 5.53125 5.53125 4.91016 6.70312 4.91016H20.8711C22.0312 4.91016 22.6875 5.53125 22.6875 6.75V20.8711C22.6875 22.0898 22.0312 22.7109 20.8711 22.7109H6.70312Z" fill="black" fill-opacity="0.85"/>
<path d="M9.23438 19.2305C9.77344 19.2305 10.1016 18.8789 10.1016 18.2695V11.5078H10.1953L12.8906 18.2578C13.0664 18.6797 13.3477 18.8789 13.7812 18.8789C14.2148 18.8789 14.5078 18.6797 14.6719 18.2578L17.3906 11.5078H17.4844V18.2695C17.4844 18.8672 17.8008 19.2305 18.3164 19.2305C18.8672 19.2305 19.1836 18.8789 19.1836 18.2695V9.29297C19.1836 8.64844 18.7266 8.20312 18.082 8.20312C17.5195 8.20312 17.1445 8.46094 16.9336 8.96484L13.8281 16.7578H13.7695L10.6406 8.96484C10.4414 8.46094 10.0664 8.20312 9.50391 8.20312C8.84766 8.20312 8.40234 8.64844 8.40234 9.29297V18.2695C8.40234 18.8672 8.71875 19.2305 9.23438 19.2305Z" fill="black" fill-opacity="0.85"/>
</svg>
