<svg width="29" height="28" viewBox="0 0 29 28" fill="none" xmlns="http://www.w3.org/2000/svg">
<g clip-path="url(#clip0_2124_24599)">
<path d="M3.67969 21.5625H25.0195C27.4688 21.5625 28.6992 20.3438 28.6992 17.9297V9.63281C28.6992 7.21875 27.4688 6 25.0195 6H3.67969C1.21875 6 0 7.20703 0 9.63281V17.9297C0 20.3555 1.21875 21.5625 3.67969 21.5625ZM3.70312 19.6758C2.53125 19.6758 1.88672 19.043 1.88672 17.8359V9.72656C1.88672 8.50781 2.53125 7.88672 3.70312 7.88672H24.9961C26.1562 7.88672 26.8125 8.50781 26.8125 9.72656V17.8359C26.8125 19.043 26.1562 19.6758 24.9961 19.6758H3.70312ZM4.51172 17.9297C4.94531 17.918 5.28516 17.5781 5.28516 17.168V15.2812C5.28516 14.8477 4.93359 14.5078 4.51172 14.5195C4.08984 14.5078 3.75 14.8477 3.75 15.2812V17.1562C3.75 17.5898 4.07812 17.918 4.51172 17.9297ZM7.34766 17.9297C7.78125 17.918 8.10938 17.5781 8.10938 17.168V15.2812C8.10938 14.8477 7.76953 14.5078 7.34766 14.5195C6.92578 14.5078 6.57422 14.8477 6.57422 15.2812V17.1562C6.57422 17.5898 6.91406 17.918 7.34766 17.9297ZM10.3711 16.9922H15.1172C15.5391 16.9922 15.8906 16.6406 15.8906 16.2188C15.8906 15.7969 15.5391 15.457 15.1172 15.457H10.3711C9.94922 15.457 9.59766 15.7969 9.59766 16.2188C9.59766 16.6406 9.94922 16.9922 10.3711 16.9922ZM23.7305 17.6016C24.457 17.5898 25.0781 16.9688 25.0781 16.2305C25.0781 15.4805 24.457 14.8477 23.7305 14.8477C22.9805 14.8477 22.3477 15.4805 22.3477 16.2305C22.3477 16.9688 22.9805 17.6133 23.7305 17.6016Z" fill="black" fill-opacity="0.85"/>
</g>
<defs>
<clipPath id="clip0_2124_24599">
<rect width="28.6992" height="15.6914" fill="white" transform="translate(0 6)"/>
</clipPath>
</defs>
</svg>
