<svg width="28" height="28" viewBox="0 0 28 28" fill="none" xmlns="http://www.w3.org/2000/svg">
<path d="M13.9531 25.9062C20.4922 25.9062 25.9062 20.4805 25.9062 13.9531C25.9062 7.41406 20.4805 2 13.9414 2C7.41406 2 2 7.41406 2 13.9531C2 20.4805 7.42578 25.9062 13.9531 25.9062ZM13.9531 23.9141C8.42188 23.9141 4.00391 19.4844 4.00391 13.9531C4.00391 8.42188 8.41016 3.99219 13.9414 3.99219C19.4727 3.99219 23.9141 8.42188 23.9141 13.9531C23.9141 19.4844 19.4844 23.9141 13.9531 23.9141Z" fill="black" fill-opacity="0.85"/>
<path d="M10.5078 18.8164C10.9766 18.8164 11.3633 18.4297 11.3633 17.9609V10.0156C11.3633 9.41797 10.9883 9.06641 10.3789 9.06641C9.88672 9.06641 9.48828 9.33594 9.20703 9.54688L7.91797 10.543C7.71875 10.707 7.55469 10.9297 7.55469 11.2344C7.55469 11.5977 7.80078 11.8555 8.15234 11.8555C8.33984 11.8555 8.45703 11.7969 8.57422 11.7148L9.65234 10.8477V17.9609C9.65234 18.4297 10.0391 18.8164 10.5078 18.8164ZM17.5039 18.8398C17.9492 18.8398 18.3125 18.5703 18.3125 18.0078V16.8359H18.7227C19.1797 16.8359 19.3906 16.543 19.3906 16.1445C19.3906 15.7695 19.1914 15.4766 18.7227 15.4766H18.3125V10.332C18.3125 9.52344 17.7734 9.06641 17.0117 9.06641C16.1914 9.06641 15.8047 9.48828 15.4648 10.2148L13.3789 14.7617C13.1797 15.2188 13.1094 15.5234 13.1094 15.8867C13.1094 16.4492 13.5078 16.8359 14.0703 16.8359H16.6953V18.0078C16.6953 18.6289 17.1406 18.8398 17.5039 18.8398ZM16.7305 15.5117H14.5508V15.4297L16.6836 10.543H16.7305V15.5117Z" fill="black" fill-opacity="0.85"/>
</svg>
