<svg width="29" height="28" viewBox="0 0 29 28" fill="none" xmlns="http://www.w3.org/2000/svg">
<path d="M8.92969 21.6914L8.13281 20.543C7.39453 20.9883 6.52734 21.2227 5.57812 21.2227C3.57422 21.2227 2.20312 20.1445 2.20312 18.5039C2.20312 16.9102 3.49219 15.8906 5.80078 15.7383L6.65625 15.6797L6.30469 13.9805L5.54297 14.0508C1.99219 14.3555 0 15.9023 0 18.5273C0 21.2461 2.07422 23.0742 5.10938 23.0742C6.53906 23.0742 7.89844 22.5469 8.92969 21.6914ZM7.94531 9.23438L9.10547 7.54688C8.36719 7.28906 7.54688 7.16016 6.60938 7.16016C4.00781 7.16016 1.82812 8.36719 0.996094 10.1484C0.820312 10.5 0.714844 10.8633 0.714844 11.1562C0.714844 11.7539 1.11328 12.1406 1.67578 12.1406C2.09766 12.1406 2.39062 11.9648 2.57812 11.5781C3.375 9.82031 4.67578 9.07031 6.5625 9.07031C7.06641 9.07031 7.53516 9.12891 7.94531 9.23438Z" fill="black" fill-opacity="0.85"/>
<path d="M16.875 25.7109C23.0742 25.7109 28.2305 20.5547 28.2305 14.3555C28.2305 8.15625 23.0625 3 16.8633 3C10.6641 3 5.51953 8.15625 5.51953 14.3555C5.51953 20.5547 10.6758 25.7109 16.875 25.7109Z" fill="white"/>
<path d="M16.875 25.7109C23.0742 25.7109 28.2305 20.5547 28.2305 14.3555C28.2305 8.15625 23.0625 3 16.8633 3C10.6641 3 5.51953 8.15625 5.51953 14.3555C5.51953 20.5547 10.6758 25.7109 16.875 25.7109ZM16.875 23.8008C11.6133 23.8008 7.44141 19.6172 7.44141 14.3555C7.44141 9.09375 11.6016 4.89844 16.8633 4.89844C22.125 4.89844 26.3086 9.09375 26.332 14.3555C26.3438 19.6172 22.1367 23.8008 16.875 23.8008ZM17.5547 24.6562L20.0625 24.6328V11.1797C20.0625 7.74609 17.918 5.41406 14.2969 4.91016C13.8398 4.85156 13.3594 4.81641 12.8789 4.80469L10.3477 7.38281C11.0391 7.18359 11.7891 7.07812 12.6914 7.07812C15.6562 7.07812 17.4141 8.70703 17.4141 11.4492V13.1719L11.3906 13.5352C9.64453 13.6523 8.19141 14.0391 7.08984 14.6836L7.57031 17.4258C8.28516 16.3594 9.72656 15.7266 11.7188 15.5859L17.4141 15.2109V17.2734C17.4141 20.1211 15.1172 22.3828 12.0703 22.6641L14.0039 24.3164C15.5391 23.7188 16.7695 22.7109 17.4023 21.457H17.5547V24.6562Z" fill="black" fill-opacity="0.85"/>
</svg>
