<svg width="28" height="32" viewBox="0 0 28 32" fill="none" xmlns="http://www.w3.org/2000/svg">
<g clip-path="url(#clip0_2124_67778)">
<path d="M8.23438 25.7578H19.1328C21.1836 25.7578 22.3672 24.5391 22.3672 22.4648V5.73047C22.3672 3.64453 21.1836 2.4375 19.1328 2.4375H16.0391V2.34375C16.0391 0.960938 15.0898 0.0117188 13.6836 0C12.2773 0.0117188 11.3281 0.960938 11.3281 2.34375V2.4375H8.23438C6.18359 2.4375 5 3.64453 5 5.73047V22.4648C5 24.5391 6.18359 25.7578 8.23438 25.7578ZM8.32812 23.8125C7.44922 23.8125 6.95703 23.3086 6.95703 22.4414V5.75391C6.95703 4.88672 7.44922 4.38281 8.32812 4.38281H19.0391C19.918 4.38281 20.4102 4.88672 20.4102 5.75391V22.4414C20.4102 23.3086 19.918 23.8125 19.0391 23.8125H8.32812ZM13.6836 3.23438C13.2031 3.23438 12.8281 2.84766 12.8281 2.36719C12.8281 1.89844 13.2031 1.51172 13.6836 1.51172C14.1641 1.51172 14.5391 1.89844 14.5391 2.36719C14.5391 2.84766 14.1641 3.23438 13.6836 3.23438ZM16.4141 30.9141H21.5234C21.9922 30.9141 22.3672 30.5391 22.3672 30.0703C22.3672 29.5898 21.9922 29.2031 21.5234 29.2031H16.4141C15.0664 29.2031 14.375 28.6406 14.375 27.293V24.4688H12.6641V27.293C12.6641 29.5898 14.1172 30.9141 16.4141 30.9141Z" fill="black" fill-opacity="0.85"/>
<path d="M9.79297 22.1602H17.5977C18.3125 22.1602 18.7812 21.7031 18.7812 21V8.37891C18.7812 7.67578 18.3125 7.21875 17.5977 7.21875H9.79297C9.07812 7.21875 8.60938 7.67578 8.60938 8.37891V21C8.60938 21.7031 9.07812 22.1602 9.79297 22.1602Z" fill="black" fill-opacity="0.85"/>
<path d="M12.2422 19.8633C11.8906 19.8633 11.668 19.6172 11.668 19.3008C11.668 18.9727 11.8906 18.7148 12.2422 18.7148H15.1484C15.4883 18.7148 15.7227 18.9727 15.7227 19.3008C15.7227 19.6172 15.4883 19.8633 15.1484 19.8633H12.2422ZM11.3516 17.4141C11 17.4141 10.7656 17.168 10.7656 16.8398C10.7656 16.5234 11 16.2656 11.3516 16.2656H16.0742C16.4023 16.2656 16.6484 16.5234 16.6484 16.8398C16.6484 17.168 16.4023 17.4141 16.0742 17.4141H11.3516ZM13.6836 14.6367C12.6758 14.6367 11.832 13.8516 11.832 12.8203C11.832 12.2578 12.125 11.6953 12.4063 11.1914L13.3555 9.43361C13.5547 9.05861 13.8125 9.0469 14.0117 9.43361L14.9609 11.1914C15.2422 11.6953 15.5352 12.2578 15.5352 12.8203C15.5352 13.8516 14.7031 14.6367 13.6836 14.6367Z" fill="white"/>
</g>
<defs>
<clipPath id="clip0_2124_67778">
<rect width="17.3672" height="31.1133" fill="white" transform="translate(5)"/>
</clipPath>
</defs>
</svg>
