<svg width="30" height="28" viewBox="0 0 30 28" fill="none" xmlns="http://www.w3.org/2000/svg">
<g clip-path="url(#clip0_2124_24581)">
<path d="M4.93359 19.332C5.4375 19.332 5.83594 18.9219 5.83594 18.4062V9.74609C5.83594 9.25391 5.4375 8.84375 4.93359 8.84375C4.41797 8.84375 4.01953 9.25391 4.01953 9.74609V18.4062C4.01953 18.9219 4.41797 19.332 4.93359 19.332ZM8.60156 18.6289C9.12891 18.6289 9.55078 18.1953 9.55078 17.668C9.55078 17.1523 9.12891 16.707 8.60156 16.707C8.08594 16.707 7.64062 17.1523 7.64062 17.668C7.64062 18.1953 8.08594 18.6289 8.60156 18.6289ZM11.7539 18.6289C12.2695 18.6289 12.7031 18.1953 12.7031 17.668C12.7031 17.1523 12.2695 16.707 11.7539 16.707C11.2266 16.707 10.793 17.1523 10.793 17.668C10.793 18.1953 11.2266 18.6289 11.7539 18.6289ZM14.9062 18.6289C15.4219 18.6289 15.8555 18.1953 15.8555 17.668C15.8555 17.1523 15.4219 16.707 14.9062 16.707C14.3789 16.707 13.9453 17.1523 13.9453 17.668C13.9453 18.1953 14.3789 18.6289 14.9062 18.6289ZM18.0469 18.6289C18.5508 18.6289 18.9844 18.1953 18.9844 17.668C18.9844 17.1523 18.5508 16.707 18.0469 16.707C17.5195 16.707 17.0977 17.1523 17.0977 17.668C17.0977 18.1953 17.5195 18.6289 18.0469 18.6289ZM21.1758 18.6289C21.6914 18.6289 22.125 18.1953 22.125 17.668C22.125 17.1523 21.6914 16.707 21.1758 16.707C20.6484 16.707 20.2266 17.1523 20.2266 17.668C20.2266 18.1953 20.6484 18.6289 21.1758 18.6289ZM10.1719 15.043C10.6992 15.043 11.1211 14.6094 11.1211 14.082C11.1211 13.5547 10.6992 13.1211 10.1719 13.1211C9.65625 13.1211 9.22266 13.5547 9.22266 14.082C9.22266 14.6094 9.65625 15.043 10.1719 15.043ZM13.3242 15.043C13.8516 15.043 14.2734 14.6094 14.2734 14.082C14.2734 13.5547 13.8516 13.1211 13.3242 13.1211C12.7969 13.1211 12.3633 13.5547 12.3633 14.082C12.3633 14.6094 12.7969 15.043 13.3242 15.043ZM16.4648 15.043C16.9805 15.043 17.4141 14.6094 17.4141 14.082C17.4141 13.5547 16.9805 13.1211 16.4648 13.1211C15.9492 13.1211 15.5156 13.5547 15.5156 14.082C15.5156 14.6094 15.9492 15.043 16.4648 15.043ZM19.6055 15.043C20.1094 15.043 20.543 14.6094 20.543 14.082C20.543 13.5547 20.1094 13.1211 19.6055 13.1211C19.0781 13.1211 18.6562 13.5547 18.6562 14.082C18.6562 14.6094 19.0781 15.043 19.6055 15.043ZM8.60156 11.457C9.12891 11.457 9.55078 11.0234 9.55078 10.5078C9.55078 9.98047 9.12891 9.54688 8.60156 9.54688C8.08594 9.54688 7.64062 9.98047 7.64062 10.5078C7.64062 11.0234 8.08594 11.457 8.60156 11.457ZM11.7539 11.457C12.2695 11.457 12.7031 11.0234 12.7031 10.5078C12.7031 9.98047 12.2695 9.54688 11.7539 9.54688C11.2266 9.54688 10.793 9.98047 10.793 10.5078C10.793 11.0234 11.2266 11.457 11.7539 11.457ZM14.9062 11.457C15.4219 11.457 15.8555 11.0234 15.8555 10.5078C15.8555 9.98047 15.4219 9.54688 14.9062 9.54688C14.3789 9.54688 13.9453 9.98047 13.9453 10.5078C13.9453 11.0234 14.3789 11.457 14.9062 11.457ZM18.0469 11.457C18.5508 11.457 18.9844 11.0234 18.9844 10.5078C18.9844 9.98047 18.5508 9.54688 18.0469 9.54688C17.5195 9.54688 17.0977 9.98047 17.0977 10.5078C17.0977 11.0234 17.5195 11.457 18.0469 11.457ZM21.1758 11.457C21.6914 11.457 22.125 11.0234 22.125 10.5078C22.125 9.98047 21.6914 9.54688 21.1758 9.54688C20.6484 9.54688 20.2266 9.98047 20.2266 10.5078C20.2266 11.0234 20.6484 11.457 21.1758 11.457ZM24.8438 19.332C25.3477 19.332 25.7578 18.9219 25.7578 18.4062V9.74609C25.7578 9.25391 25.3477 8.84375 24.8438 8.84375C24.3398 8.84375 23.9297 9.25391 23.9297 9.74609V18.4062C23.9297 18.9219 24.3398 19.332 24.8438 19.332ZM3.67969 23.1992H26.1328C28.582 23.1992 29.8125 21.9805 29.8125 19.5664V8.63281C29.8125 6.21875 28.582 5 26.1328 5H3.67969C1.21875 5 0 6.21875 0 8.63281V19.5664C0 21.9805 1.21875 23.1992 3.67969 23.1992ZM3.70312 21.3125C2.53125 21.3125 1.88672 20.6797 1.88672 19.4609V8.73828C1.88672 7.51953 2.53125 6.88672 3.70312 6.88672H26.1094C27.2812 6.88672 27.9258 7.51953 27.9258 8.73828V19.4609C27.9258 20.6797 27.2695 21.3125 26.1094 21.3125H3.70312Z" fill="black" fill-opacity="0.85"/>
</g>
<defs>
<clipPath id="clip0_2124_24581">
<rect width="29.8125" height="18.2227" fill="white" transform="translate(0 5)"/>
</clipPath>
</defs>
</svg>
