<svg width="28" height="28" viewBox="0 0 28 28" fill="none" xmlns="http://www.w3.org/2000/svg">
<g clip-path="url(#clip0_2124_24579)">
<path d="M5 22.2773C5 25.7227 8.16406 27.7617 13.5195 27.7617C18.875 27.7617 22.0391 25.7227 22.0391 22.2773V5.49609C22.0391 4.13672 21.5469 3.03516 20.7266 2.26172C20.3047 1.81641 19.7773 1.80469 19.543 2.22656C18.9336 3.57422 16.3906 4.38281 13.5195 4.38281C10.6484 4.38281 8.09375 3.57422 7.48438 2.22656C7.25 1.80469 6.72266 1.81641 6.3125 2.26172C5.49219 3.03516 5 4.13672 5 5.49609V22.2773ZM13.5195 3.02344C16.1914 3.02344 18.3594 2.35547 18.3594 1.51172C18.3594 0.691406 16.1914 0.0117188 13.5195 0.0117188C10.8477 0.0117188 8.67969 0.691406 8.67969 1.51172C8.67969 2.35547 10.8477 3.02344 13.5195 3.02344Z" fill="black" fill-opacity="0.85"/>
</g>
<defs>
<clipPath id="clip0_2124_24579">
<rect width="17.0391" height="27.7617" fill="white" transform="translate(5)"/>
</clipPath>
</defs>
</svg>
