<svg width="28" height="28" viewBox="0 0 28 28" fill="none" xmlns="http://www.w3.org/2000/svg">
<path d="M13.9531 25.918C20.4922 25.918 25.9062 20.5039 25.9062 13.9648C25.9062 7.4375 20.4805 2.01172 13.9414 2.01172C7.41406 2.01172 2 7.4375 2 13.9648C2 20.5039 7.42578 25.918 13.9531 25.918Z" fill="black" fill-opacity="0.85"/>
<path d="M11.9258 18.0547C10.8359 18.0547 10.2031 17.5508 10.0625 16.5898L9.11328 9.91016H7.23828C6.86328 9.91016 6.60547 9.65234 6.60547 9.27734C6.60547 8.89062 6.86328 8.63281 7.23828 8.63281H9.28906C9.83984 8.63281 10.2734 8.98438 10.3437 9.5L10.4492 10.3086H20.2227C20.5742 10.3086 20.7852 10.5195 20.7852 10.8125C20.7852 10.8594 20.7734 10.9648 20.75 11.0352L20.2695 14.3164C20.1406 15.1953 19.6836 15.7344 18.7812 15.7344H11.2461L11.293 16.1914C11.3398 16.5664 11.5859 16.7891 11.9492 16.7891H18.5C18.875 16.7891 19.1211 17.0352 19.1211 17.4102C19.1211 17.8086 18.875 18.0547 18.5 18.0547H11.9258ZM12.1133 21.0195C11.5156 21.0195 11.0352 20.5508 11.0352 19.9414C11.0352 19.3203 11.5156 18.8516 12.1133 18.8516C12.7227 18.8516 13.2031 19.3203 13.2031 19.9414C13.2031 20.5508 12.7227 21.0195 12.1133 21.0195ZM17.5156 21.0195C16.918 21.0195 16.4141 20.5508 16.4141 19.9414C16.4141 19.3203 16.918 18.8516 17.5156 18.8516C18.125 18.8516 18.6055 19.3203 18.6055 19.9414C18.6055 20.5508 18.125 21.0195 17.5156 21.0195Z" fill="white"/>
</svg>
