<svg width="28" height="28" viewBox="0 0 28 28" fill="none" xmlns="http://www.w3.org/2000/svg">
<path d="M1.19649 21.8398C2.22774 25.6602 3.29414 26.8203 5.70821 26.8203H19.6184C21.3527 26.8203 22.5129 25.8828 22.9465 24.125L27.3527 6.24219C27.9973 3.64062 26.7785 2 24.4934 2C21.7395 2 19.5129 4.61328 20.5793 8.25781L20.802 7.12109C18.0715 9.05469 16.6301 13.2148 17.0051 18.1953L17.5441 17.5039C14.9895 17.0586 12.0129 16.8125 9.05977 16.8125C2.79024 16.8125 0.235549 18.3359 1.19649 21.8398ZM3.00117 21.3359C2.48555 19.4609 3.91524 18.6992 9.05977 18.6992C13.2316 18.6992 16.2316 19.2617 17.5676 19.3555C18.2824 19.3672 18.7277 18.9102 18.716 18.1953C18.634 13.7891 19.7941 10.2383 21.8449 8.70312C22.2902 8.33984 22.384 8.10547 22.2551 7.30859C21.9387 5.10547 23.1574 3.88672 24.4934 3.88672C25.3605 3.88672 25.8293 4.60156 25.548 5.75L21.1066 23.668C20.9074 24.4883 20.4035 24.9336 19.6184 24.9336H5.70821C4.39571 24.9336 3.85664 24.5117 3.00117 21.3359Z" fill="black" fill-opacity="0.85"/>
<path d="M6.63379 12.8398C8.7666 12.8398 10.208 11.7148 10.208 10.0273C10.208 8.82031 9.30566 7.85938 8.06347 7.70703C9.07129 7.54297 9.87988 6.60547 9.87988 5.51562C9.87988 4.07422 8.56738 3.01953 6.71582 3.01953C5.04004 3.01953 3.77441 3.80469 3.48144 5.05859C3.44629 5.19922 3.43457 5.29297 3.43457 5.46875C3.43457 5.86719 3.72754 6.16016 4.17285 6.16016C4.53613 6.16016 4.77051 5.98438 4.89941 5.60938C5.13379 4.82422 5.80176 4.37891 6.69238 4.37891C7.67676 4.37891 8.30957 4.87109 8.30957 5.67969C8.30957 6.51172 7.59472 7.12109 6.64551 7.12109H6.00097C5.62597 7.12109 5.33301 7.37891 5.33301 7.77734C5.33301 8.16406 5.61426 8.44531 6.00097 8.44531H6.71582C7.85254 8.44531 8.63769 9.05469 8.63769 9.96875C8.63769 10.8594 7.84082 11.4688 6.65722 11.4688C5.68457 11.4688 4.99316 11.0352 4.71191 10.2383C4.57129 9.875 4.33691 9.71094 3.98535 9.71094C3.55176 9.71094 3.24707 10.0039 3.24707 10.4258C3.24707 10.5781 3.25879 10.6484 3.29394 10.7891C3.56347 11.9961 4.95801 12.8398 6.63379 12.8398Z" fill="black" fill-opacity="0.85"/>
</svg>
