<svg width="28" height="29" viewBox="0 0 28 29" fill="none" xmlns="http://www.w3.org/2000/svg">
<g clip-path="url(#clip0_2124_24866)">
<path d="M14.3671 1.94531C16.8983 1.94531 19.1835 2.82422 20.9296 4.39453C21.4101 4.82812 21.9608 4.93359 22.3827 4.57031C22.828 4.18359 22.828 3.53906 22.3241 3.08203C20.2147 1.13672 17.4022 0.0351562 14.3671 0.0351562C11.3319 0.0351562 8.51939 1.13672 6.41002 3.08203C5.91783 3.53906 5.91783 4.18359 6.35142 4.57031C6.78502 4.93359 7.32408 4.82812 7.80455 4.39453C9.55064 2.82422 11.8475 1.94531 14.3671 1.94531Z" fill="black" fill-opacity="0.85"/>
<path d="M14.3906 6.64453C15.6094 6.64453 16.7344 6.99609 17.6133 7.69922C18.1172 8.0625 18.6445 8.22656 19.0664 7.85156C19.5 7.46484 19.5117 6.76172 18.9844 6.33984C17.7188 5.32031 16.1133 4.73438 14.3906 4.73438C12.668 4.73438 11.0625 5.32031 9.79686 6.33984C9.25779 6.76172 9.26951 7.46484 9.71482 7.85156C10.1367 8.22656 10.6523 8.0625 11.168 7.69922C12.0703 7.01953 13.1719 6.64453 14.3906 6.64453Z" fill="black" fill-opacity="0.85"/>
<path d="M14.4141 25.6172C17.6836 25.6172 21.9023 25.4531 23.6836 25.2422C25.0547 25.0898 25.8398 24.3281 25.8398 23.0156V21.2578C25.8398 19.6406 25.5 18.6797 24.6094 17.543L23.8359 16.5586C23.4844 14.8594 22.8633 13.0898 22.5352 12.3984C22.0078 11.2734 20.9648 10.6055 19.6641 10.4414C19.0312 10.3477 16.957 10.3008 14.4141 10.3008C11.8711 10.3008 9.80859 10.3594 9.17578 10.4414C7.875 10.5938 6.83203 11.2734 6.30469 12.3984C5.96484 13.0898 5.35547 14.8594 4.99219 16.5586L4.23047 17.543C3.32812 18.6797 3 19.6406 3 21.2578V23.0156C3 24.3281 3.78516 25.0898 5.15625 25.2422C6.9375 25.4531 11.1562 25.6172 14.4141 25.6172ZM14.4141 24.0234C11.1211 24.0234 7.01953 23.8828 5.51953 23.6953C4.80469 23.6016 4.59375 23.3086 4.59375 22.6406V21.2578C4.59375 20.0039 4.76953 19.4414 5.48438 18.5156L6.46875 17.2266C6.71484 15.8789 7.34766 13.9688 7.73438 13.1133C8.02734 12.4922 8.54297 12.1406 9.35156 12.0469C9.96094 11.9766 11.8477 11.8828 14.4141 11.8828C16.9922 11.8828 18.9258 11.9766 19.4531 12.0469C20.2969 12.1523 20.8125 12.5039 21.1055 13.1133C21.5039 13.9688 22.1133 15.8789 22.3594 17.2266L23.3555 18.5156C24.0703 19.4414 24.2461 20.0039 24.2461 21.2578V22.6406C24.2461 23.3086 24.0352 23.6133 23.3203 23.6953C21.8203 23.8711 17.7188 24.0234 14.4141 24.0234ZM7.59375 16.3945C7.52344 16.7227 7.65234 16.8633 8.01562 16.8281C9.51562 16.7227 11.3086 16.6406 14.4141 16.6406C17.5195 16.6406 19.3242 16.7227 20.8242 16.8281C21.1758 16.8633 21.3164 16.7227 21.2461 16.3945C21.0117 15.3867 20.5898 14.1094 20.2852 13.5703C20.0391 13.1484 19.7695 12.9727 19.2773 12.9023C18.5859 12.8086 17.0508 12.7383 14.4141 12.7383C11.7891 12.7383 10.2422 12.8086 9.55078 12.9023C9.07031 12.9727 8.78906 13.1484 8.55469 13.5703C8.26172 14.1094 7.82812 15.3867 7.59375 16.3945ZM7.52344 22.8047C8.39062 22.8047 9.03516 22.1367 9.03516 21.2812C9.03516 20.4141 8.39062 19.7695 7.52344 19.7695C6.66797 19.7695 6.01172 20.4141 6.01172 21.2812C6.01172 22.1367 6.66797 22.8047 7.52344 22.8047ZM11.8242 22.4297H17.0039C17.6602 22.4297 18.1055 21.9844 18.1055 21.3281C18.1055 20.6953 17.6602 20.25 17.0039 20.25H11.8242C11.1797 20.25 10.7344 20.6953 10.7344 21.3281C10.7344 21.9844 11.1797 22.4297 11.8242 22.4297ZM21.3047 22.8047C22.1719 22.8047 22.8281 22.1367 22.8281 21.2812C22.8281 20.4141 22.1719 19.7695 21.3047 19.7695C20.4492 19.7695 19.8047 20.4141 19.8047 21.2812C19.8047 22.1367 20.4492 22.8047 21.3047 22.8047ZM4.91016 28.1367H6.04688C6.75 28.1367 7.30078 27.5859 7.30078 26.8945V24.6328L3.67969 24.1055V26.8945C3.67969 27.5859 4.21875 28.1367 4.91016 28.1367ZM22.7695 28.1367H23.9062C24.6094 28.1367 25.1367 27.5859 25.1367 26.8945V24.1055L21.5156 24.6328V26.8945C21.5156 27.5859 22.0664 28.1367 22.7695 28.1367Z" fill="black" fill-opacity="0.85"/>
</g>
<defs>
<clipPath id="clip0_2124_24866">
<rect width="22.8398" height="28.1367" fill="white" transform="translate(3)"/>
</clipPath>
</defs>
</svg>
