<svg width="28" height="28" viewBox="0 0 28 28" fill="none" xmlns="http://www.w3.org/2000/svg">
<path d="M13.9531 25.9062C20.4922 25.9062 25.9062 20.4805 25.9062 13.9531C25.9062 7.41406 20.4805 2 13.9414 2C7.41406 2 2 7.41406 2 13.9531C2 20.4805 7.42578 25.9062 13.9531 25.9062Z" fill="black" fill-opacity="0.85"/>
<path d="M11.3633 19.4961C10.7422 19.4961 10.4023 19.0391 10.4023 18.3945V9.42969C10.4023 8.77344 10.7305 8.32812 11.3516 8.32812H14.7266C17.0703 8.32812 18.6641 9.82812 18.6641 12.0547C18.6641 14.2812 17.082 15.7578 14.7148 15.7578H12.3477V18.3945C12.3477 19.0625 12.0078 19.4961 11.3633 19.4961ZM12.3477 14.2812H14.457C15.875 14.2812 16.7422 13.4258 16.7422 12.0547C16.7422 10.6719 15.8633 9.81641 14.457 9.81641H12.3477V14.2812Z" fill="white"/>
</svg>
