<svg width="28" height="28" viewBox="0 0 28 28" fill="none" xmlns="http://www.w3.org/2000/svg">
<g clip-path="url(#clip0_2124_62631)">
<path d="M22.7148 24.5977C25.1641 24.5977 26.3945 23.3906 26.3945 20.9648V6.65625C26.3945 4.23047 25.1641 3.02344 22.7148 3.02344H12.5312C11.1602 3.02344 9.97656 3.375 9.01562 4.39453L2.11328 11.5664C1.35156 12.3516 1 13.0547 1 13.793C1 14.5195 1.33984 15.2344 2.11328 16.0195L9.02734 23.1562C10 24.1641 11.1719 24.5859 12.543 24.5859L22.7148 24.5977Z" fill="black" fill-opacity="0.85"/>
<path d="M11.9102 18.7266C11.3711 18.7266 10.9375 18.293 10.9375 17.7422C10.9375 17.4844 11.043 17.25 11.2188 17.0625L14.4766 13.8164L11.2188 10.5586C11.043 10.3711 10.9375 10.1367 10.9375 9.87891C10.9375 9.33984 11.3711 8.91797 11.9102 8.91797C12.1797 8.91797 12.3906 9.02344 12.5781 9.19922L15.8477 12.457L19.1406 9.1875C19.3398 8.98828 19.5508 8.89453 19.8086 8.89453C20.3477 8.89453 20.7695 9.32812 20.7695 9.85547C20.7695 10.125 20.6992 10.3359 20.4883 10.5469L17.2305 13.8164L20.4766 17.0508C20.6758 17.2383 20.7578 17.4727 20.7578 17.7422C20.7578 18.293 20.3359 18.7266 19.7852 18.7266C19.5156 18.7266 19.2695 18.6211 19.0938 18.4453L15.8477 15.1758L12.6133 18.4453C12.4258 18.6211 12.1797 18.7266 11.9102 18.7266Z" fill="white"/>
</g>
<defs>
<clipPath id="clip0_2124_62631">
<rect width="25.3945" height="21.5977" fill="white" transform="translate(1 3)"/>
</clipPath>
</defs>
</svg>
