<svg width="28" height="28" viewBox="0 0 28 28" fill="none" xmlns="http://www.w3.org/2000/svg">
<path d="M6.67969 24.5977H20.8945C23.3555 24.5977 24.5742 23.3789 24.5742 20.9648V6.65625C24.5742 4.24219 23.3555 3.02344 20.8945 3.02344H6.67969C4.23047 3.02344 3 4.23047 3 6.65625V20.9648C3 23.3906 4.23047 24.5977 6.67969 24.5977Z" fill="black" fill-opacity="0.85"/>
<path d="M11.0859 18.8086C10.5938 18.8086 10.1953 18.4102 10.1953 17.918V10.5937L9.09375 11.4844C8.96484 11.5781 8.84766 11.6367 8.66016 11.6367C8.29688 11.6367 8.03906 11.3672 8.03906 10.9922C8.03906 10.6758 8.20312 10.4414 8.41406 10.2773L9.73828 9.24609C10.0313 9.03516 10.4414 8.75391 10.957 8.75391C11.5781 8.75391 11.9648 9.11719 11.9648 9.73828V17.918C11.9648 18.4102 11.5664 18.8086 11.0859 18.8086ZM15.4688 18.8438C14.8945 18.8438 14.6719 18.4453 14.6719 18.0938C14.6719 17.8008 14.707 17.6484 14.8125 17.3789L17.4961 10.4531V10.3477H14.3906C13.9805 10.3477 13.6875 10.043 13.6875 9.62109C13.6875 9.21094 13.9805 8.90625 14.3906 8.90625H18.293C18.832 8.90625 19.2656 9.28125 19.2656 9.84375C19.2656 10.1953 19.1719 10.4883 19.043 10.8633L16.2891 18.2227C16.1133 18.668 15.9258 18.8438 15.4688 18.8438Z" fill="white"/>
</svg>
