<svg width="34" height="29" viewBox="0 0 34 29" fill="none" xmlns="http://www.w3.org/2000/svg">
<g clip-path="url(#clip0_2124_45992)">
<path d="M9.0664 20.4431C12.2187 20.4431 14.914 19.4118 16.6016 17.5603C18.289 19.4118 20.9844 20.4431 24.1367 20.4431C29.2344 20.4431 33.1953 17.3493 33.1953 13.365C33.1953 11.7009 32.5039 10.7166 31.2851 10.7166C30.7812 10.7166 30.3476 10.9275 29.9492 11.3611C29.457 11.9001 28.707 12.2751 27.8516 12.2751C24.9101 12.2751 24.2305 8.23218 19.414 8.23218C18.3359 8.23218 17.375 8.53687 16.6016 9.08765C15.8281 8.53687 14.8672 8.23218 13.789 8.23218C8.97265 8.23218 8.29297 12.2751 5.35156 12.2751C4.49609 12.2751 3.74609 11.9001 3.2539 11.3611C2.85547 10.9275 2.42187 10.7166 1.91797 10.7166C0.699218 10.7166 0.0078125 11.7009 0.0078125 13.365C0.0078125 17.3493 3.96875 20.4431 9.0664 20.4431ZM9.0664 18.5563C5.03515 18.5563 1.89453 16.2595 1.89453 13.3533C1.89453 13.0251 2.1875 13.0017 2.375 13.1306C3.07812 13.7986 4.20312 14.1619 5.35156 14.1619C7.40234 14.1619 8.76172 13.0134 9.92187 12.0173C11.1172 11.0095 12.125 10.1189 13.789 10.1189C14.9023 10.1189 15.7695 10.6111 16.2148 11.4197C16.3906 11.7595 16.8125 11.7712 16.9766 11.4197C17.4219 10.6111 18.3008 10.1189 19.414 10.1189C21.0781 10.1189 22.0859 11.0095 23.2812 12.0173C24.4414 13.0134 25.8008 14.1619 27.8516 14.1619C29 14.1619 30.125 13.7869 30.8633 13.0837C31.0625 12.9431 31.3086 12.9548 31.3086 13.3533C31.3086 16.2595 28.168 18.5563 24.1367 18.5563C20.6562 18.5563 18.0547 17.1618 17.0703 14.9001C16.8828 14.4666 16.3203 14.4548 16.1328 14.9001C15.1601 17.1618 12.5586 18.5563 9.0664 18.5563Z" fill="black" fill-opacity="0.85"/>
</g>
<defs>
<clipPath id="clip0_2124_45992">
<rect width="33.1875" height="13.418" fill="white" transform="translate(0.0078125 7.02515)"/>
</clipPath>
</defs>
</svg>
