<svg width="28" height="28" viewBox="0 0 28 28" fill="none" xmlns="http://www.w3.org/2000/svg">
<path d="M13.9531 25.9062C20.4922 25.9062 25.9062 20.4805 25.9062 13.9531C25.9062 7.41406 20.4805 2 13.9414 2C7.41406 2 2 7.41406 2 13.9531C2 20.4805 7.42578 25.9062 13.9531 25.9062ZM13.9531 23.9141C8.42188 23.9141 4.00391 19.4844 4.00391 13.9531C4.00391 8.42188 8.41016 3.99219 13.9414 3.99219C19.4727 3.99219 23.9141 8.42188 23.9141 13.9531C23.9141 19.4844 19.4844 23.9141 13.9531 23.9141Z" fill="black" fill-opacity="0.85"/>
<path d="M13.9414 11.082C15.0312 11.082 16.0859 10.8828 16.7891 10.5664C17.1992 10.3789 17.3281 10.1211 17.3281 9.76952C17.3281 8.93749 16.8594 8.19921 16.0273 7.7539L16.0039 7.57811C15.9688 7.34374 16.0391 7.20311 16.3203 7.12108L16.7656 6.95702C17.3984 6.79296 17.082 5.8203 16.4375 6.04296L15.9219 6.2539C15.3711 6.45311 15.043 6.8164 15.0664 7.3203L15.0781 7.39061C14.7266 7.29687 14.3398 7.24999 13.9414 7.24999C13.543 7.24999 13.168 7.29687 12.8164 7.39061V7.3203C12.8398 6.82811 12.5117 6.45311 11.9609 6.2539L11.4453 6.04296C10.8008 5.8203 10.4844 6.79296 11.1172 6.95702L11.5625 7.12108C11.8437 7.20311 11.9258 7.34374 11.8789 7.57811L11.8555 7.7539C11.0234 8.19921 10.5547 8.93749 10.5547 9.76952C10.5547 10.1211 10.6953 10.3789 11.0937 10.5664C11.7969 10.8828 12.8516 11.082 13.9414 11.082ZM13.9414 12.9453C14.1758 12.9453 14.3516 13.1211 14.3516 13.3438V20.6094C14.3516 20.9375 14.5742 21.0898 15.0078 21.043C16.3438 20.8789 17.4453 20.2461 18.2305 19.3086L19.1094 20.0352C19.3555 20.2461 19.6719 20.2578 19.8711 20.0117C20.0703 19.7773 20 19.4609 19.7539 19.2617L18.8047 18.4531C19.25 17.6328 19.5078 16.6367 19.5312 15.5352H20.6445C20.9727 15.5352 21.1719 15.3359 21.1719 15.0312C21.1719 14.7383 20.9727 14.5391 20.6445 14.5391L19.4727 14.5273C19.3672 13.6836 19.1094 12.8047 18.7461 12.125L19.7305 11.293C19.9766 11.082 20.0469 10.7656 19.8477 10.5195C19.6484 10.2734 19.3438 10.2969 19.0859 10.5195L18.1133 11.3398C17.7617 11.0469 17.5273 11.0352 17.3164 11.1289C16.3672 11.5508 15.1602 11.8203 13.9414 11.8203C12.7227 11.8203 11.5156 11.5508 10.5781 11.1289C10.3555 11.0352 10.1211 11.0469 9.76953 11.3398L8.79688 10.5195C8.53906 10.2969 8.23438 10.2852 8.03516 10.5195C7.83594 10.7656 7.90625 11.0937 8.15234 11.293L9.14844 12.125C8.77344 12.8047 8.51562 13.6836 8.41016 14.5273L7.25 14.5391C6.91016 14.5391 6.71094 14.7383 6.71094 15.0312C6.71094 15.3359 6.91016 15.5352 7.25 15.5352H8.35156C8.375 16.6367 8.63281 17.6328 9.07812 18.4531L8.12891 19.2617C7.88281 19.4609 7.8125 19.7773 8.01172 20.0117C8.21094 20.2578 8.52734 20.2461 8.77344 20.0352L9.65234 19.3086C10.4375 20.2461 11.5391 20.8789 12.875 21.043C13.3086 21.0898 13.5312 20.9375 13.5312 20.6094V13.3438C13.5312 13.1211 13.707 12.9453 13.9414 12.9453ZM10.2031 14.1875C10.2031 13.6602 10.6484 13.2148 11.1758 13.2148C11.7031 13.2148 12.1484 13.6719 12.1484 14.1875C12.1484 14.7148 11.7031 15.1602 11.1758 15.1602C10.6484 15.1602 10.2031 14.7148 10.2031 14.1875ZM10.2266 17.4688C10.2266 16.8711 10.7187 16.3672 11.3281 16.3672C11.9141 16.3672 12.4297 16.8711 12.4297 17.4688C12.4297 18.0781 11.9141 18.5703 11.3281 18.5703C10.7187 18.5703 10.2266 18.0781 10.2266 17.4688ZM17.6797 14.1875C17.6797 14.7148 17.2461 15.1602 16.7188 15.1602C16.1797 15.1602 15.7461 14.7148 15.7461 14.1875C15.7461 13.6719 16.1797 13.2148 16.7188 13.2148C17.2461 13.2148 17.6797 13.6602 17.6797 14.1875ZM17.668 17.4688C17.668 18.0781 17.1641 18.5703 16.5664 18.5703C15.9688 18.5703 15.4531 18.0781 15.4531 17.4688C15.4531 16.8711 15.9688 16.3672 16.5664 16.3672C17.1641 16.3672 17.668 16.8711 17.668 17.4688Z" fill="black" fill-opacity="0.85"/>
</svg>
