<svg width="28" height="28" viewBox="0 0 28 28" fill="none" xmlns="http://www.w3.org/2000/svg">
<path d="M8.63672 24.9805H19.3594C21.082 24.9805 21.9961 24.043 21.9961 22.1914V14.1172C21.9961 12.2773 21.082 11.3398 19.3594 11.3398H8.63672C6.91406 11.3398 6 12.2773 6 14.1172V22.1914C6 24.043 6.91406 24.9805 8.63672 24.9805ZM8.69531 23.2109C8.19141 23.2109 7.89844 22.8945 7.89844 22.3203V13.9883C7.89844 13.4141 8.19141 13.1094 8.69531 13.1094H19.3008C19.8164 13.1094 20.0977 13.4141 20.0977 13.9883V22.3203C20.0977 22.8945 19.8164 23.2109 19.3008 23.2109H8.69531ZM8.05078 12.2422H9.91406V8.29297C9.91406 5.32812 11.8008 3.76953 13.9922 3.76953C16.1836 3.76953 18.0938 5.32812 18.0938 8.29297V12.2422H19.9453V8.53906C19.9453 4.13281 17.0625 2 13.9922 2C10.9336 2 8.05078 4.13281 8.05078 8.53906V12.2422Z" fill="black" fill-opacity="0.85"/>
</svg>
