<svg width="28" height="28" viewBox="0 0 28 28" fill="none" xmlns="http://www.w3.org/2000/svg">
<path d="M13.2148 24.1445L16.3555 16.1523C16.5664 15.6133 16.8242 14.957 16.8242 14.4414C16.8242 13.9258 16.5664 13.2695 16.3555 12.7305L13.2148 4.73828C13.0391 4.28125 12.6406 4 12.207 4C11.5156 4 11 4.50391 11 5.18359C11 5.52344 11.1992 5.99219 11.3047 6.29688L14.832 15.2734V13.6094L11.3047 22.5859C11.1992 22.8906 11 23.3477 11 23.6992C11 24.3906 11.5156 24.8945 12.207 24.8945C12.6406 24.8945 13.0391 24.6016 13.2148 24.1445Z" fill="black" fill-opacity="0.85"/>
</svg>
