<svg width="28" height="28" viewBox="0 0 28 28" fill="none" xmlns="http://www.w3.org/2000/svg">
<g clip-path="url(#clip0_2124_24659)">
<path d="M6 23.7617C6 25.5898 7.27734 26.8086 9.1875 26.8086H17.8711C19.7812 26.8086 21.0586 25.5898 21.0586 23.7617V5.04688C21.0586 3.21875 19.7812 2 17.8711 2H9.1875C7.27734 2 6 3.21875 6 5.04688V23.7617ZM7.88672 23.457V5.35156C7.88672 4.41406 8.4375 3.88672 9.43359 3.88672H17.6367C18.6211 3.88672 19.1719 4.41406 19.1719 5.35156V23.457C19.1719 24.3945 18.6211 24.9219 17.6367 24.9219H9.43359C8.4375 24.9219 7.88672 24.3945 7.88672 23.457Z" fill="black" fill-opacity="0.85"/>
<path d="M9.32812 17.3867C9.32812 18.0547 9.64453 18.3828 10.2773 18.3828H14.25C14.8945 18.3828 15.2109 18.0547 15.2109 17.3867V14.3398C15.2109 13.6719 14.8945 13.332 14.25 13.332H10.2773C9.64453 13.332 9.32812 13.6719 9.32812 14.3398V17.3867ZM13.3477 14.0117H14.5078V12.3477C14.5078 11.4805 14.9766 10.918 15.7734 10.918C16.5703 10.918 17.0273 11.4805 17.0273 12.3477V13.1797C17.0273 13.4961 17.2969 13.7656 17.6133 13.7656C17.9297 13.7656 18.1875 13.4961 18.1875 13.1797V12.3477C18.1875 10.8711 17.2383 9.79297 15.7734 9.79297C14.3086 9.79297 13.3477 10.8711 13.3477 12.4531V14.0117Z" fill="black" fill-opacity="0.85"/>
</g>
<defs>
<clipPath id="clip0_2124_24659">
<rect width="15.0586" height="24.832" fill="white" transform="translate(6 2)"/>
</clipPath>
</defs>
</svg>
