<svg width="28" height="28" viewBox="0 0 28 28" fill="none" xmlns="http://www.w3.org/2000/svg">
<path d="M6.67969 24.5977H20.8945C23.3555 24.5977 24.5742 23.3789 24.5742 20.9648V6.65625C24.5742 4.24219 23.3555 3.02344 20.8945 3.02344H6.67969C4.23047 3.02344 3 4.23047 3 6.65625V20.9648C3 23.3906 4.23047 24.5977 6.67969 24.5977Z" fill="black" fill-opacity="0.85"/>
<path d="M9.09375 19.4062C8.55469 19.4062 8.22656 19.0312 8.22656 18.4102V9.15234C8.22656 8.48438 8.68359 8.02734 9.36328 8.02734C9.94922 8.02734 10.3359 8.29688 10.5469 8.8125L13.7695 16.8398H13.8281L17.0273 8.8125C17.25 8.29688 17.6367 8.02734 18.2227 8.02734C18.8906 8.02734 19.3594 8.48438 19.3594 9.15234V18.4102C19.3594 19.043 19.0312 19.4062 18.457 19.4062C17.9297 19.4062 17.6016 19.0312 17.6016 18.4102V11.4609H17.4961L14.707 18.3984C14.5312 18.832 14.2266 19.0312 13.7812 19.0312C13.3359 19.0312 13.043 18.832 12.8555 18.3984L10.0898 11.4609H9.98438V18.4102C9.98438 19.043 9.64453 19.4062 9.09375 19.4062Z" fill="white"/>
</svg>
