<svg width="28" height="28" viewBox="0 0 28 28" fill="none" xmlns="http://www.w3.org/2000/svg">
<path d="M13.9531 25.9062C20.4922 25.9062 25.9062 20.4805 25.9062 13.9531C25.9062 7.41406 20.4805 2 13.9414 2C7.41406 2 2 7.41406 2 13.9531C2 20.4805 7.42578 25.9062 13.9531 25.9062ZM13.9531 23.9141C8.42188 23.9141 4.00391 19.4844 4.00391 13.9531C4.00391 8.42188 8.41016 3.99219 13.9414 3.99219C19.4727 3.99219 23.9141 8.42188 23.9141 13.9531C23.9141 19.4844 19.4844 23.9141 13.9531 23.9141Z" fill="black" fill-opacity="0.85"/>
<path d="M13.9648 6.66406C13.707 6.66406 13.4961 6.78125 13.2734 7.00391L9.88672 10.3789C9.73438 10.5313 9.64062 10.7422 9.64062 10.9883C9.64062 11.4688 10.0156 11.832 10.4961 11.832C10.7539 11.832 10.9648 11.7383 11.1172 11.5742L11.9844 10.6836L13.1797 9.26562L13.0859 11.75V16.1562L13.1797 18.6406L11.9844 17.2227L11.1172 16.332C10.9648 16.1562 10.7539 16.0742 10.4961 16.0742C10.0156 16.0742 9.64062 16.4375 9.64062 16.918C9.64062 17.1523 9.73438 17.375 9.88672 17.5273L13.2734 20.9023C13.4961 21.125 13.707 21.2422 13.9648 21.2422C14.2109 21.2422 14.4102 21.125 14.6445 20.9023L18.043 17.5273C18.1953 17.375 18.2773 17.1523 18.2773 16.918C18.2773 16.4375 17.9141 16.0742 17.4336 16.0742C17.1758 16.0742 16.9648 16.168 16.8125 16.332L15.9336 17.2227L14.75 18.6289L14.8438 16.1562V11.75L14.75 9.27734L15.9336 10.6836L16.8125 11.5742C16.9648 11.7266 17.1758 11.832 17.4336 11.832C17.9141 11.832 18.2773 11.4688 18.2773 10.9883C18.2773 10.7422 18.1953 10.5313 18.043 10.3789L14.6445 7.00391C14.4102 6.78125 14.2109 6.66406 13.9648 6.66406Z" fill="black" fill-opacity="0.85"/>
</svg>
