<svg width="28" height="28" viewBox="0 0 28 28" fill="none" xmlns="http://www.w3.org/2000/svg">
<path d="M13.9531 25.9062C20.4922 25.9062 25.9062 20.4805 25.9062 13.9531C25.9062 7.41406 20.4805 2 13.9414 2C7.41406 2 2 7.41406 2 13.9531C2 20.4805 7.42578 25.9062 13.9531 25.9062ZM13.9531 23.9141C8.42188 23.9141 4.00391 19.4844 4.00391 13.9531C4.00391 8.42188 8.41016 3.99219 13.9414 3.99219C19.4727 3.99219 23.9141 8.42188 23.9141 13.9531C23.9141 19.4844 19.4844 23.9141 13.9531 23.9141Z" fill="black" fill-opacity="0.85"/>
<path d="M8.1396 19.3086C8.50289 19.3086 8.83101 19.1211 8.92476 18.6875L10.6357 10.6367H10.7294L12.5107 18.6875C12.6045 19.1211 12.9209 19.3086 13.2842 19.3086C13.7295 19.3086 14.1396 18.9805 13.9756 18.2891L11.7724 9.26562C11.6435 8.72656 11.2685 8.41016 10.7412 8.41016C10.2255 8.41016 9.81539 8.73828 9.68648 9.26562L7.40132 18.2891C7.23726 18.9805 7.69429 19.3086 8.1396 19.3086ZM8.81929 16.4727H12.5693V15.2773H8.81929V16.4727ZM17.3506 18.7695C19.0381 18.7695 20.1982 17.7969 20.1982 16.1914C20.1982 15.0547 19.5888 14.2461 18.1943 13.5195L17.1513 12.9688C16.542 12.6523 15.9092 12.2539 15.9092 11.4805C15.9092 10.7539 16.4599 10.2852 17.2685 10.2852C18.1474 10.2852 18.5928 10.8477 18.6513 11.6445C18.6865 12.0195 18.9795 12.2422 19.3076 12.2422C19.706 12.2422 20.0928 11.9375 19.999 11.293C19.8349 10.0156 18.8623 9.04297 17.2685 9.04297C15.6513 9.04297 14.4795 10.0273 14.4795 11.5391C14.4795 12.8164 15.206 13.6367 16.4365 14.2461L17.4443 14.75C18.1123 15.0781 18.7685 15.5938 18.7685 16.2969C18.7685 17.0352 18.2529 17.5273 17.3506 17.5273C16.331 17.5273 15.8857 17.0117 15.8037 16.1562C15.7568 15.7578 15.4873 15.5586 15.1592 15.5586C14.7607 15.5586 14.3857 15.8984 14.4795 16.5078C14.667 17.8555 15.6982 18.7695 17.3506 18.7695ZM17.3388 20.0234C17.5849 20.0234 17.8193 19.8008 17.8193 19.543V8.30469C17.8193 8.03516 17.5849 7.8125 17.3388 7.8125C17.0693 7.8125 16.8467 8.03516 16.8467 8.30469V19.543C16.8467 19.8008 17.0693 20.0234 17.3388 20.0234Z" fill="black" fill-opacity="0.85"/>
</svg>
