<svg width="28" height="28" viewBox="0 0 28 28" fill="none" xmlns="http://www.w3.org/2000/svg">
<g clip-path="url(#clip0_2124_24563)">
<path d="M2.69531 22.2734H25.2305C26.918 22.2734 27.9375 21.2539 27.9375 19.5664V5.51562C27.9375 3.82812 26.918 2.82031 25.2305 2.82031H2.69531C1.01953 2.82031 0 3.82812 0 5.51562V19.5664C0 21.2539 1.01953 22.2734 2.69531 22.2734ZM2.73047 20.3867C2.21484 20.3867 1.88672 20.0586 1.88672 19.543V5.55078C1.88672 5.02344 2.21484 4.70703 2.73047 4.70703H25.207C25.7227 4.70703 26.0508 5.02344 26.0508 5.55078V19.543C26.0508 20.0586 25.7227 20.3867 25.207 20.3867H2.73047ZM10.2656 25.0625H17.6719V22.1211H10.2656V25.0625ZM10.1953 26.4336H17.7422C18.2578 26.4336 18.6797 26.0117 18.6797 25.4844C18.6797 24.957 18.2578 24.5352 17.7422 24.5352H10.1953C9.67969 24.5352 9.24609 24.957 9.24609 25.4844C9.24609 26.0117 9.67969 26.4336 10.1953 26.4336Z" fill="black" fill-opacity="0.85"/>
<path d="M11.9883 16.5195H15.9609C16.5938 16.5195 16.9102 16.1797 16.9102 15.5117V12.4648C16.9102 11.9492 16.7109 11.6445 16.3359 11.5039V10.7188C16.3359 9.13672 15.375 8.05859 13.9805 8.05859C12.5742 8.05859 11.625 9.13672 11.625 10.7188V11.5273C11.2383 11.6445 11.0391 11.9492 11.0391 12.4648V15.5117C11.0391 16.1797 11.3555 16.5195 11.9883 16.5195ZM12.7852 11.4688V10.6133C12.7852 9.73438 13.2422 9.18359 13.9805 9.18359C14.6953 9.18359 15.1758 9.73438 15.1758 10.6133V11.4688H12.7852Z" fill="black" fill-opacity="0.85"/>
</g>
<defs>
<clipPath id="clip0_2124_24563">
<rect width="27.9375" height="24.4336" fill="white" transform="translate(0 2)"/>
</clipPath>
</defs>
</svg>
