<svg width="28" height="28" viewBox="0 0 28 28" fill="none" xmlns="http://www.w3.org/2000/svg">
<path d="M13.9531 25.9062C20.4922 25.9062 25.9062 20.4805 25.9062 13.9531C25.9062 7.41406 20.4805 2 13.9414 2C7.41406 2 2 7.41406 2 13.9531C2 20.4805 7.42578 25.9062 13.9531 25.9062Z" fill="black" fill-opacity="0.85"/>
<path d="M20.1641 13.9414C20.1641 14.2109 20.0586 14.4219 19.8242 14.6445L15.7461 18.7344C15.582 18.8984 15.3711 18.9922 15.1133 18.9922C14.6094 18.9922 14.2344 18.6055 14.2344 18.1016C14.2344 17.8438 14.3398 17.6211 14.5039 17.457L16.0039 15.9688L17.4688 14.75L14.9141 14.8438H8.63281C8.10547 14.8438 7.71875 14.4688 7.71875 13.9414C7.71875 13.4023 8.10547 13.0273 8.63281 13.0273H14.9141L17.4688 13.1328L16.0039 11.9141L14.5039 10.4258C14.3516 10.25 14.2344 10.0273 14.2344 9.76953C14.2344 9.26562 14.6094 8.89062 15.1133 8.89062C15.3711 8.89062 15.582 8.97266 15.7461 9.13672L19.8242 13.2383C20.0703 13.4844 20.1641 13.6719 20.1641 13.9414Z" fill="white"/>
</svg>
