<svg width="30" height="28" viewBox="0 0 30 28" fill="none" xmlns="http://www.w3.org/2000/svg">
<path d="M13.6523 25.168C21.6328 25.168 27.668 19.707 29.3086 12.3594C29.5078 11.5039 28.957 10.8711 28.0664 10.8711H17.3555V12.6758H28.2891L27.5625 12.043C25.9688 18.7344 20.543 23.375 13.6523 23.375C6.55078 23.375 1.78125 18.9453 1.78125 12.6055C1.78125 7.48438 5.41406 3.80469 10.2188 3.80469C13.9336 3.80469 16.582 6.21875 16.582 9.61719C16.582 12.4297 14.8125 14.4688 12.3281 14.4688C10.2305 14.4688 8.77734 13.0859 8.77734 11.3164C8.77734 9.91016 9.70312 8.84375 11.0156 8.84375C12.0703 8.84375 12.6914 9.47656 12.6914 10.3086C12.6914 10.9531 12.3164 11.3984 11.7539 11.3984C11.2969 11.3984 11.1445 11.1758 11.0156 10.9531C10.8984 10.7422 10.7227 10.6133 10.418 10.6133C10.0547 10.6133 9.67969 10.9062 9.67969 11.4453C9.67969 12.207 10.3711 13.2031 11.7422 13.2031C13.2773 13.2031 14.4961 12.0547 14.4961 10.3086C14.4961 8.48047 12.9727 7.03906 11.0156 7.03906C8.8125 7.03906 6.97266 8.92578 6.97266 11.3164C6.97266 14.082 9.23438 16.2617 12.3281 16.2617C16.7227 16.2617 18.375 12.3359 18.375 9.61719C18.375 5.19922 14.9531 2.01172 10.2188 2.01172C4.39453 2.01172 0 6.45312 0 12.6055C0 19.9648 5.49609 25.168 13.6523 25.168ZM15.8789 4.19141L11.6719 8.41016L12.6328 9.37109L16.8398 5.16406L15.8789 4.19141ZM9.64453 2.39844V8.48047H10.9922V2.39844H9.64453ZM3.71484 5.08203L8.15625 9.53516L9.10547 8.5625L4.67578 4.10938L3.71484 5.08203ZM1.34766 11.9727H7.86328V10.6133H1.34766V11.9727ZM3.76172 19.9883L9.15234 14.6094L8.19141 13.6484L2.8125 19.0273L3.76172 19.9883ZM11.2852 24.1133H12.6445V15.6641H11.2852V24.1133ZM21.7148 21.7578L22.6641 20.7852L15.668 13.7773L14.707 14.7383L21.7148 21.7578Z" fill="black" fill-opacity="0.85"/>
</svg>
