<svg width="29" height="34" viewBox="0 0 29 34" fill="none" xmlns="http://www.w3.org/2000/svg">
<g clip-path="url(#clip0_2124_45949)">
<path d="M23.5689 11.2872C25.315 11.2872 26.7213 9.82239 26.7213 8.12317C26.7213 6.35364 25.315 4.92395 23.5689 4.92395C21.7877 4.92395 20.3814 6.35364 20.3814 8.12317C20.3814 9.86926 21.7877 11.2872 23.5689 11.2872ZM4.67831 28.0568C5.28769 28.6896 6.33066 28.6427 7.08066 27.8693L12.1197 22.6661C12.2838 22.4904 12.401 22.4435 12.6705 22.549L16.5963 24.0372C19.1275 25.0099 21.5182 24.1779 22.6197 22.1622L25.151 17.5568C26.1354 15.7638 25.8307 13.9122 24.1197 12.9982C22.4674 12.0958 20.7447 12.7755 19.7486 14.6154L16.4674 20.6036L13.6666 19.5841C12.2838 19.0802 11.1236 19.2443 10.0221 20.3927L4.78378 25.8068C4.05722 26.5568 4.12753 27.4943 4.67831 28.0568Z" fill="black" fill-opacity="0.85"/>
<path d="M1.25637 7.47865C1.59621 7.81849 2.14699 7.81849 2.48684 7.47865L5.72121 4.23255L7.02199 5.53334C7.59621 6.10755 8.45168 5.77943 8.48684 4.9474L8.74465 0.892705C8.76809 0.341924 8.42824 -0.0096381 7.86574 0.0137994L3.79934 0.259893C3.01418 0.306768 2.62746 1.11537 3.22512 1.72474L4.51418 3.02552L1.26809 6.2599C0.928242 6.59974 0.928242 7.15052 1.25637 7.47865ZM5.42824 9.59974C5.42824 10.0919 5.80324 10.4786 6.29543 10.4786H10.8892V12.3068C10.8892 13.1271 11.7212 13.4904 12.3423 12.9396L15.3774 10.2443C15.7876 9.85754 15.7876 9.37709 15.3774 9.00209L12.3423 6.30677C11.7446 5.77943 10.8892 6.0724 10.8892 6.93959V8.75599H6.29543C5.80324 8.75599 5.42824 9.13099 5.42824 9.59974Z" fill="black" fill-opacity="0.85"/>
</g>
<defs>
<clipPath id="clip0_2124_45949">
<rect width="25.7095" height="33.5999" fill="white" transform="translate(1.01172 0.0126953)"/>
</clipPath>
</defs>
</svg>
