<svg width="28" height="28" viewBox="0 0 28 28" fill="none" xmlns="http://www.w3.org/2000/svg">
<path d="M10.4844 25.1797H17.5977C19.0859 25.1797 19.7891 24.6992 20.5625 23.8672L25.1094 18.8516C25.8711 18.0078 26.082 17.4336 26.082 16.2734V10.918C26.082 9.74609 25.8711 9.18359 25.1094 8.33984L20.5625 3.32422C19.7891 2.49219 19.0859 2 17.5977 2H10.4844C8.99609 2 8.28125 2.49219 7.51953 3.32422L2.97266 8.33984C2.19922 9.18359 2 9.74609 2 10.918V16.2734C2 17.4336 2.19922 18.0078 2.97266 18.8516L7.51953 23.8672C8.28125 24.6992 8.99609 25.1797 10.4844 25.1797ZM11.1172 23.3047C9.94531 23.3047 9.60547 23.0469 8.96094 22.3438L4.73047 17.7148C4.27344 17.1992 4.16797 16.9062 4.16797 16.0508V11.1406C4.16797 10.2852 4.27344 9.99219 4.73047 9.47656L8.96094 4.84766C9.60547 4.13281 9.94531 3.88672 11.1172 3.88672H16.9648C18.1367 3.88672 18.4648 4.13281 19.1211 4.84766L23.3398 9.47656C23.8086 9.99219 23.9141 10.2852 23.9141 11.1406V16.0508C23.9141 16.9062 23.8086 17.1992 23.3398 17.7148L19.1211 22.3438C18.4648 23.0469 18.1367 23.3047 16.9648 23.3047H11.1172Z" fill="black" fill-opacity="0.85"/>
</svg>
