<svg width="28" height="28" viewBox="0 0 28 28" fill="none" xmlns="http://www.w3.org/2000/svg">
<path d="M4.87109 23.2279H24.8985C25.4141 23.2279 25.836 22.8061 25.836 22.2904C25.836 21.7748 25.4141 21.3412 24.8985 21.3412H4.87109C4.35546 21.3412 3.93359 21.7748 3.93359 22.2904C3.93359 22.8061 4.35546 23.2279 4.87109 23.2279Z" fill="black" fill-opacity="0.85"/>
<path d="M7.69445 23.5326L22.9523 8.33343C24.1827 7.11468 24.1944 5.47405 23.046 4.3139L22.6476 3.90374C21.5109 2.73186 19.8585 2.79046 18.628 3.98577L3.40538 19.185L2.15148 22.0912C1.49523 23.6498 3.08898 25.2904 4.67101 24.6811L7.69445 23.5326Z" fill="white"/>
<path d="M6.81497 22.1498L19.6118 9.37635L17.5493 7.31385L4.76419 20.0873L3.63919 22.7006C3.53372 22.9818 3.82669 23.31 4.10794 23.1928L6.81497 22.1498ZM20.6313 8.36853L21.8149 7.20837C22.4243 6.61071 22.4595 5.96619 21.9087 5.42713L21.522 5.02869C20.9829 4.50135 20.3384 4.54822 19.7524 5.13416L18.5571 6.30603L20.6313 8.36853Z" fill="black" fill-opacity="0.85"/>
</svg>
