<svg width="28" height="28" viewBox="0 0 28 28" fill="none" xmlns="http://www.w3.org/2000/svg">
<g clip-path="url(#clip0_2124_89071)">
<path d="M13.9531 25.9062C20.4922 25.9062 25.9062 20.4805 25.9062 13.9531C25.9062 7.41406 20.4805 2 13.9414 2C7.41406 2 2 7.41406 2 13.9531C2 20.4805 7.42578 25.9062 13.9531 25.9062ZM13.9531 23.9141C8.42188 23.9141 4.00391 19.4844 4.00391 13.9531C4.00391 8.42188 8.41016 3.99219 13.9414 3.99219C19.4727 3.99219 23.9141 8.42188 23.9141 13.9531C23.9141 19.4844 19.4844 23.9141 13.9531 23.9141Z" fill="black" fill-opacity="0.85"/>
<path d="M8.66803 14.2227L13.7423 10.2383C13.7892 10.1914 13.8829 10.168 13.9298 10.168C13.9884 10.168 14.0704 10.1914 14.129 10.2383L19.2032 14.2227C19.672 14.5977 20.1642 13.9766 19.7657 13.6602L14.5509 9.53516C14.3751 9.40625 14.1407 9.3125 13.9298 9.3125C13.7189 9.3125 13.5079 9.39453 13.3204 9.53516L8.09381 13.6602C7.69537 13.9766 8.18756 14.5977 8.66803 14.2227ZM9.8985 17.4336H17.961C18.5939 17.4336 18.9689 17.0703 18.9689 16.4258V14.832C18.8165 14.7617 18.6759 14.668 18.4884 14.5391L13.9298 10.9531L9.35944 14.5391C9.18365 14.668 9.05475 14.7617 8.89068 14.832V16.4258C8.89068 17.0703 9.26568 17.4336 9.8985 17.4336ZM12.7228 16.6602L12.711 14.6445C12.711 14.4453 12.8517 14.3164 13.0509 14.3164H14.8321C15.0196 14.3164 15.1485 14.4453 15.1485 14.6445V16.6602H12.7228ZM7.67194 13.1211L9.80475 11.457H8.75006C8.56256 11.457 8.38678 11.4922 8.24615 11.5977L5.24615 13.6719C5.00006 13.8594 5.10553 14.293 5.49225 14.293H7.35553C7.20318 13.9062 7.23834 13.4492 7.67194 13.1211ZM8.19928 16.4258V14.9492L5.98444 14.9609V16.4258C5.98444 17.0703 6.35944 17.4336 7.00397 17.4336H8.48053C8.30475 17.1523 8.19928 16.8242 8.19928 16.4258ZM20.1876 13.1211C20.6329 13.4492 20.6681 13.9062 20.5157 14.293H22.379C22.7657 14.293 22.8712 13.8828 22.6017 13.6719L19.6134 11.5977C19.4728 11.4922 19.3204 11.457 19.1095 11.457H18.0548L20.1876 13.1211ZM19.6603 16.4258C19.6603 16.8242 19.5665 17.1523 19.379 17.4336H20.8556C21.5001 17.4336 21.8751 17.0703 21.8751 16.4258V14.9609L19.6603 14.9492V16.4258Z" fill="black" fill-opacity="0.85"/>
</g>
<defs>
<clipPath id="clip0_2124_89071">
<rect width="23.9062" height="23.918" fill="white" transform="translate(2 2)"/>
</clipPath>
</defs>
</svg>
