<svg width="29" height="29" viewBox="0 0 29 29" fill="none" xmlns="http://www.w3.org/2000/svg">
<g clip-path="url(#clip0_2124_45971)">
<path d="M13.9707 25.9089C20.5098 25.9089 25.9238 20.4832 25.9238 13.9558C25.9238 7.41675 20.4981 2.00269 13.959 2.00269C7.43164 2.00269 2.01758 7.41675 2.01758 13.9558C2.01758 20.4832 7.44336 25.9089 13.9707 25.9089ZM13.9707 23.9168C8.43946 23.9168 4.02149 19.4871 4.02149 13.9558C4.02149 8.42457 8.42774 3.99488 13.959 3.99488C19.4903 3.99488 23.9317 8.42457 23.9317 13.9558C23.9317 19.4871 19.502 23.9168 13.9707 23.9168Z" fill="black" fill-opacity="0.85"/>
<path d="M13.959 19.8269C16.4082 19.8269 18.0488 18.198 18.0488 17.4246C18.0488 17.1433 17.7793 17.0144 17.5332 17.1316C16.6778 17.6004 15.6582 18.1277 13.959 18.1277C12.2598 18.1277 11.2402 17.5886 10.3965 17.1316C10.1387 17.0144 9.86914 17.1433 9.86914 17.4246C9.86914 18.198 11.5098 19.8269 13.959 19.8269ZM10.4902 12.9129C11.2285 12.9129 11.8848 12.2449 11.8848 11.3074C11.8848 10.3582 11.2402 9.69019 10.4902 9.69019C9.75196 9.69019 9.10742 10.3582 9.10742 11.3074C9.10742 12.2449 9.75196 12.9129 10.4902 12.9129ZM17.4395 12.9129C18.1778 12.9129 18.834 12.2449 18.834 11.3074C18.834 10.3582 18.1895 9.69019 17.4395 9.69019C16.7012 9.69019 16.0567 10.3582 16.0567 11.3074C16.0567 12.2449 16.7012 12.9129 17.4395 12.9129Z" fill="black" fill-opacity="0.85"/>
</g>
<defs>
<clipPath id="clip0_2124_45971">
<rect width="23.9062" height="23.918" fill="white" transform="translate(2.01758 2.00269)"/>
</clipPath>
</defs>
</svg>
