<svg width="29" height="28" viewBox="0 0 29 28" fill="none" xmlns="http://www.w3.org/2000/svg">
<path d="M14.2734 6.12109C15.668 6.12109 16.8281 4.96094 16.8281 3.55469C16.8281 2.16016 15.668 1 14.2734 1C12.8672 1 11.707 2.16016 11.707 3.55469C11.707 4.96094 12.8672 6.12109 14.2734 6.12109ZM10.5117 21.3555C10.9805 21.8242 11.7188 21.8242 12.1875 21.3555L17.0156 16.5273C17.6836 15.8711 17.25 14.6406 16.2539 14.5469L10.8281 13.9609C10.3711 13.9141 10.3125 13.6328 10.5117 13.3398L12.4336 10.4336C12.6328 10.1523 12.9961 10.082 13.2656 10.2695L16.6875 12.5312C16.8633 12.6484 17.0859 12.7422 17.332 12.7422H22.7109C23.3555 12.7422 23.8945 12.2031 23.8945 11.5586C23.8945 10.8906 23.3555 10.3516 22.7109 10.3516H17.6719L7.23047 3.39062C7.04297 3.26172 6.82031 3.17969 6.57422 3.17969H1.18359C0.539062 3.17969 0 3.73047 0 4.38672C0 5.03125 0.539062 5.57031 1.18359 5.57031H6.22266L8.14453 6.84766C8.42578 7.03516 8.50781 7.39844 8.30859 7.67969L5.53125 11.8516C4.24219 13.7852 5.36719 16.3633 7.85156 16.5039L13.3945 16.7969L10.5117 19.6797C10.0312 20.1484 10.0312 20.8867 10.5117 21.3555ZM6.04688 17.1602V21.1797L2.73047 25.0117C2.30859 25.5156 2.35547 26.3008 2.87109 26.7344C3.45703 27.2031 4.18359 27.0391 4.57031 26.5938L8.14453 22.4102C8.34375 22.1758 8.40234 21.918 8.4375 21.6719L9.10547 17.6875L7.80469 17.6289C7.14844 17.5938 6.55078 17.4297 6.04688 17.1602ZM22.7109 8.26562C22.7109 9.08594 24.0586 9.75391 25.6992 9.75391C27.3398 9.75391 28.6758 9.08594 28.6758 8.26562C28.6758 7.44531 27.3398 6.76562 25.6992 6.76562C24.0586 6.76562 22.7109 7.44531 22.7109 8.26562Z" fill="black" fill-opacity="0.85"/>
</svg>
