<svg width="28" height="28" viewBox="0 0 28 28" fill="none" xmlns="http://www.w3.org/2000/svg">
<g clip-path="url(#clip0_2124_89307)">
<path d="M3.9375 10.4766C4.55859 10.4766 4.88672 10.125 4.88672 9.51562V6.75C4.88672 5.53125 5.53125 4.91016 6.70312 4.91016H9.53906C10.1602 4.91016 10.5 4.57031 10.5 3.96094C10.5 3.35156 10.1602 3.02344 9.53906 3.02344H6.67969C4.23047 3.02344 3 4.23047 3 6.64453V9.51562C3 10.125 3.33984 10.4766 3.9375 10.4766ZM24.9961 10.4766C25.6172 10.4766 25.9453 10.125 25.9453 9.51562V6.64453C25.9453 4.23047 24.7148 3.02344 22.2656 3.02344H19.3945C18.7852 3.02344 18.4453 3.35156 18.4453 3.96094C18.4453 4.57031 18.7852 4.91016 19.3945 4.91016H22.2305C23.3906 4.91016 24.0586 5.53125 24.0586 6.75V9.51562C24.0586 10.125 24.3984 10.4766 24.9961 10.4766ZM6.67969 25.957H9.53906C10.1602 25.957 10.5 25.6172 10.5 25.0195C10.5 24.4102 10.1602 24.0703 9.53906 24.0703H6.70312C5.53125 24.0703 4.88672 23.4492 4.88672 22.2305V19.4648C4.88672 18.8438 4.54688 18.5039 3.9375 18.5039C3.32812 18.5039 3 18.8438 3 19.4648V22.3242C3 24.75 4.23047 25.957 6.67969 25.957ZM19.3945 25.957H22.2656C24.7148 25.957 25.9453 24.7383 25.9453 22.3242V19.4648C25.9453 18.8438 25.6055 18.5039 24.9961 18.5039C24.3867 18.5039 24.0586 18.8438 24.0586 19.4648V22.2305C24.0586 23.4492 23.3906 24.0703 22.2305 24.0703H19.3945C18.7852 24.0703 18.4453 24.4102 18.4453 25.0195C18.4453 25.6172 18.7852 25.957 19.3945 25.957Z" fill="black" fill-opacity="0.85"/>
<path d="M11.25 21.7266H18.2227C19.6992 21.7266 20.4727 20.9297 20.4727 19.4414V13.4883C20.4727 12.5508 20.332 12.1406 19.793 11.5898L16.1719 7.89844C15.668 7.39453 15.1992 7.21875 14.3672 7.21875H11.25C9.78516 7.21875 9 8.01562 9 9.49219V19.4414C9 20.9297 9.78516 21.7266 11.25 21.7266ZM11.2969 20.2383C10.7344 20.2383 10.4766 19.9688 10.4766 19.4297V9.51562C10.4766 8.97656 10.7461 8.70703 11.3086 8.70703H14.0039V12.3047C14.0039 13.2305 14.5195 13.7461 15.457 13.7461H18.9961V19.4297C18.9961 19.9688 18.7383 20.2383 18.1641 20.2383H11.2969ZM15.6211 12.3281C15.4805 12.3281 15.4219 12.2812 15.4219 12.1406V9.21094L18.4805 12.3281H15.6211Z" fill="black" fill-opacity="0.85"/>
</g>
<defs>
<clipPath id="clip0_2124_89307">
<rect width="22.9453" height="22.957" fill="white" transform="translate(3 3)"/>
</clipPath>
</defs>
</svg>
