<svg width="28" height="28" viewBox="0 0 28 28" fill="none" xmlns="http://www.w3.org/2000/svg">
<path d="M13.9531 25.9062C20.4922 25.9062 25.9062 20.4805 25.9062 13.9531C25.9062 7.41406 20.4805 2 13.9414 2C7.41406 2 2 7.41406 2 13.9531C2 20.4805 7.42578 25.9062 13.9531 25.9062Z" fill="black" fill-opacity="0.85"/>
<path d="M9.54688 18.9336C9.54688 18.5352 9.73438 18.2891 10.1797 18.1484C11 17.9141 11.7031 17.1992 11.8203 16.1328C11.832 15.9922 11.8437 15.8633 11.832 15.7344H10.25C9.86328 15.7344 9.57031 15.4648 9.57031 15.0781C9.57031 14.6914 9.86328 14.4336 10.25 14.4336H11.6445C11.5625 14.082 11.4453 13.7422 11.375 13.3906H10.25C9.86328 13.3906 9.57031 13.1211 9.57031 12.7344C9.57031 12.3477 9.86328 12.0898 10.25 12.0898H11.1758C11.1641 11.9961 11.1523 11.9258 11.1523 11.832C11.1523 9.54688 12.6758 8.10547 15.1719 8.10547C15.9102 8.10547 16.6016 8.1875 17.1758 8.42188C17.5977 8.58594 17.75 8.84375 17.75 9.16016C17.75 9.55859 17.5156 9.81641 17.0586 9.79297C16.6836 9.74609 16.1562 9.53516 15.2656 9.53516C13.6719 9.53516 12.7344 10.4258 12.7344 11.7266C12.7344 11.8555 12.7461 11.9727 12.7578 12.0898H16.2617C16.6602 12.0898 16.9414 12.3477 16.9414 12.7344C16.9414 13.1211 16.6602 13.3906 16.2617 13.3906H12.9805C13.0625 13.7305 13.1562 14.0703 13.25 14.4336H16.2617C16.6602 14.4336 16.9414 14.6914 16.9414 15.0781C16.9414 15.4648 16.6602 15.7344 16.2617 15.7344H13.3789C13.3789 15.9219 13.3672 16.0977 13.3438 16.2734C13.2266 17.0703 12.875 17.8086 12.3477 18.2305H17.5742C18.0078 18.2305 18.3125 18.5117 18.3125 18.9336C18.3125 19.3672 18.0078 19.6484 17.5742 19.6484H10.2617C9.82811 19.6484 9.54688 19.3672 9.54688 18.9336Z" fill="white"/>
</svg>
