<svg width="30" height="28" viewBox="0 0 30 28" fill="none" xmlns="http://www.w3.org/2000/svg">
<path d="M3.67969 23.3477H26.0508C28.5117 23.3477 29.7305 22.1289 29.7305 19.7148V7.64453C29.7305 5.23047 28.5117 4.01172 26.0508 4.01172H3.67969C1.23047 4.01172 0 5.21875 0 7.64453V19.7148C0 22.1289 1.23047 23.3477 3.67969 23.3477Z" fill="black" fill-opacity="0.85"/>
<path d="M3.62109 17.6875C3.15234 17.6875 2.91797 17.3828 2.91797 16.9844C2.91797 16.8555 2.95312 16.6914 2.97656 16.5859L4.38281 10.5391C4.51172 9.96484 4.86328 9.67188 5.37891 9.67188C5.97656 9.67188 6.32812 10 6.43359 10.5273L7.85156 16.5977C7.875 16.6914 7.88672 16.8672 7.88672 16.9844C7.88672 17.3828 7.61719 17.6875 7.20703 17.6875C6.79688 17.6875 6.55078 17.4531 6.48047 17.0547L6.22266 15.7656H4.60547L4.33594 17.043C4.27734 17.418 4.01953 17.6875 3.62109 17.6875ZM4.76953 14.6289H6.04688L5.40234 11.5586L4.76953 14.6289ZM9.31641 17.6875C8.88281 17.6875 8.625 17.418 8.625 16.9609V10.5156C8.625 10.1172 8.85938 9.78906 9.31641 9.78906H10.9219C12.3281 9.78906 13.0195 11.1016 13.0195 12.4258C13.0195 13.9141 12.1875 15.0508 10.8281 15.0508H10.0195V16.9609C10.0195 17.418 9.75 17.6875 9.31641 17.6875ZM10.0195 13.9375H10.5586C11.3203 13.9375 11.6016 13.2344 11.6016 12.4258C11.6016 11.6289 11.3438 10.9141 10.5586 10.9141H10.0195V13.9375ZM15.8672 17.6641C15.4453 17.6641 15.1523 17.3359 15.1523 16.8906V11.4063L14.5898 11.875C14.4961 11.9453 14.3438 12.0039 14.2148 12.0039C13.8984 12.0039 13.6523 11.7695 13.6523 11.4414C13.6523 11.2422 13.7812 11.043 13.9805 10.8672L14.8594 10.1055C15.2109 9.82422 15.4688 9.68359 15.7969 9.68359C16.2656 9.68359 16.6055 10.0234 16.6055 10.4805V16.8906C16.6055 17.3359 16.3008 17.6641 15.8672 17.6641ZM18.1758 17.582C17.8008 17.582 17.5078 17.3359 17.5078 16.9375C17.5078 16.75 17.5547 16.5742 17.7891 16.2461L19.2188 14.1133C19.7812 13.3047 20.1445 12.5898 20.1445 11.8984C20.1445 11.3125 19.957 10.8555 19.4883 10.8555C19.0781 10.8555 18.9023 11.2305 18.7969 11.7461C18.7031 12.1797 18.4922 12.3789 18.1289 12.3789C17.7422 12.3789 17.4961 12.0859 17.4961 11.7227C17.4961 10.8555 18.2812 9.61328 19.5 9.61328C20.7891 9.61328 21.5391 10.5391 21.5391 11.875C21.5391 12.8828 20.9883 13.8086 20.3906 14.6523L19.2422 16.3281H21.0469C21.3633 16.3281 21.6445 16.5977 21.6445 16.9492C21.6445 17.2891 21.3633 17.582 21.0469 17.582H18.1758ZM24.4219 17.7227C22.8867 17.7227 22.2305 16.4922 22.2305 15.7305C22.2305 15.4258 22.4414 15.0742 22.8984 15.0742C23.2852 15.0742 23.4609 15.3555 23.543 15.5898C23.6953 16.1992 24 16.4688 24.4219 16.4688C24.9727 16.4688 25.207 16.0234 25.207 15.332C25.207 14.5586 24.9375 14.1719 24.2109 14.1719H24C23.6602 14.1719 23.4141 13.9141 23.4141 13.5742C23.4141 13.2461 23.6602 13 24 13H24.2109C24.8203 13 25.0664 12.4492 25.0664 11.8867C25.0664 11.2656 24.8086 10.8672 24.375 10.8672C23.9883 10.8672 23.7773 11.1953 23.6367 11.7344C23.5312 12.0859 23.2969 12.2617 22.957 12.2617C22.5938 12.2617 22.3359 11.9922 22.3359 11.6289C22.3359 10.5156 23.2148 9.63672 24.375 9.63672C25.7695 9.63672 26.4375 10.6914 26.4375 11.7695C26.4375 12.4727 26.1094 13.1641 25.6172 13.5039C26.2852 13.7617 26.625 14.5234 26.625 15.3672C26.625 16.7031 25.7578 17.7227 24.4219 17.7227Z" fill="white"/>
</svg>
