<svg width="28" height="29" viewBox="0 0 28 29" fill="none" xmlns="http://www.w3.org/2000/svg">
<g clip-path="url(#clip0_2124_24747)">
<path d="M22.957 6.28125C22.957 2.625 20.7305 0 17.2617 0C13.7812 0 11.5547 2.625 11.5547 6.28125V22.3359C11.5547 25.9805 13.7812 28.6055 17.2617 28.6055C20.7305 28.6055 22.957 25.9805 22.957 22.3359V6.28125ZM21.0703 22.3359C21.0703 24.832 19.582 26.7188 17.2617 26.7188C14.9297 26.7188 13.4414 24.832 13.4414 22.3359V6.28125C13.4414 3.78516 14.9297 1.88672 17.2617 1.88672C19.582 1.88672 21.0703 3.78516 21.0703 6.28125V22.3359ZM27.5859 6.28125C27.5859 2.44922 25.0547 0 21.082 0H17.2617V1.88672H21.082C23.8828 1.88672 25.6992 3.60938 25.6992 6.28125V22.3359C25.6992 25.0078 23.8828 26.7188 21.082 26.7188H17.2617V28.6055H21.082C25.0547 28.6055 27.5859 26.1562 27.5859 22.3359V6.28125Z" fill="black" fill-opacity="0.85"/>
<path d="M14.918 16.0664C16.0195 15.0703 16.0078 13.5234 14.918 12.5391L11.3672 9.38672C9.76172 7.93359 7.33594 9 7.33594 11.168V11.9062H2.41406C1.06641 11.9062 0 12.9727 0 14.3203C0 15.6445 1.06641 16.7227 2.41406 16.7227H7.33594V17.4375C7.33594 19.6523 9.79688 20.6484 11.3789 19.207L14.918 16.0664Z" fill="white"/>
<path d="M14.0977 15.1758C14.6953 14.6719 14.6836 13.9219 14.0977 13.4297L10.5586 10.2773C9.71484 9.55077 8.55469 10.043 8.55469 11.168V13.1133H2.41406C1.73438 13.1133 1.20703 13.6406 1.20703 14.3203C1.20703 14.9766 1.73438 15.5039 2.41406 15.5039H8.55469V17.4375C8.55469 18.5977 9.75 19.043 10.5586 18.3164L14.0977 15.1758Z" fill="black" fill-opacity="0.85"/>
</g>
<defs>
<clipPath id="clip0_2124_24747">
<rect width="27.5859" height="28.6523" fill="white"/>
</clipPath>
</defs>
</svg>
