<svg width="33" height="28" viewBox="0 0 33 28" fill="none" xmlns="http://www.w3.org/2000/svg">
<g clip-path="url(#clip0_2124_88729)">
<path d="M8.35547 19.4102H10.0664C10.8047 19.4102 11.3789 18.9648 11.543 18.2617L11.8711 16.7734C11.9062 16.7617 11.9531 16.7383 11.9883 16.7266L13.3125 17.5234C13.9102 17.875 14.6484 17.8047 15.1523 17.3008L16.3477 16.0938C16.875 15.5664 16.9453 14.8398 16.5703 14.2422L15.7617 12.9648C15.7734 12.918 15.7969 12.8828 15.8086 12.8359L17.2734 12.4844C17.9648 12.3203 18.4219 11.7344 18.4219 10.9961V9.40234C18.4219 8.67578 17.9766 8.08984 17.2734 7.91406L15.8086 7.5625C15.7969 7.51562 15.7734 7.48047 15.7617 7.43359L16.5703 6.15625C16.9453 5.55859 16.875 4.84375 16.3477 4.30469L15.1523 3.10938C14.6484 2.60547 13.9102 2.52344 13.3125 2.88672L11.9883 3.67188C11.9414 3.66016 11.9062 3.64844 11.8594 3.63672L11.543 2.13672C11.3906 1.44531 10.8047 1 10.0664 1H8.35547C7.61719 1 7.04297 1.44531 6.87891 2.13672L6.55078 3.63672C6.50391 3.64844 6.46875 3.66016 6.42188 3.67188L5.10938 2.88672C4.51172 2.52344 3.77344 2.60547 3.26953 3.10938L2.07422 4.30469C1.54688 4.84375 1.48828 5.57031 1.85156 6.15625L2.66016 7.43359C2.64844 7.48047 2.625 7.51562 2.61328 7.5625L1.13672 7.91406C0.445312 8.08984 0 8.67578 0 9.40234V10.9961C0 11.7344 0.445312 12.3203 1.13672 12.4844L2.61328 12.8359C2.625 12.8828 2.64844 12.918 2.66016 12.9648L1.85156 14.2422C1.47656 14.8398 1.54688 15.5664 2.07422 16.0938L3.26953 17.3008C3.77344 17.8047 4.5 17.875 5.09766 17.5234L6.43359 16.7266C6.46875 16.7383 6.51562 16.7617 6.55078 16.7734L6.87891 18.2617C7.04297 18.9648 7.61719 19.4102 8.35547 19.4102ZM8.57812 17.7695C8.46094 17.7695 8.40234 17.7109 8.36719 17.5938L7.86328 15.4961C7.30078 15.3672 6.78516 15.1094 6.375 14.8867L4.54688 16C4.42969 16.0703 4.34766 16.0586 4.26562 15.9766L3.375 15.0977C3.29297 15.0156 3.28125 14.9453 3.35156 14.8281L4.45312 13.0117C4.3125 12.6602 4.00781 12.1328 3.86719 11.5234L1.80469 11.0312C1.6875 11.0078 1.62891 10.9375 1.62891 10.8203V9.57812C1.62891 9.46094 1.6875 9.40234 1.80469 9.37891L3.86719 8.88672C4.00781 8.26562 4.3125 7.75 4.45312 7.38672L3.35156 5.57031C3.28125 5.46484 3.29297 5.39453 3.375 5.30078L4.26562 4.43359C4.34766 4.35156 4.42969 4.33984 4.54688 4.39844L6.375 5.51172C6.78516 5.28906 7.30078 5.03125 7.86328 4.90234L8.36719 2.81641C8.40234 2.69922 8.46094 2.64062 8.57812 2.64062H9.84375C9.96094 2.64062 10.0195 2.69922 10.0547 2.81641L10.5586 4.90234C11.1211 5.03125 11.6367 5.28906 12.0469 5.51172L13.875 4.39844C13.9805 4.33984 14.0742 4.35156 14.1562 4.43359L15.0469 5.30078C15.1289 5.39453 15.1406 5.46484 15.0703 5.57031L13.9688 7.38672C14.1094 7.75 14.4141 8.26562 14.5547 8.88672L16.6172 9.37891C16.7344 9.40234 16.793 9.46094 16.793 9.57812V10.8203C16.793 10.9375 16.7344 11.0078 16.6172 11.0312L14.5547 11.5234C14.4141 12.1328 14.1094 12.6602 13.9688 13.0117L15.0703 14.8281C15.1406 14.9453 15.1289 15.0156 15.0469 15.0977L14.1562 15.9766C14.0742 16.0586 13.9805 16.0703 13.875 16L12.0469 14.8867C11.6367 15.1094 11.1211 15.3672 10.5586 15.4961L10.0547 17.5938C10.0195 17.7109 9.96094 17.7695 9.84375 17.7695H8.57812ZM9.21094 13.7617C11.1445 13.7617 12.7383 12.1562 12.7383 10.1992C12.7383 8.26562 11.1445 6.67188 9.21094 6.67188C7.24219 6.67188 5.66016 8.26562 5.66016 10.1992C5.66016 12.1445 7.24219 13.7617 9.21094 13.7617ZM9.21094 12.0273C8.21484 12.0273 7.38281 11.2188 7.38281 10.1992C7.38281 9.21484 8.21484 8.39453 9.21094 8.39453C10.1953 8.39453 11.0039 9.21484 11.0039 10.1992C11.0039 11.207 10.1953 12.0273 9.21094 12.0273ZM23.7305 26.4766H25.0781C25.7461 26.4766 26.3086 26.0898 26.4141 25.4805L26.6367 24.2969C26.6953 24.2852 26.7305 24.2734 26.7656 24.2617L27.7617 24.8828C28.3008 25.2227 28.9688 25.1523 29.4375 24.6602L30.3867 23.7109C30.8555 23.2305 30.9492 22.5625 30.5859 22.0234L29.9531 21.0625C29.9648 21.0156 29.9766 20.9922 30 20.9453L31.1602 20.6992C31.7578 20.5703 32.1562 20.0312 32.1562 19.3633V18.0508C32.1562 17.3945 31.7578 16.8438 31.1602 16.7148L30 16.4805C29.9766 16.4336 29.9648 16.3984 29.9531 16.3516L30.5859 15.3906C30.9492 14.8516 30.8555 14.1953 30.3867 13.7148L29.4375 12.7539C28.9688 12.2734 28.3008 12.1914 27.7617 12.5312L26.7656 13.1523C26.7305 13.1406 26.6953 13.1289 26.6367 13.1172L26.4141 11.9453C26.3086 11.3242 25.7461 10.9375 25.0781 10.9375H23.7305C23.0625 10.9375 22.5 11.3242 22.3828 11.9453L22.1602 13.1172C22.1133 13.1289 22.0781 13.1406 22.0312 13.1523L21.0352 12.5312C20.4961 12.1914 19.8398 12.2734 19.3711 12.7539L18.4219 13.7148C17.9531 14.1953 17.8594 14.8516 18.2109 15.3906L18.8438 16.3516C18.832 16.3984 18.8203 16.4336 18.8086 16.4805L17.6484 16.7148C17.0391 16.8438 16.6406 17.3945 16.6406 18.0508V19.3633C16.6406 20.0312 17.0391 20.5703 17.6484 20.6992L18.8086 20.9453C18.8203 20.9922 18.832 21.0156 18.8438 21.0625L18.2109 22.0234C17.8594 22.5625 17.9531 23.2305 18.4219 23.7109L19.3711 24.6602C19.8398 25.1523 20.4961 25.2227 21.0352 24.8828L22.0312 24.2617C22.0781 24.2734 22.1133 24.2852 22.1602 24.2969L22.3828 25.4805C22.5 26.0898 23.0625 26.4766 23.7305 26.4766ZM24.0352 24.918C23.8945 24.918 23.8242 24.8477 23.7891 24.7305L23.3789 23.043C22.9102 22.9375 22.4883 22.7734 22.043 22.4805L20.5664 23.4062C20.4727 23.4648 20.3555 23.4531 20.2617 23.3711L19.7344 22.8203C19.6289 22.7148 19.6172 22.6211 19.6875 22.5156L20.5781 21.0742C20.4844 20.793 20.168 20.2891 20.0508 19.7148L18.375 19.3281C18.2578 19.3047 18.1875 19.2109 18.1875 19.0938V18.3203C18.1875 18.2031 18.2578 18.1094 18.375 18.0859L20.0508 17.6992C20.168 17.125 20.4844 16.6328 20.5781 16.3398L19.6875 14.8984C19.6172 14.8047 19.6289 14.6992 19.7344 14.5938L20.2617 14.0547C20.3555 13.9609 20.4727 13.9492 20.5664 14.0195L22.043 14.9336C22.4883 14.6523 22.9102 14.4766 23.3789 14.3711L23.7891 12.6836C23.8242 12.5664 23.8945 12.4961 24.0352 12.4961H24.7617C24.9023 12.4961 24.9727 12.5664 25.0078 12.6836L25.418 14.3711C25.8867 14.4766 26.3086 14.6523 26.7539 14.9336L28.2305 14.0195C28.3359 13.9492 28.4414 13.9609 28.5352 14.0547L29.0742 14.5938C29.168 14.6992 29.1797 14.8047 29.1211 14.8984L28.2188 16.3398C28.3242 16.6328 28.6289 17.125 28.7461 17.6992L30.4219 18.0859C30.5391 18.1094 30.6094 18.2031 30.6094 18.3203V19.0938C30.6094 19.2109 30.5391 19.3047 30.4219 19.3281L28.7461 19.7148C28.6289 20.2891 28.3242 20.793 28.2188 21.0742L29.1211 22.5156C29.1797 22.6211 29.168 22.7148 29.0742 22.8203L28.5352 23.3711C28.4414 23.4531 28.3359 23.4648 28.2305 23.4062L26.7539 22.4805C26.3086 22.7734 25.8867 22.9375 25.418 23.043L25.0078 24.7305C24.9727 24.8477 24.9023 24.918 24.7617 24.918H24.0352ZM24.3984 21.4609C25.8984 21.4609 27.1406 20.2188 27.1406 18.707C27.1406 17.207 25.8984 15.9766 24.3984 15.9766C22.875 15.9766 21.6445 17.207 21.6445 18.707C21.6445 20.207 22.875 21.4609 24.3984 21.4609ZM24.3984 19.9844C23.6953 19.9844 23.1328 19.4102 23.1328 18.707C23.1328 18.0156 23.6953 17.4648 24.3984 17.4648C25.0664 17.4648 25.6406 18.0156 25.6406 18.707C25.6406 19.3984 25.0664 19.9844 24.3984 19.9844Z" fill="black" fill-opacity="0.85"/>
</g>
<defs>
<clipPath id="clip0_2124_88729">
<rect width="32.1562" height="25.4883" fill="white" transform="translate(0 1)"/>
</clipPath>
</defs>
</svg>
