<svg width="28" height="28" viewBox="0 0 28 28" fill="none" xmlns="http://www.w3.org/2000/svg">
<g clip-path="url(#clip0_2124_40875)">
<path d="M9.21484 9.81641C11.3477 9.81641 13.1289 8.04688 13.1289 5.91406C13.1289 3.78125 11.3477 2 9.21484 2C7.08203 2 5.30078 3.78125 5.30078 5.91406C5.30078 8.04688 7.08203 9.81641 9.21484 9.81641ZM9.21484 7.92969C8.11328 7.92969 7.1875 7.00391 7.1875 5.91406C7.1875 4.8125 8.11328 3.88672 9.21484 3.88672C10.3164 3.88672 11.2422 4.8125 11.2422 5.91406C11.2422 7.00391 10.3164 7.92969 9.21484 7.92969ZM17.8047 9.81641C19.9375 9.81641 21.7188 8.04688 21.7188 5.91406C21.7188 3.78125 19.9375 2 17.8047 2C15.6719 2 13.8906 3.78125 13.8906 5.91406C13.8906 8.04688 15.6719 9.81641 17.8047 9.81641ZM17.8047 7.92969C16.7031 7.92969 15.7773 7.00391 15.7773 5.91406C15.7773 4.8125 16.7031 3.88672 17.8047 3.88672C18.9062 3.88672 19.832 4.8125 19.832 5.91406C19.832 7.00391 18.9062 7.92969 17.8047 7.92969ZM4.91406 17.5273C7.05859 17.5273 8.83984 15.7461 8.83984 13.6133C8.83984 11.4805 7.05859 9.69922 4.91406 9.69922C2.78125 9.69922 1 11.4805 1 13.6133C1 15.7461 2.78125 17.5273 4.91406 17.5273ZM4.91406 15.6406C3.8125 15.6406 2.88672 14.7148 2.88672 13.6133C2.88672 12.5117 3.8125 11.5859 4.91406 11.5859C6.01562 11.5859 6.95312 12.5117 6.95312 13.6133C6.95312 14.7148 6.01562 15.6406 4.91406 15.6406ZM22.1055 17.5273C24.2383 17.5273 26.0195 15.7461 26.0195 13.6133C26.0195 11.4805 24.2383 9.69922 22.1055 9.69922C19.9727 9.69922 18.1797 11.4805 18.1797 13.6133C18.1797 15.7461 19.9727 17.5273 22.1055 17.5273ZM22.1055 15.6406C21.0039 15.6406 20.0664 14.7148 20.0664 13.6133C20.0664 12.5117 21.0039 11.5859 22.1055 11.5859C23.207 11.5859 24.1328 12.5117 24.1328 13.6133C24.1328 14.7148 23.207 15.6406 22.1055 15.6406ZM9.21484 25.2266C11.3477 25.2266 13.1289 23.4453 13.1289 21.3125C13.1289 19.168 11.3477 17.3984 9.21484 17.3984C7.08203 17.3984 5.30078 19.168 5.30078 21.3125C5.30078 23.4453 7.08203 25.2266 9.21484 25.2266ZM9.21484 23.3398C8.11328 23.3398 7.1875 22.4141 7.1875 21.3125C7.1875 20.2109 8.11328 19.2852 9.21484 19.2852C10.3164 19.2852 11.2422 20.2109 11.2422 21.3125C11.2422 22.4141 10.3164 23.3398 9.21484 23.3398ZM17.8047 25.2266C19.9375 25.2266 21.7188 23.4453 21.7188 21.3125C21.7188 19.168 19.9375 17.3984 17.8047 17.3984C15.6719 17.3984 13.8906 19.168 13.8906 21.3125C13.8906 23.4453 15.6719 25.2266 17.8047 25.2266ZM17.8047 23.3398C16.7031 23.3398 15.7773 22.4141 15.7773 21.3125C15.7773 20.2109 16.7031 19.2852 17.8047 19.2852C18.9062 19.2852 19.832 20.2109 19.832 21.3125C19.832 22.4141 18.9062 23.3398 17.8047 23.3398Z" fill="black" fill-opacity="0.85"/>
</g>
<defs>
<clipPath id="clip0_2124_40875">
<rect width="25.0195" height="23.2383" fill="white" transform="translate(1 2)"/>
</clipPath>
</defs>
</svg>
