<svg width="28" height="28" viewBox="0 0 28 28" fill="none" xmlns="http://www.w3.org/2000/svg">
<path d="M13.9531 25.9062C20.4922 25.9062 25.9062 20.4805 25.9062 13.9531C25.9062 7.41406 20.4805 2 13.9414 2C7.41406 2 2 7.41406 2 13.9531C2 20.4805 7.42578 25.9062 13.9531 25.9062ZM13.9531 23.9141C8.42188 23.9141 4.00391 19.4844 4.00391 13.9531C4.00391 8.42188 8.41016 3.99219 13.9414 3.99219C19.4727 3.99219 23.9141 8.42188 23.9141 13.9531C23.9141 19.4844 19.4844 23.9141 13.9531 23.9141Z" fill="black" fill-opacity="0.85"/>
<path d="M10.1797 15.5234H17.1641C18.9805 15.5234 20.375 14.1172 20.375 12.3945C20.375 10.6016 18.9102 9.28906 17.0117 9.28906C16.2969 7.90625 14.9961 7.00391 13.3789 7.00391C11.2695 7.00391 9.52344 8.66797 9.32422 10.7656C8.31641 11.0586 7.54297 11.9375 7.54297 13.1211C7.54297 14.4453 8.50391 15.5234 10.1797 15.5234ZM10.0391 18.8516L10.8711 17.4102C11.0117 17.1641 10.9297 16.8242 10.6719 16.6836C10.4141 16.5312 10.0977 16.625 9.94531 16.8828L9.11328 18.3125C8.96094 18.5703 9.04297 18.9102 9.3125 19.0508C9.57031 19.2031 9.88672 19.1094 10.0391 18.8516ZM11.6914 20.6562L13.5781 17.4102C13.7188 17.1523 13.6367 16.8242 13.3672 16.6836C13.1211 16.5312 12.8047 16.6133 12.6523 16.8828L10.7656 20.1289C10.625 20.375 10.707 20.7148 10.9766 20.8555C11.2227 21.0078 11.5391 20.9141 11.6914 20.6562ZM15.4297 18.8516L16.2617 17.4102C16.4141 17.1641 16.332 16.8242 16.0625 16.6836C15.8164 16.5312 15.4883 16.625 15.3477 16.8828L14.5039 18.3125C14.3633 18.5703 14.4453 18.9102 14.7148 19.0508C14.9609 19.2031 15.2773 19.1094 15.4297 18.8516ZM17.082 20.6562L18.9688 17.4102C19.1211 17.1523 19.0273 16.8242 18.7695 16.6836C18.5117 16.5312 18.1953 16.6133 18.043 16.8828L16.168 20.1289C16.0156 20.375 16.0977 20.7148 16.3672 20.8555C16.6133 21.0078 16.9414 20.9141 17.082 20.6562Z" fill="black" fill-opacity="0.85"/>
</svg>
