<svg width="33" height="28" viewBox="0 0 33 28" fill="none" xmlns="http://www.w3.org/2000/svg">
<path d="M2.56641 18.5898C3.97266 18.5898 5.12109 17.4531 5.12109 16.0352C5.12109 14.6172 3.97266 13.4688 2.56641 13.4688C1.14844 13.4688 0 14.6172 0 16.0352C0 17.4531 1.14844 18.5898 2.56641 18.5898ZM5.35547 19.4102C4.89844 20.582 5.34375 21.7891 6.31641 22.4688C7.89844 23.5703 9.375 23.9805 11.7305 23.9805H15.4688C18.3516 23.9805 19.125 21.7188 18.1406 19.8203L15.1289 14.0078V5.21875C15.1289 4.52734 14.5898 4 13.8867 4C13.207 4 12.6914 4.52734 12.6914 5.21875V14.3008C12.6914 14.4648 12.7031 14.5938 12.7383 14.7109L14.4375 19.5742H12.2344C10.8164 19.5742 9.99609 19.1758 8.88281 18.5078C8.58984 18.332 8.50781 18.0625 8.63672 17.7227L11.3672 10.7383C11.6133 10.1172 11.2969 9.39062 10.6641 9.15625C10.0078 8.91016 9.32812 9.21484 9.08203 9.85938L5.35547 19.4102ZM19.7461 22.082L24.082 20.6641L31.0078 19.4102C31.6758 19.293 32.1211 18.6836 32.0039 17.9922C31.875 17.3242 31.2422 16.8906 30.5742 17.0078L23.332 18.3203L19.1484 19.082L19.2422 19.2461C19.8047 20.1836 19.8984 21.2148 19.7461 22.082Z" fill="black" fill-opacity="0.85"/>
</svg>
