<svg width="28" height="28" viewBox="0 0 28 28" fill="none" xmlns="http://www.w3.org/2000/svg">
<g clip-path="url(#clip0_2124_89403)">
<path d="M13.9531 25.9062C20.4922 25.9062 25.9062 20.4805 25.9062 13.9531C25.9062 7.41406 20.4805 2 13.9414 2C7.41406 2 2 7.41406 2 13.9531C2 20.4805 7.42578 25.9062 13.9531 25.9062Z" fill="black" fill-opacity="0.85"/>
<path d="M6.17188 16.6484C6.17188 16.2031 6.21875 15.793 6.46484 15.1953L9.00781 9.30078C9.34766 8.51562 10.0742 8.04688 10.9883 8.04688C12.1719 8.04688 12.9336 8.79688 12.9336 9.91016V10.5312C13.2383 10.4258 13.5898 10.3789 13.9414 10.3789C14.3164 10.3789 14.6562 10.4141 14.9492 10.5078V9.91016C14.9492 8.79688 15.7109 8.04688 16.8945 8.04688C17.8086 8.04688 18.5469 8.51562 18.8867 9.30078L21.418 15.1953C21.6523 15.793 21.7109 16.2031 21.7109 16.6484C21.7109 18.3477 20.1992 19.625 18.3242 19.625C16.4727 19.625 14.9492 18.3477 14.9492 16.6484V15.0312C14.6797 14.9375 14.3398 14.8906 13.9414 14.8906C13.5781 14.8906 13.2148 14.9609 12.9336 15.0781V16.6484C12.9336 18.3477 11.4102 19.625 9.54688 19.625C7.67188 19.625 6.17188 18.3477 6.17188 16.6484ZM7.42578 16.6484C7.42578 17.6797 8.28124 18.3945 9.54688 18.3945C10.8359 18.3945 11.7031 17.6797 11.7031 16.6484C11.7031 15.6055 10.8359 14.8906 9.54688 14.8906C8.28124 14.8906 7.42578 15.6055 7.42578 16.6484ZM16.168 16.6484C16.168 17.6797 17.0469 18.3945 18.3242 18.3945C19.5898 18.3945 20.457 17.6797 20.457 16.6484C20.457 15.6055 19.5898 14.8906 18.3242 14.8906C17.0469 14.8906 16.168 15.6055 16.168 16.6484ZM12.9336 13.2617C13.2148 13.1211 13.5781 13.0625 13.9414 13.0625C14.3398 13.0625 14.6797 13.1094 14.9492 13.1914V12.3359C14.6562 12.2539 14.3164 12.207 13.9414 12.207C13.5898 12.207 13.2266 12.2656 12.9336 12.3594V13.2617Z" fill="white"/>
</g>
<defs>
<clipPath id="clip0_2124_89403">
<rect width="23.9062" height="23.918" fill="white" transform="translate(2 2)"/>
</clipPath>
</defs>
</svg>
