<svg width="28" height="28" viewBox="0 0 28 28" fill="none" xmlns="http://www.w3.org/2000/svg">
<g clip-path="url(#clip0_2124_49962)">
<path d="M3 26.0195C3 26.5586 3.44531 26.9922 3.97266 26.9922C4.51172 26.9922 4.95703 26.5586 4.95703 26.0195V1.97266C4.95703 1.43359 4.51172 1 3.97266 1C3.44531 1 3 1.43359 3 1.97266V26.0195Z" fill="black" fill-opacity="0.85"/>
<path d="M23.8594 26.3242L20.3438 22.1289C19.9922 21.7188 19.9453 21.625 19.8047 21.1914L19.5469 20.3945L21.4336 18.0273L21.9961 20.6758L25.4766 24.8008C26.5781 26.125 24.7734 27.4141 23.8594 26.3242ZM15.2812 25.9727C14.5664 27.4375 12.3984 26.5352 13.1836 24.9414L15.5742 20.1016C15.7617 19.7383 16.0195 19.3398 16.2422 19.0234L17.7539 16.8789L17.6484 16.5625C17.2383 15.3438 17.0859 14.6172 17.0039 13.4102L16.7695 10.0234C16.6523 8.41797 17.6016 7.19922 19.2422 7.19922C20.4844 7.19922 21.3164 7.82031 22.4531 8.93359L24.2461 10.7031C24.832 11.2773 25.0195 11.7461 25.0781 12.5078L25.3008 15.2734C25.3594 15.9766 24.9727 16.4688 24.3164 16.4922C23.6602 16.5391 23.2617 16.1523 23.2031 15.4023L22.9453 12.3672L22.0781 11.5938C21.7734 11.3125 21.3633 11.5 21.3867 11.8164L21.5742 14.3828C21.6797 15.6836 21.375 16.3047 20.4727 17.418L18.1055 20.3945C17.8594 20.6992 17.8359 20.8164 17.7305 21.0039L15.2812 25.9727ZM11.2148 11.7695H13.9102L15.6211 9.88281L15.8203 12.707L15.1406 13.3867C14.7656 13.7617 14.4258 13.8789 13.7344 13.8789H11.2148C10.5 13.8789 10.043 13.4805 10.043 12.8242C10.043 12.1914 10.5117 11.7695 11.2148 11.7695ZM17.9414 6.14453C16.5234 6.14453 15.3867 4.99609 15.3867 3.58984C15.3867 2.17188 16.5234 1.03516 17.9414 1.03516C19.3594 1.03516 20.4961 2.17188 20.4961 3.58984C20.4961 4.99609 19.3594 6.14453 17.9414 6.14453Z" fill="black" fill-opacity="0.85"/>
</g>
<defs>
<clipPath id="clip0_2124_49962">
<rect width="22.8221" height="26.4492" fill="white" transform="translate(3 1)"/>
</clipPath>
</defs>
</svg>
