<svg width="28" height="28" viewBox="0 0 28 28" fill="none" xmlns="http://www.w3.org/2000/svg">
<path d="M13.9531 25.9062C20.4922 25.9062 25.9062 20.4805 25.9062 13.9531C25.9062 7.41406 20.4805 2 13.9414 2C7.41406 2 2 7.41406 2 13.9531C2 20.4805 7.42578 25.9062 13.9531 25.9062ZM13.9531 23.9141C8.42188 23.9141 4.00391 19.4844 4.00391 13.9531C4.00391 8.42188 8.41016 3.99219 13.9414 3.99219C19.4727 3.99219 23.9141 8.42188 23.9141 13.9531C23.9141 19.4844 19.4844 23.9141 13.9531 23.9141Z" fill="black" fill-opacity="0.85"/>
<path d="M15.8987 8.89062C16.7425 8.89062 17.4222 8.21094 17.4222 7.36719C17.4222 6.53516 16.7425 5.84375 15.8987 5.84375C15.055 5.84375 14.3753 6.53516 14.3753 7.36719C14.3753 8.21094 15.055 8.89062 15.8987 8.89062ZM13.5198 14.9727L16.18 16.4727L14.4691 17.9492C14.0941 18.2773 14.0941 18.6875 14.3167 18.9453C14.5628 19.2031 14.973 19.2617 15.3597 18.9336L17.762 16.8711C18.0901 16.6016 18.0315 16.0039 17.6448 15.7344L15.0198 14.0234L15.5355 12.207C15.6058 11.9492 15.9105 11.9023 16.0628 12.1367L16.8362 13.2617C17.012 13.5195 17.3519 13.625 17.6448 13.4844L19.8597 12.5C20.2581 12.3242 20.3987 11.9844 20.223 11.6211C20.0589 11.2695 19.7191 11.1758 19.3323 11.3516L17.5628 12.125L16.3675 10.4492C15.7347 9.58203 14.9495 9.23047 13.6722 9.3125L11.2113 9.5C10.8245 9.52344 10.555 9.79297 10.4964 10.1797L10.18 12.6758C10.1214 13.1094 10.3206 13.4023 10.7191 13.4492C11.1058 13.4844 11.3519 13.2617 11.4105 12.8281L11.7152 10.8008L12.6995 10.7188C12.9222 10.707 13.1214 10.8594 13.0511 11.1289L12.4886 13.1328C12.1487 14.3047 12.9105 14.6328 13.5198 14.9727ZM8.83234 21.0195C9.09015 21.2305 9.48859 21.2656 9.85187 20.9141L12.1136 18.6758C12.3011 18.4883 12.348 18.4414 12.4651 18.1484L13.4144 15.6875L13.1917 15.5586C12.6526 15.2773 12.2776 14.9727 12.0315 14.668L11.1995 17.6094L8.85578 19.9531C8.48078 20.3164 8.55109 20.7617 8.83234 21.0195Z" fill="black" fill-opacity="0.85"/>
</svg>
