<svg width="28" height="28" viewBox="0 0 28 28" fill="none" xmlns="http://www.w3.org/2000/svg">
<path d="M13.9531 25.9062C20.4922 25.9062 25.9062 20.4805 25.9062 13.9531C25.9062 7.41406 20.4805 2 13.9414 2C7.41406 2 2 7.41406 2 13.9531C2 20.4805 7.42578 25.9062 13.9531 25.9062ZM13.9531 23.9141C8.42188 23.9141 4.00391 19.4844 4.00391 13.9531C4.00391 8.42188 8.41016 3.99219 13.9414 3.99219C19.4727 3.99219 23.9141 8.42188 23.9141 13.9531C23.9141 19.4844 19.4844 23.9141 13.9531 23.9141Z" fill="black" fill-opacity="0.85"/>
<path d="M11.2461 19.1797H16.7891C17.2344 19.1797 17.5625 18.8867 17.5625 18.418C17.5625 17.9375 17.2344 17.6445 16.7891 17.6445H12.1953V14.4922H16.4844C16.9297 14.4922 17.2578 14.2344 17.2578 13.7773C17.2578 13.2969 16.9297 13.0273 16.4844 13.0273H12.1953V10.0391H16.7891C17.2344 10.0391 17.5625 9.73438 17.5625 9.26562C17.5625 8.78516 17.2344 8.50391 16.7891 8.50391H11.2461C10.6367 8.50391 10.3203 8.92578 10.3203 9.55859V18.125C10.3203 18.7578 10.6367 19.1797 11.2461 19.1797Z" fill="black" fill-opacity="0.85"/>
</svg>
