<svg width="28" height="28" viewBox="0 0 28 28" fill="none" xmlns="http://www.w3.org/2000/svg">
<path d="M6.67969 24.5977H20.8945C23.3555 24.5977 24.5742 23.3789 24.5742 20.9648V6.65625C24.5742 4.24219 23.3555 3.02344 20.8945 3.02344H6.67969C4.23047 3.02344 3 4.23047 3 6.65625V20.9648C3 23.3906 4.23047 24.5977 6.67969 24.5977ZM6.70312 22.7109C5.53125 22.7109 4.88672 22.0898 4.88672 20.8711V6.75C4.88672 5.53125 5.53125 4.91016 6.70312 4.91016H20.8711C22.0312 4.91016 22.6875 5.53125 22.6875 6.75V20.8711C22.6875 22.0898 22.0312 22.7109 20.8711 22.7109H6.70312Z" fill="black" fill-opacity="0.85"/>
<path d="M10.1133 10.8867C9.59766 10.8867 9.25781 11.2734 9.25781 11.8242V17.3555C9.25781 18.0469 9.63281 18.3164 10.2305 18.3164H15.7852C16.3359 18.3164 16.6875 17.9766 16.6875 17.4609C16.6875 16.9453 16.3242 16.6055 15.7617 16.6055H13.6289L11.8945 16.793L13.7227 15.082L18.0469 10.7695C18.2109 10.6055 18.3281 10.3711 18.3281 10.1367C18.3281 9.60938 17.9766 9.26953 17.4609 9.26953C17.1797 9.26953 16.9688 9.375 16.793 9.53906L12.4805 13.8516L10.793 15.6562L10.9688 13.8281V11.8008C10.9688 11.2383 10.6289 10.8867 10.1133 10.8867Z" fill="black" fill-opacity="0.85"/>
</svg>
