<svg width="28" height="28" viewBox="0 0 28 28" fill="none" xmlns="http://www.w3.org/2000/svg">
<path d="M6.67969 24.5977H20.8945C23.3555 24.5977 24.5742 23.3789 24.5742 20.9648V6.65625C24.5742 4.24219 23.3555 3.02344 20.8945 3.02344H6.67969C4.23047 3.02344 3 4.23047 3 6.65625V20.9648C3 23.3906 4.23047 24.5977 6.67969 24.5977Z" fill="black" fill-opacity="0.85"/>
<path d="M15.01 17.6602C14.2483 18.4688 13.3694 18.4688 12.6077 17.6602L7.87334 12.6328C7.49834 12.2461 7.49834 11.6953 7.82646 11.3438C8.20146 10.957 8.7874 10.957 9.12725 11.3203L13.8147 16.2773L18.4905 11.3203C18.8303 10.957 19.4045 10.9688 19.7913 11.3438C20.1311 11.6836 20.1194 12.2461 19.7444 12.6328L15.01 17.6602Z" fill="white"/>
</svg>
