<svg width="28" height="28" viewBox="0 0 28 28" fill="none" xmlns="http://www.w3.org/2000/svg">
<path d="M6.67969 24.5977H20.8945C23.3555 24.5977 24.5742 23.3789 24.5742 20.9648V6.65625C24.5742 4.24219 23.3555 3.02344 20.8945 3.02344H6.67969C4.23047 3.02344 3 4.23047 3 6.65625V20.9648C3 23.3906 4.23047 24.5977 6.67969 24.5977Z" fill="black" fill-opacity="0.85"/>
<path d="M8.87109 16.2891C8.87109 15.9492 9.09375 15.6797 9.45703 15.6797H10.5L10.8398 14.6602H9.45703C9.09375 14.6602 8.87109 14.4023 8.87109 14.0625C8.87109 13.7227 9.09375 13.4648 9.45703 13.4648H11.2383L12.832 8.625C12.9844 8.17969 13.2773 7.92188 13.7812 7.92188C14.2734 7.92188 14.5664 8.19141 14.7188 8.625L16.3242 13.4648H18.1172C18.4805 13.4648 18.7031 13.7227 18.7031 14.0625C18.7031 14.4023 18.4805 14.6602 18.1172 14.6602H16.7227L17.0625 15.6797H18.1172C18.4805 15.6797 18.7031 15.9492 18.7031 16.2891C18.7031 16.6289 18.4805 16.875 18.1172 16.875H17.4492L18.0352 18.6445C18.0938 18.832 18.1289 18.9492 18.1289 19.0547C18.1289 19.4648 17.8008 19.7695 17.332 19.7695C16.9336 19.7695 16.6875 19.5938 16.5703 19.1836L15.8438 16.875H11.7305L11.0039 19.1719C10.8867 19.582 10.6172 19.7695 10.2422 19.7695C9.77344 19.7695 9.44531 19.4648 9.44531 19.0547C9.44531 18.9492 9.45703 18.832 9.52734 18.6445L10.1133 16.875H9.45703C9.09375 16.875 8.87109 16.6289 8.87109 16.2891ZM12.0938 15.6797H15.4805L15.1523 14.6602H12.4102L12.0938 15.6797ZM12.7734 13.4648H14.7891L13.7812 10.2305L12.7734 13.4648Z" fill="white"/>
</svg>
