<svg width="48" height="29" viewBox="0 0 48 29" fill="none" xmlns="http://www.w3.org/2000/svg">
<g clip-path="url(#clip0_2124_45786)">
<path d="M37.7715 13.9226C40.2793 13.9226 42.4473 11.6726 42.4473 8.74292C42.4473 5.84839 40.2676 3.70386 37.7715 3.70386C35.2637 3.70386 33.084 5.89527 33.084 8.76636C33.084 11.6726 35.252 13.9226 37.7715 13.9226ZM29.8965 24.7742H45.6231C46.8653 24.7742 47.6153 24.1883 47.6153 23.2156C47.6153 20.1922 43.8418 16.0203 37.7598 16.0203C31.6778 16.0203 27.9043 20.1922 27.9043 23.2156C27.9043 24.1883 28.6426 24.7742 29.8965 24.7742Z" fill="black" fill-opacity="0.85"/>
<path d="M16.7481 26.3679H32.4747C34.7364 26.3679 36.0723 24.9734 36.0723 23.2156C36.0723 19.2781 31.5606 14.4265 24.6114 14.4265C17.6622 14.4265 13.1504 19.2781 13.1504 23.2156C13.1504 24.9734 14.4864 26.3679 16.7481 26.3679Z" fill="white"/>
<path d="M24.6231 13.9226C27.1309 13.9226 29.2989 11.6726 29.2989 8.74292C29.2989 5.84839 27.1192 3.70386 24.6231 3.70386C22.1153 3.70386 19.9356 5.89527 19.9356 8.76636C19.9356 11.6726 22.1036 13.9226 24.6231 13.9226ZM16.7481 24.7742H32.4747C33.7286 24.7742 34.4668 24.1883 34.4668 23.2156C34.4668 20.1922 30.6934 16.0203 24.6114 16.0203C18.5411 16.0203 14.7559 20.1922 14.7559 23.2156C14.7559 24.1883 15.5059 24.7742 16.7481 24.7742Z" fill="black" fill-opacity="0.85"/>
<path d="M3.59961 26.3679H19.3145C21.5879 26.3679 22.9239 24.9734 22.9239 23.2156C22.9239 19.2781 18.4004 14.4265 11.4629 14.4265C4.51367 14.4265 0.00195312 19.2781 0.00195312 23.2156C0.00195312 24.9734 1.32617 26.3679 3.59961 26.3679Z" fill="white"/>
<path d="M11.4629 13.9226C13.9825 13.9226 16.1504 11.6726 16.1504 8.74292C16.1504 5.84839 13.9708 3.70386 11.4629 3.70386C8.95507 3.70386 6.77539 5.89527 6.77539 8.76636C6.77539 11.6726 8.95507 13.9226 11.4629 13.9226ZM3.59961 24.7742H19.3145C20.5684 24.7742 21.3184 24.1883 21.3184 23.2156C21.3184 20.1922 17.5332 16.0203 11.4629 16.0203C5.38086 16.0203 1.5957 20.1922 1.5957 23.2156C1.5957 24.1883 2.3457 24.7742 3.59961 24.7742Z" fill="black" fill-opacity="0.85"/>
</g>
<defs>
<clipPath id="clip0_2124_45786">
<rect width="47.6133" height="24.3398" fill="white" transform="translate(0.00195312 2.02808)"/>
</clipPath>
</defs>
</svg>
