<svg width="28" height="28" viewBox="0 0 28 28" fill="none" xmlns="http://www.w3.org/2000/svg">
<path d="M13.9531 25.9062C20.4922 25.9062 25.9062 20.4805 25.9062 13.9531C25.9062 7.41406 20.4805 2 13.9414 2C7.41406 2 2 7.41406 2 13.9531C2 20.4805 7.42578 25.9062 13.9531 25.9062Z" fill="black" fill-opacity="0.85"/>
<path d="M13.9883 19.707C11.4688 19.707 9.76953 18.1133 9.76953 15.793C9.76953 14.4805 10.2969 13.1562 11.5391 11.5039C12.1719 10.6719 12.8984 9.74609 13.6953 8.70312C13.8828 8.46875 14.1172 8.21094 14.5039 8.21094C15.0898 8.21094 15.3359 8.58594 15.3359 8.94922C15.3359 9.18359 15.2305 9.37109 15.043 9.61719C14.457 10.3789 13.6602 11.3633 13.0508 12.1602C12.6758 12.6523 12.5117 12.8633 12.3945 13.0742L12.5117 13.1094C12.9102 12.6992 13.7539 12.3828 14.5742 12.3828C16.6836 12.3828 18.1836 13.8711 18.1836 15.8633C18.1836 18.1133 16.4727 19.707 13.9883 19.707ZM13.9883 18.1836C15.418 18.1836 16.4844 17.2109 16.4844 15.957C16.4844 14.6797 15.418 13.7539 13.9766 13.7539C12.5469 13.7539 11.4805 14.6797 11.4805 15.9336C11.4805 17.2109 12.5586 18.1836 13.9883 18.1836Z" fill="white"/>
</svg>
