<svg width="28" height="28" viewBox="0 0 28 28" fill="none" xmlns="http://www.w3.org/2000/svg">
<g clip-path="url(#clip0_2124_67759)">
<path d="M18.71 2.60842L25.2139 9.12403L25.2725 9.06544C27.0303 7.31936 26.8311 4.54201 25.0615 2.7842C23.292 1.01466 20.5146 0.815445 18.7686 2.54982L18.71 2.60842ZM3.26465 22.3428L5.47949 24.5576L6.94434 23.0928C9.89746 20.1514 13.3545 20.9951 16.4365 17.9131L24.2764 10.0733L17.749 3.54592L9.90918 11.3975C6.68652 14.6201 7.68262 17.9248 4.72949 20.8779L3.26465 22.3428ZM13.7178 14.1631C12.9561 13.4014 12.9795 12.2061 13.7178 11.4678L17.2568 7.90529C17.9951 7.16701 19.1904 7.14357 19.917 7.90529C20.6787 8.62014 20.6787 9.80373 19.917 10.5654L16.3779 14.1396C15.6396 14.8779 14.4443 14.8896 13.7178 14.1631ZM11.1748 15.3115C10.8467 15.0068 10.917 14.5732 11.1748 14.3037C11.4443 14.0225 11.8545 13.999 12.1709 14.3037L13.5303 15.6514C13.8467 15.9561 13.7998 16.3896 13.5303 16.6709C13.2725 16.9287 12.8506 16.9639 12.5225 16.6475L11.1748 15.3115ZM14.5615 13.2959C14.8545 13.5889 15.2881 13.6709 15.6045 13.3662L19.1553 9.79201C19.4717 9.47561 19.3779 9.04201 19.085 8.76076C18.7686 8.46778 18.3232 8.43264 18.0068 8.74904L14.5615 12.2061C14.2568 12.5107 14.2568 12.9912 14.5615 13.2959ZM1.51856 26.3037C2.18652 26.9951 3.07715 26.9951 3.75684 26.3037L4.36621 25.7061L2.12793 23.4678L1.51856 24.0771C0.827148 24.7686 0.827148 25.6475 1.51856 26.3037Z" fill="black" fill-opacity="0.85"/>
</g>
<defs>
<clipPath id="clip0_2124_67759">
<rect width="25.4942" height="25.8223" fill="white" transform="translate(1 1)"/>
</clipPath>
</defs>
</svg>
