<svg width="33" height="30" viewBox="0 0 33 30" fill="none" xmlns="http://www.w3.org/2000/svg">
<g clip-path="url(#clip0_2124_40869)">
<path d="M11.9531 25.1536C18.4805 25.1536 23.9062 19.7396 23.9062 13.2005C23.9062 6.6615 18.4922 1.24744 11.9531 1.24744C5.40234 1.24744 0 6.6615 0 13.2005C0 19.7396 5.41406 25.1536 11.9531 25.1536ZM11.9531 23.1615C6.42188 23.1615 2.00391 18.7318 2.00391 13.2005C2.00391 7.66931 6.39844 3.23963 11.9414 3.23963C17.4961 3.23963 21.9023 7.66931 21.9023 13.2005C21.9023 18.7318 17.4727 23.1615 11.9531 23.1615Z" fill="black" fill-opacity="0.85"/>
<path d="M11.9648 16.7982C13.9336 16.7982 15.5625 15.181 15.5625 13.1888C15.5625 11.22 13.9336 9.60291 11.9648 9.60291C9.98438 9.60291 8.35547 11.22 8.35547 13.1888C8.35547 15.181 9.98438 16.7982 11.9648 16.7982Z" fill="black" fill-opacity="0.85"/>
<path d="M27.6792 28.4701C32.3315 26.7826 33.9253 22.728 32.2026 17.8764L31.605 16.2006C30.6909 13.6342 28.6401 12.7787 27.0815 13.353C26.9761 13.3764 26.894 13.4233 26.8003 13.4819C25.8628 12.9428 24.7261 12.9662 23.8472 13.4819C23.1557 13.06 22.3354 12.978 21.5151 13.2123L20.5307 10.5287C19.9917 9.04047 18.4917 8.34906 17.1206 8.84125C15.7026 9.36859 15.0229 10.8686 15.562 12.3451L17.4136 17.4311L17.3081 17.3373C16.687 17.2084 16.2417 17.2084 15.8784 17.3608C14.519 17.8998 13.8159 19.2944 14.2729 20.6303C14.4018 20.9936 14.6128 21.3334 14.8354 21.6147L17.7534 25.2592C20.73 28.9623 24.3159 29.6889 27.6792 28.4701Z" fill="white"/>
<path d="M27.1287 26.9584C30.9139 25.5873 32.1443 22.4701 30.6912 18.4155L30.0936 16.7397C29.5545 15.2162 28.4646 14.5483 27.6326 14.8412C27.4451 14.9233 27.3865 15.0522 27.4451 15.2397L27.7146 15.978C27.8436 16.3295 27.7146 16.5639 27.5154 16.6459C27.281 16.7162 27.0467 16.6108 26.9178 16.2592L26.7303 15.767C26.4139 14.8764 25.6287 14.5014 24.8436 14.7826C24.492 14.9116 24.3748 15.1108 24.492 15.4155L24.867 16.4233C24.9959 16.7631 24.8787 17.0092 24.6795 17.0795C24.4334 17.1616 24.199 17.0561 24.0701 16.7162L23.7303 15.7787C23.367 14.7592 22.5936 14.5014 21.8436 14.7709C21.5154 14.8998 21.3982 15.1225 21.5037 15.4037L22.2068 17.3842C22.3357 17.7475 22.2186 17.9701 22.0193 18.0522C21.7967 18.1342 21.5506 18.0287 21.4217 17.6655L19.031 11.0795C18.785 10.4233 18.2107 10.1537 17.6717 10.353C17.0857 10.5756 16.8279 11.1381 17.0623 11.7826L20.5896 21.4506C20.6717 21.685 20.5662 21.8725 20.4139 21.9194C20.2732 21.978 20.1209 21.9311 19.9217 21.7319L17.5545 19.1772C17.1912 18.7905 16.8279 18.7084 16.4412 18.8491C15.8436 19.0717 15.6209 19.6225 15.7967 20.1147C15.8553 20.3022 15.9607 20.4662 16.0662 20.5834L18.9959 24.2631C21.492 27.3686 24.3514 27.978 27.1287 26.9584Z" fill="black" fill-opacity="0.85"/>
</g>
<defs>
<clipPath id="clip0_2124_40869">
<rect width="32.8788" height="29.0145" fill="white"/>
</clipPath>
</defs>
</svg>
