<svg width="28" height="28" viewBox="0 0 28 28" fill="none" xmlns="http://www.w3.org/2000/svg">
<g clip-path="url(#clip0_2124_50230)">
<path d="M6.70703 25.6914H20.3359C21.9531 25.6914 23.043 24.5781 23.043 22.8906V3.80078C23.043 2.11328 21.9531 1 20.3359 1H6.70703C5.08984 1 4 2.11328 4 3.80078V22.8906C4 24.5781 5.08984 25.6914 6.70703 25.6914ZM6.80078 23.8047C6.25 23.8047 5.88672 23.4414 5.88672 22.8789V3.8125C5.88672 3.25 6.25 2.88672 6.80078 2.88672H20.2422C20.793 2.88672 21.1562 3.25 21.1562 3.8125V22.8789C21.1562 23.4414 20.793 23.8047 20.2422 23.8047H6.80078ZM12.7539 24.6836H14.2891V1.97266H12.7539V24.6836ZM10.4805 15.0156C11.1602 15.0156 11.7227 14.4648 11.7227 13.7852C11.7227 13.0938 11.1602 12.543 10.4805 12.543C9.80078 12.543 9.23828 13.0938 9.23828 13.7852C9.23828 14.4648 9.80078 15.0156 10.4805 15.0156ZM16.5508 15.0156C17.2305 15.0156 17.793 14.4648 17.793 13.7852C17.793 13.0938 17.2305 12.543 16.5508 12.543C15.8711 12.543 15.3086 13.0938 15.3086 13.7852C15.3086 14.4648 15.8711 15.0156 16.5508 15.0156ZM7.43359 27.8594C8.01953 27.8594 8.40625 27.4609 8.40625 26.875V24.5195H6.46094V26.875C6.46094 27.4609 6.84766 27.8594 7.43359 27.8594ZM19.6094 27.8594C20.1953 27.8594 20.582 27.4609 20.582 26.875V24.5195H18.6367V26.875C18.6367 27.4609 19.0234 27.8594 19.6094 27.8594Z" fill="black" fill-opacity="0.85"/>
</g>
<defs>
<clipPath id="clip0_2124_50230">
<rect width="19.043" height="26.8711" fill="white" transform="translate(4 1)"/>
</clipPath>
</defs>
</svg>
