<svg width="28" height="28" viewBox="0 0 28 28" fill="none" xmlns="http://www.w3.org/2000/svg">
<path d="M13.9531 25.9062C20.4922 25.9062 25.9062 20.4805 25.9062 13.9531C25.9062 7.41406 20.4805 2 13.9414 2C7.41406 2 2 7.41406 2 13.9531C2 20.4805 7.42578 25.9062 13.9531 25.9062ZM13.9531 23.9141C8.42188 23.9141 4.00391 19.4844 4.00391 13.9531C4.00391 8.42188 8.41016 3.99219 13.9414 3.99219C19.4727 3.99219 23.9141 8.42188 23.9141 13.9531C23.9141 19.4844 19.4844 23.9141 13.9531 23.9141Z" fill="black" fill-opacity="0.85"/>
<path d="M11.6094 18.8164C12.0664 18.8164 12.4531 18.4297 12.4531 17.9609V10.0156C12.4531 9.41797 12.0781 9.06641 11.4688 9.06641C10.9766 9.06641 10.5781 9.33594 10.3086 9.54688L9.01953 10.543C8.80859 10.707 8.64453 10.9297 8.64453 11.2344C8.64453 11.5977 8.89062 11.8555 9.25391 11.8555C9.42969 11.8555 9.54688 11.7969 9.66406 11.7148L10.7422 10.8477V17.9609C10.7422 18.4297 11.1289 18.8164 11.6094 18.8164ZM17.0117 18.8164C17.4688 18.8164 17.8555 18.4297 17.8555 17.9609V10.0156C17.8555 9.41797 17.4805 9.06641 16.8711 9.06641C16.3789 9.06641 15.9805 9.33594 15.7109 9.54688L14.4219 10.543C14.2109 10.707 14.0469 10.9297 14.0469 11.2344C14.0469 11.5977 14.293 11.8555 14.6445 11.8555C14.832 11.8555 14.9492 11.7969 15.0664 11.7148L16.1445 10.8477V17.9609C16.1445 18.4297 16.5312 18.8164 17.0117 18.8164Z" fill="black" fill-opacity="0.85"/>
</svg>
