<svg width="28" height="28" viewBox="0 0 28 28" fill="none" xmlns="http://www.w3.org/2000/svg">
<g clip-path="url(#clip0_2124_49998)">
<path d="M9.08984 27.293H19.625C20.0586 27.293 20.3398 26.9766 20.3398 26.5195C20.3398 25.6406 19.625 25.0195 18.5117 25.0195H15.3125V18.6562C20.0234 18.1875 23.7148 14.1914 23.7148 9.36328C23.7148 4.20703 19.5078 0 14.3516 0C9.19531 0 5 4.20703 5 9.36328C5 14.2148 8.70312 18.1992 13.4258 18.668V25.0195H10.1914C9.07812 25.0195 8.36328 25.6406 8.36328 26.5195C8.36328 26.9766 8.64453 27.293 9.08984 27.293Z" fill="black" fill-opacity="0.85"/>
<path d="M11.3867 15.3047C9.75781 15.3047 8.02344 13.3945 8.02344 11.4609C8.02344 10.4297 8.60938 9.87891 9.67578 9.87891H11.7617C11.7266 9.72656 11.7148 9.50391 11.7148 9.32812C9.61719 8.54297 8.45703 7.81641 8.45703 6.42188C8.45703 4.80469 10.3906 3.05859 12.3242 3.05859C13.3555 3.05859 13.9062 3.65625 13.9062 4.71094V6.73828C14.082 6.69141 14.3047 6.69141 14.4805 6.69141C15.2422 4.64062 15.9922 3.51562 17.3516 3.51562C18.9805 3.51562 20.7031 5.4375 20.7031 7.34766C20.7031 8.39062 20.1172 8.94141 19.0625 8.94141H17.0117C17.0234 9.14062 17.0352 9.31641 17.0234 9.50391C19.1094 10.2773 20.2695 11.0039 20.2695 12.4102C20.2695 14.0273 18.3477 15.7617 16.4141 15.7617C15.3828 15.7617 14.832 15.1758 14.832 14.1211V11.9648C14.668 12.0117 14.5039 12.0117 14.3164 12C13.5195 14.1328 12.7812 15.3047 11.3867 15.3047ZM14.3633 10.7461C15.1133 10.7461 15.6992 10.1602 15.6992 9.42188C15.6992 8.66016 15.1133 8.07422 14.3633 8.07422C13.6133 8.07422 13.0273 8.66016 13.0273 9.42188C13.0273 10.1602 13.6133 10.7461 14.3633 10.7461Z" fill="white"/>
</g>
<defs>
<clipPath id="clip0_2124_49998">
<rect width="18.7148" height="27.293" fill="white" transform="translate(5)"/>
</clipPath>
</defs>
</svg>
