<svg width="28" height="28" viewBox="0 0 28 28" fill="none" xmlns="http://www.w3.org/2000/svg">
<path d="M6.67969 24.5977H20.8945C23.3555 24.5977 24.5742 23.3789 24.5742 20.9648V6.65625C24.5742 4.24219 23.3555 3.02344 20.8945 3.02344H6.67969C4.23047 3.02344 3 4.23047 3 6.65625V20.9648C3 23.3906 4.23047 24.5977 6.67969 24.5977ZM6.70312 22.7109C5.53125 22.7109 4.88672 22.0898 4.88672 20.8711V6.75C4.88672 5.53125 5.53125 4.91016 6.70312 4.91016H20.8711C22.0312 4.91016 22.6875 5.53125 22.6875 6.75V20.8711C22.6875 22.0898 22.0312 22.7109 20.8711 22.7109H6.70312Z" fill="black" fill-opacity="0.85"/>
<path d="M16.1143 19.5938C16.4776 19.2305 16.4658 18.668 16.126 18.3398L11.3096 13.793L16.126 9.26954C16.4776 8.94142 16.4658 8.35548 16.1026 8.01563C15.7744 7.69923 15.2354 7.71095 14.8721 8.05079L9.99707 12.6563C9.3291 13.2656 9.3291 14.3438 9.99707 14.9531L14.8721 19.5586C15.2002 19.8633 15.8096 19.8867 16.1143 19.5938Z" fill="black" fill-opacity="0.85"/>
</svg>
