<svg width="29" height="29" viewBox="0 0 29 29" fill="none" xmlns="http://www.w3.org/2000/svg">
<g clip-path="url(#clip0_2124_45951)">
<path d="M23.563 8.37598C25.3091 8.37598 26.7154 6.91114 26.7154 5.21192C26.7154 3.44239 25.3091 2.0127 23.563 2.0127C21.7818 2.0127 20.3755 3.44239 20.3755 5.21192C20.3755 6.95801 21.7818 8.37598 23.563 8.37598ZM4.67245 25.1455C5.28183 25.7783 6.3248 25.7315 7.0748 24.958L12.1138 19.7549C12.2779 19.5791 12.3951 19.5322 12.6646 19.6377L16.5904 21.126C19.1216 22.0986 21.5123 21.2666 22.6138 19.251L25.1451 14.6455C26.1295 12.8525 25.8248 11.001 24.1138 10.0869C22.4615 9.18458 20.7388 9.86426 19.7427 11.7041L16.4615 17.6924L13.6607 16.6729C12.2779 16.1689 11.1177 16.333 10.0162 17.4815L4.77792 22.8955C4.05136 23.6455 4.12167 24.583 4.67245 25.1455Z" fill="black" fill-opacity="0.85"/>
<path d="M5.42238 6.6885C5.42238 7.18069 5.79738 7.56741 6.28957 7.56741H10.8833V9.39553C10.8833 10.2158 11.7154 10.5791 12.3365 10.0283L15.3716 7.33303C15.7818 6.94631 15.7818 6.46584 15.3716 6.09084L12.3365 3.39553C11.7388 2.86819 10.8833 3.16116 10.8833 4.02834V5.84475H6.28957C5.79738 5.84475 5.42238 6.21975 5.42238 6.6885ZM1.25051 8.82131C0.922383 9.14944 0.922383 9.6885 1.26223 10.0401L4.50832 13.2744L3.21926 14.5752C2.6216 15.1846 3.00832 15.9932 3.79348 16.04L7.85988 16.2744C8.42238 16.3096 8.76223 15.958 8.73879 15.4072L8.48098 11.3526C8.44582 10.5205 7.59035 10.1924 7.01613 10.7666L5.71535 12.0674L2.48098 8.82131C2.14113 8.48147 1.59035 8.48147 1.25051 8.82131Z" fill="black" fill-opacity="0.85"/>
</g>
<defs>
<clipPath id="clip0_2124_45951">
<rect width="25.7095" height="23.7773" fill="white" transform="translate(1.00586 2.0127)"/>
</clipPath>
</defs>
</svg>
