<svg width="28" height="28" viewBox="0 0 28 28" fill="none" xmlns="http://www.w3.org/2000/svg">
<g clip-path="url(#clip0_2124_24654)">
<path d="M9.64355 26.8086H18.3389C20.249 26.8086 21.5264 25.5898 21.5264 23.7617V5.04688C21.5264 3.21875 20.249 2 18.3389 2H9.64355C7.7334 2 6.45605 3.21875 6.45605 5.04688V23.7617C6.45605 25.5898 7.7334 26.8086 9.64355 26.8086ZM9.88965 24.9219C8.90527 24.9219 8.34277 24.3945 8.34277 23.457V5.35156C8.34277 4.41406 8.90527 3.88672 9.88965 3.88672H18.0928C19.0771 3.88672 19.6396 4.41406 19.6396 5.35156V23.457C19.6396 24.3945 19.0771 24.9219 18.0928 24.9219H9.88965ZM11.5068 24.0664H16.4873C16.8037 24.0664 17.0264 23.8438 17.0264 23.5156C17.0264 23.1875 16.8037 22.9766 16.4873 22.9766H11.5068C11.1904 22.9766 10.9678 23.1875 10.9678 23.5156C10.9678 23.8438 11.1904 24.0664 11.5068 24.0664ZM12.585 6.37109H15.4209C15.8662 6.37109 16.2412 6.00781 16.2412 5.53906C16.2412 5.08203 15.8662 4.71875 15.4209 4.71875H12.585C12.1162 4.71875 11.7412 5.08203 11.7412 5.53906C11.7412 6.00781 12.1162 6.37109 12.585 6.37109Z" fill="black" fill-opacity="0.85"/>
<path d="M22.0889 25.7773C22.9795 26.6562 24.4209 26.668 25.2998 25.7773C26.1904 24.8984 26.1904 23.457 25.3115 22.5664L5.88184 3.14844C5.00293 2.26953 3.5498 2.25781 2.65918 3.14844C1.78027 4.02734 1.78027 5.49219 2.65918 6.35938L22.0889 25.7773Z" fill="white"/>
<path d="M23.0615 24.8047C23.4131 25.168 23.999 25.1562 24.3389 24.8047C24.6904 24.4648 24.6904 23.8906 24.3389 23.5273L4.9209 4.12109C4.56934 3.76953 3.9834 3.75781 3.63184 4.12109C3.29199 4.46094 3.29199 5.05859 3.63184 5.39844L23.0615 24.8047Z" fill="black" fill-opacity="0.85"/>
</g>
<defs>
<clipPath id="clip0_2124_24654">
<rect width="23.9692" height="24.832" fill="white" transform="translate(2 2)"/>
</clipPath>
</defs>
</svg>
