<svg width="28" height="28" viewBox="0 0 28 28" fill="none" xmlns="http://www.w3.org/2000/svg">
<path d="M6.67969 24.5977H20.8945C23.3555 24.5977 24.5742 23.3789 24.5742 20.9648V6.65625C24.5742 4.24219 23.3555 3.02344 20.8945 3.02344H6.67969C4.23047 3.02344 3 4.23047 3 6.65625V20.9648C3 23.3906 4.23047 24.5977 6.67969 24.5977Z" fill="black" fill-opacity="0.85"/>
<path d="M7.82711 16.6172C7.48727 16.2891 7.49899 15.7148 7.87399 15.3398L12.5966 10.3008C13.3584 9.50391 14.2373 9.50391 15.0107 10.3008L19.7334 15.3398C20.1084 15.7148 20.1201 16.2891 19.7802 16.6172C19.4052 17.0039 18.8193 17.0039 18.4795 16.6406L13.8037 11.6836L9.1279 16.6406C8.77633 17.0039 8.20211 17.0039 7.82711 16.6172Z" fill="white"/>
</svg>
