<svg width="28" height="28" viewBox="0 0 28 28" fill="none" xmlns="http://www.w3.org/2000/svg">
<path d="M13.9531 25.9062C20.4922 25.9062 25.9062 20.4805 25.9062 13.9531C25.9062 7.41406 20.4805 2 13.9414 2C7.41406 2 2 7.41406 2 13.9531C2 20.4805 7.42578 25.9062 13.9531 25.9062Z" fill="black" fill-opacity="0.85"/>
<path d="M10.7891 19.3438C10.168 19.3438 9.83984 18.9102 9.83984 18.2539V9.42969C9.83984 8.77344 10.168 8.33984 10.7891 8.33984H13.8711C17.3398 8.33984 19.25 10.2852 19.25 13.8125C19.25 17.3867 17.3047 19.3438 13.8711 19.3438H10.7891ZM11.7148 17.8438H13.6602C16.0273 17.8438 17.3047 16.5078 17.3047 13.8477C17.3047 11.2461 16.0156 9.83984 13.6602 9.83984H11.7148V17.8438Z" fill="white"/>
</svg>
