<svg width="29" height="31" viewBox="0 0 29 31" fill="none" xmlns="http://www.w3.org/2000/svg">
<g clip-path="url(#clip0_2124_46048)">
<path d="M11.4844 3.35937C12.4102 3.35937 13.1484 2.62109 13.1484 1.69531C13.1484 0.769531 12.4102 0.0195312 11.4844 0.0195312C10.5469 0.0195312 9.80859 0.769531 9.80859 1.69531C9.80859 2.62109 10.5469 3.35937 11.4844 3.35937ZM5.69531 8.55078C6.62109 8.55078 7.35937 7.8125 7.35937 6.88672C7.35937 5.94922 6.62109 5.21094 5.69531 5.21094C4.75781 5.21094 4.01953 5.94922 4.01953 6.88672C4.01953 7.8125 4.75781 8.55078 5.69531 8.55078ZM17.3437 8.55078C18.2695 8.55078 19.0195 7.8125 19.0195 6.88672C19.0195 5.94922 18.2695 5.21094 17.3437 5.21094C16.4179 5.21094 15.6679 5.94922 15.6679 6.88672C15.6679 7.8125 16.4179 8.55078 17.3437 8.55078ZM22.5351 8.55078C23.4609 8.55078 24.1992 7.8125 24.1992 6.88672C24.1992 5.94922 23.4609 5.21094 22.5351 5.21094C21.6093 5.21094 20.8593 5.94922 20.8593 6.88672C20.8593 7.8125 21.6093 8.55078 22.5351 8.55078ZM22.5351 3.35937C23.4609 3.35937 24.1992 2.62109 24.1992 1.69531C24.1992 0.769531 23.4609 0.0195312 22.5351 0.0195312C21.6093 0.0195312 20.8593 0.769531 20.8593 1.69531C20.8593 2.62109 21.6093 3.35937 22.5351 3.35937Z" fill="black" fill-opacity="0.85"/>
<path d="M14.9289 29.9726C19.8859 29.9726 23.214 26.6445 23.214 21.1601V18.6054C23.214 15.8984 21.9367 14.3164 19.757 14.2929C19.4875 13.4375 18.7726 12.9101 17.7999 12.9101C17.4367 12.9101 17.0968 12.9687 16.7687 13.0859C16.4757 12.1484 15.7023 11.5625 14.671 11.5625C14.4015 11.5625 14.1203 11.5976 13.8507 11.6914V7.78906C13.8507 6.30078 12.8663 5.31641 11.4835 5.31641C10.0773 5.31641 9.09291 6.30078 9.09291 7.78906V17.5625C9.09291 17.6211 9.06947 17.6679 8.99916 17.6679C8.964 17.6679 8.92885 17.6328 8.90541 17.5859L8.12025 15.7109C7.73353 14.7968 7.04213 14.3047 6.2101 14.3047C5.07338 14.3047 4.07728 15.0312 4.07728 16.3203C4.06556 16.6718 4.14759 17.1406 4.28822 17.5507L6.35072 23.3515C7.90931 27.7461 10.7921 29.9726 14.9289 29.9726ZM14.9875 28.3554C11.7179 28.3554 9.2101 26.8437 7.78041 22.8476L5.70619 17.0586C5.6476 16.8828 5.61244 16.7304 5.61244 16.5312C5.61244 16.1211 5.90541 15.7812 6.38588 15.7812C6.78431 15.7812 7.01869 16.0156 7.18275 16.414L8.7765 19.9765C9.04603 20.5625 9.3976 20.75 9.81947 20.75C10.3117 20.75 10.6515 20.3633 10.6515 19.8242V7.68359C10.6515 7.17969 10.9913 6.82812 11.4835 6.82812C11.964 6.82812 12.2921 7.17969 12.2921 7.68359V16.3554C12.2921 16.7539 12.632 17.0703 13.0421 17.0703C13.4406 17.0703 13.7804 16.7539 13.7804 16.3554V13.2265C13.9796 13.1328 14.2492 13.0742 14.4718 13.0742C15.0578 13.0742 15.4093 13.4609 15.4093 14.0703V16.8007C15.4093 17.2226 15.7726 17.5156 16.171 17.5156C16.5578 17.5156 16.8976 17.2226 16.8976 16.8007V14.5859C17.0968 14.4804 17.3664 14.4218 17.6007 14.4218C18.1867 14.4218 18.5382 14.8086 18.5382 15.4179V17.2461C18.5382 17.6797 18.8898 17.9726 19.2882 17.9726C19.6749 17.9726 20.0265 17.6797 20.0265 17.2461V15.8984C21.0695 15.8984 21.6671 16.9765 21.6671 18.8398V20.9726C21.6671 25.6836 19.1359 28.3554 14.9875 28.3554Z" fill="black" fill-opacity="0.85"/>
</g>
<defs>
<clipPath id="clip0_2124_46048">
<rect width="20.1797" height="29.9883" fill="white" transform="translate(4.01953 0.0195312)"/>
</clipPath>
</defs>
</svg>
