<svg width="28" height="28" viewBox="0 0 28 28" fill="none" xmlns="http://www.w3.org/2000/svg">
<path d="M13.9531 25.9062C20.4922 25.9062 25.9062 20.4805 25.9062 13.9531C25.9062 7.41406 20.4805 2 13.9414 2C7.41406 2 2 7.41406 2 13.9531C2 20.4805 7.42578 25.9062 13.9531 25.9062ZM13.9531 23.9141C8.42188 23.9141 4.00391 19.4844 4.00391 13.9531C4.00391 8.42188 8.41016 3.99219 13.9414 3.99219C19.4727 3.99219 23.9141 8.42188 23.9141 13.9531C23.9141 19.4844 19.4844 23.9141 13.9531 23.9141Z" fill="black" fill-opacity="0.85"/>
<path d="M8.67969 18.6875H12.7461C13.168 18.6875 13.4141 18.418 13.4141 18.0078C13.4141 17.5625 13.1562 17.3164 12.7461 17.3164H9.96875V17.2227L11.6797 15.0547C12.8516 13.6016 13.2383 12.7344 13.2383 11.7031C13.2383 10.1211 12.1602 8.97266 10.543 8.97266C9.04297 8.97266 7.90625 10.2148 7.90625 11.4336C7.90625 11.8672 8.16406 12.1719 8.60938 12.1719C8.99609 12.1719 9.23047 11.9961 9.35938 11.6094C9.57031 10.8242 9.86328 10.332 10.543 10.332C11.2461 10.332 11.6445 10.9531 11.6445 11.7852C11.6445 12.7227 10.9883 13.6719 10.3672 14.4688L8.32812 17.0703C8.11719 17.3516 7.89453 17.6445 7.89453 18.0078C7.89453 18.4062 8.15234 18.6875 8.67969 18.6875ZM15.4062 18.6875H19.4727C19.8828 18.6875 20.1289 18.418 20.1289 18.0078C20.1289 17.5625 19.8711 17.3164 19.4727 17.3164H16.6836V17.2227L18.3945 15.0547C19.5664 13.6016 19.9531 12.7344 19.9531 11.7031C19.9531 10.1211 18.875 8.97266 17.2578 8.97266C15.7695 8.97266 14.6328 10.2148 14.6328 11.4336C14.6328 11.8672 14.8789 12.1719 15.3242 12.1719C15.7109 12.1719 15.957 11.9961 16.0742 11.6094C16.2969 10.8242 16.5781 10.332 17.2578 10.332C17.9609 10.332 18.3594 10.9531 18.3594 11.7852C18.3594 12.7227 17.7031 13.6719 17.082 14.4688L15.043 17.0703C14.832 17.3516 14.6094 17.6445 14.6094 18.0078C14.6094 18.4062 14.8672 18.6875 15.4062 18.6875Z" fill="black" fill-opacity="0.85"/>
</svg>
