<svg width="28" height="28" viewBox="0 0 28 28" fill="none" xmlns="http://www.w3.org/2000/svg">
<path d="M13.9531 25.9062C20.4922 25.9062 25.9062 20.4805 25.9062 13.9531C25.9062 7.41406 20.4805 2 13.9414 2C7.41406 2 2 7.41406 2 13.9531C2 20.4805 7.42578 25.9062 13.9531 25.9062Z" fill="black" fill-opacity="0.85"/>
<path d="M8.52734 18.8398C7.97656 18.8398 7.70703 18.5469 7.70703 18.1367C7.70703 17.7617 7.94141 17.457 8.15234 17.1641L10.25 14.4922C10.8945 13.6719 11.5742 12.6875 11.5742 11.7266C11.5742 10.8594 11.1641 10.2266 10.4375 10.2266C9.74609 10.2266 9.44141 10.7305 9.23047 11.5391C9.08984 11.9375 8.84375 12.125 8.44531 12.125C7.98828 12.125 7.71875 11.8086 7.71875 11.3633C7.71875 10.0977 8.89062 8.82031 10.4375 8.82031C12.1133 8.82031 13.2266 10.0039 13.2266 11.6328C13.2266 12.6992 12.8281 13.5898 11.6211 15.1016L9.85156 17.3164V17.4219H12.7109C13.1445 17.4219 13.4023 17.6797 13.4023 18.1367C13.4023 18.5586 13.1562 18.8398 12.7109 18.8398H8.52734ZM15.4648 18.8398C14.9023 18.8398 14.6445 18.5469 14.6445 18.1367C14.6445 17.7617 14.8672 17.457 15.0898 17.1641L17.1875 14.4922C17.8203 13.6719 18.5 12.6875 18.5 11.7266C18.5 10.8594 18.0898 10.2266 17.375 10.2266C16.6719 10.2266 16.3906 10.7305 16.1562 11.5391C16.0391 11.9375 15.7812 12.125 15.3828 12.125C14.9141 12.125 14.668 11.8086 14.668 11.3633C14.668 10.0977 15.8398 8.82031 17.375 8.82031C19.0391 8.82031 20.1523 10.0039 20.1523 11.6328C20.1523 12.6992 19.7539 13.5898 18.5469 15.1016L16.7891 17.3164V17.4219H19.6602C20.0703 17.4219 20.3398 17.6797 20.3398 18.1367C20.3398 18.5586 20.082 18.8398 19.6602 18.8398H15.4648Z" fill="white"/>
</svg>
