<svg width="38" height="28" viewBox="0 0 38 28" fill="none" xmlns="http://www.w3.org/2000/svg">
<path d="M4.79297 14.75C4.79297 19.6836 7.6875 22.2734 12.6914 22.2734H30.4922C32.2969 22.2734 33.832 22.4492 35.2734 22.8125C36.4922 23.1172 37.4648 22.6133 37.4648 21.3594V15.7461C37.4648 14.9492 36.8906 14.3633 36.082 14.3633H33.0586C32.0742 14.3633 31.5938 13.9414 31.6875 13.0273L32.0391 9.59375C32.332 6.73438 30.7031 5 27.5156 5C23.8242 5.01172 17.0273 5.15234 13.125 5.60938C7.79297 6.26562 4.79297 9.52344 4.79297 14.75ZM6.67969 14.75C6.67969 10.6133 9.03516 8 13.2891 7.50781C17.1328 7.07422 23.8359 6.88672 27.5156 6.88672C29.543 6.88672 30.3633 7.70703 30.1758 9.38281L29.25 17.7031C29.0273 19.6719 28.1836 20.3867 26.0273 20.3867H12.6562C8.89453 20.3867 6.67969 18.4414 6.67969 14.75Z" fill="black" fill-opacity="0.85"/>
<path d="M2.57812 16.8594H11.6016C13.0312 16.8594 14.1797 15.7109 14.1797 14.293C14.1797 12.8633 13.0312 11.7148 11.6016 11.7148H2.57812C1.14844 11.7148 0 12.8633 0 14.293C0 15.7109 1.14844 16.8594 2.57812 16.8594Z" fill="white"/>
<path d="M0.996094 11.5977C0.996094 13.8945 2.42578 15.2656 4.85156 15.2656H11.0742V16.6133C11.0742 17.4102 11.6367 17.6914 12.293 17.2344L15.5625 15.0078C16.1016 14.6445 16.1016 14 15.5625 13.6367L12.3164 11.4102C11.6367 10.9297 11.0742 11.2344 11.0742 12.0312V13.3086H4.85156C3.67969 13.3086 2.98828 12.6758 2.98828 11.5977V10.0508C2.98828 9.5 2.54297 9.04297 1.99219 9.04297C1.44141 9.04297 0.996094 9.5 0.996094 10.0508V11.5977Z" fill="black" fill-opacity="0.85"/>
</svg>
