<svg width="28" height="28" viewBox="0 0 28 28" fill="none" xmlns="http://www.w3.org/2000/svg">
<path d="M6.67969 24.5977H20.8945C23.3555 24.5977 24.5742 23.3789 24.5742 20.9648V6.65625C24.5742 4.24219 23.3555 3.02344 20.8945 3.02344H6.67969C4.23047 3.02344 3 4.23047 3 6.65625V20.9648C3 23.3906 4.23047 24.5977 6.67969 24.5977ZM6.70312 22.7109C5.53125 22.7109 4.88672 22.0898 4.88672 20.8711V6.75C4.88672 5.53125 5.53125 4.91016 6.70312 4.91016H20.8711C22.0312 4.91016 22.6875 5.53125 22.6875 6.75V20.8711C22.6875 22.0898 22.0312 22.7109 20.8711 22.7109H6.70312Z" fill="black" fill-opacity="0.85"/>
<path d="M13.7695 19.3711C16.2656 19.3711 17.9648 18.082 17.9648 16.1953C17.9648 14.8945 17.0039 13.8164 15.6094 13.5352V13.4648C16.7812 13.125 17.5078 12.1875 17.5078 11.0508C17.5078 9.375 15.9727 8.21484 13.793 8.21484C11.6133 8.21484 10.0781 9.375 10.0781 11.0508C10.0781 12.1875 10.793 13.1016 11.9883 13.4648V13.5352C10.5703 13.8164 9.63281 14.9062 9.63281 16.207C9.63281 18.1055 11.2852 19.3711 13.7695 19.3711ZM13.8047 18.082C12.4219 18.082 11.4141 17.2617 11.4141 16.1133C11.4141 15 12.4336 14.168 13.8047 14.168C15.2109 14.168 16.1953 14.9883 16.1953 16.1133C16.1953 17.2617 15.1875 18.082 13.8047 18.082ZM13.793 12.9375C12.6328 12.9375 11.8008 12.2109 11.8008 11.2031C11.8008 10.2188 12.6211 9.50391 13.793 9.50391C14.9648 9.50391 15.7969 10.2188 15.7969 11.2031C15.7969 12.2109 14.9648 12.9375 13.793 12.9375Z" fill="black" fill-opacity="0.85"/>
</svg>
