<svg width="28" height="28" viewBox="0 0 28 28" fill="none" xmlns="http://www.w3.org/2000/svg">
<g clip-path="url(#clip0_2124_67742)">
<path d="M13.9531 25.9062C20.4922 25.9062 25.9062 20.4805 25.9062 13.9531C25.9062 7.41406 20.4805 2 13.9414 2C7.41406 2 2 7.41406 2 13.9531C2 20.4805 7.42578 25.9062 13.9531 25.9062ZM13.9531 23.9141C8.42188 23.9141 4.00391 19.4844 4.00391 13.9531C4.00391 8.42188 8.41016 3.99219 13.9414 3.99219C19.4727 3.99219 23.9141 8.42188 23.9141 13.9531C23.9141 19.4844 19.4844 23.9141 13.9531 23.9141Z" fill="black" fill-opacity="0.85"/>
<path d="M10.3672 10.1914H11.4922V9.125C11.4922 8.82031 11.6914 8.63281 12.0195 8.63281H15.8867C16.2031 8.63281 16.4023 8.82031 16.4023 9.125V10.1914H17.5156V9.06641C17.5156 8.14062 16.9062 7.57812 15.9453 7.57812H11.9375C10.9766 7.57812 10.3672 8.14062 10.3672 9.06641V10.1914ZM9.11328 19.1562H18.7695C20 19.1562 20.6211 18.5586 20.6211 17.3398V11.4922C20.6211 10.2617 20 9.66406 18.7695 9.66406H9.11328C7.88281 9.66406 7.27344 10.2617 7.27344 11.4922V17.3398C7.27344 18.5586 7.88281 19.1562 9.11328 19.1562ZM11.1758 14.9258V13.8711C11.1758 13.5547 11.375 13.3438 11.6914 13.3438H12.8984V12.1602C12.8984 11.832 13.1094 11.6445 13.4141 11.6445H14.4688C14.7852 11.6445 14.9844 11.832 14.9844 12.1602V13.3438H16.2031C16.5078 13.3438 16.707 13.5547 16.707 13.8711V14.9258C16.707 15.2539 16.5078 15.4531 16.2031 15.4531H14.9844V16.6602C14.9844 16.9648 14.7852 17.1758 14.4688 17.1758H13.4141C13.1094 17.1758 12.8984 16.9648 12.8984 16.6602V15.4531H11.6914C11.375 15.4531 11.1758 15.2539 11.1758 14.9258Z" fill="black" fill-opacity="0.85"/>
</g>
<defs>
<clipPath id="clip0_2124_67742">
<rect width="23.9062" height="23.918" fill="white" transform="translate(2 2)"/>
</clipPath>
</defs>
</svg>
