<svg width="28" height="28" viewBox="0 0 28 28" fill="none" xmlns="http://www.w3.org/2000/svg">
<path d="M6.67969 24.5977H20.8945C23.3555 24.5977 24.5742 23.3789 24.5742 20.9648V6.65625C24.5742 4.24219 23.3555 3.02344 20.8945 3.02344H6.67969C4.23047 3.02344 3 4.23047 3 6.65625V20.9648C3 23.3906 4.23047 24.5977 6.67969 24.5977Z" fill="black" fill-opacity="0.85"/>
<path d="M9.59766 11.8828C9.59766 9.62109 11.3203 8.03906 13.8281 8.03906C16.3359 8.03906 18.0586 9.63281 18.0586 11.9766C18.0586 13.2891 17.5312 14.5195 16.418 16.0078C15.7734 16.8633 14.8594 18.0352 14.2383 18.8203C13.8867 19.2539 13.6992 19.5352 13.2305 19.5352C12.7383 19.5352 12.4219 19.1836 12.4219 18.8203C12.4219 18.5859 12.5156 18.3633 12.7266 18.1289C13.4297 17.25 14.2266 16.2891 14.9062 15.4336C15.1641 15.1172 15.3516 14.8594 15.4453 14.6836H15.293C14.8828 15.1055 14.0273 15.3867 13.2305 15.3867C11.1328 15.3867 9.59766 13.9102 9.59766 11.8828ZM11.3086 11.8125C11.3086 13.0898 12.3984 14.0273 13.8398 14.0273C15.2578 14.0273 16.3359 13.1016 16.3359 11.8125C16.3359 10.5469 15.2461 9.58594 13.8281 9.58594C12.3984 9.58594 11.3086 10.5352 11.3086 11.8125Z" fill="white"/>
</svg>
