<svg width="28" height="28" viewBox="0 0 28 28" fill="none" xmlns="http://www.w3.org/2000/svg">
<g clip-path="url(#clip0_2124_24653)">
<path d="M13.9531 25.918C20.4922 25.918 25.9062 20.5039 25.9062 13.9648C25.9062 7.4375 20.4805 2.01172 13.9414 2.01172C7.41406 2.01172 2 7.4375 2 13.9648C2 20.5039 7.42578 25.918 13.9531 25.918Z" fill="black" fill-opacity="0.85"/>
<path d="M6.92188 17.5508C6.75781 17.7734 6.45312 17.7734 6.21875 17.5391C5.33984 16.5898 4.87109 15.3125 4.87109 13.9648C4.87109 12.6289 5.33984 11.3516 6.21875 10.3906C6.45312 10.1562 6.75781 10.1562 6.92188 10.3789C7.08594 10.5781 7.03906 10.8242 6.85156 11.0586C6.13672 11.8555 5.76172 12.8633 5.76172 13.9648C5.76172 15.0664 6.13672 16.0742 6.85156 16.8711C7.03906 17.1055 7.08594 17.3633 6.92188 17.5508ZM20.9727 17.5508C20.8086 17.3633 20.8555 17.1055 21.0547 16.8711C21.7578 16.0742 22.1445 15.0664 22.1445 13.9648C22.1445 12.8633 21.7578 11.8555 21.0547 11.0586C20.8555 10.8242 20.8086 10.5781 20.9727 10.3789C21.1484 10.1562 21.4531 10.1562 21.6758 10.3906C22.5547 11.3516 23.0352 12.6289 23.0352 13.9648C23.0352 15.3125 22.5547 16.5898 21.6758 17.5391C21.4531 17.7734 21.1484 17.7734 20.9727 17.5508Z" fill="white"/>
<path d="M8.66797 16.0625C8.48047 16.2852 8.15234 16.2852 7.94141 16.0391C7.48438 15.4648 7.22656 14.75 7.22656 13.9648C7.22656 13.1914 7.48438 12.4648 7.94141 11.9023C8.15234 11.6562 8.48047 11.6445 8.66797 11.8672C8.83203 12.0664 8.77344 12.3008 8.58594 12.5469C8.29297 12.9219 8.14062 13.4258 8.14062 13.9648C8.14062 14.5039 8.29297 14.9961 8.58594 15.3828C8.77344 15.6289 8.83203 15.8633 8.66797 16.0625ZM19.2266 16.0625C19.0625 15.8633 19.1211 15.6289 19.3086 15.3828C19.6016 14.9961 19.7656 14.5039 19.7656 13.9648C19.7656 13.4258 19.6016 12.9219 19.3086 12.5469C19.1211 12.3008 19.0625 12.0664 19.2266 11.8672C19.4141 11.6445 19.7539 11.6562 19.9531 11.9023C20.4102 12.4648 20.6797 13.1914 20.6797 13.9648C20.6797 14.75 20.4102 15.4648 19.9531 16.0391C19.7539 16.2852 19.4141 16.2852 19.2266 16.0625Z" fill="white"/>
<path d="M11.5742 20.8789C10.4961 20.8789 9.76953 20.1875 9.76953 19.1445V8.78516C9.76953 7.73047 10.4961 7.05078 11.5742 7.05078H16.3555C17.4336 7.05078 18.1602 7.73047 18.1602 8.78516V19.1445C18.1602 20.1875 17.4336 20.8789 16.3555 20.8789H11.5742ZM11.7031 19.8008H16.2266C16.7773 19.8008 17.082 19.5078 17.082 18.9922V8.92578C17.082 8.41016 16.7773 8.12891 16.2266 8.12891H11.7031C11.1523 8.12891 10.8477 8.41016 10.8477 8.92578V18.9922C10.8477 19.5078 11.1523 19.8008 11.7031 19.8008ZM13.1562 9.58203C12.8867 9.58203 12.6992 9.37109 12.6992 9.11328C12.6992 8.85547 12.8867 8.64453 13.1562 8.64453H14.75C15.0195 8.64453 15.2188 8.85547 15.2188 9.11328C15.2188 9.37109 15.0195 9.58203 14.75 9.58203H13.1562ZM12.6055 19.3438C12.4062 19.3438 12.2773 19.2031 12.2773 19.0156C12.2773 18.8164 12.4062 18.6875 12.6055 18.6875H15.3477C15.5352 18.6875 15.6523 18.8164 15.6523 19.0156C15.6523 19.2031 15.5352 19.3438 15.3477 19.3438H12.6055Z" fill="white"/>
</g>
<defs>
<clipPath id="clip0_2124_24653">
<rect width="23.9062" height="23.918" fill="white" transform="translate(2 2)"/>
</clipPath>
</defs>
</svg>
