<svg width="31" height="28" viewBox="0 0 31 28" fill="none" xmlns="http://www.w3.org/2000/svg">
<path d="M3.36328 19.7266C3.36328 19.9141 3.46875 20.0078 3.64453 20.0078H12.8086C11.5664 18.7422 10.8398 16.5039 10.8398 13.668C10.8398 10.8438 11.5664 8.61719 12.7852 7.36328H3.64453C3.46875 7.36328 3.36328 7.45703 3.36328 7.64453V19.7266ZM12.2461 13.668C12.2461 17.3242 13.5117 19.7734 15.4219 19.7734C17.3906 19.7734 18.7148 17.3242 18.7148 13.668C18.7148 10.0117 17.3906 7.57422 15.4219 7.57422C13.5117 7.57422 12.2461 10.0117 12.2461 13.668ZM18.1055 20.0078H27.293C27.4688 20.0078 27.5742 19.9141 27.5742 19.7266V7.64453C27.5742 7.45703 27.4688 7.36328 27.293 7.36328H18.1172C19.3711 8.61719 20.1094 10.8438 20.1094 13.668C20.1094 16.5039 19.3594 18.7422 18.1055 20.0078Z" fill="black" fill-opacity="0.85"/>
<path d="M0 22.4336C0 22.9961 0.375 23.3711 0.9375 23.3711H30.0117C30.5742 23.3711 30.9375 22.9961 30.9375 22.4336V4.92578C30.9375 4.36328 30.5742 4 30.0117 4H0.9375C0.375 4 0 4.36328 0 4.92578V22.4336ZM2.14453 20.5117V6.85938C2.14453 6.39062 2.41406 6.14453 2.84766 6.14453H28.0898C28.5352 6.14453 28.793 6.39062 28.793 6.85938V20.5117C28.793 20.9688 28.5352 21.2266 28.0898 21.2266H2.84766C2.41406 21.2266 2.14453 20.9688 2.14453 20.5117Z" fill="black" fill-opacity="0.85"/>
</svg>
