<svg width="28" height="28" viewBox="0 0 28 28" fill="none" xmlns="http://www.w3.org/2000/svg">
<path d="M13.6367 25.2305C13.8828 25.2305 14.2344 25.0664 14.4922 24.9141C21.1016 20.6953 25.2852 15.7852 25.2852 10.793C25.2852 6.64453 22.4375 3.71484 18.7461 3.71484C16.4609 3.71484 14.7031 4.98047 13.6367 6.91406C12.5938 4.99219 10.8242 3.71484 8.52734 3.71484C4.84766 3.71484 2 6.64453 2 10.793C2 15.7852 6.18359 20.6953 12.793 24.9141C13.0391 25.0664 13.4023 25.2305 13.6367 25.2305Z" fill="black" fill-opacity="0.85"/>
<path d="M14.4805 10.7578V15.1172L14.3984 17.0859L15.4062 16.0312L16.4727 14.9531C16.6484 14.7773 16.8711 14.6719 17.1172 14.6719C17.5977 14.6719 17.9727 15.0234 17.9727 15.5156C17.9727 15.7969 17.8555 15.9961 17.668 16.1719L14.2227 19.3242C13.9648 19.5703 13.7773 19.6406 13.543 19.6406C13.3086 19.6406 13.1211 19.5703 12.8633 19.3242L9.41797 16.1719C9.23047 15.9961 9.11328 15.7969 9.11328 15.5156C9.11328 15.0234 9.46484 14.6719 9.96875 14.6719C10.2031 14.6719 10.4492 14.7773 10.6133 14.9531L11.6797 16.0312L12.6875 17.0859L12.6172 15.1172V10.7578C12.6172 10.2656 13.0391 9.85547 13.543 9.85547C14.0469 9.85547 14.4805 10.2656 14.4805 10.7578Z" fill="white"/>
</svg>
