<svg width="28" height="28" viewBox="0 0 28 28" fill="none" xmlns="http://www.w3.org/2000/svg">
<path d="M18.0421 7.12109C19.46 7.12109 20.5968 5.98438 20.5968 4.56641C20.5968 3.14844 19.46 2 18.0421 2C16.6241 2 15.4757 3.14844 15.4757 4.56641C15.4757 5.98438 16.6241 7.12109 18.0421 7.12109ZM8.86629 22.4727C9.41707 22.8125 10.214 22.6367 10.5655 22.0742L13.4483 17.457L16.5772 17.6328L14.6202 20.7617C14.2452 21.3477 14.4093 22.1328 15.0069 22.4727C15.5929 22.8125 16.3429 22.6484 16.6944 22.0742L19.7296 17.2227C20.2218 16.4141 19.8116 15.3945 18.6983 15.2773L13.5772 14.7031C13.085 14.6445 12.8858 14.1172 13.1436 13.7539L15.2647 10.5664C15.3936 10.3555 15.6514 10.3086 15.8624 10.4258L23.6319 15.1016C24.2061 15.4414 24.9913 15.2656 25.3194 14.6914C25.6475 14.0938 25.4718 13.3438 24.8858 12.9922L9.53426 3.76953C9.33504 3.66406 9.1241 3.61719 8.91317 3.61719H3.99129C3.29989 3.61719 2.7491 4.15625 2.7491 4.82422C2.7491 5.50391 3.29989 6.05469 3.99129 6.05469H8.5616L10.7061 7.34375C10.9405 7.47266 10.9991 7.75391 10.8585 7.98828L8.19832 11.9727C6.75692 14.1055 7.94051 16.9766 10.6358 17.3047L8.46785 20.7617C8.10457 21.3477 8.26864 22.1094 8.86629 22.4727ZM4.4952 25.2266H23.1749C24.4874 25.2266 25.5538 24.957 26.3858 24.2422C26.7374 23.9492 26.7257 23.5742 26.5264 23.3164C26.3272 23.0469 25.9171 22.9414 25.5538 23.2227C24.921 23.7266 24.2764 23.9258 23.1749 23.9258H4.4952C3.39364 23.9258 2.7491 23.7266 2.11629 23.2227C1.77645 22.9648 1.41317 23.0234 1.20223 23.2461C0.944418 23.5039 0.897542 23.9141 1.27254 24.2422C2.11629 24.957 3.1827 25.2266 4.4952 25.2266Z" fill="black" fill-opacity="0.85"/>
</svg>
