<svg width="28" height="28" viewBox="0 0 28 28" fill="none" xmlns="http://www.w3.org/2000/svg">
<g clip-path="url(#clip0_2124_89389)">
<path d="M13.9531 25.9062C20.4922 25.9062 25.9062 20.4805 25.9062 13.9531C25.9062 7.41406 20.4805 2 13.9414 2C7.41406 2 2 7.41406 2 13.9531C2 20.4805 7.42578 25.9062 13.9531 25.9062ZM13.9531 23.9141C8.42188 23.9141 4.00391 19.4844 4.00391 13.9531C4.00391 8.42188 8.41016 3.99219 13.9414 3.99219C19.4727 3.99219 23.9141 8.42188 23.9141 13.9531C23.9141 19.4844 19.4844 23.9141 13.9531 23.9141Z" fill="black" fill-opacity="0.85"/>
<path d="M9.16016 18.2773C9.16016 19.25 9.73439 19.7656 10.707 19.7656H13.4609V14.5039H9.16016V18.2773ZM14.4219 19.7656H17.1758C18.1484 19.7656 18.7227 19.25 18.7227 18.2773V14.5039H14.4219V19.7656ZM8.32812 13.0156C8.32812 13.6367 8.67969 13.8828 9.3125 13.8828H13.4609V10.7188H12.5586C11.6328 10.7188 11.0938 10.1563 11.0938 9.5C11.0938 8.86719 11.5625 8.48047 12.207 8.48047C12.9102 8.48047 13.4609 9.00781 13.4609 9.88672V10.7188H14.4219V9.88672C14.4219 9.00781 14.9727 8.48047 15.6875 8.48047C16.332 8.48047 16.7891 8.86719 16.7891 9.5C16.7891 10.1563 16.25 10.7188 15.3242 10.7188H14.4219V13.8828H18.582C19.2148 13.8828 19.5547 13.6367 19.5547 13.0156V11.5977C19.5547 10.9766 19.2148 10.7188 18.582 10.7188H17.2109C17.5625 10.4141 17.75 9.95703 17.75 9.45312C17.75 8.31641 16.8594 7.50781 15.7461 7.50781C14.9258 7.50781 14.2461 7.95312 13.9414 8.76172C13.6367 7.95312 12.9688 7.50781 12.1484 7.50781C11.0234 7.50781 10.1328 8.31641 10.1328 9.45312C10.1328 9.95703 10.332 10.4141 10.6719 10.7188H9.3125C8.70312 10.7188 8.32812 10.9766 8.32812 11.5977V13.0156Z" fill="black" fill-opacity="0.85"/>
</g>
<defs>
<clipPath id="clip0_2124_89389">
<rect width="23.9062" height="23.918" fill="white" transform="translate(2 2)"/>
</clipPath>
</defs>
</svg>
