<svg width="28" height="28" viewBox="0 0 28 28" fill="none" xmlns="http://www.w3.org/2000/svg">
<path d="M1.19649 21.8398C2.22774 25.6602 3.29414 26.8203 5.70821 26.8203H19.6184C21.3527 26.8203 22.5129 25.8828 22.9465 24.125L27.3527 6.24219C27.9973 3.64062 26.7785 2 24.4934 2C21.7395 2 19.5129 4.61328 20.5793 8.25781L20.802 7.12109C18.0715 9.05469 16.6301 13.2148 17.0051 18.1953L17.5441 17.5039C14.9895 17.0586 12.0129 16.8125 9.05977 16.8125C2.79024 16.8125 0.235549 18.3359 1.19649 21.8398ZM3.00117 21.3359C2.48555 19.4609 3.91524 18.6992 9.05977 18.6992C13.2316 18.6992 16.2316 19.2617 17.5676 19.3555C18.2824 19.3672 18.7277 18.9102 18.716 18.1953C18.634 13.7891 19.7941 10.2383 21.8449 8.70312C22.2902 8.33984 22.384 8.10547 22.2551 7.30859C21.9387 5.10547 23.1574 3.88672 24.4934 3.88672C25.3605 3.88672 25.8293 4.60156 25.548 5.75L21.1066 23.668C20.9074 24.4883 20.4035 24.9336 19.6184 24.9336H5.70821C4.39571 24.9336 3.85664 24.5117 3.00117 21.3359Z" fill="black" fill-opacity="0.85"/>
<path d="M4.06738 12.9219H9.69238C10.126 12.9219 10.4424 12.6172 10.4424 12.1953C10.4424 11.7617 10.126 11.457 9.69238 11.457H5.71972V11.4219L8.26269 8.67969C9.16504 7.71875 9.84472 6.875 9.84472 5.66797C9.84472 4.00391 8.54394 2.90234 6.50488 2.90234C4.99316 2.90234 3.63379 3.81641 3.28222 5.05859C3.24707 5.23438 3.22363 5.35156 3.22363 5.50391C3.22363 5.9375 3.50488 6.23047 3.95019 6.23047C4.34863 6.23047 4.54785 5.98438 4.74707 5.65625C5.02832 5.01172 5.59082 4.34375 6.57519 4.34375C7.57129 4.34375 8.25097 4.92969 8.25097 5.78516C8.25097 6.54688 7.59472 7.19141 6.97363 7.85938L3.56347 11.5273C3.37597 11.7266 3.27051 11.9375 3.27051 12.1953C3.27051 12.6406 3.57519 12.9219 4.06738 12.9219Z" fill="black" fill-opacity="0.85"/>
</svg>
