<svg width="28" height="28" viewBox="0 0 28 28" fill="none" xmlns="http://www.w3.org/2000/svg">
<path d="M22.1172 25.4453H6.87109C6.46094 25.4453 6.13281 25.7617 6.13281 26.1836C6.13281 26.6055 6.46094 26.9336 6.87109 26.9336H22.1172C22.5273 26.9336 22.8555 26.6055 22.8555 26.1836C22.8555 25.7617 22.5273 25.4453 22.1172 25.4453Z" fill="black" fill-opacity="0.85"/>
<path d="M22.1172 21.4727H6.87109C6.46094 21.4727 6.13281 21.7891 6.13281 22.2109C6.13281 22.6328 6.46094 22.9492 6.87109 22.9492H22.1172C22.5273 22.9492 22.8555 22.6328 22.8555 22.2109C22.8555 21.7891 22.5273 21.4727 22.1172 21.4727Z" fill="black" fill-opacity="0.85"/>
<path d="M6.50781 18.7539H21.0508C24.8945 18.7539 27.7539 15.8359 27.7539 12.2266C27.7539 8.48828 24.707 5.75781 20.7344 5.75781C19.2695 2.86328 16.5508 1 13.1641 1C8.75781 1 5.125 4.45703 4.73828 8.80469C2.61719 9.42578 1 11.2656 1 13.7383C1 16.5156 3.01562 18.7539 6.50781 18.7539Z" fill="black" fill-opacity="0.85"/>
</svg>
