<svg width="28" height="28" viewBox="0 0 28 28" fill="none" xmlns="http://www.w3.org/2000/svg">
<path d="M10.8203 26.1719H20.3242C22.5508 26.1719 23.8867 24.8594 23.8867 22.6562L23.8984 4.55078C23.8984 2.44141 22.4805 1 20.3594 1H9.0625C5.94531 1 4 2.96875 4 6.07422V7.86719C4 10.9961 4.73828 13.0938 6.4375 15.2969L7.25781 16.375V22.6562C7.25781 24.8594 8.59375 26.1719 10.8203 26.1719Z" fill="black" fill-opacity="0.85"/>
<path d="M8.86328 8.21875C8.42969 8.21875 8.07812 7.86719 8.07812 7.43359C8.07812 6.98828 8.42969 6.625 8.86328 6.625H19.4336C19.8672 6.625 20.2188 6.98828 20.2188 7.43359C20.2188 7.86719 19.8672 8.21875 19.4336 8.21875H8.86328ZM9.95312 12.707C9.51954 12.707 9.15625 12.3438 9.15625 11.8984C9.15625 11.4648 9.51954 11.1133 9.95312 11.1133H19.4336C19.8672 11.1133 20.2188 11.4648 20.2188 11.8984C20.2188 12.3438 19.8672 12.707 19.4336 12.707H9.95312ZM11.8047 17.1484C11.3594 17.1484 10.9961 16.7969 10.9961 16.3633C10.9961 15.918 11.3594 15.5547 11.8047 15.5547H19.4336C19.8672 15.5547 20.2188 15.918 20.2188 16.3633C20.2188 16.7969 19.8672 17.1484 19.4336 17.1484H11.8047ZM11.8047 21.6367C11.3594 21.6367 10.9961 21.2734 10.9961 20.8281C10.9961 20.3945 11.3594 20.043 11.8047 20.043H19.4336C19.8672 20.043 20.2188 20.3945 20.2188 20.8281C20.2188 21.2734 19.8672 21.6367 19.4336 21.6367H11.8047Z" fill="white"/>
</svg>
