<svg width="29" height="28" viewBox="0 0 29 28" fill="none" xmlns="http://www.w3.org/2000/svg">
<path d="M1.03125 22.0625H10.7695C11.3555 22.0625 11.7305 21.6875 11.7305 21.1133C11.7305 20.5508 11.3555 20.1758 10.7695 20.1758H2.96484V20.1172L7.53516 15.6641C10.3242 12.957 11.1562 11.5508 11.1562 9.74609C11.1562 7.0625 8.76562 5.01172 5.58984 5.01172C3.10547 5.01172 0.960938 6.35938 0.257812 8.42188C0.117188 8.82031 0.0585938 9.14844 0.0585938 9.44141C0.0585938 10.0273 0.398438 10.4141 0.972656 10.4141C1.52344 10.4141 1.75781 10.1562 1.93359 9.57031C2.02734 9.20703 2.15625 8.87891 2.34375 8.57422C2.97656 7.53125 4.125 6.86328 5.58984 6.86328C7.48828 6.86328 9 8.19922 9 9.86328C9 11.2109 8.46094 12.125 6.14062 14.4102L0.65625 19.8594C0.164062 20.3516 0 20.6445 0 21.0781C0 21.6875 0.410156 22.0625 1.03125 22.0625ZM15.9727 22.3086C16.5586 22.3086 17.0156 21.8398 17.0156 21.2656V14.3633H26.2969V21.2656C26.2969 21.8398 26.7656 22.3086 27.3398 22.3086C27.9141 22.3086 28.3828 21.8398 28.3828 21.2656V6.04297C28.3828 5.45703 27.9141 5 27.3398 5C26.7656 5 26.2969 5.45703 26.2969 6.04297V12.5469H17.0156V6.04297C17.0156 5.45703 16.5586 5 15.9727 5C15.3984 5 14.9297 5.45703 14.9297 6.04297V21.2656C14.9297 21.8398 15.3984 22.3086 15.9727 22.3086Z" fill="black" fill-opacity="0.85"/>
</svg>
