<svg width="28" height="28" viewBox="0 0 28 28" fill="none" xmlns="http://www.w3.org/2000/svg">
<g clip-path="url(#clip0_2124_88854)">
<path d="M0 14.6719V12.9023H4.96875V12.5977C4.96875 11.7773 5.4375 11.3086 6.25781 11.3086H9.16406C9.99609 11.3086 10.4648 11.7773 10.4648 12.5977V12.9023H16.6523V12.5977C16.6523 11.7773 17.1211 11.3086 17.9531 11.3086H20.8594C21.6914 11.3086 22.1602 11.7773 22.1602 12.5977V12.9023H27.1289V14.6719H22.1602V15C22.1602 15.8203 21.6914 16.2773 20.8594 16.2773H17.9531C17.1211 16.2773 16.6523 15.8203 16.6523 15V14.6719H10.4648V15C10.4648 15.8203 9.99609 16.2773 9.16406 16.2773H6.25781C5.4375 16.2773 4.96875 15.8203 4.96875 15V14.6719H0ZM3.62109 25.7109H23.5078C25.9336 25.7109 27.1289 24.5391 27.1289 22.1367V10.7344C27.1289 8.33203 25.9336 7.16016 23.5078 7.16016H3.62109C1.20703 7.16016 0 8.33203 0 10.7344V22.1367C0 24.5391 1.20703 25.7109 3.62109 25.7109ZM7.61719 8.17969H9.43359V6.10547C9.43359 5.21484 9.96094 4.71094 10.875 4.71094H16.2539C17.168 4.71094 17.6836 5.21484 17.6836 6.10547V8.15625H19.5V6.23438C19.5 4.03125 18.3398 3 16.2188 3H10.8984C8.89453 3 7.61719 4.03125 7.61719 6.23438V8.17969Z" fill="black" fill-opacity="0.85"/>
</g>
<defs>
<clipPath id="clip0_2124_88854">
<rect width="27.1289" height="22.7227" fill="white" transform="translate(0 3)"/>
</clipPath>
</defs>
</svg>
