<svg width="28" height="28" viewBox="0 0 28 28" fill="none" xmlns="http://www.w3.org/2000/svg">
<g clip-path="url(#clip0_2124_78055)">
<path d="M6.67969 24.5977H20.8945C23.3555 24.5977 24.5742 23.3789 24.5742 20.9648V6.65625C24.5742 4.24219 23.3555 3.02344 20.8945 3.02344H6.67969C4.23047 3.02344 3 4.23047 3 6.65625V20.9648C3 23.3906 4.23047 24.5977 6.67969 24.5977Z" fill="black" fill-opacity="0.85"/>
<path d="M13.7695 10.793C12.9609 10.793 12.3281 10.207 12.3281 9.45703C12.3281 8.60156 12.9609 7.99219 13.7695 7.99219C14.6602 7.99219 15.2578 8.58984 15.2578 9.45703C15.2578 10.207 14.6484 10.793 13.7695 10.793ZM9.09375 14.8242C8.41406 14.8242 7.94531 14.4609 7.94531 13.8164C7.94531 13.1602 8.39062 12.7969 9.09375 12.7969H18.5039C19.207 12.7969 19.6406 13.1602 19.6406 13.8164C19.6406 14.4609 19.1836 14.8242 18.5039 14.8242H9.09375ZM13.7695 19.6172C12.9609 19.6172 12.3281 19.0195 12.3281 18.2695C12.3281 17.4141 12.9609 16.8164 13.7695 16.8164C14.6602 16.8164 15.2578 17.4141 15.2578 18.2695C15.2578 19.0195 14.6484 19.6172 13.7695 19.6172Z" fill="white"/>
</g>
<defs>
<clipPath id="clip0_2124_78055">
<rect width="21.5742" height="21.5977" fill="white" transform="translate(3 3)"/>
</clipPath>
</defs>
</svg>
