<svg width="28" height="29" viewBox="0 0 28 29" fill="none" xmlns="http://www.w3.org/2000/svg">
<path d="M2.9375 24.7326H25.332C25.8477 24.7326 26.2812 24.299 26.2812 23.7834C26.2812 23.2678 25.8477 22.8459 25.332 22.8459H2.9375C2.42188 22.8459 2 23.2678 2 23.7834C2 24.299 2.42188 24.7326 2.9375 24.7326Z" fill="black" fill-opacity="0.85"/>
<path d="M7.74202 19.9631L11.6326 18.3576C11.9256 18.2404 12.0662 18.135 12.242 17.9592L23.4568 6.82638C24.5584 5.73654 24.5467 4.45919 23.4334 3.33419L20.9725 0.84982C19.8475 -0.263462 18.5701 -0.286899 17.4686 0.802945L6.24202 11.9358C6.06624 12.0998 5.96077 12.2287 5.84358 12.5217L4.20295 16.4123C3.95686 16.9983 4.01545 17.5842 4.46077 18.0295L6.12483 19.7053C6.55842 20.1389 7.14436 20.2209 7.74202 19.9631ZM7.56624 18.1467C7.33186 18.2287 7.15608 18.2287 6.94514 18.0178L6.14827 17.2209C5.93733 17.01 5.93733 16.8225 6.03108 16.6115L7.48421 13.2014L18.6521 2.11544C18.992 1.79904 19.3904 1.7756 19.7068 2.09201L22.1795 4.5881C22.4959 4.91623 22.4725 5.31466 22.1443 5.64279L10.9764 16.7287L7.56624 18.1467ZM3.17171 20.549H4.58967C4.9178 20.549 5.05842 20.4904 5.31624 20.2795L6.4178 19.4358L4.7303 17.7131L2.83187 19.717C2.4803 20.0803 2.65608 20.549 3.17171 20.549ZM6.4178 13.2014L11.2108 18.0178L12.3123 16.9279L7.51936 12.0998L6.4178 13.2014ZM16.1443 3.55685L20.9373 8.37326L22.0389 7.29513L17.2459 2.46701L16.1443 3.55685Z" fill="black" fill-opacity="0.85"/>
</svg>
