<svg width="38" height="28" viewBox="0 0 38 28" fill="none" xmlns="http://www.w3.org/2000/svg">
<path d="M0 16.332C0 16.9648 0.515625 17.2344 1.06641 16.8945L5.22656 14.3633C5.75391 14.0352 5.74219 13.4141 5.22656 13.0859L1.05469 10.5313C0.503906 10.1914 0 10.4844 0 11.1055V16.332ZM37.957 16.332V11.1055C37.957 10.4844 37.4531 10.2031 36.8906 10.5313L32.7305 13.0859C32.2148 13.4258 32.2031 14.0234 32.7305 14.3633L36.8906 16.8945C37.4531 17.2227 37.957 16.9648 37.957 16.332Z" fill="black" fill-opacity="0.85"/>
<path d="M7.86328 8.25781H8.48438C8.8828 8.25781 9.17578 7.96484 9.17578 7.56641V2.70312C9.17578 2.30469 8.8828 2.01172 8.48438 2.01172H7.86328C7.46484 2.01172 7.17188 2.30469 7.17188 2.70312V7.56641C7.17188 7.96484 7.46484 8.25781 7.86328 8.25781ZM7.86328 16.8477H8.48438C8.8828 16.8477 9.17578 16.5547 9.17578 16.1562V11.3047C9.17578 10.9062 8.8828 10.6133 8.48438 10.6133H7.86328C7.46484 10.6133 7.17188 10.9062 7.17188 11.3047V16.1562C7.17188 16.5547 7.46484 16.8477 7.86328 16.8477ZM7.86328 25.4492H8.48438C8.8828 25.4492 9.17578 25.1562 9.17578 24.7695V19.8945C9.17578 19.4961 8.8828 19.2031 8.48438 19.2031H7.86328C7.46484 19.2031 7.17188 19.4961 7.17188 19.8945V24.7695C7.17188 25.1562 7.46484 25.4492 7.86328 25.4492ZM29.4609 8.25781H30.0938C30.4922 8.25781 30.7852 7.96484 30.7852 7.56641V2.70312C30.7852 2.30469 30.4922 2.01172 30.0938 2.01172H29.4609C29.0742 2.01172 28.7812 2.30469 28.7812 2.70312V7.56641C28.7812 7.96484 29.0742 8.25781 29.4609 8.25781ZM29.4609 16.8477H30.0938C30.4922 16.8477 30.7852 16.5547 30.7852 16.1562V11.3047C30.7852 10.9062 30.4922 10.6133 30.0938 10.6133H29.4609C29.0742 10.6133 28.7812 10.9062 28.7812 11.3047V16.1562C28.7812 16.5547 29.0742 16.8477 29.4609 16.8477ZM29.4609 25.4492H30.0938C30.4922 25.4492 30.7852 25.1562 30.7852 24.7695V19.8945C30.7852 19.4961 30.4922 19.2031 30.0938 19.2031H29.4609C29.0742 19.2031 28.7812 19.4961 28.7812 19.8945V24.7695C28.7812 25.1562 29.0742 25.4492 29.4609 25.4492ZM18.9609 24.3477C23.1094 24.3477 24.9727 23.4102 24.9727 21.0195V11.5859H25.4414C25.9688 11.5859 26.3906 11.1758 26.3789 10.6719L26.3672 10.2617C26.3438 9.74609 25.9688 9.34766 25.4297 9.34766H24.9727V7.00391C24.9727 4.54297 22.7109 3.08984 18.9727 3.10156C15.2578 3.10156 12.9844 4.53125 12.9844 7.00391V9.34766H12.5273C11.9883 9.34766 11.6016 9.74609 11.5898 10.25L11.5781 10.6719C11.5664 11.1758 11.9883 11.5859 12.5156 11.5859H12.9844V21.0195C12.9844 23.4102 14.8359 24.3477 18.9609 24.3477ZM18.9727 11.9609C18.1758 11.9727 16.957 12.043 16.5352 12.0312C15.8555 12.043 15.5742 11.7734 15.5039 11.0586L15.3633 9.51172C15.2461 8.23438 16.1016 7.73047 18.9844 7.73047C21.8672 7.75391 22.6992 8.23438 22.5938 9.5L22.4648 11.0703C22.3945 11.7734 22.0781 12.043 21.4219 12.043C21.0117 12.0312 19.7344 11.9727 18.9727 11.9609ZM18.9727 20.9375C16.1133 20.9141 15.1875 20.5039 15.3984 19.168L15.5039 18.418C15.668 17.3633 16.5 17.0352 18.9844 17.0469C21.457 17.0352 22.2891 17.3516 22.4531 18.418L22.5586 19.1797C22.7578 20.4922 21.8438 20.9141 18.9727 20.9375Z" fill="black" fill-opacity="0.85"/>
</svg>
