<svg width="28" height="28" viewBox="0 0 28 28" fill="none" xmlns="http://www.w3.org/2000/svg">
<path d="M13.9531 25.9062C20.4922 25.9062 25.9062 20.4805 25.9062 13.9531C25.9062 7.41406 20.4805 2 13.9414 2C7.41406 2 2 7.41406 2 13.9531C2 20.4805 7.42578 25.9062 13.9531 25.9062Z" fill="black" fill-opacity="0.85"/>
<path d="M6.24218 17.8906C5.84374 17.8906 5.60938 17.6211 5.60938 17.2227V10.9883C5.60938 10.4727 5.91406 10.0039 6.62891 10.0039C7.13281 10.0039 7.48437 10.2031 7.61327 10.8125L8.66797 15.8867H8.67968L9.69921 10.8125C9.8164 10.25 10.1445 10.0039 10.6953 10.0039C11.3164 10.0039 11.7148 10.3672 11.7148 10.9883V17.2227C11.7148 17.6328 11.4922 17.8906 11.0937 17.8906C10.6953 17.8906 10.4844 17.6211 10.4844 17.2227V12.1016H10.4375L9.39452 17.0469C9.31249 17.457 9.08984 17.75 8.66797 17.75C8.25781 17.75 8.02344 17.457 7.94141 17.0469L6.91016 12.1016H6.86327V17.2227C6.86327 17.6328 6.64061 17.8906 6.24218 17.8906ZM13.3555 17.8672C13.0156 17.8672 12.6758 17.6797 12.6758 17.1406V10.8477C12.6758 10.3437 12.9688 10.1211 13.3555 10.1211H14.9609C16.3086 10.1211 17 11.3164 17 12.6875C17 14.0234 16.2852 15.2539 14.8672 15.2539H14.0703V17.1406C14.0703 17.6328 13.7773 17.8672 13.3555 17.8672ZM14.0703 14.1406H14.5859C15.3594 14.1406 15.6289 13.4609 15.6289 12.6875C15.6289 11.9141 15.3594 11.2344 14.5977 11.2344H14.0703V14.1406ZM18.418 17.8906C17.9609 17.8906 17.7266 17.5742 17.7266 17.1289V10.7422C17.7266 10.2969 17.9609 10.0039 18.418 10.0039C18.875 10.0039 19.1211 10.2969 19.1211 10.7422V13.2969H20.9727V10.7422C20.9727 10.3086 21.207 10.0039 21.6758 10.0039C22.1094 10.0039 22.3672 10.2734 22.3672 10.7422V17.1289C22.3672 17.5977 22.1211 17.8906 21.6758 17.8906C21.1953 17.8906 20.9727 17.5273 20.9727 17.1289V14.4688H19.1211V17.1289C19.1211 17.5742 18.875 17.8906 18.418 17.8906Z" fill="white"/>
</svg>
