<svg width="28" height="28" viewBox="0 0 28 28" fill="none" xmlns="http://www.w3.org/2000/svg">
<path d="M4.00098 15.893C4.00098 18.9633 5.19629 21.7876 7.14161 23.9087C7.65723 24.4829 8.55958 24.6235 9.25098 23.9321L10.9033 22.2915C11.2666 21.9282 11.2666 21.3188 10.9033 20.9555C10.54 20.5923 9.93067 20.5923 9.56739 20.9555L8.27833 22.2446C6.84864 20.5219 6.00489 18.3305 6.00489 15.893C6.00489 10.3735 10.4111 5.93206 15.9423 5.93206C21.4619 5.93206 25.8798 10.3735 25.8798 15.893C25.8798 18.3305 25.0244 20.5219 23.5947 22.2446L22.3056 20.9555C21.9541 20.5923 21.3447 20.5923 20.9697 20.9555C20.6181 21.3188 20.6064 21.9282 20.9697 22.2915L22.6338 23.9321C23.3252 24.6235 24.2275 24.4829 24.7431 23.9087C26.6884 21.7876 27.8838 18.9633 27.8838 15.893C27.8838 9.36566 22.4697 3.93988 15.9423 3.93988C9.40333 3.93988 4.00098 9.36566 4.00098 15.893ZM7.85645 14.9555H4.99708V16.8423H7.85645C8.37208 16.8423 8.80567 16.4087 8.80567 15.893C8.80567 15.3774 8.37208 14.9555 7.85645 14.9555ZM14.9931 7.79535C14.9931 8.31097 15.4267 8.74456 15.9423 8.74456C16.458 8.74456 16.8798 8.31097 16.8798 7.79535V4.93597H14.9931V7.79535ZM21.0048 9.50628C20.6416 9.86956 20.6533 10.4672 21.0048 10.8422C21.3798 11.2055 21.9892 11.2055 22.3408 10.8422L24.3681 8.81488L23.0322 7.47894L21.0048 9.50628ZM24.0517 14.9555C23.5361 14.9555 23.1142 15.3774 23.1142 15.893C23.1142 16.4087 23.5361 16.8423 24.0517 16.8423H26.9111V14.9555H24.0517Z" fill="black" fill-opacity="0.85"/>
<path d="M17.4309 17.393C18.2044 16.6196 18.2044 15.518 17.4309 14.7446C17.2903 14.604 16.9856 14.3813 16.7981 14.2524L11.1145 10.3032C10.8332 10.1039 10.552 10.1625 10.3762 10.3266C10.2122 10.5141 10.1536 10.7836 10.3528 11.0649L14.2903 16.7485C14.4309 16.936 14.6536 17.2407 14.7942 17.393C15.5559 18.1548 16.6575 18.1548 17.4309 17.393Z" fill="black" fill-opacity="0.85"/>
<path d="M4.56334 1.19772L1.20006 4.54928C0.813341 4.94772 1.02428 5.42819 1.51647 5.53366L5.61803 6.36569C6.15709 6.48288 6.48522 6.13131 6.37975 5.61569L5.536 1.50241C5.44225 1.03366 4.95006 0.811 4.56334 1.19772Z" fill="black" fill-opacity="0.85"/>
</svg>
