<svg width="28" height="28" viewBox="0 0 28 28" fill="none" xmlns="http://www.w3.org/2000/svg">
<g clip-path="url(#clip0_2124_24820)">
<path d="M8.24609 25.332H19.1445C21.1484 25.332 22.8359 25.1445 24.0312 23.9492C25.2266 22.7539 25.4023 21.0781 25.4023 19.0742V8.26953C25.4023 6.26562 25.2266 4.60156 24.0312 3.40625C22.8359 2.21094 21.1484 2.02344 19.1445 2.02344H8.22266C6.25391 2.02344 4.56641 2.21094 3.37109 3.40625C2.17578 4.60156 2 6.27734 2 8.24609V19.0742C2 21.0781 2.17578 22.7539 3.37109 23.9492C4.56641 25.1445 6.25391 25.332 8.24609 25.332Z" fill="black" fill-opacity="0.85"/>
<path d="M8.26953 11.0352C8.24609 10.1211 8.97266 9.25391 9.94531 9.20703C10.0156 10.0742 9.25391 11.1406 8.26953 11.0352ZM11.6094 15.2188C11.4336 15.8398 11.0117 16.5664 10.4961 17.0938C10.332 17.2344 10.0977 17.3516 9.79297 17.3516C9.51172 17.3516 9.34766 17.2461 9.10156 17.1641C8.94922 17.1172 8.72656 17.0117 8.46875 17.0117C7.87109 17.0117 7.60156 17.375 7.10938 17.375C6.78125 17.375 6.51172 17.1641 6.13672 16.7656C5.44531 15.9922 4.98828 14.7617 4.98828 13.707C4.98828 13.0625 5.15234 12.4531 5.5625 11.9492C5.90234 11.5039 6.41797 11.2461 7.0625 11.2461C7.64844 11.2461 8 11.6211 8.31641 11.6211C8.69141 11.6211 9.11328 11.2344 9.85156 11.2344C10.5078 11.2344 11.0586 11.4922 11.4102 12.0195C10.9414 12.2891 10.7656 12.6289 10.6719 12.9102C10.5195 13.3203 10.4961 13.8008 10.6719 14.2812C10.8477 14.7148 11.1406 15.0078 11.6094 15.2188ZM14.9141 9.80469V11.2344H16.0742V12.1953H14.9141V15.5586C14.9141 16.1094 15.1484 16.3203 15.6406 16.3203C15.7695 16.3203 15.9922 16.3203 16.0508 16.2852V17.3047C15.9453 17.3164 15.6406 17.3516 15.3711 17.3516C14.1406 17.3516 13.6602 16.918 13.6602 15.6992V12.1953H12.793V11.2344H13.6602V9.80469H14.9141ZM20.1758 17.3047H18.8633L16.6367 11.2344H17.9609L19.5312 16.1094L21.0078 11.2344H22.3672L20.1758 17.3047Z" fill="white"/>
</g>
<defs>
<clipPath id="clip0_2124_24820">
<rect width="23.4023" height="23.332" fill="white" transform="translate(2 2)"/>
</clipPath>
</defs>
</svg>
