<svg width="28" height="28" viewBox="0 0 28 28" fill="none" xmlns="http://www.w3.org/2000/svg">
<g clip-path="url(#clip0_2124_24740)">
<path d="M13.8477 11.8102C20.7734 11.8102 25.3906 9.61877 25.3906 6.40783C25.3906 3.1969 20.7734 1.00549 13.8477 1.00549C6.92188 1.00549 2.30469 3.1969 2.30469 6.40783C2.30469 9.61877 6.92188 11.8102 13.8477 11.8102ZM13.8477 18.0446C21.2188 18.0446 25.6953 15.9821 25.6953 11.0836V9.74768C24.8281 10.7438 23.5625 11.5524 21.957 12.15V13.7438C21.957 14.1656 21.6055 14.5055 21.1836 14.5055C20.7617 14.5055 20.4219 14.1656 20.4219 13.7438V12.6539C19.7422 12.8297 19.0156 12.9703 18.3594 13.0758V14.5406C18.3594 14.9625 18.0195 15.3024 17.5977 15.3024C17.1758 15.3024 16.8242 14.9625 16.8242 14.5406V13.275C16.0625 13.3453 15.1953 13.4039 14.4688 13.4156V14.8336C14.4688 15.2555 14.1289 15.6071 13.707 15.6071C13.2852 15.6071 12.9336 15.2555 12.9336 14.8336V13.4039C12.1602 13.3922 11.3516 13.3336 10.5898 13.2516V14.5406C10.5898 14.9625 10.2383 15.3024 9.81641 15.3024C9.39453 15.3024 9.05469 14.9625 9.05469 14.5406V13.0289C8.32812 12.9117 7.64844 12.7594 6.99219 12.5719V13.7438C6.99219 14.1656 6.65234 14.5055 6.23047 14.5055C5.80859 14.5055 5.45703 14.1656 5.45703 13.7438V12.0446C3.98047 11.4586 2.80859 10.6852 2 9.74768V11.0836C2 15.9821 6.46484 18.0446 13.8477 18.0446Z" fill="black" fill-opacity="0.85"/>
<path d="M23.2345 23.3531C23.2345 22.8141 22.7774 22.275 22.0626 22.5446C19.8595 23.3531 17.504 23.7633 14.9142 23.7633C12.336 23.7633 9.96888 23.3531 7.76575 22.5446L7.1681 24.2086C9.55872 25.0875 12.1368 25.5328 14.9142 25.5328C17.7032 25.5328 20.2696 25.0758 22.6603 24.2086C23.0704 24.068 23.2345 23.7047 23.2345 23.3531ZM8.18763 26.4469L9.95716 21.3844C10.2267 20.6227 9.47669 20.0602 8.84388 20.2828L4.76575 21.7125C4.21497 21.9 4.01575 22.4508 4.32044 22.9547L6.64075 26.611C7.00404 27.1852 7.92982 27.1617 8.18763 26.4469Z" fill="black" fill-opacity="0.85"/>
</g>
<defs>
<clipPath id="clip0_2124_24740">
<rect width="23.6953" height="26.0149" fill="white" transform="translate(2 1)"/>
</clipPath>
</defs>
</svg>
