<svg width="28" height="28" viewBox="0 0 28 28" fill="none" xmlns="http://www.w3.org/2000/svg">
<path d="M13.9531 25.9062C20.4922 25.9062 25.9062 20.4805 25.9062 13.9531C25.9062 7.41406 20.4805 2 13.9414 2C7.41406 2 2 7.41406 2 13.9531C2 20.4805 7.42578 25.9062 13.9531 25.9062Z" fill="black" fill-opacity="0.85"/>
<path d="M8.22266 18.8398C7.66016 18.8398 7.40234 18.5469 7.40234 18.1367C7.40234 17.75 7.625 17.4453 7.84766 17.1641L9.94531 14.4805C10.5781 13.6719 11.2578 12.6875 11.2578 11.7148C11.2578 10.8594 10.8477 10.2266 10.1328 10.2266C9.42969 10.2266 9.14844 10.7305 8.91406 11.5391C8.79688 11.9375 8.53906 12.1133 8.14062 12.1133C7.67188 12.1133 7.41406 11.8086 7.41406 11.3516C7.41406 10.0977 8.59766 8.82031 10.1328 8.82031C11.7969 8.82031 12.9102 10.0039 12.9102 11.6328C12.9102 12.6992 12.5117 13.5898 11.3047 15.0898L9.54688 17.3164V17.4102H12.418C12.8281 17.4102 13.0977 17.668 13.0977 18.1367C13.0977 18.5586 12.8398 18.8398 12.418 18.8398H8.22266ZM17.5625 19.0859C15.1016 19.0859 14.375 16.3555 14.375 14.0703C14.375 11.6211 15.0898 8.84375 17.5859 8.84375C18.793 8.84375 19.8359 9.48828 20.0938 10.5313C20.1406 10.6836 20.1523 10.8359 20.1523 10.9648C20.1523 11.3633 19.9414 11.6914 19.4609 11.6914C19.0625 11.6914 18.8281 11.5273 18.6523 11.1523C18.4531 10.6484 18.0898 10.2617 17.5391 10.2617C16.1914 10.2617 16.0273 12.6875 16.0273 14.0234C16.0273 14.0586 16.0273 14.1055 16.0273 14.1523H16.0742C16.3555 13.1211 17.0938 12.4648 18.0664 12.4648C19.6719 12.4648 20.457 14.0117 20.457 15.6406C20.457 17.5391 19.4141 19.0859 17.5625 19.0859ZM17.5391 17.668C18.3828 17.668 18.7695 16.6016 18.7695 15.7227C18.793 14.832 18.4297 13.7891 17.5391 13.7891C16.6719 13.7891 16.2617 14.7852 16.2617 15.6758C16.2617 16.5312 16.625 17.668 17.5391 17.668Z" fill="white"/>
</svg>
