<svg width="28" height="28" viewBox="0 0 28 28" fill="none" xmlns="http://www.w3.org/2000/svg">
<g clip-path="url(#clip0_2124_89398)">
<path d="M13.9531 20.2227C17.4102 20.2227 20.2227 17.4102 20.2227 13.9531C20.2227 10.4961 17.4102 7.68359 13.9531 7.68359C10.4961 7.68359 7.68359 10.4961 7.68359 13.9531C7.68359 17.4102 10.4961 20.2227 13.9531 20.2227ZM13.9531 18.2422C11.5859 18.2422 9.66406 16.3203 9.66406 13.9531C9.66406 11.5859 11.5859 9.66406 13.9531 9.66406C16.3203 9.66406 18.2422 11.5859 18.2422 13.9531C18.2422 16.3203 16.3203 18.2422 13.9531 18.2422ZM4.61328 20.8555L7.13281 23.375L11.7852 18.7227L9.26562 16.2031L4.61328 20.8555ZM4.49609 7.03906L9.26562 11.8086L11.7852 9.28906L7.01562 4.51953L4.49609 7.03906ZM23.4336 7.0625L20.9141 4.54297L16.168 9.28906L18.6875 11.8086L23.4336 7.0625ZM23.3281 20.832L18.6992 16.2031L16.168 18.7344L20.7969 23.3633L23.3281 20.832ZM13.9531 25.9062C20.4922 25.9062 25.9062 20.4805 25.9062 13.9531C25.9062 7.41406 20.4805 2 13.9414 2C7.41406 2 2 7.41406 2 13.9531C2 20.4805 7.42578 25.9062 13.9531 25.9062ZM13.9531 23.9141C8.42188 23.9141 4.00391 19.4844 4.00391 13.9531C4.00391 8.42188 8.41016 3.99219 13.9414 3.99219C19.4727 3.99219 23.9141 8.42188 23.9141 13.9531C23.9141 19.4844 19.4844 23.9141 13.9531 23.9141Z" fill="black" fill-opacity="0.85"/>
</g>
<defs>
<clipPath id="clip0_2124_89398">
<rect width="23.9062" height="23.918" fill="white" transform="translate(2 2)"/>
</clipPath>
</defs>
</svg>
