<svg width="28" height="28" viewBox="0 0 28 28" fill="none" xmlns="http://www.w3.org/2000/svg">
<path d="M13.9531 25.918C20.4922 25.918 25.9062 20.5039 25.9062 13.9648C25.9062 7.4375 20.4805 2.01172 13.9414 2.01172C7.41406 2.01172 2 7.4375 2 13.9648C2 20.5039 7.42578 25.918 13.9531 25.918Z" fill="black" fill-opacity="0.85"/>
<path d="M8.49219 18.9219C6.99219 18.9219 5.97266 17.9492 5.97266 16.6016C5.97266 15.5352 6.64062 14.6797 7.61328 14.3633C7.82422 12.4414 9.45312 10.9297 11.3984 10.9297C12.8633 10.9297 14.082 11.7266 14.7617 13.0039C16.543 13.0391 17.8672 14.3047 17.8672 15.9453C17.8672 17.6328 16.543 18.9219 14.832 18.9219H8.49219ZM22.0039 12.7227C22.0039 13.7773 20.7617 15.4062 18.6992 15.6172C18.5469 13.8008 17.1406 12.4297 15.2656 12.1836C15.1484 12.0078 15.0312 11.8555 14.8906 11.7031C15.0898 9.93359 16.6016 8.52734 17.7969 8.46875C18.0195 8.46875 18.1719 8.58594 18.1719 8.76172C18.1719 9.07812 17.7383 9.67578 17.7383 10.4609C17.7383 11.8203 18.6758 12.6992 20.1641 12.6992C20.9844 12.6992 21.4297 12.3242 21.7227 12.3242C21.9102 12.3242 22.0039 12.5 22.0039 12.7227Z" fill="white"/>
</svg>
