<svg width="28" height="28" viewBox="0 0 28 28" fill="none" xmlns="http://www.w3.org/2000/svg">
<path d="M6.67969 24.5977H20.8945C23.3555 24.5977 24.5742 23.3789 24.5742 20.9648V6.65625C24.5742 4.24219 23.3555 3.02344 20.8945 3.02344H6.67969C4.23047 3.02344 3 4.23047 3 6.65625V20.9648C3 23.3906 4.23047 24.5977 6.67969 24.5977ZM6.70312 22.7109C5.53125 22.7109 4.88672 22.0898 4.88672 20.8711V6.75C4.88672 5.53125 5.53125 4.91016 6.70312 4.91016H20.8711C22.0312 4.91016 22.6875 5.53125 22.6875 6.75V20.8711C22.6875 22.0898 22.0312 22.7109 20.8711 22.7109H6.70312Z" fill="black" fill-opacity="0.85"/>
<path d="M10.6406 18.7383C12.3281 18.7383 13.6172 17.6836 13.6172 15.9258C13.6172 14.4727 12.75 13.7578 11.7656 13.6523V13.6172C12.8203 13.3359 13.3359 12.3867 13.3359 11.4023C13.3359 9.78516 12.1289 8.85938 10.6055 8.85938C9.38672 8.85938 8.34375 9.53906 8.00391 10.582C7.94531 10.8047 7.92188 11.0156 7.92188 11.2148C7.92188 11.6016 8.17969 11.9062 8.63672 11.9062C9.03516 11.9062 9.26953 11.7539 9.38672 11.3437C9.57422 10.6523 9.9375 10.2187 10.6055 10.2187C11.3789 10.2187 11.7422 10.8164 11.7422 11.5898C11.7422 12.4453 11.2617 13.0664 10.3945 13.0664H10.1133C9.71484 13.0664 9.45703 13.3125 9.45703 13.6992C9.45703 14.0859 9.72656 14.3086 10.1133 14.3086H10.4063C11.4023 14.3086 11.9531 14.8594 11.9531 15.8789C11.9531 16.6875 11.5195 17.3789 10.6523 17.3789C9.79688 17.3789 9.41016 16.8047 9.26953 16.2656C9.16406 15.8906 8.90625 15.6914 8.53125 15.6914C8.07422 15.6914 7.76953 15.9727 7.76953 16.4297C7.76953 16.6406 7.79297 16.8516 7.86328 17.0391C8.19141 18.1289 9.38672 18.7383 10.6406 18.7383ZM16.3711 18.6914C16.8047 18.6914 16.9922 18.5156 17.1562 18.0938L19.8281 10.9453C19.957 10.582 20.0508 10.3008 20.0508 9.96094C20.0508 9.42188 19.6289 9.05859 19.1133 9.05859H15.3281C14.9297 9.05859 14.6484 9.35156 14.6484 9.75C14.6484 10.1484 14.9297 10.4414 15.3281 10.4414H18.3398V10.5469L15.7383 17.2734C15.6445 17.5312 15.5977 17.6836 15.5977 17.9648C15.5977 18.3047 15.8086 18.6914 16.3711 18.6914Z" fill="black" fill-opacity="0.85"/>
</svg>
