<svg width="28" height="28" viewBox="0 0 28 28" fill="none" xmlns="http://www.w3.org/2000/svg">
<g clip-path="url(#clip0_2124_49970)">
<path d="M13.9531 25.9062C20.4922 25.9062 25.9062 20.4805 25.9062 13.9531C25.9062 7.41406 20.4805 2 13.9414 2C7.41406 2 2 7.41406 2 13.9531C2 20.4805 7.42578 25.9062 13.9531 25.9062Z" fill="black" fill-opacity="0.85"/>
<path d="M6.32422 12.957C6.32422 12.8047 6.39453 12.6406 6.52344 12.5117L13.1094 7.00391C13.625 6.55859 14.3047 6.55859 14.832 7.00391L17.9727 9.64062V8.48047C17.9727 8.21094 18.1719 8.02344 18.4414 8.02344H19.1211C19.4023 8.02344 19.5781 8.21094 19.5781 8.48047V11L21.3945 12.5117C21.5352 12.6406 21.5938 12.7812 21.5938 12.9805C21.5938 13.2969 21.3359 13.5195 21.0195 13.5195C20.832 13.5195 20.6914 13.4023 20.5391 13.2852L14.2578 8.01172C14.0586 7.85938 13.8828 7.83594 13.6719 8.01172L7.37891 13.2852C7.23828 13.4023 7.09766 13.5195 6.89844 13.5195C6.53516 13.5195 6.32422 13.2383 6.32422 12.957ZM8.33984 18.6523V13.6133L13.5781 9.21875C13.8242 9.01953 14.0938 9.00781 14.3398 9.21875L19.5781 13.625V18.6523C19.5781 19.5195 19.0508 20.0469 18.1484 20.0469H9.78125C8.87891 20.0469 8.33984 19.5195 8.33984 18.6523ZM12.3242 18.8281H15.6055V14.7969C15.6055 14.5039 15.4297 14.3047 15.1133 14.3047H12.8164C12.5117 14.3047 12.3242 14.5039 12.3242 14.7969V18.8281Z" fill="white"/>
</g>
<defs>
<clipPath id="clip0_2124_49970">
<rect width="23.9062" height="23.918" fill="white" transform="translate(2 2)"/>
</clipPath>
</defs>
</svg>
