<svg width="29" height="29" viewBox="0 0 29 29" fill="none" xmlns="http://www.w3.org/2000/svg">
<g clip-path="url(#clip0_2124_45807)">
<path d="M4.02735 13.9839C4.02735 12.9175 4.19141 11.8862 4.4961 10.937L2.65625 10.1636C2.25781 11.3706 2.02344 12.648 2.02344 13.9839C2.02344 15.3081 2.25781 16.5972 2.66797 17.8042L4.4961 17.0308C4.19141 16.0816 4.02735 15.0503 4.02735 13.9839ZM9.41797 5.10107L8.66797 3.29638C6.34766 4.45654 4.4375 6.3667 3.27735 8.68701L5.10547 9.44873C6.04297 7.58545 7.56641 6.06201 9.41797 5.10107ZM13.9648 4.02295C15.0312 4.02295 16.0625 4.18701 17.0351 4.50342L17.7851 2.67529C16.5781 2.26514 15.289 2.03076 13.9648 2.03076C12.6406 2.03076 11.3398 2.26514 10.1328 2.67529L10.9062 4.50342C11.8672 4.18701 12.8984 4.02295 13.9648 4.02295ZM22.8476 9.43701L24.664 8.68701C23.4922 6.3667 21.582 4.45654 19.2617 3.28467L18.5117 5.10107C20.3632 6.05029 21.8984 7.57373 22.8476 9.43701ZM23.9375 13.9839C23.9375 15.0503 23.7734 16.0816 23.4687 17.0425L25.2851 17.816C25.6953 16.6089 25.9296 15.3081 25.9296 13.9839C25.9296 12.648 25.6953 11.3589 25.2851 10.1519L23.457 10.9253C23.7734 11.8862 23.9375 12.9175 23.9375 13.9839ZM13.9765 25.937C18.5703 25.937 22.6718 23.23 24.664 19.2808L22.8476 18.5308C22.4375 19.3042 21.957 20.0191 21.3828 20.6519C20.2109 19.2691 17.5156 17.9683 13.9765 17.9683C10.4375 17.9683 7.74219 19.2691 6.57032 20.6519C6.00782 20.0074 5.50391 19.3042 5.10547 18.5308L3.28906 19.2808C5.28125 23.23 9.38282 25.937 13.9765 25.937ZM13.9765 15.9761C16.2265 15.9996 17.9961 14.0777 17.9961 11.5581C17.9961 9.19092 16.2265 7.23388 13.9765 7.23388C11.7266 7.23388 9.94532 9.19092 9.95703 11.5581C9.96875 14.0777 11.7266 15.9527 13.9765 15.9761Z" fill="black" fill-opacity="0.85"/>
</g>
<defs>
<clipPath id="clip0_2124_45807">
<rect width="23.9062" height="23.918" fill="white" transform="translate(2.02344 2.03076)"/>
</clipPath>
</defs>
</svg>
