<svg width="28" height="28" viewBox="0 0 28 28" fill="none" xmlns="http://www.w3.org/2000/svg">
<path d="M20.4102 26.2656V3.97656C20.4102 2.05469 19.3555 1 17.4336 1H6.80469C4.87109 1 3.85156 2.05469 3.85156 3.97656V26.2656H5.72656L5.73828 4C5.73828 3.27344 6.08984 2.88672 6.83984 2.88672H17.3984C18.125 2.88672 18.5117 3.26172 18.5117 4V26.2656H20.4102ZM2 26.1836C2 26.7109 2.41016 27.1445 2.92578 27.1445H21.3125C21.8281 27.1445 22.25 26.7109 22.25 26.1836C22.25 25.6797 21.8281 25.2578 21.3125 25.2578H2.92578C2.42188 25.2578 2 25.668 2 26.1836ZM8.375 13.9023H15.8633C16.6484 13.9023 17.1875 13.4336 17.1875 12.7188V5.61719C17.1875 4.90234 16.6367 4.41016 15.8633 4.41016H8.375C7.60156 4.41016 7.07422 4.90234 7.07422 5.61719V12.7188C7.07422 13.4336 7.60156 13.9023 8.375 13.9023ZM19.5078 16.4336H20.5273C21.0664 16.4336 21.3945 16.7383 21.3945 17.3242V21.2031C21.3945 22.8672 22.4023 23.875 24.0664 23.875C25.7305 23.875 26.7266 22.8672 26.7266 21.2031V6.84766C26.7266 6.14453 26.5391 5.60547 26.1992 5.06641L24.5938 2.46484C23.9961 1.51563 22.6016 2.37109 23.1875 3.33203L24.5703 5.55859C24.6992 5.76953 24.6875 6.01562 24.5469 6.22656L23.0117 8.37109C22.5078 9.0625 22.5781 9.71875 23.1055 10.3398L25.0742 12.625V21.2031C25.0742 21.8359 24.6875 22.2227 24.0664 22.2227C23.4336 22.2227 23.0586 21.8359 23.0586 21.2031V17.3242C23.0586 15.707 22.0977 14.7812 20.5273 14.7812H19.5078V16.4336Z" fill="black" fill-opacity="0.85"/>
</svg>
