<svg width="28" height="28" viewBox="0 0 28 28" fill="none" xmlns="http://www.w3.org/2000/svg">
<path d="M23.6445 21.7188C23.6445 21.25 23.4336 20.875 23.1875 20.3828L15.8867 5.33594C15.3945 4.32812 14.9375 4.01172 14.3164 4.01172C13.6953 4.01172 13.25 4.32812 12.7578 5.33594L5.44531 20.3828C5.21094 20.8867 5 21.2617 5 21.7305C5 22.5977 5.65625 23.1367 6.67578 23.1367L21.957 23.125C22.9766 23.125 23.6445 22.5859 23.6445 21.7188ZM21.4062 21.1328C21.4062 21.2031 21.3594 21.25 21.2656 21.25H7.36719C7.27344 21.25 7.23828 21.2031 7.23828 21.1328C7.23828 21.0859 7.26172 21.0391 7.28516 20.9922L14.1875 6.63672C14.2227 6.57812 14.2578 6.53125 14.3164 6.53125C14.3867 6.53125 14.4219 6.57812 14.457 6.63672L21.3594 20.9922C21.3828 21.0391 21.4062 21.0859 21.4062 21.1328Z" fill="black" fill-opacity="0.85"/>
</svg>
