<svg width="28" height="28" viewBox="0 0 28 28" fill="none" xmlns="http://www.w3.org/2000/svg">
<path d="M15.2281 25.9062C21.7555 25.9062 27.1813 20.4805 27.1813 13.9531C27.1813 7.41406 21.7555 2 15.2281 2C8.68908 2 3.27502 7.40234 3.27502 13.9414H5.26721C5.26721 8.41016 9.69689 4.00391 15.2281 4.00391C20.7594 4.00391 25.1891 8.42188 25.1891 13.9531C25.1891 19.4844 20.7594 23.9375 15.2281 23.9141C11.8883 23.9023 8.95861 22.2852 7.16564 19.7891C6.80236 19.3086 6.25158 19.1562 5.75939 19.4492C5.29064 19.7422 5.16174 20.3867 5.56017 20.9023C7.78674 23.8906 11.2789 25.9062 15.2281 25.9062ZM1.83361 11.6914C0.989862 11.6914 0.778925 12.2656 1.23596 12.9219L3.86096 16.6484C4.24767 17.1875 4.81017 17.1758 5.18517 16.6484L7.81017 12.9102C8.25549 12.2656 8.04455 11.6914 7.21252 11.6914H1.83361Z" fill="black" fill-opacity="0.85"/>
<path d="M15.2168 16.0625C15.7793 16.0625 16.1074 15.7461 16.1192 15.1367L16.2832 8.94922C16.2949 8.35156 15.8262 7.90625 15.2051 7.90625C14.5723 7.90625 14.127 8.33984 14.1387 8.9375L14.3028 15.1367C14.3145 15.7344 14.6309 16.0625 15.2168 16.0625ZM15.2168 19.8711C15.8965 19.8711 16.4824 19.332 16.4824 18.6523C16.4824 17.9727 15.9082 17.4336 15.2168 17.4336C14.5254 17.4336 13.9512 17.9844 13.9512 18.6523C13.9512 19.3203 14.5371 19.8711 15.2168 19.8711Z" fill="black" fill-opacity="0.85"/>
</svg>
