<svg width="28" height="28" viewBox="0 0 28 28" fill="none" xmlns="http://www.w3.org/2000/svg">
<path d="M6.67969 24.5977H20.8945C23.3555 24.5977 24.5742 23.3789 24.5742 20.9648V6.65625C24.5742 4.24219 23.3555 3.02344 20.8945 3.02344H6.67969C4.23047 3.02344 3 4.23047 3 6.65625V20.9648C3 23.3906 4.23047 24.5977 6.67969 24.5977Z" fill="black" fill-opacity="0.85"/>
<path d="M10.2773 19.3828C9.80859 19.3828 9.46875 19.0781 9.46875 18.5742V14.625C9.46875 11.4492 10.9102 9.64453 13.125 9.36328V8.10938C13.125 7.6875 13.4062 7.45312 13.793 7.45312C14.1328 7.45312 14.4492 7.6875 14.4492 8.10938V9.35156C16.6641 9.63281 18.1289 11.4375 18.1289 14.625V18.5742C18.1289 19.0781 17.8125 19.3828 17.332 19.3828C16.875 19.3828 16.5586 19.0781 16.5586 18.5742V14.7305C16.5586 12.4453 15.75 11.1563 14.4492 10.8633V18.7148C14.4492 19.1133 14.1328 19.3828 13.793 19.3828C13.4062 19.3828 13.125 19.1133 13.125 18.7148V10.875C11.8477 11.2031 11.0625 12.4805 11.0625 14.7305V18.5742C11.0625 19.0781 10.7461 19.3828 10.2773 19.3828Z" fill="white"/>
</svg>
