<svg width="28" height="28" viewBox="0 0 28 28" fill="none" xmlns="http://www.w3.org/2000/svg">
<path d="M13.9531 25.918C20.4922 25.918 25.9062 20.5039 25.9062 13.9648C25.9062 7.4375 20.4805 2.01172 13.9414 2.01172C7.41406 2.01172 2 7.4375 2 13.9648C2 20.5039 7.42578 25.918 13.9531 25.918Z" fill="black" fill-opacity="0.85"/>
<path d="M6.66323 17.082C6.55776 15.9219 7.08511 14.6797 7.90542 13.9648C7.08511 13.2148 6.53433 11.9844 6.66323 10.8242C6.67495 10.6133 6.82729 10.4961 7.06167 10.4961C8.38589 10.4961 9.48745 11.1406 10.4484 12.2773C11.2336 11.4922 12.1008 10.9649 13.0265 10.625C12.9328 10.0742 12.7453 9.6758 12.2531 9.01955C12.0539 8.76174 12.0773 8.56252 12.3117 8.44533C14.5031 7.2383 17.5851 8.31643 18.2765 10.6485C20.1867 11.3047 21.8742 12.5117 21.8742 13.9648C21.8742 15.4766 20.0461 16.7188 18.0422 17.3398C17.2453 18.5 15.7219 19.4727 14.3508 19.6953C13.882 19.7656 13.6594 19.543 13.7062 19.1328L13.9054 17.5625C12.6633 17.2812 11.4796 16.6719 10.4484 15.6523C9.48745 16.7891 8.38589 17.3984 7.06167 17.4219C6.82729 17.4219 6.67495 17.3164 6.66323 17.082ZM18.968 14.3633C19.3312 14.3633 19.6125 14.0938 19.6125 13.7188C19.6125 13.3555 19.3312 13.0742 18.968 13.0742C18.6047 13.0742 18.3234 13.3555 18.3234 13.7188C18.3234 14.0938 18.6047 14.3633 18.968 14.3633Z" fill="white"/>
</svg>
