<svg width="28" height="28" viewBox="0 0 28 28" fill="none" xmlns="http://www.w3.org/2000/svg">
<g clip-path="url(#clip0_2124_50166)">
<path d="M8.05859 3.85938C8.51562 3.85938 8.89062 3.48438 8.89062 3.02734C8.89062 2.57031 8.51562 2.19531 8.05859 2.19531C7.60156 2.19531 7.22656 2.57031 7.22656 3.02734C7.22656 3.48438 7.60156 3.85938 8.05859 3.85938ZM14.4922 2.67578C14.9492 2.67578 15.3242 2.30078 15.3242 1.84375C15.3242 1.375 14.9492 1 14.4922 1C14.0352 1 13.6602 1.375 13.6602 1.84375C13.6602 2.30078 14.0352 2.67578 14.4922 2.67578ZM20.9258 3.85938C21.3828 3.85938 21.7578 3.48438 21.7578 3.02734C21.7578 2.57031 21.3828 2.19531 20.9258 2.19531C20.4688 2.19531 20.0938 2.57031 20.0938 3.02734C20.0938 3.48438 20.4688 3.85938 20.9258 3.85938Z" fill="black" fill-opacity="0.85"/>
<path d="M10.2148 6.60156C10.6719 6.60156 11.0469 6.22656 11.0469 5.76953C11.0469 5.3125 10.6719 4.9375 10.2148 4.9375C9.74609 4.9375 9.37109 5.3125 9.37109 5.76953C9.37109 6.22656 9.74609 6.60156 10.2148 6.60156ZM14.4922 6.16797C14.9492 6.16797 15.3242 5.79297 15.3242 5.33594C15.3242 4.87891 14.9492 4.50391 14.4922 4.50391C14.0352 4.50391 13.6602 4.87891 13.6602 5.33594C13.6602 5.79297 14.0352 6.16797 14.4922 6.16797ZM18.7812 6.60156C19.2383 6.60156 19.6133 6.22656 19.6133 5.76953C19.6133 5.3125 19.2383 4.9375 18.7812 4.9375C18.3125 4.9375 17.9492 5.3125 17.9492 5.76953C17.9492 6.22656 18.3125 6.60156 18.7812 6.60156Z" fill="black" fill-opacity="0.85"/>
<path d="M11.9258 27.9648H17.0117C21.5938 27.9648 23.9375 25.5391 23.9375 21.3906C23.9375 18.168 21.1719 13.8906 17.9258 9.56641C17.293 8.73438 16.8828 8.26562 15.7344 8.26562H13.2031C12.0664 8.26562 11.6562 8.73438 11.0117 9.56641C7.76562 13.8906 5 18.168 5 21.3906C5 25.5391 7.34375 27.9648 11.9258 27.9648ZM6.85156 21.3906C6.85156 18.8125 9.05469 15.2852 12.5234 10.5273C12.7578 10.2109 12.8867 10.1289 13.2266 10.1289H15.7109C16.0508 10.1289 16.1797 10.2109 16.4141 10.5273C19.8828 15.2852 22.0859 18.8125 22.0859 21.3906C22.0859 24.3906 20.4453 26.1133 17.0117 26.1133H11.9258C8.49219 26.1133 6.85156 24.3906 6.85156 21.3906ZM9.34766 13.1172L8.98438 14.9688H19.9766L19.625 13.1172H9.34766ZM6.27734 22.1641H12.5938V20.3125H6.27734V22.1641ZM14.4805 23.9453C15.9805 23.9453 17.1758 22.7383 17.1758 21.2266C17.1758 19.7148 15.9805 18.5195 14.4805 18.5195C12.9453 18.5195 11.7617 19.7148 11.7617 21.2266C11.7617 22.7383 12.9453 23.9453 14.4805 23.9453ZM14.4805 22.2812C13.8594 22.2812 13.4258 21.8359 13.4258 21.2266C13.4258 20.6289 13.8594 20.1719 14.4805 20.1719C15.0781 20.1719 15.5234 20.6289 15.5234 21.2266C15.5234 21.8359 15.0781 22.2812 14.4805 22.2812ZM16.3555 22.1641H22.7188V20.3125H16.3555V22.1641Z" fill="black" fill-opacity="0.85"/>
</g>
<defs>
<clipPath id="clip0_2124_50166">
<rect width="18.9375" height="26.9883" fill="white" transform="translate(5 1)"/>
</clipPath>
</defs>
</svg>
