<svg width="28" height="29" viewBox="0 0 28 29" fill="none" xmlns="http://www.w3.org/2000/svg">
<path d="M14.3671 1.94531C16.8983 1.94531 19.1835 2.82422 20.9296 4.39453C21.4101 4.82812 21.9608 4.93359 22.3827 4.57031C22.828 4.18359 22.828 3.53906 22.3241 3.08203C20.2147 1.13672 17.4022 0.0351562 14.3671 0.0351562C11.3319 0.0351562 8.51939 1.13672 6.41002 3.08203C5.91783 3.53906 5.91783 4.18359 6.35142 4.57031C6.78502 4.93359 7.32408 4.82812 7.80455 4.39453C9.55064 2.82422 11.8475 1.94531 14.3671 1.94531Z" fill="black" fill-opacity="0.85"/>
<path d="M14.3911 6.64453C15.6099 6.64453 16.7349 6.99609 17.6138 7.69922C18.1177 8.0625 18.645 8.22656 19.0669 7.85156C19.5005 7.46484 19.5122 6.76172 18.9849 6.33984C17.7193 5.32031 16.1138 4.73438 14.3911 4.73438C12.6684 4.73438 11.063 5.32031 9.79735 6.33984C9.25828 6.76172 9.27 7.46484 9.71531 7.85156C10.1372 8.22656 10.6528 8.0625 11.1684 7.69922C12.0708 7.01953 13.1724 6.64453 14.3911 6.64453Z" fill="black" fill-opacity="0.85"/>
<path d="M3 23.3672C3 24.7031 3.78516 25.6875 5.21484 25.6875H23.625C25.043 25.6875 25.8398 24.7031 25.8398 23.3672V20.5312C25.8398 18.9258 25.6172 17.8945 24.5859 16.7812L23.6484 15.7617L22.6758 12.9492C22.1133 11.3203 20.9766 10.6172 19.6055 10.4648C18.9609 10.3828 16.8633 10.3242 14.4141 10.3242C11.9531 10.3242 9.87891 10.3828 9.22266 10.4648C7.85156 10.6172 6.72656 11.332 6.16406 12.9492L5.16797 15.7617L4.25391 16.7812C3.22266 17.9062 3 18.9258 3 20.5312V23.3672ZM4.61719 22.9922V20.5312C4.61719 19.2539 4.75781 18.668 5.51953 17.7891L6.65625 16.4883L7.64062 13.6406C8.01562 12.5508 8.57812 12.2109 9.42188 12.1055C10.0195 12.0352 11.918 11.9531 14.4141 11.9531C16.9102 11.9531 18.8203 12.0352 19.418 12.1055C20.2617 12.2109 20.8242 12.5508 21.1992 13.6406L22.1719 16.4883L23.3203 17.7891C24.082 18.668 24.2227 19.2539 24.2227 20.5312V22.9922C24.2227 23.6953 23.9883 24.0703 23.2852 24.0703H5.55469C4.85156 24.0703 4.61719 23.6953 4.61719 22.9922ZM8.32031 16.2305H20.5078C20.9531 16.2305 21.0938 15.9141 20.9531 15.5273L20.4023 13.8516C20.1914 13.2422 19.8516 13.0195 19.3008 12.9492C18.6797 12.8555 16.9688 12.7852 14.4141 12.7852C11.8594 12.7852 10.1484 12.8555 9.52734 12.9492C8.98828 13.0195 8.64844 13.2422 8.4375 13.8516L7.875 15.5273C7.73438 15.9141 7.88672 16.2305 8.32031 16.2305ZM7.08984 21.7383C7.64062 21.7383 8.05078 21.3398 8.05078 20.7773V19.3828C8.05078 18.8203 7.64062 18.4336 7.08984 18.4336C6.53906 18.4336 6.12891 18.832 6.12891 19.3828V20.7773C6.12891 21.3281 6.53906 21.7383 7.08984 21.7383ZM12.3867 21.3164H16.418C16.8633 21.3164 17.168 21.0234 17.168 20.5312V19.6172C17.168 19.1484 16.8633 18.8672 16.418 18.8672H12.3867C11.9414 18.8672 11.6484 19.1484 11.6484 19.6172V20.5312C11.6484 21.0234 11.9414 21.3164 12.3867 21.3164ZM21.832 21.7383C22.3945 21.7383 22.8047 21.3398 22.8047 20.7773V19.3828C22.8047 18.8203 22.3945 18.4336 21.832 18.4336C21.3047 18.4336 20.8828 18.8438 20.8828 19.3828V20.7773C20.8828 21.3281 21.3047 21.7383 21.832 21.7383ZM4.92188 28.1367H6.04688C6.76172 28.1367 7.3125 27.5859 7.3125 26.8828V24.9258L3.65625 24.3984V26.8828C3.65625 27.5859 4.21875 28.1367 4.92188 28.1367ZM22.7812 28.1367H23.918C24.6211 28.1367 25.1719 27.5859 25.1719 26.8828V24.3984L21.5273 24.9258V26.8828C21.5273 27.5859 22.0664 28.1367 22.7812 28.1367Z" fill="black" fill-opacity="0.85"/>
</svg>
