<svg width="28" height="28" viewBox="0 0 28 28" fill="none" xmlns="http://www.w3.org/2000/svg">
<path d="M6.67969 24.5977H20.8945C23.3555 24.5977 24.5742 23.3789 24.5742 20.9648V6.65625C24.5742 4.24219 23.3555 3.02344 20.8945 3.02344H6.67969C4.23047 3.02344 3 4.23047 3 6.65625V20.9648C3 23.3906 4.23047 24.5977 6.67969 24.5977Z" fill="black" fill-opacity="0.85"/>
<path d="M9.72656 19.5469C9.31641 19.5469 9.04688 19.2656 9.04688 18.8555C9.04688 18.4688 9.33984 18.1875 9.73828 18.1875H11.5195C10.043 17.2266 9.07031 15.4453 9.07031 13.3711C9.07031 10.9688 10.2422 9.1875 12.1523 8.49609V7.42969C12.1523 7.07812 12.3984 6.83203 12.7383 6.83203C13.0781 6.83203 13.3359 7.07812 13.3359 7.42969V8.26172C13.5352 8.23828 13.7578 8.22656 13.957 8.22656C14.1211 8.22656 14.2852 8.22656 14.4492 8.25V7.42969C14.4492 7.07812 14.6953 6.83203 15.0352 6.83203C15.375 6.83203 15.6211 7.07812 15.6211 7.42969V8.53125C17.3906 9.21094 18.5508 11.0039 18.5625 13.1367C18.5625 13.5938 18.2578 13.9219 17.8359 13.9219C17.3789 13.9219 17.0742 13.5938 17.0625 13.125C17.0391 11.7773 16.4883 10.7578 15.6211 10.1602V13.1953C15.6211 13.5352 15.375 13.7812 15.0352 13.7812C14.6953 13.7812 14.4492 13.5352 14.4492 13.1953V9.71484C14.2969 9.69141 14.1328 9.66797 13.9453 9.66797C13.7578 9.66797 13.5352 9.69141 13.3359 9.71484V13.1953C13.3359 13.5352 13.0898 13.7812 12.7383 13.7812C12.3984 13.7812 12.1523 13.5352 12.1523 13.1953V10.125C11.1797 10.7344 10.6289 11.8945 10.6289 13.5469C10.6289 16.1836 12.6914 18.1875 15.3633 18.1875H17.2148C17.625 18.1875 17.918 18.4688 17.918 18.8555C17.918 19.2539 17.6367 19.5469 17.2148 19.5469H9.72656Z" fill="white"/>
</svg>
