<svg width="28" height="28" viewBox="0 0 28 28" fill="none" xmlns="http://www.w3.org/2000/svg">
<g clip-path="url(#clip0_2124_50030)">
<path d="M8.63281 26.9219H18.5469C20.9609 26.9219 22.1797 25.6914 22.1797 23.2539V4.67969C22.1797 2.23047 20.9609 1 18.5469 1H8.63281C6.20703 1 5 2.23047 5 4.67969V23.2539C5 25.6914 6.20703 26.9219 8.63281 26.9219Z" fill="black" fill-opacity="0.85"/>
<path d="M9.14843 12.1094C8.36327 12.1094 8.04688 11.8047 8.04688 11.0195V5.23048C8.04688 4.44532 8.36327 4.14062 9.14843 4.14062H17.9727C18.7695 4.14062 19.0859 4.44532 19.0859 5.23048V11.0195C19.0859 11.8047 18.7695 12.1094 17.9727 12.1094H9.14843Z" fill="white"/>
</g>
<defs>
<clipPath id="clip0_2124_50030">
<rect width="17.1797" height="25.9336" fill="white" transform="translate(5 1)"/>
</clipPath>
</defs>
</svg>
