<svg width="28" height="31" viewBox="0 0 28 31" fill="none" xmlns="http://www.w3.org/2000/svg">
<path d="M10.4141 13.5352H17.9141C18.957 13.5352 19.5664 12.9492 19.5664 11.918V3.52734C19.5664 2.49609 18.957 1.91016 17.9141 1.91016H10.4141C9.37109 1.91016 8.76172 2.49609 8.76172 3.52734V11.918C8.76172 12.9492 9.37109 13.5352 10.4141 13.5352Z" fill="black" fill-opacity="0.85"/>
<path d="M8.63281 23.2852H19.707C22.0391 23.2852 23.5742 21.7617 23.5742 19.4414V7.24219C23.5742 4.92188 22.0391 3.41016 19.707 3.41016H8.63281C6.30078 3.41016 4.75391 4.92188 4.75391 7.24219V19.4414C4.75391 21.7617 6.30078 23.2852 8.63281 23.2852Z" fill="white"/>
<path d="M8.50391 21.6914H19.8359C21.207 21.6914 21.9805 20.918 21.9805 19.5703V7.11328C21.9805 5.76562 21.207 5.00391 19.8359 5.00391H8.50391C7.13281 5.00391 6.34766 5.76562 6.34766 7.11328V19.5703C6.34766 20.918 7.13281 21.6914 8.50391 21.6914Z" fill="black" fill-opacity="0.85"/>
<path d="M7.56641 30.9961H20.7617C24.2539 30.9961 26.3281 28.9453 26.3281 25.4766V12.1875C26.3281 8.71875 24.2539 6.66797 20.7617 6.66797H7.56641C4.07422 6.66797 2 8.70703 2 12.1875V25.4766C2 28.9453 4.07422 30.9961 7.56641 30.9961Z" fill="white"/>
<path d="M7.56641 29.1094H20.7617C23.2109 29.1094 24.4414 27.8906 24.4414 25.4766V12.1875C24.4414 9.77344 23.2109 8.55469 20.7617 8.55469H7.56641C5.11719 8.55469 3.88672 9.76172 3.88672 12.1875V25.4766C3.88672 27.8906 5.11719 29.1094 7.56641 29.1094ZM7.60156 27.2227C6.42969 27.2227 5.77344 26.5898 5.77344 25.3711V12.2812C5.77344 11.0742 6.42969 10.4414 7.60156 10.4414H20.7383C21.8867 10.4414 22.5547 11.0742 22.5547 12.2812V25.3711C22.5547 26.5898 21.8867 27.2227 20.7383 27.2227H7.60156Z" fill="black" fill-opacity="0.85"/>
<path d="M9.93359 23.5078C9.93359 24.3867 10.3203 24.7969 11.1289 24.7969H17.1992C18.0195 24.7969 18.4062 24.3867 18.4062 23.5078V18.8438C18.4062 18.0234 18.0664 17.625 17.3633 17.5781V16.1836C17.3633 14.0273 16.0742 12.5859 14.1641 12.5859C12.2656 12.5859 10.9648 14.0273 10.9648 16.1836V17.5781C10.2734 17.625 9.93359 18.0234 9.93359 18.8438V23.5078ZM12.1836 17.5664V16.0547C12.1836 14.6836 12.9805 13.7695 14.1641 13.7695C15.3594 13.7695 16.1445 14.6836 16.1445 16.0547V17.5664H12.1836Z" fill="black" fill-opacity="0.85"/>
</svg>
