<svg width="28" height="28" viewBox="0 0 28 28" fill="none" xmlns="http://www.w3.org/2000/svg">
<path d="M5.71484 24.707H19.4258C23.3398 24.707 24.6992 22.7734 25.168 18.707C25.4727 16.1289 25.4727 13.5742 25.0625 10.1054C24.582 5.78122 22.168 3.97653 17.5508 4.46872L6.19531 5.75778C3.45312 6.06247 2 7.60935 2 10.1758V21.0273C2 23.3477 3.38281 24.707 5.71484 24.707ZM5.72656 22.832C4.60156 22.832 3.86328 22.1289 3.86328 21.0273V10.1758C3.86328 8.69919 4.75391 7.80856 6.38281 7.62106L17.75 6.34372C21.1367 5.96872 22.8711 7.16403 23.1992 10.1172C23.6094 13.5859 23.6094 16.1289 23.3047 18.6953C22.9297 21.9062 22.4023 22.832 19.4258 22.832H5.72656Z" fill="black" fill-opacity="0.85"/>
<path d="M7.44922 12.0742H19.7656C20.1875 12.0742 20.5273 11.7344 20.5273 11.3125C20.5273 10.8906 20.1875 10.5391 19.7656 10.5391H7.44922C7.02734 10.5391 6.6875 10.8906 6.6875 11.3125C6.6875 11.7344 7.02734 12.0742 7.44922 12.0742ZM7.44922 15.9648H19.7656C20.1875 15.9648 20.5273 15.625 20.5273 15.2031C20.5273 14.7812 20.1875 14.4297 19.7656 14.4297H7.44922C7.02734 14.4297 6.6875 14.7812 6.6875 15.2031C6.6875 15.625 7.02734 15.9648 7.44922 15.9648ZM7.44922 19.8555H19.7656C20.1875 19.8555 20.5273 19.5156 20.5273 19.082C20.5273 18.6602 20.1875 18.3203 19.7656 18.3203H7.44922C7.02734 18.3203 6.6875 18.6602 6.6875 19.082C6.6875 19.5156 7.02734 19.8555 7.44922 19.8555Z" fill="black" fill-opacity="0.85"/>
</svg>
