<svg width="28" height="28" viewBox="0 0 28 28" fill="none" xmlns="http://www.w3.org/2000/svg">
<g clip-path="url(#clip0_2124_24711)">
<path d="M14.2086 27.4961C18.2868 27.4961 20.7243 25.5273 21.0993 21.5312C21.5328 16.7617 21.5211 11.9219 21.0758 6.74219C20.736 2.98047 18.2868 1 14.2086 1C10.1305 1 7.68128 2.98047 7.34144 6.74219C6.89613 11.9219 6.88441 16.7617 7.318 21.5312C7.693 25.5273 10.1305 27.4961 14.2086 27.4961ZM14.2086 25.6094C11.2321 25.6094 9.46253 24.3438 9.20472 21.5312C8.78285 16.75 8.79457 11.9102 9.22816 6.74219C9.45082 4.15234 11.2321 2.88672 14.2086 2.88672C17.1852 2.88672 18.9664 4.15234 19.1891 6.74219C19.6227 11.9102 19.6344 16.75 19.2125 21.5312C18.9547 24.3438 17.1852 25.6094 14.2086 25.6094ZM14.2086 22.668C14.5719 22.668 14.6422 22.8438 14.9352 22.8438C15.2516 22.8438 15.4508 22.5625 15.6383 22.293C15.861 21.9766 15.943 21.6719 15.943 21.6602C15.9313 21.6484 15.3454 21.4141 15.3454 20.7461C15.3454 20.1602 15.8024 19.9141 15.8375 19.8789C15.5446 19.457 15.0758 19.457 14.9352 19.457C14.6071 19.457 14.3375 19.6445 14.1617 19.6445C13.9625 19.6445 13.7164 19.457 13.4235 19.457C12.8727 19.457 12.2985 19.9258 12.2985 20.793C12.2985 21.3555 12.5094 21.9062 12.7672 22.2695C12.9899 22.5977 13.1891 22.8438 13.4703 22.8438C13.7516 22.8438 13.8688 22.668 14.2086 22.668ZM15.0055 18.3555C14.5602 18.3555 14.1149 18.8008 14.1149 19.3984C14.6422 19.4336 15.0992 18.8477 15.0055 18.3555Z" fill="black" fill-opacity="0.85"/>
</g>
<defs>
<clipPath id="clip0_2124_24711">
<rect width="14.4173" height="26.5195" fill="white" transform="translate(7 1)"/>
</clipPath>
</defs>
</svg>
