<svg width="28" height="28" viewBox="0 0 28 28" fill="none" xmlns="http://www.w3.org/2000/svg">
<path d="M13.9531 25.9062C20.4922 25.9062 25.9062 20.4805 25.9062 13.9531C25.9062 7.41406 20.4805 2 13.9414 2C7.41406 2 2 7.41406 2 13.9531C2 20.4805 7.42578 25.9062 13.9531 25.9062Z" fill="black" fill-opacity="0.85"/>
<path d="M11.2109 18.9922C10.8359 18.9922 10.3672 18.7695 10.3672 18.125V16.9297H7.66016C7.08594 16.9297 6.67578 16.5312 6.67578 15.9453C6.67578 15.5703 6.74609 15.2539 6.94531 14.7852L9.10156 10.0977C9.44141 9.34766 9.85156 8.91406 10.6953 8.91406C11.4922 8.91406 12.043 9.38281 12.043 10.2266V15.5234H12.4648C12.9453 15.5234 13.1562 15.8281 13.1562 16.2148C13.1562 16.625 12.9336 16.9297 12.4648 16.9297H12.043V18.125C12.043 18.7109 11.668 18.9922 11.2109 18.9922ZM10.4023 15.5586V10.4375H10.3555L8.16406 15.4766V15.5586H10.4023ZM17.5977 19.0859C15.1367 19.0859 14.4102 16.3555 14.4102 14.0703C14.4102 11.6211 15.125 8.84375 17.6094 8.84375C18.8281 8.84375 19.8711 9.48828 20.1172 10.5312C20.1758 10.6836 20.1875 10.8359 20.1875 10.9648C20.1875 11.3633 19.9766 11.6914 19.4961 11.6914C19.0859 11.6914 18.8633 11.5273 18.6875 11.1523C18.4883 10.6484 18.125 10.2617 17.5742 10.2617C16.2266 10.2617 16.0625 12.6875 16.0625 14.0234C16.0625 14.0586 16.0625 14.1055 16.0625 14.1523H16.1094C16.3906 13.1211 17.1289 12.4648 18.1016 12.4648C19.707 12.4648 20.4922 14.0117 20.4922 15.6406C20.4922 17.5391 19.4375 19.0859 17.5977 19.0859ZM17.5742 17.668C18.418 17.668 18.8047 16.6016 18.8047 15.7227C18.8281 14.832 18.4648 13.7891 17.5742 13.7891C16.707 13.7891 16.2969 14.7852 16.2969 15.6641C16.2969 16.5312 16.6484 17.668 17.5742 17.668Z" fill="white"/>
</svg>
