<svg width="28" height="28" viewBox="0 0 28 28" fill="none" xmlns="http://www.w3.org/2000/svg">
<g clip-path="url(#clip0_2124_50021)">
<path d="M14.4492 13.9648C19.7344 13.9648 23.8125 15.2656 25.9102 17.5273V8.33984C25.9102 4.51953 21.3867 2 14.4492 2C7.52344 2 3 4.51953 3 8.33984V17.5273C5.09766 15.2656 9.16406 13.9648 14.4492 13.9648ZM14.4492 26.1875C21.0117 26.1875 25.8633 24.1016 25.8633 20.8789C25.8633 17.6562 21.0117 15.5703 14.4492 15.5703C7.89844 15.5703 3.04688 17.6562 3.04688 20.8789C3.04688 24.1016 7.89844 26.1875 14.4492 26.1875ZM14.4492 20.5039C11.8711 20.5039 9.73828 19.1797 9.58594 17.5391C10.9922 17.2344 12.6445 17.0586 14.4492 17.0586C16.2656 17.0586 17.9062 17.2344 19.3242 17.5391C19.1719 19.1797 17.0273 20.5039 14.4492 20.5039Z" fill="black" fill-opacity="0.85"/>
</g>
<defs>
<clipPath id="clip0_2124_50021">
<rect width="22.9102" height="24.1992" fill="white" transform="translate(3 2)"/>
</clipPath>
</defs>
</svg>
