<svg width="28" height="28" viewBox="0 0 28 28" fill="none" xmlns="http://www.w3.org/2000/svg">
<path d="M2 10.793C2 15.7852 6.18359 20.6953 12.793 24.9141C13.0391 25.0664 13.4023 25.2305 13.6367 25.2305C13.8828 25.2305 14.2344 25.0664 14.4922 24.9141C21.1016 20.6953 25.2852 15.7852 25.2852 10.793C25.2852 6.64453 22.4375 3.71484 18.6289 3.71484C16.4609 3.71484 14.7031 4.74609 13.6367 6.32812C12.5938 4.75781 10.8242 3.71484 8.64453 3.71484C4.84766 3.71484 2 6.64453 2 10.793ZM3.88672 10.793C3.88672 7.67578 5.90234 5.60156 8.62109 5.60156C10.8359 5.60156 12.0898 6.97266 12.8516 8.14453C13.168 8.61328 13.3672 8.74219 13.6367 8.74219C13.918 8.74219 14.0938 8.60156 14.4336 8.14453C15.2422 6.99609 16.4609 5.60156 18.6523 5.60156C21.3828 5.60156 23.3984 7.67578 23.3984 10.793C23.3984 15.1523 18.793 19.8516 13.8828 23.1094C13.7656 23.1914 13.6836 23.25 13.6367 23.25C13.6016 23.25 13.5195 23.1914 13.4023 23.1094C8.49219 19.8516 3.88672 15.1523 3.88672 10.793Z" fill="black" fill-opacity="0.85"/>
<path d="M9.5 15.3749C9.5 17.6483 11.293 19.4647 13.543 19.4647C15.793 19.4647 17.5859 17.6483 17.5859 15.3983C17.5859 15.0116 17.2578 14.6835 16.8711 14.6835C16.4727 14.6835 16.1445 15.0116 16.1445 15.3983C16.1445 16.8515 14.9844 18.0116 13.543 18.0116C12.1016 18.0116 10.9414 16.8515 10.9414 15.3983C10.9414 14.2147 11.7383 13.2304 12.8164 12.914V14.039C12.8164 14.4726 13.2852 14.6366 13.6133 14.3554L15.5234 12.7148C15.8398 12.4335 15.8398 12.0585 15.5234 11.789L13.6133 10.1718C13.2852 9.89057 12.8164 10.0546 12.8164 10.4882V11.4492C10.9766 11.7304 9.5 13.4179 9.5 15.3749Z" fill="black" fill-opacity="0.85"/>
</svg>
