<svg width="31" height="28" viewBox="0 0 31 28" fill="none" xmlns="http://www.w3.org/2000/svg">
<g clip-path="url(#clip0_2124_89355)">
<path d="M22.9453 15.9727C26.4492 16.793 28.6289 18.1289 28.6289 19.5352C28.6289 21.8203 22.793 23.9297 15.2227 23.9297C7.65234 23.9297 1.81641 21.8203 1.81641 19.5352C1.81641 18.1406 3.9375 16.8281 7.37109 15.9844L6.48047 14.3203C2.4375 15.3867 0 17.25 0 19.5352C0 23.2148 6.32812 25.7461 15.2227 25.7461C24.1289 25.7461 30.4453 23.2148 30.4453 19.5352C30.4453 17.1914 27.8672 15.2812 23.6602 14.2383L22.9453 15.9727ZM24 7.83984V10.2891C24 15.3516 20.7656 18.7969 15.7617 18.7969H14.6719C9.65625 18.7969 6.44531 15.375 6.44531 10.2891V7.83984H4.55859V10.2891C4.55859 16.3945 8.625 20.6836 14.6719 20.6836H15.7617C21.8086 20.6836 25.8867 16.3828 25.8867 10.2891V7.83984H24ZM15.2227 12.668C21.5742 12.668 25.8867 10.7109 25.8867 7.83984C25.8867 4.95703 21.5859 3 15.2227 3C8.85938 3 4.55859 4.95703 4.55859 7.83984C4.55859 10.7109 8.87109 12.668 15.2227 12.668ZM15.2227 10.7812C10.1719 10.7812 6.44531 9.50391 6.44531 7.83984C6.44531 6.17578 10.1719 4.88672 15.2227 4.88672C20.2734 4.88672 24 6.17578 24 7.83984C24 9.50391 20.2734 10.7812 15.2227 10.7812ZM24.5742 15.3516H25.5352C28.2305 15.3516 29.8477 13.9336 29.8477 11.5781C29.8477 9.24609 28.2188 7.81641 25.5352 7.81641H24.75V9.70312H25.5352C27.0586 9.70312 27.9609 10.4062 27.9609 11.5781C27.9609 12.75 27.0586 13.4648 25.5352 13.4648H24.5742V15.3516Z" fill="black" fill-opacity="0.85"/>
</g>
<defs>
<clipPath id="clip0_2124_89355">
<rect width="30.4453" height="22.7461" fill="white" transform="translate(0 3)"/>
</clipPath>
</defs>
</svg>
