<svg width="28" height="28" viewBox="0 0 28 28" fill="none" xmlns="http://www.w3.org/2000/svg">
<path d="M9.23438 24.0352H18.3984C25.1953 24.0352 27.6328 21.5156 27.6328 15.2461V11.8008C27.6328 5.53125 25.1953 3 18.3984 3H9.23438C2.4375 3 0 5.53125 0 11.8008V15.2461C0 21.5156 2.4375 24.0352 9.23438 24.0352Z" fill="black" fill-opacity="0.85"/>
<path d="M8.96484 18.5273C8.39062 18.5273 8.07422 18.1875 8.07422 17.6133V9.55078C8.07422 8.95312 8.4375 8.61328 8.95312 8.61328H11.2266C12.9961 8.61328 14.0273 10.0664 14.0273 11.9062C14.0273 13.7695 12.9727 15.1758 11.1211 15.1758H9.85547V17.6133C9.85547 18.1758 9.55078 18.5273 8.96484 18.5273ZM9.85547 13.7812H10.7695C11.8359 13.7812 12.2695 12.9844 12.2695 11.9062C12.2695 10.7695 11.7891 10.0547 10.7812 10.0547H9.85547V13.7812ZM18.082 18.5391C17.5898 18.5391 17.1797 18.1406 17.1797 17.6484V10.3242L16.0781 11.2148C15.9609 11.3086 15.832 11.3672 15.6445 11.3672C15.2812 11.3672 15.0234 11.0977 15.0234 10.7227C15.0234 10.4062 15.1875 10.1719 15.4102 10.0078L16.7344 8.97656C17.0156 8.76562 17.4258 8.48438 17.9414 8.48438C18.5742 8.48438 18.9609 8.84766 18.9609 9.46875V17.6484C18.9609 18.1406 18.5625 18.5391 18.082 18.5391Z" fill="white"/>
</svg>
