<svg width="28" height="28" viewBox="0 0 28 28" fill="none" xmlns="http://www.w3.org/2000/svg">
<path d="M6.67969 24.5977H20.8945C23.3555 24.5977 24.5742 23.3789 24.5742 20.9648V6.65625C24.5742 4.24219 23.3555 3.02344 20.8945 3.02344H6.67969C4.23047 3.02344 3 4.23047 3 6.65625V20.9648C3 23.3906 4.23047 24.5977 6.67969 24.5977Z" fill="black" fill-opacity="0.85"/>
<path d="M13.7812 19.3359C13.1602 19.3359 12.8203 18.8789 12.8203 18.2344V9.12891C12.8203 8.48438 13.1602 8.02734 13.7812 8.02734C14.4141 8.02734 14.7656 8.44922 14.7656 9.12891V18.2344C14.7656 18.9141 14.4141 19.3359 13.7812 19.3359Z" fill="white"/>
</svg>
