<svg width="28" height="28" viewBox="0 0 28 28" fill="none" xmlns="http://www.w3.org/2000/svg">
<path d="M13.9531 25.9062C20.4922 25.9062 25.9062 20.4805 25.9062 13.9531C25.9062 7.41406 20.4805 2 13.9414 2C7.41406 2 2 7.41406 2 13.9531C2 20.4805 7.42578 25.9062 13.9531 25.9062ZM13.9531 23.9141C8.42188 23.9141 4.00391 19.4844 4.00391 13.9531C4.00391 8.42188 8.41016 3.99219 13.9414 3.99219C19.4727 3.99219 23.9141 8.42188 23.9141 13.9531C23.9141 19.4844 19.4844 23.9141 13.9531 23.9141Z" fill="black" fill-opacity="0.85"/>
<path d="M13.9873 20.4922C15.4521 20.4922 16.917 19.9766 17.9365 19.1328C18.499 18.6875 18.6279 18.0781 18.2295 17.6445C17.8193 17.2109 17.2802 17.2812 16.8115 17.6211C15.9678 18.2891 15.124 18.6406 13.9873 18.6406C11.6553 18.6406 9.72168 17.0703 9.20605 14.9961H10.4365C10.9756 14.9961 11.1045 14.4688 10.7998 14.0586L8.90136 11.4102C8.58496 10.9766 8.0459 10.9414 7.71777 11.4102L5.84277 14.0586C5.53808 14.4805 5.65527 14.9961 6.19433 14.9961H7.43652C8.01074 18.2422 10.6475 20.4922 13.9873 20.4922ZM13.9638 7.36719C12.5107 7.36719 11.0342 7.87109 10.0264 8.71484C9.46386 9.16016 9.33496 9.76953 9.7334 10.2031C10.1436 10.6367 10.6826 10.5664 11.1396 10.2266C11.9834 9.57031 12.8271 9.20703 13.9638 9.20703C16.2959 9.20703 18.2295 10.7773 18.7568 12.8516H17.456C16.9052 12.8516 16.7881 13.3789 17.081 13.7891L18.9912 16.4375C19.3076 16.8711 19.8467 16.9062 20.1748 16.4375L22.0498 13.7891C22.3545 13.3789 22.2373 12.8516 21.6865 12.8516H20.5146C19.9521 9.60547 17.3154 7.36719 13.9638 7.36719Z" fill="black" fill-opacity="0.85"/>
</svg>
