<svg width="28" height="28" viewBox="0 0 28 28" fill="none" xmlns="http://www.w3.org/2000/svg">
<g clip-path="url(#clip0_2124_67791)">
<path d="M13.9531 25.918C20.4922 25.918 25.9062 20.5039 25.9062 13.9648C25.9062 7.4375 20.4805 2.01172 13.9414 2.01172C7.41406 2.01172 2 7.4375 2 13.9648C2 20.5039 7.42578 25.918 13.9531 25.918Z" fill="black" fill-opacity="0.85"/>
<path d="M13.9531 18.9219C9.34766 18.9219 6.05469 15.1484 6.05469 13.9766C6.05469 12.793 9.3125 9.03125 13.9531 9.03125C18.5938 9.03125 21.8398 12.793 21.8398 13.9766C21.8398 15.1484 18.6055 18.9219 13.9531 18.9219ZM13.9531 17.2109C15.7461 17.2109 17.1992 15.7344 17.1992 13.9766C17.1992 12.1719 15.7461 10.7422 13.9531 10.7422C12.1484 10.7422 10.6953 12.1719 10.707 13.9766C10.707 15.7344 12.1484 17.2109 13.9531 17.2109ZM13.9648 15.4062C13.1914 15.4062 12.5234 14.7266 12.5234 13.9766C12.5234 13.2148 13.1914 12.5469 13.9648 12.5469C14.7266 12.5469 15.3828 13.2148 15.3828 13.9766C15.3828 14.7266 14.7266 15.4062 13.9648 15.4062Z" fill="white"/>
</g>
<defs>
<clipPath id="clip0_2124_67791">
<rect width="23.9062" height="23.918" fill="white" transform="translate(2 2)"/>
</clipPath>
</defs>
</svg>
