<svg width="28" height="28" viewBox="0 0 28 28" fill="none" xmlns="http://www.w3.org/2000/svg">
<path d="M6.67969 24.5977H20.8945C23.3555 24.5977 24.5742 23.3789 24.5742 20.9648V6.65625C24.5742 4.24219 23.3555 3.02344 20.8945 3.02344H6.67969C4.23047 3.02344 3 4.23047 3 6.65625V20.9648C3 23.3906 4.23047 24.5977 6.67969 24.5977Z" fill="black" fill-opacity="0.85"/>
<path d="M10.3711 18.8086C9.87891 18.8086 9.46875 18.4102 9.46875 17.918V10.5938L8.36719 11.4844C8.25 11.5781 8.12109 11.6367 7.93359 11.6367C7.57031 11.6367 7.3125 11.3672 7.3125 10.9922C7.3125 10.6758 7.47656 10.4414 7.69922 10.2773L9.02344 9.24609C9.30469 9.03516 9.71484 8.75391 10.2305 8.75391C10.8633 8.75391 11.25 9.11719 11.25 9.73828V17.918C11.25 18.4102 10.8516 18.8086 10.3711 18.8086ZM16.3711 18.9258C13.9219 18.9258 13.1953 16.1953 13.1953 13.9102C13.1953 11.4609 13.9102 8.68359 16.3828 8.68359C17.6133 8.68359 18.6562 9.32812 18.9023 10.3711C18.9492 10.5234 18.9609 10.6758 18.9609 10.8047C18.9609 11.2031 18.7617 11.5313 18.2695 11.5313C17.8711 11.5313 17.6367 11.3672 17.4727 10.9922C17.2617 10.4883 16.9102 10.1016 16.3477 10.1016C15.0117 10.1016 14.8477 12.5273 14.8477 13.8633C14.8477 13.8984 14.8477 13.9453 14.8477 13.9922H14.8945C15.1758 12.9609 15.9141 12.3047 16.8867 12.3047C18.4922 12.3047 19.2773 13.8516 19.2773 15.4805C19.2773 17.3789 18.2109 18.9258 16.3711 18.9258ZM16.3477 17.5078C17.1914 17.5078 17.5898 16.4414 17.5898 15.5625C17.6133 14.6719 17.2383 13.6289 16.3477 13.6289C15.4805 13.6289 15.0703 14.625 15.0703 15.5039C15.0703 16.3711 15.4453 17.5078 16.3477 17.5078Z" fill="white"/>
</svg>
