<svg width="28" height="28" viewBox="0 0 28 28" fill="none" xmlns="http://www.w3.org/2000/svg">
<path d="M13.9531 25.9062C20.4922 25.9062 25.9062 20.4805 25.9062 13.9531C25.9062 7.41406 20.4805 2 13.9414 2C7.41406 2 2 7.41406 2 13.9531C2 20.4805 7.42578 25.9062 13.9531 25.9062Z" fill="black" fill-opacity="0.85"/>
<path d="M9.03125 14.0703C9.03125 10.707 10.7891 8.49219 13.5195 8.29297L13.7539 7.39062C13.8359 7.0625 14.0703 6.92188 14.3633 6.92188C14.7266 6.92188 14.9609 7.15625 14.9609 7.50781C14.9609 7.60156 14.9375 7.69531 14.9023 7.77734L14.7734 8.33984C15.1484 8.42188 15.5 8.51562 15.8164 8.65625L16.1445 7.39062C16.2383 7.0625 16.4609 6.92188 16.7539 6.92188C17.1172 6.92188 17.3516 7.15625 17.3516 7.50781C17.3516 7.60156 17.3398 7.68359 17.3047 7.77734L16.918 9.32422C17.4219 9.75781 17.8203 10.3086 18.0547 10.9531C18.125 11.1523 18.1719 11.3516 18.1719 11.5508C18.1719 12.0078 17.8789 12.3008 17.4336 12.3008C17.0117 12.3008 16.8242 12.0078 16.707 11.7148C16.6484 11.5039 16.543 11.3281 16.4375 11.2227L14.6211 18.3594C15.6758 18.1953 16.4609 17.4805 16.7305 16.5312C16.8477 16.168 17.0938 15.875 17.5039 15.875C17.9727 15.875 18.2539 16.2031 18.2539 16.6484C18.2539 16.8477 18.207 17.0703 18.1367 17.2578C17.6094 18.7695 16.1914 19.7891 14.2344 19.8828L13.9531 20.9844C13.8711 21.3125 13.6367 21.4531 13.3438 21.4531C12.9805 21.4531 12.7578 21.2188 12.7578 20.8555C12.7578 20.7617 12.7695 20.6914 12.8047 20.5977L12.9922 19.8125C12.6172 19.7539 12.2656 19.6484 11.9375 19.4961L11.5625 20.9844C11.4805 21.3125 11.2578 21.4531 10.9531 21.4531C10.6016 21.4531 10.3672 21.2188 10.3672 20.8555C10.3672 20.7617 10.3789 20.6797 10.4023 20.5859L10.8477 18.8281C9.6875 17.832 9.03125 16.1797 9.03125 14.0703ZM10.6602 14.0703C10.6602 15.2188 10.8945 16.1797 11.3398 16.8945L13.1211 9.86328C11.5859 10.25 10.6602 11.8203 10.6602 14.0703ZM12.3125 17.9961C12.6289 18.1953 12.957 18.3359 13.3555 18.3945L15.4414 10.1562C15.1367 9.96875 14.7852 9.83984 14.4102 9.79297L12.3125 17.9961Z" fill="white"/>
</svg>
