<svg width="28" height="28" viewBox="0 0 28 28" fill="none" xmlns="http://www.w3.org/2000/svg">
<path d="M2.31406 16.8805L11.7008 26.2672C13.4352 28.0016 15.1461 28.0133 16.8687 26.3023L26.3023 16.857C28.0133 15.1461 28.0016 13.4234 26.2672 11.6891L16.8922 2.31406C15.1578 0.579683 13.4469 0.556245 11.7242 2.2789L2.2789 11.7125C0.556245 13.4352 0.579683 15.1461 2.31406 16.8805ZM3.67343 15.5797C2.8414 14.7359 2.81796 13.857 3.68515 12.9898L12.9898 3.68515C13.857 2.81796 14.7359 2.82968 15.5797 3.67343L24.9078 13.0016C25.7398 13.8336 25.7633 14.7242 24.8961 15.5914L15.5914 24.8961C14.7242 25.7633 13.8219 25.7398 13.0016 24.9195L3.67343 15.5797Z" fill="black" fill-opacity="0.85"/>
<path d="M13.0254 19.857C13.4121 19.857 13.7402 19.6695 13.9629 19.3062L19.3301 10.8805C19.459 10.6461 19.6113 10.3883 19.6113 10.1305C19.6113 9.60315 19.1426 9.26331 18.6504 9.26331C18.3457 9.26331 18.0527 9.45081 17.8418 9.79065L12.9785 17.5953L10.6582 14.607C10.3887 14.232 10.1191 14.1383 9.80273 14.1383C9.2871 14.1383 8.90039 14.5484 8.90039 15.0641C8.90039 15.3219 8.99414 15.568 9.16992 15.7906L12.0176 19.3062C12.3223 19.693 12.627 19.857 13.0254 19.857Z" fill="black" fill-opacity="0.85"/>
</svg>
