<svg width="28" height="28" viewBox="0 0 28 28" fill="none" xmlns="http://www.w3.org/2000/svg">
<path d="M6.67969 24.5977H20.8945C23.3555 24.5977 24.5742 23.3789 24.5742 20.9648V6.65625C24.5742 4.24219 23.3555 3.02344 20.8945 3.02344H6.67969C4.23047 3.02344 3 4.23047 3 6.65625V20.9648C3 23.3906 4.23047 24.5977 6.67969 24.5977Z" fill="black" fill-opacity="0.85"/>
<path d="M9.38672 18.7734C9.38672 18.375 9.57422 18.1289 10.0195 17.9883C10.8398 17.7539 11.543 17.0391 11.6602 15.9727C11.6719 15.832 11.6836 15.7031 11.6719 15.5742H10.0898C9.70312 15.5742 9.42188 15.3047 9.42188 14.918C9.42188 14.5312 9.70312 14.2734 10.0898 14.2734H11.4844C11.4023 13.9219 11.2969 13.582 11.2148 13.2305H10.0898C9.70312 13.2305 9.42188 12.9609 9.42188 12.5742C9.42188 12.1875 9.70312 11.9297 10.0898 11.9297H11.0156C11.0039 11.8359 10.9922 11.7656 10.9922 11.6719C10.9922 9.38672 12.5273 7.94531 15.0117 7.94531C15.75 7.94531 16.4414 8.02734 17.0156 8.26172C17.4375 8.42578 17.5898 8.68359 17.5898 9C17.5898 9.39844 17.3672 9.65625 16.8984 9.63281C16.5234 9.58594 15.9961 9.375 15.1055 9.375C13.5117 9.375 12.5742 10.2656 12.5742 11.5664C12.5742 11.6953 12.5859 11.8125 12.5977 11.9297H16.1016C16.5 11.9297 16.7812 12.1875 16.7812 12.5742C16.7812 12.9609 16.5 13.2305 16.1016 13.2305H12.8203C12.9023 13.5703 12.9961 13.9102 13.0898 14.2734H16.1016C16.5 14.2734 16.7812 14.5312 16.7812 14.918C16.7812 15.3047 16.5 15.5742 16.1016 15.5742H13.2188C13.2188 15.7617 13.207 15.9375 13.1836 16.1133C13.0664 16.9102 12.7148 17.6484 12.1875 18.0703H17.4141C17.8477 18.0703 18.1523 18.3516 18.1523 18.7734C18.1523 19.207 17.8477 19.4883 17.4141 19.4883H10.1016C9.66797 19.4883 9.38672 19.207 9.38672 18.7734Z" fill="white"/>
</svg>
