<svg width="28" height="28" viewBox="0 0 28 28" fill="none" xmlns="http://www.w3.org/2000/svg">
<path d="M13.9531 25.9062C20.4922 25.9062 25.9062 20.4805 25.9062 13.9531C25.9062 7.41406 20.4805 2 13.9414 2C7.41406 2 2 7.41406 2 13.9531C2 20.4805 7.42578 25.9062 13.9531 25.9062Z" fill="black" fill-opacity="0.85"/>
<path d="M16.6253 18.9922C16.3792 19.1328 16.0745 19.0625 15.9339 18.793L12.9573 13.6602C12.7347 13.7539 12.4417 13.8477 12.1136 14.0469C10.9886 14.6797 10.5198 15.7695 9.25419 16.4961C8.91434 16.707 8.49247 16.918 8.05887 16.918C7.64872 16.918 7.36747 16.7305 7.16825 16.3672L5.22294 13.0156C5.012 12.6641 5.18778 12.3242 5.50419 12.1484C5.71512 12.0312 6.14872 11.9141 6.66434 11.6094C7.81278 10.9531 8.25809 9.89844 9.52372 9.16016C9.887 8.94922 10.2972 8.76172 10.6253 8.76172C11.0003 8.76172 11.3518 8.85547 11.6097 9.27734L16.8128 18.2891C16.9534 18.5352 16.8714 18.8516 16.6253 18.9922ZM19.7894 16.918C19.3558 16.918 18.9456 16.707 18.5941 16.4961C17.3753 15.8047 16.5901 14.3047 15.2073 13.7773L14.4222 12.4414L16.2503 9.28906C16.4964 8.85547 16.8597 8.76172 17.2347 8.76172C17.5628 8.76172 17.9612 8.94922 18.3362 9.16016C19.6019 9.89844 20.0355 10.9531 21.1956 11.6094C21.6995 11.9141 22.1448 12.0312 22.3558 12.1484C22.6722 12.3359 22.848 12.6641 22.637 13.0156L20.6917 16.3672C20.4808 16.7305 20.2112 16.918 19.7894 16.918ZM11.2347 18.9922C10.9768 18.8516 10.9065 18.5352 11.0472 18.2891L12.8519 15.1836L13.4378 16.1914L11.9261 18.793C11.7854 19.0625 11.4807 19.1445 11.2347 18.9922Z" fill="white"/>
</svg>
