<svg width="28" height="28" viewBox="0 0 28 28" fill="none" xmlns="http://www.w3.org/2000/svg">
<path d="M13.9531 25.9062C20.4922 25.9062 25.9062 20.4805 25.9062 13.9531C25.9062 7.41406 20.4805 2 13.9414 2C7.41406 2 2 7.41406 2 13.9531C2 20.4805 7.42578 25.9062 13.9531 25.9062Z" fill="black" fill-opacity="0.85"/>
<path d="M14.3516 19.1328C13.918 19.1328 13.625 19.0508 13.0391 18.5469L10.7422 16.6484C10.6719 16.6484 10.5781 16.6602 10.4961 16.6602C8.90234 16.6602 7.54297 16.2148 6.71094 15.0547C6.00781 15.043 5.48047 14.6328 5.48047 13.9883C5.48047 13.4023 5.9375 13.0156 6.54688 13.0039C7.30859 10.8945 8.75 9.80469 10.625 9.80469C12.4297 9.80469 13.7773 10.7773 15.5117 11.7734C16.1914 12.1719 16.6484 12.4297 17.0938 12.4297C17.375 12.4297 17.5977 12.3008 17.8555 12.0547L14.6094 10.0742C13.8945 9.64062 12.9805 9.00781 12.9805 8.55078C12.9805 7.87109 14.1992 7.40234 15.0312 7.40234C16.0273 7.40234 17.0469 7.95312 17.8789 9.04297L19.4141 11.082C21.125 11.0586 22.4141 12.3945 22.4141 14.1641C22.4141 15.6406 21.7109 15.9922 20.1641 15.9922C19.3906 15.9922 18.6758 15.7109 18.043 15.2773C17.4688 15.5234 17.082 15.793 16.7305 16.0391C16.4141 16.0039 16.1211 15.9805 15.793 15.9805C15.3711 15.9805 14.9492 16.0156 14.5742 16.0859L14.1875 15.1484C13.4258 13.3203 12.207 12.418 10.5547 12.418C10.0508 12.418 9.58203 12.5 9.58203 12.8516C9.58203 13.0742 9.72266 13.1562 9.94531 13.1562H10.6133C11.9844 13.1562 12.957 14.0117 13.543 15.3711L14.1406 16.7539C14.6211 16.6367 15.0078 16.5664 15.8398 16.5664C17.5391 16.5664 18.6172 17.2109 18.6172 18.2188C18.6172 18.8164 18.1836 19.1328 17.3516 19.1328C16.7891 19.1328 16.5898 18.9453 15.8516 18.9453C15.1016 18.9453 14.75 19.1328 14.3516 19.1328ZM10.2734 19.5898C9.06641 19.5898 8.30469 19.0977 8.30469 18.3359C8.30469 17.8203 8.69141 17.4922 9.32422 17.4922C9.82812 17.4922 10.25 17.5742 10.5195 17.5742C10.6484 17.5742 10.7305 17.5508 10.8242 17.5508L12.5703 19.0039C12.0195 19.3789 11.3633 19.5898 10.2734 19.5898ZM20.0234 13.9062C20.2695 13.9062 20.4805 13.6602 20.4805 13.4023C20.4805 13.168 20.2812 12.957 20.0352 12.957C19.7773 12.957 19.5664 13.1797 19.5664 13.4492C19.5664 13.6719 19.7656 13.9062 20.0234 13.9062Z" fill="white"/>
</svg>
