<svg width="28" height="28" viewBox="0 0 28 28" fill="none" xmlns="http://www.w3.org/2000/svg">
<path d="M4.73828 14.5977C4.29297 14.7734 4 15.1719 4 15.5938C4 16.2852 4.50391 16.8125 5.18359 16.8125C5.54688 16.8125 6.00391 16.6133 6.29688 16.4961L15.2734 12.9805H13.6211L22.5977 16.4961C22.8906 16.6133 23.3594 16.8125 23.7109 16.8125C24.3906 16.8125 24.8945 16.2852 24.8945 15.5938C24.8945 15.1719 24.6016 14.7734 24.1562 14.5977L16.1641 11.4688C15.625 11.2578 14.9688 11 14.4531 11C13.9258 11 13.2812 11.2578 12.7422 11.4688L4.73828 14.5977Z" fill="black" fill-opacity="0.85"/>
</svg>
