<svg width="28" height="28" viewBox="0 0 28 28" fill="none" xmlns="http://www.w3.org/2000/svg">
<path d="M13.9531 25.9062C20.4922 25.9062 25.9062 20.4805 25.9062 13.9531C25.9062 7.41406 20.4805 2 13.9414 2C7.41406 2 2 7.41406 2 13.9531C2 20.4805 7.42578 25.9062 13.9531 25.9062ZM13.9531 23.9141C8.42188 23.9141 4.00391 19.4844 4.00391 13.9531C4.00391 8.42188 8.41016 3.99219 13.9414 3.99219C19.4727 3.99219 23.9141 8.42188 23.9141 13.9531C23.9141 19.4844 19.4844 23.9141 13.9531 23.9141Z" fill="black" fill-opacity="0.85"/>
<path d="M9.71094 18.5703C9.71094 19.4492 10.0977 19.8594 10.9062 19.8594H16.9766C17.7852 19.8594 18.1719 19.4492 18.1719 18.5703V13.9062C18.1719 13.0859 17.832 12.6875 17.1406 12.6406V11.2461C17.1406 9.08984 15.8516 7.64844 13.9414 7.64844C12.0312 7.64844 10.7422 9.08984 10.7422 11.2461V12.6406C10.0508 12.6875 9.71094 13.0859 9.71094 13.9062V18.5703ZM11.9609 12.6289V11.1172C11.9609 9.74609 12.7578 8.83203 13.9414 8.83203C15.125 8.83203 15.9219 9.74609 15.9219 11.1172V12.6289H11.9609Z" fill="black" fill-opacity="0.85"/>
</svg>
