<svg width="28" height="28" viewBox="0 0 28 28" fill="none" xmlns="http://www.w3.org/2000/svg">
<path d="M3.67969 24.5742H23.9531C26.4141 24.5742 27.6328 23.3672 27.6328 20.9531V6.63281C27.6328 4.21875 26.4141 3 23.9531 3H3.67969C1.23047 3 0 4.21875 0 6.63281V20.9531C0 23.3672 1.23047 24.5742 3.67969 24.5742ZM3.70312 22.6875C2.53125 22.6875 1.88672 22.0664 1.88672 20.8477V6.73828C1.88672 5.51953 2.53125 4.88672 3.70312 4.88672H23.9297C25.0898 4.88672 25.7461 5.51953 25.7461 6.73828V20.8477C25.7461 22.0664 25.0898 22.6875 23.9297 22.6875H3.70312Z" fill="black" fill-opacity="0.85"/>
<path d="M12.5508 19.3477C12.9375 19.3477 13.2656 19.1602 13.4883 18.7969L18.8555 10.3711C18.9844 10.1367 19.1367 9.87891 19.1367 9.62109C19.1367 9.09375 18.668 8.75391 18.1758 8.75391C17.8711 8.75391 17.5781 8.94141 17.3672 9.28125L12.5039 17.0859L10.1836 14.0977C9.91406 13.7227 9.64453 13.6289 9.32812 13.6289C8.8125 13.6289 8.42578 14.0391 8.42578 14.5547C8.42578 14.8125 8.51953 15.0586 8.69531 15.2812L11.543 18.7969C11.8477 19.1836 12.1523 19.3477 12.5508 19.3477Z" fill="black" fill-opacity="0.85"/>
</svg>
