<svg width="28" height="28" viewBox="0 0 28 28" fill="none" xmlns="http://www.w3.org/2000/svg">
<g clip-path="url(#clip0_2124_89342)">
<path d="M2.23047 16.5938L9.76562 12.2344L15.1914 16.8867L24.8359 11.1445L24.0977 9.94922L15.2852 15.1992L9.88281 10.5703L2.23047 14.9883V16.5938ZM9.61328 13.8164C10.7617 13.8164 11.6992 12.8789 11.6992 11.7305C11.6992 10.582 10.7617 9.65625 9.61328 9.65625C8.46484 9.65625 7.52734 10.582 7.52734 11.7305C7.52734 12.8789 8.46484 13.8164 9.61328 13.8164ZM15.1445 18.1172C16.293 18.1172 17.2188 17.1797 17.2188 16.0312C17.2188 14.8828 16.293 13.957 15.1445 13.957C13.9961 13.957 13.0586 14.8828 13.0586 16.0312C13.0586 17.1797 13.9961 18.1172 15.1445 18.1172ZM23.9805 12.7852C25.1289 12.7852 26.0664 11.8477 26.0664 10.6992C26.0664 9.55078 25.1289 8.61328 23.9805 8.61328C22.832 8.61328 21.8945 9.55078 21.8945 10.6992C21.8945 11.8477 22.832 12.7852 23.9805 12.7852Z" fill="black" fill-opacity="0.85"/>
<path d="M1 23.8828C1 24.4453 1.375 24.8086 1.9375 24.8086H25.2461C25.7617 24.8086 26.1953 24.3984 26.1953 23.8711C26.1953 23.3555 25.7617 22.9336 25.2461 22.9336H3.21484C2.96875 22.9336 2.88672 22.8516 2.88672 22.6055V4.07812C2.88672 3.57422 2.46484 3.14062 1.94922 3.14062C1.42188 3.14062 1 3.57422 1 4.07812V23.8828Z" fill="black" fill-opacity="0.85"/>
</g>
<defs>
<clipPath id="clip0_2124_89342">
<rect width="25.1953" height="21.8086" fill="white" transform="translate(1 3)"/>
</clipPath>
</defs>
</svg>
