<svg width="28" height="28" viewBox="0 0 28 28" fill="none" xmlns="http://www.w3.org/2000/svg">
<path d="M15.6914 5.76953C16.1836 5.76953 16.5703 5.38281 16.5703 4.87891C16.5703 4.38672 16.1836 4 15.6914 4H0.890625C0.398438 4 0 4.38672 0 4.87891C0 5.38281 0.398438 5.76953 0.890625 5.76953H15.6914ZM15.6914 11.9102C16.1836 11.9102 16.5703 11.5234 16.5703 11.0195C16.5703 10.5273 16.1836 10.1406 15.6914 10.1406H0.890625C0.398438 10.1406 0 10.5273 0 11.0195C0 11.5234 0.398438 11.9102 0.890625 11.9102H15.6914ZM15.6914 18.0508C16.1836 18.0508 16.5703 17.6523 16.5703 17.1602C16.5703 16.668 16.1836 16.2812 15.6914 16.2812H0.890625C0.398438 16.2812 0 16.668 0 17.1602C0 17.6523 0.398438 18.0508 0.890625 18.0508H15.6914ZM9.70312 24.1797C10.1953 24.1797 10.582 23.793 10.582 23.3008C10.582 22.8086 10.1953 22.4102 9.70312 22.4102H0.890625C0.398438 22.4102 0 22.8086 0 23.3008C0 23.793 0.398438 24.1797 0.890625 24.1797H9.70312Z" fill="black" fill-opacity="0.85"/>
<path d="M25.3477 17.6875C26.2031 18.2617 27.1758 17.9336 27.1758 16.8906V11.3359C27.1758 10.2578 26.25 9.91797 25.3477 10.5273L21.4688 13.1641C20.8008 13.6211 20.7773 14.6289 21.4688 15.0977L25.3477 17.6875Z" fill="black" fill-opacity="0.85"/>
</svg>
