<svg width="28" height="28" viewBox="0 0 28 28" fill="none" xmlns="http://www.w3.org/2000/svg">
<g clip-path="url(#clip0_2124_24713)">
<path d="M14.2031 26.7227C19.5938 26.7227 22.418 23.5234 22.418 17.4297C22.418 13.6914 22.2656 10.3633 22.0547 8.10156C21.6094 3.10938 19.3008 1.03516 14.2031 1.03516C9.11719 1.03516 6.80859 3.10938 6.35156 8.10156C6.14062 10.3633 6 13.6914 6 17.4297C6 23.5234 8.8125 26.7227 14.2031 26.7227ZM14.2031 24.8359C10.043 24.8359 7.88672 22.3047 7.88672 17.4297C7.88672 13.9141 8.01562 10.6094 8.23828 8.27734C8.58984 4.28125 10.0781 2.92188 14.2031 2.92188C18.3281 2.92188 19.8281 4.28125 20.1797 8.27734C20.3906 10.6094 20.5312 13.9141 20.5312 17.4297C20.5312 22.3047 18.3633 24.8359 14.2031 24.8359ZM7.41797 9.80078H21.0117V8.26562H7.41797V9.80078ZM13.4531 9.02734L14.9883 9.03906V2.24219L13.4531 2.23047V9.02734Z" fill="black" fill-opacity="0.85"/>
</g>
<defs>
<clipPath id="clip0_2124_24713">
<rect width="16.418" height="25.7227" fill="white" transform="translate(6 1)"/>
</clipPath>
</defs>
</svg>
