<svg width="28" height="28" viewBox="0 0 28 28" fill="none" xmlns="http://www.w3.org/2000/svg">
<path d="M13.9531 25.9062C20.4922 25.9062 25.9062 20.4805 25.9062 13.9531C25.9062 7.41406 20.4805 2 13.9414 2C7.41406 2 2 7.41406 2 13.9531C2 20.4805 7.42578 25.9062 13.9531 25.9062ZM13.9531 23.9141C8.42188 23.9141 4.00391 19.4844 4.00391 13.9531C4.00391 8.42188 8.41016 3.99219 13.9414 3.99219C19.4727 3.99219 23.9141 8.42188 23.9141 13.9531C23.9141 19.4844 19.4844 23.9141 13.9531 23.9141Z" fill="black" fill-opacity="0.85"/>
<path d="M6.78125 13.9531C6.78125 14.1523 6.86328 14.3984 7.10938 14.6328L12.1484 19.3906C12.4531 19.6602 12.6992 19.7891 13.0156 19.7891C13.4375 19.7891 13.7539 19.4844 13.7539 19.0508V16.4609H19.0625C19.9883 16.4609 20.5273 15.9453 20.5273 15.043V12.875C20.5273 11.9609 19.9883 11.4453 19.0625 11.4453H13.7539V8.87891C13.7539 8.45703 13.4375 8.11719 12.9922 8.11719C12.6875 8.11719 12.4883 8.24609 12.1484 8.5625L7.10938 13.2617C6.86328 13.4961 6.78125 13.7422 6.78125 13.9531Z" fill="black" fill-opacity="0.85"/>
</svg>
