<svg width="28" height="28" viewBox="0 0 28 28" fill="none" xmlns="http://www.w3.org/2000/svg">
<g clip-path="url(#clip0_2124_88792)">
<path d="M5.67969 21.1484H17.4453C19.8828 21.1484 21.1133 19.9297 21.1133 17.5156V5.65625C21.1133 3.24219 19.8828 2.02344 17.4453 2.02344H5.67969C3.21875 2.02344 2 3.24219 2 5.65625V17.5156C2 19.9297 3.21875 21.1484 5.67969 21.1484ZM5.70312 19.2617C4.53125 19.2617 3.88672 18.6289 3.88672 17.4102V5.76172C3.88672 4.54297 4.53125 3.91016 5.70312 3.91016H17.4102C18.5703 3.91016 19.2266 4.54297 19.2266 5.76172V17.4102C19.2266 18.6289 18.5703 19.2617 17.4102 19.2617H5.70312Z" fill="black" fill-opacity="0.85"/>
<path d="M11.3633 26.5742H23.1289C25.5664 26.5742 26.7969 25.3555 26.7969 22.9414V11.082C26.7969 8.66797 25.5664 7.44922 23.1289 7.44922H11.3633C8.90234 7.44922 7.68359 8.65625 7.68359 11.082V22.9414C7.68359 25.3555 8.90234 26.5742 11.3633 26.5742Z" fill="white"/>
<path d="M11.3633 26.5742H23.1289C25.5664 26.5742 26.7969 25.3555 26.7969 22.9414V11.082C26.7969 8.66797 25.5664 7.44922 23.1289 7.44922H11.3633C8.90234 7.44922 7.68359 8.65625 7.68359 11.082V22.9414C7.68359 25.3555 8.90234 26.5742 11.3633 26.5742ZM11.3867 24.6875C10.2266 24.6875 9.57031 24.0547 9.57031 22.8359V11.1875C9.57031 9.96875 10.2266 9.33594 11.3867 9.33594H23.0938C24.2539 9.33594 24.9102 9.96875 24.9102 11.1875V22.8359C24.9102 24.0547 24.2539 24.6875 23.0938 24.6875H11.3867Z" fill="black" fill-opacity="0.85"/>
<path d="M12.6641 14.0938C13.5664 14.1055 14.3164 13.3555 14.3164 12.4297C14.3164 11.5039 13.5664 10.7773 12.6641 10.7773C11.75 10.7773 11 11.5039 11 12.4297C11 13.3555 11.75 14.082 12.6641 14.0938ZM21.8398 14.0938C22.7422 14.1055 23.4922 13.3555 23.4922 12.4297C23.4922 11.5039 22.7422 10.7773 21.8398 10.7773C20.9258 10.7773 20.1641 11.5039 20.1641 12.4297C20.1641 13.3555 20.9258 14.082 21.8398 14.0938ZM17.2461 18.6875C18.1484 18.6875 18.8984 17.9375 18.8984 17.0117C18.8984 16.1094 18.1484 15.3711 17.2461 15.3711C16.332 15.3711 15.5938 16.1094 15.5938 17.0117C15.5938 17.9375 16.332 18.6875 17.2461 18.6875ZM12.6641 23.2812C13.5664 23.2812 14.3164 22.5312 14.3164 21.6172C14.3164 20.7031 13.5664 19.9648 12.6641 19.9648C11.75 19.9648 11.0117 20.7031 11.0117 21.6172C11.0117 22.5312 11.75 23.2812 12.6641 23.2812ZM21.8398 23.2812C22.7422 23.2812 23.4922 22.5312 23.4922 21.6172C23.4922 20.7031 22.7422 19.9648 21.8398 19.9648C20.9258 19.9648 20.1758 20.7031 20.1758 21.6172C20.1758 22.5312 20.9258 23.2812 21.8398 23.2812Z" fill="black" fill-opacity="0.85"/>
</g>
<defs>
<clipPath id="clip0_2124_88792">
<rect width="24.7969" height="24.5742" fill="white" transform="translate(2 2)"/>
</clipPath>
</defs>
</svg>
