<svg width="34" height="28" viewBox="0 0 34 28" fill="none" xmlns="http://www.w3.org/2000/svg">
<g clip-path="url(#clip0_2124_24884)">
<path d="M0 19.7227C0 22.4648 1.78125 24.2461 4.46484 24.2461C5.82422 24.2461 7.17188 23.6602 8.15625 22.4414L10.2773 19.875C10.582 19.5117 10.9336 19.3359 11.2852 19.3359H22.5469C22.8984 19.3359 23.25 19.5117 23.5547 19.875L25.6758 22.4414C26.6602 23.6602 28.0078 24.2461 29.3672 24.2461C32.0508 24.2461 33.832 22.4648 33.832 19.7227C33.832 18.5508 33.5625 17.2031 33.1055 15.6914C32.3906 13.2891 31.1367 10.0195 29.9414 7.48828C28.9336 5.37891 28.418 4.41797 25.9336 3.85547C23.7305 3.35156 20.6719 3.01172 16.9219 3.01172C13.1719 3.01172 10.1016 3.35156 7.89844 3.85547C5.41406 4.41797 4.89844 5.37891 3.89062 7.48828C2.69531 10.0195 1.44141 13.2891 0.726562 15.6914C0.269531 17.2031 0 18.5508 0 19.7227ZM1.79297 19.793C1.79297 19.0547 1.95703 18.1641 2.33203 16.8867C3.11719 14.1914 4.47656 10.6992 5.66016 8.10938C6.23438 6.85547 6.55078 6.09375 8.07422 5.74219C10.1953 5.23828 13.2188 4.89844 16.9219 4.89844C20.6133 4.89844 23.6367 5.23828 25.7578 5.74219C27.2812 6.09375 27.5859 6.85547 28.1719 8.10938C29.3789 10.6992 30.6797 14.2031 31.5 16.8867C31.8867 18.1641 32.0391 19.0547 32.0391 19.793C32.0391 21.4102 30.9023 22.4297 29.3906 22.4297C28.5 22.4297 27.6328 21.9609 26.9531 21.1289L24.75 18.4688C24.1875 17.7891 23.7188 17.4492 22.6289 17.4492H11.2031C10.1133 17.4492 9.64453 17.7891 9.08203 18.4688L6.87891 21.1289C6.19922 21.9609 5.33203 22.4297 4.44141 22.4297C2.92969 22.4297 1.79297 21.4102 1.79297 19.793Z" fill="black" fill-opacity="0.85"/>
<path d="M7.42969 11.2734C7.42969 11.8828 7.79297 12.2578 8.40234 12.2578H10.5117V14.3086C10.5117 14.9062 10.8516 15.2812 11.4375 15.2812C12.0117 15.2812 12.3633 14.9062 12.3633 14.3086V12.2578H14.3438C15 12.2578 15.3867 11.8828 15.3867 11.2734C15.3867 10.6875 15 10.3242 14.3438 10.3242H12.3633V8.27344C12.3633 7.67578 12.0117 7.3125 11.4375 7.3125C10.8516 7.3125 10.5117 7.67578 10.5117 8.27344V10.3242H8.40234C7.79297 10.3242 7.42969 10.6875 7.42969 11.2734ZM24.1992 11.1562C25.1484 11.1562 25.9102 10.3945 25.9102 9.45703C25.9102 8.50781 25.1484 7.74609 24.1992 7.74609C23.2617 7.74609 22.4883 8.50781 22.4883 9.45703C22.4883 10.3945 23.2617 11.1562 24.1992 11.1562ZM20.7539 14.625C21.6914 14.625 22.4648 13.8633 22.4648 12.9258C22.4648 11.9766 21.6914 11.2148 20.7539 11.2148C19.8164 11.2148 19.043 11.9766 19.043 12.9258C19.043 13.8633 19.8164 14.625 20.7539 14.625Z" fill="black" fill-opacity="0.85"/>
</g>
<defs>
<clipPath id="clip0_2124_24884">
<rect width="33.832" height="21.2461" fill="white" transform="translate(0 3)"/>
</clipPath>
</defs>
</svg>
