<svg width="28" height="28" viewBox="0 0 28 28" fill="none" xmlns="http://www.w3.org/2000/svg">
<g clip-path="url(#clip0_2124_88424)">
<path d="M13.9531 25.9062C20.4922 25.9062 25.9062 20.4805 25.9062 13.9531C25.9062 7.41406 20.4805 2 13.9414 2C7.41406 2 2 7.41406 2 13.9531C2 20.4805 7.42578 25.9062 13.9531 25.9062Z" fill="black" fill-opacity="0.85"/>
<path d="M11.082 20.457C9.74609 20.457 9.06641 19.7891 9.06641 18.418V9.17188C9.06641 7.82422 9.74609 7.13281 11.082 7.13281H13.3789V11.9961C13.3789 12.8398 13.7773 13.2266 14.6094 13.2266H19.4023V18.418C19.4023 19.7656 18.7344 20.457 17.3867 20.457H11.082ZM14.7031 12.2422C14.4805 12.2422 14.3516 12.125 14.3516 11.8906V7.20312C14.6211 7.23828 14.9023 7.42578 15.207 7.74219L18.7812 11.3867C19.0977 11.7031 19.2852 11.9727 19.3203 12.2422H14.7031Z" fill="white"/>
</g>
<defs>
<clipPath id="clip0_2124_88424">
<rect width="23.9062" height="23.918" fill="white" transform="translate(2 2)"/>
</clipPath>
</defs>
</svg>
