<svg width="30" height="28" viewBox="0 0 30 28" fill="none" xmlns="http://www.w3.org/2000/svg">
<path d="M23.1562 23.3672C26.6953 23.3672 29.4609 20.7773 29.4609 17.5547C29.4609 15.0938 28.043 12.9609 25.7578 12C25.7812 6.77344 22.0195 3 17.2266 3C14.0508 3 11.7891 4.69922 10.3828 6.75C7.5 5.90625 4.35938 8.09766 4.30078 11.3789C1.65234 11.8008 0 14.168 0 17.0273C0 20.4727 3.01172 23.3672 7.01953 23.3672H23.1562Z" fill="black" fill-opacity="0.85"/>
<path d="M15.2812 19.5704C12.5859 19.5704 10.418 17.3907 10.418 14.6485C10.418 12.2227 12.2461 10.2657 14.4141 9.92584V8.68365C14.4141 8.15631 14.9766 7.95709 15.3867 8.28522L17.625 10.1954C17.9766 10.5001 18 10.9922 17.625 11.3204L15.3867 13.254C14.9766 13.6056 14.4141 13.3946 14.4141 12.879V11.4493C12.9844 11.836 11.9297 13.1251 11.9297 14.6837C11.9297 16.5587 13.418 18.0704 15.2812 18.0704C17.1562 18.0704 18.6445 16.5587 18.6445 14.6837C18.6445 14.2853 18.9844 13.9454 19.4062 13.9454C19.8047 13.9454 20.1562 14.2853 20.1562 14.6837C20.1562 17.3907 17.9883 19.5704 15.2812 19.5704Z" fill="white"/>
</svg>
