<svg width="28" height="28" viewBox="0 0 28 28" fill="none" xmlns="http://www.w3.org/2000/svg">
<path d="M13.9531 25.9062C20.4922 25.9062 25.9062 20.4805 25.9062 13.9531C25.9062 7.41406 20.4805 2 13.9414 2C7.41406 2 2 7.41406 2 13.9531C2 20.4805 7.42578 25.9062 13.9531 25.9062ZM13.9531 23.9141C8.42188 23.9141 4.00391 19.4844 4.00391 13.9531C4.00391 8.42188 8.41016 3.99219 13.9414 3.99219C19.4727 3.99219 23.9141 8.42188 23.9141 13.9531C23.9141 19.4844 19.4844 23.9141 13.9531 23.9141Z" fill="black" fill-opacity="0.85"/>
<path d="M19.9648 13.9414C19.9648 13.6836 19.8711 13.4961 19.6367 13.2617L15.6758 9.27734C15.5234 9.125 15.3125 9.04297 15.0664 9.04297C14.5859 9.04297 14.2227 9.40625 14.2227 9.88672C14.2227 10.1445 14.3281 10.3555 14.4805 10.5195L15.9453 11.9727L17.3633 13.1562L14.8906 13.0625H8.77344C8.26953 13.0625 7.89453 13.4258 7.89453 13.9414C7.89453 14.4453 8.26953 14.8086 8.77344 14.8086H14.8906L17.3633 14.7266L15.9453 15.9102L14.4805 17.3633C14.3164 17.5156 14.2227 17.7266 14.2227 17.9844C14.2227 18.4648 14.5859 18.8398 15.0664 18.8398C15.3125 18.8398 15.5234 18.7461 15.6758 18.5938L19.6367 14.6211C19.8594 14.4102 19.9648 14.1992 19.9648 13.9414Z" fill="black" fill-opacity="0.85"/>
</svg>
