<svg width="28" height="28" viewBox="0 0 28 28" fill="none" xmlns="http://www.w3.org/2000/svg">
<path d="M14.4219 22.8125C15.9219 22.8125 20.0234 17.4219 20.0234 15.4062C20.0234 14.2695 17.4922 12.0547 16.168 12.0547C15.5938 12.0547 14.668 12.875 14 12.875C13.332 12.875 11.832 11.5625 11.832 10.9883C11.832 10.6602 12.1133 10.4727 12.4414 10.4727C13.0156 10.4727 13.918 11.4336 14.832 11.4336C15.5938 11.4336 16.0039 10.9062 16.0039 10.1445C16.0039 9.74609 15.7812 9.34766 15.4531 8.83203C16.6602 8.24609 19.0742 6.98047 19.8594 5.36328C18.9805 4.00391 16.6484 3.11328 13.9297 3.11328C9.91016 3.11328 5.94922 5.48047 5.59766 7.77734C5.46875 9.00781 6.40625 10.3555 8.04688 11.7852L9.75781 13.2734C10.2969 13.7539 10.6133 13.9766 10.6133 14.2812C10.6133 14.7852 10.0508 15.1367 10.0508 15.7812C10.0508 16.3672 10.332 16.8711 10.9414 17.3164C12.8398 18.7461 13.2969 18.9453 13.2969 19.3789C13.3086 20.1523 12.8516 20.7383 12.8516 21.4531C12.8516 22.0977 13.6836 22.8125 14.4219 22.8125ZM13.9531 25.9062C20.4922 25.9062 25.9062 20.4805 25.9062 13.9531C25.9062 7.41406 20.4805 2 13.9414 2C7.41406 2 2 7.41406 2 13.9531C2 20.4805 7.42578 25.9062 13.9531 25.9062ZM13.9531 24.3125C8.29297 24.3125 3.59375 19.6133 3.59375 13.9531C3.59375 8.29297 8.28125 3.59375 13.9414 3.59375C19.6016 3.59375 24.3125 8.29297 24.3125 13.9531C24.3125 19.6133 19.6133 24.3125 13.9531 24.3125Z" fill="black" fill-opacity="0.85"/>
</svg>
