<svg width="28" height="28" viewBox="0 0 28 28" fill="none" xmlns="http://www.w3.org/2000/svg">
<g clip-path="url(#clip0_2124_24833)">
<path d="M11.0586 26.8867H16.3672C18.2305 26.8867 19.4141 25.7383 19.4141 23.9688V3.91797C19.4141 2.14844 18.2305 1 16.3672 1H11.0586C9.18359 1 8 2.14844 8 3.91797V23.9688C8 25.7383 9.18359 26.8867 11.0586 26.8867ZM11.2578 25.1758C10.3203 25.1758 9.73438 24.6133 9.73438 23.7227V4.17578C9.73438 3.27344 10.3203 2.71094 11.2578 2.71094H16.1562C17.1055 2.71094 17.6797 3.27344 17.6797 4.17578V23.7227C17.6797 24.6133 17.1055 25.1758 16.1562 25.1758H11.2578ZM13.707 10.8672C15.5586 10.8672 17.0586 9.36719 17.0586 7.52734C17.0586 5.66406 15.5586 4.17578 13.707 4.17578C11.8555 4.17578 10.3672 5.66406 10.3672 7.52734C10.3672 9.36719 11.8555 10.8672 13.707 10.8672ZM12.0312 14.2656C12.7461 14.2656 13.3203 13.6797 13.3203 12.9766C13.3203 12.2617 12.7461 11.6875 12.0312 11.6875C11.3164 11.6875 10.7422 12.2617 10.7422 12.9766C10.7422 13.6797 11.3164 14.2656 12.0312 14.2656ZM15.3945 14.2656C16.1094 14.2656 16.6719 13.6797 16.6719 12.9766C16.6719 12.2617 16.1094 11.6875 15.3945 11.6875C14.6797 11.6875 14.1055 12.2617 14.1055 12.9766C14.1055 13.6797 14.6797 14.2656 15.3945 14.2656ZM12.0312 17.5234C12.7461 17.5234 13.3203 16.9375 13.3203 16.2227C13.3203 15.5195 12.7461 14.9336 12.0312 14.9336C11.3164 14.9336 10.7422 15.5195 10.7422 16.2227C10.7422 16.9375 11.3164 17.5234 12.0312 17.5234ZM12.0312 20.7695C12.7461 20.7695 13.3203 20.1836 13.3203 19.4805C13.3203 18.7656 12.7461 18.1797 12.0312 18.1797C11.3164 18.1797 10.7422 18.7656 10.7422 19.4805C10.7422 20.1836 11.3164 20.7695 12.0312 20.7695ZM15.3828 20.7695C16.0625 20.7695 16.6133 20.2305 16.6133 19.5508V16.1523C16.6133 15.4727 16.0625 14.9336 15.3828 14.9336C14.7148 14.9336 14.1758 15.4727 14.1758 16.1523V19.5508C14.1758 20.207 14.7148 20.7695 15.3828 20.7695Z" fill="black" fill-opacity="0.85"/>
</g>
<defs>
<clipPath id="clip0_2124_24833">
<rect width="11.4141" height="25.957" fill="white" transform="translate(8 1)"/>
</clipPath>
</defs>
</svg>
