<svg width="30" height="28" viewBox="0 0 30 28" fill="none" xmlns="http://www.w3.org/2000/svg">
<path d="M23.1562 23.3672C26.6953 23.3672 29.4609 20.7773 29.4609 17.5547C29.4609 15.0938 28.043 12.9609 25.7578 12C25.7812 6.77344 22.0195 3 17.2266 3C14.0508 3 11.7891 4.69922 10.3828 6.75C7.5 5.90625 4.35938 8.09766 4.30078 11.3789C1.65234 11.8008 0 14.168 0 17.0273C0 20.4727 3.01172 23.3672 7.01953 23.3672H23.1562Z" fill="black" fill-opacity="0.85"/>
<path d="M14.9766 19.5704C12.2812 19.5704 10.1133 17.3907 10.1133 14.6837C10.1133 14.2853 10.4531 13.9454 10.8633 13.9454C11.2852 13.9454 11.625 14.2853 11.625 14.6837C11.625 16.5587 13.1133 18.0704 14.9766 18.0704C16.8516 18.0704 18.3398 16.5587 18.3398 14.6837C18.3398 13.1251 17.2852 11.836 15.8555 11.4493V12.879C15.8555 13.3946 15.2812 13.6056 14.8828 13.254L12.6445 11.3204C12.2695 10.9922 12.2812 10.5001 12.6445 10.1954L14.8828 8.28522C15.2812 7.95709 15.8555 8.15631 15.8555 8.68365V9.92584C18.0234 10.2657 19.8516 12.2227 19.8516 14.6485C19.8516 17.3907 17.6836 19.5704 14.9766 19.5704Z" fill="white"/>
</svg>
