<svg width="28" height="28" viewBox="0 0 28 28" fill="none" xmlns="http://www.w3.org/2000/svg">
<g clip-path="url(#clip0_2124_24633)">
<path d="M13.9531 25.9062C20.4922 25.9062 25.9062 20.4805 25.9062 13.9531C25.9062 7.41406 20.4805 2 13.9414 2C7.41406 2 2 7.41406 2 13.9531C2 20.4805 7.42578 25.9062 13.9531 25.9062ZM13.9531 23.9141C8.42188 23.9141 4.00391 19.4844 4.00391 13.9531C4.00391 8.42188 8.41016 3.99219 13.9414 3.99219C19.4727 3.99219 23.9141 8.42188 23.9141 13.9531C23.9141 19.4844 19.4844 23.9141 13.9531 23.9141Z" fill="black" fill-opacity="0.85"/>
<path d="M11.375 21.3477H16.4961C17.6445 21.3477 18.418 20.6094 18.418 19.4961V8.39844C18.418 7.28516 17.6445 6.55859 16.4961 6.55859H11.375C10.2383 6.55859 9.46484 7.28516 9.46484 8.39844V19.4961C9.46484 20.6094 10.2383 21.3477 11.375 21.3477ZM11.5273 20.1992C10.9297 20.1992 10.6016 19.8945 10.6016 19.332V8.5625C10.6016 8 10.9297 7.69531 11.5273 7.69531H12.3594C12.4766 7.69531 12.5117 7.74219 12.5117 7.84766V8C12.5117 8.29297 12.6992 8.50391 13.0039 8.50391H14.8789C15.1719 8.50391 15.3711 8.29297 15.3711 8V7.84766C15.3711 7.74219 15.418 7.69531 15.5234 7.69531H16.3555C16.9531 7.69531 17.2812 8 17.2812 8.5625V19.332C17.2812 19.8945 16.9531 20.1992 16.3555 20.1992H11.5273ZM12.4766 19.6953H15.4062C15.6055 19.6953 15.7461 19.5664 15.7461 19.3672C15.7461 19.1562 15.6055 19.0156 15.4062 19.0156H12.4766C12.2773 19.0156 12.1367 19.1562 12.1367 19.3672C12.1367 19.5664 12.2773 19.6953 12.4766 19.6953Z" fill="black" fill-opacity="0.85"/>
<path d="M18.6523 20.5742C19.1914 21.1016 20.0586 21.1133 20.5742 20.5742C21.125 20.0352 21.1133 19.2031 20.5742 18.6641L9.23047 7.32031C8.69141 6.78125 7.83594 6.78125 7.30859 7.32031C6.76953 7.84766 6.76953 8.71484 7.30859 9.24219L18.6523 20.5742Z" fill="white"/>
<path d="M19.2383 20C19.4375 20.1992 19.7891 20.1992 19.9883 20C20.1992 19.7773 20.1992 19.4609 19.9883 19.25L8.65628 7.90625C8.44534 7.69531 8.1055 7.69531 7.89456 7.90625C7.68362 8.10547 7.69534 8.45703 7.89456 8.65625L19.2383 20Z" fill="black" fill-opacity="0.85"/>
</g>
<defs>
<clipPath id="clip0_2124_24633">
<rect width="23.9062" height="23.918" fill="white" transform="translate(2 2)"/>
</clipPath>
</defs>
</svg>
