<svg width="28" height="28" viewBox="0 0 28 28" fill="none" xmlns="http://www.w3.org/2000/svg">
<g clip-path="url(#clip0_2124_24790)">
<path d="M16.5272 20.2227C18.1561 20.2227 19.4686 18.9102 19.4686 17.2812C19.4686 15.6406 18.1561 14.3164 16.5272 14.3164H6.96467C6.3553 14.3164 5.95686 14.75 6.00374 15.3594L6.39045 19.4141C6.44905 19.918 6.82405 20.2227 7.30452 20.2227H16.5272ZM16.5272 18.3828C17.1483 18.3828 17.6405 17.9023 17.6405 17.2812C17.6405 16.6602 17.1483 16.1562 16.5272 16.1562C15.8944 16.1562 15.4022 16.6602 15.4022 17.2812C15.4022 17.9023 15.8944 18.3828 16.5272 18.3828ZM9.76545 25.7656L9.3553 21.8281H8.24202L8.65217 25.7656H9.76545ZM16.5272 19.2148C15.4373 19.2148 14.5701 18.3594 14.5701 17.2812C14.5701 16.2031 15.4373 15.3242 16.5272 15.3242C17.6053 15.3242 18.4725 16.2031 18.4725 17.2812C18.4725 18.3594 17.6053 19.2148 16.5272 19.2148ZM11.6287 2C7.96077 2 6.08577 4.48438 6.53108 8.9375L7.87874 22.3438C7.99592 23.4805 9.92952 23.4805 9.80061 22.1914L8.42952 9.01953C8.08967 5.84375 9.33186 3.95703 11.7576 3.95703C15.6951 3.95703 20.1483 8.28125 20.1483 13.6836C20.1483 14.1172 20.1131 14.6797 20.0311 15.1953C20.3944 15.8164 20.5936 16.5195 20.5936 17.2812C20.5936 19.2734 19.1639 20.9375 17.2772 21.2891C17.1834 21.8984 17.16 22.2734 17.16 22.6719C17.16 24.0547 17.6053 24.6641 18.203 24.6641C20.6405 24.6406 22.117 18.3477 22.117 13.7773C22.117 6.86328 17.0662 2 11.6287 2Z" fill="black" fill-opacity="0.85"/>
</g>
<defs>
<clipPath id="clip0_2124_24790">
<rect width="16.117" height="23.7773" fill="white" transform="translate(6 2)"/>
</clipPath>
</defs>
</svg>
