<svg width="28" height="28" viewBox="0 0 28 28" fill="none" xmlns="http://www.w3.org/2000/svg">
<path d="M10.0898 24.8555C10.7461 24.8555 11.2148 24.3633 11.2148 23.707V14.8242H19.2773C19.875 14.8242 20.3203 14.4375 20.3203 13.8281C20.3203 13.2188 19.875 12.832 19.2773 12.832H11.2148V5.56641H20.1211C20.7305 5.56641 21.1641 5.17969 21.1641 4.55859C21.1641 3.94922 20.7305 3.55078 20.1211 3.55078H10.0898C9.39844 3.55078 8.96484 4.00781 8.96484 4.71094V23.707C8.96484 24.375 9.42188 24.8555 10.0898 24.8555ZM6 20.1094C6 20.5195 6.33984 20.8711 6.76172 20.8711H16.3125C16.7344 20.8711 17.0859 20.5195 17.0859 20.1094C17.0859 19.6875 16.7344 19.3359 16.3125 19.3359H6.76172C6.33984 19.3359 6 19.6875 6 20.1094Z" fill="black" fill-opacity="0.85"/>
</svg>
