<svg width="32" height="28" viewBox="0 0 32 28" fill="none" xmlns="http://www.w3.org/2000/svg">
<g clip-path="url(#clip0_2124_78026)">
<path d="M15.5859 22.332C15.9844 22.332 16.2656 22.1094 16.2656 21.7109C16.2656 21.5352 16.2305 21.4414 16.1016 21.1953C14.6719 18.9805 13.8516 16.4375 13.8516 13.6836C13.8516 11.0234 14.625 8.36328 16.1016 6.13672C16.2305 5.89062 16.2656 5.79688 16.2656 5.62109C16.2656 5.24609 15.9844 5 15.5859 5C15.1992 5 14.8945 5.17578 14.5195 5.69141C12.75 7.92969 11.8711 10.7188 11.8711 13.6719C11.8711 16.625 12.7266 19.332 14.5195 21.6406C14.8945 22.1562 15.1992 22.332 15.5859 22.332ZM18.0469 19.2266C18.4219 19.2266 18.6914 19.0977 18.9844 18.6758L21.5508 15.0195H21.5977L24.2227 18.7344C24.5156 19.1445 24.7969 19.2266 25.0781 19.2266C25.6406 19.2266 26.0039 18.8281 26.0039 18.3477C26.0039 18.125 25.9453 17.9141 25.793 17.7148L22.793 13.6367L25.793 9.61719C25.9336 9.41797 26.0156 9.20703 26.0156 8.96094C26.0156 8.45703 25.5938 8.10547 25.1133 8.10547C24.6914 8.10547 24.457 8.31641 24.2344 8.65625L21.7617 12.2773H21.7031L19.2188 8.64453C18.9844 8.30469 18.7148 8.10547 18.2695 8.10547C17.7188 8.10547 17.3086 8.53906 17.3086 9.00781C17.3086 9.34766 17.4141 9.55859 17.5664 9.75781L20.4258 13.5781L17.3906 17.7617C17.2266 17.9844 17.1914 18.1836 17.1914 18.418C17.1914 18.875 17.5781 19.2266 18.0469 19.2266ZM27.5625 22.332C27.9492 22.332 28.2539 22.1562 28.6289 21.6406C30.4219 19.332 31.2773 16.625 31.2773 13.6719C31.2773 10.7188 30.3984 7.92969 28.6289 5.69141C28.2539 5.17578 27.9492 5 27.5625 5C27.1641 5 26.8828 5.24609 26.8828 5.62109C26.8828 5.79688 26.918 5.89062 27.0469 6.13672C28.5234 8.36328 29.2969 11.0234 29.2969 13.6836C29.2969 16.4375 28.4766 18.9805 27.0469 21.1953C26.918 21.4414 26.8828 21.5352 26.8828 21.7109C26.8828 22.0859 27.1641 22.332 27.5625 22.332Z" fill="black" fill-opacity="0.85"/>
<path d="M1.58203 22.3086C3.87891 22.3086 4.93359 21.3242 5.49609 18.6875L6.83203 12.2773H8.95312C9.63281 12.2773 10.0664 11.9141 10.0664 11.3281C10.0664 10.8242 9.73828 10.5078 9.19922 10.5078H7.20703L7.53516 8.91406C7.85156 7.42578 8.32031 6.81641 9.60938 6.81641C9.80859 6.81641 9.99609 6.80469 10.125 6.79297C10.6992 6.73438 10.9688 6.46484 10.9688 5.96094C10.9688 5.30469 10.418 5.01172 9.29297 5.01172C7.05469 5.01172 5.90625 6.125 5.37891 8.63281L4.99219 10.5078H3.53906C2.84766 10.5078 2.41406 10.8711 2.41406 11.457C2.41406 11.9609 2.74219 12.2773 3.29297 12.2773H4.61719L3.32812 18.4062C3 19.9414 2.51953 20.5039 1.26562 20.5039C1.10156 20.5039 0.9375 20.5156 0.832031 20.5273C0.292969 20.5977 0 20.8906 0 21.3828C0 22.0156 0.539062 22.3086 1.58203 22.3086Z" fill="black" fill-opacity="0.85"/>
</g>
<defs>
<clipPath id="clip0_2124_78026">
<rect width="31.2773" height="17.332" fill="white" transform="translate(0 5)"/>
</clipPath>
</defs>
</svg>
