<svg width="28" height="28" viewBox="0 0 28 28" fill="none" xmlns="http://www.w3.org/2000/svg">
<g clip-path="url(#clip0_2124_67761)">
<path d="M3.76921 24.3055C6.18327 26.7547 9.51139 26.6609 12.2653 24.1062L14.2926 22.2078C13.2731 22.5008 12.2419 22.3015 11.0934 21.1648L6.8278 16.8875C5.67936 15.7508 5.57389 14.8015 5.86686 13.782L3.96843 15.8094C1.40202 18.575 1.35514 21.868 3.76921 24.3055ZM12.195 19.9695C13.3669 21.1414 14.5036 21.1765 15.6989 19.9695L19.9645 15.6922C21.1833 14.4851 21.1598 13.3719 19.988 12.2L15.8747 8.0867C14.7028 6.91483 13.5895 6.89139 12.3825 8.11014L8.10514 12.3758C6.90983 13.5828 6.93327 14.7078 8.10514 15.8797L12.195 19.9695ZM10.7887 14.825C10.3434 14.3797 10.3434 13.7 10.7887 13.2547C11.234 12.8094 11.9137 12.8211 12.3591 13.2664C12.7692 13.6883 12.7809 14.3797 12.3591 14.8015C11.8903 15.2703 11.2106 15.2469 10.7887 14.825ZM13.2731 12.3523C12.8278 11.907 12.8278 11.2156 13.2497 10.782C13.695 10.3367 14.3747 10.3367 14.82 10.782C15.2536 11.2156 15.2653 11.8953 14.8083 12.3523C14.3864 12.7625 13.6833 12.7625 13.2731 12.3523ZM17.2926 14.825C16.8591 15.2469 16.1676 15.2469 15.7223 14.8015C15.3122 14.3914 15.3122 13.6883 15.7223 13.2664C16.1794 12.8094 16.8591 12.8211 17.2926 13.2547C17.738 13.7 17.738 14.3797 17.2926 14.825ZM13.2497 17.2859C12.8278 16.864 12.8044 16.1844 13.2731 15.7273C13.695 15.2937 14.3864 15.3055 14.8083 15.7273C15.2536 16.1609 15.2653 16.864 14.82 17.2859C14.363 17.7312 13.695 17.7312 13.2497 17.2859ZM22.2145 14.3211L24.1012 12.2703C26.6559 9.49295 26.7262 6.2117 24.3122 3.7742C21.8864 1.32499 18.57 1.43045 15.8044 3.97342L13.7653 5.86014C14.7731 5.56717 15.863 5.80155 17.0114 6.94999L21.277 11.2156C22.4255 12.3523 22.5075 13.3015 22.2145 14.3211Z" fill="black" fill-opacity="0.85"/>
</g>
<defs>
<clipPath id="clip0_2124_67761">
<rect width="24.0715" height="24.0914" fill="white" transform="translate(2 2)"/>
</clipPath>
</defs>
</svg>
