<svg width="28" height="28" viewBox="0 0 28 28" fill="none" xmlns="http://www.w3.org/2000/svg">
<path d="M6.67969 24.5977H20.8945C23.3555 24.5977 24.5742 23.3789 24.5742 20.9648V6.65625C24.5742 4.24219 23.3555 3.02344 20.8945 3.02344H6.67969C4.23047 3.02344 3 4.23047 3 6.65625V20.9648C3 23.3906 4.23047 24.5977 6.67969 24.5977ZM6.70312 22.7109C5.53125 22.7109 4.88672 22.0898 4.88672 20.8711V6.75C4.88672 5.53125 5.53125 4.91016 6.70312 4.91016H20.8711C22.0312 4.91016 22.6875 5.53125 22.6875 6.75V20.8711C22.6875 22.0898 22.0312 22.7109 20.8711 22.7109H6.70312Z" fill="black" fill-opacity="0.85"/>
<path d="M7.04297 14.8008C7.04297 15.2344 7.41797 15.6094 7.83984 15.5977L11.9648 15.5508C12.1758 15.5391 12.3867 15.457 12.5039 15.3164C12.8203 15.0117 12.8203 14.5781 12.5156 14.2734C12.3633 14.1211 12.1758 14.0508 11.9766 14.0508L10.2422 14.0742L9.57422 14.0977L9.99609 13.7227L15.3633 8.34375C15.668 8.03906 15.6797 7.58203 15.3633 7.26562C15.0703 6.96094 14.6016 6.96094 14.2852 7.26562L8.91797 12.6445L8.54297 13.043L8.57812 12.4102L8.60156 10.6641C8.61328 10.4648 8.51953 10.2656 8.37891 10.125C8.0625 9.80859 7.61719 9.80859 7.3125 10.125C7.18359 10.2656 7.08984 10.4883 7.08984 10.6875L7.04297 14.8008ZM20.5547 12.7969C20.5547 12.3516 20.2031 12.0234 19.7695 12.0234L15.6445 12.0586C15.457 12.0586 15.2344 12.1523 15.1055 12.2812C14.7891 12.6094 14.7891 13.043 15.0938 13.3477C15.2461 13.4883 15.4336 13.5703 15.6211 13.5703L17.3789 13.5352L18.0469 13.5117L17.625 13.875L12.2461 19.2656C11.9297 19.5703 11.9297 20.0156 12.2461 20.332C12.5508 20.6367 13.0078 20.6484 13.3125 20.332L18.6914 14.9648L19.0898 14.543L19.043 15.1992L19.0195 16.9453C19.0195 17.1445 19.0898 17.332 19.2305 17.4844C19.5352 17.7891 19.9922 17.7891 20.3086 17.4844C20.4258 17.3555 20.4961 17.1445 20.5078 16.9336L20.5547 12.7969Z" fill="black" fill-opacity="0.85"/>
</svg>
