<svg width="28" height="28" viewBox="0 0 28 28" fill="none" xmlns="http://www.w3.org/2000/svg">
<path d="M7 25.5547C7 26.0469 7.38672 26.4453 7.90234 26.4453C14.9336 26.4453 20.4414 21.6641 20.4414 14.2227C20.4414 10.9414 17.7344 8.23438 14.4648 8.23438C13.2695 8.23438 12.1562 8.63281 11.2773 9.30078C12.9883 5.83203 16.6445 3.76953 21.0273 3.76953C21.543 3.76953 21.9297 3.37109 21.9297 2.87891C21.9297 2.38672 21.543 2 21.0273 2C13.9961 2 8.5 6.76953 8.5 14.2227C8.5 17.4922 11.207 20.1992 14.4648 20.1992C15.6719 20.1992 16.7734 19.8008 17.6523 19.1445C15.9414 22.6133 12.2734 24.6758 7.90234 24.6758C7.38672 24.6758 7 25.0625 7 25.5547ZM12.7656 14.2227C12.7656 13.2852 13.5391 12.5234 14.4648 12.5234C15.4023 12.5234 16.1641 13.2852 16.1641 14.2227C16.1641 15.1367 15.4023 15.9219 14.4648 15.9219C13.5391 15.9219 12.7656 15.1484 12.7656 14.2227Z" fill="black" fill-opacity="0.85"/>
</svg>
