<svg width="28" height="28" viewBox="0 0 28 28" fill="none" xmlns="http://www.w3.org/2000/svg">
<g clip-path="url(#clip0_2124_88681)">
<path d="M2.32715 20.3682C2.32715 21.2237 2.99512 21.7862 4.09668 21.7862H9.04199C9.13574 24.0479 10.9053 26.0283 13.3896 26.0283C15.8623 26.0283 17.6318 24.0596 17.7256 21.7862H22.6709C23.7842 21.7862 24.4404 21.2237 24.4404 20.3682C24.4404 19.1963 23.2568 18.1416 22.2373 17.0987C21.4639 16.2901 21.2529 14.626 21.1709 13.2783C21.0771 8.66113 19.8936 5.68457 16.7764 4.55957C16.3779 3.02441 15.1123 1.81738 13.3896 1.81738C11.6553 1.81738 10.4014 3.02441 10.0029 4.55957C6.88574 5.68457 5.69043 8.66113 5.6084 13.2783C5.51465 14.626 5.31543 16.2901 4.54199 17.0987C3.52246 18.1416 2.32715 19.1963 2.32715 20.3682ZM4.6123 20.0166V19.876C4.82324 19.5362 5.51465 18.8448 6.13574 18.1651C6.96777 17.2276 7.37793 15.7158 7.47168 13.4307C7.56543 8.30957 9.08887 6.68066 11.1045 6.12988C11.3975 6.05957 11.5498 5.91894 11.5615 5.61426C11.6084 4.39551 12.2998 3.54004 13.3896 3.54004C14.4678 3.54004 15.1709 4.39551 15.2061 5.61426C15.2178 5.91894 15.3818 6.05957 15.6748 6.12988C17.6787 6.68066 19.2021 8.30957 19.3076 13.4307C19.4014 15.7158 19.7998 17.2276 20.6436 18.1651C21.2529 18.8448 21.9561 19.5362 22.167 19.876V20.0166H4.6123ZM10.8701 21.7862H15.8975C15.8154 23.3799 14.7959 24.376 13.3896 24.376C11.9717 24.376 10.9639 23.3799 10.8701 21.7862Z" fill="black" fill-opacity="0.85"/>
<path d="M1.65918 5.16895L22.7061 26.1924C23.6084 27.083 25.0615 27.083 25.9404 26.169C26.8076 25.2783 26.7959 23.8604 25.9287 22.9815L4.88184 1.9463C4.00293 1.06739 2.56152 1.05567 1.65918 1.9463C0.780273 2.8252 0.780273 4.29005 1.65918 5.16895Z" fill="white"/>
<path d="M2.63184 4.19629L23.6787 25.2198C24.0303 25.583 24.6162 25.583 24.9561 25.2198C25.3076 24.8682 25.3076 24.3057 24.9561 23.9424L3.9209 2.91894C3.56934 2.56738 2.99512 2.56738 2.63184 2.91894C2.29199 3.25879 2.29199 3.85644 2.63184 4.19629Z" fill="black" fill-opacity="0.85"/>
</g>
<defs>
<clipPath id="clip0_2124_88681">
<rect width="25.585" height="25.8575" fill="white" transform="translate(1 1)"/>
</clipPath>
</defs>
</svg>
