<svg width="29" height="29" viewBox="0 0 29 29" fill="none" xmlns="http://www.w3.org/2000/svg">
<g clip-path="url(#clip0_2124_45983)">
<path d="M13.9707 25.9077C20.5098 25.9077 25.9238 20.482 25.9238 13.9546C25.9238 7.41552 20.4981 2.00146 13.959 2.00146C7.43164 2.00146 2.01758 7.41552 2.01758 13.9546C2.01758 20.482 7.44336 25.9077 13.9707 25.9077ZM13.9707 23.9156C8.43946 23.9156 4.02149 19.4859 4.02149 13.9546C4.02149 8.42335 8.42774 3.99365 13.959 3.99365C19.4903 3.99365 23.9317 8.42335 23.9317 13.9546C23.9317 19.4859 19.502 23.9156 13.9707 23.9156Z" fill="black" fill-opacity="0.85"/>
<path d="M13.959 18.9117C18.6114 18.9117 21.8457 15.1382 21.8457 13.9663C21.8457 12.7827 18.5996 9.00928 13.959 9.00928C9.31836 9.00928 6.06055 12.7827 6.06055 13.9663C6.06055 15.1382 9.35352 18.9117 13.959 18.9117ZM13.959 17.2007C12.1543 17.2007 10.7129 15.7242 10.7129 13.9663C10.7012 12.1499 12.1543 10.7202 13.959 10.7202C15.752 10.7202 17.2051 12.1499 17.2051 13.9663C17.2051 15.7242 15.752 17.2007 13.959 17.2007Z" fill="black" fill-opacity="0.85"/>
<path d="M18.6699 20.5757C19.209 21.1031 20.0762 21.1148 20.5918 20.5757C21.1426 20.0367 21.1309 19.2046 20.5918 18.6656L9.24805 7.32178C8.70899 6.78272 7.85352 6.78272 7.32617 7.32178C6.78711 7.84913 6.78711 8.71631 7.32617 9.24366L18.6699 20.5757Z" fill="white"/>
<path d="M19.2554 20.0015C19.4546 20.2007 19.8062 20.2007 20.0054 20.0015C20.2163 19.7788 20.2163 19.4624 20.0054 19.2515L8.67337 7.90772C8.46243 7.69678 8.12259 7.69678 7.91165 7.90772C7.70071 8.10694 7.71243 8.4585 7.91165 8.65772L19.2554 20.0015Z" fill="black" fill-opacity="0.85"/>
</g>
<defs>
<clipPath id="clip0_2124_45983">
<rect width="23.9062" height="23.918" fill="white" transform="translate(2.01758 2.00146)"/>
</clipPath>
</defs>
</svg>
