<svg width="28" height="28" viewBox="0 0 28 28" fill="none" xmlns="http://www.w3.org/2000/svg">
<path d="M6.67969 24.5977H20.8945C23.3555 24.5977 24.5742 23.3789 24.5742 20.9648V6.65625C24.5742 4.24219 23.3555 3.02344 20.8945 3.02344H6.67969C4.23047 3.02344 3 4.23047 3 6.65625V20.9648C3 23.3906 4.23047 24.5977 6.67969 24.5977Z" fill="black" fill-opacity="0.85"/>
<path d="M11.9648 18.832C11.5781 18.832 11.1211 18.6094 11.1211 17.9766V16.7695H8.42578C7.82812 16.7695 7.42969 16.3711 7.42969 15.7852C7.42969 15.4102 7.48828 15.0938 7.69922 14.625L9.85547 9.9375C10.1953 9.1875 10.5937 8.75391 11.4375 8.75391C12.2461 8.75391 12.7852 9.22266 12.7852 10.0664V15.3633H13.2188C13.7109 15.3633 13.8984 15.668 13.8984 16.0547C13.8984 16.4648 13.6875 16.7695 13.2188 16.7695H12.7852V17.9766C12.7852 18.5508 12.4102 18.832 11.9648 18.832ZM11.1562 15.3984V10.2773H11.1094L8.91797 15.3164V15.3984H11.1562ZM17.8477 18.8086C17.3438 18.8086 16.9453 18.4102 16.9453 17.918V10.5937L15.832 11.4844C15.7148 11.5781 15.5977 11.6367 15.4102 11.6367C15.0352 11.6367 14.7773 11.3672 14.7773 10.9922C14.7773 10.6758 14.9531 10.4414 15.1641 10.2773L16.5 9.24609C16.7695 9.03516 17.1914 8.75391 17.6953 8.75391C18.3281 8.75391 18.7148 9.11719 18.7148 9.73828V17.918C18.7148 18.4102 18.3164 18.8086 17.8477 18.8086Z" fill="white"/>
</svg>
