<svg width="28" height="28" viewBox="0 0 28 28" fill="none" xmlns="http://www.w3.org/2000/svg">
<path d="M6.67969 24.5977H20.8945C23.3555 24.5977 24.5742 23.3789 24.5742 20.9648V6.65625C24.5742 4.24219 23.3555 3.02344 20.8945 3.02344H6.67969C4.23047 3.02344 3 4.23047 3 6.65625V20.9648C3 23.3906 4.23047 24.5977 6.67969 24.5977Z" fill="black" fill-opacity="0.85"/>
<path d="M13.7695 19.5469C11.2031 19.5469 9.49219 18.2461 9.49219 16.2891C9.49219 14.9414 10.4648 13.8164 11.9297 13.5234V13.4531C10.6992 13.0781 9.96094 12.1406 9.96094 10.9805C9.96094 9.23438 11.543 8.03906 13.793 8.03906C16.043 8.03906 17.625 9.23438 17.625 10.9805C17.625 12.1406 16.875 13.1016 15.668 13.4531V13.5234C17.1094 13.8164 18.1055 14.9297 18.1055 16.2773C18.1055 18.2227 16.3477 19.5469 13.7695 19.5469ZM13.8047 18.2109C15.2227 18.2109 16.2656 17.3672 16.2656 16.1836C16.2656 15.0234 15.2578 14.1797 13.8047 14.1797C12.3984 14.1797 11.3437 15.0352 11.3437 16.1836C11.3437 17.3672 12.3867 18.2109 13.8047 18.2109ZM13.793 12.9023C15 12.9023 15.8555 12.1641 15.8555 11.1211C15.8555 10.1133 15 9.38672 13.793 9.38672C12.5859 9.38672 11.7422 10.1133 11.7422 11.1211C11.7422 12.1641 12.5977 12.9023 13.793 12.9023Z" fill="white"/>
</svg>
