<svg width="28" height="28" viewBox="0 0 28 28" fill="none" xmlns="http://www.w3.org/2000/svg">
<path d="M13.9531 25.9062C20.4922 25.9062 25.9062 20.4805 25.9062 13.9531C25.9062 7.41406 20.4805 2 13.9414 2C7.41406 2 2 7.41406 2 13.9531C2 20.4805 7.42578 25.9062 13.9531 25.9062ZM13.9531 23.9141C8.42188 23.9141 4.00391 19.4844 4.00391 13.9531C4.00391 8.42188 8.41016 3.99219 13.9414 3.99219C19.4727 3.99219 23.9141 8.42188 23.9141 13.9531C23.9141 19.4844 19.4844 23.9141 13.9531 23.9141Z" fill="black" fill-opacity="0.85"/>
<path d="M10.2617 11.0469C9.74609 11.0469 9.39453 11.4336 9.39453 11.9844V17.5156C9.39453 18.207 9.78125 18.4766 10.3789 18.4766H15.9336C16.4844 18.4766 16.8359 18.1367 16.8359 17.6211C16.8359 17.1055 16.4727 16.7656 15.9102 16.7656H13.7773L12.043 16.9531L13.8711 15.2422L18.1953 10.9297C18.3594 10.7656 18.4766 10.5312 18.4766 10.2969C18.4766 9.76953 18.125 9.42969 17.6094 9.42969C17.3281 9.42969 17.1055 9.53516 16.9414 9.69922L12.6289 14.0117L10.9414 15.8164L11.1172 13.9883V11.9609C11.1172 11.3984 10.7773 11.0469 10.2617 11.0469Z" fill="black" fill-opacity="0.85"/>
</svg>
