<svg width="29" height="29" viewBox="0 0 29 29" fill="none" xmlns="http://www.w3.org/2000/svg">
<g clip-path="url(#clip0_2124_46042)">
<path d="M26.8828 15.4229C26.8828 11.0753 24.5508 8.05188 19.9336 6.41126L13.8398 4.24329C13.418 4.09095 12.9258 4.00892 12.5625 4.02064C11.2031 4.02064 10.4414 5.07532 10.4414 6.27063C10.4531 7.14954 10.957 7.86438 11.9062 8.27454L13.8867 9.09485C13.9336 9.10657 13.957 9.15345 13.957 9.20032C13.957 9.27063 13.9219 9.29407 13.8633 9.29407H3.59765C2.02734 9.29407 1.00781 10.3253 1.00781 11.7902C1.00781 13.255 2.02734 14.2862 3.59765 14.2862H7.6875C7.60547 14.5792 7.55859 14.8722 7.55859 15.1534C7.55859 16.2198 8.16797 17.0401 9.15234 17.3565C9.04687 17.6964 8.97656 18.0597 8.97656 18.4347C8.97656 19.4542 9.52734 20.2042 10.4297 20.4854C10.4531 22.7706 12.1172 24.1183 14.9531 24.1183H17.6367C23.3906 24.1183 26.8828 20.6261 26.8828 15.4229ZM25.1953 15.4933C25.1953 19.8409 22.3945 22.4894 17.4375 22.4894H15.1992C13.2422 22.4894 12.1172 21.8683 12.1172 20.7667H13.5234C13.9687 20.7667 14.2851 20.4151 14.2851 20.005C14.2851 19.5948 13.9687 19.2081 13.5234 19.2081H11.6016C10.9688 19.2081 10.5703 18.8448 10.5703 18.2237C10.5703 17.9894 10.6289 17.6964 10.7344 17.4854H13.0547C13.5117 17.4854 13.8164 17.1222 13.8164 16.712C13.8164 16.3019 13.5117 15.9386 13.0547 15.9386H10.1953C9.55078 15.9386 9.14062 15.5519 9.14062 14.9425C9.14062 14.7081 9.21093 14.4151 9.30469 14.2159H12.5859C13.0078 14.2159 13.3476 13.8527 13.3476 13.4425C13.3476 13.0089 13.0078 12.6456 12.5859 12.6456H3.48047C2.96484 12.6456 2.58984 12.3058 2.58984 11.7902C2.58984 11.2863 2.96484 10.9347 3.48047 10.9347H16.2422C16.793 10.9347 17.2031 10.5714 17.2031 10.0558C17.2031 9.6222 17.0039 9.23548 16.3945 8.95423L12.6445 7.29017C12.2344 7.11438 11.9766 6.86829 11.9766 6.44642C11.9766 5.95423 12.3398 5.63782 12.7734 5.63782C12.9844 5.63782 13.1484 5.66126 13.3242 5.73157L19.4062 7.91126C23.6016 9.41126 25.1953 12.048 25.1953 15.4933Z" fill="black" fill-opacity="0.85"/>
</g>
<defs>
<clipPath id="clip0_2124_46042">
<rect width="25.875" height="20.1702" fill="white" transform="translate(1.00781 4.01953)"/>
</clipPath>
</defs>
</svg>
