<svg width="28" height="28" viewBox="0 0 28 28" fill="none" xmlns="http://www.w3.org/2000/svg">
<path d="M13.9531 25.918C20.4922 25.918 25.9062 20.5039 25.9062 13.9648C25.9062 7.4375 20.4805 2.01172 13.9414 2.01172C7.41406 2.01172 2 7.4375 2 13.9648C2 20.5039 7.42578 25.918 13.9531 25.918Z" fill="black" fill-opacity="0.85"/>
<path d="M12.8398 19.1797C12.5234 19.1797 12.2773 19.0391 11.9727 18.7578L6.82812 13.9297C6.58203 13.6953 6.5 13.4609 6.5 13.2266C6.5 13.0039 6.58203 12.7695 6.82812 12.5352L11.9727 7.74219C12.3125 7.41406 12.5117 7.28516 12.8281 7.28516C13.2852 7.28516 13.6133 7.63672 13.6133 8.07031V10.5312H13.8008C18.4531 10.5312 20.5039 13.5078 20.5039 18.3242C20.5039 18.8867 20.1641 19.1797 19.8242 19.1797C19.543 19.1797 19.25 19.1094 19.0273 18.6992C17.9023 16.5781 16.3086 15.9336 13.8008 15.9336H13.6133V18.4297C13.6133 18.8516 13.2852 19.1797 12.8398 19.1797Z" fill="white"/>
</svg>
