<svg width="28" height="28" viewBox="0 0 28 28" fill="none" xmlns="http://www.w3.org/2000/svg">
<path d="M11.5156 15.9922L10.2148 22.1445C10.0156 23.1055 8.50391 22.8828 8.73828 21.7812L10.0742 15.4766C10.1797 14.9258 10.6367 14.5156 11.1641 14.4805H11.2461L13.1914 8.63281C13.4492 7.85938 14.4688 7.87109 14.7266 8.63281L16.6719 14.4805H16.7539C17.293 14.5156 17.7383 14.9258 17.8438 15.4883L19.1914 21.7812C19.4141 22.8828 17.9023 23.1055 17.7148 22.1445L16.4141 15.9922H11.5156ZM13.9531 25.9062C20.4922 25.9062 25.9062 20.4805 25.9062 13.9531C25.9062 7.41406 20.4805 2 13.9414 2C7.41406 2 2 7.41406 2 13.9531C2 20.4805 7.42578 25.9062 13.9531 25.9062Z" fill="black" fill-opacity="0.85"/>
</svg>
