<svg width="28" height="28" viewBox="0 0 28 28" fill="none" xmlns="http://www.w3.org/2000/svg">
<path d="M6.67969 24.5977H20.8945C23.3555 24.5977 24.5742 23.3789 24.5742 20.9648V6.65625C24.5742 4.24219 23.3555 3.02344 20.8945 3.02344H6.67969C4.23047 3.02344 3 4.23047 3 6.65625V20.9648C3 23.3906 4.23047 24.5977 6.67969 24.5977ZM6.70312 22.7109C5.53125 22.7109 4.88672 22.0898 4.88672 20.8711V6.75C4.88672 5.53125 5.53125 4.91016 6.70312 4.91016H20.8711C22.0312 4.91016 22.6875 5.53125 22.6875 6.75V20.8711C22.6875 22.0898 22.0312 22.7109 20.8711 22.7109H6.70312Z" fill="black" fill-opacity="0.85"/>
<path d="M8.54297 18.5273H12.6094C13.0195 18.5273 13.2656 18.2578 13.2656 17.8477C13.2656 17.4023 13.0078 17.1562 12.6094 17.1562H9.82031V17.0625L11.5313 14.8945C12.7031 13.4414 13.0898 12.5742 13.0898 11.543C13.0898 9.96094 12.0117 8.8125 10.3945 8.8125C8.89453 8.8125 7.75781 10.0547 7.75781 11.2734C7.75781 11.707 8.01562 12.0117 8.46094 12.0117C8.84766 12.0117 9.08203 11.8359 9.21094 11.4492C9.43359 10.6641 9.71484 10.1719 10.3945 10.1719C11.0977 10.1719 11.4961 10.793 11.4961 11.625C11.4961 12.5625 10.8398 13.5117 10.2188 14.3086L8.17969 16.9102C7.96875 17.1914 7.74609 17.4844 7.74609 17.8477C7.74609 18.2461 8.00391 18.5273 8.54297 18.5273ZM15.2578 18.5273H19.3242C19.7344 18.5273 19.9922 18.2578 19.9922 17.8477C19.9922 17.4023 19.7227 17.1562 19.3242 17.1562H16.5352V17.0625L18.2461 14.8945C19.4297 13.4414 19.8047 12.5742 19.8047 11.543C19.8047 9.96094 18.7383 8.8125 17.1211 8.8125C15.6211 8.8125 14.4844 10.0547 14.4844 11.2734C14.4844 11.707 14.7305 12.0117 15.1758 12.0117C15.5625 12.0117 15.8086 11.8359 15.9258 11.4492C16.1484 10.6641 16.4414 10.1719 17.1094 10.1719C17.8125 10.1719 18.2109 10.793 18.2109 11.625C18.2109 12.5625 17.5547 13.5117 16.9336 14.3086L14.9062 16.9102C14.6836 17.1914 14.4609 17.4844 14.4609 17.8477C14.4609 18.2461 14.7188 18.5273 15.2578 18.5273Z" fill="black" fill-opacity="0.85"/>
</svg>
