<svg width="28" height="30" viewBox="0 0 28 30" fill="none" xmlns="http://www.w3.org/2000/svg">
<g clip-path="url(#clip0_2124_50239)">
<path d="M2 8.03906H22.332V4.95703C22.332 3.28125 21.2422 2.15625 19.625 2.15625H4.71875C3.08984 2.15625 2 3.28125 2 4.95703V8.03906ZM6.24219 6.73828C5.65625 6.73828 5.17578 6.24609 5.17578 5.67188C5.17578 5.07422 5.65625 4.59375 6.24219 4.59375C6.82812 4.59375 7.29688 5.07422 7.29688 5.67188C7.29688 6.24609 6.82812 6.73828 6.24219 6.73828ZM9.32422 6.73828C8.73828 6.73828 8.26953 6.24609 8.26953 5.67188C8.26953 5.07422 8.73828 4.59375 9.32422 4.59375C9.91016 4.59375 10.3789 5.07422 10.3789 5.67188C10.3789 6.24609 9.91016 6.73828 9.32422 6.73828ZM2 22.2188H22.332V9.63281H2V22.2188ZM9.3125 12.5156C8.94922 12.5156 8.70312 12.2578 8.70312 11.8945C8.70312 11.5312 8.94922 11.2852 9.3125 11.2852H15.0312C15.3945 11.2852 15.6289 11.5312 15.6289 11.8945C15.6289 12.2578 15.3945 12.5156 15.0312 12.5156H9.3125ZM4.71875 26.7656H19.625C21.2422 26.7656 22.332 25.6523 22.332 23.9766V23.8125H2V23.9766C2 25.6523 3.08984 26.7656 4.71875 26.7656Z" fill="black" fill-opacity="0.85"/>
<path d="M16.2617 29.1445C20.0938 29.1445 23.1992 26.0508 23.1992 22.207C23.1992 18.3516 20.0938 15.2695 16.2617 15.2695C12.4062 15.2695 9.32422 18.3516 9.32422 22.207C9.32422 26.0508 12.4062 29.1445 16.2617 29.1445ZM18.6641 29.1445C22.5078 29.1445 25.6016 26.0508 25.6016 22.207C25.6016 18.3516 22.5078 15.2695 18.6641 15.2695C14.8203 15.2695 11.7266 18.3516 11.7266 22.207C11.7266 26.0508 14.8203 29.1445 18.6641 29.1445Z" fill="white"/>
<path d="M18.6641 27.7734C21.7578 27.7734 24.2422 25.3008 24.2422 22.207C24.2422 19.1016 21.7578 16.6289 18.6641 16.6289C15.5703 16.6289 13.0977 19.1016 13.0977 22.207C13.0977 25.3008 15.5703 27.7734 18.6641 27.7734ZM18.6641 26.5898C16.1562 26.5898 14.2812 24.7031 14.2812 22.207C14.2812 19.6992 16.1562 17.8125 18.6641 17.8125C21.1719 17.8125 23.0586 19.6992 23.0586 22.207C23.0586 24.7031 21.1719 26.5898 18.6641 26.5898Z" fill="black" fill-opacity="0.85"/>
<path d="M16.2617 27.7734C19.3438 27.7734 21.8281 25.3008 21.8281 22.207C21.8281 19.1016 19.3438 16.6289 16.2617 16.6289C13.168 16.6289 10.6836 19.1016 10.6836 22.207C10.6836 25.3008 13.168 27.7734 16.2617 27.7734Z" fill="white"/>
<path d="M16.2617 27.7734C19.3438 27.7734 21.8281 25.3008 21.8281 22.207C21.8281 19.1016 19.3438 16.6289 16.2617 16.6289C13.168 16.6289 10.6836 19.1016 10.6836 22.207C10.6836 25.3008 13.168 27.7734 16.2617 27.7734ZM16.2617 26.5898C13.7422 26.5898 11.8672 24.7031 11.8672 22.207C11.8672 19.6992 13.7422 17.8125 16.2617 17.8125C18.7578 17.8125 20.6445 19.6992 20.6445 22.207C20.6445 24.7031 18.7578 26.5898 16.2617 26.5898ZM16.2617 25.7109C18.1836 25.7109 19.7656 24.1406 19.7656 22.207C19.7656 20.2734 18.1836 18.7031 16.2617 18.7031C14.3164 18.7031 12.7461 20.2734 12.7461 22.207C12.7461 24.1406 14.3164 25.7109 16.2617 25.7109ZM16.2617 24.6445C14.832 24.6445 13.8125 23.625 13.8125 22.207C13.8125 20.7773 14.832 19.7695 16.2617 19.7695C17.6914 19.7695 18.6992 20.7773 18.6992 22.207C18.6992 23.6367 17.6797 24.6445 16.2617 24.6445Z" fill="black" fill-opacity="0.85"/>
</g>
<defs>
<clipPath id="clip0_2124_50239">
<rect width="23.6016" height="29.1445" fill="white" transform="translate(2)"/>
</clipPath>
</defs>
</svg>
