<svg width="28" height="28" viewBox="0 0 28 28" fill="none" xmlns="http://www.w3.org/2000/svg">
<path d="M13.9531 25.9062C20.4922 25.9062 25.9062 20.4805 25.9062 13.9531C25.9062 7.41406 20.4805 2 13.9414 2C7.41406 2 2 7.41406 2 13.9531C2 20.4805 7.42578 25.9062 13.9531 25.9062Z" fill="black" fill-opacity="0.85"/>
<path d="M15.5352 19.4609C14.9727 19.4609 14.6445 19.0742 14.6445 18.4414V17.2109H10.3086C9.53516 17.2109 9.05469 16.7422 9.05469 16.0273C9.05469 15.6641 9.13672 15.3711 9.38281 14.9609C10.3789 13.332 11.8672 11.1289 13.1211 9.23047C13.6016 8.50391 14.1406 8.19922 14.9844 8.19922C15.8516 8.19922 16.4375 8.71484 16.4375 9.47656V15.6172H17.3633C17.8438 15.6172 18.1602 15.9453 18.1602 16.4258C18.1602 16.8945 17.832 17.2109 17.3633 17.2109H16.4375V18.4414C16.4375 19.0859 16.1094 19.4609 15.5352 19.4609ZM14.6445 15.6172V9.76953H14.5625C13.2969 11.6797 11.7617 13.9648 10.8359 15.5469V15.6172H14.6445Z" fill="white"/>
</svg>
