<svg width="28" height="28" viewBox="0 0 28 28" fill="none" xmlns="http://www.w3.org/2000/svg">
<path d="M4 22.457C4 24.9062 5.20703 26.125 7.63281 26.125H20.0781C22.5039 26.125 23.7109 24.9062 23.7109 22.457V4.67969C23.7109 2.24219 22.5039 1 20.0781 1H7.63281C5.20703 1 4 2.24219 4 4.67969V22.457Z" fill="black" fill-opacity="0.85"/>
<path d="M12.5547 19.293C12.1445 19.293 11.8281 19.1289 11.5117 18.7188L8.57031 15.1211C8.39453 14.8867 8.30078 14.6172 8.30078 14.3594C8.30078 13.8203 8.69922 13.3867 9.23828 13.3867C9.56641 13.3867 9.83594 13.5039 10.1172 13.8906L12.4961 16.9492L17.5117 8.92188C17.7227 8.55859 18.0273 8.38281 18.3438 8.38281C18.8594 8.38281 19.3398 8.73438 19.3398 9.27344C19.3398 9.53125 19.1875 9.8125 19.0352 10.0469L13.5273 18.7188C13.293 19.1055 12.9531 19.293 12.5547 19.293Z" fill="white"/>
</svg>
