<svg width="28" height="28" viewBox="0 0 28 28" fill="none" xmlns="http://www.w3.org/2000/svg">
<g clip-path="url(#clip0_2124_49969)">
<path d="M13.9531 25.9062C20.4922 25.9062 25.9062 20.4805 25.9062 13.9531C25.9062 7.41406 20.4805 2 13.9414 2C7.41406 2 2 7.41406 2 13.9531C2 20.4805 7.42578 25.9062 13.9531 25.9062ZM13.9531 23.9141C8.42188 23.9141 4.00391 19.4844 4.00391 13.9531C4.00391 8.42188 8.41016 3.99219 13.9414 3.99219C19.4727 3.99219 23.9141 8.42188 23.9141 13.9531C23.9141 19.4844 19.4844 23.9141 13.9531 23.9141Z" fill="black" fill-opacity="0.85"/>
<path d="M8.50391 18.5117C8.50391 19.3555 9.01953 19.8594 9.89844 19.8594H18.0078C18.8867 19.8594 19.3906 19.3555 19.3906 18.5117V13.625L14.3164 9.35938C14.082 9.16016 13.8125 9.17188 13.5781 9.35938L8.50391 13.6133V18.5117ZM15.5469 18.6875H12.3594V14.7734C12.3594 14.4922 12.5469 14.3047 12.8398 14.3047H15.0664C15.3711 14.3047 15.5469 14.4922 15.5469 14.7734V18.6875ZM6.54688 12.9922C6.54688 13.2617 6.7578 13.5312 7.10938 13.5312C7.29688 13.5312 7.4375 13.4258 7.56641 13.3086L13.6719 8.19922C13.8711 8.02344 14.0469 8.04688 14.2344 8.19922L20.3281 13.3086C20.4805 13.4258 20.6094 13.5312 20.7852 13.5312C21.0898 13.5312 21.3477 13.3203 21.3477 13.0156C21.3477 12.8164 21.2891 12.6875 21.1484 12.5586L14.7969 7.22656C14.2812 6.79297 13.625 6.79297 13.1211 7.22656L6.74609 12.5586C6.61719 12.6875 6.54688 12.8398 6.54688 12.9922ZM17.8438 10.2031L19.3906 11.5156V8.65625C19.3906 8.39844 19.2266 8.21094 18.957 8.21094H18.2891C18.0312 8.21094 17.8438 8.39844 17.8438 8.65625V10.2031Z" fill="black" fill-opacity="0.85"/>
</g>
<defs>
<clipPath id="clip0_2124_49969">
<rect width="23.9062" height="23.918" fill="white" transform="translate(2 2)"/>
</clipPath>
</defs>
</svg>
