<svg width="28" height="28" viewBox="0 0 28 28" fill="none" xmlns="http://www.w3.org/2000/svg">
<path d="M6.67969 24.5977H20.8945C23.3555 24.5977 24.5742 23.3789 24.5742 20.9648V6.65625C24.5742 4.24219 23.3555 3.02344 20.8945 3.02344H6.67969C4.23047 3.02344 3 4.23047 3 6.65625V20.9648C3 23.3906 4.23047 24.5977 6.67969 24.5977Z" fill="black" fill-opacity="0.85"/>
<path d="M13.8867 19.5469C12.4687 19.5469 11.1445 19.0312 10.3711 17.7422C9.85547 16.9336 9.5625 15.7266 9.5625 14.0625C9.5625 10.0313 11.332 8.03906 14.1914 8.03906C15.7617 8.03906 17.0742 8.82422 17.4492 9.71484C17.5195 9.89062 17.5664 10.0547 17.5664 10.2539C17.5664 10.6758 17.2383 10.9688 16.8281 10.9688C16.418 10.9688 16.1719 10.7578 15.7969 10.3711C15.4453 9.94922 14.9648 9.58594 14.1328 9.58594C12.4805 9.58594 11.3438 11.168 11.3438 13.6406C11.3438 13.6758 11.3438 13.7109 11.3438 13.7695C11.3672 13.7695 11.4141 13.7695 11.4375 13.7695C11.8359 12.8906 12.7734 12.0703 14.3906 12.0703C16.3008 12.0703 18.0352 13.3594 18.0352 15.6562C18.0352 18.1289 16.3242 19.5469 13.8867 19.5469ZM13.8164 18.0938C15.2227 18.0938 16.1367 17.1562 16.1367 15.7383C16.1367 14.3906 15.1875 13.4531 13.8164 13.4531C12.457 13.4531 11.4961 14.4023 11.4961 15.7266C11.4961 17.0977 12.4687 18.0938 13.8164 18.0938Z" fill="white"/>
</svg>
