<svg width="28" height="28" viewBox="0 0 28 28" fill="none" xmlns="http://www.w3.org/2000/svg">
<g clip-path="url(#clip0_2124_88843)">
<path d="M6.79174 10.7305H8.67846V9.05469C8.67846 6.125 11.0339 3.88672 14.1042 3.88672C17.1746 3.88672 19.53 6.125 19.53 9.05469V10.7305H21.4167V9.05469C21.4167 5.05859 18.2527 2 14.1042 2C9.96753 2 6.79174 5.05859 6.79174 9.05469V10.7305ZM5.91284 26.9141H22.2957C25.155 26.9141 26.5144 25.25 26.1511 22.2031L25.1433 13.5312C24.8972 11.4336 23.6316 10.2969 21.5925 10.2969H6.61596C4.5769 10.2969 3.32299 11.4336 3.0769 13.5312L2.05737 22.2031C1.69409 25.25 3.06518 26.9141 5.91284 26.9141ZM5.91284 25.0273C4.43628 25.0273 3.72143 24.1133 3.92065 22.4258L4.94018 13.7539C5.05737 12.7344 5.64331 12.1836 6.61596 12.1836H21.5925C22.5769 12.1836 23.1628 12.7344 23.28 13.7539L24.2878 22.4258C24.4871 24.1133 23.7722 25.0273 22.2957 25.0273H5.91284ZM13.0261 20.0938H15.1824C15.9792 20.0938 16.448 19.6484 16.448 18.8516V18.0078C19.5886 17.4805 22.5183 15.793 23.8074 12.5586L22.073 11.7734C20.8542 15.043 17.655 16.3203 14.1042 16.3203C10.5535 16.3203 7.35424 15.043 6.13549 11.7734L4.41284 12.5586C5.69018 15.793 8.61987 17.4805 11.7605 18.0078V18.8516C11.7605 19.6484 12.2292 20.0938 13.0261 20.0938Z" fill="black" fill-opacity="0.85"/>
</g>
<defs>
<clipPath id="clip0_2124_88843">
<rect width="24.2088" height="24.9258" fill="white" transform="translate(2 2)"/>
</clipPath>
</defs>
</svg>
