<svg width="28" height="28" viewBox="0 0 28 28" fill="none" xmlns="http://www.w3.org/2000/svg">
<path d="M6.67969 24.5742H20.8945C23.3555 24.5742 24.5742 23.3555 24.5742 20.9414V6.63281C24.5742 4.21875 23.3555 3 20.8945 3H6.67969C4.23047 3 3 4.20703 3 6.63281V20.9414C3 23.3672 4.23047 24.5742 6.67969 24.5742Z" fill="black" fill-opacity="0.85"/>
<path d="M19.7695 15.082C19.7695 17.8828 17.8711 19.7109 15.0469 19.7109H13.4648C12.9023 19.7109 12.5273 19.3594 12.5273 18.8438C12.5273 18.3164 12.8906 17.9648 13.4414 17.9648H15.0469C16.8164 17.9648 18.0234 16.8164 18.0234 15.082C18.0234 13.4883 16.8398 12.4102 15.0586 12.4102H11.6367L10.4297 12.3633L10.9805 12.75L12.3984 14.1211C12.5742 14.2969 12.6797 14.5078 12.6797 14.7656C12.6797 15.2695 12.293 15.668 11.8125 15.668C11.543 15.668 11.332 15.5742 11.168 15.4102L8.09766 12.2695C7.875 12.0469 7.78125 11.7891 7.78125 11.5312C7.78125 11.2734 7.88672 11.0039 8.09766 10.793L11.1562 7.6875C11.332 7.51172 11.5313 7.41797 11.8008 7.41797C12.3047 7.41797 12.6797 7.81641 12.6797 8.32031C12.6797 8.55469 12.5742 8.78906 12.3984 8.94141L11.2148 10.0898L10.418 10.7227L11.6367 10.6641H15.0586C17.8828 10.6641 19.7695 12.4336 19.7695 15.082Z" fill="white"/>
</svg>
