<svg width="28" height="28" viewBox="0 0 28 28" fill="none" xmlns="http://www.w3.org/2000/svg">
<path d="M6.67969 24.5977H20.8945C23.3555 24.5977 24.5742 23.3789 24.5742 20.9648V6.65625C24.5742 4.24219 23.3555 3.02344 20.8945 3.02344H6.67969C4.23047 3.02344 3 4.23047 3 6.65625V20.9648C3 23.3906 4.23047 24.5977 6.67969 24.5977ZM6.70312 22.7109C5.53125 22.7109 4.88672 22.0898 4.88672 20.8711V6.75C4.88672 5.53125 5.53125 4.91016 6.70312 4.91016H20.8711C22.0312 4.91016 22.6875 5.53125 22.6875 6.75V20.8711C22.6875 22.0898 22.0312 22.7109 20.8711 22.7109H6.70312Z" fill="black" fill-opacity="0.85"/>
<path d="M10.6992 18.6562C11.168 18.6562 11.5547 18.2695 11.5547 17.8008V9.85547C11.5547 9.25781 11.1797 8.90625 10.5703 8.90625C10.0781 8.90625 9.67969 9.17578 9.39844 9.38672L8.10938 10.3828C7.91016 10.5469 7.74609 10.7695 7.74609 11.0742C7.74609 11.4375 7.99219 11.6953 8.34375 11.6953C8.53125 11.6953 8.64844 11.6367 8.76562 11.5547L9.84375 10.6875V17.8008C9.84375 18.2695 10.2305 18.6562 10.6992 18.6562ZM16.4414 18.7734C18.7734 18.7734 19.4766 16.1484 19.4766 13.793C19.4766 11.4375 18.7734 8.8125 16.4414 8.8125C14.1094 8.8125 13.4062 11.4375 13.4062 13.793C13.4062 16.1484 14.1094 18.7734 16.4414 18.7734ZM16.4414 17.3789C15.4805 17.3789 15.1172 15.8203 15.1172 13.793C15.1172 11.7539 15.4805 10.1953 16.4414 10.1953C17.4023 10.1953 17.7656 11.7539 17.7656 13.793C17.7656 15.8203 17.4023 17.3789 16.4414 17.3789Z" fill="black" fill-opacity="0.85"/>
</svg>
