<svg width="29" height="29" viewBox="0 0 29 29" fill="none" xmlns="http://www.w3.org/2000/svg">
<g clip-path="url(#clip0_2124_46052)">
<path d="M22.9372 23.337C25.8552 20.419 26.324 16.7979 24.3201 12.5792L21.6833 7.02449C21.4958 6.63777 21.2732 6.32136 21.0271 6.07527C20.1482 5.19636 18.8708 5.24324 18.0271 6.08699C17.4529 6.66121 17.2771 7.51668 17.6521 8.44246L18.4372 10.3175C18.4607 10.3643 18.4607 10.4112 18.4255 10.4464C18.3786 10.4815 18.3318 10.4698 18.2849 10.4347L11.6404 3.79012C10.6794 2.81746 9.46069 2.81746 8.53491 3.74324C8.19506 4.07136 8.00756 4.50496 7.99585 4.95027C7.03491 4.21199 5.9685 4.23543 5.14819 5.05574C4.3396 5.86433 4.31616 6.9659 5.00756 7.9034C4.58569 7.9034 4.18725 8.0909 3.88256 8.39558C3.02709 9.25105 3.05053 10.4229 3.96459 11.337L4.89038 12.2628C4.43335 12.2511 3.97631 12.462 3.62475 12.8136C2.75756 13.6808 2.80444 14.9112 3.73022 15.837L10.8552 22.962C14.7341 26.8409 19.4333 26.8409 22.9372 23.337ZM21.7536 22.2354C18.824 25.1651 15.1443 25.0714 11.8162 21.7315L4.94897 14.8644C4.58569 14.5128 4.57397 14.0323 4.91381 13.6925C5.25366 13.3526 5.74585 13.3526 6.09741 13.7042L10.3396 17.9347C10.6443 18.2394 11.0896 18.2042 11.3591 17.9347C11.6521 17.6534 11.6872 17.1964 11.3826 16.8917L5.05444 10.5518C4.70288 10.2003 4.67944 9.73152 5.01928 9.39168C5.35913 9.04011 5.86303 9.04011 6.2146 9.39168L12.1208 15.3097C12.4255 15.6144 12.8826 15.5675 13.1521 15.2979C13.4333 15.0167 13.4802 14.5597 13.1755 14.255L6.23803 7.31746C5.88647 6.9659 5.86303 6.47371 6.2146 6.13386C6.54272 5.79402 7.04663 5.80574 7.39819 6.1573L14.3357 13.0948C14.6169 13.3878 15.074 13.3761 15.3552 13.0948C15.6482 12.8018 15.6716 12.3331 15.3904 12.0518L9.47241 6.13386C9.12085 5.7823 9.10913 5.30183 9.44897 4.95027C9.80053 4.61043 10.281 4.62215 10.6326 4.97371L18.7888 13.13C19.199 13.5519 19.6911 13.5401 20.031 13.2003C20.324 12.9073 20.4529 12.5206 20.2185 11.9112L18.7536 8.06746C18.5544 7.54011 18.7419 7.11824 19.1404 6.93074C19.5857 6.73152 19.9841 6.94246 20.2419 7.49324L22.9607 13.2354C24.7771 17.0792 24.0622 19.9151 21.7536 22.2354Z" fill="black" fill-opacity="0.85"/>
</g>
<defs>
<clipPath id="clip0_2124_46052">
<rect width="22.5357" height="22.8962" fill="white" transform="translate(3.00391 3.02368)"/>
</clipPath>
</defs>
</svg>
