<svg width="35" height="28" viewBox="0 0 35 28" fill="none" xmlns="http://www.w3.org/2000/svg">
<path d="M21.9258 19.9766C25.1016 19.9766 27.7148 17.3516 27.7148 14.1641C27.7148 10.9766 25.1016 8.35156 21.9258 8.35156C18.75 8.35156 16.125 10.9766 16.125 14.1641C16.125 17.3516 18.75 19.9766 21.9258 19.9766ZM21.9258 18.2539C19.6758 18.2539 17.8477 16.4258 17.8477 14.1641C17.8477 11.9141 19.6758 10.0859 21.9258 10.0859C24.1758 10.0859 25.9922 11.9141 25.9922 14.1641C25.9922 16.4258 24.1758 18.2539 21.9258 18.2539ZM21.9258 6.48828C22.4531 6.48828 22.9102 6.04297 22.9102 5.52734V2.97266C22.9102 2.45703 22.4531 2 21.9258 2C21.3984 2 20.9531 2.45703 20.9531 2.97266V5.52734C20.9531 6.04297 21.3984 6.48828 21.9258 6.48828ZM27.3398 8.76172C27.7148 9.125 28.3359 9.14844 28.7344 8.76172L30.5273 6.95703C30.9023 6.58203 30.9023 5.94922 30.5273 5.5625C30.1523 5.19922 29.5312 5.1875 29.1562 5.5625L27.3398 7.39062C26.9648 7.75391 26.9648 8.375 27.3398 8.76172ZM29.5781 14.1641C29.5781 14.7031 30.0352 15.1484 30.5508 15.1484H33.0938C33.6211 15.1484 34.0547 14.7031 34.0547 14.1641C34.0547 13.6484 33.6211 13.1914 33.0938 13.1914H30.5508C30.0352 13.1914 29.5781 13.6484 29.5781 14.1641ZM27.3398 19.5898C26.9648 19.9648 26.9648 20.5977 27.3398 20.9727L29.1562 22.7773C29.5312 23.1641 30.1523 23.1406 30.5273 22.7656C30.9023 22.4023 30.9023 21.7812 30.5273 21.3945L28.7227 19.5898C28.3359 19.2266 27.7148 19.2266 27.3398 19.5898ZM16.5117 19.5898C16.1367 19.2266 15.4922 19.2266 15.1172 19.5898L13.3242 21.3828C12.9375 21.7695 12.9492 22.3906 13.3125 22.7539C13.6875 23.1289 14.3203 23.1523 14.6836 22.7656L16.5 20.9727C16.875 20.5977 16.875 19.9648 16.5117 19.5898ZM14.2734 14.1641C14.2734 13.6484 13.8164 13.1914 13.2891 13.1914H10.7578C10.2305 13.1914 9.78516 13.6484 9.78516 14.1641C9.78516 14.7031 10.2305 15.1484 10.7578 15.1484H13.2891C13.8164 15.1484 14.2734 14.7031 14.2734 14.1641ZM16.5 8.76172C16.875 8.38672 16.875 7.74219 16.5117 7.39062L14.6953 5.5625C14.332 5.19922 13.7109 5.19922 13.3359 5.5625C12.9609 5.94922 12.9492 6.58203 13.3242 6.94531L15.1172 8.76172C15.4922 9.13672 16.125 9.125 16.5 8.76172Z" fill="black" fill-opacity="0.85"/>
<path d="M4.96875 25.6836H17.6484C21.0469 25.6836 23.6719 23.1289 23.6719 19.8125C23.6719 16.5312 21.0117 14.0586 17.4961 14.0117C16.125 11.4453 13.6758 9.86328 10.7812 9.86328C6.90234 9.86328 3.65625 12.8633 3.26953 16.7188C1.3125 17.3281 0 19.0156 0 21.1484C0 23.7969 1.98047 25.6836 4.96875 25.6836Z" fill="white"/>
<path d="M4.96875 25.6836H17.6484C21.0469 25.6836 23.6719 23.1289 23.6719 19.8125C23.6719 16.5312 21.0117 14.0586 17.4961 14.0117C16.125 11.4453 13.6758 9.86328 10.7812 9.86328C6.90234 9.86328 3.65625 12.8633 3.26953 16.7188C1.3125 17.3281 0 19.0156 0 21.1484C0 23.7969 1.98047 25.6836 4.96875 25.6836ZM4.92188 23.7969C2.92969 23.7969 1.88672 22.6602 1.88672 21.1953C1.88672 19.9648 2.60156 18.8633 4.32422 18.4062C4.89844 18.2539 5.09766 17.9961 5.14453 17.3984C5.42578 14.1172 7.86328 11.75 10.7812 11.75C13.0547 11.75 14.8125 13.0039 15.9141 15.1953C16.1602 15.6992 16.4531 15.8633 17.0508 15.8633C20.0742 15.8633 21.7852 17.6914 21.7852 19.8711C21.7852 22.0508 20.0039 23.7969 17.6836 23.7969H4.92188Z" fill="black" fill-opacity="0.85"/>
</svg>
