<svg width="28" height="29" viewBox="0 0 28 29" fill="none" xmlns="http://www.w3.org/2000/svg">
<g clip-path="url(#clip0_2124_24745)">
<path d="M4.64062 6.28125V22.3359C4.64062 25.9805 6.85547 28.6055 10.3359 28.6055C13.8164 28.6055 16.0312 25.9805 16.0312 22.3359V6.28125C16.0312 2.625 13.8164 0 10.3359 0C6.85547 0 4.64062 2.625 4.64062 6.28125ZM6.52734 22.3359V6.28125C6.52734 3.78516 8.01562 1.88672 10.3359 1.88672C12.6562 1.88672 14.1445 3.78516 14.1445 6.28125V22.3359C14.1445 24.832 12.6562 26.7188 10.3359 26.7188C8.01562 26.7188 6.52734 24.832 6.52734 22.3359ZM0 6.28125V22.3359C0 26.1562 2.54297 28.6055 6.51562 28.6055H10.3359V26.7188H6.51562C3.70312 26.7188 1.88672 25.0078 1.88672 22.3359V6.28125C1.88672 3.60938 3.70312 1.88672 6.51562 1.88672H10.3359V0H6.51562C2.54297 0 0 2.44922 0 6.28125Z" fill="black" fill-opacity="0.85"/>
<path d="M12.6797 16.0664L16.2188 19.207C17.8008 20.6484 20.25 19.6523 20.25 17.4375V16.7227H25.1836C26.5195 16.7227 27.5859 15.6445 27.5859 14.3203C27.5859 12.9727 26.5195 11.9062 25.1836 11.9062H20.25V11.168C20.25 9 17.8359 7.93359 16.2305 9.38672L12.6797 12.5391C11.5781 13.5234 11.5781 15.0703 12.6797 16.0664Z" fill="white"/>
<path d="M13.4883 15.1758L17.0391 18.3164C17.8477 19.043 19.043 18.5977 19.043 17.4375V15.5039H25.1836C25.8516 15.5039 26.3789 14.9766 26.3789 14.3203C26.3789 13.6406 25.8516 13.1133 25.1836 13.1133H19.043V11.168C19.043 10.043 17.8828 9.55077 17.0391 10.2773L13.4883 13.4297C12.9141 13.9219 12.9023 14.6719 13.4883 15.1758Z" fill="black" fill-opacity="0.85"/>
</g>
<defs>
<clipPath id="clip0_2124_24745">
<rect width="27.5859" height="28.6523" fill="white"/>
</clipPath>
</defs>
</svg>
