<svg width="28" height="28" viewBox="0 0 28 28" fill="none" xmlns="http://www.w3.org/2000/svg">
<path d="M13.9531 25.9062C20.4922 25.9062 25.9062 20.4805 25.9062 13.9531C25.9062 7.41406 20.4805 2 13.9414 2C7.41406 2 2 7.41406 2 13.9531C2 20.4805 7.42578 25.9062 13.9531 25.9062Z" fill="black" fill-opacity="0.85"/>
<path d="M10.1563 16.9531C9.62891 16.9531 9.26562 16.543 9.26562 15.9805V10.2852C9.26562 9.57031 9.66406 9.28906 10.2852 9.28906H16.0039C16.5781 9.28906 16.9414 9.64062 16.9414 10.1797C16.9414 10.707 16.5664 11.0586 15.9805 11.0586H13.8008L12.0078 10.8711L13.8945 12.6289L18.3359 17.0586C18.5117 17.2344 18.6289 17.4805 18.6289 17.7148C18.6289 18.2656 18.2656 18.6172 17.7383 18.6172C17.4453 18.6172 17.2109 18.5117 17.0352 18.3359L12.6172 13.9062L10.8711 12.043L11.0469 13.9297V16.0039C11.0469 16.5781 10.6953 16.9531 10.1563 16.9531Z" fill="white"/>
</svg>
