<svg width="28" height="28" viewBox="0 0 28 28" fill="none" xmlns="http://www.w3.org/2000/svg">
<path d="M9.23438 24.0352H18.3984C25.1953 24.0352 27.6328 21.5156 27.6328 15.2461V11.8008C27.6328 5.53125 25.1953 3 18.3984 3H9.23438C2.4375 3 0 5.53125 0 11.8008V15.2461C0 21.5156 2.4375 24.0352 9.23438 24.0352ZM9.23438 22.1484C3.70312 22.1484 1.88672 20.3555 1.88672 15.2461V11.8008C1.88672 6.69141 3.70312 4.88672 9.23438 4.88672H18.3984C23.9297 4.88672 25.7461 6.69141 25.7461 11.8008V15.2461C25.7461 20.3555 23.9297 22.1484 18.3984 22.1484H9.23438Z" fill="black" fill-opacity="0.85"/>
<path d="M8.85938 18.2695H12.2344C12.6211 18.2695 12.9492 17.9531 12.9492 17.5547C12.9492 17.168 12.6211 16.8516 12.2344 16.8516H9.72656V9.49219C9.72656 9.03516 9.33984 8.64844 8.87109 8.64844C8.41406 8.64844 8.02734 9.03516 8.02734 9.49219V17.3906C8.02734 17.9414 8.33203 18.2695 8.85938 18.2695ZM18.1641 18.4102C18.6094 18.4102 18.9609 18.1406 18.9609 17.5781V16.4062H19.3828C19.8398 16.4062 20.0508 16.1133 20.0508 15.7148C20.0508 15.3398 19.8516 15.0469 19.3828 15.0469H18.9609V9.90234C18.9609 9.09375 18.4336 8.63672 17.6719 8.63672C16.8398 8.63672 16.4531 9.05859 16.125 9.78516L14.0391 14.332C13.8398 14.7891 13.7695 15.0938 13.7695 15.457C13.7695 16.0195 14.1562 16.4062 14.7305 16.4062H17.3555V17.5781C17.3555 18.1992 17.7891 18.4102 18.1641 18.4102ZM17.3906 15.082H15.2109V15L17.3438 10.1133H17.3906V15.082Z" fill="black" fill-opacity="0.85"/>
</svg>
