<svg width="28" height="28" viewBox="0 0 28 28" fill="none" xmlns="http://www.w3.org/2000/svg">
<g clip-path="url(#clip0_2124_88505)">
<path d="M13.9531 25.918C20.4922 25.918 25.9062 20.5039 25.9062 13.9648C25.9062 7.4375 20.4805 2.01172 13.9414 2.01172C7.41406 2.01172 2 7.4375 2 13.9648C2 20.5039 7.42578 25.918 13.9531 25.918Z" fill="black" fill-opacity="0.85"/>
<path d="M6.34766 11.8789C6.34766 11.6094 6.52344 11.3047 6.88672 11.1406L12.4297 8.60938C13.0156 8.35156 13.4727 8.22266 13.9414 8.23438C14.4102 8.22266 14.8789 8.35156 15.4531 8.60938L21.0078 11.1406C21.3711 11.3047 21.5352 11.6094 21.5352 11.8789C21.5352 12.1719 21.3711 12.4531 21.0078 12.6172L15.4531 15.1719C14.8789 15.4297 14.4102 15.5469 13.9414 15.5352C13.4727 15.5469 13.0156 15.4297 12.4297 15.1719L10.0508 14.0703L13.4258 12.4883C13.5898 12.5352 13.7773 12.5586 13.9648 12.5586C14.5859 12.5586 15.1953 12.2773 15.1953 11.8789C15.1953 11.4922 14.5859 11.2344 13.9648 11.2344C13.3555 11.2344 12.7227 11.4922 12.7227 11.8789C12.7227 11.9258 12.7344 11.9844 12.7578 12.0195L9.19531 13.6719L6.88672 12.6172C6.52344 12.4531 6.34766 12.1719 6.34766 11.8789ZM8.46875 16.1328V14.2227L9.21875 14.5742V17.7266C8.73828 17.2109 8.46875 16.625 8.46875 16.1328ZM8.82031 20.6445V19.4258C8.82031 19.0977 8.97266 18.8633 9.21875 18.7578V17.7266C9.45312 17.9609 9.71094 18.1719 10.0273 18.3477V18.7695C10.2617 18.875 10.4258 19.1094 10.4258 19.4258V20.6445C10.4258 21.0898 10.1328 21.3711 9.6875 21.3711H9.54688C9.08984 21.3711 8.82031 21.0898 8.82031 20.6445ZM10.0273 18.3477V14.9375L12.1016 15.8984C12.7695 16.2031 13.3789 16.3555 13.9414 16.3438C14.5039 16.3555 15.1133 16.2031 15.7812 15.8984L19.4141 14.2227V16.1328C19.4141 17.8203 17.293 19.25 13.9414 19.25C12.3125 19.25 10.9648 18.9219 10.0273 18.3477Z" fill="white"/>
</g>
<defs>
<clipPath id="clip0_2124_88505">
<rect width="23.9062" height="23.918" fill="white" transform="translate(2 2)"/>
</clipPath>
</defs>
</svg>
