<svg width="32" height="28" viewBox="0 0 32 28" fill="none" xmlns="http://www.w3.org/2000/svg">
<g clip-path="url(#clip0_2124_24756)">
<path d="M9.1172 24.2227H10.3359C11.2969 24.2227 11.8594 23.6719 11.8594 22.7227V16.6055C11.8594 15.1992 12.2109 14.4844 13.3594 13.4766C14.5898 12.3984 15.375 10.8867 15.375 9.14062C15.375 6.02344 12.8555 3.50391 9.72656 3.50391C6.59766 3.50391 4.07812 6.02344 4.07812 9.14062C4.07812 10.8867 4.86328 12.3984 6.08203 13.4766C7.24219 14.4844 7.59375 15.1992 7.59375 16.6055V22.7227C7.59375 23.6719 8.15626 24.2227 9.1172 24.2227ZM10.9922 10.5469C10.6641 10.5469 10.3945 10.2773 10.3945 9.9375V7.71094C10.3945 7.39453 10.6641 7.125 10.9922 7.125C11.3203 7.125 11.5898 7.39453 11.5898 7.71094V9.9375C11.5898 10.2773 11.3203 10.5469 10.9922 10.5469ZM21.8672 24.2227H23.0859C24.0469 24.2227 24.6094 23.6719 24.6094 22.7227V16.6055C24.6094 15.2227 24.9727 14.5195 25.9805 13.5938C23.2383 13.0781 21.1523 10.6641 21.1523 7.78125C21.1523 6.09375 21.8672 4.57031 23.0039 3.50391C22.5938 3.50391 22.5234 3.50391 22.4766 3.50391C19.3477 3.50391 16.8281 6.02344 16.8281 9.14062C16.8281 10.8867 17.6133 12.3984 18.8438 13.4766C19.9922 14.4844 20.3438 15.1992 20.3438 16.6055V22.7227C20.3438 23.6719 20.9062 24.2227 21.8672 24.2227Z" fill="black" fill-opacity="0.85"/>
<path d="M0 7.78125C0 10.1016 1.64062 12.0352 3.82031 12.4805C3.26953 11.4961 2.94141 10.3594 2.94141 9.14062C2.94141 6.63281 4.32422 4.42969 6.36328 3.26953C5.87109 3.09375 5.34375 3 4.80469 3C2.14453 3 0 5.14453 0 7.78125ZM27.082 12.5742C29.7188 12.5742 31.875 10.4297 31.875 7.78125C31.875 5.14453 29.7188 3 27.082 3C24.4336 3 22.2891 5.14453 22.2891 7.78125C22.2891 10.4297 24.4336 12.5742 27.082 12.5742ZM29.4492 9.79688C28.8398 9.79688 28.3711 8.91797 28.3711 7.78125C28.3711 6.66797 28.8398 5.77734 29.4492 5.77734C30.0352 5.77734 30.5039 6.66797 30.5039 7.78125C30.5039 8.91797 30.0352 9.79688 29.4492 9.79688Z" fill="black" fill-opacity="0.85"/>
</g>
<defs>
<clipPath id="clip0_2124_24756">
<rect width="31.875" height="21.2227" fill="white" transform="translate(0 3)"/>
</clipPath>
</defs>
</svg>
