<svg width="28" height="28" viewBox="0 0 28 28" fill="none" xmlns="http://www.w3.org/2000/svg">
<g clip-path="url(#clip0_2124_88715)">
<path d="M13.9531 25.918C20.4922 25.918 25.9062 20.5039 25.9062 13.9648C25.9062 7.4375 20.4805 2.01172 13.9414 2.01172C7.41406 2.01172 2 7.4375 2 13.9648C2 20.5039 7.42578 25.918 13.9531 25.918Z" fill="black" fill-opacity="0.85"/>
<path d="M8.5625 19.4375C7.28516 19.4375 6.64062 18.8047 6.64062 17.5508V11.1641C6.64062 9.88672 7.28516 9.26562 8.5625 9.26562H10.0859C10.5547 9.26562 10.6953 9.14844 10.9648 8.86719L11.4688 8.31641C11.7734 7.97656 12.0898 7.80078 12.7109 7.80078H15.1484C15.7812 7.80078 16.0977 7.97656 16.3906 8.31641L16.8828 8.86719C17.1523 9.17188 17.3164 9.26562 17.7852 9.26562H19.3438C20.6094 9.26562 21.2656 9.88672 21.2656 11.1641V17.5508C21.2656 18.8047 20.6094 19.4375 19.3438 19.4375H8.5625ZM13.9648 17.9141C15.9688 17.9141 17.5742 16.3555 17.5742 14.293C17.5742 12.2891 15.9688 10.6719 13.9648 10.6719C11.9609 10.6719 10.3438 12.2891 10.3438 14.293C10.3438 16.3203 11.9609 17.9141 13.9648 17.9141ZM13.9531 16.8711C12.5352 16.8711 11.375 15.7227 11.375 14.293C11.375 12.8633 12.5352 11.7148 13.9531 11.7148C15.3711 11.7148 16.5312 12.875 16.5312 14.293C16.5312 15.7227 15.3711 16.8711 13.9531 16.8711ZM18.793 12.5586C19.2383 12.5586 19.6133 12.1953 19.6016 11.7383C19.6016 11.2813 19.2383 10.918 18.793 10.918C18.3359 10.918 17.9609 11.2813 17.9609 11.7383C17.9609 12.1953 18.3359 12.5586 18.793 12.5586Z" fill="white"/>
</g>
<defs>
<clipPath id="clip0_2124_88715">
<rect width="23.9062" height="23.918" fill="white" transform="translate(2 2)"/>
</clipPath>
</defs>
</svg>
