<svg width="28" height="28" viewBox="0 0 28 28" fill="none" xmlns="http://www.w3.org/2000/svg">
<g clip-path="url(#clip0_2124_62640)">
<path d="M4.95703 16.3828H23.6367C24.7148 16.3828 25.2773 15.832 25.3008 14.8945C25.3125 14.4492 25.0898 13.9922 24.7266 13.5938L15.9258 3.92578C15.4922 3.45703 14.9531 3.10547 14.2969 3.10547C13.6289 3.10547 13.125 3.43359 12.6562 3.92578L3.86719 13.5938C3.50391 13.9922 3.29297 14.4492 3.29297 14.8945C3.29297 15.832 3.87891 16.3828 4.95703 16.3828ZM6.19922 14.6133C5.97656 14.6133 5.87109 14.5078 5.87109 14.3438C5.87109 14.2617 5.90625 14.1797 5.96484 14.1211L13.9102 5.48438C14.0391 5.35547 14.1328 5.26172 14.2969 5.26172C14.4609 5.26172 14.5664 5.35547 14.6836 5.48438L22.6172 14.1211C22.6875 14.1914 22.7227 14.2617 22.7227 14.3438C22.7227 14.5078 22.6055 14.6133 22.3945 14.6133H6.19922ZM5.51953 24.9258H23.0508C24.668 24.9258 25.5703 24.082 25.5703 22.5V21.1523C25.5703 19.5703 24.668 18.7266 23.0508 18.7266H5.51953C3.90234 18.7266 3 19.5586 3 21.1523V22.5C3 24.0938 3.90234 24.9258 5.51953 24.9258ZM5.67188 23.2031C5.15625 23.2031 4.88672 22.8984 4.88672 22.3828V21.2695C4.88672 20.7539 5.15625 20.4492 5.67188 20.4492H22.8984C23.4258 20.4492 23.6836 20.7539 23.6836 21.2695V22.3828C23.6836 22.8984 23.4258 23.2031 22.8984 23.2031H5.67188Z" fill="black" fill-opacity="0.85"/>
</g>
<defs>
<clipPath id="clip0_2124_62640">
<rect width="22.5703" height="21.9258" fill="white" transform="translate(3 3)"/>
</clipPath>
</defs>
</svg>
