<svg width="28" height="28" viewBox="0 0 28 28" fill="none" xmlns="http://www.w3.org/2000/svg">
<g clip-path="url(#clip0_2124_88661)">
<path d="M13.9531 25.9062C20.4922 25.9062 25.9062 20.4805 25.9062 13.9531C25.9062 7.41406 20.4805 2 13.9414 2C7.41406 2 2 7.41406 2 13.9531C2 20.4805 7.42578 25.9062 13.9531 25.9062ZM13.9531 23.9141C8.42188 23.9141 4.00391 19.4844 4.00391 13.9531C4.00391 8.42188 8.41016 3.99219 13.9414 3.99219C19.4727 3.99219 23.9141 8.42188 23.9141 13.9531C23.9141 19.4844 19.4844 23.9141 13.9531 23.9141Z" fill="black" fill-opacity="0.85"/>
<path d="M9.48828 20.2578C9.80469 20.2578 10.0156 20.0117 10.0156 19.7188V16.2617C10.2383 16.168 10.6953 16.0273 11.4219 16.0273C13.5078 16.0273 14.8203 17.0586 16.8477 17.0586C17.7383 17.0586 18.1016 16.9648 18.5469 16.7539C19.0391 16.5312 19.2617 16.1914 19.2617 15.6641V9.88672C19.2617 9.54688 19.0859 9.30078 18.6055 9.30078C18.2656 9.30078 17.75 9.54688 16.7891 9.54688C14.7969 9.54688 13.4727 8.50391 11.3633 8.50391C10.4492 8.50391 10.0859 8.60938 9.66406 8.79688C9.18359 9.00781 8.9375 9.38281 8.9375 9.88672V19.7188C8.9375 20 9.19531 20.2578 9.48828 20.2578Z" fill="black" fill-opacity="0.85"/>
<path d="M18.6523 20.5742C19.1914 21.1016 20.0586 21.1133 20.5742 20.5742C21.125 20.0352 21.1133 19.2031 20.5742 18.6641L9.23047 7.32031C8.69141 6.78125 7.83594 6.78125 7.30859 7.32031C6.76953 7.84766 6.76953 8.71484 7.30859 9.24219L18.6523 20.5742Z" fill="white"/>
<path d="M19.2383 20C19.4375 20.1992 19.7891 20.1992 19.9883 20C20.1992 19.7773 20.1992 19.4609 19.9883 19.25L8.65628 7.90625C8.44534 7.69531 8.1055 7.69531 7.89456 7.90625C7.68362 8.10547 7.69534 8.45703 7.89456 8.65625L19.2383 20Z" fill="black" fill-opacity="0.85"/>
</g>
<defs>
<clipPath id="clip0_2124_88661">
<rect width="23.9062" height="23.918" fill="white" transform="translate(2 2)"/>
</clipPath>
</defs>
</svg>
