<svg width="28" height="28" viewBox="0 0 28 28" fill="none" xmlns="http://www.w3.org/2000/svg">
<g clip-path="url(#clip0_2124_88820)">
<path d="M13.9531 25.918C20.4922 25.918 25.9062 20.5039 25.9062 13.9648C25.9062 7.4375 20.4805 2.01172 13.9414 2.01172C7.41406 2.01172 2 7.4375 2 13.9648C2 20.5039 7.42578 25.918 13.9531 25.918Z" fill="black" fill-opacity="0.85"/>
<path d="M8.42171 20.3633L7.40217 19.3438C6.83967 18.7812 6.89827 18.1602 7.53108 17.5977L14.0467 11.9141L15.8982 13.7422L10.1795 20.2578C9.62874 20.8789 8.98421 20.9258 8.42171 20.3633ZM19.4139 15.043L18.9568 14.6211C18.7225 14.3984 18.6756 14.2227 18.7107 13.9531L18.781 13.2383L18.324 12.7695L17.3396 12.9688C16.9412 13.0391 16.66 12.9922 16.4021 12.7227L15.031 11.3633C14.6912 11.0235 14.5975 10.6485 14.7967 10.1094L15.2654 8.8555C14.3748 8.32815 13.3201 8.38675 12.1248 8.73831C11.9139 8.83206 11.6795 8.75003 11.5272 8.62112C11.3397 8.39847 11.2928 8.08206 11.5858 7.77737C13.3436 6.01956 16.5193 6.20706 18.2303 7.90628L19.4607 9.13675C19.9295 9.58206 20.0818 10.0274 19.9764 10.461L19.7654 11.3281L20.2342 11.7735L20.949 11.7031C21.2303 11.6797 21.3592 11.7149 21.6053 11.961L22.0623 12.4062C22.3201 12.6758 22.3318 12.9922 22.0857 13.2266L20.2342 15.0664C19.9646 15.3125 19.6717 15.2891 19.4139 15.043Z" fill="white"/>
</g>
<defs>
<clipPath id="clip0_2124_88820">
<rect width="23.9062" height="23.918" fill="white" transform="translate(2 2)"/>
</clipPath>
</defs>
</svg>
