<svg width="28" height="28" viewBox="0 0 28 28" fill="none" xmlns="http://www.w3.org/2000/svg">
<g clip-path="url(#clip0_2124_88438)">
<path d="M7.63281 26.125H20.0781C22.5039 26.125 23.7109 24.8945 23.7109 22.457V11.8164H15.2266C13.7266 11.8164 13.0117 11.1016 13.0117 9.60156V1H7.63281C5.21875 1 4 2.24219 4 4.67969V22.457C4 24.9062 5.20703 26.125 7.63281 26.125ZM15.2617 10.2109H23.5703C23.5 9.73047 23.1602 9.26172 22.5977 8.6875L16.1406 2.11328C15.5898 1.55078 15.1094 1.21094 14.6172 1.12891V9.57812C14.6172 10 14.8281 10.2109 15.2617 10.2109Z" fill="black" fill-opacity="0.85"/>
<path d="M13.8555 23.0781C13.3867 23.0781 13 22.7031 13 22.2461V18.0977L13.0703 16.2461L12.0859 17.2539L11.0664 18.2969C10.9023 18.4609 10.668 18.5547 10.457 18.5547C9.98828 18.5547 9.66016 18.2266 9.66016 17.7812C9.66016 17.5234 9.76562 17.3242 9.94141 17.1719L13.2227 14.1484C13.457 13.9375 13.6445 13.8555 13.8555 13.8555C14.0664 13.8555 14.2539 13.9375 14.4883 14.1484L17.7695 17.1719C17.9453 17.3242 18.0508 17.5234 18.0508 17.7812C18.0508 18.2266 17.7109 18.5547 17.2539 18.5547C17.0312 18.5547 16.8086 18.4609 16.6445 18.2969L15.625 17.2539L14.6406 16.2461L14.7227 18.0977V22.2461C14.7227 22.7031 14.3242 23.0781 13.8555 23.0781Z" fill="white"/>
</g>
<defs>
<clipPath id="clip0_2124_88438">
<rect width="19.7109" height="25.1367" fill="white" transform="translate(4 1)"/>
</clipPath>
</defs>
</svg>
