<svg width="28" height="30" viewBox="0 0 28 30" fill="none" xmlns="http://www.w3.org/2000/svg">
<path d="M12.1211 26.6367C16.9961 26.6367 20.2422 23.4609 20.2422 18.7031C20.2422 16.3594 19.3281 14.0273 18.6367 12.4688C17.3828 9.64453 15.4141 6.53906 13.7031 3.89062C13.293 3.26953 12.8125 2.90625 12.1211 2.90625C11.4297 2.90625 10.9492 3.26953 10.5391 3.89062C8.82812 6.53906 6.85938 9.64453 5.60547 12.4688C4.92578 14.0273 4 16.3594 4 18.7031C4 23.4609 7.24609 26.6367 12.1211 26.6367ZM12.1211 24.7148C8.39453 24.7148 5.92188 22.3125 5.92188 18.7031C5.92188 16.7812 6.66016 14.918 7.31641 13.3945C8.62891 10.3125 10.3633 7.78125 12.0039 5.30859C12.0859 5.19141 12.1797 5.19141 12.25 5.30859C13.8789 7.78125 15.625 10.3125 16.9141 13.3828C17.582 14.918 18.332 16.7812 18.332 18.7031C18.332 22.3125 15.8477 24.7148 12.1211 24.7148ZM20.4648 7.16016C22.4688 7.16016 24.0391 5.58984 24.0391 3.58594C24.0391 1.57031 22.4688 0 20.4648 0C18.4492 0 16.8789 1.57031 16.8789 3.58594C16.8789 5.58984 18.4492 7.16016 20.4648 7.16016ZM20.4648 5.50781C19.3867 5.50781 18.5312 4.66406 18.5312 3.58594C18.5312 2.49609 19.3867 1.65234 20.4648 1.65234C21.543 1.65234 22.3867 2.49609 22.3867 3.58594C22.3867 4.66406 21.543 5.50781 20.4648 5.50781Z" fill="black" fill-opacity="0.85"/>
</svg>
