<svg width="28" height="28" viewBox="0 0 28 28" fill="none" xmlns="http://www.w3.org/2000/svg">
<path d="M4.07778 8.80396L4.95669 9.12037C5.87075 9.46021 6.72622 9.03834 7.06606 8.10084L8.7184 3.56568C9.05825 2.62818 8.67153 1.77271 7.75747 1.43287L6.87856 1.11646C5.9645 0.776619 5.12075 1.19849 4.76919 2.14771L3.12856 6.67115C2.777 7.60865 3.16372 8.46412 4.07778 8.80396ZM19.5114 8.80396L20.402 9.12037C21.3161 9.46021 22.1598 9.03834 22.4997 8.10084L24.152 3.56568C24.5036 2.62818 24.1051 1.77271 23.2028 1.43287L22.3122 1.11646C21.3981 0.776619 20.5661 1.19849 20.2145 2.14771L18.5622 6.67115C18.2223 7.60865 18.609 8.47584 19.5114 8.80396ZM5.44887 26.1829H6.38637C7.35903 26.1829 8.01528 25.5032 8.01528 24.5071V19.6907C8.01528 18.6829 7.35903 18.0032 6.38637 18.0032H5.44887C4.48794 18.0032 3.83169 18.6829 3.83169 19.6907V24.5071C3.83169 25.5032 4.48794 26.1829 5.44887 26.1829ZM20.8825 26.1829H21.82C22.7926 26.1829 23.4489 25.5032 23.4489 24.5071V19.6907C23.4489 18.6829 22.7926 18.0032 21.82 18.0032H20.8825C19.9215 18.0032 19.2653 18.6829 19.2653 19.6907V24.5071C19.2653 25.5032 19.9215 26.1829 20.8825 26.1829ZM7.0895 6.06178H20.2028V4.17506H7.0895V6.06178ZM12.6911 22.3391H14.5778V4.17506H12.6911V22.3391ZM7.0895 23.0422H20.2028V21.1555H7.0895V23.0422Z" fill="black" fill-opacity="0.85"/>
</svg>
