<svg width="28" height="28" viewBox="0 0 28 28" fill="none" xmlns="http://www.w3.org/2000/svg">
<path d="M13.9531 25.9062C20.4922 25.9062 25.9062 20.4805 25.9062 13.9531C25.9062 7.41406 20.4805 2 13.9414 2C7.41406 2 2 7.41406 2 13.9531C2 20.4805 7.42578 25.9062 13.9531 25.9062Z" fill="black" fill-opacity="0.85"/>
<path d="M10.6836 18.9688C10.2031 18.9688 9.80469 18.5703 9.80469 18.0781V10.7539L8.69141 11.6445C8.57422 11.7383 8.44531 11.7969 8.25781 11.7969C7.89453 11.7969 7.63672 11.5273 7.63672 11.1523C7.63672 10.8359 7.80078 10.6016 8.02344 10.4375L9.34766 9.40625C9.62891 9.19531 10.0391 8.91406 10.5547 8.91406C11.1875 8.91406 11.5742 9.27734 11.5742 9.89844V18.0781C11.5742 18.5703 11.1758 18.9688 10.6836 18.9688ZM15.8164 15.4648C14.2109 15.4648 13.4258 13.918 13.4258 12.2891C13.4258 10.3906 14.4922 8.84375 16.332 8.84375C18.7812 8.84375 19.5078 11.5742 19.5078 13.8594C19.5078 16.332 18.793 19.0742 16.3086 19.0742C15.1016 19.0742 14.0469 18.4414 13.7891 17.3867C13.7539 17.2461 13.7305 17.0938 13.7305 16.9531C13.7305 16.5547 13.9297 16.2148 14.4453 16.2148C14.8086 16.2148 15.0547 16.3672 15.2305 16.7656C15.4414 17.2812 15.8047 17.6562 16.3438 17.6562C17.6914 17.6562 17.8555 15.2422 17.8555 13.9062C17.8555 13.8711 17.8555 13.8242 17.8555 13.7773H17.8086C17.5273 14.8086 16.7891 15.4648 15.8164 15.4648ZM16.3555 14.1289C17.2344 14.1289 17.6211 13.1445 17.6211 12.207C17.6211 11.3047 17.2695 10.2617 16.3555 10.2617C15.5117 10.2617 15.1133 11.3047 15.1133 12.207C15.1133 13.0977 15.4648 14.1289 16.3555 14.1289Z" fill="white"/>
</svg>
