<svg width="28" height="28" viewBox="0 0 28 28" fill="none" xmlns="http://www.w3.org/2000/svg">
<path d="M13.9531 25.918C20.4922 25.918 25.9062 20.5039 25.9062 13.9648C25.9062 7.4375 20.4805 2.01172 13.9414 2.01172C7.41406 2.01172 2 7.4375 2 13.9648C2 20.5039 7.42578 25.918 13.9531 25.918Z" fill="black" fill-opacity="0.85"/>
<path d="M14.9617 20.5859C12.5125 20.5859 10.5555 19.5312 9.57114 17.8438L8.30552 16.9766L7.71958 17.5508L8.09458 18.5938C8.24692 19.0273 7.5438 19.2852 7.41489 18.6992C7.3563 18.418 7.02817 18.3945 6.91099 18.6406C6.65317 19.0977 6.02036 18.6055 6.33677 18.2539C6.52427 18.0547 6.34849 17.7852 6.06724 17.8086C5.59849 17.8555 5.52817 17.1289 6.0438 17.1406L7.02817 17.1641L7.71958 16.0742C7.9188 15.7578 8.2938 15.6406 8.62192 15.8281L8.91489 15.9922C8.8563 15.6758 8.82114 15.3477 8.82114 15.0078C8.82114 12.9336 9.99302 11.1875 11.7157 10.3086L11.1532 9.96875C10.8133 9.78125 10.743 9.38281 10.9071 9.07812L11.4813 7.91797L10.9891 7.08594C10.7313 6.64062 11.3758 6.35938 11.5751 6.76953C11.704 7.02734 12.0203 7.03906 12.1024 6.79297C12.243 6.35938 12.9578 6.65234 12.7117 7.08594C12.5711 7.32031 12.7586 7.58984 13.0281 7.49609C13.5672 7.30859 13.6961 8.04688 13.2508 8.11719L12.161 8.32812L11.9852 9.125L13.3328 9.78125C13.6258 9.73438 13.9305 9.71094 14.2352 9.71094C14.657 9.71094 14.8914 9.48828 14.9383 9.05469C15.0203 8.48047 15.4774 8.15234 16.7313 8.15234C18.4422 8.15234 19.532 8.58594 19.532 9.27734C19.532 10.3555 17.4461 11.8086 16.4852 11.8086C15.8055 11.8086 15.8172 11.4453 15.2313 11.4453C14.8446 11.4453 14.5047 11.5156 14.1883 11.6328L14.0711 13.0273L14.868 13.25L15.5946 12.4062C15.8758 12.0664 16.4383 12.5234 16.0164 12.9219C15.8172 13.1094 15.9461 13.4023 16.2274 13.4023C16.7313 13.3906 16.6141 14.1641 16.1688 14.0703C15.911 14.0234 15.7469 14.3047 15.9227 14.5508C16.1922 14.9258 15.6063 15.3359 15.3602 14.8906L14.8797 14.0352L13.5789 13.9648C13.2156 13.9531 12.9227 13.6836 12.9227 13.3086L12.911 12.6055C12.2899 13.3789 11.9266 14.4219 11.9266 15.4648C11.9266 15.8047 11.9735 16.1328 12.0672 16.4609L12.6531 15.6758C12.8524 15.3711 13.2508 15.3242 13.5555 15.5234L14.6688 16.25L15.5477 15.8281C15.9813 15.6172 16.2274 16.2969 15.782 16.4375C15.5008 16.5312 15.4656 16.8594 15.7235 16.9648C16.1219 17.1523 15.7586 17.8555 15.3719 17.5508C15.1375 17.3867 14.8446 17.5391 14.9149 17.8203C15.0203 18.3594 14.2938 18.418 14.2469 17.9727L14.1883 16.8828L13.4031 16.6016L12.7352 17.668C13.4266 18.5 14.5164 19.0391 15.7469 19.0391C17.786 19.0391 19.6258 17.3984 19.907 15.0781C19.9891 14.4453 20.8094 14.457 20.8094 15.1367C20.8094 17.0586 18.8758 20.5859 14.9617 20.5859Z" fill="white"/>
</svg>
