<svg width="28" height="28" viewBox="0 0 28 28" fill="none" xmlns="http://www.w3.org/2000/svg">
<path d="M6.67969 24.5977H20.8945C23.3555 24.5977 24.5742 23.3789 24.5742 20.9648V6.65625C24.5742 4.24219 23.3555 3.02344 20.8945 3.02344H6.67969C4.23047 3.02344 3 4.23047 3 6.65625V20.9648C3 23.3906 4.23047 24.5977 6.67969 24.5977Z" fill="black" fill-opacity="0.85"/>
<path d="M11.6602 18.832C11.2734 18.832 10.8164 18.6094 10.8164 17.9648V16.7695H8.12109C7.52344 16.7695 7.125 16.3711 7.125 15.7852C7.125 15.4102 7.19531 15.0938 7.39453 14.625L9.53906 9.9375C9.87891 9.1875 10.2891 8.75391 11.1445 8.75391C11.9414 8.75391 12.4805 9.22266 12.4805 10.0664V15.3633H12.9141C13.4062 15.3633 13.6055 15.668 13.6055 16.0547C13.6055 16.4648 13.3828 16.7695 12.9141 16.7695H12.4805V17.9648C12.4805 18.5508 12.1055 18.832 11.6602 18.832ZM10.8516 15.3984V10.2773H10.8047L8.61328 15.3164V15.3984H10.8516ZM16.2891 18.8438C15.7266 18.8438 15.4922 18.4453 15.4922 18.0938C15.4922 17.8008 15.5391 17.6484 15.6328 17.3789L18.3164 10.4531V10.3477H15.2109C14.8008 10.3477 14.5078 10.043 14.5078 9.62109C14.5078 9.21094 14.8008 8.90625 15.2109 8.90625H19.1133C19.6641 8.90625 20.0859 9.28125 20.0859 9.84375C20.0859 10.1953 19.9922 10.4883 19.8633 10.8633L17.1094 18.2227C16.9336 18.668 16.7461 18.8438 16.2891 18.8438Z" fill="white"/>
</svg>
