<svg width="37" height="28" viewBox="0 0 37 28" fill="none" xmlns="http://www.w3.org/2000/svg">
<g clip-path="url(#clip0_2124_50212)">
<path d="M0 15.1133C0 21.3711 5.88281 25.543 14.7773 25.543C23.6836 25.543 29.5664 21.3711 29.5664 15.1133C29.5664 12.4883 23.4844 10.3555 14.7773 10.3555C6.08203 10.3555 0 12.4883 0 15.1133ZM1.88672 15.1133C1.88672 13.8477 8.02734 12.125 14.7773 12.125C21.5273 12.125 27.6797 13.8477 27.6797 15.1133C27.6797 16.332 21.9141 17.9492 14.7773 17.9492C7.64062 17.9492 1.88672 16.332 1.88672 15.1133ZM2.25 17.4688C4.55859 18.8398 9.5625 19.8359 14.7773 19.8359C20.0039 19.8359 25.0078 18.8398 27.3164 17.4688C26.3438 21.1953 21.3633 23.6562 14.7773 23.6562C8.20312 23.6562 3.22266 21.1953 2.25 17.4688ZM27.1172 14.0938L34.9453 9.30076C38.4609 7.16795 35.1914 2.0117 30.9844 5.02342L21.6211 11.7617L23.6016 12.2891L32.332 6.33592C34.043 5.15232 35.1211 6.96873 33.7852 7.80076L25.4648 12.957L27.1172 14.0938ZM7.96875 18.2305L20.5898 18.2773C20.6016 15.8398 18.5977 14.2461 16.2891 14.2461C14.7656 14.2461 13.4297 14.9258 12.6445 15.9805C12.2344 15.8398 11.8594 15.7812 11.4023 15.7812C9.69141 15.7812 8.27344 16.8477 7.96875 18.2305Z" fill="black" fill-opacity="0.85"/>
</g>
<defs>
<clipPath id="clip0_2124_50212">
<rect width="36.4354" height="23.543" fill="white" transform="translate(0 2)"/>
</clipPath>
</defs>
</svg>
