<svg width="28" height="28" viewBox="0 0 28 28" fill="none" xmlns="http://www.w3.org/2000/svg">
<g clip-path="url(#clip0_2124_89094)">
<path d="M5 24.8633C5 26.1641 5.75 26.9961 6.94531 26.9961H20.9141C22.1094 26.9961 22.8594 26.1641 22.8594 24.8633V4.14453C22.8594 2.84375 22.1094 2.01172 20.9141 2.01172H6.94531C5.75 2.01172 5 2.84375 5 4.14453V24.8633ZM9.875 25.1094V21.3008C9.875 20.7617 10.2266 20.4102 10.7656 20.4102H17.1992C17.7383 20.4102 18.0898 20.7617 18.0898 21.3008V25.1094H9.875ZM9.48828 8.30469V6.03125C9.48828 5.73828 9.67578 5.52734 9.96875 5.52734H12.3125C12.6055 5.52734 12.8164 5.73828 12.8164 6.03125V8.30469C12.8164 8.60938 12.6055 8.80859 12.3125 8.80859H9.96875C9.67578 8.80859 9.48828 8.60938 9.48828 8.30469ZM15.1484 8.30469V6.03125C15.1484 5.73828 15.3359 5.52734 15.6406 5.52734H17.9727C18.2656 5.52734 18.4766 5.73828 18.4766 6.03125V8.30469C18.4766 8.60938 18.2656 8.80859 17.9727 8.80859H15.6406C15.3359 8.80859 15.1484 8.60938 15.1484 8.30469ZM9.48828 13.0859V10.8125C9.48828 10.5195 9.67578 10.3086 9.96875 10.3086H12.3125C12.6055 10.3086 12.8164 10.5195 12.8164 10.8125V13.0859C12.8164 13.3906 12.6055 13.5898 12.3125 13.5898H9.96875C9.67578 13.5898 9.48828 13.3906 9.48828 13.0859ZM15.1484 13.0859V10.8125C15.1484 10.5195 15.3359 10.3086 15.6406 10.3086H17.9727C18.2656 10.3086 18.4766 10.5195 18.4766 10.8125V13.0859C18.4766 13.3906 18.2656 13.5898 17.9727 13.5898H15.6406C15.3359 13.5898 15.1484 13.3906 15.1484 13.0859ZM9.48828 17.8672V15.5938C9.48828 15.2891 9.67578 15.0898 9.96875 15.0898H12.3125C12.6055 15.0898 12.8164 15.2891 12.8164 15.5938V17.8672C12.8164 18.1602 12.6055 18.3711 12.3125 18.3711H9.96875C9.67578 18.3711 9.48828 18.1602 9.48828 17.8672ZM15.1484 17.8672V15.5938C15.1484 15.2891 15.3359 15.0898 15.6406 15.0898H17.9727C18.2656 15.0898 18.4766 15.2891 18.4766 15.5938V17.8672C18.4766 18.1602 18.2656 18.3711 17.9727 18.3711H15.6406C15.3359 18.3711 15.1484 18.1602 15.1484 17.8672Z" fill="black" fill-opacity="0.85"/>
</g>
<defs>
<clipPath id="clip0_2124_89094">
<rect width="17.8594" height="24.9961" fill="white" transform="translate(5 2)"/>
</clipPath>
</defs>
</svg>
