<svg width="28" height="28" viewBox="0 0 28 28" fill="none" xmlns="http://www.w3.org/2000/svg">
<path d="M3.24219 14.7734C6.42969 10.4258 11.3164 7.68359 16.9648 7.68359C19.2383 7.68359 21.3711 8.11719 23.3984 8.98438L23.1406 7.47266C21.2305 6.76953 19.1094 6.38281 16.9648 6.38281C10.9648 6.38281 5.63281 9.35938 2.26953 13.9062L3.24219 14.7734ZM23.1641 19.4961L24.4062 19.1328C22.6367 12.9336 12.4883 11.5859 12.4883 6.61719C12.4883 5.12891 13.25 4.03906 14.6445 3.30078L13.8359 2.25781C12.2305 3.18359 11.1875 4.74219 11.1875 6.61719C11.1875 12.6289 21.6172 14.1758 23.1641 19.4961ZM6.08984 22.2617L7.58984 22.4023C5.82031 19.0273 7.56641 14.0938 7.27344 9.85156C7.19141 8.72656 6.48828 6.69922 5.22266 6.39453L4.89453 7.66016C5.45703 7.73047 5.92578 9.17188 5.97266 9.95703C6.23047 13.6836 4.63672 18.4766 6.08984 22.2617ZM15.5352 25.0508L16.5781 24.2656C9.71094 15.7344 8.69141 6.42969 9.81641 3.89844L8.39844 4.09766C7.51953 7.74219 8.97266 16.8477 15.5352 25.0508ZM13.9531 25.9062C20.4922 25.9062 25.9062 20.4805 25.9062 13.9531C25.9062 7.41406 20.4805 2 13.9414 2C7.41406 2 2 7.41406 2 13.9531C2 20.4805 7.42578 25.9062 13.9531 25.9062ZM13.9531 24.3125C8.29297 24.3125 3.59375 19.6133 3.59375 13.9531C3.59375 8.29297 8.28125 3.59375 13.9414 3.59375C19.6016 3.59375 24.3125 8.29297 24.3125 13.9531C24.3125 19.6133 19.6133 24.3125 13.9531 24.3125Z" fill="black" fill-opacity="0.85"/>
</svg>
