<svg width="28" height="28" viewBox="0 0 28 28" fill="none" xmlns="http://www.w3.org/2000/svg">
<path d="M3 9.32812C3 10.3594 4.10156 10.6172 4.75781 9.94922L9.94922 4.75781C10.6289 4.08984 10.3594 3 9.32812 3H4.06641C3.41016 3 3 3.44531 3 4.07812V9.32812ZM6.02344 7.5L20.8711 22.3594L22.3594 20.8945L7.51172 6.02344L6.02344 7.5ZM25.3945 19.0664C25.3945 18.0234 24.293 17.7773 23.625 18.4336L18.4336 23.625C17.7656 24.3047 18.0352 25.3945 19.0664 25.3945H24.3281C24.9844 25.3945 25.3945 24.9375 25.3945 24.3164V19.0664ZM25.3945 9.32812V4.07812C25.3945 3.44531 24.9844 3 24.3281 3H19.0664C18.0352 3 17.7656 4.08984 18.4336 4.75781L23.625 9.94922C24.293 10.6172 25.3945 10.3594 25.3945 9.32812ZM7.51172 22.3594L22.3711 7.5L20.8828 6.02344L6.02344 20.8828L7.51172 22.3594ZM3 19.0664V24.3164C3 24.9375 3.41016 25.3945 4.06641 25.3945H9.32812C10.3594 25.3945 10.6289 24.3047 9.94922 23.625L4.75781 18.4336C4.10156 17.7773 3 18.0234 3 19.0664Z" fill="black" fill-opacity="0.85"/>
</svg>
