<svg width="28" height="28" viewBox="0 0 28 28" fill="none" xmlns="http://www.w3.org/2000/svg">
<g clip-path="url(#clip0_2124_24619)">
<path d="M13.9531 25.9062C20.4922 25.9062 25.9062 20.4805 25.9062 13.9531C25.9062 7.41406 20.4805 2 13.9414 2C7.41406 2 2 7.41406 2 13.9531C2 20.4805 7.42578 25.9062 13.9531 25.9062ZM13.9531 23.9141C8.42188 23.9141 4.00391 19.4844 4.00391 13.9531C4.00391 8.42188 8.41016 3.99219 13.9414 3.99219C19.4727 3.99219 23.9141 8.42188 23.9141 13.9531C23.9141 19.4844 19.4844 23.9141 13.9531 23.9141Z" fill="black" fill-opacity="0.85"/>
<path d="M7.20312 17.4336C7.36719 17.2344 7.32031 17 7.13281 16.7773C6.44141 16.0039 6.07812 15.0195 6.07812 13.9531C6.07812 12.8867 6.44141 11.9023 7.13281 11.1289C7.32031 10.9062 7.36719 10.6602 7.20312 10.4727C7.05078 10.2617 6.74609 10.2617 6.52344 10.4844C5.66797 11.4102 5.21094 12.6406 5.21094 13.9531C5.21094 15.2539 5.66797 16.4844 6.52344 17.4219C6.74609 17.6445 7.05078 17.6445 7.20312 17.4336ZM20.7148 17.4336C20.8789 17.6445 21.1836 17.6445 21.3945 17.4219C22.25 16.4844 22.7188 15.2539 22.7188 13.9531C22.7188 12.6406 22.25 11.4102 21.3945 10.4844C21.1836 10.2617 20.8789 10.2617 20.7148 10.4727C20.5508 10.6602 20.5977 10.9062 20.7969 11.1289C21.4766 11.9023 21.8516 12.8867 21.8516 13.9531C21.8516 15.0195 21.4766 16.0039 20.7969 16.7773C20.5977 17 20.5508 17.2344 20.7148 17.4336Z" fill="black" fill-opacity="0.85"/>
<path d="M8.89062 15.9922C9.05469 15.793 8.99609 15.5703 8.82031 15.3359C8.52734 14.9609 8.38672 14.4805 8.38672 13.9531C8.38672 13.4258 8.52734 12.9336 8.82031 12.5703C8.99609 12.3359 9.05469 12.1133 8.89062 11.9141C8.71484 11.7031 8.38672 11.7031 8.19922 11.9375C7.75391 12.5 7.49609 13.1914 7.49609 13.9531C7.49609 14.7031 7.75391 15.4062 8.19922 15.957C8.38672 16.1914 8.71484 16.2031 8.89062 15.9922ZM19.0273 15.9922C19.2031 16.2031 19.5312 16.1914 19.7188 15.957C20.1641 15.4062 20.4336 14.7031 20.4336 13.9531C20.4336 13.1914 20.1641 12.5 19.7188 11.9375C19.5312 11.7031 19.2031 11.7031 19.0273 11.9141C18.8633 12.1133 18.9219 12.3359 19.0977 12.5703C19.3906 12.9336 19.543 13.4258 19.543 13.9531C19.543 14.4805 19.3906 14.9609 19.0977 15.3359C18.9219 15.5703 18.8633 15.793 19.0273 15.9922Z" fill="black" fill-opacity="0.85"/>
<path d="M9.88672 18.9922C9.88672 19.9883 10.5781 20.668 11.6211 20.668H16.2852C17.3281 20.668 18.0195 19.9883 18.0195 18.9922V8.91406C18.0195 7.91797 17.3281 7.23828 16.2852 7.23828H11.6211C10.5781 7.23828 9.88672 7.91797 9.88672 8.91406V18.9922ZM10.9414 18.5V9.40625H16.9648V18.5H10.9414ZM13.9648 20.0117C13.6719 20.0117 13.4258 19.7656 13.4258 19.4727C13.4258 19.1797 13.6719 18.9336 13.9648 18.9336C14.2578 18.9336 14.4805 19.1797 14.4805 19.4727C14.4805 19.7656 14.2578 20.0117 13.9648 20.0117ZM12.7461 8.375C12.7461 8.22266 12.8633 8.11719 12.9922 8.11719H14.9141C15.0547 8.11719 15.1602 8.22266 15.1602 8.375C15.1602 8.52734 15.0547 8.62109 14.9141 8.62109H12.9922C12.8633 8.62109 12.7461 8.52734 12.7461 8.375Z" fill="black" fill-opacity="0.85"/>
</g>
<defs>
<clipPath id="clip0_2124_24619">
<rect width="23.9062" height="23.918" fill="white" transform="translate(2 2)"/>
</clipPath>
</defs>
</svg>
