<svg width="28" height="28" viewBox="0 0 28 28" fill="none" xmlns="http://www.w3.org/2000/svg">
<g clip-path="url(#clip0_2124_24674)">
<path d="M9.1875 26.8086H17.8828C19.793 26.8086 21.0703 25.5898 21.0703 23.7617V5.04688C21.0703 3.21875 19.793 2 17.8828 2H9.1875C7.27734 2 6 3.21875 6 5.04688V23.7617C6 25.5898 7.27734 26.8086 9.1875 26.8086Z" fill="black" fill-opacity="0.85"/>
<path d="M13.5469 18.8984C11.0742 18.8984 9.04688 16.8711 9.04688 14.3984C9.04688 11.9258 11.0742 9.89844 13.5469 9.89844C16.0195 9.89844 18.0469 11.9258 18.0469 14.3984C18.0469 16.8711 16.0195 18.8984 13.5469 18.8984Z" fill="white"/>
</g>
<defs>
<clipPath id="clip0_2124_24674">
<rect width="15.0703" height="24.832" fill="white" transform="translate(6 2)"/>
</clipPath>
</defs>
</svg>
