<svg width="28" height="31" viewBox="0 0 28 31" fill="none" xmlns="http://www.w3.org/2000/svg">
<path d="M10.4141 13.5352H17.9141C18.957 13.5352 19.5664 12.9492 19.5664 11.918V3.52734C19.5664 2.49609 18.957 1.91016 17.9141 1.91016H10.4141C9.37109 1.91016 8.76172 2.49609 8.76172 3.52734V11.918C8.76172 12.9492 9.37109 13.5352 10.4141 13.5352Z" fill="black" fill-opacity="0.85"/>
<path d="M8.63281 23.2852H19.707C22.0391 23.2852 23.5742 21.7617 23.5742 19.4414V7.24219C23.5742 4.92188 22.0391 3.41016 19.707 3.41016H8.63281C6.30078 3.41016 4.75391 4.92188 4.75391 7.24219V19.4414C4.75391 21.7617 6.30078 23.2852 8.63281 23.2852Z" fill="white"/>
<path d="M8.50391 21.6914H19.8359C21.207 21.6914 21.9805 20.918 21.9805 19.5703V7.11328C21.9805 5.76562 21.207 5.00391 19.8359 5.00391H8.50391C7.13281 5.00391 6.34766 5.76562 6.34766 7.11328V19.5703C6.34766 20.918 7.13281 21.6914 8.50391 21.6914Z" fill="black" fill-opacity="0.85"/>
<path d="M7.56641 30.9961H20.7617C24.2539 30.9961 26.3281 28.9453 26.3281 25.4766V12.1875C26.3281 8.71875 24.2539 6.66797 20.7617 6.66797H7.56641C4.07422 6.66797 2 8.70703 2 12.1875V25.4766C2 28.9453 4.07422 30.9961 7.56641 30.9961Z" fill="white"/>
<path d="M7.56641 29.1094H20.7617C23.2109 29.1094 24.4414 27.8906 24.4414 25.4766V12.1875C24.4414 9.77344 23.2109 8.55469 20.7617 8.55469H7.56641C5.11719 8.55469 3.88672 9.76172 3.88672 12.1875V25.4766C3.88672 27.8906 5.11719 29.1094 7.56641 29.1094ZM7.60156 27.2227C6.42969 27.2227 5.77344 26.5898 5.77344 25.3711V12.2812C5.77344 11.0742 6.42969 10.4414 7.60156 10.4414H20.7383C21.8867 10.4414 22.5547 11.0742 22.5547 12.2812V25.3711C22.5547 26.5898 21.8867 27.2227 20.7383 27.2227H7.60156Z" fill="black" fill-opacity="0.85"/>
<path d="M15.7116 14.7773C16.5085 14.7773 17.153 14.1328 17.153 13.3359C17.153 12.5273 16.5085 11.8828 15.7116 11.8828C14.903 11.8828 14.2585 12.5273 14.2585 13.3359C14.2585 14.1328 14.903 14.7773 15.7116 14.7773ZM13.4499 20.5547L15.9812 21.9844L14.3523 23.3789C14.0007 23.6953 14.0007 24.082 14.2116 24.3281C14.4343 24.5742 14.8327 24.6211 15.196 24.3164L17.4812 22.3594C17.7976 22.0898 17.739 21.5273 17.364 21.2695L14.8796 19.6406L15.3601 17.9297C15.4421 17.6719 15.7234 17.6367 15.8757 17.8594L16.6023 18.9258C16.7663 19.1719 17.0827 19.2656 17.364 19.1367L19.4851 18.1992C19.8484 18.0352 19.989 17.7188 19.8249 17.3672C19.6609 17.0391 19.3445 16.9453 18.9812 17.1094L17.2937 17.8477L16.1569 16.2539C15.5476 15.4219 14.8093 15.0938 13.6023 15.1758L11.2585 15.3516C10.8952 15.375 10.6374 15.6328 10.5788 15.9961L10.2741 18.3633C10.2155 18.7852 10.4147 19.0547 10.7897 19.1016C11.153 19.1367 11.3991 18.9258 11.446 18.5156L11.7272 16.582L12.6648 16.5117C12.8757 16.5 13.0749 16.6406 13.0046 16.8984L12.4773 18.8086C12.1491 19.9219 12.8757 20.2266 13.4499 20.5547ZM8.99677 26.2969C9.24287 26.4961 9.61787 26.5312 9.95771 26.1914L12.114 24.0703C12.3015 23.8945 12.3366 23.8477 12.4538 23.5664L13.3445 21.2227L13.1335 21.1055C12.6296 20.8359 12.278 20.5547 12.0319 20.2617L11.2468 23.0625L9.02021 25.2891C8.66865 25.6289 8.72724 26.0508 8.99677 26.2969Z" fill="black" fill-opacity="0.85"/>
</svg>
