<svg width="28" height="28" viewBox="0 0 28 28" fill="none" xmlns="http://www.w3.org/2000/svg">
<path d="M13.9531 25.9062C20.4922 25.9062 25.9062 20.4805 25.9062 13.9531C25.9062 7.41406 20.4805 2 13.9414 2C7.41406 2 2 7.41406 2 13.9531C2 20.4805 7.42578 25.9062 13.9531 25.9062ZM13.9531 23.9141C8.42188 23.9141 4.00391 19.4844 4.00391 13.9531C4.00391 8.42188 8.41016 3.99219 13.9414 3.99219C19.4727 3.99219 23.9141 8.42188 23.9141 13.9531C23.9141 19.4844 19.4844 23.9141 13.9531 23.9141Z" fill="black" fill-opacity="0.85"/>
<path d="M10.5313 19.3672C10.9883 19.3672 11.293 19.0742 11.293 18.582V14.8555C11.293 12.6758 12.043 11.4336 13.2969 11.1172V18.7227C13.2969 19.1094 13.5664 19.3672 13.9414 19.3672C14.2695 19.3672 14.5742 19.1094 14.5742 18.7227V11.1055C15.8398 11.3984 16.625 12.6406 16.625 14.8555V18.582C16.625 19.0742 16.9297 19.3672 17.375 19.3672C17.8203 19.3672 18.1367 19.0742 18.1367 18.582V14.7617C18.1367 11.668 16.7188 9.92188 14.5742 9.65234V8.44531C14.5742 8.03516 14.2695 7.8125 13.9414 7.8125C13.5664 7.8125 13.2969 8.03516 13.2969 8.44531V9.66406C11.1523 9.93359 9.75781 11.6797 9.75781 14.7617V18.582C9.75781 19.0742 10.0859 19.3672 10.5313 19.3672Z" fill="black" fill-opacity="0.85"/>
</svg>
