<svg width="28" height="28" viewBox="0 0 28 28" fill="none" xmlns="http://www.w3.org/2000/svg">
<g clip-path="url(#clip0_2124_24616)">
<path d="M13.9531 25.918C20.4922 25.918 25.9062 20.5039 25.9062 13.9648C25.9062 7.4375 20.4805 2.01172 13.9414 2.01172C7.41406 2.01172 2 7.4375 2 13.9648C2 20.5039 7.42578 25.918 13.9531 25.918Z" fill="black" fill-opacity="0.85"/>
<path d="M9.33594 19.707V8.23438C9.33594 7.09766 10.1211 6.34766 11.3047 6.34766H16.6016C17.7852 6.34766 18.5703 7.09766 18.5703 8.23438V19.707C18.5703 20.832 17.7852 21.5938 16.6016 21.5938H11.3047C10.1211 21.5938 9.33594 20.832 9.33594 19.707ZM10.5195 19.1328H17.3867V8.80859H10.5195V19.1328ZM13.9648 20.8555C14.293 20.8555 14.5625 20.5742 14.5625 20.2344C14.5625 19.9062 14.293 19.6133 13.9648 19.6133C13.625 19.6133 13.3438 19.9062 13.3438 20.2344C13.3438 20.5742 13.625 20.8555 13.9648 20.8555ZM12.5703 7.625C12.5703 7.78906 12.6992 7.91797 12.8633 7.91797H15.0547C15.2188 7.91797 15.3359 7.78906 15.3359 7.625C15.3359 7.4375 15.2188 7.33203 15.0547 7.33203H12.8633C12.6992 7.33203 12.5703 7.4375 12.5703 7.625Z" fill="white"/>
</g>
<defs>
<clipPath id="clip0_2124_24616">
<rect width="23.9062" height="23.918" fill="white" transform="translate(2 2)"/>
</clipPath>
</defs>
</svg>
