<svg width="29" height="29" viewBox="0 0 29 29" fill="none" xmlns="http://www.w3.org/2000/svg">
<g clip-path="url(#clip0_2124_46021)">
<path d="M13.4732 26.0757C17.1997 26.0757 19.5083 24.5171 21.0552 21.3882C21.9458 19.6538 22.6372 17.5679 23.3755 15.1538C23.6802 14.1694 24.1255 12.9155 24.1255 12.353C24.1255 11.7202 23.6567 11.2983 23.0005 11.2983C22.2505 11.2983 21.8169 11.7671 21.2661 12.8804L19.6489 16.3022C19.4732 16.6772 19.2857 16.8179 19.0982 16.8179C18.8638 16.8179 18.6411 16.6772 18.6997 16.2671L20.1177 4.04444C20.1997 3.271 19.6958 2.82569 19.1216 2.7085C18.5005 2.59131 17.7974 2.896 17.6685 3.65772L16.1802 12.7632C15.8638 12.646 15.5122 12.5522 15.1372 12.4819V2.23975C15.1372 1.57178 14.5747 1.021 13.8833 1.021C13.1919 1.021 12.6294 1.57178 12.6294 2.23975V12.353C12.2544 12.3765 11.8794 12.4351 11.5162 12.4937L10.3091 3.49366C10.2037 2.67334 9.53569 2.36866 8.90288 2.47412C8.30522 2.56788 7.74272 3.07178 7.83647 3.84522L9.00835 13.2905C8.62163 13.478 8.28179 13.6772 7.95366 13.8882L6.46538 6.63428C6.30132 5.83741 5.64507 5.54444 5.04741 5.63819C4.46147 5.74366 3.92241 6.24756 4.0396 7.05616L5.44585 17.8491C6.11382 22.9937 8.82085 26.0757 13.4732 26.0757Z" fill="black" fill-opacity="0.85"/>
</g>
<defs>
<clipPath id="clip0_2124_46021">
<rect width="20.1021" height="25.8867" fill="white" transform="translate(4.02344 1.021)"/>
</clipPath>
</defs>
</svg>
