<svg width="28" height="28" viewBox="0 0 28 28" fill="none" xmlns="http://www.w3.org/2000/svg">
<g clip-path="url(#clip0_2124_24649)">
<path d="M13.9531 25.918C20.4922 25.918 25.9062 20.5039 25.9062 13.9648C25.9062 7.4375 20.4805 2.01172 13.9414 2.01172C7.41406 2.01172 2 7.4375 2 13.9648C2 20.5039 7.42578 25.918 13.9531 25.918Z" fill="black" fill-opacity="0.85"/>
<path d="M11.3164 21.5938C10.1445 21.5938 9.34766 20.832 9.34766 19.6836V8.24609C9.34766 7.08594 10.1445 6.33594 11.3164 6.33594H16.6016C17.7852 6.33594 18.582 7.08594 18.582 8.24609V19.6836C18.582 20.832 17.7852 21.5938 16.6016 21.5938H11.3164ZM11.4687 20.4102H16.4609C17.0703 20.4102 17.4102 20.082 17.4102 19.5078V8.42188C17.4102 7.84766 17.0703 7.51953 16.4609 7.51953H11.4687C10.8594 7.51953 10.5195 7.84766 10.5195 8.42188V19.5078C10.5195 20.082 10.8594 20.4102 11.4687 20.4102ZM12.4531 19.8828C12.2539 19.8828 12.1016 19.7422 12.1016 19.543C12.1016 19.3203 12.2539 19.1797 12.4531 19.1797H15.4766C15.6758 19.1797 15.8281 19.3203 15.8281 19.543C15.8281 19.7422 15.6758 19.8828 15.4766 19.8828H12.4531ZM13.0859 9.13672C12.793 9.13672 12.5586 8.91406 12.5586 8.62109C12.5586 8.33984 12.793 8.10547 13.0859 8.10547H14.832C15.125 8.10547 15.3594 8.33984 15.3594 8.62109C15.3594 8.91406 15.125 9.13672 14.832 9.13672H13.0859Z" fill="white"/>
</g>
<defs>
<clipPath id="clip0_2124_24649">
<rect width="23.9062" height="23.918" fill="white" transform="translate(2 2)"/>
</clipPath>
</defs>
</svg>
