<svg width="28" height="28" viewBox="0 0 28 28" fill="none" xmlns="http://www.w3.org/2000/svg">
<path d="M13.9531 25.9062C20.4922 25.9062 25.9062 20.4805 25.9062 13.9531C25.9062 7.41406 20.4805 2 13.9414 2C7.41406 2 2 7.41406 2 13.9531C2 20.4805 7.42578 25.9062 13.9531 25.9062ZM13.9531 23.9141C8.42188 23.9141 4.00391 19.4844 4.00391 13.9531C4.00391 8.42188 8.41016 3.99219 13.9414 3.99219C19.4727 3.99219 23.9141 8.42188 23.9141 13.9531C23.9141 19.4844 19.4844 23.9141 13.9531 23.9141Z" fill="black" fill-opacity="0.85"/>
<path d="M10.7656 18.8164C11.2344 18.8164 11.6211 18.4297 11.6211 17.9609V10.0156C11.6211 9.41797 11.2461 9.06641 10.6367 9.06641C10.1445 9.06641 9.74609 9.33594 9.47656 9.54688L8.1875 10.543C7.97656 10.707 7.8125 10.9297 7.8125 11.2344C7.8125 11.5977 8.05859 11.8555 8.41016 11.8555C8.59766 11.8555 8.71484 11.7969 8.83203 11.7148L9.91016 10.8477V17.9609C9.91016 18.4297 10.2969 18.8164 10.7656 18.8164ZM15.7344 15.418C16.6836 15.418 17.3984 14.7852 17.668 13.7773H17.7148C17.7148 13.8242 17.7148 13.8711 17.7148 13.9062C17.7148 15.207 17.5508 17.5508 16.2383 17.5508C15.7227 17.5508 15.3594 17.1875 15.1602 16.6836C14.9844 16.2969 14.75 16.1445 14.3984 16.1445C13.918 16.1445 13.707 16.4727 13.707 16.8594C13.707 17 13.7305 17.1406 13.7656 17.2812C14.0234 18.3008 15.043 18.9219 16.2148 18.9219C18.6172 18.9219 19.3086 16.2617 19.3086 13.8594C19.3086 11.6445 18.6055 8.99609 16.2266 8.99609C14.4453 8.99609 13.4141 10.4961 13.4141 12.3359C13.4141 13.918 14.1758 15.418 15.7344 15.418ZM16.25 14.1289C15.3828 14.1289 15.043 13.1328 15.043 12.2656C15.043 11.3867 15.4297 10.3555 16.25 10.3555C17.1406 10.3555 17.4922 11.3867 17.4922 12.2656C17.4922 13.168 17.1055 14.1289 16.25 14.1289Z" fill="black" fill-opacity="0.85"/>
</svg>
