<svg width="28" height="28" viewBox="0 0 28 28" fill="none" xmlns="http://www.w3.org/2000/svg">
<g clip-path="url(#clip0_2124_89155)">
<path d="M13.9531 25.9062C20.4922 25.9062 25.9062 20.4805 25.9062 13.9531C25.9062 7.41406 20.4805 2 13.9414 2C7.41406 2 2 7.41406 2 13.9531C2 20.4805 7.42578 25.9062 13.9531 25.9062ZM13.9531 23.9141C8.42188 23.9141 4.00391 19.4844 4.00391 13.9531C4.00391 8.42188 8.41016 3.99219 13.9414 3.99219C19.4727 3.99219 23.9141 8.42188 23.9141 13.9531C23.9141 19.4844 19.4844 23.9141 13.9531 23.9141Z" fill="black" fill-opacity="0.85"/>
<path d="M7.57812 19.0156C7.57812 19.4727 7.82422 19.7305 8.26953 19.7305C8.43359 19.7305 8.58594 19.6719 8.78516 19.5664L11.3516 18.1719V8.05859C11.2461 8.10547 11.1289 8.16406 11 8.23438L8.10547 9.88672C7.71875 10.1094 7.57812 10.3672 7.57812 10.8008V19.0156ZM12.1836 18.0547L15.2656 19.7891C15.3594 19.8477 15.4648 19.8828 15.5469 19.9062V9.93359L12.5352 8.09375C12.418 8.02344 12.3125 7.97656 12.1836 7.95312V18.0547ZM16.3789 19.8828C16.4375 19.8711 16.4961 19.8477 16.5664 19.8125L19.7422 18.0078C20.1289 17.7852 20.2812 17.5273 20.2812 17.1055V8.85547C20.2812 8.41016 20.0234 8.16406 19.5898 8.16406C19.4258 8.16406 19.2734 8.22267 19.0742 8.32812L16.3789 9.81641V19.8828Z" fill="black" fill-opacity="0.85"/>
</g>
<defs>
<clipPath id="clip0_2124_89155">
<rect width="23.9062" height="23.918" fill="white" transform="translate(2 2)"/>
</clipPath>
</defs>
</svg>
