<svg width="49" height="29" viewBox="0 0 49 29" fill="none" xmlns="http://www.w3.org/2000/svg">
<g clip-path="url(#clip0_2124_45785)">
<path d="M38.1328 14.4617C40.9219 14.4617 43.1953 11.989 43.1953 8.96558C43.1953 5.96558 40.9336 3.61011 38.1328 3.61011C35.3555 3.61011 33.0703 6.01246 33.0703 8.98902C33.0703 12.0007 35.3438 14.4617 38.1328 14.4617ZM38.1328 12.6922C36.4219 12.6922 34.957 11.0632 34.957 8.98902C34.957 6.94996 36.3984 5.37964 38.1328 5.37964C39.8789 5.37964 41.3086 6.9148 41.3086 8.96558C41.3086 11.0398 39.8555 12.6922 38.1328 12.6922ZM30.7617 25.3133H45.4922C47.4375 25.3133 48.3633 24.7273 48.3633 23.4383C48.3633 20.3679 44.4844 15.9265 38.1328 15.9265C31.7695 15.9265 27.8906 20.3679 27.8906 23.4383C27.8906 24.7273 28.8164 25.3133 30.7617 25.3133ZM30.1992 23.5437C29.8945 23.5437 29.7773 23.4617 29.7773 23.2156C29.7773 21.282 32.7539 17.6961 38.1328 17.6961C43.5 17.6961 46.4766 21.282 46.4766 23.2156C46.4766 23.4617 46.3594 23.5437 46.0547 23.5437H30.1992Z" fill="black" fill-opacity="0.85"/>
<path d="M17.625 26.907H32.3438C35.4609 26.907 36.8203 25.4304 36.8203 23.4383C36.8203 19.4539 32.2031 14.3211 24.9844 14.3211C17.7539 14.3211 13.1484 19.4539 13.1484 23.4383C13.1484 25.4304 14.4961 26.907 17.625 26.907Z" fill="white"/>
<path d="M24.9844 14.4617C27.7734 14.4617 30.0469 11.989 30.0469 8.96558C30.0469 5.96558 27.7852 3.61011 24.9844 3.61011C22.207 3.61011 19.9219 6.01246 19.9219 8.98902C19.9219 12.0007 22.207 14.4617 24.9844 14.4617ZM24.9844 12.6922C23.2734 12.6922 21.8086 11.0632 21.8086 8.98902C21.8086 6.94996 23.25 5.37964 24.9844 5.37964C26.7305 5.37964 28.1602 6.9148 28.1602 8.96558C28.1602 11.0398 26.7188 12.6922 24.9844 12.6922ZM17.625 25.3133H32.3438C34.2891 25.3133 35.2148 24.7273 35.2148 23.4383C35.2148 20.3679 31.3359 15.9265 24.9844 15.9265C18.6211 15.9265 14.7422 20.3679 14.7422 23.4383C14.7422 24.7273 15.668 25.3133 17.625 25.3133ZM17.0625 23.5437C16.7578 23.5437 16.6289 23.4617 16.6289 23.2156C16.6289 21.282 19.6055 17.6961 24.9844 17.6961C30.3516 17.6961 33.3281 21.282 33.3281 23.2156C33.3281 23.4617 33.2109 23.5437 32.9062 23.5437H17.0625Z" fill="black" fill-opacity="0.85"/>
<path d="M4.47656 26.907H19.1953C22.3242 26.907 23.6719 25.4304 23.6719 23.4383C23.6719 19.4539 19.0664 14.3211 11.8359 14.3211C4.61719 14.3211 0 19.4539 0 23.4383C0 25.4304 1.35938 26.907 4.47656 26.907Z" fill="white"/>
<path d="M11.8477 14.4617C14.625 14.4617 16.9102 11.989 16.9102 8.96558C16.9102 5.96558 14.6484 3.61011 11.8477 3.61011C9.05859 3.61011 6.78516 6.01246 6.78516 8.98902C6.78516 12.0007 9.05859 14.4617 11.8477 14.4617ZM11.8477 12.6922C10.1367 12.6922 8.67188 11.0632 8.67188 8.98902C8.67188 6.94996 10.1016 5.37964 11.8477 5.37964C13.5938 5.37964 15.0234 6.9148 15.0234 8.96558C15.0234 11.0398 13.5703 12.6922 11.8477 12.6922ZM4.47656 25.3133H19.1953C21.1523 25.3133 22.0781 24.7273 22.0781 23.4383C22.0781 20.3679 18.1992 15.9265 11.8359 15.9265C5.48438 15.9265 1.60547 20.3679 1.60547 23.4383C1.60547 24.7273 2.53125 25.3133 4.47656 25.3133ZM3.91406 23.5437C3.60938 23.5437 3.49219 23.4617 3.49219 23.2156C3.49219 21.282 6.46875 17.6961 11.8359 17.6961C17.2148 17.6961 20.1914 21.282 20.1914 23.2156C20.1914 23.4617 20.0625 23.5437 19.7578 23.5437H3.91406Z" fill="black" fill-opacity="0.85"/>
</g>
<defs>
<clipPath id="clip0_2124_45785">
<rect width="48.3633" height="24.8789" fill="white" transform="translate(0 2.02808)"/>
</clipPath>
</defs>
</svg>
