<svg width="28" height="28" viewBox="0 0 28 28" fill="none" xmlns="http://www.w3.org/2000/svg">
<g clip-path="url(#clip0_2124_24741)">
<path d="M13.8477 12.4023C20.9492 12.4023 25.6953 10.1289 25.6953 6.70703C25.6953 3.28516 20.9492 1 13.8477 1C6.73438 1 2 3.28516 2 6.70703C2 10.1289 6.73438 12.4023 13.8477 12.4023ZM13.8477 10.5156C7.87109 10.5156 3.88672 8.98047 3.88672 6.70703C3.88672 4.43359 7.87109 2.88672 13.8477 2.88672C19.8242 2.88672 23.8086 4.43359 23.8086 6.70703C23.8086 8.98047 19.8242 10.5156 13.8477 10.5156ZM13.8477 18.332C21.2188 18.332 25.6953 16.2812 25.6953 11.3711V6.70703H23.8086V11.3711C23.8086 15.0977 20.0469 16.4453 13.8477 16.4453C7.64844 16.4453 3.88672 15.0977 3.88672 11.3711V6.70703H2V11.3711C2 16.2812 6.46484 18.332 13.8477 18.332ZM6.99219 12.7656V10.5742H5.45703V12.7656C5.45703 13.1875 5.80859 13.5391 6.23047 13.5391C6.65234 13.5391 6.99219 13.1875 6.99219 12.7656ZM10.5898 13.5625V11.3711H9.05469V13.5625C9.05469 13.9844 9.39453 14.3359 9.81641 14.3359C10.2383 14.3359 10.5898 13.9844 10.5898 13.5625ZM14.4688 13.8672V11.6758H12.9336V13.8672C12.9336 14.2891 13.2852 14.6289 13.707 14.6289C14.1289 14.6289 14.4688 14.2891 14.4688 13.8672ZM18.3594 13.5625V11.3711H16.8242V13.5625C16.8242 13.9844 17.1758 14.3359 17.5977 14.3359C18.0195 14.3359 18.3594 13.9844 18.3594 13.5625ZM21.957 12.7656V10.5742H20.4219V12.7656C20.4219 13.1875 20.7617 13.5391 21.1836 13.5391C21.6055 13.5391 21.957 13.1875 21.957 12.7656Z" fill="black" fill-opacity="0.85"/>
<path d="M4.26172 23.7461C4.26172 24.0977 4.42578 24.4727 4.85938 24.6133C7.17969 25.3867 9.80469 25.832 12.5234 25.832C15.2305 25.832 17.8555 25.3984 20.1875 24.6133L19.6016 22.9375C17.457 23.6641 15.0312 24.0625 12.5234 24.0625C10.0039 24.0625 7.57812 23.6641 5.43359 22.9375C4.71875 22.6797 4.26172 23.207 4.26172 23.7461ZM19.1797 26.7109C19.4375 27.4258 20.3516 27.4492 20.7148 26.875L23.0469 23.2188C23.3516 22.7148 23.1523 22.1641 22.6016 21.9648L18.5234 20.5469C17.8906 20.3242 17.1406 20.8867 17.4102 21.6484L19.1797 26.7109Z" fill="black" fill-opacity="0.85"/>
</g>
<defs>
<clipPath id="clip0_2124_24741">
<rect width="23.6953" height="26.3086" fill="white" transform="translate(2 1)"/>
</clipPath>
</defs>
</svg>
