<svg width="28" height="29" viewBox="0 0 28 29" fill="none" xmlns="http://www.w3.org/2000/svg">
<path d="M1.19649 21.7068C2.22774 25.5271 3.29414 26.6873 5.70821 26.6873H19.6184C21.3527 26.6873 22.5129 25.7498 22.9465 23.992L27.3527 6.10918C27.9973 3.50761 26.7785 1.86699 24.4934 1.86699C21.7395 1.86699 19.5129 4.48027 20.5793 8.1248L20.802 6.98808C18.0715 8.92168 16.6301 13.0818 17.0051 18.0623L17.5441 17.3709C14.9895 16.9256 12.0129 16.6795 9.05977 16.6795C2.79024 16.6795 0.235549 18.2029 1.19649 21.7068ZM3.00117 21.2029C2.48555 19.3279 3.91524 18.5662 9.05977 18.5662C13.2316 18.5662 16.2316 19.1287 17.5676 19.2225C18.2824 19.2342 18.7277 18.7771 18.716 18.0623C18.634 13.6561 19.7941 10.1053 21.8449 8.57011C22.2902 8.20683 22.384 7.97246 22.2551 7.17558C21.9387 4.97246 23.1574 3.75371 24.4934 3.75371C25.3605 3.75371 25.8293 4.46855 25.548 5.61699L21.1066 23.535C20.9074 24.3553 20.4035 24.8006 19.6184 24.8006H5.70821C4.39571 24.8006 3.85664 24.3787 3.00117 21.2029Z" fill="black" fill-opacity="0.85"/>
<path d="M17.954 4.09355C17.7899 2.86308 18.3407 1.71464 19.4071 1.22246C19.747 1.04668 19.8173 0.706832 19.7118 0.402145C19.5829 0.0857387 19.2196 -0.136918 18.7626 0.0974576C17.3212 0.812301 16.454 2.61699 16.7118 4.3748C16.7821 4.78496 17.1923 4.98418 17.579 4.85527C17.8954 4.72636 18.0243 4.44511 17.954 4.09355ZM14.7431 13.035C14.2743 11.324 14.8485 8.94511 16.911 7.84355C17.3329 7.62089 17.3798 7.22246 17.2274 6.94121C17.0751 6.67168 16.7352 6.50761 16.2899 6.71855C13.8407 7.87871 12.9032 11.16 13.5009 13.3982C13.6063 13.7967 14.0165 13.949 14.3329 13.867C14.6376 13.785 14.872 13.492 14.7431 13.035Z" fill="black" fill-opacity="0.85"/>
</svg>
