<svg width="28" height="28" viewBox="0 0 28 28" fill="none" xmlns="http://www.w3.org/2000/svg">
<path d="M13.9531 25.9062C20.4922 25.9062 25.9062 20.4805 25.9062 13.9531C25.9062 7.41406 20.4805 2 13.9414 2C7.41406 2 2 7.41406 2 13.9531C2 20.4805 7.42578 25.9062 13.9531 25.9062Z" fill="black" fill-opacity="0.85"/>
<path d="M13.9297 19.707C11.3633 19.707 9.65234 18.4062 9.65234 16.4492C9.65234 15.1016 10.625 13.9766 12.0781 13.6836V13.6133C10.8594 13.2383 10.1211 12.3008 10.1211 11.1406C10.1211 9.39453 11.7031 8.19922 13.9531 8.19922C16.2031 8.19922 17.7852 9.39453 17.7852 11.1406C17.7852 12.3008 17.0234 13.2617 15.8281 13.6133V13.6836C17.2695 13.9766 18.2656 15.0898 18.2656 16.4375C18.2656 18.3828 16.5078 19.707 13.9297 19.707ZM13.9648 18.3711C15.3711 18.3711 16.4258 17.5273 16.4258 16.3438C16.4258 15.1836 15.4062 14.3398 13.9648 14.3398C12.5586 14.3398 11.5039 15.1953 11.5039 16.3438C11.5039 17.5273 12.5469 18.3711 13.9648 18.3711ZM13.9531 13.0625C15.1484 13.0625 16.0039 12.3242 16.0039 11.2812C16.0039 10.2734 15.1602 9.54688 13.9531 9.54688C12.7461 9.54688 11.9023 10.2734 11.9023 11.2812C11.9023 12.3242 12.7578 13.0625 13.9531 13.0625Z" fill="white"/>
</svg>
