<svg width="28" height="28" viewBox="0 0 28 28" fill="none" xmlns="http://www.w3.org/2000/svg">
<path d="M6.67969 24.5977H20.8945C23.3555 24.5977 24.5742 23.3789 24.5742 20.9648V6.65625C24.5742 4.24219 23.3555 3.02344 20.8945 3.02344H6.67969C4.23047 3.02344 3 4.23047 3 6.65625V20.9648C3 23.3906 4.23047 24.5977 6.67969 24.5977ZM6.70312 22.7109C5.53125 22.7109 4.88672 22.0898 4.88672 20.8711V6.75C4.88672 5.53125 5.53125 4.91016 6.70312 4.91016H20.8711C22.0312 4.91016 22.6875 5.53125 22.6875 6.75V20.8711C22.6875 22.0898 22.0312 22.7109 20.8711 22.7109H6.70312Z" fill="black" fill-opacity="0.85"/>
<path d="M10.7344 19.1602C11.3438 19.1602 11.6836 18.7617 11.6836 18.1055V15.668L13.1133 14.1914L16.5352 18.7031C16.7695 19.0195 17.0156 19.1602 17.3438 19.1602C17.8711 19.1602 18.2461 18.7852 18.2461 18.2812C18.2461 18.0469 18.1523 17.7891 17.9883 17.5664L14.4844 12.9844L17.707 9.67969C17.9062 9.45703 17.9883 9.25781 17.9883 9C17.9883 8.56641 17.6133 8.20312 17.1328 8.20312C16.8398 8.20312 16.6406 8.3086 16.3711 8.57812L11.7539 13.2891H11.6836V9.25781C11.6836 8.60156 11.3438 8.20312 10.7344 8.20312C10.1602 8.20312 9.80859 8.60156 9.80859 9.25781V18.1055C9.80859 18.7617 10.1602 19.1602 10.7344 19.1602Z" fill="black" fill-opacity="0.85"/>
</svg>
