<svg width="28" height="29" viewBox="0 0 28 29" fill="none" xmlns="http://www.w3.org/2000/svg">
<path d="M3 13.957C3 14.5664 3.42188 15 4.03125 15H23.8359C24.4336 15 24.8555 14.5664 24.8555 13.957C24.8555 13.3477 24.4336 12.9023 23.8359 12.9023H4.03125C3.42188 12.9023 3 13.3477 3 13.957Z" fill="black" fill-opacity="0.85"/>
<path d="M13.9336 0C13.3242 0 12.8789 0.421875 12.8789 1.03125V5.98828L12.9609 8.41406L9.85547 5.08594C9.65625 4.875 9.38672 4.79297 9.10547 4.79297C8.51953 4.79297 8.08594 5.23828 8.08594 5.8125C8.08594 6.10547 8.20312 6.36328 8.4375 6.60938L13.1484 11.332C13.3711 11.5664 13.6406 11.6953 13.9336 11.6953C14.2148 11.6953 14.4961 11.5664 14.7188 11.332L19.4297 6.60938C19.6641 6.36328 19.7812 6.10547 19.7812 5.8125C19.7812 5.23828 19.3477 4.79297 18.7617 4.79297C18.4805 4.79297 18.2109 4.875 18.0117 5.08594L14.9062 8.41406L14.9766 5.98828V1.03125C14.9766 0.421875 14.543 0 13.9336 0ZM13.9336 27.9141C14.543 27.9141 14.9766 27.4922 14.9766 26.8711V21.9141L14.9062 19.5L18.0117 22.8164C18.2109 23.0273 18.4805 23.1094 18.7617 23.1094C19.3477 23.1094 19.7812 22.6641 19.7812 22.0898C19.7812 21.7969 19.6641 21.5391 19.4297 21.293L14.7188 16.5703C14.4961 16.3359 14.2148 16.207 13.9336 16.207C13.6406 16.207 13.3711 16.3359 13.1484 16.5703L8.4375 21.293C8.20312 21.5391 8.08594 21.7969 8.08594 22.0898C8.08594 22.6641 8.51953 23.1094 9.10547 23.1094C9.38672 23.1094 9.65625 23.0273 9.85547 22.8164L12.9609 19.5L12.8789 21.9141V26.8711C12.8789 27.4922 13.3242 27.9141 13.9336 27.9141Z" fill="black" fill-opacity="0.85"/>
</svg>
