<svg width="28" height="29" viewBox="0 0 28 29" fill="none" xmlns="http://www.w3.org/2000/svg">
<path d="M12.3924 5.12109C13.7986 5.12109 14.9353 3.97266 14.9353 2.54297C14.9353 1.13672 13.7986 0 12.3924 0C10.9627 0 9.81424 1.13672 9.81424 2.54297C9.81424 3.97266 10.9627 5.12109 12.3924 5.12109ZM17.7596 27.9023C18.4392 27.9023 18.9666 27.3633 18.9666 26.707V20.0508C18.9666 19.7695 18.8142 19.3711 18.4392 19.125L14.1619 16.2773V9.03516C14.1619 8.88281 14.2908 8.74219 14.4549 8.74219H23.7478C24.4158 8.74219 24.9431 8.20312 24.9431 7.54688C24.9431 6.89062 24.4158 6.35156 23.7478 6.35156H10.5291C9.40408 6.35156 8.79471 6.75 8.22049 7.46484L5.1033 11.2969C4.3533 12.2109 4.96268 13.5352 5.93533 13.5352H9.38064V15.1875C9.38064 16.2773 9.99002 17.2969 10.9744 17.8242L16.5642 20.8359V26.707C16.5642 27.3633 17.1033 27.9023 17.7596 27.9023ZM8.16189 11.2148L9.45096 9.60938V11.2148H8.16189ZM4.28299 27.4922C4.74002 28.0078 5.49002 28.0312 5.99393 27.5977L10.6931 23.4844C10.9275 23.2734 11.0213 23.1797 11.1033 22.957L12.3572 19.8398L10.4353 18.8086C10.2478 18.7031 10.0603 18.5859 9.88455 18.457L8.93533 21.8438L4.40018 25.8047C3.91971 26.2266 3.86111 27.0117 4.28299 27.4922Z" fill="black" fill-opacity="0.85"/>
</svg>
