<svg width="28" height="28" viewBox="0 0 28 28" fill="none" xmlns="http://www.w3.org/2000/svg">
<path d="M13.9531 25.9062C20.4922 25.9062 25.9062 20.4805 25.9062 13.9531C25.9062 7.41406 20.4805 2 13.9414 2C7.41406 2 2 7.41406 2 13.9531C2 20.4805 7.42578 25.9062 13.9531 25.9062ZM13.9531 23.9141C8.42188 23.9141 4.00391 19.4844 4.00391 13.9531C4.00391 8.42188 8.41016 3.99219 13.9414 3.99219C19.4727 3.99219 23.9141 8.42188 23.9141 13.9531C23.9141 19.4844 19.4844 23.9141 13.9531 23.9141Z" fill="black" fill-opacity="0.85"/>
<path d="M10.1328 18.8516C10.5547 18.8516 10.9063 18.5117 10.9063 18.0898V16.3438L11.5273 15.7578L13.332 18.4062C13.6367 18.875 14.1289 18.8984 14.457 18.6758C14.7383 18.4648 14.8789 18.043 14.5508 17.5625L12.6289 14.8086L14.5508 12.8047C14.8789 12.4648 14.7969 12.0781 14.5625 11.8672C14.3047 11.5977 13.8359 11.5156 13.4844 11.9141L10.9297 14.7617H10.9063V9.76953C10.9063 9.34766 10.5547 8.99609 10.1328 8.99609C9.71094 8.99609 9.37109 9.34766 9.37109 9.76953V18.0898C9.37109 18.5117 9.71094 18.8516 10.1328 18.8516ZM16.7422 18.8633C17.1523 18.8633 17.4688 18.5352 17.4688 18.1367V14.7148C17.4688 13.8594 17.7617 13.1445 18.6289 13.1445C18.9102 13.1445 19.2148 13.0859 19.4023 12.9336C19.5312 12.8281 19.625 12.6523 19.625 12.4297C19.625 12.1953 19.5547 12.0195 19.4258 11.8906C19.2734 11.75 19.0742 11.6797 18.8398 11.6797C18.1016 11.6797 17.6094 12.3242 17.4805 13.0742H17.4219V12.3594C17.4219 11.9727 17.1055 11.668 16.7188 11.668C16.332 11.668 16.0273 11.9727 16.0273 12.3594V18.1367C16.0273 18.5352 16.3438 18.8633 16.7422 18.8633Z" fill="black" fill-opacity="0.85"/>
</svg>
