<svg width="28" height="28" viewBox="0 0 28 28" fill="none" xmlns="http://www.w3.org/2000/svg">
<path d="M6.67969 24.5977H20.8945C23.3555 24.5977 24.5742 23.3789 24.5742 20.9648V6.65625C24.5742 4.24219 23.3555 3.02344 20.8945 3.02344H6.67969C4.23047 3.02344 3 4.23047 3 6.65625V20.9648C3 23.3906 4.23047 24.5977 6.67969 24.5977Z" fill="black" fill-opacity="0.85"/>
<path d="M13.8047 7.64062C14.3438 7.64062 14.7188 8.01562 14.7188 8.55469V14.5664L14.6133 17.1445L15.8438 15.6797L17.2617 14.2383C17.4258 14.0508 17.6484 13.9688 17.9062 13.9688C18.4102 13.9688 18.7969 14.3438 18.7969 14.8477C18.7969 15.1055 18.7148 15.3164 18.5391 15.4805L14.5195 19.4883C14.2852 19.7227 14.0859 19.8398 13.8047 19.8398C13.5469 19.8398 13.3477 19.7344 13.1016 19.4883L9.07031 15.4805C8.90625 15.3164 8.83594 15.1055 8.83594 14.8477C8.83594 14.3438 9.21094 13.9688 9.71484 13.9688C9.97266 13.9688 10.1953 14.0625 10.3594 14.2383L11.7891 15.6797L12.9961 17.1328L12.8906 14.5664V8.55469C12.8906 8.01562 13.2773 7.64062 13.8047 7.64062Z" fill="white"/>
</svg>
