<svg width="28" height="28" viewBox="0 0 28 28" fill="none" xmlns="http://www.w3.org/2000/svg">
<g clip-path="url(#clip0_2124_89390)">
<path d="M13.9531 25.918C20.4922 25.918 25.9062 20.5039 25.9062 13.9648C25.9062 7.4375 20.4805 2.01172 13.9414 2.01172C7.41406 2.01172 2 7.4375 2 13.9648C2 20.5039 7.42578 25.918 13.9531 25.918Z" fill="black" fill-opacity="0.85"/>
<path d="M9.01953 18.4297V14.5508H13.4609V19.9648H10.6133C9.61719 19.9648 9.01953 19.4375 9.01953 18.4297ZM14.4453 19.9648V14.5508H18.8867V18.4297C18.8867 19.4375 18.2891 19.9648 17.293 19.9648H14.4453ZM8.16406 13.0039V11.5508C8.16406 10.918 8.55078 10.6484 9.18359 10.6484H10.5781C10.2266 10.3203 10.0273 9.85156 10.0273 9.33594C10.0273 8.16406 10.9414 7.33203 12.1016 7.33203C12.9453 7.33203 13.6367 7.80078 13.9531 8.62109C14.2695 7.80078 14.9727 7.33203 15.8164 7.33203C16.9648 7.33203 17.8789 8.16406 17.8789 9.33594C17.8789 9.85156 17.6914 10.3203 17.3281 10.6484H18.7344C19.3906 10.6484 19.7422 10.918 19.7422 11.5508V13.0039C19.7422 13.6602 19.3906 13.9062 18.7344 13.9062H14.4453V10.6484H15.3828C16.332 10.6484 16.8945 10.0625 16.8945 9.38281C16.8945 8.72656 16.4141 8.32812 15.7578 8.32812C15.0195 8.32812 14.4453 8.89062 14.4453 9.78125V10.6484H13.4609V9.78125C13.4609 8.89062 12.8867 8.32812 12.1602 8.32812C11.5039 8.32812 11.0117 8.72656 11.0117 9.38281C11.0117 10.0625 11.5742 10.6484 12.5234 10.6484H13.4609V13.9062H9.18359C8.52734 13.9062 8.16406 13.6602 8.16406 13.0039Z" fill="white"/>
</g>
<defs>
<clipPath id="clip0_2124_89390">
<rect width="23.9062" height="23.918" fill="white" transform="translate(2 2)"/>
</clipPath>
</defs>
</svg>
