<svg width="28" height="31" viewBox="0 0 28 31" fill="none" xmlns="http://www.w3.org/2000/svg">
<path d="M11.8594 5.12109C13.2539 5.12109 14.4141 3.96094 14.4141 2.56641C14.4141 1.16016 13.2539 0 11.8594 0C10.4531 0 9.29297 1.16016 9.29297 2.56641C9.29297 3.96094 10.4531 5.12109 11.8594 5.12109ZM13.3711 24.3516C13.8281 24.4688 14.6016 24.3047 14.8242 23.5547L16.5234 17.918C16.6992 17.3086 16.4297 16.6875 15.7852 16.4648L11.1797 14.8711L11.7539 10.9453C11.7773 10.7109 12.082 10.6523 12.1875 10.875L13.1719 12.7852C13.3945 13.2188 13.7812 13.4297 14.2266 13.4297H18.9375C19.582 13.4297 20.1211 12.9258 20.1211 12.2578C20.1211 11.625 19.582 11.0859 18.9375 11.0859H14.9531L13.418 8.05078C12.9258 7.06641 12.0469 6.375 10.9453 6.16406L10.2891 6.03516C9.08203 5.80078 8.10938 6.05859 7.35938 6.52734L3.55078 8.89453C3.22266 9.11719 3 9.49219 3 9.91406V14.6133C3 15.2578 3.53906 15.8086 4.18359 15.8086C4.82812 15.8086 5.36719 15.2578 5.36719 14.6133V10.5469L7.00781 9.52734C7.16016 9.44531 7.33594 9.53906 7.30078 9.71484L6.76172 14.0625C6.55078 15.7266 7.10156 16.8633 9.01172 17.3086L13.8984 18.457L12.5742 22.8984C12.3984 23.5078 12.6328 24.1406 13.3711 24.3516ZM4.72266 28.5938C5.14453 28.875 5.90625 28.875 6.33984 28.2422L9.80859 23.0742C9.97266 22.8281 10.0547 22.6406 10.1016 22.3477L10.5938 18.8906L8.75391 18.457C8.47266 18.3984 8.22656 18.3047 7.99219 18.2227L7.74609 21.9375L4.39453 26.9531C4.03125 27.4922 4.16016 28.2305 4.72266 28.5938ZM9.38672 30.4336H13.1602C13.5234 30.4336 13.8281 30.1289 13.8281 29.7656V27.5039H16.9453C17.2969 27.5039 17.5898 27.2227 17.5898 26.8477V24.5742H20.7305C21.0938 24.5742 21.375 24.293 21.375 23.9297V21.6562H24.375C24.7383 21.6562 25.043 21.3633 25.043 21C25.043 20.6484 24.7383 20.3438 24.375 20.3438H20.7305C20.3672 20.3438 20.0859 20.6484 20.0859 21V23.2734H16.9453C16.5703 23.2734 16.3008 23.5781 16.3008 23.9297V26.2031H13.1602C12.8086 26.2031 12.5273 26.4844 12.5273 26.8477V29.1328H9.38672C9.01172 29.1328 8.74219 29.4141 8.74219 29.7656C8.74219 30.1289 9.01172 30.4336 9.38672 30.4336Z" fill="black" fill-opacity="0.85"/>
</svg>
