<svg width="28" height="28" viewBox="0 0 28 28" fill="none" xmlns="http://www.w3.org/2000/svg">
<path d="M6.67969 24.5977H20.8945C23.3555 24.5977 24.5742 23.3789 24.5742 20.9648V6.65625C24.5742 4.24219 23.3555 3.02344 20.8945 3.02344H6.67969C4.23047 3.02344 3 4.23047 3 6.65625V20.9648C3 23.3906 4.23047 24.5977 6.67969 24.5977Z" fill="black" fill-opacity="0.85"/>
<path d="M10.5352 18.8086C10.043 18.8086 9.64453 18.4102 9.64453 17.918V10.5938L8.53125 11.4844C8.41406 11.5781 8.28516 11.6367 8.09766 11.6367C7.73438 11.6367 7.47656 11.3672 7.47656 10.9922C7.47656 10.6758 7.64062 10.4414 7.86328 10.2773L9.1875 9.24609C9.46875 9.03516 9.87891 8.75391 10.3945 8.75391C11.0273 8.75391 11.4141 9.11719 11.4141 9.73828V17.918C11.4141 18.4102 11.0156 18.8086 10.5352 18.8086ZM15.6562 15.3047C14.0508 15.3047 13.2656 13.7578 13.2656 12.1289C13.2656 10.2305 14.332 8.68359 16.1719 8.68359C18.6211 8.68359 19.3594 11.4141 19.3594 13.6992C19.3594 16.1719 18.6328 18.9141 16.1484 18.9141C14.9414 18.9141 13.8867 18.2812 13.6289 17.2266C13.5938 17.0859 13.5703 16.9336 13.5703 16.793C13.5703 16.3945 13.7812 16.0547 14.2852 16.0547C14.6484 16.0547 14.8945 16.207 15.0703 16.6055C15.293 17.1211 15.6445 17.4961 16.1953 17.4961C17.543 17.4961 17.6953 15.082 17.6953 13.7461C17.6953 13.7109 17.6953 13.6641 17.6953 13.6172H17.6484C17.3789 14.6484 16.6289 15.3047 15.6562 15.3047ZM16.1953 13.9688C17.0742 13.9688 17.4609 12.9844 17.4609 12.0469C17.4609 11.1445 17.1094 10.1016 16.1953 10.1016C15.3633 10.1016 14.9531 11.1445 14.9531 12.0469C14.9531 12.9375 15.3164 13.9688 16.1953 13.9688Z" fill="white"/>
</svg>
