<svg width="33" height="28" viewBox="0 0 33 28" fill="none" xmlns="http://www.w3.org/2000/svg">
<path d="M12.5859 8.84375V6.94531L0.785156 10.0977C0.292969 10.2266 0 10.5898 0 11.0586C0 11.6797 0.492188 12.0781 1.18359 11.9023L12.5859 8.84375ZM12.5859 13.0156V11.1055L0.785156 14.2695C0.292969 14.4102 0 14.7734 0 15.2422C0 15.8633 0.515625 16.2617 1.18359 16.0859L12.5859 13.0156ZM12.5859 17.2227V15.3008L0.785156 18.4531C0.292969 18.582 0 18.957 0 19.4141C0 20.0469 0.492188 20.4453 1.18359 20.2578L12.5859 17.2227ZM12.5859 21.3945V19.4844L0.785156 22.6367C0.292969 22.7656 0 23.1289 0 23.5977C0 24.2305 0.503906 24.6289 1.18359 24.4414L12.5859 21.3945Z" fill="black" fill-opacity="0.85"/>
<path d="M9.22266 13.8359C9.22266 16.1562 9.41016 18.5234 10.0898 20.9141C11.0625 24.2773 13.2656 25.6484 16.9336 25.6484H17.5898C25.4531 25.6484 32.6133 20.3984 32.6133 13.8359C32.6133 7.28516 25.4766 2 17.5898 2H16.9336C13.2773 2 11.0742 3.39453 10.0898 6.73438C9.41016 9.14844 9.22266 11.5156 9.22266 13.8359Z" fill="white"/>
<path d="M11.3203 13.8359C11.3203 16.0391 11.4727 18.1836 12.0938 20.3398C12.7969 22.7305 14.1211 23.5859 16.9336 23.5859H17.6016C24.457 23.5859 30.5391 19.0977 30.5391 13.8359C30.5391 8.58594 24.457 4.08594 17.6016 4.08594H16.9336C14.1328 4.08594 12.8086 4.94141 12.0938 7.33203C11.4727 9.5 11.3203 11.6445 11.3203 13.8359Z" fill="black" fill-opacity="0.85"/>
<path d="M16.4062 18.3945C15.9023 18.3945 15.5859 18.0898 15.5859 17.6211C15.5859 17.457 15.6211 17.293 15.7148 17.0586L18.75 8.85547C18.9727 8.28125 19.3711 7.98828 19.9688 7.98828C20.5664 7.98828 21 8.28125 21.2109 8.85547L24.2578 17.0586C24.3398 17.293 24.375 17.457 24.375 17.6211C24.375 18.0898 24.0469 18.3945 23.5547 18.3945C23.1562 18.3945 22.875 18.1953 22.7109 17.6914L21.9258 15.3828H18.0469L17.25 17.6914C17.0859 18.1953 16.8047 18.3945 16.4062 18.3945ZM18.4805 14.0586H21.4805L20.0391 9.875H19.9336L18.4805 14.0586Z" fill="white"/>
</svg>
