<svg width="28" height="28" viewBox="0 0 28 28" fill="none" xmlns="http://www.w3.org/2000/svg">
<path d="M20.5039 7.09766C21.9219 7.09766 23.0586 5.96094 23.0586 4.55469C23.0586 3.13672 21.9219 2 20.5039 2C19.0859 2 17.9492 3.13672 17.9492 4.55469C17.9492 5.96094 19.0859 7.09766 20.5039 7.09766ZM13.5195 26.293C18.3125 26.293 22.0391 22.5547 22.0391 17.7617C22.0391 15.5586 21.1367 14.2344 19.168 13.5664L17.3164 12.9219C17.0117 12.8281 16.9297 12.5938 17.1289 12.3008L18.3359 10.543C19.2734 9.19531 18.9336 8.08203 17.4922 7.07422L13.0391 3.95703C12.5703 3.64062 11.9844 3.62891 11.5156 3.93359L7.39062 6.71094C5.86719 7.74219 7.27344 9.60547 8.64453 8.66797L12.1484 6.30078L14.5625 7.98828C14.9727 8.28125 15.0195 8.60938 14.75 8.98438L12.8164 11.7969C11.7734 13.3086 12.6172 14.9492 14.2461 15.3711L19.3906 16.6602C19.9414 16.7891 20.2578 17.2461 20.2578 17.8789C20.2578 21.5586 17.3047 24.5 13.5312 24.5C9.72266 24.5 6.78125 21.5586 6.78125 17.7617C6.78125 16.3789 7.19141 15.1484 7.87109 14.1289C8.63281 12.9922 7.12109 12.043 6.32422 13.2383C5.50391 14.4922 5 16.0273 5 17.7617C5 22.5547 8.72656 26.293 13.5195 26.293ZM22.0742 26.293C22.8008 26.293 23.3633 25.7188 23.3633 24.9922C23.3633 24.2773 22.8008 23.7031 22.0742 23.7031C21.3477 23.7031 20.7734 24.2773 20.7734 24.9922C20.7734 25.7188 21.3477 26.293 22.0742 26.293Z" fill="black" fill-opacity="0.85"/>
</svg>
