<svg width="28" height="28" viewBox="0 0 28 28" fill="none" xmlns="http://www.w3.org/2000/svg">
<path d="M13.9531 25.9062C20.4922 25.9062 25.9062 20.4805 25.9062 13.9531C25.9062 7.41406 20.4805 2 13.9414 2C7.41406 2 2 7.41406 2 13.9531C2 20.4805 7.42578 25.9062 13.9531 25.9062Z" fill="black" fill-opacity="0.85"/>
<path d="M10.2734 19.0508C8.98438 19.0508 7.74219 18.4297 7.40234 17.3047C7.33203 17.1055 7.29688 16.8945 7.29688 16.6719C7.29688 16.2031 7.61328 15.9102 8.10547 15.9102C8.49219 15.9102 8.75 16.1094 8.86719 16.4961C9.00781 17.0586 9.40625 17.6445 10.2734 17.6445C11.1758 17.6445 11.6094 16.9297 11.6094 16.0977C11.6094 15.0547 11.0469 14.4922 10.0391 14.4922H9.72266C9.32422 14.4922 9.05469 14.2578 9.05469 13.8594C9.05469 13.4609 9.3125 13.2031 9.72266 13.2031H10.0156C10.918 13.2031 11.4102 12.5586 11.4102 11.6797C11.4102 10.8828 11.0234 10.2734 10.2266 10.2734C9.55858 10.2734 9.17188 10.7187 8.98438 11.4336C8.86718 11.8555 8.62109 12.0078 8.21094 12.0078C7.71875 12.0078 7.46094 11.6914 7.46094 11.293C7.46094 11.082 7.49609 10.8711 7.55469 10.6367C7.90625 9.57031 8.98437 8.86719 10.2266 8.86719C11.8086 8.86719 13.0625 9.81641 13.0625 11.4922C13.0625 12.5 12.5234 13.4844 11.4336 13.7656V13.8125C12.4531 13.918 13.3555 14.6562 13.3555 16.1562C13.3555 17.9609 12.0195 19.0508 10.2734 19.0508ZM17.6211 19.0859C16.5312 19.0859 15.4531 18.4531 15.0312 17.4688C14.9375 17.2344 14.8555 16.9648 14.8555 16.6836C14.8555 16.2383 15.1367 15.957 15.5938 15.957C15.9102 15.957 16.1797 16.1328 16.3203 16.5312C16.543 17.1875 16.918 17.668 17.5977 17.668C18.4883 17.668 18.8516 16.6484 18.8516 15.6406C18.8516 14.75 18.5117 13.6836 17.6211 13.6836C17.1406 13.6836 16.8359 13.9648 16.5547 14.3633C16.3086 14.6914 16.1094 14.8203 15.7812 14.8203C15.2188 14.8203 14.9844 14.4102 14.9844 13.9531C14.9844 13.7891 14.9961 13.6016 15.0078 13.4141L15.1953 10.1094C15.2422 9.47656 15.5234 9.06641 16.168 9.06641H19.4844C19.8945 9.06641 20.1641 9.38281 20.1641 9.78125C20.1641 10.2148 19.9062 10.5078 19.4844 10.5078H16.6484L16.4492 13.4258H16.5078C16.8125 12.7344 17.4805 12.4062 18.1953 12.4062C19.7422 12.4062 20.5508 13.9297 20.5508 15.5938C20.5508 17.5039 19.5078 19.0859 17.6211 19.0859Z" fill="white"/>
</svg>
