<svg width="28" height="28" viewBox="0 0 28 28" fill="none" xmlns="http://www.w3.org/2000/svg">
<g clip-path="url(#clip0_2124_24739)">
<path d="M13.8477 12.4078C20.9492 12.4078 25.6953 10.1344 25.6953 6.71252C25.6953 3.29065 20.9492 1.00549 13.8477 1.00549C6.73438 1.00549 2 3.29065 2 6.71252C2 10.1344 6.73438 12.4078 13.8477 12.4078ZM13.8477 10.5211C7.87109 10.5211 3.88672 8.98596 3.88672 6.71252C3.88672 4.43908 7.87109 2.89221 13.8477 2.89221C19.8242 2.89221 23.8086 4.43908 23.8086 6.71252C23.8086 8.98596 19.8242 10.5211 13.8477 10.5211ZM13.8477 18.3375C21.2188 18.3375 25.6953 16.2867 25.6953 11.3766V6.71252H23.8086V11.3766C23.8086 15.1031 20.0469 16.4508 13.8477 16.4508C7.64844 16.4508 3.88672 15.1031 3.88672 11.3766V6.71252H2V11.3766C2 16.2867 6.46484 18.3375 13.8477 18.3375ZM6.99219 12.7711V10.5797H5.45703V12.7711C5.45703 13.193 5.80859 13.5446 6.23047 13.5446C6.65234 13.5446 6.99219 13.193 6.99219 12.7711ZM10.5898 13.568V11.3766H9.05469V13.568C9.05469 13.9899 9.39453 14.3414 9.81641 14.3414C10.2383 14.3414 10.5898 13.9899 10.5898 13.568ZM14.4688 13.8727V11.6813H12.9336V13.8727C12.9336 14.2946 13.2852 14.6344 13.707 14.6344C14.1289 14.6344 14.4688 14.2946 14.4688 13.8727ZM18.3594 13.568V11.3766H16.8242V13.568C16.8242 13.9899 17.1758 14.3414 17.5977 14.3414C18.0195 14.3414 18.3594 13.9899 18.3594 13.568ZM21.957 12.7711V10.5797H20.4219V12.7711C20.4219 13.193 20.7617 13.5446 21.1836 13.5446C21.6055 13.5446 21.957 13.193 21.957 12.7711Z" fill="black" fill-opacity="0.85"/>
<path d="M23.1641 23.7516C23.1641 23.2125 22.707 22.6852 22.0039 22.943C19.8594 23.6696 17.4336 24.068 14.9141 24.068C12.3945 24.068 9.96871 23.6696 7.8359 22.943L7.24996 24.6188C9.58199 25.4039 12.207 25.8375 14.9141 25.8375C17.6211 25.8375 20.2461 25.3922 22.5781 24.6188C23.0117 24.4781 23.1641 24.1031 23.1641 23.7516ZM8.24605 26.7516L10.0156 21.6891C10.2851 20.9274 9.53512 20.3649 8.9023 20.5875L4.8359 22.0055C4.2734 22.193 4.07418 22.7555 4.39058 23.2594L6.7109 26.9156C7.07418 27.4899 7.98824 27.4664 8.24605 26.7516Z" fill="black" fill-opacity="0.85"/>
</g>
<defs>
<clipPath id="clip0_2124_24739">
<rect width="23.6953" height="26.3196" fill="white" transform="translate(2 1)"/>
</clipPath>
</defs>
</svg>
