<svg width="29" height="29" viewBox="0 0 29 29" fill="none" xmlns="http://www.w3.org/2000/svg">
<g clip-path="url(#clip0_2124_45936)">
<path d="M13.7562 6.37451C15.5258 6.37451 16.932 4.92139 16.932 3.21045C16.932 1.45264 15.5258 0.0112305 13.7562 0.0112305C11.9867 0.0112305 10.6039 1.45264 10.6039 3.21045C10.6039 4.95654 11.9867 6.37451 13.7562 6.37451ZM7.65075 18.2339L16.7445 8.15576C15.8539 7.82764 14.8695 7.67529 13.7562 7.67529C9.66638 7.67529 7.24059 9.65576 7.24059 12.9604C7.24059 13.7456 7.28747 14.812 7.40466 15.9135L7.65075 18.2339ZM19.8734 18.2456L20.1195 15.9135C20.2367 14.812 20.2836 13.7456 20.2836 12.9604C20.2836 11.3315 19.7094 10.0073 18.5844 9.10498L11.389 17.144C12.1742 17.0034 12.9711 16.9682 13.7562 16.9682C15.7836 16.9682 17.8109 17.226 19.8734 18.2456ZM10.2523 28.7924C11.0961 28.6753 11.6468 28.0776 11.5414 27.0346L10.9672 21.7495H16.557L15.9828 27.0346C15.8773 28.0776 16.4281 28.6753 17.2601 28.7924C18.1273 28.8862 18.7953 28.3471 18.9008 27.3276L19.6273 20.355C17.7758 19.2885 15.725 18.8784 13.7562 18.8784C11.7992 18.8784 9.74841 19.2885 7.89684 20.355L8.62341 27.3276C8.72888 28.3471 9.39684 28.8862 10.2523 28.7924ZM18.5844 9.09326L21.3031 6.08154C21.7719 5.54248 21.7367 4.96826 21.2797 4.58154C20.8578 4.20654 20.307 4.20654 19.8031 4.75732L16.7445 8.15576C17.4242 8.40185 18.0336 8.7417 18.5844 9.09326ZM4.28747 21.9956C4.70934 22.4292 5.28356 22.4174 5.77575 21.9135C6.432 21.2924 7.08825 20.7651 7.89684 20.355L7.65075 18.2339C6.44372 18.7964 5.38903 19.605 4.39294 20.5424C3.92419 20.9878 3.90075 21.5737 4.28747 21.9956ZM23.2367 21.9956C23.6234 21.5854 23.6 20.9995 23.143 20.5542C22.1351 19.605 21.0805 18.8081 19.8734 18.2456L19.6273 20.355C20.4359 20.7651 21.0922 21.2924 21.7484 21.9135C22.2406 22.4174 22.8148 22.4292 23.2367 21.9956Z" fill="black" fill-opacity="0.85"/>
</g>
<defs>
<clipPath id="clip0_2124_45936">
<rect width="19.4902" height="28.8633" fill="white" transform="translate(4.01758 0.0112305)"/>
</clipPath>
</defs>
</svg>
