<svg width="28" height="28" viewBox="0 0 28 28" fill="none" xmlns="http://www.w3.org/2000/svg">
<path d="M7.00781 24.2695H20.9883C21.5742 24.2695 22.0078 23.8828 22.0078 23.2969C22.0078 22.6992 21.5742 22.3359 20.9883 22.3359H9.71484V22.2773C11.3906 21.7148 12.6094 19.6641 12.6094 17.1211C12.6094 14.2031 11.3672 12.5273 11.3672 9.5625C11.3672 6.84375 13.2539 4.99219 16.5234 4.99219C18.5156 4.99219 19.418 5.53125 20.0625 5.53125C20.6602 5.53125 20.9414 5.17969 20.9414 4.66406C20.9414 4.17188 20.6484 3.83203 19.9922 3.5625C18.9609 3.15234 17.7539 3 16.3477 3C11.8477 3 9.07031 5.625 9.07031 9.72656C9.07031 12.3633 10.4062 15.0234 10.4062 17.2148C10.4062 19.8633 8.80078 21.5977 6.92578 22.125C6.28125 22.3242 6 22.6641 6 23.2617C6 23.8477 6.42188 24.2695 7.00781 24.2695ZM6.17578 11.4727C6.17578 11.9531 6.5625 12.3281 7.03125 12.3281H18.457C18.9258 12.3281 19.3125 11.9531 19.3125 11.4727C19.3125 10.9922 18.9258 10.6172 18.457 10.6172H7.03125C6.5625 10.6172 6.17578 10.9922 6.17578 11.4727ZM6.17578 15.9375C6.17578 16.418 6.5625 16.793 7.03125 16.793H18.457C18.9258 16.793 19.3125 16.418 19.3125 15.9375C19.3125 15.457 18.9258 15.082 18.457 15.082H7.03125C6.5625 15.082 6.17578 15.457 6.17578 15.9375Z" fill="black" fill-opacity="0.85"/>
</svg>
