<svg width="28" height="29" viewBox="0 0 28 29" fill="none" xmlns="http://www.w3.org/2000/svg">
<g clip-path="url(#clip0_2124_49984)">
<path d="M7.42188 3.10547C3.84766 3.10547 1 5.73047 1 9.07031C1 12.7734 3.19141 13.6875 3.78906 19.9102C3.82422 20.2852 4.04688 20.5547 4.45703 20.5547H10.3984C10.8086 20.5547 11.0312 20.2852 11.0664 19.9102C11.6641 13.6875 13.8555 12.7734 13.8555 9.07031C13.8555 5.73047 11.0078 3.10547 7.42188 3.10547ZM4.43359 22.7812H10.4336C10.7969 22.7812 11.1016 22.5 11.1016 22.125C11.1016 21.7383 10.7969 21.457 10.4336 21.457H4.43359C4.07031 21.457 3.77734 21.75 3.77734 22.125C3.77734 22.4883 4.07031 22.7812 4.43359 22.7812ZM7.44531 25.7109C8.98047 25.7109 10.3164 24.8789 10.3398 23.6836H4.55078C4.5625 24.8789 5.875 25.7109 7.44531 25.7109Z" fill="black" fill-opacity="0.85"/>
<path d="M17.5117 0C12.6484 0 8.74609 3.59766 8.74609 8.21484C8.74609 13.3828 11.3711 14.4609 12.0039 20.9648C12.1094 22.1016 12.918 22.875 14.0547 22.875H20.9688C22.1055 22.875 22.9141 22.1016 23.0195 20.9648C23.6406 14.4727 26.2773 13.3828 26.2773 8.21484C26.2773 3.59766 22.375 0 17.5117 0Z" fill="white"/>
<path d="M17.5117 1.37109C13.3633 1.37109 10.1055 4.38281 10.1055 8.21484C10.1055 12.457 12.6484 13.5117 13.3516 20.8359C13.3984 21.2461 13.6094 21.5039 14.0547 21.5039H20.9688C21.4023 21.5039 21.625 21.2461 21.6602 20.8359C22.3633 13.5117 24.918 12.457 24.918 8.21484C24.918 4.38281 21.6484 1.37109 17.5117 1.37109ZM14.0195 23.8945H21.0039C21.3906 23.8945 21.6836 23.6133 21.6836 23.2266C21.6836 22.8398 21.3906 22.5586 21.0039 22.5586H14.0195C13.6328 22.5586 13.3516 22.8398 13.3516 23.2266C13.3516 23.6133 13.6328 23.8945 14.0195 23.8945ZM17.5117 27.1055C19.2344 27.1055 20.6992 26.2383 20.7812 24.9492H14.2422C14.3125 26.2383 15.7773 27.1055 17.5117 27.1055Z" fill="black" fill-opacity="0.85"/>
</g>
<defs>
<clipPath id="clip0_2124_49984">
<rect width="25.2773" height="28.4883" fill="white" transform="translate(1)"/>
</clipPath>
</defs>
</svg>
