<svg width="37" height="28" viewBox="0 0 37 28" fill="none" xmlns="http://www.w3.org/2000/svg">
<path d="M26.9677 26.2656V3.97656C26.9677 2.05469 25.913 1 23.9912 1H13.3623C11.4287 1 10.4091 2.05469 10.4091 3.97656V26.2656H12.2959V4C12.2959 3.27344 12.6474 2.88672 13.3974 2.88672H23.9677C24.6826 2.88672 25.0693 3.26172 25.0693 4V26.2656H26.9677ZM8.55762 26.1836C8.55762 26.7109 8.96778 27.1445 9.4834 27.1445H27.8701C28.3857 27.1445 28.8193 26.7109 28.8193 26.1836C28.8193 25.6797 28.3857 25.2578 27.8701 25.2578H9.4834C8.9795 25.2578 8.55762 25.668 8.55762 26.1836ZM14.9326 13.9023H22.4326C23.206 13.9023 23.7451 13.4336 23.7451 12.7188V5.61719C23.7451 4.90234 23.1943 4.41016 22.4326 4.41016H14.9326C14.1591 4.41016 13.6318 4.90234 13.6318 5.61719V12.7188C13.6318 13.4336 14.1591 13.9023 14.9326 13.9023ZM30.331 8.71094H31.6552L31.6669 6.09766C31.6669 5.73438 31.3623 5.42969 30.999 5.42969C30.624 5.42969 30.331 5.73438 30.331 6.09766V8.71094ZM34.749 8.71094V6.09766C34.749 5.73438 34.456 5.42969 34.0693 5.42969C33.7177 5.42969 33.413 5.73438 33.413 6.09766V8.71094H34.749ZM26.4287 16.4336H27.0849C27.624 16.4336 27.9638 16.7383 27.9638 17.3242V21.2031C27.9638 22.8672 28.9599 23.875 30.624 23.875C32.288 23.875 33.2841 22.8672 33.2841 21.2031V15.1445C33.2841 13.9844 34.1513 13.6562 34.7021 13.2344C35.5459 12.6016 36.0029 11.7227 36.0029 10.6797V8.92188C36.0029 8.64062 35.8388 8.47656 35.581 8.47656H29.3349C29.0771 8.47656 28.913 8.64062 28.913 8.92188V10.6797C28.913 11.7227 29.3701 12.6016 30.2138 13.2344C30.7646 13.6562 31.6318 13.9844 31.6318 15.1445V21.2031C31.6318 21.8359 31.2451 22.2227 30.624 22.2227C29.9912 22.2227 29.6162 21.8359 29.6162 21.2031V17.3242C29.6162 15.707 28.6552 14.7812 27.0849 14.7812H26.4287V16.4336Z" fill="black" fill-opacity="0.85"/>
<path d="M0.34283 13.5039C-0.102483 13.7617 -0.12592 14.3828 0.34283 14.6523L6.36627 18.2031C6.85845 18.4961 7.43267 18.2617 7.43267 17.7578V10.375C7.43267 9.88281 6.8233 9.66016 6.36627 9.92969L0.34283 13.5039Z" fill="black" fill-opacity="0.85"/>
</svg>
