<svg width="28" height="28" viewBox="0 0 28 28" fill="none" xmlns="http://www.w3.org/2000/svg">
<path d="M3.30431 17.7891C1.81602 22.043 5.85899 24.9727 13.8512 24.9727C21.8434 24.9727 25.8981 22.043 24.3981 17.7891L21.7731 10.2539V6.29297C21.7731 4.45312 18.609 3.03516 13.8512 3.03516C9.10509 3.03516 5.95274 4.45312 5.95274 6.29297V10.207L3.30431 17.7891ZM5.09727 18.375L7.14805 12.5742C8.39024 13.6055 10.7574 14.25 13.8512 14.25C16.8981 14.25 19.3004 13.6055 20.566 12.5859L22.6051 18.375C23.5777 21.1523 20.2731 23.0742 13.8512 23.0742C7.4293 23.0742 4.12462 21.1523 5.09727 18.375ZM7.83946 6.29297C7.83946 5.53125 10.2535 4.80469 13.8512 4.80469C17.4723 4.80469 19.8863 5.53125 19.8863 6.29297C19.8863 7.04297 17.4723 7.78125 13.8512 7.78125C10.2535 7.78125 7.83946 7.04297 7.83946 6.29297Z" fill="black" fill-opacity="0.85"/>
</svg>
