<svg width="28" height="28" viewBox="0 0 28 28" fill="none" xmlns="http://www.w3.org/2000/svg">
<g clip-path="url(#clip0_2124_88367)">
<path d="M13.9531 25.9062C20.4922 25.9062 25.9062 20.4805 25.9062 13.9531C25.9062 7.41406 20.4805 2 13.9414 2C7.41406 2 2 7.41406 2 13.9531C2 20.4805 7.42578 25.9062 13.9531 25.9062ZM13.9531 23.9141C8.42188 23.9141 4.00391 19.4844 4.00391 13.9531C4.00391 8.42188 8.41016 3.99219 13.9414 3.99219C19.4727 3.99219 23.9141 8.42188 23.9141 13.9531C23.9141 19.4844 19.4844 23.9141 13.9531 23.9141Z" fill="black" fill-opacity="0.85"/>
<path d="M14.1758 21.3594C14.6445 21.3594 14.9844 20.9609 15.2188 20.3398L19.5078 9.125C19.625 8.82031 19.6836 8.5625 19.6836 8.33984C19.6836 7.91797 19.4375 7.67188 19.0156 7.67188C18.793 7.67188 18.5352 7.73047 18.2305 7.84766L6.95703 12.1602C6.41797 12.3594 5.99609 12.6992 5.99609 13.168C5.99609 13.7656 6.44141 13.9648 7.07422 14.1641L10.625 15.2305C11.0469 15.3711 11.2813 15.3594 11.5625 15.1016L18.7227 8.38672C18.8047 8.30469 18.8984 8.32812 18.9688 8.38672C19.0508 8.44531 19.0508 8.55078 18.9688 8.63281L12.2891 15.8281C12.0312 16.0977 12.0078 16.3086 12.125 16.7539L13.1797 20.2109C13.3906 20.8789 13.5664 21.3594 14.1758 21.3594Z" fill="black" fill-opacity="0.85"/>
</g>
<defs>
<clipPath id="clip0_2124_88367">
<rect width="23.9062" height="23.918" fill="white" transform="translate(2 2)"/>
</clipPath>
</defs>
</svg>
