<svg width="28" height="32" viewBox="0 0 28 32" fill="none" xmlns="http://www.w3.org/2000/svg">
<g clip-path="url(#clip0_2124_50190)">
<path d="M7.67969 25.7695H13.375V5.39062H7.67969C5.23047 5.39062 4 6.60938 4 9.02344V22.1484C4 24.5625 5.23047 25.7695 7.67969 25.7695ZM7.70312 23.8828C6.53125 23.8828 5.88672 23.2617 5.88672 22.043V9.12891C5.88672 7.91016 6.53125 7.27734 7.70312 7.27734H11.4883V23.8828H7.70312ZM20.9219 25.7695C23.3828 25.7695 24.6016 24.5508 24.6016 22.1484V9.02344C24.6016 6.60938 23.3828 5.39062 20.9219 5.39062H15.2031V25.7695H20.9219ZM20.8984 23.8828H17.0898V7.27734H20.8984C22.0469 7.27734 22.7148 7.91016 22.7148 9.12891V22.043C22.7148 23.2617 22.0469 23.8828 20.8984 23.8828ZM14.2891 0C13.7734 0 13.375 0.410156 13.375 0.914062V5.39062H15.2031V0.914062C15.2031 0.410156 14.8047 0 14.2891 0ZM14.2891 31.1602C14.8047 31.1602 15.2031 30.7617 15.2031 30.2461V25.7695H13.375V30.2461C13.375 30.7617 13.7734 31.1602 14.2891 31.1602Z" fill="black" fill-opacity="0.85"/>
</g>
<defs>
<clipPath id="clip0_2124_50190">
<rect width="20.6016" height="31.1836" fill="white" transform="translate(4)"/>
</clipPath>
</defs>
</svg>
