<svg width="28" height="28" viewBox="0 0 28 28" fill="none" xmlns="http://www.w3.org/2000/svg">
<path d="M6.67969 24.5977H20.8945C23.3555 24.5977 24.5742 23.3789 24.5742 20.9648V6.65625C24.5742 4.24219 23.3555 3.02344 20.8945 3.02344H6.67969C4.23047 3.02344 3 4.23047 3 6.65625V20.9648C3 23.3906 4.23047 24.5977 6.67969 24.5977ZM6.70312 22.7109C5.53125 22.7109 4.88672 22.0898 4.88672 20.8711V6.75C4.88672 5.53125 5.53125 4.91016 6.70312 4.91016H20.8711C22.0312 4.91016 22.6875 5.53125 22.6875 6.75V20.8711C22.6875 22.0898 22.0312 22.7109 20.8711 22.7109H6.70312Z" fill="black" fill-opacity="0.85"/>
<path d="M9.33984 18.6914C9.76172 18.6914 10.1133 18.3516 10.1133 17.9297V16.1836L10.7227 15.5977L12.5391 18.2461C12.8438 18.7148 13.3359 18.7383 13.6641 18.5156C13.9453 18.3047 14.0859 17.8828 13.7578 17.4023L11.8359 14.6484L13.7578 12.6445C14.0859 12.3047 14.0039 11.918 13.7695 11.707C13.5117 11.4375 13.043 11.3555 12.6914 11.7539L10.1367 14.6016H10.1133V9.60938C10.1133 9.1875 9.76172 8.83594 9.33984 8.83594C8.91797 8.83594 8.57812 9.1875 8.57812 9.60938V17.9297C8.57812 18.3516 8.91797 18.6914 9.33984 18.6914ZM15.9492 18.7031C16.3594 18.7031 16.6758 18.375 16.6758 17.9766V14.5547C16.6758 13.6992 16.9688 12.9844 17.8359 12.9844C18.1172 12.9844 18.4219 12.9258 18.5977 12.7734C18.7383 12.668 18.832 12.4922 18.832 12.2695C18.832 12.0352 18.7617 11.8594 18.6328 11.7305C18.4805 11.5898 18.2812 11.5195 18.0469 11.5195C17.3086 11.5195 16.8164 12.1641 16.6758 12.9141H16.6289V12.1992C16.6289 11.8125 16.3125 11.5078 15.9258 11.5078C15.5391 11.5078 15.2344 11.8125 15.2344 12.1992V17.9766C15.2344 18.375 15.5508 18.7031 15.9492 18.7031ZM19.3945 18.6328C19.8867 18.6328 20.2969 18.2344 20.2969 17.7188C20.2969 17.2266 19.8867 16.8164 19.3945 16.8164C18.8789 16.8164 18.4805 17.2266 18.4805 17.7188C18.4805 18.2344 18.8789 18.6328 19.3945 18.6328Z" fill="black" fill-opacity="0.85"/>
</svg>
