<svg width="28" height="28" viewBox="0 0 28 28" fill="none" xmlns="http://www.w3.org/2000/svg">
<path d="M13.9531 25.9062C20.4922 25.9062 25.9062 20.4805 25.9062 13.9531C25.9062 7.41406 20.4805 2 13.9414 2C7.41406 2 2 7.41406 2 13.9531C2 20.4805 7.42578 25.9062 13.9531 25.9062ZM13.9531 23.9141C8.42188 23.9141 4.00391 19.4844 4.00391 13.9531C4.00391 8.42188 8.41016 3.99219 13.9414 3.99219C19.4727 3.99219 23.9141 8.42188 23.9141 13.9531C23.9141 19.4844 19.4844 23.9141 13.9531 23.9141Z" fill="black" fill-opacity="0.85"/>
<path d="M15.8281 15.7578C16.6016 14.9844 16.6016 13.8828 15.8281 13.1094C15.6875 12.9688 15.3828 12.7461 15.1953 12.6172L9.51172 8.66797C9.23047 8.48047 8.94922 8.53906 8.77344 8.70312C8.60938 8.87891 8.55078 9.14844 8.75 9.42969L12.6992 15.1133C12.8281 15.3008 13.0508 15.6172 13.1914 15.7578C13.9648 16.5195 15.0664 16.5195 15.8281 15.7578ZM9.20703 19.6719C9.75781 19.6719 10.2148 19.2148 10.2148 18.6641C10.2148 18.1133 9.75781 17.6562 9.20703 17.6562C8.65625 17.6562 8.19922 18.1133 8.19922 18.6641C8.19922 19.2148 8.65625 19.6719 9.20703 19.6719ZM7.22656 14.9609C7.77734 14.9609 8.23438 14.5039 8.23438 13.9531C8.23438 13.4023 7.77734 12.9453 7.22656 12.9453C6.67578 12.9453 6.21875 13.4023 6.21875 13.9531C6.21875 14.5039 6.67578 14.9609 7.22656 14.9609ZM13.9414 8.23438C14.4922 8.23438 14.9492 7.77734 14.9492 7.22656C14.9492 6.67578 14.4922 6.21875 13.9414 6.21875C13.3906 6.21875 12.9336 6.67578 12.9336 7.22656C12.9336 7.77734 13.3906 8.23438 13.9414 8.23438ZM18.6992 10.25C19.25 10.25 19.707 9.79297 19.707 9.24219C19.707 8.67969 19.25 8.23438 18.6992 8.23438C18.1484 8.23438 17.6914 8.67969 17.6914 9.24219C17.6914 9.79297 18.1484 10.25 18.6992 10.25ZM20.6797 14.9609C21.2305 14.9609 21.6875 14.5039 21.6875 13.9531C21.6875 13.4023 21.2305 12.9453 20.6797 12.9453C20.1289 12.9453 19.6719 13.4023 19.6719 13.9531C19.6719 14.5039 20.1289 14.9609 20.6797 14.9609ZM18.6992 19.6719C19.25 19.6719 19.707 19.2148 19.707 18.6641C19.707 18.1133 19.25 17.6562 18.6992 17.6562C18.1484 17.6562 17.6914 18.1133 17.6914 18.6641C17.6914 19.2148 18.1484 19.6719 18.6992 19.6719Z" fill="black" fill-opacity="0.85"/>
</svg>
