<svg width="28" height="28" viewBox="0 0 28 28" fill="none" xmlns="http://www.w3.org/2000/svg">
<g clip-path="url(#clip0_2124_88347)">
<path d="M13.9531 25.9062C20.4922 25.9062 25.9062 20.4805 25.9062 13.9531C25.9062 7.41406 20.4805 2 13.9414 2C7.41406 2 2 7.41406 2 13.9531C2 20.4805 7.42578 25.9062 13.9531 25.9062ZM13.9531 23.9141C8.42188 23.9141 4.00391 19.4844 4.00391 13.9531C4.00391 8.42188 8.41016 3.99219 13.9414 3.99219C19.4727 3.99219 23.9141 8.42188 23.9141 13.9531C23.9141 19.4844 19.4844 23.9141 13.9531 23.9141Z" fill="black" fill-opacity="0.85"/>
<path d="M9.18359 19.2734H18.8984C19.918 19.2734 20.5156 18.6758 20.5156 17.5156V12.6055H7.39062V17.5156C7.39062 18.6758 8 19.2734 9.18359 19.2734ZM7.39062 11.6563H20.5156V11.2227C20.5156 10.0625 19.9062 9.46484 18.7227 9.46484H13.1445C12.7344 9.46484 12.5234 9.35938 12.2422 9.125L11.8789 8.84375C11.4922 8.53906 11.2109 8.43359 10.6719 8.43359H8.94922C7.96484 8.43359 7.39062 9.00781 7.39062 10.1328V11.6563Z" fill="black" fill-opacity="0.85"/>
</g>
<defs>
<clipPath id="clip0_2124_88347">
<rect width="23.9062" height="23.918" fill="white" transform="translate(2 2)"/>
</clipPath>
</defs>
</svg>
