<svg width="28" height="28" viewBox="0 0 28 28" fill="none" xmlns="http://www.w3.org/2000/svg">
<g clip-path="url(#clip0_2124_89300)">
<path d="M2.28769 16.8311C0.588474 18.5303 0.565036 20.71 2.25254 22.3975L7.52597 27.6826C7.88926 28.0459 8.51035 28.0459 8.87363 27.6826C9.23691 27.3076 9.23691 26.71 8.87363 26.3467L3.78769 21.2607C2.75644 20.2295 2.73301 19.0342 3.75254 18.0264L17.9791 3.7998C18.9869 2.79199 20.2057 2.79199 21.2135 3.81152L26.3111 8.89746C26.6744 9.26074 27.2603 9.27246 27.6236 8.90918C27.9986 8.5459 27.9986 7.94824 27.6236 7.57324L22.3502 2.2998C20.6627 0.612305 18.483 0.624023 16.7838 2.33496L2.28769 16.8311ZM3.97519 22.8193L5.31113 24.1553L24.1432 5.32324L22.8072 3.9873L3.97519 22.8193ZM21.8111 6.82324L20.7096 7.94824L24.0846 11.3232C24.401 11.6514 24.9049 11.6514 25.1978 11.335C25.5143 11.0303 25.526 10.5264 25.2096 10.21L21.8111 6.82324ZM19.4908 9.14355L18.3775 10.2686L21.7643 13.6436C22.0807 13.96 22.5846 13.96 22.8775 13.6553C23.1822 13.3506 23.1939 12.8467 22.8893 12.542L19.4908 9.14355ZM17.1705 11.4639L16.0689 12.5889L19.4439 15.9756C19.7603 16.2803 20.2643 16.2803 20.5572 15.9873C20.8736 15.6709 20.8853 15.167 20.5689 14.8623L17.1705 11.4639ZM14.8619 13.7842L13.7486 14.8975L17.1353 18.2842C17.4518 18.6006 17.9557 18.6006 18.2486 18.2842C18.5533 17.9795 18.565 17.4756 18.2603 17.1709L14.8619 13.7842ZM12.5416 16.1045L11.4283 17.2178L14.815 20.6162C15.1197 20.9209 15.6236 20.9209 15.9283 20.6162C16.233 20.2998 16.2447 19.7959 15.94 19.4912L12.5416 16.1045ZM10.2213 18.4248L9.10801 19.5381L12.4947 22.9365C12.8111 23.2412 13.315 23.2412 13.608 22.9365C13.9127 22.6201 13.9244 22.1162 13.6197 21.8115L10.2213 18.4248ZM7.90097 20.7451L6.78769 21.8584L10.1744 25.2568C10.4791 25.5615 10.983 25.5615 11.2877 25.2568C11.5924 24.9521 11.6041 24.4365 11.2994 24.1318L7.90097 20.7451Z" fill="black" fill-opacity="0.85"/>
</g>
<defs>
<clipPath id="clip0_2124_89300">
<rect width="26.9049" height="27.9551" fill="white" transform="translate(1)"/>
</clipPath>
</defs>
</svg>
