<svg width="28" height="28" viewBox="0 0 28 28" fill="none" xmlns="http://www.w3.org/2000/svg">
<path d="M6.67969 24.5977H20.8945C23.3555 24.5977 24.5742 23.3789 24.5742 20.9648V6.65625C24.5742 4.24219 23.3555 3.02344 20.8945 3.02344H6.67969C4.23047 3.02344 3 4.23047 3 6.65625V20.9648C3 23.3906 4.23047 24.5977 6.67969 24.5977Z" fill="black" fill-opacity="0.85"/>
<path d="M20.7539 14.8242C20.7539 15.2812 20.3672 15.668 19.9336 15.6562L15.6797 15.6094C15.457 15.5977 15.2461 15.5039 15.1172 15.3633C14.7891 15.0469 14.7891 14.6016 15.1055 14.2852C15.2695 14.1211 15.457 14.0508 15.668 14.0508L17.4492 14.0742L18.1289 14.0977L17.6953 13.7109L12.1758 8.17969C11.8594 7.86328 11.8477 7.39453 12.1758 7.06641C12.4805 6.75 12.9609 6.75 13.2891 7.06641L18.8203 12.5977L19.1953 13.0078L19.1602 12.3633L19.1367 10.5703C19.125 10.3594 19.2188 10.1602 19.3711 10.0078C19.6992 9.67969 20.1562 9.67969 20.4727 10.0078C20.6133 10.1484 20.707 10.3828 20.707 10.5937L20.7539 14.8242ZM6.82031 12.7734C6.82031 12.3047 7.18359 11.9648 7.62891 11.9648L11.8828 12C12.0703 12 12.3047 12.1055 12.4453 12.2344C12.7734 12.5742 12.7734 13.0195 12.457 13.3359C12.293 13.4883 12.1055 13.5703 11.9063 13.5703L10.1016 13.5352L9.42188 13.5117L9.85547 13.8867L15.3867 19.4297C15.7148 19.7461 15.7148 20.2031 15.3867 20.5312C15.0703 20.8477 14.6016 20.8594 14.2852 20.5312L8.74219 15.0117L8.34375 14.5781L8.39062 15.2461L8.41406 17.0391C8.41406 17.25 8.34375 17.4375 8.19141 17.6016C7.875 17.918 7.40625 17.918 7.08984 17.6016C6.94922 17.4727 6.87891 17.25 6.86719 17.0273L6.82031 12.7734Z" fill="white"/>
</svg>
