<svg width="28" height="28" viewBox="0 0 28 28" fill="none" xmlns="http://www.w3.org/2000/svg">
<path d="M6.67969 24.5977H20.8945C23.3555 24.5977 24.5742 23.3789 24.5742 20.9648V6.65625C24.5742 4.24219 23.3555 3.02344 20.8945 3.02344H6.67969C4.23047 3.02344 3 4.23047 3 6.65625V20.9648C3 23.3906 4.23047 24.5977 6.67969 24.5977Z" fill="black" fill-opacity="0.85"/>
<path d="M10.1953 18.8906C8.88281 18.8906 7.66406 18.2695 7.3125 17.1445C7.25391 16.9453 7.21875 16.7344 7.21875 16.5117C7.21875 16.043 7.53516 15.75 8.00391 15.75C8.40234 15.75 8.66016 15.9492 8.76562 16.3477C8.92969 16.8984 9.31641 17.4844 10.1953 17.4844C11.0859 17.4844 11.5312 16.7812 11.5312 15.9492C11.5312 14.8945 10.957 14.332 9.9375 14.332H9.63281C9.23438 14.332 8.96484 14.0977 8.96484 13.6992C8.96484 13.3008 9.22266 13.043 9.63281 13.043H9.92578C10.8281 13.043 11.3203 12.3984 11.3203 11.5195C11.3203 10.7227 10.9336 10.1133 10.1367 10.1133C9.46875 10.1133 9.08203 10.5586 8.89453 11.2734C8.76562 11.6953 8.53125 11.8477 8.10938 11.8477C7.64062 11.8477 7.37109 11.5312 7.37109 11.1328C7.37109 10.9336 7.39453 10.7109 7.46484 10.4766C7.80469 9.41016 8.89453 8.70703 10.1367 8.70703C11.7188 8.70703 12.9727 9.65625 12.9727 11.332C12.9727 12.3398 12.4453 13.3242 11.3438 13.6172V13.6523C12.3516 13.7578 13.2656 14.4961 13.2656 15.9961C13.2656 17.8125 11.918 18.8906 10.1953 18.8906ZM15.3164 18.6797C14.7773 18.6797 14.5078 18.3867 14.5078 17.9766C14.5078 17.5898 14.7422 17.2969 14.9531 17.0039L17.0508 14.3203C17.6953 13.5117 18.375 12.5273 18.375 11.5547C18.375 10.6992 17.9648 10.0664 17.2383 10.0664C16.5469 10.0664 16.2422 10.5703 16.0312 11.3789C15.8906 11.7773 15.6445 11.9648 15.2461 11.9648C14.7891 11.9648 14.5195 11.6484 14.5195 11.1914C14.5195 9.9375 15.6914 8.66016 17.2383 8.66016C18.9141 8.66016 20.0273 9.84375 20.0273 11.4727C20.0273 12.5391 19.6289 13.4297 18.4219 14.9297L16.6523 17.1562V17.25H19.5234C19.9453 17.25 20.2031 17.5078 20.2031 17.9766C20.2031 18.3984 19.957 18.6797 19.5234 18.6797H15.3164Z" fill="white"/>
</svg>
