<svg width="28" height="28" viewBox="0 0 28 28" fill="none" xmlns="http://www.w3.org/2000/svg">
<g clip-path="url(#clip0_2124_62615)">
<path d="M20.5352 23.2891C20.5352 22.9961 20.4297 22.7383 20.2188 22.5273L10.9492 13.457V14.8984L20.2188 5.83984C20.4297 5.64062 20.5352 5.37109 20.5352 5.07812C20.5352 4.45703 20.0664 4 19.4688 4C19.1523 4 18.918 4.11719 18.6953 4.31641L9.40234 13.3984C9.19141 13.6094 9.0625 13.8789 9.0625 14.1836C9.0625 14.4883 9.19141 14.7461 9.41406 14.9688L18.6953 24.0391C18.9062 24.2617 19.1523 24.3672 19.457 24.3672C20.0664 24.3672 20.5352 23.8984 20.5352 23.2891ZM9.09766 23.3477V5.04297C9.09766 4.43359 8.66406 4 8.04297 4C7.43359 4 7 4.43359 7 5.04297V23.3477C7 23.9453 7.43359 24.3672 8.04297 24.3672C8.66406 24.3672 9.09766 23.9453 9.09766 23.3477Z" fill="black" fill-opacity="0.85"/>
</g>
<defs>
<clipPath id="clip0_2124_62615">
<rect width="13.5352" height="20.3789" fill="white" transform="translate(7 4)"/>
</clipPath>
</defs>
</svg>
