<svg width="28" height="28" viewBox="0 0 28 28" fill="none" xmlns="http://www.w3.org/2000/svg">
<path d="M13.9531 25.918C20.4922 25.918 25.9062 20.5039 25.9062 13.9648C25.9062 7.4375 20.4805 2.01172 13.9414 2.01172C7.41406 2.01172 2 7.4375 2 13.9648C2 20.5039 7.42578 25.918 13.9531 25.918Z" fill="black" fill-opacity="0.85"/>
<path d="M12.6647 12.125L14.8326 9.28906C15.3483 8.62109 16.0983 8.63281 16.6022 9.28906L18.7584 12.125C18.1842 12.2891 17.7975 12.7227 17.4342 12.7227C16.9772 12.7227 16.567 12.043 15.7115 12.043C14.8561 12.043 14.4342 12.7227 13.9772 12.7227C13.6022 12.7227 13.2272 12.2891 12.6647 12.125ZM10.1451 17.8555C9.21935 17.8555 8.98498 16.9531 9.45372 16.3438L12.1373 12.8281C12.5709 12.6055 13.1568 13.4258 13.9772 13.4258C14.8912 13.4258 15.2311 12.7461 15.7115 12.7461C16.192 12.7461 16.5318 13.4258 17.4342 13.4258C18.2428 13.4258 18.8522 12.6055 19.274 12.8281L21.9459 16.3438C22.4264 16.9531 22.192 17.8555 21.2779 17.8555H10.1451ZM6.65294 17.8555C5.69201 17.8555 5.45763 16.9297 5.99669 16.25L9.86388 11.4336C10.3912 10.8008 11.0826 10.8008 11.5983 11.4336L11.8561 11.7383L8.72716 15.8047C8.24669 16.4492 8.21154 17.2578 8.52794 17.8555H6.65294Z" fill="white"/>
</svg>
