<svg width="28" height="28" viewBox="0 0 28 28" fill="none" xmlns="http://www.w3.org/2000/svg">
<g clip-path="url(#clip0_2124_50246)">
<path d="M2.75391 23.1289H25.0547C26.707 23.1289 27.8086 22.0273 27.8086 20.375V7.76562C27.8086 6.11328 26.707 5.01172 25.0547 5.01172H2.75391C1.10156 5.01172 0 6.11328 0 7.76562V20.375C0 22.0273 1.10156 23.1289 2.75391 23.1289ZM2.77734 21.2422C2.23828 21.2422 1.88672 20.8672 1.88672 20.293V7.84766C1.88672 7.27344 2.23828 6.89844 2.77734 6.89844H25.0312C25.5703 6.89844 25.9219 7.27344 25.9219 7.84766V20.293C25.9219 20.8672 25.5703 21.2422 25.0312 21.2422H2.77734ZM4.37109 19.8594H15.9023C16.5703 19.8594 17.0039 19.4258 17.0039 18.7578V9.38281C17.0039 8.71484 16.5703 8.28125 15.9023 8.28125H4.37109C3.70312 8.28125 3.26953 8.71484 3.26953 9.38281V18.7578C3.26953 19.4258 3.70312 19.8594 4.37109 19.8594ZM4.88672 18.5586C4.71094 18.5586 4.57031 18.4297 4.57031 18.2422V9.89844C4.57031 9.71094 4.71094 9.58203 4.88672 9.58203H15.3867C15.5625 9.58203 15.7031 9.71094 15.7031 9.89844V18.2422C15.7031 18.4297 15.5625 18.5586 15.3867 18.5586H4.88672ZM18.5156 22.1211H19.8164V6.00781H18.5156V22.1211ZM19.2305 18.2305H26.8828V16.9297H19.2305V18.2305ZM21.1758 10.5664H24.5625C24.6797 10.5664 24.7852 10.4727 24.7852 10.3555V8.50391C24.7852 8.38672 24.6797 8.28125 24.5625 8.28125H21.1758C21.0586 8.28125 20.9531 8.38672 20.9531 8.50391V10.3555C20.9531 10.4727 21.0586 10.5664 21.1758 10.5664ZM21.5508 12.5234H24.1875C24.5391 12.5234 24.7852 12.2891 24.7852 11.9375C24.7852 11.5742 24.5391 11.3398 24.1875 11.3398H21.5508C21.1992 11.3398 20.9531 11.5742 20.9531 11.9375C20.9531 12.2891 21.1992 12.5234 21.5508 12.5234ZM21.5508 14.5039H24.1875C24.5391 14.5039 24.7852 14.2578 24.7852 13.9062C24.7852 13.5547 24.5391 13.3203 24.1875 13.3203H21.5508C21.1992 13.3203 20.9531 13.5547 20.9531 13.9062C20.9531 14.2578 21.1992 14.5039 21.5508 14.5039Z" fill="black" fill-opacity="0.85"/>
</g>
<defs>
<clipPath id="clip0_2124_50246">
<rect width="27.8086" height="18.1289" fill="white" transform="translate(0 5)"/>
</clipPath>
</defs>
</svg>
