<svg width="39" height="31" viewBox="0 0 39 31" fill="none" xmlns="http://www.w3.org/2000/svg">
<path d="M10.4287 22.2626L12.9951 20.7861L12.0576 19.1572L9.56153 20.5986C9.11621 20.8681 8.79981 20.7275 8.47168 20.1767L7.65137 18.7939C7.03028 17.7275 7.38184 16.6494 8.71778 15.6533L12.1982 13.0166L14.3662 8.92672C15.4443 6.89937 16.2881 6.12594 19.2295 4.40328L21.0459 3.33687C23.1318 2.12984 25.2529 2.05953 27.8896 3.25484L30.1514 2.62203C30.8662 2.42281 31.1826 2.65719 31.499 3.21969L33.1279 6.02047C33.4209 6.52437 33.3506 6.8525 32.9521 7.08687L30.8545 8.30562L31.7803 9.94625L34.124 8.57515C35.3662 7.87203 35.6592 6.64156 34.9443 5.38765L33.1514 2.27047C32.4834 1.12203 31.5459 0.325158 29.706 0.723596L27.8896 1.13375C26.167 0.524377 23.3545 -0.155311 20.1084 1.71969L18.2803 2.77437C15.0576 4.63765 13.9326 5.71578 12.7021 8.04781L10.7217 11.7626L7.55762 14.1416C5.49512 15.7001 4.90918 17.7978 6.01075 19.7431L6.90137 21.2783C7.70996 22.708 9.0459 23.0595 10.4287 22.2626ZM16.2529 18.9111L28.5928 11.7744L27.6553 10.1572L15.3037 17.2705L16.2529 18.9111ZM15.5967 21.6416C17.2021 20.7158 17.7178 18.747 16.8037 17.165C15.8779 15.5595 13.8975 15.0439 12.3154 15.9462C10.7334 16.8837 10.1943 18.8525 11.1201 20.4345C12.0342 22.0283 14.0146 22.5556 15.5967 21.6416ZM14.6709 20.0009C13.9443 20.4228 13.1475 20.2119 12.7607 19.5087C12.3389 18.7939 12.5498 17.997 13.2646 17.5869C13.956 17.1767 14.7646 17.3876 15.1631 18.0908C15.585 18.7939 15.374 19.6142 14.6709 20.0009ZM31.2764 12.5947C32.8701 11.6689 33.3857 9.70015 32.4951 8.1064C31.5459 6.51265 29.5654 5.98531 27.9834 6.91109C26.4014 7.83687 25.8623 9.7939 26.7998 11.3994C27.7021 12.9697 29.6826 13.5205 31.2764 12.5947ZM30.3389 10.9541C29.6123 11.3759 28.8271 11.1533 28.417 10.4501C28.0068 9.74703 28.2178 8.95015 28.9326 8.52828C29.6357 8.12984 30.4326 8.34078 30.8428 9.05562C31.2529 9.75875 31.042 10.5556 30.3389 10.9541Z" fill="black" fill-opacity="0.85"/>
<path d="M6.93662 29.7626C7.19443 30.2314 7.78037 30.3603 8.22568 30.1259L38.4483 12.665C38.8819 12.4306 39.0343 11.8447 38.7882 11.3994C38.5069 10.9423 37.9327 10.79 37.4991 11.0361L7.27646 28.497C6.84287 28.7431 6.6788 29.3173 6.93662 29.7626ZM5.28427 23.7509L2.83505 19.4853C2.4249 18.7705 1.59287 18.9462 1.34677 19.6494L0.0577108 23.2587C-0.118071 23.7509 0.116304 24.1494 0.643648 24.2548L4.39365 24.9462C5.14365 25.0869 5.69443 24.4541 5.28427 23.7509Z" fill="black" fill-opacity="0.85"/>
</svg>
