<svg width="28" height="28" viewBox="0 0 28 28" fill="none" xmlns="http://www.w3.org/2000/svg">
<path d="M3 21.7344C3 22.25 3.42188 22.6836 3.9375 22.6836C4.46484 22.6836 4.88672 22.25 4.88672 21.7344V5.96094C4.88672 5.44531 4.46484 5.02344 3.9375 5.02344C3.42188 5.02344 3 5.44531 3 5.96094V21.7344ZM22.6875 21.7344C22.6875 22.25 23.1211 22.6836 23.6367 22.6836C24.1523 22.6836 24.5742 22.25 24.5742 21.7344V5.96094C24.5742 5.44531 24.1523 5.02344 23.6367 5.02344C23.1211 5.02344 22.6875 5.44531 22.6875 5.96094V21.7344Z" fill="black" fill-opacity="0.85"/>
<path d="M13.8281 18.7461C15.6562 18.7461 16.793 17.3867 16.793 15.5586C16.793 13.9883 15.9023 12.6406 14.3555 12.6406C13.582 12.6406 12.9258 13.0039 12.6094 13.6016H12.5625L12.7734 10.9297H15.75C16.1367 10.9297 16.3945 10.6719 16.3945 10.2734C16.3945 9.875 16.1484 9.61719 15.75 9.61719H12.3516C11.7422 9.61719 11.4609 9.94531 11.4258 10.5547L11.168 13.9766C11.1328 14.4922 11.4023 14.8789 11.918 14.8789C12.293 14.8789 12.457 14.7266 12.6914 14.457C12.9727 14.0703 13.3711 13.8359 13.8398 13.8359C14.7656 13.8359 15.2227 14.668 15.2227 15.6055C15.2227 16.6016 14.7188 17.4336 13.8281 17.4336C13.125 17.4336 12.6563 16.9766 12.4219 16.3672C12.2695 16.0391 12.0352 15.875 11.7188 15.875C11.3086 15.875 11.0508 16.1328 11.0508 16.543C11.0508 16.6836 11.0742 16.8242 11.1094 16.9531C11.4023 18.0781 12.6914 18.7461 13.8281 18.7461Z" fill="black" fill-opacity="0.85"/>
</svg>
