<svg width="31" height="29" viewBox="0 0 31 29" fill="none" xmlns="http://www.w3.org/2000/svg">
<g clip-path="url(#clip0_2124_45967)">
<path d="M8.79102 24.8136H19.5137C21.2364 24.8136 22.1504 23.8761 22.1504 22.0245V13.9503C22.1504 12.1105 21.2364 11.173 19.5137 11.173H8.79102C7.06836 11.173 6.1543 12.1105 6.1543 13.9503V22.0245C6.1543 23.8761 7.06836 24.8136 8.79102 24.8136ZM18.377 12.087H20.2286V8.13781C20.2286 5.17297 22.127 3.61438 24.3184 3.61438C26.5098 3.61438 28.4082 5.17297 28.4082 8.13781V10.7394C28.4082 11.4308 28.8184 11.7823 29.3457 11.7823C29.8497 11.7823 30.2715 11.4659 30.2715 10.7394V8.38391C30.2715 3.97766 27.3887 1.84485 24.3184 1.84485C21.2481 1.84485 18.377 3.97766 18.377 8.38391V12.087Z" fill="black" fill-opacity="0.85"/>
<path d="M0.107225 16.2941C0.493943 17.6066 1.88848 18.3566 3.38848 17.7823L3.89238 17.5831C3.89238 18.0519 3.88066 18.4152 3.81035 18.7081L2.55644 23.9933C1.73613 27.3917 6.43535 28.5753 7.2791 25.3761H7.88848C8.73223 28.5753 13.4549 27.38 12.6229 23.9933L11.3338 18.7081C11.2752 18.4152 11.287 18.0519 11.287 17.5831L11.7791 17.7823C13.2791 18.3566 14.6854 17.6066 15.0604 16.2941C15.4237 15.1105 14.8495 13.8214 13.5252 13.2823L10.7713 12.1456C10.994 11.6886 11.1229 11.1847 11.1229 10.6456C11.1229 8.70032 9.56426 7.10657 7.59551 7.10657C5.66191 7.10657 4.05644 8.68861 4.05644 10.6456C4.05644 11.1847 4.19707 11.6886 4.41973 12.1339L1.6541 13.2823C0.329881 13.8331 -0.244338 15.1105 0.107225 16.2941Z" fill="white"/>
<path d="M7.59495 12.5675C8.67307 12.5675 9.51682 11.712 9.51682 10.6456C9.51682 9.57923 8.67307 8.71204 7.59495 8.71204C6.54026 8.71204 5.66135 9.57923 5.66135 10.6456C5.66135 11.712 6.54026 12.5675 7.59495 12.5675ZM7.58323 19.4581C7.84104 19.4581 8.05198 19.6105 8.12229 19.9034L9.43479 24.9777C9.73948 26.1027 11.2864 25.7042 11.1223 24.6378C11.052 24.2159 9.92698 19.9269 9.76292 18.9659C9.64573 18.2628 9.6926 16.4698 9.6926 15.6613C9.6926 15.4386 9.89182 15.2863 10.1379 15.3917L12.3762 16.2941C12.9856 16.5402 13.4074 16.2472 13.5246 15.8488C13.6535 15.4503 13.4778 14.9816 12.9153 14.7589L10.5012 13.7628C9.9387 13.5284 9.43479 13.4113 8.87229 13.3292C8.48557 13.5167 8.05198 13.6339 7.58323 13.6339C7.11448 13.6339 6.6926 13.5167 6.29417 13.3292C5.73167 13.4113 5.22776 13.5284 4.66526 13.7628L2.2512 14.7589C1.70042 14.9816 1.52463 15.4503 1.65354 15.8488C1.75901 16.2472 2.18088 16.5402 2.79026 16.2941L5.04026 15.3917C5.27463 15.2863 5.47385 15.4386 5.47385 15.6613C5.47385 16.4698 5.53245 18.2628 5.41526 18.9659C5.2512 19.9269 4.11448 24.2159 4.04417 24.6378C3.8801 25.7042 5.4387 26.1027 5.73167 24.9777L7.04417 19.9034C7.1262 19.6105 7.32542 19.4581 7.58323 19.4581Z" fill="black" fill-opacity="0.85"/>
</g>
<defs>
<clipPath id="clip0_2124_45967">
<rect width="30.2654" height="27.2449" fill="white" transform="translate(0.00585938 0.00561523)"/>
</clipPath>
</defs>
</svg>
