<svg width="28" height="28" viewBox="0 0 28 28" fill="none" xmlns="http://www.w3.org/2000/svg">
<g clip-path="url(#clip0_2124_24601)">
<path d="M7.67969 26.8086H19.6211C22.0703 26.8086 23.3008 25.6016 23.3008 23.1875V5.66797C23.3008 3.25391 22.0703 2.03516 19.6211 2.03516H7.67969C5.23047 2.03516 4 3.25391 4 5.66797V23.1875C4 25.6016 5.23047 26.8086 7.67969 26.8086ZM7.70312 24.9219C6.53125 24.9219 5.88672 24.3008 5.88672 23.082V5.77344C5.88672 4.55469 6.53125 3.92188 7.70312 3.92188H19.5977C20.7578 3.92188 21.4141 4.55469 21.4141 5.77344V23.082C21.4141 24.3008 20.7578 24.9219 19.5977 24.9219H7.70312ZM4.23438 10.6484H8.54688C10.3516 10.6484 11.2422 9.76953 11.2422 8V2.39844H9.82422V7.90625C9.82422 8.75 9.34375 9.23047 8.51172 9.23047H4.23438V10.6484Z" fill="black" fill-opacity="0.85"/>
</g>
<defs>
<clipPath id="clip0_2124_24601">
<rect width="19.3008" height="24.8086" fill="white" transform="translate(4 2)"/>
</clipPath>
</defs>
</svg>
