<svg width="28" height="28" viewBox="0 0 28 28" fill="none" xmlns="http://www.w3.org/2000/svg">
<path d="M6.67969 24.5977H20.8945C23.3555 24.5977 24.5742 23.3789 24.5742 20.9648V6.65625C24.5742 4.24219 23.3555 3.02344 20.8945 3.02344H6.67969C4.23047 3.02344 3 4.23047 3 6.65625V20.9648C3 23.3906 4.23047 24.5977 6.67969 24.5977Z" fill="black" fill-opacity="0.85"/>
<path d="M11.6719 19.8516C11.2148 19.8516 10.875 19.5469 10.875 19.0781V17.8008H9.90234C9.55078 17.8008 9.32812 17.5312 9.32812 17.1914C9.32812 16.8516 9.55078 16.5938 9.90234 16.5938H10.875V9.11719C10.875 8.625 11.1797 8.30859 11.6602 8.30859H16.9336C17.3555 8.30859 17.6836 8.58984 17.6836 9.04688C17.6836 9.48047 17.3555 9.77344 16.9336 9.77344H12.457V13.1836H16.4883C16.9219 13.1836 17.2383 13.4648 17.2383 13.9102C17.2383 14.3438 16.9219 14.6367 16.4883 14.6367H12.457V16.5938H14.9414C15.293 16.5938 15.5391 16.8516 15.5391 17.1914C15.5391 17.5312 15.293 17.8008 14.9414 17.8008H12.457V19.0664C12.457 19.5234 12.1406 19.8516 11.6719 19.8516Z" fill="white"/>
</svg>
