<svg width="28" height="28" viewBox="0 0 28 28" fill="none" xmlns="http://www.w3.org/2000/svg">
<path d="M3 21.7344C3 22.25 3.42188 22.6836 3.9375 22.6836C4.46484 22.6836 4.88672 22.25 4.88672 21.7344V5.96094C4.88672 5.44531 4.46484 5.02344 3.9375 5.02344C3.42188 5.02344 3 5.44531 3 5.96094V21.7344ZM22.6875 21.7344C22.6875 22.25 23.1211 22.6836 23.6367 22.6836C24.1523 22.6836 24.5742 22.25 24.5742 21.7344V5.96094C24.5742 5.44531 24.1523 5.02344 23.6367 5.02344C23.1211 5.02344 22.6875 5.44531 22.6875 5.96094V21.7344Z" fill="black" fill-opacity="0.85"/>
<path d="M13.6055 18.7227C16.0781 18.7227 16.8516 16.332 16.8516 13.9531C16.8516 11.6094 15.9492 9.39453 13.6523 9.39453C11.9062 9.39453 10.7109 10.707 10.7109 12.5352C10.7109 14.1055 11.6602 15.4414 13.207 15.4414C14.2852 15.4414 15.0234 14.7617 15.2812 13.8945H15.3047C15.3047 13.9297 15.3047 13.9648 15.3047 14.0117C15.3164 15.4414 15.0352 17.4102 13.6641 17.4102C13.0547 17.4102 12.6797 17.0938 12.4102 16.5898C12.2344 16.2617 12.0234 16.0977 11.6602 16.0977C11.2266 16.0977 10.9922 16.4023 10.9922 16.7773C10.9922 17.1172 11.2148 17.5273 11.4961 17.8086C11.9766 18.3945 12.7383 18.7227 13.6055 18.7227ZM13.6641 14.1992C12.7617 14.1992 12.2812 13.3555 12.2812 12.4648C12.2812 11.5742 12.7852 10.707 13.6875 10.707C14.5664 10.707 15.082 11.5977 15.082 12.5C15.082 13.4141 14.543 14.1992 13.6641 14.1992Z" fill="black" fill-opacity="0.85"/>
</svg>
