<svg width="28" height="28" viewBox="0 0 28 28" fill="none" xmlns="http://www.w3.org/2000/svg">
<path d="M23.2383 4.38281C22.043 3.1875 20.3555 3 18.3516 3H9.22266C7.25391 3 5.56641 3.1875 4.37109 4.38281C3.17578 5.57812 3 7.25391 3 9.22266V18.3516C3 20.3555 3.17578 22.0312 4.37109 23.2266C5.56641 24.4219 7.25391 24.6094 9.24609 24.6094H18.3516C20.3555 24.6094 22.043 24.4219 23.2383 23.2266C24.4336 22.0312 24.6094 20.3555 24.6094 18.3516V9.24609C24.6094 7.24219 24.4336 5.57812 23.2383 4.38281Z" fill="black" fill-opacity="0.85"/>
<path d="M17.5781 16.8047C17.0273 16.8047 16.6758 16.4297 16.6758 15.8555V13.7812L16.8516 11.8945L15.1055 13.7578L10.6875 18.1875C10.5117 18.3633 10.2773 18.4688 9.98438 18.4688C9.45703 18.4688 9.10547 18.1172 9.10547 17.5664C9.10547 17.332 9.22266 17.0859 9.39844 16.9102L13.8281 12.4805L15.7148 10.7227L13.9219 10.9102H11.7422C11.1562 10.9102 10.7812 10.5586 10.7812 10.0313C10.7812 9.49219 11.1445 9.14062 11.7187 9.14062H17.4492C18.0703 9.14062 18.457 9.42188 18.457 10.1367V15.832C18.457 16.3945 18.1055 16.8047 17.5781 16.8047Z" fill="white"/>
</svg>
