<svg width="28" height="28" viewBox="0 0 28 28" fill="none" xmlns="http://www.w3.org/2000/svg">
<path d="M18.5391 11.0469C19.957 11.0469 21.1055 9.91013 21.1055 8.49216C21.1055 7.07419 19.957 5.92575 18.5391 5.92575C17.1211 5.92575 15.9844 7.07419 15.9844 8.49216C15.9844 9.91013 17.1211 11.0469 18.5391 11.0469ZM13.8633 15.793C15.9375 15.793 16.5234 14.5156 18.3633 14.0469L10.2422 5.59763C9.71484 5.05857 8.94141 4.98825 8.30859 5.43357L3.71484 8.70309C2.91797 9.26559 3 10.0976 3.45703 10.5898C3.83203 11.0117 4.52344 11.1875 5.17969 10.7187L8.90625 8.082L11.0156 10.25C11.25 10.4961 11.3203 10.8711 10.957 11.1172L6.62109 13.9648C7.125 13.9179 7.66406 13.9062 8.28516 13.9297C10.9453 14.0469 11.4375 15.793 13.8633 15.793ZM0.65625 18.8867H1.83984C4.96875 18.8867 5.68359 16.9648 7.85156 16.9648C10.0195 16.9648 10.7344 18.8867 13.8633 18.8867C17.0039 18.8867 17.707 16.9648 19.8867 16.9648C22.0547 16.9648 22.7578 18.8867 25.8984 18.8867H27.082C27.4453 18.8867 27.7383 18.6055 27.7383 18.2422C27.7383 17.8789 27.4453 17.5859 27.082 17.5859H25.8984C23.6484 17.5859 22.8867 15.6641 19.8867 15.6641C16.875 15.6641 16.1133 17.5859 13.8633 17.5859C11.6133 17.5859 10.8633 15.6641 7.85156 15.6641C4.85156 15.6641 4.08984 17.5859 1.83984 17.5859H0.65625C0.28125 17.5859 0 17.8789 0 18.2422C0 18.6055 0.28125 18.8867 0.65625 18.8867ZM0.960938 22.1445C1.34766 22.1445 1.65234 21.8398 1.65234 21.4648C1.65234 21.0781 1.34766 20.7734 0.960938 20.7734C0.585938 20.7734 0.28125 21.0781 0.28125 21.4648C0.28125 21.8398 0.585938 22.1445 0.960938 22.1445ZM3.16406 21.7461C3.53906 21.7461 3.84375 21.4531 3.84375 21.0664C3.84375 20.6797 3.53906 20.3867 3.16406 20.3867C2.77734 20.3867 2.47266 20.6797 2.47266 21.0664C2.47266 21.4531 2.77734 21.7461 3.16406 21.7461ZM5.21484 20.7852C5.60156 20.7852 5.90625 20.4805 5.90625 20.0938C5.90625 19.7188 5.60156 19.4141 5.21484 19.4141C4.83984 19.4141 4.53516 19.7188 4.53516 20.0938C4.53516 20.4805 4.83984 20.7852 5.21484 20.7852ZM7.42969 20.2578C7.81641 20.2578 8.12109 19.9531 8.12109 19.5781C8.12109 19.1914 7.81641 18.8867 7.42969 18.8867C7.05469 18.8867 6.75 19.1914 6.75 19.5781C6.75 19.9531 7.05469 20.2578 7.42969 20.2578ZM9.64453 20.7852C10.0312 20.7852 10.3242 20.4805 10.3242 20.0938C10.3242 19.7188 10.0312 19.4141 9.64453 19.4141C9.25781 19.4141 8.96484 19.7188 8.96484 20.0938C8.96484 20.4805 9.25781 20.7852 9.64453 20.7852ZM11.7188 21.7461C12.1055 21.7461 12.4102 21.4531 12.4102 21.0664C12.4102 20.6797 12.1055 20.3867 11.7188 20.3867C11.3438 20.3867 11.0391 20.6797 11.0391 21.0664C11.0391 21.4531 11.3438 21.7461 11.7188 21.7461ZM13.8867 22.1445C14.2617 22.1445 14.5664 21.8398 14.5664 21.4648C14.5664 21.0781 14.2617 20.7734 13.8867 20.7734C13.5 20.7734 13.1953 21.0781 13.1953 21.4648C13.1953 21.8398 13.5 22.1445 13.8867 22.1445ZM16.043 21.7461C16.4297 21.7461 16.7227 21.4531 16.7227 21.0664C16.7227 20.6797 16.4297 20.3867 16.043 20.3867C15.6562 20.3867 15.3633 20.6797 15.3633 21.0664C15.3633 21.4531 15.6562 21.7461 16.043 21.7461ZM18.1172 20.7852C18.5039 20.7852 18.8086 20.4805 18.8086 20.0938C18.8086 19.7188 18.5039 19.4141 18.1172 19.4141C17.7422 19.4141 17.4375 19.7188 17.4375 20.0938C17.4375 20.4805 17.7422 20.7852 18.1172 20.7852ZM20.332 20.2578C20.7188 20.2578 21.0117 19.9531 21.0117 19.5781C21.0117 19.1914 20.7188 18.8867 20.332 18.8867C19.9453 18.8867 19.6523 19.1914 19.6523 19.5781C19.6523 19.9531 19.9453 20.2578 20.332 20.2578ZM22.5469 20.7852C22.9336 20.7852 23.2266 20.4805 23.2266 20.0938C23.2266 19.7188 22.9336 19.4141 22.5469 19.4141C22.1602 19.4141 21.8672 19.7188 21.8672 20.0938C21.8672 20.4805 22.1602 20.7852 22.5469 20.7852ZM24.6094 21.7461C24.9961 21.7461 25.2891 21.4531 25.2891 21.0664C25.2891 20.6797 24.9961 20.3867 24.6094 20.3867C24.2227 20.3867 23.9297 20.6797 23.9297 21.0664C23.9297 21.4531 24.2227 21.7461 24.6094 21.7461ZM26.7891 22.1445C27.1758 22.1445 27.4805 21.8398 27.4805 21.4648C27.4805 21.0781 27.1758 20.7734 26.7891 20.7734C26.4141 20.7734 26.1094 21.0781 26.1094 21.4648C26.1094 21.8398 26.4141 22.1445 26.7891 22.1445Z" fill="black" fill-opacity="0.85"/>
</svg>
