<svg width="28" height="28" viewBox="0 0 28 28" fill="none" xmlns="http://www.w3.org/2000/svg">
<path d="M6.67969 24.5977H20.8945C23.3555 24.5977 24.5742 23.3789 24.5742 20.9648V6.65625C24.5742 4.24219 23.3555 3.02344 20.8945 3.02344H6.67969C4.23047 3.02344 3 4.23047 3 6.65625V20.9648C3 23.3906 4.23047 24.5977 6.67969 24.5977Z" fill="black" fill-opacity="0.85"/>
<path d="M11.0156 19.1836C10.3828 19.1836 10.0664 18.75 10.0664 18.0938V9.26953C10.0664 8.61328 10.3828 8.17969 11.0156 8.17969H16.7344C17.2031 8.17969 17.5312 8.46094 17.5312 8.96484C17.5312 9.44531 17.2031 9.76172 16.7344 9.76172H12V12.8437H16.418C16.8867 12.8437 17.2148 13.1133 17.2148 13.6172C17.2148 14.0859 16.8867 14.3555 16.418 14.3555H12V17.6016H16.7344C17.2031 17.6016 17.5312 17.8945 17.5312 18.3984C17.5312 18.8789 17.2031 19.1836 16.7344 19.1836H11.0156Z" fill="white"/>
</svg>
