<svg width="28" height="28" viewBox="0 0 28 28" fill="none" xmlns="http://www.w3.org/2000/svg">
<path d="M13.9531 25.9062C20.4922 25.9062 25.9062 20.4805 25.9062 13.9531C25.9062 7.41406 20.4805 2 13.9414 2C7.41406 2 2 7.41406 2 13.9531C2 20.4805 7.42578 25.9062 13.9531 25.9062Z" fill="black" fill-opacity="0.85"/>
<path d="M9.65234 12.9688C8.15234 12.9688 6.93359 11.7617 6.93359 10.2617C6.93359 8.76172 8.15234 7.54297 9.65234 7.54297C11.1641 7.54297 12.3711 8.76172 12.3711 10.2617C12.3711 11.7617 11.1641 12.9688 9.65234 12.9688ZM18.2305 12.9688C16.7305 12.9688 15.5117 11.7617 15.5117 10.2617C15.5117 8.76172 16.7305 7.54297 18.2305 7.54297C19.7305 7.54297 20.9492 8.76172 20.9492 10.2617C20.9492 11.7617 19.7305 12.9688 18.2305 12.9688ZM13.9414 22.7188C12.4414 22.7188 11.2227 21.5 11.2227 20C11.2227 18.5117 12.4414 17.2812 13.9414 17.2812C15.4414 17.2812 16.6602 18.5117 16.6602 20C16.6602 21.5 15.4414 22.7188 13.9414 22.7188ZM7.83594 18.8984C6.78125 18.8984 5.90234 18.0078 5.90234 16.9531C5.90234 15.875 6.78125 15.0078 7.83594 15.0078C8.91406 15.0078 9.78125 15.875 9.78125 16.9531C9.78125 18.0078 8.91406 18.8984 7.83594 18.8984ZM20.0469 18.8984C18.9688 18.8984 18.1016 18.0078 18.1016 16.9531C18.1016 15.875 18.9688 15.0078 20.0469 15.0078C21.1133 15.0078 21.9922 15.875 21.9922 16.9531C21.9922 18.0078 21.1133 18.8984 20.0469 18.8984Z" fill="white"/>
</svg>
