<svg width="28" height="28" viewBox="0 0 28 28" fill="none" xmlns="http://www.w3.org/2000/svg">
<path d="M13.9531 25.9062C20.4922 25.9062 25.9062 20.4805 25.9062 13.9531C25.9062 7.41406 20.4805 2 13.9414 2C7.41406 2 2 7.41406 2 13.9531C2 20.4805 7.42578 25.9062 13.9531 25.9062Z" fill="black" fill-opacity="0.85"/>
<path d="M14.0117 19.6836C10.8125 19.6836 8.78516 17.4219 8.78516 13.8477C8.78516 10.2852 10.8125 8 13.9648 8C16.25 8 17.8555 9.13672 18.4414 10.6719C18.5117 10.8711 18.5586 11.0234 18.5586 11.2344C18.5586 11.75 18.2305 12.0781 17.7148 12.0781C17.3398 12.0781 17.1055 11.8906 16.9062 11.4805C16.4023 10.2734 15.3828 9.61719 14 9.61719C12.0547 9.61719 10.7539 11.3164 10.7539 13.8477C10.7539 16.3906 12.0664 18.0781 14.0352 18.0781C15.875 18.0781 16.8242 17.1172 16.8242 15.6875V14.8906H14.5859C14.1406 14.8906 13.8711 14.5625 13.8711 14.1875C13.8711 13.7773 14.1406 13.4844 14.5859 13.4844H17.7266C18.3711 13.4844 18.7578 13.8711 18.7578 14.5391V15.4297C18.7578 17.9375 17 19.6836 14.0117 19.6836Z" fill="white"/>
</svg>
