<svg width="28" height="29" viewBox="0 0 28 29" fill="none" xmlns="http://www.w3.org/2000/svg">
<g clip-path="url(#clip0_2124_46018)">
<path d="M14.5254 26.066C18.6386 26.066 21.5449 23.8394 23.1035 19.4449L25.166 13.6441C25.3066 13.2457 25.3769 12.8589 25.3769 12.5074C25.3769 11.2652 24.4394 10.398 23.2441 10.398C22.4355 10.398 21.709 10.8785 21.3105 11.8042L20.5488 13.6792C20.5254 13.7261 20.4902 13.7613 20.4433 13.7613C20.3847 13.7613 20.3613 13.7144 20.3613 13.6558V4.25732C20.3613 2.88623 19.5058 2.01904 18.1933 2.01904C17.7129 2.01904 17.2793 2.19482 16.9511 2.49951C16.7988 1.29248 16.0254 0.554199 14.8652 0.554199C13.7285 0.554199 12.9316 1.31591 12.7558 2.47607C12.4629 2.1831 12.041 2.01904 11.6191 2.01904C10.4004 2.01904 9.59179 2.87451 9.59179 4.17529V5.47607C9.27539 5.14795 8.79492 4.97216 8.30273 4.97216C7.08398 4.97216 6.24023 5.86279 6.24023 7.18701V17.2535C6.24023 22.7378 9.56836 26.066 14.5254 26.066ZM14.4668 24.4488C10.3184 24.4488 7.78711 21.7769 7.78711 17.066V7.35107C7.78711 6.84716 8.10351 6.50732 8.5957 6.50732C9.07617 6.50732 9.42773 6.84716 9.42773 7.35107V13.3394C9.42773 13.773 9.77929 14.066 10.1543 14.066C10.5527 14.066 10.916 13.773 10.916 13.3394V4.38623C10.916 3.88232 11.2324 3.53076 11.7129 3.53076C12.2051 3.53076 12.5449 3.88232 12.5449 4.38623V12.7417C12.5449 13.1753 12.8965 13.4683 13.2832 13.4683C13.6816 13.4683 14.0332 13.1753 14.0332 12.7417V2.9331C14.0332 2.4292 14.373 2.06591 14.8652 2.06591C15.334 2.06591 15.6738 2.4292 15.6738 2.9331V12.7417C15.6738 13.1519 16.0019 13.4683 16.4121 13.4683C16.8105 13.4683 17.1621 13.1519 17.1621 12.7417V4.38623C17.1621 3.88232 17.5019 3.53076 17.9824 3.53076C18.4629 3.53076 18.8027 3.88232 18.8027 4.38623V15.9175C18.8027 16.5035 19.1426 16.8433 19.6347 16.8433C20.0566 16.8433 20.4082 16.6558 20.6777 16.0699L22.3652 12.3082C22.5879 11.8042 23.0215 11.6285 23.4316 11.7808C23.8886 11.9449 24.0293 12.3785 23.8183 12.9527L21.6738 18.941C20.2441 22.9371 17.7363 24.4488 14.4668 24.4488Z" fill="black" fill-opacity="0.85"/>
<path d="M22.4834 27.1089C23.3623 27.9878 24.8389 27.9996 25.7061 27.0855C26.5732 26.1949 26.5732 24.7886 25.6943 23.898L4.88184 3.09716C3.99121 2.20654 2.53809 2.20654 1.65918 3.09716C0.780273 3.96435 0.780273 5.4292 1.65918 6.3081L22.4834 27.1089Z" fill="white"/>
<path d="M23.4443 26.148C23.7959 26.4878 24.3818 26.4996 24.7217 26.148C25.0732 25.7847 25.085 25.2222 24.7217 24.8707L3.90918 4.0581C3.55762 3.70654 2.9834 3.70654 2.62012 4.0581C2.28027 4.40966 2.28027 4.9956 2.62012 5.33545L23.4443 26.148Z" fill="black" fill-opacity="0.85"/>
</g>
<defs>
<clipPath id="clip0_2124_46018">
<rect width="25.355" height="27.7471" fill="white" transform="translate(1 0.0224609)"/>
</clipPath>
</defs>
</svg>
