<svg width="28" height="28" viewBox="0 0 28 28" fill="none" xmlns="http://www.w3.org/2000/svg">
<g clip-path="url(#clip0_2124_24792)">
<path d="M12.6131 16.0586C14.2537 16.7617 16.1521 15.9531 16.867 14.3359L19.2342 8.94531C19.949 7.31641 19.1639 5.39453 17.5232 4.67969C15.8709 3.97656 13.9725 4.75 13.2459 6.41406L10.8904 11.8047C10.1639 13.4453 10.9607 15.3438 12.6131 16.0586ZM13.7967 15.0977C12.6717 15.0977 11.7928 14.207 11.7928 13.082C11.7928 11.9688 12.6834 11.0664 13.7967 11.0664C14.9334 11.0664 15.824 11.9688 15.824 13.082C15.824 14.207 14.9334 15.0977 13.7967 15.0977ZM13.7967 14.2656C14.4881 14.2656 14.9803 13.7383 14.9803 13.082C14.9803 12.4375 14.4881 11.8984 13.7967 11.8984C13.1287 11.8984 12.6248 12.4375 12.6248 13.082C12.6248 13.7383 13.1287 14.2656 13.7967 14.2656ZM23.9334 12.6133C23.324 10.5977 21.824 9.63672 20.5467 8.55859C20.4764 8.85156 20.3943 9.12109 20.2654 9.40234L17.8982 14.793C16.9256 17.0078 14.3709 18.0273 12.156 17.1016C9.98808 16.1523 8.94511 13.7148 9.77714 11.5586C8.69902 12.8477 8.45292 14.8164 9.26152 17.043C10.7264 21.1562 14.4764 21.9297 18.156 20.4883L20.3709 19.6094C23.3826 18.4258 24.8123 15.6367 23.9334 12.6133Z" fill="black" fill-opacity="0.85"/>
<path d="M8.19531 17.4297C7.64453 15.9297 7.51562 14.4531 7.83203 13C5.62891 13.5977 4 15.6133 4 18.0156C4 20.8867 6.32031 23.207 9.16797 23.207C10.4688 23.207 11.6641 22.7383 12.5664 21.9297C10.5859 21.2852 9.02734 19.75 8.19531 17.4297Z" fill="black" fill-opacity="0.85"/>
</g>
<defs>
<clipPath id="clip0_2124_24792">
<rect width="20.1898" height="19.207" fill="white" transform="translate(4 4)"/>
</clipPath>
</defs>
</svg>
