<svg width="28" height="31" viewBox="0 0 28 31" fill="none" xmlns="http://www.w3.org/2000/svg">
<path d="M10.4141 13.5352H17.9141C18.957 13.5352 19.5664 12.9492 19.5664 11.918V3.52734C19.5664 2.49609 18.957 1.91016 17.9141 1.91016H10.4141C9.37109 1.91016 8.76172 2.49609 8.76172 3.52734V11.918C8.76172 12.9492 9.37109 13.5352 10.4141 13.5352Z" fill="black" fill-opacity="0.85"/>
<path d="M8.63281 22.0312H19.707C22.0391 22.0312 23.5742 20.5078 23.5742 18.1875V7.24219C23.5742 4.92188 22.0391 3.41016 19.707 3.41016H8.63281C6.30078 3.41016 4.75391 4.92188 4.75391 7.24219V18.1875C4.75391 20.5078 6.30078 22.0312 8.63281 22.0312Z" fill="white"/>
<path d="M8.50391 20.4375H19.8359C21.207 20.4375 21.9805 19.6641 21.9805 18.3164V7.11328C21.9805 5.76562 21.207 5.00391 19.8359 5.00391H8.50391C7.13281 5.00391 6.34766 5.76562 6.34766 7.11328V18.3164C6.34766 19.6641 7.13281 20.4375 8.50391 20.4375Z" fill="black" fill-opacity="0.85"/>
<path d="M7.56641 30.9961H20.7617C24.2539 30.9961 26.3281 28.9453 26.3281 25.4766V12.1875C26.3281 8.71875 24.2539 6.66797 20.7617 6.66797H7.56641C4.07422 6.66797 2 8.70703 2 12.1875V25.4766C2 28.9453 4.07422 30.9961 7.56641 30.9961Z" fill="white"/>
<path d="M7.56641 29.1094H20.7617C23.2109 29.1094 24.4414 27.8906 24.4414 25.4766V12.1875C24.4414 9.77344 23.2109 8.55469 20.7617 8.55469H7.56641C5.11719 8.55469 3.88672 9.76172 3.88672 12.1875V25.4766C3.88672 27.8906 5.11719 29.1094 7.56641 29.1094Z" fill="black" fill-opacity="0.85"/>
<path d="M16.1673 14.0977C15.3001 14.0977 14.597 13.4062 14.597 12.5273C14.597 11.6602 15.3001 10.9453 16.1673 10.9453C17.0345 10.9453 17.7376 11.6602 17.7376 12.5273C17.7376 13.4062 17.0345 14.0977 16.1673 14.0977ZM13.7063 20.3672C13.0852 20.0156 12.3001 19.6875 12.6516 18.4805L13.2259 16.418C13.2962 16.125 13.097 15.9727 12.8626 15.9961L11.8548 16.0664L11.5384 18.1641C11.4798 18.5977 11.222 18.8438 10.8235 18.7969C10.4134 18.7617 10.2024 18.457 10.261 18L10.5892 15.4336C10.6478 15.0234 10.929 14.7539 11.3274 14.7188L13.8704 14.543C15.1829 14.4492 15.9915 14.8008 16.6477 15.7148L17.8782 17.4375L19.7063 16.6289C20.1048 16.4531 20.4563 16.5586 20.6321 16.9219C20.8079 17.2969 20.6673 17.6484 20.2571 17.8242L17.972 18.8438C17.6673 18.9727 17.3157 18.8789 17.1282 18.5977L16.3313 17.4375C16.179 17.2148 15.8626 17.25 15.7923 17.5312L15.2649 19.3828L17.972 21.1523C18.3704 21.4336 18.429 22.043 18.0891 22.3359L15.6048 24.457C15.2063 24.7969 14.7845 24.7383 14.5384 24.4688C14.304 24.2109 14.304 23.7891 14.6907 23.4492L16.4602 21.9258L13.7063 20.3672ZM8.87824 26.6133C8.58527 26.3555 8.51495 25.875 8.90167 25.5117L11.3157 23.0977L12.1712 20.0508C12.429 20.3789 12.8157 20.6836 13.3782 20.9883L13.6009 21.1055L12.6282 23.6484C12.4993 23.9531 12.4524 23.9883 12.2649 24.1992L9.93292 26.5078C9.55792 26.8594 9.15949 26.8359 8.87824 26.6133Z" fill="white"/>
</svg>
