<svg width="38" height="28" viewBox="0 0 38 28" fill="none" xmlns="http://www.w3.org/2000/svg">
<g clip-path="url(#clip0_2124_24876)">
<path d="M5.49609 10.3711C5.40234 10.7812 5.57812 10.9453 6.02344 10.9219C7.89844 10.793 10.125 10.6875 13.8633 10.6875C17.6133 10.6875 19.8398 10.793 21.7148 10.9219C22.1484 10.9453 22.3242 10.7812 22.2305 10.3711C21.9492 9.12891 21.4102 7.51172 21.0352 6.86719C20.7305 6.33984 20.3906 6.10547 19.7812 6.02344C18.9375 5.90625 17.0156 5.82422 13.8633 5.82422C10.7227 5.82422 8.80078 5.90625 7.94531 6.02344C7.33594 6.10547 6.99609 6.33984 6.69141 6.86719C6.31641 7.51172 5.78906 9.12891 5.49609 10.3711ZM5.41406 18.3516C6.48047 18.3516 7.30078 17.5312 7.30078 16.4648C7.30078 15.3867 6.48047 14.5781 5.41406 14.5781C4.34766 14.5781 3.52734 15.3867 3.52734 16.4648C3.52734 17.5312 4.34766 18.3516 5.41406 18.3516ZM11.9414 17.8828H16.9688C17.7656 17.8828 18.3164 17.332 18.3164 16.5234C18.3164 15.7266 17.7656 15.1758 16.9688 15.1758H11.9414C11.1328 15.1758 10.582 15.7266 10.582 16.5234C10.582 17.332 11.1328 17.8828 11.9414 17.8828ZM22.3125 18.3516C23.3906 18.3516 24.1992 17.5312 24.1992 16.4648C24.1992 15.3867 23.3906 14.5781 22.3125 14.5781C21.2461 14.5781 20.4375 15.3867 20.4375 16.4648C20.4375 17.5312 21.2461 18.3516 22.3125 18.3516ZM12.375 21.5039C12.7969 21.5039 13.1484 21.1523 13.1484 20.7305C13.1484 20.3086 12.7969 19.9688 12.375 19.9688C8.80078 19.9336 4.55859 19.7695 2.88281 19.5586C1.88672 19.4414 1.53516 18.9258 1.53516 18.0352V16.4414C1.53516 14.8359 1.79297 14.0859 2.70703 12.8906L3.90234 11.3203C4.21875 9.62109 4.98047 7.25391 5.48438 6.17578C5.85938 5.36719 6.59766 4.86328 7.66406 4.73438C8.41406 4.64062 10.793 4.53516 13.8633 4.53516C16.9453 4.53516 19.3594 4.64062 20.0391 4.73438C21.1406 4.875 21.8672 5.37891 22.2539 6.17578C22.7578 7.25391 23.5195 9.62109 23.8242 11.3203L25.0312 12.8906C25.9336 14.0859 26.1914 14.8359 26.1914 16.4414V17.7305C26.1914 18.1523 26.543 18.4922 26.9648 18.4922C27.3867 18.4922 27.7266 18.1523 27.7266 17.7305V16.4414C27.7266 14.4609 27.3281 13.3594 26.25 11.9531L25.2539 10.6758C24.832 8.56641 24.0469 6.35156 23.6484 5.48438C23.0156 4.16016 21.8086 3.375 20.25 3.16406C19.4648 3.05859 16.8984 3 13.8633 3C10.8398 3 8.27344 3.07031 7.48828 3.16406C5.92969 3.35156 4.71094 4.16016 4.08984 5.48438C3.67969 6.35156 2.90625 8.56641 2.47266 10.6758L1.48828 11.9531C0.398438 13.3594 0 14.4609 0 16.4414V18.5039C0 20.0039 0.890625 20.8828 2.47266 21.0586C4.45312 21.293 8.80078 21.4688 12.375 21.5039ZM2.15625 24.7383H3.52734C4.40625 24.7383 5.08594 24.0586 5.08594 23.1914V20.4023L0.597656 19.7578V23.1914C0.597656 24.0586 1.27734 24.7383 2.15625 24.7383Z" fill="black" fill-opacity="0.85"/>
<path d="M23.5664 21.5156C27.5039 21.5156 32.7305 21.3164 34.957 21.0586C36.5391 20.8828 37.4297 20.0039 37.4297 18.5039V16.4414C37.4297 14.4609 37.0312 13.3594 35.9414 11.9531L34.957 10.6758C34.5234 8.56641 33.75 6.35156 33.3398 5.48438C32.7188 4.16016 31.5 3.375 29.9414 3.16406C29.1562 3.05859 26.5898 3 23.5664 3C20.5312 3 17.9648 3.07031 17.1797 3.16406C15.6211 3.35156 14.4023 4.16016 13.7812 5.48438C13.3828 6.35156 12.5977 8.56641 12.1758 10.6758L11.1797 11.9531C10.0898 13.3594 9.69141 14.4609 9.69141 16.4414V18.5039C9.69141 20.0039 10.582 20.8828 12.1758 21.0586C14.3906 21.3164 19.6172 21.5156 23.5664 21.5156ZM11.8477 24.7383H13.2305C14.1094 24.7383 14.7773 24.0586 14.7773 23.1914V20.4023L10.3008 19.7578V23.1914C10.3008 24.0586 10.9688 24.7383 11.8477 24.7383ZM33.9023 24.7383H35.2734C36.1523 24.7383 36.832 24.0586 36.832 23.1914V19.7578L32.3438 20.4023V23.1914C32.3438 24.0586 33.0234 24.7383 33.9023 24.7383Z" fill="white"/>
<path d="M15.1992 10.3711C15.1055 10.7812 15.2812 10.9453 15.7148 10.9219C17.5898 10.793 19.8164 10.6875 23.5664 10.6875C27.3047 10.6875 29.5312 10.793 31.4062 10.9219C31.8516 10.9453 32.0156 10.7812 31.9219 10.3711C31.6406 9.12891 31.1133 7.51172 30.7383 6.86719C30.4336 6.33984 30.0938 6.10547 29.4844 6.02344C28.6289 5.90625 26.707 5.82422 23.5664 5.82422C20.4141 5.82422 18.4922 5.90625 17.6484 6.02344C17.0391 6.10547 16.6875 6.33984 16.3828 6.86719C16.0195 7.51172 15.4805 9.12891 15.1992 10.3711ZM15.1172 18.3516C16.1836 18.3516 16.9922 17.5312 16.9922 16.4648C16.9922 15.3867 16.1836 14.5781 15.1172 14.5781C14.0391 14.5781 13.2305 15.3867 13.2305 16.4648C13.2305 17.5312 14.0391 18.3516 15.1172 18.3516ZM20.4609 17.8828H26.6602C27.4688 17.8828 28.0195 17.332 28.0195 16.5234C28.0195 15.7266 27.4688 15.1758 26.6602 15.1758H20.4609C19.6641 15.1758 19.1016 15.7266 19.1016 16.5234C19.1016 17.332 19.6641 17.8828 20.4609 17.8828ZM32.0156 18.3516C33.082 18.3516 33.9023 17.5312 33.9023 16.4648C33.9023 15.3867 33.082 14.5781 32.0156 14.5781C30.9375 14.5781 30.1289 15.3867 30.1289 16.4648C30.1289 17.5312 30.9375 18.3516 32.0156 18.3516ZM23.5664 21.5156C27.5039 21.5156 32.7305 21.3164 34.957 21.0586C36.5391 20.8828 37.4297 20.0039 37.4297 18.5039V16.4414C37.4297 14.4609 37.0312 13.3594 35.9414 11.9531L34.957 10.6758C34.5234 8.56641 33.75 6.35156 33.3398 5.48438C32.7188 4.16016 31.5 3.375 29.9414 3.16406C29.1562 3.05859 26.5898 3 23.5664 3C20.5312 3 17.9648 3.07031 17.1797 3.16406C15.6211 3.35156 14.4023 4.16016 13.7812 5.48438C13.3828 6.35156 12.5977 8.56641 12.1758 10.6758L11.1797 11.9531C10.0898 13.3594 9.69141 14.4609 9.69141 16.4414V18.5039C9.69141 20.0039 10.582 20.8828 12.1758 21.0586C14.3906 21.3164 19.6172 21.5156 23.5664 21.5156ZM23.5664 19.9805C19.582 19.9805 14.4609 19.793 12.5859 19.5586C11.5898 19.4414 11.2266 18.9258 11.2266 18.0352V16.4414C11.2266 14.8359 11.4961 14.0859 12.3984 12.8906L13.6055 11.3203C13.9102 9.62109 14.6836 7.25391 15.1758 6.17578C15.5625 5.36719 16.3008 4.86328 17.3672 4.73438C18.1172 4.64062 20.4844 4.53516 23.5664 4.53516C26.6367 4.53516 29.0625 4.64062 29.7422 4.73438C30.8438 4.875 31.5703 5.37891 31.9453 6.17578C32.4609 7.25391 33.2109 9.62109 33.5273 11.3203L34.7227 12.8906C35.6367 14.0859 35.8945 14.8359 35.8945 16.4414V18.0352C35.8945 18.9258 35.543 19.4414 34.5352 19.5586C32.6602 19.793 27.5508 19.9805 23.5664 19.9805ZM11.8477 24.7383H13.2305C14.1094 24.7383 14.7773 24.0586 14.7773 23.1914V20.4023L10.3008 19.7578V23.1914C10.3008 24.0586 10.9688 24.7383 11.8477 24.7383ZM33.9023 24.7383H35.2734C36.1523 24.7383 36.832 24.0586 36.832 23.1914V19.7578L32.3438 20.4023V23.1914C32.3438 24.0586 33.0234 24.7383 33.9023 24.7383Z" fill="black" fill-opacity="0.85"/>
</g>
<defs>
<clipPath id="clip0_2124_24876">
<rect width="37.4297" height="21.7852" fill="white" transform="translate(0 3)"/>
</clipPath>
</defs>
</svg>
