<svg width="28" height="28" viewBox="0 0 28 28" fill="none" xmlns="http://www.w3.org/2000/svg">
<path d="M9.83203 4C3.03516 4 0 7.12891 0 13.5273V20.875C0 23.2422 1.21875 24.4375 3.59766 24.4375H23.4375C25.8164 24.4375 27.0352 23.2305 27.0352 20.875V13.5273C27.0352 7.12891 24 4 17.2031 4H9.83203Z" fill="black" fill-opacity="0.85"/>
<path d="M9.38672 18.9297C8.84766 18.9297 8.55469 18.6016 8.55469 18.0508V10.2461C8.55469 9.77734 8.92969 9.39062 9.39844 9.39062C9.85547 9.39062 10.2422 9.77734 10.2422 10.2461V17.5117H12.7266C13.1133 17.5117 13.4297 17.8281 13.4297 18.2148C13.4297 18.6133 13.1133 18.9297 12.7266 18.9297H9.38672ZM16.1836 19.0703C15.7148 19.0703 15.3281 18.6836 15.3281 18.2148V10.9492H13.875C13.4766 10.9492 13.1719 10.6328 13.1719 10.2227C13.1719 9.83594 13.4766 9.53125 13.875 9.53125H18.4336C18.8203 9.53125 19.1367 9.83594 19.1367 10.2227C19.1367 10.6328 18.8203 10.9492 18.4336 10.9492H17.0273V18.2148C17.0273 18.6836 16.6406 19.0703 16.1836 19.0703Z" fill="white"/>
</svg>
