<svg width="35" height="34" viewBox="0 0 35 34" fill="none" xmlns="http://www.w3.org/2000/svg">
<g clip-path="url(#clip0_2124_45956)">
<path d="M31.3638 11.1467C33.1217 11.1467 34.5279 9.68189 34.5279 7.98267C34.5279 6.21314 33.1217 4.78345 31.3638 4.78345C29.5943 4.78345 28.1763 6.21314 28.1763 7.98267C28.1763 9.72876 29.5943 11.1467 31.3638 11.1467ZM12.4849 27.9162C13.0943 28.5491 14.1373 28.5022 14.8756 27.7287L19.9263 22.5256C20.0904 22.3498 20.2076 22.303 20.4654 22.4084L24.4029 23.8967C26.9342 24.8694 29.3131 24.0373 30.4263 22.0217L32.9576 17.4162C33.942 15.6233 33.6256 13.7717 31.9263 12.8577C30.2623 11.9553 28.5513 12.635 27.5553 14.4748L24.2623 20.4631L21.4732 19.4436C20.0787 18.9397 18.9303 19.1037 17.8287 20.2522L12.5904 25.6662C11.8638 26.4162 11.9342 27.3537 12.4849 27.9162Z" fill="black" fill-opacity="0.85"/>
<path d="M0.214531 8.55689L3.40203 12.6233C3.54266 12.8108 3.76531 12.8459 3.96453 12.7287C4.72625 12.3303 5.81609 12.0608 6.67156 12.0608C7.53875 12.0608 8.62859 12.3303 9.36688 12.7287C9.58953 12.8459 9.81219 12.8108 9.94109 12.6233L13.1403 8.55689C13.4567 8.14673 13.3981 7.73658 13.0231 7.43189C11.7223 6.4358 9.26141 5.67408 6.67156 5.67408C4.09344 5.67408 1.6325 6.4358 0.343438 7.43189C-0.0550003 7.73658 -0.0901563 8.14673 0.214531 8.55689ZM3.51922 15.0022C3.15594 14.5217 3.00359 14.0764 3.00359 13.5959C3.00359 12.4944 3.89422 12.2131 3.89422 11.5686C3.89422 10.9123 3.00359 10.6428 3.00359 9.50611C3.00359 9.03736 3.15594 8.59204 3.51922 8.1233C3.92938 7.63111 4.66766 8.15845 4.26922 8.67408C4.01141 9.03736 3.94109 9.23658 3.94109 9.50611C3.94109 10.303 4.82 10.5256 4.82 11.5686C4.82 12.5998 3.94109 12.8342 3.94109 13.5959C3.94109 13.9006 4.01141 14.0764 4.26922 14.4514C4.65594 14.9553 3.92938 15.4944 3.51922 15.0022ZM6.27313 15.0022C5.93328 14.5217 5.76922 14.0764 5.76922 13.5959C5.76922 12.4944 6.65984 12.2131 6.65984 11.5686C6.65984 10.9123 5.76922 10.6428 5.76922 9.50611C5.76922 9.03736 5.92156 8.59204 6.27313 8.1233C6.68328 7.63111 7.43328 8.15845 7.04656 8.67408C6.77703 9.03736 6.70672 9.23658 6.70672 9.50611C6.70672 10.303 7.59734 10.5256 7.59734 11.5686C7.59734 12.5998 6.70672 12.8342 6.70672 13.5959C6.70672 13.9006 6.77703 14.0764 7.03484 14.4514C7.42156 14.9553 6.68328 15.4944 6.27313 15.0022ZM9.06219 15.0022C8.69891 14.5217 8.53484 14.0764 8.53484 13.5959C8.53484 12.4944 9.43719 12.2131 9.43719 11.5686C9.43719 10.9123 8.53484 10.6428 8.53484 9.50611C8.53484 9.03736 8.68719 8.59204 9.07391 8.1233C9.47234 7.63111 10.1989 8.15845 9.81219 8.67408C9.55438 9.03736 9.47234 9.23658 9.47234 9.50611C9.47234 10.303 10.3629 10.5256 10.3629 11.5686C10.3629 12.5998 9.47234 12.8342 9.47234 13.5959C9.47234 13.9006 9.55438 14.0764 9.80047 14.4514C10.1989 14.9553 9.46063 15.4944 9.06219 15.0022ZM15.9645 8.19361C16.3747 8.19361 16.7028 7.86548 16.7028 7.44361V4.25611H18.3434C19.07 4.25611 19.3747 3.54126 18.8825 2.99048L16.527 0.295166C16.1872 -0.079834 15.7536 -0.079834 15.4137 0.295166L13.0231 2.99048C12.5544 3.49439 12.8239 4.25611 13.5856 4.25611H15.2145L15.2262 7.44361C15.2262 7.86548 15.5426 8.21704 15.9645 8.19361ZM15.9528 10.6194C15.5309 10.6194 15.2145 10.9475 15.2145 11.3811V14.5569H13.5856C12.8004 14.5569 12.5426 15.3186 13.0114 15.8342L15.4254 18.5178C15.7653 18.8694 16.1872 18.9045 16.5153 18.5295L18.8825 15.8108C19.3512 15.2717 19.0583 14.5569 18.3434 14.5569H16.7145L16.7028 11.3811C16.7028 10.9592 16.3512 10.6311 15.9528 10.6194Z" fill="black" fill-opacity="0.85"/>
</g>
<defs>
<clipPath id="clip0_2124_45956">
<rect width="34.5153" height="33.3164" fill="white" transform="translate(0.0117188 0.013916)"/>
</clipPath>
</defs>
</svg>
