<svg width="28" height="28" viewBox="0 0 28 28" fill="none" xmlns="http://www.w3.org/2000/svg">
<g clip-path="url(#clip0_2124_62620)">
<path d="M1.5 21.5977C2.33203 21.5977 3 20.9297 3 20.0977C3 19.2656 2.33203 18.5977 1.5 18.5977C0.667969 18.5977 0 19.2656 0 20.0977C0 20.9297 0.667969 21.5977 1.5 21.5977ZM4.6875 13.0664C5.51953 13.0664 6.1875 12.3984 6.1875 11.5664C6.1875 10.7344 5.51953 10.0664 4.6875 10.0664C3.86719 10.0664 3.19922 10.7344 3.19922 11.5664C3.19922 12.3984 3.86719 13.0664 4.6875 13.0664ZM13.9688 9.02344C14.8008 9.02344 15.4688 8.35547 15.4688 7.52344C15.4688 6.69141 14.8008 6.02344 13.9688 6.02344C13.1367 6.02344 12.4688 6.69141 12.4688 7.52344C12.4688 8.35547 13.1367 9.02344 13.9688 9.02344ZM23.25 13.0664C24.082 13.0664 24.75 12.3984 24.75 11.5664C24.75 10.7344 24.082 10.0664 23.25 10.0664C22.418 10.0664 21.75 10.7344 21.75 11.5664C21.75 12.3984 22.418 13.0664 23.25 13.0664ZM26.4375 21.5977C27.2695 21.5977 27.9375 20.9297 27.9375 20.0977C27.9375 19.2656 27.2695 18.5977 26.4375 18.5977C25.6055 18.5977 24.9375 19.2656 24.9375 20.0977C24.9375 20.9297 25.6055 21.5977 26.4375 21.5977Z" fill="black" fill-opacity="0.85"/>
<path d="M9.28125 21.2344H18.6562C19.2305 21.2344 19.7109 20.7539 19.7109 20.1914C19.7109 19.6172 19.2305 19.1602 18.6562 19.1602H9.28125C8.69531 19.1602 8.22656 19.6289 8.22656 20.1914C8.22656 20.7539 8.70703 21.2344 9.28125 21.2344Z" fill="black" fill-opacity="0.85"/>
</g>
<defs>
<clipPath id="clip0_2124_62620">
<rect width="27.9375" height="15.5977" fill="white" transform="translate(0 6)"/>
</clipPath>
</defs>
</svg>
