<svg width="32" height="30" viewBox="0 0 32 30" fill="none" xmlns="http://www.w3.org/2000/svg">
<g clip-path="url(#clip0_2124_46054)">
<path d="M4.00439 9.93002C4.39111 10.0003 4.80126 9.76596 4.87158 9.3558C4.95361 8.95737 4.70751 8.58237 4.29736 8.48862L0.910637 7.76205C0.477044 7.6683 0.0786059 7.94955 0.0200121 8.37143C-0.0385817 8.75815 0.219231 9.13315 0.60595 9.21518L4.00439 9.93002ZM5.18798 6.02768C5.48095 6.32065 5.96142 6.32065 6.24267 6.02768C6.52392 5.73471 6.53564 5.27768 6.24267 4.98471L3.78173 2.53549C3.47704 2.2308 3.03173 2.24252 2.73876 2.53549C2.44579 2.82846 2.43408 3.27377 2.73876 3.57846L5.18798 6.02768ZM9.55908 4.86752C9.95751 4.78549 10.2387 4.37533 10.145 4.00033L9.41845 0.613618C9.3247 0.203462 8.92626 -0.0426323 8.53954 0.0393989C8.14111 0.12143 7.85986 0.508149 7.95361 0.918306L8.68017 4.2933C8.77392 4.68002 9.14892 4.96127 9.55908 4.86752Z" fill="black" fill-opacity="0.85"/>
<path d="M29.0232 25.1761C31.9412 22.2582 32.4099 18.6371 30.406 14.4183L27.7576 8.86362C27.5818 8.4769 27.3591 8.16049 27.113 7.9144C26.2341 7.03549 24.9568 7.08237 24.1013 7.92612C23.5271 8.50033 23.363 9.3558 23.738 10.2816L24.5115 12.1566C24.5349 12.2035 24.5349 12.2504 24.5115 12.2855C24.4646 12.3207 24.406 12.3089 24.3709 12.2738L17.7263 5.61752C16.7537 4.65658 15.5349 4.65658 14.6091 5.58237C14.281 5.91049 14.0818 6.34408 14.0701 6.7894C13.1091 6.05112 12.0427 6.07455 11.2224 6.89487C10.4255 7.70346 10.3904 8.80502 11.0935 9.74252C10.6716 9.74252 10.2615 9.93003 9.95678 10.2347C9.10131 11.0902 9.13647 12.2621 10.0505 13.1761L10.9763 14.1019C10.5193 14.0902 10.0505 14.3011 9.69897 14.6527C8.8435 15.5199 8.87866 16.7504 9.81616 17.6761L16.9294 24.8011C20.8084 28.68 25.5193 28.68 29.0232 25.1761ZM27.8279 24.0746C24.8982 27.0043 21.2302 26.9105 17.8904 23.5707L11.0232 16.7035C10.6716 16.3519 10.6482 15.8714 10.988 15.5316C11.3396 15.1918 11.8318 15.1918 12.1834 15.5433L16.4138 19.7738C16.7185 20.0785 17.1755 20.0433 17.4451 19.7738C17.7263 19.4925 17.7732 19.0355 17.4685 18.7308L11.1404 12.391C10.7771 12.0394 10.7654 11.5707 11.1052 11.2308C11.4451 10.8793 11.9373 10.8793 12.2888 11.2308L18.2068 17.1488C18.5115 17.4535 18.9568 17.4066 19.2263 17.1371C19.5076 16.8558 19.5544 16.3988 19.2498 16.0941L12.324 9.15658C11.9607 8.80502 11.949 8.31283 12.2888 7.97299C12.6287 7.63315 13.1209 7.64487 13.4724 7.99643L20.4099 14.9339C20.7029 15.2269 21.1599 15.2152 21.4412 14.9339C21.7341 14.641 21.7576 14.1722 21.4646 13.891L15.5584 7.97299C15.1951 7.62143 15.1951 7.12924 15.5349 6.7894C15.8748 6.44955 16.3552 6.46127 16.7068 6.81283L24.863 14.9691C25.2849 15.391 25.7654 15.3793 26.1052 15.0394C26.4099 14.7464 26.5271 14.3597 26.2927 13.7504L24.8279 9.90658C24.6404 9.37924 24.8162 8.95737 25.2263 8.76987C25.6599 8.57065 26.0584 8.76987 26.3162 9.33237L29.0349 15.0746C30.8513 18.9183 30.1482 21.7543 27.8279 24.0746Z" fill="black" fill-opacity="0.85"/>
<path d="M26.0232 26.2308C28.9294 23.3246 29.4099 19.6918 27.406 15.4847L24.7576 9.9183C24.5701 9.53158 24.3591 9.21518 24.113 8.96908C23.2224 8.09018 21.9568 8.13705 21.1013 8.99252C20.5271 9.55502 20.363 10.4105 20.738 11.348L21.5115 13.2113C21.5349 13.2582 21.5349 13.305 21.4998 13.3402C21.4646 13.3871 21.406 13.3754 21.3709 13.3285L14.7146 6.68393C13.7537 5.71127 12.5349 5.71127 11.6091 6.63705C11.2693 6.9769 11.0818 7.39877 11.0701 7.84408C10.1091 7.1058 9.04272 7.12924 8.22241 7.96127C7.42553 8.75815 7.39038 9.85971 8.0935 10.7972C7.67163 10.7972 7.26147 10.9847 6.95678 11.2894C6.10131 12.1449 6.13647 13.3168 7.05053 14.2425L7.9646 15.1566C7.51928 15.1449 7.05053 15.3558 6.69897 15.7191C5.8435 16.5746 5.87866 17.805 6.81616 18.7308L13.9294 25.8558C17.8084 29.7347 22.5193 29.7347 26.0232 26.2308Z" fill="white"/>
<path d="M26.0232 26.2308C28.9294 23.3246 29.4099 19.6918 27.406 15.4847L24.7576 9.9183C24.5701 9.53158 24.3591 9.21518 24.113 8.96908C23.2224 8.09018 21.9568 8.13705 21.1013 8.99252C20.5271 9.55502 20.363 10.4105 20.738 11.348L21.5115 13.2113C21.5349 13.2582 21.5349 13.305 21.4998 13.3402C21.4646 13.3871 21.406 13.3754 21.3709 13.3285L14.7146 6.68393C13.7537 5.71127 12.5349 5.71127 11.6091 6.63705C11.2693 6.9769 11.0818 7.39877 11.0701 7.84408C10.1091 7.1058 9.04272 7.12924 8.22241 7.96127C7.42553 8.75815 7.39038 9.85971 8.0935 10.7972C7.67163 10.7972 7.26147 10.9847 6.95678 11.2894C6.10131 12.1449 6.13647 13.3168 7.05053 14.2425L7.9646 15.1566C7.51928 15.1449 7.05053 15.3558 6.69897 15.7191C5.8435 16.5746 5.87866 17.805 6.81616 18.7308L13.9294 25.8558C17.8084 29.7347 22.5193 29.7347 26.0232 26.2308ZM24.8279 25.1293C21.8982 28.0589 18.2302 27.9652 14.8904 24.6254L8.02319 17.7582C7.67163 17.4066 7.64819 16.9379 7.98803 16.5863C8.32788 16.2464 8.83178 16.2464 9.18335 16.598L13.4138 20.8402C13.7185 21.1449 14.1755 21.098 14.4451 20.8285C14.7263 20.5472 14.7732 20.0902 14.4685 19.7855L8.12866 13.4457C7.7771 13.0941 7.75366 12.6254 8.10522 12.2855C8.44506 11.9457 8.93725 11.9457 9.28881 12.2972L15.1951 18.2035C15.4998 18.5082 15.9568 18.473 16.2263 18.1918C16.5076 17.9105 16.5544 17.4535 16.2498 17.1488L9.31225 10.2113C8.96069 9.85971 8.94897 9.36752 9.28881 9.02768C9.62866 8.68783 10.1209 8.71127 10.4724 9.06283L17.4099 16.0004C17.7029 16.2816 18.1599 16.2699 18.4412 15.9886C18.7224 15.6957 18.7576 15.2386 18.4646 14.9457L12.5466 9.02768C12.1951 8.67612 12.1951 8.19565 12.5349 7.8558C12.8748 7.50424 13.3552 7.51596 13.7068 7.87924L21.863 16.0355C22.2732 16.4457 22.7654 16.4457 23.1052 16.0941C23.4099 15.8011 23.5271 15.4144 23.2927 14.8168L21.8279 10.9613C21.6404 10.4457 21.8162 10.0121 22.2146 9.82455C22.6599 9.62533 23.0584 9.83628 23.3162 10.3871L26.0349 16.141C27.8513 19.973 27.1482 22.8089 24.8279 25.1293Z" fill="black" fill-opacity="0.85"/>
</g>
<defs>
<clipPath id="clip0_2124_46054">
<rect width="31.6146" height="29.9025" fill="white" transform="translate(0.0117188 0.0236816)"/>
</clipPath>
</defs>
</svg>
