<svg width="28" height="28" viewBox="0 0 28 28" fill="none" xmlns="http://www.w3.org/2000/svg">
<g clip-path="url(#clip0_2124_50038)">
<path d="M6.67969 24.5977H20.8945C23.3555 24.5977 24.5742 23.3789 24.5742 20.9648V6.65625C24.5742 4.24219 23.3555 3.02344 20.8945 3.02344H6.67969C4.23047 3.02344 3 4.23047 3 6.65625V20.9648C3 23.3906 4.23047 24.5977 6.67969 24.5977ZM6.70312 22.7109C5.53125 22.7109 4.88672 22.0898 4.88672 20.8711V6.75C4.88672 5.53125 5.53125 4.91016 6.70312 4.91016H20.8711C22.0312 4.91016 22.6875 5.53125 22.6875 6.75V20.8711C22.6875 22.0898 22.0312 22.7109 20.8711 22.7109H6.70312Z" fill="black" fill-opacity="0.85"/>
<path d="M13.8281 20.4844C17.4844 20.4844 20.5078 17.4492 20.5078 13.8047C20.5078 10.1719 17.4609 7.125 13.8281 7.125C10.1836 7.125 7.16016 10.1602 7.16016 13.8047C7.16016 17.4375 10.207 20.4844 13.8281 20.4844ZM13.8281 18.832C11.1094 18.832 8.80078 16.5352 8.80078 13.8047C8.80078 11.0625 11.0977 8.77734 13.8281 8.77734C16.5586 8.77734 18.8672 11.0742 18.8672 13.8047C18.8672 16.5469 16.5703 18.832 13.8281 18.832ZM13.8281 17.625C15.9141 17.625 17.6484 15.8789 17.6484 13.8047C17.6484 11.7422 15.9023 9.98438 13.8281 9.98438C11.7539 9.98438 10.0195 11.7305 10.0195 13.8047C10.0195 15.8672 11.7656 17.625 13.8281 17.625Z" fill="black" fill-opacity="0.85"/>
</g>
<defs>
<clipPath id="clip0_2124_50038">
<rect width="21.5742" height="21.5977" fill="white" transform="translate(3 3)"/>
</clipPath>
</defs>
</svg>
