<svg width="28" height="28" viewBox="0 0 28 28" fill="none" xmlns="http://www.w3.org/2000/svg">
<path d="M13.9531 25.9062C20.4922 25.9062 25.9062 20.4805 25.9062 13.9531C25.9062 7.41406 20.4805 2 13.9414 2C7.41406 2 2 7.41406 2 13.9531C2 20.4805 7.42578 25.9062 13.9531 25.9062ZM13.9531 23.9141C8.42188 23.9141 4.00391 19.4844 4.00391 13.9531C4.00391 8.42188 8.41016 3.99219 13.9414 3.99219C19.4727 3.99219 23.9141 8.42188 23.9141 13.9531C23.9141 19.4844 19.4844 23.9141 13.9531 23.9141Z" fill="black" fill-opacity="0.85"/>
<path d="M10.1797 15.5234H17.1641C18.9805 15.5234 20.375 14.1172 20.375 12.3945C20.375 10.6016 18.9102 9.28906 17.0117 9.28906C16.2969 7.90625 14.9961 7.00391 13.3789 7.00391C11.2695 7.00391 9.52344 8.66797 9.32422 10.7656C8.31641 11.0586 7.54297 11.9375 7.54297 13.1211C7.54297 14.4453 8.50391 15.5234 10.1797 15.5234ZM10.5312 18.8633L11.3633 17.4219C11.5156 17.1758 11.4336 16.8359 11.1641 16.6953C10.918 16.543 10.5898 16.6367 10.4492 16.8945L9.61719 18.3242C9.46484 18.582 9.54688 18.9219 9.81641 19.0625C10.0625 19.2148 10.3906 19.1211 10.5312 18.8633ZM12.4883 20.5977L13.3203 19.168C13.4727 18.9102 13.3906 18.582 13.1211 18.4297C12.875 18.2891 12.5469 18.3828 12.4062 18.6289L11.5625 20.0703C11.4219 20.3281 11.5039 20.6562 11.7734 20.8086C12.0195 20.9492 12.3359 20.8555 12.4883 20.5977ZM15.4883 18.8516L16.3203 17.4102C16.4727 17.1641 16.3906 16.8242 16.1211 16.6836C15.875 16.5312 15.5469 16.625 15.4062 16.8828L14.5742 18.3125C14.4219 18.5703 14.5039 18.9102 14.7734 19.0508C15.0195 19.2031 15.3477 19.1094 15.4883 18.8516ZM17.4453 20.5977L18.2891 19.168C18.4297 18.9102 18.3477 18.582 18.0781 18.4297C17.832 18.2891 17.5039 18.3828 17.3633 18.6289L16.5312 20.0703C16.3789 20.3281 16.4609 20.6562 16.7305 20.8086C16.9766 20.9492 17.3047 20.8555 17.4453 20.5977Z" fill="black" fill-opacity="0.85"/>
</svg>
