<svg width="28" height="28" viewBox="0 0 28 28" fill="none" xmlns="http://www.w3.org/2000/svg">
<g clip-path="url(#clip0_2124_24695)">
<path d="M7.24609 27.4023H20.3359C22.2812 27.4023 23.582 26.1602 23.582 24.3086V4.10547C23.582 2.25391 22.2812 1 20.3359 1H7.24609C5.30078 1 4 2.25391 4 4.10547V24.3086C4 26.1602 5.30078 27.4023 7.24609 27.4023ZM7.48047 25.5156C6.47266 25.5156 5.88672 24.9531 5.88672 23.9922V4.42188C5.88672 3.46094 6.47266 2.88672 7.48047 2.88672H20.1016C21.0977 2.88672 21.6953 3.46094 21.6953 4.42188V23.9922C21.6953 24.9531 21.0977 25.5156 20.1016 25.5156H7.48047Z" fill="black" fill-opacity="0.85"/>
<path d="M8.45312 7.08203H9.47266C9.77734 7.08203 10.0234 6.87109 10.0234 6.58984V5.52344C10.0234 5.23047 9.77734 5.01953 9.47266 5.01953H8.45312C8.17188 5.01953 7.96094 5.24219 7.96094 5.52344V6.58984C7.96094 6.85938 8.17188 7.08203 8.45312 7.08203ZM11.6758 7.08203H12.6953C13 7.08203 13.2227 6.87109 13.2227 6.58984V5.52344C13.2227 5.23047 13 5.01953 12.6953 5.01953H11.6758C11.3945 5.01953 11.1719 5.24219 11.1719 5.52344V6.58984C11.1719 6.85938 11.3945 7.08203 11.6758 7.08203ZM14.875 7.08203H15.9062C16.2109 7.08203 16.4453 6.87109 16.4453 6.58984V5.52344C16.4453 5.23047 16.2109 5.01953 15.9062 5.01953H14.875C14.5938 5.01953 14.3828 5.24219 14.3828 5.52344V6.58984C14.3828 6.85938 14.5938 7.08203 14.875 7.08203ZM18.0859 7.08203H19.1172C19.4336 7.08203 19.6445 6.87109 19.6445 6.58984V5.52344C19.6445 5.23047 19.4336 5.01953 19.1172 5.01953H18.0859C17.8047 5.01953 17.5938 5.24219 17.5938 5.52344V6.58984C17.5938 6.85938 17.8047 7.08203 18.0859 7.08203ZM8.45312 10.2461H9.47266C9.77734 10.2461 10.0234 10.0234 10.0234 9.73047V8.67578C10.0234 8.38281 9.77734 8.18359 9.47266 8.18359H8.45312C8.17188 8.18359 7.96094 8.39453 7.96094 8.67578V9.73047C7.96094 10.0234 8.17188 10.2461 8.45312 10.2461ZM11.6758 10.2461H12.6953C13 10.2461 13.2227 10.0234 13.2227 9.73047V8.67578C13.2227 8.38281 13 8.18359 12.6953 8.18359H11.6758C11.3945 8.18359 11.1602 8.39453 11.1602 8.67578V9.73047C11.1602 10.0234 11.3945 10.2461 11.6758 10.2461ZM14.875 10.2461H15.9062C16.2109 10.2461 16.4453 10.0234 16.4453 9.74219V8.67578C16.4453 8.38281 16.2109 8.18359 15.9062 8.18359H14.875C14.5938 8.18359 14.3828 8.39453 14.3828 8.67578V9.74219C14.3828 10.0234 14.5938 10.2461 14.875 10.2461ZM18.0859 10.2461H19.1172C19.4336 10.2461 19.6445 10.0234 19.6445 9.74219V8.67578C19.6445 8.38281 19.4336 8.18359 19.1172 8.18359H18.0859C17.8047 8.18359 17.5938 8.39453 17.5938 8.67578V9.74219C17.5938 10.0234 17.8047 10.2461 18.0859 10.2461ZM8.45312 13.3984H9.47266C9.77734 13.3984 10.0234 13.1992 10.0234 12.9062V11.8516C10.0234 11.5586 9.77734 11.3359 9.47266 11.3359H8.45312C8.17188 11.3359 7.96094 11.5586 7.96094 11.8516V12.9062C7.96094 13.1875 8.17188 13.3984 8.45312 13.3984ZM11.6758 13.3984H12.6953C13 13.3984 13.2227 13.1992 13.2227 12.9062V11.8516C13.2227 11.5586 13 11.3359 12.6953 11.3359H11.6758C11.3945 11.3359 11.1602 11.5586 11.1602 11.8516V12.9062C11.1602 13.1875 11.3945 13.3984 11.6758 13.3984ZM8.45312 23.3828H9.47266C9.77734 23.3828 10.0234 23.1836 10.0234 22.8906V21.8242C10.0234 21.5312 9.77734 21.332 9.47266 21.332H8.45312C8.17188 21.332 7.96094 21.543 7.96094 21.8242V22.8906C7.96094 23.1719 8.17188 23.3828 8.45312 23.3828ZM11.6758 23.3828H12.6953C13 23.3828 13.2227 23.1836 13.2227 22.8906V21.8242C13.2227 21.5312 13 21.332 12.6953 21.332H11.6758C11.3945 21.332 11.1602 21.543 11.1602 21.8242V22.8906C11.1602 23.1719 11.3945 23.3828 11.6758 23.3828ZM14.875 23.3828H15.918C16.2109 23.3828 16.4453 23.1836 16.4453 22.8906V21.8242C16.4453 21.5312 16.2109 21.332 15.918 21.332H14.875C14.5938 21.332 14.3828 21.543 14.3828 21.8242V22.8906C14.3828 23.1719 14.5938 23.3828 14.875 23.3828ZM18.0859 23.3828H19.1172C19.4336 23.3828 19.6445 23.1836 19.6445 22.8906V21.8242C19.6445 21.5312 19.4336 21.332 19.1172 21.332H18.0859C17.8047 21.332 17.6055 21.543 17.6055 21.8242V22.8906C17.6055 23.1719 17.8047 23.3828 18.0859 23.3828Z" fill="black" fill-opacity="0.85"/>
</g>
<defs>
<clipPath id="clip0_2124_24695">
<rect width="19.582" height="26.4258" fill="white" transform="translate(4 1)"/>
</clipPath>
</defs>
</svg>
