<svg width="28" height="28" viewBox="0 0 28 28" fill="none" xmlns="http://www.w3.org/2000/svg">
<g clip-path="url(#clip0_2124_88442)">
<path d="M9.26172 16.9141C8.80469 16.9141 8.46484 16.5859 8.46484 16.1523C8.46484 15.7188 8.80469 15.3789 9.26172 15.3789H18.4844C18.9297 15.3789 19.2695 15.7188 19.2695 16.1523C19.2695 16.5859 18.9297 16.9141 18.4844 16.9141H9.26172ZM9.26172 21.3555C8.80469 21.3555 8.46484 21.0273 8.46484 20.5938C8.46484 20.1602 8.80469 19.8203 9.26172 19.8203H18.4844C18.9297 19.8203 19.2695 20.1602 19.2695 20.5938C19.2695 21.0273 18.9297 21.3555 18.4844 21.3555H9.26172ZM7.63281 26.125H20.0781C22.5039 26.125 23.7109 24.8945 23.7109 22.457V11.8164H15.2266C13.7266 11.8164 13.0117 11.1016 13.0117 9.60156V1H7.63281C5.21875 1 4 2.24219 4 4.67969V22.457C4 24.9062 5.20703 26.125 7.63281 26.125ZM15.2617 10.2109H23.5703C23.5 9.73047 23.1602 9.26172 22.5977 8.6875L16.1406 2.11328C15.5898 1.55078 15.1094 1.21094 14.6172 1.12891V9.57812C14.6172 10 14.8281 10.2109 15.2617 10.2109Z" fill="black" fill-opacity="0.85"/>
</g>
<defs>
<clipPath id="clip0_2124_88442">
<rect width="19.7109" height="25.1367" fill="white" transform="translate(4 1)"/>
</clipPath>
</defs>
</svg>
