<svg width="28" height="28" viewBox="0 0 28 28" fill="none" xmlns="http://www.w3.org/2000/svg">
<path d="M6.67969 24.5977H20.8945C23.3555 24.5977 24.5742 23.3789 24.5742 20.9648V6.65625C24.5742 4.24219 23.3555 3.02344 20.8945 3.02344H6.67969C4.23047 3.02344 3 4.23047 3 6.65625V20.9648C3 23.3906 4.23047 24.5977 6.67969 24.5977Z" fill="black" fill-opacity="0.85"/>
<path d="M15.375 19.3008C14.8242 19.3008 14.4844 18.9141 14.4844 18.2812V17.0508H10.1484C9.38672 17.0508 8.89453 16.582 8.89453 15.8672C8.89453 15.5039 8.97656 15.2109 9.22266 14.8008C10.2188 13.1719 11.707 10.9688 12.9727 9.07031C13.4414 8.34375 13.9805 8.03906 14.8242 8.03906C15.6914 8.03906 16.2891 8.55469 16.2891 9.31641V15.457H17.2031C17.6836 15.457 18 15.7852 18 16.2656C18 16.7344 17.6719 17.0508 17.2031 17.0508H16.2891V18.2812C16.2891 18.9258 15.9492 19.3008 15.375 19.3008ZM14.4844 15.457V9.60938H14.4023C13.1367 11.5195 11.6016 13.8047 10.6758 15.3867V15.457H14.4844Z" fill="white"/>
</svg>
