<svg width="30" height="28" viewBox="0 0 30 28" fill="none" xmlns="http://www.w3.org/2000/svg">
<path d="M17.3438 8.09766C18.75 8.09766 19.8984 6.94922 19.8984 5.54297C19.8984 4.14844 18.75 3 17.3438 3C15.9375 3 14.7891 4.14844 14.7891 5.54297C14.7891 6.94922 15.9375 8.09766 17.3438 8.09766ZM13.1719 22.5703C12.8789 24.1523 15.2461 24.5273 15.5391 22.9219L16.7461 16.3359C16.8633 15.7266 16.4648 15.0586 15.7617 14.9648L11.8008 14.4023L14.25 11.9531C14.4844 11.707 14.8359 11.707 15.0703 11.9531L21.9023 18.7852C22.3594 19.2305 23.1211 19.2773 23.5898 18.7852C24.0469 18.293 24.0586 17.5664 23.5898 17.0977L14.5312 8.03906C13.9805 7.48828 13.2305 7.16016 12.4219 7.16016H7.18359C6.86719 7.16016 6.5625 7.28906 6.33984 7.51172L2.75391 11.1094C2.28516 11.5781 2.28516 12.3281 2.75391 12.7969C3.22266 13.2656 3.96094 13.2656 4.42969 12.7969L7.6875 9.55078H9.78516C10.0078 9.55078 10.1016 9.75 9.94922 9.90234L6.71484 13.125C5.16797 14.6836 5.98828 17.332 8.46094 17.332H14.1211L13.1719 22.5703ZM6.38672 17.9062L6.07031 21.5273H1.19531C0.539062 21.5273 0 22.0664 0 22.7227C0 23.3789 0.539062 23.918 1.19531 23.918H7.18359C7.78125 23.918 8.26172 23.4609 8.36719 22.8633L9.16406 18.4688H8.46094C7.64062 18.4688 6.9375 18.2578 6.38672 17.9062ZM24.2344 23.918H27.8203C28.6289 23.918 29.2734 23.2617 29.2734 22.4531C29.2734 21.6562 28.6289 21 27.8203 21H24.2344C23.4141 21 22.7578 21.6562 22.7578 22.4531C22.7578 23.2617 23.4141 23.918 24.2344 23.918ZM26.6836 21.7383H27.7617V20.5781C27.7617 19.6055 27.0234 18.8555 26.0625 18.8555H24.832C24.5273 18.8555 24.2812 19.1016 24.2812 19.4062C24.2812 19.7109 24.5273 19.9453 24.832 19.9453H26.0625C26.4258 19.9453 26.6836 20.2148 26.6836 20.5781V21.7383Z" fill="black" fill-opacity="0.85"/>
</svg>
