<svg width="28" height="28" viewBox="0 0 28 28" fill="none" xmlns="http://www.w3.org/2000/svg">
<path d="M4.07778 8.80396L4.95669 9.12037C5.87075 9.46021 6.72622 9.03834 7.06606 8.10084L8.7184 3.56568C9.05825 2.62818 8.67153 1.77271 7.75747 1.43287L6.87856 1.11646C5.9645 0.776619 5.12075 1.19849 4.76919 2.14771L3.12856 6.67115C2.777 7.60865 3.16372 8.46412 4.07778 8.80396ZM19.5114 8.80396L20.402 9.12037C21.3161 9.46021 22.1598 9.03834 22.4997 8.10084L24.152 3.56568C24.5036 2.62818 24.1051 1.77271 23.2028 1.43287L22.3122 1.11646C21.3981 0.776619 20.5661 1.19849 20.2145 2.14771L18.5622 6.67115C18.2223 7.60865 18.609 8.47584 19.5114 8.80396ZM5.44887 26.1829H6.38637C7.35903 26.1829 8.01528 25.5032 8.01528 24.5071V19.6907C8.01528 18.6829 7.35903 18.0032 6.38637 18.0032H5.44887C4.48794 18.0032 3.83169 18.6829 3.83169 19.6907V24.5071C3.83169 25.5032 4.48794 26.1829 5.44887 26.1829ZM20.8825 26.1829H21.82C22.7926 26.1829 23.4489 25.5032 23.4489 24.5071V19.6907C23.4489 18.6829 22.7926 18.0032 21.82 18.0032H20.8825C19.9215 18.0032 19.2653 18.6829 19.2653 19.6907V24.5071C19.2653 25.5032 19.9215 26.1829 20.8825 26.1829ZM7.0895 6.06178H20.2028V4.17506H7.0895V6.06178ZM12.6911 4.17506V18.6829C12.8083 18.7649 12.9137 18.8352 13.0192 18.9407L13.5817 19.4915L14.2379 18.8235C14.3434 18.7063 14.4606 18.6243 14.5778 18.554V4.17506H12.6911ZM7.0895 23.0422H10.0895C10.1481 22.9251 10.2418 22.8196 10.3356 22.7258L11.0153 22.0579L10.4528 21.4954C10.359 21.3899 10.2653 21.2727 10.195 21.1555H7.0895V23.0422ZM20.2028 23.0422V21.1555H17.1325C17.0739 21.261 16.9801 21.3782 16.8864 21.4719L16.2184 22.1282L16.7692 22.7024C16.8629 22.8079 16.9567 22.9133 17.027 23.0422H20.2028Z" fill="black" fill-opacity="0.85"/>
<path d="M11.0621 24.6477C11.3317 24.9172 11.7653 24.9758 12.0582 24.6829L13.652 23.1008L15.1403 24.5774C15.4098 24.8352 15.8317 24.8235 16.1012 24.5774C16.359 24.3313 16.359 23.886 16.1012 23.6282L14.6129 22.1282L16.2067 20.5462C16.4997 20.2532 16.4411 19.8196 16.1715 19.5383C15.8903 19.2688 15.4567 19.2102 15.1637 19.5032L13.5817 21.0852L12.0817 19.6087C11.8121 19.3508 11.3903 19.3626 11.1207 19.6087C10.8629 19.8547 10.8629 20.2883 11.1207 20.5696L12.609 22.0579L11.027 23.6399C10.734 23.9446 10.7809 24.3782 11.0621 24.6477Z" fill="black" fill-opacity="0.85"/>
</svg>
