<svg width="28" height="28" viewBox="0 0 28 28" fill="none" xmlns="http://www.w3.org/2000/svg">
<path d="M3.67969 24.5742H23.9531C26.4141 24.5742 27.6328 23.3672 27.6328 20.9531V6.63281C27.6328 4.21875 26.4141 3 23.9531 3H3.67969C1.23047 3 0 4.21875 0 6.63281V20.9531C0 23.3672 1.23047 24.5742 3.67969 24.5742Z" fill="black" fill-opacity="0.85"/>
<path d="M16.418 20.0039C15.8906 20.0039 15.5391 19.5938 15.5391 19.0312V13.5C15.5391 12.7852 15.9258 12.5039 16.5469 12.5039H22.1133C22.6758 12.5039 23.0391 12.8555 23.0391 13.3828C23.0391 13.9219 22.6641 14.2734 22.0898 14.2734H20.0625L18.2695 14.0859L20.1562 15.8438L23.7891 19.4648C23.9648 19.6406 24.082 19.8867 24.082 20.1211C24.082 20.6719 23.7305 21.0234 23.2031 21.0234C22.8984 21.0234 22.6758 20.918 22.5 20.7422L18.8789 17.1211L17.1328 15.2578L17.3086 17.1328V19.0547C17.3086 19.6289 16.957 20.0039 16.418 20.0039Z" fill="white"/>
</svg>
