<svg width="28" height="28" viewBox="0 0 28 28" fill="none" xmlns="http://www.w3.org/2000/svg">
<path d="M7.98438 22.9038C8.28906 22.9038 8.60547 22.7984 8.88672 22.6109L9.49609 22.2007C11.125 21.0991 13.5273 18.6148 13.9375 17.3726H13.9727C14.3711 18.603 16.7734 21.0991 18.4141 22.2007L19.0234 22.6109C19.3047 22.7984 19.6211 22.9038 19.9141 22.9038C20.5117 22.9038 20.9102 22.4937 20.9102 21.9194C20.9102 21.5679 20.7227 21.2163 20.4062 21.0171L19.4805 20.4194C17.8516 19.3413 14.9805 16.6226 14.9805 13.7515V7.77491H12.9297V13.7515C12.9297 16.6226 10.0469 19.3296 8.42969 20.4194L7.50391 21.0171C7.17578 21.2163 7 21.5796 7 21.9312C7 22.4585 7.38672 22.9038 7.98438 22.9038ZM11.2656 9.35695H16.6445C17.4648 9.35695 17.6875 8.78273 17.2305 8.1382L14.6172 4.39991C14.2422 3.87257 13.6797 3.86085 13.293 4.39991L10.668 8.12648C10.2109 8.78273 10.4219 9.35695 11.2656 9.35695Z" fill="black" fill-opacity="0.85"/>
</svg>
