<svg width="28" height="28" viewBox="0 0 28 28" fill="none" xmlns="http://www.w3.org/2000/svg">
<path d="M6.67969 24.5977H20.8945C23.3555 24.5977 24.5742 23.3789 24.5742 20.9648V6.65625C24.5742 4.24219 23.3555 3.02344 20.8945 3.02344H6.67969C4.23047 3.02344 3 4.23047 3 6.65625V20.9648C3 23.3906 4.23047 24.5977 6.67969 24.5977Z" fill="black" fill-opacity="0.85"/>
<path d="M10.8281 18.9258C8.42578 18.9258 7.69922 16.2305 7.69922 13.793C7.69922 11.3555 8.42578 8.66016 10.8281 8.66016C13.2422 8.66016 13.9688 11.3555 13.9688 13.793C13.9688 16.2305 13.2422 18.9258 10.8281 18.9258ZM10.8281 17.4844C11.8125 17.4844 12.1875 15.8906 12.1875 13.793C12.1875 11.6836 11.8125 10.1016 10.8281 10.1016C9.84375 10.1016 9.46875 11.6836 9.46875 13.793C9.46875 15.8906 9.84375 17.4844 10.8281 17.4844ZM18.1055 18.8086C17.6016 18.8086 17.2031 18.4102 17.2031 17.918V10.5937L16.0898 11.4844C15.9727 11.5781 15.8555 11.6367 15.668 11.6367C15.293 11.6367 15.0352 11.3672 15.0352 10.9922C15.0352 10.6758 15.2109 10.4414 15.4219 10.2773L16.7578 9.24609C17.0273 9.03516 17.4492 8.75391 17.9531 8.75391C18.5859 8.75391 18.9727 9.11719 18.9727 9.73828V17.918C18.9727 18.4102 18.5742 18.8086 18.1055 18.8086Z" fill="white"/>
</svg>
