<svg width="28" height="29" viewBox="0 0 28 29" fill="none" xmlns="http://www.w3.org/2000/svg">
<g clip-path="url(#clip0_2124_13317)">
<path d="M14.4336 2.48438C15.1367 2.48438 15.6641 1.94531 15.6641 1.24219C15.6641 0.550781 15.125 0 14.4336 0C13.7539 0 13.1914 0.5625 13.1914 1.24219C13.1914 1.93359 13.7422 2.48438 14.4336 2.48438ZM8.83203 5.70703C9.53516 5.70703 10.0742 5.16797 10.0742 4.46484C10.0742 3.77344 9.52344 3.22266 8.83203 3.22266C8.16406 3.22266 7.58984 3.78516 7.58984 4.46484C7.58984 5.15625 8.14062 5.70703 8.83203 5.70703ZM20.0234 5.70703C20.7266 5.70703 21.2656 5.16797 21.2656 4.46484C21.2656 3.77344 20.7148 3.22266 20.0234 3.22266C19.3555 3.22266 18.7812 3.78516 18.7812 4.46484C18.7812 5.15625 19.332 5.70703 20.0234 5.70703ZM3.24219 8.97656C3.94531 8.97656 4.47266 8.4375 4.47266 7.73438C4.47266 7.05469 3.93359 6.50391 3.24219 6.50391C2.5625 6.50391 2 7.06641 2 7.73438C2 8.42578 2.55078 8.97656 3.24219 8.97656ZM25.5781 8.97656C26.2812 8.97656 26.8203 8.4375 26.8203 7.73438C26.8203 7.04297 26.2695 6.50391 25.5781 6.50391C24.8984 6.50391 24.3359 7.06641 24.3359 7.73438C24.3359 8.42578 24.8867 8.97656 25.5781 8.97656ZM3.24219 15.4805C3.93359 15.4805 4.47266 14.9297 4.47266 14.2383C4.47266 13.5469 3.93359 12.9961 3.24219 12.9961C2.5625 12.9961 2 13.5586 2 14.2383C2 14.9297 2.55078 15.4805 3.24219 15.4805ZM25.5781 15.4805C26.2812 15.4805 26.8203 14.9414 26.8203 14.2383C26.8203 13.5469 26.2695 12.9961 25.5781 12.9961C24.8984 12.9961 24.3359 13.5586 24.3359 14.2383C24.3359 14.9297 24.8867 15.4805 25.5781 15.4805ZM3.24219 21.9727C3.94531 21.9727 4.47266 21.4336 4.47266 20.7305C4.47266 20.0508 3.93359 19.5 3.24219 19.5C2.5625 19.5 2 20.0625 2 20.7305C2 21.4219 2.55078 21.9727 3.24219 21.9727ZM25.5781 21.9727C26.2812 21.9727 26.8203 21.4453 26.8203 20.7305C26.8203 20.0508 26.2695 19.5 25.5781 19.5C24.8984 19.5 24.3359 20.0625 24.3359 20.7305C24.3359 21.4219 24.8867 21.9727 25.5781 21.9727ZM8.83203 25.2422C9.53516 25.2422 10.0742 24.7148 10.0742 24.0117C10.0742 23.3203 9.52344 22.7695 8.83203 22.7695C8.16406 22.7695 7.58984 23.332 7.58984 24.0117C7.58984 24.7031 8.14062 25.2422 8.83203 25.2422ZM20.0234 25.2422C20.7266 25.2422 21.2656 24.7148 21.2656 24.0117C21.2656 23.3203 20.7148 22.7695 20.0234 22.7695C19.3555 22.7695 18.7812 23.332 18.7812 24.0117C18.7812 24.7031 19.332 25.2422 20.0234 25.2422ZM14.4336 28.4766C15.1367 28.4766 15.6641 27.9375 15.6641 27.2344C15.6641 26.543 15.125 25.9922 14.4336 25.9922C13.7539 25.9922 13.1914 26.5547 13.1914 27.2344C13.1914 27.9258 13.7422 28.4766 14.4336 28.4766Z" fill="black" fill-opacity="0.85"/>
<path d="M14.4336 9.41016C15.3594 9.41016 16.0977 8.67188 16.0977 7.73438C16.0977 6.82031 15.3477 6.07031 14.4336 6.07031C13.5195 6.07031 12.7578 6.83203 12.7578 7.73438C12.7578 8.66016 13.5078 9.41016 14.4336 9.41016ZM8.83203 12.6562C9.76953 12.6562 10.5078 11.918 10.5078 10.9805C10.5078 10.0547 9.75781 9.30469 8.83203 9.30469C7.92969 9.30469 7.16797 10.0781 7.16797 10.9805C7.16797 11.9062 7.91797 12.6562 8.83203 12.6562ZM20.0234 12.6562C20.9609 12.6562 21.6992 11.918 21.6992 10.9805C21.6992 10.0547 20.9492 9.30469 20.0234 9.30469C19.1211 9.30469 18.3594 10.0781 18.3594 10.9805C18.3594 11.9062 19.1094 12.6562 20.0234 12.6562ZM8.83203 19.1719C9.76953 19.1719 10.5078 18.4336 10.5078 17.4961C10.5078 16.5703 9.75781 15.8203 8.83203 15.8203C7.92969 15.8203 7.16797 16.582 7.16797 17.4961C7.16797 18.4102 7.91797 19.1719 8.83203 19.1719ZM20.0234 19.1719C20.9609 19.1719 21.6992 18.4336 21.6992 17.4961C21.6992 16.5703 20.9492 15.8203 20.0234 15.8203C19.1211 15.8203 18.3594 16.582 18.3594 17.4961C18.3594 18.4102 19.1094 19.1719 20.0234 19.1719ZM14.4336 22.4062C15.3594 22.4062 16.0977 21.668 16.0977 20.7305C16.0977 19.8164 15.3477 19.0664 14.4336 19.0664C13.5312 19.0664 12.7578 19.8281 12.7578 20.7305C12.7578 21.6562 13.5078 22.4062 14.4336 22.4062Z" fill="black" fill-opacity="0.85"/>
<path d="M14.4336 16.1953C15.5234 16.1953 16.3906 15.3281 16.3906 14.2383C16.3906 13.1602 15.5 12.2812 14.4336 12.2812C13.3672 12.2812 12.4766 13.1719 12.4766 14.2383C12.4766 15.3047 13.3555 16.1953 14.4336 16.1953Z" fill="black" fill-opacity="0.85"/>
</g>
<defs>
<clipPath id="clip0_2124_13317">
<rect width="24.8203" height="28.4883" fill="white" transform="translate(2)"/>
</clipPath>
</defs>
</svg>
