<svg width="28" height="28" viewBox="0 0 28 28" fill="none" xmlns="http://www.w3.org/2000/svg">
<g clip-path="url(#clip0_2124_50241)">
<path d="M2 9.70703H25.4258V6.44922C25.4258 4.98438 24.4766 4 23.0703 4H4.35547C2.94922 4 2 4.98438 2 6.44922V9.70703ZM6.34766 8.14844C5.75 8.14844 5.28125 7.67969 5.28125 7.09375C5.28125 6.50781 5.75 6.03906 6.34766 6.03906C6.92188 6.03906 7.40234 6.50781 7.40234 7.09375C7.40234 7.67969 6.92188 8.14844 6.34766 8.14844ZM9.45312 8.14844C8.86719 8.14844 8.39844 7.67969 8.39844 7.09375C8.39844 6.50781 8.86719 6.03906 9.45312 6.03906C10.0391 6.03906 10.5195 6.50781 10.5195 7.09375C10.5195 7.67969 10.0391 8.14844 9.45312 8.14844ZM12.5703 8.14844C11.9727 8.14844 11.5039 7.67969 11.5039 7.09375C11.5039 6.50781 11.9727 6.03906 12.5703 6.03906C13.1445 6.03906 13.625 6.50781 13.625 7.09375C13.625 7.67969 13.1445 8.14844 12.5703 8.14844ZM18.7109 7.70312C18.3477 7.70312 18.0898 7.44531 18.0898 7.08203C18.0898 6.71875 18.3477 6.48438 18.7109 6.48438H21.9805C22.3438 6.48438 22.5781 6.71875 22.5781 7.08203C22.5781 7.44531 22.3438 7.70312 21.9805 7.70312H18.7109ZM4.35547 24.2266H23.0703C24.4766 24.2266 25.4258 23.2422 25.4258 21.7773V11.0078H2V21.7773C2 23.2422 2.94922 24.2266 4.35547 24.2266ZM6.23047 21.6719C5.55078 21.6719 5.11719 21.2266 5.11719 20.5586V13.9844C5.11719 13.293 5.55078 12.8477 6.23047 12.8477H21.207C21.8867 12.8477 22.3203 13.293 22.3203 13.9844V20.5586C22.3203 21.2266 21.8867 21.6719 21.207 21.6719H6.23047ZM6.41797 15.543H21.0195V14.4766C21.0195 14.2773 20.8906 14.1484 20.7031 14.1484H6.73438C6.54688 14.1484 6.41797 14.2773 6.41797 14.4766V15.543ZM6.73438 20.3711H20.7031C20.8906 20.3711 21.0195 20.2422 21.0195 20.0547V16.8438H6.41797V20.0547C6.41797 20.2422 6.54688 20.3711 6.73438 20.3711Z" fill="black" fill-opacity="0.85"/>
</g>
<defs>
<clipPath id="clip0_2124_50241">
<rect width="23.4258" height="20.2383" fill="white" transform="translate(2 4)"/>
</clipPath>
</defs>
</svg>
