<svg width="28" height="28" viewBox="0 0 28 28" fill="none" xmlns="http://www.w3.org/2000/svg">
<path d="M13.9531 25.9062C20.4922 25.9062 25.9062 20.4805 25.9062 13.9531C25.9062 7.41406 20.4805 2 13.9414 2C7.41406 2 2 7.41406 2 13.9531C2 20.4805 7.42578 25.9062 13.9531 25.9062ZM13.9531 23.9141C8.42188 23.9141 4.00391 19.4844 4.00391 13.9531C4.00391 8.42188 8.41016 3.99219 13.9414 3.99219C19.4727 3.99219 23.9141 8.42188 23.9141 13.9531C23.9141 19.4844 19.4844 23.9141 13.9531 23.9141Z" fill="black" fill-opacity="0.85"/>
<path d="M8.38672 18.6875H12.4531C12.8633 18.6875 13.1094 18.418 13.1094 18.0078C13.1094 17.5625 12.8516 17.3164 12.4531 17.3164H9.66406V17.2227L11.375 15.0547C12.5469 13.6016 12.9336 12.7344 12.9336 11.7031C12.9336 10.1211 11.8555 8.97266 10.2383 8.97266C8.73828 8.97266 7.60156 10.2148 7.60156 11.4336C7.60156 11.8672 7.85938 12.1719 8.30469 12.1719C8.69141 12.1719 8.92578 11.9961 9.05469 11.6094C9.27734 10.8242 9.55859 10.332 10.2383 10.332C10.9414 10.332 11.3398 10.9531 11.3398 11.7852C11.3398 12.7227 10.6836 13.6719 10.0625 14.4688L8.02344 17.0703C7.8125 17.3516 7.58984 17.6445 7.58984 18.0078C7.58984 18.4062 7.84766 18.6875 8.38672 18.6875ZM17.4336 18.9336C19.2266 18.9336 20.2461 17.4336 20.2461 15.5938C20.2461 14.0117 19.4844 12.5117 17.9258 12.5117C16.9766 12.5117 16.2617 13.1445 15.9922 14.1523H15.9453C15.9453 14.1055 15.9453 14.0586 15.9453 14.0234C15.9453 12.7227 16.1094 10.3672 17.4102 10.3672C17.9492 10.3672 18.3008 10.7422 18.5 11.2344C18.6641 11.5977 18.8984 11.7617 19.2734 11.7617C19.7422 11.7617 19.9414 11.4453 19.9414 11.0586C19.9414 10.9297 19.9297 10.7891 19.8945 10.6367C19.6367 9.62891 18.6289 8.99609 17.457 8.99609C15.043 8.99609 14.3516 11.6914 14.3516 14.0703C14.3516 16.2852 15.0547 18.9336 17.4336 18.9336ZM17.4102 17.5625C16.5312 17.5625 16.168 16.4609 16.168 15.6172C16.168 14.7617 16.5664 13.7891 17.4102 13.7891C18.2773 13.7891 18.6406 14.7969 18.6172 15.6641C18.6172 16.5195 18.2305 17.5625 17.4102 17.5625Z" fill="black" fill-opacity="0.85"/>
</svg>
