<svg width="28" height="28" viewBox="0 0 28 28" fill="none" xmlns="http://www.w3.org/2000/svg">
<g clip-path="url(#clip0_2124_88595)">
<path d="M15.3143 5.99402L17.1776 6.67371L19.076 1.43543C19.287 0.861207 19.0526 0.322145 18.5018 0.111207C17.951 -0.0880117 17.4354 0.169801 17.2245 0.755738L15.3143 5.99402ZM15.5135 2.15026C8.65806 0.74402 3.58384 5.34949 2.08384 9.52137C1.83774 10.1776 2.16587 10.7284 2.64634 10.9159C3.03306 11.0565 3.3729 10.8925 3.67759 10.6464C4.76743 9.83776 5.78696 9.49792 6.99399 9.94323C7.80259 10.2362 8.27134 10.787 8.55259 11.3378C8.72837 11.6776 9.06821 11.6893 9.16196 11.3143C10.1581 7.41198 12.5487 4.14246 15.5135 2.15026ZM17.869 1.72839C14.5292 3.99011 11.6112 7.95105 10.6034 12.1229C10.5096 12.5214 10.8143 12.7909 11.2831 12.6151C12.2206 12.2284 13.1229 12.0995 13.9784 12.4159C14.8338 12.7206 15.4432 13.4003 15.9237 14.3026C16.1581 14.7245 16.5448 14.7362 16.744 14.3612C18.6542 10.5292 18.9706 5.59558 17.869 1.72839ZM19.4627 3.57996C20.4471 7.00183 20.1659 11.0331 18.4432 14.701C18.2792 15.0409 18.5252 15.2635 18.8885 15.0995C19.4745 14.8534 20.1776 14.7362 20.9745 15.0292C22.1932 15.4745 22.7557 16.4003 23.0721 17.701C23.1424 18.0878 23.3182 18.4393 23.6815 18.5682C24.1737 18.744 24.7831 18.5331 25.0174 17.8651C26.5409 13.705 25.6268 6.91981 19.4627 3.57996ZM7.86118 26.4784C7.67368 26.994 7.93149 27.5565 8.44712 27.744C8.95103 27.9198 9.53696 27.6385 9.71274 27.1464L15.1268 12.2987L13.2752 11.619L7.86118 26.4784Z" fill="black" fill-opacity="0.85"/>
</g>
<defs>
<clipPath id="clip0_2124_88595">
<rect width="23.663" height="27.7966" fill="white" transform="translate(2)"/>
</clipPath>
</defs>
</svg>
