<svg width="28" height="28" viewBox="0 0 28 28" fill="none" xmlns="http://www.w3.org/2000/svg">
<path d="M9.23438 24.0352H18.3984C25.1953 24.0352 27.6328 21.5156 27.6328 15.2461V11.8008C27.6328 5.53125 25.1953 3 18.3984 3H9.23438C2.4375 3 0 5.53125 0 11.8008V15.2461C0 21.5156 2.4375 24.0352 9.23438 24.0352Z" fill="black" fill-opacity="0.85"/>
<path d="M7.27734 18.4219C6.71484 18.4219 6.39844 18.082 6.39844 17.5078V9.375C6.39844 8.89453 6.80859 8.49609 7.28906 8.49609C7.75781 8.49609 8.16797 8.89453 8.16797 9.375V16.9453H10.7461C11.1445 16.9453 11.4844 17.2734 11.4844 17.6719C11.4844 18.0938 11.1445 18.4219 10.7461 18.4219H7.27734ZM13.5352 18.5859C13.0547 18.5859 12.7383 18.2578 12.7383 17.7422V9.73828C12.7383 8.96484 13.2305 8.49609 13.9922 8.49609C14.6602 8.49609 15.0586 8.83594 15.2344 9.51562L16.8867 16.0898H16.9453L18.5859 9.51562C18.75 8.83594 19.1484 8.49609 19.8398 8.49609C20.6133 8.49609 21.0938 8.94141 21.0938 9.73828V17.7422C21.0938 18.2578 20.8125 18.5859 20.2969 18.5859C19.8047 18.5859 19.5117 18.2578 19.5117 17.7422V11.2266H19.4531L17.8125 17.5898C17.6836 18.082 17.4258 18.4102 16.9219 18.4102C16.4414 18.4102 16.1484 18.0703 16.0312 17.6016L14.3906 11.2266H14.3203V17.7422C14.3203 18.2578 14.0156 18.5859 13.5352 18.5859Z" fill="white"/>
</svg>
