<svg width="28" height="28" viewBox="0 0 28 28" fill="none" xmlns="http://www.w3.org/2000/svg">
<path d="M13.9531 25.9062C20.4922 25.9062 25.9062 20.4805 25.9062 13.9531C25.9062 7.41406 20.4805 2 13.9414 2C7.41406 2 2 7.41406 2 13.9531C2 20.4805 7.42578 25.9062 13.9531 25.9062ZM13.9531 23.9141C8.42188 23.9141 4.00391 19.4844 4.00391 13.9531C4.00391 8.42188 8.41016 3.99219 13.9414 3.99219C19.4727 3.99219 23.9141 8.42188 23.9141 13.9531C23.9141 19.4844 19.4844 23.9141 13.9531 23.9141Z" fill="black" fill-opacity="0.85"/>
<path d="M10.0391 13.9531C10.0391 16.3789 11.3398 17.9727 13.3555 18.2422V19.1211C13.3555 19.4609 13.6016 19.6953 13.9297 19.6953C14.2695 19.6953 14.5156 19.4609 14.5156 19.1211V18.2539C16.0039 18.0781 17.0586 17.2344 17.3984 16.1914C17.4336 16.0625 17.4688 15.9219 17.4688 15.7812C17.4688 15.3711 17.1758 15.0898 16.7656 15.0898C16.4375 15.0898 16.2148 15.2773 16.0859 15.582C15.8164 16.25 15.2891 16.7188 14.5156 16.8711V11.0352C15.2773 11.1875 15.8047 11.668 16.0742 12.3125C16.2148 12.6523 16.4492 12.8281 16.7773 12.8281C17.1875 12.8281 17.457 12.5469 17.457 12.125C17.457 11.9844 17.4219 11.8555 17.3867 11.7383C17.0469 10.6953 15.9805 9.83984 14.5156 9.66406V8.79688C14.5156 8.45703 14.2695 8.21094 13.9297 8.21094C13.6016 8.21094 13.3555 8.45703 13.3555 8.79688V9.67578C11.3398 9.94531 10.0391 11.5508 10.0391 13.9531ZM11.5273 13.9531C11.5273 12.3711 12.2305 11.3398 13.3555 11.0586V16.8477C12.2305 16.5781 11.5273 15.5586 11.5273 13.9531Z" fill="black" fill-opacity="0.85"/>
</svg>
