<svg width="28" height="28" viewBox="0 0 28 28" fill="none" xmlns="http://www.w3.org/2000/svg">
<g clip-path="url(#clip0_2124_88703)">
<path d="M8 2.70703H19.4961V2.30859C19.4961 0.75 18.7344 0 17.2344 0H10.25C8.75 0 8 0.75 8 2.30859V2.70703ZM12.6523 27.7031H14.8438C16.3203 27.7031 17.1055 26.918 17.1055 25.3945V11.8008C17.1055 10.5 17.3984 9.62109 17.8672 8.89453L18.5352 7.85156C19.1094 6.94922 19.4961 6.17578 19.4961 5.13281V4.06641H8V5.13281C8 6.17578 8.38672 6.94922 8.96094 7.85156L9.62891 8.89453C10.0977 9.62109 10.3906 10.5 10.3906 11.8008V25.3945C10.3906 26.918 11.1758 27.7031 12.6523 27.7031ZM11.6797 12.9141C11.6797 11.7656 12.582 10.8516 13.7539 10.8516C14.9141 10.8516 15.8164 11.7656 15.8164 12.9141V16.4531C15.8164 17.6133 14.9141 18.5156 13.7539 18.5156C12.582 18.5156 11.6797 17.6133 11.6797 16.4531V12.9141ZM13.7539 17.7891C14.5273 17.7891 15.0898 17.2266 15.0898 16.4531C15.0898 15.7266 14.4922 15.1289 13.7539 15.1289C13.0039 15.1289 12.4062 15.7266 12.4062 16.4531C12.4062 17.2266 12.9805 17.7891 13.7539 17.7891Z" fill="black" fill-opacity="0.85"/>
</g>
<defs>
<clipPath id="clip0_2124_88703">
<rect width="11.4961" height="27.7148" fill="white" transform="translate(8)"/>
</clipPath>
</defs>
</svg>
