<svg width="34" height="28" viewBox="0 0 34 28" fill="none" xmlns="http://www.w3.org/2000/svg">
<path d="M3.33204 14.9727H9.90626C10.2812 14.9727 10.4687 14.7852 10.6094 14.4805L11.3711 12.8047L13.4219 17.2578C13.6679 17.7734 14.3594 17.7734 14.6172 17.2227L16.9961 11.9492L19.375 17.2227C19.6328 17.7734 20.3242 17.7734 20.5586 17.2578L22.6094 12.8047L23.3828 14.4805C23.5234 14.7852 23.6992 14.9727 24.0742 14.9727H30.6601L30.7304 13.3672H23.7461L25.1289 14.5977L23.3125 10.6719C23.0078 10.0156 22.1992 10.0273 21.9179 10.6367L19.9609 14.832L17.5937 9.55859C17.3242 9.00781 16.6562 9.00781 16.3984 9.55859L14.0195 14.832L12.0625 10.6367C11.7812 10.0273 10.9844 10.0156 10.6797 10.6719L8.86329 14.5977L10.2461 13.3672H3.26172L3.33204 14.9727Z" fill="black" fill-opacity="0.85"/>
<path d="M16.9958 21.0312C19.3044 21.0312 21.9997 21.7344 24.0036 22.7773C24.5426 23.0703 25.1403 22.9531 25.4919 22.4961L33.4723 12.3359C34.2575 11.3281 34.1286 10.2617 33.1325 9.47656C29.863 6.95703 23.5934 5 16.9958 5C10.3981 5 4.12858 6.95703 0.847332 9.47656C-0.148761 10.2617 -0.277668 11.3281 0.519207 12.3359L8.49968 22.4961C8.85124 22.9531 9.43718 23.0703 9.97624 22.7773C11.9801 21.7344 14.6872 21.0312 16.9958 21.0312ZM16.9958 19.1445C14.8512 19.1445 12.3786 19.707 9.98796 20.6914C9.69499 20.8086 9.56608 20.7852 9.33171 20.4922L2.39421 11.6562C2.17155 11.3633 2.20671 11.082 2.52311 10.8711C6.55436 8.32812 11.7223 6.88672 16.9958 6.88672C22.2692 6.88672 27.4372 8.32812 31.4684 10.8711C31.7848 11.082 31.82 11.3633 31.5856 11.6562L24.6598 20.4922C24.4255 20.7852 24.2966 20.8086 24.0036 20.6914C21.613 19.707 19.1286 19.1445 16.9958 19.1445Z" fill="black" fill-opacity="0.85"/>
</svg>
