<svg width="28" height="28" viewBox="0 0 28 28" fill="none" xmlns="http://www.w3.org/2000/svg">
<path d="M13.9531 25.9062C20.4922 25.9062 25.9062 20.4805 25.9062 13.9531C25.9062 7.41406 20.4805 2 13.9414 2C7.41406 2 2 7.41406 2 13.9531C2 20.4805 7.42578 25.9062 13.9531 25.9062ZM13.9531 23.9141C8.42188 23.9141 4.00391 19.4844 4.00391 13.9531C4.00391 8.42188 8.41016 3.99219 13.9414 3.99219C19.4727 3.99219 23.9141 8.42188 23.9141 13.9531C23.9141 19.4844 19.4844 23.9141 13.9531 23.9141Z" fill="black" fill-opacity="0.85"/>
<path d="M14.1289 20.8672C14.457 20.8672 14.7031 20.6328 14.7031 20.293V19.5078H14.8555C17.0352 19.5078 18.418 18.3125 18.418 16.4141C18.418 15.0898 17.6328 14.1055 16.4141 13.7422C17.2695 13.3203 17.8789 12.3945 17.8789 11.3984C17.8789 9.78125 16.6602 8.60938 14.8555 8.60938H14.7031V7.71875C14.7031 7.39062 14.457 7.15625 14.1289 7.15625C13.8125 7.15625 13.5664 7.39062 13.5664 7.71875V8.60938H11.8086C11.2695 8.60938 10.8828 8.98438 10.8828 9.53516V18.5938C10.8828 19.1328 11.2578 19.5078 11.8086 19.5078H13.5664V20.293C13.5664 20.6328 13.8125 20.8672 14.1289 20.8672ZM12.3945 18.1367V14.5742H13.5664V18.125L12.3945 18.1367ZM14.7031 18.1133V14.5859C16.1797 14.668 16.918 15.2656 16.918 16.3555C16.918 17.457 16.1797 18.0547 14.7031 18.1133ZM12.3828 13.2148L12.3945 9.96875H13.5664V13.2148H12.3828ZM14.7031 13.1562V9.99219C15.793 10.0859 16.3789 10.6133 16.3789 11.5156C16.3789 12.4297 15.8164 13.0039 14.7031 13.1562Z" fill="black" fill-opacity="0.85"/>
</svg>
