<svg width="28" height="28" viewBox="0 0 28 28" fill="none" xmlns="http://www.w3.org/2000/svg">
<path d="M6.67969 24.5977H20.8945C23.3555 24.5977 24.5742 23.3789 24.5742 20.9648V6.65625C24.5742 4.24219 23.3555 3.02344 20.8945 3.02344H6.67969C4.23047 3.02344 3 4.23047 3 6.65625V20.9648C3 23.3906 4.23047 24.5977 6.67969 24.5977ZM6.70312 22.7109C5.53125 22.7109 4.88672 22.0898 4.88672 20.8711V6.75C4.88672 5.53125 5.53125 4.91016 6.70312 4.91016H20.8711C22.0312 4.91016 22.6875 5.53125 22.6875 6.75V20.8711C22.6875 22.0898 22.0312 22.7109 20.8711 22.7109H6.70312Z" fill="black" fill-opacity="0.85"/>
<path d="M11.2734 18.6797C11.707 18.6797 12.0703 18.4102 12.0703 17.8477V16.6758H12.4922C12.9375 16.6758 13.1602 16.3828 13.1602 15.9844C13.1602 15.6094 12.9609 15.3164 12.4922 15.3164H12.0703V10.1719C12.0703 9.36327 11.543 8.90625 10.7812 8.90625C9.94922 8.90625 9.5625 9.32812 9.23438 10.0547L7.13672 14.6016C6.94922 15.0586 6.87891 15.3633 6.87891 15.7266C6.87891 16.2891 7.26562 16.6758 7.83984 16.6758H10.4648V17.8477C10.4648 18.4688 10.8984 18.6797 11.2734 18.6797ZM10.5 15.3516H8.32031V15.2695L10.4531 10.3828H10.5V15.3516ZM17.2266 18.7383C18.9141 18.7383 20.2031 17.6836 20.2031 15.9258C20.2031 14.4727 19.3359 13.7578 18.3516 13.6523V13.6172C19.4062 13.3359 19.9219 12.3867 19.9219 11.4023C19.9219 9.78516 18.7148 8.85938 17.1914 8.85938C15.9727 8.85938 14.9297 9.53906 14.5898 10.582C14.5312 10.8047 14.5078 11.0156 14.5078 11.2148C14.5078 11.6016 14.7656 11.9062 15.2227 11.9062C15.6211 11.9062 15.8555 11.7539 15.9727 11.3437C16.1602 10.6523 16.5234 10.2187 17.1914 10.2187C17.9648 10.2187 18.3281 10.8164 18.3281 11.5898C18.3281 12.4453 17.8594 13.0664 16.9805 13.0664H16.6992C16.3008 13.0664 16.043 13.3125 16.043 13.6992C16.043 14.0859 16.3125 14.3086 16.6992 14.3086H16.9922C17.9883 14.3086 18.5391 14.8594 18.5391 15.8789C18.5391 16.6875 18.1055 17.3789 17.2383 17.3789C16.3828 17.3789 15.9961 16.8047 15.8555 16.2656C15.75 15.8906 15.4922 15.6914 15.1172 15.6914C14.6602 15.6914 14.3555 15.9727 14.3555 16.4297C14.3555 16.6406 14.3789 16.8516 14.4492 17.0391C14.7773 18.1289 15.9727 18.7383 17.2266 18.7383Z" fill="black" fill-opacity="0.85"/>
</svg>
