<svg width="28" height="28" viewBox="0 0 28 28" fill="none" xmlns="http://www.w3.org/2000/svg">
<g clip-path="url(#clip0_2124_88507)">
<path d="M4 4H6.94141V2.32422C6.94141 1.48047 6.50781 1 5.74609 1H5.17188C4.42188 1 4 1.50391 4 2.32422V4ZM4 24.3086L5.06641 26.9336C5.18359 27.2031 5.61719 27.2266 5.74609 26.9453L6.94141 24.3086V5.37109H4V24.3086ZM15.5898 27.2031H21.4023C23.1016 27.2031 24.2734 26.0312 24.2734 24.3203V4.05859C24.2734 2.34766 23.1016 1.16406 21.4023 1.16406H15.5898C13.8906 1.16406 12.7305 2.34766 12.7305 4.07031V24.3203C12.7305 26.0312 13.8906 27.2031 15.5898 27.2031ZM22.5039 4.35156H17.5703C17.3242 4.35156 17.125 4.16406 17.125 3.90625C17.125 3.67188 17.3125 3.48438 17.5586 3.48438H22.5039V4.35156ZM22.5039 6.40234H19.4219C19.1758 6.40234 19 6.22656 19 5.96875C19 5.72266 19.1641 5.53516 19.4102 5.53516H22.5039V6.40234ZM22.5039 8.46484H19.4219C19.1758 8.46484 19 8.28906 19 8.03125C19 7.78516 19.1641 7.59766 19.4102 7.59766H22.5039V8.46484ZM22.5039 10.5156H19.4219C19.1758 10.5156 19 10.3516 19 10.082C19 9.83594 19.1641 9.63672 19.4102 9.63672H22.5039V10.5156ZM22.5039 12.5664H19.4219C19.1758 12.5664 19 12.4023 19 12.1445C19 11.9102 19.1641 11.6992 19.4102 11.6992H22.5039V12.5664ZM22.5039 14.6289H17.5703C17.3242 14.6289 17.125 14.4531 17.125 14.1953C17.125 13.9609 17.3125 13.75 17.5586 13.75H22.5039V14.6289ZM22.5039 16.6914H19.4219C19.1758 16.6914 19 16.5156 19 16.2578C19 16.0117 19.1641 15.8125 19.4102 15.8125H22.5039V16.6914ZM22.5039 18.7539H19.4219C19.1758 18.7539 19 18.5664 19 18.3086C19 18.0742 19.1641 17.8867 19.4102 17.8867H22.5039V18.7539ZM22.5039 20.793H19.4219C19.1758 20.793 19 20.6172 19 20.3594C19 20.1133 19.1641 19.9258 19.4102 19.9258H22.5039V20.793ZM22.5039 22.8555H19.4219C19.1758 22.8555 19 22.6797 19 22.4102C19 22.1758 19.1641 21.9883 19.4102 21.9883H22.5039V22.8555ZM22.5039 24.8945H17.5703C17.3242 24.8945 17.125 24.7305 17.125 24.4727C17.125 24.2266 17.3125 24.0273 17.5586 24.0273H22.5039V24.8945Z" fill="black" fill-opacity="0.85"/>
</g>
<defs>
<clipPath id="clip0_2124_88507">
<rect width="20.2734" height="26.3789" fill="white" transform="translate(4 1)"/>
</clipPath>
</defs>
</svg>
