<svg width="28" height="28" viewBox="0 0 28 28" fill="none" xmlns="http://www.w3.org/2000/svg">
<g clip-path="url(#clip0_2124_88799)">
<path d="M6.67969 24.5977H20.8945C23.3555 24.5977 24.5742 23.3789 24.5742 20.9648V6.65625C24.5742 4.24219 23.3555 3.02344 20.8945 3.02344H6.67969C4.23047 3.02344 3 4.23047 3 6.65625V20.9648C3 23.3906 4.23047 24.5977 6.67969 24.5977Z" fill="black" fill-opacity="0.85"/>
<path d="M19.2305 10.3359C18.1406 10.3125 17.2383 9.45703 17.2383 8.35547C17.2383 7.27734 18.1406 6.41016 19.2305 6.41016C20.2969 6.41016 21.1758 7.27734 21.1758 8.35547C21.1758 9.45703 20.2969 10.3594 19.2305 10.3359ZM13.793 15.7734C12.7031 15.7734 11.8359 14.8945 11.8359 13.793C11.8359 12.7148 12.7031 11.8477 13.793 11.8477C14.8594 11.8477 15.75 12.7148 15.75 13.793C15.75 14.8945 14.8594 15.7734 13.793 15.7734ZM8.36719 21.2109C7.27734 21.2109 6.41016 20.332 6.41016 19.2422C6.41016 18.1523 7.27734 17.2852 8.36719 17.2852C9.43359 17.2852 10.3242 18.1523 10.3242 19.2422C10.3242 20.332 9.43359 21.2109 8.36719 21.2109Z" fill="white"/>
</g>
<defs>
<clipPath id="clip0_2124_88799">
<rect width="21.5742" height="21.5977" fill="white" transform="translate(3 3)"/>
</clipPath>
</defs>
</svg>
