<svg width="29" height="29" viewBox="0 0 29 29" fill="none" xmlns="http://www.w3.org/2000/svg">
<g clip-path="url(#clip0_2124_46051)">
<path d="M12.9512 2.17188C7.86524 2.17188 5.00586 5.35937 5.00586 10.7969V13.0468C5.00586 15.1093 5.99023 16.3633 7.11524 16.3633C7.37305 16.3633 7.50195 16.2343 7.50195 15.9883V14.9922C7.50195 14.5234 7.74805 14.289 8.0293 14.289C8.33398 14.289 8.56836 14.5234 8.56836 14.9922V15.6484C8.56836 16.8554 9.35352 17.6523 10.3965 17.6523C10.8769 17.6523 11.0879 17.4648 11.0879 17.0547V15.6953C11.0879 15.2265 11.3223 14.9922 11.6035 14.9922C11.9082 14.9922 12.1543 15.2265 12.1543 15.6953V16.9492C12.1543 18.3086 12.9394 18.9531 13.959 18.9531C14.4043 18.9531 14.6504 18.7422 14.6504 18.3554V15.6953C14.6504 15.2265 14.8848 14.9922 15.1661 14.9922C15.4707 14.9922 15.7168 15.2265 15.7168 15.6953V24.5898C15.7168 25.457 16.2793 26.0312 17.0176 26.0312C17.8028 26.0312 18.3418 25.457 18.3418 24.5898V11.5703C18.3418 11.2539 18.5528 11.0781 18.752 11.0781C18.9512 11.0781 19.1153 11.1953 19.2559 11.5234L20.9786 15.5898C21.2364 16.1875 21.6231 16.457 22.1504 16.457C22.959 16.457 23.4747 15.9062 23.4747 15.2383C23.4747 14.9687 23.4161 14.7461 23.3457 14.5586L21.459 8.89844C19.8418 4.12891 16.6895 2.17188 12.9512 2.17188Z" fill="black" fill-opacity="0.85"/>
</g>
<defs>
<clipPath id="clip0_2124_46051">
<rect width="18.4688" height="24.0117" fill="white" transform="translate(5.00586 2.01953)"/>
</clipPath>
</defs>
</svg>
