<svg width="28" height="28" viewBox="0 0 28 28" fill="none" xmlns="http://www.w3.org/2000/svg">
<g clip-path="url(#clip0_2124_88709)">
<path d="M8.13574 2.70703H19.6318V2.30859C19.6318 0.75 18.8818 0 17.3818 0H10.3975C8.89746 0 8.13574 0.75 8.13574 2.30859V2.70703ZM12.7881 27.7031H14.9795C16.4561 27.7031 17.2412 26.918 17.2412 25.3945V11.8008C17.2412 10.5 17.5342 9.62109 18.0029 8.89453L18.6709 7.85156C19.2451 6.94922 19.6318 6.17578 19.6318 5.13281V4.06641H8.13574V5.13281C8.13574 6.17578 8.52246 6.94922 9.09668 7.85156L9.76465 8.89453C10.2334 9.62109 10.5381 10.5 10.5381 11.8008V25.3945C10.5381 26.918 11.3115 27.7031 12.7881 27.7031ZM11.8154 16.4531V12.9141C11.8154 11.7656 12.7295 10.8516 13.8896 10.8516C15.0498 10.8516 15.9639 11.7656 15.9639 12.9141V16.4531C15.9639 17.6133 15.0498 18.5156 13.8896 18.5156C12.7295 18.5156 11.8154 17.6133 11.8154 16.4531Z" fill="black" fill-opacity="0.85"/>
<path d="M3.65918 7.48829L20.9326 24.7266C21.8232 25.6172 23.2764 25.6172 24.1553 24.7031C25.0225 23.8125 25.0342 22.3828 24.1436 21.5156L6.88184 4.27735C6.00293 3.38673 4.5498 3.37501 3.65918 4.27735C2.78027 5.14454 2.78027 6.60939 3.65918 7.48829Z" fill="white"/>
<path d="M4.63184 6.51562L21.8936 23.7539C22.2451 24.1172 22.8311 24.1172 23.1709 23.7539C23.5225 23.4023 23.5225 22.8398 23.1709 22.4883L5.9209 5.23828C5.56934 4.88672 4.9834 4.88672 4.63184 5.23828C4.29199 5.57812 4.29199 6.17578 4.63184 6.51562Z" fill="black" fill-opacity="0.85"/>
</g>
<defs>
<clipPath id="clip0_2124_88709">
<rect width="21.8086" height="27.7148" fill="white" transform="translate(3)"/>
</clipPath>
</defs>
</svg>
