<svg width="28" height="28" viewBox="0 0 28 28" fill="none" xmlns="http://www.w3.org/2000/svg">
<g clip-path="url(#clip0_2124_78063)">
<path d="M13.9531 25.9062C20.4922 25.9062 25.9062 20.4805 25.9062 13.9531C25.9062 7.41406 20.4805 2 13.9414 2C7.41406 2 2 7.41406 2 13.9531C2 20.4805 7.42578 25.9062 13.9531 25.9062Z" fill="black" fill-opacity="0.85"/>
<path d="M17.0938 18.9102C16.8477 18.9102 16.6953 18.8516 16.5078 18.7695L9.30078 15.0195C8.79688 14.7617 8.58594 14.457 8.58594 13.9531C8.58594 13.4961 8.82031 13.1562 9.30078 12.8867L16.5078 9.00781C16.707 8.91406 16.8477 8.85547 17.1172 8.85547C17.6914 8.85547 18.1016 9.27734 18.1016 9.81641C18.1016 10.2734 17.8906 10.5664 17.3984 10.8008L11.2695 13.8828V13.9531L17.3984 16.9648C17.9023 17.1992 18.1016 17.4688 18.1016 17.9375C18.1016 18.4883 17.6797 18.9102 17.0938 18.9102Z" fill="white"/>
</g>
<defs>
<clipPath id="clip0_2124_78063">
<rect width="23.9062" height="23.918" fill="white" transform="translate(2 2)"/>
</clipPath>
</defs>
</svg>
