<svg width="28" height="28" viewBox="0 0 28 28" fill="none" xmlns="http://www.w3.org/2000/svg">
<path d="M13.9531 25.9062C20.4922 25.9062 25.9062 20.4805 25.9062 13.9531C25.9062 7.41406 20.4805 2 13.9414 2C7.41406 2 2 7.41406 2 13.9531C2 20.4805 7.42578 25.9062 13.9531 25.9062Z" fill="black" fill-opacity="0.85"/>
<path d="M13.9766 6.42969C14.2344 6.42969 14.4336 6.54688 14.6797 6.78125L18.1836 10.2617C18.3477 10.4141 18.4297 10.6367 18.4297 10.8945C18.4297 11.3867 18.0547 11.7617 17.5508 11.7617C17.2812 11.7617 17.0703 11.6562 16.9062 11.5039L16.0039 10.5898L14.7852 9.13672L14.8906 11.6914V16.2148L14.7852 18.7695L16.0039 17.3164L16.9062 16.4023C17.0703 16.2383 17.2812 16.1445 17.5508 16.1445C18.0547 16.1445 18.4297 16.5195 18.4297 17.0117C18.4297 17.2578 18.3477 17.4922 18.1836 17.6445L14.6797 21.125C14.4336 21.3594 14.2344 21.4766 13.9766 21.4766C13.707 21.4766 13.4961 21.3594 13.2617 21.125L9.76953 17.6445C9.60547 17.4922 9.51172 17.2578 9.51172 17.0117C9.51172 16.5195 9.89844 16.1445 10.4023 16.1445C10.6719 16.1445 10.8828 16.2266 11.0469 16.4023L11.9375 17.3164L13.168 18.7812L13.0625 16.2148V11.6914L13.168 9.125L11.9375 10.5898L11.0469 11.5039C10.8828 11.668 10.6719 11.7617 10.4023 11.7617C9.89844 11.7617 9.51172 11.3867 9.51172 10.8945C9.51172 10.6367 9.60547 10.4141 9.76953 10.2617L13.2617 6.78125C13.4961 6.54688 13.707 6.42969 13.9766 6.42969Z" fill="white"/>
</svg>
