<svg width="28" height="28" viewBox="0 0 28 28" fill="none" xmlns="http://www.w3.org/2000/svg">
<g clip-path="url(#clip0_2124_24722)">
<path d="M8.15625 18.2852C8.15625 20.1016 8.87109 21.4375 10.1953 22.1641C10.8398 22.5039 11.2148 22.9375 11.4492 23.7227L11.8242 24.9766C12.0469 25.7266 12.5742 26.0898 13.3594 26.0898H18.7734C19.582 26.0898 20.0742 25.7383 20.2969 24.9766L20.6836 23.7227C20.918 22.9375 21.293 22.5039 21.9375 22.1641C23.2617 21.4375 23.9766 20.1016 23.9766 18.2852V8.80469C23.9766 6.98828 23.2617 5.66406 21.9375 4.92578C21.293 4.58594 20.918 4.15234 20.6836 3.37891L20.2969 2.11328C20.0977 1.375 19.5703 1 18.7734 1H13.3594C12.5742 1 12.0469 1.36328 11.8242 2.11328L11.4492 3.37891C11.2266 4.14062 10.8516 4.59766 10.1953 4.92578C8.88281 5.62891 8.15625 6.96484 8.15625 8.80469V18.2852ZM9.86719 18.0391V9.0625C9.86719 7.31641 10.8867 6.26172 12.5977 6.26172H19.5352C21.2461 6.26172 22.2656 7.31641 22.2656 9.0625V18.0391C22.2656 19.7734 21.2461 20.8281 19.5352 20.8281H12.5977C10.8867 20.8281 9.86719 19.7734 9.86719 18.0391ZM23.7188 12.7188H24.1406C24.75 12.7188 25.1484 12.3086 25.1484 11.6406V10.0586C25.1484 9.39062 24.75 8.98047 24.1406 8.98047H23.7188V12.7188Z" fill="black" fill-opacity="0.85"/>
<path d="M5.44922 15.9648H15.3281C16.7344 15.9648 17.7773 14.8398 17.7773 13.5273C17.7773 12.2148 16.7344 11.0898 15.3281 11.0898H5.44922C4.04297 11.0898 3 12.2148 3 13.5273C3 14.8398 4.04297 15.9648 5.44922 15.9648Z" fill="white"/>
<path d="M5.44922 14.3594H13.0312L15.2695 14.2422L12.7148 16.5391L12.1406 17.1133C11.9883 17.2773 11.8945 17.5 11.8945 17.7461C11.8945 18.2148 12.2344 18.543 12.6914 18.543C12.9375 18.543 13.1484 18.4609 13.3125 18.2969L17.4727 14.1484C17.6719 13.9492 17.7773 13.7266 17.7773 13.5273C17.7773 13.3281 17.6719 13.082 17.4727 12.8945L13.3125 8.75781C13.1484 8.59375 12.9375 8.5 12.6914 8.5C12.2344 8.5 11.8945 8.82812 11.8945 9.30859C11.8945 9.55469 11.9883 9.77734 12.1406 9.94141L12.7148 10.5156L15.2695 12.8008L13.0312 12.6836H5.44922C4.92188 12.6836 4.59375 13.0938 4.59375 13.5273C4.59375 13.9609 4.92188 14.3594 5.44922 14.3594Z" fill="black" fill-opacity="0.85"/>
</g>
<defs>
<clipPath id="clip0_2124_24722">
<rect width="22.1484" height="25.0898" fill="white" transform="translate(3 1)"/>
</clipPath>
</defs>
</svg>
