<svg width="28" height="35" viewBox="0 0 28 35" fill="none" xmlns="http://www.w3.org/2000/svg">
<path d="M14.4766 3.99316C7.03516 3.99316 1 10.04 1 17.4814C1 24.9111 7.03516 30.958 14.4766 30.958C21.9062 30.958 27.9531 24.9229 27.9531 17.4814C27.9531 10.04 21.9062 3.99316 14.4766 3.99316ZM14.4766 5.87988C20.8867 5.87988 26.0664 11.0596 26.0664 17.4814C26.0664 23.9033 20.8867 29.0713 14.4766 29.0713C8.05469 29.0713 2.88672 23.9033 2.88672 17.4814C2.88672 11.0596 8.05469 5.87988 14.4766 5.87988Z" fill="black" fill-opacity="0.85"/>
<path d="M12.3556 27.1729C10.211 27.1729 9.17978 29.4932 10.4454 31.1807L12.5548 34.0049C13.5274 35.2939 15.4259 35.3057 16.3985 33.9932L18.4728 31.1924C19.7501 29.4697 18.7071 27.1729 16.5743 27.1729H12.3556Z" fill="white"/>
<path d="M12.3555 28.7666C11.5117 28.7666 11.2656 29.5986 11.7227 30.2197L13.8438 33.0439C14.1719 33.4775 14.7695 33.4893 15.1094 33.0439L17.1953 30.2314C17.6875 29.5869 17.3945 28.7666 16.5742 28.7666H12.3555Z" fill="black" fill-opacity="0.85"/>
<path d="M14.4766 8.11816C9.30859 8.11816 5.125 12.3135 5.125 17.4814C5.125 22.6611 9.30859 26.833 14.4766 26.833C19.6445 26.833 23.8281 22.6611 23.8281 17.4814C23.8281 12.3135 19.6445 8.11816 14.4766 8.11816ZM12.6836 22.1104C12.1094 22.1104 11.793 21.7002 11.793 21.1025V13.708C11.793 13.1104 12.1094 12.6885 12.6836 12.6885C13.2578 12.6885 13.6328 13.0986 13.6328 13.708V20.5635H17.0781C17.5117 20.5635 17.875 20.8916 17.875 21.3486C17.875 21.8057 17.5117 22.1104 17.0781 22.1104H12.6836Z" fill="black" fill-opacity="0.85"/>
</svg>
