<svg width="28" height="28" viewBox="0 0 28 28" fill="none" xmlns="http://www.w3.org/2000/svg">
<g clip-path="url(#clip0_2124_40944)">
<path d="M13.9531 25.9062C20.4922 25.9062 25.9062 20.4805 25.9062 13.9531C25.9062 7.41406 20.4805 2 13.9414 2C7.41406 2 2 7.41406 2 13.9531C2 20.4805 7.42578 25.9062 13.9531 25.9062ZM13.9531 23.9141C8.42188 23.9141 4.00391 19.4844 4.00391 13.9531C4.00391 8.42188 8.41016 3.99219 13.9414 3.99219C19.4727 3.99219 23.9141 8.42188 23.9141 13.9531C23.9141 19.4844 19.4844 23.9141 13.9531 23.9141Z" fill="black" fill-opacity="0.85"/>
<path d="M13.9414 18.3594C16.3672 18.3594 18.3594 16.3555 18.3594 13.9531C18.3594 11.5391 16.3672 9.54688 13.9414 9.54688C11.5508 9.54688 9.54688 11.5391 9.54688 13.9531C9.54688 16.3555 11.5508 18.3594 13.9414 18.3594ZM16.0391 7.35547L14.4219 5.32812C14.1875 5.02344 13.7656 5.02344 13.5078 5.32812L11.8789 7.35547C11.5039 7.8125 11.7266 8.39844 12.3359 8.39844H15.582C16.1797 8.39844 16.4023 7.78906 16.0391 7.35547ZM20.5625 16.0391L22.5898 14.4219C22.8945 14.1875 22.8945 13.7539 22.5898 13.5078L20.5625 11.8789C20.1055 11.5039 19.5195 11.7148 19.5195 12.3359V15.5703C19.5195 16.168 20.1289 16.3906 20.5625 16.0391ZM16.0391 20.5625C16.4023 20.1289 16.1797 19.5195 15.582 19.5195H12.3359C11.7266 19.5195 11.5039 20.1055 11.8789 20.5625L13.5078 22.5898C13.7656 22.8945 14.1875 22.8945 14.4219 22.5898L16.0391 20.5625ZM7.35547 16.0391C7.80078 16.3906 8.39844 16.168 8.39844 15.5703V12.3359C8.39844 11.7148 7.82422 11.5039 7.35547 11.8789L5.32812 13.5078C5.02344 13.7539 5.02344 14.1875 5.32812 14.4219L7.35547 16.0391Z" fill="black" fill-opacity="0.85"/>
</g>
<defs>
<clipPath id="clip0_2124_40944">
<rect width="23.9062" height="23.918" fill="white" transform="translate(2 2)"/>
</clipPath>
</defs>
</svg>
