<svg width="28" height="28" viewBox="0 0 28 28" fill="none" xmlns="http://www.w3.org/2000/svg">
<g clip-path="url(#clip0_2124_67786)">
<path d="M6.67969 24.5977H20.8945C23.3555 24.5977 24.5742 23.3789 24.5742 20.9648V6.65625C24.5742 4.24219 23.3555 3.02344 20.8945 3.02344H6.67969C4.23047 3.02344 3 4.23047 3 6.65625V20.9648C3 23.3906 4.23047 24.5977 6.67969 24.5977ZM6.70312 22.7109C5.53125 22.7109 4.88672 22.0898 4.88672 20.8711V6.75C4.88672 5.53125 5.53125 4.91016 6.70312 4.91016H20.8711C22.0312 4.91016 22.6875 5.53125 22.6875 6.75V20.8711C22.6875 22.0898 22.0312 22.7109 20.8711 22.7109H6.70312Z" fill="black" fill-opacity="0.85"/>
<path d="M8.89453 6.87891C7.93359 6.87891 7.21875 7.62891 7.21875 8.66016C7.21875 10.1836 8.85938 11.5195 10.0195 12.3281C10.1367 12.4102 10.2539 12.4687 10.3242 12.4687C10.4063 12.4687 10.5 12.3984 10.6055 12.3281C11.7891 11.6016 13.3945 10.1836 13.3945 8.66016C13.3945 7.62891 12.6797 6.87891 11.6953 6.87891C11.0977 6.87891 10.5938 7.24219 10.3125 7.78125C10.0195 7.24219 9.53906 6.87891 8.89453 6.87891ZM7.95703 16.1367H19.5C19.9102 16.1367 20.2266 15.8203 20.2266 15.4102C20.2266 15.0117 19.9102 14.6953 19.5 14.6953H7.95703C7.53516 14.6953 7.21875 15.0117 7.21875 15.4102C7.21875 15.8203 7.53516 16.1367 7.95703 16.1367ZM7.95703 20.1445H16.418C16.8281 20.1445 17.1445 19.8281 17.1445 19.4297C17.1445 19.0195 16.8281 18.7031 16.418 18.7031H7.95703C7.53516 18.7031 7.21875 19.0195 7.21875 19.4297C7.21875 19.8281 7.53516 20.1445 7.95703 20.1445Z" fill="black" fill-opacity="0.85"/>
</g>
<defs>
<clipPath id="clip0_2124_67786">
<rect width="21.5742" height="21.5977" fill="white" transform="translate(3 3)"/>
</clipPath>
</defs>
</svg>
