<svg width="28" height="28" viewBox="0 0 28 28" fill="none" xmlns="http://www.w3.org/2000/svg">
<path d="M6.67969 24.5742H20.8945C23.3555 24.5742 24.5742 23.3555 24.5742 20.9414V6.63281C24.5742 4.21875 23.3555 3 20.8945 3H6.67969C4.23047 3 3 4.20703 3 6.63281V20.9414C3 23.3672 4.23047 24.5742 6.67969 24.5742ZM6.70312 22.6875C5.53125 22.6875 4.88672 22.0664 4.88672 20.8477V6.72656C4.88672 5.51953 5.53125 4.88672 6.70312 4.88672H20.8711C22.0312 4.88672 22.6875 5.51953 22.6875 6.72656V20.8477C22.6875 22.0664 22.0312 22.6875 20.8711 22.6875H6.70312Z" fill="black" fill-opacity="0.85"/>
<path d="M19.8516 15.1992C19.8516 12.3867 17.8125 10.6758 15.082 10.6758H11.5781L10.1953 10.7227L11.1211 9.98438L12.3281 8.8125C12.4922 8.67188 12.5977 8.44922 12.5977 8.21484C12.5977 7.72266 12.2344 7.35938 11.7539 7.35938C11.5078 7.35938 11.3203 7.44141 11.1562 7.61719L8.03906 10.7695C7.85156 10.9687 7.73438 11.2148 7.73438 11.4961C7.73438 11.7656 7.85156 12 8.03906 12.1992L11.168 15.3984C11.332 15.5625 11.5195 15.6328 11.7656 15.6328C12.2344 15.6328 12.5977 15.2695 12.5977 14.7891C12.5977 14.5664 12.5156 14.332 12.3398 14.1797L10.875 12.7734L10.1953 12.2695L11.5781 12.3164H15.082C16.8047 12.3164 18.1289 13.3008 18.1289 15.1055C18.1289 16.957 16.8398 18.0938 15.0703 18.0938C14.9297 18.0938 13.4883 18.0938 13.4414 18.0938C12.9375 18.0938 12.5508 18.3984 12.5508 18.9375C12.5508 19.4766 12.9375 19.7695 13.4648 19.7695C13.5234 19.7695 14.9297 19.7695 15.0703 19.7695C17.8008 19.7695 19.8516 18.0234 19.8516 15.1992Z" fill="black" fill-opacity="0.85"/>
</svg>
