<svg width="29" height="28" viewBox="0 0 29 28" fill="none" xmlns="http://www.w3.org/2000/svg">
<g clip-path="url(#clip0_2124_50194)">
<path d="M5.90625 25.1367H21.1641C25.1133 25.1367 28.1719 22.1484 28.1719 18.3281C28.1719 14.4727 25.0547 11.5664 20.7891 11.5664C19.2305 8.47266 16.3711 6.58594 12.9023 6.58594C8.35547 6.58594 4.5 10.1133 4.08984 14.7891C1.74609 15.457 0.164062 17.4258 0.164062 19.9102C0.164062 22.8047 2.26172 25.1367 5.90625 25.1367ZM5.88281 23.25C3.48047 23.25 2.05078 21.9492 2.05078 19.9688C2.05078 18.2812 3.12891 17.0742 5.02734 16.5703C5.68359 16.4062 5.92969 16.1016 5.97656 15.4219C6.25781 11.4492 9.23438 8.47266 12.9023 8.47266C15.7148 8.47266 17.9062 10.043 19.2188 12.7383C19.4883 13.3125 19.8281 13.5117 20.543 13.5117C24.2109 13.5117 26.2852 15.7266 26.2852 18.375C26.2852 21.1055 24.0938 23.25 21.293 23.25H5.88281ZM1.64062 13.6641C2.54297 13.6641 3.26953 12.9375 3.26953 12.0234C3.26953 11.1211 2.54297 10.3945 1.64062 10.3945C0.726562 10.3945 0 11.1211 0 12.0234C0 12.9375 0.726562 13.6641 1.64062 13.6641ZM18.8203 6.08203C19.6641 6.08203 20.3555 5.39062 20.3555 4.54688C20.3555 3.70312 19.6641 3 18.8203 3C17.9766 3 17.2852 3.70312 17.2852 4.54688C17.2852 5.39062 17.9766 6.08203 18.8203 6.08203ZM23.7539 10.1367C25.0195 10.1367 26.0391 9.11719 26.0391 7.82812C26.0391 6.55078 25.0195 5.53125 23.7539 5.53125C22.4648 5.53125 21.4336 6.55078 21.4336 7.82812C21.4336 9.11719 22.4648 10.1367 23.7539 10.1367Z" fill="black" fill-opacity="0.85"/>
<path d="M11.0859 21.0938C12.6211 21.0938 13.5469 19.9922 13.5938 18.7969C13.6055 18.3867 13.3594 18.1055 12.9844 18.1055C12.6328 18.1055 12.457 18.3047 12.3633 18.7031C12.2344 19.3008 11.8828 19.9336 11.0859 19.9336C9.92578 19.9336 9.5625 18.6914 9.5625 17.3438C9.5625 16.0781 9.94922 14.8008 11.0742 14.8008C11.8711 14.8008 12.1875 15.4219 12.3281 16.0195C12.4219 16.418 12.5977 16.6172 12.9492 16.6172C13.3242 16.6172 13.5703 16.3477 13.5586 15.9258C13.5117 14.7305 12.5859 13.6406 11.0508 13.6406C9.14062 13.6406 8.27344 15.3047 8.27344 17.3438C8.27344 19.3477 9.05859 21.0938 11.0859 21.0938ZM16.7578 21.0938C18.457 21.0938 19.5352 19.6406 19.5352 17.3672C19.5352 15.082 18.457 13.6406 16.7578 13.6406C15.0469 13.6406 13.957 15.082 13.957 17.3672C13.957 19.6406 15.0469 21.0938 16.7578 21.0938ZM16.7578 19.9336C15.832 19.9336 15.2578 18.9844 15.2578 17.3672C15.2578 15.75 15.832 14.8008 16.7578 14.8008C17.6719 14.8008 18.2461 15.75 18.2461 17.3672C18.2461 18.9844 17.6719 19.9336 16.7578 19.9336Z" fill="black" fill-opacity="0.85"/>
</g>
<defs>
<clipPath id="clip0_2124_50194">
<rect width="28.1719" height="22.1602" fill="white" transform="translate(0 3)"/>
</clipPath>
</defs>
</svg>
