<svg width="28" height="28" viewBox="0 0 28 28" fill="none" xmlns="http://www.w3.org/2000/svg">
<g clip-path="url(#clip0_2124_24655)">
<path d="M13.9531 25.9062C20.4922 25.9062 25.9062 20.4805 25.9062 13.9531C25.9062 7.41406 20.4805 2 13.9414 2C7.41406 2 2 7.41406 2 13.9531C2 20.4805 7.42578 25.9062 13.9531 25.9062ZM13.9531 23.9141C8.42188 23.9141 4.00391 19.4844 4.00391 13.9531C4.00391 8.42188 8.41016 3.99219 13.9414 3.99219C19.4727 3.99219 23.9141 8.42188 23.9141 13.9531C23.9141 19.4844 19.4844 23.9141 13.9531 23.9141Z" fill="black" fill-opacity="0.85"/>
<path d="M11.3867 21.3477H16.5078C17.6562 21.3477 18.4297 20.6094 18.4297 19.4961V8.39844C18.4297 7.28516 17.6562 6.55859 16.5078 6.55859H11.3867C10.25 6.55859 9.47656 7.28516 9.47656 8.39844V19.4961C9.47656 20.6094 10.25 21.3477 11.3867 21.3477ZM11.5391 20.1992C10.9414 20.1992 10.6133 19.8945 10.6133 19.332V8.5625C10.6133 8 10.9414 7.69531 11.5391 7.69531H16.3672C16.9648 7.69531 17.293 8 17.293 8.5625V19.332C17.293 19.8945 16.9648 20.1992 16.3672 20.1992H11.5391ZM12.4883 19.6953H15.418C15.6172 19.6953 15.7578 19.5664 15.7578 19.3672C15.7578 19.1562 15.6172 19.0156 15.418 19.0156H12.4883C12.2891 19.0156 12.1484 19.1562 12.1484 19.3672C12.1484 19.5664 12.2891 19.6953 12.4883 19.6953ZM13.0977 9.26562H14.7969C15.0781 9.26562 15.3008 9.04297 15.3008 8.76172C15.3008 8.49219 15.0781 8.26953 14.7969 8.26953H13.0977C12.8164 8.26953 12.5938 8.49219 12.5938 8.76172C12.5938 9.04297 12.8164 9.26562 13.0977 9.26562Z" fill="black" fill-opacity="0.85"/>
<path d="M18.6523 20.5742C19.1914 21.1016 20.0586 21.1133 20.5742 20.5742C21.125 20.0352 21.1133 19.2031 20.5742 18.6641L9.23047 7.32031C8.69141 6.78125 7.83594 6.78125 7.30859 7.32031C6.76953 7.84766 6.76953 8.71484 7.30859 9.24219L18.6523 20.5742Z" fill="white"/>
<path d="M19.2383 20C19.4375 20.1992 19.7891 20.1992 19.9883 20C20.1992 19.7773 20.1992 19.4609 19.9883 19.25L8.65628 7.90625C8.44534 7.69531 8.1055 7.69531 7.89456 7.90625C7.68362 8.10547 7.69534 8.45703 7.89456 8.65625L19.2383 20Z" fill="black" fill-opacity="0.85"/>
</g>
<defs>
<clipPath id="clip0_2124_24655">
<rect width="23.9062" height="23.918" fill="white" transform="translate(2 2)"/>
</clipPath>
</defs>
</svg>
