<svg width="30" height="28" viewBox="0 0 30 28" fill="none" xmlns="http://www.w3.org/2000/svg">
<g clip-path="url(#clip0_2124_24852)">
<path d="M3.01172 21.4648H26.2852C28.1602 21.4648 29.2969 20.3164 29.2969 18.4531V5.01172C29.2969 3.14844 28.1602 2 26.2852 2H3.01172C1.14844 2 0 3.14844 0 5.01172V18.4531C0 20.3164 1.14844 21.4648 3.01172 21.4648ZM3.04688 19.5781C2.32031 19.5781 1.88672 19.1445 1.88672 18.4297V5.03516C1.88672 4.32031 2.32031 3.88672 3.04688 3.88672H26.25C26.9766 3.88672 27.4102 4.32031 27.4102 5.03516V18.4297C27.4102 19.1445 26.9766 19.5781 26.25 19.5781H3.04688ZM8.75391 25.4375H20.543C21.0586 25.4375 21.4922 25.0156 21.4922 24.4883C21.4922 23.9609 21.0586 23.5391 20.543 23.5391H8.75391C8.23828 23.5391 7.80469 23.9609 7.80469 24.4883C7.80469 25.0156 8.23828 25.4375 8.75391 25.4375Z" fill="black" fill-opacity="0.85"/>
<path d="M11.4961 16.6367C11.9297 16.6367 12.293 16.3555 12.293 15.793V14.6211H12.7148C13.1602 14.6211 13.3828 14.3281 13.3828 13.9414C13.3828 13.5547 13.1836 13.2617 12.7148 13.2617H12.293V8.11719C12.293 7.30859 11.7656 6.86328 11.0039 6.86328C10.1719 6.86328 9.78516 7.28516 9.45703 8.01172L7.35938 12.5586C7.17188 13.0039 7.10156 13.3086 7.10156 13.6719C7.10156 14.2344 7.48828 14.6211 8.0625 14.6211H10.6875V15.793C10.6875 16.4141 11.1211 16.6367 11.4961 16.6367ZM10.7227 13.2969H8.54297V13.2266L10.6758 8.33984H10.7227V13.2969ZM15.668 16.6484C16.2656 16.6484 16.5352 16.2383 16.5352 15.7578V13.6602L17.2969 12.4766L19.3711 16.0039C19.6055 16.4141 19.8281 16.625 20.2852 16.625C20.7539 16.625 21.0469 16.2852 21.0469 15.8281C21.0469 15.5703 21 15.418 20.8477 15.1484L18.5508 11.3164L20.5664 8.31641C20.707 8.12891 20.7891 7.95312 20.7891 7.67188C20.7891 7.28516 20.5078 6.89844 20.0156 6.89844C19.5703 6.89844 19.4062 7.13281 19.2539 7.37891L16.6055 11.4453H16.5234V7.76562C16.5234 7.26172 16.2305 6.875 15.668 6.875C15.1172 6.875 14.8125 7.22656 14.8125 7.76562V15.7578C14.8125 16.2852 15.1289 16.6484 15.668 16.6484Z" fill="black" fill-opacity="0.85"/>
</g>
<defs>
<clipPath id="clip0_2124_24852">
<rect width="29.2969" height="23.4492" fill="white" transform="translate(0 2)"/>
</clipPath>
</defs>
</svg>
