<svg width="28" height="28" viewBox="0 0 28 28" fill="none" xmlns="http://www.w3.org/2000/svg">
<path d="M5.01953 24.4609H20.9922C21.5664 24.4609 21.9531 24.0977 21.9531 23.5234C21.9531 22.9727 21.5664 22.5859 20.9922 22.5859H15.5078C10.3281 22.5859 6.25 18.6367 6.23828 13.4688C6.23828 8.33594 9.80078 5.67578 13.8672 5.67578C17.8633 5.67578 21.3086 8.46484 21.4258 12.6484C21.4492 13.3281 21.8125 13.8203 22.5039 13.8203C23.1719 13.8203 23.5352 13.3164 23.5352 12.6602C23.5 7.41016 19.0703 3.64844 13.8672 3.64844C8.55859 3.64844 4 7.33984 4 13.1289C4 17.5469 6.39062 21.0859 9.625 22.5391V22.5859H5.01953C4.44531 22.5859 4.05859 22.9727 4.05859 23.5234C4.05859 24.0977 4.44531 24.4609 5.01953 24.4609ZM16.293 13.5273C16.7383 13.5273 17.0664 13.2227 17.0664 12.7539V1.77344C17.0664 1.31641 16.7383 1 16.293 1C15.8594 1 15.5312 1.31641 15.5312 1.77344V12.7539C15.5312 13.2109 15.8594 13.5273 16.293 13.5273ZM11.5 13.5273C11.9453 13.5273 12.2734 13.2227 12.2734 12.7539V1.77344C12.2734 1.31641 11.9453 1 11.5 1C11.0664 1 10.7383 1.31641 10.7383 1.77344V12.7539C10.7383 13.2227 11.0664 13.5273 11.5 13.5273Z" fill="black" fill-opacity="0.85"/>
</svg>
