<svg width="28" height="28" viewBox="0 0 28 28" fill="none" xmlns="http://www.w3.org/2000/svg">
<path d="M18.4648 6.12109C19.8828 6.12109 21.0078 4.98438 21.0078 3.55469C21.0078 2.13672 19.8828 1 18.4648 1C17.0352 1 15.8867 2.13672 15.8867 3.55469C15.8867 4.98438 17.0352 6.12109 18.4648 6.12109ZM10.4844 27.0391C11.1406 27.0391 11.7031 26.5 11.7031 25.832V14.8281C14.375 14.3945 16.6953 12.625 17.8086 10.2109C17.9023 9.96484 18.1836 9.84766 18.6523 10.0117L24.582 12.0039C25.4023 12.2734 25.9648 11.8281 26.1406 11.2539C26.3281 10.668 26.1172 9.95312 25.3555 9.70703L7.58984 3.77734C6.76953 3.49609 6.19531 3.95312 6.01953 4.52734C5.83203 5.11328 6.05469 5.81641 6.81641 6.07422L13.2031 8.20703C13.4961 8.3125 13.6484 8.66406 13.4609 8.96875C12.7812 10.0352 11.7734 10.6797 10.4844 10.6797H4.42578V4.59766C4.42578 3.88281 3.94531 3.39062 3.20703 3.39062C2.48047 3.39062 2 3.88281 2 4.59766V11.793C2 12.5898 2.39844 12.9648 3.00781 13.0703L8.375 13.9609L9.27734 19.2578V25.832C9.27734 26.5 9.81641 27.0391 10.4844 27.0391Z" fill="black" fill-opacity="0.85"/>
</svg>
