<svg width="35" height="28" viewBox="0 0 35 28" fill="none" xmlns="http://www.w3.org/2000/svg">
<g clip-path="url(#clip0_2124_24595)">
<path d="M0 21.9102C0 22.6484 0.597656 23.2461 1.32422 23.2461H32.4844C33.2109 23.2461 33.7969 22.6484 33.7969 21.9102C33.7969 21.1719 33.2109 20.5742 32.4844 20.5742H29.918V6.66406C29.918 5.02344 29.0391 4.17969 27.4102 4.17969H6.39844C4.85156 4.17969 3.89062 5.02344 3.89062 6.66406V20.5742H1.32422C0.597656 20.5742 0 21.1719 0 21.9102ZM5.77734 20.5742V7.19141C5.77734 6.44141 6.15234 6.06641 6.91406 6.06641H26.8945C27.6445 6.06641 28.0312 6.44141 28.0312 7.19141V20.5742H5.77734Z" fill="black" fill-opacity="0.85"/>
<path d="M25.0312 25.4023H31.0781C33.3633 25.4023 34.8516 23.9609 34.8516 21.7344V9.875C34.8516 7.64844 33.3633 6.19531 31.0781 6.19531H25.0312C22.7461 6.19531 21.2695 7.64844 21.2695 9.875V21.7344C21.2695 23.9609 22.7461 25.4023 25.0312 25.4023Z" fill="white"/>
<path d="M25.0312 23.9258H30.375C31.8281 23.9258 32.6602 23.1289 32.6602 21.7344V10.0625C32.6602 8.66797 31.8281 7.85938 30.375 7.85938H25.0312C23.5898 7.85938 22.7461 8.66797 22.7461 10.0625V21.7344C22.7461 23.1289 23.5781 23.9258 25.0312 23.9258ZM25.0664 22.3906C24.5508 22.3906 24.2812 22.1094 24.2812 21.582V10.2148C24.2812 9.67578 24.5508 9.39453 25.0664 9.39453H30.3516C30.8672 9.39453 31.125 9.67578 31.125 10.2148V21.582C31.125 22.1094 30.8672 22.3906 30.3516 22.3906H25.0664ZM26.1094 21.793H29.2852C29.5195 21.793 29.707 21.6289 29.707 21.3828C29.707 21.1602 29.5195 20.9844 29.2852 20.9844H26.1094C25.8633 20.9844 25.7109 21.1602 25.7109 21.3828C25.7109 21.6406 25.8516 21.793 26.1094 21.793ZM26.7656 11.0703H28.6055C28.9102 11.0703 29.1562 10.8242 29.1562 10.5195C29.1562 10.2266 28.9102 9.99219 28.6055 9.99219H26.7656C26.4609 9.99219 26.2266 10.2266 26.2266 10.5195C26.2266 10.8242 26.4609 11.0703 26.7656 11.0703Z" fill="black" fill-opacity="0.85"/>
</g>
<defs>
<clipPath id="clip0_2124_24595">
<rect width="34.8516" height="23.4023" fill="white" transform="translate(0 2)"/>
</clipPath>
</defs>
</svg>
