<svg width="28" height="28" viewBox="0 0 28 28" fill="none" xmlns="http://www.w3.org/2000/svg">
<path d="M13.6367 24.8789C13.8828 24.8789 14.2344 24.7148 14.4922 24.5625C21.1016 20.3438 25.2852 15.4336 25.2852 10.4414C25.2852 6.29297 22.4375 3.36328 18.7461 3.36328C16.4609 3.36328 14.7031 4.62891 13.6367 6.5625C12.5938 4.64062 10.8242 3.36328 8.52734 3.36328C4.84766 3.36328 2 6.29297 2 10.4414C2 15.4336 6.18359 20.3438 12.793 24.5625C13.0391 24.7148 13.4023 24.8789 13.6367 24.8789Z" fill="black" fill-opacity="0.85"/>
<path d="M9.37109 14.8712C9.37109 12.8438 10.8945 11.0977 12.793 10.8165V9.83208C12.793 9.37505 13.2852 9.21099 13.625 9.50396L15.582 11.168C15.9102 11.4493 15.9102 11.836 15.582 12.129L13.625 13.8164C13.2852 14.1094 12.793 13.9337 12.793 13.4884V12.3282C11.6797 12.6563 10.8594 13.6758 10.8594 14.8945C10.8594 16.3828 12.0547 17.5781 13.543 17.5781C15.0312 17.5781 16.2266 16.3828 16.2266 14.8945C16.2266 14.4844 16.5664 14.1445 16.9766 14.1445C17.375 14.1445 17.7148 14.4844 17.7148 14.8945C17.7148 17.2148 15.8633 19.0898 13.543 19.0898C11.2227 19.0898 9.37109 17.2149 9.37109 14.8712Z" fill="white"/>
</svg>
