<svg width="28" height="28" viewBox="0 0 28 28" fill="none" xmlns="http://www.w3.org/2000/svg">
<path d="M13.9531 25.918C20.4922 25.918 25.9062 20.5039 25.9062 13.9648C25.9062 7.4375 20.4805 2.01172 13.9414 2.01172C7.41406 2.01172 2 7.4375 2 13.9648C2 20.5039 7.42578 25.918 13.9531 25.918Z" fill="black" fill-opacity="0.85"/>
<path d="M17.3515 10.0156C18.5468 10.0156 19.5194 10.8828 19.6366 11.7852L21.1835 12.4297C21.5937 12.6055 21.3944 13.2031 21.0077 13.1445L19.2616 12.8984C18.9101 13.3086 18.3358 13.6484 17.6093 13.8125L17.6679 14.2812C18.0194 17.5977 15.5233 18.5938 13.9179 18.6758V20.9258C13.9179 21.1836 13.8593 21.3359 13.5429 21.4531C12.0897 21.9688 9.93353 21.3359 9.23041 20.2695C9.1015 20.0703 9.04291 19.8008 9.26556 19.625C10.6132 18.3359 11.9843 16.7539 12.828 14.7031C9.68744 14.4922 7.30853 11.8906 7.50775 8.87894C7.51947 8.53909 7.58978 8.11722 8.164 8.16409C10.8945 8.36331 13.6249 9.93362 15.3124 11.6797C15.7929 10.5078 16.4608 10.0156 17.3515 10.0156ZM12.2304 8.49222C12.2655 7.88284 12.3827 7.26175 12.5585 6.65237C12.6757 6.16019 13.1444 5.96097 13.6015 6.21878C14.8437 6.93362 15.8163 7.95315 16.578 9.31253C16.0272 9.46487 15.5233 9.81644 15.1132 10.3906C14.2811 9.67581 13.3085 9.01956 12.2304 8.49222ZM17.539 11.7031C17.539 11.9492 17.7382 12.125 17.9608 12.125C18.1952 12.125 18.3944 11.9492 18.3944 11.7031C18.3944 11.4688 18.1952 11.2813 17.9608 11.2813C17.7382 11.2813 17.539 11.4688 17.539 11.7031Z" fill="white"/>
</svg>
