<svg width="28" height="28" viewBox="0 0 28 28" fill="none" xmlns="http://www.w3.org/2000/svg">
<path d="M13.9531 25.9062C20.4922 25.9062 25.9062 20.4805 25.9062 13.9531C25.9062 7.41406 20.4805 2 13.9414 2C7.41406 2 2 7.41406 2 13.9531C2 20.4805 7.42578 25.9062 13.9531 25.9062ZM13.9531 23.9141C8.42188 23.9141 4.00391 19.4844 4.00391 13.9531C4.00391 8.42188 8.41016 3.99219 13.9414 3.99219C19.4727 3.99219 23.9141 8.42188 23.9141 13.9531C23.9141 19.4844 19.4844 23.9141 13.9531 23.9141Z" fill="black" fill-opacity="0.85"/>
<path d="M10.2617 18.8984C11.9492 18.8984 13.2383 17.8438 13.2383 16.0859C13.2383 14.6328 12.3711 13.918 11.375 13.8125V13.7773C12.4414 13.4961 12.957 12.5469 12.957 11.5625C12.957 9.94531 11.75 9.01953 10.2148 9.01953C9.00781 9.01953 7.96484 9.69922 7.625 10.7422C7.56641 10.9648 7.53125 11.1758 7.53125 11.375C7.53125 11.7617 7.78906 12.0664 8.25781 12.0664C8.65625 12.0664 8.89062 11.9141 9.00781 11.5039C9.18359 10.8125 9.55859 10.3789 10.2148 10.3789C11 10.3789 11.3633 10.9766 11.3633 11.75C11.3633 12.6055 10.8828 13.2266 10.0039 13.2266H9.72266C9.33594 13.2266 9.07812 13.4727 9.07812 13.8594C9.07812 14.2461 9.33594 14.4688 9.72266 14.4688H10.0273C11.0234 14.4688 11.5625 15.0195 11.5625 16.0391C11.5625 16.8477 11.1406 17.5391 10.2734 17.5391C9.41797 17.5391 9.03125 16.9648 8.89062 16.4258C8.77344 16.0508 8.52734 15.8516 8.15234 15.8516C7.69531 15.8516 7.37891 16.1328 7.37891 16.5898C7.37891 16.8008 7.41406 17.0117 7.47266 17.1992C7.8125 18.2891 9.00781 18.8984 10.2617 18.8984ZM17.5039 18.8984C19.3672 18.8984 20.5508 17.7383 20.5508 16.1328C20.5508 14.8555 19.7422 13.9297 18.8047 13.7188V13.6836C19.5898 13.4375 20.2812 12.6758 20.2812 11.5625C20.2812 10.0508 19.1562 9.01953 17.5039 9.01953C16.0508 9.01953 14.75 9.91016 14.75 11.5508C14.75 12.7461 15.4883 13.4492 16.2383 13.6836V13.7188C15.2422 13.9414 14.4805 14.8672 14.4805 16.1328C14.4805 17.8672 15.793 18.8984 17.5039 18.8984ZM17.5039 13.1445C16.7656 13.1445 16.3789 12.418 16.3789 11.7266C16.3789 10.9766 16.7773 10.2734 17.5039 10.2734C18.2656 10.2734 18.6406 10.9766 18.6406 11.7266C18.6406 12.5 18.2539 13.1445 17.5039 13.1445ZM17.5039 17.6328C16.6602 17.6328 16.2383 16.8711 16.2383 16.0039C16.2383 15.1602 16.6602 14.4102 17.5039 14.4102C18.3477 14.4102 18.793 15.1133 18.793 16.0039C18.793 16.8711 18.3711 17.6328 17.5039 17.6328Z" fill="black" fill-opacity="0.85"/>
</svg>
