<svg width="46" height="28" viewBox="0 0 46 28" fill="none" xmlns="http://www.w3.org/2000/svg">
<path d="M38.707 22.332C41.6953 22.332 44.0391 21.043 45.1875 18.8047C45.4219 18.3594 45.5625 17.8906 45.5625 17.4688C45.5625 16.8945 45.1523 16.5078 44.5781 16.5078C44.1094 16.5078 43.8516 16.6953 43.582 17.2812C42.7852 19.2734 41.0977 20.375 38.707 20.375C35.2969 20.375 33.1172 17.7969 33.1172 13.625C33.1172 9.52344 35.2969 6.95703 38.707 6.95703C40.957 6.95703 42.7734 8.26953 43.5352 10.2969C43.8047 10.8828 44.1211 11.1289 44.625 11.1289C45.2109 11.1289 45.5977 10.7422 45.5977 10.168C45.5977 9.86328 45.5391 9.52344 45.3984 9.16016C44.4727 6.58203 41.7891 5 38.707 5C33.9375 5 30.9023 8.31641 30.9023 13.6367C30.9023 19.0039 33.9141 22.332 38.707 22.332Z" fill="black" fill-opacity="0.85"/>
<path d="M17.4023 22.0508H23.0977C26.8125 22.0508 29.0508 20.2227 29.0508 17.4453C29.0508 15.1133 27.3633 13.4844 24.9609 13.2148V13.1328C26.8125 12.8281 28.1719 11.2109 28.1719 9.32422C28.1719 6.96875 26.1211 5.28125 23.0391 5.28125H17.4023C16.7461 5.28125 16.3242 5.70312 16.3242 6.38281V20.9492C16.3242 21.6172 16.7461 22.0508 17.4023 22.0508ZM18.5391 12.5352V7.15625H22.5352C24.6797 7.15625 25.9688 8.15234 25.9688 9.64062C25.9688 11.4688 24.5273 12.5352 22.0547 12.5352H18.5391ZM18.5391 20.1875V14.2812H22.4883C25.2773 14.2812 26.7891 15.3477 26.7891 17.3164C26.7891 19.0977 25.3242 20.1875 22.6875 20.1875H18.5391Z" fill="black" fill-opacity="0.85"/>
<path d="M0.984375 22.3906C1.60547 22.3906 1.91016 22.1211 2.13281 21.4766L3.64453 17.3281H10.5586L12.0703 21.4766C12.293 22.1211 12.5977 22.3906 13.207 22.3906C13.8281 22.3906 14.2266 21.9805 14.2266 21.3945C14.2266 21.1953 14.1914 21.0195 14.0977 20.7617L8.60156 6.13672C8.33203 5.41016 7.85156 5.01172 7.10156 5.01172C6.375 5.01172 5.88281 5.41016 5.625 6.125L0.128906 20.7734C0.0351562 21.0312 0 21.207 0 21.4062C0 21.9922 0.375 22.3906 0.984375 22.3906ZM4.21875 15.5586L7.06641 7.67188H7.125L9.97266 15.5586H4.21875Z" fill="black" fill-opacity="0.85"/>
</svg>
