<svg width="38" height="28" viewBox="0 0 38 28" fill="none" xmlns="http://www.w3.org/2000/svg">
<g clip-path="url(#clip0_2124_24651)">
<path d="M4.52344 22.4258C4.89844 22.0039 4.78125 21.4531 4.35938 20.9727C2.78906 19.2266 1.91016 16.9297 1.91016 14.4102C1.91016 11.8906 2.78906 9.59375 4.35938 7.84766C4.78125 7.36719 4.89844 6.81641 4.52344 6.39453C4.14844 5.94922 3.49219 5.96094 3.04688 6.45312C1.10156 8.5625 0 11.375 0 14.4102C0 17.4453 1.10156 20.2461 3.04688 22.3672C3.49219 22.8594 4.14844 22.8594 4.52344 22.4258ZM32.9531 22.4258C33.3281 22.8594 33.9844 22.8594 34.4414 22.3672C36.3867 20.2461 37.4766 17.4453 37.4766 14.4102C37.4766 11.375 36.3867 8.5625 34.4414 6.45312C33.9844 5.96094 33.3281 5.94922 32.9531 6.39453C32.5781 6.81641 32.6953 7.36719 33.1172 7.84766C34.6875 9.59375 35.5664 11.8906 35.5664 14.4102C35.5664 16.9297 34.6875 19.2266 33.1172 20.9727C32.6953 21.4531 32.5781 22.0039 32.9531 22.4258Z" fill="black" fill-opacity="0.85"/>
<path d="M7.80469 19.0859C8.17969 18.6641 8.02734 18.1367 7.65234 17.6328C6.94922 16.7539 6.60938 15.6289 6.60938 14.4102C6.60938 13.1914 6.94922 12.0547 7.65234 11.1875C8.02734 10.6836 8.17969 10.1562 7.80469 9.73438C7.41797 9.28906 6.71484 9.28906 6.30469 9.81641C5.28516 11.082 4.69922 12.6875 4.69922 14.4102C4.69922 16.1328 5.28516 17.7383 6.30469 19.0039C6.71484 19.5312 7.41797 19.5195 7.80469 19.0859ZM29.6719 19.0859C30.0586 19.5195 30.7617 19.5312 31.1719 19.0039C32.1914 17.7383 32.7891 16.1328 32.7891 14.4102C32.7891 12.6875 32.1914 11.082 31.1719 9.81641C30.7617 9.28906 30.0586 9.28906 29.6719 9.73438C29.2969 10.1562 29.4609 10.6836 29.8242 11.1875C30.5273 12.0547 30.8789 13.1914 30.8789 14.4102C30.8789 15.6289 30.5273 16.7539 29.8242 17.6328C29.4609 18.1367 29.2969 18.6641 29.6719 19.0859Z" fill="black" fill-opacity="0.85"/>
<path d="M14.4023 26.8086H23.0859C24.9961 26.8086 26.2734 25.5898 26.2734 23.7617V5.04688C26.2734 3.21875 24.9961 2 23.0859 2H14.4023C12.4922 2 11.2148 3.21875 11.2148 5.04688V23.7617C11.2148 25.5898 12.4922 26.8086 14.4023 26.8086ZM14.6484 24.9219C13.6523 24.9219 13.1016 24.3945 13.1016 23.457V5.35156C13.1016 4.41406 13.6523 3.88672 14.6484 3.88672H22.8516C23.8359 3.88672 24.3867 4.41406 24.3867 5.35156V23.457C24.3867 24.3945 23.8359 24.9219 22.8516 24.9219H14.6484ZM16.2656 24.0664H21.2461C21.5625 24.0664 21.7852 23.8438 21.7852 23.5156C21.7852 23.1875 21.5625 22.9766 21.2461 22.9766H16.2656C15.9492 22.9766 15.7148 23.1875 15.7148 23.5156C15.7148 23.8438 15.9492 24.0664 16.2656 24.0664ZM17.332 6.37109H20.168C20.625 6.37109 20.9883 6.00781 20.9883 5.53906C20.9883 5.08203 20.625 4.71875 20.168 4.71875H17.332C16.8633 4.71875 16.5 5.08203 16.5 5.53906C16.5 6.00781 16.8633 6.37109 17.332 6.37109Z" fill="black" fill-opacity="0.85"/>
</g>
<defs>
<clipPath id="clip0_2124_24651">
<rect width="37.4766" height="24.832" fill="white" transform="translate(0 2)"/>
</clipPath>
</defs>
</svg>
