<svg width="28" height="28" viewBox="0 0 28 28" fill="none" xmlns="http://www.w3.org/2000/svg">
<path d="M13.9531 25.9062C20.4922 25.9062 25.9062 20.4805 25.9062 13.9531C25.9062 7.41406 20.4805 2 13.9414 2C7.41406 2 2 7.41406 2 13.9531C2 20.4805 7.42578 25.9062 13.9531 25.9062ZM13.9531 23.9141C8.42188 23.9141 4.00391 19.4844 4.00391 13.9531C4.00391 8.42188 8.41016 3.99219 13.9414 3.99219C19.4727 3.99219 23.9141 8.42188 23.9141 13.9531C23.9141 19.4844 19.4844 23.9141 13.9531 23.9141Z" fill="black" fill-opacity="0.85"/>
<path d="M9.44141 15.0898C9.44141 15.4297 9.67578 15.6758 10.0039 15.6758H10.7891C10.5547 16.0039 10.4492 16.4023 10.4492 16.7422C10.4492 18.5469 12.0547 19.5898 13.9766 19.5898C15.2539 19.5898 16.4141 19.0977 17.0234 18.0898C17.1992 17.832 17.293 17.5508 17.3047 17.2578C17.3164 16.8477 17.0586 16.543 16.6016 16.543C16.3203 16.543 16.0859 16.6602 15.9219 17.0469C15.6172 17.8203 14.8203 18.207 13.9414 18.207C12.8516 18.207 11.9141 17.7031 11.9141 16.6836C11.9141 16.3203 12.0898 15.9219 12.4414 15.6758H17.8555C18.1836 15.6758 18.418 15.4297 18.418 15.0898C18.418 14.7734 18.1836 14.5156 17.8555 14.5156H10.0039C9.67578 14.5156 9.44141 14.7734 9.44141 15.0898ZM9.46484 12.7461C9.46484 13.0625 9.69922 13.3203 10.0273 13.3203H17.8789C18.207 13.3203 18.4414 13.0625 18.4414 12.7461C18.4414 12.4062 18.207 12.1719 17.8789 12.1719H17.0938C17.3281 11.832 17.4336 11.4336 17.4336 11.0938C17.4336 9.28906 15.8281 8.24609 13.9062 8.24609C12.6289 8.24609 11.4805 8.73828 10.8594 9.75781C10.6836 10.0156 10.5898 10.2852 10.5781 10.5898C10.5664 10.9883 10.8242 11.293 11.2812 11.293C11.5625 11.293 11.7969 11.1758 11.9609 10.7891C12.2773 10.0156 13.0625 9.62891 13.9414 9.62891C15.0312 9.62891 15.9688 10.1445 15.9688 11.1523C15.9688 11.5156 15.793 11.9141 15.4414 12.1719H10.0273C9.69922 12.1719 9.46484 12.4062 9.46484 12.7461Z" fill="black" fill-opacity="0.85"/>
</svg>
