<svg width="28" height="28" viewBox="0 0 28 28" fill="none" xmlns="http://www.w3.org/2000/svg">
<path d="M6.67969 24.5977H20.8945C23.3555 24.5977 24.5742 23.3789 24.5742 20.9648V6.65625C24.5742 4.24219 23.3555 3.02344 20.8945 3.02344H6.67969C4.23047 3.02344 3 4.23047 3 6.65625V20.9648C3 23.3906 4.23047 24.5977 6.67969 24.5977ZM6.70312 22.7109C5.53125 22.7109 4.88672 22.0898 4.88672 20.8711V6.75C4.88672 5.53125 5.53125 4.91016 6.70312 4.91016H20.8711C22.0312 4.91016 22.6875 5.53125 22.6875 6.75V20.8711C22.6875 22.0898 22.0312 22.7109 20.8711 22.7109H6.70312Z" fill="black" fill-opacity="0.85"/>
<path d="M10.2305 18.7734C12.5742 18.7734 13.2656 16.1484 13.2656 13.793C13.2656 11.4375 12.5742 8.8125 10.2305 8.8125C7.89844 8.8125 7.20703 11.4375 7.20703 13.793C7.20703 16.1484 7.89844 18.7734 10.2305 18.7734ZM10.2305 17.3789C9.28125 17.3789 8.91797 15.8203 8.91797 13.793C8.91797 11.7539 9.28125 10.1953 10.2305 10.1953C11.1914 10.1953 11.5547 11.7539 11.5547 13.793C11.5547 15.8203 11.1914 17.3789 10.2305 17.3789ZM15.3281 18.5273H19.3945C19.8047 18.5273 20.0508 18.2578 20.0508 17.8477C20.0508 17.4023 19.793 17.1562 19.3945 17.1562H16.6055V17.0625L18.3164 14.8945C19.4883 13.4414 19.875 12.5742 19.875 11.543C19.875 9.96094 18.7969 8.8125 17.1797 8.8125C15.6914 8.8125 14.543 10.0547 14.543 11.2734C14.543 11.707 14.8008 12.0117 15.2461 12.0117C15.6328 12.0117 15.8789 11.8359 15.9961 11.4492C16.2188 10.6641 16.5 10.1719 17.1797 10.1719C17.8828 10.1719 18.2812 10.793 18.2812 11.625C18.2812 12.5625 17.625 13.5117 17.0039 14.3086L14.9648 16.9102C14.7539 17.1914 14.5312 17.4844 14.5312 17.8477C14.5312 18.2461 14.7891 18.5273 15.3281 18.5273Z" fill="black" fill-opacity="0.85"/>
</svg>
