<svg width="29" height="29" viewBox="0 0 29 29" fill="none" xmlns="http://www.w3.org/2000/svg">
<g clip-path="url(#clip0_2124_46011)">
<path d="M5.01953 17.8491C5.01953 23.0171 8.40625 26.0757 13.0586 26.0757C16.7851 26.0757 19.0937 24.5171 20.6289 21.3882C21.5312 19.6538 22.2226 17.5679 22.9609 15.1538C23.2656 14.1694 23.6992 12.9155 23.6992 12.353C23.6992 11.7202 23.2422 11.2983 22.5742 11.2983C21.8359 11.2983 21.3906 11.7671 20.8515 12.8804L19.2226 16.3022C19.0586 16.6772 18.8711 16.8179 18.6836 16.8179C18.4375 16.8179 18.2734 16.6772 18.2734 16.2671V3.97412C18.2734 3.28272 17.7109 2.72022 17.0195 2.72022C16.3281 2.72022 15.7656 3.28272 15.7656 3.97412V12.7632C15.4492 12.646 15.0976 12.5522 14.7227 12.4819V2.28662C14.7227 1.59522 14.1602 1.021 13.4688 1.021C12.7773 1.021 12.2031 1.59522 12.2031 2.28662V12.353C11.8398 12.3765 11.4648 12.4351 11.1016 12.4937V3.28272C11.1016 2.59131 10.5391 2.02881 9.84765 2.02881C9.15625 2.02881 8.59375 2.59131 8.59375 3.28272V13.2905C8.20703 13.478 7.85547 13.6772 7.53906 13.8882V6.92725C7.53906 6.23584 6.97656 5.67334 6.28515 5.67334C5.59375 5.67334 5.01953 6.23584 5.01953 6.92725V17.8491Z" fill="black" fill-opacity="0.85"/>
</g>
<defs>
<clipPath id="clip0_2124_46011">
<rect width="18.6797" height="25.8867" fill="white" transform="translate(5.01953 1.021)"/>
</clipPath>
</defs>
</svg>
