<svg width="28" height="28" viewBox="0 0 28 28" fill="none" xmlns="http://www.w3.org/2000/svg">
<g clip-path="url(#clip0_2124_49964)">
<path d="M4.92188 5.33594H11.6836C12.0938 5.33594 12.4219 4.99609 12.4219 4.57422C12.4219 4.15234 12.0938 3.80078 11.6836 3.80078H4.92188C4.5 3.80078 4.18359 4.15234 4.18359 4.57422C4.18359 4.99609 4.5 5.33594 4.92188 5.33594ZM0.726562 11.207H8.75391C9.17578 11.207 9.49219 10.8672 9.49219 10.4453C9.49219 10.0234 9.17578 9.67188 8.75391 9.67188H0.726562C0.316406 9.67188 0 10.0352 0 10.4453C0 10.8555 0.316406 11.207 0.726562 11.207ZM4.23047 17.0781H8.69531C9.10547 17.0781 9.42188 16.7383 9.42188 16.3164C9.42188 15.8945 9.10547 15.543 8.69531 15.543H4.23047C3.80859 15.543 3.49219 15.8945 3.49219 16.3164C3.49219 16.7383 3.80859 17.0781 4.23047 17.0781ZM1.14844 22.8789H7.26562C7.67578 22.8789 7.99219 22.5391 7.99219 22.1172C7.99219 21.6953 7.67578 21.3438 7.26562 21.3438H1.14844C0.738281 21.3438 0.421875 21.6953 0.421875 22.1172C0.421875 22.5391 0.738281 22.8789 1.14844 22.8789Z" fill="black" fill-opacity="0.85"/>
<path d="M14.0154 26.2891L17.531 22.0938C17.8826 21.6836 17.9295 21.5898 18.0701 21.1562L18.3279 20.3594L16.4412 17.9922L15.867 20.6406L12.3982 24.7656C11.2967 26.0898 13.1014 27.3789 14.0154 26.2891ZM22.5818 25.9375C23.3084 27.4023 25.4764 26.5 24.6912 24.9062L22.3006 20.0664C22.1131 19.7031 21.8553 19.3047 21.6326 18.9883L20.1209 16.8438L20.2264 16.5273C20.6248 15.3086 20.7889 14.582 20.8709 13.375L21.1053 9.98828C21.2225 8.38281 20.2732 7.16406 18.6326 7.16406C17.3904 7.16406 16.5584 7.78516 15.41 8.89844L13.6287 10.668C13.0428 11.2422 12.8553 11.7109 12.7967 12.4727L12.574 15.2383C12.5154 15.9414 12.9021 16.4336 13.5584 16.457C14.2146 16.5039 14.6131 16.1172 14.6717 15.3672L14.9295 12.332L15.785 11.5586C16.1014 11.2773 16.5115 11.4648 16.4881 11.7812L16.3006 14.3477C16.1951 15.6484 16.4998 16.2695 17.3904 17.3828L19.7693 20.3594C20.0037 20.6641 20.0389 20.7812 20.1326 20.9688L22.5818 25.9375ZM26.66 11.7344H23.9646L22.2537 9.84766L22.0545 12.6719L22.7342 13.3516C23.1092 13.7266 23.449 13.8438 24.1404 13.8438H26.66C27.3748 13.8438 27.8318 13.4453 27.8318 12.7891C27.8318 12.1562 27.3631 11.7344 26.66 11.7344ZM19.9334 6.10938C21.3514 6.10938 22.4881 4.96094 22.4881 3.55469C22.4881 2.13672 21.3514 1 19.9334 1C18.5154 1 17.3787 2.13672 17.3787 3.55469C17.3787 4.96094 18.5154 6.10938 19.9334 6.10938Z" fill="black" fill-opacity="0.85"/>
</g>
<defs>
<clipPath id="clip0_2124_49964">
<rect width="27.832" height="26.3789" fill="white" transform="translate(0 1)"/>
</clipPath>
</defs>
</svg>
