<svg width="28" height="28" viewBox="0 0 28 28" fill="none" xmlns="http://www.w3.org/2000/svg">
<path d="M11.2695 24.7461L12.418 25.0273C13.4258 21.9102 13.1914 18.3945 11.4336 15.3711C9.6875 12.3594 6.78125 10.3789 3.59375 9.69922L3.26562 10.8242C6.13672 11.4336 8.76172 13.2266 10.3672 15.9922C11.9727 18.7695 12.1953 21.9336 11.2695 24.7461ZM6.44141 12.6992L7.51953 10.7188C7.66016 10.4609 7.57812 10.1445 7.32031 10.0156C7.05078 9.86328 6.72266 9.93359 6.58203 10.2031L5.51562 12.1719C5.36328 12.4414 5.45703 12.7695 5.72656 12.8984C5.98438 13.0508 6.28906 12.9688 6.44141 12.6992ZM8.58594 14.2578L10.1562 12.6523C10.3789 12.4297 10.3672 12.1016 10.1562 11.9141C9.94531 11.6914 9.61719 11.668 9.39453 11.8906L7.82422 13.4961C7.60156 13.707 7.61328 14.0586 7.83594 14.2461C8.04688 14.457 8.36328 14.4688 8.58594 14.2578ZM10.25 16.6602L12.207 15.5586C12.4883 15.4062 12.5586 15.0781 12.4062 14.832C12.2539 14.5742 11.9375 14.4688 11.6797 14.6211L9.72266 15.7109C9.45312 15.8633 9.37109 16.2031 9.53516 16.4492C9.6875 16.707 9.98047 16.8008 10.25 16.6602ZM11.1289 19.3789L13.3086 18.8164C13.5898 18.7344 13.7539 18.4414 13.6836 18.1602C13.6016 17.8672 13.332 17.6914 13.0273 17.7734L10.8594 18.3359C10.5664 18.4062 10.4023 18.6992 10.4727 18.9805C10.5547 19.2734 10.8359 19.4492 11.1289 19.3789ZM11.293 22.1328L13.5312 22.1914C13.8359 22.2031 14.0703 21.957 14.0703 21.6641C14.082 21.3828 13.8477 21.1367 13.5547 21.125L11.3164 21.0664C11.0117 21.0547 10.7773 21.3008 10.7656 21.5938C10.7656 21.8867 11 22.1211 11.293 22.1328ZM24.2773 18.1836L24.5938 17.0352C21.6992 16.4375 19.0742 14.6562 17.4688 11.8906C15.875 9.10156 15.6406 5.92578 16.5664 3.125L15.418 2.86719C14.4102 5.97266 14.6562 9.46484 16.4023 12.5C18.1484 15.5352 21.0664 17.4805 24.2773 18.1836ZM16.5664 6.83984C16.8711 6.85156 17.0938 6.62891 17.0938 6.32422C17.1055 6.03125 16.8711 5.78516 16.5781 5.77344L14.3398 5.70312C14.0352 5.71484 13.8008 5.94922 13.8008 6.25391C13.7891 6.54688 14.0117 6.78125 14.3164 6.78125L16.5664 6.83984ZM16.8477 9.48828C17.1406 9.40625 17.3047 9.125 17.2109 8.84375C17.1523 8.55078 16.8711 8.375 16.5781 8.45703L14.3984 9.00781C14.0938 9.08984 13.9531 9.38281 14.0469 9.66406C14.0938 9.95703 14.375 10.1211 14.668 10.0391L16.8477 9.48828ZM18.1133 12.1367C18.3828 11.9844 18.4531 11.6914 18.3125 11.4102C18.1719 11.1641 17.8555 11.0469 17.5977 11.2109L15.6289 12.3242C15.3711 12.4648 15.3008 12.793 15.4531 13.0508C15.5703 13.2969 15.8984 13.4141 16.1562 13.25L18.1133 12.1367ZM20.0469 14.2461C20.2695 14.0117 20.2578 13.6836 20.0352 13.4727C19.8359 13.2734 19.4961 13.2617 19.2852 13.4844L17.7031 15.0898C17.4922 15.2891 17.5039 15.6289 17.7266 15.8281C17.9258 16.0273 18.2539 16.0391 18.4648 15.8281L20.0469 14.2461ZM22.3555 15.7461C22.5078 15.4766 22.4023 15.1719 22.1445 15.0078C21.8867 14.8789 21.5586 14.9609 21.4297 15.2188L20.3516 17.1875C20.1992 17.4453 20.293 17.7734 20.5508 17.9141C20.7969 18.0547 21.1484 17.9727 21.2773 17.7031L22.3555 15.7461ZM13.9531 25.9062C20.4922 25.9062 25.9062 20.4805 25.9062 13.9531C25.9062 7.41406 20.4805 2 13.9414 2C7.41406 2 2 7.41406 2 13.9531C2 20.4805 7.42578 25.9062 13.9531 25.9062ZM13.9531 24.3125C8.29297 24.3125 3.59375 19.6133 3.59375 13.9531C3.59375 8.29297 8.28125 3.59375 13.9414 3.59375C19.6016 3.59375 24.3125 8.29297 24.3125 13.9531C24.3125 19.6133 19.6133 24.3125 13.9531 24.3125Z" fill="black" fill-opacity="0.85"/>
</svg>
