<svg width="28" height="28" viewBox="0 0 28 28" fill="none" xmlns="http://www.w3.org/2000/svg">
<path d="M13.9531 25.9062C20.4922 25.9062 25.9062 20.4805 25.9062 13.9531C25.9062 7.41406 20.4805 2 13.9414 2C7.41406 2 2 7.41406 2 13.9531C2 20.4805 7.42578 25.9062 13.9531 25.9062ZM13.9531 23.9141C8.42188 23.9141 4.00391 19.4844 4.00391 13.9531C4.00391 8.42188 8.41016 3.99219 13.9414 3.99219C19.4727 3.99219 23.9141 8.42188 23.9141 13.9531C23.9141 19.4844 19.4844 23.9141 13.9531 23.9141Z" fill="black" fill-opacity="0.85"/>
<path d="M13.9414 20.2461C17.3633 20.2461 20.2227 17.3867 20.2227 13.9648C20.2227 10.5547 17.3516 7.68359 13.9414 7.68359C10.5195 7.68359 7.67188 10.543 7.67188 13.9648C7.67188 17.375 10.5312 20.2461 13.9414 20.2461ZM13.9414 18.418C11.5273 18.418 9.5 16.3906 9.5 13.9648C9.5 11.5273 11.5039 9.51172 13.9414 9.51172C16.3672 9.51172 18.3828 11.5391 18.3828 13.9648C18.3828 16.4023 16.3789 18.418 13.9414 18.418Z" fill="black" fill-opacity="0.85"/>
</svg>
