<svg width="28" height="28" viewBox="0 0 28 28" fill="none" xmlns="http://www.w3.org/2000/svg">
<g clip-path="url(#clip0_2124_88368)">
<path d="M13.9531 26.5273C20.4922 26.5273 25.9062 21.1016 25.9062 14.5742C25.9062 8.03516 20.4805 2.62109 13.9414 2.62109C7.41406 2.62109 2 8.03516 2 14.5742C2 21.1016 7.42578 26.5273 13.9531 26.5273Z" fill="black" fill-opacity="0.85"/>
<path d="M14.2227 22.1797C13.6016 22.1797 13.4141 21.6875 13.2031 21.0078L12.1133 17.457C11.9961 16.9883 12.0195 16.7656 12.2891 16.4961L19.168 9.07812C19.25 8.98438 19.25 8.87891 19.168 8.80859C19.0977 8.76172 19.0039 8.73828 18.9102 8.82031L11.5273 15.7461C11.2344 16.0039 11 16.0039 10.5664 15.875L6.91016 14.7734C6.25391 14.5742 5.79688 14.3633 5.79688 13.7539C5.79688 13.2617 6.23047 12.9102 6.79297 12.7109L18.4062 8.25781C18.7227 8.14062 18.9805 8.07031 19.2148 8.07031C19.6484 8.07031 19.9062 8.33984 19.9062 8.77344C19.9062 9.00781 19.8477 9.26562 19.7305 9.58203L15.3125 21.1367C15.0664 21.7812 14.7148 22.1797 14.2227 22.1797Z" fill="white"/>
</g>
<defs>
<clipPath id="clip0_2124_88368">
<rect width="23.9062" height="24.5273" fill="white" transform="translate(2 2)"/>
</clipPath>
</defs>
</svg>
