<svg width="28" height="28" viewBox="0 0 28 28" fill="none" xmlns="http://www.w3.org/2000/svg">
<path d="M13.9531 25.918C20.4922 25.918 25.9062 20.5039 25.9062 13.9648C25.9062 7.4375 20.4805 2.01172 13.9414 2.01172C7.41406 2.01172 2 7.4375 2 13.9648C2 20.5039 7.42578 25.918 13.9531 25.918Z" fill="black" fill-opacity="0.85"/>
<path d="M9.57031 18.418C7.73047 18.418 6.51172 17.2812 6.51172 15.6406C6.51172 14.3398 7.36719 13.2734 8.60938 12.9336C8.82031 10.4844 10.8477 8.58594 13.2852 8.58594C15.1367 8.58594 16.6602 9.58203 17.4688 11.2461C19.7188 11.2109 21.3945 12.7461 21.3945 14.8086C21.3945 16.8477 19.7656 18.418 17.6797 18.418H9.57031Z" fill="white"/>
</svg>
