<svg width="28" height="28" viewBox="0 0 28 28" fill="none" xmlns="http://www.w3.org/2000/svg">
<g clip-path="url(#clip0_2124_24819)">
<path d="M8.24609 25.332H19.1445C21.1484 25.332 22.8359 25.1445 24.0312 23.9492C25.2266 22.7539 25.4023 21.0781 25.4023 19.0742V8.26953C25.4023 6.26562 25.2266 4.60156 24.0312 3.40625C22.8359 2.21094 21.1484 2.02344 19.1445 2.02344H8.22266C6.25391 2.02344 4.56641 2.21094 3.37109 3.40625C2.17578 4.60156 2 6.27734 2 8.24609V19.0742C2 21.0781 2.17578 22.7539 3.37109 23.9492C4.56641 25.1445 6.25391 25.332 8.24609 25.332ZM7.92969 23.4453C6.72266 23.4453 5.45703 23.2812 4.74219 22.5664C4.03906 21.8633 3.88672 20.6094 3.88672 19.4023V7.98828C3.88672 6.74609 4.03906 5.49219 4.74219 4.77734C5.45703 4.07422 6.73438 3.91016 7.96484 3.91016H19.4727C20.6797 3.91016 21.9453 4.07422 22.6484 4.78906C23.3633 5.49219 23.5156 6.74609 23.5156 7.95312V19.4023C23.5156 20.6094 23.3633 21.8633 22.6484 22.5664C21.9453 23.2812 20.6797 23.4453 19.4727 23.4453H7.92969Z" fill="black" fill-opacity="0.85"/>
<path d="M8.43359 11.1055C9.38281 11.2109 10.1211 10.168 10.0625 9.33594C9.11328 9.37109 8.41016 10.2148 8.43359 11.1055ZM11.668 15.1602C11.2227 14.9609 10.9297 14.668 10.7656 14.2461C10.5898 13.7891 10.6133 13.3203 10.7656 12.9219C10.8477 12.6523 11.0234 12.3242 11.4805 12.0547C11.1406 11.5508 10.6016 11.293 9.96875 11.293C9.25391 11.293 8.84375 11.668 8.48047 11.668C8.17578 11.668 7.83594 11.3047 7.26172 11.3047C6.64062 11.3047 6.13672 11.5625 5.80859 11.9844C5.41016 12.4766 5.24609 13.0742 5.24609 13.6953C5.24609 14.7148 5.69141 15.9102 6.35938 16.6602C6.72266 17.0469 6.99219 17.2461 7.30859 17.2461C7.78906 17.2461 8.04688 16.8945 8.62109 16.8945C8.87891 16.8945 9.08984 17 9.24219 17.0469C9.47656 17.1289 9.64062 17.2344 9.91016 17.2344C10.2031 17.2344 10.4375 17.1172 10.5898 16.9766C11.0938 16.4727 11.5039 15.7578 11.668 15.1602ZM14.8789 9.91016H13.6602V11.293H12.8164V12.2305H13.6602V15.6289C13.6602 16.8125 14.1289 17.2344 15.3242 17.2344C15.582 17.2344 15.875 17.1992 15.9805 17.1875V16.1914C15.9219 16.2266 15.7109 16.2266 15.582 16.2266C15.1016 16.2266 14.8789 16.0273 14.8789 15.4883V12.2305H16.0039V11.293H14.8789V9.91016ZM19.9766 17.1875L22.1094 11.293H20.7852L19.3555 16.0273L17.832 11.293H16.543L18.7109 17.1875H19.9766Z" fill="black" fill-opacity="0.85"/>
</g>
<defs>
<clipPath id="clip0_2124_24819">
<rect width="23.4023" height="23.332" fill="white" transform="translate(2 2)"/>
</clipPath>
</defs>
</svg>
