<svg width="28" height="29" viewBox="0 0 28 29" fill="none" xmlns="http://www.w3.org/2000/svg">
<g clip-path="url(#clip0_2124_49989)">
<path d="M14.0586 28.7695C20.9258 28.7695 26.1289 27.3047 26.1289 24.7969C26.1289 23.2148 24.043 22.043 20.7148 21.3984L19.707 22.9805C22.6133 23.3906 24.3594 24.0938 24.3594 24.7969C24.3594 25.875 20.1992 27 14.0586 27C7.92969 27 3.76953 25.875 3.76953 24.7969C3.76953 24.0938 5.51562 23.3906 8.42188 22.9805L7.40234 21.3984C4.08594 22.043 2 23.2148 2 24.7969C2 27.3047 7.20312 28.7695 14.0586 28.7695ZM6.5 20.918L7.67188 23.6719C7.84766 24.0703 8.33984 24.1523 8.65625 23.6836L10.1094 21.5625C10.3906 21.1523 10.2852 20.6719 9.74609 20.5664L7.16797 20.1211C6.59375 20.0156 6.32422 20.4961 6.5 20.918ZM21.6289 20.918C21.8047 20.4961 21.5234 20.0156 20.9609 20.1211L18.3828 20.5664C17.8438 20.6719 17.7383 21.1523 18.0078 21.5625L19.4727 23.6836C19.7891 24.1523 20.2695 24.0703 20.4453 23.6719L21.6289 20.918Z" fill="black" fill-opacity="0.85"/>
<path d="M13.543 6.96094V2.68359C13.543 0.949219 12.6523 0.0234375 10.9648 0.0234375C8.12891 0.046875 5.15234 2.58984 5.15234 5.0625C5.15234 7.45312 7.44922 8.71875 11.1172 10.0664L11.8555 8.40234C8.65625 7.18359 6.92188 6.46875 6.92188 5.0625C6.92188 3.5625 9.06641 1.79297 10.9648 1.79297C11.6562 1.79297 11.7617 1.88672 11.7617 2.68359V7.48828L13.543 6.96094ZM16.5781 8.92969H20.8438C22.5664 8.92969 23.5039 8.03906 23.5039 6.375C23.5039 3.52734 20.9258 0.550781 18.4531 0.550781C16.0742 0.550781 14.7969 2.84766 13.4727 6.51562L15.1367 7.26562C16.332 4.05469 17.0469 2.32031 18.4531 2.32031C19.9648 2.32031 21.7227 4.45312 21.7227 6.375C21.7227 7.06641 21.6523 7.14844 20.8438 7.14844H16.0391L16.5781 8.92969ZM14.6094 11.9766V16.2539C14.6094 17.9883 15.4883 18.8906 17.1641 18.8906C20.0117 18.8906 22.9883 16.3359 22.9883 13.8633C22.9883 11.4727 20.6914 10.207 17.0234 8.87109L16.2734 10.5234C19.4727 11.7422 21.2188 12.457 21.2188 13.8633C21.2188 15.3633 19.0625 17.1328 17.1641 17.1094C16.4609 17.1094 16.3906 17.0391 16.3906 16.2539V11.4492L14.6094 11.9766ZM11.5508 9.98438H7.28516C5.55078 9.98438 4.63672 10.8867 4.63672 12.5508C4.63672 15.4102 7.19141 18.375 9.67578 18.375C12.0664 18.375 13.332 16.0898 14.668 12.4102L13.0039 11.6602C11.7852 14.8828 11.082 16.5938 9.67578 16.5938C8.15234 16.5938 6.41797 14.4727 6.41797 12.5508C6.41797 11.8477 6.5 11.7656 7.28516 11.7656H12.0898L11.5508 9.98438ZM14.0586 12.7852C15.8984 12.7852 17.4102 11.3086 17.4102 9.46875C17.4102 7.61719 15.8984 6.12891 14.0586 6.12891C12.2188 6.12891 10.7305 7.61719 10.7305 9.46875C10.7305 11.3086 12.2188 12.7852 14.0586 12.7852ZM14.0586 11.0391C13.1797 11.0391 12.4766 10.3477 12.4766 9.46875C12.4766 8.57812 13.1797 7.875 14.0586 7.875C14.9375 7.875 15.6641 8.57812 15.6641 9.46875C15.6641 10.3477 14.9375 11.0391 14.0586 11.0391Z" fill="black" fill-opacity="0.85"/>
</g>
<defs>
<clipPath id="clip0_2124_49989">
<rect width="24.1289" height="28.7695" fill="white" transform="translate(2)"/>
</clipPath>
</defs>
</svg>
