<svg width="28" height="28" viewBox="0 0 28 28" fill="none" xmlns="http://www.w3.org/2000/svg">
<path d="M13.9531 25.9062C20.4922 25.9062 25.9062 20.4805 25.9062 13.9531C25.9062 7.41406 20.4805 2 13.9414 2C7.41406 2 2 7.41406 2 13.9531C2 20.4805 7.42578 25.9062 13.9531 25.9062Z" fill="black" fill-opacity="0.85"/>
<path d="M7.48438 13.6602C7.5078 12.582 7.96484 11.2461 8.63281 10.2852C9.10156 10.4258 9.39453 11.2461 9.40625 11.7617C8.67969 12.3242 8.04688 12.9453 7.48438 13.6602ZM10.1328 11.2461C10.0039 10.6484 9.66406 9.88672 9.10156 9.6875C9.59375 9.13672 10.1562 8.67969 10.7891 8.31641C10.6484 8.9375 10.6016 9.81641 10.7305 10.8945C10.5195 11 10.332 11.1289 10.1328 11.2461ZM11.457 10.5312C11.3281 9.30078 11.4687 8.42188 11.5977 7.91797C12.2305 7.68359 12.8867 7.51952 13.5898 7.48438C12.8398 8.02343 12.3828 8.83203 12.3828 9.76953C12.3828 9.91016 12.3828 10.0391 12.3945 10.1445C12.0781 10.2617 11.75 10.3906 11.457 10.5312ZM13.1914 9.93359C13.1562 8.65625 13.8477 8.03516 15.1602 7.57812C16.8359 7.90625 18.3008 8.90233 19.25 10.2617C18.1602 9.82811 16.9297 9.61719 15.6875 9.61719C14.832 9.61719 13.9883 9.71094 13.1914 9.93359ZM7.55469 14.9375C8.08203 14.1289 8.69141 13.4258 9.39453 12.793C9.28906 14.6445 8.82031 16.7891 9.41797 18.5352C8.45703 17.5859 7.77734 16.3203 7.55469 14.9375ZM10.2031 12.1484C10.4141 12.0078 10.625 11.8672 10.8477 11.7383C11.293 14.2227 12.5 17.3867 14.9141 20.375C14.5977 20.4219 14.2812 20.4336 13.9648 20.4336C13.1211 20.4336 12.3242 20.2344 11.6211 19.8945C8.96094 18.2656 10.2148 15.0195 10.2031 12.1484ZM11.5508 11.3516C11.9023 11.1875 12.2539 11.0352 12.6055 10.918C13.8008 13.625 19.0273 14.5977 19.2617 17.6445C18.418 18.8516 17.1875 19.7539 15.7578 20.1758C13.1797 17.0703 11.9492 13.7656 11.5508 11.3516ZM13.3906 10.6836C14.1289 10.4961 14.9023 10.4023 15.6875 10.4023C17.2109 10.4023 18.582 10.7422 19.9062 11.4219C20.2461 12.207 20.4453 13.0625 20.4453 13.9531C20.4453 14.9141 20.2227 15.8047 19.8477 16.625C18.7695 13.6953 14.4102 12.7461 13.3906 10.6836Z" fill="white"/>
</svg>
