<svg width="28" height="28" viewBox="0 0 28 28" fill="none" xmlns="http://www.w3.org/2000/svg">
<path d="M6.67969 24.5977H20.8945C23.3555 24.5977 24.5742 23.3789 24.5742 20.9648V6.65625C24.5742 4.24219 23.3555 3.02344 20.8945 3.02344H6.67969C4.23047 3.02344 3 4.23047 3 6.65625V20.9648C3 23.3906 4.23047 24.5977 6.67969 24.5977ZM6.70312 22.7109C5.53125 22.7109 4.88672 22.0898 4.88672 20.8711V6.75C4.88672 5.53125 5.53125 4.91016 6.70312 4.91016H20.8711C22.0312 4.91016 22.6875 5.53125 22.6875 6.75V20.8711C22.6875 22.0898 22.0312 22.7109 20.8711 22.7109H6.70312Z" fill="black" fill-opacity="0.85"/>
<path d="M13.9805 20.707C14.3086 20.707 14.5547 20.4727 14.5547 20.1328V19.3477H14.707C16.8867 19.3477 18.2695 18.1523 18.2695 16.2539C18.2695 14.9297 17.4844 13.9453 16.2656 13.582C17.1328 13.1602 17.7422 12.2344 17.7422 11.2383C17.7422 9.62109 16.5117 8.44922 14.707 8.44922H14.5547V7.55859C14.5547 7.23047 14.3086 6.99609 13.9805 6.99609C13.6641 6.99609 13.418 7.23047 13.418 7.55859V8.44922H11.6602C11.1211 8.44922 10.7344 8.82422 10.7344 9.375V18.4336C10.7344 18.9727 11.1094 19.3477 11.6602 19.3477H13.418V20.1328C13.418 20.4727 13.6641 20.707 13.9805 20.707ZM12.2461 17.9766V14.4141H13.418V17.9648L12.2461 17.9766ZM14.5547 17.9531V14.4258C16.0312 14.5078 16.7695 15.1055 16.7695 16.1953C16.7695 17.2969 16.0312 17.8945 14.5547 17.9531ZM12.2461 13.0547V9.80859H13.418V13.0547H12.2461ZM14.5547 12.9961V9.83203C15.6445 9.92578 16.2305 10.4531 16.2305 11.3555C16.2305 12.2695 15.668 12.8438 14.5547 12.9961Z" fill="black" fill-opacity="0.85"/>
</svg>
