<svg width="28" height="28" viewBox="0 0 28 28" fill="none" xmlns="http://www.w3.org/2000/svg">
<g clip-path="url(#clip0_2124_24758)">
<path d="M7.23047 23.5859H20.7305C25.6055 23.5859 27.9609 21.2891 27.9609 16.543V12.875H0V16.543C0 21.2891 2.35547 23.5859 7.23047 23.5859ZM13.9805 17.2227C13.3594 17.2227 12.8555 16.7188 12.8555 16.0977C12.8555 15.4766 13.3594 14.9609 13.9805 14.9609C14.6016 14.9609 15.1172 15.4766 15.1172 16.0977C15.1172 16.7188 14.6016 17.2227 13.9805 17.2227ZM0 11.6914H27.9609V11.3398C27.9609 7.08594 25.4062 5 20.7539 5H7.23047C2.57812 5 0 7.08594 0 11.3398V11.6914Z" fill="black" fill-opacity="0.85"/>
</g>
<defs>
<clipPath id="clip0_2124_24758">
<rect width="27.9609" height="18.5977" fill="white" transform="translate(0 5)"/>
</clipPath>
</defs>
</svg>
