<svg width="30" height="28" viewBox="0 0 30 28" fill="none" xmlns="http://www.w3.org/2000/svg">
<path d="M23.1562 23.3672C26.6953 23.3672 29.4609 20.7773 29.4609 17.5547C29.4609 15.0938 28.043 12.9609 25.7578 12C25.7812 6.77344 22.0195 3 17.2266 3C14.0508 3 11.7891 4.69922 10.3828 6.75C7.5 5.90625 4.35938 8.09766 4.30078 11.3789C1.65234 11.8008 0 14.168 0 17.0273C0 20.4727 3.01172 23.3672 7.01953 23.3672H23.1562Z" fill="black" fill-opacity="0.85"/>
<path d="M10.0312 18.4805C8.75392 17.2031 8.75392 15.375 10.0312 14.0977L12.0352 12.1055C11.7891 12.75 11.7656 13.3477 11.918 13.8984L10.9219 14.8945C10.125 15.6914 10.1133 16.8047 10.9219 17.6016C11.7188 18.3867 12.832 18.3984 13.6289 17.6016L15.9023 15.3281C16.7109 14.5078 16.7227 13.3828 15.9023 12.6211C15.4805 12.2227 15.0234 12.0352 14.5312 12.1055C14.6953 11.8828 14.8594 11.707 14.9648 11.5898L15.5742 10.9922C15.9258 11.0859 16.3828 11.332 16.793 11.7305C18.1055 12.9961 18.082 14.8477 16.793 16.125L14.4258 18.4805C13.1367 19.7578 11.3203 19.7578 10.0312 18.4805ZM20.0391 8.4961C21.3047 9.76173 21.3164 11.5898 20.0391 12.8672L18.0352 14.8711C18.2812 14.2266 18.3047 13.6289 18.1523 13.0664L19.1484 12.082C19.9453 11.2969 19.957 10.1719 19.1484 9.37501C18.3516 8.58985 17.25 8.57813 16.4414 9.38673L14.1797 11.6484C13.3711 12.457 13.3477 13.5938 14.168 14.3555C14.5664 14.7305 15.0117 14.918 15.457 14.918C15.3516 15.0938 15.3164 15.1523 15.1172 15.3867L14.5078 15.9844C14.1797 15.8906 13.7109 15.6445 13.2891 15.2461C11.9883 13.9805 12 12.1289 13.2773 10.8516L15.6445 8.48439C16.9336 7.20704 18.75 7.20704 20.0391 8.4961Z" fill="white"/>
</svg>
