<svg width="28" height="28" viewBox="0 0 28 28" fill="none" xmlns="http://www.w3.org/2000/svg">
<g clip-path="url(#clip0_2124_89265)">
<path d="M6.19922 26.5742H22.207C24.1992 26.5742 25.4062 25.1914 25.4062 23.3984C25.4062 22.8008 25.1133 22.0039 24.5625 21.207L18.6094 12.6641V2.98438H9.79688V12.6641L3.73828 21.3594C3.24609 22.0625 3 22.8008 3 23.3984C3 25.1914 4.20703 26.5742 6.19922 26.5742ZM9.71484 3.96875H18.6797C19.2656 3.96875 19.6758 3.51172 19.6758 2.97266C19.6758 2.43359 19.2656 2 18.6797 2H9.71484C9.12891 2 8.73047 2.43359 8.73047 2.97266C8.73047 3.51172 9.12891 3.96875 9.71484 3.96875Z" fill="black" fill-opacity="0.85"/>
<path d="M11.6719 7.00391V5.63281H13.793C14.168 5.63281 14.4844 5.94922 14.4844 6.3125C14.4844 6.71094 14.1914 7.00391 13.8047 7.00391H11.6719ZM11.6719 10.3555V8.98438H13.8047C14.1797 8.98438 14.4961 9.28906 14.4961 9.65234C14.4961 10.0508 14.2031 10.3555 13.8164 10.3555H11.6719ZM11.6719 13.6953V12.3242H13.8164C14.1914 12.3242 14.4961 12.6406 14.4961 13.0039C14.4961 13.4023 14.2031 13.6953 13.8164 13.6953H11.6719Z" fill="white"/>
</g>
<defs>
<clipPath id="clip0_2124_89265">
<rect width="22.4062" height="24.5977" fill="white" transform="translate(3 2)"/>
</clipPath>
</defs>
</svg>
