<svg width="32" height="28" viewBox="0 0 32 28" fill="none" xmlns="http://www.w3.org/2000/svg">
<g clip-path="url(#clip0_2124_24558)">
<path d="M26.8124 22.3633C27.1874 22.7969 27.8437 22.7969 28.289 22.3047C30.246 20.1836 31.3358 17.3828 31.3358 14.3477C31.3358 11.3125 30.246 8.50001 28.289 6.39063C27.8437 5.89845 27.1874 5.88673 26.8124 6.33204C26.4374 6.75392 26.5546 7.3047 26.9765 7.78517C28.5468 9.53126 29.4257 11.8281 29.4257 14.3477C29.4257 16.8672 28.5468 19.1641 26.9765 20.9102C26.5546 21.3906 26.4374 21.9414 26.8124 22.3633Z" fill="black" fill-opacity="0.85"/>
<path d="M23.5313 19.0234C23.9181 19.457 24.6212 19.4688 25.0313 18.9414C26.0509 17.6758 26.6485 16.0703 26.6485 14.3477C26.6485 12.625 26.0509 11.0196 25.0313 9.75395C24.6212 9.2266 23.9181 9.2266 23.5313 9.67192C23.1563 10.0938 23.3087 10.6211 23.6837 11.125C24.3868 11.9922 24.7384 13.129 24.7384 14.3477C24.7384 15.5664 24.3868 16.6914 23.6837 17.5703C23.3087 18.0742 23.1563 18.6016 23.5313 19.0234Z" fill="black" fill-opacity="0.85"/>
<path d="M10.3477 24.6953C15.9961 24.6953 20.6953 19.9961 20.6953 14.3477C20.6953 8.69922 16.0078 4 10.3594 4C4.71094 4 0 8.69922 0 14.3477C0 19.9961 4.69922 24.6953 10.3477 24.6953ZM10.4531 17.8633C9.75 17.8633 9.50391 18.2383 8.94141 18.2383C8.35547 18.2383 7.96875 17.7344 7.51172 17.0898C6.99609 16.3281 6.5625 15.168 6.5625 14.0547C6.5625 12.2852 7.71094 11.3359 8.85938 11.3359C9.45703 11.3359 9.96094 11.7461 10.3359 11.7461C10.6992 11.7461 11.2617 11.3242 11.9414 11.3242C12.2109 11.3242 13.1484 11.3359 13.7578 12.2148C13.6992 12.2734 12.7734 12.7891 12.7734 13.9727C12.7734 15.3203 13.957 15.8008 13.9922 15.8242C13.9922 15.8477 13.8164 16.4805 13.3711 17.1133C12.9844 17.6641 12.5625 18.2266 11.9414 18.2266C11.3203 18.2266 11.168 17.8633 10.4531 17.8633ZM11.625 10.5625C11.3203 10.9375 10.8047 11.2188 10.3828 11.2188C10.3359 11.2188 10.3008 11.207 10.2539 11.207C10.2539 11.1836 10.2422 11.1133 10.2422 11.043C10.2422 10.5625 10.5 10.1055 10.7461 9.80078C11.0859 9.41406 11.625 9.12109 12.0938 9.10938C12.1055 9.15625 12.1055 9.22656 12.1055 9.28516C12.1055 9.76562 11.9062 10.2227 11.625 10.5625Z" fill="black" fill-opacity="0.85"/>
</g>
<defs>
<clipPath id="clip0_2124_24558">
<rect width="31.3359" height="20.707" fill="white" transform="translate(0 4)"/>
</clipPath>
</defs>
</svg>
