<svg width="34" height="29" viewBox="0 0 34 29" fill="none" xmlns="http://www.w3.org/2000/svg">
<g clip-path="url(#clip0_2124_45993)">
<path d="M0.00976562 13.8494C0.00976562 17.658 3.93555 20.529 8.75196 20.529C12.209 20.529 15.0098 19.322 16.6504 17.0837C18.3028 19.322 21.0918 20.529 24.5489 20.529C29.377 20.529 33.3028 17.658 33.3028 13.8494C33.3028 12.5369 32.916 11.7166 32.1309 11.7166C31.8614 11.7166 31.5684 11.8806 31.3809 12.1619C30.7715 13.0408 29.752 13.5212 28.4864 13.5212C24.959 13.5212 23.9512 9.23218 19.7207 9.23218C17.5996 9.23218 16.1114 10.4509 15.8067 12.4431H17.4942C17.1895 10.4509 15.7129 9.23218 13.5801 9.23218C9.36133 9.23218 8.35352 13.5212 4.82618 13.5212C3.64258 13.5212 2.62305 13.0525 1.90821 12.1501C1.69727 11.8806 1.43946 11.7166 1.16993 11.7166C0.384766 11.7166 0.00976562 12.5369 0.00976562 13.8494Z" fill="black" fill-opacity="0.85"/>
</g>
<defs>
<clipPath id="clip0_2124_45993">
<rect width="33.293" height="12.5039" fill="white" transform="translate(0.00976562 8.02515)"/>
</clipPath>
</defs>
</svg>
