<svg width="28" height="28" viewBox="0 0 28 28" fill="none" xmlns="http://www.w3.org/2000/svg">
<g clip-path="url(#clip0_2124_67804)">
<path d="M5 19.6875C5 22.9219 7.01562 24.9844 10.168 24.9844C12.5234 24.9844 14.2812 23.9531 15.3945 21.9609L16.4492 20.0742C18.9219 15.5508 23 14.9648 23 9.15234C23 3.66797 19.4492 0 14.1289 0C8.67969 0 5 3.69141 5 9.19922V19.6875Z" fill="black" fill-opacity="0.85"/>
<path d="M8.15234 14.625V8.77734C8.15234 5.48438 10.4609 3.26953 14.1172 3.26953C17.6562 3.26953 19.8594 5.48438 19.8594 8.77734C19.8594 9.25781 19.4492 9.66797 18.9688 9.66797C18.4883 9.66797 18.0898 9.25781 18.0898 8.77734C18.0898 6.51562 16.625 5.03906 14.1172 5.03906C11.4922 5.03906 9.92188 6.52734 9.92188 8.77734V10.2656H13.4609C15.3594 10.2656 16.6133 11.4258 16.6133 13.1484C16.6133 13.875 16.2969 14.7656 15.8164 15.375L14.293 17.3086C14.0938 17.5547 13.8359 17.6953 13.5664 17.6953C13.0859 17.6953 12.6758 17.2969 12.6758 16.8164C12.6758 16.5938 12.7578 16.3828 12.9102 16.1836L14.3164 14.4141C14.5977 14.0742 14.7852 13.582 14.7852 13.2188C14.7852 12.5156 14.2813 12.0352 13.4844 12.0352H9.92188V14.625C9.92188 15.1055 9.51172 15.5156 9.03125 15.5156C8.55078 15.5156 8.15234 15.1055 8.15234 14.625Z" fill="white"/>
</g>
<defs>
<clipPath id="clip0_2124_67804">
<rect width="18" height="27.2461" fill="white" transform="translate(5)"/>
</clipPath>
</defs>
</svg>
