<svg width="28" height="31" viewBox="0 0 28 31" fill="none" xmlns="http://www.w3.org/2000/svg">
<path d="M22.9688 27.4336C24.7852 25.6406 25.7461 23.3438 25.8984 20.8594C25.9453 20.2148 25.5 19.8867 25.043 19.8867C24.457 19.8867 24.1523 20.1797 24.0938 20.9297C23.9766 22.8633 23.1797 24.7266 21.7266 26.1914C20.2617 27.6445 18.3867 28.4414 16.4648 28.5586C15.7969 28.6055 15.3984 28.9336 15.3984 29.4375C15.3984 29.9883 15.8086 30.375 16.4062 30.375C18.8906 30.375 21.1758 29.2383 22.9688 27.4336Z" fill="black" fill-opacity="0.85"/>
<path d="M20.0625 24.5156C21.082 23.4961 21.6914 22.2305 21.8438 20.8008C21.9258 20.168 21.5156 19.7695 21 19.7695C20.4258 19.7695 20.168 20.0391 20.0625 20.6953C19.9336 21.6914 19.5234 22.5586 18.8203 23.2734C18.082 24 17.2383 24.4219 16.3359 24.5156C15.6094 24.6211 15.2812 24.9961 15.2812 25.4648C15.2812 25.9688 15.6562 26.3203 16.207 26.3203C17.2148 26.3203 18.8555 25.7227 20.0625 24.5156Z" fill="black" fill-opacity="0.85"/>
<path d="M11.0391 23.0742C15.5508 23.0742 17.5664 22.0547 17.5664 19.4648V4.25391C17.5664 1.58203 15.1055 0 11.0391 0C6.99609 0 4.53516 1.58203 4.53516 4.25391V19.4648C4.53516 22.0547 6.53906 23.0742 11.0391 23.0742ZM11.0508 9.64453C10.1836 9.64453 8.87109 9.71484 8.40234 9.71484C7.6875 9.71484 7.35938 9.41016 7.28906 8.64844L7.13672 6.96094C7.00781 5.56641 7.93359 5.03906 11.0508 5.03906C14.168 5.03906 15.082 5.56641 14.9648 6.96094L14.8242 8.64844C14.7656 9.41016 14.4258 9.71484 13.6992 9.71484C13.2422 9.71484 11.8711 9.64453 11.0508 9.64453ZM11.0508 19.3359C7.93359 19.3359 6.92578 18.8789 7.17188 17.4375L7.30078 16.6172C7.48828 15.4688 8.36719 15.1055 11.0508 15.1055C13.7344 15.1055 14.6367 15.4688 14.8125 16.6172L14.9297 17.4375C15.1523 18.8789 14.168 19.3359 11.0508 19.3359ZM5.53125 9.23438V6.79688H4.03125C3.44531 6.79688 3 7.23047 3 7.79297V8.23828C3 8.78906 3.44531 9.23438 4.03125 9.23438H5.53125ZM16.5703 9.23438H18.0703C18.6562 9.23438 19.1016 8.78906 19.1016 8.23828V7.79297C19.1016 7.23047 18.6562 6.79688 18.0703 6.79688H16.5703V9.23438Z" fill="black" fill-opacity="0.85"/>
</svg>
