<svg width="28" height="28" viewBox="0 0 28 28" fill="none" xmlns="http://www.w3.org/2000/svg">
<path d="M6.67969 24.5977H20.8945C23.3555 24.5977 24.5742 23.3789 24.5742 20.9648V6.65625C24.5742 4.24219 23.3555 3.02344 20.8945 3.02344H6.67969C4.23047 3.02344 3 4.23047 3 6.65625V20.9648C3 23.3906 4.23047 24.5977 6.67969 24.5977Z" fill="black" fill-opacity="0.85"/>
<path d="M13.8047 19.6992C13.3594 19.6992 13.043 19.3711 13.043 18.8789V17.1445H10.8281C10.4883 17.1445 10.2422 16.8867 10.2422 16.5469C10.2422 16.207 10.4766 15.9492 10.8281 15.9492H13.043V15.0234H10.8281C10.4883 15.0234 10.2422 14.7656 10.2422 14.4141C10.2422 14.0742 10.4766 13.8164 10.8281 13.8164H12.4805L9.53906 9.08203C9.43359 8.90625 9.38672 8.76562 9.38672 8.57812C9.38672 8.17969 9.72656 7.86328 10.1602 7.86328C10.4531 7.86328 10.6758 7.98047 10.8516 8.26172L13.8047 13.2422L16.7578 8.27344C16.9336 8.00391 17.1562 7.875 17.4492 7.875C17.8828 7.875 18.2227 8.19141 18.2227 8.58984C18.2227 8.77734 18.1758 8.91797 18.0586 9.09375L15.1289 13.8164H16.8164C17.168 13.8164 17.4023 14.0742 17.4023 14.4141C17.4023 14.7656 17.168 15.0234 16.8164 15.0234H14.5664V15.9492H16.8164C17.168 15.9492 17.4023 16.207 17.4023 16.5469C17.4023 16.8867 17.168 17.1445 16.8164 17.1445H14.5664V18.8906C14.5664 19.3828 14.25 19.6992 13.8047 19.6992Z" fill="white"/>
</svg>
