<svg width="30" height="28" viewBox="0 0 30 28" fill="none" xmlns="http://www.w3.org/2000/svg">
<g clip-path="url(#clip0_2124_24532)">
<path d="M3.67969 23.5156H25.8164C28.2539 23.5156 29.4961 22.2969 29.4961 19.8828V8.62109C29.4961 6.21875 28.2539 5 25.8164 5H3.67969C1.21875 5 0 6.20703 0 8.62109V19.8828C0 22.2969 1.21875 23.5156 3.67969 23.5156ZM4.44141 11.4453C4.11328 11.4453 3.91406 11.2344 3.91406 10.9062V9.79297C3.91406 9.46484 4.11328 9.25391 4.44141 9.25391H5.55469C5.89453 9.25391 6.10547 9.46484 6.10547 9.79297V10.9062C6.10547 11.2344 5.89453 11.4453 5.55469 11.4453H4.44141ZM8.33203 11.4453C7.99219 11.4453 7.79297 11.2344 7.79297 10.9062V9.79297C7.79297 9.46484 7.99219 9.25391 8.33203 9.25391H9.44531C9.77344 9.25391 9.98438 9.46484 9.98438 9.79297V10.9062C9.98438 11.2344 9.77344 11.4453 9.44531 11.4453H8.33203ZM12.2227 11.4453C11.8945 11.4453 11.6836 11.2344 11.6836 10.9062V9.79297C11.6836 9.46484 11.8945 9.25391 12.2227 9.25391H13.3242C13.6641 9.25391 13.875 9.46484 13.875 9.79297V10.9062C13.875 11.2344 13.6641 11.4453 13.3242 11.4453H12.2227ZM16.1133 11.4453C15.7852 11.4453 15.5742 11.2344 15.5742 10.9062V9.79297C15.5742 9.46484 15.7852 9.25391 16.1133 9.25391H17.2266C17.5547 9.25391 17.7656 9.46484 17.7656 9.79297V10.9062C17.7656 11.2344 17.5547 11.4453 17.2266 11.4453H16.1133ZM20.0039 11.4453C19.6641 11.4453 19.4531 11.2344 19.4531 10.9062V9.79297C19.4531 9.46484 19.6641 9.25391 20.0039 9.25391H21.1172C21.4453 9.25391 21.6445 9.46484 21.6445 9.79297V10.9062C21.6445 11.2344 21.4453 11.4453 21.1172 11.4453H20.0039ZM23.8945 11.4453C23.5547 11.4453 23.3438 11.2344 23.3438 10.9062V9.79297C23.3438 9.46484 23.5547 9.25391 23.8945 9.25391H24.9961C25.3359 9.25391 25.5352 9.46484 25.5352 9.79297V10.9062C25.5352 11.2344 25.3359 11.4453 24.9961 11.4453H23.8945ZM4.44141 15.3359C4.11328 15.3359 3.91406 15.125 3.91406 14.7969V13.6836C3.91406 13.3555 4.11328 13.1445 4.44141 13.1445H5.55469C5.89453 13.1445 6.10547 13.3555 6.10547 13.6836V14.7969C6.10547 15.125 5.89453 15.3359 5.55469 15.3359H4.44141ZM8.33203 15.3359C7.99219 15.3359 7.79297 15.125 7.79297 14.7969V13.6836C7.79297 13.3555 7.99219 13.1445 8.33203 13.1445H9.44531C9.77344 13.1445 9.98438 13.3555 9.98438 13.6836V14.7969C9.98438 15.125 9.77344 15.3359 9.44531 15.3359H8.33203ZM12.2227 15.3359C11.8945 15.3359 11.6836 15.125 11.6836 14.7969V13.6836C11.6836 13.3555 11.8945 13.1445 12.2227 13.1445H13.3242C13.6641 13.1445 13.875 13.3555 13.875 13.6836V14.7969C13.875 15.125 13.6641 15.3359 13.3242 15.3359H12.2227ZM16.1133 15.3359C15.7852 15.3359 15.5742 15.125 15.5742 14.7969V13.6836C15.5742 13.3555 15.7852 13.1445 16.1133 13.1445H17.2266C17.5547 13.1445 17.7656 13.3555 17.7656 13.6836V14.7969C17.7656 15.125 17.5547 15.3359 17.2266 15.3359H16.1133ZM20.0039 15.3359C19.6641 15.3359 19.4531 15.125 19.4531 14.7969V13.6836C19.4531 13.3555 19.6641 13.1445 20.0039 13.1445H21.1172C21.4453 13.1445 21.6445 13.3555 21.6445 13.6836V14.7969C21.6445 15.125 21.4453 15.3359 21.1172 15.3359H20.0039ZM23.8945 15.3359C23.5547 15.3359 23.3438 15.125 23.3438 14.7969V13.6836C23.3438 13.3555 23.5547 13.1445 23.8945 13.1445H24.9961C25.3359 13.1445 25.5352 13.3555 25.5352 13.6836V14.7969C25.5352 15.125 25.3359 15.3359 24.9961 15.3359H23.8945ZM4.44141 19.2266C4.11328 19.2266 3.91406 19.0156 3.91406 18.6875V17.5742C3.91406 17.2461 4.11328 17.0352 4.44141 17.0352H5.55469C5.89453 17.0352 6.10547 17.2461 6.10547 17.5742V18.6875C6.10547 19.0156 5.89453 19.2266 5.55469 19.2266H4.44141ZM8.46094 19.2266C8.03906 19.2266 7.79297 18.9805 7.79297 18.5586V17.6914C7.79297 17.2812 8.03906 17.0352 8.46094 17.0352H20.9883C21.3984 17.0352 21.6445 17.2812 21.6445 17.6914V18.5586C21.6445 18.9805 21.3984 19.2266 20.9883 19.2266H8.46094ZM23.8945 19.2266C23.5547 19.2266 23.3438 19.0156 23.3438 18.6875V17.5742C23.3438 17.2461 23.5547 17.0352 23.8945 17.0352H24.9961C25.3359 17.0352 25.5352 17.2461 25.5352 17.5742V18.6875C25.5352 19.0156 25.3359 19.2266 24.9961 19.2266H23.8945Z" fill="black" fill-opacity="0.85"/>
</g>
<defs>
<clipPath id="clip0_2124_24532">
<rect width="29.4961" height="18.5273" fill="white" transform="translate(0 5)"/>
</clipPath>
</defs>
</svg>
