<svg width="28" height="28" viewBox="0 0 28 28" fill="none" xmlns="http://www.w3.org/2000/svg">
<path d="M1.19649 21.8398C2.22774 25.6602 3.29414 26.8203 5.70821 26.8203H19.6184C21.3527 26.8203 22.5129 25.8828 22.9465 24.125L27.3527 6.24219C27.9973 3.64062 26.7785 2 24.4934 2C21.7395 2 19.5129 4.61328 20.5793 8.25781L20.802 7.12109C18.0715 9.05469 16.6301 13.2148 17.0051 18.1953L17.5441 17.5039C14.9895 17.0586 12.0129 16.8125 9.05977 16.8125C2.79024 16.8125 0.235549 18.3359 1.19649 21.8398ZM3.00117 21.3359C2.48555 19.4609 3.91524 18.6992 9.05977 18.6992C13.2316 18.6992 16.2316 19.2617 17.5676 19.3555C18.2824 19.3672 18.7277 18.9102 18.716 18.1953C18.634 13.7891 19.7941 10.2383 21.8449 8.70312C22.2902 8.33984 22.384 8.10547 22.2551 7.30859C21.9387 5.10547 23.1574 3.88672 24.4934 3.88672C25.3605 3.88672 25.8293 4.60156 25.548 5.75L21.1066 23.668C20.9074 24.4883 20.4035 24.9336 19.6184 24.9336H5.70821C4.39571 24.9336 3.85664 24.5117 3.00117 21.3359Z" fill="black" fill-opacity="0.85"/>
<path d="M7.52441 15.3125C7.52441 13.7773 6.1416 12.9219 6.1416 11.8672C6.1416 11.2813 6.29394 10.9531 6.69238 10.4258C7.25488 9.67578 6.21191 8.92578 5.63769 9.65234C5.08691 10.3555 4.84082 11 4.84082 11.7852C4.84082 13.3789 6.20019 14.1641 6.20019 15.3125C6.20019 16.4492 4.84082 17.2461 4.84082 18.8281C4.84082 19.6367 5.08691 20.2812 5.63769 20.9727C6.18847 21.6875 7.24316 20.9375 6.68066 20.1875C6.29394 19.6719 6.1416 19.3555 6.1416 18.7461C6.1416 17.7148 7.52441 16.8594 7.52441 15.3125ZM11.2861 15.3125C11.2861 13.7773 9.90332 12.9219 9.90332 11.8672C9.90332 11.2813 10.0557 10.9531 10.4541 10.4258C11.0049 9.67578 9.96191 8.92578 9.39941 9.65234C8.83691 10.3555 8.60254 11 8.60254 11.7852C8.60254 13.3789 9.96191 14.1641 9.96191 15.3125C9.96191 16.4492 8.60254 17.2461 8.60254 18.8281C8.60254 19.6367 8.83691 20.2812 9.38769 20.9727C9.95019 21.6875 11.0049 20.9375 10.4424 20.1875C10.0557 19.6719 9.90332 19.3555 9.90332 18.7461C9.90332 17.7148 11.2861 16.8594 11.2861 15.3125ZM15.0361 15.3125C15.0361 13.7773 13.6533 12.9219 13.6533 11.8672C13.6533 11.2813 13.8057 10.9531 14.2041 10.4258C14.7666 9.67578 13.7236 8.92578 13.1494 9.65234C12.5986 10.3555 12.3525 11 12.3525 11.7852C12.3525 13.3789 13.7119 14.1641 13.7119 15.3125C13.7119 16.4492 12.3525 17.2461 12.3525 18.8281C12.3525 19.6367 12.5986 20.2812 13.1494 20.9727C13.7119 21.6875 14.7549 20.9375 14.1924 20.1875C13.8057 19.6719 13.6533 19.3555 13.6533 18.7461C13.6533 17.7148 15.0361 16.8594 15.0361 15.3125Z" fill="black" fill-opacity="0.85"/>
</svg>
