<svg width="28" height="33" viewBox="0 0 28 33" fill="none" xmlns="http://www.w3.org/2000/svg">
<g clip-path="url(#clip0_2124_67728)">
<path d="M23.7109 26.0742V8.29688C23.7109 5.83594 22.5039 4.61719 20.0781 4.61719H7.63281C5.20703 4.61719 4 5.83594 4 8.29688V26.0742C4 28.5352 5.20703 29.7539 7.63281 29.7539H20.0781C22.5039 29.7539 23.7109 28.5352 23.7109 26.0742Z" fill="black" fill-opacity="0.85"/>
<path d="M10.2344 8.67188H17.4766C18.9062 8.67188 19.9375 7.62891 19.9375 6.15234V4.92188C19.9375 3.43359 18.9062 2.39062 17.4766 2.39062C17.2305 2.39062 17.0078 2.39062 16.75 2.39062L17.6758 3.03516C17.3711 1.26562 15.6953 0 13.8555 0C12.0156 0 10.3398 1.26562 10.0352 3.03516L10.9609 2.39062C10.7031 2.39062 10.4805 2.39062 10.2344 2.39062C8.80469 2.39062 7.77344 3.43359 7.77344 4.92188V6.15234C7.77344 7.62891 8.80469 8.67188 10.2344 8.67188Z" fill="white"/>
<path d="M10.2344 7.3125H17.4766C18.1562 7.3125 18.5664 6.87891 18.5664 6.15234V4.92187C18.5664 4.1953 18.1562 3.76171 17.4766 3.76171H16.3984C16.3164 2.43749 15.2148 1.35938 13.8555 1.35938C12.4961 1.35938 11.3945 2.43749 11.3125 3.76171H10.2344C9.55469 3.76171 9.14453 4.1953 9.14453 4.92187V6.15234C9.14453 6.87891 9.55469 7.3125 10.2344 7.3125ZM13.8555 4.87499C13.293 4.87499 12.8359 4.40624 12.8359 3.85546C12.8359 3.28124 13.293 2.82421 13.8555 2.82421C14.418 2.82421 14.875 3.28124 14.875 3.85546C14.875 4.40624 14.418 4.87499 13.8555 4.87499Z" fill="black" fill-opacity="0.85"/>
<path d="M8.75781 23.332C8.19531 23.332 7.72656 22.8633 7.72656 22.3008C7.72656 21.75 8.19531 21.2695 8.75781 21.2695C9.32031 21.2695 9.78906 21.7383 9.78906 22.3008C9.78906 22.875 9.32031 23.332 8.75781 23.332ZM11.9922 23.0625C11.5703 23.0625 11.2188 22.7109 11.2188 22.3008C11.2188 21.8906 11.5586 21.5508 11.9922 21.5508H19.2344C19.6562 21.5508 19.9844 21.8906 19.9844 22.3008C19.9844 22.7109 19.6445 23.0625 19.2344 23.0625H11.9922Z" fill="white"/>
<path d="M8.75781 18.8086C8.18359 18.8086 7.72656 18.3398 7.72656 17.7773C7.72656 17.2148 8.18359 16.7578 8.75781 16.7578C9.32031 16.7578 9.78906 17.2031 9.78906 17.7773C9.78906 18.3398 9.32031 18.8086 8.75781 18.8086ZM11.9922 18.5391C11.5586 18.5391 11.2188 18.1992 11.2188 17.7773C11.2188 17.3555 11.5586 17.0273 11.9922 17.0273H19.2344C19.6562 17.0273 19.9844 17.3555 19.9844 17.7773C19.9844 18.1992 19.6562 18.5391 19.2344 18.5391H11.9922Z" fill="white"/>
<path d="M8.75781 14.5312C8.19531 14.5312 7.72656 14.0508 7.72656 13.5C7.72656 12.9375 8.19531 12.4688 8.75781 12.4688C9.32031 12.4688 9.78906 12.9258 9.78906 13.5C9.78906 14.0625 9.32031 14.5312 8.75781 14.5312ZM11.9922 14.25C11.5703 14.25 11.2188 13.9102 11.2188 13.5C11.2188 13.0898 11.5703 12.7266 11.9922 12.7266H19.2344C19.6445 12.7266 19.9844 13.0898 19.9844 13.5C19.9844 13.9102 19.6445 14.25 19.2344 14.25H11.9922Z" fill="white"/>
</g>
<defs>
<clipPath id="clip0_2124_67728">
<rect width="19.7109" height="32.4727" fill="white" transform="translate(4)"/>
</clipPath>
</defs>
</svg>
