<svg width="33" height="31" viewBox="0 0 33 31" fill="none" xmlns="http://www.w3.org/2000/svg">
<g clip-path="url(#clip0_2124_46055)">
<path d="M4.0083 10.1416C4.39502 10.2119 4.80516 9.97747 4.87548 9.56732C4.95751 9.16888 4.71141 8.79389 4.30126 8.70014L0.914543 7.97358C0.48095 7.87983 0.0825121 8.16107 0.0239184 8.58294C-0.0346754 8.96966 0.223137 9.34466 0.609856 9.42669L4.0083 10.1416ZM5.19188 6.2392C5.48486 6.53217 5.96532 6.53217 6.24657 6.2392C6.52782 5.94623 6.53955 5.4892 6.24657 5.19623L3.78563 2.74702C3.48095 2.44233 3.03563 2.45405 2.74267 2.74702C2.4497 3.03998 2.43798 3.4853 2.74267 3.78998L5.19188 6.2392ZM9.56299 5.07905C9.96142 4.99702 10.2426 4.58685 10.1489 4.21186L9.42235 0.825135C9.3286 0.414979 8.93016 0.168885 8.54344 0.250916C8.14501 0.332948 7.86376 0.719666 7.95751 1.12983L8.68408 4.50483C8.77783 4.89155 9.15283 5.1728 9.56299 5.07905Z" fill="black" fill-opacity="0.85"/>
<path d="M18.2353 26.0908C21.8916 29.7353 26.4502 29.5009 29.7314 26.2314C32.3681 23.583 32.8955 20.8408 31.7822 17.5361C31.1845 15.6845 30.2119 13.7275 29.0049 11.4892C28.5361 10.5752 27.9502 9.37983 27.5517 8.99311C27.1064 8.5478 26.497 8.57123 26.0166 9.03998C25.4892 9.56733 25.5127 10.2002 25.9111 11.372L27.1885 14.9463C27.3291 15.3213 27.3056 15.5556 27.165 15.6963C27.001 15.8603 26.7783 15.8838 26.4853 15.5908L17.8017 6.89545C17.3095 6.41498 16.501 6.41498 16.0205 6.89545C15.5283 7.38764 15.5283 8.18452 16.0205 8.6767L22.2314 14.8877C21.9385 15.0283 21.6103 15.2158 21.2939 15.4267L14.0869 8.21967C13.6064 7.72748 12.7978 7.72748 12.3056 8.21967C11.8252 8.71186 11.8252 9.50873 12.3056 10.0009L19.4306 17.1142C19.1845 17.3955 18.9619 17.7002 18.751 17.9931L12.2353 11.4775C11.7431 10.9853 10.9463 10.9853 10.4541 11.4775C9.97363 11.9697 9.97363 12.7666 10.4541 13.2588L17.5439 20.3369C17.3916 20.7353 17.2978 21.1338 17.2158 21.5088L12.2939 16.5869C11.8135 16.0947 11.0049 16.0947 10.5127 16.5869C10.0322 17.0791 10.0322 17.8642 10.5127 18.3564L18.2353 26.0908Z" fill="black" fill-opacity="0.85"/>
<path d="M12.9375 27.2158C17.2382 31.5048 22.8046 31.2353 26.6953 27.3564C29.7773 24.2627 30.4101 20.9111 29.1445 17.0908C28.5117 15.0986 27.4804 13.0009 26.2617 10.7509C25.6992 9.66108 25.1015 8.44233 24.5039 7.85639C23.4257 6.77827 21.8085 6.83686 20.7304 7.90327C20.0625 8.57123 19.7695 9.36811 19.9101 10.5166L20.2265 11.2314L14.7539 5.75873C13.6406 4.65717 11.8359 4.66889 10.7226 5.75873C10.4882 6.00483 10.3007 6.27436 10.1835 6.6142L9.96094 6.45014C8.98829 6.06342 7.79297 6.28608 7.00782 7.09467C6.35157 7.76264 6.08204 8.68842 6.30469 9.49702L6.37501 9.69623C5.94141 9.78998 5.50782 10.0126 5.15626 10.3525C4.05469 11.4658 4.05469 13.2705 5.15626 14.3838L5.83594 15.0634C5.62501 15.1338 5.40235 15.2744 5.21485 15.4619C4.12501 16.5634 4.12501 18.3681 5.21485 19.4814L12.9375 27.2158Z" fill="white"/>
<path d="M14.0752 26.0908C17.7314 29.7353 22.29 29.5009 25.5713 26.2314C28.208 23.583 28.7353 20.8408 27.622 17.5361C27.0244 15.6845 26.04 13.7275 24.8447 11.4892C24.3642 10.5752 23.79 9.37983 23.3916 8.99311C22.9463 8.5478 22.3252 8.57123 21.8564 9.03998C21.3291 9.56733 21.3525 10.2002 21.751 11.372L23.0166 14.9463C23.1689 15.3213 23.1455 15.5556 23.0049 15.6963C22.8408 15.8603 22.6181 15.8838 22.3135 15.5908L13.6416 6.89545C13.1494 6.41498 12.3408 6.41498 11.8603 6.89545C11.3681 7.38764 11.3681 8.18452 11.8603 8.6767L18.0713 14.8877C17.7666 15.0283 17.4502 15.2158 17.1338 15.4267L9.92676 8.21967C9.44629 7.72748 8.63769 7.72748 8.14551 8.21967C7.66504 8.71186 7.66504 9.50873 8.14551 10.0009L15.2588 17.1142C15.0244 17.3955 14.8017 17.7002 14.5908 17.9931L8.07519 11.4775C7.58301 10.9853 6.78613 10.9853 6.29394 11.4775C5.81348 11.9697 5.81348 12.7666 6.29394 13.2588L13.372 20.3369C13.2314 20.7353 13.1377 21.1338 13.0556 21.5088L8.13379 16.5869C7.65332 16.0947 6.84473 16.0947 6.35254 16.5869C5.87207 17.0791 5.87207 17.8642 6.35254 18.3564L14.0752 26.0908Z" fill="black" fill-opacity="0.85"/>
</g>
<defs>
<clipPath id="clip0_2124_46055">
<rect width="32.3156" height="30.3256" fill="white" transform="translate(0.015625 0.0236816)"/>
</clipPath>
</defs>
</svg>
