<svg width="28" height="28" viewBox="0 0 28 28" fill="none" xmlns="http://www.w3.org/2000/svg">
<path d="M23.1523 24.457C25.625 24.457 26.832 23.2852 26.832 20.8359V15.1055C26.832 13.4297 26.3633 12.5273 25.0156 11.5078L15.9102 4.58203C14.3633 3.42188 13.168 3.01172 11.2578 3.01172H5.57422C3.20703 3.01172 2 4.20703 2 6.55078V20.8359C2 23.2852 3.19531 24.457 5.67969 24.457H23.1523ZM23.082 13.6523H5.60938C4.53125 13.6523 3.88672 13.0312 3.88672 11.9062V6.64453C3.88672 5.50781 4.51953 4.89844 5.60938 4.89844H11.2578C12.7578 4.89844 13.625 5.15625 14.6211 5.95312L23.3516 12.6328C23.832 12.9844 23.7031 13.6523 23.082 13.6523Z" fill="black" fill-opacity="0.85"/>
<path d="M7.33191 11.918H12.5468C13.1796 11.918 13.4491 11.4141 13.1093 10.8633L10.578 6.70313C10.2499 6.16407 9.6288 6.17579 9.31239 6.70313L6.7577 10.8633C6.41786 11.4141 6.71082 11.918 7.33191 11.918Z" fill="black" fill-opacity="0.85"/>
<path d="M7.33191 15.832H12.5468C13.1796 15.832 13.4491 16.3359 13.1093 16.8867L10.578 21.0469C10.2499 21.5859 9.6288 21.5742 9.31239 21.0469L6.7577 16.8867C6.41786 16.3359 6.71082 15.832 7.33191 15.832Z" fill="white"/>
</svg>
