<svg width="28" height="28" viewBox="0 0 28 28" fill="none" xmlns="http://www.w3.org/2000/svg">
<g clip-path="url(#clip0_2124_24724)">
<path d="M6.43652 18.2852C6.43652 20.1016 7.15137 21.4375 8.47559 22.1641C9.12012 22.5039 9.49512 22.9375 9.72949 23.7227L10.1045 24.9766C10.3272 25.7266 10.8545 26.0898 11.6397 26.0898H17.0537C17.8623 26.0898 18.3545 25.7383 18.5771 24.9766L18.9639 23.7227C19.1982 22.9375 19.5732 22.5039 20.2178 22.1641C21.542 21.4375 22.2568 20.1016 22.2568 18.2852V8.80469C22.2568 6.98828 21.542 5.66406 20.2178 4.92578C19.5732 4.58594 19.1982 4.15234 18.9639 3.37891L18.5771 2.11328C18.3779 1.375 17.8506 1 17.0537 1H11.6397C10.8545 1 10.3272 1.36328 10.1045 2.11328L9.72949 3.37891C9.50684 4.14062 9.13184 4.59766 8.47559 4.92578C7.16309 5.62891 6.43652 6.96484 6.43652 8.80469V18.2852ZM8.14746 18.0391V9.0625C8.14746 7.31641 9.16699 6.26172 10.8779 6.26172H17.8154C19.5264 6.26172 20.5459 7.31641 20.5459 9.0625V18.0391C20.5459 19.7734 19.5264 20.8281 17.8154 20.8281H10.8779C9.16699 20.8281 8.14746 19.7734 8.14746 18.0391ZM21.999 12.7188H22.4209C23.0303 12.7188 23.4287 12.3086 23.4287 11.6406V10.0586C23.4287 9.39062 23.0303 8.98047 22.4209 8.98047H21.999V12.7188Z" fill="black" fill-opacity="0.85"/>
<path d="M21.8701 24.25C22.7725 25.1406 24.2256 25.1406 25.0928 24.2266C25.96 23.3477 25.96 21.918 25.0811 21.0391L6.88184 2.83985C6.00293 1.96095 4.5498 1.94923 3.65918 2.83985C2.78027 3.71876 2.78027 5.1836 3.65918 6.06251L21.8701 24.25Z" fill="white"/>
<path d="M22.8428 23.2773C23.1943 23.6406 23.7686 23.6406 24.1201 23.2773C24.46 22.9258 24.4717 22.3633 24.1201 22L5.9209 3.81252C5.56934 3.46096 4.9834 3.44924 4.63184 3.81252C4.29199 4.15236 4.29199 4.75002 4.63184 5.08986L22.8428 23.2773Z" fill="black" fill-opacity="0.85"/>
</g>
<defs>
<clipPath id="clip0_2124_24724">
<rect width="22.7417" height="25.0898" fill="white" transform="translate(3 1)"/>
</clipPath>
</defs>
</svg>
