<svg width="28" height="30" viewBox="0 0 28 30" fill="none" xmlns="http://www.w3.org/2000/svg">
<path d="M15.7769 5.12109C17.1831 5.12109 18.3316 3.98438 18.3316 2.54297C18.3316 1.13672 17.1831 0 15.7769 0C14.3589 0 13.2105 1.13672 13.2105 2.54297C13.2105 3.98438 14.3589 5.12109 15.7769 5.12109ZM4.37453 19.2305H12.0972C13.1753 19.2305 13.6441 18.0352 13.0347 17.2969L10.6206 14.332L17.5347 13.875H24.0269C24.6831 13.875 25.2339 13.3477 25.2339 12.6914C25.2339 12.0469 24.6831 11.4961 24.0269 11.4961H12.0152L14.8511 8.64844C14.98 8.53125 15.1441 8.44922 15.3198 8.47266L23.8277 9.57422C24.5191 9.65625 25.1519 9.12891 25.1519 8.40234C25.1519 7.81641 24.7183 7.30078 24.1206 7.23047L6.30812 4.98047C5.93312 4.93359 5.59328 5.0625 5.32374 5.30859L2.34718 8.28516C1.87843 8.75391 1.89015 9.46875 2.34718 9.94922C2.76906 10.3945 3.54249 10.4414 4.02296 9.94922L6.58937 7.39453L9.36671 7.74609C9.62453 7.76953 9.72999 8.05078 9.54249 8.23828L6.91749 10.8281C5.89796 11.8359 5.83937 13.4648 6.91749 14.543L9.21437 16.8633H4.37453C3.71828 16.8633 3.19093 17.3906 3.19093 18.0469C3.19093 18.6914 3.71828 19.2305 4.37453 19.2305ZM15.9058 29.4023C16.2691 29.4023 16.5503 29.1211 16.5503 28.7578V16.5469C16.5503 16.1836 16.2691 15.9023 15.9058 15.9023C15.5425 15.9023 15.2495 16.1836 15.2495 16.5469V28.7578C15.2495 29.1211 15.5425 29.4023 15.9058 29.4023Z" fill="black" fill-opacity="0.85"/>
</svg>
