<svg width="28" height="28" viewBox="0 0 28 28" fill="none" xmlns="http://www.w3.org/2000/svg">
<g clip-path="url(#clip0_2124_24776)">
<path d="M13.0391 4.08202C10.332 4.10546 8 6.33202 8 9.36718C8 12.5078 12.4648 16.2695 15.7109 16.2812C18.0547 16.293 20.9375 14.0195 20.9375 11.1367C20.9375 7.65624 16.6367 4.05859 13.0391 4.08202ZM16.8242 14.6641C16.1914 14.6641 16.1562 13.8437 16.7891 12.8242C17.4102 11.7812 18.4297 10.9727 19.0742 10.9727C19.7188 10.9727 19.7539 11.7812 19.1211 12.8242C18.5 13.8437 17.4805 14.6641 16.8242 14.6641ZM13.5664 9.43749C13.2031 9.95311 12.5 10.0703 11.9609 9.68358L10.332 8.52343C9.80469 8.13671 9.69922 7.45702 10.0977 6.9414C10.4492 6.41405 11.1523 6.28515 11.668 6.66015L13.2969 7.84374C13.8125 8.20702 13.9297 8.91015 13.5664 9.43749ZM12.4766 24.6133C13.2031 24.6133 13.6836 24.2383 13.6836 23.5234V17.0547C12.3125 16.6211 10.9531 15.8008 9.80469 14.7695V23.5234C9.80469 24.2383 10.2734 24.6133 11 24.6133H12.4766Z" fill="black" fill-opacity="0.85"/>
</g>
<defs>
<clipPath id="clip0_2124_24776">
<rect width="12.9375" height="20.6133" fill="white" transform="translate(8 4)"/>
</clipPath>
</defs>
</svg>
