<svg width="28" height="29" viewBox="0 0 28 29" fill="none" xmlns="http://www.w3.org/2000/svg">
<path d="M13.7624 27.9961C17.0788 27.9961 19.9733 24.4336 19.9733 20.6016C19.9733 18.1289 18.5671 17.0508 16.4694 16.5586V16.4414C17.8639 15.7617 18.0866 13.3594 16.8327 12.5156V12.3984C18.8366 12.0469 19.8327 10.8281 19.8327 9.04688C19.8327 5.71875 17.0905 2.96484 13.7624 2.96484C10.446 2.96484 7.69206 5.71875 7.69206 9.04688C7.69206 10.8281 8.69987 12.0469 10.7038 12.3984V12.5156C9.44987 13.3594 9.67253 15.7617 11.0671 16.4414V16.5586C8.99284 17.0508 7.56315 18.1289 7.56315 20.6016C7.56315 24.4336 10.4577 27.9961 13.7624 27.9961ZM13.7624 26.0391C11.3483 26.0391 9.47331 23.2031 9.47331 20.8477C9.47331 19.2773 10.3874 18.3281 12.1452 18.3281H15.3913C17.1491 18.3281 18.0514 19.2773 18.0514 20.8477C18.0514 23.2031 16.1882 26.0391 13.7624 26.0391ZM11.6413 14.2031C11.6413 13.125 12.2975 12.5039 13.4342 12.5039C13.6569 12.5039 13.8913 12.5039 14.1139 12.5039C15.2389 12.5039 15.8835 13.125 15.8835 14.2031C15.8835 15.5273 14.9811 16.6523 13.903 16.6523C13.8092 16.6523 13.7155 16.6523 13.6335 16.6523C12.5553 16.6523 11.6413 15.5273 11.6413 14.2031ZM11.653 10.6758C10.3639 10.6758 9.62565 10.0547 9.62565 8.97656C9.62565 6.79688 11.5592 4.91016 13.7624 4.91016C15.9655 4.91016 17.9108 6.79688 17.9108 8.97656C17.9108 10.0547 17.1608 10.6758 15.8835 10.6758H11.653ZM5.93425 27.2812C6.48503 27.2812 6.89518 26.8828 6.78972 26.2148L5.93425 20.6016C5.81706 19.8984 6.06315 19.582 6.87175 19.3594L11.0671 18.2344V16.5586L5.88737 17.7891C4.37565 18.1523 3.82487 18.8906 4.04753 20.2617L5.00847 26.3438C5.0905 26.9297 5.36003 27.2812 5.93425 27.2812ZM21.6022 27.2812C22.1764 27.2812 22.4342 26.9297 22.528 26.3438L23.4889 20.2617C23.7116 18.8906 23.1491 18.1523 21.6491 17.7891L16.4694 16.5586V18.2344L20.6647 19.3594C21.4733 19.582 21.7077 19.8984 21.6022 20.6016L20.7467 26.2148C20.6413 26.8828 21.0514 27.2812 21.6022 27.2812ZM10.8913 15.3047V13.5469L7.45768 13.0547C6.68425 12.9375 6.25065 12.6797 6.25065 11.8477V8.15625C6.25065 7.59375 5.92253 7.25391 5.36003 7.25391C4.79753 7.25391 4.4694 7.58203 4.4694 8.15625V12.2109C4.4694 13.6523 5.12565 14.4727 6.5905 14.6719L10.8913 15.3047ZM16.6452 15.3047L20.946 14.6719C22.4108 14.4727 23.0671 13.6523 23.0671 12.2109V8.15625C23.0671 7.58203 22.7389 7.25391 22.1764 7.25391C21.6139 7.25391 21.2858 7.59375 21.2858 8.15625V11.8477C21.2858 12.6797 20.8405 12.9375 20.0788 13.0547L16.6452 13.5469V15.3047ZM10.2702 5.84766L11.2546 4.60547L10.3405 3.94922C9.75456 3.52734 9.70768 2.96484 10.1178 2.29688L10.7272 1.37109C10.8561 1.13672 10.8913 1.01953 10.8913 0.808594C10.8913 0.351562 10.528 0 10.0475 0C9.68425 0 9.42643 0.175781 9.20378 0.574219L8.51237 1.71094C7.77409 3.01172 7.98503 4.21875 9.12175 5.03906L10.2702 5.84766ZM17.2897 5.85938L18.4616 5.03906C19.5983 4.21875 19.8092 3.01172 19.071 1.71094L18.3796 0.574219C18.1569 0.175781 17.8991 0 17.5358 0C17.0436 0 16.6921 0.351562 16.6921 0.808594C16.6921 1.01953 16.7272 1.13672 16.8561 1.37109L17.4655 2.29688C17.8757 2.96484 17.8288 3.52734 17.2428 3.94922L16.3053 4.61719L17.2897 5.85938Z" fill="black" fill-opacity="0.85"/>
</svg>
