<svg width="28" height="28" viewBox="0 0 28 28" fill="none" xmlns="http://www.w3.org/2000/svg">
<path d="M1.05469 24.9727C1.64062 24.9727 2.12109 24.4922 2.12109 23.918V15.0469H8.29688V23.918C8.29688 24.4922 8.78906 24.9727 9.36328 24.9727C9.9375 24.9727 10.418 24.4922 10.418 23.918V15.0469H16.5938V23.918C16.5938 24.4922 17.0859 24.9727 17.6602 24.9727C18.2344 24.9727 18.7148 24.4922 18.7148 23.918V15.0469H24.8906V23.918C24.8906 24.4922 25.3828 24.9727 25.957 24.9727C26.5312 24.9727 27.0117 24.4922 27.0117 23.918V13.9922C27.0117 13.418 26.5312 12.9258 25.957 12.9258H18.7148V4.06641C18.7148 3.49219 18.2344 3 17.6602 3C17.0859 3 16.5938 3.49219 16.5938 4.06641V12.9258H10.418V4.06641C10.418 3.49219 9.9375 3 9.36328 3C8.78906 3 8.29688 3.49219 8.29688 4.06641V12.9258H2.12109V4.06641C2.12109 3.49219 1.64062 3 1.05469 3C0.480469 3 0 3.49219 0 4.06641V23.918C0 24.4922 0.480469 24.9727 1.05469 24.9727Z" fill="black" fill-opacity="0.85"/>
</svg>
