<svg width="28" height="28" viewBox="0 0 28 28" fill="none" xmlns="http://www.w3.org/2000/svg">
<path d="M13.9531 25.9062C20.4922 25.9062 25.9062 20.4805 25.9062 13.9531C25.9062 7.41406 20.4805 2 13.9414 2C7.41406 2 2 7.41406 2 13.9531C2 20.4805 7.42578 25.9062 13.9531 25.9062ZM13.9531 23.9141C8.42188 23.9141 4.00391 19.4844 4.00391 13.9531C4.00391 8.42188 8.41016 3.99219 13.9414 3.99219C19.4727 3.99219 23.9141 8.42188 23.9141 13.9531C23.9141 19.4844 19.4844 23.9141 13.9531 23.9141Z" fill="black" fill-opacity="0.85"/>
<path d="M7.51964 14.9374L12.4298 14.9491C12.6524 14.9491 12.8048 15.0897 12.8048 15.3241V20.1757C12.8048 21.2187 13.9063 21.3241 14.2579 20.5741L19.461 9.4765C19.8946 8.57416 19.1095 7.80072 18.1954 8.23432L7.13292 13.4843C6.3712 13.8476 6.48839 14.9374 7.51964 14.9374Z" fill="black" fill-opacity="0.85"/>
<path d="M18.6503 20.5742C19.1894 21.1016 20.0566 21.1133 20.5722 20.5742C21.123 20.0352 21.1113 19.2031 20.5722 18.6641L9.22852 7.32031C8.68946 6.78125 7.83399 6.78125 7.30664 7.32031C6.76758 7.84766 6.76758 8.71484 7.30664 9.24219L18.6503 20.5742Z" fill="white"/>
<path d="M19.2398 20C19.439 20.1992 19.7906 20.1992 19.9898 20C20.2007 19.7773 20.2007 19.4609 19.9898 19.25L8.65775 7.90625C8.44681 7.69531 8.10697 7.69531 7.89603 7.90625C7.68509 8.10547 7.69681 8.45703 7.89603 8.65625L19.2398 20Z" fill="black" fill-opacity="0.85"/>
</svg>
