<svg width="28" height="28" viewBox="0 0 28 28" fill="none" xmlns="http://www.w3.org/2000/svg">
<path d="M6.67969 24.5977H20.8945C23.3555 24.5977 24.5742 23.3789 24.5742 20.9648V6.65625C24.5742 4.24219 23.3555 3.02344 20.8945 3.02344H6.67969C4.23047 3.02344 3 4.23047 3 6.65625V20.9648C3 23.3906 4.23047 24.5977 6.67969 24.5977Z" fill="black" fill-opacity="0.85"/>
<path d="M13.9922 20.9297C13.6641 20.9297 13.4062 20.6836 13.4062 20.332V19.5234H11.5898C11.0273 19.5234 10.6406 19.1367 10.6406 18.5742V9.23438C10.6406 8.66016 11.0391 8.27344 11.5898 8.27344H13.4062V7.35938C13.4062 7.01953 13.6641 6.77344 13.9922 6.77344C14.332 6.77344 14.5781 7.01953 14.5781 7.35938V8.27344H14.7422C16.6055 8.27344 17.8711 9.48047 17.8711 11.1562C17.8711 12.1875 17.2383 13.1367 16.3477 13.5703C17.6016 13.9453 18.4102 14.9648 18.4102 16.3359C18.4102 18.293 16.9922 19.5234 14.7422 19.5234H14.5781V20.332C14.5781 20.6836 14.332 20.9297 13.9922 20.9297ZM12.1992 18.1055L13.4062 18.0938V14.4375H12.1992V18.1055ZM14.5781 18.082C16.1016 18.0234 16.8633 17.4023 16.8633 16.2656C16.8633 15.1523 16.1016 14.5312 14.5781 14.4492V18.082ZM12.1992 13.0312H13.4062V9.67969H12.1992V13.0312ZM14.5781 12.9609C15.7266 12.8086 16.3008 12.2227 16.3008 11.2734C16.3008 10.3477 15.7031 9.80859 14.5781 9.71484V12.9609Z" fill="white"/>
</svg>
