<svg width="28" height="28" viewBox="0 0 28 28" fill="none" xmlns="http://www.w3.org/2000/svg">
<g clip-path="url(#clip0_2124_24751)">
<path d="M2.74787 16.0352H3.81428V13.6797H2.74787V16.0352ZM8.29084 27.0742C9.75569 27.0742 10.4354 25.7266 9.6385 24.2969L5.25569 16.5508C4.88069 15.9062 4.31819 15.6133 3.61506 15.6133C2.5135 15.6133 1.91584 16.4336 2.00959 17.5234C2.24397 18.918 3.18147 21.1445 4.31819 22.9727C6.11116 26.0078 7.15412 27.0742 8.29084 27.0742ZM25.3768 16.0352V13.6797H24.3104V16.0352H25.3768ZM19.8338 27.0742C20.9705 27.0742 22.0135 26.0078 23.8065 22.9727C24.9315 21.1445 25.8807 18.918 26.1151 17.5234C26.2088 16.4336 25.6112 15.6133 24.5096 15.6133C23.8065 15.6133 23.244 15.9062 22.869 16.5508L18.4862 24.2969C17.6776 25.7266 18.369 27.0742 19.8338 27.0742ZM2.34944 13.4805C2.34944 14.0312 2.701 14.3711 3.25178 14.3711C3.80256 14.3711 4.13069 14.0312 4.13069 13.4805C4.18928 7.16406 7.951 3.15625 14.0565 3.15625C20.1737 3.15625 23.9237 7.16406 23.9822 13.4805C23.9822 14.0312 24.3221 14.3711 24.8729 14.3711C25.4237 14.3711 25.7635 14.0312 25.7635 13.4805C25.7635 6.29688 21.3455 1.36328 14.0565 1.36328C6.76741 1.36328 2.34944 6.29688 2.34944 13.4805Z" fill="black" fill-opacity="0.85"/>
<path d="M11.7946 24.7539C12.5445 24.3203 12.7438 23.3477 12.2633 22.5156L8.31411 15.543C7.83364 14.7109 6.89614 14.4062 6.15786 14.8398C5.70083 15.0859 5.59536 15.5195 5.82974 15.9297L10.6813 24.4609C10.9274 24.8828 11.3493 25 11.7946 24.7539ZM16.3297 24.7539C16.775 25 17.1969 24.8828 17.4313 24.4609L22.2828 15.9297C22.5289 15.5195 22.4235 15.0859 21.9664 14.8398C21.2164 14.4062 20.2906 14.7109 19.7985 15.543L15.8492 22.5156C15.3688 23.3477 15.5797 24.3203 16.3297 24.7539ZM7.21255 7.23438C9.13442 6.19141 11.3844 5.67578 14.0563 5.67578C16.7399 5.67578 18.9899 6.19141 20.9 7.23438C19.3649 5.26562 17.1735 4.28125 14.0563 4.28125C10.9508 4.28125 8.75942 5.26562 7.21255 7.23438Z" fill="black" fill-opacity="0.85"/>
</g>
<defs>
<clipPath id="clip0_2124_24751">
<rect width="24.1247" height="26.0742" fill="white" transform="translate(2 1)"/>
</clipPath>
</defs>
</svg>
