<svg width="28" height="28" viewBox="0 0 28 28" fill="none" xmlns="http://www.w3.org/2000/svg">
<g clip-path="url(#clip0_2124_24677)">
<path d="M7.24609 27.4023H20.3359C22.2812 27.4023 23.582 26.1602 23.582 24.3086V4.10547C23.582 2.25391 22.2812 1 20.3359 1H7.24609C5.30078 1 4 2.25391 4 4.10547V24.3086C4 26.1602 5.30078 27.4023 7.24609 27.4023ZM5.88672 23.4297V4.98438H21.6953V23.4297H5.88672ZM13.8086 26.2422C13.2344 26.2422 12.7891 25.7852 12.7891 25.2227C12.7891 24.6719 13.2344 24.2148 13.8086 24.2148C14.3594 24.2148 14.8164 24.6719 14.8164 25.2227C14.8164 25.7852 14.3594 26.2422 13.8086 26.2422ZM13.7852 3.78906C13.4336 3.78906 13.1523 3.49609 13.1523 3.14453C13.1523 2.80469 13.4336 2.5 13.7852 2.5C14.1367 2.5 14.4297 2.80469 14.4297 3.14453C14.4297 3.49609 14.1367 3.78906 13.7852 3.78906Z" fill="black" fill-opacity="0.85"/>
</g>
<defs>
<clipPath id="clip0_2124_24677">
<rect width="19.582" height="26.4258" fill="white" transform="translate(4 1)"/>
</clipPath>
</defs>
</svg>
