<svg width="28" height="28" viewBox="0 0 28 28" fill="none" xmlns="http://www.w3.org/2000/svg">
<path d="M7.67969 25.5781H21.4727C23.5703 25.5781 24.8008 24.3594 24.8008 21.9453V9.81641C24.8008 7.40234 23.5586 6.18359 21.1211 6.18359H7.67969C5.23047 6.18359 4 7.39062 4 9.81641V21.9453C4 24.3711 5.23047 25.5781 7.67969 25.5781ZM7.70312 23.6914C6.53125 23.6914 5.88672 23.0703 5.88672 21.8516V9.91016C5.88672 8.69141 6.53125 8.07031 7.70312 8.07031H21.0859C22.2461 8.07031 22.9141 8.69141 22.9141 9.91016V21.8516C22.9141 23.0703 22.2461 23.6914 21.4375 23.6914H7.70312ZM9.77734 6.64062L11.6641 6.65234C11.6641 4.97656 12.7656 3.78125 14.3945 3.78125C16.0234 3.78125 17.1367 4.97656 17.1367 6.65234L19.0234 6.64062C19.0234 4.05078 17.0195 2 14.3945 2C11.7695 2 9.77734 4.05078 9.77734 6.64062Z" fill="black" fill-opacity="0.85"/>
</svg>
