<svg width="28" height="30" viewBox="0 0 28 30" fill="none" xmlns="http://www.w3.org/2000/svg">
<path d="M14.4883 0.173828C10.3164 0.173828 7 3.49024 7 7.63868C7 10.7675 8.875 13.5332 11.8047 14.6464V26.2128C11.8047 26.5058 11.8984 26.7285 12.1094 26.9511L14.0664 28.9199C14.2656 29.1191 14.6641 29.1777 14.9102 28.9316L18.625 25.2168C18.8711 24.9589 18.8594 24.6191 18.625 24.373L16.3164 22.0996L19.4805 18.9472C19.7031 18.7128 19.7031 18.373 19.457 18.1152L16.3281 14.9628C19.9492 13.5214 21.9648 10.8496 21.9648 7.63868C21.9648 3.51368 18.625 0.173828 14.4883 0.173828ZM14.4883 7.04102C13.3984 7.04102 12.5312 6.16211 12.5312 5.08399C12.5312 3.99414 13.3867 3.12696 14.4883 3.12696C15.5664 3.12696 16.4453 3.99414 16.4453 5.08399C16.4453 6.16211 15.5664 7.04102 14.4883 7.04102Z" fill="black" fill-opacity="0.85"/>
</svg>
