<svg width="28" height="28" viewBox="0 0 28 28" fill="none" xmlns="http://www.w3.org/2000/svg">
<path d="M14.2773 27.7852C20.4648 27.7852 24.5781 23.5664 24.5781 17.2031C24.5781 13.6875 23.0195 10.0898 20.5352 7.91019C20.5117 4.66409 18.0391 2.70706 14.2773 2.70706C10.5156 2.70706 8.05469 4.67581 8.03125 7.92191C5.54688 10.1016 3.98828 13.6406 3.98828 17.2031C3.98828 23.5664 8.10156 27.7852 14.2773 27.7852ZM14.2773 10.6992C16.3516 10.6992 18.4023 10.3008 19.7383 9.70315C21.1914 11.2148 22.7383 13.875 22.7383 17.2031C22.7383 22.4531 19.3516 25.957 14.2773 25.957C9.20312 25.957 5.81641 22.4531 5.81641 17.2031C5.81641 13.8867 7.35156 11.2383 8.82812 9.70315C10.1641 10.3008 12.2148 10.6992 14.2773 10.6992ZM13.4688 26.4727H15.0039V12.9023C15.0039 12.4805 14.6523 12.1406 14.2305 12.1406C13.8086 12.1406 13.4688 12.4805 13.4688 12.9023V26.4727ZM10.5391 14.8008C11.3594 14.8008 12.0156 14.1211 12.0156 13.3125C12.0156 12.5039 11.3594 11.8359 10.5391 11.8359C9.73047 11.8359 9.07422 12.5039 9.07422 13.3125C9.07422 14.1211 9.73047 14.8008 10.5391 14.8008ZM9.14453 19.4414C10.082 19.4414 10.8555 18.668 10.8555 17.7188C10.8555 16.7695 10.082 15.9961 9.14453 15.9961C8.18359 15.9961 7.41016 16.7695 7.41016 17.7188C7.41016 18.668 8.18359 19.4414 9.14453 19.4414ZM10.5391 23.4492C11.3008 23.4492 11.9102 22.8398 11.9102 22.0898C11.9102 21.3281 11.3008 20.7188 10.5391 20.7188C9.78906 20.7188 9.17969 21.3281 9.17969 22.0898C9.17969 22.8398 9.78906 23.4492 10.5391 23.4492ZM18.0273 14.8008C18.8359 14.8008 19.4922 14.1211 19.4922 13.3125C19.4922 12.5039 18.8359 11.8359 18.0273 11.8359C17.207 11.8359 16.5508 12.5039 16.5508 13.3125C16.5508 14.1211 17.207 14.8008 18.0273 14.8008ZM19.4219 19.4414C20.3711 19.4414 21.1562 18.668 21.1562 17.7188C21.1562 16.7695 20.3711 15.9961 19.4219 15.9961C18.4844 15.9961 17.6992 16.7695 17.6992 17.7188C17.6992 18.668 18.4844 19.4414 19.4219 19.4414ZM18.0273 23.4492C18.7773 23.4492 19.3867 22.8398 19.3867 22.0898C19.3867 21.3281 18.7773 20.7188 18.0273 20.7188C17.2656 20.7188 16.6562 21.3281 16.6562 22.0898C16.6562 22.8398 17.2656 23.4492 18.0273 23.4492ZM9.12109 1.94534L9.91797 2.23831C10.4219 2.41409 10.6211 2.68362 10.5273 3.1055L10.3867 3.69144L12.1094 3.67972L12.1914 3.08206C12.3203 1.94534 11.793 1.10159 10.6328 0.691436L9.70703 0.316436C8.54688 -0.0820011 7.99609 1.61722 9.12109 1.94534ZM19.4453 1.94534C20.5703 1.61722 20.0195 -0.0820011 18.8594 0.316436L17.9336 0.691436C16.7734 1.10159 16.2461 1.94534 16.375 3.08206L16.457 3.67972L18.1797 3.69144L18.0391 3.1055C17.9453 2.68362 18.1445 2.41409 18.6484 2.23831L19.4453 1.94534ZM6.97656 10.0898L4.79688 8.23831C4.36328 7.87503 3.80078 7.82815 3.4375 8.26175C3.08594 8.68362 3.21484 9.25784 3.64844 9.60941L5.86328 11.4727L6.97656 10.0898ZM4.84375 15.6211L1.96094 15.6328C1.375 15.6328 1 15.9961 1 16.5234C1 17.0625 1.375 17.4258 1.97266 17.4258L4.84375 17.4141V15.6211ZM5.79297 22.4766L3.60156 24.3164C3.17969 24.668 3.05078 25.2305 3.40234 25.6641C3.76562 26.0977 4.31641 26.0508 4.76172 25.6875L6.91797 23.8594L5.79297 22.4766ZM21.5781 10.0898L22.7031 11.4727L24.918 9.60941C25.3398 9.25784 25.4805 8.68362 25.1289 8.26175C24.7656 7.82815 24.2031 7.87503 23.7695 8.23831L21.5781 10.0898ZM23.7227 15.6211V17.4141L26.5938 17.4258C27.1797 17.4258 27.5664 17.0625 27.5664 16.5234C27.5664 15.9961 27.1797 15.6328 26.6055 15.6328L23.7227 15.6211ZM22.7617 22.4766L21.6367 23.8477L23.8047 25.6875C24.2383 26.0508 24.8008 26.0977 25.1641 25.6641C25.5156 25.2305 25.3867 24.668 24.9531 24.3164L22.7617 22.4766Z" fill="black" fill-opacity="0.85"/>
</svg>
