<svg width="28" height="28" viewBox="0 0 28 28" fill="none" xmlns="http://www.w3.org/2000/svg">
<path d="M13.9531 25.9062C20.4922 25.9062 25.9062 20.4805 25.9062 13.9531C25.9062 7.41406 20.4805 2 13.9414 2C7.41406 2 2 7.41406 2 13.9531C2 20.4805 7.42578 25.9062 13.9531 25.9062ZM13.9531 23.9141C8.42188 23.9141 4.00391 19.4844 4.00391 13.9531C4.00391 8.42188 8.41016 3.99219 13.9414 3.99219C19.4727 3.99219 23.9141 8.42188 23.9141 13.9531C23.9141 19.4844 19.4844 23.9141 13.9531 23.9141Z" fill="black" fill-opacity="0.85"/>
<path d="M10.2148 13.9531C10.2148 16.0039 11.9141 17.7031 13.9531 17.7031C14.5273 17.7031 15.0664 17.5508 15.5234 17.2812C14.4336 19.0859 12.418 20.1406 9.99219 20.1406C9.59375 20.1406 9.3125 20.4453 9.3125 20.8086C9.3125 21.1719 9.59375 21.4766 9.99219 21.4766C14.3047 21.4766 17.6914 18.5234 17.6914 13.9531C17.6914 11.9023 15.9922 10.2031 13.9531 10.2031C13.3789 10.2031 12.8398 10.3555 12.3828 10.625C13.4727 8.82031 15.4883 7.76562 17.9258 7.76562C18.3125 7.76562 18.5938 7.46094 18.5938 7.08594C18.5938 6.72266 18.3008 6.42969 17.9258 6.42969C13.6016 6.42969 10.2148 9.38281 10.2148 13.9531ZM12.793 13.9531C12.793 13.3203 13.3203 12.793 13.9531 12.793C14.5859 12.793 15.1133 13.3203 15.1133 13.9531C15.1133 14.5742 14.5859 15.1133 13.9531 15.1133C13.3203 15.1133 12.793 14.5859 12.793 13.9531Z" fill="black" fill-opacity="0.85"/>
</svg>
