<svg width="28" height="28" viewBox="0 0 28 28" fill="none" xmlns="http://www.w3.org/2000/svg">
<g clip-path="url(#clip0_2124_24698)">
<path d="M7.24609 27.4023H20.3359C22.2812 27.4023 23.582 26.1602 23.582 24.3086V4.10547C23.582 2.25391 22.2812 1 20.3359 1H7.24609C5.30078 1 4 2.25391 4 4.10547V24.3086C4 26.1602 5.30078 27.4023 7.24609 27.4023Z" fill="black" fill-opacity="0.85"/>
<path d="M13.7852 20.207C10.4805 20.207 7.78516 17.5234 7.78516 14.1953C7.78516 10.8906 10.4805 8.20703 13.7852 8.20703C17.1016 8.20703 19.7969 10.8906 19.7969 14.1953C19.7969 17.5234 17.1016 20.207 13.7852 20.207Z" fill="white"/>
</g>
<defs>
<clipPath id="clip0_2124_24698">
<rect width="19.582" height="26.4258" fill="white" transform="translate(4 1)"/>
</clipPath>
</defs>
</svg>
