<svg width="28" height="28" viewBox="0 0 28 28" fill="none" xmlns="http://www.w3.org/2000/svg">
<path d="M9.23438 24.0352H18.3984C25.1953 24.0352 27.6328 21.5156 27.6328 15.2461V11.8008C27.6328 5.53125 25.1953 3 18.3984 3H9.23438C2.4375 3 0 5.53125 0 11.8008V15.2461C0 21.5156 2.4375 24.0352 9.23438 24.0352Z" fill="black" fill-opacity="0.85"/>
<path d="M6.87891 18.5859C6.39844 18.5859 6.09375 18.2578 6.09375 17.7422V9.73828C6.09375 8.96484 6.58594 8.49609 7.34766 8.49609C8.01562 8.49609 8.41406 8.83595 8.58984 9.51562L10.2422 16.0898H10.3008L11.9297 9.51562C12.1055 8.83595 12.4922 8.49609 13.1953 8.49609C13.957 8.49609 14.4492 8.94141 14.4492 9.73828V17.7422C14.4492 18.2578 14.168 18.5859 13.6523 18.5859C13.1602 18.5859 12.8672 18.2578 12.8672 17.7422V11.2266H12.8086L11.168 17.5898C11.0391 18.082 10.7812 18.4102 10.2773 18.4102C9.79688 18.4102 9.49219 18.0703 9.38672 17.6016L7.74609 11.2266H7.67578V17.7422C7.67578 18.2578 7.37109 18.5859 6.87891 18.5859ZM16.8398 18.4102C16.2773 18.4102 16.0195 18.1172 16.0195 17.707C16.0195 17.3203 16.2422 17.0273 16.4648 16.7344L18.5625 14.0625C19.1953 13.2422 19.875 12.2578 19.875 11.2852C19.875 10.4297 19.4648 9.79688 18.75 9.79688C18.0469 9.79688 17.7656 10.3008 17.5312 11.1094C17.4023 11.5078 17.1562 11.6953 16.7578 11.6953C16.2891 11.6953 16.0312 11.3789 16.0312 10.9219C16.0312 9.66797 17.2031 8.39062 18.75 8.39062C20.4141 8.39062 21.5273 9.57422 21.5273 11.2031C21.5273 12.2695 21.1289 13.1602 19.9219 14.6602L18.1641 16.8867V16.9922H21.0352C21.4453 16.9922 21.7148 17.2383 21.7148 17.707C21.7148 18.1289 21.457 18.4102 21.0352 18.4102H16.8398Z" fill="white"/>
</svg>
