<svg width="28" height="31" viewBox="0 0 28 31" fill="none" xmlns="http://www.w3.org/2000/svg">
<path d="M9.01172 8.16797L3.28125 13.8633C2.90625 14.25 2.90625 14.8711 3.28125 15.2578C3.66797 15.6328 4.28906 15.6445 4.67578 15.2578L9.01172 10.9219V8.16797ZM16.5703 30.2578C22.4883 30.2578 25.0078 28.957 25.0078 25.7695V5.42578C25.0078 2.00391 21.9023 0 16.5703 0C11.25 0 8.13281 2.00391 8.13281 5.42578V25.7695C8.13281 28.957 10.6641 30.2578 16.5703 30.2578ZM16.5703 28.3125C12.0469 28.3125 10.0898 27.5508 10.0898 25.6758V5.42578C10.0898 3.23438 12.4805 1.95703 16.5703 1.95703C20.6719 1.95703 23.0508 3.23438 23.0508 5.42578V25.6758C23.0508 27.5508 21.1055 28.3125 16.5703 28.3125ZM16.582 12.5859C17.625 12.5859 19.4062 12.668 19.9922 12.668C20.8828 12.668 21.2578 12.3281 21.3398 11.4141L21.5273 9.21094C21.6797 7.52344 20.4961 6.84375 16.582 6.84375C12.6562 6.84375 11.4727 7.52344 11.625 9.21094L11.8125 11.4141C11.8945 12.3281 12.2812 12.668 13.1602 12.668C13.7578 12.668 15.4688 12.5859 16.582 12.5859ZM16.582 25.0898C20.5195 25.0898 21.7266 24.5039 21.4805 22.7812L21.3281 21.7148C21.1406 20.3086 19.9688 19.8398 16.582 19.8398C13.1836 19.8398 12.0117 20.3086 11.8242 21.7148L11.6719 22.7812C11.4258 24.5039 12.6328 25.0898 16.582 25.0898ZM9.01172 17.0273L3.28125 22.7227C2.90625 23.0977 2.90625 23.7305 3.28125 24.1172C3.66797 24.4922 4.28906 24.5039 4.67578 24.1172L9.01172 19.7812V17.0273Z" fill="black" fill-opacity="0.85"/>
</svg>
