<svg width="28" height="28" viewBox="0 0 28 28" fill="none" xmlns="http://www.w3.org/2000/svg">
<path d="M13.9531 25.9062C20.4922 25.9062 25.9062 20.4805 25.9062 13.9531C25.9062 7.41406 20.4805 2 13.9414 2C7.41406 2 2 7.41406 2 13.9531C2 20.4805 7.42578 25.9062 13.9531 25.9062ZM13.9531 23.9141C8.42188 23.9141 4.00391 19.4844 4.00391 13.9531C4.00391 8.42188 8.41016 3.99219 13.9414 3.99219C19.4727 3.99219 23.9141 8.42188 23.9141 13.9531C23.9141 19.4844 19.4844 23.9141 13.9531 23.9141Z" fill="black" fill-opacity="0.85"/>
<path d="M8.11719 18.9922C8.38672 18.9922 8.67969 18.9219 8.89062 18.5234C9.99219 16.4609 11.5273 15.8398 13.9766 15.8398H14.1641V18.2539C14.1641 18.6758 14.4688 18.9922 14.8906 18.9922C15.207 18.9922 15.4531 18.8516 15.7461 18.582L20.7266 13.8945C20.9727 13.6719 21.0547 13.4258 21.0547 13.2148C21.0547 13.0039 20.9727 12.7578 20.7266 12.5352L15.7461 7.88281C15.418 7.57812 15.2188 7.4375 14.9023 7.4375C14.4688 7.4375 14.1641 7.78906 14.1641 8.21094V10.6016H13.9766C9.46484 10.6016 7.47266 13.4844 7.47266 18.1484C7.47266 18.6992 7.78906 18.9922 8.11719 18.9922Z" fill="black" fill-opacity="0.85"/>
</svg>
