<svg width="28" height="30" viewBox="0 0 28 30" fill="none" xmlns="http://www.w3.org/2000/svg">
<g clip-path="url(#clip0_2124_50023)">
<path d="M15.5078 24.3047C15.5078 25.8633 16.3867 26.7422 17.9453 26.7422H21.9531C23.5117 26.7422 24.4023 25.8633 24.4023 24.293V5.01562C24.4023 3.44531 23.5117 2.56641 21.9531 2.56641H17.9453C16.3867 2.56641 15.5078 3.44531 15.5078 5.00391V24.3047ZM17.2773 24.1406V5.16797C17.2773 4.62891 17.5938 4.33594 18.1328 4.33594H21.7891C22.3281 4.33594 22.6328 4.62891 22.6328 5.16797V24.1406C22.6328 24.668 22.3281 24.9727 21.7891 24.9727H18.1328C17.5938 24.9727 17.2773 24.668 17.2773 24.1406ZM17.3594 25.875V28.5C17.3594 28.9336 17.6992 29.2617 18.1328 29.2617C18.5664 29.2617 18.9062 28.9336 18.9062 28.5V25.875H17.3594ZM21.0039 25.875V28.5C21.0039 28.9336 21.332 29.2617 21.7656 29.2617C22.1992 29.2617 22.5508 28.9336 22.5508 28.5V25.875H21.0039ZM19.9492 8.23828C20.5469 8.23828 21.0156 7.75781 21.0156 7.17188C21.0156 6.58594 20.5469 6.10547 19.9492 6.10547C19.3633 6.10547 18.8945 6.58594 18.8945 7.17188C18.8945 7.75781 19.3633 8.23828 19.9492 8.23828ZM19.9492 11.9766C20.5469 11.9766 21.0156 11.4961 21.0156 10.9102C21.0156 10.3242 20.5469 9.84375 19.9492 9.84375C19.3633 9.84375 18.8945 10.3242 18.8945 10.9102C18.8945 11.4961 19.3633 11.9766 19.9492 11.9766ZM19.9492 15.7031C20.5469 15.7031 21.0156 15.2344 21.0156 14.6484C21.0156 14.0625 20.5469 13.582 19.9492 13.582C19.3633 13.582 18.8945 14.0625 18.8945 14.6484C18.8945 15.2344 19.3633 15.7031 19.9492 15.7031ZM19.9492 19.4414C20.5469 19.4414 21.0156 18.9609 21.0156 18.375C21.0156 17.7891 20.5469 17.3203 19.9492 17.3203C19.3633 17.3203 18.8945 17.7891 18.8945 18.375C18.8945 18.9609 19.3633 19.4414 19.9492 19.4414ZM19.9492 23.1797C20.5469 23.1797 21.0156 22.6992 21.0156 22.1133C21.0156 21.5273 20.5469 21.0469 19.9492 21.0469C19.3633 21.0469 18.8945 21.5273 18.8945 22.1133C18.8945 22.6992 19.3633 23.1797 19.9492 23.1797Z" fill="black" fill-opacity="0.85"/>
<path d="M4 24.2695C4 25.8281 4.87891 26.707 6.42578 26.707H10.4453C11.9922 26.707 12.8828 25.8281 12.8828 24.2578V4.98047C12.8828 3.41016 11.9922 2.53125 10.4453 2.53125H6.42578C4.87891 2.53125 4 3.41016 4 4.96875V24.2695ZM5.76953 24.1055V5.13281C5.76953 4.59375 6.08594 4.30078 6.625 4.30078H10.2695C10.8086 4.30078 11.1133 4.59375 11.1133 5.13281V24.1055C11.1133 24.6328 10.8086 24.9375 10.2695 24.9375H6.625C6.08594 24.9375 5.76953 24.6328 5.76953 24.1055ZM5.85156 3.39844H7.39844V0.773438C7.39844 0.339844 7.04688 0 6.61328 0C6.17969 0 5.85156 0.339844 5.85156 0.773438V3.39844ZM9.48438 3.39844H11.0312V0.773438C11.0312 0.339844 10.6914 0 10.2578 0C9.82422 0 9.48438 0.339844 9.48438 0.773438V3.39844ZM8.44141 8.22656C9.02734 8.22656 9.50781 7.74609 9.50781 7.16016C9.50781 6.57422 9.02734 6.09375 8.44141 6.09375C7.85547 6.09375 7.38672 6.57422 7.38672 7.16016C7.38672 7.74609 7.85547 8.22656 8.44141 8.22656ZM8.44141 11.9531C9.02734 11.9531 9.50781 11.4844 9.50781 10.8984C9.50781 10.3008 9.02734 9.83203 8.44141 9.83203C7.85547 9.83203 7.38672 10.3008 7.38672 10.8984C7.38672 11.4844 7.85547 11.9531 8.44141 11.9531ZM8.44141 15.6797C9.02734 15.6797 9.50781 15.2109 9.50781 14.625C9.50781 14.0391 9.02734 13.5703 8.44141 13.5703C7.85547 13.5703 7.38672 14.0391 7.38672 14.625C7.38672 15.2109 7.85547 15.6797 8.44141 15.6797ZM8.44141 19.4297C9.02734 19.4297 9.50781 18.9492 9.50781 18.3633C9.50781 17.7773 9.02734 17.2969 8.44141 17.2969C7.85547 17.2969 7.38672 17.7773 7.38672 18.3633C7.38672 18.9492 7.85547 19.4297 8.44141 19.4297ZM8.44141 23.1562C9.02734 23.1562 9.50781 22.6875 9.50781 22.1016C9.50781 21.5039 9.02734 21.0352 8.44141 21.0352C7.85547 21.0352 7.38672 21.5039 7.38672 22.1016C7.38672 22.6875 7.85547 23.1562 8.44141 23.1562Z" fill="black" fill-opacity="0.85"/>
</g>
<defs>
<clipPath id="clip0_2124_50023">
<rect width="20.4023" height="29.2852" fill="white" transform="translate(4)"/>
</clipPath>
</defs>
</svg>
