<svg width="29" height="28" viewBox="0 0 29 28" fill="none" xmlns="http://www.w3.org/2000/svg">
<g clip-path="url(#clip0_2124_88814)">
<path d="M3.1875 20.7148H4.78125V8.01172H3.16406C1.07812 8.01172 0 9.08984 0 11.1641L0.0117188 17.5625C0.0117188 19.6484 1.07812 20.7148 3.1875 20.7148ZM5.90625 20.7148H22.7578V8.01172H20.7422C20.4844 11.3633 17.8711 13.5664 14.3438 13.5664C10.8164 13.5664 8.20312 11.3633 7.93359 8.01172H5.90625V20.7148ZM23.8828 20.7148H25.4766C27.5742 20.7148 28.6289 19.6484 28.6406 17.5625L28.6641 11.1641C28.6758 9.08984 27.5859 8.01172 25.4883 8.01172H23.8828V20.7148ZM14.3438 12.4883C17.1797 12.4883 19.2891 10.7188 19.4883 8.01172H17.6719C17.5195 9.75781 16.1719 10.9062 14.3438 10.9062C12.5039 10.9062 11.168 9.75781 11.0156 8.01172H9.1875C9.38672 10.7188 11.4961 12.4883 14.3438 12.4883Z" fill="black" fill-opacity="0.85"/>
</g>
<defs>
<clipPath id="clip0_2124_88814">
<rect width="28.6642" height="12.7148" fill="white" transform="translate(0 8)"/>
</clipPath>
</defs>
</svg>
