<svg width="28" height="28" viewBox="0 0 28 28" fill="none" xmlns="http://www.w3.org/2000/svg">
<g clip-path="url(#clip0_2124_89144)">
<path d="M13.9531 25.918C20.4922 25.918 25.9062 20.5039 25.9062 13.9648C25.9062 7.4375 20.4805 2.01172 13.9414 2.01172C7.41406 2.01172 2 7.4375 2 13.9648C2 20.5039 7.42578 25.918 13.9531 25.918Z" fill="black" fill-opacity="0.85"/>
<path d="M11.1875 9.44141C11.1875 7.91797 12.4414 6.6875 13.9531 6.6875C15.4766 6.6875 16.7188 7.91797 16.7188 9.44141C16.7188 10.6953 15.8984 11.7266 14.7852 12.0547V18.1133C14.7852 19.918 14.5156 21.4766 13.9531 21.4766C13.4023 21.4766 13.1094 19.8828 13.1094 18.1133V12.0547C12.0078 11.7148 11.1875 10.6836 11.1875 9.44141ZM12.3711 8.73828C12.3711 9.20703 12.7812 9.61719 13.2383 9.61719C13.7188 9.61719 14.1172 9.20703 14.1172 8.73828C14.1172 8.25781 13.7188 7.84766 13.2383 7.84766C12.7812 7.84766 12.3594 8.25781 12.3711 8.73828Z" fill="white"/>
</g>
<defs>
<clipPath id="clip0_2124_89144">
<rect width="23.9062" height="23.918" fill="white" transform="translate(2 2)"/>
</clipPath>
</defs>
</svg>
