<svg width="28" height="28" viewBox="0 0 28 28" fill="none" xmlns="http://www.w3.org/2000/svg">
<path d="M6.67969 24.5977H20.8945C23.3555 24.5977 24.5742 23.3789 24.5742 20.9648V6.65625C24.5742 4.24219 23.3555 3.02344 20.8945 3.02344H6.67969C4.23047 3.02344 3 4.23047 3 6.65625V20.9648C3 23.3906 4.23047 24.5977 6.67969 24.5977Z" fill="black" fill-opacity="0.85"/>
<path d="M10.0078 18.8906C8.70703 18.8906 7.47656 18.2695 7.125 17.1445C7.06641 16.9453 7.03125 16.7344 7.03125 16.5117C7.03125 16.043 7.34766 15.75 7.82812 15.75C8.22656 15.75 8.47266 15.9492 8.58984 16.3477C8.74219 16.8984 9.12891 17.4844 10.0078 17.4844C10.8984 17.4844 11.3438 16.7695 11.3438 15.9375C11.3438 14.8945 10.7812 14.332 9.75 14.332H9.45703C9.05859 14.332 8.78906 14.0977 8.78906 13.6992C8.78906 13.3008 9.04688 13.043 9.45703 13.043H9.73828C10.6523 13.043 11.1328 12.3984 11.1328 11.5195C11.1328 10.7227 10.7578 10.1133 9.96094 10.1133C9.28125 10.1133 8.90625 10.5586 8.70703 11.2734C8.58984 11.6953 8.35547 11.8477 7.93359 11.8477C7.45312 11.8477 7.19531 11.5313 7.19531 11.1328C7.19531 10.9219 7.21875 10.7109 7.28906 10.4766C7.62891 9.41016 8.71875 8.70703 9.96094 8.70703C11.5312 8.70703 12.7969 9.65625 12.7969 11.332C12.7969 12.3398 12.2461 13.3242 11.1562 13.6172V13.6523C12.1758 13.7578 13.0781 14.4961 13.0781 15.9961C13.0781 17.8008 11.7422 18.8906 10.0078 18.8906ZM16.7109 15.3047C15.1055 15.3047 14.3203 13.7578 14.3203 12.1289C14.3203 10.2305 15.375 8.68359 17.2148 8.68359C19.6758 8.68359 20.4023 11.4141 20.4023 13.6992C20.4023 16.1719 19.6875 18.9141 17.2031 18.9141C15.9961 18.9141 14.9414 18.2812 14.6836 17.2266C14.6367 17.0859 14.6016 16.9336 14.6016 16.793C14.6016 16.3945 14.8242 16.0547 15.3398 16.0547C15.7031 16.0547 15.9375 16.207 16.125 16.6055C16.3242 17.1211 16.6875 17.4961 17.2266 17.4961C18.5859 17.4961 18.75 15.082 18.75 13.7461C18.75 13.7109 18.75 13.6641 18.75 13.6172H18.7031C18.4219 14.6484 17.6836 15.3047 16.7109 15.3047ZM17.2383 13.9688C18.1172 13.9688 18.5156 12.9844 18.5156 12.0469C18.5156 11.1445 18.1641 10.1016 17.2383 10.1016C16.4062 10.1016 16.0078 11.1445 16.0078 12.0469C16.0078 12.9375 16.3477 13.9688 17.2383 13.9688Z" fill="white"/>
</svg>
