<svg width="28" height="28" viewBox="0 0 28 28" fill="none" xmlns="http://www.w3.org/2000/svg">
<path d="M11.848 24.6367C12.3051 24.5078 12.5863 24.3672 12.7738 24.0156L15.3519 19.375C15.3988 19.293 15.434 19.2578 15.5394 19.2578H21.8441V25.1992C21.8441 25.8789 22.3832 26.3945 23.0277 26.3945C23.7074 26.3945 24.2348 25.8789 24.2348 25.1992V18.2031C24.2348 17.418 23.8129 16.9492 22.9926 16.8789L17.684 16.3984V9.73047C17.684 8.42969 16.7699 7.35156 15.1644 7.35156H14.6019C13.6527 7.35156 12.9262 7.51562 11.9887 8.21875L8.05116 11.1719C7.37147 11.6641 7.41835 12.6602 8.10975 13.1172L12.9262 16.3164V16.6211L10.8285 22.4336L4.87538 24.0742C4.24257 24.25 3.86757 24.8945 4.04335 25.5273C4.23085 26.1953 4.82851 26.5352 5.50819 26.3594L11.848 24.6367ZM10.8285 12.0625L12.6097 10.7266C12.7504 10.6328 12.9262 10.7031 12.9262 10.8789V13.457L10.8285 12.0625ZM15.1644 6.12109C16.559 6.12109 17.7074 4.97266 17.7074 3.54297C17.7074 2.14844 16.559 1 15.1644 1C13.7347 1 12.5863 2.14844 12.5863 3.54297C12.5863 4.97266 13.7347 6.12109 15.1644 6.12109Z" fill="black" fill-opacity="0.85"/>
</svg>
