<svg width="28" height="30" viewBox="0 0 28 30" fill="none" xmlns="http://www.w3.org/2000/svg">
<g clip-path="url(#clip0_2124_50024)">
<path d="M15.5078 24.3047C15.5078 25.8633 16.3867 26.7422 17.9453 26.7422H21.9531C23.5117 26.7422 24.4023 25.8633 24.4023 24.293V5.01562C24.4023 3.44531 23.5117 2.56641 21.9531 2.56641H17.9453C16.3867 2.56641 15.5078 3.44531 15.5078 5.00391V24.3047ZM17.3594 25.875V28.5C17.3594 28.9336 17.6992 29.2617 18.1328 29.2617C18.5664 29.2617 18.9062 28.9336 18.9062 28.5V25.875H17.3594ZM21.0039 25.875V28.5C21.0039 28.9336 21.332 29.2617 21.7656 29.2617C22.1992 29.2617 22.5508 28.9336 22.5508 28.5V25.875H21.0039ZM19.9492 8.03906C19.3398 8.03906 18.8594 7.54688 18.8594 6.9375C18.8594 6.32812 19.3398 5.83594 19.9492 5.83594C20.5703 5.83594 21.0508 6.32812 21.0508 6.9375C21.0508 7.54688 20.5703 8.03906 19.9492 8.03906ZM19.9492 11.8945C19.3398 11.8945 18.8594 11.4023 18.8594 10.793C18.8594 10.1836 19.3398 9.69141 19.9492 9.69141C20.5703 9.69141 21.0508 10.1836 21.0508 10.793C21.0508 11.4023 20.5703 11.8945 19.9492 11.8945ZM19.9492 15.7383C19.3398 15.7383 18.8594 15.2578 18.8594 14.6484C18.8594 14.0391 19.3398 13.5469 19.9492 13.5469C20.5703 13.5469 21.0508 14.0391 21.0508 14.6484C21.0508 15.2578 20.5703 15.7383 19.9492 15.7383ZM19.9492 19.5938C19.3398 19.5938 18.8594 19.1016 18.8594 18.4922C18.8594 17.8828 19.3398 17.4023 19.9492 17.4023C20.5703 17.4023 21.0508 17.8828 21.0508 18.4922C21.0508 19.1016 20.5703 19.5938 19.9492 19.5938ZM19.9492 23.4492C19.3398 23.4492 18.8594 22.957 18.8594 22.3477C18.8594 21.7383 19.3398 21.2461 19.9492 21.2461C20.5703 21.2461 21.0508 21.7383 21.0508 22.3477C21.0508 22.957 20.5703 23.4492 19.9492 23.4492Z" fill="black" fill-opacity="0.85"/>
<path d="M4 24.2695C4 25.8281 4.87891 26.707 6.42578 26.707H10.4453C11.9922 26.707 12.8828 25.8281 12.8828 24.2578V4.98047C12.8828 3.41016 11.9922 2.53125 10.4453 2.53125H6.42578C4.87891 2.53125 4 3.41016 4 4.96875V24.2695ZM5.85156 3.39844H7.39844V0.773438C7.39844 0.339844 7.04688 0 6.61328 0C6.17969 0 5.85156 0.339844 5.85156 0.773438V3.39844ZM9.48438 3.39844H11.0312V0.773438C11.0312 0.339844 10.6914 0 10.2578 0C9.82422 0 9.48438 0.339844 9.48438 0.773438V3.39844ZM8.44141 8.02734C7.83203 8.02734 7.35156 7.53516 7.35156 6.92578C7.35156 6.31641 7.83203 5.82422 8.44141 5.82422C9.05078 5.82422 9.54297 6.31641 9.54297 6.92578C9.54297 7.53516 9.05078 8.02734 8.44141 8.02734ZM8.44141 11.8711C7.83203 11.8711 7.35156 11.3906 7.35156 10.7812C7.35156 10.1602 7.83203 9.67969 8.44141 9.67969C9.05078 9.67969 9.54297 10.1602 9.54297 10.7812C9.54297 11.3906 9.05078 11.8711 8.44141 11.8711ZM8.44141 15.7148C7.83203 15.7148 7.35156 15.2344 7.35156 14.625C7.35156 14.0156 7.83203 13.5352 8.44141 13.5352C9.05078 13.5352 9.54297 14.0156 9.54297 14.625C9.54297 15.2344 9.05078 15.7148 8.44141 15.7148ZM8.44141 19.582C7.83203 19.582 7.35156 19.0898 7.35156 18.4805C7.35156 17.8711 7.83203 17.3789 8.44141 17.3789C9.05078 17.3789 9.54297 17.8711 9.54297 18.4805C9.54297 19.0898 9.05078 19.582 8.44141 19.582ZM8.44141 23.4258C7.83203 23.4258 7.35156 22.9453 7.35156 22.3242C7.35156 21.7148 7.83203 21.2344 8.44141 21.2344C9.05078 21.2344 9.54297 21.7148 9.54297 22.3242C9.54297 22.9453 9.05078 23.4258 8.44141 23.4258Z" fill="black" fill-opacity="0.85"/>
</g>
<defs>
<clipPath id="clip0_2124_50024">
<rect width="20.4023" height="29.2852" fill="white" transform="translate(4)"/>
</clipPath>
</defs>
</svg>
