<svg width="28" height="28" viewBox="0 0 28 28" fill="none" xmlns="http://www.w3.org/2000/svg">
<g clip-path="url(#clip0_2124_88848)">
<path d="M11.7422 17.918C10.9219 17.918 10.4414 17.4609 10.4414 16.6406V15.6914C6.99609 15.457 3.5625 14.7539 0 13.4062V11.4727C4.38281 13.3945 8.77734 14.0742 13.5586 14.0742C18.3516 14.0742 22.7461 13.3945 27.1289 11.4727V13.4062C23.5664 14.7539 20.1328 15.457 16.6875 15.6914V16.6406C16.6875 17.4609 16.207 17.918 15.3867 17.918H11.7422ZM3.62109 25.7109H23.5078C25.9336 25.7109 27.1289 24.5391 27.1289 22.1367V10.7344C27.1289 8.33203 25.9336 7.16016 23.5078 7.16016H3.62109C1.20703 7.16016 0 8.33203 0 10.7344V22.1367C0 24.5391 1.20703 25.7109 3.62109 25.7109ZM7.61719 8.17969H9.43359V6.10547C9.43359 5.21484 9.96094 4.71094 10.875 4.71094H16.2539C17.168 4.71094 17.6836 5.21484 17.6836 6.10547V8.15625H19.5V6.23438C19.5 4.03125 18.3398 3 16.2188 3H10.8984C8.89453 3 7.61719 4.03125 7.61719 6.23438V8.17969Z" fill="black" fill-opacity="0.85"/>
</g>
<defs>
<clipPath id="clip0_2124_88848">
<rect width="27.1289" height="22.7227" fill="white" transform="translate(0 3)"/>
</clipPath>
</defs>
</svg>
