<svg width="28" height="28" viewBox="0 0 28 28" fill="none" xmlns="http://www.w3.org/2000/svg">
<path d="M2.525 27.5742H2.5836C6.23985 27.5742 6.54453 25.1953 8.45469 25.1953C10.3062 25.1953 10.8219 27.5742 14.0211 27.5742C17.2086 27.5742 17.7242 25.1953 19.5758 25.1953C21.4859 25.1953 21.7906 27.5742 25.4469 27.5742H25.5055C25.9625 27.5742 26.3258 27.2109 26.3258 26.7539C26.3258 26.2969 25.9625 25.9219 25.5055 25.9219H25.4469C24.1813 25.9219 23.4781 25.4062 22.5875 24.7734C21.8258 24.2227 20.8766 23.543 19.5758 23.543C18.2398 23.543 17.2789 24.2695 16.5055 24.832C15.7086 25.4531 15.0641 25.9219 14.0211 25.9219C12.9664 25.9219 12.3219 25.4531 11.525 24.832C10.7516 24.2695 9.79063 23.543 8.45469 23.543C7.15391 23.543 6.20469 24.2227 5.44297 24.7734C4.55235 25.4062 3.84922 25.9219 2.5836 25.9219H2.525C2.06797 25.9219 1.70469 26.2969 1.70469 26.7539C1.70469 27.2109 2.06797 27.5742 2.525 27.5742ZM5.51328 25.6641L7.11875 25.1953L3.00547 19.6055C2.74766 19.2656 2.9 18.8555 3.36875 18.8555H24.6617C25.1422 18.8555 25.2945 19.2656 25.025 19.6172L20.9117 25.1836L22.5289 25.6523L26.5133 20.3672C27.5914 18.9609 26.9234 17.3438 25.0719 17.3438H2.9586C1.10704 17.3438 0.439066 18.9609 1.51719 20.3672L5.51328 25.6641ZM7.86875 5.57812C7.79844 5.89453 7.93907 6.01172 8.26719 5.98828C9.63828 5.89453 11.2672 5.8125 14.0094 5.8125C16.7516 5.8125 18.3805 5.89453 19.7516 5.98828C20.0797 6.01172 20.2203 5.89453 20.15 5.57812C19.9391 4.65234 19.5523 3.46875 19.2711 3C19.0484 2.60156 18.7789 2.4375 18.3453 2.36719C17.7359 2.28516 16.3531 2.22656 14.0094 2.22656C11.6656 2.22656 10.2828 2.28516 9.67344 2.36719C9.23985 2.4375 8.97032 2.60156 8.73594 3C8.46641 3.46875 8.07969 4.65234 7.86875 5.57812ZM7.82188 11.4141C8.61875 11.4141 9.21641 10.8164 9.21641 10.0312C9.21641 9.24609 8.61875 8.64844 7.82188 8.64844C7.03672 8.64844 6.43907 9.24609 6.43907 10.0312C6.43907 10.8164 7.03672 11.4141 7.82188 11.4141ZM11.7477 11.0859H16.2711C16.8688 11.0859 17.2789 10.6758 17.2789 10.0781C17.2789 9.49219 16.857 9.08203 16.2711 9.08203H11.7477C11.15 9.08203 10.7399 9.49219 10.7399 10.0781C10.7399 10.6758 11.15 11.0859 11.7477 11.0859ZM20.1852 11.4141C20.982 11.4141 21.5797 10.8164 21.5797 10.0312C21.5797 9.24609 20.982 8.64844 20.1852 8.64844C19.4 8.64844 18.8023 9.24609 18.8023 10.0312C18.8023 10.8164 19.4 11.4141 20.1852 11.4141ZM14.0094 13.9102C16.8922 13.9102 20.7242 13.7695 22.3648 13.582C23.6305 13.4297 24.3453 12.7031 24.3453 11.5312V10.0078C24.3453 8.50781 24.0289 7.66406 23.2203 6.62109L22.5172 5.73047C22.2008 4.17188 21.6383 2.56641 21.3336 1.92188C20.8648 0.925781 19.9273 0.292969 18.7086 0.117188C18.1344 0.046875 16.2945 0 14.0094 0C11.7594 0 9.8961 0.046875 9.32188 0.117188C8.10313 0.269531 7.16563 0.902344 6.67344 1.92188C6.38047 2.56641 5.80625 4.17188 5.48985 5.73047L4.81016 6.62109C3.98985 7.66406 3.68516 8.50781 3.68516 10.0078V11.5312C3.68516 12.7031 4.38828 13.4297 5.65391 13.582C7.29453 13.7695 11.1266 13.9102 14.0094 13.9102ZM14.0094 12.4102C11.1031 12.4102 7.35313 12.293 5.99375 12.1172C5.40782 12.0352 5.18516 11.7891 5.18516 11.1914V10.0078C5.18516 8.88281 5.34922 8.37891 5.99375 7.53516L6.90782 6.35156C7.11875 5.10938 7.69297 3.36328 8.04453 2.58984C8.30235 2.05078 8.78282 1.72266 9.49766 1.64062C10.0367 1.58203 11.7711 1.48828 14.0094 1.48828C16.2594 1.48828 18.0172 1.58203 18.4977 1.64062C19.2242 1.73438 19.7047 2.05078 19.9742 2.58984C20.3492 3.375 20.9117 5.13281 21.1109 6.35156L22.025 7.53516C22.6578 8.37891 22.8453 8.89453 22.8453 10.0078V11.1914C22.8453 11.8008 22.6109 12.0469 22.0133 12.1172C20.6539 12.2812 16.9156 12.4102 14.0094 12.4102ZM5.44297 16.0898H6.45078C7.10703 16.0898 7.61094 15.5977 7.61094 14.9531V12.9023L4.29453 12.4219V14.9531C4.29453 15.5977 4.79844 16.0898 5.44297 16.0898ZM21.568 16.0898H22.5758C23.2203 16.0898 23.7242 15.5977 23.7242 14.9531V12.4219L20.4078 12.9023L20.4195 14.9531C20.4195 15.5977 20.9117 16.0898 21.568 16.0898Z" fill="black" fill-opacity="0.85"/>
</svg>
