<svg width="28" height="28" viewBox="0 0 28 28" fill="none" xmlns="http://www.w3.org/2000/svg">
<g clip-path="url(#clip0_2124_62607)">
<path d="M13.9531 25.918C20.4922 25.918 25.9062 20.5039 25.9062 13.9648C25.9062 7.4375 20.4805 2.01172 13.9414 2.01172C7.41406 2.01172 2 7.4375 2 13.9648C2 20.5039 7.42578 25.918 13.9531 25.918Z" fill="black" fill-opacity="0.85"/>
<path d="M11.1172 12.8633H10.2148C8.78516 12.8633 7.63672 11.7266 7.63672 10.3203C7.63672 8.89062 8.78516 7.74219 10.2148 7.74219C11.6211 7.74219 12.7812 8.90234 12.7812 10.3203V11.2344H14.9609V10.3203C14.9609 8.90234 16.1094 7.74219 17.5273 7.74219C18.9453 7.74219 20.0938 8.89062 20.0938 10.3203C20.0938 11.7266 18.9453 12.8633 17.5273 12.8633H16.6133V15.0781H17.5273C18.9453 15.0781 20.0938 16.2148 20.0938 17.6328C20.0938 19.0508 18.9453 20.1992 17.5273 20.1992C16.1094 20.1992 14.9609 19.0391 14.9609 17.6328V16.7188H12.7812V17.6328C12.7812 19.0391 11.6211 20.1992 10.2148 20.1992C8.78516 20.1992 7.63672 19.0508 7.63672 17.6328C7.63672 16.2148 8.78516 15.0781 10.2148 15.0781H11.1172V12.8633ZM12.7812 15.0898H14.9609V12.8516H12.7812V15.0898ZM10.2148 11.2461H11.1172V10.3203C11.1172 9.81641 10.707 9.39453 10.2148 9.39453C9.71094 9.39453 9.28906 9.81641 9.28906 10.3203C9.28906 10.8242 9.69922 11.2461 10.2148 11.2461ZM17.5273 11.2461C18.0312 11.2461 18.4531 10.8242 18.4531 10.3203C18.4531 9.81641 18.0195 9.39453 17.5273 9.39453C17.0234 9.39453 16.6133 9.81641 16.6133 10.3203V11.2461H17.5273ZM10.2148 16.6953C9.71094 16.6953 9.28906 17.1172 9.28906 17.6211C9.28906 18.125 9.69922 18.5469 10.2148 18.5469C10.707 18.5469 11.1172 18.125 11.1172 17.6211V16.6953H10.2148ZM17.5273 16.6953H16.6133V17.6211C16.6133 18.125 17.0234 18.5469 17.5273 18.5469C18.0312 18.5469 18.4531 18.125 18.4531 17.6211C18.4531 17.1172 18.0195 16.6953 17.5273 16.6953Z" fill="white"/>
</g>
<defs>
<clipPath id="clip0_2124_62607">
<rect width="23.9062" height="23.918" fill="white" transform="translate(2 2)"/>
</clipPath>
</defs>
</svg>
