<svg width="28" height="28" viewBox="0 0 28 28" fill="none" xmlns="http://www.w3.org/2000/svg">
<g clip-path="url(#clip0_2124_50150)">
<path d="M5.68047 7.54297H23.493C24.0672 7.54297 24.4188 7.41406 24.7235 7.12109L25.7313 6.125C26.0594 5.80859 25.9539 5.15234 25.3797 5.15234H7.56719C6.99297 5.15234 6.6414 5.28125 6.33672 5.57422L5.3289 6.57031C5.00078 6.88672 5.10625 7.54297 5.68047 7.54297ZM5.68047 13.5898H23.493C24.0672 13.5898 24.4188 13.4727 24.7235 13.1797L25.7313 12.1719C26.0594 11.8672 25.9539 11.2109 25.3797 11.2109H7.56719C6.99297 11.2109 6.6414 11.3398 6.33672 11.6328L5.3289 12.6289C5.00078 12.9453 5.10625 13.5898 5.68047 13.5898ZM5.68047 19.6133H23.493C24.0672 19.6133 24.4188 19.4844 24.7235 19.1797L25.7313 18.1836C26.0594 17.8789 25.9539 17.2344 25.3797 17.2344H7.56719C6.99297 17.2344 6.6414 17.3516 6.33672 17.6562L5.3289 18.6523C5.00078 18.9688 5.10625 19.6133 5.68047 19.6133ZM5.68047 25.6719H23.493C24.0672 25.6719 24.4188 25.5312 24.7235 25.2266L25.7313 24.2305C26.0594 23.9258 25.9539 23.2695 25.3797 23.2695H7.56719C6.99297 23.2695 6.6414 23.3984 6.33672 23.7031L5.3289 24.6992C5.00078 25.0156 5.10625 25.6719 5.68047 25.6719Z" fill="black" fill-opacity="0.85"/>
<path d="M2 2.9375C2 3.45312 2.43359 3.88672 2.94922 3.88672H25.9297C26.4453 3.88672 26.8789 3.45312 26.8789 2.9375C26.8789 2.42188 26.4453 2 25.9297 2H2.94922C2.43359 2 2 2.42188 2 2.9375ZM2.94922 6.60547C3.38281 6.60547 3.74609 6.24219 3.74609 5.80859C3.74609 5.36328 3.38281 5.01172 2.94922 5.01172C2.50391 5.01172 2.14062 5.36328 2.14062 5.80859C2.14062 6.24219 2.50391 6.60547 2.94922 6.60547ZM2.94922 9.32422C3.38281 9.32422 3.74609 8.94922 3.74609 8.51562C3.74609 8.08203 3.38281 7.71875 2.94922 7.71875C2.50391 7.71875 2.14062 8.08203 2.14062 8.51562C2.14062 8.94922 2.50391 9.32422 2.94922 9.32422ZM2.94922 12.0312C3.38281 12.0312 3.74609 11.668 3.74609 11.2344C3.74609 10.7891 3.38281 10.4375 2.94922 10.4375C2.50391 10.4375 2.14062 10.7891 2.14062 11.2344C2.14062 11.668 2.50391 12.0312 2.94922 12.0312ZM2.94922 14.75C3.38281 14.75 3.74609 14.375 3.74609 13.9414C3.74609 13.5078 3.38281 13.1445 2.94922 13.1445C2.50391 13.1445 2.14062 13.5078 2.14062 13.9414C2.14062 14.375 2.50391 14.75 2.94922 14.75ZM2.94922 17.457C3.38281 17.457 3.74609 17.0938 3.74609 16.6602C3.74609 16.2148 3.38281 15.8633 2.94922 15.8633C2.50391 15.8633 2.14062 16.2148 2.14062 16.6602C2.14062 17.0938 2.50391 17.457 2.94922 17.457ZM2.94922 20.1758C3.38281 20.1758 3.74609 19.8008 3.74609 19.3672C3.74609 18.9336 3.38281 18.5703 2.94922 18.5703C2.50391 18.5703 2.14062 18.9336 2.14062 19.3672C2.14062 19.8008 2.50391 20.1758 2.94922 20.1758ZM2.94922 25.9297C3.45312 25.9297 3.88672 25.5078 3.88672 24.9922V22.2266C3.88672 21.7109 3.46484 21.2891 2.94922 21.2891C2.43359 21.2891 2 21.7109 2 22.2266V24.9922C2 25.5078 2.43359 25.9297 2.94922 25.9297Z" fill="black" fill-opacity="0.85"/>
</g>
<defs>
<clipPath id="clip0_2124_50150">
<rect width="24.8789" height="23.9414" fill="white" transform="translate(2 2)"/>
</clipPath>
</defs>
</svg>
