<svg width="28" height="28" viewBox="0 0 28 28" fill="none" xmlns="http://www.w3.org/2000/svg">
<path d="M13.7812 9.13281C15.1992 9.13281 16.3477 7.98438 16.3477 6.56641C16.3477 5.14844 15.1992 4 13.7812 4C12.3633 4 11.2266 5.14844 11.2266 6.56641C11.2266 7.98438 12.3633 9.13281 13.7812 9.13281ZM1.20703 7.375L9.82031 11.9922C10.1016 12.1445 10.2656 12.4375 10.1719 12.7539L9.33984 15.7891C11.5195 16.2344 12.2578 17.5703 13.8633 17.5703C14.3086 17.5703 14.6836 17.4531 15.0469 17.2773L16.1836 13.082C16.3008 12.6484 16.418 12.4141 16.8633 12.1914L25.8867 7.375C26.5312 7.02344 26.7773 6.21484 26.4492 5.57031C26.0742 4.92578 25.2891 4.66797 24.6328 5.01953L15.6797 9.76562C14.2734 10.5156 12.9375 10.6094 11.25 9.70703L2.46094 5.01953C1.80469 4.66797 0.996094 4.92578 0.65625 5.57031C0.304688 6.21484 0.5625 7.02344 1.20703 7.375ZM0.65625 20.6641H1.83984C4.96875 20.6641 5.68359 18.7305 7.85156 18.7305C10.0195 18.7305 10.7344 20.6641 13.8633 20.6641C17.0039 20.6641 17.707 18.7305 19.8867 18.7305C22.0547 18.7305 22.7578 20.6641 25.8984 20.6641H27.082C27.4453 20.6641 27.7383 20.3828 27.7383 20.0195C27.7383 19.6562 27.4453 19.3633 27.082 19.3633H25.8984C23.6484 19.3633 22.8867 17.4297 19.8867 17.4297C16.875 17.4297 16.1133 19.3633 13.8633 19.3633C11.6133 19.3633 10.8633 17.4297 7.85156 17.4297C4.85156 17.4297 4.08984 19.3633 1.83984 19.3633H0.65625C0.28125 19.3633 0 19.6562 0 20.0195C0 20.3828 0.28125 20.6641 0.65625 20.6641ZM0.960938 23.9219C1.34766 23.9219 1.65234 23.6172 1.65234 23.2305C1.65234 22.8555 1.34766 22.5508 0.960938 22.5508C0.585938 22.5508 0.28125 22.8555 0.28125 23.2305C0.28125 23.6172 0.585938 23.9219 0.960938 23.9219ZM3.16406 23.5234C3.53906 23.5234 3.84375 23.2188 3.84375 22.8438C3.84375 22.457 3.53906 22.1523 3.16406 22.1523C2.77734 22.1523 2.47266 22.457 2.47266 22.8438C2.47266 23.2188 2.77734 23.5234 3.16406 23.5234ZM5.21484 22.5508C5.60156 22.5508 5.90625 22.2578 5.90625 21.8711C5.90625 21.4844 5.60156 21.1914 5.21484 21.1914C4.83984 21.1914 4.53516 21.4844 4.53516 21.8711C4.53516 22.2578 4.83984 22.5508 5.21484 22.5508ZM7.42969 22.0352C7.81641 22.0352 8.12109 21.7305 8.12109 21.3438C8.12109 20.9688 7.81641 20.6641 7.42969 20.6641C7.05469 20.6641 6.75 20.9688 6.75 21.3438C6.75 21.7305 7.05469 22.0352 7.42969 22.0352ZM9.64453 22.5508C10.0312 22.5508 10.3242 22.2578 10.3242 21.8711C10.3242 21.4844 10.0312 21.1914 9.64453 21.1914C9.25781 21.1914 8.96484 21.4844 8.96484 21.8711C8.96484 22.2578 9.25781 22.5508 9.64453 22.5508ZM11.7188 23.5234C12.1055 23.5234 12.4102 23.2188 12.4102 22.8438C12.4102 22.457 12.1055 22.1523 11.7188 22.1523C11.3438 22.1523 11.0391 22.457 11.0391 22.8438C11.0391 23.2188 11.3438 23.5234 11.7188 23.5234ZM13.8867 23.9219C14.2617 23.9219 14.5664 23.6172 14.5664 23.2305C14.5664 22.8555 14.2617 22.5508 13.8867 22.5508C13.5 22.5508 13.1953 22.8555 13.1953 23.2305C13.1953 23.6172 13.5 23.9219 13.8867 23.9219ZM16.043 23.5234C16.4297 23.5234 16.7227 23.2188 16.7227 22.8438C16.7227 22.457 16.4297 22.1523 16.043 22.1523C15.6562 22.1523 15.3633 22.457 15.3633 22.8438C15.3633 23.2188 15.6562 23.5234 16.043 23.5234ZM18.1172 22.5508C18.5039 22.5508 18.8086 22.2578 18.8086 21.8711C18.8086 21.4844 18.5039 21.1914 18.1172 21.1914C17.7422 21.1914 17.4375 21.4844 17.4375 21.8711C17.4375 22.2578 17.7422 22.5508 18.1172 22.5508ZM20.332 22.0352C20.7188 22.0352 21.0117 21.7305 21.0117 21.3438C21.0117 20.9688 20.7188 20.6641 20.332 20.6641C19.9453 20.6641 19.6523 20.9688 19.6523 21.3438C19.6523 21.7305 19.9453 22.0352 20.332 22.0352ZM22.5469 22.5508C22.9336 22.5508 23.2266 22.2578 23.2266 21.8711C23.2266 21.4844 22.9336 21.1914 22.5469 21.1914C22.1602 21.1914 21.8672 21.4844 21.8672 21.8711C21.8672 22.2578 22.1602 22.5508 22.5469 22.5508ZM24.6094 23.5234C24.9961 23.5234 25.2891 23.2188 25.2891 22.8438C25.2891 22.457 24.9961 22.1523 24.6094 22.1523C24.2227 22.1523 23.9297 22.457 23.9297 22.8438C23.9297 23.2188 24.2227 23.5234 24.6094 23.5234ZM26.7891 23.9219C27.1758 23.9219 27.4805 23.6172 27.4805 23.2305C27.4805 22.8555 27.1758 22.5508 26.7891 22.5508C26.4141 22.5508 26.1094 22.8555 26.1094 23.2305C26.1094 23.6172 26.4141 23.9219 26.7891 23.9219Z" fill="black" fill-opacity="0.85"/>
</svg>
