<svg width="30" height="28" viewBox="0 0 30 28" fill="none" xmlns="http://www.w3.org/2000/svg">
<g clip-path="url(#clip0_2124_24853)">
<path d="M3.01172 22.1328H26.2852C28.2891 22.1328 29.2969 21.1602 29.2969 19.1211V5.69141C29.2969 3.65234 28.2891 2.67969 26.2852 2.67969H3.01172C1.01953 2.67969 0 3.65234 0 5.69141V19.1211C0 21.1602 1.01953 22.1328 3.01172 22.1328ZM8.75391 26.1055H20.543C21.0586 26.1055 21.4922 25.6836 21.4922 25.1562C21.4922 24.6289 21.0586 24.207 20.543 24.207H8.75391C8.23828 24.207 7.80469 24.6289 7.80469 25.1562C7.80469 25.6836 8.23828 26.1055 8.75391 26.1055Z" fill="black" fill-opacity="0.85"/>
<path d="M11.4141 17.457C11.0273 17.457 10.5703 17.2227 10.5703 16.5781V15.3828H7.875C7.27734 15.3828 6.87891 14.9844 6.87891 14.3984C6.87891 14.0234 6.94922 13.707 7.14844 13.25L9.30469 8.5625C9.64453 7.8125 10.043 7.37891 10.8984 7.37891C11.6953 7.37891 12.2344 7.83594 12.2344 8.67969V13.9766H12.668C13.1602 13.9766 13.3594 14.2812 13.3594 14.6797C13.3594 15.0781 13.1367 15.3828 12.668 15.3828H12.2344V16.5781C12.2344 17.1641 11.8594 17.457 11.4141 17.457ZM10.6055 14.0117V8.90234H10.5586L8.36719 13.9414V14.0117H10.6055ZM15.7148 17.4688C15.1641 17.4688 14.8359 17.0938 14.8359 16.543V8.31641C14.8359 7.75391 15.1523 7.39062 15.7148 7.39062C16.3008 7.39062 16.6055 7.78906 16.6055 8.31641V12.1016H16.6875L19.418 7.90625C19.5703 7.66016 19.7461 7.41406 20.2031 7.41406C20.7188 7.41406 21.0117 7.8125 21.0117 8.21094C21.0117 8.50391 20.918 8.69141 20.7773 8.87891L18.7031 11.9609L21.0703 15.9102C21.2227 16.1914 21.2695 16.3555 21.2695 16.625C21.2695 17.0938 20.9648 17.4453 20.4844 17.4453C20.0039 17.4453 19.7812 17.2227 19.5352 16.8008L17.4023 13.168L16.6172 14.3867V16.543C16.6172 17.0469 16.3359 17.4688 15.7148 17.4688Z" fill="white"/>
</g>
<defs>
<clipPath id="clip0_2124_24853">
<rect width="29.2969" height="24.1055" fill="white" transform="translate(0 2)"/>
</clipPath>
</defs>
</svg>
