<svg width="28" height="28" viewBox="0 0 28 28" fill="none" xmlns="http://www.w3.org/2000/svg">
<path d="M13.9531 25.9062C20.4922 25.9062 25.9062 20.4922 25.9062 13.9531C25.9062 7.42578 20.4805 2 13.9414 2C7.41406 2 2 7.42578 2 13.9531C2 20.4922 7.42578 25.9062 13.9531 25.9062Z" fill="black" fill-opacity="0.85"/>
<path d="M19.9297 15.2773C19.9297 18.0664 18.0312 19.8945 15.1953 19.8945H13.625C13.0625 19.8945 12.6875 19.5547 12.6875 19.0273C12.6875 18.5117 13.0508 18.1484 13.6016 18.1484H15.1953C16.9766 18.1484 18.1836 17 18.1836 15.2773C18.1836 13.6719 17 12.6055 15.207 12.6055H11.7852L10.5898 12.5469L11.1406 12.9453L12.5586 14.3047C12.7344 14.4805 12.8281 14.7031 12.8281 14.9492C12.8281 15.4531 12.4531 15.8516 11.9727 15.8516C11.7031 15.8516 11.4922 15.7578 11.3281 15.5938L8.25781 12.4531C8.03516 12.2422 7.94141 11.9844 7.94141 11.7148C7.94141 11.457 8.04688 11.1875 8.25781 10.9766L11.3164 7.87109C11.4922 7.69531 11.6914 7.60156 11.9609 7.60156C12.4648 7.60156 12.8281 8 12.8281 8.50391C12.8281 8.75 12.7344 8.97266 12.5586 9.13672L11.375 10.2852L10.5781 10.9063L11.7852 10.8594H15.207C18.043 10.8594 19.9297 12.6172 19.9297 15.2773Z" fill="white"/>
</svg>
