<svg width="30" height="28" viewBox="0 0 30 28" fill="none" xmlns="http://www.w3.org/2000/svg">
<g clip-path="url(#clip0_2124_50158)">
<path d="M0 3.00391C0 4.01172 0.820312 4.83203 1.81641 4.83203C2.46094 4.83203 3.04688 4.48047 3.35156 3.95312H26.1914C26.4961 4.48047 27.082 4.83203 27.7266 4.83203C28.7227 4.83203 29.543 4.01172 29.543 3.00391C29.543 2.00781 28.7227 1.1875 27.7266 1.1875C27.082 1.1875 26.4961 1.55078 26.1914 2.06641H3.35156C3.04688 1.55078 2.46094 1.1875 1.81641 1.1875C0.820312 1.1875 0 2.00781 0 3.00391Z" fill="black" fill-opacity="0.85"/>
<path d="M5.16797 25.8086H7.20703C7.6875 25.8086 8.03906 25.457 8.03906 24.9648V1.85547C8.03906 1.36328 7.6875 1 7.20703 1H5.16797C4.6875 1 4.33594 1.36328 4.33594 1.85547V24.9648C4.33594 25.457 4.6875 25.8086 5.16797 25.8086ZM22.3359 25.8086H24.375C24.8555 25.8086 25.207 25.457 25.207 24.9648V1.85547C25.207 1.36328 24.8555 1 24.375 1H22.3359C21.8555 1 21.5039 1.36328 21.5039 1.85547V24.9648C21.5039 25.457 21.8555 25.8086 22.3359 25.8086Z" fill="black" fill-opacity="0.85"/>
</g>
<defs>
<clipPath id="clip0_2124_50158">
<rect width="29.543" height="25.6992" fill="white" transform="translate(0 1)"/>
</clipPath>
</defs>
</svg>
