<svg width="31" height="28" viewBox="0 0 31 28" fill="none" xmlns="http://www.w3.org/2000/svg">
<path d="M13.4766 27.9531C20.918 27.9531 26.9648 21.9297 26.9648 14.4883C26.9648 7.04688 20.918 1 13.4766 1C6.04688 1 0 7.04688 0 14.4883C0 21.9297 6.04688 27.9531 13.4766 27.9531ZM13.4766 26.0664C7.05469 26.0664 1.88672 20.9102 1.88672 14.4883C1.88672 8.06641 7.06641 2.88672 13.4766 2.88672C19.8984 2.88672 25.0781 8.06641 25.0781 14.4883C25.0781 20.9102 19.8984 26.0664 13.4766 26.0664Z" fill="black" fill-opacity="0.85"/>
<path d="M27.1875 10.4805C25.4766 9.20314 23.168 10.2578 23.168 12.3789V16.6094C23.168 18.7539 25.4883 19.7734 27.1758 18.5195L30 16.3984C31.2891 15.4258 31.3125 13.5273 29.9883 12.5664L27.1875 10.4805Z" fill="white"/>
<path d="M26.2266 11.7578C25.582 11.2773 24.7734 11.5703 24.7734 12.3789V16.6094C24.7734 17.4414 25.5938 17.6992 26.2148 17.2305L29.0391 15.1211C29.4727 14.793 29.4961 14.1836 29.0391 13.8555L26.2266 11.7578Z" fill="black" fill-opacity="0.85"/>
<path d="M13.4766 23.8398C18.6562 23.8398 22.8281 19.6562 22.8281 14.4883C22.8281 9.30859 18.6562 5.125 13.4766 5.125C8.32031 5.125 4.11328 9.30859 4.11328 14.4883C4.11328 19.6562 8.32031 23.8398 13.4766 23.8398ZM13.4766 21.9531C9.33984 21.9531 6 18.625 6 14.4883C6 10.3398 9.33984 7.01172 13.4766 7.01172C17.625 7.01172 20.9414 10.3398 20.9414 14.4883C20.9414 18.625 17.625 21.9531 13.4766 21.9531ZM11.7539 18.9766H16.0195C16.4414 18.9766 16.793 18.6836 16.793 18.2383C16.793 17.793 16.4414 17.4766 16.0195 17.4766H12.668V10.8203C12.668 10.2344 12.3164 9.83594 11.7539 9.83594C11.2031 9.83594 10.8984 10.2461 10.8984 10.8203V18.0039C10.8984 18.5781 11.2031 18.9766 11.7539 18.9766Z" fill="black" fill-opacity="0.85"/>
</svg>
