<svg width="28" height="28" viewBox="0 0 28 28" fill="none" xmlns="http://www.w3.org/2000/svg">
<path d="M8.04688 24.7383C8.70312 24.7383 9.14844 24.2812 9.14844 23.5898V7.33594H9.25391L17.5156 23.6133C17.8555 24.293 18.3711 24.7383 19.1914 24.7383C20.0938 24.7383 20.6797 24.1523 20.6797 23.2617V4.39453C20.6797 3.70312 20.2344 3.24609 19.5664 3.24609C18.9102 3.24609 18.4648 3.70312 18.4648 4.39453V20.6953H18.3477L10.0977 4.37109C9.75781 3.70312 9.23047 3.24609 8.42188 3.24609C7.50781 3.24609 6.93359 3.83203 6.93359 4.72266V23.5898C6.93359 24.2812 7.37891 24.7383 8.04688 24.7383ZM5 14.0391C5 14.4609 5.32812 14.8008 5.75 14.8008H21.8633C22.2852 14.8008 22.6133 14.4609 22.6133 14.0391C22.6133 13.5938 22.2852 13.2773 21.8633 13.2773H5.75C5.32812 13.2773 5 13.5938 5 14.0391Z" fill="black" fill-opacity="0.85"/>
</svg>
