<svg width="31" height="29" viewBox="0 0 31 29" fill="none" xmlns="http://www.w3.org/2000/svg">
<g clip-path="url(#clip0_2124_45941)">
<path d="M19.3243 8.5752C21.0822 8.5752 22.4884 7.11036 22.4884 5.41114C22.4884 3.64161 21.0822 2.2002 19.3243 2.2002C17.5548 2.2002 16.1368 3.64161 16.1368 5.41114C16.1368 7.1455 17.5548 8.5752 19.3243 8.5752ZM17.2853 20.7158C17.8009 20.3057 18.2931 19.6143 18.7618 18.7471L20.9181 14.833C21.9142 13.0283 21.5861 11.1885 19.8868 10.2744C18.2345 9.36035 16.5236 10.0635 15.5158 11.8916L13.2892 15.9111L17.2853 20.7158ZM0.445475 25.3213C1.05485 25.9658 2.09782 25.9072 2.84782 25.1455L7.88688 19.9424C8.06267 19.7666 8.16813 19.7197 8.42595 19.8252L12.6798 21.4307C13.6056 21.7822 14.6134 21.7119 15.3517 21.5713L12.422 17.9502L9.43376 16.8604C8.05095 16.3565 6.90251 16.5205 5.78923 17.6689L0.550944 23.083C-0.1639 23.833 -0.105306 24.7705 0.445475 25.3213ZM19.8165 25.4619C20.297 25.0869 20.3322 24.501 19.8751 23.9502L17.2853 20.7158C16.6876 21.1377 16.0314 21.4307 15.3517 21.5713L18.34 25.2393C18.7736 25.7666 19.3243 25.8721 19.8165 25.4619Z" fill="black" fill-opacity="0.85"/>
<path d="M24.3632 25.7432H29.9882C30.4218 25.7432 30.7265 25.4385 30.7265 25.0166C30.7265 24.583 30.4218 24.2783 29.9882 24.2783H26.0156V24.2432L28.5585 21.501C29.4609 20.54 30.1288 19.6963 30.1288 18.4893C30.1288 16.8135 28.8281 15.7236 26.8007 15.7236C25.289 15.7236 23.9296 16.6377 23.5781 17.8799C23.5429 18.0439 23.5195 18.1729 23.5195 18.3252C23.5195 18.7588 23.8007 19.0518 24.246 19.0518C24.6445 19.0518 24.8437 18.8057 25.0429 18.4775C25.3241 17.833 25.8866 17.165 26.871 17.165C27.8671 17.165 28.5351 17.751 28.5351 18.6065C28.5351 19.3682 27.8906 20.0127 27.2695 20.6807L23.8593 24.3486C23.6718 24.5479 23.5663 24.7588 23.5663 25.0166C23.5663 25.4619 23.871 25.7432 24.3632 25.7432Z" fill="black" fill-opacity="0.85"/>
<path d="M5.98828 13.9072C9.30468 13.9072 11.8828 11.1768 11.8828 8.00098C11.8828 4.68458 9.30468 2.0127 5.98828 2.0127C2.68359 2.0127 0.0234375 4.68458 0.0234375 8.00098C0.0234375 11.1768 2.68359 13.9072 5.98828 13.9072Z" fill="black" fill-opacity="0.85"/>
</g>
<defs>
<clipPath id="clip0_2124_45941">
<rect width="30.7033" height="23.9414" fill="white" transform="translate(0.0234375 2.0127)"/>
</clipPath>
</defs>
</svg>
