<svg width="28" height="28" viewBox="0 0 28 28" fill="none" xmlns="http://www.w3.org/2000/svg">
<path d="M0 11.4536C0 12.5669 0.679688 13.2466 1.79297 13.2466H25.6406C26.7539 13.2466 27.4453 12.5669 27.4453 11.4536V10.8794C27.4453 9.77783 26.7539 9.07471 25.6406 9.07471H1.79297C0.679688 9.07471 0 9.77783 0 10.8794V11.4536ZM7.45312 26.1138H19.9922C22.6992 26.1138 23.543 24.5317 23.8828 22.8325L25.5117 14.852H1.94531L3.5625 22.8325C3.90234 24.5317 4.74609 26.1138 7.45312 26.1138ZM8.21484 24.0981C7.76953 24.1685 7.44141 23.9341 7.37109 23.5356L6.36328 17.6411C6.29297 17.2427 6.55078 16.9263 6.99609 16.8442C7.44141 16.7856 7.78125 17.0083 7.85156 17.4067L8.84766 23.3013C8.90625 23.6997 8.67188 24.0161 8.21484 24.0981ZM11.9297 24.0864C11.4844 24.1099 11.1562 23.8403 11.1328 23.4302L10.7461 17.606C10.7227 17.1958 11.0156 16.9028 11.4492 16.8677C11.9062 16.8325 12.2109 17.1138 12.2461 17.5239L12.6328 23.3481C12.6562 23.7583 12.3633 24.063 11.9297 24.0864ZM15.5391 24.0864C15.0938 24.063 14.8008 23.7583 14.8242 23.3481L15.2109 17.5239C15.2461 17.1138 15.5508 16.8325 16.0078 16.8677C16.4414 16.9028 16.7344 17.1958 16.7109 17.606L16.3242 23.4302C16.3008 23.8403 15.9727 24.1099 15.5391 24.0864ZM19.2305 24.0981C18.7734 24.0161 18.5391 23.6997 18.5977 23.3013L19.5938 17.4067C19.6641 17.0083 20.0039 16.7856 20.4492 16.8442C20.8945 16.9263 21.1523 17.2661 21.082 17.6645L20.0742 23.5356C20.0039 23.9341 19.6641 24.1685 19.2305 24.0981ZM3.77344 9.57861H6.11719L10.2422 2.41846C10.5586 1.85596 10.3008 1.36377 9.86719 1.12939C9.44531 0.906737 8.88281 0.941893 8.56641 1.46924L3.77344 9.57861ZM21.3281 9.57861H23.6719L18.8789 1.46924C18.5742 0.953612 18.0117 0.918456 17.5781 1.12939C17.1562 1.36377 16.8867 1.85596 17.2031 2.41846L21.3281 9.57861Z" fill="black" fill-opacity="0.85"/>
</svg>
