<svg width="28" height="28" viewBox="0 0 28 28" fill="none" xmlns="http://www.w3.org/2000/svg">
<path d="M13.9531 25.9062C20.4922 25.9062 25.9062 20.4805 25.9062 13.9531C25.9062 7.41406 20.4805 2 13.9414 2C7.41406 2 2 7.41406 2 13.9531C2 20.4805 7.42578 25.9062 13.9531 25.9062ZM13.9531 23.9141C8.42188 23.9141 4.00391 19.4844 4.00391 13.9531C4.00391 8.42188 8.41016 3.99219 13.9414 3.99219C19.4727 3.99219 23.9141 8.42188 23.9141 13.9531C23.9141 19.4844 19.4844 23.9141 13.9531 23.9141Z" fill="black" fill-opacity="0.85"/>
<path d="M10.1797 15.4062H17.1641C18.9805 15.4062 20.375 14 20.375 12.2773C20.375 10.4844 18.9102 9.17188 17.0117 9.17188C16.2969 7.78906 14.9961 6.88672 13.3789 6.88672C11.2695 6.88672 9.52344 8.55078 9.32422 10.6484C8.31641 10.9414 7.54297 11.8203 7.54297 13.0039C7.54297 14.3281 8.50391 15.4062 10.1797 15.4062ZM10.8477 18.4883L11.5391 17.293C11.6797 17.0586 11.5977 16.707 11.3398 16.5664C11.082 16.4141 10.7539 16.5195 10.6133 16.7656L9.92188 17.9492C9.78125 18.1953 9.86328 18.5469 10.1211 18.6875C10.3789 18.8398 10.707 18.7344 10.8477 18.4883ZM14.0586 18.4883L14.75 17.293C14.8906 17.0586 14.8203 16.707 14.5508 16.5664C14.3047 16.4141 13.9648 16.5195 13.8359 16.7656L13.1445 17.9492C13.0039 18.1953 13.0742 18.5469 13.3438 18.6875C13.5898 18.8398 13.9297 18.7344 14.0586 18.4883ZM17.2695 18.4883L17.9609 17.293C18.1016 17.0586 18.0312 16.707 17.7617 16.5664C17.5039 16.4141 17.1758 16.5195 17.0352 16.7656L16.3438 17.9492C16.2031 18.1953 16.2852 18.5469 16.543 18.6875C16.8008 18.8398 17.1289 18.7344 17.2695 18.4883ZM9.46484 20.8086C9.88672 20.8086 10.2383 20.4453 10.2383 20.0234C10.2383 19.6016 9.88672 19.25 9.46484 19.25C9.03125 19.25 8.67969 19.6016 8.67969 20.0234C8.67969 20.4453 9.03125 20.8086 9.46484 20.8086ZM12.6758 20.8086C13.1094 20.8086 13.4609 20.4453 13.4609 20.0234C13.4609 19.6016 13.1094 19.25 12.6758 19.25C12.2539 19.25 11.9023 19.6016 11.9023 20.0234C11.9023 20.4453 12.2539 20.8086 12.6758 20.8086ZM15.8867 20.8086C16.3086 20.8086 16.6719 20.4453 16.6719 20.0234C16.6719 19.6016 16.3086 19.25 15.8867 19.25C15.4648 19.25 15.1016 19.6016 15.1016 20.0234C15.1016 20.4453 15.4648 20.8086 15.8867 20.8086Z" fill="black" fill-opacity="0.85"/>
</svg>
