<svg width="29" height="29" viewBox="0 0 29 29" fill="none" xmlns="http://www.w3.org/2000/svg">
<g clip-path="url(#clip0_2124_46046)">
<path d="M14.8703 26.6757C19.8273 26.6757 23.1554 23.3476 23.1554 17.8633V15.2968C23.1554 12.6015 21.8781 11.0195 19.6984 10.9961C19.4289 10.1289 18.714 9.61328 17.7414 9.61328C17.3898 9.61328 17.05 9.67187 16.7101 9.78906C16.4171 8.83984 15.6437 8.26562 14.6242 8.26562C14.3546 8.26562 14.0734 8.30078 13.7921 8.38281V4.48047C13.7921 3.00391 12.8077 2.01953 11.4249 2.01953C10.0304 2.01953 9.03431 3.00391 9.03431 4.48047V14.2539C9.03431 14.3242 9.01087 14.3593 8.95228 14.3593C8.90541 14.3593 8.87025 14.3359 8.84681 14.2773L8.07337 12.414C7.67494 11.5 6.99525 11.0078 6.16322 11.0078C5.01478 11.0078 4.01869 11.7344 4.01869 13.0117C4.00697 13.375 4.089 13.8437 4.22962 14.2422L6.29212 20.0429C7.85072 24.4375 10.7452 26.6757 14.8703 26.6757ZM14.9289 25.0586C11.6593 25.0586 9.1515 23.5468 7.72181 19.539L5.64759 13.7617C5.589 13.5859 5.55384 13.4336 5.55384 13.2226C5.55384 12.8242 5.85853 12.4726 6.32728 12.4726C6.72572 12.4726 6.96009 12.707 7.12416 13.1054L8.72962 16.6679C8.98744 17.2656 9.339 17.4531 9.76087 17.4531C10.2531 17.4531 10.5929 17.0547 10.5929 16.5273V4.375C10.5929 3.88281 10.9445 3.53125 11.4249 3.53125C11.9054 3.53125 12.2335 3.88281 12.2335 4.375V13.0468C12.2335 13.457 12.5851 13.7734 12.9835 13.7734C13.3937 13.7734 13.7218 13.457 13.7218 13.0468V9.92969C13.921 9.83594 14.1906 9.76562 14.425 9.76562C15.0109 9.76562 15.3625 10.1523 15.3625 10.7734V13.4922C15.3625 13.9257 15.714 14.2187 16.1125 14.2187C16.4992 14.2187 16.8507 13.9257 16.8507 13.4922V11.2773C17.05 11.1836 17.3195 11.125 17.5421 11.125C18.1281 11.125 18.4796 11.5 18.4796 12.1211V13.9492C18.4796 14.3711 18.8429 14.664 19.2414 14.664C19.6164 14.664 19.9679 14.3711 19.9679 13.9492V12.6015C21.0109 12.6015 21.6086 13.6679 21.6086 15.5312V17.6757C21.6086 22.3867 19.0773 25.0586 14.9289 25.0586Z" fill="black" fill-opacity="0.85"/>
</g>
<defs>
<clipPath id="clip0_2124_46046">
<rect width="19.1378" height="24.668" fill="white" transform="translate(4.01758 2.01953)"/>
</clipPath>
</defs>
</svg>
