<svg width="38" height="28" viewBox="0 0 38 28" fill="none" xmlns="http://www.w3.org/2000/svg">
<g clip-path="url(#clip0_2124_89074)">
<path d="M1.49929 14.2422L12.5969 8.57031C12.843 8.44141 13.1477 8.44141 13.4173 8.57031L24.5149 14.2422C25.8626 14.9219 26.5657 13.3047 25.4641 12.7305L14.3313 6.88281C13.3821 6.39062 12.6204 6.39062 11.6829 6.88281L0.526629 12.7305C-0.551496 13.3047 0.151629 14.9219 1.49929 14.2422ZM5.55397 26.793H20.4602C22.054 26.793 22.9915 25.8789 22.9915 24.2969V15.1914C22.7923 15.0977 22.6165 15.0039 22.4173 14.8984L12.9954 10.082L3.55007 14.9102C3.37429 15.0039 3.21022 15.0859 3.02272 15.1797V24.2969C3.02272 25.8789 3.96022 26.793 5.55397 26.793ZM9.58522 24.9883V17.5352C9.58522 17.0195 9.92507 16.6797 10.4407 16.6797H15.5618C16.0774 16.6797 16.4173 17.0195 16.4173 17.5352V24.9883H9.58522ZM28.9329 26.793C29.4251 26.793 29.8235 26.3711 29.8235 25.8789V7.86719C29.9407 7.84375 30.093 7.83203 30.2688 7.83203C32.1673 7.83203 33.3508 8.75781 35.179 8.75781C35.9876 8.75781 36.3157 8.67578 36.7141 8.48828C37.1594 8.27734 37.3587 7.97266 37.3587 7.46875V2.26562C37.3587 1.94922 37.2063 1.72656 36.761 1.72656C36.4446 1.72656 35.9993 1.94922 35.1321 1.94922C33.3391 1.94922 32.1321 1 30.2219 1C29.4016 1 29.0735 1.10547 28.6868 1.26953C28.2532 1.45703 28.0305 1.79688 28.0305 2.26562V25.8789C28.0305 26.3711 28.4407 26.793 28.9329 26.793ZM1.03054 26.793H33.6907C34.1829 26.793 34.5813 26.3711 34.5813 25.8789C34.5813 25.3867 34.1829 24.9883 33.6907 24.9883H1.03054C0.538348 24.9883 0.128192 25.3867 0.128192 25.8789C0.128192 26.3711 0.538348 26.793 1.03054 26.793Z" fill="black" fill-opacity="0.85"/>
</g>
<defs>
<clipPath id="clip0_2124_89074">
<rect width="37.3587" height="25.8398" fill="white" transform="translate(0 1)"/>
</clipPath>
</defs>
</svg>
