<svg width="29" height="29" viewBox="0 0 29 29" fill="none" xmlns="http://www.w3.org/2000/svg">
<g clip-path="url(#clip0_2124_45946)">
<path d="M22.315 8.24194C24.0728 8.24194 25.4791 6.7771 25.4791 5.07788C25.4791 3.30835 24.0728 1.87866 22.315 1.87866C20.5455 1.87866 19.1275 3.30835 19.1275 5.07788C19.1275 6.82397 20.5455 8.24194 22.315 8.24194ZM3.43613 25.0115C4.0455 25.6443 5.08847 25.5974 5.82675 24.824L10.8775 19.6208C11.0416 19.445 11.1588 19.3982 11.4166 19.5036L15.3541 20.9919C17.8853 21.9646 20.2642 21.1325 21.3775 19.1169L23.9087 14.5115C24.8931 12.7185 24.5767 10.8669 22.8775 9.95288C21.2252 9.05053 19.5025 9.73022 18.5064 11.57L15.2134 17.5583L12.4244 16.5388C11.0416 16.0349 9.88144 16.199 8.77987 17.3474L3.54159 22.7615C2.81503 23.5115 2.88534 24.449 3.43613 25.0115Z" fill="black" fill-opacity="0.85"/>
<path d="M3.00195 5.15989C3.00195 5.72239 3.43555 6.1677 3.99805 6.1677H9.40039V8.31223C9.40039 9.27317 10.373 9.69505 11.0879 9.05051L14.6387 5.90989C15.1192 5.48801 15.1192 4.90208 14.6387 4.45676L11.0879 1.31613C10.4082 0.706759 9.40039 1.0466 9.40039 2.05442V4.17551H3.99805C3.43555 4.17551 3.00195 4.60911 3.00195 5.15989Z" fill="black" fill-opacity="0.85"/>
</g>
<defs>
<clipPath id="clip0_2124_45946">
<rect width="22.4766" height="25.5092" fill="white" transform="translate(3.00195 1.0127)"/>
</clipPath>
</defs>
</svg>
