<svg width="28" height="28" viewBox="0 0 28 28" fill="none" xmlns="http://www.w3.org/2000/svg">
<path d="M6.67969 24.5977H20.8945C23.3555 24.5977 24.5742 23.3789 24.5742 20.9648V6.65625C24.5742 4.24219 23.3555 3.02344 20.8945 3.02344H6.67969C4.23047 3.02344 3 4.23047 3 6.65625V20.9648C3 23.3906 4.23047 24.5977 6.67969 24.5977Z" fill="black" fill-opacity="0.85"/>
<path d="M10.1133 18.8906C8.82422 18.8906 7.58203 18.2695 7.24219 17.1445C7.17188 16.9453 7.13672 16.7344 7.13672 16.5117C7.13672 16.043 7.46484 15.75 7.94531 15.75C8.33203 15.75 8.58984 15.9492 8.70703 16.3359C8.84766 16.8984 9.24609 17.4844 10.125 17.4844C11.0156 17.4844 11.4492 16.7695 11.4492 15.9375C11.4492 14.8945 10.8984 14.332 9.87891 14.332H9.5625C9.16406 14.332 8.89453 14.0977 8.89453 13.6992C8.89453 13.3008 9.16406 13.043 9.5625 13.043H9.85547C10.7578 13.043 11.25 12.3984 11.25 11.5195C11.25 10.7227 10.875 10.1133 10.0664 10.1133C9.39844 10.1133 9.01172 10.5586 8.82422 11.2734C8.70703 11.6953 8.46094 11.8477 8.05078 11.8477C7.55859 11.8477 7.30078 11.5313 7.30078 11.1328C7.30078 10.9219 7.33594 10.7109 7.39453 10.4766C7.74609 9.41016 8.82422 8.70703 10.0664 8.70703C11.6484 8.70703 12.9023 9.65625 12.9023 11.332C12.9023 12.3398 12.3633 13.3242 11.2734 13.6055V13.6523C12.293 13.7578 13.1953 14.4961 13.1953 15.9961C13.1953 17.8008 11.8594 18.8906 10.1133 18.8906ZM17.4609 18.9258C16.3711 18.9258 15.293 18.293 14.8711 17.3086C14.7773 17.0742 14.6953 16.8047 14.6953 16.5234C14.6953 16.0781 14.9766 15.7969 15.4336 15.7969C15.7617 15.7969 16.0195 15.9727 16.1719 16.3711C16.3828 17.0273 16.7695 17.5078 17.4375 17.5078C18.3398 17.5078 18.6914 16.4883 18.6914 15.4805C18.6914 14.5898 18.3516 13.5234 17.4609 13.5234C16.9805 13.5234 16.6758 13.8047 16.3945 14.2031C16.1484 14.5312 15.9492 14.6602 15.6211 14.6602C15.0586 14.6602 14.8359 14.25 14.8359 13.793C14.8359 13.6289 14.8359 13.4414 14.8477 13.2539L15.0352 9.94922C15.082 9.31641 15.3633 8.90625 16.0078 8.90625H19.3242C19.7344 8.90625 20.0039 9.22266 20.0039 9.62109C20.0039 10.0547 19.7461 10.3477 19.3242 10.3477H16.5L16.2891 13.2656H16.3477C16.6641 12.5742 17.3203 12.2461 18.0352 12.2461C19.5938 12.2461 20.3906 13.7695 20.3906 15.4336C20.3906 17.3438 19.3477 18.9258 17.4609 18.9258Z" fill="white"/>
</svg>
