<svg width="28" height="28" viewBox="0 0 28 28" fill="none" xmlns="http://www.w3.org/2000/svg">
<path d="M13.9531 25.9062C20.4922 25.9062 25.9062 20.4805 25.9062 13.9531C25.9062 7.41406 20.4805 2 13.9414 2C7.41406 2 2 7.41406 2 13.9531C2 20.4805 7.42578 25.9062 13.9531 25.9062ZM13.9531 23.9141C8.42188 23.9141 4.00391 19.4844 4.00391 13.9531C4.00391 8.42188 8.41016 3.99219 13.9414 3.99219C19.4727 3.99219 23.9141 8.42188 23.9141 13.9531C23.9141 19.4844 19.4844 23.9141 13.9531 23.9141Z" fill="black" fill-opacity="0.85"/>
<path d="M9.42969 17.4219C11.3398 17.4219 12.8984 15.875 12.8984 13.9531C12.8984 12.0312 11.3398 10.4844 9.42969 10.4844C7.50781 10.4844 5.94922 12.0312 5.94922 13.9531C5.94922 15.875 7.50781 17.4219 9.42969 17.4219ZM18.4883 17.4219C20.3984 17.4219 21.957 15.875 21.957 13.9531C21.957 12.0312 20.3984 10.4844 18.4883 10.4844C16.5664 10.4844 15.0078 12.0312 15.0078 13.9531C15.0078 15.875 16.5664 17.4219 18.4883 17.4219ZM12.1836 9.66406C12.3945 9.875 12.7227 9.875 12.9453 9.66406L13.9414 8.65625L14.9492 9.66406C15.1602 9.875 15.4883 9.875 15.6992 9.66406C15.9219 9.45312 15.9219 9.125 15.6992 8.90234L14.7031 7.89453L15.6992 6.89844C15.9219 6.67578 15.9219 6.34766 15.6992 6.13672C15.4883 5.91406 15.1719 5.91406 14.9492 6.13672L13.9414 7.14453L12.9453 6.13672C12.7109 5.91406 12.3945 5.91406 12.1836 6.13672C11.9727 6.34766 11.9727 6.6875 12.1836 6.89844L13.1797 7.89453L12.1836 8.90234C11.9727 9.11328 11.9727 9.45312 12.1836 9.66406ZM12.1836 21.7578C12.3945 21.9805 12.7227 21.9688 12.9453 21.7578L13.9414 20.75L14.9492 21.7578C15.1602 21.9688 15.4883 21.9805 15.6992 21.7578C15.9219 21.5469 15.9102 21.207 15.6992 20.9961L14.7031 20L15.6992 18.9922C15.9102 18.7812 15.9219 18.4531 15.6992 18.2305C15.4883 18.0078 15.1602 18.0195 14.9492 18.2305L13.9414 19.2383L12.9453 18.2305C12.7227 18.0195 12.3945 18.0078 12.1836 18.2305C11.9609 18.4531 11.9727 18.7812 12.1836 18.9922L13.1797 20L12.1836 20.9961C11.9727 21.207 11.9609 21.5469 12.1836 21.7578Z" fill="black" fill-opacity="0.85"/>
</svg>
