<svg width="32" height="32" viewBox="0 0 32 32" fill="none" xmlns="http://www.w3.org/2000/svg">
<g clip-path="url(#clip0_2124_24750)">
<path d="M7.875 27.7852H23.9297C27.4805 27.7852 30.1641 25.6055 30.1641 22.1016C30.1641 18.6094 27.4805 16.4297 23.9297 16.4297H7.875C4.32422 16.4297 1.65234 18.6094 1.65234 22.1016C1.65234 25.6055 4.32422 27.7852 7.875 27.7852Z" fill="black" fill-opacity="0.85"/>
<path d="M7.875 24.75H23.9297C28.418 24.75 31.8047 21.8555 31.8047 17.4492C31.8047 13.043 28.418 10.1484 23.9297 10.1484H7.875C3.38672 10.1484 0 13.043 0 17.4492C0 21.8555 3.38672 24.75 7.875 24.75Z" fill="white"/>
<path d="M7.875 23.1445H23.9297C27.5859 23.1445 30.1992 20.9297 30.1992 17.4492C30.1992 13.9688 27.5859 11.7539 23.9297 11.7539H7.875C4.21875 11.7539 1.60547 13.9688 1.60547 17.4492C1.60547 20.9297 4.21875 23.1445 7.875 23.1445Z" fill="black" fill-opacity="0.85"/>
<path d="M17.8127 15.2344L20.9533 11.6953C22.5002 9.98438 21.4104 7.33594 19.0314 7.33594H18.5041V2.60156C18.5041 1.16016 17.344 0 15.9143 0C14.4611 0 13.3127 1.16016 13.3127 2.60156V7.33594H12.7619C10.4299 7.33594 9.28143 9.94922 10.8283 11.6836L13.9807 15.2344C15.0354 16.418 16.7463 16.4297 17.8127 15.2344Z" fill="white"/>
<path d="M16.617 14.168L19.7576 10.6289C20.3787 9.94922 20.0271 8.94141 19.031 8.94141H16.91V2.60156C16.91 2.03906 16.4646 1.60547 15.9139 1.60547C15.3396 1.60547 14.906 2.03906 14.906 2.60156V8.94141H12.7615C11.8123 8.94141 11.4021 9.91406 12.0232 10.6289L15.1756 14.168C15.5975 14.6602 16.1951 14.6602 16.617 14.168Z" fill="black" fill-opacity="0.85"/>
</g>
<defs>
<clipPath id="clip0_2124_24750">
<rect width="31.8047" height="31.0664" fill="white"/>
</clipPath>
</defs>
</svg>
