<svg width="28" height="28" viewBox="0 0 28 28" fill="none" xmlns="http://www.w3.org/2000/svg">
<g clip-path="url(#clip0_2124_32175)">
<path d="M2.46484 25.543C6.5781 25.543 9.918 22.2031 9.918 18.0898C9.918 13.9648 6.5898 10.6367 2.46484 10.6367C-1.66016 10.6367 -5 13.9648 -5 18.0898C-5 22.2148 -1.66016 25.543 2.46484 25.543ZM2.46484 23.7031C-0.65234 23.7031 -3.14844 21.207 -3.14844 18.0898C-3.14844 14.9844 -0.64062 12.4766 2.46484 12.4766C5.5703 12.4766 8.0781 14.9844 8.0781 18.0898C8.0781 21.1953 5.5703 23.7031 2.46484 23.7031ZM25.5391 25.543C29.6523 25.543 32.9922 22.2031 32.9922 18.0898C32.9922 13.9648 29.6523 10.6367 25.5391 10.6367C21.4141 10.6367 18.0625 13.9648 18.0625 18.0898C18.0625 22.2148 21.4141 25.543 25.5391 25.543ZM25.5391 23.7031C22.4219 23.7031 19.9141 21.207 19.9141 18.0898C19.9141 14.9844 22.4219 12.4766 25.5391 12.4766C28.6328 12.4766 31.1523 15.0078 31.1523 18.0898C31.1523 21.1953 28.6328 23.7031 25.5391 23.7031ZM14.9805 2.91406C14.9805 3.41797 15.3906 3.81641 15.8945 3.81641H18.9297C19.0234 3.81641 19.0469 3.83984 19.082 3.89844L24.6602 18.4297L26.3594 17.8438L20.5234 2.78516C20.3125 2.22266 19.9258 2 19.2461 2H15.8945C15.3906 2 14.9805 2.41016 14.9805 2.91406ZM22.3047 10.0273V8.33984L9.8711 10.168V11.8555L22.3047 10.0273ZM12.6953 19.1562V17.4688H2.58203V19.1562H12.6953ZM13.9844 20.5859C15.3438 20.5859 16.4453 19.4844 16.4453 18.1367C16.4453 16.7773 15.3438 15.6875 13.9844 15.6875C12.6133 15.6875 11.5352 16.7656 11.5234 18.1367C11.5 19.4727 12.6016 20.5859 13.9844 20.5859ZM13.9961 18.9805C13.5156 18.9805 13.1406 18.5938 13.1406 18.1484C13.1406 17.6797 13.5156 17.293 13.9961 17.293C14.4648 17.293 14.8281 17.668 14.8281 18.1484C14.8281 18.6055 14.4648 18.9805 13.9961 18.9805ZM2.46484 19.6133C3.30859 19.6133 4 18.9336 4 18.0898C4 17.2344 3.32031 16.5547 2.46484 16.5547C1.60938 16.5547 0.95312 17.2227 0.94141 18.0898C0.92969 18.9336 1.59766 19.6133 2.46484 19.6133ZM25.5391 19.625C26.3945 19.625 27.0625 18.9336 27.0625 18.0898C27.0625 17.2344 26.4062 16.5664 25.5391 16.5664C24.6836 16.5664 24.0156 17.2227 24.0039 18.0898C23.9922 18.9336 24.6719 19.625 25.5391 19.625ZM13.5859 16.2969L15.0977 17.1523L22.3867 9.33594L20.2656 9.26562L13.5859 16.2969ZM1.77344 17.5039L3.27344 18.3594L10.2461 11.2344L8.8047 10.2031L1.77344 17.5039ZM12.3555 17.3867L13.8555 16.3086L8.6875 6.51172L6.9297 6.88672L12.3555 17.3867ZM4.73828 6.27734C4.73828 6.78125 5.1484 7.17969 5.6523 7.17969H10.2578C10.7617 7.17969 11.1719 6.78125 11.1719 6.27734C11.1719 5.78516 10.75 5.36328 10.2578 5.36328H5.6523C5.1602 5.36328 4.73828 5.78516 4.73828 6.27734Z" fill="black" fill-opacity="0.85"/>
</g>
<defs>
<clipPath id="clip0_2124_32175">
<rect width="28" height="28" fill="white"/>
</clipPath>
</defs>
</svg>
