<svg width="28" height="28" viewBox="0 0 28 28" fill="none" xmlns="http://www.w3.org/2000/svg">
<g clip-path="url(#clip0_2124_88405)">
<path d="M10.4883 19.9492C10.4883 20.3125 10.7695 20.6055 11.1445 20.6055C11.4961 20.6055 11.7891 20.3125 11.7891 19.9492V17.5234C11.7891 17.1719 11.4961 16.8789 11.1445 16.8789C10.7695 16.8789 10.4883 17.1719 10.4883 17.5234V19.9492ZM13.1719 19.9492C13.1719 20.3125 13.4648 20.6055 13.8398 20.6055C14.1914 20.6055 14.4844 20.3125 14.4844 19.9492V17.5234C14.4844 17.1719 14.1914 16.8789 13.8398 16.8789C13.4648 16.8789 13.1719 17.1719 13.1719 17.5234V19.9492ZM15.8672 19.9492C15.8672 20.3125 16.1602 20.6055 16.5234 20.6055C16.8867 20.6055 17.1797 20.3125 17.1797 19.9492V17.5234C17.1797 17.1719 16.8867 16.8789 16.5234 16.8789C16.1602 16.8789 15.8672 17.1719 15.8672 17.5234V19.9492ZM18.5625 19.9492C18.5625 20.3125 18.8438 20.6055 19.2188 20.6055C19.582 20.6055 19.8633 20.3125 19.8633 19.9492V17.5234C19.8633 17.1719 19.582 16.8789 19.2188 16.8789C18.8438 16.8789 18.5625 17.1719 18.5625 17.5234V19.9492ZM21.2578 19.9492C21.2578 20.3125 21.5391 20.6055 21.9141 20.6055C22.2656 20.6055 22.5586 20.3125 22.5586 19.9492V17.5234C22.5586 17.1719 22.2656 16.8789 21.9141 16.8789C21.5391 16.8789 21.2578 17.1719 21.2578 17.5234V19.9492ZM0 18.7422C0 21.7188 2.30859 24.0273 5.56641 24.0273H22.1016C25.3594 24.0273 27.668 21.7188 27.668 18.7422C27.668 17.8633 27.4102 17.0781 27.1055 16.3398L23.1562 6.85938C22.3828 4.98438 20.7891 4.02344 18.6914 4.02344H8.97656C6.87891 4.02344 5.28516 4.98438 4.51172 6.85938L0.550781 16.3398C0.257812 17.0664 0 17.8633 0 18.7422ZM1.88672 18.7422C1.88672 16.8086 3.35156 15.3438 5.56641 15.3438H22.1016C24.3164 15.3438 25.7812 16.8086 25.7812 18.7422C25.7812 20.9102 24.3164 22.1406 22.1016 22.1406H5.56641C3.35156 22.1406 1.88672 20.6758 1.88672 18.7422ZM3.78516 13.7617L6.33984 7.33984C6.78516 6.22656 7.74609 5.66406 9.07031 5.66406H18.5977C19.9219 5.66406 20.8945 6.22656 21.3281 7.33984L23.8828 13.7617C23.332 13.5625 22.7461 13.457 22.1016 13.457H5.56641C4.92188 13.457 4.32422 13.5625 3.78516 13.7617Z" fill="black" fill-opacity="0.85"/>
</g>
<defs>
<clipPath id="clip0_2124_88405">
<rect width="27.668" height="20.0273" fill="white" transform="translate(0 4)"/>
</clipPath>
</defs>
</svg>
