<svg width="28" height="28" viewBox="0 0 28 28" fill="none" xmlns="http://www.w3.org/2000/svg">
<path d="M14.4531 25.9336C17.2891 25.9336 18.9766 24.5977 18.9766 22.3477V18.3867C18.9766 16.1367 17.2891 14.8008 14.4531 14.8008C11.6055 14.8008 9.91797 16.1367 9.91797 18.3867V22.3477C9.91797 24.5977 11.6055 25.9336 14.4531 25.9336Z" fill="black" fill-opacity="0.85"/>
<path d="M14.4531 22.3242C22.457 22.3242 27.8945 18.5859 27.8945 13.0547C27.8945 7.52344 22.4453 3.78516 14.4297 3.78516C6.4375 3.78516 1 7.53516 1 13.0547C1 18.5859 6.4375 22.3242 14.4531 22.3242Z" fill="white"/>
<path d="M14.4531 20.9648C21.7656 20.9648 26.5352 17.7305 26.5352 13.0547C26.5352 8.39062 21.7539 5.15625 14.4297 5.15625C7.12891 5.15625 2.37109 8.39062 2.37109 13.0547C2.37109 17.7305 7.12891 20.9648 14.4531 20.9648ZM14.4531 18.9492C8.48828 18.9492 4.49219 16.5586 4.49219 13.0547C4.49219 9.55078 8.48828 7.17188 14.4297 7.17188C20.3945 7.17188 24.4141 9.55078 24.4141 13.0547C24.4141 16.5586 20.4062 18.9492 14.4531 18.9492Z" fill="black" fill-opacity="0.85"/>
<path d="M12.8125 16.7227H16.4219C16.8789 16.7227 17.1953 16.4062 17.1953 15.9727C17.1953 15.5156 16.8789 15.2109 16.4219 15.2109H13.6797V9.92578C13.6797 9.33984 13.3398 8.98828 12.8125 8.98828C12.2969 8.98828 11.9453 9.35156 11.9453 9.92578V15.7852C11.9453 16.3477 12.2852 16.7227 12.8125 16.7227Z" fill="black" fill-opacity="0.85"/>
</svg>
