<svg width="28" height="28" viewBox="0 0 28 28" fill="none" xmlns="http://www.w3.org/2000/svg">
<g clip-path="url(#clip0_2124_32157)">
<path d="M3.34766 22.3477H25.0391V6.25781C25.0391 4.82812 24.207 3.98438 22.6484 3.79688C20.375 3.51562 17.1992 3.36328 14.1875 3.36328C11.1758 3.36328 8 3.51562 5.71484 3.79688C4.16797 3.98438 3.34766 4.82812 3.34766 6.25781V22.3477ZM5.73828 14.7891V8.94141C5.73828 7.6875 6.72266 6.69141 8 6.69141C9.25391 6.69141 10.25 7.6875 10.25 8.94141V14.7891C10.25 15.1523 10.0039 15.3984 9.61719 15.3984H6.37109C5.98438 15.3984 5.73828 15.1523 5.73828 14.7891ZM11.6562 14.7891V8.60156C11.6562 7.08984 12.6641 6.08203 14.1875 6.08203C15.7109 6.08203 16.7188 7.08984 16.7188 8.60156V14.7891C16.7188 15.1523 16.4844 15.3984 16.0859 15.3984H12.2773C11.8906 15.3984 11.6562 15.1523 11.6562 14.7891ZM18.1133 14.7891V8.94141C18.1133 7.6875 19.1094 6.69141 20.3867 6.69141C21.6406 6.69141 22.6367 7.6875 22.6367 8.94141V14.7891C22.6367 15.1523 22.3906 15.3984 22.0039 15.3984H18.7578C18.3711 15.3984 18.1133 15.1523 18.1133 14.7891ZM14.1875 20.9883C13.0977 20.9883 12.3008 20.1914 12.3008 19.125C12.3008 18.0352 13.0977 17.1914 14.1875 17.1914C15.2539 17.1914 16.0977 18.0352 16.0977 19.125C16.0977 20.1914 15.2539 20.9883 14.1875 20.9883ZM2 23.0977C2 23.6133 2.42188 24.0469 2.9375 24.0469H25.4492C25.9648 24.0469 26.3867 23.6133 26.3867 23.0977C26.3867 22.582 25.9648 22.1602 25.4492 22.1602H2.9375C2.42188 22.1602 2 22.582 2 23.0977ZM6.62891 1.30078C6.62891 1.82812 7.07422 2.33203 7.625 2.26172C9.37109 2.05078 11.7852 1.95703 14.1875 1.95703C16.5898 1.95703 19.0156 2.05078 20.7617 2.26172C21.3008 2.33203 21.7461 1.82812 21.7461 1.30078C21.7461 0.773438 21.3242 0.386719 20.7617 0.316406C18.9922 0.105469 16.5547 0 14.1875 0C11.832 0 9.39453 0.105469 7.61328 0.316406C7.0625 0.386719 6.62891 0.773438 6.62891 1.30078ZM7.96484 0.996094V4.20703H9.5V0.996094H7.96484ZM18.8867 0.996094V4.20703H20.4219V0.996094H18.8867ZM5.90234 28.582H6.55859C6.875 28.582 7.0625 28.4766 7.23828 28.1953L10.5664 22.8164H8.32812L5.375 27.5625C5.07031 28.0547 5.35156 28.582 5.90234 28.582ZM21.418 28.582H22.0742C22.6133 28.582 22.8945 28.0547 22.5898 27.5625L19.6367 22.8164H17.3984L20.7266 28.1953C20.9023 28.4766 21.0898 28.582 21.418 28.582Z" fill="black" fill-opacity="0.85"/>
</g>
<defs>
<clipPath id="clip0_2124_32157">
<rect width="28" height="28" fill="white"/>
</clipPath>
</defs>
</svg>
