<svg width="28" height="28" viewBox="0 0 28 28" fill="none" xmlns="http://www.w3.org/2000/svg">
<path d="M2.525 27.5508H2.5836C6.23985 27.5508 6.54453 25.1719 8.45469 25.1719C10.3062 25.1719 10.8219 27.5508 14.0211 27.5508C17.2086 27.5508 17.7242 25.1719 19.5758 25.1719C21.4859 25.1719 21.7906 27.5508 25.4469 27.5508H25.5055C25.9625 27.5508 26.3258 27.1875 26.3258 26.7305C26.3258 26.2734 25.9625 25.8984 25.5055 25.8984H25.4469C24.1813 25.8984 23.4781 25.3828 22.5875 24.75C21.8258 24.1992 20.8766 23.5195 19.5758 23.5195C18.2398 23.5195 17.2789 24.2461 16.5172 24.8086C15.7086 25.4297 15.0641 25.8984 14.0211 25.8984C12.9664 25.8984 12.3336 25.4297 11.525 24.8086C10.7633 24.2461 9.79063 23.5195 8.45469 23.5195C7.15391 23.5195 6.20469 24.1992 5.44297 24.75C4.55235 25.3828 3.84922 25.8984 2.5836 25.8984H2.525C2.06797 25.8984 1.70469 26.2734 1.70469 26.7305C1.70469 27.1875 2.06797 27.5508 2.525 27.5508ZM1.51719 20.3438L4.0836 23.7539C4.2125 23.6719 4.35313 23.5664 4.50547 23.4609C5.84141 22.4883 6.98985 21.9258 8.45469 21.9258C9.96641 21.9258 11.1031 22.5234 12.4859 23.5312C13.3063 24.1641 13.5406 24.3047 14.0211 24.3047C14.4664 24.3047 14.7008 24.1641 15.4039 23.6484C16.8453 22.5469 18.0172 21.9258 19.5758 21.9258C21.0523 21.9258 22.1891 22.4883 23.525 23.4609C23.6773 23.5664 23.818 23.6719 23.9586 23.7539L26.5133 20.3438C27.5914 18.9375 26.9234 17.3203 25.0719 17.3203H2.9586C1.10704 17.3203 0.439066 18.9375 1.51719 20.3438ZM7.41172 4.89844C7.62266 3.94922 8.03282 2.73047 8.31407 2.23828C8.54844 1.83984 8.80625 1.65234 9.26328 1.59375C9.91953 1.5 11.3727 1.45312 14.0211 1.45312C16.6578 1.45312 18.1227 1.48828 18.7672 1.59375C19.2359 1.66406 19.482 1.83984 19.7164 2.23828C20.0094 2.71875 20.3961 3.94922 20.6188 4.89844C20.7008 5.21484 20.5602 5.33203 20.232 5.32031C18.8141 5.22656 17.1148 5.13281 14.0211 5.13281C10.9156 5.13281 9.22813 5.22656 7.79844 5.32031C7.47032 5.33203 7.34141 5.21484 7.41172 4.89844ZM7.8336 11.2148C7.06016 11.2148 6.4625 10.6289 6.4625 9.84375C6.4625 9.05859 7.06016 8.47266 7.8336 8.47266C8.61875 8.47266 9.20469 9.05859 9.20469 9.84375C9.20469 10.6289 8.61875 11.2148 7.8336 11.2148ZM11.7477 10.8867C11.1734 10.8867 10.7633 10.4766 10.7633 9.89062C10.7633 9.30469 11.1734 8.90625 11.7477 8.90625H16.2828C16.8688 8.90625 17.2672 9.30469 17.2672 9.89062C17.2672 10.4766 16.8688 10.8867 16.2828 10.8867H11.7477ZM20.1969 11.2148C19.4117 11.2148 18.8258 10.6289 18.8258 9.84375C18.8258 9.05859 19.4117 8.47266 20.1969 8.47266C20.982 8.47266 21.568 9.05859 21.568 9.84375C21.568 10.6289 20.982 11.2148 20.1969 11.2148ZM14.0211 13.5352C16.8922 13.5352 20.7242 13.3828 22.3414 13.207C23.5016 13.0664 24.1461 12.4336 24.1461 11.332V9.82031C24.1461 8.37891 23.8531 7.57031 23.068 6.55078L22.3414 5.61328C22.025 4.06641 21.4508 2.44922 21.1578 1.81641C20.7008 0.84375 19.8102 0.28125 18.6734 0.128906C18.1109 0.046875 16.2242 0 14.0211 0C11.8063 0 9.93125 0.0585938 9.35703 0.128906C8.22032 0.257812 7.32969 0.84375 6.87266 1.81641C6.57969 2.44922 6.00547 4.06641 5.68907 5.61328L4.97422 6.55078C4.17735 7.57031 3.88438 8.37891 3.88438 9.82031V11.332C3.88438 12.4336 4.52891 13.0664 5.68907 13.207C7.31797 13.3828 11.1383 13.5352 14.0211 13.5352ZM5.0211 15.8906H6.02891C6.67344 15.8906 7.16563 15.3984 7.16563 14.7656V12.6328L3.88438 11.0625V14.7656C3.88438 15.3984 4.37657 15.8906 5.0211 15.8906ZM22.0016 15.8906H23.0094C23.6539 15.8906 24.1461 15.3984 24.1461 14.7656V11.0625L20.8766 12.6328V14.7656C20.8766 15.3984 21.3688 15.8906 22.0016 15.8906Z" fill="black" fill-opacity="0.85"/>
</svg>
