<svg width="34" height="28" viewBox="0 0 34 28" fill="none" xmlns="http://www.w3.org/2000/svg">
<g clip-path="url(#clip0_2124_24882)">
<path d="M4.86 24.082H28.3327C31.778 24.082 33.5709 21.8672 33.1256 18.1875L31.86 7.62891C31.5084 4.64062 29.7858 3 27.0553 3H6.13735C3.40688 3 1.68422 4.64062 1.33266 7.62891L0.0670356 18.1875C-0.378277 21.8672 1.41469 24.082 4.86 24.082ZM4.86 22.1953C2.73891 22.1953 1.64907 20.6719 1.96547 18.0352L3.19594 7.85156C3.43032 5.94141 4.46157 4.88672 6.13735 4.88672H27.0553C28.7311 4.88672 29.7623 5.94141 29.985 7.85156L31.2155 18.0352C31.5436 20.6836 30.4538 22.1953 28.3327 22.1953H4.86Z" fill="black" fill-opacity="0.85"/>
<path d="M8.89111 16.8516C9.32471 16.8516 9.68799 16.6406 9.68799 16.3477V13.043C10.9185 12.7148 11.8326 11.5664 11.8326 10.2188C11.8326 8.60156 10.5083 7.27734 8.89111 7.27734C7.26221 7.27734 5.94971 8.61328 5.94971 10.2188C5.94971 11.5781 6.86377 12.7148 8.10596 13.0664V16.3477C8.10596 16.6406 8.45752 16.8516 8.89111 16.8516ZM8.89111 19.3359C11.2701 19.3359 12.9341 18.0586 12.9341 16.2539C12.9341 14.9883 12.1138 13.9922 10.8247 13.5V15.0352C11.2583 15.3281 11.5162 15.75 11.5162 16.2539C11.5162 17.3203 10.438 18.0703 8.89111 18.0703C7.34424 18.0703 6.2544 17.3203 6.2544 16.2539C6.2544 15.7383 6.52393 15.3164 6.96924 15.0234V13.5C5.65674 13.9805 4.83643 14.9883 4.83643 16.2539C4.83643 18.0586 6.51221 19.3359 8.89111 19.3359ZM15.7349 12.7969C16.6841 12.7969 17.4458 12.0352 17.4458 11.0977C17.4458 10.1484 16.6841 9.38672 15.7349 9.38672C14.7974 9.38672 14.0357 10.1484 14.0357 11.0977C14.0357 12.0352 14.7974 12.7969 15.7349 12.7969ZM20.6919 12.7969C21.6294 12.7969 22.4029 12.0352 22.4029 11.0977C22.4029 10.1484 21.6294 9.38672 20.6919 9.38672C19.7427 9.38672 18.981 10.1484 18.981 11.0977C18.981 12.0352 19.7427 12.7969 20.6919 12.7969ZM25.6255 12.7969C26.563 12.7969 27.3365 12.0352 27.3365 11.0977C27.3365 10.1484 26.563 9.38672 25.6255 9.38672C24.688 9.38672 23.9146 10.1484 23.9146 11.0977C23.9146 12.0352 24.688 12.7969 25.6255 12.7969ZM17.3872 17.7305C18.3247 17.7305 19.0865 16.9688 19.0865 16.0312C19.0865 15.082 18.3247 14.3203 17.3872 14.3203C16.438 14.3203 15.6763 15.082 15.6763 16.0312C15.6763 16.9688 16.438 17.7305 17.3872 17.7305ZM22.3326 17.7305C23.2818 17.7305 24.0435 16.9688 24.0435 16.0312C24.0435 15.082 23.2818 14.3203 22.3326 14.3203C21.3951 14.3203 20.6333 15.082 20.6333 16.0312C20.6333 16.9688 21.3951 17.7305 22.3326 17.7305ZM27.2779 17.7305C28.2271 17.7305 28.9888 16.9688 28.9888 16.0312C28.9888 15.082 28.2271 14.3203 27.2779 14.3203C26.3404 14.3203 25.5787 15.082 25.5787 16.0312C25.5787 16.9688 26.3404 17.7305 27.2779 17.7305Z" fill="black" fill-opacity="0.85"/>
</g>
<defs>
<clipPath id="clip0_2124_24882">
<rect width="33.1927" height="21.082" fill="white" transform="translate(0 3)"/>
</clipPath>
</defs>
</svg>
