<svg width="28" height="28" viewBox="0 0 28 28" fill="none" xmlns="http://www.w3.org/2000/svg">
<path d="M6.67969 24.5977H20.8945C23.3555 24.5977 24.5742 23.3789 24.5742 20.9648V6.65625C24.5742 4.24219 23.3555 3.02344 20.8945 3.02344H6.67969C4.23047 3.02344 3 4.23047 3 6.65625V20.9648C3 23.3906 4.23047 24.5977 6.67969 24.5977Z" fill="black" fill-opacity="0.85"/>
<path d="M12.1641 19.5352C11.6367 19.5352 11.2031 19.1719 11.2031 18.6562C11.2031 18.4102 11.2617 18.2461 11.3789 18.0352L15.8086 9.90234V9.80859H10.6875C10.2656 9.80859 9.96094 9.49219 9.96094 9.05859C9.96094 8.61328 10.2539 8.30859 10.6875 8.30859H16.5938C17.3906 8.30859 17.918 8.8125 17.918 9.48047C17.918 9.73828 17.8594 9.98438 17.625 10.4297L13.125 18.8672C12.8789 19.3359 12.5859 19.5352 12.1641 19.5352Z" fill="white"/>
</svg>
