<svg width="28" height="28" viewBox="0 0 28 28" fill="none" xmlns="http://www.w3.org/2000/svg">
<g clip-path="url(#clip0_2124_62627)">
<path d="M6.67969 24.5977H20.8945C23.3555 24.5977 24.5742 23.3789 24.5742 20.9648V6.65625C24.5742 4.24219 23.3555 3.02344 20.8945 3.02344H6.67969C4.23047 3.02344 3 4.23047 3 6.65625V20.9648C3 23.3906 4.23047 24.5977 6.67969 24.5977Z" fill="black" fill-opacity="0.85"/>
<path d="M9.85547 18.7148C9.31641 18.7148 8.89453 18.2812 8.89453 17.7422C8.89453 17.4844 8.98828 17.2383 9.17578 17.0625L12.4219 13.8047L9.17578 10.5586C8.98828 10.3711 8.89453 10.1367 8.89453 9.87891C8.89453 9.32812 9.31641 8.91797 9.85547 8.91797C10.125 8.91797 10.3359 9.01172 10.5234 9.1875L13.793 12.4453L17.0859 9.17578C17.2852 8.97656 17.5078 8.89453 17.7539 8.89453C18.293 8.89453 18.7266 9.31641 18.7266 9.85547C18.7266 10.125 18.6445 10.3359 18.4453 10.5469L15.1758 13.8047L18.4336 17.0508C18.6211 17.2266 18.7148 17.4727 18.7148 17.7422C18.7148 18.2812 18.2812 18.7148 17.7305 18.7148C17.4727 18.7148 17.2148 18.6211 17.0391 18.4336L13.793 15.1758L10.5586 18.4336C10.3711 18.6211 10.125 18.7148 9.85547 18.7148Z" fill="white"/>
</g>
<defs>
<clipPath id="clip0_2124_62627">
<rect width="21.5742" height="21.5977" fill="white" transform="translate(3 3)"/>
</clipPath>
</defs>
</svg>
