<svg width="42" height="28" viewBox="0 0 42 28" fill="none" xmlns="http://www.w3.org/2000/svg">
<path d="M0.669518 11.6562L6.68123 20.9023C7.39608 21.9922 8.35702 22.3789 9.79842 22.3789H19.9234C21.7047 22.3789 22.8531 21.9219 23.6734 20.8906L31.5601 10.7773L36.107 9.58203L37.7242 10.9648C38.6851 11.7969 39.939 10.5664 38.9664 9.69922L37.1969 8.15234C36.8219 7.82422 36.482 7.69531 35.732 7.89453L21.5875 11.6562L19.6656 9.79297C19.1383 9.28906 18.5758 9.16016 17.8609 9.16016H9.79842C9.45858 9.16016 9.15389 9.18359 8.87264 9.24219L3.68123 7.28516C0.892174 6.23047 -1.10002 8.97266 0.669518 11.6562ZM1.80623 10.332C1.2203 9.40625 1.89998 8.45703 2.93123 8.83203L6.88045 10.3555C6.4703 10.918 6.24764 11.6914 6.24764 12.6758V17.1641L1.80623 10.332ZM9.58748 5.85547C9.58748 6.32422 9.98592 6.71094 10.4547 6.71094H17.3805C17.8492 6.71094 18.2476 6.32422 18.2476 5.85547C18.2476 5.38672 17.8492 5 17.3805 5H10.4547C9.98592 5 9.58748 5.38672 9.58748 5.85547ZM13.0562 10.2969H14.7672V5.69141H13.0562V10.2969ZM38.4976 23.4688C40.0797 23.4688 41.3922 22.2148 41.3922 20.6211C41.3922 19.7188 40.9469 18.8633 40.5015 18.043L38.7672 14.8203C38.7086 14.7031 38.6031 14.6445 38.4976 14.6445C38.3687 14.6445 38.2984 14.7031 38.2398 14.832L36.482 18.043C36.0484 18.8633 35.6031 19.7188 35.6031 20.6211C35.6031 22.2148 36.9039 23.4688 38.4976 23.4688Z" fill="black" fill-opacity="0.85"/>
</svg>
