<svg width="28" height="28" viewBox="0 0 28 28" fill="none" xmlns="http://www.w3.org/2000/svg">
<g clip-path="url(#clip0_2124_67799)">
<path d="M15.4766 27.9141C19.8008 27.9141 22.4609 26.3789 22.4609 23.7305V18.0117C24.3008 16.4062 25.3672 13.8281 25.3672 11.0039C25.3672 4.40625 21.0547 0 14.6445 0C8.25781 0 3.98047 4.30078 3.98047 10.7578C3.98047 11.1211 3.99219 11.4258 4.02734 11.7305L2.59766 14.3086C2.19922 15.0117 2 15.7031 2 16.3359C2 17.543 2.73828 18.5391 3.99219 18.8672V21.1172C3.99219 23.2266 5.49219 24.293 7.40234 24.0703L8.62109 23.9531L8.60938 24.0352C8.78516 26.4961 11.375 27.9141 15.4766 27.9141Z" fill="black" fill-opacity="0.85"/>
<path d="M10.625 12.457C8.65625 12.457 7.37891 10.9336 7.37891 8.94141C7.37891 8.23828 7.60156 7.53516 8 6.94922C8.35156 7.6875 9.11328 8.15625 10.0977 8.15625C10.4141 8.15625 10.6953 7.88671 10.6953 7.58202C10.6953 7.26561 10.4258 7.00781 10.0977 7.00781C9.41797 7.00781 8.89062 6.4453 8.89062 5.70702C8.89062 4.53515 10.0039 3.64453 11.4453 3.64453C11.6562 3.64453 11.8437 3.66797 12.0547 3.69141C11.9141 4.00781 11.7734 4.34765 11.7617 4.83983C11.7383 5.17968 11.9844 5.44922 12.3359 5.44922C12.6641 5.44922 12.8984 5.22655 12.8984 4.87499C12.9102 3.77343 13.7422 3.04688 14.9023 3.04688C15.582 3.04688 16.3086 3.375 16.8008 3.92578C16.9297 3.89062 17.0703 3.87891 17.5508 3.87891C18.8867 3.87891 19.9531 4.95703 19.9531 6.31641C19.9531 9.09375 15.3945 9.62109 15.3945 12.7031C15.3945 12.8906 15.4297 13.0664 15.4883 13.2422C15.1602 13.3008 14.8203 13.3359 14.5156 13.3359C13.8125 13.3359 13.168 13.1836 12.6172 12.8906C13.6016 12.3633 14.1758 11.4141 14.1758 10.2305C14.1758 9.96094 14.1523 9.69141 14.082 9.43359C15.3945 9.14061 16.0977 8.26171 16.0859 6.87891C16.0859 6.57421 15.8281 6.30468 15.5234 6.30468C15.2188 6.30468 14.9609 6.56249 14.9609 6.87891C14.9609 7.78125 14.4922 8.33203 13.543 8.46094C13.5195 8.39062 13.4492 8.27344 13.3789 8.21484C13.25 8.08594 13.0859 8.05078 12.9453 8.05078C12.6406 8.05078 12.3945 8.27344 12.3945 8.56641C12.3945 8.73047 12.4648 8.92969 12.6641 9.11719C12.9102 9.36328 13.0625 9.75 13.0625 10.207C13.0625 11.5195 12.0547 12.457 10.625 12.457ZM19.6602 15.7148C18.7695 15.7148 18.0547 14.9531 17.8555 13.8398H17.6562C16.8594 13.8398 16.3906 13.3594 16.3906 12.6797C16.3906 10.3242 20.6445 9.86718 20.9727 6.52733C21.8398 7.03124 22.3789 7.92188 22.3789 9C22.3789 10.1836 21.5234 10.9102 20.1992 10.8164C19.9062 10.793 19.6367 11.0625 19.6367 11.3789C19.6367 11.6719 19.8594 11.918 20.1758 11.9531C20.8203 11.9883 21.3828 11.8945 21.8633 11.6836C21.875 11.8594 21.875 12.0469 21.875 12.2109C21.875 14.25 20.9492 15.7148 19.6602 15.7148Z" fill="white"/>
</g>
<defs>
<clipPath id="clip0_2124_67799">
<rect width="23.3672" height="27.9961" fill="white" transform="translate(2)"/>
</clipPath>
</defs>
</svg>
