<svg width="28" height="28" viewBox="0 0 28 28" fill="none" xmlns="http://www.w3.org/2000/svg">
<path d="M6.67969 24.5977H20.8945C23.3555 24.5977 24.5742 23.3789 24.5742 20.9648V6.65625C24.5742 4.24219 23.3555 3.02344 20.8945 3.02344H6.67969C4.23047 3.02344 3 4.23047 3 6.65625V20.9648C3 23.3906 4.23047 24.5977 6.67969 24.5977Z" fill="black" fill-opacity="0.85"/>
<path d="M11.6836 20.5781C11.1797 20.5781 10.793 20.2148 10.793 19.7109C10.793 19.2422 11.1797 18.8555 11.6836 18.8555H13.1719V13.3477H11.8828C11.3906 13.3477 11.0039 12.9844 11.0039 12.4805C11.0039 12.0117 11.3906 11.625 11.8828 11.625H14.1562C14.7773 11.625 15.1055 12.0703 15.1055 12.7266V18.8555H16.5938C17.0977 18.8555 17.4844 19.2422 17.4844 19.7109C17.4844 20.2148 17.0977 20.5781 16.5938 20.5781H11.6836ZM13.6875 9.63281C12.8086 9.63281 12.1055 8.92969 12.1055 8.03906C12.1055 7.14844 12.8086 6.44531 13.6875 6.44531C14.5664 6.44531 15.2578 7.14844 15.2578 8.03906C15.2578 8.92969 14.5664 9.63281 13.6875 9.63281Z" fill="white"/>
</svg>
