<svg width="28" height="28" viewBox="0 0 28 28" fill="none" xmlns="http://www.w3.org/2000/svg">
<path d="M13.9531 25.9062C20.4922 25.9062 25.9062 20.4805 25.9062 13.9531C25.9062 7.41406 20.4805 2 13.9414 2C7.41406 2 2 7.41406 2 13.9531C2 20.4805 7.42578 25.9062 13.9531 25.9062ZM13.9531 23.9141C8.42188 23.9141 4.00391 19.4844 4.00391 13.9531C4.00391 8.42188 8.41016 3.99219 13.9414 3.99219C19.4727 3.99219 23.9141 8.42188 23.9141 13.9531C23.9141 19.4844 19.4844 23.9141 13.9531 23.9141Z" fill="black" fill-opacity="0.85"/>
<path d="M8.65672 17.0938L9.16063 20.3867C9.21922 20.7266 9.38328 20.9258 9.69969 20.9258C10.0161 20.9258 10.2505 20.6914 10.1919 20.3047L9.73485 17.2695C9.67625 16.9062 9.79344 16.7539 10.2153 16.6367C10.3677 16.5898 10.52 16.5547 10.6841 16.5078C10.602 16.7305 10.5669 16.9766 10.5669 17.2812C10.5669 19.3555 12.1372 21.3125 13.9536 21.3125C15.77 21.3125 17.3403 19.3555 17.3403 17.2812C17.3403 16.9766 17.3052 16.7305 17.2232 16.5078C17.3755 16.5547 17.5278 16.5898 17.6919 16.6367C18.1138 16.7539 18.2193 16.9062 18.1724 17.2695L17.7036 20.3047C17.645 20.6914 17.8794 20.9258 18.2075 20.9258C18.5239 20.9258 18.688 20.7266 18.7349 20.3867L19.2505 17.0938C19.3794 16.3438 19.063 15.9336 18.2427 15.7227L15.4771 15.0664C15.6763 14.9844 15.9224 14.7148 16.0278 14.3516L17.856 14.0938C18.6528 13.9766 19.0278 13.5312 19.0278 12.7344V10.5313C19.0278 10.2148 18.8403 10.0156 18.5005 10.0156C18.1841 10.0156 17.9966 10.2148 17.9966 10.5313V12.5352C17.9966 12.9688 17.7622 13.0977 17.3638 13.1562L16.0044 13.3555C15.9458 13.1445 15.8169 12.957 15.688 12.8516C16.731 12.6406 17.2583 11.9961 17.2583 11.0117C17.2583 10.2148 16.9771 9.47656 16.4849 8.90234L16.52 8.86719C17.1411 8.42188 17.27 7.74219 16.8482 7.02734L16.4849 6.41797C16.356 6.19531 16.2153 6.08984 15.9927 6.08984C15.7232 6.08984 15.5122 6.28906 15.5122 6.55859C15.5122 6.67578 15.5357 6.75781 15.606 6.875L15.9341 7.36719C16.1099 7.67188 16.1802 7.92969 15.9458 8.11719L15.7935 8.24609C15.2427 7.89453 14.5513 7.68359 13.9536 7.68359C13.3443 7.68359 12.6528 7.89453 12.1021 8.24609L11.9497 8.11719C11.727 7.92969 11.7973 7.67188 11.9731 7.36719L12.2896 6.875C12.3716 6.75781 12.3833 6.67578 12.3833 6.55859C12.3833 6.28906 12.1841 6.08984 11.9028 6.08984C11.6919 6.08984 11.5278 6.18359 11.4106 6.41797L11.0473 7.02734C10.6489 7.75391 10.7544 8.42188 11.3872 8.86719L11.4106 8.90234C10.9184 9.47656 10.6372 10.2148 10.6372 11.0117C10.6372 11.9844 11.1762 12.6406 12.2193 12.8398C12.0903 12.9453 11.9497 13.1445 11.9028 13.3555L10.5317 13.1562C10.145 13.1094 9.89891 12.9688 9.89891 12.5352V10.5313C9.89891 10.2148 9.72313 10.0156 9.395 10.0156C9.06688 10.0156 8.87938 10.2148 8.87938 10.5313V12.7344C8.87938 13.5312 9.24266 13.9766 10.0512 14.0938L11.8794 14.3516C11.9731 14.7148 12.2193 14.9727 12.4302 15.0664L9.66453 15.7227C8.84422 15.9219 8.52781 16.3438 8.65672 17.0938Z" fill="black" fill-opacity="0.85"/>
</svg>
