<svg width="28" height="28" viewBox="0 0 28 28" fill="none" xmlns="http://www.w3.org/2000/svg">
<path d="M13.9531 25.9062C20.4922 25.9062 25.9062 20.4805 25.9062 13.9531C25.9062 7.41406 20.4805 2 13.9414 2C7.41406 2 2 7.41406 2 13.9531C2 20.4805 7.42578 25.9062 13.9531 25.9062ZM13.9531 23.9141C8.42188 23.9141 4.00391 19.4844 4.00391 13.9531C4.00391 8.42188 8.41016 3.99219 13.9414 3.99219C19.4727 3.99219 23.9141 8.42188 23.9141 13.9531C23.9141 19.4844 19.4844 23.9141 13.9531 23.9141Z" fill="black" fill-opacity="0.85"/>
<path d="M10.8008 20.7969H17.1055C17.8555 20.7969 18.3125 20.3633 18.3125 19.5781V19.4258C18.3125 17.6328 16.4141 15.7227 15.3711 14.6797C14.8555 14.1758 14.8906 13.6602 15.3711 13.2031C16.4141 12.1719 18.3125 10.2617 18.3125 8.45703V8.32812C18.3125 7.53125 17.8555 7.09766 17.1055 7.09766H10.8008C10.0508 7.09766 9.59375 7.53125 9.59375 8.32812V8.45703C9.59375 10.2617 11.4922 12.1719 12.5352 13.2031C13.0156 13.6602 13.0508 14.1758 12.5352 14.6797C11.4922 15.7227 9.59375 17.6328 9.59375 19.4258V19.5781C9.59375 20.3633 10.0508 20.7969 10.8008 20.7969ZM11.375 19.7891C11.0469 19.7891 10.9883 19.4141 11.1992 19.2148L13.4258 16.9414C13.5078 16.8594 13.543 16.8242 13.543 16.707V13.4141C13.543 13.0859 13.4727 12.9219 13.2383 12.6992C12.7227 12.1836 12.1836 11.6562 11.7266 11.1641C11.5156 10.9648 11.6328 10.7422 11.8672 10.7422H16.0508C16.2852 10.7422 16.3906 10.9648 16.1914 11.1641C15.7227 11.6562 15.1836 12.1836 14.668 12.6992C14.4336 12.9219 14.3633 13.0859 14.3633 13.4141V16.707C14.3633 16.8242 14.3984 16.8594 14.4805 16.9414L16.707 19.2148C16.918 19.4141 16.8594 19.7891 16.5312 19.7891H11.375Z" fill="black" fill-opacity="0.85"/>
</svg>
