<svg width="28" height="28" viewBox="0 0 28 28" fill="none" xmlns="http://www.w3.org/2000/svg">
<path d="M6.67969 24.5977H20.8945C23.3555 24.5977 24.5742 23.3789 24.5742 20.9648V6.65625C24.5742 4.24219 23.3555 3.02344 20.8945 3.02344H6.67969C4.23047 3.02344 3 4.23047 3 6.65625V20.9648C3 23.3906 4.23047 24.5977 6.67969 24.5977Z" fill="black" fill-opacity="0.85"/>
<path d="M11.2852 18.832C10.8984 18.832 10.4297 18.6094 10.4297 17.9648V16.7695H7.73438C7.14844 16.7695 6.73828 16.3711 6.73828 15.7852C6.73828 15.4102 6.80859 15.0938 7.01953 14.625L9.17578 9.9375C9.51562 9.1875 9.91406 8.75391 10.7578 8.75391C11.5547 8.75391 12.1055 9.22266 12.1055 10.0664V15.3633H12.5273C13.0195 15.3633 13.2188 15.668 13.2188 16.0547C13.2188 16.4648 13.0078 16.7695 12.5273 16.7695H12.1055V17.9648C12.1055 18.5508 11.7305 18.832 11.2852 18.832ZM10.4648 15.3984V10.2773H10.418L8.23828 15.3164V15.3984H10.4648ZM17.4258 18.9258C16.3477 18.9258 15.2695 18.293 14.8359 17.3086C14.7422 17.0742 14.6719 16.8047 14.6719 16.5234C14.6719 16.0781 14.9531 15.7969 15.3984 15.7969C15.7148 15.7969 15.9961 15.9727 16.125 16.3594C16.3594 17.0273 16.7344 17.5078 17.4023 17.5078C18.293 17.5078 18.6562 16.4883 18.6562 15.4805C18.6562 14.5898 18.3164 13.5234 17.4258 13.5234C16.9453 13.5234 16.6523 13.8047 16.3711 14.2031C16.1133 14.5312 15.9258 14.6602 15.5977 14.6602C15.0352 14.6602 14.7891 14.25 14.7891 13.793C14.7891 13.6289 14.8008 13.4414 14.8125 13.2539L15.0117 9.94922C15.0586 9.31641 15.3398 8.90625 15.9844 8.90625H19.2891C19.6992 8.90625 19.9688 9.22266 19.9688 9.62109C19.9688 10.0547 19.7109 10.3359 19.2891 10.3359H16.4648L16.2656 13.2656H16.3242C16.6289 12.5742 17.2852 12.2461 18 12.2461C19.5586 12.2461 20.3555 13.7695 20.3555 15.4336C20.3555 17.3438 19.3125 18.9258 17.4258 18.9258Z" fill="white"/>
</svg>
