<svg width="28" height="28" viewBox="0 0 28 28" fill="none" xmlns="http://www.w3.org/2000/svg">
<g clip-path="url(#clip0_2124_32161)">
<path d="M14.3602 28.168C17.5594 28.168 18.0633 25.7891 19.9266 25.7891C21.8251 25.7891 22.1297 28.168 25.786 28.168H25.8446C26.3016 28.168 26.6766 27.793 26.6766 27.3359C26.6766 26.8789 26.3016 26.5156 25.8446 26.5156H25.786C24.5321 26.5156 23.8172 25.9883 22.9383 25.3672C22.1766 24.8164 21.2274 24.1367 19.9266 24.1367C18.579 24.1367 17.618 24.8516 16.8563 25.4258C16.0477 26.0352 15.4149 26.5156 14.3602 26.5156C13.3055 26.5156 12.6727 26.0352 11.8641 25.4258C11.1024 24.8516 10.1415 24.1367 8.7938 24.1367C7.49302 24.1367 6.5438 24.8164 5.78209 25.3672C4.90318 25.9883 4.20005 26.5156 2.93443 26.5156H2.87584C2.4188 26.5156 2.0438 26.8789 2.0438 27.3359C2.0438 27.793 2.4188 28.168 2.87584 28.168H2.93443C6.59068 28.168 6.89537 25.7891 8.7938 25.7891C10.6571 25.7891 11.161 28.168 14.3602 28.168ZM14.3602 25.1445C14.8993 25.1445 15.1688 24.9922 16.036 24.3242C16.7977 23.7617 18.1336 22.7656 19.9266 22.7656C20.9813 22.7656 21.8485 23.0586 22.8563 23.668L26.1961 17.75C27.1922 16.0039 26.7821 14.7266 25.036 13.9297L16.5165 10.0156C16.0243 9.793 15.3329 9.418 14.3602 9.418C13.3993 9.418 12.7079 9.793 12.204 10.0156L3.68443 13.9297C1.95005 14.7266 1.5399 16.0039 2.52427 17.75L5.86412 23.668C6.87193 23.0586 7.73912 22.7656 8.7938 22.7656C10.5868 22.7656 11.9227 23.7617 12.6844 24.3242C13.5516 24.9922 13.8211 25.1445 14.3602 25.1445ZM14.3602 7.82422C15.4149 7.82422 16.0946 8.05859 17.1844 8.5625L23.3251 11.3867L22.3172 3.91016C22.1415 2.63281 21.3446 1.73047 20.079 1.73047H8.6649C7.39927 1.73047 6.63755 2.63281 6.42662 4.14453L5.4188 11.375L11.536 8.5625C12.6258 8.05859 13.3055 7.82422 14.3602 7.82422ZM9.19224 6.58203C8.91099 6.58203 8.72349 6.38281 8.72349 6.10156V4.22656C8.72349 3.94531 8.91099 3.74609 9.19224 3.74609H12.8251C13.1766 3.74609 13.411 3.94531 13.411 4.22656V6.10156C13.411 6.38281 13.1766 6.58203 12.8251 6.58203H9.19224ZM15.7782 6.58203C15.5086 6.58203 15.3211 6.38281 15.3211 6.10156V4.22656C15.3211 3.94531 15.5086 3.74609 15.7782 3.74609H19.4227C19.7743 3.74609 20.0086 3.94531 20.0086 4.22656V6.10156C20.0086 6.38281 19.7743 6.58203 19.4227 6.58203H15.7782ZM9.49693 2.08203H19.2352V1.08594C19.2352 -0.0507809 18.5672 -0.730469 17.4305 -0.730469H11.3016C10.1649 -0.730469 9.49693 -0.0507809 9.49693 1.08594V2.08203Z" fill="black" fill-opacity="0.85"/>
</g>
<defs>
<clipPath id="clip0_2124_32161">
<rect width="28" height="28" fill="white"/>
</clipPath>
</defs>
</svg>
