<svg width="28" height="28" viewBox="0 0 28 28" fill="none" xmlns="http://www.w3.org/2000/svg">
<path d="M20.9375 14.6289C21.1602 14.6289 21.3125 14.4766 21.3359 14.2422C21.7227 11.1133 21.875 11.0312 25.0508 10.5156C25.2969 10.4805 25.4492 10.3516 25.4492 10.1289C25.4492 9.90625 25.2969 9.76562 25.0977 9.73047C21.8984 9.12109 21.7227 9.13281 21.3359 6.00391C21.3125 5.76953 21.1602 5.61719 20.9375 5.61719C20.7266 5.61719 20.5742 5.76953 20.5391 5.99219C20.1406 9.16797 20.0234 9.27344 16.7773 9.73047C16.5781 9.75391 16.4258 9.90625 16.4258 10.1289C16.4258 10.3398 16.5781 10.4805 16.7773 10.5156C20.0234 11.1367 20.1289 11.1367 20.5391 14.2656C20.5742 14.4766 20.7266 14.6289 20.9375 14.6289ZM15.3359 6.69531C15.4766 6.69531 15.5469 6.61328 15.5703 6.48438C15.9336 4.52734 15.9219 4.48047 17.9609 4.09375C18.0898 4.07031 18.1836 3.98828 18.1836 3.84766C18.1836 3.70703 18.0898 3.625 17.9609 3.60156C15.9219 3.19141 15.9922 3.14453 15.5703 1.21094C15.5469 1.08203 15.4766 1 15.3359 1C15.1953 1 15.1133 1.08203 15.0898 1.21094C14.6797 3.14453 14.75 3.19141 12.7109 3.60156C12.5703 3.625 12.4883 3.70703 12.4883 3.84766C12.4883 3.98828 12.5703 4.07031 12.7109 4.09375C14.75 4.50391 14.7266 4.52734 15.0898 6.48438C15.1133 6.61328 15.1953 6.69531 15.3359 6.69531Z" fill="black" fill-opacity="0.85"/>
<path d="M12.2422 25.3398C16.5312 25.3398 20.0117 23.1836 21.582 19.5039C21.793 19.0117 21.7227 18.6133 21.5 18.3906C21.3008 18.1797 20.9375 18.1445 20.5273 18.2969C19.6367 18.6484 18.5703 18.8594 17.2227 18.8594C11.9727 18.8594 8.60938 15.5781 8.60938 10.4453C8.60938 9.02735 8.87891 7.60939 9.24219 6.8711C9.46484 6.41407 9.45312 6.00392 9.24219 5.76954C9.01953 5.51173 8.62109 5.4297 8.08203 5.64063C4.48438 7.10548 2 10.8672 2 15.2383C2 20.9453 6.20703 25.3398 12.2422 25.3398ZM12.2656 23.5469C7.27344 23.5469 3.79297 19.9023 3.79297 15.0977C3.79297 12.1562 5.16406 9.54298 7.34375 7.87892C7.05078 8.65235 6.88672 9.81251 6.88672 10.9375C6.88672 16.7148 10.8711 20.582 16.7773 20.582C17.8203 20.582 18.7812 20.4414 19.2852 20.2773C17.8203 22.3047 15.207 23.5469 12.2656 23.5469Z" fill="black" fill-opacity="0.85"/>
</svg>
