<svg width="28" height="28" viewBox="0 0 28 28" fill="none" xmlns="http://www.w3.org/2000/svg">
<g clip-path="url(#clip0_2124_24643)">
<path d="M19.2627 16.8477L21.1494 18.7344V5.04688C21.1494 3.21875 19.8721 2 17.9619 2H9.27832C7.88379 2 6.84082 2.60938 6.4541 3.73438L6.37207 3.94531L7.97754 5.55078V5.32812C7.97754 4.39062 8.52832 3.88672 9.5127 3.88672H17.7158C18.7002 3.88672 19.2627 4.41406 19.2627 5.35156V16.8477ZM12.208 6.46484H15.0439C15.501 6.46484 15.8643 6.10156 15.8643 5.63281C15.8643 5.17578 15.501 4.8125 15.0439 4.8125H12.208C11.7393 4.8125 11.3643 5.17578 11.3643 5.63281C11.3643 6.10156 11.7393 6.46484 12.208 6.46484ZM9.27832 26.8086H17.9619C19.3096 26.8086 20.2939 26.2109 20.7393 25.1445C20.7627 25.0859 20.7979 25.0039 20.8213 24.9453L19.2627 23.3398C19.2627 23.4219 19.2627 23.4922 19.2627 23.5625C19.2158 24.4414 18.6533 24.9219 17.7158 24.9219H9.5127C8.52832 24.9219 7.97754 24.3945 7.97754 23.457V12.0898L6.09082 10.2031V23.7617C6.09082 25.5898 7.36816 26.8086 9.27832 26.8086ZM11.1299 24.0664H16.1104C16.4268 24.0664 16.6611 23.8438 16.6611 23.5156C16.6611 23.1875 16.4268 22.9766 16.1104 22.9766H11.1299C10.8135 22.9766 10.5908 23.1875 10.5908 23.5156C10.5908 23.8438 10.8135 24.0664 11.1299 24.0664Z" fill="black" fill-opacity="0.85"/>
<path d="M22.6846 24.8047C23.0361 25.168 23.6221 25.1562 23.9619 24.8047C24.3135 24.4648 24.3135 23.8906 23.9619 23.5273L4.54395 4.12109C4.19238 3.76953 3.61816 3.75781 3.25488 4.12109C2.91504 4.46094 2.91504 5.05859 3.25488 5.39844L22.6846 24.8047Z" fill="black" fill-opacity="0.85"/>
</g>
<defs>
<clipPath id="clip0_2124_24643">
<rect width="21.2256" height="24.832" fill="white" transform="translate(3 2)"/>
</clipPath>
</defs>
</svg>
