<svg width="28" height="28" viewBox="0 0 28 28" fill="none" xmlns="http://www.w3.org/2000/svg">
<path d="M13.9531 25.9062C20.4922 25.9062 25.9062 20.4805 25.9062 13.9531C25.9062 7.41406 20.4805 2 13.9414 2C7.41406 2 2 7.41406 2 13.9531C2 20.4805 7.42578 25.9062 13.9531 25.9062ZM13.9531 23.9141C8.42188 23.9141 4.00391 19.4844 4.00391 13.9531C4.00391 8.42188 8.41016 3.99219 13.9414 3.99219C19.4727 3.99219 23.9141 8.42188 23.9141 13.9531C23.9141 19.4844 19.4844 23.9141 13.9531 23.9141Z" fill="black" fill-opacity="0.85"/>
<path d="M10.2734 18.8984C11.9492 18.8984 13.2383 17.8438 13.2383 16.0859C13.2383 14.6328 12.3711 13.918 11.3867 13.8125V13.7773C12.4414 13.4961 12.957 12.5469 12.957 11.5625C12.957 9.94531 11.75 9.01953 10.2266 9.01953C9.00781 9.01953 7.96484 9.69922 7.625 10.7422C7.56641 10.9648 7.54297 11.1758 7.54297 11.375C7.54297 11.7617 7.80078 12.0664 8.25781 12.0664C8.65625 12.0664 8.89062 11.9141 9.00781 11.5039C9.19531 10.8125 9.55859 10.3789 10.2266 10.3789C11 10.3789 11.3633 10.9766 11.3633 11.75C11.3633 12.6055 10.8945 13.2266 10.0156 13.2266H9.73438C9.33594 13.2266 9.08984 13.4727 9.08984 13.8594C9.08984 14.2461 9.34766 14.4688 9.73438 14.4688H10.0273C11.0234 14.4688 11.5742 15.0195 11.5742 16.0391C11.5742 16.8477 11.1406 17.5391 10.2734 17.5391C9.41798 17.5391 9.03126 16.9648 8.89062 16.4258C8.78516 16.0508 8.52734 15.8516 8.15234 15.8516C7.69531 15.8516 7.39062 16.1328 7.39062 16.5898C7.39062 16.8008 7.42578 17.0117 7.48438 17.1992C7.8125 18.2891 9.00782 18.8984 10.2734 18.8984ZM16.7656 15.418C17.7148 15.418 18.4297 14.7852 18.6992 13.7773H18.7461C18.7461 13.8242 18.7461 13.8711 18.7461 13.9062C18.7461 15.207 18.582 17.5508 17.2695 17.5508C16.7422 17.5508 16.3906 17.1875 16.1797 16.6836C16.0156 16.2969 15.7812 16.1445 15.4297 16.1445C14.9375 16.1445 14.7266 16.4727 14.7266 16.8594C14.7266 17 14.7617 17.1406 14.7969 17.2812C15.0547 18.3008 16.0625 18.9219 17.2461 18.9219C19.6484 18.9219 20.3398 16.2617 20.3398 13.8594C20.3398 11.6445 19.6367 8.99609 17.2578 8.99609C15.4766 8.99609 14.4453 10.4961 14.4453 12.3359C14.4453 13.918 15.207 15.418 16.7656 15.418ZM17.2812 14.1289C16.4141 14.1289 16.0625 13.1328 16.0625 12.2656C16.0625 11.3867 16.4609 10.3555 17.2812 10.3555C18.1602 10.3555 18.5234 11.3867 18.5234 12.2656C18.5234 13.168 18.125 14.1289 17.2812 14.1289Z" fill="black" fill-opacity="0.85"/>
</svg>
