<svg width="28" height="28" viewBox="0 0 28 28" fill="none" xmlns="http://www.w3.org/2000/svg">
<path d="M13.9531 25.9062C20.4922 25.9062 25.9062 20.4805 25.9062 13.9531C25.9062 7.41406 20.4805 2 13.9414 2C7.41406 2 2 7.41406 2 13.9531C2 20.4805 7.42578 25.9062 13.9531 25.9062Z" fill="black" fill-opacity="0.85"/>
<path d="M13.9531 14.8789C10.3203 14.8789 7.46094 13.5664 7.46094 11.9023C7.46094 10.2734 10.3203 8.99609 13.9531 8.99609C17.5859 8.99609 20.4453 10.2734 20.4453 11.9023C20.4453 13.5664 17.5859 14.8789 13.9531 14.8789ZM13.9531 18.8984C10.2852 18.8984 7.46094 17.2578 7.46094 15.2422V13.7891C8.72656 15.0195 11.2344 15.7461 13.9531 15.7461C16.6836 15.7461 19.1914 15.0195 20.4453 13.7891V15.2422C20.4453 17.2578 17.6094 18.8984 13.9531 18.8984Z" fill="white"/>
</svg>
