<svg width="28" height="28" viewBox="0 0 28 28" fill="none" xmlns="http://www.w3.org/2000/svg">
<path d="M1.69141 8.35156H2.32422C2.71094 8.35156 3.00391 8.05859 3.00391 7.66016V2.69141C3.00391 2.29297 2.71094 2 2.32422 2H1.69141C1.29297 2 1 2.29297 1 2.69141V7.66016C1 8.05859 1.29297 8.35156 1.69141 8.35156ZM1.69141 17.0352H2.32422C2.71094 17.0352 3.00391 16.7422 3.00391 16.3438V11.3867C3.00391 11 2.71094 10.707 2.32422 10.707H1.69141C1.29297 10.707 1 11 1 11.3867V16.3438C1 16.7422 1.29297 17.0352 1.69141 17.0352ZM1.69141 25.7422H2.32422C2.71094 25.7422 3.00391 25.4492 3.00391 25.0508V20.082C3.00391 19.6836 2.71094 19.3906 2.32422 19.3906H1.69141C1.29297 19.3906 1 19.6836 1 20.082V25.0508C1 25.4492 1.29297 25.7422 1.69141 25.7422ZM23.5586 8.33984H24.1797C24.5781 8.33984 24.8711 8.04688 24.8711 7.66016V2.69141C24.8711 2.29297 24.5781 2 24.1797 2H23.5586C23.1602 2 22.8672 2.29297 22.8672 2.69141V7.66016C22.8672 8.04688 23.1602 8.33984 23.5586 8.33984ZM23.5586 25.7305H24.1797C24.5781 25.7305 24.8711 25.4375 24.8711 25.0508V20.082C24.8711 19.6836 24.5781 19.3906 24.1797 19.3906H23.5586C23.1602 19.3906 22.8672 19.6836 22.8672 20.082V25.0508C22.8672 25.4375 23.1602 25.7305 23.5586 25.7305Z" fill="black" fill-opacity="0.85"/>
<path d="M12.0153 23.2695C15.613 25.332 17.6989 25.4609 18.8942 23.3984L25.8903 11.2578C27.1325 9.125 25.8903 6.73438 22.6442 4.87109C19.4216 3.01953 16.738 3.125 15.5075 5.25781L8.49974 17.3984C7.30443 19.4609 8.44115 21.207 12.0153 23.2695ZM22.82 14.7617L24.0036 15.4531C24.4606 15.7227 25.0349 15.5703 25.2809 15.1367L25.4802 14.7734C25.7263 14.3281 25.5856 13.7773 25.1169 13.5078L23.9333 12.8281L22.82 14.7617Z" fill="white"/>
<path d="M12.0153 23.2695C15.613 25.332 17.6989 25.4609 18.8942 23.3984L25.8903 11.2578C27.1325 9.125 25.8903 6.73438 22.6442 4.87109C19.4216 3.01953 16.738 3.125 15.5075 5.25781L8.49974 17.3984C7.30443 19.4609 8.44115 21.207 12.0153 23.2695ZM12.8591 21.8398C10.1755 20.293 9.36693 19.2617 9.98802 18.1836L16.9606 6.10156C17.6755 4.87109 19.3747 4.91797 21.8005 6.3125C24.2497 7.73047 25.152 9.18359 24.4372 10.4258L17.4528 22.5078C16.8435 23.5742 15.5427 23.3867 12.8591 21.8398ZM18.1794 12.6055C18.8122 12.9805 19.8552 13.6602 20.2067 13.8711C20.7575 14.1875 21.1559 14.1172 21.5544 13.543L22.4216 12.3008C23.1364 11.2812 22.6677 10.4609 20.2302 9.05469C17.8161 7.66016 16.8669 7.66016 16.3278 8.79688L15.695 10.168C15.4138 10.7773 15.5192 11.1641 16.0935 11.4805C16.445 11.7031 17.5114 12.2188 18.1794 12.6055ZM13.8317 20.1406C16.2458 21.5352 17.2302 21.6172 17.6989 20.4102L17.9685 19.7188C18.3552 18.7461 17.8161 18.0664 15.7185 16.8711C13.6442 15.6641 12.777 15.5352 12.1325 16.3555L11.6755 16.9297C10.8669 17.9492 11.4294 18.7461 13.8317 20.1406ZM14.0075 9.67578L15.1208 7.75391L13.9372 7.0625C13.4802 6.79297 12.9294 6.93359 12.6716 7.37891L12.4606 7.73047C12.2028 8.16406 12.3669 8.73828 12.8122 8.99609L14.0075 9.67578ZM22.82 14.7617L24.0036 15.4531C24.4606 15.7227 25.0349 15.5703 25.2809 15.1367L25.4802 14.7734C25.7263 14.3281 25.5856 13.7773 25.1169 13.5078L23.9333 12.8281L22.82 14.7617Z" fill="black" fill-opacity="0.85"/>
</svg>
