<svg width="28" height="28" viewBox="0 0 28 28" fill="none" xmlns="http://www.w3.org/2000/svg">
<path d="M4.83571 14.1284C4.83571 14.7026 5.2693 15.1362 5.85524 15.1362H6.74587C7.32009 15.1362 7.75368 14.7026 7.75368 14.1284V13.0269H19.9881V14.1284C19.9881 14.7026 20.4217 15.1362 21.0076 15.1362H21.8982C22.4724 15.1362 22.906 14.7026 22.906 14.1284V9.01904C22.906 7.7417 22.7537 6.95654 21.9451 6.10107L21.1717 5.26904L20.3748 2.97217C19.9529 1.71826 19.0857 1.20263 18.031 1.07373C17.5154 1.00342 15.8514 0.968262 13.8709 0.968262C11.8904 0.968262 10.2264 1.00342 9.71071 1.07373C8.65602 1.20263 7.80055 1.71826 7.36696 2.97217L6.57009 5.26904L5.79665 6.10107C4.98805 6.95654 4.83571 7.7417 4.83571 9.01904V14.1284ZM8.66774 5.32763C8.30446 5.32763 8.17555 5.04638 8.29274 4.70654L8.76149 3.27685C8.93727 2.76123 9.21852 2.58545 9.67555 2.51513C10.2029 2.45654 11.6912 2.39795 13.8709 2.39795C16.0623 2.39795 17.5271 2.45654 18.0545 2.51513C18.5115 2.58545 18.7928 2.76123 18.9685 3.27685L19.449 4.70654C19.5662 5.04638 19.4373 5.32763 19.074 5.32763H8.66774ZM7.61305 10.0855C7.12087 10.0855 6.78102 9.7456 6.78102 9.26513V8.06982C6.78102 7.61279 7.12087 7.27295 7.61305 7.27295C8.07009 7.27295 8.42165 7.60107 8.42165 8.06982V9.26513C8.42165 9.7456 8.07009 10.0855 7.61305 10.0855ZM12.1365 9.72217C11.7615 9.72217 11.5154 9.46435 11.5154 9.0542V8.29248C11.5154 7.89404 11.7615 7.64795 12.1365 7.64795H15.5818C15.9685 7.64795 16.2146 7.89404 16.2146 8.29248V9.0542C16.2146 9.46435 15.9685 9.72217 15.5818 9.72217H12.1365ZM20.2107 10.0855C19.7654 10.0855 19.4139 9.7456 19.4139 9.26513V8.06982C19.4139 7.62451 19.7654 7.27295 20.2107 7.27295C20.6912 7.27295 21.0428 7.60107 21.0428 8.06982V9.26513C21.0428 9.7456 20.6912 10.0855 20.2107 10.0855ZM10.824 17.1636L9.93337 16.4956C9.60524 16.2612 9.24196 16.1441 8.8318 16.1441H6.93337C6.46462 16.1441 6.28884 16.7066 6.66384 16.9761L8.4568 18.2886C9.0193 18.6987 8.94899 19.2378 8.30446 19.5308L2.46852 22.0503C0.230243 23.0112 0.00758672 24.4878 1.8943 25.8706L2.78493 26.5269C3.11305 26.773 3.48805 26.8901 3.88649 26.8901H5.78493C6.25368 26.8901 6.42946 26.3276 6.05446 26.0581L4.26149 24.7339C3.69899 24.3355 3.7693 23.7847 4.41384 23.5034L10.2498 20.9722C12.4881 20.0112 12.699 18.5464 10.824 17.1636ZM23.0935 17.187L22.2029 16.5191C21.8748 16.273 21.4998 16.1675 21.1014 16.1675H19.2029C18.7342 16.1675 18.5584 16.7183 18.9334 16.9995L20.7264 18.312C21.2889 18.7105 21.2185 19.2612 20.574 19.5425L14.7264 22.0737C12.4998 23.0347 12.2771 24.4995 14.1639 25.8823L15.0428 26.5386C15.3709 26.7847 15.7459 26.9019 16.156 26.9019H18.0545C18.5232 26.9019 18.6873 26.3394 18.324 26.0698L16.531 24.7573C15.9685 24.3472 16.0389 23.8081 16.6834 23.5151L22.5193 20.9956C24.7576 20.0347 24.9685 18.5581 23.0935 17.187Z" fill="black" fill-opacity="0.85"/>
<path d="M23.8786 27.0894C24.7809 27.98 26.2223 27.98 27.1013 27.0776C27.9802 26.187 27.9684 24.7573 27.0895 23.8784L3.88641 0.663581C3.00751 -0.215325 1.55438 -0.227044 0.663756 0.663581C-0.191713 1.51905 -0.250306 2.97218 0.663756 3.88624L23.8786 27.0894Z" fill="white"/>
<path d="M24.8511 26.1284C25.2026 26.48 25.7768 26.48 26.1284 26.1284C26.4682 25.7651 26.48 25.2026 26.1284 24.8511L2.9136 1.63625C2.56203 1.28469 1.98781 1.27297 1.62453 1.63625C1.28469 1.97609 1.27297 2.56203 1.62453 2.91359L24.8511 26.1284Z" fill="black" fill-opacity="0.85"/>
</svg>
