<svg width="29" height="28" viewBox="0 0 29 28" fill="none" xmlns="http://www.w3.org/2000/svg">
<g clip-path="url(#clip0_2124_50244)">
<path d="M3.49219 25.0273H24.7852C27.1055 25.0273 28.2773 23.8438 28.2773 21.5703V5.46875C28.2773 3.19531 27.1055 2.01172 24.7852 2.01172H3.49219C1.18359 2.01172 0 3.19531 0 5.46875V21.5703C0 23.8438 1.18359 25.0273 3.49219 25.0273ZM3.50391 23.1406C2.47266 23.1406 1.88672 22.5547 1.88672 21.4766V5.5625C1.88672 4.48438 2.47266 3.89844 3.50391 3.89844H24.7734C25.8047 3.89844 26.3906 4.48438 26.3906 5.5625V21.4766C26.3906 22.5547 25.8047 23.1406 24.7734 23.1406H3.50391ZM7.54688 12.6289C9.48047 12.6289 11.0625 11.0469 11.0625 9.11328C11.0625 7.17969 9.48047 5.59766 7.54688 5.59766C5.61328 5.59766 4.03125 7.17969 4.03125 9.11328C4.03125 11.0469 5.61328 12.6289 7.54688 12.6289ZM7.54688 11.5156C6.22266 11.5156 5.15625 10.4375 5.15625 9.11328C5.15625 7.78906 6.22266 6.71094 7.54688 6.71094C8.87109 6.71094 9.94922 7.78906 9.94922 9.11328C9.94922 10.4375 8.87109 11.5156 7.54688 11.5156ZM7.54688 10.9648C8.58984 10.9648 9.38672 10.1562 9.38672 9.11328C9.38672 8.07031 8.58984 7.27344 7.54688 7.27344C6.51562 7.27344 5.70703 8.07031 5.70703 9.11328C5.70703 10.1562 6.51562 10.9648 7.54688 10.9648ZM16.6289 12.6289C18.5625 12.6289 20.1328 11.0469 20.1328 9.11328C20.1328 7.17969 18.5625 5.59766 16.6289 5.59766C14.6836 5.59766 13.1133 7.17969 13.1133 9.11328C13.1133 11.0469 14.6836 12.6289 16.6289 12.6289ZM16.6289 11.5156C15.3047 11.5156 14.2266 10.4375 14.2266 9.11328C14.2266 7.78906 15.3047 6.71094 16.6289 6.71094C17.9531 6.71094 19.0195 7.78906 19.0195 9.11328C19.0195 10.4375 17.9531 11.5156 16.6289 11.5156ZM16.6289 10.9648C17.6602 10.9648 18.4688 10.1562 18.4688 9.11328C18.4688 8.07031 17.6602 7.27344 16.6289 7.27344C15.5859 7.27344 14.7773 8.07031 14.7773 9.11328C14.7773 10.1562 15.5859 10.9648 16.6289 10.9648ZM7.54688 21.4062C9.48047 21.4062 11.0625 19.8359 11.0625 17.8906C11.0625 15.957 9.48047 14.3867 7.54688 14.3867C5.61328 14.3867 4.03125 15.957 4.03125 17.8906C4.03125 19.8359 5.61328 21.4062 7.54688 21.4062ZM7.54688 20.293C6.22266 20.293 5.15625 19.2266 5.15625 17.8906C5.15625 16.5664 6.22266 15.5 7.54688 15.5C8.87109 15.5 9.94922 16.5664 9.94922 17.8906C9.94922 19.2266 8.87109 20.293 7.54688 20.293ZM7.54688 19.7422C8.58984 19.7422 9.38672 18.9336 9.38672 17.8906C9.38672 16.8594 8.58984 16.0508 7.54688 16.0508C6.51562 16.0508 5.70703 16.8594 5.70703 17.8906C5.70703 18.9336 6.51562 19.7422 7.54688 19.7422ZM16.6289 21.4062C18.5625 21.4062 20.1328 19.8359 20.1328 17.8906C20.1328 15.957 18.5625 14.3867 16.6289 14.3867C14.6836 14.3867 13.1133 15.957 13.1133 17.8906C13.1133 19.8359 14.6836 21.4062 16.6289 21.4062ZM16.6289 20.293C15.3047 20.293 14.2266 19.2266 14.2266 17.8906C14.2266 16.5664 15.3047 15.5 16.6289 15.5C17.9531 15.5 19.0195 16.5664 19.0195 17.8906C19.0195 19.2266 17.9531 20.293 16.6289 20.293ZM16.6289 19.7422C17.6602 19.7422 18.4688 18.9336 18.4688 17.8906C18.4688 16.8594 17.6602 16.0508 16.6289 16.0508C15.5859 16.0508 14.7773 16.8594 14.7773 17.8906C14.7773 18.9336 15.5859 19.7422 16.6289 19.7422ZM23.7305 9.48828C24.3047 9.48828 24.75 9.03125 24.75 8.45703C24.75 7.89453 24.3047 7.4375 23.7305 7.4375C23.1562 7.4375 22.6992 7.89453 22.6992 8.45703C22.6992 9.03125 23.1562 9.48828 23.7305 9.48828ZM23.7305 12.8516C24.3047 12.8516 24.75 12.4062 24.75 11.8203C24.75 11.2578 24.3047 10.8008 23.7305 10.8008C23.1562 10.8008 22.6992 11.2578 22.6992 11.8203C22.6992 12.4062 23.1562 12.8516 23.7305 12.8516ZM23.7305 16.2266C24.3047 16.2266 24.75 15.7695 24.75 15.1953C24.75 14.6211 24.3047 14.1758 23.7305 14.1758C23.1562 14.1758 22.6992 14.6211 22.6992 15.1953C22.6992 15.7695 23.1562 16.2266 23.7305 16.2266ZM23.7305 19.5898C24.3047 19.5898 24.75 19.1328 24.75 18.5586C24.75 17.9961 24.3047 17.5391 23.7305 17.5391C23.1562 17.5391 22.6992 17.9961 22.6992 18.5586C22.6992 19.1328 23.1562 19.5898 23.7305 19.5898Z" fill="black" fill-opacity="0.85"/>
</g>
<defs>
<clipPath id="clip0_2124_50244">
<rect width="28.2773" height="23.0273" fill="white" transform="translate(0 2)"/>
</clipPath>
</defs>
</svg>
