<svg width="28" height="28" viewBox="0 0 28 28" fill="none" xmlns="http://www.w3.org/2000/svg">
<path d="M13.9531 25.9062C20.4922 25.9062 25.9062 20.4805 25.9062 13.9531C25.9062 7.41406 20.4805 2 13.9414 2C7.41406 2 2 7.41406 2 13.9531C2 20.4805 7.42578 25.9062 13.9531 25.9062Z" fill="black" fill-opacity="0.85"/>
<path d="M10.6484 18.6641V9.60547C10.6484 9.05469 11.0352 8.67969 11.5742 8.67969H12.0664V7.77734C12.0664 7.4375 12.3008 7.20312 12.6289 7.20312C12.957 7.20312 13.1914 7.4375 13.1914 7.77734V8.67969H13.9531V7.77734C13.9531 7.4375 14.1992 7.20312 14.5156 7.20312C14.8438 7.20312 15.0898 7.4375 15.0898 7.77734V8.72656C16.6484 8.96094 17.6445 10.0156 17.6445 11.4688C17.6445 12.4648 17.0469 13.3906 16.1797 13.8125C17.3867 14.1758 18.1719 15.1602 18.1719 16.4844C18.1719 18.207 17.0352 19.332 15.0898 19.543V20.5039C15.0898 20.8438 14.8438 21.0781 14.5156 21.0781C14.1992 21.0781 13.9531 20.8438 13.9531 20.5039V19.5781H13.1914V20.5039C13.1914 20.8438 12.957 21.0781 12.6289 21.0781C12.3008 21.0781 12.0664 20.8438 12.0664 20.5039V19.5781H11.5742C11.0234 19.5781 10.6484 19.2031 10.6484 18.6641ZM12.1484 18.207L14.2578 18.1953C15.8398 18.1836 16.6719 17.5859 16.6719 16.4258C16.6719 15.2422 15.8047 14.6445 14.1289 14.6445H12.1484V18.207ZM12.1484 13.2734L13.8242 13.2852C15.3242 13.2969 16.1445 12.6875 16.1445 11.5859C16.1445 10.5898 15.418 10.0391 14.1523 10.0391H12.1484V13.2734Z" fill="white"/>
</svg>
