<svg width="28" height="28" viewBox="0 0 28 28" fill="none" xmlns="http://www.w3.org/2000/svg">
<path d="M6.67969 24.5977H20.8945C23.3555 24.5977 24.5742 23.3789 24.5742 20.9648V6.65625C24.5742 4.24219 23.3555 3.02344 20.8945 3.02344H6.67969C4.23047 3.02344 3 4.23047 3 6.65625V20.9648C3 23.3906 4.23047 24.5977 6.67969 24.5977Z" fill="black" fill-opacity="0.85"/>
<path d="M8.08594 18.6797C7.54688 18.6797 7.27734 18.3867 7.27734 17.9766C7.27734 17.5898 7.5 17.2852 7.72266 17.0039L9.82031 14.3203C10.4648 13.5117 11.1445 12.5273 11.1445 11.5547C11.1445 10.6992 10.7344 10.0664 10.0078 10.0664C9.31641 10.0664 9.01172 10.5703 8.78906 11.3789C8.66016 11.7773 8.41406 11.9531 8.01562 11.9531C7.55859 11.9531 7.28906 11.6484 7.28906 11.1914C7.28906 9.9375 8.46094 8.66016 10.0078 8.66016C11.6836 8.66016 12.7969 9.84375 12.7969 11.4727C12.7969 12.5391 12.3984 13.4297 11.1797 14.9297L9.42188 17.1562V17.25H12.2813C12.7031 17.25 12.9727 17.5078 12.9727 17.9766C12.9727 18.3984 12.7148 18.6797 12.2813 18.6797H8.08594ZM17.2266 18.9258C16.1367 18.9258 15.0703 18.293 14.6484 17.3086C14.5312 17.0742 14.4727 16.8047 14.4727 16.5234C14.4727 16.0781 14.7539 15.7969 15.1875 15.7969C15.5156 15.7969 15.7852 15.9844 15.9258 16.3711C16.1484 17.0273 16.5352 17.5078 17.2031 17.5078C18.0938 17.5078 18.457 16.4883 18.457 15.4805C18.457 14.5898 18.1055 13.5234 17.2266 13.5234C16.7344 13.5234 16.4414 13.8047 16.1602 14.2031C15.9023 14.5312 15.7266 14.6602 15.3984 14.6602C14.8242 14.6602 14.5898 14.25 14.5898 13.793C14.5898 13.6289 14.5898 13.4414 14.6133 13.2539L14.8125 9.94922C14.8477 9.32812 15.1406 8.90625 15.7734 8.90625H19.0898C19.5 8.90625 19.7695 9.22266 19.7695 9.62109C19.7695 10.0547 19.5234 10.3477 19.0898 10.3477H16.2539L16.0664 13.2773H16.1133C16.4297 12.5742 17.0859 12.2461 17.7891 12.2461C19.3477 12.2461 20.1445 13.7695 20.1445 15.4336C20.1445 17.3438 19.1133 18.9258 17.2266 18.9258Z" fill="white"/>
</svg>
