<svg width="28" height="28" viewBox="0 0 28 28" fill="none" xmlns="http://www.w3.org/2000/svg">
<g clip-path="url(#clip0_2124_67774)">
<path d="M1 15.4844C1 17.6875 2.06641 18.7656 4.23438 18.7656H8.39453V22.9258C8.39453 25.0938 9.47266 26.1602 11.6758 26.1602H15.4727C17.6758 26.1602 18.7539 25.0938 18.7539 22.9258V18.7656H22.9141C25.082 18.7656 26.1484 17.6875 26.1484 15.4844V11.6875C26.1484 9.48438 25.082 8.40625 22.9141 8.40625H18.7539V4.23438C18.7539 2.06641 17.6758 1 15.4727 1H11.6758C9.47266 1 8.39453 2.06641 8.39453 4.23438V8.40625H4.23438C2.06641 8.40625 1 9.48438 1 11.6875V15.4844ZM2.88672 15.4492V11.7227C2.88672 10.7734 3.37891 10.293 4.33984 10.293H10.2812V4.33984C10.2812 3.37891 10.7617 2.88672 11.7109 2.88672H15.4375C16.3867 2.88672 16.8672 3.37891 16.8672 4.33984V10.293H22.8086C23.7695 10.293 24.2617 10.7734 24.2617 11.7227V15.4492C24.2617 16.3984 23.7695 16.8789 22.8086 16.8789H16.8672V22.832C16.8672 23.793 16.3867 24.2734 15.4375 24.2734H11.7109C10.7617 24.2734 10.2812 23.793 10.2812 22.832V16.8789H4.33984C3.37891 16.8789 2.88672 16.3984 2.88672 15.4492Z" fill="black" fill-opacity="0.85"/>
</g>
<defs>
<clipPath id="clip0_2124_67774">
<rect width="25.1484" height="25.1836" fill="white" transform="translate(1 1)"/>
</clipPath>
</defs>
</svg>
