<svg width="28" height="28" viewBox="0 0 28 28" fill="none" xmlns="http://www.w3.org/2000/svg">
<path d="M6.67969 24.5977H20.8945C23.3555 24.5977 24.5742 23.3789 24.5742 20.9648V6.65625C24.5742 4.24219 23.3555 3.02344 20.8945 3.02344H6.67969C4.23047 3.02344 3 4.23047 3 6.65625V20.9648C3 23.3906 4.23047 24.5977 6.67969 24.5977ZM6.70312 22.7109C5.53125 22.7109 4.88672 22.0898 4.88672 20.8711V6.75C4.88672 5.53125 5.53125 4.91016 6.70312 4.91016H20.8711C22.0312 4.91016 22.6875 5.53125 22.6875 6.75V20.8711C22.6875 22.0898 22.0312 22.7109 20.8711 22.7109H6.70312Z" fill="black" fill-opacity="0.85"/>
<path d="M9.29297 14.9297C9.29297 15.2695 9.52734 15.5156 9.86719 15.5156H10.6406C10.418 15.8438 10.3008 16.2422 10.3008 16.582C10.3008 18.3867 11.9062 19.4297 13.8281 19.4297C15.1055 19.4297 16.2656 18.9375 16.875 17.9297C17.0508 17.6719 17.1445 17.3906 17.1562 17.0977C17.168 16.6875 16.9102 16.3828 16.4648 16.3828C16.1719 16.3828 15.9492 16.5 15.7734 16.8867C15.4688 17.6602 14.6719 18.0469 13.8047 18.0469C12.7031 18.0469 11.7773 17.543 11.7773 16.5234C11.7773 16.1602 11.9414 15.7617 12.293 15.5156H17.707C18.0352 15.5156 18.2695 15.2695 18.2695 14.9297C18.2695 14.6133 18.0352 14.3555 17.707 14.3555H9.86719C9.52734 14.3555 9.29297 14.6133 9.29297 14.9297ZM9.31641 12.5859C9.31641 12.9023 9.55078 13.1602 9.89062 13.1602H17.7305C18.0586 13.1602 18.293 12.9023 18.293 12.5859C18.293 12.2461 18.0586 12.0117 17.7305 12.0117H16.9453C17.1797 11.6719 17.2852 11.2734 17.2852 10.9336C17.2852 9.12891 15.6797 8.08594 13.7578 8.08594C12.4805 8.08594 11.332 8.57812 10.7109 9.59766C10.5469 9.85547 10.4414 10.125 10.4297 10.4297C10.4297 10.8281 10.6758 11.1328 11.1328 11.1328C11.4141 11.1328 11.6484 11.0156 11.8125 10.6289C12.1289 9.85547 12.9141 9.46875 13.793 9.46875C14.8828 9.46875 15.8203 9.98438 15.8203 10.9922C15.8203 11.3555 15.6445 11.7539 15.293 12.0117H9.89062C9.55078 12.0117 9.31641 12.2461 9.31641 12.5859Z" fill="black" fill-opacity="0.85"/>
</svg>
