<svg width="28" height="28" viewBox="0 0 28 28" fill="none" xmlns="http://www.w3.org/2000/svg">
<g clip-path="url(#clip0_2124_49996)">
<path d="M7.64844 27.293H20.082C20.5273 27.293 20.8086 26.9766 20.8086 26.5195C20.8086 25.6406 20.0938 25.0195 18.9805 25.0195H14.8086V23.6953C20.9258 23.2148 25.7305 18.1172 25.7305 11.8711C25.7305 5.32031 20.4219 0 13.8711 0C7.30859 0 2 5.30859 2 11.8711C2 18.1172 6.80469 23.2266 12.9219 23.6953V25.0195H8.76172C7.64844 25.0195 6.93359 25.6406 6.93359 26.5195C6.93359 26.9766 7.21484 27.293 7.64844 27.293Z" fill="black" fill-opacity="0.85"/>
<path d="M10.0156 19.5586C7.90625 19.5586 5.67969 17.0742 5.67969 14.6016C5.67969 13.2422 6.42969 12.5508 7.8125 12.5508H10.5078C10.4609 12.3281 10.4375 12.0586 10.4375 11.8359C7.74219 10.8164 6.24219 9.87891 6.24219 8.08594C6.24219 5.97656 8.73828 3.75 11.2109 3.75C12.5703 3.75 13.2617 4.5 13.2617 5.88281V8.48438C13.5078 8.42578 13.7891 8.42578 14 8.42578C15.0078 5.77734 15.9453 4.3125 17.7266 4.3125C19.8242 4.3125 22.0625 6.80859 22.0625 9.26953C22.0625 10.6289 21.3008 11.3203 19.918 11.3203H17.2812C17.3047 11.5781 17.3164 11.8008 17.3047 12.0469C20 13.0664 21.4883 13.9922 21.4883 15.7969C21.4883 17.8945 18.9922 20.1328 16.5312 20.1328C15.1719 20.1328 14.4805 19.3828 14.4805 17.9883V15.2578C14.2578 15.293 14.0586 15.3047 13.8125 15.293C12.7695 18.0469 11.8203 19.5586 10.0156 19.5586ZM13.8711 13.6523C14.8203 13.6523 15.582 12.8906 15.582 11.9414C15.582 10.9805 14.8203 10.2188 13.8711 10.2188C12.9102 10.2188 12.1484 10.9805 12.1484 11.9414C12.1484 12.8906 12.9102 13.6523 13.8711 13.6523Z" fill="white"/>
</g>
<defs>
<clipPath id="clip0_2124_49996">
<rect width="23.7305" height="27.293" fill="white" transform="translate(2)"/>
</clipPath>
</defs>
</svg>
