<svg width="28" height="28" viewBox="0 0 28 28" fill="none" xmlns="http://www.w3.org/2000/svg">
<path d="M14.4453 22.9648C16.6719 22.9648 18.5469 19.5664 19.0273 18.7695C19.6367 17.7734 19.3555 16.7773 19.3555 16.1914C19.3555 15.8281 20.5977 14.9258 20.5977 13.8594C20.5977 12.7812 18.1953 11.8906 18.1953 11.457C18.1953 11.1758 18.4297 10.8359 18.6641 10.8359C19.1211 10.8359 20.3867 12.4648 21.1602 12.4648C21.6289 12.4648 21.7695 12.0547 21.957 12.0547C22.2734 12.0547 22.5195 15.5352 24.1367 16.25L24.6289 15.1719C23.1406 14.7852 23.6914 10.7773 22.0859 10.7773C21.5703 10.7773 21.2539 11.2344 21.0547 11.2344C20.9258 11.2344 20.6211 10.9766 19.9297 10.4141C19.5898 10.1445 19.2383 9.78125 18.6055 9.78125C17.832 9.78125 17.082 10.6602 17.082 11.4688C17.082 12.7461 19.4141 13.4141 19.4141 13.8594C19.4141 14.1289 19.3086 14.3398 18.875 14.832C18.3945 15.3711 18.1719 15.7344 18.1719 16.1914C18.1719 16.3906 18.1953 16.5781 18.207 16.7539C18.2656 17.5391 18.2305 17.832 18.0078 18.207C17.4688 19.0391 15.9336 21.7812 14.4453 21.7812C13.1211 21.7812 13.2383 19.8828 13.2383 18.125C13.2383 16.4141 11.8789 15.125 10.0742 15.125C8.67969 15.125 8.01172 14.4453 8.01172 13.1328C8.01172 11.3047 9.93359 10.1094 11.7617 10.1094C12.9922 10.1094 13.9648 10.7305 14.9258 10.7305C15.7109 10.7305 16.2617 9.55859 16.2617 8.69141C16.2617 7.60156 13.9531 6.39453 13.25 6.39453C12.6758 6.39453 12.4297 6.73438 12.3828 7.47266L12.6172 7.44922L12.2422 7.15625C11.75 6.79297 11.3633 6.58203 10.918 6.58203C9.79297 6.58203 9.74609 8.09375 9.14844 8.09375C8.99609 8.09375 8.89062 7.98828 8.89062 7.82422C8.89062 7.30859 10.1445 6.25391 10.1562 4.80078L10.168 3.85156H9.05469V4.90625C9.05469 6.3125 7.80078 6.82812 7.80078 7.94141C7.80078 8.62109 8.28125 9.06641 9.01953 9.06641C10.4141 9.06641 10.4375 7.58984 11 7.58984C11.4453 7.60156 11.9609 8.375 12.8516 8.375C13.3906 8.375 13.6484 8 13.625 7.34375L13.2969 7.44922C14.0117 7.70703 15.1484 8.26953 15.1484 8.79688C15.1484 9.10156 15.0195 9.54688 14.7734 9.54688C14.2695 9.54688 12.9453 8.92578 11.7617 8.92578C9.28906 8.92578 6.82812 10.6484 6.82812 13.1328C6.82812 15.1133 8 16.3086 10.0742 16.3086C11.2109 16.3086 12.0547 17.0703 12.0547 18.125C12.0547 19.8594 11.8555 22.9648 14.4453 22.9648ZM17.6094 6.81641C17.8672 6.81641 18.1016 7.0625 18.5352 7.0625C18.8047 7.0625 19.0039 6.81641 19.0039 6.5C19.0039 5.92578 18.3594 5.49219 17.5156 5.49219C16.5195 5.49219 15.9453 5.82031 15.9453 6.39453C15.9453 6.76953 16.2266 7.03906 16.6016 7.03906C16.9883 7.03906 17.1641 6.81641 17.6094 6.81641ZM13.9531 25.9062C20.4922 25.9062 25.9062 20.4805 25.9062 13.9531C25.9062 7.41406 20.4805 2 13.9414 2C7.41406 2 2 7.41406 2 13.9531C2 20.4805 7.42578 25.9062 13.9531 25.9062ZM13.9531 24.3125C8.29297 24.3125 3.59375 19.6133 3.59375 13.9531C3.59375 8.29297 8.28125 3.59375 13.9414 3.59375C19.6016 3.59375 24.3125 8.29297 24.3125 13.9531C24.3125 19.6133 19.6133 24.3125 13.9531 24.3125Z" fill="black" fill-opacity="0.85"/>
</svg>
