<svg width="28" height="28" viewBox="0 0 28 28" fill="none" xmlns="http://www.w3.org/2000/svg">
<path d="M13.9531 25.9062C20.4922 25.9062 25.9062 20.4805 25.9062 13.9531C25.9062 7.41406 20.4805 2 13.9414 2C7.41406 2 2 7.41406 2 13.9531C2 20.4805 7.42578 25.9062 13.9531 25.9062ZM13.9531 23.9141C8.42188 23.9141 4.00391 19.4844 4.00391 13.9531C4.00391 8.42188 8.41016 3.99219 13.9414 3.99219C19.4727 3.99219 23.9141 8.42188 23.9141 13.9531C23.9141 19.4844 19.4844 23.9141 13.9531 23.9141Z" fill="black" fill-opacity="0.85"/>
<path d="M10.4492 18.8984C12.125 18.8984 13.4141 17.8438 13.4141 16.0859C13.4141 14.6328 12.5469 13.918 11.5625 13.8125V13.7773C12.6172 13.4961 13.1445 12.5469 13.1445 11.5625C13.1445 9.94531 11.9258 9.01953 10.4023 9.01953C9.19531 9.01953 8.14062 9.69922 7.80078 10.7422C7.74219 10.9648 7.71875 11.1758 7.71875 11.375C7.71875 11.7617 7.97656 12.0664 8.43359 12.0664C8.83203 12.0664 9.06641 11.9141 9.18359 11.5039C9.37109 10.8125 9.74609 10.3789 10.4023 10.3789C11.1758 10.3789 11.5391 10.9766 11.5391 11.75C11.5391 12.6055 11.0703 13.2266 10.1914 13.2266H9.91016C9.51172 13.2266 9.26562 13.4727 9.26562 13.8594C9.26562 14.2461 9.52344 14.4688 9.91016 14.4688H10.2031C11.1992 14.4688 11.75 15.0195 11.75 16.0391C11.75 16.8477 11.3164 17.5391 10.4492 17.5391C9.59375 17.5391 9.21875 16.9648 9.06641 16.4258C8.96094 16.0508 8.70312 15.8516 8.32812 15.8516C7.87109 15.8516 7.56641 16.1328 7.56641 16.5898C7.56641 16.8008 7.60156 17.0117 7.66016 17.1992C7.98828 18.2891 9.18359 18.8984 10.4492 18.8984ZM15.418 18.6875H19.4844C19.9062 18.6875 20.1523 18.418 20.1523 18.0078C20.1523 17.5625 19.8945 17.3164 19.4844 17.3164H16.707V17.2227L18.418 15.0547C19.5898 13.6016 19.9766 12.7344 19.9766 11.7031C19.9766 10.1211 18.8984 8.97266 17.2812 8.97266C15.7812 8.97266 14.6445 10.2148 14.6445 11.4336C14.6445 11.8672 14.9023 12.1719 15.3477 12.1719C15.7344 12.1719 15.9688 11.9961 16.0977 11.6094C16.3086 10.8242 16.6016 10.332 17.2695 10.332C17.9844 10.332 18.3828 10.9531 18.3828 11.7852C18.3828 12.7227 17.7266 13.6719 17.1055 14.4688L15.0664 17.0703C14.8555 17.3516 14.6328 17.6445 14.6328 18.0078C14.6328 18.4062 14.8906 18.6875 15.418 18.6875Z" fill="black" fill-opacity="0.85"/>
</svg>
