<svg width="28" height="28" viewBox="0 0 28 28" fill="none" xmlns="http://www.w3.org/2000/svg">
<path d="M6.67969 24.5977H20.8945C23.3555 24.5977 24.5742 23.3789 24.5742 20.9648V6.65625C24.5742 4.24219 23.3555 3.02344 20.8945 3.02344H6.67969C4.23047 3.02344 3 4.23047 3 6.65625V20.9648C3 23.3906 4.23047 24.5977 6.67969 24.5977Z" fill="black" fill-opacity="0.85"/>
<path d="M8.92969 13.8164C8.92969 10.5586 10.5703 8.39062 13.1367 8.0625V7.10156C13.1367 6.73828 13.3945 6.50391 13.7461 6.50391C14.0859 6.50391 14.332 6.73828 14.332 7.10156V8.05078C16.0547 8.21484 17.4258 9.24609 17.9531 10.6875C18.0234 10.8867 18.0703 11.0977 18.0703 11.2969C18.0703 11.7422 17.7773 12.0352 17.332 12.0352C16.9102 12.0352 16.6875 11.8711 16.5469 11.4023C16.2773 10.4531 15.4219 9.71484 14.332 9.52734V18.1406C15.4922 17.9883 16.3594 17.2734 16.6289 16.2891C16.7578 15.8672 17.0039 15.6445 17.4141 15.6445C17.8711 15.6445 18.1523 15.9492 18.1523 16.3828C18.1523 16.6055 18.1055 16.8047 18.0352 17.0039C17.5195 18.4453 16.1836 19.4648 14.332 19.6055V20.5664C14.332 20.9297 14.0859 21.1758 13.7461 21.1758C13.4062 21.1758 13.1367 20.9297 13.1367 20.5664V19.5938C10.5586 19.2773 8.92969 17.1211 8.92969 13.8164ZM10.5586 13.8164C10.5586 16.1602 11.5312 17.7539 13.1367 18.1055V9.5625C11.543 9.90234 10.5586 11.5078 10.5586 13.8164Z" fill="white"/>
</svg>
