<svg width="28" height="28" viewBox="0 0 28 28" fill="none" xmlns="http://www.w3.org/2000/svg">
<path d="M6.67969 24.5977H20.8945C23.3555 24.5977 24.5742 23.3789 24.5742 20.9648V6.65625C24.5742 4.24219 23.3555 3.02344 20.8945 3.02344H6.67969C4.23047 3.02344 3 4.23047 3 6.65625V20.9648C3 23.3906 4.23047 24.5977 6.67969 24.5977ZM6.70312 22.7109C5.53125 22.7109 4.88672 22.0898 4.88672 20.8711V6.75C4.88672 5.53125 5.53125 4.91016 6.70312 4.91016H20.8711C22.0312 4.91016 22.6875 5.53125 22.6875 6.75V20.8711C22.6875 22.0898 22.0312 22.7109 20.8711 22.7109H6.70312Z" fill="black" fill-opacity="0.85"/>
<path d="M20.5547 14.8008L20.5078 10.6875C20.5078 10.4883 20.4141 10.2656 20.2852 10.125C19.9805 9.80859 19.5352 9.80859 19.2188 10.125C19.0781 10.2656 18.9844 10.4648 18.9961 10.6641L19.0195 12.4102L19.0547 13.043L18.6797 12.6445L13.3125 7.26562C12.9961 6.96094 12.5273 6.96094 12.2344 7.26562C11.918 7.58203 11.9297 8.03906 12.2344 8.34375L17.6016 13.7227L18.0234 14.0977L17.3555 14.0742L15.6211 14.0508C15.4219 14.0508 15.2344 14.1211 15.082 14.2734C14.7773 14.5781 14.7773 15.0117 15.0938 15.3164C15.2109 15.457 15.4219 15.5391 15.6328 15.5508L19.7578 15.5977C20.1797 15.6094 20.5547 15.2344 20.5547 14.8008ZM7.04297 12.7969L7.08984 16.9336C7.10156 17.1445 7.17188 17.3555 7.28906 17.4844C7.60547 17.7891 8.0625 17.7891 8.36719 17.4844C8.50781 17.332 8.57812 17.1445 8.57812 16.9453L8.55469 15.1992L8.50781 14.543L8.90625 14.9648L14.2852 20.332C14.5898 20.6484 15.0469 20.6367 15.3516 20.332C15.668 20.0156 15.668 19.5703 15.3516 19.2656L9.97266 13.875L9.55078 13.5117L10.2187 13.5352L11.9766 13.5703C12.1641 13.5703 12.3516 13.4883 12.5039 13.3477C12.8086 13.043 12.8086 12.6094 12.4922 12.2812C12.3633 12.1523 12.1406 12.0586 11.9531 12.0586L7.82812 12.0234C7.39453 12.0234 7.04297 12.3516 7.04297 12.7969Z" fill="black" fill-opacity="0.85"/>
</svg>
