<svg width="28" height="28" viewBox="0 0 28 28" fill="none" xmlns="http://www.w3.org/2000/svg">
<path d="M13.9531 25.9062C20.4922 25.9062 25.9062 20.4805 25.9062 13.9531C25.9062 7.41406 20.4805 2 13.9414 2C7.41406 2 2 7.41406 2 13.9531C2 20.4805 7.42578 25.9062 13.9531 25.9062Z" fill="black" fill-opacity="0.85"/>
<path d="M9.30078 15.125C9.30078 14.7969 9.54688 14.5391 9.88672 14.5391H17.9961C18.3359 14.5391 18.5703 14.7969 18.5703 15.125C18.5703 15.4766 18.3359 15.7344 17.9961 15.7344H12.4062C12.043 15.9922 11.8672 16.4023 11.8672 16.7773C11.8672 17.8203 12.8281 18.3359 13.9531 18.3359C14.8555 18.3359 15.6758 17.9492 15.9922 17.1523C16.1562 16.7539 16.4023 16.625 16.6953 16.625C17.1641 16.625 17.4336 16.9414 17.4219 17.3633C17.4102 17.668 17.3164 17.9609 17.1289 18.2305C16.4961 19.2734 15.3008 19.7773 13.9883 19.7773C12.0078 19.7773 10.3438 18.6992 10.3438 16.8359C10.3438 16.4844 10.4609 16.0742 10.6953 15.7344H9.88672C9.54688 15.7344 9.30078 15.4766 9.30078 15.125ZM9.33594 12.7109C9.33594 12.3594 9.57031 12.1133 9.91016 12.1133H15.5C15.8633 11.8438 16.0391 11.4336 16.0391 11.0586C16.0391 10.0273 15.0781 9.5 13.9531 9.5C13.0508 9.5 12.2422 9.88672 11.9141 10.6836C11.75 11.082 11.5039 11.2109 11.2109 11.2109C10.7422 11.2109 10.4727 10.8945 10.4844 10.4844C10.4961 10.168 10.5898 9.88672 10.7773 9.61719C11.4219 8.5625 12.6055 8.05859 13.918 8.05859C15.8984 8.05859 17.5625 9.13672 17.5625 11C17.5625 11.3516 17.4453 11.7617 17.2109 12.1133H18.0195C18.3594 12.1133 18.6055 12.3594 18.6055 12.7109C18.6055 13.0391 18.3594 13.2969 18.0195 13.2969H9.91016C9.57031 13.2969 9.33594 13.0391 9.33594 12.7109Z" fill="white"/>
</svg>
