<svg width="28" height="28" viewBox="0 0 28 28" fill="none" xmlns="http://www.w3.org/2000/svg">
<path d="M27.3279 21.8398C28.2888 18.3359 25.7342 16.8125 19.4646 16.8125C16.5115 16.8125 13.5349 17.0586 10.9685 17.5039L11.5193 18.1953C11.8943 13.2148 10.4529 9.05469 7.72243 7.12109L7.94509 8.25781C9.0115 4.61328 6.77321 2 4.01931 2C1.74587 2 0.52712 3.64062 1.17165 6.24219L5.5779 24.125C6.0115 25.8828 7.17165 26.8203 8.89431 26.8203H22.8162C25.2302 26.8203 26.2967 25.6602 27.3279 21.8398ZM25.5232 21.3359C24.6677 24.5117 24.1287 24.9336 22.8162 24.9336H8.89431C8.12087 24.9336 7.61696 24.4883 7.41775 23.668L2.97634 5.75C2.69509 4.60156 3.16384 3.88672 4.03103 3.88672C5.36696 3.88672 6.58571 5.10547 6.25759 7.30859C6.1404 8.10547 6.22243 8.33984 6.66775 8.70312C8.73025 10.2383 9.8904 13.7891 9.79665 18.1953C9.79665 18.9102 10.242 19.3672 10.9568 19.3555C12.2927 19.2617 15.2927 18.6992 19.4646 18.6992C24.6092 18.6992 26.0271 19.4609 25.5232 21.3359Z" fill="black" fill-opacity="0.85"/>
<path d="M16.1602 15.3125C16.1602 13.7773 14.7774 12.9219 14.7774 11.8672C14.7774 11.2813 14.9298 10.9531 15.3282 10.4258C15.8907 9.67578 14.836 8.92578 14.2735 9.65234C13.711 10.3555 13.4766 11 13.4766 11.7852C13.4766 13.3789 14.836 14.1641 14.836 15.3125C14.836 16.4492 13.4766 17.2461 13.4766 18.8281C13.4766 19.6367 13.711 20.2812 14.2618 20.9727C14.8243 21.6875 15.879 20.9375 15.3165 20.1875C14.9298 19.6719 14.7774 19.3555 14.7774 18.7461C14.7774 17.7148 16.1602 16.8594 16.1602 15.3125ZM19.9102 15.3125C19.9102 13.7773 18.5274 12.9219 18.5274 11.8672C18.5274 11.2813 18.6915 10.9531 19.0782 10.4258C19.6407 9.67578 18.5977 8.92578 18.0352 9.65234C17.4727 10.3555 17.2266 11 17.2266 11.7852C17.2266 13.3789 18.586 14.1641 18.586 15.3125C18.586 16.4492 17.2266 17.2461 17.2266 18.8281C17.2266 19.6367 17.4727 20.2812 18.0235 20.9727C18.586 21.6875 19.629 20.9375 19.0782 20.1875C18.6915 19.6719 18.5274 19.3555 18.5274 18.7461C18.5274 17.7148 19.9102 16.8594 19.9102 15.3125ZM23.672 15.3125C23.672 13.7773 22.2891 12.9219 22.2891 11.8672C22.2891 11.2813 22.4415 10.9531 22.8399 10.4258C23.4024 9.67578 22.3477 8.92578 21.7852 9.65234C21.2227 10.3555 20.9884 11 20.9884 11.7852C20.9884 13.3789 22.3477 14.1641 22.3477 15.3125C22.3477 16.4492 20.9884 17.2461 20.9884 18.8281C20.9884 19.6367 21.2227 20.2812 21.7852 20.9727C22.336 21.6875 23.3907 20.9375 22.8282 20.1875C22.4415 19.6719 22.2891 19.3555 22.2891 18.7461C22.2891 17.7148 23.672 16.8594 23.672 15.3125Z" fill="black" fill-opacity="0.85"/>
</svg>
