<svg width="28" height="28" viewBox="0 0 28 28" fill="none" xmlns="http://www.w3.org/2000/svg">
<g clip-path="url(#clip0_2124_89162)">
<path d="M10.8008 25.4492C11.8086 25.7422 12.875 25.9062 13.9531 25.9062C20.4922 25.9062 25.9062 20.4805 25.9062 13.9531C25.9062 12.875 25.7539 11.8438 25.4727 10.8594L19.2383 12.875C19.3203 13.2266 19.3555 13.5781 19.3555 13.9531C19.3555 16.9414 16.9414 19.3555 13.9648 19.3672C13.5664 19.3672 13.1914 19.332 12.8164 19.2383L10.8008 25.4492ZM25.1445 9.89844C24.8281 8.99609 24.3945 8.15234 23.8672 7.36719L18.6172 11.2578C18.7461 11.4688 18.8516 11.6914 18.9219 11.9258L25.1445 9.89844ZM23.2695 6.55859C21.957 4.87109 20.1758 3.54688 18.125 2.80859L16.0977 9.05469C16.8359 9.34766 17.5039 9.82812 18.0078 10.4492L23.2695 6.55859ZM17.1758 2.48047C16.1445 2.17578 15.0664 2 13.9414 2C7.41406 2 2 7.41406 2 13.9531C2 15.0781 2.17578 16.1914 2.49219 17.2227L8.71484 15.1953C8.60938 14.7969 8.5625 14.3867 8.5625 13.9531C8.5625 11.0117 11.0117 8.58594 13.9766 8.58594C14.375 8.58594 14.7617 8.64453 15.1367 8.72656L17.1758 2.48047ZM2.83203 18.1719C3.16016 19.0508 3.59375 19.8828 4.10938 20.6562L9.35938 16.7773C9.24219 16.5781 9.14844 16.3672 9.05469 16.1445L2.83203 18.1719ZM4.73047 21.4648C6.04297 23.1172 7.82422 24.418 9.83984 25.1211L11.8555 18.9219C11.1406 18.6406 10.4844 18.1719 9.99219 17.5859L4.73047 21.4648ZM13.9648 18.1719C16.2852 18.1719 18.1602 16.2734 18.1602 13.9531C18.1602 11.668 16.2734 9.78125 13.9648 9.78125C11.6562 9.78125 9.75781 11.6797 9.75781 13.9531C9.75781 16.2969 11.6445 18.1719 13.9648 18.1719ZM13.9648 16.8242C12.3945 16.8242 11.1055 15.5352 11.1055 13.9766C11.1055 12.418 12.3945 11.1289 13.9648 11.1289C15.5234 11.1289 16.8125 12.418 16.8125 13.9648C16.8125 15.5352 15.5234 16.8242 13.9648 16.8242ZM13.9648 15.5234C14.8086 15.5352 15.5 14.832 15.5 13.9648C15.5 13.1328 14.8086 12.4297 13.9766 12.4297C13.0977 12.4297 12.418 13.1445 12.418 13.9648C12.418 14.832 13.0977 15.5117 13.9648 15.5234Z" fill="black" fill-opacity="0.85"/>
</g>
<defs>
<clipPath id="clip0_2124_89162">
<rect width="23.9062" height="23.918" fill="white" transform="translate(2 2)"/>
</clipPath>
</defs>
</svg>
