<svg width="28" height="28" viewBox="0 0 28 28" fill="none" xmlns="http://www.w3.org/2000/svg">
<path d="M13.9531 25.9062C20.4922 25.9062 25.9062 20.4805 25.9062 13.9531C25.9062 7.41406 20.4805 2 13.9414 2C7.41406 2 2 7.41406 2 13.9531C2 20.4805 7.42578 25.9062 13.9531 25.9062ZM13.9531 23.9141C8.42188 23.9141 4.00391 19.4844 4.00391 13.9531C4.00391 8.42188 8.41016 3.99219 13.9414 3.99219C19.4727 3.99219 23.9141 8.42188 23.9141 13.9531C23.9141 19.4844 19.4844 23.9141 13.9531 23.9141Z" fill="black" fill-opacity="0.85"/>
<path d="M10.2266 18.9336C12.5586 18.9336 13.2617 16.3086 13.2617 13.9531C13.2617 11.5977 12.5586 8.97266 10.2266 8.97266C7.89453 8.97266 7.19141 11.5977 7.19141 13.9531C7.19141 16.3086 7.89453 18.9336 10.2266 18.9336ZM10.2266 17.5391C9.26562 17.5391 8.90234 15.9805 8.90234 13.9531C8.90234 11.9141 9.26562 10.3555 10.2266 10.3555C11.1875 10.3555 11.5508 11.9141 11.5508 13.9531C11.5508 15.9805 11.1875 17.5391 10.2266 17.5391ZM17.6562 18.9336C19.9883 18.9336 20.6914 16.3086 20.6914 13.9531C20.6914 11.5977 19.9883 8.97266 17.6562 8.97266C15.3242 8.97266 14.6211 11.5977 14.6211 13.9531C14.6211 16.3086 15.3242 18.9336 17.6562 18.9336ZM17.6562 17.5391C16.6953 17.5391 16.332 15.9805 16.332 13.9531C16.332 11.9141 16.6953 10.3555 17.6562 10.3555C18.6172 10.3555 18.9805 11.9141 18.9805 13.9531C18.9805 15.9805 18.6172 17.5391 17.6562 17.5391Z" fill="black" fill-opacity="0.85"/>
</svg>
