<svg width="28" height="28" viewBox="0 0 28 28" fill="none" xmlns="http://www.w3.org/2000/svg">
<path d="M0 24.9922C0 25.8477 0.5625 26.5742 1.76953 26.5742H11.0859C12.4805 26.5742 13.1133 25.9531 13.1133 24.5586V10.5547C13.1133 9.52344 12.3398 8.97266 11.5078 8.97266C10.9453 8.97266 10.4062 9.23047 10.0195 9.76953L0.363281 23.7852C0.105469 24.1602 0 24.5938 0 24.9922ZM14.4727 24.5586C14.4727 25.9531 15.1055 26.5742 16.5 26.5742H25.8047C27.0234 26.5742 27.5859 25.8477 27.5859 24.9922C27.5859 24.5938 27.4688 24.1602 27.2109 23.7852L17.5547 9.76953C17.1797 9.23047 16.6289 8.97266 16.0664 8.97266C15.2344 8.97266 14.4727 9.52344 14.4727 10.5547V24.5586Z" fill="black" fill-opacity="0.85"/>
<path d="M1.81691 6.10159L4.95753 8.43362C5.60206 8.92581 6.3755 8.63284 6.3755 7.82425V6.14847H21.1997V7.82425C21.1997 8.63284 21.9849 8.92581 22.6294 8.43362L25.77 6.10159C26.2036 5.77347 26.1919 5.17581 25.77 4.85941L22.6294 2.51566C22.0083 2.04691 21.1997 2.293 21.1997 3.13675V4.78909H6.3755V3.13675C6.3755 2.31644 5.60206 2.02347 4.95753 2.51566L1.81691 4.85941C1.38331 5.17581 1.39503 5.78519 1.81691 6.10159Z" fill="black" fill-opacity="0.85"/>
</svg>
