<svg width="28" height="28" viewBox="0 0 28 28" fill="none" xmlns="http://www.w3.org/2000/svg">
<path d="M19.2148 26.2656V3.97656C19.2148 2.05469 18.1602 1 16.25 1H6.80469C4.87109 1 3.85156 2.05469 3.85156 3.97656V26.2656H19.2148ZM7.19141 13.2344C6.33594 13.2344 5.82031 12.7656 5.82031 11.9805V4.24609C5.82031 3.46094 6.33594 2.98047 7.19141 2.98047H15.8633C16.7188 2.98047 17.2461 3.46094 17.2461 4.24609V11.9805C17.2461 12.7656 16.7188 13.2344 15.8633 13.2344H7.19141ZM2 26.1836C2 26.7109 2.41016 27.1445 2.92578 27.1445H20.1172C20.6328 27.1445 21.0664 26.7109 21.0664 26.1836C21.0664 25.6797 20.6328 25.2578 20.1172 25.2578H2.92578C2.42188 25.2578 2 25.668 2 26.1836ZM18.3125 16.4336H19.332C19.8711 16.4336 20.2109 16.7383 20.2109 17.3242V21.2031C20.2109 22.8672 21.2188 23.875 22.8828 23.875C24.5352 23.875 25.5312 22.8672 25.5312 21.2031V6.84766C25.5312 6.14453 25.3438 5.60547 25.0039 5.06641L23.3984 2.46484C22.8008 1.51563 21.4062 2.37109 22.0039 3.33203L23.375 5.55859C23.5039 5.76953 23.4922 6.01562 23.3516 6.22656L21.8164 8.37109C21.3125 9.0625 21.3828 9.71875 21.9102 10.3398L23.8789 12.625V21.2031C23.8789 21.8359 23.5039 22.2227 22.8828 22.2227C22.2383 22.2227 21.8633 21.8359 21.8633 21.2031V17.3242C21.8633 15.707 20.9023 14.7812 19.332 14.7812H18.3125V16.4336Z" fill="black" fill-opacity="0.85"/>
</svg>
