<svg width="28" height="28" viewBox="0 0 28 28" fill="none" xmlns="http://www.w3.org/2000/svg">
<g clip-path="url(#clip0_2124_24838)">
<path d="M9.25781 26.0469H19.3828C21.3398 26.0469 22.6406 24.8047 22.6406 22.9648V5.08203C22.6406 3.23047 21.3398 2 19.3828 2H9.25781C7.30078 2 6 3.23047 6 5.08203V22.9648C6 24.8047 7.30078 26.0469 9.25781 26.0469ZM14.332 21.9922C13.9102 21.9922 13.5586 21.6523 13.5586 21.2305V18.9805C13.5586 18.5586 13.9102 18.2188 14.332 18.2188C14.7539 18.2188 15.0938 18.5586 15.0938 18.9805V21.2305C15.0938 21.6523 14.7539 21.9922 14.332 21.9922ZM14.332 16.2852C10.875 16.2852 8.07422 13.4727 8.07422 10.0273C8.07422 6.58203 10.875 3.78125 14.332 3.78125C17.7656 3.78125 20.5781 6.58203 20.5781 10.0273C20.5781 13.4727 17.7656 16.2852 14.332 16.2852ZM14.332 14.8086C16.957 14.8086 19.1016 12.6641 19.1016 10.0273C19.1016 7.39062 16.957 5.25781 14.332 5.25781C11.6836 5.25781 9.55078 7.39062 9.55078 10.0273C9.55078 12.6641 11.6836 14.8086 14.332 14.8086Z" fill="black" fill-opacity="0.85"/>
</g>
<defs>
<clipPath id="clip0_2124_24838">
<rect width="16.6406" height="24.0586" fill="white" transform="translate(6 2)"/>
</clipPath>
</defs>
</svg>
