<svg width="28" height="28" viewBox="0 0 28 28" fill="none" xmlns="http://www.w3.org/2000/svg">
<path d="M13.9531 25.9062C20.4922 25.9062 25.9062 20.4805 25.9062 13.9531C25.9062 7.41406 20.4805 2 13.9414 2C7.41406 2 2 7.41406 2 13.9531C2 20.4805 7.42578 25.9062 13.9531 25.9062Z" fill="black" fill-opacity="0.85"/>
<path d="M14.1523 21.0898C13.8242 21.0898 13.5664 20.8438 13.5664 20.4922V19.6836H11.75C11.1875 19.6836 10.8008 19.2969 10.8008 18.7344V9.39453C10.8008 8.82031 11.1992 8.43359 11.75 8.43359H13.5664V7.51953C13.5664 7.17969 13.8242 6.93359 14.1523 6.93359C14.4922 6.93359 14.7383 7.17969 14.7383 7.51953V8.43359H14.9023C16.7656 8.43359 18.0195 9.64062 18.0195 11.3164C18.0195 12.3477 17.3867 13.2969 16.5078 13.7305C17.7617 14.1055 18.5703 15.125 18.5703 16.4961C18.5703 18.4531 17.1523 19.6836 14.9023 19.6836H14.7383V20.4922C14.7383 20.8438 14.4922 21.0898 14.1523 21.0898ZM12.3594 18.2656L13.5664 18.2539V14.5977H12.3594V18.2656ZM14.7383 18.2422C16.2617 18.1836 17.0234 17.5625 17.0234 16.4258C17.0234 15.3125 16.2617 14.6914 14.7383 14.6094V18.2422ZM12.3477 13.1914H13.5664V9.83984H12.3594L12.3477 13.1914ZM14.7383 13.1211C15.8867 12.9688 16.4609 12.3828 16.4609 11.4336C16.4609 10.5078 15.8633 9.96875 14.7383 9.875V13.1211Z" fill="white"/>
</svg>
