<svg width="28" height="28" viewBox="0 0 28 28" fill="none" xmlns="http://www.w3.org/2000/svg">
<path d="M13.9531 25.918C20.4922 25.918 25.9062 20.5039 25.9062 13.9648C25.9062 7.4375 20.4805 2.01172 13.9414 2.01172C7.41406 2.01172 2 7.4375 2 13.9648C2 20.5039 7.42578 25.918 13.9531 25.918Z" fill="black" fill-opacity="0.85"/>
<path d="M11.2227 18.957C10.918 18.957 10.6953 18.8164 10.3789 18.5352L5.38672 13.8477C5.15234 13.6133 5.08203 13.3906 5.08203 13.1797C5.08203 12.9453 5.15234 12.7344 5.38672 12.5L10.3789 7.83594C10.707 7.53125 10.9063 7.39062 11.2109 7.39062C11.668 7.39062 11.9609 7.67188 11.9609 7.96484V8.25781L7.98828 11.9023C7.58984 12.2539 7.39062 12.7109 7.39062 13.1797C7.39062 13.6484 7.60156 14.0938 7.98828 14.4453L11.9609 18.1133V18.4062C11.9609 18.6875 11.668 18.957 11.2227 18.957ZM14.4102 18.957C14.1289 18.957 13.8711 18.8164 13.5664 18.5352L8.58594 13.8477C8.33984 13.6016 8.26953 13.3906 8.26953 13.1797C8.26953 12.9453 8.33984 12.7461 8.58594 12.5L13.5664 7.83594C13.8945 7.53125 14.1055 7.39062 14.3984 7.39062C14.832 7.39062 15.1484 7.75391 15.1484 8.16406V10.5664H15.3359C19.8477 10.5664 21.8398 13.4375 21.8398 18.1133C21.8398 18.6523 21.5586 18.957 21.207 18.957C20.9258 18.957 20.6328 18.875 20.4219 18.4883C19.3555 16.4258 17.7852 15.8047 15.3359 15.8047H15.1484V18.207C15.1484 18.6523 14.832 18.957 14.4102 18.957Z" fill="white"/>
</svg>
