<svg width="28" height="31" viewBox="0 0 28 31" fill="none" xmlns="http://www.w3.org/2000/svg">
<path d="M23.6053 16.2662C24.0389 16.5591 24.5779 16.4654 24.8826 16.0084C26.3826 13.9459 27.2732 11.1099 27.2732 8.21538C27.2732 5.32085 26.3943 2.46148 24.8826 0.422413C24.5779 -0.0228996 24.0389 -0.128369 23.6053 0.1646C23.1717 0.457569 23.1014 1.00835 23.4412 1.48882C24.7186 3.30523 25.4568 5.71929 25.4568 8.21538C25.4568 10.7232 24.6951 13.1255 23.4412 14.9419C23.1131 15.4224 23.1717 15.9732 23.6053 16.2662Z" fill="black" fill-opacity="0.85"/>
<path d="M19.2577 13.2193C19.6561 13.4888 20.2069 13.3951 20.5233 12.9498C21.414 11.7544 21.953 10.0084 21.953 8.21537C21.953 6.4224 21.414 4.68803 20.5233 3.49272C20.2069 3.03568 19.6561 2.95365 19.2577 3.2349C18.789 3.56303 18.7069 4.13725 19.0702 4.61772C19.7616 5.55522 20.1366 6.856 20.1366 8.21537C20.1366 9.57475 19.7499 10.8638 19.0702 11.813C18.7187 12.3052 18.789 12.8794 19.2577 13.2193Z" fill="black" fill-opacity="0.85"/>
<path d="M8.01953 29.274C8.51172 29.6841 9.17969 29.7427 9.64844 29.2857L13.2695 25.6646C13.7266 25.1959 13.7031 24.4927 13.2578 24.0357L11.4414 22.231L14.0898 19.5942C14.5469 19.149 14.5234 18.4341 14.0781 17.9654L11.6289 15.5044C14.8516 13.9576 16.668 11.3326 16.668 8.21533C16.668 3.89111 13.1641 0.398926 8.83984 0.398926C4.48047 0.398926 1 3.86768 1 8.21533C1 11.356 2.80469 14.1451 5.65234 15.399V26.4615C5.65234 26.8482 5.76953 27.2934 6.10938 27.5982L8.01953 29.274ZM8.83984 27.4223L7.53906 26.1334V14.0396C4.78516 13.4185 2.875 11.0396 2.875 8.21533C2.875 4.93408 5.53516 2.28564 8.83984 2.28564C12.1328 2.28564 14.7812 4.93408 14.7812 8.21533C14.7812 11.0162 12.8594 13.4185 9.91797 14.1216V16.4888L12.2148 18.7973L9.73047 21.2465V23.1919L11.3945 24.8326L8.83984 27.4223ZM8.83984 7.86377C9.88281 7.86377 10.7383 7.0083 10.7383 5.95361C10.7383 4.91064 9.88281 4.06689 8.83984 4.06689C7.77344 4.06689 6.94141 4.91064 6.94141 5.95361C6.94141 7.0083 7.78516 7.86377 8.83984 7.86377Z" fill="black" fill-opacity="0.85"/>
</svg>
