<svg width="28" height="28" viewBox="0 0 28 28" fill="none" xmlns="http://www.w3.org/2000/svg">
<g clip-path="url(#clip0_2124_68618)">
<path d="M-1 14.2266C-1 21.0117 3.67578 25.4531 10.7305 25.4531H17.3516C24.4062 25.4531 29.0938 21.0117 29.0938 14.2266C29.0938 7.44141 24.4062 3 17.3516 3H10.7305C3.67578 3 -1 7.44141 -1 14.2266ZM0.88672 14.2266C0.88672 8.64844 4.88281 4.88672 10.7305 4.88672H17.3516C23.2109 4.88672 27.207 8.64844 27.207 14.2266C27.207 19.8047 23.2109 23.5664 17.3516 23.5664H10.7305C4.88281 23.5664 0.88672 19.8047 0.88672 14.2266Z" fill="black" fill-opacity="0.85"/>
</g>
<defs>
<clipPath id="clip0_2124_68618">
<rect width="28" height="28" fill="white"/>
</clipPath>
</defs>
</svg>
