<svg width="28" height="28" viewBox="0 0 28 28" fill="none" xmlns="http://www.w3.org/2000/svg">
<path d="M4.07778 8.80396L4.95669 9.12037C5.87075 9.46021 6.72622 9.03834 7.06606 8.10084L8.7184 3.56568C9.05825 2.62818 8.67153 1.77271 7.75747 1.43287L6.87856 1.11646C5.9645 0.776619 5.12075 1.19849 4.76919 2.14771L3.12856 6.67115C2.777 7.60865 3.16372 8.46412 4.07778 8.80396ZM19.5114 8.80396L20.402 9.12037C21.3161 9.46021 22.1598 9.03834 22.4997 8.10084L24.152 3.56568C24.5036 2.62818 24.1051 1.77271 23.2028 1.43287L22.3122 1.11646C21.3981 0.776619 20.5661 1.19849 20.2145 2.14771L18.5622 6.67115C18.2223 7.60865 18.609 8.47584 19.5114 8.80396ZM5.44887 26.1829H6.38637C7.35903 26.1829 8.01528 25.5032 8.01528 24.5071V19.6907C8.01528 18.6829 7.35903 18.0032 6.38637 18.0032H5.44887C4.48794 18.0032 3.83169 18.6829 3.83169 19.6907V24.5071C3.83169 25.5032 4.48794 26.1829 5.44887 26.1829ZM20.8825 26.1829H21.82C22.7926 26.1829 23.4489 25.5032 23.4489 24.5071V19.6907C23.4489 18.6829 22.7926 18.0032 21.82 18.0032H20.8825C19.9215 18.0032 19.2653 18.6829 19.2653 19.6907V24.5071C19.2653 25.5032 19.9215 26.1829 20.8825 26.1829ZM7.0895 6.06178H10.0895C10.1598 5.95631 10.2536 5.83912 10.3356 5.74537L11.0153 5.08912L10.4528 4.5149C10.359 4.42115 10.2653 4.29224 10.2067 4.17506H7.0895V6.06178ZM20.2028 6.06178V4.17506H17.1442C17.0739 4.28053 16.9801 4.39771 16.8864 4.49146L16.2184 5.15943L16.7692 5.72193C16.8747 5.8274 16.9684 5.94459 17.027 6.06178H20.2028ZM12.6911 23.0422H14.5778V8.54615C14.4606 8.47584 14.3317 8.39381 14.2145 8.27662L13.652 7.72584L12.9958 8.39381C12.902 8.49928 12.8083 8.56959 12.6911 8.62818V23.0422ZM7.0895 23.0422H20.2028V21.1555H7.0895V23.0422Z" fill="black" fill-opacity="0.85"/>
<path d="M11.0386 7.69066C11.3198 7.96019 11.7534 8.01879 12.0464 7.72582L13.6518 6.12035L15.1284 7.58519C15.3979 7.85472 15.8198 7.84301 16.0893 7.58519C16.3471 7.3391 16.3471 6.89379 16.0893 6.62426L14.6127 5.15941L16.2182 3.55394C16.5112 3.26097 16.4526 2.82738 16.183 2.54613C15.9018 2.2766 15.4682 2.21801 15.1752 2.51097L13.5815 4.11644L12.0932 2.6516C11.8237 2.39379 11.4018 2.39379 11.144 2.6516C10.8745 2.89769 10.8862 3.33129 11.144 3.60082L12.6089 5.0891L11.0034 6.68285C10.7104 6.97582 10.769 7.40941 11.0386 7.69066Z" fill="black" fill-opacity="0.85"/>
</svg>
