<svg width="29" height="28" viewBox="0 0 29 28" fill="none" xmlns="http://www.w3.org/2000/svg">
<path d="M10.793 13.8818C12.1992 13.8818 13.3477 12.7451 13.3477 11.3154C13.3477 9.90918 12.1992 8.76074 10.793 8.76074C9.36328 8.76074 8.22656 9.90918 8.22656 11.3154C8.22656 12.7451 9.36328 13.8818 10.793 13.8818ZM12.0117 22.8818C12.5977 22.5303 13.207 22.2256 13.8398 21.9795V17.5264C13.8398 17.3623 13.9688 17.2334 14.1328 17.2334H15.6211C16.2773 17.2334 16.8164 16.6943 16.8164 16.0381V8.74902L14.4258 10.6709V14.8545H10.2188C9.16406 14.8545 8.4375 15.5811 8.4375 16.624V18.8623C9.73828 19.835 10.9688 21.1357 12.0117 22.8818ZM18.6211 14.8193C19.2773 14.8193 19.8164 14.3037 19.8164 13.6357V5.78418L17.4141 8.1748V13.6357C17.4141 14.3037 17.9648 14.8193 18.6211 14.8193ZM14.4258 11.5264H15.75V10.4014L24.0234 2.12793C24.2812 1.87012 24.2812 1.45996 24.0234 1.20215C23.7656 0.932617 23.3438 0.932617 23.0859 1.20215L14.7656 9.51074C14.5195 9.74512 14.4258 10.0264 14.4258 10.4131V11.5264ZM0.65625 19.6006C4.19531 19.6006 8.14453 20.9482 10.418 26.8076C10.6406 27.417 11.332 27.5342 11.7422 27.124C14.3672 24.4873 17.4023 23.6201 21.7617 24.8506C22.125 24.9443 22.4062 24.792 22.5586 24.4404C23.4609 22.3545 25.3359 21.2998 27.5859 21.2998C27.9492 21.2998 28.2422 21.0186 28.2422 20.6553C28.2422 20.292 27.9492 19.999 27.5859 19.999C25.1016 19.999 22.7812 21.2178 21.5859 23.4561C17.3672 22.4131 14.0625 23.2686 11.3672 25.6943C8.78906 19.7529 4.33594 18.2998 0.65625 18.2998C0.28125 18.2998 0 18.5928 0 18.9561C0 19.3193 0.28125 19.6006 0.65625 19.6006Z" fill="black" fill-opacity="0.85"/>
</svg>
