<svg width="28" height="28" viewBox="0 0 28 28" fill="none" xmlns="http://www.w3.org/2000/svg">
<path d="M13.9531 25.9062C20.4922 25.9062 25.9062 20.4805 25.9062 13.9531C25.9062 7.41406 20.4805 2 13.9414 2C7.41406 2 2 7.41406 2 13.9531C2 20.4805 7.42578 25.9062 13.9531 25.9062ZM13.9531 23.9141C8.42188 23.9141 4.00391 19.4844 4.00391 13.9531C4.00391 8.42188 8.41016 3.99219 13.9414 3.99219C19.4727 3.99219 23.9141 8.42188 23.9141 13.9531C23.9141 19.4844 19.4844 23.9141 13.9531 23.9141Z" fill="black" fill-opacity="0.85"/>
<path d="M10.1445 18.8984C11.832 18.8984 13.1211 17.8438 13.1211 16.0859C13.1211 14.6328 12.2539 13.918 11.2578 13.8125V13.7773C12.3242 13.4961 12.8398 12.5469 12.8398 11.5625C12.8398 9.94531 11.6328 9.01953 10.0977 9.01953C8.89062 9.01953 7.84766 9.69922 7.50781 10.7422C7.44922 10.9648 7.41406 11.1758 7.41406 11.375C7.41406 11.7617 7.67188 12.0664 8.14062 12.0664C8.53906 12.0664 8.77344 11.9141 8.89062 11.5039C9.06641 10.8125 9.44141 10.3789 10.0977 10.3789C10.8711 10.3789 11.2461 10.9766 11.2461 11.75C11.2461 12.6055 10.7656 13.2266 9.88672 13.2266H9.60547C9.20703 13.2266 8.96094 13.4727 8.96094 13.8594C8.96094 14.2461 9.21875 14.4688 9.60547 14.4688H9.91016C10.8945 14.4688 11.4453 15.0195 11.4453 16.0391C11.4453 16.8477 11.0234 17.5391 10.1445 17.5391C9.30078 17.5391 8.91406 16.9648 8.77344 16.4258C8.65625 16.0508 8.41016 15.8516 8.03516 15.8516C7.56641 15.8516 7.26172 16.1328 7.26172 16.5898C7.26172 16.8008 7.29688 17.0117 7.35547 17.1992C7.69531 18.2891 8.89062 18.8984 10.1445 18.8984ZM18.6992 18.8398C19.1328 18.8398 19.4961 18.5703 19.4961 18.0078V16.8359H19.918C20.3633 16.8359 20.5742 16.543 20.5742 16.1445C20.5742 15.7695 20.3867 15.4766 19.918 15.4766H19.4961V10.332C19.4961 9.52344 18.9688 9.06641 18.1953 9.06641C17.375 9.06641 16.9883 9.48828 16.6602 10.2148L14.5625 14.7617C14.3633 15.2188 14.3047 15.5234 14.3047 15.8867C14.3047 16.4492 14.6914 16.8359 15.2656 16.8359H17.8906V18.0078C17.8906 18.6289 18.3242 18.8398 18.6992 18.8398ZM17.9258 15.5117H15.7461V15.4297L17.8789 10.543H17.9258V15.5117Z" fill="black" fill-opacity="0.85"/>
</svg>
