<svg width="36" height="28" viewBox="0 0 36 28" fill="none" xmlns="http://www.w3.org/2000/svg">
<path d="M23.2031 5.83984C23.7305 5.83984 24.1758 5.39453 24.1758 4.87891V2.32422C24.1758 1.80859 23.7305 1.35156 23.2031 1.35156C22.6758 1.35156 22.2305 1.80859 22.2305 2.32422V4.87891C22.2305 5.39453 22.6758 5.83984 23.2031 5.83984ZM28.6172 8.10156C28.9922 8.47656 29.6133 8.48828 30 8.10156L31.8047 6.30859C32.1797 5.93359 32.1797 5.30078 31.8047 4.92578C31.4297 4.55078 30.8086 4.55078 30.4453 4.92578L28.6172 6.74219C28.2422 7.10547 28.2422 7.72656 28.6172 8.10156ZM30.8555 13.5156C30.8555 14.0547 31.3125 14.4883 31.8281 14.4883H34.3711C34.8984 14.4883 35.332 14.0547 35.332 13.5156C35.332 13 34.8984 12.543 34.3711 12.543H31.8281C31.3125 12.543 30.8555 13 30.8555 13.5156ZM28.6172 18.9414C28.2422 19.3164 28.2422 19.9375 28.6172 20.3125L30.4453 22.1172C30.8086 22.5039 31.4297 22.4805 31.8047 22.1055C32.1797 21.7422 32.1797 21.1211 31.8047 20.7461L29.9883 18.9414C29.6133 18.5781 28.9922 18.5781 28.6172 18.9414ZM17.7891 18.9414C17.4141 18.5781 16.7812 18.5781 16.4062 18.9414L14.6133 20.7344C14.2266 21.1094 14.2383 21.7305 14.6016 22.0938C14.9766 22.4688 15.6094 22.4922 15.9727 22.1055L17.7773 20.3125C18.1523 19.9375 18.1523 19.3164 17.7891 18.9414ZM15.5391 13.5156C15.5391 13 15.0938 12.543 14.5664 12.543H12.0352C11.5078 12.543 11.0742 13 11.0742 13.5156C11.0742 14.0547 11.5078 14.4883 12.0352 14.4883H14.5664C15.0938 14.4883 15.5391 14.0547 15.5391 13.5156ZM17.7773 8.10156C18.1523 7.73828 18.1523 7.09375 17.7891 6.74219L15.9844 4.92578C15.6211 4.5625 15 4.55078 14.625 4.92578C14.25 5.30078 14.2383 5.93359 14.6133 6.29688L16.4062 8.10156C16.7812 8.47656 17.4023 8.47656 17.7773 8.10156ZM23.2031 19.3281C26.3672 19.3281 28.9922 16.7031 28.9922 13.5156C28.9922 10.3398 26.3672 7.70312 23.2031 7.70312C20.0273 7.70312 17.4023 10.3398 17.4023 13.5156C17.4023 16.7031 20.0273 19.3281 23.2031 19.3281Z" fill="black" fill-opacity="0.85"/>
<path d="M6.25781 26.3242H18.9375C23.0273 26.3242 26.2266 23.1953 26.2266 19.1641C26.2266 15.4141 23.3672 12.5195 19.5352 12.1328C17.8945 9.54297 15.2109 7.94922 12.0586 7.94922C7.82812 7.94922 4.20703 11.0312 3.41016 15.1562C1.37109 16.1055 0 18.0977 0 20.5C0 23.875 2.57812 26.3242 6.25781 26.3242Z" fill="white"/>
<path d="M6.25781 24.9531H18.9375C22.2773 24.9531 24.8672 22.4219 24.8672 19.1641C24.8672 15.9297 22.2305 13.4805 18.7266 13.457C17.3789 10.8906 14.9531 9.32031 12.0586 9.32031C8.23828 9.32031 5.00391 12.2852 4.64062 16.1406C2.69531 16.7266 1.37109 18.3906 1.37109 20.5C1.37109 23.1016 3.32812 24.9531 6.25781 24.9531Z" fill="black" fill-opacity="0.85"/>
</svg>
