<svg width="28" height="28" viewBox="0 0 28 28" fill="none" xmlns="http://www.w3.org/2000/svg">
<g clip-path="url(#clip0_2124_24725)">
<path d="M14.5898 26.6094C20.7891 26.6094 25.8047 21.1016 25.8047 14.3047C25.8047 7.50781 20.7891 2 14.5898 2C11.2617 2 8.23828 3.59375 6.17578 6.18359C5.96484 6.44141 5.88281 6.6875 5.88281 6.92188C5.88281 7.42578 6.33984 7.77734 6.83203 7.77734C7.11328 7.77734 7.40625 7.66016 7.61719 7.39062C9.32812 5.21094 11.8594 3.88672 14.5898 3.88672C19.7344 3.88672 23.9062 8.55078 23.9062 14.3047C23.9062 20.0586 19.7344 24.7227 14.5898 24.7227C11.8594 24.7227 9.32812 23.3867 7.61719 21.2188C7.40625 20.9492 7.11328 20.832 6.83203 20.832C6.33984 20.832 5.88281 21.1836 5.88281 21.6875C5.88281 21.9102 5.96484 22.168 6.17578 22.4258C8.23828 25.0156 11.2617 26.6094 14.5898 26.6094Z" fill="black" fill-opacity="0.85"/>
<path d="M3 20.3047C3 21.793 4.18359 22.9648 5.58984 23.0352C5.21484 22.5664 5.02734 22.1211 5.02734 21.7109C5.02734 20.7383 5.92969 19.9766 6.86719 19.9766C7.60547 19.9766 7.98047 20.3516 8.47266 20.9492C8.51953 20.7383 8.54297 20.5273 8.54297 20.3047V8.29297C8.54297 8.07031 8.51953 7.87109 8.47266 7.66016C8.00391 8.22266 7.62891 8.62109 6.87891 8.62109C5.92969 8.62109 5.02734 7.87109 5.02734 6.89844C5.02734 6.48828 5.21484 6.05469 5.58984 5.57422C4.19531 5.64453 3 6.80469 3 8.29297V20.3047ZM5.78906 14.1523C4.74609 14.1523 3.89062 13.3086 3.89062 12.2773C3.89062 11.2344 4.74609 10.3906 5.78906 10.3906C6.79688 10.3906 7.65234 11.2461 7.65234 12.2773C7.65234 13.3086 6.80859 14.1523 5.78906 14.1523ZM5.78906 13.2266C6.31641 13.2266 6.72656 12.8164 6.72656 12.2773C6.72656 11.7383 6.31641 11.3164 5.78906 11.3164C5.22656 11.3164 4.81641 11.7383 4.81641 12.2773C4.81641 12.8164 5.22656 13.2266 5.78906 13.2266Z" fill="black" fill-opacity="0.85"/>
</g>
<defs>
<clipPath id="clip0_2124_24725">
<rect width="22.8047" height="24.6211" fill="white" transform="translate(3 2)"/>
</clipPath>
</defs>
</svg>
