<svg width="28" height="33" viewBox="0 0 28 33" fill="none" xmlns="http://www.w3.org/2000/svg">
<g clip-path="url(#clip0_2124_50163)">
<path d="M6.62109 28.125H17.1914C19.582 28.125 20.8008 26.9062 20.8008 24.5508V6.19922C20.8008 3.83203 19.5586 2.63672 17.1914 2.63672H6.62109C4.25391 2.63672 3 3.83203 3 6.19922V24.5508C3 26.9062 4.23047 28.125 6.62109 28.125ZM7.74609 9.12891C6.80859 9.12891 6.04688 8.35547 6.04688 7.40625C6.04688 6.48047 6.80859 5.71875 7.74609 5.71875C8.68359 5.71875 9.45703 6.48047 9.45703 7.40625C9.45703 8.35547 8.68359 9.12891 7.74609 9.12891ZM6.73828 18.9375C6.31641 18.9375 5.97656 18.6094 5.97656 18.1758C5.97656 17.7539 6.31641 17.4141 6.73828 17.4141H10.2539C10.6875 17.4141 11.0273 17.7539 11.0273 18.1758C11.0273 18.6094 10.6875 18.9375 10.2539 18.9375H6.73828ZM6.73828 21.9609C6.31641 21.9609 5.97656 21.6328 5.97656 21.1992C5.97656 20.7656 6.31641 20.4375 6.73828 20.4375H10.2539C10.6875 20.4375 11.0273 20.7656 11.0273 21.1992C11.0273 21.6328 10.6875 21.9609 10.2539 21.9609H6.73828ZM6.73828 24.9844C6.31641 24.9844 5.97656 24.6445 5.97656 24.2227C5.97656 23.7891 6.31641 23.4492 6.73828 23.4492H10.2539C10.6875 23.4492 11.0273 23.7891 11.0273 24.2227C11.0273 24.6445 10.6875 24.9844 10.2539 24.9844H6.73828ZM13.5469 18.9375C13.1133 18.9375 12.7734 18.6094 12.7734 18.1758C12.7734 17.7539 13.1133 17.4141 13.5469 17.4141H17.0625C17.4844 17.4141 17.8242 17.7539 17.8242 18.1758C17.8242 18.6094 17.4844 18.9375 17.0625 18.9375H13.5469ZM13.5469 21.9609C13.1133 21.9609 12.7734 21.6328 12.7734 21.1992C12.7734 20.7656 13.1133 20.4375 13.5469 20.4375H17.0625C17.4844 20.4375 17.8242 20.7656 17.8242 21.1992C17.8242 21.6328 17.4844 21.9609 17.0625 21.9609H13.5469ZM13.5469 24.9844C13.1133 24.9844 12.7734 24.6445 12.7734 24.2227C12.7734 23.7891 13.1133 23.4492 13.5469 23.4492H17.0625C17.4844 23.4492 17.8242 23.7891 17.8242 24.2227C17.8242 24.6445 17.4844 24.9844 17.0625 24.9844H13.5469ZM6.39844 30.1875C6.96094 30.1875 7.33594 29.8008 7.33594 29.2383V26.9414H5.44922V29.2383C5.44922 29.8008 5.83594 30.1875 6.39844 30.1875ZM17.4023 30.1875C17.9766 30.1875 18.3516 29.8008 18.3516 29.2383V26.9414H16.4648V29.2383C16.4648 29.8008 16.8398 30.1875 17.4023 30.1875Z" fill="black" fill-opacity="0.85"/>
<path d="M19.1133 15.8203C22.582 15.8203 25.043 13.4297 25.043 10.0195C25.043 8.36719 24.3633 6.97266 24 6.17578C23.2734 4.61719 22.0898 2.63672 21.1055 1.125C20.6016 0.398438 19.8984 0 19.1133 0C18.3281 0 17.6367 0.398438 17.1328 1.125C16.1484 2.63672 14.9648 4.61719 14.2383 6.17578C13.875 6.97266 13.1836 8.36719 13.1836 10.0195C13.1836 13.4297 15.6562 15.8203 19.1133 15.8203Z" fill="white"/>
<path d="M19.1133 14.2148C21.7031 14.2148 23.4492 12.5391 23.4492 10.0195C23.4492 8.76562 22.9219 7.67578 22.5469 6.83203C21.8555 5.35547 20.7422 3.50391 19.7695 2.01562C19.5703 1.73438 19.3711 1.60547 19.1133 1.60547C18.8672 1.60547 18.6562 1.73438 18.4688 2.01562C17.4961 3.50391 16.3711 5.35547 15.6797 6.83203C15.3164 7.67578 14.7891 8.76562 14.7891 10.0195C14.7891 12.5391 16.5234 14.2148 19.1133 14.2148Z" fill="black" fill-opacity="0.85"/>
</g>
<defs>
<clipPath id="clip0_2124_50163">
<rect width="22.043" height="32.8477" fill="white" transform="translate(3)"/>
</clipPath>
</defs>
</svg>
