<svg width="28" height="28" viewBox="0 0 28 28" fill="none" xmlns="http://www.w3.org/2000/svg">
<path d="M6.67969 24.5977H20.8945C23.3555 24.5977 24.5742 23.3789 24.5742 20.9648V6.65625C24.5742 4.24219 23.3555 3.02344 20.8945 3.02344H6.67969C4.23047 3.02344 3 4.23047 3 6.65625V20.9648C3 23.3906 4.23047 24.5977 6.67969 24.5977Z" fill="black" fill-opacity="0.85"/>
<path d="M10.1367 18.9375C9.04688 18.9375 7.96875 18.3047 7.54688 17.3203C7.44141 17.0859 7.37109 16.8164 7.37109 16.5352C7.37109 16.0898 7.65234 15.8086 8.09766 15.8086C8.42578 15.8086 8.69531 15.9961 8.84766 16.3828C9.05859 17.0391 9.44531 17.5195 10.1133 17.5195C11.0156 17.5195 11.3555 16.5 11.3555 15.4922C11.3555 14.6016 11.0273 13.5352 10.1367 13.5352C9.64453 13.5352 9.35156 13.8164 9.07031 14.2148C8.8125 14.5547 8.625 14.6719 8.29688 14.6719C7.73438 14.6719 7.51172 14.2734 7.51172 13.8047C7.51172 13.6406 7.51172 13.4531 7.52344 13.2656L7.71094 9.96094C7.75781 9.35156 8.03906 8.92969 8.68359 8.92969H12.0117C12.4102 8.92969 12.6797 9.23438 12.6797 9.63281C12.6797 10.0664 12.4219 10.3594 12.0117 10.3594H9.16406L8.96484 13.3008H9.02344C9.33984 12.5859 9.98438 12.2578 10.6992 12.2578C12.2578 12.2578 13.0547 13.793 13.0547 15.457C13.0547 17.3672 12.0234 18.9375 10.1367 18.9375ZM17.543 18.9375C15.1289 18.9375 14.4141 16.2422 14.4141 13.8047C14.4141 11.3672 15.1289 8.67188 17.543 8.67188C19.957 8.67188 20.6719 11.3672 20.6719 13.8047C20.6719 16.2422 19.957 18.9375 17.543 18.9375ZM17.543 17.4961C18.5156 17.4961 18.8906 15.9141 18.8906 13.8047C18.8906 11.707 18.5156 10.1133 17.543 10.1133C16.5586 10.1133 16.1836 11.707 16.1836 13.8047C16.1836 15.9141 16.5586 17.4961 17.543 17.4961Z" fill="white"/>
</svg>
