<svg width="28" height="29" viewBox="0 0 28 29" fill="none" xmlns="http://www.w3.org/2000/svg">
<g clip-path="url(#clip0_2124_50003)">
<path d="M15.6562 15.2227L24.7734 6.10547C25.8984 4.99219 25.3594 3.38672 23.9648 2.95312C21.5742 2.17969 19.043 1.96875 16.1602 2.13281L15.7969 1.74609C14.5078 0.386719 12.6094 0.339844 11.2383 1.6875C9.89062 3.07031 9.9375 5.01562 11.2969 6.25781L11.6836 6.62109C11.5195 9.49219 11.7305 12 12.4805 14.4023C12.9258 15.8203 14.5312 16.3594 15.6562 15.2227ZM14.4961 14.0508C14.3086 14.2383 14.1445 14.2148 13.9805 13.6758C13.3359 11.625 13.1602 9.32812 13.3594 6.52734C13.3828 6.14062 13.2188 5.76562 12.9258 5.50781L12.4102 5.03906C11.7539 4.42969 11.7188 3.57422 12.4102 2.84766C13.1367 2.15625 13.9805 2.17969 14.6016 2.85938L15.0703 3.375C15.3398 3.66797 15.7383 3.83203 16.1484 3.79688C18.8906 3.62109 21.1992 3.79688 23.25 4.45312C23.7539 4.61719 23.7773 4.76953 23.6133 4.93359L14.4961 14.0508ZM19.6641 14.0391C21.8203 14.0391 23.5898 12.2812 23.5898 10.1367C23.5898 9.11719 23.1914 8.13281 22.4414 7.37109L21.5859 9.01172C21.8086 9.33984 21.9258 9.72656 21.9258 10.1367C21.9258 11.3789 20.8945 12.3867 19.6641 12.3867C19.2539 12.3867 18.8555 12.2695 18.5273 12.0586L17.0391 13.043C17.7656 13.7109 18.7031 14.0391 19.6641 14.0391ZM11.332 3.03516L12.5391 1.74609L11.1094 0.328125C10.7578 -0.0234375 10.2188 -0.0234375 9.86719 0.328125C9.52734 0.667969 9.51562 1.20703 9.86719 1.55859L11.332 3.03516ZM5.21484 16.2773L12.6328 9.45703L12.1055 7.39453L3.9375 14.9062L5.21484 16.2773ZM4.82812 17.1797C5.84766 17.1797 6.65625 16.3828 6.65625 15.3516C6.65625 14.332 5.84766 13.5234 4.82812 13.5234C3.79688 13.5234 3 14.332 3 15.3516C3 16.3828 3.79688 17.1797 4.82812 17.1797ZM9.58594 21.3398L10.9219 20.0039L5.09766 14.2148L3.77344 15.5391L9.58594 21.3398ZM9.9375 22.5586C10.9688 22.5586 11.7656 21.8086 11.7656 20.7305C11.7656 19.7109 10.9453 18.9023 9.9375 18.9023C8.90625 18.9023 8.10938 19.7109 8.10938 20.7305C8.10938 21.7617 8.90625 22.5586 9.9375 22.5586ZM8.98828 26.4375H10.875V20.7773H8.98828V26.4375ZM4.34766 28.0898H16.8164C17.25 28.0898 17.543 27.7734 17.543 27.3164C17.543 26.4375 16.7812 25.8164 15.5977 25.8164H5.56641C4.38281 25.8164 3.62109 26.4375 3.62109 27.3164C3.62109 27.7734 3.91406 28.0898 4.34766 28.0898Z" fill="black" fill-opacity="0.85"/>
</g>
<defs>
<clipPath id="clip0_2124_50003">
<rect width="22.3797" height="28.0898" fill="white" transform="translate(3)"/>
</clipPath>
</defs>
</svg>
