<svg width="28" height="28" viewBox="0 0 28 28" fill="none" xmlns="http://www.w3.org/2000/svg">
<path d="M6.67969 24.5977H20.8945C23.3555 24.5977 24.5742 23.3789 24.5742 20.9648V6.65625C24.5742 4.24219 23.3555 3.02344 20.8945 3.02344H6.67969C4.23047 3.02344 3 4.23047 3 6.65625V20.9648C3 23.3906 4.23047 24.5977 6.67969 24.5977Z" fill="black" fill-opacity="0.85"/>
<path d="M16.1143 19.5938C15.8096 19.8867 15.2002 19.8633 14.8721 19.5586L9.99707 14.9531C9.3291 14.3438 9.3291 13.2656 9.99707 12.6563L14.8721 8.05079C15.2354 7.71095 15.7744 7.69923 16.1026 8.01563C16.4658 8.35548 16.4776 8.94142 16.126 9.26954L11.3096 13.793L16.126 18.3398C16.4658 18.668 16.4776 19.2305 16.1143 19.5938Z" fill="white"/>
</svg>
