<svg width="32" height="28" viewBox="0 0 32 28" fill="none" xmlns="http://www.w3.org/2000/svg">
<path d="M30.082 21.5859C30.9141 21.5859 31.6172 20.9062 31.6172 20.1094C31.6172 19.3008 30.9258 18.6328 30.082 18.6328C29.2266 18.6328 28.5469 19.3008 28.5469 20.1094C28.5469 20.9062 29.25 21.5859 30.082 21.5859ZM30.082 16.3828C30.6562 16.3828 31.0547 15.9844 31.0781 15.3867L31.3242 7.08984C31.3477 6.33984 30.8555 5.83594 30.082 5.83594C29.3086 5.83594 28.8047 6.33984 28.8281 7.08984L29.0742 15.3867C29.0977 15.9844 29.5078 16.3828 30.082 16.3828Z" fill="black" fill-opacity="0.85"/>
<path d="M21.1523 24.457C23.625 24.457 24.832 23.2852 24.832 20.8359V15.1055C24.832 13.4297 24.3633 12.5273 23.0156 11.5078L13.9102 4.58203C12.3633 3.42188 11.168 3.01172 9.25781 3.01172H3.57422C1.20703 3.01172 0 4.20703 0 6.55078V20.8359C0 23.2852 1.19531 24.457 3.67969 24.457H21.1523ZM21.082 13.6523H3.60938C2.53125 13.6523 1.88672 13.0312 1.88672 11.9062V6.64453C1.88672 5.50781 2.51953 4.89844 3.60938 4.89844H9.25781C10.7578 4.89844 11.625 5.15625 12.6211 5.95312L21.3516 12.6328C21.832 12.9844 21.7031 13.6523 21.082 13.6523Z" fill="black" fill-opacity="0.85"/>
</svg>
