<svg width="28" height="28" viewBox="0 0 28 28" fill="none" xmlns="http://www.w3.org/2000/svg">
<path d="M13.9531 25.9062C20.4922 25.9062 25.9062 20.4805 25.9062 13.9531C25.9062 7.41406 20.4805 2 13.9414 2C7.41406 2 2 7.41406 2 13.9531C2 20.4805 7.42578 25.9062 13.9531 25.9062ZM13.9531 23.9141C8.42188 23.9141 4.00391 19.4844 4.00391 13.9531C4.00391 8.42188 8.41016 3.99219 13.9414 3.99219C19.4727 3.99219 23.9141 8.42188 23.9141 13.9531C23.9141 19.4844 19.4844 23.9141 13.9531 23.9141Z" fill="black" fill-opacity="0.85"/>
<path d="M9.48828 18.8516C9.91016 18.8516 10.25 18.5117 10.25 18.0898V16.3438L10.8711 15.7578L12.6758 18.4062C12.9922 18.875 13.4844 18.8984 13.8008 18.6758C14.0938 18.4648 14.2344 18.043 13.9062 17.5625L11.9844 14.8086L13.9062 12.8047C14.2344 12.4648 14.1523 12.0781 13.918 11.8672C13.6602 11.5977 13.1914 11.5156 12.8398 11.9141L10.2852 14.7617H10.25V9.76953C10.25 9.34766 9.91016 8.99609 9.48828 8.99609C9.06641 8.99609 8.71484 9.34766 8.71484 9.76953V18.0898C8.71484 18.5117 9.06641 18.8516 9.48828 18.8516ZM16.0977 18.8633C16.5078 18.8633 16.8242 18.5352 16.8242 18.1367V14.7148C16.8242 13.8594 17.1172 13.1445 17.9844 13.1445C18.2656 13.1445 18.5586 13.0859 18.7461 12.9336C18.8867 12.8281 18.9805 12.6523 18.9805 12.4297C18.9805 12.1953 18.8984 12.0195 18.7812 11.8906C18.6289 11.75 18.4297 11.6797 18.1953 11.6797C17.457 11.6797 16.9648 12.3242 16.8242 13.0742H16.7773V12.3594C16.7773 11.9727 16.4609 11.668 16.0742 11.668C15.6875 11.668 15.3711 11.9727 15.3711 12.3594V18.1367C15.3711 18.5352 15.6992 18.8633 16.0977 18.8633ZM19.543 18.793C20.0352 18.793 20.4453 18.3945 20.4453 17.8789C20.4453 17.3867 20.0352 16.9766 19.543 16.9766C19.0273 16.9766 18.6289 17.3867 18.6289 17.8789C18.6289 18.3945 19.0273 18.793 19.543 18.793Z" fill="black" fill-opacity="0.85"/>
</svg>
