<svg width="28" height="28" viewBox="0 0 28 28" fill="none" xmlns="http://www.w3.org/2000/svg">
<path d="M6.67969 24.5977H20.8945C23.3555 24.5977 24.5742 23.3789 24.5742 20.9648V6.65625C24.5742 4.24219 23.3555 3.02344 20.8945 3.02344H6.67969C4.23047 3.02344 3 4.23047 3 6.65625V20.9648C3 23.3906 4.23047 24.5977 6.67969 24.5977ZM6.70312 22.7109C5.53125 22.7109 4.88672 22.0898 4.88672 20.8711V6.75C4.88672 5.53125 5.53125 4.91016 6.70312 4.91016H20.8711C22.0312 4.91016 22.6875 5.53125 22.6875 6.75V20.8711C22.6875 22.0898 22.0312 22.7109 20.8711 22.7109H6.70312Z" fill="black" fill-opacity="0.85"/>
<path d="M9.04688 13.8047C9.04688 17.2734 10.9336 19.4297 13.8047 19.4297C15.8789 19.4297 17.3438 18.3984 17.8945 16.8398C17.9531 16.6641 17.9883 16.4766 18 16.2773C18 15.8555 17.707 15.5742 17.2734 15.5742C16.875 15.5742 16.6523 15.7852 16.5234 16.1836C16.2422 17.1914 15.3164 17.9062 14.1211 18.0117V16.3125C14.1211 15.1875 14.8125 14.4023 15.8086 14.4023C16.043 14.4023 16.207 14.4492 16.3477 14.4492C16.6875 14.4492 16.9219 14.2383 16.9219 13.9336C16.9219 13.5117 16.4883 13.2305 15.8555 13.2305C15.1523 13.2305 14.4727 13.5938 14.1094 14.2852V13.793C14.1094 13.418 13.875 13.1953 13.5352 13.1953C13.1953 13.1953 12.9609 13.4414 12.9609 13.793V17.9062C11.4961 17.4961 10.6172 15.9727 10.6172 13.793C10.6172 11.25 11.8594 9.59766 13.793 9.59766C15.0586 9.59766 16.0781 10.3828 16.4414 11.4727C16.5703 11.8359 16.7695 12.082 17.1914 12.082C17.6367 12.082 17.9062 11.8008 17.9062 11.3672C17.9062 11.168 17.8711 10.957 17.8008 10.7695C17.2617 9.23438 15.668 8.17969 13.8047 8.17969C10.9336 8.17969 9.04688 10.3711 9.04688 13.8047Z" fill="black" fill-opacity="0.85"/>
</svg>
