<svg width="28" height="28" viewBox="0 0 28 28" fill="none" xmlns="http://www.w3.org/2000/svg">
<path d="M3.67969 24.5742H23.9531C26.4141 24.5742 27.6328 23.3672 27.6328 20.9531V9.62109C27.6328 7.20703 26.4141 6 23.9531 6H22.3359V4.42969C22.3359 3.53906 21.8203 3 20.918 3H17.4609C16.5703 3 16.0547 3.53906 16.0547 4.42969V6H11.5898V4.42969C11.5898 3.53906 11.0742 3 10.1719 3H6.71484C5.8125 3 5.30859 3.53906 5.30859 4.42969V6H3.67969C1.23047 6 0 7.20703 0 9.62109V20.9531C0 23.3672 1.23047 24.5742 3.67969 24.5742ZM1.88672 20.8477V9.72656C1.88672 8.50781 2.53125 7.88672 3.70312 7.88672H23.9297C25.0898 7.88672 25.7461 8.50781 25.7461 9.72656V20.8477C25.7461 22.0664 25.0898 22.6875 23.9297 22.6875H3.70312C2.53125 22.6875 1.88672 22.0664 1.88672 20.8477Z" fill="black" fill-opacity="0.85"/>
<path d="M5.98828 16.1484H10.875C11.3555 16.1484 11.7305 15.7734 11.7305 15.293C11.7305 14.8008 11.3555 14.4258 10.875 14.4258H5.98828C5.50781 14.4258 5.12109 14.8008 5.12109 15.293C5.12109 15.7734 5.50781 16.1484 5.98828 16.1484ZM19.1836 18.8203C19.6641 18.8203 20.0391 18.4453 20.0391 17.9648V16.1484H21.8555C22.3359 16.1484 22.7227 15.7734 22.7227 15.293C22.7227 14.8008 22.3359 14.4258 21.8555 14.4258H20.0391V12.6094C20.0391 12.1289 19.6641 11.7422 19.1836 11.7422C18.7031 11.7422 18.3164 12.1289 18.3164 12.6094V14.4258H16.5C16.0195 14.4258 15.6445 14.8008 15.6445 15.293C15.6445 15.7734 16.0195 16.1484 16.5 16.1484H18.3164V17.9648C18.3164 18.4453 18.7031 18.8203 19.1836 18.8203Z" fill="black" fill-opacity="0.85"/>
</svg>
