<svg width="28" height="28" viewBox="0 0 28 28" fill="none" xmlns="http://www.w3.org/2000/svg">
<path d="M6.27734 25.375C6.85156 25.375 7.23828 25.1641 7.8125 24.6016L14.1172 18.3555C14.1758 18.2969 14.2227 18.25 14.2812 18.25C14.3281 18.25 14.3867 18.2969 14.4453 18.3555L20.7383 24.6016C21.3242 25.1641 21.6992 25.375 22.2734 25.375C23.0703 25.375 23.5508 24.7656 23.5508 23.9688C23.5508 23.5234 23.375 22.9961 23.1992 22.5156L15.875 2.5C15.5 1.46875 14.9492 1 14.2812 1C13.6016 1 13.0625 1.46875 12.6875 2.5L5.35156 22.5156C5.1875 22.9961 5 23.5234 5 23.9688C5 24.7656 5.48047 25.375 6.27734 25.375ZM7.08594 22.8203C7.05078 22.7969 7.03906 22.75 7.0625 22.6797L14.1641 3.54297C14.1992 3.44922 14.2344 3.41406 14.2812 3.41406C14.3164 3.41406 14.3633 3.44922 14.3867 3.54297L21.4883 22.6797C21.5117 22.75 21.5 22.7969 21.4766 22.8203C21.4531 22.832 21.4062 22.8203 21.3711 22.7969L14.8672 16.1992C14.6562 15.9883 14.4453 15.9414 14.2812 15.9414C14.1055 15.9414 13.8945 15.9883 13.6953 16.1992L7.19141 22.7969C7.15625 22.8203 7.10938 22.832 7.08594 22.8203Z" fill="black" fill-opacity="0.85"/>
</svg>
