<svg width="28" height="28" viewBox="0 0 28 28" fill="none" xmlns="http://www.w3.org/2000/svg">
<path d="M13.9531 25.9062C20.4922 25.9062 25.9062 20.4805 25.9062 13.9531C25.9062 7.41406 20.4805 2 13.9414 2C7.41406 2 2 7.41406 2 13.9531C2 20.4805 7.42578 25.9062 13.9531 25.9062ZM13.9531 23.9141C8.42188 23.9141 4.00391 19.4844 4.00391 13.9531C4.00391 8.42188 8.41016 3.99219 13.9414 3.99219C19.4727 3.99219 23.9141 8.42188 23.9141 13.9531C23.9141 19.4844 19.4844 23.9141 13.9531 23.9141Z" fill="black" fill-opacity="0.85"/>
<path d="M9.47656 16.1211C9.47656 16.707 9.86328 17.0938 10.5078 17.0938H14.9141V18.5469C14.9141 19.168 15.2305 19.5312 15.7578 19.5312C16.3203 19.5312 16.6367 19.1797 16.6367 18.5469V17.0938H17.4219C17.9375 17.0938 18.2656 16.7773 18.2656 16.2852C18.2656 15.8398 17.9375 15.5469 17.4219 15.5469H16.6367V13.0156C16.6367 12.3828 16.3203 12.0312 15.7578 12.0312C15.2305 12.0312 14.9141 12.3945 14.9141 13.0156V15.5469H11.6563C12.7109 13.5781 13.7422 11.7969 14.832 9.79297C14.9258 9.60547 14.9961 9.42969 14.9961 9.24219C14.9961 8.78516 14.7031 8.38672 14.1641 8.38672C13.8008 8.38672 13.543 8.5625 13.332 8.94922C12.0898 11.1406 10.9297 13.1797 9.67578 15.3828C9.53516 15.6172 9.47656 15.875 9.47656 16.1211Z" fill="black" fill-opacity="0.85"/>
</svg>
