<svg width="28" height="31" viewBox="0 0 28 31" fill="none" xmlns="http://www.w3.org/2000/svg">
<g clip-path="url(#clip0_2124_88659)">
<path d="M4.8623 26.6279C5.35449 26.6279 5.75293 26.2412 5.75293 25.749V19.2334C6.0459 19.1045 7.14746 18.6826 8.87012 18.6826C13.2061 18.6826 15.9248 20.8037 20.0498 20.8037C21.8779 20.8037 22.5576 20.6045 23.4482 20.2061C24.2568 19.8428 24.7842 19.2334 24.7842 18.1553V6.26074C24.7842 5.62793 24.2451 5.26465 23.5654 5.26465C22.9912 5.26465 21.9131 5.75684 19.8975 5.75684C15.7725 5.75684 13.0654 3.63574 8.71777 3.63574C6.88965 3.63574 6.19824 3.83496 5.30762 4.2334C4.49902 4.59668 3.97168 5.20605 3.97168 6.27246V25.749C3.97168 26.2295 4.38184 26.6279 4.8623 26.6279ZM20.0498 19.0342C16.1475 19.0342 13.3818 16.9131 8.87012 16.9131C7.58105 16.9131 6.40918 17.0654 5.75293 17.335V6.33105C5.91699 5.94434 6.88965 5.40527 8.71777 5.40527C12.8428 5.40527 15.5967 7.52637 19.8975 7.52637C21.1748 7.52637 22.2295 7.37402 23.0146 7.15137V18.1084C22.8506 18.4951 21.8779 19.0342 20.0498 19.0342Z" fill="black" fill-opacity="0.85"/>
<path d="M23.0381 24.2256C23.9287 25.1162 25.3818 25.1162 26.2607 24.2021C27.1279 23.3115 27.1279 21.8936 26.249 21.0146L5.88184 0.65918C5.00293 -0.219727 3.5498 -0.219727 2.65918 0.65918C1.78027 1.53809 1.78027 3.00293 2.65918 3.88184L23.0381 24.2256Z" fill="white"/>
<path d="M23.999 23.2646C24.3623 23.6162 24.9365 23.6162 25.2764 23.2646C25.6279 22.9014 25.6396 22.3389 25.2764 21.9873L4.9209 1.63184C4.56934 1.28027 3.9834 1.28027 3.63184 1.63184C3.29199 1.97168 3.29199 2.56934 3.63184 2.90918L23.999 23.2646Z" fill="black" fill-opacity="0.85"/>
</g>
<defs>
<clipPath id="clip0_2124_88659">
<rect width="24.9097" height="30.252" fill="white" transform="translate(2)"/>
</clipPath>
</defs>
</svg>
