<svg width="28" height="28" viewBox="0 0 28 28" fill="none" xmlns="http://www.w3.org/2000/svg">
<path d="M6.67969 24.5977H20.8945C23.3555 24.5977 24.5742 23.3789 24.5742 20.9648V6.65625C24.5742 4.24219 23.3555 3.02344 20.8945 3.02344H6.67969C4.23047 3.02344 3 4.23047 3 6.65625V20.9648C3 23.3906 4.23047 24.5977 6.67969 24.5977Z" fill="black" fill-opacity="0.85"/>
<path d="M7.42967 14.8008C6.37498 14.8008 6.25779 13.6641 7.03123 13.3008L18.4453 7.87496C19.3945 7.42965 20.1914 8.23824 19.7578 9.17574L14.3906 20.6016C14.0273 21.3867 12.8906 21.2812 12.8906 20.1914L12.8789 15.1992C12.8789 14.9648 12.7265 14.8008 12.5039 14.8008H7.42967Z" fill="white"/>
</svg>
