<svg width="28" height="33" viewBox="0 0 28 33" fill="none" xmlns="http://www.w3.org/2000/svg">
<path d="M14.0504 1.75781C16.1246 1.75781 17.9996 2.51953 19.441 3.80859C19.9449 4.24219 20.4723 4.27734 20.8238 3.9375C21.2105 3.55078 21.1871 2.98828 20.7769 2.55469C19.0308 0.808594 16.6051 0 14.0504 0C11.5074 0 9.08162 0.808594 7.33553 2.55469C6.91365 2.98828 6.89021 3.55078 7.28865 3.9375C7.6285 4.27734 8.15584 4.24219 8.65975 3.80859C10.1011 2.51953 11.9879 1.75781 14.0504 1.75781Z" fill="black" fill-opacity="0.85"/>
<path d="M14.0507 5.87109C15.082 5.87109 15.9843 6.1875 16.6757 6.76172C17.2733 7.18359 17.7655 7.16016 18.0937 6.82031C18.4569 6.46875 18.4335 5.95312 18.0585 5.56641C17.3437 4.85156 15.7617 4.11328 14.0507 4.11328C12.3515 4.11328 10.7695 4.85156 10.0429 5.56641C9.66792 5.95312 9.64448 6.46875 10.0078 6.82031C10.3359 7.16016 10.8281 7.18359 11.4257 6.76172C12.1289 6.1875 13.0312 5.87109 14.0507 5.87109Z" fill="black" fill-opacity="0.85"/>
<path d="M14.0508 32.0859C18.5508 32.0859 20.5781 31.0664 20.5781 28.4766V13.2656C20.5781 10.5938 18.1055 9.01172 14.0508 9.01172C9.99609 9.01172 7.53516 10.5938 7.53516 13.2656V28.4766C7.53516 31.0664 9.55078 32.0859 14.0508 32.0859ZM8.53125 18.2461V15.8086H7.03125C6.45703 15.8086 6 16.2422 6 16.8047V17.25C6 17.8008 6.45703 18.2461 7.03125 18.2461H8.53125ZM19.5703 18.2461H21.0703C21.6562 18.2461 22.1016 17.8008 22.1016 17.25V16.8047C22.1016 16.2422 21.6562 15.8086 21.0703 15.8086H19.5703V18.2461ZM14.0508 18.6562C13.2305 18.6562 11.8711 18.7266 11.4023 18.7266C10.6875 18.7266 10.3594 18.4219 10.2891 17.6602L10.1367 15.9727C10.0195 14.5781 10.9336 14.0508 14.0508 14.0508C17.168 14.0508 18.0938 14.5781 17.9766 15.9727L17.8242 17.6602C17.7539 18.4219 17.4375 18.7266 16.6992 18.7266C16.2422 18.7266 14.9297 18.6562 14.0508 18.6562ZM14.0508 28.3477C10.9336 28.3477 9.96094 27.8906 10.1719 26.4492L10.3008 25.6289C10.4766 24.4805 11.3672 24.1172 14.0508 24.1172C16.7461 24.1172 17.625 24.4805 17.8125 25.6289L17.9414 26.4492C18.1641 27.8906 17.168 28.3477 14.0508 28.3477Z" fill="black" fill-opacity="0.85"/>
</svg>
