<svg width="28" height="28" viewBox="0 0 28 28" fill="none" xmlns="http://www.w3.org/2000/svg">
<path d="M6.67969 24.5977H20.8945C23.3555 24.5977 24.5742 23.3789 24.5742 20.9648V6.65625C24.5742 4.24219 23.3555 3.02344 20.8945 3.02344H6.67969C4.23047 3.02344 3 4.23047 3 6.65625V20.9648C3 23.3906 4.23047 24.5977 6.67969 24.5977Z" fill="black" fill-opacity="0.85"/>
<path d="M10.5117 18.8086C10.0313 18.8086 9.63281 18.4102 9.63281 17.918V10.5937L8.51953 11.4844C8.40234 11.5781 8.28516 11.6367 8.08594 11.6367C7.72266 11.6367 7.46484 11.3672 7.46484 10.9922C7.46484 10.6758 7.64062 10.4414 7.83984 10.2773L9.16406 9.24609C9.45703 9.03516 9.87891 8.75391 10.3828 8.75391C11.0156 8.75391 11.4023 9.11719 11.4023 9.73828V17.918C11.4023 18.4102 11.0039 18.8086 10.5117 18.8086ZM16.2773 18.9258C15.1758 18.9258 14.1094 18.293 13.6875 17.3086C13.582 17.0742 13.5117 16.8047 13.5117 16.5234C13.5117 16.0781 13.793 15.7969 14.2383 15.7969C14.5664 15.7969 14.8359 15.9727 14.9766 16.3594C15.1992 17.0273 15.5742 17.5078 16.2539 17.5078C17.1445 17.5078 17.4961 16.4883 17.4961 15.4805C17.4961 14.5898 17.1562 13.5234 16.2656 13.5234C15.7852 13.5234 15.4805 13.8047 15.2109 14.2031C14.9531 14.5312 14.7656 14.6602 14.4258 14.6602C13.875 14.6602 13.6406 14.25 13.6406 13.793C13.6406 13.6289 13.6406 13.4414 13.6523 13.2539L13.8516 9.94922C13.8984 9.31641 14.1797 8.90625 14.8125 8.90625H18.1406C18.5391 8.90625 18.8086 9.22266 18.8086 9.62109C18.8086 10.0547 18.5508 10.3359 18.1406 10.3359H15.3047L15.1055 13.2656H15.1641C15.4688 12.5742 16.125 12.2461 16.8398 12.2461C18.3984 12.2461 19.1953 13.7695 19.1953 15.4336C19.1953 17.3438 18.1523 18.9258 16.2773 18.9258Z" fill="white"/>
</svg>
