<svg width="28" height="28" viewBox="0 0 28 28" fill="none" xmlns="http://www.w3.org/2000/svg">
<path d="M6.67969 24.5977H20.8945C23.3555 24.5977 24.5742 23.3789 24.5742 20.9648V6.65625C24.5742 4.24219 23.3555 3.02344 20.8945 3.02344H6.67969C4.23047 3.02344 3 4.23047 3 6.65625V20.9648C3 23.3906 4.23047 24.5977 6.67969 24.5977ZM6.70312 22.7109C5.53125 22.7109 4.88672 22.0898 4.88672 20.8711V6.75C4.88672 5.53125 5.53125 4.91016 6.70312 4.91016H20.8711C22.0312 4.91016 22.6875 5.53125 22.6875 6.75V20.8711C22.6875 22.0898 22.0312 22.7109 20.8711 22.7109H6.70312Z" fill="black" fill-opacity="0.85"/>
<path d="M11.1328 19.1016H17.1562C17.6133 19.1016 17.9414 18.8086 17.9414 18.3398C17.9414 17.8477 17.6133 17.5664 17.1562 17.5664H12.8789V17.4844L15.668 14.5195C16.6992 13.4062 17.4258 12.4805 17.4258 11.1797C17.4258 9.39844 15.9961 8.21484 13.8281 8.21484C12.1641 8.21484 10.6992 9.22266 10.3125 10.5352C10.2656 10.7109 10.2539 10.8516 10.2539 11.0039C10.2539 11.4609 10.5586 11.7539 11.0156 11.7539C11.4375 11.7539 11.6367 11.4961 11.8477 11.168C12.1523 10.4531 12.7734 9.70312 13.9102 9.70312C15.0234 9.70312 15.7734 10.3477 15.7734 11.3203C15.7734 12.1758 15.0469 12.8906 14.3555 13.6172L10.6172 17.6367C10.4062 17.8594 10.3008 18.0938 10.3008 18.3398C10.3008 18.8086 10.6172 19.1016 11.1328 19.1016Z" fill="black" fill-opacity="0.85"/>
</svg>
