<svg width="28" height="28" viewBox="0 0 28 28" fill="none" xmlns="http://www.w3.org/2000/svg">
<path d="M13.9531 25.9062C20.4922 25.9062 25.9062 20.4805 25.9062 13.9531C25.9062 7.41406 20.4805 2 13.9414 2C7.41406 2 2 7.41406 2 13.9531C2 20.4805 7.42578 25.9062 13.9531 25.9062Z" fill="black" fill-opacity="0.85"/>
<path d="M13.8828 19.707C11.9492 19.707 10.543 18.9336 10.0625 17.7031C9.98047 17.5156 9.93359 17.3281 9.93359 17.1172C9.93359 16.6484 10.2617 16.3086 10.7539 16.3086C11.1055 16.3086 11.3984 16.5078 11.6094 16.8945C12.0078 17.6914 12.8516 18.1836 13.8477 18.1836C15.1836 18.1836 16.1797 17.1992 16.1797 15.875C16.1797 14.5391 15.3242 13.6484 14.0469 13.6484C13.4375 13.6484 12.9805 13.8359 12.4062 14.3281C11.9141 14.6914 11.6445 14.7852 11.1992 14.7852C10.5313 14.7852 10.1211 14.3281 10.168 13.625L10.5078 9.61719C10.5547 8.91406 11.0703 8.46875 11.8672 8.46875H16.8711C17.293 8.46875 17.5859 8.77344 17.5859 9.21875C17.5859 9.65234 17.2812 9.96875 16.8711 9.96875H12.043L11.7617 13.2383H11.8438C12.2773 12.6406 13.2852 12.207 14.2695 12.207C16.4844 12.207 18.0195 13.6953 18.0195 15.8281C18.0195 18.1719 16.332 19.707 13.8828 19.707Z" fill="white"/>
</svg>
