<svg width="30" height="28" viewBox="0 0 30 28" fill="none" xmlns="http://www.w3.org/2000/svg">
<g clip-path="url(#clip0_2124_24543)">
<path d="M3.67969 23.5156H25.8164C28.2539 23.5156 29.4961 22.2969 29.4961 19.8828V8.62109C29.4961 6.21875 28.2539 5 25.8164 5H3.67969C1.21875 5 0 6.20703 0 8.62109V19.8828C0 22.2969 1.21875 23.5156 3.67969 23.5156ZM3.70312 21.6289C2.53125 21.6289 1.88672 20.9961 1.88672 19.7773V8.72656C1.88672 7.50781 2.53125 6.88672 3.70312 6.88672H25.7812C26.9414 6.88672 27.6094 7.50781 27.6094 8.72656V19.7773C27.6094 20.9961 26.9414 21.6289 25.7812 21.6289H3.70312Z" fill="black" fill-opacity="0.85"/>
<path d="M11.1562 11.5039H12.0234C12.2344 11.5039 12.3633 11.3633 12.3633 11.1289V9.81641C12.3633 9.58203 12.2344 9.44141 12.0234 9.44141H11.1562C10.9453 9.44141 10.8164 9.58203 10.8164 9.81641V11.1289C10.8164 11.3633 10.9453 11.5039 11.1562 11.5039ZM13.7344 11.5039H14.5898C14.8008 11.5039 14.9297 11.3633 14.9297 11.1289V9.81641C14.9297 9.58203 14.8008 9.44141 14.5898 9.44141H13.7344C13.5234 9.44141 13.3828 9.58203 13.3828 9.81641V11.1289C13.3828 11.3633 13.5234 11.5039 13.7344 11.5039ZM16.3125 11.5039H17.168C17.3672 11.5039 17.5078 11.3633 17.5078 11.1289V9.81641C17.5078 9.58203 17.3672 9.44141 17.168 9.44141H16.3125C16.0898 9.44141 15.9609 9.58203 15.9609 9.81641V11.1289C15.9609 11.3633 16.0898 11.5039 16.3125 11.5039ZM18.8789 11.5039H19.7227C19.9453 11.5039 20.0742 11.3633 20.0742 11.1289V9.81641C20.0742 9.58203 19.9453 9.44141 19.7227 9.44141H18.8789C18.6562 9.44141 18.5273 9.58203 18.5273 9.81641V11.1289C18.5273 11.3633 18.6562 11.5039 18.8789 11.5039ZM21.4336 11.5039H22.3125C22.5117 11.5039 22.6523 11.3633 22.6523 11.1289V9.81641C22.6523 9.58203 22.5117 9.44141 22.3125 9.44141H21.4336C21.2344 9.44141 21.1055 9.58203 21.1055 9.81641V11.1289C21.1055 11.3633 21.2344 11.5039 21.4336 11.5039ZM24.0234 11.5039H24.8672C25.0898 11.5039 25.2188 11.3633 25.2188 11.1289V9.81641C25.2188 9.58203 25.0898 9.44141 24.8672 9.44141H24.0234C23.8008 9.44141 23.6719 9.58203 23.6719 9.81641V11.1289C23.6719 11.3633 23.8008 11.5039 24.0234 11.5039ZM11.1562 15.2656H12.0234C12.2344 15.2656 12.3633 15.1367 12.3633 14.8906V13.5898C12.3633 13.3437 12.2344 13.2148 12.0234 13.2148H11.1562C10.9453 13.2148 10.8164 13.3437 10.8164 13.5898V14.8906C10.8164 15.1367 10.9453 15.2656 11.1562 15.2656ZM13.7344 15.2656H14.5898C14.8008 15.2656 14.9297 15.1367 14.9297 14.8906V13.5898C14.9297 13.3437 14.8008 13.2148 14.5898 13.2148H13.7344C13.5234 13.2148 13.3828 13.3437 13.3828 13.5898V14.8906C13.3828 15.1367 13.5234 15.2656 13.7344 15.2656ZM16.3125 15.2656H17.168C17.3672 15.2656 17.5078 15.1367 17.5078 14.8906V13.5898C17.5078 13.3437 17.3672 13.2148 17.168 13.2148H16.3125C16.0898 13.2148 15.9609 13.3437 15.9609 13.5898V14.8906C15.9609 15.1367 16.0898 15.2656 16.3125 15.2656ZM18.8789 15.2656H19.7227C19.9453 15.2656 20.0742 15.1367 20.0742 14.8906V13.5898C20.0742 13.3437 19.9453 13.2148 19.7227 13.2148H18.8789C18.6562 13.2148 18.5273 13.3437 18.5273 13.5898V14.8906C18.5273 15.1367 18.6562 15.2656 18.8789 15.2656ZM21.4336 15.2656H22.3125C22.5117 15.2656 22.6523 15.1367 22.6523 14.8906V13.5898C22.6523 13.3437 22.5117 13.2148 22.3125 13.2148H21.4336C21.2344 13.2148 21.1055 13.3437 21.1055 13.5898V14.8906C21.1055 15.1367 21.2344 15.2656 21.4336 15.2656ZM24.0234 15.2656H24.8672C25.0898 15.2656 25.2188 15.1367 25.2188 14.8906V13.5898C25.2188 13.3437 25.0898 13.2148 24.8672 13.2148H24.0234C23.8008 13.2148 23.6719 13.3437 23.6719 13.5898V14.8906C23.6719 15.1367 23.8008 15.2656 24.0234 15.2656ZM11.1562 19.0391H12.0234C12.2344 19.0391 12.3633 18.8984 12.3633 18.6641V17.3516C12.3633 17.1172 12.2344 16.9766 12.0234 16.9766H11.1562C10.9453 16.9766 10.8164 17.1172 10.8164 17.3516V18.6641C10.8164 18.8984 10.9453 19.0391 11.1562 19.0391ZM13.7344 19.0391H22.3125C22.5117 19.0391 22.6523 18.8984 22.6523 18.6641V17.3516C22.6523 17.1172 22.5117 16.9766 22.3125 16.9766H13.7344C13.5234 16.9766 13.3828 17.1172 13.3828 17.3516V18.6641C13.3828 18.8984 13.5234 19.0391 13.7344 19.0391ZM24.0234 19.0391H24.8672C25.0898 19.0391 25.2188 18.8984 25.2188 18.6641V17.3516C25.2188 17.1172 25.0898 16.9766 24.8672 16.9766H24.0234C23.8008 16.9766 23.6719 17.1172 23.6719 17.3516V18.6641C23.6719 18.8984 23.8008 19.0391 24.0234 19.0391ZM8.77734 13.6016L5.34375 10.332C4.94531 9.95703 4.26562 10.1094 4.26562 10.7305V17.7734C4.26562 18.4062 4.94531 18.5586 5.34375 18.1836L8.77734 14.9023C9.21094 14.4922 9.21094 14.0117 8.77734 13.6016Z" fill="black" fill-opacity="0.85"/>
</g>
<defs>
<clipPath id="clip0_2124_24543">
<rect width="29.4961" height="18.5273" fill="white" transform="translate(0 5)"/>
</clipPath>
</defs>
</svg>
