<svg width="28" height="28" viewBox="0 0 28 28" fill="none" xmlns="http://www.w3.org/2000/svg">
<g clip-path="url(#clip0_2124_88819)">
<path d="M13.9531 25.9062C20.4922 25.9062 25.9062 20.4805 25.9062 13.9531C25.9062 7.41406 20.4805 2 13.9414 2C7.41406 2 2 7.41406 2 13.9531C2 20.4805 7.42578 25.9062 13.9531 25.9062ZM13.9531 23.9141C8.42188 23.9141 4.00391 19.4844 4.00391 13.9531C4.00391 8.42188 8.41016 3.99219 13.9414 3.99219C19.4727 3.99219 23.9141 8.42188 23.9141 13.9531C23.9141 19.4844 19.4844 23.9141 13.9531 23.9141Z" fill="black" fill-opacity="0.85"/>
<path d="M8.78512 19.9414C9.31246 20.4688 9.91012 20.4219 10.4257 19.8359L15.8164 13.707L14.0938 11.9844L7.95308 17.3398C7.34371 17.8672 7.30855 18.4531 7.8359 18.9805L8.78512 19.9414ZM19.1211 14.9375C19.3672 15.1719 19.6367 15.1953 19.8828 14.9609L21.6289 13.2266C21.8633 13.0039 21.8516 12.7109 21.6172 12.4648L21.1836 12.043C20.9492 11.8086 20.8203 11.7734 20.5625 11.7969L19.8945 11.8672L19.4492 11.4453L19.6484 10.625C19.7539 10.2265 19.6016 9.81639 19.1797 9.38279L18.0078 8.23436C16.3906 6.62889 13.4141 6.4531 11.7734 8.10545C11.4804 8.3867 11.5273 8.67967 11.7031 8.8906C11.8554 9.01951 12.0664 9.08982 12.2656 9.00779C13.3906 8.67967 14.375 8.62107 15.2188 9.12498L14.7734 10.2969C14.5859 10.8008 14.6797 11.1523 14.9961 11.4687L16.2852 12.7578C16.5312 13.0039 16.7891 13.0625 17.1641 12.9922L18.0898 12.793L18.5352 13.25L18.4648 13.9062C18.4414 14.1641 18.4648 14.3281 18.6875 14.5391L19.1211 14.9375Z" fill="black" fill-opacity="0.85"/>
</g>
<defs>
<clipPath id="clip0_2124_88819">
<rect width="23.9062" height="23.918" fill="white" transform="translate(2 2)"/>
</clipPath>
</defs>
</svg>
