<svg width="28" height="28" viewBox="0 0 28 28" fill="none" xmlns="http://www.w3.org/2000/svg">
<path d="M27.3279 21.8398C28.2888 18.3359 25.7342 16.8125 19.4646 16.8125C16.5115 16.8125 13.5349 17.0586 10.9685 17.5039L11.5193 18.1953C11.8943 13.2148 10.4529 9.05469 7.72243 7.12109L7.94509 8.25781C9.0115 4.61328 6.77321 2 4.01931 2C1.74587 2 0.52712 3.64062 1.17165 6.24219L5.5779 24.125C6.0115 25.8828 7.17165 26.8203 8.89431 26.8203H22.8162C25.2302 26.8203 26.2967 25.6602 27.3279 21.8398ZM25.5232 21.3359C24.6677 24.5117 24.1287 24.9336 22.8162 24.9336H8.89431C8.12087 24.9336 7.61696 24.4883 7.41775 23.668L2.97634 5.75C2.69509 4.60156 3.16384 3.88672 4.03103 3.88672C5.36696 3.88672 6.58571 5.10547 6.25759 7.30859C6.1404 8.10547 6.22243 8.33984 6.66775 8.70312C8.73025 10.2383 9.8904 13.7891 9.79665 18.1953C9.79665 18.9102 10.242 19.3672 10.9568 19.3555C12.2927 19.2617 15.2927 18.6992 19.4646 18.6992C24.6092 18.6992 26.0271 19.4609 25.5232 21.3359Z" fill="black" fill-opacity="0.85"/>
<path d="M21.9259 12.8398C24.0587 12.8398 25.5001 11.7148 25.5001 10.0273C25.5001 8.82031 24.5977 7.85938 23.3555 7.70703C24.3634 7.54297 25.172 6.60547 25.172 5.51562C25.172 4.07422 23.8477 3.01953 22.0079 3.01953C20.3321 3.01953 19.0665 3.80469 18.7618 5.05859C18.7384 5.19922 18.7266 5.29297 18.7266 5.46875C18.7266 5.86719 19.0196 6.16016 19.4532 6.16016C19.8282 6.16016 20.0626 5.98438 20.1915 5.60938C20.4141 4.82422 21.0821 4.37891 21.9845 4.37891C22.9688 4.37891 23.6016 4.87109 23.6016 5.67969C23.6016 6.51172 22.8868 7.12109 21.9376 7.12109H21.293C20.9063 7.12109 20.6251 7.37891 20.6251 7.77734C20.6251 8.16406 20.9063 8.44531 21.293 8.44531H21.9962C23.1446 8.44531 23.9298 9.05469 23.9298 9.96875C23.9298 10.8594 23.1329 11.4688 21.9493 11.4688C20.9766 11.4688 20.2735 11.0352 20.004 10.2383C19.8516 9.875 19.629 9.71094 19.2657 9.71094C18.8438 9.71094 18.5391 10.0039 18.5391 10.4258C18.5391 10.5781 18.5509 10.6484 18.5743 10.7891C18.8555 11.9961 20.2384 12.8398 21.9259 12.8398Z" fill="black" fill-opacity="0.85"/>
</svg>
