<svg width="28" height="28" viewBox="0 0 28 28" fill="none" xmlns="http://www.w3.org/2000/svg">
<path d="M13.9531 25.9062C20.4922 25.9062 25.9062 20.4805 25.9062 13.9531C25.9062 7.41406 20.4805 2 13.9414 2C7.41406 2 2 7.41406 2 13.9531C2 20.4805 7.42578 25.9062 13.9531 25.9062Z" fill="black" fill-opacity="0.85"/>
<path d="M9.88672 19.707C9.47656 19.707 9.19531 19.4258 9.19531 19.0156C9.19531 18.6289 9.5 18.3477 9.89844 18.3477H11.6797C10.2031 17.3867 9.23047 15.6055 9.23047 13.5312C9.23047 11.1289 10.3906 9.34766 12.3125 8.65625V7.58984C12.3125 7.23828 12.5586 6.99219 12.8984 6.99219C13.2383 6.99219 13.4961 7.23828 13.4961 7.58984V8.42188C13.6953 8.39844 13.918 8.38672 14.1055 8.38672C14.2812 8.38672 14.4453 8.38672 14.6094 8.41016V7.58984C14.6094 7.23828 14.8555 6.99219 15.1953 6.99219C15.5352 6.99219 15.7812 7.23828 15.7812 7.58984V8.69141C17.5508 9.37109 18.7109 11.1641 18.7227 13.2969C18.7227 13.7539 18.4062 14.082 17.9844 14.082C17.5273 14.082 17.2344 13.7539 17.2227 13.2852C17.1992 11.9375 16.6484 10.918 15.7812 10.3203V13.3555C15.7812 13.6953 15.5352 13.9414 15.1953 13.9414C14.8555 13.9414 14.6094 13.6953 14.6094 13.3555V9.875C14.457 9.85156 14.293 9.82812 14.0938 9.82812C13.918 9.82812 13.6953 9.85156 13.4961 9.875V13.3555C13.4961 13.6953 13.2383 13.9414 12.8984 13.9414C12.5586 13.9414 12.3125 13.6953 12.3125 13.3555V10.2852C11.3281 10.8945 10.7891 12.0547 10.7891 13.707C10.7891 16.3438 12.8516 18.3477 15.5234 18.3477H17.375C17.7852 18.3477 18.0781 18.6289 18.0781 19.0156C18.0781 19.4141 17.7969 19.707 17.375 19.707H9.88672Z" fill="white"/>
</svg>
