<svg width="28" height="28" viewBox="0 0 28 28" fill="none" xmlns="http://www.w3.org/2000/svg">
<path d="M23.2383 4.38281C22.043 3.1875 20.3555 3 18.3516 3H9.22266C7.25391 3 5.56641 3.1875 4.37109 4.38281C3.17578 5.57812 3 7.25391 3 9.22266V18.3516C3 20.3555 3.17578 22.0312 4.37109 23.2266C5.56641 24.4219 7.25391 24.6094 9.24609 24.6094H18.3516C20.3555 24.6094 22.043 24.4219 23.2383 23.2266C24.4336 22.0312 24.6094 20.3555 24.6094 18.3516V9.24609C24.6094 7.24219 24.4336 5.57812 23.2383 4.38281Z" fill="black" fill-opacity="0.85"/>
<path d="M13.793 7.65234C14.332 7.65234 14.707 8.02734 14.707 8.56641V14.5781L14.6133 17.1562L15.832 15.6914L17.25 14.25C17.4141 14.0625 17.6367 13.9805 17.8945 13.9805C18.3984 13.9805 18.7852 14.3555 18.7852 14.8594C18.7852 15.1172 18.7031 15.3281 18.5391 15.4922L14.5078 19.5C14.2734 19.7344 14.0742 19.8516 13.793 19.8516C13.5352 19.8516 13.3477 19.7461 13.1016 19.5L9.07031 15.4922C8.89453 15.3281 8.82422 15.1172 8.82422 14.8594C8.82422 14.3555 9.19922 13.9805 9.70312 13.9805C9.96094 13.9805 10.1836 14.0742 10.3477 14.25L11.7773 15.6914L12.9844 17.1445L12.8906 14.5781V8.56641C12.8906 8.02734 13.2656 7.65234 13.793 7.65234Z" fill="white"/>
</svg>
