<svg width="28" height="28" viewBox="0 0 28 28" fill="none" xmlns="http://www.w3.org/2000/svg">
<g clip-path="url(#clip0_2124_89384)">
<path d="M8.83594 6.29688L10.1719 4.96094L6.50391 1.30469C6.14062 0.929687 5.53125 0.929687 5.16797 1.30469C4.80469 1.66797 4.80469 2.26562 5.16797 2.64062L8.83594 6.29688ZM23.8711 19.9844L22.5586 18.6367C20.6953 20.5234 18.1055 21.6602 15.2109 21.6602C9.43359 21.6602 4.88672 17.1133 4.88672 11.3359C4.88672 8.45312 6.02344 5.86328 7.88672 4.01172L6.51562 2.72266C4.33594 4.91406 3 7.94922 3 11.3359C3 18.1445 8.40234 23.5469 15.2109 23.5469C18.6211 23.5469 21.668 22.1875 23.8711 19.9844ZM21.4688 16.2695L20.0742 17.5352L24.1992 21.6602C24.5625 22.0234 25.1602 22.0234 25.5234 21.6602C25.8984 21.2969 25.8984 20.6875 25.5234 20.3242L21.4688 16.2695ZM14.2617 23.0547V26.1719H16.1484V23.0547H14.2617ZM11.0039 27.3789H19.4414C19.957 27.3789 20.3789 26.957 20.3789 26.4414C20.3789 25.9258 19.957 25.4922 19.4414 25.4922H11.0039C10.4883 25.4922 10.0547 25.9258 10.0547 26.4414C10.0547 26.957 10.4883 27.3789 11.0039 27.3789ZM15.2109 19.9492C19.957 19.9492 23.8125 16.0938 23.8125 11.3359C23.8125 6.58984 19.957 2.73438 15.2109 2.73438C10.4531 2.73438 6.59766 6.58984 6.59766 11.3359C6.59766 16.0938 10.4531 19.9492 15.2109 19.9492Z" fill="black" fill-opacity="0.85"/>
</g>
<defs>
<clipPath id="clip0_2124_89384">
<rect width="22.8047" height="26.3789" fill="white" transform="translate(3 1)"/>
</clipPath>
</defs>
</svg>
