<svg width="28" height="28" viewBox="0 0 28 28" fill="none" xmlns="http://www.w3.org/2000/svg">
<path d="M21.707 5.01172C21.2383 5.01172 20.8633 5.21094 20.3711 5.45703L5.3125 12.7695C4.31641 13.2617 4 13.707 4 14.3281C4 14.9492 4.31641 15.4062 5.3125 15.8984L20.3711 23.1992C20.875 23.4453 21.25 23.6445 21.7188 23.6445C22.5859 23.6445 23.1133 22.9883 23.1133 21.9688V6.6875C23.1133 5.66797 22.5742 5.01172 21.707 5.01172ZM21.1094 7.23828C21.1797 7.23828 21.2266 7.29688 21.2266 7.37891L21.2383 21.2773C21.2383 21.3711 21.1914 21.418 21.1211 21.418C21.0742 21.418 21.0273 21.3945 20.9805 21.3711L6.625 14.457C6.56641 14.4336 6.51953 14.3867 6.51953 14.3281C6.51953 14.2695 6.56641 14.2227 6.625 14.1992L20.9688 7.29688C21.0156 7.26172 21.0625 7.23828 21.1094 7.23828Z" fill="black" fill-opacity="0.85"/>
</svg>
