<svg width="28" height="28" viewBox="0 0 28 28" fill="none" xmlns="http://www.w3.org/2000/svg">
<path d="M1.19649 21.8398C2.22774 25.6602 3.29414 26.8203 5.70821 26.8203H19.6184C21.3527 26.8203 22.5129 25.8828 22.9465 24.125L27.3527 6.24219C27.9973 3.64062 26.7785 2 24.4934 2C21.7395 2 19.5129 4.61328 20.5793 8.25781L20.802 7.12109C18.0715 9.05469 16.6301 13.2148 17.0051 18.1953L17.5441 17.5039C14.9895 17.0586 12.0129 16.8125 9.05977 16.8125C2.79024 16.8125 0.235549 18.3359 1.19649 21.8398ZM3.00117 21.3359C2.48555 19.4609 3.91524 18.6992 9.05977 18.6992C13.2316 18.6992 16.2316 19.2617 17.5676 19.3555C18.2824 19.3672 18.7277 18.9102 18.716 18.1953C18.634 13.7891 19.7941 10.2383 21.8449 8.70312C22.2902 8.33984 22.384 8.10547 22.2551 7.30859C21.9387 5.10547 23.1574 3.88672 24.4934 3.88672C25.3605 3.88672 25.8293 4.60156 25.548 5.75L21.1066 23.668C20.9074 24.4883 20.4035 24.9336 19.6184 24.9336H5.70821C4.39571 24.9336 3.85664 24.5117 3.00117 21.3359Z" fill="black" fill-opacity="0.85"/>
<path d="M2.4502 9.79297C2.4502 11.5156 4.02052 13.25 5.47364 13.25C6.80958 13.25 7.47755 12.0547 8.28614 9.93359L8.57911 9.875V12.1602C8.57911 13.1445 9.09473 13.6484 10.0439 13.6484C11.7549 13.6484 13.501 12.0898 13.501 10.625C13.501 9.27734 12.2939 8.60938 10.1729 7.80078L10.1143 7.50781H12.3994C13.3838 7.50781 13.8877 7.00391 13.8877 6.05469C13.8877 4.33203 12.3291 2.58594 10.8643 2.58594C9.52833 2.58594 8.84864 3.80469 8.05177 5.9375L7.74708 5.97266V3.6875C7.74708 2.71484 7.25489 2.19922 6.30567 2.19922C4.5713 2.19922 2.83692 3.76953 2.83692 5.22266C2.83692 6.55859 4.05567 7.22656 6.18848 8.03516L6.21192 8.33984H3.93848C2.95411 8.33984 2.4502 8.85547 2.4502 9.79297ZM6.99708 7.91797C6.99708 7.27344 7.5127 6.74609 8.16895 6.74609C8.81348 6.74609 9.34083 7.27344 9.34083 7.91797C9.34083 8.57422 8.81348 9.08984 8.16895 9.08984C7.52442 9.08984 6.99708 8.57422 6.99708 7.91797Z" fill="black" fill-opacity="0.85"/>
</svg>
