<svg width="28" height="28" viewBox="0 0 28 28" fill="none" xmlns="http://www.w3.org/2000/svg">
<g clip-path="url(#clip0_2124_88630)">
<path d="M13.9531 25.9062C20.4922 25.9062 25.9062 20.4805 25.9062 13.9531C25.9062 7.41406 20.4805 2 13.9414 2C7.41406 2 2 7.41406 2 13.9531C2 20.4805 7.42578 25.9062 13.9531 25.9062Z" fill="black" fill-opacity="0.85"/>
<path d="M14.1288 10.9414C14.0351 10.1797 14.3397 9.44138 15.0194 8.76169L18.6405 12.3945C17.9843 13.0625 17.2226 13.3789 16.4608 13.2969L14.6796 14.9375V19.4961C14.6796 19.8945 14.3749 20.1992 13.9882 20.1992C13.578 20.1992 13.2851 19.8945 13.2851 19.4961V16.25L10.2733 19.0273C9.98038 19.2969 9.59366 19.3203 9.30069 19.0859L8.33975 19.8125C8.16397 19.9414 7.97647 19.918 7.81241 19.7773L7.62491 19.6016C7.46085 19.4609 7.46085 19.2383 7.58975 19.0625L8.31632 18.125C8.07022 17.8203 8.08194 17.4336 8.37491 17.1172L14.1288 10.9414ZM9.30069 17.7266L9.69913 18.125L15.2655 12.8281C15.1483 12.7344 15.0194 12.6289 14.9022 12.5117C14.7616 12.3711 14.6679 12.2539 14.5976 12.1133L9.30069 17.7266ZM19.3319 8.07028C20.4452 9.16013 20.3983 10.6367 19.2499 11.7734L15.6288 8.15231C16.7655 7.01559 18.2304 6.96872 19.3319 8.07028Z" fill="white"/>
</g>
<defs>
<clipPath id="clip0_2124_88630">
<rect width="23.9062" height="23.918" fill="white" transform="translate(2 2)"/>
</clipPath>
</defs>
</svg>
