<svg width="28" height="28" viewBox="0 0 28 28" fill="none" xmlns="http://www.w3.org/2000/svg">
<path d="M10.9727 26.1719H21.2734C23.5 26.1719 24.8359 24.8594 24.8359 22.6562L24.8477 4.55078C24.8477 2.42969 23.418 1 21.3086 1H17.7109C15.8711 1 14.3359 1.48047 12.8945 2.80469L5.48828 9.61328C4.49219 10.5273 4 11.8164 4 13.4219V19.1992C4 23.4414 6.73047 26.1719 10.9727 26.1719ZM11.0195 24.2852C7.73828 24.2852 5.88672 22.4453 5.88672 19.1641V13.4453C5.88672 12.2734 6.15625 11.5586 6.80078 10.9727L14.1953 4.1875C15.2383 3.23828 16.3047 2.88672 17.7578 2.88672H21.2734C22.293 2.88672 22.9609 3.56641 22.9609 4.57422L22.9492 22.6211C22.9492 23.8633 22.457 24.2852 21.2383 24.2852H11.0195Z" fill="black" fill-opacity="0.85"/>
</svg>
