<svg width="34" height="28" viewBox="0 0 34 28" fill="none" xmlns="http://www.w3.org/2000/svg">
<g clip-path="url(#clip0_2124_50012)">
<path d="M16.5938 24.0508C26.4844 24.0508 33.2227 19.5156 33.2227 14.0312C33.2227 8.54688 26.4844 4 16.5938 4C6.72656 4 0 8.54688 0 14.0312C0 19.5156 6.72656 24.0508 16.5938 24.0508ZM16.5938 22.293C7.80469 22.293 1.75781 18.4727 1.75781 14.0312C1.75781 9.58984 7.80469 5.76953 16.5938 5.76953C25.4062 5.76953 31.4648 9.58984 31.4648 14.0312C31.4648 18.4727 25.4062 22.293 16.5938 22.293ZM16.5938 20.5234C22.8516 20.5234 27.6211 17.9102 27.6211 14.3477C27.6211 10.7969 22.8633 8.19531 16.5938 8.19531C10.3594 8.19531 5.61328 10.7969 5.61328 14.3477C5.61328 17.9219 10.3594 20.5234 16.5938 20.5234ZM16.5938 18.7539C11.4492 18.7539 7.38281 16.7383 7.38281 14.3477C7.38281 11.957 11.4375 9.96484 16.5938 9.96484C21.7734 9.96484 25.8516 11.957 25.8516 14.3477C25.8516 16.7383 21.75 18.7539 16.5938 18.7539ZM16.582 15.0625C20.25 15.0625 23.4258 13.375 24.5742 11.0312C22.2773 9.90625 19.3477 9.33203 16.5938 9.25C13.7812 9.33203 10.8516 9.90625 8.54297 11.043C9.70312 13.3867 12.8789 15.0625 16.582 15.0625Z" fill="black" fill-opacity="0.85"/>
</g>
<defs>
<clipPath id="clip0_2124_50012">
<rect width="33.2227" height="20.0742" fill="white" transform="translate(0 4)"/>
</clipPath>
</defs>
</svg>
