<svg width="38" height="28" viewBox="0 0 38 28" fill="none" xmlns="http://www.w3.org/2000/svg">
<path d="M17.6719 14.2813C17.6719 10.9063 14.0742 7.66019 10.4414 7.66019H10.0898C8.39062 7.66019 7.61719 8.30472 7.17188 10.0157C6.89062 11.1992 6.73828 12.5235 6.73828 14.2813C6.73828 16.0274 6.89062 17.3516 7.17188 18.5586C7.61719 20.2578 8.39062 20.8907 10.0898 20.8907H10.4414C14.0742 20.8907 17.6719 17.6563 17.6719 14.2813ZM15.8906 14.2813C15.8906 16.8711 13.3945 19.1094 10.4414 19.1094H10.0898C9.39844 19.1094 9.10547 18.8867 8.88281 18.1485C8.64844 17.0469 8.50781 15.8985 8.50781 14.2813C8.50781 12.6524 8.64844 11.5157 8.88281 10.4258C9.10547 9.67581 9.39844 9.44144 10.0898 9.44144H10.4414C13.3945 9.44144 15.8906 11.6914 15.8906 14.2813ZM19.4531 14.2813C19.4531 17.6563 23.0508 20.8907 26.6953 20.8907H27.0352C28.7461 20.8907 29.5195 20.2578 29.9648 18.5586C30.2344 17.3516 30.3867 16.0274 30.3867 14.2813C30.3867 12.5235 30.2344 11.1992 29.9648 10.0157C29.5195 8.30472 28.7461 7.66019 27.0352 7.66019H26.6953C23.0508 7.66019 19.4531 10.9063 19.4531 14.2813ZM21.2344 14.2813C21.2344 11.6914 23.7422 9.44144 26.6953 9.44144H27.0352C27.7383 9.44144 28.0195 9.67581 28.2422 10.4258C28.4883 11.5157 28.6172 12.6524 28.6172 14.2813C28.6172 15.8985 28.4883 17.0469 28.2422 18.1485C28.0195 18.8867 27.7383 19.1094 27.0352 19.1094H26.6953C23.7422 19.1094 21.2344 16.8711 21.2344 14.2813ZM3.89062 9.33597C4.32422 9.59378 4.83984 9.46487 5.09766 9.00784C5.35547 8.59769 5.21484 8.05862 4.78125 7.81253L1.85156 6.12503C1.42969 5.86722 0.914062 6.01956 0.667969 6.47659C0.410156 6.88675 0.539062 7.40237 0.984375 7.64847L3.89062 9.33597ZM4.24219 13.3907H0.867188C0.363281 13.3907 0 13.7657 0 14.2696C0 14.7735 0.363281 15.1485 0.867188 15.1485H4.24219C4.74609 15.1485 5.12109 14.7735 5.12109 14.2696C5.12109 13.7657 4.74609 13.3907 4.24219 13.3907ZM3.89062 19.2032L0.984375 20.8907C0.539062 21.1485 0.410156 21.6524 0.667969 22.0742C0.914062 22.5196 1.42969 22.6719 1.85156 22.4258L4.78125 20.7383C5.21484 20.4805 5.35547 19.9532 5.09766 19.5313C4.83984 19.086 4.32422 18.9571 3.89062 19.2032ZM33.2344 9.33597L36.1523 7.64847C36.5859 7.40237 36.7148 6.88675 36.4688 6.47659C36.2109 6.01956 35.707 5.86722 35.2734 6.12503L32.3438 7.81253C31.9219 8.05862 31.7812 8.59769 32.0391 9.00784C32.2852 9.46487 32.8008 9.59378 33.2344 9.33597ZM32.8945 13.3907C32.3906 13.3907 32.0039 13.7657 32.0039 14.2696C32.0039 14.7735 32.3906 15.1485 32.8945 15.1485H36.2578C36.7617 15.1485 37.125 14.7735 37.125 14.2696C37.125 13.7657 36.7617 13.3907 36.2578 13.3907H32.8945ZM33.2344 19.2032C32.8008 18.9571 32.2852 19.086 32.0391 19.5313C31.7812 19.9532 31.9219 20.4805 32.3438 20.7383L35.2734 22.4258C35.707 22.6719 36.2109 22.5196 36.4688 22.0742C36.7148 21.6524 36.5859 21.1485 36.1523 20.8907L33.2344 19.2032Z" fill="black" fill-opacity="0.85"/>
</svg>
