<svg width="29" height="32" viewBox="0 0 29 32" fill="none" xmlns="http://www.w3.org/2000/svg">
<g clip-path="url(#clip0_2124_45817)">
<path d="M10.418 13.5618H17.918C18.9609 13.5618 19.5703 12.9758 19.5703 11.9446V3.55395C19.5703 2.5227 18.9609 1.93677 17.918 1.93677H10.418C9.37499 1.93677 8.76562 2.5227 8.76562 3.55395V11.9446C8.76562 12.9758 9.37499 13.5618 10.418 13.5618Z" fill="black" fill-opacity="0.85"/>
<path d="M8.63671 23.3118H19.7109C22.043 23.3118 23.5781 21.7883 23.5781 19.468V7.2688C23.5781 4.94849 22.043 3.43677 19.7109 3.43677H8.63671C6.30468 3.43677 4.75781 4.94849 4.75781 7.2688V19.468C4.75781 21.7883 6.30468 23.3118 8.63671 23.3118Z" fill="white"/>
<path d="M8.50781 21.718H19.8398C21.2109 21.718 21.9844 20.9446 21.9844 19.5969V7.13989C21.9844 5.79223 21.2109 5.03052 19.8398 5.03052H8.50781C7.13671 5.03052 6.35156 5.79223 6.35156 7.13989V19.5969C6.35156 20.9446 7.13671 21.718 8.50781 21.718Z" fill="black" fill-opacity="0.85"/>
<path d="M7.57032 31.0227H20.7656C24.2578 31.0227 26.332 28.9719 26.332 25.5032V12.2141C26.332 8.74536 24.2578 6.69458 20.7656 6.69458H7.57032C4.07813 6.69458 2.00391 8.73364 2.00391 12.2141V25.5032C2.00391 28.9719 4.07813 31.0227 7.57032 31.0227Z" fill="white"/>
<path d="M10.418 20.7922C11.6367 20.7922 12.6797 19.7024 12.6797 18.2727C12.6797 16.8782 11.625 15.8469 10.418 15.8469C9.19922 15.8469 8.14453 16.9016 8.14453 18.2844C8.14453 19.7024 9.19922 20.7922 10.418 20.7922ZM7.17188 27.5657H13.6406C14.6836 27.5657 15.1875 26.8391 15.1875 26.0891C15.1875 24.05 13.3008 22.0227 10.4062 22.0227C7.52344 22.0227 5.625 24.05 5.625 26.0891C5.625 26.8391 6.14063 27.5657 7.17188 27.5657Z" fill="black" fill-opacity="0.85"/>
<path d="M13.3711 28.925H21.9609C23.7539 28.925 24.75 27.7297 24.75 26.3704C24.75 23.5344 21.9727 20.675 17.8945 20.675C13.8281 20.675 11.0625 23.5344 11.0625 26.3704C11.0625 27.9289 12.0703 28.925 13.3711 28.925Z" fill="white"/>
<path d="M17.9062 20.6282C19.3008 20.6282 20.4961 19.3743 20.4961 17.7571C20.4961 16.1516 19.2891 14.968 17.9062 14.968C16.5117 14.968 15.293 16.1868 15.293 17.7805C15.293 19.3743 16.5117 20.6282 17.9062 20.6282ZM13.3711 27.5657H21.5156C22.7344 27.5657 23.2734 26.8625 23.2734 26.1243C23.2734 24.1672 21.1406 22.0461 17.8945 22.0461C14.6016 22.0461 12.4219 24.2727 12.4219 26.3704C12.4219 27.1086 12.7969 27.5657 13.3711 27.5657Z" fill="black" fill-opacity="0.85"/>
<path d="M7.57032 29.136H20.7656C23.2148 29.136 24.4453 27.9172 24.4453 25.5032V12.2141C24.4453 9.80005 23.2148 8.5813 20.7656 8.5813H7.57032C5.1211 8.5813 3.89062 9.78833 3.89062 12.2141V25.5032C3.89062 27.9172 5.1211 29.136 7.57032 29.136ZM7.60547 27.2493C6.4336 27.2493 5.77734 26.6164 5.77734 25.3977V12.3078C5.77734 11.1008 6.4336 10.468 7.60547 10.468H20.7422C21.8906 10.468 22.5586 11.1008 22.5586 12.3078V25.3977C22.5586 26.6164 21.8906 27.2493 20.7422 27.2493H7.60547Z" fill="black" fill-opacity="0.85"/>
</g>
<defs>
<clipPath id="clip0_2124_45817">
<rect width="24.3281" height="30.9961" fill="white" transform="translate(2.00391 0.0266113)"/>
</clipPath>
</defs>
</svg>
