<svg width="28" height="28" viewBox="0 0 28 28" fill="none" xmlns="http://www.w3.org/2000/svg">
<path d="M6.67969 24.5977H20.8945C23.3555 24.5977 24.5742 23.3789 24.5742 20.9648V6.65625C24.5742 4.24219 23.3555 3.02344 20.8945 3.02344H6.67969C4.23047 3.02344 3 4.23047 3 6.65625V20.9648C3 23.3906 4.23047 24.5977 6.67969 24.5977Z" fill="black" fill-opacity="0.85"/>
<path d="M8.0625 18.6797C7.5 18.6797 7.24219 18.3867 7.24219 17.9766C7.24219 17.5898 7.46484 17.2852 7.69922 17.0039L9.78516 14.3203C10.418 13.5117 11.0977 12.5273 11.0977 11.5547C11.0977 10.6992 10.6875 10.0664 9.97266 10.0664C9.28125 10.0664 8.98828 10.5703 8.75391 11.3789C8.63672 11.7773 8.37891 11.9531 7.98047 11.9531C7.51172 11.9531 7.26562 11.6484 7.26562 11.1914C7.26562 9.9375 8.4375 8.66016 9.98438 8.66016C11.6484 8.66016 12.75 9.84375 12.75 11.4727C12.75 12.5391 12.3633 13.4297 11.1445 14.9297L9.38672 17.1562V17.25H12.2578C12.668 17.25 12.9492 17.5078 12.9492 17.9766C12.9492 18.3984 12.6797 18.6797 12.2578 18.6797H8.0625ZM17.4023 18.9258C14.9414 18.9258 14.2148 16.1953 14.2148 13.9102C14.2148 11.4609 14.9414 8.68359 17.4258 8.68359C18.6328 8.68359 19.6758 9.32812 19.9336 10.3711C19.9805 10.5234 19.9922 10.6758 19.9922 10.8047C19.9922 11.2031 19.7812 11.5312 19.3008 11.5312C18.9023 11.5312 18.6797 11.3672 18.4922 10.9922C18.293 10.4883 17.9297 10.1016 17.3789 10.1016C16.0312 10.1016 15.8672 12.5273 15.8672 13.8633C15.8672 13.8984 15.8672 13.9453 15.8672 13.9922H15.9141C16.1953 12.9609 16.9336 12.3047 17.9062 12.3047C19.5117 12.3047 20.2969 13.8516 20.2969 15.4805C20.2969 17.3789 19.2539 18.9258 17.4023 18.9258ZM17.3789 17.5078C18.2227 17.5078 18.6094 16.4414 18.6094 15.5625C18.6328 14.6719 18.2695 13.6289 17.3789 13.6289C16.5117 13.6289 16.1016 14.625 16.1016 15.5156C16.1016 16.3711 16.4648 17.5078 17.3789 17.5078Z" fill="white"/>
</svg>
