<svg width="31" height="28" viewBox="0 0 31 28" fill="none" xmlns="http://www.w3.org/2000/svg">
<path d="M15.479 6.12109C16.897 6.12109 18.0337 4.98438 18.0337 3.56641C18.0337 2.14844 16.897 1 15.479 1C14.061 1 12.9126 2.14844 12.9126 3.56641C12.9126 4.98438 14.061 6.12109 15.479 6.12109ZM25.5923 9.74219C26.2485 9.74219 26.7876 9.21484 26.7876 8.53516C26.7876 7.87891 26.2485 7.35156 25.5923 7.35156H13.0064C11.8579 7.35156 10.8618 7.96094 10.3345 9.00391L5.02589 19.6328L2.02589 16.6328C1.55714 16.1641 0.795424 16.1758 0.338393 16.6328C-0.118638 17.1016 -0.106919 17.8516 0.338393 18.3203L4.56886 22.5625C5.07277 23.0547 5.85792 22.9844 6.26808 22.3867L9.73683 17.3242C9.92433 17.0312 10.3345 16.9844 10.604 17.1836L14.8696 20.4531V26.4062C14.8696 27.0625 15.397 27.5898 16.065 27.5898C16.7329 27.5898 17.2603 27.0625 17.2603 26.4062V19.8555C17.2603 19.5391 17.1314 19.2344 16.9087 19.0117L12.7603 14.8633L14.9868 10.3984C15.2095 9.96484 15.5962 9.74219 16.0415 9.74219H25.5923ZM17.8462 15.0977H22.6157C23.272 15.0977 23.7993 14.5469 23.7993 13.9141C23.7993 13.2461 23.272 12.707 22.6157 12.707H18.3384L16.4868 10.8672H16.1939C16.0767 10.8672 16.0064 10.9141 15.9478 11.0195L15.0454 12.7891L17.0142 14.7461C17.2485 14.9688 17.5415 15.0977 17.8462 15.0977ZM24.6782 12.5664C24.6782 13.7031 26.0259 14.6406 27.6665 14.6406C29.3189 14.6406 30.6548 13.7031 30.6548 12.5664C30.6548 11.4062 29.3189 10.4805 27.6665 10.4805C26.0259 10.4805 24.6782 11.4062 24.6782 12.5664Z" fill="black" fill-opacity="0.85"/>
</svg>
