<svg width="28" height="28" viewBox="0 0 28 28" fill="none" xmlns="http://www.w3.org/2000/svg">
<path d="M13.9531 25.9062C20.4922 25.9062 25.9062 20.4805 25.9062 13.9531C25.9062 7.41406 20.4805 2 13.9414 2C7.41406 2 2 7.41406 2 13.9531C2 20.4805 7.42578 25.9062 13.9531 25.9062ZM13.9531 23.9141C8.42188 23.9141 4.00391 19.4844 4.00391 13.9531C4.00391 8.42188 8.41016 3.99219 13.9414 3.99219C19.4727 3.99219 23.9141 8.42188 23.9141 13.9531C23.9141 19.4844 19.4844 23.9141 13.9531 23.9141Z" fill="black" fill-opacity="0.85"/>
<path d="M13.9883 19.4492C16.8477 19.4492 18.5469 17.7734 18.5469 15.3594V14.5039C18.5469 13.8711 18.1719 13.4961 17.5625 13.4961H14.5391C14.1172 13.4961 13.8594 13.7773 13.8594 14.1758C13.8594 14.5273 14.1172 14.8438 14.5391 14.8438H16.6836V15.6055C16.6836 16.9883 15.7695 17.9023 14.0117 17.9023C12.125 17.9023 10.8711 16.2969 10.8711 13.8477C10.8711 11.4219 12.1133 9.78125 13.9766 9.78125C15.3008 9.78125 16.2852 10.4141 16.7656 11.5742C16.9531 11.9727 17.1875 12.1367 17.5391 12.1367C18.0312 12.1367 18.3477 11.832 18.3477 11.3398C18.3477 11.1406 18.3242 10.9883 18.2422 10.8008C17.6914 9.32422 16.1328 8.23438 13.9531 8.23438C10.918 8.23438 8.97266 10.4258 8.97266 13.8477C8.97266 17.2812 10.918 19.4492 13.9883 19.4492Z" fill="black" fill-opacity="0.85"/>
</svg>
