<svg width="28" height="28" viewBox="0 0 28 28" fill="none" xmlns="http://www.w3.org/2000/svg">
<path d="M13.9531 25.9062C20.4922 25.9062 25.9062 20.4805 25.9062 13.9531C25.9062 7.41406 20.4805 2 13.9414 2C7.41406 2 2 7.41406 2 13.9531C2 20.4805 7.42578 25.9062 13.9531 25.9062Z" fill="black" fill-opacity="0.85"/>
<path d="M7.55469 20.4102C6.95703 20.4102 6.52344 19.9648 6.52344 19.332V18.2188C6.52344 17.4102 6.875 16.9297 7.76562 16.2266C8.15234 15.9102 8.24609 15.5352 8.24609 14.2578C8.24609 13.4141 8.38672 12.7461 8.60938 12.1953L8.12891 11.6094C7.4375 10.8125 8.52734 9.82812 9.24219 10.6602L9.67578 11.1992C9.74609 11.1641 9.85156 11.1289 9.99219 11.1055L14.9727 10.7188C16.2031 10.2969 16.4023 9.76953 16.8594 9.125C17.1523 9.66406 17.5859 10.0977 18.2188 10.0977C19.2148 10.0977 19.8008 8.91406 19.9531 8.16406C20.3984 8.39844 20.6797 8.83203 21.1953 9.16016C21.7695 9.53516 22.25 9.57031 22.25 10.1211C22.25 11.1875 21.2656 12.1836 20.2812 12.1836C19.8359 12.1836 19.5078 12.0547 19.0391 11.7852C18.9102 11.9141 18.7461 12.2539 18.7461 12.8398C18.7461 14.0703 18.1836 14.8438 17.7852 16.0273C17.5859 16.5898 17.2461 17.8438 17.1406 18.4414C17.1055 18.5703 17.1875 18.6523 17.3164 18.6992C17.9375 18.793 18.1719 19.0039 18.1719 19.5078C18.1719 19.9883 17.7969 20.4102 17.1406 20.4102H16.168C15.4766 20.4102 15.043 19.9531 15.043 19.2383C15.043 18.6289 15.1484 17.457 15.1719 16.5898C13.707 16.7891 12.2422 16.707 11.3633 16.0859C11.1992 17.3398 10.3555 18.1016 8.91406 18.3242C8.69141 18.3594 8.69141 18.6523 8.96094 18.6992C9.51172 18.7461 9.78125 18.9688 9.78125 19.4961C9.78125 19.9883 9.39453 20.4102 8.73828 20.4102H7.55469ZM20.2578 10.1914C20.457 10.1914 20.6094 10.0391 20.6094 9.82812C20.6094 9.60547 20.457 9.45312 20.2578 9.45312C20.0234 9.45312 19.8828 9.60547 19.8828 9.82812C19.8828 10.0391 20.0234 10.1914 20.2578 10.1914ZM18.2188 9.57031C17.375 9.57031 16.9531 8.17578 16.9531 7.77734C16.9531 7.4375 17.1523 7.23828 17.5039 7.23828H18.9219C19.2852 7.23828 19.4727 7.4375 19.4727 7.77734C19.4727 8.17578 19.0391 9.57031 18.2188 9.57031Z" fill="white"/>
</svg>
