<svg width="28" height="28" viewBox="0 0 28 28" fill="none" xmlns="http://www.w3.org/2000/svg">
<path d="M6.67969 24.5977H20.8945C23.3555 24.5977 24.5742 23.3789 24.5742 20.9648V6.65625C24.5742 4.24219 23.3555 3.02344 20.8945 3.02344H6.67969C4.23047 3.02344 3 4.23047 3 6.65625V20.9648C3 23.3906 4.23047 24.5977 6.67969 24.5977Z" fill="black" fill-opacity="0.85"/>
<path d="M9.1875 16.0312C9.1875 15.7734 9.24609 15.5156 9.38672 15.2695C10.6875 12.9961 11.8594 10.9219 13.1484 8.66016C13.3711 8.26172 13.6289 8.07422 14.0156 8.07422C14.5664 8.07422 14.8711 8.48438 14.8711 8.96484C14.8711 9.15234 14.8008 9.33984 14.707 9.53906C13.582 11.6016 12.5391 13.4062 11.4492 15.4336H14.8008V12.832C14.8008 12.1875 15.1289 11.8125 15.6797 11.8125C16.2539 11.8125 16.582 12.1758 16.582 12.832V15.4336H17.3906C17.9297 15.4336 18.2578 15.7383 18.2578 16.207C18.2578 16.7109 17.9297 17.0391 17.3906 17.0391H16.582V18.2812C16.582 18.9375 16.2539 19.3008 15.6797 19.3008C15.1289 19.3008 14.8008 18.9258 14.8008 18.2812V17.0391H10.2539C9.59766 17.0391 9.1875 16.6406 9.1875 16.0312Z" fill="white"/>
</svg>
