<svg width="28" height="28" viewBox="0 0 28 28" fill="none" xmlns="http://www.w3.org/2000/svg">
<path d="M13.9531 25.9062C20.4922 25.9062 25.9062 20.4805 25.9062 13.9531C25.9062 7.41406 20.4805 2 13.9414 2C7.41406 2 2 7.41406 2 13.9531C2 20.4805 7.42578 25.9062 13.9531 25.9062ZM13.9531 23.9141C8.42188 23.9141 4.00391 19.4844 4.00391 13.9531C4.00391 8.42188 8.41016 3.99219 13.9414 3.99219C19.4727 3.99219 23.9141 8.42188 23.9141 13.9531C23.9141 19.4844 19.4844 23.9141 13.9531 23.9141Z" fill="black" fill-opacity="0.85"/>
<path d="M8.36328 18.6875H12.4297C12.8398 18.6875 13.0977 18.418 13.0977 18.0078C13.0977 17.5625 12.8281 17.3164 12.4297 17.3164H9.65234V17.2227L11.3516 15.0547C12.5352 13.6016 12.9102 12.7344 12.9102 11.7031C12.9102 10.1211 11.8437 8.97266 10.2266 8.97266C8.72656 8.97266 7.58984 10.2148 7.58984 11.4336C7.58984 11.8672 7.83594 12.1719 8.28125 12.1719C8.67969 12.1719 8.91406 11.9961 9.03125 11.6094C9.25391 10.8242 9.54688 10.332 10.2148 10.332C10.918 10.332 11.3164 10.9531 11.3164 11.7852C11.3164 12.7227 10.6602 13.6719 10.0391 14.4688L8.01172 17.0703C7.78906 17.3516 7.56641 17.6445 7.56641 18.0078C7.56641 18.4062 7.82422 18.6875 8.36328 18.6875ZM17.3398 18.8984C19.2031 18.8984 20.3867 17.7383 20.3867 16.1328C20.3867 14.8555 19.5664 13.9297 18.6406 13.7188V13.6836C19.4258 13.4375 20.1172 12.6758 20.1172 11.5625C20.1172 10.0508 18.9922 9.01953 17.3398 9.01953C15.8867 9.01953 14.5859 9.91016 14.5859 11.5508C14.5859 12.7461 15.3242 13.4492 16.0742 13.6836V13.7188C15.0781 13.9414 14.3164 14.8672 14.3164 16.1328C14.3164 17.8672 15.6289 18.8984 17.3398 18.8984ZM17.3398 13.1445C16.6016 13.1445 16.2148 12.418 16.2148 11.7266C16.2148 10.9766 16.6133 10.2734 17.3398 10.2734C18.1016 10.2734 18.4766 10.9766 18.4766 11.7266C18.4766 12.5 18.0898 13.1445 17.3398 13.1445ZM17.3398 17.6328C16.4961 17.6328 16.0742 16.8711 16.0742 16.0039C16.0742 15.1602 16.4961 14.4102 17.3398 14.4102C18.1719 14.4102 18.6289 15.1133 18.6289 16.0039C18.6289 16.8711 18.207 17.6328 17.3398 17.6328Z" fill="black" fill-opacity="0.85"/>
</svg>
