<svg width="28" height="28" viewBox="0 0 28 28" fill="none" xmlns="http://www.w3.org/2000/svg">
<path d="M13.9531 25.918C20.4922 25.918 25.9062 20.5039 25.9062 13.9648C25.9062 7.4375 20.4805 2.01172 13.9414 2.01172C7.41406 2.01172 2 7.4375 2 13.9648C2 20.5039 7.42578 25.918 13.9531 25.918Z" fill="black" fill-opacity="0.85"/>
<path d="M8.75 16.8828C7.32031 16.8828 6.35938 15.9453 6.35938 14.6797C6.35938 13.6484 6.99219 12.8516 7.90625 12.5352C8.10547 10.7305 9.65234 9.28906 11.4922 9.28906C12.875 9.28906 14.0352 10.0508 14.6914 11.2578C16.3555 11.293 17.6094 12.4883 17.6094 14.0469C17.6094 15.6406 16.3672 16.8828 14.7383 16.8828H8.75ZM9.21875 19.4492C9.11328 19.6367 8.83203 19.7188 8.63281 19.5898C8.41016 19.4844 8.35156 19.2031 8.46875 19.0039L9.16016 17.8203C9.26562 17.6094 9.54688 17.5391 9.73438 17.6562C9.96874 17.7969 10.0391 18.043 9.91016 18.2656L9.21875 19.4492ZM10.7656 20.7266C10.6484 20.9258 10.3672 21.0078 10.1797 20.8906C9.94531 20.7734 9.86328 20.5039 9.98047 20.2812L10.6367 19.168C10.7656 18.9688 11.0234 18.8984 11.2344 19.0039C11.4687 19.1211 11.5273 19.4023 11.4102 19.6133L10.7656 20.7266ZM13.1211 19.4375C13.0039 19.6367 12.7461 19.7188 12.5352 19.5898C12.3008 19.4844 12.2539 19.1914 12.3594 18.9922L13.0391 17.8086C13.1562 17.6094 13.4258 17.5391 13.6367 17.6562C13.8594 17.7969 13.9414 18.043 13.8125 18.2656L13.1211 19.4375ZM14.6562 20.7266C14.5391 20.9375 14.2695 21.0078 14.0703 20.8906C13.8477 20.7734 13.7656 20.5039 13.8828 20.2812L14.5391 19.1797C14.668 18.9688 14.9258 18.8984 15.1367 19.0039C15.3594 19.1211 15.418 19.4023 15.3125 19.6133L14.6562 20.7266ZM21.582 10.9648C21.582 11.9727 20.3867 13.5195 18.4414 13.707C18.2773 11.9961 16.9648 10.6836 15.1719 10.4492C15.0547 10.2969 14.9375 10.1328 14.8086 9.99219C15.0078 8.31641 16.4375 6.98046 17.5742 6.92188C17.7969 6.92188 17.9375 7.02734 17.9375 7.21484C17.9375 7.51953 17.5156 8.05859 17.5156 8.80859C17.5156 10.1094 18.4062 10.9414 19.8242 10.9414C20.5977 10.9414 21.043 10.5898 21.3125 10.5898C21.4883 10.5898 21.582 10.7422 21.582 10.9648Z" fill="white"/>
</svg>
