<svg width="28" height="28" viewBox="0 0 28 28" fill="none" xmlns="http://www.w3.org/2000/svg">
<path d="M13.9531 25.9062C20.4922 25.9062 25.9062 20.4805 25.9062 13.9531C25.9062 7.41406 20.4805 2 13.9414 2C7.41406 2 2 7.41406 2 13.9531C2 20.4805 7.42578 25.9062 13.9531 25.9062ZM13.9531 23.9141C8.42188 23.9141 4.00391 19.4844 4.00391 13.9531C4.00391 8.42188 8.41016 3.99219 13.9414 3.99219C19.4727 3.99219 23.9141 8.42188 23.9141 13.9531C23.9141 19.4844 19.4844 23.9141 13.9531 23.9141Z" fill="black" fill-opacity="0.85"/>
<path d="M9.86483 17.5625H18.0328C18.5954 17.5625 18.8414 16.9414 18.5133 16.3906L14.5875 9.71093C14.2828 9.20702 13.6032 9.23046 13.3219 9.71093L9.37264 16.3906C9.06796 16.8945 9.30233 17.5625 9.86483 17.5625Z" fill="black" fill-opacity="0.85"/>
</svg>
