<svg width="28" height="28" viewBox="0 0 28 28" fill="none" xmlns="http://www.w3.org/2000/svg">
<path d="M13.9531 25.9062C20.4922 25.9062 25.9062 20.4805 25.9062 13.9531C25.9062 7.41406 20.4805 2 13.9414 2C7.41406 2 2 7.41406 2 13.9531C2 20.4805 7.42578 25.9062 13.9531 25.9062Z" fill="black" fill-opacity="0.85"/>
<path d="M9.03125 16.4492C9.03125 16.1094 9.25391 15.8398 9.61719 15.8398H10.6602L11 14.8203H9.61719C9.25391 14.8203 9.03125 14.5625 9.03125 14.2227C9.03125 13.8828 9.25391 13.625 9.61719 13.625H11.3984L12.9922 8.78516C13.1445 8.33984 13.4258 8.08203 13.9414 8.08203C14.4336 8.08203 14.7266 8.35156 14.8789 8.78516L16.4844 13.625H18.2773C18.6406 13.625 18.8633 13.8828 18.8633 14.2227C18.8633 14.5625 18.6406 14.8203 18.2773 14.8203H16.8828L17.2227 15.8398H18.2773C18.6406 15.8398 18.8633 16.1094 18.8633 16.4492C18.8633 16.7891 18.6406 17.0352 18.2773 17.0352H17.5977L18.1953 18.8047C18.2539 18.9922 18.2891 19.1094 18.2891 19.2148C18.2891 19.625 17.9609 19.9297 17.4922 19.9297C17.0938 19.9297 16.8477 19.7539 16.7305 19.3438L16.0039 17.0352H11.8906L11.1641 19.332C11.0469 19.7422 10.7773 19.9297 10.3906 19.9297C9.92188 19.9297 9.60547 19.625 9.60547 19.2148C9.60547 19.1094 9.61719 18.9922 9.67578 18.8047L10.2734 17.0352H9.61719C9.25391 17.0352 9.03125 16.7891 9.03125 16.4492ZM12.2422 15.8398H15.6406L15.3125 14.8203H12.5703L12.2422 15.8398ZM12.9336 13.625H14.9492L13.9414 10.3906L12.9336 13.625Z" fill="white"/>
</svg>
