<svg width="43" height="28" viewBox="0 0 43 28" fill="none" xmlns="http://www.w3.org/2000/svg">
<path d="M8.06017 16.0742C8.97423 16.0742 9.80626 14.6797 11.4938 14.6797C13.1695 14.6797 14.0016 16.0742 14.9156 16.0742C15.5836 16.0742 16.2516 15.1953 17.3883 14.8906L13.5094 10.0742C12.9 9.32422 12.1852 8.94922 11.4938 8.94922C10.7906 8.94922 10.0758 9.32422 9.47813 10.0742L5.58751 14.9023C6.71251 15.1836 7.38048 16.0742 8.06017 16.0742ZM2.16563 24.6992H20.8102C23.0367 24.6992 23.5641 22.543 22.3102 20.9844L18.3141 16.0391C17.2008 16.1094 16.6969 17.3633 14.9156 17.3633C13.1578 17.3633 12.4547 15.9688 11.4938 15.9688C10.5211 15.9688 9.81798 17.3633 8.06017 17.3633C6.27892 17.3633 5.77501 16.1094 4.66173 16.0391L0.665634 20.9844C-0.588272 22.543 -0.0609281 24.6992 2.16563 24.6992Z" fill="black" fill-opacity="0.85"/>
<path d="M13.7203 26.293H39.0914C42.5367 26.293 43.8375 22.6953 41.9508 20.2344L29.7164 4.15626C27.7828 1.62501 24.7594 1.95313 23.0836 4.15626L10.8609 20.2461C8.97423 22.707 10.275 26.293 13.7203 26.293Z" fill="white"/>
<path d="M22.4748 13.0859C23.5295 13.0859 24.4787 11.4922 26.4123 11.4922C28.3342 11.4922 29.2834 13.0859 30.3381 13.0859C31.2053 13.0859 32.0139 11.9727 33.3967 11.6328L28.4397 5.12891C27.2912 3.61719 25.5334 3.59375 24.3733 5.12891L19.4162 11.6328C20.799 11.9844 21.6194 13.0859 22.4748 13.0859ZM13.7209 24.6992H39.1037C41.2248 24.6992 41.7405 22.6016 40.6858 21.2188L34.4162 13.0039C33.01 13.1328 32.2483 14.5508 30.3381 14.5508C28.3342 14.5508 27.5256 12.957 26.4123 12.957C25.2873 12.957 24.4787 14.5508 22.4748 14.5508C20.5647 14.5508 19.803 13.1328 18.4084 13.0039L12.1272 21.2188C11.0725 22.6016 11.5881 24.6992 13.7209 24.6992Z" fill="black" fill-opacity="0.85"/>
</svg>
