<svg width="28" height="28" viewBox="0 0 28 28" fill="none" xmlns="http://www.w3.org/2000/svg">
<path d="M13.9531 25.9062C20.4922 25.9062 25.9062 20.4805 25.9062 13.9531C25.9062 7.41406 20.4805 2 13.9414 2C7.41406 2 2 7.41406 2 13.9531C2 20.4805 7.42578 25.9062 13.9531 25.9062ZM13.9531 23.9141C8.42188 23.9141 4.00391 19.4844 4.00391 13.9531C4.00391 8.42188 8.41016 3.99219 13.9414 3.99219C19.4727 3.99219 23.9141 8.42188 23.9141 13.9531C23.9141 19.4844 19.4844 23.9141 13.9531 23.9141Z" fill="black" fill-opacity="0.85"/>
<path d="M7.51964 14.9375L12.4298 14.9492C12.6524 14.9492 12.8048 15.0898 12.8048 15.3242V20.1758C12.8048 21.2188 13.9063 21.3242 14.2579 20.5742L19.461 9.47656C19.8946 8.57422 19.1095 7.80078 18.1954 8.23438L7.13292 13.4844C6.3712 13.8477 6.48839 14.9375 7.51964 14.9375Z" fill="black" fill-opacity="0.85"/>
</svg>
