<svg width="28" height="28" viewBox="0 0 28 28" fill="none" xmlns="http://www.w3.org/2000/svg">
<path d="M6.67969 24.5977H20.8945C23.3555 24.5977 24.5742 23.3789 24.5742 20.9648V6.65625C24.5742 4.24219 23.3555 3.02344 20.8945 3.02344H6.67969C4.23047 3.02344 3 4.23047 3 6.65625V20.9648C3 23.3906 4.23047 24.5977 6.67969 24.5977ZM6.70312 22.7109C5.53125 22.7109 4.88672 22.0898 4.88672 20.8711V6.75C4.88672 5.53125 5.53125 4.91016 6.70312 4.91016H20.8711C22.0312 4.91016 22.6875 5.53125 22.6875 6.75V20.8711C22.6875 22.0898 22.0312 22.7109 20.8711 22.7109H6.70312Z" fill="black" fill-opacity="0.85"/>
<path d="M8.88281 13.9805C8.88281 14.2969 9.11719 14.5547 9.44531 14.5547H10.0898V18.8555C10.0898 19.3125 10.4063 19.6172 10.8516 19.6172C11.2969 19.6172 11.6016 19.3125 11.6016 18.8555V14.5547H13.2891L15.5039 18.9492C15.7148 19.3711 16.0312 19.6289 16.5234 19.6289C17.0977 19.6289 17.4727 19.2539 17.4727 18.6797V14.5664H18.1406C18.457 14.5664 18.7148 14.2969 18.7148 13.9805C18.7148 13.6406 18.457 13.4062 18.1406 13.4062H17.4727V9.07031C17.4727 8.61328 17.168 8.30859 16.7227 8.30859C16.2773 8.30859 15.9609 8.61328 15.9609 9.07031V13.4062H14.2969L12.0586 8.97656C11.8594 8.55469 11.5313 8.29688 11.0391 8.29688C10.4648 8.29688 10.0898 8.67188 10.0898 9.23438V13.3945H9.44531C9.12891 13.3945 8.88281 13.6406 8.88281 13.9805ZM11.6016 13.3945V11.0156L12.7031 13.3945H11.6016ZM14.8711 14.5664H15.9609V16.9336L14.8711 14.5664Z" fill="black" fill-opacity="0.85"/>
</svg>
