<svg width="28" height="30" viewBox="0 0 28 30" fill="none" xmlns="http://www.w3.org/2000/svg">
<g clip-path="url(#clip0_2124_89296)">
<path d="M0.179135 9.45981L1.05804 12.6825V22.9481C1.05804 25.2567 2.24163 26.4168 4.58538 26.4168H23.851C26.2065 26.4168 27.3666 25.245 27.3666 22.9481V12.0145C27.3666 10.7137 26.5229 9.86997 25.1987 9.86997H11.5112L24.3549 6.42465C25.644 6.08481 26.2299 5.0184 25.9135 3.78793L25.6088 2.6395C25.0346 0.401216 23.5463 -0.407378 21.2963 0.190279L2.68695 5.19418C0.448666 5.80356 -0.406803 7.24497 0.179135 9.45981ZM2.88617 22.8426V16.6317H25.5502V22.8426C25.5502 23.9911 24.9174 24.5887 23.8159 24.5887H4.60882C3.50726 24.5887 2.88617 23.9911 2.88617 22.8426ZM3.33148 10.2801L4.21038 6.68247L7.91351 5.67465L7.06976 9.27231L3.33148 10.2801ZM10.5385 8.34653L11.3823 4.74887L15.3784 3.68247L14.5346 7.29184L10.5385 8.34653ZM17.9799 6.35434L18.8354 2.75668L21.6596 1.98325C21.9643 1.90122 22.2573 1.84262 22.5385 1.78403L21.7065 5.35825L17.9799 6.35434ZM3.89398 14.9559L5.56976 11.8387L8.62835 11.6981H9.50726L7.74945 14.9559H3.89398ZM11.3354 14.9559L13.0815 11.6981H17.2299L15.4721 14.9559H11.3354ZM19.058 14.9559L20.8041 11.6981H24.6596L22.9018 14.9559H19.058Z" fill="black" fill-opacity="0.85"/>
<path d="M3.33154 10.28L4.21044 6.68238L7.91357 5.67456L7.06982 9.27222L3.33154 10.28ZM10.5386 8.34644L11.3824 4.74878L15.3785 3.68238L14.5347 7.29175L10.5386 8.34644ZM17.98 6.35425L18.8355 2.75659L21.6597 1.98316C21.9644 1.90113 22.2574 1.84253 22.5386 1.78394L21.7066 5.35816L17.98 6.35425ZM3.89404 14.9558L5.56982 11.8386L8.62841 11.698H9.50732L7.74951 14.9558H3.89404ZM11.3355 14.9558L13.0816 11.698H17.23L15.4722 14.9558H11.3355ZM19.0581 14.9558L20.8042 11.698H24.6597L22.9019 14.9558H19.0581Z" fill="white"/>
</g>
<defs>
<clipPath id="clip0_2124_89296">
<rect width="27.3666" height="29.8063" fill="white"/>
</clipPath>
</defs>
</svg>
