<svg width="29" height="29" viewBox="0 0 29 29" fill="none" xmlns="http://www.w3.org/2000/svg">
<g clip-path="url(#clip0_2124_46045)">
<path d="M1.01562 15.2812C1.01562 20.625 4.35546 23.625 10.0859 23.625H12.4414C14.5976 23.625 15.9218 22.582 15.9218 21.4101C15.9218 21.1523 15.7812 21 15.5234 21H14.4804C13.9883 21 13.7539 20.7422 13.7539 20.4492C13.7539 20.1328 13.9883 19.875 14.4804 19.875H15.1718C16.4375 19.875 17.2695 19.0664 17.2695 17.9648C17.2695 17.4726 17.0703 17.25 16.6484 17.25H15.2304C14.7265 17.25 14.4804 16.9922 14.4804 16.6992C14.4804 16.3711 14.7265 16.125 15.2304 16.125H16.5429C17.9609 16.125 18.6406 15.2812 18.6406 14.2265C18.6406 13.7461 18.4297 13.5117 18.0078 13.5117H15.2304C14.7265 13.5117 14.4804 13.2539 14.4804 12.9609C14.4804 12.6328 14.7265 12.3867 15.2304 12.3867H24.5586C25.4726 12.3867 26.0703 11.7891 26.0703 11.0156C26.0703 10.1953 25.4726 9.62109 24.5586 9.62109H10.8828C10.5547 9.62109 10.3672 9.41015 10.3672 9.1875C10.3672 8.98828 10.4961 8.8125 10.8359 8.67187L15.1015 6.85547C15.7344 6.58594 16.0039 6.17578 16.0039 5.625C16.0039 4.78125 15.4414 4.23047 14.7383 4.23047C14.4453 4.23047 14.2226 4.28906 14.0234 4.37109L8.07031 6.35156C3.0664 8.05078 1.01562 11.3555 1.01562 15.2812Z" fill="black" fill-opacity="0.85"/>
</g>
<defs>
<clipPath id="clip0_2124_46045">
<rect width="25.0547" height="19.6055" fill="white" transform="translate(1.01562 4.01953)"/>
</clipPath>
</defs>
</svg>
