<svg width="28" height="28" viewBox="0 0 28 28" fill="none" xmlns="http://www.w3.org/2000/svg">
<path d="M13.9531 25.9062C20.4922 25.9062 25.9062 20.4805 25.9062 13.9531C25.9062 7.41406 20.4805 2 13.9414 2C7.41406 2 2 7.41406 2 13.9531C2 20.4805 7.42578 25.9062 13.9531 25.9062ZM13.9531 23.9141C8.42188 23.9141 4.00391 19.4844 4.00391 13.9531C4.00391 8.42188 8.41016 3.99219 13.9414 3.99219C19.4727 3.99219 23.9141 8.42188 23.9141 13.9531C23.9141 19.4844 19.4844 23.9141 13.9531 23.9141Z" fill="black" fill-opacity="0.85"/>
<path d="M6.94624 16.9648C6.95796 17.1992 7.09859 17.3047 7.33296 17.3047C8.62202 17.2812 9.68843 16.6836 10.6259 15.582C11.622 16.5664 12.7704 17.1641 13.9775 17.4336L13.79 18.9688C13.7431 19.3555 13.954 19.5664 14.3993 19.5078C15.7353 19.2852 17.2001 18.3477 17.9853 17.2109C19.9189 16.625 21.7118 15.4062 21.7118 13.9414C21.7118 12.5352 20.0712 11.3633 18.2197 10.7305C17.54 8.46874 14.5517 7.42577 12.4306 8.59765C12.2079 8.71483 12.1845 8.90233 12.3603 9.14843C12.8525 9.79296 13.0165 10.168 13.122 10.6953C12.2079 11.0352 11.3759 11.5508 10.6259 12.3125C9.68843 11.2109 8.62202 10.5898 7.33296 10.5898C7.09859 10.5898 6.95796 10.6953 6.94624 10.9062C6.82905 12.0312 7.34468 13.2266 8.15327 13.9414C7.34468 14.6445 6.84077 15.8516 6.94624 16.9648ZM18.8876 14.3281C18.5361 14.3281 18.2548 14.0586 18.2548 13.707C18.2548 13.3555 18.5361 13.0859 18.8876 13.0859C19.2275 13.0859 19.5087 13.3555 19.5087 13.707C19.5087 14.0586 19.2275 14.3281 18.8876 14.3281Z" fill="black" fill-opacity="0.85"/>
</svg>
