<svg width="28" height="28" viewBox="0 0 28 28" fill="none" xmlns="http://www.w3.org/2000/svg">
<path d="M13.9531 25.9062C20.4922 25.9062 25.9062 20.4805 25.9062 13.9531C25.9062 7.41406 20.4805 2 13.9414 2C7.41406 2 2 7.41406 2 13.9531C2 20.4805 7.42578 25.9062 13.9531 25.9062Z" fill="black" fill-opacity="0.85"/>
<path d="M10.1562 19.0508C8.85547 19.0508 7.625 18.4297 7.27344 17.3047C7.21484 17.1055 7.17969 16.8945 7.17969 16.6719C7.17969 16.2031 7.50781 15.9102 7.97656 15.9102C8.36328 15.9102 8.62109 16.1094 8.73828 16.5078C8.89062 17.0586 9.28906 17.6445 10.168 17.6445C11.0586 17.6445 11.4922 16.9297 11.4922 16.0977C11.4922 15.0547 10.9414 14.4922 9.91016 14.4922H9.60547C9.19531 14.4922 8.9375 14.2578 8.9375 13.8594C8.9375 13.4609 9.19531 13.2031 9.60547 13.2031H9.88672C10.7891 13.2031 11.2812 12.5586 11.2812 11.6797C11.2812 10.8828 10.918 10.2734 10.1094 10.2734C9.42969 10.2734 9.04297 10.7187 8.86719 11.4336C8.73828 11.8555 8.50391 12.0078 8.08203 12.0078C7.60156 12.0078 7.33203 11.6914 7.33203 11.293C7.33203 11.082 7.36719 10.8711 7.42578 10.6367C7.77734 9.57031 8.85547 8.86719 10.1094 8.86719C11.6914 8.86719 12.9336 9.81641 12.9336 11.4922C12.9336 12.5 12.4062 13.4844 11.3047 13.7773V13.8125C12.3359 13.918 13.2266 14.6562 13.2266 16.1562C13.2266 17.9609 11.8906 19.0508 10.1562 19.0508ZM17.6328 19.0508C15.8633 19.0508 14.5039 17.9961 14.5039 16.2031C14.5039 14.8906 15.2891 13.9414 16.3203 13.707V13.6719C15.5469 13.4375 14.7852 12.7109 14.7852 11.4805C14.7852 9.78125 16.1328 8.86719 17.6328 8.86719C19.332 8.86719 20.4922 9.92188 20.4922 11.4922C20.4922 12.6406 19.7773 13.4258 18.9688 13.6719V13.707C19.9414 13.9297 20.7734 14.8789 20.7734 16.2031C20.7734 17.8555 19.5547 19.0508 17.6328 19.0508ZM17.6328 13.1211C18.4062 13.1211 18.793 12.4531 18.793 11.6562C18.793 10.8828 18.418 10.168 17.6328 10.168C16.8828 10.168 16.4727 10.8828 16.4727 11.6562C16.4727 12.3711 16.8711 13.1211 17.6328 13.1211ZM17.6328 17.7383C18.5234 17.7383 18.957 16.9531 18.957 16.0625C18.957 15.1484 18.5 14.4219 17.6328 14.4219C16.7656 14.4219 16.332 15.1953 16.332 16.0625C16.332 16.9531 16.7656 17.7383 17.6328 17.7383Z" fill="white"/>
</svg>
