<svg width="28" height="28" viewBox="0 0 28 28" fill="none" xmlns="http://www.w3.org/2000/svg">
<path d="M6.67969 24.5977H20.8945C23.3555 24.5977 24.5742 23.3789 24.5742 20.9648V6.65625C24.5742 4.24219 23.3555 3.02344 20.8945 3.02344H6.67969C4.23047 3.02344 3 4.23047 3 6.65625V20.9648C3 23.3906 4.23047 24.5977 6.67969 24.5977ZM6.70312 22.7109C5.53125 22.7109 4.88672 22.0898 4.88672 20.8711V6.75C4.88672 5.53125 5.53125 4.91016 6.70312 4.91016H20.8711C22.0312 4.91016 22.6875 5.53125 22.6875 6.75V20.8711C22.6875 22.0898 22.0312 22.7109 20.8711 22.7109H6.70312Z" fill="black" fill-opacity="0.85"/>
<path d="M9.08203 13.8164C9.08203 17.0156 10.6641 19.1016 13.1602 19.418V20.3555C13.1602 20.707 13.418 20.9414 13.7461 20.9414C14.0742 20.9414 14.3203 20.707 14.3203 20.3555V19.4297C16.1133 19.2891 17.4023 18.3047 17.9062 16.8984C17.9766 16.7109 18.0234 16.5117 18.0234 16.3008C18.0234 15.8789 17.7422 15.5859 17.3086 15.5859C16.9102 15.5859 16.6758 15.8086 16.5469 16.207C16.2891 17.168 15.4453 17.8594 14.3203 18.0117V9.65625C15.375 9.83203 16.207 10.5586 16.4648 11.4844C16.6055 11.9297 16.8164 12.0938 17.2266 12.0938C17.6602 12.0938 17.9414 11.8125 17.9414 11.3789C17.9414 11.1797 17.8945 10.9805 17.8242 10.793C17.3203 9.38672 15.9844 8.39062 14.3203 8.22656V7.3125C14.3203 6.96094 14.0742 6.73828 13.7461 6.73828C13.4062 6.73828 13.1602 6.96094 13.1602 7.3125V8.23828C10.6758 8.55469 9.08203 10.6641 9.08203 13.8164ZM10.6523 13.8164C10.6523 11.5781 11.6133 10.0195 13.1602 9.69141V17.9766C11.6016 17.6367 10.6523 16.0898 10.6523 13.8164Z" fill="black" fill-opacity="0.85"/>
</svg>
