<svg width="28" height="28" viewBox="0 0 28 28" fill="none" xmlns="http://www.w3.org/2000/svg">
<g clip-path="url(#clip0_2124_24761)">
<path d="M14.1562 12.5039C16.8984 12.5273 19.2539 10.3711 19.2188 7.73438C19.1836 5.13281 16.8984 3 14.1562 3C11.6367 3 10.0898 4.55859 9.35156 5.64844C9.10547 6.02344 9 6.43359 9 6.89062V8.61328C9 9.07031 9.11719 9.48047 9.35156 9.85547C10.0664 10.9453 11.6367 12.4688 14.1562 12.5039ZM11.1328 9.60938C10.8281 9.60938 10.582 9.36328 10.582 9.04688V6.44531C10.582 6.12891 10.8281 5.88281 11.1328 5.88281C11.4609 5.88281 11.6953 6.12891 11.6953 6.44531V9.04688C11.6953 9.36328 11.4609 9.60938 11.1328 9.60938ZM14.7539 21.9609H18.0586V12.3281C17.1328 13.043 15.9844 13.5117 14.7539 13.6055V21.9609ZM15.9023 25.8281H16.8984C17.6133 25.8281 18.0586 25.4766 18.0586 24.7852V23.1328H14.7539V24.7852C14.7539 25.4766 15.2109 25.8281 15.9023 25.8281Z" fill="black" fill-opacity="0.85"/>
</g>
<defs>
<clipPath id="clip0_2124_24761">
<rect width="10.2191" height="22.8633" fill="white" transform="translate(9 3)"/>
</clipPath>
</defs>
</svg>
