<svg width="31" height="28" viewBox="0 0 31 28" fill="none" xmlns="http://www.w3.org/2000/svg">
<path d="M30.3281 14.8737V7.52606C30.3281 5.41669 28.9102 3.987 26.7891 3.987L3.51562 3.99872C1.41797 3.99872 0 5.44012 0 7.56122V14.8737C0 17.9089 1.30078 19.7722 4.42969 20.6979L14.5781 23.6511C17.2969 24.4479 19.043 24.1315 21.4688 22.8776L28.0547 19.4909C29.918 18.53 30.3281 17.3815 30.3281 14.8737Z" fill="black" fill-opacity="0.85"/>
<path d="M6.60938 17.7448C6.09375 17.7448 5.78906 17.405 5.78906 16.8542V9.0495C5.78906 8.58075 6.17578 8.19403 6.63281 8.19403C7.08984 8.19403 7.47656 8.58075 7.47656 9.0495V16.3151H9.94922C10.3359 16.3151 10.6641 16.6315 10.6641 17.03C10.6641 17.4167 10.3359 17.7448 9.94922 17.7448H6.60938ZM14.4961 17.944C13.1719 17.944 12.0586 17.3112 11.7188 16.0807C11.6484 15.8815 11.6367 15.8112 11.6367 15.6003C11.6367 15.1667 11.9297 14.8386 12.375 14.8386C12.7617 14.8386 13.0547 15.0143 13.1719 15.4128C13.2891 16.0573 13.7461 16.5612 14.5078 16.5612C15.2812 16.5612 15.75 16.0339 15.75 15.2956C15.75 14.4401 15.1523 14.0651 14.3906 13.7722L13.7578 13.5261C12.5625 13.0573 11.6719 12.2839 11.6719 10.819C11.6719 9.14325 12.8438 8.112 14.4492 8.112C15.7383 8.112 16.7812 8.79169 17.1328 10.0221C17.1797 10.2565 17.1914 10.362 17.1914 10.4557C17.1914 10.8776 16.9219 11.1706 16.4648 11.1706C16.0898 11.1706 15.8086 11.0182 15.6914 10.6198C15.5508 10.0104 15.1641 9.49481 14.4492 9.49481C13.7695 9.49481 13.3359 9.987 13.3359 10.6901C13.3359 11.4987 13.8867 11.8971 14.6367 12.1901L15.293 12.4245C16.6523 12.9518 17.4141 13.655 17.4141 15.1432C17.4141 16.9245 16.2891 17.944 14.4961 17.944ZM19.6992 17.7448C19.1719 17.7448 18.8672 17.3932 18.8672 16.8542V9.237C18.8672 8.73309 19.1602 8.33465 19.6992 8.33465H22.1016C23.4727 8.33465 24.4805 9.20184 24.4805 10.6901C24.4805 11.6042 23.8594 12.5886 22.9688 12.7409V12.7995C24.082 12.9167 24.7617 13.9479 24.7617 15.0847C24.7617 16.655 23.8242 17.7448 22.1719 17.7448H19.6992ZM20.543 12.3307H21.4805C22.3359 12.3307 22.8281 11.8034 22.8281 10.9479C22.8281 10.1979 22.5 9.63544 21.6094 9.63544H20.543V12.3307ZM20.543 16.4557H21.668C22.5938 16.4557 23.0508 15.8815 23.0508 14.944C23.0508 13.9245 22.4531 13.4675 21.6094 13.4675H20.543V16.4557Z" fill="white"/>
</svg>
