<svg width="28" height="28" viewBox="0 0 28 28" fill="none" xmlns="http://www.w3.org/2000/svg">
<path d="M6.67969 24.5977H20.8945C23.3555 24.5977 24.5742 23.3789 24.5742 20.9648V6.65625C24.5742 4.24219 23.3555 3.02344 20.8945 3.02344H6.67969C4.23047 3.02344 3 4.23047 3 6.65625V20.9648C3 23.3906 4.23047 24.5977 6.67969 24.5977Z" fill="black" fill-opacity="0.85"/>
<path d="M9.48047 18.2461C7.72266 18.2461 6.38672 17.1797 6.38672 15.1875C6.38672 13.8633 7.21875 12.7734 8.34375 12.3164C8.51953 11.0742 9.57422 10.1719 10.8281 10.1719C10.9687 10.1719 11.1445 10.1953 11.3086 10.2305C12.1172 9.11719 13.418 8.41406 14.8945 8.41406C17.4023 8.41406 19.3594 10.418 19.3594 12.8672C19.3594 12.9727 19.3477 13.0898 19.3359 13.2188C20.4141 13.4766 21.2227 14.4844 21.2227 15.6914C21.2227 17.0977 20.0977 18.2461 18.6562 18.2461H9.48047Z" fill="white"/>
</svg>
