<svg width="28" height="33" viewBox="0 0 28 33" fill="none" xmlns="http://www.w3.org/2000/svg">
<g clip-path="url(#clip0_2124_88444)">
<path d="M20.3008 8.92969H26.4297C26.3594 8.55469 26.1133 8.22656 25.6914 7.81641L20.7344 2.76562C20.3359 2.34375 19.9961 2.08594 19.6328 2.03906L19.6445 8.25C19.6445 8.73047 19.832 8.92969 20.3008 8.92969ZM11.9102 25.1953H22.9258C25.3516 25.1953 26.5586 23.9531 26.5586 21.5156V10.3945H20.0781C18.8594 10.3945 18.1562 9.70312 18.1562 8.48438V1.55859H11.9102C9.49609 1.55859 8.27734 2.84766 8.27734 5.14453V21.5156C8.27734 23.9648 9.49609 25.1953 11.9102 25.1953Z" fill="black" fill-opacity="0.85"/>
<path d="M6.22656 32.6367H17.2422C20.5586 32.6367 22.4805 30.6797 22.4805 27.3633V18.1055C22.4922 16.418 21.9766 15.0703 20.8984 13.9688L14.6406 7.59375C13.4453 6.36328 12.1445 5.8125 10.3164 5.8125H6.22656C2.92188 5.8125 1 7.75781 1 11.0859V27.3633C1 30.6914 2.92188 32.6367 6.22656 32.6367Z" fill="white"/>
<path d="M12.6836 16.5H20.6758C20.5469 16.043 20.2773 15.6211 19.7617 15.082L13.5039 8.70703C12.9766 8.17969 12.5312 7.82812 12.0859 7.69922V15.9023C12.0859 16.3008 12.2852 16.5 12.6836 16.5ZM6.22656 31.043H17.2422C19.668 31.043 20.875 29.8008 20.875 27.3633V18.1055H12.6953C11.1836 18.1055 10.4805 17.3906 10.4805 15.8906V7.40625H6.22656C3.8125 7.40625 2.59375 8.63672 2.59375 11.0859V27.3633C2.59375 29.8125 3.8125 31.043 6.22656 31.043Z" fill="black" fill-opacity="0.85"/>
</g>
<defs>
<clipPath id="clip0_2124_88444">
<rect width="25.5586" height="32.6367" fill="white" transform="translate(1)"/>
</clipPath>
</defs>
</svg>
