<svg width="28" height="28" viewBox="0 0 28 28" fill="none" xmlns="http://www.w3.org/2000/svg">
<path d="M6.67969 24.5977H20.8945C23.3555 24.5977 24.5742 23.3789 24.5742 20.9648V6.65625C24.5742 4.24219 23.3555 3.02344 20.8945 3.02344H6.67969C4.23047 3.02344 3 4.23047 3 6.65625V20.9648C3 23.3906 4.23047 24.5977 6.67969 24.5977Z" fill="black" fill-opacity="0.85"/>
<path d="M11.0508 18.832C10.6641 18.832 10.2188 18.6094 10.2188 17.9648V16.7695H7.51173C6.91407 16.7695 6.51562 16.3711 6.51562 15.7852C6.51562 15.4102 6.58595 15.0938 6.78517 14.625L8.94142 9.9375C9.28126 9.1875 9.67969 8.75391 10.5352 8.75391C11.332 8.75391 11.8828 9.22266 11.8828 10.0664V15.3633H12.3164C12.7969 15.3633 12.9961 15.668 12.9961 16.0547C12.9961 16.4648 12.7734 16.7695 12.3164 16.7695H11.8828V17.9648C11.8828 18.5508 11.5078 18.832 11.0508 18.832ZM10.2539 15.3984V10.2773H10.207L8.01563 15.3164V15.3984H10.2539ZM18.6914 18.832C18.293 18.832 17.8477 18.6094 17.8477 17.9648V16.7695H15.1406C14.5547 16.7695 14.1445 16.3711 14.1445 15.7852C14.1445 15.4102 14.2266 15.0938 14.4141 14.625L16.5703 9.9375C16.9102 9.1875 17.3086 8.75391 18.1641 8.75391C18.9609 8.75391 19.5117 9.22266 19.5117 10.0664V15.3633H19.9453C20.4258 15.3633 20.625 15.668 20.625 16.0547C20.625 16.4648 20.4023 16.7695 19.9453 16.7695H19.5117V17.9648C19.5117 18.5508 19.1367 18.832 18.6914 18.832ZM17.8828 15.3984V10.2773H17.8359L15.6445 15.3164V15.3984H17.8828Z" fill="white"/>
</svg>
