<svg width="28" height="28" viewBox="0 0 28 28" fill="none" xmlns="http://www.w3.org/2000/svg">
<path d="M13.9531 25.9062C20.4922 25.9062 25.9062 20.4805 25.9062 13.9531C25.9062 7.41406 20.4805 2 13.9414 2C7.41406 2 2 7.41406 2 13.9531C2 20.4805 7.42578 25.9062 13.9531 25.9062ZM13.9531 23.9141C8.42188 23.9141 4.00391 19.4844 4.00391 13.9531C4.00391 8.42188 8.41016 3.99219 13.9414 3.99219C19.4727 3.99219 23.9141 8.42188 23.9141 13.9531C23.9141 19.4844 19.4844 23.9141 13.9531 23.9141Z" fill="black" fill-opacity="0.85"/>
<path d="M8.46875 18.6875H12.5352C12.9453 18.6875 13.1914 18.418 13.1914 18.0078C13.1914 17.5625 12.9336 17.3164 12.5352 17.3164H9.74609V17.2227L11.457 15.0547C12.6406 13.6016 13.0156 12.7344 13.0156 11.7031C13.0156 10.1211 11.9492 8.97266 10.3203 8.97266C8.83202 8.97266 7.69531 10.2148 7.69531 11.4336C7.69531 11.8672 7.94141 12.1719 8.38672 12.1719C8.77344 12.1719 9.01953 11.9961 9.13672 11.6094C9.35938 10.8242 9.64061 10.332 10.3203 10.332C11.0234 10.332 11.4219 10.9531 11.4219 11.7852C11.4219 12.7227 10.7656 13.6719 10.1445 14.4688L8.11719 17.0703C7.89453 17.3516 7.67188 17.6445 7.67188 18.0078C7.67188 18.4062 7.92969 18.6875 8.46875 18.6875ZM16.707 15.418C17.668 15.418 18.3828 14.7852 18.6523 13.7773H18.6992C18.6992 13.8242 18.6992 13.8711 18.6992 13.9062C18.6992 15.207 18.5352 17.5508 17.2227 17.5508C16.6953 17.5508 16.3438 17.1875 16.1328 16.6836C15.9688 16.2969 15.7344 16.1445 15.3828 16.1445C14.8906 16.1445 14.6797 16.4727 14.6797 16.8594C14.6797 17 14.7148 17.1406 14.75 17.2812C14.9961 18.3008 16.0156 18.9219 17.1875 18.9219C19.5898 18.9219 20.293 16.2617 20.293 13.8594C20.293 11.6445 19.5898 8.99609 17.2109 8.99609C15.4297 8.99609 14.3984 10.4961 14.3984 12.3359C14.3984 13.918 15.1602 15.418 16.707 15.418ZM17.2344 14.1289C16.3672 14.1289 16.0156 13.1328 16.0156 12.2656C16.0156 11.3867 16.4141 10.3555 17.2344 10.3555C18.1133 10.3555 18.4766 11.3867 18.4766 12.2656C18.4766 13.168 18.0781 14.1289 17.2344 14.1289Z" fill="black" fill-opacity="0.85"/>
</svg>
