<svg width="28" height="28" viewBox="0 0 28 28" fill="none" xmlns="http://www.w3.org/2000/svg">
<path d="M6.67969 24.5977H20.8945C23.3555 24.5977 24.5742 23.3789 24.5742 20.9648V6.65625C24.5742 4.24219 23.3555 3.02344 20.8945 3.02344H6.67969C4.23047 3.02344 3 4.23047 3 6.65625V20.9648C3 23.3906 4.23047 24.5977 6.67969 24.5977Z" fill="black" fill-opacity="0.85"/>
<path d="M8.13281 18.6797C7.58203 18.6797 7.3125 18.3867 7.3125 17.9766C7.3125 17.5898 7.53516 17.2852 7.76953 17.0039L9.86719 14.3203C10.5 13.5117 11.168 12.5273 11.168 11.5547C11.168 10.6992 10.7695 10.0664 10.043 10.0664C9.35156 10.0664 9.04688 10.5703 8.83594 11.3789C8.69531 11.7773 8.46094 11.9531 8.05078 11.9531C7.59375 11.9531 7.32422 11.6484 7.32422 11.1914C7.32422 9.9375 8.50781 8.66016 10.0547 8.66016C11.7188 8.66016 12.832 9.84375 12.832 11.4727C12.832 12.5391 12.4336 13.4297 11.2266 14.9297L9.46875 17.1562V17.25H12.3281C12.75 17.25 13.0195 17.5078 13.0195 17.9766C13.0195 18.3984 12.7617 18.6797 12.3281 18.6797H8.13281ZM17.4141 18.9258C15 18.9258 14.2852 16.2305 14.2852 13.793C14.2852 11.3555 15 8.66016 17.4141 8.66016C19.8281 8.66016 20.543 11.3555 20.543 13.793C20.543 16.2305 19.8281 18.9258 17.4141 18.9258ZM17.4141 17.4844C18.3984 17.4844 18.7617 15.8906 18.7617 13.793C18.7617 11.6836 18.3984 10.1016 17.4141 10.1016C16.4297 10.1016 16.0547 11.6836 16.0547 13.793C16.0547 15.8906 16.4297 17.4844 17.4141 17.4844Z" fill="white"/>
</svg>
