<svg width="28" height="28" viewBox="0 0 28 28" fill="none" xmlns="http://www.w3.org/2000/svg">
<path d="M13.9531 25.9062C20.4922 25.9062 25.9062 20.4805 25.9062 13.9531C25.9062 7.41406 20.4805 2 13.9414 2C7.41406 2 2 7.41406 2 13.9531C2 20.4805 7.42578 25.9062 13.9531 25.9062ZM13.9531 23.9141C8.42188 23.9141 4.00391 19.4844 4.00391 13.9531C4.00391 8.42188 8.41016 3.99219 13.9414 3.99219C19.4727 3.99219 23.9141 8.42188 23.9141 13.9531C23.9141 19.4844 19.4844 23.9141 13.9531 23.9141Z" fill="black" fill-opacity="0.85"/>
<path d="M10.7891 18.8398C11.2344 18.8398 11.5859 18.5703 11.5859 18.0078V16.8359H12.0078C12.4648 16.8359 12.6758 16.543 12.6758 16.1445C12.6758 15.7695 12.4766 15.4766 12.0078 15.4766H11.5859V10.332C11.5859 9.52344 11.0586 9.06641 10.2969 9.06641C9.46484 9.06641 9.07812 9.48828 8.75 10.2148L6.66406 14.7617C6.46484 15.2188 6.39453 15.5234 6.39453 15.8867C6.39453 16.4492 6.78125 16.8359 7.35547 16.8359H9.98047V18.0078C9.98047 18.6289 10.4141 18.8398 10.7891 18.8398ZM10.0156 15.5117H7.83594V15.4297L9.96875 10.543H10.0156V15.5117ZM14.9727 18.8398C15.4414 18.8398 15.8281 18.4531 15.8281 17.9727V14.5859H18.7227V17.9727C18.7227 18.4531 19.1094 18.8398 19.5781 18.8398C20.0352 18.8398 20.4336 18.4531 20.4336 17.9727V9.91016C20.4336 9.44141 20.0352 9.05469 19.5781 9.05469C19.1094 9.05469 18.7227 9.44141 18.7227 9.91016V13.1562H15.8281V9.91016C15.8281 9.44141 15.4414 9.05469 14.9727 9.05469C14.5039 9.05469 14.1172 9.44141 14.1172 9.91016V17.9727C14.1172 18.4531 14.5039 18.8398 14.9727 18.8398Z" fill="black" fill-opacity="0.85"/>
</svg>
