<svg width="28" height="28" viewBox="0 0 28 28" fill="none" xmlns="http://www.w3.org/2000/svg">
<g clip-path="url(#clip0_2124_24801)">
<path d="M13.543 24.2227C17.7969 24.2227 19.5898 23.6836 21.2891 22.1016C23.6797 19.9219 25.0742 16.7695 25.0742 13.418C25.0742 10.7109 24.1719 8.13281 22.4844 6.24609C22.0273 5.66016 21.2539 5.55469 20.5977 5.96484C19.1562 7.01953 17.2227 7.73438 13.543 7.73438C9.85156 7.73438 7.91797 7.01953 6.48828 5.96484C5.83203 5.55469 5.04688 5.66016 4.58984 6.24609C2.91406 8.13281 2 10.7109 2 13.418C2 16.7695 3.39453 19.9219 5.78516 22.1016C7.48438 23.6836 9.27734 24.2227 13.543 24.2227ZM13.543 22.3359C9.81641 22.3359 8.39844 21.9609 7.0625 20.7188C5.03516 18.8555 3.88672 16.2188 3.88672 13.418C3.88672 11.1914 4.61328 9.05859 6.13672 7.33594L5.28125 7.55859C7.16797 9.01172 10.1562 9.62109 13.543 9.62109C16.918 9.62109 19.9062 9.01172 21.793 7.55859L20.9375 7.33594C22.4609 9.05859 23.1875 11.1914 23.1875 13.418C23.1875 16.2188 22.0391 18.8555 20.0117 20.7188C18.6875 21.9609 17.2578 22.3359 13.543 22.3359Z" fill="black" fill-opacity="0.85"/>
<path d="M13.543 6.14062C16.8008 6.14062 19.0742 5.48438 19.0742 4.64062C19.0742 3.78516 16.8008 3.15234 13.543 3.15234C10.2734 3.15234 8 3.78516 8 4.64062C8 5.48438 10.2734 6.14062 13.543 6.14062Z" fill="black" fill-opacity="0.85"/>
</g>
<defs>
<clipPath id="clip0_2124_24801">
<rect width="23.0742" height="21.2227" fill="white" transform="translate(2 3)"/>
</clipPath>
</defs>
</svg>
