<svg width="28" height="28" viewBox="0 0 28 28" fill="none" xmlns="http://www.w3.org/2000/svg">
<path d="M13.9531 25.9062C20.4922 25.9062 25.9062 20.4805 25.9062 13.9531C25.9062 7.41406 20.4805 2 13.9414 2C7.41406 2 2 7.41406 2 13.9531C2 20.4805 7.42578 25.9062 13.9531 25.9062Z" fill="black" fill-opacity="0.85"/>
<path d="M13.9531 20.8555C13.625 20.8555 13.3789 20.6211 13.3789 20.2812V19.4141C11.7617 19.2617 10.4141 18.3711 10.0742 16.9766C10.0391 16.8594 10.0156 16.7305 10.0156 16.6016C10.0156 16.1797 10.3086 15.8867 10.7188 15.8867C11.082 15.8867 11.3281 16.0742 11.4688 16.4961C11.668 17.293 12.3008 17.9023 13.3789 18.0547V14.4922L13.2969 14.4688C11.2813 13.9883 10.2383 13.0742 10.2383 11.5391C10.2383 9.88672 11.5508 8.73828 13.3789 8.53906V7.70703C13.3789 7.36719 13.625 7.13281 13.9531 7.13281C14.2812 7.13281 14.5273 7.36719 14.5273 7.70703V8.53906C16.0742 8.71484 17.3164 9.61719 17.6328 10.918C17.6562 11.0469 17.6914 11.1758 17.6914 11.293C17.6914 11.7148 17.3867 12.0078 16.9766 12.0078C16.5898 12.0078 16.3555 11.7734 16.2383 11.4102C15.9922 10.6016 15.3945 10.0859 14.5273 9.93359V13.2969L14.6914 13.332C16.7891 13.707 17.8555 14.7031 17.8555 16.3438C17.8555 18.1719 16.3906 19.2617 14.5273 19.4375V20.2812C14.5273 20.6211 14.2812 20.8555 13.9531 20.8555ZM13.3789 12.9922V9.93359C12.3594 10.1094 11.7383 10.7305 11.7383 11.457C11.7383 12.1719 12.2188 12.6523 13.2969 12.9688L13.3789 12.9922ZM14.5273 14.7734V18.0547C15.7578 17.9141 16.3555 17.2695 16.3555 16.4258C16.3555 15.6641 15.957 15.1602 14.7852 14.8438L14.5273 14.7734Z" fill="white"/>
</svg>
