<svg width="28" height="28" viewBox="0 0 28 28" fill="none" xmlns="http://www.w3.org/2000/svg">
<path d="M6.67969 24.5977H20.8945C23.3555 24.5977 24.5742 23.3789 24.5742 20.9648V6.65625C24.5742 4.24219 23.3555 3.02344 20.8945 3.02344H6.67969C4.23047 3.02344 3 4.23047 3 6.65625V20.9648C3 23.3906 4.23047 24.5977 6.67969 24.5977ZM6.70312 22.7109C5.53125 22.7109 4.88672 22.0898 4.88672 20.8711V6.75C4.88672 5.53125 5.53125 4.91016 6.70312 4.91016H20.8711C22.0312 4.91016 22.6875 5.53125 22.6875 6.75V20.8711C22.6875 22.0898 22.0312 22.7109 20.8711 22.7109H6.70312Z" fill="black" fill-opacity="0.85"/>
<path d="M9.9375 19.3125C10.3594 19.3125 10.6641 19.1133 10.8398 18.5625L11.6953 16.0664H15.8906L16.7461 18.5625C16.9219 19.1016 17.2266 19.3125 17.6484 19.3125C18.1641 19.3125 18.5156 18.9727 18.5156 18.5039C18.5156 18.3164 18.4688 18.1523 18.3867 17.8945L15.1055 9.04688C14.8711 8.4375 14.4258 8.12109 13.7812 8.12109C13.1484 8.12109 12.7148 8.4375 12.4805 9.04688L9.19922 17.8945C9.11719 18.1523 9.07031 18.3164 9.07031 18.4922C9.07031 18.9844 9.42188 19.3125 9.9375 19.3125ZM12.1641 14.6602L13.7344 10.125H13.8516L15.4219 14.6602H12.1641Z" fill="black" fill-opacity="0.85"/>
</svg>
