<svg width="28" height="28" viewBox="0 0 28 28" fill="none" xmlns="http://www.w3.org/2000/svg">
<path d="M9.23438 24.0352H18.3984C25.1953 24.0352 27.6328 21.5156 27.6328 15.2461V11.8008C27.6328 5.53125 25.1953 3 18.3984 3H9.23438C2.4375 3 0 5.53125 0 11.8008V15.2461C0 21.5156 2.4375 24.0352 9.23438 24.0352ZM9.23438 22.1484C3.70312 22.1484 1.88672 20.3555 1.88672 15.2461V11.8008C1.88672 6.69141 3.70312 4.88672 9.23438 4.88672H18.3984C23.9297 4.88672 25.7461 6.69141 25.7461 11.8008V15.2461C25.7461 20.3555 23.9297 22.1484 18.3984 22.1484H9.23438Z" fill="black" fill-opacity="0.85"/>
<path d="M7.47656 18.2695H10.8398C11.2266 18.2695 11.5547 17.9531 11.5547 17.5547C11.5547 17.168 11.2266 16.8516 10.8398 16.8516H8.33203V9.49219C8.33203 9.03516 7.94531 8.64844 7.48828 8.64844C7.01953 8.64844 6.63281 9.03516 6.63281 9.49219V17.3906C6.63281 17.9414 6.9375 18.2695 7.47656 18.2695ZM13.5352 18.4336C14.0039 18.4336 14.2969 18.1172 14.2969 17.6133V11.2852H14.3672L15.9609 17.4844C16.0781 17.9297 16.3594 18.2578 16.8281 18.2578C17.3086 18.2578 17.5547 17.9414 17.6836 17.4727L19.2773 11.2852H19.3359V17.6133C19.3359 18.1172 19.6172 18.4336 20.0977 18.4336C20.5898 18.4336 20.8594 18.1172 20.8594 17.6133V9.84375C20.8594 9.08203 20.4023 8.64844 19.6523 8.64844C18.9844 8.64844 18.5977 8.97656 18.4453 9.63281L16.8516 16.0195H16.793L15.1758 9.63281C15.0117 8.97656 14.625 8.64844 13.9805 8.64844C13.2422 8.64844 12.7734 9.10547 12.7734 9.84375V17.6133C12.7734 18.1172 13.0781 18.4336 13.5352 18.4336Z" fill="black" fill-opacity="0.85"/>
</svg>
