<svg width="29" height="28" viewBox="0 0 29 28" fill="none" xmlns="http://www.w3.org/2000/svg">
<g clip-path="url(#clip0_2124_50125)">
<path d="M27.7031 26.8672C28.2305 26.8672 28.6523 26.4453 28.6523 25.9297V4.39062C28.6523 2.96094 27.668 2 26.1914 2H2.44922C0.984375 2 0 2.96094 0 4.39062V25.9297C0 26.4453 0.421875 26.8672 0.9375 26.8672C1.46484 26.8672 1.88672 26.4453 1.88672 25.9297V4.50781C1.88672 4.13281 2.13281 3.88672 2.48438 3.88672H26.168C26.5195 3.88672 26.7656 4.13281 26.7656 4.50781V25.9297C26.7656 26.4453 27.1875 26.8672 27.7031 26.8672Z" fill="black" fill-opacity="0.85"/>
<path d="M24.9961 26.457C25.2188 26.457 25.3945 26.2695 25.3945 26.0586V5.64453C25.3945 5.42188 25.2188 5.24609 24.9961 5.24609H15.3984C15.1875 5.24609 15.0117 5.42188 15.0117 5.64453V26.0586C15.0117 26.2695 15.1875 26.457 15.3984 26.457H24.9961ZM22.7461 17.6914C22.4062 17.6914 22.1719 17.457 22.1719 17.1172V15.0664C22.1719 14.7266 22.4062 14.5039 22.7461 14.5039C23.0742 14.5039 23.3086 14.7266 23.3086 15.0664V17.1172C23.3086 17.457 23.0742 17.6914 22.7461 17.6914ZM13.2422 26.457C13.4648 26.457 13.6406 26.2695 13.6406 26.0586V5.64453C13.6406 5.42188 13.4648 5.24609 13.2422 5.24609H3.65625C3.43359 5.24609 3.25781 5.42188 3.25781 5.64453V26.0586C3.25781 26.2695 3.43359 26.457 3.65625 26.457H13.2422Z" fill="black" fill-opacity="0.85"/>
</g>
<defs>
<clipPath id="clip0_2124_50125">
<rect width="28.6523" height="24.8789" fill="white" transform="translate(0 2)"/>
</clipPath>
</defs>
</svg>
