<svg width="28" height="28" viewBox="0 0 28 28" fill="none" xmlns="http://www.w3.org/2000/svg">
<g clip-path="url(#clip0_2124_24614)">
<path d="M6 23.7734C6 25.6016 7.27734 26.8203 9.1875 26.8203H17.8711C19.7812 26.8203 21.0586 25.6016 21.0586 23.7734V5.04688C21.0586 3.21875 19.7812 2 17.8711 2H9.1875C7.27734 2 6 3.21875 6 5.04688V23.7734ZM7.88672 22.8477V5.97266H19.1719V22.8477H7.88672ZM13.5469 25.6602C12.9844 25.6602 12.5273 25.2031 12.5273 24.6406C12.5273 24.0898 12.9844 23.6328 13.5469 23.6328C14.0977 23.6328 14.5547 24.0898 14.5547 24.6406C14.5547 25.2031 14.0977 25.6602 13.5469 25.6602ZM11.3086 4.05078C11.3086 3.78125 11.4961 3.60547 11.7539 3.60547H15.3164C15.5742 3.60547 15.7617 3.78125 15.7617 4.05078C15.7617 4.32031 15.5742 4.48438 15.3164 4.48438H11.7539C11.4961 4.48438 11.3086 4.32031 11.3086 4.05078Z" fill="black" fill-opacity="0.85"/>
</g>
<defs>
<clipPath id="clip0_2124_24614">
<rect width="15.0586" height="24.832" fill="white" transform="translate(6 2)"/>
</clipPath>
</defs>
</svg>
