<svg width="28" height="28" viewBox="0 0 28 28" fill="none" xmlns="http://www.w3.org/2000/svg">
<g clip-path="url(#clip0_2124_89152)">
<path d="M13.9531 25.918C20.4922 25.918 25.9062 20.5039 25.9062 13.9648C25.9062 7.4375 20.4805 2.01172 13.9414 2.01172C7.41406 2.01172 2 7.4375 2 13.9648C2 20.5039 7.42578 25.918 13.9531 25.918Z" fill="black" fill-opacity="0.85"/>
<path d="M11.4336 8.92578C11.4336 7.53125 12.5469 6.40625 13.9531 6.40625C15.3594 6.40625 16.4727 7.53125 16.4727 8.92578C16.4727 10.0742 15.6992 11.0586 14.6445 11.375V15.4297C14.6445 17.3633 14.3164 18.4414 13.9531 18.4414C13.6016 18.4414 13.2734 17.3516 13.2734 15.4297V11.375C12.207 11.0586 11.4336 10.0742 11.4336 8.92578ZM13.25 9.05469C13.707 9.05469 14.0703 8.67969 14.0703 8.22266C14.0703 7.77734 13.707 7.41406 13.25 7.41406C12.8398 7.41406 12.4414 7.77734 12.4414 8.22266C12.4414 8.67969 12.8398 9.05469 13.25 9.05469ZM13.9531 20.8086C10.0273 20.8086 7.71875 19.4375 7.71875 17.9492C7.71875 16.1328 10.5898 15.0781 12.4062 15.0898V16.2031C11.1523 16.1914 9.19531 16.8594 9.19531 17.7969C9.19531 18.8516 11.1641 19.6133 13.9531 19.6133C16.7305 19.6133 18.7227 18.8398 18.7227 17.7969C18.7227 16.8594 16.7539 16.1914 15.5 16.2031V15.0898C17.3164 15.0781 20.1875 16.1328 20.1875 17.9492C20.1875 19.4375 17.8789 20.8086 13.9531 20.8086Z" fill="white"/>
</g>
<defs>
<clipPath id="clip0_2124_89152">
<rect width="23.9062" height="23.918" fill="white" transform="translate(2 2)"/>
</clipPath>
</defs>
</svg>
