<svg width="28" height="28" viewBox="0 0 28 28" fill="none" xmlns="http://www.w3.org/2000/svg">
<path d="M3 18.7461C3 23.2344 5.94141 26.2227 11.1914 26.2227H13.8984C14.543 26.2227 14.9648 25.7539 14.9648 25.1797C14.9648 24.6055 14.543 24.1367 13.8984 24.1367H11.2031C7.20703 24.1367 5.08594 21.793 5.08594 18.6289C5.08594 15.4766 7.20703 13.2734 11.2031 13.2734H19.2422L22.8867 13.1094L22.6758 12.5703L19.7695 15.0547L16.3945 18.3477C16.207 18.5352 16.1133 18.7578 16.1133 19.0625C16.1133 19.6719 16.5234 20.0938 17.1445 20.0938C17.4023 20.0938 17.707 19.9766 17.9062 19.7656L24.7969 13.0039C25.0312 12.7812 25.1484 12.5117 25.1484 12.2305C25.1484 11.9375 25.0312 11.668 24.7969 11.4453L17.9062 4.68359C17.707 4.48438 17.4023 4.35547 17.1445 4.35547C16.5234 4.35547 16.1133 4.77734 16.1133 5.38672C16.1133 5.69141 16.207 5.91406 16.3945 6.10156L19.7695 9.40625L22.6758 11.8789L22.8867 11.3398L19.2422 11.1758H11.3789C6.02344 11.1758 3 14.2695 3 18.7461Z" fill="black" fill-opacity="0.85"/>
</svg>
