<svg width="28" height="28" viewBox="0 0 28 28" fill="none" xmlns="http://www.w3.org/2000/svg">
<path d="M9.23438 24.0352H18.3984C25.1953 24.0352 27.6328 21.5156 27.6328 15.2461V11.8008C27.6328 5.53125 25.1953 3 18.3984 3H9.23438C2.4375 3 0 5.53125 0 11.8008V15.2461C0 21.5156 2.4375 24.0352 9.23438 24.0352ZM9.23438 22.1484C3.70312 22.1484 1.88672 20.3555 1.88672 15.2461V11.8008C1.88672 6.69141 3.70312 4.88672 9.23438 4.88672H18.3984C23.9297 4.88672 25.7461 6.69141 25.7461 11.8008V15.2461C25.7461 20.3555 23.9297 22.1484 18.3984 22.1484H9.23438Z" fill="black" fill-opacity="0.85"/>
<path d="M7.73438 18.4336C8.19141 18.4336 8.49609 18.1172 8.49609 17.6133V11.2852H8.56641L10.1602 17.4844C10.2656 17.9297 10.5469 18.2578 11.0273 18.2578C11.5078 18.2578 11.7539 17.9414 11.8711 17.4727L13.4648 11.2852H13.5352V17.6133C13.5352 18.1172 13.8164 18.4336 14.2852 18.4336C14.7891 18.4336 15.0469 18.1172 15.0469 17.6133V9.84375C15.0469 9.08203 14.5898 8.64844 13.8516 8.64844C13.1719 8.64844 12.7969 8.97656 12.6328 9.63281L11.0391 16.0195H10.9922L9.375 9.63281C9.21094 8.97656 8.8125 8.64844 8.17969 8.64844C7.42969 8.64844 6.97266 9.10547 6.97266 9.84375V17.6133C6.97266 18.1172 7.26562 18.4336 7.73438 18.4336ZM19.3125 18.3867C19.7812 18.3867 20.168 18 20.168 17.5312V9.58594C20.168 8.98828 19.793 8.63672 19.1836 8.63672C18.6914 8.63672 18.293 8.90625 18.0117 9.11719L16.7227 10.1133C16.5234 10.2773 16.3594 10.5 16.3594 10.8047C16.3594 11.168 16.6055 11.4258 16.957 11.4258C17.1445 11.4258 17.2617 11.3672 17.3789 11.2852L18.457 10.418V17.5312C18.457 18 18.8438 18.3867 19.3125 18.3867Z" fill="black" fill-opacity="0.85"/>
</svg>
