<svg width="28" height="28" viewBox="0 0 28 28" fill="none" xmlns="http://www.w3.org/2000/svg">
<g clip-path="url(#clip0_2124_62633)">
<path d="M4.67969 24.5977L14.8516 24.5859C16.2227 24.5859 17.4062 24.1641 18.3672 23.1562L25.2812 16.0195C26.0547 15.2344 26.3945 14.5195 26.3945 13.793C26.3945 13.0547 26.0547 12.3516 25.2812 11.5664L18.3789 4.39453C17.418 3.375 16.2344 3.02344 14.8633 3.02344H4.67969C2.24219 3.02344 1 4.23047 1 6.65625V20.9648C1 23.3906 2.24219 24.5977 4.67969 24.5977Z" fill="black" fill-opacity="0.85"/>
<path d="M7.63281 18.7266C7.09375 18.7266 6.67188 18.293 6.67188 17.7422C6.67188 17.4844 6.76562 17.25 6.95312 17.0625L10.1992 13.8164L6.95312 10.5586C6.76562 10.3711 6.67188 10.1367 6.67188 9.87891C6.67188 9.33984 7.09375 8.91797 7.63281 8.91797C7.90234 8.91797 8.11328 9.02344 8.30078 9.19922L11.5703 12.457L14.8633 9.1875C15.0625 8.98828 15.2852 8.89453 15.5312 8.89453C16.0703 8.89453 16.5039 9.32812 16.5039 9.85547C16.5039 10.125 16.4219 10.3359 16.2227 10.5469L12.9531 13.8164L16.2109 17.0508C16.3984 17.2383 16.4922 17.4727 16.4922 17.7422C16.4922 18.293 16.0586 18.7266 15.5078 18.7266C15.25 18.7266 14.9922 18.6211 14.8164 18.4453L11.5703 15.1758L8.33594 18.4453C8.14844 18.6211 7.90234 18.7266 7.63281 18.7266Z" fill="white"/>
</g>
<defs>
<clipPath id="clip0_2124_62633">
<rect width="25.3945" height="21.5977" fill="white" transform="translate(1 3)"/>
</clipPath>
</defs>
</svg>
