<svg width="28" height="28" viewBox="0 0 28 28" fill="none" xmlns="http://www.w3.org/2000/svg">
<g clip-path="url(#clip0_2124_24787)">
<path d="M12.0742 2C8.72266 2 7 4.47266 7 8.375V10.8477C7 13.625 7.70312 14.9492 9.67188 16.0391L14.207 18.5234C15.3555 19.1445 15.918 19.3555 16.7383 19.3555C18.4141 19.3555 19.7969 17.9727 19.7969 16.2969C19.7969 15.1484 19.1992 14.0703 17.8867 13.3906L8.91016 8.70312C8.91016 5.58594 9.92969 3.89844 12.1914 3.89844C15.9414 3.89844 19.2227 8.33984 19.5977 13.3789C20.3945 14.1758 20.8281 15.1719 20.8281 16.2969C20.8281 18.1484 19.5625 19.7305 17.8516 20.2344C17.9336 21.3945 18.6484 22.543 19.5156 22.543C20.6289 22.543 21.5547 18.7344 21.5547 15.2891C21.5547 7.96484 17.2773 2 12.0742 2ZM16.8086 18.2188C15.7539 18.2188 14.875 17.3398 14.875 16.2852C14.875 15.2188 15.7539 14.3516 16.8086 14.3516C17.8867 14.3516 18.7539 15.2188 18.7539 16.2852C18.7539 17.3398 17.8867 18.2188 16.8086 18.2188ZM16.8086 17.4688C17.4648 17.4688 17.9922 16.9297 17.9922 16.2852C17.9922 15.6406 17.4648 15.1016 16.8086 15.1016C16.1641 15.1016 15.625 15.6406 15.625 16.2852C15.625 16.9297 16.1641 17.4688 16.8086 17.4688ZM19.9961 26.3984V22.0977H18.918V26.3984H19.9961Z" fill="black" fill-opacity="0.85"/>
</g>
<defs>
<clipPath id="clip0_2124_24787">
<rect width="14.5547" height="24.4102" fill="white" transform="translate(7 2)"/>
</clipPath>
</defs>
</svg>
