<svg width="28" height="28" viewBox="0 0 28 28" fill="none" xmlns="http://www.w3.org/2000/svg">
<path d="M13.9531 25.9062C20.4922 25.9062 25.9062 20.4805 25.9062 13.9531C25.9062 7.41406 20.4805 2 13.9414 2C7.41406 2 2 7.41406 2 13.9531C2 20.4805 7.42578 25.9062 13.9531 25.9062Z" fill="black" fill-opacity="0.85"/>
<path d="M7.34279 14.9492C6.2881 14.9492 6.1592 13.8242 6.94435 13.4492L18.3584 8.03518C19.3076 7.58986 20.1045 8.38675 19.6709 9.32425L14.3037 20.7617C13.9404 21.5352 12.792 21.4297 12.792 20.3516V15.3477C12.792 15.1133 12.6396 14.9609 12.4052 14.9609L7.34279 14.9492Z" fill="white"/>
</svg>
