<svg width="28" height="28" viewBox="0 0 28 28" fill="none" xmlns="http://www.w3.org/2000/svg">
<path d="M13.9531 25.9062C20.4922 25.9062 25.9062 20.4805 25.9062 13.9531C25.9062 7.41406 20.4805 2 13.9414 2C7.41406 2 2 7.41406 2 13.9531C2 20.4805 7.42578 25.9062 13.9531 25.9062Z" fill="black" fill-opacity="0.85"/>
<path d="M13.9531 19.625C10.8711 19.625 8.72656 17.2578 8.72656 13.8477C8.72656 10.4258 10.8711 8.05859 13.9531 8.05859C17.0469 8.05859 19.1914 10.4258 19.1914 13.8477C19.1914 17.2578 17.0469 19.625 13.9531 19.625ZM13.9531 18.1016C15.9453 18.1016 17.2461 16.4141 17.2461 13.8477C17.2461 11.2695 15.9453 9.58203 13.9531 9.58203C11.9609 9.58203 10.6602 11.2695 10.6602 13.8477C10.6602 16.4141 11.9609 18.1016 13.9531 18.1016Z" fill="white"/>
</svg>
