<svg width="28" height="28" viewBox="0 0 28 28" fill="none" xmlns="http://www.w3.org/2000/svg">
<path d="M1.19649 21.8281C2.22774 25.6484 3.29414 26.8086 5.70821 26.8086H19.384C21.1184 26.8086 22.2785 25.8711 22.7121 24.1133L27.1184 6.23047C27.8332 3.3125 26.3801 2 24.6926 2C22.4543 2 20.0168 4.39062 21.3879 8.25781L21.7277 6.81641C18.2004 8.66797 16.5949 12.957 17.2395 18.1953L17.6613 17.6094C15.2473 17.1055 12.0949 16.8008 9.05977 16.8008C2.79024 16.8008 0.235549 18.3242 1.19649 21.8281Z" fill="black" fill-opacity="0.85"/>
<path d="M4.09082 12.9102H9.71582C10.1494 12.9102 10.4658 12.6055 10.4658 12.1836C10.4658 11.75 10.1494 11.4453 9.71582 11.4453H5.74316V11.4102L8.28613 8.66797C9.18847 7.70703 9.86816 6.86328 9.86816 5.65625C9.86816 3.99219 8.56738 2.89062 6.52832 2.89062C5.0166 2.89062 3.65722 3.80469 3.30566 5.04688C3.27051 5.22266 3.24707 5.33984 3.24707 5.49219C3.24707 5.92578 3.52832 6.21875 3.97363 6.21875C4.37207 6.21875 4.57129 5.97266 4.77051 5.64453C5.05176 5 5.61426 4.33203 6.59863 4.33203C7.59472 4.33203 8.27441 4.91797 8.27441 5.77344C8.27441 6.53516 7.61816 7.17969 6.99707 7.84766L3.58691 11.5156C3.39941 11.7148 3.29394 11.9258 3.29394 12.1836C3.29394 12.6289 3.59863 12.9102 4.09082 12.9102Z" fill="black" fill-opacity="0.85"/>
</svg>
