<svg width="28" height="28" viewBox="0 0 28 28" fill="none" xmlns="http://www.w3.org/2000/svg">
<path d="M2.14062 20.5977V24.1484C2.14062 25.5664 2.82031 26.2227 4.26172 26.2227H8.01172C5.44531 24.9805 3.53516 23.1289 2.14062 20.5977ZM25.8125 20.5977C24.418 23.1289 22.5078 24.9805 19.9531 26.2227H23.6914C25.1328 26.2227 25.8125 25.5664 25.8125 24.1484V20.5977ZM13.9531 26.0586C20.4922 26.0586 25.9062 20.6328 25.9062 14.1055C25.9062 7.56641 20.4805 2.15234 13.9414 2.15234C7.41406 2.15234 2 7.56641 2 14.1055C2 20.6328 7.42578 26.0586 13.9531 26.0586ZM13.9531 24.0664C8.42188 24.0664 4.00391 19.6367 4.00391 14.1055C4.00391 8.57422 8.41016 4.14453 13.9414 4.14453C19.4727 4.14453 23.9141 8.57422 23.9141 14.1055C23.9141 19.6367 19.4844 24.0664 13.9531 24.0664Z" fill="black" fill-opacity="0.85"/>
<path d="M9.93312 11.2344L13.4136 14.7148C13.7417 15.0547 14.2456 15.043 14.5737 14.7148L19.9175 9.37111C20.2456 9.05471 20.2573 8.53908 19.9175 8.22268C19.5776 7.90627 19.0972 7.89455 18.769 8.22268L13.9878 13.0039L11.0933 10.086C10.7534 9.75783 10.2613 9.75783 9.93312 10.086C9.61672 10.4024 9.605 10.9063 9.93312 11.2344Z" fill="black" fill-opacity="0.85"/>
</svg>
