<svg width="28" height="28" viewBox="0 0 28 28" fill="none" xmlns="http://www.w3.org/2000/svg">
<path d="M6.67969 24.5977H20.8945C23.3555 24.5977 24.5742 23.3789 24.5742 20.9648V6.65625C24.5742 4.24219 23.3555 3.02344 20.8945 3.02344H6.67969C4.23047 3.02344 3 4.23047 3 6.65625V20.9648C3 23.3906 4.23047 24.5977 6.67969 24.5977Z" fill="black" fill-opacity="0.85"/>
<path d="M7.59375 13.7812C7.59375 13.5117 7.6875 13.3242 7.93359 13.0781L12.0117 8.97656C12.1758 8.8125 12.3984 8.73047 12.6445 8.73047C13.1602 8.73047 13.5234 9.10547 13.5234 9.60938C13.5234 9.86719 13.418 10.0898 13.2539 10.2656L11.7539 11.7539L10.3008 12.9727L12.8555 12.8672H19.125C19.6523 12.8672 20.0391 13.2422 20.0391 13.7812C20.0391 14.3086 19.6641 14.6836 19.125 14.6836H12.8555L10.2891 14.5898L11.7539 15.8086L13.2539 17.2969C13.4297 17.4609 13.5234 17.6836 13.5234 17.9414C13.5234 18.4453 13.1602 18.832 12.6445 18.832C12.3984 18.832 12.1758 18.7383 12.0117 18.5742L7.93359 14.4844C7.71094 14.2617 7.59375 14.0508 7.59375 13.7812Z" fill="white"/>
</svg>
