<svg width="28" height="28" viewBox="0 0 28 28" fill="none" xmlns="http://www.w3.org/2000/svg">
<path d="M23.1618 10.1211C24.5797 10.1211 25.7164 8.98438 25.7164 7.56641C25.7164 6.14844 24.5797 5 23.1618 5C21.7438 5 20.5954 6.14844 20.5954 7.56641C20.5954 8.98438 21.7438 10.1211 23.1618 10.1211ZM2.57192 22.1445L9.46254 20.4219V22.0391C9.46254 22.6953 10.0016 23.2227 10.6461 23.2227C11.3024 23.2227 11.8414 22.6953 11.8414 22.0391V19.9883L16.8454 19.2383C17.7711 19.1094 18.6735 18.6992 19.4352 18.125L23.7711 14.8789C23.9352 14.7617 24.1696 14.7852 24.2516 14.9844L25.5289 17.5625V22.0391C25.5289 22.7305 26.0211 23.2227 26.7243 23.2227C27.4274 23.2227 27.9079 22.7305 27.9079 22.0391V17.2812C27.9079 17.0938 27.8727 16.8945 27.7789 16.7305L25.7282 12.6406C25.318 11.8203 24.5211 11.3164 23.6071 11.3164H22.5524C21.5329 11.3164 20.525 11.6562 19.7047 12.2773L16.3063 14.8086L11.3141 13.8125C10.2711 13.6016 9.46254 14.0586 9.46254 15.1602V17.9609L1.9977 19.8594C1.22426 20.0469 0.931292 20.6445 1.01332 21.1953C1.11879 21.8164 1.69301 22.3672 2.57192 22.1445ZM11.8414 17.3867V16.4844L13.4704 16.9883L11.8414 17.3867ZM17.4899 23.2227H22.2477C23.2321 23.2227 24.0289 22.4258 24.0289 21.4297C24.0289 20.457 23.2321 19.6484 22.2477 19.6484H17.4899C16.4938 19.6484 15.7086 20.457 15.7086 21.4297C15.7086 22.4258 16.4938 23.2227 17.4899 23.2227ZM22.2477 22.3789C21.7321 22.3789 21.3102 21.9453 21.3102 21.418C21.3102 20.9141 21.7321 20.4922 22.2477 20.4922C22.775 20.4922 23.1852 20.9141 23.1852 21.418C23.1852 21.9453 22.775 22.3789 22.2477 22.3789Z" fill="black" fill-opacity="0.85"/>
</svg>
