<svg width="28" height="28" viewBox="0 0 28 28" fill="none" xmlns="http://www.w3.org/2000/svg">
<path d="M6.02344 24.6123H21.8789C23.543 24.6123 24.5156 23.6631 24.5156 22.0225V9.07324L22.6289 7.78418V21.542C22.6289 22.3037 22.2188 22.7256 21.4805 22.7256H6.42188C5.67188 22.7256 5.26172 22.3037 5.26172 21.542V7.7959L3.375 9.07324V22.0225C3.375 23.6631 4.34766 24.6123 6.02344 24.6123ZM0 11.5693C0 12.0498 0.375 12.5068 1.00781 12.5068C1.33594 12.5068 1.60547 12.3311 1.85156 12.1318L13.582 2.28809C13.8398 2.05371 14.1562 2.05371 14.4141 2.28809L26.1445 12.1318C26.3789 12.3311 26.6484 12.5068 26.9766 12.5068C27.5273 12.5068 27.9727 12.167 27.9727 11.6045C27.9727 11.2529 27.8555 11.0186 27.6094 10.8076L15.4102 0.553711C14.543 -0.18457 13.4648 -0.18457 12.5859 0.553711L0.375 10.8076C0.117188 11.0186 0 11.2998 0 11.5693ZM21.5742 6.28418L24.5156 8.76855V3.35449C24.5156 2.83887 24.1875 2.51074 23.6719 2.51074H22.418C21.9141 2.51074 21.5742 2.83887 21.5742 3.35449V6.28418Z" fill="black" fill-opacity="0.85"/>
<path d="M17.2617 12.3076C17.8359 12.167 18 12.0381 18 11.3467V9.02635C18 8.58103 17.8477 8.38182 17.2148 8.53416L13.7578 9.38963C13.1719 9.53025 13.043 9.65916 13.043 10.3623V15.6943C13.043 16.2217 13.0078 16.3154 12.3984 16.4795L11.3203 16.7725C10.2422 17.0537 9.33984 17.6865 9.33984 18.8467C9.33984 19.8545 10.0898 20.5811 11.2852 20.5811C12.9727 20.5811 14.1211 19.374 14.1211 17.6514V13.585C14.1211 13.1396 14.2148 13.0342 14.4844 12.9756L17.2617 12.3076Z" fill="black" fill-opacity="0.85"/>
</svg>
