<svg width="29" height="29" viewBox="0 0 29 29" fill="none" xmlns="http://www.w3.org/2000/svg">
<g clip-path="url(#clip0_2124_46027)">
<path d="M25.1054 9.51155C25.1054 6.0428 22.9257 3.13655 20.0312 3.13655H17.9687C20.0781 4.6717 21.0156 6.99202 20.9687 9.62873C20.9336 12.5585 19.7968 14.6561 18.7773 15.9217H20.4648C23.0781 15.9217 25.1054 13.1092 25.1054 9.51155ZM19.3984 9.59358C19.4687 5.31623 16 2.08186 10.5508 2.03499L8.96875 2.02327C7.44531 2.01155 6.32031 2.12873 5.6875 2.30452C4.77344 2.52717 3.89453 3.07795 3.89453 4.19123C3.89453 4.63655 4.01172 4.97639 4.15234 5.22248C4.24609 5.36311 4.23437 5.49202 4.08203 5.55061C3.36719 5.84358 2.75781 6.53498 2.75781 7.44905C2.75781 7.98811 2.91016 8.44514 3.17969 8.77327C3.30859 8.94905 3.28515 9.10139 3.07422 9.2303C2.54688 9.53498 2.17188 10.1912 2.17188 10.953C2.17188 11.5037 2.34766 12.078 2.65234 12.3592C2.85156 12.5233 2.81641 12.6405 2.61719 12.8163C2.25391 13.121 2.01953 13.6483 2.01953 14.3163C2.01953 15.4413 2.89844 16.3671 4.05859 16.3671H8.18359C9.22656 16.3671 9.91797 16.9061 9.91797 17.7733C9.91797 19.3319 7.97265 22.203 7.97265 24.2655C7.97265 25.3671 8.66406 25.9999 9.58984 25.9999C10.4219 25.9999 10.832 25.4256 11.2773 24.5467C13.0234 21.16 15.3437 18.4178 17.1133 16.0624C18.6133 14.0702 19.3515 12.3592 19.3984 9.59358Z" fill="black" fill-opacity="0.85"/>
</g>
<defs>
<clipPath id="clip0_2124_46027">
<rect width="23.0859" height="24.0133" fill="white" transform="translate(2.01953 2.02246)"/>
</clipPath>
</defs>
</svg>
