<svg width="28" height="28" viewBox="0 0 28 28" fill="none" xmlns="http://www.w3.org/2000/svg">
<path d="M13.9531 25.9062C20.4922 25.9062 25.9062 20.4805 25.9062 13.9531C25.9062 7.41406 20.4805 2 13.9414 2C7.41406 2 2 7.41406 2 13.9531C2 20.4805 7.42578 25.9062 13.9531 25.9062ZM13.9531 23.9141C8.42188 23.9141 4.00391 19.4844 4.00391 13.9531C4.00391 8.42188 8.41016 3.99219 13.9414 3.99219C19.4727 3.99219 23.9141 8.42188 23.9141 13.9531C23.9141 19.4844 19.4844 23.9141 13.9531 23.9141Z" fill="black" fill-opacity="0.85"/>
<path d="M9.75781 14.375C9.75781 16.5195 11.1758 18.0195 13.0977 18.0195C14.0586 18.0195 14.9023 17.6445 15.4297 16.9766V17.4453C15.4297 17.8672 15.7227 18.1602 16.1445 18.1602C16.5547 18.1602 16.8359 17.8672 16.8359 17.4453V9.86328H17.5859C17.9023 9.86328 18.1367 9.62891 18.1367 9.3125C18.1367 8.99609 17.9141 8.75 17.5859 8.75H16.8359V8.19922C16.8359 7.74219 16.543 7.44922 16.0977 7.44922C15.6641 7.44922 15.3711 7.74219 15.3711 8.19922V8.75H13.2383C12.9102 8.75 12.6875 8.99609 12.6875 9.3125C12.6875 9.62891 12.9219 9.86328 13.2383 9.86328H15.3711V11.7383C14.8672 11.1055 14.0469 10.7305 13.0859 10.7305C11.1641 10.7305 9.75781 12.2188 9.75781 14.375ZM11.2578 14.3867C11.2578 13.0039 12.1016 12.0898 13.3438 12.0898C14.5391 12.0898 15.4062 13.0625 15.4062 14.3867C15.4062 15.7227 14.5391 16.6836 13.3438 16.6836C12.1016 16.6836 11.2578 15.7812 11.2578 14.3867ZM10.3555 19.3555C10.3555 19.6719 10.6016 19.9297 10.918 19.9297H16.6367C16.9531 19.9297 17.1992 19.6719 17.1992 19.3555C17.1992 19.0273 16.9648 18.793 16.6367 18.793H10.918C10.5898 18.793 10.3555 19.0391 10.3555 19.3555Z" fill="black" fill-opacity="0.85"/>
</svg>
