<svg width="28" height="28" viewBox="0 0 28 28" fill="none" xmlns="http://www.w3.org/2000/svg">
<g clip-path="url(#clip0_2124_62632)">
<path d="M4.67969 24.5977L14.8516 24.5859C16.2227 24.5859 17.4062 24.1641 18.3672 23.1562L25.2812 16.0195C26.0547 15.2344 26.3945 14.5195 26.3945 13.793C26.3945 13.0547 26.0547 12.3516 25.2812 11.5664L18.3789 4.39453C17.418 3.375 16.2344 3.02344 14.8633 3.02344H4.67969C2.24219 3.02344 1 4.23047 1 6.65625V20.9648C1 23.3906 2.24219 24.5977 4.67969 24.5977ZM4.71484 22.7109C3.54297 22.7109 2.88672 22.0898 2.88672 20.8711V6.75C2.88672 5.53125 3.54297 4.91016 4.71484 4.91016H14.8984C15.7773 4.91016 16.3633 5.0625 16.9609 5.68359L23.8164 12.7969C24.2031 13.207 24.3438 13.4883 24.3438 13.793C24.3438 14.0859 24.2148 14.3672 23.8164 14.7773L16.9492 21.8672C16.3398 22.5 15.7773 22.7109 14.8867 22.7109H4.71484Z" fill="black" fill-opacity="0.85"/>
<path d="M7.5625 18.7617C7.83203 18.7617 8.06641 18.6562 8.24219 18.4688L11.5586 15.1289L14.8984 18.4688C15.0742 18.6445 15.2969 18.7617 15.5664 18.7617C16.0938 18.7617 16.5039 18.3281 16.5039 17.8125C16.5039 17.543 16.4102 17.3203 16.2227 17.1445L12.8945 13.8164L16.2344 10.4648C16.4336 10.2656 16.5156 10.0664 16.5156 9.80859C16.5156 9.28125 16.1055 8.87109 15.5781 8.87109C15.332 8.87109 15.1328 8.95312 14.9336 9.15234L11.5586 12.5039L8.21875 9.16406C8.04297 8.97656 7.83203 8.89453 7.5625 8.89453C7.04688 8.89453 6.625 9.29297 6.625 9.82031C6.625 10.0781 6.73047 10.3008 6.90625 10.4766L10.2344 13.8164L6.90625 17.1562C6.73047 17.3203 6.625 17.5547 6.625 17.8125C6.625 18.3281 7.04688 18.7617 7.5625 18.7617Z" fill="black" fill-opacity="0.85"/>
</g>
<defs>
<clipPath id="clip0_2124_62632">
<rect width="25.3945" height="21.5977" fill="white" transform="translate(1 3)"/>
</clipPath>
</defs>
</svg>
