<svg width="28" height="28" viewBox="0 0 28 28" fill="none" xmlns="http://www.w3.org/2000/svg">
<path d="M13.9531 25.9062C20.4922 25.9062 25.9062 20.4805 25.9062 13.9531C25.9062 7.41406 20.4805 2 13.9414 2C7.41406 2 2 7.41406 2 13.9531C2 20.4805 7.42578 25.9062 13.9531 25.9062ZM13.9531 23.9141C8.42188 23.9141 4.00391 19.4844 4.00391 13.9531C4.00391 8.42188 8.41016 3.99219 13.9414 3.99219C19.4727 3.99219 23.9141 8.42188 23.9141 13.9531C23.9141 19.4844 19.4844 23.9141 13.9531 23.9141Z" fill="black" fill-opacity="0.85"/>
<path d="M6.37103 16.1797C5.83197 16.8711 6.5351 17.4922 7.20306 17.1406L11.082 15.043L16.1796 17.7734C16.4022 17.9023 16.6249 17.9727 16.8124 17.9727C17.0819 17.9727 17.328 17.832 17.5741 17.5391L21.5351 12.418C22.0272 11.7734 21.4061 11.1055 20.703 11.4805L16.8007 13.5781L11.7148 10.8359C11.4804 10.7187 11.2695 10.6367 11.0703 10.6367C10.8007 10.6367 10.5546 10.7773 10.3203 11.082L6.37103 16.1797Z" fill="black" fill-opacity="0.85"/>
</svg>
