<svg width="28" height="28" viewBox="0 0 28 28" fill="none" xmlns="http://www.w3.org/2000/svg">
<path d="M13.9531 25.9062C20.4922 25.9062 25.9062 20.4805 25.9062 13.9531C25.9062 7.41406 20.4805 2 13.9414 2C7.41406 2 2 7.41406 2 13.9531C2 20.4805 7.42578 25.9062 13.9531 25.9062ZM13.9531 23.9141C8.42188 23.9141 4.00391 19.4844 4.00391 13.9531C4.00391 8.42188 8.41016 3.99219 13.9414 3.99219C19.4727 3.99219 23.9141 8.42188 23.9141 13.9531C23.9141 19.4844 19.4844 23.9141 13.9531 23.9141Z" fill="black" fill-opacity="0.85"/>
<path d="M10.8828 18.8164C11.3516 18.8164 11.7383 18.4297 11.7383 17.9609V10.0156C11.7383 9.41797 11.3633 9.06641 10.7539 9.06641C10.2617 9.06641 9.86328 9.33594 9.58203 9.54688L8.29297 10.543C8.09375 10.707 7.92969 10.9297 7.92969 11.2344C7.92969 11.5977 8.17578 11.8555 8.52734 11.8555C8.71484 11.8555 8.83203 11.7969 8.94922 11.7148L10.0273 10.8477V17.9609C10.0273 18.4297 10.4141 18.8164 10.8828 18.8164ZM14.3047 18.6875H18.3711C18.793 18.6875 19.0391 18.418 19.0391 18.0078C19.0391 17.5625 18.7812 17.3164 18.3711 17.3164H15.5938V17.2227L17.3047 15.0547C18.4766 13.6016 18.8633 12.7344 18.8633 11.7031C18.8633 10.1211 17.7852 8.97266 16.168 8.97266C14.668 8.97266 13.5312 10.2148 13.5312 11.4336C13.5312 11.8672 13.7891 12.1719 14.2344 12.1719C14.6211 12.1719 14.8555 11.9961 14.9844 11.6094C15.1953 10.8242 15.4883 10.332 16.168 10.332C16.8711 10.332 17.2695 10.9531 17.2695 11.7852C17.2695 12.7227 16.6133 13.6719 15.9922 14.4688L13.9531 17.0703C13.7422 17.3516 13.5195 17.6445 13.5195 18.0078C13.5195 18.4062 13.7773 18.6875 14.3047 18.6875Z" fill="black" fill-opacity="0.85"/>
</svg>
