<svg width="48" height="28" viewBox="0 0 48 28" fill="none" xmlns="http://www.w3.org/2000/svg">
<path d="M0 13.6914C0 14.125 0.1875 14.5469 0.5625 14.8984L8.78906 22.6562C9.32812 23.1602 9.77344 23.3711 10.3125 23.3711C11.0859 23.3711 11.6836 22.7969 11.6836 22.0234V18.1797H19.6055C21.3164 18.1797 22.3477 17.1484 22.3477 15.4844V11.8984C22.3477 10.2227 21.3281 9.22656 19.6055 9.22656H11.6836V5.41797C11.6836 4.62109 11.0742 4 10.3008 4C9.78516 4 9.43359 4.1875 8.78906 4.78516L0.5625 12.4727C0.164062 12.8477 0 13.2578 0 13.6914ZM2.37891 13.9375C2.19141 13.75 2.20312 13.6211 2.37891 13.4453L9.62109 6.55469C9.70312 6.48438 9.78516 6.51953 9.78516 6.60156V10.6328C9.78516 10.9492 9.96094 11.1016 10.2656 11.1016H19.5469C20.1211 11.1016 20.4609 11.4414 20.4609 12.0391V15.3789C20.4609 15.9766 20.1211 16.293 19.5469 16.293H10.2656C9.96094 16.293 9.78516 16.4453 9.78516 16.7852V20.6875C9.78516 20.7812 9.70312 20.8164 9.62109 20.7344L2.37891 13.9375ZM47.625 13.6914C47.625 13.2578 47.4609 12.8477 47.0625 12.4727L38.8359 4.78516C38.1914 4.1875 37.8398 4 37.3242 4C36.5508 4 35.9414 4.62109 35.9414 5.41797V9.22656H28.0195C26.2969 9.22656 25.2773 10.2227 25.2773 11.8984V15.4844C25.2773 17.1484 26.3086 18.1797 28.0195 18.1797H35.9414V22.0234C35.9414 22.7969 36.5391 23.3711 37.3125 23.3711C37.8516 23.3711 38.2969 23.1602 38.8359 22.6562L47.0625 14.8984C47.4375 14.5469 47.625 14.125 47.625 13.6914ZM28.0781 16.293C27.5039 16.293 27.1641 15.9766 27.1641 15.3789V12.0391C27.1641 11.4414 27.5039 11.1016 28.0781 11.1016H37.3594C37.6641 11.1016 37.8398 10.9492 37.8398 10.6328V6.60156C37.8398 6.51953 37.9219 6.48438 38.0039 6.55469L45.2461 13.4453C45.4219 13.6211 45.4336 13.75 45.2461 13.9375L38.0039 20.7344C37.9219 20.8164 37.8398 20.7812 37.8398 20.6875V16.7852C37.8398 16.4453 37.6641 16.293 37.3594 16.293H28.0781Z" fill="black" fill-opacity="0.85"/>
</svg>
