<svg width="33" height="28" viewBox="0 0 33 28" fill="none" xmlns="http://www.w3.org/2000/svg">
<path d="M0 14.75C0 19.6836 2.88281 22.2734 7.89844 22.2734H25.6992C27.5039 22.2734 29.0391 22.4492 30.4688 22.8125C31.6992 23.1172 32.6719 22.6133 32.6719 21.3594V15.7461C32.6719 14.9492 32.0977 14.3633 31.2891 14.3633H28.2539C27.2812 14.3633 26.8008 13.9414 26.8945 13.0273L27.2461 9.59375C27.5391 6.73438 25.9102 5 22.7227 5C19.0312 5.01172 12.2227 5.15234 8.33203 5.60938C3 6.26562 0 9.52344 0 14.75ZM1.88672 14.75C1.88672 10.6133 4.24219 8 8.49609 7.50781C12.3398 7.07422 19.043 6.88672 22.7227 6.88672C24.75 6.88672 25.5703 7.70703 25.3828 9.38281L24.457 17.7031C24.2344 19.6719 23.3906 20.3867 21.2344 20.3867H7.86328C4.10156 20.3867 1.88672 18.4414 1.88672 14.75Z" fill="black" fill-opacity="0.85"/>
<path d="M1.88672 14.75C1.88672 10.6133 4.24219 8 8.49609 7.50781C12.3398 7.07422 19.043 6.88672 22.7227 6.88672C24.75 6.88672 25.5703 7.70703 25.3828 9.38281L24.457 17.7031C24.2344 19.6719 23.3906 20.3867 21.2344 20.3867H7.86328C4.10156 20.3867 1.88672 18.4414 1.88672 14.75Z" fill="white"/>
</svg>
