<svg width="34" height="28" viewBox="0 0 34 28" fill="none" xmlns="http://www.w3.org/2000/svg">
<path d="M0.606445 18.3448L5.99707 22.0948C6.60645 22.5284 7.46191 22.5049 8.1416 22.0479L13.4502 18.3448C14.2588 17.7823 14.2588 16.8799 13.4502 16.3174L8.08301 12.5792C7.4502 12.1456 6.60645 12.1339 5.99707 12.5557L0.606445 16.3174C-0.202148 16.8799 -0.202148 17.7823 0.606445 18.3448ZM10.2627 11.1026L15.665 14.8526C16.2744 15.2862 17.1299 15.2628 17.7979 14.794L23.1182 11.1026C23.9268 10.5401 23.9268 9.63775 23.1182 9.07525L17.7393 5.33697C17.1182 4.89166 16.2744 4.89166 15.665 5.31354L10.2627 9.07525C9.46582 9.63775 9.46582 10.5401 10.2627 11.1026ZM19.9424 18.3448L25.2744 22.0596C25.9307 22.5167 26.7861 22.5167 27.4072 22.0831L32.7861 18.3448C33.583 17.7823 33.583 16.8799 32.7861 16.3174L27.4072 12.5792C26.7861 12.1456 25.9424 12.1339 25.333 12.5557L19.9424 16.3174C19.1338 16.8799 19.1338 17.7823 19.9424 18.3448Z" fill="black" fill-opacity="0.85"/>
</svg>
