<svg width="31" height="28" viewBox="0 0 31 28" fill="none" xmlns="http://www.w3.org/2000/svg">
<g clip-path="url(#clip0_2124_67801)">
<path d="M0 13.0703C0 17.3477 2.92969 20.1836 7.32422 20.1836C11.6484 20.1836 14.543 17.6406 14.543 13.8086C14.543 12.2148 13.9805 10.9258 13.043 10.1172C12.6094 9.76562 12.3633 9.63672 11.9531 9.63672C11.4141 9.63672 11.0391 9.96484 11.0391 10.4453C11.0391 11.0312 11.3789 11.1836 11.918 11.6758C12.4102 12.1562 12.6914 12.8828 12.6914 13.7734C12.6914 16.4922 10.5586 18.3086 7.35938 18.3086C4.07812 18.3086 1.88672 16.2109 1.88672 13.0586C1.88672 11.2539 2.80078 9.55469 4.30078 8.58203L3.36328 6.95312C1.27734 8.25391 0 10.5859 0 13.0703ZM3.16406 6.96484C3.16406 9.58984 4.98047 11.4414 7.85156 11.4414C8.35547 11.4414 8.78906 11.0195 8.78906 10.5039C8.78906 9.98828 8.35547 9.55469 7.85156 9.55469C6.11719 9.55469 5.05078 8.46484 5.05078 6.96484C5.05078 5.30078 6.42188 4.14062 8.26172 4.14062C9.11719 4.14062 10.0312 4.39844 10.875 4.97266L11.9766 3.4375C10.8047 2.61719 9.50391 2.25391 8.27344 2.25391C5.4375 2.25391 3.16406 4.1875 3.16406 6.96484ZM9.41016 6.64844C9.38672 7.25781 9.79688 7.66797 10.3359 7.66797C10.8516 7.66797 11.25 7.32812 11.2734 6.73047C11.3555 4.50391 12.9727 2.875 15.2461 2.875C16.6172 2.875 17.8125 3.60156 18.293 4.67969C18.3867 4.85547 18.5156 4.86719 18.7383 4.79688C19.125 4.69141 19.5586 4.63281 19.9805 4.63281C22.0781 4.65625 24.0703 6.23828 24.0703 8.75781C24.0703 14.2656 16.3359 13.5039 16.3359 18.8711C16.3359 21.4258 18.3633 23.0312 20.9883 23.0312C21.2695 23.0312 21.5742 23.0078 21.8789 22.9961C22.1484 24.9883 23.4023 26.9219 25.4297 26.9219C28.3594 26.9219 29.7891 23.3594 29.7891 19.8906C29.7891 18.3789 29.707 17.3594 29.6016 16.3984L27.7148 16.9258C27.8203 17.8633 27.9141 18.7422 27.9141 19.8672C27.9141 22.7148 26.8359 25.0352 25.4297 25.0352C23.9766 25.0352 23.3906 23.1016 23.3906 21.5664C23.3906 21.4375 23.3203 21.3555 23.1562 21.3672C22.8281 21.3672 22.3828 21.3789 22.0898 21.3789C19.7578 21.3789 18.2227 20.6523 18.2227 18.8359C18.2227 14.5586 25.957 15.5195 25.957 8.75781C25.957 5.14844 23.2852 2.74609 20.2266 2.74609C19.9922 2.74609 19.6641 2.79297 19.3359 2.86328C18.3984 1.70312 16.8984 1 15.2578 1C11.9297 1 9.55078 3.33203 9.41016 6.64844ZM23.1914 18.1445C23.1914 18.6719 23.6133 19.0469 24.1406 19.082C28.1602 19.3398 30.8438 16.9844 30.8438 13.1758C30.8438 10.0586 28.6289 7.67969 25.3008 7.23438L25.0078 9.10938C27.375 9.14453 28.957 10.7617 28.957 13.1758C28.957 15.8125 27.0234 17.4297 24.1406 17.207C23.6133 17.1602 23.1914 17.6289 23.1914 18.1445ZM17.168 19.668C16.4766 19.9141 15.668 20.0312 14.9062 20.0312C12.9258 20.0312 10.9102 19.2578 10.1367 18.0625L8.57812 19.3281C9.80859 20.8633 12.0352 21.918 14.707 21.918C15.668 21.918 16.7461 21.7773 17.8125 21.4727L17.168 19.668ZM13.4062 11.3945L14.0391 13.1875C16.9922 12.6016 18.3164 10.75 18.3164 8.00781C18.3164 7.49219 17.8828 7.07031 17.3672 7.07031C16.8516 7.07031 16.4297 7.49219 16.4297 8.00781C16.4297 9.94141 15.6094 11.0781 13.4062 11.3945Z" fill="black" fill-opacity="0.85"/>
</g>
<defs>
<clipPath id="clip0_2124_67801">
<rect width="30.8438" height="25.9336" fill="white" transform="translate(0 1)"/>
</clipPath>
</defs>
</svg>
