<svg width="28" height="28" viewBox="0 0 28 28" fill="none" xmlns="http://www.w3.org/2000/svg">
<path d="M13.9531 25.918C20.4922 25.918 25.9062 20.5039 25.9062 13.9648C25.9062 7.4375 20.4805 2.01172 13.9414 2.01172C7.41406 2.01172 2 7.4375 2 13.9648C2 20.5039 7.42578 25.918 13.9531 25.918Z" fill="black" fill-opacity="0.85"/>
<path d="M10.1563 15.5234C8.43359 15.5234 7.42578 14.3984 7.42578 13.0273C7.42578 11.8086 8.23438 10.9062 9.27734 10.6016C9.47656 8.44531 11.2695 6.72266 13.4492 6.72266C15.125 6.72266 16.4609 7.67188 17.1875 9.08984C19.1445 9.08984 20.6562 10.4375 20.6562 12.2891C20.6562 14.0703 19.2266 15.5234 17.3398 15.5234H10.1563ZM9.73438 18.043C9.44141 18.043 9.19531 17.8086 9.19531 17.5039C9.19531 17.1992 9.44141 16.9414 9.73438 16.9414H18.1602C18.4648 16.9414 18.7109 17.1875 18.7109 17.5039C18.7109 17.8086 18.4648 18.043 18.1602 18.043H9.73438ZM9.73438 20.5156C9.44141 20.5156 9.19531 20.2695 9.19531 19.9531C9.19531 19.6484 9.44141 19.4141 9.73438 19.4141H18.1602C18.4648 19.4141 18.7109 19.6484 18.7109 19.9531C18.7109 20.2695 18.4648 20.5156 18.1602 20.5156H9.73438Z" fill="white"/>
</svg>
