<svg width="28" height="28" viewBox="0 0 28 28" fill="none" xmlns="http://www.w3.org/2000/svg">
<path d="M13.9531 25.9062C20.4922 25.9062 25.9062 20.4805 25.9062 13.9531C25.9062 7.41406 20.4805 2 13.9414 2C7.41406 2 2 7.41406 2 13.9531C2 20.4805 7.42578 25.9062 13.9531 25.9062Z" fill="black" fill-opacity="0.85"/>
<path d="M15.1722 17.8203C14.4105 18.6289 13.5315 18.6289 12.7698 17.8203L8.03545 12.793C7.66045 12.4062 7.66045 11.8555 7.98857 11.5039C8.36357 11.1172 8.94951 11.1172 9.28935 11.4805L13.9651 16.4375L18.6409 11.4805C18.9925 11.1172 19.5667 11.1289 19.9534 11.5039C20.2933 11.8438 20.2698 12.4062 19.9065 12.793L15.1722 17.8203Z" fill="white"/>
</svg>
