<svg width="29" height="34" viewBox="0 0 29 34" fill="none" xmlns="http://www.w3.org/2000/svg">
<g clip-path="url(#clip0_2124_45948)">
<path d="M23.5728 11.2872C25.3189 11.2872 26.7252 9.82239 26.7252 8.12317C26.7252 6.35364 25.3189 4.92395 23.5728 4.92395C21.7916 4.92395 20.3853 6.35364 20.3853 8.12317C20.3853 9.86926 21.7916 11.2872 23.5728 11.2872ZM4.68222 28.0568C5.2916 28.6896 6.33457 28.6427 7.08457 27.8693L12.1236 22.6661C12.2877 22.4904 12.4049 22.4435 12.6744 22.549L16.6002 24.0372C19.1314 25.0099 21.5221 24.1779 22.6236 22.1622L25.1549 17.5568C26.1393 15.7638 25.8346 13.9122 24.1236 12.9982C22.4713 12.0958 20.7486 12.7755 19.7525 14.6154L16.4713 20.6036L13.6705 19.5841C12.2877 19.0802 11.1275 19.2443 10.026 20.3927L4.78769 25.8068C4.06113 26.5568 4.13144 27.4943 4.68222 28.0568Z" fill="black" fill-opacity="0.85"/>
<path d="M1.26027 7.47865C1.60012 7.81849 2.15089 7.81849 2.49074 7.47865L5.72511 4.23255L7.0259 5.53334C7.60012 6.10755 8.45559 5.77943 8.49075 4.9474L8.74856 0.892705C8.772 0.341924 8.43215 -0.0096381 7.86965 0.0137994L3.80325 0.259893C3.01809 0.306768 2.63136 1.11537 3.22902 1.72474L4.51809 3.02552L1.27199 6.2599C0.932148 6.59974 0.932148 7.15052 1.26027 7.47865ZM5.43215 9.59974C5.43215 10.0919 5.80715 10.4786 6.29934 10.4786H10.8931V12.3068C10.8931 13.1271 11.7251 13.4904 12.3462 12.9396L15.3813 10.2443C15.7915 9.85754 15.7915 9.37709 15.3813 9.00209L12.3462 6.30677C11.7485 5.77943 10.8931 6.0724 10.8931 6.93959V8.75599H6.29934C5.80715 8.75599 5.43215 9.13099 5.43215 9.59974ZM1.26027 11.7326C0.932148 12.0607 0.932148 12.5997 1.27199 12.9513L4.51809 16.1857L3.22902 17.4865C2.63136 18.0958 3.01809 18.9044 3.80325 18.9513L7.86965 19.1857C8.43215 19.2208 8.772 18.8693 8.74856 18.3185L8.49075 14.2638C8.45559 13.4318 7.60012 13.1036 7.0259 13.6779L5.72511 14.9786L2.49074 11.7326C2.15089 11.3927 1.60012 11.3927 1.26027 11.7326Z" fill="black" fill-opacity="0.85"/>
</g>
<defs>
<clipPath id="clip0_2124_45948">
<rect width="25.7095" height="33.5999" fill="white" transform="translate(1.01562 0.0126953)"/>
</clipPath>
</defs>
</svg>
