<svg width="28" height="28" viewBox="0 0 28 28" fill="none" xmlns="http://www.w3.org/2000/svg">
<g clip-path="url(#clip0_2124_67777)">
<path d="M13.9531 25.918C20.4922 25.918 25.9062 20.5039 25.9062 13.9648C25.9062 7.4375 20.4805 2.01172 13.9414 2.01172C7.41406 2.01172 2 7.4375 2 13.9648C2 20.5039 7.42578 25.918 13.9531 25.918Z" fill="black" fill-opacity="0.85"/>
<path d="M7.27344 15.2305V12.6758C7.27344 11.9375 7.77734 11.4219 8.51562 11.4219H11.4219V8.55078C11.4219 7.78906 11.9258 7.28516 12.6641 7.28516H15.2188C15.9688 7.28516 16.4609 7.78906 16.4609 8.55078V11.4219H19.3672C20.1172 11.4219 20.6211 11.9375 20.6211 12.6758V15.2305C20.6211 15.9688 20.1172 16.4727 19.3672 16.4727H16.4609V19.3672C16.4609 20.1289 15.9688 20.6211 15.2188 20.6211H12.6641C11.9258 20.6211 11.4219 20.1289 11.4219 19.3672V16.4727H8.51562C7.78906 16.4727 7.27344 15.9688 7.27344 15.2305Z" fill="white"/>
</g>
<defs>
<clipPath id="clip0_2124_67777">
<rect width="23.9062" height="23.918" fill="white" transform="translate(2 2)"/>
</clipPath>
</defs>
</svg>
