<svg width="29" height="28" viewBox="0 0 29 28" fill="none" xmlns="http://www.w3.org/2000/svg">
<path d="M7.87739 6.34375C9.21333 6.34375 10.3032 5.25391 10.3032 3.91797C10.3032 2.58203 9.21333 1.50391 7.87739 1.50391C6.54146 1.50391 5.46333 2.58203 5.46333 3.91797C5.46333 5.25391 6.54146 6.34375 7.87739 6.34375ZM22.0219 5.83984C23.3579 5.83984 24.4477 4.75 24.4477 3.41406C24.4477 2.08984 23.3579 1 22.0219 1C20.686 1 19.6079 2.08984 19.6079 3.41406C19.6079 4.75 20.686 5.83984 22.0219 5.83984ZM1.12739 9.32031L3.60005 9.51953C3.76411 9.53125 3.8813 9.64844 3.8813 9.83594V14.3242C3.8813 15.2266 4.17427 16.1055 4.72505 16.7969L7.61958 20.5234L6.14302 25.4336C5.9438 26.0781 6.3188 26.7695 6.93989 26.9453C7.56099 27.1211 8.24068 26.8281 8.45161 26.125L10.104 20.6055C10.1391 20.5 10.1508 20.418 10.1508 20.3125L14.6274 25.9727C15.0376 26.4883 15.811 26.5938 16.3032 26.1836C16.8305 25.7383 16.9243 25.0117 16.5141 24.4844L8.52193 14.3711L8.88521 10.7852C8.92036 10.5273 9.15474 10.3984 9.37739 10.5039L12.1547 11.8984C12.3422 12.0039 12.6821 12.0742 12.9516 12.0742H17.229C17.5102 12.0742 17.8032 11.9688 18.0024 11.793L20.0297 10.0586C20.229 9.88281 20.4751 9.96484 20.5688 10.1992L21.7055 13.3633L16.9126 14.6758C16.4321 14.8047 16.0571 15.2266 16.0102 15.7305L15.4711 21.25C15.4008 22.0352 16.0922 22.5625 16.6782 22.5625C17.2876 22.5625 17.8149 22.1172 17.8735 21.4844L18.3305 16.8906L21.6938 16.375L20.0883 19.6094C19.9126 19.9609 19.8188 20.3477 19.9594 20.7109L22.1743 26.2305C22.4438 26.8984 23.1704 27.1328 23.7446 26.8984C24.354 26.6523 24.6586 25.9492 24.4126 25.3281L22.4438 20.418L25.1626 16.5508C25.854 15.5898 26.1001 14.3477 25.8891 13.1875L25.4672 10.8672C25.4086 10.5508 25.6547 10.3516 25.9477 10.4453L27.3422 10.9141C28.2915 11.2422 29.0063 10.6562 28.9243 9.70703L28.3618 4.12891C28.3032 3.4375 27.6821 2.96875 27.0493 3.03906C26.4047 3.10938 25.9008 3.69531 25.9594 4.375L26.3344 8.05469L23.0063 6.94141C21.6469 6.48438 20.2055 6.73047 19.0805 7.70312L16.7954 9.67188H13.0922L9.51802 7.89062C8.97896 7.60938 8.45161 7.46875 7.85396 7.42188L2.85005 7.04688L4.01021 3.54297C4.23286 2.89844 3.8813 2.21875 3.26021 2.00781C2.62739 1.79688 1.93599 2.13672 1.73677 2.76953L0.0609882 7.72656C-0.185105 8.47656 0.342238 9.26172 1.12739 9.32031Z" fill="black" fill-opacity="0.85"/>
</svg>
