<svg width="28" height="33" viewBox="0 0 28 33" fill="none" xmlns="http://www.w3.org/2000/svg">
<path d="M27.3279 19.8398C28.2888 16.3359 25.7342 14.8125 19.4646 14.8125C16.5115 14.8125 13.5349 15.0469 10.9685 15.5039L11.5193 16.1953C11.8943 11.2031 10.4529 7.05469 7.72243 5.12109L7.94509 6.24609C9.0115 2.61328 6.77321 0 4.01931 0C1.74587 0 0.52712 1.64062 1.17165 4.23047L5.5779 22.1133C6.0115 23.8828 7.17165 24.8203 8.89431 24.8203H22.8162C25.2302 24.8203 26.2967 23.6602 27.3279 19.8398ZM25.5232 19.3359C24.6677 22.5117 24.1287 22.9336 22.8162 22.9336H8.89431C8.12087 22.9336 7.61696 22.4883 7.41775 21.6562L2.97634 3.73828C2.69509 2.58984 3.16384 1.88672 4.03103 1.88672C5.36696 1.88672 6.58571 3.10547 6.25759 5.29687C6.1404 6.10547 6.22243 6.32812 6.66775 6.69141C8.73025 8.22656 9.8904 11.7891 9.79665 16.1953C9.79665 16.9102 10.242 17.3672 10.9568 17.3555C12.2927 17.2617 15.2927 16.6992 19.4646 16.6992C24.6092 16.6992 26.0271 17.4492 25.5232 19.3359Z" fill="black" fill-opacity="0.85"/>
<path d="M21.1522 26.6133H15.9374C15.3163 26.6133 15.0233 27.1289 15.3632 27.6797L17.9178 31.8398C18.2343 32.3555 18.8436 32.3789 19.1835 31.8398L21.7147 27.6797C22.0428 27.1289 21.785 26.6133 21.1522 26.6133Z" fill="black" fill-opacity="0.85"/>
<path d="M21.1522 13.0312C21.785 13.0312 22.0546 12.5273 21.7147 11.9766L19.1835 7.81641C18.8553 7.27734 18.2343 7.28906 17.9178 7.81641L15.3632 11.9766C15.0233 12.5273 15.3163 13.0312 15.9374 13.0312H21.1522Z" fill="black" fill-opacity="0.85"/>
</svg>
