<svg width="28" height="28" viewBox="0 0 28 28" fill="none" xmlns="http://www.w3.org/2000/svg">
<path d="M6.67969 24.5977H20.8945C23.3555 24.5977 24.5742 23.3789 24.5742 20.9648V6.65625C24.5742 4.24219 23.3555 3.02344 20.8945 3.02344H6.67969C4.23047 3.02344 3 4.23047 3 6.65625V20.9648C3 23.3906 4.23047 24.5977 6.67969 24.5977Z" fill="black" fill-opacity="0.85"/>
<path d="M9.99609 10.793C10.5352 10.793 10.8867 11.1562 10.8867 11.7422V13.8164L10.7109 15.7031L12.457 13.8398L16.875 9.41016C17.0625 9.23438 17.2852 9.12891 17.5781 9.12891C18.1055 9.12891 18.4688 9.48047 18.4688 10.0312C18.4688 10.2656 18.3516 10.5117 18.1758 10.6875L13.7344 15.1055L11.8477 16.875L13.6406 16.6875H15.8203C16.4062 16.6875 16.7812 17.0391 16.7812 17.5664C16.7812 18.1055 16.418 18.457 15.8438 18.457H10.125C9.50391 18.457 9.11719 18.1758 9.11719 17.4609V11.7656C9.11719 11.1914 9.46875 10.793 9.99609 10.793Z" fill="white"/>
</svg>
