<svg width="28" height="28" viewBox="0 0 28 28" fill="none" xmlns="http://www.w3.org/2000/svg">
<path d="M6.67969 24.5977H20.8945C23.3555 24.5977 24.5742 23.3789 24.5742 20.9648V6.65625C24.5742 4.24219 23.3555 3.02344 20.8945 3.02344H6.67969C4.23047 3.02344 3 4.23047 3 6.65625V20.9648C3 23.3906 4.23047 24.5977 6.67969 24.5977Z" fill="black" fill-opacity="0.85"/>
<path d="M9.43359 18.5742V13.7695C9.43359 12.9141 9.78516 12.4922 10.4883 12.4453V11.0273C10.4883 8.80078 11.8242 7.3125 13.793 7.3125C15.7617 7.3125 17.0977 8.80078 17.0977 11.0273V12.4453C17.8125 12.4922 18.1641 12.9141 18.1641 13.7695V18.5742C18.1641 19.4766 17.7656 19.8984 16.9219 19.8984H10.6641C9.83203 19.8984 9.43359 19.4766 9.43359 18.5742ZM11.7539 12.4336H15.832V10.8867C15.832 9.48047 15.0117 8.53125 13.793 8.53125C12.5742 8.53125 11.7539 9.48047 11.7539 10.8867V12.4336Z" fill="white"/>
</svg>
