<svg width="28" height="28" viewBox="0 0 28 28" fill="none" xmlns="http://www.w3.org/2000/svg">
<g clip-path="url(#clip0_2124_88488)">
<path d="M20.5234 4.07812H21.8594C22.375 4.07812 22.6328 4.35938 22.6328 4.95703V22.8164C22.6328 23.5195 22.5273 23.7773 21.8594 24.0703C19.5273 25.0898 16.2461 25.7461 13.1523 25.7461C11.3477 25.7461 9.61328 25.6289 7.82031 25.3242V25.4766C12.7773 25.5469 17.5117 24.1523 19.668 22.5C20.5 21.8672 20.7461 21.4453 20.7461 20.4141V1.72266C20.7461 0.5625 20.1602 0 19.1289 0C18.7773 0 18.3555 0.0820312 17.8516 0.246094C14.3125 1.40625 11.0781 2.14453 6.92969 2.14453H5.99219C4.72656 2.14453 4 2.88281 4 4.03125V24.1406C4 25.0547 4.19922 25.6055 5.06641 26.0273C7.07031 26.8945 10.0703 27.4688 13.1523 27.4688C16.4336 27.4688 20.125 26.9766 22.7734 25.6875C24.1797 25.0195 24.5195 24.3984 24.5195 22.9453V4.95703C24.5195 3.05859 23.6758 2.19141 21.8477 2.19141H20.5234V4.07812ZM5.88672 23.2617V4.53516C5.88672 4.20703 6.0625 4.00781 6.36719 4.00781H7.01172C11.1133 4.00781 14.9453 3.1875 18.2148 2.15625C18.6133 2.02734 18.8594 2.13281 18.8594 2.49609V20.0039C18.8594 20.6367 18.7773 20.8945 18.1797 21.2812C15.7422 22.9102 11.793 23.918 6.29688 23.6836C6.00391 23.6719 5.88672 23.543 5.88672 23.2617ZM8.27734 7.10156V10.9453C8.27734 11.1328 8.40625 11.2148 8.55859 11.2148C11.3125 11.2148 14.1016 10.7227 16.2109 9.87891C16.3164 9.83203 16.375 9.72656 16.375 9.62109V5.61328C16.375 5.34375 16.1289 5.28516 16 5.34375C13.5742 6.22266 11.207 6.69141 8.55859 6.79688C8.39453 6.80859 8.27734 6.9375 8.27734 7.10156Z" fill="black" fill-opacity="0.85"/>
</g>
<defs>
<clipPath id="clip0_2124_88488">
<rect width="20.5195" height="27.4805" fill="white" transform="translate(4)"/>
</clipPath>
</defs>
</svg>
