<svg width="28" height="28" viewBox="0 0 28 28" fill="none" xmlns="http://www.w3.org/2000/svg">
<path d="M9.23438 24.0352H18.3984C25.1953 24.0352 27.6328 21.5156 27.6328 15.2461V11.8008C27.6328 5.53125 25.1953 3 18.3984 3H9.23438C2.4375 3 0 5.53125 0 11.8008V15.2461C0 21.5156 2.4375 24.0352 9.23438 24.0352Z" fill="black" fill-opacity="0.85"/>
<path d="M7.54688 18.5859C7.06641 18.5859 6.76172 18.2578 6.76172 17.7422V9.73828C6.76172 8.96484 7.23047 8.49609 8.00391 8.49609C8.66016 8.49609 9.08203 8.83594 9.24609 9.51562L10.9102 16.0898H10.957L12.5977 9.51562C12.7617 8.83594 13.1484 8.49609 13.8516 8.49609C14.625 8.49609 15.0938 8.94141 15.0938 9.73828V17.7422C15.0938 18.2578 14.8242 18.5859 14.3086 18.5859C13.8164 18.5859 13.5234 18.2578 13.5234 17.7422V11.2266H13.4531L11.8125 17.5898C11.6953 18.082 11.4375 18.4102 10.9453 18.4102C10.4531 18.4102 10.1602 18.0703 10.043 17.6016L8.41406 11.2266H8.33203V17.7422C8.33203 18.2578 8.01562 18.5859 7.54688 18.5859ZM19.5 18.5391C19.0078 18.5391 18.6094 18.1406 18.6094 17.6484V10.3242L17.5078 11.2148C17.3789 11.3086 17.2617 11.3672 17.0625 11.3672C16.6992 11.3672 16.4414 11.0977 16.4414 10.7227C16.4414 10.4062 16.6172 10.1719 16.8281 10.0078L18.1523 8.97656C18.4453 8.76562 18.8555 8.48438 19.3594 8.48438C19.9922 8.48438 20.3789 8.84766 20.3789 9.46875V17.6484C20.3789 18.1406 19.9805 18.5391 19.5 18.5391Z" fill="white"/>
</svg>
