<svg width="28" height="28" viewBox="0 0 28 28" fill="none" xmlns="http://www.w3.org/2000/svg">
<path d="M6.67969 24.5977H20.8945C23.3555 24.5977 24.5742 23.3789 24.5742 20.9648V6.65625C24.5742 4.24219 23.3555 3.02344 20.8945 3.02344H6.67969C4.23047 3.02344 3 4.23047 3 6.65625V20.9648C3 23.3906 4.23047 24.5977 6.67969 24.5977ZM6.70312 22.7109C5.53125 22.7109 4.88672 22.0898 4.88672 20.8711V6.75C4.88672 5.53125 5.53125 4.91016 6.70312 4.91016H20.8711C22.0312 4.91016 22.6875 5.53125 22.6875 6.75V20.8711C22.6875 22.0898 22.0312 22.7109 20.8711 22.7109H6.70312Z" fill="black" fill-opacity="0.85"/>
<path d="M11.7422 19.6641C12.1875 19.6641 12.4922 19.3477 12.4922 18.9023V17.6719H14.9062C15.2461 17.6719 15.4805 17.4141 15.4805 17.0859C15.4805 16.7578 15.2461 16.5117 14.9062 16.5117H12.4922V14.6016H16.4062C16.8281 14.6016 17.1328 14.3203 17.1328 13.8984C17.1328 13.4766 16.8281 13.207 16.4062 13.207H12.4922V9.89062H16.8398C17.25 9.89062 17.5664 9.60938 17.5664 9.1875C17.5664 8.75391 17.25 8.47266 16.8398 8.47266H11.7305C11.2617 8.47266 10.9688 8.77734 10.9688 9.25781V16.5117H10.0312C9.69141 16.5117 9.46875 16.7578 9.46875 17.0859C9.46875 17.4141 9.69141 17.6719 10.0312 17.6719H10.9688V18.9141C10.9688 19.3711 11.2969 19.6641 11.7422 19.6641Z" fill="black" fill-opacity="0.85"/>
</svg>
