<svg width="35" height="28" viewBox="0 0 35 28" fill="none" xmlns="http://www.w3.org/2000/svg">
<g clip-path="url(#clip0_2124_24767)">
<path d="M10.0312 23.9258H10.9453C11.6719 23.9258 12.1523 23.5509 12.1523 22.8243V13.1562L8.82422 14.0587V22.8243C8.82422 23.5509 9.29297 23.9258 10.0312 23.9258ZM24.3984 23.9258C25.1367 23.9258 25.6055 23.5509 25.6055 22.8243V14.0587L22.2773 13.1562V22.8243C22.2773 23.5509 22.7578 23.9258 23.4844 23.9258H24.3984Z" fill="black" fill-opacity="0.85"/>
<path d="M11.742 2.00009C9.38655 1.98837 6.77327 3.11337 5.03889 5.52743C4.48811 6.23056 3.39827 8.03525 3.46858 9.67587L5.81233 15.7579C10.0545 15.9454 11.9412 15.3477 13.5467 14.4337C15.7498 13.1798 17.6014 11.0235 17.6014 7.90634C17.6014 4.21493 14.906 2.02353 11.742 2.00009ZM22.6873 2.00009C19.5232 2.02353 16.8279 4.21493 16.8279 7.90634C16.8279 11.0235 18.6795 13.1798 20.8826 14.4337C22.4881 15.3477 24.3748 15.9454 28.617 15.7579L30.9607 9.67587C31.031 8.03525 29.9412 6.23056 29.3904 5.52743C27.656 3.11337 25.0428 1.98837 22.6873 2.00009Z" fill="white"/>
<path d="M11.7188 3.19535C9.71484 3.17192 7.47656 4.15629 5.97656 6.24223C5.55469 6.76957 4.69923 8.2227 4.64062 9.42973L7.60547 14.586C10.3945 14.5509 11.7539 14.0938 12.9609 13.4142C14.8828 12.3009 16.418 10.4961 16.418 7.90629C16.418 4.91801 14.3086 3.21879 11.7188 3.19535ZM12.1641 8.2227C11.9414 8.42193 11.5781 8.39848 11.3789 8.15238C11.1797 7.90629 11.2031 7.55473 11.4492 7.35551L13.1719 5.90238C13.418 5.70317 13.7695 5.73832 13.957 5.98442C14.168 6.21879 14.1562 6.57035 13.9102 6.76957L12.1641 8.2227ZM22.7109 3.19535C20.1211 3.21879 18.0117 4.91801 18.0117 7.90629C18.0117 10.4961 19.5469 12.3009 21.4688 13.4142C22.6758 14.0938 24.0352 14.5509 26.8242 14.586L29.7891 9.42973C29.7305 8.2227 28.875 6.76957 28.4531 6.24223C26.9531 4.15629 24.7148 3.17192 22.7109 3.19535ZM22.2656 8.2227L20.5195 6.76957C20.2734 6.57035 20.2617 6.21879 20.4727 5.98442C20.6602 5.73832 21.0117 5.70317 21.2578 5.90238L22.9805 7.35551C23.2266 7.55473 23.25 7.90629 23.0508 8.15238C22.8516 8.39848 22.4883 8.42193 22.2656 8.2227Z" fill="black" fill-opacity="0.85"/>
<path d="M5.39062 17.0587C7.74609 17.0587 9.96094 15.5001 9.96094 12.5235C9.96094 9.89856 7.57031 7.22668 4.44141 7.22668C1.62891 7.22668 0 9.4884 0 11.715C0 14.9493 2.75391 17.0587 5.39062 17.0587ZM29.0391 17.0587C31.6758 17.0587 34.4297 14.9493 34.4297 11.715C34.4297 9.4884 32.8008 7.22668 29.9883 7.22668C26.8594 7.22668 24.4688 9.89856 24.4688 12.5235C24.4688 15.5001 26.6836 17.0587 29.0391 17.0587Z" fill="white"/>
<path d="M5.39062 15.922C7.21875 15.922 8.82422 14.797 8.82422 12.5235C8.82422 10.4962 6.91406 8.35168 4.44141 8.35168C2.33203 8.35168 1.13672 10.0158 1.13672 11.715C1.13672 14.2579 3.29297 15.922 5.39062 15.922ZM4.81641 14.1407C4.47656 14.4337 3.92578 14.1407 3.22266 13.3087C2.55469 12.4767 2.37891 11.9025 2.69531 11.6212C3.04688 11.3165 3.58594 11.5978 4.28906 12.4415C4.95703 13.297 5.14453 13.8595 4.81641 14.1407ZM29.0391 15.922C31.1367 15.922 33.293 14.2579 33.293 11.715C33.293 10.0158 32.0977 8.35168 29.9883 8.35168C27.5156 8.35168 25.6055 10.4962 25.6055 12.5235C25.6055 14.797 27.2109 15.922 29.0391 15.922ZM29.6133 14.1407C29.2852 13.8595 29.4727 13.297 30.1406 12.4415C30.8438 11.5978 31.3828 11.3165 31.7344 11.6212C32.0508 11.9025 31.875 12.4767 31.207 13.3087C30.5039 14.1407 29.9531 14.4337 29.6133 14.1407Z" fill="black" fill-opacity="0.85"/>
</g>
<defs>
<clipPath id="clip0_2124_24767">
<rect width="34.4297" height="23.1213" fill="white" transform="translate(0 2)"/>
</clipPath>
</defs>
</svg>
