<svg width="28" height="28" viewBox="0 0 28 28" fill="none" xmlns="http://www.w3.org/2000/svg">
<path d="M6.67969 24.5977H20.8945C23.3555 24.5977 24.5742 23.3789 24.5742 20.9648V6.65625C24.5742 4.24219 23.3555 3.02344 20.8945 3.02344H6.67969C4.23047 3.02344 3 4.23047 3 6.65625V20.9648C3 23.3906 4.23047 24.5977 6.67969 24.5977ZM6.70312 22.7109C5.53125 22.7109 4.88672 22.0898 4.88672 20.8711V6.75C4.88672 5.53125 5.53125 4.91016 6.70312 4.91016H20.8711C22.0312 4.91016 22.6875 5.53125 22.6875 6.75V20.8711C22.6875 22.0898 22.0312 22.7109 20.8711 22.7109H6.70312Z" fill="black" fill-opacity="0.85"/>
<path d="M10.6406 18.6562C11.0977 18.6562 11.4844 18.2695 11.4844 17.8008V9.85547C11.4844 9.25781 11.1094 8.90625 10.5 8.90625C10.0195 8.90625 9.62109 9.17578 9.33984 9.38672L8.05078 10.3828C7.83984 10.5469 7.6875 10.7695 7.6875 11.0742C7.6875 11.4375 7.93359 11.6953 8.28516 11.6953C8.46094 11.6953 8.57812 11.6367 8.69531 11.5547L9.77344 10.6875V17.8008C9.77344 18.2695 10.1602 18.6562 10.6406 18.6562ZM16.2188 18.7383C17.8945 18.7383 19.1953 17.6836 19.1953 15.9258C19.1953 14.4727 18.3281 13.7578 17.332 13.6523V13.6172C18.3984 13.3359 18.9141 12.3867 18.9141 11.4023C18.9141 9.78516 17.707 8.85938 16.1719 8.85938C14.9648 8.85938 13.9219 9.53906 13.582 10.582C13.5117 10.8047 13.4883 11.0156 13.4883 11.2148C13.4883 11.6016 13.7461 11.9062 14.2148 11.9062C14.6133 11.9062 14.8477 11.7539 14.9531 11.3437C15.1406 10.6523 15.5156 10.2187 16.1719 10.2187C16.9453 10.2187 17.3203 10.8164 17.3203 11.5898C17.3203 12.4453 16.8398 13.0664 15.9609 13.0664H15.6797C15.2812 13.0664 15.0352 13.3125 15.0352 13.6992C15.0352 14.0859 15.293 14.3086 15.6797 14.3086H15.9727C16.9688 14.3086 17.5195 14.8594 17.5195 15.8789C17.5195 16.6875 17.0977 17.3789 16.2188 17.3789C15.375 17.3789 14.9883 16.8047 14.8477 16.2656C14.7305 15.8906 14.4844 15.6914 14.1094 15.6914C13.6406 15.6914 13.3359 15.9727 13.3359 16.4297C13.3359 16.6406 13.3711 16.8516 13.4297 17.0391C13.7695 18.1289 14.9648 18.7383 16.2188 18.7383Z" fill="black" fill-opacity="0.85"/>
</svg>
