<svg width="32" height="28" viewBox="0 0 32 28" fill="none" xmlns="http://www.w3.org/2000/svg">
<g clip-path="url(#clip0_2124_67789)">
<path d="M15.8906 23.9336C25.2773 23.9336 31.7695 16.3398 31.7695 13.9727C31.7695 11.5938 25.2656 4.01172 15.8906 4.01172C6.62109 4.01172 0 11.5938 0 13.9727C0 16.3398 6.62109 23.9336 15.8906 23.9336ZM15.8906 20.5C12.2344 20.5 9.32812 17.5352 9.32812 13.9727C9.32812 10.3164 12.2344 7.44531 15.8906 7.44531C19.5117 7.44531 22.4414 10.3164 22.4414 13.9727C22.4414 17.5352 19.5117 20.5 15.8906 20.5ZM15.8906 16.3281C17.1914 16.3281 18.2695 15.2617 18.2695 13.9727C18.2695 12.6719 17.1914 11.6055 15.8906 11.6055C14.5781 11.6055 13.5 12.6719 13.5 13.9727C13.5 15.2617 14.5781 16.3281 15.8906 16.3281Z" fill="black" fill-opacity="0.85"/>
</g>
<defs>
<clipPath id="clip0_2124_67789">
<rect width="31.7695" height="19.9336" fill="white" transform="translate(0 4)"/>
</clipPath>
</defs>
</svg>
