<svg width="42" height="28" viewBox="0 0 42 28" fill="none" xmlns="http://www.w3.org/2000/svg">
<g clip-path="url(#clip0_2124_88692)">
<path d="M4.52344 22.3438C4.89844 21.9219 4.78125 21.3711 4.35938 20.8906C2.78906 19.1445 1.91016 16.8477 1.91016 14.3281C1.91016 11.8086 2.78906 9.51172 4.35938 7.76562C4.78125 7.28516 4.89844 6.73438 4.52344 6.3125C4.14844 5.86719 3.49219 5.87891 3.04688 6.37109C1.10156 8.48047 0 11.293 0 14.3281C0 17.3633 1.10156 20.1641 3.04688 22.2852C3.49219 22.7773 4.14844 22.7773 4.52344 22.3438ZM37.2773 22.3438C37.6523 22.7773 38.3086 22.7773 38.7539 22.2852C40.6992 20.1641 41.8008 17.3633 41.8008 14.3281C41.8008 11.293 40.6992 8.48047 38.7539 6.37109C38.3086 5.87891 37.6523 5.86719 37.2773 6.3125C36.9023 6.73438 37.0195 7.28516 37.4414 7.76562C39.0117 9.51172 39.8906 11.8086 39.8906 14.3281C39.8906 16.8477 39.0117 19.1445 37.4414 20.8906C37.0195 21.3711 36.9023 21.9219 37.2773 22.3438Z" fill="black" fill-opacity="0.85"/>
<path d="M7.80469 19.0039C8.17969 18.582 8.02734 18.0547 7.65234 17.5508C6.94922 16.6719 6.60938 15.5469 6.60938 14.3281C6.60938 13.1094 6.94922 11.9726 7.65234 11.1054C8.02734 10.6015 8.17969 10.0742 7.80469 9.65232C7.41797 9.20701 6.71484 9.20701 6.30469 9.73436C5.28516 11 4.69922 12.6055 4.69922 14.3281C4.69922 16.0508 5.28516 17.6562 6.30469 18.9219C6.71484 19.4492 7.41797 19.4375 7.80469 19.0039ZM33.9844 19.0039C34.3828 19.4375 35.0742 19.4492 35.4961 18.9219C36.5156 17.6562 37.1016 16.0508 37.1016 14.3281C37.1016 12.6055 36.5156 11 35.4961 9.73436C35.0742 9.20701 34.3828 9.20701 33.9844 9.65232C33.6211 10.0742 33.7734 10.6015 34.1484 11.1054C34.8398 11.9726 35.1914 13.1094 35.1914 14.3281C35.1914 15.5469 34.8398 16.6719 34.1484 17.5508C33.7734 18.0547 33.6211 18.582 33.9844 19.0039Z" fill="black" fill-opacity="0.85"/>
<path d="M11.6133 21.9688H30.1875C31.2891 21.9688 31.957 21.4062 31.957 20.5508C31.957 19.3789 30.7617 18.3242 29.7539 17.2812C28.9805 16.4727 28.7695 14.8086 28.6758 13.4609C28.5938 8.96094 27.3984 5.86719 24.2812 4.74219C23.8359 3.20703 22.6289 2 20.8945 2C19.1719 2 17.9531 3.20703 17.5195 4.74219C14.4023 5.86719 13.207 8.96094 13.125 13.4609C13.0312 14.8086 12.8203 16.4727 12.0469 17.2812C11.0273 18.3242 9.84375 19.3789 9.84375 20.5508C9.84375 21.4062 10.5 21.9688 11.6133 21.9688ZM20.8945 26.668C22.8867 26.668 24.3398 25.2148 24.4922 23.5742H17.3086C17.4609 25.2148 18.9141 26.668 20.8945 26.668Z" fill="black" fill-opacity="0.85"/>
</g>
<defs>
<clipPath id="clip0_2124_88692">
<rect width="41.8008" height="24.668" fill="white" transform="translate(0 2)"/>
</clipPath>
</defs>
</svg>
