<svg width="28" height="28" viewBox="0 0 28 28" fill="none" xmlns="http://www.w3.org/2000/svg">
<path d="M13.9531 25.9062C20.4922 25.9062 25.9062 20.4805 25.9062 13.9531C25.9062 7.41406 20.4805 2 13.9414 2C7.41406 2 2 7.41406 2 13.9531C2 20.4805 7.42578 25.9062 13.9531 25.9062Z" fill="black" fill-opacity="0.85"/>
<path d="M7.22522 18.4297L9.55725 9.125C9.69788 8.57422 10.1198 8.23438 10.6705 8.23438C11.1979 8.23438 11.5963 8.5625 11.7252 9.125L13.9987 18.4297C14.1628 19.1445 13.7409 19.4844 13.2721 19.4844C12.8971 19.4844 12.569 19.2852 12.4753 18.8398L11.9596 16.5547H9.276L8.78382 18.8398C8.69007 19.2852 8.35022 19.4844 7.97522 19.4844C7.51819 19.4844 7.03772 19.1445 7.22522 18.4297ZM9.53382 15.3242H11.7135L10.6471 10.543H10.5534L9.53382 15.3242ZM17.4675 20.2227C17.1862 20.2227 16.9518 19.9883 16.9518 19.7188V18.8867C15.5456 18.7227 14.6784 17.832 14.5143 16.5898C14.4089 15.957 14.8073 15.6055 15.2292 15.6055C15.5573 15.6055 15.8385 15.8164 15.8854 16.2266C15.944 16.9531 16.2839 17.4336 16.9518 17.5742V14.4688L16.5299 14.2578C15.2643 13.6133 14.5143 12.7812 14.5143 11.4688C14.5143 10.0625 15.5221 9.07812 16.9518 8.91406V8.12891C16.9518 7.84766 17.1862 7.61328 17.4675 7.61328C17.7253 7.61328 17.9596 7.84766 17.9596 8.12891V8.92578C19.2839 9.13672 20.0573 10.0391 20.2096 11.2109C20.3034 11.8789 19.9049 12.1953 19.4948 12.1953C19.1667 12.1953 18.8503 11.9609 18.8151 11.5742C18.7682 10.9414 18.487 10.4609 17.9596 10.2734V13.2969L18.3464 13.5078C19.776 14.2812 20.4089 15.0898 20.4089 16.2617C20.4089 17.7617 19.4245 18.7227 17.9596 18.8984V19.7188C17.9596 19.9883 17.7253 20.2227 17.4675 20.2227ZM16.0026 11.4102C16.0026 12.043 16.3893 12.3945 16.8581 12.6875L16.9518 12.7461V10.2383C16.3659 10.3672 16.0026 10.8008 16.0026 11.4102ZM18.9323 16.3672C18.9323 15.8047 18.569 15.3711 18.0299 15.0547L17.9596 15.0078V17.5742C18.5807 17.4336 18.9323 16.9883 18.9323 16.3672Z" fill="white"/>
</svg>
