<svg width="28" height="28" viewBox="0 0 28 28" fill="none" xmlns="http://www.w3.org/2000/svg">
<path d="M13.9531 25.9062C20.4922 25.9062 25.9062 20.4805 25.9062 13.9531C25.9062 7.41406 20.4805 2 13.9414 2C7.41406 2 2 7.41406 2 13.9531C2 20.4805 7.42578 25.9062 13.9531 25.9062ZM13.9531 23.9141C8.42188 23.9141 4.00391 19.4844 4.00391 13.9531C4.00391 8.42188 8.41016 3.99219 13.9414 3.99219C19.4727 3.99219 23.9141 8.42188 23.9141 13.9531C23.9141 19.4844 19.4844 23.9141 13.9531 23.9141Z" fill="black" fill-opacity="0.85"/>
<path d="M10.0859 19.4727C10.5078 19.4727 10.8125 19.2734 10.9883 18.7227L11.8438 16.2266H16.0391L16.8945 18.7227C17.0703 19.2617 17.3633 19.4727 17.7969 19.4727C18.3125 19.4727 18.6641 19.1328 18.6641 18.6641C18.6641 18.4766 18.6172 18.3125 18.5352 18.0547L15.2422 9.20703C15.0195 8.59766 14.5742 8.28125 13.9297 8.28125C13.2969 8.28125 12.8633 8.59766 12.6289 9.20703L9.34766 18.0547C9.25391 18.3125 9.21875 18.4766 9.21875 18.6523C9.21875 19.1445 9.55859 19.4727 10.0859 19.4727ZM12.3125 14.8203L13.8711 10.2852H14L15.5586 14.8203H12.3125Z" fill="black" fill-opacity="0.85"/>
</svg>
