<svg width="28" height="28" viewBox="0 0 28 28" fill="none" xmlns="http://www.w3.org/2000/svg">
<g clip-path="url(#clip0_2124_62638)">
<path d="M10.6953 19.332H17.9375C19.5781 19.332 20.4453 18.3711 20.4453 16.8242V14.8203H24.8867C25.8594 14.8203 26.6328 14.2461 26.6328 13.3438C26.6328 12.793 26.3516 12.3594 25.8242 11.9023L15.7695 3.03125C15.2773 2.60938 14.8438 2.32812 14.3164 2.32812C13.7891 2.32812 13.3555 2.60938 12.8633 3.03125L2.80859 11.9141C2.25781 12.3945 2 12.793 2 13.3438C2 14.2461 2.77344 14.8203 3.74609 14.8203H8.1875V16.8242C8.1875 18.3711 9.05469 19.332 10.6953 19.332ZM10.8828 17.5625C10.4492 17.5625 10.1445 17.2695 10.1445 16.8242V13.4492C10.1445 13.168 10.0391 13.0508 9.74609 13.0508H4.64844C4.56641 13.0508 4.51953 13.0156 4.51953 12.957C4.51953 12.9102 4.54297 12.8633 4.58984 12.8164L14.0703 4.58984C14.1641 4.49609 14.2344 4.46094 14.3164 4.46094C14.3984 4.46094 14.4688 4.49609 14.5625 4.58984L24.043 12.8164C24.0898 12.8633 24.1133 12.9102 24.1133 12.957C24.1133 13.0156 24.0664 13.0508 23.9844 13.0508H18.8867C18.6055 13.0508 18.4883 13.168 18.4883 13.4492V16.8242C18.4883 17.2578 18.1719 17.5625 17.75 17.5625H10.8828ZM10.1914 26.8555H18.3359C19.6953 26.8555 20.4688 26.1055 20.4688 24.7461V23.0703C20.4688 21.6992 19.6953 20.9258 18.3359 20.9258H10.1914C8.84375 20.9258 8.07031 21.7109 8.07031 23.0703V24.7461C8.07031 26.0938 8.84375 26.8555 10.1914 26.8555ZM10.4609 25.2031C10.0508 25.2031 9.83984 24.9922 9.83984 24.582V23.2344C9.83984 22.8242 10.0508 22.5781 10.4609 22.5781H18.0664C18.4766 22.5781 18.6992 22.8242 18.6992 23.2344V24.582C18.6992 24.9922 18.4766 25.2031 18.0664 25.2031H10.4609Z" fill="black" fill-opacity="0.85"/>
</g>
<defs>
<clipPath id="clip0_2124_62638">
<rect width="24.6328" height="24.8555" fill="white" transform="translate(2 2)"/>
</clipPath>
</defs>
</svg>
