<svg width="28" height="35" viewBox="0 0 28 35" fill="none" xmlns="http://www.w3.org/2000/svg">
<path d="M14.4766 30.9697C21.9062 30.9697 27.9531 24.9346 27.9531 17.4932C27.9531 10.0518 21.9062 4.00488 14.4766 4.00488C7.03516 4.00488 1 10.0518 1 17.4932C1 24.9229 7.03516 30.9697 14.4766 30.9697ZM14.4766 29.083C8.05469 29.083 2.88672 23.915 2.88672 17.4932C2.88672 11.0713 8.05469 5.8916 14.4766 5.8916C20.8867 5.8916 26.0664 11.0713 26.0664 17.4932C26.0664 23.915 20.8867 29.083 14.4766 29.083Z" fill="black" fill-opacity="0.85"/>
<path d="M12.3556 7.80176H16.5743C18.7071 7.80176 19.7618 5.49316 18.4728 3.78223L16.3985 0.981445C15.4259 -0.331055 13.5274 -0.319336 12.5548 0.969727L10.4454 3.79395C9.17978 5.48145 10.211 7.80176 12.3556 7.80176Z" fill="white"/>
<path d="M12.3555 6.19629H16.5742C17.3945 6.19629 17.6875 5.3877 17.1953 4.74316L15.1094 1.93066C14.7695 1.48535 14.1719 1.48535 13.8438 1.93066L11.7227 4.75488C11.2656 5.37598 11.5117 6.19629 12.3555 6.19629Z" fill="black" fill-opacity="0.85"/>
<path d="M14.4766 26.8564C19.6445 26.8564 23.8281 22.6611 23.8281 17.4932C23.8281 12.3135 19.6445 8.1416 14.4766 8.1416C9.30859 8.1416 5.125 12.3135 5.125 17.4932C5.125 22.6611 9.30859 26.8564 14.4766 26.8564ZM12.6836 22.1221C12.1094 22.1221 11.793 21.7119 11.793 21.1143V13.7197C11.793 13.1221 12.1094 12.7002 12.6836 12.7002C13.2578 12.7002 13.6328 13.1104 13.6328 13.7197V20.5752H17.0781C17.5117 20.5752 17.875 20.9033 17.875 21.3604C17.875 21.8174 17.5117 22.1221 17.0781 22.1221H12.6836Z" fill="black" fill-opacity="0.85"/>
</svg>
