<svg width="28" height="28" viewBox="0 0 28 28" fill="none" xmlns="http://www.w3.org/2000/svg">
<path d="M13.2109 25.3477C19.3984 25.3477 23.5234 21.1641 23.5234 14.8594C23.5234 4.37109 14.5938 0 8.39453 0C7.29297 0 6.58984 0.386719 6.58984 1.13672C6.58984 1.42969 6.71875 1.73438 6.96484 2.01562C8.35938 3.67969 9.75391 5.66016 9.77734 7.96875C9.77734 8.49609 9.71875 8.96484 9.34375 9.62109L9.92969 9.50391C9.40234 7.78125 7.98438 6.5625 6.74219 6.5625C6.26172 6.5625 5.93359 6.91406 5.93359 7.44141C5.93359 7.74609 6.01562 8.46094 6.01562 8.97656C6.01562 11.6016 4 13.1367 4 17.3672C4 22.1602 7.66797 25.3477 13.2109 25.3477ZM13.3281 23.707C8.73438 23.707 5.65234 21.1523 5.65234 17.3672C5.65234 13.5234 7.72656 12.2227 7.72656 9.17578C7.72656 8.71875 7.63281 8.30859 7.52734 7.95703L7.25781 8.42578C8.21875 9 8.875 10.043 9.25 11.6484C9.29688 11.8945 9.4375 12.0117 9.61328 12.0117C10.5625 12.0117 11.2422 9.65625 11.2422 8.16797C11.2422 5.47266 10.082 2.91797 8.19531 1.17188L7.87891 1.54688C16.3047 1.72266 21.8008 7.3125 21.8008 14.8008C21.8008 20.1211 18.4023 23.707 13.3281 23.707ZM13.4805 22.0547C16.2695 22.0547 17.6289 20.0039 17.6289 17.6836C17.6289 15.3984 16.293 12.8438 13.7266 11.6367C13.6211 11.6016 13.5508 11.6602 13.5625 11.7656C13.7617 13.6875 13.4688 15.4688 12.8477 16.3125C12.5547 15.6328 12.2031 15.0469 11.6641 14.5664C11.582 14.4961 11.5117 14.5312 11.4883 14.6367C11.3008 15.9609 9.83594 16.6992 9.83594 18.7617C9.83594 20.7305 11.2891 22.0547 13.4805 22.0547Z" fill="black" fill-opacity="0.85"/>
</svg>
