<svg width="29" height="29" viewBox="0 0 29 29" fill="none" xmlns="http://www.w3.org/2000/svg">
<g clip-path="url(#clip0_2124_45987)">
<path d="M6.42969 24.366C9.99219 24.366 12.8398 20.03 12.8398 13.6785C12.8398 7.31519 9.99219 3.00269 6.42969 3.00269C2.85547 3.00269 0.0078125 7.31519 0.0078125 13.6785C0.0078125 20.03 2.85547 24.366 6.42969 24.366ZM6.42969 22.7136C3.86328 22.7254 1.69531 19.0457 1.69531 13.6785C1.69531 8.34644 3.86328 4.67847 6.42969 4.65503C9.01953 4.64331 11.1875 8.31128 11.1875 13.6785C11.1875 19.0105 9.01953 22.6902 6.42969 22.7136ZM3.89843 17.8152C5.85547 17.8152 7.15625 16.4558 7.15625 14.3933C7.15625 12.366 5.85547 10.9949 3.89843 10.9949C1.92969 10.9949 0.628906 12.366 0.628906 14.3933C0.628906 16.4558 1.92969 17.8152 3.89843 17.8152ZM2.97265 13.9949C2.55078 13.9363 2.29297 13.4324 2.38672 12.9167C2.49219 12.4128 2.89062 12.0378 3.28906 12.1199C3.71093 12.2019 3.96875 12.6824 3.86328 13.1863C3.76953 13.7019 3.38281 14.0652 2.97265 13.9949ZM20.9844 24.366C24.5586 24.366 27.4062 20.03 27.4062 13.6785C27.4062 7.31519 24.5586 3.00269 20.9844 3.00269C17.4219 3.00269 14.5742 7.31519 14.5742 13.6785C14.5742 20.03 17.4219 24.366 20.9844 24.366ZM20.9844 22.7019C18.4062 22.7019 16.2266 19.0339 16.2266 13.6785C16.2266 8.34644 18.3945 4.67847 20.9844 4.66675C23.5508 4.66675 25.7305 8.33472 25.7305 13.6785C25.7305 19.0222 23.5508 22.6902 20.9844 22.7019ZM18.4414 17.8152C20.3984 17.8152 21.7226 16.4558 21.7226 14.3933C21.7226 12.366 20.3984 10.9949 18.4414 10.9949C16.4844 10.9949 15.1719 12.366 15.1719 14.3933C15.1719 16.4558 16.4844 17.8152 18.4414 17.8152ZM17.5156 13.9949C17.1055 13.9246 16.8359 13.4324 16.9414 12.9167C17.0469 12.4128 17.4336 12.0378 17.8437 12.1199C18.2656 12.1902 18.5117 12.6824 18.4062 13.1863C18.3125 13.7019 17.9258 14.0652 17.5156 13.9949Z" fill="black" fill-opacity="0.85"/>
</g>
<defs>
<clipPath id="clip0_2124_45987">
<rect width="27.3984" height="21.3633" fill="white" transform="translate(0.0078125 3.00269)"/>
</clipPath>
</defs>
</svg>
