<svg width="28" height="28" viewBox="0 0 28 28" fill="none" xmlns="http://www.w3.org/2000/svg">
<path d="M18.5625 26.6562C22.3945 26.6562 25.3711 24.1367 25.3711 20.9023C25.3711 17.6562 22.3945 15.1367 18.5625 15.1367C14.707 15.1367 11.7305 17.6562 11.7305 20.9023C11.7305 24.1367 14.707 26.6562 18.5625 26.6562ZM18.5625 24.7695C15.7734 24.7695 13.6172 23.082 13.6172 20.9023C13.6172 18.7109 15.7734 17.0234 18.5625 17.0234C21.3516 17.0234 23.4844 18.7109 23.4844 20.9023C23.4844 23.082 21.3516 24.7695 18.5625 24.7695Z" fill="black" fill-opacity="0.85"/>
<path d="M18.5156 23.3984C20.0039 23.3984 21.2227 22.4844 21.2227 21.1836V7.71875H15.8203V21.1836C15.8203 22.4844 17.0508 23.3984 18.5156 23.3984Z" fill="white"/>
<path d="M18.5156 22.0273C19.2539 22.0273 19.8633 21.6758 19.8633 21.1836V9.08984H17.1914V21.1836C17.1914 21.6758 17.7773 22.0273 18.5156 22.0273ZM18.5156 12.0664C21.3047 12.0664 23.5312 9.80469 23.5312 7.01562C23.5312 4.25 21.2812 2 18.5156 2C15.7383 2 13.4766 4.27344 13.4766 7.01562C13.4766 9.82812 15.7383 12.0664 18.5156 12.0664Z" fill="black" fill-opacity="0.85"/>
<path d="M12.1875 12.3946C12.1875 11.8907 11.7891 11.4923 11.2734 11.4923H8.01562V9.93365C8.01562 9.10162 7.20703 8.85553 6.58594 9.32428L3.31641 11.7969C2.89453 12.1134 2.89453 12.711 3.31641 13.0392L6.58594 15.5001C7.23047 15.9923 8.01562 15.6993 8.01562 14.8907V13.3204H11.2734C11.7891 13.3204 12.1875 12.9103 12.1875 12.3946Z" fill="black" fill-opacity="0.85"/>
</svg>
