<svg width="28" height="28" viewBox="0 0 28 28" fill="none" xmlns="http://www.w3.org/2000/svg">
<path d="M6.09766 21.8398V6.03125C6.09766 5.42188 5.66406 5 5.04297 5C4.43359 5 4 5.42188 4 6.03125V21.8398C4 22.4375 4.43359 22.8477 5.04297 22.8477C5.66406 22.8477 6.09766 22.4375 6.09766 21.8398ZM24.6484 13.9297C24.6484 13.3086 24.2266 12.875 23.6172 12.875H11.7812L9.27344 12.9688L13.1172 9.44141L15.707 6.80469C15.9062 6.61719 16.0117 6.33594 16.0117 6.05469C16.0117 5.46875 15.5547 5.03516 14.9805 5.03516C14.6875 5.03516 14.4414 5.15234 14.1953 5.38672L6.42578 13.1328C6.19141 13.3672 6.0625 13.6367 6.0625 13.9297C6.0625 14.2109 6.19141 14.4922 6.42578 14.7148L14.1953 22.4609C14.4414 22.6953 14.6875 22.8008 14.9805 22.8008C15.5547 22.8008 16.0117 22.3789 16.0117 21.793C16.0117 21.5117 15.9062 21.2305 15.707 21.0312L13.1172 18.4062L9.26172 14.8906L11.7812 14.9727H23.6172C24.2266 14.9727 24.6484 14.5391 24.6484 13.9297Z" fill="black" fill-opacity="0.85"/>
</svg>
