<svg width="28" height="28" viewBox="0 0 28 28" fill="none" xmlns="http://www.w3.org/2000/svg">
<path d="M13.9531 25.9062C20.4922 25.9062 25.9062 20.4805 25.9062 13.9531C25.9062 7.41406 20.4805 2 13.9414 2C7.41406 2 2 7.41406 2 13.9531C2 20.4805 7.42578 25.9062 13.9531 25.9062Z" fill="black" fill-opacity="0.85"/>
<path d="M20.9141 14.9844C20.9141 15.4414 20.5273 15.8281 20.0938 15.8164L15.8398 15.7695C15.6172 15.7578 15.4062 15.6641 15.2773 15.5234C14.9492 15.207 14.9492 14.7617 15.2656 14.4453C15.418 14.2812 15.6055 14.2109 15.8281 14.2109L17.6094 14.2344L18.2891 14.2578L17.8555 13.8711L12.3242 8.33984C12.0078 8.02344 12.0078 7.55469 12.3242 7.22656C12.6406 6.91016 13.1211 6.91016 13.4375 7.22656L18.9805 12.7578L19.3555 13.168L19.3203 12.5234L19.2969 10.7305C19.2852 10.5195 19.3789 10.3203 19.5312 10.168C19.8594 9.83984 20.3164 9.83984 20.6328 10.168C20.7734 10.3086 20.8672 10.543 20.8672 10.7539L20.9141 14.9844ZM6.96875 12.9336C6.96875 12.4648 7.34375 12.125 7.78906 12.125L12.043 12.1602C12.2305 12.1602 12.4648 12.2656 12.6055 12.3945C12.9336 12.7344 12.9336 13.1797 12.6172 13.4961C12.4531 13.6484 12.2656 13.7305 12.0547 13.7305L10.2617 13.6953L9.58203 13.6719L10.0156 14.0469L15.5469 19.5898C15.875 19.9062 15.875 20.3633 15.5469 20.6914C15.2188 21.0078 14.7617 21.0195 14.4453 20.6914L8.90234 15.1719L8.50391 14.7383L8.53906 15.4062L8.57422 17.1992C8.5625 17.4102 8.50391 17.5977 8.35156 17.7617C8.03516 18.0781 7.56641 18.0781 7.23828 17.7617C7.10938 17.6328 7.02734 17.4102 7.01562 17.1875L6.96875 12.9336Z" fill="white"/>
</svg>
