<svg width="34" height="28" viewBox="0 0 34 28" fill="none" xmlns="http://www.w3.org/2000/svg">
<path d="M5.97623 10.1236L0.128571 21.69C-0.176117 22.2877 0.0465394 22.9908 0.948883 22.9908H2.48404C3.18716 22.9908 3.53873 22.651 3.72623 22.1471L8.47232 10.3111C8.63638 9.91272 8.44888 9.58459 8.03873 9.58459H6.80826C6.40982 9.58459 6.16373 9.77209 5.97623 10.1236ZM27.7848 10.1236C27.5973 9.77209 27.3512 9.58459 26.9528 9.58459H25.7223C25.3122 9.58459 25.1364 9.91272 25.2887 10.3111L30.0348 22.1471C30.234 22.651 30.5739 22.9908 31.277 22.9908H32.8122C33.7262 22.9908 33.9372 22.2877 33.6325 21.69L27.7848 10.1236Z" fill="black" fill-opacity="0.85"/>
<path d="M10.3594 12.2564C10.3594 12.6666 10.6758 12.983 11.086 12.983H11.7305C12.1524 12.983 12.4688 12.6666 12.4688 12.2564V11.4596H21.2813V12.2564C21.2813 12.6666 21.5977 12.983 22.0079 12.983H22.6641C23.0743 12.983 23.3907 12.6666 23.3907 12.2564V8.57678C23.3907 7.651 23.2618 7.0885 22.6993 6.46741L22.1368 5.86975L21.5626 4.20569C21.2462 3.30334 20.6368 2.92834 19.8751 2.84631C19.5001 2.79944 18.293 2.76428 16.8751 2.76428C15.4454 2.76428 14.2383 2.79944 13.8751 2.84631C13.1133 2.92834 12.504 3.30334 12.1876 4.20569L11.6016 5.86975L11.0508 6.46741C10.4883 7.0885 10.3594 7.651 10.3594 8.57678V12.2564ZM13.1133 5.90491C12.8555 5.90491 12.7618 5.70569 12.8438 5.45959L13.1837 4.42834C13.3126 4.05334 13.5118 3.92444 13.8516 3.87756C14.2383 3.83069 15.3048 3.78381 16.8751 3.78381C18.4454 3.78381 19.5118 3.83069 19.8868 3.87756C20.2266 3.92444 20.4258 4.05334 20.5548 4.42834L20.9063 5.45959C20.9883 5.70569 20.8946 5.90491 20.6251 5.90491H13.1133ZM12.3516 9.3385C12.0118 9.3385 11.7657 9.09241 11.7657 8.75256V7.89709C11.7657 7.55725 12.0118 7.32287 12.3516 7.32287C12.6915 7.32287 12.9376 7.55725 12.9376 7.89709V8.75256C12.9376 9.10412 12.6915 9.3385 12.3516 9.3385ZM15.6212 9.08069C15.3516 9.08069 15.1758 8.89319 15.1758 8.60022V8.04944C15.1758 7.75647 15.3516 7.58069 15.6212 7.58069H18.1055C18.3868 7.58069 18.5626 7.75647 18.5626 8.04944V8.60022C18.5626 8.89319 18.3868 9.08069 18.1055 9.08069H15.6212ZM21.4571 9.3385C21.129 9.3385 20.8712 9.09241 20.8712 8.75256V7.89709C20.8712 7.55725 21.129 7.32287 21.4571 7.32287C21.7969 7.32287 22.043 7.55725 22.043 7.89709V8.75256C22.043 9.10412 21.7969 9.3385 21.4571 9.3385Z" fill="black" fill-opacity="0.85"/>
<path d="M18.5033 15.4088L17.9291 17.7994L14.9642 14.7525C14.7298 14.4947 14.39 14.6822 14.5189 15.0338L15.5736 18.1627L14.1908 17.5416C13.8744 17.401 13.64 17.6354 13.8744 17.94L14.6478 18.9479L11.0853 18.4439C10.6751 18.3854 10.5814 18.7955 10.8978 18.983L14.2611 21.0104L12.2337 21.7604C11.8939 21.8893 11.9525 22.276 12.3158 22.2994L14.5658 22.4635L11.5189 24.526C11.2376 24.7135 11.3431 25.1705 11.7533 25.065L15.6087 24.1979L15.6439 27.4557C15.6439 27.7838 15.9603 27.8189 16.1009 27.5846L18.5853 23.5064L22.7455 27.2564C23.0501 27.526 23.4251 27.2447 23.2259 26.8697L20.765 22.2525L23.2728 21.5143C23.4955 21.4439 23.4955 21.1744 23.2962 21.0807L21.058 20.1783L22.6517 15.6432C22.7572 15.3619 22.4642 15.1158 22.2181 15.3619L19.6283 17.8111L19.0072 15.4088C18.9134 15.0807 18.5736 15.0689 18.5033 15.4088Z" fill="black" fill-opacity="0.85"/>
</svg>
