<svg width="28" height="28" viewBox="0 0 28 28" fill="none" xmlns="http://www.w3.org/2000/svg">
<path d="M13.9531 25.918C20.4922 25.918 25.9062 20.5039 25.9062 13.9648C25.9062 7.4375 20.4805 2.01172 13.9414 2.01172C7.41406 2.01172 2 7.4375 2 13.9648C2 20.5039 7.42578 25.918 13.9531 25.918Z" fill="black" fill-opacity="0.85"/>
<path d="M8.75 16.8594C7.32031 16.8594 6.35938 15.9336 6.35938 14.668C6.35938 13.6367 6.99219 12.8398 7.90625 12.5234C8.10547 10.7187 9.65234 9.27734 11.4922 9.27734C12.875 9.27734 14.0352 10.0391 14.6914 11.2461C16.3555 11.2812 17.6094 12.4766 17.6094 14.0352C17.6094 15.6289 16.3672 16.8594 14.7383 16.8594H8.75ZM21.582 10.9531C21.582 11.9609 20.3867 13.5078 18.4414 13.6953C18.2773 11.9844 16.9648 10.6602 15.1719 10.4375C15.0547 10.2852 14.9375 10.1211 14.8086 9.96875C15.0078 8.30469 16.4375 6.96875 17.5742 6.91016C17.7969 6.91016 17.9375 7.01562 17.9375 7.20312C17.9375 7.49609 17.5156 8.04688 17.5156 8.79688C17.5156 10.0977 18.4062 10.9297 19.8242 10.9297C20.5977 10.9297 21.043 10.5781 21.3125 10.5781C21.4883 10.5781 21.582 10.7187 21.582 10.9531ZM10.2852 19.543L11.082 17.6914C11.1406 17.5625 11.2227 17.5156 11.3984 17.5156H12.7109C12.8633 17.5156 12.9102 17.6211 12.8398 17.7734L12.2656 18.8633H13.4844C13.6719 18.8633 13.7305 19.0391 13.6016 19.1797L10.9297 21.8984C10.7891 22.0156 10.6133 21.9219 10.6719 21.7695L11.4805 19.8125H10.4375C10.2852 19.8125 10.2148 19.6953 10.2852 19.543Z" fill="white"/>
</svg>
