<svg width="28" height="28" viewBox="0 0 28 28" fill="none" xmlns="http://www.w3.org/2000/svg">
<path d="M3.31641 4.04295L6.45703 6.38669C7.08984 6.85544 7.88672 6.60935 7.88672 5.76559V4.11325H21V5.76559C21 6.58592 21.7734 6.87888 22.4297 6.38669L25.5703 4.04295C25.9922 3.71482 25.9805 3.10544 25.5703 2.80076L22.4297 0.468725C21.7734 -0.0234626 21 0.269506 21 1.07809V2.75389H7.88672V1.07809C7.88672 0.269506 7.11328 -0.0234626 6.45703 0.468725L3.31641 2.80076C2.89453 3.11717 2.89453 3.71482 3.31641 4.04295Z" fill="black" fill-opacity="0.85"/>
<path d="M22.7695 10.4531V26.2969C22.7695 26.8008 23.1562 27.1992 23.6484 27.1992C24.1523 27.1992 24.5391 26.8008 24.5391 26.2969V10.4531C24.5391 9.96094 24.1523 9.57422 23.6484 9.57422C23.1562 9.57422 22.7695 9.96094 22.7695 10.4531ZM16.6289 10.4531V26.2969C16.6289 26.8008 17.0156 27.1992 17.5078 27.1992C18.0117 27.1992 18.3984 26.8008 18.3984 26.2969V10.4531C18.3984 9.96094 18.0117 9.57422 17.5078 9.57422C17.0156 9.57422 16.6289 9.96094 16.6289 10.4531ZM10.4883 10.4531V26.2969C10.4883 26.8008 10.875 27.1992 11.3789 27.1992C11.8711 27.1992 12.2578 26.8008 12.2578 26.2969V10.4531C12.2578 9.96094 11.8711 9.57422 11.3789 9.57422C10.875 9.57422 10.4883 9.96094 10.4883 10.4531ZM4.34766 10.4531V18.7852C4.34766 19.2891 4.73438 19.6875 5.23828 19.6875C5.73047 19.6875 6.11719 19.2891 6.11719 18.7852V10.4531C6.11719 9.96094 5.73047 9.57422 5.23828 9.57422C4.73438 9.57422 4.34766 9.96094 4.34766 10.4531Z" fill="black" fill-opacity="0.85"/>
</svg>
