<svg width="28" height="28" viewBox="0 0 28 28" fill="none" xmlns="http://www.w3.org/2000/svg">
<g clip-path="url(#clip0_2124_32150)">
<path d="M3.64062 26.8828C3.64062 27.75 4.30859 28.4297 5.1875 28.4297H6.57031C7.44922 28.4297 8.12891 27.75 8.12891 26.8828V24.9375C10.4375 25.0898 12.3477 25.1836 14.2461 25.1836C16.1445 25.1836 18.043 25.1016 20.3633 24.9375V26.8828C20.3633 27.75 21.0312 28.4297 21.9102 28.4297H23.293C24.1719 28.4297 24.8516 27.75 24.8516 26.8828V2.98828C24.8516 1.48828 23.9609 0.609375 22.3672 0.433594C19.8945 0.140625 17.0586 0 14.2461 0C11.4453 0 8.62109 0.140625 6.11328 0.433594C4.51953 0.609375 3.64062 1.48828 3.64062 2.98828V26.8828ZM5.78516 9.43359V3.9375C5.78516 3.14062 6.21875 2.63672 6.94531 2.54297C9.38281 2.27344 11.8086 2.13281 14.2461 2.13281C16.6719 2.13281 19.1211 2.28516 21.5469 2.54297C22.2734 2.63672 22.707 3.14062 22.707 3.9375V9.43359H5.78516ZM5.78516 11.1445H22.707V16.3945C22.707 17.1914 22.2734 17.6953 21.5469 17.7773C19.1914 18.0469 16.707 18.1875 14.2461 18.1875C11.7734 18.1875 9.30078 18.0586 6.94531 17.7773C6.21875 17.6953 5.78516 17.1914 5.78516 16.3945V11.1445ZM7.96484 22.7461C7.17969 22.7461 6.55859 22.125 6.55859 21.3398C6.55859 20.543 7.17969 19.9336 7.96484 19.9336C8.76172 19.9336 9.37109 20.543 9.37109 21.3398C9.37109 22.125 8.76172 22.7461 7.96484 22.7461ZM12.207 22.3125C11.6445 22.3125 11.2227 21.8906 11.2227 21.3281C11.2227 20.7539 11.6328 20.3438 12.207 20.3438H16.2734C16.8594 20.3438 17.2695 20.7539 17.2695 21.3281C17.2695 21.8906 16.8477 22.3125 16.2734 22.3125H12.207ZM20.5273 22.7461C19.7305 22.7461 19.1211 22.125 19.1211 21.3398C19.1211 20.543 19.7305 19.9336 20.5273 19.9336C21.3125 19.9336 21.9336 20.543 21.9336 21.3398C21.9336 22.125 21.3125 22.7461 20.5273 22.7461ZM4.40234 13.8633V7.81641H3.11328C2.45703 7.81641 2 8.22656 2 8.84766V12.8438C2 13.4531 2.45703 13.8633 3.11328 13.8633H4.40234ZM24.0898 13.8633H25.3789C26.0352 13.8633 26.4922 13.4531 26.4922 12.8438V8.84766C26.4922 8.22656 26.0352 7.81641 25.3789 7.81641H24.0898V13.8633Z" fill="black" fill-opacity="0.85"/>
</g>
<defs>
<clipPath id="clip0_2124_32150">
<rect width="28" height="28" fill="white"/>
</clipPath>
</defs>
</svg>
