<svg width="28" height="28" viewBox="0 0 28 28" fill="none" xmlns="http://www.w3.org/2000/svg">
<path d="M15.0195 21.2188C16.0391 21.2188 16.6602 20.2812 16.6602 18.0781C16.6602 16.2383 18.6875 14.6211 19.4492 14.6211C20.5039 14.6211 20.7383 18.0078 24.1836 18.1484C24.6406 16.7773 24.9688 15.3594 24.9453 13.9531C24.8398 7.37891 19.3555 2.76172 13.9297 2.83203C11.7969 2.85547 9.73438 3.54688 7.88281 4.90625C8.53906 5.84375 8.66797 5.92578 8.66797 6.27734C8.66797 6.71094 7.82422 6.85156 7.68359 7.61328C7.58984 8.08203 7.26172 8.42188 6.86328 8.42188C6.41797 8.42188 5.80859 7.96484 5.66797 6.80469C3.83984 8.57422 2.9375 11.1055 2.9375 13.9297C2.9375 15.8984 3.45312 17.8555 4.68359 19.7539C6.59375 19.4258 7.21484 18.6758 7.21484 17.2109C7.21484 15.7695 8.35156 15.7227 8.35156 14.5391C8.35156 14.0352 7.84766 13.6602 6.875 12.8398L6.10156 12.1953C5.96094 12.0781 5.90234 11.9258 5.90234 11.7617C5.90234 11.457 6.125 11.1641 6.46484 11.1641C6.6875 11.1641 6.82812 11.3047 7.41406 11.8086C8.24609 12.5117 8.63281 12.8516 9.10156 12.8516C9.59375 12.8516 9.80469 12.5234 10.1328 12.5234C10.4023 12.5234 10.5664 12.6875 10.6836 13.0039L11.082 14.082C11.5391 15.4062 12.6055 15.2305 12.8516 16.6484C13.4258 20.1172 13.9414 21.2188 15.0195 21.2188ZM13.9531 25.9062C20.4922 25.9062 25.9062 20.4805 25.9062 13.9531C25.9062 7.41406 20.4805 2 13.9414 2C7.41406 2 2 7.41406 2 13.9531C2 20.4805 7.42578 25.9062 13.9531 25.9062ZM13.9531 24.3125C8.29297 24.3125 3.59375 19.6133 3.59375 13.9531C3.59375 8.29297 8.28125 3.59375 13.9414 3.59375C19.6016 3.59375 24.3125 8.29297 24.3125 13.9531C24.3125 19.6133 19.6133 24.3125 13.9531 24.3125Z" fill="black" fill-opacity="0.85"/>
</svg>
