<svg width="28" height="28" viewBox="0 0 28 28" fill="none" xmlns="http://www.w3.org/2000/svg">
<g clip-path="url(#clip0_2124_24786)">
<path d="M16.4688 2C11.2773 2 7 7.96484 7 15.2891C7 18.7344 7.91406 22.543 9.03906 22.543C9.90625 22.543 10.6094 21.3945 10.7031 20.2344C8.99219 19.7305 7.72656 18.1484 7.72656 16.2969C7.72656 15.1719 8.16016 14.1758 8.94531 13.3789C9.33203 8.33984 12.6016 3.89844 16.3633 3.89844C18.6133 3.89844 19.6445 5.58594 19.6445 8.70312L10.668 13.3906C9.35547 14.0703 8.75781 15.1484 8.75781 16.2969C8.75781 17.9727 10.1406 19.3555 11.8164 19.3555C12.6367 19.3555 13.1875 19.1445 14.3477 18.5234L18.8828 16.0391C20.8516 14.9492 21.5547 13.625 21.5547 10.8477V8.375C21.5547 4.47266 19.832 2 16.4688 2ZM11.7461 18.2188C10.668 18.2188 9.80078 17.3398 9.80078 16.2852C9.80078 15.2188 10.668 14.3516 11.7461 14.3516C12.8008 14.3516 13.668 15.2188 13.668 16.2852C13.668 17.3398 12.8008 18.2188 11.7461 18.2188ZM11.7461 17.4688C12.3789 17.4688 12.918 16.9297 12.918 16.2852C12.918 15.6406 12.3789 15.1016 11.7461 15.1016C11.0898 15.1016 10.5625 15.6406 10.5625 16.2852C10.5625 16.9297 11.0898 17.4688 11.7461 17.4688ZM8.55859 26.3984H9.63672V22.0977H8.55859V26.3984Z" fill="black" fill-opacity="0.85"/>
</g>
<defs>
<clipPath id="clip0_2124_24786">
<rect width="14.5547" height="24.4102" fill="white" transform="translate(7 2)"/>
</clipPath>
</defs>
</svg>
