<svg width="29" height="29" viewBox="0 0 29 29" fill="none" xmlns="http://www.w3.org/2000/svg">
<g clip-path="url(#clip0_2124_45743)">
<path d="M13.9648 25.9473C20.5039 25.9473 25.9179 20.5332 25.9179 13.9941C25.9179 7.4668 20.4922 2.04102 13.9531 2.04102C7.42578 2.04102 2.01172 7.4668 2.01172 13.9941C2.01172 20.5332 7.4375 25.9473 13.9648 25.9473Z" fill="black" fill-opacity="0.85"/>
<path d="M8.44531 20.1348C7.95313 20.1348 7.73047 19.8184 7.73047 19.3731C7.73047 18.0605 9.72266 14.627 13.9648 14.627C18.207 14.627 20.1992 18.0605 20.1992 19.3731C20.1992 19.8184 19.9765 20.1348 19.4844 20.1348H8.44531ZM13.9648 13.6309C12.2539 13.6191 10.8594 12.1777 10.8594 10.2324C10.8594 8.42773 12.2539 6.92773 13.9648 6.92773C15.6758 6.92773 17.0703 8.42773 17.0703 10.2324C17.0703 12.1777 15.6758 13.6426 13.9648 13.6309Z" fill="white"/>
</g>
<defs>
<clipPath id="clip0_2124_45743">
<rect width="23.9062" height="23.918" fill="white" transform="translate(2.01172 2.0293)"/>
</clipPath>
</defs>
</svg>
