<svg width="28" height="28" viewBox="0 0 28 28" fill="none" xmlns="http://www.w3.org/2000/svg">
<g clip-path="url(#clip0_2124_24781)">
<path d="M16.4531 3C10.7227 3 6 9.58594 6 17.6602C6 21.457 7.01953 25.6523 8.25 25.6523C9.19922 25.6523 9.98438 24.3867 10.0781 23.1094C8.19141 22.5586 6.79688 20.8125 6.79688 18.7617C6.79688 17.5312 7.27734 16.4297 8.15625 15.5625C8.57812 9.99609 12.1758 5.10938 16.3242 5.10938C18.8086 5.10938 19.9453 6.96094 19.9453 10.3945L10.043 15.5625C8.60156 16.3242 7.93359 17.4961 7.93359 18.7617C7.93359 20.6133 9.45703 22.1484 11.3086 22.1484C12.2227 22.1484 12.8203 21.9141 14.1094 21.2227L19.0898 18.4805C21.2695 17.2852 22.043 15.832 22.043 12.7617V10.0312C22.043 5.71875 20.1445 3 16.4531 3ZM11.2266 20.8828C10.043 20.8828 9.09375 19.9219 9.09375 18.75C9.09375 17.5781 10.043 16.6172 11.2266 16.6172C12.3984 16.6172 13.3594 17.5781 13.3594 18.75C13.3594 19.9219 12.3984 20.8828 11.2266 20.8828ZM11.2266 20.0508C11.9414 20.0508 12.5273 19.4648 12.5273 18.75C12.5273 18.0469 11.9414 17.4492 11.2266 17.4492C10.5 17.4492 9.92578 18.0469 9.92578 18.75C9.92578 19.4648 10.5 20.0508 11.2266 20.0508Z" fill="black" fill-opacity="0.85"/>
</g>
<defs>
<clipPath id="clip0_2124_24781">
<rect width="16.043" height="22.6758" fill="white" transform="translate(6 3)"/>
</clipPath>
</defs>
</svg>
