<svg width="28" height="28" viewBox="0 0 28 28" fill="none" xmlns="http://www.w3.org/2000/svg">
<path d="M13.9531 25.9062C20.4922 25.9062 25.9062 20.4805 25.9062 13.9531C25.9062 7.41406 20.4805 2 13.9414 2C7.41406 2 2 7.41406 2 13.9531C2 20.4805 7.42578 25.9062 13.9531 25.9062Z" fill="black" fill-opacity="0.85"/>
<path d="M8.85547 19.4141C8.38672 19.4141 8.05859 19.0977 8.05859 18.6289V9.53516C8.05859 8.87891 8.38672 8.43359 8.98438 8.43359H10.9414C12.9805 8.43359 13.9414 9.54688 13.9414 11.4922C13.9414 12.7578 13.4023 14.0352 12.3828 14.4219L13.9531 18.3242C14.2227 19.0273 13.707 19.4141 13.1797 19.4141C12.875 19.4141 12.582 19.2734 12.4531 18.9219L10.8477 14.7266C10.7539 14.7383 10.6836 14.7383 10.6016 14.7383H9.65234V18.6289C9.65234 19.0977 9.32422 19.4141 8.85547 19.4141ZM9.65234 13.5078H10.7656C11.8555 13.5078 12.3242 12.6992 12.3242 11.5508C12.3242 10.4141 11.832 9.72266 10.7539 9.72266H9.65234V13.5078ZM17.9023 20.2344C17.6211 20.2344 17.3984 20 17.3984 19.7188V18.8984C15.9922 18.7344 15.125 17.8438 14.9492 16.5898C14.8555 15.9688 15.2422 15.6172 15.6641 15.6172C15.9922 15.6172 16.2734 15.8281 16.3203 16.2266C16.3906 16.9531 16.7305 17.4453 17.3984 17.5742V14.4805L16.9766 14.2695C15.7109 13.6133 14.9492 12.793 14.9492 11.4805C14.9492 10.0625 15.957 9.07812 17.3984 8.92578V8.12891C17.3984 7.85938 17.6211 7.625 17.9023 7.625C18.1719 7.625 18.4062 7.85938 18.4062 8.12891V8.9375C19.7188 9.13672 20.5156 10.0391 20.6562 11.2109C20.7617 11.8906 20.3516 12.1953 19.9297 12.1953C19.6016 12.1953 19.2969 11.9727 19.2617 11.5742C19.2148 10.9531 18.9219 10.4609 18.4062 10.2852V13.2969L18.8047 13.5195C20.2109 14.2812 20.8555 15.1016 20.8555 16.2617C20.8555 17.7617 19.8711 18.7344 18.4062 18.9102V19.7188C18.4062 20 18.1719 20.2344 17.9023 20.2344ZM17.3984 10.2383C16.8125 10.3789 16.4492 10.8008 16.4492 11.4219C16.4492 12.0664 16.8594 12.4414 17.3398 12.7227L17.3984 12.7578V10.2383ZM18.4062 17.5742C19.0273 17.4453 19.3789 16.9883 19.3789 16.3672C19.3789 15.8047 18.9688 15.3711 18.4414 15.043L18.4062 15.0312V17.5742Z" fill="white"/>
</svg>
