<svg width="28" height="28" viewBox="0 0 28 28" fill="none" xmlns="http://www.w3.org/2000/svg">
<path d="M13.9531 25.9062C20.4922 25.9062 25.9062 20.4805 25.9062 13.9531C25.9062 7.41406 20.4805 2 13.9414 2C7.41406 2 2 7.41406 2 13.9531C2 20.4805 7.42578 25.9062 13.9531 25.9062ZM13.9531 23.9141C8.42188 23.9141 4.00391 19.4844 4.00391 13.9531C4.00391 8.42188 8.41016 3.99219 13.9414 3.99219C19.4727 3.99219 23.9141 8.42188 23.9141 13.9531C23.9141 19.4844 19.4844 23.9141 13.9531 23.9141Z" fill="black" fill-opacity="0.85"/>
<path d="M9.37109 18.6992H12.7461C13.1328 18.6992 13.4492 18.3828 13.4492 17.9844C13.4492 17.5977 13.1328 17.2812 12.7461 17.2812H10.2383V9.92188C10.2383 9.46484 9.85156 9.07812 9.38281 9.07812C8.92578 9.07812 8.53906 9.46484 8.53906 9.92188V17.8203C8.53906 18.3711 8.83203 18.6992 9.37109 18.6992ZM15.1836 18.6875H19.25C19.6602 18.6875 19.918 18.418 19.918 18.0078C19.918 17.5625 19.6484 17.3164 19.25 17.3164H16.4727V17.2227L18.1719 15.0547C19.3555 13.6016 19.7422 12.7344 19.7422 11.7031C19.7422 10.1211 18.6641 8.97266 17.0469 8.97266C15.5469 8.97266 14.4102 10.2148 14.4102 11.4336C14.4102 11.8672 14.6562 12.1719 15.1133 12.1719C15.5 12.1719 15.7344 11.9961 15.8516 11.6094C16.0742 10.8242 16.3672 10.332 17.0352 10.332C17.7383 10.332 18.1367 10.9531 18.1367 11.7852C18.1367 12.7227 17.4805 13.6719 16.8594 14.4688L14.832 17.0703C14.6094 17.3516 14.3867 17.6445 14.3867 18.0078C14.3867 18.4062 14.6445 18.6875 15.1836 18.6875Z" fill="black" fill-opacity="0.85"/>
</svg>
