<svg width="28" height="28" viewBox="0 0 28 28" fill="none" xmlns="http://www.w3.org/2000/svg">
<path d="M13.9531 25.9062C20.4922 25.9062 25.9062 20.4805 25.9062 13.9531C25.9062 7.41406 20.4805 2 13.9414 2C7.41406 2 2 7.41406 2 13.9531C2 20.4805 7.42578 25.9062 13.9531 25.9062ZM13.9531 23.9141C8.42188 23.9141 4.00391 19.4844 4.00391 13.9531C4.00391 8.42188 8.41016 3.99219 13.9414 3.99219C19.4727 3.99219 23.9141 8.42188 23.9141 13.9531C23.9141 19.4844 19.4844 23.9141 13.9531 23.9141Z" fill="black" fill-opacity="0.85"/>
<path d="M10.2734 15.4414H17.2461C19.0742 15.4414 20.457 14.0469 20.457 12.3125C20.457 10.5195 18.9922 9.21875 17.0938 9.21875C16.3906 7.83594 15.0898 6.92188 13.4727 6.92188C11.3516 6.92188 9.61719 8.58594 9.41797 10.6836C8.41016 10.9766 7.625 11.8555 7.625 13.0391C7.625 14.3633 8.59766 15.4414 10.2734 15.4414ZM9.86328 17.9023H18.043C18.3359 17.9023 18.582 17.668 18.582 17.3633C18.582 17.0703 18.3359 16.8359 18.043 16.8359H9.86328C9.57031 16.8359 9.33594 17.0703 9.33594 17.3633C9.33594 17.668 9.57031 17.9023 9.86328 17.9023ZM9.86328 20.2812H18.043C18.3359 20.2812 18.582 20.0469 18.582 19.7539C18.582 19.4609 18.3359 19.2266 18.043 19.2266H9.86328C9.57031 19.2266 9.33594 19.4609 9.33594 19.7539C9.33594 20.0469 9.57031 20.2812 9.86328 20.2812Z" fill="black" fill-opacity="0.85"/>
</svg>
