<svg width="28" height="28" viewBox="0 0 28 28" fill="none" xmlns="http://www.w3.org/2000/svg">
<path d="M14.6094 24.1445C14.7852 24.6016 15.1836 24.8945 15.6055 24.8945C16.2969 24.8945 16.8242 24.3906 16.8242 23.6992C16.8242 23.3477 16.625 22.8906 16.5078 22.5859L12.9805 13.6094V15.2734L16.5078 6.29688C16.625 5.99219 16.8242 5.52344 16.8242 5.18359C16.8242 4.50391 16.2969 4 15.6055 4C15.1836 4 14.7852 4.28125 14.6094 4.73828L11.4688 12.7305C11.2578 13.2695 11 13.9258 11 14.4414C11 14.957 11.2578 15.6133 11.4688 16.1523L14.6094 24.1445Z" fill="black" fill-opacity="0.85"/>
</svg>
