<svg width="42" height="28" viewBox="0 0 42 28" fill="none" xmlns="http://www.w3.org/2000/svg">
<g clip-path="url(#clip0_2124_88691)">
<path d="M4.52344 22.1211C4.89844 21.6992 4.78125 21.1484 4.35938 20.668C2.78906 18.9219 1.91016 16.625 1.91016 14.1055C1.91016 11.5859 2.78906 9.28907 4.35938 7.54298C4.78125 7.06251 4.89844 6.51173 4.52344 6.08985C4.14844 5.64454 3.49219 5.65626 3.04688 6.14845C1.10156 8.25782 0 11.0703 0 14.1055C0 17.1406 1.10156 19.9414 3.04688 22.0625C3.49219 22.5547 4.14844 22.5547 4.52344 22.1211ZM37.2773 22.1211C37.6523 22.5547 38.3086 22.5547 38.7539 22.0625C40.6992 19.9414 41.8008 17.1406 41.8008 14.1055C41.8008 11.0703 40.6992 8.25782 38.7539 6.14845C38.3086 5.65626 37.6523 5.64454 37.2773 6.08985C36.9023 6.51173 37.0195 7.06251 37.4414 7.54298C39.0117 9.28907 39.8906 11.5859 39.8906 14.1055C39.8906 16.625 39.0117 18.9219 37.4414 20.668C37.0195 21.1484 36.9023 21.6992 37.2773 22.1211Z" fill="black" fill-opacity="0.85"/>
<path d="M7.80469 18.7812C8.17969 18.3594 8.02734 17.832 7.65234 17.3281C6.94922 16.4492 6.60938 15.3242 6.60938 14.1055C6.60938 12.8867 6.94922 11.75 7.65234 10.8828C8.02734 10.3789 8.17969 9.85153 7.80469 9.42966C7.41797 8.98435 6.71484 8.98435 6.30469 9.51169C5.28516 10.7773 4.69922 12.3828 4.69922 14.1055C4.69922 15.8281 5.28516 17.4336 6.30469 18.6992C6.71484 19.2266 7.41797 19.2148 7.80469 18.7812ZM33.9844 18.7812C34.3828 19.2148 35.0742 19.2266 35.4961 18.6992C36.5156 17.4336 37.1016 15.8281 37.1016 14.1055C37.1016 12.3828 36.5156 10.7773 35.4961 9.51169C35.0742 8.98435 34.3828 8.98435 33.9844 9.42966C33.6211 9.85153 33.7734 10.3789 34.1484 10.8828C34.8398 11.75 35.1914 12.8867 35.1914 14.1055C35.1914 15.3242 34.8398 16.4492 34.1484 17.3281C33.7734 17.832 33.6211 18.3594 33.9844 18.7812Z" fill="black" fill-opacity="0.85"/>
<path d="M9.84375 20.5508C9.84375 21.4062 10.5 21.9688 11.6133 21.9688H16.5586C16.6523 24.2305 18.4219 26.2109 20.8945 26.2109C23.3789 26.2109 25.1484 24.2422 25.2422 21.9688H30.1875C31.2891 21.9688 31.957 21.4062 31.957 20.5508C31.957 19.3789 30.7617 18.3242 29.7539 17.2812C28.9805 16.4727 28.7695 14.8086 28.6758 13.4609C28.5938 8.84375 27.3984 5.86719 24.2812 4.74219C23.8828 3.20703 22.6289 2 20.8945 2C19.1719 2 17.9062 3.20703 17.5195 4.74219C14.4023 5.86719 13.207 8.84375 13.125 13.4609C13.0312 14.8086 12.8203 16.4727 12.0469 17.2812C11.0273 18.3242 9.84375 19.3789 9.84375 20.5508ZM12.1172 20.1992V20.0586C12.3281 19.7188 13.0312 19.0273 13.6406 18.3477C14.4844 17.4102 14.8828 15.8984 14.9883 13.6133C15.082 8.49219 16.6055 6.86328 18.6094 6.3125C18.9023 6.24219 19.0664 6.10156 19.0781 5.79688C19.1133 4.57812 19.8164 3.72266 20.8945 3.72266C21.9844 3.72266 22.6758 4.57812 22.7227 5.79688C22.7344 6.10156 22.8867 6.24219 23.1914 6.3125C25.1953 6.86328 26.7188 8.49219 26.8125 13.6133C26.918 15.8984 27.3164 17.4102 28.1484 18.3477C28.7695 19.0273 29.4609 19.7188 29.6719 20.0586V20.1992H12.1172ZM18.3867 21.9688H23.4141C23.332 23.5625 22.3125 24.5586 20.8945 24.5586C19.4883 24.5586 18.4688 23.5625 18.3867 21.9688Z" fill="black" fill-opacity="0.85"/>
</g>
<defs>
<clipPath id="clip0_2124_88691">
<rect width="41.8008" height="24.2227" fill="white" transform="translate(0 2)"/>
</clipPath>
</defs>
</svg>
