<svg width="28" height="28" viewBox="0 0 28 28" fill="none" xmlns="http://www.w3.org/2000/svg">
<path d="M13.9531 25.9062C20.4922 25.9062 25.9062 20.4805 25.9062 13.9531C25.9062 7.41406 20.4805 2 13.9414 2C7.41406 2 2 7.41406 2 13.9531C2 20.4805 7.42578 25.9062 13.9531 25.9062ZM13.9531 23.9141C8.42188 23.9141 4.00391 19.4844 4.00391 13.9531C4.00391 8.42188 8.41016 3.99219 13.9414 3.99219C19.4727 3.99219 23.9141 8.42188 23.9141 13.9531C23.9141 19.4844 19.4844 23.9141 13.9531 23.9141Z" fill="black" fill-opacity="0.85"/>
<path d="M10.2617 16.8594C10.7773 16.8594 11.1172 16.4961 11.1172 15.9453V13.918L10.9414 12.0898L12.6289 13.8945L16.9414 18.207C17.1055 18.3711 17.3281 18.4766 17.6094 18.4766C18.125 18.4766 18.4766 18.1367 18.4766 17.6094C18.4766 17.375 18.3594 17.1406 18.1953 16.9766L13.8711 12.6523L12.043 10.9531L13.7773 11.1406H15.9102C16.4727 11.1406 16.8359 10.8008 16.8359 10.2852C16.8359 9.76953 16.4844 9.42969 15.9336 9.42969H10.3789C9.78125 9.42969 9.39453 9.69922 9.39453 10.3906V15.9219C9.39453 16.4609 9.74609 16.8594 10.2617 16.8594Z" fill="black" fill-opacity="0.85"/>
</svg>
