<svg width="32" height="28" viewBox="0 0 32 28" fill="none" xmlns="http://www.w3.org/2000/svg">
<path d="M27.5508 24.3438H30.3984C31.125 24.3438 31.6172 23.8281 31.6172 23.0664V5.27734C31.6172 4.51563 31.125 4 30.3984 4H27.5508C26.8242 4 26.3203 4.51563 26.3203 5.27734V23.0664C26.3203 23.8281 26.8242 24.3438 27.5508 24.3438Z" fill="black" fill-opacity="0.85"/>
<path d="M18.7852 24.3438H21.6094C22.3359 24.3438 22.8398 23.8281 22.8398 23.0664V9.90625C22.8398 9.14453 22.3359 8.62891 21.6094 8.62891H18.7852C18.0469 8.62891 17.5547 9.14453 17.5547 9.90625V23.0664C17.5547 23.8281 18.0469 24.3438 18.7852 24.3438Z" fill="black" fill-opacity="0.85"/>
<path d="M10.0078 24.3438H12.832C13.5703 24.3438 14.0625 23.8281 14.0625 23.0664V14.1484C14.0625 13.3867 13.5703 12.8711 12.832 12.8711H10.0078C9.26953 12.8711 8.77734 13.3867 8.77734 14.1484V23.0664C8.77734 23.8281 9.26953 24.3438 10.0078 24.3438Z" fill="black" fill-opacity="0.85"/>
<path d="M1.23047 24.3438H4.05469C4.79297 24.3438 5.28516 23.8281 5.28516 23.0664V17.8047C5.28516 17.043 4.79297 16.5391 4.05469 16.5391H1.23047C0.492188 16.5391 0 17.043 0 17.8047V23.0664C0 23.8281 0.492188 24.3438 1.23047 24.3438Z" fill="black" fill-opacity="0.85"/>
</svg>
