<svg width="28" height="28" viewBox="0 0 28 28" fill="none" xmlns="http://www.w3.org/2000/svg">
<path d="M13.9531 25.9062C20.4922 25.9062 25.9062 20.4805 25.9062 13.9531C25.9062 7.41406 20.4805 2 13.9414 2C7.41406 2 2 7.41406 2 13.9531C2 20.4805 7.42578 25.9062 13.9531 25.9062ZM13.9531 23.9141C8.42188 23.9141 4.00391 19.4844 4.00391 13.9531C4.00391 8.42188 8.41016 3.99219 13.9414 3.99219C19.4727 3.99219 23.9141 8.42188 23.9141 13.9531C23.9141 19.4844 19.4844 23.9141 13.9531 23.9141Z" fill="black" fill-opacity="0.85"/>
<path d="M13.918 19.5312C16.4141 19.5312 18.1133 18.2422 18.1133 16.3555C18.1133 15.0547 17.1523 13.9766 15.7578 13.6953V13.625C16.918 13.2852 17.6562 12.3477 17.6562 11.2109C17.6562 9.53516 16.1211 8.375 13.9414 8.375C11.7617 8.375 10.2266 9.53516 10.2266 11.2109C10.2266 12.3477 10.9414 13.2617 12.125 13.625V13.6953C10.7188 13.9766 9.78125 15.0664 9.78125 16.3672C9.78125 18.2656 11.4336 19.5312 13.918 19.5312ZM13.9531 18.2422C12.5703 18.2422 11.5625 17.4219 11.5625 16.2734C11.5625 15.1602 12.582 14.3281 13.9531 14.3281C15.3477 14.3281 16.3438 15.1484 16.3438 16.2734C16.3438 17.4219 15.3242 18.2422 13.9531 18.2422ZM13.9414 13.0977C12.7812 13.0977 11.9492 12.3711 11.9492 11.3633C11.9492 10.3789 12.7695 9.66406 13.9414 9.66406C15.1133 9.66406 15.9336 10.3789 15.9336 11.3633C15.9336 12.3711 15.1016 13.0977 13.9414 13.0977Z" fill="black" fill-opacity="0.85"/>
</svg>
