<svg width="29" height="28" viewBox="0 0 29 28" fill="none" xmlns="http://www.w3.org/2000/svg">
<g clip-path="url(#clip0_2124_50135)">
<path d="M0.9375 26.8672C1.46484 26.8672 1.88672 26.4453 1.88672 25.9297V4.50781C1.88672 4.13281 2.13281 3.88672 2.48438 3.88672H26.168C26.5195 3.88672 26.7656 4.13281 26.7656 4.50781V25.9297C26.7656 26.4453 27.1875 26.8672 27.7031 26.8672C28.2305 26.8672 28.6523 26.4453 28.6523 25.9297V4.39062C28.6523 2.96094 27.668 2 26.1914 2H2.44922C0.984375 2 0 2.96094 0 4.39062V25.9297C0 26.4453 0.421875 26.8672 0.9375 26.8672Z" fill="black" fill-opacity="0.85"/>
<path d="M3.65625 26.4688H13.2422C13.4648 26.4688 13.6406 26.293 13.6406 26.0703V5.66797C13.6406 5.44531 13.4648 5.26953 13.2422 5.26953H3.65625C3.43359 5.26953 3.25781 5.44531 3.25781 5.66797V26.0703C3.25781 26.293 3.43359 26.4688 3.65625 26.4688ZM5.26172 11.5859C5.09766 11.5859 4.98047 11.4688 4.98047 11.2813V7.29688C4.98047 7.10938 5.09766 6.99219 5.26172 6.99219H11.6367C11.8008 6.99219 11.918 7.10938 11.918 7.29688V11.2813C11.918 11.4688 11.8008 11.5859 11.6367 11.5859H5.26172ZM5.26172 18.1602C5.09766 18.1602 4.98047 18.043 4.98047 17.8555V13.8711C4.98047 13.6836 5.09766 13.5781 5.26172 13.5781H11.6367C11.8008 13.5781 11.918 13.6836 11.918 13.8711V17.8555C11.918 18.043 11.8008 18.1602 11.6367 18.1602H5.26172ZM5.26172 24.7461C5.09766 24.7461 4.98047 24.6289 4.98047 24.4414V20.457C4.98047 20.2695 5.09766 20.1641 5.26172 20.1641H11.6367C11.8008 20.1641 11.918 20.2695 11.918 20.457V24.4414C11.918 24.6289 11.8008 24.7461 11.6367 24.7461H5.26172ZM15.3984 26.457H24.9961C25.2188 26.457 25.3945 26.2695 25.3945 26.0586V5.64453C25.3945 5.42188 25.2188 5.24609 24.9961 5.24609H15.3984C15.1875 5.24609 15.0117 5.42188 15.0117 5.64453V26.0586C15.0117 26.2695 15.1875 26.457 15.3984 26.457ZM17.0156 11.5625C16.8516 11.5625 16.7344 11.4453 16.7344 11.2578V7.27344C16.7344 7.08594 16.8516 6.98047 17.0156 6.98047H23.3906C23.5547 6.98047 23.6602 7.08594 23.6602 7.27344V11.2578C23.6602 11.4453 23.5547 11.5625 23.3906 11.5625H17.0156ZM17.0156 18.1367C16.8516 18.1367 16.7344 18.0195 16.7344 17.8438V13.8477C16.7344 13.6719 16.8516 13.5547 17.0156 13.5547H23.3906C23.5547 13.5547 23.6602 13.6719 23.6602 13.8477V17.8438C23.6602 18.0195 23.5547 18.1367 23.3906 18.1367H17.0156ZM17.0156 24.7227C16.8516 24.7227 16.7344 24.6055 16.7344 24.4297V20.4336C16.7344 20.2578 16.8516 20.1406 17.0156 20.1406H23.3906C23.5547 20.1406 23.6602 20.2578 23.6602 20.4336V24.4297C23.6602 24.6055 23.5547 24.7227 23.3906 24.7227H17.0156Z" fill="black" fill-opacity="0.85"/>
</g>
<defs>
<clipPath id="clip0_2124_50135">
<rect width="28.6523" height="24.8789" fill="white" transform="translate(0 2)"/>
</clipPath>
</defs>
</svg>
