<svg width="28" height="29" viewBox="0 0 28 29" fill="none" xmlns="http://www.w3.org/2000/svg">
<path d="M27.1084 21.7068C28.0694 18.2029 25.5264 16.6795 19.2452 16.6795C16.21 16.6795 13.0577 16.9842 10.6436 17.4881L11.0655 18.074C11.71 12.8357 10.1045 8.54668 6.57719 6.69511L6.91704 8.13652C8.28813 4.26933 5.85063 1.87871 3.61235 1.87871C1.92485 1.87871 0.471726 3.19121 1.18657 6.10918L5.59282 23.992C6.02641 25.7498 7.18657 26.6873 8.92094 26.6873H22.5967C25.0108 26.6873 26.0772 25.5271 27.1084 21.7068Z" fill="black" fill-opacity="0.85"/>
<path d="M10.5618 4.09355C10.4915 4.44511 10.6321 4.72636 10.9485 4.85527C11.3353 4.98418 11.7337 4.78496 11.8041 4.3748C12.0619 2.61699 11.1947 0.812301 9.75323 0.0974576C9.29619 -0.136918 8.93291 0.0857387 8.80401 0.402145C8.69854 0.706832 8.78057 1.04668 9.10869 1.22246C10.1751 1.71464 10.7259 2.86308 10.5618 4.09355ZM13.7728 13.035C13.6439 13.492 13.8783 13.785 14.183 13.867C14.5111 13.949 14.9095 13.7967 15.015 13.3982C15.6127 11.16 14.6752 7.87871 12.2259 6.71855C11.7806 6.50761 11.4408 6.67168 11.2884 6.94121C11.1478 7.22246 11.183 7.62089 11.6048 7.84355C13.6791 8.94511 14.2416 11.324 13.7728 13.035Z" fill="black" fill-opacity="0.85"/>
</svg>
