<svg width="28" height="28" viewBox="0 0 28 28" fill="none" xmlns="http://www.w3.org/2000/svg">
<path d="M6.67969 24.5977H20.8945C23.3555 24.5977 24.5742 23.3789 24.5742 20.9648V6.65625C24.5742 4.24219 23.3555 3.02344 20.8945 3.02344H6.67969C4.23047 3.02344 3 4.23047 3 6.65625V20.9648C3 23.3906 4.23047 24.5977 6.67969 24.5977ZM6.70312 22.7109C5.53125 22.7109 4.88672 22.0898 4.88672 20.8711V6.75C4.88672 5.53125 5.53125 4.91016 6.70312 4.91016H20.8711C22.0312 4.91016 22.6875 5.53125 22.6875 6.75V20.8711C22.6875 22.0898 22.0312 22.7109 20.8711 22.7109H6.70312Z" fill="black" fill-opacity="0.85"/>
<path d="M10.2656 18.7383C11.9414 18.7383 13.2422 17.6836 13.2422 15.9258C13.2422 14.4727 12.3633 13.7578 11.3789 13.6523V13.6172C12.4453 13.3359 12.9609 12.3867 12.9609 11.4023C12.9609 9.78516 11.7422 8.85938 10.2188 8.85938C9.01172 8.85938 7.95703 9.53906 7.62891 10.582C7.55859 10.8047 7.53516 11.0156 7.53516 11.2148C7.53516 11.6016 7.79297 11.9062 8.25 11.9062C8.66016 11.9062 8.88281 11.7539 9 11.3437C9.1875 10.6523 9.5625 10.2187 10.2188 10.2187C10.9922 10.2187 11.3672 10.8164 11.3672 11.5898C11.3672 12.4453 10.8867 13.0664 10.0078 13.0664H9.72656C9.32812 13.0664 9.08203 13.3125 9.08203 13.6992C9.08203 14.0859 9.33984 14.3086 9.72656 14.3086H10.0195C11.0156 14.3086 11.5664 14.8594 11.5664 15.8789C11.5664 16.6875 11.1328 17.3789 10.2656 17.3789C9.41016 17.3789 9.03516 16.8047 8.89453 16.2656C8.77734 15.8906 8.53125 15.6914 8.14453 15.6914C7.6875 15.6914 7.38281 15.9727 7.38281 16.4297C7.38281 16.6406 7.41797 16.8516 7.47656 17.0391C7.81641 18.1289 9 18.7383 10.2656 18.7383ZM17.3555 18.7383C19.043 18.7383 20.332 17.6836 20.332 15.9258C20.332 14.4727 19.4648 13.7578 18.4688 13.6523V13.6172C19.5352 13.3359 20.0508 12.3867 20.0508 11.4023C20.0508 9.78516 18.8438 8.85938 17.3203 8.85938C16.1016 8.85938 15.0586 9.53906 14.7188 10.582C14.6602 10.8047 14.6367 11.0156 14.6367 11.2148C14.6367 11.6016 14.8828 11.9062 15.3516 11.9062C15.75 11.9062 15.9844 11.7539 16.1016 11.3437C16.2891 10.6523 16.6523 10.2187 17.3203 10.2187C18.0938 10.2187 18.457 10.8164 18.457 11.5898C18.457 12.4453 17.9766 13.0664 17.0977 13.0664H16.8281C16.4297 13.0664 16.1719 13.3125 16.1719 13.6992C16.1719 14.0859 16.4297 14.3086 16.8281 14.3086H17.1211C18.1172 14.3086 18.668 14.8594 18.668 15.8789C18.668 16.6875 18.2344 17.3789 17.3672 17.3789C16.5117 17.3789 16.125 16.8047 15.9844 16.2656C15.8789 15.8906 15.6211 15.6914 15.2461 15.6914C14.7891 15.6914 14.4727 15.9727 14.4727 16.4297C14.4727 16.6406 14.5078 16.8516 14.5664 17.0391C14.9062 18.1289 16.1016 18.7383 17.3555 18.7383Z" fill="black" fill-opacity="0.85"/>
</svg>
