<svg width="28" height="28" viewBox="0 0 28 28" fill="none" xmlns="http://www.w3.org/2000/svg">
<g clip-path="url(#clip0_2124_24834)">
<path d="M11.7539 26.8867H16.6172C18.3516 26.8867 19.3594 25.8672 19.3594 24.1328V3.75391C19.3594 2.01953 18.3516 1 16.6172 1H11.7539C10.0078 1 9 2.01953 9 3.75391V24.1328C9 25.8672 10.0078 26.8867 11.7539 26.8867ZM14.1797 10.3984C12.1641 10.3984 10.5352 8.78125 10.5352 6.75391C10.5352 4.73828 12.1641 3.12109 14.1797 3.12109C16.207 3.12109 17.8359 4.73828 17.8359 6.75391C17.8359 8.78125 16.207 10.3984 14.1797 10.3984ZM12.375 13.9844C11.6484 13.9844 11.0625 13.3984 11.0625 12.6602C11.0625 11.9336 11.6367 11.3477 12.375 11.3477C13.1133 11.3477 13.7109 11.9336 13.7109 12.6602C13.7109 13.3984 13.1016 13.9844 12.375 13.9844ZM16.0078 13.9844C15.2578 13.9844 14.6602 13.3984 14.6602 12.6602C14.6602 11.9336 15.2578 11.3477 16.0078 11.3477C16.7344 11.3477 17.3086 11.9336 17.3086 12.6602C17.3086 13.3867 16.7227 13.9844 16.0078 13.9844ZM12.375 17.4648C11.6484 17.4648 11.0625 16.8789 11.0625 16.1523C11.0625 15.4258 11.6484 14.8281 12.375 14.8281C13.1133 14.8281 13.7109 15.4141 13.7109 16.1523C13.7109 16.8906 13.1133 17.4648 12.375 17.4648ZM12.375 20.957C11.6484 20.957 11.0625 20.3711 11.0625 19.6445C11.0625 18.9062 11.6484 18.2969 12.375 18.2969C13.1016 18.2969 13.7109 18.9062 13.7109 19.6445C13.7109 20.3828 13.1133 20.957 12.375 20.957ZM15.9844 20.957C15.3047 20.957 14.7422 20.3945 14.7422 19.7266V16.0703C14.7422 15.3789 15.293 14.8281 15.9844 14.8281C16.6758 14.8281 17.25 15.3906 17.25 16.0703V19.7266C17.25 20.4062 16.6758 20.957 15.9844 20.957Z" fill="black" fill-opacity="0.85"/>
</g>
<defs>
<clipPath id="clip0_2124_24834">
<rect width="10.3594" height="25.9102" fill="white" transform="translate(9 1)"/>
</clipPath>
</defs>
</svg>
