<svg width="28" height="28" viewBox="0 0 28 28" fill="none" xmlns="http://www.w3.org/2000/svg">
<g clip-path="url(#clip0_2124_88633)">
<path d="M13.9531 25.9062C20.4922 25.9062 25.9062 20.4805 25.9062 13.9531C25.9062 7.41406 20.4805 2 13.9414 2C7.41406 2 2 7.41406 2 13.9531C2 20.4805 7.42578 25.9062 13.9531 25.9062Z" fill="black" fill-opacity="0.85"/>
<path d="M12.6523 17.5977C9.88672 17.5977 7.625 15.3242 7.625 12.5703C7.625 9.80469 9.88672 7.53125 12.6523 7.53125C15.418 7.53125 17.6797 9.79297 17.6797 12.5703C17.6797 13.6016 17.3516 14.5742 16.8125 15.3594L19.918 18.4883C20.1172 18.6992 20.2461 18.957 20.2461 19.2266C20.2461 19.8359 19.8477 20.2695 19.2617 20.2695C18.9102 20.2695 18.6523 20.1523 18.4062 19.8945L15.3125 16.8125C14.5391 17.293 13.625 17.5977 12.6523 17.5977ZM12.6523 15.9453C14.4922 15.9453 16.0156 14.4102 16.0156 12.5703C16.0156 10.707 14.4922 9.18359 12.6523 9.18359C10.8008 9.18359 9.27734 10.7188 9.27734 12.5703C9.27734 14.4102 10.8008 15.9453 12.6523 15.9453Z" fill="white"/>
</g>
<defs>
<clipPath id="clip0_2124_88633">
<rect width="23.9062" height="23.918" fill="white" transform="translate(2 2)"/>
</clipPath>
</defs>
</svg>
