<svg width="28" height="28" viewBox="0 0 28 28" fill="none" xmlns="http://www.w3.org/2000/svg">
<path d="M13.9531 25.9062C20.4922 25.9062 25.9062 20.4805 25.9062 13.9531C25.9062 7.41406 20.4805 2 13.9414 2C7.41406 2 2 7.41406 2 13.9531C2 20.4805 7.42578 25.9062 13.9531 25.9062ZM13.9531 23.9141C8.42188 23.9141 4.00391 19.4844 4.00391 13.9531C4.00391 8.42188 8.41016 3.99219 13.9414 3.99219C19.4727 3.99219 23.9141 8.42188 23.9141 13.9531C23.9141 19.4844 19.4844 23.9141 13.9531 23.9141Z" fill="black" fill-opacity="0.85"/>
<path d="M10.0039 19.5312H17.2578C17.668 19.5312 17.9375 19.25 17.9375 18.8633C17.9375 18.4883 17.6562 18.2188 17.2578 18.2188H15.4648C12.875 18.2188 10.8711 16.2734 10.8711 13.7188C10.8711 12.1133 11.3984 10.9883 12.3594 10.4023V13.3789C12.3594 13.707 12.5938 13.9414 12.9219 13.9414C13.25 13.9414 13.4961 13.707 13.4961 13.3789V10.0039C13.6953 9.98047 13.9062 9.95703 14.082 9.95703C14.2695 9.95703 14.4336 9.98047 14.5742 10.0039V13.3789C14.5742 13.707 14.8203 13.9414 15.1484 13.9414C15.4766 13.9414 15.7109 13.707 15.7109 13.3789V10.4375C16.5547 11.0117 17.0938 12.0078 17.1172 13.3086C17.1289 13.7656 17.4102 14.082 17.8438 14.082C18.2539 14.082 18.5586 13.7656 18.5586 13.3203C18.5469 11.2578 17.4219 9.52344 15.7109 8.86719V7.78906C15.7109 7.44922 15.4766 7.21484 15.1484 7.21484C14.8203 7.21484 14.5742 7.44922 14.5742 7.78906V8.58594C14.4219 8.5625 14.2578 8.5625 14.0938 8.5625C13.9062 8.5625 13.6953 8.57422 13.4961 8.59766V7.78906C13.4961 7.44922 13.25 7.21484 12.9219 7.21484C12.5938 7.21484 12.3594 7.44922 12.3594 7.78906V8.83203C10.4961 9.5 9.37109 11.2227 9.37109 13.5547C9.37109 15.5586 10.3086 17.293 11.75 18.2188H10.0156C9.62891 18.2188 9.33594 18.4883 9.33594 18.8633C9.33594 19.2617 9.60547 19.5312 10.0039 19.5312Z" fill="black" fill-opacity="0.85"/>
</svg>
