<svg width="28" height="29" viewBox="0 0 28 29" fill="none" xmlns="http://www.w3.org/2000/svg">
<path d="M13.2347 7.48828C14.641 7.48828 15.7777 6.35156 15.7777 4.93359C15.7777 3.52734 14.641 2.39062 13.2347 2.39062C11.805 2.39062 10.6683 3.52734 10.6683 4.93359C10.6683 6.35156 11.805 7.48828 13.2347 7.48828ZM6.76597 28.4648C7.42222 28.582 8.0316 28.1484 8.1605 27.4688L9.27378 21.4805L13.9378 18.9492C14.0668 18.8672 14.1839 18.9023 14.2425 19.0312L16.598 24.7148C16.7386 25.0195 16.9496 25.2305 17.2191 25.3711L22.516 28.3125C23.1839 28.6992 23.8871 28.3828 24.1683 27.8555C24.5082 27.2812 24.2855 26.5195 23.6996 26.1914L18.766 23.4609L15.4261 10.0898C15.2269 9.29297 14.5355 8.71875 13.68 8.71875H6.51988L9.87144 1.59375C10.3285 0.632812 9.63706 0 8.93394 0C8.5355 0 8.14878 0.199219 7.94956 0.691406L4.08238 10.7695C3.89488 11.25 4.04722 11.6953 4.34019 11.9883L7.32847 14.9883C7.7855 15.4336 8.57066 15.4336 9.02769 14.9883L10.3519 13.6523C10.5277 13.4766 10.7972 13.4766 10.8675 13.7344L11.5824 16.6055L7.44566 19.7109C7.15269 19.9336 7.02378 20.2852 6.95347 20.6133L5.79331 27.0469C5.67613 27.6797 6.10972 28.3359 6.76597 28.4648ZM9.41441 11.1328L8.17222 12.375L6.93003 11.1328H9.41441Z" fill="black" fill-opacity="0.85"/>
</svg>
