<svg width="28" height="28" viewBox="0 0 28 28" fill="none" xmlns="http://www.w3.org/2000/svg">
<g clip-path="url(#clip0_2124_88479)">
<path d="M13.9531 25.918C20.4922 25.918 25.9062 20.5039 25.9062 13.9648C25.9062 7.4375 20.4805 2.01172 13.9414 2.01172C7.41406 2.01172 2 7.4375 2 13.9648C2 20.5039 7.42578 25.918 13.9531 25.918Z" fill="black" fill-opacity="0.85"/>
<path d="M10.7773 20.3516C9.55859 20.3516 8.9375 19.7305 8.9375 18.4883V9.48828C8.9375 8.21094 9.55859 7.58984 10.7891 7.58984H17.0938C18.3359 7.58984 18.957 8.22266 18.957 9.48828V16.2852C18.957 16.8594 18.6875 17.1758 18.4531 17.4102C17.7383 18.1133 17.8789 19.0625 18.6172 19.3672C18.8047 19.4258 18.957 19.6367 18.957 19.8477C18.957 20.1289 18.7227 20.3516 18.4531 20.3516H10.7773ZM10.8359 19.3438H17.1875C16.918 18.8281 16.8828 18.2188 17.1172 17.6211C17.0703 17.6328 17.0234 17.6328 16.9648 17.6328H10.8828C10.3203 17.6328 9.94531 17.9727 9.94531 18.4766C9.94531 19.0273 10.2617 19.3438 10.8359 19.3438ZM10.6484 16.6367C10.8594 16.6367 11.0352 16.4844 11.0352 16.2734V8.97266C11.0352 8.77344 10.8594 8.59766 10.6484 8.59766C10.4492 8.59766 10.2969 8.76172 10.2969 8.97266V16.2734C10.2969 16.4844 10.4492 16.6367 10.6484 16.6367Z" fill="white"/>
</g>
<defs>
<clipPath id="clip0_2124_88479">
<rect width="23.9062" height="23.918" fill="white" transform="translate(2 2)"/>
</clipPath>
</defs>
</svg>
