<svg width="28" height="28" viewBox="0 0 28 28" fill="none" xmlns="http://www.w3.org/2000/svg">
<path d="M4.60156 19.9531C6.38281 19.6719 7.39062 19.0156 7.39062 17.2109C7.39062 15.9453 8.52734 15.8516 8.52734 14.5391C8.52734 13.9531 7.96484 13.4844 6.98047 12.6758L6.20703 12.0547C6.11328 11.9844 6.05469 11.8672 6.05469 11.7617C6.05469 11.5391 6.25391 11.3398 6.46484 11.3398C6.62891 11.3398 6.78125 11.4922 7.29688 11.9375C8.12891 12.6406 8.5625 13.0273 9.10156 13.0273C9.66406 13.0273 9.83984 12.6992 10.1328 12.6992C10.3086 12.6992 10.4258 12.8047 10.5195 13.0625L10.9883 14.3516C11.4805 15.7812 12.3945 15.6523 12.5586 16.6719C13.0508 20.0352 13.6367 21.3945 15.0195 21.3945C16.3906 21.3945 16.8359 20.1406 16.8359 18.0781C16.8359 16.4727 18.7461 14.7969 19.4492 14.7969C20.3164 14.7969 20.6562 18.2656 24.3125 18.3242V17.1406C20.8789 17.0938 21.6875 13.6133 19.4492 13.6133C18.0898 13.6133 15.6523 15.9336 15.6523 18.0781C15.6523 19.6602 15.5117 20.2109 15.0195 20.2109C14.4102 20.2109 14.0938 19.0156 13.7188 16.4844C13.4492 14.75 12.582 15.207 12.1367 14.0352L11.4805 12.3594C11.2227 11.668 10.7539 11.4102 10.25 11.4102C9.71094 11.4102 9.27734 11.8086 9.07812 11.8086C8.91406 11.8086 8.33984 11.293 8.02344 11.0117C7.49609 10.543 7.00391 10.1562 6.46484 10.1562C5.60938 10.1562 4.87109 10.9883 4.87109 11.7383C4.87109 12.8984 7.34375 13.9414 7.34375 14.668C7.34375 15.5586 6.20703 15.4414 6.20703 17.1758C6.20703 18.5703 5.44531 18.5938 4.36719 18.793L4.60156 19.9531ZM5.01172 7.19141C5.15234 8.29297 5.87891 9.16016 6.80469 9.16016C7.53125 9.16016 8.15234 8.67969 8.32812 7.95312C8.41016 7.64844 8.49219 7.51953 8.72656 7.37891C9.23047 7.09766 9.46484 6.78125 9.46484 6.23047C9.46484 5.65625 9.04297 5.07031 8.35156 4.34375L7.50781 5.15234C8.03516 5.72656 8.28125 5.89062 8.28125 6.18359C8.28125 6.58203 7.54297 6.53516 7.37891 7.37891C7.29688 7.78906 7.02734 7.97656 6.79297 7.97656C6.55859 7.97656 6.13672 7.69531 6.16016 7.02734L5.01172 7.19141ZM13.9531 25.9062C20.4922 25.9062 25.9062 20.4805 25.9062 13.9531C25.9062 7.41406 20.4805 2 13.9414 2C7.41406 2 2 7.41406 2 13.9531C2 20.4805 7.42578 25.9062 13.9531 25.9062ZM13.9531 24.3125C8.29297 24.3125 3.59375 19.6133 3.59375 13.9531C3.59375 8.29297 8.28125 3.59375 13.9414 3.59375C19.6016 3.59375 24.3125 8.29297 24.3125 13.9531C24.3125 19.6133 19.6133 24.3125 13.9531 24.3125Z" fill="black" fill-opacity="0.85"/>
</svg>
