<svg width="36" height="28" viewBox="0 0 36 28" fill="none" xmlns="http://www.w3.org/2000/svg">
<g clip-path="url(#clip0_2124_67765)">
<path d="M0 12.6992C0 16.4727 2.74219 19.1094 6.85547 19.1094H7.61719V17.2227H6.66797C3.82031 17.2227 1.88672 15.3242 1.88672 12.6992C1.88672 11.3984 2.57812 10.6016 3.83203 10.6016H7.13672V8.71484H3.83203C1.40625 8.71484 0 10.2148 0 12.6992ZM35.8242 12.6992C35.8242 10.2148 34.4297 8.71484 31.9922 8.71484H28.6875V10.6016H31.9922C33.2461 10.6016 33.9375 11.3984 33.9375 12.6992C33.9375 15.3242 32.0039 17.2227 29.1562 17.2227H28.207V19.1094H28.9805C33.082 19.1094 35.8242 16.4727 35.8242 12.6992Z" fill="black" fill-opacity="0.85"/>
<path d="M17.918 22.9766C24.8672 22.9766 29.8125 20.2695 29.8125 16.2969V10.4375C29.8125 6.92188 25.6055 5 17.918 5C10.2188 5 6.01172 6.92188 6.01172 10.4375V16.2969C6.01172 20.2695 10.957 22.9766 17.918 22.9766Z" fill="black" fill-opacity="0.85"/>
<path d="M11.5664 11.4688C11.5664 10.9414 12 10.4961 12.5391 10.4961H23.2969C23.8477 10.4961 24.2812 10.9414 24.2812 11.4688C24.2812 12.0078 23.8477 12.4531 23.2969 12.4531H12.5391C12 12.4531 11.5664 12.0078 11.5664 11.4688ZM11.5664 15.9922C11.5664 15.4531 12 15.0078 12.5391 15.0078H23.2969C23.8477 15.0078 24.2812 15.4531 24.2812 15.9922C24.2812 16.5312 23.8477 16.9648 23.2969 16.9648H12.5391C12 16.9648 11.5664 16.5312 11.5664 15.9922Z" fill="white"/>
</g>
<defs>
<clipPath id="clip0_2124_67765">
<rect width="35.8242" height="18.0117" fill="white" transform="translate(0 5)"/>
</clipPath>
</defs>
</svg>
