<svg width="28" height="28" viewBox="0 0 28 28" fill="none" xmlns="http://www.w3.org/2000/svg">
<g clip-path="url(#clip0_2124_24798)">
<path d="M8.29156 19.1172C10.647 19.1172 12.4048 17.0898 11.9713 14.4766L11.2095 9.87109C11.1041 9.22656 11.3384 8.79297 11.9713 8.5C13.565 7.75 15.065 7.35156 17.0337 7.04688C18.2525 6.87109 18.8736 5.96875 18.8736 4.76172C18.8736 4.26953 18.6275 4 17.8658 4C15.3697 4 12.897 4.39844 10.3658 5.27734C6.10015 6.75391 3.45172 9.36719 4.09625 12.8711L4.71734 16.2344C5.08062 18.2031 6.74469 19.1172 8.29156 19.1172ZM8.29156 17.3242C7.19 17.3242 6.32281 16.4688 6.32281 15.3672C6.32281 14.2656 7.19 13.4102 8.29156 13.4102C9.3814 13.4102 10.2369 14.2773 10.2369 15.3672C10.2369 16.457 9.3814 17.3242 8.29156 17.3242ZM8.29156 16.4922C8.91265 16.4922 9.40484 16 9.40484 15.3672C9.40484 14.7461 8.91265 14.2422 8.29156 14.2422C7.64703 14.2422 7.15484 14.7461 7.15484 15.3672C7.15484 16 7.64703 16.4922 8.29156 16.4922ZM8.29156 20.2539C6.48687 20.2539 4.94 19.3398 4.1314 17.8984C4.3775 21.8008 7.90484 23.7461 11.9009 23.7461C12.9556 23.7461 13.7291 23.6055 14.4673 23.2305C15.9791 20.5938 17.0455 17.8398 17.7252 14.8633C16.9517 13.2344 15.1353 12.168 12.6275 11.5234L13.0962 14.2891C13.6353 17.5234 11.4205 20.2539 8.29156 20.2539Z" fill="black" fill-opacity="0.85"/>
<path d="M23.2329 19.7617C23.2329 17.0312 21.0766 15.2148 18.8618 14.9922C18.1469 18.1562 16.9985 21.1328 15.3696 23.9102C16.0258 24.3672 17.0922 24.7539 18.2758 24.7539C21.2524 24.7539 23.2329 22.75 23.2329 19.7617Z" fill="black" fill-opacity="0.85"/>
</g>
<defs>
<clipPath id="clip0_2124_24798">
<rect width="19.233" height="20.7773" fill="white" transform="translate(4 4)"/>
</clipPath>
</defs>
</svg>
