<svg width="28" height="28" viewBox="0 0 28 28" fill="none" xmlns="http://www.w3.org/2000/svg">
<path d="M13.9531 25.9062C20.4922 25.9062 25.9062 20.4805 25.9062 13.9531C25.9062 7.41406 20.4805 2 13.9414 2C7.41406 2 2 7.41406 2 13.9531C2 20.4805 7.42578 25.9062 13.9531 25.9062Z" fill="black" fill-opacity="0.85"/>
<path d="M10.3555 19.0508C9.04297 19.0508 7.82422 18.4297 7.47266 17.3047C7.41406 17.1055 7.37891 16.8945 7.37891 16.6719C7.37891 16.2031 7.69531 15.9102 8.16406 15.9102C8.55078 15.9102 8.82031 16.1094 8.92578 16.5078C9.08984 17.0586 9.47656 17.6445 10.3555 17.6445C11.2461 17.6445 11.6914 16.9414 11.6914 16.1094C11.6914 15.0547 11.1172 14.4922 10.0977 14.4922H9.79297C9.39453 14.4922 9.125 14.2578 9.125 13.8594C9.125 13.4609 9.38281 13.2031 9.79297 13.2031H10.0859C10.9883 13.2031 11.4687 12.5586 11.4687 11.6797C11.4687 10.8828 11.0937 10.2734 10.2969 10.2734C9.62891 10.2734 9.24219 10.7188 9.05469 11.4336C8.92578 11.8555 8.67969 12.0078 8.26953 12.0078C7.80078 12.0078 7.53125 11.6914 7.53125 11.293C7.53125 11.0938 7.55469 10.8711 7.61328 10.6367C7.96484 9.57031 9.05469 8.86719 10.2969 8.86719C11.8789 8.86719 13.1328 9.81641 13.1328 11.4922C13.1328 12.5 12.5938 13.4844 11.5039 13.7773V13.8125C12.5117 13.918 13.4141 14.6562 13.4141 16.1562C13.4141 17.9727 12.0781 19.0508 10.3555 19.0508ZM15.4766 18.8398C14.9375 18.8398 14.668 18.5469 14.668 18.1367C14.668 17.75 14.9023 17.457 15.1133 17.1641L17.2109 14.4805C17.8555 13.6719 18.5352 12.6875 18.5352 11.7148C18.5352 10.8594 18.125 10.2266 17.3867 10.2266C16.707 10.2266 16.4023 10.7305 16.1914 11.5391C16.0508 11.9375 15.8047 12.125 15.4062 12.125C14.9492 12.125 14.6797 11.8086 14.6797 11.3516C14.6797 10.0977 15.8516 8.82031 17.3984 8.82031C19.0742 8.82031 20.1875 10.0039 20.1875 11.6328C20.1875 12.6992 19.7891 13.5898 18.582 15.0898L16.8125 17.3164V17.4102H19.6719C20.1055 17.4102 20.3633 17.668 20.3633 18.1367C20.3633 18.5586 20.1172 18.8398 19.6719 18.8398H15.4766Z" fill="white"/>
</svg>
