<svg width="28" height="28" viewBox="0 0 28 28" fill="none" xmlns="http://www.w3.org/2000/svg">
<path d="M13.9531 25.9062C20.4922 25.9062 25.9062 20.4805 25.9062 13.9531C25.9062 7.41406 20.4805 2 13.9414 2C7.41406 2 2 7.41406 2 13.9531C2 20.4805 7.42578 25.9062 13.9531 25.9062ZM13.9531 23.9141C8.42188 23.9141 4.00391 19.4844 4.00391 13.9531C4.00391 8.42188 8.41016 3.99219 13.9414 3.99219C19.4727 3.99219 23.9141 8.42188 23.9141 13.9531C23.9141 19.4844 19.4844 23.9141 13.9531 23.9141Z" fill="black" fill-opacity="0.85"/>
<path d="M9.21925 14.5859L15.8872 18.5352C16.438 18.8633 17.0591 18.5938 17.0591 18.0312V9.88671C17.0591 9.31249 16.3911 9.07811 15.8872 9.3828L9.21925 13.332C8.72706 13.6133 8.71534 14.3047 9.21925 14.5859Z" fill="black" fill-opacity="0.85"/>
</svg>
