<svg width="38" height="29" viewBox="0 0 38 29" fill="none" xmlns="http://www.w3.org/2000/svg">
<path d="M8.18213 8.98772L9.42432 9.70256C9.50635 9.44475 9.61182 9.17522 9.76416 8.91741C10.7486 7.21819 12.8579 6.64397 14.5572 7.61663C16.2447 8.61272 16.8189 10.7104 15.8345 12.4096C15.6822 12.6791 15.5064 12.9018 15.3189 13.1127L25.3736 18.9252C25.4673 18.6557 25.5728 18.3861 25.7251 18.1166C26.7095 16.4291 28.8189 15.8549 30.5064 16.8393C32.2056 17.8119 32.7798 19.933 31.7954 21.6322C31.6431 21.89 31.4673 22.1244 31.2681 22.3354L32.3111 22.933C33.4595 23.5893 34.5728 23.2729 35.2408 22.101L37.0923 18.9252C37.7368 17.8119 37.9243 16.6752 36.7173 15.3627L35.3814 13.9213C35.065 12.1049 34.2798 9.31585 31.0103 7.44085L29.1587 6.37444C25.8892 4.49944 24.4243 4.05413 21.7759 4.14788L17.44 4.31194L13.69 2.72991C11.3462 1.73381 9.33057 2.23772 8.24072 4.12444L7.33838 5.69475C6.56494 7.03069 6.88135 8.24944 8.18213 8.98772ZM11.5806 12.7729C12.7642 13.4525 14.2408 13.0541 14.9087 11.8822C15.5884 10.7104 15.19 9.23381 14.0181 8.55413C12.8579 7.88616 11.3579 8.27288 10.6783 9.44475C10.0103 10.6166 10.4087 12.0932 11.5806 12.7729ZM27.5415 21.9838C28.7134 22.6635 30.19 22.265 30.8697 21.0932C31.5493 19.9213 31.1509 18.433 29.979 17.765C28.8072 17.0971 27.3189 17.4838 26.6392 18.6557C25.9712 19.8275 26.3697 21.3158 27.5415 21.9838Z" fill="black" fill-opacity="0.85"/>
<path d="M0.13108 9.91348C-0.138452 10.3822 0.0256111 10.9565 0.459205 11.2143L30.6936 28.6635C31.1155 28.9096 31.7014 28.7572 31.9592 28.3236C32.217 27.8549 32.053 27.269 31.6311 27.0229L1.3967 9.57364C0.97483 9.32754 0.377173 9.47989 0.13108 9.91348ZM4.51389 5.48379L6.98655 1.21817C7.3967 0.503326 6.82249 -0.129486 6.09592 0.0228572L2.32249 0.714264C1.80686 0.808014 1.57249 1.20645 1.75999 1.71036L3.03733 5.30801C3.28342 6.02286 4.10374 6.18692 4.51389 5.48379Z" fill="black" fill-opacity="0.85"/>
</svg>
