<svg width="28" height="28" viewBox="0 0 28 28" fill="none" xmlns="http://www.w3.org/2000/svg">
<path d="M6.67969 24.5977H20.8945C23.3555 24.5977 24.5742 23.3789 24.5742 20.9648V6.65625C24.5742 4.24219 23.3555 3.02344 20.8945 3.02344H6.67969C4.23047 3.02344 3 4.23047 3 6.65625V20.9648C3 23.3906 4.23047 24.5977 6.67969 24.5977ZM6.70312 22.7109C5.53125 22.7109 4.88672 22.0898 4.88672 20.8711V6.75C4.88672 5.53125 5.53125 4.91016 6.70312 4.91016H20.8711C22.0312 4.91016 22.6875 5.53125 22.6875 6.75V20.8711C22.6875 22.0898 22.0312 22.7109 20.8711 22.7109H6.70312Z" fill="black" fill-opacity="0.85"/>
<path d="M10.1133 18.7383C11.8008 18.7383 13.0898 17.6836 13.0898 15.9258C13.0898 14.4727 12.2227 13.7578 11.2383 13.6523V13.6172C12.293 13.3359 12.8086 12.3867 12.8086 11.4023C12.8086 9.78516 11.6016 8.85938 10.0781 8.85938C8.85938 8.85938 7.81641 9.53906 7.47656 10.582C7.41797 10.8047 7.39453 11.0156 7.39453 11.2148C7.39453 11.6016 7.64062 11.9062 8.10938 11.9062C8.50781 11.9062 8.74219 11.7539 8.85938 11.3437C9.04688 10.6523 9.41016 10.2187 10.0781 10.2187C10.8516 10.2187 11.2148 10.8164 11.2148 11.5898C11.2148 12.4453 10.7344 13.0664 9.86719 13.0664H9.58594C9.1875 13.0664 8.92969 13.3125 8.92969 13.6992C8.92969 14.0859 9.19922 14.3086 9.58594 14.3086H9.87891C10.875 14.3086 11.4258 14.8594 11.4258 15.8789C11.4258 16.6875 10.9922 17.3789 10.125 17.3789C9.26953 17.3789 8.88281 16.8047 8.74219 16.2656C8.63672 15.8906 8.37891 15.6914 8.00391 15.6914C7.54688 15.6914 7.24219 15.9727 7.24219 16.4297C7.24219 16.6406 7.26562 16.8516 7.32422 17.0391C7.66406 18.1289 8.85938 18.7383 10.1133 18.7383ZM17.3555 18.7383C19.2188 18.7383 20.4023 17.5781 20.4023 15.9727C20.4023 14.6953 19.5938 13.7695 18.6562 13.5586V13.5234C19.4414 13.2773 20.1328 12.5156 20.1328 11.4023C20.1328 9.89062 19.0078 8.85938 17.3555 8.85938C15.9141 8.85938 14.6016 9.75 14.6016 11.3906C14.6016 12.5859 15.3398 13.2891 16.0898 13.5234V13.5586C15.0938 13.7812 14.332 14.707 14.332 15.9727C14.332 17.707 15.6445 18.7383 17.3555 18.7383ZM17.3672 12.9844C16.6172 12.9844 16.2305 12.2578 16.2305 11.5664C16.2305 10.8164 16.6406 10.1133 17.3672 10.1133C18.1289 10.1133 18.4922 10.8164 18.4922 11.5664C18.4922 12.3398 18.1055 12.9844 17.3672 12.9844ZM17.3672 17.4727C16.5117 17.4727 16.0898 16.7109 16.0898 15.8438C16.0898 15 16.5117 14.25 17.3672 14.25C18.1992 14.25 18.6445 14.9531 18.6445 15.8438C18.6445 16.7109 18.2227 17.4727 17.3672 17.4727Z" fill="black" fill-opacity="0.85"/>
</svg>
