<svg width="28" height="28" viewBox="0 0 28 28" fill="none" xmlns="http://www.w3.org/2000/svg">
<path d="M3 21.7344C3 22.25 3.42188 22.6836 3.9375 22.6836C4.46484 22.6836 4.88672 22.25 4.88672 21.7344V5.96094C4.88672 5.44531 4.46484 5.02344 3.9375 5.02344C3.42188 5.02344 3 5.44531 3 5.96094V21.7344ZM22.6875 21.7344C22.6875 22.25 23.1211 22.6836 23.6367 22.6836C24.1523 22.6836 24.5742 22.25 24.5742 21.7344V5.96094C24.5742 5.44531 24.1523 5.02344 23.6367 5.02344C23.1211 5.02344 22.6875 5.44531 22.6875 5.96094V21.7344Z" fill="black" fill-opacity="0.85"/>
<path d="M14.3086 18.6523C14.8125 18.6523 15.1172 18.3008 15.1172 17.7969V10.3906C15.1172 9.80469 14.7539 9.47656 14.1797 9.47656C13.7109 9.47656 13.3828 9.67578 13.0078 9.95703L11.6836 10.9414C11.4609 11.1172 11.3086 11.3047 11.3086 11.5977C11.3086 11.9258 11.5547 12.1953 11.8945 12.1953C12.0586 12.1953 12.1758 12.1367 12.3047 12.043L13.4648 11.1641H13.4883V17.7969C13.4883 18.3008 13.793 18.6523 14.3086 18.6523Z" fill="black" fill-opacity="0.85"/>
</svg>
