<svg width="28" height="28" viewBox="0 0 28 28" fill="none" xmlns="http://www.w3.org/2000/svg">
<g clip-path="url(#clip0_2124_88474)">
<path d="M13.9531 25.9062C20.4922 25.9062 25.9062 20.4805 25.9062 13.9531C25.9062 7.41406 20.4805 2 13.9414 2C7.41406 2 2 7.41406 2 13.9531C2 20.4805 7.42578 25.9062 13.9531 25.9062ZM13.9531 23.9141C8.42188 23.9141 4.00391 19.4844 4.00391 13.9531C4.00391 8.42188 8.41016 3.99219 13.9414 3.99219C19.4727 3.99219 23.9141 8.42188 23.9141 13.9531C23.9141 19.4844 19.4844 23.9141 13.9531 23.9141Z" fill="black" fill-opacity="0.85"/>
<path d="M7.97656 19.6836H8.98438C9.41797 19.6836 9.65234 19.4492 9.65234 19.0273V9.86328C9.65234 9.44141 9.41797 9.20703 8.98438 9.20703H7.97656C7.53125 9.20703 7.28516 9.44141 7.28516 9.86328V19.0273C7.28516 19.4492 7.53125 19.6836 7.97656 19.6836ZM11.1055 19.6836H13.2969C13.7422 19.6836 13.9648 19.4492 13.9648 19.0273V11.7148C13.9648 11.293 13.7422 11.0352 13.2969 11.0352H11.1055C10.6836 11.0352 10.4375 11.293 10.4375 11.7148V19.0273C10.4375 19.4492 10.6836 19.6836 11.1055 19.6836ZM11.6211 13.0039C11.4102 13.0039 11.2812 12.8281 11.2812 12.6523C11.2812 12.4531 11.4219 12.3008 11.6211 12.3008H12.8047C13.0039 12.3008 13.1562 12.4531 13.1562 12.6523C13.1562 12.8281 13.0039 13.0039 12.8047 13.0039H11.6211ZM11.6211 18.4531C11.4219 18.4531 11.2812 18.3008 11.2812 18.0898C11.2812 17.8906 11.4102 17.7383 11.6211 17.7383H12.8047C13.0039 17.7383 13.1562 17.8906 13.1562 18.0898C13.1562 18.3008 13.0039 18.4531 12.8047 18.4531H11.6211ZM15.4297 19.6836H16.7539C17.1875 19.6836 17.4219 19.4492 17.4219 19.0273V8.375C17.4219 7.94141 17.1875 7.70703 16.7539 7.70703H15.4297C14.9844 7.70703 14.7617 7.94141 14.7617 8.375V19.0273C14.7617 19.4492 14.9844 19.6836 15.4297 19.6836ZM19.543 19.6836L20.3984 19.4727C20.8203 19.3906 20.9961 19.1094 20.9258 18.6875L19.0977 9.85156C19.0156 9.41797 18.7461 9.20703 18.3242 9.3125L17.4688 9.52344C17.0586 9.61719 16.8594 9.88672 16.9414 10.3086L18.7695 19.168C18.8516 19.5781 19.1328 19.7773 19.543 19.6836Z" fill="black" fill-opacity="0.85"/>
</g>
<defs>
<clipPath id="clip0_2124_88474">
<rect width="23.9062" height="23.918" fill="white" transform="translate(2 2)"/>
</clipPath>
</defs>
</svg>
