<svg width="28" height="28" viewBox="0 0 28 28" fill="none" xmlns="http://www.w3.org/2000/svg">
<path d="M13.9531 25.9062C20.4922 25.9062 25.9062 20.4805 25.9062 13.9531C25.9062 7.41406 20.4805 2 13.9414 2C7.41406 2 2 7.41406 2 13.9531C2 20.4805 7.42578 25.9062 13.9531 25.9062ZM13.9531 23.9141C8.42188 23.9141 4.00391 19.4844 4.00391 13.9531C4.00391 8.42188 8.41016 3.99219 13.9414 3.99219C19.4727 3.99219 23.9141 8.42188 23.9141 13.9531C23.9141 19.4844 19.4844 23.9141 13.9531 23.9141Z" fill="black" fill-opacity="0.85"/>
<path d="M11.1406 19.2031H14.5625C16.9883 19.2031 18.5469 18.0312 18.5469 16.1914C18.5469 14.7617 17.5859 13.7539 16.0273 13.5664V13.4961C17.1875 13.2148 17.9023 12.3008 17.9023 11.1289C17.9023 9.52344 16.6016 8.48047 14.5859 8.48047H11.1406C10.4844 8.48047 10.0977 8.86719 10.0977 9.53516V18.1602C10.0977 18.8047 10.4844 19.2031 11.1406 19.2031ZM11.9141 13.0391V9.86328H14.2109C15.3945 9.86328 16.1094 10.4609 16.1094 11.4219C16.1094 12.4531 15.2539 13.0391 13.6836 13.0391H11.9141ZM11.9141 17.8203V14.3281H14.4102C15.8398 14.3281 16.6719 14.9844 16.6719 16.1094C16.6719 17.2812 15.7695 17.8203 13.8242 17.8203H11.9141Z" fill="black" fill-opacity="0.85"/>
</svg>
