<svg width="28" height="28" viewBox="0 0 28 28" fill="none" xmlns="http://www.w3.org/2000/svg">
<path d="M6.67969 24.5977H20.8945C23.3555 24.5977 24.5742 23.3789 24.5742 20.9648V6.65625C24.5742 4.24219 23.3555 3.02344 20.8945 3.02344H6.67969C4.23047 3.02344 3 4.23047 3 6.65625V20.9648C3 23.3906 4.23047 24.5977 6.67969 24.5977Z" fill="black" fill-opacity="0.85"/>
<path d="M10.9102 19.207C10.2422 19.207 9.83203 18.7969 9.83203 18.1289V9.24609C9.83203 8.55469 10.2422 8.15625 10.9102 8.15625H14.4609C16.5352 8.15625 17.8828 9.22266 17.8828 10.8867C17.8828 12.0938 17.1445 13.0312 15.9492 13.3242V13.3945C17.5547 13.5938 18.5508 14.625 18.5508 16.1016C18.5508 18 16.9336 19.207 14.4375 19.207H10.9102ZM11.707 12.8555H13.5234C15.1406 12.8555 16.0195 12.2461 16.0195 11.1914C16.0195 10.1953 15.293 9.58594 14.0742 9.58594H11.707V12.8555ZM11.707 17.7773H13.6641C15.6797 17.7773 16.6055 17.2266 16.6055 16.0195C16.6055 14.8594 15.75 14.1914 14.2734 14.1914H11.707V17.7773Z" fill="white"/>
</svg>
