<svg width="28" height="28" viewBox="0 0 28 28" fill="none" xmlns="http://www.w3.org/2000/svg">
<g clip-path="url(#clip0_2124_24870)">
<path d="M0 18.8672C0 20.4023 0.878906 21.4922 2.50781 21.4922H25.2305C26.8477 21.4922 27.7266 20.4023 27.7266 18.8672V15.3633C27.7266 13.3945 27.457 12.2109 26.25 10.8867L25.0664 9.60938L23.8359 6.08203C23.168 4.16016 21.8672 3.35156 20.25 3.16406C19.4648 3.07031 16.8984 3 13.8633 3C10.8398 3 8.27344 3.07031 7.48828 3.16406C5.85938 3.35156 4.55859 4.16016 3.89062 6.08203L2.66016 9.60938L1.48828 10.8867C0.269531 12.2109 0 13.3945 0 15.3633V18.8672ZM1.53516 18.3984V15.3633C1.53516 13.7695 1.72266 12.9375 2.70703 11.8242L4.08984 10.2539L5.27344 6.77344C5.75391 5.35547 6.57422 4.86328 7.66406 4.73438C8.41406 4.64062 10.793 4.53516 13.8633 4.53516C16.9453 4.53516 19.3125 4.64062 20.0625 4.73438C21.1523 4.86328 21.9727 5.35547 22.4531 6.77344L23.6367 10.2539L25.0312 11.8242C26.0039 12.9375 26.1914 13.7695 26.1914 15.3633V18.3984C26.1914 19.3242 25.8164 19.957 24.8086 19.957H2.91797C1.92188 19.957 1.53516 19.3242 1.53516 18.3984ZM6.33984 10.0547H21.3867C21.9141 10.0547 22.1016 9.66797 21.9258 9.17578L21.2344 7.125C20.9766 6.36328 20.5781 6.10547 19.8984 6.01172C19.1367 5.90625 17.0156 5.82422 13.8633 5.82422C10.7109 5.82422 8.60156 5.90625 7.82812 6.01172C7.16016 6.10547 6.75 6.36328 6.49219 7.125L5.80078 9.17578C5.63672 9.66797 5.8125 10.0547 6.33984 10.0547ZM4.81641 16.8398C5.48438 16.8398 5.97656 16.3477 5.97656 15.668V13.9453C5.97656 13.2656 5.48438 12.7852 4.81641 12.7852C4.13672 12.7852 3.64453 13.2773 3.64453 13.9453V15.668C3.64453 16.3359 4.13672 16.8398 4.81641 16.8398ZM11.3555 16.3125H16.3359C16.8867 16.3125 17.25 15.9492 17.25 15.375V14.2383C17.25 13.6641 16.8867 13.3242 16.3359 13.3242H11.3555C10.8281 13.3242 10.4648 13.6641 10.4648 14.2383V15.375C10.4648 15.9492 10.8281 16.3125 11.3555 16.3125ZM23.0273 16.8398C23.707 16.8398 24.2109 16.3477 24.2109 15.668V13.9453C24.2109 13.2656 23.707 12.7852 23.0273 12.7852C22.3711 12.7852 21.8672 13.2891 21.8672 13.9453V15.668C21.8672 16.3359 22.3711 16.8398 23.0273 16.8398ZM2.15625 24.7383H3.52734C4.40625 24.7383 5.08594 24.0586 5.08594 23.1914V20.8008L0.597656 20.1562V23.1914C0.597656 24.0586 1.27734 24.7383 2.15625 24.7383ZM24.1992 24.7383H25.582C26.4609 24.7383 27.1289 24.0586 27.1289 23.1914V20.1562L22.6523 20.8008V23.1914C22.6523 24.0586 23.3203 24.7383 24.1992 24.7383Z" fill="black" fill-opacity="0.85"/>
</g>
<defs>
<clipPath id="clip0_2124_24870">
<rect width="27.7266" height="21.7852" fill="white" transform="translate(0 3)"/>
</clipPath>
</defs>
</svg>
