<svg width="28" height="28" viewBox="0 0 28 28" fill="none" xmlns="http://www.w3.org/2000/svg">
<g clip-path="url(#clip0_2124_24840)">
<path d="M12.8477 27.7422H14.8047V16.4922H12.8477V27.7422ZM11.4414 18.2734H16.1992C17.2188 18.2734 17.6289 17.8633 17.6289 16.832V7.82031C17.6289 6.80078 17.2188 6.37891 16.1992 6.37891H11.4414C10.4102 6.37891 10 6.80078 10 7.82031V16.832C10 17.8633 10.4102 18.2734 11.4414 18.2734Z" fill="black" fill-opacity="0.85"/>
<path d="M11.5352 5.00781H16.0937V2.44141C16.0937 1.41016 15.6719 1 14.6523 1H12.9883C11.957 1 11.5352 1.41016 11.5352 2.44141V5.00781Z" fill="black" fill-opacity="0.85"/>
</g>
<defs>
<clipPath id="clip0_2124_24840">
<rect width="7.62891" height="26.7539" fill="white" transform="translate(10 1)"/>
</clipPath>
</defs>
</svg>
