<svg width="28" height="28" viewBox="0 0 28 28" fill="none" xmlns="http://www.w3.org/2000/svg">
<path d="M13.9531 25.9062C20.4922 25.9062 25.9062 20.4805 25.9062 13.9531C25.9062 7.41406 20.4805 2 13.9414 2C7.41406 2 2 7.41406 2 13.9531C2 20.4805 7.42578 25.9062 13.9531 25.9062Z" fill="black" fill-opacity="0.85"/>
<path d="M11.6328 18.9922C11.2461 18.9922 10.7891 18.7695 10.7891 18.125V16.9297H8.09375C7.49609 16.9297 7.09766 16.5312 7.09766 15.9453C7.09766 15.5703 7.16797 15.2539 7.35547 14.7852L9.51172 10.0977C9.85156 9.34766 10.2617 8.91406 11.1055 8.91406C11.9141 8.91406 12.4531 9.38281 12.4531 10.2266V15.5234H12.8867C13.3789 15.5234 13.5781 15.8281 13.5781 16.2148C13.5781 16.625 13.3438 16.9297 12.8867 16.9297H12.4531V18.125C12.4531 18.7109 12.0781 18.9922 11.6328 18.9922ZM10.8242 15.5586V10.4375H10.7773L8.58594 15.4766V15.5586H10.8242ZM15.9102 18.8398C15.3594 18.8398 15.0547 18.5 15.0547 17.9258V9.86328C15.0547 9.27734 15.3594 8.91406 15.9219 8.91406C16.5547 8.91406 16.8125 9.32422 16.8125 9.86328V17.3633H19.3438C19.7891 17.3633 20.1172 17.6211 20.1172 18.0898C20.1172 18.582 19.7891 18.8398 19.3438 18.8398H15.9102Z" fill="white"/>
</svg>
