<svg width="28" height="28" viewBox="0 0 28 28" fill="none" xmlns="http://www.w3.org/2000/svg">
<path d="M13.9531 25.9062C20.4922 25.9062 25.9062 20.4805 25.9062 13.9531C25.9062 7.41406 20.4805 2 13.9414 2C7.41406 2 2 7.41406 2 13.9531C2 20.4805 7.42578 25.9062 13.9531 25.9062ZM13.9531 23.9141C8.42188 23.9141 4.00391 19.4844 4.00391 13.9531C4.00391 8.42188 8.41016 3.99219 13.9414 3.99219C19.4727 3.99219 23.9141 8.42188 23.9141 13.9531C23.9141 19.4844 19.4844 23.9141 13.9531 23.9141Z" fill="black" fill-opacity="0.85"/>
<path d="M13.9531 14.8555C17.4805 14.8555 20.2461 13.5781 20.2461 11.9609C20.2461 10.3906 17.4805 9.14844 13.9531 9.14844C10.4258 9.14844 7.66016 10.3906 7.66016 11.9609C7.66016 13.5781 10.4258 14.8555 13.9531 14.8555ZM13.9531 18.7461C17.5039 18.7461 20.2461 17.1523 20.2461 15.207V13.7891C19.0391 14.9844 16.6016 15.6875 13.9531 15.6875C11.3164 15.6875 8.87891 14.9844 7.66016 13.7891V15.207C7.66016 17.1523 10.3906 18.7461 13.9531 18.7461Z" fill="black" fill-opacity="0.85"/>
</svg>
