<svg width="28" height="28" viewBox="0 0 28 28" fill="none" xmlns="http://www.w3.org/2000/svg">
<path d="M13.9531 25.9062C20.4922 25.9062 25.9062 20.4805 25.9062 13.9531C25.9062 7.41406 20.4805 2 13.9414 2C7.41406 2 2 7.41406 2 13.9531C2 20.4805 7.42578 25.9062 13.9531 25.9062Z" fill="black" fill-opacity="0.85"/>
<path d="M10.1211 19.0859C7.70703 19.0859 6.98047 16.3906 6.98047 13.9531C6.98047 11.5156 7.70703 8.82031 10.1211 8.82031C12.5234 8.82031 13.25 11.5156 13.25 13.9531C13.25 16.3906 12.5234 19.0859 10.1211 19.0859ZM10.1211 17.6445C11.1055 17.6445 11.4805 16.0508 11.4805 13.9531C11.4805 11.8438 11.1055 10.2617 10.1211 10.2617C9.13672 10.2617 8.76172 11.8438 8.76172 13.9531C8.76172 16.0508 9.13672 17.6445 10.1211 17.6445ZM17.7617 19.0508C16.0039 19.0508 14.6445 17.9961 14.6445 16.2031C14.6445 14.8906 15.4297 13.9414 16.4727 13.707V13.6719C15.6875 13.4375 14.9141 12.7109 14.9141 11.4805C14.9141 9.78125 16.2734 8.86719 17.7617 8.86719C19.4844 8.86719 20.6445 9.92188 20.6445 11.4922C20.6445 12.6406 19.918 13.4258 19.1094 13.6719V13.707C20.0703 13.9297 20.9141 14.8789 20.9141 16.2031C20.9141 17.8555 19.6836 19.0508 17.7617 19.0508ZM17.7734 13.1211C18.5352 13.1211 18.9336 12.4531 18.9336 11.6563C18.9336 10.8828 18.5586 10.168 17.7734 10.168C17.0234 10.168 16.6133 10.8828 16.6133 11.6563C16.6133 12.3711 17 13.1211 17.7734 13.1211ZM17.7734 17.7383C18.6523 17.7383 19.0859 16.9648 19.0859 16.0625C19.0859 15.1484 18.6289 14.4336 17.7734 14.4336C16.8945 14.4336 16.4609 15.1953 16.4609 16.0625C16.4609 16.9648 16.8945 17.7383 17.7734 17.7383Z" fill="white"/>
</svg>
