<svg width="30" height="28" viewBox="0 0 30 28" fill="none" xmlns="http://www.w3.org/2000/svg">
<path d="M12.5039 21.6054H28.5234C29.0508 21.6054 29.4609 21.1953 29.4609 20.668C29.4609 20.1289 29.0508 19.7188 28.5234 19.7188H12.5039C11.9766 19.7188 11.5664 20.1289 11.5664 20.668C11.5664 21.1953 11.9766 21.6054 12.5039 21.6054Z" fill="black" fill-opacity="0.85"/>
<path d="M7.32422 22.1445C8.14453 22.1445 8.80078 21.4766 8.80078 20.668C8.80078 19.8477 8.14453 19.1914 7.32422 19.1914C6.51562 19.1914 5.84766 19.8477 5.84766 20.668C5.84766 21.4766 6.51562 22.1445 7.32422 22.1445Z" fill="black" fill-opacity="0.85"/>
<path d="M9.57422 14.5273H25.5938C26.1211 14.5273 26.5312 14.1055 26.5312 13.5781C26.5312 13.0508 26.1211 12.6406 25.5938 12.6406H9.57422C9.04688 12.6406 8.63672 13.0508 8.63672 13.5781C8.63672 14.1055 9.04688 14.5273 9.57422 14.5273Z" fill="black" fill-opacity="0.85"/>
<path d="M4.40625 15.0547C5.21484 15.0547 5.88281 14.3984 5.88281 13.5781C5.88281 12.7578 5.21484 12.1016 4.40625 12.1016C3.58594 12.1016 2.92969 12.7578 2.92969 13.5781C2.92969 14.3984 3.58594 15.0547 4.40625 15.0547Z" fill="black" fill-opacity="0.85"/>
<path d="M6.65625 7.4375H22.6641C23.1914 7.4375 23.6133 7.02734 23.6133 6.5C23.6133 5.96094 23.1914 5.55078 22.6641 5.55078H6.65625C6.11719 5.55078 5.70703 5.96094 5.70703 6.5C5.70703 7.02734 6.11719 7.4375 6.65625 7.4375Z" fill="black" fill-opacity="0.85"/>
<path d="M1.47656 7.96484C2.29688 7.96484 2.95312 7.30859 2.95312 6.5C2.95312 5.67969 2.29688 5.02344 1.47656 5.02344C0.65625 5.02344 0 5.67969 0 6.5C0 7.30859 0.65625 7.96484 1.47656 7.96484Z" fill="black" fill-opacity="0.85"/>
</svg>
