<svg width="28" height="31" viewBox="0 0 28 31" fill="none" xmlns="http://www.w3.org/2000/svg">
<path d="M14.4531 26.6133C17.2891 26.6133 18.9766 25.2773 18.9766 23.0273V19.0664C18.9766 16.8164 17.2891 15.4805 14.4531 15.4805C11.6055 15.4805 9.91797 16.8164 9.91797 19.0664V23.0273C9.91797 25.2773 11.6055 26.6133 14.4531 26.6133Z" fill="black" fill-opacity="0.85"/>
<path d="M14.4531 23.0039C22.457 23.0039 27.8945 19.2656 27.8945 13.7344C27.8945 8.20312 22.4453 4.46484 14.4297 4.46484C6.4375 4.46484 1 8.21484 1 13.7344C1 19.2656 6.4375 23.0039 14.4531 23.0039Z" fill="white"/>
<path d="M14.4531 21.6445C21.7656 21.6445 26.5352 18.4102 26.5352 13.7344C26.5352 9.07031 21.7539 5.83594 14.4297 5.83594C7.12891 5.83594 2.37109 9.07031 2.37109 13.7344C2.37109 18.4102 7.12891 21.6445 14.4531 21.6445ZM14.4531 19.6289C8.48828 19.6289 4.49219 17.2383 4.49219 13.7344C4.49219 10.2305 8.48828 7.85156 14.4297 7.85156C20.3945 7.85156 24.4141 10.2305 24.4141 13.7344C24.4141 17.2383 20.4062 19.6289 14.4531 19.6289Z" fill="black" fill-opacity="0.85"/>
<path d="M12.8125 17.4023H16.4219C16.8789 17.4023 17.1953 17.0859 17.1953 16.6523C17.1953 16.1953 16.8789 15.8906 16.4219 15.8906H13.6797V10.6055C13.6797 10.0195 13.3398 9.66797 12.8125 9.66797C12.2969 9.66797 11.9453 10.0312 11.9453 10.6055V16.4648C11.9453 17.0273 12.2852 17.4023 12.8125 17.4023Z" fill="black" fill-opacity="0.85"/>
<path d="M11.4997 1.42969L13.8317 4.57031C14.1481 5.00391 14.7458 5.00391 15.0622 4.57031L17.4177 1.42969C17.8864 0.808594 17.6403 0 16.7966 0H12.0974C11.3005 0 11.0075 0.785156 11.4997 1.42969Z" fill="black" fill-opacity="0.85"/>
</svg>
