<svg width="28" height="28" viewBox="0 0 28 28" fill="none" xmlns="http://www.w3.org/2000/svg">
<path d="M10.9727 26.1719H21.2734C23.5 26.1719 24.8359 24.8594 24.8359 22.6562L24.8477 4.55078C24.8477 2.42969 23.418 1 21.3086 1H17.7109C15.8711 1 14.3359 1.48047 12.8945 2.80469L5.48828 9.61328C4.49219 10.5273 4 11.8164 4 13.4219V19.1992C4 23.4414 6.73047 26.1719 10.9727 26.1719Z" fill="black" fill-opacity="0.85"/>
<path d="M9.84766 20.875C9.29688 20.875 8.98047 20.5352 8.98047 19.9609V11.8281C8.98047 11.3477 9.37891 10.9492 9.85938 10.9492C10.3398 10.9492 10.75 11.3477 10.75 11.8281V19.4102H13.3281C13.7266 19.4102 14.0664 19.7383 14.0664 20.1367C14.0664 20.5469 13.7266 20.875 13.3281 20.875H9.84766ZM15.8477 20.8633C15.2969 20.8633 15.0273 20.5586 15.0273 20.1602C15.0273 19.7852 15.25 19.4805 15.4844 19.1875L17.582 16.5156C18.2148 15.6953 18.8828 14.7109 18.8828 13.75C18.8828 12.8828 18.4844 12.2383 17.7578 12.2383C17.0664 12.2383 16.7734 12.7539 16.5391 13.5625C16.4102 13.9609 16.1758 14.1484 15.7773 14.1484C15.3086 14.1484 15.0391 13.832 15.0391 13.3867C15.0391 12.1211 16.2227 10.8438 17.7695 10.8438C19.4336 10.8438 20.5469 12.0273 20.5469 13.6562C20.5469 14.7227 20.1484 15.6133 18.9414 17.125L17.1836 19.3398V19.4453H20.043C20.4648 19.4453 20.7344 19.7031 20.7344 20.1602C20.7344 20.582 20.4766 20.8633 20.043 20.8633H15.8477Z" fill="white"/>
</svg>
