<svg width="28" height="28" viewBox="0 0 28 28" fill="none" xmlns="http://www.w3.org/2000/svg">
<g clip-path="url(#clip0_2124_49973)">
<path d="M13.9531 25.9062C20.4922 25.9062 25.9062 20.4805 25.9062 13.9531C25.9062 7.41406 20.4805 2 13.9414 2C7.41406 2 2 7.41406 2 13.9531C2 20.4805 7.42578 25.9062 13.9531 25.9062ZM13.9531 23.9141C8.42188 23.9141 4.00391 19.4844 4.00391 13.9531C4.00391 8.42188 8.41016 3.99219 13.9414 3.99219C19.4727 3.99219 23.9141 8.42188 23.9141 13.9531C23.9141 19.4844 19.4844 23.9141 13.9531 23.9141Z" fill="black" fill-opacity="0.85"/>
<path d="M9.86328 10.5664C9.86328 12.8984 11.4102 13.4727 11.6563 17.5156C11.6797 17.75 11.8086 17.8906 12.0195 17.8906H15.8398C16.0742 17.8906 16.2148 17.75 16.2266 17.5156C16.4609 13.4727 18.0195 12.957 18.0195 10.625C18.0195 8.51562 16.2148 6.86328 13.9297 6.86328C11.6563 6.86328 9.86328 8.45703 9.86328 10.5664ZM12.1602 19.4492H15.7227C15.9805 19.4492 16.2031 19.2266 16.2031 18.9688C16.2031 18.7109 15.9805 18.5 15.7227 18.5H12.1602C11.9023 18.5 11.6914 18.7109 11.6914 18.9688C11.6914 19.2266 11.9023 19.4492 12.1602 19.4492ZM13.9414 21.0312C14.7852 21.0312 15.4062 20.6445 15.4766 20.0469H12.4062C12.4648 20.6445 13.0977 21.0312 13.9414 21.0312Z" fill="black" fill-opacity="0.85"/>
</g>
<defs>
<clipPath id="clip0_2124_49973">
<rect width="23.9062" height="23.918" fill="white" transform="translate(2 2)"/>
</clipPath>
</defs>
</svg>
