<svg width="28" height="28" viewBox="0 0 28 28" fill="none" xmlns="http://www.w3.org/2000/svg">
<path d="M6.67969 24.5977H20.8945C23.3555 24.5977 24.5742 23.3789 24.5742 20.9648V6.65625C24.5742 4.24219 23.3555 3.02344 20.8945 3.02344H6.67969C4.23047 3.02344 3 4.23047 3 6.65625V20.9648C3 23.3906 4.23047 24.5977 6.67969 24.5977Z" fill="black" fill-opacity="0.85"/>
<path d="M9.99609 16.793C9.46875 16.793 9.11719 16.3828 9.11719 15.8203V10.125C9.11719 9.41016 9.50391 9.12891 10.125 9.12891H15.8438C16.418 9.12891 16.7812 9.48047 16.7812 10.0195C16.7812 10.5469 16.4062 10.8984 15.8203 10.8984H13.6406L11.8477 10.7109L13.7344 12.4687L18.1758 16.8984C18.3516 17.0742 18.4688 17.3203 18.4688 17.5547C18.4688 18.1055 18.1055 18.457 17.5781 18.457C17.2852 18.457 17.0625 18.3516 16.875 18.1758L12.457 13.7461L10.7109 11.8828L10.8867 13.7695V15.8438C10.8867 16.418 10.5352 16.793 9.99609 16.793Z" fill="white"/>
</svg>
