<svg width="28" height="28" viewBox="0 0 28 28" fill="none" xmlns="http://www.w3.org/2000/svg">
<path d="M13.9531 25.9062C20.4922 25.9062 25.9062 20.4805 25.9062 13.9531C25.9062 7.41406 20.4805 2 13.9414 2C7.41406 2 2 7.41406 2 13.9531C2 20.4805 7.42578 25.9062 13.9531 25.9062ZM13.9531 23.9141C8.42188 23.9141 4.00391 19.4844 4.00391 13.9531C4.00391 8.42188 8.41016 3.99219 13.9414 3.99219C19.4727 3.99219 23.9141 8.42188 23.9141 13.9531C23.9141 19.4844 19.4844 23.9141 13.9531 23.9141Z" fill="black" fill-opacity="0.85"/>
<path d="M16.707 21.1016C17.082 21.1016 17.4336 20.8555 17.4336 20.4102C17.4336 20.2344 17.3984 20.082 17.3047 19.8945L15.9219 17.0703C15.7695 16.7773 15.6289 16.5781 15.5117 16.4141L14.6797 15.2305L14.75 15.0312C14.9961 14.3164 15.1133 13.8477 15.1602 13.1445L15.2891 11.2695C15.3594 10.2617 14.7969 9.44141 13.6836 9.44141C12.9453 9.44141 12.2891 9.80469 11.5742 10.4961L10.4961 11.5391C10.1328 11.8906 10.0391 12.1719 9.99219 12.6172L9.86328 14.1875C9.81641 14.6562 10.0859 14.9609 10.5195 14.9961C10.9063 15.0195 11.1992 14.7852 11.2461 14.2812L11.3867 12.5938L11.9609 12.0898C12.1367 11.9375 12.3477 12.0312 12.3242 12.2891L12.2188 13.7188C12.1602 14.5039 12.5352 15.0664 12.9219 15.5469L14.2812 17.2461C14.3984 17.3984 14.4219 17.457 14.4922 17.5859L15.9922 20.6211C16.1445 20.9492 16.3906 21.1016 16.707 21.1016ZM10.332 21.1016C10.5547 21.1016 10.7656 21.0195 10.8945 20.8555L13.0391 18.3008C13.2734 18.0195 13.3086 18.0078 13.3672 17.75L13.4844 17.2461L12.3008 15.7695L11.9609 17.4219L9.98047 19.7656C9.81641 19.9531 9.66406 20.1406 9.66406 20.4219C9.66406 20.8438 9.94531 21.1016 10.332 21.1016ZM17.0938 13.5547H18.7578C19.25 13.5547 19.5312 13.2852 19.5312 12.8516C19.5312 12.4414 19.25 12.1602 18.7578 12.1602H17L15.8984 10.9414L15.7695 12.7695L16.25 13.25C16.4961 13.4961 16.6953 13.5547 17.0938 13.5547ZM14.5625 8.89062C15.4062 8.89062 16.0977 8.19922 16.0977 7.37891C16.0977 6.52344 15.4062 5.85547 14.5625 5.85547C13.7188 5.85547 13.0508 6.52344 13.0508 7.37891C13.0508 8.19922 13.7188 8.89062 14.5625 8.89062Z" fill="black" fill-opacity="0.85"/>
</svg>
