<svg width="28" height="29" viewBox="0 0 28 29" fill="none" xmlns="http://www.w3.org/2000/svg">
<path d="M0 14.2254C0 20.7645 5.42578 26.1785 11.9531 26.1785C18.4922 26.1785 23.9062 20.7645 23.9062 14.2254C23.9062 8.45979 19.6992 3.57307 14.2148 2.49495V0.830886C14.2148 -0.00114524 13.6406 -0.223801 13.0078 0.23323L9.26953 2.84651C8.73047 3.22151 8.71875 3.78401 9.26953 4.17073L12.9961 6.79573C13.6406 7.26448 14.2148 7.04182 14.2148 6.19807V4.53401C18.6445 5.54182 21.9023 9.47932 21.9023 14.2254C21.9023 19.7567 17.4844 24.1864 11.9531 24.1864C6.42188 24.1864 1.98047 19.7567 1.99219 14.2254C2.00391 10.8973 3.62109 7.95589 6.11719 6.17464C6.59766 5.81135 6.75 5.26057 6.45703 4.76839C6.16406 4.28792 5.51953 4.15901 5.00391 4.55745C1.99219 6.74885 0 10.2879 0 14.2254Z" fill="black" fill-opacity="0.85"/>
<path d="M8.88281 19.0419C9.39844 19.0419 9.70312 18.6786 9.70312 18.1747V10.7685C9.70312 10.1943 9.33984 9.85437 8.76562 9.85437C8.29688 9.85437 7.95703 10.0654 7.59375 10.3466L6.26953 11.331C6.03516 11.495 5.89453 11.6943 5.89453 11.9755C5.89453 12.3154 6.14062 12.5732 6.46875 12.5732C6.64453 12.5732 6.76172 12.5263 6.89062 12.4208L8.05078 11.5536H8.07422V18.1747C8.07422 18.6786 8.37891 19.0419 8.88281 19.0419ZM14.6484 19.1122C16.4766 19.1122 17.6133 17.7646 17.6133 15.9365C17.6133 14.3661 16.7227 13.0185 15.1758 13.0185C14.4023 13.0185 13.7461 13.3818 13.4297 13.9794H13.3828L13.5938 11.3075H16.5703C16.957 11.3075 17.2148 11.0497 17.2148 10.6513C17.2148 10.2529 16.9688 9.995 16.5703 9.995H13.1719C12.5625 9.995 12.2812 10.3115 12.2461 10.9325L11.9883 14.3427C11.9531 14.87 12.2227 15.2568 12.7383 15.2568C13.1133 15.2568 13.2773 15.1044 13.5117 14.8232C13.793 14.4482 14.1914 14.2138 14.6602 14.2138C15.5859 14.2138 16.043 15.0458 16.043 15.9833C16.043 16.9794 15.5391 17.8115 14.6484 17.8115C13.9453 17.8115 13.4766 17.3544 13.2422 16.745C13.0898 16.4169 12.8555 16.241 12.5391 16.241C12.1289 16.241 11.8711 16.5107 11.8711 16.9208C11.8711 17.0615 11.8945 17.2021 11.9297 17.331C12.2227 18.456 13.5117 19.1122 14.6484 19.1122Z" fill="black" fill-opacity="0.85"/>
</svg>
