<svg width="28" height="28" viewBox="0 0 28 28" fill="none" xmlns="http://www.w3.org/2000/svg">
<path d="M7.11328 25.1133C7.79297 25.1133 8.23828 24.668 8.23828 23.9531V16.5586C8.23828 11.2148 10.4766 8.63672 13.9102 8.63672C17.3438 8.63672 19.582 11.2148 19.582 16.5586V23.9531C19.582 24.668 20.0273 25.1133 20.6953 25.1133C21.3633 25.1133 21.8203 24.668 21.8203 23.9531V16.3828C21.8203 9.94922 18.6562 6.57422 13.9102 6.57422C9.15234 6.57422 6 9.94922 6 16.3828V23.9531C6 24.668 6.44531 25.1133 7.11328 25.1133ZM13.0195 24.2344C13.0195 24.7266 13.418 25.1133 13.9102 25.1133C14.4023 25.1133 14.7891 24.7266 14.7891 24.2344V3.87891C14.7891 3.38672 14.4023 3 13.9102 3C13.418 3 13.0195 3.38672 13.0195 3.87891V24.2344Z" fill="black" fill-opacity="0.85"/>
</svg>
