<svg width="28" height="28" viewBox="0 0 28 28" fill="none" xmlns="http://www.w3.org/2000/svg">
<path d="M6.67969 24.5977H20.8945C23.3555 24.5977 24.5742 23.3789 24.5742 20.9648V6.65625C24.5742 4.24219 23.3555 3.02344 20.8945 3.02344H6.67969C4.23047 3.02344 3 4.23047 3 6.65625V20.9648C3 23.3906 4.23047 24.5977 6.67969 24.5977ZM6.70312 22.7109C5.53125 22.7109 4.88672 22.0898 4.88672 20.8711V6.75C4.88672 5.53125 5.53125 4.91016 6.70312 4.91016H20.8711C22.0312 4.91016 22.6875 5.53125 22.6875 6.75V20.8711C22.6875 22.0898 22.0312 22.7109 20.8711 22.7109H6.70312Z" fill="black" fill-opacity="0.85"/>
<path d="M11.3086 18.6797C11.7539 18.6797 12.1172 18.4102 12.1172 17.8477V16.6758H12.5273C12.9844 16.6758 13.1953 16.3828 13.1953 15.9844C13.1953 15.6094 12.9961 15.3164 12.5273 15.3164H12.1172V10.1719C12.1172 9.36328 11.5781 8.90625 10.8164 8.90625C9.99609 8.90625 9.60938 9.32812 9.28125 10.0547L7.18359 14.6016C6.98438 15.0586 6.91406 15.3633 6.91406 15.7266C6.91406 16.2891 7.3125 16.6758 7.875 16.6758H10.5V17.8477C10.5 18.4688 10.9453 18.6797 11.3086 18.6797ZM10.5352 15.3516H8.35547V15.2695L10.4883 10.3828H10.5352V15.3516ZM16.6758 15.2578C17.625 15.2578 18.3398 14.625 18.6094 13.6172H18.6562C18.6562 13.6641 18.6562 13.7109 18.6562 13.7461C18.6562 15.0469 18.4922 17.3906 17.1797 17.3906C16.6523 17.3906 16.3008 17.0273 16.0898 16.5234C15.9258 16.1367 15.6914 15.9844 15.3398 15.9844C14.8477 15.9844 14.6367 16.3125 14.6367 16.6992C14.6367 16.8398 14.6719 16.9805 14.707 17.1211C14.9648 18.1406 15.9727 18.7617 17.1562 18.7617C19.5586 18.7617 20.25 16.1016 20.25 13.6992C20.25 11.4844 19.5469 8.83594 17.168 8.83594C15.3867 8.83594 14.3555 10.3359 14.3555 12.1758C14.3555 13.7578 15.1172 15.2578 16.6758 15.2578ZM17.1914 13.9688C16.3242 13.9688 15.9727 12.9727 15.9727 12.1055C15.9727 11.2266 16.3711 10.1953 17.1914 10.1953C18.082 10.1953 18.4336 11.2266 18.4336 12.1055C18.4336 13.0078 18.0352 13.9688 17.1914 13.9688Z" fill="black" fill-opacity="0.85"/>
</svg>
