<svg width="28" height="28" viewBox="0 0 28 28" fill="none" xmlns="http://www.w3.org/2000/svg">
<path d="M4.00008 11.9717C2.38289 12.7217 2.82821 14.8897 4.60946 14.9014L13.1524 14.9366C13.2931 14.9366 13.3282 14.9718 13.3282 15.1124L13.3516 23.585C13.3634 25.4366 15.5665 25.7647 16.3516 24.0655L25.0118 5.44441C25.8087 3.71003 24.4493 2.47956 22.7266 3.28815L4.00008 11.9717ZM6.03914 13.0733C5.99227 13.0733 5.98055 13.0264 6.03914 13.003L22.879 5.29206C22.961 5.25691 22.9962 5.28034 22.961 5.37409L15.2032 22.2022C15.1915 22.2491 15.1446 22.2374 15.1446 22.1905L15.2032 13.9054C15.2032 13.3897 14.8399 13.0264 14.3126 13.0264L6.03914 13.0733Z" fill="black" fill-opacity="0.85"/>
</svg>
