<svg width="28" height="28" viewBox="0 0 28 28" fill="none" xmlns="http://www.w3.org/2000/svg">
<path d="M6.67969 24.5977H20.8945C23.3555 24.5977 24.5742 23.3789 24.5742 20.9648V6.65625C24.5742 4.24219 23.3555 3.02344 20.8945 3.02344H6.67969C4.23047 3.02344 3 4.23047 3 6.65625V20.9648C3 23.3906 4.23047 24.5977 6.67969 24.5977Z" fill="black" fill-opacity="0.85"/>
<path d="M9.76172 13.793C9.76172 11.3086 11.0977 9.65625 13.1836 9.375V8.47266C13.1836 8.12109 13.4414 7.86328 13.7812 7.86328C14.1328 7.86328 14.3789 8.12109 14.3789 8.47266V9.36328C15.9023 9.55078 16.9922 10.4297 17.3438 11.5078C17.3789 11.625 17.4141 11.7539 17.4141 11.9063C17.4141 12.3398 17.1328 12.6328 16.7109 12.6328C16.3711 12.6328 16.125 12.457 15.9844 12.1055C15.7148 11.4375 15.1758 10.9453 14.3789 10.7813V16.8047C15.1875 16.6406 15.7266 16.1602 15.9961 15.4688C16.125 15.1641 16.3711 14.9648 16.6992 14.9648C17.1211 14.9648 17.4258 15.2578 17.4258 15.6797C17.4258 15.832 17.3906 15.9727 17.3555 16.1016C17.0039 17.1797 15.9141 18.0469 14.3789 18.2344V19.125C14.3789 19.4766 14.1328 19.7227 13.7812 19.7227C13.4414 19.7227 13.1836 19.4766 13.1836 19.125V18.2227C11.0977 17.9414 9.76172 16.3008 9.76172 13.793ZM11.2969 13.793C11.2969 15.4453 12.0234 16.5 13.1836 16.7695V10.8164C12.0234 11.0977 11.2969 12.1641 11.2969 13.793Z" fill="white"/>
</svg>
