<svg width="28" height="28" viewBox="0 0 28 28" fill="none" xmlns="http://www.w3.org/2000/svg">
<path d="M13.9531 25.9062C20.4922 25.9062 25.9062 20.4805 25.9062 13.9531C25.9062 7.41406 20.4805 2 13.9414 2C7.41406 2 2 7.41406 2 13.9531C2 20.4805 7.42578 25.9062 13.9531 25.9062ZM13.9531 23.9141C8.42188 23.9141 4.00391 19.4844 4.00391 13.9531C4.00391 8.42188 8.41016 3.99219 13.9414 3.99219C19.4727 3.99219 23.9141 8.42188 23.9141 13.9531C23.9141 19.4844 19.4844 23.9141 13.9531 23.9141Z" fill="black" fill-opacity="0.85"/>
<path d="M9.05469 18.6992H12.4297C12.8164 18.6992 13.1445 18.3828 13.1445 17.9844C13.1445 17.5977 12.8164 17.2812 12.4297 17.2812H9.92188V9.92188C9.92188 9.46484 9.53516 9.07812 9.07812 9.07812C8.60938 9.07812 8.22266 9.46484 8.22266 9.92188V17.8203C8.22266 18.3711 8.52734 18.6992 9.05469 18.6992ZM15.1953 18.7109H17.6797C19.3438 18.7109 20.293 17.6094 20.293 16.0273C20.293 14.8906 19.6016 13.8359 18.4883 13.7305V13.6719C19.3906 13.5078 20 12.5234 20 11.5859C20 10.0859 18.9922 9.23047 17.6094 9.23047H15.1953C14.6445 9.23047 14.3516 9.60547 14.3516 10.1211V17.8203C14.3516 18.3594 14.6562 18.7109 15.1953 18.7109ZM16.0273 13.25V10.5313H17.1289C18.0078 10.5313 18.3594 11.0938 18.3594 11.8555C18.3594 12.7227 17.8555 13.25 16.9883 13.25H16.0273ZM16.0273 17.4102V14.3984H17.1172C17.9844 14.3984 18.582 14.8555 18.582 15.8984C18.582 16.8359 18.1133 17.4102 17.1641 17.4102H16.0273Z" fill="black" fill-opacity="0.85"/>
</svg>
