<svg width="28" height="28" viewBox="0 0 28 28" fill="none" xmlns="http://www.w3.org/2000/svg">
<g clip-path="url(#clip0_2124_49963)">
<path d="M2 26.0195C2 26.5586 2.44531 26.9922 2.97266 26.9922C3.51172 26.9922 3.95703 26.5586 3.95703 26.0195V1.97266C3.95703 1.43359 3.51172 1 2.97266 1C2.44531 1 2 1.43359 2 1.97266V26.0195Z" fill="black" fill-opacity="0.85"/>
<path d="M11.2107 26.3242L14.7264 22.1289C15.0779 21.7188 15.1248 21.625 15.2654 21.1914L15.5232 20.3945L13.6365 18.0273L13.074 20.6758L9.59353 24.8008C8.49197 26.125 10.2967 27.4141 11.2107 26.3242ZM19.7889 25.9727C20.5037 27.4375 22.6717 26.5352 21.8865 24.9414L19.4959 20.1016C19.3084 19.7383 19.0506 19.3398 18.8279 19.0234L17.3162 16.8789L17.4217 16.5625C17.8318 15.3438 17.9842 14.6172 18.0662 13.4102L18.3006 10.0234C18.4178 8.41797 17.4686 7.19922 15.8279 7.19922C14.5857 7.19922 13.7537 7.82031 12.617 8.93359L10.824 10.7031C10.2381 11.2773 10.0506 11.7461 9.99197 12.5078L9.76931 15.2734C9.71072 15.9766 10.0974 16.4688 10.7537 16.4922C11.4099 16.5391 11.8084 16.1523 11.867 15.4023L12.1248 12.3672L12.992 11.5938C13.2967 11.3125 13.7068 11.5 13.6834 11.8164L13.4959 14.3828C13.3904 15.6836 13.6951 16.3047 14.5975 17.418L16.9646 20.3945C17.2107 20.6992 17.2342 20.8164 17.3396 21.0039L19.7889 25.9727ZM23.8553 11.7695H21.16L19.449 9.88281L19.2498 12.707L19.9295 13.3867C20.3045 13.7617 20.6443 13.8789 21.3357 13.8789H23.8553C24.5701 13.8789 25.0271 13.4805 25.0271 12.8242C25.0271 12.1914 24.5584 11.7695 23.8553 11.7695ZM17.1287 6.14453C18.5467 6.14453 19.6834 4.99609 19.6834 3.58984C19.6834 2.17188 18.5467 1.03516 17.1287 1.03516C15.7107 1.03516 14.574 2.17188 14.574 3.58984C14.574 4.99609 15.7107 6.14453 17.1287 6.14453Z" fill="black" fill-opacity="0.85"/>
</g>
<defs>
<clipPath id="clip0_2124_49963">
<rect width="23.0273" height="26.4492" fill="white" transform="translate(2 1)"/>
</clipPath>
</defs>
</svg>
