<svg width="28" height="28" viewBox="0 0 28 28" fill="none" xmlns="http://www.w3.org/2000/svg">
<path d="M6.67969 24.5977H20.8945C23.3555 24.5977 24.5742 23.3789 24.5742 20.9648V6.65625C24.5742 4.24219 23.3555 3.02344 20.8945 3.02344H6.67969C4.23047 3.02344 3 4.23047 3 6.65625V20.9648C3 23.3906 4.23047 24.5977 6.67969 24.5977ZM6.70312 22.7109C5.53125 22.7109 4.88672 22.0898 4.88672 20.8711V6.75C4.88672 5.53125 5.53125 4.91016 6.70312 4.91016H20.8711C22.0312 4.91016 22.6875 5.53125 22.6875 6.75V20.8711C22.6875 22.0898 22.0312 22.7109 20.8711 22.7109H6.70312Z" fill="black" fill-opacity="0.85"/>
<path d="M12.5156 19.3594C12.9023 19.3594 13.2305 19.1719 13.4648 18.8086L18.8203 10.3828C18.9609 10.1484 19.1016 9.89062 19.1016 9.63281C19.1016 9.10547 18.6328 8.76562 18.1523 8.76562C17.8477 8.76562 17.5547 8.95312 17.332 9.29297L12.4688 17.0977L10.1602 14.1094C9.87891 13.7344 9.62109 13.6406 9.30469 13.6406C8.78906 13.6406 8.39062 14.0508 8.39062 14.5664C8.39062 14.8242 8.49609 15.0703 8.66016 15.293L11.5195 18.8086C11.8125 19.1953 12.1289 19.3594 12.5156 19.3594Z" fill="black" fill-opacity="0.85"/>
</svg>
