<svg width="28" height="28" viewBox="0 0 28 28" fill="none" xmlns="http://www.w3.org/2000/svg">
<path d="M25.6728 8.35156C26.0713 8.35156 26.3642 8.05859 26.3642 7.66016V2.69141C26.3642 2.29297 26.0713 2 25.6728 2H25.0517C24.6533 2 24.3603 2.29297 24.3603 2.69141V7.66016C24.3603 8.05859 24.6533 8.35156 25.0517 8.35156H25.6728ZM25.6728 17.0352C26.0713 17.0352 26.3642 16.7422 26.3642 16.3438V11.3867C26.3642 11 26.0713 10.707 25.6728 10.707H25.0517C24.6533 10.707 24.3603 11 24.3603 11.3867V16.3438C24.3603 16.7422 24.6533 17.0352 25.0517 17.0352H25.6728ZM25.6728 25.7422C26.0713 25.7422 26.3642 25.4492 26.3642 25.0508V20.082C26.3642 19.6836 26.0713 19.3906 25.6728 19.3906H25.0517C24.6533 19.3906 24.3603 19.6836 24.3603 20.082V25.0508C24.3603 25.4492 24.6533 25.7422 25.0517 25.7422H25.6728ZM3.80566 8.33984C4.20409 8.33984 4.49706 8.04688 4.49706 7.66016V2.69141C4.49706 2.29297 4.20409 2 3.80566 2H3.18456C2.78612 2 2.49316 2.29297 2.49316 2.69141V7.66016C2.49316 8.04688 2.78612 8.33984 3.18456 8.33984H3.80566ZM3.80566 25.7305C4.20409 25.7305 4.49706 25.4375 4.49706 25.0508V20.082C4.49706 19.6836 4.20409 19.3906 3.80566 19.3906H3.18456C2.78612 19.3906 2.49316 19.6836 2.49316 20.082V25.0508C2.49316 25.4375 2.78612 25.7305 3.18456 25.7305H3.80566Z" fill="black" fill-opacity="0.85"/>
<path d="M15.3486 23.2695C18.9228 21.207 20.0596 19.4609 18.8642 17.3984L11.8564 5.25781C10.626 3.125 7.94236 3.01953 4.71971 4.87109C1.47361 6.73438 0.231426 9.125 1.47361 11.2578L8.46971 23.3984C9.67674 25.4609 11.7627 25.332 15.3486 23.2695ZM4.54393 14.7617L3.43065 12.8281L2.24705 13.5078C1.7783 13.7773 1.64939 14.3281 1.89549 14.7734L2.09471 15.1367C2.3408 15.5703 2.9033 15.7227 3.36033 15.4531L4.54393 14.7617Z" fill="white"/>
<path d="M15.3486 23.2695C18.9228 21.207 20.0596 19.4609 18.8642 17.3984L11.8564 5.25781C10.626 3.125 7.94236 3.01953 4.71971 4.87109C1.47361 6.73438 0.231426 9.125 1.47361 11.2578L8.46971 23.3984C9.67674 25.4609 11.7627 25.332 15.3486 23.2695ZM9.1494 12.5469C8.49315 12.9336 7.42674 13.6367 7.07518 13.8477C6.50096 14.1758 6.0908 14.1055 5.68065 13.5078L4.7783 12.2305C4.05174 11.1758 4.53221 10.332 7.04002 8.89062C9.5244 7.44922 10.4971 7.44922 11.0596 8.62109L11.7041 10.0391C11.9971 10.6602 11.8916 11.0586 11.2939 11.3867C10.9306 11.6211 9.8408 12.1484 9.1494 12.5469ZM13.626 20.3047C11.1416 21.7461 10.122 21.8281 9.64158 20.5859L9.37205 19.8711C8.97361 18.8633 9.5244 18.1719 11.6806 16.9414C13.8135 15.6992 14.7158 15.5586 15.3721 16.4023L15.8525 17C16.6846 18.0547 16.0986 18.875 13.626 20.3047ZM13.3564 9.67578L14.5517 8.99609C14.9971 8.73828 15.1611 8.16406 14.9033 7.73047L14.6924 7.37891C14.4346 6.93359 13.8838 6.79297 13.4267 7.0625L12.2431 7.75391L13.3564 9.67578ZM4.54393 14.7617L3.43065 12.8281L2.24705 13.5078C1.7783 13.7773 1.64939 14.3281 1.89549 14.7734L2.09471 15.1367C2.3408 15.5703 2.9033 15.7227 3.36033 15.4531L4.54393 14.7617Z" fill="black" fill-opacity="0.85"/>
</svg>
