<svg width="28" height="28" viewBox="0 0 28 28" fill="none" xmlns="http://www.w3.org/2000/svg">
<g clip-path="url(#clip0_2124_68655)">
<path d="M29.3281 14.8736V7.526C29.3281 5.41663 27.9102 3.98694 25.7891 3.98694L2.51562 3.99866C0.41797 3.99866 -1 5.44006 -1 7.56116V14.8736C-1 17.9088 0.30078 19.7721 3.42969 20.6978L13.5781 23.651C16.2969 24.4478 18.043 24.1314 20.4688 22.8775L27.0547 19.4908C28.918 18.5299 29.3281 17.3814 29.3281 14.8736ZM27.4414 14.8736C27.4414 16.608 27.1133 17.3697 25.8594 18.0025L19.4609 21.2721C17.4453 22.2916 16.0156 22.5025 13.5781 21.776L3.98047 18.9283C1.77734 18.2838 0.88672 17.0064 0.88672 14.8736V7.59631C0.88672 6.56506 1.54297 5.88538 2.55078 5.88538L25.7656 5.87366C26.7734 5.87366 27.4414 6.54163 27.4414 7.56116V14.8736Z" fill="black" fill-opacity="0.85"/>
</g>
<defs>
<clipPath id="clip0_2124_68655">
<rect width="28" height="28" fill="white"/>
</clipPath>
</defs>
</svg>
