<svg width="28" height="30" viewBox="0 0 28 30" fill="none" xmlns="http://www.w3.org/2000/svg">
<path d="M20.3594 11.7881C21.7773 11.7881 22.9258 10.6396 22.9258 9.22167C22.9258 7.80371 21.7773 6.65527 20.3594 6.65527C18.9414 6.65527 17.8047 7.80371 17.8047 9.22167C17.8047 10.6396 18.9414 11.7881 20.3594 11.7881ZM13.7617 0.749018C12.6602 -0.364264 11.3477 -0.30567 9.63672 1.39355C8.6875 2.36621 8.18359 4.32324 7.87891 5.71777L6.14453 7.46386C5.60547 8.00292 5.72266 8.74121 6.20312 9.22167L9.66016 12.667C9.88281 12.8662 10.1641 12.9951 10.4922 12.9951H12.8359C12.918 12.9951 12.9531 13.124 12.8828 13.1592L10.4453 14.3779C8.37109 15.3975 7.89062 18.1514 10 19.71L14.3359 22.874L11.8164 27.9131C11.5234 28.499 11.7578 29.2256 12.332 29.5068C12.8711 29.7764 13.5977 29.6123 13.9258 28.9795L16.832 23.167C17.0664 22.6865 17.1133 22.1006 16.5859 21.5732L13.0938 18.0928L17.6406 15.831C17.8633 15.7139 18.1094 15.7607 18.2617 15.9248L24.5078 22.1592C24.9766 22.6279 25.75 22.6045 26.1719 22.1592C26.6289 21.6904 26.6406 20.9521 26.1719 20.4834L16.9609 11.2725C16.5508 10.8623 16.1172 10.6279 15.543 10.6279H10.9844L7.90234 7.54589L8.81641 6.63183C10.2109 6.33886 12.1797 5.83496 13.1172 4.87402C14.8398 3.1748 14.8984 1.85058 13.7617 0.749018ZM12.8594 1.6748C13.4688 2.27246 13.2695 2.87011 12.2031 3.95996C11.5352 4.61621 10.2812 4.92089 9.33203 5.20214C9.58984 4.22949 9.90625 2.99902 10.5742 2.31933C11.6523 1.24121 12.2266 1.06542 12.8594 1.6748ZM2.18359 24.8779H8.125C8.62891 24.8779 9.03906 24.5146 9.25 24.081L10.5273 21.5381L9.30859 20.6357C8.875 20.3193 8.52344 19.956 8.24219 19.5693L7.25781 22.499H2.18359C1.53906 22.499 1 23.0381 1 23.6826C1 24.3623 1.53906 24.8779 2.18359 24.8779Z" fill="black" fill-opacity="0.85"/>
</svg>
