<svg width="28" height="28" viewBox="0 0 28 28" fill="none" xmlns="http://www.w3.org/2000/svg">
<path d="M13.9531 25.9062C20.4922 25.9062 25.9062 20.4805 25.9062 13.9531C25.9062 7.41406 20.4805 2 13.9414 2C7.41406 2 2 7.41406 2 13.9531C2 20.4805 7.42578 25.9062 13.9531 25.9062ZM13.9531 23.9141C8.42188 23.9141 4.00391 19.4844 4.00391 13.9531C4.00391 8.42188 8.41016 3.99219 13.9414 3.99219C19.4727 3.99219 23.9141 8.42188 23.9141 13.9531C23.9141 19.4844 19.4844 23.9141 13.9531 23.9141Z" fill="black" fill-opacity="0.85"/>
<path d="M12.1016 12.1133C11.3398 12.875 11.3398 13.9883 12.1016 14.75C12.2422 14.8906 12.5469 15.1133 12.7344 15.2539L18.418 19.1914C18.6992 19.3906 18.9805 19.332 19.1562 19.168C19.3203 18.9922 19.3789 18.7109 19.1797 18.4297L15.2422 12.7461C15.1016 12.5586 14.8906 12.2539 14.7383 12.1133C13.9766 11.3398 12.875 11.3398 12.1016 12.1133ZM9.18359 19.6719C9.73438 19.6719 10.1914 19.2148 10.1914 18.6641C10.1914 18.1133 9.73438 17.6562 9.18359 17.6562C8.63281 17.6562 8.17578 18.1133 8.17578 18.6641C8.17578 19.2148 8.63281 19.6719 9.18359 19.6719ZM7.20312 14.9609C7.75391 14.9609 8.21094 14.5039 8.21094 13.9531C8.21094 13.4023 7.75391 12.9453 7.20312 12.9453C6.65234 12.9453 6.19531 13.4023 6.19531 13.9531C6.19531 14.5039 6.65234 14.9609 7.20312 14.9609ZM9.18359 10.25C9.73438 10.25 10.1914 9.79297 10.1914 9.24219C10.1914 8.67969 9.73438 8.23438 9.18359 8.23438C8.63281 8.23438 8.17578 8.67969 8.17578 9.24219C8.17578 9.79297 8.63281 10.25 9.18359 10.25ZM13.9414 8.23438C14.4922 8.23438 14.9492 7.77734 14.9492 7.22656C14.9492 6.67578 14.4922 6.21875 13.9414 6.21875C13.3906 6.21875 12.9336 6.67578 12.9336 7.22656C12.9336 7.77734 13.3906 8.23438 13.9414 8.23438ZM18.6992 10.25C19.25 10.25 19.707 9.79297 19.707 9.24219C19.707 8.67969 19.25 8.23438 18.6992 8.23438C18.1484 8.23438 17.6914 8.67969 17.6914 9.24219C17.6914 9.79297 18.1484 10.25 18.6992 10.25ZM20.6562 14.9609C21.207 14.9609 21.6641 14.5039 21.6641 13.9531C21.6641 13.4023 21.207 12.9453 20.6562 12.9453C20.1055 12.9453 19.6484 13.4023 19.6484 13.9531C19.6484 14.5039 20.1055 14.9609 20.6562 14.9609Z" fill="black" fill-opacity="0.85"/>
</svg>
