<svg width="28" height="28" viewBox="0 0 28 28" fill="none" xmlns="http://www.w3.org/2000/svg">
<g clip-path="url(#clip0_2124_89365)">
<path d="M14.5 5.52343C15.3555 5.52343 16.0352 4.76171 16.0352 3.77733C16.0352 2.76952 15.7188 2.11327 15.1562 1.45702C14.7812 0.988267 14.2773 0.976548 13.8906 1.3867C13.3281 2.0664 12.9648 2.73437 12.9648 3.77733C12.9648 4.76171 13.6562 5.52343 14.5 5.52343ZM13.832 10.9258H15.1328V4.26952H13.832V10.9258ZM6.84766 16.6562H8.73438V13.8203C8.73438 12.707 9.35547 12.1094 10.4219 12.1094H18.5664C19.6328 12.1094 20.2656 12.707 20.2656 13.8203V16.6562H22.1523V13.7266C22.1523 11.4062 20.957 10.2226 18.6016 10.2226H10.3984C8.05469 10.2226 6.84766 11.4062 6.84766 13.7266V16.6562ZM2.85156 26.8164H4.73828V19.75C4.73828 18.6367 5.35938 18.0273 6.42578 18.0273H22.5625C23.6289 18.0273 24.25 18.6367 24.25 19.75V26.8164H26.1367V19.6445C26.1367 17.3242 24.9414 16.1406 22.5977 16.1406H6.40234C4.05859 16.1406 2.85156 17.3242 2.85156 19.6445V26.8164ZM14.4883 22.0352C15.5078 22.0352 16.3164 23.3477 18.0391 23.3477C19.7031 23.3477 20.4414 22.0352 21.4023 22.0352C22.3633 22.0352 23.1133 23.3477 24.9297 23.3477H25.2461V21.5195H24.9297C23.8164 21.5195 23.0195 20.207 21.4023 20.207C19.7734 20.207 19.1641 21.5195 18.0391 21.5195C16.6914 21.5195 16.1406 20.207 14.4883 20.207C12.8242 20.207 12.2852 21.5195 10.9375 21.5195C9.8125 21.5195 9.20312 20.207 7.57422 20.207C5.94531 20.207 5.16016 21.5195 4.04688 21.5195H3.66016V23.3477H4.04688C5.86328 23.3477 6.61328 22.0352 7.57422 22.0352C8.52344 22.0352 9.27344 23.3477 10.9375 23.3477C12.6602 23.3477 13.457 22.0352 14.4883 22.0352ZM1.9375 27.6367H27.0508C27.5664 27.6367 27.9883 27.2031 27.9883 26.6875C27.9883 26.1719 27.5664 25.75 27.0508 25.75H1.9375C1.42188 25.75 1 26.1719 1 26.6875C1 27.2031 1.42188 27.6367 1.9375 27.6367Z" fill="black" fill-opacity="0.85"/>
</g>
<defs>
<clipPath id="clip0_2124_89365">
<rect width="26.9883" height="26.6367" fill="white" transform="translate(1 1)"/>
</clipPath>
</defs>
</svg>
