<svg width="28" height="28" viewBox="0 0 28 28" fill="none" xmlns="http://www.w3.org/2000/svg">
<path d="M13.9531 25.9062C20.4922 25.9062 25.9062 20.4805 25.9062 13.9531C25.9062 7.41406 20.4805 2 13.9414 2C7.41406 2 2 7.41406 2 13.9531C2 20.4805 7.42578 25.9062 13.9531 25.9062ZM13.9531 23.9141C8.42188 23.9141 4.00391 19.4844 4.00391 13.9531C4.00391 8.42188 8.41016 3.99219 13.9414 3.99219C19.4727 3.99219 23.9141 8.42188 23.9141 13.9531C23.9141 19.4844 19.4844 23.9141 13.9531 23.9141Z" fill="black" fill-opacity="0.85"/>
<path d="M8.90234 16.7773H14.7148C16.2969 16.7773 17.5039 15.5703 17.5039 14.0234C17.5039 12.5117 16.2852 11.3632 14.668 11.3281C14.0352 10.1445 12.9102 9.41793 11.5625 9.41793C9.78125 9.41793 8.28125 10.8007 8.09375 12.5703C7.20312 12.875 6.58203 13.6484 6.58203 14.6445C6.58203 15.875 7.51953 16.7773 8.90234 16.7773ZM9.35938 19.2617L10.0273 18.1133C10.1563 17.9141 10.0859 17.6562 9.86328 17.5391C9.66406 17.4102 9.40625 17.4922 9.30078 17.6914L8.63281 18.8398C8.51562 19.0391 8.57422 19.3086 8.78516 19.4141C8.98438 19.5312 9.25391 19.4609 9.35938 19.2617ZM10.8594 20.5039L11.4805 19.4258C11.5977 19.2266 11.5391 18.957 11.3164 18.8398C11.1055 18.7344 10.8594 18.793 10.7305 19.0039L10.0977 20.082C9.98047 20.293 10.0625 20.5508 10.2852 20.668C10.4727 20.7852 10.7422 20.7031 10.8594 20.5039ZM13.1445 19.2617L13.8125 18.125C13.9414 17.9141 13.8594 17.668 13.6484 17.5391C13.4375 17.4219 13.1797 17.4805 13.0625 17.6797L12.4062 18.8281C12.3008 19.0273 12.3477 19.2969 12.5703 19.4141C12.7812 19.5195 13.0273 19.4492 13.1445 19.2617ZM14.6328 20.5156L15.2656 19.4258C15.3711 19.2266 15.3125 18.9453 15.1016 18.8398C14.8906 18.7344 14.6445 18.8047 14.5156 19.0039L13.8828 20.082C13.7656 20.293 13.8477 20.5508 14.0586 20.668C14.2578 20.7852 14.5156 20.7031 14.6328 20.5156ZM21.3594 11.0351C21.3594 10.8242 21.2656 10.6835 21.0898 10.6835C20.832 10.6835 20.3984 11.0117 19.6484 11.0117C18.2773 11.0117 17.4102 10.2148 17.4102 8.94918C17.4102 8.22262 17.8203 7.69527 17.8203 7.39058C17.8203 7.22652 17.6797 7.10934 17.4688 7.12105C16.3555 7.16793 14.9727 8.48043 14.7852 10.0976C14.9141 10.2382 15.0195 10.3906 15.1367 10.5429C16.8711 10.7539 18.1484 12.043 18.3125 13.707C20.1992 13.5078 21.3594 12.0195 21.3594 11.0351Z" fill="black" fill-opacity="0.85"/>
</svg>
