<svg width="28" height="28" viewBox="0 0 28 28" fill="none" xmlns="http://www.w3.org/2000/svg">
<g clip-path="url(#clip0_2124_78067)">
<path d="M13.9531 25.9062C20.4922 25.9062 25.9062 20.4805 25.9062 13.9531C25.9062 7.41406 20.4805 2 13.9414 2C7.41406 2 2 7.41406 2 13.9531C2 20.4805 7.42578 25.9062 13.9531 25.9062ZM13.9531 23.9141C8.42188 23.9141 4.00391 19.4844 4.00391 13.9531C4.00391 8.42188 8.41016 3.99219 13.9414 3.99219C19.4727 3.99219 23.9141 8.42188 23.9141 13.9531C23.9141 19.4844 19.4844 23.9141 13.9531 23.9141Z" fill="black" fill-opacity="0.85"/>
<path d="M10.9063 18.7461C11.1406 18.7461 11.3047 18.6992 11.4688 18.6172L18.4531 14.9844C18.9453 14.7266 19.1562 14.4336 19.1562 13.9531C19.1562 13.5078 18.9219 13.1797 18.4531 12.9219L11.4688 9.16016C11.293 9.06641 11.1406 9.01953 10.8828 9.01953C10.3438 9.01953 9.93359 9.41797 9.93359 9.94531C9.93359 10.3789 10.1445 10.6602 10.625 10.8945L16.5547 13.8828V13.9531L10.625 16.8711C10.1328 17.1055 9.93359 17.3633 9.93359 17.8086C9.93359 18.3477 10.3555 18.7461 10.9063 18.7461Z" fill="black" fill-opacity="0.85"/>
</g>
<defs>
<clipPath id="clip0_2124_78067">
<rect width="23.9062" height="23.918" fill="white" transform="translate(2 2)"/>
</clipPath>
</defs>
</svg>
