<svg width="28" height="28" viewBox="0 0 28 28" fill="none" xmlns="http://www.w3.org/2000/svg">
<path d="M25.6728 8.35156C26.0713 8.35156 26.3642 8.05859 26.3642 7.66016V2.69141C26.3642 2.29297 26.0713 2 25.6728 2H25.0517C24.6533 2 24.3603 2.29297 24.3603 2.69141V7.66016C24.3603 8.05859 24.6533 8.35156 25.0517 8.35156H25.6728ZM25.6728 17.0352C26.0713 17.0352 26.3642 16.7422 26.3642 16.3438V11.3867C26.3642 11 26.0713 10.707 25.6728 10.707H25.0517C24.6533 10.707 24.3603 11 24.3603 11.3867V16.3438C24.3603 16.7422 24.6533 17.0352 25.0517 17.0352H25.6728ZM25.6728 25.7422C26.0713 25.7422 26.3642 25.4492 26.3642 25.0508V20.082C26.3642 19.6836 26.0713 19.3906 25.6728 19.3906H25.0517C24.6533 19.3906 24.3603 19.6836 24.3603 20.082V25.0508C24.3603 25.4492 24.6533 25.7422 25.0517 25.7422H25.6728ZM3.80566 8.33984C4.20409 8.33984 4.49706 8.04688 4.49706 7.66016V2.69141C4.49706 2.29297 4.20409 2 3.80566 2H3.18456C2.78612 2 2.49316 2.29297 2.49316 2.69141V7.66016C2.49316 8.04688 2.78612 8.33984 3.18456 8.33984H3.80566ZM3.80566 25.7305C4.20409 25.7305 4.49706 25.4375 4.49706 25.0508V20.082C4.49706 19.6836 4.20409 19.3906 3.80566 19.3906H3.18456C2.78612 19.3906 2.49316 19.6836 2.49316 20.082V25.0508C2.49316 25.4375 2.78612 25.7305 3.18456 25.7305H3.80566Z" fill="black" fill-opacity="0.85"/>
<path d="M15.3486 23.2695C18.9228 21.207 20.0596 19.4609 18.8642 17.3984L11.8564 5.25781C10.626 3.125 7.94236 3.01953 4.71971 4.87109C1.47361 6.73438 0.231426 9.125 1.47361 11.2578L8.46971 23.3984C9.67674 25.4609 11.7627 25.332 15.3486 23.2695ZM4.54393 14.7617L3.43065 12.8281L2.24705 13.5078C1.7783 13.7773 1.64939 14.3281 1.89549 14.7734L2.09471 15.1367C2.3408 15.5703 2.9033 15.7227 3.36033 15.4531L4.54393 14.7617Z" fill="white"/>
<path d="M15.3486 23.2695C18.9228 21.207 20.0596 19.4609 18.8642 17.3984L11.8564 5.25781C10.626 3.125 7.94236 3.01953 4.71971 4.87109C1.47361 6.73438 0.231426 9.125 1.47361 11.2578L8.46971 23.3984C9.67674 25.4609 11.7627 25.332 15.3486 23.2695ZM14.5049 21.8398C11.833 23.3867 10.5205 23.5742 9.91111 22.5078L2.92674 10.4258C2.2119 9.18359 3.11424 7.73047 5.56346 6.3125C7.98924 4.91797 9.68846 4.87109 10.4033 6.10156L17.3877 18.1836C17.9971 19.2617 17.1885 20.293 14.5049 21.8398ZM9.18455 12.6055C9.85252 12.2188 10.9189 11.7031 11.2705 11.4805C11.8447 11.1641 11.9502 10.7773 11.6689 10.168L11.0361 8.79688C10.4971 7.66016 9.54783 7.66016 7.13377 9.05469C4.69627 10.4609 4.23924 11.2812 4.94236 12.3008L5.80955 13.543C6.20799 14.1172 6.60643 14.1875 7.16893 13.8711C7.50877 13.6602 8.55174 12.9805 9.18455 12.6055ZM13.5322 20.1406C15.9346 18.7461 16.4971 17.9492 15.6885 16.9297L15.2314 16.3555C14.5869 15.5352 13.7197 15.6641 11.6455 16.8711C9.54783 18.0664 9.00877 18.7461 9.39549 19.7188L9.66502 20.4102C10.1338 21.6172 11.1181 21.5352 13.5322 20.1406ZM13.3564 9.67578L14.5517 8.99609C14.9971 8.73828 15.1611 8.16406 14.9033 7.73047L14.6924 7.37891C14.4346 6.93359 13.8838 6.79297 13.4267 7.0625L12.2431 7.75391L13.3564 9.67578ZM4.54393 14.7617L3.43065 12.8281L2.24705 13.5078C1.7783 13.7773 1.64939 14.3281 1.89549 14.7734L2.09471 15.1367C2.3408 15.5703 2.9033 15.7227 3.36033 15.4531L4.54393 14.7617Z" fill="black" fill-opacity="0.85"/>
</svg>
