<svg width="28" height="35" viewBox="0 0 28 35" fill="none" xmlns="http://www.w3.org/2000/svg">
<path d="M14.4766 30.9697C21.9062 30.9697 27.9531 24.9346 27.9531 17.4932C27.9531 10.0518 21.9062 4.00488 14.4766 4.00488C7.03516 4.00488 1 10.0518 1 17.4932C1 24.9229 7.03516 30.9697 14.4766 30.9697ZM14.4766 29.083C8.05469 29.083 2.88672 23.915 2.88672 17.4932C2.88672 11.0713 8.05469 5.8916 14.4766 5.8916C20.8867 5.8916 26.0664 11.0713 26.0664 17.4932C26.0664 23.915 20.8867 29.083 14.4766 29.083Z" fill="black" fill-opacity="0.85"/>
<path d="M12.3556 7.80176H16.5743C18.7071 7.80176 19.7618 5.49316 18.4728 3.78223L16.3985 0.981445C15.4259 -0.331055 13.5274 -0.319336 12.5548 0.969727L10.4454 3.79395C9.17978 5.48145 10.211 7.80176 12.3556 7.80176Z" fill="white"/>
<path d="M12.3555 6.19629H16.5742C17.3945 6.19629 17.6875 5.3877 17.1953 4.74316L15.1094 1.93066C14.7695 1.48535 14.1719 1.48535 13.8438 1.93066L11.7227 4.75488C11.2656 5.37598 11.5117 6.19629 12.3555 6.19629Z" fill="black" fill-opacity="0.85"/>
<path d="M14.4766 26.8564C19.6445 26.8564 23.8281 22.6611 23.8281 17.4932C23.8281 12.3135 19.6445 8.1416 14.4766 8.1416C9.30859 8.1416 5.125 12.3135 5.125 17.4932C5.125 22.6611 9.30859 26.8564 14.4766 26.8564ZM14.4766 24.9697C10.3281 24.9697 7.01172 21.6299 7.01172 17.4932C7.01172 13.3447 10.3281 10.0283 14.4766 10.0283C18.6133 10.0283 21.9414 13.3447 21.9414 17.4932C21.9414 21.6299 18.6133 24.9697 14.4766 24.9697ZM12.7422 21.9814H17.0078C17.4297 21.9814 17.7812 21.6885 17.7812 21.2432C17.7812 20.7979 17.4297 20.4814 17.0078 20.4814H13.6562V13.8252C13.6562 13.2393 13.3047 12.8408 12.7422 12.8408C12.1914 12.8408 11.8867 13.251 11.8867 13.8252V21.0088C11.8867 21.583 12.1914 21.9814 12.7422 21.9814Z" fill="black" fill-opacity="0.85"/>
</svg>
