<svg width="28" height="28" viewBox="0 0 28 28" fill="none" xmlns="http://www.w3.org/2000/svg">
<path d="M13.9531 25.9062C20.4922 25.9062 25.9062 20.4805 25.9062 13.9531C25.9062 7.41406 20.4805 2 13.9414 2C7.41406 2 2 7.41406 2 13.9531C2 20.4805 7.42578 25.9062 13.9531 25.9062ZM13.9531 23.9141C8.42188 23.9141 4.00391 19.4844 4.00391 13.9531C4.00391 8.42188 8.41016 3.99219 13.9414 3.99219C19.4727 3.99219 23.9141 8.42188 23.9141 13.9531C23.9141 19.4844 19.4844 23.9141 13.9531 23.9141Z" fill="black" fill-opacity="0.85"/>
<path d="M13.9531 20.8203C14.1641 20.8203 14.4102 20.7383 14.6445 20.5039L19.3438 15.4531C19.6602 15.125 19.7891 14.9141 19.7891 14.6094C19.7891 14.1641 19.4492 13.8477 19.0273 13.8477H16.4609V8.55078C16.4609 7.625 15.9336 7.08594 15.0312 7.08594H12.8633C11.9609 7.08594 11.4453 7.625 11.4453 8.55078V13.8477H8.85547C8.42188 13.8477 8.11719 14.1641 8.11719 14.5859C8.11719 14.9023 8.24609 15.1602 8.51562 15.4531L13.2734 20.5039C13.4961 20.7383 13.7539 20.8203 13.9531 20.8203Z" fill="black" fill-opacity="0.85"/>
</svg>
