<svg width="28" height="29" viewBox="0 0 28 29" fill="none" xmlns="http://www.w3.org/2000/svg">
<g clip-path="url(#clip0_2124_88344)">
<path d="M9.19922 5.35547H11.0625V2.84766C11.0625 2.17969 11.5312 1.74609 12.2344 1.74609H16.4297C17.1328 1.74609 17.6016 2.17969 17.6016 2.84766V5.35547H19.4648V2.73047C19.4648 1.03125 18.3633 0 16.5586 0H12.1055C10.3008 0 9.19922 1.03125 9.19922 2.73047V5.35547ZM3.87891 6.29297H24.8203C25.3008 6.29297 25.6875 5.88281 25.6875 5.40234C25.6875 4.92188 25.3008 4.52344 24.8203 4.52344H3.87891C3.41016 4.52344 3 4.92188 3 5.40234C3 5.89453 3.41016 6.29297 3.87891 6.29297ZM8.97656 26.0977H19.7227C21.3984 26.0977 22.5234 25.0078 22.6055 23.332L23.4258 6.04688H5.26172L6.09375 23.3438C6.17578 25.0195 7.27734 26.0977 8.97656 26.0977Z" fill="black" fill-opacity="0.85"/>
<path d="M14.3203 20.543C13.875 20.543 13.5586 20.2148 13.5586 19.7812V14.5664L13.6406 12.3984L12.5859 13.6641L11.4023 14.8359C11.2734 14.9648 11.0859 15.0703 10.8633 15.0703C10.4414 15.0703 10.125 14.7539 10.125 14.332C10.125 14.1211 10.1953 13.9336 10.3359 13.8047L13.7344 10.4297C13.9453 10.2188 14.0977 10.125 14.3203 10.125C14.5547 10.125 14.7305 10.2305 14.918 10.4297L18.3047 13.8047C18.4453 13.9336 18.5273 14.1211 18.5273 14.332C18.5273 14.7539 18.1992 15.0703 17.7773 15.0703C17.5547 15.0703 17.3672 14.9883 17.2383 14.8359L16.0664 13.6641L15.0117 12.3867L15.082 14.5664V19.7812C15.082 20.2148 14.7656 20.543 14.3203 20.543Z" fill="white"/>
</g>
<defs>
<clipPath id="clip0_2124_88344">
<rect width="22.6875" height="28.1836" fill="white" transform="translate(3)"/>
</clipPath>
</defs>
</svg>
