<svg width="35" height="28" viewBox="0 0 35 28" fill="none" xmlns="http://www.w3.org/2000/svg">
<path d="M1.16016 17.207H2.19141C2.84766 17.207 3.33984 16.7148 3.33984 16.0703V14.8047H6.45703C6.90234 13.4453 7.60547 12.1445 8.4375 11.0312H8.28516C7.89844 11.0312 7.65234 10.7266 7.65234 10.2812V9.37891C7.65234 8.93359 7.92188 8.66406 8.34375 8.66406H10.6523C12.1055 7.43359 13.8281 6.50781 15.7031 5.98047H4.37109C3.94922 5.98047 3.79688 5.67578 3.9375 5.27734L4.48828 3.64844C4.6875 3.03906 5.01562 2.85156 5.55469 2.76953C6.16406 2.6875 7.85156 2.61719 10.3359 2.61719C12.8438 2.61719 14.5195 2.6875 15.1289 2.76953C15.6562 2.85156 15.9844 3.03906 16.1953 3.64844L16.7461 5.27734C16.8047 5.45312 16.8047 5.61719 16.7344 5.72266C17.3203 5.60547 17.9297 5.52344 18.5508 5.5L17.7891 3.30859C17.2852 1.86719 16.3125 1.26953 15.0938 1.12891C14.5078 1.05859 12.5977 1 10.3359 1C8.08594 1 6.16406 1.05859 5.57812 1.12891C4.37109 1.26953 3.41016 1.86719 2.90625 3.30859L1.99219 5.93359L1.11328 6.90625C0.210938 7.89062 0 8.76953 0 10.2461V16.0703C0 16.7148 0.515625 17.207 1.16016 17.207ZM3.16406 11.4414C2.625 11.4414 2.22656 11.043 2.22656 10.5156V9.15625C2.22656 8.62891 2.625 8.24219 3.16406 8.24219C3.69141 8.24219 4.08984 8.61719 4.08984 9.15625V10.5156C4.08984 11.0547 3.69141 11.4414 3.16406 11.4414Z" fill="black" fill-opacity="0.85"/>
<path d="M31.207 19.0352C31.207 12.5078 25.8047 7.08203 19.2656 7.08203C12.7383 7.08203 7.32422 12.5078 7.32422 19.0352C7.32422 22.1055 8.51953 24.9297 10.4648 27.0508C10.9805 27.625 11.8828 27.7656 12.5742 27.0742L14.2266 25.4336C14.6016 25.0703 14.5898 24.4609 14.2266 24.0977C13.8633 23.7344 13.2539 23.7344 12.8906 24.0977L11.6133 25.3867C10.1836 23.6641 9.32812 21.4609 9.32812 19.0352C9.32812 13.5039 13.7344 9.07422 19.2656 9.07422C24.7969 9.07422 29.2031 13.5039 29.2031 19.0352C29.2031 21.4609 28.3477 23.6641 26.9297 25.3867L25.6406 24.0977C25.2773 23.7344 24.668 23.7344 24.3047 24.0977C23.9414 24.4609 23.9414 25.0703 24.3047 25.4336L25.957 27.0742C26.6484 27.7656 27.5508 27.625 28.0664 27.0508C30.0117 24.9297 31.207 22.1055 31.207 19.0352ZM27.3516 18.0977C26.8359 18.0977 26.4023 18.5195 26.4023 19.0352C26.4023 19.5508 26.8359 19.9844 27.3516 19.9844H30.2109V18.0977H27.3516ZM20.2148 10.9375V8.07812H18.3281V10.9375C18.3281 11.4531 18.75 11.875 19.2656 11.875C19.7812 11.875 20.2148 11.4531 20.2148 10.9375ZM14.1914 12.6484L12.1641 10.6211L10.8398 11.957L12.8555 13.9727C13.2188 14.3477 13.8281 14.3359 14.1914 13.9727C14.5547 13.6094 14.5664 13 14.1914 12.6484ZM11.1562 18.0977H8.29688V19.9844H11.1562C11.6719 19.9844 12.0938 19.5508 12.0938 19.0352C12.0938 18.5195 11.6719 18.0977 11.1562 18.0977Z" fill="black" fill-opacity="0.85"/>
<path d="M17.7773 20.5234C18.5391 21.2969 19.6523 21.2969 20.4141 20.5234C20.5547 20.3828 20.7773 20.0781 20.918 19.8906L24.8555 14.207C25.0547 13.9258 24.9961 13.6445 24.832 13.4688C24.6562 13.3047 24.375 13.2461 24.0938 13.4453L18.4102 17.3828C18.2227 17.5234 17.918 17.7461 17.7773 17.8867C17.0039 18.6602 17.0039 19.7617 17.7773 20.5234Z" fill="black" fill-opacity="0.85"/>
<path d="M30.6446 4.33981C30.2579 3.94138 29.7657 4.16403 29.672 4.6445L28.8282 8.74606C28.7228 9.27341 29.0509 9.62497 29.5899 9.50778L33.6915 8.67575C34.1837 8.57028 34.3946 8.07809 33.9962 7.69138L30.6446 4.33981Z" fill="black" fill-opacity="0.85"/>
</svg>
