<svg width="28" height="28" viewBox="0 0 28 28" fill="none" xmlns="http://www.w3.org/2000/svg">
<path d="M6.67969 24.5977H20.8945C23.3555 24.5977 24.5742 23.3789 24.5742 20.9648V6.65625C24.5742 4.24219 23.3555 3.02344 20.8945 3.02344H6.67969C4.23047 3.02344 3 4.23047 3 6.65625V20.9648C3 23.3906 4.23047 24.5977 6.67969 24.5977ZM6.70312 22.7109C5.53125 22.7109 4.88672 22.0898 4.88672 20.8711V6.75C4.88672 5.53125 5.53125 4.91016 6.70312 4.91016H20.8711C22.0312 4.91016 22.6875 5.53125 22.6875 6.75V20.8711C22.6875 22.0898 22.0312 22.7109 20.8711 22.7109H6.70312Z" fill="black" fill-opacity="0.85"/>
<path d="M9.85547 19.3711H17.1094C17.5195 19.3711 17.7891 19.0898 17.7891 18.7031C17.7891 18.3281 17.5078 18.0586 17.1094 18.0586H15.3164C12.7266 18.0586 10.7227 16.1133 10.7227 13.5586C10.7227 11.9531 11.2617 10.8281 12.2109 10.2422V13.2188C12.2109 13.5469 12.4453 13.7812 12.7734 13.7812C13.1133 13.7812 13.3477 13.5469 13.3477 13.2188V9.84375C13.5469 9.82031 13.7578 9.79688 13.9453 9.79688C14.1211 9.79688 14.2852 9.82031 14.4258 9.84375V13.2188C14.4258 13.5469 14.6719 13.7812 15 13.7812C15.3281 13.7812 15.5625 13.5469 15.5625 13.2188V10.2773C16.4062 10.8516 16.9453 11.8477 16.9688 13.1484C16.9805 13.6055 17.2734 13.9219 17.707 13.9219C18.1172 13.9219 18.4102 13.6055 18.4102 13.1602C18.3984 11.0977 17.2734 9.36328 15.5625 8.70703V7.62891C15.5625 7.28906 15.3281 7.05469 15 7.05469C14.6719 7.05469 14.4258 7.28906 14.4258 7.62891V8.42578C14.2734 8.40234 14.1094 8.40234 13.957 8.40234C13.7578 8.40234 13.5469 8.41406 13.3477 8.4375V7.62891C13.3477 7.28906 13.1016 7.05469 12.7734 7.05469C12.4453 7.05469 12.2109 7.28906 12.2109 7.62891V8.67188C10.3594 9.33984 9.22266 11.0625 9.22266 13.3945C9.22266 15.3984 10.1602 17.1328 11.6016 18.0586H9.86719C9.48047 18.0586 9.19922 18.3281 9.19922 18.7031C9.19922 19.1016 9.45703 19.3711 9.85547 19.3711Z" fill="black" fill-opacity="0.85"/>
</svg>
