<svg width="28" height="28" viewBox="0 0 28 28" fill="none" xmlns="http://www.w3.org/2000/svg">
<path d="M13.9531 25.9062C20.4922 25.9062 25.9062 20.4805 25.9062 13.9531C25.9062 7.41406 20.4805 2 13.9414 2C7.41406 2 2 7.41406 2 13.9531C2 20.4805 7.42578 25.9062 13.9531 25.9062ZM13.9531 23.9141C8.42188 23.9141 4.00391 19.4844 4.00391 13.9531C4.00391 8.42188 8.41016 3.99219 13.9414 3.99219C19.4727 3.99219 23.9141 8.42188 23.9141 13.9531C23.9141 19.4844 19.4844 23.9141 13.9531 23.9141Z" fill="black" fill-opacity="0.85"/>
<path d="M10.2617 18.8984C11.9492 18.8984 13.2383 17.8438 13.2383 16.0859C13.2383 14.6328 12.3711 13.918 11.3867 13.8125V13.7773C12.4414 13.4961 12.957 12.5469 12.957 11.5625C12.957 9.94531 11.75 9.01953 10.2266 9.01953C9.00781 9.01953 7.96484 9.69922 7.625 10.7422C7.56641 10.9648 7.54297 11.1758 7.54297 11.375C7.54297 11.7617 7.78906 12.0664 8.25781 12.0664C8.65625 12.0664 8.89062 11.9141 9.00781 11.5039C9.19531 10.8125 9.55859 10.3789 10.2266 10.3789C11 10.3789 11.3633 10.9766 11.3633 11.75C11.3633 12.6055 10.8828 13.2266 10.0039 13.2266H9.73438C9.33594 13.2266 9.07812 13.4727 9.07812 13.8594C9.07812 14.2461 9.34766 14.4688 9.73438 14.4688H10.0273C11.0234 14.4688 11.5742 15.0195 11.5742 16.0391C11.5742 16.8477 11.1406 17.5391 10.2734 17.5391C9.41798 17.5391 9.03126 16.9648 8.89062 16.4258C8.78516 16.0508 8.52734 15.8516 8.15234 15.8516C7.69531 15.8516 7.39062 16.1328 7.39062 16.5898C7.39062 16.8008 7.41406 17.0117 7.47266 17.1992C7.8125 18.2891 9.00781 18.8984 10.2617 18.8984ZM17.5742 18.9336C19.3672 18.9336 20.3867 17.4336 20.3867 15.5938C20.3867 14.0117 19.625 12.5117 18.0781 12.5117C17.1289 12.5117 16.4023 13.1445 16.1328 14.1523H16.0977C16.0977 14.1055 16.0977 14.0586 16.0977 14.0234C16.0977 12.7227 16.25 10.3672 17.5625 10.3672C18.0898 10.3672 18.4414 10.7422 18.6523 11.2344C18.8164 11.5977 19.0391 11.7617 19.4141 11.7617C19.8828 11.7617 20.0938 11.4453 20.0938 11.0586C20.0938 10.9297 20.0703 10.7891 20.0352 10.6367C19.7891 9.62891 18.7695 8.99609 17.5977 8.99609C15.1953 8.99609 14.4922 11.6914 14.4922 14.0703C14.4922 16.2852 15.207 18.9336 17.5742 18.9336ZM17.5508 17.5625C16.6719 17.5625 16.3203 16.4609 16.3203 15.6172C16.3203 14.7617 16.707 13.7891 17.5508 13.7891C18.418 13.7891 18.7812 14.7969 18.7578 15.6641C18.7578 16.5195 18.3711 17.5625 17.5508 17.5625Z" fill="black" fill-opacity="0.85"/>
</svg>
