<svg width="28" height="28" viewBox="0 0 28 28" fill="none" xmlns="http://www.w3.org/2000/svg">
<path d="M13.9531 25.9062C20.4922 25.9062 25.9062 20.4805 25.9062 13.9531C25.9062 7.41406 20.4805 2 13.9414 2C7.41406 2 2 7.41406 2 13.9531C2 20.4805 7.42578 25.9062 13.9531 25.9062Z" fill="black" fill-opacity="0.85"/>
<path d="M10.1563 10.9531C10.6953 10.9531 11.0469 11.3164 11.0469 11.9023V13.9766L10.8711 15.8633L12.6172 14L17.0352 9.57031C17.2109 9.39453 17.4453 9.28906 17.7383 9.28906C18.2656 9.28906 18.6289 9.64062 18.6289 10.1914C18.6289 10.4258 18.5117 10.6719 18.3359 10.8477L13.8945 15.2656L12.0078 17.0352L13.8008 16.8477H15.9805C16.5664 16.8477 16.9414 17.1992 16.9414 17.7266C16.9414 18.2656 16.5781 18.6172 16.0039 18.6172H10.2852C9.66406 18.6172 9.26562 18.3359 9.26562 17.6211V11.9258C9.26562 11.3516 9.62891 10.9531 10.1563 10.9531Z" fill="white"/>
</svg>
