<svg width="28" height="28" viewBox="0 0 28 28" fill="none" xmlns="http://www.w3.org/2000/svg">
<path d="M6.67969 24.5977H20.8945C23.3555 24.5977 24.5742 23.3789 24.5742 20.9648V6.65625C24.5742 4.24219 23.3555 3.02344 20.8945 3.02344H6.67969C4.23047 3.02344 3 4.23047 3 6.65625V20.9648C3 23.3906 4.23047 24.5977 6.67969 24.5977ZM6.70312 22.7109C5.53125 22.7109 4.88672 22.0898 4.88672 20.8711V6.75C4.88672 5.53125 5.53125 4.91016 6.70312 4.91016H20.8711C22.0312 4.91016 22.6875 5.53125 22.6875 6.75V20.8711C22.6875 22.0898 22.0312 22.7109 20.8711 22.7109H6.70312Z" fill="black" fill-opacity="0.85"/>
<path d="M8.32031 18.5273H12.3984C12.8086 18.5273 13.0547 18.2578 13.0547 17.8477C13.0547 17.4023 12.7969 17.1562 12.3984 17.1562H9.60938V17.0625L11.3203 14.8945C12.4922 13.4414 12.8789 12.5742 12.8789 11.543C12.8789 9.96094 11.8008 8.8125 10.1836 8.8125C8.68359 8.8125 7.54688 10.0547 7.54688 11.2734C7.54688 11.707 7.80469 12.0117 8.25 12.0117C8.63672 12.0117 8.87109 11.8359 9 11.4492C9.21094 10.6641 9.50391 10.1719 10.1836 10.1719C10.8867 10.1719 11.2852 10.793 11.2852 11.625C11.2852 12.5625 10.6289 13.5117 10.0078 14.3086L7.96875 16.9102C7.75781 17.1914 7.53516 17.4844 7.53516 17.8477C7.53516 18.2461 7.79297 18.5273 8.32031 18.5273ZM17.168 18.7383C18.8555 18.7383 20.1445 17.6836 20.1445 15.9258C20.1445 14.4727 19.2773 13.7578 18.293 13.6523V13.6172C19.3477 13.3359 19.8633 12.3867 19.8633 11.4023C19.8633 9.78516 18.6562 8.85938 17.1328 8.85938C15.9141 8.85938 14.8711 9.53906 14.5312 10.582C14.4727 10.8047 14.4492 11.0156 14.4492 11.2148C14.4492 11.6016 14.707 11.9062 15.1641 11.9062C15.5625 11.9062 15.7969 11.7539 15.9141 11.3438C16.1016 10.6523 16.4648 10.2188 17.1328 10.2188C17.9062 10.2188 18.2695 10.8164 18.2695 11.5898C18.2695 12.4453 17.8008 13.0664 16.9219 13.0664H16.6406C16.2422 13.0664 15.9844 13.3125 15.9844 13.6992C15.9844 14.0859 16.2539 14.3086 16.6406 14.3086H16.9336C17.9297 14.3086 18.4805 14.8594 18.4805 15.8789C18.4805 16.6875 18.0469 17.3789 17.1797 17.3789C16.3242 17.3789 15.9375 16.8047 15.7969 16.2656C15.6914 15.8906 15.4336 15.6914 15.0586 15.6914C14.6016 15.6914 14.2969 15.9727 14.2969 16.4297C14.2969 16.6406 14.3203 16.8516 14.3906 17.0391C14.7188 18.1289 15.9141 18.7383 17.168 18.7383Z" fill="black" fill-opacity="0.85"/>
</svg>
