<svg width="28" height="28" viewBox="0 0 28 28" fill="none" xmlns="http://www.w3.org/2000/svg">
<path d="M6.67969 24.5742H20.8945C23.3555 24.5742 24.5742 23.3555 24.5742 20.9414V6.63281C24.5742 4.21875 23.3555 3 20.8945 3H6.67969C4.23047 3 3 4.20703 3 6.63281V20.9414C3 23.3672 4.23047 24.5742 6.67969 24.5742ZM6.70312 22.6875C5.53125 22.6875 4.88672 22.0664 4.88672 20.8477V6.72656C4.88672 5.51953 5.53125 4.88672 6.70312 4.88672H20.8711C22.0312 4.88672 22.6875 5.51953 22.6875 6.72656V20.8477C22.6875 22.0664 22.0312 22.6875 20.8711 22.6875H6.70312Z" fill="black" fill-opacity="0.85"/>
<path d="M7.73438 15.1992C7.73438 18.0234 9.77344 19.7695 12.5039 19.7695C12.6445 19.7695 14.0508 19.7695 14.1094 19.7695C14.6367 19.7695 15.0234 19.4766 15.0234 18.9375C15.0234 18.3984 14.6367 18.0938 14.1328 18.0938C14.0859 18.0938 12.6445 18.0938 12.5039 18.0938C10.7344 18.0938 9.45703 16.957 9.45703 15.1055C9.45703 13.3008 10.7695 12.3164 12.4922 12.3164H15.9961L17.3789 12.2695L16.6992 12.7734L15.2344 14.1797C15.0586 14.332 14.9766 14.5664 14.9766 14.7891C14.9766 15.2695 15.3398 15.6445 15.8086 15.6445C16.0547 15.6445 16.2422 15.5625 16.4062 15.3984L19.5352 12.1992C19.7344 12 19.8516 11.7656 19.8516 11.4961C19.8516 11.2148 19.7344 10.9688 19.5352 10.7695L16.418 7.61719C16.2539 7.44141 16.0664 7.35938 15.8203 7.35938C15.3398 7.35938 14.9766 7.72266 14.9766 8.21484C14.9766 8.44922 15.082 8.67188 15.2461 8.8125L16.4531 9.98438L17.3789 10.7227L15.9961 10.6758H12.4922C9.76172 10.6758 7.73438 12.3867 7.73438 15.1992Z" fill="black" fill-opacity="0.85"/>
</svg>
