<svg width="33" height="28" viewBox="0 0 33 28" fill="none" xmlns="http://www.w3.org/2000/svg">
<path d="M11.2383 15.6523C12.3867 14.9375 12.4219 13.6133 11.2383 12.8984L2.35547 7.46094C1.23047 6.76953 0 7.28516 0 8.67969V19.8594C0 21.2891 1.25391 21.7695 2.35547 21.0898L11.2383 15.6523ZM9.98438 14.5156L2.12109 19.3906C1.98047 19.4727 1.69922 19.4844 1.69922 19.1914V9.35938C1.69922 9.04297 2.00391 9.07812 2.12109 9.16016L9.97266 14.0234C10.2656 14.2109 10.1602 14.4102 9.98438 14.5156ZM15.9961 26.5273C16.4531 26.5273 16.8633 26.1641 16.8633 25.707V2.83203C16.8633 2.375 16.4531 2.02344 15.9961 2.02344C15.5391 2.02344 15.1406 2.375 15.1406 2.83203V25.707C15.1406 26.1641 15.5391 26.5273 15.9961 26.5273ZM29.6367 21.0898C30.75 21.7695 32.0039 21.2891 32.0039 19.8594V8.67969C32.0039 7.28516 30.7734 6.76953 29.6367 7.46094L20.7539 12.8984C19.582 13.6133 19.6055 14.9375 20.7539 15.6523L29.6367 21.0898ZM29.8711 19.3906L22.0195 14.5156C21.832 14.4102 21.7383 14.2109 22.0195 14.0234L29.8711 9.16016C30 9.07812 30.293 9.04297 30.293 9.35938V19.1914C30.293 19.4844 30.0234 19.4727 29.8711 19.3906Z" fill="black" fill-opacity="0.85"/>
</svg>
