<svg width="28" height="28" viewBox="0 0 28 28" fill="none" xmlns="http://www.w3.org/2000/svg">
<g clip-path="url(#clip0_2124_24721)">
<path d="M6 18.2852C6 20.1016 6.71484 21.4375 8.03906 22.1641C8.68359 22.5039 9.05859 22.9375 9.29297 23.7227L9.66797 24.9766C9.89062 25.7266 10.418 26.0898 11.2031 26.0898H16.6172C17.4258 26.0898 17.918 25.7383 18.1406 24.9766L18.5273 23.7227C18.7617 22.9375 19.1367 22.5039 19.7812 22.1641C21.1055 21.4375 21.8203 20.1016 21.8203 18.2852V8.80469C21.8203 6.98828 21.1055 5.66406 19.7812 4.92578C19.1367 4.58594 18.7617 4.15234 18.5273 3.37891L18.1406 2.11328C17.9414 1.375 17.4141 1 16.6172 1H11.2031C10.418 1 9.89062 1.36328 9.66797 2.11328L9.29297 3.37891C9.07031 4.14062 8.69531 4.59766 8.03906 4.92578C6.72656 5.62891 6 6.96484 6 8.80469V18.2852ZM7.71094 18.0391V9.0625C7.71094 7.31641 8.73047 6.26172 10.4414 6.26172H17.3789C19.0898 6.26172 20.1094 7.31641 20.1094 9.0625V18.0391C20.1094 19.7734 19.0898 20.8281 17.3789 20.8281H10.4414C8.73047 20.8281 7.71094 19.7734 7.71094 18.0391ZM21.5625 12.7188H21.9844C22.5938 12.7188 22.9922 12.3086 22.9922 11.6406V10.0586C22.9922 9.39062 22.5938 8.98047 21.9844 8.98047H21.5625V12.7188Z" fill="black" fill-opacity="0.85"/>
<path d="M13.957 8.75781C13.5352 8.75781 13.2422 9.0625 13.2422 9.48438V14.1133L13.3008 16.0586L12.3984 14.9688L11.3086 13.8555C11.1797 13.7383 10.9922 13.6445 10.793 13.6445C10.3945 13.6445 10.0898 13.9492 10.0898 14.3477C10.0898 14.5352 10.1484 14.7227 10.2773 14.8516L13.3945 17.9453C13.582 18.1328 13.7578 18.2266 13.957 18.2266C14.168 18.2266 14.3438 18.1328 14.5313 17.9453L17.625 14.8516C17.7539 14.7227 17.8359 14.5352 17.8359 14.3477C17.8359 13.9492 17.5312 13.6445 17.1328 13.6445C16.9102 13.6445 16.7344 13.7266 16.6172 13.8555L15.5273 14.9688L14.6016 16.0703L14.6719 14.1133L14.6836 9.48438C14.6836 9.0625 14.3672 8.75781 13.957 8.75781Z" fill="black" fill-opacity="0.85"/>
</g>
<defs>
<clipPath id="clip0_2124_24721">
<rect width="16.9922" height="25.0898" fill="white" transform="translate(6 1)"/>
</clipPath>
</defs>
</svg>
