<svg width="28" height="28" viewBox="0 0 28 28" fill="none" xmlns="http://www.w3.org/2000/svg">
<path d="M6.67969 24.5977H20.8945C23.3555 24.5977 24.5742 23.3789 24.5742 20.9648V6.65625C24.5742 4.24219 23.3555 3.02344 20.8945 3.02344H6.67969C4.23047 3.02344 3 4.23047 3 6.65625V20.9648C3 23.3906 4.23047 24.5977 6.67969 24.5977ZM6.70312 22.7109C5.53125 22.7109 4.88672 22.0898 4.88672 20.8711V6.75C4.88672 5.53125 5.53125 4.91016 6.70312 4.91016H20.8711C22.0312 4.91016 22.6875 5.53125 22.6875 6.75V20.8711C22.6875 22.0898 22.0312 22.7109 20.8711 22.7109H6.70312Z" fill="black" fill-opacity="0.85"/>
<path d="M10.0664 18.0234C10.4883 18.0234 10.793 17.7305 10.793 17.2852V12.6445C10.793 11.7773 11.2383 11.2031 11.9883 11.2031C12.6328 11.2031 13.0898 11.7187 13.0898 12.457V12.9258L10.6289 19.7461C10.582 19.8516 10.5586 19.957 10.5586 20.0742C10.5586 20.3789 10.793 20.6133 11.1094 20.6133C11.3789 20.6133 11.5664 20.4609 11.6719 20.1914L13.0898 16.2422V17.2852C13.0898 17.7305 13.3945 18.0234 13.8164 18.0234C14.2383 18.0234 14.5312 17.7305 14.5312 17.2852V12.5859C14.5312 11.7422 14.9766 11.2148 15.7031 11.2148C16.418 11.2148 16.8398 11.7187 16.8398 12.5391V17.2852C16.8398 17.7305 17.1328 18.0234 17.5547 18.0234C17.9766 18.0234 18.2812 17.7305 18.2812 17.2852V12.4219C18.2812 10.8516 17.4023 9.90233 16.043 9.90233C15.8555 9.90233 15.6797 9.93749 15.5273 9.99608L16.418 7.82812C16.4531 7.73438 16.4883 7.62891 16.4883 7.51172C16.4883 7.20703 16.2422 6.98438 15.9258 6.98438C15.6562 6.98438 15.4805 7.13671 15.375 7.39452L13.9453 10.8867C13.6172 10.2187 13.0312 9.90233 12.293 9.90233C11.625 9.90233 11.0742 10.1953 10.7227 10.8398V10.6992C10.7227 10.1953 10.4297 9.93749 10.0313 9.93749C9.62109 9.93749 9.32812 10.2305 9.32812 10.6641V17.3086C9.32812 17.7305 9.63281 18.0234 10.0664 18.0234Z" fill="black" fill-opacity="0.85"/>
</svg>
