<svg width="28" height="28" viewBox="0 0 28 28" fill="none" xmlns="http://www.w3.org/2000/svg">
<path d="M13.9531 25.9062C20.4922 25.9062 25.9062 20.4805 25.9062 13.9531C25.9062 7.41406 20.4805 2 13.9414 2C7.41406 2 2 7.41406 2 13.9531C2 20.4805 7.42578 25.9062 13.9531 25.9062ZM13.9531 23.9141C8.42188 23.9141 4.00391 19.4844 4.00391 13.9531C4.00391 8.42188 8.41016 3.99219 13.9414 3.99219C19.4727 3.99219 23.9141 8.42188 23.9141 13.9531C23.9141 19.4844 19.4844 23.9141 13.9531 23.9141Z" fill="black" fill-opacity="0.85"/>
<path d="M11.0586 18.9336C13.3906 18.9336 14.0938 16.3086 14.0938 13.9531C14.0938 11.5977 13.3906 8.97266 11.0586 8.97266C8.72656 8.97266 8.02344 11.5977 8.02344 13.9531C8.02344 16.3086 8.72656 18.9336 11.0586 18.9336ZM11.0586 17.5391C10.0977 17.5391 9.73438 15.9805 9.73438 13.9531C9.73438 11.9141 10.0977 10.3555 11.0586 10.3555C12.0195 10.3555 12.3828 11.9141 12.3828 13.9531C12.3828 15.9805 12.0195 17.5391 11.0586 17.5391ZM18.1016 18.8164C18.5586 18.8164 18.9453 18.4297 18.9453 17.9609V10.0156C18.9453 9.41797 18.5703 9.06641 17.9609 9.06641C17.4688 9.06641 17.0703 9.33594 16.8008 9.54688L15.5117 10.543C15.3008 10.707 15.1367 10.9297 15.1367 11.2344C15.1367 11.5977 15.3828 11.8555 15.7461 11.8555C15.9219 11.8555 16.0391 11.7969 16.1562 11.7148L17.2344 10.8477V17.9609C17.2344 18.4297 17.6211 18.8164 18.1016 18.8164Z" fill="black" fill-opacity="0.85"/>
</svg>
