<svg width="28" height="28" viewBox="0 0 28 28" fill="none" xmlns="http://www.w3.org/2000/svg">
<path d="M17.2534 25.6612C17.6167 26.0596 18.2495 26.1065 18.6948 25.6378C21.4839 22.7198 23.0893 18.8057 23.0893 14.5284C23.0893 10.251 21.5073 6.30182 18.6948 3.40729C18.2495 2.93854 17.6167 2.98541 17.2534 3.38385C16.8901 3.79401 16.9722 4.36822 17.394 4.81354C19.8433 7.33307 21.1792 10.7667 21.1792 14.5284C21.1792 18.2901 19.8198 21.6885 17.394 24.2315C16.9722 24.6768 16.8901 25.2628 17.2534 25.6612Z" fill="black" fill-opacity="0.85"/>
<path d="M13.8676 22.544C14.2426 22.9776 14.8988 22.9776 15.3559 22.4854C17.3012 20.376 18.391 17.5635 18.391 14.5284C18.391 11.4933 17.3129 8.66904 15.3559 6.57139C14.8988 6.06748 14.2426 6.06748 13.8676 6.51279C13.4926 6.93467 13.6098 7.48545 14.0316 7.96592C15.6137 9.70029 16.4809 11.9972 16.4809 14.5284C16.4809 17.0479 15.602 19.3448 14.0316 21.0909C13.6098 21.5713 13.4926 22.1104 13.8676 22.544Z" fill="black" fill-opacity="0.85"/>
<path d="M10.5855 19.2042C10.9722 19.6378 11.6754 19.6495 12.0855 19.1221C13.1051 17.8565 13.7027 16.251 13.7027 14.5284C13.7027 12.8058 13.1051 11.1886 12.0855 9.93467C11.6754 9.39561 10.9722 9.40733 10.5855 9.85264C10.2105 10.2745 10.3746 10.7901 10.7379 11.3058C11.4293 12.1847 11.7926 13.3096 11.7926 14.5284C11.7926 15.7471 11.441 16.8721 10.7379 17.751C10.3629 18.2549 10.2105 18.7823 10.5855 19.2042Z" fill="black" fill-opacity="0.85"/>
<path d="M4 14.5048C4 15.6416 4.98438 16.6025 6.14453 16.6025C7.30469 16.6025 8.26562 15.6416 8.26562 14.4814C8.26562 13.3095 7.32812 12.3486 6.14453 12.3486C4.97266 12.3486 4 13.333 4 14.5048Z" fill="black" fill-opacity="0.85"/>
</svg>
