<svg width="28" height="28" viewBox="0 0 28 28" fill="none" xmlns="http://www.w3.org/2000/svg">
<path d="M6.67969 24.5977H20.8945C23.3555 24.5977 24.5742 23.3789 24.5742 20.9648V6.65625C24.5742 4.24219 23.3555 3.02344 20.8945 3.02344H6.67969C4.23047 3.02344 3 4.23047 3 6.65625V20.9648C3 23.3906 4.23047 24.5977 6.67969 24.5977Z" fill="black" fill-opacity="0.85"/>
<path d="M10.6523 18.8086C10.1602 18.8086 9.76172 18.4102 9.76172 17.9297V10.5937L8.66016 11.4961C8.53125 11.5781 8.41406 11.6367 8.21484 11.6367C7.85156 11.6367 7.59375 11.3672 7.59375 10.9922C7.59375 10.6758 7.76953 10.4414 7.99219 10.2773L9.31641 9.25781C9.59766 9.03516 10.0078 8.75391 10.5117 8.75391C11.1445 8.75391 11.5312 9.11719 11.5312 9.73828V17.9297C11.5312 18.4102 11.1328 18.8086 10.6523 18.8086ZM14.2031 18.6797C13.6406 18.6797 13.3711 18.3867 13.3711 17.9766C13.3711 17.6016 13.6055 17.2969 13.8281 17.0039L15.9258 14.332C16.5586 13.5117 17.2383 12.5273 17.2383 11.5547C17.2383 10.6992 16.8281 10.0664 16.1133 10.0664C15.4102 10.0664 15.1172 10.5703 14.8945 11.3789C14.7656 11.7773 14.5195 11.9648 14.1094 11.9648C13.6523 11.9648 13.3828 11.6484 13.3828 11.1914C13.3828 9.9375 14.5664 8.66016 16.1133 8.66016C17.7773 8.66016 18.8906 9.84375 18.8906 11.4727C18.8906 12.5391 18.4922 13.4297 17.2852 14.9297L15.5273 17.1562V17.2617H18.3984C18.8086 17.2617 19.0781 17.5078 19.0781 17.9766C19.0781 18.3984 18.8203 18.6797 18.3984 18.6797H14.2031Z" fill="white"/>
</svg>
