<svg width="28" height="28" viewBox="0 0 28 28" fill="none" xmlns="http://www.w3.org/2000/svg">
<path d="M6.67969 24.5977H20.8945C23.3555 24.5977 24.5742 23.3789 24.5742 20.9648V6.65625C24.5742 4.24219 23.3555 3.02344 20.8945 3.02344H6.67969C4.23047 3.02344 3 4.23047 3 6.65625V20.9648C3 23.3906 4.23047 24.5977 6.67969 24.5977ZM6.70312 22.7109C5.53125 22.7109 4.88672 22.0898 4.88672 20.8711V6.75C4.88672 5.53125 5.53125 4.91016 6.70312 4.91016H20.8711C22.0312 4.91016 22.6875 5.53125 22.6875 6.75V20.8711C22.6875 22.0898 22.0312 22.7109 20.8711 22.7109H6.70312Z" fill="black" fill-opacity="0.85"/>
<path d="M10.2539 18.7852C12.082 18.7852 13.0898 17.2617 13.0898 15.4102C13.0898 13.793 12.3164 12.3047 10.8047 12.3047C10.1133 12.3047 9.48047 12.6211 9.17578 13.3125H9.11719L9.31641 10.4531H12.0703C12.4688 10.4531 12.7148 10.1719 12.7148 9.76172C12.7148 9.375 12.457 9.08203 12.0703 9.08203H8.84766C8.22656 9.08203 7.95703 9.48047 7.91016 10.0781L7.72266 13.2891C7.71094 13.4648 7.71094 13.6523 7.71094 13.8047C7.71094 14.2617 7.93359 14.6484 8.47266 14.6484C8.78906 14.6484 8.97656 14.5312 9.22266 14.2031C9.49219 13.8164 9.78516 13.5352 10.2539 13.5352C11.1211 13.5352 11.4492 14.5781 11.4492 15.4453C11.4492 16.418 11.1094 17.4141 10.2305 17.4141C9.58594 17.4141 9.21094 16.9453 9 16.3008C8.85938 15.9258 8.60156 15.75 8.28516 15.75C7.85156 15.75 7.58203 16.0195 7.58203 16.4531C7.58203 16.7227 7.65234 16.9805 7.74609 17.2148C8.15625 18.1641 9.19922 18.7852 10.2539 18.7852ZM17.4375 18.7852C19.7695 18.7852 20.4609 16.1602 20.4609 13.8047C20.4609 11.4492 19.7695 8.82422 17.4375 8.82422C15.0938 8.82422 14.4023 11.4492 14.4023 13.8047C14.4023 16.1602 15.0938 18.7852 17.4375 18.7852ZM17.4375 17.4023C16.4766 17.4023 16.1133 15.8438 16.1133 13.8047C16.1133 11.7773 16.4766 10.2188 17.4375 10.2188C18.3867 10.2188 18.75 11.7773 18.75 13.8047C18.75 15.8438 18.3867 17.4023 17.4375 17.4023Z" fill="black" fill-opacity="0.85"/>
</svg>
