<svg width="28" height="28" viewBox="0 0 28 28" fill="none" xmlns="http://www.w3.org/2000/svg">
<path d="M13.9531 25.9062C20.4922 25.9062 25.9062 20.4805 25.9062 13.9531C25.9062 7.41406 20.4805 2 13.9414 2C7.41406 2 2 7.41406 2 13.9531C2 20.4805 7.42578 25.9062 13.9531 25.9062Z" fill="black" fill-opacity="0.85"/>
<path d="M9.62891 8.31643C9.96875 7.97658 10.4727 8.00002 10.7891 8.31643L13.7539 11.3516C13.8945 11.4922 13.9883 11.7149 13.9883 11.9141C13.9883 12.3711 13.6719 12.6992 13.2266 12.6992C13.0156 12.6992 12.8164 12.6172 12.6758 12.4766L11.4219 11.1758L10.9766 10.6836L11 11.2578V19.0859C11 19.5195 10.6719 19.8477 10.2031 19.8477C9.75781 19.8477 9.41797 19.5195 9.41797 19.0859V11.2695L9.44141 10.6836L8.98438 11.1758L7.74219 12.4531C7.60156 12.6055 7.40234 12.6992 7.20312 12.6992C6.74609 12.6992 6.40625 12.3594 6.40625 11.9141C6.40625 11.7383 6.52344 11.5156 6.65234 11.3516L9.62891 8.31643ZM18.2891 19.6133C17.9727 19.9297 17.4219 19.9297 17.1055 19.6133L14.1406 16.5898C14 16.4141 13.918 16.2031 13.918 16.0156C13.918 15.5586 14.2227 15.2422 14.6797 15.2422C14.9023 15.2422 15.0898 15.3125 15.2422 15.4766L16.4844 16.7422L16.9297 17.2461L16.9062 16.6836V8.84377C16.9062 8.39846 17.2461 8.07033 17.7031 8.07033C18.1484 8.07033 18.4883 8.39846 18.4883 8.84377V16.6719L18.4648 17.2344L18.9219 16.7422L20.1641 15.4766C20.3047 15.3359 20.5039 15.2422 20.7148 15.2422C21.1719 15.2422 21.5 15.5586 21.5 16.0156C21.5 16.2148 21.3828 16.4258 21.2422 16.5898L18.2891 19.6133Z" fill="white"/>
</svg>
