<svg width="28" height="28" viewBox="0 0 28 28" fill="none" xmlns="http://www.w3.org/2000/svg">
<g clip-path="url(#clip0_2124_88423)">
<path d="M13.9531 25.9062C20.4922 25.9062 25.9062 20.4805 25.9062 13.9531C25.9062 7.41406 20.4805 2 13.9414 2C7.41406 2 2 7.41406 2 13.9531C2 20.4805 7.42578 25.9062 13.9531 25.9062ZM13.9531 23.9141C8.42188 23.9141 4.00391 19.4844 4.00391 13.9531C4.00391 8.42188 8.41016 3.99219 13.9414 3.99219C19.4727 3.99219 23.9141 8.42188 23.9141 13.9531C23.9141 19.4844 19.4844 23.9141 13.9531 23.9141Z" fill="black" fill-opacity="0.85"/>
<path d="M11.1641 20.2578H17.2812C18.582 20.2578 19.2266 19.5898 19.2266 18.2773V13.2383H14.5859C13.7773 13.2383 13.3906 12.8633 13.3906 12.0547V7.33203H11.1641C9.875 7.33203 9.21875 8 9.21875 9.3125V18.2773C9.21875 19.6016 9.875 20.2578 11.1641 20.2578ZM14.6797 12.2891H19.1562C19.1211 12.0312 18.9336 11.7734 18.6289 11.4688L15.1602 7.92969C14.8672 7.625 14.5977 7.4375 14.3398 7.40234V11.9492C14.3398 12.1719 14.457 12.2891 14.6797 12.2891Z" fill="black" fill-opacity="0.85"/>
</g>
<defs>
<clipPath id="clip0_2124_88423">
<rect width="23.9062" height="23.918" fill="white" transform="translate(2 2)"/>
</clipPath>
</defs>
</svg>
