<svg width="28" height="28" viewBox="0 0 28 28" fill="none" xmlns="http://www.w3.org/2000/svg">
<path d="M13.9531 25.918C20.4922 25.918 25.9062 20.5039 25.9062 13.9648C25.9062 7.4375 20.4805 2.01172 13.9414 2.01172C7.41406 2.01172 2 7.4375 2 13.9648C2 20.5039 7.42578 25.918 13.9531 25.918Z" fill="black" fill-opacity="0.85"/>
<path d="M6.35938 13.5665C6.35938 11.7501 7.02734 10.0274 8.23438 8.71489C8.53905 8.35161 9.01953 8.33989 9.3125 8.67974C9.57031 8.96099 9.53516 9.38286 9.23047 9.74614C8.29297 10.754 7.77734 12.1134 7.77734 13.5665C7.77734 15.0548 8.29297 16.3907 9.23047 17.422C9.53516 17.797 9.57031 18.1954 9.30078 18.4884C9.01953 18.8165 8.53905 18.7931 8.23438 18.4532C7.01561 17.129 6.35938 15.4181 6.35938 13.5665ZM20.1406 13.5665C20.1406 12.1134 19.625 10.754 18.6875 9.74614C18.3711 9.38286 18.3359 8.96099 18.5938 8.67974C18.8867 8.33989 19.3672 8.35161 19.6719 8.71489C20.8789 10.0274 21.5586 11.7501 21.5586 13.5665C21.5586 15.4181 20.8906 17.129 19.6719 18.4532C19.3672 18.7931 18.8867 18.8165 18.6055 18.4884C18.3359 18.1954 18.3711 17.797 18.6875 17.422C19.625 16.3907 20.1406 15.0548 20.1406 13.5665Z" fill="white"/>
<path d="M9.3125 13.5664C9.3125 12.5352 9.67578 11.5391 10.3086 10.7422C10.5898 10.3672 11.1172 10.3438 11.4219 10.6836C11.6562 10.9649 11.6328 11.3281 11.3398 11.7266C10.9531 12.2539 10.7305 12.8984 10.7305 13.5664C10.7305 14.293 10.9414 14.9258 11.3281 15.4297C11.6328 15.8398 11.668 16.1914 11.4219 16.4844C11.1289 16.8125 10.5898 16.8008 10.3086 16.4258C9.67578 15.6289 9.3125 14.6211 9.3125 13.5664ZM17.1758 13.5664C17.1758 12.8984 16.9531 12.2539 16.5781 11.7266C16.2852 11.3281 16.25 10.9649 16.4844 10.6836C16.7891 10.3438 17.3164 10.3672 17.5977 10.7422C18.2305 11.5391 18.5938 12.5352 18.5938 13.5664C18.5938 14.6211 18.2305 15.6289 17.5977 16.4258C17.3164 16.8008 16.7773 16.8125 16.4844 16.4844C16.2383 16.1914 16.2734 15.8398 16.5781 15.4297C16.9648 14.9258 17.1758 14.293 17.1758 13.5664Z" fill="white"/>
<path d="M12.5469 13.5664C12.5469 12.793 13.1797 12.1719 13.9531 12.1719C14.7383 12.1719 15.3594 12.793 15.3594 13.5664C15.3594 14.0938 15.0547 14.5508 14.6328 14.7852V21.0547C14.6328 21.5 14.3516 21.793 13.9531 21.793C13.5664 21.793 13.2852 21.4883 13.2852 21.0547V14.7969C12.8516 14.5625 12.5469 14.1055 12.5469 13.5664Z" fill="white"/>
</svg>
