<svg width="28" height="28" viewBox="0 0 28 28" fill="none" xmlns="http://www.w3.org/2000/svg">
<path d="M13.9531 25.9062C20.4922 25.9062 25.9062 20.4805 25.9062 13.9531C25.9062 7.41406 20.4805 2 13.9414 2C7.41406 2 2 7.41406 2 13.9531C2 20.4805 7.42578 25.9062 13.9531 25.9062ZM13.9531 23.9141C8.42188 23.9141 4.00391 19.4844 4.00391 13.9531C4.00391 8.42188 8.41016 3.99219 13.9414 3.99219C19.4727 3.99219 23.9141 8.42188 23.9141 13.9531C23.9141 19.4844 19.4844 23.9141 13.9531 23.9141Z" fill="black" fill-opacity="0.85"/>
<path d="M13.9297 20.9609C14.375 20.9609 14.7148 20.6328 14.7148 20.1758V14.7969L14.5859 12.6641L16.6484 14.9961L17.4102 15.7812C17.5742 15.9336 17.7852 16.0039 17.9961 16.0039C18.4297 16.0039 18.7344 15.6641 18.7344 15.2422C18.7344 15.0195 18.6758 14.8203 18.4883 14.6445L14.5156 10.6133C14.3516 10.4492 14.1406 10.3438 13.9297 10.3438C13.7188 10.3438 13.5078 10.4375 13.3438 10.6133L9.38281 14.6562C9.24219 14.8086 9.14844 15.0547 9.14844 15.2422C9.14844 15.6875 9.45312 16.0039 9.89844 16.0039C10.1445 16.0039 10.3203 15.9336 10.4727 15.7812L11.1406 15.043L13.2734 12.6523L13.1445 14.7969V20.1758C13.1445 20.6328 13.4609 20.9609 13.9297 20.9609ZM9.54688 9.44141H18.3477C18.8047 9.44141 19.1211 9.11328 19.1211 8.66797C19.1211 8.21094 18.8047 7.88281 18.3477 7.88281H9.54688C9.08984 7.88281 8.76172 8.21094 8.76172 8.66797C8.76172 9.11328 9.08984 9.44141 9.54688 9.44141Z" fill="black" fill-opacity="0.85"/>
</svg>
