<svg width="28" height="28" viewBox="0 0 28 28" fill="none" xmlns="http://www.w3.org/2000/svg">
<path d="M26.3672 25.8164V16.5117C26.3672 15.1172 25.7344 14.4844 24.3398 14.4844H10.3359C9.30469 14.4844 8.75391 15.2578 8.75391 16.0898C8.75391 16.6523 9.01173 17.1914 9.56251 17.5664L23.5664 27.2227C23.9414 27.4922 24.375 27.5977 24.7851 27.5977C25.6289 27.5977 26.3672 27.0352 26.3672 25.8164ZM24.457 25.0781C24.457 25.1602 24.4101 25.2305 24.3398 25.2305C24.3047 25.2305 24.2578 25.2188 24.2109 25.1836L11.3203 16.6055C11.2734 16.5703 11.2617 16.5234 11.2617 16.5C11.2617 16.4414 11.3086 16.4062 11.3672 16.4062H24.1054C24.3867 16.4062 24.457 16.4766 24.457 16.7578V25.0781ZM26.3672 11.0977V1.79297C26.3672 0.574219 25.6289 0.0117188 24.7851 0.0117188C24.375 0.0117188 23.9414 0.117188 23.5664 0.375L9.56251 10.043C9.01173 10.418 8.75391 10.957 8.75391 11.5195C8.75391 12.3516 9.30469 13.125 10.3359 13.125H24.3398C25.7344 13.125 26.3672 12.4922 26.3672 11.0977ZM24.457 10.8516C24.457 11.1211 24.3867 11.2031 24.1054 11.2031H11.3789C11.3203 11.2031 11.2617 11.168 11.2617 11.1094C11.2617 11.0742 11.2734 11.0391 11.3438 11.0039L24.2109 2.42578C24.2578 2.39062 24.3047 2.37891 24.3398 2.37891C24.4101 2.37891 24.457 2.44922 24.457 2.53125V10.8516Z" fill="black" fill-opacity="0.85"/>
<path d="M5.8234 25.7812L8.15543 22.6406C8.64761 21.9961 8.35465 21.2109 7.55777 21.2109H5.87027V6.39844H7.55777C8.35465 6.39844 8.64761 5.61328 8.15543 4.96875L5.8234 1.82812C5.50699 1.39453 4.90933 1.39453 4.59293 1.82812L2.23746 4.96875C1.76871 5.58984 2.02652 6.39844 2.85855 6.39844H4.5109V21.2109H2.85855C2.04996 21.2109 1.74527 21.9961 2.23746 22.6406L4.59293 25.7812C4.90933 26.2031 5.51871 26.2031 5.8234 25.7812Z" fill="black" fill-opacity="0.85"/>
</svg>
