<svg width="28" height="28" viewBox="0 0 28 28" fill="none" xmlns="http://www.w3.org/2000/svg">
<g clip-path="url(#clip0_2124_50181)">
<path d="M4.67969 23.0195H23.0898C25.5391 23.0195 26.7578 21.8008 26.7578 19.3867V7.65625C26.7578 5.24219 25.5391 4.02344 23.0898 4.02344H4.67969C2.23047 4.02344 1 5.24219 1 7.65625V19.3867C1 21.8008 2.23047 23.0195 4.67969 23.0195Z" fill="black" fill-opacity="0.85"/>
<path d="M9.35547 18.8477C7.16406 18.8477 5.6875 17.418 5.6875 15.2969C5.6875 14.2305 6.12109 13.3047 6.44922 12.5898C7.03516 11.3359 7.98438 9.77734 8.79297 8.51172C8.96875 8.26562 9.13281 8.16016 9.35547 8.16016C9.56641 8.16016 9.73047 8.26562 9.90625 8.51172C10.7266 9.77734 11.6758 11.3359 12.25 12.5898C12.5781 13.3047 13.0234 14.2305 13.0234 15.2969C13.0234 17.418 11.5469 18.8477 9.35547 18.8477ZM16.8906 11.1836C16.1055 11.1836 15.4727 10.5391 15.4727 9.76562C15.4727 8.99219 16.1055 8.34766 16.8906 8.34766C17.6641 8.34766 18.3086 8.99219 18.3086 9.76562C18.3086 10.5391 17.6641 11.1836 16.8906 11.1836ZM21.0508 11.1836C20.2773 11.1836 19.6328 10.5391 19.6328 9.76562C19.6328 8.99219 20.2773 8.34766 21.0508 8.34766C21.8242 8.34766 22.4688 8.99219 22.4688 9.76562C22.4688 10.5391 21.8242 11.1836 21.0508 11.1836ZM16.8906 14.9219C16.1055 14.9219 15.4727 14.2773 15.4727 13.5039C15.4727 12.7305 16.1055 12.0859 16.8906 12.0859C17.6641 12.0859 18.3086 12.7305 18.3086 13.5039C18.3086 14.2773 17.6641 14.9219 16.8906 14.9219ZM21.0508 14.9219C20.2773 14.9219 19.6328 14.2773 19.6328 13.5039C19.6328 12.7305 20.2773 12.0859 21.0508 12.0859C21.8242 12.0859 22.4688 12.7305 22.4688 13.5039C22.4688 14.2773 21.8242 14.9219 21.0508 14.9219ZM16.8906 18.6602C16.1055 18.6602 15.4727 18.0156 15.4727 17.2422C15.4727 16.4688 16.1055 15.8242 16.8906 15.8242C17.6641 15.8242 18.3086 16.4688 18.3086 17.2422C18.3086 18.0156 17.6641 18.6602 16.8906 18.6602ZM21.0508 18.6602C20.2773 18.6602 19.6328 18.0156 19.6328 17.2422C19.6328 16.4688 20.2773 15.8242 21.0508 15.8242C21.8242 15.8242 22.4688 16.4688 22.4688 17.2422C22.4688 18.0156 21.8242 18.6602 21.0508 18.6602Z" fill="white"/>
</g>
<defs>
<clipPath id="clip0_2124_50181">
<rect width="25.7578" height="19.0195" fill="white" transform="translate(1 4)"/>
</clipPath>
</defs>
</svg>
