<svg width="31" height="28" viewBox="0 0 31 28" fill="none" xmlns="http://www.w3.org/2000/svg">
<path d="M29.0273 22.2109C29.8594 22.2109 30.5625 21.5312 30.5625 20.7344C30.5625 19.9258 29.8711 19.2578 29.0273 19.2578C28.1719 19.2578 27.4805 19.9258 27.4805 20.7344C27.4805 21.5312 28.1836 22.2109 29.0273 22.2109ZM29.0273 17.0078C29.6016 17.0078 30 16.6094 30.0234 16.0117L30.2695 7.71484C30.293 6.96484 29.7891 6.46094 29.0273 6.46094C28.2539 6.46094 27.75 6.96484 27.7734 7.71484L28.0195 16.0117C28.043 16.6094 28.4531 17.0078 29.0273 17.0078Z" fill="black" fill-opacity="0.85"/>
<path d="M0 15.9531C0 19.0234 1.19531 21.8477 3.14062 23.9688C3.65625 24.543 4.55859 24.6836 5.25 23.9922L6.90234 22.3516C7.26562 21.9883 7.26562 21.3789 6.90234 21.0156C6.53906 20.6523 5.92969 20.6523 5.56641 21.0156L4.27734 22.3047C2.84766 20.582 2.00391 18.3906 2.00391 15.9531C2.00391 10.4336 6.41016 5.99219 11.9414 5.99219C17.4609 5.99219 21.8789 10.4336 21.8789 15.9531C21.8789 18.3906 21.0234 20.582 19.5938 22.3047L18.3047 21.0156C17.9531 20.6523 17.3438 20.6523 16.9688 21.0156C16.6172 21.3789 16.6055 21.9883 16.9688 22.3516L18.6328 23.9922C19.3242 24.6836 20.2266 24.543 20.7422 23.9688C22.6875 21.8477 23.8828 19.0234 23.8828 15.9531C23.8828 9.42578 18.4688 4 11.9414 4C5.40234 4 0 9.42578 0 15.9531ZM3.85547 15.0156H0.996094V16.9023H3.85547C4.37109 16.9023 4.80469 16.4688 4.80469 15.9531C4.80469 15.4375 4.37109 15.0156 3.85547 15.0156ZM6.86719 9.56641L4.83984 7.53906L3.50391 8.875L5.53125 10.9023C5.89453 11.2656 6.50391 11.2656 6.86719 10.9023C7.23047 10.5273 7.23047 9.92969 6.86719 9.56641ZM12.8789 7.85547V4.99609H10.9922V7.85547C10.9922 8.37109 11.4258 8.80469 11.9414 8.80469C12.457 8.80469 12.8789 8.37109 12.8789 7.85547ZM17.0039 9.56641C16.6406 9.92969 16.6523 10.5273 17.0039 10.9023C17.3789 11.2656 17.9883 11.2656 18.3398 10.9023L20.3672 8.875L19.0312 7.53906L17.0039 9.56641Z" fill="black" fill-opacity="0.85"/>
<path d="M9.98438 15.9648C9.98438 17.0547 10.7695 17.8398 11.8594 17.8398C12.0586 17.8398 12.4336 17.7695 12.668 17.7344L19.4648 16.5039C19.793 16.4453 19.957 16.2109 19.957 15.9648C19.957 15.7188 19.793 15.4961 19.4648 15.4258L12.668 14.207C12.4336 14.1602 12.0586 14.1016 11.8594 14.1016C10.7695 14.1016 9.98438 14.8867 9.98438 15.9648Z" fill="black" fill-opacity="0.85"/>
</svg>
