<svg width="30" height="28" viewBox="0 0 30 28" fill="none" xmlns="http://www.w3.org/2000/svg">
<path d="M23.1562 23.3672C26.6953 23.3672 29.4609 20.7773 29.4609 17.5547C29.4609 15.0938 28.043 12.9609 25.7578 12C25.7812 6.77344 22.0195 3 17.2266 3C14.0508 3 11.7891 4.69922 10.3828 6.75C7.5 5.90625 4.35938 8.09766 4.30078 11.3789C1.65234 11.8008 0 14.168 0 17.0273C0 20.4727 3.01172 23.3672 7.01953 23.3672H23.1562Z" fill="black" fill-opacity="0.85"/>
<path d="M14.7422 15.3867C14.1328 15.3867 13.8164 15.0352 13.793 14.4141L13.6289 9.98438C13.6055 9.3164 14.0742 8.85938 14.7305 8.85938C15.375 8.85938 15.8672 9.32812 15.8438 9.99609L15.6797 14.4141C15.6562 15.0469 15.3281 15.3867 14.7422 15.3867ZM14.7305 19.2539C14.0273 19.2539 13.418 18.6797 13.418 17.9883C13.418 17.2969 14.0156 16.7227 14.7305 16.7227C15.4453 16.7227 16.043 17.2852 16.043 17.9883C16.043 18.6914 15.4336 19.2539 14.7305 19.2539Z" fill="white"/>
</svg>
