<svg width="28" height="28" viewBox="0 0 28 28" fill="none" xmlns="http://www.w3.org/2000/svg">
<path d="M6.67969 24.5977H20.8945C23.3555 24.5977 24.5742 23.3789 24.5742 20.9648V6.65625C24.5742 4.24219 23.3555 3.02344 20.8945 3.02344H6.67969C4.23047 3.02344 3 4.23047 3 6.65625V20.9648C3 23.3906 4.23047 24.5977 6.67969 24.5977ZM6.70312 22.7109C5.53125 22.7109 4.88672 22.0898 4.88672 20.8711V6.75C4.88672 5.53125 5.53125 4.91016 6.70312 4.91016H20.8711C22.0312 4.91016 22.6875 5.53125 22.6875 6.75V20.8711C22.6875 22.0898 22.0312 22.7109 20.8711 22.7109H6.70312Z" fill="black" fill-opacity="0.85"/>
<path d="M11.2734 19.1602C11.8945 19.1602 12.2227 18.75 12.2227 18.1055V15.5391H14.5312C16.8281 15.5391 18.3516 14.1094 18.3516 11.9531C18.3516 9.79688 16.8047 8.34375 14.543 8.34375H11.2734C10.6641 8.34375 10.3477 8.76562 10.3477 9.39844V18.1055C10.3477 18.7266 10.6758 19.1602 11.2734 19.1602ZM12.2227 14.1094V9.77344H14.2734C15.6445 9.77344 16.5 10.6055 16.5 11.9531C16.5 13.2773 15.6562 14.1094 14.2734 14.1094H12.2227Z" fill="black" fill-opacity="0.85"/>
</svg>
