<svg width="28" height="28" viewBox="0 0 28 28" fill="none" xmlns="http://www.w3.org/2000/svg">
<path d="M14.4414 24.7188C18.4023 24.7188 21.7539 22.6562 21.7539 18.8945C21.7539 16 19.9023 14.2773 15.7656 13.2812L13.5391 12.7539C10.9258 12.1328 9.71875 11.043 9.71875 9.33203C9.71875 7.49219 11.4648 5.91016 14.4297 5.91016C16.8555 5.91016 18.5195 7.04688 19.1641 9.14453C19.3516 9.75391 19.75 10.0703 20.3359 10.0703C21.0273 10.0703 21.4141 9.625 21.4141 8.94531C21.4141 8.75781 21.3906 8.55859 21.332 8.34766C20.6289 5.64062 17.8867 3.83594 14.4297 3.83594C10.3516 3.83594 7.43359 6.13281 7.43359 9.47266C7.43359 12.2383 9.26172 13.9727 13.1875 14.9219L15.4141 15.4492C18.332 16.1523 19.4688 17.1602 19.4688 19.0586C19.4688 21.3203 17.6172 22.6445 14.4648 22.6445C11.6523 22.6445 9.8125 21.4609 9.25 19.2695C9.05078 18.6484 8.66406 18.332 8.07812 18.332C7.39844 18.332 7 18.7891 7 19.4805C7 19.6562 7.02344 19.8555 7.08203 20.0664C7.82031 23.0078 10.9258 24.7188 14.4414 24.7188ZM14.3828 27.543C14.875 27.543 15.2734 27.1445 15.2734 26.6523V1.97266C15.2734 1.48047 14.875 1.09375 14.3828 1.09375C13.8906 1.09375 13.5039 1.48047 13.5039 1.97266V26.6523C13.5039 27.1445 13.8906 27.543 14.3828 27.543Z" fill="black" fill-opacity="0.85"/>
</svg>
