<svg width="28" height="28" viewBox="0 0 28 28" fill="none" xmlns="http://www.w3.org/2000/svg">
<g clip-path="url(#clip0_2124_78051)">
<path d="M13.668 8.55078C14.6289 8.55078 15.4023 7.76562 15.4023 6.82812C15.4023 5.86719 14.6289 5.09375 13.668 5.09375C12.7188 5.09375 11.9453 5.86719 11.9453 6.82812C11.9453 7.76562 12.7188 8.55078 13.668 8.55078ZM13.668 22.332C14.6289 22.332 15.4023 21.5586 15.4023 20.5977C15.4023 19.6484 14.6289 18.875 13.668 18.875C12.7188 18.875 11.9453 19.6484 11.9453 20.5977C11.9453 21.5586 12.7188 22.332 13.668 22.332ZM5.04297 14.7266H22.293C22.8555 14.7266 23.3359 14.2461 23.3359 13.6719C23.3359 13.0977 22.8555 12.6289 22.293 12.6289H5.04297C4.48047 12.6289 4 13.0977 4 13.6719C4 14.2461 4.48047 14.7266 5.04297 14.7266Z" fill="black" fill-opacity="0.85"/>
</g>
<defs>
<clipPath id="clip0_2124_78051">
<rect width="19.3359" height="17.332" fill="white" transform="translate(4 5)"/>
</clipPath>
</defs>
</svg>
