<svg width="28" height="29" viewBox="0 0 28 29" fill="none" xmlns="http://www.w3.org/2000/svg">
<path d="M25.9336 18.7588C25.9336 18.2198 25.5586 17.8682 25.0078 17.8682H11.2031C10.957 17.8682 10.8633 17.7862 10.8633 17.5284V3.84082C10.8633 3.25489 10.4883 2.85645 9.92578 2.85645C9.35156 2.85645 8.97656 3.25489 8.97656 3.84082V18.712C8.97656 19.2745 9.33984 19.6377 9.91406 19.6377H25.0078C25.5586 19.6377 25.9336 19.2862 25.9336 18.7588ZM3 9.71192C3 10.2393 3.375 10.5909 3.91406 10.5909H17.8008C18.0469 10.5909 18.1406 10.6846 18.1406 10.9307V24.7002C18.1406 25.2862 18.5156 25.6846 19.0781 25.6846C19.6523 25.6846 20.0273 25.2862 20.0273 24.7002V9.75879C20.0273 9.19629 19.6523 8.82129 19.0898 8.82129H3.91406C3.375 8.82129 3 9.18457 3 9.71192Z" fill="black" fill-opacity="0.85"/>
<path d="M24.5039 9.1728C24.8555 9.1728 25.1602 8.85639 25.1602 8.49311V7.06342C25.1602 4.09858 23.2031 2.14155 20.2383 2.14155H20.0273V0.758733C20.0273 -0.0264235 19.4414 -0.202205 18.8555 0.231389L16.1836 2.18842C15.75 2.51655 15.7383 2.87983 16.1836 3.21967L18.8555 5.16498C19.4414 5.59858 20.0273 5.41108 20.0273 4.66108V3.37201H20.2266C22.3945 3.37201 23.8242 4.84858 23.8242 7.06342V8.49311C23.8242 8.85639 24.1406 9.1728 24.5039 9.1728ZM4.5 19.3681C4.14844 19.3681 3.84375 19.6845 3.84375 20.0478V21.4775C3.84375 24.4423 5.80078 26.3994 8.76562 26.3994H8.97656V27.7822C8.97656 28.5673 9.5625 28.7314 10.1484 28.2978L12.8203 26.3525C13.2539 26.0244 13.2656 25.6494 12.8203 25.3212L10.1484 23.3759C9.5625 22.9423 8.97656 23.1298 8.97656 23.8681V25.1689H8.77734C6.60938 25.1689 5.17969 23.6923 5.17969 21.4658V20.0478C5.17969 19.6845 4.86328 19.3681 4.5 19.3681Z" fill="black" fill-opacity="0.85"/>
</svg>
