<svg width="28" height="28" viewBox="0 0 28 28" fill="none" xmlns="http://www.w3.org/2000/svg">
<g clip-path="url(#clip0_2124_24675)">
<path d="M9.1875 26.8086H17.8711C19.7812 26.8086 21.0586 25.5898 21.0586 23.7617V5.04688C21.0586 3.21875 19.7812 2 17.8711 2H9.1875C7.27734 2 6 3.21875 6 5.04688V23.7617C6 25.5898 7.27734 26.8086 9.1875 26.8086ZM9.43359 24.9219C8.4375 24.9219 7.88672 24.3945 7.88672 23.457V5.35156C7.88672 4.41406 8.4375 3.88672 9.43359 3.88672H17.6367C18.6211 3.88672 19.1719 4.41406 19.1719 5.35156V23.457C19.1719 24.3945 18.6211 24.9219 17.6367 24.9219H9.43359ZM11.7188 25.1914H15.3516V24.5234C15.3516 24.043 15.0352 23.7148 14.5547 23.7148H12.5273C12.0352 23.7148 11.7188 24.043 11.7188 24.5234V25.1914Z" fill="black" fill-opacity="0.85"/>
</g>
<defs>
<clipPath id="clip0_2124_24675">
<rect width="15.0586" height="24.832" fill="white" transform="translate(6 2)"/>
</clipPath>
</defs>
</svg>
