<svg width="28" height="28" viewBox="0 0 28 28" fill="none" xmlns="http://www.w3.org/2000/svg">
<path d="M7.99609 5.54114H11.9336C14.8281 5.54114 16.6094 7.00598 16.6094 9.71301C16.6094 12.4552 14.8633 13.8614 11.8398 13.8614H8.5C7.63281 13.8614 7.19922 14.4474 7.19922 15.0685C7.19922 15.4435 7.33984 15.8185 7.65625 16.1114L16.5391 24.4903C17.6641 25.545 19.1172 24.0568 18.0156 23.0255L10.3984 15.8771H11.9102C16.8203 15.8771 18.918 12.7716 18.918 9.6427C18.918 7.72083 18.2383 6.11536 16.8906 5.07239H20.6289C21.0508 5.07239 21.4023 4.73255 21.4023 4.31067C21.4023 3.87707 21.0508 3.53723 20.6289 3.53723H7.99609C7.44531 3.53723 7 3.99426 7 4.54505C7 5.08411 7.44531 5.54114 7.99609 5.54114ZM7.9375 10.4982H20.6289C21.0508 10.4982 21.4023 10.1583 21.4023 9.72473C21.4023 9.30286 21.0508 8.96301 20.6289 8.96301H7.9375C7.51562 8.96301 7.16406 9.30286 7.16406 9.72473C7.16406 10.1583 7.51562 10.4982 7.9375 10.4982Z" fill="black" fill-opacity="0.85"/>
</svg>
