<svg width="28" height="28" viewBox="0 0 28 28" fill="none" xmlns="http://www.w3.org/2000/svg">
<path d="M13.9531 25.9062C20.4922 25.9062 25.9062 20.4922 25.9062 13.9531C25.9062 7.42578 20.4805 2 13.9414 2C7.41406 2 2 7.42578 2 13.9531C2 20.4922 7.42578 25.9062 13.9531 25.9062Z" fill="black" fill-opacity="0.85"/>
<path d="M7.94141 15.2773C7.94141 12.6172 9.82812 10.8594 12.6523 10.8594H16.0859L17.293 10.9063L16.4961 10.2852L15.3125 9.13672C15.1367 8.97266 15.0312 8.75 15.0312 8.50391C15.0312 8 15.4062 7.60156 15.9102 7.60156C16.1797 7.60156 16.3789 7.69531 16.5547 7.87109L19.6133 10.9766C19.8242 11.1875 19.9297 11.457 19.9297 11.7148C19.9297 11.9844 19.8359 12.2422 19.6133 12.4531L16.543 15.5938C16.3789 15.7578 16.168 15.8516 15.8984 15.8516C15.418 15.8516 15.0312 15.4531 15.0312 14.9492C15.0312 14.7031 15.1367 14.4805 15.3125 14.3047L16.7305 12.9453L17.2812 12.5469L16.0859 12.6055H12.6523C10.8711 12.6055 9.6875 13.6719 9.6875 15.2773C9.6875 17 10.8945 18.1484 12.6641 18.1484H14.2695C14.8203 18.1484 15.1836 18.5117 15.1836 19.0273C15.1836 19.5547 14.8086 19.8945 14.2461 19.8945H12.6641C9.83984 19.8945 7.94141 18.0664 7.94141 15.2773Z" fill="white"/>
</svg>
