<svg width="28" height="31" viewBox="0 0 28 31" fill="none" xmlns="http://www.w3.org/2000/svg">
<path d="M7.40625 28.7344C7.95703 28.7344 8.53125 28.418 8.98828 27.9844L13.6875 23.5312C13.8164 23.4023 13.9102 23.3438 14.0039 23.3438C14.0977 23.3438 14.1914 23.4023 14.3203 23.5312L19.0195 27.9844C19.4766 28.418 20.0391 28.7344 20.6016 28.7344C21.3984 28.7344 22.0078 27.9961 22.0078 27.2109C22.0078 26.7422 21.8203 26.2266 21.5742 25.5703L15.6211 10.207C15.2227 9.1875 14.6719 8.75391 14.0039 8.75391C13.3359 8.75391 12.7852 9.1875 12.3867 10.207L6.43359 25.5703C6.1875 26.2266 6 26.7422 6 27.2109C6 27.9961 6.59766 28.7344 7.40625 28.7344ZM14.0039 7.14844C14.5664 7.14844 14.9414 6.75 14.9414 6.12891V1.00781C14.9414 0.386719 14.5664 0 14.0039 0C13.4414 0 13.0547 0.386719 13.0547 1.00781V6.12891C13.0547 6.75 13.4414 7.14844 14.0039 7.14844Z" fill="black" fill-opacity="0.85"/>
</svg>
