<svg width="28" height="28" viewBox="0 0 28 28" fill="none" xmlns="http://www.w3.org/2000/svg">
<path d="M0 13.8672H8.75391C7.18359 13.1641 6.09375 11.8633 6.09375 10.293C6.09375 8.47656 7.44141 7.12891 9.23438 7.12891C10.8047 7.12891 12.1992 8.10156 13.0078 9.69531V4.01172H14.543V9.69531C15.3633 8.10156 16.7578 7.12891 18.3164 7.12891C20.1211 7.12891 21.457 8.47656 21.457 10.293C21.457 11.8633 20.3789 13.1641 18.7969 13.8672H27.5391V15.2617H15.7617C16.4766 16.75 18.8672 19 20.5898 19.1758C21.2461 19.2344 21.6094 19.6328 21.6094 20.2539C21.6094 20.8047 21.1641 21.3203 20.4492 21.2266C18.5273 20.9453 15.4453 18.6836 14.6367 16.1289H14.543V24.0273H13.0078V16.1289H12.9258C12.1172 18.6836 9.03516 20.9453 7.11328 21.2266C6.39844 21.3203 5.95312 20.8047 5.95312 20.2539C5.95312 19.6328 6.31641 19.2461 6.96094 19.1758C8.69531 18.9766 11.0742 16.75 11.8008 15.2617H0V13.8672ZM12.4102 13.6797H12.7852V13.3281C12.7852 10.9727 11.1797 8.92188 9.32812 8.92188C8.4375 8.92188 7.86328 9.49609 7.86328 10.4336C7.86328 12.0039 9.96094 13.6797 12.4102 13.6797ZM15.1406 13.6797C17.6016 13.6797 19.6875 12.0039 19.6875 10.4336C19.6875 9.49609 19.125 8.92188 18.2227 8.92188C16.3711 8.92188 14.7656 10.9727 14.7656 13.3281V13.6797H15.1406ZM3.67969 24.0273H23.8594C26.3203 24.0273 27.5391 22.8203 27.5391 20.4062V7.64453C27.5391 5.23047 26.3203 4.01172 23.8594 4.01172H3.67969C1.23047 4.01172 0 5.23047 0 7.64453V20.4062C0 22.8203 1.23047 24.0273 3.67969 24.0273Z" fill="black" fill-opacity="0.85"/>
</svg>
