<svg width="28" height="28" viewBox="0 0 28 28" fill="none" xmlns="http://www.w3.org/2000/svg">
<path d="M13.9531 25.9062C20.4922 25.9062 25.9062 20.4805 25.9062 13.9531C25.9062 7.41406 20.4805 2 13.9414 2C7.41406 2 2 7.41406 2 13.9531C2 20.4805 7.42578 25.9062 13.9531 25.9062Z" fill="black" fill-opacity="0.85"/>
<path d="M7.49609 13.0391C7.49609 11.8203 8.14062 10.8828 8.97266 10.8828C9.79297 10.8828 10.4492 11.8203 10.4492 13.0391C10.4492 14.2461 9.79297 15.1719 8.97266 15.1719C8.14062 15.1719 7.49609 14.2461 7.49609 13.0391ZM10.4727 9.48828C10.4727 8.28125 11.1289 7.36719 11.9492 7.36719C12.7812 7.36719 13.4258 8.29297 13.4258 9.48828C13.4258 10.6953 12.7812 11.6445 11.9492 11.6445C11.1289 11.6445 10.4727 10.6953 10.4727 9.48828ZM14.4688 9.48828C14.4688 8.29297 15.1133 7.36719 15.9336 7.36719C16.7656 7.36719 17.4219 8.28125 17.4219 9.48828C17.4219 10.6953 16.7656 11.6445 15.9336 11.6445C15.1133 11.6445 14.4688 10.6953 14.4688 9.48828ZM17.4453 13.0391C17.4453 11.8203 18.1016 10.8828 18.9219 10.8828C19.7422 10.8828 20.3867 11.8203 20.3867 13.0391C20.3867 14.2461 19.7422 15.1719 18.9219 15.1719C18.1016 15.1719 17.4453 14.2461 17.4453 13.0391ZM9.34766 17.7617C9.34766 16.7188 9.98047 16.1797 10.5781 15.6758C10.9063 15.418 11.2344 15.1602 11.4805 14.7969C11.6445 14.5273 11.7852 14.2344 11.9375 13.9531C12.3594 13.0156 12.7109 12.1367 13.9414 12.1367C15.1836 12.1367 15.5234 13.0039 15.957 13.9531C16.0977 14.2344 16.2383 14.5391 16.4141 14.8086C16.6602 15.1602 16.9883 15.418 17.3164 15.6758C17.9141 16.1797 18.5469 16.7188 18.5469 17.7617C18.5469 19.0039 17.7148 19.8711 16.4844 19.8711C15.8867 19.8711 15.4531 19.7188 15.0195 19.5664C14.6797 19.4375 14.3398 19.3438 13.9414 19.3438C13.543 19.3438 13.2148 19.4375 12.8633 19.5664C12.4414 19.7188 12.0078 19.8711 11.3984 19.8711C10.168 19.8711 9.34766 19.0039 9.34766 17.7617Z" fill="white"/>
</svg>
