<svg width="28" height="28" viewBox="0 0 28 28" fill="none" xmlns="http://www.w3.org/2000/svg">
<path d="M13.9531 25.9062C20.4922 25.9062 25.9062 20.4805 25.9062 13.9531C25.9062 7.41406 20.4805 2 13.9414 2C7.41406 2 2 7.41406 2 13.9531C2 20.4805 7.42578 25.9062 13.9531 25.9062Z" fill="black" fill-opacity="0.85"/>
<path d="M10.7656 18.9688C10.2734 18.9688 9.875 18.5703 9.875 18.0781V10.7539L8.77344 11.6445C8.64453 11.7383 8.52734 11.7969 8.32812 11.7969C7.96484 11.7969 7.71875 11.5273 7.71875 11.1523C7.71875 10.8359 7.88281 10.6016 8.09375 10.4375L9.41797 9.40625C9.71094 9.19531 10.1211 8.91406 10.6367 8.91406C11.2461 8.91406 11.6445 9.27734 11.6445 9.89844V18.0781C11.6445 18.5703 11.2344 18.9688 10.7656 18.9688ZM16.6953 19.0859C14.293 19.0859 13.5664 16.3906 13.5664 13.9531C13.5664 11.5156 14.293 8.82031 16.6953 8.82031C19.0977 8.82031 19.8242 11.5156 19.8242 13.9531C19.8242 16.3906 19.0977 19.0859 16.6953 19.0859ZM16.6953 17.6445C17.6797 17.6445 18.0547 16.0508 18.0547 13.9531C18.0547 11.8438 17.6797 10.2617 16.6953 10.2617C15.7109 10.2617 15.3359 11.8438 15.3359 13.9531C15.3359 16.0508 15.7109 17.6445 16.6953 17.6445Z" fill="white"/>
</svg>
