<svg width="28" height="28" viewBox="0 0 28 28" fill="none" xmlns="http://www.w3.org/2000/svg">
<g clip-path="url(#clip0_2124_88793)">
<path d="M4.67969 20.7422H16.4453C18.8828 20.7422 20.125 19.5234 20.125 17.1094V5.25C20.125 2.83594 18.8828 1.61719 16.4453 1.61719H4.67969C2.23047 1.61719 1 2.83594 1 5.25V17.1094C1 19.5234 2.23047 20.7422 4.67969 20.7422Z" fill="black" fill-opacity="0.85"/>
<path d="M10.3633 27.7617H22.1289C25.457 27.7617 27.4023 25.8398 27.4023 22.5352V10.6758C27.4023 7.37109 25.457 5.44922 22.1289 5.44922H10.3633C7.03516 5.44922 5.08984 7.35938 5.08984 10.6758V22.5352C5.08984 25.8398 7.03516 27.7617 10.3633 27.7617Z" fill="white"/>
<path d="M10.3633 26.168H22.1289C24.5664 26.168 25.8086 24.9492 25.8086 22.5352V10.6758C25.8086 8.26172 24.5664 7.04297 22.1289 7.04297H10.3633C7.91406 7.04297 6.68359 8.25 6.68359 10.6758V22.5352C6.68359 24.9492 7.91406 26.168 10.3633 26.168Z" fill="black" fill-opacity="0.85"/>
<path d="M11.5117 13.5938C10.5625 13.582 9.80078 12.832 9.80078 11.8711C9.80078 10.9336 10.5625 10.1719 11.5117 10.1719C12.4492 10.1719 13.2227 10.9336 13.2227 11.8711C13.2227 12.832 12.4492 13.6172 11.5117 13.5938ZM20.9688 13.5938C20.0312 13.582 19.2578 12.832 19.2578 11.8711C19.2578 10.9336 20.0312 10.1719 20.9688 10.1719C21.9062 10.1719 22.6797 10.9336 22.6797 11.8711C22.6797 12.832 21.9062 13.6172 20.9688 13.5938ZM16.2344 18.3398C15.2969 18.3398 14.5352 17.5664 14.5352 16.6055C14.5352 15.668 15.2969 14.918 16.2344 14.918C17.1719 14.918 17.9453 15.668 17.9453 16.6055C17.9453 17.5664 17.1719 18.3398 16.2344 18.3398ZM11.5117 23.0742C10.5625 23.0742 9.8125 22.3008 9.8125 21.3516C9.8125 20.4023 10.5625 19.6523 11.5117 19.6523C12.4492 19.6523 13.2109 20.4023 13.2109 21.3516C13.2109 22.3008 12.4492 23.0742 11.5117 23.0742ZM20.9688 23.0742C20.0312 23.0742 19.2695 22.3008 19.2695 21.3516C19.2695 20.4023 20.0312 19.6523 20.9688 19.6523C21.9062 19.6523 22.6797 20.4023 22.6797 21.3516C22.6797 22.3008 21.9062 23.0742 20.9688 23.0742Z" fill="white"/>
</g>
<defs>
<clipPath id="clip0_2124_88793">
<rect width="26.4023" height="27.7617" fill="white" transform="translate(1)"/>
</clipPath>
</defs>
</svg>
