<svg width="36" height="28" viewBox="0 0 36 28" fill="none" xmlns="http://www.w3.org/2000/svg">
<path d="M4.52344 18.354C4.89844 17.9321 4.78125 17.3814 4.35938 16.9009C2.78906 15.1548 1.91016 12.8579 1.91016 10.3384C1.91016 7.81885 2.78906 5.52198 4.35938 3.77589C4.78125 3.29542 4.89844 2.74463 4.52344 2.32276C4.14844 1.87745 3.49219 1.88917 3.04688 2.38135C1.10156 4.49073 0 7.30323 0 10.3384C0 13.3735 1.10156 16.186 3.04688 18.2954C3.49219 18.7876 4.14844 18.7876 4.52344 18.354ZM31.4062 18.354C31.7812 18.7876 32.4375 18.7876 32.8828 18.2954C34.8398 16.186 35.9297 13.3735 35.9297 10.3384C35.9297 7.30323 34.8398 4.49073 32.8828 2.38135C32.4375 1.88917 31.7812 1.87745 31.4062 2.32276C31.0312 2.74463 31.1484 3.29542 31.5703 3.77589C33.1406 5.52198 34.0195 7.81885 34.0195 10.3384C34.0195 12.8579 33.1406 15.1548 31.5703 16.9009C31.1484 17.3814 31.0312 17.9321 31.4062 18.354Z" fill="black" fill-opacity="0.85"/>
<path d="M7.80469 15.0142C8.17969 14.5923 8.02734 14.0649 7.65234 13.561C6.94922 12.6821 6.60938 11.5572 6.60938 10.3384C6.60938 9.11967 6.94922 7.98295 7.65234 7.11576C8.02734 6.61185 8.17969 6.08451 7.80469 5.66263C7.41797 5.21732 6.71484 5.21732 6.30469 5.74467C5.28516 7.01029 4.69922 8.61576 4.69922 10.3384C4.69922 12.061 5.28516 13.6665 6.30469 14.9321C6.71484 15.4595 7.41797 15.4478 7.80469 15.0142ZM28.125 15.0142C28.5117 15.4478 29.2148 15.4595 29.625 14.9321C30.6445 13.6665 31.2305 12.061 31.2305 10.3384C31.2305 8.61576 30.6445 7.01029 29.625 5.74467C29.2148 5.21732 28.5117 5.21732 28.125 5.66263C27.75 6.08451 27.9023 6.61185 28.2773 7.11576C28.9805 7.98295 29.3203 9.11967 29.3203 10.3384C29.3203 11.5572 28.9805 12.6821 28.2773 13.561C27.9023 14.0649 27.75 14.5923 28.125 15.0142Z" fill="black" fill-opacity="0.85"/>
<path d="M12.3047 25.5024C13.1719 25.5024 13.7461 24.9048 13.7461 24.0142V17.3931H18.5273C22.7695 17.3931 25.6992 14.4868 25.6992 10.3384C25.6992 6.1665 22.7812 3.29541 18.5391 3.29541H12.3047C11.4375 3.29541 10.8633 3.88134 10.8633 4.78369V24.0142C10.8633 24.9165 11.4375 25.5024 12.3047 25.5024ZM13.7461 14.7212V5.94384H18C21.0234 5.94384 22.7461 7.53759 22.7461 10.3384C22.7461 13.1157 21.0117 14.7212 18 14.7212H13.7461Z" fill="black" fill-opacity="0.85"/>
</svg>
