<svg width="28" height="28" viewBox="0 0 28 28" fill="none" xmlns="http://www.w3.org/2000/svg">
<g clip-path="url(#clip0_2124_24733)">
<path d="M15.8818 13.8477C15.8818 20.9492 18.1553 25.6953 21.5772 25.6953C24.999 25.6953 27.2842 20.9492 27.2842 13.8477C27.2842 6.73438 24.999 2 21.5772 2C18.1553 2 15.8818 6.73438 15.8818 13.8477ZM17.7686 13.8477C17.7686 7.87109 19.3037 3.88672 21.5772 3.88672C23.8506 3.88672 25.3975 7.87109 25.3975 13.8477C25.3975 19.8125 23.8506 23.8086 21.5772 23.8086C19.3037 23.8086 17.7686 19.8125 17.7686 13.8477ZM9.95215 13.8477C9.95215 21.2188 12.0029 25.6953 16.9131 25.6953H21.5772V23.8086H16.9131C13.1865 23.8086 11.8389 20.0469 11.8389 13.8477C11.8389 7.64844 13.1865 3.88672 16.9131 3.88672H21.5772V2H16.9131C12.0029 2 9.95215 6.46484 9.95215 13.8477ZM15.5186 6.99219H17.71V5.45703H15.5186C15.0967 5.45703 14.7451 5.80859 14.7451 6.23047C14.7451 6.65234 15.0967 6.99219 15.5186 6.99219ZM14.7217 10.5898H16.9131V9.05469H14.7217C14.2998 9.05469 13.9483 9.39453 13.9483 9.81641C13.9483 10.2383 14.2998 10.5898 14.7217 10.5898ZM14.417 14.4688H16.6084V12.9336H14.417C13.9951 12.9336 13.6553 13.2852 13.6553 13.707C13.6553 14.1289 13.9951 14.4688 14.417 14.4688ZM14.7217 18.3594H16.9131V16.8242H14.7217C14.2998 16.8242 13.9483 17.1758 13.9483 17.5977C13.9483 18.0195 14.2998 18.3594 14.7217 18.3594ZM15.5186 21.957H17.71V20.4219H15.5186C15.0967 20.4219 14.7451 20.7617 14.7451 21.1836C14.7451 21.6055 15.0967 21.957 15.5186 21.957Z" fill="black" fill-opacity="0.85"/>
<path d="M4.53809 23.1641C5.07716 23.1641 5.6045 22.707 5.34669 22.0039C4.62013 19.8594 4.22169 17.4336 4.22169 14.9141C4.22169 12.3945 4.62013 9.96875 5.34669 7.82422L3.67091 7.25C2.88575 9.58203 2.45216 12.207 2.45216 14.9141C2.45216 17.6211 2.89747 20.2461 3.67091 22.5781C3.81153 23.0117 4.18653 23.1641 4.53809 23.1641ZM1.56153 8.22266L6.60059 10.0508C7.36231 10.332 7.92481 9.58203 7.71388 8.94922L6.34278 4.84766C6.167 4.29688 5.6045 4.09766 5.10059 4.40234L1.40919 6.67578C0.834969 7.03906 0.846688 7.95312 1.56153 8.22266Z" fill="black" fill-opacity="0.85"/>
</g>
<defs>
<clipPath id="clip0_2124_24733">
<rect width="26.2842" height="23.707" fill="white" transform="translate(1 2)"/>
</clipPath>
</defs>
</svg>
