<svg width="28" height="28" viewBox="0 0 28 28" fill="none" xmlns="http://www.w3.org/2000/svg">
<g clip-path="url(#clip0_2124_50033)">
<path d="M8.63281 1C6.20703 1 5 2.24219 5 4.67969V23.2539C5 25.7031 6.20703 26.9219 8.63281 26.9219H18.5469C20.9609 26.9219 22.1797 25.7031 22.1797 23.2539V4.67969C22.1797 2.24219 20.9609 1 18.5469 1H8.63281ZM8.72656 2.88672H18.4414C19.6602 2.88672 20.293 3.54297 20.293 4.71484V23.2188C20.293 24.3906 19.6602 25.0352 18.4414 25.0352H8.72656C7.50781 25.0352 6.88672 24.3906 6.88672 23.2188V4.71484C6.88672 3.54297 7.50781 2.88672 8.72656 2.88672Z" fill="black" fill-opacity="0.85"/>
<path d="M9.51172 16.0586C8.77344 16.0586 8.46875 16.3516 8.46875 17.0898V22.4102C8.46875 23.1484 8.77344 23.4414 9.51172 23.4414H17.6094C18.3594 23.4414 18.6641 23.1484 18.6641 22.4102V17.0898C18.6641 16.3516 18.3594 16.0586 17.6094 16.0586H9.51172Z" fill="black" fill-opacity="0.85"/>
</g>
<defs>
<clipPath id="clip0_2124_50033">
<rect width="17.1797" height="25.9336" fill="white" transform="translate(5 1)"/>
</clipPath>
</defs>
</svg>
