<svg width="28" height="28" viewBox="0 0 28 28" fill="none" xmlns="http://www.w3.org/2000/svg">
<path d="M1.25829 23.0069C3.21532 25.8194 7.53954 26.7804 10.3052 24.8585C12.6958 23.1944 13.2231 20.6163 11.6411 18.3663C10.2231 16.3272 7.65673 15.753 5.96923 16.9601C4.02392 18.3429 4.80907 20.2413 3.61376 21.0851C2.61767 21.7999 1.92626 21.3546 1.35204 21.7413C0.977041 21.9757 0.836416 22.421 1.25829 23.0069ZM12.0864 16.6319C12.9419 17.4874 13.5864 18.6241 13.7388 19.5499C14.688 19.3976 15.4497 18.9522 16.2466 18.1554C16.3755 18.0382 16.4927 17.9093 16.6099 17.7686C16.0942 14.9444 13.7388 12.6241 10.9614 12.1085C10.8208 12.2257 10.6919 12.3546 10.563 12.4835C9.7661 13.2804 9.33251 14.0655 9.18017 14.9913C10.0942 15.1436 11.2427 15.7765 12.0864 16.6319ZM23.1372 2.69832C22.5395 3.13191 16.0239 7.59675 12.0278 11.1241C14.6763 11.9561 16.7505 14.0186 17.5942 16.7022C21.145 12.7061 25.5981 6.20222 26.0317 5.59285C27.4145 3.65925 25.0005 1.31551 23.1372 2.69832Z" fill="black" fill-opacity="0.85"/>
</svg>
