<svg width="28" height="28" viewBox="0 0 28 28" fill="none" xmlns="http://www.w3.org/2000/svg">
<g clip-path="url(#clip0_2124_24837)">
<path d="M9.25781 26.0469H19.3828C21.3398 26.0469 22.6406 24.8047 22.6406 22.9648V5.08203C22.6406 3.23047 21.3398 2 19.3828 2H9.25781C7.30078 2 6 3.23047 6 5.08203V22.9648C6 24.8047 7.30078 26.0469 9.25781 26.0469ZM9.49219 24.1602C8.51953 24.1602 7.88672 23.5625 7.88672 22.6602V5.38672C7.88672 4.48438 8.51953 3.88672 9.49219 3.88672H19.1484C20.1211 3.88672 20.7539 4.48438 20.7539 5.38672V22.6602C20.7539 23.5625 20.1211 24.1602 19.1484 24.1602H9.49219Z" fill="black" fill-opacity="0.85"/>
<path d="M14.332 21.5938C14.7539 21.5938 15.0938 21.2422 15.0938 20.8203V18.582C15.0938 18.1602 14.7539 17.8086 14.332 17.8086C13.9102 17.8086 13.5586 18.1602 13.5586 18.582V20.8203C13.5586 21.2422 13.9102 21.5938 14.332 21.5938ZM14.332 15.8164C17.2852 15.8164 19.6992 13.4141 19.6992 10.4492C19.6992 7.47266 17.2852 5.07031 14.332 5.07031C11.3555 5.07031 8.95312 7.47266 8.95312 10.4492C8.95312 13.4141 11.3555 15.8164 14.332 15.8164ZM14.332 14.3398C12.1641 14.3398 10.4297 12.6055 10.4297 10.4492C10.4297 8.28125 12.1641 6.54688 14.332 6.54688C16.4766 6.54688 18.2227 8.29297 18.2227 10.4492C18.2227 12.6055 16.4766 14.3398 14.332 14.3398Z" fill="black" fill-opacity="0.85"/>
</g>
<defs>
<clipPath id="clip0_2124_24837">
<rect width="16.6406" height="24.0586" fill="white" transform="translate(6 2)"/>
</clipPath>
</defs>
</svg>
