<svg width="34" height="28" viewBox="0 0 34 28" fill="none" xmlns="http://www.w3.org/2000/svg">
<path d="M0.196487 21.8281C1.22774 25.6484 2.29414 26.8086 4.70821 26.8086H18.384C20.1184 26.8086 21.2785 25.8711 21.7121 24.1133L26.1184 6.23047C26.8332 3.3125 25.3801 2 23.6926 2C21.4543 2 19.0168 4.39062 20.3879 8.25781L20.7277 6.81641C17.2004 8.66797 15.5949 12.957 16.2395 18.1953L16.6613 17.6094C14.2473 17.1055 11.0949 16.8008 8.05977 16.8008C1.79024 16.8008 -0.764451 18.3242 0.196487 21.8281Z" fill="black" fill-opacity="0.85"/>
<path d="M27.3959 13.4609C27.2318 14.0703 27.6537 14.4688 28.2865 14.2812L32.9389 12.8867C33.5482 12.7109 33.7006 12.1016 33.267 11.668L29.9037 8.12892C29.4584 7.66017 28.8842 7.8125 28.7201 8.42188L27.3959 13.4609Z" fill="black" fill-opacity="0.85"/>
<path d="M14.5869 9.27735L15.9111 4.22657C16.0752 3.62892 15.6533 3.21876 15.0439 3.40626L10.3564 4.81251C9.77048 4.98829 9.60641 5.58595 10.04 6.03126L13.415 9.54689C13.8603 10.0156 14.4228 9.89845 14.5869 9.27735Z" fill="black" fill-opacity="0.85"/>
</svg>
