<svg width="28" height="28" viewBox="0 0 28 28" fill="none" xmlns="http://www.w3.org/2000/svg">
<g clip-path="url(#clip0_2124_88845)">
<path d="M13.9531 25.9062C20.4922 25.9062 25.9062 20.4805 25.9062 13.9531C25.9062 7.41406 20.4805 2 13.9414 2C7.41406 2 2 7.41406 2 13.9531C2 20.4805 7.42578 25.9062 13.9531 25.9062ZM13.9531 23.9141C8.42188 23.9141 4.00391 19.4844 4.00391 13.9531C4.00391 8.42188 8.41016 3.99219 13.9414 3.99219C19.4727 3.99219 23.9141 8.42188 23.9141 13.9531C23.9141 19.4844 19.4844 23.9141 13.9531 23.9141Z" fill="black" fill-opacity="0.85"/>
<path d="M10.203 11.4453H11.1991V10.5781C11.1991 9.10156 12.371 8 13.9061 8C15.4413 8 16.6132 9.10156 16.6132 10.5781V11.4453H17.6093V10.5781C17.6093 8.55079 16.0038 7.01562 13.9061 7.01562C11.8084 7.01562 10.203 8.55079 10.203 10.5781V11.4453ZM13.9061 14.1992C15.8632 14.1992 17.5976 13.4258 18.5937 11.4102C18.3358 11.2695 18.0311 11.2109 17.6679 11.2109H10.1444C9.78111 11.2109 9.47642 11.2695 9.21861 11.4102C10.2147 13.4258 11.9491 14.1992 13.9061 14.1992ZM19.9647 17.1875L19.4608 12.8164C19.4257 12.5469 19.3554 12.3125 19.2382 12.1133C18.2538 13.9062 16.7421 14.8086 15.1015 15.1016V15.4883C15.1015 15.8984 14.8554 16.1445 14.4452 16.1445H13.3671C12.9569 16.1445 12.7108 15.8984 12.7108 15.4883V15.1016C11.0702 14.8086 9.55845 13.9062 8.57408 12.1133C8.45689 12.3125 8.38658 12.5469 8.35142 12.8164L7.84752 17.1875C7.67174 18.7227 8.35142 19.543 9.78111 19.543H18.0311C19.4608 19.543 20.1405 18.7227 19.9647 17.1875Z" fill="black" fill-opacity="0.85"/>
</g>
<defs>
<clipPath id="clip0_2124_88845">
<rect width="23.9062" height="23.918" fill="white" transform="translate(2 2)"/>
</clipPath>
</defs>
</svg>
