<svg width="28" height="28" viewBox="0 0 28 28" fill="none" xmlns="http://www.w3.org/2000/svg">
<path d="M14.0391 24.7031C14.6953 24.7031 15.1406 24.2344 15.1406 23.5664V15.5273L21.8438 4.72266C22.0195 4.45312 22.0781 4.24219 22.0781 3.98438C22.0781 3.42188 21.6094 3 20.9883 3C20.5664 3 20.2383 3.17578 20.0039 3.58594L14.0859 13.5H14.0039L8.08594 3.58594C7.83984 3.17578 7.51172 3 7.08984 3C6.48047 3 6 3.42188 6 3.98438C6 4.24219 6.07031 4.45312 6.23438 4.72266L12.9492 15.5273V23.5664C12.9492 24.2344 13.3945 24.7031 14.0391 24.7031ZM8.41406 15.7969H19.7695C20.2148 15.7969 20.5078 15.4688 20.5078 15.0352C20.5078 14.6016 20.2148 14.2734 19.7695 14.2734H8.41406C7.96875 14.2734 7.67578 14.6016 7.67578 15.0352C7.67578 15.4688 7.96875 15.7969 8.41406 15.7969ZM8.41406 19.8164H19.7695C20.2148 19.8164 20.5078 19.4883 20.5078 19.0547C20.5078 18.6211 20.2266 18.2812 19.7695 18.2812H8.41406C7.96875 18.2812 7.67578 18.6211 7.67578 19.0547C7.67578 19.4766 7.96875 19.8164 8.41406 19.8164Z" fill="black" fill-opacity="0.85"/>
</svg>
