<svg width="28" height="28" viewBox="0 0 28 28" fill="none" xmlns="http://www.w3.org/2000/svg">
<g clip-path="url(#clip0_2124_50149)">
<path d="M6.62891 25.9297H9.17188C9.67578 25.9297 10.0039 25.6016 10.0039 25.0859V5.78516C10.0039 5.26953 9.67578 4.94141 9.17188 4.94141H6.62891C6.13672 4.94141 5.80859 5.26953 5.80859 5.78516V25.0859C5.80859 25.6016 6.13672 25.9297 6.62891 25.9297ZM11.9375 25.9297H14.4922C14.9727 25.9297 15.3008 25.6016 15.3008 25.0859V5.78516C15.3008 5.26953 14.9727 4.94141 14.4922 4.94141H11.9375C11.4336 4.94141 11.1055 5.26953 11.1055 5.78516V25.0859C11.1055 25.6016 11.4336 25.9297 11.9375 25.9297ZM17.2344 25.9297H19.7891C20.293 25.9297 20.6211 25.6016 20.6211 25.0859V5.78516C20.6211 5.26953 20.293 4.94141 19.7891 4.94141H17.2344C16.7539 4.94141 16.4258 5.26953 16.4258 5.78516V25.0859C16.4258 25.6016 16.7539 25.9297 17.2344 25.9297ZM22.5547 25.9297H25.0977C25.5898 25.9297 25.918 25.6016 25.918 25.0859V5.78516C25.918 5.26953 25.5898 4.94141 25.0977 4.94141H22.5547C22.0625 4.94141 21.7227 5.26953 21.7227 5.78516V25.0859C21.7227 25.6016 22.0625 25.9297 22.5547 25.9297Z" fill="black" fill-opacity="0.85"/>
<path d="M2 2.9375C2 3.45312 2.43359 3.88672 2.94922 3.88672H25.9297C26.4453 3.88672 26.8789 3.45312 26.8789 2.9375C26.8789 2.42188 26.4453 2 25.9297 2H2.94922C2.43359 2 2 2.42188 2 2.9375ZM2.94922 6.60547C3.38281 6.60547 3.74609 6.24219 3.74609 5.80859C3.74609 5.36328 3.38281 5.01172 2.94922 5.01172C2.50391 5.01172 2.14062 5.36328 2.14062 5.80859C2.14062 6.24219 2.50391 6.60547 2.94922 6.60547ZM2.94922 9.32422C3.38281 9.32422 3.74609 8.94922 3.74609 8.51562C3.74609 8.08203 3.38281 7.71875 2.94922 7.71875C2.50391 7.71875 2.14062 8.08203 2.14062 8.51562C2.14062 8.94922 2.50391 9.32422 2.94922 9.32422ZM2.94922 12.0312C3.38281 12.0312 3.74609 11.668 3.74609 11.2344C3.74609 10.7891 3.38281 10.4375 2.94922 10.4375C2.50391 10.4375 2.14062 10.7891 2.14062 11.2344C2.14062 11.668 2.50391 12.0312 2.94922 12.0312ZM2.94922 14.75C3.38281 14.75 3.74609 14.375 3.74609 13.9414C3.74609 13.5078 3.38281 13.1445 2.94922 13.1445C2.50391 13.1445 2.14062 13.5078 2.14062 13.9414C2.14062 14.375 2.50391 14.75 2.94922 14.75ZM2.94922 17.457C3.38281 17.457 3.74609 17.0938 3.74609 16.6602C3.74609 16.2148 3.38281 15.8633 2.94922 15.8633C2.50391 15.8633 2.14062 16.2148 2.14062 16.6602C2.14062 17.0938 2.50391 17.457 2.94922 17.457ZM2.94922 20.1758C3.38281 20.1758 3.74609 19.8008 3.74609 19.3672C3.74609 18.9336 3.38281 18.5703 2.94922 18.5703C2.50391 18.5703 2.14062 18.9336 2.14062 19.3672C2.14062 19.8008 2.50391 20.1758 2.94922 20.1758ZM2.94922 25.9297C3.45312 25.9297 3.88672 25.5078 3.88672 24.9922V22.2266C3.88672 21.7109 3.46484 21.2891 2.94922 21.2891C2.43359 21.2891 2 21.7109 2 22.2266V24.9922C2 25.5078 2.43359 25.9297 2.94922 25.9297Z" fill="black" fill-opacity="0.85"/>
</g>
<defs>
<clipPath id="clip0_2124_50149">
<rect width="24.8789" height="23.9414" fill="white" transform="translate(2 2)"/>
</clipPath>
</defs>
</svg>
