<svg width="28" height="28" viewBox="0 0 28 28" fill="none" xmlns="http://www.w3.org/2000/svg">
<g clip-path="url(#clip0_2124_88414)">
<path d="M13.9531 25.918C20.4922 25.918 25.9062 20.5039 25.9062 13.9648C25.9062 7.4375 20.4805 2.01172 13.9414 2.01172C7.41406 2.01172 2 7.4375 2 13.9648C2 20.5039 7.42578 25.918 13.9531 25.918Z" fill="black" fill-opacity="0.85"/>
<path d="M10.4258 20.082C9.16016 20.082 8.48047 19.4375 8.48047 18.1484V12.0898H19.4258V18.1484C19.4258 19.4375 18.7461 20.082 17.4805 20.082H10.4258ZM11.832 14.4102H16.0742C16.3555 14.4102 16.543 14.2344 16.543 13.9531V13.7422C16.543 13.4609 16.3555 13.2852 16.0742 13.2852H11.832C11.5625 13.2852 11.3633 13.4609 11.3633 13.7422V13.9531C11.3633 14.2344 11.5625 14.4102 11.832 14.4102ZM8.60938 11.1172C7.88281 11.1172 7.51953 10.6836 7.51953 9.96875V9.38281C7.51953 8.65625 7.92969 8.23438 8.60938 8.23438H19.2969C20.0352 8.23438 20.3984 8.65625 20.3984 9.38281V9.96875C20.3984 10.6836 20.0352 11.1172 19.2969 11.1172H8.60938Z" fill="white"/>
</g>
<defs>
<clipPath id="clip0_2124_88414">
<rect width="23.9062" height="23.918" fill="white" transform="translate(2 2)"/>
</clipPath>
</defs>
</svg>
