<svg width="28" height="28" viewBox="0 0 28 28" fill="none" xmlns="http://www.w3.org/2000/svg">
<g clip-path="url(#clip0_2124_88512)">
<path d="M13.9531 25.9062C20.4922 25.9062 25.9062 20.4805 25.9062 13.9531C25.9062 7.41406 20.4805 2 13.9414 2C7.41406 2 2 7.41406 2 13.9531C2 20.4805 7.42578 25.9062 13.9531 25.9062ZM13.9531 23.9141C8.42188 23.9141 4.00391 19.4844 4.00391 13.9531C4.00391 8.42188 8.41016 3.99219 13.9414 3.99219C19.4727 3.99219 23.9141 8.42188 23.9141 13.9531C23.9141 19.4844 19.4844 23.9141 13.9531 23.9141Z" fill="black" fill-opacity="0.85"/>
<path d="M12.1134 21.0781H15.7696C17.8321 21.0781 18.8517 20.0352 18.8399 17.9375C18.8048 15.5352 18.7931 13.7891 18.7345 12.5C18.5704 8.65625 17.4923 7.54297 13.9415 7.54297C10.3907 7.54297 9.32432 8.65625 9.14854 12.5C9.08994 13.7891 9.07822 15.5352 9.04307 17.9375C9.03135 20.0352 10.0509 21.0781 12.1134 21.0781ZM11.961 18.7109C11.4454 18.7109 11.1173 18.3828 11.1173 17.8789V14.8086C11.1173 14.3047 11.4454 13.9648 11.961 13.9648H15.9337C16.4493 13.9648 16.7657 14.3047 16.7657 14.8086V17.8789C16.7657 18.3828 16.4493 18.7109 15.9337 18.7109H11.961ZM11.1173 16.3086H16.7657V15.5703H11.1173V16.3086ZM13.9415 6.125C12.7931 6.125 11.9845 6.92188 11.9845 7.98828H12.8634C12.8634 7.42578 13.3321 7.00391 13.9415 7.00391C14.5509 7.00391 15.0196 7.42578 15.0196 7.98828H15.8868C15.8868 6.92188 15.0899 6.125 13.9415 6.125Z" fill="black" fill-opacity="0.85"/>
</g>
<defs>
<clipPath id="clip0_2124_88512">
<rect width="23.9062" height="23.918" fill="white" transform="translate(2 2)"/>
</clipPath>
</defs>
</svg>
