<svg width="28" height="28" viewBox="0 0 28 28" fill="none" xmlns="http://www.w3.org/2000/svg">
<g clip-path="url(#clip0_2124_89366)">
<path d="M14.5 5.52343C15.3555 5.52343 16.0352 4.76171 16.0352 3.77733C16.0352 2.76952 15.7188 2.11327 15.1562 1.45702C14.7812 0.988267 14.2773 0.976548 13.8906 1.3867C13.3281 2.0664 12.9648 2.73437 12.9648 3.77733C12.9648 4.76171 13.6562 5.52343 14.5 5.52343ZM13.832 10.9258H15.1328V4.26952H13.832V10.9258ZM6.84766 14.5469H22.1523V13.7266C22.1523 11.4062 20.957 10.2226 18.6016 10.2226H10.3984C8.05469 10.2226 6.84766 11.4062 6.84766 13.7266V14.5469ZM2.85156 26.8164H26.1367V19.6445C26.1367 17.3242 24.9414 16.1406 22.5977 16.1406H6.40234C4.05859 16.1406 2.85156 17.3242 2.85156 19.6445V26.8164ZM14.4883 21.8711C13.3281 21.8711 12.5078 23.2305 10.832 23.2305C9.21484 23.2305 8.44141 21.8711 7.36328 21.8711C6.26172 21.8711 5.48828 23.2305 3.29688 23.2305H2.85156V21.6836H3.29688C4.96094 21.6836 5.76953 20.3242 7.36328 20.3242C8.92188 20.3242 9.55469 21.6836 10.832 21.6836C12.332 21.6836 12.8945 20.3242 14.4883 20.3242C16.082 20.3242 16.6445 21.6836 18.1562 21.6836C19.4336 21.6836 20.0547 20.3242 21.625 20.3242C23.1953 20.3242 24.0156 21.6836 25.668 21.6836H26.1367V23.2305H25.668C23.4883 23.2305 22.7031 21.8711 21.625 21.8711C20.5234 21.8711 19.7617 23.2305 18.1562 23.2305C16.4688 23.2305 15.6367 21.8711 14.4883 21.8711ZM1.9375 27.6367H27.0508C27.5664 27.6367 27.9883 27.2031 27.9883 26.6875C27.9883 26.1719 27.5664 25.75 27.0508 25.75H1.9375C1.42188 25.75 1 26.1719 1 26.6875C1 27.2031 1.42188 27.6367 1.9375 27.6367Z" fill="black" fill-opacity="0.85"/>
</g>
<defs>
<clipPath id="clip0_2124_89366">
<rect width="26.9883" height="26.6367" fill="white" transform="translate(1 1)"/>
</clipPath>
</defs>
</svg>
