<svg width="28" height="28" viewBox="0 0 28 28" fill="none" xmlns="http://www.w3.org/2000/svg">
<path d="M13.9531 25.9062C20.4922 25.9062 25.9062 20.4805 25.9062 13.9531C25.9062 7.41406 20.4805 2 13.9414 2C7.41406 2 2 7.41406 2 13.9531C2 20.4805 7.42578 25.9062 13.9531 25.9062Z" fill="black" fill-opacity="0.85"/>
<path d="M9.18359 18.8398C8.63281 18.8398 8.375 18.5469 8.375 18.1367C8.375 17.7617 8.58594 17.457 8.82031 17.1641L10.918 14.4922C11.5625 13.6719 12.2305 12.6875 12.2305 11.7148C12.2305 10.8594 11.832 10.2266 11.0938 10.2266C10.4023 10.2266 10.1094 10.7305 9.875 11.5391C9.75781 11.9375 9.51172 12.125 9.11328 12.125C8.64453 12.125 8.38672 11.8086 8.38672 11.3516C8.38672 10.0977 9.55859 8.82031 11.1055 8.82031C12.7695 8.82031 13.8945 10.0039 13.8945 11.6328C13.8945 12.6992 13.4961 13.5898 12.2773 15.0898L10.5195 17.3164V17.4219H13.3789C13.7891 17.4219 14.0703 17.668 14.0703 18.1367C14.0703 18.5586 13.8008 18.8398 13.3789 18.8398H9.18359ZM18.1133 18.9688C17.6211 18.9688 17.2227 18.5703 17.2227 18.0898V10.7539L16.1211 11.6563C15.9922 11.7383 15.875 11.7969 15.6758 11.7969C15.3125 11.7969 15.0547 11.5273 15.0547 11.1523C15.0547 10.8359 15.2305 10.6016 15.4414 10.4375L16.7656 9.41797C17.0586 9.19531 17.4688 8.91406 17.9727 8.91406C18.6055 8.91406 18.9922 9.27734 18.9922 9.89844V18.0898C18.9922 18.5703 18.5938 18.9688 18.1133 18.9688Z" fill="white"/>
</svg>
