<svg width="28" height="28" viewBox="0 0 28 28" fill="none" xmlns="http://www.w3.org/2000/svg">
<path d="M2.39113 12.8906L6.31691 16.8281C6.85597 17.3672 7.73488 17.3789 8.26222 16.7227L10.7349 13.6758C10.8989 13.4883 11.1567 13.5938 11.1567 13.8281V19.0195L6.72706 18.5273C5.20363 18.3516 4.71144 20.5898 6.17628 21.0703L11.2036 22.7344C10.9575 23.7773 11.8599 24.668 12.8911 24.3281L14.438 23.8242L15.9849 24.3281C17.0161 24.668 17.9185 23.7773 17.6724 22.7344L22.7114 21.0703C24.1763 20.5898 23.6724 18.3516 22.1489 18.5273L17.7193 19.0195V13.8281C17.7193 13.5938 17.9888 13.4883 18.1411 13.6758L20.6138 16.7227C21.1411 17.3789 22.02 17.3672 22.5591 16.8281L26.4849 12.8906C27.0005 12.3633 27.0122 11.5547 26.4849 11.0391C25.981 10.5352 25.1489 10.5352 24.6333 11.0391L21.7388 13.9453L18.7857 10.3242C18.2935 9.72656 17.5552 9.35156 16.77 9.35156H12.1177C11.3208 9.35156 10.5942 9.72656 10.0903 10.3242L7.13722 13.9453L4.24269 11.0391C3.72706 10.5352 2.89503 10.5352 2.39113 11.0391C1.86378 11.5547 1.8755 12.3633 2.39113 12.8906ZM14.438 8.12109C15.8443 8.12109 16.981 6.97266 16.981 5.54297C16.981 4.13672 15.8443 3 14.438 3C13.0083 3 11.8599 4.13672 11.8599 5.54297C11.8599 6.97266 13.0083 8.12109 14.438 8.12109Z" fill="black" fill-opacity="0.85"/>
</svg>
