<svg width="34" height="28" viewBox="0 0 34 28" fill="none" xmlns="http://www.w3.org/2000/svg">
<g clip-path="url(#clip0_2124_24885)">
<path d="M7.13672 11.2734C7.13672 10.6641 7.51172 10.2891 8.14453 10.2891H10.3125V8.17969C10.3125 7.55859 10.6641 7.18359 11.2734 7.18359C11.8711 7.18359 12.2344 7.55859 12.2344 8.17969V10.2891H14.2617C14.9414 10.2891 15.3516 10.6641 15.3516 11.2734C15.3516 11.9062 14.9414 12.293 14.2617 12.293H12.2344V14.4023C12.2344 15.0234 11.8711 15.4102 11.2734 15.4102C10.6641 15.4102 10.3125 15.0234 10.3125 14.4023V12.293H8.14453C7.51172 12.293 7.13672 11.9062 7.13672 11.2734ZM24.4336 11.1562C23.4727 11.1562 22.6641 10.3711 22.6641 9.39844C22.6641 8.41406 23.4727 7.62891 24.4336 7.62891C25.418 7.62891 26.2031 8.41406 26.2031 9.39844C26.2031 10.3711 25.418 11.1562 24.4336 11.1562ZM20.8828 14.7305C19.9219 14.7305 19.1133 13.9453 19.1133 12.9727C19.1133 12 19.9219 11.2031 20.8828 11.2031C21.8555 11.2031 22.6523 12 22.6523 12.9727C22.6523 13.9453 21.8555 14.7305 20.8828 14.7305ZM4.46484 24.2461C6.07031 24.2461 7.17188 23.6602 8.15625 22.4414L10.2773 19.875C10.582 19.5117 10.9336 19.3359 11.2852 19.3359H22.5469C22.8984 19.3359 23.25 19.5117 23.5547 19.875L25.6758 22.4414C26.6602 23.6602 27.7617 24.2461 29.3672 24.2461C32.0508 24.2461 33.832 22.4648 33.832 19.7227C33.832 18.5508 33.5625 17.2031 33.1055 15.6914C32.3906 13.2891 31.1367 10.0195 29.9414 7.48828C28.9336 5.37891 28.418 4.41797 25.9336 3.85547C23.7305 3.35156 20.6719 3.01172 16.9219 3.01172C13.1719 3.01172 10.1016 3.35156 7.89844 3.85547C5.41406 4.41797 4.89844 5.37891 3.89062 7.48828C2.69531 10.0195 1.44141 13.2891 0.726562 15.6914C0.269531 17.2031 0 18.5508 0 19.7227C0 22.4648 1.78125 24.2461 4.46484 24.2461Z" fill="black" fill-opacity="0.85"/>
</g>
<defs>
<clipPath id="clip0_2124_24885">
<rect width="33.832" height="21.2461" fill="white" transform="translate(0 3)"/>
</clipPath>
</defs>
</svg>
