<svg width="28" height="28" viewBox="0 0 28 28" fill="none" xmlns="http://www.w3.org/2000/svg">
<g clip-path="url(#clip0_2124_88516)">
<path d="M13.9531 25.9062C20.4922 25.9062 25.9062 20.4805 25.9062 13.9531C25.9062 7.41406 20.4805 2 13.9414 2C7.41406 2 2 7.41406 2 13.9531C2 20.4805 7.42578 25.9062 13.9531 25.9062ZM13.9531 23.9141C8.42188 23.9141 4.00391 19.4844 4.00391 13.9531C4.00391 8.42188 8.41016 3.99219 13.9414 3.99219C19.4727 3.99219 23.9141 8.42188 23.9141 13.9531C23.9141 19.4844 19.4844 23.9141 13.9531 23.9141Z" fill="black" fill-opacity="0.85"/>
<path d="M8.76175 19.8476C10.4258 21.4765 12.6992 21.4179 14.3047 19.8241L19.0977 15.0429C19.332 14.8085 19.3555 14.3515 19.0977 14.1171C18.8516 13.871 18.4062 13.871 18.1602 14.1288L13.4258 18.8515C12.3359 19.953 10.7891 19.953 9.73441 18.9101C8.64456 17.8437 8.67972 16.3085 9.76956 15.1952L16.2266 8.7382C16.918 8.0468 17.8906 8.01164 18.5117 8.62101C19.1445 9.25383 19.0859 10.1913 18.3828 10.8944L12.0781 17.1991C11.8672 17.4335 11.6094 17.4218 11.3985 17.2343C11.1758 17.0468 11.1875 16.7538 11.4102 16.5429L15.8164 12.1366C16.0859 11.8671 16.1094 11.4921 15.8398 11.2343C15.5703 10.9648 15.1953 10.9765 14.9258 11.246L10.5196 15.664C9.80472 16.3788 9.76956 17.4921 10.4493 18.1835C11.1407 18.8866 12.207 18.8632 12.9453 18.1249L19.2852 11.7851C20.5273 10.5429 20.5742 8.85539 19.4141 7.69523C18.2305 6.53508 16.543 6.55851 15.3008 7.8007L8.79691 14.2929C7.19144 15.8983 7.19144 18.3007 8.76175 19.8476Z" fill="black" fill-opacity="0.85"/>
</g>
<defs>
<clipPath id="clip0_2124_88516">
<rect width="23.9062" height="23.918" fill="white" transform="translate(2 2)"/>
</clipPath>
</defs>
</svg>
