<svg width="29" height="28" viewBox="0 0 29 28" fill="none" xmlns="http://www.w3.org/2000/svg">
<g clip-path="url(#clip0_2124_24779)">
<path d="M8.53125 13.3711C11.4023 13.3711 13.7227 11.0156 13.7227 8.19141C13.7227 5.33203 11.3438 3.01172 8.53125 3.01172C8.02734 3.01172 7.57031 3.05859 7.17188 3.1875V6.11719C7.57031 5.82422 8.03906 5.66016 8.53125 5.66016C9.87891 5.66016 11.0273 6.82031 11.0273 8.19141C11.0273 9.53906 9.90234 10.6523 8.53125 10.6523C7.13672 10.6523 6.04688 9.57422 6.04688 8.19141V3.62109C4.39453 4.55859 3.35156 6.25781 3.35156 8.19141C3.35156 11.0742 5.66016 13.3711 8.53125 13.3711ZM8.53125 9.5625C9.26953 9.5625 9.89062 8.91797 9.89062 8.19141C9.89062 7.48828 9.24609 6.83203 8.53125 6.83203C7.81641 6.83203 7.18359 7.46484 7.18359 8.19141C7.18359 8.92969 7.79297 9.5625 8.53125 9.5625ZM6.60938 12.2227V14.9648C6.60938 15.6562 7.06641 16.0078 7.75781 16.0078H9.30469C10.0195 16.0078 10.4648 15.6562 10.4648 14.9648V12.2227H6.60938ZM7.65234 25.793H9.42188V14.8008H7.65234V25.793ZM20.168 13.3711C23.0391 13.3711 25.3594 11.0156 25.3594 8.19141C25.3594 5.33203 22.9805 3.01172 20.168 3.01172C19.6641 3.01172 19.207 3.05859 18.8086 3.1875V6.11719C19.207 5.82422 19.6758 5.66016 20.168 5.66016C21.5156 5.66016 22.6641 6.82031 22.6641 8.19141C22.6641 9.53906 21.5391 10.6523 20.168 10.6523C18.7734 10.6523 17.6836 9.57422 17.6836 8.19141V3.62109C16.0312 4.55859 14.9883 6.25781 14.9883 8.19141C14.9883 11.0742 17.2969 13.3711 20.168 13.3711ZM20.168 9.5625C20.9062 9.5625 21.5273 8.91797 21.5273 8.19141C21.5273 7.48828 20.8828 6.83203 20.168 6.83203C19.4531 6.83203 18.8203 7.46484 18.8203 8.19141C18.8203 8.92969 19.4297 9.5625 20.168 9.5625ZM22.1016 12.2227H18.2461V14.9648C18.2461 15.6562 18.6797 16.0078 19.3945 16.0078H20.9531C21.6445 16.0078 22.1016 15.6562 22.1016 14.9648V12.2227ZM21.0586 25.793V14.8008H19.2891V25.793H21.0586Z" fill="black" fill-opacity="0.85"/>
<path d="M2.44922 8.20312C2.44922 6.15234 3.46875 4.34766 5.01562 3.24609C2.16797 3.29297 0 5.42578 0 8.20312C0 10.957 2.13281 13.1016 5.01562 13.1602C3.46875 12.0586 2.44922 10.2539 2.44922 8.20312ZM26.2617 8.20312C26.2617 10.2539 25.2422 12.0586 23.6953 13.1602C26.5312 13.1016 28.7109 10.9805 28.7109 8.20312C28.7109 5.44922 26.5664 3.29297 23.6953 3.24609C25.2422 4.34766 26.2617 6.15234 26.2617 8.20312Z" fill="black" fill-opacity="0.85"/>
</g>
<defs>
<clipPath id="clip0_2124_24779">
<rect width="28.7109" height="22.793" fill="white" transform="translate(0 3)"/>
</clipPath>
</defs>
</svg>
