<svg width="28" height="28" viewBox="0 0 28 28" fill="none" xmlns="http://www.w3.org/2000/svg">
<path d="M11.4141 5.76953H26.2031C26.6953 5.76953 27.0938 5.38281 27.0938 4.87891C27.0938 4.38672 26.6953 4 26.2031 4H11.4141C10.9102 4 10.5234 4.38672 10.5234 4.87891C10.5234 5.38281 10.9102 5.76953 11.4141 5.76953ZM11.4141 11.9102H26.2031C26.6953 11.9102 27.0938 11.5234 27.0938 11.0195C27.0938 10.5273 26.6953 10.1406 26.2031 10.1406H11.4141C10.9102 10.1406 10.5234 10.5273 10.5234 11.0195C10.5234 11.5234 10.9102 11.9102 11.4141 11.9102ZM11.4141 18.0508H26.2031C26.6953 18.0508 27.0938 17.6523 27.0938 17.1602C27.0938 16.668 26.6953 16.2812 26.2031 16.2812H11.4141C10.9102 16.2812 10.5234 16.668 10.5234 17.1602C10.5234 17.6523 10.9102 18.0508 11.4141 18.0508ZM11.4141 24.1797H20.2149C20.707 24.1797 21.1172 23.793 21.1172 23.3008C21.1172 22.8086 20.707 22.4102 20.2149 22.4102H11.4141C10.9102 22.4102 10.5234 22.8086 10.5234 23.3008C10.5234 23.793 10.9102 24.1797 11.4141 24.1797Z" fill="black" fill-opacity="0.85"/>
<path d="M1.83995 17.6875L5.71886 15.0977C6.41026 14.6289 6.38683 13.6328 5.71886 13.1641L1.83995 10.5273C0.937607 9.91797 -0.0116113 10.2578 0.000107413 11.3359V16.8906C-0.0116113 17.9336 0.972764 18.25 1.83995 17.6875Z" fill="black" fill-opacity="0.85"/>
</svg>
