<svg width="28" height="28" viewBox="0 0 28 28" fill="none" xmlns="http://www.w3.org/2000/svg">
<path d="M14.2031 25.3047C20.3906 25.3047 25.4062 20.2891 25.4062 14.1016C25.4062 7.91406 20.3906 2.88672 14.2031 2.88672C8.01562 2.88672 3 7.91406 3 14.1016C3 20.2891 8.01562 25.3047 14.2031 25.3047ZM14.2031 23.3008C9.11719 23.3008 5.00391 19.1875 5.00391 14.1016C5.00391 9.02734 9.11719 4.90234 14.2031 4.90234C19.2773 4.90234 23.4023 9.02734 23.4023 14.1016C23.4023 19.1875 19.2773 23.3008 14.2031 23.3008ZM4.58203 5.89844C4.75781 5.89844 4.88672 5.875 5.05078 5.74609L8.97656 2.78125C9.16406 2.64062 9.26953 2.45312 9.26953 2.25391C9.26953 2.00781 9.15234 1.80859 8.95312 1.62109C8.50781 1.22266 7.71094 1 7.00781 1C5.17969 1 3.71484 2.46484 3.71484 4.29297C3.71484 4.72656 3.78516 5.16016 3.91406 5.42969C4.04297 5.72266 4.28906 5.89844 4.58203 5.89844ZM23.8242 5.89844C24.1172 5.89844 24.3633 5.71094 24.5039 5.42969C24.6211 5.17188 24.6914 4.72656 24.6914 4.29297C24.6914 2.46484 23.2383 1 21.3984 1C20.6953 1 19.8984 1.22266 19.4531 1.62109C19.2539 1.80859 19.1367 2.00781 19.1367 2.25391C19.1367 2.45312 19.2422 2.64062 19.4414 2.78125L23.3555 5.74609C23.5312 5.875 23.6484 5.89844 23.8242 5.89844ZM4.40625 24.9648C4.75781 25.3281 5.33203 25.3281 5.69531 24.9531L7.91016 22.75L6.64453 21.4961L4.41797 23.6992C4.05469 24.0508 4.06641 24.625 4.40625 24.9648ZM24 24.9648C24.3516 24.625 24.3516 24.0508 23.9883 23.6992L21.7617 21.4961L20.5078 22.75L22.7109 24.9531C23.0742 25.3281 23.6484 25.3281 24 24.9648Z" fill="black" fill-opacity="0.85"/>
<path d="M8.87109 15.3906H14.1914C14.6484 15.3906 15.0117 15.0391 15.0117 14.582V7.48047C15.0117 7.02344 14.6484 6.66016 14.1914 6.66016C13.7344 6.66016 13.3828 7.02344 13.3828 7.48047V13.7617H8.87109C8.41406 13.7617 8.0625 14.125 8.0625 14.582C8.0625 15.0391 8.41406 15.3906 8.87109 15.3906Z" fill="black" fill-opacity="0.85"/>
</svg>
