<svg width="28" height="28" viewBox="0 0 28 28" fill="none" xmlns="http://www.w3.org/2000/svg">
<path d="M4.67969 20.7422H16.4453C18.8828 20.7422 20.125 19.5234 20.125 17.1094V5.25C20.125 2.83594 18.8828 1.61719 16.4453 1.61719H4.67969C2.23047 1.61719 1 2.83594 1 5.25V17.1094C1 19.5234 2.23047 20.7422 4.67969 20.7422Z" fill="black" fill-opacity="0.85"/>
<path d="M10.3633 27.7617H22.1289C25.457 27.7617 27.4023 25.8398 27.4023 22.5352V10.6758C27.4023 7.37109 25.457 5.44922 22.1289 5.44922H10.3633C7.03516 5.44922 5.08984 7.35938 5.08984 10.6758V22.5352C5.08984 25.8398 7.03516 27.7617 10.3633 27.7617Z" fill="white"/>
<path d="M10.3633 26.168H22.1289C24.5664 26.168 25.8086 24.9492 25.8086 22.5352V10.6758C25.8086 8.26172 24.5664 7.04297 22.1289 7.04297H10.3633C7.91406 7.04297 6.68359 8.25 6.68359 10.6758V22.5352C6.68359 24.9492 7.91406 26.168 10.3633 26.168Z" fill="black" fill-opacity="0.85"/>
<path d="M11.8281 18.6211V12.832C11.8281 12.4688 12.1211 12.1523 12.5312 12.1523C12.8828 12.1523 13.1992 12.4688 13.1992 12.832V16.4648C13.3633 16.3711 13.5039 16.2656 13.7148 16.1953V10.8984C13.7148 10.5117 14.0312 10.207 14.4062 10.207C14.7695 10.207 15.0859 10.5117 15.0859 10.8984V15.75C15.2617 15.7148 15.4492 15.6914 15.6367 15.6797V10.3594C15.6367 9.98438 15.9297 9.67969 16.3281 9.67969C16.6914 9.67969 17.0078 9.98438 17.0078 10.3594V15.7383C17.1719 15.7969 17.3594 15.8438 17.5117 15.8906V11.25C17.5117 10.8867 17.8164 10.582 18.2031 10.582C18.5664 10.582 18.8828 10.8867 18.8828 11.25V17.7656C18.8828 17.9531 18.9414 18.0469 19.0938 18.0469C19.1875 18.0469 19.2695 17.9648 19.3398 17.7773L20.2188 15.9609C20.5234 15.375 20.7344 15.1172 21.1445 15.1172C21.5078 15.1172 21.7656 15.3516 21.7656 15.7031C21.7656 15.9961 21.5312 16.6523 21.3672 17.1797C20.9805 18.4453 20.6289 19.5586 20.1367 20.4844C19.293 22.2539 17.9922 23.0039 16.1055 23.0039C13.5742 23.0039 11.8281 21.3398 11.8281 18.6211Z" fill="white"/>
</svg>
