<svg width="30" height="28" viewBox="0 0 30 28" fill="none" xmlns="http://www.w3.org/2000/svg">
<g clip-path="url(#clip0_2124_24556)">
<path d="M6.23438 3.96484V6.26172C6.23438 7.85547 7.27733 8.78125 9.01171 8.78125H20.5195C22.2539 8.78125 23.2852 7.85547 23.2852 6.26172V3.96484C23.2852 2.37109 22.2539 1.45703 20.5195 1.45703H9.01171C7.27733 1.45703 6.23438 2.37109 6.23438 3.96484Z" fill="black" fill-opacity="0.85"/>
<path d="M5.08594 23.7461H24.4453C27.5977 23.7461 29.5312 21.8828 29.5312 18.707V9.16797C29.5312 5.99219 27.5977 4.12891 24.4453 4.12891H5.08594C2.05078 4.12891 0 5.99219 0 9.16797V18.707C0 21.8828 1.93359 23.7461 5.08594 23.7461Z" fill="white"/>
<path d="M5.08594 22.1406H24.4453C26.7188 22.1406 27.9258 20.9922 27.9258 18.707V9.16797C27.9258 6.88281 26.7188 5.72266 24.4453 5.72266H5.08594C2.92969 5.72266 1.60547 6.88281 1.60547 9.16797V18.707C1.60547 20.9922 2.8125 22.1406 5.08594 22.1406Z" fill="black" fill-opacity="0.85"/>
<path d="M8.33203 11.207C7.99219 11.207 7.78125 10.9961 7.78125 10.6563V9.5547C7.78125 9.21485 7.99219 9.01562 8.33203 9.01562H9.43359C9.77344 9.01562 9.97266 9.21485 9.97266 9.5547V10.6563C9.97266 10.9961 9.77344 11.207 9.43359 11.207H8.33203ZM12.293 11.207C11.9531 11.207 11.7539 10.9961 11.7539 10.6563V9.5547C11.7539 9.21485 11.9531 9.01562 12.293 9.01562H13.3945C13.7344 9.01562 13.9453 9.21485 13.9453 9.5547V10.6563C13.9453 10.9961 13.7344 11.207 13.3945 11.207H12.293ZM16.2656 11.207C15.9375 11.207 15.7266 10.9961 15.7266 10.6563V9.5547C15.7266 9.21485 15.9375 9.01562 16.2656 9.01562H17.3789C17.7188 9.01562 17.918 9.21485 17.918 9.5547V10.6563C17.918 10.9961 17.7188 11.207 17.3789 11.207H16.2656ZM20.2383 11.207C19.8984 11.207 19.6992 10.9961 19.6992 10.6563V9.5547C19.6992 9.21485 19.8984 9.01562 20.2383 9.01562H21.3398C21.6797 9.01562 21.8906 9.21485 21.8906 9.5547V10.6563C21.8906 10.9961 21.6797 11.207 21.3398 11.207H20.2383ZM8.33203 15.2617C7.99219 15.2617 7.78125 15.0625 7.78125 14.7344V13.6211C7.78125 13.2812 7.99219 13.0703 8.33203 13.0703H9.43359C9.77344 13.0703 9.97266 13.2812 9.97266 13.6211V14.7344C9.97266 15.0625 9.77344 15.2617 9.43359 15.2617H8.33203ZM12.293 15.2617C11.9531 15.2617 11.7539 15.0625 11.7539 14.7344V13.6211C11.7539 13.2812 11.9531 13.0703 12.293 13.0703H13.3945C13.7344 13.0703 13.9453 13.2812 13.9453 13.6211V14.7344C13.9453 15.0625 13.7344 15.2617 13.3945 15.2617H12.293ZM16.2656 15.2617C15.9375 15.2617 15.7266 15.0625 15.7266 14.7344V13.6211C15.7266 13.2812 15.9375 13.0703 16.2656 13.0703H17.3789C17.7188 13.0703 17.918 13.2812 17.918 13.6211V14.7344C17.918 15.0625 17.7188 15.2617 17.3789 15.2617H16.2656ZM20.2383 15.2617C19.8984 15.2617 19.6992 15.0625 19.6992 14.7344V13.6211C19.6992 13.2812 19.8984 13.0703 20.2383 13.0703H21.3398C21.6797 13.0703 21.8906 13.2812 21.8906 13.6211V14.7344C21.8906 15.0625 21.6797 15.2617 21.3398 15.2617H20.2383Z" fill="white"/>
<path d="M23.6367 24.3906V19.4453C23.6367 17.8867 22.875 17.207 21.3867 17.207H8.13281C6.65625 17.207 5.89453 17.8867 5.89453 19.4453V24.3906C5.89453 25.9492 6.65625 26.6289 8.13281 26.6289H21.3867C22.875 26.6289 23.6367 25.9492 23.6367 24.3906Z" fill="white"/>
<path d="M10.8516 22.8086H18.832C19.3242 22.8086 19.7227 22.4102 19.7227 21.9062C19.7227 21.4258 19.3242 21.0273 18.832 21.0273H10.8516C10.3477 21.0273 9.94922 21.4258 9.94922 21.9062C9.94922 22.4102 10.3477 22.8086 10.8516 22.8086ZM23.6367 24.3906V19.4453C23.6367 17.8867 22.875 17.207 21.3867 17.207H8.13281C6.65625 17.207 5.89453 17.8867 5.89453 19.4453V24.3906C5.89453 25.9492 6.65625 26.6289 8.13281 26.6289H21.3867C22.875 26.6289 23.6367 25.9492 23.6367 24.3906ZM7.79297 23.9219V19.9141C7.79297 19.2812 8.09766 18.9766 8.71875 18.9766H20.8242C21.4453 18.9766 21.7383 19.2812 21.7383 19.9141V23.9219C21.7383 24.5547 21.4453 24.8594 20.8242 24.8594H8.71875C8.09766 24.8594 7.79297 24.5547 7.79297 23.9219Z" fill="black" fill-opacity="0.85"/>
</g>
<defs>
<clipPath id="clip0_2124_24556">
<rect width="29.5312" height="25.6289" fill="white" transform="translate(0 1)"/>
</clipPath>
</defs>
</svg>
