<svg width="28" height="28" viewBox="0 0 28 28" fill="none" xmlns="http://www.w3.org/2000/svg">
<path d="M8.11719 24.4219C11.4102 24.4219 13.2031 22.6875 13.7773 19.0781L15.4883 8.39062C15.875 6.02344 17.0586 4.96875 19.2617 4.96875C20.0703 4.96875 20.75 5.14453 21.2539 5.19141C21.5938 5.20312 21.8398 5.10938 22.0039 4.92188C22.1328 4.80469 22.2031 4.61719 22.2031 4.39453C22.2031 3.87891 21.8398 3.52734 21.2656 3.31641C20.7617 3.12891 19.9766 3 19.1211 3C15.8281 3 13.9062 4.76953 13.3438 8.23828L11.6445 18.832C11.2344 21.3633 10.168 22.4297 7.92969 22.4297C7.50781 22.4297 7.10938 22.3594 6.88672 22.3125C6.55859 22.2422 6.24219 22.1836 5.9375 22.1836C5.33984 22.1836 5 22.5469 5 23.0391C5 23.5547 5.31641 23.918 5.90234 24.1172C6.45312 24.3164 7.19141 24.4219 8.11719 24.4219ZM7.80078 14.0156H19.7773C20.3164 14.0156 20.6562 13.6992 20.6562 13.1836C20.6562 12.6445 20.3164 12.3047 19.7773 12.3047H7.80078C7.25 12.3047 6.91016 12.6445 6.91016 13.1836C6.91016 13.6875 7.25 14.0156 7.80078 14.0156Z" fill="black" fill-opacity="0.85"/>
</svg>
