<svg width="28" height="28" viewBox="0 0 28 28" fill="none" xmlns="http://www.w3.org/2000/svg">
<g clip-path="url(#clip0_2124_50020)">
<path d="M13.6836 26.6562C20.7148 26.6562 25.3789 24.2539 25.3789 20.5273V8.57422C25.3789 4.57812 20.7031 2 13.6836 2C6.67578 2 2 4.57812 2 8.57422V20.5273C2 24.2539 6.66406 26.6562 13.6836 26.6562ZM13.6836 24.7695C7.84766 24.7695 3.88672 22.9883 3.88672 20.5273V8.57422C3.88672 5.83203 7.82422 3.88672 13.6836 3.88672C19.5547 3.88672 23.4922 5.83203 23.4922 8.57422V20.5273C23.4922 22.9883 19.5195 24.7695 13.6836 24.7695ZM13.6836 16.2852C19.5195 16.2852 23.4922 18.0664 23.4922 20.5273H25.3789C25.3789 16.8008 20.7148 14.3984 13.6836 14.3984C6.66406 14.3984 2 16.8008 2 20.5273H3.88672C3.88672 18.0664 7.84766 16.2852 13.6836 16.2852ZM13.6836 21.0898C16.3438 21.0898 18.5 19.6719 18.5703 17.9492C17.1992 17.6094 15.5352 17.4102 13.6836 17.4102C11.8438 17.4102 10.168 17.6094 8.80859 17.9492C8.87891 19.6719 11.0234 21.0898 13.6836 21.0898Z" fill="black" fill-opacity="0.85"/>
</g>
<defs>
<clipPath id="clip0_2124_50020">
<rect width="23.3789" height="24.668" fill="white" transform="translate(2 2)"/>
</clipPath>
</defs>
</svg>
