<svg width="28" height="28" viewBox="0 0 28 28" fill="none" xmlns="http://www.w3.org/2000/svg">
<path d="M9.23438 24.0352H18.3984C25.1953 24.0352 27.6328 21.5156 27.6328 15.2461V11.8008C27.6328 5.53125 25.1953 3 18.3984 3H9.23438C2.4375 3 0 5.53125 0 11.8008V15.2461C0 21.5156 2.4375 24.0352 9.23438 24.0352Z" fill="black" fill-opacity="0.85"/>
<path d="M6.57422 18.5859C6.09375 18.5859 5.78906 18.2578 5.78906 17.7422V9.73828C5.78906 8.96484 6.26953 8.49609 7.04297 8.49609C7.69922 8.49609 8.10938 8.83594 8.28516 9.51562L9.9375 16.0898H9.98438L11.625 9.51562C11.8008 8.83594 12.1875 8.49609 12.8906 8.49609C13.6523 8.49609 14.1328 8.94141 14.1328 9.73828V17.7422C14.1328 18.2578 13.8633 18.5859 13.3359 18.5859C12.8555 18.5859 12.5625 18.2578 12.5625 17.7422V11.2266H12.4922L10.8516 17.5898C10.7344 18.082 10.4766 18.4102 9.97266 18.4102C9.48047 18.4102 9.1875 18.0703 9.08203 17.6016L7.44141 11.2266H7.37109V17.7422C7.37109 18.2578 7.05469 18.5859 6.57422 18.5859ZM20.2148 18.5625C19.8281 18.5625 19.3711 18.3398 19.3711 17.6953V16.5H16.6641C16.0781 16.5 15.668 16.1016 15.668 15.5156C15.668 15.1406 15.75 14.8242 15.9492 14.3555L18.0938 9.66797C18.4336 8.91797 18.832 8.48438 19.6992 8.48438C20.4844 8.48438 21.0352 8.95311 21.0352 9.79688V15.0938H21.4688C21.9492 15.0938 22.1602 15.3984 22.1602 15.7852C22.1602 16.1953 21.9375 16.5 21.4688 16.5H21.0352V17.6953C21.0352 18.2812 20.6719 18.5625 20.2148 18.5625ZM19.4062 15.1289V10.0078H19.3594L17.168 15.0469V15.1289H19.4062Z" fill="white"/>
</svg>
