<svg width="28" height="28" viewBox="0 0 28 28" fill="none" xmlns="http://www.w3.org/2000/svg">
<path d="M13.9531 25.9062C20.4922 25.9062 25.9062 20.4805 25.9062 13.9531C25.9062 7.41406 20.4805 2 13.9414 2C7.41406 2 2 7.41406 2 13.9531C2 20.4805 7.42578 25.9062 13.9531 25.9062Z" fill="black" fill-opacity="0.85"/>
<path d="M10.1094 19.0859C7.69531 19.0859 6.98047 16.3906 6.98047 13.9531C6.98047 11.5156 7.69531 8.82031 10.1094 8.82031C12.5234 8.82031 13.2383 11.5156 13.2383 13.9531C13.2383 16.3906 12.5234 19.0859 10.1094 19.0859ZM10.1094 17.6445C11.082 17.6445 11.457 16.0508 11.457 13.9531C11.457 11.8438 11.082 10.25 10.1094 10.25C9.125 10.25 8.75 11.8438 8.75 13.9531C8.75 16.0508 9.125 17.6445 10.1094 17.6445ZM17.5742 19.0508C16.2734 19.0508 15.0312 18.4297 14.6914 17.3047C14.6328 17.1055 14.5977 16.8945 14.5977 16.6719C14.5977 16.1914 14.9141 15.9102 15.3828 15.9102C15.7812 15.9102 16.0391 16.1094 16.1562 16.5078C16.3086 17.0586 16.6953 17.6445 17.5742 17.6445C18.4648 17.6445 18.9102 16.9297 18.9102 16.1094C18.9102 15.0547 18.3477 14.4922 17.3164 14.4922H17.0234C16.625 14.4922 16.3555 14.2461 16.3555 13.8477C16.3555 13.4609 16.6133 13.2031 17.0234 13.2031H17.3047C18.207 13.2031 18.6992 12.5586 18.6992 11.6797C18.6992 10.8828 18.3242 10.2734 17.5273 10.2734C16.8477 10.2734 16.4609 10.7188 16.2734 11.4336C16.1562 11.8555 15.9102 12.0078 15.5 12.0078C15.0195 12.0078 14.75 11.6914 14.75 11.293C14.75 11.0938 14.7734 10.8711 14.8438 10.6367C15.1953 9.57031 16.2852 8.86719 17.5273 8.86719C19.0977 8.86719 20.3516 9.81641 20.3516 11.4922C20.3516 12.5 19.8125 13.4844 18.7227 13.7773V13.8125C19.7422 13.918 20.6328 14.6562 20.6328 16.1562C20.6328 17.9609 19.3086 19.0508 17.5742 19.0508Z" fill="white"/>
</svg>
