<svg width="29" height="34" viewBox="0 0 29 34" fill="none" xmlns="http://www.w3.org/2000/svg">
<g clip-path="url(#clip0_2124_46057)">
<path d="M17.8985 8.37915C18.0977 8.37915 18.2383 8.25024 18.25 8.0393C18.5899 5.2854 18.7188 5.21509 21.5313 4.74634C21.7539 4.7229 21.8828 4.60571 21.8828 4.40649C21.8828 4.21899 21.7539 4.1018 21.5782 4.06665C18.7422 3.52759 18.5899 3.5393 18.25 0.785401C18.2383 0.574463 18.0977 0.445557 17.8985 0.445557C17.7227 0.445557 17.5821 0.574463 17.5703 0.773682C17.2071 3.57446 17.1133 3.65649 14.2422 4.06665C14.0664 4.09009 13.9375 4.21899 13.9375 4.40649C13.9375 4.59399 14.0664 4.7229 14.2422 4.74634C17.1133 5.30884 17.1953 5.29712 17.5703 8.06274C17.5821 8.25024 17.7227 8.37915 17.8985 8.37915ZM10.0586 5.21509C10.1993 5.21509 10.293 5.14477 10.3282 4.99243C10.6446 3.23462 10.6446 3.2229 12.4141 2.89477C12.5664 2.85962 12.6602 2.76587 12.6602 2.62524C12.6602 2.4729 12.5664 2.37915 12.4141 2.34399C10.6446 1.99243 10.7032 1.98071 10.3282 0.258057C10.293 0.105713 10.211 0.0236816 10.0586 0.0236816C9.91797 0.0236816 9.8125 0.117432 9.78907 0.258057C9.41407 1.98071 9.47266 1.99243 7.70313 2.34399C7.53907 2.37915 7.45704 2.48462 7.45704 2.62524C7.45704 2.75415 7.53907 2.85962 7.70313 2.89477C9.47266 3.24634 9.46094 3.23462 9.78907 4.99243C9.8125 5.13306 9.91797 5.21509 10.0586 5.21509ZM3.6836 31.2893C3.84766 31.2893 3.94141 31.1839 3.96485 31.0198C4.39844 28.7229 4.38672 28.676 6.78907 28.219C6.95313 28.1721 7.0586 28.0901 7.0586 27.9143C7.0586 27.7385 6.95313 27.6565 6.78907 27.6214C4.38672 27.1409 4.44532 27.094 3.96485 24.8089C3.94141 24.6448 3.84766 24.5393 3.6836 24.5393C3.51954 24.5393 3.42579 24.6448 3.39063 24.8089C2.91016 27.094 2.99219 27.1409 0.578125 27.6214C0.414063 27.6565 0.308594 27.7385 0.308594 27.9143C0.308594 28.0901 0.414063 28.1721 0.578125 28.219C2.99219 28.6878 2.95704 28.7229 3.39063 31.0198C3.42579 31.1839 3.51954 31.2893 3.6836 31.2893Z" fill="black" fill-opacity="0.85"/>
<path d="M13.915 27.5862C17.583 31.2307 22.1298 30.9964 25.4111 27.7268C28.0478 25.0784 28.5752 22.3362 27.4619 19.0315C26.8642 17.1799 25.8916 15.2229 24.6845 12.9846C24.2158 12.0706 23.6298 10.8753 23.2314 10.4885C22.7861 10.0432 22.1767 10.0667 21.6962 10.5354C21.1689 11.0628 21.1923 11.6956 21.5908 12.8675L22.8681 16.4417C23.0087 16.8167 22.9853 17.051 22.8447 17.1917C22.6806 17.3557 22.458 17.3792 22.165 17.0862L13.4814 8.39087C12.9892 7.9104 12.1806 7.9104 11.7002 8.39087C11.208 8.88306 11.208 9.67993 11.7002 10.1721L17.9111 16.3831C17.6181 16.5237 17.29 16.7112 16.9736 16.9221L9.7666 9.71509C9.28613 9.2229 8.47754 9.2229 7.98535 9.71509C7.50488 10.2073 7.50488 11.0042 7.98535 11.4964L15.1103 18.6096C14.8642 18.8909 14.6416 19.1956 14.4306 19.4885L7.91504 12.9729C7.42285 12.4807 6.62597 12.4807 6.13379 12.9729C5.65332 13.4651 5.65332 14.262 6.13379 14.7542L13.2236 21.8323C13.0712 22.2307 12.9775 22.6292 12.8955 23.0042L7.97363 18.0823C7.49316 17.5901 6.68457 17.5901 6.19238 18.0823C5.71191 18.5745 5.71191 19.3596 6.19238 19.8518L13.915 27.5862Z" fill="black" fill-opacity="0.85"/>
<path d="M22.375 28.8518C25.4571 25.7581 26.0899 22.4065 24.8243 18.5862C24.1914 16.594 23.1602 14.4964 21.9414 12.2464C21.3789 11.1565 20.793 9.93775 20.1836 9.35181C19.1055 8.27369 17.4883 8.33228 16.4102 9.39869C15.7422 10.0667 15.4375 10.8753 15.6016 12.0003L15.9063 12.7268L10.4336 7.25416C9.32032 6.1526 7.51563 6.16431 6.40235 7.25416C6.15625 7.51197 5.96875 7.80494 5.86329 8.10963L5.66407 7.95728C4.67969 7.64088 3.48438 7.76978 2.6875 8.5901C2.01954 9.26978 1.73829 10.2073 1.98438 11.0276L2.05469 11.1917C1.6211 11.2854 1.1875 11.5081 0.835938 11.8479C-0.265625 12.9612 -0.265625 14.7659 0.835938 15.8792L1.51563 16.5589C1.30469 16.6292 1.08204 16.7698 0.894532 16.9573C-0.195312 18.0589 -0.195312 19.8635 0.894532 20.9768L8.61719 28.7112C12.918 33.0003 18.4844 32.7307 22.375 28.8518Z" fill="white"/>
<path d="M9.75293 27.5862C13.4092 31.2307 17.9678 30.9964 21.249 27.7268C23.8858 25.0784 24.4131 22.3362 23.2998 19.0315C22.7022 17.1799 21.7178 15.2229 20.5225 12.9846C20.0537 12.0706 19.4678 10.8753 19.0693 10.4885C18.624 10.0432 18.0029 10.0667 17.5342 10.5354C17.0068 11.0628 17.0303 11.6956 17.4287 12.8675L18.6943 16.4417C18.8467 16.8167 18.8233 17.051 18.6826 17.1917C18.5186 17.3557 18.2959 17.3792 18.0029 17.0862L9.31934 8.39087C8.82715 7.9104 8.01856 7.9104 7.53809 8.39087C7.0459 8.88306 7.0459 9.67993 7.53809 10.1721L13.749 16.3831C13.4443 16.5237 13.1279 16.7112 12.8115 16.9221L5.60449 9.71509C5.12402 9.2229 4.31543 9.2229 3.82324 9.71509C3.34277 10.2073 3.34277 11.0042 3.82324 11.4964L10.9365 18.6096C10.7022 18.8909 10.4795 19.1956 10.2686 19.4885L3.75293 12.9729C3.26074 12.4807 2.46387 12.4807 1.97168 12.9729C1.49121 13.4651 1.49121 14.262 1.97168 14.7542L9.06152 21.8323C8.90918 22.2307 8.81543 22.6292 8.7334 23.0042L3.81152 18.0823C3.33106 17.5901 2.52246 17.5901 2.03027 18.0823C1.54981 18.5745 1.54981 19.3596 2.03027 19.8518L9.75293 27.5862Z" fill="black" fill-opacity="0.85"/>
</g>
<defs>
<clipPath id="clip0_2124_46057">
<rect width="28.0007" height="33.3164" fill="white" transform="translate(0.00976562 0.0236816)"/>
</clipPath>
</defs>
</svg>
