<svg width="28" height="30" viewBox="0 0 28 30" fill="none" xmlns="http://www.w3.org/2000/svg">
<g clip-path="url(#clip0_2124_50237)">
<path d="M2 8.43176H22.332V5.32629C22.332 3.63879 21.2422 2.52551 19.625 2.52551H4.71875C3.08984 2.52551 2 3.63879 2 5.32629V8.43176ZM6.24219 7.21301C5.65625 7.21301 5.17578 6.72082 5.17578 6.1466C5.17578 5.54895 5.65625 5.0802 6.24219 5.0802C6.82812 5.0802 7.29688 5.54895 7.29688 6.1466C7.29688 6.72082 6.82812 7.21301 6.24219 7.21301ZM9.32422 7.21301C8.73828 7.21301 8.26953 6.72082 8.26953 6.1466C8.26953 5.54895 8.73828 5.0802 9.32422 5.0802C9.91016 5.0802 10.3789 5.54895 10.3789 6.1466C10.3789 6.72082 9.91016 7.21301 9.32422 7.21301ZM15.6406 6.75598C15.2773 6.75598 15.043 6.50988 15.043 6.1466C15.043 5.78332 15.2773 5.52551 15.6406 5.52551H18.5234C18.8984 5.52551 19.1328 5.78332 19.1328 6.1466C19.1328 6.50988 18.8984 6.75598 18.5234 6.75598H15.6406ZM4.71875 27.1349H19.625C21.2422 27.1349 22.332 26.0216 22.332 24.3341V10.0255H2V24.3341C2 26.0216 3.08984 27.1349 4.71875 27.1349ZM7.625 23.7013C6.69922 23.7013 6.06641 23.0685 6.06641 22.131V14.2208C6.06641 13.2833 6.69922 12.6505 7.625 12.6505H16.707C17.6328 12.6505 18.2773 13.2833 18.2773 14.2208V22.131C18.2773 23.0685 17.6328 23.7013 16.707 23.7013H7.625ZM7.83594 22.4005H16.4961C16.7773 22.4005 16.9648 22.213 16.9648 21.92V14.4317C16.9648 14.1388 16.7773 13.9513 16.4961 13.9513H7.83594C7.55469 13.9513 7.36719 14.1388 7.36719 14.4317V21.92C7.36719 22.213 7.55469 22.4005 7.83594 22.4005Z" fill="black" fill-opacity="0.85"/>
<path d="M14.5977 29.2911C15.6289 29.9708 17.1289 29.7599 17.8555 28.506C18.3008 27.7091 18.582 26.7247 18.582 25.7521C18.582 22.4005 16.625 21.1817 16.625 20.0567C16.625 19.8106 16.6367 19.7638 16.8125 19.4708C17.4453 18.381 17.0469 17.0685 16.0625 16.4825C15.043 15.8263 13.6016 16.0958 12.9102 17.2794C12.4062 18.1114 12.1602 19.131 12.1602 20.0567C12.1602 23.3731 14.1055 24.5919 14.1055 25.7521C14.1055 25.9513 14.0352 26.1153 13.918 26.338C13.2969 27.4044 13.707 28.67 14.5977 29.2911ZM18.0078 29.2911C19.0625 29.9825 20.5508 29.713 21.2305 28.4942C21.6992 27.6739 21.9688 26.713 21.9688 25.7521C21.9688 22.3888 20.0117 21.17 20.0117 20.045C20.0117 19.7989 20.0234 19.7521 20.2109 19.4474C20.832 18.3575 20.4219 17.045 19.4258 16.4708C18.4062 15.8263 16.9648 16.1075 16.2734 17.2794C15.793 18.1114 15.5469 19.1075 15.5469 20.045C15.5469 23.3731 17.4922 24.5802 17.4922 25.7521C17.4922 25.9981 17.4805 26.0333 17.3164 26.3263C16.6836 27.4161 17.0938 28.6817 18.0078 29.2911ZM21.3828 29.2794C22.4492 29.9708 23.9375 29.7013 24.6172 28.4825C25.0859 27.6622 25.3555 26.7013 25.3555 25.7403C25.3555 22.3771 23.3984 21.1583 23.3984 20.0333C23.3984 19.7872 23.4102 19.7403 23.5977 19.4356C24.2188 18.3458 23.8086 17.0333 22.8125 16.4591C21.793 15.8146 20.3516 16.0958 19.6602 17.2677C19.1797 18.0997 18.9336 19.0958 18.9336 20.0333C18.9336 23.3614 20.8789 24.5685 20.8789 25.7403C20.8789 25.9864 20.8672 26.0216 20.7031 26.3146C20.0703 27.4044 20.4805 28.67 21.3828 29.2794Z" fill="white"/>
<path d="M15.3945 28.0958C15.7344 28.3302 16.2969 28.3185 16.6133 27.8028C16.9531 27.1817 17.1523 26.4552 17.1523 25.7521C17.1523 23.1974 15.1953 21.9435 15.1953 20.0567C15.1953 19.5763 15.2891 19.2364 15.582 18.7442C15.8164 18.3341 15.6289 17.9005 15.3125 17.7013C14.9609 17.4786 14.4219 17.5138 14.1406 18.006C13.7656 18.6153 13.5898 19.3419 13.5898 20.0567C13.5898 22.5646 15.5352 23.8185 15.5352 25.7521C15.5352 26.2325 15.4531 26.5489 15.1602 27.0528C14.9141 27.4747 15.125 27.9083 15.3945 28.0958ZM18.7812 28.0841C19.1562 28.3302 19.707 28.295 19.9883 27.7911C20.3398 27.17 20.5391 26.4552 20.5391 25.7521C20.5391 23.1856 18.582 21.9317 18.582 20.045C18.582 19.5763 18.6758 19.2364 18.957 18.7325C19.2031 18.3224 19.0039 17.9005 18.6875 17.7013C18.3359 17.4903 17.7969 17.5138 17.5156 17.9942C17.1523 18.6153 16.9766 19.3302 16.9766 20.045C16.9766 22.5646 18.9219 23.8067 18.9219 25.7521C18.9219 26.2208 18.8398 26.5372 18.5469 27.0411C18.3008 27.4747 18.5 27.8966 18.7812 28.0841ZM22.168 28.0724C22.543 28.3185 23.0938 28.2833 23.375 27.7794C23.7266 27.1583 23.9258 26.4435 23.9258 25.7403C23.9258 23.1739 21.9688 21.92 21.9688 20.0333C21.9688 19.5646 22.0625 19.2247 22.3438 18.7208C22.5898 18.3106 22.3906 17.8888 22.0742 17.6896C21.7227 17.4786 21.1836 17.5021 20.9023 17.9825C20.5391 18.6036 20.3633 19.3185 20.3633 20.0333C20.3633 22.5528 22.3086 23.795 22.3086 25.7403C22.3086 26.2091 22.2266 26.5255 21.9336 27.0294C21.6875 27.463 21.8867 27.8849 22.168 28.0724Z" fill="black" fill-opacity="0.85"/>
</g>
<defs>
<clipPath id="clip0_2124_50237">
<rect width="23.3555" height="29.6721" fill="white" transform="translate(2)"/>
</clipPath>
</defs>
</svg>
