<svg width="28" height="28" viewBox="0 0 28 28" fill="none" xmlns="http://www.w3.org/2000/svg">
<path d="M13.9531 25.918C20.4922 25.918 25.9062 20.5039 25.9062 13.9648C25.9062 7.4375 20.4805 2.01172 13.9414 2.01172C7.41406 2.01172 2 7.4375 2 13.9648C2 20.5039 7.42578 25.918 13.9531 25.918Z" fill="black" fill-opacity="0.85"/>
<path d="M8.25781 17.375C6.82812 17.375 5.86719 16.4492 5.86719 15.1836C5.86719 14.1523 6.51172 13.3555 7.41406 13.0391C7.625 11.2227 9.17188 9.79297 11 9.79297C12.3945 9.79297 13.543 10.5547 14.1875 11.7617C15.875 11.7969 17.1289 12.9922 17.1289 14.5391C17.1289 16.1328 15.8867 17.375 14.2578 17.375H8.25781ZM13.0859 9.3125L12.2305 8.44531C12.0312 8.22266 12.0312 7.85938 12.2305 7.67188C12.4531 7.46094 12.793 7.46094 13.0156 7.67188L13.8828 8.52734C14.0938 8.72656 14.0703 9.08984 13.8828 9.30078C13.6719 9.5 13.3086 9.52344 13.0859 9.3125ZM16.3438 8.25781C16.0508 8.25781 15.793 8.01172 15.793 7.71875V6.51172C15.793 6.20703 16.0508 5.96094 16.3438 5.96094C16.6602 5.96094 16.9062 6.20703 16.9062 6.51172V7.71875C16.9062 8.01172 16.6602 8.25781 16.3438 8.25781ZM18.8281 9.30078C18.6406 9.08984 18.6172 8.72656 18.8281 8.52734L19.6953 7.67188C19.918 7.44922 20.2578 7.46094 20.4688 7.67188C20.668 7.85938 20.6797 8.22266 20.4688 8.44531L19.625 9.3125C19.4141 9.52344 19.0391 9.5 18.8281 9.30078ZM20.4102 12.3242C20.1289 12.3242 19.8711 12.0781 19.8711 11.7734C19.8711 11.457 20.1289 11.2227 20.4102 11.2227H21.6055C21.9219 11.2227 22.168 11.457 22.168 11.7734C22.168 12.0781 21.9219 12.3242 21.6055 12.3242H20.4102ZM19.6953 15.9219L18.8281 15.0664C18.6172 14.8438 18.6406 14.4805 18.8281 14.2695C19.0508 14.0703 19.4141 14.0703 19.625 14.2695L20.4688 15.1133C20.6797 15.3125 20.668 15.6758 20.4688 15.9102C20.2578 16.0977 19.918 16.1211 19.6953 15.9219ZM19.1797 11.7734C19.1797 12.7227 18.7109 13.5781 17.9375 14.1289C17.7617 12.4531 16.4258 11.1875 14.6914 10.9766C14.4922 10.6719 14.293 10.4141 14.0352 10.1797C14.5273 9.44141 15.3945 8.96094 16.3438 8.96094C17.9258 8.96094 19.1797 10.2031 19.1797 11.7734ZM8.73828 19.9414C8.62109 20.1406 8.35156 20.2109 8.14062 20.0938C7.92969 19.9883 7.85938 19.707 7.97656 19.4961L8.65625 18.3242C8.78516 18.1133 9.04297 18.0312 9.25391 18.1602C9.48828 18.2773 9.55859 18.5469 9.41797 18.7578L8.73828 19.9414ZM10.2852 21.2188C10.168 21.4297 9.88672 21.5117 9.67578 21.3945C9.46484 21.2656 9.37109 20.9961 9.5 20.7852L10.1445 19.6719C10.2852 19.4609 10.5312 19.3906 10.7539 19.5078C10.9883 19.625 11.0352 19.9062 10.918 20.1055L10.2852 21.2188ZM12.6406 19.9297C12.5234 20.1406 12.2656 20.1992 12.0312 20.0938C11.8203 19.9766 11.7734 19.6953 11.8789 19.4844L12.5469 18.3008C12.6758 18.1016 12.9453 18.043 13.1562 18.1602C13.3672 18.2891 13.4492 18.5469 13.332 18.7695L12.6406 19.9297ZM14.1758 21.2305C14.0586 21.4297 13.7891 21.5117 13.5781 21.3945C13.3555 21.2656 13.2734 20.9961 13.4023 20.7852L14.0469 19.6719C14.1875 19.4727 14.4453 19.3906 14.6445 19.5078C14.8672 19.6133 14.9375 19.9062 14.832 20.1055L14.1758 21.2305Z" fill="white"/>
</svg>
