<svg width="28" height="29" viewBox="0 0 28 29" fill="none" xmlns="http://www.w3.org/2000/svg">
<g clip-path="url(#clip0_2124_24869)">
<path d="M14.4258 25.6695C16.8164 25.6695 19.8398 25.5875 21.9844 25.4586V27.1109C21.9844 27.814 22.5352 28.3648 23.25 28.3648H24.5742C25.2891 28.3648 25.8516 27.814 25.8516 27.1109V21.5211C25.8516 19.9039 25.5234 18.9898 24.6328 17.8414L23.8242 16.8101C23.4727 15.0758 22.8398 13.2711 22.5117 12.5679C21.9844 11.4781 21 10.8219 19.7227 10.6695C19.0898 10.5875 16.9102 10.5289 14.4258 10.5289C11.9414 10.5289 9.76172 10.5875 9.12891 10.6695C7.85156 10.8219 6.85547 11.4781 6.33984 12.5679C6.01172 13.2711 5.37891 15.0758 5.02734 16.8101L4.21875 17.8414C3.32812 18.9898 3 19.9039 3 21.5211V27.1109C3 27.814 3.5625 28.3648 4.27734 28.3648H5.60156C6.31641 28.3648 6.86719 27.814 6.86719 27.1109V25.4586C9.01172 25.5875 12.0352 25.6695 14.4258 25.6695ZM7.04297 16.0133C7.26562 14.9586 7.73438 13.5875 8.05078 13.0367C8.30859 12.5797 8.58984 12.3922 9.10547 12.3101C9.83203 12.2164 11.4609 12.1578 14.4258 12.1578C17.3906 12.1578 19.0195 12.1929 19.7461 12.3101C20.2617 12.3922 20.5312 12.5797 20.8008 13.0367C21.1289 13.5758 21.5508 14.9586 21.8086 16.0133C21.9023 16.3648 21.75 16.5054 21.3867 16.4703C19.793 16.3648 17.8945 16.2711 14.4258 16.2711C10.957 16.2711 9.05859 16.3648 7.46484 16.4703C7.10156 16.5054 6.96094 16.3648 7.04297 16.0133ZM7.51172 23.0914C6.64453 23.0914 5.96484 22.4117 5.96484 21.5445C5.96484 20.6656 6.64453 20.0094 7.51172 20.0094C8.39062 20.0094 9.04688 20.6656 9.04688 21.5445C9.04688 22.4117 8.39062 23.0914 7.51172 23.0914ZM11.8945 22.7047C11.2383 22.7047 10.7812 22.2476 10.7812 21.5914C10.7812 20.9351 11.2383 20.4898 11.8945 20.4898H16.957C17.6133 20.4898 18.0703 20.9351 18.0703 21.5914C18.0703 22.2476 17.6133 22.7047 16.957 22.7047H11.8945ZM21.3398 23.0914C20.4609 23.0914 19.8047 22.4117 19.8047 21.5445C19.8047 20.6656 20.4609 20.0094 21.3398 20.0094C22.207 20.0094 22.875 20.6656 22.875 21.5445C22.875 22.4117 22.207 23.0914 21.3398 23.0914Z" fill="black" fill-opacity="0.85"/>
<path d="M14.3788 6.11092C11.8592 6.11092 9.57408 5.23202 7.81627 3.6617C7.3358 3.23983 6.79674 3.12264 6.36314 3.49764C5.92955 3.87264 5.92955 4.5289 6.42174 4.97421C8.54283 6.93125 11.3436 8.02108 14.3788 8.02108C17.414 8.02108 20.2265 6.93125 22.3358 4.97421C22.8397 4.5289 22.8397 3.87264 22.3944 3.49764C21.9726 3.12264 21.4335 3.23983 20.9413 3.6617C19.1952 5.23202 16.9101 6.11092 14.3788 6.11092Z" fill="black" fill-opacity="0.85"/>
<path d="M14.4023 1.41169C13.1836 1.41169 12.082 1.03669 11.1797 0.368725C10.664 0.00544372 10.1484 -0.158618 9.72654 0.216382C9.28123 0.6031 9.26951 1.30623 9.80857 1.71638C11.0742 2.73591 12.6797 3.32185 14.4023 3.32185C16.125 3.32185 17.7305 2.73591 18.9961 1.71638C19.5352 1.30623 19.5234 0.6031 19.0781 0.216382C18.6562 -0.158618 18.1289 -0.00627503 17.625 0.368725C16.7578 1.07185 15.6211 1.41169 14.4023 1.41169Z" fill="black" fill-opacity="0.85"/>
</g>
<defs>
<clipPath id="clip0_2124_24869">
<rect width="22.8516" height="28.5929" fill="white" transform="translate(3)"/>
</clipPath>
</defs>
</svg>
