<svg width="28" height="28" viewBox="0 0 28 28" fill="none" xmlns="http://www.w3.org/2000/svg">
<path d="M6.67969 24.5977H20.8945C23.3555 24.5977 24.5742 23.3789 24.5742 20.9648V6.65625C24.5742 4.24219 23.3555 3.02344 20.8945 3.02344H6.67969C4.23047 3.02344 3 4.23047 3 6.65625V20.9648C3 23.3906 4.23047 24.5977 6.67969 24.5977ZM6.70312 22.7109C5.53125 22.7109 4.88672 22.0898 4.88672 20.8711V6.75C4.88672 5.53125 5.53125 4.91016 6.70312 4.91016H20.8711C22.0312 4.91016 22.6875 5.53125 22.6875 6.75V20.8711C22.6875 22.0898 22.0312 22.7109 20.8711 22.7109H6.70312Z" fill="black" fill-opacity="0.85"/>
<path d="M13.793 15.9023C14.3555 15.9023 14.6719 15.5859 14.6836 14.9766L14.8594 8.78906C14.8711 8.19141 14.4023 7.74609 13.7812 7.74609C13.1484 7.74609 12.7031 8.17969 12.7148 8.77734L12.8672 14.9766C12.8789 15.5742 13.207 15.9023 13.793 15.9023ZM13.793 19.7109C14.4609 19.7109 15.0469 19.1719 15.0469 18.4922C15.0469 17.8125 14.4727 17.2734 13.793 17.2734C13.1016 17.2734 12.5273 17.8242 12.5273 18.4922C12.5273 19.1602 13.1133 19.7109 13.793 19.7109Z" fill="black" fill-opacity="0.85"/>
</svg>
