<svg width="28" height="28" viewBox="0 0 28 28" fill="none" xmlns="http://www.w3.org/2000/svg">
<g clip-path="url(#clip0_2124_50148)">
<path d="M5.80859 23.5273C5.80859 24.0898 5.9375 24.4531 6.23047 24.7461L7.22656 25.7656C7.54297 26.082 8.19922 25.9766 8.19922 25.4023V7.36723C8.19922 6.79301 8.07031 6.44145 7.77734 6.13676L6.78125 5.12895C6.46484 4.80082 5.80859 4.90629 5.80859 5.48051V23.5273ZM11.7266 23.5273C11.7266 24.0898 11.8438 24.4531 12.1484 24.7461L13.1445 25.7656C13.4609 26.082 14.1055 25.9766 14.1055 25.4023V7.36723C14.1055 6.79301 13.9883 6.44145 13.6836 6.13676L12.6875 5.12895C12.3711 4.80082 11.7266 4.90629 11.7266 5.48051V23.5273ZM17.6328 23.5273C17.6328 24.0898 17.7617 24.4531 18.0547 24.7461L19.0508 25.7656C19.3672 26.082 20.0234 25.9766 20.0234 25.4023V7.36723C20.0234 6.79301 19.8945 6.44145 19.6016 6.13676L18.6055 5.12895C18.2891 4.80082 17.6328 4.90629 17.6328 5.48051V23.5273ZM23.5508 23.5273C23.5508 24.0898 23.668 24.4531 23.9727 24.7461L24.9688 25.7656C25.2852 26.082 25.9297 25.9766 25.9297 25.4023V7.36723C25.9297 6.79301 25.8125 6.44145 25.5078 6.13676L24.5117 5.12895C24.1953 4.80082 23.5508 4.90629 23.5508 5.48051V23.5273Z" fill="black" fill-opacity="0.85"/>
<path d="M2 2.9375C2 3.45312 2.43359 3.88672 2.94922 3.88672H25.9297C26.4453 3.88672 26.8789 3.45312 26.8789 2.9375C26.8789 2.42188 26.4453 2 25.9297 2H2.94922C2.43359 2 2 2.42188 2 2.9375ZM2.94922 6.60547C3.38281 6.60547 3.74609 6.24219 3.74609 5.80859C3.74609 5.36328 3.38281 5.01172 2.94922 5.01172C2.50391 5.01172 2.14062 5.36328 2.14062 5.80859C2.14062 6.24219 2.50391 6.60547 2.94922 6.60547ZM2.94922 9.32422C3.38281 9.32422 3.74609 8.94922 3.74609 8.51562C3.74609 8.08203 3.38281 7.71875 2.94922 7.71875C2.50391 7.71875 2.14062 8.08203 2.14062 8.51562C2.14062 8.94922 2.50391 9.32422 2.94922 9.32422ZM2.94922 12.0312C3.38281 12.0312 3.74609 11.668 3.74609 11.2344C3.74609 10.7891 3.38281 10.4375 2.94922 10.4375C2.50391 10.4375 2.14062 10.7891 2.14062 11.2344C2.14062 11.668 2.50391 12.0312 2.94922 12.0312ZM2.94922 14.75C3.38281 14.75 3.74609 14.375 3.74609 13.9414C3.74609 13.5078 3.38281 13.1445 2.94922 13.1445C2.50391 13.1445 2.14062 13.5078 2.14062 13.9414C2.14062 14.375 2.50391 14.75 2.94922 14.75ZM2.94922 17.457C3.38281 17.457 3.74609 17.0938 3.74609 16.6602C3.74609 16.2148 3.38281 15.8633 2.94922 15.8633C2.50391 15.8633 2.14062 16.2148 2.14062 16.6602C2.14062 17.0938 2.50391 17.457 2.94922 17.457ZM2.94922 20.1758C3.38281 20.1758 3.74609 19.8008 3.74609 19.3672C3.74609 18.9336 3.38281 18.5703 2.94922 18.5703C2.50391 18.5703 2.14062 18.9336 2.14062 19.3672C2.14062 19.8008 2.50391 20.1758 2.94922 20.1758ZM2.94922 25.9297C3.45312 25.9297 3.88672 25.5078 3.88672 24.9922V22.2266C3.88672 21.7109 3.46484 21.2891 2.94922 21.2891C2.43359 21.2891 2 21.7109 2 22.2266V24.9922C2 25.5078 2.43359 25.9297 2.94922 25.9297Z" fill="black" fill-opacity="0.85"/>
</g>
<defs>
<clipPath id="clip0_2124_50148">
<rect width="24.8789" height="23.9414" fill="white" transform="translate(2 2)"/>
</clipPath>
</defs>
</svg>
