<svg width="28" height="28" viewBox="0 0 28 28" fill="none" xmlns="http://www.w3.org/2000/svg">
<path d="M13.9531 25.9062C20.4922 25.9062 25.9062 20.4805 25.9062 13.9531C25.9062 7.41406 20.4805 2 13.9414 2C7.41406 2 2 7.41406 2 13.9531C2 20.4805 7.42578 25.9062 13.9531 25.9062Z" fill="black" fill-opacity="0.85"/>
<path d="M14.2344 19.8008C11.7383 19.8008 10.1328 18.1719 9.61719 15.7695H8.46875C8.12891 15.7695 7.88281 15.5 7.88281 15.1602C7.88281 14.8086 8.12891 14.5742 8.46875 14.5742H9.45312C9.42969 14.375 9.42969 14.1875 9.42969 13.9766C9.42969 13.7422 9.44141 13.5312 9.46484 13.3086H8.46875C8.12891 13.3086 7.88281 13.0391 7.88281 12.7109C7.88281 12.3477 8.12891 12.1133 8.46875 12.1133H9.64062C10.2031 9.71094 11.8789 8.17578 14.2344 8.17578C16.2031 8.17578 17.8672 9.21875 18.4648 10.8477C18.5352 11.0469 18.582 11.2461 18.582 11.457C18.582 11.9023 18.2891 12.1953 17.832 12.1953C17.4102 12.1953 17.1992 12.0312 17.0586 11.5625C16.6836 10.3203 15.5234 9.64062 14.2812 9.64062C12.793 9.64062 11.7852 10.6602 11.3398 12.1133H14.5039C14.8438 12.1133 15.1016 12.3477 15.1016 12.7109C15.1016 13.0391 14.8438 13.3086 14.5039 13.3086H11.0938C11.082 13.5312 11.0586 13.7422 11.0586 13.9766C11.0586 14.1758 11.0703 14.375 11.0938 14.5742H14.5039C14.8438 14.5742 15.1016 14.8086 15.1016 15.1602C15.1016 15.5 14.8438 15.7695 14.5039 15.7695H11.3164C11.7383 17.2812 12.7578 18.3359 14.2812 18.3359C15.6172 18.3359 16.8008 17.6797 17.1406 16.4492C17.2695 16.0273 17.5156 15.8047 17.9258 15.8047C18.3711 15.8047 18.6641 16.1094 18.6641 16.543C18.6641 16.7656 18.6172 16.9648 18.5469 17.1641C17.9141 18.9219 16.2852 19.8008 14.2344 19.8008Z" fill="white"/>
</svg>
