<svg width="28" height="28" viewBox="0 0 28 28" fill="none" xmlns="http://www.w3.org/2000/svg">
<path d="M13.9531 25.9062C20.4922 25.9062 25.9062 20.4805 25.9062 13.9531C25.9062 7.41406 20.4805 2 13.9414 2C7.41406 2 2 7.41406 2 13.9531C2 20.4805 7.42578 25.9062 13.9531 25.9062ZM13.9531 23.9141C8.42188 23.9141 4.00391 19.4844 4.00391 13.9531C4.00391 8.42188 8.41016 3.99219 13.9414 3.99219C19.4727 3.99219 23.9141 8.42188 23.9141 13.9531C23.9141 19.4844 19.4844 23.9141 13.9531 23.9141Z" fill="black" fill-opacity="0.85"/>
<path d="M11.9609 17.9258H18.3477C18.7109 17.9258 18.9453 17.6797 18.9453 17.3047C18.9453 16.9414 18.7109 16.6836 18.3477 16.6836H11.9844C11.6328 16.6836 11.3984 16.4844 11.3516 16.1211L11.3047 15.6758H18.6172C19.4961 15.6758 19.9297 15.1484 20.0586 14.293L20.5273 11.1055C20.5508 11.0469 20.5625 10.9414 20.5625 10.8945C20.5625 10.6016 20.3516 10.4141 20.0117 10.4141H10.5312L10.4258 9.61719C10.3555 9.11328 9.94531 8.78516 9.40625 8.78516H7.41406C7.05078 8.78516 6.80469 9.03125 6.80469 9.40625C6.80469 9.76953 7.05078 10.0156 7.41406 10.0156H9.24219L10.168 16.4961C10.2969 17.4336 10.9062 17.9258 11.9609 17.9258ZM12.1484 20.7969C12.7461 20.7969 13.2031 20.3281 13.2031 19.7539C13.2031 19.1562 12.7461 18.6875 12.1484 18.6875C11.5742 18.6875 11.1055 19.1562 11.1055 19.7539C11.1055 20.3281 11.5742 20.7969 12.1484 20.7969ZM17.3984 20.7969C17.9844 20.7969 18.4531 20.3281 18.4531 19.7539C18.4531 19.1562 17.9844 18.6875 17.3984 18.6875C16.8125 18.6875 16.332 19.1562 16.332 19.7539C16.332 20.3281 16.8125 20.7969 17.3984 20.7969Z" fill="black" fill-opacity="0.85"/>
</svg>
