<svg width="28" height="28" viewBox="0 0 28 28" fill="none" xmlns="http://www.w3.org/2000/svg">
<g clip-path="url(#clip0_2124_24692)">
<path d="M4 24.3086C4 26.1602 5.30078 27.4023 7.24609 27.4023H20.3359C22.2812 27.4023 23.582 26.1602 23.582 24.3086V4.10547C23.582 2.25391 22.2812 1 20.3359 1H7.24609C5.30078 1 4 2.25391 4 4.10547V24.3086ZM5.88672 23.9922V4.42188C5.88672 3.46094 6.47266 2.88672 7.48047 2.88672H20.1016C21.0977 2.88672 21.6953 3.46094 21.6953 4.42188V23.9922C21.6953 24.9531 21.0977 25.5156 20.1016 25.5156H7.48047C6.47266 25.5156 5.88672 24.9531 5.88672 23.9922Z" fill="black" fill-opacity="0.85"/>
<path d="M9.58984 17.1836C9.58984 17.8516 9.90625 18.1797 10.5391 18.1797H14.5234C15.1562 18.1797 15.4727 17.8516 15.4727 17.1836V14.1367C15.4727 13.4688 15.1562 13.1289 14.5234 13.1289H10.5391C9.90625 13.1289 9.58984 13.4688 9.58984 14.1367V17.1836ZM13.6211 13.8086H14.7812V12.1445C14.7812 11.2773 15.2383 10.7148 16.0352 10.7148C16.832 10.7148 17.3008 11.2773 17.3008 12.1445V12.9766C17.3008 13.293 17.5586 13.5625 17.8867 13.5625C18.1914 13.5625 18.4609 13.293 18.4609 12.9766V12.1445C18.4609 10.668 17.5 9.58984 16.0352 9.58984C14.5703 9.58984 13.6211 10.668 13.6211 12.25V13.8086Z" fill="black" fill-opacity="0.85"/>
</g>
<defs>
<clipPath id="clip0_2124_24692">
<rect width="19.582" height="26.4258" fill="white" transform="translate(4 1)"/>
</clipPath>
</defs>
</svg>
