<svg width="28" height="28" viewBox="0 0 28 28" fill="none" xmlns="http://www.w3.org/2000/svg">
<path d="M13.9531 25.9062C20.4922 25.9062 25.9062 20.4805 25.9062 13.9531C25.9062 7.41406 20.4805 2 13.9414 2C7.41406 2 2 7.41406 2 13.9531C2 20.4805 7.42578 25.9062 13.9531 25.9062Z" fill="black" fill-opacity="0.85"/>
<path d="M11.2109 18.9922C10.8242 18.9922 10.3672 18.7695 10.3672 18.125V16.9297H7.67188C7.07422 16.9297 6.67578 16.5312 6.67578 15.9453C6.67578 15.5703 6.73438 15.2539 6.94531 14.7852L9.10156 10.0977C9.44141 9.34766 9.83984 8.91406 10.6953 8.91406C11.4922 8.91406 12.043 9.38281 12.043 10.2266V15.5234H12.4648C12.957 15.5234 13.1562 15.8281 13.1562 16.2148C13.1562 16.625 12.9336 16.9297 12.4648 16.9297H12.043V18.125C12.043 18.7109 11.668 18.9922 11.2109 18.9922ZM10.4023 15.5586V10.4375H10.3672L8.17578 15.4766V15.5586H10.4023ZM18.8516 18.9922C18.4531 18.9922 18.0078 18.7695 18.0078 18.125V16.9297H15.3008C14.7148 16.9297 14.3047 16.5312 14.3047 15.9453C14.3047 15.5703 14.375 15.2539 14.5742 14.7852L16.7305 10.0977C17.0703 9.34766 17.4688 8.91406 18.3242 8.91406C19.1211 8.91406 19.6719 9.38281 19.6719 10.2266V15.5234H20.1055C20.5859 15.5234 20.7852 15.8281 20.7852 16.2148C20.7852 16.625 20.5625 16.9297 20.1055 16.9297H19.6719V18.125C19.6719 18.7109 19.2969 18.9922 18.8516 18.9922ZM18.0312 15.5586V10.4375H17.9961L15.8047 15.4766V15.5586H18.0312Z" fill="white"/>
</svg>
