<svg width="29" height="29" viewBox="0 0 29 29" fill="none" xmlns="http://www.w3.org/2000/svg">
<g clip-path="url(#clip0_2124_45972)">
<path d="M13.9726 25.9089C20.5117 25.9089 25.9257 20.4832 25.9257 13.9558C25.9257 7.41675 20.5 2.00269 13.9609 2.00269C7.43359 2.00269 2.01953 7.41675 2.01953 13.9558C2.01953 20.4832 7.44531 25.9089 13.9726 25.9089Z" fill="black" fill-opacity="0.85"/>
<path d="M13.9726 19.991C11.4414 19.991 9.74219 18.3035 9.74219 17.5066C9.74219 17.2136 10.0351 17.0847 10.2812 17.2019C11.1719 17.6707 12.2031 18.2332 13.9726 18.2332C15.7304 18.2332 16.7734 17.6824 17.6523 17.2019C17.9101 17.0847 18.1914 17.2136 18.1914 17.5066C18.1914 18.3035 16.4922 19.991 13.9726 19.991ZM10.3867 12.8543C9.625 12.8543 8.96875 12.1629 8.96875 11.2019C8.96875 10.2175 9.625 9.52612 10.3867 9.52612C11.1602 9.52612 11.8398 10.2175 11.8398 11.2019C11.8398 12.1629 11.1602 12.8543 10.3867 12.8543ZM17.5468 12.8543C16.7851 12.8543 16.1289 12.1629 16.1289 11.2019C16.1289 10.2175 16.7851 9.52612 17.5468 9.52612C18.3203 9.52612 19 10.2175 19 11.2019C19 12.1629 18.3203 12.8543 17.5468 12.8543Z" fill="white"/>
</g>
<defs>
<clipPath id="clip0_2124_45972">
<rect width="23.9062" height="23.918" fill="white" transform="translate(2.01953 2.00269)"/>
</clipPath>
</defs>
</svg>
