<svg width="28" height="28" viewBox="0 0 28 28" fill="none" xmlns="http://www.w3.org/2000/svg">
<path d="M7.63281 26.125H20.0781C22.5039 26.125 23.7109 24.8945 23.7109 22.457V11.8164C23.7109 10.3047 23.5352 9.64844 22.5977 8.6875L16.1406 2.11328C15.25 1.19922 14.5117 1 13.1992 1H7.63281C5.21875 1 4 2.24219 4 4.67969V22.457C4 24.9062 5.20703 26.125 7.63281 26.125ZM7.71484 24.2383C6.50781 24.2383 5.88672 23.5938 5.88672 22.4219V4.71484C5.88672 3.55469 6.50781 2.88672 7.72656 2.88672H12.9414V9.69531C12.9414 11.1719 13.6797 11.8984 15.1445 11.8984H21.8242V22.4219C21.8242 23.5938 21.2031 24.2383 19.9844 24.2383H7.71484ZM15.3555 10.1289C14.8867 10.1289 14.7109 9.94141 14.7109 9.47266V3.25L21.4609 10.1289H15.3555Z" fill="black" fill-opacity="0.85"/>
<path d="M10.3867 21.8946C10.3867 22.6095 10.7031 22.9492 11.3711 22.9492H16.3633C17.0312 22.9492 17.3477 22.6095 17.3477 21.8946V18.0508C17.3477 17.3828 17.0664 17.043 16.5039 17.0078V15.8594C16.5039 14.0898 15.4375 12.9062 13.8672 12.9062C12.2969 12.9062 11.2422 14.0898 11.2422 15.8594V17.0078C10.668 17.043 10.3867 17.3828 10.3867 18.0508V21.8946ZM12.2383 16.9962V15.7539C12.2383 14.6289 12.8945 13.8789 13.8672 13.8789C14.8398 13.8789 15.4961 14.6289 15.4961 15.7539V16.9962H12.2383Z" fill="black" fill-opacity="0.85"/>
</svg>
