<svg width="29" height="29" viewBox="0 0 29 29" fill="none" xmlns="http://www.w3.org/2000/svg">
<g clip-path="url(#clip0_2124_46017)">
<path d="M23.25 4.40381C22.0547 3.2085 20.3672 3.021 18.3633 3.021H9.23438C7.26563 3.021 5.57813 3.2085 4.38281 4.40381C3.1875 5.59912 3.01172 7.27491 3.01172 9.24366V18.3726C3.01172 20.3765 3.1875 22.0522 4.38281 23.2476C5.57813 24.4429 7.26563 24.6304 9.25781 24.6304H18.3633C20.3672 24.6304 22.0547 24.4429 23.25 23.2476C24.4453 22.0522 24.6211 20.3765 24.6211 18.3726V9.26709C24.6211 7.26319 24.4453 5.59912 23.25 4.40381Z" fill="black" fill-opacity="0.85"/>
<path d="M8.83594 16.1108V9.5835C8.83594 9.16162 9.1875 8.79834 9.63281 8.79834C10.043 8.79834 10.4062 9.16162 10.4062 9.5835V13.6851C10.582 13.5796 10.7578 13.4624 10.9805 13.3687V7.38038C10.9805 6.9585 11.332 6.61866 11.7539 6.61866C12.1758 6.61866 12.5391 6.9585 12.5391 7.38038V12.8647C12.7383 12.8296 12.9375 12.8062 13.1484 12.7827V6.78272C13.1484 6.37256 13.4883 6.00928 13.9219 6.00928C14.3555 6.00928 14.6953 6.37256 14.6953 6.78272V12.853C14.8945 12.9116 15.0937 12.9819 15.2812 13.0288V7.80225C15.2812 7.38038 15.6211 7.02881 16.0547 7.02881C16.4648 7.02881 16.8164 7.38038 16.8164 7.80225V15.1616C16.8164 15.3726 16.8984 15.4663 17.0508 15.4663C17.1562 15.4663 17.2617 15.396 17.3437 15.1733L18.3281 13.1108C18.6562 12.4429 18.914 12.1616 19.3828 12.1616C19.7929 12.1616 20.0859 12.4312 20.0859 12.8179C20.0859 13.146 19.8164 13.8843 19.6289 14.4819C19.1953 15.9233 18.7851 17.1655 18.2461 18.2085C17.2734 20.2007 15.8086 21.0562 13.6758 21.0562C10.8281 21.0562 8.83594 19.1694 8.83594 16.1108Z" fill="white"/>
</g>
<defs>
<clipPath id="clip0_2124_46017">
<rect width="21.6094" height="21.6211" fill="white" transform="translate(3.01172 3.021)"/>
</clipPath>
</defs>
</svg>
