<svg width="28" height="28" viewBox="0 0 28 28" fill="none" xmlns="http://www.w3.org/2000/svg">
<path d="M15.8242 8.12109C17.2305 8.12109 18.3789 6.98438 18.3789 5.55469C18.3789 4.14844 17.2305 3 15.8242 3C14.3945 3 13.2578 4.14844 13.2578 5.55469C13.2578 6.98438 14.3945 8.12109 15.8242 8.12109ZM17.6641 16.1953C18.3555 16.1953 18.9062 15.6562 18.9062 14.9648C18.9062 14.2734 18.3555 13.7344 17.6641 13.7344H13.3633V9.32812C13.3633 7.86328 12.1328 6.92578 10.7734 7.20703L3.53125 8.70703C0.90625 9.24609 0.191406 12.3516 2.08984 14.0273L6.60156 17.9883V24.1992C6.60156 24.8672 7.16406 25.4297 7.83203 25.4297C8.5 25.4297 9.0625 24.8672 9.0625 24.1992V17.5195C9.0625 17.0859 8.96875 16.8516 8.69922 16.5586L5.23047 13.0664C5.03125 12.8672 5.13672 12.5977 5.37109 12.5508L10.2461 11.6484C10.7266 11.5547 10.9023 11.7188 10.9023 12.1406V14.9648C10.9023 15.6562 11.4648 16.1953 12.1328 16.1953H17.6641ZM24.2852 20.8477H25.9961C26.582 20.8477 26.9688 20.4609 26.9688 19.875V9.35156C26.9688 8.80078 26.582 8.41406 26.0195 8.41406H24.2383C20.0547 8.41406 17.5234 9.50391 14.8633 12.5977H16.5859C16.6328 12.5977 16.668 12.5977 16.7148 12.5977C18.8125 10.5352 20.9688 9.76172 24.2383 9.76172H25.6094V19.4766H24.2852C23.8516 19.4766 23.5234 19.2656 23.3359 18.9023L22.2695 16.7695C22.082 16.418 21.7422 16.3359 21.4609 16.4297C21.1094 16.5469 20.8398 16.9219 21.0625 17.3789L22.1289 19.5234C22.5391 20.332 23.3594 20.8477 24.2852 20.8477ZM10.1992 20.1914C11.3242 19.3828 12.2266 18.375 13.0352 17.332H12.1328C11.875 17.332 11.6172 17.2852 11.3711 17.1914C11.0078 17.6367 10.6211 18.0352 10.1992 18.4219V20.1914ZM1.69141 22.0781H3.70703C4.32812 22.0781 4.91406 22.043 5.46484 21.9609V20.6016C4.92578 20.6836 4.32812 20.7305 3.70703 20.7305H1.69141C1.30469 20.7305 1 21.0117 1 21.4102C1 21.7617 1.30469 22.0781 1.69141 22.0781Z" fill="black" fill-opacity="0.85"/>
</svg>
