<svg width="28" height="28" viewBox="0 0 28 28" fill="none" xmlns="http://www.w3.org/2000/svg">
<g clip-path="url(#clip0_2124_24752)">
<path d="M2 13.7773C2 15.8164 2.51562 17.9258 3.47656 19.8945C3.16016 20.2344 3.08984 20.8789 3.41797 21.5352L5.69141 26.1523C5.89062 26.5625 6.35938 26.7852 6.81641 26.7852C7.30859 26.7852 7.77734 26.5156 7.84766 25.9062L5.28125 20.668C4.47266 19.0273 3.76953 16.3555 3.76953 13.7891C3.76953 7.94141 7.76562 3.99219 13.6719 3.99219C19.5664 3.99219 23.5742 7.94141 23.5742 13.7891C23.5742 16.3555 22.8711 19.0273 22.0625 20.668L19.4844 25.9062C19.5664 26.5156 20.0352 26.7852 20.5273 26.7852C20.9727 26.7852 21.4414 26.5625 21.6523 26.1523L23.9141 21.5352C24.2422 20.8789 24.1836 20.2344 23.8672 19.8945C24.8281 17.9258 25.3438 15.8164 25.3438 13.7773C25.3438 7.21484 20.8203 2 13.6719 2C6.52344 2 2 7.21484 2 13.7773Z" fill="black" fill-opacity="0.85"/>
<path d="M8.02357 18.043C7.60169 17.1758 6.80482 16.9883 6.19544 17.2344C5.50404 17.5039 5.02357 18.3242 5.53919 19.3789L8.52747 25.4609C8.98451 26.3867 9.80482 26.7148 10.6017 26.3164C11.2931 25.9883 11.5509 25.2031 11.1525 24.3711L8.02357 18.043ZM19.3087 18.043L16.1915 24.3711C15.7931 25.2031 16.0509 25.9883 16.7306 26.3164C17.5274 26.7148 18.3595 26.3867 18.8165 25.4609L21.8048 19.3789C22.3204 18.3242 21.8282 17.5039 21.1485 17.2344C20.5274 16.9883 19.7423 17.1758 19.3087 18.043Z" fill="black" fill-opacity="0.85"/>
</g>
<defs>
<clipPath id="clip0_2124_24752">
<rect width="23.3438" height="24.9492" fill="white" transform="translate(2 2)"/>
</clipPath>
</defs>
</svg>
