<svg width="28" height="28" viewBox="0 0 28 28" fill="none" xmlns="http://www.w3.org/2000/svg">
<g clip-path="url(#clip0_2124_88506)">
<path d="M4 4H6.94141V2.32422C6.94141 1.48047 6.50781 1 5.74609 1H5.17188C4.42188 1 4 1.50391 4 2.32422V4ZM4 24.3086L5.06641 26.9336C5.18359 27.2031 5.61719 27.2266 5.74609 26.9453L6.94141 24.3086V5.37109H4V24.3086ZM15.8242 27.1914H21.6367C23.3359 27.1914 24.5078 26.0195 24.5078 24.3203V4.05859C24.5078 2.34766 23.3359 1.16406 21.6367 1.16406H15.8242C14.125 1.16406 12.9648 2.33594 12.9648 4.04688V24.3086C12.9648 26.0195 14.125 27.1914 15.8242 27.1914ZM16.1406 25.4805C15.25 25.4805 14.6758 24.9062 14.6758 24.0508V4.31641C14.6758 3.46094 15.25 2.88672 16.1406 2.88672H21.332C22.2109 2.88672 22.7852 3.46094 22.7852 4.31641V24.0391C22.7852 24.8945 22.2109 25.4805 21.332 25.4805H16.1406ZM23.3945 5.24219V4.35156H17.793C17.5586 4.35156 17.3594 4.53906 17.3594 4.79688C17.3594 5.03125 17.5469 5.24219 17.7812 5.24219H23.3945ZM23.3945 7.10547V6.23828H19.6562C19.4102 6.23828 19.2344 6.41406 19.2344 6.68359C19.2344 6.91797 19.3984 7.10547 19.6445 7.10547H23.3945ZM23.3945 8.99219V8.125H19.6562C19.4102 8.125 19.2344 8.30078 19.2344 8.57031C19.2344 8.80469 19.3984 8.99219 19.6445 8.99219H23.3945ZM23.3945 10.8672V9.98828H19.6562C19.4102 9.98828 19.2344 10.1641 19.2344 10.4219C19.2344 10.6797 19.3984 10.8672 19.6445 10.8672H23.3945ZM23.3945 12.7422V11.8633H19.6562C19.4102 11.8633 19.2344 12.0508 19.2344 12.3203C19.2344 12.543 19.3984 12.7422 19.6445 12.7422H23.3945ZM23.3945 14.6055V13.75H17.793C17.5586 13.75 17.3594 13.9258 17.3594 14.1836C17.3594 14.4297 17.5469 14.6055 17.7812 14.6055H23.3945ZM23.3945 16.5039V15.625H19.6562C19.4102 15.625 19.2344 15.8008 19.2344 16.0586C19.2344 16.3047 19.3984 16.5039 19.6445 16.5039H23.3945ZM23.3945 18.3789V17.5117H19.6562C19.4102 17.5117 19.2344 17.6758 19.2344 17.9453C19.2344 18.1797 19.3984 18.3789 19.6445 18.3789H23.3945ZM23.3945 20.2422V19.375H19.6562C19.4102 19.375 19.2344 19.5625 19.2344 19.8086C19.2344 20.043 19.3984 20.2422 19.6445 20.2422H23.3945ZM23.3945 22.1172V21.25H19.6562C19.4102 21.25 19.2344 21.4141 19.2344 21.6719C19.2344 21.9297 19.3984 22.1172 19.6445 22.1172H23.3945ZM23.3945 23.9922V23.1133H17.793C17.5586 23.1133 17.3594 23.3008 17.3594 23.5586C17.3594 23.793 17.5469 23.9922 17.7812 23.9922H23.3945Z" fill="black" fill-opacity="0.85"/>
</g>
<defs>
<clipPath id="clip0_2124_88506">
<rect width="20.5078" height="26.3789" fill="white" transform="translate(4 1)"/>
</clipPath>
</defs>
</svg>
