<svg width="28" height="30" viewBox="0 0 28 30" fill="none" xmlns="http://www.w3.org/2000/svg">
<g clip-path="url(#clip0_2124_50238)">
<path d="M4.71875 26.7656H19.625C21.2422 26.7656 22.332 25.6523 22.332 23.9766V4.95703C22.332 3.28125 21.2422 2.15625 19.625 2.15625H4.71875C3.08984 2.15625 2 3.28125 2 4.95703V23.9766C2 25.6523 3.08984 26.7656 4.71875 26.7656ZM3.88672 23.9531V4.98047C3.88672 4.41797 4.26172 4.04297 4.80078 4.04297H19.5312C20.082 4.04297 20.4453 4.41797 20.4453 4.98047V23.9531C20.4453 24.5156 20.082 24.8789 19.5312 24.8789H4.80078C4.26172 24.8789 3.88672 24.5156 3.88672 23.9531ZM6.41797 7.19531C6.99219 7.19531 7.44922 6.72656 7.44922 6.15234C7.44922 5.58984 6.99219 5.12109 6.41797 5.12109C5.85547 5.12109 5.38672 5.58984 5.38672 6.15234C5.38672 6.72656 5.85547 7.19531 6.41797 7.19531ZM9.40625 7.19531C9.98047 7.19531 10.4375 6.72656 10.4375 6.15234C10.4375 5.58984 9.98047 5.12109 9.40625 5.12109C8.84375 5.12109 8.38672 5.58984 8.38672 6.15234C8.38672 6.72656 8.84375 7.19531 9.40625 7.19531ZM3.03125 9.80859H21.3125V8.27344H3.03125V9.80859ZM9.40625 12.3984H14.9375C15.2891 12.3984 15.5234 12.1523 15.5234 11.8008C15.5234 11.4492 15.2891 11.2148 14.9375 11.2148H9.40625C9.05469 11.2148 8.80859 11.4492 8.80859 11.8008C8.80859 12.1523 9.05469 12.3984 9.40625 12.3984ZM2.86719 23.5195H21.4766V21.9844H2.86719V23.5195Z" fill="black" fill-opacity="0.85"/>
<path d="M16.2617 29.1445C20.0938 29.1445 23.1992 26.0508 23.1992 22.207C23.1992 18.3516 20.0938 15.2695 16.2617 15.2695C12.4062 15.2695 9.32422 18.3516 9.32422 22.207C9.32422 26.0508 12.4062 29.1445 16.2617 29.1445ZM18.6641 29.1445C22.5078 29.1445 25.6016 26.0508 25.6016 22.207C25.6016 18.3516 22.5078 15.2695 18.6641 15.2695C14.8203 15.2695 11.7266 18.3516 11.7266 22.207C11.7266 26.0508 14.8203 29.1445 18.6641 29.1445Z" fill="white"/>
<path d="M18.6641 27.7734C21.7578 27.7734 24.2422 25.3008 24.2422 22.207C24.2422 19.1016 21.7578 16.6289 18.6641 16.6289C15.5703 16.6289 13.0977 19.1016 13.0977 22.207C13.0977 25.3008 15.5703 27.7734 18.6641 27.7734ZM18.6641 26.5898C16.1562 26.5898 14.2812 24.7031 14.2812 22.207C14.2812 19.6992 16.1562 17.8125 18.6641 17.8125C21.1719 17.8125 23.0586 19.6992 23.0586 22.207C23.0586 24.7031 21.1719 26.5898 18.6641 26.5898Z" fill="black" fill-opacity="0.85"/>
<path d="M16.2617 27.7734C19.3438 27.7734 21.8281 25.3008 21.8281 22.207C21.8281 19.1016 19.3438 16.6289 16.2617 16.6289C13.168 16.6289 10.6836 19.1016 10.6836 22.207C10.6836 25.3008 13.168 27.7734 16.2617 27.7734Z" fill="white"/>
<path d="M16.2617 27.7734C19.3438 27.7734 21.8281 25.3008 21.8281 22.207C21.8281 19.1016 19.3438 16.6289 16.2617 16.6289C13.168 16.6289 10.6836 19.1016 10.6836 22.207C10.6836 25.3008 13.168 27.7734 16.2617 27.7734ZM16.2617 26.5898C13.7422 26.5898 11.8672 24.7031 11.8672 22.207C11.8672 19.6992 13.7422 17.8125 16.2617 17.8125C18.7578 17.8125 20.6445 19.6992 20.6445 22.207C20.6445 24.7031 18.7578 26.5898 16.2617 26.5898ZM16.2617 25.7109C18.1836 25.7109 19.7656 24.1406 19.7656 22.207C19.7656 20.2734 18.1836 18.7031 16.2617 18.7031C14.3164 18.7031 12.7461 20.2734 12.7461 22.207C12.7461 24.1406 14.3164 25.7109 16.2617 25.7109ZM16.2617 24.6445C14.832 24.6445 13.8125 23.625 13.8125 22.207C13.8125 20.7773 14.832 19.7695 16.2617 19.7695C17.6914 19.7695 18.6992 20.7773 18.6992 22.207C18.6992 23.6367 17.6797 24.6445 16.2617 24.6445Z" fill="black" fill-opacity="0.85"/>
</g>
<defs>
<clipPath id="clip0_2124_50238">
<rect width="23.6016" height="29.1445" fill="white" transform="translate(2)"/>
</clipPath>
</defs>
</svg>
