<svg width="28" height="29" viewBox="0 0 28 29" fill="none" xmlns="http://www.w3.org/2000/svg">
<path d="M14.1685 5.13281C15.5747 5.13281 16.7232 3.97266 16.7232 2.56641C16.7232 1.16016 15.5747 0 14.1685 0C12.7622 0 11.6021 1.16016 11.6021 2.56641C11.6021 3.97266 12.7622 5.13281 14.1685 5.13281ZM4.94584 14.0977C5.55522 14.2031 6.21147 13.9102 6.36381 13.1953L7.3599 8.74219H9.12944C9.35209 8.74219 9.51615 8.92969 9.45756 9.15234L8.27397 13.7109C7.78178 15.5625 9.00053 17.3906 11.3326 16.8047L15.6333 15.7383L14.8013 19.8867C14.6724 20.5195 15.0943 21.1641 15.7271 21.3047C16.2779 21.4219 16.9927 21.0703 17.1451 20.3672L18.3404 14.3789C18.5162 13.5117 17.7779 12.8555 17.0513 12.9258L13.231 13.3008L14.356 9.03516C14.4029 8.85938 14.5904 8.74219 14.7662 8.8125L19.149 10.4766C19.9458 10.7812 20.7544 10.3242 20.7544 9.49219V3.96094C20.7544 3.30469 20.2271 2.76562 19.5474 2.76562C18.8912 2.76562 18.3521 3.30469 18.3521 3.96094V7.61719L16.1138 6.75C15.3872 6.48047 14.5904 6.33984 13.7935 6.33984H6.38725C5.82475 6.33984 5.34428 6.73828 5.22709 7.27734L4.03178 12.668C3.87944 13.3242 4.28959 13.9805 4.94584 14.0977ZM10.3482 28.4883C10.899 28.6055 11.6255 28.2305 11.7544 27.5508L12.9497 21.5625C12.9732 21.457 12.9732 21.3281 12.9732 21.2227V17.5781L11.6021 17.9062C11.0747 18.0469 10.5826 18.082 10.1255 18.0469L10.5708 21.2695L9.41069 27.0586C9.28178 27.7148 9.69194 28.3594 10.3482 28.4883ZM14.9185 26.1328H22.6997C23.063 26.1328 23.356 25.8398 23.356 25.4766C23.356 25.1133 23.063 24.832 22.6997 24.832H14.9185C14.5552 24.832 14.2622 25.1133 14.2622 25.4766C14.2622 25.8398 14.5552 26.1328 14.9185 26.1328ZM13.7115 28.7695H23.8833C24.2466 28.7695 24.5396 28.4766 24.5396 28.1133C24.5396 27.75 24.2466 27.4688 23.8833 27.4688H13.7115C13.3482 27.4688 13.0669 27.75 13.0669 28.1133C13.0669 28.4766 13.3482 28.7695 13.7115 28.7695Z" fill="black" fill-opacity="0.85"/>
</svg>
