<svg width="38" height="28" viewBox="0 0 38 28" fill="none" xmlns="http://www.w3.org/2000/svg">
<g clip-path="url(#clip0_2124_24723)">
<path d="M4.52344 21.5664C4.89844 21.1445 4.78125 20.5938 4.35938 20.1133C2.78906 18.3672 1.91016 16.0703 1.91016 13.5508C1.91016 11.0312 2.78906 8.73439 4.35938 6.98829C4.78125 6.50782 4.89844 5.95704 4.52344 5.53517C4.14844 5.08985 3.49219 5.10157 3.04688 5.59376C1.10156 7.70313 0 10.5156 0 13.5508C0 16.5859 1.10156 19.3867 3.04688 21.5078C3.49219 22 4.14844 22 4.52344 21.5664ZM32.9531 21.5664C33.3281 22 33.9844 22 34.4414 21.5078C36.3867 19.3867 37.4766 16.5859 37.4766 13.5508C37.4766 10.5156 36.3867 7.70313 34.4414 5.59376C33.9844 5.10157 33.3281 5.08985 32.9531 5.53517C32.5781 5.95704 32.6953 6.50782 33.1172 6.98829C34.6875 8.73439 35.5664 11.0312 35.5664 13.5508C35.5664 16.0703 34.6875 18.3672 33.1172 20.1133C32.6953 20.5938 32.5781 21.1445 32.9531 21.5664Z" fill="black" fill-opacity="0.85"/>
<path d="M7.80469 18.2266C8.17969 17.8047 8.02734 17.2773 7.65234 16.7734C6.94922 15.8945 6.60938 14.7695 6.60938 13.5508C6.60938 12.332 6.94922 11.1953 7.65234 10.3282C8.02734 9.82426 8.17969 9.29692 7.80469 8.87504C7.41797 8.42973 6.71484 8.42973 6.30469 8.95707C5.28516 10.2227 4.69922 11.8281 4.69922 13.5508C4.69922 15.2734 5.28516 16.8789 6.30469 18.1445C6.71484 18.6719 7.41797 18.6602 7.80469 18.2266ZM29.6719 18.2266C30.0586 18.6602 30.7617 18.6719 31.1719 18.1445C32.1914 16.8789 32.7891 15.2734 32.7891 13.5508C32.7891 11.8281 32.1914 10.2227 31.1719 8.95707C30.7617 8.42973 30.0586 8.42973 29.6719 8.87504C29.2969 9.29692 29.4609 9.82426 29.8242 10.3282C30.5273 11.1953 30.8789 12.332 30.8789 13.5508C30.8789 14.7695 30.5273 15.8945 29.8242 16.7734C29.4609 17.2773 29.2969 17.8047 29.6719 18.2266Z" fill="black" fill-opacity="0.85"/>
<path d="M10.5 18.3086C10.5 20.125 11.2148 21.4609 12.5508 22.1875C13.1836 22.5273 13.5586 22.9609 13.8047 23.7461L14.1797 25C14.3906 25.75 14.918 26.1133 15.7031 26.1133H21.1172C21.9375 26.1133 22.418 25.7617 22.6523 25L23.0273 23.7461C23.2734 22.9609 23.6367 22.5273 24.2812 22.1875C25.6055 21.4609 26.3203 20.125 26.3203 18.3086V8.82812C26.3203 7.01172 25.6055 5.6875 24.2812 4.94922C23.6367 4.60938 23.2734 4.17578 23.0273 3.40234L22.6523 2.13672C22.4414 1.39844 21.9258 1.02344 21.1172 1.02344H15.7031C14.918 1.02344 14.3906 1.38672 14.1797 2.13672L13.8047 3.40234C13.5703 4.16406 13.1953 4.62109 12.5508 4.94922C11.2266 5.65234 10.5 6.98828 10.5 8.82812V18.3086ZM12.2109 18.0625V9.08594C12.2109 7.33984 13.2305 6.28516 14.9414 6.28516H21.8906C23.5898 6.28516 24.6094 7.33984 24.6094 9.08594V18.0625C24.6094 19.7969 23.5898 20.8516 21.8906 20.8516H14.9414C13.2305 20.8516 12.2109 19.7969 12.2109 18.0625ZM26.0625 12.7422H26.4961C27.0938 12.7422 27.4922 12.332 27.4922 11.6641V10.082C27.4922 9.41406 27.0938 9.00391 26.4961 9.00391H26.0625V12.7422Z" fill="black" fill-opacity="0.85"/>
</g>
<defs>
<clipPath id="clip0_2124_24723">
<rect width="37.4766" height="25.1133" fill="white" transform="translate(0 1)"/>
</clipPath>
</defs>
</svg>
