<svg width="28" height="28" viewBox="0 0 28 28" fill="none" xmlns="http://www.w3.org/2000/svg">
<path d="M9.23438 24.0352H18.3984C25.1953 24.0352 27.6328 21.5156 27.6328 15.2461V11.8008C27.6328 5.53125 25.1953 3 18.3984 3H9.23438C2.4375 3 0 5.53125 0 11.8008V15.2461C0 21.5156 2.4375 24.0352 9.23438 24.0352Z" fill="black" fill-opacity="0.85"/>
<path d="M8.85938 18.2695C8.33203 18.2695 8.02734 17.9414 8.02734 17.3906V9.49219C8.02734 9.03516 8.41406 8.64844 8.87109 8.64844C9.33984 8.64844 9.72656 9.03516 9.72656 9.49219V16.8516H12.2344C12.6211 16.8516 12.9492 17.168 12.9492 17.5547C12.9492 17.9531 12.6211 18.2695 12.2344 18.2695H8.85938ZM18.1641 18.4102C17.7891 18.4102 17.3555 18.1992 17.3555 17.5781V16.4062H14.7305C14.1562 16.4062 13.7695 16.0195 13.7695 15.457C13.7695 15.0938 13.8398 14.7891 14.0391 14.332L16.125 9.78516C16.4531 9.05859 16.8398 8.63672 17.6719 8.63672C18.4336 8.63672 18.9609 9.09375 18.9609 9.90234V15.0469H19.3828C19.8516 15.0469 20.0508 15.3398 20.0508 15.7148C20.0508 16.1133 19.8398 16.4062 19.3828 16.4062H18.9609V17.5781C18.9609 18.1406 18.6094 18.4102 18.1641 18.4102ZM17.3906 15.082V10.1133H17.3438L15.2109 15V15.082H17.3906Z" fill="white"/>
</svg>
