<svg width="28" height="28" viewBox="0 0 28 28" fill="none" xmlns="http://www.w3.org/2000/svg">
<path d="M6.67969 24.5977H20.8945C23.3555 24.5977 24.5742 23.3789 24.5742 20.9648V6.65625C24.5742 4.24219 23.3555 3.02344 20.8945 3.02344H6.67969C4.23047 3.02344 3 4.23047 3 6.65625V20.9648C3 23.3906 4.23047 24.5977 6.67969 24.5977Z" fill="black" fill-opacity="0.85"/>
<path d="M17.5781 16.793C17.0391 16.793 16.6875 16.418 16.6875 15.8438V13.7695L16.8633 11.8828L15.1172 13.7461L10.6992 18.1758C10.5234 18.3516 10.2891 18.457 9.99609 18.457C9.46875 18.457 9.11719 18.1055 9.11719 17.5547C9.11719 17.3203 9.22266 17.0742 9.39844 16.8984L13.8398 12.4687L15.7266 10.7109L13.9336 10.8984H11.7539C11.168 10.8984 10.793 10.5469 10.793 10.0195C10.793 9.48047 11.1562 9.12891 11.7305 9.12891H17.4492C18.0703 9.12891 18.4688 9.41016 18.4688 10.125V15.8203C18.4688 16.3828 18.1055 16.793 17.5781 16.793Z" fill="white"/>
</svg>
