<svg width="28" height="28" viewBox="0 0 28 28" fill="none" xmlns="http://www.w3.org/2000/svg">
<g clip-path="url(#clip0_2124_50009)">
<path d="M14.3088 6.69141C17.1682 6.69141 19.5588 5.03906 20.0158 2.63672C20.1916 1.66406 19.7111 0.9375 18.7502 0.667969C15.9846 -0.0585938 12.633 -0.0585938 9.87911 0.667969C8.91817 0.9375 8.4377 1.66406 8.61348 2.63672C9.07052 5.03906 11.4494 6.69141 14.3088 6.69141ZM14.3088 5.15625C12.1408 5.15625 10.4182 3.97266 10.1252 2.33203C10.1135 2.25 10.1721 2.17969 10.2776 2.14453C12.7971 1.47656 15.8322 1.47656 18.34 2.14453C18.4572 2.17969 18.5158 2.25 18.5041 2.33203C18.2111 3.97266 16.4885 5.15625 14.3088 5.15625ZM13.3713 11.4492H15.258V5.75391H13.3713V11.4492ZM14.2971 27.7383C21.1057 27.7383 25.6291 25.6875 25.594 22.6406C25.594 19.5703 22.7932 15.7617 19.2775 14.0391C18.633 11.8242 16.594 10.2891 14.2971 10.2891C12.0002 10.2891 9.96114 11.8242 9.31661 14.0391C5.80098 15.7617 3.0002 19.5703 3.0002 22.6406C2.96505 25.6875 7.48848 27.7383 14.2971 27.7383ZM14.2971 26.0977C8.50802 26.0977 4.65255 24.7383 4.64083 22.6406C4.65255 19.9336 7.52364 16.4883 10.7814 15.1875C10.9924 13.3125 12.4924 11.9531 14.2971 11.9531C16.1018 11.9531 17.6018 13.3125 17.8127 15.1875C21.0354 16.4648 23.9416 19.9102 23.9533 22.6406C23.9416 24.7383 20.0979 26.0977 14.2971 26.0977ZM14.2971 19.1719C20.0979 19.1719 23.9416 20.5312 23.9533 22.6406H25.594C25.6291 19.5938 21.1057 17.5312 14.2971 17.5312C7.48848 17.5312 2.96505 19.5938 3.0002 22.6406H4.64083C4.65255 20.5312 8.50802 19.1719 14.2971 19.1719ZM14.2971 23.5195C16.4182 23.5195 18.469 22.207 18.469 20.6133C17.2619 20.4258 15.844 20.3086 14.2971 20.3086C12.7502 20.3086 11.3322 20.4258 10.1252 20.6133C10.1252 22.207 12.176 23.5195 14.2971 23.5195Z" fill="black" fill-opacity="0.85"/>
</g>
<defs>
<clipPath id="clip0_2124_50009">
<rect width="22.5942" height="27.7383" fill="white" transform="translate(3)"/>
</clipPath>
</defs>
</svg>
