<svg width="28" height="28" viewBox="0 0 28 28" fill="none" xmlns="http://www.w3.org/2000/svg">
<g clip-path="url(#clip0_2124_24789)">
<path d="M11.5898 20.2227H20.8125C21.293 20.2227 21.668 19.918 21.7266 19.4141L22.1133 15.3594C22.1602 14.75 21.75 14.3164 21.1523 14.3164H11.5898C9.96094 14.3164 8.64844 15.6406 8.64844 17.2812C8.64844 18.9102 9.96094 20.2227 11.5898 20.2227ZM11.5898 18.3828C12.2109 18.3828 12.7148 17.9023 12.7148 17.2812C12.7148 16.6602 12.2109 16.1562 11.5898 16.1562C10.9688 16.1562 10.4766 16.6602 10.4766 17.2812C10.4766 17.9023 10.9688 18.3828 11.5898 18.3828ZM18.3516 25.7656H19.4648L19.875 21.8281H18.75L18.3516 25.7656ZM11.5898 19.2148C10.5117 19.2148 9.64453 18.3594 9.64453 17.2812C9.64453 16.2031 10.5117 15.3242 11.5898 15.3242C12.6797 15.3242 13.5469 16.2031 13.5469 17.2812C13.5469 18.3594 12.6797 19.2148 11.5898 19.2148ZM16.4883 2C11.0508 2 6 6.86328 6 13.7773C6 18.3477 7.47656 24.6406 9.90234 24.6641C10.5117 24.6641 10.957 24.0547 10.957 22.6719C10.957 22.2734 10.9336 21.8984 10.8398 21.2891C8.95312 20.9375 7.51172 19.2734 7.51172 17.2812C7.51172 16.5195 7.72266 15.8164 8.08594 15.1953C8.00391 14.6797 7.95703 14.1172 7.95703 13.6836C7.95703 8.28125 12.4102 3.95703 16.3594 3.95703C18.7852 3.95703 20.0156 5.84375 19.6875 9.01953L18.3164 22.1914C18.1875 23.4805 20.1211 23.4805 20.2383 22.3438L21.5859 8.9375C22.0312 4.48438 20.1562 2 16.4883 2Z" fill="black" fill-opacity="0.85"/>
</g>
<defs>
<clipPath id="clip0_2124_24789">
<rect width="16.1169" height="23.7773" fill="white" transform="translate(6 2)"/>
</clipPath>
</defs>
</svg>
