<svg width="28" height="28" viewBox="0 0 28 28" fill="none" xmlns="http://www.w3.org/2000/svg">
<g clip-path="url(#clip0_2124_24871)">
<path d="M0 23.1914C0 24.0586 0.679688 24.7383 1.55859 24.7383H2.92969C3.80859 24.7383 4.48828 24.0586 4.48828 23.1914V21.4922H23.25V23.1914C23.25 24.0586 23.918 24.7383 24.7969 24.7383H26.1797C27.0586 24.7383 27.7266 24.0586 27.7266 23.1914V15.3633C27.7266 13.3945 27.457 12.2109 26.25 10.8867L25.0664 9.60938L23.8359 6.08203C23.168 4.16016 21.8672 3.35156 20.25 3.16406C19.4648 3.07031 16.8984 3 13.8633 3C10.8398 3 8.27344 3.07031 7.48828 3.16406C5.85938 3.35156 4.55859 4.16016 3.89062 6.08203L2.66016 9.60938L1.48828 10.8867C0.269531 12.2109 0 13.3945 0 15.3633V23.1914ZM5.88281 9.66797C5.30859 9.66797 5.12109 9.25781 5.29688 8.74219L6.02344 6.55078C6.29297 5.74219 6.72656 5.48438 7.42969 5.39062C8.25 5.27344 10.5234 5.19141 13.8633 5.19141C17.2148 5.19141 19.4766 5.27344 20.2852 5.39062C21 5.48438 21.4219 5.74219 21.6914 6.55078L22.4297 8.74219C22.6055 9.25781 22.4062 9.66797 21.8438 9.66797H5.88281ZM4.24219 16.9922C3.51562 16.9922 2.98828 16.4648 2.98828 15.75V13.9219C2.98828 13.207 3.51562 12.6914 4.24219 12.6914C4.95703 12.6914 5.48438 13.1953 5.48438 13.9219V15.75C5.48438 16.4766 4.95703 16.9922 4.24219 16.9922ZM11.2031 16.4297C10.6289 16.4297 10.2422 16.0547 10.2422 15.4219V14.2383C10.2422 13.6289 10.6289 13.2539 11.2031 13.2539H16.4883C17.0742 13.2539 17.4609 13.6289 17.4609 14.2383V15.4219C17.4609 16.0547 17.0742 16.4297 16.4883 16.4297H11.2031ZM23.6016 16.9922C22.8984 16.9922 22.3594 16.4648 22.3594 15.75V13.9219C22.3594 13.207 22.8984 12.6914 23.6016 12.6914C24.3281 12.6914 24.8555 13.1953 24.8555 13.9219V15.75C24.8555 16.4766 24.3281 16.9922 23.6016 16.9922Z" fill="black" fill-opacity="0.85"/>
</g>
<defs>
<clipPath id="clip0_2124_24871">
<rect width="27.7266" height="21.7852" fill="white" transform="translate(0 3)"/>
</clipPath>
</defs>
</svg>
