<svg width="28" height="28" viewBox="0 0 28 28" fill="none" xmlns="http://www.w3.org/2000/svg">
<g clip-path="url(#clip0_2124_24775)">
<path d="M15.8867 4.08202C12.3008 4.05859 8 7.65624 8 11.1367C8 14.0195 10.8828 16.293 13.2148 16.2812C16.4609 16.2695 20.9375 12.5078 20.9375 9.36718C20.9375 6.33202 18.5938 4.10546 15.8867 4.08202ZM12.1016 14.6641C11.4453 14.6641 10.4375 13.8437 9.80469 12.8242C9.18359 11.7812 9.20703 10.9727 9.86328 10.9727C10.5078 10.9727 11.5273 11.7812 12.1484 12.8242C12.7695 13.8437 12.7461 14.6641 12.1016 14.6641ZM15.3711 9.43749C14.9961 8.91015 15.125 8.20702 15.6406 7.84374L17.2695 6.66015C17.7734 6.28515 18.4883 6.41405 18.8398 6.9414C19.2383 7.45702 19.1211 8.13671 18.6055 8.52343L16.9766 9.68358C16.4375 10.0703 15.7227 9.95311 15.3711 9.43749ZM16.4609 24.6133H17.9258C18.6523 24.6133 19.1328 24.2383 19.1328 23.5234V14.7695C17.9844 15.8008 16.625 16.6211 15.2539 17.0547V23.5234C15.2539 24.2383 15.7227 24.6133 16.4609 24.6133Z" fill="black" fill-opacity="0.85"/>
</g>
<defs>
<clipPath id="clip0_2124_24775">
<rect width="12.9375" height="20.6133" fill="white" transform="translate(8 4)"/>
</clipPath>
</defs>
</svg>
