<svg width="28" height="28" viewBox="0 0 28 28" fill="none" xmlns="http://www.w3.org/2000/svg">
<path d="M26.3438 13.8477C26.7656 13.8477 27.1172 13.4961 27.1172 13.0742C27.1172 12.6523 26.7656 12.3125 26.3438 12.3125C22.5352 12.3125 19.4766 15.3828 19.4766 19.1914C19.4766 19.625 19.8047 19.9648 20.2266 19.9648C20.6602 19.9648 21.0117 19.625 21.0117 19.1914C21.0117 16.25 23.3906 13.8477 26.3438 13.8477Z" fill="black" fill-opacity="0.85"/>
<path d="M26.3438 11.2813C26.7656 11.2813 27.1172 10.9414 27.1172 10.5195C27.1172 10.0977 26.7656 9.74609 26.3438 9.74609C21.1055 9.74609 16.9102 13.9531 16.9102 19.1914C16.9102 19.625 17.25 19.9648 17.6719 19.9648C18.1055 19.9648 18.4453 19.625 18.4453 19.1914C18.4453 14.832 21.9844 11.2813 26.3438 11.2813Z" fill="black" fill-opacity="0.85"/>
<path d="M26.3438 8.71484C26.7656 8.71484 27.1172 8.375 27.1172 7.95312C27.1172 7.53125 26.7656 7.17969 26.3438 7.17969C19.6992 7.17969 14.3555 12.5469 14.3555 19.1914C14.3555 19.625 14.6836 19.9648 15.1055 19.9648C15.5391 19.9648 15.8906 19.625 15.8906 19.1914C15.8906 13.4258 20.5664 8.71484 26.3438 8.71484Z" fill="black" fill-opacity="0.85"/>
<path d="M26.3438 6.16016C26.7656 6.16016 27.1172 5.80859 27.1172 5.38672C27.1172 4.96484 26.7656 4.625 26.3438 4.625C18.2812 4.625 11.7773 11.1289 11.7773 19.1914C11.7773 19.625 12.1172 19.9648 12.5391 19.9648C12.9727 19.9648 13.3125 19.625 13.3125 19.1914C13.3125 12.0078 19.1484 6.16016 26.3438 6.16016Z" fill="black" fill-opacity="0.85"/>
<path d="M26.3438 3.59375C26.7656 3.59375 27.1172 3.25391 27.1172 2.83203C27.1172 2.39844 26.7656 2.05859 26.3438 2.05859C16.8633 2.05859 9.22266 9.71094 9.22266 19.1914C9.22266 19.625 9.5625 19.9648 9.97266 19.9648C10.4062 19.9648 10.7578 19.625 10.7578 19.1914C10.7578 10.5898 17.7305 3.59375 26.3438 3.59375Z" fill="black" fill-opacity="0.85"/>
<path d="M4.78125 26.2695H16.875C20.1328 26.2695 22.6641 23.7969 22.6641 20.6328C22.6641 17.4805 20.1211 15.1016 16.7695 15.0312C15.4453 12.5938 13.0898 11.082 10.3359 11.082C6.60938 11.082 3.50391 13.9531 3.11719 17.6445C1.26562 18.2305 0 19.8594 0 21.8984C0 24.4531 1.92188 26.2695 4.78125 26.2695Z" fill="white"/>
<path d="M4.78125 26.2695H16.875C20.1328 26.2695 22.6641 23.7969 22.6641 20.6328C22.6641 17.4805 20.1211 15.1016 16.7695 15.0312C15.4453 12.5938 13.0898 11.082 10.3359 11.082C6.60938 11.082 3.50391 13.9531 3.11719 17.6445C1.26562 18.2305 0 19.8594 0 21.8984C0 24.4531 1.92188 26.2695 4.78125 26.2695ZM4.74609 24.3828C2.85938 24.3828 1.88672 23.3164 1.88672 21.9336C1.88672 20.7852 2.55469 19.7656 4.19531 19.332C4.74609 19.1797 4.96875 18.9102 5.01562 18.3359C5.27344 15.207 7.55859 12.9805 10.3359 12.9805C12.4805 12.9805 14.1445 14.1641 15.1758 16.2383C15.4336 16.7188 15.7266 16.9062 16.3125 16.9062C19.1836 16.9062 20.7773 18.6172 20.7773 20.6797C20.7773 22.7422 19.1133 24.3828 16.9102 24.3828H4.74609Z" fill="black" fill-opacity="0.85"/>
</svg>
