<svg width="29" height="29" viewBox="0 0 29 29" fill="none" xmlns="http://www.w3.org/2000/svg">
<g clip-path="url(#clip0_2124_45989)">
<path d="M23.7449 18.4168C24.6941 17.3972 23.2878 15.9675 22.1863 17.0574C20.6394 18.5925 18.0027 19.5418 15.0964 19.5418C11.9089 19.5418 8.87376 18.8035 5.96751 17.2215C4.64329 16.4949 3.65891 18.3816 5.03001 19.1082C8.18235 20.7839 11.6159 21.6277 15.0964 21.6277C18.6706 21.6277 21.8347 20.4558 23.7449 18.4168ZM7.1511 19.8582C6.88157 20.3738 6.28391 21.3465 5.92063 21.7332C5.10032 22.5886 6.29563 23.6433 7.11594 22.7527C7.85423 21.9441 8.44016 20.7019 8.66282 20.3269L7.1511 19.8582ZM11.2409 20.7957C11.0183 21.8386 10.6667 22.9988 10.4675 23.4558C9.98704 24.5574 11.4753 25.1316 11.9441 24.0066C12.3542 22.9754 12.6355 21.4519 12.6941 21.0183L11.2409 20.7957ZM15.4949 21.0535C15.6472 22.1199 15.5886 23.3386 15.5534 23.8425C15.4949 25.0379 17.1003 25.0613 17.1238 23.8543C17.1589 22.741 17.0183 21.2058 16.9363 20.7722L15.4949 21.0535ZM19.4792 20.2918C20.0769 21.4754 20.2644 22.7175 20.3699 23.2215C20.5808 24.405 22.1511 23.8777 21.8933 22.8347C21.5769 21.5222 21.1784 20.1629 20.7331 19.5066L19.4792 20.2918Z" fill="black" fill-opacity="0.85"/>
<path d="M4.4915 13.5769C6.70635 13.5769 14.1712 8.20972 17.804 8.20972C19.0814 8.20972 20.2064 8.72535 21.39 9.80347L24.3314 12.5105C25.304 13.4011 26.6869 12.3464 26.1126 11.3503C25.597 10.5066 24.8119 9.33472 23.0775 7.41285C21.2025 5.32691 19.4915 4.00269 16.808 4.00269C13.3275 4.00269 8.03057 6.01831 3.10869 8.6316C1.01104 9.74488 2.14775 13.5769 4.4915 13.5769Z" fill="black" fill-opacity="0.85"/>
</g>
<defs>
<clipPath id="clip0_2124_45989">
<rect width="24.2418" height="20.8242" fill="white" transform="translate(2.00586 4.00269)"/>
</clipPath>
</defs>
</svg>
