<svg width="28" height="28" viewBox="0 0 28 28" fill="none" xmlns="http://www.w3.org/2000/svg">
<path d="M2.31406 16.8805L11.7008 26.2672C13.4352 28.0016 15.1461 28.0133 16.8687 26.3023L26.3023 16.857C28.0133 15.1461 28.0016 13.4234 26.2672 11.6891L16.8922 2.31406C15.1578 0.579683 13.4469 0.556245 11.7242 2.2789L2.2789 11.7125C0.556245 13.4352 0.579683 15.1461 2.31406 16.8805ZM3.67343 15.5797C2.8414 14.7359 2.81796 13.857 3.68515 12.9898L12.9898 3.68515C13.857 2.81796 14.7359 2.82968 15.5797 3.67343L24.9078 13.0016C25.7398 13.8336 25.7633 14.7242 24.8961 15.5914L15.5914 24.8961C14.7242 25.7633 13.8219 25.7398 13.0016 24.9195L3.67343 15.5797Z" fill="black" fill-opacity="0.85"/>
<path d="M17.0684 21.4391C17.4316 21.4391 17.7949 21.193 17.7949 20.7477C17.7949 20.5719 17.7481 20.4195 17.6543 20.232L16.2715 17.4078C16.1309 17.1148 15.9785 16.9156 15.8613 16.7516L15.041 15.568L15.1113 15.3687C15.3574 14.6539 15.4746 14.1852 15.5215 13.482L15.6504 11.607C15.7207 10.5992 15.1465 9.77887 14.0332 9.77887C13.3066 9.77887 12.6387 10.1422 11.9356 10.8336L10.8574 11.8766C10.4941 12.2281 10.3887 12.5094 10.3535 12.9547L10.2129 14.525C10.1777 14.9937 10.4473 15.2984 10.8691 15.3336C11.2676 15.357 11.5606 15.1227 11.6074 14.6187L11.7363 12.9312L12.3223 12.4273C12.4981 12.275 12.709 12.3687 12.6856 12.6266L12.5801 14.0562C12.5098 14.8414 12.8965 15.4039 13.2832 15.8844L14.6309 17.5836C14.7598 17.7359 14.7832 17.7945 14.8535 17.9234L16.3418 20.9586C16.4941 21.2867 16.752 21.4391 17.0684 21.4391ZM10.6934 21.4391C10.916 21.4391 11.1152 21.357 11.2559 21.193L13.4004 18.6383C13.6348 18.357 13.6582 18.3453 13.7168 18.0875L13.834 17.5836L12.6621 16.107L12.3106 17.7594L10.3301 20.1031C10.1777 20.2906 10.0254 20.4781 10.0254 20.7594C10.0254 21.1812 10.3066 21.4391 10.6934 21.4391ZM17.4551 13.8922H19.1191C19.6113 13.8922 19.8926 13.6227 19.8926 13.1891C19.8926 12.7789 19.6113 12.4977 19.1191 12.4977H17.3496L16.2598 11.2789L16.1309 13.107L16.6113 13.5875C16.8457 13.8336 17.0566 13.8922 17.4551 13.8922ZM14.9238 9.22809C15.7559 9.22809 16.4473 8.53668 16.4473 7.71637C16.4473 6.8609 15.7559 6.19293 14.9238 6.19293C14.0801 6.19293 13.4121 6.8609 13.4121 7.71637C13.4121 8.53668 14.0801 9.22809 14.9238 9.22809Z" fill="black" fill-opacity="0.85"/>
</svg>
