<svg width="28" height="28" viewBox="0 0 28 28" fill="none" xmlns="http://www.w3.org/2000/svg">
<g clip-path="url(#clip0_2124_24606)">
<path d="M4 18.7383C4 20.4727 5.05469 21.5742 6.68359 21.5742H21.2734C22.9023 21.5742 23.957 20.4727 23.957 18.7383V8.83594C23.957 7.10156 22.9023 6 21.2734 6H6.68359C5.05469 6 4 7.10156 4 8.83594V18.7383ZM5.88672 18.5039V9.07031C5.88672 8.33203 6.30859 7.88672 7 7.88672H20.9688C21.6484 7.88672 22.0703 8.33203 22.0703 9.07031V18.5039C22.0703 19.2422 21.6484 19.6875 20.9688 19.6875H7C6.30859 19.6875 5.88672 19.2422 5.88672 18.5039ZM15.9883 18.3281C18.5078 18.3281 20.5352 16.2891 20.5352 13.7812C20.5352 11.2734 18.5078 9.23438 15.9883 9.23438C13.4805 9.23438 11.4531 11.2734 11.4531 13.7812C11.4531 16.2891 13.4805 18.3281 15.9883 18.3281ZM15.9883 16.8281C14.2891 16.8281 12.9531 15.4805 12.9531 13.7812C12.9531 12.082 14.2891 10.7344 15.9883 10.7344C17.6992 10.7344 19.0352 12.082 19.0352 13.7812C19.0352 15.4805 17.6992 16.8281 15.9883 16.8281Z" fill="black" fill-opacity="0.85"/>
</g>
<defs>
<clipPath id="clip0_2124_24606">
<rect width="19.957" height="15.5742" fill="white" transform="translate(4 6)"/>
</clipPath>
</defs>
</svg>
