<svg width="28" height="28" viewBox="0 0 28 28" fill="none" xmlns="http://www.w3.org/2000/svg">
<path d="M13.9531 25.9062C20.4922 25.9062 25.9062 20.4805 25.9062 13.9531C25.9062 7.41406 20.4805 2 13.9414 2C7.41406 2 2 7.41406 2 13.9531C2 20.4805 7.42578 25.9062 13.9531 25.9062ZM13.9531 23.9141C8.42188 23.9141 4.00391 19.4844 4.00391 13.9531C4.00391 8.42188 8.41016 3.99219 13.9414 3.99219C19.4727 3.99219 23.9141 8.42188 23.9141 13.9531C23.9141 19.4844 19.4844 23.9141 13.9531 23.9141Z" fill="black" fill-opacity="0.85"/>
<path d="M11.3633 19.3203C11.9727 19.3203 12.3008 18.9102 12.3008 18.2656V14.6328H16.5312C16.9883 14.6328 17.3164 14.3867 17.3164 13.918C17.3164 13.4375 16.9883 13.168 16.5312 13.168H12.3008V10.0391H16.9883C17.4453 10.0391 17.7734 9.73438 17.7734 9.26562C17.7734 8.78516 17.4453 8.50391 16.9883 8.50391H11.3516C10.7539 8.50391 10.4375 8.92578 10.4375 9.55859V18.2656C10.4375 18.8867 10.7539 19.3203 11.3633 19.3203Z" fill="black" fill-opacity="0.85"/>
</svg>
