<svg width="28" height="28" viewBox="0 0 28 28" fill="none" xmlns="http://www.w3.org/2000/svg">
<path d="M13.9531 25.9062C20.4922 25.9062 25.9062 20.4805 25.9062 13.9531C25.9062 7.41406 20.4805 2 13.9414 2C7.41406 2 2 7.41406 2 13.9531C2 20.4805 7.42578 25.9062 13.9531 25.9062ZM13.9531 23.9141C8.42188 23.9141 4.00391 19.4844 4.00391 13.9531C4.00391 8.42188 8.41016 3.99219 13.9414 3.99219C19.4727 3.99219 23.9141 8.42188 23.9141 13.9531C23.9141 19.4844 19.4844 23.9141 13.9531 23.9141Z" fill="black" fill-opacity="0.85"/>
<path d="M10.3789 18.9336C12.7227 18.9336 13.4141 16.3086 13.4141 13.9531C13.4141 11.5977 12.7227 8.97266 10.3789 8.97266C8.04688 8.97266 7.35547 11.5977 7.35547 13.9531C7.35547 16.3086 8.04688 18.9336 10.3789 18.9336ZM10.3789 17.5391C9.41797 17.5391 9.05469 15.9805 9.05469 13.9531C9.05469 11.9141 9.41797 10.3555 10.3789 10.3555C11.3398 10.3555 11.7031 11.9141 11.7031 13.9531C11.7031 15.9805 11.3398 17.5391 10.3789 17.5391ZM15.4648 18.6875H19.5312C19.9531 18.6875 20.1992 18.418 20.1992 18.0078C20.1992 17.5625 19.9414 17.3164 19.5312 17.3164H16.7539V17.2227L18.4648 15.0547C19.6367 13.6016 20.0234 12.7344 20.0234 11.7031C20.0234 10.1211 18.9453 8.97266 17.3281 8.97266C15.8281 8.97266 14.6914 10.2148 14.6914 11.4336C14.6914 11.8672 14.9492 12.1719 15.3945 12.1719C15.7812 12.1719 16.0156 11.9961 16.1445 11.6094C16.3555 10.8242 16.6484 10.332 17.3281 10.332C18.0312 10.332 18.4297 10.9531 18.4297 11.7852C18.4297 12.7227 17.7734 13.6719 17.1523 14.4688L15.1133 17.0703C14.9023 17.3516 14.6797 17.6445 14.6797 18.0078C14.6797 18.4062 14.9375 18.6875 15.4648 18.6875Z" fill="black" fill-opacity="0.85"/>
</svg>
