<svg width="28" height="28" viewBox="0 0 28 28" fill="none" xmlns="http://www.w3.org/2000/svg">
<path d="M13.9531 25.9062C20.4922 25.9062 25.9062 20.4805 25.9062 13.9531C25.9062 7.41406 20.4805 2 13.9414 2C7.41406 2 2 7.41406 2 13.9531C2 20.4805 7.42578 25.9062 13.9531 25.9062ZM13.9531 23.9141C8.42188 23.9141 4.00391 19.4844 4.00391 13.9531C4.00391 8.42188 8.41016 3.99219 13.9414 3.99219C19.4727 3.99219 23.9141 8.42188 23.9141 13.9531C23.9141 19.4844 19.4844 23.9141 13.9531 23.9141Z" fill="black" fill-opacity="0.85"/>
<path d="M8.78516 18.6758H12.3125C12.7461 18.6758 13.0508 18.4297 13.0508 17.9961C13.0508 17.5273 12.6875 17.3047 12.3125 17.3047H9.64062V14.5273H12.207C12.582 14.5273 12.8516 14.3164 12.8516 13.8828C12.8516 13.4375 12.5938 13.2266 12.207 13.2266H9.64062V10.6016H12.3125C12.6875 10.6016 13.0508 10.3789 13.0508 9.89844C13.0508 9.47656 12.7344 9.21875 12.3125 9.21875H8.78516C8.25781 9.21875 7.97656 9.57031 7.97656 10.0742V17.8203C7.97656 18.3008 8.24609 18.6758 8.78516 18.6758ZM15.1367 18.6758H19.4492C19.8477 18.6758 20.1289 18.3828 20.1289 17.9844C20.1289 17.5859 19.8477 17.3047 19.4492 17.3047H16.168V17.1875L19.7773 10.6953C19.8828 10.5195 19.9648 10.332 19.9648 10.0391C19.9648 9.47656 19.5664 9.21875 19.1211 9.21875H15.043C14.6211 9.21875 14.3164 9.5 14.3164 9.91016C14.3164 10.3203 14.6211 10.6016 15.043 10.6016H18.1602V10.6484L14.4805 17.2227C14.3984 17.375 14.3047 17.6445 14.3047 17.9023C14.3047 18.3828 14.6562 18.6758 15.1367 18.6758Z" fill="black" fill-opacity="0.85"/>
</svg>
